<svg width="180" height="180" viewBox="0 0 180 180" fill="none" xmlns="http://www.w3.org/2000/svg">
<path d="M105.109 111.896C99.8747 110.738 94.1107 110.159 87.8192 110.159C81.2756 110.159 75.4363 110.764 70.3024 111.971L70.8306 116.502C76.0151 115.344 81.6784 114.765 87.8192 114.765C94.1614 114.765 99.7487 115.344 104.581 116.502L105.109 111.896ZM72.7183 136.132C73.1211 135.126 74.7568 134.27 77.6261 133.566C80.4954 132.81 83.8929 132.433 87.8192 132.433C91.6948 132.433 95.0676 132.81 97.9363 133.566C100.806 134.27 102.441 135.126 102.844 136.132L103.146 131.376C98.9685 129.262 93.7839 128.204 87.5925 128.204C84.4211 128.204 81.5018 128.507 78.8344 129.111C76.1664 129.715 73.9766 130.394 72.2655 131.149L72.7183 136.132ZM96.1245 121.409L87.7438 117.936L79.3626 121.409L87.7438 124.882L96.1245 121.409ZM115.68 88.641C116.989 85.4196 116.863 79.7816 115.302 71.7283C113.742 63.6244 110.218 57.7097 104.732 53.9849C103.675 53.0788 102.844 52.6259 102.24 52.6259C101.234 52.6259 100.277 53.1543 99.3713 54.2114C98.5151 55.2182 98.4651 56.3507 99.2199 57.609C105.512 61.9881 109.916 67.5253 112.433 74.2196C114.95 80.8639 116.032 85.671 115.68 88.641ZM87.0637 37.6762C85.0005 37.6762 83.9683 38.6829 83.9683 40.6963C83.9683 42.7601 85.0005 43.792 87.0637 43.792C89.1276 43.792 90.1598 42.7601 90.1598 40.6963C90.1598 38.6829 89.1276 37.6762 87.0637 37.6762ZM105.185 37.8272C103.02 37.8272 101.938 38.9094 101.938 41.0738C101.938 43.2383 103.02 44.3204 105.185 44.3204C107.349 44.3204 108.431 43.2383 108.431 41.0738C108.431 38.9094 107.349 37.8272 105.185 37.8272ZM108.129 117.181L105.789 136.434C105.739 137.945 103.926 139.228 100.353 140.285C96.7787 141.342 92.5003 141.871 87.5171 141.871C82.4833 141.871 78.1796 141.342 74.6061 140.285C71.0826 139.228 69.3208 137.945 69.3208 136.434L67.0556 117.181C63.4815 111.745 60.9649 106.233 59.5052 100.646C58.0455 95.0586 57.3159 89.6979 57.3159 84.564C57.3159 69.111 65.6713 57.2816 82.3826 49.0772C82.3826 48.3221 82.4586 47.3406 82.6093 46.1325C80.8976 44.7231 80.0421 42.9111 80.0421 40.6963C80.0421 36.0654 82.3826 33.75 87.0637 33.75C91.6948 33.75 94.0101 36.0654 94.0101 40.6963C94.0101 42.7601 93.2805 44.4715 91.8208 45.8305C91.8208 47.391 92.0222 48.448 92.4249 49.0017C93.2299 50.1594 94.3628 50.7886 95.8224 50.8893C97.3322 50.7886 98.5404 50.1342 99.4466 48.9262C99.648 48.6242 99.8494 47.6678 100.051 46.057C98.7418 44.698 98.0876 43.0369 98.0876 41.0738C98.0876 36.3423 100.453 33.9765 105.185 33.9765C109.916 33.9765 112.282 36.3423 112.282 41.0738C112.282 43.792 111.125 45.8305 108.809 47.1896C108.607 48.1963 108.557 49.0268 108.658 49.6812C117.165 59.6981 120.864 71.3256 119.757 84.564C119.405 88.3389 118.901 91.9378 118.247 95.3606C117.643 98.7834 116.359 102.332 114.396 106.007C113.44 107.869 112.458 109.757 111.452 111.67C110.445 113.582 109.338 115.419 108.129 117.181ZM87.5925 141.946C95.3944 149.345 104.606 153.046 115.227 153.046C120.412 153.046 125.772 151.409 131.309 148.138C136.896 144.866 141.653 141.77 145.579 138.851C146.032 139.757 145.831 141.242 144.975 143.305C144.119 145.319 143.414 147.03 142.861 148.44C143.465 148.591 144.094 148.817 144.749 149.119C147.517 150.478 149.631 152.189 151.091 154.253C152.601 156.267 153.003 158.029 152.299 159.539C151.896 160.394 151.267 161.024 150.411 161.426C150.512 160.923 150.562 160.52 150.562 160.218C150.562 157.047 148.976 155.462 145.806 155.462C144.849 155.462 144.044 155.688 143.39 156.141C134.631 160.873 125.243 163.238 115.226 163.238C110.344 163.238 105.587 162.408 100.956 160.747C96.3259 159.086 91.8709 157.047 87.5925 154.631C83.4148 157.047 78.9598 159.086 74.2281 160.747C69.5469 162.408 64.7904 163.238 59.958 163.238C49.8408 163.238 40.4531 160.873 31.7954 156.141C31.0907 155.688 30.2854 155.462 29.3793 155.462C26.2082 155.462 24.6226 157.047 24.6226 160.218C24.6226 160.47 24.6226 160.696 24.6226 160.898C24.673 161.099 24.6982 161.275 24.6982 161.426C23.7418 160.923 23.1378 160.293 22.8861 159.539C22.1311 158.029 22.4834 156.267 23.9432 154.253C25.4029 152.189 27.5421 150.478 30.3609 149.119C30.9146 148.867 31.5438 148.641 32.2485 148.44C31.6445 147.03 30.9146 145.319 30.0589 143.305C29.2535 141.242 29.1025 139.757 29.6059 138.851C33.4817 141.77 38.1881 144.866 43.725 148.138C49.262 151.409 54.673 153.046 59.958 153.046C64.9412 153.046 69.8996 152.089 74.8322 150.176C79.8154 148.213 84.069 145.47 87.5925 141.946ZM87.5925 65.3861H83.6662V78.2213H74.6814V85.923H83.6662V105.931H91.4434V85.923H100.428V78.2213H91.4434V65.3861H87.5925Z" fill="#1B262C"/>
<path d="M105.109 111.896C99.8741 110.738 94.1107 110.159 87.8192 110.159C81.2756 110.159 75.4363 110.764 70.3024 111.971L70.8306 116.502C76.0151 115.344 81.6778 114.765 87.8192 114.765C94.1614 114.765 99.7487 115.344 104.581 116.502L105.109 111.896ZM72.7183 136.132C73.1211 135.126 74.7568 134.27 77.6261 133.566C80.4949 132.81 83.8929 132.433 87.8192 132.433C91.6948 132.433 95.0676 132.81 97.9363 133.566C100.806 134.27 102.441 135.126 102.844 136.132L103.146 131.376C98.9685 129.262 93.7839 128.204 87.5925 128.204C84.4211 128.204 81.5017 128.507 78.8338 129.111C76.1664 129.715 73.9766 130.394 72.2655 131.149L72.7183 136.132ZM96.1245 121.409L87.7432 117.936L79.3626 121.409L87.7432 124.882L96.1245 121.409ZM115.68 88.641C116.988 85.4196 116.863 79.7816 115.302 71.7283C113.742 63.6244 110.218 57.7097 104.732 53.9849C103.675 53.0789 102.844 52.6258 102.24 52.6258C101.234 52.6258 100.277 53.1543 99.3712 54.2114C98.5151 55.2181 98.465 56.3507 99.2199 57.609C105.512 61.9881 109.916 67.5253 112.433 74.2196C114.95 80.8639 116.032 85.671 115.68 88.641ZM87.0637 37.6761C84.9999 37.6761 83.9683 38.6829 83.9683 40.6963C83.9683 42.7601 84.9999 43.7919 87.0637 43.7919C89.1276 43.7919 90.1597 42.7601 90.1597 40.6963C90.1597 38.6829 89.1276 37.6761 87.0637 37.6761ZM105.185 37.8272C103.02 37.8272 101.938 38.9094 101.938 41.0738C101.938 43.2383 103.02 44.3205 105.185 44.3205C107.349 44.3205 108.431 43.2383 108.431 41.0738C108.431 38.9094 107.349 37.8272 105.185 37.8272ZM87.5925 65.3861H83.6662V78.2213H74.6814V85.923H83.6662V105.931H91.4434V85.923H100.428V78.2213H91.4434V65.3861H87.5925Z" fill="#3282B8"/>
</svg>
