<svg width="180" height="180" viewBox="0 0 180 180" fill="none" xmlns="http://www.w3.org/2000/svg">
<path d="M97.9656 99.5136V74.673H82.4119V99.5136C77.8821 101.175 74.1819 103.993 71.3132 107.97C68.4439 111.896 67.0095 116.351 67.0095 121.334C67.0095 127.726 69.2747 133.188 73.8045 137.718C78.3349 142.248 83.7962 144.514 90.189 144.514C96.5312 144.514 101.967 142.248 106.498 137.718C111.078 133.188 113.368 127.726 113.368 121.334C113.368 116.351 111.909 111.871 108.989 107.894C106.12 103.918 102.445 101.124 97.9656 99.5136ZM101.665 147.232C97.8401 148.842 94.0146 149.648 90.189 149.648C86.1114 149.648 82.2864 148.842 78.7123 147.232L72.9742 157.198H107.63L101.665 147.232ZM82.4119 56.8541C78.9891 54.3876 77.2779 50.9899 77.2779 46.6611C77.2779 43.1376 78.5362 40.1174 81.0529 37.6006C83.5695 35.0336 86.6149 33.75 90.189 33.75C93.7125 33.75 96.7326 35.0336 99.2492 37.6006C101.766 40.1174 103.025 43.1376 103.025 46.6611C103.025 50.9396 101.313 54.3624 97.8902 56.9295L113.293 74.673H103.1L103.025 96.1155C107.605 98.532 111.33 101.98 114.199 106.46C117.068 110.94 118.502 115.897 118.502 121.334C118.502 126.267 117.345 130.797 115.03 134.925C112.714 139.002 109.669 142.324 105.893 144.891L115.935 162.559H64.4422L74.484 144.891C66.078 139.304 61.875 131.451 61.875 121.334C61.875 115.897 63.2846 110.94 66.1033 106.46C68.9721 101.93 72.6969 98.4814 77.2779 96.1155L77.3533 74.673H67.0849L82.4119 56.8541ZM93.8132 58.8926C92.6556 59.3454 91.4473 59.5721 90.189 59.5721C88.9807 59.5721 87.7478 59.3708 86.4894 58.968L77.2779 69.6139H103.025L93.8132 58.8926ZM90.189 38.8842C85.0044 38.8842 82.4119 41.4765 82.4119 46.6611C82.4119 51.8456 85.0044 54.4379 90.189 54.4379C95.3736 54.4379 97.9656 51.8456 97.9656 46.6611C97.9656 41.4765 95.3736 38.8842 90.189 38.8842Z" fill="#1B262C"/>
<path d="M97.9661 99.5136V74.673H82.4124V99.5136C77.882 101.175 74.1825 103.993 71.3132 107.97C68.4438 111.896 67.0095 116.351 67.0095 121.334C67.0095 127.726 69.2746 133.188 73.805 137.718C78.3348 142.248 83.7967 144.514 90.189 144.514C96.5311 144.514 101.968 142.248 106.498 137.718C111.079 133.188 113.368 127.726 113.368 121.334C113.368 116.351 111.909 111.871 108.989 107.894C106.12 103.918 102.446 101.124 97.9661 99.5136ZM101.666 147.232C97.8401 148.843 94.0145 149.647 90.189 149.647C86.112 149.647 82.2864 148.843 78.7123 147.232L72.9742 157.198H107.63L101.666 147.232ZM93.8132 58.8926C92.6555 59.3454 91.4473 59.5721 90.189 59.5721C88.9813 59.5721 87.7477 59.3707 86.4894 58.968L77.2779 69.6139H103.025L93.8132 58.8926ZM90.189 38.8842C85.0044 38.8842 82.4124 41.4765 82.4124 46.6611C82.4124 51.8456 85.0044 54.4379 90.189 54.4379C95.3735 54.4379 97.9661 51.8456 97.9661 46.6611C97.9661 41.4765 95.3735 38.8842 90.189 38.8842Z" fill="#BBE1FA"/>
</svg>
