<svg width="180" height="180" viewBox="0 0 180 180" fill="none" xmlns="http://www.w3.org/2000/svg">
<path d="M130.017 136.586C129.966 135.529 130.042 133.943 130.243 131.829L124.43 132.961L128.884 136.812L130.017 136.586ZM53.6074 136.736L54.5135 137.038L58.968 133.188L53.2299 132.131C53.3809 133.188 53.5067 134.723 53.6074 136.736ZM132.131 152.139C122.92 148.314 109.555 146.401 92.0385 146.401C74.1696 146.401 60.6544 148.364 51.4933 152.29C60.3022 155.764 73.7415 157.5 91.8118 157.5C100.47 157.5 108.372 157.022 115.52 156.066C122.718 155.109 128.255 153.8 132.131 152.139ZM132.357 119.824C132.357 119.22 132.357 118.591 132.357 117.936C132.357 117.282 132.357 116.577 132.357 115.822C132.357 110.386 132.861 104.547 133.868 98.3053C131.703 102.282 128.532 104.27 124.354 104.27C121.485 104.27 119.044 103.263 117.03 101.25C115.017 99.1862 114.01 96.7196 114.01 93.8509C114.01 93.6495 114.06 93.3975 114.161 93.0954C114.916 90.0754 114.941 88.4396 114.236 88.1882C113.733 88.0369 113.23 88.8924 112.727 90.7549C111.216 95.6374 107.92 98.0786 102.836 98.0786C99.9664 98.0786 97.5251 97.0723 95.5119 95.0586C93.4982 92.9947 92.5166 90.5287 92.5672 87.6594C92.4666 85.7464 92.1898 84.7901 91.7364 84.7901C91.1829 84.7901 90.8809 85.7464 90.8303 87.6594C90.8303 90.5287 89.8239 92.9947 87.8102 95.0586C85.8471 97.0723 83.4311 98.0786 80.5618 98.0786C75.4779 98.0786 72.2064 95.6374 70.7467 90.7549C70.1927 88.9931 69.6898 88.1376 69.2364 88.1882C68.4816 88.389 68.4816 89.9499 69.2364 92.8693C69.2364 93.0201 69.2364 93.1961 69.2364 93.3975C69.2871 93.5488 69.3118 93.6996 69.3118 93.8509C69.3118 96.7196 68.2802 99.1862 66.2164 101.25C64.2032 103.263 61.7867 104.27 58.968 104.27C54.7399 104.27 51.5688 102.282 49.4547 98.3053C50.4614 104.597 50.9648 110.436 50.9648 115.822C50.9648 117.584 50.9396 118.893 50.8892 119.748C60.9564 117.08 74.5723 115.747 91.7364 115.747C108.8 115.747 122.34 117.106 132.357 119.824ZM149.799 77.8438C146.627 77.8438 143.935 76.7368 141.72 74.5217C139.555 72.3071 138.473 69.6392 138.473 66.5184C138.473 63.3977 139.555 60.7298 141.72 58.5152C143.935 56.25 146.627 55.1175 149.799 55.1175C152.92 55.1175 155.587 56.25 157.802 58.5152C160.017 60.7298 161.124 63.3977 161.124 66.5184C161.124 69.6392 160.017 72.3071 157.802 74.5217C155.587 76.7368 152.92 77.8438 149.799 77.8438ZM149.799 72.0304C153.473 72.0304 155.31 70.1927 155.31 66.5184C155.31 62.8442 153.473 61.0065 149.799 61.0065C146.124 61.0065 144.287 62.8442 144.287 66.5184C144.287 70.1927 146.124 72.0304 149.799 72.0304ZM33.8255 72.0304C37.5 72.0304 39.3373 70.1927 39.3373 66.5184C39.3373 62.8442 37.5 61.0065 33.8255 61.0065C30.151 61.0065 28.3138 62.8442 28.3138 66.5184C28.3138 70.1927 30.151 72.0304 33.8255 72.0304ZM33.8255 77.8438C30.6544 77.8438 27.9614 76.7368 25.7466 74.5217C23.5822 72.3071 22.5 69.6392 22.5 66.5184C22.5 63.3977 23.5822 60.7298 25.7466 58.5152C27.9614 56.3001 30.6544 55.193 33.8255 55.193C36.896 55.193 39.5386 56.3001 41.7534 58.5152C44.0184 60.7298 45.151 63.3977 45.151 66.5184C45.151 69.6392 44.0184 72.3071 41.7534 74.5217C39.5386 76.7368 36.896 77.8438 33.8255 77.8438ZM121.938 64.8574C118.767 64.8574 116.074 63.7751 113.859 61.6106C111.695 59.3961 110.612 56.7028 110.612 53.5319C110.612 50.4614 111.695 47.8188 113.859 45.604C116.074 43.3389 118.767 42.2064 121.938 42.2064C125.059 42.2064 127.726 43.3389 129.941 45.604C132.156 47.8188 133.264 50.4614 133.264 53.5319C133.264 56.7028 132.156 59.3961 129.941 61.6106C127.726 63.7751 125.059 64.8574 121.938 64.8574ZM121.938 59.0434C125.612 59.0434 127.45 57.2062 127.45 53.5319C127.45 49.8574 125.612 48.0201 121.938 48.0201C118.263 48.0201 116.426 49.8574 116.426 53.5319C116.426 57.2062 118.263 59.0434 121.938 59.0434ZM61.5352 59.0434C65.2095 59.0434 67.0472 57.2062 67.0472 53.5319C67.0472 49.8574 65.2095 48.0201 61.5352 48.0201C57.861 48.0201 56.0235 49.8574 56.0235 53.5319C56.0235 57.2062 57.861 59.0434 61.5352 59.0434ZM61.5352 64.8574C58.4145 64.8574 55.7466 63.7751 53.5319 61.6106C51.3171 59.3961 50.2097 56.7028 50.2097 53.5319C50.2097 50.4614 51.3171 47.8188 53.5319 45.604C55.7466 43.3389 58.4145 42.2064 61.5352 42.2064C64.656 42.2064 67.3239 43.3389 69.5385 45.604C71.7536 47.8188 72.8606 50.4614 72.8606 53.5319C72.8606 56.7028 71.7536 59.3961 69.5385 61.6106C67.3239 63.7751 64.656 64.8574 61.5352 64.8574ZM91.7364 50.5873C95.4113 50.5873 97.2484 48.75 97.2484 45.0755C97.2484 41.401 95.4113 39.5638 91.7364 39.5638C88.0622 39.5638 86.2251 41.401 86.2251 45.0755C86.2251 48.75 88.0622 50.5873 91.7364 50.5873ZM91.7364 56.4007C88.5656 56.4007 85.8724 55.3188 83.6578 53.1543C81.4933 50.9396 80.4111 48.2466 80.4111 45.0755C80.4111 42.005 81.4933 39.3624 83.6578 37.1477C85.8724 34.8825 88.5656 33.75 91.7364 33.75C94.8572 33.75 97.5251 34.8825 99.7397 37.1477C101.955 39.3624 103.062 42.005 103.062 45.0755C103.062 48.2466 101.955 50.9396 99.7397 53.1543C97.5251 55.3188 94.8572 56.4007 91.7364 56.4007ZM37.4497 77.6177L41.7534 75.4279L54.8155 97.3237C56.0235 98.532 57.4076 99.1361 58.968 99.1361C62.4414 99.1361 64.1779 97.3744 64.1779 93.8509C64.1779 93.3975 64.1526 93.0707 64.1025 92.8693L61.1578 65.4615L66.3671 64.5553L76.032 90.4528C77.1896 92.1139 78.6994 92.9447 80.5618 92.9447C83.7332 92.9447 85.4696 91.4096 85.7717 88.3389L89.1692 56.5521H94.3037L97.6258 88.3389C97.9779 91.4096 99.7149 92.9447 102.836 92.9447C104.698 92.9447 106.183 92.1139 107.29 90.4528L117.106 64.5553L122.164 65.6122L119.144 92.7934C119.144 92.9947 119.119 93.1961 119.069 93.3975C119.069 93.5488 119.069 93.6996 119.069 93.8509C119.069 97.3744 120.831 99.1361 124.354 99.1361C125.864 99.1361 127.273 98.532 128.582 97.3237L141.795 75.3525L146.552 77.5417C140.763 89.6726 137.869 102.534 137.869 116.124C137.869 116.879 137.869 117.71 137.869 118.615C137.869 119.522 137.793 120.679 137.643 122.089C135.881 127.827 135 133.062 135 137.793C135 143.683 136.107 149.446 138.322 155.084C135.805 157.198 130.243 158.96 121.636 160.369C113.028 161.778 103.112 162.483 91.8877 162.483C80.4611 162.483 70.3941 161.753 61.686 160.293C53.0285 158.784 47.567 156.896 45.3019 154.631C47.416 149.345 48.473 143.733 48.473 137.793C48.473 133.062 47.6677 127.827 46.0569 122.089C46.0066 120.679 45.9814 119.522 45.9814 118.615C46.0317 117.71 46.0569 116.879 46.0569 116.124C46.0569 102.684 43.1878 89.8492 37.4496 77.6177H37.4497ZM101.779 131.3L91.7364 136.208L81.7701 131.3L91.7364 126.393L101.779 131.3ZM130.017 138.624L127.752 138.926L119.522 131.678L130.546 129.715C130.847 128.003 131.225 126.267 131.678 124.505C121.762 122.089 108.548 120.881 92.0385 120.881C75.2766 120.881 61.8874 122.164 51.8708 124.732C52.0218 125.436 52.3994 127.047 53.0034 129.564L64.1779 131.678L55.948 138.926L53.6829 138.624C53.4815 141.493 53.3054 143.708 53.1543 145.268C62.4161 142.5 75.3019 141.115 91.8118 141.115C107.97 141.115 120.831 142.5 130.394 145.268C130.042 142.45 129.916 140.235 130.017 138.624ZM96.9463 131.3L91.7364 128.733L86.6025 131.3L91.7364 133.868L96.9463 131.3Z" fill="#1B262C"/>
<path d="M130.017 136.586C129.966 135.529 130.042 133.943 130.243 131.829L124.429 132.962L128.884 136.812L130.017 136.586ZM53.6072 136.736L54.5133 137.039L58.9679 133.188L53.2297 132.131C53.3807 133.188 53.5066 134.723 53.6072 136.736ZM132.131 152.139C122.919 148.314 109.555 146.401 92.0384 146.401C74.1695 146.401 60.6543 148.364 51.4931 152.29C60.3016 155.764 73.7414 157.5 91.8117 157.5C100.47 157.5 108.372 157.022 115.52 156.065C122.718 155.109 128.255 153.8 132.131 152.139ZM132.357 119.824C132.357 119.22 132.357 118.591 132.357 117.936C132.357 117.282 132.357 116.577 132.357 115.822C132.357 110.386 132.861 104.547 133.867 98.3053C131.703 102.282 128.532 104.27 124.354 104.27C121.485 104.27 119.044 103.263 117.03 101.25C115.017 99.1862 114.01 96.7196 114.01 93.8503C114.01 93.6495 114.06 93.3975 114.161 93.0954C114.916 90.0754 114.941 88.4396 114.236 88.1876C113.733 88.0369 113.229 88.8924 112.726 90.7549C111.216 95.6374 107.92 98.0786 102.836 98.0786C99.9663 98.0786 97.5251 97.0723 95.5113 95.0586C93.4981 92.9947 92.5166 90.5282 92.5666 87.6594C92.4665 85.7464 92.1892 84.7901 91.7364 84.7901C91.1829 84.7901 90.8808 85.7464 90.8302 87.6594C90.8302 90.5282 89.8239 92.9947 87.8101 95.0586C85.847 97.0723 83.4311 98.0786 80.5617 98.0786C75.4779 98.0786 72.2064 95.6374 70.7467 90.7549C70.1926 88.9931 69.6892 88.1376 69.2364 88.1876C68.4815 88.389 68.4815 89.9494 69.2364 92.8693C69.2364 93.0201 69.2364 93.1961 69.2364 93.3975C69.287 93.5488 69.3117 93.6996 69.3117 93.8503C69.3117 96.7196 68.2801 99.1862 66.2163 101.25C64.2031 103.263 61.7866 104.27 58.9679 104.27C54.7398 104.27 51.5686 102.282 49.4545 98.3053C50.4613 104.597 50.9646 110.436 50.9646 115.822C50.9646 117.584 50.9394 118.892 50.889 119.748C60.9564 117.08 74.5717 115.747 91.7364 115.747C108.8 115.747 122.34 117.106 132.357 119.824ZM149.799 72.0304C153.473 72.0304 155.31 70.1927 155.31 66.5184C155.31 62.8436 153.473 61.0065 149.799 61.0065C146.124 61.0065 144.287 62.8436 144.287 66.5184C144.287 70.1927 146.124 72.0304 149.799 72.0304ZM33.8253 72.0304C37.4998 72.0304 39.3371 70.1927 39.3371 66.5184C39.3371 62.8436 37.4998 61.0065 33.8253 61.0065C30.1508 61.0065 28.3136 62.8436 28.3136 66.5184C28.3136 70.1927 30.1508 72.0304 33.8253 72.0304ZM121.938 59.0434C125.612 59.0434 127.45 57.2062 127.45 53.5318C127.45 49.8573 125.612 48.02 121.938 48.02C118.263 48.02 116.426 49.8573 116.426 53.5318C116.426 57.2062 118.263 59.0434 121.938 59.0434ZM61.5352 59.0434C65.2094 59.0434 67.0466 57.2062 67.0466 53.5318C67.0466 49.8573 65.2094 48.02 61.5352 48.02C57.8604 48.02 56.0233 49.8573 56.0233 53.5318C56.0233 57.2062 57.8604 59.0434 61.5352 59.0434ZM91.7364 50.5871C95.4106 50.5871 97.2483 48.7499 97.2483 45.0754C97.2483 41.4009 95.4106 39.5637 91.7364 39.5637C88.0621 39.5637 86.2244 41.4009 86.2244 45.0754C86.2244 48.7499 88.0621 50.5871 91.7364 50.5871ZM101.778 131.3L91.7364 136.208L81.77 131.3L91.7364 126.393L101.778 131.3ZM130.017 138.624L127.752 138.926L119.522 131.678L130.545 129.715C130.847 128.003 131.224 126.267 131.678 124.505C121.762 122.089 108.548 120.881 92.0384 120.881C75.2765 120.881 61.8873 122.164 51.8707 124.732C52.0216 125.436 52.3992 127.047 53.0032 129.563L64.1778 131.678L55.9478 138.926L53.6827 138.624C53.4814 141.493 53.3052 143.708 53.1542 145.268C62.4161 142.5 75.3018 141.116 91.8117 141.116C107.97 141.116 120.831 142.5 130.394 145.268C130.041 142.45 129.916 140.235 130.017 138.624ZM96.9462 131.3L91.7364 128.733L86.6024 131.3L91.7364 133.867L96.9462 131.3Z" fill="#BBE1FA"/>
</svg>
