<svg width="256" height="256" viewBox="0 0 256 256" fill="none" xmlns="http://www.w3.org/2000/svg">
<path d="M215.411 214.374C213.684 212.474 211.611 210.92 209.193 209.711C206.947 208.674 204.529 207.897 201.938 207.379V195.719L200.901 194.683C198.483 192.265 196.151 190.364 193.906 188.983C191.66 187.428 188.292 186.133 183.801 185.096V184.319V93.3746C185.873 92.511 187.946 91.3882 190.019 90.0063C192.092 88.4517 193.992 86.8971 195.719 85.3425C197.447 83.6152 199.001 81.9742 200.383 80.4196C201.765 78.865 202.715 77.5695 203.233 76.5331L203.492 75.7558V52.955L201.16 51.9186C197.533 49.8458 193.474 48.1185 188.983 46.7366C184.664 45.3547 180.778 44.8365 177.323 45.182H173.955V64.0963C170.155 62.7145 166.009 61.8508 161.518 61.5053C157.027 60.9871 151.931 60.728 146.231 60.728V40H142.863H110.475V60.728C104.602 60.728 99.4203 60.9871 94.9292 61.5053C90.6109 61.8508 86.5517 62.7145 82.7516 64.0963V45.182H79.1242C75.6695 44.8365 71.783 45.3547 67.4647 46.7366C63.1464 48.1185 59.0007 49.8458 55.0278 51.9186L53.2141 52.955V75.7558L53.4732 76.5331C53.9914 77.5695 54.8551 78.865 56.0643 80.4196C57.4462 81.9742 59.0007 83.6152 60.728 85.3425C62.4553 86.8971 64.2692 88.4517 66.1692 90.0063C68.242 91.3882 70.3147 92.511 72.3875 93.3746V184.319V185.096C68.0692 186.133 64.7872 187.428 62.5417 188.983C60.2962 190.364 57.9643 192.265 55.546 194.683L54.7688 195.719V207.379C52.1778 207.897 49.6732 208.674 47.2549 209.711C45.0094 210.92 42.9366 212.474 41.0365 214.374L40 215.411V238.989L126.54 240.544L216.447 238.989V215.411L215.411 214.374ZM60.728 73.9421V57.1006C63.1463 55.8915 65.6509 54.8551 68.2419 53.9914C70.8329 53.1277 73.3377 52.5232 75.756 52.1777V74.4603L80.6788 72.1284C84.1335 70.4011 88.279 69.192 93.1155 68.501C98.1248 67.8101 105.034 67.4646 113.844 67.4646H117.73V47.2548H138.976V67.4646H142.863C151.672 67.4646 158.495 67.8101 163.332 68.501C168.168 69.192 172.314 70.4011 175.769 72.1284L180.951 74.4603V52.1777C183.369 52.5232 185.873 53.1277 188.464 53.9914C191.055 54.8551 193.56 55.8915 195.978 57.1006V73.9421C195.46 74.8058 194.597 75.9286 193.387 77.3104C192.351 78.5196 191.055 79.815 189.501 81.1969C188.119 82.406 186.564 83.6152 184.837 84.8243C183.282 86.0335 181.728 86.8971 180.173 87.4153C171.364 84.4788 162.727 82.3197 154.263 80.9378C145.972 79.3832 137.595 78.6059 129.131 78.6059C120.839 78.6059 112.375 79.3832 103.739 80.9378C95.102 82.3197 86.0335 84.4788 76.5332 87.4153C74.9786 86.8971 73.3377 86.0335 71.6103 84.8243C69.883 83.6152 68.2419 82.406 66.6873 81.1969C65.3055 79.815 64.0099 78.5196 62.8008 77.3104C61.7644 75.9286 61.0735 74.8058 60.728 73.9421ZM79.3833 93.6337C88.3655 91.0427 96.9157 89.1427 105.034 87.9335C113.153 86.5517 121.098 85.8607 128.871 85.8607C136.817 85.8607 144.676 86.5517 152.449 87.9335C160.395 89.1427 168.514 91.0427 176.805 93.6337V184.319H79.3833V93.6337ZM61.7645 198.828C63.6646 196.928 65.4782 195.46 67.2056 194.424C69.1056 193.215 72.2148 192.178 76.5332 191.315H179.914C184.06 192.178 187.083 193.215 188.983 194.424C191.055 195.46 193.042 196.928 194.942 198.828V207.379H61.7645V198.828ZM209.452 231.993C208.415 231.993 205.651 231.993 201.16 231.993C196.669 232.166 191.315 232.252 185.096 232.252C179.05 232.425 172.573 232.598 165.664 232.771C158.927 232.943 152.622 233.03 146.749 233.03C141.049 233.202 136.213 233.289 132.24 233.289C128.44 233.461 126.54 233.548 126.54 233.548C126.194 233.548 123.603 233.461 118.767 233.289C114.103 233.289 107.971 233.202 100.37 233.03C92.7702 232.857 85.1699 232.684 77.5696 232.511C70.1421 232.339 63.4918 232.166 57.6189 231.993C51.7459 231.993 48.205 231.993 46.9958 231.993V218.261C48.7232 217.225 50.4504 216.361 52.1778 215.67C54.0778 214.979 56.1507 214.547 58.3962 214.374H198.051C200.297 214.547 202.369 214.979 204.27 215.67C206.17 216.361 207.897 217.225 209.452 218.261V231.993ZM165.664 139.494L169.55 140.272L170.068 133.276L167.218 132.499C161.691 131.635 155.991 130.944 150.118 130.426C144.418 129.908 138.285 129.649 131.721 129.649V110.734C134.312 110.734 136.817 110.821 139.235 110.993C141.826 111.166 144.331 111.425 146.749 111.771H148.045C150.981 112.289 153.918 112.807 156.854 113.325C159.791 113.671 162.727 114.275 165.664 115.139L169.032 115.398L170.587 108.921L167.218 107.625C164.8 107.28 162.554 107.021 160.482 106.848C158.409 106.502 156.25 106.157 154.004 105.811V92.0791H146.749V104.775C134.485 103.22 122.048 103.22 109.439 104.775V92.0791H102.443V105.811C100.198 106.157 98.0385 106.502 95.9657 106.848C93.8929 107.021 91.6473 107.28 89.229 107.625L86.1199 108.921L87.1564 115.398L91.0429 115.139C93.8066 114.275 96.5702 113.671 99.334 113.325C102.27 112.807 105.121 112.289 107.884 111.771H109.439C112.03 111.425 114.621 111.166 117.212 110.993C119.803 110.821 122.308 110.734 124.726 110.734V129.649C113.498 129.821 101.752 130.858 89.4881 132.758L86.1199 133.535L86.8972 140.531L90.5246 140.272C92.7702 139.926 94.9292 139.581 97.002 139.235C99.0748 138.89 101.148 138.631 103.22 138.458V156.854H86.6381V164.368H124.726V181.728H131.721V164.368H170.068V156.854H166.441H153.227V137.681C155.127 137.853 157.2 138.113 159.445 138.458C161.691 138.804 163.764 139.149 165.664 139.494ZM145.713 156.854H131.721H124.726H110.475V137.681C116.694 136.817 122.739 136.385 128.612 136.385C134.658 136.385 140.358 136.558 145.713 136.903V156.854Z" fill="#5C3D2E"/>
<path d="M209.452 231.993H201.16C196.669 232.166 191.315 232.252 185.096 232.252C179.05 232.425 172.573 232.598 165.664 232.771C158.927 232.943 152.622 233.03 146.749 233.03C141.049 233.202 136.213 233.289 132.24 233.289L126.54 233.548C126.194 233.548 123.603 233.461 118.767 233.289C114.103 233.289 107.971 233.202 100.37 233.03L77.5696 232.511C70.1421 232.339 63.4918 232.166 57.6189 231.993H46.9958V218.261C48.7232 217.225 50.4504 216.361 52.1778 215.67C54.0778 214.979 56.1507 214.547 58.3962 214.374H198.051C200.297 214.547 202.369 214.979 204.27 215.67C206.17 216.361 207.897 217.225 209.452 218.261V231.993Z" fill="#E0C097"/>
<path d="M61.7645 198.828C63.6646 196.928 65.4782 195.46 67.2056 194.424C69.1056 193.215 72.2148 192.178 76.5332 191.315H179.914C184.06 192.178 187.083 193.215 188.983 194.424C191.055 195.46 193.042 196.928 194.942 198.828V207.379H61.7645V198.828Z" fill="#E0C097"/>
<path fill-rule="evenodd" clip-rule="evenodd" d="M79.3833 93.6337C88.3655 91.0427 96.9157 89.1427 105.034 87.9335C113.153 86.5517 121.098 85.8607 128.871 85.8607C136.817 85.8607 144.676 86.5517 152.449 87.9335C160.395 89.1427 168.514 91.0427 176.805 93.6337V184.319H79.3833V93.6337ZM169.55 140.272L165.664 139.494C163.764 139.149 161.691 138.804 159.445 138.458C157.2 138.113 155.127 137.853 153.227 137.681V156.854H166.441H170.068V164.368H131.721V181.728H124.726V164.368H86.6381V156.854H103.22V138.458C101.148 138.631 99.0748 138.89 97.002 139.235C94.9292 139.581 92.7702 139.926 90.5246 140.272L86.8972 140.531L86.1199 133.535L89.4881 132.758C101.752 130.858 113.498 129.821 124.726 129.649V110.734C122.308 110.734 119.803 110.821 117.212 110.993C114.621 111.166 112.03 111.425 109.439 111.771H107.884C105.121 112.289 102.27 112.807 99.334 113.325C96.5702 113.671 93.8066 114.275 91.0429 115.139L87.1564 115.398L86.1199 108.921L89.229 107.625C91.6473 107.28 93.8929 107.021 95.9657 106.848C98.0385 106.502 100.198 106.157 102.443 105.811V92.0791H109.439V104.775C122.048 103.22 134.485 103.22 146.749 104.775V92.0791H154.004V105.811C156.25 106.157 158.409 106.502 160.482 106.848C162.554 107.021 164.8 107.28 167.218 107.625L170.587 108.921L169.032 115.398L165.664 115.139C162.727 114.275 159.791 113.671 156.854 113.325L148.045 111.771H146.749C144.331 111.425 141.826 111.166 139.235 110.993C136.817 110.821 134.312 110.734 131.721 110.734V129.649C138.285 129.649 144.418 129.908 150.118 130.426C155.991 130.944 161.691 131.635 167.218 132.499L170.068 133.276L169.55 140.272Z" fill="#E0C097"/>
<path d="M145.713 156.854H131.721H124.726H110.475V137.681C116.694 136.817 122.739 136.385 128.612 136.385C134.658 136.385 140.358 136.558 145.713 136.903V156.854Z" fill="#E0C097"/>
<path d="M60.728 73.9421V57.1006C63.1463 55.8915 65.6509 54.8551 68.2419 53.9914C70.8329 53.1277 73.3377 52.5232 75.756 52.1777V74.4603L80.6788 72.1284C84.1335 70.4011 88.279 69.192 93.1155 68.501C98.1248 67.8101 105.034 67.4646 113.844 67.4646H117.73V47.2548H138.976V67.4646H142.863C151.672 67.4646 158.495 67.8101 163.332 68.501C168.168 69.192 172.314 70.4011 175.769 72.1284L180.951 74.4603V52.1777C183.369 52.5232 185.873 53.1277 188.464 53.9914C191.055 54.8551 193.56 55.8915 195.978 57.1006V73.9421C195.46 74.8058 194.597 75.9286 193.387 77.3104C192.351 78.5196 191.055 79.815 189.501 81.1969C188.119 82.406 186.564 83.6152 184.837 84.8243C183.282 86.0335 181.728 86.8971 180.173 87.4153C171.364 84.4788 162.727 82.3197 154.263 80.9378C145.972 79.3832 137.595 78.6059 129.131 78.6059C120.839 78.6059 112.375 79.3832 103.739 80.9378C95.102 82.3197 86.0335 84.4788 76.5332 87.4153C74.9786 86.8971 73.3377 86.0335 71.6103 84.8243C69.883 83.6152 68.2419 82.406 66.6873 81.1969L62.8008 77.3104C61.7644 75.9286 61.0735 74.8058 60.728 73.9421Z" fill="#E0C097"/>
</svg>
