<svg width="256" height="256" viewBox="0 0 256 256" fill="none" xmlns="http://www.w3.org/2000/svg">
<path d="M153.214 240.935C157.705 240.935 162.023 240.244 166.169 238.863C170.487 237.481 174.806 235.926 179.124 234.199C183.27 232.471 187.156 231.003 190.783 229.794C194.584 228.758 198.211 228.239 201.666 228.239H205.034C206.761 228.239 208.834 228.153 211.252 227.98C213.843 227.98 216.521 228.067 219.284 228.239C222.221 228.585 225.244 229.103 228.353 229.794C231.462 230.658 234.571 232.04 237.681 233.94C236.126 229.621 233.708 225.994 230.426 223.057C227.317 220.121 224.553 217.703 222.135 215.803C226.453 214.594 230.858 215.457 235.349 218.394C232.239 212.175 228.267 208.03 223.43 205.957C218.594 203.884 213.93 202.848 209.439 202.848C203.911 202.848 198.038 203.539 191.82 204.92C185.601 206.475 179.556 208.202 173.683 210.102C169.537 211.312 165.737 212.434 162.282 213.471C158.828 214.507 156.15 215.025 154.25 215.025C151.832 215.025 149.932 214.334 148.55 212.953C147.168 211.571 146.132 209.93 145.441 208.03C144.75 206.302 144.318 204.661 144.145 203.107C143.973 201.552 143.886 200.602 143.886 200.257V199.738C150.796 198.875 156.755 197.32 161.764 195.075C166.773 193.002 169.278 190.152 169.278 186.524C169.278 184.279 168.933 182.379 168.242 180.824C167.724 179.269 167.205 177.974 166.687 176.938C165.305 174.865 164.528 172.447 164.355 169.683C163.492 166.055 162.887 163.119 162.542 160.873C162.369 158.455 162.455 156.037 162.801 153.619L164.096 151.287C165.305 149.041 166.773 146.105 168.501 142.477C170.401 138.677 172.215 134.359 173.942 129.522C175.669 124.686 177.138 119.417 178.347 113.717C179.556 108.017 180.16 102.144 180.16 96.0984C180.16 90.9164 179.556 85.7343 178.347 80.5523C177.31 75.3703 175.928 70.5338 174.201 66.0427C172.474 61.3789 170.487 57.147 168.242 53.3468C166.169 49.5467 164.096 46.4375 162.023 44.0192C164.442 42.6374 166.342 40.8237 167.724 38.5781C169.105 36.1599 169.796 33.4825 169.796 30.546C169.796 26.5731 168.414 23.1185 165.651 20.182C162.887 17.2455 159.519 15.7773 155.546 15.7773C151.4 15.7773 147.773 17.2455 144.664 20.182C141.727 23.1185 140.259 26.5731 140.259 30.546C140.259 32.4461 140.604 34.1734 141.295 35.728C141.986 37.1099 142.85 38.4918 143.886 39.8736C143.195 40.7373 142.504 41.5146 141.813 42.2055C141.123 42.8965 140.345 43.7601 139.482 44.7965C138.445 44.1056 137.322 43.501 136.113 42.9828C135.077 42.4646 134.041 41.9464 133.004 41.4282C136.804 38.6645 138.704 34.778 138.704 29.7687C138.704 25.7958 137.236 22.3412 134.3 19.4047C131.363 16.4682 127.908 15 123.936 15C119.963 15 116.508 16.4682 113.572 19.4047C110.635 22.3412 109.167 25.7958 109.167 29.7687C109.167 32.187 109.685 34.3461 110.721 36.2462C111.758 38.1463 113.14 39.8736 114.867 41.4282C109.858 43.3283 105.108 46.5238 100.617 51.0149C96.1255 55.3332 92.1526 60.0835 88.698 65.2655C85.416 70.4475 82.7386 75.7158 80.6658 81.0705C78.7658 86.2525 77.8157 90.7436 77.8157 94.5438C77.8157 104.908 78.9385 113.372 81.1841 119.936C83.4296 126.327 85.7615 131.854 88.1798 136.518C88.8707 138.591 89.648 140.577 90.5117 142.477C91.5481 144.205 92.3254 146.018 92.8436 147.918C93.5345 149.818 93.9663 151.632 94.139 153.359C94.4845 154.914 94.6573 156.469 94.6573 158.023C94.6573 159.578 94.4845 161.305 94.139 163.205C93.9663 165.105 93.5345 167.265 92.8436 169.683C92.4981 171.237 92.0663 172.619 91.5481 173.828C91.0299 174.865 90.598 175.901 90.2525 176.938C89.7343 177.974 89.2162 179.269 88.698 180.824C88.3525 182.379 88.1798 184.279 88.1798 186.524C88.1798 189.979 90.5117 192.829 95.1755 195.075C99.8393 197.32 105.626 198.875 112.535 199.738L112.276 200.257C112.276 200.602 112.19 201.552 112.017 203.107C112.017 204.661 111.672 206.302 110.981 208.03C110.29 209.93 109.253 211.571 107.871 212.953C106.662 214.334 104.762 215.025 102.171 215.025C100.098 215.025 97.2483 214.507 93.6209 213.471C90.1662 212.434 86.4525 211.484 82.4796 210.621C76.6067 208.721 70.4746 206.907 64.0835 205.18C57.8651 203.625 52.0785 202.848 46.7237 202.848C42.2327 202.848 37.5689 203.884 32.7323 205.957C27.8958 208.03 23.9229 212.175 20.8137 218.394C25.3048 215.457 29.7095 214.594 34.0278 215.803C31.7823 217.703 29.0185 220.121 25.7366 223.057C22.6274 225.994 20.3819 229.621 19 233.94C21.9365 232.04 24.873 230.658 27.8094 229.794C30.9186 229.103 33.8551 228.585 36.6189 228.239C39.5553 228.067 42.2326 227.98 44.6509 227.98C47.2419 228.153 49.4875 228.239 51.3875 228.239H54.4967C57.9514 228.239 61.4925 228.844 65.1199 230.053C68.92 231.435 72.8928 232.817 77.0384 234.199C81.3568 235.926 85.6752 237.481 89.9935 238.863C94.3118 240.244 98.7165 240.935 103.208 240.935C109.253 240.935 114.349 239.64 118.495 237.049C122.64 234.458 125.836 231.435 128.081 227.98C130.327 231.435 133.522 234.458 137.668 237.049C141.814 239.64 146.995 240.935 153.214 240.935ZM153.214 233.94C149.759 233.94 146.65 233.335 143.886 232.126C141.123 231.09 138.791 229.708 136.891 227.98C135.163 226.253 133.781 224.353 132.745 222.28C131.881 220.38 131.449 218.566 131.449 216.839H124.454C124.454 218.566 123.936 220.38 122.899 222.28C122.036 224.353 120.654 226.253 118.754 227.98C117.026 229.708 114.867 231.09 112.276 232.126C109.685 233.335 106.662 233.94 103.208 233.94C99.5802 233.94 95.6937 233.249 91.5481 231.867C87.5752 230.658 83.6024 229.362 79.6295 227.98C75.4839 226.253 71.3383 224.612 67.1927 223.057C63.0471 221.676 58.8151 220.985 54.4967 220.985H51.3875C48.9693 220.985 46.4646 221.071 43.8736 221.244C41.4554 221.416 38.778 221.935 35.8416 222.798C37.2234 221.589 38.4326 220.639 39.469 219.948C40.6781 219.43 41.8008 218.998 42.8372 218.653L49.5738 215.803L44.1328 211.916C43.2691 211.743 42.4054 211.484 41.5418 211.139C40.8508 210.966 40.0735 210.793 39.2098 210.621C41.4554 210.102 43.96 209.843 46.7237 209.843C51.5603 209.843 57.0014 210.534 63.0471 211.916C69.0927 213.471 74.9656 215.198 80.6658 217.098C85.1569 218.48 89.2162 219.603 92.8436 220.466C96.6437 221.503 99.7529 222.021 102.171 222.021C105.108 222.021 107.612 221.416 109.685 220.207C111.931 218.998 113.744 217.357 115.126 215.284C116.508 213.212 117.544 210.88 118.235 208.289C118.926 205.698 119.272 202.934 119.272 199.998C120.999 200.17 122.554 200.257 123.936 200.257C125.49 200.257 126.958 200.257 128.34 200.257C129.895 200.257 131.363 200.257 132.745 200.257C134.127 200.257 135.681 200.17 137.409 199.998C137.409 205.87 138.704 210.966 141.295 215.284C144.059 219.775 148.377 222.021 154.25 222.021C156.669 222.021 159.691 221.503 163.319 220.466C166.946 219.603 171.005 218.48 175.497 217.098C181.197 215.198 186.983 213.471 192.856 211.916C198.902 210.534 204.429 209.843 209.439 209.843C210.993 209.843 212.289 209.843 213.325 209.843C214.534 210.016 215.743 210.275 216.953 210.621C214.88 210.966 213.239 211.312 212.03 211.657L206.589 215.803L213.325 218.653C215.225 218.998 217.557 220.38 220.321 222.798C217.384 221.935 214.621 221.416 212.03 221.244C209.611 221.071 207.193 220.985 204.775 220.985H201.666C197.347 220.985 193.115 221.676 188.97 223.057C184.824 224.612 180.679 226.253 176.533 227.98C172.56 229.362 168.587 230.658 164.614 231.867C160.814 233.249 157.014 233.94 153.214 233.94ZM156.323 166.833V167.092C156.323 167.955 156.323 168.733 156.323 169.424C156.496 169.942 156.669 170.719 156.841 171.756C157.359 172.274 157.619 173.137 157.619 174.347C156.928 173.137 155.978 172.101 154.769 171.237C153.732 170.374 152.609 169.683 151.4 169.165C153.128 168.646 154.769 167.869 156.323 166.833ZM155.546 158.282C151.746 157.073 147.341 156.037 142.332 155.173C137.495 154.31 132.831 153.878 128.34 153.878C124.195 153.878 119.617 154.31 114.608 155.173C109.599 156.037 105.367 157.073 101.912 158.282C101.912 157.246 101.826 156.296 101.653 155.432C101.48 154.396 101.394 153.532 101.394 152.841C102.258 151.978 104.849 151.114 109.167 150.25C113.485 149.214 119.79 148.35 128.081 147.659C136.718 148.35 143.195 149.214 147.514 150.25C152.005 151.114 154.769 151.978 155.805 152.841C155.632 153.532 155.546 154.396 155.546 155.432C155.546 156.296 155.546 157.246 155.546 158.282ZM128.34 171.756C126.44 169.165 124.54 167.437 122.64 166.574C123.676 165.71 124.626 164.76 125.49 163.723C126.527 162.687 127.477 161.305 128.34 159.578C129.377 161.305 130.24 162.687 130.931 163.723C131.795 164.76 132.918 165.71 134.3 166.574C132.918 167.092 131.795 167.783 130.931 168.646C130.24 169.51 129.377 170.546 128.34 171.756ZM99.5802 171.756C99.7529 170.719 99.9256 169.942 100.098 169.424C100.271 168.733 100.444 167.955 100.617 167.092V166.833C102.517 167.869 104.158 168.646 105.539 169.165C103.639 170.028 101.394 171.756 98.8028 174.347C99.321 173.137 99.5802 172.274 99.5802 171.756ZM112.276 169.683L110.981 166.055C108.39 166.574 106.23 166.055 104.503 164.501C108.13 162.774 114.608 161.133 123.936 159.578C123.072 161.305 122.122 162.514 121.085 163.205C120.049 163.896 118.667 164.328 116.94 164.501V168.387C118.667 168.733 120.049 169.165 121.085 169.683C122.122 170.028 123.072 170.719 123.936 171.756C120.481 171.928 117.026 172.187 113.572 172.533C110.117 172.878 106.921 173.483 103.985 174.347C105.367 173.31 106.749 172.36 108.131 171.497C109.512 170.633 110.894 170.028 112.276 169.683ZM140 168.387V164.501C138.445 164.328 137.063 163.896 135.854 163.205C134.818 162.514 133.868 161.305 133.004 159.578C137.495 160.614 141.382 161.478 144.664 162.169C148.118 162.86 150.882 163.637 152.955 164.501C150.709 166.055 148.377 166.574 145.959 166.055L145.182 169.683C146.218 170.028 147.427 170.633 148.809 171.497C150.191 172.36 151.573 173.397 152.955 174.606C150.018 173.742 146.823 173.137 143.368 172.792C139.913 172.274 136.459 171.928 133.004 171.756C133.868 170.719 134.818 170.028 135.854 169.683C137.063 169.165 138.445 168.733 140 168.387ZM147.773 30.546C147.773 28.6459 148.464 26.9186 149.846 25.364C151.4 23.6367 153.3 22.773 155.546 22.773C157.446 22.773 159.087 23.6367 160.469 25.364C162.023 26.9186 162.801 28.6459 162.801 30.546C162.801 32.6188 162.11 34.4325 160.728 35.9871C159.346 37.369 157.705 38.0599 155.805 38.0599C154.769 37.5417 153.646 37.2826 152.437 37.2826H152.177C149.241 36.2462 147.773 34.0007 147.773 30.546ZM151.141 44.2783C151.659 44.7965 152.523 45.0556 153.732 45.0556C154.941 46.092 156.582 48.2512 158.655 51.5331C160.901 54.6423 163.06 58.5288 165.133 63.1926C167.205 67.6837 169.019 72.7794 170.574 78.4796C172.128 84.1798 172.906 90.0527 172.906 96.0984C172.906 101.799 172.387 107.412 171.351 112.94C170.315 118.295 168.846 123.217 166.946 127.709C167.292 123.736 167.551 119.59 167.724 115.272C167.896 110.781 167.983 106.031 167.983 101.021C167.983 97.912 167.378 94.1119 166.169 89.6208C165.133 85.1298 163.578 80.5523 161.505 75.8885C159.605 71.052 157.187 66.3882 154.25 61.8972C151.487 57.4061 148.291 53.4332 144.664 49.9785C146.391 47.9057 147.6 46.5238 148.291 45.8329C148.982 45.142 149.932 44.6238 151.141 44.2783ZM123.936 21.9957C126.008 21.9957 127.736 22.8594 129.118 24.5867C130.672 26.1413 131.449 27.8686 131.449 29.7687C131.449 32.187 130.672 34.087 129.118 35.4689C127.736 36.678 126.008 37.2826 123.936 37.2826C122.036 37.2826 120.222 36.678 118.495 35.4689C116.94 34.087 116.163 32.187 116.163 29.7687C116.163 27.8686 116.94 26.1413 118.495 24.5867C120.222 22.8594 122.036 21.9957 123.936 21.9957ZM84.8115 94.5438C84.8115 91.2618 85.9343 86.9435 88.1798 81.5887C90.4253 76.0613 93.3617 70.7065 96.9891 65.5245C100.617 60.3425 104.762 55.9378 109.426 52.3104C114.09 48.5103 118.926 46.6102 123.936 46.6102C128.772 46.6102 133.436 48.7694 137.927 53.0877C142.418 57.2333 146.391 62.2426 149.846 68.1156C153.3 73.9885 155.978 80.0342 157.878 86.2526C159.95 92.2982 160.987 97.2211 160.987 101.021C160.987 113.285 160.469 123.39 159.432 131.336C158.569 139.282 157.878 143.946 157.36 145.327C153.559 143.946 148.896 142.995 143.368 142.477C137.841 141.959 132.831 141.7 128.34 141.7C121.258 141.7 115.385 142.045 110.721 142.736C106.058 143.427 102.344 144.291 99.5802 145.327C98.7165 143.255 97.9392 141.268 97.2483 139.368C96.5573 137.295 95.6073 135.309 94.3982 133.409C91.9799 128.918 89.7344 123.736 87.6616 117.863C85.7615 111.817 84.8115 104.044 84.8115 94.5438ZM95.1755 186.524C95.5209 185.315 98.371 183.588 103.726 181.342C109.253 178.924 117.458 177.715 128.34 177.715C139.395 177.715 147.686 178.924 153.214 181.342C158.741 183.588 161.678 185.315 162.023 186.524C161.678 187.388 158.741 188.77 153.214 190.67C147.686 192.743 139.395 193.779 128.34 193.779C117.458 193.779 109.253 192.743 103.726 190.67C98.371 188.77 95.5209 187.388 95.1755 186.524ZM114.349 125.636H130.672V96.0984H145.182V79.516H130.672V57.2333H128.081H114.349V79.516H100.357V96.0984H114.349V125.636ZM105.799 90.9164V84.957H120.049V62.4154H125.231V84.957H139.482V90.9164H125.231V120.195H120.049V90.9164H105.799Z" fill="#374B34"/>
<path d="M123.936 21.9957C126.008 21.9957 127.736 22.8594 129.118 24.5867C130.672 26.1413 131.449 27.8686 131.449 29.7687C131.449 32.187 130.672 34.087 129.118 35.4689C127.736 36.678 126.008 37.2826 123.936 37.2826C122.036 37.2826 120.222 36.678 118.495 35.4689C116.94 34.087 116.163 32.187 116.163 29.7687C116.163 27.8686 116.94 26.1413 118.495 24.5867C120.222 22.8594 122.036 21.9957 123.936 21.9957Z" fill="#E0F9B5"/>
<path d="M147.773 30.546C147.773 28.6459 148.464 26.9186 149.846 25.364C151.4 23.6367 153.3 22.773 155.546 22.773C157.446 22.773 159.087 23.6367 160.469 25.364C162.023 26.9186 162.801 28.6459 162.801 30.546C162.801 32.6188 162.11 34.4325 160.728 35.9871C159.346 37.369 157.705 38.0599 155.805 38.0599C154.769 37.5417 153.646 37.2826 152.437 37.2826H152.177C149.241 36.2462 147.773 34.0007 147.773 30.546Z" fill="#E0F9B5"/>
<path d="M105.799 90.9164V84.957H120.049V62.4154H125.231V84.957H139.482V90.9164H125.231V120.195H120.049V90.9164H105.799Z" fill="#E0F9B5"/>
<path fill-rule="evenodd" clip-rule="evenodd" d="M84.8115 94.5438C84.8115 91.2618 85.9343 86.9435 88.1798 81.5887C90.4253 76.0613 93.3617 70.7065 96.9891 65.5245C100.617 60.3425 104.762 55.9378 109.426 52.3104C114.09 48.5103 118.926 46.6102 123.936 46.6102C128.772 46.6102 133.436 48.7694 137.927 53.0877C142.418 57.2333 146.391 62.2426 149.846 68.1156C153.3 73.9885 155.978 80.0342 157.878 86.2526C159.95 92.2982 160.987 97.2211 160.987 101.021C160.987 113.285 160.469 123.39 159.432 131.336C158.569 139.282 157.878 143.946 157.36 145.327C153.559 143.946 148.896 142.995 143.368 142.477C137.841 141.959 132.831 141.7 128.34 141.7C121.258 141.7 115.385 142.045 110.721 142.736C106.058 143.427 102.344 144.291 99.5802 145.327C98.7165 143.255 97.9392 141.268 97.2483 139.368C96.5573 137.295 95.6073 135.309 94.3982 133.409C91.9799 128.918 89.7344 123.736 87.6616 117.863C85.7615 111.817 84.8115 104.044 84.8115 94.5438ZM130.672 125.636H114.349V96.0984H100.357V79.516H114.349V57.2333H128.081H130.672V79.516H145.182V96.0984H130.672V125.636Z" fill="#E0F9B5"/>
<path d="M151.141 44.2783C151.659 44.7965 152.523 45.0556 153.732 45.0556C154.941 46.092 156.582 48.2512 158.655 51.5331C160.901 54.6423 163.06 58.5288 165.133 63.1926C167.205 67.6837 169.019 72.7794 170.574 78.4796C172.128 84.1798 172.906 90.0527 172.906 96.0984C172.906 101.799 172.387 107.412 171.351 112.94C170.315 118.295 168.846 123.217 166.946 127.709C167.292 123.736 167.551 119.59 167.724 115.272C167.896 110.781 167.983 106.031 167.983 101.021C167.983 97.912 167.378 94.1119 166.169 89.6208C165.133 85.1298 163.578 80.5523 161.505 75.8885C159.605 71.052 157.187 66.3882 154.25 61.8972C151.487 57.4061 148.291 53.4332 144.664 49.9785C146.391 47.9057 147.6 46.5238 148.291 45.8329C148.982 45.142 149.932 44.6238 151.141 44.2783Z" fill="#E0F9B5"/>
<path d="M155.546 158.282C151.746 157.073 147.341 156.037 142.332 155.173C137.495 154.31 132.831 153.878 128.34 153.878C124.195 153.878 119.617 154.31 114.608 155.173C109.599 156.037 105.367 157.073 101.912 158.282C101.912 157.246 101.826 156.296 101.653 155.432C101.48 154.396 101.394 153.532 101.394 152.841C102.258 151.978 104.849 151.114 109.167 150.25C113.485 149.214 119.79 148.35 128.081 147.659C136.718 148.35 143.195 149.214 147.514 150.25C152.005 151.114 154.769 151.978 155.805 152.841C155.632 153.532 155.546 154.396 155.546 155.432V158.282Z" fill="#E0F9B5"/>
<path d="M112.276 169.683L110.981 166.055C108.39 166.574 106.23 166.055 104.503 164.501C108.13 162.774 114.608 161.133 123.936 159.578C123.072 161.305 122.122 162.514 121.085 163.205C120.049 163.896 118.667 164.328 116.94 164.501V168.387C118.667 168.733 120.049 169.165 121.085 169.683C122.122 170.028 123.072 170.719 123.936 171.756C120.481 171.928 117.026 172.187 113.572 172.533C110.117 172.878 106.921 173.483 103.985 174.347C105.367 173.31 106.749 172.36 108.131 171.497C109.512 170.633 110.894 170.028 112.276 169.683Z" fill="#E0F9B5"/>
<path d="M140 168.387V164.501C138.445 164.328 137.063 163.896 135.854 163.205C134.818 162.514 133.868 161.305 133.004 159.578C137.495 160.614 141.382 161.478 144.664 162.169C148.118 162.86 150.882 163.637 152.955 164.501C150.709 166.055 148.377 166.574 145.959 166.055L145.182 169.683C146.218 170.028 147.427 170.633 148.809 171.497C150.191 172.36 151.573 173.397 152.955 174.606C150.018 173.742 146.823 173.137 143.368 172.792C139.913 172.274 136.459 171.928 133.004 171.756C133.868 170.719 134.818 170.028 135.854 169.683C137.063 169.165 138.445 168.733 140 168.387Z" fill="#E0F9B5"/>
<path d="M128.34 171.756C126.44 169.165 124.54 167.437 122.64 166.574C123.676 165.71 124.626 164.76 125.49 163.723C126.527 162.687 127.477 161.305 128.34 159.578C129.377 161.305 130.24 162.687 130.931 163.723C131.795 164.76 132.918 165.71 134.3 166.574C132.918 167.092 131.795 167.783 130.931 168.646C130.24 169.51 129.377 170.546 128.34 171.756Z" fill="#E0F9B5"/>
<path d="M99.5802 171.756C99.7529 170.719 99.9256 169.942 100.098 169.424C100.271 168.733 100.444 167.955 100.617 167.092V166.833C102.517 167.869 104.158 168.646 105.539 169.165C103.639 170.028 101.394 171.756 98.8028 174.347C99.321 173.137 99.5802 172.274 99.5802 171.756Z" fill="#E0F9B5"/>
<path d="M156.323 166.833V167.092V169.424C156.496 169.942 156.669 170.719 156.841 171.756C157.359 172.274 157.619 173.137 157.619 174.347C156.928 173.137 155.978 172.101 154.769 171.237C153.732 170.374 152.609 169.683 151.4 169.165C153.128 168.646 154.769 167.869 156.323 166.833Z" fill="#E0F9B5"/>
<path d="M95.1755 186.524C95.5209 185.315 98.371 183.588 103.726 181.342C109.253 178.924 117.458 177.715 128.34 177.715C139.395 177.715 147.686 178.924 153.214 181.342C158.741 183.588 161.678 185.315 162.023 186.524C161.678 187.388 158.741 188.77 153.214 190.67C147.686 192.743 139.395 193.779 128.34 193.779C117.458 193.779 109.253 192.743 103.726 190.67C98.371 188.77 95.5209 187.388 95.1755 186.524Z" fill="#E0F9B5"/>
<path d="M153.214 233.94C149.759 233.94 146.65 233.335 143.886 232.126C141.123 231.09 138.791 229.708 136.891 227.98C135.163 226.253 133.781 224.353 132.745 222.28C131.881 220.38 131.449 218.566 131.449 216.839H124.454C124.454 218.566 123.936 220.38 122.899 222.28C122.036 224.353 120.654 226.253 118.754 227.98C117.026 229.708 114.867 231.09 112.276 232.126C109.685 233.335 106.662 233.94 103.208 233.94C99.5802 233.94 95.6937 233.249 91.5481 231.867C87.5752 230.658 83.6024 229.362 79.6295 227.98C75.4839 226.253 71.3383 224.612 67.1927 223.057C63.0471 221.676 58.8151 220.985 54.4967 220.985H51.3875C48.9693 220.985 46.4646 221.071 43.8736 221.244C41.4554 221.416 38.778 221.935 35.8416 222.798C37.2234 221.589 38.4326 220.639 39.469 219.948C40.6781 219.43 41.8008 218.998 42.8372 218.653L49.5738 215.803L44.1328 211.916C43.2691 211.743 42.4054 211.484 41.5418 211.139C40.8508 210.966 40.0735 210.793 39.2098 210.621C41.4554 210.102 43.96 209.843 46.7237 209.843C51.5603 209.843 57.0014 210.534 63.0471 211.916C69.0927 213.471 74.9656 215.198 80.6658 217.098C85.1569 218.48 89.2162 219.603 92.8436 220.466C96.6437 221.503 99.7529 222.021 102.171 222.021C105.108 222.021 107.612 221.416 109.685 220.207C111.931 218.998 113.744 217.357 115.126 215.284C116.508 213.212 117.544 210.88 118.235 208.289C118.926 205.698 119.272 202.934 119.272 199.998C120.999 200.17 122.554 200.257 123.936 200.257H128.34H132.745C134.127 200.257 135.681 200.17 137.409 199.998C137.409 205.87 138.704 210.966 141.295 215.284C144.059 219.775 148.377 222.021 154.25 222.021C156.669 222.021 159.691 221.503 163.319 220.466C166.946 219.603 171.005 218.48 175.497 217.098C181.197 215.198 186.983 213.471 192.856 211.916C198.902 210.534 204.429 209.843 209.439 209.843H213.325C214.534 210.016 215.743 210.275 216.953 210.621C214.88 210.966 213.239 211.312 212.03 211.657L206.589 215.803L213.325 218.653C215.225 218.998 217.557 220.38 220.321 222.798C217.384 221.935 214.621 221.416 212.03 221.244C209.611 221.071 207.193 220.985 204.775 220.985H201.666C197.347 220.985 193.115 221.676 188.97 223.057C184.824 224.612 180.679 226.253 176.533 227.98C172.56 229.362 168.587 230.658 164.614 231.867C160.814 233.249 157.014 233.94 153.214 233.94Z" fill="#E0F9B5"/>
</svg>
