<svg width="256" height="256" viewBox="0 0 256 256" fill="none" xmlns="http://www.w3.org/2000/svg">
<path d="M151.441 146.782C155.414 145.054 158.696 142.981 161.287 140.563C163.878 137.972 165.951 135.381 167.505 132.79C169.06 130.026 170.182 127.263 170.873 124.499C171.564 121.735 172.169 119.144 172.687 116.726C173.033 115.69 173.119 114.308 172.946 112.58C172.946 110.68 172.514 109.644 171.651 109.471C170.787 109.126 170.182 109.557 169.837 110.767C169.664 111.976 169.405 113.012 169.06 113.876C168.541 116.467 167.678 119.231 166.469 122.167C165.432 125.103 164.137 127.867 162.582 130.458C161.028 133.049 159.214 135.381 157.141 137.454C155.241 139.354 153.082 140.736 150.664 141.6C149.8 141.945 148.936 142.55 148.073 143.413C147.382 144.104 147.382 144.881 148.073 145.745C148.591 146.263 149.195 146.609 149.886 146.782C150.577 146.782 151.095 146.782 151.441 146.782ZM178.646 126.831C177.783 126.485 177.092 127.349 176.574 129.422C176.228 131.322 175.969 133.049 175.796 134.604C175.624 135.468 174.76 137.108 173.205 139.527C171.823 141.945 169.837 144.45 167.246 147.041C164.828 149.459 162.064 151.618 158.955 153.518C155.846 155.418 152.477 156.368 148.85 156.368C147.641 156.368 146 156.714 143.927 157.405C142.027 158.096 141.077 158.959 141.077 159.996C141.077 160.514 141.422 160.946 142.113 161.291C142.977 161.464 143.927 161.55 144.963 161.55C146 161.55 147.036 161.55 148.073 161.55C149.282 161.378 150.145 161.291 150.664 161.291C156.018 160.082 160.509 158.527 164.137 156.627C167.764 154.555 170.701 152.223 172.946 149.632C175.192 147.041 176.833 144.363 177.869 141.6C179.078 138.663 179.942 135.727 180.46 132.79C181.151 130.372 181.237 128.817 180.719 128.126C180.201 127.263 179.51 126.831 178.646 126.831ZM69.047 111.285C68.1834 111.976 66.8015 113.185 64.9014 114.912C63.1741 116.467 61.274 118.367 59.2012 120.612C57.1284 122.858 55.0556 125.363 52.9828 128.126C51.0828 130.89 49.5281 133.74 48.319 136.677C47.8008 137.54 47.5417 138.922 47.5417 140.822C47.5417 142.55 47.9736 143.672 48.8372 144.191C49.3554 144.363 49.7873 144.19 50.1327 143.672C50.6509 142.981 51.0828 142.204 51.4282 141.34C51.9464 140.477 52.3783 139.699 52.7237 139.009C53.0692 138.145 53.3283 137.54 53.501 137.195C54.7102 135.295 55.8329 133.654 56.8693 132.272C57.9057 130.89 59.2012 129.422 60.7558 127.867C62.3104 126.313 64.1241 124.585 66.1969 122.685C68.2697 120.612 70.9471 118.108 74.229 115.171C75.9564 113.962 75.9564 112.667 74.229 111.285C73.7108 110.421 72.8472 110.076 71.638 110.248C70.6016 110.248 69.738 110.594 69.047 111.285ZM110.244 88.2249C104.889 88.0522 100.657 88.6567 97.5481 90.0386C94.4389 91.4204 92.0206 92.8887 90.2933 94.4433C87.0113 97.5525 85.3704 101.266 85.3704 105.585C85.3704 108.176 86.4931 109.471 88.7386 109.471C89.0841 109.471 89.2568 109.385 89.2568 109.212C89.4296 109.039 89.6023 108.953 89.775 108.953V109.471C89.775 111.889 90.8978 113.099 93.1434 113.099C97.289 113.444 100.485 113.185 102.73 112.321C105.148 111.285 106.962 109.903 108.171 108.176C109.553 106.448 110.503 104.635 111.021 102.734C111.539 100.662 111.885 98.7616 112.058 97.0343L113.094 92.6296C113.44 91.9387 113.267 90.8159 112.576 89.2613C111.885 88.5704 111.108 88.2249 110.244 88.2249ZM105.321 95.9979C104.63 99.4526 103.68 102.13 102.471 104.03C101.435 105.757 98.5845 106.448 93.9207 106.103C93.5752 105.757 93.3161 105.671 93.1434 105.844C92.9706 106.016 92.7115 106.189 92.366 106.362V105.585V105.325C92.366 104.462 92.6252 103.512 93.1434 102.475C93.6616 101.266 94.2661 100.23 94.957 99.3662C96.3389 98.1571 97.8935 97.2934 99.6209 96.7752C101.521 96.257 103.421 95.9115 105.321 95.7388V95.9979ZM230.985 228.139C230.812 227.966 230.207 227.016 229.171 225.289C228.135 223.734 226.666 221.575 224.766 218.811C223.039 216.22 221.484 213.802 220.102 211.557C221.312 211.729 222.434 211.902 223.471 212.075C224.68 212.42 225.284 212.593 225.284 212.593C227.185 213.284 228.307 212.766 228.653 211.038C229.171 210.52 229.43 209.829 229.43 208.966C229.43 208.62 229.344 208.275 229.171 207.929C229.171 207.756 229.171 207.497 229.171 207.152C228.998 206.979 228.394 206.029 227.357 204.302C226.321 202.574 224.939 200.243 223.212 197.306C221.484 194.542 220.016 192.038 218.807 189.792C220.707 190.138 222.348 190.483 223.73 190.829C225.284 191.001 226.062 191.088 226.062 191.088C227.444 191.606 228.653 191.001 229.689 189.274C230.035 188.756 230.207 188.238 230.207 187.719C230.207 186.856 229.948 186.165 229.43 185.647C229.257 185.474 228.48 184.61 227.098 183.056C225.889 181.328 224.248 179.169 222.175 176.578C220.102 173.987 218.289 171.655 216.734 169.582C218.289 169.928 219.671 170.101 220.88 170.101C222.089 170.101 222.693 170.101 222.693 170.101C224.594 170.101 225.716 169.323 226.062 167.769C226.407 167.596 226.58 167.164 226.58 166.473C226.58 165.782 226.494 165.264 226.321 164.919C226.148 164.573 225.975 164.228 225.803 163.882C225.63 163.709 224.853 162.932 223.471 161.55C222.262 160.168 220.621 158.355 218.548 156.109C216.475 153.691 214.575 151.532 212.848 149.632C214.229 149.632 215.525 149.718 216.734 149.891C218.116 150.063 218.807 150.15 218.807 150.15C220.189 150.15 221.225 149.286 221.916 147.559C221.916 147.213 222.003 147.041 222.175 147.041C222.348 146.868 222.434 146.782 222.434 146.782C222.434 145.745 221.916 144.709 220.88 143.672C220.707 143.5 219.843 142.809 218.289 141.6C216.734 140.39 214.748 138.922 212.329 137.195C210.084 135.467 208.27 133.999 206.888 132.79C208.27 131.581 209.479 130.458 210.516 129.422C211.552 128.385 212.07 127.867 212.07 127.867C212.761 127.176 213.107 126.313 213.107 125.276V124.499C212.934 123.981 212.675 123.549 212.329 123.203C212.157 122.685 211.898 122.253 211.552 121.908C211.379 121.735 210.516 121.303 208.961 120.612C207.579 119.921 205.766 118.971 203.52 117.762C201.447 116.553 199.634 115.517 198.079 114.653C199.461 113.098 200.756 111.458 201.965 109.73C203.175 108.003 203.779 107.139 203.779 107.139C204.297 106.448 204.556 105.671 204.556 104.807V104.289C204.211 103.425 203.866 102.821 203.52 102.475C203.347 102.13 203.002 101.871 202.484 101.698C202.138 101.698 201.102 101.439 199.374 100.921C197.647 100.403 195.488 99.798 192.897 99.1071C190.479 98.4162 188.492 97.8979 186.938 97.5525C187.456 95.9979 187.888 94.3569 188.233 92.6296C188.751 90.9023 189.01 90.0386 189.01 90.0386V89.2613C189.01 87.534 188.319 86.4975 186.938 86.1521C186.765 86.1521 185.815 85.9793 184.088 85.6339C182.533 85.1157 180.546 84.5111 178.128 83.8202C175.71 83.1292 173.81 82.611 172.428 82.2656C172.601 80.8837 172.687 79.4155 172.687 77.8609C172.687 76.1336 172.687 75.2699 172.687 75.2699C172.687 73.1971 171.737 71.9879 169.837 71.6425C169.492 71.6425 168.455 71.5561 166.728 71.3834C165.173 71.0379 163.187 70.6924 160.768 70.3469C158.35 70.0015 156.45 69.8288 155.068 69.8288C154.723 68.4469 154.464 67.1514 154.291 65.9423C154.291 64.5604 154.291 63.8695 154.291 63.8695C154.118 63.0058 153.686 62.3148 152.996 61.7966C152.477 61.1057 151.7 60.933 150.664 61.2784L136.931 62.3148C135.722 62.3148 134.599 62.0558 133.563 61.5376C133.563 61.5376 132.872 61.3648 131.49 61.0194C130.281 60.5012 129.245 60.0693 128.381 59.7239L126.567 54.2827C124.84 50.4826 122.335 47.287 119.053 44.696C115.944 42.105 111.367 39.3413 105.321 36.4049C103.766 35.5412 102.298 36.0594 100.916 37.9594C100.744 37.9594 100.657 38.4776 100.657 39.514C100.657 40.7232 101.003 41.6732 101.694 42.3641C102.557 42.8823 102.989 43.746 102.989 44.9552C103.162 45.9916 103.248 47.3734 103.248 49.1007V53.5055V55.5782C102.557 54.7146 101.175 53.6782 99.1027 52.4691L97.5481 51.1736C95.648 49.7917 93.4888 48.4962 91.0706 47.2871C88.825 46.0779 85.4567 45.0415 80.9656 44.1778C79.7565 44.0051 78.5474 44.6097 77.3382 45.9916C77.3382 46.337 77.2519 46.5961 77.0791 46.7688C76.9064 46.9416 76.82 47.2007 76.82 47.5461C76.82 48.4098 77.2519 49.2735 78.1155 50.1372C81.2247 53.5918 83.4703 56.8737 84.8521 59.9829C86.4067 62.9194 87.3568 67.1514 87.7022 72.6789C83.2112 75.6154 77.8564 80.6246 71.638 87.7067C65.4196 94.616 59.0285 102.303 52.4646 110.767C51.2555 112.148 49.1827 114.739 46.2462 118.54C43.4825 122.34 40.546 126.744 37.4368 131.754C34.5003 136.763 31.823 142.118 29.4047 147.818C26.9864 153.345 25.6909 158.441 25.5182 163.105C25.1727 163.278 25 163.969 25 165.178C25 168.46 25.3455 171.051 26.0364 172.951C26.7273 174.851 27.5046 176.492 28.3683 177.874C29.232 178.737 30.182 179.342 31.2184 179.687C32.4275 179.86 33.6367 179.946 34.8458 179.946C37.2641 179.946 39.7687 178.91 42.3597 176.837C44.9507 174.592 47.7145 171.741 50.6509 168.287C50.6509 168.805 50.5646 169.323 50.3918 169.841C50.3918 170.187 50.3918 170.619 50.3918 171.137C50.3918 174.592 50.8237 177.355 51.6873 179.428C52.7237 181.501 53.5874 183.056 54.2783 184.092C56.5239 186.338 59.1149 187.46 62.0513 187.46C63.9514 187.46 65.506 187.115 66.7151 186.424C67.9243 185.733 68.8743 184.869 69.5652 183.833C70.4289 182.796 71.1198 181.76 71.638 180.724C72.1562 179.514 72.5881 178.392 72.9335 177.355L73.7108 174.505C74.92 171.742 76.5609 169.064 78.6337 166.473C80.7065 163.882 82.9521 161.55 85.3704 159.477C87.9614 157.405 90.466 155.591 92.8842 154.036C95.4752 152.482 97.7208 151.273 99.6209 150.409C102.212 151.964 104.889 152.741 107.653 152.741C115.771 152.741 122.94 151.1 129.158 147.818C128.986 149.545 128.64 151.618 128.122 154.036C127.604 156.282 126.74 158.614 125.531 161.032C124.494 163.45 123.026 165.869 121.126 168.287C119.399 170.532 117.153 172.519 114.39 174.246C112.835 175.11 110.503 176.751 107.394 179.169C104.285 181.587 100.744 184.524 96.7708 187.978C92.9706 191.433 88.9978 195.233 84.8521 199.379C80.7065 203.524 76.9064 207.67 73.4517 211.816C70.1698 216.134 67.4061 220.366 65.1605 224.512C63.0877 228.83 62.0513 232.803 62.0513 236.43C62.0513 237.294 62.3968 237.985 63.0877 238.503C63.9514 239.194 64.9014 239.539 65.9378 239.539H211.034C211.725 239.539 212.589 239.194 213.625 238.503L218.03 240.317C219.584 241.18 220.88 240.835 221.916 239.28C222.78 238.417 223.212 237.812 223.212 237.467C223.212 236.776 222.953 236.171 222.434 235.653C222.434 235.653 222.175 235.135 221.657 234.098C221.312 233.235 220.793 232.371 220.102 231.507C221.83 231.853 223.384 232.198 224.766 232.544C226.321 233.062 227.098 233.321 227.098 233.321C228.48 233.839 229.603 233.321 230.466 231.766C230.985 231.421 231.244 230.816 231.244 229.953C231.244 229.089 231.157 228.484 230.985 228.139ZM181.237 92.3705C180.719 92.3705 180.46 92.1114 180.46 91.5932C180.806 91.7659 181.065 91.8523 181.237 91.8523V92.3705ZM69.8243 232.544C70.8607 228.398 73.3654 223.648 77.3382 218.293C81.4838 213.111 86.0613 207.929 91.0706 202.747C96.0798 197.738 101.089 193.16 106.098 189.015C111.108 184.869 115.081 181.846 118.017 179.946C123.717 176.319 128.208 171.31 131.49 164.919C134.772 158.355 136.586 151.186 136.931 143.413C141.25 140.131 144.963 136.245 148.073 131.754C151.182 127.263 153.686 122.685 155.587 118.021C157.487 113.185 158.868 108.607 159.732 104.289C160.769 99.798 161.287 95.9115 161.287 92.6296C161.287 91.7659 160.855 90.9886 159.991 90.2977C159.3 89.434 158.523 89.0022 157.659 89.0022C156.45 89.0022 155.5 89.434 154.809 90.2977C154.291 90.9886 154.032 91.7659 154.032 92.6296C154.032 95.3933 153.341 99.7116 151.959 105.585C150.75 111.458 148.418 117.417 144.963 123.463C141.509 129.335 136.759 134.517 130.713 139.009C124.84 143.5 117.153 145.745 107.653 145.745C106.444 145.745 104.976 145.486 103.248 144.968C101.694 144.277 100.485 143.5 99.6209 142.636C97.7208 140.563 96.0798 138.231 94.6979 135.64C93.4888 132.876 92.9706 130.026 93.1434 127.09C93.1434 126.053 93.057 125.103 92.8842 124.24C92.7115 123.376 92.1933 122.944 91.3297 122.944C90.2933 122.944 89.6887 123.29 89.5159 123.981C89.5159 124.499 89.5159 125.19 89.5159 126.053C89.3432 129.508 89.6023 132.963 90.2933 136.418C90.9842 139.699 92.3661 142.636 94.4389 145.227C92.5388 146.091 90.2933 147.3 87.7022 148.854C85.1112 150.409 82.5202 152.309 79.9292 154.555C77.3382 156.8 74.8336 159.391 72.4153 162.328C70.1698 165.091 68.4425 168.2 67.2333 171.655L65.9378 175.283C65.2469 177.701 64.6423 179.083 64.1241 179.428C63.6059 179.774 62.915 179.946 62.0513 179.946C61.1877 179.946 60.4967 179.774 59.9785 179.428C59.2876 178.737 58.5967 177.614 57.9057 176.06C57.3875 174.505 57.3012 172.001 57.6466 168.546C57.9921 166.128 58.5103 164.4 59.2012 163.364C60.0649 162.155 60.9286 160.773 61.7922 159.218C63.1741 157.836 64.3832 156.368 65.4196 154.814C66.6288 153.086 67.4061 150.754 67.7515 147.818C67.7515 146.436 66.9742 145.313 65.4196 144.45C64.9014 144.104 64.2105 144.018 63.3468 144.191C62.6559 144.363 61.965 144.709 61.274 145.227C59.374 147.127 57.3875 149.373 55.3147 151.964C53.2419 154.382 51.0828 156.8 48.8372 159.218C47.8008 160.6 46.5053 162.155 44.9507 163.882C43.5689 165.437 42.187 166.905 40.8051 168.287C39.596 169.669 38.3868 170.791 37.1777 171.655C36.1413 172.519 35.364 172.951 34.8458 172.951C34.3276 172.951 34.0685 172.864 34.0685 172.692C33.723 172.346 33.2912 171.742 32.773 170.878C32.4275 170.014 32.2548 168.114 32.2548 165.178C32.2548 164.314 32.3412 163.709 32.5139 163.364C32.5139 160.082 33.2912 156.455 34.8458 152.482C36.4004 148.336 38.3869 144.104 40.8051 139.786C43.2234 135.467 45.9008 131.149 48.8372 126.831C51.7737 122.512 54.7102 118.54 57.6466 114.912C59.374 112.839 61.7922 109.903 64.9014 106.103C68.0106 102.303 71.2926 98.5025 74.7472 94.7024C78.3746 90.7295 81.8293 87.1885 85.1113 84.0793C88.3932 80.9701 90.9842 79.07 92.8842 78.3791C94.2661 77.6882 94.957 76.3926 94.957 74.4926C94.7843 70.0015 94.2661 66.2877 93.4025 63.3513C92.7115 60.4148 91.6751 57.6511 90.2933 55.0601C90.8115 55.4055 91.3296 55.751 91.8478 56.0964C92.366 56.4419 92.9706 56.7874 93.6616 57.1328L94.957 57.9102C96.5116 59.1193 97.6344 60.1557 98.3253 61.0194C99.189 61.7103 100.312 62.6603 101.694 63.8695L104.285 67.4968C105.321 68.8787 106.703 69.1378 108.43 68.2742C109.294 68.1014 109.812 67.756 109.985 67.2378C110.33 66.5468 110.503 65.7695 110.503 64.9059V53.7645V49.1007V47.2871C113.44 49.1871 115.512 50.9145 116.721 52.4691C117.931 53.8509 118.967 55.3192 119.831 56.8738L121.385 61.5376L122.163 63.8695C122.508 64.9059 123.199 65.5968 124.235 65.9423L131.749 68.2742C142.286 71.0379 152.564 76.3063 162.582 84.0793C172.773 91.8523 181.583 102.648 189.01 116.467C189.701 117.503 190.133 118.108 190.306 118.281C194.624 126.226 198.252 135.467 201.188 146.004C201.188 146.35 201.274 146.609 201.447 146.782C201.62 146.954 201.793 147.213 201.965 147.559C202.829 150.495 203.52 153.432 204.038 156.368C204.556 159.305 205.161 162.414 205.852 165.696V165.955C205.852 166.646 205.938 167.164 206.111 167.51C206.457 170.101 206.802 172.778 207.147 175.542C207.493 178.133 207.752 180.896 207.925 183.833V184.61C207.925 185.301 208.097 185.733 208.443 185.906C208.616 189.188 208.702 192.383 208.702 195.492C208.875 198.602 208.961 201.884 208.961 205.338V205.597V205.856C208.961 210.175 208.875 214.579 208.702 219.07C208.529 223.562 208.184 228.053 207.666 232.544H69.8243Z" fill="#374B34"/>
<path fill-rule="evenodd" clip-rule="evenodd" d="M69.8243 232.544C70.8607 228.398 73.3654 223.648 77.3382 218.293C81.4838 213.111 86.0613 207.929 91.0706 202.747C96.0798 197.738 101.089 193.16 106.098 189.015C111.108 184.869 115.081 181.846 118.017 179.946C123.717 176.319 128.208 171.31 131.49 164.919C134.772 158.355 136.586 151.186 136.931 143.413C141.25 140.131 144.963 136.245 148.073 131.754C151.182 127.263 153.686 122.685 155.587 118.021C157.487 113.185 158.868 108.607 159.732 104.289C160.769 99.798 161.287 95.9115 161.287 92.6296C161.287 91.7659 160.855 90.9886 159.991 90.2977C159.3 89.434 158.523 89.0022 157.659 89.0022C156.45 89.0022 155.5 89.434 154.809 90.2977C154.291 90.9886 154.032 91.7659 154.032 92.6296C154.032 95.3933 153.341 99.7116 151.959 105.585C150.75 111.458 148.418 117.417 144.963 123.463C141.509 129.335 136.759 134.517 130.713 139.009C124.84 143.5 117.153 145.745 107.653 145.745C106.444 145.745 104.976 145.486 103.248 144.968C101.694 144.277 100.485 143.5 99.6209 142.636C97.7208 140.563 96.0798 138.231 94.6979 135.64C93.4888 132.876 92.9706 130.026 93.1434 127.09C93.1434 126.053 93.057 125.103 92.8842 124.24C92.7115 123.376 92.1933 122.944 91.3297 122.944C90.2933 122.944 89.6887 123.29 89.5159 123.981V126.053C89.3432 129.508 89.6023 132.963 90.2933 136.418C90.9842 139.699 92.3661 142.636 94.4389 145.227C92.5388 146.091 90.2933 147.3 87.7022 148.854C85.1112 150.409 82.5202 152.309 79.9292 154.555C77.3382 156.8 74.8336 159.391 72.4153 162.328C70.1698 165.091 68.4425 168.2 67.2333 171.655L65.9378 175.283C65.2469 177.701 64.6423 179.083 64.1241 179.428C63.6059 179.774 62.915 179.946 62.0513 179.946C61.1877 179.946 60.4967 179.774 59.9785 179.428C59.2876 178.737 58.5967 177.614 57.9057 176.06C57.3875 174.505 57.3012 172.001 57.6466 168.546C57.9921 166.128 58.5103 164.4 59.2012 163.364C60.0649 162.155 60.9286 160.773 61.7922 159.218C63.1741 157.836 64.3832 156.368 65.4196 154.814C66.6288 153.086 67.4061 150.754 67.7515 147.818C67.7515 146.436 66.9742 145.313 65.4196 144.45C64.9014 144.104 64.2105 144.018 63.3468 144.191C62.6559 144.363 61.965 144.709 61.274 145.227C59.374 147.127 57.3875 149.373 55.3147 151.964C53.2419 154.382 51.0828 156.8 48.8372 159.218C47.8008 160.6 46.5053 162.155 44.9507 163.882C43.5689 165.437 42.187 166.905 40.8051 168.287C39.596 169.669 38.3868 170.791 37.1777 171.655C36.1413 172.519 35.364 172.951 34.8458 172.951C34.3276 172.951 34.0685 172.864 34.0685 172.692C33.723 172.346 33.2912 171.742 32.773 170.878C32.4275 170.014 32.2548 168.114 32.2548 165.178C32.2548 164.314 32.3412 163.709 32.5139 163.364C32.5139 160.082 33.2912 156.455 34.8458 152.482C36.4004 148.336 38.3869 144.104 40.8051 139.786C43.2234 135.467 45.9008 131.149 48.8372 126.831C51.7737 122.512 54.7102 118.54 57.6466 114.912C59.374 112.839 61.7922 109.903 64.9014 106.103C68.0106 102.303 71.2926 98.5025 74.7472 94.7024C78.3746 90.7295 81.8293 87.1885 85.1113 84.0793C88.3932 80.9701 90.9842 79.07 92.8842 78.3791C94.2661 77.6882 94.957 76.3926 94.957 74.4926C94.7843 70.0015 94.2661 66.2877 93.4025 63.3513C92.7115 60.4148 91.6751 57.6511 90.2933 55.0601L91.8478 56.0964C92.366 56.4419 92.9706 56.7874 93.6616 57.1328L94.957 57.9102C96.5116 59.1193 97.6344 60.1557 98.3253 61.0194C99.189 61.7103 100.312 62.6603 101.694 63.8695L104.285 67.4968C105.321 68.8787 106.703 69.1378 108.43 68.2742C109.294 68.1014 109.812 67.756 109.985 67.2378C110.33 66.5468 110.503 65.7695 110.503 64.9059V53.7645V49.1007V47.2871C113.44 49.1871 115.512 50.9145 116.721 52.4691C117.931 53.8509 118.967 55.3192 119.831 56.8738L121.385 61.5376L122.163 63.8695C122.508 64.9059 123.199 65.5968 124.235 65.9423L131.749 68.2742C142.286 71.0379 152.564 76.3063 162.582 84.0793C172.773 91.8523 181.583 102.648 189.01 116.467C189.701 117.503 190.133 118.108 190.306 118.281C194.624 126.226 198.252 135.467 201.188 146.004C201.188 146.35 201.274 146.609 201.447 146.782C201.62 146.954 201.793 147.213 201.965 147.559C202.829 150.495 203.52 153.432 204.038 156.368C204.556 159.305 205.161 162.414 205.852 165.696V165.955C205.852 166.646 205.938 167.164 206.111 167.51C206.457 170.101 206.802 172.778 207.147 175.542C207.493 178.133 207.752 180.896 207.925 183.833V184.61C207.925 185.301 208.097 185.733 208.443 185.906C208.616 189.188 208.702 192.383 208.702 195.492C208.875 198.602 208.961 201.884 208.961 205.338V205.597V205.856C208.961 210.175 208.875 214.579 208.702 219.07C208.529 223.562 208.184 228.053 207.666 232.544H69.8243ZM161.287 140.563C158.696 142.981 155.414 145.054 151.441 146.782H149.886C149.195 146.609 148.591 146.263 148.073 145.745C147.382 144.881 147.382 144.104 148.073 143.413C148.936 142.55 149.8 141.945 150.664 141.6C153.082 140.736 155.241 139.354 157.141 137.454C159.214 135.381 161.028 133.049 162.582 130.458C164.137 127.867 165.432 125.103 166.469 122.167C167.678 119.231 168.541 116.467 169.06 113.876C169.405 113.012 169.664 111.976 169.837 110.767C170.182 109.557 170.787 109.126 171.651 109.471C172.514 109.644 172.946 110.68 172.946 112.58C173.119 114.308 173.033 115.69 172.687 116.726C172.169 119.144 171.564 121.735 170.873 124.499C170.182 127.263 169.06 130.026 167.505 132.79C165.951 135.381 163.878 137.972 161.287 140.563ZM176.574 129.422C177.092 127.349 177.783 126.485 178.646 126.831C179.51 126.831 180.201 127.263 180.719 128.126C181.237 128.817 181.151 130.372 180.46 132.79C179.942 135.727 179.078 138.663 177.869 141.6C176.833 144.363 175.192 147.041 172.946 149.632C170.701 152.223 167.764 154.555 164.137 156.627C160.509 158.527 156.018 160.082 150.664 161.291C150.145 161.291 149.282 161.378 148.073 161.55H144.963C143.927 161.55 142.977 161.464 142.113 161.291C141.422 160.946 141.077 160.514 141.077 159.996C141.077 158.959 142.027 158.096 143.927 157.405C146 156.714 147.641 156.368 148.85 156.368C152.477 156.368 155.846 155.418 158.955 153.518C162.064 151.618 164.828 149.459 167.246 147.041C169.837 144.45 171.823 141.945 173.205 139.527C174.76 137.108 175.624 135.468 175.796 134.604C175.969 133.049 176.228 131.322 176.574 129.422ZM64.9014 114.912C66.8015 113.185 68.1834 111.976 69.047 111.285C69.738 110.594 70.6016 110.248 71.638 110.248C72.8472 110.076 73.7108 110.421 74.229 111.285C75.9564 112.667 75.9564 113.962 74.229 115.171C70.9471 118.108 68.2697 120.612 66.1969 122.685C64.1241 124.585 62.3104 126.313 60.7558 127.867C59.2012 129.422 57.9057 130.89 56.8693 132.272C55.8329 133.654 54.7102 135.295 53.501 137.195C53.3283 137.54 53.0692 138.145 52.7237 139.009C52.3783 139.699 51.9464 140.477 51.4282 141.34C51.0828 142.204 50.6509 142.981 50.1327 143.672C49.7873 144.19 49.3554 144.363 48.8372 144.191C47.9736 143.672 47.5417 142.55 47.5417 140.822C47.5417 138.922 47.8008 137.54 48.319 136.677C49.5281 133.74 51.0828 130.89 52.9828 128.126C55.0556 125.363 57.1284 122.858 59.2012 120.612C61.274 118.367 63.1741 116.467 64.9014 114.912ZM97.5481 90.0386C100.657 88.6567 104.889 88.0522 110.244 88.2249C111.108 88.2249 111.885 88.5704 112.576 89.2613C113.267 90.8159 113.44 91.9387 113.094 92.6296L112.058 97.0343C111.885 98.7616 111.539 100.662 111.021 102.734C110.503 104.635 109.553 106.448 108.171 108.176C106.962 109.903 105.148 111.285 102.73 112.321C100.485 113.185 97.289 113.444 93.1434 113.099C90.8978 113.099 89.775 111.889 89.775 109.471V108.953C89.6023 108.953 89.4296 109.039 89.2568 109.212C89.2568 109.385 89.0841 109.471 88.7386 109.471C86.4931 109.471 85.3704 108.176 85.3704 105.585C85.3704 101.266 87.0113 97.5525 90.2933 94.4433C92.0206 92.8887 94.4389 91.4204 97.5481 90.0386Z" fill="#E0F9B5"/>
<path d="M105.321 95.9979C104.63 99.4526 103.68 102.13 102.471 104.03C101.435 105.757 98.5845 106.448 93.9207 106.103C93.5752 105.757 93.3161 105.671 93.1434 105.844C92.9706 106.016 92.7115 106.189 92.366 106.362V105.585V105.325C92.366 104.462 92.6252 103.512 93.1434 102.475C93.6616 101.266 94.2661 100.23 94.957 99.3662C96.3389 98.1571 97.8935 97.2934 99.6209 96.7752C101.521 96.257 103.421 95.9115 105.321 95.7388V95.9979Z" fill="#E0F9B5"/>
</svg>
