<svg width="256" height="256" viewBox="0 0 256 256" fill="none" xmlns="http://www.w3.org/2000/svg">
<path d="M166.085 197.351L163.495 195.278L160.644 193.464C157.535 191.564 154.253 189.232 150.799 186.469C147.344 183.532 145.185 180.423 144.321 177.141C151.058 175.586 156.585 172.736 160.903 168.591C165.395 164.272 167.64 158.486 167.64 151.231C167.64 145.531 166.172 140.176 163.235 135.167C160.299 129.985 157.19 125.148 153.908 120.657C152.008 118.066 150.367 115.648 148.985 113.402C147.776 111.157 146.739 109.084 145.876 107.184C150.367 107.53 155.117 107.961 160.126 108.48C165.308 108.825 170.317 109.516 175.154 110.552C177.399 111.243 178.695 110.552 179.04 108.48C179.386 107.616 179.386 106.752 179.04 105.889C178.868 105.025 178.436 104.507 177.745 104.334L162.199 95.0063L155.721 91.3789L151.058 87.2333C149.503 85.8514 147.776 84.4696 145.876 83.0877C144.148 81.5331 142.162 80.2376 139.916 79.2012C142.162 77.4739 143.976 75.3147 145.357 72.7237C146.739 70.1327 147.43 67.1962 147.43 63.9143C147.43 58.7323 145.53 54.3276 141.73 50.7002C138.103 46.9001 133.525 45 127.998 45C122.816 45 118.325 46.9001 114.525 50.7002C110.724 54.3276 108.824 58.7323 108.824 63.9143C108.824 67.1962 109.515 70.1327 110.897 72.7237C112.452 75.3147 114.265 77.4739 116.338 79.2012C114.265 80.2376 112.279 81.5331 110.379 83.0877C108.479 84.4696 106.838 85.8514 105.456 87.2333L100.274 91.3789L94.3147 95.0063L78.5096 104.334C77.646 104.507 77.0414 105.025 76.6959 105.889C76.5232 106.752 76.6096 107.616 76.9551 108.48C77.3005 109.343 77.8187 110.034 78.5096 110.552C79.3733 110.898 80.0642 110.898 80.5824 110.552C85.5917 109.516 90.6874 108.825 95.8694 108.48C101.051 107.961 105.888 107.53 110.379 107.184C108.997 110.639 106.233 115.13 102.088 120.657C98.9785 125.148 95.8693 129.985 92.7601 135.167C89.8237 140.176 88.3555 145.531 88.3555 151.231C88.3555 158.486 90.6009 164.272 95.092 168.591C99.5831 172.736 105.111 175.586 111.674 177.141C111.329 178.696 110.552 180.25 109.343 181.805C108.306 183.359 107.011 184.828 105.456 186.21C103.901 187.591 102.26 188.887 100.533 190.096C98.9786 191.305 97.424 192.428 95.8694 193.464L93.0193 195.278L89.91 197.351C87.6645 198.733 85.0735 200.46 82.137 202.533C79.2005 204.778 76.4368 207.456 73.8458 210.565C71.2548 213.847 69.0093 217.647 67.1092 221.965C65.2092 226.456 64.1727 231.639 64 237.511V241.398H191.736V237.511C191.736 231.639 190.786 226.456 188.886 221.965C187.159 217.647 184.913 213.847 182.15 210.565C179.559 207.456 176.795 204.778 173.859 202.533C170.922 200.46 168.331 198.733 166.085 197.351ZM127.998 52.5139C131.452 52.5139 134.303 53.6367 136.548 55.8822C138.966 58.1277 140.175 60.8051 140.175 63.9143C140.175 67.369 138.966 70.3055 136.548 72.7237C134.303 74.9693 131.452 76.092 127.998 76.092C124.889 76.092 122.038 74.9693 119.447 72.7237C117.029 70.3055 115.82 67.369 115.82 63.9143C115.82 60.8051 117.029 58.1277 119.447 55.8822C122.038 53.6367 124.889 52.5139 127.998 52.5139ZM97.6831 100.966L104.42 97.3382L109.861 92.9335C112.279 90.5152 114.87 88.3561 117.634 86.456C120.57 84.3832 124.025 83.3468 127.998 83.3468C131.971 83.3468 135.339 84.3832 138.103 86.456C141.039 88.3561 143.717 90.5152 146.135 92.9335L152.094 97.3382L158.312 100.966C152.094 100.447 146.307 100.188 140.953 100.188C135.771 100.016 131.971 99.9293 129.552 99.9293H127.998H126.702C124.284 99.9293 120.398 100.016 115.043 100.188C109.861 100.188 104.074 100.447 97.6831 100.966ZM95.6102 151.231C95.6102 146.74 96.9057 142.249 99.4967 137.758C102.26 133.094 105.111 128.603 108.047 124.285C110.293 121.175 112.279 118.325 114.006 115.734C115.734 112.971 116.943 110.121 117.634 107.184C120.57 107.011 124.198 106.925 128.516 106.925C132.834 106.925 136.289 107.011 138.88 107.184C139.398 110.121 140.521 112.971 142.248 115.734C143.976 118.325 146.048 121.175 148.467 124.285C151.23 128.603 153.908 133.094 156.499 137.758C159.263 142.249 160.644 146.74 160.644 151.231C160.644 156.068 159.263 159.954 156.499 162.891C153.908 165.654 150.799 167.727 147.171 169.109C143.544 170.491 139.916 171.441 136.289 171.959C132.662 172.305 129.898 172.477 127.998 172.477C126.098 172.477 123.334 172.305 119.707 171.959C116.252 171.441 112.711 170.491 109.083 169.109C105.456 167.727 102.26 165.654 99.4967 162.891C96.9057 159.954 95.6102 156.068 95.6102 151.231ZM71.5139 233.884C72.0321 229.566 73.0685 225.766 74.6231 222.484C76.3505 219.202 78.3369 216.265 80.5824 213.674C82.828 211.256 85.1598 209.183 87.5781 207.456C89.9964 205.729 92.1556 204.26 94.0557 203.051L96.9058 200.978L99.4967 199.424C101.224 198.215 103.038 196.919 104.938 195.537C107.011 193.983 108.911 192.428 110.638 190.873C112.538 189.146 114.179 187.332 115.561 185.432C116.943 183.532 117.893 181.459 118.411 179.214C121.002 179.387 124.025 179.473 127.48 179.473C131.107 179.473 134.475 179.387 137.584 179.214C138.794 183.705 141.298 187.591 145.098 190.873C149.071 193.983 152.871 196.833 156.499 199.424L159.09 200.978L162.199 203.051C164.272 204.26 166.517 205.729 168.936 207.456C171.354 209.183 173.599 211.256 175.672 213.674C177.918 216.265 179.731 219.202 181.113 222.484C182.668 225.766 183.618 229.566 183.963 233.884H71.5139Z" fill="#374B34"/>
<path d="M95.6102 151.231C95.6102 146.74 96.9057 142.249 99.4967 137.758C102.26 133.094 105.111 128.603 108.047 124.285C110.293 121.175 112.279 118.325 114.006 115.734C115.734 112.971 116.943 110.121 117.634 107.184C120.57 107.011 124.198 106.925 128.516 106.925C132.834 106.925 136.289 107.011 138.88 107.184C139.398 110.121 140.521 112.971 142.248 115.734C143.976 118.325 146.048 121.175 148.467 124.285C151.23 128.603 153.908 133.094 156.499 137.758C159.263 142.249 160.644 146.74 160.644 151.231C160.644 156.068 159.263 159.954 156.499 162.891C153.908 165.654 150.799 167.727 147.171 169.109C143.544 170.491 139.916 171.441 136.289 171.959C132.662 172.305 129.898 172.477 127.998 172.477C126.098 172.477 123.334 172.305 119.707 171.959C116.252 171.441 112.711 170.491 109.083 169.109C105.456 167.727 102.26 165.654 99.4967 162.891C96.9057 159.954 95.6102 156.068 95.6102 151.231Z" fill="#E0F9B5"/>
<path d="M71.5139 233.884C72.0321 229.566 73.0685 225.766 74.6231 222.484C76.3505 219.202 78.3369 216.265 80.5824 213.674C82.828 211.256 85.1598 209.183 87.5781 207.456C89.9964 205.729 92.1556 204.26 94.0557 203.051L96.9058 200.978L99.4967 199.424C101.224 198.215 103.038 196.919 104.938 195.537C107.011 193.983 108.911 192.428 110.638 190.873C112.538 189.146 114.179 187.332 115.561 185.432C116.943 183.532 117.893 181.459 118.411 179.214C121.002 179.387 124.025 179.473 127.48 179.473C131.107 179.473 134.475 179.387 137.584 179.214C138.794 183.705 141.298 187.591 145.098 190.873C149.071 193.983 152.871 196.833 156.499 199.424L159.09 200.978L162.199 203.051C164.272 204.26 166.517 205.729 168.936 207.456C171.354 209.183 173.599 211.256 175.672 213.674C177.918 216.265 179.731 219.202 181.113 222.484C182.668 225.766 183.618 229.566 183.963 233.884H71.5139Z" fill="#E0F9B5"/>
<path d="M127.998 52.5139C131.452 52.5139 134.303 53.6367 136.548 55.8822C138.966 58.1277 140.175 60.8051 140.175 63.9143C140.175 67.369 138.966 70.3055 136.548 72.7237C134.303 74.9693 131.452 76.092 127.998 76.092C124.889 76.092 122.038 74.9693 119.447 72.7237C117.029 70.3055 115.82 67.369 115.82 63.9143C115.82 60.8051 117.029 58.1277 119.447 55.8822C122.038 53.6367 124.889 52.5139 127.998 52.5139Z" fill="#E0F9B5"/>
<path d="M97.6831 100.966L104.42 97.3382L109.861 92.9335C112.279 90.5152 114.87 88.3561 117.634 86.456C120.57 84.3832 124.025 83.3468 127.998 83.3468C131.971 83.3468 135.339 84.3832 138.103 86.456C141.039 88.3561 143.717 90.5152 146.135 92.9335L152.094 97.3382L158.312 100.966C152.094 100.447 146.307 100.188 140.953 100.188C135.771 100.016 131.971 99.9293 129.552 99.9293H127.998H126.702C124.284 99.9293 120.398 100.016 115.043 100.188C109.861 100.188 104.074 100.447 97.6831 100.966Z" fill="#E0F9B5"/>
</svg>
