<svg width="180" height="180" viewBox="0 0 180 180" fill="none" xmlns="http://www.w3.org/2000/svg">
<path d="M143.153 106.452C146.485 102.808 148.151 98.3824 148.151 93.1759C148.151 87.6577 146.199 82.9462 142.294 79.0414C138.39 75.1365 133.678 73.1846 128.159 73.1846C123.526 73.1846 119.361 74.6421 115.665 77.5575C107.751 85.2626 101.92 94.2176 98.172 104.421C96.6099 108.691 95.5429 112.335 94.9697 115.355C113.191 115.563 126.519 117.359 134.953 120.743C135.057 120.222 135.318 119.363 135.734 118.166C137.14 114.209 139.613 110.305 143.153 106.452ZM41.6327 106.452C45.2249 110.409 47.6979 114.313 49.0515 118.166C49.4159 119.155 49.6762 120.014 49.8324 120.743C58.2142 117.359 71.5421 115.563 89.8161 115.355C89.1388 112.179 88.0717 108.534 86.6137 104.421C82.8658 94.2694 77.0349 85.3149 69.1211 77.5575C65.3726 74.6421 61.2079 73.1846 56.6263 73.1846C51.1079 73.1846 46.3963 75.1365 42.4917 79.0414C38.5871 82.9462 36.6348 87.6577 36.6348 93.1759C36.6348 98.3301 38.3007 102.755 41.6327 106.452ZM33.1206 100.126C31.8711 96.4299 31.2464 94.113 31.2464 93.1759C31.2464 86.4079 33.6412 80.4471 38.4309 75.2929C42.5438 70.8677 48.1664 68.6548 55.2989 68.6548C56.4964 68.6548 57.7198 68.7071 58.9691 68.8112C56.6786 67.8741 53.711 67.1709 50.0667 66.7024C46.4744 66.2338 43.5069 66.4161 41.1641 67.2491C35.9059 69.1757 32.2095 72.6114 30.075 77.5575C28.8255 80.4729 28.2008 83.4143 28.2008 86.382C28.2008 89.5579 28.8515 92.6814 30.1531 95.7533C30.5696 96.7421 31.5587 98.2001 33.1206 100.126ZM92.3929 144.717C110.354 144.717 124.072 146.331 133.548 149.559C133.548 148.83 133.522 147.737 133.469 146.279C133.418 144.821 133.391 143.728 133.391 142.999C126.207 140.24 112.54 138.86 92.3929 138.86C72.1929 138.86 58.5264 140.24 51.3942 142.999C51.3942 143.728 51.3682 144.821 51.3161 146.279C51.3161 147.737 51.3161 148.83 51.3161 149.559C60.687 146.331 74.3794 144.717 92.3929 144.717ZM92.3929 159.398C101.504 159.398 111.083 158.774 121.131 157.524C130.398 156.379 135.031 155.442 135.031 154.713C135.031 153.308 129.383 152.136 118.085 151.199C109.079 150.418 100.514 150.028 92.3929 150.028C82.8135 150.028 73.1042 150.652 63.2644 151.902C54.2577 153.047 49.7543 153.984 49.7543 154.713C49.7543 156.067 55.403 157.238 66.7007 158.227C75.9156 159.008 84.4796 159.398 92.3929 159.398ZM92.3929 133.55C110.458 133.55 124.125 135.164 133.391 138.392C133.391 134.747 133.548 130.426 133.86 125.429C127.04 122.253 113.218 120.665 92.3929 120.665C71.5162 120.665 57.6939 122.253 50.9257 125.429C51.134 130.426 51.2902 134.747 51.3943 138.392C60.6094 135.164 74.2753 133.55 92.3929 133.55ZM92.3929 164.709C84.0628 164.709 75.3165 164.136 66.1539 162.991C51.6286 161.169 44.3659 158.41 44.3659 154.713C44.3659 153.88 44.8605 153.047 45.8497 152.214C46.0059 147.893 46.0839 144.015 46.0839 140.578C46.0839 135.008 45.9017 130.166 45.5373 126.053C44.9646 123.346 44.444 121.315 43.9755 119.962C41.9971 114.599 38.2486 109.966 32.7301 106.062C25.91 100.231 22.5 93.5404 22.5 85.9916C22.5 82.3995 23.333 78.8591 24.999 75.3711C27.9665 68.9676 32.7301 64.5683 39.2899 62.1731C42.3095 61.0802 45.277 60.5334 48.1925 60.5334C52.3054 60.5334 56.2882 61.6269 60.1408 63.8134C64.7218 66.4684 69.4856 70.3468 74.4317 75.4493C74.7439 71.0758 76.5141 67.2756 79.7417 64.0474L74.4317 64.1256V28.125H110.354V64.1256L105.044 64.0474C108.168 67.2756 109.938 71.0758 110.354 75.4493C115.3 70.3468 120.064 66.4684 124.645 63.8134C128.446 61.6269 132.428 60.5334 136.593 60.5334C139.509 60.5334 142.476 61.0802 145.496 62.1731C152.056 64.5683 156.819 68.9676 159.787 75.3711C161.453 78.8591 162.286 82.3995 162.286 85.9916C162.286 93.5404 158.876 100.231 152.056 106.062C146.537 109.914 142.788 114.547 140.81 119.962C140.237 121.524 139.717 123.554 139.249 126.053C138.884 130.583 138.702 135.424 138.702 140.578C138.702 144.066 138.78 147.945 138.936 152.214C139.925 153.047 140.42 153.88 140.42 154.713C140.42 158.41 133.157 161.169 118.632 162.991C109.417 164.136 100.671 164.709 92.3929 164.709ZM92.3929 104.968L93.2518 102.625C94.2413 99.7622 95.5164 96.8726 97.0785 93.9572C95.5687 94.4258 94.0067 94.6597 92.3929 94.6597C90.8831 94.6597 89.3734 94.4775 87.8636 94.113C89.4251 97.3929 90.6486 100.231 91.5339 102.625L92.3929 104.968ZM101.296 33.4353H83.412L92.3929 42.4159L101.296 33.4353ZM105.122 55.0669V37.1837L96.1414 46.1644L105.122 55.0669ZM83.4902 58.8156H101.374L92.3929 49.8347L83.4902 58.8156ZM79.8199 54.9888L88.6444 46.0863L79.7417 37.2618L79.8199 54.9888ZM92.3929 89.4279C95.8809 89.4279 98.8487 88.2045 101.296 85.7571C103.794 83.2584 105.044 80.2648 105.044 76.7768C105.044 73.2887 103.794 70.3209 101.296 67.8741C98.8487 65.3749 95.8809 64.1256 92.3929 64.1256C88.8525 64.1256 85.8589 65.349 83.412 67.7959C80.9651 70.2427 79.7417 73.2364 79.7417 76.7768C79.7417 80.3171 80.9651 83.3102 83.412 85.7571C85.8589 88.2045 88.8525 89.4279 92.3929 89.4279ZM151.977 100.126C153.956 97.5752 155.257 95.2065 155.882 93.0201C156.507 90.8331 156.819 88.6725 156.819 86.5384C156.819 83.5189 156.194 80.5253 154.945 77.5575C152.759 72.5597 149.114 69.1234 144.012 67.2491C141.617 66.4166 138.598 66.2344 134.953 66.7029C131.309 67.1715 128.368 67.8741 126.129 68.8112C127.378 68.7071 128.576 68.6554 129.721 68.6554C136.853 68.6554 142.502 70.8677 146.667 75.2929C151.457 80.4471 153.852 86.4084 153.852 93.1764C153.852 94.2176 153.227 96.534 151.977 100.127V100.126Z" fill="#1A1F25"/>
<path d="M143.153 106.452C146.485 102.808 148.151 98.3824 148.151 93.1759C148.151 87.6577 146.199 82.9462 142.294 79.0414C138.39 75.1365 133.678 73.1846 128.159 73.1846C123.526 73.1846 119.361 74.642 115.665 77.5575C107.751 85.2626 101.92 94.217 98.172 104.421C96.6099 108.691 95.5429 112.335 94.9702 115.354C113.192 115.563 126.519 117.359 134.953 120.743C135.057 120.222 135.318 119.363 135.735 118.165C137.14 114.209 139.613 110.305 143.153 106.452ZM41.6328 106.452C45.225 110.409 47.698 114.313 49.0516 118.165C49.416 119.155 49.6763 120.014 49.8325 120.743C58.2142 117.359 71.5421 115.563 89.8161 115.354C89.1394 112.179 88.0717 108.534 86.6143 104.421C82.8658 94.2694 77.0349 85.3149 69.1211 77.5575C65.3732 74.642 61.2079 73.1846 56.6263 73.1846C51.108 73.1846 46.3965 75.1365 42.4918 79.0414C38.5872 82.9462 36.6349 87.6577 36.6349 93.1759C36.6349 98.33 38.3008 102.755 41.6328 106.452ZM33.1207 100.126C31.8712 96.4299 31.2465 94.113 31.2465 93.1759C31.2465 86.4079 33.6413 80.447 38.431 75.2929C42.5439 70.8677 48.1665 68.6548 55.299 68.6548C56.4964 68.6548 57.7198 68.7071 58.9691 68.8112C56.6786 67.874 53.7111 67.1709 50.0668 66.7024C46.4745 66.2338 43.507 66.416 41.1642 67.2491C35.906 69.1757 32.2096 72.6114 30.0751 77.5575C28.8256 80.4729 28.2009 83.4142 28.2009 86.382C28.2009 89.5579 28.8516 92.6814 30.1532 95.7532C30.5697 96.7421 31.5588 98.2001 33.1207 100.126ZM92.3929 144.717C110.354 144.717 124.072 146.331 133.548 149.559C133.548 148.83 133.522 147.737 133.469 146.279C133.418 144.821 133.391 143.728 133.391 142.999C126.207 140.24 112.541 138.86 92.3929 138.86C72.1929 138.86 58.527 140.24 51.3943 142.999C51.3943 143.728 51.3683 144.821 51.3162 146.279C51.3162 147.737 51.3162 148.83 51.3162 149.559C60.6876 146.331 74.3794 144.717 92.3929 144.717ZM92.3929 159.398C101.504 159.398 111.083 158.774 121.131 157.524C130.398 156.379 135.031 155.442 135.031 154.713C135.031 153.307 129.383 152.136 118.086 151.199C109.079 150.418 100.515 150.028 92.3929 150.028C82.8135 150.028 73.1042 150.652 63.2644 151.902C54.2578 153.047 49.7544 153.984 49.7544 154.713C49.7544 156.067 55.4031 157.238 66.7007 158.227C75.9156 159.008 84.4796 159.398 92.3929 159.398ZM92.3929 133.55C110.459 133.55 124.125 135.164 133.392 138.392C133.392 134.747 133.548 130.426 133.86 125.428C127.04 122.253 113.218 120.665 92.3929 120.665C71.5162 120.665 57.6939 122.253 50.9258 125.428C51.1341 130.426 51.2903 134.747 51.3944 138.392C60.6094 135.164 74.2753 133.55 92.3929 133.55ZM92.3929 104.968L93.2518 102.625C94.2412 99.7622 95.5164 96.8726 97.0785 93.9572C95.5687 94.4257 94.0067 94.6597 92.3929 94.6597C90.8831 94.6597 89.3734 94.4775 87.8636 94.113C89.4257 97.3929 90.6491 100.23 91.5339 102.625L92.3929 104.968ZM101.296 33.4353H83.4126L92.3929 42.4159L101.296 33.4353ZM105.122 55.0669V37.1837L96.1414 46.1644L105.122 55.0669ZM83.4902 58.8155H101.374L92.3929 49.8347L83.4902 58.8155ZM79.8199 54.9888L88.6444 46.0862L79.7422 37.2618L79.8199 54.9888ZM92.3929 89.4274C95.8809 89.4274 98.8487 88.2039 101.296 85.757C103.795 83.2584 105.044 80.2648 105.044 76.7767C105.044 73.2887 103.795 70.3209 101.296 67.874C98.8487 65.3749 95.8809 64.1255 92.3929 64.1255C88.8531 64.1255 85.8594 65.349 83.4126 67.7959C80.9657 70.2427 79.7422 73.2364 79.7422 76.7767C79.7422 80.3171 80.9657 83.3102 83.4126 85.757C85.8594 88.2039 88.8531 89.4274 92.3929 89.4274ZM151.977 100.126C153.956 97.5752 155.257 95.2065 155.882 93.02C156.507 90.833 156.819 88.6725 156.819 86.5383C156.819 83.5188 156.194 80.5252 154.945 77.5575C152.759 72.5597 149.114 69.1234 144.012 67.2491C141.617 66.4166 138.598 66.2344 134.953 66.7029C131.309 67.1715 128.368 67.874 126.129 68.8112C127.379 68.7071 128.576 68.6554 129.721 68.6554C136.853 68.6554 142.503 70.8677 146.667 75.2929C151.457 80.447 153.852 86.4078 153.852 93.1764C153.852 94.2176 153.227 96.534 151.977 100.126Z" fill="#66DE93"/>
</svg>
