<svg width="180" height="180" viewBox="0 0 180 180" fill="none" xmlns="http://www.w3.org/2000/svg">
<path d="M74.3237 75.9983C75.0004 78.4451 74.115 80.3711 71.6681 81.7768C69.2213 83.2348 67.1648 83.0267 65.4992 81.1524C62.4274 82.0896 60.579 81.9849 59.9546 80.8397C58.7571 78.8096 60.9694 76.1805 66.5921 72.9523C68.8832 71.5989 71.0173 70.74 72.9956 70.3755C74.9739 70.0633 76.1974 70.2973 76.6659 71.0781C77.2909 72.2239 76.5101 73.8636 74.3237 75.9983ZM49.0214 99.738C49.7503 100.727 49.8023 101.586 49.1775 102.315C47.4595 104.137 45.403 106.766 43.0082 110.203C42.5396 111.244 41.967 111.452 41.2902 110.827C40.9257 110.567 40.7435 110.15 40.7435 109.578C40.7435 108.38 41.6286 106.532 43.3986 104.033C46.21 99.9726 48.0842 98.541 49.0213 99.738H49.0214ZM76.1974 52.4141L75.1826 49.4466C74.5054 47.6765 73.7246 45.8283 72.8398 43.9021C72.2149 46.401 71.7986 48.3793 71.5899 49.837C71.4341 50.6701 71.226 51.9977 70.9656 53.8198C72.6311 53.143 74.2714 52.6745 75.8852 52.4141C76.0416 52.4141 76.1456 52.4141 76.1974 52.4141ZM65.4992 57.2557C65.3428 54.809 65.5509 51.9977 66.1236 48.8218C67.2171 42.3662 69.1954 37.3422 72.0585 33.75C75.4425 36.9258 78.228 41.5333 80.4144 47.5724C80.6231 48.1971 80.9353 49.1603 81.3516 50.4618C81.4556 50.618 81.5597 50.6961 81.6643 50.6961C81.7684 50.6961 81.8983 50.618 82.0547 50.4618C83.1999 43.9541 85.2041 38.9041 88.0678 35.3118C91.3995 38.6438 94.1591 43.2773 96.3456 49.2123C96.3979 49.5247 96.84 49.9412 97.6731 50.4618L109.387 51.0085L114.385 56.0064L124.615 58.6614L124.459 63.5034L135.236 67.8763L133.127 73.9676L144.685 80.0589L140.234 82.5581L148.355 92.9441L144.06 94.0376L153.744 106.454L148.355 106.298L156.555 119.261L150.62 117.622L155.306 130.038L150.073 130.116L156.555 143.782L151.167 144.485L155.852 155.809L151.401 157.292L154.915 165.57H50.8177C50.7136 165.05 50.6615 164.529 50.6615 164.009C50.6615 157.709 54.3058 151.019 61.5943 143.939C62.0111 143.522 65.7073 140.242 72.6834 134.099C78.8788 128.632 82.0806 125.795 82.2893 125.587C86.5058 121.63 89.2131 118.48 90.4106 116.138C91.6599 113.743 92.5189 111.452 92.9874 109.266C89.7081 110.828 85.8291 111.4 81.3521 110.984C79.0093 110.828 76.7447 110.307 74.5577 109.422C70.6011 113.639 66.7226 116.424 62.9218 117.778C62.0893 119.808 61.0476 121.682 59.7983 123.401C57.6636 126.472 55.0868 128.997 52.0672 130.975C48.0584 133.63 44.7786 134.047 42.2275 132.225C40.978 131.392 40.1971 130.507 39.8847 129.57C39.4682 129.57 38.6353 129.387 37.3858 129.023C33.377 127.982 30.6438 125.274 29.1861 120.902C27.8845 117.049 27.7804 113.04 28.8737 108.875C30.1232 104.242 32.492 100.598 35.9801 97.9425C41.9672 92.2674 46.835 85.6294 50.5834 78.0289C55.1128 68.7617 60.0846 61.8373 65.4992 57.2557ZM134.845 83.8074C133.023 78.9654 129.223 73.8112 123.443 68.3449C118.029 63.1389 112.745 59.3904 107.591 57.0999C103.998 55.4858 100.589 54.6788 97.3609 54.6788C95.7471 54.6788 94.2109 54.861 92.7534 55.2255C92.3889 54.4966 91.8422 53.117 91.1132 51.0865C90.4888 49.3165 89.7339 47.4423 88.8486 45.4639C87.5993 50.3577 86.9484 54.3144 86.8961 57.3339C83.0436 58.0106 80.4409 60.0413 79.0869 63.4253C78.6707 64.1019 78.1763 64.6487 77.6031 65.0649C75.6248 66.4189 74.2714 66.5229 73.5424 65.3777C73.3343 65.0649 73.2819 64.5705 73.3866 63.8938C73.6988 62.28 74.7923 60.2235 76.6665 57.7243C73.8028 58.3493 71.7986 59.0782 70.6534 59.9107C64.9266 64.3365 59.8764 71.0263 55.5032 79.9807C51.13 88.8834 45.5854 96.4063 38.8694 102.549C36.5267 104.684 34.9388 107.261 34.1058 110.281C33.377 112.988 33.2988 115.643 33.8715 118.246C34.6003 121.422 36.2143 123.322 38.7132 123.947C40.5354 119.469 43.0605 115.721 46.2882 112.701C47.0171 111.921 48.0063 111.478 49.2558 111.374C50.5053 111.322 51.3383 111.426 51.7547 111.687C52.1192 111.947 52.1192 112.389 51.7547 113.014C50.6615 114.472 49.5161 116.164 48.3187 118.09C47.0692 119.6 46.106 121.006 45.4292 122.307C45.221 122.619 44.9346 123.166 44.5703 123.947C43.9976 125.665 44.1797 126.94 45.1168 127.774C46.1581 128.762 48.0063 128.008 50.6615 125.509C52.4315 123.843 53.9673 122.098 55.2689 120.277C56.6747 118.246 57.7159 116.32 58.3926 114.498C63.7031 112.155 68.2583 109.266 72.0591 105.829C71.5905 104.476 71.2778 103.2 71.1219 102.003C70.6534 99.2959 71.2778 97.7861 72.9962 97.4734C74.61 97.2135 75.7029 98.4105 76.2756 101.066C76.4843 101.899 76.7964 103.122 77.2127 104.736C79.5555 105.465 81.7425 105.829 83.7726 105.829C90.1243 105.829 95.5648 103.278 100.094 98.1765C104.363 93.4386 106.784 87.7899 107.357 81.2301C107.409 80.6057 107.461 80.0589 107.513 79.5904C107.513 76.8831 108.372 75.5297 110.09 75.5297C111.756 75.5297 112.641 76.9089 112.745 79.6686C112.745 80.1371 112.719 80.7879 112.667 81.621C112.042 89.586 108.944 96.4845 103.374 102.315C109.361 99.0354 113.552 94.0112 115.946 87.2432C116.311 86.202 116.467 85.6817 116.415 85.6817C117.144 83.1307 118.342 82.0631 120.008 82.4799C121.622 82.8962 122.09 84.4324 121.413 87.0874C119.487 95.0006 114.828 101.352 107.435 106.142C114.359 105.673 118.967 103.018 121.257 98.1765C121.257 98.2806 121.387 97.9942 121.647 97.3176C122.689 94.662 123.938 93.6208 125.396 94.1934C126.749 94.7666 127.166 96.4586 126.645 99.2694C126.385 99.8944 126.229 100.311 126.177 100.519C124.147 104.84 120.424 107.782 115.01 109.344C111.521 110.333 107.929 110.827 104.233 110.827C102.098 110.827 99.9118 110.671 97.6731 110.359C95.9029 116.763 92.9874 121.917 88.9268 125.821C84.7097 129.517 78.3844 135.062 69.9503 142.455C63.0259 148.546 58.7829 154.481 57.2209 160.26H145.856C146.168 155.887 146.325 149.587 146.325 141.362C146.325 116.372 142.498 97.1871 134.845 83.8074Z" fill="#1A1F25"/>
<path d="M74.3231 75.9982C75.0004 78.4451 74.115 80.3711 71.6681 81.7768C69.2212 83.2348 67.1647 83.0267 65.4992 81.1524C62.4274 82.0896 60.579 81.9849 59.9546 80.8397C58.757 78.8096 60.9694 76.1805 66.5921 72.9523C68.8832 71.5989 71.0173 70.74 72.9956 70.3755C74.9739 70.0633 76.1974 70.2973 76.6659 71.0781C77.2909 72.2239 76.5101 73.8636 74.3231 75.9982ZM49.0213 99.738C49.7502 100.727 49.8023 101.586 49.1774 102.315C47.4595 104.137 45.403 106.766 43.0082 110.203C42.5396 111.244 41.9669 111.452 41.2901 110.828C40.9257 110.567 40.7435 110.15 40.7435 109.578C40.7435 108.38 41.6285 106.532 43.3986 104.033C46.2099 99.9726 48.0843 98.541 49.0213 99.738ZM76.1974 52.4141L75.1826 49.4466C74.5054 47.6765 73.7246 45.8283 72.8398 43.9021C72.2149 46.401 71.7986 48.3794 71.5899 49.8371C71.4341 50.6701 71.226 51.9977 70.9655 53.8198C72.6311 53.143 74.2714 52.6745 75.8852 52.4141C76.0415 52.4141 76.1456 52.4141 76.1974 52.4141ZM134.845 83.8074C133.023 78.9654 129.223 73.8112 123.443 68.3449C118.029 63.1389 112.745 59.3904 107.591 57.0999C103.998 55.4858 100.588 54.6788 97.3609 54.6788C95.747 54.6788 94.2109 54.8611 92.7534 55.2255C92.3889 54.4966 91.8422 53.117 91.1132 51.0866C90.4888 49.3165 89.7339 47.4423 88.8485 45.4639C87.5992 50.3577 86.9484 54.3144 86.8961 57.3339C83.0435 58.0106 80.4409 60.0412 79.0869 63.4252C78.6707 64.1019 78.1762 64.6487 77.603 65.0649C75.6247 66.4189 74.2714 66.5229 73.5424 65.3777C73.3342 65.0649 73.2819 64.5705 73.3865 63.8938C73.6987 62.28 74.7922 60.2235 76.6665 57.7243C73.8028 58.3492 71.7986 59.0782 70.6534 59.9113C64.9265 64.3365 59.8764 71.0263 55.5032 79.9807C51.13 88.8834 45.5854 96.4063 38.8694 102.549C36.5266 104.684 34.9388 107.261 34.1058 110.281C33.3769 112.988 33.2988 115.643 33.8715 118.246C34.6003 121.422 36.2142 123.322 38.7132 123.947C40.5354 119.47 43.0604 115.721 46.2882 112.701C47.0171 111.921 48.0063 111.478 49.2557 111.374C50.5052 111.322 51.3382 111.426 51.7547 111.687C52.1192 111.947 52.1192 112.389 51.7547 113.014C50.6614 114.472 49.5161 116.164 48.3186 118.09C47.0691 119.6 46.106 121.006 45.4292 122.307C45.2209 122.619 44.9346 123.166 44.5702 123.947C43.9975 125.665 44.1797 126.94 45.1168 127.774C46.1581 128.762 48.0063 128.008 50.6614 125.509C52.4315 123.843 53.9673 122.098 55.2688 120.277C56.6747 118.246 57.7159 116.32 58.3925 114.498C63.7031 112.155 68.2582 109.266 72.059 105.829C71.5905 104.476 71.2777 103.2 71.1219 102.003C70.6534 99.2959 71.2777 97.7861 72.9962 97.4734C74.61 97.2135 75.7029 98.4105 76.2755 101.066C76.4842 101.899 76.7964 103.122 77.2127 104.736C79.5555 105.465 81.7425 105.829 83.7725 105.829C90.1243 105.829 95.5648 103.278 100.094 98.1765C104.363 93.4386 106.784 87.7899 107.356 81.2301C107.409 80.6057 107.461 80.0589 107.513 79.5904C107.513 76.8831 108.372 75.5297 110.09 75.5297C111.756 75.5297 112.641 76.9089 112.745 79.6686C112.745 80.1371 112.719 80.7879 112.667 81.621C112.042 89.586 108.944 96.4845 103.374 102.315C109.361 99.0354 113.552 94.0117 115.946 87.2432C116.311 86.202 116.467 85.6817 116.415 85.6817C117.144 83.1307 118.342 82.0631 120.008 82.4799C121.621 82.8962 122.09 84.4324 121.413 87.0874C119.487 95.0006 114.828 101.352 107.435 106.142C114.359 105.673 118.966 103.018 121.257 98.1765C121.257 98.2806 121.387 97.9942 121.647 97.3176C122.689 94.662 123.938 93.6208 125.396 94.1934C126.749 94.7666 127.166 96.4586 126.645 99.2694C126.385 99.8944 126.229 100.311 126.177 100.519C124.147 104.84 120.424 107.782 115.01 109.344C111.521 110.333 107.929 110.828 104.233 110.828C102.098 110.828 99.9118 110.671 97.673 110.359C95.9029 116.763 92.9874 121.917 88.9267 125.821C84.7097 129.517 78.3844 135.062 69.9502 142.455C63.0259 148.546 58.7829 154.481 57.2209 160.26H145.856C146.168 155.887 146.325 149.587 146.325 141.362C146.325 116.372 142.498 97.1871 134.845 83.8074Z" fill="#66DE93"/>
</svg>
