<svg width="180" height="180" viewBox="0 0 180 180" fill="none" xmlns="http://www.w3.org/2000/svg">
<path d="M53.8244 49.1296L57.9634 55.7674H119.969L124.108 49.1296H53.8244ZM98.3374 22.5L98.9618 31.793H112.94L113.644 22.5H130.355V49.1296L123.639 59.8281V118.398L130.355 129.097V145.105H132.932V161.036H45V145.105H47.577V129.097L54.293 118.398V59.8281L47.577 49.1296V22.5H64.3669L64.9918 31.793H78.9705L79.6731 22.5H98.3374ZM53.0435 37.1033V43.8193H124.889V37.1033H53.0435ZM51.6379 146.355V153.071H126.294V146.355H51.6379ZM53.0435 129.097V135.812H124.889V129.097H53.0435ZM59.6812 115.743V122.38H118.329V115.743H59.6812Z" fill="#1A1F25"/>
<path d="M53.8244 49.1296L57.9634 55.7674H119.969L124.108 49.1296H53.8244ZM53.0435 37.1033V43.8192H124.889V37.1033H53.0435ZM51.6378 146.355V153.071H126.294V146.355H51.6378ZM53.0435 129.097V135.812H124.889V129.097H53.0435ZM59.6813 115.743V122.38H118.329V115.743H59.6813Z" fill="#D83A56"/>
</svg>
