<svg width="256" height="256" viewBox="0 0 256 256" fill="none" xmlns="http://www.w3.org/2000/svg">
<path fill-rule="evenodd" clip-rule="evenodd" d="M62.8402 226.915C62.9219 229.868 65.9675 229 65.9675 229H195.23C177.646 216.481 166.941 215.172 156.66 213.363C181.378 191.095 184.279 153.994 183.763 137.085C183.248 120.176 171.638 87.9723 141.249 60.9161C143.644 55.777 144.289 49.7974 142.74 45.0839C141.19 40.3703 134.801 33.3806 125.387 33.0206C109.625 32.4177 106.07 45.2193 105.58 50.7421C105.09 56.2649 108.097 64.9934 116.005 70.5485C123.912 76.1035 146.485 92.0067 142.066 135.18C137.647 178.353 110.214 191.13 92.0285 202.939C73.8428 214.747 62.6973 221.753 62.8402 226.915ZM104.538 70.5485C107.034 69.7672 93.7373 80.7655 89.9437 95.5671C86.15 110.369 97.7448 127.485 104.538 141.435C111.331 155.384 111.33 173.64 101.411 181.047C91.4913 188.455 69.4431 187.399 60.7553 149.774C58.4254 139.619 62.1675 129.526 62.8402 125.798C71.3968 135.04 77.8212 148.12 81.6041 158.114C85.8953 152.336 82.2994 142.34 79.5192 133.095C76.739 123.85 73.1507 115.803 69.0949 110.161C76.7423 85.4414 102.416 71.2126 104.538 70.5485Z" fill="black" stroke="black" stroke-linejoin="round"/>
</svg>
