<svg width="256" height="256" viewBox="0 0 256 256" fill="none" xmlns="http://www.w3.org/2000/svg">
<path fill-rule="evenodd" clip-rule="evenodd" d="M167.716 193.315C176.683 196.682 176.544 212.725 162.339 223.873C148.519 234.733 140.674 235.812 128.383 235.609C116.091 235.812 108.246 234.733 94.4257 223.873C80.2209 212.725 80.082 196.682 89.0495 193.315C46.0504 192.321 33 161.721 33 135.299C33 108.878 57.2625 83.9953 100.849 90.0662C102.773 76.9089 114.424 65.4831 124.449 65.4831V136.282C124.449 136.282 122.386 152.176 107.85 155.083C93.3142 157.99 92.256 150.509 82.1663 147.099C72.0765 143.689 59.9345 146.768 58.5664 166.765C57.1983 186.763 74.6203 192.973 91.0162 191.349C100.817 190.369 110.672 190.041 120.516 190.365C114.701 193.796 105.766 198.243 105.766 211.998C105.766 225.754 118.164 231.441 128.383 231.665C138.601 231.441 150.999 225.754 150.999 211.998C150.999 198.243 142.064 193.796 136.249 190.365C146.093 190.041 155.948 190.369 165.749 191.349C182.145 192.973 199.567 186.763 198.199 166.765C196.83 146.768 184.689 143.689 174.599 147.099C164.509 150.509 163.451 157.99 148.915 155.083C134.379 152.176 132.316 136.282 132.316 136.282V65.4831C142.342 65.4831 153.992 76.9089 155.916 90.0662C199.503 83.9953 223.765 108.878 223.765 135.299C223.765 161.721 210.715 192.321 167.716 193.315ZM153.949 60.5664H101.833C101.833 60.5664 101.694 52.8067 102.816 51.7165C103.938 50.6263 122.483 50.7332 122.483 50.7332V35H133.299V50.7332C133.299 50.7332 151.843 50.6263 152.966 51.7165C154.088 52.8067 153.949 60.5664 153.949 60.5664V60.5664Z" fill="white" stroke="#555555" stroke-width="4" stroke-linecap="square" stroke-linejoin="round"/>
</svg>
