<svg width="256" height="256" viewBox="0 0 256 256" fill="none" xmlns="http://www.w3.org/2000/svg">
<path fill-rule="evenodd" clip-rule="evenodd" d="M60.6356 229.387H193.896C194.993 206.389 217.182 187.683 217.539 153.085C217.896 118.487 196.947 63.4715 112.22 66.0357C88.4699 54.7418 76.2551 54.4495 66.009 55.2889C70.3923 63.7228 74.3244 72.3837 77.7886 81.2349C80.8429 89.3283 78.8547 98.7877 73.3169 108.406C67.779 118.025 46.5401 146.743 38.3446 171.909C34.7272 182.725 60.7141 194.182 63.8597 194.998C65.7823 195.355 62.1649 196.243 73.7016 183.317C85.2383 170.391 94.6074 165.994 109.993 160.867C120.68 157.306 131.949 152.832 142.311 112.247C143.053 109.99 137.69 106.528 136.938 109.023C131.505 119.297 123.318 127.856 113.295 133.741C107.778 137.173 85.262 141.543 74.6065 156.309C63.951 171.075 63.7522 173.677 62.785 176.728C61.8178 179.779 48.6432 172.214 48.8141 168.13C48.985 164.047 52.7163 153.211 58.4863 147.712C64.2562 142.212 81.1244 131.838 87.5027 119.77C93.8809 107.701 102.21 92.8297 88.5774 70.3344C100.594 70.7234 112.051 79.9937 116.519 82.1559C123.888 85.7206 147.332 89.0736 157.357 99.3508C167.382 109.628 174.528 130.647 151.696 153.373C128.863 176.099 91.666 172.975 60.6356 229.387Z" fill="black" stroke="black" stroke-linejoin="round"/>
</svg>
