<svg width="256" height="256" viewBox="0 0 256 256" fill="none" xmlns="http://www.w3.org/2000/svg">
<path fill-rule="evenodd" clip-rule="evenodd" d="M138.394 113.914C145.765 115.741 149.8 119.733 151.985 129.196C156.129 147.143 160.495 158.037 196.485 228.949C196.21 228.901 60 228.949 60 228.949C70.2804 171.663 108.735 167.216 120.331 159.041C136.773 147.451 138.41 134.033 126.385 133.836C118.509 133.706 112.522 151.651 111.114 146.509C103.342 131.652 107.978 120.717 119.437 115.344C120.679 114.761 121.202 115.037 122.701 114.583C115.164 112.989 108.467 108.7 103.867 102.52C99.2671 96.3392 97.081 88.6926 97.7187 81.0148C98.3564 73.337 101.774 66.1559 107.331 60.819C112.887 55.4822 120.2 52.3566 127.897 52.0287C135.594 51.7008 143.147 54.1932 149.137 59.0382C155.127 63.8832 159.143 70.7477 160.431 78.3434C161.72 85.9392 160.192 93.744 156.134 100.293C152.077 106.842 145.769 111.686 138.394 113.914Z" fill="black" stroke="black" stroke-linejoin="round"/>
</svg>
