<svg width="256" height="256" viewBox="0 0 256 256" fill="none" xmlns="http://www.w3.org/2000/svg">
<path fill-rule="evenodd" clip-rule="evenodd" d="M136.786 116.152C143.947 117.957 150.147 123.198 152.514 133.467C156.996 152.955 139.842 160.831 189.916 236.41C189.618 236.358 67 236.41 67 236.41C73.2366 182.12 107.678 173.046 118.789 162.447C129.901 151.849 133.076 136.321 124.848 138.505C116.621 140.69 109.867 157.844 108.345 152.263C99.9446 136.135 104.955 124.266 117.339 118.431C118.702 117.791 120.11 117.249 121.55 116.808C114.225 115.265 107.715 111.101 103.242 105.099C98.7696 99.0962 96.6412 91.6677 97.2566 84.2073C97.8721 76.7469 101.189 69.7677 106.585 64.5794C111.981 59.3912 119.085 56.3506 126.564 56.0285C134.043 55.7064 141.382 58.1248 147.204 62.8298C153.027 67.5349 156.932 74.2031 158.186 81.5829C159.441 88.9627 157.959 96.5468 154.019 102.912C150.079 109.276 143.951 113.984 136.786 116.152Z" fill="black"/>
</svg>
