<svg width="256" height="256" viewBox="0 0 256 256" fill="none" xmlns="http://www.w3.org/2000/svg">
<path fill-rule="evenodd" clip-rule="evenodd" d="M136.786 116.133C143.947 117.939 150.147 123.176 152.514 133.448C156.991 152.932 139.842 160.81 189.916 236.387C189.618 236.333 67 236.387 67 236.387C73.2366 182.101 107.678 173.027 118.789 162.424C129.901 151.821 133.076 136.302 124.848 138.482C116.621 140.662 109.867 157.817 108.345 152.238C99.9446 136.109 104.955 124.245 117.339 118.409C118.703 117.77 120.11 117.227 121.55 116.785C114.228 115.239 107.723 111.075 103.254 105.073C98.7844 99.0713 96.6593 91.645 97.2769 84.1876C97.8946 76.7303 101.213 69.7547 106.608 64.57C112.004 59.3854 119.106 56.348 126.582 56.0281C134.058 55.7082 141.394 58.1276 147.213 62.8324C153.032 67.5372 156.933 74.2039 158.186 81.5812C159.438 88.9585 157.955 96.5392 154.015 102.901C150.075 109.262 143.949 113.967 136.786 116.133V116.133Z" fill="white" stroke="#555555" stroke-width="4" stroke-linejoin="round"/>
</svg>
