<svg width="256" height="256" viewBox="0 0 256 256" fill="none" xmlns="http://www.w3.org/2000/svg">
<path fill-rule="evenodd" clip-rule="evenodd" d="M227.522 89.7363C227.371 89.7363 225.535 89.7427 225.385 89.7363L167.668 227.616H137.108C169.372 181.139 220.912 96.1728 220.049 95.88C217.926 95.1553 162.858 182.28 161.255 180.587C158.419 177.751 152.552 174.488 144.506 172.585C141.725 171.929 164.261 61.2092 164.461 57.6714C164.488 57.2823 164.472 56.9916 164.126 56.9136C163.93 56.9218 163.744 57.005 163.608 57.146C163.471 57.2871 163.394 57.4751 163.392 57.6714C162.745 60.0346 135.416 171.171 135.416 171.171C135.416 171.171 130.265 170.78 127.991 170.78C125.716 170.78 120.829 171.171 120.829 171.171C120.829 171.171 93.4973 60.0346 92.8496 57.6714C92.8478 57.4751 92.7708 57.2871 92.6343 57.146C92.4978 57.005 92.3125 56.9218 92.1164 56.9136C91.7701 56.9905 91.754 57.2823 91.7807 57.6714C91.9806 61.2092 114.517 171.929 111.736 172.585C103.69 174.488 97.8229 177.751 94.9872 180.587C93.384 182.28 38.3156 95.1553 36.1908 95.88C35.3304 96.1728 86.8706 181.139 119.132 227.616H88.5743L30.8574 89.7363C30.7066 89.7427 28.8715 89.7363 28.7197 89.7363C26.1153 89.7401 23.5988 88.7942 21.6417 87.0758C19.6847 85.3574 18.4212 82.9845 18.088 80.4015C17.7548 77.8185 18.3747 75.2026 19.8316 73.0439C21.2886 70.8851 23.4825 69.3315 26.0026 68.6742C28.5227 68.0169 31.196 68.3008 33.5217 69.4729C35.8475 70.645 37.6662 72.6248 38.6371 75.0414C39.608 77.4581 39.6646 80.1458 38.7962 82.6012C37.9277 85.0566 36.1939 87.1111 33.9195 88.38C32.9266 88.9197 34.0638 89.7363 34.0638 89.7363C66.8171 101.479 90.9813 78.0722 87.5054 53.396C87.4798 53.2133 87.4616 53.0583 87.4381 52.8809C85.0389 52.1116 82.9883 50.5201 81.6477 48.3869C80.3071 46.2537 79.7626 43.7158 80.1102 41.2204C80.4577 38.725 81.675 36.4324 83.5475 34.7467C85.4199 33.061 87.8274 32.0904 90.3454 32.006C92.8635 31.9216 95.3305 32.7288 97.3116 34.2853C99.2928 35.8419 100.661 38.0478 101.175 40.5143C101.689 42.9808 101.315 45.5495 100.121 47.7677C98.9258 49.9859 96.9864 51.7111 94.6442 52.6393C94.859 53.1064 94.9872 53.396 94.9872 53.396C115.452 71.8334 141.78 71.6731 161.255 53.396C161.255 53.396 161.383 53.1064 161.598 52.6393C159.26 51.7114 157.324 49.9879 156.131 47.7726C154.939 45.5572 154.567 42.9922 155.081 40.5294C155.595 38.0667 156.961 35.8642 158.939 34.3102C160.918 32.7562 163.381 31.9504 165.896 32.0346C168.41 32.1189 170.814 33.088 172.684 34.771C174.554 36.454 175.77 38.743 176.117 41.2346C176.465 43.7262 175.922 46.2606 174.584 48.3911C173.246 50.5217 171.199 52.1116 168.804 52.8809C168.78 53.0583 168.762 53.2133 168.737 53.396C165.261 78.0722 189.425 101.479 222.178 89.7363C222.178 89.7363 223.315 88.9197 222.323 88.38C220.055 87.113 218.327 85.0629 217.462 82.6136C216.597 80.1643 216.654 77.4836 217.623 75.0736C218.592 72.6635 220.407 70.6894 222.727 69.5207C225.046 68.3521 227.713 68.069 230.226 68.7247C232.74 69.3803 234.928 70.9296 236.382 73.0825C237.835 75.2354 238.454 77.8442 238.122 80.4206C237.791 82.9969 236.532 85.3641 234.58 87.0789C232.629 88.7936 230.12 89.7384 227.522 89.7363Z" fill="black"/>
</svg>
