<svg width="256" height="256" viewBox="0 0 256 256" fill="none" xmlns="http://www.w3.org/2000/svg">
<path fill-rule="evenodd" clip-rule="evenodd" d="M227.673 90.0519C227.52 90.0519 225.675 90.0583 225.524 90.0519L167.491 228.686H136.762C169.204 181.954 221.026 96.5236 220.158 96.2292C206.083 111.102 185.816 149.114 172.864 164.205C158.558 180.873 143.163 185.661 143.848 180.325C145.245 169.399 146.37 164.43 153.198 141.45C160.038 118.426 163.243 69.7683 162.279 64.814C160.022 85.175 157.838 106.351 148.147 129.815C138.455 153.28 132.959 171.162 127.728 187.848C127.099 190.047 115.654 163.281 112.682 133.039C109.711 102.798 102.251 72.484 93.6752 62.4229C93.327 62.5013 107.692 102.626 106.234 131.964C104.776 161.303 105.43 176.003 110.533 187.848C99.5451 179.496 86.6554 167.935 77.2175 155.607C67.7797 143.28 54.3622 119.068 36.3796 96.5C35.5456 96.8718 86.2513 181.954 118.692 228.686H87.9643L29.9315 90.0519C29.78 90.0583 27.9347 90.0519 27.7821 90.0519C25.1629 90.056 22.6319 89.1051 20.6634 87.3772C18.6949 85.6492 17.424 83.2629 17.0886 80.6652C16.7533 78.0675 17.3765 75.4366 18.8416 73.2654C20.3066 71.0942 22.513 69.5316 25.0475 68.8704C27.5819 68.2092 30.2705 68.4946 32.6095 69.6734C34.9486 70.8521 36.7777 72.8432 37.7542 75.2736C38.7306 77.7041 38.7874 80.4072 37.914 82.8765C37.0406 85.3459 35.2969 87.4121 33.0094 88.6881C32.011 89.2308 33.1555 90.0519 33.1555 90.0519C66.0881 101.858 90.3845 78.3239 86.8897 53.5127C86.8639 53.3289 86.8456 53.1731 86.822 52.9947C84.4098 52.2209 82.3482 50.6204 81.0005 48.4753C79.6529 46.3302 79.1059 43.7783 79.4557 41.2693C79.8055 38.7603 81.0298 36.4553 82.9127 34.7607C84.7957 33.066 87.2164 32.0905 89.7483 32.006C92.2801 31.9215 94.7605 32.7335 96.7523 34.2988C98.744 35.8642 100.119 38.0824 100.636 40.5625C101.152 43.0425 100.776 45.6253 99.5746 47.8554C98.373 50.0856 96.4227 51.82 94.0675 52.7529C94.2835 53.2214 94.4124 53.5127 94.4124 53.5127C114.989 72.0509 141.461 71.8897 161.043 53.5127C161.043 53.5127 161.172 53.2214 161.388 52.7518C159.036 51.8192 157.09 50.0866 155.891 47.8593C154.692 45.632 154.317 43.0529 154.833 40.5766C155.349 38.1003 156.723 35.8856 158.712 34.3228C160.701 32.76 163.178 31.9493 165.706 32.0337C168.234 32.1181 170.651 33.0921 172.532 34.784C174.412 36.4759 175.635 38.7773 175.985 41.2825C176.335 43.7877 175.789 46.3361 174.444 48.4784C173.099 50.6208 171.041 52.2198 168.633 52.9936C168.608 53.172 168.591 53.3278 168.566 53.5116C165.071 78.3228 189.367 101.857 222.3 90.0508C222.3 90.0508 223.443 89.2298 222.445 88.687C220.165 87.4127 218.428 85.351 217.559 82.8881C216.689 80.4252 216.748 77.7299 217.723 75.3069C218.697 72.8839 220.522 70.8993 222.855 69.7247C225.188 68.5501 227.869 68.266 230.396 68.9257C232.923 69.5854 235.123 71.1436 236.584 73.3086C238.045 75.4735 238.667 78.0968 238.333 80.6871C237.999 83.2775 236.732 85.6574 234.77 87.3812C232.808 89.105 230.285 90.0545 227.673 90.0519Z" fill="black" stroke="black" stroke-linejoin="round"/>
</svg>
