<svg width="256" height="256" viewBox="0 0 256 256" fill="none" xmlns="http://www.w3.org/2000/svg">
<path fill-rule="evenodd" clip-rule="evenodd" d="M227.522 97.7363C227.371 97.7363 225.535 97.7427 225.385 97.7363L167.668 235.616H137.108C169.372 189.139 220.912 104.173 220.049 103.88C217.926 103.155 162.858 190.28 161.255 188.587C158.419 185.751 152.552 182.488 144.506 180.585C141.725 179.929 164.261 69.2092 164.461 65.6714C164.488 65.2823 164.472 64.9916 164.126 64.9136C163.93 64.9218 163.744 65.005 163.608 65.146C163.471 65.2871 163.394 65.4751 163.392 65.6714C162.745 68.0346 135.416 179.171 135.416 179.171C135.416 179.171 130.265 178.78 127.991 178.78C125.716 178.78 120.829 179.171 120.829 179.171C120.829 179.171 93.4973 68.0346 92.8496 65.6714C92.8478 65.4751 92.7708 65.2871 92.6343 65.146C92.4978 65.005 92.3125 64.9218 92.1164 64.9136C91.7701 64.9905 91.754 65.2823 91.7807 65.6714C91.9806 69.2092 114.517 179.929 111.736 180.585C103.69 182.488 97.8229 185.751 94.9872 188.587C93.384 190.28 38.3156 103.155 36.1908 103.88C35.3304 104.173 86.8706 189.139 119.132 235.616H88.5743L30.8574 97.7363C30.7066 97.7427 28.8715 97.7363 28.7197 97.7363C26.1153 97.74 23.5988 96.7942 21.6417 95.0758C19.6847 93.3574 18.4212 90.9845 18.088 88.4015C17.7548 85.8185 18.3747 83.2026 19.8316 81.0439C21.2886 78.8851 23.4825 77.3315 26.0026 76.6742C28.5227 76.0169 31.196 76.3008 33.5217 77.4729C35.8475 78.645 37.6662 80.6248 38.6371 83.0414C39.608 85.4581 39.6646 88.1458 38.7962 90.6012C37.9277 93.0566 36.1939 95.1111 33.9195 96.38C32.9266 96.9197 34.0638 97.7363 34.0638 97.7363C66.8171 109.479 90.9813 86.0722 87.5054 61.396C87.4798 61.2133 87.4616 61.0583 87.4381 60.8809C85.0389 60.1116 82.9883 58.5201 81.6477 56.3869C80.3071 54.2537 79.7626 51.7158 80.1102 49.2204C80.4577 46.725 81.675 44.4324 83.5475 42.7467C85.4199 41.061 87.8274 40.0904 90.3454 40.006C92.8635 39.9216 95.3305 40.7288 97.3116 42.2853C99.2928 43.8419 100.661 46.0478 101.175 48.5143C101.689 50.9808 101.315 53.5495 100.121 55.7677C98.9258 57.9859 96.9864 59.7111 94.6442 60.6393C94.859 61.1064 94.9872 61.396 94.9872 61.396C115.452 79.8334 141.78 79.6731 161.255 61.396C161.255 61.396 161.383 61.1064 161.598 60.6393C159.26 59.7114 157.324 57.9879 156.131 55.7726C154.939 53.5572 154.567 50.9922 155.081 48.5294C155.595 46.0667 156.961 43.8642 158.94 42.3102C160.918 40.7562 163.381 39.9504 165.896 40.0346C168.41 40.1189 170.814 41.088 172.684 42.771C174.554 44.454 175.77 46.743 176.117 49.2346C176.465 51.7262 175.922 54.2606 174.584 56.3911C173.246 58.5217 171.199 60.1116 168.804 60.8809C168.78 61.0583 168.762 61.2133 168.737 61.396C165.261 86.0722 189.425 109.479 222.178 97.7363C222.178 97.7363 223.315 96.9197 222.323 96.38C220.055 95.113 218.327 93.0629 217.462 90.6136C216.597 88.1643 216.654 85.4836 217.623 83.0736C218.592 80.6635 220.407 78.6894 222.727 77.5207C225.047 76.3521 227.713 76.069 230.226 76.7247C232.74 77.3803 234.928 78.9296 236.382 81.0825C237.835 83.2354 238.454 85.8442 238.122 88.4206C237.791 90.9969 236.532 93.3641 234.58 95.0789C232.629 96.7936 230.12 97.7384 227.522 97.7363V97.7363Z" fill="black"/>
</svg>
