<svg width="256" height="256" viewBox="0 0 256 256" fill="none" xmlns="http://www.w3.org/2000/svg">
<path fill-rule="evenodd" clip-rule="evenodd" d="M227.527 89.7494C227.375 89.7494 225.54 89.76 225.389 89.7494L167.672 227.629H137.112C169.376 181.156 220.916 96.1837 220.054 95.8951C217.929 95.1683 162.864 182.289 161.257 180.6C158.422 177.768 152.555 174.497 144.509 172.594C141.73 171.943 164.264 61.2222 164.464 57.6844C164.491 57.2996 164.475 57.0004 164.128 56.9256C163.932 56.9348 163.747 57.0185 163.611 57.1595C163.475 57.3006 163.397 57.4883 163.395 57.6844C162.747 60.0465 135.418 171.184 135.418 171.184C135.418 171.184 130.268 170.799 127.993 170.799C125.719 170.799 120.832 171.184 120.832 171.184C120.832 171.184 93.5019 60.0465 92.8542 57.6844C92.8517 57.4883 92.7744 57.3006 92.6381 57.1595C92.5019 57.0185 92.3169 56.9348 92.121 56.9256C91.7747 57.0004 91.7587 57.2996 91.7854 57.6844C91.9852 61.2222 114.522 171.943 111.74 172.594C103.694 174.497 97.8275 177.768 94.9919 180.6C93.3886 182.289 38.3203 95.1683 36.1954 95.8951C35.335 96.1837 86.8752 181.156 119.137 227.629H88.5789L30.862 89.7494C30.7113 89.76 28.8761 89.7494 28.7243 89.7494C26.1193 89.7537 23.6022 88.8081 21.6443 87.0898C19.6864 85.3715 18.4221 82.9984 18.0883 80.415C17.7545 77.8315 18.374 75.2149 19.8308 73.0554C21.2876 70.8959 23.4817 69.3415 26.0022 68.6835C28.5227 68.0255 31.1966 68.309 33.5231 69.481C35.8496 70.6529 37.6689 72.6328 38.6405 75.0498C39.612 77.4668 39.6691 80.1552 38.8009 82.6112C37.9327 85.0672 36.1988 87.1224 33.9242 88.3919C32.9312 88.937 34.0685 89.7494 34.0685 89.7494C66.8217 101.496 90.9859 78.0884 87.51 53.4091C87.4844 53.2274 87.4662 53.0671 87.4427 52.8961C85.0413 52.1282 82.9881 50.5373 81.645 48.4036C80.302 46.27 79.7552 43.7307 80.1012 41.2334C80.4473 38.7361 81.6639 36.4411 83.5365 34.7531C85.4091 33.065 87.8176 32.0922 90.3373 32.0062C92.857 31.9203 95.3261 32.7267 97.3095 34.2832C99.2928 35.8397 100.663 38.0464 101.178 40.5143C101.694 42.9823 101.321 45.5529 100.127 47.7731C98.9323 49.9933 96.9923 51.7205 94.6488 52.6503C94.8626 53.1205 94.9919 53.4091 94.9919 53.4091C115.457 71.8464 141.784 71.6861 161.259 53.4091C161.259 53.4091 161.388 53.1205 161.603 52.6503C159.267 51.7211 157.334 49.9974 156.144 47.7828C154.955 45.5683 154.585 43.005 155.1 40.5446C155.615 38.0842 156.982 35.8844 158.96 34.3329C160.938 32.7815 163.4 31.9778 165.912 32.0635C168.424 32.1492 170.826 33.1188 172.693 34.8015C174.561 36.4841 175.775 38.7719 176.121 41.2617C176.467 43.7515 175.923 46.2837 174.586 48.412C173.248 50.5403 171.202 52.1282 168.809 52.8961C168.785 53.0671 168.767 53.2274 168.741 53.4091C165.265 78.0884 189.43 101.496 222.183 89.7494C222.183 89.7494 223.32 88.937 222.327 88.3919C220.06 87.1246 218.333 85.0744 217.468 82.6252C216.604 80.1759 216.662 77.4955 217.631 75.0859C218.601 72.6764 220.416 70.7029 222.735 69.5348C225.055 68.3668 227.721 68.0842 230.234 68.7403C232.747 69.3963 234.935 70.9459 236.388 73.0988C237.841 75.2517 238.459 77.8604 238.127 80.4364C237.795 83.0123 236.536 85.3791 234.585 87.0933C232.633 88.8076 230.124 89.7519 227.527 89.7494Z" fill="white" stroke="#555555" stroke-width="4" stroke-linecap="square" stroke-linejoin="round"/>
</svg>
