<svg width="256" height="256" viewBox="0 0 256 256" fill="none" xmlns="http://www.w3.org/2000/svg">
<path fill-rule="evenodd" clip-rule="evenodd" d="M127.212 40.0002C136.029 39.9844 144.829 40.783 153.499 42.386C154.51 42.5794 155.288 69.6076 155.288 69.6076L165.497 70.6287C165.497 70.6287 164.492 44.9438 166.405 45.5241C192.598 53.4338 210.419 69.0273 210.419 86.9638C210.231 87.4796 211.115 153.411 211.115 153.411C210.844 157.624 196.414 166.899 172.801 162.815C189.996 147.673 188.371 137.173 189.996 85.9429L184.891 83.901C184.891 83.901 182.527 115.153 181.828 114.529C174.388 107.856 153.59 103.568 131.64 103.127C131.469 103.116 130.781 65.5239 130.781 65.5239H124.655C124.655 65.5239 122.645 102.912 122.652 103.17C103.043 103.74 83.832 107.512 73.6075 115.55L69.5237 82.8801L64.419 86.9638L68.5028 138.011C113.658 110.994 176.07 160.698 184.755 229.413C185.013 229.424 70.5446 228.876 70.5446 228.876V164.556C59.5829 164.556 44 158.57 44 151.283V86.9638C44 68.8769 62.103 53.1866 88.638 45.3414C89.9921 44.933 89.9427 70.6287 89.9427 70.6287L100.152 68.5868C100.152 68.5868 100.239 42.5043 102.067 42.1819C110.368 40.7158 118.782 39.9857 127.212 40.0002Z" fill="#FAFAFA" stroke="#282828" stroke-width="5.37341" stroke-linecap="square" stroke-linejoin="round"/>
</svg>
