<svg width="180" height="180" viewBox="0 0 180 180" fill="none" xmlns="http://www.w3.org/2000/svg">
<path d="M60.39 131.532C60.1948 133.873 59.8775 134.678 59.4388 133.946C58.9995 133.215 58.8043 134.141 58.8532 136.726C69.3894 133.653 79.7068 132.312 89.8037 132.702C99.95 133.044 109.876 134.678 119.584 137.604C119.681 135.995 119.706 135.117 119.657 134.97C119.608 134.776 119.535 133.775 119.438 131.97C111.974 130.019 103.023 128.824 92.5847 128.385C82.1458 127.946 71.4139 128.995 60.39 131.532ZM87.4625 45.8501C88.2917 45.6062 89.1939 46.4599 90.1698 48.411C91.1942 50.3622 91.7066 51.9963 91.7066 53.3134C91.7066 54.6304 91.1942 58.8009 90.1698 65.8254C89.1939 72.8494 88.4137 76.2396 87.8282 75.996C87.2432 75.7519 86.3893 71.9961 85.2677 64.728C84.1455 57.4594 83.5847 53.3621 83.5847 52.4354C83.5847 51.5085 83.9992 50.2647 84.8284 48.7037C85.7064 47.094 86.5845 46.1428 87.4625 45.8501ZM123.096 60.7033C129.486 61.5814 133.266 64.4349 134.437 69.2646C135.657 74.0447 136.267 77.7763 136.267 80.4594C136.364 82.5081 134.608 86.7516 130.998 93.1905C127.389 99.6294 122.681 106.117 116.877 112.654C113.56 113.044 110.072 113.02 106.413 112.58C102.804 112.142 99.3161 111.751 95.9501 111.41C96.3405 104.239 97.3406 97.7029 98.9499 91.8006C100.609 85.8493 102.292 80.2643 103.999 75.0448C105.706 72.1181 107.755 68.7763 110.145 65.0205C112.584 61.2641 116.901 59.8253 123.096 60.7033ZM57.3165 61.5814C59.3657 61.5814 62.1461 62.6788 65.6578 64.8743C69.17 67.0202 71.4628 70.1179 72.536 74.1667C73.8045 78.7033 75.4138 85.3374 77.3651 94.0686C79.3654 102.751 80.0966 108.751 79.56 112.069C76.5849 112.312 73.463 112.727 70.1944 113.312C66.9262 113.898 64.0485 113.434 61.5605 111.922C55.1216 106.654 50.6095 100.995 48.0242 94.9466C45.4389 88.8981 44.1462 83.313 44.1462 78.1909C44.1462 74.142 45.8048 70.362 49.1218 66.8498C52.4388 63.3375 55.1704 61.5814 57.3165 61.5814ZM84.2428 16.875H92.1453V24.5578H100.633V30.1919H92.1453V37.3624C94.6817 37.3624 96.7792 37.7527 98.438 38.5332C100.145 39.3136 101.121 41.8258 101.365 46.0696C100.925 48.85 100.633 50.8744 100.487 52.1427C100.389 53.3621 99.8527 55.0207 98.8768 57.1179C101.852 53.7524 105.999 51.2646 111.316 49.6549C116.682 48.0452 122.071 47.7769 127.486 48.85C132.95 49.9232 137.876 52.5817 142.266 56.8254C146.706 61.0206 149.486 67.2154 150.608 75.4104C148.51 89.4105 144.559 99.4832 138.754 105.63C132.998 111.727 129.218 116.898 127.413 121.142C127.364 125.483 127.584 131.629 128.072 139.58C128.608 147.482 129.413 154.824 130.486 161.604C116.828 164.092 102.267 165.189 86.8039 164.897C71.3407 164.604 58.6339 163.824 48.6827 162.555C49.9998 154.848 50.6827 147.336 50.7315 140.019C50.7802 132.653 50.9997 126.409 51.39 121.288C50.4631 119.678 48.634 117.532 45.9023 114.849C43.2194 112.117 40.4877 108.8 37.7073 104.898C34.9268 100.995 32.5367 96.4592 30.5367 91.2881C28.5367 86.0687 27.7807 80.1664 28.2685 73.5812C29.3904 66.996 31.9025 61.7524 35.8049 57.8497C39.7073 53.8987 44.0487 51.2403 48.829 49.8744C53.6583 48.5086 58.4876 48.3866 63.3167 49.5086C68.1457 50.6305 72.0967 52.9231 75.1702 56.3867C74.2922 54.5816 73.7555 52.8987 73.5604 51.3378C73.4141 49.7281 73.0479 48.0451 72.4629 46.2891C73.1947 42.4355 74.804 39.9721 77.292 38.899C79.8283 37.8258 82.1458 37.2405 84.2428 37.1429V30.1919H75.7552V24.5578H84.2428V16.875ZM61.4874 57.5572C55.0485 55.9963 49.8046 57.411 45.7559 61.8008C41.7072 66.1427 39.1707 71.7519 38.1463 78.6302C38.7317 90.0444 41.8536 98.4831 47.512 103.947C53.1705 109.41 57.4144 113.703 60.2437 116.825C63.9022 116.678 67.5602 116.702 71.2187 116.898C74.9261 117.093 78.8771 116.776 83.0722 115.946C83.6578 108.239 83.1454 100.922 81.536 93.9954C79.9751 87.0199 78.0722 80.0932 75.8284 73.2156C74.219 68.7279 72.4382 65.4351 70.4874 63.3375C68.585 61.2399 65.5847 59.3134 61.4874 57.5572ZM122.071 56.6061C117.096 56.6061 113.072 57.5814 109.999 59.5328C106.975 61.4841 103.584 66.2642 99.828 73.8742C96.9502 81.9714 94.8527 88.7276 93.5358 94.1417C92.2674 99.5563 91.9012 106.703 92.4378 115.581C98.1939 115.581 103.877 116.044 109.487 116.971C115.145 117.849 118.34 117.8 119.072 116.825C124.096 110.63 128.535 104.825 132.388 99.4101C136.242 93.9471 139.218 87.7764 141.315 80.8982C141.754 77.4349 140.608 72.5327 137.876 66.1911C135.193 59.8011 129.925 56.6061 122.071 56.6061ZM87.8282 43.216C84.4627 43.655 82.0721 45.6062 80.658 49.0696C80.4139 51.7524 80.9994 57.0937 82.4135 65.0936C83.8772 73.0446 85.8285 79.8007 88.2675 85.3616C90.0236 80.6788 91.6087 74.1668 93.0234 65.8254C94.4381 57.4841 94.8527 52.1914 94.2671 49.9476C94.2671 48.6305 93.7305 47.2403 92.6578 45.7769C91.6329 44.3135 90.0236 43.4599 87.8282 43.216ZM56.8777 146.019C56.8777 146.604 56.8046 147.36 56.6584 148.287C56.5121 149.165 56.4384 149.897 56.4384 150.482C68.585 147.507 80.1214 146.092 91.0479 146.239C101.974 146.385 111.95 147.653 120.974 150.044C121.169 150.433 121.291 149.995 121.34 148.726C121.389 147.458 121.413 146.555 121.413 146.019C112.389 143.629 102.243 142.336 90.9748 142.141C79.7552 141.946 68.3899 143.238 56.8777 146.019Z" fill="#382933"/>
<path d="M60.39 131.532C60.1948 133.873 59.8775 134.678 59.4388 133.946C58.9995 133.215 58.8043 134.141 58.8532 136.726C69.3894 133.653 79.7062 132.312 89.8037 132.702C99.95 133.044 109.876 134.678 119.584 137.604C119.681 135.995 119.706 135.117 119.657 134.97C119.608 134.776 119.535 133.775 119.437 131.97C111.974 130.019 103.023 128.824 92.5841 128.385C82.1452 127.946 71.4138 128.995 60.39 131.532ZM87.4625 45.8501C88.2917 45.6062 89.1939 46.4598 90.1698 48.411C91.1941 50.3622 91.706 51.9963 91.706 53.3134C91.706 54.6304 91.1941 58.8009 90.1698 65.8254C89.1939 72.8494 88.4137 76.2395 87.8282 75.996C87.2432 75.7519 86.3893 71.996 85.2671 64.728C84.1455 57.4594 83.5847 53.3622 83.5847 52.4353C83.5847 51.5085 83.9992 50.2646 84.8283 48.7037C85.7064 47.094 86.5845 46.1428 87.4625 45.8501ZM123.096 60.7033C129.486 61.5814 133.266 64.4349 134.437 69.2645C135.656 74.0447 136.266 77.7763 136.266 80.4594C136.364 82.508 134.608 86.7515 130.998 93.1905C127.389 99.6294 122.681 106.117 116.877 112.654C113.56 113.044 110.072 113.02 106.413 112.58C102.804 112.142 99.3161 111.751 95.9501 111.41C96.3405 104.239 97.34 97.7029 98.9499 91.8005C100.609 85.8493 102.291 80.2642 103.999 75.0448C105.706 72.1181 107.755 68.7763 110.145 65.0205C112.584 61.2647 116.901 59.8252 123.096 60.7033ZM57.3165 61.5814C59.3651 61.5814 62.1455 62.6788 65.6578 64.8742C69.17 67.0202 71.4628 70.1179 72.536 74.1667C73.8039 78.7033 75.4138 85.3374 77.3651 94.0685C79.3648 102.751 80.0966 108.751 79.56 112.069C76.5843 112.312 73.4625 112.727 70.1943 113.312C66.9262 113.898 64.0485 113.434 61.5605 111.922C55.1215 106.654 50.6094 100.995 48.0241 94.9466C45.4388 88.898 44.1461 83.313 44.1461 78.1909C44.1461 74.142 45.8046 70.362 49.1216 66.8497C52.4386 63.3375 55.1703 61.5814 57.3165 61.5814ZM61.4874 57.5572C55.0484 55.9962 49.8046 57.411 45.7559 61.8013C41.7071 66.1427 39.1706 71.7519 38.1462 78.6302C38.7316 90.0444 41.8535 98.483 47.5119 103.947C53.1703 109.41 57.4143 113.703 60.2432 116.824C63.9017 116.678 67.5602 116.702 71.2187 116.898C74.9261 117.093 78.8771 116.776 83.0722 115.946C83.6578 108.239 83.1453 100.922 81.5355 93.9954C79.9745 87.0199 78.0722 80.0932 75.8283 73.2155C74.2185 68.7279 72.4382 65.435 70.4868 63.3375C68.5845 61.2399 65.5847 59.3134 61.4874 57.5572ZM122.071 56.606C117.096 56.606 113.071 57.5814 109.999 59.5327C106.974 61.484 103.584 66.2642 99.828 73.8742C96.9502 81.9714 94.8527 88.7276 93.5353 94.1417C92.2674 99.5563 91.9012 106.703 92.4378 115.581C98.1939 115.581 103.877 116.044 109.487 116.971C115.145 117.849 118.34 117.8 119.072 116.824C124.096 110.63 128.535 104.825 132.388 99.41C136.242 93.947 139.218 87.7764 141.315 80.8982C141.754 77.4349 140.608 72.5327 137.876 66.191C135.193 59.801 129.925 56.606 122.071 56.606ZM87.8282 43.216C84.4627 43.655 82.0721 45.6062 80.6574 49.0696C80.4138 51.7524 80.9988 57.0937 82.4135 65.0936C83.8772 73.0445 85.8285 79.8007 88.2675 85.3616C90.0236 80.6788 91.6087 74.1667 93.0234 65.8254C94.4381 57.4841 94.8527 52.1914 94.2671 49.9476C94.2671 48.6305 93.7305 47.2403 92.6572 45.7769C91.6329 44.3135 90.0236 43.4599 87.8282 43.216ZM56.8777 146.019C56.8777 146.604 56.8046 147.36 56.6583 148.287C56.5115 149.165 56.4384 149.897 56.4384 150.482C68.5845 147.507 80.1213 146.092 91.0479 146.239C101.974 146.385 111.95 147.653 120.974 150.043C121.169 150.433 121.291 149.995 121.34 148.726C121.389 147.458 121.413 146.555 121.413 146.019C112.389 143.629 102.243 142.336 90.9748 142.141C79.7552 141.946 68.3898 143.238 56.8777 146.019Z" fill="#519872"/>
</svg>
