<svg width="180" height="180" viewBox="0 0 180 180" fill="none" xmlns="http://www.w3.org/2000/svg">
<path d="M92.5689 28.125C96.1791 28.125 99.3982 29.5152 102.228 32.2957C105.057 35.0761 106.471 38.4175 106.471 42.3199C106.471 48.2222 103.935 52.2953 98.8616 54.5392C104.862 55.7099 109.667 58.7098 113.276 63.5389C116.935 68.3679 118.764 73.7826 118.764 79.7828C118.764 87.7337 115.447 94.2216 108.813 99.2458C112.179 100.563 115.813 102.075 119.715 103.782C123.666 105.441 127.422 108.343 130.983 112.489C134.544 116.587 137.666 122.441 140.349 130.05C143.032 137.611 144.836 147.952 145.763 161.074C143.08 161.22 136.178 161.294 125.056 161.294C113.983 161.294 102.228 161.269 89.7885 161.22C77.3499 161.122 66.033 161.074 55.8381 161.074C45.6432 161.025 40.1555 161.025 39.375 161.074C40.1555 139.757 44.57 124.709 52.6187 115.928C60.6673 107.099 68.2526 101.392 75.3744 98.8065C69.0818 93.8801 65.9357 87.5385 65.9357 79.7828C65.9357 73.7826 67.9112 68.2948 71.8622 63.3195C75.8132 58.2952 80.8622 55.2221 87.0081 54.1002C81.7402 51.6612 79.1061 47.7345 79.1061 42.3199C79.1061 38.4176 80.4229 35.0761 83.0571 32.2957C85.7402 29.5153 88.9104 28.1251 92.5689 28.1251V28.125ZM93.0814 33.4664C89.9106 34.9298 87.7157 36.0517 86.4962 36.8322C85.2767 37.5639 84.6669 39.7345 84.6669 43.3442C84.6669 46.0271 85.545 48.3442 87.3011 50.2953C89.0572 52.1978 91.0327 53.6367 93.2276 54.6123C87.5205 55.6367 82.7887 58.5394 79.0329 63.3195C75.2766 68.0512 73.3989 73.1976 73.3989 78.7584C73.3989 82.3191 75.2524 86.3921 78.9598 90.9776C82.7156 95.5142 85.9354 98.8312 88.6179 100.929C85.3009 102.148 81.5451 103.709 77.3499 105.612C73.2037 107.465 69.2527 110.294 65.4964 114.099C61.7406 117.855 58.4966 122.855 55.765 129.099C53.0821 135.294 51.5699 143.318 51.2284 153.172C51.9601 153.123 56.3017 153.123 64.2527 153.172C72.2526 153.22 81.1305 153.269 90.8865 153.318C100.642 153.367 109.91 153.391 118.691 153.391C127.52 153.391 133.178 153.318 135.666 153.172C134.788 141.025 132.861 131.708 129.886 125.221C126.959 118.684 123.569 113.831 119.715 110.66C115.91 107.489 111.959 105.392 107.862 104.367C103.764 103.343 100.154 102.197 97.0324 100.929C99.8128 98.8312 102.984 95.5384 106.545 91.0508C110.154 86.5142 111.959 82.4169 111.959 78.7584C111.959 73.2459 110.203 68.1244 106.691 63.3926C103.228 58.6609 98.7154 55.7342 93.1545 54.6123C98.1298 52.466 100.618 48.71 100.618 43.3442C100.618 39.7345 100.227 37.4419 99.4472 36.4663C98.7154 35.4907 96.5936 34.4907 93.0814 33.4663V33.4664Z" fill="#382933"/>
<path d="M93.0814 33.4663C89.9106 34.9297 87.7152 36.0516 86.4957 36.8321C85.2762 37.5638 84.6664 39.7345 84.6664 43.3442C84.6664 46.0271 85.5445 48.3441 87.3006 50.2953C89.0567 52.1977 91.0322 53.6367 93.2277 54.6123C87.5205 55.6366 82.7888 58.5388 79.0324 63.3195C75.2766 68.0512 73.3984 73.1976 73.3984 78.7584C73.3984 82.3191 75.2524 86.3921 78.9593 90.9776C82.7157 95.5142 85.9349 98.8313 88.618 100.929C85.3009 102.148 81.5445 103.709 77.35 105.612C73.2032 107.465 69.2522 110.294 65.4964 114.099C61.74 117.855 58.4967 122.855 55.7648 129.099C53.0819 135.294 51.5697 143.318 51.2283 153.172C51.96 153.123 56.3012 153.123 64.2522 153.172C72.252 153.22 81.13 153.269 90.886 153.318C100.642 153.367 109.91 153.391 118.69 153.391C127.519 153.391 133.178 153.318 135.666 153.172C134.788 141.025 132.861 131.708 129.885 125.221C126.959 118.684 123.568 113.831 119.715 110.66C115.91 107.489 111.959 105.392 107.862 104.367C103.764 103.343 100.154 102.197 97.0324 100.928C99.8129 98.8313 102.984 95.5384 106.544 91.0508C110.154 86.5142 111.959 82.4164 111.959 78.7579C111.959 73.2459 110.203 68.1244 106.691 63.3926C103.227 58.6609 98.7154 55.7342 93.1546 54.6122C98.1299 52.466 100.618 48.7099 100.618 43.3442C100.618 39.7344 100.227 37.4418 99.4467 36.4663C98.7154 35.4907 96.5931 34.4907 93.0814 33.4663Z" fill="#E3FFC8"/>
</svg>
