<svg width="256" height="256" viewBox="0 0 256 256" fill="none" xmlns="http://www.w3.org/2000/svg">
<path d="M66.9723 157.47C68.0425 155.478 70.5316 154.751 72.4999 155.787C74.4846 156.849 75.2432 159.322 74.1825 161.315C72.4603 164.539 68.573 172.835 67.1037 179.449C81.0976 177.743 85.7518 168.63 89.1565 161.74C90.6259 158.777 92.0146 155.976 93.8681 154.114C99.1183 148.864 102.49 147.549 113.945 147.239C93.8436 168.427 82.3139 183.938 77.4973 196.137H186.587L183.926 182.827C181.77 172.042 186.702 161.346 195.92 156.823C197.969 155.82 199.749 155.306 201.202 155.306C202.852 155.306 204.346 154.309 204.974 152.783C205.603 151.256 205.252 149.501 204.093 148.333C199.79 144.029 197.127 118.931 197.127 98.1519C197.127 81.6677 169.464 41 127.728 41C99.2005 41 85.0348 49.3774 76.5774 54.3815C74.1279 55.8276 71.5966 57.3298 70.577 57.3298C68.323 57.3298 66.4942 59.1587 66.4942 61.4113C66.4942 67.96 71.0662 74.7354 73.8095 78.2223C67.0162 90.5432 42 136.872 42 151.222C42 164.947 44.2786 177.578 58.7782 179.423C60.4116 170.026 66.2167 158.889 66.9753 157.469L66.9723 157.47ZM119.561 73.6579C127.873 73.6579 140.291 77.9853 147.925 90.1834C155.649 102.521 160.474 126.27 139.572 169.331C138.863 170.785 137.409 171.634 135.898 171.634C135.302 171.634 134.69 171.503 134.11 171.225C132.086 170.237 131.236 167.804 132.224 165.772C151.501 126.067 147.648 105.107 141.009 94.5181C135.148 85.1537 125.798 81.8228 119.569 81.8228C117.315 81.8228 115.486 79.9939 115.486 77.74C115.486 75.486 117.307 73.6572 119.561 73.6572V73.6579ZM84.0132 99.3438L88.0961 95.261C89.6885 93.6686 92.2758 93.6686 93.8683 95.261C95.4607 96.8534 95.4607 99.4408 93.8683 101.033L89.7855 105.116C88.9858 105.917 87.9402 106.309 86.8945 106.309C85.8489 106.309 84.8046 105.909 84.0036 105.117C82.4208 103.525 82.4208 100.944 84.0132 99.3438H84.0132ZM188.292 204.637L188.226 204.294H75.1297C75.1133 204.417 75.0641 204.547 75.0477 204.67C61.0454 206.506 50.1613 218.378 50.1613 232.87C50.1613 235.124 51.9902 236.953 54.2441 236.953H209.373C211.627 236.953 213.455 235.124 213.455 232.87C213.455 218.288 202.425 206.351 188.292 204.637L188.292 204.637Z" fill="#2E2121"/>
</svg>
