<svg width="256" height="256" viewBox="0 0 256 256" fill="none" xmlns="http://www.w3.org/2000/svg">
<path d="M79.331 146.282H177.134C178.713 146.282 180.12 145.296 180.669 143.807C181.219 142.317 180.768 140.662 179.564 139.64C171.702 133.011 159.318 128.37 147.295 125.864C158.341 119.311 165.85 107.379 165.85 93.618C165.85 72.8767 148.975 56 128.232 56C107.49 56 90.6136 72.8747 90.6136 93.618C90.6136 107.378 98.1214 119.311 109.173 125.871C97.1515 128.376 84.7605 133.018 76.9045 139.646C75.7004 140.661 75.2495 142.325 75.7986 143.814C76.349 145.302 77.7483 146.281 79.3276 146.281L79.331 146.282ZM75.7049 199.329L77.0211 199.164C77.7818 199.058 78.5489 198.944 79.331 198.944H177.134C177.916 198.944 178.684 199.058 179.451 199.162L180.768 199.327C180.91 199.342 181.046 199.35 181.182 199.35H181.265C183.484 199.522 185.094 197.687 185.094 195.588C185.094 194.505 184.643 193.534 183.92 192.85C181.114 188.546 176.727 185.59 171.8 184.454C162.96 175.268 159.943 163.095 158.913 153.804H97.567C96.5368 163.103 93.5189 175.298 84.6572 184.484C79.429 185.703 74.8018 188.952 72.0408 193.7C71.3267 194.926 71.3632 196.453 72.1466 197.642C72.9049 198.832 74.2135 199.486 75.7034 199.328L75.7049 199.329ZM177.135 206.469H79.3323C64.8116 206.469 53 218.28 53 232.8C53 234.877 54.6852 236.562 56.7608 236.562H199.704C201.781 236.562 203.466 234.877 203.466 232.8C203.466 218.28 191.655 206.469 177.135 206.469Z" fill="#2E2121"/>
</svg>
