<svg width="256" height="256" viewBox="0 0 256 256" fill="none" xmlns="http://www.w3.org/2000/svg">
<path d="M146.019 123.714C145.132 124.241 144.659 125.258 144.829 126.275C144.998 127.292 145.775 128.101 146.785 128.312C158.634 130.781 170.545 135.308 177.948 141.547C178.364 141.903 178.503 142.455 178.324 142.942C178.134 143.457 177.657 143.782 177.134 143.782H79.4028C79.3777 143.781 79.3527 143.781 79.3276 143.781C78.8025 143.781 78.3341 143.462 78.1438 142.948C77.9629 142.456 78.1096 141.9 78.5159 141.557L78.5165 141.557C85.9126 135.317 97.8337 130.787 109.683 128.318C110.693 128.108 111.47 127.299 111.639 126.282C111.809 125.264 111.336 124.247 110.449 123.721C100.105 117.581 93.1136 106.437 93.1136 93.618C93.1136 74.2555 108.871 58.5 128.232 58.5C147.594 58.5 163.35 74.2573 163.35 93.618C163.35 106.438 156.357 117.581 146.019 123.714ZM181.459 196.857C181.394 196.852 181.33 196.85 181.265 196.85H181.182C181.145 196.85 181.103 196.848 181.05 196.843L179.789 196.685C179.785 196.685 179.781 196.684 179.776 196.683C179.722 196.676 179.666 196.668 179.609 196.66C178.92 196.566 178.041 196.444 177.134 196.444H79.331C78.4106 196.444 77.5229 196.569 76.8308 196.666C76.7839 196.672 76.738 196.679 76.693 196.685C76.6876 196.686 76.6821 196.687 76.6767 196.687L75.4406 196.842C75.4378 196.843 75.4349 196.843 75.432 196.843C74.8867 196.898 74.5007 196.684 74.2551 196.299L74.2343 196.267C73.9767 195.876 73.9615 195.369 74.2014 194.957L74.2019 194.956C76.5975 190.838 80.6294 187.99 85.225 186.919C85.6942 186.809 86.1219 186.566 86.4564 186.22C95.1643 177.194 98.487 165.535 99.7739 156.304H156.706C157.993 165.527 161.313 177.163 169.999 186.187C170.335 186.537 170.766 186.781 171.238 186.89C175.561 187.887 179.387 190.475 181.826 194.215C181.933 194.38 182.059 194.531 182.202 194.666C182.443 194.893 182.594 195.214 182.594 195.588C182.594 196.007 182.432 196.36 182.219 196.579C182.029 196.774 181.788 196.883 181.459 196.857ZM79.3323 208.969H177.135C190.274 208.969 200.966 219.661 200.966 232.8C200.966 233.496 200.4 234.062 199.704 234.062H56.7608C56.0665 234.062 55.5 233.496 55.5 232.8C55.5 219.661 66.1922 208.969 79.3323 208.969Z" fill="#FFF0F0" stroke="#2E2121" stroke-width="5" stroke-linejoin="round"/>
</svg>
