<svg width="256" height="256" viewBox="0 0 256 256" fill="none" xmlns="http://www.w3.org/2000/svg">
<path d="M74.8752 196.048H181.015C189.712 196.048 197.606 199.209 203.909 204.278L225.767 127.766C226.256 126.052 225.571 124.215 224.077 123.235C222.575 122.246 220.623 122.353 219.244 123.496C219.236 123.504 207.813 132.893 198.93 139.744C197.999 140.463 197.419 141.548 197.345 142.715C197.272 143.891 197.705 145.033 198.537 145.867C199.043 146.381 199.86 148.267 199.664 152.145C199.444 156.676 198.03 160.833 196.945 162.734C195.361 160.612 193.263 154.529 193.263 147.066C193.263 138.559 196.676 132.974 196.7 132.941C197.288 132.027 197.59 130.973 197.354 129.912C197.117 128.85 196.562 127.993 195.64 127.413C195.615 127.397 193.272 125.373 193.272 118.489C193.272 110.921 199.877 105.377 199.926 105.328C200.824 104.601 201.371 103.523 201.429 102.373C201.486 101.213 201.053 100.094 200.237 99.278L183.907 82.9481C182.314 81.3557 179.727 81.3557 178.135 82.9481L161.805 99.278C160.956 100.13 160.524 101.305 160.621 102.497C160.719 103.689 161.332 104.784 162.31 105.485C164.335 106.938 168.777 111.208 168.777 114.417C168.777 117.797 164.54 124.484 161.535 128.158C160.473 129.457 160.319 131.294 161.143 132.755C161.176 132.821 164.694 139.156 164.694 147.068C164.694 151.697 160.187 161.168 156.08 168.426C152.806 163.667 148.364 155.657 148.364 147.068C148.364 132.942 152.063 124.304 152.104 124.223C152.529 123.243 152.562 122.125 152.186 121.12C149.991 115.356 144.292 98.5127 144.292 89.9149C144.292 80.4357 151.363 72.2879 151.437 72.206C152.768 70.6956 152.801 68.4335 151.519 66.8904L131.108 42.3962C129.556 40.5346 126.388 40.5346 124.83 42.3962L104.418 66.8904C103.128 68.4418 103.161 70.7122 104.509 72.2144C104.582 72.2964 111.645 80.5018 111.645 89.9153C111.645 100.26 103.824 120.917 103.75 121.121C103.374 122.117 103.407 123.235 103.832 124.215C103.865 124.297 107.572 132.936 107.572 147.06C107.572 155.6 103.131 163.634 99.8482 168.402C95.7489 161.144 91.2423 151.698 91.2423 147.06C91.2423 139.148 94.7621 132.805 94.7933 132.747C95.6175 131.278 95.463 129.449 94.401 128.143C91.3925 124.485 87.1553 117.798 87.1553 114.401C87.1553 111.2 91.5156 106.996 93.6301 105.461C94.5937 104.759 95.2061 103.665 95.3045 102.473C95.3947 101.281 94.9697 100.105 94.1208 99.2632L77.7909 82.9333C76.1985 81.3409 73.6112 81.3409 72.0187 82.9333L55.6888 99.2632C54.8728 100.079 54.4477 101.199 54.5051 102.35C54.5625 103.502 55.101 104.571 55.9909 105.306C56.0565 105.364 62.661 110.916 62.661 118.476C62.661 125.171 60.448 127.269 60.489 127.269C59.5664 127.849 58.9131 128.771 58.6766 129.825C58.4401 130.887 58.6356 132.005 59.2233 132.92C59.2561 132.969 62.661 138.529 62.661 147.045C62.661 154.752 60.4234 160.99 59.0687 162.868C57.9671 161.031 56.4881 156.777 56.2598 152.123C56.0726 148.253 56.8804 146.359 57.3862 145.845C58.2186 145.012 58.6519 143.868 58.578 142.693C58.5042 141.526 57.9247 140.439 56.9939 139.721C48.1189 132.871 36.6959 123.482 36.6795 123.473C35.3003 122.331 33.3484 122.232 31.8464 123.212C30.3524 124.192 29.6663 126.029 30.157 127.743L52.0145 204.256C58.2857 199.21 66.1805 196.049 74.8753 196.049L74.8752 196.048ZM192.465 206.639C192.399 206.614 192.342 206.565 192.286 206.541C190.783 205.895 189.199 205.422 187.574 205.038C187.321 204.981 187.093 204.859 186.839 204.81C184.96 204.418 183.017 204.206 181.025 204.206H74.8852C72.8937 204.206 70.95 204.418 69.072 204.81C68.8192 204.868 68.5909 204.981 68.3366 205.038C66.7196 205.422 65.1273 205.895 63.625 206.541C63.5594 206.565 63.502 206.614 63.446 206.639C60.0575 208.133 57.012 210.256 54.4563 212.877C49.4356 218.029 46.3179 225.043 46.3179 232.79C46.3179 235.044 48.1468 236.872 50.4007 236.872H205.529C207.783 236.872 209.612 235.044 209.612 232.79C209.596 225.049 206.477 218.036 201.456 212.876C198.898 210.256 195.861 208.133 192.465 206.639H192.465Z" fill="#2E2121"/>
</svg>
