<svg width="512" height="512" viewBox="0 0 512 512" fill="none" xmlns="http://www.w3.org/2000/svg">
<path d="M295 408.802C350.544 393.594 391 346.741 391 291.301C391 211.272 331.178 111.671 284.692 49.6786C270.153 30.2906 241.847 30.2906 227.308 49.6786C180.822 111.671 121 211.272 121 291.301C121 346.074 160.487 392.464 215 408.239V419.4C173.423 423.551 143.799 433.827 143.016 445.902H143V465.043C143 481.035 193.592 494 256 494C318.408 494 369 481.035 369 465.043V445.902H368.984C368.189 433.634 337.624 423.223 295 419.206V408.802Z" fill="#1F1A17"/>
<path d="M341.825 280.363C340.628 293.525 324.285 281.647 324.285 268.43C324.285 208.463 299.69 141.709 277 93.5092C306.896 139.976 342.285 208.813 342.285 270.2C342.285 273.631 342.129 277.022 341.825 280.363Z" fill="#EEEEEE"/>
<path d="M164 459.691C164 461.802 165.316 463.692 167.324 464.343C188.02 471.048 220.049 475.35 256 475.35C291.35 475.35 322.909 471.19 343.63 464.677C345.661 464.038 347 462.136 347 460.007V449.527C347 448.491 345.783 447.935 345 448.612C336.209 456.598 299.478 462.589 255.5 462.589C211.522 462.589 174.791 456.598 166 448.612C165.296 447.831 164 448.329 164 449.38V459.691Z" fill="#EEEEEE"/>
<path d="M255 439.031C277.091 439.031 295 437.493 295 435.595V446.393C295 448.29 277.091 449.828 255 449.828C232.909 449.828 215 448.29 215 446.393V435.595C215 437.493 232.909 439.031 255 439.031Z" fill="#EEEEEE"/>
<path fill-rule="evenodd" clip-rule="evenodd" d="M229 198.553L220 166.053C217.6 165.253 216.667 173.72 216.5 178.053C216.833 180.22 217.2 184.553 216 184.553C214.8 184.553 214.833 189.886 215 192.553C212.6 194.953 210 199.553 209 201.553C205.4 201.953 196.833 205.053 193 206.553C193 207.533 191.933 208.299 190.775 209.131C190.16 209.573 189.52 210.033 189 210.553L184 215.553C182.441 214.306 181.271 217.335 180.369 219.672L180.268 219.933C179.768 221.222 179.353 222.229 179 222.053C178.2 221.653 173 230.886 170.5 235.553C170.9 236.353 167 248.553 165 254.553C160.5 256.22 151.4 259.553 151 259.553C150.856 259.553 150.341 259.677 149.657 259.841C147.958 260.25 145.213 260.909 144.5 260.553C143.5 260.053 143 263.053 143 265.053C143 266.403 148.92 266.614 153.078 266.762C155.081 266.834 156.675 266.89 157 267.053C157.8 267.453 158.667 265.886 159 265.053C159.5 265.72 160.6 266.953 161 266.553C161.4 266.153 164.833 266.386 166.5 266.553C166.5 267.886 166.8 270.653 168 271.053C167.667 271.386 167.2 272.853 168 276.053C169 280.053 171 283.553 171 284.053C171 284.453 174.333 288.22 176 290.053L177 290.553V291.553L181.812 295.744C182.709 296.598 183.187 297.053 183 297.053C182.2 297.053 182.667 301.72 183 304.053C182.2 304.053 181.667 307.053 181.5 308.553C179.5 310.953 180.667 315.22 181.5 317.053C184.7 317.853 185.833 316.386 186 315.553C186.5 314.553 187.5 312.253 187.5 311.053C187.5 309.853 188.5 308.22 189 307.553C189.333 305.72 190.2 302.153 191 302.553C191 301.72 191.2 300.153 192 300.553C192.667 301.053 194.2 302.053 195 302.053C195.8 302.053 198.333 304.386 199.5 305.553C200.5 306.053 203 306.953 205 306.553C206.333 307.053 209.2 308.053 210 308.053C210.8 308.053 211.667 308.72 212 309.053C214.167 309.22 218.7 309.553 219.5 309.553C220.5 309.553 227 311.053 228.5 309.553C230 308.053 235 310.553 235 309.053C239.8 308.253 247.667 303.72 251 301.553C252.333 301.386 254.7 301.253 253.5 302.053C252.3 302.853 255.333 304.386 257 305.053C256.6 307.853 260.167 313.22 262 315.553C264.833 317.386 269.9 319.653 267.5 314.053C265.1 308.453 264.167 298.053 264 293.553C262.4 293.553 264.333 289.22 265.5 287.053C267.5 285.886 271.3 283.053 270.5 281.053C269.7 279.053 271.167 277.553 272 277.053C271.667 275.553 271.2 272.753 272 273.553C272.8 274.353 273.667 270.22 274 268.053C272.4 267.253 273.667 263.386 274.5 261.553C276.5 262.353 280 260.553 281.5 259.553C281.9 257.553 291.333 255.72 296 255.053L297 250.553L275 249.053C275 246.253 273.667 243.553 273 242.553C276.2 240.153 272.667 233.22 270.5 230.053C271.3 226.853 263.5 218.72 259.5 215.053C257.5 211.853 254 208.386 252.5 207.053C250 206.886 244.2 205.653 241 202.053C237.8 198.453 231.667 198.22 229 198.553ZM227 231.553C225.4 231.153 221.667 218.72 220 212.553C220 212.759 219.157 214.748 218.159 217.106L218.158 217.108C217.22 219.321 216.145 221.859 215.5 223.553C216.596 225.38 215.29 229.608 214.506 232.144C214.218 233.079 214 233.784 214 234.053C214 234.312 213.395 235.547 212.568 237.233C210.206 242.049 206.037 250.553 209 250.553C212.2 250.553 218.667 251.886 221.5 252.553C226.7 252.153 232.667 250.053 235 249.053C233 243.386 228.6 231.953 227 231.553ZM258 261.053C256 262.253 253.167 261.886 252 261.553C253.2 263.553 252.5 267.053 252 268.553C253.6 270.553 253.667 273.72 253.5 275.053C254.5 275.553 256.6 276.753 257 277.553C257.4 278.353 258.167 276.886 258.5 276.053C258.1 275.253 258.333 273.386 258.5 272.553C260.5 270.153 261.667 263.886 262 261.053C261.5 260.553 260 259.853 258 261.053ZM192.5 226.553C194.1 224.553 202.5 219.386 206.5 217.053C206.9 219.853 204.667 224.886 203.5 227.053C203.167 229.053 202.2 233.153 201 233.553C199.8 233.953 199.833 237.72 200 239.553C197.6 242.753 197 248.22 197 250.553C196.6 250.953 191.833 250.053 189.5 249.553C188.5 250.053 178.5 252.553 180 250.053C181.5 247.553 182 245.553 181.5 245.553C181.1 245.553 182.667 242.22 183.5 240.553C182.7 239.753 184.167 238.22 185 237.553C183.8 235.553 187.167 232.053 189 230.553C189.5 230.053 190.9 228.553 192.5 226.553ZM180 265.053C182 264.886 186.2 264.453 187 264.053C188 264.22 190.4 264.453 192 264.053C190.667 265.886 188.1 269.853 188.5 271.053C187.333 273.053 185.3 277.353 186.5 278.553C186.014 279.688 185.244 282.021 185.938 282.516C184.254 281.502 181.105 279.448 181.5 279.053C181.9 278.653 181 274.886 180.5 273.053C180.333 271.72 180.1 268.953 180.5 268.553C180 267.553 179.2 265.453 180 265.053ZM235 216.053C238.833 218.553 246.6 223.553 247 223.553C247.5 223.553 258 233.053 260.5 241.053C261.5 241.553 263.5 243.853 263.5 249.053C263.142 249.053 262.656 249.09 262.131 249.131C260.943 249.223 259.555 249.33 259 249.053C258.2 248.653 250.667 249.553 247 250.053C246 246.553 243.3 238.753 240.5 235.553C240.833 235.053 241 233.253 239 230.053C236.5 226.053 232.5 217.553 235 216.053ZM206 262.553C208.667 262.386 214.2 262.353 215 263.553C216.333 262.886 219.5 261.953 221.5 263.553C223.5 265.153 233.333 263.553 238 262.553C238.333 264.553 239.2 268.453 240 268.053C239.5 268.553 239.6 271.553 244 279.553C244.167 282.053 244.9 287.053 246.5 287.053C248.1 287.053 246.833 289.053 246 290.053C245 291.22 242.2 293.753 239 294.553C235 295.553 229.5 297.053 227.5 298.053C225.9 298.853 218.5 297.72 215 297.053L214.5 298.053C212.5 296.386 208 293.353 206 294.553C204.167 292.886 200.3 289.853 199.5 291.053C198.5 292.553 196.5 286.553 197.5 287.053C198.3 287.453 198.833 280.553 199 277.053C201 273.386 205 265.953 205 265.553C205 265.475 204.988 265.36 204.973 265.221C204.893 264.465 204.734 262.975 206 262.553Z" fill="#EEEEEE"/>
</svg>
