<svg width="512" height="512" viewBox="0 0 512 512" fill="none" xmlns="http://www.w3.org/2000/svg">
<path d="M369 459.5C369 475.792 318.408 489 256 489C193.592 489 143 475.792 143 459.5C143 452.025 153.651 445.199 171.206 440C191.913 433.868 222.226 430 256 430C289.774 430 320.087 433.868 340.794 440C358.349 445.199 369 452.025 369 459.5Z" fill="#1F1A17"/>
<path d="M340.794 440C358.349 445.199 369 452.025 369 459.5V440H340.794Z" fill="#1F1A17"/>
<path d="M143 459.5C143 452.025 153.651 445.199 171.206 440H143V459.5Z" fill="#1F1A17"/>
<ellipse cx="256" cy="440.5" rx="113" ry="29.5" fill="#1F1A17"/>
<path d="M164 454.136C164 456.236 165.302 458.119 167.296 458.777C187.991 465.613 220.033 470 256 470C291.366 470 322.937 465.759 343.657 459.118C345.674 458.472 347 456.577 347 454.458V443.665C347 442.628 345.778 442.076 345 442.761V442.761C336.209 450.897 299.478 457 255.5 457C211.522 457 174.791 450.897 166 442.761V442.761C165.302 441.972 164 442.466 164 443.518V454.136Z" fill="#C4C4C4"/>
<path d="M215 395H295V441H215V395Z" fill="#1F1A17"/>
<path d="M391 282.5C391 351.536 330.558 407.5 256 407.5C181.442 407.5 121 351.536 121 282.5C121 201.089 180.649 99.7959 227.106 36.6223C241.639 16.8607 270.361 16.8607 284.894 36.6223C331.351 99.7959 391 201.089 391 282.5Z" fill="#1F1A17"/>
<path d="M372 274.167C372 336.906 320.065 387.767 256 387.767C191.935 387.767 140 336.906 140 274.167C140 198.413 193.733 112.711 234.015 60.1661C245.204 45.5698 266.796 45.5698 277.985 60.1661C318.267 112.711 372 198.413 372 274.167Z" fill="#1F1A17"/>
<path d="M341.853 271.037C340.685 284.542 324.285 272.756 324.285 259.201V259.201C324.285 198.109 299.69 130.104 277 81C306.896 128.338 342.285 198.465 342.285 261.004C342.285 264.39 342.139 267.736 341.853 271.037Z" fill="#EEEEEE"/>
<path d="M232 375H277V447H232V375Z" fill="#1F1A17"/>
<path d="M308.463 241.271C307.961 241.06 307.436 240.911 306.922 240.729C306.544 240.6 306.167 240.472 305.789 240.341C305.383 240.202 304.987 239.974 304.611 240.452C304.534 240.551 304.253 240.552 304.11 240.487C303.343 240.137 302.593 240.124 301.815 240.452C301.63 240.53 301.394 240.487 301.182 240.474C300.83 240.452 300.477 240.39 300.124 240.376C299.844 240.365 299.515 240.308 299.295 240.441C299.161 240.522 299.192 240.924 299.141 241.18C299.126 241.254 299.107 241.365 299.059 241.39C298.918 241.459 298.762 241.493 298.612 241.542C298.62 241.422 298.608 241.294 298.639 241.18C298.713 240.906 299.012 240.548 298.616 240.397C298.106 240.199 298.185 240.742 298.127 241.043C298.096 241.201 298.123 241.384 297.911 241.295C297.801 241.249 297.663 241.103 297.656 240.993C297.644 240.809 297.739 240.618 297.763 240.428C297.774 240.352 297.713 240.266 297.686 240.184C297.041 240.584 296.793 239.8 296.338 239.636C296.107 239.552 296.018 239.607 295.919 239.801C295.659 240.304 295.193 240.335 294.803 240.182C294.354 240.008 293.952 239.726 293.455 239.96C293.137 239.448 292.843 240.044 292.501 239.991C291.81 239.889 291.112 239.842 290.416 239.782C290.052 239.751 289.653 239.648 289.29 239.661C289.022 239.67 288.816 239.823 288.543 239.849C288.334 239.869 288.104 239.785 287.999 239.589C287.955 239.505 287.924 239.394 287.838 239.368C287.75 239.34 287.67 239.42 287.593 239.474C287.331 239.654 287.028 239.539 286.721 239.407C286.767 239.352 286.767 239.296 286.831 239.241C286.879 239.203 286.956 239.139 286.95 239.1C286.831 238.378 287.306 237.552 286.638 236.921C286.642 236.38 286.071 235.925 286.453 235.311C286.517 235.209 286.39 234.964 286.351 234.786C286.31 234.605 286.192 234.393 286.237 234.245C286.434 233.618 286.287 233.222 285.721 232.929C285.377 232.75 285.46 232.326 285.485 231.98C285.509 231.66 285.754 231.698 285.955 231.631C286.094 231.587 286.241 231.439 286.308 231.296C286.58 230.715 286.579 230.035 286.493 229.404C286.457 229.139 286.537 229.126 286.37 228.861C286.305 228.758 285.867 228.529 285.856 228.467C285.773 227.924 285.689 227.379 285.604 226.835C285.561 226.557 285.497 226.241 285.27 226.103C285.036 225.958 284.665 226.026 284.552 225.761C284.474 225.58 284.599 225.359 284.765 225.273C284.932 225.189 285.125 225.206 285.309 225.223C285.076 224.658 284.39 224.482 284.07 223.968C283.893 223.685 283.849 223.331 283.809 222.989C283.717 222.185 283.623 221.383 283.53 220.579C283.056 220.388 282.657 219.988 282.443 219.493C282.294 219.522 282.135 219.547 281.997 219.476C281.862 219.407 281.78 219.195 281.882 219.072C281.917 219.029 281.971 219.005 282.019 218.979C282.382 218.787 282.642 218.223 282.344 217.928C282.124 217.71 281.776 217.805 281.496 217.914C281.477 217.628 281.603 217.336 281.82 217.169C281.452 216.571 281.304 215.685 280.905 215.149C280.576 214.708 280.136 214.701 280.066 214.017C280.051 213.863 280.067 213.705 280.058 213.55C280.053 213.478 280.02 213.405 279.999 213.336C279.936 213.399 279.87 213.46 279.81 213.524C279.518 213.832 279.53 213.824 279.3 213.47C279.229 213.363 279.075 213.318 278.959 213.246C278.907 213.372 278.828 213.493 278.804 213.624C278.773 213.796 279.069 214.102 278.645 214.098C278.349 214.097 278.341 213.829 278.338 213.59C278.337 213.474 278.314 213.342 278.351 213.241C278.739 212.254 277.752 211.9 277.537 211.189C277.516 211.122 277.125 211.194 277.1 211.124C276.965 210.73 276.882 210.315 276.795 209.901C276.712 209.5 275.983 209.399 276.344 208.777C276.352 208.763 276.157 208.538 276.056 208.537C275.598 208.525 275.349 208.229 275.108 207.867C274.945 207.623 274.759 207.381 274.539 207.198C273.8 206.581 273.791 206.59 273.286 205.56C273.143 205.267 272.553 205.073 272.477 205.313C272.321 205.806 272.172 205.63 271.916 205.497C271.502 205.28 271.244 204.981 271.147 204.461C271.079 204.089 270.808 203.602 270.453 203.718C269.963 203.88 269.917 203.52 269.731 203.283C269.597 203.115 269.419 202.771 269.345 202.795C268.789 202.983 268.867 202.587 268.824 202.236C268.789 201.942 268.679 201.659 268.6 201.372C268.529 201.12 268.417 200.873 268.398 200.619C268.375 200.307 268.276 200.186 267.998 200.047C267.592 199.847 267.248 199.236 266.885 199.245C266.201 199.262 266.15 198.827 266.013 198.359C266.005 198.334 265.945 198.299 265.924 198.308C265.719 198.389 265.52 198.376 265.656 198.093C265.872 197.647 265.704 197.413 265.347 197.293C263.946 196.817 263.968 195.981 262.121 196.354C262.086 196.361 262.049 196.35 262.013 196.35C261.601 196.361 261.298 196.209 261.279 195.71C261.263 195.316 261.114 195.064 260.755 195.256C260.43 195.431 260.419 195.034 260.269 195.034C260.159 195.034 260.07 195.316 259.934 195.379C259.852 195.416 259.609 195.295 259.594 195.212C259.511 194.739 259.287 194.615 258.909 194.828C258.497 195.062 258.249 194.908 258.032 194.503C257.776 194.03 257.479 193.602 256.909 193.513C256.756 193.488 256.614 193.303 256.49 193.166C256.118 192.76 255.807 192.274 255.139 192.573C254.997 192.636 254.665 192.395 254.516 192.206C254.121 191.702 253.62 191.672 253.078 191.663C252.439 191.651 252.399 191.589 252.423 190.933C252.428 190.818 252.447 190.701 252.483 190.594C252.593 190.268 252.428 190.383 252.238 190.343C251.596 190.21 250.961 190.019 250.342 189.791C250.141 189.718 249.872 189.476 249.853 189.286C249.813 188.869 249.698 188.83 249.319 188.755C248.865 188.664 248.114 188.136 248.008 188.252C247.703 188.58 247.002 187.804 246.95 188.719C246.949 188.752 246.835 188.778 246.775 188.808C246.633 188.257 246.301 188.923 246.084 188.676C245.721 188.266 245.346 188.35 244.928 188.648C244.721 188.796 244.324 188.911 244.161 188.796C243.767 188.518 243.459 188.314 243.114 188.821C242.518 188.654 241.921 188.489 241.325 188.322C241.356 187.729 240.638 187.446 240.859 186.702C241.147 185.737 241.14 184.797 239.797 184.205C239.548 184.094 239.453 183.957 239.469 183.703C239.481 183.514 239.462 183.228 239.561 183.158C239.987 182.856 239.844 182.411 239.886 182.005C239.936 181.544 239.877 181.218 239.341 181.265C239.321 181.266 239.23 180.975 239.261 180.846C239.331 180.55 239.468 180.274 239.554 179.979C239.592 179.846 239.628 179.625 239.564 179.559C239.062 179.037 239.097 178.277 238.819 177.66C238.747 177.501 238.681 177.31 238.555 177.214C237.892 176.701 237.889 176.651 238.018 175.847C238.109 175.279 238.211 174.677 238.12 174.125C238.045 173.671 238.076 172.984 237.339 172.936C237.05 172.918 237.048 172.612 237.147 172.394C237.356 171.934 237.336 171.585 236.878 171.323C236.765 171.258 236.692 171.104 236.611 170.982C235.821 169.793 235.39 168.469 235.356 166.998C235.352 166.848 235.344 166.6 235.27 166.567C234.566 166.241 234.884 165.829 235.103 165.341C235.216 165.089 235.233 164.641 235.095 164.434C234.668 163.792 234.725 163.01 234.474 162.316C234.135 161.38 233.784 160.396 234.031 159.327C234.093 159.062 234.075 158.764 233.718 158.713C233.382 158.666 233.217 158.402 233.146 158.094C233.069 157.759 233.072 157.392 232.616 157.727C232.581 157.752 232.439 157.694 232.434 157.66C232.395 157.399 232.344 157.131 232.364 156.873C232.387 156.594 232.586 156.654 232.774 156.698C232.824 156.71 232.947 156.599 232.955 156.532C233.033 155.885 232.21 154.921 231.628 155.005C231.442 155.031 231.189 155.172 231.112 155.339C230.784 156.06 230.316 156.694 230.171 157.529C230.034 158.315 229.646 159.043 229.716 159.884C229.727 160.017 229.621 160.175 229.542 160.303C229.262 160.761 229.237 161.282 229.362 161.765C229.468 162.176 229.357 162.235 229.039 162.226C228.75 162.219 228.669 162.431 228.687 162.688C228.721 163.264 228.774 163.838 228.818 164.413C228.83 164.566 228.87 164.722 228.844 164.867C228.731 165.465 228.571 166.056 228.484 166.658C228.429 167.038 228.342 167.522 228.503 167.805C228.954 168.605 228.696 169.363 228.571 170.145C228.461 170.824 228.346 171.504 228.239 172.182C228.172 172.596 227.977 173.057 228.08 173.414C228.272 174.073 227.534 174.028 227.512 174.505C227.5 174.743 227.207 174.957 227.18 175.2C227.07 176.154 226.991 177.116 226.95 178.076C226.911 179.03 227.01 179.985 226.955 180.943C226.931 181.37 226.837 181.708 226.516 181.942C226.053 182.277 225.8 182.725 225.613 183.306C225.368 184.067 224.97 184.704 224.224 185.135C223.449 185.583 222.746 186.267 222.841 187.421C222.852 187.536 222.844 187.655 222.836 187.771C222.813 188.067 222.693 188.199 222.417 188.053C222.148 187.911 222.017 188.01 221.992 188.322C221.963 188.693 221.971 189.075 221.882 189.43C221.79 189.797 221.779 190.156 221.246 190.336C220.658 190.536 219.92 190.76 219.649 191.548C219.523 191.913 219.337 191.882 219.064 191.748C218.796 191.617 218.575 191.684 218.512 192.055C218.472 192.289 218.356 192.344 218.128 192.293C217.9 192.238 217.652 192.283 217.416 192.271C216.774 192.233 216.239 192.621 215.648 192.793C215.202 192.922 214.791 193.199 214.343 193.293C213.894 193.387 213.482 193.595 212.989 193.601C212.144 193.608 211.746 194.195 211.697 195.163C211.693 195.243 211.598 195.391 211.574 195.385C211.452 195.351 211.312 195.301 211.235 195.206C211.194 195.154 211.294 194.995 211.29 194.885C211.278 194.667 211.175 194.488 210.954 194.616C210.232 195.039 209.43 195.185 208.648 195.378C208.311 195.462 208.138 195.573 208.138 195.965C208.138 196.068 207.996 196.174 207.918 196.277C207.848 196.161 207.763 196.054 207.714 195.927C207.647 195.755 207.618 195.564 207.549 195.392C207.537 195.361 207.406 195.387 207.328 195.387C207.556 196.007 207.108 195.945 206.842 195.865C206.128 195.652 205.563 196.377 204.863 196.178C204.799 196.16 204.678 196.285 204.611 196.369C204.544 196.454 204.504 196.569 204.465 196.677C204.265 197.24 203.407 197.464 203.748 198.305C203.658 198.331 203.547 198.407 203.487 198.374C203.268 198.251 203.143 198.362 203.049 198.542C202.943 198.743 202.821 198.949 202.778 199.17C202.713 199.502 202.62 199.673 202.278 199.505C202.218 199.475 202.036 199.56 202.021 199.624C201.91 200.09 201.621 199.872 201.353 199.889C200.626 199.932 200.429 200.178 200.393 200.91C200.343 201.879 200.104 202 199.16 203.09C198.505 203.846 197.625 204.209 196.996 204.953C196.777 205.212 196.496 205.358 196.1 205.26C195.475 205.105 195.061 205.401 194.706 206.034C194.31 206.74 193.806 207.463 193.187 207.915C192.385 208.499 192.065 209.213 191.935 210.187C191.841 210.888 191.699 211.606 190.837 211.845C190.474 211.948 190.249 212.445 190.065 212.931C189.888 213.398 189.832 213.837 189.773 214.306C189.745 214.534 189.587 214.614 189.363 214.717C188.258 215.229 188.3 215.273 187.736 216.626C187.613 216.922 187.502 217.147 187.602 217.452C186.741 217.554 186.76 218.555 186.244 219.016C186.091 219.153 185.971 219.385 185.925 219.597C185.755 220.42 185.629 221.254 185.463 222.076C185.431 222.233 185.31 222.457 185.192 222.49C184.45 222.699 184.308 223.38 184.261 224.008C184.237 224.323 184.071 224.434 184.003 224.632C183.806 225.197 182.983 225.145 183.018 225.885C183.02 225.901 182.818 225.981 182.751 225.944C182.167 225.629 182.123 226.218 182.073 226.505C181.981 227.034 181.965 227.6 182.034 228.134C182.126 228.842 181.821 229.429 181.569 229.983C181.249 230.685 180.834 231.287 180.911 232.153C180.943 232.509 180.697 232.948 180.476 233.267C180.094 233.818 179.616 234.288 179.213 234.823C179 235.109 178.618 235.559 179.445 235.443C179.495 235.435 179.627 235.605 179.615 235.677C179.567 236.005 179.937 236.685 179.118 236.43C179.083 236.418 178.983 236.585 178.945 236.683C178.778 237.11 178.575 237.529 178.474 237.973C178.395 238.32 178.307 238.81 178.463 239.047C178.89 239.696 178.516 240.308 178.535 240.928C178.536 241 178.417 241.133 178.35 241.137C178.282 241.141 178.195 241.027 178.143 240.945C178.087 240.854 178.061 240.739 178.022 240.633C177.991 240.702 177.963 240.77 177.931 240.837C177.727 241.242 177.492 241.632 177.328 242.055C177.174 242.452 177.021 242.878 176.996 243.3C176.957 243.884 176.961 244.469 176.951 245.055C176.629 245.187 176.307 245.319 175.984 245.449C175.756 245.542 175.496 245.634 175.278 245.516C175.096 245.418 174.943 245.175 174.746 245.235C174.485 245.311 174.385 245.733 174.177 245.898C174.012 246.029 173.834 246.04 173.647 246.107C173.035 246.325 172.521 246.77 171.875 246.898C171.356 247 170.727 247.111 170.398 247.478C170.101 247.813 169.74 248.038 169.482 247.96C169.174 247.866 169.008 247.986 168.804 248.092C167.703 248.665 166.562 249.143 165.344 249.252C164.546 249.324 164.112 249.868 163.792 250.482C163.595 250.86 163.392 250.691 163.358 250.58C163.203 250.047 162.802 250.143 162.502 250.209C161.996 250.321 161.512 250.558 161.014 250.725C160.709 250.827 160.369 251.031 160.094 250.96C159.521 250.81 159.102 251.055 158.712 251.4C158.366 251.707 158.003 251.732 157.61 251.631C157.365 251.568 157.124 251.482 156.891 251.38C156.607 251.255 156.388 251.36 156.24 251.604C155.786 252.361 155.487 253.205 155.534 254.101C155.554 254.469 155.649 254.683 155.31 254.964C154.841 255.354 154.923 255.692 155.432 256.026C155.806 256.27 156.179 256.384 156.631 256.279C156.928 256.21 156.859 256.404 156.742 256.609C156.608 256.84 156.761 256.967 156.962 257.005C157.194 257.049 157.116 256.855 157.148 256.72C157.218 256.429 157.321 256.143 157.439 255.871C157.46 255.824 157.644 255.823 157.728 255.859C157.783 255.883 157.842 256.027 157.824 256.097C157.761 256.35 157.559 256.628 157.61 256.837C157.714 257.256 158.091 256.999 158.353 257.043C158.494 257.067 158.632 257.12 158.769 257.166C159.68 257.465 160.573 257.951 161.556 257.472C162.25 257.677 162.923 257.244 163.677 257.531C164.341 257.785 165.147 257.579 165.889 257.622C166.31 257.646 166.727 257.759 167.148 257.827C167.618 257.904 167.913 257.905 168.38 257.842C168.675 257.803 168.964 257.945 169.258 257.979C169.443 258.001 169.633 257.979 169.811 257.914C169.867 257.893 169.922 257.867 169.966 257.825C170.009 257.782 170.037 257.727 170.08 257.685C170.124 257.643 170.182 257.621 170.232 257.583C170.722 257.221 170.758 256.468 170.92 255.913C170.94 255.84 170.967 255.758 171.012 255.704C171.055 255.656 171.131 255.611 171.187 255.615C171.243 255.618 171.325 255.674 171.348 255.73C171.464 256.013 171.332 256.525 171.495 256.729C171.578 256.835 171.791 256.831 171.902 256.894C172.111 257.011 172.285 257.215 172.466 257.378C172.516 257.424 172.569 257.471 172.632 257.487C172.703 257.506 172.778 257.486 172.848 257.459C173.052 257.381 173.242 257.261 173.401 257.104C173.459 257.047 173.516 256.983 173.591 256.951C173.689 256.91 173.796 256.934 173.899 256.952C174.279 257.026 174.664 257.056 175.049 257.085C175.25 257.1 175.452 257.115 175.652 257.132C176.67 257.208 177.698 257.206 178.7 257.045C178.708 257.074 178.699 257.113 178.708 257.14C179.02 257.904 177.9 259.314 179.185 259.704C179.209 259.956 179.144 260.217 179.003 260.423C179.279 260.222 179.67 260.538 179.709 260.893C179.749 261.249 179.566 261.585 179.389 261.888C179.512 261.926 179.626 261.996 179.716 262.094C179.739 261.896 179.763 261.697 179.784 261.499C179.965 261.503 180.048 261.766 179.986 261.948C179.924 262.131 179.781 262.265 179.685 262.427C179.497 262.744 179.499 263.149 179.536 263.522C179.589 264.064 179.703 264.596 179.875 265.108C180.07 265.69 180.342 266.304 180.187 266.898C180.122 267.149 179.986 267.429 180.122 267.643C180.184 267.74 180.287 267.793 180.355 267.882C180.454 268.011 180.466 268.191 180.475 268.357C180.499 268.856 180.432 269.491 180.555 269.972C180.641 270.309 180.856 270.613 180.964 270.958C181.032 271.176 181.096 271.395 181.153 271.616C181.282 272.128 181.424 272.577 181.825 272.985C182.303 273.471 182.857 274.007 182.685 274.923C182.595 275.402 183.04 275.674 183.343 275.916C183.731 276.227 183.991 276.607 184.177 277.07C184.247 277.245 184.3 277.445 184.417 277.573C185.425 278.685 186.456 279.774 187.458 280.892C187.644 281.1 187.889 280.961 188.003 281.064C188.15 281.196 188.123 281.538 188.26 281.705C188.742 282.283 189.223 282.876 189.777 283.363C190.329 283.847 190.574 284.77 191.466 284.79C191.537 284.791 191.659 284.944 191.67 285.037C191.726 285.588 192.046 285.775 192.495 285.956C192.83 286.092 193.072 286.491 193.353 286.777C193.562 286.99 193.732 287.298 193.98 287.406C194.861 287.795 194.861 288.576 194.731 289.354C194.404 291.32 194.503 293.281 194.669 295.248C194.681 295.39 194.696 295.563 194.634 295.674C194.417 296.071 194.216 296.5 193.916 296.815C193.572 297.179 193.403 297.583 193.477 298.058C193.572 298.682 193.158 299.212 193.331 299.881C193.504 300.544 192.701 300.891 192.593 301.528C192.562 301.711 192.452 301.883 192.367 302.054C192.244 302.298 192.236 302.443 192.403 302.747C192.75 303.376 192.79 304.149 192.375 304.786C192.058 305.272 192.047 305.894 192.256 306.196C192.575 306.658 192.569 307.093 192.609 307.581C192.675 308.4 193.257 308.979 193.994 308.987C194.857 308.996 195.722 309.001 196.586 308.986C197.122 308.974 198.189 308.051 198.188 307.498C198.185 306.588 198.619 305.909 198.997 305.181C199.059 305.06 199.609 304.436 198.776 304.705C198.777 304.577 198.729 304.406 198.788 304.33C199.034 304 199.317 303.726 199.298 303.226C199.26 302.253 199.749 301.453 200.205 300.697C200.778 299.752 201.225 298.777 201.464 297.68C201.666 296.748 201.784 295.774 202.267 294.953C202.69 294.236 203.157 293.567 203.2 292.665C203.213 292.374 203.422 292.14 203.721 292.241C203.977 292.327 204.016 292.24 204.056 292.003C204.083 291.841 204.186 291.695 204.256 291.538C204.368 291.671 204.54 291.785 204.579 291.939C204.717 292.461 205.133 292.623 205.503 292.846C205.789 293.021 205.803 293.008 206.146 292.599C206.281 292.44 206.367 292.479 206.462 292.656C206.503 292.732 206.699 292.806 206.706 292.796C207.015 292.296 207.112 292.679 207.218 292.942C207.317 293.193 207.273 293.318 206.994 293.193C206.929 293.163 206.856 293.138 206.788 293.137C206.722 293.136 206.653 293.163 206.584 293.178C206.603 293.226 206.61 293.295 206.644 293.321C206.959 293.564 207.276 293.804 207.596 294.038C208.243 294.505 208.899 294.961 209.542 295.435C209.731 295.575 209.708 295.589 209.989 295.323C210.036 295.279 210.222 295.302 210.247 295.351C210.366 295.586 210.472 295.834 210.544 296.092C210.62 296.361 210.765 296.358 210.948 296.262C211.21 296.123 211.422 296.212 211.371 296.513C211.255 297.189 211.696 297.172 212.077 297.313C212.575 297.501 213.051 297.756 213.535 297.98C213.72 298.065 213.902 298.214 214.088 298.22C214.771 298.25 215.477 298.346 216.134 298.2C216.86 298.038 217.461 298.22 218.052 298.58C219.146 299.243 220.327 299.495 221.557 299.403C222.371 299.342 223.019 299.664 223.634 300.164C223.748 300.257 223.834 300.398 223.956 300.472C224.165 300.597 224.303 300.584 224.196 300.257C224.113 299.996 224.263 299.896 224.469 299.899C224.788 299.905 224.645 300.117 224.611 300.292C224.588 300.402 224.58 300.543 224.627 300.631C224.672 300.712 224.797 300.781 224.888 300.781C224.979 300.781 225.143 300.699 225.148 300.639C225.165 300.454 225.116 300.263 225.11 300.074C225.109 300.018 225.166 299.919 225.204 299.915C225.307 299.906 225.472 299.901 225.504 299.961C225.588 300.12 225.594 300.325 225.67 300.491C225.725 300.612 225.835 300.774 225.934 300.786C226.672 300.87 227.411 300.954 228.152 300.97C229.191 300.99 230.233 300.949 231.275 300.944C231.378 300.944 231.491 300.983 231.582 301.037C232.217 301.412 232.905 301.277 233.579 301.285C234.257 301.293 234.921 301.306 235.593 301.506C237.003 301.926 238.413 301.887 239.796 301.297C240.121 301.157 240.483 301.078 240.832 301.052C241.333 301.014 241.838 301.051 242.343 301.052C242.846 301.054 243.351 301.054 243.855 301.052C244.381 301.051 244.906 301.058 245.431 301.032C245.913 301.01 246.436 300.8 246.864 300.942C247.369 301.109 247.712 300.327 248.179 300.805C248.567 300.637 249.083 300.583 249.321 300.277C249.921 299.504 250.737 299.234 251.548 299.004C251.991 298.88 252.341 298.721 252.647 298.368C252.977 297.987 253.41 297.666 253.879 297.807C254.393 297.961 254.723 297.628 255.116 297.479C255.543 297.316 255.961 297.144 256.308 296.751C256.745 296.256 257.267 295.833 257.991 295.878C258.208 295.891 258.445 295.716 258.655 295.589C259.638 295.005 260.464 294.075 261.684 294.016C261.779 294.011 261.886 293.938 261.964 293.866C262.374 293.498 262.778 293.122 263.18 292.743C263.254 292.674 263.369 292.515 263.369 292.515C263.872 292.929 264.685 292.067 265.058 292.991C265.851 292.756 265.58 293.252 265.473 293.671C265.418 293.882 265.367 294.137 265.429 294.33C265.525 294.634 265.744 295.155 265.866 295.142C266.472 295.069 267.028 295.659 267.643 295.274C267.77 295.193 267.808 295.307 267.893 295.455C268.126 295.856 268.47 296.185 268.769 296.543C269.517 296.337 269.093 296.825 269.092 297.128C269.088 297.662 269.068 298.235 269.233 298.718C269.343 299.037 269.502 299.328 269.506 299.685C269.514 300.096 269.701 300.117 270.001 299.964C270.227 299.849 270.35 300.014 270.34 300.234C270.328 300.494 270.339 300.874 270.197 300.983C269.801 301.286 269.955 301.678 269.939 302.041C269.91 302.64 270.471 302.982 270.518 303.553C270.578 303.535 270.636 303.516 270.696 303.498C270.624 303.241 270.67 303.146 270.944 303.225C271.134 303.281 271.347 303.251 271.549 303.259C271.528 303.433 271.47 303.614 271.498 303.777C271.519 303.887 271.66 304.046 271.754 304.051C272.43 304.099 272.737 304.609 273.007 305.17C273.202 305.575 273.228 306.093 273.64 306.349C273.967 306.553 273.975 307.293 274.587 307.011C274.606 307.081 274.659 307.172 274.637 307.216C274.522 307.435 274.61 307.512 274.778 307.656C275.114 307.941 275.45 308.262 275.686 308.639C275.884 308.96 276.108 309.001 276.405 308.999C277.269 308.993 278.133 309.008 278.996 308.993C279.608 308.984 279.641 308.965 279.635 308.354C279.628 307.79 279.798 307.177 279.363 306.684C279.332 306.649 279.39 306.5 279.431 306.419C279.831 305.603 279.755 304.786 279.357 304.021C279.237 303.791 279.069 303.654 279.184 303.358C279.235 303.226 279.243 303 279.172 302.904C278.511 302.024 278.367 300.968 278.194 299.901C278.154 299.66 278.087 299.452 278.09 299.179C278.095 298.171 278.016 297.146 277.187 296.469C276.973 296.293 276.954 296.203 277.01 295.931C277.183 295.115 276.888 294.396 276.438 293.768C275.742 292.795 275.755 291.759 276.58 291.029C276.832 290.807 276.878 290.58 276.798 290.334C276.701 290.076 276.515 289.828 276.358 289.571C276.345 289.549 276.229 289.558 276.212 289.588C276.059 289.839 275.916 289.929 275.766 289.592C275.67 289.378 275.576 289.165 275.481 288.951C276.026 288.721 275.483 287.924 276.042 287.681C276.094 287.659 276.077 287.415 276.073 287.276C276.049 286.66 275.954 286.037 276.013 285.432C276.045 285.083 276.093 284.881 275.756 284.702C275.196 284.404 275.023 283.818 275.132 283.225C275.253 282.554 275.392 281.833 275.926 281.365C276.483 280.876 276.802 280.25 276.964 279.515C277.102 278.886 277.379 278.452 277.946 278.109C278.361 277.858 278.523 277.151 278.925 276.828C279.38 276.465 279.956 276.289 280.171 275.629C280.218 275.487 280.286 275.277 280.389 275.24C281.304 274.918 281.557 274.068 281.825 273.217C281.87 273.077 281.972 272.94 282.082 272.85C282.443 272.55 282.478 272.142 282.458 271.697C282.442 271.308 282.439 270.916 282.458 270.53C282.474 270.181 282.407 270.087 282.044 270.146C281.749 270.194 281.815 269.829 281.824 269.615C281.835 269.38 281.953 269.277 282.184 269.363C282.548 269.498 282.716 269.21 282.595 268.953C282.363 268.462 282.622 268.313 282.934 268.189C283.692 267.889 283.822 267.257 283.733 266.501C283.71 266.312 283.607 266.125 283.618 265.941C283.646 265.489 283.646 265.011 283.8 264.605C283.877 264.4 284.261 264.323 284.509 264.198C284.572 264.164 284.646 264.15 284.716 264.141C285.005 264.102 285.094 263.871 285.001 263.641C284.842 263.248 284.734 262.975 285.314 263.111C285.331 263.115 285.467 262.789 285.456 262.622C285.42 262.015 285.578 261.478 285.856 260.96C285.979 260.733 286.051 260.464 286.101 260.203C286.124 260.086 286.019 259.828 285.991 259.832C285.722 259.862 285.625 259.734 285.793 259.523C286.457 258.693 286.251 257.878 285.752 257.103C285.524 256.753 285.424 256.453 285.536 256.032C285.611 255.755 285.69 255.396 285.589 255.167C285.215 254.324 285.743 253.658 286.095 253.177C286.384 252.783 286.465 252.408 286.477 252.03C286.691 252.078 286.79 252.025 286.993 251.96C287.353 251.845 287.575 251.977 287.925 252.024C288.316 252.076 288.707 251.896 289.078 251.767C289.585 251.588 290.113 251.476 290.611 251.275C290.832 251.186 291.011 250.802 291.195 250.814C292.406 250.89 293.336 250.353 294.098 249.4C294.445 248.967 294.855 248.737 295.384 248.643C295.827 248.563 296.254 248.347 296.679 248.161C297.338 247.874 297.983 247.547 298.645 247.264C298.929 247.141 299.287 247.158 299.522 246.977C299.794 246.769 300.025 246.856 300.292 246.856C300.819 246.855 301.397 247.416 301.87 246.71C301.882 246.692 301.954 246.69 301.966 246.706C302.317 247.177 302.599 246.741 302.733 246.538C303.025 246.086 303.309 246.121 303.751 246.236C304.544 246.444 305.386 246.548 306.145 246.129C306.653 245.85 307.12 245.526 307.712 245.466C307.881 245.448 308.126 245.268 308.177 245.102C308.466 244.184 308.737 243.255 308.956 242.312C309.084 241.743 308.937 241.471 308.463 241.271ZM246.441 206.081C246.559 206.136 246.675 206.191 246.796 206.24C246.891 206.282 247.027 206.38 247.081 206.343C247.672 205.95 247.945 206.461 248.361 206.763C249.424 207.532 250.315 208.612 251.721 208.8C252.212 208.864 252.656 209.407 253.107 209.753C253.593 210.126 254.378 210.357 255.049 210.314C255.156 210.307 255.345 210.387 255.361 210.46C255.453 210.891 255.735 210.966 256.067 211.148C256.685 211.485 257.187 212.066 257.757 212.515C258.099 212.786 258.472 213.014 258.847 213.229C258.912 213.268 259.067 213.169 259.159 213.101C259.352 212.956 259.561 212.985 259.494 213.237C259.405 213.566 259.605 213.706 259.68 213.937C259.817 214.369 260.359 213.998 260.455 214.518C260.51 214.82 260.806 215.076 261.008 215.338C261.236 215.637 261.473 215.925 261.719 216.206C261.838 216.339 261.976 216.465 262.125 216.555C262.644 216.863 263.252 217.034 263.366 217.844C263.394 218.04 263.727 218.186 263.924 218.347C264.307 218.663 264.804 218.838 264.796 219.544C264.795 219.757 265.167 219.971 265.363 220.19C265.743 220.614 266.236 221.019 266.44 221.584C266.542 221.865 266.531 222.91 266.931 222.861C267.045 222.846 267.129 222.737 267.243 222.718C267.5 222.676 267.592 223.073 267.575 223.354C267.9 223.123 268.376 223.175 268.652 223.475C268.549 223.604 268.447 223.736 268.345 223.865C268.927 224.104 269.622 224.534 269.549 225.203C269.333 225.106 269.063 225.356 269.116 225.603C269.518 225.526 269.942 225.57 270.323 225.735C270.338 225.62 270.354 225.508 270.37 225.393C270.531 225.4 270.674 225.561 270.673 225.735C270.672 225.91 270.527 226.07 270.366 226.074C270.592 226.207 270.772 226.428 270.863 226.688C270.945 226.922 270.957 227.175 271.004 227.419C271.123 228.042 271.485 228.607 271.982 228.946C271.908 229.154 271.833 229.361 271.76 229.569C271.966 229.617 272.191 229.574 272.372 229.456C272.385 229.598 272.4 229.743 272.412 229.887C272.45 230.283 272.48 230.71 272.301 231.058C272.466 231.076 272.628 231.089 272.786 231.126C272.763 231.433 272.979 231.576 273.041 231.836C273.145 232.264 272.991 232.296 273.378 232.644C274.116 233.309 274.942 233.999 274.933 235.229C275.458 235.98 275.107 236.754 274.995 237.524C274.915 238.076 274.716 238.641 275.138 239.156C275.2 239.233 275.147 239.423 275.138 239.561C275.134 239.65 275.094 239.737 275.07 239.825C274.964 239.8 274.856 239.765 274.748 239.796C274.566 239.851 274.428 240.002 274.266 240.109C274.108 240.216 273.883 240.275 273.741 240.14C273.681 240.085 273.645 240.003 273.586 239.949C273.404 239.787 273.143 239.941 272.913 239.986C272.618 240.043 272.326 239.909 272.056 239.769C271.693 239.584 271.337 239.388 270.985 239.18C270.108 239.415 269.082 239.337 268.287 239.688C268.078 239.781 267.822 239.923 267.604 239.988C267.477 240.025 267.367 240.048 267.239 240.008C267.164 239.986 266.893 239.71 266.876 239.714C266.666 239.765 266.414 239.825 266.161 239.888C266.022 239.923 265.884 239.994 265.745 239.991C264.367 239.973 263.075 240.523 261.723 240.689C261.586 240.706 261.363 240.646 261.32 240.715C260.894 241.455 260.599 241.831 260.733 240.528C260.736 240.502 260.531 240.399 260.496 240.428C259.99 240.873 259.371 240.188 258.873 240.626C258.829 240.593 258.784 240.602 258.74 240.582C258.63 240.436 258.507 240.299 258.408 240.141C258.317 239.999 258.045 239.621 258.008 239.476C257.976 239.361 258.058 238.899 258.067 238.921C257.966 238.691 257.929 238.43 257.961 238.178C257.767 238.359 257.44 238.19 257.346 237.934C257.252 237.677 257.315 237.387 257.381 237.121C257.192 237.232 256.969 237.263 256.76 237.207L256.806 236.758C257.028 236.6 257.253 236.442 257.476 236.283C257.254 236.118 257.046 235.889 257 235.601C256.955 235.311 257.138 234.973 257.409 234.964C257.508 234.367 257.154 233.72 256.622 233.528C256.449 233.464 256.251 233.439 256.125 233.292C255.824 232.938 256.184 232.168 255.778 231.972C255.639 231.903 255.477 231.957 255.332 232.013C255.189 232.068 255.028 232.124 254.887 232.061C254.746 231.997 254.68 231.753 254.812 231.67C255.055 231.674 255.298 231.616 255.519 231.508C255.506 231.332 255.49 231.153 255.476 230.978C255.211 231.034 254.96 230.82 254.789 230.594C254.248 229.879 254.063 228.811 254.484 228.009C253.742 228.168 253.026 227.658 252.723 226.95C252.603 226.672 252.858 226.118 252.274 226.138C252.291 225.958 252.243 225.695 252.336 225.609C252.852 225.12 252.688 224.404 252.716 223.852C252.74 223.378 252.258 222.844 251.942 222.385C251.562 221.831 251.133 221.334 251.074 220.586C251.054 220.342 250.88 220.074 250.713 219.888C250.22 219.341 250.002 218.66 249.761 217.969C249.513 217.255 249.249 216.56 248.753 215.947C248.385 215.493 248.287 214.771 248.109 214.152C248.042 213.918 248.042 213.681 247.753 213.685C247.283 213.69 247.356 213.57 247.543 213.172C247.947 212.31 247.698 211.423 246.966 210.848C246.717 210.652 246.814 210.418 246.75 210.202C246.402 209 246.846 207.718 246.387 206.536C246.338 206.406 246.418 206.23 246.441 206.081ZM219.74 240.662C219.986 240.28 220.348 239.875 220.527 239.453C220.678 239.099 220.622 238.775 220.927 238.49C221.298 238.145 221.449 237.743 221.195 237.256C220.886 236.659 221.57 236.329 221.522 235.795C221.519 235.762 221.87 235.603 221.988 235.662C222.363 235.847 222.517 235.671 222.627 235.329C222.697 235.11 222.741 234.876 222.848 234.683C223.127 234.166 223.064 233.691 222.658 233.333C222.414 233.12 222.408 232.89 222.408 232.62C222.408 232.369 222.461 232.18 222.733 232.108C223.775 231.829 224.195 230.744 223.741 229.679C223.594 229.334 223.563 229.037 223.738 228.706C223.808 228.574 223.902 228.415 223.887 228.28C223.772 227.253 224.412 226.672 224.964 226.024C225.07 225.901 225.208 225.666 225.165 225.564C224.994 225.158 225.276 224.817 225.247 224.44C225.242 224.379 225.382 224.244 225.444 224.252C225.516 224.261 225.587 224.38 225.634 224.467C225.666 224.53 225.65 224.619 225.662 224.694C225.697 224.945 225.736 225.197 225.773 225.446C226.198 225.267 225.983 224.964 225.91 224.679C225.894 224.623 225.966 224.482 225.98 224.486C226.625 224.626 226.494 224.127 226.498 223.751C226.501 223.362 226.502 222.973 226.482 222.584C226.478 222.527 226.351 222.48 226.281 222.425C226.155 222.325 225.925 222.227 225.921 222.118C225.904 221.701 226.185 222.101 226.281 221.995C226.371 221.901 226.492 221.764 226.483 221.657C226.433 221.004 226.654 220.553 227.056 220.032C227.405 219.58 227.64 218.751 227.511 218.202C227.322 217.389 227.515 216.676 227.587 215.927C227.645 215.313 227.65 214.73 227.491 214.128C227.411 213.824 227.471 213.474 227.492 213.146C227.497 213.076 227.599 212.979 227.673 212.953C228.498 212.671 228.38 211.795 228.641 211.159C228.654 211.128 228.535 211.031 228.476 210.967C228.399 210.883 228.24 210.761 228.257 210.722C228.424 210.305 228.525 209.71 228.829 209.534C229.613 209.077 229.32 208.274 229.483 207.641C229.554 207.368 229.364 207.059 229.812 207.022C229.868 207.017 229.959 206.756 229.945 206.621C229.839 205.622 230.422 204.878 230.748 204.041C230.827 203.84 231.063 203.696 230.861 203.448C230.473 202.966 231.146 202.757 231.103 202.36C231.101 202.339 231.348 202.26 231.355 202.273C231.529 202.666 231.899 202.577 232.181 202.709C232.37 202.795 232.576 203.038 232.367 203.35C232.068 203.796 232.32 204.178 232.494 204.573C232.667 204.965 232.849 205.385 233.293 205.427C233.833 205.475 234.094 205.638 233.894 206.285C233.832 206.485 234.001 206.554 234.231 206.567C234.583 206.584 234.733 206.934 234.503 207.083C233.912 207.463 234.073 207.964 234.193 208.507C234.295 208.959 234.503 209.378 234.656 209.793C234.825 210.253 234.951 210.729 234.878 211.135C234.731 211.96 235.278 212.396 235.556 212.988C235.569 213.018 235.611 213.036 235.642 213.057C236.334 213.5 236.397 213.517 236.227 214.228C236.005 215.172 236.37 215.934 236.718 216.718C236.75 216.792 236.92 216.877 236.971 216.847C237.436 216.573 237.541 216.825 237.54 217.27C237.54 217.346 237.559 217.425 237.584 217.496C237.749 217.952 237.348 218.453 237.747 218.919C238.031 219.251 238.181 219.715 238.387 220.124C238.805 220.954 239.319 221.756 239.093 222.789C239.415 223.297 239.163 224.136 239.894 224.416C239.949 224.437 239.998 224.588 239.988 224.67C239.886 225.457 240.238 225.883 240.915 226.041C241.125 226.089 241.089 226.19 241.064 226.362C241.037 226.54 241.032 226.754 241.1 226.912C241.34 227.473 241.927 227.807 241.787 228.634C241.704 229.112 242.056 229.664 242.121 230.212C242.144 230.395 242.224 230.583 242.315 230.743C242.555 231.176 242.075 231.753 242.694 232.072C242.84 232.407 242.82 232.797 242.817 233.167C242.816 233.537 242.845 233.937 243.062 234.225C243.28 234.512 243.747 234.597 243.951 234.299C244.151 234.402 244.255 234.684 244.173 234.909C244.024 234.973 243.876 235.038 243.726 235.104C243.846 235.387 244.057 235.625 244.314 235.763C244.018 236.281 243.848 236.884 243.825 237.494C243.822 237.592 243.822 237.694 243.86 237.783C243.976 238.074 244.36 238.069 244.638 237.972C244.915 237.875 245.235 237.738 245.482 237.911C245.502 238.163 245.523 238.415 245.544 238.667C245.433 238.684 245.322 238.701 245.208 238.715C245.315 239.164 245.419 239.612 245.525 240.061C245.509 240.069 245.49 240.065 245.475 240.072C245.057 240.252 244.639 240.432 244.223 240.61C244.086 240.67 243.942 240.729 243.797 240.704C243.667 240.682 243.553 240.595 243.427 240.555C243.06 240.436 242.72 240.726 242.507 241.021C242.415 241.149 242.372 241.336 242.254 241.44C242.206 241.481 241.844 241.592 241.85 241.579C241.562 242.458 241.071 242.078 240.6 241.815C240.059 241.545 239.401 241.687 238.905 241.259C238.29 241.636 237.676 241.066 237.018 241.298C236.464 241.493 235.821 241.384 235.217 241.422C234.578 241.461 234.443 241.622 234.514 242.311C234.533 242.486 234.569 242.641 234.358 242.588C234.192 242.545 233.925 242.619 233.94 242.236C233.963 241.671 233.778 241.519 233.434 241.812C233.109 242.09 232.855 242.347 232.432 242.023C232.377 241.98 232.156 242.109 232.068 242.215C231.883 242.434 231.733 242.456 231.534 242.241C231.339 242.032 231.116 241.939 230.875 242.187C230.828 242.234 230.731 242.284 230.688 242.259C230.358 242.085 230.06 241.678 229.666 242.135C229.342 241.931 229.015 241.996 228.678 242.096C228.588 242.125 228.459 242.072 228.369 242.016C227.18 241.291 225.874 241.533 224.623 241.596C223.951 241.63 223.351 241.558 222.736 241.335C222.496 241.249 222.259 241.154 222.014 241.092C221.774 241.033 221.497 240.92 221.295 241.002C221.142 241.065 221.128 241.523 220.976 241.578C220.802 241.645 220.55 241.454 220.325 241.413C220.306 241.409 220.218 241.676 220.207 241.823C220.195 241.991 220.196 242.161 219.991 242.069C219.66 241.921 219.765 241.621 219.66 241.378C219.695 241.313 219.728 241.246 219.762 241.181C219.564 241.144 219.629 240.832 219.74 240.662ZM192.139 240.072C192.009 239.431 192.431 239.111 192.784 238.739C193.203 238.298 193.49 237.794 193.249 237.119C193.146 236.832 193.572 236.469 193.119 236.208C193.005 236.143 193.047 235.991 193.271 235.97C193.689 235.933 193.884 235.593 193.876 235.171C193.857 234.29 194.107 233.531 194.528 232.775C194.808 232.272 194.997 231.697 195.249 231.163C195.42 230.8 195.353 230.266 195.292 229.825C195.201 229.164 195.178 229.192 195.68 228.839C196.055 228.576 196.415 228.272 196.731 227.932C196.851 227.804 196.878 227.514 196.86 227.309C196.783 226.47 197.183 225.855 197.602 225.223C197.976 224.662 198.268 224.034 198.649 223.479C199.143 222.762 199.491 221.917 200.281 221.446C200.45 221.347 200.912 221.124 200.708 220.644C200.692 220.602 200.756 220.469 200.768 220.472C201.359 220.575 201.387 220.005 201.643 219.677C201.863 219.395 202.223 219.24 202.516 219.023C202.774 218.831 202.75 218.848 202.466 218.459C202.374 218.334 202.368 218.048 202.435 217.89C202.533 217.657 202.688 217.698 202.81 217.932C202.838 217.986 203.062 217.999 203.071 217.973C203.265 217.468 204.112 217.691 204.073 216.928C204.069 216.871 204.167 216.749 204.186 216.757C204.856 217.022 204.953 216.264 205.323 216.003C205.705 215.733 206.013 215.327 206.406 215.088C207.473 214.443 208.313 213.427 209.471 212.935C210.044 212.691 210.517 212.312 210.887 211.756C211.12 211.407 211.313 210.932 211.875 211.008C211.961 211.02 212.142 210.693 212.184 210.499C212.254 210.174 212.235 209.829 212.28 209.498C212.29 209.414 212.401 209.293 212.466 209.29C212.534 209.29 212.647 209.403 212.664 209.487C212.705 209.674 212.683 209.876 212.72 210.063C212.737 210.152 212.835 210.221 212.895 210.301C212.941 210.19 212.989 210.079 213.032 209.966C213.063 209.882 213.107 209.723 213.107 209.723C213.798 209.921 214.193 209.001 214.872 209.182C215.61 208.647 216.35 208.11 217.088 207.575C217.165 207.036 217.651 207.266 217.918 207.072C218.047 206.979 218.061 206.501 218.363 206.842C218.558 207.065 218.572 207.307 218.347 207.556C217.975 207.963 218.007 208.533 217.891 209.039C217.872 209.12 217.966 209.312 217.998 209.31C218.195 209.297 218.462 209.118 218.487 209.498C218.52 209.96 218.496 210.43 218.459 210.892C218.454 210.955 218.215 211.058 218.106 211.034C217.966 211.003 217.846 210.862 217.718 210.768C217.69 210.955 217.687 211.155 217.624 211.328C217.506 211.653 217.355 211.962 217.21 212.273C217.094 212.52 216.996 212.735 217.145 213.031C217.287 213.31 216.972 213.219 216.919 213.288C216.7 213.562 216.374 213.99 216.446 214.237C216.68 215.022 216.205 215.574 216.012 216.19C215.822 216.793 215.644 217.349 215.767 217.989C215.787 218.092 215.731 218.276 215.656 218.33C215.407 218.502 214.993 218.557 214.895 218.787C214.659 219.332 214.583 219.958 214.407 220.539C214.263 221.012 214.297 221.522 214.012 221.976C213.866 222.211 213.956 222.616 213.502 222.438C213.486 222.43 213.352 222.646 213.345 222.762C213.325 223.151 213.34 223.54 213.334 223.929C213.327 224.344 213.412 224.759 212.927 225.023C212.761 225.113 212.745 225.561 212.69 225.852C212.651 226.053 212.62 226.292 212.389 226.21C211.853 226.018 211.852 226.421 211.838 226.766C211.811 227.389 211.853 228.015 211.815 228.634C211.791 229.015 212.092 228.873 212.189 228.998C212.29 229.13 212.634 229.443 212.117 229.563C212.011 229.588 211.857 229.754 211.856 229.859C211.832 230.993 211.113 231.749 210.593 232.608C210.427 232.882 210.277 233.097 210.379 233.45C210.424 233.603 210.369 233.817 210.308 233.98C210.052 234.649 209.777 235.306 209.511 235.971C209.484 236.04 209.459 236.121 209.461 236.194C209.477 236.607 209.571 237.035 209.502 237.429C209.442 237.78 209.192 238.088 209.059 238.43C209.006 238.563 209.006 238.746 209.039 238.891C209.205 239.589 209.106 240.264 208.976 240.934C208.041 240.953 207.105 240.92 206.217 240.754C205.065 240.535 203.867 240.62 202.755 240.125C202.206 239.881 201.665 239.796 201.161 240.321C201 240.489 200.707 240.558 200.466 240.584C199.719 240.664 199.156 241.218 198.478 241.44C197.818 241.654 197.044 241.364 196.442 241.968C196.372 242.038 196.084 241.859 195.898 241.797C195.906 241.736 195.914 241.674 195.924 241.613C195.26 241.559 194.59 241.439 193.929 241.471C193.396 241.497 192.863 241.61 192.334 241.718C192.286 241.467 192.205 241.202 192.139 240.971C192.044 240.653 191.665 240.376 192.139 240.072ZM203.487 255.849C203.176 256.264 202.864 256.679 202.551 257.092C202.453 257.22 202.346 257.357 202.196 257.396C202.357 257.623 202.053 257.883 201.842 258.055C201.574 258.274 201.402 258.62 201.377 258.982C201.726 259.252 201.752 259.844 201.526 260.239C201.301 260.636 200.893 260.868 200.485 261.016C200.447 261.208 200.646 262.487 200.54 262.503C200.136 262.557 199.849 262.812 199.759 263.201C199.603 263.862 199.131 264.435 199.301 265.192C199.506 266.091 199.479 266.244 199.156 267.003C198.991 267.388 198.82 267.772 198.658 268.157C198.532 268.456 198.543 268.911 198.617 269.344C198.646 269.514 198.621 269.755 198.526 269.882C197.878 270.741 197.792 270.925 197.783 271.823C197.779 272.367 197.791 272.911 197.776 273.455C197.773 273.613 197.86 273.869 197.552 273.84C197.357 273.824 197.07 273.909 196.98 273.798C196.673 273.429 196.406 273.012 196.182 272.579C195.905 272.044 195.689 271.498 195.136 271.17C194.851 271.002 194.684 270.59 194.485 270.272C194.302 269.977 194.134 269.716 193.742 269.737C193.52 269.748 193.402 269.527 193.589 269.361C194.123 268.89 193.784 268.279 193.86 267.737C193.868 267.674 193.817 267.545 193.782 267.541C193.061 267.456 193.379 266.764 193.178 266.379C192.932 265.903 193.163 265.276 193.146 264.75C192.788 264.903 192.408 264.324 192.656 264.007C192.794 263.833 193.068 263.701 193.009 263.481C192.98 263.371 192.875 263.313 192.796 263.234C192.614 263.056 192.571 262.772 192.544 262.508C192.438 261.489 192.398 260.461 192.429 259.436C192.433 259.306 192.438 259.171 192.394 259.05C192.346 258.919 192.244 258.819 192.153 258.716C191.506 257.967 191.391 256.741 191.886 255.866C191.885 255.836 191.882 255.806 191.881 255.776C191.929 255.76 191.973 255.776 192.022 255.748C192.14 255.68 192.322 255.833 192.441 255.848C192.63 255.872 192.869 255.836 193.03 255.729C193.369 255.502 193.382 255.301 193.871 255.486C194.126 255.583 194.38 255.723 194.65 255.703C194.728 255.698 194.805 255.678 194.881 255.66C194.997 255.63 195.114 255.603 195.232 255.574C195.402 255.531 195.575 255.488 195.729 255.399C196.084 255.191 196.231 255.091 196.626 255.134C197.085 255.182 197.541 255.234 197.991 255.349C198.078 255.371 198.168 255.395 198.255 255.373C198.416 255.331 198.503 255.147 198.623 255.024C198.781 254.865 199.021 254.807 199.226 254.879C199.416 254.948 199.569 255.113 199.762 255.173C199.884 255.21 200.012 255.201 200.137 255.19C200.888 255.121 201.635 254.985 202.365 254.785C202.897 254.639 203.494 254.516 203.96 254.793C203.96 254.819 203.957 254.843 203.955 254.867C203.935 255.241 203.706 255.558 203.487 255.849ZM257.098 281.89C256.655 281.865 256.381 282.071 256.081 282.368C255.82 282.625 255.505 282.831 255.185 282.996C254.562 283.321 254.025 283.702 253.637 284.369C253.404 284.767 252.953 285.023 252.576 285.31C252.492 285.375 252.315 285.288 252.181 285.288C252.05 285.288 251.827 285.266 251.799 285.331C251.565 285.889 251.179 285.843 250.753 285.681C250.272 286.22 249.603 286.07 249.023 286.193C248.196 286.369 247.459 286.877 246.579 286.884C246.278 286.886 245.966 287.24 245.687 287.474C245.555 287.585 245.504 287.803 245.387 287.947C244.999 288.421 244.862 288.413 244.519 287.942C244.496 287.912 244.484 287.872 244.459 287.845C244.288 287.674 244.132 287.409 243.935 287.366C243.703 287.316 243.385 287.872 243.371 288.243C243.368 288.355 243.387 288.477 243.421 288.585C243.469 288.743 243.523 288.898 243.292 288.902C243.197 288.903 243.071 288.864 243.007 288.796C242.743 288.513 242.481 288.429 242.17 288.457C241.526 288.514 240.889 288.824 240.23 288.527C240.065 288.453 239.961 288.519 240.021 288.74C240.032 288.775 240.04 288.818 240.03 288.851C239.93 289.164 239.825 289.476 239.723 289.789C239.198 289.605 239.521 289.134 239.45 288.802C239.352 288.336 239.231 288.259 238.832 288.562C238.599 288.736 238.138 288.733 238.286 289.262C238.091 289.293 237.891 289.37 237.705 289.34C237.615 289.326 237.551 289.114 237.476 288.99C237.42 289.158 237.353 289.324 237.31 289.499C237.238 289.785 237.145 289.901 236.88 289.671C236.73 289.542 236.531 289.447 236.34 289.405C236.061 289.344 236.14 289.606 236.1 289.768C236.093 289.794 235.946 289.823 235.915 289.792C235.35 289.206 234.521 289.434 233.878 289.027C233.676 288.899 233.208 288.954 232.883 288.979C232.492 289.013 232.145 289.193 231.814 288.796C231.754 288.724 231.494 288.85 231.326 288.882C230.903 288.963 230.903 288.963 230.023 288.518C229.99 288.501 229.959 288.475 229.927 288.471C229.077 288.391 228.226 288.305 227.376 288.253C227.249 288.245 227.061 288.39 227 288.518C226.944 288.637 227.178 288.916 226.845 288.899C226.735 288.894 226.571 288.775 226.533 288.668C226.208 287.727 225.367 287.472 224.664 287.103C224.209 286.864 223.62 286.809 223.1 286.843C222.393 286.889 221.955 286.565 221.566 285.994C221.364 285.698 221.119 285.319 220.83 285.238C220.418 285.123 219.945 285.229 219.503 285.285C219.435 285.294 219.567 285.673 219.269 285.645C219.044 285.624 218.706 285.743 218.887 285.248C218.904 285.201 218.786 285.098 218.732 285.022C218.669 285.098 218.579 285.163 218.547 285.252C218.451 285.515 218.672 285.977 218.301 286.035C217.895 286.1 217.741 285.579 217.751 285.313C217.767 284.863 217.625 284.98 217.412 285.079C217.214 285.172 217.054 285.152 217.022 284.887C216.919 284.036 216.44 283.72 215.695 283.78C214.846 283.847 214.14 283.428 213.574 282.845C213.076 282.332 212.487 282.161 211.884 281.965C211.766 281.926 211.541 281.948 211.49 282.032C211.162 282.566 211.029 282.258 210.838 281.912C210.656 281.584 210.386 281.315 210.202 280.989C209.996 280.621 209.261 280.793 209.403 280.152C209.501 279.716 209.08 279.231 209.537 278.858C209.372 278.32 209.576 277.815 209.621 277.293C209.695 276.459 209.822 275.691 210.41 275.086C210.441 275.055 210.355 274.89 210.324 274.788C209.965 274.962 209.877 274.746 209.875 274.417C209.874 274.028 209.87 273.639 209.875 273.247C209.88 272.897 209.998 272.729 210.341 272.917C210.551 273.034 210.668 272.939 210.721 272.699C210.753 272.549 210.84 272.409 210.854 272.26C210.89 271.885 211.02 271.448 210.893 271.144C210.699 270.681 211.227 270.613 211.166 270.243C211.106 269.867 211.193 269.463 211.161 269.077C211.097 268.312 211.368 267.714 211.873 267.217C212.228 266.868 212.415 266.491 212.486 265.934C212.59 265.109 212.774 264.246 213.316 263.592C213.568 263.29 213.285 262.645 213.888 262.602C214.031 262.169 214.192 261.739 214.311 261.298C214.422 260.879 214.571 260.508 214.887 260.216C215.043 260.074 215.212 259.862 215.24 259.658C215.414 258.422 215.981 257.428 216.767 256.547C217.43 255.803 216.641 255.175 217.055 254.477C217.253 254.144 217.686 254.199 217.97 254.042C217.85 253.912 217.689 253.804 217.545 253.693C217.637 253.485 217.711 253.257 217.737 253.023C217.887 252.999 218.037 253.009 218.196 252.924C218.839 252.581 219.384 252.407 220.094 252.66C220.77 252.903 221.433 253.231 222.19 252.984C222.368 252.928 222.616 253.04 222.81 253.125C224.22 253.732 225.7 253.941 227.19 254.141C227.766 254.219 228.116 253.807 228.556 253.576C228.508 253.513 228.453 253.392 228.41 253.397C227.996 253.438 228.083 253.256 228.272 253.041C228.426 252.866 228.612 252.53 228.718 253.083C229.093 253.14 229.458 253.225 229.754 253.516C229.776 253.538 229.951 253.455 229.964 253.393C230.028 253.133 230.024 252.849 230.122 252.61C230.173 252.482 230.394 252.34 230.516 252.361C230.811 252.416 230.638 252.588 230.571 252.763C230.518 252.904 230.572 253.096 230.579 253.264C230.734 253.203 230.894 253.154 231.044 253.076C231.202 252.992 230.901 252.492 231.3 252.669C231.526 252.769 231.619 253.087 231.367 253.348C231.341 253.374 231.3 253.403 231.297 253.434C231.286 253.538 231.29 253.644 231.288 253.75C231.383 253.728 231.533 253.737 231.562 253.677C231.736 253.315 231.909 253.22 232.204 253.558C232.418 253.805 232.626 253.626 232.867 253.529C233.033 253.461 233.29 253.739 233.518 253.766C233.976 253.821 234.439 253.835 234.898 253.814C235.651 253.781 236.383 253.809 237.115 254.074C237.609 254.252 238.138 254.216 238.674 254.181C240.393 254.07 242.306 254.574 243.972 254.007C244.212 253.925 244.463 253.814 244.71 253.875C244.774 253.892 244.845 253.919 244.908 253.893C245.067 253.825 245.004 253.499 245.165 253.437C245.251 253.465 245.334 253.492 245.42 253.521C245.431 253.597 245.419 253.676 245.389 253.744C245.927 253.985 246.622 253.553 246.704 252.929C246.713 252.862 246.717 252.789 246.754 252.736C246.826 252.63 246.991 252.652 247.073 252.748C247.157 252.842 247.181 252.982 247.195 253.112C247.206 253.206 247.215 253.305 247.278 253.37C247.34 253.434 247.47 253.421 247.484 253.331C247.438 253.558 247.528 253.813 247.706 253.947C247.883 253.684 248.057 253.419 248.232 253.156C248.275 253.24 248.394 253.229 248.463 253.169C248.534 253.112 248.575 253.021 248.638 252.956C248.796 252.795 249.047 252.814 249.253 252.888C249.458 252.961 249.657 253.079 249.873 253.084C249.937 253.085 249.996 253.045 250.059 253.019C249.997 253.442 249.944 253.866 250.383 254.189C250.43 254.224 250.478 254.335 250.463 254.391C250.211 255.255 250.76 256.024 250.709 256.87C250.676 257.414 250.798 257.818 251.393 258.04C252.002 258.266 251.958 259.052 252.156 259.611C252.183 259.684 252.092 259.812 252.045 259.906C251.624 260.764 251.699 261.556 252.294 262.185C252.408 262.305 252.566 262.294 252.54 262.587C252.469 263.41 253.173 264.026 253.127 264.873C253.12 265.005 253.324 265.205 253.471 265.28C253.881 265.488 254.013 265.749 253.766 266.198C253.72 266.282 253.747 266.517 253.778 266.526C254.632 266.773 254.372 267.653 254.541 268.235C254.67 268.675 254.858 268.988 255.134 269.291C255.16 269.319 255.186 269.342 255.214 269.368C256.306 270.387 256.335 270.391 256.217 271.781C256.127 272.837 256.248 273.816 256.759 274.74C256.956 275.095 257.055 275.517 257.177 275.916C257.398 276.648 257.569 277.383 258.137 277.949C258.438 278.249 258.638 278.707 258.792 279.132C258.903 279.441 258.91 279.816 258.886 280.157C258.856 280.613 257.544 281.916 257.098 281.89ZM273.871 252.258C273.785 252.271 273.649 252.386 273.646 252.456C273.635 253.027 273.418 253.666 273.79 254.144C274.148 254.607 273.925 254.888 273.628 255.096C273.048 255.502 272.985 256.057 272.914 256.747C272.801 257.877 272.586 259.009 271.87 259.956C271.645 260.256 271.53 260.707 271.396 261.109C271.1 262.001 270.646 262.845 270.164 263.644C269.827 264.203 269.768 264.819 270.086 265.23C270.571 265.856 270.241 266.486 270.334 267.101C270.345 267.165 270.3 267.286 270.257 267.303C269.771 267.481 269.768 268.018 269.541 268.387C269.199 268.946 268.889 268.921 268.5 268.346C268.333 268.098 268.205 267.807 268.007 267.592C267.786 267.352 267.521 267.024 267.252 266.995C266.711 266.94 266.288 266.816 266.02 266.257C265.888 265.984 265.846 266.32 265.762 266.337C265.654 266.359 265.431 266.296 265.431 266.278C265.439 265.978 265.372 265.55 265.525 265.405C266.051 264.913 265.72 264.312 265.801 263.773C265.833 263.552 265.691 263.549 265.525 263.601C265.197 263.704 265.151 263.44 265.178 263.208C265.265 262.422 265.032 261.785 264.58 261.169C264.38 260.895 264.38 260.447 264.291 260.079C264.247 259.898 264.223 259.563 264.161 259.557C263.588 259.487 263.809 259.176 263.927 258.845C264.05 258.5 264.177 258.139 264.204 257.776C264.244 257.246 264.22 256.707 264.177 256.174C264.137 255.691 263.994 255.237 264.039 254.722C264.084 254.205 263.913 253.666 263.823 253.137C263.813 253.076 263.734 252.982 263.685 252.979C263.539 252.974 263.471 252.876 263.385 252.8C263.385 252.752 263.386 252.703 263.389 252.654C263.455 252.474 263.49 252.265 263.599 252.124C263.663 252.038 263.857 252.009 263.973 252.044C264.194 252.108 264.059 252.24 264.004 252.385C263.836 252.837 263.865 252.789 264.344 252.946C264.787 253.092 265.173 253.19 265.58 252.86C265.683 252.776 265.916 252.761 266.026 252.831C266.399 253.07 266.741 252.907 267.075 252.783C267.589 252.592 268.077 252.455 268.643 252.594C269.002 252.681 269.419 252.559 269.736 252.266C269.838 252.173 269.934 252.075 270.034 251.98C269.907 251.926 269.782 251.868 269.651 251.821C269.562 251.79 269.469 251.777 269.378 251.754C269.472 251.601 269.558 251.441 269.663 251.3C269.813 251.105 269.888 251.193 269.915 251.4C269.92 251.437 269.943 251.499 269.958 251.499C270.163 251.511 270.431 251.43 270.551 251.541C270.686 251.666 270.676 251.967 270.753 252.18C270.764 252.214 270.969 252.219 270.978 252.192C271.085 251.903 271.161 251.601 271.264 251.312C271.327 251.136 271.401 250.954 271.509 250.812C271.552 250.755 271.714 250.761 271.8 250.799C271.919 250.853 271.978 251.329 272.088 251.464C272.259 251.675 272.507 251.816 272.766 251.837C273.13 251.865 273.489 251.678 273.855 251.697C273.985 251.705 274.101 251.791 274.227 251.839C274.223 252.036 274.155 252.213 273.871 252.258Z" fill="#EEEEEE"/>
<path d="M295 429.5C295 431.433 277.091 433 255 433C232.909 433 215 431.433 215 429.5V440.5C215 442.433 232.909 444 255 444C277.091 444 295 442.433 295 440.5V429.5Z" fill="#C4C4C4"/>
</svg>
