<svg width="32" height="32" viewBox="0 0 32 32" fill="none" xmlns="http://www.w3.org/2000/svg">
<path fill-rule="evenodd" clip-rule="evenodd" d="M16.0771 27.3361C15.9303 27.9414 15.7449 28.3611 15.5324 28.5955C15.32 28.8299 15.0418 29.0752 14.6871 29.3314C14.3059 29.5986 13.8533 29.822 13.3298 30.0075C12.8064 30.1929 12.2289 30.2418 11.5915 30.1433L7.10451 29.522C6.9417 29.5001 6.7767 29.5001 6.6139 29.522C6.47225 29.5439 6.33576 29.5548 6.20506 29.5548C5.98164 29.5548 5.69835 29.6038 5.35518 29.7074C5.00622 29.8053 4.73902 29.9527 4.5478 30.1433L3 27.6033C3.19058 27.3909 3.35991 27.2434 3.50671 27.1565C3.6593 27.0747 3.83378 26.982 4.0353 26.8893C4.65919 26.599 5.32897 26.4199 6.01448 26.3601C6.31451 26.3388 6.60875 26.333 6.89204 26.344C7.19224 26.3547 7.49282 26.3439 7.79149 26.3118C8.36451 26.4096 8.9414 26.4966 9.51957 26.5732C10.1029 26.655 10.6862 26.7367 11.2695 26.8243C11.9069 26.8243 12.3383 26.7586 12.5611 26.6331C12.6815 26.5674 12.8663 26.4476 13.1225 26.2789C13.3788 26.1096 13.635 25.8592 13.8913 25.5263C13.3247 25.4664 12.7517 25.3576 12.1632 25.1992C11.6392 25.0647 11.1225 24.9029 10.6154 24.7144L12.2778 20.5932C11.444 20.1135 10.8658 19.7317 10.533 19.4375C10.2117 19.1516 9.94739 18.8075 9.75393 18.4234C9.47579 17.9328 9.29615 17.4583 9.21954 17.0005C9.14299 16.5946 9.10847 16.1818 9.11652 15.7688C9.12682 15.1314 9.27426 14.4277 9.5685 13.6538C9.86274 12.8851 10.4132 12.1923 11.2206 11.5871C11.8894 11.0765 12.5455 10.5495 13.1882 10.0064C13.8673 9.42095 14.5013 8.78518 15.085 8.10451C14.3001 7.70082 13.908 7.05762 13.908 6.17426C13.908 5.57549 14.1147 5.06814 14.5345 4.63741C14.9543 4.21247 15.4726 4 16.0771 4C16.6714 4 17.1845 4.21247 17.6095 4.63741C18.0344 5.06814 18.2469 5.57484 18.2469 6.17426C18.2469 7.04667 17.8541 7.68987 17.0693 8.10451C17.6444 8.786 18.2714 9.42187 18.9448 10.0064C19.5771 10.5466 20.2422 11.0752 20.9343 11.5877C21.7301 12.1929 22.2754 12.8851 22.5587 13.6538C22.8478 14.4277 23.0055 15.1308 23.0223 15.7688C23.0223 16.1339 22.9901 16.5427 22.9128 17.0005C22.8356 17.4583 22.6682 17.9328 22.401 18.4234C22.1902 18.8039 21.9176 19.1466 21.5942 19.4375C21.2723 19.7317 20.6999 20.1135 19.8771 20.5932L21.5395 24.7138C21.0202 24.8992 20.4928 25.0612 19.9589 25.1992C19.3697 25.3576 18.8083 25.4664 18.263 25.5263C18.5083 25.8592 18.7594 26.1096 19.0156 26.2783C19.2719 26.4476 19.4625 26.568 19.5932 26.6324C19.8166 26.7586 20.2473 26.8236 20.8854 26.8236C21.4627 26.737 22.0404 26.6533 22.6186 26.5725C23.2033 26.4953 23.7867 26.4081 24.3685 26.3111C24.6518 26.344 24.9416 26.3549 25.2352 26.344C25.537 26.3332 25.8392 26.3385 26.1404 26.3601C26.8247 26.4255 27.4933 26.6044 28.1189 26.8893C28.3102 26.982 28.484 27.0747 28.6372 27.1565C28.795 27.2434 28.9643 27.3909 29.1549 27.6033L27.5903 30.1433C27.3998 29.9527 27.1326 29.8053 26.7836 29.7074C26.4398 29.6044 26.1623 29.5548 25.9492 29.5548C25.8075 29.5548 25.6659 29.5439 25.5242 29.5226C25.3634 29.5008 25.2003 29.5008 25.0394 29.5226L20.5634 30.1433C19.926 30.2418 19.3318 30.198 18.7864 30.0184C18.2359 29.8381 17.7833 29.5986 17.4343 29.2986C17.1441 29.0638 16.8642 28.8166 16.5954 28.5575C16.3881 28.3502 16.2136 27.9414 16.0771 27.3361Z" fill="#1F1A17"/>
<path fill-rule="evenodd" clip-rule="evenodd" d="M16.6392 25.5263C16.6392 26.2294 16.7969 26.8294 17.124 27.3252C17.4459 27.821 17.7943 28.2086 18.1709 28.4809C18.7536 28.9116 19.6099 29.1247 20.7379 29.1247C21.016 29.1247 21.5614 29.0642 22.3681 28.9445C22.899 28.8592 23.4314 28.7827 23.9649 28.7153C24.3685 28.6663 24.6409 28.6283 24.7825 28.5955C25.2071 28.5412 25.6374 28.5521 26.0586 28.6277C26.2273 28.6715 26.4185 28.7101 26.6252 28.7481C26.8177 28.779 26.9974 28.8638 27.1435 28.9928L27.9123 27.7501C27.4755 27.5245 27.0063 27.3681 26.5216 27.2866C25.7155 27.1449 25.0066 27.1179 24.3962 27.1894C24.216 27.2106 23.9816 27.2653 23.6874 27.3471C23.3931 27.4347 23.0004 27.5164 22.4988 27.5866C21.4197 27.7617 20.8525 27.8435 20.7875 27.8435C20.3728 27.8435 20.0129 27.7939 19.7026 27.6851C19.4189 27.5875 19.142 27.471 18.874 27.3362C18.3074 27.0799 17.7344 26.4747 17.1459 25.5269L16.6392 25.5263ZM15.5047 25.5263H14.9929C14.3928 26.4856 13.8262 27.0908 13.2809 27.3362C13.0247 27.4617 12.7465 27.5763 12.4362 27.6851C12.1252 27.7946 11.7711 27.8435 11.3674 27.8435C11.2914 27.8435 10.7242 27.7617 9.65606 27.5872C9.14871 27.5164 8.73987 27.434 8.44563 27.3471C8.21484 27.2797 7.98001 27.227 7.74255 27.1894C7.13219 27.1185 6.42911 27.1456 5.61658 27.2872C5.13672 27.3672 4.67283 27.5237 4.24261 27.7508L5.01137 28.9934C5.13691 28.8679 5.3056 28.7861 5.51292 28.7481C5.72024 28.7095 5.91082 28.6715 6.0795 28.6283C6.50072 28.5525 6.93104 28.5414 7.3556 28.5955C7.49725 28.6277 7.76959 28.6663 8.17328 28.7153C8.57633 28.7642 9.11652 28.8408 9.78676 28.9445C10.5826 29.0642 11.1279 29.1247 11.4163 29.1247C12.534 29.1247 13.3897 28.9116 13.984 28.4809C14.349 28.2086 14.6922 27.8216 15.0141 27.3252C15.3412 26.8294 15.5047 26.2294 15.5047 25.5263ZM16.0778 19.5083C17.1079 19.5083 18.0994 19.5901 19.0485 19.7478C20.0896 19.3776 20.8474 18.7943 21.3161 18.0094C21.7193 17.3281 21.9286 16.5495 21.9213 15.7579C21.9213 15.2673 21.8009 14.7277 21.5556 14.1335C21.3109 13.5444 20.9124 13.0106 20.3568 12.5303C19.7296 12.0075 19.0433 11.4351 18.2964 10.8138C17.5045 10.142 16.7628 9.41313 16.0771 8.63311C15.3303 9.46174 14.5892 10.1919 13.843 10.8138C13.1584 11.3827 12.4768 11.9551 11.7981 12.5309C11.2315 13.0106 10.833 13.5444 10.5935 14.1335C10.3533 14.7277 10.2336 15.2666 10.2336 15.7579C10.2336 16.5756 10.43 17.3276 10.8221 18.0094C11.2805 18.7943 12.0434 19.3776 13.1064 19.7478C14.0883 19.5854 15.0819 19.5052 16.0771 19.5083H16.0778ZM16.0778 22.414C17.3255 22.414 18.5199 22.5389 19.6698 22.7842L18.9068 20.8166C17.9708 20.6686 17.0247 20.5939 16.0771 20.5932C15.1068 20.5932 14.1585 20.6691 13.2378 20.8166L12.469 22.7842C13.608 22.5395 14.8126 22.414 16.0771 22.414H16.0778ZM16.0778 7.25915C16.8027 7.25915 17.162 6.89924 17.162 6.17427C17.162 5.4493 16.8021 5.08424 16.0771 5.08424C15.3521 5.08424 14.9929 5.4493 14.9929 6.17427C14.9929 6.89924 15.3521 7.25915 16.0771 7.25915H16.0778ZM16.0778 24.6487C16.7867 24.6501 17.4943 24.5898 18.1928 24.4685C18.8791 24.3436 19.5449 24.1961 20.1823 24.0274C18.9332 23.7004 17.5657 23.5317 16.0771 23.5317C14.5673 23.5317 13.1991 23.7004 11.9726 24.0274C12.5888 24.1961 13.2429 24.3429 13.935 24.4691C14.6426 24.5902 15.3593 24.6503 16.0771 24.6487H16.0778Z" fill="white"/>
<path d="M20.127 14.4816C20.1009 14.4706 20.0736 14.4629 20.047 14.4535C20.0273 14.4467 20.0078 14.4401 19.9881 14.4333C19.967 14.4261 19.9465 14.4142 19.9269 14.4391C19.9229 14.4442 19.9083 14.4443 19.9009 14.4409C19.861 14.4227 19.8221 14.422 19.7817 14.4391C19.7721 14.4431 19.7598 14.4409 19.7488 14.4402C19.7305 14.4391 19.7121 14.4359 19.6938 14.4351C19.6793 14.4345 19.6622 14.4316 19.6508 14.4385C19.6438 14.4427 19.6454 14.4636 19.6428 14.4769C19.642 14.4807 19.641 14.4865 19.6385 14.4878C19.6312 14.4914 19.623 14.4931 19.6153 14.4957C19.6157 14.4894 19.615 14.4828 19.6167 14.4769C19.6205 14.4627 19.6361 14.4441 19.6155 14.4362C19.589 14.4259 19.5931 14.4541 19.5901 14.4698C19.5885 14.478 19.5899 14.4875 19.5789 14.4829C19.5732 14.4804 19.566 14.4729 19.5656 14.4672C19.565 14.4576 19.5699 14.4477 19.5712 14.4378C19.5717 14.4338 19.5686 14.4294 19.5671 14.4251C19.5336 14.4459 19.5208 14.4052 19.4972 14.3967C19.4851 14.3923 19.4805 14.3952 19.4754 14.4052C19.4619 14.4314 19.4377 14.433 19.4174 14.4251C19.3941 14.416 19.3732 14.4014 19.3474 14.4135C19.3308 14.3869 19.3156 14.4179 19.2978 14.4151C19.2619 14.4098 19.2257 14.4074 19.1895 14.4042C19.1706 14.4026 19.1499 14.3973 19.131 14.398C19.1171 14.3985 19.1064 14.4064 19.0922 14.4077C19.0814 14.4088 19.0694 14.4044 19.0639 14.3942C19.0616 14.3899 19.06 14.3841 19.0556 14.3828C19.051 14.3813 19.0469 14.3854 19.0428 14.3883C19.0293 14.3976 19.0135 14.3916 18.9976 14.3848C19 14.3819 19 14.379 19.0033 14.3762C19.0057 14.3742 19.0098 14.3709 19.0095 14.3689C19.0033 14.3313 19.028 14.2884 18.9933 14.2557C18.9935 14.2275 18.9638 14.2039 18.9837 14.172C18.9869 14.1667 18.9804 14.154 18.9783 14.1447C18.9762 14.1353 18.9701 14.1243 18.9724 14.1166C18.9827 14.084 18.975 14.0635 18.9456 14.0482C18.9278 14.039 18.932 14.017 18.9333 13.999C18.9346 13.9823 18.9473 13.9843 18.9578 13.9808C18.965 13.9786 18.9726 13.9708 18.9761 13.9634C18.9902 13.9332 18.9902 13.8979 18.9857 13.8651C18.9838 13.8514 18.988 13.8507 18.9793 13.8369C18.976 13.8316 18.9532 13.8197 18.9526 13.8165C18.9483 13.7883 18.9439 13.7599 18.9395 13.7317C18.9373 13.7172 18.934 13.7009 18.9222 13.6937C18.91 13.6861 18.8908 13.6896 18.8849 13.6759C18.8809 13.6665 18.8873 13.655 18.8959 13.6506C18.9046 13.6462 18.9147 13.6471 18.9242 13.6479C18.9121 13.6186 18.8764 13.6095 18.8598 13.5827C18.8506 13.568 18.8483 13.5496 18.8463 13.5319C18.8415 13.4902 18.8366 13.4485 18.8318 13.4067C18.8071 13.3968 18.7864 13.376 18.7753 13.3503C18.7676 13.3518 18.7593 13.3531 18.7522 13.3494C18.7452 13.3458 18.7409 13.3348 18.7462 13.3284C18.748 13.3262 18.7508 13.3249 18.7533 13.3236C18.7722 13.3136 18.7857 13.2843 18.7702 13.269C18.7588 13.2576 18.7407 13.2626 18.7261 13.2682C18.7251 13.2534 18.7317 13.2382 18.7429 13.2296C18.7238 13.1985 18.7161 13.1525 18.6954 13.1246C18.6783 13.1017 18.6555 13.1013 18.6519 13.0658C18.6511 13.0578 18.6519 13.0496 18.6514 13.0416C18.6512 13.0378 18.6494 13.0341 18.6484 13.0304C18.6451 13.0337 18.6417 13.0369 18.6385 13.0402C18.6234 13.0562 18.624 13.0558 18.612 13.0374C18.6084 13.0318 18.6004 13.0295 18.5943 13.0258C18.5916 13.0323 18.5875 13.0386 18.5863 13.0454C18.5847 13.0543 18.6001 13.0702 18.578 13.07C18.5626 13.07 18.5622 13.0561 18.5621 13.0437C18.562 13.0376 18.5608 13.0308 18.5628 13.0255C18.5829 12.9742 18.5316 12.9558 18.5205 12.9189C18.5194 12.9154 18.499 12.9192 18.4977 12.9155C18.4907 12.8951 18.4865 12.8735 18.4819 12.852C18.4776 12.8311 18.4397 12.8259 18.4585 12.7936C18.4589 12.7929 18.4488 12.7812 18.4435 12.7811C18.4198 12.7805 18.4068 12.7651 18.3943 12.7463C18.3858 12.7337 18.3761 12.7211 18.3647 12.7116C18.3263 12.6795 18.3259 12.68 18.2996 12.6265C18.2922 12.6113 18.2616 12.6012 18.2576 12.6137C18.2495 12.6393 18.2418 12.6301 18.2285 12.6232C18.207 12.6119 18.1936 12.5964 18.1885 12.5694C18.185 12.5501 18.1709 12.5248 18.1525 12.5308C18.127 12.5392 18.1246 12.5205 18.115 12.5082C18.108 12.4995 18.0988 12.4816 18.0949 12.4829C18.066 12.4926 18.0701 12.4721 18.0679 12.4538C18.066 12.4386 18.0603 12.4239 18.0562 12.409C18.0525 12.3959 18.0467 12.383 18.0457 12.3698C18.0445 12.3536 18.0394 12.3473 18.0249 12.3401C18.0038 12.3297 17.986 12.298 17.9671 12.2984C17.9316 12.2993 17.929 12.2767 17.9218 12.2524C17.9214 12.2511 17.9183 12.2493 17.9172 12.2498C17.9066 12.254 17.8962 12.2533 17.9033 12.2386C17.9145 12.2154 17.9058 12.2033 17.8872 12.197C17.8144 12.1723 17.8156 12.1289 17.7196 12.1482C17.7178 12.1486 17.7159 12.148 17.714 12.148C17.6926 12.1486 17.6769 12.1407 17.6759 12.1148C17.6751 12.0943 17.6673 12.0812 17.6487 12.0912C17.6318 12.1003 17.6312 12.0797 17.6234 12.0797C17.6177 12.0797 17.6131 12.0943 17.606 12.0976C17.6018 12.0996 17.5892 12.0932 17.5883 12.0889C17.5841 12.0644 17.5724 12.0579 17.5528 12.069C17.5314 12.0812 17.5185 12.0732 17.5072 12.0521C17.4939 12.0275 17.4785 12.0053 17.4489 12.0007C17.4409 11.9994 17.4336 11.9898 17.4271 11.9827C17.4078 11.9616 17.3916 11.9363 17.3569 11.9518C17.3496 11.9551 17.3323 11.9426 17.3245 11.9328C17.3041 11.9066 17.278 11.905 17.2499 11.9046C17.2167 11.904 17.2146 11.9007 17.2159 11.8666C17.2161 11.8607 17.2171 11.8546 17.219 11.849C17.2247 11.8321 17.2161 11.8381 17.2062 11.836C17.1729 11.8291 17.1399 11.8192 17.1077 11.8073C17.0973 11.8035 17.0833 11.791 17.0823 11.7811C17.0802 11.7594 17.0743 11.7574 17.0546 11.7535C17.031 11.7488 16.992 11.7213 16.9865 11.7274C16.9707 11.7444 16.9342 11.7041 16.9315 11.7516C16.9315 11.7534 16.9256 11.7547 16.9225 11.7563C16.9151 11.7277 16.8978 11.7622 16.8865 11.7494C16.8677 11.7281 16.8482 11.7325 16.8265 11.7479C16.8158 11.7556 16.7951 11.7616 16.7867 11.7556C16.7662 11.7412 16.7502 11.7306 16.7322 11.7569C16.7013 11.7483 16.6703 11.7397 16.6393 11.731C16.6409 11.7002 16.6036 11.6855 16.6151 11.6469C16.6301 11.5967 16.6297 11.5479 16.56 11.5172C16.547 11.5114 16.5421 11.5043 16.5429 11.491C16.5435 11.4812 16.5425 11.4664 16.5477 11.4628C16.5698 11.4471 16.5624 11.424 16.5645 11.4029C16.5672 11.3789 16.5641 11.362 16.5363 11.3644C16.5352 11.3645 16.5305 11.3494 16.5321 11.3427C16.5358 11.3273 16.5428 11.3129 16.5473 11.2976C16.5493 11.2907 16.5512 11.2792 16.5479 11.2758C16.5217 11.2487 16.5236 11.2092 16.5091 11.1771C16.5054 11.1689 16.502 11.159 16.4954 11.154C16.461 11.1273 16.4608 11.1247 16.4675 11.0829C16.4722 11.0535 16.4776 11.0222 16.4729 10.9935C16.4689 10.9699 16.4706 10.9342 16.4323 10.9317C16.4173 10.9308 16.4171 10.9149 16.4223 10.9036C16.4331 10.8797 16.4321 10.8616 16.4083 10.8479C16.4024 10.8446 16.3987 10.8366 16.3944 10.8302C16.3534 10.7684 16.331 10.6997 16.3292 10.6233C16.329 10.6155 16.3286 10.6026 16.3248 10.6009C16.2882 10.5839 16.3047 10.5625 16.3161 10.5372C16.322 10.5241 16.3228 10.5008 16.3157 10.4901C16.2935 10.4567 16.2965 10.4161 16.2834 10.38C16.2658 10.3314 16.2476 10.2803 16.2604 10.2248C16.2637 10.211 16.2627 10.1955 16.2442 10.1929C16.2267 10.1904 16.2181 10.1767 16.2145 10.1607C16.2104 10.1433 16.2106 10.1243 16.1869 10.1417C16.1851 10.1429 16.1777 10.1399 16.1775 10.1382C16.1754 10.1246 16.1728 10.1107 16.1738 10.0973C16.175 10.0828 16.1854 10.0859 16.1951 10.0882C16.1977 10.0888 16.2041 10.0831 16.2045 10.0796C16.2086 10.046 16.1658 9.9959 16.1356 10.0003C16.1259 10.0016 16.1128 10.0089 16.1088 10.0176C16.0917 10.0551 16.0674 10.088 16.0599 10.1314C16.0528 10.1722 16.0326 10.21 16.0363 10.2537C16.0368 10.2606 16.0313 10.2688 16.0272 10.2755C16.0127 10.2993 16.0114 10.3263 16.0178 10.3514C16.0234 10.3728 16.0176 10.3759 16.0011 10.3754C15.9861 10.375 15.9819 10.386 15.9828 10.3994C15.9846 10.4293 15.9873 10.4591 15.9896 10.489C15.9902 10.4969 15.9923 10.505 15.991 10.5126C15.9851 10.5437 15.9768 10.5743 15.9722 10.6056C15.9694 10.6254 15.9649 10.6505 15.9732 10.6652C15.9967 10.7067 15.9833 10.7462 15.9768 10.7868C15.9711 10.822 15.9651 10.8573 15.9595 10.8926C15.9561 10.9141 15.9459 10.938 15.9513 10.9566C15.9613 10.9908 15.9229 10.9885 15.9217 11.0133C15.9211 11.0256 15.9059 11.0368 15.9045 11.0494C15.8988 11.0989 15.8947 11.1489 15.8926 11.1988C15.8905 11.2483 15.8957 11.2979 15.8928 11.3477C15.8916 11.3698 15.8867 11.3874 15.87 11.3996C15.846 11.417 15.8328 11.4403 15.8231 11.4704C15.8104 11.51 15.7897 11.5431 15.7509 11.5654C15.7107 11.5887 15.6742 11.6243 15.6791 11.6842C15.6797 11.6902 15.6793 11.6964 15.6789 11.7024C15.6777 11.7178 15.6714 11.7246 15.6571 11.717C15.6431 11.7097 15.6363 11.7148 15.635 11.731C15.6335 11.7503 15.6339 11.7702 15.6293 11.7886C15.6245 11.8076 15.624 11.8263 15.5963 11.8356C15.5657 11.846 15.5274 11.8576 15.5133 11.8986C15.5068 11.9175 15.4971 11.9159 15.4829 11.909C15.469 11.9022 15.4575 11.9057 15.4542 11.9249C15.4522 11.9371 15.4461 11.94 15.4343 11.9373C15.4224 11.9345 15.4095 11.9368 15.3973 11.9361C15.3639 11.9342 15.3361 11.9543 15.3054 11.9633C15.2823 11.97 15.2609 11.9843 15.2377 11.9892C15.2144 11.9941 15.193 12.005 15.1673 12.0052C15.1234 12.0056 15.1027 12.0361 15.1002 12.0864C15.1 12.0906 15.0951 12.0982 15.0938 12.0979C15.0875 12.0961 15.0802 12.0936 15.0762 12.0886C15.0741 12.0859 15.0793 12.0777 15.079 12.072C15.0784 12.0606 15.0731 12.0514 15.0616 12.058C15.0241 12.08 14.9824 12.0875 14.9418 12.0975C14.9243 12.1019 14.9153 12.1077 14.9153 12.128C14.9153 12.1334 14.9079 12.1389 14.9039 12.1443C14.9002 12.1382 14.8958 12.1327 14.8933 12.1261C14.8898 12.1171 14.8883 12.1072 14.8847 12.0983C14.8841 12.0967 14.8773 12.098 14.8733 12.098C14.8851 12.1302 14.8618 12.127 14.848 12.1229C14.8109 12.1118 14.7816 12.1494 14.7452 12.1391C14.7419 12.1382 14.7356 12.1447 14.7321 12.149C14.7286 12.1535 14.7265 12.1594 14.7245 12.165C14.7141 12.1943 14.6696 12.2059 14.6873 12.2496C14.6826 12.251 14.6768 12.2549 14.6737 12.2532C14.6623 12.2468 14.6559 12.2526 14.651 12.2619C14.6454 12.2724 14.6391 12.2831 14.6369 12.2945C14.6335 12.3118 14.6287 12.3207 14.6109 12.3119C14.6078 12.3104 14.5984 12.3148 14.5975 12.3181C14.5918 12.3423 14.5768 12.331 14.5629 12.3319C14.5251 12.3342 14.5148 12.3469 14.513 12.3849C14.5104 12.4353 14.498 12.4416 14.449 12.4982C14.4149 12.5375 14.3692 12.5563 14.3365 12.5949C14.3251 12.6084 14.3105 12.616 14.2899 12.6109C14.2575 12.6029 14.236 12.6182 14.2175 12.6511C14.197 12.6878 14.1708 12.7253 14.1386 12.7488C14.097 12.7792 14.0804 12.8162 14.0736 12.8669C14.0687 12.9033 14.0613 12.9406 14.0166 12.953C13.9977 12.9583 13.986 12.9842 13.9765 13.0094C13.9673 13.0336 13.9644 13.0565 13.9613 13.0808C13.9598 13.0927 13.9516 13.0968 13.94 13.1022C13.8826 13.1288 13.8848 13.1311 13.8555 13.2014C13.8491 13.2167 13.8433 13.2284 13.8485 13.2443C13.8038 13.2496 13.8048 13.3015 13.778 13.3255C13.77 13.3326 13.7638 13.3447 13.7614 13.3557C13.7525 13.3984 13.746 13.4417 13.7374 13.4844C13.7357 13.4926 13.7295 13.5043 13.7233 13.506C13.6848 13.5168 13.6774 13.5522 13.6749 13.5848C13.6737 13.6012 13.6651 13.607 13.6615 13.6173C13.6513 13.6466 13.6086 13.6439 13.6104 13.6823C13.6105 13.6832 13.6 13.6874 13.5965 13.6854C13.5662 13.669 13.5639 13.6996 13.5613 13.7145C13.5565 13.742 13.5557 13.7714 13.5593 13.7991C13.5641 13.8359 13.5482 13.8664 13.5351 13.8952C13.5185 13.9317 13.4969 13.963 13.5009 14.008C13.5026 14.0264 13.4898 14.0492 13.4783 14.0658C13.4585 14.0944 13.4337 14.1189 13.4127 14.1467C13.4016 14.1615 13.3818 14.1849 13.4248 14.1788C13.4274 14.1784 13.4342 14.1873 13.4336 14.191C13.4311 14.208 13.4503 14.2434 13.4078 14.2301C13.406 14.2295 13.4008 14.2382 13.3988 14.2433C13.3901 14.2654 13.3796 14.2872 13.3743 14.3103C13.3703 14.3283 13.3657 14.3537 13.3738 14.3661C13.3959 14.3998 13.3765 14.4316 13.3775 14.4638C13.3776 14.4675 13.3714 14.4745 13.3679 14.4747C13.3644 14.4749 13.3598 14.469 13.3572 14.4647C13.3542 14.46 13.3529 14.454 13.3508 14.4485C13.3492 14.452 13.3478 14.4556 13.3461 14.4591C13.3355 14.4801 13.3233 14.5004 13.3148 14.5223C13.3068 14.543 13.2988 14.5651 13.2975 14.587C13.2956 14.6173 13.2957 14.6478 13.2952 14.6782C13.2785 14.685 13.2617 14.6919 13.245 14.6987C13.2331 14.7035 13.2196 14.7083 13.2083 14.7021C13.1988 14.697 13.1909 14.6844 13.1807 14.6875C13.1671 14.6915 13.1619 14.7134 13.1511 14.722C13.1426 14.7288 13.1333 14.7293 13.1236 14.7328C13.0918 14.7442 13.0651 14.7673 13.0315 14.7739C13.0046 14.7792 12.9719 14.785 12.9548 14.8041C12.9394 14.8215 12.9206 14.8331 12.9072 14.8291C12.8912 14.8242 12.8826 14.8305 12.872 14.836C12.8148 14.8657 12.7555 14.8905 12.6923 14.8962C12.6508 14.8999 12.6282 14.9282 12.6116 14.9601C12.6014 14.9797 12.5908 14.971 12.5891 14.9652C12.581 14.9375 12.5602 14.9425 12.5446 14.9459C12.5183 14.9517 12.4932 14.9641 12.4673 14.9727C12.4515 14.978 12.4338 14.9886 12.4195 14.985C12.3898 14.9772 12.368 14.9899 12.3478 15.0078C12.3298 15.0238 12.3109 15.025 12.2905 15.0198C12.2778 15.0165 12.2652 15.0121 12.2531 15.0068C12.2384 15.0003 12.227 15.0057 12.2193 15.0184C12.1958 15.0577 12.1802 15.1016 12.1827 15.1481C12.1837 15.1672 12.1886 15.1783 12.171 15.193C12.1466 15.2132 12.1509 15.2308 12.1773 15.2481C12.1968 15.2608 12.2162 15.2667 12.2396 15.2612C12.2551 15.2577 12.2515 15.2678 12.2454 15.2784C12.2384 15.2904 12.2464 15.297 12.2568 15.299C12.2689 15.3013 12.2648 15.2912 12.2665 15.2841C12.2701 15.269 12.2755 15.2542 12.2816 15.24C12.2827 15.2376 12.2922 15.2375 12.2966 15.2394C12.2995 15.2407 12.3025 15.2482 12.3016 15.2518C12.2983 15.2649 12.2878 15.2794 12.2905 15.2903C12.2959 15.312 12.3155 15.2986 12.3291 15.3009C12.3364 15.3022 12.3436 15.305 12.3507 15.3073C12.398 15.3229 12.4444 15.3481 12.4955 15.3232C12.5315 15.3339 12.5665 15.3114 12.6057 15.3263C12.6402 15.3395 12.682 15.3288 12.7206 15.331C12.7425 15.3323 12.7641 15.3381 12.786 15.3417C12.8104 15.3456 12.8257 15.3457 12.85 15.3424C12.8653 15.3404 12.8803 15.3478 12.8956 15.3495C12.9052 15.3507 12.9151 15.3495 12.9243 15.3462C12.9272 15.3451 12.9301 15.3438 12.9324 15.3415C12.9346 15.3393 12.936 15.3364 12.9383 15.3343C12.9406 15.3321 12.9436 15.3309 12.9462 15.329C12.9716 15.3102 12.9735 15.271 12.9819 15.2422C12.9829 15.2384 12.9844 15.2342 12.9867 15.2314C12.989 15.2289 12.9929 15.2265 12.9958 15.2267C12.9987 15.2269 13.003 15.2298 13.0042 15.2327C13.0102 15.2474 13.0033 15.274 13.0118 15.2846C13.0161 15.2901 13.0272 15.2899 13.0329 15.2932C13.0438 15.2992 13.0529 15.3099 13.0622 15.3183C13.0648 15.3207 13.0676 15.3231 13.0708 15.324C13.0746 15.325 13.0784 15.324 13.0821 15.3225C13.0927 15.3185 13.1025 15.3123 13.1108 15.3041C13.1138 15.3011 13.1168 15.2978 13.1207 15.2962C13.1258 15.294 13.1313 15.2953 13.1367 15.2962C13.1564 15.3001 13.1764 15.3016 13.1964 15.3031C13.2068 15.3039 13.2173 15.3047 13.2277 15.3056C13.2806 15.3095 13.334 15.3094 13.3861 15.3011C13.3865 15.3025 13.386 15.3046 13.3865 15.306C13.4027 15.3456 13.3445 15.4189 13.4113 15.4392C13.4125 15.4523 13.4092 15.4658 13.4018 15.4765C13.4162 15.4661 13.4365 15.4825 13.4385 15.5009C13.4405 15.5194 13.4311 15.5369 13.4219 15.5526C13.4283 15.5546 13.4342 15.5582 13.4389 15.5633C13.4401 15.553 13.4413 15.5427 13.4424 15.5324C13.4518 15.5326 13.4561 15.5463 13.4529 15.5557C13.4497 15.5653 13.4422 15.5722 13.4373 15.5806C13.4275 15.5971 13.4276 15.6181 13.4295 15.6375C13.4322 15.6656 13.4382 15.6933 13.4471 15.7199C13.4572 15.7501 13.4714 15.782 13.4633 15.8129C13.46 15.8259 13.4529 15.8405 13.46 15.8516C13.4632 15.8566 13.4685 15.8594 13.4721 15.864C13.4772 15.8707 13.4778 15.88 13.4783 15.8887C13.4795 15.9146 13.476 15.9476 13.4824 15.9726C13.4869 15.9901 13.4981 16.0059 13.5037 16.0238C13.5072 16.0351 13.5105 16.0465 13.5135 16.058C13.5202 16.0846 13.5276 16.1079 13.5484 16.1291C13.5733 16.1543 13.602 16.1822 13.5931 16.2298C13.5884 16.2546 13.6115 16.2688 13.6273 16.2813C13.6475 16.2975 13.6609 16.3173 13.6706 16.3413C13.6743 16.3504 13.677 16.3608 13.6831 16.3674C13.7354 16.4252 13.789 16.4818 13.841 16.5398C13.8507 16.5507 13.8634 16.5434 13.8694 16.5488C13.877 16.5556 13.8756 16.5734 13.8827 16.5821C13.9077 16.6121 13.9327 16.6429 13.9615 16.6682C13.9902 16.6933 14.0029 16.7413 14.0492 16.7423C14.053 16.7424 14.0593 16.7503 14.0598 16.7552C14.0628 16.7838 14.0794 16.7935 14.1027 16.8029C14.1201 16.81 14.1327 16.8307 14.1473 16.8455C14.1581 16.8566 14.167 16.8726 14.1798 16.8782C14.2256 16.8985 14.2256 16.939 14.2188 16.9794C14.2018 17.0816 14.207 17.1834 14.2156 17.2856C14.2162 17.293 14.217 17.302 14.2138 17.3077C14.2025 17.3284 14.1921 17.3507 14.1765 17.367C14.1587 17.3859 14.1499 17.4069 14.1537 17.4316C14.1587 17.464 14.1371 17.4915 14.1461 17.5263C14.1551 17.5607 14.1134 17.5787 14.1078 17.6118C14.1062 17.6214 14.1005 17.6303 14.0961 17.6392C14.0897 17.6519 14.0892 17.6594 14.0979 17.6752C14.1159 17.7079 14.118 17.748 14.0964 17.7811C14.08 17.8064 14.0794 17.8386 14.0903 17.8544C14.1069 17.8783 14.1066 17.901 14.1086 17.9263C14.1121 17.9688 14.1423 17.9989 14.1806 17.9993C14.2254 17.9998 14.2703 18.0001 14.3152 17.9993C14.3431 17.9987 14.3985 17.9507 14.3985 17.922C14.3983 17.8747 14.4209 17.8395 14.4405 17.8016C14.4437 17.7953 14.4723 17.7629 14.429 17.7769C14.429 17.7702 14.4266 17.7614 14.4296 17.7574C14.4424 17.7403 14.4571 17.7261 14.4561 17.7001C14.4541 17.6495 14.4795 17.6079 14.5032 17.5687C14.533 17.5196 14.5562 17.469 14.5686 17.412C14.5791 17.3635 14.5853 17.3129 14.6103 17.2703C14.6323 17.233 14.6565 17.1983 14.6588 17.1514C14.6595 17.1363 14.6703 17.1242 14.6859 17.1294C14.6992 17.1339 14.7012 17.1294 14.7033 17.1171C14.7047 17.1086 14.71 17.101 14.7137 17.0929C14.7195 17.0998 14.7284 17.1057 14.7304 17.1137C14.7376 17.1408 14.7592 17.1492 14.7785 17.1608C14.7933 17.1699 14.794 17.1692 14.8118 17.148C14.8188 17.1398 14.8233 17.1418 14.8283 17.151C14.8304 17.1549 14.8406 17.1588 14.8409 17.1582C14.857 17.1322 14.862 17.1522 14.8675 17.1658C14.8727 17.1788 14.8704 17.1853 14.8559 17.1788C14.8525 17.1773 14.8487 17.176 14.8452 17.1759C14.8417 17.1759 14.8382 17.1773 14.8346 17.1781C14.8356 17.1806 14.836 17.1841 14.8377 17.1855C14.8541 17.1981 14.8705 17.2106 14.8872 17.2227C14.9208 17.247 14.9548 17.2707 14.9883 17.2953C14.9981 17.3026 14.9969 17.3033 15.0115 17.2895C15.0139 17.2872 15.0236 17.2884 15.0249 17.291C15.0311 17.3032 15.0365 17.3161 15.0403 17.3294C15.0442 17.3434 15.0518 17.3433 15.0613 17.3383C15.0749 17.3311 15.0859 17.3357 15.0833 17.3513C15.0772 17.3864 15.1001 17.3856 15.1199 17.3929C15.1458 17.4026 15.1706 17.4159 15.1957 17.4275C15.2053 17.432 15.2147 17.4397 15.2244 17.44C15.2599 17.4416 15.2966 17.4465 15.3307 17.439C15.3684 17.4306 15.3996 17.44 15.4303 17.4587C15.4871 17.4931 15.5485 17.5062 15.6124 17.5015C15.6547 17.4983 15.6883 17.515 15.7203 17.541C15.7263 17.5458 15.7307 17.5532 15.7371 17.557C15.7479 17.5635 15.755 17.5628 15.7495 17.5458C15.7452 17.5323 15.753 17.527 15.7637 17.5272C15.7802 17.5275 15.7728 17.5385 15.7711 17.5477C15.7699 17.5534 15.7694 17.5607 15.7719 17.5652C15.7742 17.5695 15.7807 17.573 15.7854 17.573C15.7902 17.573 15.7987 17.5688 15.799 17.5656C15.7998 17.556 15.7973 17.5461 15.797 17.5363C15.7969 17.5334 15.7999 17.5283 15.8019 17.528C15.8072 17.5276 15.8158 17.5273 15.8175 17.5305C15.8218 17.5387 15.8221 17.5493 15.8261 17.558C15.8289 17.5642 15.8346 17.5727 15.8398 17.5733C15.8781 17.5777 15.9165 17.582 15.955 17.5828C16.009 17.5839 16.0631 17.5818 16.1172 17.5815C16.1226 17.5815 16.1285 17.5835 16.1332 17.5863C16.1662 17.6058 16.2019 17.5988 16.2369 17.5992C16.2722 17.5996 16.3067 17.6003 16.3416 17.6107C16.4148 17.6325 16.4881 17.6305 16.5599 17.5998C16.5768 17.5926 16.5956 17.5885 16.6137 17.5871C16.6397 17.5851 16.666 17.5871 16.6922 17.5871C16.7184 17.5872 16.7446 17.5872 16.7708 17.5871C16.7981 17.5871 16.8254 17.5874 16.8526 17.5861C16.8777 17.5849 16.9048 17.574 16.9271 17.5814C16.9533 17.5901 16.9711 17.5495 16.9954 17.5743C17.0155 17.5656 17.0423 17.5628 17.0547 17.5468C17.0859 17.5067 17.1283 17.4927 17.1704 17.4807C17.1934 17.4743 17.2116 17.466 17.2275 17.4477C17.2446 17.4279 17.2671 17.4112 17.2915 17.4185C17.3182 17.4265 17.3353 17.4093 17.3558 17.4015C17.3779 17.393 17.3996 17.3841 17.4177 17.3637C17.4404 17.338 17.4675 17.316 17.5051 17.3184C17.5164 17.319 17.5287 17.3099 17.5396 17.3033C17.5906 17.273 17.6336 17.2247 17.6969 17.2216C17.7019 17.2213 17.7074 17.2176 17.7115 17.2138C17.7328 17.1947 17.7538 17.1751 17.7747 17.1555C17.7785 17.1519 17.7845 17.1437 17.7845 17.1437C17.8106 17.1651 17.8528 17.1204 17.8722 17.1684C17.9134 17.1561 17.8993 17.1819 17.8938 17.2037C17.8909 17.2146 17.8883 17.2279 17.8915 17.2379C17.8964 17.2537 17.9079 17.2808 17.9142 17.2801C17.9456 17.2763 17.9746 17.3069 18.0065 17.2869C18.0131 17.2828 18.0151 17.2887 18.0195 17.2963C18.0316 17.3172 18.0494 17.3343 18.065 17.3529C18.1038 17.3422 18.0818 17.3675 18.0818 17.3833C18.0816 17.411 18.0805 17.4408 18.0891 17.4659C18.0948 17.4825 18.103 17.4976 18.1033 17.5161C18.1037 17.5375 18.1134 17.5385 18.129 17.5306C18.1407 17.5246 18.1471 17.5332 18.1466 17.5446C18.146 17.5581 18.1465 17.5779 18.1391 17.5835C18.1186 17.5993 18.1266 17.6196 18.1257 17.6385C18.1243 17.6696 18.1534 17.6874 18.1558 17.7171C18.1589 17.7161 18.162 17.7151 18.1651 17.7142C18.1614 17.7008 18.1637 17.6959 18.178 17.7C18.1879 17.7029 18.1989 17.7013 18.2094 17.7017C18.2083 17.7108 18.2053 17.7202 18.2068 17.7287C18.2078 17.7344 18.2152 17.7426 18.2201 17.7429C18.2552 17.7454 18.2711 17.7719 18.2851 17.8011C18.2952 17.8221 18.2966 17.849 18.318 17.8623C18.335 17.8729 18.3354 17.9113 18.3672 17.8967C18.3682 17.9003 18.3709 17.9051 18.3698 17.9073C18.3639 17.9187 18.3684 17.9227 18.3771 17.9302C18.3946 17.945 18.4121 17.9617 18.4243 17.9813C18.4346 17.9979 18.4463 18.0001 18.4616 17.9999C18.5066 17.9997 18.5514 18.0004 18.5963 17.9997C18.628 17.9992 18.6298 17.9982 18.6295 17.9664C18.6291 17.9372 18.6379 17.9053 18.6153 17.8797C18.6137 17.8779 18.6167 17.8701 18.6189 17.8659C18.6396 17.8235 18.6357 17.7811 18.615 17.7414C18.6088 17.7294 18.6001 17.7223 18.606 17.7069C18.6087 17.7001 18.6091 17.6883 18.6054 17.6833C18.5711 17.6376 18.5636 17.5828 18.5546 17.5273C18.5525 17.5148 18.5491 17.504 18.5492 17.4898C18.5494 17.4375 18.5453 17.3842 18.5023 17.349C18.4912 17.3399 18.4902 17.3352 18.4931 17.3211C18.5021 17.2787 18.4868 17.2413 18.4634 17.2087C18.4272 17.1582 18.4279 17.1044 18.4708 17.0664C18.4839 17.0549 18.4862 17.0431 18.4821 17.0303C18.477 17.017 18.4673 17.0041 18.4592 16.9907C18.4585 16.9896 18.4525 16.99 18.4517 16.9916C18.4437 17.0046 18.4363 17.0093 18.4285 16.9918C18.4235 16.9807 18.4186 16.9696 18.4137 16.9585C18.442 16.9465 18.4137 16.9052 18.4428 16.8925C18.4455 16.8914 18.4446 16.8787 18.4444 16.8715C18.4432 16.8395 18.4383 16.8071 18.4413 16.7757C18.443 16.7576 18.4454 16.747 18.428 16.7378C18.3989 16.7223 18.3899 16.6919 18.3955 16.661C18.4018 16.6262 18.409 16.5887 18.4368 16.5644C18.4657 16.539 18.4823 16.5065 18.4907 16.4683C18.4979 16.4356 18.5123 16.4131 18.5417 16.3953C18.5633 16.3823 18.5717 16.3455 18.5925 16.3287C18.6162 16.3099 18.6461 16.3007 18.6573 16.2664C18.6597 16.259 18.6633 16.2482 18.6686 16.2462C18.7161 16.2295 18.7293 16.1853 18.7432 16.1411C18.7455 16.1339 18.7509 16.1268 18.7566 16.1221C18.7753 16.1065 18.7771 16.0853 18.7761 16.0622C18.7753 16.042 18.7751 16.0216 18.7761 16.0016C18.7769 15.9834 18.7735 15.9785 18.7546 15.9816C18.7393 15.9841 18.7427 15.9652 18.7432 15.954C18.7437 15.9418 18.7499 15.9365 18.7619 15.9409C18.7808 15.948 18.7895 15.933 18.7832 15.9196C18.7712 15.8941 18.7846 15.8864 18.8008 15.88C18.8402 15.8644 18.847 15.8315 18.8423 15.7923C18.8411 15.7825 18.8358 15.7727 18.8364 15.7632C18.8378 15.7397 18.8378 15.7149 18.8458 15.6938C18.8498 15.6831 18.8697 15.6791 18.8827 15.6726C18.8859 15.6709 18.8898 15.6701 18.8934 15.6697C18.9084 15.6676 18.9131 15.6556 18.9082 15.6437C18.9 15.6233 18.8943 15.6091 18.9245 15.6162C18.9253 15.6164 18.9324 15.5994 18.9318 15.5908C18.93 15.5592 18.9382 15.5313 18.9526 15.5044C18.959 15.4926 18.9627 15.4786 18.9654 15.4651C18.9665 15.459 18.9611 15.4456 18.9596 15.4458C18.9457 15.4474 18.9406 15.4407 18.9493 15.4298C18.9838 15.3867 18.9732 15.3443 18.9472 15.3041C18.9354 15.2859 18.9302 15.2703 18.936 15.2484C18.9399 15.234 18.944 15.2154 18.9387 15.2035C18.9193 15.1597 18.9467 15.1251 18.965 15.1001C18.9801 15.0796 18.9843 15.0601 18.9849 15.0405C18.996 15.043 19.0011 15.0403 19.0117 15.0369C19.0304 15.0309 19.0419 15.0378 19.0601 15.0402C19.0804 15.0429 19.1007 15.0336 19.12 15.0268C19.1463 15.0176 19.1737 15.0117 19.1996 15.0013C19.2111 14.9967 19.2204 14.9767 19.23 14.9774C19.2929 14.9813 19.3412 14.9534 19.3808 14.9039C19.3988 14.8814 19.4201 14.8695 19.4476 14.8646C19.4706 14.8604 19.4928 14.8492 19.5148 14.8395C19.5491 14.8246 19.5826 14.8076 19.617 14.7929C19.6317 14.7865 19.6503 14.7874 19.6626 14.778C19.6766 14.7672 19.6887 14.7718 19.7025 14.7718C19.7299 14.7717 19.76 14.8008 19.7845 14.7642C19.7852 14.7632 19.7889 14.7631 19.7895 14.764C19.8077 14.7884 19.8224 14.7658 19.8293 14.7552C19.8445 14.7317 19.8593 14.7336 19.8823 14.7395C19.9234 14.7503 19.9672 14.7557 20.0066 14.734C20.033 14.7195 20.0573 14.7027 20.088 14.6995C20.0968 14.6986 20.1095 14.6892 20.1122 14.6806C20.1272 14.6329 20.1413 14.5847 20.1526 14.5357C20.1593 14.5061 20.1516 14.492 20.127 14.4816ZM16.9051 12.6536C16.9112 12.6564 16.9172 12.6593 16.9235 12.6618C16.9285 12.664 16.9355 12.6691 16.9383 12.6671C16.9691 12.6467 16.9832 12.6733 17.0048 12.689C17.0601 12.7289 17.1063 12.785 17.1794 12.7948C17.2049 12.7981 17.2279 12.8263 17.2514 12.8443C17.2766 12.8637 17.3174 12.8757 17.3523 12.8735C17.3578 12.8731 17.3677 12.8772 17.3685 12.8811C17.3732 12.9034 17.3879 12.9073 17.4051 12.9168C17.4373 12.9343 17.4633 12.9645 17.4929 12.9878C17.5107 13.0019 17.5301 13.0137 17.5496 13.0249C17.5529 13.0269 17.561 13.0218 17.5658 13.0182C17.5758 13.0107 17.5867 13.0122 17.5832 13.0253C17.5785 13.0424 17.589 13.0497 17.5928 13.0617C17.5999 13.0841 17.6281 13.0648 17.6331 13.0918C17.6359 13.1075 17.6513 13.1208 17.6618 13.1345C17.6736 13.15 17.686 13.1649 17.6988 13.1795C17.7049 13.1864 17.7121 13.193 17.7199 13.1976C17.7468 13.2137 17.7784 13.2225 17.7843 13.2646C17.7858 13.2748 17.8031 13.2824 17.8133 13.2908C17.8332 13.3071 17.859 13.3163 17.8586 13.3529C17.8585 13.364 17.8779 13.3751 17.8881 13.3865C17.9078 13.4085 17.9334 13.4295 17.944 13.4589C17.9493 13.4735 17.9487 13.5278 17.9695 13.5252C17.9754 13.5245 17.9798 13.5188 17.9857 13.5178C17.999 13.5156 18.0038 13.5362 18.003 13.5509C18.0198 13.5389 18.0446 13.5415 18.0589 13.5571C18.0536 13.5638 18.0482 13.5707 18.043 13.5774C18.0732 13.5898 18.1093 13.6122 18.1055 13.6469C18.0943 13.6419 18.0803 13.6549 18.083 13.6677C18.1039 13.6637 18.1259 13.666 18.1457 13.6746C18.1465 13.6686 18.1473 13.6627 18.1481 13.6568C18.1565 13.6572 18.164 13.6655 18.1639 13.6746C18.1638 13.6836 18.1563 13.6919 18.1479 13.6921C18.1597 13.6991 18.169 13.7105 18.1738 13.724C18.178 13.7362 18.1787 13.7494 18.1811 13.762C18.1873 13.7944 18.2061 13.8237 18.2319 13.8413C18.228 13.8521 18.2241 13.8629 18.2203 13.8737C18.2311 13.8762 18.2427 13.874 18.2522 13.8679C18.2529 13.8752 18.2536 13.8828 18.2542 13.8902C18.2562 13.9108 18.2578 13.933 18.2485 13.951C18.257 13.952 18.2654 13.9527 18.2736 13.9546C18.2725 13.9705 18.2837 13.978 18.2869 13.9915C18.2923 14.0137 18.2843 14.0154 18.3044 14.0334C18.3428 14.068 18.3857 14.1039 18.3852 14.1677C18.4125 14.2067 18.3942 14.2469 18.3884 14.287C18.3843 14.3156 18.3739 14.345 18.3959 14.3718C18.3991 14.3757 18.3963 14.3856 18.3959 14.3928C18.3956 14.3974 18.3936 14.4019 18.3923 14.4065C18.3868 14.4052 18.3812 14.4034 18.3756 14.405C18.3661 14.4078 18.3589 14.4157 18.3506 14.4213C18.3423 14.4268 18.3307 14.4298 18.3233 14.4229C18.3202 14.42 18.3183 14.4157 18.3152 14.4129C18.3058 14.4045 18.2922 14.4125 18.2803 14.4149C18.265 14.4178 18.2498 14.4108 18.2357 14.4036C18.2169 14.394 18.1984 14.3838 18.1801 14.373C18.1345 14.3852 18.0812 14.3812 18.0399 14.3994C18.0291 14.4042 18.0158 14.4116 18.0044 14.4149C17.9979 14.4169 17.9922 14.4181 17.9855 14.416C17.9816 14.4149 17.9675 14.4005 17.9667 14.4007C17.9557 14.4034 17.9427 14.4065 17.9295 14.4098C17.9223 14.4116 17.9151 14.4153 17.9079 14.4151C17.8363 14.4142 17.7692 14.4427 17.699 14.4514C17.6918 14.4523 17.6803 14.4491 17.6781 14.4527C17.6559 14.4911 17.6406 14.5107 17.6475 14.443C17.6477 14.4417 17.637 14.4363 17.6352 14.4378C17.6089 14.4609 17.5768 14.4253 17.5509 14.4481C17.5486 14.4464 17.5463 14.4468 17.544 14.4458C17.5383 14.4382 17.5319 14.4311 17.5267 14.4229C17.522 14.4155 17.5079 14.3959 17.5059 14.3884C17.5043 14.3824 17.5086 14.3584 17.5091 14.3595C17.5038 14.3476 17.5019 14.334 17.5035 14.3209C17.4935 14.3303 17.4765 14.3215 17.4716 14.3083C17.4667 14.2949 17.47 14.2799 17.4734 14.266C17.4636 14.2718 17.452 14.2734 17.4411 14.2705L17.4435 14.2472C17.4551 14.239 17.4667 14.2308 17.4783 14.2225C17.4668 14.2139 17.456 14.202 17.4536 14.1871C17.4513 14.172 17.4608 14.1544 17.4749 14.154C17.48 14.1229 17.4616 14.0894 17.434 14.0794C17.425 14.0761 17.4147 14.0747 17.4082 14.0671C17.3925 14.0487 17.4112 14.0087 17.3901 13.9985C17.3829 13.995 17.3745 13.9978 17.367 14.0007C17.3595 14.0036 17.3512 14.0064 17.3438 14.0032C17.3365 13.9999 17.3331 13.9872 17.3399 13.9829C17.3526 13.9831 17.3652 13.9801 17.3767 13.9744C17.376 13.9653 17.3752 13.956 17.3744 13.9469C17.3607 13.9498 17.3476 13.9387 17.3388 13.9269C17.3106 13.8898 17.301 13.8344 17.3229 13.7927C17.2843 13.8009 17.2472 13.7745 17.2314 13.7377C17.2252 13.7232 17.2384 13.6944 17.2081 13.6955C17.209 13.6861 17.2065 13.6725 17.2113 13.668C17.2381 13.6426 17.2296 13.6054 17.231 13.5767C17.2323 13.5521 17.2073 13.5244 17.1908 13.5005C17.1711 13.4717 17.1488 13.4459 17.1457 13.4071C17.1447 13.3944 17.1357 13.3805 17.127 13.3708C17.1014 13.3424 17.0901 13.307 17.0776 13.2711C17.0647 13.234 17.0509 13.1979 17.0252 13.1661C17.0061 13.1425 17.001 13.105 16.9918 13.0728C16.9883 13.0607 16.9883 13.0484 16.9733 13.0486C16.9488 13.0488 16.9526 13.0426 16.9623 13.0219C16.9833 12.9771 16.9704 12.9311 16.9324 12.9012C16.9194 12.891 16.9244 12.8788 16.9212 12.8676C16.903 12.8052 16.9261 12.7386 16.9023 12.6772C16.8997 12.6704 16.9039 12.6613 16.9051 12.6536ZM15.518 14.45C15.5308 14.4302 15.5496 14.4091 15.5589 14.3872C15.5667 14.3688 15.5638 14.3519 15.5797 14.3372C15.5989 14.3192 15.6068 14.2984 15.5936 14.273C15.5775 14.242 15.6131 14.2249 15.6106 14.1972C15.6104 14.1954 15.6287 14.1872 15.6348 14.1903C15.6543 14.1999 15.6623 14.1907 15.668 14.1729C15.6717 14.1616 15.6739 14.1494 15.6795 14.1394C15.694 14.1125 15.6907 14.0879 15.6696 14.0693C15.6569 14.0582 15.6566 14.0462 15.6566 14.0322C15.6566 14.0192 15.6594 14.0094 15.6735 14.0056C15.7276 13.9911 15.7494 13.9348 15.7259 13.8794C15.7182 13.8615 15.7166 13.8461 15.7257 13.8289C15.7293 13.822 15.7342 13.8138 15.7334 13.8067C15.7275 13.7534 15.7607 13.7232 15.7894 13.6896C15.7949 13.6832 15.8021 13.671 15.7998 13.6657C15.791 13.6446 15.8056 13.6269 15.8041 13.6073C15.8039 13.6041 15.8111 13.5971 15.8143 13.5975C15.8181 13.598 15.8218 13.6042 15.8242 13.6087C15.8259 13.612 15.825 13.6166 15.8256 13.6205C15.8275 13.6335 15.8295 13.6466 15.8314 13.6596C15.8535 13.6502 15.8423 13.6345 15.8385 13.6197C15.8377 13.6168 15.8415 13.6095 15.8422 13.6097C15.8757 13.6169 15.8689 13.591 15.8691 13.5715C15.8692 13.5513 15.8693 13.531 15.8683 13.5108C15.8681 13.5079 15.8614 13.5055 15.8578 13.5026C15.8513 13.4974 15.8393 13.4923 15.8391 13.4867C15.8382 13.465 15.8528 13.4858 15.8578 13.4803C15.8625 13.4754 15.8688 13.4683 15.8683 13.4627C15.8657 13.4288 15.8772 13.4054 15.8981 13.3783C15.9162 13.3548 15.9284 13.3118 15.9217 13.2832C15.9119 13.241 15.9219 13.2039 15.9256 13.165C15.9287 13.1332 15.9289 13.1029 15.9207 13.0716C15.9165 13.0558 15.9196 13.0376 15.9207 13.0206C15.921 13.0169 15.9263 13.0119 15.9301 13.0106C15.973 12.9959 15.9668 12.9504 15.9804 12.9174C15.9811 12.9157 15.9749 12.9107 15.9719 12.9074C15.9678 12.903 15.9596 12.8967 15.9605 12.8947C15.9691 12.873 15.9744 12.8421 15.9902 12.833C16.0309 12.8092 16.0157 12.7675 16.0242 12.7346C16.0278 12.7204 16.018 12.7044 16.0412 12.7024C16.0441 12.7022 16.0489 12.6886 16.0482 12.6816C16.0427 12.6297 16.0729 12.591 16.0899 12.5476C16.094 12.5371 16.1062 12.5297 16.0958 12.5168C16.0756 12.4917 16.1105 12.4809 16.1083 12.4602C16.1082 12.4592 16.121 12.4551 16.1214 12.4557C16.1304 12.4762 16.1497 12.4715 16.1643 12.4784C16.1741 12.4829 16.1849 12.4955 16.174 12.5117C16.1584 12.5348 16.1715 12.5547 16.1806 12.5752C16.1896 12.5956 16.199 12.6174 16.2221 12.6196C16.2501 12.6221 16.2637 12.6305 16.2533 12.6642C16.2501 12.6746 16.2589 12.6781 16.2708 12.6788C16.2891 12.6797 16.2969 12.6979 16.2849 12.7056C16.2542 12.7253 16.2626 12.7514 16.2689 12.7796C16.2741 12.8031 16.2849 12.8248 16.2929 12.8464C16.3017 12.8703 16.3082 12.895 16.3044 12.9161C16.2968 12.959 16.3252 12.9816 16.3396 13.0124C16.3403 13.0139 16.3425 13.0148 16.3441 13.0159C16.38 13.039 16.3833 13.0398 16.3745 13.0768C16.363 13.1258 16.3819 13.1654 16.4 13.2061C16.4017 13.21 16.4105 13.2144 16.4132 13.2129C16.4373 13.1986 16.4428 13.2117 16.4427 13.2348C16.4427 13.2388 16.4437 13.2429 16.445 13.2466C16.4536 13.2703 16.4327 13.2962 16.4534 13.3205C16.4682 13.3377 16.476 13.3618 16.4867 13.3831C16.5084 13.4262 16.5351 13.4679 16.5233 13.5215C16.5401 13.5479 16.527 13.5915 16.565 13.606C16.5678 13.6071 16.5704 13.615 16.5699 13.6192C16.5645 13.6601 16.5828 13.6823 16.618 13.6904C16.6289 13.6929 16.6271 13.6982 16.6258 13.7071C16.6244 13.7164 16.6241 13.7275 16.6276 13.7357C16.6401 13.7648 16.6706 13.7822 16.6633 13.8251C16.659 13.85 16.6773 13.8786 16.6807 13.9071C16.6819 13.9166 16.686 13.9264 16.6907 13.9347C16.7032 13.9572 16.6783 13.9871 16.7105 14.0037C16.718 14.0211 16.717 14.0414 16.7169 14.0606C16.7168 14.0799 16.7183 14.1006 16.7296 14.1156C16.7409 14.1305 16.7651 14.1349 16.7757 14.1194C16.7862 14.1248 16.7916 14.1394 16.7873 14.1511C16.7795 14.1545 16.7718 14.1578 16.7641 14.1612C16.7703 14.176 16.7813 14.1883 16.7946 14.1955C16.7792 14.2224 16.7704 14.2537 16.7692 14.2854C16.769 14.2905 16.769 14.2958 16.771 14.3004C16.777 14.3155 16.797 14.3153 16.8114 14.3102C16.8258 14.3052 16.8424 14.2981 16.8553 14.3071C16.8563 14.3202 16.8574 14.3333 16.8585 14.3464C16.8527 14.3472 16.847 14.3481 16.8411 14.3488C16.8466 14.3721 16.852 14.3954 16.8575 14.4187C16.8567 14.4191 16.8557 14.4189 16.8549 14.4193C16.8332 14.4287 16.8115 14.438 16.7899 14.4473C16.7827 14.4504 16.7753 14.4535 16.7677 14.4522C16.761 14.451 16.7551 14.4465 16.7485 14.4444C16.7294 14.4382 16.7118 14.4533 16.7007 14.4686C16.6959 14.4753 16.6937 14.485 16.6876 14.4904C16.6851 14.4925 16.6663 14.4983 16.6666 14.4976C16.6517 14.5433 16.6262 14.5236 16.6016 14.5099C16.5735 14.4958 16.5394 14.5032 16.5136 14.481C16.4817 14.5006 16.4498 14.471 16.4156 14.483C16.3868 14.4931 16.3534 14.4875 16.322 14.4894C16.2888 14.4915 16.2818 14.4999 16.2855 14.5356C16.2865 14.5447 16.2883 14.5528 16.2774 14.55C16.2688 14.5478 16.2549 14.5516 16.2557 14.5317C16.2569 14.5024 16.2473 14.4945 16.2294 14.5097C16.2125 14.5242 16.1993 14.5375 16.1773 14.5207C16.1745 14.5185 16.163 14.5252 16.1584 14.5307C16.1488 14.542 16.1411 14.5432 16.1307 14.532C16.1206 14.5211 16.109 14.5163 16.0964 14.5292C16.094 14.5316 16.089 14.5342 16.0868 14.533C16.0696 14.5239 16.0541 14.5027 16.0337 14.5265C16.0168 14.5159 15.9999 14.5193 15.9824 14.5245C15.9776 14.526 15.9709 14.5232 15.9663 14.5203C15.9045 14.4827 15.8367 14.4952 15.7717 14.4985C15.7368 14.5003 15.7056 14.4965 15.6736 14.4849C15.6612 14.4804 15.6489 14.4755 15.6362 14.4723C15.6237 14.4692 15.6093 14.4634 15.5988 14.4676C15.5909 14.4709 15.5901 14.4947 15.5822 14.4976C15.5732 14.5011 15.5601 14.4911 15.5484 14.489C15.5474 14.4888 15.5429 14.5027 15.5423 14.5103C15.5417 14.519 15.5417 14.5279 15.5311 14.5231C15.5139 14.5154 15.5193 14.4998 15.5139 14.4872C15.5157 14.4838 15.5174 14.4803 15.5192 14.477C15.5089 14.475 15.5123 14.4588 15.518 14.45ZM14.0842 14.4193C14.0775 14.386 14.0994 14.3694 14.1177 14.3501C14.1395 14.3272 14.1544 14.301 14.1419 14.2659C14.1365 14.251 14.1587 14.2322 14.1351 14.2186C14.1292 14.2152 14.1314 14.2073 14.143 14.2062C14.1647 14.2043 14.1749 14.1866 14.1744 14.1647C14.1734 14.1189 14.1865 14.0795 14.2083 14.0403C14.2229 14.0141 14.2327 13.9843 14.2458 13.9565C14.2546 13.9377 14.2512 13.9099 14.248 13.887C14.2433 13.8527 14.2421 13.8541 14.2682 13.8358C14.2877 13.8221 14.3063 13.8063 14.3228 13.7887C14.329 13.782 14.3304 13.767 14.3295 13.7563C14.3254 13.7127 14.3462 13.6808 14.368 13.6479C14.3874 13.6188 14.4026 13.5862 14.4224 13.5574C14.448 13.5201 14.4661 13.4762 14.5072 13.4517C14.516 13.4466 14.54 13.435 14.5294 13.4101C14.5285 13.4079 14.5318 13.401 14.5325 13.4011C14.5632 13.4065 14.5646 13.3769 14.5779 13.3598C14.5894 13.3452 14.608 13.3371 14.6233 13.3259C14.6367 13.3159 14.6355 13.3168 14.6207 13.2966C14.6159 13.2901 14.6156 13.2752 14.6191 13.267C14.6242 13.2549 14.6322 13.257 14.6386 13.2692C14.64 13.272 14.6516 13.2727 14.6521 13.2713C14.6622 13.2451 14.7062 13.2567 14.7041 13.217C14.7039 13.2141 14.709 13.2078 14.71 13.2082C14.7448 13.2219 14.7499 13.1826 14.7691 13.169C14.7889 13.155 14.8049 13.1339 14.8254 13.1215C14.8808 13.088 14.9244 13.0352 14.9845 13.0096C15.0143 12.9969 15.0389 12.9772 15.0581 12.9484C15.0702 12.9302 15.0803 12.9055 15.1094 12.9095C15.1139 12.9101 15.1233 12.8931 15.1255 12.883C15.1292 12.8662 15.1282 12.8483 15.1305 12.8311C15.131 12.8267 15.1368 12.8204 15.1401 12.8203C15.1437 12.8203 15.1496 12.8261 15.1504 12.8305C15.1526 12.8402 15.1514 12.8507 15.1534 12.8604C15.1542 12.8651 15.1593 12.8686 15.1624 12.8728C15.1648 12.867 15.1673 12.8612 15.1696 12.8554C15.1712 12.851 15.1735 12.8428 15.1735 12.8428C15.2093 12.853 15.2299 12.8052 15.2652 12.8146C15.3035 12.7868 15.3419 12.759 15.3802 12.7312C15.3843 12.7032 15.4095 12.7151 15.4234 12.7051C15.4301 12.7002 15.4308 12.6754 15.4465 12.6931C15.4566 12.7047 15.4574 12.7173 15.4456 12.7302C15.4263 12.7513 15.428 12.7809 15.422 12.8072C15.421 12.8114 15.4258 12.8214 15.4275 12.8213C15.4378 12.8206 15.4517 12.8113 15.453 12.8311C15.4546 12.855 15.4534 12.8795 15.4515 12.9035C15.4512 12.9067 15.4388 12.9121 15.4332 12.9108C15.4258 12.9092 15.4196 12.9019 15.413 12.897C15.4115 12.9067 15.4114 12.9172 15.4081 12.9262C15.402 12.943 15.3941 12.9591 15.3866 12.9752C15.3806 12.9881 15.3755 12.9992 15.3832 13.0146C15.3906 13.0291 15.3742 13.0244 15.3715 13.0279C15.3601 13.0422 15.3431 13.0644 15.3469 13.0772C15.3591 13.118 15.3344 13.1467 15.3243 13.1787C15.3145 13.21 15.3052 13.2389 15.3116 13.2721C15.3127 13.2775 15.3098 13.287 15.3059 13.2899C15.293 13.2988 15.2714 13.3017 15.2663 13.3136C15.2541 13.3419 15.2501 13.3745 15.241 13.4046C15.2335 13.4292 15.2353 13.4557 15.2205 13.4793C15.2129 13.4915 15.2176 13.5125 15.194 13.5032C15.1931 13.5028 15.1862 13.5141 15.1858 13.5201C15.1848 13.5403 15.1856 13.5605 15.1852 13.5807C15.1849 13.6023 15.1893 13.6238 15.1641 13.6375C15.1555 13.6422 15.1547 13.6655 15.1518 13.6806C15.1498 13.691 15.1481 13.7035 15.1362 13.6992C15.1083 13.6892 15.1083 13.7102 15.1075 13.7281C15.1061 13.7605 15.1083 13.793 15.1063 13.8251C15.1051 13.8449 15.1207 13.8376 15.1258 13.8441C15.131 13.8509 15.1489 13.8672 15.122 13.8734C15.1165 13.8747 15.1085 13.8833 15.1084 13.8888C15.1072 13.9477 15.0699 13.9869 15.0429 14.0316C15.0342 14.0458 15.0264 14.057 15.0318 14.0753C15.0341 14.0833 15.0312 14.0944 15.028 14.1028C15.0148 14.1376 15.0005 14.1717 14.9867 14.2063C14.9852 14.2099 14.9839 14.2141 14.9841 14.2178C14.9849 14.2393 14.9898 14.2616 14.9862 14.282C14.9831 14.3002 14.9701 14.3163 14.9631 14.334C14.9604 14.3409 14.9604 14.3505 14.9622 14.358C14.9708 14.3942 14.9656 14.4293 14.9589 14.4641C14.9103 14.4651 14.8616 14.4634 14.8155 14.4547C14.7557 14.4434 14.6935 14.4478 14.6357 14.4221C14.6072 14.4094 14.5791 14.405 14.5529 14.4322C14.5445 14.441 14.5293 14.4446 14.5168 14.4459C14.478 14.4501 14.4487 14.4788 14.4135 14.4904C14.3792 14.5015 14.339 14.4864 14.3077 14.5178C14.3041 14.5215 14.2891 14.5121 14.2795 14.5089C14.2799 14.5058 14.2803 14.5025 14.2808 14.4994C14.2463 14.4966 14.2115 14.4903 14.1772 14.492C14.1495 14.4933 14.1218 14.4992 14.0943 14.5048C14.0918 14.4918 14.0876 14.478 14.0842 14.466C14.0793 14.4495 14.0596 14.4351 14.0842 14.4193ZM14.6737 15.2389C14.6575 15.2605 14.6413 15.282 14.6251 15.3035C14.62 15.3101 14.6144 15.3173 14.6067 15.3193C14.615 15.3311 14.5992 15.3446 14.5882 15.3535C14.5743 15.3649 14.5654 15.3829 14.5641 15.4017C14.5822 15.4157 14.5836 15.4464 14.5719 15.467C14.5601 15.4876 14.539 15.4996 14.5178 15.5073C14.5158 15.5173 14.5261 15.5837 14.5206 15.5846C14.4996 15.5874 14.4848 15.6006 14.48 15.6208C14.472 15.6552 14.4474 15.6849 14.4563 15.7243C14.4669 15.7709 14.4655 15.7789 14.4487 15.8183C14.4401 15.8384 14.4313 15.8583 14.4228 15.8783C14.4163 15.8938 14.4169 15.9174 14.4207 15.9399C14.4222 15.9488 14.4209 15.9613 14.416 15.9679C14.3823 16.0125 14.3779 16.0221 14.3774 16.0687C14.3772 16.097 14.3778 16.1253 14.377 16.1535C14.3769 16.1617 14.3814 16.175 14.3654 16.1735C14.3553 16.1727 14.3404 16.1771 14.3357 16.1713C14.3197 16.1522 14.3059 16.1305 14.2942 16.108C14.2798 16.0802 14.2686 16.0519 14.2399 16.0348C14.2251 16.0261 14.2164 16.0047 14.2061 15.9881C14.1966 15.9728 14.1878 15.9593 14.1675 15.9604C14.1559 15.961 14.1498 15.9495 14.1595 15.9408C14.1873 15.9164 14.1696 15.8846 14.1736 15.8565C14.174 15.8532 14.1714 15.8465 14.1696 15.8463C14.1321 15.8418 14.1486 15.8059 14.1382 15.7859C14.1254 15.7612 14.1374 15.7286 14.1365 15.7013C14.1179 15.7092 14.0982 15.6792 14.1111 15.6627C14.1182 15.6536 14.1325 15.6468 14.1294 15.6354C14.1279 15.6297 14.1224 15.6267 14.1183 15.6226C14.1089 15.6133 14.1067 15.5985 14.1052 15.5848C14.0997 15.5319 14.0977 15.4785 14.0993 15.4252C14.0995 15.4185 14.0997 15.4115 14.0974 15.4052C14.0949 15.3984 14.0897 15.3932 14.085 15.3878C14.0513 15.3489 14.0454 15.2852 14.0711 15.2398C14.071 15.2382 14.0709 15.2367 14.0708 15.2351C14.0733 15.2343 14.0756 15.2351 14.0781 15.2337C14.0843 15.2301 14.0937 15.2381 14.0999 15.2388C14.1097 15.2401 14.1221 15.2382 14.1305 15.2327C14.1481 15.2209 14.1488 15.2104 14.1742 15.22C14.1874 15.2251 14.2006 15.2324 14.2146 15.2313C14.2187 15.231 14.2227 15.23 14.2267 15.2291C14.2327 15.2276 14.2388 15.2261 14.2449 15.2246C14.2537 15.2224 14.2627 15.2202 14.2707 15.2155C14.2891 15.2047 14.2968 15.1996 14.3173 15.2018C14.3411 15.2043 14.3648 15.2069 14.3882 15.2129C14.3927 15.2141 14.3974 15.2153 14.4019 15.2142C14.4103 15.212 14.4148 15.2024 14.421 15.1961C14.4292 15.1878 14.4417 15.1848 14.4524 15.1885C14.4622 15.1921 14.4702 15.2007 14.4802 15.2038C14.4865 15.2057 14.4932 15.2053 14.4997 15.2047C14.5387 15.2011 14.5775 15.194 14.6154 15.1836C14.6431 15.1761 14.6741 15.1697 14.6983 15.184C14.6983 15.1854 14.6981 15.1867 14.698 15.1879C14.697 15.2073 14.6851 15.2238 14.6737 15.2389ZM17.4587 16.5917C17.4357 16.5904 17.4214 16.6011 17.4059 16.6165C17.3923 16.6299 17.376 16.6406 17.3593 16.6492C17.3269 16.666 17.2991 16.6858 17.2789 16.7205C17.2668 16.7411 17.2434 16.7544 17.2238 16.7694C17.2194 16.7727 17.2102 16.7682 17.2033 16.7682C17.1965 16.7682 17.1849 16.7671 17.1834 16.7704C17.1713 16.7994 17.1512 16.797 17.1291 16.7886C17.1041 16.8166 17.0693 16.8088 17.0392 16.8152C16.9963 16.8243 16.958 16.8507 16.9123 16.8511C16.8966 16.8512 16.8804 16.8696 16.8659 16.8817C16.8591 16.8875 16.8564 16.8989 16.8503 16.9063C16.8302 16.931 16.823 16.9306 16.8052 16.9061C16.8041 16.9045 16.8034 16.9024 16.8021 16.901C16.7933 16.8922 16.7851 16.8784 16.7749 16.8762C16.7629 16.8736 16.7464 16.9024 16.7456 16.9217C16.7454 16.9275 16.7464 16.9339 16.7482 16.9395C16.7507 16.9477 16.7535 16.9557 16.7415 16.9559C16.7366 16.956 16.73 16.954 16.7267 16.9504C16.713 16.9357 16.6994 16.9314 16.6832 16.9328C16.6498 16.9358 16.6167 16.9519 16.5824 16.9365C16.5739 16.9326 16.5685 16.9361 16.5716 16.9475C16.5721 16.9494 16.5726 16.9516 16.572 16.9533C16.5669 16.9696 16.5614 16.9858 16.5561 17.002C16.5288 16.9925 16.5456 16.968 16.5419 16.9508C16.5368 16.9265 16.5305 16.9226 16.5098 16.9383C16.4977 16.9473 16.4738 16.9471 16.4814 16.9747C16.4713 16.9763 16.4609 16.9802 16.4513 16.9787C16.4466 16.978 16.4433 16.967 16.4394 16.9605C16.4365 16.9692 16.433 16.9779 16.4308 16.987C16.427 17.0018 16.4222 17.0078 16.4084 16.9959C16.4006 16.9892 16.3903 16.9843 16.3804 16.9821C16.3659 16.9789 16.37 16.9925 16.3679 17.0009C16.3675 17.0023 16.3599 17.0038 16.3583 17.0022C16.329 16.9717 16.2859 16.9836 16.2525 16.9625C16.242 16.9558 16.2176 16.9586 16.2008 16.96C16.1805 16.9617 16.1624 16.971 16.1452 16.9504C16.1421 16.9467 16.1286 16.9533 16.1199 16.9549C16.0979 16.9591 16.0979 16.9591 16.0522 16.936C16.0505 16.9351 16.0489 16.9338 16.0472 16.9336C16.0031 16.9294 15.9589 16.9249 15.9147 16.9222C15.9081 16.9218 15.8983 16.9294 15.8952 16.936C15.8922 16.9422 15.9044 16.9567 15.8871 16.9558C15.8814 16.9555 15.8729 16.9494 15.8709 16.9438C15.854 16.8949 15.8103 16.8817 15.7738 16.8625C15.7502 16.8501 15.7196 16.8472 15.6926 16.849C15.6559 16.8514 15.6331 16.8345 15.6129 16.8049C15.6024 16.7895 15.5897 16.7698 15.5747 16.7656C15.5533 16.7596 15.5287 16.7651 15.5057 16.7681C15.5022 16.7685 15.509 16.7882 15.4936 16.7867C15.4818 16.7857 15.4643 16.7918 15.4737 16.7661C15.4746 16.7637 15.4684 16.7583 15.4657 16.7544C15.4624 16.7583 15.4577 16.7617 15.456 16.7663C15.4511 16.78 15.4626 16.804 15.4433 16.807C15.4222 16.8104 15.4142 16.7833 15.4147 16.7695C15.4155 16.7461 15.4081 16.7522 15.3971 16.7573C15.3868 16.7622 15.3785 16.7612 15.3768 16.7474C15.3715 16.7031 15.3466 16.6868 15.3079 16.6899C15.2638 16.6933 15.2271 16.6716 15.1977 16.6413C15.1718 16.6147 15.1412 16.6058 15.1099 16.5956C15.1038 16.5936 15.0921 16.5947 15.0894 16.5991C15.0724 16.6268 15.0655 16.6108 15.0556 16.5928C15.0461 16.5758 15.0321 16.5618 15.0226 16.5449C15.0118 16.5258 14.9737 16.5347 14.9811 16.5014C14.9861 16.4788 14.9642 16.4536 14.988 16.4342C14.9794 16.4062 14.99 16.38 14.9923 16.3529C14.9962 16.3096 15.0028 16.2697 15.0334 16.2382C15.035 16.2366 15.0305 16.228 15.0289 16.2227C15.0102 16.2318 15.0057 16.2206 15.0056 16.2035C15.0055 16.1833 15.0053 16.163 15.0056 16.1427C15.0058 16.1245 15.0119 16.1158 15.0298 16.1256C15.0407 16.1316 15.0468 16.1267 15.0495 16.1142C15.0512 16.1064 15.0557 16.0992 15.0564 16.0914C15.0583 16.0719 15.0651 16.0492 15.0584 16.0335C15.0484 16.0094 15.0758 16.0059 15.0726 15.9867C15.0695 15.9671 15.074 15.9461 15.0724 15.9261C15.069 15.8863 15.0831 15.8553 15.1094 15.8295C15.1278 15.8113 15.1375 15.7917 15.1412 15.7628C15.1466 15.72 15.1561 15.6751 15.1843 15.6411C15.1974 15.6254 15.1827 15.5919 15.214 15.5897C15.2215 15.5672 15.2298 15.5449 15.236 15.522C15.2417 15.5002 15.2495 15.4809 15.2659 15.4658C15.274 15.4584 15.2828 15.4474 15.2842 15.4368C15.2933 15.3726 15.3228 15.3209 15.3636 15.2751C15.398 15.2365 15.357 15.2039 15.3785 15.1677C15.3888 15.1503 15.4113 15.1532 15.4261 15.145C15.4199 15.1383 15.4115 15.1327 15.404 15.1269C15.4088 15.1161 15.4126 15.1043 15.414 15.0921C15.4218 15.0908 15.4295 15.0914 15.4378 15.0869C15.4712 15.0692 15.4995 15.0601 15.5364 15.0732C15.5716 15.0859 15.606 15.1029 15.6453 15.0901C15.6546 15.0871 15.6674 15.093 15.6775 15.0974C15.7507 15.1289 15.8277 15.1398 15.905 15.1502C15.935 15.1542 15.9532 15.1328 15.976 15.1209C15.9735 15.1176 15.9707 15.1113 15.9684 15.1115C15.9469 15.1137 15.9514 15.1042 15.9612 15.0931C15.9692 15.0839 15.9789 15.0665 15.9844 15.0952C16.0039 15.0982 16.0228 15.1026 16.0382 15.1177C16.0394 15.1188 16.0485 15.1145 16.0491 15.1113C16.0525 15.0978 16.0522 15.0831 16.0573 15.0706C16.06 15.064 16.0715 15.0566 16.0778 15.0577C16.0931 15.0606 16.0841 15.0695 16.0807 15.0786C16.0779 15.0859 16.0807 15.0959 16.0811 15.1046C16.0892 15.1014 16.0975 15.0989 16.1052 15.0949C16.1135 15.0905 16.0978 15.0645 16.1186 15.0737C16.1303 15.0789 16.1351 15.0954 16.122 15.109C16.1207 15.1103 16.1186 15.1119 16.1184 15.1135C16.1178 15.1188 16.118 15.1243 16.1179 15.1299C16.1228 15.1287 16.1307 15.1292 16.1322 15.1261C16.1412 15.1073 16.1502 15.1023 16.1655 15.1199C16.1766 15.1327 16.1874 15.1234 16.2 15.1184C16.2086 15.1149 16.2219 15.1293 16.2338 15.1307C16.2575 15.1335 16.2816 15.1343 16.3054 15.1332C16.3446 15.1315 16.3826 15.1329 16.4206 15.1467C16.4463 15.156 16.4737 15.1541 16.5016 15.1523C16.5909 15.1465 16.6903 15.1727 16.7768 15.1432C16.7893 15.139 16.8023 15.1332 16.8152 15.1364C16.8185 15.1372 16.8222 15.1386 16.8255 15.1373C16.8337 15.1337 16.8304 15.1168 16.8388 15.1136C16.8433 15.1151 16.8476 15.1165 16.8521 15.118C16.8526 15.1219 16.852 15.126 16.8505 15.1296C16.8784 15.1421 16.9145 15.1196 16.9188 15.0872C16.9192 15.0837 16.9194 15.08 16.9214 15.0772C16.9251 15.0717 16.9337 15.0728 16.9379 15.0778C16.9423 15.0827 16.9435 15.09 16.9443 15.0968C16.9448 15.1016 16.9453 15.1068 16.9485 15.1101C16.9518 15.1135 16.9585 15.1128 16.9593 15.1081C16.9569 15.1199 16.9616 15.1331 16.9708 15.1401C16.98 15.1264 16.9891 15.1127 16.9981 15.099C17.0004 15.1034 17.0066 15.1028 17.0102 15.0997C17.0138 15.0968 17.0159 15.092 17.0192 15.0886C17.0274 15.0802 17.0405 15.0812 17.0512 15.0851C17.0618 15.0889 17.0721 15.095 17.0834 15.0953C17.0867 15.0953 17.0898 15.0933 17.093 15.0919C17.0898 15.1139 17.0871 15.1359 17.1099 15.1527C17.1123 15.1545 17.1148 15.1603 17.114 15.1632C17.1009 15.2081 17.1295 15.248 17.1268 15.2919C17.1251 15.3202 17.1314 15.3412 17.1623 15.3527C17.194 15.3645 17.1917 15.4053 17.202 15.4343C17.2033 15.4381 17.1986 15.4448 17.1962 15.4497C17.1743 15.4942 17.1782 15.5354 17.2091 15.568C17.2151 15.5743 17.2233 15.5737 17.2219 15.5889C17.2182 15.6317 17.2548 15.6637 17.2524 15.7077C17.2521 15.7145 17.2627 15.7249 17.2703 15.7288C17.2916 15.7396 17.2985 15.7532 17.2856 15.7765C17.2832 15.7809 17.2846 15.7931 17.2862 15.7936C17.3306 15.8064 17.3171 15.8521 17.3259 15.8823C17.3326 15.9052 17.3423 15.9215 17.3567 15.9372C17.358 15.9387 17.3594 15.9399 17.3608 15.9412C17.4176 15.9941 17.4191 15.9943 17.4129 16.0666C17.4083 16.1214 17.4145 16.1722 17.4411 16.2203C17.4513 16.2387 17.4565 16.2606 17.4628 16.2814C17.4743 16.3194 17.4832 16.3576 17.5127 16.387C17.5283 16.4025 17.5387 16.4263 17.5467 16.4484C17.5525 16.4645 17.5528 16.4839 17.5516 16.5017C17.55 16.5254 17.4819 16.593 17.4587 16.5917ZM18.33 15.0524C18.3255 15.053 18.3185 15.059 18.3183 15.0626C18.3178 15.0923 18.3065 15.1255 18.3258 15.1503C18.3444 15.1744 18.3328 15.189 18.3174 15.1998C18.2873 15.2209 18.284 15.2497 18.2803 15.2856C18.2744 15.3442 18.2633 15.4031 18.2261 15.4523C18.2144 15.4678 18.2084 15.4913 18.2015 15.5122C18.1861 15.5585 18.1625 15.6023 18.1374 15.6438C18.1199 15.6729 18.1169 15.7049 18.1334 15.7262C18.1586 15.7588 18.1415 15.7915 18.1463 15.8234C18.1469 15.8267 18.1445 15.833 18.1423 15.8339C18.117 15.8432 18.1169 15.871 18.1051 15.8902C18.0873 15.9193 18.0712 15.918 18.051 15.8881C18.0423 15.8752 18.0357 15.8601 18.0254 15.849C18.0139 15.8365 18.0001 15.8194 17.9862 15.8179C17.9581 15.815 17.9361 15.8086 17.9222 15.7796C17.9153 15.7654 17.9132 15.7829 17.9088 15.7838C17.9032 15.7849 17.8916 15.7816 17.8916 15.7807C17.892 15.7651 17.8885 15.7429 17.8965 15.7353C17.9238 15.7098 17.9066 15.6785 17.9108 15.6505C17.9125 15.6391 17.9051 15.6389 17.8965 15.6416C17.8794 15.647 17.8771 15.6332 17.8784 15.6212C17.8829 15.5804 17.8709 15.5473 17.8474 15.5153C17.837 15.501 17.837 15.4778 17.8324 15.4586C17.8301 15.4492 17.8288 15.4319 17.8256 15.4315C17.7958 15.4279 17.8073 15.4117 17.8135 15.3945C17.8199 15.3766 17.8264 15.3579 17.8279 15.339C17.8299 15.3115 17.8287 15.2835 17.8264 15.2558C17.8244 15.2307 17.8169 15.2071 17.8193 15.1803C17.8216 15.1535 17.8127 15.1255 17.8081 15.098C17.8075 15.0949 17.8034 15.09 17.8009 15.0898C17.7933 15.0896 17.7898 15.0845 17.7853 15.0805C17.7853 15.078 17.7854 15.0755 17.7855 15.0729C17.789 15.0636 17.7908 15.0527 17.7964 15.0454C17.7998 15.041 17.8098 15.0394 17.8158 15.0412C17.8273 15.0446 17.8203 15.0514 17.8174 15.0589C17.8087 15.0824 17.8102 15.08 17.8351 15.0881C17.8581 15.0957 17.8782 15.1008 17.8993 15.0837C17.9047 15.0793 17.9168 15.0785 17.9225 15.0821C17.9419 15.0945 17.9596 15.0861 17.977 15.0796C18.0037 15.0697 18.0291 15.0626 18.0585 15.0698C18.0771 15.0743 18.0987 15.068 18.1152 15.0528C18.1205 15.0479 18.1255 15.0428 18.1307 15.0379C18.1241 15.0351 18.1176 15.0321 18.1108 15.0297C18.1062 15.0281 18.1013 15.0274 18.0966 15.0262C18.1015 15.0183 18.106 15.0099 18.1114 15.0026C18.1192 14.9925 18.1231 14.997 18.1245 15.0078C18.1248 15.0097 18.126 15.013 18.1268 15.013C18.1374 15.0136 18.1513 15.0093 18.1575 15.0151C18.1646 15.0216 18.1641 15.0373 18.168 15.0483C18.1686 15.0501 18.1793 15.0504 18.1798 15.0489C18.1853 15.0339 18.1892 15.0183 18.1946 15.0032C18.1979 14.9941 18.2017 14.9846 18.2073 14.9772C18.2095 14.9743 18.218 14.9746 18.2224 14.9766C18.2286 14.9794 18.2317 15.0041 18.2374 15.0111C18.2463 15.0221 18.2592 15.0294 18.2726 15.0305C18.2916 15.032 18.3102 15.0222 18.3292 15.0232C18.336 15.0236 18.342 15.0281 18.3485 15.0306C18.3483 15.0408 18.3448 15.05 18.33 15.0524Z" fill="black"/>
</svg>
