<svg width="512" height="512" viewBox="0 0 512 512" fill="none" xmlns="http://www.w3.org/2000/svg">
<path d="M369 459.5C369 475.792 318.408 489 256 489C193.592 489 143 475.792 143 459.5C143 452.025 153.651 445.199 171.206 440C191.913 433.868 222.226 430 256 430C289.774 430 320.087 433.868 340.794 440C358.349 445.199 369 452.025 369 459.5Z" fill="#1F1A17"/>
<path d="M340.794 440C358.349 445.199 369 452.025 369 459.5V440H340.794Z" fill="#1F1A17"/>
<path d="M143 459.5C143 452.025 153.651 445.199 171.206 440H143V459.5Z" fill="#1F1A17"/>
<ellipse cx="256" cy="440.5" rx="113" ry="29.5" fill="#1F1A17"/>
<ellipse cx="255.5" cy="439" rx="91.5" ry="18" fill="white"/>
<path d="M215 395H295V441H215V395Z" fill="#1F1A17"/>
<ellipse cx="255" cy="440.5" rx="40" ry="3.5" fill="#1F1A17"/>
<path d="M391 282.5C391 351.536 330.558 407.5 256 407.5C181.442 407.5 121 351.536 121 282.5C121 201.089 180.649 99.7959 227.106 36.6223C241.639 16.8607 270.361 16.8607 284.894 36.6223C331.351 99.7959 391 201.089 391 282.5Z" fill="#1F1A17"/>
<path d="M372 274.167C372 336.906 320.065 387.767 256 387.767C191.935 387.767 140 336.906 140 274.167C140 198.413 193.733 112.711 234.015 60.1661C245.204 45.5698 266.796 45.5698 277.985 60.1661C318.267 112.711 372 198.413 372 274.167Z" fill="white"/>
<path d="M341.853 271.037C340.685 284.542 324.285 272.756 324.285 259.201V259.201C324.285 198.109 299.69 130.104 277 81C306.896 128.338 342.285 198.465 342.285 261.004C342.285 264.39 342.139 267.736 341.853 271.037Z" fill="#1F1A17"/>
<path d="M232 375H277V447H232V375Z" fill="white"/>
<path d="M304.463 241.271C303.961 241.06 303.436 240.911 302.922 240.729C302.544 240.6 302.167 240.472 301.789 240.341C301.383 240.202 300.987 239.974 300.611 240.452C300.534 240.551 300.253 240.552 300.11 240.487C299.343 240.137 298.593 240.124 297.815 240.452C297.63 240.53 297.394 240.487 297.182 240.474C296.83 240.452 296.477 240.39 296.124 240.376C295.844 240.365 295.515 240.308 295.295 240.441C295.161 240.522 295.192 240.924 295.141 241.18C295.126 241.254 295.107 241.365 295.059 241.39C294.918 241.459 294.762 241.493 294.612 241.542C294.62 241.422 294.608 241.294 294.639 241.18C294.713 240.906 295.012 240.548 294.616 240.397C294.106 240.199 294.185 240.742 294.127 241.043C294.096 241.201 294.123 241.384 293.911 241.295C293.801 241.249 293.663 241.103 293.656 240.993C293.644 240.809 293.739 240.618 293.763 240.428C293.774 240.352 293.713 240.266 293.686 240.184C293.041 240.584 292.793 239.8 292.338 239.636C292.107 239.552 292.018 239.607 291.919 239.801C291.659 240.304 291.193 240.335 290.803 240.182C290.354 240.008 289.952 239.726 289.455 239.96C289.137 239.448 288.843 240.044 288.501 239.991C287.81 239.889 287.112 239.842 286.416 239.782C286.052 239.751 285.653 239.648 285.29 239.661C285.022 239.67 284.816 239.823 284.543 239.849C284.334 239.869 284.104 239.785 283.999 239.589C283.955 239.505 283.924 239.394 283.838 239.368C283.75 239.34 283.67 239.42 283.593 239.474C283.331 239.654 283.028 239.539 282.721 239.407C282.767 239.352 282.767 239.296 282.831 239.241C282.879 239.203 282.956 239.139 282.95 239.1C282.831 238.378 283.306 237.552 282.638 236.921C282.642 236.38 282.071 235.925 282.453 235.311C282.517 235.209 282.39 234.964 282.351 234.786C282.31 234.605 282.192 234.393 282.237 234.245C282.434 233.618 282.287 233.222 281.721 232.929C281.377 232.75 281.46 232.326 281.485 231.98C281.509 231.66 281.754 231.698 281.955 231.631C282.094 231.587 282.241 231.439 282.308 231.296C282.58 230.715 282.579 230.035 282.493 229.404C282.457 229.139 282.537 229.126 282.37 228.861C282.305 228.758 281.867 228.529 281.856 228.467C281.773 227.924 281.689 227.379 281.604 226.835C281.561 226.557 281.497 226.241 281.27 226.103C281.036 225.958 280.665 226.026 280.552 225.761C280.474 225.58 280.599 225.359 280.765 225.273C280.932 225.189 281.125 225.206 281.309 225.223C281.076 224.658 280.39 224.482 280.07 223.968C279.893 223.685 279.849 223.331 279.809 222.989C279.717 222.185 279.623 221.383 279.53 220.579C279.056 220.388 278.657 219.988 278.443 219.493C278.294 219.522 278.135 219.547 277.997 219.476C277.862 219.407 277.78 219.195 277.882 219.072C277.917 219.029 277.971 219.005 278.019 218.979C278.382 218.787 278.642 218.223 278.344 217.928C278.124 217.71 277.776 217.805 277.496 217.914C277.477 217.628 277.603 217.336 277.82 217.169C277.452 216.571 277.304 215.685 276.905 215.149C276.576 214.708 276.136 214.701 276.066 214.017C276.051 213.863 276.067 213.705 276.058 213.55C276.053 213.478 276.02 213.405 275.999 213.336C275.936 213.399 275.87 213.46 275.81 213.524C275.518 213.832 275.53 213.824 275.3 213.47C275.229 213.363 275.075 213.318 274.959 213.246C274.907 213.372 274.828 213.493 274.804 213.624C274.773 213.796 275.069 214.102 274.645 214.098C274.349 214.097 274.341 213.829 274.338 213.59C274.337 213.474 274.314 213.342 274.351 213.241C274.739 212.254 273.752 211.9 273.537 211.189C273.516 211.122 273.125 211.194 273.1 211.124C272.965 210.73 272.882 210.315 272.795 209.901C272.712 209.5 271.983 209.399 272.344 208.777C272.352 208.763 272.157 208.538 272.056 208.537C271.598 208.525 271.349 208.229 271.108 207.867C270.945 207.623 270.759 207.381 270.539 207.198C269.8 206.581 269.791 206.59 269.286 205.56C269.143 205.267 268.553 205.073 268.477 205.313C268.321 205.806 268.172 205.63 267.916 205.497C267.502 205.28 267.244 204.981 267.147 204.461C267.079 204.089 266.808 203.602 266.453 203.718C265.963 203.88 265.917 203.52 265.731 203.283C265.597 203.115 265.419 202.771 265.345 202.795C264.789 202.983 264.867 202.587 264.824 202.236C264.789 201.942 264.679 201.659 264.6 201.372C264.529 201.12 264.417 200.873 264.398 200.619C264.375 200.307 264.276 200.186 263.998 200.047C263.592 199.847 263.248 199.236 262.885 199.245C262.201 199.262 262.15 198.827 262.013 198.359C262.005 198.334 261.945 198.299 261.924 198.308C261.719 198.389 261.52 198.376 261.656 198.093C261.872 197.647 261.704 197.413 261.347 197.293C259.946 196.817 259.968 195.981 258.121 196.354C258.086 196.361 258.049 196.35 258.013 196.35C257.601 196.361 257.298 196.209 257.279 195.71C257.263 195.316 257.114 195.064 256.755 195.256C256.43 195.431 256.419 195.034 256.269 195.034C256.159 195.034 256.07 195.316 255.934 195.379C255.852 195.416 255.609 195.295 255.594 195.212C255.511 194.739 255.287 194.615 254.909 194.828C254.497 195.062 254.249 194.908 254.032 194.503C253.776 194.03 253.479 193.602 252.909 193.513C252.756 193.488 252.614 193.303 252.49 193.166C252.118 192.76 251.807 192.274 251.139 192.573C250.997 192.636 250.665 192.395 250.516 192.206C250.121 191.702 249.62 191.672 249.078 191.663C248.439 191.651 248.399 191.589 248.423 190.933C248.428 190.818 248.447 190.701 248.483 190.594C248.593 190.268 248.428 190.383 248.238 190.343C247.596 190.21 246.961 190.019 246.342 189.791C246.141 189.718 245.872 189.476 245.853 189.286C245.813 188.869 245.698 188.83 245.319 188.755C244.865 188.664 244.114 188.136 244.008 188.252C243.703 188.58 243.002 187.804 242.95 188.719C242.949 188.752 242.835 188.778 242.775 188.808C242.633 188.257 242.301 188.923 242.084 188.676C241.721 188.266 241.346 188.35 240.928 188.648C240.721 188.796 240.324 188.911 240.161 188.796C239.767 188.518 239.459 188.314 239.114 188.821C238.518 188.654 237.921 188.489 237.325 188.322C237.356 187.729 236.638 187.446 236.859 186.702C237.147 185.737 237.14 184.797 235.797 184.205C235.548 184.094 235.453 183.957 235.469 183.703C235.481 183.514 235.462 183.228 235.561 183.158C235.987 182.856 235.844 182.411 235.886 182.005C235.936 181.544 235.877 181.218 235.341 181.265C235.321 181.266 235.23 180.975 235.261 180.846C235.331 180.55 235.468 180.274 235.554 179.979C235.592 179.846 235.628 179.625 235.564 179.559C235.062 179.037 235.097 178.277 234.819 177.66C234.747 177.501 234.681 177.31 234.555 177.214C233.892 176.701 233.889 176.651 234.018 175.847C234.109 175.279 234.211 174.677 234.12 174.125C234.045 173.671 234.076 172.984 233.339 172.936C233.05 172.918 233.048 172.612 233.147 172.394C233.356 171.934 233.336 171.585 232.878 171.323C232.765 171.258 232.692 171.104 232.611 170.982C231.821 169.793 231.39 168.469 231.356 166.998C231.352 166.848 231.344 166.6 231.27 166.567C230.566 166.241 230.884 165.829 231.103 165.341C231.216 165.089 231.233 164.641 231.095 164.434C230.668 163.792 230.725 163.01 230.474 162.316C230.135 161.38 229.784 160.396 230.031 159.327C230.093 159.062 230.075 158.764 229.718 158.713C229.382 158.666 229.217 158.402 229.146 158.094C229.069 157.759 229.072 157.392 228.616 157.727C228.581 157.752 228.439 157.694 228.434 157.66C228.395 157.399 228.344 157.131 228.364 156.873C228.387 156.594 228.586 156.654 228.774 156.698C228.824 156.71 228.947 156.599 228.955 156.532C229.033 155.885 228.21 154.921 227.628 155.005C227.442 155.031 227.189 155.172 227.112 155.339C226.784 156.06 226.316 156.694 226.171 157.529C226.034 158.315 225.646 159.043 225.716 159.884C225.727 160.017 225.621 160.175 225.542 160.303C225.262 160.761 225.237 161.282 225.362 161.765C225.468 162.176 225.357 162.235 225.039 162.226C224.75 162.219 224.669 162.431 224.687 162.688C224.721 163.264 224.774 163.838 224.818 164.413C224.83 164.566 224.87 164.722 224.844 164.867C224.731 165.465 224.571 166.056 224.484 166.658C224.429 167.038 224.342 167.522 224.503 167.805C224.954 168.605 224.696 169.363 224.571 170.145C224.461 170.824 224.346 171.504 224.239 172.182C224.172 172.596 223.977 173.057 224.08 173.414C224.272 174.073 223.534 174.028 223.512 174.505C223.5 174.743 223.207 174.957 223.18 175.2C223.07 176.154 222.991 177.116 222.95 178.076C222.911 179.03 223.01 179.985 222.955 180.943C222.931 181.37 222.837 181.708 222.516 181.942C222.053 182.277 221.8 182.725 221.613 183.306C221.368 184.067 220.97 184.704 220.224 185.135C219.449 185.583 218.746 186.267 218.841 187.421C218.852 187.536 218.844 187.655 218.836 187.771C218.813 188.067 218.693 188.199 218.417 188.053C218.148 187.911 218.017 188.01 217.992 188.322C217.963 188.693 217.971 189.075 217.882 189.43C217.79 189.797 217.779 190.156 217.246 190.336C216.658 190.536 215.92 190.76 215.649 191.548C215.523 191.913 215.337 191.882 215.064 191.748C214.796 191.617 214.575 191.684 214.512 192.055C214.472 192.289 214.356 192.344 214.128 192.293C213.9 192.238 213.652 192.283 213.416 192.271C212.774 192.233 212.239 192.621 211.648 192.793C211.202 192.922 210.791 193.199 210.343 193.293C209.894 193.387 209.482 193.595 208.989 193.601C208.144 193.608 207.746 194.195 207.697 195.163C207.693 195.243 207.598 195.391 207.574 195.385C207.452 195.351 207.312 195.301 207.235 195.206C207.194 195.154 207.294 194.995 207.29 194.885C207.278 194.667 207.175 194.488 206.954 194.616C206.232 195.039 205.43 195.185 204.648 195.378C204.311 195.462 204.138 195.573 204.138 195.965C204.138 196.068 203.996 196.174 203.918 196.277C203.848 196.161 203.763 196.054 203.714 195.927C203.647 195.755 203.618 195.564 203.549 195.392C203.537 195.361 203.406 195.387 203.328 195.387C203.556 196.007 203.108 195.945 202.842 195.865C202.128 195.652 201.563 196.377 200.863 196.178C200.799 196.16 200.678 196.285 200.611 196.369C200.544 196.454 200.504 196.569 200.465 196.677C200.265 197.24 199.407 197.464 199.748 198.305C199.658 198.331 199.547 198.407 199.487 198.374C199.268 198.251 199.143 198.362 199.049 198.542C198.943 198.743 198.821 198.949 198.778 199.17C198.713 199.502 198.62 199.673 198.278 199.505C198.218 199.475 198.036 199.56 198.021 199.624C197.91 200.09 197.621 199.872 197.353 199.889C196.626 199.932 196.429 200.178 196.393 200.91C196.343 201.879 196.104 202 195.16 203.09C194.505 203.846 193.625 204.209 192.996 204.953C192.777 205.212 192.496 205.358 192.1 205.26C191.475 205.105 191.061 205.401 190.706 206.034C190.31 206.74 189.806 207.463 189.187 207.915C188.385 208.499 188.065 209.213 187.935 210.187C187.841 210.888 187.699 211.606 186.837 211.845C186.474 211.948 186.249 212.445 186.065 212.931C185.888 213.398 185.832 213.837 185.773 214.306C185.745 214.534 185.587 214.614 185.363 214.717C184.258 215.229 184.3 215.273 183.736 216.626C183.613 216.922 183.502 217.147 183.602 217.452C182.741 217.554 182.76 218.555 182.244 219.016C182.091 219.153 181.971 219.385 181.925 219.597C181.755 220.42 181.629 221.254 181.463 222.076C181.431 222.233 181.31 222.457 181.192 222.49C180.45 222.699 180.308 223.38 180.261 224.008C180.237 224.323 180.071 224.434 180.003 224.632C179.806 225.197 178.983 225.145 179.018 225.885C179.02 225.901 178.818 225.981 178.751 225.944C178.167 225.629 178.123 226.218 178.073 226.505C177.981 227.034 177.965 227.6 178.034 228.134C178.126 228.842 177.821 229.429 177.569 229.983C177.249 230.685 176.834 231.287 176.911 232.153C176.943 232.509 176.697 232.948 176.476 233.267C176.094 233.818 175.616 234.288 175.213 234.823C175 235.109 174.618 235.559 175.445 235.443C175.495 235.435 175.627 235.605 175.615 235.677C175.567 236.005 175.937 236.685 175.118 236.43C175.083 236.418 174.983 236.585 174.945 236.683C174.778 237.11 174.575 237.529 174.474 237.973C174.395 238.32 174.307 238.81 174.463 239.047C174.89 239.696 174.516 240.308 174.535 240.928C174.536 241 174.417 241.133 174.35 241.137C174.282 241.141 174.195 241.027 174.143 240.945C174.087 240.854 174.061 240.739 174.022 240.633C173.991 240.702 173.963 240.77 173.931 240.837C173.727 241.242 173.492 241.632 173.328 242.055C173.174 242.452 173.021 242.878 172.996 243.3C172.957 243.884 172.961 244.469 172.951 245.055C172.629 245.187 172.307 245.319 171.984 245.449C171.756 245.542 171.496 245.634 171.278 245.516C171.096 245.418 170.943 245.175 170.746 245.235C170.485 245.311 170.385 245.733 170.177 245.898C170.012 246.029 169.834 246.04 169.647 246.107C169.035 246.325 168.521 246.77 167.875 246.898C167.356 247 166.727 247.111 166.398 247.478C166.101 247.813 165.74 248.038 165.482 247.96C165.174 247.866 165.008 247.986 164.804 248.092C163.703 248.665 162.562 249.143 161.344 249.252C160.546 249.324 160.112 249.868 159.792 250.482C159.595 250.86 159.392 250.691 159.358 250.58C159.203 250.047 158.802 250.143 158.502 250.209C157.996 250.321 157.512 250.558 157.014 250.725C156.709 250.827 156.369 251.031 156.094 250.96C155.521 250.81 155.102 251.055 154.712 251.4C154.366 251.707 154.003 251.732 153.61 251.631C153.365 251.568 153.124 251.482 152.891 251.38C152.607 251.255 152.388 251.36 152.24 251.604C151.786 252.361 151.487 253.205 151.534 254.101C151.554 254.469 151.649 254.683 151.31 254.964C150.841 255.354 150.923 255.692 151.432 256.026C151.806 256.27 152.179 256.384 152.631 256.279C152.928 256.21 152.859 256.404 152.742 256.609C152.608 256.84 152.761 256.967 152.962 257.005C153.194 257.049 153.116 256.855 153.148 256.72C153.218 256.429 153.321 256.143 153.439 255.871C153.46 255.824 153.644 255.823 153.728 255.859C153.783 255.883 153.842 256.027 153.824 256.097C153.761 256.35 153.559 256.628 153.61 256.837C153.714 257.256 154.091 256.999 154.353 257.043C154.494 257.067 154.632 257.12 154.769 257.166C155.68 257.465 156.573 257.951 157.556 257.472C158.25 257.677 158.923 257.244 159.677 257.531C160.341 257.785 161.147 257.579 161.889 257.622C162.31 257.646 162.727 257.759 163.148 257.827C163.618 257.904 163.913 257.905 164.38 257.842C164.675 257.803 164.964 257.945 165.258 257.979C165.443 258.001 165.633 257.979 165.811 257.914C165.867 257.893 165.922 257.867 165.966 257.825C166.009 257.782 166.037 257.727 166.08 257.685C166.124 257.643 166.182 257.621 166.232 257.583C166.722 257.221 166.758 256.468 166.92 255.913C166.94 255.84 166.967 255.758 167.012 255.704C167.055 255.656 167.131 255.611 167.187 255.615C167.243 255.618 167.325 255.674 167.348 255.73C167.464 256.013 167.332 256.525 167.495 256.729C167.578 256.835 167.791 256.831 167.902 256.894C168.111 257.011 168.285 257.215 168.466 257.378C168.516 257.424 168.569 257.471 168.632 257.487C168.703 257.506 168.778 257.486 168.848 257.459C169.052 257.381 169.242 257.261 169.401 257.104C169.459 257.047 169.516 256.983 169.591 256.951C169.689 256.91 169.796 256.934 169.899 256.952C170.279 257.026 170.664 257.056 171.049 257.085C171.25 257.1 171.452 257.115 171.652 257.132C172.67 257.208 173.698 257.206 174.7 257.045C174.708 257.074 174.699 257.113 174.708 257.14C175.02 257.904 173.9 259.314 175.185 259.704C175.209 259.956 175.144 260.217 175.003 260.423C175.279 260.222 175.67 260.538 175.709 260.893C175.749 261.249 175.566 261.585 175.389 261.888C175.512 261.926 175.626 261.996 175.716 262.094C175.739 261.896 175.763 261.697 175.784 261.499C175.965 261.503 176.048 261.766 175.986 261.948C175.924 262.131 175.781 262.265 175.685 262.427C175.497 262.744 175.499 263.149 175.536 263.522C175.589 264.064 175.703 264.596 175.875 265.108C176.07 265.69 176.342 266.304 176.187 266.898C176.122 267.149 175.986 267.429 176.122 267.643C176.184 267.74 176.287 267.793 176.355 267.882C176.454 268.011 176.466 268.191 176.475 268.357C176.499 268.856 176.432 269.491 176.555 269.972C176.641 270.309 176.856 270.613 176.964 270.958C177.032 271.176 177.096 271.395 177.153 271.616C177.282 272.128 177.424 272.577 177.825 272.985C178.303 273.471 178.857 274.007 178.685 274.923C178.595 275.402 179.04 275.674 179.343 275.916C179.731 276.227 179.991 276.607 180.177 277.07C180.247 277.245 180.3 277.445 180.417 277.573C181.425 278.685 182.456 279.774 183.458 280.892C183.644 281.1 183.889 280.961 184.003 281.064C184.15 281.196 184.123 281.538 184.26 281.705C184.742 282.283 185.223 282.876 185.777 283.363C186.329 283.847 186.574 284.77 187.466 284.79C187.537 284.791 187.659 284.944 187.67 285.037C187.726 285.588 188.046 285.775 188.495 285.956C188.83 286.092 189.072 286.491 189.353 286.777C189.562 286.99 189.732 287.298 189.98 287.406C190.861 287.795 190.861 288.576 190.731 289.354C190.404 291.32 190.503 293.281 190.669 295.248C190.681 295.39 190.696 295.563 190.634 295.674C190.417 296.071 190.216 296.5 189.916 296.815C189.572 297.179 189.403 297.583 189.477 298.058C189.572 298.682 189.158 299.212 189.331 299.881C189.504 300.544 188.701 300.891 188.593 301.528C188.562 301.711 188.452 301.883 188.367 302.054C188.244 302.298 188.236 302.443 188.403 302.747C188.75 303.376 188.79 304.149 188.375 304.786C188.058 305.272 188.047 305.894 188.256 306.196C188.575 306.658 188.569 307.093 188.609 307.581C188.675 308.4 189.257 308.979 189.994 308.987C190.857 308.996 191.722 309.001 192.586 308.986C193.122 308.974 194.189 308.051 194.188 307.498C194.185 306.588 194.619 305.909 194.997 305.181C195.059 305.06 195.609 304.436 194.776 304.705C194.777 304.577 194.729 304.406 194.788 304.33C195.034 304 195.317 303.726 195.298 303.226C195.26 302.253 195.749 301.453 196.205 300.697C196.778 299.752 197.225 298.777 197.464 297.68C197.666 296.748 197.784 295.774 198.267 294.953C198.69 294.236 199.157 293.567 199.2 292.665C199.213 292.374 199.422 292.14 199.721 292.241C199.977 292.327 200.016 292.24 200.056 292.003C200.083 291.841 200.186 291.695 200.256 291.538C200.368 291.671 200.54 291.785 200.579 291.939C200.717 292.461 201.133 292.623 201.503 292.846C201.789 293.021 201.803 293.008 202.146 292.599C202.281 292.44 202.367 292.479 202.462 292.656C202.503 292.732 202.699 292.806 202.706 292.796C203.015 292.296 203.112 292.679 203.218 292.942C203.317 293.193 203.273 293.318 202.994 293.193C202.929 293.163 202.856 293.138 202.788 293.137C202.722 293.136 202.653 293.163 202.584 293.178C202.603 293.226 202.61 293.295 202.644 293.321C202.959 293.564 203.276 293.804 203.596 294.038C204.243 294.505 204.899 294.961 205.542 295.435C205.731 295.575 205.708 295.589 205.989 295.323C206.036 295.279 206.222 295.302 206.247 295.351C206.366 295.586 206.472 295.834 206.544 296.092C206.62 296.361 206.765 296.358 206.948 296.262C207.21 296.123 207.422 296.212 207.371 296.513C207.255 297.189 207.696 297.172 208.077 297.313C208.575 297.501 209.051 297.756 209.535 297.98C209.72 298.065 209.902 298.214 210.088 298.22C210.771 298.25 211.477 298.346 212.134 298.2C212.86 298.038 213.461 298.22 214.052 298.58C215.146 299.243 216.327 299.495 217.557 299.403C218.371 299.342 219.019 299.664 219.634 300.164C219.748 300.257 219.834 300.398 219.956 300.472C220.165 300.597 220.303 300.584 220.196 300.257C220.113 299.996 220.263 299.896 220.469 299.899C220.788 299.905 220.645 300.117 220.611 300.292C220.588 300.402 220.58 300.543 220.627 300.631C220.672 300.712 220.797 300.781 220.888 300.781C220.979 300.781 221.143 300.699 221.148 300.639C221.165 300.454 221.116 300.263 221.11 300.074C221.109 300.018 221.166 299.919 221.204 299.915C221.307 299.906 221.472 299.901 221.504 299.961C221.588 300.12 221.594 300.325 221.67 300.491C221.725 300.612 221.835 300.774 221.934 300.786C222.672 300.87 223.411 300.954 224.152 300.97C225.191 300.99 226.233 300.949 227.275 300.944C227.378 300.944 227.491 300.983 227.582 301.037C228.217 301.412 228.905 301.277 229.579 301.285C230.257 301.293 230.921 301.306 231.593 301.506C233.003 301.926 234.413 301.887 235.796 301.297C236.121 301.157 236.483 301.078 236.832 301.052C237.333 301.014 237.838 301.051 238.343 301.052C238.846 301.054 239.351 301.054 239.855 301.052C240.381 301.051 240.906 301.058 241.431 301.032C241.913 301.01 242.436 300.8 242.864 300.942C243.369 301.109 243.712 300.327 244.179 300.805C244.567 300.637 245.083 300.583 245.321 300.277C245.921 299.504 246.737 299.234 247.548 299.004C247.991 298.88 248.341 298.721 248.647 298.368C248.977 297.987 249.41 297.666 249.879 297.807C250.393 297.961 250.723 297.628 251.116 297.479C251.543 297.316 251.961 297.144 252.308 296.751C252.745 296.256 253.267 295.833 253.991 295.878C254.208 295.891 254.445 295.716 254.655 295.589C255.638 295.005 256.464 294.075 257.684 294.016C257.779 294.011 257.886 293.938 257.964 293.866C258.374 293.498 258.778 293.122 259.18 292.743C259.254 292.674 259.369 292.515 259.369 292.515C259.872 292.929 260.685 292.067 261.058 292.991C261.851 292.756 261.58 293.252 261.473 293.671C261.418 293.882 261.367 294.137 261.429 294.33C261.525 294.634 261.744 295.155 261.866 295.142C262.472 295.069 263.028 295.659 263.643 295.274C263.77 295.193 263.808 295.307 263.893 295.455C264.126 295.856 264.47 296.185 264.769 296.543C265.517 296.337 265.093 296.825 265.092 297.128C265.088 297.662 265.068 298.235 265.233 298.718C265.343 299.037 265.502 299.328 265.506 299.685C265.514 300.096 265.701 300.117 266.001 299.964C266.227 299.849 266.35 300.014 266.34 300.234C266.328 300.494 266.339 300.874 266.197 300.983C265.801 301.286 265.955 301.678 265.939 302.041C265.91 302.64 266.471 302.982 266.518 303.553C266.578 303.535 266.636 303.516 266.696 303.498C266.624 303.241 266.67 303.146 266.944 303.225C267.134 303.281 267.347 303.251 267.549 303.259C267.528 303.433 267.47 303.614 267.498 303.777C267.519 303.887 267.66 304.046 267.754 304.051C268.43 304.099 268.737 304.609 269.007 305.17C269.202 305.575 269.228 306.093 269.64 306.349C269.967 306.553 269.975 307.293 270.587 307.011C270.606 307.081 270.659 307.172 270.637 307.216C270.522 307.435 270.61 307.512 270.778 307.656C271.114 307.941 271.45 308.262 271.686 308.639C271.884 308.96 272.108 309.001 272.405 308.999C273.269 308.993 274.133 309.008 274.996 308.993C275.608 308.984 275.641 308.965 275.635 308.354C275.628 307.79 275.798 307.177 275.363 306.684C275.332 306.649 275.39 306.5 275.431 306.419C275.831 305.603 275.755 304.786 275.357 304.021C275.237 303.791 275.069 303.654 275.184 303.358C275.235 303.226 275.243 303 275.172 302.904C274.511 302.024 274.367 300.968 274.194 299.901C274.154 299.66 274.087 299.452 274.09 299.179C274.095 298.171 274.016 297.146 273.187 296.469C272.973 296.293 272.954 296.203 273.01 295.931C273.183 295.115 272.888 294.396 272.438 293.768C271.742 292.795 271.755 291.759 272.58 291.029C272.832 290.807 272.878 290.58 272.798 290.334C272.701 290.076 272.515 289.828 272.358 289.571C272.345 289.549 272.229 289.558 272.212 289.588C272.059 289.839 271.916 289.929 271.766 289.592C271.67 289.378 271.576 289.165 271.481 288.951C272.026 288.721 271.483 287.924 272.042 287.681C272.094 287.659 272.077 287.415 272.073 287.276C272.049 286.66 271.954 286.037 272.013 285.432C272.045 285.083 272.093 284.881 271.756 284.702C271.196 284.404 271.023 283.818 271.132 283.225C271.253 282.554 271.392 281.833 271.926 281.365C272.483 280.876 272.802 280.25 272.964 279.515C273.102 278.886 273.379 278.452 273.946 278.109C274.361 277.858 274.523 277.151 274.925 276.828C275.38 276.465 275.956 276.289 276.171 275.629C276.218 275.487 276.286 275.277 276.389 275.24C277.304 274.918 277.557 274.068 277.825 273.217C277.87 273.077 277.972 272.94 278.082 272.85C278.443 272.55 278.478 272.142 278.458 271.697C278.442 271.308 278.439 270.916 278.458 270.53C278.474 270.181 278.407 270.087 278.044 270.146C277.749 270.194 277.815 269.829 277.824 269.615C277.835 269.38 277.953 269.277 278.184 269.363C278.548 269.498 278.716 269.21 278.595 268.953C278.363 268.462 278.622 268.313 278.934 268.189C279.692 267.889 279.822 267.257 279.733 266.501C279.71 266.312 279.607 266.125 279.618 265.941C279.646 265.489 279.646 265.011 279.8 264.605C279.877 264.4 280.261 264.323 280.509 264.198C280.572 264.164 280.646 264.15 280.716 264.141C281.005 264.102 281.094 263.871 281.001 263.641C280.842 263.248 280.734 262.975 281.314 263.111C281.331 263.115 281.467 262.789 281.456 262.622C281.42 262.015 281.578 261.478 281.856 260.96C281.979 260.733 282.051 260.464 282.101 260.203C282.124 260.086 282.019 259.828 281.991 259.832C281.722 259.862 281.625 259.734 281.793 259.523C282.457 258.693 282.251 257.878 281.752 257.103C281.524 256.753 281.424 256.453 281.536 256.032C281.611 255.755 281.69 255.396 281.589 255.167C281.215 254.324 281.743 253.658 282.095 253.177C282.384 252.783 282.465 252.408 282.477 252.03C282.691 252.078 282.79 252.025 282.993 251.96C283.353 251.845 283.575 251.977 283.925 252.024C284.316 252.076 284.707 251.896 285.078 251.767C285.585 251.588 286.113 251.476 286.611 251.275C286.832 251.186 287.011 250.802 287.195 250.814C288.406 250.89 289.336 250.353 290.098 249.4C290.445 248.967 290.855 248.737 291.384 248.643C291.827 248.563 292.254 248.347 292.679 248.161C293.338 247.874 293.983 247.547 294.645 247.264C294.929 247.141 295.287 247.158 295.522 246.977C295.794 246.769 296.025 246.856 296.292 246.856C296.819 246.855 297.397 247.416 297.87 246.71C297.882 246.692 297.954 246.69 297.966 246.706C298.317 247.177 298.599 246.741 298.733 246.538C299.025 246.086 299.309 246.121 299.751 246.236C300.544 246.444 301.386 246.548 302.145 246.129C302.653 245.85 303.12 245.526 303.712 245.466C303.881 245.448 304.126 245.268 304.177 245.102C304.466 244.184 304.737 243.255 304.956 242.312C305.084 241.743 304.937 241.471 304.463 241.271ZM242.441 206.081C242.559 206.136 242.675 206.191 242.796 206.24C242.891 206.282 243.027 206.38 243.081 206.343C243.672 205.95 243.945 206.461 244.361 206.763C245.424 207.532 246.315 208.612 247.721 208.8C248.212 208.864 248.656 209.407 249.107 209.753C249.593 210.126 250.378 210.357 251.049 210.314C251.156 210.307 251.345 210.387 251.361 210.46C251.453 210.891 251.735 210.966 252.067 211.148C252.685 211.485 253.187 212.066 253.757 212.515C254.099 212.786 254.472 213.014 254.847 213.229C254.912 213.268 255.067 213.169 255.159 213.101C255.352 212.956 255.561 212.985 255.494 213.237C255.405 213.566 255.605 213.706 255.68 213.937C255.817 214.369 256.359 213.998 256.455 214.518C256.51 214.82 256.806 215.076 257.008 215.338C257.236 215.637 257.473 215.925 257.719 216.206C257.838 216.339 257.976 216.465 258.125 216.555C258.644 216.863 259.252 217.034 259.366 217.844C259.394 218.04 259.727 218.186 259.924 218.347C260.307 218.663 260.804 218.838 260.796 219.544C260.795 219.757 261.167 219.971 261.363 220.19C261.743 220.614 262.236 221.019 262.44 221.584C262.542 221.865 262.531 222.91 262.931 222.861C263.045 222.846 263.129 222.737 263.243 222.718C263.5 222.676 263.592 223.073 263.575 223.354C263.9 223.123 264.376 223.175 264.652 223.475C264.549 223.604 264.447 223.736 264.345 223.865C264.927 224.104 265.622 224.534 265.549 225.203C265.333 225.106 265.063 225.356 265.116 225.603C265.518 225.526 265.942 225.57 266.323 225.735C266.338 225.62 266.354 225.508 266.37 225.393C266.531 225.4 266.674 225.561 266.673 225.735C266.672 225.91 266.527 226.07 266.366 226.074C266.592 226.207 266.772 226.428 266.863 226.688C266.945 226.922 266.957 227.175 267.004 227.419C267.123 228.042 267.485 228.607 267.982 228.946C267.908 229.154 267.833 229.361 267.76 229.569C267.966 229.617 268.191 229.574 268.372 229.456C268.385 229.598 268.4 229.743 268.412 229.887C268.45 230.283 268.48 230.71 268.301 231.058C268.466 231.076 268.628 231.089 268.786 231.126C268.763 231.433 268.979 231.576 269.041 231.836C269.145 232.264 268.991 232.296 269.378 232.644C270.116 233.309 270.942 233.999 270.933 235.229C271.458 235.98 271.107 236.754 270.995 237.524C270.915 238.076 270.716 238.641 271.138 239.156C271.2 239.233 271.147 239.423 271.138 239.561C271.134 239.65 271.094 239.737 271.07 239.825C270.964 239.8 270.856 239.765 270.748 239.796C270.566 239.851 270.428 240.002 270.266 240.109C270.108 240.216 269.883 240.275 269.741 240.14C269.681 240.085 269.645 240.003 269.586 239.949C269.404 239.787 269.143 239.941 268.913 239.986C268.618 240.043 268.326 239.909 268.056 239.769C267.693 239.584 267.337 239.388 266.985 239.18C266.108 239.415 265.082 239.337 264.287 239.688C264.078 239.781 263.822 239.923 263.604 239.988C263.477 240.025 263.367 240.048 263.239 240.008C263.164 239.986 262.893 239.71 262.876 239.714C262.666 239.765 262.414 239.825 262.161 239.888C262.022 239.923 261.884 239.994 261.745 239.991C260.367 239.973 259.075 240.523 257.723 240.689C257.586 240.706 257.363 240.646 257.32 240.715C256.894 241.455 256.599 241.831 256.733 240.528C256.736 240.502 256.531 240.399 256.496 240.428C255.99 240.873 255.371 240.188 254.873 240.626C254.829 240.593 254.784 240.602 254.74 240.582C254.63 240.436 254.507 240.299 254.408 240.141C254.317 239.999 254.045 239.621 254.008 239.476C253.976 239.361 254.058 238.899 254.067 238.921C253.966 238.691 253.929 238.43 253.961 238.178C253.767 238.359 253.44 238.19 253.346 237.934C253.252 237.677 253.315 237.387 253.381 237.121C253.192 237.232 252.969 237.263 252.76 237.207L252.806 236.758C253.028 236.6 253.253 236.442 253.476 236.283C253.254 236.118 253.046 235.889 253 235.601C252.955 235.311 253.138 234.973 253.409 234.964C253.508 234.367 253.154 233.72 252.622 233.528C252.449 233.464 252.251 233.439 252.125 233.292C251.824 232.938 252.184 232.168 251.778 231.972C251.639 231.903 251.477 231.957 251.332 232.013C251.189 232.068 251.028 232.124 250.887 232.061C250.746 231.997 250.68 231.753 250.812 231.67C251.055 231.674 251.298 231.616 251.519 231.508C251.506 231.332 251.49 231.153 251.476 230.978C251.211 231.034 250.96 230.82 250.789 230.594C250.248 229.879 250.063 228.811 250.484 228.009C249.742 228.168 249.026 227.658 248.723 226.95C248.603 226.672 248.858 226.118 248.274 226.138C248.291 225.958 248.243 225.695 248.336 225.609C248.852 225.12 248.688 224.404 248.716 223.852C248.74 223.378 248.258 222.844 247.942 222.385C247.562 221.831 247.133 221.334 247.074 220.586C247.054 220.342 246.88 220.074 246.713 219.888C246.22 219.341 246.002 218.66 245.761 217.969C245.513 217.255 245.249 216.56 244.753 215.947C244.385 215.493 244.287 214.771 244.109 214.152C244.042 213.918 244.042 213.681 243.753 213.685C243.283 213.69 243.356 213.57 243.543 213.172C243.947 212.31 243.698 211.423 242.966 210.848C242.717 210.652 242.814 210.418 242.75 210.202C242.402 209 242.846 207.718 242.387 206.536C242.338 206.406 242.418 206.23 242.441 206.081ZM215.74 240.662C215.986 240.28 216.348 239.875 216.527 239.453C216.678 239.099 216.622 238.775 216.927 238.49C217.298 238.145 217.449 237.743 217.195 237.256C216.886 236.659 217.57 236.329 217.522 235.795C217.519 235.762 217.87 235.603 217.988 235.662C218.363 235.847 218.517 235.671 218.627 235.329C218.697 235.11 218.741 234.876 218.848 234.683C219.127 234.166 219.064 233.691 218.658 233.333C218.414 233.12 218.408 232.89 218.408 232.62C218.408 232.369 218.461 232.18 218.733 232.108C219.775 231.829 220.195 230.744 219.741 229.679C219.594 229.334 219.563 229.037 219.738 228.706C219.808 228.574 219.902 228.415 219.887 228.28C219.772 227.253 220.412 226.672 220.964 226.024C221.07 225.901 221.208 225.666 221.165 225.564C220.994 225.158 221.276 224.817 221.247 224.44C221.242 224.379 221.382 224.244 221.444 224.252C221.516 224.261 221.587 224.38 221.634 224.467C221.666 224.53 221.65 224.619 221.662 224.694C221.697 224.945 221.736 225.197 221.773 225.446C222.198 225.267 221.983 224.964 221.91 224.679C221.894 224.623 221.966 224.482 221.98 224.486C222.625 224.626 222.494 224.127 222.498 223.751C222.501 223.362 222.502 222.973 222.482 222.584C222.478 222.527 222.351 222.48 222.281 222.425C222.155 222.325 221.925 222.227 221.921 222.118C221.904 221.701 222.185 222.101 222.281 221.995C222.371 221.901 222.492 221.764 222.483 221.657C222.433 221.004 222.654 220.553 223.056 220.032C223.405 219.58 223.64 218.751 223.511 218.202C223.322 217.389 223.515 216.676 223.587 215.927C223.645 215.313 223.65 214.73 223.491 214.128C223.411 213.824 223.471 213.474 223.492 213.146C223.497 213.076 223.599 212.979 223.673 212.953C224.498 212.671 224.38 211.795 224.641 211.159C224.654 211.128 224.535 211.031 224.476 210.967C224.399 210.883 224.24 210.761 224.257 210.722C224.424 210.305 224.525 209.71 224.829 209.534C225.613 209.077 225.32 208.274 225.483 207.641C225.554 207.368 225.364 207.059 225.812 207.022C225.868 207.017 225.959 206.756 225.945 206.621C225.839 205.622 226.422 204.878 226.748 204.041C226.827 203.84 227.063 203.696 226.861 203.448C226.473 202.966 227.146 202.757 227.103 202.36C227.101 202.339 227.348 202.26 227.355 202.273C227.529 202.666 227.899 202.577 228.181 202.709C228.37 202.795 228.576 203.038 228.367 203.35C228.068 203.796 228.32 204.178 228.494 204.573C228.667 204.965 228.849 205.385 229.293 205.427C229.833 205.475 230.094 205.638 229.894 206.285C229.832 206.485 230.001 206.554 230.231 206.567C230.583 206.584 230.733 206.934 230.503 207.083C229.912 207.463 230.073 207.964 230.193 208.507C230.295 208.959 230.503 209.378 230.656 209.793C230.825 210.253 230.951 210.729 230.878 211.135C230.731 211.96 231.278 212.396 231.556 212.988C231.569 213.018 231.611 213.036 231.642 213.057C232.334 213.5 232.397 213.517 232.227 214.228C232.005 215.172 232.37 215.934 232.718 216.718C232.75 216.792 232.92 216.877 232.971 216.847C233.436 216.573 233.541 216.825 233.54 217.27C233.54 217.346 233.559 217.425 233.584 217.496C233.749 217.952 233.348 218.453 233.747 218.919C234.031 219.251 234.181 219.715 234.387 220.124C234.805 220.954 235.319 221.756 235.093 222.789C235.415 223.297 235.163 224.136 235.894 224.416C235.949 224.437 235.998 224.588 235.988 224.67C235.886 225.457 236.238 225.883 236.915 226.041C237.125 226.089 237.089 226.19 237.064 226.362C237.037 226.54 237.032 226.754 237.1 226.912C237.34 227.473 237.927 227.807 237.787 228.634C237.704 229.112 238.056 229.664 238.121 230.212C238.144 230.395 238.224 230.583 238.315 230.743C238.555 231.176 238.075 231.753 238.694 232.072C238.84 232.407 238.82 232.797 238.817 233.167C238.816 233.537 238.845 233.937 239.062 234.225C239.28 234.512 239.747 234.597 239.951 234.299C240.151 234.402 240.255 234.684 240.173 234.909C240.024 234.973 239.876 235.038 239.726 235.104C239.846 235.387 240.057 235.625 240.314 235.763C240.018 236.281 239.848 236.884 239.825 237.494C239.822 237.592 239.822 237.694 239.86 237.783C239.976 238.074 240.36 238.069 240.638 237.972C240.915 237.875 241.235 237.738 241.482 237.911C241.502 238.163 241.523 238.415 241.544 238.667C241.433 238.684 241.322 238.701 241.208 238.715C241.315 239.164 241.419 239.612 241.525 240.061C241.509 240.069 241.49 240.065 241.475 240.072C241.057 240.252 240.639 240.432 240.223 240.61C240.086 240.67 239.942 240.729 239.797 240.704C239.667 240.682 239.553 240.595 239.427 240.555C239.06 240.436 238.72 240.726 238.507 241.021C238.415 241.149 238.372 241.336 238.254 241.44C238.206 241.481 237.844 241.592 237.85 241.579C237.562 242.458 237.071 242.078 236.6 241.815C236.059 241.545 235.401 241.687 234.905 241.259C234.29 241.636 233.676 241.066 233.018 241.298C232.464 241.493 231.821 241.384 231.217 241.422C230.578 241.461 230.443 241.622 230.514 242.311C230.533 242.486 230.569 242.641 230.358 242.588C230.192 242.545 229.925 242.619 229.94 242.236C229.963 241.671 229.778 241.519 229.434 241.812C229.109 242.09 228.855 242.347 228.432 242.023C228.377 241.98 228.156 242.109 228.068 242.215C227.883 242.434 227.733 242.456 227.534 242.241C227.339 242.032 227.116 241.939 226.875 242.187C226.828 242.234 226.731 242.284 226.688 242.259C226.358 242.085 226.06 241.678 225.666 242.135C225.342 241.931 225.015 241.996 224.678 242.096C224.588 242.125 224.459 242.072 224.369 242.016C223.18 241.291 221.874 241.533 220.623 241.596C219.951 241.63 219.351 241.558 218.736 241.335C218.496 241.249 218.259 241.154 218.014 241.092C217.774 241.033 217.497 240.92 217.295 241.002C217.142 241.065 217.128 241.523 216.976 241.578C216.802 241.645 216.55 241.454 216.325 241.413C216.306 241.409 216.218 241.676 216.207 241.823C216.195 241.991 216.196 242.161 215.991 242.069C215.66 241.921 215.765 241.621 215.66 241.378C215.695 241.313 215.728 241.246 215.762 241.181C215.564 241.144 215.629 240.832 215.74 240.662ZM188.139 240.072C188.009 239.431 188.431 239.111 188.784 238.739C189.203 238.298 189.49 237.794 189.249 237.119C189.146 236.832 189.572 236.469 189.119 236.208C189.005 236.143 189.047 235.991 189.271 235.97C189.689 235.933 189.884 235.593 189.876 235.171C189.857 234.29 190.107 233.531 190.528 232.775C190.808 232.272 190.997 231.697 191.249 231.163C191.42 230.8 191.353 230.266 191.292 229.825C191.201 229.164 191.178 229.192 191.68 228.839C192.055 228.576 192.415 228.272 192.731 227.932C192.851 227.804 192.878 227.514 192.86 227.309C192.783 226.47 193.183 225.855 193.602 225.223C193.976 224.662 194.268 224.034 194.649 223.479C195.143 222.762 195.491 221.917 196.281 221.446C196.45 221.347 196.912 221.124 196.708 220.644C196.692 220.602 196.756 220.469 196.768 220.472C197.359 220.575 197.387 220.005 197.643 219.677C197.863 219.395 198.223 219.24 198.516 219.023C198.774 218.831 198.75 218.848 198.466 218.459C198.374 218.334 198.368 218.048 198.435 217.89C198.533 217.657 198.688 217.698 198.81 217.932C198.838 217.986 199.062 217.999 199.071 217.973C199.265 217.468 200.112 217.691 200.073 216.928C200.069 216.871 200.167 216.749 200.186 216.757C200.856 217.022 200.953 216.264 201.323 216.003C201.705 215.733 202.013 215.327 202.406 215.088C203.473 214.443 204.313 213.427 205.471 212.935C206.044 212.691 206.517 212.312 206.887 211.756C207.12 211.407 207.313 210.932 207.875 211.008C207.961 211.02 208.142 210.693 208.184 210.499C208.254 210.174 208.235 209.829 208.28 209.498C208.29 209.414 208.401 209.293 208.466 209.29C208.534 209.29 208.647 209.403 208.664 209.487C208.705 209.674 208.683 209.876 208.72 210.063C208.737 210.152 208.835 210.221 208.895 210.301C208.941 210.19 208.989 210.079 209.032 209.966C209.063 209.882 209.107 209.723 209.107 209.723C209.798 209.921 210.193 209.001 210.872 209.182C211.61 208.647 212.35 208.11 213.088 207.575C213.165 207.036 213.651 207.266 213.918 207.072C214.047 206.979 214.061 206.501 214.363 206.842C214.558 207.065 214.572 207.307 214.347 207.556C213.975 207.963 214.007 208.533 213.891 209.039C213.872 209.12 213.966 209.312 213.998 209.31C214.195 209.297 214.462 209.118 214.487 209.498C214.52 209.96 214.496 210.43 214.459 210.892C214.454 210.955 214.215 211.058 214.106 211.034C213.966 211.003 213.846 210.862 213.718 210.768C213.69 210.955 213.687 211.155 213.624 211.328C213.506 211.653 213.355 211.962 213.21 212.273C213.094 212.52 212.996 212.735 213.145 213.031C213.287 213.31 212.972 213.219 212.919 213.288C212.7 213.562 212.374 213.99 212.446 214.237C212.68 215.022 212.205 215.574 212.012 216.19C211.822 216.793 211.644 217.349 211.767 217.989C211.787 218.092 211.731 218.276 211.656 218.33C211.407 218.502 210.993 218.557 210.895 218.787C210.659 219.332 210.583 219.958 210.407 220.539C210.263 221.012 210.297 221.522 210.012 221.976C209.866 222.211 209.956 222.616 209.502 222.438C209.486 222.43 209.352 222.646 209.345 222.762C209.325 223.151 209.34 223.54 209.334 223.929C209.327 224.344 209.412 224.759 208.927 225.023C208.761 225.113 208.745 225.561 208.69 225.852C208.651 226.053 208.62 226.292 208.389 226.21C207.853 226.018 207.852 226.421 207.838 226.766C207.811 227.389 207.853 228.015 207.815 228.634C207.791 229.015 208.092 228.873 208.189 228.998C208.29 229.13 208.634 229.443 208.117 229.563C208.011 229.588 207.857 229.754 207.856 229.859C207.832 230.993 207.113 231.749 206.593 232.608C206.427 232.882 206.277 233.097 206.379 233.45C206.424 233.603 206.369 233.817 206.308 233.98C206.052 234.649 205.777 235.306 205.511 235.971C205.484 236.04 205.459 236.121 205.461 236.194C205.477 236.607 205.571 237.035 205.502 237.429C205.442 237.78 205.192 238.088 205.059 238.43C205.006 238.563 205.006 238.746 205.039 238.891C205.205 239.589 205.106 240.264 204.976 240.934C204.041 240.953 203.105 240.92 202.217 240.754C201.065 240.535 199.867 240.62 198.755 240.125C198.206 239.881 197.665 239.796 197.161 240.321C197 240.489 196.707 240.558 196.466 240.584C195.719 240.664 195.156 241.218 194.478 241.44C193.818 241.654 193.044 241.364 192.442 241.968C192.372 242.038 192.084 241.859 191.898 241.797C191.906 241.736 191.914 241.674 191.924 241.613C191.26 241.559 190.59 241.439 189.929 241.471C189.396 241.497 188.863 241.61 188.334 241.718C188.286 241.467 188.205 241.202 188.139 240.971C188.044 240.653 187.665 240.376 188.139 240.072ZM199.487 255.849C199.176 256.264 198.864 256.679 198.551 257.092C198.453 257.22 198.346 257.357 198.196 257.396C198.357 257.623 198.053 257.883 197.842 258.055C197.574 258.274 197.402 258.62 197.377 258.982C197.726 259.252 197.752 259.844 197.526 260.239C197.301 260.636 196.893 260.868 196.485 261.016C196.447 261.208 196.646 262.487 196.54 262.503C196.136 262.557 195.849 262.812 195.759 263.201C195.603 263.862 195.131 264.435 195.301 265.192C195.506 266.091 195.479 266.244 195.156 267.003C194.991 267.388 194.82 267.772 194.658 268.157C194.532 268.456 194.543 268.911 194.617 269.344C194.646 269.514 194.621 269.755 194.526 269.882C193.878 270.741 193.792 270.925 193.783 271.823C193.779 272.367 193.791 272.911 193.776 273.455C193.773 273.613 193.86 273.869 193.552 273.84C193.357 273.824 193.07 273.909 192.98 273.798C192.673 273.429 192.406 273.012 192.182 272.579C191.905 272.044 191.689 271.498 191.136 271.17C190.851 271.002 190.684 270.59 190.485 270.272C190.302 269.977 190.134 269.716 189.742 269.737C189.52 269.748 189.402 269.527 189.589 269.361C190.123 268.89 189.784 268.279 189.86 267.737C189.868 267.674 189.817 267.545 189.782 267.541C189.061 267.456 189.379 266.764 189.178 266.379C188.932 265.903 189.163 265.276 189.146 264.75C188.788 264.903 188.408 264.324 188.656 264.007C188.794 263.833 189.068 263.701 189.009 263.481C188.98 263.371 188.875 263.313 188.796 263.234C188.614 263.056 188.571 262.772 188.544 262.508C188.438 261.489 188.398 260.461 188.429 259.436C188.433 259.306 188.438 259.171 188.394 259.05C188.346 258.919 188.244 258.819 188.153 258.716C187.506 257.967 187.391 256.741 187.886 255.866C187.885 255.836 187.882 255.806 187.881 255.776C187.929 255.76 187.973 255.776 188.022 255.748C188.14 255.68 188.322 255.833 188.441 255.848C188.63 255.872 188.869 255.836 189.03 255.729C189.369 255.502 189.382 255.301 189.871 255.486C190.126 255.583 190.38 255.723 190.65 255.703C190.728 255.698 190.805 255.678 190.881 255.66C190.997 255.63 191.114 255.603 191.232 255.574C191.402 255.531 191.575 255.488 191.729 255.399C192.084 255.191 192.231 255.091 192.626 255.134C193.085 255.182 193.541 255.234 193.991 255.349C194.078 255.371 194.168 255.395 194.255 255.373C194.416 255.331 194.503 255.147 194.623 255.024C194.781 254.865 195.021 254.807 195.226 254.879C195.416 254.948 195.569 255.113 195.762 255.173C195.884 255.21 196.012 255.201 196.137 255.19C196.888 255.121 197.635 254.985 198.365 254.785C198.897 254.639 199.494 254.516 199.96 254.793C199.96 254.819 199.957 254.843 199.955 254.867C199.935 255.241 199.706 255.558 199.487 255.849ZM253.098 281.89C252.655 281.865 252.381 282.071 252.081 282.368C251.82 282.625 251.505 282.831 251.185 282.996C250.562 283.321 250.025 283.702 249.637 284.369C249.404 284.767 248.953 285.023 248.576 285.31C248.492 285.375 248.315 285.288 248.181 285.288C248.05 285.288 247.827 285.266 247.799 285.331C247.565 285.889 247.179 285.843 246.753 285.681C246.272 286.22 245.603 286.07 245.023 286.193C244.196 286.369 243.459 286.877 242.579 286.884C242.278 286.886 241.966 287.24 241.687 287.474C241.555 287.585 241.504 287.803 241.387 287.947C240.999 288.421 240.862 288.413 240.519 287.942C240.496 287.912 240.484 287.872 240.459 287.845C240.288 287.674 240.132 287.409 239.935 287.366C239.703 287.316 239.385 287.872 239.371 288.243C239.368 288.355 239.387 288.477 239.421 288.585C239.469 288.743 239.523 288.898 239.292 288.902C239.197 288.903 239.071 288.864 239.007 288.796C238.743 288.513 238.481 288.429 238.17 288.457C237.526 288.514 236.889 288.824 236.23 288.527C236.065 288.453 235.961 288.519 236.021 288.74C236.032 288.775 236.04 288.818 236.03 288.851C235.93 289.164 235.825 289.476 235.723 289.789C235.198 289.605 235.521 289.134 235.45 288.802C235.352 288.336 235.231 288.259 234.832 288.562C234.599 288.736 234.138 288.733 234.286 289.262C234.091 289.293 233.891 289.37 233.705 289.34C233.615 289.326 233.551 289.114 233.476 288.99C233.42 289.158 233.353 289.324 233.31 289.499C233.238 289.785 233.145 289.901 232.88 289.671C232.73 289.542 232.531 289.447 232.34 289.405C232.061 289.344 232.14 289.606 232.1 289.768C232.093 289.794 231.946 289.823 231.915 289.792C231.35 289.206 230.521 289.434 229.878 289.027C229.676 288.899 229.208 288.954 228.883 288.979C228.492 289.013 228.145 289.193 227.814 288.796C227.754 288.724 227.494 288.85 227.326 288.882C226.903 288.963 226.903 288.963 226.023 288.518C225.99 288.501 225.959 288.475 225.927 288.471C225.077 288.391 224.226 288.305 223.376 288.253C223.249 288.245 223.061 288.39 223 288.518C222.944 288.637 223.178 288.916 222.845 288.899C222.735 288.894 222.571 288.775 222.533 288.668C222.208 287.727 221.367 287.472 220.664 287.103C220.209 286.864 219.62 286.809 219.1 286.843C218.393 286.889 217.955 286.565 217.566 285.994C217.364 285.698 217.119 285.319 216.83 285.238C216.418 285.123 215.945 285.229 215.503 285.285C215.435 285.294 215.567 285.673 215.269 285.645C215.044 285.624 214.706 285.743 214.887 285.248C214.904 285.201 214.786 285.098 214.732 285.022C214.669 285.098 214.579 285.163 214.547 285.252C214.451 285.515 214.672 285.977 214.301 286.035C213.895 286.1 213.741 285.579 213.751 285.313C213.767 284.863 213.625 284.98 213.412 285.079C213.214 285.172 213.054 285.152 213.022 284.887C212.919 284.036 212.44 283.72 211.695 283.78C210.846 283.847 210.14 283.428 209.574 282.845C209.076 282.332 208.487 282.161 207.884 281.965C207.766 281.926 207.541 281.948 207.49 282.032C207.162 282.566 207.029 282.258 206.838 281.912C206.656 281.584 206.386 281.315 206.202 280.989C205.996 280.621 205.261 280.793 205.403 280.152C205.501 279.716 205.08 279.231 205.537 278.858C205.372 278.32 205.576 277.815 205.621 277.293C205.695 276.459 205.822 275.691 206.41 275.086C206.441 275.055 206.355 274.89 206.324 274.788C205.965 274.962 205.877 274.746 205.875 274.417C205.874 274.028 205.87 273.639 205.875 273.247C205.88 272.897 205.998 272.729 206.341 272.917C206.551 273.034 206.668 272.939 206.721 272.699C206.753 272.549 206.84 272.409 206.854 272.26C206.89 271.885 207.02 271.448 206.893 271.144C206.699 270.681 207.227 270.613 207.166 270.243C207.106 269.867 207.193 269.463 207.161 269.077C207.097 268.312 207.368 267.714 207.873 267.217C208.228 266.868 208.415 266.491 208.486 265.934C208.59 265.109 208.774 264.246 209.316 263.592C209.568 263.29 209.285 262.645 209.888 262.602C210.031 262.169 210.192 261.739 210.311 261.298C210.422 260.879 210.571 260.508 210.887 260.216C211.043 260.074 211.212 259.862 211.24 259.658C211.414 258.422 211.981 257.428 212.767 256.547C213.43 255.803 212.641 255.175 213.055 254.477C213.253 254.144 213.686 254.199 213.97 254.042C213.85 253.912 213.689 253.804 213.545 253.693C213.637 253.485 213.711 253.257 213.737 253.023C213.887 252.999 214.037 253.009 214.196 252.924C214.839 252.581 215.384 252.407 216.094 252.66C216.77 252.903 217.433 253.231 218.19 252.984C218.368 252.928 218.616 253.04 218.81 253.125C220.22 253.732 221.7 253.941 223.19 254.141C223.766 254.219 224.116 253.807 224.556 253.576C224.508 253.513 224.453 253.392 224.41 253.397C223.996 253.438 224.083 253.256 224.272 253.041C224.426 252.866 224.612 252.53 224.718 253.083C225.093 253.14 225.458 253.225 225.754 253.516C225.776 253.538 225.951 253.455 225.964 253.393C226.028 253.133 226.024 252.849 226.122 252.61C226.173 252.482 226.394 252.34 226.516 252.361C226.811 252.416 226.638 252.588 226.571 252.763C226.518 252.904 226.572 253.096 226.579 253.264C226.734 253.203 226.894 253.154 227.044 253.076C227.202 252.992 226.901 252.492 227.3 252.669C227.526 252.769 227.619 253.087 227.367 253.348C227.341 253.374 227.3 253.403 227.297 253.434C227.286 253.538 227.29 253.644 227.288 253.75C227.383 253.728 227.533 253.737 227.562 253.677C227.736 253.315 227.909 253.22 228.204 253.558C228.418 253.805 228.626 253.626 228.867 253.529C229.033 253.461 229.29 253.739 229.518 253.766C229.976 253.821 230.439 253.835 230.898 253.814C231.651 253.781 232.383 253.809 233.115 254.074C233.609 254.252 234.138 254.216 234.674 254.181C236.393 254.07 238.306 254.574 239.972 254.007C240.212 253.925 240.463 253.814 240.71 253.875C240.774 253.892 240.845 253.919 240.908 253.893C241.067 253.825 241.004 253.499 241.165 253.437C241.251 253.465 241.334 253.492 241.42 253.521C241.431 253.597 241.419 253.676 241.389 253.744C241.927 253.985 242.622 253.553 242.704 252.929C242.713 252.862 242.717 252.789 242.754 252.736C242.826 252.63 242.991 252.652 243.073 252.748C243.157 252.842 243.181 252.982 243.195 253.112C243.206 253.206 243.215 253.305 243.278 253.37C243.34 253.434 243.47 253.421 243.484 253.331C243.438 253.558 243.528 253.813 243.706 253.947C243.883 253.684 244.057 253.419 244.232 253.156C244.275 253.24 244.394 253.229 244.463 253.169C244.534 253.112 244.575 253.021 244.638 252.956C244.796 252.795 245.047 252.814 245.253 252.888C245.458 252.961 245.657 253.079 245.873 253.084C245.937 253.085 245.996 253.045 246.059 253.019C245.997 253.442 245.944 253.866 246.383 254.189C246.43 254.224 246.478 254.335 246.463 254.391C246.211 255.255 246.76 256.024 246.709 256.87C246.676 257.414 246.798 257.818 247.393 258.04C248.002 258.266 247.958 259.052 248.156 259.611C248.183 259.684 248.092 259.812 248.045 259.906C247.624 260.764 247.699 261.556 248.294 262.185C248.408 262.305 248.566 262.294 248.54 262.587C248.469 263.41 249.173 264.026 249.127 264.873C249.12 265.005 249.324 265.205 249.471 265.28C249.881 265.488 250.013 265.749 249.766 266.198C249.72 266.282 249.747 266.517 249.778 266.526C250.632 266.773 250.372 267.653 250.541 268.235C250.67 268.675 250.858 268.988 251.134 269.291C251.16 269.319 251.186 269.342 251.214 269.368C252.306 270.387 252.335 270.391 252.217 271.781C252.127 272.837 252.248 273.816 252.759 274.74C252.956 275.095 253.055 275.517 253.177 275.916C253.398 276.648 253.569 277.383 254.137 277.949C254.438 278.249 254.638 278.707 254.792 279.132C254.903 279.441 254.91 279.816 254.886 280.157C254.856 280.613 253.544 281.916 253.098 281.89ZM269.871 252.258C269.785 252.271 269.649 252.386 269.646 252.456C269.635 253.027 269.418 253.666 269.79 254.144C270.148 254.607 269.925 254.888 269.628 255.096C269.048 255.502 268.985 256.057 268.914 256.747C268.801 257.877 268.586 259.009 267.87 259.956C267.645 260.256 267.53 260.707 267.396 261.109C267.1 262.001 266.646 262.845 266.164 263.644C265.827 264.203 265.768 264.819 266.086 265.23C266.571 265.856 266.241 266.486 266.334 267.101C266.345 267.165 266.3 267.286 266.257 267.303C265.771 267.481 265.768 268.018 265.541 268.387C265.199 268.946 264.889 268.921 264.5 268.346C264.333 268.098 264.205 267.807 264.007 267.592C263.786 267.352 263.521 267.024 263.252 266.995C262.711 266.94 262.288 266.816 262.02 266.257C261.888 265.984 261.846 266.32 261.762 266.337C261.654 266.359 261.431 266.296 261.431 266.278C261.439 265.978 261.372 265.55 261.525 265.405C262.051 264.913 261.72 264.312 261.801 263.773C261.833 263.552 261.691 263.549 261.525 263.601C261.197 263.704 261.151 263.44 261.178 263.208C261.265 262.422 261.032 261.785 260.58 261.169C260.38 260.895 260.38 260.447 260.291 260.079C260.247 259.898 260.223 259.563 260.161 259.557C259.588 259.487 259.809 259.176 259.927 258.845C260.05 258.5 260.177 258.139 260.204 257.776C260.244 257.246 260.22 256.707 260.177 256.174C260.137 255.691 259.994 255.237 260.039 254.722C260.084 254.205 259.913 253.666 259.823 253.137C259.813 253.076 259.734 252.982 259.685 252.979C259.539 252.974 259.471 252.876 259.385 252.8C259.385 252.752 259.386 252.703 259.389 252.654C259.455 252.474 259.49 252.265 259.599 252.124C259.663 252.038 259.857 252.009 259.973 252.044C260.194 252.108 260.059 252.24 260.004 252.385C259.836 252.837 259.865 252.789 260.344 252.946C260.787 253.092 261.173 253.19 261.58 252.86C261.683 252.776 261.916 252.761 262.026 252.831C262.399 253.07 262.741 252.907 263.075 252.783C263.589 252.592 264.077 252.455 264.643 252.594C265.002 252.681 265.419 252.559 265.736 252.266C265.838 252.173 265.934 252.075 266.034 251.98C265.907 251.926 265.782 251.868 265.651 251.821C265.562 251.79 265.469 251.777 265.378 251.754C265.472 251.601 265.558 251.441 265.663 251.3C265.813 251.105 265.888 251.193 265.915 251.4C265.92 251.437 265.943 251.499 265.958 251.499C266.163 251.511 266.431 251.43 266.551 251.541C266.686 251.666 266.676 251.967 266.753 252.18C266.764 252.214 266.969 252.219 266.978 252.192C267.085 251.903 267.161 251.601 267.264 251.312C267.327 251.136 267.401 250.954 267.509 250.812C267.552 250.755 267.714 250.761 267.8 250.799C267.919 250.853 267.978 251.329 268.088 251.464C268.259 251.675 268.507 251.816 268.766 251.837C269.13 251.865 269.489 251.678 269.855 251.697C269.985 251.705 270.101 251.791 270.227 251.839C270.223 252.036 270.155 252.213 269.871 252.258Z" fill="#1F1A17"/>
</svg>
