<svg width="512" height="512" viewBox="0 0 512 512" fill="none" xmlns="http://www.w3.org/2000/svg">
<path d="M369 459.5C369 475.792 318.408 489 256 489C193.592 489 143 475.792 143 459.5C143 452.025 153.651 445.199 171.206 440C191.913 433.868 222.226 430 256 430C289.774 430 320.087 433.868 340.794 440C358.349 445.199 369 452.025 369 459.5Z" fill="#1F1A17"/>
<path d="M340.794 440C358.349 445.199 369 452.025 369 459.5V440H340.794Z" fill="#1F1A17"/>
<path d="M143 459.5C143 452.025 153.651 445.199 171.206 440H143V459.5Z" fill="#1F1A17"/>
<ellipse cx="256" cy="440.5" rx="113" ry="29.5" fill="#1F1A17"/>
<ellipse cx="255.5" cy="439" rx="91.5" ry="18" fill="white"/>
<path d="M215 395H295V441H215V395Z" fill="#1F1A17"/>
<ellipse cx="255" cy="440.5" rx="40" ry="3.5" fill="#1F1A17"/>
<path d="M391 282.5C391 351.536 330.558 407.5 256 407.5C181.442 407.5 121 351.536 121 282.5C121 201.089 180.649 99.7959 227.106 36.6223C241.639 16.8607 270.361 16.8607 284.894 36.6223C331.351 99.7959 391 201.089 391 282.5Z" fill="#1F1A17"/>
<path d="M372 274.167C372 336.906 320.065 387.767 256 387.767C191.935 387.767 140 336.906 140 274.167C140 198.413 193.733 112.711 234.015 60.1661C245.204 45.5698 266.796 45.5698 277.985 60.1661C318.267 112.711 372 198.413 372 274.167Z" fill="white"/>
<path d="M341.853 271.037C340.685 284.542 324.285 272.756 324.285 259.201V259.201C324.285 198.109 299.69 130.104 277 81C306.896 128.338 342.285 198.465 342.285 261.004C342.285 264.39 342.139 267.736 341.853 271.037Z" fill="#1F1A17"/>
<path d="M232 375H277V447H232V375Z" fill="white"/>
<path d="M309.463 241.271C308.961 241.06 308.436 240.911 307.922 240.729C307.544 240.6 307.167 240.472 306.789 240.341C306.383 240.202 305.987 239.974 305.611 240.452C305.534 240.551 305.253 240.552 305.11 240.487C304.343 240.137 303.593 240.124 302.815 240.452C302.63 240.53 302.394 240.487 302.182 240.474C301.83 240.452 301.477 240.39 301.124 240.376C300.844 240.365 300.515 240.308 300.295 240.441C300.161 240.522 300.192 240.924 300.141 241.18C300.126 241.254 300.107 241.365 300.059 241.39C299.918 241.459 299.762 241.493 299.612 241.542C299.62 241.422 299.608 241.294 299.639 241.18C299.713 240.906 300.012 240.548 299.616 240.397C299.106 240.199 299.185 240.742 299.127 241.043C299.096 241.201 299.123 241.384 298.911 241.295C298.801 241.249 298.663 241.103 298.656 240.993C298.644 240.809 298.739 240.618 298.763 240.428C298.774 240.352 298.713 240.266 298.686 240.184C298.041 240.584 297.793 239.8 297.338 239.636C297.107 239.552 297.018 239.607 296.919 239.801C296.659 240.304 296.193 240.335 295.803 240.182C295.354 240.008 294.952 239.726 294.455 239.96C294.137 239.448 293.843 240.044 293.501 239.991C292.81 239.889 292.112 239.842 291.416 239.782C291.052 239.751 290.653 239.648 290.29 239.661C290.022 239.67 289.816 239.823 289.543 239.849C289.334 239.869 289.104 239.785 288.999 239.589C288.955 239.505 288.924 239.394 288.838 239.368C288.75 239.34 288.67 239.42 288.593 239.474C288.331 239.654 288.028 239.539 287.721 239.407C287.767 239.352 287.767 239.296 287.831 239.241C287.879 239.203 287.956 239.139 287.95 239.1C287.831 238.378 288.306 237.552 287.638 236.921C287.642 236.38 287.071 235.925 287.453 235.311C287.517 235.209 287.39 234.964 287.351 234.786C287.31 234.605 287.192 234.393 287.237 234.245C287.434 233.618 287.287 233.222 286.721 232.929C286.377 232.75 286.46 232.326 286.485 231.98C286.509 231.66 286.754 231.698 286.955 231.631C287.094 231.587 287.241 231.439 287.308 231.296C287.58 230.715 287.579 230.035 287.493 229.404C287.457 229.139 287.537 229.126 287.37 228.861C287.305 228.758 286.867 228.529 286.856 228.467C286.773 227.924 286.689 227.379 286.604 226.835C286.561 226.557 286.497 226.241 286.27 226.103C286.036 225.958 285.665 226.026 285.552 225.761C285.474 225.58 285.599 225.359 285.765 225.273C285.932 225.189 286.125 225.206 286.309 225.223C286.076 224.658 285.39 224.482 285.07 223.968C284.893 223.685 284.849 223.331 284.809 222.989C284.717 222.185 284.623 221.383 284.53 220.579C284.056 220.388 283.657 219.988 283.443 219.493C283.294 219.522 283.135 219.547 282.997 219.476C282.862 219.407 282.78 219.195 282.882 219.072C282.917 219.029 282.971 219.005 283.019 218.979C283.382 218.787 283.642 218.223 283.344 217.928C283.124 217.71 282.776 217.805 282.496 217.914C282.477 217.628 282.603 217.336 282.82 217.169C282.452 216.571 282.304 215.685 281.905 215.149C281.576 214.708 281.136 214.701 281.066 214.017C281.051 213.863 281.067 213.705 281.058 213.55C281.053 213.478 281.02 213.405 280.999 213.336C280.936 213.399 280.87 213.46 280.81 213.524C280.518 213.832 280.53 213.824 280.3 213.47C280.229 213.363 280.075 213.318 279.959 213.246C279.907 213.372 279.828 213.493 279.804 213.624C279.773 213.796 280.069 214.102 279.645 214.098C279.349 214.097 279.341 213.829 279.338 213.59C279.337 213.474 279.314 213.342 279.351 213.241C279.739 212.254 278.752 211.9 278.537 211.189C278.516 211.122 278.125 211.194 278.1 211.124C277.965 210.73 277.882 210.315 277.795 209.901C277.712 209.5 276.983 209.399 277.344 208.777C277.352 208.763 277.157 208.538 277.056 208.537C276.598 208.525 276.349 208.229 276.108 207.867C275.945 207.623 275.759 207.381 275.539 207.198C274.8 206.581 274.791 206.59 274.286 205.56C274.143 205.267 273.553 205.073 273.477 205.313C273.321 205.806 273.172 205.63 272.916 205.497C272.502 205.28 272.244 204.981 272.147 204.461C272.079 204.089 271.808 203.602 271.453 203.718C270.963 203.88 270.917 203.52 270.731 203.283C270.597 203.115 270.419 202.771 270.345 202.795C269.789 202.983 269.867 202.587 269.824 202.236C269.789 201.942 269.679 201.659 269.6 201.372C269.529 201.12 269.417 200.873 269.398 200.619C269.375 200.307 269.276 200.186 268.998 200.047C268.592 199.847 268.248 199.236 267.885 199.245C267.201 199.262 267.15 198.827 267.013 198.359C267.005 198.334 266.945 198.299 266.924 198.308C266.719 198.389 266.52 198.376 266.656 198.093C266.872 197.647 266.704 197.413 266.347 197.293C264.946 196.817 264.968 195.981 263.121 196.354C263.086 196.361 263.049 196.35 263.013 196.35C262.601 196.361 262.298 196.209 262.279 195.71C262.263 195.316 262.114 195.064 261.755 195.256C261.43 195.431 261.419 195.034 261.269 195.034C261.159 195.034 261.07 195.316 260.934 195.379C260.852 195.416 260.609 195.295 260.594 195.212C260.511 194.739 260.287 194.615 259.909 194.828C259.497 195.062 259.249 194.908 259.032 194.503C258.776 194.03 258.479 193.602 257.909 193.513C257.756 193.488 257.614 193.303 257.49 193.166C257.118 192.76 256.807 192.274 256.139 192.573C255.997 192.636 255.665 192.395 255.516 192.206C255.121 191.702 254.62 191.672 254.078 191.663C253.439 191.651 253.399 191.589 253.423 190.933C253.428 190.818 253.447 190.701 253.483 190.594C253.593 190.268 253.428 190.383 253.238 190.343C252.596 190.21 251.961 190.019 251.342 189.791C251.141 189.718 250.872 189.476 250.853 189.286C250.813 188.869 250.698 188.83 250.319 188.755C249.865 188.664 249.114 188.136 249.008 188.252C248.703 188.58 248.002 187.804 247.95 188.719C247.949 188.752 247.835 188.778 247.775 188.808C247.633 188.257 247.301 188.923 247.084 188.676C246.721 188.266 246.346 188.35 245.928 188.648C245.721 188.796 245.324 188.911 245.161 188.796C244.767 188.518 244.459 188.314 244.114 188.821C243.518 188.654 242.921 188.489 242.325 188.322C242.356 187.729 241.638 187.446 241.859 186.702C242.147 185.737 242.14 184.797 240.797 184.205C240.548 184.094 240.453 183.957 240.469 183.703C240.481 183.514 240.462 183.228 240.561 183.158C240.987 182.856 240.844 182.411 240.886 182.005C240.936 181.544 240.877 181.218 240.341 181.265C240.321 181.266 240.23 180.975 240.261 180.846C240.331 180.55 240.468 180.274 240.554 179.979C240.592 179.846 240.628 179.625 240.564 179.559C240.062 179.037 240.097 178.277 239.819 177.66C239.747 177.501 239.681 177.31 239.555 177.214C238.892 176.701 238.889 176.651 239.018 175.847C239.109 175.279 239.211 174.677 239.12 174.125C239.045 173.671 239.076 172.984 238.339 172.936C238.05 172.918 238.048 172.612 238.147 172.394C238.356 171.934 238.336 171.585 237.878 171.323C237.765 171.258 237.692 171.104 237.611 170.982C236.821 169.793 236.39 168.469 236.356 166.998C236.352 166.848 236.344 166.6 236.27 166.567C235.566 166.241 235.884 165.829 236.103 165.341C236.216 165.089 236.233 164.641 236.095 164.434C235.668 163.792 235.725 163.01 235.474 162.316C235.135 161.38 234.784 160.396 235.031 159.327C235.093 159.062 235.075 158.764 234.718 158.713C234.382 158.666 234.217 158.402 234.146 158.094C234.069 157.759 234.072 157.392 233.616 157.727C233.581 157.752 233.439 157.694 233.434 157.66C233.395 157.399 233.344 157.131 233.364 156.873C233.387 156.594 233.586 156.654 233.774 156.698C233.824 156.71 233.947 156.599 233.955 156.532C234.033 155.885 233.21 154.921 232.628 155.005C232.442 155.031 232.189 155.172 232.112 155.339C231.784 156.06 231.316 156.694 231.171 157.529C231.034 158.315 230.646 159.043 230.716 159.884C230.727 160.017 230.621 160.175 230.542 160.303C230.262 160.761 230.237 161.282 230.362 161.765C230.468 162.176 230.357 162.235 230.039 162.226C229.75 162.219 229.669 162.431 229.687 162.688C229.721 163.264 229.774 163.838 229.818 164.413C229.83 164.566 229.87 164.722 229.844 164.867C229.731 165.465 229.571 166.056 229.484 166.658C229.429 167.038 229.342 167.522 229.503 167.805C229.954 168.605 229.696 169.363 229.571 170.145C229.461 170.824 229.346 171.504 229.239 172.182C229.172 172.596 228.977 173.057 229.08 173.414C229.272 174.073 228.534 174.028 228.512 174.505C228.5 174.743 228.207 174.957 228.18 175.2C228.07 176.154 227.991 177.116 227.95 178.076C227.911 179.03 228.01 179.985 227.955 180.943C227.931 181.37 227.837 181.708 227.516 181.942C227.053 182.277 226.8 182.725 226.613 183.306C226.368 184.067 225.97 184.704 225.224 185.135C224.449 185.583 223.746 186.267 223.841 187.421C223.852 187.536 223.844 187.655 223.836 187.771C223.813 188.067 223.693 188.199 223.417 188.053C223.148 187.911 223.017 188.01 222.992 188.322C222.963 188.693 222.971 189.075 222.882 189.43C222.79 189.797 222.779 190.156 222.246 190.336C221.658 190.536 220.92 190.76 220.649 191.548C220.523 191.913 220.337 191.882 220.064 191.748C219.796 191.617 219.575 191.684 219.512 192.055C219.472 192.289 219.356 192.344 219.128 192.293C218.9 192.238 218.652 192.283 218.416 192.271C217.774 192.233 217.239 192.621 216.648 192.793C216.202 192.922 215.791 193.199 215.343 193.293C214.894 193.387 214.482 193.595 213.989 193.601C213.144 193.608 212.746 194.195 212.697 195.163C212.693 195.243 212.598 195.391 212.574 195.385C212.452 195.351 212.312 195.301 212.235 195.206C212.194 195.154 212.294 194.995 212.29 194.885C212.278 194.667 212.175 194.488 211.954 194.616C211.232 195.039 210.43 195.185 209.648 195.378C209.311 195.462 209.138 195.573 209.138 195.965C209.138 196.068 208.996 196.174 208.918 196.277C208.848 196.161 208.763 196.054 208.714 195.927C208.647 195.755 208.618 195.564 208.549 195.392C208.537 195.361 208.406 195.387 208.328 195.387C208.556 196.007 208.108 195.945 207.842 195.865C207.128 195.652 206.563 196.377 205.863 196.178C205.799 196.16 205.678 196.285 205.611 196.369C205.544 196.454 205.504 196.569 205.465 196.677C205.265 197.24 204.407 197.464 204.748 198.305C204.658 198.331 204.547 198.407 204.487 198.374C204.268 198.251 204.143 198.362 204.049 198.542C203.943 198.743 203.821 198.949 203.778 199.17C203.713 199.502 203.62 199.673 203.278 199.505C203.218 199.475 203.036 199.56 203.021 199.624C202.91 200.09 202.621 199.872 202.353 199.889C201.626 199.932 201.429 200.178 201.393 200.91C201.343 201.879 201.104 202 200.16 203.09C199.505 203.846 198.625 204.209 197.996 204.953C197.777 205.212 197.496 205.358 197.1 205.26C196.475 205.105 196.061 205.401 195.706 206.034C195.31 206.74 194.806 207.463 194.187 207.915C193.385 208.499 193.065 209.213 192.935 210.187C192.841 210.888 192.699 211.606 191.837 211.845C191.474 211.948 191.249 212.445 191.065 212.931C190.888 213.398 190.832 213.837 190.773 214.306C190.745 214.534 190.587 214.614 190.363 214.717C189.258 215.229 189.3 215.273 188.736 216.626C188.613 216.922 188.502 217.147 188.602 217.452C187.741 217.554 187.76 218.555 187.244 219.016C187.091 219.153 186.971 219.385 186.925 219.597C186.755 220.42 186.629 221.254 186.463 222.076C186.431 222.233 186.31 222.457 186.192 222.49C185.45 222.699 185.308 223.38 185.261 224.008C185.237 224.323 185.071 224.434 185.003 224.632C184.806 225.197 183.983 225.145 184.018 225.885C184.02 225.901 183.818 225.981 183.751 225.944C183.167 225.629 183.123 226.218 183.073 226.505C182.981 227.034 182.965 227.6 183.034 228.134C183.126 228.842 182.821 229.429 182.569 229.983C182.249 230.685 181.834 231.287 181.911 232.153C181.943 232.509 181.697 232.948 181.476 233.267C181.094 233.818 180.616 234.288 180.213 234.823C180 235.109 179.618 235.559 180.445 235.443C180.495 235.435 180.627 235.605 180.615 235.677C180.567 236.005 180.937 236.685 180.118 236.43C180.083 236.418 179.983 236.585 179.945 236.683C179.778 237.11 179.575 237.529 179.474 237.973C179.395 238.32 179.307 238.81 179.463 239.047C179.89 239.696 179.516 240.308 179.535 240.928C179.536 241 179.417 241.133 179.35 241.137C179.282 241.141 179.195 241.027 179.143 240.945C179.087 240.854 179.061 240.739 179.022 240.633C178.991 240.702 178.963 240.77 178.931 240.837C178.727 241.242 178.492 241.632 178.328 242.055C178.174 242.452 178.021 242.878 177.996 243.3C177.957 243.884 177.961 244.469 177.951 245.055C177.629 245.187 177.307 245.319 176.984 245.449C176.756 245.542 176.496 245.634 176.278 245.516C176.096 245.418 175.943 245.175 175.746 245.235C175.485 245.311 175.385 245.733 175.177 245.898C175.012 246.029 174.834 246.04 174.647 246.107C174.035 246.325 173.521 246.77 172.875 246.898C172.356 247 171.727 247.111 171.398 247.478C171.101 247.813 170.74 248.038 170.482 247.96C170.174 247.866 170.008 247.986 169.804 248.092C168.703 248.665 167.562 249.143 166.344 249.252C165.546 249.324 165.112 249.868 164.792 250.482C164.595 250.86 164.392 250.691 164.358 250.58C164.203 250.047 163.802 250.143 163.502 250.209C162.996 250.321 162.512 250.558 162.014 250.725C161.709 250.827 161.369 251.031 161.094 250.96C160.521 250.81 160.102 251.055 159.712 251.4C159.366 251.707 159.003 251.732 158.61 251.631C158.365 251.568 158.124 251.482 157.891 251.38C157.607 251.255 157.388 251.36 157.24 251.604C156.786 252.361 156.487 253.205 156.534 254.101C156.554 254.469 156.649 254.683 156.31 254.964C155.841 255.354 155.923 255.692 156.432 256.026C156.806 256.27 157.179 256.384 157.631 256.279C157.928 256.21 157.859 256.404 157.742 256.609C157.608 256.84 157.761 256.967 157.962 257.005C158.194 257.049 158.116 256.855 158.148 256.72C158.218 256.429 158.321 256.143 158.439 255.871C158.46 255.824 158.644 255.823 158.728 255.859C158.783 255.883 158.842 256.027 158.824 256.097C158.761 256.35 158.559 256.628 158.61 256.837C158.714 257.256 159.091 256.999 159.353 257.043C159.494 257.067 159.632 257.12 159.769 257.166C160.68 257.465 161.573 257.951 162.556 257.472C163.25 257.677 163.923 257.244 164.677 257.531C165.341 257.785 166.147 257.579 166.889 257.622C167.31 257.646 167.727 257.759 168.148 257.827C168.618 257.904 168.913 257.905 169.38 257.842C169.675 257.803 169.964 257.945 170.258 257.979C170.443 258.001 170.633 257.979 170.811 257.914C170.867 257.893 170.922 257.867 170.966 257.825C171.009 257.782 171.037 257.727 171.08 257.685C171.124 257.643 171.182 257.621 171.232 257.583C171.722 257.221 171.758 256.468 171.92 255.913C171.94 255.84 171.967 255.758 172.012 255.704C172.055 255.656 172.131 255.611 172.187 255.615C172.243 255.618 172.325 255.674 172.348 255.73C172.464 256.013 172.332 256.525 172.495 256.729C172.578 256.835 172.791 256.831 172.902 256.894C173.111 257.011 173.285 257.215 173.466 257.378C173.516 257.424 173.569 257.471 173.632 257.487C173.703 257.506 173.778 257.486 173.848 257.459C174.052 257.381 174.242 257.261 174.401 257.104C174.459 257.047 174.516 256.983 174.591 256.951C174.689 256.91 174.796 256.934 174.899 256.952C175.279 257.026 175.664 257.056 176.049 257.085C176.25 257.1 176.452 257.115 176.652 257.132C177.67 257.208 178.698 257.206 179.7 257.045C179.708 257.074 179.699 257.113 179.708 257.14C180.02 257.904 178.9 259.314 180.185 259.704C180.209 259.956 180.144 260.217 180.003 260.423C180.279 260.222 180.67 260.538 180.709 260.893C180.749 261.249 180.566 261.585 180.389 261.888C180.512 261.926 180.626 261.996 180.716 262.094C180.739 261.896 180.763 261.697 180.784 261.499C180.965 261.503 181.048 261.766 180.986 261.948C180.924 262.131 180.781 262.265 180.685 262.427C180.497 262.744 180.499 263.149 180.536 263.522C180.589 264.064 180.703 264.596 180.875 265.108C181.07 265.69 181.342 266.304 181.187 266.898C181.122 267.149 180.986 267.429 181.122 267.643C181.184 267.74 181.287 267.793 181.355 267.882C181.454 268.011 181.466 268.191 181.475 268.357C181.499 268.856 181.432 269.491 181.555 269.972C181.641 270.309 181.856 270.613 181.964 270.958C182.032 271.176 182.096 271.395 182.153 271.616C182.282 272.128 182.424 272.577 182.825 272.985C183.303 273.471 183.857 274.007 183.685 274.923C183.595 275.402 184.04 275.674 184.343 275.916C184.731 276.227 184.991 276.607 185.177 277.07C185.247 277.245 185.3 277.445 185.417 277.573C186.425 278.685 187.456 279.774 188.458 280.892C188.644 281.1 188.889 280.961 189.003 281.064C189.15 281.196 189.123 281.538 189.26 281.705C189.742 282.283 190.223 282.876 190.777 283.363C191.329 283.847 191.574 284.77 192.466 284.79C192.537 284.791 192.659 284.944 192.67 285.037C192.726 285.588 193.046 285.775 193.495 285.956C193.83 286.092 194.072 286.491 194.353 286.777C194.562 286.99 194.732 287.298 194.98 287.406C195.861 287.795 195.861 288.576 195.731 289.354C195.404 291.32 195.503 293.281 195.669 295.248C195.681 295.39 195.696 295.563 195.634 295.674C195.417 296.071 195.216 296.5 194.916 296.815C194.572 297.179 194.403 297.583 194.477 298.058C194.572 298.682 194.158 299.212 194.331 299.881C194.504 300.544 193.701 300.891 193.593 301.528C193.562 301.711 193.452 301.883 193.367 302.054C193.244 302.298 193.236 302.443 193.403 302.747C193.75 303.376 193.79 304.149 193.375 304.786C193.058 305.272 193.047 305.894 193.256 306.196C193.575 306.658 193.569 307.093 193.609 307.581C193.675 308.4 194.257 308.979 194.994 308.987C195.857 308.996 196.722 309.001 197.586 308.986C198.122 308.974 199.189 308.051 199.188 307.498C199.185 306.588 199.619 305.909 199.997 305.181C200.059 305.06 200.609 304.436 199.776 304.705C199.777 304.577 199.729 304.406 199.788 304.33C200.034 304 200.317 303.726 200.298 303.226C200.26 302.253 200.749 301.453 201.205 300.697C201.778 299.752 202.225 298.777 202.464 297.68C202.666 296.748 202.784 295.774 203.267 294.953C203.69 294.236 204.157 293.567 204.2 292.665C204.213 292.374 204.422 292.14 204.721 292.241C204.977 292.327 205.016 292.24 205.056 292.003C205.083 291.841 205.186 291.695 205.256 291.538C205.368 291.671 205.54 291.785 205.579 291.939C205.717 292.461 206.133 292.623 206.503 292.846C206.789 293.021 206.803 293.008 207.146 292.599C207.281 292.44 207.367 292.479 207.462 292.656C207.503 292.732 207.699 292.806 207.706 292.796C208.015 292.296 208.112 292.679 208.218 292.942C208.317 293.193 208.273 293.318 207.994 293.193C207.929 293.163 207.856 293.138 207.788 293.137C207.722 293.136 207.653 293.163 207.584 293.178C207.603 293.226 207.61 293.295 207.644 293.321C207.959 293.564 208.276 293.804 208.596 294.038C209.243 294.505 209.899 294.961 210.542 295.435C210.731 295.575 210.708 295.589 210.989 295.323C211.036 295.279 211.222 295.302 211.247 295.351C211.366 295.586 211.472 295.834 211.544 296.092C211.62 296.361 211.765 296.358 211.948 296.262C212.21 296.123 212.422 296.212 212.371 296.513C212.255 297.189 212.696 297.172 213.077 297.313C213.575 297.501 214.051 297.756 214.535 297.98C214.72 298.065 214.902 298.214 215.088 298.22C215.771 298.25 216.477 298.346 217.134 298.2C217.86 298.038 218.461 298.22 219.052 298.58C220.146 299.243 221.327 299.495 222.557 299.403C223.371 299.342 224.019 299.664 224.634 300.164C224.748 300.257 224.834 300.398 224.956 300.472C225.165 300.597 225.303 300.584 225.196 300.257C225.113 299.996 225.263 299.896 225.469 299.899C225.788 299.905 225.645 300.117 225.611 300.292C225.588 300.402 225.58 300.543 225.627 300.631C225.672 300.712 225.797 300.781 225.888 300.781C225.979 300.781 226.143 300.699 226.148 300.639C226.165 300.454 226.116 300.263 226.11 300.074C226.109 300.018 226.166 299.919 226.204 299.915C226.307 299.906 226.472 299.901 226.504 299.961C226.588 300.12 226.594 300.325 226.67 300.491C226.725 300.612 226.835 300.774 226.934 300.786C227.672 300.87 228.411 300.954 229.152 300.97C230.191 300.99 231.233 300.949 232.275 300.944C232.378 300.944 232.491 300.983 232.582 301.037C233.217 301.412 233.905 301.277 234.579 301.285C235.257 301.293 235.921 301.306 236.593 301.506C238.003 301.926 239.413 301.887 240.796 301.297C241.121 301.157 241.483 301.078 241.832 301.052C242.333 301.014 242.838 301.051 243.343 301.052C243.846 301.054 244.351 301.054 244.855 301.052C245.381 301.051 245.906 301.058 246.431 301.032C246.913 301.01 247.436 300.8 247.864 300.942C248.369 301.109 248.712 300.327 249.179 300.805C249.567 300.637 250.083 300.583 250.321 300.277C250.921 299.504 251.737 299.234 252.548 299.004C252.991 298.88 253.341 298.721 253.647 298.368C253.977 297.987 254.41 297.666 254.879 297.807C255.393 297.961 255.723 297.628 256.116 297.479C256.543 297.316 256.961 297.144 257.308 296.751C257.745 296.256 258.267 295.833 258.991 295.878C259.208 295.891 259.445 295.716 259.655 295.589C260.638 295.005 261.464 294.075 262.684 294.016C262.779 294.011 262.886 293.938 262.964 293.866C263.374 293.498 263.778 293.122 264.18 292.743C264.254 292.674 264.369 292.515 264.369 292.515C264.872 292.929 265.685 292.067 266.058 292.991C266.851 292.756 266.58 293.252 266.473 293.671C266.418 293.882 266.367 294.137 266.429 294.33C266.525 294.634 266.744 295.155 266.866 295.142C267.472 295.069 268.028 295.659 268.643 295.274C268.77 295.193 268.808 295.307 268.893 295.455C269.126 295.856 269.47 296.185 269.769 296.543C270.517 296.337 270.093 296.825 270.092 297.128C270.088 297.662 270.068 298.235 270.233 298.718C270.343 299.037 270.502 299.328 270.506 299.685C270.514 300.096 270.701 300.117 271.001 299.964C271.227 299.849 271.35 300.014 271.34 300.234C271.328 300.494 271.339 300.874 271.197 300.983C270.801 301.286 270.955 301.678 270.939 302.041C270.91 302.64 271.471 302.982 271.518 303.553C271.578 303.535 271.636 303.516 271.696 303.498C271.624 303.241 271.67 303.146 271.944 303.225C272.134 303.281 272.347 303.251 272.549 303.259C272.528 303.433 272.47 303.614 272.498 303.777C272.519 303.887 272.66 304.046 272.754 304.051C273.43 304.099 273.737 304.609 274.007 305.17C274.202 305.575 274.228 306.093 274.64 306.349C274.967 306.553 274.975 307.293 275.587 307.011C275.606 307.081 275.659 307.172 275.637 307.216C275.522 307.435 275.61 307.512 275.778 307.656C276.114 307.941 276.45 308.262 276.686 308.639C276.884 308.96 277.108 309.001 277.405 308.999C278.269 308.993 279.133 309.008 279.996 308.993C280.608 308.984 280.641 308.965 280.635 308.354C280.628 307.79 280.798 307.177 280.363 306.684C280.332 306.649 280.39 306.5 280.431 306.419C280.831 305.603 280.755 304.786 280.357 304.021C280.237 303.791 280.069 303.654 280.184 303.358C280.235 303.226 280.243 303 280.172 302.904C279.511 302.024 279.367 300.968 279.194 299.901C279.154 299.66 279.087 299.452 279.09 299.179C279.095 298.171 279.016 297.146 278.187 296.469C277.973 296.293 277.954 296.203 278.01 295.931C278.183 295.115 277.888 294.396 277.438 293.768C276.742 292.795 276.755 291.759 277.58 291.029C277.832 290.807 277.878 290.58 277.798 290.334C277.701 290.076 277.515 289.828 277.358 289.571C277.345 289.549 277.229 289.558 277.212 289.588C277.059 289.839 276.916 289.929 276.766 289.592C276.67 289.378 276.576 289.165 276.481 288.951C277.026 288.721 276.483 287.924 277.042 287.681C277.094 287.659 277.077 287.415 277.073 287.276C277.049 286.66 276.954 286.037 277.013 285.432C277.045 285.083 277.093 284.881 276.756 284.702C276.196 284.404 276.023 283.818 276.132 283.225C276.253 282.554 276.392 281.833 276.926 281.365C277.483 280.876 277.802 280.25 277.964 279.515C278.102 278.886 278.379 278.452 278.946 278.109C279.361 277.858 279.523 277.151 279.925 276.828C280.38 276.465 280.956 276.289 281.171 275.629C281.218 275.487 281.286 275.277 281.389 275.24C282.304 274.918 282.557 274.068 282.825 273.217C282.87 273.077 282.972 272.94 283.082 272.85C283.443 272.55 283.478 272.142 283.458 271.697C283.442 271.308 283.439 270.916 283.458 270.53C283.474 270.181 283.407 270.087 283.044 270.146C282.749 270.194 282.815 269.829 282.824 269.615C282.835 269.38 282.953 269.277 283.184 269.363C283.548 269.498 283.716 269.21 283.595 268.953C283.363 268.462 283.622 268.313 283.934 268.189C284.692 267.889 284.822 267.257 284.733 266.501C284.71 266.312 284.607 266.125 284.618 265.941C284.646 265.489 284.646 265.011 284.8 264.605C284.877 264.4 285.261 264.323 285.509 264.198C285.572 264.164 285.646 264.15 285.716 264.141C286.005 264.102 286.094 263.871 286.001 263.641C285.842 263.248 285.734 262.975 286.314 263.111C286.331 263.115 286.467 262.789 286.456 262.622C286.42 262.015 286.578 261.478 286.856 260.96C286.979 260.733 287.051 260.464 287.101 260.203C287.124 260.086 287.019 259.828 286.991 259.832C286.722 259.862 286.625 259.734 286.793 259.523C287.457 258.693 287.251 257.878 286.752 257.103C286.524 256.753 286.424 256.453 286.536 256.032C286.611 255.755 286.69 255.396 286.589 255.167C286.215 254.324 286.743 253.658 287.095 253.177C287.384 252.783 287.465 252.408 287.477 252.03C287.691 252.078 287.79 252.025 287.993 251.96C288.353 251.845 288.575 251.977 288.925 252.024C289.316 252.076 289.707 251.896 290.078 251.767C290.585 251.588 291.113 251.476 291.611 251.275C291.832 251.186 292.011 250.802 292.195 250.814C293.406 250.89 294.336 250.353 295.098 249.4C295.445 248.967 295.855 248.737 296.384 248.643C296.827 248.563 297.254 248.347 297.679 248.161C298.338 247.874 298.983 247.547 299.645 247.264C299.929 247.141 300.287 247.158 300.522 246.977C300.794 246.769 301.025 246.856 301.292 246.856C301.819 246.855 302.397 247.416 302.87 246.71C302.882 246.692 302.954 246.69 302.966 246.706C303.317 247.177 303.599 246.741 303.733 246.538C304.025 246.086 304.309 246.121 304.751 246.236C305.544 246.444 306.386 246.548 307.145 246.129C307.653 245.85 308.12 245.526 308.712 245.466C308.881 245.448 309.126 245.268 309.177 245.102C309.466 244.184 309.737 243.255 309.956 242.312C310.084 241.743 309.937 241.471 309.463 241.271ZM247.441 206.081C247.559 206.136 247.675 206.191 247.796 206.24C247.891 206.282 248.027 206.38 248.081 206.343C248.672 205.95 248.945 206.461 249.361 206.763C250.424 207.532 251.315 208.612 252.721 208.8C253.212 208.864 253.656 209.407 254.107 209.753C254.593 210.126 255.378 210.357 256.049 210.314C256.156 210.307 256.345 210.387 256.361 210.46C256.453 210.891 256.735 210.966 257.067 211.148C257.685 211.485 258.187 212.066 258.757 212.515C259.099 212.786 259.472 213.014 259.847 213.229C259.912 213.268 260.067 213.169 260.159 213.101C260.352 212.956 260.561 212.985 260.494 213.237C260.405 213.566 260.605 213.706 260.68 213.937C260.817 214.369 261.359 213.998 261.455 214.518C261.51 214.82 261.806 215.076 262.008 215.338C262.236 215.637 262.473 215.925 262.719 216.206C262.838 216.339 262.976 216.465 263.125 216.555C263.644 216.863 264.252 217.034 264.366 217.844C264.394 218.04 264.727 218.186 264.924 218.347C265.307 218.663 265.804 218.838 265.796 219.544C265.795 219.757 266.167 219.971 266.363 220.19C266.743 220.614 267.236 221.019 267.44 221.584C267.542 221.865 267.531 222.91 267.931 222.861C268.045 222.846 268.129 222.737 268.243 222.718C268.5 222.676 268.592 223.073 268.575 223.354C268.9 223.123 269.376 223.175 269.652 223.475C269.549 223.604 269.447 223.736 269.345 223.865C269.927 224.104 270.622 224.534 270.549 225.203C270.333 225.106 270.063 225.356 270.116 225.603C270.518 225.526 270.942 225.57 271.323 225.735C271.338 225.62 271.354 225.508 271.37 225.393C271.531 225.4 271.674 225.561 271.673 225.735C271.672 225.91 271.527 226.07 271.366 226.074C271.592 226.207 271.772 226.428 271.863 226.688C271.945 226.922 271.957 227.175 272.004 227.419C272.123 228.042 272.485 228.607 272.982 228.946C272.908 229.154 272.833 229.361 272.76 229.569C272.966 229.617 273.191 229.574 273.372 229.456C273.385 229.598 273.4 229.743 273.412 229.887C273.45 230.283 273.48 230.71 273.301 231.058C273.466 231.076 273.628 231.089 273.786 231.126C273.763 231.433 273.979 231.576 274.041 231.836C274.145 232.264 273.991 232.296 274.378 232.644C275.116 233.309 275.942 233.999 275.933 235.229C276.458 235.98 276.107 236.754 275.995 237.524C275.915 238.076 275.716 238.641 276.138 239.156C276.2 239.233 276.147 239.423 276.138 239.561C276.134 239.65 276.094 239.737 276.07 239.825C275.964 239.8 275.856 239.765 275.748 239.796C275.566 239.851 275.428 240.002 275.266 240.109C275.108 240.216 274.883 240.275 274.741 240.14C274.681 240.085 274.645 240.003 274.586 239.949C274.404 239.787 274.143 239.941 273.913 239.986C273.618 240.043 273.326 239.909 273.056 239.769C272.693 239.584 272.337 239.388 271.985 239.18C271.108 239.415 270.082 239.337 269.287 239.688C269.078 239.781 268.822 239.923 268.604 239.988C268.477 240.025 268.367 240.048 268.239 240.008C268.164 239.986 267.893 239.71 267.876 239.714C267.666 239.765 267.414 239.825 267.161 239.888C267.022 239.923 266.884 239.994 266.745 239.991C265.367 239.973 264.075 240.523 262.723 240.689C262.586 240.706 262.363 240.646 262.32 240.715C261.894 241.455 261.599 241.831 261.733 240.528C261.736 240.502 261.531 240.399 261.496 240.428C260.99 240.873 260.371 240.188 259.873 240.626C259.829 240.593 259.784 240.602 259.74 240.582C259.63 240.436 259.507 240.299 259.408 240.141C259.317 239.999 259.045 239.621 259.008 239.476C258.976 239.361 259.058 238.899 259.067 238.921C258.966 238.691 258.929 238.43 258.961 238.178C258.767 238.359 258.44 238.19 258.346 237.934C258.252 237.677 258.315 237.387 258.381 237.121C258.192 237.232 257.969 237.263 257.76 237.207L257.806 236.758C258.028 236.6 258.253 236.442 258.476 236.283C258.254 236.118 258.046 235.889 258 235.601C257.955 235.311 258.138 234.973 258.409 234.964C258.508 234.367 258.154 233.72 257.622 233.528C257.449 233.464 257.251 233.439 257.125 233.292C256.824 232.938 257.184 232.168 256.778 231.972C256.639 231.903 256.477 231.957 256.332 232.013C256.189 232.068 256.028 232.124 255.887 232.061C255.746 231.997 255.68 231.753 255.812 231.67C256.055 231.674 256.298 231.616 256.519 231.508C256.506 231.332 256.49 231.153 256.476 230.978C256.211 231.034 255.96 230.82 255.789 230.594C255.248 229.879 255.063 228.811 255.484 228.009C254.742 228.168 254.026 227.658 253.723 226.95C253.603 226.672 253.858 226.118 253.274 226.138C253.291 225.958 253.243 225.695 253.336 225.609C253.852 225.12 253.688 224.404 253.716 223.852C253.74 223.378 253.258 222.844 252.942 222.385C252.562 221.831 252.133 221.334 252.074 220.586C252.054 220.342 251.88 220.074 251.713 219.888C251.22 219.341 251.002 218.66 250.761 217.969C250.513 217.255 250.249 216.56 249.753 215.947C249.385 215.493 249.287 214.771 249.109 214.152C249.042 213.918 249.042 213.681 248.753 213.685C248.283 213.69 248.356 213.57 248.543 213.172C248.947 212.31 248.698 211.423 247.966 210.848C247.717 210.652 247.814 210.418 247.75 210.202C247.402 209 247.846 207.718 247.387 206.536C247.338 206.406 247.418 206.23 247.441 206.081ZM220.74 240.662C220.986 240.28 221.348 239.875 221.527 239.453C221.678 239.099 221.622 238.775 221.927 238.49C222.298 238.145 222.449 237.743 222.195 237.256C221.886 236.659 222.57 236.329 222.522 235.795C222.519 235.762 222.87 235.603 222.988 235.662C223.363 235.847 223.517 235.671 223.627 235.329C223.697 235.11 223.741 234.876 223.848 234.683C224.127 234.166 224.064 233.691 223.658 233.333C223.414 233.12 223.408 232.89 223.408 232.62C223.408 232.369 223.461 232.18 223.733 232.108C224.775 231.829 225.195 230.744 224.741 229.679C224.594 229.334 224.563 229.037 224.738 228.706C224.808 228.574 224.902 228.415 224.887 228.28C224.772 227.253 225.412 226.672 225.964 226.024C226.07 225.901 226.208 225.666 226.165 225.564C225.994 225.158 226.276 224.817 226.247 224.44C226.242 224.379 226.382 224.244 226.444 224.252C226.516 224.261 226.587 224.38 226.634 224.467C226.666 224.53 226.65 224.619 226.662 224.694C226.697 224.945 226.736 225.197 226.773 225.446C227.198 225.267 226.983 224.964 226.91 224.679C226.894 224.623 226.966 224.482 226.98 224.486C227.625 224.626 227.494 224.127 227.498 223.751C227.501 223.362 227.502 222.973 227.482 222.584C227.478 222.527 227.351 222.48 227.281 222.425C227.155 222.325 226.925 222.227 226.921 222.118C226.904 221.701 227.185 222.101 227.281 221.995C227.371 221.901 227.492 221.764 227.483 221.657C227.433 221.004 227.654 220.553 228.056 220.032C228.405 219.58 228.64 218.751 228.511 218.202C228.322 217.389 228.515 216.676 228.587 215.927C228.645 215.313 228.65 214.73 228.491 214.128C228.411 213.824 228.471 213.474 228.492 213.146C228.497 213.076 228.599 212.979 228.673 212.953C229.498 212.671 229.38 211.795 229.641 211.159C229.654 211.128 229.535 211.031 229.476 210.967C229.399 210.883 229.24 210.761 229.257 210.722C229.424 210.305 229.525 209.71 229.829 209.534C230.613 209.077 230.32 208.274 230.483 207.641C230.554 207.368 230.364 207.059 230.812 207.022C230.868 207.017 230.959 206.756 230.945 206.621C230.839 205.622 231.422 204.878 231.748 204.041C231.827 203.84 232.063 203.696 231.861 203.448C231.473 202.966 232.146 202.757 232.103 202.36C232.101 202.339 232.348 202.26 232.355 202.273C232.529 202.666 232.899 202.577 233.181 202.709C233.37 202.795 233.576 203.038 233.367 203.35C233.068 203.796 233.32 204.178 233.494 204.573C233.667 204.965 233.849 205.385 234.293 205.427C234.833 205.475 235.094 205.638 234.894 206.285C234.832 206.485 235.001 206.554 235.231 206.567C235.583 206.584 235.733 206.934 235.503 207.083C234.912 207.463 235.073 207.964 235.193 208.507C235.295 208.959 235.503 209.378 235.656 209.793C235.825 210.253 235.951 210.729 235.878 211.135C235.731 211.96 236.278 212.396 236.556 212.988C236.569 213.018 236.611 213.036 236.642 213.057C237.334 213.5 237.397 213.517 237.227 214.228C237.005 215.172 237.37 215.934 237.718 216.718C237.75 216.792 237.92 216.877 237.971 216.847C238.436 216.573 238.541 216.825 238.54 217.27C238.54 217.346 238.559 217.425 238.584 217.496C238.749 217.952 238.348 218.453 238.747 218.919C239.031 219.251 239.181 219.715 239.387 220.124C239.805 220.954 240.319 221.756 240.093 222.789C240.415 223.297 240.163 224.136 240.894 224.416C240.949 224.437 240.998 224.588 240.988 224.67C240.886 225.457 241.238 225.883 241.915 226.041C242.125 226.089 242.089 226.19 242.064 226.362C242.037 226.54 242.032 226.754 242.1 226.912C242.34 227.473 242.927 227.807 242.787 228.634C242.704 229.112 243.056 229.664 243.121 230.212C243.144 230.395 243.224 230.583 243.315 230.743C243.555 231.176 243.075 231.753 243.694 232.072C243.84 232.407 243.82 232.797 243.817 233.167C243.816 233.537 243.845 233.937 244.062 234.225C244.28 234.512 244.747 234.597 244.951 234.299C245.151 234.402 245.255 234.684 245.173 234.909C245.024 234.973 244.876 235.038 244.726 235.104C244.846 235.387 245.057 235.625 245.314 235.763C245.018 236.281 244.848 236.884 244.825 237.494C244.822 237.592 244.822 237.694 244.86 237.783C244.976 238.074 245.36 238.069 245.638 237.972C245.915 237.875 246.235 237.738 246.482 237.911C246.502 238.163 246.523 238.415 246.544 238.667C246.433 238.684 246.322 238.701 246.208 238.715C246.315 239.164 246.419 239.612 246.525 240.061C246.509 240.069 246.49 240.065 246.475 240.072C246.057 240.252 245.639 240.432 245.223 240.61C245.086 240.67 244.942 240.729 244.797 240.704C244.667 240.682 244.553 240.595 244.427 240.555C244.06 240.436 243.72 240.726 243.507 241.021C243.415 241.149 243.372 241.336 243.254 241.44C243.206 241.481 242.844 241.592 242.85 241.579C242.562 242.458 242.071 242.078 241.6 241.815C241.059 241.545 240.401 241.687 239.905 241.259C239.29 241.636 238.676 241.066 238.018 241.298C237.464 241.493 236.821 241.384 236.217 241.422C235.578 241.461 235.443 241.622 235.514 242.311C235.533 242.486 235.569 242.641 235.358 242.588C235.192 242.545 234.925 242.619 234.94 242.236C234.963 241.671 234.778 241.519 234.434 241.812C234.109 242.09 233.855 242.347 233.432 242.023C233.377 241.98 233.156 242.109 233.068 242.215C232.883 242.434 232.733 242.456 232.534 242.241C232.339 242.032 232.116 241.939 231.875 242.187C231.828 242.234 231.731 242.284 231.688 242.259C231.358 242.085 231.06 241.678 230.666 242.135C230.342 241.931 230.015 241.996 229.678 242.096C229.588 242.125 229.459 242.072 229.369 242.016C228.18 241.291 226.874 241.533 225.623 241.596C224.951 241.63 224.351 241.558 223.736 241.335C223.496 241.249 223.259 241.154 223.014 241.092C222.774 241.033 222.497 240.92 222.295 241.002C222.142 241.065 222.128 241.523 221.976 241.578C221.802 241.645 221.55 241.454 221.325 241.413C221.306 241.409 221.218 241.676 221.207 241.823C221.195 241.991 221.196 242.161 220.991 242.069C220.66 241.921 220.765 241.621 220.66 241.378C220.695 241.313 220.728 241.246 220.762 241.181C220.564 241.144 220.629 240.832 220.74 240.662ZM193.139 240.072C193.009 239.431 193.431 239.111 193.784 238.739C194.203 238.298 194.49 237.794 194.249 237.119C194.146 236.832 194.572 236.469 194.119 236.208C194.005 236.143 194.047 235.991 194.271 235.97C194.689 235.933 194.884 235.593 194.876 235.171C194.857 234.29 195.107 233.531 195.528 232.775C195.808 232.272 195.997 231.697 196.249 231.163C196.42 230.8 196.353 230.266 196.292 229.825C196.201 229.164 196.178 229.192 196.68 228.839C197.055 228.576 197.415 228.272 197.731 227.932C197.851 227.804 197.878 227.514 197.86 227.309C197.783 226.47 198.183 225.855 198.602 225.223C198.976 224.662 199.268 224.034 199.649 223.479C200.143 222.762 200.491 221.917 201.281 221.446C201.45 221.347 201.912 221.124 201.708 220.644C201.692 220.602 201.756 220.469 201.768 220.472C202.359 220.575 202.387 220.005 202.643 219.677C202.863 219.395 203.223 219.24 203.516 219.023C203.774 218.831 203.75 218.848 203.466 218.459C203.374 218.334 203.368 218.048 203.435 217.89C203.533 217.657 203.688 217.698 203.81 217.932C203.838 217.986 204.062 217.999 204.071 217.973C204.265 217.468 205.112 217.691 205.073 216.928C205.069 216.871 205.167 216.749 205.186 216.757C205.856 217.022 205.953 216.264 206.323 216.003C206.705 215.733 207.013 215.327 207.406 215.088C208.473 214.443 209.313 213.427 210.471 212.935C211.044 212.691 211.517 212.312 211.887 211.756C212.12 211.407 212.313 210.932 212.875 211.008C212.961 211.02 213.142 210.693 213.184 210.499C213.254 210.174 213.235 209.829 213.28 209.498C213.29 209.414 213.401 209.293 213.466 209.29C213.534 209.29 213.647 209.403 213.664 209.487C213.705 209.674 213.683 209.876 213.72 210.063C213.737 210.152 213.835 210.221 213.895 210.301C213.941 210.19 213.989 210.079 214.032 209.966C214.063 209.882 214.107 209.723 214.107 209.723C214.798 209.921 215.193 209.001 215.872 209.182C216.61 208.647 217.35 208.11 218.088 207.575C218.165 207.036 218.651 207.266 218.918 207.072C219.047 206.979 219.061 206.501 219.363 206.842C219.558 207.065 219.572 207.307 219.347 207.556C218.975 207.963 219.007 208.533 218.891 209.039C218.872 209.12 218.966 209.312 218.998 209.31C219.195 209.297 219.462 209.118 219.487 209.498C219.52 209.96 219.496 210.43 219.459 210.892C219.454 210.955 219.215 211.058 219.106 211.034C218.966 211.003 218.846 210.862 218.718 210.768C218.69 210.955 218.687 211.155 218.624 211.328C218.506 211.653 218.355 211.962 218.21 212.273C218.094 212.52 217.996 212.735 218.145 213.031C218.287 213.31 217.972 213.219 217.919 213.288C217.7 213.562 217.374 213.99 217.446 214.237C217.68 215.022 217.205 215.574 217.012 216.19C216.822 216.793 216.644 217.349 216.767 217.989C216.787 218.092 216.731 218.276 216.656 218.33C216.407 218.502 215.993 218.557 215.895 218.787C215.659 219.332 215.583 219.958 215.407 220.539C215.263 221.012 215.297 221.522 215.012 221.976C214.866 222.211 214.956 222.616 214.502 222.438C214.486 222.43 214.352 222.646 214.345 222.762C214.325 223.151 214.34 223.54 214.334 223.929C214.327 224.344 214.412 224.759 213.927 225.023C213.761 225.113 213.745 225.561 213.69 225.852C213.651 226.053 213.62 226.292 213.389 226.21C212.853 226.018 212.852 226.421 212.838 226.766C212.811 227.389 212.853 228.015 212.815 228.634C212.791 229.015 213.092 228.873 213.189 228.998C213.29 229.13 213.634 229.443 213.117 229.563C213.011 229.588 212.857 229.754 212.856 229.859C212.832 230.993 212.113 231.749 211.593 232.608C211.427 232.882 211.277 233.097 211.379 233.45C211.424 233.603 211.369 233.817 211.308 233.98C211.052 234.649 210.777 235.306 210.511 235.971C210.484 236.04 210.459 236.121 210.461 236.194C210.477 236.607 210.571 237.035 210.502 237.429C210.442 237.78 210.192 238.088 210.059 238.43C210.006 238.563 210.006 238.746 210.039 238.891C210.205 239.589 210.106 240.264 209.976 240.934C209.041 240.953 208.105 240.92 207.217 240.754C206.065 240.535 204.867 240.62 203.755 240.125C203.206 239.881 202.665 239.796 202.161 240.321C202 240.489 201.707 240.558 201.466 240.584C200.719 240.664 200.156 241.218 199.478 241.44C198.818 241.654 198.044 241.364 197.442 241.968C197.372 242.038 197.084 241.859 196.898 241.797C196.906 241.736 196.914 241.674 196.924 241.613C196.26 241.559 195.59 241.439 194.929 241.471C194.396 241.497 193.863 241.61 193.334 241.718C193.286 241.467 193.205 241.202 193.139 240.971C193.044 240.653 192.665 240.376 193.139 240.072ZM204.487 255.849C204.176 256.264 203.864 256.679 203.551 257.092C203.453 257.22 203.346 257.357 203.196 257.396C203.357 257.623 203.053 257.883 202.842 258.055C202.574 258.274 202.402 258.62 202.377 258.982C202.726 259.252 202.752 259.844 202.526 260.239C202.301 260.636 201.893 260.868 201.485 261.016C201.447 261.208 201.646 262.487 201.54 262.503C201.136 262.557 200.849 262.812 200.759 263.201C200.603 263.862 200.131 264.435 200.301 265.192C200.506 266.091 200.479 266.244 200.156 267.003C199.991 267.388 199.82 267.772 199.658 268.157C199.532 268.456 199.543 268.911 199.617 269.344C199.646 269.514 199.621 269.755 199.526 269.882C198.878 270.741 198.792 270.925 198.783 271.823C198.779 272.367 198.791 272.911 198.776 273.455C198.773 273.613 198.86 273.869 198.552 273.84C198.357 273.824 198.07 273.909 197.98 273.798C197.673 273.429 197.406 273.012 197.182 272.579C196.905 272.044 196.689 271.498 196.136 271.17C195.851 271.002 195.684 270.59 195.485 270.272C195.302 269.977 195.134 269.716 194.742 269.737C194.52 269.748 194.402 269.527 194.589 269.361C195.123 268.89 194.784 268.279 194.86 267.737C194.868 267.674 194.817 267.545 194.782 267.541C194.061 267.456 194.379 266.764 194.178 266.379C193.932 265.903 194.163 265.276 194.146 264.75C193.788 264.903 193.408 264.324 193.656 264.007C193.794 263.833 194.068 263.701 194.009 263.481C193.98 263.371 193.875 263.313 193.796 263.234C193.614 263.056 193.571 262.772 193.544 262.508C193.438 261.489 193.398 260.461 193.429 259.436C193.433 259.306 193.438 259.171 193.394 259.05C193.346 258.919 193.244 258.819 193.153 258.716C192.506 257.967 192.391 256.741 192.886 255.866C192.885 255.836 192.882 255.806 192.881 255.776C192.929 255.76 192.973 255.776 193.022 255.748C193.14 255.68 193.322 255.833 193.441 255.848C193.63 255.872 193.869 255.836 194.03 255.729C194.369 255.502 194.382 255.301 194.871 255.486C195.126 255.583 195.38 255.723 195.65 255.703C195.728 255.698 195.805 255.678 195.881 255.66C195.997 255.63 196.114 255.603 196.232 255.574C196.402 255.531 196.575 255.488 196.729 255.399C197.084 255.191 197.231 255.091 197.626 255.134C198.085 255.182 198.541 255.234 198.991 255.349C199.078 255.371 199.168 255.395 199.255 255.373C199.416 255.331 199.503 255.147 199.623 255.024C199.781 254.865 200.021 254.807 200.226 254.879C200.416 254.948 200.569 255.113 200.762 255.173C200.884 255.21 201.012 255.201 201.137 255.19C201.888 255.121 202.635 254.985 203.365 254.785C203.897 254.639 204.494 254.516 204.96 254.793C204.96 254.819 204.957 254.843 204.955 254.867C204.935 255.241 204.706 255.558 204.487 255.849ZM258.098 281.89C257.655 281.865 257.381 282.071 257.081 282.368C256.82 282.625 256.505 282.831 256.185 282.996C255.562 283.321 255.025 283.702 254.637 284.369C254.404 284.767 253.953 285.023 253.576 285.31C253.492 285.375 253.315 285.288 253.181 285.288C253.05 285.288 252.827 285.266 252.799 285.331C252.565 285.889 252.179 285.843 251.753 285.681C251.272 286.22 250.603 286.07 250.023 286.193C249.196 286.369 248.459 286.877 247.579 286.884C247.278 286.886 246.966 287.24 246.687 287.474C246.555 287.585 246.504 287.803 246.387 287.947C245.999 288.421 245.862 288.413 245.519 287.942C245.496 287.912 245.484 287.872 245.459 287.845C245.288 287.674 245.132 287.409 244.935 287.366C244.703 287.316 244.385 287.872 244.371 288.243C244.368 288.355 244.387 288.477 244.421 288.585C244.469 288.743 244.523 288.898 244.292 288.902C244.197 288.903 244.071 288.864 244.007 288.796C243.743 288.513 243.481 288.429 243.17 288.457C242.526 288.514 241.889 288.824 241.23 288.527C241.065 288.453 240.961 288.519 241.021 288.74C241.032 288.775 241.04 288.818 241.03 288.851C240.93 289.164 240.825 289.476 240.723 289.789C240.198 289.605 240.521 289.134 240.45 288.802C240.352 288.336 240.231 288.259 239.832 288.562C239.599 288.736 239.138 288.733 239.286 289.262C239.091 289.293 238.891 289.37 238.705 289.34C238.615 289.326 238.551 289.114 238.476 288.99C238.42 289.158 238.353 289.324 238.31 289.499C238.238 289.785 238.145 289.901 237.88 289.671C237.73 289.542 237.531 289.447 237.34 289.405C237.061 289.344 237.14 289.606 237.1 289.768C237.093 289.794 236.946 289.823 236.915 289.792C236.35 289.206 235.521 289.434 234.878 289.027C234.676 288.899 234.208 288.954 233.883 288.979C233.492 289.013 233.145 289.193 232.814 288.796C232.754 288.724 232.494 288.85 232.326 288.882C231.903 288.963 231.903 288.963 231.023 288.518C230.99 288.501 230.959 288.475 230.927 288.471C230.077 288.391 229.226 288.305 228.376 288.253C228.249 288.245 228.061 288.39 228 288.518C227.944 288.637 228.178 288.916 227.845 288.899C227.735 288.894 227.571 288.775 227.533 288.668C227.208 287.727 226.367 287.472 225.664 287.103C225.209 286.864 224.62 286.809 224.1 286.843C223.393 286.889 222.955 286.565 222.566 285.994C222.364 285.698 222.119 285.319 221.83 285.238C221.418 285.123 220.945 285.229 220.503 285.285C220.435 285.294 220.567 285.673 220.269 285.645C220.044 285.624 219.706 285.743 219.887 285.248C219.904 285.201 219.786 285.098 219.732 285.022C219.669 285.098 219.579 285.163 219.547 285.252C219.451 285.515 219.672 285.977 219.301 286.035C218.895 286.1 218.741 285.579 218.751 285.313C218.767 284.863 218.625 284.98 218.412 285.079C218.214 285.172 218.054 285.152 218.022 284.887C217.919 284.036 217.44 283.72 216.695 283.78C215.846 283.847 215.14 283.428 214.574 282.845C214.076 282.332 213.487 282.161 212.884 281.965C212.766 281.926 212.541 281.948 212.49 282.032C212.162 282.566 212.029 282.258 211.838 281.912C211.656 281.584 211.386 281.315 211.202 280.989C210.996 280.621 210.261 280.793 210.403 280.152C210.501 279.716 210.08 279.231 210.537 278.858C210.372 278.32 210.576 277.815 210.621 277.293C210.695 276.459 210.822 275.691 211.41 275.086C211.441 275.055 211.355 274.89 211.324 274.788C210.965 274.962 210.877 274.746 210.875 274.417C210.874 274.028 210.87 273.639 210.875 273.247C210.88 272.897 210.998 272.729 211.341 272.917C211.551 273.034 211.668 272.939 211.721 272.699C211.753 272.549 211.84 272.409 211.854 272.26C211.89 271.885 212.02 271.448 211.893 271.144C211.699 270.681 212.227 270.613 212.166 270.243C212.106 269.867 212.193 269.463 212.161 269.077C212.097 268.312 212.368 267.714 212.873 267.217C213.228 266.868 213.415 266.491 213.486 265.934C213.59 265.109 213.774 264.246 214.316 263.592C214.568 263.29 214.285 262.645 214.888 262.602C215.031 262.169 215.192 261.739 215.311 261.298C215.422 260.879 215.571 260.508 215.887 260.216C216.043 260.074 216.212 259.862 216.24 259.658C216.414 258.422 216.981 257.428 217.767 256.547C218.43 255.803 217.641 255.175 218.055 254.477C218.253 254.144 218.686 254.199 218.97 254.042C218.85 253.912 218.689 253.804 218.545 253.693C218.637 253.485 218.711 253.257 218.737 253.023C218.887 252.999 219.037 253.009 219.196 252.924C219.839 252.581 220.384 252.407 221.094 252.66C221.77 252.903 222.433 253.231 223.19 252.984C223.368 252.928 223.616 253.04 223.81 253.125C225.22 253.732 226.7 253.941 228.19 254.141C228.766 254.219 229.116 253.807 229.556 253.576C229.508 253.513 229.453 253.392 229.41 253.397C228.996 253.438 229.083 253.256 229.272 253.041C229.426 252.866 229.612 252.53 229.718 253.083C230.093 253.14 230.458 253.225 230.754 253.516C230.776 253.538 230.951 253.455 230.964 253.393C231.028 253.133 231.024 252.849 231.122 252.61C231.173 252.482 231.394 252.34 231.516 252.361C231.811 252.416 231.638 252.588 231.571 252.763C231.518 252.904 231.572 253.096 231.579 253.264C231.734 253.203 231.894 253.154 232.044 253.076C232.202 252.992 231.901 252.492 232.3 252.669C232.526 252.769 232.619 253.087 232.367 253.348C232.341 253.374 232.3 253.403 232.297 253.434C232.286 253.538 232.29 253.644 232.288 253.75C232.383 253.728 232.533 253.737 232.562 253.677C232.736 253.315 232.909 253.22 233.204 253.558C233.418 253.805 233.626 253.626 233.867 253.529C234.033 253.461 234.29 253.739 234.518 253.766C234.976 253.821 235.439 253.835 235.898 253.814C236.651 253.781 237.383 253.809 238.115 254.074C238.609 254.252 239.138 254.216 239.674 254.181C241.393 254.07 243.306 254.574 244.972 254.007C245.212 253.925 245.463 253.814 245.71 253.875C245.774 253.892 245.845 253.919 245.908 253.893C246.067 253.825 246.004 253.499 246.165 253.437C246.251 253.465 246.334 253.492 246.42 253.521C246.431 253.597 246.419 253.676 246.389 253.744C246.927 253.985 247.622 253.553 247.704 252.929C247.713 252.862 247.717 252.789 247.754 252.736C247.826 252.63 247.991 252.652 248.073 252.748C248.157 252.842 248.181 252.982 248.195 253.112C248.206 253.206 248.215 253.305 248.278 253.37C248.34 253.434 248.47 253.421 248.484 253.331C248.438 253.558 248.528 253.813 248.706 253.947C248.883 253.684 249.057 253.419 249.232 253.156C249.275 253.24 249.394 253.229 249.463 253.169C249.534 253.112 249.575 253.021 249.638 252.956C249.796 252.795 250.047 252.814 250.253 252.888C250.458 252.961 250.657 253.079 250.873 253.084C250.937 253.085 250.996 253.045 251.059 253.019C250.997 253.442 250.944 253.866 251.383 254.189C251.43 254.224 251.478 254.335 251.463 254.391C251.211 255.255 251.76 256.024 251.709 256.87C251.676 257.414 251.798 257.818 252.393 258.04C253.002 258.266 252.958 259.052 253.156 259.611C253.183 259.684 253.092 259.812 253.045 259.906C252.624 260.764 252.699 261.556 253.294 262.185C253.408 262.305 253.566 262.294 253.54 262.587C253.469 263.41 254.173 264.026 254.127 264.873C254.12 265.005 254.324 265.205 254.471 265.28C254.881 265.488 255.013 265.749 254.766 266.198C254.72 266.282 254.747 266.517 254.778 266.526C255.632 266.773 255.372 267.653 255.541 268.235C255.67 268.675 255.858 268.988 256.134 269.291C256.16 269.319 256.186 269.342 256.214 269.368C257.306 270.387 257.335 270.391 257.217 271.781C257.127 272.837 257.248 273.816 257.759 274.74C257.956 275.095 258.055 275.517 258.177 275.916C258.398 276.648 258.569 277.383 259.137 277.949C259.438 278.249 259.638 278.707 259.792 279.132C259.903 279.441 259.91 279.816 259.886 280.157C259.856 280.613 258.544 281.916 258.098 281.89ZM274.871 252.258C274.785 252.271 274.649 252.386 274.646 252.456C274.635 253.027 274.418 253.666 274.79 254.144C275.148 254.607 274.925 254.888 274.628 255.096C274.048 255.502 273.985 256.057 273.914 256.747C273.801 257.877 273.586 259.009 272.87 259.956C272.645 260.256 272.53 260.707 272.396 261.109C272.1 262.001 271.646 262.845 271.164 263.644C270.827 264.203 270.768 264.819 271.086 265.23C271.571 265.856 271.241 266.486 271.334 267.101C271.345 267.165 271.3 267.286 271.257 267.303C270.771 267.481 270.768 268.018 270.541 268.387C270.199 268.946 269.889 268.921 269.5 268.346C269.333 268.098 269.205 267.807 269.007 267.592C268.786 267.352 268.521 267.024 268.252 266.995C267.711 266.94 267.288 266.816 267.02 266.257C266.888 265.984 266.846 266.32 266.762 266.337C266.654 266.359 266.431 266.296 266.431 266.278C266.439 265.978 266.372 265.55 266.525 265.405C267.051 264.913 266.72 264.312 266.801 263.773C266.833 263.552 266.691 263.549 266.525 263.601C266.197 263.704 266.151 263.44 266.178 263.208C266.265 262.422 266.032 261.785 265.58 261.169C265.38 260.895 265.38 260.447 265.291 260.079C265.247 259.898 265.223 259.563 265.161 259.557C264.588 259.487 264.809 259.176 264.927 258.845C265.05 258.5 265.177 258.139 265.204 257.776C265.244 257.246 265.22 256.707 265.177 256.174C265.137 255.691 264.994 255.237 265.039 254.722C265.084 254.205 264.913 253.666 264.823 253.137C264.813 253.076 264.734 252.982 264.685 252.979C264.539 252.974 264.471 252.876 264.385 252.8C264.385 252.752 264.386 252.703 264.389 252.654C264.455 252.474 264.49 252.265 264.599 252.124C264.663 252.038 264.857 252.009 264.973 252.044C265.194 252.108 265.059 252.24 265.004 252.385C264.836 252.837 264.865 252.789 265.344 252.946C265.787 253.092 266.173 253.19 266.58 252.86C266.683 252.776 266.916 252.761 267.026 252.831C267.399 253.07 267.741 252.907 268.075 252.783C268.589 252.592 269.077 252.455 269.643 252.594C270.002 252.681 270.419 252.559 270.736 252.266C270.838 252.173 270.934 252.075 271.034 251.98C270.907 251.926 270.782 251.868 270.651 251.821C270.562 251.79 270.469 251.777 270.378 251.754C270.472 251.601 270.558 251.441 270.663 251.3C270.813 251.105 270.888 251.193 270.915 251.4C270.92 251.437 270.943 251.499 270.958 251.499C271.163 251.511 271.431 251.43 271.551 251.541C271.686 251.666 271.676 251.967 271.753 252.18C271.764 252.214 271.969 252.219 271.978 252.192C272.085 251.903 272.161 251.601 272.264 251.312C272.327 251.136 272.401 250.954 272.509 250.812C272.552 250.755 272.714 250.761 272.8 250.799C272.919 250.853 272.978 251.329 273.088 251.464C273.259 251.675 273.507 251.816 273.766 251.837C274.13 251.865 274.489 251.678 274.855 251.697C274.985 251.705 275.101 251.791 275.227 251.839C275.223 252.036 275.155 252.213 274.871 252.258Z" fill="#1F1A17"/>
</svg>
