<svg width="32" height="32" viewBox="0 0 32 32" fill="none" xmlns="http://www.w3.org/2000/svg">
<path fill-rule="evenodd" clip-rule="evenodd" d="M16.9563 7.94923H15.8523V5.91057H14.5557C14.2057 5.91057 14.0301 5.73995 14.0301 5.39495V5.37927C14.0301 5.03928 14.2057 4.86929 14.5557 4.86929H15.8517V3.54699C15.8517 3.18003 16.038 3 16.41 3C16.7707 3 16.9563 3.18003 16.9563 3.54699V4.86929H18.295C18.6349 4.86929 18.8049 5.03865 18.8049 5.37927V5.39495C18.8049 5.73995 18.6349 5.90994 18.295 5.90994L16.967 5.92625L16.9563 7.94923ZM7.67827 24.0841L7.16829 21.1735C7.15763 21.1735 7.14194 21.1528 7.12062 21.1101C7.0673 21.0355 6.91863 20.9402 6.67462 20.8235C6.43563 20.7012 6.14896 20.4992 5.83031 20.2075C5.4661 19.9056 5.1101 19.5939 4.76268 19.2729C4.508 19.0372 4.27691 18.7774 4.07267 18.4969C3.43975 17.6269 3.08345 16.5743 3.01445 15.3373C2.90782 14.1474 3.39145 12.9574 4.45907 11.7731C5.53737 10.5938 6.99767 10.0368 8.82995 10.1108C9.51494 10.1535 10.3229 10.3178 11.2412 10.6101C11.5442 10.7325 11.8522 10.8548 12.1708 10.9715L13.1105 11.3378C13.2755 11.4231 13.4241 11.5078 13.5465 11.5874C13.4938 11.3737 13.4671 11.1545 13.4668 10.9344C13.4668 10.1271 13.7535 9.4365 14.3324 8.86317C14.9058 8.29486 15.6014 8.00254 16.4087 7.99188C17.216 7.99188 17.9067 8.28419 18.48 8.85752C19.0483 9.43148 19.335 10.1215 19.335 10.9181C19.335 11.0831 19.3136 11.3008 19.2716 11.5718C19.4146 11.4814 19.5583 11.4018 19.6913 11.3378C20.1693 11.1308 20.7953 10.8861 21.5762 10.6101C22.4689 10.3078 23.2705 10.1378 23.9875 10.0951C25.8198 10.0098 27.2751 10.5675 28.3427 11.7574C29.389 12.9417 29.8776 14.1317 29.803 15.321C29.7233 16.5586 29.362 17.6106 28.7303 18.4812C28.5233 18.7629 28.2894 19.0226 28.0291 19.2672C27.6905 19.5847 27.3432 19.8928 26.9878 20.1912C26.6484 20.4835 26.3561 20.6905 26.1171 20.8072C25.8787 20.9238 25.7407 21.0248 25.6975 21.0938C25.6896 21.1115 25.679 21.1278 25.6661 21.1421C25.6554 21.1528 25.6498 21.1635 25.6498 21.1735L25.1505 24.1004L26.1811 27.94C25.6605 28.4073 24.4975 28.7899 22.6972 29.0923C20.8913 29.3952 18.8043 29.5439 16.4407 29.5439C14.0351 29.5439 11.9155 29.3846 10.0939 29.0709C8.26728 28.7523 7.11999 28.354 6.65267 27.8816L7.67827 24.0841Z" fill="#1F1A17"/>
<path fill-rule="evenodd" clip-rule="evenodd" d="M16.4099 13.3771C16.3918 13.2862 16.3649 13.1974 16.3296 13.1117C16.2887 12.9579 16.2374 12.807 16.176 12.6601C16.144 12.5911 16.1013 12.5008 16.0536 12.3897C15.9966 12.2745 15.9434 12.1573 15.8943 12.0385C15.863 11.9644 15.8253 11.8691 15.7776 11.7524C15.735 11.6301 15.6923 11.5184 15.6603 11.4175C15.6327 11.3208 15.6185 11.2207 15.6183 11.1201C15.6183 10.5731 15.8786 10.2971 16.4093 10.2971C16.9613 10.2971 17.2329 10.5675 17.2329 11.1044C17.2329 11.2424 17.2116 11.3378 17.174 11.4018C17.0253 11.7944 16.9513 12.0071 16.9406 12.0391C16.7813 12.3527 16.6859 12.5541 16.6433 12.6444C16.5686 12.8138 16.521 12.9631 16.5053 13.096C16.4733 13.1594 16.452 13.2127 16.4413 13.2604C16.4306 13.3081 16.42 13.3457 16.4099 13.3771V13.3771ZM14.6674 18.7466C13.3714 18.7679 12.1871 18.8319 11.1088 18.9486C10.0362 19.0602 9.20816 19.2246 8.61287 19.4316C8.2797 19.0204 7.91947 18.6318 7.53458 18.2686C7.16004 17.9175 6.79869 17.5526 6.45127 17.1746C5.93063 16.6433 5.67596 16.0643 5.67596 15.4327C5.67596 14.6517 5.8033 14.084 6.06362 13.7227C6.33962 13.3024 6.77558 12.9951 7.35455 12.7931C7.91922 12.5939 8.51344 12.4915 9.11219 12.4901C9.86116 12.4901 10.5725 12.6551 11.2575 12.9894C11.9324 13.3407 12.3784 13.6217 12.5961 13.8287C13.3024 14.5457 13.855 15.3216 14.2477 16.1603C14.3807 16.4739 14.4817 16.9093 14.5507 17.4613C14.6197 18.0196 14.6573 18.4442 14.6674 18.7472V18.7466ZM16.4093 16.038C16.484 15.7457 16.5423 15.5443 16.595 15.4327C16.7016 15.0293 16.8183 14.6837 16.9563 14.402C17.0146 14.227 17.105 14.0257 17.2273 13.7917C17.344 13.5577 17.4719 13.2867 17.6099 12.9894C17.6896 12.8138 17.7793 12.5967 17.8702 12.3414C17.9656 12.0868 18.0609 11.8371 18.1513 11.5874C18.2366 11.3804 18.2786 11.1571 18.2786 10.9181C18.2786 10.4082 18.0929 9.97848 17.7316 9.62218C17.3709 9.2615 16.93 9.08084 16.4093 9.08084C15.1773 9.08084 14.5557 9.70185 14.5557 10.9344C14.5557 11.1728 14.5984 11.3961 14.683 11.6031C14.912 12.2781 15.087 12.7448 15.2093 13.0057C15.3473 13.3031 15.4697 13.574 15.5857 13.8074C15.698 14.0414 15.799 14.2427 15.878 14.4184C16.016 14.7634 16.1277 15.1033 16.223 15.4483C16.245 15.5067 16.3033 15.7087 16.4093 16.038V16.038ZM15.8517 19.9415C15.8517 19.5275 15.841 18.9536 15.8203 18.2259C15.799 17.4933 15.7193 16.8823 15.5863 16.3943C15.1617 15.008 14.5187 13.887 13.6531 13.0377C13.2071 12.6018 12.5271 12.1928 11.6031 11.8208C10.5461 11.4068 9.5425 11.1998 8.59719 11.1998C6.96125 11.1998 5.74496 11.7838 4.95898 12.958C4.51298 13.5791 4.28967 14.36 4.28967 15.289C4.28967 16.309 4.53933 17.1426 5.03362 17.7962C5.29395 18.1676 5.79263 18.6299 6.53094 19.1825C7.26423 19.7295 7.89088 20.2389 8.39521 20.7068C9.29849 20.5098 10.3178 20.3399 11.4544 20.1912C12.5911 20.0475 14.057 19.9629 15.8517 19.9415V19.9415ZM24.4981 27.3026L24.0358 25.4647C22.0128 25.003 19.4685 24.7691 16.4093 24.7691C13.3821 24.7691 10.8491 25.003 8.81486 25.4653L8.32119 27.3183C10.2908 26.7186 12.9894 26.4157 16.4256 26.4157C18.0716 26.4157 19.6066 26.501 21.0142 26.6653C22.4268 26.8297 23.5898 27.0423 24.4981 27.3026ZM24.0947 22.6501C22.1878 22.1245 19.6436 21.8591 16.4733 21.8591C13.2761 21.8591 10.7055 22.1295 8.75652 22.6664L8.98987 24.2384C10.9501 23.7284 13.4404 23.4731 16.4733 23.4731C19.4899 23.4731 21.9488 23.7228 23.8451 24.2221L24.0947 22.6501ZM16.967 19.9578C18.7516 19.9892 20.2175 20.0795 21.3592 20.2232C22.4958 20.3668 23.5264 20.5418 24.4391 20.7382C25.008 20.1755 25.6397 19.6442 26.3354 19.1342C27.031 18.6243 27.5197 18.1889 27.8013 17.8276C28.2956 17.1533 28.5453 16.314 28.5453 15.3053C28.5453 14.3864 28.322 13.611 27.876 12.9894C27.0793 11.8164 25.8574 11.2318 24.2221 11.2318C23.2661 11.2318 22.2725 11.4388 21.2318 11.8528C20.2865 12.2248 19.6072 12.6287 19.1762 13.0634C18.2949 13.919 17.652 15.0394 17.2486 16.4256C17.0943 16.9036 17.0096 17.5089 16.9933 18.2473C16.977 18.9856 16.967 19.5539 16.967 19.9578V19.9578ZM18.1036 18.7472C18.1036 18.4442 18.1412 18.0196 18.204 17.4613C18.2736 16.9093 18.3796 16.4733 18.5232 16.1603C18.9109 15.321 19.4579 14.5457 20.1749 13.8287C20.3819 13.6217 20.8285 13.3401 21.5135 12.9894C22.1852 12.6565 22.9254 12.4855 23.6751 12.4901C24.2584 12.4901 24.8324 12.5911 25.4114 12.7931C25.9853 12.9951 26.4207 13.3031 26.7073 13.7227C26.9677 14.0733 27.1006 14.641 27.1006 15.4327C27.1006 16.0537 26.8453 16.6326 26.3354 17.1746C25.9881 17.5303 25.6304 17.8756 25.2627 18.2102C24.8801 18.5552 24.5087 18.9642 24.1587 19.4316C23.5578 19.2246 22.7191 19.0602 21.6458 18.9486C20.5732 18.8319 19.3939 18.7679 18.1036 18.7466V18.7472Z" fill="#EEEEEE"/>
</svg>
