<svg width="32" height="32" viewBox="0 0 32 32" fill="none" xmlns="http://www.w3.org/2000/svg">
<path fill-rule="evenodd" clip-rule="evenodd" d="M16.9563 7.94923H15.8523V5.91057H14.5557C14.2057 5.91057 14.0301 5.73995 14.0301 5.39495V5.37927C14.0301 5.03928 14.2057 4.86929 14.5557 4.86929H15.8517V3.54699C15.8517 3.18003 16.038 3 16.41 3C16.7707 3 16.9563 3.18003 16.9563 3.54699V4.86929H18.295C18.6349 4.86929 18.8049 5.03865 18.8049 5.37927V5.39495C18.8049 5.73995 18.6349 5.90994 18.295 5.90994L16.967 5.92625L16.9563 7.94923ZM7.67827 24.0841L7.16829 21.1735C7.15763 21.1735 7.14194 21.1528 7.12062 21.1101C7.0673 21.0355 6.91863 20.9402 6.67462 20.8235C6.43563 20.7012 6.14896 20.4992 5.83031 20.2075C5.4661 19.9056 5.1101 19.5939 4.76268 19.2729C4.508 19.0372 4.27691 18.7774 4.07267 18.4969C3.43975 17.6269 3.08345 16.5743 3.01445 15.3373C2.90782 14.1474 3.39145 12.9574 4.45907 11.7731C5.53737 10.5938 6.99767 10.0368 8.82995 10.1108C9.51494 10.1535 10.3229 10.3178 11.2412 10.6101C11.5442 10.7325 11.8522 10.8548 12.1708 10.9715L13.1105 11.3378C13.2755 11.4231 13.4241 11.5078 13.5465 11.5874C13.4938 11.3737 13.4671 11.1545 13.4668 10.9344C13.4668 10.1271 13.7535 9.4365 14.3324 8.86317C14.9058 8.29486 15.6014 8.00254 16.4087 7.99188C17.216 7.99188 17.9067 8.28419 18.48 8.85752C19.0483 9.43148 19.335 10.1215 19.335 10.9181C19.335 11.0831 19.3136 11.3008 19.2716 11.5718C19.4146 11.4814 19.5583 11.4018 19.6913 11.3378C20.1693 11.1308 20.7953 10.8861 21.5762 10.6101C22.4689 10.3078 23.2705 10.1378 23.9875 10.0951C25.8198 10.0098 27.2751 10.5675 28.3427 11.7574C29.389 12.9417 29.8776 14.1317 29.803 15.321C29.7233 16.5586 29.362 17.6106 28.7303 18.4812C28.5233 18.7629 28.2894 19.0226 28.0291 19.2672C27.6905 19.5847 27.3432 19.8928 26.9878 20.1912C26.6484 20.4835 26.3561 20.6905 26.1171 20.8072C25.8787 20.9238 25.7407 21.0248 25.6975 21.0938C25.6896 21.1115 25.679 21.1278 25.6661 21.1421C25.6554 21.1528 25.6498 21.1635 25.6498 21.1735L25.1505 24.1004L26.1811 27.94C25.6605 28.4073 24.4975 28.7899 22.6972 29.0923C20.8913 29.3952 18.8043 29.5439 16.4407 29.5439C14.0351 29.5439 11.9155 29.3846 10.0939 29.0709C8.26728 28.7523 7.11999 28.354 6.65267 27.8816L7.67827 24.0841Z" fill="#1F1A17"/>
<path fill-rule="evenodd" clip-rule="evenodd" d="M16.9407 18.9329C18.7253 18.9536 20.3556 19.0602 21.8372 19.2515C23.3239 19.4422 24.4875 19.6869 25.3268 19.9735C25.7605 19.6328 26.1906 19.2876 26.6171 18.9379C27.0477 18.5957 27.4396 18.2074 27.7857 17.7799C28.2794 17.1483 28.529 16.314 28.529 15.2733C28.529 14.3437 28.3057 13.5634 27.8597 12.9417C27.0631 11.7788 25.8468 11.1998 24.2215 11.1998C23.2448 11.1998 22.2462 11.4018 21.2156 11.8051C20.3129 12.1714 19.6279 12.5754 19.1656 13.022C18.295 13.8927 17.647 15.013 17.2324 16.378C17.0893 16.8666 17.004 17.3126 16.9777 17.7109C16.9513 18.1092 16.9401 18.5182 16.9401 18.9322L16.9407 18.9329ZM8.62924 23.1337C10.5989 22.6344 13.2121 22.3848 16.4734 22.3848C19.665 22.3848 22.2462 22.6231 24.2058 23.1018L24.5935 20.8122C22.5065 20.2658 19.7823 19.9892 16.4094 19.9892C13.0158 19.9892 10.2966 20.2715 8.24096 20.8285L8.62924 23.1337ZM24.4981 25.9L24.0358 24.1161C21.9809 23.6594 19.4366 23.4311 16.4094 23.4311C13.3928 23.4311 10.8542 23.6594 8.79861 24.1161L8.30494 25.9164C10.2859 25.3374 12.9895 25.0457 16.4257 25.0457C19.8406 25.0457 22.5278 25.3324 24.4981 25.9007V25.9ZM24.9071 27.3666C22.9048 26.5593 20.0896 26.1497 16.4734 26.1497C12.7185 26.1497 9.8769 26.5643 7.94363 27.398C9.77089 28.1206 12.5962 28.4869 16.4257 28.4869C18.2523 28.4869 19.9146 28.3866 21.4176 28.184C22.9262 27.9826 24.0835 27.706 24.9071 27.3666V27.3666ZM15.8624 18.9329C15.8574 18.5289 15.8411 18.1256 15.8197 17.7272C15.7984 17.3289 15.7194 16.8823 15.5864 16.3936C15.1617 15.0074 14.5188 13.887 13.6531 13.0377C13.2071 12.6017 12.5272 12.1928 11.6032 11.8208C10.5462 11.4068 9.54256 11.1998 8.59725 11.1998C6.96131 11.1998 5.74502 11.7838 4.95904 12.958C4.51305 13.579 4.28973 14.36 4.28973 15.289C4.28973 16.309 4.53939 17.1426 5.03369 17.7962C5.33603 18.1789 5.71867 18.5659 6.186 18.9485C6.65332 19.3312 7.08928 19.6812 7.49262 19.9898C9.30859 19.3362 12.0968 18.9862 15.8624 18.9329V18.9329ZM16.4094 16.038C16.484 15.7463 16.5424 15.5443 16.5951 15.4327C16.7017 15.0293 16.8184 14.6837 16.9564 14.402C17.0147 14.227 17.105 14.0257 17.2273 13.7917C17.344 13.5577 17.472 13.2867 17.61 12.9894C17.6897 12.8138 17.7794 12.5967 17.8703 12.3414C17.9657 12.0868 18.061 11.8371 18.1513 11.5874C18.2366 11.3804 18.2787 11.1571 18.2787 10.9181C18.2787 10.4082 18.093 9.97847 17.7317 9.62218C17.371 9.26149 16.93 9.08084 16.4094 9.08084C15.1774 9.08084 14.5558 9.70184 14.5558 10.9344C14.5558 11.1728 14.5984 11.3961 14.6831 11.6037C14.9121 12.2781 15.0871 12.7454 15.2094 13.0057C15.3474 13.303 15.4697 13.574 15.5858 13.8074C15.698 14.0414 15.799 14.2427 15.8781 14.4183C16.0161 14.7633 16.1277 15.1033 16.2231 15.4483C16.245 15.5073 16.3034 15.7087 16.4094 16.038V16.038Z" fill="white"/>
</svg>
