<svg width="256" height="256" viewBox="0 0 256 256" fill="none" xmlns="http://www.w3.org/2000/svg">
<circle cx="176.217" cy="210.917" r="32.0833" fill="#1F1A17"/>
<circle cx="176.217" cy="210.917" r="23.2833" fill="white"/>
<circle cx="127.817" cy="85.5166" r="32.0833" fill="#1F1A17"/>
<circle cx="127.817" cy="88.8167" r="22.55" fill="white"/>
<path d="M80.8833 163.067C52.229 163.067 29 139.838 29 111.183C29 82.529 54.1167 62.05 80.8833 66.8167C101.835 66.8167 119.886 87.9888 128.077 105.867C136.494 88.5814 154.231 67.9167 174.75 67.9167C204.633 62.9667 226.633 83.629 226.633 112.283C226.633 140.938 203.404 164.167 174.75 164.167L80.8833 163.067Z" fill="#1F1A17"/>
<path d="M88.9963 165.32H88.9905C65.4495 165.32 46.3667 146.257 46.3667 122.743C46.3667 99.2609 66.9637 82.4959 88.9029 86.3986L88.9464 86.4063H88.9905C97.526 86.4063 105.515 90.7164 112.242 96.9187C118.965 103.118 124.381 111.167 127.762 118.537L128.202 119.498L128.665 118.548C132.141 111.419 137.54 103.596 144.177 97.5623C150.818 91.5251 158.653 87.3196 167.01 87.3196H167.051L167.091 87.3129C179.374 85.2806 190.001 88.5081 197.556 95.1506C205.114 101.796 209.633 111.89 209.633 123.656C209.633 147.17 190.552 166.232 167.012 166.233C167.011 166.233 167.01 166.233 167.01 166.233L88.9963 165.32Z" fill="white" stroke="#1F1A17"/>
<circle cx="79.4167" cy="210.917" r="32.0833" fill="#1F1A17"/>
<circle cx="79.4167" cy="210.917" r="23.2833" fill="white"/>
<path fill-rule="evenodd" clip-rule="evenodd" d="M43.4773 162.212C40.5376 157.933 38.1376 150.941 45.0112 146.567C55.0946 140.15 90.2946 134.833 127.328 134.833H128.428C165.461 134.833 200.661 140.15 210.745 146.567C217.618 150.941 215.218 157.933 212.278 162.212C211.579 163.23 211.893 164.695 212.938 165.353C217.283 168.089 219.676 172.166 220.68 176.929L222.233 177.367C224.192 177.791 226.296 179.802 225.9 181.767L222.622 201.132C222.333 202.566 220.907 203.469 219.488 203.116L217.096 202.523C214.186 210.186 210.262 217.071 207.057 221.163C206.465 221.92 205.394 222.017 204.599 221.478C194.279 214.482 172.729 208.295 158.861 233.65C156.783 236.4 147.788 241.9 128.428 241.9H127.328C107.968 241.9 98.9724 236.4 96.8946 233.65C83.0266 208.295 61.4768 214.482 51.157 221.478C50.3619 222.017 49.2848 221.912 48.6927 221.156C45.4576 217.022 41.492 210.048 38.5757 202.3C38.5147 202.138 38.4542 201.976 38.3942 201.813L36.0975 202.383C34.6782 202.735 33.2518 201.832 32.963 200.399L30.1 181.033C29.7043 179.069 31.0753 176.875 33.0336 176.45L35.285 176.025C36.394 171.649 38.7523 167.911 42.8233 165.35C43.8689 164.692 44.1768 163.23 43.4773 162.212Z" fill="#1F1A17"/>
<path fill-rule="evenodd" clip-rule="evenodd" d="M132.675 57.783C132.664 60.3284 130.598 62.3862 128.052 62.3862V62.3862C125.499 62.3862 123.429 60.3163 123.429 57.763V41.6314H112.593C109.668 41.6314 108.2 39.8944 108.2 36.382V36.2224C108.2 32.7611 109.668 31.0305 112.593 31.0305H123.424V17.5687C123.424 13.8328 124.981 12 128.089 12C131.104 12 132.655 13.8328 132.655 17.5687V31.0305H143.842C146.684 31.0305 148.104 32.7548 148.104 36.2224V36.382C148.104 39.8944 146.684 41.625 143.842 41.625L132.744 41.7911L132.675 57.783Z" fill="#1F1A17"/>
<path d="M127.817 142.9C124.049 142.996 119.887 143.145 115.511 143.353C114.103 143.419 113.017 144.615 113.079 146.023L113.17 148.079C113.26 150.125 115.008 151.698 117.053 151.602C120.723 151.429 124.332 151.333 127.817 151.333C131.302 151.333 135.095 151.429 138.764 151.602C140.809 151.698 142.558 150.125 142.648 148.079L142.738 146.023C142.8 144.615 141.715 143.419 140.306 143.353C135.93 143.145 131.585 142.996 127.817 142.9Z" fill="white"/>
<path d="M81.7762 151.201L81.5095 148.629C81.3655 147.241 82.3579 145.99 83.7448 145.829C89.0867 145.207 94.7324 144.691 100.358 144.271C101.556 144.182 102.6 145.074 102.704 146.271L102.966 149.281C103.123 151.094 101.784 152.69 99.9734 152.867C95.1812 153.336 90.4517 153.884 85.9225 154.47C83.8675 154.736 81.9899 153.262 81.7762 151.201Z" fill="white"/>
<path d="M53.1111 157.388C50.0803 153.428 56.8998 150.426 68.0348 148.205C70.2012 147.773 72.2764 149.232 72.6723 151.405L73.0775 153.629C73.3365 155.05 72.3707 156.405 70.9438 156.632C66.102 157.404 61.8304 158.158 58.3998 158.811C56.4776 159.178 54.3004 158.942 53.1111 157.388Z" fill="white"/>
<path d="M174.308 148.629L174.041 151.201C173.827 153.262 171.95 154.736 169.895 154.47C165.366 153.884 160.636 153.336 155.844 152.867C154.033 152.69 152.694 151.094 152.852 149.281L153.113 146.271C153.217 145.074 154.261 144.182 155.459 144.271C161.085 144.691 166.731 145.207 172.073 145.829C173.459 145.99 174.452 147.241 174.308 148.629Z" fill="white"/>
<path d="M105.078 226.667C91.3546 199.768 67.4911 202.725 55.7927 208.16C54.9331 208.559 53.9036 208.3 53.4226 207.483C53.0739 206.891 52.695 206.263 52.2967 205.602C51.1958 203.776 49.9457 201.702 48.7697 199.463L62.6184 196.359C64.5546 195.925 66.38 195.001 67.6933 193.514C76.9112 183.073 70.2228 175.751 63.7704 172.365C62.0077 171.439 59.9606 171.326 58.0049 171.699L48.6381 173.483C50.7589 171.013 53.7869 168.672 57.967 166.55C64.4448 164.167 87.4837 159.4 127.817 159.4C168.15 159.4 191.373 164.167 197.85 166.55C202.501 168.912 205.71 171.567 207.821 174.382L197.581 172.432C195.626 172.06 193.579 172.173 191.816 173.098C185.363 176.484 178.675 183.807 187.893 194.247C189.206 195.734 191.032 196.659 192.968 197.093L206.629 200.155C205.513 202.264 204.347 204.213 203.32 205.928C202.996 206.471 202.685 206.99 202.395 207.483C201.914 208.3 200.884 208.559 200.025 208.16C188.326 202.725 164.463 199.768 150.739 226.667C150.376 227.377 149.805 227.985 149.072 228.3C145.472 229.845 137.508 232.183 127.817 232.183C118.126 232.183 110.346 229.845 106.745 228.3C106.012 227.985 105.441 227.377 105.078 226.667Z" fill="white"/>
<path d="M187.783 148.205C198.918 150.426 205.737 153.428 202.706 157.388C201.517 158.942 199.34 159.178 197.418 158.811C193.987 158.158 189.715 157.404 184.874 156.632C183.447 156.405 182.481 155.05 182.74 153.629L183.145 151.405C183.541 149.232 185.616 147.773 187.783 148.205Z" fill="white"/>
<path d="M215.486 189.042C215.092 191.289 212.93 192.775 210.691 192.339L195.104 189.305C194.411 189.169 193.755 188.848 193.303 188.305C190.687 185.163 192.604 182.843 194.535 181.698C195.147 181.335 195.881 181.285 196.579 181.421L212.216 184.329C214.414 184.737 215.873 186.84 215.486 189.042V189.042Z" fill="white"/>
<path d="M40.2522 188.297C40.6149 190.577 42.8002 192.098 45.0639 191.646L60.4818 188.571C61.1748 188.435 61.831 188.114 62.283 187.572C64.8989 184.43 62.9825 182.109 61.0512 180.964C60.4395 180.601 59.7052 180.552 59.0071 180.688L43.5019 183.664C41.3457 184.078 39.9073 186.129 40.2522 188.297V188.297Z" fill="white"/>
</svg>
