<svg width="32" height="32" viewBox="0 0 32 32" fill="none" xmlns="http://www.w3.org/2000/svg">
<path d="M21.8575 7.3209C20.4211 6.55866 18.8642 6.12605 17.1804 6.01595C16.6759 5.03417 15.9959 4.23954 15.1404 3.64179C14.1042 4.38784 13.408 5.36898 13.0512 6.58132C11.6096 4.95257 9.81636 3.75706 7.68894 3C7.57698 4.64108 7.81245 6.28732 8.37995 7.83122C8.19343 8.01774 8.04577 8.1764 7.9305 8.3137C7.86325 8.39545 7.80375 8.46468 7.75364 8.523C7.72991 8.5506 7.70829 8.57576 7.68894 8.59865C7.62288 8.66471 7.54128 8.76315 7.44802 8.89461C7.31656 9.05393 7.22848 9.17438 7.17926 9.25663C7.13522 9.3337 7.04197 9.48135 6.89949 9.69507C6.74788 9.92323 6.63187 10.1726 6.55503 10.4346H4.16794C3.58466 10.4346 3.03731 10.6791 2.62825 11.1235C2.45776 11.3081 2.33262 11.5235 2.22968 11.7496C2.20364 11.784 2.18693 11.8232 2.17821 11.8671C2.02879 12.2486 1.96435 12.6652 2.01955 13.0912L2.03252 13.1868C2.08959 13.6235 2.2414 14.0216 2.45216 14.3753C2.46824 14.427 2.49491 14.4727 2.53517 14.5083C2.96888 15.1578 3.62936 15.6166 4.38182 15.7411C4.35502 15.7764 4.32794 15.8118 4.3006 15.8474C3.18217 17.3279 2.62846 18.5176 2.62846 19.4171C2.62391 20.0145 2.70705 20.6093 2.8752 21.1825C3.04487 21.731 3.39588 22.2737 3.94441 22.8223C4.21253 23.0794 4.64578 23.3209 5.24353 23.5457C5.59972 23.5677 6.0006 23.5126 6.4494 23.3812C6.78422 23.9951 7.2505 24.2807 7.84825 24.2529C8.23229 24.2308 8.52825 24.1162 8.73095 23.9129C8.87926 23.7652 9.06577 23.4854 9.27949 23.0794C9.68554 22.3068 9.92646 21.8735 10.0029 21.7744C11.0177 20.2337 12.6626 19.0551 14.9325 18.2436C15.4005 18.0426 15.8379 17.7766 16.2317 17.4535C16.2757 18.0681 16.1604 18.7481 15.8865 19.4935C15.6119 20.2448 15.2395 20.8645 14.757 21.358C14.4731 21.6512 14.2011 21.933 13.9405 22.203C13.4308 22.7313 12.9644 23.2145 12.5364 23.6499C11.8952 24.3079 11.4892 24.8066 11.3188 25.1524C10.9406 25.8266 10.6777 26.3971 10.5132 26.8686C10.3539 27.34 10.2496 27.7021 10.2108 27.9598C10.146 28.283 10.113 28.7052 10.1071 29.2324C10.102 29.7524 10.1454 30.016 10.2444 30.016H30V26.5176C30 25.0812 29.945 23.5185 29.8303 21.8353C29.7278 20.2011 29.4559 18.582 29.0189 17.0041C28.6551 15.7068 28.1513 14.453 27.5164 13.2647C26.8914 12.0861 26.2276 11.0771 25.5204 10.2436C24.5114 9.05393 23.2887 8.07797 21.8575 7.3209Z" fill="#1F1A17"/>
<path fill-rule="evenodd" clip-rule="evenodd" d="M7.72207 22.3068C7.76092 22.2077 7.83216 22.0652 7.9306 21.8729C8.11193 21.4241 8.19936 21.1553 8.19936 21.0672C8.18252 20.7713 8.02386 20.6178 7.73308 20.6178C7.51936 20.6178 7.27262 20.9248 6.98184 21.5335C6.93671 21.6226 6.871 21.6996 6.79015 21.7582C6.49937 22.06 6.5434 22.3119 6.91578 22.5147C7.26161 22.718 7.52454 22.6519 7.72207 22.3068ZM17.1967 16.3461C17.9479 15.3591 18.3158 14.2627 18.3041 13.0562C18.2607 12.7 18.058 12.5252 17.6954 12.5252C17.2025 12.5252 17.0108 12.7058 17.1145 13.0672C17.1475 13.6598 17.0931 14.1474 16.9396 14.5315C16.6922 15.1402 16.4183 15.5955 16.1223 15.8967C15.9578 16.2205 16.0563 16.4562 16.4131 16.6038C16.7531 16.7632 17.016 16.6809 17.1967 16.3461ZM13.0021 8.50604C12.9536 8.08996 12.9647 7.66908 13.0351 7.25614C12.394 7.38178 11.7904 7.68357 11.2205 8.15503C10.8805 8.33637 10.7982 8.58894 10.9789 8.9121C11.1603 9.24109 11.4128 9.29549 11.736 9.07077C11.9607 8.95031 12.1693 8.84086 12.3551 8.74178C12.5416 8.63816 12.7547 8.56044 13.0021 8.50604ZM28.0592 28.8762C28.0482 28.8762 28.0592 28.5854 28.0864 28.0045C28.1712 25.9917 28.1486 23.9757 28.1356 21.9622C28.1226 20.5163 27.9292 19.0776 27.5599 17.6795C27.0159 15.5359 26.1843 13.4797 24.9228 11.6586C23.217 9.16855 20.5099 7.75157 17.6138 7.14087C17.6954 7.63694 17.6351 8.1382 17.663 8.63751C18.6827 8.9806 19.6669 9.42129 20.6019 9.95347C23.3484 11.6081 24.7557 14.6655 25.2628 17.6795C26.0865 21.665 25.5562 25.1641 25.7893 28.8762H28.0592ZM6.34005 19.4501C6.64767 19.2299 6.68005 18.978 6.43331 18.6769C6.17556 18.4301 5.89579 18.4081 5.58364 18.6108C4.93148 19.0382 4.57983 19.6036 4.53644 20.2998C4.54745 20.6508 4.76116 20.8205 5.16722 20.7985C5.55061 20.7661 5.73712 20.5686 5.72611 20.2014C5.81419 19.8614 6.01689 19.6088 6.34005 19.4501Z" fill="#EEEEEE"/>
<path fill-rule="evenodd" clip-rule="evenodd" d="M14.0332 12.0176C14.0535 12.0446 14.067 12.0748 14.0733 12.1086C14.1897 12.4022 14.2401 12.7231 14.197 13.0505L14.1869 13.125C14.1424 13.4616 14.0237 13.7684 13.86 14.0409C13.8475 14.0808 13.8267 14.116 13.7953 14.1434C13.3969 14.7342 12.7527 15.1201 12.0352 15.1201H11.4244C10.5808 15.1201 9.79947 14.7548 9.2239 14.1447C9.21538 14.1375 9.20896 14.1296 9.20226 14.1213C9.20095 14.1197 9.19963 14.1181 9.19828 14.1164C8.94961 13.8471 8.74146 13.5329 8.58698 13.1781C8.57679 13.1626 8.56862 13.1461 8.5628 13.1283C8.55892 13.119 8.5544 13.1103 8.5499 13.1015C8.54485 13.0917 8.53982 13.082 8.53572 13.0716C8.41697 12.7716 8.40444 12.4561 8.47057 12.157C8.47057 12.1555 8.47009 12.154 8.46961 12.1525C8.46912 12.151 8.46863 12.1495 8.46863 12.1479C8.46863 12.1086 8.48172 12.0734 8.50048 12.0409C8.5502 11.8786 8.61689 11.7209 8.72069 11.5791C8.7502 11.5384 8.78253 11.4991 8.81584 11.4621H8.02491C8.05821 11.4991 8.09006 11.5384 8.12094 11.5796C8.22475 11.7213 8.29144 11.879 8.34116 12.0414C8.35951 12.0734 8.37252 12.1086 8.37252 12.1479C8.37252 12.1495 8.37204 12.151 8.37156 12.1524C8.37107 12.1539 8.37058 12.1554 8.37058 12.157C8.43679 12.4561 8.42466 12.7711 8.30639 13.0693C8.30198 13.0806 8.29642 13.0913 8.29087 13.102C8.28616 13.1111 8.28146 13.1202 8.27745 13.1296C8.27163 13.1465 8.26387 13.1616 8.25474 13.1767C8.09636 13.5393 7.88343 13.8594 7.62847 14.1323C7.62702 14.1337 7.6258 14.1351 7.62459 14.1365C7.62338 14.1379 7.62217 14.1392 7.62071 14.1406C7.04457 14.7533 6.26179 15.1201 5.4163 15.1201H4.80548C4.08786 15.1201 3.44374 14.7342 3.04528 14.1439C3.01391 14.1165 2.99314 14.0813 2.98061 14.0415C2.81642 13.7689 2.69815 13.4621 2.65369 13.1256L2.64359 13.0519C2.60058 12.7236 2.65078 12.4026 2.76719 12.1086C2.77398 12.0748 2.787 12.0446 2.80729 12.018C2.88748 11.8438 2.98497 11.6779 3.11779 11.5356C3.43647 11.1931 3.86289 11.0047 4.31728 11.0047H12.5228C12.9776 11.0047 13.4041 11.1931 13.7227 11.5356C13.8556 11.6779 13.953 11.8438 14.0332 12.0176Z" fill="#EEEEEE"/>
<path d="M14.0235 12.1594C14.7235 11.6344 16.3335 10.6894 17.1735 11.1094C18.0134 11.5294 17.5235 11.6344 17.1735 11.6344C16.6485 11.4594 15.2835 11.4244 14.0235 12.6844V12.1594Z" fill="#EEEEEE"/>
<path fill-rule="evenodd" clip-rule="evenodd" d="M9.42375 13.4435C9.39592 13.4012 9.36927 13.3577 9.34403 13.3128C9.26245 13.1817 9.18622 12.9752 9.1583 12.8883C9.15107 12.8652 9.14454 12.8419 9.13875 12.8186H13.5262C13.5264 12.8417 13.5263 12.865 13.5257 12.8883C13.5288 13.0015 13.4887 13.2185 13.4682 13.3128C13.4572 13.3572 13.4449 13.4008 13.4311 13.4435H9.42375ZM9.95446 14.0379C10.0132 14.0912 10.0675 14.1366 10.1062 14.162C10.49 14.4325 10.9407 14.5866 11.4153 14.5866H11.9765C12.3597 14.5866 12.7168 14.427 12.9915 14.162C13.0194 14.1298 13.0565 14.0859 13.0956 14.0379H9.95446ZM13.3719 12.2241C13.3375 12.1605 13.2962 12.0951 13.2493 12.039C13.2409 12.0286 13.2335 12.0176 13.2261 12.0065L13.2261 12.0064C13.2163 11.9917 13.2065 11.977 13.1943 11.9639C12.9867 11.7384 12.713 11.6144 12.4242 11.6144H9.95056C9.6959 11.6144 9.45739 11.7422 9.29549 11.9652C9.28609 11.9783 9.27914 11.9927 9.27217 12.0071L9.27217 12.0071C9.26698 12.0179 9.26178 12.0287 9.25554 12.039C9.2336 12.0816 9.20132 12.1505 9.1728 12.2241H13.3719Z" fill="#1F1A17"/>
<path fill-rule="evenodd" clip-rule="evenodd" d="M6.88608 14.0379H3.74483C3.78392 14.0859 3.82107 14.1298 3.84902 14.162C4.12365 14.427 4.48074 14.5866 4.86404 14.5866H5.42519C5.89982 14.5866 6.35053 14.4325 6.73424 14.162C6.77303 14.1366 6.8273 14.0911 6.88608 14.0379ZM7.49646 13.3128C7.47123 13.3577 7.44459 13.4012 7.41677 13.4435H3.40934C3.39563 13.4007 3.38328 13.3572 3.37224 13.3128C3.35178 13.2185 3.31164 13.0015 3.3148 12.8882C3.31423 12.865 3.31406 12.8417 3.31434 12.8186H7.70174C7.69595 12.8419 7.68942 12.8651 7.68219 12.8882C7.65427 12.9751 7.57804 13.1817 7.49646 13.3128ZM7.66769 12.2241H3.46861C3.50304 12.1605 3.54432 12.0951 3.59116 12.039C3.59954 12.0286 3.60694 12.0175 3.61435 12.0065L3.61436 12.0064L3.61436 12.0064C3.62419 11.9917 3.63403 11.977 3.64618 11.9639C3.85383 11.7384 4.1275 11.6144 4.41631 11.6144H6.88993C7.14459 11.6144 7.3831 11.7422 7.545 11.9652C7.5544 11.9783 7.56135 11.9927 7.56832 12.0071C7.5735 12.0179 7.57871 12.0287 7.58495 12.039C7.60689 12.0816 7.63917 12.1505 7.66769 12.2241Z" fill="#1F1A17"/>
</svg>
