<svg width="512" height="512" viewBox="0 0 512 512" fill="none" xmlns="http://www.w3.org/2000/svg">
<path d="M349.72 123.134C326.738 110.939 301.828 104.017 274.887 102.255C266.815 86.5467 255.935 73.8326 242.247 64.2686C225.668 76.2055 214.529 91.9037 208.819 111.301C185.754 85.2411 157.062 66.113 123.023 54C121.232 80.2573 124.999 106.597 134.079 131.3C131.095 134.284 128.732 136.822 126.888 139.019C125.812 140.327 124.86 141.435 124.058 142.368C123.679 142.81 123.333 143.212 123.023 143.578C121.966 144.635 120.66 146.21 119.168 148.314C117.065 150.863 115.656 152.79 114.868 154.106C114.164 155.339 112.671 157.702 110.392 161.121C107.966 164.772 106.11 168.762 104.88 172.954H66.687C57.3546 172.954 48.5969 176.866 42.052 183.977C39.3241 186.93 37.3219 190.376 35.6749 193.993C35.2582 194.545 34.9909 195.171 34.8514 195.873C32.4606 201.978 31.4296 208.643 32.3128 215.459L32.5204 216.989C33.4335 223.976 35.8624 230.346 39.2345 236.006C39.4918 236.832 39.9185 237.563 40.5627 238.132C47.5021 248.525 58.0697 255.866 70.1092 257.858C69.6803 258.422 69.2471 258.989 68.8097 259.559C50.9147 283.246 42.0553 302.281 42.0553 316.674C41.9826 326.231 43.3128 335.748 46.0032 344.92C48.718 353.697 54.3341 362.38 63.1106 371.156C67.4004 375.27 74.3325 379.135 83.8965 382.731C89.5956 383.083 96.0096 382.202 103.19 380.099C108.547 389.922 116.008 394.491 125.572 394.046C131.717 393.693 136.452 391.859 139.695 388.606C142.068 386.243 145.052 381.767 148.472 375.27C154.969 362.908 158.823 355.976 160.046 354.391C176.283 329.74 202.602 310.881 238.921 297.898C246.409 294.682 253.406 290.426 259.707 285.256C260.411 295.09 258.567 305.97 254.184 317.896C249.79 329.916 243.832 339.832 236.113 347.728C231.569 352.419 227.218 356.927 223.049 361.249C214.893 369.7 207.431 377.433 200.582 384.399C190.323 394.926 183.827 402.905 181.101 408.438C175.05 419.225 170.843 428.354 168.211 435.897C165.662 443.441 163.994 449.233 163.372 453.357C162.336 458.528 161.808 465.284 161.714 473.718C161.631 482.039 162.326 486.256 163.911 486.256H480V430.281C480 407.299 479.119 382.295 477.285 355.365C475.645 329.218 471.294 303.313 464.302 278.065C458.482 257.309 450.421 237.248 440.262 218.236C430.263 199.377 419.642 183.233 408.327 169.898C392.183 150.863 372.62 135.247 349.72 123.134Z" fill="#1F1A17"/>
<path fill-rule="evenodd" clip-rule="evenodd" d="M123.553 362.908C124.175 361.323 125.315 359.043 126.89 355.966C129.791 348.785 131.19 344.485 131.19 343.076C130.92 338.34 128.382 335.885 123.729 335.885C120.31 335.885 116.362 340.796 111.709 350.536C110.987 351.962 109.936 353.194 108.642 354.132C103.99 358.96 104.694 362.991 110.653 366.234C116.186 369.488 120.393 368.431 123.553 362.908ZM275.147 267.538C287.167 251.746 293.053 234.203 292.866 214.899C292.172 209.2 288.929 206.403 283.126 206.403C275.241 206.403 272.173 209.294 273.831 215.075C274.36 224.557 273.489 232.359 271.034 238.504C267.075 248.244 262.692 255.528 257.957 260.346C255.325 265.527 256.9 269.299 262.609 271.662C268.049 274.211 272.256 272.895 275.147 267.538ZM208.033 142.097C207.257 135.439 207.435 128.705 208.562 122.098C198.304 124.109 188.646 128.937 179.528 136.481C174.088 139.382 172.772 143.423 175.663 148.594C178.564 153.857 182.605 154.728 187.776 151.132C191.372 149.205 194.708 147.454 197.682 145.868C200.666 144.211 204.075 142.967 208.033 142.097ZM448.947 468.019C448.771 468.019 448.947 463.367 449.382 454.072C450.74 421.867 450.377 389.611 450.17 357.396C449.962 334.261 446.867 311.242 440.958 288.873C432.254 254.575 418.949 221.676 398.764 192.538C371.471 152.697 328.159 130.025 281.82 120.254C283.126 128.191 282.162 136.211 282.608 144.2C298.923 149.69 314.67 156.741 329.63 165.256C373.575 191.73 396.091 240.649 404.204 288.873C417.385 352.64 408.898 408.625 412.629 468.019H448.947ZM101.441 317.202C106.363 313.679 106.881 309.648 102.933 304.83C98.8089 300.882 94.3326 300.53 89.3382 303.773C78.9038 310.612 73.2773 319.658 72.583 330.797C72.7592 336.413 76.1786 339.128 82.6755 338.776C88.8097 338.257 91.7939 335.097 91.6178 329.222C93.027 323.782 96.2703 319.741 101.441 317.202Z" fill="#EEEEEE"/>
<path fill-rule="evenodd" clip-rule="evenodd" d="M224.532 198.281C224.856 198.714 225.072 199.196 225.173 199.738C227.035 204.435 227.842 209.57 227.152 214.808L226.991 216.001C226.279 221.386 224.379 226.295 221.76 230.655C221.559 231.292 221.227 231.856 220.725 232.294C214.351 241.747 204.044 247.921 192.563 247.921H182.79C169.292 247.921 156.791 242.076 147.582 232.316C147.446 232.2 147.343 232.073 147.236 231.941C147.215 231.915 147.194 231.889 147.172 231.863C143.194 227.554 139.863 222.527 137.392 216.85C137.229 216.602 137.098 216.338 137.005 216.053C136.943 215.905 136.87 215.764 136.798 215.625C136.718 215.468 136.637 215.312 136.572 215.145C134.672 210.345 134.471 205.298 135.529 200.513C135.529 200.488 135.521 200.464 135.514 200.441C135.506 200.417 135.498 200.393 135.498 200.367C135.498 199.737 135.708 199.174 136.008 198.655C136.803 196.058 137.87 193.534 139.531 191.266C140.003 190.615 140.521 189.986 141.053 189.393H128.398C128.931 189.986 129.441 190.614 129.935 191.273C131.596 193.541 132.663 196.064 133.458 198.662C133.752 199.174 133.96 199.737 133.96 200.367C133.96 200.392 133.953 200.415 133.945 200.439C133.937 200.463 133.929 200.487 133.929 200.513C134.989 205.298 134.795 210.338 132.902 215.109C132.832 215.29 132.743 215.462 132.654 215.633C132.579 215.778 132.503 215.923 132.439 216.074C132.346 216.345 132.222 216.586 132.076 216.827C129.542 222.629 126.135 227.75 122.056 232.118C122.032 232.14 122.013 232.162 121.993 232.184C121.974 232.206 121.955 232.228 121.931 232.25C112.713 242.053 100.189 247.921 86.6608 247.921H76.8876C65.4058 247.921 55.0998 241.747 48.7245 232.303C48.2226 231.864 47.8902 231.301 47.6897 230.664C45.0628 226.302 43.1705 221.393 42.4591 216.009L42.2974 214.831C41.6093 209.578 42.4125 204.442 44.2751 199.738C44.3837 199.196 44.592 198.714 44.9166 198.289C46.1997 195.501 47.7596 192.846 49.8847 190.57C54.9836 185.09 61.8062 182.076 69.0765 182.076H200.364C207.642 182.076 214.465 185.09 219.564 190.57C221.689 192.846 223.249 195.501 224.532 198.281Z" fill="#EEEEEE"/>
<path d="M224.377 200.55C235.576 192.15 261.336 177.031 274.775 183.751C288.215 190.47 280.375 192.15 274.775 192.15C266.376 189.35 244.536 188.791 224.377 208.95V200.55Z" fill="#EEEEEE"/>
<path fill-rule="evenodd" clip-rule="evenodd" d="M150.78 221.096C150.334 220.419 149.908 219.723 149.504 219.005C148.199 216.908 146.979 213.603 146.532 212.212C146.417 211.843 146.312 211.471 146.219 211.097H216.418C216.422 211.468 216.42 211.84 216.411 212.212C216.461 214.024 215.819 217.496 215.491 219.005C215.315 219.715 215.117 220.412 214.898 221.096H150.78ZM159.271 230.607C160.211 231.459 161.079 232.186 161.7 232.593C167.839 236.92 175.05 239.386 182.644 239.386H191.623C197.756 239.386 203.469 236.832 207.863 232.593C208.31 232.077 208.904 231.374 209.53 230.607H159.271ZM213.95 201.586C213.399 200.568 212.738 199.522 211.989 198.624C211.855 198.458 211.736 198.281 211.618 198.103L211.618 198.103C211.46 197.867 211.303 197.632 211.108 197.422C207.786 193.815 203.407 191.831 198.786 191.831H159.209C155.134 191.831 151.318 193.876 148.727 197.443C148.577 197.653 148.466 197.883 148.354 198.114L148.354 198.114C148.271 198.287 148.188 198.459 148.088 198.624C147.737 199.306 147.221 200.408 146.764 201.586H213.95Z" fill="#1F1A17"/>
<path fill-rule="evenodd" clip-rule="evenodd" d="M110.177 230.606H59.9173C60.5427 231.374 61.1372 232.077 61.5843 232.593C65.9783 236.832 71.6919 239.386 77.8246 239.386H86.803C94.3971 239.386 101.608 236.92 107.748 232.593C108.368 232.186 109.237 231.458 110.177 230.606ZM119.943 219.005C119.54 219.723 119.113 220.419 118.668 221.095H54.5494C54.33 220.412 54.1325 219.715 53.9559 219.005C53.6285 217.496 52.9863 214.024 53.0369 212.212C53.0278 211.84 53.025 211.468 53.0294 211.097H123.228C123.135 211.471 123.031 211.843 122.915 212.212C122.468 213.603 121.249 216.908 119.943 219.005ZM122.683 201.586H55.4978C56.0486 200.568 56.7091 199.522 57.4585 198.624C57.5927 198.458 57.7111 198.281 57.8296 198.103L57.8296 198.103L57.8297 198.103L57.8298 198.103C57.9871 197.867 58.1445 197.632 58.3389 197.422C61.6613 193.815 66.0401 191.831 70.661 191.831H110.239C114.313 191.831 118.13 193.876 120.72 197.443C120.87 197.653 120.982 197.883 121.093 198.114C121.176 198.287 121.259 198.459 121.359 198.624C121.71 199.306 122.227 200.408 122.683 201.586Z" fill="#1F1A17"/>
</svg>
