<svg width="512" height="512" viewBox="0 0 512 512" fill="none" xmlns="http://www.w3.org/2000/svg">
<path fill-rule="evenodd" clip-rule="evenodd" d="M245.789 318.391V287.194C243.367 290.827 210.672 308.991 185.242 319.89C164.898 328.609 153.354 350.971 150.125 361.062C125.906 415.312 100.476 399.005 90.7885 384.07C25.3975 370.749 45.9836 302.937 56.8821 289.616C65.6009 278.96 84.7338 244.811 93.2104 229.069L100.476 183.053C100.476 165.616 124.695 142.688 136.804 133.404C135.997 119.68 134.382 89.8105 134.382 80.1229C134.382 70.4354 142.455 71.2427 146.492 72.8573L197.351 100.709C204.213 95.4616 219.391 83.0292 225.203 75.2792C231.016 67.5292 236.505 72.05 238.524 75.2792L260.321 117.662L287.497 116.87L312.632 117.662C317.291 117.662 321.977 118.287 326.368 119.845C447.541 162.851 470.449 369.362 466.597 477.543C466.408 482.858 462.013 487 456.695 487H171.084C166.032 487 161.742 483.232 161.624 478.18C161.107 456.015 167.092 419.582 194.93 401.023C224.083 381.587 239.339 347.248 244.555 328.493C245.469 325.207 245.789 321.803 245.789 318.391Z" fill="#1F1A17"/>
<path fill-rule="evenodd" clip-rule="evenodd" d="M108.004 353.203C113.252 349.57 123.845 346.918 119.97 363.387C118.356 366.616 114.039 372.761 110.164 376.636C106.289 380.511 110.473 381.717 112.492 382.121C116.124 382.524 121.138 381.338 126.951 371.65C128.32 369.369 131.022 365.782 132.934 361.679C141.171 344.001 154.306 311.163 183.79 300.352C219.436 287.282 266.942 265.041 267.569 218.45C267.593 216.692 267.946 214.876 269.189 213.632C272.768 210.049 280.023 207.152 284.971 214.093C285.717 215.14 286.087 216.397 286.183 217.679C287.047 229.325 285.09 255.06 264.063 277.915C267.696 307.785 262.941 377.717 207.722 414.529C197.801 422.543 180.869 438.423 181.505 463.871C181.569 466.433 183.743 468.377 186.305 468.377H439.134C441.864 468.377 444.09 466.254 444.119 463.524C445.182 361.676 429.297 170.813 319.657 140.304C314.006 138.69 294.779 135.845 254.091 136.814C251.266 134.392 240.815 121.089 230.159 94.9324C221.279 104.62 200.502 122.141 175.314 131.828C143.829 143.938 127.236 160.045 119.97 183.053C114.158 201.459 112.895 221.4 112.492 229.069C109.666 237.546 97.4923 263.46 79.0859 289.616C56.078 322.312 49.5236 357.903 95.5394 365.169C96.3467 363.554 98.3166 361.921 108.004 353.203ZM91.0521 327.774C85.6636 334.959 76.0033 339.004 70.7634 340.843C70.1679 341.052 69.5388 340.655 69.4642 340.029C69.0077 336.192 68.312 328.734 70.1113 323.786C71.2274 320.716 75.1544 317.491 78.3966 315.245C81.2215 313.289 84.9616 313.274 87.5565 315.526C90.9701 318.49 94.5397 323.124 91.0521 327.774Z" fill="white"/>
<path d="M151.336 94.9324L152.877 120.859L175.314 108.394L151.336 94.9324Z" fill="white"/>
<path d="M47.0011 183H301.299V192.688L310.985 192.688V202.375H301.298L301.299 192.688L240.751 192.688V204.797H233.485V212.063L223.797 212.063V219.329L214.11 219.329V229.016H168.094V219.329L158.406 219.329V212.063H151.141V192.688L136.61 192.688L136.609 212.063H126.922V219.329L119.657 219.329V229.016H71.2189V219.329L63.9534 219.329V212.063H54.2645V202.375L47 202.375L47.0011 183Z" fill="#1F1A17"/>
<path d="M110.163 192.741H102.898V200.006H110.163V192.741Z" fill="white"/>
<path d="M93.21 202.428H100.476V209.694H93.21V202.428Z" fill="white"/>
<path d="M110.163 202.428H117.428V209.694H110.163V202.428Z" fill="white"/>
<path d="M93.2097 212.116H85.9441V219.382H93.2097V212.116Z" fill="white"/>
<path d="M100.475 212.116H107.741V219.382H100.475V212.116Z" fill="white"/>
<path d="M119.85 192.741H127.116V200.006H119.85V192.741Z" fill="white"/>
<path d="M204.616 192.741H197.351V200.006H204.616V192.741Z" fill="white"/>
<path d="M187.663 202.428H194.929V209.694H187.663V202.428Z" fill="white"/>
<path d="M204.616 202.428H211.881V209.694H204.616V202.428Z" fill="white"/>
<path d="M187.663 212.116H180.397V219.382H187.663V212.116Z" fill="white"/>
<path d="M194.928 212.116H202.193V219.382H194.928V212.116Z" fill="white"/>
<path d="M214.303 192.741H221.569V200.006H214.303V192.741Z" fill="white"/>
</svg>
