<svg width="32" height="32" viewBox="0 0 32 32" fill="none" xmlns="http://www.w3.org/2000/svg">
<path fill-rule="evenodd" clip-rule="evenodd" d="M6.92132 21.6748C7.24928 21.4477 7.84467 21.2509 7.60248 22.2802C7.50156 22.4821 7.23919 22.9462 6.997 23.1884C6.75482 23.4306 6.94655 23.5416 7.07269 23.5669C7.29974 23.5921 7.84467 23.4912 8.20795 22.8857C8.2935 22.7431 8.39249 22.5307 8.512 22.2742C9.0268 21.1694 9.92235 19.2474 11.7651 18.5717C13.8521 17.8065 16.6425 16.3378 17.0212 13.7544C17.0885 13.2949 17.0532 12.6993 17.5172 12.6793C17.8565 12.6647 17.9999 13.2209 17.9762 13.5597C17.9189 14.3771 17.5693 15.6981 16.4575 16.9067C16.6846 18.7735 16.2759 23.0825 12.8247 25.3833C12.1687 25.9131 10.9023 27.4116 11.0839 29.1675H28.5669C28.6678 22.8857 27.1289 9.83779 20.166 7.90028C19.8128 7.79936 18.4707 7.61268 15.9277 7.67322C15.7511 7.52186 15.2314 6.81043 14.5654 5.17565C14.0104 5.78113 12.5068 7.14344 10.9326 7.74891C8.96479 8.50575 7.82953 9.56532 7.37542 11.0033C7.01214 12.1537 6.87086 13.4 6.84564 13.8793C6.66904 14.4091 6.02825 15.8774 4.87785 17.5121C3.43986 19.5556 3.13712 22.2045 6.01311 22.6586C6.06357 22.5577 6.31585 22.2197 6.92132 21.6748ZM9.64594 7.37049L9.49458 5.25134L11.4624 6.3866L9.64594 7.37049Z" fill="white"/>
<path fill-rule="evenodd" clip-rule="evenodd" d="M15.5493 19.4619V17.5121C15.398 17.7392 13.3545 18.8745 11.7651 19.5556C10.4936 20.1005 9.77212 21.4982 9.57029 22.1289C8.05661 25.5195 6.46725 24.5003 5.86178 23.5669C1.77485 22.7343 3.06147 18.496 3.74263 17.6635C4.28755 16.9975 5.48336 14.8632 6.01315 13.8793L6.46725 11.0033C6.46725 9.91347 7.98093 8.48052 8.73777 7.90028C8.68731 7.04253 8.5864 5.17566 8.5864 4.57018C8.5864 3.96471 9.09096 4.01517 9.34324 4.11608L12.522 5.85681C12.9508 5.52885 13.8994 4.75183 14.2627 4.26745C14.626 3.78307 14.9691 4.06563 15.0952 4.26745L16.4575 6.91639L18.1561 6.8669L19.727 6.91639C20.0182 6.91639 20.3111 6.95545 20.5855 7.05284C28.3858 9.82124 29.6709 23.4306 29.3238 30H10.3271C10.1758 28.7638 10.3725 25.9585 12.3706 24.6264C14.1927 23.4117 15.1462 21.2655 15.4722 20.0933C15.5293 19.8879 15.5493 19.6752 15.5493 19.4619ZM6.93776 21.6377C7.26573 21.4106 7.92784 21.2449 7.68565 22.2742C7.58474 22.476 7.31491 22.8601 7.07272 23.1023C6.83053 23.3445 7.09208 23.4198 7.21822 23.4451C7.44527 23.4703 7.75863 23.3961 8.12192 22.7906C8.20747 22.6481 8.37635 22.4239 8.49586 22.1674C9.01066 21.0626 9.83163 19.0102 11.6744 18.3345C13.7273 17.5817 16.4097 16.3423 16.8489 13.8738C16.9442 13.3383 16.9715 12.6966 17.5152 12.6793C17.9128 12.6667 18.097 13.2503 18.0797 13.6477C18.0435 14.4766 17.7657 15.7646 16.6915 16.9322C16.9185 18.7991 16.6213 23.1698 13.1702 25.4706C12.5142 26.0004 11.3681 27.0802 11.5497 28.8361H27.9409C28.0418 22.5543 27.129 10.269 20.166 8.33151C19.8129 8.2306 18.6112 8.05283 16.0682 8.11338C15.8916 7.96201 15.2385 7.13055 14.5724 5.49577C14.0174 6.10124 12.7189 7.19629 11.1446 7.80176C9.17684 8.5586 8.13975 9.56533 7.68565 11.0033C7.32237 12.1537 7.24345 13.4 7.21822 13.8793C7.04162 14.4091 6.28077 16.0287 5.13037 17.6635C3.69238 19.707 3.28273 21.9314 6.15871 22.3855C6.20917 22.2846 6.33229 22.1826 6.93776 21.6377ZM5.87826 20.0484C5.77743 20.1828 5.65266 20.2997 5.51854 20.4005C5.0636 20.7426 4.37495 20.334 4.56946 19.7991C4.80309 19.1566 6.18091 19.2894 5.94369 19.9306C5.92923 19.9697 5.90779 20.009 5.87826 20.0484ZM9.74234 7.11619L9.64598 5.49577L11.1446 6.33715L9.74234 7.11619Z" fill="#1F1A17"/>
<path fill-rule="evenodd" clip-rule="evenodd" d="M19.0308 11.0033H3.13718V11.6088H19.0308V11.0033ZM8.73773 12.2143V11.6088H3.13712V12.2143H8.73773ZM19.0307 11.6088H19.6362V12.2143H19.0307V11.6088ZM8.73766 12.8198V12.2143H3.59115V12.8198H4.19671V13.2739H8.13228V12.8198H8.73766ZM7.67816 13.8793V13.2739H4.6508V13.8793H7.67816ZM10.7055 13.8793V13.2739H13.5815V13.8793H10.7055ZM14.7924 12.3656V12.8198L14.1869 12.8198V13.2739H10.1V12.8198H9.64594V12.3656V12.2143V11.6088H15.2466V12.3656H14.7924Z" fill="#1F1A17"/>
<path fill-rule="evenodd" clip-rule="evenodd" d="M6.6186 11.6088H7.07271V12.0629H6.6186V11.6088ZM6.46724 12.2143H6.01314V12.6684H6.46724V12.2143ZM7.52677 12.2143H7.07267V12.6684H7.52677V12.2143ZM5.55902 12.8198H6.01312V13.2739H5.55902V12.8198ZM6.92131 12.8198H6.4672V13.2739H6.92131V12.8198ZM8.13227 11.6088H7.67816V12.0629H8.13227V11.6088Z" fill="white"/>
<path fill-rule="evenodd" clip-rule="evenodd" d="M12.5219 11.6088H12.976V12.0629H12.5219V11.6088ZM12.3706 12.2143H11.9165V12.6684H12.3706V12.2143ZM13.4301 12.2143H12.976V12.6684H13.4301V12.2143ZM11.4623 12.8198H11.9164V13.2739H11.4623V12.8198ZM12.8246 12.8198H12.3705V13.2739H12.8246V12.8198ZM14.0356 11.6088H13.5815V12.0629H14.0356V11.6088Z" fill="white"/>
</svg>
