<svg width="512" height="512" viewBox="0 0 512 512" fill="none" xmlns="http://www.w3.org/2000/svg">
<path d="M387.927 401.463C386.362 394.236 379.088 388.52 371.636 388.52H348.721L280.437 137.221C279.919 131.533 264.199 130 254.856 130C245.513 130 229.791 131.533 229.267 137.221L160.995 388.52H140.535C133.08 388.52 125.803 394.236 124.258 401.463L108.418 467.751C106.165 477.18 113.313 486.237 123.007 486.237H388.25C397.863 486.237 404.994 477.323 402.884 467.945L387.927 401.463Z" fill="#1F1A17"/>
<path d="M254.995 448.46C204.958 448.46 164.207 437.938 162.386 424.798C162.904 417.771 168.027 416.536 170.523 416.796C185.04 425.337 217.419 431.289 255.052 431.289C292.678 431.289 325.056 425.342 339.571 416.805C342.264 416.541 347.638 417.771 347.596 424.798C345.797 437.941 305.039 448.46 254.995 448.46Z" fill="#EEEEEE"/>
<path d="M204.735 314.856C224.595 319.754 264.205 324.587 305.457 314.722C308.787 313.926 310.737 310.508 309.84 307.204C308.912 303.785 305.319 301.846 301.89 302.735C269.253 311.194 229.537 306.748 208.255 302.343C204.768 301.621 201.26 303.676 200.329 307.113C199.411 310.503 201.325 314.015 204.735 314.856Z" fill="#EEEEEE"/>
<path d="M237.316 195.44C246.306 196.57 259.957 197.361 272.897 195.547C276.361 195.062 278.459 191.595 277.542 188.219C276.684 185.058 273.486 183.154 270.244 183.624C258.974 185.259 247.384 184.548 239.74 183.517C236.54 183.085 233.411 185.001 232.566 188.118C231.642 191.531 233.808 194.999 237.316 195.44Z" fill="#EEEEEE"/>
</svg>
