<svg width="32" height="32" viewBox="0 0 32 32" fill="none" xmlns="http://www.w3.org/2000/svg">
<path d="M14.0781 7.79682L14.6296 5.74098C14.6296 5.72728 14.6833 5.71946 14.6891 5.70615C14.7758 5.8797 15.3616 6.0196 16.1363 6.0196C16.9137 6.0196 17.5014 5.87912 17.5861 5.70537C17.5926 5.71868 17.6476 5.72689 17.6476 5.74098L18.1992 7.79682L18.4737 8.8178C17.8791 8.94459 17.0522 9.02325 16.1386 9.02325C15.2245 9.02325 14.3986 8.94479 13.8042 8.8178L14.0781 7.79682ZM12.0062 15.5152L12.6769 13.0156C13.5091 13.2222 14.7508 13.3537 16.1386 13.3537C17.5262 13.3537 18.7679 13.2222 19.6001 13.0156L20.2708 15.5152L20.7103 17.1485C19.64 17.4319 17.9903 17.6136 16.1388 17.6136C14.2865 17.6136 12.6366 17.4319 11.5673 17.1485L12.0062 15.5152ZM16.1445 26.0035C12.6329 26.0035 9.77304 25.2651 9.64531 24.3429H9.63416L10.5105 21.0769C11.6784 21.6704 13.7609 22.0673 16.1366 22.0673C18.5126 22.0673 20.5954 21.6705 21.7622 21.0769L22.6392 24.3429H22.6429C22.5167 25.2653 19.6563 26.0035 16.1442 26.0035H16.1445Z" fill="#1F1A17"/>
<path d="M26.4067 28.4208L25.4692 24.0507C25.3595 23.5435 24.849 23.1424 24.326 23.1424H22.7178L17.9258 5.50676C17.8894 5.1076 16.7863 5 16.1306 5C15.4749 5 14.3716 5.10761 14.3348 5.50676L9.5436 23.1424H8.10783C7.58464 23.1424 7.07392 23.5435 6.96553 24.0507L6.02714 28.4208C5.99232 28.5842 5.99192 28.7399 6.02069 28.882C5.90622 29.4964 6.27936 30 6.87181 30H25.5608C26.1537 30 26.527 29.4963 26.4124 28.882C26.4419 28.7405 26.4411 28.5842 26.4067 28.4208Z" fill="#1F1A17"/>
<path d="M24.1849 24.3151H23.2603H9.12244H8.19778C8.11787 24.3151 7.93066 24.4452 7.82107 24.9658C7.71148 25.4863 7.29595 27.3744 7.10189 28.2534C7.06764 28.4361 7.16353 28.8082 7.82107 28.8356C8.4786 28.863 13.6658 28.847 16.1772 28.8356H16.2055C18.7169 28.847 23.9041 28.863 24.5616 28.8356C25.2192 28.8082 25.3151 28.4361 25.2808 28.2534C25.0868 27.3744 24.6712 25.4863 24.5616 24.9658C24.4521 24.4452 24.2648 24.3151 24.1849 24.3151Z" fill="#1F1A17"/>
<path d="M16.1443 26.0035H16.1444H16.1442H16.1443Z" fill="#EEEEEE"/>
<path d="M16.1444 26.0035H16.1443H16.1442H16.1444Z" fill="#EEEEEE"/>
<path d="M16.1403 27.2085H16.1404H16.1402H16.1403Z" fill="#EEEEEE"/>
<path d="M16.1404 27.2085H16.1403H16.1402H16.1404Z" fill="#EEEEEE"/>
<path d="M16.1403 27.2085C12.6288 27.2085 9.76901 26.4701 9.64128 25.5479C9.6776 25.0548 10.0371 24.9681 10.2123 24.9864C11.231 25.5858 13.5034 26.0035 16.1443 26.0035C18.7849 26.0035 21.0571 25.5861 22.0757 24.987C22.2647 24.9685 22.6418 25.0548 22.6389 25.5479C22.5127 26.4703 19.6523 27.2085 16.1403 27.2085Z" fill="#EEEEEE"/>
</svg>
