<svg width="32" height="32" viewBox="0 0 32 32" fill="none" xmlns="http://www.w3.org/2000/svg">
<path fill-rule="evenodd" clip-rule="evenodd" d="M16.7996 5.95592C16.1825 6.08225 15.5247 6.00968 15.2729 5.9576L10.3511 24.1255L8.17476 24.1127C8.09569 24.1127 7.91044 24.2415 7.802 24.7566C7.69356 25.2717 7.28238 27.14 7.09035 28.0098C7.05646 28.1906 7.15135 28.5588 7.802 28.5859C8.45264 28.613 13.5855 28.5972 16.0706 28.5859H16.0986C18.5837 28.5972 23.7165 28.613 24.3672 28.5859C25.0178 28.5588 25.1127 28.1906 25.0788 28.0098C24.8868 27.14 24.4756 25.2717 24.3672 24.7566C24.2588 24.2415 24.0735 24.1127 23.9944 24.1127L21.7316 24.1255L16.7996 5.95592Z" fill="#1F1A17"/>
<path fill-rule="evenodd" clip-rule="evenodd" d="M25.2653 23.8511L26.1929 28.1755C26.227 28.3371 26.2278 28.4918 26.1985 28.6318C26.312 29.2397 25.9426 29.7381 25.3559 29.7381H6.86268C6.27643 29.7381 5.9072 29.2398 6.02047 28.6318C5.99201 28.4912 5.9924 28.3371 6.02686 28.1755L6.95541 23.8511C7.06267 23.3492 7.56804 22.9523 8.08575 22.9523H9.50648L14.2475 5.50145C14.2839 5.10649 15.3757 5 16.0245 5C16.6733 5 17.7649 5.10648 17.8009 5.50145L22.5427 22.9523H24.134C24.6515 22.9523 25.1566 23.3493 25.2653 23.8511Z" fill="#1F1A17"/>
<path d="M12.238 17.1604C12.1742 17.3957 12.3072 17.6396 12.5439 17.698C13.9231 18.0381 16.6737 18.3738 19.5383 17.6887C19.7696 17.6334 19.905 17.3961 19.8427 17.1666C19.7782 16.9292 19.5288 16.7946 19.2907 16.8563C17.0242 17.4437 14.2663 17.135 12.7884 16.8291C12.5462 16.7789 12.3027 16.9217 12.238 17.1604Z" fill="#EEEEEE"/>
<path d="M14.4766 8.89701C14.4124 9.13399 14.5629 9.37486 14.8065 9.40547C15.4307 9.48393 16.3787 9.53888 17.2773 9.41291C17.5178 9.37919 17.6635 9.13843 17.5999 8.90403C17.5403 8.68446 17.3182 8.55228 17.0931 8.58494C16.3105 8.69847 15.5056 8.64908 14.9748 8.57745C14.7526 8.54746 14.5352 8.68057 14.4766 8.89701Z" fill="#EEEEEE"/>
<path d="M16.0381 25.7835H16.0382H16.0379H16.0381Z" fill="#EEEEEE"/>
<path d="M16.0382 25.7835H16.0381H16.0379H16.0382Z" fill="#EEEEEE"/>
<path d="M16.0341 26.9759H16.0342H16.034H16.0341Z" fill="#EEEEEE"/>
<path d="M16.0342 26.9759H16.0341H16.034H16.0342Z" fill="#EEEEEE"/>
<path d="M16.0341 26.9759C12.5594 26.9759 9.72953 26.2452 9.60314 25.3327C9.63908 24.8447 9.99482 24.7589 10.1682 24.777C11.1762 25.3701 13.4248 25.7834 16.0381 25.7835C18.651 25.7834 20.8993 25.3705 21.9073 24.7776C22.0943 24.7593 22.4675 24.8447 22.4646 25.3327C22.3397 26.2454 19.5093 26.9759 16.0341 26.9759Z" fill="#EEEEEE"/>
</svg>
