<svg width="32" height="32" viewBox="0 0 32 32" fill="none" xmlns="http://www.w3.org/2000/svg">
<path fill-rule="evenodd" clip-rule="evenodd" d="M16.0075 30H7.61999C7.20747 29.0689 6.99679 28.0713 7.00004 27.0644C7.00004 25.3326 7.54046 23.7789 8.62695 22.397C9.71406 21.0203 11.1137 20.0371 12.8207 19.4474C12.0955 19.1459 11.4751 18.6625 11.0291 18.0515C10.5676 17.428 10.3403 16.7225 10.3403 15.9361C10.3403 14.9523 10.7003 14.0989 11.4268 13.3794C12.1475 12.6553 13.0386 12.2379 14.0988 12.1279C13.2559 11.5568 12.837 10.7989 12.837 9.86343C12.837 9.07699 13.1445 8.40057 13.7651 7.83941C14.38 7.27825 15.1277 7 16.0075 7C16.8773 7 17.6244 7.27825 18.245 7.83941C18.8656 8.40057 19.1781 9.07699 19.1781 9.86343C19.1781 10.7989 18.7591 11.5568 17.9162 12.1279C18.9764 12.2379 19.8675 12.6553 20.5883 13.3794C21.3147 14.0989 21.6754 14.9529 21.6754 15.9361C21.6754 16.7225 21.4418 17.428 20.9703 18.0515C20.519 18.6583 19.8998 19.1406 19.1781 19.4474C20.8851 20.0371 22.2854 21.0203 23.3718 22.397C24.4589 23.7789 25 25.3326 25 27.0644C25 28.0767 24.7984 29.0552 24.3951 30H16.0075Z" fill="#1F1A17"/>
</svg>
