<svg width="512" height="512" viewBox="0 0 512 512" fill="none" xmlns="http://www.w3.org/2000/svg">
<path d="M388.25 486.237C397.932 486.237 405.077 477.202 402.846 467.781L387.143 401.463C385.579 394.236 378.305 388.52 370.852 388.52H347.937L279.654 137.221C279.135 131.533 263.416 130 254.073 130C244.73 130 229.008 131.533 228.483 137.221L160.211 388.52H139.752C132.297 388.52 125.019 394.236 123.475 401.463L108.379 467.914C106.247 477.301 113.381 486.237 123.006 486.237H388.25Z" fill="#1F1A17"/>
<path d="M243.25 143.79C246.876 144.54 256.349 145.585 265.235 143.766L275.223 180.563C259.005 184.24 240.509 182.095 233.288 180.563L243.25 143.79Z" fill="white"/>
<path d="M230.071 192.437L201.222 298.925C221.143 303.905 270.258 310.877 307.352 298.925L278.443 192.425C260.205 196.399 238.595 194.089 230.071 192.437Z" fill="white"/>
<path fill-rule="evenodd" clip-rule="evenodd" d="M310.679 311.183C262.541 324.36 215.436 316.673 197.902 311.183L172.374 405.414L141.034 405.23C139.895 405.23 137.228 407.084 135.666 414.502C134.104 421.919 128.183 448.824 125.418 461.349C124.93 463.952 126.296 469.255 135.666 469.645C145.036 470.036 218.951 469.808 254.737 469.645H255.14C290.926 469.808 364.841 470.036 374.211 469.645C383.58 469.255 384.947 463.952 384.459 461.349C381.693 448.824 375.772 421.919 374.211 414.502C372.649 407.084 369.981 405.23 368.843 405.23L336.257 405.414L310.679 311.183ZM161.603 422.798C163.423 435.938 204.174 446.46 254.211 446.46C304.255 446.46 345.014 435.941 346.812 422.798C346.855 415.771 341.48 414.541 338.788 414.805C324.272 423.342 291.895 429.289 254.268 429.289C216.636 429.289 184.256 423.337 169.74 414.796C167.243 414.535 162.121 415.771 161.603 422.798Z" fill="white"/>
</svg>
