<svg width="32" height="32" viewBox="0 0 32 32" fill="none" xmlns="http://www.w3.org/2000/svg">
<path fill-rule="evenodd" clip-rule="evenodd" d="M16.7996 5.95592C16.1825 6.08225 15.5247 6.00968 15.2729 5.9576L10.3511 24.1255L8.17476 24.1127C8.09569 24.1127 7.91044 24.2415 7.802 24.7566C7.69356 25.2717 7.28238 27.14 7.09035 28.0098C7.05646 28.1906 7.15135 28.5588 7.802 28.5859C8.45264 28.613 13.5855 28.5972 16.0706 28.5859H16.0986C18.5837 28.5972 23.7165 28.613 24.3672 28.5859C25.0178 28.5588 25.1127 28.1906 25.0788 28.0098C24.8868 27.14 24.4756 25.2717 24.3672 24.7566C24.2588 24.2415 24.0735 24.1127 23.9944 24.1127L21.7316 24.1255L16.7996 5.95592Z" fill="white"/>
<path d="M16.0381 25.7835H16.0382H16.0379H16.0381Z" fill="#1F1A17"/>
<path d="M16.0382 25.7835H16.0381H16.0379H16.0382Z" fill="#1F1A17"/>
<path d="M16.0341 26.9759H16.0342H16.034H16.0341Z" fill="#1F1A17"/>
<path d="M16.0342 26.9759H16.0341H16.034H16.0342Z" fill="#1F1A17"/>
<path d="M16.0341 26.9759C12.5594 26.9759 9.72953 26.2452 9.60314 25.3327C9.63908 24.8447 9.99482 24.7589 10.1682 24.777C11.1762 25.3701 13.4248 25.7834 16.0381 25.7835C18.651 25.7834 20.8993 25.3705 21.9073 24.7776C22.0943 24.7593 22.4675 24.8447 22.4646 25.3327C22.3397 26.2454 19.5093 26.9759 16.0341 26.9759Z" fill="#1F1A17"/>
<path fill-rule="evenodd" clip-rule="evenodd" d="M26.1929 28.1755L25.2653 23.8511C25.1566 23.3493 24.6515 22.9523 24.134 22.9523H22.5427L17.8009 5.50145C17.7649 5.10648 16.6733 5 16.0245 5C15.3757 5 14.2839 5.10649 14.2475 5.50145L9.50648 22.9523H8.08575C7.56804 22.9523 7.06267 23.3492 6.95541 23.8511L6.02686 28.1755C5.9924 28.3371 5.99201 28.4912 6.02047 28.6318C5.9072 29.2398 6.27643 29.7381 6.86268 29.7381H25.3559C25.9426 29.7381 26.312 29.2397 26.1985 28.6318C26.2278 28.4918 26.227 28.3371 26.1929 28.1755ZM16.7996 5.95592C16.1825 6.08225 15.5247 6.00968 15.2729 5.9576L14.5811 8.51121C15.0826 8.61761 16.367 8.76658 17.4933 8.51121L16.7996 5.95592ZM12.3544 16.7306C13.7378 17.0764 17.1484 17.5606 19.7243 16.7306L17.7169 9.33497C16.4503 9.61094 14.9497 9.45052 14.3577 9.33582L12.3544 16.7306ZM24.3672 24.7566C24.2587 24.2415 24.0735 24.1127 23.9944 24.1127L21.7316 24.1255L19.9554 17.5819C16.6125 18.4969 13.3415 17.9631 12.1238 17.5819L10.3511 24.1255L8.17476 24.1127C8.09569 24.1127 7.91043 24.2415 7.80199 24.7566C7.69355 25.2717 7.28238 27.14 7.09035 28.0098C7.05646 28.1906 7.15134 28.5588 7.80199 28.5859C8.45264 28.613 13.5855 28.5972 16.0706 28.5859H16.0986C18.5837 28.5972 23.7165 28.613 24.3672 28.5859C25.0178 28.5588 25.1127 28.1906 25.0788 28.0098C24.8868 27.14 24.4756 25.2717 24.3672 24.7566Z" fill="#1F1A17"/>
</svg>
