<svg width="32" height="32" viewBox="0 0 32 32" fill="none" xmlns="http://www.w3.org/2000/svg">
<path fill-rule="evenodd" clip-rule="evenodd" d="M16.0228 29.7844H7.62104C7.20783 28.7811 6.99679 27.7061 7.00004 26.621C7.00004 24.7549 7.54138 23.0807 8.62971 21.5915C9.71866 20.108 11.1206 19.0485 12.8306 18.4131C12.1042 18.0882 11.4827 17.5673 11.0359 16.9089C10.5736 16.2371 10.3459 15.4768 10.3459 14.6293C10.3459 13.5692 10.7066 12.6497 11.4343 11.8743C12.1563 11.094 13.0489 10.6442 14.1109 10.5257C13.2665 9.91033 12.8469 9.09362 12.8469 8.08558C12.8469 7.23813 13.1549 6.50923 13.7765 5.90454C14.3925 5.29984 15.1415 5 16.0228 5C16.8941 5 17.6424 5.29984 18.2641 5.90454C18.8851 6.50923 19.1987 7.23813 19.1987 8.08558C19.1987 9.09362 18.7791 9.91033 17.9348 10.5257C18.9967 10.6442 19.8893 11.094 20.6113 11.8743C21.339 12.6497 21.7003 13.5699 21.7003 14.6293C21.7003 15.4768 21.4663 16.2371 20.994 16.9089C20.542 17.5628 19.9217 18.0825 19.1987 18.4131C20.9087 19.0485 22.3113 20.108 23.3996 21.5915C24.4886 23.0807 25.0305 24.7549 25.0305 26.621C25.0305 27.7119 24.8285 28.7663 24.4246 29.7844H16.0228Z" fill="#1F1A17"/>
<path fill-rule="evenodd" clip-rule="evenodd" d="M16.0228 28.7556H23.6599C23.8735 28.0641 23.9845 27.3448 23.9892 26.621C23.9892 25.0447 23.5432 23.6182 22.6456 22.3361C21.7486 21.0539 20.59 20.108 19.183 19.5033C18.1894 19.1144 18.1524 19.0899 18.1524 18.4131C18.1524 17.8805 18.503 17.4878 19.1987 17.2344C20.1603 16.5783 20.6433 15.7101 20.6433 14.6293C20.6433 13.849 20.3723 13.1715 19.836 12.5825C19.294 11.9985 18.641 11.6623 17.8764 11.5695C17.2491 11.5174 16.9417 11.1768 16.9417 10.5407C16.9417 10.2566 17.0534 9.99313 17.2817 9.75037C17.8444 9.32633 18.126 8.77307 18.126 8.08558C18.126 7.52228 17.9134 7.03614 17.4988 6.63343C17.0848 6.23009 16.5911 6.02873 16.0228 6.02873C15.4331 6.02873 14.9288 6.22946 14.5198 6.63343C14.3234 6.82031 14.1677 7.04577 14.0626 7.29567C13.9575 7.54556 13.9051 7.81449 13.9088 8.08558C13.9088 8.76304 14.1848 9.31567 14.7481 9.74975C14.9765 9.97243 15.0881 10.2359 15.0881 10.5407C15.0881 11.1768 14.7851 11.5174 14.1692 11.5695C13.4111 11.6517 12.7106 12.0128 12.2039 12.5825C11.6676 13.1722 11.4022 13.849 11.4022 14.6293C11.4022 15.7095 11.8852 16.5783 12.8469 17.2344C13.5431 17.4929 13.8932 17.8906 13.8932 18.4131C13.8932 19.0905 13.8505 19.1144 12.8469 19.5033C11.4392 20.108 10.2869 21.0539 9.39495 22.3361C8.50233 23.6182 8.05634 25.0447 8.05634 26.621C8.05634 27.3706 8.16799 28.0788 8.38566 28.7556H16.0228Z" fill="white"/>
</svg>
