<svg width="512" height="512" viewBox="0 0 512 512" fill="none" xmlns="http://www.w3.org/2000/svg">
<path fill-rule="evenodd" clip-rule="evenodd" d="M256.035 127.967C246.601 127.967 238.522 124.655 231.978 118.031C225.434 111.407 222.203 103.327 222.203 93.8931C222.203 84.5492 225.434 76.5601 231.978 69.9361C238.522 63.312 246.591 60 256.025 60C265.289 60 273.358 63.312 280.073 69.9361C283.307 73.0216 285.868 76.7427 287.595 80.8655C289.322 84.9882 290.178 89.4237 290.109 93.8931C290.109 103.327 286.797 111.397 280.073 118.031C273.358 124.655 265.289 127.967 256.025 127.967H256.035ZM409.402 461.077C401.253 468.203 382.976 474.164 354.603 479.002C326.22 483.759 293.502 486.228 256.537 486.228C218.901 486.228 185.75 483.679 157.196 478.751C128.653 473.733 110.627 467.53 103.16 460.053L118.877 400.316L111.912 361.224L89.9824 323.156L68.8255 168.333L80.9696 163.576L149.218 278.544L150.743 141.647L167.654 138.676L219.663 276.336L247.525 128.228H264.787L292.648 275.824L344.155 138.686L361.318 141.657L362.853 278.554L431.342 163.335L442.984 168.765L422.329 322.915L400.149 360.983L393.184 400.577L409.402 461.077ZM151.506 140.382C141.991 140.382 133.922 137.15 127.288 130.606C120.664 124.063 117.352 115.993 117.352 106.559C117.352 97.2955 120.664 89.3064 127.288 82.6723C133.912 76.0382 141.991 72.7363 151.506 72.7363C160.769 72.7363 168.758 76.0483 175.393 82.6723C182.027 89.2964 185.329 97.2955 185.329 106.559C185.329 115.993 182.017 124.063 175.393 130.606C172.28 133.768 168.558 136.264 164.452 137.944C160.346 139.624 155.942 140.454 151.506 140.382V140.382ZM360.545 140.382C351.111 140.382 343.122 137.15 336.588 130.606C330.044 124.063 326.732 115.993 326.732 106.559C326.732 97.2955 330.044 89.3064 336.588 82.6723C343.132 76.0382 351.111 72.7363 360.545 72.7363C370.06 72.7363 378.139 76.0483 384.763 82.6723C391.387 89.2964 394.699 97.2955 394.699 106.559C394.699 115.993 391.387 124.063 384.763 130.606C378.139 137.15 370.06 140.382 360.545 140.382ZM59.8228 167.822C50.3886 167.822 42.3996 164.51 35.8558 157.966C29.312 151.422 26 143.433 26 133.918C26 124.655 29.312 116.666 35.8558 109.951C42.3996 103.157 50.3886 99.8447 59.8228 99.8447C69.3374 99.8447 77.3264 103.157 84.0408 109.951C90.6649 116.676 93.9769 124.655 93.9769 133.918C93.9769 143.433 90.6649 151.422 84.0408 157.966C80.8761 161.155 77.0996 163.672 72.9379 165.366C68.7763 167.06 64.3153 167.895 59.8228 167.822ZM452.66 167.822C443.225 167.822 435.156 164.51 428.532 157.966C421.908 151.422 418.586 143.433 418.586 133.918C418.586 124.655 421.898 116.666 428.522 109.951C435.146 103.157 443.225 99.8447 452.66 99.8447C462.003 99.8447 469.993 103.157 476.627 109.951C483.251 116.676 486.563 124.655 486.563 133.918C486.563 143.433 483.251 151.422 476.627 157.966C473.506 161.145 469.773 163.657 465.654 165.351C461.534 167.045 457.113 167.886 452.66 167.822Z" fill="#1F1A17"/>
<path fill-rule="evenodd" clip-rule="evenodd" d="M378.982 378.657C348.471 370.227 307.773 365.991 257.039 365.991C205.893 365.991 164.764 370.317 133.58 378.898L137.314 404.06C168.668 395.9 208.522 391.815 257.049 391.815C305.314 391.815 344.657 395.81 374.997 403.799L378.982 378.657ZM396.405 334.126C382.635 329.107 363.264 325.033 338.284 321.801C313.293 318.569 285.763 316.953 255.513 316.953C225.946 316.953 198.928 318.489 174.368 321.55C149.809 324.601 130.429 328.596 116.328 333.614L128.823 356.216C142.754 352.141 160.849 349.16 183.12 347.283C205.301 345.507 229.599 344.574 256.025 344.574C282.451 344.574 306.84 345.507 329.191 347.283C351.622 349.16 369.808 352.221 383.749 356.467L396.405 334.126ZM385.445 453.088L378.048 423.681C345.671 416.294 304.973 412.55 256.025 412.55C207.589 412.55 167.062 416.294 134.514 423.691L126.605 453.339C158.139 443.744 201.306 438.886 256.276 438.886C282.622 438.886 307.181 440.251 329.703 442.891C352.305 445.52 370.912 448.923 385.445 453.088Z" fill="#EEEEEE"/>
</svg>
