<svg width="32" height="32" viewBox="0 0 32 32" fill="none" xmlns="http://www.w3.org/2000/svg">
<path fill-rule="evenodd" clip-rule="evenodd" d="M16.3772 7.24793C15.7876 7.24793 15.2826 7.04093 14.8736 6.62692C14.4646 6.21292 14.2627 5.70796 14.2627 5.11832C14.2627 4.53432 14.4646 4.03501 14.8736 3.62101C15.2826 3.207 15.7869 3 16.3766 3C16.9556 3 17.4599 3.207 17.8795 3.62101C18.0817 3.81385 18.2418 4.04642 18.3497 4.30409C18.4577 4.56177 18.5111 4.83898 18.5068 5.11832C18.5068 5.70796 18.2998 6.21229 17.8795 6.62692C17.4599 7.04093 16.9556 7.24793 16.3766 7.24793H16.3772ZM25.9627 28.0673C25.4533 28.5127 24.311 28.8853 22.5377 29.1876C20.7638 29.4849 18.7188 29.6393 16.4086 29.6393C14.0563 29.6393 11.9844 29.4799 10.1998 29.1719C8.4158 28.8583 7.28921 28.4706 6.82252 28.0033L7.80483 24.2698L7.3695 21.8265L5.9989 19.4472L4.6766 9.77084L5.4356 9.47351L9.70109 16.659L9.79644 8.10291L10.8534 7.91723L14.104 16.521L15.8453 7.26424H16.9242L18.6655 16.489L21.8847 7.91786L22.9574 8.10354L23.0533 16.6596L27.3339 9.45846L28.0615 9.79781L26.7706 19.4322L25.3843 21.8114L24.949 24.2861L25.9627 28.0673ZM9.84411 8.02387C9.24945 8.02387 8.74512 7.82189 8.33049 7.4129C7.91649 7.00392 7.70949 6.49959 7.70949 5.90994C7.70949 5.33097 7.91649 4.83165 8.33049 4.41702C8.74449 4.00239 9.24945 3.79602 9.84411 3.79602C10.4231 3.79602 10.9224 4.00302 11.337 4.41702C11.7517 4.83103 11.958 5.33097 11.958 5.90994C11.958 6.49959 11.751 7.00392 11.337 7.4129C11.1425 7.61047 10.9099 7.76649 10.6532 7.87151C10.3966 7.97653 10.1214 8.02836 9.84411 8.02387ZM22.9091 8.02387C22.3194 8.02387 21.8201 7.82189 21.4118 7.4129C21.0028 7.00392 20.7958 6.49959 20.7958 5.90994C20.7958 5.33097 21.0028 4.83165 21.4118 4.41702C21.8207 4.00239 22.3194 3.79602 22.9091 3.79602C23.5037 3.79602 24.0087 4.00302 24.4227 4.41702C24.8367 4.83103 25.0437 5.33097 25.0437 5.90994C25.0437 6.49959 24.8367 7.00392 24.4227 7.4129C24.0087 7.82189 23.5037 8.02387 22.9091 8.02387ZM4.11393 9.73885C3.52429 9.73885 3.02497 9.53185 2.61599 9.12286C2.207 8.71388 2 8.21456 2 7.6199C2 7.04093 2.207 6.54161 2.61599 6.12196C3.02497 5.6973 3.52429 5.49029 4.11393 5.49029C4.70859 5.49029 5.2079 5.6973 5.62755 6.12196C6.04155 6.54224 6.24856 7.04093 6.24856 7.6199C6.24856 8.21456 6.04155 8.71388 5.62755 9.12286C5.42976 9.3222 5.19372 9.47952 4.93362 9.58537C4.67352 9.69122 4.39471 9.74343 4.11393 9.73885ZM28.6662 9.73885C28.0766 9.73885 27.5723 9.53185 27.1582 9.12286C26.7442 8.71388 26.5366 8.21456 26.5366 7.6199C26.5366 7.04093 26.7436 6.54161 27.1576 6.12196C27.5716 5.6973 28.0766 5.49029 28.6662 5.49029C29.2502 5.49029 29.7495 5.6973 30.1642 6.12196C30.5782 6.54224 30.7852 7.04093 30.7852 7.6199C30.7852 8.21456 30.5782 8.71388 30.1642 9.12286C29.9691 9.32154 29.7358 9.47857 29.4784 9.58445C29.2209 9.69033 28.9446 9.74286 28.6662 9.73885Z" fill="#1F1A17"/>
<path fill-rule="evenodd" clip-rule="evenodd" d="M24.0614 22.9161C22.1545 22.3892 19.6108 22.1245 16.4399 22.1245C13.2433 22.1245 10.6728 22.3948 8.7238 22.9311L8.95715 24.5037C10.9168 23.9938 13.4077 23.7384 16.4406 23.7384C19.4572 23.7384 21.9161 23.9881 23.8123 24.4874L24.0614 22.9161ZM25.1503 20.1329C24.2897 19.8192 23.0791 19.5645 21.5178 19.3626C19.9558 19.1606 18.2352 19.0596 16.3446 19.0596C14.4966 19.0596 12.808 19.1556 11.2731 19.3469C9.73811 19.5376 8.52683 19.7872 7.64551 20.1009L8.42647 21.5135C9.29713 21.2588 10.4281 21.0725 11.82 20.9552C13.2063 20.8442 14.725 20.7858 16.3766 20.7858C18.0282 20.7858 19.5525 20.8442 20.9494 20.9552C22.3514 21.0725 23.488 21.2638 24.3593 21.5292L25.1503 20.1329ZM24.4653 27.568L24.003 25.7301C21.9794 25.2684 19.4358 25.0344 16.3766 25.0344C13.3493 25.0344 10.8164 25.2684 8.78214 25.7307L8.28784 27.5837C10.2587 26.984 12.9567 26.6804 16.3923 26.6804C18.0389 26.6804 19.5738 26.7657 20.9814 26.9307C22.3941 27.095 23.557 27.3077 24.4653 27.568Z" fill="#EEEEEE"/>
</svg>
