<svg width="512" height="512" viewBox="0 0 512 512" fill="none" xmlns="http://www.w3.org/2000/svg">
<path d="M256.562 94.5399C155.456 94.5399 73.2019 174.738 73.2019 273.31C73.2019 316.56 76.2601 365.633 112.758 400.684C126.73 414.102 148.068 421.767 165.212 427.928C167.396 428.713 169.498 429.47 171.479 430.201C172.524 430.587 172.999 430.762 174.325 438.536C175.746 446.864 177.691 458.268 188.139 468.454C191.937 472.154 203.491 483.422 257.111 484H257.249H257.386C311.006 483.422 322.561 472.157 326.359 468.454C336.804 458.267 338.752 446.864 340.173 438.536C341.499 430.762 341.977 430.587 343.022 430.201C345.003 429.47 347.101 428.716 349.285 427.928C366.43 421.767 387.768 414.102 401.736 400.684C438.238 365.636 441.296 316.558 441.296 273.31C441.289 174.735 358.42 94.5399 256.561 94.5399H256.562Z" fill="#1F1A17"/>
<path d="M180.5 314.356C157.987 314.356 144 325.519 144 343.488C144 363.634 160.716 380.654 180.5 380.654C201.307 380.654 217 366.402 217 347.504C217 328.607 201.308 314.357 180.5 314.357V314.356Z" fill="#EEEEEE"/>
<path d="M332.5 314.357C311.693 314.357 296 328.608 296 347.504C296 366.403 311.692 380.654 332.5 380.654C352.283 380.654 369 363.632 369 343.488C369 325.519 355.014 314.356 332.5 314.356V314.357Z" fill="#EEEEEE"/>
<path d="M267.74 374.101C266.41 369.711 262.201 366.793 257.51 367.016C252.84 367.25 248.941 370.584 248.071 375.084L241.178 410.808C240.14 416.194 243.753 421.385 249.252 422.401C253.664 423.215 257.939 421.103 259.999 417.46C261.783 420.623 265.206 422.577 268.862 422.577C269.816 422.577 270.79 422.443 271.75 422.162C277.115 420.602 280.173 415.077 278.577 409.823L267.74 374.101Z" fill="#EEEEEE"/>
<path d="M257 251C155.38 251 73 259.73 73 270.5C71.4072 248.836 66.1991 206.003 56.6684 176.99C50.3277 176.83 44.438 174.855 39.5 171.564C38.5695 170.944 37.6727 170.277 36.8131 169.567C29.5981 163.606 25 154.59 25 144.5C25 138.13 26.8329 132.187 30 127.172C33.4586 121.694 38.5084 117.322 44.5 114.704C48.481 112.965 52.8778 112 57.5 112C75.4493 112 90 126.551 90 144.5C90 150.29 88.4858 155.727 85.8318 160.435C120.348 219.072 163.133 229.06 138.823 110.535C125.6 106.416 116 94.0791 116 79.5C116 63.7768 127.165 50.6614 142 47.6501C144.1 47.2238 146.274 47 148.5 47C166.449 47 181 61.5507 181 79.5C181 87.1905 178.329 94.2572 173.864 99.8227C199.003 170.391 236.884 235.527 240.258 77.6566C230.539 72.0383 224 61.5328 224 49.5C224 31.5507 237.551 17 255.5 17C273.449 17 289 31.5507 289 49.5C289 61.3328 282.676 71.6886 273.224 77.3724C276.51 237.996 315.191 172.193 340.891 100.73C335.974 95.0346 333 87.6146 333 79.5C333 61.5507 347.551 47 365.5 47C383.449 47 398 61.5507 398 79.5C398 94.1114 388.358 106.471 375.089 110.562C345.327 223.33 389.333 215.691 425.728 159.628C423.347 155.109 422 149.962 422 144.5C422 126.551 436.551 112 454.5 112C459.122 112 463.519 112.965 467.5 114.704C473.492 117.322 478.541 121.694 482 127.172C485.167 132.187 487 138.13 487 144.5C487 155.792 481.241 165.739 472.5 171.564C467.601 174.829 461.765 176.799 455.482 176.985C446.317 205.999 442.062 248.835 441 270.5C441 259.73 358.62 251 257 251Z" fill="#1F1A17"/>
<path d="M257 66C266.389 66 274 58.3888 274 49C274 39.6112 266.389 32 257 32C247.611 32 240 39.6112 240 49C240 58.3888 247.611 66 257 66Z" fill="#EEEEEE"/>
<path d="M58 161C67.3888 161 75 153.389 75 144C75 134.611 67.3888 127 58 127C48.6112 127 41 134.611 41 144C41 153.389 48.6112 161 58 161Z" fill="#EEEEEE"/>
<path d="M149 96C158.389 96 166 88.3888 166 79C166 69.6112 158.389 62 149 62C139.611 62 132 69.6112 132 79C132 88.3888 139.611 96 149 96Z" fill="#EEEEEE"/>
<path d="M437.407 174.535C431.081 195.818 427.165 222.515 424.988 244.094C415.217 242.047 402.956 240.29 389.005 238.812C354.9 235.197 308.237 233 257 233C205.763 233 159.1 235.197 124.995 238.812C110.779 240.318 98.3187 242.114 88.4586 244.211C85.9953 224.059 81.9533 199.344 76.0424 178.776C83.711 190.456 91.9628 200.44 100.325 207.664C105.552 212.18 111.515 216.222 118.042 218.588C124.698 221.001 133.001 221.999 141.311 218.536C149.633 215.068 154.969 208.375 158.182 201.418C161.33 194.602 162.942 186.565 163.6 177.951C164.918 160.708 164.216 140.641 158 110.336C164.423 128.367 170.74 142.086 178.44 156.715C182.279 164.007 186.43 170.879 190.846 176.53C194.934 181.762 200.724 187.898 208.365 191.047C212.536 192.766 217.618 193.733 223.14 192.746C228.68 191.755 233.223 189.054 236.712 185.781C243.099 179.789 246.783 171.141 249.261 162.734C252.717 151.011 255.208 122.505 256.728 101C258.252 123.03 260.781 151.916 264.298 163.903C266.812 172.473 270.529 181.193 276.913 187.25C280.391 190.549 284.916 193.29 290.446 194.342C295.97 195.393 301.088 194.492 305.325 192.801C313.088 189.703 318.991 183.544 323.167 178.268C327.673 172.575 331.911 165.637 335.83 158.269C343.188 144.435 350.291 127.425 356.553 110.336C349.731 137.154 346.769 158.353 347.339 174.328C347.877 189.417 352.003 207.727 368.382 214.896C376.439 218.423 384.609 217.734 391.254 215.648C397.809 213.591 403.91 209.899 409.338 205.671C418.961 198.175 428.561 187.347 437.407 174.535Z" fill="#EEEEEE"/>
<path d="M366 96C375.389 96 383 88.3888 383 79C383 69.6112 375.389 62 366 62C356.611 62 349 69.6112 349 79C349 88.3888 356.611 96 366 96Z" fill="#EEEEEE"/>
<path d="M455 161C464.389 161 472 153.389 472 144C472 134.611 464.389 127 455 127C445.611 127 438 134.611 438 144C438 153.389 445.611 161 455 161Z" fill="#EEEEEE"/>
</svg>
