<svg width="512" height="512" viewBox="0 0 512 512" fill="none" xmlns="http://www.w3.org/2000/svg">
<path d="M256.562 94.5399C155.456 94.5399 73.2019 176.797 73.2019 277.9C73.2019 322.261 76.26 372.594 112.758 408.545C126.73 422.307 148.068 430.169 165.212 436.488C167.396 437.293 169.498 438.069 171.479 438.819C172.524 439.215 172.999 439.396 174.325 447.368C175.746 455.911 177.691 467.607 188.139 478.055C191.937 481.849 203.491 493.407 257.111 494H257.249H257.386C311.006 493.407 322.561 481.853 326.359 478.055C336.804 467.606 338.752 455.911 340.173 447.368C341.499 439.395 341.977 439.215 343.022 438.819C345.003 438.069 347.101 437.297 349.285 436.488C366.43 430.169 387.768 422.307 401.736 408.545C438.238 372.596 441.296 322.259 441.296 277.9C441.289 176.794 358.42 94.5399 256.561 94.5399H256.562Z" fill="#1F1A17"/>
<path d="M388.395 394.037C377.827 404.433 358.549 411.53 343.053 417.234C340.706 418.097 338.451 418.926 336.328 419.732C320.927 425.558 318.639 439.301 317.125 448.396C315.975 455.306 314.982 461.276 309.951 466.297C309.077 467.17 300.162 474.824 256.334 475.324C212.505 474.821 203.59 467.17 202.716 466.297C197.689 461.275 196.695 455.306 195.542 448.396C194.029 439.301 191.74 425.558 176.339 419.732C174.213 418.926 171.958 418.097 169.611 417.234C154.118 411.53 134.836 404.433 124.268 394.037C96.4357 366.654 90.8404 328.863 90.8404 276.769C90.8404 186.011 164.757 112.178 255.617 112.178C347.261 112.178 421.822 186.012 421.822 276.769C421.825 328.865 416.23 366.657 388.397 394.037H388.395Z" fill="white"/>
<path d="M181.391 312.843C154.689 312.843 138.101 326.588 138.101 348.713C138.101 373.519 157.927 394.475 181.391 394.475C206.069 394.475 224.681 376.927 224.681 353.658C224.681 330.39 206.07 312.844 181.391 312.844V312.843Z" fill="#1F1A17"/>
<path d="M333.108 312.843C308.43 312.843 289.819 330.39 289.819 353.657C289.819 376.927 308.43 394.474 333.108 394.474C356.572 394.474 376.398 373.515 376.398 348.712C376.398 326.587 359.811 312.842 333.108 312.842V312.843Z" fill="#1F1A17"/>
<path d="M269.102 376.724C267.478 371.252 262.341 367.615 256.614 367.893C250.914 368.185 246.153 372.34 245.092 377.948L236.677 422.475C235.41 429.188 239.821 435.658 246.533 436.925C251.919 437.94 257.138 435.307 259.653 430.766C261.83 434.708 266.008 437.144 270.471 437.144C271.636 437.144 272.825 436.977 273.997 436.627C280.546 434.682 284.279 427.796 282.33 421.247L269.102 376.724Z" fill="#1F1A17"/>
<path d="M257 251C155.38 251 73 259.73 73 270.5C71.4072 248.836 66.1991 206.003 56.6684 176.99C50.3277 176.83 44.438 174.855 39.5 171.564C38.5695 170.944 37.6727 170.277 36.8131 169.567C29.5981 163.606 25 154.59 25 144.5C25 138.13 26.8329 132.187 30 127.172C33.4586 121.694 38.5084 117.322 44.5 114.704C48.481 112.965 52.8778 112 57.5 112C75.4493 112 90 126.551 90 144.5C90 150.29 88.4858 155.727 85.8318 160.435C120.348 219.072 163.133 229.06 138.823 110.535C125.6 106.416 116 94.0791 116 79.5C116 63.7768 127.165 50.6614 142 47.6501C144.1 47.2238 146.274 47 148.5 47C166.449 47 181 61.5507 181 79.5C181 87.1905 178.329 94.2572 173.864 99.8227C199.003 170.391 236.884 235.527 240.258 77.6566C230.539 72.0383 224 61.5328 224 49.5C224 31.5507 237.551 17 255.5 17C273.449 17 289 31.5507 289 49.5C289 61.3328 282.676 71.6886 273.224 77.3724C276.51 237.996 315.191 172.193 340.891 100.73C335.974 95.0346 333 87.6146 333 79.5C333 61.5507 347.551 47 365.5 47C383.449 47 398 61.5507 398 79.5C398 94.1114 388.358 106.471 375.089 110.562C345.327 223.33 389.333 215.691 425.728 159.628C423.347 155.109 422 149.962 422 144.5C422 126.551 436.551 112 454.5 112C459.122 112 463.519 112.965 467.5 114.704C473.492 117.322 478.541 121.694 482 127.172C485.167 132.187 487 138.13 487 144.5C487 155.792 481.241 165.739 472.5 171.564C467.601 174.829 461.765 176.799 455.482 176.985C446.317 205.999 442.062 248.835 441 270.5C441 259.73 358.62 251 257 251Z" fill="#1F1A17"/>
<path d="M257 66C266.389 66 274 58.3888 274 49C274 39.6112 266.389 32 257 32C247.611 32 240 39.6112 240 49C240 58.3888 247.611 66 257 66Z" fill="white"/>
<path d="M166 79C166 88.3888 158.389 96 149 96C139.611 96 132 88.3888 132 79C132 69.6112 139.611 62 149 62C158.389 62 166 69.6112 166 79Z" fill="white"/>
<path d="M75 144C75 153.389 67.3888 161 58 161C48.6112 161 41 153.389 41 144C41 134.611 48.6112 127 58 127C67.3888 127 75 134.611 75 144Z" fill="white"/>
<path d="M383 79C383 88.3888 375.389 96 366 96C356.611 96 349 88.3888 349 79C349 69.6112 356.611 62 366 62C375.389 62 383 69.6112 383 79Z" fill="white"/>
<path d="M472 144C472 153.389 464.389 161 455 161C445.611 161 438 153.389 438 144C438 134.611 445.611 127 455 127C464.389 127 472 134.611 472 144Z" fill="white"/>
<path d="M424.988 244.094C427.165 222.515 431.081 195.818 437.407 174.535C428.561 187.347 418.961 198.175 409.338 205.671C403.91 209.899 397.809 213.591 391.254 215.648C384.609 217.734 376.439 218.423 368.382 214.896C352.003 207.727 347.877 189.417 347.339 174.328C346.769 158.353 349.731 137.154 356.553 110.336C350.291 127.425 343.188 144.435 335.83 158.269C331.911 165.637 327.673 172.575 323.167 178.268C318.991 183.544 313.088 189.703 305.325 192.801C301.088 194.492 295.97 195.393 290.446 194.342C284.916 193.29 280.391 190.549 276.913 187.25C270.529 181.193 266.812 172.473 264.298 163.903C260.781 151.916 258.252 123.03 256.728 101C255.208 122.505 252.717 151.011 249.261 162.734C246.783 171.141 243.099 179.789 236.712 185.781C233.223 189.054 228.68 191.755 223.14 192.746C217.618 193.733 212.536 192.766 208.365 191.047C200.724 187.898 194.934 181.762 190.846 176.53C186.43 170.879 182.279 164.007 178.44 156.715C170.74 142.086 164.423 128.367 158 110.336C164.216 140.641 164.918 160.708 163.6 177.951C162.942 186.565 161.33 194.602 158.182 201.418C154.969 208.375 149.633 215.068 141.311 218.536C133.001 221.999 124.698 221.001 118.042 218.588C111.515 216.222 105.552 212.18 100.325 207.664C91.9628 200.44 83.711 190.456 76.0424 178.776C81.9533 199.344 85.9953 224.059 88.4586 244.211C98.3187 242.114 110.779 240.318 124.995 238.812C159.1 235.197 205.763 233 257 233C308.237 233 354.9 235.197 389.005 238.812C402.956 240.29 415.217 242.047 424.988 244.094Z" fill="white"/>
</svg>
