<svg width="512" height="512" viewBox="0 0 512 512" fill="none" xmlns="http://www.w3.org/2000/svg">
<path fill-rule="evenodd" clip-rule="evenodd" d="M452.66 167.822C443.225 167.822 435.156 164.51 428.532 157.966C421.908 151.422 418.586 143.433 418.586 133.918C418.586 124.655 421.898 116.666 428.522 109.951C435.146 103.157 443.225 99.8447 452.66 99.8447C462.003 99.8447 469.993 103.157 476.627 109.951C483.251 116.676 486.563 124.655 486.563 133.918C486.563 143.433 483.251 151.422 476.627 157.966C473.506 161.145 469.773 163.657 465.654 165.351C461.534 167.045 457.113 167.886 452.66 167.822ZM409.402 461.077C401.253 468.203 382.976 474.164 354.603 479.002C326.22 483.759 293.502 486.228 256.537 486.228C218.901 486.228 185.75 483.679 157.196 478.751C128.653 473.733 110.627 467.53 103.16 460.053L118.877 400.316L111.912 361.224L89.9824 323.156L68.8255 168.333L80.9696 163.576L149.218 278.544L150.743 141.647L167.654 138.676L219.663 276.336L247.525 128.228H264.787L292.648 275.824L344.155 138.686L361.318 141.657L362.853 278.554L431.342 163.335L442.984 168.765L422.329 322.915L400.149 360.983L393.184 400.577L409.402 461.077ZM151.506 140.372C141.991 140.372 133.922 137.15 127.288 130.606C120.664 124.063 117.352 115.993 117.352 106.559C117.352 97.2955 120.664 89.3064 127.288 82.6723C133.912 76.0382 141.991 72.7363 151.506 72.7363C160.769 72.7363 168.758 76.0483 175.393 82.6723C182.027 89.2964 185.329 97.2955 185.329 106.559C185.329 115.993 182.017 124.063 175.393 130.606C172.279 133.766 168.556 136.26 164.451 137.939C160.345 139.617 155.941 140.445 151.506 140.372V140.372ZM59.8228 167.822C50.3886 167.822 42.3996 164.51 35.8558 157.966C29.312 151.422 26 143.433 26 133.918C26 124.655 29.312 116.666 35.8558 109.951C42.3996 103.157 50.3886 99.8447 59.8228 99.8447C69.3374 99.8447 77.3264 103.157 84.0408 109.951C90.6649 116.676 93.9769 124.655 93.9769 133.918C93.9769 143.433 90.6649 151.422 84.0408 157.966C80.8761 161.155 77.0996 163.672 72.9379 165.366C68.7763 167.06 64.3153 167.895 59.8228 167.822ZM256.035 127.977C246.601 127.977 238.522 124.665 231.978 118.031C225.434 111.407 222.203 103.327 222.203 93.8931C222.203 84.5492 225.434 76.5601 231.978 69.9361C238.522 63.312 246.591 60 256.025 60C265.289 60 273.358 63.312 280.073 69.9361C283.307 73.0216 285.868 76.7427 287.595 80.8655C289.322 84.9882 290.178 89.4237 290.109 93.8931C290.109 103.327 286.797 111.397 280.073 118.031C273.358 124.655 265.289 127.967 256.025 127.967L256.035 127.977ZM360.545 140.372C351.111 140.372 343.122 137.15 336.588 130.606C330.044 124.063 326.722 115.993 326.722 106.559C326.722 97.2955 330.034 89.3064 336.588 82.6723C343.142 76.0382 351.111 72.7363 360.545 72.7363C370.06 72.7363 378.139 76.0483 384.763 82.6723C391.387 89.2964 394.699 97.2955 394.699 106.559C394.699 115.993 391.387 124.063 384.763 130.606C378.139 137.15 370.06 140.372 360.545 140.372V140.372Z" fill="#1F1A17" stroke="#1F1A17" stroke-width="0.076"/>
<path fill-rule="evenodd" clip-rule="evenodd" d="M389.188 452.064C358.848 439.488 314.748 433.195 257.049 433.195C198.074 433.195 153.543 439.659 123.293 452.576C152.358 464.048 196.719 469.738 256.276 469.738C284.829 469.738 310.924 468.213 334.54 465.071C358.256 461.92 376.442 457.594 389.188 452.064V452.064ZM256.025 110.554C267.165 110.554 272.685 104.933 272.685 93.8932C272.685 82.9334 267.165 77.4133 256.025 77.4133C245.065 77.4133 239.625 82.9334 239.625 93.8932C239.625 104.933 245.065 110.554 256.025 110.554ZM382.725 361.224C350.689 353.074 308.796 349.08 257.049 349.08C203.936 349.08 161.532 353.155 129.837 361.485L133.58 385.362C165.867 377.714 207.077 373.89 257.049 373.89C306.669 373.89 347.126 377.624 378.48 385.101L382.725 361.224ZM388.928 346.27L405.156 317.636C397.412 320.786 389.129 322.402 380.768 322.393C358.507 322.393 340.753 313.39 327.494 295.295C317.558 303.525 306.418 307.69 294.093 307.69C278.205 307.69 265.459 301.487 256.025 289.002C245.406 300.644 232.74 306.505 217.957 306.505C205.973 306.505 195.013 302.431 185.077 294.261C171.136 312.025 153.121 320.857 131.031 320.857C122.433 320.842 113.91 319.26 105.88 316.191L123.293 346.019C155.51 336.755 199.77 332.078 256.025 332.078C313.303 332.078 357.574 336.835 388.928 346.27V346.27ZM277.443 286.794L256.286 165.022L235.119 285.349C235.631 285.007 236.735 284.154 238.612 282.799C242.425 275.322 248.206 271.579 256.025 271.579C264.526 271.579 269.965 275.322 272.424 282.799C273.448 283.813 275.144 285.178 277.443 286.794V286.794ZM346.353 291.551V176.222L305.304 289.243C308.455 288.139 311.095 286.613 313.303 284.827C316.615 280.661 321.121 278.534 326.732 278.534C333.356 278.534 338.705 281.515 342.7 287.286C343.131 287.968 343.723 288.65 344.406 289.413C345.078 290.176 345.761 290.859 346.353 291.541V291.551ZM206.485 288.068L165.707 176.242V290.015C166.138 289.343 166.901 288.57 167.915 287.557C171.227 280.591 176.667 277.099 184.314 277.099C190.607 277.099 195.786 279.738 199.781 285.088C204.287 287.045 206.505 288.068 206.505 288.068H206.485ZM143.255 301.999L89.7309 209.644L103.411 293.769C112.845 300.393 122.108 303.705 131.031 303.705C134.513 303.705 138.588 303.113 143.265 302.009L143.255 301.999ZM368.022 303.193C371.845 304.378 376.101 304.98 380.768 304.98C390.885 304.98 400.319 301.828 409.151 295.546L422.831 209.383L368.022 303.193ZM382.976 429.211L375.499 401.079C342.961 393.953 303.186 390.38 256.025 390.38C209.375 390.38 169.611 393.943 136.812 401.079L129.074 429.462C159.916 420.118 202.32 415.531 256.286 415.531C308.877 415.531 351.11 420.028 382.976 429.211V429.211ZM151.505 122.959C162.385 122.959 167.905 117.519 167.905 106.559C167.905 95.5994 162.385 90.1596 151.505 90.1596C140.375 90.1596 134.764 95.5994 134.764 106.559C134.764 117.519 140.385 122.959 151.505 122.959ZM360.544 122.959C371.685 122.959 377.285 117.519 377.285 106.559C377.285 95.5994 371.675 90.1596 360.544 90.1596C349.675 90.1596 344.145 95.5994 344.145 106.559C344.145 117.519 349.665 122.959 360.544 122.959ZM59.8222 150.408C70.9527 150.408 76.563 144.888 76.563 133.919C76.563 122.778 70.9426 117.258 59.8222 117.258C48.9427 117.258 43.4227 122.778 43.4227 133.919C43.4227 144.878 48.9427 150.408 59.8222 150.408ZM452.659 150.408C463.619 150.408 469.149 144.888 469.149 133.919C469.149 122.778 463.629 117.258 452.659 117.258C441.619 117.258 435.998 122.778 435.998 133.919C435.998 144.878 441.619 150.408 452.659 150.408Z" fill="white" stroke="#1F1A17" stroke-width="0.076"/>
</svg>
