<svg width="32" height="32" viewBox="0 0 32 32" fill="none" xmlns="http://www.w3.org/2000/svg">
<path fill-rule="evenodd" clip-rule="evenodd" d="M28.6662 9.73885C28.0766 9.73885 27.5723 9.53185 27.1582 9.12286C26.7442 8.71388 26.5366 8.21456 26.5366 7.6199C26.5366 7.04093 26.7436 6.54161 27.1576 6.12196C27.5716 5.6973 28.0766 5.49029 28.6662 5.49029C29.2502 5.49029 29.7495 5.6973 30.1642 6.12196C30.5782 6.54224 30.7852 7.04093 30.7852 7.6199C30.7852 8.21456 30.5782 8.71388 30.1642 9.12286C29.9691 9.32154 29.7358 9.47857 29.4784 9.58445C29.2209 9.69033 28.9446 9.74286 28.6662 9.73885ZM25.9627 28.0673C25.4533 28.5127 24.311 28.8853 22.5377 29.1876C20.7638 29.4849 18.7188 29.6393 16.4086 29.6393C14.0563 29.6393 11.9844 29.4799 10.1998 29.1719C8.4158 28.8583 7.28921 28.4706 6.82252 28.0033L7.80483 24.2698L7.3695 21.8265L5.9989 19.4472L4.6766 9.77084L5.4356 9.47351L9.70109 16.659L9.79644 8.10291L10.8534 7.91723L14.104 16.521L15.8453 7.26424H16.9242L18.6655 16.489L21.8847 7.91786L22.9574 8.10354L23.0533 16.6596L27.3339 9.45846L28.0615 9.79781L26.7706 19.4322L25.3843 21.8114L24.949 24.2861L25.9627 28.0673ZM9.84411 8.02324C9.24945 8.02324 8.74512 7.82189 8.33049 7.4129C7.91649 7.00392 7.70949 6.49959 7.70949 5.90994C7.70949 5.33097 7.91649 4.83165 8.33049 4.41702C8.74449 4.00239 9.24945 3.79602 9.84411 3.79602C10.4231 3.79602 10.9224 4.00302 11.337 4.41702C11.7517 4.83103 11.958 5.33097 11.958 5.90994C11.958 6.49959 11.751 7.00392 11.337 7.4129C11.1424 7.61036 10.9098 7.76626 10.6532 7.87117C10.3965 7.97608 10.1213 8.02782 9.84411 8.02324ZM4.11393 9.73885C3.52429 9.73885 3.02497 9.53185 2.61599 9.12286C2.207 8.71388 2 8.21456 2 7.6199C2 7.04093 2.207 6.54161 2.61599 6.12196C3.02497 5.6973 3.52429 5.49029 4.11393 5.49029C4.70859 5.49029 5.2079 5.6973 5.62755 6.12196C6.04155 6.54224 6.24856 7.04093 6.24856 7.6199C6.24856 8.21456 6.04155 8.71388 5.62755 9.12286C5.42976 9.3222 5.19372 9.47952 4.93362 9.58537C4.67352 9.69122 4.39471 9.74343 4.11393 9.73885ZM16.3772 7.24856C15.7876 7.24856 15.2826 7.04155 14.8736 6.62692C14.4646 6.21292 14.2627 5.70796 14.2627 5.11832C14.2627 4.53432 14.4646 4.03501 14.8736 3.62101C15.2826 3.207 15.7869 3 16.3766 3C16.9556 3 17.4599 3.207 17.8795 3.62101C18.0817 3.81385 18.2418 4.04642 18.3497 4.30409C18.4577 4.56177 18.5111 4.83898 18.5068 5.11832C18.5068 5.70796 18.2998 6.21229 17.8795 6.62692C17.4599 7.04093 16.9556 7.24793 16.3766 7.24793L16.3772 7.24856ZM22.9091 8.02324C22.3194 8.02324 21.8201 7.82189 21.4118 7.4129C21.0028 7.00392 20.7951 6.49959 20.7951 5.90994C20.7951 5.33097 21.0021 4.83165 21.4118 4.41702C21.8214 4.00239 22.3194 3.79602 22.9091 3.79602C23.5037 3.79602 24.0087 4.00302 24.4227 4.41702C24.8367 4.83103 25.0437 5.33097 25.0437 5.90994C25.0437 6.49959 24.8367 7.00392 24.4227 7.4129C24.0087 7.82189 23.5037 8.02324 22.9091 8.02324Z" fill="#1F1A17" stroke="#1F1A17" stroke-width="0.076"/>
<path fill-rule="evenodd" clip-rule="evenodd" d="M24.6993 27.504C22.803 26.718 20.0468 26.3247 16.4405 26.3247C12.7547 26.3247 9.97142 26.7287 8.08081 27.536C9.89741 28.253 12.67 28.6086 16.3922 28.6086C18.1768 28.6086 19.8078 28.5133 21.2838 28.317C22.766 28.12 23.9026 27.8496 24.6993 27.504ZM16.3766 6.15961C17.0728 6.15961 17.4178 5.80833 17.4178 5.11832C17.4178 4.43334 17.0728 4.08833 16.3766 4.08833C15.6916 4.08833 15.3516 4.43334 15.3516 5.11832C15.3516 5.80833 15.6916 6.15961 16.3766 6.15961ZM24.2953 21.8265C22.2931 21.3172 19.6748 21.0675 16.4405 21.0675C13.121 21.0675 10.4707 21.3222 8.48979 21.8428L8.72377 23.3351C10.7417 22.8571 13.3173 22.6181 16.4405 22.6181C19.5418 22.6181 22.0704 22.8515 24.03 23.3188L24.2953 21.8265ZM24.683 20.8919L25.6973 19.1022C25.2132 19.2991 24.6956 19.4001 24.173 19.3996C22.7817 19.3996 21.672 18.8369 20.8434 17.7059C20.2224 18.2203 19.5261 18.4806 18.7558 18.4806C17.7628 18.4806 16.9662 18.0929 16.3766 17.3126C15.7129 18.0403 14.9213 18.4066 13.9973 18.4066C13.2483 18.4066 12.5633 18.1519 11.9423 17.6413C11.071 18.7516 9.94508 19.3036 8.56444 19.3036C8.02709 19.3026 7.49441 19.2038 6.99248 19.0119L8.08081 20.8762C10.0944 20.2972 12.8607 20.0049 16.3766 20.0049C19.9564 20.0049 22.7234 20.3022 24.683 20.8919ZM17.7152 17.1746L16.3929 9.56384L15.0699 17.0843C15.1019 17.063 15.1709 17.0096 15.2882 16.925C15.5266 16.4576 15.8879 16.2237 16.3766 16.2237C16.9079 16.2237 17.2479 16.4576 17.4015 16.925C17.4655 16.9883 17.5715 17.0736 17.7152 17.1746ZM22.0221 17.4719V10.2639L19.4565 17.3277C19.6535 17.2587 19.8184 17.1633 19.9564 17.0517C20.1634 16.7913 20.4451 16.6584 20.7957 16.6584C21.2097 16.6584 21.5441 16.8447 21.7937 17.2053C21.8207 17.248 21.8577 17.2907 21.9004 17.3383C21.9424 17.386 21.9851 17.4287 22.0221 17.4713V17.4719ZM13.2803 17.2543L10.7317 10.2651V17.376C10.7587 17.3339 10.8063 17.2856 10.8697 17.2223C11.0767 16.787 11.4167 16.5687 11.8947 16.5687C12.288 16.5687 12.6116 16.7336 12.8613 17.068C13.1429 17.1903 13.2816 17.2543 13.2816 17.2543H13.2803ZM9.32846 18.1249L5.98319 12.3527L6.83817 17.6106C7.42781 18.0246 8.00679 18.2316 8.56444 18.2316C8.7821 18.2316 9.03678 18.1946 9.32909 18.1256L9.32846 18.1249ZM23.3764 18.1996C23.6154 18.2736 23.8813 18.3112 24.173 18.3112C24.8053 18.3112 25.3949 18.1143 25.9469 17.7216L26.8019 12.3364L23.3764 18.1996ZM24.311 26.0757L23.8437 24.3174C21.81 23.8721 19.3241 23.6487 16.3766 23.6487C13.461 23.6487 10.9757 23.8714 8.92575 24.3174L8.44212 26.0914C10.3697 25.5074 13.02 25.2207 16.3929 25.2207C19.6798 25.2207 22.3194 25.5017 24.311 26.0757ZM9.84409 6.93492C10.5241 6.93492 10.8691 6.59494 10.8691 5.90995C10.8691 5.22496 10.5241 4.88498 9.84409 4.88498C9.14844 4.88498 8.79779 5.22496 8.79779 5.90995C8.79779 6.59494 9.14906 6.93492 9.84409 6.93492ZM22.909 6.93492C23.6053 6.93492 23.9553 6.59494 23.9553 5.90995C23.9553 5.22496 23.6047 4.88498 22.909 4.88498C22.2297 4.88498 21.8841 5.22496 21.8841 5.90995C21.8841 6.59494 22.2291 6.93492 22.909 6.93492ZM4.1139 8.65053C4.80955 8.65053 5.1602 8.30552 5.1602 7.61991C5.1602 6.92363 4.80892 6.57863 4.1139 6.57863C3.43393 6.57863 3.08893 6.92363 3.08893 7.61991C3.08893 8.3049 3.43393 8.65053 4.1139 8.65053ZM28.6662 8.65053C29.3512 8.65053 29.6968 8.30552 29.6968 7.61991C29.6968 6.92363 29.3518 6.57863 28.6662 6.57863C27.9762 6.57863 27.6249 6.92363 27.6249 7.61991C27.6249 8.3049 27.9762 8.65053 28.6662 8.65053Z" fill="white" stroke="#1F1A17" stroke-width="0.076"/>
</svg>
