<svg width="32" height="32" viewBox="0 0 32 32" fill="none" xmlns="http://www.w3.org/2000/svg">
<path d="M20.4506 29.9913H6.96893C6.4338 29.9913 6 29.5575 6 29.0224V25.9693C6 25.587 6.18001 25.227 6.48589 24.9976V24.9976C6.57037 24.9342 6.57915 24.8107 6.50447 24.736L6.33506 24.5666C6.12052 24.3521 6 24.0611 6 23.7577V5.41125C6 5.0317 6.19986 4.68019 6.52602 4.48609L10.1947 2.30286C10.5278 2.10463 10.9082 2 11.2958 2H23.979C24.5736 2 25.0556 2.48201 25.0556 3.07659V25.1928C25.0556 25.5798 24.9167 25.9539 24.6641 26.247L22.0817 29.2437C21.6727 29.7184 21.0772 29.9913 20.4506 29.9913Z" fill="#1F1A17"/>
<path d="M19.9956 5.55274H8.1743C7.90827 5.55274 7.35897 5.42085 7.54406 5.22976C7.82774 4.93691 8.27077 4.79913 8.6785 4.79913H19.7827C20.2314 4.79913 20.7071 4.73691 21.0722 4.47615L22.7328 3.42673C23.0347 3.21113 23.7288 2.91955 24.0248 3.14312C24.2494 3.31269 23.7133 3.76084 23.4891 3.93092L21.9873 5.06828C21.4508 5.47538 21.3952 6.00966 21.3952 6.68316V20.3558L21.0722 20.7865L21.3952 20.8941V27.3758C21.3952 27.7511 21.2521 28.3671 20.9051 28.5102C20.6611 28.6109 20.5339 28.1755 20.5339 27.9115V20.948L20.8569 20.6788L20.5339 20.302V6.41401C20.5339 5.92955 20.2929 5.55274 19.9956 5.55274Z" fill="#EEEEEE"/>
<path d="M11.9056 17.5827C11.9445 17.7186 12.0027 17.8544 12.0803 17.9903C12.158 18.1164 12.2501 18.2377 12.3569 18.3542C12.4539 18.4609 12.5704 18.5628 12.7062 18.6599C12.8324 18.7472 12.9683 18.82 13.1138 18.8782L13.0993 24.6134C12.7305 24.5843 12.3763 24.4969 12.0367 24.3514C11.697 24.2058 11.3816 24.002 11.0905 23.74C11.2652 23.2742 11.4204 22.7696 11.5563 22.2262C11.6922 21.6827 11.7989 21.115 11.8765 20.5231C11.993 20.494 12.1143 20.4454 12.2404 20.3775C12.3569 20.3096 12.4733 20.232 12.5898 20.1446C12.551 19.9408 12.4928 19.737 12.4151 19.5333C12.3278 19.3198 12.2259 19.1111 12.1094 18.9073C12.0512 18.8006 12.0075 18.7181 11.9784 18.6599C11.9493 18.6017 11.9251 18.5531 11.9056 18.5143C11.8765 18.4658 11.8426 18.4221 11.8038 18.3833C11.7649 18.3445 11.7067 18.2911 11.6291 18.2232C11.6776 18.1844 11.7164 18.1407 11.7455 18.0922C11.7649 18.0437 11.7843 17.9951 11.8038 17.9466C11.8232 17.8884 11.8426 17.8302 11.862 17.7719C11.8717 17.7137 11.8862 17.6506 11.9056 17.5827ZM11.3816 20.494C11.2846 21.018 11.173 21.5275 11.0468 22.0224C10.9207 22.5173 10.7848 22.9831 10.6392 23.4198C10.5034 23.2839 10.3772 23.1432 10.2608 22.9977C10.1346 22.8521 10.0182 22.7017 9.91143 22.5464C9.79498 22.3814 9.68824 22.2068 9.5912 22.0224C9.49415 21.838 9.39711 21.6391 9.30007 21.4256C9.52327 21.0762 9.71735 20.6783 9.88232 20.232C10.0376 19.7856 10.1637 19.3052 10.2608 18.7909C10.5034 19.0529 10.7169 19.3295 10.9013 19.6206C11.0856 19.9117 11.2458 20.2028 11.3816 20.494ZM17.4516 15.6758C17.4516 15.7826 17.4322 15.8796 17.3934 15.967C17.3546 16.0543 17.306 16.1319 17.2478 16.1999C17.1799 16.2678 17.1071 16.3212 17.0295 16.36C16.9421 16.3891 16.8499 16.4037 16.7529 16.4037C16.782 15.802 16.8693 15.2489 17.0149 14.7442C17.1605 14.2396 17.3448 13.7884 17.568 13.3905C17.6748 13.6816 17.7767 13.9776 17.8737 14.2784C17.9708 14.5696 18.0581 14.8752 18.1357 15.1955H17.4516V15.6758ZM16.7529 17.903C16.8499 17.903 16.9421 17.9272 17.0295 17.9757C17.1071 18.0145 17.1799 18.0679 17.2478 18.1359C17.306 18.2038 17.3546 18.2814 17.3934 18.3688C17.4322 18.4561 17.4516 18.5434 17.4516 18.6308V19.1257L18.1503 19.1548C18.0824 19.4847 18.0047 19.8001 17.9174 20.101C17.8301 20.4018 17.733 20.6929 17.6263 20.9743C17.5098 20.7705 17.4031 20.5522 17.306 20.3193C17.209 20.0864 17.1265 19.8438 17.0586 19.5915C16.9809 19.3295 16.9179 19.0577 16.8693 18.7763C16.8111 18.4949 16.7723 18.2038 16.7529 17.903ZM16.3162 16.2435C16.2386 16.1756 16.1803 16.0931 16.1415 15.9961C16.093 15.8893 16.0687 15.7874 16.0687 15.6904V15.1955H15.6466V19.1257H16.0687V18.6453C16.0687 18.5386 16.093 18.4367 16.1415 18.3396C16.1803 18.2426 16.2386 18.1601 16.3162 18.0922C16.3453 18.4318 16.3938 18.7569 16.4618 19.0675C16.52 19.3683 16.5928 19.6594 16.6801 19.9408C16.7674 20.2125 16.8693 20.4697 16.9858 20.7123C17.1022 20.9549 17.2332 21.1733 17.3788 21.3673C17.2138 21.7458 17.0149 22.1097 16.782 22.4591C16.5491 22.7987 16.2919 23.119 16.0105 23.4198C15.9038 23.119 15.8067 22.8036 15.7194 22.4736C15.6224 22.1437 15.5399 21.7992 15.4719 21.4401C15.3943 21.0714 15.3312 20.6929 15.2827 20.3047C15.2245 19.9166 15.1808 19.5187 15.1517 19.1111L15.2681 19.1257V15.1955L15.1517 15.21C15.2196 14.3755 15.3312 13.5943 15.4865 12.8665C15.6321 12.129 15.8067 11.4594 16.0105 10.8577C16.2822 11.1585 16.5345 11.4885 16.7674 11.8475C17.0003 12.1969 17.2041 12.5705 17.3788 12.9684C17.2332 13.1625 17.1022 13.3808 16.9858 13.6234C16.8693 13.866 16.7674 14.128 16.6801 14.4094C16.5928 14.6812 16.52 14.9723 16.4618 15.2828C16.3938 15.5836 16.3453 15.9039 16.3162 16.2435ZM11.5417 15.1809C11.3088 15.21 11.0856 15.2731 10.8721 15.3702C10.6587 15.4575 10.4646 15.5739 10.2899 15.7195C10.2123 15.1567 10.091 14.6326 9.92599 14.1474C9.75131 13.6525 9.54268 13.2207 9.30007 12.8519C9.48445 12.454 9.69309 12.095 9.92599 11.7748C10.1492 11.4448 10.3869 11.1488 10.6392 10.8868C10.8527 11.4788 11.0371 12.1387 11.1924 12.8665C11.338 13.5846 11.4544 14.3561 11.5417 15.1809ZM8.93616 17.7865C9.0332 17.7962 9.13025 17.8205 9.22729 17.8593C9.31463 17.8884 9.39711 17.9272 9.47475 17.9757C9.55238 18.0145 9.62516 18.0679 9.69309 18.1359C9.75132 18.2038 9.79499 18.2766 9.8241 18.3542C9.76587 18.8685 9.66883 19.3489 9.53297 19.7953C9.38741 20.232 9.21759 20.6153 9.0235 20.9452C8.81971 20.363 8.6596 19.7565 8.54315 19.1257C8.42669 18.4949 8.36847 17.8399 8.36847 17.1606C8.36847 16.4619 8.43155 15.7874 8.5577 15.1373C8.67415 14.4774 8.83912 13.8563 9.05262 13.2741C9.15936 13.4681 9.2564 13.6816 9.34374 13.9145C9.43108 14.1377 9.51356 14.3755 9.5912 14.6278C9.65913 14.8801 9.71735 15.1421 9.76587 15.4138C9.80469 15.6855 9.83865 15.9621 9.86777 16.2435C9.76102 16.3697 9.67853 16.5201 9.62031 16.6948C9.55238 16.8695 9.51841 17.049 9.51841 17.2334C9.44078 17.2237 9.368 17.2334 9.30007 17.2625C9.22244 17.2819 9.15451 17.3207 9.09628 17.3789C9.03806 17.4274 8.99439 17.4857 8.96528 17.5536C8.93616 17.6215 8.92646 17.6992 8.93616 17.7865ZM13.1138 15.7777C12.9294 15.7389 12.7499 15.6758 12.5752 15.5885C12.4006 15.4915 12.2356 15.375 12.0803 15.2391C12.0415 14.7831 11.993 14.3415 11.9348 13.9145C11.8765 13.4875 11.8086 13.08 11.731 12.6918C11.6436 12.2939 11.5514 11.9155 11.4544 11.5564C11.3477 11.1876 11.2312 10.8431 11.1051 10.5229C11.4059 10.2803 11.7261 10.0959 12.0658 9.96977C12.3957 9.83391 12.7402 9.76113 13.0993 9.75143L13.1138 15.7777ZM13.6524 15.8214V9.76598C14.0115 9.7951 14.356 9.87758 14.6859 10.0134C15.0061 10.1493 15.3118 10.3385 15.6029 10.5811C15.4768 10.9111 15.3652 11.2653 15.2681 11.6437C15.1614 12.0125 15.0692 12.4055 14.9916 12.8228C14.9042 13.2304 14.8315 13.6574 14.7732 14.1038C14.7053 14.5502 14.6568 15.0111 14.6277 15.4866C14.4821 15.5934 14.3268 15.6758 14.1619 15.7341C13.9872 15.7826 13.8174 15.8117 13.6524 15.8214ZM14.6713 19.1402C14.7005 19.5769 14.7441 20.0039 14.8023 20.4212C14.8606 20.8385 14.9334 21.2412 15.0207 21.6294C15.0983 22.0078 15.1905 22.3766 15.2973 22.7356C15.3943 23.085 15.5059 23.4149 15.6321 23.7255C15.3409 23.9681 15.0255 24.167 14.6859 24.3223C14.3463 24.4678 13.9969 24.5649 13.6378 24.6134L13.6524 19.0675C13.8271 19.116 14.0018 19.1451 14.1764 19.1548C14.3414 19.1645 14.5064 19.1596 14.6713 19.1402ZM17.7864 18.8637V18.1359H18.0921V18.5725H18.3541V18.1941H18.6598V18.5725H19.242V18.8637H17.7864ZM17.7864 17.9466V17.6409H19.242V17.9466H17.7864ZM17.7864 17.4226V16.9713C17.7864 16.884 17.8009 16.8112 17.8301 16.753C17.8689 16.7045 17.9222 16.6608 17.9902 16.622C18.0581 16.5832 18.1357 16.5589 18.2231 16.5492C18.2716 16.5395 18.3201 16.5347 18.3686 16.5347C18.4075 16.525 18.456 16.5201 18.5142 16.5201C18.6695 16.5201 18.7908 16.5347 18.8781 16.5638C18.9654 16.5832 19.0382 16.6123 19.0965 16.6511C19.1256 16.6802 19.1498 16.7045 19.1692 16.7239C19.1886 16.7433 19.2032 16.7676 19.2129 16.7967C19.2323 16.8549 19.242 16.9131 19.242 16.9713V17.4226H17.7864ZM18.1066 17.1315H18.9218V17.0441C18.9218 17.015 18.9169 16.9908 18.9072 16.9713C18.8975 16.9422 18.8878 16.9228 18.8781 16.9131C18.8684 16.884 18.8345 16.8597 18.7762 16.8403C18.7277 16.8306 18.6404 16.8258 18.5142 16.8258C18.3686 16.8258 18.2619 16.8403 18.194 16.8695C18.1357 16.9083 18.1066 16.9665 18.1066 17.0441L18.1066 17.1315ZM17.7864 16.3745V15.5739H18.0921V16.0834H18.325V15.6031H18.6307V16.0834H18.9218V15.5594H19.242V16.3745H17.7864Z" fill="#EEEEEE"/>
</svg>
