<svg width="512" height="512" viewBox="0 0 512 512" fill="none" xmlns="http://www.w3.org/2000/svg">
<path d="M328.469 487.071H131.179C123.348 487.071 117 479.927 117 471.114V82.2916C117 76.0413 119.925 70.2527 124.698 67.0563L164.771 40.2203C169.853 36.817 175.831 35 181.948 35H375.279C386.645 35 395.859 44.214 395.859 55.58V408.05C395.859 414.422 393.826 420.583 390.129 425.41L352.339 474.759C346.353 482.576 337.638 487.071 328.469 487.071Z" fill="#1F1A17"/>
<path d="M144.608 85.2155H323.709C328.213 85.2155 333.5 91.4132 333.5 99.3816V452.972C333.5 457.314 333.791 464.476 337.488 462.82C342.745 460.465 343.5 450.334 343.5 444.161V103.809C343.5 92.7309 343.871 83.196 352 76.5L374.753 57.7928C378.149 54.9953 386 48.5 384.026 46.8333C379.54 43.1559 371.074 48.4539 366.5 52L341.322 71.1221C335.79 75.4111 327.281 75.5 320.483 75.5H152.246C151.797 75.5 151.345 75.4978 150.891 75.4956H150.886C145.102 75.4675 139.043 75.4381 135.059 79.9031C132.255 83.0461 140.577 85.2155 144.608 85.2155Z" fill="#EEEEEE"/>
<path d="M208.899 297.317C207.265 295.536 205.855 293.679 204.667 291.749C203.479 289.67 202.588 287.591 201.994 285.513C201.697 286.552 201.474 287.517 201.326 288.408L200.435 291.081L199.544 293.308C199.098 294.051 198.504 294.719 197.762 295.313C198.95 296.352 199.841 297.169 200.435 297.763C201.029 298.357 201.549 299.025 201.994 299.767L203.108 301.995C203.553 302.886 204.221 304.148 205.112 305.781C206.894 308.9 208.453 312.092 209.79 315.359C210.977 318.477 211.868 321.595 212.462 324.713C210.681 326.05 208.899 327.238 207.117 328.277C205.186 329.317 203.33 330.059 201.549 330.504C200.361 339.562 198.727 348.249 196.648 356.564C194.57 364.879 192.194 372.601 189.521 379.728C193.976 383.737 198.801 386.856 203.999 389.083C209.196 391.31 214.615 392.647 220.258 393.092L220.481 305.336C218.253 304.445 216.175 303.331 214.244 301.995C212.165 300.51 210.384 298.951 208.899 297.317Z" fill="#EEEEEE"/>
<path d="M193.976 330.059C192.491 338.077 190.783 345.873 188.853 353.446C186.922 361.019 184.844 368.146 182.616 374.828C180.537 372.749 178.607 370.596 176.825 368.369C174.895 366.142 173.113 363.84 171.48 361.464C169.698 358.94 168.065 356.267 166.58 353.446C165.095 350.625 163.61 347.581 162.125 344.314C165.54 338.968 168.51 332.88 171.034 326.05C173.41 319.219 175.34 311.869 176.825 303.999C180.538 308.009 183.804 312.24 186.626 316.695C189.447 321.15 191.897 325.604 193.976 330.059Z" fill="#EEEEEE"/>
<path d="M285.964 260.789C286.558 259.453 286.855 257.968 286.855 256.335V248.985H297.323C296.135 244.085 294.799 239.407 293.314 234.953C291.829 230.349 290.27 225.821 288.637 221.366C285.221 227.454 282.4 234.359 280.173 242.08C277.945 249.801 276.609 258.265 276.164 267.471C277.648 267.471 279.059 267.249 280.396 266.803C281.583 266.209 282.697 265.393 283.737 264.353C284.627 263.314 285.37 262.126 285.964 260.789Z" fill="#EEEEEE"/>
<path d="M276.164 290.413C277.648 290.413 279.059 290.784 280.396 291.526C281.583 292.12 282.697 292.937 283.737 293.976C284.627 295.016 285.37 296.204 285.964 297.54C286.558 298.877 286.855 300.213 286.855 301.549V309.122L297.546 309.568C296.506 314.616 295.319 319.442 293.982 324.045C292.646 328.648 291.161 333.103 289.528 337.409C287.746 334.291 286.112 330.95 284.627 327.386C283.143 323.823 281.88 320.11 280.841 316.25C279.653 312.241 278.688 308.083 277.945 303.777C277.055 299.47 276.461 295.016 276.164 290.413Z" fill="#EEEEEE"/>
<path d="M266.809 261.235C267.403 262.72 268.294 263.982 269.482 265.021C269.927 259.824 270.67 254.924 271.709 250.321C272.6 245.569 273.714 241.115 275.05 236.957C276.386 232.651 277.945 228.642 279.727 224.93C281.509 221.217 283.514 217.876 285.741 214.907C283.068 208.819 279.95 203.102 276.386 197.756C272.823 192.262 268.962 187.214 264.804 182.611C261.686 191.817 259.013 202.063 256.786 213.348C254.41 224.484 252.703 236.437 251.663 249.207L253.445 248.985V309.122L251.663 308.899C252.109 315.136 252.777 321.224 253.668 327.163C254.41 333.103 255.375 338.894 256.563 344.537C257.603 350.031 258.865 355.302 260.35 360.351C261.686 365.399 263.171 370.225 264.804 374.828C269.11 370.225 273.045 365.325 276.609 360.128C280.173 354.782 283.217 349.214 285.741 343.423C283.514 340.453 281.509 337.112 279.727 333.4C277.945 329.688 276.386 325.753 275.05 321.595C273.714 317.289 272.6 312.834 271.709 308.231C270.67 303.48 269.927 298.505 269.482 293.308C268.294 294.348 267.403 295.61 266.809 297.095C266.066 298.58 265.695 300.139 265.695 301.772V309.122H259.236V248.985H265.695V256.558C265.695 258.042 266.066 259.602 266.809 261.235Z" fill="#EEEEEE"/>
<path d="M196.426 248.762C192.862 249.207 189.447 250.173 186.18 251.657C182.913 252.994 179.944 254.776 177.271 257.003C176.083 248.391 174.227 240.372 171.702 232.948C169.03 225.375 165.837 218.767 162.125 213.125C164.946 207.037 168.139 201.543 171.702 196.643C175.118 191.594 178.756 187.065 182.616 183.056C185.883 192.114 188.704 202.211 191.08 213.348C193.307 224.336 195.089 236.14 196.426 248.762Z" fill="#EEEEEE"/>
<path d="M161.011 289.745C159.526 289.151 158.042 288.779 156.557 288.631C156.408 287.295 156.557 286.107 157.002 285.067C157.448 284.028 158.116 283.137 159.007 282.394C159.898 281.503 160.937 280.91 162.125 280.613C163.164 280.167 164.278 280.019 165.466 280.167C165.466 277.346 165.986 274.599 167.025 271.926C167.916 269.253 169.178 266.952 170.812 265.021C170.366 260.715 169.846 256.483 169.252 252.326C168.51 248.168 167.619 244.159 166.58 240.298C165.392 236.437 164.13 232.8 162.793 229.384C161.457 225.821 159.972 222.554 158.339 219.584C155.072 228.493 152.548 237.997 150.766 248.094C148.835 258.042 147.87 268.362 147.87 279.053C147.87 289.448 148.761 299.471 150.543 309.122C152.325 318.774 154.775 328.054 157.893 336.964C160.863 331.915 163.461 326.05 165.689 319.368C167.768 312.537 169.252 305.187 170.143 297.317C169.698 296.129 169.03 295.016 168.139 293.976C167.099 292.937 165.986 292.12 164.798 291.526C163.61 290.784 162.348 290.19 161.011 289.745Z" fill="#EEEEEE"/>
<path d="M220.481 257.894C217.659 257.3 214.912 256.335 212.24 254.998C209.567 253.514 207.043 251.732 204.667 249.653C204.073 242.674 203.33 235.918 202.439 229.384C201.549 222.851 200.509 216.614 199.321 210.675C197.985 204.587 196.574 198.796 195.089 193.302C193.456 187.659 191.674 182.388 189.744 177.488C194.347 173.776 199.247 170.954 204.444 169.024C209.493 166.945 214.764 165.831 220.258 165.683L220.481 257.894Z" fill="#EEEEEE"/>
<path d="M228.722 165.906V258.562C231.246 258.414 233.845 257.968 236.517 257.226C239.042 256.335 241.418 255.073 243.645 253.439C244.09 246.163 244.833 239.11 245.872 232.28C246.763 225.449 247.877 218.916 249.213 212.679C250.401 206.294 251.812 200.281 253.445 194.638C254.93 188.847 256.637 183.427 258.568 178.379C254.113 174.666 249.436 171.771 244.536 169.692C239.487 167.613 234.216 166.351 228.722 165.906Z" fill="#EEEEEE"/>
<path d="M244.313 309.345C244.758 316.027 245.427 322.56 246.318 328.945C247.209 335.33 248.322 341.493 249.659 347.432C250.846 353.223 252.257 358.866 253.89 364.36C255.375 369.705 257.083 374.754 259.013 379.505C254.559 383.218 249.733 386.262 244.536 388.637C239.339 390.865 233.993 392.35 228.499 393.092L228.722 308.231C231.395 308.974 234.067 309.419 236.74 309.568C239.264 309.716 241.789 309.642 244.313 309.345Z" fill="#EEEEEE"/>
<path d="M291.978 293.976V305.113H314.251V300.658H305.341V294.867H300.664V300.658H296.655V293.976H291.978Z" fill="#EEEEEE"/>
<path d="M291.978 291.081V286.404H314.251V291.081H291.978Z" fill="#EEEEEE"/>
<path fill-rule="evenodd" clip-rule="evenodd" d="M291.978 276.158V283.063H314.251V276.158C314.251 275.267 314.102 274.376 313.805 273.485C313.657 273.04 313.434 272.668 313.137 272.371L312.023 271.258C311.133 270.664 310.019 270.218 308.682 269.921C307.346 269.476 305.49 269.253 303.114 269.253C302.223 269.253 301.481 269.327 300.887 269.476C300.144 269.476 299.402 269.55 298.66 269.699C297.323 269.847 296.135 270.218 295.096 270.812C294.056 271.406 293.24 272.074 292.646 272.817C292.2 273.708 291.978 274.822 291.978 276.158ZM309.351 278.608H296.878L296.878 277.272C296.878 276.084 297.323 275.193 298.214 274.599C299.254 274.153 300.887 273.931 303.114 273.931C305.045 273.931 306.381 274.005 307.123 274.153C308.014 274.45 308.534 274.822 308.683 275.267C308.831 275.415 308.98 275.712 309.128 276.158C309.276 276.455 309.351 276.826 309.351 277.272V278.608Z" fill="#EEEEEE"/>
<path d="M291.978 267.026V254.776H296.655V262.571H300.219V255.221H304.896V262.571H309.351V254.553H314.251V267.026H291.978Z" fill="#EEEEEE"/>
<path d="M185.159 50.0604L179.906 52.9029C176.44 54.7787 178.011 59.319 182.127 59.319H227.854C231.046 59.319 234.159 58.4832 236.766 56.9265L241.118 54.3275C244.401 52.3674 242.76 48 238.742 48H193.487C190.535 48 187.645 48.715 185.159 50.0604Z" fill="#EEEEEE"/>
<path d="M268.684 50.8011L265.232 53.1004C262.161 55.1458 263.872 59.319 267.781 59.319H316.33C319.536 59.319 322.662 58.4758 325.276 56.9064L329.579 54.3222C332.851 52.3574 331.207 48 327.194 48H278.244C274.775 48 271.408 48.9866 268.684 50.8011Z" fill="#EEEEEE"/>
</svg>
