<svg width="32" height="32" viewBox="0 0 32 32" fill="none" xmlns="http://www.w3.org/2000/svg">
<path fill-rule="evenodd" clip-rule="evenodd" d="M17.757 7.12961H20.4016V5H24.6664V10.8312L21.2145 13.4921V20.9329L23.8591 23.5775V26.764H26.2384V30.4819H5V26.7634H7.37927V23.5768L10.0402 20.9322V13.4921L6.58764 10.8312V5H10.8368V7.12961H13.4977V5H17.757V7.12961Z" fill="#1F1A17"/>
<path fill-rule="evenodd" clip-rule="evenodd" d="M15.6274 23.3278H9.18524L8.46826 23.9971V24.9004H22.7865V23.9971L22.0695 23.3278H15.6274ZM8.46826 26.5144V28.1026H22.7865V26.5144H8.46826ZM15.6274 9.5258H7.66095V10.2422L8.79758 11.0978H22.4729L23.5775 10.2422V9.5258H15.6274ZM15.6274 12.1541H10.1832L11.1129 12.8874V13.7744H20.1413V12.8874L21.0709 12.1547L15.6274 12.1541ZM15.6274 20.6518H11.1129V21.3688L10.1832 22.2721H21.0709L20.1413 21.3688V20.6518H15.6274Z" fill="#EEEEEE"/>
</svg>
