<svg width="512" height="512" viewBox="0 0 512 512" fill="none" xmlns="http://www.w3.org/2000/svg">
<path d="M335.262 485.964H119.506C110.942 485.964 104 479.021 104 470.457V415.377C104 413.174 105.037 411.099 106.8 409.777L113.415 404.816C113.902 404.451 113.953 403.739 113.522 403.309L104.879 394.665C104.316 394.103 104 393.34 104 392.544V92.5926C104 86.5184 107.198 80.893 112.418 77.7866L171.13 42.8468C176.461 39.6745 182.549 38 188.753 38H391.731C401.246 38 408.96 45.7139 408.96 55.2294V409.17C408.96 415.363 406.736 421.35 402.694 426.041L361.366 473.999C354.82 481.596 345.29 485.964 335.262 485.964Z" fill="#1F1A17"/>
<path d="M327.982 94.857H138.797C134.539 94.857 125.749 92.7462 128.711 89.6882C133.251 85.0014 140.341 82.7964 146.866 82.7964H324.574C331.755 82.7964 339.367 81.8007 345.211 77.6276L371.787 60.833C376.618 57.3826 387.726 52.7162 392.463 56.2942C396.057 59.008 387.477 66.1799 383.89 68.9019L359.856 87.1037C351.269 93.6189 350.38 102.169 350.38 112.948V444.106C350.38 450.113 348.09 459.971 342.537 462.261C338.632 463.873 336.596 456.904 336.596 452.68V108.64C336.596 100.887 332.739 94.857 327.982 94.857Z" fill="#EEEEEE"/>
<path d="M198.512 287.381C199.133 289.555 200.065 291.729 201.308 293.903C202.55 295.922 204.025 297.864 205.734 299.727C207.287 301.436 209.15 303.066 211.325 304.619C213.344 306.017 215.518 307.182 217.847 308.114L217.614 399.897C211.713 399.432 206.044 398.034 200.609 395.704C195.173 393.375 190.126 390.113 185.467 385.92C188.262 378.466 190.747 370.39 192.921 361.693C195.095 352.996 196.804 343.911 198.046 334.437C199.91 333.971 201.851 333.195 203.87 332.108C205.734 331.021 207.597 329.778 209.461 328.381C208.84 325.119 207.908 321.858 206.666 318.596C205.268 315.18 203.637 311.841 201.773 308.579C200.842 306.871 200.143 305.551 199.677 304.619C199.211 303.687 198.823 302.911 198.512 302.29C198.046 301.513 197.503 300.814 196.881 300.193C196.26 299.572 195.328 298.718 194.086 297.631C194.863 297.009 195.484 296.311 195.95 295.534C196.26 294.757 196.571 293.981 196.881 293.204C197.192 292.273 197.503 291.341 197.813 290.409C197.969 289.477 198.202 288.468 198.512 287.381ZM190.126 333.971C188.573 342.358 186.787 350.511 184.768 358.432C182.749 366.352 180.575 373.807 178.245 380.795C176.071 378.621 174.052 376.369 172.188 374.04C170.169 371.71 168.306 369.303 166.597 366.818C164.734 364.178 163.025 361.382 161.472 358.432C159.919 355.481 158.366 352.297 156.813 348.881C160.385 343.29 163.491 336.922 166.132 329.778C168.616 322.634 170.635 314.947 172.188 306.716C176.071 310.909 179.488 315.335 182.438 319.994C185.389 324.653 187.952 329.312 190.126 333.971ZM287.268 256.864C287.268 258.572 286.957 260.125 286.336 261.523C285.715 262.92 284.938 264.163 284.006 265.25C282.919 266.337 281.754 267.191 280.512 267.812C279.114 268.278 277.639 268.511 276.086 268.511C276.552 258.883 277.949 250.03 280.279 241.955C282.609 233.879 285.559 226.657 289.131 220.29C290.84 224.949 292.47 229.686 294.023 234.5C295.576 239.159 296.974 244.051 298.216 249.176H287.268V256.864ZM276.086 292.506C277.639 292.506 279.114 292.894 280.512 293.67C281.754 294.292 282.919 295.146 284.006 296.233C284.938 297.32 285.715 298.562 286.336 299.96C286.957 301.358 287.268 302.756 287.268 304.153V312.074L298.449 312.54C297.362 317.82 296.12 322.867 294.722 327.682C293.324 332.496 291.771 337.155 290.063 341.659C288.199 338.398 286.491 334.903 284.938 331.176C283.385 327.449 282.065 323.566 280.978 319.528C279.735 315.335 278.726 310.987 277.949 306.483C277.018 301.979 276.396 297.32 276.086 292.506ZM269.097 265.949C267.855 264.862 266.923 263.542 266.302 261.989C265.525 260.28 265.137 258.65 265.137 257.097V249.176H258.381V312.074H265.137V304.386C265.137 302.678 265.525 301.047 266.302 299.494C266.923 297.941 267.855 296.621 269.097 295.534C269.563 300.97 270.34 306.172 271.427 311.142C272.359 315.956 273.523 320.615 274.921 325.119C276.319 329.468 277.949 333.583 279.813 337.466C281.677 341.348 283.773 344.843 286.103 347.949C283.463 354.005 280.279 359.829 276.552 365.42C272.824 370.856 268.709 375.981 264.205 380.795C262.497 375.981 260.944 370.934 259.546 365.653C257.993 360.373 256.673 354.86 255.586 349.113C254.343 343.212 253.334 337.155 252.557 330.943C251.626 324.731 250.927 318.364 250.461 311.841L252.325 312.074V249.176L250.461 249.409C251.548 236.053 253.334 223.551 255.819 211.904C258.148 200.101 260.944 189.385 264.205 179.756C268.554 184.57 272.591 189.851 276.319 195.597C280.046 201.188 283.307 207.167 286.103 213.534C283.773 216.64 281.677 220.135 279.813 224.017C277.949 227.9 276.319 232.093 274.921 236.597C273.523 240.945 272.359 245.604 271.427 250.574C270.34 255.388 269.563 260.513 269.097 265.949ZM192.688 248.943C188.961 249.409 185.389 250.419 181.972 251.972C178.556 253.369 175.45 255.233 172.654 257.562C171.412 248.555 169.47 240.169 166.83 232.403C164.035 224.483 160.696 217.572 156.813 211.671C159.764 205.303 163.103 199.557 166.83 194.432C170.402 189.152 174.207 184.415 178.245 180.222C181.662 189.695 184.613 200.256 187.097 211.904C189.427 223.396 191.291 235.742 192.688 248.943ZM150.989 290.642C152.543 290.797 154.096 291.186 155.649 291.807C157.046 292.273 158.366 292.894 159.609 293.67C160.851 294.292 162.016 295.146 163.103 296.233C164.035 297.32 164.734 298.485 165.2 299.727C164.268 307.958 162.715 315.646 160.541 322.79C158.211 329.778 155.493 335.913 152.387 341.193C149.126 331.875 146.563 322.168 144.7 312.074C142.836 301.979 141.904 291.496 141.904 280.625C141.904 269.443 142.914 258.65 144.933 248.244C146.796 237.684 149.436 227.744 152.853 218.426C154.561 221.532 156.114 224.949 157.512 228.676C158.91 232.248 160.23 236.053 161.472 240.091C162.56 244.129 163.491 248.322 164.268 252.67C164.889 257.019 165.433 261.445 165.899 265.949C164.19 267.968 162.87 270.375 161.938 273.17C160.851 275.966 160.308 278.839 160.308 281.79C159.065 281.634 157.9 281.79 156.813 282.256C155.571 282.566 154.484 283.187 153.552 284.119C152.62 284.896 151.921 285.828 151.455 286.915C150.989 288.002 150.834 289.244 150.989 290.642ZM217.847 258.494C214.897 257.873 212.023 256.864 209.228 255.466C206.433 253.913 203.792 252.049 201.308 249.875C200.686 242.576 199.91 235.51 198.978 228.676C198.046 221.843 196.959 215.32 195.717 209.108C194.319 202.741 192.844 196.684 191.291 190.938C189.582 185.036 187.719 179.523 185.7 174.398C190.514 170.515 195.639 167.565 201.075 165.546C206.355 163.371 211.868 162.207 217.614 162.051L217.847 258.494ZM226.467 259.193V162.284C232.213 162.75 237.726 164.07 243.006 166.244C248.131 168.419 253.023 171.447 257.682 175.33C255.664 180.61 253.878 186.279 252.325 192.335C250.616 198.237 249.141 204.527 247.898 211.205C246.501 217.727 245.336 224.561 244.404 231.705C243.317 238.849 242.54 246.225 242.075 253.835C239.745 255.544 237.26 256.864 234.62 257.795C231.825 258.572 229.107 259.038 226.467 259.193ZM242.773 312.307C243.239 319.295 243.938 326.129 244.87 332.807C245.802 339.485 246.967 345.93 248.364 352.142C249.607 358.199 251.082 364.1 252.79 369.846C254.343 375.437 256.129 380.718 258.148 385.687C253.489 389.57 248.442 392.754 243.006 395.238C237.571 397.568 231.98 399.121 226.234 399.897L226.467 311.142C229.262 311.918 232.058 312.384 234.853 312.54C237.493 312.695 240.133 312.617 242.773 312.307Z" fill="#EEEEEE"/>
</svg>
