<svg width="32" height="32" viewBox="0 0 32 32" fill="none" xmlns="http://www.w3.org/2000/svg">
<path d="M11.8714 2.86127C11.5807 2.86127 11.2953 2.93975 11.0455 3.08842L7.61731 5.09927C7.28783 5.29253 7.08542 5.64591 7.08542 6.02789V22.3851C7.08542 23.3039 7.38464 24.1977 7.93783 24.9313V24.9313V24.9313C7.38411 25.6831 7.08542 26.5923 7.08542 27.526V28.3764C7.08542 28.7332 7.37462 29.0224 7.73137 29.0224H20.1037C20.559 29.0224 20.9931 28.8302 21.2992 28.4932L23.6304 25.9264C23.8883 25.632 24.0304 25.2539 24.0304 24.8624V3.50723C24.0304 3.15048 23.7412 2.86127 23.3845 2.86127H11.8714Z" fill="white"/>
<path fill-rule="evenodd" clip-rule="evenodd" d="M20.4506 29.9913H6.96893C6.4338 29.9913 6 29.5575 6 29.0224V25.9693C6 25.587 6.18001 25.227 6.48589 24.9976V24.9976C6.57037 24.9342 6.57915 24.8107 6.50447 24.736L6.33506 24.5666C6.12052 24.3521 6 24.0611 6 23.7577V5.41125C6 5.0317 6.19986 4.68019 6.52602 4.48609L10.1947 2.30286C10.5278 2.10463 10.9082 2 11.2958 2H23.979C24.5736 2 25.0556 2.48201 25.0556 3.07659V25.1928C25.0556 25.5798 24.9167 25.9539 24.6641 26.247L22.0817 29.2437C21.6727 29.7184 21.0772 29.9913 20.4506 29.9913ZM11.0455 3.08841C11.2954 2.93975 11.5807 2.86127 11.8714 2.86127H23.3845C23.7413 2.86127 24.0305 3.15047 24.0305 3.50722V24.8624C24.0305 25.2539 23.8883 25.632 23.6304 25.9264L21.2992 28.4932C20.9931 28.8302 20.559 29.0224 20.1038 29.0224H7.7314C7.37465 29.0224 7.08545 28.7332 7.08545 28.3764V27.526C7.08545 26.5923 7.38414 25.6831 7.93786 24.9313V24.9313V24.9313C7.38467 24.1977 7.08545 23.3039 7.08545 22.3851V6.02789C7.08545 5.64591 7.28785 5.29253 7.61734 5.09927L11.0455 3.08841Z" fill="#1F1A17"/>
<path d="M19.8137 5.76806H8.33484C8.06881 5.76806 7.93341 5.44838 8.1185 5.2573C8.40218 4.96445 8.79248 4.79913 9.2002 4.79913H19.7827C20.2314 4.79913 20.6689 4.65896 21.0341 4.3982L22.4054 3.41886C22.7073 3.20327 23.1143 3.2087 23.4103 3.43227C23.6349 3.60184 23.6352 3.939 23.4111 4.10908L22.2891 4.96036C21.7526 5.36746 21.4375 6.00216 21.4375 6.67566V27.5237C21.4375 27.899 21.2111 28.2373 20.8641 28.3805C20.6201 28.4811 20.352 28.3017 20.352 28.0378V6.30635C20.352 6.00906 20.111 5.76806 19.8137 5.76806Z" fill="#1F1A17"/>
<path d="M12.0133 17.5827C12.0522 17.7186 12.1104 17.8544 12.188 17.9903C12.2657 18.1164 12.3578 18.2377 12.4646 18.3542C12.5616 18.4609 12.6781 18.5628 12.8139 18.6599C12.9401 18.7472 13.076 18.82 13.2215 18.8782L13.207 24.6134C12.8382 24.5843 12.484 24.4969 12.1443 24.3514C11.8047 24.2058 11.4893 24.002 11.1982 23.74C11.3729 23.2742 11.5281 22.7696 11.664 22.2262C11.7999 21.6827 11.9066 21.115 11.9842 20.5231C12.1007 20.494 12.222 20.4454 12.3481 20.3775C12.4646 20.3096 12.581 20.232 12.6975 20.1446C12.6587 19.9408 12.6004 19.737 12.5228 19.5333C12.4355 19.3198 12.3336 19.1111 12.2171 18.9073C12.1589 18.8006 12.1152 18.7181 12.0861 18.6599C12.057 18.6017 12.0328 18.5531 12.0133 18.5143C11.9842 18.4658 11.9503 18.4221 11.9114 18.3833C11.8726 18.3445 11.8144 18.2911 11.7368 18.2232C11.7853 18.1844 11.8241 18.1407 11.8532 18.0922C11.8726 18.0437 11.892 17.9951 11.9114 17.9466C11.9309 17.8884 11.9503 17.8302 11.9697 17.7719C11.9794 17.7137 11.9939 17.6506 12.0133 17.5827ZM11.4893 20.494C11.3923 21.018 11.2807 21.5275 11.1545 22.0224C11.0284 22.5173 10.8925 22.9831 10.7469 23.4198C10.6111 23.2839 10.4849 23.1432 10.3685 22.9977C10.2423 22.8521 10.1259 22.7017 10.0191 22.5464C9.90268 22.3814 9.79593 22.2068 9.69889 22.0224C9.60185 21.838 9.50481 21.6391 9.40777 21.4256C9.63096 21.0762 9.82505 20.6783 9.99002 20.232C10.1453 19.7856 10.2714 19.3052 10.3685 18.7909C10.6111 19.0529 10.8246 19.3295 11.009 19.6206C11.1933 19.9117 11.3535 20.2028 11.4893 20.494ZM17.5593 15.6758C17.5593 15.7826 17.5399 15.8796 17.5011 15.967C17.4622 16.0543 17.4137 16.1319 17.3555 16.1999C17.2876 16.2678 17.2148 16.3212 17.1372 16.36C17.0498 16.3891 16.9576 16.4037 16.8606 16.4037C16.8897 15.802 16.977 15.2489 17.1226 14.7442C17.2682 14.2396 17.4525 13.7884 17.6757 13.3905C17.7825 13.6816 17.8844 13.9776 17.9814 14.2784C18.0785 14.5696 18.1658 14.8752 18.2434 15.1955H17.5593V15.6758ZM16.8606 17.903C16.9576 17.903 17.0498 17.9272 17.1372 17.9757C17.2148 18.0145 17.2876 18.0679 17.3555 18.1359C17.4137 18.2038 17.4622 18.2814 17.5011 18.3688C17.5399 18.4561 17.5593 18.5434 17.5593 18.6308V19.1257L18.258 19.1548C18.1901 19.4847 18.1124 19.8001 18.0251 20.101C17.9378 20.4018 17.8407 20.6929 17.734 20.9743C17.6175 20.7705 17.5108 20.5522 17.4137 20.3193C17.3167 20.0864 17.2342 19.8438 17.1663 19.5915C17.0886 19.3295 17.0256 19.0577 16.977 18.7763C16.9188 18.4949 16.88 18.2038 16.8606 17.903ZM16.4239 16.2435C16.3463 16.1756 16.288 16.0931 16.2492 15.9961C16.2007 15.8893 16.1764 15.7874 16.1764 15.6904V15.1955H15.7543V19.1257H16.1764V18.6453C16.1764 18.5386 16.2007 18.4367 16.2492 18.3396C16.288 18.2426 16.3463 18.1601 16.4239 18.0922C16.453 18.4318 16.5015 18.7569 16.5695 19.0675C16.6277 19.3683 16.7005 19.6594 16.7878 19.9408C16.8751 20.2125 16.977 20.4697 17.0935 20.7123C17.2099 20.9549 17.3409 21.1733 17.4865 21.3673C17.3215 21.7458 17.1226 22.1097 16.8897 22.4591C16.6568 22.7987 16.3996 23.119 16.1182 23.4198C16.0115 23.119 15.9144 22.8036 15.8271 22.4736C15.73 22.1437 15.6476 21.7992 15.5796 21.4401C15.502 21.0714 15.4389 20.6929 15.3904 20.3047C15.3322 19.9166 15.2885 19.5187 15.2594 19.1111L15.3758 19.1257V15.1955L15.2594 15.21C15.3273 14.3755 15.4389 13.5943 15.5942 12.8665C15.7398 12.129 15.9144 11.4594 16.1182 10.8577C16.3899 11.1585 16.6422 11.4885 16.8751 11.8475C17.108 12.1969 17.3118 12.5705 17.4865 12.9684C17.3409 13.1625 17.2099 13.3808 17.0935 13.6234C16.977 13.866 16.8751 14.128 16.7878 14.4094C16.7005 14.6812 16.6277 14.9723 16.5695 15.2828C16.5015 15.5836 16.453 15.9039 16.4239 16.2435ZM11.6494 15.1809C11.4165 15.21 11.1933 15.2731 10.9798 15.3702C10.7664 15.4575 10.5723 15.5739 10.3976 15.7195C10.32 15.1567 10.1987 14.6326 10.0337 14.1474C9.85901 13.6525 9.65037 13.2207 9.40777 12.8519C9.59215 12.454 9.80079 12.095 10.0337 11.7748C10.2569 11.4448 10.4946 11.1488 10.7469 10.8868C10.9604 11.4788 11.1448 12.1387 11.3001 12.8665C11.4456 13.5846 11.5621 14.3561 11.6494 15.1809ZM9.04386 17.7865C9.1409 17.7962 9.23794 17.8205 9.33499 17.8593C9.42232 17.8884 9.50481 17.9272 9.58244 17.9757C9.66008 18.0145 9.73286 18.0679 9.80079 18.1359C9.85901 18.2038 9.90268 18.2766 9.93179 18.3542C9.87357 18.8685 9.77653 19.3489 9.64067 19.7953C9.49511 20.232 9.32528 20.6153 9.1312 20.9452C8.92741 20.363 8.76729 19.7565 8.65084 19.1257C8.53439 18.4949 8.47617 17.8399 8.47617 17.1606C8.47617 16.4619 8.53924 15.7874 8.6654 15.1373C8.78185 14.4774 8.94682 13.8563 9.16031 13.2741C9.26706 13.4681 9.3641 13.6816 9.45144 13.9145C9.53877 14.1377 9.62126 14.3755 9.69889 14.6278C9.76682 14.8801 9.82505 15.1421 9.87357 15.4138C9.91239 15.6855 9.94635 15.9621 9.97546 16.2435C9.86872 16.3697 9.78623 16.5201 9.72801 16.6948C9.66008 16.8695 9.62611 17.049 9.62611 17.2334C9.54848 17.2237 9.4757 17.2334 9.40777 17.2625C9.33013 17.2819 9.26221 17.3207 9.20398 17.3789C9.14575 17.4274 9.10209 17.4857 9.07297 17.5536C9.04386 17.6215 9.03416 17.6992 9.04386 17.7865ZM13.2215 15.7777C13.0371 15.7389 12.8576 15.6758 12.6829 15.5885C12.5083 15.4915 12.3433 15.375 12.188 15.2391C12.1492 14.7831 12.1007 14.3415 12.0425 13.9145C11.9842 13.4875 11.9163 13.08 11.8387 12.6918C11.7513 12.2939 11.6591 11.9155 11.5621 11.5564C11.4554 11.1876 11.3389 10.8431 11.2127 10.5229C11.5136 10.2803 11.8338 10.0959 12.1735 9.96977C12.5034 9.83391 12.8479 9.76113 13.207 9.75143L13.2215 15.7777ZM13.7601 15.8214V9.76598C14.1192 9.7951 14.4637 9.87758 14.7936 10.0134C15.1138 10.1493 15.4195 10.3385 15.7106 10.5811C15.5845 10.9111 15.4729 11.2653 15.3758 11.6437C15.2691 12.0125 15.1769 12.4055 15.0993 12.8228C15.0119 13.2304 14.9392 13.6574 14.8809 14.1038C14.813 14.5502 14.7645 15.0111 14.7354 15.4866C14.5898 15.5934 14.4345 15.6758 14.2696 15.7341C14.0949 15.7826 13.9251 15.8117 13.7601 15.8214ZM14.779 19.1402C14.8082 19.5769 14.8518 20.0039 14.91 20.4212C14.9683 20.8385 15.0411 21.2412 15.1284 21.6294C15.206 22.0078 15.2982 22.3766 15.405 22.7356C15.502 23.085 15.6136 23.4149 15.7398 23.7255C15.4486 23.9681 15.1332 24.167 14.7936 24.3223C14.4539 24.4678 14.1046 24.5649 13.7455 24.6134L13.7601 19.0675C13.9348 19.116 14.1094 19.1451 14.2841 19.1548C14.4491 19.1645 14.6141 19.1596 14.779 19.1402ZM17.8941 18.8637V18.1359H18.1998V18.5725H18.4618V18.1941H18.7675V18.5725H19.3497V18.8637H17.8941ZM17.8941 17.9466V17.6409H19.3497V17.9466H17.8941ZM17.8941 17.4226V16.9713C17.8941 16.884 17.9086 16.8112 17.9378 16.753C17.9766 16.7045 18.0299 16.6608 18.0979 16.622C18.1658 16.5832 18.2434 16.5589 18.3308 16.5492C18.3793 16.5395 18.4278 16.5347 18.4763 16.5347C18.5152 16.525 18.5637 16.5201 18.6219 16.5201C18.7772 16.5201 18.8985 16.5347 18.9858 16.5638C19.0731 16.5832 19.1459 16.6123 19.2041 16.6511C19.2333 16.6802 19.2575 16.7045 19.2769 16.7239C19.2963 16.7433 19.3109 16.7676 19.3206 16.7967C19.34 16.8549 19.3497 16.9131 19.3497 16.9713V17.4226H17.8941ZM18.2143 17.1315H19.0295V17.0441C19.0295 17.015 19.0246 16.9908 19.0149 16.9713C19.0052 16.9422 18.9955 16.9228 18.9858 16.9131C18.9761 16.884 18.9421 16.8597 18.8839 16.8403C18.8354 16.8306 18.7481 16.8258 18.6219 16.8258C18.4763 16.8258 18.3696 16.8403 18.3017 16.8695C18.2434 16.9083 18.2143 16.9665 18.2143 17.0441L18.2143 17.1315ZM17.8941 16.3745V15.5739H18.1998V16.0834H18.4327V15.6031H18.7383V16.0834H19.0295V15.5594H19.3497V16.3745H17.8941Z" fill="#1F1A17"/>
</svg>
