<svg width="512" height="512" viewBox="0 0 512 512" fill="none" xmlns="http://www.w3.org/2000/svg">
<path d="M197.963 51.7836C193.311 51.7836 188.745 53.0395 184.747 55.4187L129.883 87.5997C124.61 90.6926 121.371 96.348 121.371 102.461V385.221C121.371 386.307 121.724 387.364 122.378 388.231L135.012 404.986L122.734 421.656C121.849 422.859 121.371 424.313 121.371 425.807V460.12C121.371 465.829 125.999 470.457 131.708 470.457H329.712C336.997 470.457 343.945 467.382 348.843 461.989L386.151 420.911C390.278 416.198 392.553 410.147 392.553 403.883V62.1212C392.553 56.4119 387.925 51.7836 382.216 51.7836H197.963Z" fill="white"/>
<path fill-rule="evenodd" clip-rule="evenodd" d="M335.262 485.964H119.506C110.942 485.964 104 479.021 104 470.457V415.377C104 413.174 105.037 411.099 106.8 409.777L113.415 404.816C113.902 404.451 113.953 403.739 113.522 403.309L104.879 394.665C104.316 394.103 104 393.34 104 392.544V92.5926C104 86.5184 107.198 80.893 112.418 77.7866L171.13 42.8468C176.461 39.6745 182.549 38 188.753 38H391.731C401.246 38 408.96 45.7139 408.96 55.2294V409.17C408.96 415.363 406.736 421.35 402.694 426.041L361.366 473.999C354.82 481.596 345.29 485.964 335.262 485.964ZM184.747 55.4186C188.745 53.0394 193.311 51.7835 197.964 51.7835H382.216C387.926 51.7835 392.554 56.4118 392.554 62.1211V403.883C392.554 410.147 390.279 416.198 386.151 420.911L348.843 461.989C343.945 467.382 336.998 470.457 329.712 470.457H131.709C125.999 470.457 121.371 465.829 121.371 460.12V425.807C121.371 424.313 121.849 422.858 122.735 421.656L135.013 404.986L122.379 388.231C121.725 387.364 121.371 386.307 121.371 385.221V102.461C121.371 96.3479 124.61 90.6925 129.883 87.5996L184.747 55.4186Z" fill="#1F1A17"/>
<path d="M325.07 98.3028H141.366C137.109 98.3028 134.942 93.1868 137.904 90.1288C142.444 85.4421 148.69 82.7964 155.215 82.7964H324.574C331.755 82.7964 338.756 80.5531 344.6 76.38L366.547 60.707C371.379 57.2567 377.891 57.3436 382.629 60.9216C386.223 63.6354 386.229 69.0311 382.641 71.753L364.686 85.3766C356.1 91.8917 351.056 102.049 351.056 112.828V446.473C351.056 452.48 347.433 457.894 341.881 460.184C337.975 461.796 333.685 458.925 333.685 454.7V106.917C333.685 102.16 329.828 98.3028 325.07 98.3028Z" fill="#1F1A17"/>
<path d="M203.608 287.381C204.229 289.555 205.161 291.729 206.403 293.903C207.646 295.922 209.121 297.864 210.829 299.727C212.382 301.436 214.246 303.066 216.42 304.619C218.439 306.017 220.613 307.182 222.943 308.114L222.71 399.898C216.809 399.432 211.14 398.034 205.704 395.704C200.269 393.375 195.221 390.114 190.562 385.92C193.358 378.466 195.843 370.39 198.017 361.693C200.191 352.996 201.9 343.911 203.142 334.437C205.006 333.972 206.947 333.195 208.966 332.108C210.829 331.021 212.693 329.778 214.557 328.381C213.935 325.119 213.004 321.858 211.761 318.597C210.364 315.18 208.733 311.841 206.869 308.58C205.937 306.871 205.239 305.551 204.773 304.619C204.307 303.688 203.918 302.911 203.608 302.29C203.142 301.513 202.598 300.814 201.977 300.193C201.356 299.572 200.424 298.718 199.182 297.631C199.958 297.01 200.579 296.311 201.045 295.534C201.356 294.758 201.667 293.981 201.977 293.205C202.288 292.273 202.598 291.341 202.909 290.409C203.064 289.477 203.297 288.468 203.608 287.381ZM195.221 333.972C193.668 342.358 191.882 350.511 189.864 358.432C187.845 366.352 185.67 373.807 183.341 380.795C181.167 378.621 179.148 376.369 177.284 374.04C175.265 371.71 173.401 369.303 171.693 366.818C169.829 364.178 168.121 361.382 166.568 358.432C165.015 355.481 163.462 352.297 161.909 348.881C165.481 343.29 168.587 336.922 171.227 329.778C173.712 322.634 175.731 314.947 177.284 306.716C181.167 310.909 184.583 315.335 187.534 319.994C190.485 324.653 193.047 329.312 195.221 333.972ZM292.363 256.864C292.363 258.572 292.053 260.125 291.432 261.523C290.81 262.921 290.034 264.163 289.102 265.25C288.015 266.337 286.85 267.191 285.608 267.813C284.21 268.279 282.735 268.511 281.182 268.511C281.647 258.883 283.045 250.03 285.375 241.955C287.704 233.879 290.655 226.657 294.227 220.29C295.935 224.949 297.566 229.686 299.119 234.5C300.672 239.159 302.07 244.051 303.312 249.176H292.363V256.864ZM281.182 292.506C282.735 292.506 284.21 292.894 285.608 293.671C286.85 294.292 288.015 295.146 289.102 296.233C290.034 297.32 290.81 298.563 291.432 299.96C292.053 301.358 292.363 302.756 292.363 304.153V312.074L303.545 312.54C302.458 317.82 301.216 322.867 299.818 327.682C298.42 332.496 296.867 337.155 295.159 341.659C293.295 338.398 291.587 334.903 290.034 331.176C288.481 327.449 287.161 323.566 286.074 319.528C284.831 315.335 283.822 310.987 283.045 306.483C282.113 301.979 281.492 297.32 281.182 292.506ZM274.193 265.949C272.95 264.862 272.019 263.542 271.397 261.989C270.621 260.28 270.233 258.65 270.233 257.097V249.176H263.477V312.074H270.233V304.386C270.233 302.678 270.621 301.047 271.397 299.494C272.019 297.941 272.95 296.621 274.193 295.534C274.659 300.97 275.435 306.172 276.522 311.142C277.454 315.956 278.619 320.616 280.017 325.119C281.415 329.468 283.045 333.583 284.909 337.466C286.772 341.348 288.869 344.843 291.199 347.949C288.558 354.006 285.375 359.829 281.647 365.42C277.92 370.856 273.805 375.981 269.301 380.795C267.593 375.981 266.04 370.934 264.642 365.653C263.089 360.373 261.769 354.86 260.682 349.114C259.439 343.212 258.43 337.155 257.653 330.943C256.721 324.731 256.023 318.364 255.557 311.841L257.42 312.074V249.176L255.557 249.409C256.644 236.053 258.43 223.551 260.915 211.904C263.244 200.101 266.04 189.385 269.301 179.756C273.649 184.57 277.687 189.851 281.414 195.597C285.142 201.188 288.403 207.167 291.199 213.534C288.869 216.64 286.772 220.135 284.909 224.017C283.045 227.9 281.415 232.093 280.017 236.597C278.619 240.945 277.454 245.604 276.522 250.574C275.435 255.388 274.659 260.513 274.193 265.949ZM197.784 248.943C194.057 249.409 190.485 250.419 187.068 251.972C183.651 253.369 180.545 255.233 177.75 257.563C176.507 248.555 174.566 240.169 171.926 232.404C169.131 224.483 165.792 217.572 161.909 211.671C164.86 205.303 168.199 199.557 171.926 194.432C175.498 189.152 179.303 184.415 183.341 180.222C186.757 189.695 189.708 200.256 192.193 211.904C194.523 223.396 196.386 235.743 197.784 248.943ZM156.085 290.642C157.638 290.797 159.191 291.186 160.744 291.807C162.142 292.273 163.462 292.894 164.704 293.671C165.947 294.292 167.112 295.146 168.199 296.233C169.131 297.32 169.83 298.485 170.295 299.727C169.364 307.958 167.811 315.646 165.636 322.79C163.307 329.778 160.589 335.913 157.483 341.193C154.222 331.875 151.659 322.169 149.795 312.074C147.932 301.979 147 291.496 147 280.625C147 269.443 148.009 258.65 150.028 248.244C151.892 237.684 154.532 227.744 157.949 218.426C159.657 221.532 161.21 224.949 162.608 228.676C164.006 232.248 165.326 236.053 166.568 240.091C167.655 244.129 168.587 248.322 169.364 252.671C169.985 257.019 170.528 261.445 170.994 265.949C169.286 267.968 167.966 270.375 167.034 273.171C165.947 275.966 165.403 278.839 165.403 281.79C164.161 281.635 162.996 281.79 161.909 282.256C160.667 282.566 159.58 283.188 158.648 284.119C157.716 284.896 157.017 285.828 156.551 286.915C156.085 288.002 155.93 289.244 156.085 290.642ZM222.943 258.494C219.992 257.873 217.119 256.864 214.324 255.466C211.528 253.913 208.888 252.049 206.403 249.875C205.782 242.576 205.006 235.51 204.074 228.676C203.142 221.843 202.055 215.32 200.812 209.108C199.415 202.741 197.939 196.684 196.386 190.938C194.678 185.036 192.814 179.523 190.795 174.398C195.61 170.515 200.735 167.565 206.17 165.546C211.451 163.372 216.964 162.207 222.71 162.051L222.943 258.494ZM231.562 259.193V162.284C237.309 162.75 242.822 164.07 248.102 166.245C253.227 168.419 258.119 171.447 262.778 175.33C260.759 180.61 258.973 186.279 257.42 192.335C255.712 198.237 254.237 204.527 252.994 211.205C251.596 217.727 250.432 224.561 249.5 231.705C248.413 238.849 247.636 246.226 247.17 253.835C244.841 255.544 242.356 256.864 239.716 257.796C236.92 258.572 234.202 259.038 231.562 259.193ZM247.869 312.307C248.335 319.295 249.034 326.129 249.966 332.807C250.897 339.485 252.062 345.93 253.46 352.142C254.702 358.199 256.178 364.1 257.886 369.847C259.439 375.437 261.225 380.718 263.244 385.687C258.585 389.57 253.538 392.754 248.102 395.239C242.666 397.568 237.076 399.121 231.329 399.898L231.562 311.142C234.358 311.919 237.153 312.385 239.949 312.54C242.589 312.695 245.229 312.617 247.869 312.307Z" fill="#1F1A17"/>
</svg>
