<svg width="32" height="32" viewBox="0 0 32 32" fill="none" xmlns="http://www.w3.org/2000/svg">
<path fill-rule="evenodd" clip-rule="evenodd" d="M17.757 7.12961H20.4016V5H24.6664V10.8312L21.2145 13.4921V20.9329L23.8591 23.5775V26.764H26.2384V30.4819H5V26.7634H7.37927V23.5768L10.0402 20.9322V13.4921L6.58764 10.8312V5H10.8368V7.12961H13.4977V5H17.757V7.12961Z" fill="#1F1A17"/>
<path fill-rule="evenodd" clip-rule="evenodd" d="M20.6832 12.4351L22.6591 10.8312H8.59557L10.5872 12.4351H20.6832ZM25.1977 27.821H6.05698V29.425H25.1977V27.821ZM22.7865 24.6501H8.46823V26.764H22.7865V24.6501ZM20.1413 13.4921H11.1128V20.9329H20.1413V13.4921ZM23.5938 9.77421V6.05696H21.4642V8.18657H16.668V6.05696H14.5704V8.18657H9.79054V6.05696H7.66093V9.77421H23.5938ZM22.3932 23.5775L20.7949 21.9898H10.4755L8.8446 23.5775H22.3932Z" fill="white"/>
</svg>
