<svg width="181" height="180" viewBox="0 0 181 180" fill="none" xmlns="http://www.w3.org/2000/svg">
<path d="M90.0434 12.0456H102.178V24.0046H120.381V12.0456H141.309V43.4379L127.151 59.7935C130.2 63.6626 130.258 67.7368 127.327 72.0163C126.858 72.7784 126.624 73.4818 126.624 74.1267C126.624 74.8888 126.858 75.6216 127.327 76.3251C128.558 78.1424 129.145 80.7217 129.086 84.0632C129.086 87.346 128.47 89.9254 127.239 91.8013C126.829 92.3876 126.624 93.0031 126.624 93.648C126.624 94.4687 126.888 95.2308 127.415 95.9343C130.17 100.096 130.112 104.2 127.239 108.245C126.829 108.948 126.624 109.623 126.624 110.267C126.624 110.912 126.829 111.586 127.239 112.29C128.529 114.224 129.174 116.921 129.174 120.38C129.174 123.78 128.47 126.301 127.063 127.942L141.309 135.065V142.627H147.2V168.128H32.7987V142.715H38.7782V135.153L52.9355 127.942C51.5286 126.301 50.8251 123.78 50.8251 120.38C50.8251 116.98 51.4699 114.312 52.7596 112.378C53.2286 111.733 53.4631 111.059 53.4631 110.355C53.4631 109.769 53.2286 109.095 52.7596 108.333C49.8871 104.229 49.8578 100.126 52.6717 96.0222C53.1993 95.0842 53.4631 94.3221 53.4631 93.7359C53.4631 93.1497 53.2579 92.5048 52.8476 91.8013C51.5579 89.9254 50.8837 87.346 50.8251 84.0632C50.8251 80.7217 51.4406 78.1424 52.6717 76.3251C53.1993 75.6216 53.4631 74.8888 53.4631 74.1267C53.4631 73.4818 53.2286 72.8077 52.7596 72.1042C49.7699 67.8248 49.8285 63.7212 52.9355 59.7935L38.7782 43.5258V12.1335H59.7064V24.0046L77.8207 24.0925V12.1335L90.0434 12.0456Z" fill="#2C061F"/>
<path d="M135.065 18.0251H126.008V30.3358H95.935V18.113H84.064V30.3358H54.0786V18.0251H45.0215V40.3602C52.5251 39.8913 59.9995 39.4516 67.4445 39.0412C74.9482 38.6309 82.4812 38.4257 90.0434 38.4257C104.289 38.4257 119.296 39.0705 135.065 40.3602V18.0251Z" fill="#F4BFBF"/>
<path d="M57.596 55.4848C67.6204 53.902 78.4362 53.1106 90.0434 53.1106C101.827 53.1106 112.73 53.902 122.755 55.4848L127.855 49.0657C115.896 46.9552 103.292 45.9 90.0434 45.9C76.6776 45.9 64.0445 46.9552 52.1441 49.0657L57.596 55.4848Z" fill="#F4BFBF"/>
<path d="M39.042 162.148V148.694H140.957V162.148H39.042Z" fill="#F4BFBF"/>
<path d="M56.8925 131.987C66.7997 131.166 77.85 130.756 90.0434 130.756C101.592 130.756 112.642 131.166 123.194 131.987C125.129 133.042 127.093 134.097 129.086 135.153L135.065 138.318V142.715H45.0215V138.318L56.8925 131.987Z" fill="#F4BFBF"/>
<path d="M57.8598 60.1453C55.9252 61.5522 54.958 63.5454 54.958 66.1248C54.958 68.7041 55.9252 70.6973 57.8598 72.1042C59.6771 73.5112 62.3444 74.2146 65.8617 74.2146C69.4377 74.2146 72.193 73.5112 74.1275 72.1042C76.0034 70.6973 76.9414 68.7041 76.9414 66.1248C76.9414 63.5454 76.0034 61.5522 74.1275 60.1453C72.193 58.797 69.4377 58.1228 65.8617 58.1228C62.3444 58.1228 59.6771 58.797 57.8598 60.1453Z" fill="#F4BFBF"/>
<path d="M116.951 77.9958C116.248 79.4027 115.896 81.4252 115.896 84.0632C115.896 86.6426 116.248 88.6065 116.951 89.9548C117.596 91.3617 118.622 92.0652 120.029 92.0652C121.436 92.0652 122.491 91.3617 123.194 89.9548C123.898 88.6065 124.25 86.6426 124.25 84.0632C124.25 81.4252 123.898 79.4027 123.194 77.9958C122.491 76.7061 121.436 76.0613 120.029 76.0613C118.622 76.0613 117.596 76.7061 116.951 77.9958Z" fill="#F4BFBF"/>
<path d="M94.4402 77.9957C92.6815 79.4027 91.8021 81.4251 91.8021 84.0631C91.8021 86.6425 92.6815 88.6064 94.4402 89.9547C96.1988 91.3617 98.7196 92.0651 102.002 92.0651C105.344 92.0651 107.894 91.3617 109.653 89.9547C111.411 88.6064 112.291 86.6425 112.291 84.0631C112.291 81.4251 111.411 79.4027 109.653 77.9957C107.894 76.6474 105.344 75.9733 102.002 75.9733C98.7196 75.9733 96.1988 76.6474 94.4402 77.9957Z" fill="#F4BFBF"/>
<path d="M70.4343 77.9957C68.6756 79.4027 67.7963 81.4251 67.7963 84.0631C67.7963 86.6425 68.6756 88.6064 70.4343 89.9547C72.1343 91.3617 74.6551 92.0651 77.9966 92.0651C81.338 92.0651 83.8881 91.3617 85.6468 89.9547C87.3468 88.6064 88.1968 86.6425 88.1968 84.0631C88.1968 81.4251 87.3468 79.4027 85.6468 77.9957C83.8881 76.6474 81.338 75.9733 77.9966 75.9733C74.6551 75.9733 72.1343 76.6474 70.4343 77.9957Z" fill="#F4BFBF"/>
<path d="M56.8925 77.9958C56.189 79.4027 55.8373 81.4252 55.8373 84.0632C55.8373 86.6426 56.189 88.6065 56.8925 89.9548C57.596 91.3617 58.6219 92.0652 59.9702 92.0652C61.3771 92.0652 62.4323 91.3617 63.1358 89.9548C63.8393 88.6065 64.191 86.6426 64.191 84.0632C64.191 81.4252 63.8393 79.4027 63.1358 77.9958C62.4323 76.7061 61.3771 76.0613 59.9702 76.0613C58.6219 76.0613 57.596 76.7061 56.8925 77.9958Z" fill="#F4BFBF"/>
<path d="M116.951 114.136C116.248 115.485 115.896 117.478 115.896 120.116C115.896 122.754 116.248 124.747 116.951 126.095C117.596 127.444 118.622 128.118 120.029 128.118C121.436 128.118 122.491 127.444 123.194 126.095C123.898 124.747 124.25 122.754 124.25 120.116C124.25 117.478 123.898 115.485 123.194 114.136C122.491 112.847 121.436 112.202 120.029 112.202C118.622 112.202 117.596 112.847 116.951 114.136Z" fill="#F4BFBF"/>
<path d="M56.8925 114.136C56.189 115.485 55.8373 117.478 55.8373 120.116C55.8373 122.754 56.189 124.747 56.8925 126.095C57.596 127.444 58.6219 128.118 59.9702 128.118C61.3771 128.118 62.4323 127.444 63.1358 126.095C63.8393 124.747 64.191 122.754 64.191 120.116C64.191 117.478 63.8393 115.485 63.1358 114.136C62.4323 112.847 61.3771 112.202 59.9702 112.202C58.6219 112.202 57.596 112.847 56.8925 114.136Z" fill="#F4BFBF"/>
<path d="M70.4343 114.136C68.6756 115.543 67.7963 117.654 67.7963 120.468C67.7963 123.282 68.6756 125.157 70.4343 126.095C72.0757 127.033 74.6551 127.502 78.1724 127.502C81.7484 127.502 84.2399 127.033 85.6468 126.095C86.9951 125.157 87.7572 123.282 87.9331 120.468C88.1089 117.654 87.3468 115.543 85.6468 114.136C83.8881 112.788 81.338 112.114 77.9966 112.114C74.6551 112.114 72.1343 112.788 70.4343 114.136Z" fill="#F4BFBF"/>
<path d="M94.4402 114.136C92.6815 115.543 91.8021 117.654 91.8021 120.468C91.8021 123.282 92.6815 125.157 94.4402 126.095C96.1402 127.033 98.6609 127.502 102.002 127.502C105.403 127.502 107.953 127.033 109.653 126.095C111.294 125.157 112.144 123.282 112.203 120.468C112.261 117.654 111.411 115.543 109.653 114.136C107.894 112.788 105.344 112.114 102.002 112.114C98.7196 112.114 96.1988 112.788 94.4402 114.136Z" fill="#F4BFBF"/>
<path d="M105.959 96.198C104.025 97.605 103.058 99.6274 103.058 102.265C103.058 104.845 104.025 106.809 105.959 108.157C107.777 109.564 110.473 110.267 114.049 110.267C117.625 110.267 120.351 109.564 122.227 108.157C124.103 106.809 125.041 104.845 125.041 102.265C125.041 99.6274 124.103 97.605 122.227 96.198C120.351 94.8497 117.625 94.1755 114.049 94.1755C110.473 94.1755 107.777 94.8497 105.959 96.198Z" fill="#F4BFBF"/>
<path d="M82.3053 96.198C80.488 97.605 79.5794 99.6274 79.5794 102.265C79.5794 104.845 80.488 106.809 82.3053 108.157C84.064 109.564 86.6141 110.267 89.9555 110.267C93.3556 110.267 95.9643 109.564 97.7816 108.157C99.5403 106.809 100.42 104.845 100.42 102.265C100.42 99.6274 99.5403 97.605 97.7816 96.198C95.9643 94.8497 93.3556 94.1755 89.9555 94.1755C86.6141 94.1755 84.064 94.8497 82.3053 96.198Z" fill="#F4BFBF"/>
<path d="M57.8598 96.198C55.9252 97.605 54.958 99.6274 54.958 102.265C54.958 104.845 55.9252 106.809 57.8598 108.157C59.6771 109.564 62.3444 110.267 65.8617 110.267C69.4377 110.267 72.193 109.564 74.1275 108.157C76.0034 106.809 76.9414 104.845 76.9414 102.265C76.9414 99.6274 76.0034 97.605 74.1275 96.198C72.193 94.8497 69.4377 94.1755 65.8617 94.1755C62.3444 94.1755 59.6771 94.8497 57.8598 96.198Z" fill="#F4BFBF"/>
<path d="M82.3053 60.1453C80.488 61.5522 79.5794 63.5454 79.5794 66.1248C79.5794 68.7041 80.488 70.6973 82.3053 72.1042C84.064 73.5112 86.6141 74.2146 89.9555 74.2146C93.3556 74.2146 95.9643 73.5112 97.7816 72.1042C99.5403 70.6973 100.42 68.7041 100.42 66.1248C100.42 63.5454 99.5403 61.5522 97.7816 60.1453C95.9643 58.797 93.3556 58.1228 89.9555 58.1228C86.6141 58.1228 84.064 58.797 82.3053 60.1453Z" fill="#F4BFBF"/>
<path d="M105.959 60.1453C104.025 61.5522 103.058 63.5454 103.058 66.1248C103.058 68.7041 104.025 70.6973 105.959 72.1042C107.777 73.5112 110.473 74.2146 114.049 74.2146C117.625 74.2146 120.351 73.5112 122.227 72.1042C124.103 70.6973 125.041 68.7041 125.041 66.1248C125.041 63.5454 124.103 61.5522 122.227 60.1453C120.351 58.797 117.625 58.1228 114.049 58.1228C110.473 58.1228 107.777 58.797 105.959 60.1453Z" fill="#F4BFBF"/>
</svg>
