<svg width="180" height="180" viewBox="0 0 180 180" fill="none" xmlns="http://www.w3.org/2000/svg">
<path d="M157.396 168.75H106.379C103.873 168.75 101.785 168.094 100.114 166.781L96.3546 162.305L95.9968 161.769L94.5647 159.442L93.4909 157.472L91.7004 155.503L90.0894 154.787C89.1349 155.026 88.5381 155.265 88.2996 155.503L86.8674 156.935L85.2564 159.083L83.6454 161.769L83.2871 162.305C82.2133 163.738 80.7216 165.229 78.8119 166.781C76.9027 168.094 74.5757 168.75 71.8307 168.75H22.7823L16.875 142.257H57.3311C58.5242 142.257 59.2999 141.839 59.6582 141.004L60.3743 137.782V137.423V136.528L60.5531 135.633C60.7916 134.56 61.1499 133.604 61.6269 132.769C62.2238 131.934 63.2981 131.457 64.8495 131.337H119.268C119.984 131.337 120.521 131.755 120.879 132.59L121.595 134.917V135.992V136.708V137.244V138.319C121.595 139.512 121.714 140.407 121.953 141.004C122.072 141.72 122.55 142.138 123.385 142.257H163.125L157.396 168.75ZM92.5954 87.48L92.7748 84.6157C92.7748 83.4227 92.8941 82.4681 93.1326 81.7521L93.6697 77.0974L94.7436 71.5483L95.2808 69.4001L95.8179 67.2519C96.4142 65.5813 96.8918 64.2088 97.2501 63.135C97.7271 62.0606 98.5028 60.5689 99.5771 58.6598C100.77 56.6308 102.381 54.5425 104.41 52.3945C108.707 53.1105 112.764 55.9746 116.583 60.9868C120.401 65.88 123.624 71.3694 126.249 77.4557L128.576 85.5112L129.471 92.4924C129.471 101.92 128.636 108.543 126.965 112.362C125.533 116.3 123.743 118.986 121.595 120.418C120.64 121.015 119.506 121.432 118.194 121.671L115.509 121.85H115.151H68.2504H67.8926L64.3123 121.671C63.1187 121.671 61.7462 121.253 60.1948 120.418C57.9274 119.224 55.7198 116.599 53.5717 112.541C51.543 108.364 50.5286 101.681 50.5286 92.4924C50.5286 85.2126 52.0203 78.8878 55.0038 73.5176C57.9876 68.1474 61.2096 63.5524 64.6701 59.7336C68.2504 55.9149 71.4724 52.9315 74.3366 50.7833C77.3201 48.5159 78.8715 46.9049 78.9907 45.9501L78.633 43.623L78.0958 41.2959L77.9169 40.7589L77.022 37.3577L76.6637 34.3146C76.6637 31.3311 77.5586 28.6459 79.3491 26.2592C81.1389 23.753 84.1224 22.5 88.2996 22.5C91.044 22.5 93.4313 23.6337 95.4596 25.9012C97.6078 28.0493 98.9207 30.5554 99.3977 33.4195L99.5771 34.4936V35.5676C99.5771 38.5511 98.9803 41.4152 97.7867 44.16L94.0275 52.2154L92.9537 53.8265L92.2376 55.4376L87.9412 63.4927C86.6289 65.9992 85.7334 68.4456 85.2564 70.8322C84.8981 73.0997 84.6 75.0094 84.3615 76.5607C84.1224 77.9929 83.9436 79.1859 83.8243 80.1405V87.48H92.5954Z" fill="url(#paint0_linear_1_94)"/>
<defs>
<linearGradient id="paint0_linear_1_94" x1="17" y1="77.5" x2="163" y2="77.5" gradientUnits="userSpaceOnUse">
<stop stop-color="#900C3F"/>
<stop offset="1" stop-color="#511845"/>
</linearGradient>
</defs>
</svg>
