<svg width="180" height="180" viewBox="0 0 180 180" fill="none" xmlns="http://www.w3.org/2000/svg">
<path d="M37.2228 168.75V168.362V163.326C37.2228 160.743 37.3439 158.225 37.5862 155.771C37.9495 153.189 38.858 150.283 40.3113 147.055C41.7648 143.826 44.2477 142.018 47.7601 141.631L54.1188 141.05L61.0223 140.275L74.1032 138.919L89.5461 138.338C92.2106 138.338 95.1778 138.403 98.4482 138.531C101.839 138.661 105.352 138.919 108.986 139.307C113.103 139.307 117.403 139.629 121.884 140.275C126.366 140.92 130.181 141.437 133.33 141.824C136.479 142.212 138.841 144.407 140.415 148.411C140.779 149.444 141.263 151.122 141.869 153.447C142.474 155.771 142.777 158.29 142.777 161.002L142.959 164.682V168.169V168.75H37.2228ZM140.052 68.6025L137.872 64.9221L137.145 60.0795C137.145 56.5926 138.417 53.4288 140.96 50.5878C143.504 47.7467 146.532 46.3261 150.044 46.3261C153.314 46.3261 156.282 47.7467 158.946 50.5878C161.732 53.2997 163.125 56.4638 163.125 60.0795C163.125 63.6953 161.974 66.7946 159.673 69.3776C157.493 71.8313 154.768 73.3809 151.498 74.0267L131.876 130.783L109.167 128.459L89.9089 127.49L74.4666 128.071L61.3856 129.427L54.4821 130.202L48.1234 130.783L28.8657 73.8326C25.8377 73.8326 23.052 72.477 20.5085 69.7646C18.0862 66.924 16.875 63.6953 16.875 60.0795C16.875 56.5926 18.1468 53.4288 20.6902 50.5878C23.3548 47.6175 26.4433 46.1325 29.9558 46.1325C33.3471 46.1325 36.3144 47.553 38.8579 50.394C41.5225 53.106 42.8548 56.3344 42.8548 60.0795V60.6606L42.1281 63.7599C41.7647 65.0514 40.9775 66.6011 39.7663 68.409L58.4792 91.0727L66.2912 50.7815C63.7476 50.7815 61.3856 49.4255 59.2059 46.7136C57.1466 43.8725 56.1172 40.7086 56.1172 37.2219C56.1172 33.0894 57.51 29.6026 60.2961 26.7616C63.0816 23.9205 66.2912 22.5 69.9249 22.5C73.5581 22.5 76.7678 23.9205 79.5538 26.7616C82.3393 29.4735 83.7321 32.9602 83.7321 37.2219L83.5504 38.5778V39.9338C83.187 41.6126 82.521 43.2914 81.5518 44.9702C80.5832 46.5199 79.1904 47.8758 77.3736 49.0381L90.2723 88.9419L102.99 49.0381C101.415 47.7467 100.083 46.0679 98.9933 44.0017C98.0241 41.8063 97.5398 39.5464 97.5398 37.2219C97.5398 33.0894 98.9325 29.6026 101.718 26.7616C104.504 23.9205 107.714 22.5 111.347 22.5C114.981 22.5 118.19 23.9205 120.976 26.7616C123.762 29.4735 125.155 32.9602 125.155 37.2219C125.155 40.7086 124.307 43.5497 122.611 45.745C120.916 47.9404 118.614 49.6192 115.707 50.7815L122.066 91.0727L140.052 68.6025Z" fill="url(#paint0_linear_1_114)"/>
<defs>
<linearGradient id="paint0_linear_1_114" x1="17" y1="96" x2="163" y2="96" gradientUnits="userSpaceOnUse">
<stop stop-color="#900C3F"/>
<stop offset="1" stop-color="#511845"/>
</linearGradient>
</defs>
</svg>
