<svg width="180" height="180" viewBox="0 0 180 180" fill="none" xmlns="http://www.w3.org/2000/svg">
<path d="M34.005 168.75C34.005 163.018 34.0665 159.069 34.1893 156.904C34.4348 154.739 34.926 151.363 35.6628 146.777C36.3995 142.192 39.8378 137.415 45.9776 132.447L29.216 77.229C25.6549 77.229 22.7078 75.8914 20.3746 73.2167C18.0416 70.542 16.875 67.4213 16.875 63.8544C16.875 59.9057 18.1644 56.5937 20.743 53.919C23.3218 51.244 26.3917 49.9066 29.9528 49.9066C33.6367 49.9066 36.7679 51.3078 39.3466 54.11C41.9254 56.7849 43.2147 60.0334 43.2147 63.8544L42.6621 67.2936C42.4166 68.4399 41.7412 69.714 40.636 71.1152L55.1873 87.1644L60.7129 57.9313C57.6433 56.5301 55.2487 54.5559 53.5296 52.0083C51.8104 49.4608 50.9509 46.5947 50.9509 43.4103C50.9509 39.2069 52.363 35.6403 55.1873 32.7106C58.1344 29.6535 61.6956 28.125 65.8704 28.125C69.8001 28.125 73.2999 29.6535 76.3695 32.7106C79.4396 35.6403 80.9747 39.2069 80.9747 43.4103C80.9747 45.8305 80.3604 48.187 79.1325 50.4798C78.0272 52.6452 76.554 54.4922 74.7118 56.0207L89.6316 84.8717L104.735 56.0207C103.507 55.129 102.403 54.0464 101.42 52.7726C100.56 51.3714 99.8235 49.7792 99.2098 47.9959L98.6569 45.512L98.4729 43.4103C98.4729 39.3342 99.9467 35.7677 102.894 32.7106C105.841 29.6535 109.34 28.125 113.393 28.125C117.322 28.125 120.822 29.6535 123.892 32.7106C126.961 35.6403 128.496 39.2069 128.496 43.4103C128.496 46.4674 127.576 49.3334 125.733 52.0083C124.014 54.6833 121.681 56.6578 118.734 57.9313L123.892 87.3557L138.627 71.1152L137.338 67.6755L136.785 63.8544C136.785 59.9057 138.075 56.5937 140.653 53.919C143.232 51.244 146.302 49.9066 149.863 49.9066C153.547 49.9066 156.678 51.3078 159.257 54.11C161.836 56.7849 163.125 60.0334 163.125 63.8544C163.125 67.4213 161.958 70.4779 159.625 73.0254C157.415 75.4459 154.529 76.8471 150.968 77.229L133.838 132.065C139.855 136.778 143.416 142.192 144.521 148.306C145.627 154.42 146.179 161.234 146.179 168.75H34.005ZM132.549 155.184C132.549 150.981 130.891 147.988 127.576 146.204C124.383 144.294 119.962 142.51 114.313 140.855L110.077 139.899L106.025 139.135L98.4729 138.752H92.2101H90.7369H89.6316H88.8947L81.711 138.944C79.6236 138.944 77.5974 138.944 75.6326 138.944C73.6684 139.326 72.2559 139.58 71.3964 139.708L67.3442 140.281L63.6604 141.045C59.4849 141.937 55.7399 143.402 52.4244 145.44C49.2317 147.478 47.6354 150.726 47.6354 155.184H132.549ZM117.813 107.035L111.182 66.3384L89.6316 106.271L68.4495 66.3384L61.4498 107.418L42.478 87.3557L42.1095 87.9289L57.0291 128.053L66.4234 126.524L75.4487 125.569L81.5271 125.378L87.7899 125.187L102.157 125.76L117.813 127.479L120.576 128.053C121.804 128.053 122.786 128.18 123.523 128.435L137.338 87.7376L136.969 87.3557L117.813 107.035ZM26.8215 66.9116C27.5582 67.6761 28.602 68.1216 29.9528 68.2492C31.3035 68.2492 32.3473 67.8032 33.0841 66.9116C33.8208 66.0201 34.312 64.8737 34.5576 63.4725C34.5576 62.3261 34.1893 61.3704 33.4524 60.6066C32.7157 59.7144 31.5491 59.1413 29.9528 58.8864C28.8476 58.8864 27.8652 59.3325 27.0057 60.2241C26.1461 60.9885 25.6549 62.0713 25.5321 63.4725C25.5321 64.746 25.9619 65.8924 26.8215 66.9116ZM146.731 66.9116C147.468 67.6761 148.512 68.1216 149.863 68.2492C150.968 68.2492 151.95 67.8668 152.81 67.1023C153.67 66.2108 154.222 65.0008 154.468 63.4725C154.468 62.3261 153.976 61.3069 152.994 60.4153C152.38 59.5238 151.337 59.0141 149.863 58.8864C148.758 58.8864 147.776 59.3325 146.916 60.2241C146.179 60.9885 145.688 62.0713 145.442 63.4725C145.442 64.746 145.872 65.8924 146.731 66.9116ZM62.1866 47.6138C63.1693 48.378 64.3973 48.8876 65.8704 49.1423C67.3442 49.1423 68.5721 48.6328 69.5543 47.6138C70.6596 46.4674 71.2119 45.1299 71.2119 43.6014C71.2119 42.2002 70.7209 40.9902 69.7387 39.9711C68.8792 38.9521 67.59 38.3789 65.8704 38.2515C64.5199 38.2515 63.3532 38.6974 62.3711 39.589C61.5111 40.4807 60.9587 41.8181 60.7129 43.6014C60.7129 45.2573 61.2045 46.5947 62.1866 47.6138ZM109.709 47.6138C110.691 48.378 111.919 48.8876 113.393 49.1423C114.989 49.1423 116.278 48.6328 117.26 47.6138C117.997 46.5947 118.489 45.2573 118.734 43.6014C118.734 42.0729 118.304 40.8628 117.445 39.9711C116.585 39.0795 115.234 38.5063 113.393 38.2515C112.042 38.2515 110.876 38.6974 109.893 39.589C109.033 40.4807 108.481 41.8181 108.235 43.6014C108.235 45.2573 108.726 46.5947 109.709 47.6138Z" fill="url(#paint0_linear_1_116)"/>
<path d="M132.549 155.184C132.549 150.981 130.891 147.988 127.576 146.204C124.383 144.294 119.962 142.51 114.313 140.854L110.077 139.899L106.025 139.134L98.4729 138.752H92.2106H90.7369H89.6316H88.8947L81.7116 138.944C79.6241 138.944 77.598 138.944 75.6332 138.944C73.6684 139.326 72.2559 139.58 71.3964 139.708L67.3442 140.281L63.6604 141.045C59.4855 141.937 55.74 143.402 52.4245 145.44C49.2319 147.478 47.6355 150.726 47.6355 155.184H132.549ZM117.813 107.035L111.183 66.3384L89.6316 106.271L68.4495 66.3384L61.4503 107.418L42.4781 87.3557L42.1097 87.9289L57.0296 128.053L66.4234 126.524L75.4487 125.569L81.5271 125.378L87.7899 125.187L102.157 125.76L117.813 127.479L120.576 128.053C121.804 128.053 122.786 128.18 123.523 128.435L137.338 87.7376L136.969 87.3557L117.813 107.035ZM26.8216 66.9116C27.5583 67.6755 28.6021 68.1216 29.9529 68.2487C31.3036 68.2487 32.3474 67.8032 33.0842 66.9116C33.821 66.0201 34.3121 64.8737 34.5577 63.4725C34.5577 62.3261 34.1894 61.3704 33.4526 60.606C32.7158 59.7144 31.5492 59.1413 29.9529 58.8864C28.8477 58.8864 27.8654 59.3325 27.0058 60.2241C26.1462 60.9885 25.655 62.0713 25.5322 63.4725C25.5322 64.746 25.962 65.8924 26.8216 66.9116ZM146.732 66.9116C147.468 67.6755 148.512 68.1216 149.863 68.2487C150.968 68.2487 151.951 67.8668 152.81 67.1023C153.67 66.2108 154.222 65.0008 154.468 63.4725C154.468 62.3261 153.977 61.3069 152.994 60.4153C152.381 59.5238 151.337 59.0141 149.863 58.8864C148.758 58.8864 147.776 59.3325 146.916 60.2241C146.179 60.9885 145.688 62.0713 145.442 63.4725C145.442 64.746 145.873 65.8924 146.732 66.9116ZM62.1866 47.6138C63.1693 48.378 64.3973 48.8875 65.8704 49.1423C67.3442 49.1423 68.5721 48.6327 69.5548 47.6138C70.6596 46.4673 71.2125 45.1299 71.2125 43.6013C71.2125 42.2002 70.7214 40.9901 69.7387 39.9711C68.8792 38.9521 67.59 38.3789 65.8704 38.2515C64.5199 38.2515 63.3532 38.6973 62.3711 39.5889C61.5116 40.4806 60.9587 41.8181 60.7134 43.6013C60.7134 45.2572 61.2045 46.5947 62.1866 47.6138ZM109.709 47.6138C110.691 48.378 111.919 48.8875 113.393 49.1423C114.989 49.1423 116.278 48.6327 117.261 47.6138C117.997 46.5947 118.489 45.2572 118.734 43.6013C118.734 42.0728 118.304 40.8627 117.445 39.9711C116.585 39.0794 115.235 38.5062 113.393 38.2515C112.042 38.2515 110.876 38.6973 109.893 39.5889C109.033 40.4806 108.481 41.8181 108.235 43.6013C108.235 45.2572 108.727 46.5947 109.709 47.6138Z" fill="#F5F5F5"/>
<defs>
<linearGradient id="paint0_linear_1_116" x1="17" y1="98" x2="163" y2="98" gradientUnits="userSpaceOnUse">
<stop stop-color="#900C3F"/>
<stop offset="1" stop-color="#511845"/>
</linearGradient>
</defs>
</svg>
