<svg width="180" height="180" viewBox="0 0 180 180" fill="none" xmlns="http://www.w3.org/2000/svg">
<path d="M33.75 168.75V168.374V163.666L34.322 157.83C34.7034 154.064 35.7203 150.675 37.3728 147.662C39.0254 144.524 42.0127 142.767 46.3348 142.39L53.0084 141.825L60.6358 141.072L74.7456 139.754L91.1441 139.19C94.068 139.19 97.182 139.252 100.487 139.377C103.793 139.503 107.288 139.754 110.974 140.131C115.042 140.131 119.428 140.444 124.131 141.072C128.835 141.7 132.839 142.202 136.144 142.579C139.449 142.955 141.928 145.089 143.58 148.98C143.962 149.984 144.47 151.616 145.106 153.876C145.742 156.135 146.059 158.583 146.059 161.219L146.25 164.796V168.185V168.75H33.75ZM56.4407 87.5993C59.6188 86.7206 64.449 85.905 70.9324 85.1518C77.4152 84.3986 84.1528 84.0217 91.1441 84.0217C97.8812 84.0217 104.492 84.3986 110.974 85.1518C117.458 85.7796 122.733 86.5952 126.801 87.5993L133.284 131.846L110.593 129.587C107.669 129.587 103.856 129.461 99.1524 129.21C94.5765 128.834 91.9069 128.645 91.1441 128.645L74.5549 129.21L60.8265 130.528L54.3432 131.281L49.1949 131.846L56.4407 87.5993ZM75.699 55.7793L79.3221 34.6915H80.6569L82.1824 34.3149L86.5676 33.9383L91.1441 33.75L94.9579 33.9383L98.7711 34.1266L100.678 34.5031L102.585 34.6915L105.827 55.7793H115.742L122.224 37.5157L126.038 38.0806L130.042 38.6454L133.856 39.7751L137.86 41.4697L136.716 59.9214C136.335 63.5619 135.318 66.8256 133.665 69.7123C132.14 72.4736 129.851 74.9841 126.801 77.2436L121.843 76.6789L116.886 75.9257L105.254 74.6078L91.1441 73.8546C88.7287 73.8546 86.1227 73.9176 83.3265 74.043C80.6569 74.1684 77.9237 74.4193 75.1269 74.7962C72.8392 74.7962 70.1696 75.0471 67.1186 75.5494C64.1948 75.9257 60.6358 76.4904 56.4407 77.2436C53.0084 75.4864 50.5297 73.3522 49.0042 70.8418C47.6059 68.3314 46.5889 65.4446 45.9534 62.181L44.0466 41.4697L48.2415 39.7751L53.0084 38.4571L56.6314 37.8923L60.0638 37.5157L66.5466 55.7793H75.699Z" fill="url(#paint0_linear_1_119)"/>
<defs>
<linearGradient id="paint0_linear_1_119" x1="34" y1="101" x2="146" y2="101" gradientUnits="userSpaceOnUse">
<stop stop-color="#900C3F"/>
<stop offset="1" stop-color="#511845"/>
</linearGradient>
</defs>
</svg>
