<svg width="180" height="180" viewBox="0 0 180 180" fill="none" xmlns="http://www.w3.org/2000/svg">
<path d="M145.576 136.992C145.576 138.997 144.391 140 142.021 140H126.367C124.59 140 122.676 139.385 120.625 138.154C118.574 136.878 116.979 135.352 115.84 133.574L103.809 114.502C100.938 109.854 98.0436 106.367 95.127 104.043C92.2103 101.673 88.7012 100.488 84.5996 100.488H69.9023V133.711C69.9023 135.488 69.2643 136.992 67.9883 138.223C66.7578 139.408 65.2539 140 63.4766 140H50.625C48.8477 140 47.321 139.362 46.0449 138.086C44.7689 136.764 44.1309 135.215 44.1309 133.438V48.4668C44.1309 46.6895 44.7689 45.14 46.0449 43.8184C47.321 42.4967 48.8477 41.8359 50.625 41.8359H63.4766C65.2539 41.8359 66.7578 42.4967 67.9883 43.8184C69.2643 45.14 69.9023 46.6895 69.9023 48.4668V81.2109H84.5996C88.61 81.2109 92.1191 80.1172 95.127 77.9297C98.1803 75.7422 101.074 72.2103 103.809 67.334L114.404 48.4668C116.82 44.0918 120.101 41.8815 124.248 41.8359H140.039C142.227 41.8359 143.32 42.793 143.32 44.707C143.32 45.7552 142.933 47.0085 142.158 48.4668L127.324 75.332C125.182 79.2513 122.767 82.487 120.078 85.0391C117.435 87.5911 113.971 89.3913 109.688 90.4395C112.695 91.0775 115.771 92.9688 118.916 96.1133C122.106 99.2578 124.909 102.676 127.324 106.367L144.414 133.574C145.189 134.896 145.576 136.035 145.576 136.992Z" fill="#C6DE41" stroke="black" stroke-width="3"/>
</svg>
