<svg width="180" height="180" viewBox="0 0 180 180" fill="none" xmlns="http://www.w3.org/2000/svg">
<path d="M39.0723 133.574V48.4668C39.0723 46.6895 39.6875 45.1628 40.918 43.8867C42.1484 42.6107 43.6523 41.9727 45.4297 41.9727H65.5273C67.1224 41.9727 68.8086 42.6107 70.5859 43.8867C72.3633 45.1628 73.8216 46.6895 74.9609 48.4668L116.25 111.973V48.3301C116.25 46.5527 116.865 45.0488 118.096 43.8184C119.372 42.5879 120.898 41.9727 122.676 41.9727H134.434C136.211 41.9727 137.715 42.5879 138.945 43.8184C140.221 45.0488 140.859 46.5983 140.859 48.4668V133.574C140.859 135.352 140.221 136.878 138.945 138.154C137.715 139.385 136.211 140 134.434 140H111.738C109.961 140 108.138 139.385 106.27 138.154C104.401 136.878 102.92 135.352 101.826 133.574L64.0234 74.9219V133.574C64.0234 135.352 63.3854 136.878 62.1094 138.154C60.8789 139.385 59.375 140 57.5977 140H45.5664C43.7891 140 42.2624 139.385 40.9863 138.154C39.7103 136.878 39.0723 135.352 39.0723 133.574Z" fill="#C6DE41" stroke="black" stroke-width="3"/>
</svg>
