<svg width="180" height="180" viewBox="0 0 180 180" fill="none" xmlns="http://www.w3.org/2000/svg">
<path d="M144.961 137.061C144.961 139.02 143.799 140 141.475 140H125.068C123.337 140 121.423 139.385 119.326 138.154C117.275 136.878 115.703 135.352 114.609 133.574L102.988 115.391C98.2031 107.917 92.4154 104.18 85.625 104.18H68.9453V133.574C68.9453 135.352 68.3073 136.878 67.0312 138.154C65.8008 139.385 64.2969 140 62.5195 140H49.668C47.8906 140 46.3639 139.385 45.0879 138.154C43.8118 136.878 43.1738 135.352 43.1738 133.574V48.4668C43.1738 46.6895 43.7891 45.1628 45.0195 43.8867C46.25 42.6107 47.7539 41.9727 49.5312 41.9727H105.928C116.364 41.9727 124.909 44.7754 131.562 50.3809C138.262 55.9863 141.611 63.5514 141.611 73.0762C141.611 86.3379 133.021 94.6549 115.84 98.0273C118.574 99.0299 121.104 100.762 123.428 103.223C125.752 105.638 128.418 109.17 131.426 113.818L143.867 133.574C144.596 134.85 144.961 136.012 144.961 137.061ZM68.9453 84.834H98.0664C102.76 84.834 106.885 83.8997 110.439 82.0312C114.04 80.1628 115.84 77.1777 115.84 73.0762C115.84 68.9746 114.04 65.9896 110.439 64.1211C106.885 62.2526 102.76 61.3184 98.0664 61.3184H68.9453V84.834Z" fill="#07323D" stroke="#07323D" stroke-width="3"/>
</svg>
