<svg width="512" height="512" viewBox="0 0 512 512" fill="none" xmlns="http://www.w3.org/2000/svg">
<path d="M256 89C267 89 272.333 83.5 272 72.5C272.167 63.3333 266.833 58.75 256 58.75C245 58.75 239.667 63.3333 240 72.5C239.5 83.5 244.833 89 256 89ZM256 390C256 409 247.583 425.542 230.75 439.625C213.917 453.708 195.333 460.75 175 460.75H51.25C51.25 441.25 56.6667 426.333 67.5 416C78.3333 405.667 90.1667 400.5 103 400.5H165.5C174 400.5 181.333 399.917 187.5 398.75C193.667 397.583 199.583 392.583 205.25 383.75C207.25 380.417 208.083 379.083 207.75 379.75H226.75C225.583 383.25 225.333 384.333 226 383C218.5 400.5 209.417 410.875 198.75 414.125C188.083 417.375 175.917 419 162.25 419H102.25C93.5833 419 86.4167 422.333 80.75 429C75.0833 435.667 72.25 440.083 72.25 442.25H178.25C189.25 442.25 202.458 436.833 217.875 426C233.292 415.167 241.083 399.75 241.25 379.75H156C167.167 360.417 173.167 341.333 174 322.5C155 302.667 141.5 284.042 133.5 266.625C125.5 249.208 125 230.583 132 210.75C137.5 194.75 147.333 178.958 161.5 163.375C175.667 147.792 201.667 127.25 239.5 101.75C236.667 99.9167 232.833 96.9167 228 92.75C223.167 88.5833 220.75 82 220.75 73C220.75 63.3333 224.167 55.3333 231 49C237.833 42.6667 246.167 39.5 256 39.5C265.667 39.5 273.958 42.6667 280.875 49C287.792 55.3333 291.25 63.3333 291.25 73C291.25 82 288.792 88.5833 283.875 92.75C278.958 96.9167 275.167 99.9167 272.5 101.75C310.167 127.25 336.083 147.792 350.25 163.375C364.417 178.958 374.333 194.75 380 210.75C387 230.583 386.5 249.208 378.5 266.625C370.5 284.042 357 302.667 338 322.5C338.667 341.333 344.667 360.417 356 379.75H270.75C270.75 399.75 278.5 415.167 294 426C309.5 436.833 322.75 442.25 333.75 442.25H439.75C439.75 440.083 436.875 435.667 431.125 429C425.375 422.333 418.25 419 409.75 419H349.75C335.917 419 323.708 417.375 313.125 414.125C302.542 410.875 293.5 400.5 286 383C286.667 384.333 286.417 383.25 285.25 379.75H304.25C303.917 379.083 304.75 380.417 306.75 383.75C312.25 392.583 318.083 397.583 324.25 398.75C330.417 399.917 337.833 400.5 346.5 400.5H409C421.667 400.5 433.458 405.667 444.375 416C455.292 426.333 460.75 441.25 460.75 460.75H337C316.5 460.75 297.875 453.708 281.125 439.625C264.375 425.542 256 409 256 390ZM256 361.5H326.75C322.083 347.5 319.667 334.667 319.5 323C299.5 316.167 278.333 313 256 313.5C233.5 313 212.333 316.167 192.5 323C192.167 334.667 189.75 347.5 185.25 361.5H256ZM256 294.75C282.5 294.583 306.25 298.083 327.25 305.25C358.75 275.25 370.583 246.417 362.75 218.75C352.75 186.583 317.167 150.667 256 111C194.667 150.667 159.083 186.583 149.25 218.75C141.25 246.417 153.083 275.25 184.75 305.25C205.583 298.083 229.333 294.583 256 294.75ZM244.25 204.5V178.5H267.75V204.5H291.5V226.75H267.75V268H244.25V226.75H220.5V204.5H244.25Z" fill="#101010"/>
<path d="M245.045 83.3361C239.497 77.7886 239.497 69.3578 245.045 63.8106C254.004 54.8511 271.079 61.2538 271.079 73.5731C271.079 80.9376 263.823 87.6751 255.892 87.6751C252.276 87.6751 247.455 85.7466 245.045 83.3361H245.045ZM172.889 290.731C151.385 264.905 143.282 236.352 151.588 215.675C157.453 201.075 173.494 179.305 189.802 163.814C206.466 147.985 238.261 123.386 250.749 116.66L257.583 112.98L280.282 129.522C337.859 171.482 367.088 210.383 363.574 240.374C361.872 254.903 352.064 274.915 338.895 290.731L327.883 303.956L311.955 299.591C298.664 295.948 289.385 295.226 255.892 295.226C222.399 295.226 213.121 295.948 199.829 299.591L183.902 303.956L172.889 290.731ZM268.909 249.302V228.692H292.774V202.658H268.909V176.624H242.875V202.658H219.011V228.692H242.875V269.912H268.909V249.302ZM186.494 360.489C186.508 360.19 187.961 354.577 189.723 348.014C191.484 341.451 192.937 333.424 192.951 330.176C192.974 324.887 194.279 323.868 205.452 320.414C223.173 314.934 288.347 314.848 305.879 320.282L317.9 324.007L320.456 338.911C321.861 347.109 323.634 355.439 324.396 357.423C325.669 360.741 320.181 361.031 256.124 361.031C217.814 361.031 186.48 360.787 186.494 360.489H186.494ZM78.0564 434.706C87.6071 421.293 89.6124 420.812 141.889 419.397C168.206 418.684 193.221 416.975 197.5 415.597C207.158 412.487 219.327 400.562 224.461 389.176C227.659 382.083 229.432 380.556 234.473 380.556C240.203 380.556 240.514 381.011 239.299 387.607C235.395 408.816 224.584 421.786 200.821 433.77L185.885 441.302H73.3594L78.0564 434.706ZM310.963 433.77C287.066 421.718 277.19 410.269 273.457 390.289C271.677 380.763 271.759 380.558 277.325 380.621C281.935 380.673 284.367 383.034 290.179 393.095C303.643 416.405 313.332 419.543 371.96 419.585C417.888 419.617 423.209 420.889 433.34 434.251L438.686 441.302H325.899L310.963 433.77Z" fill="#F9F9F9"/>
</svg>
