<svg width="512" height="512" viewBox="0 0 512 512" fill="none" xmlns="http://www.w3.org/2000/svg">
<path d="M244.25 74.5V50.75H267.75V74.5H294.5V98.25H267.75V136.5C259.75 133.833 251.917 133.833 244.25 136.5V98.25H217.5V74.5H244.25ZM256 153C248.167 153 236.833 163.083 222 183.25C216.833 177.25 212.667 172.667 209.5 169.5C225 146.167 240.5 134.5 256 134.5C271.333 134.5 286.833 146.167 302.5 169.5C299.167 172.667 295 177.25 290 183.25C275 163.083 263.667 153 256 153ZM144.25 379.75L137.75 418.75L174 397.75L144.25 379.75ZM246.75 328.25C246.583 303.75 243.542 280.875 237.625 259.625C231.708 238.375 225 222.25 217.5 211.25C210 196.583 199.042 183.833 184.625 173C170.208 162.167 156.167 156.75 142.5 156.75C125.333 156.75 108 164.5 90.5 180C73 195.5 64.25 214.583 64.25 237.25C64.25 255.417 71.4583 275.083 85.875 296.25C100.292 317.417 117.167 336 136.5 352C171.833 337.333 208.583 329.417 246.75 328.25ZM256 460.75H112L127.25 369.5C73.0833 322.833 45.9167 278.25 45.75 235.75C45.5833 209.25 56 186.375 77 167.125C98 147.875 120.25 138.25 143.75 138.25C156.75 138.25 169.958 142.167 183.375 150C196.792 157.833 208.667 167.75 219 179.75C229.167 192.083 237.375 205.792 243.625 220.875C249.875 235.958 254 248.5 256 258.5C258 248.5 262.083 235.958 268.25 220.875C274.417 205.792 282.667 192.083 293 179.75C303.167 167.75 315 157.833 328.5 150C342 142.167 355.25 138.25 368.25 138.25C391.583 138.25 413.75 147.875 434.75 167.125C455.75 186.375 466.25 209.25 466.25 235.75C465.917 278.25 438.75 322.833 384.75 369.5L400 460.75H256ZM256 442.25H378.25L365.75 367.75C329.75 353.75 293.167 346.75 256 346.75C218.833 346.75 182.25 353.75 146.25 367.75L133.75 442.25H256ZM367.75 379.75L374.25 418.75L338 397.75L367.75 379.75ZM265.25 328.25C303.417 329.417 340.167 337.333 375.5 352C394.667 336 411.5 317.417 426 296.25C440.5 275.083 447.75 255.417 447.75 237.25C447.75 214.583 438.958 195.5 421.375 180C403.792 164.5 386.5 156.75 369.5 156.75C355.667 156.75 341.542 162.167 327.125 173C312.708 183.833 301.833 196.583 294.5 211.25C286.833 222.25 280.042 238.375 274.125 259.625C268.208 280.875 265.25 303.75 265.25 328.25ZM221.25 386.5L256.5 365.5L290.75 387L255.5 408L221.25 386.5Z" fill="#101010"/>
<path d="M116.869 331.184C83.1862 296.342 66.7617 266.274 66.437 238.861C66.175 216.747 71.4352 203.542 87.235 186.652C121.914 149.58 161.435 149.412 196.638 186.188C212.264 202.512 223.464 221.901 232.261 247.859C239.219 268.388 245.13 299.731 245.144 316.167C245.154 327.261 243.054 328.799 227.797 328.872C213.984 328.939 181.492 335.617 158.373 343.141L135.593 350.555L116.869 331.184ZM253.064 244.245C250.842 233.137 238.516 205.534 230.709 194.185L223.286 183.394L231.302 173.612C250.876 149.724 261.124 149.724 280.699 173.612L288.714 183.394L281.291 194.185C273.485 205.534 261.159 233.137 258.937 244.245C257.263 252.616 254.738 252.616 253.064 244.245V244.245Z" fill="#F9F9F9"/>
<path d="M117.594 331.42C81.5443 291.2 69.429 269.704 67.7093 242.909C66.4468 223.231 69.894 209.962 79.5585 197.301C83.5303 192.098 86.78 186.873 86.78 185.69C86.78 184.507 87.8713 183.539 89.2053 183.539C90.5393 183.539 95.132 180.465 99.4115 176.708C118.698 159.774 142.968 155.086 164.21 164.191C203.197 180.902 230.717 225.49 241.665 289.684C247.609 324.533 246.07 328.895 227.833 328.895C213.253 328.895 187.311 334.139 161.634 342.277C149.698 346.061 138.697 349.395 137.187 349.686C135.677 349.977 126.86 341.757 117.595 331.42H117.594ZM352.527 342.829C330.353 335.582 297.825 328.938 284.204 328.872C268.554 328.797 266.848 327.415 266.848 314.824C266.848 297.985 272.71 267.355 279.853 246.874C288.612 221.759 300.09 202.142 315.363 186.188C350.565 149.413 390.087 149.58 424.766 186.653C440.593 203.571 445.84 216.763 445.533 238.861C445.278 257.158 438.992 273.984 424.142 296.118C413.649 311.759 384.022 345.014 377.801 348.135C375.509 349.286 366.495 347.393 352.527 342.829V342.829ZM136.032 433.573C137.972 420.949 139.729 418.967 158.666 408.044L176.387 397.822L164.669 390.703C146.647 379.756 145.186 378.304 146.686 372.843C148.186 367.385 167.041 360.5 199.865 353.423C225.391 347.919 286.61 347.919 312.135 353.423C344.96 360.5 363.814 367.385 365.314 372.843C366.815 378.304 365.353 379.756 347.332 390.703L335.613 397.822L353.335 408.044C372.271 418.967 374.029 420.949 375.969 433.573L377.219 441.708H134.782L136.032 433.573ZM273.561 398.88C283.001 393.223 290.417 387.67 290.04 386.54C289.664 385.411 281.982 379.863 272.969 374.213L256.583 363.94L239.652 374.1C230.34 379.688 222.434 385.226 222.084 386.408C221.577 388.117 252.582 409.166 255.606 409.166C256.041 409.166 264.121 404.537 273.561 398.88H273.561Z" fill="#F9F9F9"/>
</svg>
