<svg width="512" height="512" viewBox="0 0 512 512" fill="none" xmlns="http://www.w3.org/2000/svg">
<path d="M130.001 442.25H382.001C383.334 426.083 372.334 410.917 349.001 396.75C327.001 379.917 310.626 359.958 299.876 336.875C289.126 313.792 282.501 288.083 280.001 259.75H232.001C229.501 288.083 222.876 313.792 212.126 336.875C201.376 359.958 185.001 379.917 163.001 396.75C139.501 410.917 128.501 426.083 130.001 442.25ZM256.001 460.75H111.501V442.25C110.834 428.917 114.292 417.5 121.876 408C129.459 398.5 139.917 389.5 153.251 381C172.751 365.833 187.042 347.708 196.126 326.625C205.209 305.542 211.751 283.25 215.751 259.75H144.001L215.001 200C200.667 187.667 193.501 172 193.501 153C193.501 135.833 199.584 121.083 211.751 108.75C223.917 96.4167 238.667 90.25 256.001 90.25C273.167 90.25 287.876 96.4167 300.126 108.75C312.376 121.083 318.501 135.833 318.501 153C318.501 172 311.334 187.667 297.001 200L368.001 259.75H296.251C300.084 283.25 306.584 305.542 315.751 326.625C324.917 347.708 339.251 365.833 358.751 381C371.917 389.5 382.292 398.5 389.876 408C397.459 417.5 401.001 428.917 400.501 442.25V460.75H256.001ZM189.001 243.5H323.001L266.751 195.75C289.084 190.583 300.251 176.333 300.251 153C300.251 140.333 295.876 129.792 287.126 121.375C278.376 112.958 268.001 108.75 256.001 108.75C243.834 108.75 233.417 112.958 224.751 121.375C216.084 129.792 211.751 140.333 211.751 153C211.751 176.333 222.917 190.583 245.251 195.75L189.001 243.5Z" fill="#101010"/>
<path d="M218.364 220.337C232.501 208.359 244.339 197.781 244.671 196.83C245.004 195.879 241.281 193.3 236.4 191.099C198.337 173.935 209.377 115.465 251.625 110.461C260.509 109.409 264.415 110.2 274.365 115.068C306.684 130.881 307.429 176.746 275.599 191.099C270.718 193.3 266.996 195.879 267.328 196.83C267.66 197.781 279.498 208.359 293.635 220.337L319.339 242.115H192.66L218.364 220.337Z" fill="#F9F9F9"/>
<path d="M195.255 240.467C195.255 239.561 197.012 237.723 199.16 236.381C204.459 233.072 243.892 198.364 244.765 196.241C245.148 195.309 242.951 193.916 239.883 193.146C236.815 192.376 234.305 191.041 234.305 190.179C234.305 189.317 231.875 187.31 228.903 185.72C216.509 179.087 210.815 153.838 217.894 136.896C219.39 133.316 220.766 129.654 220.951 128.759C221.504 126.092 229.794 118.454 232.136 118.454C233.329 118.454 234.305 117.646 234.305 116.657C234.305 113.357 254.792 109.961 263.226 111.863C275.909 114.723 292.424 127.395 294.778 136.073C299.712 154.261 299.636 161.733 294.414 171.817C290.426 179.52 277.91 191.168 271.403 193.233C268.766 194.07 266.907 195.471 267.271 196.346C268.125 198.4 307.71 233.177 312.841 236.381C314.989 237.723 316.746 239.561 316.746 240.468C316.746 241.374 289.411 242.115 256 242.115C222.59 242.115 195.255 241.374 195.255 240.468V240.467ZM130.17 439.469C130.17 435.507 136.729 421.386 140.558 417.105C142.6 414.822 153.084 405.849 163.856 397.166C202.091 366.344 222.253 330.538 230.351 279.075L233.094 261.641H278.907L281.65 279.075C289.41 328.393 310.07 366.458 343.677 393.356C372.437 416.375 377.137 421.787 380.483 435.742L381.914 441.708H256.042C170.962 441.708 130.17 440.983 130.17 439.469V439.469Z" fill="#F9F9F9"/>
</svg>
