<svg width="512" height="512" viewBox="0 0 512 512" fill="none" xmlns="http://www.w3.org/2000/svg">
<path d="M256 375.25H160.75L162 356.75H350L351.25 375.25H256ZM256 210H173L174.25 191.5H337.75L339 210H256ZM256 460.75H95.75L103 394.75L142.75 365.25L155.25 200.5L118 173.75L113.75 88.5H186V125.25H220.25V88.5H291.75V125.25H326V88.5H398.25L394 173.75L356.75 200.5L369.25 365.25L409 394.75L416.25 460.75H256ZM256 442.25H395.25L391.5 405L351.25 375.25L337.75 191.5L375.75 164.25L379 106.75H344.5V143.75H273.25V106.75H238.75V143.75H167.5V106.75H133L136.25 164.25L174.25 191.5L160.75 375.25L120.5 405L116.75 442.25H256Z" fill="#101010"/>
<path d="M163.958 344.624C165.214 332.203 173.559 219.482 173.559 214.943C173.559 212.178 184.776 211.742 256 211.742C327.224 211.742 338.441 212.178 338.441 214.943C338.441 219.482 346.786 332.203 348.042 344.624L349.084 354.929H162.916L163.958 344.624ZM156.196 176.912L137.763 163.776L136.351 145.997C135.574 136.218 134.842 123.58 134.724 117.912L134.508 107.607H167.051V144.488H240.813V107.607H271.186V144.488H344.949V107.607H377.491L377.276 117.912C377.158 123.58 376.426 136.218 375.649 145.997L374.237 163.776L355.804 176.912L337.37 190.048H174.629L156.196 176.912ZM117.917 437.912C118.498 435.824 119.604 427.647 120.376 419.741L121.779 405.367L141.613 390.995L161.446 376.624H350.553L370.387 390.995L390.221 405.367L391.624 419.741C392.395 427.647 393.502 435.823 394.083 437.912C395.081 441.499 387.47 441.708 256 441.708C124.53 441.708 116.918 441.499 117.917 437.912V437.912Z" fill="#F9F9F9"/>
</svg>
