<svg width="400" height="400" viewBox="0 0 400 400" fill="none" xmlns="http://www.w3.org/2000/svg">
<path d="M159.977 350.621C156.073 349.879 147.377 347.789 140.653 345.978C129.244 342.904 128.303 342.341 126.542 337.514C121.274 323.081 126.557 283.348 135.7 268.632C147.106 250.272 151.33 237.853 152.41 219.495L152.878 211.548L142.624 210.867C131.817 210.151 129.715 209.49 132.715 207.754C134.814 206.538 142.624 196.081 142.624 194.484C142.624 193.901 141.027 192.766 139.074 191.965C134.693 190.164 125.937 178.138 123.68 170.822C116.147 146.396 123.866 124.275 144.583 110.925C158.446 101.992 169.177 99.2468 187.584 99.9281C201.316 100.437 204.687 101.114 213.613 105.156C232.85 113.869 244.068 128.597 247.269 149.342C248.782 159.143 248.584 160.791 244.465 172.651C242.027 179.67 238.562 187.161 236.767 189.299C233.086 193.683 232.614 193.048 245.153 200.593C254.054 205.947 253.227 208.363 241.7 210.692C231.846 212.681 231.753 212.747 231.615 217.855C231.294 229.701 236.621 245.542 244.897 257.357C257.924 275.955 261.846 289.986 260.101 311.775C259.488 319.431 258.033 338.391 257.253 338.391C256.439 338.391 256.584 318.929 257.167 309.811C258.056 295.906 257.743 292.549 254.651 282.847C252.536 276.208 248.006 267.325 243.355 260.685C233.727 246.944 229.389 234.34 229.389 220.106V209.385L237.49 208.487C241.946 207.992 245.922 207.279 246.324 206.902C247.749 205.568 244.876 202.986 238.67 200.02C230.59 196.16 229.948 194.256 234.578 187.868C236.665 184.988 239.995 177.903 241.98 172.121C248.763 152.365 243.509 131.835 227.938 117.252C215.919 105.996 205.207 102.104 186.006 102.017C168.735 101.939 161.568 103.793 149.159 111.555C137.915 118.587 129.827 128.3 125.94 139.44C123.5 146.433 123.369 148.957 124.923 158.946C127.514 175.598 134.41 187.198 144.697 192.209L149.135 194.372L143.39 200.327C140.231 203.602 138.086 206.694 138.624 207.197C139.162 207.7 142.943 208.472 147.029 208.912C154.45 209.711 154.456 209.717 154.933 215.834C156.12 231.075 148.669 254.854 138.62 267.898C136.502 270.647 134.033 275.301 133.133 278.241C129.607 289.753 126.601 313.586 127.255 324.837C127.868 335.376 128.355 336.852 132.16 339.693C137.38 343.592 159.391 349.129 174.085 350.242C198.061 352.056 239.734 346.041 252.776 338.883C257.635 336.216 257.984 336.196 257.509 338.605C256.842 341.983 236.219 348.529 219.415 350.697C204.809 352.58 170.043 352.536 159.978 350.621L159.977 350.621Z" fill="black" stroke="black" stroke-width="13.0997"/>
<path d="M173.6 349.974C161.742 349.016 142.65 344.605 135.567 341.187C131.682 339.312 130.257 338.167 129.248 336.11C125.122 327.702 128.958 286.977 135.055 274.467C135.987 272.556 138.192 268.907 139.955 266.357C146.79 256.481 152.254 242.258 154.445 228.638C155.472 222.25 155.245 211.965 154.046 210.588C153.27 209.696 151.471 209.261 145.069 208.418C143.614 208.217 142.166 207.965 140.729 207.662L138.619 207.2L139.339 205.751C139.736 204.955 142.153 202.072 144.71 199.346L149.36 194.39L144.802 191.912C139.452 189.003 135.749 185.538 132.631 180.52C125.734 169.423 122.421 150.696 125.641 141.007C130.261 127.104 139.921 116.449 155.216 108.387C163.109 104.227 168.647 102.873 180.064 102.313C187.157 101.964 197.271 102.597 202.451 103.714C212.215 105.819 219.123 109.552 227.418 117.208C242.125 130.781 247.768 149.38 242.9 168.231C241.562 173.411 237.585 182.513 234.487 187.484C230.018 194.656 230.399 195.821 238.642 200.205C243.59 202.837 246.488 205.025 246.488 206.13C246.488 206.5 245.553 206.943 244.148 207.24C241.963 207.703 230.983 209.127 229.598 209.127C228.718 209.127 229.201 226.903 230.214 231.834C232.181 241.41 235.466 248.868 242.568 259.887C248.513 269.109 252.618 277.214 254.709 283.859C257.294 292.071 257.409 293.625 256.885 313.486C256.628 323.248 256.508 332.422 256.619 333.872L256.82 336.51L253.771 338.106C238.767 345.956 198.207 351.961 173.6 349.974V349.974Z" fill="#F5E8C7"/>
<path d="M187.362 194.473C185.288 192.53 187.16 191.588 194.827 190.72C199.382 190.203 205.061 189.369 207.447 188.863C212.773 187.736 213.417 190.748 208.236 192.557C203.816 194.1 188.468 195.508 187.362 194.473V194.473ZM185.733 173.447C184.415 169.56 187.271 166.216 189.848 168.63C191.942 170.591 191.189 175.268 188.65 176.059C187.64 176.374 186.327 175.199 185.733 173.447V173.447ZM207.319 168.86C207.609 166.949 209.125 165.19 210.731 164.903C212.967 164.503 213.501 165.164 213.096 167.828C212.806 169.739 211.291 171.498 209.685 171.785C207.449 172.184 206.914 171.524 207.319 168.86V168.86Z" fill="black" stroke="black" stroke-width="2.37114"/>
</svg>
