<svg width="400" height="400" viewBox="0 0 400 400" fill="none" xmlns="http://www.w3.org/2000/svg">
<path d="M150.837 369.287C139.6 368.672 123.531 367.789 115.128 367.326L99.8499 366.483L101.6 362.233C102.563 359.896 103.33 357.075 103.304 355.965C101.993 299.515 104.59 289.445 127.074 263.81C132.612 257.495 136.529 251.984 135.777 251.564C133.807 250.461 97.7109 260.333 93.1519 263.222C89.9879 265.227 68.6439 272.734 67.6649 272.186C65.7679 271.124 84.4239 258.828 100.795 250.352C124.3 238.18 131.44 235.16 144.828 231.724C174.571 224.09 173.824 224.421 177.958 217.014C180.21 212.98 182.06 204.588 182.305 197.301C182.705 185.394 182.378 184.455 176.999 182.072C163.663 176.163 149.309 167.51 144.851 162.691C142.22 159.846 139.261 157.186 138.276 156.779C137.291 156.372 135.416 145.474 134.109 132.562C132.803 119.65 130.013 103.333 127.91 96.304C123.688 82.188 119.47 56.974 121.167 55.983C121.762 55.635 124.974 57.3 128.304 59.683C133.89 63.677 139.212 65.406 138.534 63.005C137.384 58.924 139.276 49.215 141.223 49.215C142.545 49.215 143.626 50.069 143.626 51.112C143.626 53.37 155.719 64.014 158.283 64.014C159.265 64.014 160.769 62.229 161.625 60.047C162.775 57.117 161.817 55.047 157.96 52.127C154.021 49.145 153.136 47.161 154.357 44.049C158.043 34.655 172.737 29.034 193.604 29.034C210.266 29.034 215.664 32.584 218.131 45.161C220.838 58.961 222.777 59.228 233.577 47.279C237.297 43.164 241.292 39.797 242.457 39.797C243.621 39.797 244.573 43.732 244.573 48.542C244.573 59.215 248.407 60.029 255.533 50.87L260.485 44.506L259.938 98.726C259.313 160.682 259.348 160.553 239.288 173.712C232.28 178.309 228.06 182.257 228.745 183.575C229.373 184.784 232.139 191.221 234.892 197.881C242.771 216.941 245.812 220.34 262.14 228.343C288.516 241.271 321.486 261.936 321.486 265.54C321.486 266.236 323.736 268.407 326.486 270.364C334.358 275.966 330.732 277.201 320.227 272.494C302.443 264.526 282.849 257.574 279.38 258C276.633 258.337 277.899 261.706 285.585 274.52C299.029 296.932 302.946 312.295 301.905 338.517C301.289 354.009 302.778 363.227 300.455 364.496C297.792 365.949 294.989 362.231 296.652 356.638C299.788 346.091 298.161 310.61 294.032 299.526C288.252 284.009 272.63 258.151 257.821 239.588C240.132 217.416 225.345 190.643 225.345 180.787C225.345 179.455 229.542 176.243 234.672 173.649C239.802 171.055 246.487 165.759 249.529 161.88C254.961 154.954 255.062 153.948 255.224 105.252C255.388 56.021 255.359 55.716 250.974 61.342C245.35 68.56 242.435 66.973 241.61 56.245C241.257 51.651 240.225 47.887 239.316 47.881C238.408 47.875 234.203 51.805 229.973 56.615C225.743 61.425 221.473 65.36 220.485 65.36C219.497 65.36 217.948 62.04 217.042 57.981C216.136 53.923 214.55 50.311 213.517 49.953C211.62 49.297 205.749 58.433 204.963 63.265C204.108 68.517 199.363 66.651 196.483 59.932C191.998 49.466 188.793 52.778 186.996 69.732C186.685 72.669 182.713 69.974 179.065 64.351C170.788 51.592 167.339 51.512 165.719 64.042C165.148 68.467 163.834 72.087 162.799 72.087C161.765 72.087 156.969 68.757 152.144 64.687C147.318 60.617 142.734 57.287 141.96 57.287C141.184 57.287 141.164 60.617 141.914 64.687C143.49 73.233 140.058 74.557 133.193 68.05C124.183 59.512 123.986 63.263 131.817 94.286C134.432 104.646 137.207 121.9 137.983 132.629C138.999 146.672 140.555 153.655 143.539 157.552C148.387 163.886 172.601 178.992 182.496 181.856C187.742 183.375 189.056 184.538 188.11 186.824C187.43 188.466 186.435 194.652 185.898 200.572C184.423 216.853 179.553 222.751 144.793 250.352C116.205 273.052 103.411 301.874 106.273 337.13C107.083 347.12 108.296 356.307 108.967 357.547C109.672 358.848 108.365 360.402 105.877 361.222C102.127 362.458 102.034 362.819 105.17 363.992C107.153 364.734 110.938 365.362 113.582 365.386C116.226 365.41 128.664 366.046 141.222 366.798C185.089 369.428 290.495 367.904 300.455 364.496C301.446 364.156 302.258 364.472 302.258 365.196C302.258 369.661 205.402 372.278 150.837 369.287V369.287Z" fill="black" stroke="black" stroke-width="10"/>
<path d="M171.078 367.3C142.455 366.74 113.282 365.296 107.783 364.168C103.923 363.377 103.267 362.344 106.149 361.595C108.996 360.855 109.816 358.907 108.926 355.004C107.277 347.771 105.96 328.449 106.583 320.639C108.366 298.294 116.403 279.707 131.245 263.606C133.575 261.08 143.724 252.119 153.8 243.692C180.55 221.32 184.326 216.257 186.46 199.892C186.997 195.778 187.7 190.455 188.023 188.063L188.609 183.715L182.444 181.425C169.898 176.763 146.664 161.775 143.011 155.986C141.288 153.256 139.133 142.454 138.364 132.699C137.467 121.306 134.527 104.021 130.828 88.399C126.808 71.419 125.93 64.949 127.644 64.949C128.311 64.949 131.079 66.672 133.795 68.777C136.512 70.882 139.129 72.605 139.61 72.605C142.076 72.605 142.811 70.185 142.172 64.178C141.814 60.813 141.81 58.06 142.163 58.06C142.517 58.06 146.553 60.982 151.133 64.553C162.073 73.083 162.833 73.403 164.453 70.156C165.146 68.766 166.013 65.596 166.378 63.11C167.042 58.603 168.496 54.998 169.651 54.998C170.896 54.998 175.165 59.339 177.955 63.443C181.267 68.313 184.155 71.073 185.937 71.073C186.787 71.073 187.49 69.087 188.173 64.753C189.24 57.981 190.593 54.232 191.972 54.232C192.733 54.232 196.769 60.404 196.769 61.569C196.769 61.825 197.639 63.034 198.701 64.257C200.676 66.53 204.023 67.242 204.651 65.524C207.437 57.889 208.461 55.709 210.418 53.248C211.685 51.654 213.115 50.548 213.595 50.792C214.075 51.035 214.923 52.684 215.479 54.456C218.274 63.37 219.329 65.715 220.539 65.715C221.252 65.715 225.685 61.721 230.391 56.84C235.097 51.959 239.163 48.142 239.427 48.358C239.691 48.575 240.507 52.264 241.239 56.557C241.971 60.849 242.799 64.666 243.081 65.038C244.241 66.578 247.317 65.524 250.178 62.607C252.805 59.927 253.318 59.69 253.893 60.884C254.86 62.894 254.793 140.6 253.817 148.861C253.309 153.166 252.274 156.991 251.115 158.853C248.447 163.138 241.278 169.433 235.165 172.86C232.288 174.472 228.735 176.83 227.269 178.101C224.873 180.178 224.672 180.746 225.28 183.731C227.631 195.275 239.857 216.601 257.464 239.875C268.875 254.957 276.307 266.091 283.124 278.315C290.969 292.381 293.667 298.723 295.378 307.117C297.449 317.282 298.238 343.947 296.757 353.781C295.885 359.569 295.837 362.138 296.58 363.275C297.53 364.729 297.27 364.865 292.728 365.311C274.941 367.055 211.557 368.091 171.078 367.299V367.3Z" fill="#F5E8C7"/>
<path d="M183.088 156.08C180.152 150.986 180.436 150.947 189.584 155.184C195.573 157.957 198.209 158.09 205.309 155.979C210 154.585 216.072 151.557 218.802 149.25C221.531 146.942 225.098 145.467 226.729 145.971C228.493 146.518 225.649 149.611 219.717 153.6C211.489 159.132 207.616 160.309 197.633 160.309C187.858 160.309 185.057 159.495 183.088 156.08V156.08ZM180.811 134.935C180.811 133.772 181.836 132.821 183.089 132.821C184.341 132.821 185.367 133.772 185.367 134.935C185.367 136.098 184.341 137.049 183.088 137.049C181.836 137.049 180.81 136.098 180.81 134.935H180.811ZM207.385 131.411C204.765 128.978 205.727 126.476 209.283 126.476C211.163 126.476 212.7 127.905 212.7 129.648C212.7 132.95 210.006 133.844 207.385 131.411V131.411Z" fill="black" stroke="black" stroke-width="3.90989"/>
<path d="M186.89 52.315C191.584 44.107 195.932 43.378 197.955 50.459C199.387 55.473 203.714 58.29 203.714 54.209C203.714 53.255 205.897 50.077 208.566 47.148C212.623 42.693 212.962 41.206 210.639 38.067C207.209 33.431 201.799 31.725 190.533 31.725C180.886 31.725 171.019 34.145 164.68 38.065C159.394 41.335 157.152 47.929 160.431 50.56C162.633 52.328 163.346 52.286 166.169 50.224C170.614 46.977 171.152 47.142 176.073 53.251C178.458 56.211 181.056 58.629 181.846 58.626C182.637 58.622 184.906 55.782 186.889 52.316L186.89 52.315ZM315.436 264.815C301.898 252.887 260.901 227.982 257.729 229.758C256.959 230.189 260.443 235.276 265.472 241.062C273.919 250.777 276.178 252.219 295.047 259.932C306.284 264.525 316.413 268.335 317.556 268.399C318.7 268.462 317.746 266.849 315.436 264.815V264.815ZM123.984 251.108C138.698 246.491 150.667 241.738 153.372 239.436C155.882 237.3 159.715 234.19 161.89 232.525C165.6 229.685 165.575 229.498 161.485 229.498C152.705 229.498 122.689 241.069 100.998 252.816C77.2179 265.693 72.2899 269.889 88.9459 263.076C94.5649 260.778 110.332 255.393 123.984 251.108V251.108Z" fill="#F5E8C7"/>
</svg>
