<svg width="144" height="144" viewBox="0 0 144 144" fill="none" xmlns="http://www.w3.org/2000/svg">
<path d="M75.4772 7.56003C75.9521 7.31795 76.492 7.1811 77.0646 7.1811C78.9641 7.1811 80.5039 8.68712 80.5039 10.5449C80.5039 12.2833 79.1556 13.7136 77.426 13.8903C78.01 14.3181 78.3874 14.9967 78.3874 15.7606C78.3874 17.0141 77.3714 18.0378 76.0936 18.1009C76.1055 18.1854 76.1142 18.2745 76.1197 18.3685C76.2431 21.021 80.1418 23.3966 81.572 24.1808C93.4466 26.3713 101.131 31.0284 102.576 39.2693C103.679 45.6757 99.6201 53.6142 97.0387 57.8646H103.03V66.1795H93.0152L103.781 122.494H113.953V130.205H107.792V132.548H113.802V140.258H30.0094V132.548H36.548V130.205H30.1606V122.494H40.5487L49.9689 66.1795H41.1213V57.8646H46.3188C43.7374 53.6142 39.6784 45.6757 40.7811 39.2693C42.1088 31.7016 48.6972 27.156 58.9606 24.7676V24.7559C58.9606 24.7559 68.5228 22.3748 67.5024 18.3685C67.4789 18.2765 67.4588 18.1883 67.442 18.1039L67.4268 18.1039C66.0909 18.1039 65.0079 17.0548 65.0079 15.7606C65.0079 14.9967 65.3853 14.3181 65.9693 13.8903C64.2396 13.7136 62.8913 12.2833 62.8913 10.5449C62.8913 8.68712 64.4312 7.1811 66.3307 7.1811C66.9974 7.1811 67.6199 7.36664 68.1469 7.68782C68.1456 7.64507 68.1449 7.60214 68.1449 7.55905C68.1449 5.4508 69.7863 3.74173 71.811 3.74173C73.8358 3.74173 75.4772 5.45178 75.4772 7.56003Z" fill="#688883"/>
<path d="M76.1092 18.3891C76.116 18.3755 76.1197 18.3685 76.1197 18.3685L76.0819 18.3307C76.0819 18.3307 76.0913 18.3512 76.1092 18.3891Z" fill="#305864"/>
<path d="M76.1092 18.3891C75.9636 18.6814 74.3804 22.0053 76.8 23.811C78.0441 24.7535 80.2189 25.5174 82.4992 26.3183C84.791 27.1233 87.1895 27.9657 88.8567 29.0646C89.3513 29.3869 89.8965 29.7125 90.4669 30.0531C93.7762 32.0291 97.9331 34.5114 97.9654 39.7984C98.0409 45.9968 96.7181 48.7181 92.7118 53.0646C88.6677 57.4488 86.0976 57.8268 86.0976 57.8268H96.9827C96.9827 57.8268 100.271 52.0819 101.14 49.285L101.145 49.2683C102.014 46.4741 103.104 42.9657 102.501 39.1937C101.896 35.4142 99.0992 30.6898 94.715 28.611C93.1978 27.8786 92.3414 27.4223 91.7386 27.101C90.5995 26.494 90.3659 26.3696 88.2898 25.7764C85.3588 24.9289 84.8034 24.8072 84.4656 24.7332C84.4419 24.728 84.4192 24.7231 84.3969 24.7181C84.0567 24.6425 80.8063 23.6976 80.8063 23.6976C80.8063 23.6976 79.1055 22.7528 78.1606 21.7701C77.302 20.8771 76.2873 18.767 76.1092 18.3891Z" fill="#305864"/>
<path d="M87.3827 66.1795L86.0976 57.8646H103.03V66.1795L93.052 66.1795L103.937 122.457H113.991V130.167L107.906 130.054V132.435L113.839 132.548V140.258H101.896C101.896 140.258 101.215 136.354 100.005 132.472H36.6614V130.091H99.1833C98.7299 128.929 98.2896 128.172 97.8519 127.419C96.6592 125.369 95.4847 123.35 94.1102 113.235C92.2583 99.326 88.4409 71.622 88.4409 71.622L53.1959 66.1795L87.3827 66.1795Z" fill="#305864"/>
<path d="M53.1959 66.1795L52.9512 66.1417V66.1795H53.1959Z" fill="#305864"/>
</svg>
