<svg width="144" height="144" viewBox="0 0 144 144" fill="none" xmlns="http://www.w3.org/2000/svg">
<path d="M27.8861 61.0537C25.7715 57.3971 25.686 57.2491 31.3323 52.0819C34.1474 49.5212 38.2141 45.0999 42.2566 40.7051C47.8204 34.6561 53.3382 28.6572 55.4835 27.6284C56.1955 27.2855 56.8017 27.0163 57.4338 26.7356C58.6134 26.2117 59.8828 25.648 62.0976 24.4913C62.9606 24.0311 62.7119 22.6757 62.4309 21.1441C61.6041 16.6384 60.4976 10.6075 86.589 21.3543C121.55 35.7543 113.991 62.3622 106.507 75.137C99.7996 86.5871 103.051 102.774 105.921 117.057C106.252 118.709 106.579 120.336 106.885 121.928C106.917 122.093 106.947 122.257 106.974 122.419H117.43V130.129H111.269V132.51H117.279V140.22H33.4866V132.51H40.0252V130.129H33.6378V122.419H45.3561C45.354 119.333 45.147 115.2 44.7496 109.531C43.8774 96.6583 48.1987 93.1197 54.0758 88.307C55.5843 87.0718 57.1953 85.7526 58.8472 84.1701C60.6142 82.4691 62.3452 80.8494 63.9683 79.3305C69.7748 73.8969 74.2017 69.7543 73.9653 67.8047C73.663 65.3102 72.4535 63.0047 67.6535 61.8709C63.9651 61.0286 55.3445 63.8911 48.8401 66.0508C46.8801 66.7017 45.1119 67.2888 43.7291 67.6913C37.7197 69.4299 31.3323 67.2756 28.611 62.3244C28.3502 61.8563 28.1069 61.4356 27.8861 61.0537Z" fill="#688883"/>
<path d="M70.9417 57.1843C64.252 57.4488 61.0394 62.1354 61.0394 62.1354L61.0772 62.0976C72.189 62.778 73.3228 69.6567 73.3228 69.6567C73.3228 69.6567 82.3559 67.1622 82.3559 61.4551C82.3559 55.748 73.7764 44.674 73.7764 44.674C73.7764 44.674 77.5937 56.9197 70.9417 57.1843Z" fill="#305864"/>
<path d="M101.876 30.329C100.238 28.821 98.9858 28.1197 98.9858 28.1197H98.948C99.9952 28.829 100.97 29.5668 101.876 30.329Z" fill="#305864"/>
<path d="M111.231 130.129V130.091H117.392V122.381H106.923C106.923 122.381 103.332 105.449 102.539 94.8661C101.745 84.2835 104.731 77.7071 108.964 70.1858C112.925 63.049 117.189 43.2108 101.876 30.329C106.103 34.2215 112.896 43.4891 107.339 59.9433C104.011 69.7964 99.6126 77.5866 95.8765 84.2041C90.9566 92.9184 87.1846 99.5994 88.5165 106.28C90.0622 114.034 89.7168 117.544 89.5412 119.329C89.4506 120.25 89.4052 120.711 89.6882 121.058C90.5197 122.079 93.2031 122.079 97.0583 120.907C100.196 119.954 100.329 121.653 100.454 123.236C100.482 123.598 100.51 123.954 100.573 124.271C100.702 124.902 101.125 127.342 101.6 130.129H40.063V132.51H102.004C102.663 136.403 103.294 140.183 103.294 140.183H117.241V132.472H111.307V130.129H111.231Z" fill="#305864"/>
</svg>
