<svg width="256" height="256" viewBox="0 0 256 256" fill="none" xmlns="http://www.w3.org/2000/svg">
<path fill-rule="evenodd" clip-rule="evenodd" d="M128.444 10.1597C114.896 10.1607 103.862 21.3223 103.862 34.9326C103.866 39.587 105.185 44.1064 107.602 48.0098C102.782 51.7411 97.8449 55.5453 94.5077 58.6225C93.7046 59.3629 93.2247 60.3896 93.1718 61.4806C93.1189 62.5717 93.4973 63.6396 94.2249 64.4542L94.6535 64.937C94.6545 64.9361 94.6526 64.938 94.6535 64.937L97.6301 68.2738L86.2215 79.1508L82.0025 74.3799C81.2595 73.567 80.2243 73.0815 79.1242 73.0303C78.024 72.9791 76.9486 73.3663 76.1333 74.1067C48.0813 99.7617 29.1378 143.368 36.1073 177.925C36.2977 178.867 36.8084 179.713 37.5521 180.322C38.2959 180.93 39.2274 181.262 40.1882 181.262H48.981C48.9834 181.31 48.981 181.325 48.981 181.359H207.056C207.059 181.31 207.061 181.296 207.056 181.262H216.625C217.641 181.262 218.623 180.89 219.384 180.216C220.145 179.543 220.633 178.614 220.756 177.605C224.694 145.307 209.626 101.926 148.865 48.6004C151.525 44.5673 153.004 39.8314 153.009 34.9332C153.009 21.3234 141.975 10.1647 128.428 10.1627L128.444 10.1597ZM42.4004 195.122C41.3575 195.195 40.3803 195.658 39.6631 196.419C38.9459 197.18 38.5412 198.182 38.5296 199.228C38.5296 208.561 38.7202 219.817 43.8345 229.344C48.9483 238.871 59.5123 245.841 76.9572 245.841H179.051C196.512 245.841 207.08 238.763 212.194 229.2C217.308 219.636 217.509 208.382 217.509 199.228C217.498 198.182 217.093 197.18 216.376 196.419C215.659 195.658 214.681 195.195 213.639 195.122H42.4004Z" fill="#808080"/>
<path fill-rule="evenodd" clip-rule="evenodd" d="M203.381 170.896C203.381 232.267 169.685 230.245 128.706 230.245C87.7272 230.245 52.6069 232.267 52.6069 170.896C52.6069 109.525 87.7272 57.1958 128.706 57.1958C169.685 57.1958 203.381 109.525 203.381 170.896Z" fill="url(#paint0_linear_703_230)"/>
<path d="M179.027 241.679C211.891 241.679 213.323 217.315 213.323 199.227H42.6639C42.6639 217.684 44.0656 241.679 76.9296 241.679H179.027Z" fill="url(#paint1_linear_703_230)"/>
<path d="M128.418 14.3181C125.736 14.318 123.08 14.8508 120.602 15.8866C118.124 16.9223 115.873 18.4405 113.976 20.3544C112.08 22.2682 110.576 24.5403 109.549 27.0408C108.523 29.5414 107.995 32.2215 107.995 34.9281C108 40.0342 109.883 44.9565 113.28 48.7412C107.239 53.3716 101.205 58.0806 97.2997 61.682L143.726 113.635L126.053 130.482L78.9164 77.1748C51.944 101.842 33.6308 144.717 40.1616 177.099H216.617C220.415 145.956 206.061 103.151 143.25 49.0744C146.834 45.252 148.833 40.1906 148.838 34.9281C148.838 29.4624 146.687 24.2205 142.858 20.3554C139.028 16.4903 133.834 14.3186 128.418 14.3181Z" fill="url(#paint2_radial_703_230)"/>
<defs>
<linearGradient id="paint0_linear_703_230" x1="58.4132" y1="-51.3413" x2="197.673" y2="-51.3413" gradientUnits="userSpaceOnUse">
<stop stop-color="#DE6F00"/>
<stop offset="0.190644" stop-color="#FF9A35"/>
<stop offset="0.246967" stop-color="#FFCA94"/>
<stop offset="0.298072" stop-color="#FFC488"/>
<stop offset="0.342166" stop-color="#FFA244"/>
<stop offset="0.415058" stop-color="#FF9E3D"/>
<stop offset="0.492164" stop-color="#FF9E3D"/>
<stop offset="0.584086" stop-color="#FF8A14"/>
<stop offset="0.67331" stop-color="#DD6F00"/>
<stop offset="0.728321" stop-color="#D66B00"/>
<stop offset="0.798373" stop-color="#FF850B"/>
<stop offset="0.846643" stop-color="#FFB76F"/>
<stop offset="0.905813" stop-color="#FFDCB8"/>
<stop offset="0.960237" stop-color="#FFA040"/>
<stop offset="1" stop-color="#FF870E"/>
</linearGradient>
<linearGradient id="paint1_linear_703_230" x1="141.078" y1="211.403" x2="141.078" y2="281.177" gradientUnits="userSpaceOnUse">
<stop stop-color="#0D0D0D"/>
<stop offset="1" stop-color="#4D4D4D"/>
</linearGradient>
<radialGradient id="paint2_radial_703_230" cx="0" cy="0" r="1" gradientUnits="userSpaceOnUse" gradientTransform="translate(129.189 180.141) rotate(0.512045) scale(205.996 166.797)">
<stop stop-color="#0D0D0D"/>
<stop offset="1" stop-color="#333333"/>
</radialGradient>
</defs>
</svg>
