<svg width="256" height="256" viewBox="0 0 256 256" fill="none" xmlns="http://www.w3.org/2000/svg">
<path fill-rule="evenodd" clip-rule="evenodd" d="M115.062 10.1569C112.763 10.1569 110.9 12.0255 110.904 14.3253V23.2845H97.6355C95.3417 23.2845 93.4829 25.1464 93.4798 27.4402V47.8258C93.4798 50.1207 95.3407 51.981 97.6355 51.9841H102.756C98.164 54.3977 93.7506 57.305 89.576 60.7871C55.0551 52.3282 27.349 67.824 16.7508 93.0401C5.90908 118.837 12.5188 153.851 43.3915 181.614C44.1562 182.301 45.1481 182.681 46.1762 182.68H47.1591C47.1591 182.723 47.172 182.761 47.1745 182.804H210.265L211.898 181.128C242.706 150.637 249.951 116.026 239.836 90.9163C229.947 66.3668 203.019 52.1982 169.274 60.2307C165.479 57.0867 161.535 54.2403 157.374 51.9999H158.296C160.59 51.9999 162.449 50.1379 162.452 47.8441V27.4585C162.452 25.1636 160.591 23.3033 158.296 23.3002H144.677V14.3309C144.677 12.0291 142.813 10.1627 140.511 10.1651L115.062 10.1569ZM39.6339 196.566C38.9861 197.303 38.6193 198.244 38.5981 199.225C38.5981 208.558 38.7887 219.811 43.903 229.338C49.0169 238.865 59.5826 245.843 77.0256 245.843H179.115C196.574 245.843 207.144 238.757 212.258 229.195C217.372 219.632 217.573 208.379 217.573 199.225C217.552 198.244 217.185 197.303 216.537 196.566H39.6339Z" fill="#808080"/>
<path fill-rule="evenodd" clip-rule="evenodd" d="M208.114 161.971H50.3482C50.2748 163.988 50.2382 166.016 50.2382 168.053C50.2382 232.357 87.0366 230.24 129.974 230.24C172.911 230.24 208.218 232.357 208.218 168.053C208.218 166.016 208.167 163.988 208.114 161.971Z" fill="url(#paint0_linear_703_222)"/>
<path fill-rule="evenodd" clip-rule="evenodd" d="M129.976 48.9194C88.3986 48.9194 52.5758 100.33 50.3479 161.971H208.114C205.975 100.33 171.554 48.9194 129.976 48.9194Z" fill="#E67300"/>
<path d="M179.122 241.673C211.983 241.673 213.416 217.312 213.416 199.225H42.7701C42.7701 217.681 44.1719 241.673 77.0333 241.673H179.122Z" fill="url(#paint1_linear_703_222)"/>
<path d="M115.067 14.3303V27.4512H97.6393V47.832H115.067C115.067 63.6153 110.459 60.7275 97.7692 67.2881C25.2688 40.9695 -15.4562 123.099 46.1828 178.53L208.973 178.163C271.736 116.045 231.236 39.6999 158.231 67.706C143.302 60.8376 140.543 64.7062 140.543 47.8294H158.329V27.4487H140.543V14.3278L115.067 14.3303ZM177.671 97.173C198.571 98.9391 206.684 128.576 152.032 159.863V108.302C162.158 99.7524 168.161 96.3877 177.671 97.173ZM81.5421 97.3988C90.3695 97.6767 94.5886 101.154 103.448 108.64V160.172C48.8288 128.913 56.9419 99.2492 77.8421 97.5108C79.0714 97.4007 80.3071 97.3674 81.5421 97.3988Z" fill="url(#paint2_radial_703_222)"/>
<defs>
<linearGradient id="paint0_linear_703_222" x1="56.3219" y1="119.15" x2="202.238" y2="119.15" gradientUnits="userSpaceOnUse">
<stop stop-color="#DE6F00"/>
<stop offset="0.190644" stop-color="#FF9A35"/>
<stop offset="0.246967" stop-color="#FFCA94"/>
<stop offset="0.298072" stop-color="#FFC488"/>
<stop offset="0.342166" stop-color="#FFA244"/>
<stop offset="0.415058" stop-color="#FF9E3D"/>
<stop offset="0.492164" stop-color="#FF9E3D"/>
<stop offset="0.584086" stop-color="#FF8A14"/>
<stop offset="0.67331" stop-color="#DD6F00"/>
<stop offset="0.728321" stop-color="#D66B00"/>
<stop offset="0.798373" stop-color="#FF850B"/>
<stop offset="0.846643" stop-color="#FFB76F"/>
<stop offset="0.905813" stop-color="#FFDCB8"/>
<stop offset="0.960237" stop-color="#FFA040"/>
<stop offset="1" stop-color="#FF870E"/>
</linearGradient>
<linearGradient id="paint1_linear_703_222" x1="-104.726" y1="205.838" x2="-104.726" y2="275.606" gradientUnits="userSpaceOnUse">
<stop stop-color="#0D0D0D"/>
<stop offset="1" stop-color="#4D4D4D"/>
</linearGradient>
<radialGradient id="paint2_radial_703_222" cx="0" cy="0" r="1" gradientUnits="userSpaceOnUse" gradientTransform="translate(130.307 177.794) scale(409.936 185.143)">
<stop stop-color="#0D0D0D"/>
<stop offset="1" stop-color="#333333"/>
</radialGradient>
</defs>
</svg>
