<svg width="256" height="256" viewBox="0 0 256 256" fill="none" xmlns="http://www.w3.org/2000/svg">
<path fill-rule="evenodd" clip-rule="evenodd" d="M98.2976 9.35767C83.5954 9.35767 71.3224 20.6715 71.3027 34.8714C71.3027 44.3756 77.0672 52.6969 85.609 57.0813L85.0468 68.5039C80.6168 72.5975 76.5435 77.3493 72.7317 82.5129L61.7622 65.7059C63.7941 62.0459 65.1434 58.0618 65.1326 53.8763C65.1301 39.6858 52.8597 28.3843 38.1737 28.3656C23.472 28.3656 11.1972 39.6765 11.1771 53.8763C11.1795 65.3928 19.3564 75.1625 30.5998 78.2962L45.8441 174.499C46.0651 182.57 47.0767 189.366 48.5198 195.521H42.0854C40.9742 195.521 39.9088 195.962 39.1232 196.747C38.3375 197.533 37.8956 198.599 37.8956 199.71C37.8956 209.108 38.0873 220.44 43.2362 230.032C48.3855 239.624 59.0214 246.643 76.5858 246.643H179.385C196.964 246.643 207.604 239.516 212.753 229.887C217.902 220.258 218.105 208.927 218.105 199.71C218.105 198.599 217.663 197.534 216.878 196.748C216.092 195.962 215.027 195.521 213.916 195.521H206.644C207.859 190.137 208.766 184.28 209.079 177.442L224.684 79.0082C236.25 76.1132 244.794 66.229 244.823 54.4601C244.823 40.2357 232.526 28.8983 217.799 28.914C203.086 28.914 190.807 40.249 190.807 54.4601C190.807 58.2675 191.956 61.9011 193.663 65.2858L182.641 81.9261C178.736 76.5862 174.545 71.6968 169.961 67.5275L169.519 56.983C177.929 52.5657 183.576 44.3098 183.596 34.9122C183.596 20.7 171.317 9.36606 156.601 9.36606C141.899 9.36606 129.624 20.6793 129.604 34.8792C129.606 40.6777 131.806 46.1928 135.542 50.6582C133.123 50.3243 130.729 49.8508 128.251 49.8508C125.338 49.8508 122.47 50.1652 119.627 50.6282L119.573 50.407C123.181 45.98 125.293 40.5603 125.298 34.8792C125.298 20.6724 113 9.35767 98.2976 9.35767Z" fill="#808080"/>
<path fill-rule="evenodd" clip-rule="evenodd" d="M205.065 170.271C205.065 233.012 170.398 230.946 128.237 230.946C86.0755 230.946 49.9417 233.012 49.9417 170.271C49.9417 107.53 86.0755 54.0334 128.237 54.0334C170.398 54.0334 205.065 107.53 205.065 170.271Z" fill="url(#paint0_linear_703_199)"/>
<path d="M179.378 242.459C212.467 242.459 213.91 217.929 213.91 199.717H42.0806C42.0806 218.3 43.4926 242.459 76.5816 242.459H179.378Z" fill="url(#paint1_linear_703_199)"/>
<path d="M98.2976 13.541C85.714 13.541 75.5082 23.0854 75.4919 34.8693C75.4919 43.6279 81.2201 51.4926 89.9185 54.7106L87.0945 112.177L56.9521 66.0039C59.5627 62.4354 60.9539 58.2075 60.9423 53.882C60.9423 42.1092 50.7389 32.5696 38.1675 32.5537C25.5839 32.5537 15.378 42.0981 15.3611 53.882C15.3638 64.2773 23.3592 73.1614 34.2997 74.9243L50.7732 178.878H204.603L220.984 75.5531C232.228 74.0795 240.602 65.0853 240.629 54.4535C240.629 42.6469 230.4 33.081 217.792 33.0969C205.197 33.0969 194.986 42.6585 194.986 54.4535C194.986 58.4153 196.19 62.2957 198.424 65.6605L167.637 112.149L165.212 54.6249C173.773 51.3499 179.374 43.558 179.393 34.8977C179.393 23.1027 169.183 13.541 156.587 13.541C144.003 13.541 133.798 23.0854 133.781 34.8693C133.784 40.4214 136.096 45.7536 140.227 49.736L127.366 112.149L115.088 49.3075C118.953 45.37 121.1 40.2177 121.104 34.8693C121.104 23.0854 110.881 13.541 98.2976 13.541Z" fill="url(#paint2_radial_703_199)"/>
<defs>
<linearGradient id="paint0_linear_703_199" x1="55.9154" y1="-56.927" x2="199.193" y2="-56.927" gradientUnits="userSpaceOnUse">
<stop stop-color="#DE6F00"/>
<stop offset="0.190644" stop-color="#FF9A35"/>
<stop offset="0.246967" stop-color="#FFCA94"/>
<stop offset="0.298072" stop-color="#FFC488"/>
<stop offset="0.342166" stop-color="#FFA244"/>
<stop offset="0.415058" stop-color="#FF9E3D"/>
<stop offset="0.492164" stop-color="#FF9E3D"/>
<stop offset="0.584086" stop-color="#FF8A14"/>
<stop offset="0.67331" stop-color="#DD6F00"/>
<stop offset="0.728321" stop-color="#D66B00"/>
<stop offset="0.798373" stop-color="#FF850B"/>
<stop offset="0.846643" stop-color="#FFB76F"/>
<stop offset="0.905813" stop-color="#FFDCB8"/>
<stop offset="0.960237" stop-color="#FFA040"/>
<stop offset="1" stop-color="#FF870E"/>
</linearGradient>
<linearGradient id="paint1_linear_703_199" x1="141.17" y1="206.375" x2="141.17" y2="276.627" gradientUnits="userSpaceOnUse">
<stop stop-color="#0D0D0D"/>
<stop offset="1" stop-color="#4D4D4D"/>
</linearGradient>
<radialGradient id="paint2_radial_703_199" cx="0" cy="0" r="1" gradientUnits="userSpaceOnUse" gradientTransform="translate(131.412 175.339) scale(412.777 186.425)">
<stop stop-color="#0D0D0D"/>
<stop offset="1" stop-color="#333333"/>
</radialGradient>
</defs>
</svg>
