<svg width="256" height="256" viewBox="0 0 256 256" fill="none" xmlns="http://www.w3.org/2000/svg">
<path fill-rule="evenodd" clip-rule="evenodd" d="M72.1368 11.6694L42.22 16.0646C41.2445 16.2073 40.3512 16.6917 39.6995 17.4315C39.0477 18.1712 38.6798 19.1187 38.6612 20.1044L37.8826 61.1375C37.8825 61.1554 37.8825 61.1732 37.8826 61.1911L37.3635 104.724C37.355 105.422 37.5226 106.11 37.8498 106.726C38.1771 107.343 38.6536 107.867 39.2363 108.25L54.8436 118.525C54.8613 118.543 54.8791 118.561 54.8972 118.579C60.5299 122.174 63.918 124.004 65.4419 125.889C66.7992 127.57 67.5118 130.415 67.6142 136.209C54.2855 146.315 44.4749 159.51 40.8651 174.46C40.7177 175.072 40.711 175.709 40.8454 176.324C40.9799 176.939 41.252 177.515 41.6414 178.01C42.0307 178.504 42.5272 178.903 43.0933 179.178C43.6595 179.453 44.2809 179.596 44.9102 179.596H47.4629C47.4654 179.645 47.4629 179.66 47.4629 179.694H207.735C207.738 179.645 207.735 179.63 207.735 179.596H212.47C213.097 179.596 213.715 179.454 214.279 179.182C214.844 178.909 215.339 178.513 215.728 178.023C216.118 177.532 216.392 176.96 216.529 176.349C216.667 175.738 216.664 175.103 216.523 174.493C212.819 158.548 202.282 144.555 187.838 134.208C187.784 131.23 187.838 128.484 188.018 127.3C188.136 126.593 188.219 126.288 188.253 126.172C188.253 126.172 188.194 126.225 188.185 126.225C188.277 126.147 188.297 126.06 188.253 126.172C190.535 124.687 197.146 120.361 203.436 116.438L215.407 108.868C216.008 108.489 216.501 107.961 216.841 107.337C217.18 106.713 217.354 106.013 217.345 105.302L216.826 61.497C216.826 61.498 216.826 61.4961 216.826 61.497C216.826 61.4962 216.826 61.4925 216.826 61.4917C216.826 61.4909 216.826 61.4854 216.826 61.4845C216.826 61.4855 216.826 61.4836 216.826 61.4845C216.826 61.4837 216.826 61.48 216.826 61.4792C216.826 61.48 216.826 61.4784 216.826 61.4792C216.826 61.4784 216.826 61.4746 216.826 61.4738C216.826 61.473 216.826 61.4675 216.826 61.4667L216.045 20.1639C216.026 19.179 215.658 18.2321 215.007 17.4928C214.356 16.7535 213.463 16.2692 212.489 16.1259L182.573 11.729C181.981 11.6426 181.379 11.6843 180.805 11.8516C180.232 12.0189 179.701 12.3074 179.249 12.6981C178.797 13.0888 178.435 13.5723 178.186 14.1156C177.938 14.6588 177.809 15.2494 177.809 15.8467V38.9966H157.527L156.985 30.1961L156.204 17.2201C156.14 16.1617 155.675 15.1675 154.903 14.4406C154.131 13.7137 153.111 13.309 152.05 13.3089H102.623C101.563 13.3091 100.542 13.7137 99.7706 14.4406C98.9988 15.1675 98.533 16.1618 98.4693 17.2201L97.6906 30.1961L97.1489 38.9966H76.8666L76.8642 15.8467C76.8641 15.2993 76.7562 14.7569 76.5463 14.2513C76.3364 13.7457 76.0285 13.2865 75.6408 12.8999C75.2531 12.5134 74.7934 12.2076 74.2871 11.9992C73.7808 11.7909 73.2379 11.6845 72.6905 11.6861C72.4913 11.6897 72.293 11.7076 72.0963 11.7397L72.1368 11.6694ZM49.5483 193.456C49.5483 193.504 49.5483 193.524 49.5483 193.558H43.8119C42.7086 193.558 41.6506 193.997 40.8704 194.777C40.0903 195.557 39.6515 196.615 39.6512 197.719C39.6512 207.053 39.8418 218.308 44.9561 227.835C50.0704 237.362 60.6343 244.332 78.0786 244.332H180.175C197.635 244.332 208.203 237.254 213.317 227.691C218.431 218.128 218.635 206.873 218.635 197.719C218.635 196.615 218.196 195.557 217.416 194.777C216.636 193.997 215.578 193.558 214.474 193.558H205.707C205.707 193.509 205.707 193.49 205.707 193.456H49.5483Z" fill="#333333"/>
<path fill-rule="evenodd" clip-rule="evenodd" d="M50.1931 163.303C50.1394 165.02 50.1097 166.743 50.1097 168.475C50.1097 230.79 85.7697 228.737 127.379 228.737C168.988 228.737 203.202 230.79 203.202 168.475C203.202 166.743 203.148 165.02 203.124 163.303H50.1931Z" fill="url(#paint0_linear_703_145)"/>
<path d="M179.253 240.172C212.117 240.172 213.55 215.807 213.55 197.719H42.8882C42.8882 216.177 44.2901 240.172 77.1543 240.172H179.253Z" fill="url(#paint1_linear_703_145)"/>
<path fill-rule="evenodd" clip-rule="evenodd" d="M73.3675 15.8292L43.4495 20.2255L42.1493 104.793L57.759 115.066C68.6752 122.036 72.7023 122.315 72.5179 138.035C58.8346 147.83 49.0376 160.918 45.5336 175.433H213.116C209.524 159.967 199.035 146.121 184.279 136.152C183.972 127.109 184.654 124.174 186.272 122.911C188.353 121.559 195.378 116.96 201.882 112.904L213.85 105.332L212.551 20.2255L182.636 15.8292V43.1409H154.277L152.717 17.4508H103.288L101.728 43.1409H73.3698L73.3675 15.8292Z" fill="url(#paint2_radial_703_145)"/>
<path d="M176.088 77.0854H76.774C74.0137 77.0854 71.7764 79.3234 71.7764 82.0836V94.5578C71.7764 97.3181 74.0137 99.5554 76.774 99.5554H176.088C178.848 99.5554 181.086 97.3181 181.086 94.5578V82.0836C181.086 79.3234 178.848 77.0854 176.088 77.0854Z" fill="#26BDBD"/>
<defs>
<linearGradient id="paint0_linear_703_145" x1="56.0038" y1="213.173" x2="197.404" y2="213.173" gradientUnits="userSpaceOnUse">
<stop stop-color="#1CC2C2"/>
<stop offset="0.190644" stop-color="#47D8D8"/>
<stop offset="0.246967" stop-color="#99F9F9"/>
<stop offset="0.298072" stop-color="#97F9F9"/>
<stop offset="0.342166" stop-color="#67EAEA"/>
<stop offset="0.415058" stop-color="#56E6E6"/>
<stop offset="0.492164" stop-color="#56E6E6"/>
<stop offset="0.584086" stop-color="#42D5D5"/>
<stop offset="0.67331" stop-color="#25BCBC"/>
<stop offset="0.728321" stop-color="#1BB3B3"/>
<stop offset="0.798373" stop-color="#2BB9B9"/>
<stop offset="0.846643" stop-color="#83DDDD"/>
<stop offset="0.905813" stop-color="#C1F6F6"/>
<stop offset="0.960237" stop-color="#50C8C8"/>
<stop offset="1" stop-color="#1BB2B2"/>
</linearGradient>
<linearGradient id="paint1_linear_703_145" x1="138.328" y1="208.309" x2="138.328" y2="230.057" gradientUnits="userSpaceOnUse">
<stop stop-color="#F9F9F9"/>
<stop offset="1" stop-color="#999999"/>
</linearGradient>
<radialGradient id="paint2_radial_703_145" cx="0" cy="0" r="1" gradientUnits="userSpaceOnUse" gradientTransform="translate(128.798 185.39) rotate(-1.12378) scale(285.043 167.718)">
<stop stop-color="white"/>
<stop offset="1" stop-color="#999999"/>
</radialGradient>
</defs>
</svg>
