<svg width="180" height="180" viewBox="0 0 180 180" fill="none" xmlns="http://www.w3.org/2000/svg">
<path d="M90.1626 63.3797C92.7343 63.3797 94.0207 62.0426 94.0207 59.3674C94.0207 56.7956 92.7343 55.5094 90.1626 55.5094C87.5903 55.5094 86.3044 56.7956 86.3044 59.3674C86.3044 62.0426 87.5903 63.3797 90.1626 63.3797ZM101.737 33.75L95.2549 54.2748L115.934 49.1822V69.7072L95.2549 64.6144L101.737 85.1394H78.5886L85.0697 64.6144L64.3905 70.9414V47.7933L85.0697 54.2748L78.5886 33.75H101.737ZM97.8784 87.7629C120.512 86.8365 138.671 82.2071 152.354 73.8737L132.91 133.905C135.379 133.905 137.488 134.831 139.237 136.683C140.986 138.432 141.86 140.541 141.86 143.01C141.86 144.451 141.551 145.736 140.934 146.868H152.354V167.393H28.2793V146.868H39.5448C39.0304 145.736 38.7732 144.451 38.7732 143.01C38.7732 140.541 39.6477 138.432 41.3967 136.683C43.1457 134.831 45.2548 133.905 47.7239 133.905L28.125 73.8737C41.8082 82.2071 59.9152 86.8365 82.4462 87.7629V85.1394H87.5391V133.905H92.6314V85.1394H97.8784V87.7629ZM50.3473 146.868C48.5984 146.868 47.7239 147.742 47.7239 149.492C47.7239 151.24 48.5984 152.115 50.3473 152.115H129.977C131.726 152.115 132.601 151.24 132.601 149.492C132.601 147.742 131.726 146.868 129.977 146.868H50.3473Z" fill="#180A0A"/>
<path d="M90.162 63.3797C92.7343 63.3797 94.0202 62.0426 94.0202 59.3674C94.0202 56.7956 92.7343 55.5095 90.162 55.5095C87.5902 55.5095 86.3038 56.7956 86.3038 59.3674C86.3038 62.0426 87.5902 63.3797 90.162 63.3797ZM50.3471 146.868C48.5981 146.868 47.7236 147.743 47.7236 149.492C47.7236 151.241 48.5981 152.115 50.3471 152.115H129.977C131.726 152.115 132.601 151.241 132.601 149.492C132.601 147.743 131.726 146.868 129.977 146.868H50.3471Z" fill="#F10086"/>
<path d="M87.5385 85.1394V133.905H92.6314V85.1394H87.5385Z" fill="#F10086"/>
</svg>
