<svg width="180" height="180" viewBox="0 0 180 180" fill="none" xmlns="http://www.w3.org/2000/svg">
<path d="M133.836 135.911C138.877 136.734 141.397 139.769 141.397 145.016C141.397 146.353 141.14 147.639 140.626 148.874H151.737V169.399H28.125V148.874H39.3905C38.8761 147.742 38.6189 146.456 38.6189 145.016C38.6189 142.547 39.4934 140.438 41.2424 138.689C42.9914 136.837 45.1004 135.911 47.5696 135.911H57.9094C60.9958 124.491 66.8081 116.004 75.3474 110.448C79.0515 107.259 81.9833 104.635 84.1438 102.578C87.7449 98.9769 90.2138 95.9417 91.5514 93.4729C85.9956 96.9705 81.1091 100.366 76.8909 103.658C72.3639 107.156 68.2487 111.477 64.5452 116.621C61.9729 120.222 58.5264 122.022 54.2054 122.022C53.4853 122.022 52.7136 121.971 51.8906 121.868C51.5819 121.251 50.9132 120.479 49.8844 119.553C49.1642 119.861 48.084 119.964 46.6437 119.861C42.5284 117.599 40.0078 115.952 39.0819 114.923C37.5387 113.174 36.7156 110.345 36.6127 106.436C36.5099 101.703 37.9502 97.0223 40.9337 92.3923C43.0943 88.9971 47.3638 81.4354 53.7424 69.7072C59.0923 59.8303 63.5164 52.6287 67.014 48.102C66.1911 44.3982 65.8311 41.0032 65.934 37.9167C68.6087 39.3571 71.2839 41.2089 73.9586 43.4723C74.0616 43.3694 74.2674 43.2665 74.5757 43.1637C76.9421 42.2377 79.5144 41.4146 82.2921 40.6945C82.0862 39.8714 82.035 38.7912 82.1379 37.4537L82.2921 33.75C85.2756 35.3961 88.2591 37.4537 91.2426 39.9229C99.1648 40.3344 107.344 44.2439 115.78 51.6513C122.262 58.9562 127.2 68.4726 130.595 80.2007C133.579 90.4888 135.07 101.24 135.07 112.454C135.07 123.668 134.659 131.487 133.836 135.911ZM70.8722 66.9291L69.3293 69.5526C68.5058 70.5814 67.6316 71.4561 66.7057 72.1761L65.934 71.0961C65.214 68.6267 65.9852 67.0838 68.2487 66.4661C69.1746 66.2603 70.0492 66.4149 70.8722 66.9291ZM64.6993 65.2314C63.0534 67.5979 62.2299 69.5014 62.2299 70.9414C62.2299 72.8961 63.1558 73.8737 65.0081 73.8737C66.5511 73.8737 68.4028 72.3819 70.5634 69.3984C72.2098 67.1349 73.0327 65.2314 73.0327 63.6885C73.0327 61.7338 72.1069 60.7562 70.2551 60.7562C68.6087 60.7562 66.7569 62.2479 64.6993 65.2314ZM56.52 114.306C59.2982 110.088 61.7158 107.207 63.7734 105.664C63.7734 103.709 63.4134 102.578 62.6929 102.269C60.6353 101.343 57.2406 104.532 52.5079 111.837C51.1704 113.791 51.2219 115.18 52.6622 116.004C53.9997 116.724 55.2857 116.158 56.52 114.306ZM50.3473 106.282C50.3473 104.224 49.3185 103.195 47.2609 103.195C46.2321 103.195 45.049 103.761 43.7115 104.892C42.477 106.024 41.8597 107.104 41.8597 108.133C41.8597 108.853 42.1683 109.522 42.7856 110.139C43.4029 110.036 44.2259 110.191 45.2548 110.602C45.4605 111.117 45.7692 111.374 46.1807 111.374C46.5922 111.374 47.261 110.963 48.1869 110.139C49.6272 108.699 50.3473 107.413 50.3473 106.282ZM50.1931 148.874C48.4441 148.874 47.5696 149.749 47.5696 151.498C47.5696 153.144 48.4441 153.967 50.1931 153.967H129.823C131.572 153.967 132.447 153.144 132.447 151.498C132.447 149.749 131.572 148.874 129.823 148.874H50.1931Z" fill="#180A0A"/>
<path d="M70.8722 66.9291L69.3287 69.5526C68.5058 70.5814 67.6316 71.4561 66.7052 72.1761L65.934 71.0961C65.2134 68.6267 65.9852 67.0838 68.2487 66.4661C69.1746 66.2603 70.0492 66.4149 70.8722 66.9291ZM64.6993 65.2314C63.0534 67.5979 62.2299 69.5014 62.2299 70.9414C62.2299 72.8966 63.1558 73.8737 65.0081 73.8737C66.5511 73.8737 68.4028 72.3819 70.5634 69.3984C72.2098 67.1349 73.0327 65.2314 73.0327 63.6885C73.0327 61.7338 72.1069 60.7562 70.2551 60.7562C68.6087 60.7562 66.7569 62.2479 64.6993 65.2314ZM56.52 114.306C59.2982 110.088 61.7158 107.207 63.7734 105.664C63.7734 103.709 63.4134 102.578 62.6929 102.269C60.6353 101.343 57.2406 104.532 52.5079 111.837C51.1704 113.792 51.2218 115.18 52.6621 116.004C53.9996 116.724 55.2857 116.158 56.52 114.306ZM50.3473 106.282C50.3473 104.224 49.3185 103.195 47.2609 103.195C46.232 103.195 45.0489 103.761 43.7115 104.892C42.4769 106.024 41.8596 107.105 41.8596 108.133C41.8596 108.853 42.1683 109.522 42.7855 110.139C43.4028 110.036 44.2259 110.191 45.2547 110.602C45.4605 111.117 45.7691 111.374 46.1806 111.374C46.5922 111.374 47.2609 110.963 48.1868 110.139C49.6272 108.699 50.3473 107.413 50.3473 106.282ZM50.193 148.874C48.444 148.874 47.5696 149.749 47.5696 151.498C47.5696 153.144 48.444 153.967 50.193 153.967H129.823C131.572 153.967 132.447 153.144 132.447 151.498C132.447 149.749 131.572 148.874 129.823 148.874H50.193Z" fill="#F10086"/>
</svg>
