<svg width="180" height="180" viewBox="0 0 180 180" fill="none" xmlns="http://www.w3.org/2000/svg">
<path d="M27.5927 167.393V146.868H38.8582C38.3438 145.736 38.0865 144.451 38.0865 143.01C38.0865 140.541 38.961 138.432 40.71 136.683C42.459 134.831 44.5681 133.905 47.0372 133.905L35.3087 101.96C34.2799 102.269 33.4569 102.423 32.8396 102.423C29.9589 102.423 27.4898 101.446 25.4321 99.4911C23.4774 97.4334 22.5 94.9646 22.5 92.0835C22.5 89.2029 23.4774 86.7341 25.4321 84.6765C27.4898 82.6189 29.9589 81.5901 32.8396 81.5901C35.7203 81.5901 38.138 82.6189 40.0927 84.6765C42.1503 86.7341 43.1791 89.2029 43.1791 92.0835C43.1791 94.0382 42.6133 95.8387 41.4816 97.4852L61.2349 108.905L81.1423 62.145C76.41 59.1615 74.0436 54.8407 74.0436 49.1822C74.0436 44.8612 75.5353 41.2089 78.5188 38.2254C81.5023 35.2418 85.1546 33.75 89.4758 33.75C93.7969 33.75 97.4492 35.2418 100.433 38.2254C103.519 41.2089 105.062 44.8612 105.062 49.1822C105.062 54.8407 102.696 59.1615 97.9633 62.145L117.717 108.905L137.47 97.4852C136.441 95.7358 135.926 93.9358 135.926 92.0835C135.926 89.2029 136.904 86.7341 138.859 84.6765C140.916 82.6189 143.386 81.5901 146.266 81.5901C149.147 81.5901 151.564 82.6189 153.519 84.6765C155.577 86.7341 156.606 89.2029 156.606 92.0835C156.606 94.9646 155.577 97.4334 153.519 99.4911C151.564 101.446 149.147 102.423 146.266 102.423C145.546 102.423 144.672 102.269 143.643 101.96L131.914 133.905C134.486 133.905 136.595 134.779 138.242 136.528C139.99 138.278 140.865 140.438 140.865 143.01C140.865 144.451 140.608 145.736 140.093 146.868H151.359V167.393H27.5927ZM49.6607 146.868C47.9117 146.868 47.0372 147.742 47.0372 149.492C47.0372 151.24 47.9117 152.115 49.6607 152.115H129.291C131.04 152.115 131.914 151.24 131.914 149.492C131.914 147.742 131.04 146.868 129.291 146.868H49.6607Z" fill="#180A0A"/>
<path d="M49.6604 146.868C47.9114 146.868 47.0369 147.742 47.0369 149.492C47.0369 151.24 47.9114 152.115 49.6604 152.115H129.291C131.039 152.115 131.914 151.24 131.914 149.492C131.914 147.742 131.039 146.868 129.291 146.868H49.6604Z" fill="#F10086"/>
</svg>
