<svg width="180" height="180" viewBox="0 0 180 180" fill="none" xmlns="http://www.w3.org/2000/svg">
<path d="M136.304 80.0466V38.8427H122.107V64.6144H97.7242V38.8427H82.2921V64.6144H57.9094V38.8427H43.7115V80.0466H136.304ZM132.447 146.868C135.019 146.868 136.304 145.582 136.304 143.01C136.304 140.438 135.019 139.152 132.447 139.152H47.5696C44.9975 139.152 43.7115 140.438 43.7115 143.01C43.7115 145.582 44.9975 146.868 47.5696 146.868H132.447ZM146.49 162.3V151.96H33.5263V162.3H146.49ZM28.125 167.393V146.868H39.3905C38.8761 145.736 38.6189 144.451 38.6189 143.01C38.6189 140.438 39.4419 138.278 41.088 136.528C42.837 134.779 44.9975 133.905 47.5696 133.905L56.2116 85.1394H38.6189V33.75H63.0017V59.3674H77.1992V33.75H102.817V59.3674H117.015V33.75H141.397V85.1394H123.805L132.447 133.905C134.916 133.905 137.025 134.831 138.774 136.683C140.523 138.432 141.397 140.541 141.397 143.01C141.397 144.451 141.089 145.736 140.471 146.868H151.891V167.393H28.125ZM126.891 133.905L118.249 85.1394H61.6129L52.9708 133.905H126.891Z" fill="#180A0A"/>
<path d="M136.304 80.0466V38.8426H122.107V64.6144H97.7242V38.8426H82.292V64.6144H57.9088V38.8426H43.7114V80.0466H136.304ZM132.447 146.868C135.019 146.868 136.304 145.582 136.304 143.01C136.304 140.438 135.019 139.152 132.447 139.152H47.5694C44.9974 139.152 43.7114 140.438 43.7114 143.01C43.7114 145.582 44.9974 146.868 47.5694 146.868H132.447ZM146.49 162.3V151.96H33.5262V162.3H146.49ZM126.891 133.905L118.249 85.1394H61.6128L52.9707 133.905H126.891Z" fill="#F582A7"/>
</svg>
