<svg width="32" height="32" viewBox="0 0 32 32" fill="none" xmlns="http://www.w3.org/2000/svg">
<path d="M16.3962 6.45197H11.9766V4.49489H15.4213V3H17.3712V4.49489H20.8087V6.45197H16.3962ZM9.97616 21.2564H22.8091V28.6804H9.97616V21.2564ZM18.8805 15.4935H21.5453L24.1162 11.7527L21.5164 11.7383L18.8805 15.4935ZM13.9048 15.4935L11.2977 11.7527H8.67625L11.3266 15.4935H13.9048ZM15.3274 11.7383V15.4935H17.4723V11.7383H15.3274ZM22.8091 19.2921H9.97616L3 8.46682H29.7925L22.8091 19.2921Z" fill="black"/>
<path d="M18.8805 15.4935H21.5453L24.1162 11.7527L21.5164 11.7383L18.8805 15.4935ZM13.9047 15.4935L11.2977 11.7527H8.67621L11.3266 15.4935H13.9047ZM15.3274 11.7383V15.4935H17.4722V11.7383H15.3274Z" fill="white"/>
</svg>
