<svg width="32" height="32" viewBox="0 0 32 32" fill="none" xmlns="http://www.w3.org/2000/svg">
<path d="M23.6753 21.9497L23.6825 15.8113L20.8083 12.9371L18.8729 13.7964L21.7182 16.649V21.9497H23.6753ZM15.2981 9.54286C14.4797 9.54286 14.0705 9.95209 14.0705 10.7705C14.0705 11.589 14.4797 11.9982 15.2981 11.9982C16.1214 11.9982 16.533 11.589 16.533 10.7705C16.533 9.95209 16.1214 9.54286 15.2981 9.54286ZM12.9439 7.93242C13.1461 7.88427 13.3772 7.77114 13.6371 7.593C13.8731 7.42931 14.0584 7.25358 14.1932 7.06581L15.7459 5.97534L14.2004 4.41545L15.6159 3L26.9178 14.3525V28.637L9.6941 28.6298V26.5427L13.6516 18.1511L8.11255 20.1732L5 13.5003L12.9439 7.93242Z" fill="black"/>
<path d="M23.6753 21.9497L23.6825 15.8113L20.8083 12.9371L18.8729 13.7964L21.7182 16.649V21.9497H23.6753ZM15.2981 9.54286C14.4797 9.54286 14.0704 9.95209 14.0704 10.7706C14.0704 11.589 14.4797 11.9982 15.2981 11.9982C16.1214 11.9982 16.533 11.589 16.533 10.7706C16.533 9.95209 16.1214 9.54286 15.2981 9.54286Z" fill="white"/>
</svg>
