<svg width="32" height="32" viewBox="0 0 32 32" fill="none" xmlns="http://www.w3.org/2000/svg">
<path d="M15.7387 9.88228C16.6293 9.88228 17.0747 10.3276 17.0747 11.2183C17.0747 12.109 16.6293 12.5543 15.7387 12.5543C14.8528 12.5543 14.4099 12.109 14.4099 11.2183C14.4099 10.3276 14.8528 9.88228 15.7387 9.88228ZM23.0831 22.2458H21.1261V16.9451L18.2807 14.0925L20.2161 13.2259L23.0904 16.1074L23.0831 22.2458ZM26.9179 26.6222V28.637H9.70133L9.68688 26.6294L13.6516 18.1511L8.11255 20.1732L5 13.5003L15.7459 5.97534L14.2004 4.41545L15.6159 3L26.9178 14.3814L26.9179 26.6222ZM16.3236 17.1545L11.904 26.6294H24.968L24.9752 15.1686L17.2119 7.40523L7.52759 14.1792L9.13803 17.6384L16.7858 14.8508L17.4719 16.7284L16.3236 17.1545Z" fill="black"/>
<path d="M15.7387 9.88228C16.6293 9.88228 17.0747 10.3276 17.0747 11.2183C17.0747 12.109 16.6293 12.5543 15.7387 12.5543C14.8528 12.5543 14.4099 12.109 14.4099 11.2183C14.4099 10.3276 14.8528 9.88228 15.7387 9.88228ZM23.0831 22.2458H21.126V16.9451L18.2807 14.0925L20.2161 13.2259L23.0904 16.1074L23.0831 22.2458ZM16.3236 17.1545L11.9039 26.6294H24.968L24.9752 15.1686L17.2119 7.40524L7.52759 14.1792L9.13803 17.6384L16.7858 14.8508L17.4719 16.7285L16.3236 17.1545Z" fill="white"/>
</svg>
