<svg width="180" height="180" viewBox="0 0 180 180" fill="none" xmlns="http://www.w3.org/2000/svg">
<path d="M92.1881 86.4388H80.6108L92.1881 66.6158L103.603 86.4388H92.1881ZM142.316 66.0471L109.737 74.9025L92.1881 44.4765L74.6803 74.8209L42.1013 66.1281L62.7373 97.6506H121.639L142.316 66.0471ZM167.623 47.9294L128.261 108.781H56.0753L16.875 47.9294L69.318 62.1067L92.1881 22.5L115.099 62.0252L167.623 47.9294ZM67.3273 130.839V150.297H117.008V130.839H67.3273ZM56.0753 119.83H128.261V161.59H56.0753V119.83Z" fill="black"/>
<path d="M92.1881 86.4388H80.6107L92.1881 66.6157L103.603 86.4388H92.1881ZM142.316 66.047L109.737 74.9025L92.1881 44.4765L74.6803 74.8209L42.1013 66.128L62.7373 97.6505H121.639L142.316 66.047ZM67.3279 130.839V150.297H117.008V130.839H67.3279Z" fill="white"/>
</svg>
