<svg width="32" height="32" viewBox="0 0 32 32" fill="none" xmlns="http://www.w3.org/2000/svg">
<path d="M11.4383 23.7973V27.2564H20.2705V23.7973H11.4383ZM9.43794 21.8402H22.2709V29.2641H9.43794V21.8402ZM15.858 14.929H14.8831V11.0076H11.4383V14.929H9.43794V11.0076H6.00041V17.9188H25.7084V11.0076H22.2709V14.929H20.2705V11.0076H16.833V14.929H15.858ZM4 9H27.6655V19.8759H4V9Z" fill="black"/>
<path d="M11.4383 23.7973V27.2564H20.2704V23.7973H11.4383ZM15.858 14.929H14.8831V11.0076H11.4383V14.929H9.43789V11.0076H6.00037V17.9188H25.7084V11.0076H22.2708V14.929H20.2704V11.0076H16.8329V14.929H15.858Z" fill="white"/>
</svg>
