<svg width="32" height="32" viewBox="0 0 32 32" fill="none" xmlns="http://www.w3.org/2000/svg">
<path d="M16.4584 7.13355C17.4716 7.13355 17.9781 6.62699 17.9781 5.61387C17.9781 4.59061 17.4716 4.07899 16.4584 4.07899C15.4453 4.07899 14.9387 4.59061 14.9387 5.61387C14.9387 6.62699 15.4453 7.13355 16.4584 7.13355ZM10.2429 22.7559C9.56413 22.7559 9.22473 23.1004 9.22473 23.7893C9.22473 24.4782 9.56413 24.8227 10.2429 24.8227H22.6587C23.3477 24.8227 23.6921 24.4782 23.6921 23.7893C23.6921 23.1004 23.3477 22.7559 22.6587 22.7559H10.2429ZM7.59866 25.9017C6.58553 25.9017 6.07897 26.4082 6.07897 27.4214C6.07897 28.4345 6.58553 28.9411 7.59866 28.9411H25.303C26.3161 28.9411 26.8227 28.4345 26.8227 27.4214C26.8227 26.4082 26.3161 25.9017 25.303 25.9017H7.59866ZM17.811 14.8992L20.7591 11.5406C21.0834 11.8547 21.4177 12.3005 21.7621 12.878C22.0458 13.3339 22.3194 13.8404 22.5828 14.3977C22.8462 14.965 23.0488 15.507 23.1906 16.0237C23.0995 17.0976 22.7651 18.1513 22.1877 19.1847C21.6102 20.2181 20.8655 21.0539 19.9537 21.6922L22.6891 21.7225C23.2666 21.7225 23.758 21.9302 24.1633 22.3456C24.5685 22.7509 24.7711 23.2372 24.7711 23.8045V23.8197C24.7711 24.0831 24.6799 24.4174 24.4976 24.8227H25.303C26.0122 24.8227 26.6201 25.081 27.1266 25.5977C27.6433 26.1043 27.9017 26.7122 27.9017 27.4214C27.9017 28.1407 27.6433 28.7536 27.1266 29.2602C26.6201 29.7667 26.0122 30.02 25.303 30.02H7.61386C6.88441 30.02 6.26641 29.7667 5.75984 29.2602C5.25328 28.7536 5 28.1407 5 27.4214C5 26.7122 5.25328 26.1043 5.75984 25.5977C6.26641 25.081 6.88441 24.8227 7.61386 24.8227H8.46489C8.25213 24.5694 8.14575 24.2351 8.14575 23.8197V23.8045C8.14575 23.2372 8.34837 22.7509 8.75362 22.3456C9.15887 21.9302 9.65024 21.7225 10.2277 21.7225H12.8872C11.9348 21.1451 11.1699 20.3548 10.5924 19.3518C10.015 18.3488 9.73129 17.2395 9.74142 16.0237C10.3392 14.1292 11.0939 12.4879 12.0057 11.0999C12.9277 9.70182 13.566 8.77481 13.9206 8.3189C14.0523 7.91365 14.2903 7.60465 14.6348 7.3919C14.108 6.94612 13.8446 6.35344 13.8446 5.61386C13.8446 4.89454 14.0979 4.2816 14.6044 3.77504C15.111 3.25835 15.729 3 16.4584 3C17.1676 3 17.7755 3.25835 18.2821 3.77504C18.7988 4.2816 19.0571 4.89454 19.0571 5.61386C19.0571 6.27239 18.8089 6.92079 18.3124 7.55906C18.5151 7.96431 18.6367 8.20239 18.6772 8.27331C18.9912 8.71909 19.4016 9.42827 19.9081 10.4009L16.6864 13.9721C16.3419 14.3166 16.3774 14.6509 16.7927 14.9751C17.1676 15.3095 17.507 15.2841 17.8109 14.8991L17.811 14.8992ZM18.3884 15.5982C18.0946 15.9021 17.7046 16.0541 17.2183 16.0541C16.7421 16.044 16.3977 15.9376 16.1849 15.735C15.9721 15.5324 15.8151 15.2234 15.7138 14.808C15.6226 14.3825 15.7138 13.9924 15.9873 13.6378L18.8899 10.2185C18.9203 10.1881 18.8595 10.1121 18.7076 9.99056C18.5657 9.85886 18.4594 9.74235 18.3884 9.64104C18.2567 9.42828 18.1048 9.175 17.9325 8.88119C17.7704 8.57726 17.5982 8.30371 17.4158 8.06056C17.0714 8.16188 16.7522 8.21253 16.4584 8.21253C16.1038 8.21253 15.7746 8.14668 15.4706 8.01497C14.9843 8.33917 14.5386 8.91159 14.1333 9.73222C12.5326 11.7889 11.4384 13.9012 10.8508 16.0693C10.5874 17.4674 11.1193 18.7642 12.4465 19.9597C13.7838 21.1552 15.1211 21.7529 16.4584 21.7529C17.7958 21.7529 19.1027 21.1197 20.3792 19.8533C21.6659 18.5768 22.2586 17.28 22.1573 15.9629C22.0053 15.507 21.7925 15.0055 21.519 14.4584C21.2455 13.9012 20.9972 13.4099 20.7743 12.9843L18.3884 15.5982Z" fill="#461111"/>
<path d="M16.4584 7.13356C17.4715 7.13356 17.9781 6.627 17.9781 5.61388C17.9781 4.59062 17.4715 4.07899 16.4584 4.07899C15.4453 4.07899 14.9387 4.59062 14.9387 5.61388C14.9387 6.627 15.4453 7.13356 16.4584 7.13356ZM10.2429 22.7559C9.5641 22.7559 9.22471 23.1004 9.22471 23.7893C9.22471 24.4783 9.5641 24.8227 10.2429 24.8227H22.6587C23.3476 24.8227 23.6921 24.4783 23.6921 23.7893C23.6921 23.1004 23.3476 22.7559 22.6587 22.7559H10.2429ZM7.59864 25.9017C6.58551 25.9017 6.07895 26.4083 6.07895 27.4214C6.07895 28.4345 6.58551 28.9411 7.59864 28.9411H25.303C26.3161 28.9411 26.8227 28.4345 26.8227 27.4214C26.8227 26.4083 26.3161 25.9017 25.303 25.9017H7.59864ZM18.3884 15.5982C18.0946 15.9022 17.7046 16.0541 17.2183 16.0541C16.7421 16.044 16.3976 15.9376 16.1849 15.735C15.9721 15.5324 15.8151 15.2234 15.7138 14.808C15.6226 14.3825 15.7138 13.9924 15.9873 13.6378L18.8899 10.2185C18.9203 10.1881 18.8595 10.1121 18.7076 9.99057C18.5657 9.85887 18.4593 9.74237 18.3884 9.64106C18.2567 9.4283 18.1047 9.17501 17.9325 8.8812C17.7704 8.57727 17.5982 8.30372 17.4158 8.06057C17.0714 8.16188 16.7522 8.21254 16.4584 8.21254C16.1038 8.21254 15.7746 8.1467 15.4706 8.01499C14.9843 8.33919 14.5385 8.9116 14.1333 9.73223C12.5326 11.7889 11.4384 13.9012 10.8508 16.0693C10.5874 17.4674 11.1192 18.7642 12.4464 19.9597C13.7838 21.1552 15.1211 21.7529 16.4584 21.7529C17.7957 21.7529 19.1027 21.1197 20.3792 19.8533C21.6659 18.5768 22.2585 17.28 22.1572 15.9629C22.0053 15.507 21.7925 15.0055 21.519 14.4585C21.2454 13.9012 20.9972 13.4099 20.7743 12.9844L18.3884 15.5982Z" fill="#F0D290"/>
</svg>
