<svg width="32" height="32" viewBox="0 0 32 32" fill="none" xmlns="http://www.w3.org/2000/svg">
<path d="M23.9657 24.2148L25.303 24.7163C26.0122 24.7163 26.6201 24.9747 27.1266 25.4914C27.6433 25.9979 27.9017 26.6058 27.9017 27.315C27.9017 28.0343 27.6433 28.6472 27.1266 29.1538C26.6201 29.6604 26.0122 29.9137 25.303 29.9137H7.61386C6.88441 29.9137 6.26641 29.6604 5.75984 29.1538C5.25328 28.6472 5 28.0343 5 27.315C5 26.6058 5.25328 25.9979 5.75984 25.4914C6.26641 24.9747 6.88441 24.7163 7.61386 24.7163L9.01198 24.2148C9.43749 21.8644 9.71103 19.6608 9.83261 17.6042C9.96431 15.5475 10.1011 13.4301 10.2429 11.2519V9.18512H8.14575V3H12.2945V6.03937H14.4069V3H18.51V6.03937H20.6224V3H24.7711V9.18512H22.674C22.674 9.53972 22.674 9.88925 22.674 10.2337C22.674 10.5782 22.674 10.9176 22.674 11.2519C22.7955 13.5314 22.9272 15.6742 23.0691 17.6802C23.2109 19.6862 23.5098 21.8644 23.9657 24.2148ZM14.8932 21.6466H18.0237V24.0629H14.8932V21.6466ZM14.8932 14.9143H18.0237V17.2547H14.8932V14.9143ZM16.9903 18.2729H20.0753V20.6132H16.9903V18.2729ZM12.8416 18.2729H15.9114V20.6132H12.8416V18.2729ZM16.9903 11.5254H20.0753V13.8506H16.9903V11.5254ZM12.8416 11.5254H15.9114V13.8506H12.8416V11.5254ZM21.7014 11.5254V10.4921H11.2763L11.2459 11.5254H11.8082V13.8506H11.0332L11.0028 14.9143H11.8082H13.8598V17.2547H10.8356L10.7596 18.2729H11.8082V20.6132H10.5468L10.4861 21.6466H13.8598V24.0629H9.65024V25.2482H23.2666V24.0629H19.0419V21.6466H22.5372L22.4308 20.6132H21.1087V18.2729H22.2028L22.1269 17.2547H19.0419V14.9143H21.9141V13.8506H21.1087V11.5254H21.7014Z" fill="#402218"/>
<path d="M14.8931 21.6465H18.0237V24.0628H14.8931V21.6465ZM14.8931 14.9143H18.0237V17.2547H14.8931V14.9143ZM16.9903 18.2728H20.0753V20.6132H16.9903V18.2728ZM12.8416 18.2728H15.9113V20.6132H12.8416V18.2728ZM16.9903 11.5254H20.0753V13.8506H16.9903V11.5254ZM12.8416 11.5254H15.9113V13.8506H12.8416V11.5254ZM21.7013 11.5254V10.4921H11.2763L11.2459 11.5254H11.8082V13.8506H11.0331L11.0027 14.9143H11.8082H13.8597V17.2547H10.8356L10.7596 18.2728H11.8082V20.6132H10.5468L10.486 21.6465H13.8597V24.0628H9.65021V25.2482H23.2666V24.0628H19.0419V21.6465H22.5371L22.4308 20.6132H21.1086V18.2728H22.2028L22.1268 17.2547H19.0419V14.9143H21.9141V13.8506H21.1086V11.5254H21.7013Z" fill="#C68B59"/>
</svg>
