<svg width="256" height="256" viewBox="0 0 256 256" fill="none" xmlns="http://www.w3.org/2000/svg">
<path fill-rule="evenodd" clip-rule="evenodd" d="M145.726 10.2211C144.735 10.0944 143.731 10.3284 142.898 10.8807L90.416 45.7065C73.4052 57.125 60.8032 65.9323 52.4243 72.2312C48.2371 75.3787 45.1194 77.8751 42.8732 79.9428C41.769 80.9597 40.8093 81.9117 39.9573 83.0397C39.5818 83.5376 38.9964 84.3913 38.5941 85.434C38.1698 86.5425 37.6094 89.0448 38.8477 91.5086C38.9187 91.6411 38.9967 91.769 39.0816 91.8931L39.4227 92.3849L39.3691 92.3158C39.346 92.2885 39.3237 92.2616 39.3013 92.2337L39.2471 92.1646C39.1867 92.0758 39.1302 91.9852 39.0768 91.8919L39.0233 91.8384C40.083 93.693 41.6485 95.7016 44.0513 98.8666C46.4707 102.052 49.5683 106.026 52.844 110.122C58.171 116.984 62.0654 121.539 65.7016 124.398C66.4019 124.949 67.3275 125.782 68.8115 126.468C70.2965 127.153 72.3781 127.469 74.3556 127.044C77.2832 126.412 78.9121 124.767 79.945 122.478C80.1206 122.078 80.0966 121.807 80.2087 121.43C80.4623 121.235 80.5207 121.166 80.8713 120.93C82.4202 119.89 84.892 118.486 87.5269 117.221C87.5466 117.204 87.5665 117.186 87.5858 117.168C97.0244 112.448 104.374 112.714 112.089 117.445L110.345 119.187C75.4591 125.219 46.8269 147.722 40.093 176.32C39.9495 176.931 39.9457 177.567 40.0823 178.179C40.2189 178.791 40.4923 179.365 40.8818 179.856C41.2714 180.348 41.7672 180.746 42.332 181.02C42.8968 181.293 43.5156 181.435 44.143 181.435H47.8476C47.8476 181.435 47.8476 181.484 47.8476 181.494H208.087C208.087 181.494 208.087 181.445 208.087 181.435H211.756C212.381 181.435 212.997 181.294 213.559 181.023C214.122 180.752 214.617 180.358 215.006 179.87C215.396 179.382 215.671 178.813 215.811 178.204C215.95 177.595 215.951 176.963 215.813 176.354C213.703 167.045 209.231 158.375 203.069 150.675C203.347 150.109 203.62 149.572 203.888 148.987C226.429 101.114 205.839 40.8739 158.321 16.5612H158.268L147.108 10.664C146.674 10.435 146.201 10.2844 145.714 10.2199L145.726 10.2211ZM41.9986 195.257C41.1284 195.493 40.3583 196.006 39.8043 196.717C39.2503 197.428 38.9418 198.3 38.9262 199.202C38.9262 208.535 39.1121 219.79 44.2293 229.317C49.3436 238.845 59.9093 245.815 77.3536 245.815H179.448C196.908 245.815 207.473 238.736 212.588 229.173C217.702 219.611 217.908 208.355 217.908 199.202C217.907 198.328 217.631 197.477 217.119 196.769C216.608 196.061 215.886 195.532 215.058 195.257H41.9986Z" fill="#333333"/>
<path fill-rule="evenodd" clip-rule="evenodd" d="M51.0383 170.126C51.092 232.295 86.7298 230.248 128.307 230.248C169.886 230.248 204.079 232.295 204.131 170.126H51.0383Z" fill="url(#paint0_linear_703_268)"/>
<path d="M179.485 241.683C212.349 241.683 213.782 217.319 213.782 199.231H43.1194C43.1194 217.688 44.5214 241.683 77.3861 241.683H179.485Z" fill="url(#paint1_linear_703_268)"/>
<path fill-rule="evenodd" clip-rule="evenodd" d="M145.223 14.3174L92.7409 49.1479C75.7624 60.545 63.1956 69.3262 54.9309 75.5393C50.7983 78.6463 47.7514 81.0987 45.6958 82.9914C44.6683 83.9375 43.8905 84.7237 43.2824 85.5298C42.98 85.9346 42.7058 86.3322 42.4775 86.9228C42.2483 87.5134 41.9995 88.5235 42.5603 89.6422L42.6091 89.7113L42.6579 89.7791C43.4275 91.1261 44.9864 93.1917 47.3853 96.3514C49.7774 99.5018 52.861 103.456 56.1167 107.527C61.3968 114.333 65.2593 118.742 68.2956 121.131C69.8143 122.325 71.1254 123.494 73.5058 122.983C74.6957 122.73 75.7634 121.693 76.1823 120.765C76.4652 120.137 76.5622 119.55 76.6109 118.966C76.9767 118.625 77.68 118.077 78.5749 117.475C80.3647 116.273 82.9515 114.807 85.7484 113.464C96.6709 108.003 106.456 108.443 115.696 114.675L115.745 114.724L118.827 116.619L112.462 122.986C78.2852 128.41 50.483 150.445 44.1617 177.291H211.785C209.639 167.821 204.95 158.942 198.234 151.189C198.885 149.865 199.554 148.538 200.152 147.229C221.714 101.449 201.909 43.485 156.407 20.2407L145.223 14.3174Z" fill="url(#paint2_radial_703_268)"/>
<defs>
<linearGradient id="paint0_linear_703_268" x1="56.9324" y1="215.948" x2="198.333" y2="215.948" gradientUnits="userSpaceOnUse">
<stop stop-color="#1C52C2"/>
<stop offset="0.190644" stop-color="#475FD8"/>
<stop offset="0.246967" stop-color="#9999F9"/>
<stop offset="0.298072" stop-color="#A797F9"/>
<stop offset="0.342166" stop-color="#9367EA"/>
<stop offset="0.415058" stop-color="#9E56E6"/>
<stop offset="0.492164" stop-color="#B656E6"/>
<stop offset="0.584086" stop-color="#BD42D5"/>
<stop offset="0.67331" stop-color="#BC25BC"/>
<stop offset="0.728321" stop-color="#B31B9A"/>
<stop offset="0.798373" stop-color="#B92B8A"/>
<stop offset="0.846643" stop-color="#DD83B0"/>
<stop offset="0.905813" stop-color="#F6C1D3"/>
<stop offset="0.960237" stop-color="#C85050"/>
<stop offset="1" stop-color="#B21B1B"/>
</linearGradient>
<linearGradient id="paint1_linear_703_268" x1="-382.503" y1="209.82" x2="-382.503" y2="231.568" gradientUnits="userSpaceOnUse">
<stop stop-color="#F9F9F9"/>
<stop offset="1" stop-color="#999999"/>
</linearGradient>
<radialGradient id="paint2_radial_703_268" cx="0" cy="0" r="1" gradientUnits="userSpaceOnUse" gradientTransform="translate(125.459 176.011) scale(216.508 162.177)">
<stop stop-color="white"/>
<stop offset="1" stop-color="#999999"/>
</radialGradient>
</defs>
</svg>
