<svg width="256" height="256" viewBox="0 0 256 256" fill="none" xmlns="http://www.w3.org/2000/svg">
<path fill-rule="evenodd" clip-rule="evenodd" d="M128.891 19.2507C94.7779 19.2502 67.0396 46.9909 67.041 81.1033C67.041 94.1005 71.7379 106.392 79.2843 116.867C54.3852 129.245 36.2035 150.283 34.0094 174.848C33.9257 175.94 34.2758 177.02 34.9833 177.856C35.6909 178.691 36.6991 179.214 37.7896 179.311H217.654C218.685 179.141 219.615 178.588 220.257 177.763C220.9 176.939 221.208 175.902 221.122 174.861C220.283 165.088 216.906 155.63 210.013 144.644C203.438 134.167 191.839 124.654 178.057 117.469C185.884 106.879 190.74 94.3556 190.754 81.1033C190.755 46.9924 163.013 19.2516 128.901 19.2507H128.891ZM36.9377 193.074C36.1245 193.357 35.419 193.885 34.9184 194.586C34.4179 195.286 34.1468 196.125 34.1427 196.985C34.1427 206.799 34.3574 218.612 39.7024 228.571C45.0488 238.53 56.06 245.814 74.3598 245.814H181.764C200.079 245.814 211.085 238.414 216.432 228.417C221.778 218.419 222.004 206.609 222.004 196.985C222 196.125 221.729 195.286 221.228 194.586C220.728 193.885 220.022 193.357 219.209 193.074H36.9377Z" fill="#808080"/>
<path fill-rule="evenodd" clip-rule="evenodd" d="M47.8247 148.599C47.2569 154.244 46.9576 159.994 46.9576 165.823C46.9576 231.796 84.7111 229.622 128.764 229.622C172.817 229.622 209.039 231.796 209.039 165.823C209.039 159.994 208.751 154.244 208.205 148.599H47.8247Z" fill="url(#paint0_linear_703_306)"/>
<path d="M181.764 241.651C216.337 241.651 217.845 216.02 217.845 196.991H38.3083C38.3083 216.408 39.7834 241.651 74.3568 241.651H181.764Z" fill="url(#paint1_linear_703_306)"/>
<path fill-rule="evenodd" clip-rule="evenodd" d="M128.898 23.4131C121.321 23.4131 113.819 24.9056 106.819 27.8049C99.8195 30.7042 93.4599 34.9536 88.1027 40.3108C82.7455 45.6681 78.496 52.0282 75.5968 59.0278C72.6975 66.0274 71.2049 73.5294 71.205 81.1057C71.2194 94.7664 76.0812 107.979 84.9242 118.391C58.9155 129.918 40.2968 151.197 38.1506 175.219H216.974C214.94 151.511 197.482 130.473 172.479 118.847C181.565 108.371 186.574 94.973 186.589 81.1057C186.59 73.5294 185.098 66.0274 182.198 59.0278C179.299 52.0282 175.049 45.6681 169.692 40.3108C164.335 34.9536 157.975 30.7042 150.975 27.8049C143.976 24.9056 136.474 23.4131 128.898 23.4131Z" fill="url(#paint2_radial_703_306)"/>
<defs>
<linearGradient id="paint0_linear_703_306" x1="53.1993" y1="97.7786" x2="202.903" y2="97.7786" gradientUnits="userSpaceOnUse">
<stop stop-color="#C21D1C"/>
<stop offset="0.190644" stop-color="#DF6C55"/>
<stop offset="0.246967" stop-color="#F9BA9A"/>
<stop offset="0.298072" stop-color="#F7C490"/>
<stop offset="0.342166" stop-color="#E6B85D"/>
<stop offset="0.415058" stop-color="#E6CE56"/>
<stop offset="0.492164" stop-color="#E6E656"/>
<stop offset="0.584086" stop-color="#BBD340"/>
<stop offset="0.67331" stop-color="#88BA23"/>
<stop offset="0.728321" stop-color="#6BB521"/>
<stop offset="0.798373" stop-color="#70C347"/>
<stop offset="0.846643" stop-color="#9CE08E"/>
<stop offset="0.905813" stop-color="#C1F6C1"/>
<stop offset="0.960237" stop-color="#6ED17F"/>
<stop offset="1" stop-color="#4BC29A"/>
</linearGradient>
<linearGradient id="paint1_linear_703_306" x1="141.842" y1="203.948" x2="141.842" y2="277.351" gradientUnits="userSpaceOnUse">
<stop stop-color="#0D0D0D"/>
<stop offset="1" stop-color="#4D4D4D"/>
</linearGradient>
<radialGradient id="paint2_radial_703_306" cx="0" cy="0" r="1" gradientUnits="userSpaceOnUse" gradientTransform="translate(133.016 168.593) scale(323.987 150.885)">
<stop stop-color="#0D0D0D"/>
<stop offset="1" stop-color="#333333"/>
</radialGradient>
</defs>
</svg>
