<svg width="256" height="256" viewBox="0 0 256 256" fill="none" xmlns="http://www.w3.org/2000/svg">
<path fill-rule="evenodd" clip-rule="evenodd" d="M128.892 19.2521C94.7783 19.2516 67.0395 46.9916 67.041 81.1038C67.041 94.1009 71.7378 106.393 79.2842 116.868C54.3852 129.246 36.2041 150.284 34.0095 174.849C33.9258 175.94 34.2758 177.021 34.9834 177.856C35.6911 178.692 36.6992 179.215 37.7897 179.312H217.654C218.685 179.142 219.614 178.589 220.256 177.765C220.899 176.94 221.208 175.904 221.121 174.862C220.283 165.089 216.906 155.63 210.012 144.645C203.437 134.168 191.839 124.655 178.057 117.47C185.884 106.88 190.739 94.356 190.753 81.1038C190.754 46.9931 163.013 19.2531 128.901 19.2521H128.892ZM36.9384 193.075C36.1253 193.358 35.4196 193.885 34.9191 194.586C34.4187 195.286 34.148 196.125 34.144 196.986C34.144 206.8 34.3586 218.612 39.7031 228.571C45.0495 238.53 56.0601 245.814 74.3598 245.814H181.764C200.078 245.814 211.085 238.415 216.431 228.417C221.777 218.42 222.003 206.61 222.003 196.986C221.999 196.125 221.729 195.286 221.228 194.586C220.727 193.885 220.022 193.358 219.209 193.075H36.9384Z" fill="#333333"/>
<path fill-rule="evenodd" clip-rule="evenodd" d="M47.9355 148.598C47.0118 155.36 46.5222 162.301 46.5222 169.362C46.5222 231.678 84.2791 229.625 128.331 229.625C172.384 229.625 208.607 231.678 208.607 169.362C208.607 162.301 208.133 155.36 207.246 148.598H47.9355Z" fill="url(#paint0_linear_703_261)"/>
<path d="M181.767 241.653C216.34 241.653 217.847 216.022 217.847 196.993H38.3083C38.3083 216.411 39.785 241.653 74.3581 241.653H181.767Z" fill="url(#paint1_linear_703_261)"/>
<path fill-rule="evenodd" clip-rule="evenodd" d="M128.899 23.4132C113.598 23.4132 98.9231 29.4911 88.1035 40.3105C77.284 51.13 71.2063 65.8038 71.2062 81.1049C71.2205 94.7658 76.0814 107.979 84.9246 118.392C58.9161 129.918 40.2979 151.198 38.1521 175.22H216.977C214.943 151.513 197.485 130.473 172.481 118.846C181.568 108.371 186.577 94.9725 186.592 81.1049C186.592 65.8038 180.513 51.13 169.693 40.3105C158.874 29.4911 144.2 23.4132 128.899 23.4132Z" fill="url(#paint2_radial_703_261)"/>
<defs>
<linearGradient id="paint0_linear_703_261" x1="52.7625" y1="210.35" x2="202.468" y2="210.35" gradientUnits="userSpaceOnUse">
<stop stop-color="#1C52C2"/>
<stop offset="0.190644" stop-color="#475FD8"/>
<stop offset="0.246967" stop-color="#9999F9"/>
<stop offset="0.298072" stop-color="#A797F9"/>
<stop offset="0.342166" stop-color="#9367EA"/>
<stop offset="0.415058" stop-color="#9E56E6"/>
<stop offset="0.492164" stop-color="#B656E6"/>
<stop offset="0.584086" stop-color="#BD42D5"/>
<stop offset="0.67331" stop-color="#BC25BC"/>
<stop offset="0.728321" stop-color="#B31B9A"/>
<stop offset="0.798373" stop-color="#B92B8A"/>
<stop offset="0.846643" stop-color="#DD83B0"/>
<stop offset="0.905813" stop-color="#F6C1D3"/>
<stop offset="0.960237" stop-color="#C85050"/>
<stop offset="1" stop-color="#B21B1B"/>
</linearGradient>
<linearGradient id="paint1_linear_703_261" x1="138.713" y1="208.133" x2="138.713" y2="231.012" gradientUnits="userSpaceOnUse">
<stop stop-color="#F9F9F9"/>
<stop offset="1" stop-color="#999999"/>
</linearGradient>
<radialGradient id="paint2_radial_703_261" cx="0" cy="0" r="1" gradientUnits="userSpaceOnUse" gradientTransform="translate(130.416 163.855) scale(294.064 153.172)">
<stop stop-color="white"/>
<stop offset="1" stop-color="#999999"/>
</radialGradient>
</defs>
</svg>
