<svg width="256" height="256" viewBox="0 0 256 256" fill="none" xmlns="http://www.w3.org/2000/svg">
<path fill-rule="evenodd" clip-rule="evenodd" d="M63.8247 225.859C63.906 228.798 66.935 227.933 66.935 227.933H195.494C178.006 215.481 167.359 214.177 157.134 212.381C181.717 190.235 184.603 153.339 184.09 136.526C183.577 119.713 172.03 87.6698 141.807 60.7674C144.189 55.6583 144.83 49.705 143.289 45.0235C141.748 40.342 135.394 33.3838 126.031 33.0204C110.355 32.4219 106.821 45.1518 106.332 50.6456C105.844 56.1393 108.836 64.8182 116.7 70.344C124.563 75.8699 147.014 91.6886 142.619 134.624C138.224 177.559 110.942 190.267 92.8542 202.013C74.7663 213.76 63.6826 220.729 63.8247 225.859ZM105.295 70.344C107.778 69.5638 94.5536 80.5087 90.7806 95.2265C87.0077 109.944 98.5393 126.971 105.295 140.844C112.051 154.718 112.05 172.877 102.185 180.241C92.3198 187.606 70.3927 186.558 61.7512 149.138C59.434 139.038 63.1557 129.002 63.8247 125.293C72.3348 134.485 78.7242 147.492 82.4865 157.432C86.7543 151.693 83.178 141.742 80.413 132.55C77.6479 123.358 74.0791 115.353 70.0454 109.741C77.6512 85.158 103.186 71.0067 105.295 70.344Z" fill="#BBE1FA" stroke="#0F4C75" stroke-width="4" stroke-linecap="square" stroke-linejoin="round"/>
</svg>
