<svg width="256" height="256" viewBox="0 0 256 256" fill="none" xmlns="http://www.w3.org/2000/svg">
<path fill-rule="evenodd" clip-rule="evenodd" d="M62.8402 226.915C62.9219 229.87 65.9675 229 65.9675 229H195.23C177.646 216.48 166.941 215.168 156.66 213.363C181.378 191.096 184.279 153.998 183.763 137.082C183.248 120.167 171.638 87.9691 141.249 60.9193C143.644 55.7824 144.289 49.7964 142.74 45.0893C141.19 40.3822 134.801 33.3859 125.387 33.0205C109.625 32.4187 106.07 45.2183 105.58 50.7421C105.09 56.266 108.097 64.9924 116.005 70.5485C123.912 76.1046 146.485 92.0099 142.066 135.18C137.647 178.35 110.214 191.128 92.0285 202.939C73.8428 214.749 62.6973 221.756 62.8402 226.915ZM104.538 70.5485C107.034 69.7639 93.7373 80.7687 89.9437 95.5671C86.15 110.365 97.7448 127.485 104.538 141.434C111.331 155.384 111.33 173.643 101.411 181.047C91.4913 188.452 69.4431 187.399 60.7553 149.774C58.4254 139.618 62.1675 129.527 62.8402 125.798C71.3968 135.04 77.8212 148.119 81.6041 158.114C85.8953 152.343 82.2994 142.337 79.5192 133.095C76.739 123.853 73.1507 115.803 69.0949 110.161C76.7423 85.4435 102.416 71.2148 104.538 70.5485Z" fill="#BBE1FA" stroke="#0F4C75" stroke-width="5.37341" stroke-linecap="square" stroke-linejoin="round"/>
</svg>
