<svg width="256" height="256" viewBox="0 0 256 256" fill="none" xmlns="http://www.w3.org/2000/svg">
<path fill-rule="evenodd" clip-rule="evenodd" d="M167.453 186.182C176.47 189.567 181.639 214.897 181.639 214.897C181.639 214.897 169.645 228.707 127.905 228.707C86.164 228.707 73.9771 215.188 73.9771 215.188C73.9019 214.865 79.3289 189.503 88.3563 186.182C45.1186 185.182 32 154.414 32 127.848C32 101.282 56.3953 76.2635 100.221 82.3676C102.155 69.1383 113.869 57.65 123.95 57.65V128.837C123.95 128.837 121.876 144.817 107.26 147.741C92.6443 150.664 91.5696 143.141 81.4354 139.713C71.3011 136.284 59.082 139.379 57.7064 159.487C56.3308 179.594 73.8482 185.838 90.3338 184.204C90.6132 184.29 165.282 184.14 165.475 184.204C181.961 185.838 199.478 179.594 198.103 159.487C196.727 139.379 184.508 136.284 174.374 139.713C164.24 143.141 163.165 150.664 148.549 147.741C133.934 144.817 131.86 128.837 131.86 128.837V57.65C141.94 57.65 153.654 69.1383 155.588 82.3676C199.414 76.2635 223.809 101.282 223.809 127.848C223.809 154.414 210.687 185.182 167.453 186.182ZM153.611 52.7063H101.21C101.21 52.7063 101.07 44.9042 102.198 43.808C103.327 42.7119 121.972 42.8193 121.972 42.8193V27H132.848V42.8193C132.848 42.8193 151.494 42.7119 152.622 43.808C153.751 44.9042 153.611 52.7063 153.611 52.7063V52.7063Z" fill="#BBE1FA" stroke="#0F4C75" stroke-width="5.37341" stroke-linejoin="round"/>
</svg>
