<svg width="256" height="256" viewBox="0 0 256 256" fill="none" xmlns="http://www.w3.org/2000/svg">
<path fill-rule="evenodd" clip-rule="evenodd" d="M136.786 108.152C143.947 109.957 150.147 115.198 152.514 125.467C156.996 144.955 139.842 152.831 189.916 228.41C189.618 228.358 67 228.41 67 228.41C73.2366 174.12 107.678 165.046 118.789 154.447C129.901 143.849 133.076 128.321 124.848 130.505C116.621 132.69 109.867 149.844 108.345 144.263C99.9446 128.135 104.955 116.266 117.339 110.431C118.702 109.791 120.11 109.249 121.55 108.808C114.225 107.265 107.715 103.101 103.242 97.0987C98.7696 91.0962 96.6412 83.6677 97.2566 76.2073C97.8721 68.7469 101.189 61.7677 106.585 56.5794C111.981 51.3912 119.085 48.3506 126.564 48.0285C134.043 47.7064 141.382 50.1248 147.204 54.8298C153.027 59.5349 156.932 66.2031 158.186 73.5829C159.441 80.9627 157.959 88.5468 154.019 94.9116C150.079 101.276 143.951 105.984 136.786 108.152Z" fill="#1B262C"/>
</svg>
