<svg width="256" height="256" viewBox="0 0 256 256" fill="none" xmlns="http://www.w3.org/2000/svg">
<path fill-rule="evenodd" clip-rule="evenodd" d="M136.786 108.133C143.947 109.939 150.147 115.176 152.514 125.448C156.991 144.932 139.842 152.81 189.916 228.387C189.618 228.333 67 228.387 67 228.387C73.2366 174.101 107.678 165.027 118.789 154.424C129.901 143.821 133.076 128.302 124.848 130.482C116.621 132.662 109.867 149.817 108.345 144.238C99.9446 128.109 104.955 116.245 117.339 110.409C118.703 109.77 120.11 109.227 121.55 108.785C114.228 107.239 107.723 103.075 103.254 97.073C98.7844 91.0713 96.6593 83.645 97.2769 76.1876C97.8946 68.7303 101.213 61.7547 106.608 56.57C112.004 51.3854 119.106 48.348 126.582 48.0281C134.058 47.7082 141.394 50.1276 147.213 54.8324C153.032 59.5372 156.933 66.2039 158.186 73.5812C159.438 80.9585 157.955 88.5392 154.015 94.9008C150.075 101.262 143.949 105.967 136.786 108.133Z" fill="#BBE1FA" stroke="#0F4C75" stroke-width="4" stroke-linejoin="round"/>
</svg>
