<svg width="256" height="256" viewBox="0 0 256 256" fill="none" xmlns="http://www.w3.org/2000/svg">
<path fill-rule="evenodd" clip-rule="evenodd" d="M138.394 113.915C145.765 115.742 149.8 119.73 151.985 129.198C156.129 147.145 160.495 158.042 196.485 228.95C196.21 228.896 60 228.95 60 228.95C70.2804 171.669 108.735 167.22 120.331 159.041C136.773 147.446 138.41 134.034 126.385 133.84C118.509 133.711 112.522 151.648 111.114 146.511C103.342 131.648 107.978 120.718 119.437 115.345C120.679 114.765 121.202 115.033 122.701 114.582C115.164 112.987 108.467 108.697 103.868 102.516C99.2695 96.3351 97.0845 88.6882 97.7232 81.0105C98.362 73.3329 101.781 66.1521 107.338 60.816C112.895 55.48 120.208 52.3553 127.906 52.0285C135.603 51.7017 143.155 54.1951 149.144 59.041C155.134 63.8868 159.149 70.7518 160.436 78.3477C161.723 85.9436 160.194 93.7482 156.136 100.297C152.078 106.845 145.769 111.688 138.394 113.915Z" fill="#BBE1FA" stroke="#0F4C75" stroke-width="5.37341" stroke-linejoin="round"/>
</svg>
