<svg width="256" height="256" viewBox="0 0 256 256" fill="none" xmlns="http://www.w3.org/2000/svg">
<path fill-rule="evenodd" clip-rule="evenodd" d="M227.676 90.0655C227.524 90.0655 225.679 90.0762 225.527 90.0655L167.494 228.699H136.766C169.207 181.972 221.029 96.5351 220.161 96.2449C206.083 111.118 185.816 149.13 172.864 164.219C158.558 180.887 143.163 185.669 143.848 180.339C145.245 169.409 146.37 164.444 153.198 141.467C160.038 118.437 163.243 69.7755 162.279 64.832C160.022 85.1864 157.838 106.368 148.147 129.829C138.455 153.289 132.959 171.172 127.728 187.862C127.099 190.065 115.654 163.294 112.682 133.053C109.711 102.811 102.251 72.4945 93.6753 62.4354C93.3271 62.5107 107.692 102.639 106.234 131.978C104.776 161.317 105.43 176.019 110.533 187.862C99.5452 179.511 86.6555 167.948 77.2176 155.621C67.7797 143.294 54.3623 119.082 36.3797 96.5136C35.5457 96.8897 86.2514 181.972 118.692 228.699H87.9676L29.9348 90.0655C29.7833 90.0762 27.938 90.0655 27.7854 90.0655C25.1659 90.0702 22.6345 89.1196 20.6655 87.3919C18.6964 85.6642 17.4249 83.2779 17.0889 80.68C16.753 78.0821 17.3757 75.4508 18.8405 73.2791C20.3053 71.1073 22.5117 69.5441 25.0463 68.8823C27.5809 68.2206 30.2698 68.5056 32.6093 69.684C34.9488 70.8624 36.7785 72.8533 37.7555 75.2839C38.7325 77.7144 38.7899 80.4178 37.9168 82.8876C37.0437 85.3574 35.3002 87.4241 33.0127 88.7006C32.0143 89.2487 33.1588 90.0655 33.1588 90.0655C66.0914 101.876 90.3878 78.3407 86.893 53.5263C86.8672 53.3436 86.8489 53.1824 86.8253 53.0104C84.4107 52.2384 82.3463 50.6387 80.9959 48.4934C79.6454 46.3481 79.0957 43.7949 79.4436 41.2839C79.7915 38.7729 81.0148 36.4654 82.8977 34.7681C84.7806 33.0708 87.2022 32.0927 89.7357 32.0063C92.2692 31.9198 94.7518 32.7307 96.746 34.2957C98.7402 35.8608 100.118 38.0795 100.636 40.561C101.154 43.0424 100.78 45.627 99.5788 47.8594C98.3777 50.0918 96.4271 51.8285 94.0708 52.7633C94.2857 53.2362 94.4157 53.5263 94.4157 53.5263C114.993 72.0645 141.464 71.9033 161.046 53.5263C161.046 53.5263 161.175 53.2362 161.391 52.7633C159.042 51.829 157.099 50.0959 155.903 47.8692C154.707 45.6426 154.335 43.0653 154.853 40.5914C155.371 38.1175 156.745 35.9057 158.734 34.3457C160.723 32.7857 163.198 31.9777 165.724 32.0639C168.25 32.15 170.665 33.1249 172.543 34.8168C174.42 36.5087 175.641 38.8089 175.989 41.3124C176.337 43.8158 175.79 46.3619 174.445 48.5018C173.1 50.6418 171.043 52.2384 168.637 53.0104C168.612 53.1824 168.595 53.3436 168.569 53.5263C165.074 78.3407 189.37 101.876 222.303 90.0655C222.303 90.0655 223.446 89.2487 222.448 88.7006C220.169 87.4263 218.432 85.3649 217.562 82.9023C216.693 80.4396 216.752 77.7445 217.727 75.3218C218.701 72.899 220.526 70.9148 222.858 69.7403C225.191 68.5659 227.872 68.2818 230.398 68.9414C232.925 69.601 235.125 71.1591 236.586 73.3238C238.047 75.4885 238.668 78.1114 238.335 80.7015C238.001 83.2916 236.735 85.6713 234.773 87.3949C232.811 89.1185 230.288 90.068 227.676 90.0655V90.0655Z" fill="#BBE1FA" stroke="#0F4C75" stroke-width="4.83607" stroke-linejoin="round"/>
</svg>
