<svg width="256" height="256" viewBox="0 0 256 256" fill="none" xmlns="http://www.w3.org/2000/svg">
<path fill-rule="evenodd" clip-rule="evenodd" d="M127.212 40.0002C136.029 39.9844 144.829 40.7852 153.499 42.3925C154.51 42.5827 155.288 69.6077 155.288 69.6077L165.497 70.6287C165.497 70.6287 164.492 44.9438 166.405 45.5262C192.598 53.4359 210.419 69.0252 210.419 86.9638C210.231 87.4775 211.115 153.418 211.115 153.418C210.844 157.63 196.414 166.905 172.801 162.813C189.996 147.677 188.371 137.171 189.996 85.9429L184.891 83.901C184.891 83.901 182.527 115.155 181.828 114.529C174.388 107.866 153.59 103.568 131.64 103.132C131.469 103.116 130.781 65.5239 130.781 65.5239H124.655C124.655 65.5239 122.645 102.913 122.652 103.171C103.043 103.739 83.832 107.517 73.6075 115.55L69.5237 82.88L64.419 86.9638L68.5028 138.011C113.658 110.993 176.07 160.701 184.755 229.413C185.013 229.424 70.5446 228.876 70.5446 228.876V164.556C59.5829 164.556 44 158.572 44 151.284V86.9638C44 68.8823 62.103 53.1887 88.638 45.3393C89.9921 44.9384 89.9427 70.6287 89.9427 70.6287L100.152 68.5868C100.152 68.5868 100.239 42.5085 102.067 42.1818C110.368 40.7165 118.782 39.9865 127.212 40.0002Z" fill="#1B262C" stroke="#1B262C" stroke-linejoin="round"/>
</svg>
