<svg width="180" height="180" viewBox="0 0 180 180" fill="none" xmlns="http://www.w3.org/2000/svg">
<path d="M116.695 130.431C115.984 129.365 115.333 128.3 114.74 127.234C112.372 125.103 110.241 123.978 108.347 123.859C103.61 123.149 99.8212 122.675 96.9789 122.438C94.2559 122.083 91.8878 121.906 89.8746 121.906C86.9141 121.906 83.8952 122.142 80.8161 122.616C77.7375 123.09 74.7776 123.504 71.9353 123.859C69.2122 124.096 66.3705 125.636 63.4101 128.477C63.1732 129.306 62.9955 130.076 62.8774 130.786C63.5878 130.904 64.5941 130.964 65.8969 130.964C68.1463 130.964 71.8762 130.549 77.0861 129.72C82.2966 128.892 86.5592 128.477 89.8746 128.477C93.0718 128.477 97.5713 128.833 103.373 129.543C109.294 130.254 112.491 130.609 112.965 130.609C114.622 130.609 115.865 130.55 116.695 130.431ZM103.551 115.867C105.801 116.932 107.34 117.643 108.169 117.998C108.998 118.235 109.708 118.412 110.3 118.531C110.063 117.11 110.063 116.103 110.3 115.512C110.537 114.801 110.833 114.209 111.188 113.735C109.886 113.498 108.583 112.907 107.281 111.959C105.978 111.012 104.735 110.361 103.551 110.005C102.367 109.65 100.235 109.354 97.1567 109.117C94.0781 108.88 91.6509 108.762 89.8746 108.762C86.9141 108.762 84.3092 108.88 82.0597 109.117C79.8097 109.236 77.7966 109.532 76.0208 110.005C74.3631 110.479 72.8826 111.189 71.5804 112.137C70.3963 112.966 69.2713 113.498 68.2054 113.735C68.4422 114.209 68.679 114.86 68.9158 115.689C69.2713 116.399 69.3304 117.347 69.0936 118.531C69.9227 118.412 70.8109 118.235 71.7581 117.998C73.0603 117.287 74.4221 116.577 75.843 115.867C77.3826 115.393 79.218 115.038 81.3493 114.801C83.4806 114.446 85.2564 114.268 86.6773 114.268C87.3883 114.268 87.9801 114.268 88.4537 114.268C89.046 114.268 89.5196 114.328 89.8746 114.446C91.0586 114.328 92.0649 114.268 92.8941 114.268C94.9072 114.268 96.624 114.387 98.0449 114.623C99.5844 114.742 101.419 115.156 103.551 115.867ZM90.0523 156.363L79.3952 163.468C78.5666 163.941 77.3826 164.888 75.843 166.309C74.3034 167.848 72.4089 168.914 70.1595 169.507C67.9095 170.098 65.5414 170.513 63.0546 170.75C60.6864 171.105 57.8447 171.282 54.5293 171.282C52.99 171.282 50.5626 171.223 47.2471 171.105C43.9316 170.987 41.2674 170.927 39.2544 170.927H34.8141C33.63 170.927 32.5643 170.868 31.617 170.75C30.7882 170.631 29.5449 170.276 27.8871 169.684C26.2294 169.092 24.5125 167.612 22.7363 165.243C20.9602 162.994 19.5392 161.336 18.4735 160.27C17.4078 159.323 16.875 158.257 16.875 157.073C16.875 155.771 17.8222 154.468 19.7168 153.166C22.2034 151.745 23.9795 150.679 25.0453 149.969C26.2294 149.376 27.4135 148.962 28.5976 148.726C29.9001 148.37 31.321 148.192 32.8603 148.192C33.6891 148.192 35.0509 148.252 36.9454 148.37C38.84 148.489 40.3201 148.548 41.3858 148.548C43.2804 148.548 45.767 148.607 48.8456 148.726C51.9243 148.844 54.1148 148.903 55.4173 148.903C56.8384 148.903 58.437 148.844 60.2128 148.726C61.9892 148.607 63.8837 148.37 65.8969 148.015C67.9095 147.66 69.4491 147.186 70.5144 146.594C71.6985 145.884 72.2908 144.818 72.2908 143.397C72.2908 142.213 71.5804 141.621 70.1595 141.621C68.7386 141.739 67.6727 141.798 66.9622 141.798C66.015 141.798 65.0087 141.502 63.9428 140.91C62.9955 140.2 61.101 139.371 58.2592 138.424C55.5358 137.477 54.174 136.056 54.174 134.161C54.174 131.674 55.595 129.129 58.437 126.524C61.3969 123.919 63.0546 122.142 63.4101 121.195C63.8837 120.129 64.1205 119.123 64.1205 118.176C64.1205 116.755 62.6406 114.682 59.6801 111.959C56.7197 109.117 54.7661 106.631 53.8188 104.5C52.8716 102.25 52.0427 99.7037 51.3322 96.8619C50.7402 94.0202 50.4442 90.8229 50.4442 87.2708C50.4442 79.1004 52.3979 72.4697 56.3057 67.3779C60.3315 62.1681 63.2914 58.734 65.1864 57.0763C67.1991 55.3001 69.2713 53.8199 71.4026 52.6358C73.6526 51.3333 75.6652 50.2084 77.4416 49.2612C79.3361 48.3139 81.1716 47.8402 82.9474 47.8402C83.0661 47.485 83.1847 47.1297 83.3029 46.7745C79.9875 44.7616 78.1521 43.2815 77.7966 42.3342C77.4416 41.3869 77.2639 40.3212 77.2639 39.1371C77.2639 36.6505 78.0339 34.5191 79.5729 32.743C81.1125 30.8484 82.5334 29.7235 83.8356 29.3683C85.2564 28.8947 87.2696 28.4802 89.8746 28.125C91.8878 28.5986 93.6636 29.0131 95.2031 29.3683C96.7427 29.7235 98.2817 30.8484 99.8213 32.743C101.36 34.5191 102.13 36.7097 102.13 39.3147C102.13 40.3804 101.893 41.4461 101.419 42.5118C101.064 43.5775 99.5844 44.8208 96.9789 46.2417C96.5053 46.8337 96.0317 47.3666 95.5581 47.8402C98.4004 48.4323 100.295 48.9651 101.242 49.4387C102.308 49.794 104.735 51.0373 108.524 53.1687C112.313 55.3001 115.806 58.4972 119.004 62.7598C122.2 66.9043 124.568 70.9301 126.108 74.8378C127.766 78.6268 128.595 82.7713 128.595 87.2708C128.595 93.5466 127.707 98.6974 125.93 102.723C124.273 106.631 122.023 109.828 119.181 112.314C116.339 114.682 114.918 116.696 114.918 118.353C114.918 119.182 115.155 120.129 115.629 121.195C116.102 122.261 117.76 124.096 120.602 126.701C123.444 129.306 124.865 131.793 124.865 134.161C124.865 135.937 123.503 137.299 120.779 138.246C118.175 139.193 116.339 140.022 115.274 140.732C114.326 141.443 113.083 141.798 111.544 141.798C110.36 141.68 109.531 141.621 109.057 141.621C107.518 141.621 106.748 142.094 106.748 143.041C106.748 144.581 107.281 145.706 108.347 146.417C109.531 147.127 110.892 147.66 112.432 148.015C114.09 148.252 115.984 148.489 118.115 148.726C120.247 148.844 122.26 148.903 124.154 148.903C125.693 148.903 128.239 148.844 131.791 148.726C135.462 148.607 137.416 148.548 137.653 148.548C138.719 148.548 140.199 148.489 142.093 148.37C143.988 148.252 145.349 148.192 146.179 148.192C147.599 148.192 148.961 148.311 150.263 148.548C151.566 148.785 152.928 149.317 154.349 150.146C155.888 151.094 157.546 152.041 159.322 152.988C161.216 154.29 162.164 155.652 162.164 157.073C162.164 158.257 161.631 159.323 160.565 160.27C159.5 161.218 158.019 162.875 156.125 165.243C154.349 167.612 152.75 169.092 151.329 169.684C149.908 170.394 148.783 170.809 147.954 170.927C147.126 171.046 146.06 171.105 144.758 171.105C142.744 170.987 141.087 170.927 139.784 170.927C136.824 170.927 133.982 170.987 131.259 171.105C128.654 171.223 126.049 171.341 123.444 171.46C119.536 171.46 116.813 171.341 115.274 171.105C113.734 170.868 111.781 170.394 109.412 169.684C107.044 169.092 105.09 168.026 103.551 166.487C102.012 165.066 100.709 164 99.6435 163.29C98.5776 162.698 97.1567 161.691 95.3809 160.27C93.7232 158.849 91.9468 157.547 90.0523 156.363ZM92.8941 96.1515V85.4944H102.841V79.1004H92.8941V68.4433H86.5001V79.1004H75.843V85.4944H86.5001V96.1515H92.8941Z" fill="#362222"/>
<path d="M116.695 130.431C115.984 129.365 115.333 128.3 114.74 127.234C112.372 125.103 110.241 123.978 108.346 123.86C103.61 123.149 99.8212 122.675 96.9789 122.438C94.2558 122.083 91.8877 121.906 89.8745 121.906C86.9141 121.906 83.8951 122.142 80.816 122.616C77.7374 123.09 74.777 123.504 71.9353 123.86C69.2122 124.097 66.3704 125.636 63.41 128.477C63.1732 129.306 62.9954 130.076 62.8773 130.786C63.5878 130.905 64.5941 130.964 65.8963 130.964C68.1463 130.964 71.8762 130.55 77.0861 129.721C82.2965 128.892 86.5591 128.477 89.8745 128.477C93.0718 128.477 97.5712 128.833 103.373 129.543C109.294 130.254 112.491 130.609 112.965 130.609C114.622 130.609 115.865 130.55 116.695 130.431ZM103.551 115.867C105.801 116.932 107.34 117.643 108.169 117.998C108.998 118.235 109.708 118.412 110.3 118.531C110.063 117.11 110.063 116.103 110.3 115.512C110.537 114.801 110.833 114.209 111.188 113.735C109.886 113.498 108.583 112.907 107.281 111.959C105.978 111.012 104.735 110.361 103.551 110.005C102.367 109.65 100.235 109.354 97.1566 109.117C94.0781 108.88 91.6509 108.762 89.8745 108.762C86.9141 108.762 84.3091 108.88 82.0597 109.117C79.8097 109.236 77.7965 109.532 76.0207 110.005C74.363 110.479 72.8825 111.189 71.5803 112.137C70.3963 112.966 69.2713 113.498 68.2053 113.735C68.4421 114.209 68.6789 114.86 68.9158 115.689C69.2713 116.4 69.3303 117.347 69.0935 118.531C69.9226 118.412 70.8103 118.235 71.7581 117.998C73.0603 117.287 74.4221 116.577 75.8429 115.867C77.3825 115.393 79.2179 115.038 81.3493 114.801C83.4806 114.446 85.2564 114.268 86.6773 114.268C87.3877 114.268 87.98 114.268 88.4536 114.268C89.0459 114.268 89.5196 114.328 89.8745 114.446C91.0586 114.328 92.0649 114.268 92.894 114.268C94.9072 114.268 96.6239 114.387 98.0448 114.623C99.5844 114.742 101.419 115.156 103.551 115.867ZM92.894 96.1515V85.4944H102.841V79.1004H92.894V68.4439H86.5001V79.1004H75.8429V85.4944H86.5001V96.1515H92.894Z" fill="#FFCCD2"/>
</svg>
