<svg width="180" height="180" viewBox="0 0 180 180" fill="none" xmlns="http://www.w3.org/2000/svg">
<path d="M127.351 154.527C126.878 153.816 126.404 153.165 125.93 152.573C121.668 151.152 117.227 150.441 112.609 150.441C110.004 150.441 106.037 150.263 100.709 149.909C95.3809 149.553 91.0586 149.376 87.7433 149.376C84.3092 149.376 80.0466 149.613 74.9548 150.086C69.8636 150.56 65.9559 150.797 63.2323 150.797C60.2724 150.797 56.7793 151.27 52.7532 152.218C51.3322 152.928 49.9705 153.697 48.6681 154.527C53.7596 156.658 59.562 158.197 66.0741 159.144C72.7054 160.091 80.0466 160.565 88.0988 160.565C103.965 160.565 117.05 158.552 127.351 154.527ZM83.6584 115.451V96.0913V96.2691C82.3556 91.0586 80.757 87.2106 78.8625 84.7238C76.6125 82.7111 74.8958 80.9938 73.7117 79.5729C72.6458 78.1521 71.5804 77.0861 70.5144 76.3757C69.5672 75.5471 67.4949 74.1262 64.2983 72.1131C61.101 70.1004 58.437 68.6199 56.3057 67.6727C54.2925 66.6073 51.8059 66.0741 48.8456 66.0741C44.8197 66.0741 41.8595 66.2518 39.9649 66.6073C38.1887 66.9623 35.643 68.265 32.3275 70.5144C29.1304 72.6463 26.999 75.3694 25.9333 78.6848C24.9861 82.0001 24.5125 84.7828 24.5125 87.0328C24.5125 88.9273 24.69 90.7628 25.0453 92.5391C25.5189 94.3149 25.9926 96.2094 26.4662 98.2226C26.9398 100.235 27.5319 102.071 28.2423 103.728C29.0712 105.386 30.3145 107.636 31.9723 110.478C33.7484 113.201 35.4061 115.451 36.9455 117.227C38.4848 119.004 40.2017 120.779 42.0963 122.556C44.7013 121.609 47.78 120.661 51.3322 119.714C54.8845 118.767 58.7919 117.938 63.0546 117.227C67.3178 116.517 70.6922 116.043 73.179 115.806C75.7839 115.57 79.2771 115.451 83.6584 115.451ZM115.984 117.583C117.642 117.82 120.425 118.47 124.332 119.536C128.239 120.484 131.496 121.49 134.101 122.556C136.351 120.425 138.008 118.707 139.074 117.405C140.258 116.102 141.856 113.853 143.87 110.656C146.001 107.34 147.422 104.794 148.132 103.018C148.961 101.242 149.553 99.4067 149.909 97.5122C150.382 95.6177 150.797 93.6636 151.152 91.6509C151.507 89.6378 151.684 88.0391 151.684 86.8551C151.684 84.7237 151.152 82.0001 150.086 78.6848C149.139 75.3694 147.067 72.6463 143.87 70.5144C140.791 68.3831 138.126 67.14 135.877 66.7845C133.627 66.3109 130.785 66.0741 127.351 66.0741C124.273 66.0741 121.786 66.5477 119.891 67.4949C118.115 68.3241 115.629 69.7449 112.432 71.7581C109.353 73.6526 107.103 75.1916 105.683 76.3757C104.38 77.4416 102.9 78.9216 101.242 80.8161C99.7026 82.5924 98.0449 84.4869 96.2685 86.5001C94.7295 88.9864 93.4864 92.2427 92.5391 96.2691V96.0913V115.451C96.8018 115.451 100.295 115.629 103.018 115.984C105.86 116.221 110.182 116.754 115.984 117.583ZM108.879 142.804L124.509 145.468C124.509 145.231 124.509 144.994 124.509 144.758C123.207 143.455 122.734 142.626 123.089 142.271C123.562 141.797 123.799 141.324 123.799 140.85C123.799 139.666 122.556 138.778 120.069 138.186C117.701 137.594 114.326 137.002 109.945 136.41C105.564 135.818 102.308 135.521 100.176 135.521C98.7553 135.521 97.3344 135.581 95.9136 135.699C94.6108 135.699 93.2496 135.699 91.8287 135.699H89.1641C88.3356 135.581 87.7433 135.521 87.3883 135.521C86.3224 135.64 85.2564 135.699 84.1911 135.699C83.1251 135.699 82.2966 135.699 81.7043 135.699H78.1521C76.3757 135.699 74.6589 135.758 73.0013 135.877C71.4617 135.877 69.9818 136.114 68.5609 136.587C67.2581 136.942 63.9428 137.535 58.6142 138.364C53.286 139.074 50.6218 140.021 50.6218 141.206C50.6218 141.56 50.9178 142.153 51.5099 142.981C51.8651 143.337 51.7467 143.81 51.1547 144.402C50.681 144.994 50.2666 145.527 49.9114 146.001C51.2138 145.883 54.2333 145.29 58.9697 144.225C63.8246 143.159 67.1991 142.508 69.0936 142.271C70.9881 141.916 72.8235 141.679 74.5999 141.56C76.4944 141.442 78.6848 141.383 81.1716 141.383H87.3883C90.9405 141.383 93.96 141.442 96.4463 141.56C98.9331 141.56 103.078 141.975 108.879 142.804ZM65.3636 122.023C59.7988 123.089 55.0029 124.095 50.977 125.043C46.9511 125.871 44.9381 127.174 44.9381 128.95C44.9381 129.779 45.2342 130.489 45.8262 131.081C46.655 132.384 47.3063 133.449 47.78 134.278C48.372 134.989 48.9641 135.344 49.5561 135.344C50.8586 135.344 52.2795 134.989 53.8189 134.278C55.3582 133.449 57.0161 132.857 58.7919 132.502C60.5683 132.028 62.8178 131.673 65.5414 131.437C68.265 131.081 71.3436 130.904 74.7776 130.904C76.7903 130.904 78.8625 130.963 80.9938 131.081C83.2438 131.081 85.4933 131.081 87.7433 131.081C89.7564 131.081 91.71 131.081 93.6045 131.081C95.499 131.081 97.3935 131.022 99.288 130.904C102.367 130.904 105.209 131.022 107.814 131.259C110.537 131.496 113.616 132.028 117.05 132.857C118.944 133.687 120.484 134.337 121.668 134.811C122.852 135.167 124.095 135.344 125.398 135.344C126.108 135.344 126.7 134.693 127.174 133.39C127.648 132.088 128.062 131.2 128.417 130.726C128.772 130.253 128.95 129.66 128.95 128.95C128.95 127.174 126.404 125.693 121.313 124.509C116.931 123.681 112.609 122.852 108.347 122.023C104.912 121.076 101.42 120.425 97.8671 120.069C94.4336 119.714 90.9405 119.359 87.3883 119.004C82.0598 119.477 77.9153 119.892 74.9548 120.247C71.9949 120.484 68.7977 121.076 65.3636 122.023ZM98.9331 71.9353C99.288 69.5672 99.6435 67.1991 99.9984 64.8309C99.9984 63.7656 99.8803 62.9364 99.6435 62.3441C99.5248 61.7524 98.7553 60.2724 97.3344 57.9037C96.0317 55.5358 93.0128 54.3517 88.2759 54.3517C83.3029 54.3517 79.9875 55.7726 78.3298 58.6142C76.7903 61.4565 76.0208 63.7059 76.0208 65.3636C76.0208 66.4296 76.1985 67.6136 76.5534 68.9164C76.9089 70.2186 77.2639 71.6985 77.6194 73.3567C77.9743 74.8957 79.1584 77.1458 81.1716 80.1056C83.3029 83.0661 85.6119 86.2037 88.0988 89.5196C88.5724 88.6905 90.3482 86.3224 93.4268 82.4147C96.5053 78.5076 98.3408 75.0144 98.9331 71.9353ZM92.5391 29.8408H105.683V38.7216H92.3614V49.0232C93.6636 48.4312 95.3809 48.7864 97.5122 50.0889C99.6435 51.3915 101.301 52.8124 102.485 54.3517C103.788 55.7726 104.794 59.9169 105.505 66.7845C105.86 67.2581 106.274 67.7317 106.748 68.2059C108.051 64.89 111.07 62.4038 115.806 60.7461C120.543 58.9697 124.865 58.0815 128.772 58.0815C132.443 58.0815 136.055 58.7329 139.607 60.0356C143.277 61.3378 145.942 62.4628 147.599 63.4101C149.257 64.3573 151.093 65.9559 153.106 68.2059C155.237 70.3372 156.776 73.1199 157.723 76.5534C158.789 79.8688 159.322 83.8356 159.322 88.4537C159.322 93.7822 157.96 99.1108 155.237 104.439C152.987 108.347 151.27 111.425 150.086 113.675C145.349 119.832 140.613 125.99 135.877 132.147C134.811 134.278 133.982 136.055 133.39 137.476C132.798 138.778 132.502 140.14 132.502 141.56C132.502 142.271 132.621 143.1 132.857 144.047C133.094 144.876 134.574 145.883 137.298 147.067C140.14 148.251 141.679 149.672 141.916 151.329C142.39 154.645 140.85 157.013 137.298 158.434C133.746 159.973 130.667 161.335 128.062 162.519C125.457 163.821 122.437 164.769 119.004 165.361C115.688 166.071 111.425 166.9 106.215 167.848C101.005 168.795 95.0254 169.269 88.2759 169.269C81.5265 169.269 75.3103 168.735 69.6268 167.67C64.0614 166.604 59.7988 165.835 56.8384 165.361C53.7596 164.65 50.7402 163.585 47.78 162.164C44.9381 160.861 41.9779 159.559 38.8992 158.257C35.5838 156.48 34.1628 154.171 34.6365 151.329C34.8733 149.908 36.4126 148.488 39.2545 147.067C42.0963 145.646 43.6356 144.343 43.8724 143.159C44.2277 141.265 43.9316 139.429 42.9843 137.653C42.1555 135.758 41.2674 133.923 40.3202 132.147C39.2545 129.542 36.827 126.167 33.0379 122.023C29.2488 117.879 25.9926 113.438 23.2691 108.702C20.6641 103.847 18.9472 100.176 18.1183 97.6899C17.2895 95.2031 16.875 92.1246 16.875 88.4537C16.875 83.5987 17.3486 79.5729 18.2959 76.3757C19.2432 73.179 20.7825 70.4554 22.9139 68.2059C25.1637 65.8372 26.999 64.2392 28.42 63.4101C29.8409 62.5809 32.4459 61.5156 36.235 60.2128C40.0241 58.7919 43.8132 58.0815 47.6024 58.0815C51.6283 58.0815 55.3582 58.7329 58.7919 60.0356C62.3441 61.3378 64.7719 62.5809 66.0741 63.765C67.4949 64.9496 68.5018 66.4296 69.0936 68.2059C69.3304 67.8504 69.6268 67.4949 69.9818 67.14C70.8109 60.2724 71.8763 56.0687 73.179 54.5293C74.4812 52.99 76.1389 51.5691 78.1521 50.2666C80.2834 48.8456 82.0001 48.4312 83.3029 49.0232V38.7216H70.1595V29.8408H83.3029V16.875H92.5391V29.8408Z" fill="#362222"/>
<path d="M127.352 154.527C126.878 153.816 126.404 153.165 125.931 152.572C121.668 151.152 117.227 150.441 112.61 150.441C110.004 150.441 106.037 150.264 100.709 149.908C95.3809 149.554 91.0586 149.376 87.7432 149.376C84.3097 149.376 80.0466 149.613 74.9554 150.086C69.8636 150.56 65.9559 150.797 63.2323 150.797C60.2724 150.797 56.7793 151.27 52.7533 152.218C51.3324 152.928 49.9706 153.697 48.6682 154.527C53.7597 156.658 59.562 158.197 66.0746 159.145C72.7054 160.092 80.0466 160.566 88.0987 160.566C103.966 160.566 117.05 158.552 127.352 154.527ZM83.6584 115.451V96.0913V96.269C82.3556 91.0586 80.757 87.2105 78.8625 84.7237C76.6131 82.7111 74.8957 80.9938 73.7117 79.5729C72.6463 78.152 71.5804 77.0867 70.515 76.3762C69.5677 75.5471 67.4955 74.1262 64.2982 72.113C61.101 70.1004 58.437 68.6199 56.3057 67.6727C54.2926 66.6073 51.806 66.074 48.8457 66.074C44.8198 66.074 41.8596 66.2518 39.965 66.6073C38.1889 66.9622 35.6431 68.265 32.3276 70.515C29.1305 72.6463 26.9991 75.3694 25.9334 78.6847C24.9862 82.0007 24.5126 84.7834 24.5126 87.0328C24.5126 88.9273 24.6901 90.7627 25.0454 92.5391C25.519 94.3149 25.9927 96.2094 26.4663 98.2226C26.94 100.236 27.532 102.071 28.2424 103.729C29.0713 105.387 30.3146 107.636 31.9724 110.478C33.7485 113.201 35.4063 115.451 36.9456 117.227C38.4849 119.004 40.2019 120.779 42.0964 122.556C44.7014 121.609 47.7801 120.661 51.3324 119.714C54.8846 118.767 58.7919 117.938 63.0551 117.227C67.3177 116.517 70.6922 116.043 73.179 115.806C75.7839 115.57 79.277 115.451 83.6584 115.451ZM115.984 117.583C117.642 117.82 120.424 118.471 124.332 119.536C128.239 120.484 131.496 121.49 134.101 122.556C136.351 120.424 138.008 118.708 139.074 117.405C140.258 116.102 141.857 113.853 143.869 110.656C146.001 107.34 147.422 104.794 148.132 103.018C148.961 101.242 149.554 99.4067 149.908 97.5122C150.382 95.6177 150.797 93.6635 151.152 91.6509C151.507 89.6377 151.685 88.0391 151.685 86.855C151.685 84.7237 151.152 82.0007 150.086 78.6847C149.139 75.3694 147.067 72.6463 143.869 70.515C140.791 68.3831 138.127 67.14 135.877 66.785C133.627 66.3114 130.785 66.074 127.352 66.074C124.273 66.074 121.786 66.5482 119.892 67.4955C118.115 68.324 115.629 69.7449 112.432 71.7581C109.353 73.6526 107.103 75.1922 105.682 76.3762C104.38 77.4416 102.9 78.9215 101.242 80.8166C99.7026 82.5924 98.0449 84.4869 96.2691 86.5001C94.7295 88.9864 93.4864 92.2427 92.5391 96.269V96.0913V115.451C96.8017 115.451 100.295 115.629 103.018 115.984C105.86 116.221 110.182 116.754 115.984 117.583ZM108.88 142.804L124.509 145.468C124.509 145.231 124.509 144.994 124.509 144.758C123.207 143.455 122.734 142.626 123.088 142.271C123.562 141.797 123.799 141.324 123.799 140.85C123.799 139.666 122.556 138.778 120.069 138.186C117.701 137.594 114.326 137.002 109.945 136.41C105.564 135.818 102.308 135.521 100.176 135.521C98.7553 135.521 97.3344 135.581 95.9136 135.699C94.6114 135.699 93.2496 135.699 91.8287 135.699H89.1641C88.3356 135.581 87.7432 135.521 87.3883 135.521C86.3224 135.64 85.257 135.699 84.1911 135.699C83.1257 135.699 82.2966 135.699 81.7042 135.699H78.152C76.3762 135.699 74.6589 135.758 73.0012 135.877C71.4622 135.877 69.9817 136.114 68.5609 136.587C67.2587 136.943 63.9427 137.535 58.6147 138.364C53.2861 139.074 50.6219 140.021 50.6219 141.205C50.6219 141.56 50.9179 142.153 51.51 142.981C51.8652 143.337 51.7468 143.81 51.1548 144.402C50.6811 144.994 50.2667 145.527 49.9115 146.001C51.214 145.883 54.2334 145.29 58.9697 144.225C63.8246 143.159 67.199 142.508 69.0941 142.271C70.9886 141.916 72.8235 141.679 74.5999 141.56C76.4944 141.442 78.6853 141.383 81.1716 141.383H87.3883C90.9405 141.383 93.96 141.442 96.4462 141.56C98.9331 141.56 103.078 141.975 108.88 142.804ZM65.3642 122.023C59.7988 123.088 55.0031 124.095 50.9771 125.043C46.9512 125.871 44.9382 127.174 44.9382 128.95C44.9382 129.779 45.2343 130.489 45.8263 131.081C46.6552 132.384 47.3064 133.45 47.7801 134.278C48.3721 134.989 48.9642 135.344 49.5562 135.344C50.8587 135.344 52.2796 134.989 53.819 134.278C55.3583 133.45 57.0161 132.857 58.7919 132.502C60.5683 132.029 62.8183 131.673 65.5414 131.437C68.265 131.081 71.3436 130.904 74.7776 130.904C76.7902 130.904 78.8625 130.963 80.9938 131.081C83.2438 131.081 85.4938 131.081 87.7432 131.081C89.7564 131.081 91.71 131.081 93.6045 131.081C95.499 131.081 97.3941 131.022 99.2886 130.904C102.367 130.904 105.209 131.022 107.814 131.259C110.537 131.496 113.616 132.029 117.05 132.857C118.945 133.687 120.484 134.337 121.668 134.811C122.852 135.166 124.095 135.344 125.398 135.344C126.108 135.344 126.7 134.693 127.174 133.39C127.648 132.088 128.062 131.2 128.417 130.726C128.773 130.252 128.95 129.66 128.95 128.95C128.95 127.174 126.404 125.693 121.313 124.509C116.931 123.681 112.61 122.852 108.346 122.023C104.913 121.076 101.42 120.424 97.8677 120.069C94.4336 119.714 90.9405 119.359 87.3883 119.004C82.0597 119.477 77.9152 119.892 74.9554 120.247C71.9949 120.484 68.7977 121.076 65.3642 122.023ZM98.9331 71.9359C99.2886 69.5672 99.6435 67.199 99.999 64.8309C99.999 63.7655 99.8803 62.9364 99.6435 62.3447C99.5254 61.7524 98.7553 60.2724 97.3344 57.9043C96.0322 55.5358 93.0127 54.3518 88.2765 54.3518C83.3029 54.3518 79.9875 55.7726 78.3298 58.6147C76.7902 61.4565 76.0207 63.7059 76.0207 65.3636C76.0207 66.4295 76.1985 67.6136 76.5534 68.9164C76.9089 70.2185 77.2639 71.699 77.6194 73.3567C77.9743 74.8957 79.1589 77.1457 81.1716 80.1056C83.3029 83.066 85.6119 86.2042 88.0987 89.5196C88.5724 88.6905 90.3482 86.3224 93.4273 82.4147C96.5059 78.5075 98.3413 75.0144 98.9331 71.9359Z" fill="#FFEDED"/>
</svg>
