<svg width="180" height="180" viewBox="0 0 180 180" fill="none" xmlns="http://www.w3.org/2000/svg">
<path d="M40.6183 142.805C41.8024 137.477 43.1641 133.392 44.7034 130.55C46.2428 127.59 48.4926 124.333 51.4528 120.781C54.4131 117.11 57.0774 114.624 59.4456 113.321C61.8137 111.9 65.3068 110.42 69.9249 108.881C70.2799 108.644 70.6354 108.348 70.9903 107.993C68.7409 106.572 66.5499 105.151 64.4186 103.73C62.6428 102.072 61.2214 99.4674 60.156 95.9152C59.2087 92.3631 58.7351 89.1068 58.7351 86.1463C58.7351 84.8436 58.8532 83.4823 59.0901 82.0614C59.3269 80.64 60.2741 78.4496 61.9324 75.4892C63.7082 72.4106 65.4846 70.1612 67.2604 68.7403C69.1549 67.2007 71.0494 66.3126 72.9439 66.0758C74.9571 65.7208 76.8516 65.4244 78.6279 65.1876C78.8648 64.9507 79.1606 64.7139 79.5161 64.4771C77.6211 63.6486 75.7862 62.8194 74.0098 61.9909C72.5889 60.8068 71.523 59.2082 70.8126 57.195C70.1021 55.0637 69.7472 52.9324 69.7472 50.801C69.7472 48.788 69.9249 47.0711 70.2799 45.6502C70.7535 44.2293 71.9376 42.5123 73.8321 40.4993C75.7266 38.368 77.562 36.7102 79.3384 35.5262C81.2329 34.342 84.3114 33.75 88.5741 33.75C92.9554 33.75 96.093 34.342 97.9881 35.5262C100.001 36.5918 102.132 38.4272 104.382 41.0322C106.75 43.5188 107.934 46.8343 107.934 50.9786C107.934 55.8334 106.513 59.5041 103.672 61.9909C100.711 63.1749 98.8757 63.9444 98.1652 64.2999C98.4021 64.6549 98.6985 64.9507 99.0534 65.1876C100.948 65.4244 102.902 65.6021 104.915 65.7208C106.572 66.0757 108.408 67.0826 110.421 68.7403C112.552 70.2793 114.388 72.7661 115.927 76.2002C117.584 79.5156 118.473 81.7059 118.591 82.7719C118.828 83.7191 118.946 84.8436 118.946 86.1463C118.946 89.3436 118.473 92.6589 117.525 96.093C116.697 99.4084 115.394 101.895 113.618 103.552C111.842 105.092 110.361 106.158 109.177 106.75C107.993 107.342 107.105 107.816 106.513 108.17C106.987 108.526 108.349 109.118 110.598 109.947C112.967 110.657 115.394 111.723 117.881 113.144C120.486 114.565 123.15 116.992 125.873 120.426C128.715 123.86 130.965 127.294 132.623 130.728C134.399 134.043 135.701 137.595 136.53 141.384C137.477 145.055 138.011 147.66 138.129 149.2C138.247 150.739 138.306 152.633 138.306 154.883C138.306 155.949 138.247 157.844 138.129 160.567C138.011 163.29 137.951 165.599 137.951 167.494H39.5526C39.5526 165.363 39.4934 163.29 39.375 161.277C39.375 159.265 39.375 157.31 39.375 155.416C39.375 152.93 39.4342 150.857 39.5526 149.2C39.671 147.423 40.0263 145.292 40.6183 142.805ZM78.4502 44.9398C76.9106 46.9527 76.1411 49.1433 76.1411 51.5114C76.1411 52.2219 76.2007 53.0508 76.3189 53.9981C76.5557 54.8269 76.8516 55.6558 77.2071 56.4846C77.562 57.195 78.2724 57.9651 79.3384 58.7936C80.5224 59.5041 81.2919 60.0367 81.6474 60.3922L86.4428 65.1876C82.5356 66.8458 79.8711 68.148 78.4502 69.0952C77.1474 70.0425 75.8452 70.9307 74.5425 71.7593C73.3584 72.4703 72.234 73.4766 71.1681 74.7787C70.1021 75.9628 69.1549 77.5024 68.3263 79.3969C67.4972 81.2914 66.8458 82.8309 66.3722 84.015C66.0173 85.0804 65.8395 86.265 65.8395 87.5672C65.8395 89.1068 66.195 90.7054 66.9054 92.3631C67.6159 94.0207 68.5041 95.7966 69.5694 97.6911C70.7535 99.5856 72.0563 101.184 73.4771 102.487C75.0161 103.789 76.6738 105.151 78.4502 106.572C80.3447 107.875 81.7656 108.822 82.7128 109.414L71.523 114.742C68.3263 116.282 65.7214 117.821 63.7082 119.36C61.695 120.781 59.5637 122.912 57.3143 125.754C55.1827 128.478 53.5842 131.083 52.5185 133.57C51.5712 135.938 50.7423 138.839 50.0319 142.273C49.3215 145.588 48.907 148.075 48.7886 149.732C48.6702 151.39 48.611 153.285 48.611 155.416V159.501H128.36V155.416C128.36 153.285 128.301 151.39 128.183 149.732C128.064 148.075 127.649 145.588 126.939 142.273C126.228 138.957 125.341 136.115 124.275 133.747C123.328 131.26 121.788 128.656 119.657 125.932C117.525 123.209 115.453 121.077 113.441 119.538C111.427 117.88 108.763 116.282 105.447 114.742L94.2581 109.414C95.679 108.466 97.0999 107.519 98.5207 106.572C100.06 105.506 101.362 104.44 102.428 103.375C103.494 102.309 104.382 101.362 105.092 100.533C105.922 99.7043 106.75 98.5793 107.579 97.1584C108.527 95.7375 109.355 94.1979 110.065 92.5402C110.776 90.8826 111.131 89.2249 111.131 87.5672C111.131 86.265 110.836 84.9032 110.243 83.4823C109.652 81.9428 109 80.4032 108.29 78.8642C107.697 77.3246 106.928 76.0224 105.981 74.9565C105.033 73.7724 103.613 72.5884 101.718 71.4043C99.8229 70.2203 98.4617 69.3321 97.6326 68.7403C96.8034 68.0299 95.3831 67.2598 93.3699 66.4313C91.4754 65.6021 92.1268 63.5895 95.3235 60.3922C96.7444 59.2082 98.1653 57.9651 99.5861 56.6623C100.297 54.8862 100.652 53.0508 100.652 51.1562C100.652 48.788 99.6457 46.3606 97.6326 43.874C95.7381 41.3875 92.8373 40.1441 88.9296 40.1441C87.2719 40.1441 85.3774 40.5586 83.2461 41.3874C81.1142 42.2163 79.5161 43.4004 78.4502 44.9398Z" fill="#362222"/>
<path d="M78.4502 44.9396C76.9112 46.9526 76.1411 49.1432 76.1411 51.5114C76.1411 52.2218 76.2008 53.0507 76.3189 53.998C76.5557 54.8269 76.8516 55.6557 77.2071 56.4846C77.562 57.195 78.2724 57.9645 79.3384 58.7936C80.5224 59.5041 81.2919 60.0367 81.6474 60.3922L86.4428 65.1876C82.5356 66.8452 79.8711 68.148 78.4502 69.0952C77.148 70.0425 75.8453 70.9307 74.5431 71.7592C73.3584 72.4697 72.234 73.4766 71.1681 74.7787C70.1027 75.9628 69.1554 77.5024 68.3263 79.3969C67.4972 81.2914 66.8464 82.8309 66.3728 84.015C66.0173 85.0804 65.8395 86.2644 65.8395 87.5672C65.8395 89.1067 66.195 90.7048 66.9054 92.3625C67.6159 94.0207 68.5041 95.7966 69.5694 97.6911C70.7535 99.5856 72.0563 101.184 73.4771 102.487C75.0167 103.789 76.6744 105.151 78.4502 106.572C80.3447 107.875 81.7656 108.822 82.7134 109.414L71.5236 114.742C68.3263 116.282 65.7214 117.821 63.7082 119.36C61.6956 120.781 59.5637 122.912 57.3143 125.754C55.1828 128.478 53.5843 131.083 52.5186 133.57C51.5713 135.938 50.7425 138.838 50.032 142.273C49.3215 145.588 48.9071 148.075 48.7887 149.732C48.6703 151.39 48.6111 153.285 48.6111 155.416V159.501H128.36V155.416C128.36 153.285 128.301 151.39 128.183 149.732C128.064 148.075 127.65 145.588 126.939 142.273C126.229 138.957 125.341 136.115 124.275 133.747C123.328 131.26 121.788 128.656 119.657 125.932C117.525 123.208 115.453 121.077 113.441 119.538C111.427 117.88 108.763 116.282 105.448 114.742L94.2581 109.414C95.679 108.466 97.0999 107.519 98.5207 106.572C100.06 105.506 101.363 104.44 102.428 103.375C103.494 102.309 104.382 101.362 105.092 100.533C105.922 99.7042 106.75 98.5792 107.579 97.1584C108.527 95.7375 109.355 94.1979 110.066 92.5402C110.777 90.8825 111.131 89.2249 111.131 87.5672C111.131 86.2644 110.836 84.9032 110.243 83.4823C109.652 81.9427 109 80.4032 108.29 78.8642C107.697 77.3246 106.928 76.0224 105.981 74.9565C105.033 73.7724 103.613 72.5884 101.718 71.4043C99.8235 70.2202 98.4617 69.3321 97.6326 68.7397C96.804 68.0293 95.3831 67.2598 93.3699 66.4312C91.4754 65.6021 92.1268 63.5889 95.3235 60.3922C96.7444 59.2082 98.1658 57.9645 99.5867 56.6623C100.297 54.8861 100.652 53.0507 100.652 51.1562C100.652 48.788 99.6458 46.3606 97.6326 43.874C95.7381 41.3873 92.8373 40.144 88.9296 40.144C87.2719 40.144 85.3774 40.5585 83.2461 41.3873C81.1148 42.2162 79.5161 43.4003 78.4502 44.9396Z" fill="#FFEDED"/>
</svg>
