<svg width="256" height="256" viewBox="0 0 256 256" fill="none" xmlns="http://www.w3.org/2000/svg">
<path fill-rule="evenodd" clip-rule="evenodd" d="M110.181 108.831C105.166 104.099 102.032 97.3906 102.032 89.955C102.032 75.6292 113.661 64 127.987 64C142.313 64 153.942 75.6292 153.942 89.955C153.942 97.3906 150.808 104.099 145.793 108.831H149.223C154.435 108.831 158.661 113.058 158.661 118.27C158.661 123.481 154.435 127.708 149.223 127.708H142.139C151.682 176.186 186.977 215.011 186.977 215.011V233.887H69V215.011C69 215.011 104.154 175.66 113.781 127.708H106.753C101.542 127.708 97.3152 123.481 97.3152 118.27C97.3152 115.766 98.3106 113.366 100.079 111.595C101.85 109.827 104.25 108.831 106.753 108.831L110.181 108.831Z" fill="url(#paint0_angular_403_9)" stroke="black" stroke-width="4.42109"/>
<defs>
<radialGradient id="paint0_angular_403_9" cx="0" cy="0" r="1" gradientUnits="userSpaceOnUse" gradientTransform="translate(127.989 148.944) rotate(90) scale(84.9436 58.9886)">
<stop stop-color="#774360"/>
<stop offset="1" stop-color="#4C3A51"/>
</radialGradient>
</defs>
</svg>
