<svg width="180" height="180" viewBox="0 0 180 180" fill="none" xmlns="http://www.w3.org/2000/svg">
<path d="M42.5748 168.75V168.376V163.707L43.1306 157.917C43.5011 154.181 44.4891 150.819 46.0946 147.831C47.7002 144.717 50.6026 142.974 54.8017 142.601L61.2855 142.04L68.3252 141.293L81.6637 139.985L97.4104 139.425C100.127 139.425 103.153 139.488 106.487 139.612C109.946 139.737 113.527 139.985 117.232 140.36C121.431 140.36 125.816 140.671 130.385 141.293C134.955 141.916 138.845 142.414 142.057 142.787C145.267 143.161 147.676 145.278 149.281 149.138C149.652 150.134 150.146 151.753 150.764 153.995C151.381 156.236 151.69 158.664 151.69 161.279L151.875 164.828V168.19V168.75H42.5748ZM75.1798 95.3449C72.7093 96.4654 70.6719 97.3373 69.066 97.9599C68.6959 98.0843 66.411 98.8312 62.2119 100.201L61.8413 100.388L57.951 101.509L54.2459 102.816C53.3813 103.065 52.3316 103.812 51.0965 105.058L49.0587 108.233L48.6883 108.793L48.503 109.353L46.0946 112.715C45.3536 113.462 44.3039 113.898 42.9454 114.023L40.9075 113.836L38.8698 113.462C36.3997 112.715 33.9914 111.408 31.6448 109.54C29.2983 107.673 28.125 105.618 28.125 103.376C28.125 98.0218 29.4835 92.979 32.2006 88.2473C34.7942 83.2663 37.8817 79.0948 41.4633 75.7328C42.9454 74.2388 44.4274 72.495 45.9095 70.5026C46.6504 69.507 47.515 68.2616 48.503 66.7671C50.479 63.1564 51.467 59.2959 51.467 55.1868C51.467 53.6925 51.7758 52.4473 52.3933 51.4511L55.1721 48.2759L57.5803 46.4081L60.174 43.9799L63.6936 40.0575C64.6819 38.6877 65.6696 36.82 66.6579 34.454L67.2137 32.3994L67.7694 30.158V29.7845L69.066 24.7414C69.6836 23.2472 70.857 22.5 72.5861 22.5L76.1057 26.0489L79.6258 29.9713L80.1816 30.9052L80.9224 31.8391C83.1454 34.8276 85.6159 37.5671 88.3327 40.0575C91.1734 42.5479 94.5697 43.7931 98.5219 43.7931C100.003 43.7931 102.844 44.5403 107.043 46.0345C111.242 47.4042 115.627 49.8946 120.197 53.5057C125.754 57.8638 131.065 64.4012 136.128 73.1177C138.598 77.3516 140.451 82.2077 141.686 87.687C142.921 93.0414 143.539 99.2672 143.539 106.365V107.673V108.793V112.155C143.539 113.649 143.662 114.77 143.909 115.517V127.472C143.909 130.584 142.859 132.141 140.759 132.141H140.574H140.389H139.278L138.351 131.954L116.492 129.712L97.5954 128.966L82.0339 129.526L68.6959 130.834L61.6562 131.581L55.1721 132.141C54.3076 132.141 53.6901 132.017 53.3196 131.767C52.9491 131.394 52.7639 130.895 52.7639 130.273L53.3196 128.218L54.9869 125.603L57.2102 123.362L59.8033 121.121L60.3591 120.747L60.9148 120.187L67.0286 117.385C68.7577 116.763 70.0543 116.264 70.9189 115.891C71.7834 115.517 73.1419 114.832 74.9942 113.836C79.0701 111.968 82.7753 109.54 86.1098 106.552C89.4443 103.563 91.1115 99.5788 91.1115 94.5979L90.9264 92.9166L90.7408 90.8623C90.4939 89.9904 90.3088 89.3053 90.1851 88.8075C89.9381 88.1848 89.6293 87.4378 89.2592 86.5659C88.8885 85.5697 88.3946 84.8228 87.777 84.3249H87.2212L86.6655 84.6984L86.1098 85.2587C83.1454 90.2396 79.5021 93.6017 75.1798 95.3449Z" fill="url(#paint0_linear_1_104)"/>
<defs>
<linearGradient id="paint0_linear_1_104" x1="28" y1="96" x2="152" y2="96" gradientUnits="userSpaceOnUse">
<stop stop-color="#3B5249"/>
<stop offset="1" stop-color="#382933"/>
</linearGradient>
</defs>
</svg>
