<svg width="180" height="180" viewBox="0 0 180 180" fill="none" xmlns="http://www.w3.org/2000/svg">
<path d="M34.6118 168.75L33.9654 164.446L33.75 160.356C33.75 154.33 34.8991 149.309 37.1975 145.291C38.4903 142.996 39.7114 141.131 40.8606 139.696C42.1534 138.117 43.6617 136.539 45.3855 134.961L46.6783 133.885L48.1866 132.808C51.0596 130.513 53.8608 128.72 56.5903 127.428C59.463 126.137 61.0431 125.205 61.3305 124.63L61.1151 123.124V121.402L61.7614 115.376L63.7009 109.35C65.8558 104.615 68.8005 100.598 72.5355 97.2979C76.4139 93.8542 80.5798 91.7021 85.0326 90.8415L86.1103 90.6261H87.1875L88.6956 90.8415H90.2042C94.0826 91.7021 97.8896 93.8542 101.624 97.2979C105.359 100.741 108.304 104.759 110.459 109.35L111.967 113.87L112.829 118.389L113.044 119.896V121.402V123.124L112.829 124.63L117.354 127.428C119.94 128.576 123.028 130.513 126.619 133.239L127.696 134.1L128.989 134.961C131.862 137.4 134.52 140.772 136.962 145.076C139.404 149.38 140.625 154.546 140.625 160.572L140.41 164.661L139.763 168.75H34.6118ZM72.5355 51.0261C76.5574 47.0087 81.4416 45 87.1875 45C92.79 45 97.6022 47.0087 101.624 51.0261C105.646 55.0435 107.657 59.85 107.657 65.4457C107.657 71.0415 105.646 75.8481 101.624 79.8654C97.6022 83.8828 92.79 85.8915 87.1875 85.8915C81.585 85.8915 76.7728 83.9542 72.7509 80.0803C68.7285 76.0629 66.7176 71.1849 66.7176 65.4457C66.7176 59.9934 68.6565 55.187 72.5355 51.0261Z" fill="url(#paint0_linear_1_109)"/>
<defs>
<linearGradient id="paint0_linear_1_109" x1="34" y1="107" x2="141" y2="107" gradientUnits="userSpaceOnUse">
<stop stop-color="#3B5249"/>
<stop offset="1" stop-color="#382933"/>
</linearGradient>
</defs>
</svg>
