<svg width="50" height="50" viewBox="0 0 50 50" fill="none" xmlns="http://www.w3.org/2000/svg">
<path d="M28.3884 9.05761C27.599 8.65607 26.5871 8.42574 25.5137 8.40197L25.5075 8.39969L25.3299 8.3997C24.1889 8.39978 23.1063 8.63293 22.2722 9.05727C21.4931 9.45367 20.647 10.1824 20.647 11.2735V11.5422L21.8367 13.5965C15.2376 19.5594 13.2551 25.3921 13.2118 30.1412C13.1777 33.876 14.3436 36.8465 15.2436 38.5782C14.5672 38.7724 13.9471 39.0155 13.4706 39.3268C12.5646 39.9187 11.8729 40.5823 11.4982 41.5742C11.1439 42.5124 11.1236 43.6216 11.236 44.9825L11.3118 45.9001H38.6894L38.7652 44.9824C38.8776 43.6216 38.8573 42.5123 38.5029 41.5742C38.1283 40.5823 37.4366 39.9187 36.5306 39.3268C36.188 39.103 35.773 38.9171 35.3231 38.7602C36.86 35.8842 39.3778 29.1429 34.989 21.1509L34.2006 19.7151L29.0668 27.3168L26.8044 25.8746L32.4991 17.4418L32.0086 16.8636C31.0907 15.7816 30.0348 14.6906 28.8239 13.5962L30.0136 11.5425L30.0136 11.2738C30.0137 10.1826 29.1675 9.45394 28.3884 9.05761Z" fill="#222222"/>
<path d="M21.6466 11.2738C21.6466 10.2388 23.2956 9.40002 25.33 9.40002C27.3645 9.40032 29.0135 10.2387 29.0135 11.2737L27.5481 13.8029C28.9868 15.0504 30.2095 16.2893 31.2455 17.5105L25.8365 25.5205C25.5951 25.878 25.6969 26.3544 26.0648 26.5889L28.6863 28.2604C29.0542 28.4949 29.5444 28.396 29.7858 28.0386L34.112 21.6321C38.9866 30.5093 34.8619 37.7576 33.8044 39.3659C34.7103 39.5746 35.4814 39.8362 35.9834 40.1642C37.6061 41.2243 37.989 42.2281 37.7683 44.9004H12.2323C12.0115 42.2281 12.3943 41.2244 14.017 40.1642C14.6232 39.7682 15.6215 39.469 16.7757 39.2428C15.2699 36.8857 9.35003 25.7367 23.1119 13.8031L21.6466 11.2738Z" fill="url(#paint0_linear_4_634)"/>
<path opacity="0.5" fill-rule="evenodd" clip-rule="evenodd" d="M15.473 34.212C15.2613 34.182 12.7004 24.9281 21.5677 16.372C19.3438 18.1805 14.1389 28.879 15.473 34.212V34.212Z" fill="url(#paint1_linear_4_634)"/>
<path opacity="0.5" fill-rule="evenodd" clip-rule="evenodd" d="M24.048 13.989L22.4357 11.1365C22.4357 11.1365 22.6837 10.6486 24.0728 10.2766C24.0648 10.2936 23.0062 11.1861 23.0062 11.1861L24.048 13.989Z" fill="url(#paint2_linear_4_634)"/>
<path opacity="0.5" fill-rule="evenodd" clip-rule="evenodd" d="M23.572 39.124C20.3386 39.1577 17.7862 39.5051 15.8453 40.0717C21.9921 39.634 28.1013 39.5748 34.1543 40.0717C31.9362 39.4242 28.919 39.063 24.9998 39.1292C24.5099 39.1212 24.0339 39.1192 23.572 39.1242V39.124Z" fill="url(#paint3_linear_4_634)"/>
<g opacity="0.3">
<path d="M23.2058 9.7636C23.805 9.5489 24.5343 9.4215 25.323 9.4215C27.3574 9.4218 29.0067 10.2603 29.0066 11.2953L27.5416 13.8244C28.9802 15.0718 30.203 16.3109 31.239 17.5321C27.939 22.4187 25.699 25.9658 25.699 25.9658C25.699 25.9658 25.2828 25.1834 28.8156 17.3193L25.6794 13.9156C26.5078 12.8297 27.5909 11.1751 27.5909 11.1751C27.5909 11.1751 25.6546 10.2182 23.2058 9.7636Z" fill="#00112C"/>
<path d="M32.756 23.6505L34.1054 21.6535C38.9603 30.4938 34.8888 37.7201 33.8109 39.3674C32.6501 39.0996 31.267 38.9188 29.9447 38.7969C31.3745 36.4841 34.6761 30.1609 32.756 23.6505Z" fill="#00112C"/>
</g>
<defs>
<linearGradient id="paint0_linear_4_634" x1="11.574" y1="42.52" x2="38.4256" y2="42.52" gradientUnits="userSpaceOnUse">
<stop stop-color="#639A67"/>
<stop offset="1" stop-color="#205D67"/>
</linearGradient>
<linearGradient id="paint1_linear_4_634" x1="14.97" y1="25.3" x2="21.57" y2="25.3" gradientUnits="userSpaceOnUse">
<stop stop-color="white"/>
<stop offset="1" stop-color="white" stop-opacity="0"/>
</linearGradient>
<linearGradient id="paint2_linear_4_634" x1="22.43" y1="12.1" x2="24.07" y2="12.1" gradientUnits="userSpaceOnUse">
<stop stop-color="white"/>
<stop offset="1" stop-color="white" stop-opacity="0"/>
</linearGradient>
<linearGradient id="paint3_linear_4_634" x1="14.5009" y1="39.8342" x2="35.4292" y2="39.8342" gradientUnits="userSpaceOnUse">
<stop stop-color="white"/>
<stop offset="1" stop-color="white" stop-opacity="0"/>
</linearGradient>
</defs>
</svg>
