<svg width="16" height="16" viewBox="0 0 16 16" fill="none" xmlns="http://www.w3.org/2000/svg">
<path d="M8 1H4V3H5V4H4V5H3V6H2V8H3V9H5V8H7V9H6V10H5V11H4V13H3V15H13V13H12V10H13V4H12V3H11V2H8V1Z" fill="#111111"/>
<path d="M5 2H8V3H11V4H12V10H11V12H5V11H6V10H7V9H8V7H9V6H8V7H5V8H3V6H4V5H5V4H6V3H5V2Z" fill="#FF3D68"/>
<path d="M4 13V14H12V13H4Z" fill="#FF3D68"/>
<path d="M7 2H5V3H6V4H5V5H4V6H3V8H4V6H5V5H6V4H7V2Z" fill="#FF6767"/>
<path d="M8 7H9V9H8V7Z" fill="#FF6767"/>
<path d="M7 10V9H8V10H7Z" fill="#FF6767"/>
<path d="M7 12V10H6V11H5V12H7Z" fill="#FF6767"/>
<path d="M6 13H4V14H6V13Z" fill="#FF6767"/>
<path d="M6 2H5V3H6V2Z" fill="#FAAD80"/>
<path d="M6 11H5V12H6V11Z" fill="#FAAD80"/>
<path d="M5 13H4V14H5V13Z" fill="#FAAD80"/>
<path d="M10 3H11V4H10V3Z" fill="#A73489"/>
<path d="M11 4V10H12V4H11Z" fill="#A73489"/>
<path d="M8 5V6H9V5H8Z" fill="#A73489"/>
<path d="M8 6H7V7H8V6Z" fill="#A73489"/>
<path d="M11 12V10H10V11H9V12H11Z" fill="#A73489"/>
<path d="M9 13V14H12V13H9Z" fill="#A73489"/>
<rect x="6" y="4" width="1" height="1" fill="#772461"/>
</svg>
