<svg width="16" height="16" viewBox="0 0 16 16" fill="none" xmlns="http://www.w3.org/2000/svg">
<path d="M10 3H6V4H5V7H6V8H5V10H6V11H5V12H4V15H12V12H11V11H10V10H11V8H10V7H11V4H10V3Z" fill="#111111"/>
<path d="M10 4H6V7H7V8H6V10H7V11H6V12H5V14H11V12H10V11H9V10H10V8H9V7H10V4Z" fill="#FF3D68"/>
<path d="M10 4H9V7H8V8H9V9H7V10H8V11H9V12H10V13H6V14H11V12H10V11H9V10H10V8H9V7H10V4Z" fill="#A73489"/>
<path d="M9 4H6V6H7V5H9V4Z" fill="#FF6767"/>
<path d="M8 8H6V9H8V8Z" fill="#FF6767"/>
<path d="M7 11H6V12H5V14H6V13H7V11Z" fill="#FF6767"/>
<path d="M7 4H6V5H7V4Z" fill="#FAAD80"/>
</svg>
