<svg width="180" height="180" viewBox="0 0 180 180" fill="none" xmlns="http://www.w3.org/2000/svg">
<path d="M150.882 167.318L29.7217 167.506C30.7861 150.913 35.4196 136.292 43.6222 123.644C51.8874 110.996 64.5356 103.638 81.567 101.572C76.9961 101.071 72.7071 99.6311 68.6992 97.2518C64.7544 94.8724 61.749 91.4288 59.6829 86.9203C57.6169 87.1082 55.1433 87.6718 52.2631 88.6112C49.3827 89.55 46.3146 89.4561 43.0586 88.3294C35.9206 88.7051 31.6314 86.3567 30.1913 81.2852C28.8138 76.2131 28.125 71.4859 28.125 67.1029C28.125 62.7199 29.5964 58.9629 32.5393 55.8321C35.4823 52.6388 39.1139 50.9168 43.4343 50.6663C67.1029 51.042 88.9864 49.2575 109.086 45.3128C129.248 41.3054 143.743 35.5762 152.572 28.125C155.202 32.6333 156.517 37.2668 156.517 42.0255C156.517 48.1618 154.607 53.5466 150.788 58.1799C147.031 62.7508 142.366 65.5059 136.793 66.4453C140.738 67.3847 144.056 69.5762 146.749 73.0198C149.441 76.401 150.788 80.2834 150.788 84.6664C150.788 89.1743 149.441 93.1191 146.749 96.5003C144.056 99.8814 140.738 102.042 136.793 102.981C140.738 103.983 144.056 106.174 146.749 109.556C149.441 112.937 150.788 116.85 150.788 121.296C150.788 125.804 149.441 129.749 146.749 133.13C144.056 136.511 140.738 138.671 136.793 139.611C140.738 140.613 144.025 142.836 146.655 146.279C149.347 149.66 150.694 153.543 150.694 157.926L150.882 167.318ZM141.207 158.114C141.207 151.915 138.577 148.847 133.318 148.909C127.495 149.034 124.583 145.997 124.583 139.799C124.583 133.662 127.495 130.595 133.318 130.595C139.079 130.532 141.959 127.432 141.959 121.296C141.959 115.097 139.079 112.092 133.318 112.28C127.495 112.53 124.583 109.524 124.583 103.263C124.583 97.0639 127.588 93.9645 133.6 93.9645C139.173 94.0899 141.959 91.1154 141.959 85.0421C141.959 78.9058 139.079 75.8374 133.318 75.8374C127.495 75.9628 124.583 72.9259 124.583 66.7271C124.583 60.6533 127.495 57.5539 133.318 57.429C137.263 57.366 140.644 55.8635 143.462 52.9206C146.279 49.9151 147.719 46.4399 147.782 42.4952C136.511 48.4436 121.703 53.1397 103.357 56.5836C85.0106 59.9648 65.9132 61.2799 46.0641 60.5284C40.241 60.0902 37.3294 62.3441 37.3294 67.2908C37.3294 69.2319 37.3607 71.8616 37.4233 75.1804C37.5485 78.4986 39.6461 79.8761 43.7161 79.3125C47.0973 80.3143 50.3846 80.4713 53.578 79.7822C56.8339 79.0313 60.2466 78.3107 63.8156 77.6222C66.5077 84.0088 70.8907 88.5482 76.9646 91.2409C83.1009 93.9336 89.1748 93.7766 95.1857 90.7712C101.948 90.4584 105.329 93.6203 105.329 100.257C105.329 106.895 101.948 110.464 95.1857 110.964C78.0919 110.777 65.412 115.129 57.1472 124.02C48.8819 132.911 43.7161 144.213 41.6499 157.926L141.207 158.114ZM102.793 73.0198C96.2184 74.2725 92.6494 73.1138 92.0863 69.5447C91.4597 66.0386 94.4342 63.6593 101.009 62.4066C107.458 61.1544 110.996 62.3126 111.622 65.8817C112.186 69.5138 109.243 71.8931 102.793 73.0198Z" fill="#181111"/>
<path d="M141.208 158.114C141.208 151.914 138.578 148.846 133.318 148.909C127.495 149.034 124.584 145.997 124.584 139.799C124.584 133.662 127.495 130.594 133.318 130.594C139.079 130.531 141.959 127.432 141.959 121.296C141.959 115.097 139.079 112.092 133.318 112.279C127.495 112.53 124.584 109.524 124.584 103.263C124.584 97.0639 127.589 93.9645 133.6 93.9645C139.173 94.0899 141.959 91.1154 141.959 85.0421C141.959 78.9058 139.079 75.8374 133.318 75.8374C127.495 75.9628 124.584 72.9259 124.584 66.7271C124.584 60.6532 127.495 57.5539 133.318 57.429C137.263 57.366 140.644 55.8633 143.462 52.9205C146.279 49.9149 147.72 46.4399 147.782 42.4951C136.511 48.4435 121.703 53.1396 103.357 56.5836C85.0106 59.9647 65.9132 61.2793 46.0644 60.5284C40.2413 60.0896 37.3297 62.3441 37.3297 67.2907C37.3297 69.2319 37.361 71.8616 37.4236 75.1798C37.5488 78.4985 39.6464 79.8761 43.7164 79.3125C47.0976 80.3143 50.3849 80.4712 53.5783 79.7822C56.8345 79.0307 60.2466 78.3107 63.8156 77.6222C66.5083 84.0088 70.8913 88.5482 76.9652 91.2409C83.101 93.933 89.1748 93.7766 95.1857 90.7712C101.948 90.4579 105.329 93.6202 105.329 100.257C105.329 106.895 101.948 110.464 95.1857 110.964C78.0919 110.776 65.4126 115.129 57.1472 124.019C48.8822 132.911 43.7164 144.213 41.6502 157.926L141.208 158.114ZM102.794 73.0198C96.219 74.2719 92.6499 73.1137 92.0863 69.5447C91.4603 66.038 94.4342 63.6587 101.009 62.4065C107.458 61.1544 110.996 62.3126 111.622 65.8817C112.186 69.5132 109.243 71.8926 102.794 73.0198Z" fill="#DC8C5F"/>
</svg>
