<svg width="180" height="180" viewBox="0 0 180 180" fill="none" xmlns="http://www.w3.org/2000/svg">
<path d="M87.1414 56.25C91.8343 60.1909 96.2499 66.3716 100.388 74.7911C104.587 83.2106 108.231 92.9138 111.318 103.901C120.766 90.2869 130.092 80.0758 139.293 73.2684C148.556 66.4014 156.214 64.3112 162.266 66.9982C166.28 68.8494 168.441 71.7458 168.75 75.6866C158.807 75.2091 150.501 84.1359 143.832 102.468C137.224 120.8 134.013 142.894 134.198 168.75H40.4547C40.4547 142.894 37.089 120.8 30.3577 102.468C23.6882 84.1359 15.444 75.2091 5.625 75.6866C5.87199 71.7458 8.03346 68.8494 12.1092 66.9982C18.0994 64.3112 25.7262 66.4014 34.9894 73.2684C44.2526 80.0758 53.6084 90.2869 63.0568 103.901C66.0831 92.9138 69.6645 83.2106 73.8023 74.7911C78.0013 66.3716 82.4479 60.1909 87.1414 56.25Z" fill="#181111"/>
</svg>
