<svg width="180" height="180" viewBox="0 0 180 180" fill="none" xmlns="http://www.w3.org/2000/svg">
<path d="M148.084 156.288V65.3709C148.084 61.9897 146.488 60.2989 143.295 60.2989H140.289C137.033 60.2989 135.405 61.9897 135.405 65.3709V111.674H93.6096V65.3709C93.6096 61.9897 92.0441 60.2989 88.9132 60.2989H85.8139C82.5581 60.2989 80.9302 62.0207 80.9302 65.4649V111.674H39.2285V65.277C39.2285 61.9583 37.6005 60.2989 34.3446 60.2989H31.5269C28.2083 60.2989 26.549 61.9897 26.549 65.3709V156.288H148.084ZM157.758 165.962H16.875V60.4867C16.875 53.9123 20.0997 50.625 26.549 50.625H39.4163C45.7404 50.625 48.9025 53.9123 48.9025 60.4867V102.282H71.2558V60.6746C71.2558 53.9749 74.5431 50.625 81.1181 50.625H93.7974C100.122 50.625 103.283 53.8497 103.283 60.2989V102.282H125.731V60.4867C125.731 53.9123 128.987 50.625 135.499 50.625H148.178C154.565 50.625 157.758 53.9123 157.758 60.4867V165.962Z" fill="#181111"/>
<path d="M148.084 156.288V65.371C148.084 61.9898 146.488 60.2989 143.295 60.2989H140.289C137.033 60.2989 135.405 61.9898 135.405 65.371V111.674H93.6096V65.371C93.6096 61.9898 92.0441 60.2989 88.9138 60.2989H85.8139C82.5581 60.2989 80.9302 62.0207 80.9302 65.4649V111.674H39.2286V65.277C39.2286 61.9583 37.6006 60.2989 34.3447 60.2989H31.527C28.2084 60.2989 26.5491 61.9898 26.5491 65.371V156.288H148.084Z" fill="#DC8C5F"/>
</svg>
