<svg width="256" height="256" viewBox="0 0 256 256" fill="none" xmlns="http://www.w3.org/2000/svg">
<path d="M90.2275 91.3767L88.0992 93.5767L80.6943 101.047C72.4783 109.336 63.9357 117.955 57.5295 126.908C51.0295 135.992 46 146.39 46 158.356C46.0016 176.788 52.6165 191.227 66.0778 201.097C65.6287 201.616 65.1967 202.174 64.7984 202.772C64.3218 203.488 63.7509 204.476 63.3043 205.693C55.471 206.435 48.281 212.636 48.281 221.895C48.281 231.785 56.4734 238.172 64.8834 238.172H190.381C196.044 238.172 202.3 234.158 204.641 230.36C206.983 226.563 206.983 221.903 206.983 221.903V221.898L206.792 219.322C205.598 211.468 198.993 206.328 191.887 205.686C191.469 204.601 190.96 203.711 190.528 203.05C190.122 202.43 189.68 201.852 189.221 201.316C202.659 191.555 209.26 177.215 209.26 158.807C209.26 147.822 205.018 138.07 199.312 129.459C193.652 120.916 186.078 112.802 178.509 105.072C176.678 103.201 174.831 101.337 172.995 99.4825L172.99 99.4775L172.99 99.4766L172.981 99.4684C161.264 87.6348 150.051 76.2654 142.421 63.5866C144.73 60.5076 146.109 56.6757 146.109 52.5126C146.109 42.343 137.867 34 127.633 34C117.397 34 109.161 42.3502 109.161 52.5126C109.161 56.6726 110.539 60.5021 112.844 63.58C107.027 73.2329 99.0363 82.2711 90.2275 91.3767Z" fill="#DBE2EF"/>
<path d="M141.109 52.5126C141.109 56.6851 139.213 60.4023 136.25 62.8739C144.252 77.56 156.881 90.3149 169.437 102.995L169.437 102.995C171.277 104.853 173.115 106.709 174.936 108.57C182.497 116.291 189.771 124.111 195.144 132.22C200.54 140.365 204.26 149.154 204.26 158.807C204.26 176.925 197.467 190.211 183.843 198.934C182.86 199.564 181.843 200.169 180.794 200.748C181.939 201.462 182.962 202.214 183.843 202.986C184.779 203.806 185.66 204.742 186.343 205.786C186.985 206.769 187.712 208.245 187.712 210.04C187.712 210.238 187.703 210.43 187.687 210.618L194.835 216.258L201.983 221.897C201.982 228.646 196.422 233.172 190.381 233.172H64.8834C58.8394 233.172 53.281 228.644 53.281 221.895C53.281 215.154 58.8349 210.618 64.8834 210.618H67.6003C67.571 210.368 67.5553 210.11 67.5553 209.844C67.5553 208.021 68.3034 206.53 68.9606 205.542C69.6587 204.494 70.5586 203.556 71.5107 202.737C72.379 201.989 73.3832 201.262 74.5028 200.567C73.4318 199.968 72.3944 199.343 71.3911 198.691C57.7872 189.852 51.0016 176.466 51 158.355C51 147.849 55.4057 138.468 61.5958 129.817C67.7533 121.212 76.0377 112.848 84.3569 104.455L88.7298 100.043L109.671 132.391C110.154 133.137 111.16 133.335 111.871 132.87C112.605 132.39 112.834 131.35 112.345 130.594L91.0574 97.71L93.8211 94.8532C103.622 84.7216 112.767 74.3282 119.015 62.8703C116.056 60.3987 114.161 56.6831 114.161 52.5126C114.161 45.0863 120.183 39 127.633 39C135.083 39 141.109 45.0821 141.109 52.5126Z" fill="#0C2038"/>
<path d="M187.687 210.618L201.983 221.895C201.985 215.152 196.426 210.619 190.384 210.618H187.687Z" fill="#0C2038"/>
<path fill-rule="evenodd" clip-rule="evenodd" d="M190.384 215.618H172.851C179.057 213.526 182.712 211.993 182.712 210.041C182.712 208.262 179.691 205.36 174.46 203.062C162.495 207.958 146.856 211.434 127.633 211.434H127.631C108.51 211.434 92.9343 207.752 80.998 202.818C75.6521 205.14 72.5553 208.044 72.5553 209.844C72.5553 211.798 76.2067 213.526 82.4166 215.618H64.8834C61.2509 215.618 58.281 218.248 58.281 221.895C58.281 225.547 61.2523 228.172 64.8834 228.172H190.381C194.01 228.172 196.983 225.547 196.983 221.895C196.985 218.248 194.012 215.618 190.382 215.618H190.384Z" fill="#DBE2EF"/>
<path fill-rule="evenodd" clip-rule="evenodd" d="M129.595 60.8034C129.59 60.7946 129.586 60.7873 129.581 60.7786C133.312 59.8869 136.109 56.5243 136.109 52.5126C136.109 47.8235 132.302 44 127.633 44C122.967 44 119.161 47.825 119.161 52.5126C119.161 56.5229 121.956 59.8838 125.683 60.7771C125.679 60.7858 125.674 60.7931 125.67 60.8048C119.113 74.7436 108.448 86.925 97.4147 98.3297L116.543 127.878C118.522 130.937 117.652 135.064 114.608 137.055C111.566 139.044 107.457 138.168 105.475 135.111L87.9081 107.975C71.1295 124.902 56 140.259 56 158.355C56.0029 191.638 80.4274 205.157 127.631 207.249H127.633C174.834 205.156 199.26 192.089 199.26 158.807C199.26 125.526 148.091 100.118 129.594 60.8033L129.595 60.8034Z" fill="#DBE2EF"/>
</svg>
