<svg width="256" height="256" viewBox="0 0 256 256" fill="none" xmlns="http://www.w3.org/2000/svg">
<path d="M60.2032 211.63C36.4585 195.426 24.9397 175.379 23.2251 155.443C21.5333 135.773 29.5315 117.607 42.0966 105.355C54.6297 93.1345 72.5496 86.072 90.8966 90.339C93.7163 90.9947 96.4965 91.9079 99.221 93.0837C101.539 90.4791 104.198 88.1813 107.133 86.2659H101.815V57.3536H113.94V45H142.688V57.3566H154.808V86.2689H149.498C152.432 88.184 155.091 90.4814 157.409 93.0863C160.134 91.9102 162.915 90.9968 165.735 90.3408C184.082 86.0732 202.001 93.1356 214.534 105.356C227.099 117.608 235.097 135.774 233.405 155.444C231.699 175.275 220.292 195.218 196.798 211.376C199.424 214.261 201.003 218.096 201.003 222.227C201.003 230.887 194.044 238.282 185.064 238.282H72.1639C63.1828 238.282 56.2244 230.886 56.2244 222.227C56.2244 218.214 57.7132 214.483 60.2032 211.63Z" fill="#DBE2EF"/>
<path d="M68.5904 208.77C68.9394 209.426 69.3079 210.306 69.6969 211.457C64.7994 212.599 61.2243 217.064 61.2243 222.227C61.2243 228.228 66.0464 233.282 72.1639 233.282H185.064C191.181 233.282 196.003 228.228 196.003 222.227C196.003 216.87 192.155 212.265 186.973 211.343C187.348 210.247 187.703 209.402 188.041 208.768C188.275 208.328 188.465 208.056 188.595 207.897C188.683 207.923 188.797 207.96 188.937 208.016L191.409 209.002L193.607 207.502C216.35 191.983 226.86 173.191 228.423 155.015C229.975 136.973 222.637 120.241 211.043 108.936C199.464 97.6455 183.221 91.4069 166.868 95.2108C163.178 96.0691 159.551 97.4218 156.029 99.2935L154.959 97.9408C150.599 92.4315 144.597 88.2874 137.688 86.2888L137.688 81.2689H149.808V62.3566H137.688V50H118.94V62.3536H106.815V81.2659H118.94V86.2878C112.029 88.2855 106.03 92.4316 101.669 97.9405L100.601 99.2905C97.0797 97.4194 93.4534 96.0671 89.764 95.209C73.4101 91.4055 57.1666 97.6444 45.5872 108.935C33.9929 120.24 26.6548 136.972 28.2067 155.014C29.7699 173.19 40.2806 191.982 63.0247 207.502L65.2216 209.001L67.6925 208.017C67.8334 207.961 67.947 207.923 68.0358 207.898C68.1651 208.057 68.3557 208.329 68.5904 208.77Z" fill="#0C2038"/>
<path fill-rule="evenodd" clip-rule="evenodd" d="M87.6389 203.017C97.5163 200.089 109.83 197.503 127.562 197.728L128.311 197.719H128.312L129.061 197.728C146.79 197.502 159.104 200.091 168.984 203.017C177.299 205.477 182.214 212.702 170.422 212.702C145.726 212.702 140.029 212.7 129.06 212.702C128.811 212.702 128.558 212.7 128.312 212.697H128.31C128.059 212.699 127.812 212.702 127.561 212.702C116.594 212.7 110.895 212.702 86.1997 212.702C74.4106 212.699 79.3186 205.477 87.6372 203.017H87.6389ZM126.968 140.199C87.7211 41.4815 -21.1174 144.034 65.8428 203.372C70.3291 201.586 72.6551 204.481 74.5101 210.085H74.5203C72.2276 196.72 100.244 190.027 128.316 190.007C156.387 190.027 184.401 196.72 182.111 210.085H182.121C183.975 204.478 186.304 201.584 190.788 203.372C277.745 144.036 168.912 41.4815 129.663 140.203L128.317 143.589L126.968 140.199ZM132.688 90.2967C140.074 91.4291 146.556 95.3811 151.038 101.044C141.835 107.68 134.329 116.811 130.005 127.665C129.357 129.295 128.794 130.926 128.315 132.561C127.838 130.926 127.276 129.295 126.627 127.665C122.298 116.81 114.794 107.68 105.59 101.044C110.073 95.3799 116.553 91.4265 123.94 90.2967V76.2659H111.815V67.3536H123.94V55H132.687V67.3566H144.808V76.2689H132.687L132.688 90.2967ZM72.1638 216.175H185.063C188.33 216.175 191.003 218.901 191.003 222.227C191.003 225.558 188.329 228.282 185.063 228.282H72.1638C68.8977 228.282 66.2243 225.558 66.2243 222.227C66.2243 218.901 68.8979 216.175 72.1638 216.175V216.175Z" fill="#DBE2EF"/>
</svg>
