<svg width="256" height="256" viewBox="0 0 256 256" fill="none" xmlns="http://www.w3.org/2000/svg">
<path d="M57 222.683C57.0049 217.507 59.5222 213.032 63.2829 210.22C63.2821 208.361 63.3831 206.46 63.5961 204.523C64.1524 199.401 66.8174 194.838 69.1771 191.425C71.681 187.803 74.884 184.047 77.9505 180.51C78.395 179.997 78.8409 179.484 79.2855 178.973L79.3109 178.944C85.3421 172.004 90.9827 165.475 94.4875 158.862C98.6422 151.025 100.962 143.939 101.67 135.751C98.4455 135.316 95.5056 134.789 92.9768 134.171C90.6131 133.593 88.0576 132.806 85.8699 131.649C84.7857 131.075 83.2885 130.151 81.9467 128.708C80.5695 127.226 78.8315 124.592 78.8315 120.945C78.8315 117.862 80.093 115.543 81.0355 114.216C82.0081 112.847 83.1342 111.827 84.0404 111.114C85.8551 109.684 88.0133 108.533 90.0927 107.605C90.3792 107.477 90.6715 107.351 90.9694 107.225C88.0657 101.679 86.4157 95.382 86.4157 88.6999C86.4196 65.9782 105.406 48.0609 128.058 48C150.761 48 169.702 65.9357 169.702 88.7013C169.702 95.3854 168.05 101.683 165.146 107.227C165.443 107.352 165.735 107.479 166.022 107.606C168.101 108.534 170.259 109.685 172.074 111.114C172.981 111.827 174.107 112.847 175.08 114.216C176.023 115.543 177.285 117.862 177.285 120.947C177.285 124.59 175.55 127.225 174.172 128.708C172.83 130.152 171.333 131.077 170.248 131.651C168.059 132.809 165.503 133.597 163.139 134.174C160.611 134.792 157.673 135.318 154.45 135.753C155.158 143.941 157.477 151.026 161.631 158.863C165.136 165.476 170.776 172.004 176.806 178.942C177.26 179.465 177.715 179.989 178.169 180.513C181.235 184.05 184.438 187.805 186.941 191.427C189.302 194.843 191.969 199.41 192.522 204.537C192.758 206.717 192.86 208.871 192.828 210.985C196.057 213.808 198.165 217.957 198.165 222.692C198.165 231.555 190.844 238.32 182.399 238.32H72.7647C64.3167 238.32 57 231.542 57 222.683Z" fill="#DBE2EF"/>
<path fill-rule="evenodd" clip-rule="evenodd" d="M62 222.687C62.0041 218.32 64.655 214.65 68.3634 213L68.3307 212.286C68.2241 209.96 68.2932 207.55 68.5665 205.067C68.9818 201.234 71.0373 197.526 73.29 194.268C75.6165 190.902 78.6459 187.341 81.7283 183.786C82.179 183.266 82.6315 182.745 83.0848 182.223C89.0188 175.396 95.0803 168.421 98.9055 161.203C104.125 151.358 106.717 142.397 106.896 131.329C101.934 130.829 97.5764 130.149 94.1643 129.314C91.9533 128.774 89.8601 128.103 88.2083 127.229C87.3882 126.795 86.4248 126.181 85.6088 125.304C84.7702 124.402 83.8315 122.925 83.8315 120.945C83.8315 119.26 84.5211 117.943 85.1118 117.111C85.7159 116.261 86.4536 115.577 87.1338 115.042C88.4963 113.969 90.2425 113.013 92.1297 112.171C93.9598 111.355 96.1099 110.563 98.5184 109.83C94.064 103.927 91.4157 96.6231 91.4157 88.6999C91.4191 68.8648 107.935 53.0296 128 53.0001L128.004 53H128.058C148.149 53 164.702 68.8446 164.702 88.7013C164.702 96.6268 162.05 103.93 157.595 109.832C160.004 110.565 162.155 111.357 163.985 112.173C165.872 113.015 167.619 113.97 168.982 115.043C169.662 115.578 170.4 116.262 171.004 117.112C171.595 117.944 172.285 119.261 172.285 120.947C172.285 122.925 171.348 124.402 170.509 125.305C169.693 126.183 168.729 126.798 167.909 127.232C166.257 128.106 164.163 128.777 161.952 129.318C158.54 130.151 154.184 130.831 149.224 131.331C149.403 142.399 151.995 151.359 157.213 161.205C161.039 168.422 167.099 175.395 173.031 182.222C173.486 182.745 173.939 183.267 174.391 183.788C177.473 187.343 180.502 190.905 182.828 194.27C185.082 197.53 187.138 201.24 187.551 205.075C187.818 207.543 187.895 209.955 187.786 212.291L187.731 213.469C190.945 215.285 193.165 218.693 193.165 222.692V222.693C193.165 228.664 188.215 233.32 182.399 233.32H72.7647C66.9469 233.32 62 228.662 62 222.693V222.687Z" fill="#0C2038"/>
<path fill-rule="evenodd" clip-rule="evenodd" d="M72.7647 217.066H182.399C185.57 217.066 188.165 219.598 188.165 222.692V222.693C188.165 225.787 185.57 228.32 182.399 228.32H72.7647C69.5935 228.32 67 225.788 67 222.693V222.692C67.0029 219.598 69.5919 217.066 72.7647 217.066V217.066ZM128.058 58C145.532 58 159.702 71.7475 159.702 88.7013C159.702 98.3583 155.105 106.973 147.924 112.599C159.508 114.851 167.285 118.606 167.285 120.947C167.285 123.543 157.682 125.78 143.926 126.767C144.12 127.625 144.224 128.493 144.217 129.366C144.107 142.244 146.928 152.477 152.795 163.546C161.691 180.328 181.485 195.454 182.58 205.61C182.821 207.836 182.888 209.99 182.792 212.058L73.3254 212.057C73.2305 209.987 73.2918 207.835 73.537 205.609C74.633 195.451 94.4297 180.326 103.323 163.545C109.192 152.475 112.013 142.242 111.903 129.365C111.897 128.492 111.998 127.623 112.189 126.765C98.4331 125.777 88.8315 123.539 88.8315 120.945C88.8315 118.604 96.6058 114.848 108.19 112.597C101.007 106.971 96.4157 98.3553 96.4157 88.6999C96.4186 71.7476 110.585 58 128.057 58L128.058 58Z" fill="#DBE2EF"/>
</svg>
