<svg width="256" height="256" viewBox="0 0 256 256" fill="none" xmlns="http://www.w3.org/2000/svg">
<path d="M44.5712 45.455C40.7579 46.517 36.686 47.9152 33.6465 49.9105L28 53.6172L29.33 60.2393C30.0847 63.9971 30.4832 67.9229 30.9176 72.2483L30.986 72.929C31.4207 77.245 31.932 82.228 33.089 86.739C34.2538 91.2801 36.3465 96.5177 40.7777 100.561C43.2236 102.793 46.0587 104.368 49.187 105.349L49.8811 106.763C62.6173 132.721 68.696 150.418 70.9782 162.588C73.2424 174.663 71.6057 180.369 70.0204 183.277C68.4721 186.116 66.3236 187.756 62.6327 190.433L62.6304 190.435C62.2239 190.729 61.7985 191.038 61.3653 191.356C57.9133 193.888 51.8017 198.495 50.8119 206.971C46.7481 210.077 44.1072 214.98 44.1072 220.501V220.505C44.1072 229.887 51.7379 237.527 61.1283 237.527H194.651C204.035 237.527 211.675 229.893 211.675 220.505V220.501C211.675 214.982 209.035 210.082 204.975 206.977C203.988 198.496 197.874 193.887 194.42 191.354C193.999 191.045 193.585 190.744 193.189 190.457L193.175 190.447L193.156 190.433L193.151 190.43L193.149 190.428C189.46 187.753 187.312 186.113 185.764 183.275C184.178 180.367 182.542 174.662 184.806 162.588C187.088 150.418 193.168 132.722 205.905 106.764L206.602 105.345C209.725 104.364 212.555 102.791 214.997 100.563C219.429 96.5196 221.523 91.2824 222.688 86.7409C223.845 82.2297 224.357 77.2458 224.791 72.9292L224.861 72.2409C225.295 67.9181 225.693 63.9943 226.447 60.2376L227.775 53.6191L222.133 49.9126C219.092 47.9151 215.017 46.5165 211.205 45.455C207.123 44.3184 202.265 43.2871 196.988 42.368L187.769 40.7623L183.109 59.9091H176.453L175.081 39.2934L166.531 38.5571C153.393 37.4259 139.695 36.8318 127.894 37.0417C116.09 36.8318 102.393 37.4259 89.25 38.5571L80.6981 39.2931L79.3294 59.9091H72.3468L68.2956 40.7125L58.7884 42.3679C53.5099 43.287 48.6526 44.3184 44.5712 45.455Z" fill="#DBE2EF"/>
<path d="M33.5671 55.9437L36.3904 54.0904C38.7446 52.5449 42.1811 51.3109 45.9126 50.2717C49.7802 49.1946 54.4632 48.1963 59.6461 47.2938L64.3997 46.4661L68.2919 64.9091H84.0085L85.4028 43.9067L89.6788 43.5387C102.728 42.4156 116.282 41.8318 127.894 42.0425C139.503 41.8318 153.059 42.4157 166.102 43.5387L170.377 43.9068L171.774 64.9091H187.038L191.52 46.491L196.13 47.2939C201.312 48.1963 205.995 49.1947 209.863 50.2717C213.595 51.3107 217.033 52.5449 219.387 54.0914L222.208 55.9447L221.544 59.2539C220.734 63.2926 220.315 67.4642 219.886 71.7415L219.817 72.4292C219.376 76.8093 218.893 81.414 217.845 85.4982C216.793 89.5975 215.035 93.7602 211.628 96.8688C209.286 99.0045 206.442 100.397 203.12 101.089L201.417 104.561C188.591 130.699 182.294 148.859 179.892 161.666C177.499 174.426 179.053 181.412 181.374 185.668C183.537 189.634 186.617 191.868 190.216 194.478L190.223 194.483C190.63 194.778 191.044 195.078 191.463 195.385C195.27 198.178 200.297 202.172 200.106 209.792C204 211.784 206.675 215.839 206.675 220.501V220.505C206.675 227.13 201.275 232.527 194.651 232.527H61.1283C54.501 232.527 49.1072 227.127 49.1072 220.505V220.501C49.1072 215.836 51.7828 211.779 55.6801 209.788C55.4914 202.171 60.5168 198.179 64.3226 195.387C64.744 195.078 65.1594 194.777 65.568 194.481C69.1671 191.871 72.2477 189.637 74.4103 185.67C76.731 181.414 78.2855 174.428 75.8926 161.667C73.4908 148.859 67.1946 130.699 54.3699 104.561L52.6679 101.092C49.3408 100.4 46.492 99.0069 44.148 96.8679C40.741 93.7589 38.9837 89.5959 37.9323 85.4967C36.8847 81.4125 36.4019 76.8078 35.9609 72.4281L35.8926 71.7482C35.4627 67.4686 35.0436 63.2949 34.2321 59.2548L33.5671 55.9437Z" fill="#0C2038"/>
<path fill-rule="evenodd" clip-rule="evenodd" d="M39.1343 58.2702C42.469 56.0811 50.3291 53.9913 60.5039 52.2197L64.237 69.9091H88.6876L90.1076 48.5203C103.063 47.4053 116.476 46.8318 127.894 47.0434C139.309 46.8318 152.724 47.4053 165.673 48.5203L167.096 69.9091H190.967L195.272 52.2197C205.444 53.9914 213.31 56.0813 216.642 58.2702C212.995 76.4454 216.88 96.6095 197.746 96.6095C138.608 101.247 117.731 102.148 58.029 96.6095C38.8963 96.6095 42.784 76.4424 39.1343 58.2702Z" fill="#DBE2EF"/>
<path fill-rule="evenodd" clip-rule="evenodd" d="M196.928 102.359C145.27 207.633 196.013 189.775 195.099 209.916H60.6873C59.7737 189.779 110.511 207.633 58.8586 102.359C109.419 107.099 146.368 107.099 196.928 102.359Z" fill="#DBE2EF"/>
<path fill-rule="evenodd" clip-rule="evenodd" d="M61.1283 213.48H194.651C198.515 213.48 201.675 216.639 201.675 220.501V220.505C201.675 224.367 198.515 227.527 194.651 227.527H61.1283C57.2638 227.527 54.1072 224.367 54.1072 220.505V220.501C54.1072 216.638 57.2638 213.48 61.1283 213.48V213.48Z" fill="#DBE2EF"/>
</svg>
