<svg width="180" height="180" viewBox="0 0 180 180" fill="none" xmlns="http://www.w3.org/2000/svg">
<path d="M91.9401 56.094C89.8864 56.094 88.8593 57.4853 88.8593 60.2685C88.8593 62.3222 89.8864 63.3493 91.9401 63.3493C93.9943 63.3493 95.0214 62.3222 95.0214 60.2685C95.0214 57.4853 93.9943 56.094 91.9401 56.094ZM58.545 142.961C58.545 136.269 59.8371 129.411 62.4212 122.388C65.0053 115.364 67.8218 108.97 70.8694 103.205C73.9839 97.4402 76.833 92.7028 79.4171 88.992C82.0676 85.2817 83.3929 83.4266 83.3929 83.4266C80.4111 84.6855 78.5228 85.7126 77.7274 86.5074C76.9984 87.3028 75.3092 88.0644 72.6587 88.7934C68.4844 90.0523 64.7072 91.4439 61.3283 92.9677C57.9488 94.4257 54.0726 95.1542 49.6994 95.1542C48.5067 95.1542 46.8833 93.9617 44.8292 91.5767C42.7752 89.1911 41.6487 87.6341 41.45 86.9051C40.6548 85.1822 40.1579 83.2607 39.9591 81.1406C39.8266 78.9536 39.661 77.0985 39.4621 75.5747C38.932 71.9303 40.8205 68.4518 45.1274 65.1386C49.5006 61.7591 54.8014 58.5124 61.0301 55.3983C67.3245 52.2178 73.818 49.1698 80.5106 46.2543C87.2027 43.3389 92.7023 40.4566 97.0093 37.6073L102.376 22.5L106.75 37.6073C116.291 56.6241 123.48 76.1709 128.318 96.2477C133.154 116.259 135.573 138.323 135.573 162.442H58.545V142.961Z" fill="#200F21"/>
<path d="M91.9401 56.0942C89.8864 56.0942 88.8593 57.4858 88.8593 60.2685C88.8593 62.3227 89.8864 63.3498 91.9401 63.3498C93.9944 63.3498 95.0215 62.3227 95.0215 60.2685C95.0215 57.4858 93.9944 56.0942 91.9401 56.0942Z" fill="#CEADEF"/>
</svg>
