<svg width="180" height="180" viewBox="0 0 180 180" fill="none" xmlns="http://www.w3.org/2000/svg">
<path d="M91.94 56.094C93.9943 56.094 95.0214 57.4853 95.0214 60.2685C95.0214 62.3222 93.9943 63.3493 91.94 63.3493C89.82 63.3493 88.7596 62.3222 88.7596 60.2685C88.7596 57.4853 89.82 56.094 91.94 56.094Z" fill="#200F21"/>
<path fill-rule="evenodd" clip-rule="evenodd" d="M58.446 162.243V142.763C58.446 136.07 59.7381 129.212 62.3222 122.189C64.9063 115.165 67.7554 108.804 70.8694 103.106C73.9839 97.3412 76.833 92.6364 79.4171 88.992L83.3929 83.4266C80.4111 84.6855 78.5228 85.7126 77.7274 86.5074C76.9326 87.3028 75.2428 88.0644 72.6587 88.7934C68.4844 90.0523 64.7072 91.4108 61.3283 92.8688C57.9488 94.3262 54.0726 95.0552 49.6994 95.0552C48.4405 95.0552 46.784 93.8953 44.7299 91.5761C42.7421 89.1911 41.6487 87.6341 41.45 86.9051C40.6548 85.1822 40.158 83.2607 39.9592 81.1406C39.8267 78.9536 39.661 77.0985 39.4621 75.5747C38.932 71.9303 40.8205 68.4518 45.1275 65.1386C49.5006 61.7591 54.8015 58.5124 61.0301 55.3983C67.2587 52.2178 73.719 49.1698 80.4111 46.2543C87.1031 43.3389 92.6027 40.4566 96.9098 37.6073L102.277 22.5L106.65 37.6073C116.192 56.6241 123.348 76.1378 128.118 96.1481C132.955 116.093 135.374 138.124 135.374 162.243H58.446ZM130.703 143.16C131.1 148.196 131.299 153.199 131.299 158.168H62.5208V142.763C62.5871 139.184 63.117 135.209 64.1109 130.836C65.8339 123.945 68.2521 117.318 71.3666 110.958C74.547 104.596 78.0919 98.4341 82.0013 92.4711C84.1877 89.1579 86.5069 85.9444 88.9588 82.8298C91.4102 79.6494 93.8948 76.4691 96.4131 73.2887L80.7092 80.2457C78.8541 81.0411 77.2965 81.9023 76.0376 82.8298C74.7788 83.7579 73.2881 84.4532 71.5652 84.9173C68.0535 85.9112 64.5418 87.2033 61.0296 88.7934C57.5179 90.3173 53.9399 91.0794 50.2957 91.0794C48.5729 89.9533 46.8833 88.0644 45.2268 85.4139C44.6304 83.8238 44.2328 82.1672 44.034 80.4448C43.9015 78.7219 43.7358 76.9989 43.5371 75.2766C43.4046 74.6139 43.504 73.8849 43.8352 73.0896C44.8292 71.0359 46.3532 69.2466 48.4072 67.7228C50.4613 66.1326 52.4822 64.7409 54.47 63.5484C59.6385 60.5666 64.9721 57.8166 70.4717 55.2989C76.0376 52.781 81.5372 50.23 86.9709 47.6458C91.2774 45.5917 95.7504 43.1401 100.388 40.2909L101.978 35.5201L103.072 39.0982L104.96 42.9744C109.466 52.516 113.408 61.9583 116.788 71.3008C121.029 83.6252 124.309 96.0159 126.628 108.473C127.82 115.099 128.781 121.625 129.51 128.053C129.974 133.089 130.371 138.124 130.703 143.16Z" fill="#200F21"/>
<path fill-rule="evenodd" clip-rule="evenodd" d="M131.299 158.168C131.299 153.199 131.1 148.196 130.702 143.16C130.371 138.124 129.973 133.089 129.51 128.053C128.781 121.625 127.82 115.099 126.628 108.473C124.309 96.0159 121.029 83.6252 116.788 71.3008C113.408 61.9577 109.466 52.5158 104.96 42.9744L103.072 39.0981L101.978 35.5201L100.388 40.2908C95.7504 43.14 91.2774 45.5916 86.9709 47.6457C81.5372 50.2299 76.0376 52.7809 70.4717 55.2988C64.9721 57.8166 59.6385 60.5666 54.47 63.5484C52.4822 64.7409 50.4613 66.1326 48.4072 67.7228C46.3531 69.2466 44.8292 71.0359 43.8352 73.0896C43.504 73.8849 43.4046 74.6139 43.537 75.2766C43.7358 76.9989 43.9015 78.7219 44.034 80.4448C44.2328 82.1672 44.6304 83.8238 45.2267 85.4139C46.8832 88.0644 48.5729 89.9528 50.2957 91.0794C53.9399 91.0794 57.5179 90.3173 61.0296 88.7934C64.5418 87.2033 68.0535 85.9112 71.5652 84.9173C73.2881 84.4532 74.7787 83.7574 76.0376 82.8298C77.2965 81.9023 78.8541 81.0411 80.7092 80.2457L96.4131 73.2887C93.8948 76.4691 91.4102 79.6494 88.9588 82.8298C86.5069 85.9444 84.1877 89.1579 82.0012 92.4711C78.0919 98.4341 74.547 104.596 71.3666 110.958C68.2521 117.318 65.8339 123.945 64.1109 130.836C63.117 135.209 62.5871 139.184 62.5207 142.763V158.168H131.299ZM95.0214 60.2685C95.0214 57.4853 93.9943 56.0939 91.9401 56.0939C89.82 56.0939 88.7597 57.4853 88.7597 60.2685C88.7597 62.3222 89.82 63.3493 91.9401 63.3493C93.9943 63.3493 95.0214 62.3222 95.0214 60.2685Z" fill="#CEADEF"/>
</svg>
