<svg width="180" height="180" viewBox="0 0 180 180" fill="none" xmlns="http://www.w3.org/2000/svg">
<path d="M90.7976 160.889H61.875C63.5979 154.263 65.9171 147.67 68.8326 141.11C71.748 134.551 72.7087 128.19 71.7148 122.028C71.1844 117.654 69.3956 114.507 66.3474 112.585C63.3656 110.598 61.875 107.384 61.875 102.945C61.875 98.3064 63.2334 93.933 65.9497 89.8251C68.6666 85.7171 71.3835 83.5301 74.0998 83.2652C77.0816 83.0666 78.9041 82.4704 79.5667 81.4764C80.2294 80.4161 80.5607 78.8923 80.5607 76.9044C80.5607 74.9829 79.0031 72.5642 75.8891 69.6487C72.7746 66.6669 71.2176 63.6857 71.2176 60.7039C71.2176 56.0655 73.305 52.2886 77.4793 49.3732C81.72 46.4577 86.1592 45 90.7976 45C95.7009 45 100.273 46.4577 104.514 49.3732C108.821 52.2886 110.974 56.0655 110.974 60.7039C110.974 63.6857 109.417 66.6669 106.302 69.6487C103.188 72.5642 101.631 74.9829 101.631 76.9044C101.631 78.8923 101.93 80.4161 102.526 81.4764C103.188 82.4704 105.01 83.0666 107.992 83.2652C110.709 83.5301 113.425 85.7171 116.142 89.8251C118.925 93.933 120.317 98.3064 120.317 102.945C120.317 107.384 118.793 110.598 115.744 112.585C112.697 114.507 110.941 117.654 110.477 122.028C109.483 128.19 110.411 134.551 113.26 141.11C116.175 147.67 118.528 154.263 120.317 160.889H90.7976ZM73.6031 124.115V127.494H108.588V124.115H73.6031ZM81.8528 77.5007V80.7806H100.24V77.5007H81.8528Z" fill="#200F21"/>
<path d="M73.6031 124.114V127.494H108.589V124.114H73.6031ZM81.8528 77.5006V80.7806H100.24V77.5006H81.8528Z" fill="#CEADEF"/>
</svg>
