<svg width="180" height="180" viewBox="0 0 180 180" fill="none" xmlns="http://www.w3.org/2000/svg">
<path d="M106.423 162.74H71.2389L45 39.8933L71.2389 83.4266L62.3931 30.9482L79.6871 74.9784L88.6326 22.5L97.5774 74.9784L114.872 30.9482L106.423 83.4266L132.662 39.8933L106.423 162.74ZM123.817 62.4549L99.1676 103.205L105.032 66.9274L95.9872 89.8869L88.6326 46.4531L81.2773 89.8869L72.8291 68.319L78.7927 103.702L53.9452 62.4549L74.5189 158.665H103.243L123.817 62.4549Z" fill="#200F21"/>
<path d="M123.816 62.4549L99.1676 103.205L105.032 66.9274L95.9872 89.8869L88.6325 46.453L81.2773 89.8869L72.8291 68.319L78.7927 103.702L53.9451 62.4549L74.5188 158.665H103.243L123.816 62.4549Z" fill="#CEADEF"/>
</svg>
