<svg width="32" height="32" viewBox="0 0 32 32" fill="none" xmlns="http://www.w3.org/2000/svg">
<path d="M27.9816 30H18.9119C18.4663 30 18.0951 29.8833 17.798 29.6499L17.1297 28.8543L17.0661 28.7589L16.8115 28.3452L16.6206 27.9951L16.3023 27.645L16.0159 27.5177C15.8462 27.5602 15.7401 27.6026 15.6977 27.645L15.4431 27.8996L15.1567 28.2815L14.8703 28.7589L14.8066 28.8543C14.6157 29.1089 14.3505 29.3741 14.011 29.6499C13.6716 29.8833 13.2579 30 12.7699 30H4.05018L3 25.2901H10.1922C10.4043 25.2901 10.5422 25.2158 10.6059 25.0673L10.7332 24.4945V24.4308V24.2717L10.765 24.1126C10.8074 23.9217 10.8711 23.7519 10.9559 23.6034C11.062 23.4549 11.253 23.3701 11.5288 23.3488H21.2032C21.3305 23.3488 21.4259 23.4231 21.4896 23.5716L21.6169 23.9853V24.1763V24.3036V24.399V24.59C21.6169 24.8021 21.6381 24.9612 21.6805 25.0673C21.7017 25.1946 21.7866 25.2689 21.9351 25.2901H29L27.9816 30ZM16.4614 15.552L16.4933 15.0428C16.4933 14.8307 16.5145 14.661 16.5569 14.5337L16.6524 13.7062L16.8433 12.7197L16.9388 12.3378L17.0343 11.9559C17.1403 11.6589 17.2252 11.4149 17.2889 11.224C17.3737 11.033 17.5116 10.7678 17.7026 10.4284C17.9147 10.0677 18.2011 9.69645 18.5618 9.31457C19.3256 9.44186 20.0469 9.95104 20.7258 10.8421C21.4047 11.712 21.9776 12.6879 22.4443 13.7699L22.858 15.202L23.0171 16.4431C23.0171 18.1191 22.8686 19.2966 22.5716 19.9755C22.317 20.6756 21.9988 21.153 21.6169 21.4076C21.4472 21.5137 21.2456 21.5879 21.0122 21.6304L20.5349 21.6622H20.4712H12.1334H12.0698L11.4333 21.6304C11.2211 21.6304 10.9771 21.5561 10.7013 21.4076C10.2982 21.1954 9.90575 20.7287 9.52386 20.0073C9.1632 19.2648 8.98286 18.0767 8.98286 16.4431C8.98286 15.1489 9.24806 14.0245 9.77846 13.0698C10.3089 12.1151 10.8817 11.2982 11.4969 10.6193C12.1334 9.94043 12.7062 9.41004 13.2154 9.02815C13.7458 8.62505 14.0216 8.33864 14.0428 8.16891L13.9792 7.7552L13.8837 7.34149L13.8519 7.24602L13.6928 6.64137L13.6291 6.10037C13.6291 5.56997 13.7882 5.09261 14.1065 4.6683C14.4247 4.22276 14.9551 4 15.6977 4C16.1856 4 16.61 4.20155 16.9706 4.60465C17.3525 4.98654 17.5859 5.43207 17.6707 5.94125L17.7026 6.13219V6.32313C17.7026 6.85353 17.5965 7.36271 17.3843 7.85067L16.716 9.28274L16.5251 9.56916L16.3978 9.85557L15.634 11.2876C15.4007 11.7332 15.2415 12.1681 15.1567 12.5924C15.093 12.9955 15.04 13.335 14.9976 13.6108C14.9551 13.8654 14.9233 14.0775 14.9021 14.2472V15.552H16.4614Z" fill="#111111"/>
</svg>
