<svg width="32" height="32" viewBox="0 0 32 32" fill="none" xmlns="http://www.w3.org/2000/svg">
<path d="M5.22073 30C5.22073 29.0037 5.23194 28.3173 5.25438 27.941C5.29924 27.5646 5.37775 27.0886 5.48991 26.5129C5.69179 25.4945 6.34231 24.5535 7.44145 23.69C7.44145 23.3801 7.43024 23.1365 7.40781 22.9594C7.38537 22.7601 7.31808 22.5498 7.20592 22.3284C7.02647 21.9077 6.77972 21.5092 6.46568 21.1328L5.86003 20.4686L5.22073 19.7048C4.74966 19.1513 4.26738 18.4539 3.77389 17.6125C3.54957 17.1919 3.35891 16.7269 3.20188 16.2177C3.06729 15.7085 3 15.1661 3 14.5904V14.1587L3.03365 13.7269C3.2131 12.4649 3.74024 11.3247 4.61507 10.3063C5.48991 9.28782 6.60027 8.7786 7.94617 8.7786C9.29206 8.7786 10.3688 9.06642 11.1763 9.64207C12.0063 10.1734 12.7017 10.7934 13.2625 11.5018C13.7335 12.0996 14.1485 12.7306 14.5074 13.3948C14.799 13.9262 15.0794 14.203 15.3486 14.2251C15.5056 14.2251 15.7187 13.9483 15.9879 13.3948C16.2795 12.8192 16.6945 12.1882 17.2328 11.5018C17.7712 10.8155 18.4666 10.1956 19.319 9.64207C20.1714 9.06642 21.293 8.7786 22.6837 8.7786C24.5007 8.7786 25.8354 9.37638 26.6878 10.572C27.5626 11.7454 28 13.1734 28 14.8561C28 15.786 27.7757 16.6273 27.3271 17.3801C27.0803 17.8007 26.856 18.1661 26.6541 18.476C26.4522 18.7638 26.183 19.107 25.8466 19.5055L24.8371 20.8007L24.0633 21.9963L23.7941 22.6937L23.6931 23.3911V23.5572L23.7268 23.7565C24.8259 24.5092 25.4652 25.428 25.6447 26.5129C25.8466 27.5978 25.9475 28.7601 25.9475 30H5.22073ZM23.4576 27.6421C23.4576 26.8229 23.1548 26.2472 22.5491 25.9151C21.9659 25.583 21.1584 25.3173 20.1265 25.1181L19.1844 24.9852L17.7039 24.8856C17.4796 24.8856 17.3114 24.8856 17.1992 24.8856C16.9973 24.8856 16.7169 24.8635 16.358 24.8192L15.4159 24.786L14.5074 24.8192L12.9933 24.9188C12.5446 24.9188 12.1857 24.941 11.9166 24.9852L11.0417 25.0849L10.7725 25.1181L10.6043 25.1513C9.86407 25.2399 9.19112 25.4613 8.58546 25.8155C8.00224 26.1697 7.71063 26.7786 7.71063 27.6421H23.4576ZM14.7093 16.7159L14.1373 16.1845L13.397 15.2214L12.5895 14.0258C12.0511 13.2509 11.4231 12.5867 10.7053 12.0332C9.98744 11.4354 9.05653 11.1365 7.91252 11.1365C7.35173 11.1365 6.9031 11.2915 6.56662 11.6015C6.23015 11.9114 5.94975 12.2878 5.72544 12.7306L5.45626 13.5941L5.38896 14.1919C5.38896 15.2103 5.60206 16.0849 6.02826 16.8155C6.45446 17.524 6.97039 18.2546 7.57604 19.0074L8.31629 19.9373L9.02288 20.8672L9.52759 21.8635C9.66218 22.1734 9.72948 22.5055 9.72948 22.8598C10.3127 22.7491 10.7838 22.6716 11.1427 22.6273C11.524 22.5609 11.939 22.5277 12.3876 22.5277L15.1804 22.428L16.6272 22.4613L18.1413 22.5609C18.7245 22.5609 19.2741 22.6052 19.79 22.6937C20.0817 22.6937 20.3172 22.7048 20.4966 22.7269C20.6761 22.7491 20.9677 22.7934 21.3715 22.8598C21.3715 22.3063 21.5061 21.786 21.7752 21.2989C22.0444 20.7897 22.3472 20.3247 22.6837 19.9041L23.0875 19.4059L23.4913 18.9078C24.0296 18.2657 24.5119 17.5793 24.9381 16.8487C25.3867 16.0959 25.611 15.2214 25.611 14.2251C25.611 13.1402 25.297 12.3542 24.6689 11.8672C24.0408 11.3801 23.2221 11.1365 22.2127 11.1365C21.1135 11.1365 20.2162 11.4354 19.5209 12.0332C18.8255 12.631 18.2423 13.2952 17.7712 14.0258L17.0646 15.155L16.4589 16.0849C16.3244 16.3284 16.1561 16.5277 15.9542 16.6827C15.7524 16.8155 15.5505 16.8819 15.3486 16.8819C15.1243 16.8819 14.9112 16.8266 14.7093 16.7159ZM17.1655 3.631C17.6366 4.02952 17.8721 4.54982 17.8721 5.19188C17.8721 5.43543 17.7824 5.87823 17.603 6.5203C17.4235 7.14022 17.1768 7.78229 16.8627 8.44649L16.6945 8.91144L16.4926 9.37638L15.8533 10.8044L15.3486 11.7343C15.1916 11.5351 15.0233 11.2472 14.8439 10.8709L14.2719 9.50922L14.0363 8.97786L13.8345 8.41328L13.1952 6.5203C13.1727 6.40959 13.1279 6.18819 13.0606 5.85609C12.9933 5.50185 12.9484 5.28044 12.926 5.19188C12.926 4.61624 13.1615 4.09594 13.6326 3.631C14.1261 3.21033 14.7429 3 15.4832 3C16.1561 3 16.7169 3.21033 17.1655 3.631ZM14.7766 5.12546L14.642 5.82288C14.642 6.08856 14.7093 6.45388 14.8439 6.91882L15.3149 8.44649L15.8196 6.91882C15.9542 6.47602 16.0215 6.1107 16.0215 5.82288C16.0215 5.46864 15.9655 5.23616 15.8533 5.12546C15.786 4.99262 15.6178 4.9262 15.3486 4.9262C15.1018 4.9262 14.9112 4.99262 14.7766 5.12546Z" fill="#111111"/>
<path d="M23.4576 27.6421C23.4576 26.8229 23.1547 26.2472 22.5491 25.9151C21.9659 25.583 21.1583 25.3174 20.1265 25.1181L19.1843 24.9853L17.7039 24.8856C17.4795 24.8856 17.3113 24.8856 17.1991 24.8856C16.9973 24.8856 16.7169 24.8635 16.358 24.8192L15.4158 24.786L14.5074 24.8192L12.9932 24.9188C12.5446 24.9188 12.1857 24.941 11.9165 24.9853L11.0417 25.0849L10.7725 25.1181L10.6043 25.1513C9.86402 25.2399 9.19107 25.4613 8.58542 25.8155C8.00219 26.1697 7.71058 26.7786 7.71058 27.6421H23.4576ZM14.7092 16.7159L14.1372 16.1845L13.397 15.2214L12.5895 14.0258C12.0511 13.2509 11.423 12.5867 10.7052 12.0332C9.98739 11.4354 9.05648 11.1365 7.91247 11.1365C7.35168 11.1365 6.90305 11.2915 6.56657 11.6015C6.2301 11.9114 5.94971 12.2878 5.72539 12.7306L5.45621 13.5941L5.38892 14.1919C5.38892 15.2103 5.60202 16.0849 6.02822 16.8155C6.45442 17.524 6.97034 18.2546 7.576 19.0074L8.31624 19.9373L9.02283 20.8672L9.52754 21.8635C9.66213 22.1734 9.72943 22.5055 9.72943 22.8598C10.3126 22.7491 10.7837 22.6716 11.1426 22.6273C11.524 22.5609 11.9389 22.5277 12.3876 22.5277L15.1803 22.4281L16.6271 22.4613L18.1413 22.5609C18.7245 22.5609 19.2741 22.6052 19.79 22.6937C20.0816 22.6937 20.3171 22.7048 20.4966 22.7269C20.676 22.7491 20.9677 22.7934 21.3714 22.8598C21.3714 22.3063 21.506 21.786 21.7752 21.2989C22.0444 20.7897 22.3472 20.3247 22.6837 19.9041L23.0874 19.4059L23.4912 18.9078C24.0296 18.2657 24.5118 17.5793 24.938 16.8487C25.3867 16.096 25.611 15.2214 25.611 14.2251C25.611 13.1402 25.2969 12.3543 24.6689 11.8672C24.0408 11.3801 23.222 11.1365 22.2126 11.1365C21.1135 11.1365 20.2162 11.4354 19.5208 12.0332C18.8254 12.631 18.2422 13.2952 17.7712 14.0258L17.0646 15.155L16.4589 16.0849C16.3243 16.3284 16.1561 16.5277 15.9542 16.6827C15.7523 16.8155 15.5504 16.8819 15.3485 16.8819C15.1242 16.8819 14.9111 16.8266 14.7092 16.7159ZM14.7765 5.12547L14.6419 5.82289C14.6419 6.08857 14.7092 6.45388 14.8438 6.91883L15.3149 8.4465L15.8196 6.91883C15.9542 6.47602 16.0215 6.11071 16.0215 5.82289C16.0215 5.46864 15.9654 5.23617 15.8532 5.12547C15.786 4.99263 15.6177 4.92621 15.3485 4.92621C15.1018 4.92621 14.9111 4.99263 14.7765 5.12547Z" fill="#F5F5F5"/>
</svg>
