<svg width="180" height="180" viewBox="0 0 180 180" fill="none" xmlns="http://www.w3.org/2000/svg">
<path d="M29.3666 168.75C29.3666 163.146 29.4297 159.285 29.5559 157.168C29.8082 155.051 30.2498 152.373 30.8807 149.135C32.0163 143.407 35.6755 138.113 41.8582 133.256C41.8582 131.513 41.7951 130.143 41.6689 129.147C41.5427 128.026 41.1642 126.843 40.5333 125.597C39.5239 123.231 38.1359 120.989 36.3695 118.872L32.9627 115.136L29.3666 110.839C26.7168 107.726 24.004 103.803 21.2281 99.0703C19.9663 96.7044 18.8939 94.0888 18.0106 91.2246C17.2535 88.3603 16.875 85.3093 16.875 82.071V79.6427L17.0643 77.2138C18.0737 70.1151 21.0388 63.7014 25.9598 57.9729C30.8807 52.244 37.1265 49.3796 44.6972 49.3796C52.2678 49.3796 58.3245 50.9986 62.8667 54.2366C67.5354 57.2254 71.4471 60.7129 74.6016 64.6976C77.2509 68.0602 79.5853 71.6096 81.6041 75.3458C83.2444 78.3349 84.8216 79.8919 86.3359 80.0162C87.219 80.0162 88.4177 78.4592 89.9319 75.3458C91.5722 72.108 93.9066 68.5586 96.9345 64.6976C99.963 60.8372 103.875 57.3502 108.669 54.2366C113.464 50.9986 119.773 49.3796 127.596 49.3796C137.816 49.3796 145.324 52.7421 150.119 59.4675C155.04 66.0679 157.5 74.1004 157.5 83.5656C157.5 88.7963 156.238 93.5286 153.715 97.7631C152.327 100.129 151.065 102.184 149.929 103.927C148.794 105.546 147.279 107.477 145.387 109.718L139.709 117.004L135.356 123.729L133.842 127.652L133.274 131.575V132.509L133.463 133.63C139.646 137.864 143.242 143.032 144.251 149.135C145.387 155.238 145.955 161.776 145.955 168.75H29.3666ZM131.949 155.487C131.949 150.879 130.246 147.641 126.839 145.772C123.558 143.904 119.016 142.41 113.212 141.289L107.912 140.542L99.5844 139.981C98.3227 139.981 97.3766 139.981 96.7455 139.981C95.6098 139.981 94.0326 139.857 92.0137 139.608L86.7144 139.421L81.6041 139.608L73.0873 140.168C70.5634 140.168 68.5446 140.293 67.0309 140.542L62.1096 141.103L60.5953 141.289L59.6492 141.476C55.4854 141.974 51.7 143.22 48.2932 145.212C45.0126 147.205 43.3723 150.63 43.3723 155.487H131.949ZM82.7398 94.0269L79.5223 91.0378L75.3581 85.6204L70.8159 78.8951C67.7874 74.5363 64.2549 70.8002 60.2173 67.6868C56.1794 64.3241 50.943 62.6428 44.5079 62.6428C41.3535 62.6428 38.8299 63.5147 36.9372 65.2584C35.0446 67.0016 33.4673 69.1189 32.2056 71.6096L30.6915 76.4668L30.3129 79.8294C30.3129 85.5579 31.5116 90.4776 33.909 94.5872C36.3063 98.5725 39.2084 102.682 42.6152 106.917L46.7791 112.147L50.7537 117.378L53.5927 122.982C54.3498 124.725 54.7283 126.593 54.7283 128.586C58.0089 127.964 60.6589 127.528 62.6777 127.279C64.8225 126.905 67.1569 126.718 69.6802 126.718L85.3897 126.157L93.528 126.345L102.045 126.905C105.325 126.905 108.417 127.154 111.319 127.652C112.96 127.652 114.284 127.715 115.293 127.839C116.303 127.964 117.943 128.213 120.215 128.586C120.215 125.473 120.972 122.546 122.485 119.806C124 116.942 125.703 114.326 127.596 111.961L129.867 109.158L132.139 106.356C135.167 102.745 137.879 98.8836 140.277 94.7739C142.8 90.5394 144.062 85.6204 144.062 80.0162C144.062 73.9136 142.296 69.4924 138.763 66.753C135.229 64.0131 130.624 62.6428 124.946 62.6428C118.763 62.6428 113.716 64.3241 109.805 67.6868C105.893 71.0494 102.613 74.7855 99.963 78.8951L95.9884 85.2469L92.5813 90.4776C91.8248 91.8472 90.8781 92.9683 89.7424 93.8402C88.6072 94.5872 87.4716 94.9607 86.3359 94.9607C85.0742 94.9607 83.8755 94.6496 82.7398 94.0269ZM96.5559 20.4244C99.2059 22.6661 100.531 25.5927 100.531 29.2043C100.531 30.5743 100.026 33.065 99.0169 36.6767C98.0072 40.1637 96.6195 43.7754 94.8527 47.5115L93.9066 50.1268L92.7709 52.7421L89.1748 60.7748L86.3359 66.0054C85.4528 64.8849 84.5061 63.2655 83.4969 61.1488L80.2794 53.4894L78.9542 50.5005L77.8191 47.3247L74.223 36.6767C74.0964 36.0539 73.8444 34.8086 73.4659 32.9405C73.0873 30.9479 72.8347 29.7025 72.7087 29.2043C72.7087 25.9664 74.0334 23.0397 76.6834 20.4244C79.4593 18.0581 82.9288 16.875 87.093 16.875C90.8781 16.875 94.0326 18.0581 96.5559 20.4244ZM83.1184 28.8307L82.3613 32.7537C82.3613 34.2481 82.7398 36.3031 83.4969 38.9184L86.1463 47.5115L88.9853 38.9184C89.7424 36.4276 90.1209 34.3727 90.1209 32.7537C90.1209 30.7611 89.8059 29.4534 89.1748 28.8307C88.7963 28.0835 87.8501 27.7099 86.3359 27.7099C84.9476 27.7099 83.8755 28.0835 83.1184 28.8307Z" fill="#111111"/>
<path d="M131.949 155.487C131.949 150.879 130.245 147.64 126.839 145.772C123.558 143.904 119.015 142.41 113.212 141.289L107.912 140.542L99.5844 139.981C98.3222 139.981 97.3761 139.981 96.7449 139.981C95.6098 139.981 94.0326 139.857 92.0137 139.608L86.7139 139.421L81.6041 139.608L73.0867 140.168C70.5634 140.168 68.5446 140.293 67.0303 140.542L62.1096 141.103L60.5953 141.289L59.6492 141.476C55.4851 141.974 51.6998 143.22 48.293 145.212C45.0123 147.205 43.372 150.63 43.372 155.487H131.949ZM82.7392 94.0269L79.5217 91.0378L75.3581 85.6204L70.8159 78.8951C67.7874 74.5363 64.2544 70.8002 60.2167 67.6868C56.1791 64.3241 50.9427 62.6428 44.5076 62.6428C41.3532 62.6428 38.8296 63.5147 36.9369 65.2584C35.0443 67.0016 33.4671 69.1189 32.2053 71.6096L30.6912 76.4668L30.3127 79.8294C30.3127 85.5579 31.5114 90.4776 33.9087 94.5872C36.3061 98.5725 39.2082 102.682 42.615 106.917L46.7788 112.147L50.7534 117.378L53.5924 122.982C54.3495 124.725 54.728 126.593 54.728 128.586C58.0084 127.964 60.6583 127.528 62.6771 127.279C64.8225 126.905 67.1563 126.718 69.6802 126.718L85.3892 126.158L93.5274 126.345L102.045 126.905C105.325 126.905 108.417 127.154 111.319 127.652C112.959 127.652 114.284 127.714 115.293 127.839C116.302 127.964 117.943 128.213 120.214 128.586C120.214 125.473 120.971 122.546 122.485 119.806C124 116.942 125.703 114.326 127.596 111.961L129.867 109.158L132.138 106.356C135.166 102.745 137.879 98.8836 140.276 94.7739C142.8 90.54 144.062 85.6204 144.062 80.0162C144.062 73.9136 142.295 69.4929 138.763 66.753C135.229 64.0131 130.624 62.6428 124.946 62.6428C118.763 62.6428 113.716 64.3241 109.804 67.6868C105.893 71.0494 102.612 74.7855 99.963 78.8951L95.9884 85.2469L92.5813 90.4776C91.8242 91.8472 90.8781 92.9683 89.7424 93.8402C88.6067 94.5872 87.471 94.9607 86.3353 94.9607C85.0736 94.9607 83.8749 94.6496 82.7392 94.0269ZM83.1178 28.8308L82.3607 32.7538C82.3607 34.2482 82.7392 36.3031 83.4964 38.9184L86.1463 47.5116L88.9852 38.9184C89.7424 36.4276 90.1209 34.3727 90.1209 32.7538C90.1209 30.7611 89.8054 29.4535 89.1742 28.8308C88.7962 28.0835 87.8496 27.7099 86.3353 27.7099C84.9476 27.7099 83.8749 28.0835 83.1178 28.8308Z" fill="#F5F5F5"/>
</svg>
