<svg width="32" height="32" viewBox="0 0 32 32" fill="none" xmlns="http://www.w3.org/2000/svg">
<path d="M7.56885 30V29.9336V29.1035L7.66767 28.0741C7.73353 27.41 7.90918 26.8123 8.1946 26.281C8.48003 25.7275 8.99601 25.4176 9.74252 25.3512L10.8952 25.2516L12.1467 25.1188L14.518 24.8863L17.3174 24.7867C17.8004 24.7867 18.3383 24.7978 18.9311 24.8199C19.5459 24.8421 20.1826 24.8863 20.8413 24.9528C21.5878 24.9528 22.3673 25.0081 23.1796 25.1188C23.992 25.2295 24.6836 25.318 25.2545 25.3844C25.8253 25.4508 26.2535 25.8272 26.5389 26.5134C26.6048 26.6905 26.6926 26.9783 26.8024 27.3768C26.9122 27.7752 26.9671 28.2069 26.9671 28.6718L27 29.3027V29.9004V30H7.56885ZM13.3653 16.9502C12.9261 17.1494 12.5639 17.3044 12.2784 17.4151C12.2126 17.4372 11.8064 17.57 11.0599 17.8135L10.994 17.8467L10.3024 18.046L9.64371 18.2784C9.49001 18.3227 9.30339 18.4555 9.08383 18.6769L8.72155 19.2414L8.65569 19.341L8.62275 19.4406L8.1946 20.0383C8.06287 20.1711 7.87625 20.2486 7.63473 20.2708L7.27245 20.2375L6.91018 20.1711C6.47106 20.0383 6.04292 19.8059 5.62575 19.4738C5.20858 19.1418 5 18.7765 5 18.378C5 17.4261 5.24152 16.5296 5.72455 15.6884C6.18563 14.8029 6.73453 14.0613 7.37125 13.4636C7.63473 13.198 7.89821 12.888 8.16168 12.5338C8.29341 12.3568 8.44711 12.1354 8.62275 11.8697C8.97405 11.2278 9.14969 10.5415 9.14969 9.81098C9.14969 9.54534 9.20459 9.32397 9.31437 9.14687L9.80838 8.58238L10.2365 8.25032L10.6976 7.81865L11.3233 7.12133C11.499 6.87782 11.6746 6.54577 11.8503 6.12516L11.9491 5.7599L12.0479 5.36143V5.29502L12.2784 4.39847C12.3882 4.13283 12.5968 4 12.9042 4L13.5299 4.63091L14.1557 5.32823L14.2545 5.49426L14.3862 5.66028C14.7814 6.19157 15.2206 6.67859 15.7036 7.12133C16.2086 7.56407 16.8124 7.78544 17.515 7.78544C17.7784 7.78544 18.2834 7.91827 19.0299 8.18391C19.7764 8.42742 20.5559 8.87016 21.3683 9.51213C22.3563 10.2869 23.3004 11.4491 24.2006 12.9987C24.6397 13.7514 24.9691 14.6147 25.1886 15.5888C25.4082 16.5407 25.518 17.6475 25.518 18.9093V19.1418V19.341V19.9387C25.518 20.2043 25.5399 20.4036 25.5838 20.5364V22.6616C25.5838 23.215 25.3972 23.4917 25.0239 23.4917H24.991H24.9581H24.7605L24.5958 23.4585L20.7096 23.06L17.3503 22.9272L14.5838 23.0268L12.2126 23.2593L10.9611 23.3921L9.80838 23.4917C9.65469 23.4917 9.54491 23.4696 9.47904 23.4253C9.41317 23.3589 9.38024 23.2703 9.38024 23.1596L9.47904 22.7944L9.77544 22.3295L10.1707 21.931L10.6317 21.5326L10.7305 21.4662L10.8293 21.3665L11.9162 20.8685C12.2236 20.7578 12.4541 20.6692 12.6078 20.6028C12.7615 20.5364 13.003 20.4146 13.3323 20.2375C14.0569 19.9055 14.7156 19.4738 15.3084 18.9425C15.9012 18.4112 16.1976 17.7029 16.1976 16.8174L16.1647 16.5185L16.1317 16.1533C16.0878 15.9983 16.0549 15.8765 16.0329 15.788C15.989 15.6773 15.9341 15.5445 15.8683 15.3895C15.8024 15.2124 15.7146 15.0796 15.6048 14.9911H15.506L15.4072 15.0575L15.3084 15.1571C14.7814 16.0426 14.1337 16.6403 13.3653 16.9502Z" fill="#111111"/>
</svg>
