<svg width="32" height="32" viewBox="0 0 32 32" fill="none" xmlns="http://www.w3.org/2000/svg">
<path d="M6 30V29.9331V29.0962L6.10169 28.0586C6.16949 27.3891 6.35028 26.7866 6.64406 26.2511C6.93785 25.6932 7.46893 25.3808 8.23729 25.3138L9.42372 25.2134L10.7797 25.0795L13.2881 24.8452L16.2034 24.7448C16.7232 24.7448 17.2768 24.7559 17.8644 24.7782C18.452 24.8006 19.0735 24.8452 19.7288 24.9121C20.452 24.9121 21.2316 24.9679 22.0678 25.0795C22.904 25.1911 23.6158 25.2803 24.2034 25.3473C24.791 25.4142 25.2316 25.7936 25.5254 26.4854C25.5932 26.6639 25.6836 26.954 25.7966 27.3557C25.9096 27.7573 25.9661 28.1925 25.9661 28.6611L26 29.2971V29.8996V30H6ZM10.0339 15.5732C10.5989 15.417 11.4576 15.272 12.6102 15.1381C13.7627 15.0042 14.9605 14.9372 16.2034 14.9372C17.4011 14.9372 18.5763 15.0042 19.7288 15.1381C20.8814 15.2497 21.8192 15.3947 22.5424 15.5732L23.6949 23.4393L19.661 23.0377C19.1412 23.0377 18.4633 23.0153 17.6271 22.9707C16.8136 22.9038 16.339 22.8703 16.2034 22.8703L13.2542 22.9707L10.8136 23.205L9.66101 23.3389L8.74576 23.4393L10.0339 15.5732ZM13.4576 9.91632L14.1017 6.16737H14.339L14.6102 6.10042L15.3898 6.03348L16.2034 6L16.8814 6.03348L17.5593 6.06695L17.8983 6.13389L18.2373 6.16737L18.8136 9.91632H20.5763L21.7288 6.66946L22.4068 6.76988L23.1186 6.87029L23.7966 7.07113L24.5085 7.37239L24.3051 10.6527C24.2373 11.2999 24.0565 11.8801 23.7627 12.3933C23.4915 12.8842 23.0847 13.3305 22.5424 13.7322L21.661 13.6318L20.7797 13.4979L18.7119 13.2636L16.2034 13.1297C15.774 13.1297 15.3107 13.1409 14.8136 13.1632C14.339 13.1855 13.8531 13.2301 13.3559 13.2971C12.9492 13.2971 12.4746 13.3417 11.9322 13.431C11.4124 13.4979 10.7797 13.5983 10.0339 13.7322C9.42372 13.4198 8.98305 13.0404 8.71186 12.5941C8.46328 12.1478 8.28248 11.6346 8.16949 11.0544L7.83051 7.37239L8.57627 7.07113L9.42372 6.83682L10.0678 6.73641L10.678 6.66946L11.8305 9.91632H13.4576Z" fill="#111111"/>
</svg>
