<svg width="180" height="180" viewBox="0 0 180 180" fill="none" xmlns="http://www.w3.org/2000/svg">
<path d="M43.2644 155.527H131.203V168.75H43.2644V155.527ZM43.2644 149.059C36.9214 139.989 33.75 129.399 33.75 117.285C33.75 105.68 36.9214 95.2791 43.2644 86.0833C49.6073 76.824 57.7671 70.1651 67.743 66.1061C63.9247 62.9353 62.0162 59.4472 62.0162 55.642C62.0162 51.2027 64.5103 47.3975 69.498 44.2266C74.5481 40.9922 80.5826 39.375 87.6032 39.375C94.6238 39.375 100.658 40.9922 105.708 44.2266C110.758 47.3975 113.283 51.2027 113.283 55.642C113.283 59.7009 111.189 63.2526 107.002 66.2963C116.793 70.3553 124.829 76.9826 131.111 86.1784C137.454 95.3741 140.625 105.743 140.625 117.285C140.625 129.462 137.485 140.053 131.203 149.059H43.2644Z" fill="#592A42"/>
</svg>
