<svg width="180" height="180" viewBox="0 0 180 180" fill="none" xmlns="http://www.w3.org/2000/svg">
<path d="M48.8105 142.016H125.961C129.595 135.24 131.412 128.125 131.412 120.672C131.412 111.001 128.578 102.347 122.912 94.7087C117.245 87.0705 110.069 81.7425 101.383 78.7241C96.2708 78.0469 93.4993 76.1372 93.0679 72.9956C92.4519 69.5464 94.7616 66.6821 99.9973 64.4029C101.969 63.4174 102.954 62.1855 102.954 60.7073C102.954 58.8594 101.383 57.258 98.2423 55.9027C95.1621 54.5475 91.4664 53.87 87.1549 53.87C82.7196 53.87 78.9621 54.5475 75.8824 55.9027C72.8027 57.258 71.2626 58.8594 71.2626 60.7073C71.2626 62.2474 72.4944 63.6947 74.9582 65.0497C79.1471 67.4522 80.964 70.101 80.4099 72.9956C80.0404 75.6444 77.6379 77.5232 73.2026 78.6319C64.3944 81.7116 57.1568 87.0705 51.49 94.7087C45.823 102.347 42.9896 111.001 42.9896 120.672C42.9896 128.002 44.9299 135.116 48.8105 142.016ZM43.2667 151.532C36.9222 142.724 33.75 132.437 33.75 120.672C33.75 109.4 36.9222 99.2976 43.2667 90.3662C49.6112 81.3729 57.7727 74.9053 67.7514 70.9633C63.9326 67.8831 62.0229 64.4957 62.0229 60.7995C62.0229 56.4879 64.5176 52.792 69.507 49.7122C74.5583 46.5707 80.5944 45 87.6167 45C94.6384 45 100.675 46.5707 105.726 49.7122C110.777 52.792 113.303 56.4879 113.303 60.7995C113.303 64.7421 111.208 68.1913 107.02 71.1478C116.814 75.0904 124.852 81.5271 131.135 90.4584C137.48 99.3904 140.651 109.461 140.651 120.672C140.651 132.499 137.51 142.785 131.227 151.532H43.2667ZM43.2667 157.815H131.227V170.658H43.2667V157.815Z" fill="#592A42"/>
<path d="M48.8106 142.016H125.961C129.595 135.24 131.412 128.125 131.412 120.672C131.412 111.001 128.578 102.347 122.912 94.7087C117.245 87.0705 110.069 81.7425 101.384 78.7242C96.2713 78.0469 93.4993 76.1372 93.0679 72.9957C92.4519 69.5464 94.7621 66.6822 99.9979 64.4029C101.969 63.4174 102.954 62.1855 102.954 60.7073C102.954 58.8595 101.384 57.258 98.2423 55.9026C95.1621 54.5475 91.4664 53.8699 87.1549 53.8699C82.7196 53.8699 78.9621 54.5475 75.8824 55.9026C72.8027 57.258 71.2626 58.8595 71.2626 60.7073C71.2626 62.2474 72.4944 63.6947 74.9588 65.0498C79.1471 67.4522 80.964 70.101 80.4099 72.9957C80.0404 75.6445 77.6379 77.5232 73.2032 78.6319C64.3944 81.7116 57.1568 87.0705 51.4901 94.7087C45.8232 102.347 42.9897 111.001 42.9897 120.672C42.9897 128.002 44.93 135.116 48.8106 142.016Z" fill="#EFF0B6"/>
</svg>
