<svg width="180" height="180" viewBox="0 0 180 180" fill="none" xmlns="http://www.w3.org/2000/svg">
<path d="M128.64 16.9674L141.114 16.875C145.302 16.875 147.396 18.9385 147.396 23.0655V49.9526C147.396 54.0796 145.302 56.1431 141.114 56.1431H131.597C131.412 67.9697 132.675 78.7494 135.385 88.4812C138.095 98.1523 142.099 107.946 147.396 117.863V149.185H90.5732H33.75V117.863C38.9858 107.946 42.928 98.1523 45.5766 88.4812C48.2869 78.7494 49.6112 67.9697 49.5496 56.1431H40.0329C35.8443 56.1431 33.75 54.0796 33.75 49.9526V23.1579C33.75 18.9693 35.8443 16.875 40.0329 16.875H53.153H62.3002V26.1146H81.0562V16.875H100.09V26.1146H118.846V16.875L128.64 16.9674ZM87.2471 83.6769V89.6827C87.2471 91.8388 88.3558 92.9166 90.5732 92.9166C92.7293 92.9166 93.807 91.8388 93.807 89.6827V83.6769H96.9486C99.0428 83.6769 100.09 82.6296 100.09 80.5354C100.09 78.4412 99.0428 77.3938 96.9486 77.3938H93.807V70.8339C93.807 68.6166 92.7293 67.5079 90.5732 67.5079C88.3558 67.5079 87.2471 68.6166 87.2471 70.8339V77.3938H84.1978C82.1036 77.3938 81.0562 78.4412 81.0562 80.5354C81.0562 82.6296 82.1036 83.6769 84.1978 83.6769H87.2471ZM90.5732 51.5233H71.5399V99.0146L90.5732 117.494L109.606 99.0146V51.5233H90.5732ZM90.5732 57.8064H103.047V97.2591L90.5732 108.901L78.0998 97.2591V57.8064H90.5732ZM33.75 155.468H147.396V168.311H33.75V155.468Z" fill="#592A42"/>
<path d="M87.2471 83.6769V89.6827C87.2471 91.8388 88.3558 92.9165 90.5732 92.9165C92.7293 92.9165 93.807 91.8388 93.807 89.6827V83.6769H96.9486C99.0428 83.6769 100.09 82.6295 100.09 80.5354C100.09 78.4412 99.0428 77.3938 96.9486 77.3938H93.807V70.8339C93.807 68.6165 92.7293 67.5079 90.5732 67.5079C88.3558 67.5079 87.2471 68.6165 87.2471 70.8339V77.3938H84.1978C82.1036 77.3938 81.0568 78.4412 81.0568 80.5354C81.0568 82.6295 82.1036 83.6769 84.1978 83.6769H87.2471ZM90.5732 51.5233H71.5399V99.0146L90.5732 117.494L109.607 99.0146V51.5233H90.5732ZM90.5732 57.8064H103.047V97.259L90.5732 108.901L78.0998 97.259V57.8064H90.5732Z" fill="#BFB051"/>
</svg>
