<svg width="256" height="256" viewBox="0 0 256 256" fill="none" xmlns="http://www.w3.org/2000/svg">
<path fill-rule="evenodd" clip-rule="evenodd" d="M127.299 48.3832C123.733 47.9465 120.966 44.903 120.966 41.2182C120.966 37.2337 124.201 34 128.184 34C132.168 34 135.402 37.2337 135.402 41.2182C135.402 44.903 132.637 47.9464 129.071 48.3832L142.62 91.7459L159.269 58.4503C155.834 57.896 153.207 54.9137 153.207 51.3241C153.207 47.3395 156.443 44.1059 160.426 44.1059C164.41 44.1059 167.644 47.3395 167.644 51.3241C167.644 55.3086 164.41 58.5422 160.426 58.5422C160.345 58.5422 160.264 58.5406 160.182 58.5374L165.717 91.746L187.366 64.6844C185.31 63.4116 183.939 61.1365 183.939 58.5424C183.939 54.5578 187.173 51.3242 191.158 51.3242C195.142 51.3242 198.376 54.5578 198.376 58.5424C198.376 62.5269 195.142 65.7605 191.158 65.7605C190.238 65.7605 189.358 65.5865 188.549 65.274L177.222 166.815C171.491 204.172 200.364 218.786 200.364 218.786V241.884H56V218.786C56 218.786 84.8727 204.172 79.1448 166.815L67.818 65.274C67.0092 65.5881 66.1295 65.7605 65.2095 65.7605C61.225 65.7605 57.9913 62.5269 57.9913 58.5424C57.9913 54.5578 61.225 51.3242 65.2095 51.3242C69.194 51.3242 72.4277 54.5578 72.4277 58.5424C72.4277 61.1364 71.0549 63.4115 69.0007 64.6844L90.6486 91.746L96.1848 58.5374C96.1042 58.539 96.0236 58.5422 95.9415 58.5422C91.9569 58.5422 88.7233 55.3086 88.7233 51.3241C88.7233 47.3395 91.9569 44.1059 95.9415 44.1059C99.9243 44.1059 103.16 47.3395 103.16 51.3241C103.16 54.9138 100.533 57.8963 97.0984 58.4503L113.745 91.7459L127.297 48.3832H127.299Z" fill="url(#paint0_angular_401_110)" stroke="black" stroke-width="5"/>
<defs>
<radialGradient id="paint0_angular_401_110" cx="0" cy="0" r="1" gradientUnits="userSpaceOnUse" gradientTransform="translate(128.182 137.942) rotate(90) scale(103.942 72.1819)">
<stop stop-color="#205375"/>
<stop offset="1" stop-color="#183F59"/>
</radialGradient>
</defs>
</svg>
