<svg width="180" height="180" viewBox="0 0 180 180" fill="none" xmlns="http://www.w3.org/2000/svg">
<path d="M54.8304 106.341C56.9959 109.875 58.905 113.579 60.5576 117.454C62.2671 121.272 63.1221 125.318 63.1221 129.593C72.5254 129.593 81.9568 129.593 91.4169 129.593C100.877 129.593 110.337 129.593 119.797 129.593C120.481 121.842 123.245 114.063 128.089 106.256C130.767 101.298 132.106 95.9979 132.106 90.3561C132.106 80.2693 128.117 71.6068 120.139 64.3697C112.161 57.132 102.586 53.5133 91.4169 53.5133C80.1332 53.5133 70.5307 57.132 62.6091 64.3697C54.6879 71.6068 50.7273 80.2693 50.7273 90.3561C50.7273 95.9979 52.0949 101.326 54.8304 106.341ZM85.6041 120.959L82.6121 94.4595L71.0719 91.7241V80.0983L82.6121 77.0209L85.6041 62.4032H97.1443L100.222 77.0209L111.761 80.0983V91.7241L100.222 94.4595L97.1443 120.959H85.6041ZM91.5879 33.7669C88.3395 33.7669 86.7156 34.7071 86.7156 36.5878C86.7156 38.4114 88.3395 39.3232 91.5879 39.3232C94.779 39.3232 96.3748 38.4114 96.3748 36.5878C96.3748 34.7071 94.779 33.7669 91.5879 33.7669ZM95.6908 44.0247L95.6053 47.786C107.402 48.7547 117.375 53.3138 125.524 61.4632C133.73 69.6122 137.834 79.2433 137.834 90.3561C137.834 95.3139 136.837 100.586 134.842 106.17C132.107 110.388 129.656 114.861 127.491 119.591C125.325 124.321 124.043 129.678 123.644 135.662C112.873 135.662 102.102 135.662 91.3314 135.662C80.6175 135.662 69.9041 135.662 59.1902 135.662C58.563 129.279 57.2524 124.008 55.2579 119.847C53.2633 115.63 50.8697 111.157 48.0773 106.427C46.0258 101.127 45 95.7701 45 90.3561C45 79.2433 49.0746 69.6122 57.2237 61.4632C65.43 53.3138 75.4318 48.7547 87.228 47.786L87.1425 44.0247C82.413 42.2011 80.0477 39.5512 80.0477 36.0749C80.0477 33.9093 81.1305 32.0572 83.2961 30.5185C85.5186 28.9228 88.1685 28.125 91.2459 28.125C94.3234 28.125 96.9733 28.9228 99.1957 30.5185C101.418 32.0572 102.53 33.9093 102.53 36.0749C102.53 39.6651 100.25 42.3151 95.6908 44.0247ZM101.504 168.231C98.9392 168.515 97.5431 167.148 97.3153 164.127C97.1443 161.107 96.5458 158.571 95.5198 156.52C101.732 156.463 108.001 156.434 114.326 156.434C120.709 156.377 127.063 156.349 133.388 156.349C132.192 158.343 131.195 160.822 130.397 163.785C129.599 166.749 128.231 168.231 126.294 168.231C122.191 168.231 118.059 168.231 113.898 168.231C109.796 168.231 105.664 168.231 101.504 168.231ZM81.2447 168.231C77.0844 168.231 72.9242 168.231 68.7639 168.231C64.6611 168.231 60.5576 168.231 56.4547 168.231C54.5169 168.231 53.1492 166.749 52.3514 163.785C51.6106 160.822 50.6418 158.343 49.445 156.349C55.7707 156.349 62.0679 156.377 68.3364 156.434C74.6623 156.434 80.9882 156.463 87.3135 156.52C86.2881 158.571 85.6896 161.135 85.5186 164.213C85.4044 167.233 83.9801 168.573 81.2447 168.231ZM60.7286 141.987H122.105C124.954 141.987 126.379 143.412 126.379 146.262C126.379 149.111 124.954 150.536 122.105 150.536H60.7286C57.879 150.536 56.4547 149.111 56.4547 146.262C56.4547 143.412 57.879 141.987 60.7286 141.987Z" fill="#432D22"/>
<path d="M54.8302 106.342C56.9959 109.875 58.905 113.579 60.5576 117.454C62.2671 121.272 63.1221 125.319 63.1221 129.593C72.5254 129.593 81.9568 129.593 91.4169 129.593C100.876 129.593 110.337 129.593 119.797 129.593C120.481 121.843 123.245 114.063 128.089 106.256C130.767 101.298 132.106 95.9979 132.106 90.3561C132.106 80.2693 128.117 71.6074 120.139 64.3697C112.16 57.132 102.586 53.5134 91.4169 53.5134C80.1332 53.5134 70.5307 57.132 62.6091 64.3697C54.6878 71.6074 50.7271 80.2693 50.7271 90.3561C50.7271 95.9979 52.0948 101.326 54.8302 106.342ZM85.6041 120.959L82.6121 94.4595L71.0719 91.7241V80.0983L82.6121 77.0209L85.6041 62.4037H97.1443L100.221 77.0209L111.761 80.0983V91.7241L100.221 94.4595L97.1443 120.959H85.6041ZM91.5879 33.767C88.3395 33.767 86.715 34.7073 86.715 36.5879C86.715 38.4115 88.3395 39.3234 91.5879 39.3234C94.779 39.3234 96.3748 38.4115 96.3748 36.5879C96.3748 34.7073 94.779 33.767 91.5879 33.767Z" fill="#E0C097"/>
</svg>
