<svg width="180" height="180" viewBox="0 0 180 180" fill="none" xmlns="http://www.w3.org/2000/svg">
<path d="M131.613 133.737H49.8063C46.444 133.737 44.7059 132.255 44.592 129.291C44.478 126.328 46.3871 123.051 50.3193 119.461C52.0289 117.466 53.881 115.557 55.8756 113.734C57.87 111.91 59.8078 110.086 61.6882 108.263C60.2634 107.465 58.9528 106.61 57.7564 105.698C56.6162 104.73 55.3342 103.903 53.9094 103.219C52.1998 104.758 50.3762 106.183 48.4386 107.493C46.558 108.747 44.4779 109.46 42.1984 109.631C41.6285 109.631 40.7737 109.773 39.6339 110.058C38.4942 110.343 37.9243 110.2 37.9243 109.631C36.8985 109.858 36.0436 109.802 35.3599 109.46C34.676 109.118 33.8211 108.861 32.7954 108.69C31.4846 108.405 29.661 106.952 27.3245 104.331C25.045 101.652 23.5633 99.7431 22.8794 98.6034C21.8536 94.329 22.9079 90.5394 26.0422 87.2342C29.1766 83.8716 31.7411 80.3672 33.7356 76.7199C35.7873 72.7307 38.1523 68.9124 40.8307 65.2652C43.5662 61.6179 45.2473 57.258 45.8741 52.1863C49.8064 50.8186 52.9977 48.1687 55.4482 44.2365C57.9555 40.2473 60.6909 36.6001 63.6547 33.2947C64.3956 30.9012 64.7089 28.3367 64.5947 25.6013C64.5379 22.8658 64.3101 20.2444 63.9112 17.7369C64.7657 17.1101 65.9914 16.8252 67.5866 16.8821C69.1824 16.9391 70.7782 17.0815 72.3741 17.3095C73.2285 17.4805 74.2545 17.7369 75.4515 18.0789C78.1864 19.6175 80.7514 21.6691 83.1448 24.2336C85.595 26.7981 87.3332 29.7044 88.3592 32.9528C90.8094 34.1495 93.2316 35.2893 95.625 36.3721C98.0184 37.3979 100.469 38.5091 102.976 39.7059C110.1 42.8402 116.853 42.6693 123.236 39.193C121.64 41.9285 119.874 44.1225 117.936 45.7752C117.024 46.459 116.027 47.1429 114.944 47.8267C121.441 53.9245 128.878 55.5771 137.255 52.7847C135.488 55.0642 133.351 56.9166 130.844 58.3408C130.16 58.797 129.448 59.1958 128.707 59.5378C127.966 59.823 127.282 60.1076 126.655 60.3928C131.271 68.2571 138.053 71.9044 147 71.3346C144.606 73.1582 142.099 74.3833 139.477 75.0099C137.825 75.5229 136.4 75.7226 135.203 75.6084C137.654 84.3277 143.267 89.5421 152.043 91.2516C149.194 92.3344 146.43 92.8761 143.752 92.8761C142.441 92.8761 141.159 92.7906 139.905 92.6196C139.905 93.2462 140.019 94.1299 140.247 95.2695C140.133 99.2019 140.047 102.621 139.99 105.527C143.467 109.174 147.484 111.426 152.043 112.281C149.194 113.363 146.43 113.905 143.752 113.905C142.783 113.905 141.33 113.79 139.392 113.563C138.936 116.412 138.423 119.404 137.854 122.538C141.272 126.357 145.405 128.779 150.248 129.804C147.513 130.887 144.749 131.429 141.956 131.429C139.62 131.429 136.999 130.972 134.092 130.061C133.351 131.314 132.525 132.54 131.613 133.737ZM64.3382 42.6977C62.4577 45.4332 60.4063 48.1971 58.1839 50.9895C55.9611 53.782 53.4821 55.6056 50.7467 56.4604C50.2338 60.2786 48.5526 64.6099 45.7032 69.4536C42.9108 74.2978 40.5742 78.2871 38.6936 81.4213C42.1699 85.6384 45.9312 89.4853 49.9773 92.9616C55.7901 87.1487 61.0048 81.279 65.6207 75.3519C70.2366 69.4254 73.6847 63.0141 75.9639 56.1185C74.7675 54.7508 74.169 53.0411 74.169 50.9895C74.169 50.2487 74.3113 49.7643 74.5959 49.5363L64.3382 42.6977ZM66.9026 104.331C68.2706 102.963 69.6667 101.567 71.0916 100.142C72.5732 98.6602 73.9125 97.1212 75.1089 95.526C76.9899 93.645 77.9586 92.4486 78.0154 91.9356C78.0154 91.9356 77.6452 92.0779 76.9044 92.3631C76.2204 92.6477 75.9071 92.9042 75.9639 93.1326C74.6533 93.7024 73.2572 94.329 71.7756 95.013C70.3507 95.6396 68.8691 96.1245 67.3301 96.4659C64.0249 96.0103 60.9761 96.8653 58.1839 99.0304C59.6081 99.9996 61.0616 100.911 62.5432 101.766C64.0249 102.621 65.4784 103.476 66.9026 104.33V104.331ZM92.3766 41.8429L89.4701 46.2025C90.7239 47.3993 91.3506 48.9949 91.3506 50.9895C91.3506 56.6882 88.4728 59.5378 82.7173 59.5378C82.5463 59.5378 81.891 59.481 80.7508 59.3668C75.1663 71.5624 67.4156 82.5041 57.4999 92.1921C58.6963 91.5081 60.2634 90.9669 62.2012 90.5681C64.0817 90.7391 65.592 90.7391 66.7316 90.5681C67.8718 90.3397 69.3247 89.5421 71.0916 88.1741C71.2626 88.1741 73.827 87.6898 78.7849 86.7212C83.8001 85.7526 85.1107 87.3197 82.7173 91.4226C82.2043 92.7906 81.5771 94.329 80.8363 96.039C80.1529 97.6916 79.1269 99.4011 77.7589 101.168C76.5056 103.447 74.9098 105.385 72.972 106.981C83.5717 111.426 94.2289 113.762 104.942 113.99C115.714 114.218 125.629 112.623 134.691 109.203C134.862 104.473 134.405 99.1446 133.323 93.2181C131.328 81.6491 127.082 71.8189 120.586 63.7262C117.565 59.7943 114.26 56.4317 110.67 53.6395C106.168 49.9922 100.07 46.0601 92.3766 41.843V41.8429ZM35.1888 87.0632C31.6556 90.9951 29.547 93.8447 28.8632 95.6115C29.8889 97.2641 31.1712 99.0591 32.7099 100.997C34.2486 102.934 36.2146 103.96 38.6081 104.074C39.8049 104.587 41.0301 104.587 42.284 104.074C43.5946 103.561 44.6774 102.963 45.5322 102.279C46.3871 101.937 47.5553 101.225 49.037 100.142C46.6435 98.2614 44.2785 96.1813 41.942 93.9015C39.6054 91.6222 37.3544 89.3424 35.1888 87.0632ZM133.836 116.383C123.92 119.632 113.149 120.886 101.523 120.145C89.9544 119.347 78.6139 116.327 67.5011 111.084C66.7035 111.824 65.8485 112.651 64.9367 113.563C64.0249 114.418 63.0562 115.415 62.0302 116.554C59.8646 118.777 57.1866 121.085 53.995 123.478C50.8606 125.815 50.2908 127.297 52.2854 127.924H128.45C131.186 123.479 132.981 119.632 133.836 116.383ZM67.6721 38.2526L77.4174 44.5783C78.7281 43.1536 80.4943 42.4413 82.7173 42.4413C83.7427 42.4413 84.5409 42.5553 85.1107 42.7832L87.5897 39.1075C85.3672 37.9677 83.9706 37.2554 83.4007 36.9705C82.3753 33.9501 81.6058 31.927 81.0928 30.9012C80.6372 29.8184 79.5544 28.3367 77.8444 26.4561C76.8189 25.4873 75.7642 24.6325 74.6814 23.8916C73.656 23.0938 72.288 22.7234 70.5786 22.7803C70.9774 25.6867 71.1197 28.2228 71.0061 30.3883C70.8919 32.4969 70.0942 34.5769 68.6126 36.6285C67.9854 37.2554 67.6721 37.7968 67.6721 38.2527V38.2526ZM56.8159 61.7602C59.2093 57.8284 61.3749 56.4036 63.3127 57.4864C65.1932 58.5692 64.9935 61.0762 62.7142 65.0087C60.3208 68.9411 58.1839 70.3372 56.3029 69.1971C54.3085 68.2284 54.4795 65.7495 56.8159 61.7602ZM50.3193 166.049C48.0967 166.049 46.558 164.567 45.7032 161.604C44.8483 158.64 43.794 156.161 42.5403 154.167C58.041 154.167 73.5418 154.167 89.0426 154.167C104.601 154.167 120.158 154.167 135.716 154.167C134.405 156.161 133.323 158.64 132.468 161.604C131.613 164.567 130.103 166.049 127.937 166.049C114.944 166.049 101.951 166.049 88.9571 166.049C75.9639 166.049 63.0844 166.049 50.3193 166.049ZM131.528 139.806C134.377 139.806 135.802 141.23 135.802 144.08C135.802 146.929 134.377 148.354 131.528 148.354H46.558C43.7086 148.354 42.284 146.929 42.284 144.08C42.284 141.23 43.7086 139.806 46.558 139.806H131.528Z" fill="#432D22"/>
<path d="M64.3382 42.6978C62.4578 45.4332 60.4063 48.1971 58.1839 50.9896C55.9611 53.782 53.4821 55.6056 50.7467 56.4604C50.2338 60.2786 48.5526 64.6099 45.7032 69.4536C42.9107 74.2978 40.5742 78.2871 38.6937 81.4213C42.1699 85.6384 45.9312 89.4853 49.9773 92.9616C55.7902 87.1487 61.0048 81.279 65.6207 75.3519C70.2366 69.4254 73.6847 63.0141 75.9639 56.1185C74.7669 54.7508 74.169 53.0411 74.169 50.9896C74.169 50.2487 74.3113 49.7643 74.5959 49.5363L64.3382 42.6978ZM66.9026 104.331C68.2706 102.963 69.6668 101.567 71.0916 100.142C72.5732 98.6603 73.9125 97.1213 75.1089 95.526C76.9899 93.645 77.9586 92.4486 78.0154 91.9356C78.0154 91.9356 77.6453 92.0779 76.9044 92.3631C76.2204 92.6477 75.9071 92.9042 75.9639 93.1326C74.6533 93.7024 73.2572 94.329 71.7756 95.013C70.3508 95.6396 68.8691 96.1245 67.3301 96.4659C64.0249 96.0103 60.9761 96.8653 58.1839 99.0304C59.6081 99.9996 61.0616 100.911 62.5433 101.766C64.0249 102.621 65.4778 103.476 66.9026 104.331ZM92.3766 41.8429L89.4701 46.2025C90.7239 47.3993 91.3506 48.9949 91.3506 50.9896C91.3506 56.6882 88.4728 59.5378 82.7173 59.5378C82.5463 59.5378 81.8904 59.481 80.7508 59.3668C75.1663 71.5624 67.4156 82.5041 57.4999 92.1921C58.6963 91.5081 60.2634 90.9669 62.2013 90.5681C64.0817 90.7391 65.592 90.7391 66.7316 90.5681C67.8718 90.3398 69.3248 89.5421 71.0916 88.1741C71.2626 88.1741 73.827 87.6898 78.7849 86.7212C83.7996 85.7526 85.1108 87.3197 82.7173 91.4226C82.2043 92.7906 81.5771 94.329 80.8363 96.039C80.1523 97.6916 79.1269 99.4011 77.7589 101.168C76.5056 103.447 74.9098 105.385 72.972 106.981C83.5718 111.426 94.2289 113.762 104.942 113.99C115.713 114.218 125.629 112.623 134.691 109.203C134.861 104.473 134.405 99.1446 133.323 93.2181C131.328 81.6491 127.082 71.8189 120.586 63.7262C117.565 59.7943 114.26 56.4317 110.67 53.6395C106.168 49.9922 100.07 46.0601 92.3766 41.8429ZM35.1888 87.0632C31.6556 90.9951 29.547 93.8447 28.8632 95.6115C29.8889 97.2641 31.1712 99.0591 32.7098 100.997C34.2486 102.934 36.2147 103.96 38.6081 104.074C39.8049 104.587 41.0302 104.587 42.2839 104.074C43.5947 103.561 44.6774 102.963 45.5322 102.279C46.3871 101.937 47.5553 101.225 49.037 100.142C46.6435 98.2614 44.2784 96.1813 41.942 93.9015C39.6054 91.6223 37.3544 89.3424 35.1888 87.0632ZM133.836 116.384C123.92 119.632 113.149 120.886 101.523 120.145C89.9544 119.347 78.6139 116.327 67.5011 111.084C66.7035 111.824 65.8485 112.651 64.9367 113.563C64.0249 114.418 63.0563 115.415 62.0303 116.555C59.8646 118.777 57.1866 121.085 53.995 123.478C50.8606 125.815 50.2908 127.297 52.2853 127.924H128.45C131.186 123.478 132.981 119.632 133.836 116.384ZM67.6721 38.2526L77.4169 44.5784C78.7281 43.1537 80.4943 42.4413 82.7173 42.4413C83.7428 42.4413 84.5404 42.5553 85.1108 42.7832L87.5897 39.1075C85.3673 37.9677 83.9706 37.2554 83.4008 36.9704C82.3753 33.9501 81.6058 31.927 81.0928 30.9012C80.6372 29.8184 79.5544 28.3367 77.8444 26.4561C76.8189 25.4873 75.7643 24.6325 74.6814 23.8916C73.656 23.0938 72.288 22.7234 70.5786 22.7804C70.9774 25.6867 71.1197 28.2228 71.0061 30.3883C70.8919 32.4969 70.0943 34.5769 68.6126 36.6285C67.9854 37.2554 67.6721 37.7967 67.6721 38.2526ZM56.8159 61.7603C59.2093 57.8284 61.3749 56.4036 63.3128 57.4864C65.1932 58.5692 64.9935 61.0763 62.7143 65.0087C60.3208 68.9411 58.1839 70.3373 56.3029 69.1971C54.3085 68.2284 54.4794 65.7495 56.8159 61.7603Z" fill="#E0C097"/>
</svg>
