<svg width="180" height="180" viewBox="0 0 180 180" fill="none" xmlns="http://www.w3.org/2000/svg">
<path d="M149.664 156.724C147.898 158.719 146.444 161.198 145.304 164.161C144.222 167.124 142.341 168.606 139.663 168.606C123.649 168.606 107.607 168.606 91.5362 168.606C75.4656 168.606 59.5372 168.606 43.7514 168.606C41.016 168.606 39.1069 167.124 38.0241 164.161C36.9413 161.198 35.5166 158.719 33.75 156.724L47.94 142.363L62.6428 60.813H52.4706C49.4502 60.813 47.94 59.3027 47.94 56.2826C47.94 53.205 49.4502 51.6663 52.4706 51.6663H130.858C133.935 51.6663 135.474 53.205 135.474 56.2826C135.474 59.3027 133.935 60.813 130.858 60.813H120.856L135.474 142.363L149.664 156.724ZM91.7072 75.1742C87.4901 75.1742 85.3813 77.1114 85.3813 80.9865V95.6897C85.3813 99.5079 87.4901 101.417 91.7072 101.417C95.9811 101.417 98.118 99.5079 98.118 95.6897V80.9865C98.118 77.1114 95.9811 75.1742 91.7072 75.1742ZM114.787 156.724C111.596 156.724 108.861 155.613 106.581 153.39C104.358 151.111 103.247 148.375 103.247 145.184V127.318C103.247 124.184 102.107 121.477 99.828 119.197C97.5482 116.918 94.8414 115.778 91.7072 115.778C88.4587 115.778 85.7233 116.918 83.5009 119.197C81.2784 121.477 80.1669 124.184 80.1669 127.318V145.184C80.1669 148.375 78.9986 151.111 76.662 153.39C74.3828 155.613 71.6473 156.724 68.4557 156.724H114.787ZM133.764 46.1955C118.036 46.1955 103.988 46.1955 91.6217 46.1955C79.3119 46.1955 65.2928 46.1955 49.5642 46.1955C46.2589 46.1955 44.5493 42.7762 44.4353 35.9376C44.3783 29.042 44.3499 22.6878 44.3499 16.875C46.9143 16.875 49.5073 16.875 52.1287 16.875C54.7502 16.875 57.3716 16.875 59.9929 16.875L65.4637 28.5006H78.543L83.7574 16.875H99.657L104.786 28.5006H117.95L123.421 16.875H138.979C138.979 22.6878 138.922 29.042 138.808 35.9376C138.694 42.7762 137.013 46.1955 133.764 46.1955Z" fill="#2D2424"/>
<path d="M91.7072 75.1742C87.4901 75.1742 85.3813 77.1114 85.3813 80.9871V95.6897C85.3813 99.5079 87.4901 101.417 91.7072 101.417C95.9811 101.417 98.118 99.5079 98.118 95.6897V80.9871C98.118 77.1114 95.9811 75.1742 91.7072 75.1742ZM114.787 156.724C111.596 156.724 108.861 155.613 106.581 153.39C104.358 151.111 103.247 148.376 103.247 145.184V127.318C103.247 124.184 102.107 121.477 99.828 119.198C97.5482 116.918 94.8414 115.778 91.7072 115.778C88.4587 115.778 85.7233 116.918 83.5009 119.198C81.2784 121.477 80.1669 124.184 80.1669 127.318V145.184C80.1669 148.376 78.9986 151.111 76.662 153.39C74.3828 155.613 71.6473 156.724 68.4557 156.724H114.787Z" fill="#B85C38"/>
</svg>
