<svg width="50" height="50" viewBox="0 0 50 50" fill="none" xmlns="http://www.w3.org/2000/svg">
<path fill-rule="evenodd" clip-rule="evenodd" d="M27.67 15.225V11.6814H32.1096V7.2521H27.1752V3.3588H22.8092V7.2521H17.8748V11.6814H22.3144V15.225" fill="#0093AB"/>
<path d="M27.67 15.225V11.6814H32.1096V7.2521H27.1752V3.3588H22.8092V7.2521H17.8748V11.6814H22.3144V15.225" stroke="#1E1E1E" stroke-width="1.2" stroke-linecap="round"/>
<path d="M28.3037 14.215H21.6927C20.923 14.215 20.299 14.839 20.299 15.6087C20.299 16.3783 20.923 17.0023 21.6927 17.0023H28.3037C29.0734 17.0023 29.6974 16.3783 29.6974 15.6087C29.6974 14.839 29.0734 14.215 28.3037 14.215Z" fill="#0093AB" stroke="#1E1E1E" stroke-width="1.2" stroke-linejoin="round"/>
<path opacity="0.18" fill-rule="evenodd" clip-rule="evenodd" d="M26.416 14.215C27.1408 14.215 27.7242 14.8364 27.7242 15.6085C27.7242 16.3806 27.1408 17.002 26.416 17.002H28.3896C29.1144 17.002 29.6977 16.3806 29.6977 15.6085C29.6977 14.8364 29.1143 14.215 28.3896 14.215H26.416Z" fill="black"/>
<path opacity="0.25" fill-rule="evenodd" clip-rule="evenodd" d="M21.631 14.842C21.2293 14.842 20.906 15.1867 20.906 15.6146C20.906 16.0425 21.2293 16.3869 21.631 16.3869H22.5048C22.1031 16.3869 21.7798 16.0425 21.7798 15.6146C21.7798 15.1867 22.1031 14.842 22.5048 14.842H21.631Z" fill="white"/>
<path fill-rule="evenodd" clip-rule="evenodd" d="M33.635 36.986C33.635 36.986 41.411 23.668 40.2477 21.07C39.0845 18.4736 31.7675 16.5726 24.9997 16.5726C18.232 16.5726 10.9157 18.473 9.75171 21.07C8.58851 23.6666 16.3644 36.986 16.3644 36.986H33.635Z" fill="#0093AB" stroke="#1E1E1E" stroke-width="1.2" stroke-linecap="round"/>
<path opacity="0.18" fill-rule="evenodd" clip-rule="evenodd" d="M24.996 16.576C40.934 19.1976 37.569 25.9299 31.6366 39.119L33.6639 37.3902C33.6639 37.3902 41.4111 23.6672 40.2478 21.0702C38.7026 18.2368 32.7451 16.911 24.9958 16.5757L24.996 16.576Z" fill="black"/>
<path opacity="0.25" fill-rule="evenodd" clip-rule="evenodd" d="M23.765 17.295C19.861 17.1106 9.144 19.0964 10.262 22.3117C11.0792 26.0391 13.0164 29.5557 14.7705 32.8157C9.0833 22.4807 8.8284 19.0417 23.7648 17.2947L23.765 17.295Z" fill="white"/>
<path opacity="0.25" fill-rule="evenodd" clip-rule="evenodd" d="M23.391 3.997L23.3749 7.3093H23.9205L23.9367 3.997H23.391ZM18.4599 7.8669L18.4524 11.0746H19.2256L19.2331 7.8669H18.4599ZM22.8727 11.0799L22.8984 13.5658H23.4184L23.3927 11.0799H22.8727Z" fill="white"/>
<path opacity="0.18" fill-rule="evenodd" clip-rule="evenodd" d="M26.189 3.3582L26.189 7.2517H27.1758L27.1758 3.3582H26.189ZM30.63 7.2519V12.1972H32.1102V7.2519H30.63ZM26.1904 11.681L26.1904 14.1733H27.6706L27.6706 11.681H26.1904Z" fill="black"/>
<path fill-rule="evenodd" clip-rule="evenodd" d="M25 36.457C25 36.457 15.8691 36.5051 13.309 38.0762C11.5817 39.1364 11.1742 41.7276 11.4092 44.3999H38.5912C38.8262 41.7276 38.4186 39.1363 36.6913 38.0762C34.1316 36.5051 25.0003 36.457 25.0003 36.457H25Z" fill="#0093AB" stroke="#1E1E1E" stroke-width="1.2" stroke-linejoin="round"/>
<path opacity="0.25" fill-rule="evenodd" clip-rule="evenodd" d="M25 37.147C25 37.147 16.2879 37.0097 13.376 38.8128C13.0061 39.0418 12.6767 39.6522 12.4224 40.203C12.6832 39.8717 12.9245 39.59 13.309 39.354C15.8688 37.7829 25 37.7349 25 37.7349C25 37.7349 34.1318 37.7828 36.692 39.354C37.0831 39.594 37.2845 39.8856 37.5476 40.2241C37.5734 40.1482 37.1393 39.0663 36.4039 38.6279C33.6485 37.1359 25.0008 37.1471 25.0008 37.1471L25 37.147Z" fill="white"/>
</svg>
