<svg width="50" height="50" viewBox="0 0 50 50" fill="none" xmlns="http://www.w3.org/2000/svg">
<path fill-rule="evenodd" clip-rule="evenodd" d="M24.959 5.0937C24.0796 5.09377 23.2363 5.4055 22.6146 5.96032C21.9928 6.51513 21.6435 7.2676 21.6435 8.0522C21.6435 8.83679 21.9928 9.58926 22.6146 10.1441C23.2363 10.6989 24.0796 11.0106 24.959 11.0107C25.3944 11.0107 25.8256 10.9342 26.228 10.7855C26.6303 10.6369 26.9958 10.419 27.3037 10.1442C27.6117 9.86951 27.8559 9.54336 28.0226 9.18441C28.1892 8.82545 28.275 8.44073 28.275 8.0522C28.275 7.66367 28.1892 7.27894 28.0226 6.91999C27.8559 6.56103 27.6117 6.23488 27.3037 5.96016C26.9958 5.68543 26.6303 5.46752 26.228 5.31885C25.8256 5.17018 25.3944 5.09367 24.959 5.0937V5.0937Z" fill="#0093AB" stroke="#1E1E1E" stroke-width="1.1999" stroke-linecap="round" stroke-linejoin="round"/>
<path opacity="0.25" fill-rule="evenodd" clip-rule="evenodd" d="M24.836 5.7323C24.4602 5.52268 21.1117 6.53816 22.6512 9.3076C22.4157 7.763 23.0888 6.1045 24.836 5.7323Z" fill="white"/>
<path fill-rule="evenodd" clip-rule="evenodd" d="M24.959 11.011C18.4522 11.011 15.3637 16.8953 15.3639 21.369H34.6269C34.6271 16.8949 31.4662 11.011 24.9593 11.011H24.959Z" fill="#0093AB" stroke="#1E1E1E" stroke-width="1.2" stroke-linecap="round" stroke-linejoin="round"/>
<path opacity="0.25" fill-rule="evenodd" clip-rule="evenodd" d="M18.161 14.977C19.2028 13.4987 21.0806 11.7571 25.0014 11.5974C24.6907 11.8745 20.2126 12.7348 18.161 14.977Z" fill="white"/>
<path opacity="0.18" fill-rule="evenodd" clip-rule="evenodd" d="M24.836 5.0067C24.836 5.0067 24.8817 5.24478 24.8359 5.0067C27.3158 6.1356 26.8856 8.854 25.6532 10.5537C33.0068 14.3573 27.8657 19.2227 27.8654 19.2218H30.5662C32.3281 20.5088 37.7748 16.4809 26.7311 10.5528C30.2587 7.4374 26.8276 4.9456 24.8359 5.0062L24.836 5.0067Z" fill="black"/>
<path fill-rule="evenodd" clip-rule="evenodd" d="M25 15.225C23.029 15.225 22.6517 17.8744 20.8634 18.0842C19.0421 18.2979 17.4818 15.7728 15.6129 16.3481C14.1184 16.8081 14.8346 18.948 13.8076 19.5233C12.4058 20.3084 10.6231 17.6909 8.5174 19.225C15.3561 28.0538 16.6033 31.602 16.5007 38.044L33.4987 38.0439C33.396 31.6013 34.6432 28.0535 41.4818 19.2249C39.3762 17.6908 37.5934 20.3082 36.1917 19.5232C35.1646 18.9479 35.8809 16.808 34.3864 16.348C32.5176 15.7727 30.9571 18.2978 29.1358 18.0841C27.3474 17.8743 26.9703 15.2249 24.9993 15.2249L25 15.225Z" fill="#0093AB" stroke="#1E1E1E" stroke-width="1.1999" stroke-linecap="round" stroke-linejoin="round"/>
<path opacity="0.25" fill-rule="evenodd" clip-rule="evenodd" d="M9.8952 19.34C9.75932 19.3301 9.56381 19.3961 9.43658 19.4247C12.5181 23.5246 16.0117 28.9619 16.5357 31.8417C15.1295 26.9094 13.2693 22.2795 10.3954 19.3697L9.8952 19.34Z" fill="white"/>
<path opacity="0.18" fill-rule="evenodd" clip-rule="evenodd" d="M39.974 18.735C30.4888 28.738 30.0501 36.72 23.033 38.045H33.509C33.4063 31.6023 34.6535 28.0545 41.4921 19.226C41.4921 19.226 40.8041 18.4702 39.9742 18.7348L39.974 18.735Z" fill="black"/>
<path opacity="0.25" fill-rule="evenodd" clip-rule="evenodd" d="M14.912 18.945C15.1148 18.8573 16.0961 17.1372 16.8925 16.9949C15.4725 16.6494 15.2737 16.9486 14.912 18.945V18.945Z" fill="white"/>
<path opacity="0.25" fill-rule="evenodd" clip-rule="evenodd" d="M22.511 17.876C23.4644 17.029 24.1443 15.2209 25.7489 16.0307C24.9514 15.8019 23.5341 17.071 22.511 17.876V17.876Z" fill="white"/>
<path opacity="0.25" fill-rule="evenodd" clip-rule="evenodd" d="M31.12 18.133C31.3298 18.2029 33.2962 16.4907 33.9825 16.9154C33.9825 16.9154 32.5512 18.035 31.12 18.133Z" fill="white"/>
<path fill-rule="evenodd" clip-rule="evenodd" d="M25 36.457C25 36.457 15.8691 36.505 13.309 38.0762C11.5817 39.1364 11.1742 41.7277 11.4092 44.3999L38.5912 44.3998C38.8261 41.7275 38.4186 39.1363 36.6913 38.0761C34.1315 36.505 25.0003 36.4569 25.0003 36.4569L25 36.457Z" fill="#0093AB" stroke="#1E1E1E" stroke-width="1.2" stroke-linejoin="round"/>
<path opacity="0.25" fill-rule="evenodd" clip-rule="evenodd" d="M25 37.147C25 37.147 16.2879 37.0096 13.376 38.8128C13.0061 39.0418 12.6767 39.6522 12.4224 40.203C12.6832 39.8717 12.9245 39.59 13.309 39.354C15.8687 37.7829 25 37.7348 25 37.7348C25 37.7348 34.1318 37.7828 36.692 39.354C37.0831 39.594 37.2845 39.8856 37.5476 40.224C37.5736 40.148 37.1393 39.0662 36.4038 38.6278C33.6484 37.1358 25.0008 37.147 25.0008 37.147H25Z" fill="white"/>
</svg>
