<svg width="700" height="700" viewBox="0 0 700 700" fill="none" xmlns="http://www.w3.org/2000/svg">
<path fill-rule="evenodd" clip-rule="evenodd" d="M240.05 476.377C258.088 450.314 234.566 378.502 240.064 345.67C248.987 292.386 319 256.622 328.345 287.515C339.431 324.161 294.425 327.619 281.903 358.209C270.401 386.307 272.862 433.252 295.254 461.506" fill="url(#paint0_linear_2_206)"/>
<path d="M240.05 476.377C258.088 450.314 234.566 378.502 240.064 345.67C248.987 292.386 319 256.622 328.345 287.515C339.431 324.161 294.425 327.619 281.903 358.209C270.401 386.307 272.862 433.252 295.254 461.506" stroke="black" stroke-width="12.4444" stroke-linecap="round" stroke-linejoin="round"/>
<path fill-rule="evenodd" clip-rule="evenodd" d="M472.026 480.135C453.988 454.071 477.511 382.26 472.012 349.428C463.089 296.144 393.075 260.38 383.73 291.272C372.645 327.918 417.651 331.377 430.173 361.967C441.675 390.065 439.214 437.009 416.822 465.264" fill="url(#paint1_linear_2_206)"/>
<path d="M472.026 480.135C453.988 454.071 477.511 382.26 472.012 349.428C463.089 296.144 393.075 260.38 383.73 291.272C372.645 327.918 417.651 331.377 430.173 361.967C441.675 390.065 439.214 437.009 416.822 465.264" stroke="black" stroke-width="12.4444" stroke-linecap="round" stroke-linejoin="round"/>
<path fill-rule="evenodd" clip-rule="evenodd" d="M327.614 224.089C331.702 212.423 342.317 168.926 338.437 156.112C321.082 154.738 284.821 170.658 261.319 165.558C254.7 153.591 250.567 127.84 260.074 113.705C281.351 107.231 328.31 118.581 341.29 120.32C345.891 107.212 330.016 67.7125 333.091 53.41C347.675 46.4388 383.891 47.1279 394.655 54.2142C394.107 69.2362 372.181 105.723 371.649 118.197C386.259 117.448 431.767 105.072 447.302 108.095C454.003 121.091 455.458 144.312 444.647 159.153C428.084 164.67 384.233 152.207 365.961 155.832C358.261 171.362 370.232 211.461 373.177 223.191" fill="url(#paint2_linear_2_206)"/>
<path d="M327.614 224.089C331.702 212.423 342.317 168.926 338.437 156.112C321.082 154.738 284.821 170.658 261.319 165.558C254.7 153.591 250.567 127.84 260.074 113.705C281.351 107.231 328.31 118.581 341.29 120.32C345.891 107.212 330.016 67.7125 333.091 53.41C347.675 46.4388 383.891 47.1279 394.655 54.2142C394.107 69.2362 372.181 105.723 371.649 118.197C386.259 117.448 431.767 105.072 447.302 108.095C454.003 121.091 455.458 144.312 444.647 159.153C428.084 164.67 384.233 152.207 365.961 155.832C358.261 171.362 370.232 211.461 373.177 223.191" stroke="black" stroke-width="12.4444" stroke-linecap="round" stroke-linejoin="round"/>
<path fill-rule="evenodd" clip-rule="evenodd" d="M333.208 289.203C313.97 272.544 305.493 272.406 309.227 230.709C312.416 195.102 391.871 196.938 393.72 229.161C396.039 269.564 382.606 272.589 373.264 292.153" fill="url(#paint3_linear_2_206)"/>
<path d="M333.208 289.203C313.97 272.544 305.493 272.406 309.227 230.709C312.416 195.102 391.871 196.938 393.72 229.161C396.039 269.564 382.606 272.589 373.264 292.153" stroke="black" stroke-width="12.4444" stroke-linecap="round" stroke-linejoin="round"/>
<path fill-rule="evenodd" clip-rule="evenodd" d="M226.304 645.789L176.546 493.155L543.06 491.547L484.812 650.466L226.304 645.789Z" fill="url(#paint4_linear_2_206)"/>
<path fill-rule="evenodd" clip-rule="evenodd" d="M516.022 557.752C443.162 520.407 277.136 518.653 198.995 559.211C209.941 593.801 214.32 632.301 214.32 632.301C285.616 610.162 430.443 609.278 500.443 635.523C500.443 635.523 507.661 583.661 516.022 557.751L516.022 557.752Z" fill="url(#paint5_linear_2_206)" stroke="black" stroke-width="12.4444" stroke-linecap="round" stroke-linejoin="round"/>
<path fill-rule="evenodd" clip-rule="evenodd" d="M446.08 446.469C423.711 434.376 376.725 404.826 351.219 403.772C331.723 402.966 291.481 429.034 270.789 445.059C181.131 404.252 182.203 326.143 244.928 311.816C255.143 309.482 285.551 312.177 305.643 311.257C299.245 293.589 292.271 281.061 298.885 257.542C284.708 248.417 265.839 241.874 244.344 240.601C237.862 240.215 231.368 240.061 224.875 240.139C161.719 240.917 96.191 263.889 86.8927 322C73.3212 406.815 148.408 456.801 175.438 546.51C261.232 497.582 459.066 500.698 541.26 542.986C563.075 473.638 650.033 392.595 630.583 321.903C612.572 256.437 525.006 237.28 467.226 240.552C443.808 241.879 421.327 249.46 404.445 259.875C407.713 278.519 401.088 293.763 395.597 309.871C422.31 309.883 469.177 303.671 487.57 314.076C528.193 337.057 531.29 419.774 446.08 446.469V446.469Z" fill="url(#paint6_linear_2_206)" stroke="black" stroke-width="12.4444" stroke-linecap="round" stroke-linejoin="round"/>
<path fill-rule="evenodd" clip-rule="evenodd" d="M271.046 445.3C300.598 424.55 314.6 383.341 313.419 350.072C311.715 302.102 286.057 293.741 300.71 251.75C310.645 223.278 393.392 221.814 402.738 252.707C413.824 289.353 385.36 312.168 389.797 349.264C394.973 392.54 395.294 421.227 446.026 447.71" fill="url(#paint7_linear_2_206)"/>
<path d="M271.046 445.3C300.598 424.55 314.6 383.341 313.419 350.072C311.715 302.102 286.057 293.741 300.71 251.75C310.645 223.278 393.392 221.814 402.738 252.707C413.824 289.353 385.36 312.168 389.797 349.264C394.973 392.54 395.294 421.227 446.026 447.71" stroke="black" stroke-width="12.4444" stroke-linecap="round" stroke-linejoin="round"/>
<path fill-rule="evenodd" clip-rule="evenodd" d="M229.982 647.638C298.321 655.793 407.48 657.131 484.601 649.474C431.247 627.712 285.058 627.947 229.982 647.638Z" fill="url(#paint8_linear_2_206)" stroke="black" stroke-width="12.4444" stroke-linecap="round" stroke-linejoin="round"/>
<path fill-rule="evenodd" clip-rule="evenodd" d="M368.372 573.249C368.372 576.571 366.987 579.757 364.521 582.106C362.054 584.455 358.709 585.774 355.221 585.774C351.733 585.774 348.388 584.455 345.922 582.106C343.456 579.757 342.07 576.571 342.07 573.249C342.07 569.928 343.456 566.742 345.922 564.393C348.388 562.044 351.733 560.725 355.221 560.725C358.709 560.725 362.054 562.044 364.521 564.393C366.987 566.742 368.372 569.928 368.372 573.249Z" fill="#FDAF75" stroke="black" stroke-width="12.4444" stroke-linecap="round" stroke-linejoin="round"/>
<path fill-rule="evenodd" clip-rule="evenodd" d="M292.536 579.555C292.98 582.006 291.882 584.633 289.483 586.858C287.085 589.083 283.582 590.723 279.746 591.417C275.91 592.112 272.055 591.805 269.029 590.562C266.002 589.32 264.053 587.245 263.609 584.794C263.165 582.342 264.263 579.715 266.661 577.49C269.06 575.266 272.562 573.626 276.398 572.931C280.234 572.236 284.089 572.544 287.116 573.786C290.142 575.028 292.092 577.103 292.536 579.555Z" fill="#FDAF75" stroke="black" stroke-width="12.4444" stroke-linecap="round" stroke-linejoin="round"/>
<path fill-rule="evenodd" clip-rule="evenodd" d="M444.814 584.464C444.415 586.923 442.542 589.04 439.608 590.348C436.673 591.657 432.918 592.05 429.167 591.441C425.417 590.832 421.978 589.272 419.608 587.102C417.238 584.933 416.131 582.333 416.53 579.874C416.929 577.415 418.802 575.298 421.736 573.989C424.671 572.681 428.426 572.288 432.177 572.896C435.927 573.505 439.366 575.066 441.736 577.235C444.106 579.404 445.213 582.005 444.814 584.464Z" fill="#FDAF75" stroke="black" stroke-width="12.4442" stroke-linecap="round" stroke-linejoin="round"/>
<defs>
<linearGradient id="paint0_linear_2_206" x1="246.987" y1="332.15" x2="302.215" y2="405.39" gradientUnits="userSpaceOnUse">
<stop stop-color="#EAEA7F"/>
<stop offset="1" stop-color="#FDAF75"/>
</linearGradient>
<linearGradient id="paint1_linear_2_206" x1="400.786" y1="348.87" x2="479.089" y2="411.092" gradientUnits="userSpaceOnUse">
<stop stop-color="#EAEA7F"/>
<stop offset="1" stop-color="#FDAF75"/>
</linearGradient>
<linearGradient id="paint2_linear_2_206" x1="310.487" y1="124.641" x2="466.549" y2="223.159" gradientUnits="userSpaceOnUse">
<stop stop-color="#EAEA7F"/>
<stop offset="1" stop-color="#FDAF75"/>
</linearGradient>
<linearGradient id="paint3_linear_2_206" x1="302.143" y1="248.325" x2="400.207" y2="248.325" gradientUnits="userSpaceOnUse">
<stop stop-color="#EAEA7F"/>
<stop offset="1" stop-color="#FDAF75"/>
</linearGradient>
<linearGradient id="paint4_linear_2_206" x1="116.637" y1="333.401" x2="647.398" y2="650.466" gradientUnits="userSpaceOnUse">
<stop stop-color="#EAEA7F"/>
<stop offset="1" stop-color="#FDAF75"/>
</linearGradient>
<linearGradient id="paint5_linear_2_206" x1="116.637" y1="333.401" x2="647.398" y2="650.466" gradientUnits="userSpaceOnUse">
<stop stop-color="#EAEA7F"/>
<stop offset="1" stop-color="#FDAF75"/>
</linearGradient>
<linearGradient id="paint6_linear_2_206" x1="116.637" y1="333.401" x2="647.398" y2="650.466" gradientUnits="userSpaceOnUse">
<stop stop-color="#EAEA7F"/>
<stop offset="1" stop-color="#FDAF75"/>
</linearGradient>
<linearGradient id="paint7_linear_2_206" x1="116.637" y1="333.401" x2="647.398" y2="650.466" gradientUnits="userSpaceOnUse">
<stop stop-color="#EAEA7F"/>
<stop offset="1" stop-color="#FDAF75"/>
</linearGradient>
<linearGradient id="paint8_linear_2_206" x1="187.873" y1="602.729" x2="508.271" y2="668.384" gradientUnits="userSpaceOnUse">
<stop stop-color="#EAEA7F"/>
<stop offset="1" stop-color="#FDAF75"/>
</linearGradient>
</defs>
</svg>
