<svg width="32" height="32" viewBox="0 0 32 32" fill="none" xmlns="http://www.w3.org/2000/svg">
<path d="M18.6861 19.8926C17.7555 19.6868 16.7308 19.5839 15.6123 19.5839C14.449 19.5839 13.4109 19.6913 12.4982 19.906L12.5921 20.7114C13.5138 20.5056 14.5206 20.4027 15.6123 20.4027C16.7398 20.4027 17.7331 20.5056 18.5921 20.7114L18.6861 19.8926ZM12.9277 24.2013C12.9993 24.0224 13.2901 23.8702 13.8002 23.745C14.3103 23.6107 14.9143 23.5436 15.6123 23.5436C16.3013 23.5436 16.9009 23.6107 17.4109 23.745C17.921 23.8702 18.2118 24.0224 18.2834 24.2013L18.3371 23.3557C17.5944 22.9799 16.6727 22.7919 15.572 22.7919C15.0082 22.7919 14.4892 22.8456 14.015 22.953C13.5407 23.0604 13.1514 23.1812 12.8472 23.3154L12.9277 24.2013ZM17.0888 21.5839L15.5989 20.9664L14.1089 21.5839L15.5989 22.2013L17.0888 21.5839ZM20.5653 15.7584C20.798 15.1857 20.7756 14.1834 20.4982 12.7517C20.2208 11.311 19.5944 10.2595 18.619 9.59732C18.4311 9.43624 18.2834 9.35571 18.176 9.35571C17.9971 9.35571 17.827 9.44966 17.666 9.63758C17.5138 9.81656 17.5049 10.0179 17.6391 10.2416C18.7577 11.0201 19.5407 12.0045 19.9881 13.1946C20.4355 14.3758 20.628 15.2304 20.5653 15.7584H20.5653ZM15.478 6.69799C15.1112 6.69799 14.9277 6.87696 14.9277 7.2349C14.9277 7.60179 15.1112 7.78524 15.478 7.78524C15.8449 7.78524 16.0284 7.60179 16.0284 7.2349C16.0284 6.87696 15.8449 6.69799 15.478 6.69799ZM18.6995 6.72483C18.3147 6.72483 18.1223 6.91723 18.1223 7.30201C18.1223 7.6868 18.3147 7.87919 18.6995 7.87919C19.0843 7.87919 19.2767 7.6868 19.2767 7.30201C19.2767 6.91723 19.0843 6.72483 18.6995 6.72483ZM19.223 20.8322L18.8069 24.255C18.798 24.5235 18.4758 24.7517 17.8405 24.9396C17.2051 25.1275 16.4445 25.2215 15.5586 25.2215C14.6637 25.2215 13.8986 25.1275 13.2633 24.9396C12.6369 24.7517 12.3237 24.5235 12.3237 24.255L11.921 20.8322C11.2856 19.8658 10.8382 18.8859 10.5787 17.8926C10.3192 16.8993 10.1895 15.9463 10.1895 15.0336C10.1895 12.2864 11.6749 10.1834 14.6458 8.72483C14.6458 8.5906 14.6593 8.41611 14.6861 8.20134C14.3818 7.95078 14.2297 7.62864 14.2297 7.2349C14.2297 6.41163 14.6458 6 15.478 6C16.3013 6 16.7129 6.41163 16.7129 7.2349C16.7129 7.60179 16.5832 7.90604 16.3237 8.14765C16.3237 8.42506 16.3595 8.61298 16.4311 8.71141C16.5742 8.91723 16.7756 9.02908 17.0351 9.04698C17.3035 9.02908 17.5183 8.91275 17.6794 8.69799C17.7152 8.6443 17.751 8.47427 17.7868 8.18792C17.5541 7.94631 17.4378 7.65101 17.4378 7.30201C17.4378 6.46085 17.8584 6.04027 18.6995 6.04027C19.5407 6.04027 19.9613 6.46085 19.9613 7.30201C19.9613 7.78524 19.7555 8.14765 19.3438 8.38926C19.308 8.56823 19.2991 8.71588 19.317 8.83222C20.8293 10.613 21.487 12.6801 21.2901 15.0336C21.2275 15.7047 21.138 16.3445 21.0217 16.953C20.9143 17.5615 20.6861 18.1924 20.3371 18.8456C20.1671 19.1767 19.9926 19.5123 19.8136 19.8524C19.6347 20.1924 19.4378 20.519 19.223 20.8322H19.223ZM15.572 25.2349C16.959 26.5503 18.5966 27.2081 20.4848 27.2081C21.4065 27.2081 22.3595 26.9172 23.3438 26.3356C24.3371 25.7539 25.1827 25.2036 25.8807 24.6846C25.9613 24.8456 25.9255 25.1096 25.7733 25.4765C25.6212 25.8345 25.4959 26.1387 25.3975 26.3893C25.5049 26.4161 25.6167 26.4564 25.7331 26.5101C26.2253 26.7517 26.6011 27.0559 26.8606 27.4228C27.1291 27.7808 27.2006 28.094 27.0754 28.3624C27.0038 28.5145 26.8919 28.6264 26.7398 28.698C26.7577 28.6085 26.7666 28.5369 26.7666 28.4832C26.7666 27.9195 26.4847 27.6376 25.921 27.6376C25.751 27.6376 25.6078 27.6779 25.4915 27.7584C23.9344 28.5996 22.2655 29.0201 20.4847 29.0201C19.6167 29.0201 18.7711 28.8725 17.9478 28.5772C17.1246 28.2819 16.3326 27.9195 15.572 27.4899C14.8293 27.9195 14.0373 28.2819 13.1961 28.5772C12.3639 28.8725 11.5183 29.0201 10.6592 29.0201C8.86058 29.0201 7.19167 28.5996 5.65252 27.7584C5.52724 27.6779 5.38407 27.6376 5.22299 27.6376C4.65924 27.6376 4.37735 27.9195 4.37735 28.4832C4.37735 28.528 4.37735 28.5682 4.37735 28.604C4.38631 28.6398 4.39079 28.6711 4.39079 28.698C4.22077 28.6085 4.11338 28.4966 4.06864 28.3624C3.93441 28.094 3.99705 27.7808 4.25656 27.4228C4.51607 27.0559 4.89638 26.7517 5.3975 26.5101C5.49593 26.4653 5.60779 26.4251 5.73307 26.3893C5.62569 26.1387 5.49593 25.8345 5.34381 25.4765C5.20063 25.1096 5.17378 24.8456 5.26327 24.6846C5.95231 25.2036 6.789 25.7539 7.77334 26.3356C8.75768 26.9172 9.71965 27.2081 10.6592 27.2081C11.5451 27.2081 12.4266 27.038 13.3035 26.698C14.1894 26.349 14.9456 25.8613 15.572 25.2349H15.572ZM15.572 11.6242H14.874V13.906H13.2767V15.2752H14.874V18.8322H16.2566V15.2752H17.8539V13.906H16.2566V11.6242H15.572Z" fill="black"/>
<path d="M18.6861 19.8926C17.7554 19.6868 16.7308 19.5839 15.6123 19.5839C14.449 19.5839 13.4109 19.6913 12.4982 19.906L12.5921 20.7114C13.5138 20.5056 14.5205 20.4027 15.6123 20.4027C16.7398 20.4027 17.7331 20.5056 18.5921 20.7114L18.6861 19.8926ZM12.9277 24.2013C12.9993 24.0224 13.2901 23.8702 13.8002 23.745C14.3102 23.6107 14.9143 23.5436 15.6123 23.5436C16.3013 23.5436 16.9009 23.6107 17.4109 23.745C17.921 23.8702 18.2118 24.0224 18.2834 24.2013L18.3371 23.3557C17.5944 22.9799 16.6727 22.7919 15.572 22.7919C15.0082 22.7919 14.4892 22.8456 14.0149 22.953C13.5407 23.0604 13.1514 23.1812 12.8472 23.3154L12.9277 24.2013ZM17.0888 21.5839L15.5988 20.9664L14.1089 21.5839L15.5988 22.2013L17.0888 21.5839ZM20.5653 15.7584C20.7979 15.1857 20.7756 14.1834 20.4982 12.7517C20.2208 11.311 19.5944 10.2595 18.619 9.59731C18.4311 9.43624 18.2834 9.3557 18.176 9.3557C17.9971 9.3557 17.827 9.44966 17.666 9.63758C17.5138 9.81655 17.5049 10.0179 17.6391 10.2416C18.7577 11.0201 19.5407 12.0045 19.9881 13.1946C20.4355 14.3758 20.6279 15.2304 20.5653 15.7584ZM15.478 6.69798C15.1111 6.69798 14.9277 6.87695 14.9277 7.2349C14.9277 7.60179 15.1111 7.78523 15.478 7.78523C15.8449 7.78523 16.0284 7.60179 16.0284 7.2349C16.0284 6.87695 15.8449 6.69798 15.478 6.69798ZM18.6995 6.72483C18.3147 6.72483 18.1223 6.91722 18.1223 7.30201C18.1223 7.6868 18.3147 7.87919 18.6995 7.87919C19.0843 7.87919 19.2767 7.6868 19.2767 7.30201C19.2767 6.91722 19.0843 6.72483 18.6995 6.72483ZM15.572 11.6242H14.874V13.906H13.2767V15.2752H14.874V18.8322H16.2566V15.2752H17.8539V13.906H16.2566V11.6242H15.572Z" fill="#EEEEEE"/>
</svg>
