<svg width="32" height="32" viewBox="0 0 32 32" fill="none" xmlns="http://www.w3.org/2000/svg">
<path d="M22.711 21.8523C22.9795 21.6107 23.1405 21.2841 23.1942 20.8725C23.23 20.6756 23.2032 20.4743 23.1137 20.2685C23.1047 20.2237 23.1003 20.1566 23.1003 20.0671C23.1003 19.6286 23.2524 19.2394 23.5567 18.8993C23.8609 18.5414 24.0667 18.1969 24.1741 17.8658C24.2009 17.8121 24.2278 17.7494 24.2546 17.6779C24.2815 17.5973 24.3128 17.5302 24.3486 17.4765C24.7781 16.7606 24.9526 15.9418 24.8721 15.0201C24.8094 14.3311 24.5097 13.6868 23.9728 13.0872C23.6059 12.7114 23.1316 12.3937 22.5499 12.1342C21.9772 11.8658 21.3464 11.7405 20.6573 11.7584C20.6036 11.7584 20.5589 11.7629 20.5231 11.7718C20.6573 11.8166 20.8094 11.8837 20.9795 11.9732C21.7401 12.5817 22.2546 13.2304 22.5231 13.9195C22.7915 14.5996 22.9392 15.2975 22.966 16.0134C23.0018 17.4183 22.6126 18.7696 21.7983 20.0671C21.664 20.2192 21.5835 20.4251 21.5566 20.6846C21.5119 21.1051 21.5119 21.387 21.5566 21.5302C21.9772 21.6286 22.362 21.736 22.711 21.8523H22.711ZM22.711 23.6107V22.6711C21.843 22.3848 20.7826 22.1566 19.5298 21.9866C18.286 21.8076 16.9795 21.7181 15.6103 21.7181C14.2323 21.7181 12.9168 21.8076 11.664 21.9866C10.4202 22.1566 9.36874 22.3848 8.50968 22.6711L8.49626 23.6107C9.36426 23.3333 10.4202 23.1096 11.664 22.9396C12.9168 22.7606 14.2323 22.6711 15.6104 22.6711C18.4739 22.6711 20.8408 22.9843 22.711 23.6107H22.711ZM15.6103 6H16.0667V7.57047H17.2077V8.4698H16.0667V10.4161H15.154V8.4698H14.013V7.57047H15.154V6H15.6103ZM15.6103 28.8725C13.5343 28.8725 11.7088 28.7383 10.1338 28.4698C8.55889 28.2013 7.57008 27.8568 7.1674 27.4362L7.57008 24.0134C7.67746 23.3333 7.68194 22.783 7.5835 22.3624C7.54771 22.2192 7.44927 21.8434 7.2882 21.2349C7.13607 20.6174 6.85867 20.1119 6.45598 19.7181C6.08015 19.3781 5.7759 19.1096 5.54323 18.9128C5.31952 18.7069 5.11818 18.4832 4.93921 18.2416C4.40229 17.5078 4.09357 16.5996 4.01303 15.5168C3.92355 14.3266 4.29491 13.2707 5.12713 12.349C5.5835 11.8479 6.16068 11.4676 6.85867 11.2081C7.5656 10.9485 8.29491 10.7964 9.04659 10.7517C9.49402 10.7248 9.85196 10.7204 10.1204 10.7383C10.3889 10.7562 10.7468 10.7875 11.1942 10.8322C11.7759 10.9038 12.362 11.0336 12.9526 11.2215C13.4269 10.7114 14.3128 10.4564 15.6103 10.4564C16.8989 10.4564 17.7848 10.7114 18.2681 11.2215C18.8587 11.0336 19.4448 10.9038 20.0265 10.8322C20.4649 10.7875 20.8184 10.7562 21.0869 10.7383C21.3553 10.7204 21.7177 10.7248 22.1741 10.7517C22.9079 10.7964 23.6282 10.9485 24.3352 11.2081C25.0421 11.4676 25.6238 11.8479 26.0801 12.349C26.9034 13.2707 27.2748 14.3266 27.1942 15.5168C27.1137 16.5996 26.8095 17.5078 26.2815 18.2416C26.0936 18.4832 25.8833 18.7069 25.6506 18.9128C25.4269 19.1096 25.1316 19.3781 24.7647 19.7181C24.3441 20.1119 24.0533 20.6174 23.8922 21.2349C23.7401 21.8434 23.6506 22.2192 23.6238 22.3624C23.5253 22.8188 23.5298 23.3691 23.6372 24.0134L24.0533 27.4362C23.6417 27.8568 22.6484 28.2013 21.0734 28.4698C19.4985 28.7383 17.6775 28.8725 15.6104 28.8725H15.6103ZM8.49625 25.8658L9.07344 25.9866L10.7647 24.7785L8.60364 24.3221L8.49625 25.8658ZM22.6708 25.8389L22.5768 24.2953L20.4023 24.7517L22.0936 25.9597L22.6708 25.8389ZM8.49625 21.8523C8.95263 21.7092 9.33294 21.6018 9.63719 21.5302C9.67299 21.387 9.67299 21.1051 9.63719 20.6846C9.6014 20.4251 9.52086 20.2192 9.39558 20.0671C8.57232 18.7696 8.18306 17.4183 8.2278 16.0134C8.2457 15.2975 8.38887 14.5996 8.65733 13.9195C8.92578 13.2304 9.4448 12.5817 10.2144 11.9732C10.3754 11.8837 10.5276 11.8166 10.6708 11.7718C10.635 11.7629 10.5902 11.7584 10.5365 11.7584C9.83854 11.7405 9.19872 11.8658 8.61706 12.1342C8.04435 12.3937 7.57903 12.7114 7.22109 13.0873C6.67523 13.6868 6.37545 14.3311 6.32176 15.0201C6.23227 15.9418 6.40677 16.7606 6.84525 17.4765C6.87209 17.5302 6.89446 17.5973 6.91236 17.6779C6.93921 17.7494 6.975 17.8121 7.01974 17.8658C7.11818 18.1969 7.32399 18.5414 7.63719 18.8993C7.94144 19.2394 8.09357 19.6286 8.09357 20.0671C8.09357 20.1029 8.0891 20.1387 8.08015 20.1745C8.08015 20.2103 8.08015 20.2416 8.08015 20.2685C7.99066 20.4564 7.95934 20.6577 7.98619 20.8725C8.03988 21.2931 8.2099 21.6197 8.49626 21.8524L8.49625 21.8523ZM17.5701 24.2282L15.6103 23.3691L13.664 24.2282L15.6103 25.1007L17.5701 24.2282ZM21.6103 27.3826C22.1473 27.2662 22.5902 27.132 22.9392 26.9799C21.2121 26.2819 18.7871 25.9329 15.664 25.9329C12.4247 25.9329 9.97276 26.2908 8.30833 27.0067C8.69312 27.1588 9.1495 27.2886 9.67746 27.396C11.324 26.9754 13.3195 26.7651 15.664 26.7651C17.9459 26.7651 19.928 26.9709 21.6103 27.3826ZM12.9258 13.2886C12.362 13.1007 11.9325 12.8546 11.6372 12.5503C10.626 13.4631 10.107 14.6219 10.0801 16.0268C10.0354 17.2081 10.3799 18.434 11.1137 19.7047C11.2837 20.0358 11.3687 20.3579 11.3687 20.6711C11.3687 20.8591 11.3553 21.038 11.3285 21.2081C12.0444 21.1007 12.72 21.0291 13.3553 20.9933C13.3822 20.8949 13.3911 20.7919 13.3822 20.6846C13.3822 20.5503 13.3374 20.4116 13.2479 20.2685C13.0063 19.9553 12.8766 19.6152 12.8587 19.2483C12.7513 18.6398 12.6886 18.0582 12.6708 17.5034C12.5992 16.0537 12.6842 14.6488 12.9258 13.2886ZM16.6036 13.651C16.3799 13.6779 16.0488 13.6913 15.6103 13.6913C15.2345 13.6913 14.9034 13.6734 14.6171 13.6376C14.4112 14.8546 14.3397 16.1298 14.4023 17.4631C14.4202 18.0179 14.4828 18.5996 14.5902 19.2081C14.6171 19.4228 14.6976 19.6063 14.8318 19.7584C15.0108 20.0626 15.1092 20.3624 15.1271 20.6577C15.1271 20.7025 15.1271 20.7472 15.1271 20.7919C15.1271 20.8367 15.1271 20.8725 15.1271 20.8993C15.2077 20.8993 15.2882 20.8993 15.3687 20.8993C15.4493 20.8993 15.5298 20.8993 15.6103 20.8993C15.6909 20.8993 15.7714 20.8993 15.852 20.8993C15.9325 20.8993 16.013 20.8993 16.0936 20.8993C16.0936 20.8725 16.0936 20.8367 16.0936 20.7919C16.0936 20.7472 16.0936 20.7025 16.0936 20.6577C16.1025 20.3624 16.201 20.0626 16.3889 19.7584C16.5142 19.6063 16.5947 19.4228 16.6305 19.2081C16.711 18.6801 16.7692 18.0984 16.805 17.4631C16.8676 16.1477 16.8005 14.877 16.6036 13.651ZM19.5701 12.5772C19.2837 12.8546 18.8497 13.1007 18.2681 13.3154C18.5007 14.6667 18.5857 16.0626 18.5231 17.5034C18.4963 18.0582 18.4336 18.6398 18.3352 19.2483C18.2904 19.6331 18.1607 19.9732 17.9459 20.2685C17.8564 20.4116 17.8117 20.5503 17.8117 20.6846C17.7938 20.783 17.8027 20.8814 17.8385 20.9799C18.1965 21.0067 18.5499 21.038 18.8989 21.0738C19.2479 21.1007 19.5835 21.1409 19.9057 21.1946C19.852 20.962 19.8251 20.7875 19.8251 20.6711C19.8251 20.3579 19.9101 20.0358 20.0801 19.7047C20.805 18.434 21.1495 17.2081 21.1137 16.0268C21.0779 14.6309 20.5634 13.481 19.5701 12.5772Z" fill="black"/>
<path d="M22.711 23.6108V22.6712C21.843 22.3848 20.7826 22.1566 19.5298 21.9866C18.286 21.8077 16.9795 21.7182 15.6104 21.7182C14.2323 21.7182 12.9169 21.8077 11.6641 21.9866C10.4202 22.1566 9.36875 22.3848 8.50969 22.6712L8.49627 23.6108C9.36428 23.3334 10.4202 23.1097 11.6641 22.9396C12.9169 22.7607 14.2323 22.6712 15.6104 22.6712C18.4739 22.6712 20.8408 22.9844 22.711 23.6108ZM8.49627 25.8658L9.07345 25.9866L10.7647 24.7786L8.60365 24.3222L8.49627 25.8658ZM22.6708 25.839L22.5768 24.2954L20.4023 24.7517L22.0936 25.9598L22.6708 25.839ZM17.5701 24.2282L15.6104 23.3692L13.6641 24.2282L15.6104 25.1007L17.5701 24.2282ZM21.6104 27.3826C22.1473 27.2663 22.5902 27.132 22.9392 26.9799C21.2122 26.2819 18.7871 25.9329 15.6641 25.9329C12.4247 25.9329 9.97278 26.2909 8.30835 27.0068C8.69314 27.1589 9.14951 27.2886 9.67748 27.396C11.324 26.9754 13.3195 26.7652 15.6641 26.7652C17.9459 26.7652 19.928 26.971 21.6104 27.3826Z" fill="#EEEEEE"/>
</svg>
