<svg width="180" height="180" viewBox="0 0 180 180" fill="none" xmlns="http://www.w3.org/2000/svg">
<path d="M83.3974 50.625C82.9445 50.625 82.4411 51.3548 81.8871 52.8146C81.3842 54.224 81.1322 55.5579 81.1322 56.8164C81.0821 58.1248 81.4089 58.7289 82.1137 58.6283C82.8686 58.4775 83.5987 58.4021 84.3036 58.4021C84.9077 58.4021 85.6626 58.3262 86.5687 58.1754C87.525 57.9741 87.7011 57.3446 87.0969 56.2877C86.4928 55.2307 85.8386 54.0227 85.1338 52.6636C84.429 51.3046 83.8502 50.625 83.3974 50.625ZM69.5801 55.0042C68.3724 55.1049 67.8437 56.6904 67.9944 59.7611C67.9944 60.8681 68.3218 61.2456 68.976 60.8934C69.6307 60.5413 70.2849 60.3647 70.9391 60.3647C71.5432 60.3647 72.2981 60.3647 73.2043 60.3647C74.1105 60.3146 74.2365 59.8618 73.5817 59.0057C72.8269 58.1501 72.0973 57.2692 71.3925 56.3631C70.7377 55.4572 70.1342 55.0042 69.5801 55.0042ZM137.684 158.368C137.382 141.657 136.25 127.387 134.287 115.558C132.324 103.679 129.152 93.1331 124.773 83.9222C121.35 76.8246 117.298 71.4639 112.617 67.8398C107.986 64.1655 102.953 61.6736 97.5167 60.3647C94.0939 60.1132 92.3569 60.7427 92.3068 62.2524C92.1054 63.8634 93.6157 64.7944 96.8372 65.0464C101.82 66.6067 106.325 69.2741 110.352 73.0496C114.379 76.7745 117.953 82.1098 121.074 89.0561C124.899 97.8649 127.592 107.831 129.152 118.956C130.763 130.029 131.518 143.167 131.417 158.368H137.684ZM48.5903 111.028C49.3454 110.172 49.3956 109.165 48.7412 108.007C45.7714 108.209 43.5315 109.14 42.0214 110.801C40.9644 112.06 40.6875 113.519 41.1909 115.18C41.4426 116.439 42.1724 117.093 43.3805 117.143C44.4375 117.143 45.2429 115.608 45.7966 112.538C46.7026 112.236 47.6338 111.732 48.5902 111.028H48.5903ZM89.5888 109.82C92.2562 110.977 95.1761 111.556 98.3469 111.556C99.4039 111.556 100.461 111.481 101.518 111.329C102.877 111.329 103.557 110.625 103.557 109.216C103.557 107.857 102.852 107.126 101.443 107.026C100.385 107.177 99.3791 107.252 98.4223 107.252C96.6105 107.252 95.0754 107.051 93.8165 106.648C93.9172 106.648 94.0179 106.624 94.1186 106.573C94.2699 106.523 94.4207 106.472 94.572 106.422C98.1455 105.466 101.242 103.754 103.859 101.288C104.01 100.533 104.086 100.105 104.086 100.004C104.086 98.595 103.456 97.8902 102.198 97.8902C102.248 97.8902 101.896 97.9656 101.141 98.1169C99.3285 99.8786 97.0132 101.212 94.1946 102.118C96.1577 99.4005 97.4407 96.2792 98.0449 92.7557C98.3976 90.5918 98.4476 88.4773 98.1962 86.4135C98.0955 84.501 97.3907 83.5447 96.0817 83.5447C94.7227 83.5447 94.0432 84.4757 94.0432 86.3381C94.194 88.5026 94.1186 90.3651 93.8165 91.9254C93.0617 96.3045 91.1492 99.7526 88.0785 102.269C87.2229 103.226 86.7949 104.333 86.7949 105.591C86.7949 107.655 87.7264 109.065 89.5888 109.82ZM72.8269 105.516C73.3303 105.969 73.9091 106.195 74.5633 106.195C76.1743 106.195 76.9798 105.415 76.9798 103.855C76.9798 103.251 76.7278 102.697 76.2244 102.194C75.3688 101.338 74.6893 100.306 74.1859 99.0984C74.9914 98.5444 76.0989 98.1169 77.508 97.8148C78.1627 97.3114 78.4642 96.7073 78.4142 96.0024C78.3135 94.7441 77.3825 94.266 75.6202 94.5681C71.4425 95.5749 68.0197 97.1353 65.3518 99.2492C64.1942 100.155 63.1625 101.238 62.2564 102.496C61.5015 103.553 61.124 104.358 61.124 104.912C61.2748 106.523 61.8283 107.278 62.7851 107.177C63.8421 107.126 64.5469 106.573 64.899 105.516C65.9059 104.157 67.0635 102.999 68.3724 102.043C68.8252 101.59 69.3287 101.262 69.8822 101.061C70.587 102.521 71.5685 104.006 72.8269 105.516ZM63.3892 77.1266C62.181 77.7308 61.6275 78.6116 61.7276 79.7693C61.7782 81.531 62.8858 82.3618 65.0503 82.2611C65.2511 82.2105 65.9059 81.8584 67.0129 81.2036C67.9697 82.2105 69.1526 82.6639 70.5617 82.5632C73.3804 82.3112 74.664 80.8262 74.4125 78.1082C74.3119 77.202 73.8838 76.2458 73.1289 75.2389C73.8337 73.8799 74.2612 73.0749 74.4125 72.8229C74.3619 72.7222 74.3372 72.6216 74.3372 72.5209C74.3372 72.3701 74.3372 72.2188 74.3372 72.0681C74.2365 70.407 73.305 69.6521 71.5432 69.8029C70.3856 69.9036 69.6054 70.4571 69.2027 71.4639C67.6423 74.0312 65.7045 75.9184 63.3887 77.1266H63.3892ZM143.574 163.578H60.1425C60.6459 148.326 63.5147 137.429 68.7499 130.885C71.3166 127.664 73.9592 124.392 76.6777 121.07C79.3957 117.697 81.9877 113.62 84.4543 108.838C82.4912 109.09 80.9055 109.09 79.6978 108.838C78.9429 108.737 77.81 108.435 76.3003 107.932C74.0852 108.687 72.374 109.769 71.1658 111.179C70.0082 112.538 69.0519 113.897 68.2965 115.256C64.6723 121.346 61.929 125.776 60.0666 128.545C58.2547 131.313 56.2161 132.32 53.9511 131.565C51.837 130.91 50.3017 130.608 49.3454 130.659C48.3889 130.709 47.4578 130.432 46.5517 129.828C45.7967 129.325 45.7212 128.267 46.3252 126.657C46.8286 125.097 48.3135 123.888 50.7799 123.033C52.9443 122.278 54.1272 120.969 54.3285 119.107C54.5299 117.194 53.4225 116.741 51.0064 117.748C49.9494 118.2 48.3889 119.861 46.3252 122.731C45.1172 124.392 43.9594 125.524 42.852 126.128C40.6373 127.236 38.6994 126.481 37.0383 123.863C36.0316 122.353 35.2766 120.994 34.7732 119.786C34.2698 118.528 33.9426 116.841 33.7917 114.727C33.5903 112.16 34.1188 109.97 35.3772 108.159C36.6356 106.346 37.7934 105.013 38.8503 104.157C39.9577 103.301 40.9644 102.571 41.8705 101.967C42.7765 101.313 43.5316 100.684 44.1356 100.079C45.7464 98.3177 47.6591 95.9271 49.8739 92.907C51.7363 89.7862 52.9947 87.1183 53.649 84.9037C54.3537 82.6386 54.9829 80.1214 55.5366 77.3533C56.1406 73.9806 56.8204 70.9104 57.5752 68.1418C58.3301 65.3732 60.1172 62.1264 62.9359 58.4021C62.6844 57.2439 62.4577 55.7592 62.2564 53.9471C62.1056 52.4874 62.0297 51.4304 62.0297 50.776C62.0803 50.0713 62.1056 48.8885 62.1056 47.2273C62.1056 43.6032 63.0112 41.7911 64.8236 41.7911C65.8806 41.7911 66.6354 42.2945 67.0888 43.3012C67.5416 44.2576 68.7999 45.9438 70.8637 48.3599C72.7768 50.7257 74.5132 52.4874 76.0736 53.6451C76.4257 50.927 77.4326 47.8565 79.0937 44.4337C80.7047 41.0613 82.0131 39.375 83.0199 39.375C83.4227 39.375 84.0516 40.0797 84.9077 41.4891C85.8133 42.8985 86.6188 44.2827 87.3236 45.6418C88.0785 47.2022 88.6826 48.5361 89.1354 49.6434C89.6389 50.7508 90.369 52.0595 91.3252 53.5696L105.067 52.8146L106.275 57.2693L116.317 57.798L116.77 63.7627L126.812 66.0279L124.773 72.8983L136.477 79.3918L130.285 82.8647L140.478 91.0946L135.419 94.0393L144.555 103.704L138.364 106.648L147.727 116.464L139.723 116.841L147.575 128.016L140.78 129.526L148.557 142.437L141.158 142.059L146.82 152.555L141.158 155.499L147.046 160.86L143.574 163.578Z" fill="black"/>
<path d="M83.3979 50.625C82.9446 50.625 82.4417 51.3548 81.8876 52.8146C81.3842 54.224 81.1327 55.5579 81.1327 56.8164C81.0821 58.1248 81.4095 58.7289 82.1143 58.6283C82.8692 58.4775 83.5993 58.4021 84.3036 58.4021C84.9077 58.4021 85.6631 58.3262 86.5687 58.1754C87.5256 57.9741 87.7016 57.3446 87.0975 56.2877C86.4934 55.2307 85.8392 54.0227 85.1344 52.6636C84.4296 51.3046 83.8507 50.625 83.3979 50.625ZM69.5807 55.0042C68.3724 55.1049 67.8442 56.6904 67.995 59.7611C67.995 60.8681 68.3224 61.2456 68.9766 60.8934C69.6307 60.5413 70.2855 60.3647 70.9397 60.3647C71.5438 60.3647 72.2987 60.3647 73.2049 60.3647C74.1111 60.3146 74.2365 59.8618 73.5823 59.0057C72.8274 58.1501 72.0973 57.2692 71.3925 56.3631C70.7383 55.4572 70.1342 55.0042 69.5807 55.0042ZM137.685 158.368C137.383 141.657 136.25 127.387 134.287 115.558C132.324 103.679 129.153 93.1331 124.774 83.9222C121.351 76.8246 117.299 71.4639 112.618 67.8398C107.986 64.1655 102.953 61.6736 97.5167 60.3647C94.0939 60.1132 92.3574 60.7427 92.3074 62.2524C92.106 63.8634 93.6157 64.7944 96.8372 65.0464C101.82 66.6067 106.325 69.2741 110.352 73.0496C114.379 76.7745 117.953 82.1098 121.074 89.0561C124.9 97.8649 127.592 107.831 129.153 118.956C130.764 130.029 131.519 143.167 131.418 158.368H137.685ZM48.5908 111.028C49.3458 110.172 49.396 109.165 48.7416 108.007C45.7719 108.209 43.5319 109.14 42.0218 110.801C40.9648 112.06 40.688 113.519 41.1913 115.18C41.443 116.439 42.1729 117.093 43.3809 117.143C44.4379 117.143 45.2433 115.608 45.797 112.538C46.7031 112.236 47.6343 111.732 48.5908 111.028ZM89.5888 109.82C92.2567 110.977 95.1761 111.556 98.3475 111.556C99.4044 111.556 100.461 111.481 101.519 111.329C102.878 111.329 103.557 110.625 103.557 109.216C103.557 107.857 102.853 107.126 101.443 107.026C100.386 107.177 99.3791 107.252 98.4229 107.252C96.6111 107.252 95.0754 107.051 93.8171 106.648C93.9178 106.648 94.0185 106.624 94.1192 106.573C94.2705 106.523 94.4212 106.472 94.5726 106.422C98.1461 105.466 101.242 103.754 103.859 101.288C104.01 100.533 104.086 100.105 104.086 100.004C104.086 98.595 103.457 97.8902 102.198 97.8902C102.248 97.8902 101.896 97.9656 101.141 98.1169C99.3291 99.8786 97.0138 101.212 94.1946 102.118C96.1577 99.4005 97.4413 96.2792 98.0454 92.7557C98.3976 90.5918 98.4482 88.4773 98.1962 86.4135C98.0955 84.501 97.3912 83.5447 96.0823 83.5447C94.7233 83.5447 94.0438 84.4757 94.0438 86.3381C94.1946 88.5026 94.1192 90.3651 93.8171 91.9254C93.0622 96.3045 91.1492 99.7526 88.0791 102.269C87.2229 103.226 86.7954 104.333 86.7954 105.591C86.7954 107.655 87.7264 109.065 89.5888 109.82ZM72.8274 105.516C73.3309 105.969 73.9097 106.195 74.5639 106.195C76.1749 106.195 76.9798 105.415 76.9798 103.855C76.9798 103.251 76.7284 102.697 76.2249 102.194C75.3694 101.338 74.6899 100.306 74.1864 99.0984C74.9919 98.5444 76.0989 98.1169 77.5086 97.8148C78.1627 97.3114 78.4648 96.7073 78.4147 96.0024C78.3141 94.7441 77.3826 94.266 75.6208 94.5681C71.4431 95.5749 68.0203 97.1353 65.3524 99.2492C64.1947 100.155 63.1631 101.238 62.2569 102.496C61.5021 103.553 61.1241 104.358 61.1241 104.912C61.2754 106.523 61.8289 107.278 62.7851 107.177C63.8426 107.126 64.5469 106.573 64.8996 105.516C65.9064 104.157 67.0641 102.999 68.3724 102.043C68.8258 101.59 69.3292 101.262 69.8827 101.061C70.5876 102.521 71.5691 104.006 72.8274 105.516ZM63.3892 77.1266C62.1816 77.7308 61.6275 78.6116 61.7282 79.7693C61.7788 81.531 62.8858 82.3618 65.0503 82.2611C65.2517 82.2105 65.9064 81.8584 67.0134 81.2036C67.9697 82.2105 69.1526 82.6633 70.5622 82.5632C73.3809 82.3112 74.6646 80.8262 74.4131 78.1082C74.3124 77.202 73.8844 76.2458 73.1295 75.2389C73.8343 73.8799 74.2618 73.0749 74.4131 72.8229C74.3625 72.7222 74.3372 72.6216 74.3372 72.5209C74.3372 72.3701 74.3372 72.2188 74.3372 72.0681C74.2365 70.407 73.3056 69.6521 71.5438 69.8029C70.3862 69.9036 69.606 70.4571 69.2032 71.4639C67.6429 74.0312 65.7051 75.9184 63.3892 77.1266Z" fill="#DDDDDD"/>
</svg>
