<svg width="180" height="180" viewBox="0 0 180 180" fill="none" xmlns="http://www.w3.org/2000/svg">
<path d="M80.235 61.5718C77.175 59.202 75.645 55.9379 75.645 51.779C75.645 48.3939 76.77 45.4924 79.02 43.0745C81.27 40.6082 83.9925 39.375 87.1875 39.375C90.3375 39.375 93.0375 40.6082 95.2875 43.0745C97.5375 45.4924 98.6625 48.3939 98.6625 51.779C98.6625 55.8895 97.1325 59.1778 94.0725 61.6444L107.843 78.6904H98.73L98.6625 99.2914C102.758 101.613 106.087 104.925 108.652 109.229C111.217 113.533 112.5 118.297 112.5 123.519C112.5 128.258 111.465 132.61 109.395 136.576C107.325 140.493 104.603 143.685 101.228 146.151L110.205 163.125H64.17L73.1475 146.151C65.6325 140.783 61.875 133.239 61.875 123.519C61.875 118.297 63.135 113.533 65.655 109.229C68.22 104.877 71.55 101.564 75.645 99.2914L75.7125 78.6904H66.5325L80.235 61.5718Z" fill="black"/>
</svg>
