<svg width="32" height="32" viewBox="0 0 32 32" fill="none" xmlns="http://www.w3.org/2000/svg">
<path d="M14.264 10.9461C13.72 10.5248 13.448 9.94451 13.448 9.20516C13.448 8.60336 13.648 8.08753 14.048 7.65768C14.448 7.21923 14.932 7 15.5 7C16.06 7 16.54 7.21923 16.94 7.65768C17.34 8.08753 17.54 8.60336 17.54 9.20516C17.54 9.93591 17.268 10.5205 16.724 10.959L19.172 13.9894H17.552L17.54 17.6518C18.268 18.0645 18.86 18.6534 19.316 19.4185C19.772 20.1837 20 21.0305 20 21.959C20 22.8015 19.816 23.5752 19.448 24.2802C19.08 24.9766 18.596 25.544 17.996 25.9824L19.592 29H11.408L13.004 25.9824C11.668 25.0281 11 23.687 11 21.959C11 21.0305 11.224 20.1837 11.672 19.4185C12.128 18.6448 12.72 18.0559 13.448 17.6518L13.46 13.9894H11.828L14.264 10.9461Z" fill="black"/>
</svg>
