<svg width="32" height="32" viewBox="0 0 32 32" fill="none" xmlns="http://www.w3.org/2000/svg">
<path d="M17.4161 17.6913V13.2752H14.651V17.6913C13.8457 17.9866 13.1879 18.4877 12.6779 19.1946C12.1678 19.8926 11.9128 20.6846 11.9128 21.5705C11.9128 22.7069 12.3155 23.6779 13.1208 24.4832C13.9262 25.2886 14.8971 25.6913 16.0336 25.6913C17.1611 25.6913 18.1275 25.2886 18.9329 24.4832C19.7472 23.6779 20.1544 22.7069 20.1544 21.5705C20.1544 20.6846 19.8949 19.8881 19.3759 19.1812C18.8658 18.4743 18.2125 17.9776 17.4161 17.6913ZM18.0738 26.1745C17.3938 26.4608 16.7137 26.604 16.0336 26.604C15.3087 26.604 14.6287 26.4608 13.9933 26.1745L12.9732 27.9463H19.1342L18.0738 26.1745ZM14.651 10.1074C14.0425 9.6689 13.7383 9.06488 13.7383 8.2953C13.7383 7.6689 13.962 7.13199 14.4094 6.68456C14.8568 6.22819 15.3982 6 16.0336 6C16.66 6 17.1969 6.22819 17.6443 6.68456C18.0917 7.13199 18.3155 7.6689 18.3155 8.2953C18.3155 9.05593 18.0112 9.66443 17.4027 10.1208L20.141 13.2752H18.3289L18.3155 17.0872C19.1298 17.5168 19.792 18.1298 20.302 18.9262C20.8121 19.7226 21.0671 20.604 21.0671 21.5705C21.0671 22.4474 20.8613 23.2528 20.4497 23.9866C20.038 24.7114 19.4967 25.302 18.8255 25.7584L20.6107 28.8993H11.4564L13.2416 25.7584C11.7472 24.7651 11 23.3691 11 21.5705C11 20.604 11.2506 19.7226 11.7517 18.9262C12.2617 18.1208 12.9239 17.5078 13.7383 17.0872L13.7517 13.2752H11.9262L14.651 10.1074ZM16.6779 10.4698C16.4721 10.5503 16.2573 10.5906 16.0336 10.5906C15.8188 10.5906 15.5996 10.5548 15.3759 10.4832L13.7383 12.3758H18.3155L16.6779 10.4698ZM16.0336 6.91275C15.1119 6.91275 14.651 7.3736 14.651 8.2953C14.651 9.217 15.1119 9.67785 16.0336 9.67785C16.9553 9.67785 17.4161 9.217 17.4161 8.2953C17.4161 7.3736 16.9553 6.91275 16.0336 6.91275Z" fill="black"/>
<path d="M17.4162 17.6913V13.2752H14.6511V17.6913C13.8457 17.9866 13.188 18.4877 12.6779 19.1946C12.1678 19.8926 11.9128 20.6846 11.9128 21.5705C11.9128 22.7069 12.3155 23.6779 13.1209 24.4832C13.9262 25.2886 14.8972 25.6913 16.0336 25.6913C17.1611 25.6913 18.1276 25.2886 18.9329 24.4832C19.7473 23.6779 20.1544 22.7069 20.1544 21.5705C20.1544 20.6846 19.8949 19.8881 19.3759 19.1812C18.8658 18.4743 18.2126 17.9776 17.4162 17.6913ZM18.0739 26.1745C17.3938 26.4609 16.7137 26.604 16.0336 26.604C15.3088 26.604 14.6287 26.4609 13.9933 26.1745L12.9732 27.9463H19.1343L18.0739 26.1745ZM16.6779 10.4698C16.4721 10.5503 16.2573 10.5906 16.0336 10.5906C15.8189 10.5906 15.5996 10.5548 15.3759 10.4832L13.7383 12.3758H18.3155L16.6779 10.4698ZM16.0336 6.91275C15.1119 6.91275 14.6511 7.3736 14.6511 8.2953C14.6511 9.217 15.1119 9.67785 16.0336 9.67785C16.9553 9.67785 17.4162 9.217 17.4162 8.2953C17.4162 7.3736 16.9553 6.91275 16.0336 6.91275Z" fill="white"/>
</svg>
