<svg width="32" height="32" viewBox="0 0 32 32" fill="none" xmlns="http://www.w3.org/2000/svg">
<path d="M23.1141 24.2819C23.1051 24.094 23.1186 23.8121 23.1544 23.4363L22.1208 23.6376L22.9128 24.3222L23.1141 24.2819ZM9.5302 24.3087L9.69128 24.3624L10.4832 23.6778L9.46309 23.4899C9.48993 23.6778 9.5123 23.9508 9.5302 24.3087ZM23.4899 27.047C21.8524 26.3669 19.4765 26.0268 16.3624 26.0268C13.1857 26.0268 10.783 26.3758 9.15436 27.0738C10.7204 27.6913 13.1096 28 16.3221 28C17.8613 28 19.2662 27.915 20.5369 27.745C21.8166 27.5749 22.8009 27.3423 23.4899 27.047ZM23.5302 21.302C23.5302 21.1946 23.5302 21.0828 23.5302 20.9664C23.5302 20.8501 23.5302 20.7248 23.5302 20.5906C23.5302 19.6242 23.6197 18.5861 23.7987 17.4765C23.4139 18.1834 22.8501 18.5369 22.1074 18.5369C21.5973 18.5369 21.1633 18.3579 20.8054 18C20.4474 17.6331 20.2685 17.1946 20.2685 16.6846C20.2685 16.6488 20.2774 16.604 20.2953 16.5503C20.4295 16.0134 20.434 15.7226 20.3087 15.6779C20.2192 15.651 20.1297 15.8031 20.0403 16.1342C19.7718 17.0022 19.1857 17.4362 18.2819 17.4362C17.7718 17.4362 17.3378 17.2573 16.9799 16.8993C16.6219 16.5324 16.4474 16.094 16.4564 15.5839C16.4385 15.2438 16.3893 15.0738 16.3087 15.0738C16.2103 15.0738 16.1566 15.2438 16.1476 15.5839C16.1476 16.094 15.9687 16.5324 15.6107 16.8993C15.2617 17.2573 14.8322 17.4362 14.3221 17.4362C13.4183 17.4362 12.8367 17.0022 12.5772 16.1342C12.4787 15.821 12.3893 15.6689 12.3087 15.6779C12.1745 15.7136 12.1745 15.9911 12.3087 16.5101C12.3087 16.5369 12.3087 16.5682 12.3087 16.604C12.3177 16.6309 12.3221 16.6577 12.3221 16.6846C12.3221 17.1946 12.1387 17.6331 11.7718 18C11.4139 18.3579 10.9843 18.5369 10.4832 18.5369C9.73154 18.5369 9.16779 18.1834 8.79195 17.4765C8.97092 18.5951 9.0604 19.6331 9.0604 20.5906C9.0604 20.9038 9.05592 21.1365 9.04697 21.2886C10.8367 20.8143 13.2573 20.5772 16.3087 20.5772C19.3423 20.5772 21.7494 20.8188 23.5302 21.302H23.5302ZM26.6309 13.8389C26.0671 13.8389 25.5884 13.6421 25.1946 13.2483C24.8098 12.8546 24.6175 12.3803 24.6175 11.8255C24.6175 11.2707 24.8098 10.7964 25.1946 10.4027C25.5884 10 26.0671 9.79866 26.6309 9.79866C27.1857 9.79866 27.66 10 28.0537 10.4027C28.4474 10.7964 28.6443 11.2707 28.6443 11.8255C28.6443 12.3803 28.4474 12.8546 28.0537 13.2483C27.66 13.6421 27.1857 13.8389 26.6309 13.8389ZM26.6309 12.8054C27.2841 12.8054 27.6107 12.4787 27.6107 11.8255C27.6107 11.1723 27.2841 10.8456 26.6309 10.8456C25.9776 10.8456 25.651 11.1723 25.651 11.8255C25.651 12.4787 25.9776 12.8054 26.6309 12.8054ZM6.01342 12.8054C6.66667 12.8054 6.99329 12.4787 6.99329 11.8255C6.99329 11.1723 6.66667 10.8456 6.01342 10.8456C5.36018 10.8456 5.03356 11.1723 5.03356 11.8255C5.03356 12.4787 5.36018 12.8054 6.01342 12.8054ZM6.01342 13.8389C5.44967 13.8389 4.97092 13.6421 4.57718 13.2483C4.19239 12.8546 4 12.3803 4 11.8255C4 11.2707 4.19239 10.7964 4.57718 10.4027C4.97092 10.0089 5.44967 9.81208 6.01342 9.81208C6.55929 9.81208 7.02908 10.0089 7.42282 10.4027C7.8255 10.7964 8.02685 11.2707 8.02685 11.8255C8.02685 12.3803 7.8255 12.8546 7.42282 13.2483C7.02908 13.6421 6.55929 13.8389 6.01342 13.8389ZM21.6779 11.5302C21.1141 11.5302 20.6353 11.3378 20.2416 10.953C19.8568 10.5593 19.6644 10.0805 19.6644 9.51678C19.6644 8.97092 19.8568 8.50112 20.2416 8.10738C20.6353 7.7047 21.1141 7.50336 21.6779 7.50336C22.2327 7.50336 22.7069 7.7047 23.1007 8.10738C23.4944 8.50112 23.6913 8.97092 23.6913 9.51678C23.6913 10.0805 23.4944 10.5593 23.1007 10.953C22.7069 11.3378 22.2327 11.5302 21.6779 11.5302ZM21.6779 10.4966C22.3311 10.4966 22.6577 10.17 22.6577 9.51678C22.6577 8.86354 22.3311 8.53691 21.6779 8.53691C21.0246 8.53691 20.698 8.86354 20.698 9.51678C20.698 10.17 21.0246 10.4966 21.6779 10.4966ZM10.9396 10.4966C11.5928 10.4966 11.9195 10.17 11.9195 9.51678C11.9195 8.86354 11.5928 8.53691 10.9396 8.53691C10.2864 8.53691 9.95973 8.86354 9.95973 9.51678C9.95973 10.17 10.2864 10.4966 10.9396 10.4966ZM10.9396 11.5302C10.3848 11.5302 9.91051 11.3378 9.51678 10.953C9.12304 10.5593 8.92617 10.0805 8.92617 9.51678C8.92617 8.97092 9.12304 8.50112 9.51678 8.10738C9.91051 7.7047 10.3848 7.50336 10.9396 7.50336C11.4944 7.50336 11.9687 7.7047 12.3624 8.10738C12.7562 8.50112 12.953 8.97092 12.953 9.51678C12.953 10.0805 12.7562 10.5593 12.3624 10.953C11.9687 11.3378 11.4944 11.5302 10.9396 11.5302ZM16.3087 8.99329C16.962 8.99329 17.2886 8.66667 17.2886 8.01342C17.2886 7.36018 16.962 7.03356 16.3087 7.03356C15.6555 7.03356 15.3289 7.36018 15.3289 8.01342C15.3289 8.66667 15.6555 8.99329 16.3087 8.99329ZM16.3087 10.0268C15.745 10.0268 15.2662 9.83445 14.8725 9.44966C14.4877 9.05593 14.2953 8.57718 14.2953 8.01342C14.2953 7.46756 14.4877 6.99776 14.8725 6.60403C15.2662 6.20134 15.745 6 16.3087 6C16.8635 6 17.3378 6.20134 17.7315 6.60403C18.1253 6.99776 18.3221 7.46756 18.3221 8.01342C18.3221 8.57718 18.1253 9.05593 17.7315 9.44966C17.3378 9.83445 16.8635 10.0268 16.3087 10.0268ZM6.65772 13.7987L7.42282 13.4094L9.74497 17.302C9.95973 17.5168 10.2058 17.6242 10.4832 17.6242C11.1007 17.6242 11.4094 17.311 11.4094 16.6846C11.4094 16.604 11.4049 16.5459 11.396 16.5101L10.8725 11.6376L11.7986 11.4765L13.5168 16.0805C13.7226 16.3758 13.991 16.5235 14.3221 16.5235C14.8859 16.5235 15.1946 16.2506 15.2483 15.7047L15.8523 10.0537H16.7651L17.3557 15.7047C17.4183 16.2506 17.7271 16.5235 18.2819 16.5235C18.613 16.5235 18.8769 16.3758 19.0738 16.0805L20.8188 11.4765L21.7181 11.6644L21.1812 16.4966C21.1812 16.5324 21.1767 16.5682 21.1678 16.604C21.1678 16.6309 21.1678 16.6577 21.1678 16.6846C21.1678 17.311 21.481 17.6242 22.1074 17.6242C22.3758 17.6242 22.6264 17.5168 22.859 17.302L25.208 13.396L26.0537 13.7852C25.0246 15.9418 24.51 18.2282 24.51 20.6443C24.51 20.7785 24.51 20.9262 24.51 21.0872C24.51 21.2483 24.4966 21.4541 24.4698 21.7047C24.1566 22.7248 24 23.6555 24 24.4966C24 25.5436 24.1968 26.5682 24.5906 27.5705C24.1432 27.9463 23.1543 28.2595 21.6241 28.5101C20.0939 28.7606 18.3311 28.8859 16.3356 28.8859C14.3042 28.8859 12.5145 28.7561 10.9664 28.4966C9.42728 28.2282 8.45636 27.8926 8.05367 27.4899C8.42951 26.5503 8.61743 25.5526 8.61743 24.4966C8.61743 23.6555 8.47426 22.7248 8.1879 21.7047C8.17895 21.4541 8.17447 21.2483 8.17447 21.0872C8.18342 20.9262 8.1879 20.7785 8.1879 20.6443C8.1879 18.255 7.67783 15.9732 6.6577 13.7987H6.65772ZM18.094 23.3423L16.3087 24.2148L14.5369 23.3423L16.3087 22.4698L18.094 23.3423ZM23.1141 24.6443L22.7114 24.698L21.2483 23.4094L23.2081 23.0604C23.2617 22.7561 23.3289 22.4474 23.4094 22.1342C21.6465 21.7047 19.2975 21.4899 16.3624 21.4899C13.3825 21.4899 11.0022 21.7181 9.22148 22.1745C9.24832 22.2998 9.31544 22.5861 9.42282 23.0336L11.4094 23.4094L9.94631 24.698L9.54362 24.6443C9.50783 25.1544 9.47651 25.5481 9.44966 25.8255C11.0962 25.3333 13.387 25.0872 16.3221 25.0872C19.1946 25.0872 21.481 25.3333 23.1812 25.8255C23.1186 25.3244 23.0962 24.9306 23.1141 24.6443ZM17.2349 23.3423L16.3087 22.8859L15.396 23.3423L16.3087 23.7987L17.2349 23.3423Z" fill="black"/>
<path d="M23.1141 24.2819C23.1051 24.094 23.1185 23.8121 23.1543 23.4362L22.1208 23.6376L22.9127 24.3221L23.1141 24.2819ZM9.53018 24.3087L9.69126 24.3624L10.4832 23.6778L9.46307 23.4899C9.48991 23.6778 9.51229 23.9508 9.53018 24.3087ZM23.4899 27.047C21.8523 26.3669 19.4765 26.0268 16.3624 26.0268C13.1857 26.0268 10.783 26.3758 9.15434 27.0738C10.7203 27.6913 13.1096 28 16.3221 28C17.8613 28 19.2662 27.915 20.5369 27.7449C21.8165 27.5749 22.8009 27.3423 23.4899 27.047ZM23.5302 21.302C23.5302 21.1946 23.5302 21.0828 23.5302 20.9664C23.5302 20.8501 23.5302 20.7248 23.5302 20.5906C23.5302 19.6241 23.6197 18.5861 23.7986 17.4765C23.4138 18.1834 22.8501 18.5369 22.1074 18.5369C21.5973 18.5369 21.1633 18.3579 20.8054 18C20.4474 17.6331 20.2684 17.1946 20.2684 16.6845C20.2684 16.6488 20.2774 16.604 20.2953 16.5503C20.4295 16.0134 20.434 15.7226 20.3087 15.6778C20.2192 15.651 20.1297 15.8031 20.0402 16.1342C19.7718 17.0022 19.1857 17.4362 18.2819 17.4362C17.7718 17.4362 17.3378 17.2573 16.9798 16.8993C16.6219 16.5324 16.4474 16.0939 16.4563 15.5839C16.4385 15.2438 16.3892 15.0738 16.3087 15.0738C16.2103 15.0738 16.1566 15.2438 16.1476 15.5839C16.1476 16.0939 15.9687 16.5324 15.6107 16.8993C15.2617 17.2573 14.8322 17.4362 14.3221 17.4362C13.4183 17.4362 12.8367 17.0022 12.5772 16.1342C12.4787 15.821 12.3892 15.6689 12.3087 15.6778C12.1745 15.7136 12.1745 15.991 12.3087 16.5101C12.3087 16.5369 12.3087 16.5682 12.3087 16.604C12.3177 16.6309 12.3221 16.6577 12.3221 16.6845C12.3221 17.1946 12.1387 17.6331 11.7718 18C11.4139 18.3579 10.9843 18.5369 10.4832 18.5369C9.73153 18.5369 9.16777 18.1834 8.79193 17.4765C8.9709 18.5951 9.06038 19.6331 9.06038 20.5906C9.06038 20.9038 9.05591 21.1364 9.04695 21.2886C10.8367 20.8143 13.2572 20.5772 16.3087 20.5772C19.3423 20.5772 21.7494 20.8188 23.5302 21.302ZM26.6309 12.8054C27.2841 12.8054 27.6107 12.4787 27.6107 11.8255C27.6107 11.1722 27.2841 10.8456 26.6309 10.8456C25.9776 10.8456 25.651 11.1722 25.651 11.8255C25.651 12.4787 25.9776 12.8054 26.6309 12.8054ZM6.0134 12.8054C6.66665 12.8054 6.99327 12.4787 6.99327 11.8255C6.99327 11.1722 6.66665 10.8456 6.0134 10.8456C5.36016 10.8456 5.03354 11.1722 5.03354 11.8255C5.03354 12.4787 5.36016 12.8054 6.0134 12.8054ZM21.6778 10.4966C22.3311 10.4966 22.6577 10.17 22.6577 9.51676C22.6577 8.86352 22.3311 8.53689 21.6778 8.53689C21.0246 8.53689 20.698 8.86352 20.698 9.51676C20.698 10.17 21.0246 10.4966 21.6778 10.4966ZM10.9396 10.4966C11.5928 10.4966 11.9194 10.17 11.9194 9.51676C11.9194 8.86352 11.5928 8.53689 10.9396 8.53689C10.2863 8.53689 9.95971 8.86352 9.95971 9.51676C9.95971 10.17 10.2863 10.4966 10.9396 10.4966ZM16.3087 8.99327C16.9619 8.99327 17.2886 8.66665 17.2886 8.0134C17.2886 7.36016 16.9619 7.03354 16.3087 7.03354C15.6555 7.03354 15.3288 7.36016 15.3288 8.0134C15.3288 8.66665 15.6555 8.99327 16.3087 8.99327ZM18.0939 23.3423L16.3087 24.2147L14.5369 23.3423L16.3087 22.4698L18.0939 23.3423ZM23.1141 24.6443L22.7114 24.698L21.2483 23.4094L23.208 23.0604C23.2617 22.7561 23.3288 22.4474 23.4094 22.1342C21.6465 21.7047 19.2975 21.4899 16.3624 21.4899C13.3825 21.4899 11.0022 21.7181 9.22146 22.1745C9.2483 22.2998 9.31542 22.5861 9.4228 23.0335L11.4094 23.4094L9.94629 24.698L9.54361 24.6443C9.50781 25.1543 9.47649 25.5481 9.44965 25.8255C11.0962 25.3333 13.387 25.0872 16.3221 25.0872C19.1946 25.0872 21.481 25.3333 23.1812 25.8255C23.1185 25.3244 23.0962 24.9306 23.1141 24.6443ZM17.2349 23.3423L16.3087 22.8859L15.396 23.3423L16.3087 23.7986L17.2349 23.3423Z" fill="white"/>
</svg>
