<svg width="181" height="180" viewBox="0 0 181 180" fill="none" xmlns="http://www.w3.org/2000/svg">
<path fill-rule="evenodd" clip-rule="evenodd" d="M81.2808 137.458L90.81 120.441L100.145 137.652L81.2808 137.458ZM81.004 42.0688L90.5336 59.0856L99.8684 41.874L81.004 42.0688Z" fill="#B85C38"/>
<path d="M79.8812 43.4152C79.2783 42.1241 78.9658 40.7164 78.9658 39.2914C78.9658 37.8664 79.2783 36.4588 79.8812 35.1676C80.4704 33.9 81.3232 32.7588 82.3764 31.8C83.43 30.8416 84.6844 30.0656 86.0776 29.5296C87.5243 28.976 89.0606 28.6939 90.6096 28.6972C92.2172 28.6972 93.7488 28.9936 95.1416 29.5296C96.5348 30.0656 97.7892 30.8416 98.8424 31.8C99.896 32.7588 100.749 33.9 101.338 35.168C101.941 36.4591 102.253 37.8667 102.253 39.2916C102.253 40.7165 101.941 42.1241 101.338 43.4152" fill="#B85C38"/>
<path d="M79.8812 43.4152C79.2783 42.1241 78.9658 40.7164 78.9658 39.2914C78.9658 37.8664 79.2783 36.4588 79.8812 35.1676C80.4704 33.9 81.3232 32.7588 82.3764 31.8C83.43 30.8416 84.6844 30.0656 86.0776 29.5296C87.5243 28.976 89.0606 28.6939 90.6096 28.6972C92.2172 28.6972 93.7488 28.9936 95.1416 29.5296C96.5348 30.0656 97.7892 30.8416 98.8424 31.8C99.896 32.7588 100.749 33.9 101.338 35.168C101.941 36.4591 102.253 37.8667 102.253 39.2916C102.253 40.7165 101.941 42.1241 101.338 43.4152" stroke="#2D2424" stroke-width="6.01"/>
<path d="M39.2792 91.064C39.2792 82.0128 33.6792 75.9624 27.8888 71.0568C25.058 68.6236 22.7672 65.7264 21.184 62.5088C19.6008 59.292 18.7252 55.7544 18.7252 52.0416C18.7252 48.3288 19.6012 44.7912 21.184 41.574C22.7672 38.3568 25.058 35.4596 27.8888 33.026C30.7196 30.5928 34.09 28.624 37.8328 27.2632C41.576 25.9024 45.6912 25.1496 50.0108 25.1496C54.3304 25.1496 58.4456 25.9024 62.1884 27.2632C65.9312 28.624 69.302 30.5928 72.1328 33.0264C74.9636 35.4596 77.2544 38.3568 78.8376 41.5744C80.4208 44.7912 85.9052 52.2104 90.728 62.256C96.0632 52.0728 100.779 44.7584 102.362 41.5408C103.946 38.3236 106.236 35.4264 109.067 32.9928C111.898 30.56 115.269 28.5908 119.011 27.23C122.754 25.8692 126.87 25.1168 131.189 25.1168C135.509 25.1168 139.624 25.8692 143.367 27.23C147.11 28.5908 150.48 30.56 153.311 32.9932C156.142 35.4264 158.433 38.3236 160.016 41.5412C161.599 44.7584 162.474 48.2956 162.474 52.0084C162.474 55.7216 161.599 59.2588 160.016 62.476C158.433 65.6932 156.142 68.5908 153.311 71.024C147.52 75.9296 142.349 82.4616 142.349 91.5124" fill="#B85C38"/>
<path d="M39.2792 91.064C39.2792 82.0128 33.6792 75.9624 27.8888 71.0568C25.058 68.6236 22.7672 65.7264 21.184 62.5088C19.6008 59.292 18.7252 55.7544 18.7252 52.0416C18.7252 48.3288 19.6012 44.7912 21.184 41.574C22.7672 38.3568 25.058 35.4596 27.8888 33.026C30.7196 30.5928 34.09 28.624 37.8328 27.2632C41.576 25.9024 45.6912 25.1496 50.0108 25.1496C54.3304 25.1496 58.4456 25.9024 62.1884 27.2632C65.9312 28.624 69.302 30.5928 72.1328 33.0264C74.9636 35.4596 77.2544 38.3568 78.8376 41.5744C80.4208 44.7912 85.9052 52.2104 90.728 62.256C96.0632 52.0728 100.779 44.7584 102.362 41.5408C103.946 38.3236 106.236 35.4264 109.067 32.9928C111.898 30.56 115.269 28.5908 119.011 27.23C122.754 25.8692 126.87 25.1168 131.189 25.1168C135.509 25.1168 139.624 25.8692 143.367 27.23C147.11 28.5908 150.48 30.56 153.311 32.9932C156.142 35.4264 158.433 38.3236 160.016 41.5412C161.599 44.7584 162.474 48.2956 162.474 52.0084C162.474 55.7216 161.599 59.2588 160.016 62.476C158.433 65.6932 156.142 68.5908 153.311 71.024C147.52 75.9296 142.349 82.4616 142.349 91.5124" stroke="#2D2424" stroke-width="6.01"/>
<path d="M47.064 76.0536C44.356 72.0764 42.048 68.1432 35.5532 63.7452C33.7732 62.264 32.3332 60.5 31.338 58.5416C30.3424 56.5832 29.792 54.4296 29.792 52.1696C29.792 49.9096 30.3424 47.756 31.338 45.7976C32.3332 43.8392 33.7732 42.0756 35.5532 40.594C37.3328 39.1132 39.452 37.914 41.8052 37.086C44.1584 36.2576 46.7452 35.7996 49.4612 35.7996C52.1772 35.7996 54.764 36.2576 57.1172 37.086C59.4704 37.914 61.5892 39.1132 63.3692 40.594C65.1492 42.0756 67.8376 45.514 68.9716 47.416C71.6932 51.3 76.0704 59.5312 76.0704 59.5312L82.8808 72.7556" fill="#2D2424"/>
<path d="M47.064 76.0536C44.356 72.0764 42.048 68.1432 35.5532 63.7452C33.7732 62.264 32.3332 60.5 31.338 58.5416C30.3424 56.5832 29.792 54.4296 29.792 52.1696C29.792 49.9096 30.3424 47.756 31.338 45.7976C32.3332 43.8392 33.7732 42.0756 35.5532 40.594C37.3328 39.1132 39.452 37.914 41.8052 37.086C44.1584 36.2576 46.7452 35.7996 49.4612 35.7996C52.1772 35.7996 54.764 36.2576 57.1172 37.086C59.4704 37.914 61.5892 39.1132 63.3692 40.594C65.1492 42.0756 67.8376 45.514 68.9716 47.416C71.6932 51.3 76.0704 59.5312 76.0704 59.5312L82.8808 72.7556" stroke="#2D2424" stroke-width="3.368"/>
<path d="M87.0156 39.476C87.0154 39.0285 87.1114 38.5863 87.2972 38.1792C87.4808 37.779 87.7418 37.4192 88.0652 37.1204C88.3972 36.8132 88.7839 36.571 89.2052 36.4064C89.6496 36.2323 90.1227 36.1433 90.6 36.144C91.0952 36.144 91.5668 36.2372 91.9956 36.406C92.4168 36.5707 92.8033 36.8129 93.1352 37.12C93.4586 37.4188 93.7196 37.7786 93.9032 38.1788C94.089 38.5859 94.185 39.0281 94.1848 39.4756C94.1848 41.5264 91.4028 44.8576 90.6 46.3996C89.7264 44.8712 87.0156 41.43 87.0156 39.4756V39.476Z" fill="#2D2424" stroke="#2D2424" stroke-width="1.89235"/>
<path d="M39.5208 82.4032C74.5828 72.914 108.658 72.7236 143.031 82.4048L143.288 93.0632H39.0668L39.5208 82.4032Z" fill="#2D2424"/>
<path d="M79.8812 136.584C79.2782 137.875 78.9657 139.283 78.9657 140.708C78.9657 142.133 79.2782 143.541 79.8812 144.832C80.4704 146.099 81.3232 147.241 82.3768 148.199C83.43 149.158 84.6848 149.934 86.0776 150.47C87.5243 151.023 89.0607 151.305 90.6096 151.302C92.2176 151.302 93.7488 151.006 95.1416 150.47C96.5348 149.934 97.7892 149.158 98.8428 148.199C99.896 147.241 100.749 146.099 101.338 144.832C101.941 143.541 102.254 142.133 102.254 140.708C102.254 139.283 101.941 137.875 101.338 136.584" fill="#B85C38"/>
<path d="M79.8812 136.584C79.2782 137.875 78.9657 139.283 78.9657 140.708C78.9657 142.133 79.2782 143.541 79.8812 144.832C80.4704 146.099 81.3232 147.241 82.3768 148.199C83.43 149.158 84.6848 149.934 86.0776 150.47C87.5243 151.023 89.0607 151.305 90.6096 151.302C92.2176 151.302 93.7488 151.006 95.1416 150.47C96.5348 149.934 97.7892 149.158 98.8428 148.199C99.896 147.241 100.749 146.099 101.338 144.832C101.941 143.541 102.254 142.133 102.254 140.708C102.254 139.283 101.941 137.875 101.338 136.584" stroke="#2D2424" stroke-width="6.01"/>
<path d="M39.2796 88.936C39.2796 97.9868 33.6796 104.037 27.8888 108.943C25.058 111.376 22.7672 114.274 21.184 117.491C19.6008 120.708 18.7256 124.245 18.7256 127.958C18.7256 131.671 19.6008 135.208 21.184 138.426C22.7672 141.643 25.058 144.54 27.8888 146.974C30.7196 149.407 34.0904 151.376 37.8332 152.737C41.576 154.098 45.6912 154.85 50.0108 154.85C54.3308 154.85 58.4456 154.098 62.1884 152.737C65.9316 151.376 69.302 149.407 72.1328 146.974C74.9636 144.54 77.2544 141.643 78.8376 138.426C80.4208 135.208 85.9052 127.79 90.728 117.744C96.0632 127.927 100.78 135.242 102.362 138.459C103.946 141.676 106.236 144.574 109.067 147.007C111.898 149.44 115.269 151.409 119.012 152.77C122.755 154.131 126.87 154.883 131.189 154.883C135.509 154.883 139.624 154.131 143.367 152.77C147.11 151.409 150.481 149.44 153.311 147.007C156.142 144.574 158.433 141.676 160.016 138.459C161.599 135.242 162.475 131.704 162.475 127.991C162.475 124.278 161.599 120.741 160.016 117.524C158.433 114.306 156.142 111.409 153.312 108.976C147.521 104.07 142.349 97.5384 142.349 88.4876" fill="#B85C38"/>
<path d="M39.2796 88.936C39.2796 97.9868 33.6796 104.037 27.8888 108.943C25.058 111.376 22.7672 114.274 21.184 117.491C19.6008 120.708 18.7256 124.245 18.7256 127.958C18.7256 131.671 19.6008 135.208 21.184 138.426C22.7672 141.643 25.058 144.54 27.8888 146.974C30.7196 149.407 34.0904 151.376 37.8332 152.737C41.576 154.098 45.6912 154.85 50.0108 154.85C54.3308 154.85 58.4456 154.098 62.1884 152.737C65.9316 151.376 69.302 149.407 72.1328 146.974C74.9636 144.54 77.2544 141.643 78.8376 138.426C80.4208 135.208 85.9052 127.79 90.728 117.744C96.0632 127.927 100.78 135.242 102.362 138.459C103.946 141.676 106.236 144.574 109.067 147.007C111.898 149.44 115.269 151.409 119.012 152.77C122.755 154.131 126.87 154.883 131.189 154.883C135.509 154.883 139.624 154.131 143.367 152.77C147.11 151.409 150.481 149.44 153.311 147.007C156.142 144.574 158.433 141.676 160.016 138.459C161.599 135.242 162.475 131.704 162.475 127.991C162.475 124.278 161.599 120.741 160.016 117.524C158.433 114.306 156.142 111.409 153.312 108.976C147.521 104.07 142.349 97.5384 142.349 88.4876" stroke="#2D2424" stroke-width="6.01"/>
<path d="M39.5212 97.3964C74.5828 106.886 108.658 107.076 143.031 97.3948L143.288 86.7368H39.0672L39.5212 97.3964Z" fill="#2D2424"/>
<path d="M90.6 100L84.6 90L90.6 80L96.6 90L90.6 100ZM69.4 98L64.6 90L69.4 82L74.2 90L69.4 98ZM51.4 96L47.8 90L51.4 84L55 90L51.4 96ZM111.8 98L116.6 90L111.8 82L107 90L111.8 98ZM129.8 96L133.4 90L129.8 84L126.2 90L129.8 96Z" fill="#B85C38"/>
<path d="M87.0152 140.524C87.015 140.971 87.1111 141.413 87.2968 141.82C87.4803 142.221 87.7414 142.581 88.0648 142.88C88.3968 143.187 88.7835 143.429 89.2048 143.594C89.6493 143.767 90.1226 143.856 90.6 143.855C91.0773 143.856 91.5506 143.767 91.9952 143.594C92.4163 143.429 92.8029 143.187 93.1348 142.88C93.4582 142.581 93.7192 142.221 93.9028 141.82C94.0886 141.413 94.1848 140.971 94.1848 140.524C94.1848 138.473 91.4028 135.142 90.6 133.6C89.7264 135.128 87.0152 138.57 87.0152 140.524Z" fill="#2D2424" stroke="#2D2424" stroke-width="1.89235"/>
<path d="M90.6 28.6V4.60001" stroke="#2D2424" stroke-width="6.01"/>
<path d="M81.6 14.754H99.6" stroke="#2D2424" stroke-width="6.36699"/>
<path d="M90.6 151.4V175.4" stroke="#2D2424" stroke-width="6.01"/>
<path d="M81.6 165.246H99.6" stroke="#2D2424" stroke-width="6.36699"/>
<path d="M47.064 103.346C44.356 107.324 42.048 111.256 35.5528 115.655C33.7732 117.136 32.3328 118.9 31.3376 120.858C30.3424 122.817 29.792 124.97 29.792 127.23C29.792 129.49 30.3424 131.644 31.3376 133.602C32.3332 135.561 33.7736 137.324 35.5528 138.806C37.3328 140.287 39.452 141.486 41.8048 142.314C44.158 143.142 46.7452 143.6 49.4608 143.6C52.1768 143.6 54.764 143.142 57.1168 142.314C59.4704 141.486 61.5896 140.287 63.3688 138.806C65.1488 137.324 67.8376 133.886 68.9716 131.984C71.6932 128.1 76.0704 119.869 76.0704 119.869L82.8808 106.644L47.064 103.346ZM134.138 76.0536C136.846 72.076 139.155 68.1432 145.65 63.7448C147.43 62.2636 148.87 60.5 149.865 58.5416C150.86 56.5828 151.411 54.4296 151.411 52.1696C151.411 49.9096 150.86 47.756 149.865 45.7976C148.87 43.8392 147.43 42.0752 145.65 40.594C143.87 39.1128 141.751 37.914 139.398 37.086C137.044 36.2576 134.458 35.7992 131.742 35.7992C129.026 35.7992 126.439 36.2576 124.086 37.086C121.732 37.914 119.614 39.1128 117.834 40.594C116.054 42.0752 113.365 45.514 112.231 47.416C109.51 51.2996 105.132 59.5308 105.132 59.5308L98.322 72.7556" fill="#2D2424"/>
<path d="M134.138 76.0536C136.846 72.076 139.155 68.1432 145.65 63.7448C147.43 62.2636 148.87 60.5 149.865 58.5416C150.86 56.5828 151.411 54.4296 151.411 52.1696C151.411 49.9096 150.86 47.756 149.865 45.7976C148.87 43.8392 147.43 42.0752 145.65 40.594C143.87 39.1128 141.751 37.914 139.398 37.086C137.044 36.2576 134.458 35.7992 131.742 35.7992C129.026 35.7992 126.439 36.2576 124.086 37.086C121.732 37.914 119.614 39.1128 117.834 40.594C116.054 42.0752 113.365 45.514 112.231 47.416C109.51 51.2996 105.132 59.5308 105.132 59.5308L98.322 72.7556M47.064 103.346C44.356 107.324 42.048 111.256 35.5528 115.655C33.7732 117.136 32.3328 118.9 31.3376 120.858C30.3424 122.817 29.792 124.97 29.792 127.23C29.792 129.49 30.3424 131.644 31.3376 133.602C32.3332 135.561 33.7736 137.324 35.5528 138.806C37.3328 140.287 39.452 141.486 41.8048 142.314C44.158 143.142 46.7452 143.6 49.4608 143.6C52.1768 143.6 54.764 143.142 57.1168 142.314C59.4704 141.486 61.5896 140.287 63.3688 138.806C65.1488 137.324 67.8376 133.886 68.9716 131.984C71.6932 128.1 76.0704 119.869 76.0704 119.869L82.8808 106.644L47.064 103.346Z" stroke="#2D2424" stroke-width="3.368"/>
<path d="M38.3528 80.0288C76.8276 70.328 115.601 70.0768 143.081 80.2732" stroke="#B85C38" stroke-width="6.01"/>
<path d="M134.138 103.346C136.846 107.324 139.155 111.256 145.65 115.655C147.43 117.136 148.87 118.9 149.865 120.858C150.86 122.817 151.411 124.97 151.411 127.23C151.411 129.49 150.86 131.644 149.865 133.602C148.87 135.561 147.43 137.324 145.65 138.806C143.87 140.287 141.751 141.486 139.398 142.314C137.044 143.142 134.458 143.6 131.742 143.6C129.026 143.6 126.439 143.142 124.086 142.314C121.732 141.486 119.614 140.287 117.834 138.806C116.054 137.324 113.365 133.886 112.231 131.984C109.51 128.1 105.132 119.869 105.132 119.869L98.322 106.644" fill="#2D2424"/>
<path d="M134.138 103.346C136.846 107.324 139.155 111.256 145.65 115.655C147.43 117.136 148.87 118.9 149.865 120.858C150.86 122.817 151.411 124.97 151.411 127.23C151.411 129.49 150.86 131.644 149.865 133.602C148.87 135.561 147.43 137.324 145.65 138.806C143.87 140.287 141.751 141.486 139.398 142.314C137.044 143.142 134.458 143.6 131.742 143.6C129.026 143.6 126.439 143.142 124.086 142.314C121.732 141.486 119.614 140.287 117.834 138.806C116.054 137.324 113.365 133.886 112.231 131.984C109.51 128.1 105.132 119.869 105.132 119.869L98.322 106.644" stroke="#2D2424" stroke-width="3.368"/>
<path d="M38.3528 99.9712C76.8276 109.672 115.601 109.923 143.081 99.7268" stroke="#B85C38" stroke-width="6.01"/>
<path d="M39.2796 91.064C39.2796 82.0128 33.6796 75.9624 27.8888 71.0568C25.058 68.6236 22.7672 65.7264 21.184 62.5088C19.6012 59.2916 18.7256 55.7544 18.7256 52.0416C18.7256 48.3284 19.6012 44.7912 21.184 41.574C22.7672 38.3568 25.058 35.4592 27.8888 33.026C30.7196 30.5928 34.0904 28.624 37.8332 27.2632C41.5764 25.9024 45.6912 25.1496 50.0108 25.1496C54.3308 25.1496 58.4456 25.9024 62.1888 27.2632C65.9316 28.624 69.3024 30.5928 72.1328 33.026C74.9636 35.4592 77.2544 38.3568 78.8376 41.574C80.4208 44.7912 85.9056 52.21 90.7284 62.256C96.0632 52.0728 100.78 44.7584 102.363 41.5408C103.946 38.3236 106.236 35.4264 109.067 32.9928C111.898 30.56 115.269 28.5908 119.012 27.23C122.755 25.8692 126.87 25.1168 131.19 25.1168C135.509 25.1168 139.624 25.8688 143.367 27.23C147.11 28.5908 150.481 30.56 153.311 32.9932C156.142 35.4264 158.433 38.3236 160.016 41.5412C161.599 44.7584 162.475 48.2956 162.475 52.0084C162.475 55.7216 161.599 59.2588 160.016 62.476C158.433 65.6932 156.142 68.5904 153.312 71.024C147.521 75.9296 142.349 82.4612 142.349 91.5124" stroke="#2D2424" stroke-width="6.01"/>
<path d="M39.28 88.936C39.28 97.9868 33.68 104.037 27.8888 108.943C25.0584 111.376 22.7672 114.274 21.1844 117.491C19.6012 120.708 18.7256 124.245 18.7256 127.958C18.7256 131.671 19.6012 135.208 21.1844 138.426C22.7676 141.643 25.0584 144.54 27.8888 146.974C30.7196 149.407 34.0904 151.376 37.8336 152.737C41.5764 154.098 45.6916 154.85 50.0112 154.85C54.3308 154.85 58.446 154.098 62.1888 152.737C65.9316 151.376 69.3024 149.407 72.1328 146.974C74.964 144.54 77.2548 141.643 78.838 138.426C80.4208 135.208 85.9056 127.79 90.7284 117.744C96.0632 127.927 100.78 135.242 102.363 138.459C103.946 141.676 106.237 144.574 109.068 147.007C111.898 149.44 115.269 151.409 119.012 152.77C122.755 154.131 126.87 154.883 131.19 154.883C135.509 154.883 139.624 154.131 143.367 152.77C147.11 151.409 150.481 149.44 153.312 147.007C156.142 144.574 158.433 141.676 160.016 138.459C161.6 135.242 162.475 131.704 162.475 127.991C162.475 124.278 161.6 120.741 160.016 117.524C158.433 114.306 156.142 111.409 153.312 108.976C147.521 104.07 142.349 97.5384 142.349 88.4876" stroke="#2D2424" stroke-width="6.01"/>
</svg>
