<svg width="181" height="181" viewBox="0 0 181 181" fill="none" xmlns="http://www.w3.org/2000/svg">
<path fill-rule="evenodd" clip-rule="evenodd" d="M56.9228 57.4572L40.4176 42.2328L40.6156 21.3H59.9768L60.3 30.5676L80.3 30.4404V20.7592L100.682 20.8864L100.427 30.5672L120.173 30.6944V21.5236L140.555 21.396L140.352 41.8092L124.812 57.3744L56.9228 57.4572Z" fill="#E0C097" stroke="#2D2424" stroke-width="0.400667"/>
<path d="M80.3 31.3V21.3H100.3V31.3" stroke="#2D2424" stroke-width="6.01" stroke-linecap="round"/>
<path d="M120.3 31.3V21.3H140.3V43.3H40.3V21.3H60.3V31.3" stroke="#2D2424" stroke-width="6.01" stroke-linecap="round"/>
<path d="M60.3 31.3H80.9252M99.6752 31.3H120.3H99.6752Z" stroke="#2D2424" stroke-width="6.01"/>
<path d="M60.3 61.3H120.3V121.3H60.3V61.3Z" fill="#E0C097" stroke="#2D2424" stroke-width="6.01" stroke-linecap="round"/>
<path d="M120.968 60.798L141.475 43.7952M39.168 43.7952L59.5548 60.7644L39.168 43.7952Z" stroke="#2D2424" stroke-width="6.01"/>
<path d="M56.3748 57.3752H124.225V69.2252H56.3748V57.3752Z" fill="#E0C097" stroke="#2D2424" stroke-width="6.01" stroke-linejoin="round"/>
<path fill-rule="evenodd" clip-rule="evenodd" d="M56.9228 124.143L40.4176 139.367L40.6156 160.3H59.9772L60.3 151.032L80.3 151.16V160.84L100.682 160.713L100.428 151.032L120.3 150.905V160.076L140.555 160.204L140.352 139.79L124.812 124.225L56.9228 124.143Z" fill="#E0C097" stroke="#2D2424" stroke-width="0.400667"/>
<path d="M80.3 150.3V160.3H100.3V150.3" stroke="#2D2424" stroke-width="6.01" stroke-linecap="round"/>
<path d="M120.3 150.3V160.3H140.3V138.3H40.3V160.3H60.3V150.3" stroke="#2D2424" stroke-width="6.01" stroke-linecap="round"/>
<path d="M60.3 150.3H80.9252M99.6752 150.3H120.3H99.6752Z" stroke="#2D2424" stroke-width="6.01"/>
<path d="M120.968 120.802L141.475 137.805M39.168 137.838L59.5548 120.836L39.168 137.838Z" stroke="#2D2424" stroke-width="6.01"/>
<path d="M56.3748 124.225H124.226V112.375H56.3748V124.225Z" fill="#E0C097" stroke="#2D2424" stroke-width="6.01" stroke-linejoin="round"/>
</svg>
