<svg width="180" height="180" viewBox="0 0 180 180" fill="none" xmlns="http://www.w3.org/2000/svg">
<path d="M90.9827 102.784C83.2781 102.784 76.5523 102.478 70.8047 101.867C68.9704 101.744 67.3808 101.561 66.0353 101.316C67.0134 103.151 67.5028 105.046 67.5028 107.003C67.5028 109.082 67.0747 110.977 66.2186 112.689C68.787 111.833 74.2286 111.161 82.5446 110.671C85.1124 110.549 87.9249 110.488 90.9827 110.488C103.089 110.488 111.344 111.221 115.746 112.689C114.768 110.977 114.279 109.082 114.279 107.003C114.279 105.168 114.768 103.273 115.746 101.316C108.653 102.295 100.399 102.784 90.9827 102.784ZM90.9827 19.688C89.0257 19.688 87.3135 20.4217 85.8465 21.8892C84.501 23.2343 83.8282 24.763 83.8282 26.475C83.8282 28.4317 84.501 30.0826 85.8465 31.4278C87.3135 32.6507 89.0257 33.2621 90.9827 33.2621C92.817 33.2621 94.4674 32.6507 95.9349 31.4278C97.4025 30.0826 98.1366 28.4317 98.1366 26.475C98.1366 24.6407 97.4025 23.0509 95.9349 21.7057C94.4674 20.3606 92.817 19.688 90.9827 19.688ZM90.9827 117.275C85.9686 117.275 78.4479 117.764 68.4202 118.743C65.4851 119.354 64.0176 120.822 64.0176 123.145C64.0176 125.102 68.1756 126.263 76.491 126.63C74.7793 126.508 79.6095 126.447 90.9827 126.447C108.836 126.447 117.764 125.346 117.764 123.145C117.764 120.332 114.951 118.559 109.326 117.825C108.348 117.703 104.496 117.581 97.7693 117.458C96.5464 117.458 94.8954 117.397 92.817 117.275H90.9827ZM90.7988 96.1802C107.798 96.1802 118.253 94.5906 122.166 91.4107C124.856 89.3317 126.752 84.0122 127.853 75.4521C127.241 67.8701 122.289 60.5329 112.994 53.4399C104.19 46.7139 96.7303 42.9841 90.6154 42.2504C84.7457 42.9841 77.4692 46.7139 68.787 53.4399C59.6149 60.5329 54.7236 67.8701 54.1121 75.4521C54.7236 79.9768 55.2739 83.0953 55.763 84.807C56.8637 88.3536 58.6367 90.8606 61.0824 92.3282C65.2404 94.896 75.1461 96.1802 90.7988 96.1802ZM86.7634 84.9904V74.718H79.0594V65.9132H86.7634V56.008H95.2014V65.9132H102.905V74.718H95.2014V84.9904H86.7634ZM90.6154 131.583C89.6372 131.583 87.6195 132.744 84.5623 135.068C82.4833 136.658 80.4043 138.187 78.3253 139.654C76.2463 141.122 74.2286 141.977 72.2723 142.222C67.7475 143.812 62.1219 144.912 55.3962 145.524C54.4179 145.524 51.9721 145.646 48.0588 145.891C42.1889 146.135 38.5202 146.38 37.0528 146.625C32.1612 147.725 29.7154 149.804 29.7154 152.861C30.3269 155.918 31.9166 157.447 34.4847 157.447C35.0961 157.447 36.8081 157.202 39.6208 156.713C43.1672 155.98 45.5519 155.613 46.7747 155.613C54.1122 155.613 62.4279 154.512 71.7216 152.311C81.5051 149.865 87.9249 145.768 90.9827 140.021C92.817 143.567 96.2409 146.563 101.254 149.009C107.125 151.822 114.401 153.717 123.083 154.695L129.136 155.429C131.215 155.552 133.172 155.613 135.007 155.613C136.352 155.613 138.797 155.98 142.344 156.713C145.034 157.202 146.685 157.447 147.297 157.447C149.987 157.447 151.638 155.918 152.25 152.861C152.25 149.804 149.804 147.725 144.912 146.625C143.322 146.38 139.654 146.135 133.906 145.891C131.093 145.769 126.569 145.402 120.332 144.79C117.152 144.423 113.606 143.567 109.693 142.222C107.736 141.855 105.779 141.06 103.823 139.838C102.6 139.226 100.582 137.82 97.7693 135.618C94.4674 132.928 92.0829 131.583 90.6154 131.583ZM90.9827 151.577C85.1124 157.692 76.0629 161.36 63.8342 162.583C58.0866 163.072 49.5263 164.173 38.1534 165.885C34.9738 166.619 33.2007 168.086 32.8338 170.287C28.7983 168.576 25.0684 164.723 21.6443 158.731C19.9322 155.918 18.3424 153.534 16.875 151.577C22.0111 141.916 28.3091 137.086 35.7687 137.086C37.2362 137.086 39.4374 137.208 42.3723 137.453C45.4295 137.697 47.692 137.82 49.1594 137.82C56.0076 137.82 63.3448 136.352 71.1714 133.417C60.4103 132.194 55.0293 128.954 55.0293 123.695C55.0293 122.105 55.763 119.231 57.2304 115.074C58.8201 110.793 59.6154 107.675 59.6154 105.718C50.4434 95.6908 45.8576 86.2133 45.8576 77.2864C45.8576 67.2587 50.8103 58.0871 60.7157 49.7712C69.3984 42.4338 75.8183 38.5817 79.9763 38.2148C76.6744 34.1793 75.0234 29.838 75.0234 25.191C75.0234 20.7885 76.6136 17.3033 79.7929 14.7353C82.6054 12.4117 86.3353 11.25 90.9827 11.25C95.5069 11.25 99.2368 12.534 102.172 15.1021C105.229 17.5479 106.758 20.9108 106.758 25.191C106.758 29.838 105.168 34.1793 101.989 38.2148C106.391 38.704 112.872 42.6173 121.432 49.9546C131.215 58.1479 136.107 67.2587 136.107 77.2864C136.107 86.0912 131.521 95.5687 122.349 105.718C122.349 107.675 123.083 110.793 124.551 115.074C126.141 119.231 126.935 122.105 126.935 123.695C126.935 128.954 121.494 132.194 110.61 133.417C118.437 136.352 125.774 137.82 132.622 137.82C134.212 137.82 136.474 137.697 139.409 137.453C142.344 137.208 144.606 137.086 146.196 137.086C153.656 137.086 159.954 141.916 165.09 151.577C162.766 155.123 160.504 158.67 158.303 162.217C155.735 166.007 152.678 168.698 149.131 170.287C148.642 167.72 145.707 165.946 140.326 164.968C139.103 164.723 135.312 164.296 128.953 163.684C109.876 161.972 97.2191 157.936 90.9827 151.577Z" fill="#20453E"/>
<path d="M90.9821 102.783C83.2781 102.783 76.5518 102.478 70.8041 101.866C68.9698 101.744 67.3802 101.56 66.0353 101.316C67.0135 103.151 67.5028 105.046 67.5028 107.003C67.5028 109.082 67.0748 110.977 66.2186 112.689C68.7864 111.833 74.2286 111.161 82.5441 110.671C85.1125 110.549 87.925 110.488 90.9821 110.488C103.089 110.488 111.344 111.221 115.746 112.689C114.767 110.977 114.278 109.082 114.278 107.003C114.278 105.168 114.767 103.273 115.746 101.316C108.653 102.295 100.398 102.783 90.9821 102.783ZM90.9821 19.688C89.0258 19.688 87.3135 20.4217 85.846 21.8891C84.501 23.2343 83.8283 24.7629 83.8283 26.475C83.8283 28.4316 84.501 30.0826 85.846 31.4277C87.3135 32.6506 89.0258 33.2621 90.9821 33.2621C92.8165 33.2621 94.4674 32.6506 95.9349 31.4277C97.4025 30.0826 98.136 28.4316 98.136 26.475C98.136 24.6406 97.4025 23.0509 95.9349 21.7057C94.4674 20.3605 92.8165 19.688 90.9821 19.688ZM90.9821 117.275C85.968 117.275 78.4474 117.764 68.4197 118.743C65.4846 119.354 64.017 120.822 64.017 123.145C64.017 125.102 68.175 126.263 76.491 126.63C74.7788 126.508 79.609 126.447 90.9821 126.447C108.836 126.447 117.763 125.346 117.763 123.145C117.763 120.332 114.951 118.559 109.326 117.825C108.347 117.703 104.495 117.58 97.7693 117.458C96.5464 117.458 94.8954 117.397 92.8164 117.275H90.9821ZM90.7988 96.1802C107.797 96.1802 118.253 94.59 122.166 91.4107C124.856 89.3317 126.752 84.0122 127.852 75.4521C127.241 67.8701 122.288 60.5329 112.994 53.4398C104.19 46.7139 96.7298 42.9841 90.6154 42.2503C84.7451 42.9841 77.4692 46.7139 68.7864 53.4398C59.6149 60.5329 54.7233 67.8701 54.1118 75.4521C54.7233 79.9768 55.2736 83.0947 55.7627 84.807C56.8631 88.3536 58.6367 90.8606 61.0825 92.3276C65.2405 94.896 75.1455 96.1802 90.7988 96.1802ZM86.7634 84.9904V74.718H79.0588V65.9132H86.7634V56.0079H95.2009V65.9132H102.905V74.718H95.2009V84.9904H86.7634ZM90.6154 131.583C89.6372 131.583 87.619 132.744 84.5618 135.068C82.4828 136.658 80.4043 138.187 78.3253 139.654C76.2463 141.121 74.2286 141.977 72.2717 142.222C67.7469 143.812 62.1219 144.912 55.3959 145.524C54.4176 145.524 51.9718 145.646 48.0586 145.891C42.1886 146.135 38.52 146.38 37.0525 146.625C32.1609 147.725 29.7151 149.804 29.7151 152.861C30.3266 155.918 31.9163 157.447 34.4844 157.447C35.0958 157.447 36.8079 157.202 39.6205 156.713C43.1669 155.98 45.5516 155.613 46.7745 155.613C54.1118 155.613 62.4274 154.512 71.7216 152.311C81.5046 149.865 87.925 145.768 90.9821 140.021C92.8165 143.567 96.2404 146.563 101.255 149.009C107.124 151.822 114.401 153.717 123.083 154.695L129.137 155.429C131.216 155.551 133.172 155.613 135.006 155.613C136.352 155.613 138.797 155.98 142.343 156.713C145.034 157.202 146.685 157.447 147.296 157.447C149.987 157.447 151.638 155.918 152.249 152.861C152.249 149.804 149.803 147.725 144.912 146.625C143.322 146.38 139.654 146.135 133.906 145.891C131.093 145.768 126.568 145.402 120.332 144.79C117.152 144.423 113.606 143.567 109.693 142.222C107.736 141.855 105.779 141.06 103.822 139.837C102.599 139.226 100.582 137.82 97.7693 135.618C94.4674 132.928 92.0829 131.583 90.6154 131.583Z" fill="#FFD6A0"/>
</svg>
