<svg width="180" height="180" viewBox="0 0 180 180" fill="none" xmlns="http://www.w3.org/2000/svg">
<path d="M31.3437 109.312C29.186 109.312 27.2823 110.01 25.6323 111.406C24.1094 112.802 23.3478 114.579 23.3478 116.737C23.3478 117.498 23.6017 118.323 24.1093 119.211C26.14 119.211 27.9169 118.577 29.4399 117.308C31.0899 115.912 31.9148 114.198 31.9148 112.168C31.9148 111.533 31.7244 110.581 31.3437 109.312ZM148.045 146.055C148.171 140.216 148.235 137.297 148.235 137.297C148.235 111.406 141.635 90.2109 128.436 73.7111C117.14 59.3696 106.796 52.1988 97.4042 52.1988C96.7697 52.1988 96.0086 52.3257 95.1199 52.5795C94.9927 52.5795 94.8662 52.5161 94.7391 52.3892C94.4854 52.3892 94.2947 52.3892 94.1681 52.3892H93.7873C91.6296 52.3892 90.5507 53.2141 90.5507 54.8641C90.5507 55.6256 91.0586 56.4508 92.0739 57.339C100.577 57.9735 109.906 64.0654 120.059 75.6152C133.005 90.7183 139.477 112.294 139.477 140.343C139.477 140.597 139.414 141.105 139.287 141.866C139.287 142.627 139.287 143.199 139.287 143.58V145.483C139.287 146.372 139.287 146.816 139.287 146.816C139.414 148.466 139.922 149.799 140.81 150.814C141.699 151.829 142.778 152.337 144.047 152.337C145.062 152.337 145.951 151.829 146.712 150.814C147.473 149.672 147.918 148.085 148.045 146.055ZM48.4775 77.7094H48.6679H49.0487C49.3026 77.7094 49.4929 77.7729 49.6199 77.8995H49.8102C52.9832 77.8995 56.4097 76.3132 60.0907 73.1402C63.8983 69.9671 65.8018 67.2384 65.8018 64.9541C65.8018 64.3196 65.5481 63.6851 65.0402 63.0501C63.5175 62.1619 61.9307 61.7175 60.2809 61.7175C57.2349 61.7175 54.1889 62.9871 51.1429 65.5251C48.0968 67.9365 46.5738 70.6652 46.5738 73.7111C46.5738 75.4881 47.2084 76.8206 48.4775 77.7094ZM158.896 162.998L58.5675 162.617C58.8212 155.129 60.2173 148.91 62.7559 143.961C65.421 139.011 68.9749 133.743 73.4169 128.159C77.3516 123.209 80.0167 119.592 81.4129 117.308C83.6972 113.373 85.0933 109.122 85.6012 104.552C77.7319 107.725 71.5134 111.787 66.9442 116.737C64.7865 119.148 63.1367 121.242 61.9942 123.019C60.3444 125.938 57.7423 130.063 54.1889 135.393C53.1735 136.536 52.0312 137.17 50.7621 137.297C46.7007 137.297 44.67 134.822 44.67 129.872C43.0201 131.903 41.1798 132.919 39.1491 132.919C38.8952 132.919 37.3723 132.538 34.5801 131.776C29.6303 130.507 25.9496 128.92 23.5382 127.017C21.2537 124.986 19.0326 121.623 16.875 116.927C17.7634 111.089 20.746 102.839 25.8227 92.178C28.488 86.3398 32.0417 78.9148 36.4839 69.9036C41.3067 60.2578 44.67 51.945 46.5738 44.9645C46.8276 42.8069 46.9546 40.7127 46.9546 38.6821C46.9546 37.7936 46.5104 33.5419 45.6219 25.9268H46.0027H46.5738C46.8276 25.9268 47.018 25.8634 47.1449 25.7364H47.5257C54.6331 25.7364 62.4386 28.0844 70.9419 32.7804C71.8307 33.288 72.2745 33.6053 72.2745 33.7322C76.8437 26.2441 80.334 22.5 82.7454 22.5C86.6801 24.5307 89.5354 26.8152 91.3123 29.3536C92.7084 31.5112 94.3582 35.6995 96.2623 41.9185C97.4042 41.5377 98.7367 41.3473 100.26 41.3473C113.332 41.3473 126.024 49.5335 138.336 65.9059C152.677 84.8166 159.848 110.518 159.848 143.008C159.848 149.608 159.531 156.271 158.896 162.998Z" fill="#20453E"/>
<path d="M31.3438 109.312C29.1863 109.312 27.2825 110.01 25.6326 111.406C24.1095 112.802 23.348 114.579 23.348 116.737C23.348 117.498 23.6018 118.323 24.1095 119.211C26.1402 119.211 27.9171 118.577 29.4401 117.308C31.09 115.912 31.915 114.198 31.915 112.168C31.915 111.533 31.7246 110.581 31.3438 109.312ZM148.045 146.055C148.172 140.216 148.235 137.297 148.235 137.297C148.235 111.406 141.635 90.2109 128.436 73.7111C117.14 59.3696 106.796 52.1988 97.4047 52.1988C96.7702 52.1988 96.0086 52.3257 95.1199 52.5796C94.9933 52.5796 94.8662 52.5161 94.7391 52.3892C94.4854 52.3892 94.2952 52.3892 94.1681 52.3892H93.7873C91.6296 52.3892 90.5512 53.2141 90.5512 54.8641C90.5512 55.6256 91.0586 56.4508 92.0739 57.339C100.578 57.9735 109.906 64.0654 120.059 75.6152C133.005 90.7183 139.478 112.294 139.478 140.343C139.478 140.597 139.414 141.105 139.287 141.866C139.287 142.627 139.287 143.199 139.287 143.58V145.483C139.287 146.372 139.287 146.816 139.287 146.816C139.414 148.466 139.922 149.799 140.811 150.814C141.699 151.829 142.778 152.337 144.047 152.337C145.063 152.337 145.951 151.829 146.712 150.814C147.473 149.672 147.918 148.085 148.045 146.055ZM48.4777 77.7094H48.6682H49.0489C49.3027 77.7094 49.4931 77.7729 49.62 77.8995H49.8104C52.9833 77.8995 56.4103 76.3133 60.0907 73.1402C63.8983 69.9671 65.8018 67.2384 65.8018 64.9541C65.8018 64.3196 65.5481 63.6851 65.0407 63.0501C63.5175 62.1619 61.9312 61.7175 60.2809 61.7175C57.2349 61.7175 54.1891 62.9871 51.1431 65.5251C48.097 67.9365 46.574 70.6652 46.574 73.7111C46.574 75.4881 47.2085 76.8206 48.4777 77.7094Z" fill="#ACBD86"/>
</svg>
