<svg width="256" height="256" viewBox="0 0 256 256" fill="none" xmlns="http://www.w3.org/2000/svg">
<rect width="256" height="256" rx="50" fill="white"/>
<path fill-rule="evenodd" clip-rule="evenodd" d="M256 128V50C256 22.3858 233.614 0 206 0H128V128H256Z" fill="#00AD88"/>
<path fill-rule="evenodd" clip-rule="evenodd" d="M0 128V206C0 233.614 22.3858 256 50 256H128V128H0Z" fill="#00AD88"/>
<rect x="10" y="10" width="236" height="236" rx="40" stroke="#00AD88" stroke-width="20"/>
<path d="M155.002 42.7672C152.107 40.0032 147.843 39.2317 144.163 40.8061C140.483 42.3805 138.097 45.9975 138.097 50V74.3265C99.0027 88.4033 46.9334 122.144 29.3254 189.47C28.1638 193.911 30.1756 198.573 34.204 200.775C38.2324 202.977 43.2425 202.153 46.3536 198.777C77.7635 164.693 119.534 160.023 138.097 159.717V181.461C138.097 185.462 140.482 189.078 144.159 190.653C147.837 192.228 152.1 191.46 154.996 188.699L223.899 123.024C225.878 121.138 226.999 118.524 227 115.79C227.001 113.056 225.883 110.441 223.906 108.553L155.002 42.7672Z" fill="white" stroke="black" stroke-width="20" stroke-linejoin="round"/>
</svg>
