<svg width="256" height="256" viewBox="0 0 256 256" fill="none" xmlns="http://www.w3.org/2000/svg">
<rect width="256" height="256" rx="50" fill="white"/>
<path fill-rule="evenodd" clip-rule="evenodd" d="M138.486 121H117.514H103H102.3C102.759 123.262 103 125.603 103 128C103 147.33 87.33 163 68 163C48.67 163 33 147.33 33 128C33 108.67 48.67 93 68 93C78.9953 93 88.8063 98.0701 95.2228 106H112.912C104.774 89.4161 87.72 78 68 78C40.3858 78 18 100.386 18 128C18 155.614 40.3858 178 68 178C92.8912 178 113.534 159.811 117.363 136H138.637H152H153.918C153.318 133.431 153 130.752 153 128C153 108.67 168.67 93 188 93C207.33 93 223 108.67 223 128C223 147.33 207.33 163 188 163C177.474 163 168.034 158.354 161.618 151H143.592C151.917 167.041 168.679 178 188 178C215.614 178 238 155.614 238 128C238 100.386 215.614 78 188 78C162.761 78 141.89 96.6997 138.486 121Z" fill="black"/>
</svg>
