<svg width="256" height="256" viewBox="0 0 256 256" fill="none" xmlns="http://www.w3.org/2000/svg">
<rect x="10" y="10" width="236" height="236" rx="40" fill="white" stroke="black" stroke-width="20"/>
<path d="M128.007 58.7693C125.113 56.0041 120.848 55.2315 117.167 56.8055C113.487 58.3795 111.099 61.9969 111.099 66V86.3563C76.8338 98.9179 31.597 128.621 16.2152 187.471C15.0542 191.913 17.067 196.575 21.0962 198.776C25.1254 200.977 30.1356 200.152 33.2459 196.775C59.6208 168.137 94.4992 163.569 111.099 163.106V180.797C111.099 184.798 113.485 188.415 117.163 189.99C120.842 191.565 125.105 190.795 128.001 188.033L188.133 130.683C190.111 128.797 191.23 126.184 191.231 123.451C191.232 120.718 190.115 118.104 188.139 116.216L128.007 58.7693Z" stroke="black" stroke-width="20" stroke-linejoin="round"/>
<path fill-rule="evenodd" clip-rule="evenodd" d="M62.2042 128C46.3962 143.135 32.8472 163.383 25.8902 190C63.1933 149.497 115.6 152.925 120.82 153.267C120.937 153.275 121.03 153.281 121.099 153.285V180.797L128 174.215V256H50C22.3858 256 0 233.614 0 206V128H62.2042Z" fill="black"/>
<path fill-rule="evenodd" clip-rule="evenodd" d="M256 50V128H176.457L181.231 123.447L128 72.5925V0H206C233.614 0 256 22.3858 256 50Z" fill="black"/>
</svg>
