<svg width="180" height="180" viewBox="0 0 180 180" fill="none" xmlns="http://www.w3.org/2000/svg">
<path d="M60.7286 141.987H122.105C124.954 141.987 126.379 143.412 126.379 146.262C126.379 149.111 124.954 150.536 122.105 150.536H60.7286C57.8796 150.536 56.4547 149.111 56.4547 146.262C56.4547 143.412 57.8796 141.987 60.7286 141.987ZM81.2447 168.231C77.0844 168.231 72.9242 168.231 68.7639 168.231C64.6611 168.231 60.5576 168.231 56.4547 168.231C54.517 168.231 53.1493 166.749 52.3515 163.785C51.6107 160.822 50.6419 158.343 49.4451 156.349C55.7708 156.349 62.0679 156.377 68.337 156.434C74.6623 156.434 80.9882 156.463 87.3141 156.52C86.2881 158.571 85.6896 161.135 85.5186 164.213C85.4049 167.234 83.9801 168.572 81.2447 168.231ZM101.504 168.231C98.9392 168.515 97.5431 167.148 97.3153 164.127C97.1443 161.107 96.5458 158.571 95.5204 156.52C101.732 156.463 108.001 156.434 114.326 156.434C120.709 156.377 127.063 156.349 133.389 156.349C132.192 158.343 131.195 160.822 130.397 163.785C129.599 166.749 128.231 168.231 126.294 168.231C122.191 168.231 118.059 168.231 113.899 168.231C109.795 168.231 105.664 168.231 101.504 168.231ZM95.6914 44.0247L95.6053 47.786C107.402 48.7547 117.375 53.3138 125.524 61.4633C133.73 69.6122 137.834 79.2433 137.834 90.3561C137.834 95.3139 136.837 100.586 134.842 106.17C132.107 110.388 129.656 114.861 127.491 119.591C125.325 124.321 124.043 129.678 123.644 135.662C112.873 135.662 102.102 135.662 91.3314 135.662C80.6175 135.662 69.9041 135.662 59.1902 135.662C58.563 129.279 57.2524 124.008 55.2579 119.847C53.2633 115.63 50.8698 111.157 48.0774 106.427C46.0258 101.127 45 95.7701 45 90.3561C45 79.2433 49.0747 69.6122 57.2242 61.4633C65.4306 53.3138 75.4318 48.7547 87.228 47.786L87.1431 44.0247C82.413 42.2011 80.0477 39.5512 80.0477 36.0749C80.0477 33.9093 81.1305 32.0572 83.2961 30.5185C85.5186 28.9228 88.1685 28.125 91.2459 28.125C94.3234 28.125 96.9733 28.9228 99.1957 30.5185C101.418 32.0572 102.53 33.9093 102.53 36.0749C102.53 39.6651 100.25 42.3151 95.6914 44.0247ZM85.6041 120.959H97.1443L100.222 94.4595L111.762 91.7241V80.0983L100.222 77.0209L97.1443 62.4032H85.6041L82.6121 77.0209L71.0719 80.0983V91.7241L82.6121 94.4595L85.6041 120.959Z" fill="#123F37"/>
<path d="M85.6041 120.959H97.1443L100.222 94.4595L111.762 91.7241V80.0983L100.222 77.0209L97.1443 62.4032H85.6041L82.6127 77.0209L71.0724 80.0983V91.7241L82.6127 94.4595L85.6041 120.959Z" fill="#81B214"/>
</svg>
