<svg width="180" height="180" viewBox="0 0 180 180" fill="none" xmlns="http://www.w3.org/2000/svg">
<path d="M68.3887 161.786C75.9111 161.786 83.5476 161.786 91.2977 161.786C99.0484 161.786 106.798 161.786 114.549 161.786C115.689 161.786 116.401 161.045 116.686 159.563C117.028 158.024 117.541 156.742 118.225 155.716C109.277 155.716 100.33 155.716 91.3832 155.716C82.4929 155.716 73.6031 155.716 64.7128 155.716C65.2826 156.742 65.7382 158.024 66.0802 159.563C66.4222 161.045 67.1917 161.786 68.3887 161.786ZM68.3887 167.599C64.7983 167.599 62.3762 165.404 61.1224 161.016C59.8686 156.571 58.2446 152.867 56.25 149.903C67.9326 149.903 79.6438 149.903 91.3832 149.903C103.123 149.903 114.891 149.903 126.687 149.903C124.636 152.867 122.983 156.571 121.73 161.016C120.476 165.404 118.082 167.599 114.549 167.599C106.001 167.599 97.9656 167.599 90.4427 167.599C82.9777 167.599 75.6259 167.599 68.3887 167.599ZM102.581 62.6265H109.249C111.13 62.6265 112.07 63.5951 112.07 65.5324C112.07 67.4702 111.13 68.4388 109.249 68.4388H73.6886C71.7508 68.4388 70.7822 67.4702 70.7822 65.5324C70.7822 63.5951 71.7508 62.6265 73.6886 62.6265H80.2704C78.1622 60.2899 77.1075 57.3261 77.1075 53.7361C77.1075 49.8039 78.5036 46.4415 81.2964 43.6491C84.0887 40.7997 87.4794 39.375 91.4687 39.375C95.4011 39.375 98.7632 40.7997 101.555 43.6491C104.405 46.4415 105.83 49.8039 105.83 53.7361C105.83 57.1551 104.747 60.1189 102.581 62.6265ZM91.4687 44.9314C85.5422 44.9314 82.5784 47.8663 82.5784 53.7361C82.5784 59.6627 85.5422 62.6265 91.4687 62.6265C97.3384 62.6265 100.274 59.6627 100.274 53.7361C100.274 47.8663 97.3384 44.9314 91.4687 44.9314ZM106.685 138.364H123.781C125.719 138.364 126.687 139.304 126.687 141.185C126.687 143.122 125.719 144.091 123.781 144.091H59.0709C57.1905 144.091 56.25 143.122 56.25 141.185C56.25 139.304 57.1905 138.364 59.0709 138.364H76.0821C70.8958 133.861 68.3033 128.049 68.3033 120.925C68.3033 118.475 68.7021 115.996 69.4997 113.488L79.9284 74.2517H103.009L113.352 113.488C114.207 115.882 114.635 118.361 114.635 120.925C114.635 127.821 111.985 133.634 106.685 138.364ZM108.223 116.566L98.7345 80.0646H84.2029L74.7141 116.566C74.2584 117.876 74.0306 119.329 74.0306 120.925C74.0306 125.712 75.7401 129.815 79.1595 133.235C82.5784 136.654 86.6818 138.364 91.4687 138.364C96.2561 138.364 100.33 136.654 103.693 133.235C107.112 129.815 108.822 125.712 108.822 120.925C108.822 119.387 108.622 117.933 108.223 116.566Z" fill="#3C2946"/>
<path d="M68.3887 161.786C75.9111 161.786 83.5476 161.786 91.2977 161.786C99.0484 161.786 106.798 161.786 114.549 161.786C115.689 161.786 116.401 161.045 116.686 159.563C117.028 158.024 117.541 156.742 118.225 155.716C109.278 155.716 100.331 155.716 91.3832 155.716C82.4934 155.716 73.6031 155.716 64.7128 155.716C65.2826 156.742 65.7388 158.024 66.0808 159.563C66.4222 161.045 67.1917 161.786 68.3887 161.786ZM91.4687 44.9312C85.5422 44.9312 82.5789 47.866 82.5789 53.7358C82.5789 59.6627 85.5422 62.6259 91.4687 62.6259C97.3384 62.6259 100.274 59.6627 100.274 53.7358C100.274 47.866 97.3384 44.9312 91.4687 44.9312ZM108.223 116.565L98.7351 80.0646H84.2029L74.7146 116.565C74.2584 117.876 74.0306 119.329 74.0306 120.925C74.0306 125.712 75.7401 129.815 79.1595 133.234C82.5789 136.654 86.6818 138.363 91.4692 138.363C96.2561 138.363 100.331 136.654 103.693 133.234C107.112 129.815 108.822 125.712 108.822 120.925C108.822 119.386 108.622 117.933 108.223 116.565Z" fill="#CBC9FF"/>
</svg>
