<svg width="180" height="180" viewBox="0 0 180 180" fill="none" xmlns="http://www.w3.org/2000/svg">
<path fill-rule="evenodd" clip-rule="evenodd" d="M82.9044 22.6305V34.8957H66.735V48.8907H82.9035V74.0844H95.8113V48.8907H115.232V34.8957H95.8113V22.6305H82.9044Z" fill="url(#paint0_linear_1_95)" stroke="black" stroke-width="3.2913" stroke-linecap="round" stroke-linejoin="round"/>
<path fill-rule="evenodd" clip-rule="evenodd" d="M105.092 94.869C146.181 72.8928 133.014 114.761 112.622 127.704C99.4842 136.042 92.6154 104.578 99.585 80.9487L81.9774 81.1611C88.47 102.072 84.51 134.205 70.2261 127.704C44.7813 116.123 35.3223 73.5147 75.9465 94.8897C52.4709 46.9008 15.9066 65.2509 19.3365 89.64C23.0643 116.134 53.3025 139.974 52.6887 150.596H128.565C127.35 138.29 161.461 112.982 162.553 88.92C163.601 65.3769 122.969 47.1429 105.092 94.869V94.869Z" fill="url(#paint1_linear_1_95)" stroke="black" stroke-width="3.2913" stroke-linecap="round" stroke-linejoin="round"/>
<path fill-rule="evenodd" clip-rule="evenodd" d="M40.7997 156H139.543V169.714H40.7997V156Z" fill="url(#paint2_linear_1_95)" stroke="black" stroke-width="3.2913" stroke-linecap="round" stroke-linejoin="round"/>
<defs>
<linearGradient id="paint0_linear_1_95" x1="77.157" y1="36.2916" x2="110.175" y2="63.5526" gradientUnits="userSpaceOnUse">
<stop stop-color="#FFCC29"/>
<stop offset="1" stop-color="#F58634"/>
</linearGradient>
<linearGradient id="paint1_linear_1_95" x1="30.8736" y1="52.5096" x2="142.767" y2="152.241" gradientUnits="userSpaceOnUse">
<stop stop-color="#FFCC29"/>
<stop offset="1" stop-color="#F58634"/>
</linearGradient>
<linearGradient id="paint2_linear_1_95" x1="33.5547" y1="159.765" x2="144.554" y2="160.213" gradientUnits="userSpaceOnUse">
<stop stop-color="#FFCC29"/>
<stop offset="1" stop-color="#F58634"/>
</linearGradient>
</defs>
</svg>
