<svg width="512" height="512" viewBox="0 0 512 512" fill="none" xmlns="http://www.w3.org/2000/svg">
<path d="M295 408.802C350.544 393.594 391 346.741 391 291.301C391 211.272 331.178 111.671 284.692 49.6786C270.153 30.2906 241.847 30.2906 227.308 49.6786C180.822 111.671 121 211.272 121 291.301C121 346.074 160.487 392.464 215 408.239V419.4C173.423 423.551 143.799 433.827 143.016 445.902H143V465.043C143 481.036 193.592 494 256 494C318.408 494 369 481.036 369 465.043V445.902H368.984C368.189 433.634 337.624 423.223 295 419.206V408.802Z" fill="#00173C"/>
<path d="M341.825 280.363C340.628 293.525 324.285 281.647 324.285 268.43C324.285 208.463 299.69 141.709 277 93.5092C306.896 139.976 342.285 208.813 342.285 270.2C342.285 273.631 342.129 277.022 341.825 280.363Z" fill="#FF9CAE"/>
<path d="M164 459.691C164 461.802 165.316 463.692 167.324 464.343C188.02 471.048 220.049 475.35 256 475.35C291.35 475.35 322.909 471.19 343.63 464.677C345.661 464.038 347 462.136 347 460.007V449.527C347 448.491 345.783 447.935 345 448.612C336.209 456.598 299.478 462.589 255.5 462.589C211.522 462.589 174.791 456.598 166 448.612C165.296 447.831 164 448.329 164 449.38V459.691Z" fill="#FF9CAE"/>
<path d="M255 439.031C277.091 439.031 295 437.493 295 435.595V446.393C295 448.29 277.091 449.828 255 449.828C232.909 449.828 215 448.29 215 446.393V435.595C215 437.493 232.909 439.031 255 439.031Z" fill="#FF9CAE"/>
<path fill-rule="evenodd" clip-rule="evenodd" d="M229 197.553L220 165.053C217.6 164.253 216.667 172.72 216.5 177.053C216.833 179.22 217.2 183.553 216 183.553C214.8 183.553 214.833 188.886 215 191.553C212.6 193.953 210 198.553 209 200.553C205.4 200.953 196.833 204.053 193 205.553C193 206.533 191.933 207.299 190.775 208.131C190.16 208.573 189.52 209.033 189 209.553L184 214.553C182.441 213.306 181.271 216.335 180.369 218.672L180.268 218.933C179.768 220.222 179.353 221.229 179 221.053C178.2 220.653 173 229.886 170.5 234.553C170.9 235.353 167 247.553 165 253.553C160.5 255.22 151.4 258.553 151 258.553C150.856 258.553 150.341 258.677 149.657 258.841C147.958 259.25 145.213 259.909 144.5 259.553C143.5 259.053 143 262.053 143 264.053C143 265.403 148.92 265.614 153.078 265.762C155.081 265.834 156.675 265.89 157 266.053C157.8 266.453 158.667 264.886 159 264.053C159.5 264.72 160.6 265.953 161 265.553C161.4 265.153 164.833 265.386 166.5 265.553C166.5 266.886 166.8 269.653 168 270.053C167.667 270.386 167.2 271.853 168 275.053C169 279.053 171 282.553 171 283.053C171 283.453 174.333 287.22 176 289.053L177 289.553V290.553L181.812 294.744C182.709 295.598 183.187 296.053 183 296.053C182.2 296.053 182.667 300.72 183 303.053C182.2 303.053 181.667 306.053 181.5 307.553C179.5 309.953 180.667 314.22 181.5 316.053C184.7 316.853 185.833 315.386 186 314.553C186.5 313.553 187.5 311.253 187.5 310.053C187.5 308.853 188.5 307.22 189 306.553C189.333 304.72 190.2 301.153 191 301.553C191 300.72 191.2 299.153 192 299.553C192.667 300.053 194.2 301.053 195 301.053C195.8 301.053 198.333 303.386 199.5 304.553C200.5 305.053 203 305.953 205 305.553C206.333 306.053 209.2 307.053 210 307.053C210.8 307.053 211.667 307.72 212 308.053C214.167 308.22 218.7 308.553 219.5 308.553C220.5 308.553 227 310.053 228.5 308.553C230 307.053 235 309.553 235 308.053C239.8 307.253 247.667 302.72 251 300.553C252.333 300.386 254.7 300.253 253.5 301.053C252.3 301.853 255.333 303.386 257 304.053C256.6 306.853 260.167 312.22 262 314.553C264.833 316.386 269.9 318.653 267.5 313.053C265.1 307.453 264.167 297.053 264 292.553C262.4 292.553 264.333 288.22 265.5 286.053C267.5 284.886 271.3 282.053 270.5 280.053C269.7 278.053 271.167 276.553 272 276.053C271.667 274.553 271.2 271.753 272 272.553C272.8 273.353 273.667 269.22 274 267.053C272.4 266.253 273.667 262.386 274.5 260.553C276.5 261.353 280 259.553 281.5 258.553C281.9 256.553 291.333 254.72 296 254.053L297 249.553L275 248.053C275 245.253 273.667 242.553 273 241.553C276.2 239.153 272.667 232.22 270.5 229.053C271.3 225.853 263.5 217.72 259.5 214.053C257.5 210.853 254 207.386 252.5 206.053C250 205.886 244.2 204.653 241 201.053C237.8 197.453 231.667 197.22 229 197.553ZM227 230.553C225.4 230.153 221.667 217.72 220 211.553C220 211.759 219.157 213.748 218.159 216.106L218.158 216.108C217.22 218.321 216.145 220.859 215.5 222.553C216.596 224.38 215.29 228.608 214.506 231.144C214.218 232.079 214 232.784 214 233.053C214 233.312 213.395 234.547 212.568 236.233C210.206 241.049 206.037 249.553 209 249.553C212.2 249.553 218.667 250.886 221.5 251.553C226.7 251.153 232.667 249.053 235 248.053C233 242.386 228.6 230.953 227 230.553ZM258 260.053C256 261.253 253.167 260.886 252 260.553C253.2 262.553 252.5 266.053 252 267.553C253.6 269.553 253.667 272.72 253.5 274.053C254.5 274.553 256.6 275.753 257 276.553C257.4 277.353 258.167 275.886 258.5 275.053C258.1 274.253 258.333 272.386 258.5 271.553C260.5 269.153 261.667 262.886 262 260.053C261.5 259.553 260 258.853 258 260.053ZM192.5 225.553C194.1 223.553 202.5 218.386 206.5 216.053C206.9 218.853 204.667 223.886 203.5 226.053C203.167 228.053 202.2 232.153 201 232.553C199.8 232.953 199.833 236.72 200 238.553C197.6 241.753 197 247.22 197 249.553C196.6 249.953 191.833 249.053 189.5 248.553C188.5 249.053 178.5 251.553 180 249.053C181.5 246.553 182 244.553 181.5 244.553C181.1 244.553 182.667 241.22 183.5 239.553C182.7 238.753 184.167 237.22 185 236.553C183.8 234.553 187.167 231.053 189 229.553C189.5 229.053 190.9 227.553 192.5 225.553ZM180 264.053C182 263.886 186.2 263.453 187 263.053C188 263.22 190.4 263.453 192 263.053C190.667 264.886 188.1 268.853 188.5 270.053C187.333 272.053 185.3 276.353 186.5 277.553C186.014 278.688 185.244 281.021 185.938 281.516C184.254 280.502 181.105 278.448 181.5 278.053C181.9 277.653 181 273.886 180.5 272.053C180.333 270.72 180.1 267.953 180.5 267.553C180 266.553 179.2 264.453 180 264.053ZM235 215.053C238.833 217.553 246.6 222.553 247 222.553C247.5 222.553 258 232.053 260.5 240.053C261.5 240.553 263.5 242.853 263.5 248.053C263.142 248.053 262.656 248.09 262.131 248.131C260.943 248.223 259.555 248.33 259 248.053C258.2 247.653 250.667 248.553 247 249.053C246 245.553 243.3 237.753 240.5 234.553C240.833 234.053 241 232.253 239 229.053C236.5 225.053 232.5 216.553 235 215.053ZM206 261.553C208.667 261.386 214.2 261.353 215 262.553C216.333 261.886 219.5 260.953 221.5 262.553C223.5 264.153 233.333 262.553 238 261.553C238.333 263.553 239.2 267.453 240 267.053C239.5 267.553 239.6 270.553 244 278.553C244.167 281.053 244.9 286.053 246.5 286.053C248.1 286.053 246.833 288.053 246 289.053C245 290.22 242.2 292.753 239 293.553C235 294.553 229.5 296.053 227.5 297.053C225.9 297.853 218.5 296.72 215 296.053L214.5 297.053C212.5 295.386 208 292.353 206 293.553C204.167 291.886 200.3 288.853 199.5 290.053C198.5 291.553 196.5 285.553 197.5 286.053C198.3 286.453 198.833 279.553 199 276.053C201 272.386 205 264.953 205 264.553C205 264.475 204.988 264.36 204.973 264.221C204.893 263.465 204.734 261.975 206 261.553Z" fill="#FF385C"/>
</svg>
