<svg width="144" height="144" viewBox="0 0 144 144" fill="none" xmlns="http://www.w3.org/2000/svg">
<path d="M75.4419 20.952C76.7803 19.9626 77.6221 18.5282 77.6221 16.9323C77.6221 13.9473 74.6777 11.5276 71.0457 11.5276C67.4136 11.5276 64.4693 13.9473 64.4693 16.9323C64.4693 18.5003 65.2818 19.9124 66.5796 20.8996C60.0641 25.2627 49.4889 35.1636 53.8866 51.6283C54.4526 53.7475 55.0956 55.5616 55.7967 57.1087H48.5953V62.8535H58.5945L42.6646 122.381H30.1512V130.091H36.5386V132.472H30V140.183H113.792V132.472H107.783V130.091H113.943V122.381H101.033L83.531 62.8535H93.9496V57.1087H86.0611C86.7654 55.5534 87.4108 53.727 87.978 51.5905C92.319 35.2383 81.9472 25.3604 75.4419 20.952Z" fill="white"/>
<path d="M75.8929 16.5543C75.8929 14.2488 74.2677 12.2079 74.2677 12.2079C81.1465 16.5543 75.3638 21.0142 75.3638 21.0142C75.3638 21.0142 75.8929 18.8598 75.8929 16.5543Z" fill="#D1D1D1"/>
<path d="M75.3638 21.0142H75.2882C75.2882 21.0142 80.6173 26.7968 82.6205 31.1811C84.6614 35.5276 85.0016 39.2315 84.6236 45.0898C84.3619 48.7776 82.7223 50.8778 81.6375 52.2672C80.9991 53.085 80.5529 53.6565 80.6929 54.1606C81.0709 55.4835 81.1465 57.0709 81.1465 57.0709L81.789 62.8157H93.9213V57.0709H86.022C86.022 57.0709 87.9874 53.8205 88.5921 48.6047C88.6193 48.37 88.6463 48.1405 88.6728 47.9155C89.234 43.1417 89.5538 40.4218 86.7024 33.6C83.7165 26.4567 75.3638 21.0142 75.3638 21.0142Z" fill="#D1D1D1"/>
<path d="M95.6598 130.091L36.548 130.091V132.472H95.6598V140.183H113.839V132.472L107.792 132.472V130.091L113.991 130.091V122.381H101.102L83.5276 62.8535H58.2425L80.6929 68.3717L92.485 122.381L95.6598 130.091Z" fill="#D1D1D1"/>
</svg>
