<svg width="144" height="144" viewBox="0 0 144 144" fill="none" xmlns="http://www.w3.org/2000/svg">
<path fill-rule="evenodd" clip-rule="evenodd" d="M50.7213 61.6819L92.2205 62.022L104.164 124.498L40.3653 123.591L50.7213 61.6819Z" fill="#383838"/>
<path fill-rule="evenodd" clip-rule="evenodd" d="M30.1606 122.494H113.953V130.205H30.1606V122.494Z" fill="#383838"/>
<path fill-rule="evenodd" clip-rule="evenodd" d="M36.548 128.05H107.792V133.833H36.548V128.05Z" fill="#383838"/>
<path fill-rule="evenodd" clip-rule="evenodd" d="M30.0094 132.548H113.802V140.258H30.0094V132.548Z" fill="#383838"/>
<path fill-rule="evenodd" clip-rule="evenodd" d="M52.9512 66.1795H93.052L103.937 122.457H113.991V130.167L107.906 130.054V132.435L113.839 132.548V140.258H101.896C101.896 140.258 100.913 134.627 99.2126 130.167C97.5118 125.745 96 127.143 94.1102 113.235C92.2583 99.326 88.4409 71.622 88.4409 71.622L52.9512 66.1417V66.1795Z" fill="#111111"/>
<path fill-rule="evenodd" clip-rule="evenodd" d="M36.6614 130.091H107.868V132.472H36.6614V130.091Z" fill="#111111"/>
<path fill-rule="evenodd" clip-rule="evenodd" d="M41.1213 57.8646H103.03V66.1795H41.1213V57.8646Z" fill="#383838"/>
<path fill-rule="evenodd" clip-rule="evenodd" d="M48.3024 60.8882C48.3024 60.8882 39.1937 48.4913 40.7811 39.2693C42.6709 28.4976 55.2189 23.8488 73.852 22.8283C79.4457 22.526 77.5559 60.8882 77.5559 60.8882H48.3024Z" fill="#383838"/>
<path fill-rule="evenodd" clip-rule="evenodd" d="M95.0551 60.8882C95.0551 60.8882 104.164 48.4913 102.576 39.2693C100.687 28.4976 88.1386 23.8488 69.5055 22.8283C63.9118 22.526 65.8016 60.8882 65.8016 60.8882H95.0551Z" fill="#383838"/>
<path fill-rule="evenodd" clip-rule="evenodd" d="M58.9606 24.7559C58.9606 24.7559 68.5228 22.3748 67.5024 18.3685C66.4819 14.3622 71.811 17.6504 71.811 17.6504L72.189 23.1685L58.9606 24.7937V24.7559Z" fill="#383838"/>
<path fill-rule="evenodd" clip-rule="evenodd" d="M82.0913 24.4535C82.0913 24.4535 76.2709 21.6189 76.1197 18.3685C75.9307 15.1181 71.811 17.6504 71.811 17.6504L71.4331 23.2063L82.0913 24.4913V24.4535Z" fill="#383838"/>
<path d="M66.3307 13.9087C68.2302 13.9087 69.7701 12.4027 69.7701 10.5449C69.7701 8.68712 68.2302 7.18111 66.3307 7.18111C64.4312 7.18111 62.8913 8.68712 62.8913 10.5449C62.8913 12.4027 64.4312 13.9087 66.3307 13.9087Z" fill="#383838"/>
<path d="M67.4268 18.1039C68.7627 18.1039 69.8457 17.0548 69.8457 15.7606C69.8457 14.4665 68.7627 13.4173 67.4268 13.4173C66.0909 13.4173 65.0079 14.4665 65.0079 15.7606C65.0079 17.0548 66.0909 18.1039 67.4268 18.1039Z" fill="#383838"/>
<path d="M77.0646 13.9087C78.9641 13.9087 80.5039 12.4027 80.5039 10.5449C80.5039 8.68712 78.9641 7.18111 77.0646 7.18111C75.1651 7.18111 73.6252 8.68712 73.6252 10.5449C73.6252 12.4027 75.1651 13.9087 77.0646 13.9087Z" fill="#383838"/>
<path d="M75.9685 18.1039C77.3044 18.1039 78.3874 17.0548 78.3874 15.7606C78.3874 14.4665 77.3044 13.4173 75.9685 13.4173C74.6326 13.4173 73.5496 14.4665 73.5496 15.7606C73.5496 17.0548 74.6326 18.1039 75.9685 18.1039Z" fill="#383838"/>
<path d="M71.811 11.3764C73.8358 11.3764 75.4772 9.6673 75.4772 7.55905C75.4772 5.4508 73.8358 3.74173 71.811 3.74173C69.7863 3.74173 68.1449 5.4508 68.1449 7.55905C68.1449 9.6673 69.7863 11.3764 71.811 11.3764Z" fill="#383838"/>
<path fill-rule="evenodd" clip-rule="evenodd" d="M69.3921 19.8803L66.3307 10.5449L71.811 7.55905L77.0646 10.5449L74.2299 20.0315L69.3921 19.8803Z" fill="#383838"/>
<path fill-rule="evenodd" clip-rule="evenodd" d="M76.1197 18.3685C76.1197 18.3685 74.2677 21.9213 76.8 23.811C79.2945 25.7008 85.5307 26.8724 88.8567 29.0646C92.2205 31.2567 97.9276 33.6 97.9654 39.7984C98.0409 45.9968 96.7181 48.7181 92.7118 53.0646C88.6677 57.4488 86.0976 57.8268 86.0976 57.8268H96.9827C96.9827 57.8268 100.271 52.0819 101.14 49.285C102.009 46.4882 103.106 42.9732 102.501 39.1937C101.896 35.4142 99.0992 30.6898 94.715 28.611C90.3307 26.4945 91.4646 26.6835 88.2898 25.7764C85.1528 24.8693 84.737 24.7937 84.3969 24.7181C84.0567 24.6425 80.8063 23.6976 80.8063 23.6976C80.8063 23.6976 79.1055 22.7528 78.1606 21.7701C77.2157 20.7874 76.0819 18.3307 76.0819 18.3307L76.1197 18.3685ZM86.0976 57.8646L87.3827 66.1795H103.03V57.8646H86.0976Z" fill="#111111"/>
</svg>
