<svg width="257" height="256" viewBox="0 0 257 256" fill="none" xmlns="http://www.w3.org/2000/svg">
<path fill-rule="evenodd" clip-rule="evenodd" d="M128.396 220.116C156.385 220.116 181.99 212.389 200.766 199.582C219.512 186.797 231.962 168.513 231.962 147.57V109.545C231.962 88.602 219.512 70.3186 200.766 57.5329C181.99 44.7266 156.385 36.9993 128.396 36.9993C100.407 36.9993 74.8023 44.7266 56.0262 57.5329C37.2804 70.3186 24.8301 88.602 24.8301 109.545V147.57C24.8301 168.513 37.2804 186.797 56.0262 199.582C74.8023 212.389 100.407 220.116 128.396 220.116Z" fill="#111111"/>
<path d="M225.958 147.57C225.958 184.32 182.278 214.112 128.396 214.112C74.5141 214.112 30.834 184.32 30.834 147.57V109.545C30.834 72.795 74.5141 43.0029 128.396 43.0029C182.278 43.0029 225.958 72.795 225.958 109.545V147.57Z" fill="#666666"/>
<path d="M128.396 214.112C182.278 214.112 225.958 184.32 225.958 147.57V109.546C225.958 146.296 182.278 176.088 128.396 176.088C74.5136 176.088 30.8335 146.296 30.8335 109.546V147.57C30.8335 184.32 74.5136 214.112 128.396 214.112Z" fill="black" fill-opacity="0.5"/>
<path d="M208.28 109.191C207.951 86.5598 172.739 68.2666 129.349 68.2666C85.9594 68.2666 50.7469 86.5598 50.4181 109.191C50.4165 109.061 50.4158 108.93 50.4158 108.8C50.4158 80.9156 85.7552 58.311 129.349 58.311C172.943 58.311 208.282 80.9156 208.282 108.8C208.282 108.931 208.282 109.061 208.28 109.191Z" fill="black" fill-opacity="0.5"/>
<path d="M129.349 159.289C170.9 159.289 204.952 138.753 208.052 112.684L208.28 109.191C207.951 86.5598 172.739 68.2666 129.349 68.2666C85.9594 68.2666 50.7469 86.5598 50.4181 109.191L50.6458 112.684C53.7462 138.753 87.7982 159.289 129.349 159.289Z" fill="black" fill-opacity="0.2"/>
</svg>
