<svg width="257" height="256" viewBox="0 0 257 256" fill="none" xmlns="http://www.w3.org/2000/svg">
<path fill-rule="evenodd" clip-rule="evenodd" d="M129.083 220.116C157.072 220.116 182.677 212.389 201.453 199.582C220.198 186.797 232.649 168.513 232.649 147.57V109.545C232.649 88.602 220.198 70.3186 201.453 57.5329C182.677 44.7266 157.072 36.9993 129.083 36.9993C101.094 36.9993 75.4891 44.7266 56.713 57.5329C37.9672 70.3186 25.5168 88.602 25.5168 109.545V147.57C25.5168 168.513 37.9672 186.797 56.713 199.582C75.4891 212.389 101.094 220.116 129.083 220.116Z" fill="#111111"/>
<path d="M226.645 147.57C226.645 184.32 182.965 214.112 129.083 214.112C75.2008 214.112 31.5208 184.32 31.5208 147.57V109.545C31.5208 72.795 75.2008 43.0029 129.083 43.0029C182.965 43.0029 226.645 72.795 226.645 109.545V147.57Z" fill="#666666"/>
<path d="M129.083 214.112C182.965 214.112 226.645 184.32 226.645 147.57V109.546C226.645 146.296 182.965 176.088 129.083 176.088C75.2006 176.088 31.5205 146.296 31.5205 109.546V147.57C31.5205 184.32 75.2006 214.112 129.083 214.112Z" fill="black" fill-opacity="0.5"/>
<path d="M208.967 109.191C208.638 86.5598 173.426 68.2666 130.036 68.2666C86.6461 68.2666 51.4337 86.5598 51.1049 109.191C51.1033 109.061 51.1025 108.93 51.1025 108.8C51.1025 80.9156 86.442 58.311 130.036 58.311C173.63 58.311 208.969 80.9156 208.969 108.8C208.969 108.931 208.968 109.061 208.967 109.191Z" fill="black" fill-opacity="0.5"/>
<path d="M130.036 159.289C171.587 159.289 205.639 138.753 208.739 112.684L208.967 109.191C208.638 86.5598 173.426 68.2666 130.036 68.2666C86.6461 68.2666 51.4337 86.5598 51.1049 109.191L51.3326 112.684C54.433 138.753 88.485 159.289 130.036 159.289Z" fill="black" fill-opacity="0.2"/>
</svg>
