<svg width="257" height="256" viewBox="0 0 257 256" fill="none" xmlns="http://www.w3.org/2000/svg">
<path fill-rule="evenodd" clip-rule="evenodd" d="M129.359 220.116C157.348 220.116 182.953 212.389 201.729 199.582C220.475 186.797 232.925 168.513 232.925 147.57V109.545C232.925 88.602 220.475 70.3186 201.729 57.5329C182.953 44.7266 157.348 36.9993 129.359 36.9993C101.37 36.9993 75.7656 44.7266 56.9895 57.5329C38.2437 70.3186 25.7933 88.602 25.7933 109.545V147.57C25.7933 168.513 38.2437 186.797 56.9895 199.582C75.7656 212.389 101.37 220.116 129.359 220.116Z" fill="#444444"/>
<path d="M226.921 147.57C226.921 184.32 183.241 214.112 129.359 214.112C75.4772 214.112 31.7971 184.32 31.7971 147.57V109.545C31.7971 72.795 75.4772 43.0029 129.359 43.0029C183.241 43.0029 226.921 72.795 226.921 109.545V147.57Z" fill="#EEEEEE"/>
<path d="M129.359 214.112C183.241 214.112 226.921 184.32 226.921 147.57V109.546C226.921 146.296 183.241 176.088 129.359 176.088C75.4768 176.088 31.7968 146.296 31.7968 109.546V147.57C31.7968 184.32 75.4768 214.112 129.359 214.112Z" fill="black" fill-opacity="0.4"/>
<path d="M209.243 109.191C208.914 86.5598 173.702 68.2666 130.312 68.2666C86.9223 68.2666 51.7098 86.5598 51.381 109.191C51.3794 109.061 51.3787 108.93 51.3787 108.8C51.3787 80.9156 86.7181 58.311 130.312 58.311C173.906 58.311 209.245 80.9156 209.245 108.8C209.245 108.931 209.245 109.061 209.243 109.191Z" fill="black" fill-opacity="0.4"/>
<path d="M130.312 159.289C171.863 159.289 205.915 138.753 209.015 112.684L209.243 109.191C208.914 86.5598 173.702 68.2666 130.312 68.2666C86.9223 68.2666 51.7098 86.5598 51.381 109.191L51.6087 112.684C54.7091 138.753 88.7611 159.289 130.312 159.289Z" fill="black" fill-opacity="0.15"/>
</svg>
