<svg width="180" height="180" viewBox="0 0 180 180" fill="none" xmlns="http://www.w3.org/2000/svg">
<path d="M95.31 107.961C95.31 110.753 93.2794 112.15 89.2181 112.15C84.7761 112.15 82.5548 110.753 82.5548 107.961C82.5548 94.5079 78.1762 83.7838 69.4192 75.7879C61.9307 68.8073 54.4427 65.3169 46.9545 65.3169C40.4817 65.3169 35.3415 67.0303 31.534 70.4571C27.7265 73.8838 25.8227 78.7702 25.8227 85.1164C25.8227 89.5584 28.6149 95.841 34.1993 103.964C38.5145 110.31 42.5124 115.005 46.193 118.051C48.6044 120.082 52.7928 121.097 58.7576 121.097C64.9766 121.097 75.0032 119.955 88.8373 117.671C102.799 119.955 112.888 121.097 119.107 121.097C125.2 121.097 129.388 120.082 131.672 118.051C135.987 114.244 140.239 109.231 144.428 103.012C149.504 95.5232 152.043 89.5584 152.043 85.1164C152.043 78.7702 150.139 73.8838 146.331 70.4571C142.523 67.0303 137.383 65.3169 130.911 65.3169C123.676 65.3169 116.188 68.8708 108.446 75.978C99.6891 83.8468 95.31 94.5079 95.31 107.961ZM146.902 84.9257C146.902 89.7486 144.11 95.5237 138.526 102.25C133.449 108.215 129.007 112.15 125.2 114.054C122.026 114.561 118.853 114.815 115.68 114.815C105.781 114.815 100.895 112.848 101.022 108.914C101.148 96.7292 104.766 87.147 111.873 80.1664C117.711 74.2011 123.93 71.2187 130.53 71.2187C135.099 71.2187 138.843 72.3611 141.762 74.6454C145.189 77.0569 146.902 80.4836 146.902 84.9257ZM124.247 145.466C124.247 143.054 119.869 141.341 111.112 140.326C103.116 139.564 95.8179 139.183 89.2181 139.183C82.872 139.183 77.2881 139.437 72.4652 139.945L66.7536 140.516C58.1231 141.658 53.8081 143.245 53.8081 145.275C53.8081 147.56 55.9657 148.702 60.2809 148.702C62.0578 148.702 65.5481 148.448 70.7518 147.94C80.1433 146.925 86.2357 146.418 89.028 146.418C92.2005 146.418 96.9604 146.798 103.306 147.56C109.652 148.321 114.411 148.702 117.584 148.702C122.027 148.702 124.247 147.623 124.247 145.466ZM137.574 151.177C137.32 161.965 121.138 167.359 89.028 167.359C57.1714 167.359 41.0528 162.029 40.6721 151.367C40.4183 140.579 38.8952 131.505 36.1031 124.143C34.4531 119.828 31.1533 114.307 26.2034 107.581C19.9845 99.3307 16.875 91.9063 16.875 85.3065C16.875 77.3106 19.7941 70.5842 25.6323 65.1268C31.4705 59.6694 38.3876 56.9402 46.3834 56.9402C54.633 56.9402 62.5022 59.9867 69.9902 66.0786C69.9902 62.3981 70.1803 58.8442 70.5611 55.4174C70.6882 54.2752 71.1956 52.8156 72.0844 51.0388C73.3534 47.7389 77.0338 44.0583 83.1262 39.9969V34.476L73.4169 28.5743V20.0073H82.1745L85.0297 11.25H93.0257L96.2623 20.0073H104.829V28.5743L95.1199 34.476V39.9969C101.212 44.439 104.893 48.1196 106.162 51.0388C106.923 52.6887 107.494 54.9732 107.875 57.8925C108.002 59.796 108.192 62.5247 108.446 66.0786C115.808 59.9867 123.549 56.9402 131.672 56.9402C139.541 56.9402 146.458 59.6059 152.423 64.9361C158.388 70.2669 161.371 77.0569 161.371 85.3065C161.371 91.9063 158.262 99.3943 152.043 107.771C150.393 110.055 148.552 112.657 146.522 115.576C142.841 121.288 140.303 128.014 138.907 135.757C138.145 139.691 137.701 144.831 137.574 151.177ZM31.1533 84.9257C31.1533 80.6108 32.7397 77.2476 35.9126 74.8361C39.0856 72.4247 42.8297 71.2187 47.1449 71.2187C53.8715 71.2187 60.2173 74.2646 66.1826 80.3571C73.0361 87.2106 76.59 96.7292 76.8437 108.914C76.9708 110.944 75.6383 112.467 72.846 113.482C70.1803 114.371 66.69 114.815 62.3751 114.815C59.0754 114.815 55.8388 114.561 52.6659 114.054C48.4775 112.023 43.972 108.025 39.1491 102.06C33.8185 95.3331 31.1533 89.622 31.1533 84.9257Z" fill="#352626"/>
<path d="M95.31 107.961C95.31 110.753 93.2794 112.15 89.2181 112.15C84.7761 112.15 82.5548 110.753 82.5548 107.961C82.5548 94.5079 78.1763 83.7838 69.4187 75.7879C61.9307 68.8073 54.4426 65.3169 46.9545 65.3169C40.4817 65.3169 35.3415 67.0303 31.534 70.4571C27.7264 73.8838 25.8227 78.7702 25.8227 85.1164C25.8227 89.5584 28.6149 95.841 34.1993 103.964C38.5145 110.31 42.5124 115.005 46.193 118.051C48.6044 120.082 52.7927 121.097 58.7576 121.097C64.9766 121.097 75.0032 119.955 88.8373 117.671C102.799 119.955 112.888 121.097 119.107 121.097C125.2 121.097 129.388 120.082 131.672 118.051C135.987 114.244 140.239 109.231 144.428 103.012C149.504 95.5232 152.043 89.5584 152.043 85.1164C152.043 78.7702 150.139 73.8838 146.331 70.4571C142.523 67.0303 137.383 65.3169 130.911 65.3169C123.676 65.3169 116.188 68.8708 108.446 75.978C99.6891 83.8468 95.31 94.5079 95.31 107.961ZM146.903 84.9257C146.903 89.7486 144.11 95.5232 138.526 102.25C133.449 108.215 129.007 112.15 125.2 114.054C122.027 114.561 118.853 114.815 115.68 114.815C105.781 114.815 100.895 112.848 101.022 108.914C101.148 96.7292 104.766 87.147 111.873 80.1664C117.711 74.2011 123.93 71.2187 130.53 71.2187C135.099 71.2187 138.843 72.3611 141.762 74.6454C145.189 77.0569 146.903 80.4836 146.903 84.9257ZM124.247 145.466C124.247 143.054 119.869 141.34 111.112 140.325C103.116 139.564 95.8179 139.183 89.2181 139.183C82.872 139.183 77.2881 139.437 72.4652 139.945L66.7536 140.516C58.1231 141.658 53.8081 143.245 53.8081 145.275C53.8081 147.56 55.9657 148.702 60.2809 148.702C62.0578 148.702 65.5481 148.448 70.7518 147.94C80.1433 146.925 86.2358 146.418 89.028 146.418C92.2005 146.418 96.9604 146.798 103.306 147.559C109.652 148.321 114.411 148.702 117.584 148.702C122.027 148.702 124.247 147.623 124.247 145.466ZM31.1532 84.9257C31.1532 80.6108 32.7397 77.247 35.9126 74.8356C39.0856 72.4241 42.8297 71.2187 47.1449 71.2187C53.8715 71.2187 60.2173 74.2646 66.1826 80.3565C73.0361 87.2106 76.59 96.7292 76.8437 108.914C76.9708 110.944 75.6377 112.467 72.846 113.482C70.1803 114.371 66.69 114.815 62.3751 114.815C59.0749 114.815 55.8388 114.561 52.6658 114.054C48.4775 112.023 43.9719 108.025 39.149 102.059C33.8185 95.3331 31.1532 89.622 31.1532 84.9257Z" fill="#EED6C4"/>
</svg>
