<svg width="180" height="180" viewBox="0 0 180 180" fill="none" xmlns="http://www.w3.org/2000/svg">
<path d="M133.04 153.098C133.04 139.645 130.248 129.048 124.664 121.305C121.237 116.482 115.779 111.914 108.291 107.598C102.072 103.918 98.9629 100.555 98.9629 97.5083C98.9629 96.3664 99.2801 95.4776 99.9146 94.8431C100.676 94.2086 101.945 93.3834 103.722 92.3681C107.149 90.3375 109.56 88.3069 110.956 86.2763C112.353 84.2456 113.051 81.3263 113.051 77.5187C113.051 70.5386 109.307 64.827 101.819 60.3849C99.7881 59.1159 98.3284 58.1642 97.4396 57.5291C96.6786 56.7681 96.2978 55.8159 96.2978 54.6736C96.2978 51.7546 97.1224 49.2797 98.7728 47.249C99.7881 45.726 100.423 44.6472 100.676 44.0126C100.93 43.2511 101.057 42.0454 101.057 40.3954C101.057 37.7301 99.9146 35.4457 97.6303 33.5419C95.4726 31.6381 92.9976 30.6862 90.2059 30.6862C87.5402 30.6862 85.1287 31.6381 82.971 33.5419C80.8138 35.4457 79.7349 37.7301 79.7349 40.3954C79.7349 42.8069 80.4966 45.0914 82.0192 47.249C83.6691 49.2797 84.4943 51.7546 84.4943 54.6736C84.4943 55.8159 84.0499 56.8311 83.1617 57.7198C82.2729 58.4814 80.8768 59.3696 78.9733 60.3849C71.6119 64.827 67.9314 70.5386 67.9314 77.5187C67.9314 83.7377 71.0409 88.6877 77.2599 92.3681C78.5289 93.1297 79.6078 93.9549 80.4966 94.8431C81.3848 95.7319 81.8291 96.6201 81.8291 97.5083C81.8291 100.555 78.7196 103.918 72.5006 107.598C64.8855 112.168 59.4281 116.8 56.1282 121.496C50.6707 129.238 47.9419 139.772 47.9419 153.098H133.04ZM39.5653 162.617C39.4384 159.698 39.375 156.018 39.375 151.575C39.375 139.899 41.4056 129.872 45.467 121.496C50.036 112.485 58.6029 104.806 71.1681 98.4606C66.9797 97.191 63.6795 94.3988 61.2681 90.0838C58.9838 86.2763 57.8413 82.0243 57.8413 77.3286C57.8413 66.5404 63.2357 58.9252 74.0239 54.4833C71.3582 49.7873 70.0256 45.2818 70.0256 40.9666C70.0256 35.5091 72.0562 31.067 76.1175 27.6402C80.3059 24.2134 85.1288 22.5 90.5861 22.5C96.0441 22.5 100.803 24.2769 104.865 27.8305C108.926 31.2573 110.956 35.636 110.956 40.9666C110.956 45.2818 109.56 49.7873 106.768 54.4833C117.683 58.9252 123.141 66.5404 123.141 77.3286C123.141 81.7706 121.998 86.0226 119.714 90.0838C117.049 94.3988 113.685 97.191 109.624 98.4606C122.316 104.933 130.946 112.675 135.515 121.686C139.577 129.809 141.607 139.772 141.607 151.575C141.607 155.637 141.481 159.317 141.226 162.617H39.5653Z" fill="#483434"/>
<path d="M133.04 153.098C133.04 139.645 130.248 129.048 124.664 121.305C121.237 116.482 115.779 111.914 108.291 107.598C102.072 103.918 98.9629 100.554 98.9629 97.5082C98.9629 96.3664 99.2801 95.4776 99.9146 94.8431C100.676 94.2086 101.945 93.3834 103.722 92.3681C107.149 90.3375 109.56 88.3069 110.956 86.2763C112.353 84.2456 113.051 81.3263 113.051 77.5187C113.051 70.5386 109.307 64.827 101.819 60.3849C99.7881 59.1159 98.3284 58.1636 97.4402 57.5291C96.6786 56.7681 96.2977 55.8159 96.2977 54.6736C96.2977 51.7546 97.1224 49.2797 98.7727 47.249C99.7881 45.726 100.423 44.6471 100.676 44.0126C100.93 43.2511 101.057 42.0453 101.057 40.3954C101.057 37.7301 99.9146 35.4456 97.6303 33.5418C95.4726 31.6381 92.9976 30.6862 90.2059 30.6862C87.5402 30.6862 85.1287 31.6381 82.971 33.5418C80.8138 35.4456 79.7349 37.7301 79.7349 40.3954C79.7349 42.8068 80.4966 45.0914 82.0192 47.249C83.6691 49.2797 84.4942 51.7546 84.4942 54.6736C84.4942 55.8159 84.0499 56.8311 83.1617 57.7198C82.2735 58.4814 80.8774 59.3696 78.9733 60.3849C71.6119 64.827 67.9314 70.5386 67.9314 77.5187C67.9314 83.7377 71.0409 88.6877 77.2599 92.3681C78.5289 93.1297 79.6078 93.9549 80.4966 94.8431C81.3847 95.7313 81.8291 96.6201 81.8291 97.5082C81.8291 100.554 78.7196 103.918 72.5006 107.598C64.8855 112.168 59.4281 116.8 56.1282 121.496C50.6707 129.238 47.9419 139.772 47.9419 153.098H133.04Z" fill="#FFF3E4"/>
</svg>
