<svg width="180" height="180" viewBox="0 0 180 180" fill="none" xmlns="http://www.w3.org/2000/svg">
<path d="M49.0309 140.135C49.0309 142.546 50.8078 143.752 54.3615 143.752C56.3923 143.752 59.2476 143.562 62.9286 143.181C66.7361 142.8 69.4012 142.61 70.9245 142.61L85.2024 142.039C86.5986 141.912 87.8046 141.848 88.8199 141.848C92.3732 141.848 97.0059 142.102 102.717 142.61C109.57 142.991 114.203 143.245 116.615 143.372C117.123 143.372 118.011 143.435 119.28 143.562C120.676 143.689 121.691 143.752 122.326 143.752C125.88 143.752 127.657 142.483 127.657 139.945C127.657 137.406 123.595 135.439 115.472 134.043C110.649 133.154 104.113 132.583 95.8635 132.33C93.4521 132.33 90.9771 132.33 88.4391 132.33C71.0511 132.33 59.0574 133.726 52.4577 136.518C50.1732 137.533 49.0309 138.739 49.0309 140.135ZM19.1418 40.568C17.4918 40.568 16.0957 41.1392 14.9535 42.2814C13.8112 43.4237 13.2401 44.8198 13.2401 46.4697C13.2401 48.1196 13.8112 49.5792 14.9535 50.8484C16.0957 51.9906 17.4918 52.5617 19.1418 52.5617C22.9493 52.5617 24.8531 50.5311 24.8531 46.4697C24.8531 42.5352 22.9493 40.568 19.1418 40.568ZM50.3635 25.5283C46.3022 25.5283 44.2715 27.4955 44.2715 31.4299C44.2715 35.4913 46.3022 37.522 50.3635 37.522C54.1711 37.522 56.0749 35.4913 56.0749 31.4299C56.0749 27.4955 54.1711 25.5283 50.3635 25.5283ZM126.324 25.5283C124.801 25.5283 123.468 26.1628 122.326 27.4321C121.184 28.5743 120.612 29.9069 120.612 31.4299C120.612 35.4913 122.516 37.522 126.324 37.522C130.258 37.522 132.226 35.4913 132.226 31.4299C132.226 27.4955 130.258 25.5283 126.324 25.5283ZM157.355 40.568C153.548 40.568 151.644 42.5352 151.644 46.4697C151.644 50.5311 153.548 52.5617 157.355 52.5617C161.29 52.5617 163.257 50.5311 163.257 46.4697C163.257 44.8198 162.686 43.4237 161.544 42.2814C160.401 41.1392 159.005 40.568 157.355 40.568ZM140.031 154.223C140.031 158.792 131.908 161.902 115.663 163.551C108.429 164.186 102.781 164.63 98.7193 164.884L92.4368 165.075C90.6598 165.075 89.2637 165.075 88.2484 165.075C69.084 165.075 54.298 163.424 43.8908 160.125C39.0679 158.601 36.6564 156.634 36.6564 154.223C36.6564 149.273 37.9256 144.07 40.4639 138.612C42.1139 135.312 42.9389 132.837 42.9389 131.187C42.9389 127.761 39.1948 121.732 31.7066 113.101C27.3914 108.025 25.1704 105.042 25.0435 104.154C25.0435 103.265 24.5993 101.108 23.7108 97.6809L20.6648 85.6873C19.7763 82.2606 19.0783 79.2146 18.5706 76.5495C17.6822 71.3458 17.0476 66.2057 16.6669 61.1286C9.30561 57.8289 5.625 52.9425 5.625 46.4697C5.625 42.7891 6.95767 39.6796 9.62291 37.1413C12.2882 34.476 15.4612 33.1433 19.1418 33.1433C22.6955 33.1433 25.805 34.476 28.4702 37.1413C31.1355 39.6796 32.4681 42.7891 32.4681 46.4697C32.4681 47.1043 32.2778 48.3735 31.897 50.2773C31.5163 52.8156 31.3258 54.5925 31.3258 55.6078C31.3258 62.4611 36.4026 71.1551 46.556 81.6896C47.4445 73.9474 47.8887 67.1574 47.8887 61.3192C47.8887 54.2117 47.1906 49.0715 45.7945 45.8986C44.7792 43.4872 43.2561 41.6468 41.2255 40.3777C38.3064 38.6008 36.8468 35.4913 36.8468 31.0492C36.8468 27.3685 38.116 24.2591 40.6543 21.7207C43.3196 19.0555 46.556 17.7228 50.3635 17.7228C53.9173 17.7228 57.0268 19.0555 59.6919 21.7207C62.3571 24.2591 63.6902 27.3685 63.6902 31.0492C63.6902 31.9376 63.4359 33.5241 62.9286 35.8086C62.4206 38.0931 62.1669 39.9334 62.1669 41.3295C62.1669 50.5946 66.4819 64.1745 75.1123 82.0704C76.1276 77.6278 77.4608 71.0286 79.1106 62.271C79.8722 56.4328 80.2524 51.5464 80.2524 47.612C80.2524 41.0123 79.047 34.9202 76.6356 29.3358C75.6202 27.1782 75.1123 25.5917 75.1123 24.5764C75.1123 20.8957 76.3819 17.7862 78.9199 15.2479C81.5856 12.5826 84.7581 11.25 88.4391 11.25C91.9924 11.25 95.0389 12.5826 97.5769 15.2479C100.115 17.7862 101.384 20.8957 101.384 24.5764C101.384 25.8455 100.813 27.8763 99.6711 30.6685C98.2749 34.0952 97.4503 36.2528 97.1961 37.1413C96.6887 39.6796 96.435 43.1698 96.435 47.612C96.435 54.5925 97.3232 62.5247 99.1001 71.4088C99.7346 74.709 100.496 78.2629 101.384 82.0704C109.888 63.9208 114.14 50.3407 114.14 41.3295C114.14 40.0603 113.886 38.347 113.378 36.1893C112.997 33.9049 112.807 32.1914 112.807 31.0492C112.807 27.2416 114.076 24.0687 116.615 21.5304C119.28 18.992 122.516 17.7228 126.324 17.7228C130.004 17.7228 133.114 19.0555 135.652 21.7207C138.318 24.386 139.65 27.4955 139.65 31.0492C139.65 35.4913 138.19 38.6643 135.272 40.568C131.845 42.8525 129.814 46.7236 129.18 52.181C128.799 54.7194 128.608 57.8289 128.608 61.5094C128.608 67.0939 129.053 73.8202 129.941 81.6896C140.095 71.1551 145.171 62.4611 145.171 55.6078C145.171 54.8463 144.981 53.0695 144.6 50.2773C144.219 48.2466 144.029 46.9774 144.029 46.4697C144.029 42.7891 145.362 39.6796 148.027 37.1413C150.692 34.476 153.802 33.1433 157.355 33.1433C161.036 33.1433 164.209 34.476 166.874 37.1413C169.539 39.6796 170.872 42.7891 170.872 46.4697C170.872 52.8156 167.191 57.7018 159.83 61.1286C159.45 65.9514 158.752 71.1551 157.736 76.7396C156.594 83.0857 154.627 91.2718 151.834 101.298C151.581 102.314 151.39 103.265 151.263 104.154C151.263 105.042 150.058 106.883 147.646 109.675L144.79 113.101C137.302 121.986 133.558 128.014 133.558 131.187C133.558 132.583 134.32 134.995 135.843 138.422C137.62 142.483 138.698 145.021 139.079 146.037C139.714 148.321 140.031 151.05 140.031 154.223ZM88.4391 18.294C86.7892 18.294 85.3931 18.8651 84.2507 20.0073C83.1082 21.1496 82.5373 22.5457 82.5373 24.1956C82.5373 25.7186 83.1082 27.1147 84.2507 28.3839C85.3931 29.5262 86.7892 30.0973 88.4391 30.0973C92.2466 30.0973 94.1501 28.1301 94.1501 24.1956C94.1501 22.5457 93.5792 21.1496 92.4368 20.0073C91.2943 18.8651 89.9617 18.294 88.4391 18.294ZM131.273 111.008C131.273 108.215 126.895 106.185 118.138 104.915C110.649 103.9 100.75 103.393 88.4391 103.393C76.1276 103.393 66.1646 103.963 58.5495 105.106C49.7924 106.502 45.4138 108.533 45.4138 111.198C45.4138 113.482 47.4445 114.625 51.5058 114.625C53.6635 114.625 56.646 114.497 60.4536 114.244C64.7685 113.863 67.7514 113.609 69.4013 113.482L84.8216 112.911C86.3449 112.911 87.6774 112.911 88.8199 112.911C94.2773 112.911 102.653 113.292 113.95 114.054C115.98 114.054 119.026 114.18 123.087 114.434C124.23 114.561 125.054 114.625 125.562 114.625C129.37 114.625 131.273 113.419 131.273 111.008Z" fill="#483434"/>
<path d="M49.0308 140.135C49.0308 142.547 50.8076 143.752 54.3612 143.752C56.3917 143.752 59.2476 143.562 62.928 143.181C66.7356 142.8 69.4012 142.61 70.9239 142.61L85.2024 142.039C86.5986 141.912 87.804 141.848 88.8193 141.848C92.3732 141.848 97.0059 142.102 102.717 142.61C109.57 142.991 114.203 143.245 116.615 143.372C117.122 143.372 118.011 143.435 119.28 143.562C120.676 143.689 121.691 143.752 122.326 143.752C125.88 143.752 127.657 142.483 127.657 139.945C127.657 137.406 123.595 135.439 115.472 134.043C110.649 133.154 104.113 132.583 95.8635 132.33C93.4521 132.33 90.9771 132.33 88.4385 132.33C71.0511 132.33 59.0574 133.726 52.4575 136.518C50.173 137.533 49.0308 138.739 49.0308 140.135ZM19.1416 40.5681C17.4917 40.5681 16.0955 41.1392 14.9533 42.2814C13.811 43.4237 13.2399 44.8198 13.2399 46.4697C13.2399 48.1197 13.811 49.5792 14.9533 50.8484C16.0955 51.9906 17.4917 52.5618 19.1416 52.5618C22.9491 52.5618 24.8529 50.5311 24.8529 46.4697C24.8529 42.5353 22.9491 40.5681 19.1416 40.5681ZM50.3634 25.5283C46.302 25.5283 44.2713 27.4955 44.2713 31.43C44.2713 35.4913 46.302 37.522 50.3634 37.522C54.1709 37.522 56.0747 35.4913 56.0747 31.43C56.0747 27.4955 54.1709 25.5283 50.3634 25.5283ZM126.323 25.5283C124.801 25.5283 123.468 26.1629 122.326 27.4321C121.183 28.5743 120.612 29.9069 120.612 31.43C120.612 35.4913 122.516 37.522 126.323 37.522C130.258 37.522 132.225 35.4913 132.225 31.43C132.225 27.4955 130.258 25.5283 126.323 25.5283ZM157.355 40.5681C153.547 40.5681 151.644 42.5353 151.644 46.4697C151.644 50.5311 153.547 52.5618 157.355 52.5618C161.29 52.5618 163.257 50.5311 163.257 46.4697C163.257 44.8198 162.686 43.4237 161.543 42.2814C160.401 41.1392 159.005 40.5681 157.355 40.5681ZM88.4385 18.294C86.7887 18.294 85.3926 18.8651 84.2507 20.0073C83.1082 21.1496 82.5373 22.5457 82.5373 24.1957C82.5373 25.7186 83.1082 27.1147 84.2507 28.3839C85.3926 29.5262 86.7887 30.0973 88.4385 30.0973C92.2461 30.0973 94.1501 28.1301 94.1501 24.1957C94.1501 22.5457 93.5786 21.1496 92.4368 20.0073C91.2943 18.8651 89.9617 18.294 88.4385 18.294ZM131.273 111.008C131.273 108.215 126.895 106.185 118.137 104.915C110.649 103.9 100.75 103.393 88.4385 103.393C76.1276 103.393 66.1646 103.963 58.5495 105.106C49.7922 106.502 45.4135 108.533 45.4135 111.198C45.4135 113.482 47.4443 114.625 51.5056 114.625C53.6632 114.625 56.646 114.497 60.4536 114.244C64.7685 113.863 67.7509 113.609 69.4013 113.482L84.8216 112.911C86.3443 112.911 87.6774 112.911 88.8193 112.911C94.2767 112.911 102.653 113.292 113.949 114.054C115.98 114.054 119.026 114.18 123.087 114.434C124.23 114.561 125.054 114.625 125.562 114.625C129.37 114.625 131.273 113.419 131.273 111.008Z" fill="#EED6C4"/>
</svg>
