<svg width="180" height="180" viewBox="0 0 180 180" fill="none" xmlns="http://www.w3.org/2000/svg">
<path d="M32.6941 166.91L28.125 162.341V145.587L52.3028 121.79V74.3867L33.6459 56.1104V34.7882L40.3091 28.125H57.2524L61.4408 32.3133V38.215H70.5791V32.3133L74.5768 28.125H101.039L105.037 32.3133V38.215H114.175V32.3133L118.173 28.125H135.307L141.971 34.7882V56.1104L123.313 74.3867V121.79L147.491 145.587V162.341L142.732 166.91H32.6941ZM60.8698 116.269V124.265H114.747V116.269H60.8698ZM60.8698 73.4349V81.4303H114.747V73.4349H60.8698Z" fill="#483434"/>
<path d="M60.8698 116.269V124.265H114.747V116.269H60.8698ZM60.8698 73.4349V81.4303H114.747V73.4349H60.8698Z" fill="#EED6C4"/>
</svg>
