<svg width="256" height="256" viewBox="0 0 256 256" fill="none" xmlns="http://www.w3.org/2000/svg">
<path fill-rule="evenodd" clip-rule="evenodd" d="M135.718 60.6795H154.398V76.6906H135.718V88.4903L152.295 107.395C154.062 109.414 157.056 109.803 159.285 108.306C164.692 104.674 174.705 97.9462 182.666 92.5989C184.511 91.3615 186.929 91.3927 188.737 92.6823C190.548 93.9719 191.37 96.2473 190.801 98.3944C184.089 123.747 170.409 175.427 170.409 175.427L194.425 212.728V234.134H61V212.728L85.0166 175.427C85.0166 175.427 71.3359 123.745 64.6246 98.3944C64.0572 96.2471 64.8792 93.9716 66.6885 92.6823C68.4963 91.3927 70.9162 91.3615 72.7598 92.5989C80.7207 97.9462 90.7322 104.676 96.1405 108.306C98.3697 109.803 101.363 109.414 103.13 107.395L119.707 88.4903V76.6906H101.028V60.6795H119.707V42H135.718L135.718 60.6795Z" fill="url(#paint0_angular_1_51)" stroke="black" stroke-width="5"/>
<defs>
<radialGradient id="paint0_angular_1_51" cx="0" cy="0" r="1" gradientUnits="userSpaceOnUse" gradientTransform="translate(127.713 138.067) rotate(90) scale(96.0669 66.7127)">
<stop stop-color="#777777"/>
<stop offset="1" stop-color="#5A5A5A"/>
</radialGradient>
</defs>
</svg>
