<svg width="50" height="50" viewBox="0 0 50 50" fill="none" xmlns="http://www.w3.org/2000/svg">
<path fill-rule="evenodd" clip-rule="evenodd" d="M22.968 12.421H28.4397H22.968ZM25.0027 3.1922C25.0027 3.1922 21.2405 7.294 21.2132 9.21C21.2148 10.5279 21.8786 11.7331 22.968 12.4209H21.563C20.8072 12.4209 20.199 13.2129 20.199 14.1964C20.199 15.1798 20.8072 15.9713 21.563 15.9713H28.4397C29.1954 15.9713 29.8037 15.1798 29.8037 14.1964C29.8037 13.2129 29.1955 12.4209 28.4397 12.4209H27.0374C28.1268 11.733 28.7904 10.5278 28.7922 9.21C28.765 7.294 25.0027 3.1922 25.0027 3.1922V3.1922Z" fill="url(#paint0_linear_1_528)" stroke="black" stroke-width="1.2" stroke-linejoin="round"/>
<path opacity="0.2" fill-rule="evenodd" clip-rule="evenodd" d="M25.003 3.192C25.003 3.192 25.5267 2.55937 25.003 3.192C25.0686 6.4262 29.2181 10.1378 25.1889 13.135H26.5912C27.347 13.135 27.9552 13.2129 27.9552 14.1963C27.9553 15.1798 27.347 15.9712 26.5912 15.9712H25.0273C24.73 16.0775 24.4114 16.1603 24.0786 16.2167C24.3762 16.2671 24.685 16.2967 25.003 16.2967C25.6764 16.2967 26.3129 16.1726 26.8761 15.9713H28.44C29.1957 15.9713 29.804 15.1798 29.8039 14.1964C29.8039 13.2129 29.1868 12.2707 28.44 12.4209L27.0377 12.7029C28.1271 12.015 28.7907 10.5279 28.7925 9.20998C28.7653 7.29398 25.003 3.19218 25.003 3.19218L25.003 3.192Z" fill="black"/>
<path fill-rule="evenodd" clip-rule="evenodd" d="M39.886 20.265C38.5039 17.1285 32.5057 14.9297 25 14.9297C17.4947 14.9297 11.496 17.1285 10.114 20.265C8.7321 23.4008 17.7283 37.515 17.7283 37.515H32.2713C32.2713 37.515 41.2676 23.401 39.8855 20.265H39.886Z" fill="url(#paint1_linear_1_528)" stroke="black" stroke-width="1.2" stroke-linejoin="round"/>
<path opacity="0.2" fill-rule="evenodd" clip-rule="evenodd" d="M27.739 14.984C42.488 19.2358 30.0088 36.31 23.5773 37.446L32.2707 37.5158C32.2707 37.5158 41.2676 22.3228 39.8856 19.1868C38.8453 16.4866 33.5957 15.156 27.7386 14.9836L27.739 14.984Z" fill="black"/>
<path fill-rule="evenodd" clip-rule="evenodd" d="M25 36.457C25 36.457 16.4221 36.5051 14.017 38.0762C12.3943 39.1364 12.0115 41.7276 12.2322 44.3999H37.7682C37.9889 41.7276 37.6061 39.1363 35.9834 38.0762C33.5787 36.5051 25.0004 36.457 25.0004 36.457H25Z" fill="url(#paint2_linear_1_528)" stroke="black" stroke-width="1.2" stroke-linejoin="round"/>
<path opacity="0.2" fill-rule="evenodd" clip-rule="evenodd" d="M25 36.457C25 36.457 16.4218 36.5049 14.017 38.076C12.3943 39.1362 12.0116 40.669 12.2324 43.3413H12.3164C12.544 41.9614 13.0667 40.8135 14.017 40.1927C16.4221 38.6216 25 38.5737 25 38.5737C25 38.5737 33.5785 38.6216 35.983 40.1927C36.9333 40.8135 37.4559 41.9615 37.6836 43.3413H37.7676C37.9883 40.669 37.6057 39.1361 35.983 38.076C33.5783 36.5049 25 36.457 25 36.457H25Z" fill="black"/>
<path opacity="0.25" fill-rule="evenodd" clip-rule="evenodd" d="M23.97 15.595C20.0853 15.342 9.86401 17.4373 10.649 21.8354C11.4663 25.5628 13.5671 28.9157 15.3212 32.1764C10.1683 21.8414 9.55751 17.3424 23.9699 15.5954L23.97 15.595Z" fill="white"/>
<path opacity="0.25" fill-rule="evenodd" clip-rule="evenodd" d="M25.106 4.05219C23.3778 5.89039 22.5436 7.29129 22.054 8.28579C21.6524 9.10158 21.7237 9.43599 21.8229 9.89609C21.9937 10.6891 22.5652 11.315 22.736 11.443C21.9111 10.6982 21.8817 7.4656 25.1011 4.02859" fill="white"/>
<path opacity="0.25" fill-rule="evenodd" clip-rule="evenodd" d="M20.761 14.555C20.761 14.555 20.5681 13.1811 21.521 13.1226C22.474 13.0641 24.5144 13.1226 24.5144 13.1226C24.5144 13.1226 21.3865 12.9472 20.7609 14.555H20.761Z" fill="white"/>
<defs>
<linearGradient id="paint0_linear_1_528" x1="19.7172" y1="9.48945" x2="30.2925" y2="9.48945" gradientUnits="userSpaceOnUse">
<stop stop-color="#00C897"/>
<stop offset="1" stop-color="#171717"/>
</linearGradient>
<linearGradient id="paint1_linear_1_528" x1="9.37" y1="26.223" x2="40.64" y2="26.223" gradientUnits="userSpaceOnUse">
<stop stop-color="#00C897"/>
<stop offset="1" stop-color="#171717"/>
</linearGradient>
<linearGradient id="paint2_linear_1_528" x1="11.575" y1="40.43" x2="38.426" y2="40.43" gradientUnits="userSpaceOnUse">
<stop stop-color="#00C897"/>
<stop offset="1" stop-color="#171717"/>
</linearGradient>
</defs>
</svg>
