<svg width="100" height="100" viewBox="0 0 100 100" fill="none" xmlns="http://www.w3.org/2000/svg">
<path d="M28.455 85.4493C33.8079 87.0501 41.5826 88.7343 51.0353 88.6385C59.7421 88.5497 66.95 86.9804 72.0685 85.4493C71.9781 85.1208 71.8395 84.5632 71.684 83.87C71.0966 81.2583 70.2303 75.7492 72.0685 69.9345C74.5891 61.9614 81.0732 52.0407 76.68 37.3967C72.0256 21.8818 50.3269 17.2397 50.3269 17.2397L50.6807 24.5035L25.334 42.8775C23.7256 44.0432 23.335 46.2666 24.431 47.9225C24.951 48.7083 25.4894 49.5967 25.9451 50.5089C26.3924 51.4027 28.501 54.644 29.8099 55.4873C30.8714 56.172 32.2393 56.1299 33.2664 55.3946C34.8265 54.2779 36.7857 51.7926 42.278 52.3241C56.8056 54.8041 60.4253 46.8801 60.4253 46.8801C60.4253 46.8801 58.1222 51.6103 48.7537 56.0142C38.9877 59.7602 32.6093 66.1379 29.3649 76.9325C27.817 82.0809 28.455 85.4493 28.455 85.4493Z" fill="#469140"/>
<path d="M26.1466 49.501L56.7512 32.7262C56.7512 32.7262 60.3808 30.9118 58.5657 27.2822C57.7546 25.6592 51.5531 18.6505 51.5531 18.6505V25.9097L24.3322 45.8714L26.1466 49.501Z" fill="#8DB962"/>
<path d="M63.0462 48.2916C56.7957 58.776 49.3013 64.2522 45.0666 69.0912C41.5312 73.1321 38.9831 82.7051 39.1845 86.7376C39.3063 89.1624 29.1711 84.7876 29.1711 84.7876L31.7928 72.2858L37.2368 62.0028L46.109 55.5501L63.0462 48.2916Z" fill="#8DB962"/>
<path d="M31.3578 83.1286C37.7691 84.8458 44.3658 85.6845 51.0047 85.614C56.9029 85.5543 62.7689 84.7792 68.4818 83.3086C67.7909 79.5902 67.4792 74.4181 69.1849 69.023C69.7218 67.3243 70.405 65.6002 71.1287 63.7751C73.8783 56.836 76.9948 48.9717 73.7833 38.266C70.8247 28.4042 59.5782 23.3631 53.5544 21.3219L53.7022 24.3557C53.752 25.3766 53.2832 26.3531 52.4561 26.9521L27.1086 45.3261C26.8175 45.5374 26.7486 45.9449 26.9531 46.2528C27.6202 47.26 28.1908 48.2372 28.6503 49.1571C29.0578 49.972 30.7581 52.4267 31.4535 52.9483C31.4696 52.9544 31.4918 52.9452 31.5064 52.9353C31.6626 52.8227 31.8633 52.6596 32.0946 52.4704C33.6915 51.1676 36.6624 48.7427 42.569 49.3133C42.6418 49.3202 42.7146 49.3302 42.7866 49.3424C51.7591 50.8742 55.6414 48.0266 57.0392 46.4718C57.5271 45.8744 57.7247 45.5168 57.7316 45.5045C57.7132 45.5382 57.7055 45.5558 57.7055 45.5558L59.0474 45.4111C60.8994 45.2104 62.6326 46.3547 63.1764 48.1361C63.1702 48.1492 63.1595 48.1721 63.1442 48.2035C63.1274 48.2388 63.1013 48.2901 63.0653 48.3575C62.9596 48.5574 62.7781 48.8737 62.5062 49.2659C61.2195 51.1477 57.7967 55.1051 50.0404 58.7515C49.9738 58.7829 49.9056 58.812 49.8367 58.8381C40.5539 62.398 35.1337 68.2472 32.2608 77.8033C31.5883 80.0428 31.3915 81.8818 31.3578 83.1286ZM50.2602 91.6669C42.5828 91.6669 34.9606 90.551 27.5888 88.3475C26.5058 88.0235 25.6932 87.1228 25.4833 86.0123C25.4037 85.5933 24.7572 81.7531 26.4683 76.0624C29.3404 66.5094 34.5569 59.8514 42.7077 55.4543C42.4358 55.4145 42.1623 55.3716 41.8843 55.3249C38.5327 55.0239 37.2039 56.1084 35.9195 57.1569C35.6346 57.3898 35.3389 57.6303 35.0272 57.8539C32.9754 59.3229 30.2832 59.3918 28.1709 58.0293C25.9528 56.5994 23.5287 52.4397 23.24 51.8615C22.8892 51.1599 22.4411 50.3963 21.9088 49.5921C19.9106 46.5737 20.6352 42.5481 23.5586 40.4289L47.5803 23.0153L47.3054 17.3867C47.2602 16.4485 47.6523 15.5424 48.3677 14.9351C49.0838 14.3262 50.0419 14.0857 50.9595 14.2818C51.9169 14.4863 74.4673 19.4945 79.5774 36.5274C83.3923 49.2459 79.5544 58.9315 76.752 66.0031C76.0696 67.7256 75.4247 69.3524 74.9529 70.8467C73.3789 75.825 74.0775 80.7283 74.635 83.2075C74.8234 84.0485 74.9506 84.5211 74.985 84.6459C75.4216 86.2321 74.5117 87.8765 72.9355 88.3475C65.8295 90.4721 58.4714 91.588 51.0659 91.6631C50.7979 91.6654 50.5283 91.6669 50.2602 91.6669Z" fill="black"/>
<path d="M31.5661 75.4045C36.2059 76.7985 42.9734 78.2698 51.2061 78.161C58.6093 78.0637 64.7442 76.7203 69.1236 75.4045" fill="#FFF3E1"/>
<path d="M31.5661 75.4045C36.2059 76.7985 42.9734 78.2698 51.2061 78.161C58.6093 78.0637 64.7442 76.7203 69.1236 75.4045" stroke="black" stroke-width="5.88212" stroke-miterlimit="10" stroke-linecap="round" stroke-linejoin="round"/>
<path d="M54.0514 36.4845C54.0514 38.1266 52.7203 39.4577 51.0782 39.4577C49.4361 39.4577 48.105 38.1266 48.105 36.4845C48.105 34.8424 49.4361 33.512 51.0782 33.512C52.7203 33.512 54.0514 34.8424 54.0514 36.4845Z" fill="black"/>
</svg>
