<svg width="16" height="16" viewBox="0 0 16 16" fill="none" xmlns="http://www.w3.org/2000/svg">
<path fill-rule="evenodd" clip-rule="evenodd" d="M9 1H7V2H6V4H7V5H6V6H5V7H4V11H5V12H4V13H3V15H13V13H12V12H11V11H12V7H11V6H10V5H9V4H10V2H9V1ZM10 7V6H9V7H8V8H9V7H10Z" fill="#111111"/>
<path d="M7 2V4H9V2H7Z" fill="#2CA900"/>
<path d="M4 14V13H12V14H4Z" fill="#2CA900"/>
<path d="M7 5H9V8H8V9H9V8H10V7H11V11H10V12H6V11H5V7H6V6H7V5Z" fill="#2CA900"/>
<path d="M8 2H7V4H8V2Z" fill="#A3DC00"/>
<path d="M6 7H5V11H6V12H7V11H6V7Z" fill="#A3DC00"/>
<path d="M4 14V13H6V14H4Z" fill="#A3DC00"/>
<path d="M7 2H8V3H7V2Z" fill="#D2FF73"/>
<path d="M5 7V8H6V7H7V6H6V7H5Z" fill="#D2FF73"/>
<path d="M9 2H8V4H9V2Z" fill="#005618"/>
<path d="M9 5H8V6H9V7H10V11H9V12H10V11H11V7H10V6H9V5Z" fill="#005618"/>
<path d="M9 14V13H12V14H9Z" fill="#005618"/>
</svg>
