<svg width="64" height="64" viewBox="0 0 64 64" fill="none" xmlns="http://www.w3.org/2000/svg">
<path d="M16.0001 56C16.0001 59.75 26.9376 61 33.5001 61C40.0626 61 51.0001 59.75 51.0001 56C51.0001 52.25 39.5129 51 33.5001 51C27.4872 51 16.0001 52.25 16.0001 56Z" fill="url(#paint0_linear_1_535)"/>
<path d="M24 49C6.99998 28 32 13 32 13C32 13 57 28 40 49" fill="#FF2171"/>
<path d="M33 16C26 24 19 41 34 50L24 49C7.99998 32 22 17 32 15L33 16Z" fill="#FF68A3"/>
<path d="M24 49C6.99998 26 32 15 32 15C32 15 57 26 40 49" stroke="black" stroke-width="3.99999" stroke-miterlimit="2.4" stroke-linejoin="round"/>
<path d="M19 48C19 48 18 50 18.0001 54C24.0001 56 32.0001 56 32.0001 56C32.0001 56 40.0001 56 46.0001 54C46 50 45 48 45 48C40 50 32 50 32 50C32 50 24 50 19 48Z" fill="#FF2171"/>
<path d="M19 48L18 54L25 55L26 50L19 48Z" fill="#FF68A3"/>
<path d="M19 48C19 48 18 50 18.0001 54C24.0001 56 32.0001 56 32.0001 56C32.0001 56 40.0001 56 46.0001 54C46 50 45 48 45 48C40 50 32 50 32 50C32 50 24 50 19 48Z" stroke="black" stroke-width="3.99999" stroke-linecap="round" stroke-linejoin="round"/>
<path d="M32 15C34.2091 15 36 13.2092 36 11C36 8.79089 34.2091 7.00003 32 7.00003C29.7908 7.00003 28 8.79089 28 11C28 13.2092 29.7908 15 32 15Z" fill="#FF68A3" stroke="black" stroke-width="3.99999" stroke-linejoin="round"/>
<path d="M32 15C44 21 36 29 32 33" stroke="black" stroke-width="3.99999" stroke-miterlimit="2.4" stroke-linecap="round" stroke-linejoin="round"/>
<defs>
<linearGradient id="paint0_linear_1_535" x1="16.0001" y1="103.5" x2="424.489" y2="103.5" gradientUnits="userSpaceOnUse">
<stop stop-opacity="0.2"/>
</linearGradient>
</defs>
</svg>
