<svg width="100" height="100" viewBox="0 0 100 100" fill="none" xmlns="http://www.w3.org/2000/svg">
<path d="M57.7594 17.5572C57.7594 21.3173 54.7117 24.365 50.9517 24.365C47.1917 24.365 44.144 21.3173 44.144 17.5572C44.144 13.7972 47.1917 10.7495 50.9517 10.7495C54.7117 10.7495 57.7594 13.7972 57.7594 17.5572Z" fill="#9D5353"/>
<path d="M57.7594 17.5572C57.7594 21.3173 54.7117 24.365 50.9517 24.365C47.1917 24.365 44.144 21.3173 44.144 17.5572C44.144 13.7972 47.1917 10.7495 50.9517 10.7495C54.7117 10.7495 57.7594 13.7972 57.7594 17.5572Z" stroke="black" stroke-width="5.86335" stroke-miterlimit="10" stroke-linejoin="round"/>
<path d="M71.0084 41.016C59.9605 44.0186 52.5847 62.7936 52.5847 62.7936C52.5847 62.7936 53.4986 45.8838 61.3499 31.5025C55.8981 27.1508 51.0654 24.4581 51.0654 24.4581C51.0654 24.4581 25.2644 38.5553 25.4415 54.6925C25.6194 70.8297 38.3867 83.4199 36.7911 86.7898C35.1947 90.1589 66.9369 89.9818 65.3405 86.7898C63.7449 83.5978 76.3351 70.6526 76.513 54.6925C76.5664 49.8629 74.2554 45.1883 71.0084 41.016Z" fill="#632626"/>
<path d="M51.8877 25.7545C42.0177 42.7582 39.6724 50.3805 39.6724 55.6575C39.6724 66.7826 49.6401 84.5834 44.8517 87.3196H37.8157L29.0206 69.7296L25.5026 57.4165L27.2616 46.8625L34.2976 38.0675L51.8877 25.7545Z" fill="#9D5353"/>
<path d="M39.8419 85.5163C41.678 85.9194 45.4525 86.3187 50.744 86.3187C50.8563 86.3187 50.9685 86.3187 51.0815 86.3187C56.5272 86.3012 60.417 85.8782 62.3012 85.4637C62.5516 83.4451 63.8824 81.0471 65.7055 77.7627C68.9861 71.8505 73.4805 63.7532 73.5813 54.6597C73.6164 51.5188 72.3964 48.1215 69.9526 44.5386C62.8876 47.9756 57.0731 59.4031 55.3125 63.8678C54.785 65.2053 53.3634 65.965 51.9602 65.6573C50.5547 65.3504 49.5798 64.0716 49.6569 62.6355C49.6935 61.9538 50.6028 46.548 57.6212 32.324C54.9003 30.2825 52.4946 28.7388 51.0532 27.8563C48.8499 29.1832 44.402 32.0263 40.0259 35.8092C34.6664 40.4434 28.2938 47.4756 28.3732 54.6605C28.474 63.8349 33.0211 71.8405 36.3414 77.6863C38.2417 81.0318 39.6159 83.4512 39.8419 85.5163ZM50.7654 92.1821C47.5535 92.1821 44.4493 92.0355 41.9849 91.766C37.5637 91.2827 36.0994 90.5391 35.2512 89.8749C33.9984 88.8946 33.5151 87.37 33.9701 85.9645C33.7495 84.9949 32.3669 82.561 31.243 80.5821C27.8121 74.5416 22.6274 65.4138 22.5099 54.7246C22.4266 47.1282 27.057 39.2486 36.2727 31.3033C42.8613 25.6239 49.3858 22.0349 49.6599 21.8853C50.5432 21.402 51.6136 21.4066 52.4931 21.8967C52.6985 22.012 57.6006 24.7589 63.1792 29.2114C64.2916 30.0993 64.6053 31.6583 63.9228 32.9081C61.4011 37.527 59.6223 42.4581 58.3732 46.9602C62.1394 42.2512 66.1162 39.3074 70.2397 38.1866C71.3795 37.8766 72.5957 38.282 73.3225 39.2157C77.4398 44.5065 79.4996 49.7247 79.4439 54.7254C79.3263 65.3015 74.215 74.5126 70.8321 80.6081C69.7404 82.5755 68.3982 84.9926 68.1638 85.9683C68.6043 87.3234 68.1592 88.7977 66.9736 89.7673C66.1544 90.4361 64.7244 91.1896 60.3208 91.7011C57.7625 91.9973 54.514 92.1683 51.1731 92.1813C51.0372 92.1821 50.9013 92.1821 50.7654 92.1821Z" fill="black"/>
<path d="M31.7568 75.1043C34.8023 79.8607 67.2301 80.7409 70.4549 75.1043" stroke="black" stroke-width="5.86335" stroke-miterlimit="10" stroke-linecap="round" stroke-linejoin="round"/>
</svg>
