<svg width="100" height="100" viewBox="0 0 100 100" fill="none" xmlns="http://www.w3.org/2000/svg">
<path d="M74.9243 87.5377H26.9929C25.9339 87.5377 25.0757 86.6794 25.0757 85.6204V80.8273C25.0757 79.7691 25.9339 78.91 26.9929 78.91H74.9243C75.9833 78.91 76.8415 79.7691 76.8415 80.8273V85.6204C76.8415 86.6794 75.9833 87.5377 74.9243 87.5377Z" fill="#632626"/>
<path d="M31.9778 86.9625H25.0757V78.3348H31.9778V86.9625Z" fill="#9D5353"/>
<path d="M27.9515 84.6618H73.9657V81.7859H27.9515V84.6618ZM74.9243 90.4136H26.9929C24.3499 90.4136 22.1998 88.2634 22.1998 85.6204V80.8273C22.1998 78.1843 24.3499 76.0341 26.9929 76.0341H74.9243C77.5672 76.0341 79.7174 78.1843 79.7174 80.8273V85.6204C79.7174 88.2634 77.5672 90.4136 74.9243 90.4136Z" fill="black"/>
<path d="M76.6498 78.91H25.2674C24.2084 78.91 23.3501 78.0517 23.3501 76.9928V68.1734C23.3501 67.1152 24.2084 66.2561 25.2674 66.2561H76.6498C77.7088 66.2561 78.5671 67.1152 78.5671 68.1734V76.9928C78.5671 78.0517 77.7088 78.91 76.6498 78.91Z" fill="#632626"/>
<path d="M30.6357 76.6093H23.9253V67.9817H30.6357V76.6093Z" fill="#9D5353"/>
<path d="M26.226 76.0341H75.6912V69.132H26.226V76.0341ZM76.6498 81.7859H25.2674C22.6244 81.7859 20.4742 79.6357 20.4742 76.9928V68.1734C20.4742 65.5304 22.6244 63.3803 25.2674 63.3803H76.6498C79.2928 63.3803 81.4429 65.5304 81.4429 68.1734V76.9928C81.4429 79.6357 79.2928 81.7859 76.6498 81.7859Z" fill="black"/>
<path d="M50.9586 34.1601V10.5449" stroke="black" stroke-width="5.75177" stroke-miterlimit="10" stroke-linecap="round"/>
<path d="M44.0565 17.447H57.8607" stroke="black" stroke-width="5.75177" stroke-miterlimit="10" stroke-linecap="round"/>
<path d="M53.4495 26.4342H48.8189C47.8281 26.4342 46.9331 27.0228 46.5399 27.9313L43.667 34.5698C43.3952 35.1989 43.3952 35.9126 43.667 36.5417L46.5399 43.1802C46.9331 44.0886 47.8281 44.6765 48.8189 44.6765H53.4495C54.4396 44.6765 55.3353 44.0886 55.7285 43.1802L58.6006 36.5417C58.8725 35.9126 58.8725 35.1989 58.6006 34.5698L55.7285 27.9313C55.3353 27.0228 54.4396 26.4342 53.4495 26.4342Z" fill="#632626"/>
<path d="M49.0765 41.8007H53.1919L55.894 35.5553L53.1919 29.31H49.0765L46.3737 35.5553L49.0765 41.8007ZM53.4495 47.5524H48.8182C46.68 47.5524 44.7492 46.2845 43.8999 44.3215L41.0278 37.6838C40.4429 36.332 40.4429 34.7802 41.0278 33.4276L43.8999 26.7891C44.7492 24.827 46.68 23.5583 48.8182 23.5583H53.4495C55.5885 23.5583 57.5185 24.827 58.3677 26.7891L61.2399 33.4276C61.8248 34.7802 61.8248 36.332 61.2399 37.6838L58.3677 44.3215C57.5185 46.2845 55.5885 47.5524 53.4495 47.5524Z" fill="black"/>
<path d="M74.1124 34.8162C80.3195 34.8162 85.3508 39.4393 85.3508 45.1416C85.3508 57.1881 75.9855 64.0715 74.1124 65.7926C72.2394 67.5136 62.8733 65.7926 62.8733 65.7926V45.1416C62.8733 39.4393 67.9053 34.8162 74.1124 34.8162Z" fill="#632626"/>
<path d="M84.1271 36.1552C79.7174 44.5912 71.2815 35.1966 67.8304 63.7637C67.8304 63.7637 69.9394 68.9306 66.4884 63.9554C63.0373 58.9803 66.8718 49.758 66.8718 44.7829C66.8718 39.8078 71.0898 36.7057 74.5408 35.0476C77.9919 33.3895 84.894 36.1552 84.1271 36.1552Z" fill="#9D5353"/>
<path d="M65.7492 63.4409C68.637 63.8161 71.3923 63.9135 72.3045 63.6326C72.4656 63.4904 72.649 63.3323 72.8528 63.1578C75.4837 60.8968 82.475 54.8919 82.475 45.1416C82.475 40.9723 78.7236 37.5804 74.1124 37.5804C69.5006 37.5804 65.7492 40.9723 65.7492 45.1416V63.4409ZM70.382 69.3237C69.5335 69.3237 68.5906 69.2788 67.5414 69.1912C64.8505 68.9665 62.4352 68.5261 62.3333 68.5074L59.9974 68.0783V45.1416C59.9974 37.9242 66.3296 32.0526 74.1124 32.0526C81.8953 32.0526 88.2267 37.9242 88.2267 45.1416C88.2267 57.3656 79.5399 64.8272 76.685 67.2799C76.4409 67.4896 76.2297 67.6709 76.0994 67.7907C74.9632 68.8347 73.1898 69.3237 70.382 69.3237Z" fill="black"/>
<path d="M62.197 34.1264C68.4041 34.1264 73.4362 38.7488 73.4362 44.4519C73.4362 56.4984 64.0708 63.3818 62.197 65.1028C60.3239 66.8231 50.9586 65.1028 50.9586 65.1028V44.4519C50.9586 38.7488 55.9906 34.1264 62.197 34.1264Z" fill="#632626"/>
<path d="M69.1725 36.1552C61.6952 40.3732 58.4359 36.347 57.4773 65.681C57.4773 65.681 55.9434 68.5471 52.4924 63.572C49.0413 58.5969 51.1503 49.758 51.1503 44.7829C51.1503 39.8078 55.3683 36.7057 58.8193 35.0476C62.2704 33.3895 69.1725 36.1552 69.1725 36.1552Z" fill="#9D5353"/>
<path d="M53.8345 62.7512C56.7216 63.1264 59.4776 63.2237 60.3891 62.9429C60.5509 62.7998 60.7336 62.6426 60.9373 62.4681C63.569 60.2078 70.5603 54.2022 70.5603 44.4519C70.5603 40.2826 66.8089 36.8899 62.197 36.8899C57.5858 36.8899 53.8345 40.2826 53.8345 44.4519V62.7512ZM58.4673 68.634C57.6181 68.634 56.6752 68.5891 55.6267 68.5014C52.9358 68.2768 50.5205 67.8356 50.4186 67.8177L48.0827 67.3885V44.4519C48.0827 37.2344 54.4141 31.3621 62.197 31.3621C69.9799 31.3621 76.312 37.2344 76.312 44.4519C76.312 56.6759 67.6245 64.1382 64.7696 66.5902C64.5254 66.7999 64.3142 66.9811 64.1839 67.1009C63.0485 68.1442 61.2751 68.634 58.4673 68.634Z" fill="black"/>
<path d="M27.8047 34.8162C21.5984 34.8162 16.5663 39.4393 16.5663 45.1416C16.5663 57.1881 25.9317 64.0715 27.8047 65.7926C29.6778 67.5136 39.0439 65.7926 39.0439 65.7926V45.1416C39.0439 39.4393 34.0119 34.8162 27.8047 34.8162Z" fill="#632626"/>
<path d="M29.2936 34.4949C17.2149 41.907 23.3501 52.9215 31.9778 64.5306C31.9778 64.5306 27.5681 67.6626 24.117 62.6882C20.666 57.7124 15.4894 51.0791 15.4894 46.104C15.4894 41.1289 18.9404 36.153 22.3915 34.4949C25.8425 32.8367 29.2936 34.4949 29.2936 34.4949Z" fill="#9D5353"/>
<path d="M29.6126 63.6326C30.5248 63.9135 33.2801 63.8161 36.168 63.4409V45.1416C36.168 40.9723 32.4159 37.5804 27.8047 37.5804C23.1936 37.5804 19.4422 40.9723 19.4422 45.1416C19.4422 54.8919 26.4335 60.8968 29.0652 63.1578C29.2681 63.3323 29.4516 63.4904 29.6126 63.6326ZM31.5351 69.3237C28.7267 69.3237 26.954 68.8347 25.8178 67.7907C25.6875 67.6709 25.4763 67.4896 25.2314 67.2799C22.3773 64.8272 13.6904 57.3656 13.6904 45.1416C13.6904 37.9242 20.0226 32.0526 27.8047 32.0526C35.5876 32.0526 41.9198 37.9242 41.9198 45.1416V68.0783L39.5839 68.5074C39.482 68.5261 37.0667 68.9665 34.3758 69.1912C33.3266 69.2788 32.3837 69.3237 31.5351 69.3237Z" fill="black"/>
<path d="M39.7202 34.1264C33.5131 34.1264 28.481 38.7488 28.481 44.4519C28.481 56.4984 37.8464 63.3818 39.7202 65.1028C41.5932 66.8231 50.9586 65.1028 50.9586 65.1028V44.4519C50.9586 38.7488 45.9265 34.1264 39.7202 34.1264Z" fill="#632626"/>
<path d="M42.9061 34.238C36.004 40.6473 37.1544 52.1546 45.782 63.7637C45.782 63.7637 42.3309 68.7913 38.8799 63.8161C35.4288 58.8403 29.4853 50.3332 29.4853 45.3581C29.4853 40.3829 33.7033 37.2809 37.1544 35.6228C40.6054 33.9646 42.9061 34.238 42.9061 34.238Z" fill="#9D5353"/>
<path d="M41.5281 62.9429C42.4418 63.2245 45.1978 63.1279 48.0827 62.7527V44.4519C48.0827 40.2826 44.3313 36.8899 39.7202 36.8899C35.109 36.8899 31.3569 40.2826 31.3569 44.4519C31.3569 54.2022 38.3481 60.2078 40.9806 62.4681C41.1836 62.6426 41.3663 62.7998 41.5281 62.9429ZM43.4498 68.634C40.6421 68.634 38.8694 68.1442 37.7325 67.1009C37.603 66.9811 37.3918 66.7999 37.1476 66.5902C34.2927 64.1382 25.6051 56.6759 25.6051 44.4519C25.6051 37.2344 31.9373 31.3621 39.7202 31.3621C47.5023 31.3621 53.8345 37.2344 53.8345 44.4519V67.3885L51.4986 67.8177C51.3975 67.8356 48.9822 68.2768 46.2905 68.5014C45.242 68.5891 44.2984 68.634 43.4498 68.634Z" fill="black"/>
<path d="M33.7033 66.2561L39.81 79.4852Z" fill="#DACC96"/>
<path d="M33.7033 66.2561L39.81 79.4852" stroke="black" stroke-width="5.75177" stroke-miterlimit="10"/>
<path d="M47.9531 66.2561L54.0599 79.4852Z" fill="#DACC96"/>
<path d="M47.9531 66.2561L54.0599 79.4852" stroke="black" stroke-width="5.75177" stroke-miterlimit="10"/>
<path d="M62.203 66.2561L68.3097 79.4852Z" fill="#DACC96"/>
<path d="M62.203 66.2561L68.3097 79.4852" stroke="black" stroke-width="5.75177" stroke-miterlimit="10"/>
</svg>
