<svg width="100" height="100" viewBox="0 0 100 100" fill="none" xmlns="http://www.w3.org/2000/svg">
<path d="M75.4115 89.2488H26.5432C25.4635 89.2488 24.5884 88.3737 24.5884 87.2941V82.4072C24.5884 81.3283 25.4635 80.4525 26.5432 80.4525H75.4115C76.4912 80.4525 77.3662 81.3283 77.3662 82.4072V87.2941C77.3662 88.3737 76.4912 89.2488 75.4115 89.2488Z" fill="#BF8B67"/>
<path d="M31.6255 88.6624H24.5884V79.8661H31.6255V88.6624Z" fill="#DACC96"/>
<path d="M27.5205 86.3167H74.4341V83.3846H27.5205V86.3167ZM75.4115 92.1809H26.5432C23.8485 92.1809 21.6563 89.9887 21.6563 87.2941V82.4072C21.6563 79.7126 23.8485 77.5204 26.5432 77.5204H75.4115C78.1061 77.5204 80.2983 79.7126 80.2983 82.4072V87.2941C80.2983 89.9887 78.1061 92.1809 75.4115 92.1809Z" fill="black"/>
<path d="M77.1707 80.4525H24.7839C23.7042 80.4525 22.8292 79.5775 22.8292 78.4978V69.506C22.8292 68.4271 23.7042 67.5513 24.7839 67.5513H77.1707C78.2504 67.5513 79.1255 68.4271 79.1255 69.506V78.4978C79.1255 79.5775 78.2504 80.4525 77.1707 80.4525Z" fill="#BF8B67"/>
<path d="M30.2572 78.1068H23.4156V69.3105H30.2572V78.1068Z" fill="#DACC96"/>
<path d="M25.7613 77.5204H76.1934V70.4834H25.7613V77.5204ZM77.1707 83.3846H24.7839C22.0893 83.3846 19.8971 81.1924 19.8971 78.4978V69.506C19.8971 66.8114 22.0893 64.6192 24.7839 64.6192H77.1707C79.8654 64.6192 82.0576 66.8114 82.0576 69.506V78.4978C82.0576 81.1924 79.8654 83.3846 77.1707 83.3846Z" fill="black"/>
<path d="M50.9773 34.8278V10.751" stroke="black" stroke-width="5.8642" stroke-miterlimit="10" stroke-linecap="round"/>
<path d="M43.9403 17.7881H58.0144" stroke="black" stroke-width="5.8642" stroke-miterlimit="10" stroke-linecap="round"/>
<path d="M53.517 26.9509H48.7958C47.7856 26.9509 46.8732 27.551 46.4723 28.4772L43.5432 35.2455C43.2661 35.8869 43.2661 36.6146 43.5432 37.256L46.4723 44.0242C46.8732 44.9504 47.7856 45.5498 48.7958 45.5498H53.517C54.5264 45.5498 55.4396 44.9504 55.8405 44.0242L58.7688 37.256C59.0459 36.6146 59.0459 35.8869 58.7688 35.2455L55.8405 28.4772C55.4396 27.551 54.5264 26.9509 53.517 26.9509Z" fill="#BF8B67"/>
<path d="M49.0585 42.6177H53.2543L56.0092 36.2504L53.2543 29.883H49.0585L46.3028 36.2504L49.0585 42.6177ZM53.517 48.4819H48.7951C46.6151 48.4819 44.6466 47.1892 43.7807 45.1879L40.8524 38.4204C40.2561 37.0422 40.2561 35.4601 40.8524 34.0811L43.7807 27.3128C44.6466 25.3123 46.6151 24.0188 48.7951 24.0188H53.517C55.6977 24.0188 57.6654 25.3123 58.5313 27.3128L61.4596 34.0811C62.0559 35.4601 62.0559 37.0422 61.4596 38.4204L58.5313 45.1879C57.6654 47.1892 55.6977 48.4819 53.517 48.4819Z" fill="black"/>
<path d="M74.5838 35.4967C80.9122 35.4967 86.0419 40.2102 86.0419 46.024C86.0419 58.306 76.4935 65.3239 74.5838 67.0786C72.6741 68.8333 63.1249 67.0786 63.1249 67.0786V46.024C63.1249 40.2102 68.2553 35.4967 74.5838 35.4967Z" fill="#BF8B67"/>
<path d="M84.7942 36.862C80.2983 45.4628 71.6975 35.8846 68.179 65.0101C68.179 65.0101 70.3292 70.278 66.8107 65.2056C63.2921 60.1332 67.2016 50.7306 67.2016 45.6583C67.2016 40.5859 71.502 37.4232 75.0205 35.7327C78.5391 34.0421 85.5761 36.862 84.7942 36.862Z" fill="#DACC96"/>
<path d="M66.057 64.681C69.0013 65.0636 71.8105 65.1628 72.7405 64.8765C72.9047 64.7314 73.0918 64.5703 73.2995 64.3924C75.9819 62.0872 83.1098 55.9649 83.1098 46.024C83.1098 41.7732 79.2851 38.315 74.5838 38.315C69.8817 38.315 66.057 41.7732 66.057 46.024V64.681ZM70.7804 70.6788C69.9153 70.6788 68.954 70.633 67.8842 70.5437C65.1407 70.3146 62.6782 69.8656 62.5744 69.8466L60.1928 69.409V46.024C60.1928 38.6655 66.6488 32.6792 74.5838 32.6792C82.5188 32.6792 88.974 38.6655 88.974 46.024C88.974 58.487 80.1173 66.0944 77.2066 68.5951C76.9577 68.8089 76.7424 68.9937 76.6095 69.1158C75.4512 70.1802 73.6431 70.6788 70.7804 70.6788Z" fill="black"/>
<path d="M62.4354 34.7935C68.7639 34.7935 73.8943 39.5062 73.8943 45.3208C73.8943 57.6027 64.3459 64.6207 62.4354 66.3754C60.5257 68.1293 50.9773 66.3754 50.9773 66.3754V45.3208C50.9773 39.5062 56.1077 34.7935 62.4354 34.7935Z" fill="#BF8B67"/>
<path d="M69.5473 36.862C61.9238 41.1624 58.6008 37.0574 57.6234 66.9649C57.6234 66.9649 56.0596 69.887 52.5411 64.8146C49.0226 59.7423 51.1728 50.7306 51.1728 45.6583C51.1728 40.5859 55.4732 37.4232 58.9917 35.7327C62.5103 34.0421 69.5473 36.862 69.5473 36.862Z" fill="#DACC96"/>
<path d="M53.9094 63.9778C56.853 64.3603 59.6629 64.4596 60.5922 64.1732C60.7571 64.0274 60.9434 63.8671 61.1511 63.6891C63.8343 61.3847 70.9622 55.2617 70.9622 45.3208C70.9622 41.07 67.1375 37.611 62.4354 37.611C57.7341 37.611 53.9094 41.07 53.9094 45.3208V63.9778ZM58.6329 69.9756C57.767 69.9756 56.8056 69.9298 55.7366 69.8404C52.9932 69.6114 50.5306 69.1616 50.4268 69.1433L48.0452 68.7058V45.3208C48.0452 37.9623 54.5004 31.9751 62.4354 31.9751C70.3704 31.9751 76.8264 37.9623 76.8264 45.3208C76.8264 57.7837 67.969 65.3919 65.0583 67.8918C64.8094 68.1056 64.594 68.2904 64.4612 68.4126C63.3036 69.4762 61.4955 69.9756 58.6329 69.9756Z" fill="black"/>
<path d="M27.3709 35.4967C21.0432 35.4967 15.9128 40.2102 15.9128 46.024C15.9128 58.306 25.4612 65.3239 27.3709 67.0786C29.2806 68.8333 38.8297 67.0786 38.8297 67.0786V46.024C38.8297 40.2102 33.6993 35.4967 27.3709 35.4967Z" fill="#BF8B67"/>
<path d="M28.8889 35.1691C16.574 42.7262 22.8292 53.9559 31.6255 65.792C31.6255 65.792 27.1296 68.9852 23.6111 63.9136C20.0926 58.8405 14.8148 52.0776 14.8148 47.0052C14.8148 41.9328 18.3333 36.8597 21.8518 35.1691C25.3703 33.4786 28.8889 35.1691 28.8889 35.1691Z" fill="#DACC96"/>
<path d="M29.2141 64.8765C30.1442 65.1628 32.9533 65.0636 35.8976 64.681V46.024C35.8976 41.7732 32.0722 38.315 27.3709 38.315C22.6696 38.315 18.8449 41.7732 18.8449 46.024C18.8449 55.9649 25.9728 62.0872 28.656 64.3924C28.8629 64.5703 29.05 64.7314 29.2141 64.8765ZM31.1742 70.6788C28.3108 70.6788 26.5035 70.1802 25.3451 69.1158C25.2123 68.9937 24.997 68.8089 24.7473 68.5951C21.8373 66.0944 12.9807 58.487 12.9807 46.024C12.9807 38.6655 19.4367 32.6792 27.3709 32.6792C35.3059 32.6792 41.7618 38.6655 41.7618 46.024V69.409L39.3803 69.8466C39.2764 69.8656 36.8139 70.3146 34.0704 70.5437C33.0007 70.633 32.0393 70.6788 31.1742 70.6788Z" fill="black"/>
<path d="M39.5192 34.7935C33.1908 34.7935 28.0604 39.5062 28.0604 45.3208C28.0604 57.6027 37.6088 64.6207 39.5192 66.3754C41.4289 68.1293 50.9773 66.3754 50.9773 66.3754V45.3208C50.9773 39.5062 45.8469 34.7935 39.5192 34.7935Z" fill="#BF8B67"/>
<path d="M42.7675 34.9072C35.7304 41.4419 36.9033 53.1741 45.6996 65.0101C45.6996 65.0101 42.181 70.1359 38.6625 65.0636C35.144 59.9904 29.0843 51.3171 29.0843 46.2447C29.0843 41.1723 33.3847 38.0096 36.9033 36.3191C40.4218 34.6285 42.7675 34.9072 42.7675 34.9072Z" fill="#DACC96"/>
<path d="M41.3625 64.1732C42.2941 64.4603 45.104 64.3618 48.0452 63.9793V45.3208C48.0452 41.07 44.2205 37.611 39.5192 37.611C34.818 37.611 30.9925 41.07 30.9925 45.3208C30.9925 55.2617 38.1204 61.3847 40.8043 63.6891C41.0113 63.8671 41.1976 64.0274 41.3625 64.1732ZM43.3218 69.9756C40.4592 69.9756 38.6518 69.4762 37.4927 68.4126C37.3606 68.2904 37.1453 68.1056 36.8964 67.8918C33.9857 65.3919 25.1283 57.7837 25.1283 45.3208C25.1283 37.9623 31.5843 31.9751 39.5192 31.9751C47.4535 31.9751 53.9094 37.9623 53.9094 45.3208V68.7058L51.5279 69.1433C51.4248 69.1616 48.9623 69.6114 46.218 69.8404C45.149 69.9298 44.1869 69.9756 43.3218 69.9756Z" fill="black"/>
<path d="M33.3847 67.5513L39.6109 81.0389Z" fill="#DACC96"/>
<path d="M33.3847 67.5513L39.6109 81.0389" stroke="black" stroke-width="5.8642" stroke-miterlimit="10"/>
<path d="M47.9131 67.5513L54.1393 81.0389Z" fill="#DACC96"/>
<path d="M47.9131 67.5513L54.1393 81.0389" stroke="black" stroke-width="5.8642" stroke-miterlimit="10"/>
<path d="M62.4415 67.5513L68.6677 81.0389Z" fill="#DACC96"/>
<path d="M62.4415 67.5513L68.6677 81.0389" stroke="black" stroke-width="5.8642" stroke-miterlimit="10"/>
</svg>
