<svg width="100" height="100" viewBox="0 0 100 100" fill="none" xmlns="http://www.w3.org/2000/svg">
<path d="M72.7887 87.6894H29.1053C29.9575 86.6329 32.4663 83.2438 32.4663 78.3144C32.4663 76.9938 32.2857 72.8826 29.1053 68.9394H72.7887C71.9364 69.9959 69.4284 73.385 69.4284 78.3144C69.4284 79.635 69.6082 83.7462 72.7887 87.6894Z" fill="#632626"/>
<path d="M38.8258 87.6894C39.5005 85.7422 40.9912 82.8081 41.0985 79.1667C41.2309 74.6597 39.5641 71.2646 38.8258 69.1288C36.8031 69.1288 33.664 68.9394 31.6414 68.9394L34.5888 79.1667L29.908 87.6894H38.8258Z" fill="#9D5353"/>
<path d="M33.8076 84.8485H68.0842C67.0381 82.194 66.8279 79.8036 66.8279 78.3144C66.8279 75.7916 67.3636 73.5958 68.0864 71.7803H33.8098C34.8559 74.4348 35.066 76.8251 35.066 78.3144C35.066 80.8372 34.5304 83.033 33.8076 84.8485ZM72.7879 90.5303H29.106C28.0836 90.5303 27.1566 89.8763 26.7364 88.859C26.3154 87.8411 26.4796 86.6492 27.1551 85.811C28.1672 84.5555 29.8658 81.9121 29.8658 78.3144C29.8658 76.7704 29.5136 73.7423 27.1544 70.8171C26.4796 69.9796 26.3154 68.787 26.7364 67.7697C27.1566 66.7525 28.0836 66.0985 29.106 66.0985H72.7879C73.8104 66.0985 74.7374 66.7525 75.1576 67.7697C75.5785 68.7877 75.415 69.9796 74.7388 70.8178C73.7268 72.0733 72.0281 74.7166 72.0281 78.3144C72.0281 79.8584 72.3803 82.8865 74.7388 85.8117C75.415 86.6492 75.5785 87.8418 75.1576 88.859C74.7374 89.8763 73.8104 90.5303 72.7879 90.5303Z" fill="black"/>
<path d="M29.5647 61.4206L22.8656 37.3735C23.4789 37.7427 32.4174 50.4498 36.9059 47.6326C40.4763 45.3917 39.7335 31.6895 40.0265 26.3258C41.5979 31.2959 46.861 44.0814 50.947 44.0814C55.033 44.0814 60.2961 31.2959 61.8675 26.3258C61.9666 26.9376 60.3849 44.7266 66.5476 47.6326C70.0676 49.2927 77.889 37.8766 79.0291 37.3735C77.8609 44.0415 73.5729 53.2456 72.4055 61.3881C71.784 65.7219 68.116 68.9394 63.7866 68.9394H38.1784C33.8623 68.9394 30.1972 65.7404 29.5647 61.4206Z" fill="#632626"/>
<path d="M28.7553 43.3712C41.2879 49.6212 29.9242 66.0985 55.8712 66.0985L36.9266 68.9394C34.8071 66.9567 30.4747 62.3535 28.7553 55.303C27.5073 50.1864 28.1494 45.8859 28.7553 43.3712Z" fill="#9D5353"/>
<path d="M28.3758 47.398L32.052 60.5935C32.0867 60.7178 32.1134 60.8443 32.1319 60.9723C32.5602 63.8946 35.1599 66.0985 38.1784 66.0985H63.7873C66.8146 66.0985 69.4158 63.8842 69.8368 60.9486C70.4797 56.4682 71.9482 51.8791 73.4168 47.4202C70.5951 50.0222 67.968 51.3968 65.5177 50.2404C62.3661 48.7549 60.3649 44.8235 59.5673 38.5535C56.5319 44.2627 53.7916 46.9223 50.947 46.9223C48.0913 46.9223 45.3421 44.2427 42.2933 38.4906C42.2874 38.4788 42.2807 38.4662 42.2748 38.4544C41.8834 44.1695 40.8913 48.4079 38.2013 50.0962C37.3291 50.6429 36.4139 50.8841 35.4773 50.8841C33.1306 50.8841 30.65 49.3719 28.3758 47.398ZM63.7873 71.7803H38.1784C35.5032 71.7803 32.9072 70.8 30.8675 69.0193C28.8315 67.243 27.474 64.7838 27.0293 62.0761L20.3783 38.2013C20.0698 37.0953 20.4057 35.8961 21.2277 35.1673C22.0489 34.4386 23.1926 34.3276 24.1189 34.8847C24.6168 35.1836 24.8994 35.5299 25.8367 36.6758C27.0537 38.1636 29.3198 40.9335 31.6162 42.9451C34.1671 45.1793 35.3745 45.277 35.5964 45.1771C35.6889 45.0809 36.4628 44.1621 36.9178 40.0509C37.2544 37.0028 37.2973 33.3548 37.3313 30.4229C37.3513 28.7538 37.3676 27.3119 37.4312 26.1563C37.5044 24.8032 38.4433 23.6957 39.6728 23.5115C40.9009 23.3273 42.0787 24.1166 42.4842 25.398C43.2595 27.8513 44.8235 31.8381 46.5687 35.2132C48.8806 39.6847 50.455 41.0386 50.947 41.2272C51.4389 41.0386 53.0133 39.6847 55.3252 35.2132C57.0705 31.8381 58.6344 27.8513 59.4098 25.398C59.7967 24.1744 60.8924 23.3931 62.0731 23.4937C63.2539 23.5958 64.223 24.5583 64.4287 25.833C64.4901 26.2133 64.479 26.4863 64.4435 27.3903C63.8938 41.2945 66.3937 44.2952 67.4154 44.9344C67.7061 44.8531 68.6168 44.4728 70.4619 42.7061C72.0355 41.1998 73.618 39.337 74.8898 37.8396C76.5736 35.8569 77.2032 35.1156 78.0547 34.7397C78.9373 34.3498 79.9442 34.5185 80.6796 35.1792C81.415 35.8391 81.7612 36.8859 81.5822 37.9076C81.0162 41.1399 79.8214 44.7621 78.5563 48.5973C77.0915 53.0392 75.5763 57.6327 74.9741 61.8275C74.5731 64.6255 73.2022 67.1742 71.1137 69.0052C69.0711 70.7949 66.4699 71.7803 63.7873 71.7803Z" fill="black"/>
<path d="M44.1288 21.2121C44.1288 24.036 41.839 26.3258 39.0152 26.3258C36.1913 26.3258 33.9015 24.036 33.9015 21.2121C33.9015 18.3882 36.1913 16.0985 39.0152 16.0985C41.839 16.0985 44.1288 18.3882 44.1288 21.2121Z" fill="#9D5353"/>
<path d="M44.1288 21.2121C44.1288 24.036 41.839 26.3258 39.0152 26.3258C36.1913 26.3258 33.9015 24.036 33.9015 21.2121C33.9015 18.3882 36.1913 16.0985 39.0152 16.0985C41.839 16.0985 44.1288 18.3882 44.1288 21.2121Z" stroke="black" stroke-width="5.68182" stroke-miterlimit="10" stroke-linejoin="round"/>
<path d="M67.9924 21.2121C67.9924 24.036 65.7027 26.3258 62.8788 26.3258C60.0549 26.3258 57.7652 24.036 57.7652 21.2121C57.7652 18.3882 60.0549 16.0985 62.8788 16.0985C65.7027 16.0985 67.9924 18.3882 67.9924 21.2121Z" fill="#9D5353"/>
<path d="M67.9924 21.2121C67.9924 24.036 65.7027 26.3258 62.8788 26.3258C60.0549 26.3258 57.7652 24.036 57.7652 21.2121C57.7652 18.3882 60.0549 16.0985 62.8788 16.0985C65.7027 16.0985 67.9924 18.3882 67.9924 21.2121Z" stroke="black" stroke-width="5.68182" stroke-miterlimit="10" stroke-linejoin="round"/>
<path d="M86.7424 31.4394C86.7424 34.2633 84.4527 36.553 81.6288 36.553C78.8049 36.553 76.5152 34.2633 76.5152 31.4394C76.5152 28.6155 78.8049 26.3258 81.6288 26.3258C84.4527 26.3258 86.7424 28.6155 86.7424 31.4394Z" fill="#9D5353"/>
<path d="M86.7424 31.4394C86.7424 34.2633 84.4527 36.553 81.6288 36.553C78.8049 36.553 76.5152 34.2633 76.5152 31.4394C76.5152 28.6155 78.8049 26.3258 81.6288 26.3258C84.4527 26.3258 86.7424 28.6155 86.7424 31.4394Z" stroke="black" stroke-width="5.68182" stroke-miterlimit="10" stroke-linejoin="round"/>
<path d="M25.3788 31.4394C25.3788 34.2633 23.089 36.553 20.2652 36.553C17.4413 36.553 15.1515 34.2633 15.1515 31.4394C15.1515 28.6155 17.4413 26.3258 20.2652 26.3258C23.089 26.3258 25.3788 28.6155 25.3788 31.4394Z" fill="#9D5353"/>
<path d="M25.3788 31.4394C25.3788 34.2633 23.089 36.553 20.2652 36.553C17.4413 36.553 15.1515 34.2633 15.1515 31.4394C15.1515 28.6155 17.4413 26.3258 20.2652 26.3258C23.089 26.3258 25.3788 28.6155 25.3788 31.4394Z" stroke="black" stroke-width="5.68182" stroke-miterlimit="10" stroke-linejoin="round"/>
<path d="M32.2258 79.1667H69.6681" stroke="black" stroke-width="5.68182" stroke-miterlimit="10" stroke-linejoin="round"/>
</svg>
