<svg width="64" height="64" viewBox="0 0 64 64" fill="none" xmlns="http://www.w3.org/2000/svg">
<path d="M21.47 58.149C21.8063 58.1489 22.4262 58.1489 23.3395 58.1489C24.8156 58.1489 26.2869 58.1489 27.8892 58.149C35.895 58.149 43.7562 58.149 48.3982 58.1492C55.5729 58.1494 58.4322 58.1496 55.1048 58.1499C44.0178 58.1499 32.9308 58.1499 21.8438 58.1499C19.5606 58.1498 18.7289 58.1497 20.9224 58.1497C24.3162 58.1496 28.814 58.1496 31.1854 58.1495C28.6052 58.1495 26.0106 58.1495 23.4179 58.1495C21.826 58.1495 19.8346 58.1496 16.3711 58.1496C14.0521 58.1496 11.4909 58.1496 9.42001 58.1496C7.38241 58.1496 7.25871 58.1495 7.76151 58.1495C8.99421 58.1494 14.0783 58.1493 15.1485 58.1492C15.5524 58.1492 17.2285 58.1492 18.7561 58.1491C18.2822 58.1491 17.8852 58.149 17.8619 58.1489C19.0735 58.149 20.2791 58.149 21.4696 58.149H21.47Z" fill="white" stroke="black" stroke-width="0.000357" stroke-miterlimit="10"/>
<path d="M21.47 58.149C21.8063 58.1489 22.4262 58.1489 23.3395 58.1489C24.8156 58.1489 26.2869 58.1489 27.8892 58.149C35.895 58.149 43.7562 58.149 48.3982 58.1492C55.5729 58.1494 58.4322 58.1496 55.1048 58.1499C44.0178 58.1499 32.9308 58.1499 21.8438 58.1499C19.5606 58.1498 18.7289 58.1497 20.9224 58.1497C24.3162 58.1496 28.814 58.1496 31.1854 58.1495C28.6052 58.1495 26.0106 58.1495 23.4179 58.1495C21.826 58.1495 19.8346 58.1496 16.3711 58.1496C14.0521 58.1496 11.4909 58.1496 9.42001 58.1496C7.38241 58.1496 7.25871 58.1495 7.76151 58.1495C8.99421 58.1494 14.0783 58.1493 15.1485 58.1492C15.5524 58.1492 17.2285 58.1492 18.7561 58.1491C18.2822 58.1491 17.8852 58.149 17.8619 58.1489C19.0735 58.149 20.2791 58.149 21.4696 58.149H21.47Z" fill="white"/>
<path d="M23.667 58.149C25.309 58.149 26.9176 58.149 28.6375 58.1491C30.0224 58.149 31.4065 58.149 32.7931 58.149C33.1289 58.1491 33.4656 58.1491 33.8032 58.1491L36.7694 58.1491L37.8256 58.1491C38.047 58.1491 39.2647 58.1491 39.7443 58.1491C40.0076 58.1491 40.2719 58.1491 40.5373 58.1492C41.6649 58.1492 42.7947 58.1492 43.925 58.1492C44.1238 58.1492 44.3242 58.1492 44.5251 58.1492C45.6932 58.1492 46.8624 58.1492 48.0328 58.1492C47.75 58.1493 47.4684 58.1493 47.188 58.1493C48.4729 58.1493 49.7588 58.1493 51.0461 58.1494C50.5445 58.1494 50.042 58.1494 49.5419 58.1494C50.8888 58.1494 52.2374 58.1495 53.5871 58.1495C52.8838 58.1495 52.1795 58.1495 51.478 58.1496C52.3847 58.1496 53.2931 58.1496 54.2034 58.1496C53.3728 58.1496 52.5427 58.1497 51.7144 58.1497C52.4835 58.1497 53.2547 58.1497 54.027 58.1497C53.5243 58.1498 53.0229 58.1498 52.5213 58.1498C42.2543 58.1498 31.9783 58.1498 21.7063 58.1498C21.4923 58.1498 20.8015 58.1498 21.9755 58.1498C25.3217 58.1497 29.2485 58.1496 31.643 58.1496C32.9074 58.1495 33.3657 58.1495 33.9619 58.1494C29.9208 58.1495 25.6129 58.1495 21.0879 58.1495C22.4878 58.1495 19.2083 58.1496 16.0478 58.1496C16.0609 58.1496 16.087 58.1495 16.1 58.1495C14.8336 58.1495 13.6059 58.1496 12.3866 58.1496C9.88822 58.1496 9.29542 58.1495 10.5313 58.1495C12.1536 58.1494 14.6401 58.1494 15.9444 58.1493C16.7514 58.1493 17.1057 58.1492 18.6535 58.1492C20.1674 58.1492 21.361 58.1491 22.4544 58.1491C23.633 58.1491 24.8118 58.1491 26.0331 58.1491C25.3104 58.1491 22.5873 58.149 23.6672 58.149H23.667Z" fill="white"/>
<path d="M19.828 58.149C21.466 58.149 22.1928 58.149 22.0999 58.149C20.5768 58.1491 18.883 58.149 19.828 58.149Z" fill="white" stroke="white" stroke-width="0.000357" stroke-miterlimit="10"/>
<path d="M19.828 58.149C21.466 58.149 22.1928 58.149 22.0999 58.149C20.5768 58.1491 18.883 58.149 19.828 58.149Z" fill="white"/>
<path d="M22.012 58.149C23.5205 58.149 25.9073 58.149 27.708 58.149C25.7157 58.149 22.8557 58.1491 21.2593 58.1491C20.6127 58.149 21.3203 58.149 22.0121 58.149H22.012Z" fill="white"/>
<path d="M12.64 58.15C13.318 58.15 15.3467 58.15 14.3708 58.15C13.4671 58.15 10.4639 58.15 12.64 58.15Z" fill="white" stroke="black" stroke-width="0.000357" stroke-miterlimit="10"/>
<path d="M12.64 58.15C13.318 58.15 15.3467 58.15 14.3708 58.15C13.4671 58.15 10.4639 58.15 12.64 58.15Z" fill="white"/>
<path d="M25.14 8.69999C26.4026 6.49969 30.0692 6.83399 30.9044 9.24159C31.6155 10.8318 30.314 12.256 29.7531 13.6569C30.5695 14.4309 31.3881 15.2044 32.2097 15.977C33.0764 15.0825 33.9389 14.1835 34.7987 13.2796C34.4371 11.8769 33.2726 10.3264 34.1834 8.90059C35.2359 6.78299 38.6583 6.60579 39.8249 8.71278C40.9026 10.1543 39.7916 11.8159 39.3734 13.2688C41.9318 16.6953 44.3408 20.3619 45.4315 24.5478C46.8634 29.7661 45.9672 35.3258 44.1869 40.3428C42.8859 43.4681 43.4021 46.9319 42.7986 50.2024C47.3158 49.6342 52.4923 48.636 56.5606 51.2856C58.8128 52.7925 58.5747 55.724 58.5199 58.0871H57.6105C51.4555 56.2951 45.0085 56.7371 38.6895 56.8951C35.4935 52.7691 28.6665 52.8061 25.4565 56.8951C19.1525 56.7441 12.7115 56.2881 6.57654 58.0871H5.44724C5.61204 55.7321 5.34384 52.7921 7.58964 51.2901C11.6565 48.6401 16.8325 49.6311 21.3506 50.2021C20.9816 47.6691 20.8096 45.1131 20.8046 42.5541C18.4536 38.2901 16.3656 33.4201 17.3116 28.4511C18.4796 22.7921 22.1556 18.1311 25.6386 13.6891C25.2566 12.0961 24.0366 10.2721 25.1406 8.69908L25.14 8.69999Z" fill="white" stroke="black" stroke-width="0.08022" stroke-miterlimit="10"/>
<path d="M25.14 8.69999C26.4026 6.49969 30.0692 6.83399 30.9044 9.24159C31.6155 10.8318 30.314 12.256 29.7531 13.6569C30.5695 14.4309 31.3881 15.2044 32.2097 15.977C33.0764 15.0825 33.9389 14.1835 34.7987 13.2796C34.4371 11.8769 33.2726 10.3264 34.1834 8.90059C35.2359 6.78299 38.6583 6.60579 39.8249 8.71278C40.9026 10.1543 39.7916 11.8159 39.3734 13.2688C41.9318 16.6953 44.3408 20.3619 45.4315 24.5478C46.8634 29.7661 45.9672 35.3258 44.1869 40.3428C42.8859 43.4681 43.4021 46.9319 42.7986 50.2024C47.3158 49.6342 52.4923 48.636 56.5606 51.2856C58.8128 52.7925 58.5747 55.724 58.5199 58.0871H57.6105C51.4555 56.2951 45.0085 56.7371 38.6895 56.8951C35.4935 52.7691 28.6665 52.8061 25.4565 56.8951C19.1525 56.7441 12.7115 56.2881 6.57654 58.0871H5.44724C5.61204 55.7321 5.34384 52.7921 7.58964 51.2901C11.6565 48.6401 16.8325 49.6311 21.3506 50.2021C20.9816 47.6691 20.8096 45.1131 20.8046 42.5541C18.4536 38.2901 16.3656 33.4201 17.3116 28.4511C18.4796 22.7921 22.1556 18.1311 25.6386 13.6891C25.2566 12.0961 24.0366 10.2721 25.1406 8.69908L25.14 8.69999Z" fill="black"/>
<path d="M26.607 9.47499C27.4708 8.7055 29.1733 8.71985 29.0569 10.216C29.1197 12.466 25.6961 11.5109 26.607 9.47499Z" fill="white" stroke="white" stroke-width="0.08022" stroke-miterlimit="10"/>
<path d="M26.607 9.47499C27.4708 8.7055 29.1733 8.71985 29.0569 10.216C29.1197 12.466 25.6961 11.5109 26.607 9.47499Z" fill="white"/>
<path d="M35.855 9.679C37.1958 7.7408 38.7468 9.865 38.2905 11.4685C37.0204 11.5979 35.3757 11.3365 35.855 9.679Z" fill="white" stroke="white" stroke-width="0.08022" stroke-miterlimit="10"/>
<path d="M35.855 9.679C37.1958 7.7408 38.7468 9.865 38.2905 11.4685C37.0204 11.5979 35.3757 11.3365 35.855 9.679Z" fill="white"/>
<path d="M33.31 17.793C34.5883 16.4598 35.8561 15.116 37.1181 13.7657C39.9215 17.7868 42.7764 22.0025 43.6745 26.9177C44.3389 30.2473 43.8802 33.6665 43.0344 36.9174C42.2302 29.5645 38.468 22.9704 33.3101 17.7924L33.31 17.793Z" fill="white" stroke="white" stroke-width="0.08022" stroke-miterlimit="10"/>
<path d="M33.31 17.793C34.5883 16.4598 35.8561 15.116 37.1181 13.7657C39.9215 17.7868 42.7764 22.0025 43.6745 26.9177C44.3389 30.2473 43.8802 33.6665 43.0344 36.9174C42.2302 29.5645 38.468 22.9704 33.3101 17.7924L33.31 17.793Z" fill="white"/>
<path d="M27.731 14.43C32.8974 19.4934 37.6546 25.267 40.227 32.107C41.2153 34.5555 41.1438 37.2457 40.4433 39.7568C34.6748 37.5866 28.1523 37.6642 22.3533 39.685C19.9721 36.8049 18.3611 33.0093 19.3695 29.239C20.7884 23.7064 23.5535 18.386 27.7304 14.43L27.731 14.43Z" fill="white" stroke="white" stroke-width="0.08022" stroke-miterlimit="10"/>
<path d="M27.731 14.43C32.8974 19.4934 37.6546 25.267 40.227 32.107C41.2153 34.5555 41.1438 37.2457 40.4433 39.7568C34.6748 37.5866 28.1523 37.6642 22.3533 39.685C19.9721 36.8049 18.3611 33.0093 19.3695 29.239C20.7884 23.7064 23.5535 18.386 27.7304 14.43L27.731 14.43Z" fill="white"/>
<path d="M23.037 42.009C27.0571 39.904 31.8248 40.314 36.204 40.5707C37.9295 40.9291 40.4183 40.8186 41.1916 42.7618C40.8505 43.1955 40.1685 44.063 39.8274 44.4967C40.5554 45.5501 40.9358 46.7662 41.2745 47.9899C35.1999 46.8986 28.9465 46.8999 22.8725 47.9899C23.203 46.7782 23.5826 45.5732 24.3058 44.5309C23.606 43.8167 23.183 42.9762 23.0367 42.009L23.037 42.009Z" fill="white" stroke="white" stroke-width="0.08022" stroke-miterlimit="10"/>
<path d="M23.037 42.009C27.0571 39.904 31.8248 40.314 36.204 40.5707C37.9295 40.9291 40.4183 40.8186 41.1916 42.7618C40.8505 43.1955 40.1685 44.063 39.8274 44.4967C40.5554 45.5501 40.9358 46.7662 41.2745 47.9899C35.1999 46.8986 28.9465 46.8999 22.8725 47.9899C23.203 46.7782 23.5826 45.5732 24.3058 44.5309C23.606 43.8167 23.183 42.9762 23.0367 42.009L23.037 42.009Z" fill="white"/>
<path d="M30.711 43.135C31.9797 42.652 33.8867 42.6992 34.2425 44.3084C32.9503 45.1333 31.341 45.1103 29.9936 44.4363C30.173 44.111 30.5317 43.4603 30.711 43.135L30.711 43.135Z" fill="white" stroke="black" stroke-width="0.08022" stroke-miterlimit="10"/>
<path d="M30.711 43.135C31.9797 42.652 33.8867 42.6992 34.2425 44.3084C32.9503 45.1333 31.341 45.1103 29.9936 44.4363C30.173 44.111 30.5317 43.4603 30.711 43.135L30.711 43.135Z" fill="black"/>
<path d="M23.838 50.124C29.0819 48.3898 35.063 48.3883 40.306 50.1274C38.0658 52.1757 34.8729 51.7648 32.0807 51.889C29.281 51.7657 26.0778 52.1804 23.8378 50.1239L23.838 50.124Z" fill="white" stroke="white" stroke-width="0.08022" stroke-miterlimit="10"/>
<path d="M23.838 50.124C29.0819 48.3898 35.063 48.3883 40.306 50.1274C38.0658 52.1757 34.8729 51.7648 32.0807 51.889C29.281 51.7657 26.0778 52.1804 23.8378 50.1239L23.838 50.124Z" fill="white"/>
<path d="M6.8781 55.331C7.51567 53.355 9.0959 51.9113 11.2049 51.7891C16.7972 51.113 22.4729 52.0895 27.8979 53.4412C21.1844 55.8181 13.8739 55.0041 6.8779 55.331H6.8781Z" fill="white" stroke="white" stroke-width="0.08022" stroke-miterlimit="10"/>
<path d="M6.8781 55.331C7.51567 53.355 9.0959 51.9113 11.2049 51.7891C16.7972 51.113 22.4729 52.0895 27.8979 53.4412C21.1844 55.8181 13.8739 55.0041 6.8779 55.331H6.8781Z" fill="white"/>
<path d="M36.255 53.428C41.9102 52.0891 47.852 50.9457 53.652 51.9349C55.5396 52.1346 56.6076 53.7058 57.2746 55.3305C50.2812 54.9941 42.9566 55.8404 36.2546 53.428H36.255Z" fill="white" stroke="white" stroke-width="0.08022" stroke-miterlimit="10"/>
<path d="M36.255 53.428C41.9102 52.0891 47.852 50.9457 53.652 51.9349C55.5396 52.1346 56.6076 53.7058 57.2746 55.3305C50.2812 54.9941 42.9566 55.8404 36.2546 53.428H36.255Z" fill="white"/>
</svg>
