<svg width="64" height="64" viewBox="0 0 64 64" fill="none" xmlns="http://www.w3.org/2000/svg">
<path d="M24.285 7.139C29.4646 7.13814 34.645 7.13803 39.827 7.13906C39.8215 11.0019 39.8511 14.8648 39.798 18.7271C42.7062 16.9153 45.9577 15.2537 49.498 15.5427C53.9691 15.611 58.5925 18.9882 58.8628 23.6767C59.3892 30.4932 54.9323 36.5337 49.8766 40.6197C49.5708 44.8715 49.5359 49.1477 49.0647 53.3847C48.0628 55.573 45.4694 56.4679 43.3106 57.1085C37.6625 58.3744 31.8076 58.1374 26.0646 57.8976C22.2568 57.5467 17.8273 57.055 15.2386 53.889C14.373 49.545 14.6396 45.0026 14.2209 40.582C9.24334 36.7535 5.23834 30.9479 5.09574 24.506C5.03411 19.51 9.80224 15.5971 14.5861 15.5393C18.1317 15.267 21.3944 16.9142 24.3159 18.7289C24.2557 14.8661 24.2878 11.003 24.2848 7.13986L24.285 7.139Z" fill="white" stroke="black" stroke-width="0.082757" stroke-miterlimit="10"/>
<path d="M24.293 7.14701C24.2961 11.01 24.2556 14.8729 24.3158 18.736C21.3943 16.9213 18.1204 15.27 14.5749 15.5422C9.79101 15.6 5.02331 19.5115 5.08491 24.5075C5.22755 30.9497 9.23231 36.7615 14.2099 40.5905C14.6286 45.0113 14.3708 49.5462 15.2365 53.8905C17.8251 57.0565 22.2646 57.5546 26.0725 57.9055C31.8147 58.1453 37.6705 58.373 43.3185 57.1071C45.4773 56.4664 48.0653 55.5769 49.0673 53.3887C49.5385 49.1521 49.56 44.8655 49.8657 40.6137C54.9214 36.5277 59.3803 30.5037 58.8539 23.6867C58.5835 18.9983 53.9719 15.611 49.5008 15.5426C45.9605 15.2536 42.7137 16.9245 39.8055 18.7364C39.8585 14.8737 39.8227 11.0105 39.8283 7.14737C34.6465 7.14637 29.4723 7.14651 24.2933 7.14737L24.293 7.14701ZM27.418 22.363C30.5054 22.3823 33.5885 22.3839 36.6799 22.363C34.8362 24.8223 33.3203 27.5082 32.049 30.3018C30.7775 27.5057 29.2581 24.8238 27.4181 22.363H27.418Z" fill="black"/>
<path d="M27.474 9.461C30.5262 9.4583 33.5805 9.4579 36.6372 9.46152C35.1087 10.9153 33.5808 12.3645 32.0535 13.8148C30.5249 12.3642 28.9954 10.9144 27.474 9.46102V9.461Z" fill="white" stroke="white" stroke-width="0.082757" stroke-miterlimit="10"/>
<path d="M27.474 9.461C30.5262 9.4583 33.5805 9.4579 36.6372 9.46152C35.1087 10.9153 33.5808 12.3645 32.0535 13.8148C30.5249 12.3642 28.9954 10.9144 27.474 9.46102V9.461Z" fill="white"/>
<path d="M26.392 10.626C27.8421 12.0937 29.2923 13.5617 30.7453 15.0307C29.293 16.509 27.8413 17.9859 26.392 19.4636C26.3906 16.5176 26.3892 13.5718 26.392 10.626H26.392Z" fill="white" stroke="white" stroke-width="0.082757" stroke-miterlimit="10"/>
<path d="M26.392 10.626C27.8421 12.0937 29.2923 13.5617 30.7453 15.0307C29.293 16.509 27.8413 17.9859 26.392 19.4636C26.3906 16.5176 26.3892 13.5718 26.392 10.626H26.392Z" fill="white"/>
<path d="M33.362 15.029C34.8118 13.5594 36.2648 12.0904 37.7191 10.6212C37.7173 13.5697 37.7168 16.5181 37.7193 19.4668C36.2648 17.9875 34.8117 16.509 33.362 15.029H33.362Z" fill="white" stroke="white" stroke-width="0.082757" stroke-miterlimit="10"/>
<path d="M33.362 15.029C34.8118 13.5594 36.2648 12.0904 37.7191 10.6212C37.7173 13.5697 37.7168 16.5181 37.7193 19.4668C36.2648 17.9875 34.8117 16.509 33.362 15.029H33.362Z" fill="white"/>
<path d="M27.594 20.507C29.0747 19.0577 30.5643 17.613 32.0539 16.1685C33.5415 17.614 35.0288 19.059 36.5186 20.5073C33.5413 20.511 30.5667 20.5112 27.594 20.507V20.507Z" fill="white" stroke="white" stroke-width="0.082757" stroke-miterlimit="10"/>
<path d="M27.594 20.507C29.0747 19.0577 30.5643 17.613 32.0539 16.1685C33.5415 17.614 35.0288 19.059 36.5186 20.5073C33.5413 20.511 30.5667 20.5112 27.594 20.507V20.507Z" fill="white"/>
<path d="M7.45211 26.223C6.87056 22.8715 9.07341 19.2821 12.3388 18.3178C16.2982 17.157 20.6924 18.5289 23.6498 21.3126C27.5845 24.9154 29.6895 29.9753 31.2911 34.9546C25.7578 35.1717 20.0371 35.6708 15.1061 38.4212C11.4821 35.2102 8.04921 31.2132 7.45221 26.2232L7.45211 26.223Z" fill="white" stroke="white" stroke-width="0.082757" stroke-miterlimit="10"/>
<path d="M7.45211 26.223C6.87056 22.8715 9.07341 19.2821 12.3388 18.3178C16.2982 17.157 20.6924 18.5289 23.6498 21.3126C27.5845 24.9154 29.6895 29.9753 31.2911 34.9546C25.7578 35.1717 20.0371 35.6708 15.1061 38.4212C11.4821 35.2102 8.04921 31.2132 7.45221 26.2232L7.45211 26.223Z" fill="white"/>
<path d="M40.47 21.301C43.3845 18.5652 47.6817 17.197 51.598 18.273C54.9241 19.1818 57.1966 22.787 56.6668 26.1838C56.1592 31.2135 52.6632 35.2124 49.0219 38.4148C44.0469 35.7649 38.3499 35.1942 32.8139 34.952C34.4172 29.9695 36.5224 24.901 40.4695 21.301H40.47Z" fill="white" stroke="white" stroke-width="0.082757" stroke-miterlimit="10"/>
<path d="M40.47 21.301C43.3845 18.5652 47.6817 17.197 51.598 18.273C54.9241 19.1818 57.1966 22.787 56.6668 26.1838C56.1592 31.2135 52.6632 35.2124 49.0219 38.4148C44.0469 35.7649 38.3499 35.1942 32.8139 34.952C34.4172 29.9695 36.5224 24.901 40.4695 21.301H40.47Z" fill="white"/>
<path d="M16.571 40.377C26.2982 36.1764 37.807 36.1768 47.536 40.3751C47.4468 41.6665 47.3611 42.9581 47.28 44.2504C46.1473 44.252 45.0191 44.2543 43.8955 44.2574C44.8318 45.3515 45.7779 46.4452 46.7185 47.542C46.7452 48.2141 46.7985 49.5582 46.8251 50.2303C42.4104 47.5224 37.0925 47.3074 32.0621 47.2729C27.0251 47.3063 21.7061 47.5207 17.2871 50.2253C17.3136 49.5538 17.3667 48.2109 17.3932 47.5395C18.3296 46.4436 19.2688 45.3509 20.2128 44.2573C19.081 44.2543 17.9535 44.2519 16.8302 44.2503C16.7394 42.9587 16.6522 41.6678 16.5706 40.3772L16.571 40.377Z" fill="white" stroke="white" stroke-width="0.082757" stroke-miterlimit="10"/>
<path d="M16.571 40.377C26.2982 36.1764 37.807 36.1768 47.536 40.3751C47.4468 41.6665 47.3611 42.9581 47.28 44.2504C46.1473 44.252 45.0191 44.2543 43.8955 44.2574C44.8318 45.3515 45.7779 46.4452 46.7185 47.542C46.7452 48.2141 46.7985 49.5582 46.8251 50.2303C42.4104 47.5224 37.0925 47.3074 32.0621 47.2729C27.0251 47.3063 21.7061 47.5207 17.2871 50.2253C17.3136 49.5538 17.3667 48.2109 17.3932 47.5395C18.3296 46.4436 19.2688 45.3509 20.2128 44.2573C19.081 44.2543 17.9535 44.2519 16.8302 44.2503C16.7394 42.9587 16.6522 41.6678 16.5706 40.3772L16.571 40.377Z" fill="white"/>
<path d="M29.765 41.275C31.748 40.8704 34.7825 40.4066 35.8112 42.6757C34.0544 44.4856 31.1304 44.1573 28.9545 43.4034C28.2215 42.236 28.4916 41.5266 29.765 41.275L29.765 41.275Z" fill="white" stroke="black" stroke-width="0.082757" stroke-miterlimit="10"/>
<path d="M29.765 41.275C31.748 40.8704 34.7825 40.4066 35.8112 42.6757C34.0544 44.4856 31.1304 44.1573 28.9545 43.4034C28.2215 42.236 28.4916 41.5266 29.7649 41.275L29.765 41.275Z" fill="black"/>
<path d="M24.211 49.997C30.5382 49.1397 37.054 49.2077 43.288 50.6701C44.5768 51.0932 46.534 51.5936 46.1116 53.3712C44.2423 54.8571 41.8018 55.1878 39.5178 55.5271C33.959 56.3123 28.2858 56.2048 22.7588 55.2392C21.0735 54.9321 19.3575 54.4664 17.9984 53.3796C17.9053 50.3934 22.091 50.5734 24.2106 49.997L24.211 49.997Z" fill="white" stroke="white" stroke-width="0.082757" stroke-miterlimit="10"/>
<path d="M24.211 49.997C30.5382 49.1397 37.054 49.2077 43.288 50.6701C44.5768 51.0932 46.534 51.5936 46.1116 53.3712C44.2423 54.8571 41.8018 55.1878 39.5178 55.5271C33.959 56.3123 28.2858 56.2048 22.7588 55.2392C21.0735 54.9321 19.3575 54.4664 17.9984 53.3796C17.9053 50.3934 22.091 50.5734 24.2106 49.997L24.211 49.997Z" fill="white"/>
</svg>
