<svg width="64" height="64" viewBox="0 0 64 64" fill="none" xmlns="http://www.w3.org/2000/svg">
<path d="M21.47 14.004C21.8063 11.7316 22.4262 9.51521 23.3395 7.40691C24.8156 9.20001 26.2869 10.9996 27.8892 12.6838C35.895 12.4002 43.7562 16.2667 48.3982 22.7878C55.5729 32.8028 58.4322 46.1208 55.1047 58.0778C44.0177 58.0827 32.9307 58.0631 21.8437 58.0882C19.5605 55.969 18.7288 52.2976 20.9223 49.8041C24.3161 46.2406 28.8139 43.6479 31.1853 39.1701C28.6051 39.4482 26.0105 39.6388 23.4178 39.4358C21.8259 41.9787 19.8345 45.355 16.3711 45.1104C14.0521 44.8189 11.4909 45.5547 9.42012 44.1612C7.38252 42.9211 7.25882 40.1242 7.76162 38.0404C8.99432 33.4745 14.0784 31.2333 15.1486 26.5864C15.5525 24.3748 17.2286 22.828 18.7562 21.328C18.2823 17.946 17.8853 14.5472 17.862 11.128C19.0736 12.0749 20.2792 13.0307 21.4697 14.0054L21.47 14.004Z" fill="white" stroke="#111111" stroke-width="0.080441" stroke-miterlimit="10"/>
<path d="M21.47 14.004C21.8063 11.7316 22.4262 9.51521 23.3395 7.40691C24.8156 9.20001 26.2869 10.9996 27.8892 12.6838C35.895 12.4002 43.7562 16.2667 48.3982 22.7878C55.5729 32.8028 58.4322 46.1208 55.1047 58.0778C44.0177 58.0827 32.9307 58.0631 21.8437 58.0882C19.5605 55.969 18.7288 52.2976 20.9223 49.8041C24.3161 46.2406 28.8139 43.6479 31.1853 39.1701C28.6051 39.4482 26.0105 39.6388 23.4178 39.4358C21.8259 41.9787 19.8345 45.355 16.3711 45.1104C14.0521 44.8189 11.4909 45.5547 9.42012 44.1612C7.38252 42.9211 7.25882 40.1242 7.76162 38.0404C8.99432 33.4745 14.0784 31.2333 15.1486 26.5864C15.5525 24.3748 17.2286 22.828 18.7562 21.328C18.2823 17.946 17.8853 14.5472 17.862 11.128C19.0736 12.0749 20.2792 13.0307 21.4697 14.0054L21.47 14.004Z" fill="#111111"/>
<path d="M23.667 12.35C25.309 13.6098 26.9176 14.9153 28.6375 16.0714C30.0224 15.7853 31.4065 15.4973 32.7931 15.2096C33.1289 15.8634 33.4656 16.5173 33.8032 17.1713L36.7694 16.4563L37.8256 18.7149C38.047 19.1884 39.2647 18.4373 39.7443 18.3448C40.0076 19.1931 40.2719 20.0416 40.5373 20.8902C41.6649 21.0437 42.7947 21.1975 43.925 21.351C44.1238 22.4404 44.3242 23.5299 44.5251 24.6198C45.6932 24.8046 46.8624 24.9894 48.0328 25.1743C47.75 26.2996 47.4684 27.4251 47.188 28.5508C48.4729 29.3735 49.7588 30.1957 51.0461 31.0177C50.5445 32.2744 50.042 33.5306 49.5419 34.7876C50.8888 35.6929 52.2374 36.5966 53.5871 37.5008C52.8838 38.7075 52.1795 39.9133 51.478 41.1206C52.3847 42.0684 53.2931 43.0155 54.2033 43.9625C53.3726 45.3163 52.5426 46.6702 51.7143 48.0252C52.4833 48.8449 53.2546 49.6652 54.0269 50.4854C53.5241 52.2976 53.0228 54.1103 52.5212 55.9232C42.2542 55.5372 31.9782 55.6932 21.7062 55.6674C21.4922 54.3304 20.8014 52.6786 21.9754 51.5812C25.3216 48.5304 29.2484 45.941 31.6429 41.9898C32.9073 39.9529 33.3656 37.5727 33.9618 35.2862C29.9207 38.0926 25.6129 37.6666 21.0878 36.8208C22.4877 40.2574 19.2083 42.3418 16.0477 43.0935C16.0608 42.3346 16.0869 40.8167 16.0999 40.0577C14.8335 41.0151 13.6058 42.0218 12.3865 43.0374C9.88812 42.1187 9.29532 39.1453 10.5312 36.9594C12.1535 34.6116 14.64 32.9232 15.9443 30.3429C16.7513 28.2508 17.1056 25.9021 18.6534 24.175C20.1673 22.4539 21.3609 20.4993 22.4543 18.4927C23.6329 19.2313 24.8117 19.9717 26.033 20.641C25.3103 17.7813 22.5872 15.534 23.6671 12.3499L23.667 12.35Z" fill="white"/>
<path d="M19.828 15.539C21.466 14.7614 22.1928 16.4564 22.0999 17.8132C20.5768 19.3898 18.883 17.0568 19.828 15.539Z" fill="white" stroke="white" stroke-width="0.080441" stroke-miterlimit="10"/>
<path d="M19.828 15.539C21.466 14.7614 22.1928 16.4564 22.0999 17.8132C20.5768 19.3898 18.883 17.0568 19.828 15.539Z" fill="white"/>
<path d="M22.012 26.511C23.5205 25.1508 25.9073 26.7392 27.7079 27.2783C25.7156 28.3935 22.8556 30.3136 21.2592 29.3526C20.6126 28.9633 21.3202 27.1348 22.012 26.511Z" fill="#111111"/>
<path d="M12.64 37.995C13.318 37.3507 15.3467 37.8409 14.3708 38.9605C13.4671 40.5013 10.4639 39.1777 12.64 37.995Z" fill="white" stroke="#111111" stroke-width="0.080441" stroke-miterlimit="10"/>
<path d="M12.64 37.995C13.318 37.3507 15.3467 37.8409 14.3708 38.9605C13.4671 40.5013 10.4639 39.1777 12.64 37.995Z" fill="#111111"/>
</svg>
