<svg width="180" height="180" viewBox="0 0 180 180" fill="none" xmlns="http://www.w3.org/2000/svg">
<path d="M83.6584 115.451V96.0913V96.2691C82.3556 91.0586 80.757 87.2106 78.8625 84.7238C76.6125 82.7111 74.8958 80.9938 73.7117 79.5729C72.6463 78.1521 71.5804 77.0861 70.5144 76.3757C69.5672 75.5471 67.4949 74.1262 64.2983 72.1131C61.101 70.1004 58.437 68.6199 56.3057 67.6727C54.2925 66.6073 51.8059 66.0741 48.8456 66.0741C44.8197 66.0741 41.8595 66.2518 39.965 66.6073C38.1888 66.9623 35.643 68.265 32.3275 70.5144C29.1304 72.6463 26.999 75.3694 25.9334 78.6848C24.9861 82.0007 24.5125 84.7828 24.5125 87.0328C24.5125 88.9273 24.69 90.7628 25.0453 92.5391C25.5189 94.3149 25.9926 96.2094 26.4662 98.2226C26.9399 100.235 27.5319 102.071 28.2423 103.728C29.0712 105.386 30.3145 107.636 31.9723 110.478C33.7484 113.201 35.4062 115.451 36.9455 117.227C38.4848 119.004 40.2018 120.779 42.0963 122.556C44.7013 121.609 47.78 120.661 51.3323 119.714C54.8846 118.767 58.7919 117.938 63.0546 117.227C67.3178 116.517 70.6922 116.043 73.179 115.806C75.7839 115.57 79.2771 115.451 83.6584 115.451ZM115.984 117.583C117.642 117.82 120.425 118.47 124.332 119.536C128.239 120.484 131.496 121.49 134.101 122.556C136.351 120.425 138.008 118.707 139.074 117.405C140.258 116.102 141.856 113.853 143.87 110.656C146.001 107.34 147.422 104.794 148.132 103.018C148.961 101.242 149.553 99.4067 149.909 97.5122C150.382 95.6177 150.797 93.6636 151.152 91.6509C151.507 89.6378 151.684 88.0391 151.684 86.8551C151.684 84.7237 151.152 82.0007 150.086 78.6848C149.139 75.3694 147.067 72.6463 143.87 70.5144C140.791 68.3831 138.126 67.14 135.877 66.7845C133.627 66.3109 130.785 66.0741 127.351 66.0741C124.273 66.0741 121.786 66.5477 119.892 67.4949C118.115 68.3241 115.629 69.7449 112.432 71.7581C109.353 73.6526 107.103 75.1916 105.683 76.3757C104.38 77.4416 102.9 78.9216 101.242 80.8161C99.7026 82.5924 98.0449 84.4869 96.2691 86.5001C94.7295 88.9864 93.4864 92.2427 92.5391 96.2691V96.0913V115.451C96.8018 115.451 100.295 115.629 103.018 115.984C105.86 116.221 110.182 116.754 115.984 117.583ZM109.59 137.12C111.129 137.239 114.09 137.771 118.47 138.719C122.852 139.666 125.102 140.14 125.22 140.14C125.693 140.14 125.812 139.785 125.575 139.074C125.457 138.245 125.575 137.653 125.93 137.298C125.339 136.232 124.806 135.107 124.332 133.923C123.148 133.449 119.477 132.739 113.32 131.791C107.162 130.844 102.071 130.371 98.0449 130.371C94.0191 130.371 90.7037 130.252 88.0988 130.016C81.2306 130.371 74.3631 130.726 67.4949 131.081C60.0356 132.147 55.1214 132.917 52.7532 133.39C50.385 133.864 49.2009 134.752 49.2009 136.055C49.2009 136.173 49.3785 136.528 49.7337 137.12C50.2074 137.594 50.3258 138.245 50.089 139.074C49.8522 139.785 50.0298 140.14 50.6218 140.14C52.1611 140.021 55.1213 139.488 59.5024 138.541C63.8837 137.594 67.3768 137.002 69.9818 136.765C72.5867 136.41 75.3694 136.232 78.3298 136.232C79.632 136.232 81.1125 136.292 82.7702 136.41C84.4279 136.41 86.2633 136.41 88.2759 136.41C90.2891 136.41 92.1836 136.41 93.96 136.41C95.7358 136.41 97.3935 136.351 98.9331 136.232C100.472 136.232 102.189 136.351 104.084 136.587C105.978 136.824 107.814 137.002 109.59 137.12ZM99.288 72.1131C99.6435 69.7449 99.9984 67.3178 100.354 64.8309C100.354 62.9364 99.8213 61.1601 98.7553 59.5024C97.6899 57.7266 96.2691 56.3648 94.4927 55.4174C92.7163 54.4701 90.6441 53.9965 88.2759 53.9965C83.1848 53.9965 79.8098 55.4766 78.1521 58.437C76.4944 61.2787 75.6653 63.5282 75.6653 65.1864C75.6653 66.1337 75.843 67.3177 76.1985 68.7386C76.5534 70.0408 76.7903 71.1658 76.9089 72.1131C77.6194 74.718 78.9812 77.5603 80.9938 80.6389C83.1251 83.5988 85.4933 86.796 88.0988 90.2301C88.6905 89.1641 90.5259 86.6182 93.6045 82.5924C96.8018 78.5666 98.6963 75.0735 99.288 72.1131ZM112.609 149.02C114.267 149.02 117.05 149.494 120.957 150.441C124.983 151.388 128.417 152.277 131.259 153.106C131.259 152.75 131.259 152.454 131.259 152.218C130.312 151.152 130.134 149.968 130.726 148.665C131.437 147.481 129.601 146.356 125.22 145.29C118.945 144.225 114.267 143.455 111.188 142.981C108.228 142.39 105.505 142.034 103.018 141.916C100.532 141.797 97.6899 141.738 94.4927 141.738H88.4537H82.0598C76.968 141.738 73.7708 141.797 72.4686 141.916C71.2845 142.034 68.7386 142.449 64.8309 143.159C61.0419 143.751 57.0161 144.402 52.7532 145.113C48.4904 145.823 46.3591 147.007 46.3591 148.665C46.3591 148.783 46.4775 149.198 46.7143 149.909C46.9511 150.263 46.7735 150.797 46.1815 151.507C45.7078 152.336 45.5302 152.869 45.6486 153.106C46.7143 152.75 49.793 151.981 54.8846 150.797C60.0947 149.613 63.2323 149.02 64.2983 149.02L88.4537 148.665L112.609 149.02ZM92.5391 29.8409H105.683V38.7216H92.3614V49.0233C93.6636 48.4312 95.3809 48.7865 97.5122 50.0889C99.6435 51.3915 101.301 52.8124 102.485 54.3517C103.788 55.7726 104.794 59.9169 105.505 66.7845C105.86 67.2581 106.274 67.7317 106.748 68.2059C108.051 64.89 111.07 62.4038 115.806 60.7461C120.543 58.9697 124.865 58.0815 128.772 58.0815C132.443 58.0815 136.055 58.7329 139.607 60.0356C143.278 61.3378 145.942 62.4628 147.599 63.4101C149.257 64.3573 151.093 65.9559 153.106 68.2059C155.237 70.3372 156.776 73.1199 157.723 76.5534C158.789 79.8688 159.322 83.8356 159.322 88.4537C159.322 93.7822 157.96 99.1108 155.237 104.439C152.987 108.347 151.27 111.425 150.086 113.675C145.349 119.832 140.613 125.99 135.877 132.147C134.811 134.278 133.982 136.055 133.39 137.476C132.798 138.778 132.503 140.14 132.503 141.56C132.503 142.271 132.621 143.1 132.857 144.047C133.094 144.876 134.574 145.883 137.298 147.067C140.14 148.251 141.679 149.672 141.916 151.329C142.39 154.645 140.85 157.013 137.298 158.434C133.746 159.973 130.667 161.335 128.062 162.519C125.457 163.821 122.437 164.769 119.004 165.361C115.688 166.071 111.425 166.9 106.215 167.848C101.005 168.795 95.0254 169.269 88.2759 169.269C81.5265 169.269 75.3103 168.735 69.6268 167.67C64.0614 166.604 59.7988 165.835 56.8384 165.361C53.7596 164.65 50.7402 163.585 47.78 162.164C44.9381 160.861 41.9779 159.559 38.8992 158.257C35.5838 156.48 34.1628 154.171 34.6365 151.329C34.8733 149.908 36.4127 148.488 39.2545 147.067C42.0963 145.646 43.6357 144.343 43.8725 143.159C44.2277 141.265 43.9316 139.429 42.9843 137.653C42.1555 135.758 41.2674 133.923 40.3202 132.147C39.2545 129.542 36.827 126.167 33.0379 122.023C29.2488 117.879 25.9926 113.438 23.2692 108.702C20.6641 103.847 18.9472 100.176 18.1184 97.6899C17.2895 95.2031 16.875 92.1246 16.875 88.4537C16.875 83.5987 17.3486 79.5729 18.2959 76.3757C19.2432 73.179 20.7825 70.4554 22.9139 68.2059C25.1637 65.8372 26.999 64.2392 28.42 63.4101C29.8409 62.5809 32.4459 61.5156 36.235 60.2128C40.0241 58.7919 43.8132 58.0815 47.6024 58.0815C51.6283 58.0815 55.3582 58.7329 58.7919 60.0356C62.3447 61.3378 64.7719 62.5809 66.0741 63.7656C67.4949 64.9496 68.5018 66.4296 69.0936 68.2059C69.3304 67.8504 69.6268 67.4949 69.9818 67.14C70.8109 60.2724 71.8763 56.0687 73.179 54.5293C74.4812 52.99 76.1389 51.5691 78.1521 50.2666C80.2834 48.8456 82.0007 48.4312 83.3029 49.0233V38.7216H70.1595V29.8409H83.3029V16.875H92.5391V29.8409ZM78.1521 110.833V95.7358V95.9136C77.2048 91.8878 75.9617 88.8682 74.4221 86.8551C72.6463 85.1974 71.1068 83.5987 69.804 82.0597C68.5018 80.4021 66.5477 78.9216 63.9428 77.6194C61.5746 75.9617 59.3843 74.718 57.3711 73.8894C55.4766 72.9422 53.3453 72.4686 50.977 72.4686C49.4377 72.4686 47.6616 72.5276 45.6486 72.6463C43.6356 72.7644 41.2674 73.7117 38.544 75.4881C35.8206 77.2639 34.0444 79.5139 33.2156 82.2375C32.5051 84.9606 32.1499 87.0919 32.1499 88.6314C32.1499 89.6968 32.2091 90.7627 32.3275 91.8287C32.5643 92.8941 32.9195 94.4336 33.3932 96.4462C33.8668 98.3407 34.3997 99.9984 34.9917 101.42C35.7022 102.722 36.8863 104.853 38.544 107.814C39.6097 109.353 40.6754 110.774 41.741 112.076C42.9252 113.379 44.2869 114.74 45.8262 116.162C46.2999 116.043 48.2536 115.57 51.6875 114.74C55.2398 113.793 58.0224 113.024 60.0356 112.432C63.351 111.958 66.2518 111.603 68.7386 111.366C71.2249 111.011 74.3631 110.833 78.1521 110.833ZM116.162 112.432C118.648 113.024 121.076 113.616 123.444 114.208C125.812 114.8 128.121 115.451 130.371 116.162C131.555 114.978 132.739 113.734 133.923 112.432C135.226 111.129 136.528 109.353 137.831 107.103C139.251 104.853 140.317 103.018 141.028 101.597C141.738 100.176 142.271 98.5185 142.626 96.624C143.1 94.6108 143.455 93.0718 143.692 92.0059C143.929 90.8218 144.047 89.6377 144.047 88.4537C144.047 86.9147 143.633 84.8424 142.804 82.2375C142.093 79.5139 140.495 77.3826 138.008 75.843C135.521 74.1853 133.39 73.2381 131.614 73.0012C129.957 72.6457 127.825 72.4686 125.22 72.4686C123.089 72.4686 121.313 72.7054 119.892 73.179C118.589 73.6526 116.517 74.7776 113.675 76.5534C110.951 78.2111 109.176 79.3952 108.347 80.1056C107.518 80.6979 106.452 81.7633 105.15 83.3029C103.728 84.4869 102.426 85.8487 101.242 87.3883C100.176 88.8092 99.1108 91.6509 98.0449 95.9136V95.7358V110.833C102.426 110.833 106.097 111.07 109.057 111.544C112.017 111.899 114.386 112.195 116.162 112.432ZM95.3809 70.5144C95.8545 68.1463 96.0913 66.6073 96.0913 65.8969C96.0913 65.0678 95.7954 63.9427 95.2031 62.5219C94.4927 61.4565 93.5454 60.7461 92.3614 60.3906C91.1773 59.9169 89.8155 59.6801 88.2759 59.6801C86.3814 59.6801 84.9015 59.8579 83.8356 60.2128C82.7702 60.4496 81.882 61.2197 81.1716 62.5219C80.4611 63.7059 80.1056 65.0087 80.1056 66.4296C80.1056 67.8504 80.3424 69.2123 80.8161 70.5144C81.2897 72.6463 82.5334 75.0144 84.546 77.6194C86.6779 80.2243 87.8619 81.882 88.0988 82.5924C88.4537 81.882 89.6378 80.2243 91.6509 77.6194C93.7823 75.0144 95.0254 72.6463 95.3809 70.5144Z" fill="black"/>
<path fill-rule="evenodd" clip-rule="evenodd" d="M83.6584 96.2691V115.451C79.277 115.451 75.7839 115.57 73.179 115.806C70.6922 116.043 67.3177 116.517 63.0551 117.227C58.7919 117.938 54.8847 118.767 51.3324 119.714C47.7801 120.661 44.7014 121.609 42.0964 122.556C40.2019 120.779 38.4849 119.004 36.9456 117.227C35.4063 115.451 33.7485 113.201 31.9724 110.478C30.3146 107.636 29.0713 105.387 28.2425 103.728C27.532 102.071 26.94 100.236 26.4663 98.2226C25.9927 96.2094 25.519 94.3149 25.0454 92.5391C24.6901 90.7628 24.5126 88.9273 24.5126 87.0328C24.5126 84.7828 24.9862 82.0007 25.9335 78.6848C26.9991 75.3694 29.1305 72.6463 32.3276 70.5144C35.6431 68.265 38.1889 66.9623 39.9651 66.6073C41.8596 66.2518 44.8198 66.0741 48.8457 66.0741C51.806 66.0741 54.2926 66.6073 56.3057 67.6727C58.437 68.6199 61.101 70.1004 64.2982 72.1131C67.4955 74.1263 69.5677 75.5471 70.515 76.3763C71.5804 77.0867 72.6463 78.1521 73.7117 79.5729C74.8957 80.9938 76.6131 82.7111 78.8625 84.7238C80.757 87.2106 82.3556 91.0586 83.6584 96.2691ZM124.332 119.536C120.424 118.471 117.642 117.82 115.984 117.583C110.182 116.754 105.86 116.221 103.018 115.984C100.295 115.629 96.8017 115.451 92.5391 115.451V96.2691C93.4864 92.2427 94.7295 88.9864 96.2691 86.5001C98.0449 84.4869 99.7026 82.5924 101.242 80.8166C102.9 78.9216 104.38 77.4416 105.682 76.3763C107.103 75.1916 109.353 73.6526 112.432 71.7581C115.629 69.7449 118.115 68.3241 119.892 67.4955C121.786 66.5477 124.273 66.0741 127.352 66.0741C130.785 66.0741 133.627 66.3109 135.877 66.7851C138.127 67.14 140.791 68.3831 143.869 70.5144C147.067 72.6463 149.139 75.3694 150.086 78.6848C151.152 82.0007 151.685 84.7238 151.685 86.8551C151.685 88.0391 151.507 89.6378 151.152 91.6509C150.797 93.6636 150.382 95.6177 149.908 97.5122C149.554 99.4067 148.961 101.242 148.133 103.018C147.422 104.794 146.001 107.34 143.869 110.656C141.857 113.853 140.258 116.102 139.074 117.405C138.008 118.708 136.351 120.425 134.101 122.556C131.496 121.49 128.239 120.484 124.332 119.536ZM118.471 138.719C114.09 137.771 111.129 137.239 109.59 137.12C107.814 137.002 105.978 136.824 104.084 136.587C102.189 136.351 100.473 136.232 98.9331 136.232C97.3941 136.351 95.7358 136.41 93.96 136.41H88.2765H82.7702C81.1125 136.292 79.6325 136.232 78.3298 136.232C75.3694 136.232 72.5867 136.41 69.9817 136.765C67.3768 137.002 63.8837 137.594 59.5024 138.541C55.1214 139.488 52.1612 140.021 50.6219 140.14C50.0299 140.14 49.8523 139.785 50.0891 139.074C50.3259 138.245 50.2075 137.594 49.7338 137.12C49.3786 136.528 49.201 136.173 49.201 136.055C49.201 134.752 50.3851 133.864 52.7533 133.39C55.1215 132.917 60.0356 132.147 67.4955 131.081L88.0987 130.016C90.7037 130.252 94.0191 130.371 98.0449 130.371C102.071 130.371 107.162 130.844 113.32 131.792C119.477 132.739 123.148 133.45 124.332 133.923C124.806 135.107 125.338 136.232 125.931 137.298C125.575 137.653 125.457 138.245 125.575 139.074C125.812 139.785 125.694 140.14 125.22 140.14C125.102 140.14 122.852 139.666 118.471 138.719ZM100.354 64.8309C99.999 67.3178 99.6435 69.7449 99.2886 72.1131C98.6962 75.0735 96.8017 78.5666 93.6045 82.5924C90.5259 86.6183 88.6905 89.1641 88.0987 90.2301C85.4938 86.796 83.1257 83.5988 80.9938 80.6389C78.9812 77.5603 77.6194 74.718 76.9089 72.1131C76.7902 71.1658 76.5534 70.0408 76.1985 68.7386C75.843 67.3178 75.6658 66.1337 75.6658 65.1864C75.6658 63.5288 76.4944 61.2788 78.152 58.437C79.8097 55.4766 83.1847 53.9965 88.2765 53.9965C90.6446 53.9965 92.7169 54.4701 94.4927 55.4174C96.2691 56.3648 97.6899 57.7266 98.7553 59.5024C99.8212 61.1601 100.354 62.9364 100.354 64.8309ZM120.957 150.441C117.05 149.494 114.267 149.02 112.61 149.02L88.4537 148.665L64.2982 149.02C63.2323 149.02 60.0947 149.613 54.8847 150.797C49.7931 151.981 46.7144 152.75 45.6487 153.106C45.5303 152.869 45.7079 152.336 46.1816 151.507C46.7736 150.797 46.9512 150.263 46.7144 149.909C46.4776 149.198 46.3592 148.784 46.3592 148.665C46.3592 147.008 48.4905 145.823 52.7533 145.113C57.0161 144.402 61.0419 143.751 64.8309 143.159C68.7386 142.449 71.2845 142.034 72.4686 141.916C73.7713 141.797 76.968 141.738 82.0597 141.738H88.4537H94.4927C97.6899 141.738 100.532 141.797 103.018 141.916C105.505 142.034 108.228 142.39 111.188 142.981C114.267 143.455 118.945 144.225 125.22 145.29C129.601 146.356 131.437 147.481 130.726 148.665C130.134 149.968 130.312 151.152 131.259 152.218V153.106C128.417 152.277 124.983 151.388 120.957 150.441ZM96.0913 65.8969C96.0913 66.6073 95.8545 68.1463 95.3809 70.5144C95.0254 72.6463 93.7822 75.0144 91.6509 77.6194C89.6377 80.2243 88.4537 81.882 88.0987 82.5924C87.8619 81.882 86.6779 80.2243 84.5466 77.6194C82.5334 75.0144 81.2902 72.6463 80.8166 70.5144C80.343 69.2123 80.1062 67.8504 80.1062 66.4296C80.1062 65.0087 80.4611 63.7059 81.1716 62.5219C81.882 61.2197 82.7702 60.4496 83.8361 60.2128C84.9015 59.8579 86.3814 59.6801 88.2765 59.6801C89.8155 59.6801 91.1773 59.9169 92.3614 60.3906C93.5454 60.7461 94.4927 61.4565 95.2031 62.5219C95.7954 63.9428 96.0913 65.0678 96.0913 65.8969ZM116.162 112.432C118.648 113.024 121.076 113.616 123.444 114.208C125.812 114.8 128.121 115.451 130.371 116.162C131.555 114.978 132.739 113.734 133.923 112.432C135.226 111.129 136.528 109.353 137.83 107.103C139.251 104.853 140.317 103.018 141.028 101.597C141.738 100.176 142.271 98.5185 142.626 96.624C143.1 94.6108 143.455 93.0718 143.692 92.0059C143.929 90.8218 144.047 89.6378 144.047 88.4537C144.047 86.9147 143.633 84.8424 142.804 82.2375C142.094 79.5139 140.495 77.3826 138.008 75.843C135.522 74.1853 133.39 73.2381 131.614 73.0013C129.957 72.6463 127.825 72.4686 125.22 72.4686C123.088 72.4686 121.313 72.7054 119.892 73.179C118.589 73.6526 116.517 74.7776 113.675 76.5534C110.951 78.2111 109.176 79.3952 108.346 80.1056C107.518 80.6979 106.452 81.7639 105.15 83.3029C103.729 84.4869 102.426 85.8488 101.242 87.3883C100.176 88.8092 99.1108 91.6509 98.0449 95.9136V110.833C102.426 110.833 106.097 111.07 109.057 111.544C112.017 111.899 114.385 112.195 116.162 112.432ZM78.152 95.9136V110.833C74.363 110.833 71.2254 111.011 68.7386 111.366C66.2518 111.603 63.351 111.958 60.0356 112.432C58.0224 113.024 55.2399 113.793 51.6876 114.741C48.2537 115.57 46.3 116.043 45.8263 116.162C44.287 114.741 42.9253 113.379 41.7411 112.076C40.6755 110.774 39.6098 109.353 38.5441 107.814C36.8864 104.853 35.7023 102.722 34.9918 101.42C34.3998 99.999 33.8669 98.3408 33.3933 96.4463C32.9196 94.4336 32.5644 92.8941 32.3276 91.8287C32.2092 90.7628 32.15 89.6968 32.15 88.6314C32.15 87.0919 32.5052 84.9606 33.2157 82.2375C34.0445 79.5139 35.8207 77.2639 38.5441 75.4881C41.2675 73.7117 43.6357 72.7644 45.6487 72.6463C47.6617 72.5276 49.4378 72.4686 50.9771 72.4686C53.3454 72.4686 55.4767 72.9422 57.3711 73.8894C59.3842 74.718 61.5746 75.9617 63.9433 77.6194C66.5482 78.9216 68.5018 80.4021 69.8046 82.0598C71.1067 83.5988 72.6463 85.1974 74.4221 86.8551C75.9617 88.8683 77.2048 91.8878 78.152 95.9136Z" fill="#EEEEEE"/>
</svg>
