<svg width="180" height="180" viewBox="0 0 180 180" fill="none" xmlns="http://www.w3.org/2000/svg">
<path d="M102.544 23.802C103.254 25.5781 103.61 27.2951 103.61 28.9528C103.61 30.8473 103.077 32.5051 102.011 33.926C100.59 34.9917 99.1693 36.0574 97.7484 37.1231C97.2748 37.9519 97.038 39.0176 97.038 40.3201C97.038 42.3331 97.9852 46.5367 99.8797 52.9308C101.893 59.2065 103.017 62.9364 103.254 64.1205C103.491 65.3046 103.728 70.1595 103.965 78.6848C104.32 87.2106 104.971 91.4732 105.919 91.4732C106.274 91.4732 107.044 90.2891 108.228 87.921C109.53 85.4342 110.951 81.1125 112.49 74.9548C114.029 68.7977 115.095 64.89 115.688 63.2323C116.279 61.4565 117.7 58.9106 119.95 55.595C122.318 52.1611 123.502 49.4377 123.502 47.4247C123.502 46.2406 123.325 45.2342 122.97 44.4053C122.614 43.458 121.845 42.4515 120.661 41.3858C119.477 40.3202 118.589 39.0768 117.996 37.6559C117.404 36.1166 117.109 34.4589 117.109 32.6827C117.109 30.7882 117.819 28.5976 119.24 26.111C120.779 23.506 123.739 22.2034 128.121 22.2034C132.383 22.2034 135.284 23.5652 136.824 26.2886C138.481 28.8936 139.31 31.1434 139.31 33.0379C139.31 34.222 139.192 35.1693 138.955 35.8798C138.837 36.4718 138.481 37.4191 137.89 38.7216C137.415 40.0241 136.409 41.149 134.87 42.0963C133.449 42.9252 132.383 44.2869 131.673 46.1814C130.962 47.9576 130.43 49.6153 130.074 51.1547C129.837 52.5756 129.719 54.4109 129.719 56.6606C129.719 58.0815 129.719 59.562 129.719 61.101C129.719 62.6406 129.778 64.2392 129.896 65.8969C129.896 69.5672 129.837 73.1194 129.719 76.5534C129.601 79.9875 129.482 83.3029 129.364 86.5001C129.364 92.1836 129.956 95.0254 131.14 95.0254C131.851 95.0254 132.798 94.1372 133.982 92.3614C135.284 90.585 136.765 87.8619 138.422 84.1911C140.198 80.4021 141.501 77.8562 142.329 76.5534C143.158 75.1326 145.29 72.5867 148.724 68.9164C152.276 65.2455 153.934 62.9955 153.697 62.1669C153.46 61.2197 152.809 60.1537 151.743 58.9697C150.796 57.7856 150.145 56.7793 149.789 55.9502C149.552 55.0029 149.316 54.1149 149.079 53.286C148.961 52.3387 148.902 51.4507 148.902 50.6218C148.902 48.964 149.671 46.7735 151.21 44.0501C152.75 41.2082 155.532 39.7873 159.558 39.7873C163.584 39.7873 166.367 41.149 167.906 43.8724C169.445 46.4775 170.215 48.668 170.215 50.4442C170.215 52.3387 169.801 54.0557 168.972 55.595C168.261 57.1342 166.9 58.6142 164.887 60.0356C162.874 61.3378 161.335 62.5809 160.269 63.765C159.321 64.9496 158.552 66.9623 157.96 69.804C157.249 74.7776 156.48 79.8098 155.65 84.9015C154.94 89.8746 154.348 94.0191 153.875 97.3344C153.519 100.65 152.395 103.847 150.5 106.926C147.066 111.662 144.402 115.392 142.507 118.115C140.731 120.839 139.606 123.503 139.133 126.108C138.659 128.713 138.304 130.726 138.067 132.147C137.83 133.568 137.712 134.871 137.712 136.055C137.712 137.949 137.949 139.725 138.422 141.383C138.896 142.922 139.784 144.402 141.086 145.823C142.389 147.363 143.04 148.783 143.04 150.086C143.04 152.099 142.626 153.638 141.797 154.704C140.968 155.888 139.784 157.309 138.244 158.967C136.705 160.743 134.337 161.809 131.14 162.164C127.943 162.637 124.805 163.052 121.726 163.407C110.004 165.894 99.702 167.137 90.8212 167.137C82.0592 167.137 71.6979 165.894 59.7386 163.407C55.4761 162.934 52.0422 162.519 49.4372 162.164C46.8321 161.809 44.7008 160.684 43.043 158.789C41.3853 157.013 40.2012 155.533 39.4907 154.349C38.7803 153.165 38.4251 151.744 38.4251 150.086C38.4251 149.02 39.1355 147.54 40.5564 145.646C41.9774 143.751 42.8654 142.153 43.2206 140.85C43.5759 139.548 43.7535 137.949 43.7535 136.055C43.7535 134.989 43.6351 133.627 43.3982 131.969C43.1614 130.312 42.8062 128.298 42.3326 125.93C41.8589 123.444 40.438 120.543 38.0698 117.227C35.7016 113.793 33.4518 110.478 31.3204 107.281C29.1891 103.965 27.8274 100.354 27.2353 96.4462C26.6433 92.4204 25.992 88.0391 25.2816 83.3029C24.6895 78.5666 24.1566 74.5408 23.683 71.2249C23.3278 67.9095 22.4397 65.4233 21.0188 63.765C19.5979 61.9892 17.9993 60.5683 16.2232 59.5024C14.447 58.437 13.1446 57.1342 12.3157 55.595C11.6052 54.0557 11.25 52.3387 11.25 50.4442C11.25 48.668 12.0196 46.4775 13.559 43.8724C15.0983 41.149 17.8809 39.7873 21.9069 39.7873C25.9328 39.7873 28.5378 40.853 29.7219 42.9843C31.0244 45.1158 31.7941 46.655 32.0309 47.6023C32.3862 48.4312 32.5637 49.4377 32.5637 50.6218C32.5637 52.3979 32.2085 54.2925 31.498 56.3057C30.1956 58.3183 28.9523 60.2724 27.7682 62.1669C27.6497 62.8774 29.4259 65.4233 33.0966 69.804C36.8857 74.0672 39.5499 77.6784 41.0893 80.6389C42.6286 83.5988 44.76 87.5655 47.4834 92.5391C48.6675 94.1968 49.6147 95.0254 50.3252 95.0254C51.5093 95.0254 52.1013 92.1836 52.1013 86.5001C52.1013 81.882 52.0422 77.9743 51.9238 74.7776C51.8054 71.5804 51.6869 68.6199 51.5685 65.8969C51.5685 64.2392 51.5685 62.6406 51.5685 61.101C51.5685 59.562 51.6277 58.0815 51.7461 56.6606C51.7461 54.5293 51.6278 52.7532 51.3909 51.3322C51.1541 49.7929 50.6212 48.076 49.7924 46.1814C48.9635 44.1685 47.8386 42.7475 46.4177 41.9187C44.9968 40.9714 44.1087 40.0833 43.7535 39.2545C43.3982 38.4256 43.043 37.3599 42.6878 36.0574C42.3326 34.7549 42.1549 33.6892 42.1549 32.8603C42.1549 31.0842 42.9246 28.8936 44.4639 26.2886C46.1217 23.5652 49.0819 22.2034 53.3447 22.2034C57.726 22.2034 60.6268 23.506 62.0477 26.111C63.5872 28.5976 64.3568 30.8473 64.3568 32.8603C64.3568 34.518 64.0609 36.1166 63.4686 37.6559C62.8768 39.0768 61.9296 40.4386 60.6268 41.741C59.4428 42.9252 58.6733 43.8724 58.3178 44.5829C58.0809 45.2933 57.9628 46.2998 57.9628 47.6023C57.9628 49.3785 59.0878 51.9243 61.3372 55.2398C63.5872 58.437 65.5408 62.7587 67.1985 68.2054C68.9749 73.6526 71.2839 80.8757 74.1257 89.8746C74.7174 90.9405 75.1911 91.4732 75.5466 91.4732C76.257 91.4732 76.6716 87.2106 76.7897 78.6848C77.0265 70.1595 77.382 64.6532 77.8556 62.1669C78.3292 59.6801 79.5133 55.8318 81.4078 50.6218C83.3023 45.4117 84.2496 41.8594 84.2496 39.9649C84.2496 39.0176 84.1314 38.248 83.8946 37.6559C83.6578 36.9454 82.9474 36.2942 81.7633 35.7022C80.5787 34.9917 79.6314 34.1628 78.921 33.2156C78.2106 32.2683 77.8556 30.7882 77.8556 28.7752C77.8556 27.2359 78.2702 25.4597 79.0988 23.4467C79.9279 21.4338 81.4078 19.8353 83.5391 18.6511C85.6704 17.4671 88.0386 16.875 90.6435 16.875C93.4858 16.875 95.913 17.4671 97.9262 18.6511C100.057 19.7169 101.596 21.4338 102.544 23.802ZM114.8 97.6899C116.812 97.6899 118.352 97.9268 119.417 98.4004C120.602 98.7553 121.904 99.2289 123.325 99.8213C124.864 100.413 125.634 99.7026 125.634 97.6899C125.634 96.5053 125.338 94.4336 124.746 91.4732C124.272 88.3946 124.035 86.4405 124.035 85.6119C124.035 83.007 124.154 79.0402 124.391 73.7117C124.746 68.3831 124.923 65.4823 124.923 65.0087C124.923 61.8114 124.627 60.2128 124.035 60.2128C123.68 60.2128 122.97 60.9829 121.904 62.5219C120.839 64.0614 119.891 67.0213 119.062 71.4026C118.352 75.7839 117.819 78.5076 117.464 79.5729C117.109 80.5202 115.984 82.9479 114.089 86.8551C112.313 90.7627 111.424 93.4267 111.424 94.8476C111.424 96.7421 112.55 97.6899 114.8 97.6899ZM17.1113 48.1352C16.5192 49.0825 16.2232 50.2073 16.2232 51.5099C16.2232 51.9835 16.2824 52.3979 16.4008 52.7532C16.756 53.1084 17.1705 53.6412 17.6441 54.3517C18.2362 55.0622 19.5979 55.4174 21.7293 55.4174C22.7949 55.4174 23.7422 55.299 24.5711 55.0622C25.4 54.8254 26.0512 54.3517 26.5249 53.6412C26.9985 52.9308 27.2353 52.1019 27.2353 51.1547C27.2353 50.0889 26.9985 49.2009 26.5249 48.4904C26.0512 47.7799 25.3407 47.3063 24.3935 47.0695C23.5646 46.7143 22.7949 46.4182 22.0845 46.1814C20.5451 46.2998 19.4795 46.4775 18.8874 46.7143C18.2954 46.8327 17.7033 47.3063 17.1113 48.1352ZM48.5491 30.3737C47.957 31.321 47.661 32.4459 47.661 33.7484C47.661 34.2221 47.7202 34.6365 47.8386 34.9917C48.1938 35.3469 48.6083 35.8798 49.082 36.5902C49.674 37.3007 51.0357 37.6559 53.167 37.6559C54.2328 37.6559 55.18 37.5375 56.0089 37.3007C56.8378 37.0639 57.4892 36.5902 57.9628 35.8798C58.4364 35.1693 58.6733 34.3405 58.6733 33.3932C58.6733 32.3275 58.4364 31.4394 57.9628 30.729C57.4892 30.0185 56.7787 29.5449 55.8313 29.308C55.0024 28.9528 54.2328 28.6568 53.5223 28.42C51.9829 28.5384 50.9173 28.716 50.3252 28.9528C49.7332 29.0712 49.1411 29.5449 48.5491 30.3737ZM85.8482 25.7558C85.2559 26.703 84.96 27.8871 84.96 29.308C84.96 30.0185 85.3746 30.9657 86.2031 32.1499C87.0322 33.2156 88.6309 33.7484 90.999 33.7484C92.4199 33.7484 93.4858 33.63 94.1963 33.3932C94.9067 33.0379 95.5575 32.5051 96.1498 31.7946C96.7421 30.9657 97.038 30.0777 97.038 29.1304C97.038 27.8279 96.7421 26.8214 96.1498 26.111C95.6762 25.2821 94.788 24.69 93.4858 24.3348C92.1831 23.8612 91.4726 23.5652 91.3539 23.4467C89.4594 23.802 88.2163 24.098 87.6246 24.3348C87.1509 24.4532 86.5586 24.9269 85.8482 25.7558ZM123.68 30.729C123.088 31.6762 122.792 32.8011 122.792 34.1036C122.792 34.5773 122.851 34.9917 122.97 35.3469C123.325 35.7022 123.739 36.235 124.213 36.9454C124.805 37.6559 126.167 38.0112 128.298 38.0112C129.364 38.0112 130.311 37.8928 131.14 37.6559C131.969 37.4191 132.62 36.9455 133.094 36.235C133.567 35.5246 133.804 34.6957 133.804 33.7484C133.804 32.6827 133.567 31.7946 133.094 31.0841C132.62 30.3737 131.91 29.9001 130.962 29.6633C130.133 29.308 129.364 29.012 128.653 28.7752C127.114 28.8936 126.048 29.0712 125.456 29.308C124.864 29.4265 124.272 29.9001 123.68 30.729ZM155.296 48.1352C154.703 49.0825 154.407 50.2073 154.407 51.5099C154.407 51.9835 154.466 52.3979 154.585 52.7532C154.94 53.1084 155.355 53.6412 155.828 54.3517C156.421 55.0622 157.782 55.4174 159.914 55.4174C160.979 55.4174 161.926 55.299 162.755 55.0622C163.584 54.8254 164.235 54.3517 164.709 53.6412C165.183 52.9308 165.419 52.1019 165.419 51.1547C165.419 50.0889 165.183 49.2009 164.709 48.4904C164.235 47.7799 163.525 47.3063 162.578 47.0695C161.749 46.7143 160.979 46.4182 160.269 46.1814C158.73 46.2998 157.664 46.4775 157.072 46.7143C156.48 46.8327 155.887 47.3063 155.296 48.1352ZM66.6658 102.841C60.2719 104.498 54.8248 106.215 50.3252 107.992C45.944 109.649 43.7535 111.603 43.7535 113.853C43.7535 114.681 43.9903 115.333 44.4639 115.806C44.9376 116.28 45.5296 117.346 46.2401 119.004C46.9505 120.661 47.661 121.49 48.3715 121.49C49.674 121.49 51.2133 120.957 52.9895 119.891C54.884 118.826 57.2524 117.997 60.0941 117.405C63.054 116.695 67.2576 116.162 72.7048 115.806C78.1515 115.333 84.1905 115.096 90.8212 115.096C98.6366 115.096 104.616 115.274 108.76 115.629C112.905 115.865 116.694 116.399 120.128 117.227C123.562 117.938 126.166 118.826 127.943 119.891C129.837 120.957 131.436 121.49 132.738 121.49C133.212 121.49 133.745 120.957 134.337 119.891C134.929 118.826 135.58 117.583 136.291 116.162C137.001 115.451 137.356 114.681 137.356 113.853C137.356 111.129 134.692 108.879 129.364 107.103C124.154 105.327 119.417 103.965 115.154 103.018C110.892 101.953 106.747 101.242 102.722 100.887C98.8138 100.532 94.9067 100.176 90.999 99.8213C85.0787 100.295 80.4606 100.709 77.1452 101.064C73.9479 101.301 70.4548 101.894 66.6658 102.841ZM115.51 131.081L130.43 133.39C130.667 133.272 130.903 133.153 131.14 133.035C130.785 131.732 130.844 130.785 131.317 130.193C131.791 129.483 132.028 128.832 132.028 128.239C132.028 126.7 130.785 125.693 128.298 125.22C125.93 124.628 122.318 124.036 117.464 123.444C112.727 122.734 108.642 122.319 105.208 122.2C101.893 122.082 100.058 122.023 99.702 122.023H90.6435C85.1968 122.023 81.0523 122.082 78.2106 122.2C75.4875 122.319 71.4021 122.793 65.9554 123.621C60.5087 124.45 56.4823 125.161 53.8775 125.753C51.3909 126.345 50.1476 127.351 50.1476 128.772C50.1476 129.364 50.3844 130.016 50.858 130.726C51.4501 131.318 51.5685 132.028 51.2133 132.857C51.3317 133.212 51.4501 133.568 51.5685 133.923C53.1079 133.923 55.18 133.686 57.7851 133.212C60.5087 132.739 63.4686 132.147 66.6658 131.437C69.7444 130.963 72.8229 130.607 75.9015 130.371C79.0987 130.134 81.7628 130.016 83.8946 130.016H90.999C93.1303 130.016 95.0839 130.016 96.8603 130.016C98.7548 130.016 100.472 129.957 102.011 129.838C104.261 129.838 106.156 129.897 107.695 130.016C109.352 130.134 111.958 130.489 115.51 131.081ZM115.332 141.206L133.271 143.869C133.271 143.633 133.271 143.396 133.271 143.159C131.732 141.856 131.14 141.028 131.495 140.672C132.087 140.08 132.383 139.607 132.383 139.251C132.383 138.067 130.962 137.239 128.121 136.765C125.397 136.173 121.43 135.521 116.22 134.811C111.01 134.101 106.629 133.746 103.077 133.746C100.708 133.746 98.5179 133.805 96.5053 133.923C94.4921 133.923 92.6567 133.923 90.999 133.923C89.3413 133.923 87.7427 133.923 86.2031 133.923C84.6641 133.923 83.1842 133.864 81.7633 133.746C77.2633 133.746 73.5334 134.101 70.5735 134.811C67.6131 135.521 63.3504 136.173 57.7851 136.765C52.2198 137.357 49.4372 138.304 49.4372 139.607C49.4372 140.199 49.7332 140.791 50.3252 141.383C50.6805 141.738 50.4437 142.271 49.6148 142.981C48.9043 143.692 48.5491 144.165 48.5491 144.402C50.0884 144.284 53.5223 143.692 58.851 142.626C64.2977 141.56 68.0867 140.909 70.218 140.672C72.468 140.317 74.5993 140.08 76.6119 139.962C78.7438 139.844 81.2301 139.785 84.0718 139.785H90.999C94.1963 139.785 97.3339 139.785 100.412 139.785C103.61 139.785 108.583 140.258 115.332 141.206ZM43.043 95.5581C40.5564 90.585 38.1882 86.0265 35.9384 81.882C33.6886 77.6194 32.0309 75.4881 30.9652 75.4881C30.3731 75.4881 30.0179 75.7839 29.8995 76.3757C29.7811 76.968 29.7219 77.6784 29.7219 78.5076C29.7219 80.4021 30.4916 84.3688 32.0309 90.4072C33.6886 96.3281 34.5767 99.8213 34.6951 100.887C34.932 101.953 35.524 103.373 36.4713 105.149C37.4186 106.807 38.5435 107.636 39.846 107.636C40.0828 107.636 40.6156 107.458 41.4445 107.103C42.3917 106.63 43.2798 106.037 44.1087 105.327C44.9376 104.617 45.7665 104.025 46.5953 103.551C47.4242 103.078 47.8386 102.544 47.8386 101.953C47.8386 101.242 47.069 100.117 45.5297 98.5776C44.1087 96.9199 43.2798 95.9136 43.043 95.5581ZM134.87 152.395C134.278 151.684 133.745 151.034 133.271 150.441C128.298 148.784 123.384 147.955 118.529 147.955C114.148 147.955 108.76 147.777 102.367 147.422C95.9721 147.067 92.2421 146.889 91.1767 146.889C86.085 146.889 81.5856 146.948 77.6779 147.067C73.7702 147.304 69.093 147.599 63.6463 147.955C58.7914 147.955 54.0551 148.724 49.4372 150.263C48.7267 150.974 48.0162 151.684 47.3057 152.395C52.7526 154.408 58.9691 155.711 65.9554 156.302C72.9416 157.013 81.3487 157.368 91.1767 157.368C100.886 157.368 109.175 157.013 116.043 156.302C122.91 155.711 129.186 154.408 134.87 152.395ZM64.7123 79.9284C64.2386 78.6257 63.5872 75.7839 62.7581 71.4026C62.0477 67.0213 60.8046 63.5878 59.0282 61.101C58.4364 60.3906 57.9628 60.2128 57.6073 60.5683C57.2524 60.8051 57.0746 62.3441 57.0746 65.1864C57.0746 67.9095 57.1927 71.8762 57.4296 77.0861C57.7851 82.2966 57.9628 85.1383 57.9628 85.6119C57.9628 87.0328 57.6664 89.2232 57.0746 92.1836C56.601 95.1441 56.3642 96.9789 56.3642 97.6899C56.3642 99.7026 57.1337 100.413 58.6733 99.8213C59.9754 99.2289 61.1595 98.7553 62.2254 98.4004C63.2908 97.9268 64.9491 97.6899 67.1985 97.6899C69.4485 97.6899 70.5735 96.7421 70.5735 94.8476C70.5735 93.4267 69.6262 90.7627 67.7317 86.8551C65.9554 82.9479 64.9491 80.6389 64.7123 79.9284ZM134.692 103.728C135.758 104.321 136.705 104.972 137.534 105.683C138.481 106.393 139.429 107.044 140.376 107.636C142.033 108.465 143.454 107.992 144.638 106.215C145.941 104.321 146.711 102.485 146.948 100.709C147.184 98.9331 148.073 95.3213 149.612 89.8746C151.151 84.4279 151.921 80.757 151.921 78.8625C151.921 78.0334 151.862 77.3229 151.743 76.7312C151.625 76.1389 151.27 75.843 150.677 75.843C149.375 75.843 147.184 78.9216 144.106 85.0793C141.027 91.2364 139.192 94.8476 138.6 95.9136C137.179 97.3344 135.994 98.5776 135.047 99.6435C134.219 100.591 133.804 101.479 133.804 102.307C133.804 102.9 134.1 103.373 134.692 103.728ZM98.9916 76.3757C99.1102 74.3631 99.1693 72.9422 99.1693 72.1131C99.1693 69.5081 98.9325 67.0213 98.4589 64.6532C97.9852 62.2851 97.2748 59.6801 96.3276 56.8384C95.3803 53.9965 93.4858 52.5756 90.6435 52.5756C89.2226 52.5756 88.0982 52.9308 87.2691 53.6412C86.4405 54.3517 85.5523 55.8318 84.6051 58.0815C83.6578 60.2128 83.0064 62.4628 82.6509 64.8309C82.4141 67.1991 82.296 70.6922 82.296 75.3103C82.296 77.2048 81.8224 80.2834 80.8751 84.546C80.046 88.6905 79.6314 91.1177 79.6314 91.8281C79.6314 94.6704 80.8751 95.8545 83.3614 95.3809C83.7169 95.2622 84.5454 95.0844 85.8482 94.8476C87.1509 94.6108 88.2163 94.4927 89.0454 94.4927C89.4004 94.4927 90.5254 94.6704 92.4199 95.0254C94.3144 95.2622 96.0908 95.3809 97.7484 95.3809C99.8798 95.3809 100.946 94.1968 100.946 91.8281C100.946 90.4073 100.59 87.7433 99.8797 83.8356C99.2874 79.8098 98.9916 77.3229 98.9916 76.3757Z" fill="black"/>
<path d="M114.799 97.6894C116.812 97.6894 118.352 97.9262 119.418 98.4004C120.602 98.7553 121.904 99.2289 123.325 99.8212C124.864 100.413 125.634 99.7025 125.634 97.6894C125.634 96.5053 125.338 94.4336 124.746 91.4732C124.272 88.3946 124.035 86.4405 124.035 85.6119C124.035 83.007 124.154 79.0402 124.391 73.7117C124.746 68.3831 124.923 65.4823 124.923 65.0087C124.923 61.8114 124.627 60.2128 124.035 60.2128C123.68 60.2128 122.97 60.9829 121.904 62.5219C120.838 64.0614 119.891 67.0213 119.062 71.4026C118.352 75.7839 117.819 78.507 117.463 79.5729C117.109 80.5202 115.984 82.9474 114.089 86.855C112.313 90.7627 111.424 93.4267 111.424 94.8476C111.424 96.7421 112.549 97.6894 114.799 97.6894ZM17.1113 48.1351C16.5192 49.0824 16.2231 50.2073 16.2231 51.5098C16.2231 51.9835 16.2824 52.3979 16.4008 52.7531C16.7561 53.1084 17.1705 53.6412 17.6441 54.3517C18.2362 55.0621 19.5979 55.4173 21.7292 55.4173C22.7949 55.4173 23.7422 55.2989 24.5711 55.0621C25.3999 54.8253 26.0512 54.3517 26.5248 53.6412C26.9985 52.9307 27.2353 52.1019 27.2353 51.1546C27.2353 50.0889 26.9985 49.2008 26.5248 48.4904C26.0512 47.7799 25.3407 47.3063 24.3935 47.0695C23.5646 46.7143 22.7949 46.4182 22.0845 46.1813C20.5451 46.2998 19.4795 46.4774 18.8874 46.7142C18.2953 46.8327 17.7033 47.3062 17.1113 48.1351ZM48.5491 30.3737C47.957 31.3209 47.661 32.4458 47.661 33.7484C47.661 34.222 47.7202 34.6364 47.8386 34.9916C48.1938 35.3469 48.6083 35.8797 49.0819 36.5902C49.674 37.3007 51.0357 37.6559 53.167 37.6559C54.2327 37.6559 55.18 37.5375 56.0089 37.3007C56.8378 37.0638 57.4892 36.5902 57.9628 35.8797C58.4364 35.1693 58.6732 34.3404 58.6732 33.3931C58.6732 32.3274 58.4364 31.4393 57.9628 30.7289C57.4892 30.0185 56.7787 29.5448 55.8312 29.308C55.0024 28.9528 54.2327 28.6567 53.5223 28.4199C51.983 28.5383 50.9172 28.7159 50.3252 28.9528C49.7332 29.0712 49.1411 29.5448 48.5491 30.3737ZM85.8482 25.7557C85.2559 26.703 84.96 27.887 84.96 29.308C84.96 30.0184 85.3745 30.9657 86.2037 32.1498C87.0322 33.2155 88.6309 33.7484 90.999 33.7484C92.4199 33.7484 93.4858 33.6299 94.1962 33.3931C94.9067 33.0379 95.5575 32.5051 96.1498 31.7946C96.7421 30.9657 97.038 30.0776 97.038 29.1303C97.038 27.8278 96.7421 26.8214 96.1498 26.1109C95.6762 25.2821 94.788 24.69 93.4858 24.3347C92.183 23.8611 91.4726 23.5651 91.3545 23.4467C89.4594 23.8019 88.2163 24.0979 87.6245 24.3347C87.1509 24.4532 86.5586 24.9268 85.8482 25.7557ZM123.68 30.7289C123.088 31.6762 122.792 32.801 122.792 34.1036C122.792 34.5772 122.851 34.9916 122.97 35.3469C123.325 35.7021 123.739 36.2349 124.213 36.9454C124.805 37.6559 126.166 38.0111 128.298 38.0111C129.364 38.0111 130.311 37.8927 131.14 37.6559C131.969 37.4191 132.62 36.9454 133.094 36.2349C133.567 35.5245 133.804 34.6956 133.804 33.7484C133.804 32.6826 133.567 31.7946 133.094 31.0841C132.62 30.3736 131.91 29.9 130.962 29.6632C130.133 29.308 129.364 29.012 128.653 28.7751C127.114 28.8936 126.048 29.0712 125.456 29.308C124.864 29.4264 124.272 29.9001 123.68 30.7289ZM155.296 48.1351C154.703 49.0824 154.407 50.2073 154.407 51.5098C154.407 51.9835 154.466 52.3979 154.585 52.7531C154.94 53.1084 155.355 53.6412 155.828 54.3517C156.421 55.0621 157.782 55.4173 159.914 55.4173C160.979 55.4173 161.926 55.2989 162.755 55.0621C163.584 54.8253 164.235 54.3517 164.709 53.6412C165.183 52.9307 165.419 52.1019 165.419 51.1546C165.419 50.0889 165.183 49.2008 164.709 48.4904C164.235 47.7799 163.525 47.3063 162.578 47.0695C161.749 46.7143 160.979 46.4182 160.269 46.1813C158.73 46.2998 157.664 46.4774 157.072 46.7142C156.48 46.8327 155.887 47.3062 155.296 48.1351ZM66.6658 102.841C60.2718 104.498 54.8248 106.215 50.3252 107.992C45.9441 109.649 43.7535 111.603 43.7535 113.853C43.7535 114.681 43.9903 115.333 44.4639 115.806C44.9376 116.28 45.5296 117.346 46.2401 119.004C46.9505 120.661 47.661 121.49 48.3714 121.49C49.674 121.49 51.2133 120.957 52.9894 119.891C54.884 118.826 57.2523 117.997 60.0941 117.405C63.0545 116.695 67.2575 116.161 72.7048 115.806C78.1515 115.333 84.1905 115.096 90.8212 115.096C98.6366 115.096 104.616 115.274 108.76 115.629C112.905 115.865 116.694 116.399 120.128 117.227C123.562 117.938 126.166 118.826 127.943 119.891C129.837 120.957 131.436 121.49 132.738 121.49C133.212 121.49 133.745 120.957 134.337 119.891C134.929 118.826 135.58 117.583 136.291 116.161C137.001 115.451 137.356 114.681 137.356 113.853C137.356 111.129 134.692 108.879 129.364 107.103C124.154 105.327 119.418 103.965 115.154 103.018C110.892 101.953 106.747 101.242 102.721 100.887C98.8138 100.532 94.9067 100.176 90.999 99.8212C85.0787 100.295 80.4605 100.709 77.1452 101.064C73.9479 101.301 70.4548 101.893 66.6658 102.841ZM115.51 131.081L130.43 133.39C130.666 133.272 130.903 133.153 131.14 133.035C130.785 131.732 130.844 130.785 131.317 130.193C131.791 129.482 132.028 128.832 132.028 128.239C132.028 126.7 130.785 125.693 128.298 125.22C125.93 124.628 122.318 124.036 117.463 123.444C112.727 122.734 108.642 122.319 105.208 122.2C101.893 122.082 100.057 122.023 99.702 122.023H90.6435C85.1968 122.023 81.0523 122.082 78.2105 122.2C75.4875 122.319 71.402 122.793 65.9553 123.621C60.5087 124.45 56.4823 125.161 53.8775 125.753C51.3909 126.345 50.1476 127.351 50.1476 128.772C50.1476 129.364 50.3844 130.016 50.8581 130.726C51.4501 131.318 51.5685 132.028 51.2133 132.857C51.3317 133.212 51.4501 133.568 51.5685 133.923C53.1078 133.923 55.18 133.686 57.785 133.212C60.5087 132.739 63.4685 132.147 66.6658 131.437C69.7443 130.963 72.8229 130.607 75.9015 130.371C79.0987 130.134 81.7633 130.016 83.8946 130.016H90.999C93.1303 130.016 95.0839 130.016 96.8602 130.016C98.7547 130.016 100.472 129.956 102.011 129.838C104.261 129.838 106.156 129.897 107.695 130.016C109.352 130.134 111.958 130.489 115.51 131.081ZM115.332 141.205L133.271 143.869C133.271 143.633 133.271 143.396 133.271 143.159C131.732 141.856 131.14 141.028 131.495 140.672C132.087 140.08 132.383 139.607 132.383 139.251C132.383 138.067 130.962 137.239 128.121 136.765C125.397 136.173 121.43 135.521 116.22 134.811C111.01 134.101 106.629 133.746 103.077 133.746C100.709 133.746 98.5179 133.805 96.5053 133.923C94.4921 133.923 92.6567 133.923 90.999 133.923C89.3413 133.923 87.7427 133.923 86.2037 133.923C84.6641 133.923 83.1842 133.864 81.7633 133.746C77.2633 133.746 73.5333 134.101 70.5735 134.811C67.613 135.521 63.3504 136.173 57.785 136.765C52.2198 137.357 49.4371 138.304 49.4371 139.607C49.4371 140.199 49.7332 140.791 50.3252 141.383C50.6804 141.738 50.4436 142.271 49.6147 142.981C48.9043 143.692 48.5491 144.165 48.5491 144.402C50.0884 144.284 53.5223 143.692 58.851 142.626C64.2977 141.56 68.0867 140.909 70.218 140.672C72.468 140.317 74.5993 140.08 76.6119 139.962C78.7438 139.844 81.23 139.785 84.0718 139.785H90.999C94.1962 139.785 97.3339 139.785 100.412 139.785C103.61 139.785 108.583 140.258 115.332 141.205ZM43.043 95.558C40.5564 90.585 38.1882 86.0265 35.9384 81.882C33.6887 77.6194 32.0309 75.488 30.9652 75.488C30.3732 75.488 30.0179 75.7839 29.8995 76.3757C29.7811 76.968 29.7219 77.6784 29.7219 78.507C29.7219 80.402 30.4916 84.3688 32.0309 90.4072C33.6887 96.3281 34.5767 99.8212 34.6951 100.887C34.932 101.953 35.524 103.373 36.4712 105.149C37.4185 106.807 38.5434 107.636 39.846 107.636C40.0828 107.636 40.6156 107.458 41.4445 107.103C42.3918 106.63 43.2798 106.037 44.1087 105.327C44.9376 104.617 45.7664 104.025 46.5953 103.551C47.4242 103.078 47.8386 102.544 47.8386 101.953C47.8386 101.242 47.069 100.117 45.5296 98.5775C44.1087 96.9199 43.2798 95.9135 43.043 95.558ZM134.87 152.395C134.278 151.684 133.745 151.033 133.271 150.441C128.298 148.783 123.384 147.954 118.529 147.954C114.148 147.954 108.76 147.777 102.367 147.422C95.972 147.067 92.2421 146.889 91.1767 146.889C86.085 146.889 81.5855 146.948 77.6778 147.067C73.7702 147.304 69.093 147.599 63.6463 147.954C58.7914 147.954 54.0552 148.724 49.4371 150.263C48.7267 150.974 48.0162 151.684 47.3058 152.395C52.7526 154.408 58.9691 155.711 65.9553 156.302C72.9416 157.013 81.3487 157.368 91.1767 157.368C100.886 157.368 109.175 157.013 116.043 156.302C122.911 155.711 129.186 154.408 134.87 152.395ZM64.7122 79.9284C64.2386 78.6257 63.5872 75.7839 62.7581 71.4026C62.0477 67.0213 60.8045 63.5878 59.0282 61.101C58.4364 60.3905 57.9628 60.2128 57.6073 60.5683C57.2523 60.8051 57.0746 62.3441 57.0746 65.1864C57.0746 67.9095 57.1927 71.8762 57.4295 77.0861C57.785 82.2965 57.9628 85.1383 57.9628 85.6119C57.9628 87.0328 57.6663 89.2232 57.0746 92.1836C56.601 95.144 56.3642 96.9789 56.3642 97.6894C56.3642 99.7025 57.1337 100.413 58.6732 99.8212C59.9754 99.2289 61.1595 98.7553 62.2254 98.4004C63.2913 97.9262 64.949 97.6894 67.1985 97.6894C69.4485 97.6894 70.5735 96.7421 70.5735 94.8476C70.5735 93.4267 69.6262 90.7627 67.7317 86.855C65.9553 82.9474 64.949 80.6389 64.7122 79.9284ZM134.692 103.728C135.758 104.321 136.705 104.972 137.534 105.682C138.481 106.393 139.429 107.044 140.376 107.636C142.033 108.465 143.454 107.992 144.638 106.215C145.941 104.321 146.711 102.485 146.947 100.709C147.184 98.933 148.072 95.3212 149.612 89.8745C151.151 84.4279 151.921 80.757 151.921 78.8625C151.921 78.0334 151.861 77.3229 151.743 76.7312C151.625 76.1389 151.27 75.843 150.677 75.843C149.375 75.843 147.184 78.9215 144.106 85.0792C141.027 91.2364 139.192 94.8476 138.6 95.9135C137.179 97.3344 135.994 98.5775 135.047 99.6435C134.219 100.591 133.804 101.479 133.804 102.307C133.804 102.9 134.1 103.373 134.692 103.728ZM98.9915 76.3757C99.1102 74.363 99.1693 72.9422 99.1693 72.113C99.1693 69.5081 98.9325 67.0213 98.4588 64.6532C97.9852 62.285 97.2748 59.6801 96.3275 56.8384C95.3803 53.9964 93.4858 52.5755 90.6435 52.5755C89.2226 52.5755 88.0982 52.9307 87.269 53.6412C86.4405 54.3517 85.5523 55.8318 84.605 58.0815C83.6578 60.2128 83.0064 62.4628 82.6509 64.8309C82.4141 67.199 82.296 70.6922 82.296 75.3103C82.296 77.2048 81.8224 80.2834 80.8751 84.546C80.046 88.6905 79.6314 91.1177 79.6314 91.8281C79.6314 94.6704 80.8751 95.8545 83.3614 95.3809C83.7169 95.2622 84.5454 95.0844 85.8482 94.8476C87.1509 94.6108 88.2163 94.4927 89.0454 94.4927C89.4004 94.4927 90.5254 94.6704 92.4199 95.0254C94.3144 95.2622 96.0907 95.3809 97.7484 95.3809C99.8797 95.3809 100.946 94.1968 100.946 91.8281C100.946 90.4072 100.59 87.7432 99.8797 83.8355C99.2874 79.8097 98.9915 77.3229 98.9915 76.3757Z" fill="white"/>
</svg>
