<svg width="133" height="133" viewBox="0 0 133 133" fill="none" xmlns="http://www.w3.org/2000/svg">
<path d="M29 115V105H47.6L51.4 88.8C53.5 79.8 55.4 72 55.7 71.4C55.9 70.8 52.7 66 48.5 60.7C44.4 55.3 41 50.5 41 49.9C41 49.3 43.1 46.1 45.7 42.8L50.4 36.7L53 39.8L55.7 43L58.9 38.5L62.1 34L60.1 31.1C58.9 29.5 58 27.9 58 27.5C58 26.5 67.2 15 67.9 15C68.2 15.1 71.6 19.2 75.5 24.3C79.3 29.3 85.4 37.1 88.8 41.7L95.2 49.9L87.4 60L79.6 70.1L82.8 83.8C84.6 91.3 86.5 99.2 87.1 101.3L88.1 105H106V125H29V115Z" fill="#E4F9F5"/>
<path d="M106 115V105H88.1L87.1 101.3C86.5 99.2 84.6 91.3 82.8 83.8L79.6 70.1L87.3 60.1C91.5 54.6 95 50 95 49.8C95 49.6 89.6 49.7 83.1 50L71.2 50.5L64 59.8C60.1 64.8 56.6 69 56.2 69C55.8 69 55.4 70.1 55.4 71.5C55.3 72.9 55.6 74 56 74C56.5 74 59.8 75.8 63.4 78.1L69.8 82.1L70.5 91.8C71.4 105.2 71.3 105 76.6 105H81V125H106V115ZM63.8 45.1C65.6 42.9 67 40.8 67 40.3C67 39.9 66 38.2 64.7 36.6L62.4 33.7L58.8 38.6L55.2 43.4L57.3 46.2C58.4 47.7 59.7 49 60 49C60.4 49 62.1 47.2 63.8 45.1Z" fill="#6DD6C7"/>
<path d="M81 115V105H76.6C71.3 105 71.4 105.2 70.5 91.8L69.8 82.1L63.4 78.1C59.8 75.8 56.5 74 56.1 74C55.4 74 54.1 78.6 49.8 96.3L47.7 105H29V125H81V115ZM64.2 59.5L71.5 50H82.7C88.9 50 94 49.7 93.9 49.3C93.9 48.4 90.8 44.3 78.2 28.5C73.2 22.1 69 16.4 69 15.9C69 13.9 67.2 15.4 62.7 21.5L57.9 27.9L62.4 33.7C64.9 36.9 67 39.9 67 40.3C67 41.4 60.9 49 60 49C59.6 49 57.4 46.3 55 43C52.6 39.8 50.4 37.3 49.9 37.5C49.5 37.8 47.3 40.8 45 44.1L40.9 50.2L45.6 56.3C48.3 59.7 51.6 64 53 65.7C54.4 67.5 55.8 69 56.2 69C56.6 69 60.2 64.7 64.2 59.5Z" fill="#E4F9F5"/>
<path d="M29 115V105H47.6L51.4 88.8C53.5 79.8 55.4 72 55.7 71.4C55.9 70.8 52.7 66 48.5 60.7C44.4 55.3 41 50.5 41 49.9C41 49.3 43.1 46.1 45.7 42.8L50.4 36.7L53 39.8L55.7 43L58.9 38.5L62.1 34L60.1 31.1C58.9 29.5 58 27.9 58 27.5C58 26.5 67.2 15 67.9 15C68.2 15.1 71.6 19.2 75.5 24.3C79.3 29.3 85.4 37.1 88.8 41.7L95.2 49.9L87.4 60L79.6 70.1L82.8 83.8C84.6 91.3 86.5 99.2 87.1 101.3L88.1 105H106V125H29V115Z" stroke="black" stroke-width="2.4"/>
</svg>
