<svg width="133" height="133" viewBox="0 0 133 133" fill="none" xmlns="http://www.w3.org/2000/svg">
<path d="M27.937 114.741V104.764H51.5836L53.2798 99.0765L54.8762 93.2896L47.6924 78.024L40.5086 62.6587L42.9032 60.7629C48.6902 56.3728 55.874 54.4771 66.8492 54.3773C76.6272 54.3773 77.7247 54.5769 83.8109 57.5701C87.4028 59.2663 90.895 61.162 91.5934 61.6609C92.6909 62.3593 91.4936 65.7517 85.7067 77.7247L78.4231 92.8905L79.9197 98.5776L81.4164 104.265L93.09 104.564L104.764 104.863V124.719H27.937V114.741ZM61.162 44.3998C61.5611 41.9055 62.06 38.8125 62.4591 37.4156C63.0578 35.021 62.958 34.9212 58.4681 35.5199L53.8785 36.2183V25.7419L58.4681 26.4404C62.5589 27.039 62.958 26.9392 62.4591 25.2431C62.1598 24.2453 61.6609 22.2498 61.2618 20.7532L60.6632 17.9595H72.1373L71.5386 22.4494L70.8402 26.9392L74.8312 26.3406L78.8222 25.6422V36.2183L74.7314 35.5199L70.5409 34.8215L71.1395 38.6129C71.5386 40.7082 72.0375 43.901 72.4366 45.6969L73.0353 48.8897H60.5634L61.162 44.3998Z" fill="#E4F9F5"/>
<path d="M104.764 114.741V104.863L93.09 104.564L81.4163 104.265L79.9197 98.5776L78.4231 92.8905L85.6069 77.9242C89.5979 69.6429 92.7907 62.8582 92.7907 62.6587C92.7907 62.4591 88.3008 62.4591 82.913 62.6587C76.4276 62.8582 72.8357 63.3571 72.5364 64.1553C72.3368 64.8537 70.8402 71.5386 69.3436 79.1215L66.5499 92.7907H60.7629C56.4726 92.7907 54.976 93.1898 54.4771 94.3871C53.6789 96.4824 53.6789 96.7817 54.8762 96.7817C55.3751 96.7817 58.7674 98.5776 62.3593 100.773C67.8469 104.165 69.7427 104.764 74.3323 104.764H79.8199V124.719H104.764V114.741ZM72.4366 45.6969C72.0375 43.901 71.5386 40.7082 71.1395 38.6129L70.5409 34.8215L74.7314 35.5199L78.8222 36.2183V25.6422L74.8312 26.3406L70.8402 26.9392L71.5386 22.4494C72.1373 18.0593 72.0375 17.9595 69.2438 17.9595H66.3503V48.8897H69.7427C72.9355 48.8897 73.0352 48.7899 72.4366 45.6969ZM54.5769 30.9302C54.5769 27.937 54.3773 26.6399 54.1778 28.2363C53.9782 29.7329 53.9782 32.1275 54.1778 33.7239C54.3773 35.2206 54.5769 33.9235 54.5769 30.9302Z" fill="#6DD6C7"/>
<path d="M79.82 114.741V104.764H74.3323C69.7427 104.764 67.847 104.165 62.3593 100.773C58.7674 98.5776 55.4749 96.7817 54.976 96.7817C54.5769 96.7817 53.5791 98.5776 52.8807 100.773L51.5836 104.764H27.937V124.719H79.82V114.741ZM69.3436 79.1215C70.8402 71.5386 72.3368 64.7539 72.6362 64.1553C72.9355 63.2573 75.9287 62.8582 82.7134 62.8582C91.5934 62.7584 92.0923 62.6587 90.2963 61.2618C88.1013 59.5656 82.2145 56.8717 77.2258 55.1755C72.6362 53.6789 58.1688 54.2776 52.3818 56.2731C47.6924 57.8695 40.9077 61.7607 40.9077 62.8582C40.9077 63.1575 44.0007 69.8424 47.6924 77.8244L54.3773 92.2918L60.4636 92.5911L66.5499 92.8905L69.3436 79.1215ZM66.4501 47.5926C66.6497 46.8942 66.7494 40.0097 66.6497 32.4268L66.3503 18.4584L63.4569 18.159C60.8627 17.8597 60.6632 18.0593 61.2618 20.3541C61.5611 21.7509 62.1598 24.0457 62.4591 25.4426C62.958 27.3383 62.7584 27.8372 61.7607 27.5379C60.9625 27.3383 59.1665 26.8394 57.5701 26.5401C54.8762 25.9415 54.8762 25.9415 54.8762 30.9302V35.919L59.0668 35.3203L63.1575 34.6219L62.5589 38.5131C62.1598 40.6084 61.6609 43.901 61.2618 45.6969C60.6632 48.6902 60.7629 48.8897 63.2573 48.8897C64.7539 48.8897 66.1508 48.2911 66.4501 47.5926Z" fill="#E4F9F5"/>
<path d="M27.937 114.741V104.764H51.5836L53.2798 99.0765L54.8762 93.2896L47.6924 78.024L40.5086 62.6587L42.9032 60.7629C48.6902 56.3728 55.874 54.4771 66.8492 54.3773C76.6272 54.3773 77.7247 54.5769 83.8109 57.5701C87.4028 59.2663 90.895 61.162 91.5934 61.6609C92.6909 62.3593 91.4936 65.7517 85.7067 77.7247L78.4231 92.8905L79.9197 98.5776L81.4164 104.265L93.09 104.564L104.764 104.863V124.719H27.937V114.741ZM61.162 44.3998C61.5611 41.9055 62.06 38.8125 62.4591 37.4156C63.0578 35.021 62.958 34.9212 58.4681 35.5199L53.8785 36.2183V25.7419L58.4681 26.4404C62.5589 27.039 62.958 26.9392 62.4591 25.2431C62.1598 24.2453 61.6609 22.2498 61.2618 20.7532L60.6632 17.9595H72.1373L71.5386 22.4494L70.8402 26.9392L74.8312 26.3406L78.8222 25.6422V36.2183L74.7314 35.5199L70.5409 34.8215L71.1395 38.6129C71.5386 40.7082 72.0375 43.901 72.4366 45.6969L73.0353 48.8897H60.5634L61.162 44.3998Z" stroke="black" stroke-width="2.3946"/>
</svg>
