<svg width="133" height="133" viewBox="0 0 133 133" fill="none" xmlns="http://www.w3.org/2000/svg">
<path d="M26.9392 114.741V104.863L33.1253 104.564L39.4111 104.265L41.6062 83.3121C44.5994 54.6767 44.8987 57.7697 37.9145 53.4794L31.928 49.6879L32.1275 33.6242L32.4269 17.4606L38.114 17.1613L43.901 16.862V26.9392H54.7764L55.0758 22.2498L55.3751 17.4606H74.3323L74.6317 22.2498L74.931 26.9392H85.8065V16.862L91.4936 17.1613L97.2806 17.4606L97.5799 33.7239L97.7794 49.8875L93.1898 52.6812C90.6954 54.1778 88.0015 55.874 87.2033 56.3728C86.006 57.2708 86.1058 60.2641 87.802 77.8245C88.8995 89.099 90.0968 99.7749 90.3961 101.571L90.895 104.764H103.766V124.719H26.9392V114.741Z" fill="#E4F9F5"/>
<path d="M103.766 114.741V104.764H90.895L90.3961 101.571C90.0968 99.7749 88.8995 89.099 87.802 77.8245C86.1058 60.2641 86.006 57.2708 87.2033 56.3728C88.0015 55.874 90.6954 54.1778 93.1898 52.6812L97.7795 49.8875L97.5799 33.7239L97.2806 17.4606L91.4936 17.1613L85.8065 16.862V21.9505C85.8065 26.8395 85.7067 26.9392 82.8132 26.9392H79.82V49.8875H56.0735L32.4269 49.9872L37.8147 53.3796C40.808 55.2753 43.5019 57.171 43.8012 57.5701C44.1005 58.069 44.9985 58.4681 45.5972 58.5679C46.2956 58.7674 52.0825 62.06 58.3684 65.9512L69.8425 73.0353L69.9423 78.1238C70.042 81.0173 70.3414 88.0015 70.7405 93.7884L71.3391 104.265L75.0308 104.564L78.8222 104.863V124.719H103.766V114.741Z" fill="#6DD6C7"/>
<path d="M74.6317 22.2498L74.3324 17.4606L69.3436 17.1613L64.3549 16.862L64.6542 21.9505L65.0533 26.9392H74.931L74.6317 22.2498Z" fill="#6DD6C7"/>
<path d="M78.8222 114.841V104.863L75.0308 104.564L71.3391 104.265L70.7404 93.7884C70.3413 88.0015 70.042 81.0173 69.9422 78.1238L69.8425 73.0353L57.6699 65.4524C50.8852 61.3616 45.0983 58.2686 44.6992 58.6677C44.3999 59.0668 43.8012 62.5589 43.4021 66.3503C43.003 70.2416 42.6039 74.931 42.4044 76.8267C41.7059 83.6114 41.0075 91.3939 40.5086 97.081C40.2093 100.274 39.7104 103.367 39.4111 103.866C39.012 104.365 36.1185 104.764 32.826 104.764H26.9392V124.719H78.8222V114.841ZM79.82 38.4134V26.9392H64.9535L64.6542 22.2498L64.3548 17.4606H55.3751L55.0758 22.2498L54.7764 26.9392H43.901V16.862L38.114 17.1613L32.4269 17.4606L32.1275 33.7239L31.928 49.8875H79.82V38.4134Z" fill="#E4F9F5"/>
<path d="M26.9392 114.741V104.863L33.1253 104.564L39.4111 104.265L41.6062 83.3121C44.5994 54.6767 44.8987 57.7697 37.9145 53.4794L31.928 49.6879L32.1275 33.6242L32.4269 17.4606L38.114 17.1613L43.901 16.862V26.9392H54.7764L55.0758 22.2498L55.3751 17.4606H74.3323L74.6317 22.2498L74.931 26.9392H85.8065V16.862L91.4936 17.1613L97.2806 17.4606L97.5799 33.7239L97.7794 49.8875L93.1898 52.6812C90.6954 54.1778 88.0015 55.874 87.2033 56.3728C86.006 57.2708 86.1058 60.2641 87.802 77.8245C88.8995 89.099 90.0968 99.7749 90.3961 101.571L90.895 104.764H103.766V124.719H26.9392V114.741Z" stroke="black" stroke-width="2.3946"/>
</svg>
