<svg width="32" height="32" viewBox="0 0 32 32" fill="none" xmlns="http://www.w3.org/2000/svg">
<path d="M7.65945 25.7953C6.6058 25.7953 6.07898 26.3171 6.07898 27.3606V27.3758C6.07898 28.4193 6.6058 28.941 7.65945 28.941H25.2574C26.3009 28.941 26.8227 28.4193 26.8227 27.3758V27.3606C26.8227 26.3171 26.3009 25.7953 25.2574 25.7953H7.65945ZM23.9961 24.2148L25.303 24.7163C26.0122 24.7163 26.6201 24.9747 27.1266 25.4914C27.6433 25.9979 27.9017 26.6058 27.9017 27.315C27.9017 28.0343 27.6433 28.6472 27.1266 29.1538C26.6201 29.6604 26.0122 29.9137 25.303 29.9137H7.61386C6.88441 29.9137 6.26641 29.6604 5.75984 29.1538C5.25328 28.6472 5 28.0343 5 27.315C5 26.6058 5.25328 25.9979 5.75984 25.4914C6.26641 24.9747 6.88441 24.7163 7.61386 24.7163L8.98158 24.2148C9.41722 21.8644 9.7009 19.6608 9.83261 17.6042C9.96431 15.5475 10.1011 13.4301 10.2429 11.2519V9.18512H8.14575V3H12.2945V6.03937H14.4069V3H18.51V6.03937H20.6224V3H24.7711V9.18512H22.674C22.674 9.53972 22.674 9.88925 22.674 10.2337C22.674 10.5782 22.674 10.9176 22.674 11.2519C22.7449 13.5314 22.8614 15.6742 23.0235 17.6802C23.1957 19.6862 23.5199 21.8644 23.9961 24.2148ZM11.0939 14.2457L11.8082 14.2305V11.9054H11.2763L11.0939 14.2457ZM10.8052 17.7714L13.8598 17.7562V15.3855L11.0028 15.4006L10.8052 17.7714ZM10.5469 21.2362H11.8082V18.9263H10.7292L10.5469 21.2362ZM10.2429 24.7163H13.8598V22.3912L10.4405 22.4064L10.2429 24.7163ZM21.8229 14.2305L21.6558 11.9054H21.1087V14.2305H21.8229ZM22.1573 17.7562L21.9445 15.3854H19.0419V17.7562H22.1573ZM22.4308 21.2362L22.2029 18.9263H21.1087V21.2362H22.4308ZM22.674 24.7163L22.4764 22.3912H19.0419V24.7163H22.674ZM12.8416 11.9054V14.2305H15.9114V11.9054H12.8416ZM16.9903 11.9054V14.2305H20.0753V11.9054H16.9903ZM12.8416 18.9263V21.2362H15.9114V18.9263H12.8416ZM16.9903 18.9263V21.2362H20.0753V18.9263H16.9903ZM14.8932 15.3854V17.7562H18.0237V15.3854H14.8932ZM14.8932 22.3912V24.7163H18.0237V22.3912H14.8932ZM11.2763 10.7656H21.6406V8.21252H23.6921V3.9878H21.6406V7.13355H17.4766V3.9878H15.4251V7.13355H11.2763V3.9878H9.22473V8.21252H11.2763V10.7656Z" fill="#111111"/>
<path d="M7.65942 25.7953C6.60577 25.7953 6.07895 26.3171 6.07895 27.3606V27.3758C6.07895 28.4193 6.60577 28.941 7.65942 28.941H25.2574C26.3009 28.941 26.8227 28.4193 26.8227 27.3758V27.3606C26.8227 26.3171 26.3009 25.7953 25.2574 25.7953H7.65942ZM11.0939 14.2457L11.8082 14.2305V11.9054H11.2763L11.0939 14.2457ZM10.8052 17.7713L13.8597 17.7562V15.3854L11.0027 15.4006L10.8052 17.7713ZM10.5468 21.2362H11.8082V18.9263H10.7292L10.5468 21.2362ZM10.2429 24.7163H13.8597V22.3912L10.4404 22.4064L10.2429 24.7163ZM21.8229 14.2305L21.6557 11.9054H21.1086V14.2305H21.8229ZM22.1572 17.7562L21.9445 15.3854H19.0419V17.7562H22.1572ZM22.4308 21.2362L22.2028 18.9263H21.1086V21.2362H22.4308ZM22.6739 24.7163L22.4764 22.3912H19.0419V24.7163H22.6739ZM12.8416 11.9054V14.2305H15.9113V11.9054H12.8416ZM16.9903 11.9054V14.2305H20.0753V11.9054H16.9903ZM12.8416 18.9263V21.2362H15.9113V18.9263H12.8416ZM16.9903 18.9263V21.2362H20.0753V18.9263H16.9903ZM14.8931 15.3854V17.7562H18.0237V15.3854H14.8931ZM14.8931 22.3912V24.7163H18.0237V22.3912H14.8931ZM11.2763 10.7656H21.6405V8.21252H23.6921V3.98779H21.6405V7.13354H17.4766V3.98779H15.425V7.13354H11.2763V3.98779H9.2247V8.21252H11.2763V10.7656Z" fill="white"/>
</svg>
