<svg width="32" height="32" viewBox="0 0 32 32" fill="none" xmlns="http://www.w3.org/2000/svg">
<path d="M17.4006 11.7065V14.45H20.1441V17.1935H17.4006V23.8053H21.2964L23.9027 14.0933C23.9759 13.7824 23.8479 13.5629 23.5186 13.4349L16.3307 10.5268L16.0014 10.5542L15.6722 10.5268L8.48425 13.4349C8.30135 13.5081 8.18246 13.6086 8.12759 13.7367C8.09101 13.8281 8.09101 13.947 8.12759 14.0933L10.7339 23.8053H14.6297V17.1935H11.8862V14.45H14.6297V11.7065H17.4006ZM23.5735 26.1099C24.0308 26.1099 24.2594 25.8812 24.2594 25.424C24.2594 24.9667 24.0308 24.7381 23.5735 24.7381H8.45682C7.99956 24.7381 7.77094 24.9667 7.77094 25.424C7.77094 25.8812 7.99956 26.1099 8.45682 26.1099H23.5735ZM26.0701 28.8534V27.0152H5.96023V28.8534H26.0701ZM16.0014 9.62143C16.9342 9.62143 17.4006 9.17332 17.4006 8.27711C17.4006 7.36261 16.9342 6.90536 16.0014 6.90536C15.0869 6.90536 14.6297 7.36261 14.6297 8.27711C14.6297 9.17332 15.0869 9.62143 16.0014 9.62143ZM5 29.7587V26.1099H7.00276C6.91131 25.9087 6.86559 25.6801 6.86559 25.424C6.86559 24.985 7.02105 24.6101 7.33198 24.2992C7.64291 23.9699 8.01785 23.8053 8.45682 23.8053H9.74626L7.03019 13.6269C6.92045 13.2428 7.06678 12.9685 7.46916 12.8039L14.4925 9.97808C13.9804 9.52083 13.7243 8.95384 13.7243 8.27711C13.7243 7.63696 13.9438 7.0974 14.3828 6.65844C14.8217 6.21948 15.3613 6 16.0014 6C16.6416 6 17.1812 6.21948 17.6201 6.65844C18.0591 7.0974 18.2785 7.63696 18.2785 8.27711C18.2785 8.95384 18.0225 9.52083 17.5104 9.97808L24.5337 12.8039C24.9544 12.9685 25.1099 13.2428 25.0001 13.6269L22.2841 23.8053H23.5461C24.0033 23.8053 24.3874 23.9608 24.6983 24.2717C25.0093 24.5827 25.1647 24.9667 25.1647 25.424C25.1647 25.6801 25.1099 25.9087 25.0001 26.1099H27.0303V29.7587H5ZM16.4404 23.8053V16.2881H19.2113V15.3553H16.4404V12.6118H15.5351V15.3553H12.7915V16.2881H15.5351V23.8053H16.4404Z" fill="black"/>
<path d="M17.4006 11.7065V14.45H20.1441V17.1935H17.4006V23.8053H21.2964L23.9027 14.0933C23.9759 13.7824 23.8478 13.5629 23.5186 13.4349L16.3306 10.5268L16.0014 10.5542L15.6722 10.5268L8.48423 13.4349C8.30133 13.508 8.18244 13.6086 8.12757 13.7367C8.09099 13.8281 8.09099 13.947 8.12757 14.0933L10.7339 23.8053H14.6297V17.1935H11.8862V14.45H14.6297V11.7065H17.4006ZM23.5735 26.1099C24.0307 26.1099 24.2594 25.8812 24.2594 25.424C24.2594 24.9667 24.0307 24.7381 23.5735 24.7381H8.45679C7.99954 24.7381 7.77092 24.9667 7.77092 25.424C7.77092 25.8812 7.99954 26.1099 8.45679 26.1099H23.5735ZM26.0701 28.8534V27.0152H5.96021V28.8534H26.0701ZM16.0014 9.62142C16.9342 9.62142 17.4006 9.17331 17.4006 8.2771C17.4006 7.3626 16.9342 6.90535 16.0014 6.90535C15.0869 6.90535 14.6297 7.3626 14.6297 8.2771C14.6297 9.17331 15.0869 9.62142 16.0014 9.62142ZM16.4404 23.8053V16.2881H19.2113V15.3553H16.4404V12.6118H15.535V15.3553H12.7915V16.2881H15.535V23.8053H16.4404Z" fill="white"/>
</svg>
