<svg width="180" height="180" viewBox="0 0 180 180" fill="none" xmlns="http://www.w3.org/2000/svg">
<path d="M97.8784 65.8491V81.2812H113.311V96.7134H97.8784V133.905H119.792L134.453 79.2748C134.864 77.526 134.144 76.2913 132.292 75.5713L91.8602 59.2133L90.0079 59.3674L88.1561 59.2133L47.7239 75.5713C46.6951 75.9831 46.0263 76.5484 45.7177 77.2689C45.5119 77.7831 45.5119 78.4519 45.7177 79.2748L60.3782 133.905H82.2921V96.7134H66.8599V81.2812H82.2921V65.8491H97.8784ZM132.601 146.868C135.173 146.868 136.459 145.582 136.459 143.01C136.459 140.438 135.173 139.152 132.601 139.152H47.5696C44.9975 139.152 43.7115 140.438 43.7115 143.01C43.7115 145.582 44.9975 146.868 47.5696 146.868H132.601ZM146.644 162.3V151.96H33.5263V162.3H146.644ZM90.0079 54.1205C95.2549 54.1205 97.8784 51.5999 97.8784 46.5587C97.8784 41.4147 95.2549 38.8427 90.0079 38.8427C84.8638 38.8427 82.2921 41.4147 82.2921 46.5587C82.2921 51.5999 84.8638 54.1205 90.0079 54.1205ZM28.125 167.393V146.868H39.3905C38.8761 145.736 38.6189 144.451 38.6189 143.01C38.6189 140.541 39.4934 138.432 41.2424 136.683C42.9914 134.831 45.1004 133.905 47.5696 133.905H54.8227L39.5448 76.6513C38.9275 74.4907 39.7506 72.9478 42.014 72.0219L81.5203 56.1267C78.6398 53.5547 77.1992 50.3654 77.1992 46.5587C77.1992 42.9579 78.4339 39.9229 80.9033 37.4537C83.3721 34.9846 86.4073 33.75 90.0079 33.75C93.609 33.75 96.6443 34.9846 99.1131 37.4537C101.582 39.9229 102.817 42.9579 102.817 46.5587C102.817 50.3654 101.377 53.5547 98.496 56.1267L138.002 72.0219C140.369 72.9478 141.243 74.4907 140.626 76.6513L125.348 133.905H132.447C135.019 133.905 137.179 134.779 138.928 136.528C140.677 138.278 141.551 140.438 141.551 143.01C141.551 144.451 141.243 145.736 140.626 146.868H152.045V167.393H28.125ZM92.4772 133.905V91.6206H108.064V86.3736H92.4772V70.9414H87.3849V86.3736H71.9522V91.6206H87.3849V133.905H92.4772Z" fill="black"/>
<path d="M97.8784 65.8491V81.2812H113.311V96.7134H97.8784V133.905H119.792L134.453 79.2748C134.864 77.526 134.144 76.2913 132.292 75.5713L91.8596 59.2132L90.0078 59.3674L88.1561 59.2132L47.7238 75.5713C46.695 75.9825 46.0262 76.5484 45.7176 77.2689C45.5118 77.7831 45.5118 78.4519 45.7176 79.2748L60.3782 133.905H82.292V96.7134H66.8598V81.2812H82.292V65.8491H97.8784ZM132.601 146.868C135.173 146.868 136.459 145.582 136.459 143.01C136.459 140.438 135.173 139.152 132.601 139.152H47.5694C44.9974 139.152 43.7114 140.438 43.7114 143.01C43.7114 145.582 44.9974 146.868 47.5694 146.868H132.601ZM146.644 162.3V151.96H33.5262V162.3H146.644ZM90.0078 54.1205C95.2548 54.1205 97.8784 51.5999 97.8784 46.5587C97.8784 41.4146 95.2548 38.8426 90.0078 38.8426C84.8638 38.8426 82.292 41.4146 82.292 46.5587C82.292 51.5999 84.8638 54.1205 90.0078 54.1205ZM92.4772 133.905V91.6206H108.064V86.3736H92.4772V70.9414H87.3843V86.3736H71.9522V91.6206H87.3843V133.905H92.4772Z" fill="white"/>
</svg>
