<svg width="32" height="32" viewBox="0 0 32 32" fill="none" xmlns="http://www.w3.org/2000/svg">
<path d="M16.0289 11.2675C16.4861 11.2675 16.7148 11.0298 16.7148 10.5542C16.7148 10.097 16.4861 9.86834 16.0289 9.86834C15.5716 9.86834 15.343 10.097 15.343 10.5542C15.343 11.0298 15.5716 11.2675 16.0289 11.2675ZM18.0865 6L16.9342 9.64886L20.6105 8.7435V12.3924L16.9342 11.487L18.0865 15.1359H13.9713L15.1235 11.487L11.4472 12.6118V8.49659L15.1235 9.64886L13.9713 6H18.0865ZM17.4006 15.6023C21.4244 15.4376 24.6526 14.6146 27.0852 13.1331L23.6284 23.8053C24.0673 23.8053 24.4423 23.9699 24.7532 24.2992C25.0641 24.6101 25.2196 24.985 25.2196 25.424C25.2196 25.6801 25.1647 25.9087 25.055 26.1099H27.0852V29.7587H5.02743V26.1099H7.03019C6.93874 25.9087 6.89302 25.6801 6.89302 25.424C6.89302 24.985 7.04848 24.6101 7.35941 24.2992C7.67034 23.9699 8.04529 23.8053 8.48425 23.8053L5 13.1331C7.43257 14.6146 10.6516 15.4376 14.6571 15.6023V15.1359H15.5625V23.8053H16.4678V15.1359H17.4006V15.6023ZM8.95064 26.1099C8.63971 26.1099 8.48425 26.2653 8.48425 26.5763C8.48425 26.8872 8.63971 27.0427 8.95064 27.0427H23.1071C23.418 27.0427 23.5735 26.8872 23.5735 26.5763C23.5735 26.2653 23.418 26.1099 23.1071 26.1099H8.95064Z" fill="black"/>
<path d="M16.0288 11.2675C16.4861 11.2675 16.7147 11.0298 16.7147 10.5542C16.7147 10.097 16.4861 9.86836 16.0288 9.86836C15.5716 9.86836 15.3429 10.097 15.3429 10.5542C15.3429 11.0298 15.5716 11.2675 16.0288 11.2675ZM8.95059 26.1099C8.63966 26.1099 8.48419 26.2654 8.48419 26.5763C8.48419 26.8872 8.63966 27.0427 8.95059 27.0427H23.1071C23.418 27.0427 23.5735 26.8872 23.5735 26.5763C23.5735 26.2654 23.418 26.1099 23.1071 26.1099H8.95059Z" fill="white"/>
<path d="M15.5624 15.1359V23.8054H16.4678V15.1359H15.5624Z" fill="white"/>
</svg>
