<svg width="32" height="32" viewBox="0 0 32 32" fill="none" xmlns="http://www.w3.org/2000/svg">
<path d="M22.6407 24.162C22.8419 23.156 22.9425 21.766 22.9425 19.9919C22.9425 18.2909 22.7322 16.5991 22.3115 14.9164C21.8177 12.9411 21.1318 11.4047 20.2539 10.3073C19.5223 9.3928 18.6169 8.73435 17.5378 8.33197C17.611 8.44171 17.6841 8.53317 17.7573 8.60633C18.0133 8.89897 18.0682 9.11845 17.9219 9.26477C17.8122 9.3928 17.7116 9.45681 17.6201 9.45681C17.5104 9.45681 17.4006 9.38365 17.2909 9.23733C16.9982 8.88982 16.7056 8.53317 16.413 8.16737C16.0655 7.76499 15.7179 7.4632 15.3704 7.26201C15.4436 7.73755 15.6082 8.24967 15.8643 8.79837C15.9008 8.98127 15.9008 9.13674 15.8643 9.26477C15.7911 9.41109 15.6631 9.44767 15.4802 9.37451C15.3339 9.31964 15.2424 9.23733 15.2058 9.12759C15.0229 8.78008 14.904 8.44172 14.8492 8.1125C14.0261 8.2954 13.4591 8.48744 13.1482 8.68863C13.0202 8.46915 12.819 8.30454 12.5446 8.1948C12.5629 8.45086 12.6269 8.71606 12.7367 8.99041L12.5446 9.18246C12.2154 9.78603 11.6484 10.8103 10.8437 12.2552L10.7339 12.4472C9.81942 14.0568 8.93236 15.5108 8.07273 16.8094C7.68864 17.3764 7.4783 18.0074 7.44172 18.7024C7.40514 19.2328 7.50573 19.6261 7.7435 19.8821C7.85324 20.0101 8.19161 20.2296 8.7586 20.5406C9.72797 18.9127 10.4321 18.0988 10.8711 18.0988C10.926 18.0988 10.9717 18.108 11.0083 18.1263C11.1546 18.1811 11.2277 18.3823 11.2277 18.7298C10.7522 19.0956 10.1944 19.8181 9.55421 20.8972C9.92001 20.8972 10.1669 20.8515 10.295 20.76C10.4413 20.6503 10.8254 20.2205 11.4472 19.4706C12.3069 18.4281 13.4226 17.4678 14.7943 16.5899C15.6174 16.0595 16.2941 15.5565 16.8245 15.081C17.3 14.5506 17.6567 14.2854 17.8945 14.2854C18.0956 14.2854 18.1962 14.386 18.1962 14.5872C18.1962 14.8249 17.9676 15.1907 17.5104 15.6846C17.1811 16.5991 16.7971 17.3581 16.3581 17.9617C15.9557 18.4921 15.3522 19.0865 14.5474 19.7449C13.0293 20.6777 11.9228 22.1501 11.2277 24.162H22.6407ZM8.8409 19.3334C8.60313 19.6078 8.43852 19.6535 8.34707 19.4706C8.32878 19.434 8.26477 19.4249 8.15503 19.4432C8.10016 19.4614 8.05443 19.4706 8.01785 19.4706C7.98127 19.4706 7.96299 19.4614 7.96299 19.4432C7.85325 19.3334 7.79837 19.2237 7.79837 19.1139C7.79837 18.931 7.88983 18.7481 8.07273 18.5652C8.38366 18.236 8.67629 18.1994 8.95064 18.4555C9.18841 18.675 9.15183 18.9676 8.8409 19.3334V19.3334ZM8.45681 25.0948C7.99956 25.0948 7.77094 25.3234 7.77094 25.7806C7.77094 26.2379 7.99956 26.4665 8.45681 26.4665H23.5461C24.0033 26.4665 24.2319 26.2379 24.2319 25.7806C24.2319 25.3234 24.0033 25.0948 23.5461 25.0948H8.45681ZM23.793 24.162C24.6892 24.3083 25.1373 24.8479 25.1373 25.7806C25.1373 26.0184 25.0916 26.247 25.0001 26.4665H26.9754V30.1154H5V26.4665H7.00276C6.91131 26.2653 6.86559 26.0367 6.86559 25.7806C6.86559 25.3417 7.02105 24.9667 7.33198 24.6558C7.64291 24.3266 8.01785 24.162 8.45681 24.162H10.295C10.8437 22.1318 11.877 20.6229 13.3951 19.6352C14.0536 19.0682 14.5748 18.6018 14.9589 18.236C15.5991 17.5959 16.038 17.0563 16.2758 16.6174C15.2881 17.2392 14.4194 17.8428 13.6695 18.4281C12.8647 19.0499 12.1331 19.8181 11.4747 20.7326C11.0174 21.3728 10.4047 21.6928 9.63652 21.6928C9.50849 21.6928 9.37131 21.6837 9.22499 21.6654C9.17012 21.5557 9.05124 21.4185 8.86834 21.2539C8.74031 21.3087 8.54827 21.327 8.29221 21.3087C7.56061 20.9064 7.1125 20.6137 6.94789 20.4308C6.67354 20.1199 6.52722 19.6169 6.50893 18.9219C6.49064 18.0806 6.7467 17.2484 7.27711 16.4253C7.6612 15.8217 8.42023 14.4774 9.55421 12.3924C10.5053 10.6365 11.2918 9.35622 11.9136 8.55146C11.7673 7.89301 11.7033 7.28944 11.7216 6.74074C12.1971 6.9968 12.6727 7.32602 13.1482 7.7284C13.1665 7.71011 13.2031 7.69182 13.2579 7.67353C13.6786 7.50892 14.1359 7.3626 14.6297 7.23457C14.5931 7.08825 14.584 6.89621 14.6023 6.65844L14.6297 6C15.1601 6.29264 15.6905 6.65844 16.2209 7.0974C17.6293 7.17056 19.0833 7.86558 20.5831 9.18246C21.7354 10.481 22.6133 12.1729 23.2169 14.2579C23.7473 16.0869 24.0125 17.9982 24.0125 19.9919C24.0125 21.9855 23.9393 23.3755 23.793 24.162V24.162ZM11.8588 11.5419C12.2246 11.0115 12.5538 10.7463 12.8464 10.7463C13.1756 10.7463 13.3402 10.9109 13.3402 11.2401C13.3402 11.5144 13.1939 11.8528 12.9013 12.2552C12.5172 12.7856 12.188 13.0508 11.9136 13.0508C11.5844 13.0508 11.4198 12.877 11.4198 12.5295C11.4198 12.2918 11.5661 11.9625 11.8588 11.5419ZM12.819 11.9534C12.7092 11.8802 12.5995 11.8619 12.4898 11.8985C12.2337 11.9717 12.1423 12.1546 12.2154 12.4472C12.2154 12.4472 12.2428 12.4838 12.2977 12.557C12.4257 12.4838 12.5355 12.3832 12.6269 12.2552C12.6635 12.2186 12.7275 12.118 12.819 11.9534V11.9534ZM5.96023 27.3719V29.21H26.0701V27.3719H5.96023Z" fill="black"/>
<path d="M22.6408 24.162C22.8419 23.156 22.9425 21.766 22.9425 19.9919C22.9425 18.2909 22.7322 16.5991 22.3115 14.9164C21.8177 12.9411 21.1318 11.4047 20.2539 10.3073C19.5223 9.3928 18.617 8.73436 17.5378 8.33198C17.611 8.44172 17.6842 8.53317 17.7573 8.60633C18.0134 8.89897 18.0683 9.11845 17.9219 9.26477C17.8122 9.3928 17.7116 9.45681 17.6201 9.45681C17.5104 9.45681 17.4007 9.38365 17.2909 9.23733C16.9983 8.88982 16.7056 8.53317 16.413 8.16737C16.0655 7.76499 15.718 7.4632 15.3705 7.26201C15.4436 7.73755 15.6082 8.24967 15.8643 8.79837C15.9009 8.98127 15.9009 9.13674 15.8643 9.26477C15.7911 9.41109 15.6631 9.44767 15.4802 9.37451C15.3339 9.31964 15.2424 9.23733 15.2059 9.12759C15.023 8.78008 14.9041 8.44172 14.8492 8.1125C14.0262 8.2954 13.4592 8.48744 13.1482 8.68863C13.0202 8.46915 12.819 8.30454 12.5447 8.1948C12.563 8.45086 12.627 8.71607 12.7367 8.99042L12.5447 9.18246C12.2154 9.78603 11.6485 10.8103 10.8437 12.2552L10.734 12.4472C9.81945 14.0568 8.93239 15.5108 8.07276 16.8094C7.68867 17.3764 7.47833 18.0074 7.44175 18.7024C7.40517 19.2328 7.50577 19.6261 7.74354 19.8821C7.85328 20.0102 8.19165 20.2296 8.75864 20.5406C9.72801 18.9128 10.4322 18.0988 10.8711 18.0988C10.926 18.0988 10.9717 18.108 11.0083 18.1263C11.1546 18.1812 11.2278 18.3823 11.2278 18.7299C10.7522 19.0957 10.1944 19.8181 9.55425 20.8972C9.92005 20.8972 10.167 20.8515 10.295 20.76C10.4413 20.6503 10.8254 20.2205 11.4473 19.4706C12.3069 18.4281 13.4226 17.4678 14.7943 16.5899C15.6174 16.0595 16.2941 15.5565 16.8245 15.081C17.3001 14.5506 17.6567 14.2854 17.8945 14.2854C18.0957 14.2854 18.1963 14.386 18.1963 14.5872C18.1963 14.8249 17.9677 15.1907 17.5104 15.6846C17.1812 16.5991 16.7971 17.3581 16.3581 17.9617C15.9558 18.4921 15.3522 19.0865 14.5474 19.7449C13.0294 20.6777 11.9228 22.1501 11.2278 24.162H22.6408ZM8.84094 19.3334C8.60317 19.6078 8.43856 19.6535 8.34711 19.4706C8.32882 19.434 8.26481 19.4249 8.15507 19.4432C8.1002 19.4615 8.05447 19.4706 8.01789 19.4706C7.98131 19.4706 7.96302 19.4615 7.96302 19.4432C7.85328 19.3334 7.79841 19.2237 7.79841 19.1139C7.79841 18.931 7.88986 18.7481 8.07276 18.5652C8.38369 18.236 8.67633 18.1994 8.95068 18.4555C9.18845 18.675 9.15187 18.9676 8.84094 19.3334ZM8.45685 25.0948C7.9996 25.0948 7.77098 25.3234 7.77098 25.7807C7.77098 26.2379 7.9996 26.4665 8.45685 26.4665H23.5461C24.0034 26.4665 24.232 26.2379 24.232 25.7807C24.232 25.3234 24.0034 25.0948 23.5461 25.0948H8.45685ZM11.8588 11.5419C12.2246 11.0115 12.5538 10.7463 12.8465 10.7463C13.1757 10.7463 13.3403 10.9109 13.3403 11.2401C13.3403 11.5144 13.194 11.8528 12.9013 12.2552C12.5172 12.7856 12.188 13.0508 11.9137 13.0508C11.5844 13.0508 11.4198 12.877 11.4198 12.5295C11.4198 12.2918 11.5662 11.9625 11.8588 11.5419ZM12.819 11.9534C12.7093 11.8802 12.5995 11.862 12.4898 11.8985C12.2337 11.9717 12.1423 12.1546 12.2155 12.4472C12.2155 12.4472 12.2429 12.4838 12.2978 12.557C12.4258 12.4838 12.5355 12.3832 12.627 12.2552C12.6636 12.2186 12.7276 12.118 12.819 11.9534ZM5.96027 27.3719V29.21H26.0701V27.3719H5.96027Z" fill="white"/>
</svg>
