<svg width="32" height="32" viewBox="0 0 32 32" fill="none" xmlns="http://www.w3.org/2000/svg">
<path d="M16.6599 8.87792C17.2452 9.02424 17.739 9.31688 18.1414 9.75584C18.5438 10.1948 18.7449 10.6978 18.7449 11.2648C18.7449 12.1427 18.3243 12.8286 17.483 13.3224C17.7573 15.0965 18.3426 16.8981 19.2388 18.7271C20.3911 21.0865 21.836 22.9978 23.5735 24.461C24.0125 24.461 24.3874 24.6256 24.6984 24.9548C25.0093 25.2658 25.1648 25.6407 25.1648 26.0797C25.1648 26.3357 25.1099 26.5644 25.0001 26.7656H27.0303V30.4144H5V26.7656H7.00277C6.91132 26.5644 6.86559 26.3357 6.86559 26.0797C6.86559 25.6407 7.02106 25.2658 7.33199 24.9548C7.64292 24.6256 8.01785 24.461 8.45682 24.461C10.1944 22.9978 11.6393 21.0865 12.7916 18.7271C13.6695 16.9347 14.2456 15.1331 14.52 13.3224C13.6786 12.8469 13.258 12.161 13.258 11.2648C13.258 10.6795 13.4591 10.1765 13.8615 9.75584C14.2639 9.31688 14.7577 9.02424 15.343 8.87792C15.3247 8.82305 15.3156 8.75904 15.3156 8.68588C15.3156 8.22863 15.5442 8 16.0015 8C16.4587 8 16.6873 8.22863 16.6873 8.68588C16.6873 8.75904 16.6782 8.82305 16.6599 8.87792V8.87792ZM8.92322 26.7656C8.61229 26.7656 8.45682 26.921 8.45682 27.2319C8.45682 27.5429 8.61229 27.6983 8.92322 27.6983H23.0797C23.3906 27.6983 23.5461 27.5429 23.5461 27.2319C23.5461 26.921 23.3906 26.7656 23.0797 26.7656H8.92322Z" fill="black"/>
<path d="M8.92325 26.7655C8.61232 26.7655 8.45685 26.921 8.45685 27.2319C8.45685 27.5429 8.61232 27.6983 8.92325 27.6983H23.0797C23.3907 27.6983 23.5461 27.5429 23.5461 27.2319C23.5461 26.921 23.3907 26.7655 23.0797 26.7655H8.92325Z" fill="white"/>
</svg>
