<svg width="180" height="180" viewBox="0 0 180 180" fill="none" xmlns="http://www.w3.org/2000/svg">
<path d="M93.7119 49.9383C97.0043 50.7614 99.7819 52.4075 102.045 54.8766C104.309 57.3458 105.44 60.1751 105.44 63.3645C105.44 68.3027 103.074 72.1609 98.3419 74.9385C99.8848 84.9178 103.177 95.0518 108.218 105.34C114.7 118.612 122.827 129.363 132.601 137.593C135.07 137.593 137.179 138.519 138.929 140.371C140.677 142.12 141.552 144.229 141.552 146.698C141.552 148.138 141.243 149.425 140.626 150.557H152.045V171.081H28.125V150.557H39.3906C38.8762 149.425 38.6189 148.138 38.6189 146.698C38.6189 144.229 39.4935 142.12 41.2424 140.371C42.9914 138.519 45.1004 137.593 47.5696 137.593C57.3435 129.363 65.4711 118.612 71.9528 105.34C76.8909 95.2577 80.1315 85.1237 81.675 74.9385C76.9421 72.2638 74.5763 68.4056 74.5763 63.3645C74.5763 60.0722 75.7074 57.2428 77.9709 54.8766C80.2344 52.4075 83.0121 50.7614 86.3044 49.9383C86.2014 49.6297 86.1503 49.2696 86.1503 48.8581C86.1503 46.286 87.4361 45 90.0084 45C92.5802 45 93.8661 46.286 93.8661 48.8581C93.8661 49.2696 93.8149 49.6297 93.7119 49.9383ZM50.1931 150.557C48.4441 150.557 47.5696 151.431 47.5696 153.179C47.5696 154.929 48.4441 155.803 50.1931 155.803H129.823C131.572 155.803 132.447 154.929 132.447 153.179C132.447 151.431 131.572 150.557 129.823 150.557H50.1931Z" fill="black"/>
<path d="M50.1933 150.556C48.4443 150.556 47.5698 151.431 47.5698 153.179C47.5698 154.929 48.4443 155.803 50.1933 155.803H129.823C131.573 155.803 132.447 154.929 132.447 153.179C132.447 151.431 131.573 150.556 129.823 150.556H50.1933Z" fill="white"/>
</svg>
