<svg width="180" height="180" viewBox="0 0 180 180" fill="none" xmlns="http://www.w3.org/2000/svg">
<path d="M146.644 165.989V155.649H33.5263V165.989H146.644ZM132.601 150.556C135.173 150.556 136.459 149.27 136.459 146.698C136.459 144.126 135.173 142.84 132.601 142.84H47.5696C44.9975 142.84 43.7116 144.126 43.7116 146.698C43.7116 149.27 44.9975 150.556 47.5696 150.556H132.601ZM90.0084 72.6238C92.6831 72.6238 95.0496 71.7491 97.1072 70.0003C99.1648 68.2509 100.194 66.0392 100.194 63.3645C100.194 60.7922 99.1648 58.6316 97.1072 56.8828C95.0496 55.1338 92.6831 54.2593 90.0084 54.2593C87.3332 54.2593 84.9667 55.1338 82.9091 56.8828C80.8515 58.5287 79.8227 60.6893 79.8227 63.3645C79.8227 66.0392 80.8003 68.2509 82.755 70.0003C84.8126 71.7491 87.2302 72.6238 90.0084 72.6238ZM93.7119 76.7902C92.6831 77.0991 91.4484 77.2532 90.0084 77.2532C88.6708 77.2532 87.4361 77.0991 86.3044 76.7902C84.5556 87.7984 80.9032 98.7553 75.3474 109.661C69.7922 120.566 63.0534 129.877 55.1314 137.593H125.039C117.221 129.98 110.482 120.618 104.823 109.506C99.2678 98.7041 95.5637 87.7984 93.7119 76.7902ZM93.7119 49.9383C97.0043 50.7614 99.7819 52.4075 102.045 54.8766C104.309 57.3458 105.44 60.1751 105.44 63.3645C105.44 68.3027 103.074 72.1609 98.3419 74.9385C99.8848 84.9178 103.177 95.0518 108.218 105.34C114.7 118.612 122.827 129.363 132.601 137.593C135.07 137.593 137.179 138.519 138.929 140.371C140.677 142.12 141.552 144.229 141.552 146.698C141.552 148.138 141.243 149.425 140.626 150.556H152.045V171.081H28.125V150.556H39.3906C38.8762 149.425 38.6189 148.138 38.6189 146.698C38.6189 144.229 39.4935 142.12 41.2424 140.371C42.9914 138.519 45.1004 137.593 47.5696 137.593C57.3435 129.363 65.4711 118.612 71.9528 105.34C76.8909 95.2577 80.1315 85.1237 81.675 74.9385C76.9421 72.2638 74.5763 68.4056 74.5763 63.3645C74.5763 60.0722 75.7074 57.2428 77.9709 54.8766C80.2344 52.4075 83.0121 50.7614 86.3044 49.9383C86.2014 49.6297 86.1503 49.2695 86.1503 48.858C86.1503 46.286 87.4361 45 90.0084 45C92.5802 45 93.8661 46.286 93.8661 48.858C93.8661 49.2695 93.8149 49.6297 93.7119 49.9383Z" fill="black"/>
<path d="M146.644 165.988V155.649H33.5265V165.988H146.644ZM132.601 150.556C135.173 150.556 136.459 149.27 136.459 146.698C136.459 144.126 135.173 142.84 132.601 142.84H47.5697C44.9977 142.84 43.7117 144.126 43.7117 146.698C43.7117 149.27 44.9977 150.556 47.5697 150.556H132.601ZM90.0084 72.6238C92.6831 72.6238 95.0495 71.7491 97.1072 70.0003C99.1648 68.2509 100.194 66.0392 100.194 63.3645C100.194 60.7922 99.1648 58.6316 97.1072 56.8828C95.0495 55.1337 92.6831 54.2592 90.0084 54.2592C87.3332 54.2592 84.9673 55.1337 82.9097 56.8828C80.852 58.5287 79.8232 60.6892 79.8232 63.3645C79.8232 66.0392 80.8003 68.2509 82.755 70.0003C84.8126 71.7491 87.2308 72.6238 90.0084 72.6238ZM93.7119 76.7902C92.6831 77.0991 91.4484 77.2532 90.0084 77.2532C88.6708 77.2532 87.4361 77.0991 86.3043 76.7902C84.5555 87.7984 80.9032 98.7553 75.348 109.661C69.7922 120.566 63.0534 129.877 55.1316 137.593H125.039C117.22 129.98 110.482 120.617 104.823 109.506C99.2677 98.7041 95.5637 87.7984 93.7119 76.7902Z" fill="white"/>
</svg>
