<svg width="32" height="32" viewBox="0 0 32 32" fill="none" xmlns="http://www.w3.org/2000/svg">
<path d="M26.0029 17.2758C26.6065 17.2758 26.9082 16.974 26.9082 16.3704C26.9082 15.7486 26.6065 15.4376 26.0029 15.4376C25.381 15.4376 25.0701 15.7486 25.0701 16.3704C25.0701 16.974 25.381 17.2758 26.0029 17.2758ZM5.83815 17.2758C6.44172 17.2758 6.7435 16.974 6.7435 16.3704C6.7435 15.7486 6.44172 15.4376 5.83815 15.4376C5.21629 15.4376 4.90536 15.7486 4.90536 16.3704C4.90536 16.974 5.21629 17.2758 5.83815 17.2758ZM4.90536 29.7587V26.1099H6.90812C6.81667 25.9087 6.77094 25.6801 6.77094 25.424C6.77094 24.985 6.9264 24.6101 7.23733 24.2992C7.54826 23.9699 7.92321 23.8053 8.36217 23.8053L6.27711 18.1263C6.09421 18.1812 5.94789 18.2086 5.83815 18.2086C5.32603 18.2086 4.88707 18.0348 4.52127 17.6873C4.17376 17.3215 4 16.8826 4 16.3704C4 15.8583 4.17376 15.4194 4.52127 15.0536C4.88707 14.6878 5.32603 14.5049 5.83815 14.5049C6.35027 14.5049 6.78008 14.6878 7.12759 15.0536C7.49339 15.4194 7.67629 15.8583 7.67629 16.3704C7.67629 16.718 7.5757 17.038 7.37451 17.3307L10.8862 19.3609L14.4253 11.048C13.584 10.5176 13.1633 9.74945 13.1633 8.7435C13.1633 7.97532 13.4285 7.32603 13.9589 6.79562C14.4893 6.26521 15.1386 6 15.9068 6C16.675 6 17.3243 6.26521 17.8547 6.79562C18.4034 7.32603 18.6777 7.97532 18.6777 8.7435C18.6777 9.74945 18.2571 10.5176 17.4157 11.048L20.9274 19.3609L24.4391 17.3307C24.2562 17.0197 24.1647 16.6997 24.1647 16.3704C24.1647 15.8583 24.3385 15.4194 24.686 15.0536C25.0518 14.6878 25.4908 14.5049 26.0029 14.5049C26.515 14.5049 26.9448 14.6878 27.2923 15.0536C27.6581 15.4194 27.841 15.8583 27.841 16.3704C27.841 16.8826 27.6581 17.3215 27.2923 17.6873C26.9448 18.0348 26.515 18.2086 26.0029 18.2086C25.8749 18.2086 25.7194 18.1812 25.5365 18.1263L23.4514 23.8053C23.9087 23.8053 24.2836 23.9608 24.5763 24.2717C24.8872 24.5827 25.0427 24.9667 25.0427 25.424C25.0427 25.6801 24.9969 25.9087 24.9055 26.1099H26.9082V29.7587H4.90536ZM22.4638 23.8053L24.4117 18.4555L20.461 20.7052L16.5104 11.4047C16.3458 11.4596 16.1446 11.487 15.9068 11.487C15.669 11.487 15.4678 11.4596 15.3032 11.4047L11.3526 20.7052L7.42938 18.4555L9.34983 23.8053H22.4638ZM23.4789 26.1099C23.9361 26.1099 24.1647 25.8812 24.1647 25.424C24.1647 24.9667 23.9361 24.7381 23.4789 24.7381H8.36217C7.90492 24.7381 7.67629 24.9667 7.67629 25.424C7.67629 25.8812 7.90492 26.1099 8.36217 26.1099H23.4789ZM25.9755 28.8534V27.0152H5.86558V28.8534H25.9755ZM15.9068 10.5817C16.4189 10.5817 16.8487 10.4079 17.1962 10.0604C17.562 9.69459 17.7449 9.25562 17.7449 8.7435C17.7449 8.23138 17.562 7.80157 17.1962 7.45406C16.8487 7.08826 16.4189 6.90536 15.9068 6.90536C15.3947 6.90536 14.9557 7.08826 14.5899 7.45406C14.2424 7.80157 14.0687 8.23138 14.0687 8.7435C14.0687 9.25562 14.2424 9.69459 14.5899 10.0604C14.9557 10.4079 15.3947 10.5817 15.9068 10.5817Z" fill="black"/>
<path d="M26.0028 17.2758C26.6064 17.2758 26.9082 16.974 26.9082 16.3704C26.9082 15.7486 26.6064 15.4376 26.0028 15.4376C25.3809 15.4376 25.07 15.7486 25.07 16.3704C25.07 16.974 25.3809 17.2758 26.0028 17.2758ZM5.83807 17.2758C6.44164 17.2758 6.74342 16.974 6.74342 16.3704C6.74342 15.7486 6.44164 15.4376 5.83807 15.4376C5.21621 15.4376 4.90527 15.7486 4.90527 16.3704C4.90527 16.974 5.21621 17.2758 5.83807 17.2758ZM22.4637 23.8053L24.4116 18.4555L20.4609 20.7052L16.5103 11.4047C16.3457 11.4596 16.1445 11.487 15.9067 11.487C15.6689 11.487 15.4678 11.4596 15.3031 11.4047L11.3525 20.7052L7.4293 18.4555L9.34975 23.8053H22.4637ZM23.4788 26.1099C23.936 26.1099 24.1647 25.8812 24.1647 25.424C24.1647 24.9667 23.936 24.7381 23.4788 24.7381H8.36209C7.90484 24.7381 7.67621 24.9667 7.67621 25.424C7.67621 25.8812 7.90484 26.1099 8.36209 26.1099H23.4788ZM25.9754 28.8534V27.0152H5.8655V28.8534H25.9754ZM15.9067 10.5816C16.4188 10.5816 16.8487 10.4079 17.1962 10.0604C17.562 9.69458 17.7449 9.25562 17.7449 8.7435C17.7449 8.23138 17.562 7.80156 17.1962 7.45405C16.8487 7.08825 16.4188 6.90535 15.9067 6.90535C15.3946 6.90535 14.9556 7.08825 14.5898 7.45405C14.2423 7.80156 14.0686 8.23138 14.0686 8.7435C14.0686 9.25562 14.2423 9.69458 14.5898 10.0604C14.9556 10.4079 15.3946 10.5816 15.9067 10.5816Z" fill="white"/>
</svg>
