<svg width="32" height="32" viewBox="0 0 32 32" fill="none" xmlns="http://www.w3.org/2000/svg">
<path d="M8.92321 26.1099C8.61228 26.1099 8.45681 26.2653 8.45681 26.5763C8.45681 26.8689 8.61228 27.0152 8.92321 27.0152H23.0797C23.3906 27.0152 23.5461 26.8689 23.5461 26.5763C23.5461 26.2653 23.3906 26.1099 23.0797 26.1099H8.92321ZM17.8945 6V10.5542H21.5433V6H25.1922V15.1359H22.0371L23.6009 23.8053C24.0399 23.8053 24.4148 23.9699 24.7258 24.2992C25.0367 24.6101 25.1922 24.985 25.1922 25.424C25.1922 25.6801 25.1373 25.9087 25.0276 26.1099H27.0578V29.7587H5V26.1099H7.00276C6.91131 25.9087 6.86558 25.6801 6.86558 25.424C6.86558 24.9667 7.0119 24.5827 7.30454 24.2717C7.61547 23.9608 7.99956 23.8053 8.45681 23.8053L9.99317 15.1359H6.86558V6H10.5144V10.5542H14.1633V6H17.8945ZM11.4198 14.2305C11.1272 14.2305 10.9808 14.386 10.9808 14.6969C10.9808 14.9895 11.1272 15.1359 11.4198 15.1359H20.5831C20.8757 15.1359 21.022 14.9895 21.022 14.6969C21.022 14.386 20.8757 14.2305 20.5831 14.2305H11.4198Z" fill="black"/>
<path d="M8.92318 26.1099C8.61225 26.1099 8.45679 26.2653 8.45679 26.5763C8.45679 26.8689 8.61225 27.0152 8.92318 27.0152H23.0797C23.3906 27.0152 23.546 26.8689 23.546 26.5763C23.546 26.2653 23.3906 26.1099 23.0797 26.1099H8.92318ZM11.4198 14.2305C11.1271 14.2305 10.9808 14.386 10.9808 14.6969C10.9808 14.9895 11.1271 15.1359 11.4198 15.1359H20.5831C20.8757 15.1359 21.022 14.9895 21.022 14.6969C21.022 14.386 20.8757 14.2305 20.5831 14.2305H11.4198Z" fill="white"/>
</svg>
