<svg width="32" height="32" viewBox="0 0 32 32" fill="none" xmlns="http://www.w3.org/2000/svg">
<path d="M21.4857 22.0159C21.5313 21.9704 21.6452 21.8793 21.8274 21.7426C23.4675 20.4761 24.4607 18.7449 24.8069 16.549C25.1623 14.344 24.7659 12.3303 23.6179 10.508C22.816 9.25057 21.791 8.33485 20.5427 7.76082C19.3035 7.17768 18.037 6.96811 16.7432 7.13212C18.6019 7.56948 20.1555 8.62187 21.4037 10.2893C22.6611 11.9567 23.2898 13.8884 23.2898 16.0843C23.2898 17.6697 22.9709 19.1276 22.3331 20.4579C21.9869 20.9408 21.7044 21.4601 21.4857 22.0159ZM9.47208 12.7221L9.45841 13.8975C10.0598 14.1982 10.8069 14.3895 11.6999 14.4715C12.9573 14.6082 14.1554 14.4214 15.2944 13.9112C16.4425 13.4009 17.4538 12.6538 18.3286 11.6697L17.9595 10.6856C17.2033 11.6333 16.283 12.3622 15.1987 12.8724C14.1144 13.3827 12.9709 13.574 11.7682 13.4465C10.939 13.3645 10.1737 13.123 9.47207 12.7221H9.47208ZM10.0461 21.7699C10.7022 21.8064 11.3582 21.7927 12.0142 21.7289C13.4083 21.5923 14.6839 21.0501 15.8411 20.1025C16.8434 19.2825 17.6452 18.2574 18.2466 17.0273L17.2762 17.0137C16.857 17.8064 16.2101 18.5535 15.3354 19.2551C14.1782 20.2027 12.9436 20.7039 11.6315 20.7585C10.8206 20.8223 10.0598 20.7585 9.34908 20.5672L10.0461 21.7699ZM12.0962 25.7198C11.8047 25.7198 11.6589 25.8793 11.6589 26.1982V26.2119C11.6589 26.5308 11.8047 26.6902 12.0962 26.6902H19.996C20.2876 26.6902 20.4334 26.5308 20.4334 26.2119V26.1982C20.4334 25.8793 20.2876 25.7198 19.996 25.7198H12.0962ZM11.3719 25.8018C11.3081 24.918 11.0028 24.1344 10.4561 23.451C9.91855 22.7585 9.4493 22.0706 9.04839 21.3872C8.33769 21.2323 7.65887 20.9499 7.01195 20.5399C6.44703 19.3736 6.11901 18.1344 6.02789 16.8223C5.93678 15.5102 6.06889 14.2392 6.42425 13.0091L9.00739 13.2825C8.89805 11.123 9.34908 9.22779 10.3605 7.59681C11.381 5.96583 12.6794 5.10023 14.2557 5C14.283 5.40091 14.3787 5.94305 14.5427 6.62642C16.3012 5.69704 18.1555 5.50569 20.1053 6.05239C22.0552 6.59909 23.6179 7.78815 24.7933 9.61959C26.0871 11.6697 26.5381 13.9294 26.1463 16.3986C25.7545 18.8679 24.6293 20.8178 22.7705 22.2483C22.3422 22.5763 21.9003 22.8542 21.4447 23.082C21.3536 23.2916 21.2716 23.4738 21.1987 23.6287C21.1258 23.7836 21.0757 24.0387 21.0484 24.3941C21.0211 24.6765 21.0028 24.918 20.9937 25.1184C20.9846 25.3189 20.9664 25.5421 20.9391 25.7882C21.3764 25.7608 21.7728 25.9248 22.1281 26.2802C22.4835 26.6355 22.6611 27.0638 22.6611 27.5649V28.9863H9.64976V27.5649C9.64976 27.0911 9.82288 26.672 10.1691 26.3075C10.5154 25.9339 10.9163 25.7654 11.3719 25.8018V25.8018Z" fill="black"/>
<path d="M21.4857 22.016C21.5313 21.9704 21.6452 21.8793 21.8274 21.7426C23.4675 20.4761 24.4607 18.7449 24.8069 16.549C25.1623 14.344 24.7659 12.3303 23.6178 10.508C22.816 9.25059 21.791 8.33488 20.5427 7.76084C19.3035 7.1777 18.037 6.96813 16.7431 7.13214C18.6019 7.5695 20.1554 8.62189 21.4037 10.2893C22.6611 11.9567 23.2898 13.8884 23.2898 16.0843C23.2898 17.6697 22.9709 19.1276 22.3331 20.4579C21.9869 20.9408 21.7044 21.4602 21.4857 22.016ZM9.47207 12.7221L9.45839 13.8975C10.0598 14.1982 10.8069 14.3895 11.6998 14.4715C12.9573 14.6082 14.1554 14.4214 15.2944 13.9112C16.4424 13.4009 17.4538 12.6538 18.3285 11.6697L17.9595 10.6857C17.2033 11.6333 16.283 12.3622 15.1987 12.8725C14.1144 13.3827 12.9709 13.5741 11.7682 13.4465C10.939 13.3645 10.1737 13.123 9.47207 12.7221ZM10.0461 21.77C10.7021 21.8064 11.3582 21.7927 12.0142 21.729C13.4083 21.5923 14.6839 21.0501 15.8411 20.1025C16.8434 19.2825 17.6452 18.2574 18.2466 17.0274L17.2762 17.0137C16.857 17.8064 16.2101 18.5535 15.3354 19.2551C14.1782 20.2027 12.9436 20.7039 11.6315 20.7586C10.8206 20.8223 10.0598 20.7586 9.34906 20.5672L10.0461 21.77ZM12.0962 25.7198C11.8046 25.7198 11.6589 25.8793 11.6589 26.1982V26.2119C11.6589 26.5308 11.8046 26.6902 12.0962 26.6902H19.996C20.2876 26.6902 20.4333 26.5308 20.4333 26.2119V26.1982C20.4333 25.8793 20.2876 25.7198 19.996 25.7198H12.0962Z" fill="#EEEEEE"/>
</svg>
