<svg width="32" height="32" viewBox="0 0 32 32" fill="none" xmlns="http://www.w3.org/2000/svg">
<path d="M21.8684 21.7426C21.9322 21.6879 21.9869 21.6424 22.0324 21.6059C22.0871 21.5604 22.1418 21.5148 22.1965 21.4692C23.7637 20.1936 24.7113 18.4579 25.0393 16.262C25.3764 14.0661 24.9983 12.0524 23.9049 10.221C23.1395 8.96355 22.1646 8.04783 20.9801 7.4738C19.8047 6.89066 18.6019 6.68109 17.3719 6.8451C19.1395 7.28246 20.6156 8.33485 21.8001 10.0023C22.9937 11.6697 23.5905 13.6059 23.5905 15.8109C23.5905 17.369 23.2853 18.8269 22.6748 20.1845C22.3377 20.6765 22.0689 21.1959 21.8684 21.7426ZM11.8229 20.6902C13.0985 20.6355 14.2739 20.1617 15.3491 19.2688C16.3514 18.4487 17.1122 17.4191 17.6315 16.18C18.1509 14.9317 18.4015 13.6378 18.3832 12.2984C17.5723 13.2278 16.6247 13.9339 15.5404 14.4169C14.4652 14.8998 13.3263 15.0774 12.1236 14.9499C11.3035 14.8588 10.5381 14.631 9.82744 14.2665L7.50397 14.0068C6.94817 16.0478 7.10762 18.0114 7.98233 19.8975C9.22151 20.5444 10.5017 20.8087 11.8229 20.6902ZM10.0871 13.2825C10.7614 13.6651 11.4903 13.8975 12.2739 13.9795C13.422 14.0979 14.5063 13.9112 15.5268 13.4191C16.5473 12.9271 17.4265 12.221 18.1646 11.3007C17.6361 10.9362 17.2078 10.7221 16.8798 10.6583C15.176 9.9385 14.0734 8.47153 13.5723 6.2574C12.4971 6.64009 11.627 7.48747 10.9618 8.79954C10.3058 10.1116 10.0142 11.6059 10.0871 13.2825ZM19.9277 25.7198C19.873 25.164 19.8958 24.5444 19.996 23.861C20.1053 23.0319 20.2876 22.344 20.5427 21.7973C20.8069 21.2506 21.1213 20.6583 21.4857 20.0205C22.1509 18.7266 22.4835 17.3235 22.4835 15.8109C22.4835 13.5695 21.8001 11.6515 20.4334 10.0569C19.0757 8.46241 17.4447 7.66515 15.5404 7.66515C15.3582 7.66515 15.2261 7.66971 15.1441 7.67882C15.6634 8.60821 16.3331 9.27336 17.1532 9.67427C18.0097 9.91117 18.7523 10.3986 19.381 11.1367C19.545 12.8223 19.34 14.4761 18.7659 16.098C18.1919 17.7107 17.2762 19.0319 16.0188 20.0615C14.9345 20.9636 13.7227 21.4829 12.3832 21.6196C11.6908 21.6834 11.0575 21.6834 10.4835 21.6196C10.9299 22.0114 11.3445 22.5854 11.7272 23.3417C12.1099 24.098 12.3696 24.8907 12.5063 25.7198L19.9277 25.7198ZM21.7454 27.5649C21.7454 26.9544 21.4356 26.6492 20.816 26.6492H11.5085C10.8798 26.6492 10.5655 26.9635 10.5655 27.5923V28.0569H21.7454V27.5649ZM11.3719 25.8018C11.3081 24.918 11.0028 24.1344 10.4561 23.451C9.91855 22.7585 9.4493 22.0706 9.04839 21.3872C8.33769 21.2323 7.65887 20.9499 7.01195 20.5399C6.44703 19.3736 6.11901 18.1344 6.02789 16.8223C5.93678 15.5102 6.06889 14.2392 6.42425 13.0091L9.00739 13.2825C8.89805 11.123 9.34908 9.22779 10.3605 7.59681C11.381 5.96583 12.6794 5.10023 14.2557 5C14.283 5.40091 14.3787 5.94305 14.5427 6.62642C16.3012 5.69704 18.1555 5.50569 20.1053 6.05239C22.0552 6.59909 23.6179 7.78816 24.7933 9.61959C26.0871 11.6697 26.5381 13.9294 26.1463 16.3986C25.7545 18.8679 24.6293 20.8178 22.7705 22.2483C22.3422 22.5763 21.9003 22.8542 21.4447 23.082C21.3536 23.2916 21.2716 23.4738 21.1987 23.6287C21.1258 23.7836 21.0757 24.0387 21.0484 24.3941C21.0211 24.6765 21.0028 24.918 20.9937 25.1184C20.9846 25.3189 20.9664 25.5421 20.9391 25.7882C21.3764 25.7608 21.7728 25.9248 22.1281 26.2802C22.4835 26.6355 22.6611 27.0638 22.6611 27.5649V28.9863H9.64976V27.5649C9.64976 27.0911 9.82288 26.672 10.1691 26.3075C10.5154 25.9339 10.9163 25.7654 11.3719 25.8018Z" fill="black"/>
<path d="M21.8684 21.7426C21.9322 21.6879 21.9869 21.6424 22.0324 21.6059C22.0871 21.5604 22.1418 21.5148 22.1965 21.4693C23.7637 20.1936 24.7113 18.4579 25.0393 16.262C25.3764 14.0661 24.9983 12.0524 23.9049 10.221C23.1395 8.96357 22.1646 8.04785 20.9801 7.47382C19.8047 6.89067 18.6019 6.68111 17.3719 6.84511C19.1395 7.28247 20.6156 8.33486 21.8001 10.0023C22.9937 11.6697 23.5905 13.6059 23.5905 15.8109C23.5905 17.369 23.2853 18.8269 22.6748 20.1845C22.3377 20.6765 22.0689 21.1959 21.8684 21.7426ZM11.8229 20.6902C13.0985 20.6355 14.2739 20.1617 15.3491 19.2688C16.3514 18.4488 17.1122 17.4191 17.6315 16.18C18.1509 14.9317 18.4015 13.6378 18.3832 12.2984C17.5723 13.2278 16.6247 13.934 15.5404 14.4169C14.4653 14.8998 13.3263 15.0775 12.1236 14.9499C11.3035 14.8588 10.5381 14.631 9.82744 14.2665L7.50398 14.0068C6.94817 16.0478 7.10762 18.0114 7.98234 19.8975C9.22152 20.5444 10.5017 20.8087 11.8229 20.6902ZM10.0871 13.2825C10.7614 13.6652 11.4903 13.8975 12.2739 13.9795C13.422 14.098 14.5063 13.9112 15.5268 13.4191C16.5473 12.9271 17.4265 12.221 18.1646 11.3007C17.6361 10.9362 17.2078 10.7221 16.8798 10.6583C15.176 9.93851 14.0735 8.47154 13.5723 6.25742C12.4971 6.6401 11.627 7.48748 10.9618 8.79956C10.3058 10.1116 10.0142 11.6059 10.0871 13.2825ZM19.9277 25.7198C19.873 25.164 19.8958 24.5444 19.996 23.8611C20.1053 23.0319 20.2876 22.344 20.5427 21.7973C20.8069 21.2506 21.1213 20.6583 21.4858 20.0205C22.1509 18.7267 22.4835 17.3235 22.4835 15.8109C22.4835 13.5695 21.8001 11.6515 20.4334 10.057C19.0757 8.46243 17.4448 7.66516 15.5404 7.66516C15.3582 7.66516 15.2261 7.66972 15.1441 7.67884C15.6634 8.60822 16.3331 9.27337 17.1532 9.67428C18.0097 9.91118 18.7523 10.3987 19.381 11.1367C19.545 12.8223 19.34 14.4761 18.7659 16.098C18.1919 17.7107 17.2762 19.0319 16.0188 20.0615C14.9345 20.9636 13.7227 21.4829 12.3832 21.6196C11.6908 21.6834 11.0575 21.6834 10.4835 21.6196C10.9299 22.0114 11.3445 22.5854 11.7272 23.3417C12.1099 24.098 12.3696 24.8907 12.5063 25.7198L19.9277 25.7198ZM21.7454 27.5649C21.7454 26.9544 21.4356 26.6492 20.816 26.6492H11.5085C10.8798 26.6492 10.5655 26.9636 10.5655 27.5923V28.057H21.7454V27.5649Z" fill="white"/>
</svg>
