<svg width="32" height="32" viewBox="0 0 32 32" fill="none" xmlns="http://www.w3.org/2000/svg">
<path d="M26.0615 21.6879C26.0615 22.2164 25.8702 22.6629 25.4875 23.0273C25.1139 23.3827 24.6765 23.5558 24.1754 23.5467H21.4556V25.3918C21.9567 25.3918 22.3895 25.5831 22.754 25.9658C23.1184 26.3394 23.3007 26.7813 23.3007 27.2916V28.6583H9.30524V27.2916C9.30524 26.7813 9.48291 26.3394 9.83827 25.9658C10.2027 25.5923 10.6401 25.4009 11.1503 25.3918V23.5467H8.43052C7.91116 23.5467 7.4738 23.369 7.11845 23.0137C6.7631 22.6492 6.58542 22.2164 6.58542 21.7153L6.57175 19.7882L5.15034 11.9157C5.05011 11.6059 5 11.287 5 10.959C5 9.9385 5.35991 9.06378 6.07973 8.33485C6.80866 7.60592 7.68337 7.24146 8.70387 7.24146C9.05011 7.24146 9.40547 7.29613 9.76993 7.40547L13.9795 8.5262C14.1526 8.25285 14.3804 8.01594 14.6629 7.81549C14.1982 7.51481 13.9658 7.12756 13.9658 6.65376C13.9658 6.19818 14.1936 5.81093 14.6492 5.49203C15.1048 5.16401 15.656 5 16.303 5C16.9408 5 17.4875 5.16401 17.9431 5.49203C18.3986 5.81093 18.6264 6.19818 18.6264 6.65376C18.6264 7.09112 18.4169 7.46925 17.9977 7.78815C18.2893 8.03417 18.5125 8.28018 18.6674 8.5262L22.877 7.40547C23.2323 7.29613 23.5877 7.24146 23.943 7.24146C24.9544 7.24146 25.8246 7.60592 26.5535 8.33485C27.2825 9.06378 27.6469 9.9385 27.6469 10.959C27.6469 11.287 27.5968 11.6059 27.4966 11.9157L26.0615 19.7882V21.6879ZM16.2893 7.66515C15.3964 7.66515 14.9499 7.7836 14.9499 8.0205C14.9499 8.2574 15.3964 8.37585 16.2893 8.37585C17.1731 8.37585 17.615 8.2574 17.615 8.0205C17.615 7.7836 17.1731 7.66515 16.2893 7.66515ZM12.2164 25.4465C11.8793 25.4465 11.7107 25.6014 11.7107 25.9112C11.7107 26.221 11.8793 26.3759 12.2164 26.3759H20.3895C20.7266 26.3759 20.8952 26.221 20.8952 25.9112C20.8952 25.6014 20.7266 25.4465 20.3895 25.4465H12.2164ZM23.0137 18.4487L23.82 13.3781C23.9476 13.0319 24.0114 12.6856 24.0114 12.3394C24.0114 11.7107 23.8064 11.1731 23.3963 10.7267C22.9954 10.2711 22.508 10.0433 21.9339 10.0433C21.6515 10.0433 21.3599 10.1162 21.0592 10.262L18.8041 10.9863L18.5171 15.0592C20.3303 15.6606 21.8292 16.7904 23.0137 18.4487ZM9.64692 18.3121C10.877 16.6902 12.3895 15.5968 14.1845 15.0319L13.8428 11L11.6014 10.2756C11.2825 10.1298 10.9863 10.0569 10.713 10.0569C10.139 10.0569 9.64692 10.2847 9.2369 10.7403C8.82688 11.1868 8.62187 11.7244 8.62187 12.3531C8.62187 12.672 8.6902 13.0182 8.82688 13.3918L9.64692 18.3121ZM8.0205 19.5558C7.7107 19.5558 7.55581 19.7244 7.55581 20.0615C7.55581 20.4077 7.7107 20.5809 8.0205 20.5809H24.5854C24.8952 20.5809 25.0501 20.4077 25.0501 20.0615C25.0501 19.7244 24.8952 19.5558 24.5854 19.5558H8.0205ZM12.2164 22.6583C11.8793 22.6583 11.7107 22.8132 11.7107 23.123C11.7107 23.4328 11.8793 23.5877 12.2164 23.5877H20.3895C20.7266 23.5877 20.8952 23.4328 20.8952 23.123C20.8952 22.8132 20.7266 22.6583 20.3895 22.6583H12.2164Z" fill="black"/>
<path d="M16.2893 7.66515C15.3963 7.66515 14.9499 7.7836 14.9499 8.0205C14.9499 8.2574 15.3963 8.37585 16.2893 8.37585C17.1731 8.37585 17.615 8.2574 17.615 8.0205C17.615 7.7836 17.1731 7.66515 16.2893 7.66515ZM12.2164 25.4465C11.8792 25.4465 11.7107 25.6014 11.7107 25.9112C11.7107 26.221 11.8792 26.3758 12.2164 26.3758H20.3895C20.7266 26.3758 20.8952 26.221 20.8952 25.9112C20.8952 25.6014 20.7266 25.4465 20.3895 25.4465H12.2164ZM8.02048 19.5558C7.71068 19.5558 7.55579 19.7244 7.55579 20.0615C7.55579 20.4077 7.71068 20.5809 8.02048 20.5809H24.5854C24.8952 20.5809 25.0501 20.4077 25.0501 20.0615C25.0501 19.7244 24.8952 19.5558 24.5854 19.5558H8.02048ZM12.2164 22.6583C11.8792 22.6583 11.7107 22.8132 11.7107 23.123C11.7107 23.4328 11.8792 23.5877 12.2164 23.5877H20.3895C20.7266 23.5877 20.8952 23.4328 20.8952 23.123C20.8952 22.8132 20.7266 22.6583 20.3895 22.6583H12.2164Z" fill="#EEEEEE"/>
</svg>
