<svg width="32" height="32" viewBox="0 0 32 32" fill="none" xmlns="http://www.w3.org/2000/svg">
<path d="M25.0911 21.6879V20.7585H16.3303H7.55581V21.6879C7.55581 22.2802 7.84738 22.59 8.43052 22.6173H16.3303H24.1891C24.7904 22.6173 25.0911 22.3075 25.0911 21.6879ZM26.0615 21.6879C26.0615 22.2164 25.8702 22.6629 25.4875 23.0273C25.1139 23.3827 24.6765 23.5558 24.1754 23.5467H21.4556V25.3918C21.9567 25.3918 22.3895 25.5831 22.754 25.9658C23.1184 26.3394 23.3007 26.7813 23.3007 27.2916V28.6583H9.30524V27.2916C9.30524 26.7813 9.48291 26.3394 9.83827 25.9658C10.2027 25.5923 10.6401 25.4009 11.1503 25.3918V23.5467H8.43052C7.91116 23.5467 7.4738 23.369 7.11845 23.0137C6.7631 22.6492 6.58542 22.2164 6.58542 21.7153L6.57175 19.7882L5.15034 11.9157C5.05011 11.6059 5 11.287 5 10.959C5 9.9385 5.35991 9.06378 6.07973 8.33485C6.80866 7.60592 7.68337 7.24146 8.70387 7.24146C9.05011 7.24146 9.40547 7.29613 9.76993 7.40547L13.9795 8.5262C14.1526 8.25285 14.3804 8.01594 14.6629 7.81549C14.1982 7.51481 13.9658 7.12756 13.9658 6.65376C13.9658 6.19818 14.1936 5.81093 14.6492 5.49203C15.1048 5.16401 15.656 5 16.303 5C16.9408 5 17.4875 5.16401 17.9431 5.49203C18.3986 5.81093 18.6264 6.19818 18.6264 6.65376C18.6264 7.09112 18.4169 7.46925 17.9977 7.78815C18.2893 8.03417 18.5125 8.28018 18.6674 8.5262L22.877 7.40547C23.2323 7.29613 23.5877 7.24146 23.943 7.24146C24.9544 7.24146 25.8246 7.60592 26.5535 8.33485C27.2825 9.06378 27.6469 9.9385 27.6469 10.959C27.6469 11.287 27.5968 11.6059 27.4966 11.9157L26.0615 19.7882V21.6879ZM16.303 5.83371C15.5285 5.83371 15.1412 6.10706 15.1412 6.65376C15.1412 7.20957 15.5285 7.48747 16.303 7.48747C17.0683 7.48747 17.451 7.20957 17.451 6.65376C17.451 6.10706 17.0683 5.83371 16.303 5.83371ZM25.0911 19.7882L26.5672 11.82C26.6583 11.5376 26.7039 11.2506 26.7039 10.959C26.7039 10.1936 26.4351 9.54214 25.8975 9.00456C25.3599 8.45786 24.7084 8.18451 23.943 8.18451C23.6788 8.18451 23.4191 8.22551 23.164 8.30752L19.0774 9.44191C19.1321 9.67881 19.1549 9.90661 19.1458 10.1253L20.8542 9.70159C21.2096 9.59225 21.5512 9.53758 21.8793 9.53758C22.6446 9.53758 23.3052 9.81549 23.861 10.3713C24.4168 10.918 24.6948 11.5786 24.6948 12.3531C24.6948 12.7175 24.6219 13.0866 24.4761 13.4601L23.3417 19.7882H25.0911ZM16.3303 19.7882H17.3143L18.1344 10.6036C18.1253 10.5034 18.1253 10.4169 18.1344 10.344C18.1435 10.262 18.1481 10.18 18.1481 10.0979C18.1481 9.60592 17.9704 9.18223 17.615 8.82688C17.2597 8.47153 16.8314 8.29385 16.3303 8.29385C15.8109 8.29385 15.3736 8.47153 15.0182 8.82688C14.672 9.18223 14.4989 9.60592 14.4989 10.0979C14.4989 10.18 14.4989 10.262 14.4989 10.344C14.508 10.4169 14.5125 10.5034 14.5125 10.6036L15.3326 19.7882H16.3303ZM14.0205 15.5102C12.3166 16.0387 10.9818 17.0592 10.0159 18.5718L10.2483 19.7882H14.3485L14.0205 15.5102ZM22.6173 18.6264C21.6697 17.123 20.3576 16.0934 18.6811 15.5376L18.2984 19.7882H22.3986L22.6173 18.6264ZM9.81093 17.2733C10.9043 15.9522 12.2756 15.0456 13.9248 14.5535L13.6241 11.2323L11.574 10.631C11.2916 10.5125 11.0273 10.4533 10.7813 10.4533C10.2528 10.4533 9.80182 10.6401 9.42824 11.0137C9.06378 11.3872 8.88155 11.8337 8.88155 12.3531C8.88155 12.6173 8.94077 12.9043 9.05922 13.2141L9.81093 17.2733ZM22.8497 17.3964L23.5877 13.2141C23.7061 12.9043 23.7654 12.6173 23.7654 12.3531C23.7654 11.8337 23.5786 11.3872 23.205 11.0137C22.8405 10.6401 22.3986 10.4533 21.8793 10.4533C21.615 10.4533 21.3462 10.5125 21.0729 10.631L19.0228 11.2323L18.7631 14.5945C20.4214 15.1048 21.7836 16.0387 22.8497 17.3964ZM7.55581 19.7882H9.30524L8.17084 13.4601C8.02506 13.0866 7.95216 12.7175 7.95216 12.3531C7.95216 11.5786 8.22551 10.918 8.77221 10.3713C9.32802 9.81549 9.99772 9.53758 10.7813 9.53758C11.1002 9.53758 11.4374 9.59225 11.7927 9.70159L13.5011 10.1253C13.4829 9.90661 13.5057 9.67881 13.5695 9.44191L9.48291 8.30752C9.21868 8.22551 8.959 8.18451 8.70387 8.18451C7.93849 8.18451 7.28701 8.45786 6.74943 9.00456C6.21184 9.54214 5.94305 10.1936 5.94305 10.959C5.94305 11.2506 5.98861 11.5376 6.07973 11.82L7.55581 19.7882ZM12.1207 23.5467V25.3918H20.4852V23.5467H12.1207ZM10.2346 27.2916V27.7426H22.3713V27.2916C22.3713 26.6446 22.0661 26.3212 21.4556 26.3212H11.1503C10.5399 26.3212 10.2346 26.6446 10.2346 27.2916Z" fill="black"/>
<path d="M25.0911 21.6879V20.7585H16.3303H7.55584V21.6879C7.55584 22.2802 7.84741 22.59 8.43056 22.6173H16.3303H24.1891C24.7905 22.6173 25.0911 22.3075 25.0911 21.6879ZM16.303 5.83371C15.5285 5.83371 15.1413 6.10706 15.1413 6.65376C15.1413 7.20956 15.5285 7.48747 16.303 7.48747C17.0684 7.48747 17.4511 7.20956 17.4511 6.65376C17.4511 6.10706 17.0684 5.83371 16.303 5.83371ZM25.0911 19.7881L26.5672 11.82C26.6583 11.5376 26.7039 11.2506 26.7039 10.959C26.7039 10.1936 26.4351 9.54214 25.8975 9.00455C25.3599 8.45785 24.7085 8.18451 23.9431 8.18451C23.6788 8.18451 23.4192 8.22551 23.164 8.30751L19.0775 9.44191C19.1321 9.67881 19.1549 9.9066 19.1458 10.1253L20.8542 9.70159C21.2096 9.59225 21.5513 9.53758 21.8793 9.53758C22.6447 9.53758 23.3053 9.81548 23.8611 10.3713C24.4169 10.918 24.6948 11.5786 24.6948 12.3531C24.6948 12.7175 24.6219 13.0866 24.4761 13.4601L23.3417 19.7881H25.0911ZM16.3303 19.7881H17.3144L18.1344 10.6036C18.1253 10.5034 18.1253 10.4169 18.1344 10.344C18.1435 10.262 18.1481 10.1799 18.1481 10.0979C18.1481 9.60592 17.9704 9.18223 17.6151 8.82688C17.2597 8.47152 16.8315 8.29385 16.3303 8.29385C15.811 8.29385 15.3736 8.47152 15.0183 8.82688C14.672 9.18223 14.4989 9.60592 14.4989 10.0979C14.4989 10.1799 14.4989 10.262 14.4989 10.344C14.508 10.4169 14.5126 10.5034 14.5126 10.6036L15.3326 19.7881H16.3303ZM14.0205 15.5102C12.3167 16.0387 10.9818 17.0592 10.016 18.5717L10.2483 19.7881H14.3486L14.0205 15.5102ZM22.6173 18.6264C21.6697 17.123 20.3577 16.0934 18.6811 15.5376L18.2984 19.7881H22.3987L22.6173 18.6264ZM7.55584 19.7881H9.30527L8.17087 13.4601C8.02509 13.0866 7.9522 12.7175 7.9522 12.3531C7.9522 11.5786 8.22554 10.918 8.77224 10.3713C9.32805 9.81548 9.99775 9.53758 10.7814 9.53758C11.1003 9.53758 11.4374 9.59225 11.7927 9.70159L13.5012 10.1253C13.4829 9.9066 13.5057 9.67881 13.5695 9.44191L9.48295 8.30751C9.21871 8.22551 8.95903 8.18451 8.7039 8.18451C7.93853 8.18451 7.28705 8.45785 6.74946 9.00455C6.21188 9.54214 5.94308 10.1936 5.94308 10.959C5.94308 11.2506 5.98864 11.5376 6.07976 11.82L7.55584 19.7881ZM12.1208 23.5467V25.3918H20.4852V23.5467H12.1208ZM10.2347 27.2916V27.7426H22.3713V27.2916C22.3713 26.6446 22.0661 26.3212 21.4556 26.3212H11.1504C10.5399 26.3212 10.2347 26.6446 10.2347 27.2916Z" fill="white"/>
</svg>
