<svg width="32" height="32" viewBox="0 0 32 32" fill="none" xmlns="http://www.w3.org/2000/svg">
<path d="M21.8406 27.6606C21.8406 27.041 21.5308 26.7312 20.9112 26.7312H11.59C10.9704 26.7312 10.6606 27.041 10.6606 27.6606V28.1389H21.8406V27.6606ZM20.8839 25.8018C21.4032 25.8018 21.8451 25.984 22.2096 26.3485C22.5832 26.7039 22.77 27.1412 22.77 27.6606V29.0683H9.74491V27.6606C9.74491 27.1503 9.90892 26.713 10.2369 26.3485C10.565 25.984 11.0069 25.8018 11.5627 25.8018C11.6994 25.6925 11.7677 25.6196 11.7677 25.5831C11.7677 24.6538 11.4989 23.8565 10.9613 23.1913C10.4328 23.4282 9.88614 23.4966 9.32122 23.3964C8.55584 23.2597 7.94536 22.8724 7.48978 22.2346C7.04331 21.5968 6.90208 20.8907 7.06609 20.1162L8.00915 12.6264C7.75402 12.2711 7.54901 11.9431 7.39411 11.6424C7.5399 9.98405 7.99548 8.41686 8.76085 6.94077C8.67885 6.15718 8.67885 5.51025 8.76085 5C10.2187 5.82916 11.6948 6.34852 13.1891 6.55809C13.672 6.65831 14.1549 6.78588 14.6378 6.94077C15.3121 6.90433 16.041 6.95444 16.8246 7.09112C17.6265 7.2369 18.4055 7.46469 19.1618 7.77449C19.918 8.07517 20.7062 8.44419 21.5262 8.88155C22.8292 9.1549 23.6857 9.82916 24.0957 10.9043C24.3599 11.6697 24.3554 12.4305 24.082 13.1868C24.893 13.8246 25.2984 14.6583 25.2984 15.6879C25.2984 16.5171 24.9977 17.3189 24.3964 18.0934C24.7882 19.4055 24.6196 20.4943 23.8907 21.3599C23.3987 22.2346 22.7836 23.0046 22.0456 23.6697C21.3895 24.1891 21.0023 24.8998 20.8838 25.8018H20.8839ZM21.7996 20.9635C21.754 21.2187 21.5672 21.3007 21.2392 21.2096C20.9294 21.1367 20.8155 20.9453 20.8975 20.6355C20.9613 20.4533 21.016 20.2711 21.0615 20.0888C21.1071 19.8975 21.1572 19.7198 21.2119 19.5558C21.2939 19.3098 21.5034 19.2187 21.8406 19.2825C22.1777 19.3736 22.287 19.5376 22.1686 19.7745C22.0228 20.2665 21.8998 20.6629 21.7996 20.9635ZM21.7312 17.1093C21.7312 16.9362 21.7221 16.7722 21.7039 16.6173C21.6948 16.4533 21.6902 16.2756 21.6902 16.0843C21.7449 15.7654 21.9363 15.6196 22.2643 15.6469C22.5832 15.7198 22.7107 15.8793 22.647 16.1253C22.6652 16.4077 22.6652 16.7995 22.647 17.3007C22.6105 17.5376 22.4374 17.6469 22.1276 17.6287C21.8269 17.6196 21.6948 17.4465 21.7312 17.1093H21.7312ZM12.205 9.66059C12.5331 9.85193 12.4511 10.385 11.959 11.2597C11.4488 12.1344 11.0251 12.4761 10.688 12.2847C10.3508 12.0934 10.4374 11.5604 10.9476 10.6856C11.4488 9.80182 11.8679 9.46014 12.205 9.66059ZM19.9681 25.8018C20.1504 24.2528 20.8565 23.1184 22.0866 22.3986C21.0205 22.6082 20.0866 22.3941 19.2848 21.7563C19.0023 21.7016 18.934 21.5102 19.0798 21.1822C19.2255 20.8907 19.4579 20.8178 19.7768 20.9635C20.2962 21.3918 20.8793 21.5786 21.5262 21.5239C22.1731 21.4692 22.7062 21.1959 23.1253 20.7039C23.6265 20.0843 23.7722 19.3918 23.5627 18.6264C23.016 18.8451 22.5057 18.9544 22.0319 18.9544C21.3941 18.9544 20.7882 18.7677 20.2142 18.3941C19.877 18.2392 19.7722 18.0159 19.8998 17.7244C20.0456 17.4237 20.2779 17.3553 20.5968 17.5194C21.0433 17.8565 21.5217 18.0251 22.0319 18.0251C22.6697 18.0251 23.2164 17.7973 23.672 17.3417C24.1367 16.8861 24.369 16.3348 24.369 15.6879C24.369 15.0501 24.1276 14.4943 23.6447 14.0205C23.1891 14.5307 22.688 14.8861 22.1413 15.0866C21.5217 15.3052 20.8884 15.3371 20.2415 15.1822C19.8679 15.1276 19.7085 14.9362 19.7631 14.6082C19.8269 14.3075 20.0228 14.1845 20.3508 14.2392C20.8429 14.4032 21.3349 14.3941 21.8269 14.2119C22.4283 13.9932 22.8656 13.5923 23.139 13.0091C23.4123 12.426 23.4397 11.8292 23.221 11.2187C22.9932 10.6082 22.5239 10.1207 21.8132 9.75628C21.9226 10.1025 22.0137 10.4943 22.0866 10.9317C22.0319 12.0068 21.7221 12.836 21.1572 13.4191C20.7107 13.8656 20.1504 14.1709 19.4761 14.3349C19.1299 14.4624 18.9021 14.3668 18.7927 14.0478C18.6743 13.7381 18.7882 13.5285 19.1344 13.4191C19.672 13.3554 20.1276 13.1367 20.5012 12.7631C20.9476 12.3166 21.1709 11.7699 21.1709 11.123C21.18 10.4761 20.9704 9.93395 20.5422 9.4966C19.4488 8.77678 18.2734 8.28475 17.016 8.02051C18.2916 8.76767 19.4032 9.71527 20.3508 10.8633C20.5877 11.0729 20.6014 11.2961 20.3918 11.533C20.1823 11.7973 19.9499 11.8109 19.6948 11.574C17.9454 9.46926 15.7449 8.11619 13.0934 7.51482C12.0365 7.38726 11.0296 7.11391 10.0729 6.69477C9.84513 6.98635 9.63557 7.32348 9.44422 7.70616C8.89753 8.77222 8.51028 9.93395 8.28249 11.1914C8.40095 11.4556 8.63329 11.8428 8.97953 12.3531L7.96814 20.2665C7.86791 20.7859 7.96359 21.2643 8.25516 21.7016C8.55584 22.1299 8.96587 22.3895 9.48523 22.4807C9.99548 22.5718 10.4647 22.467 10.893 22.1663C11.3303 21.8656 11.5946 21.4556 11.6857 20.9362C11.7221 20.6811 11.6492 20.4123 11.467 20.1299C11.2848 19.8383 11.2893 19.5968 11.4807 19.4055C12.5376 18.3485 13.5217 17.2779 14.4328 16.1936C15.344 15.1002 15.9864 13.8565 16.3599 12.4624C16.4328 12.1253 16.6287 11.9841 16.9476 12.0387C17.2666 12.0934 17.3896 12.303 17.3167 12.6674C16.934 14.0797 16.3098 15.3508 15.4442 16.4806C14.5877 17.6105 13.6401 18.6811 12.6014 19.6925C12.4374 19.8565 12.4055 20.0752 12.5057 20.3485C12.606 20.6128 12.6379 20.8633 12.6014 21.1002C12.4921 21.7289 12.2051 22.2529 11.7404 22.672C12.3417 23.5103 12.6424 24.4807 12.6424 25.5832C12.6424 25.6834 12.6151 25.7563 12.5604 25.8018L19.9681 25.8018Z" fill="black"/>
<path d="M21.8406 27.6606C21.8406 27.041 21.5308 26.7312 20.9112 26.7312H11.59C10.9705 26.7312 10.6607 27.041 10.6607 27.6606V28.139H21.8406V27.6606ZM21.7996 20.9636C21.7541 21.2187 21.5673 21.3007 21.2392 21.2096C20.9295 21.1367 20.8156 20.9453 20.8976 20.6355C20.9613 20.4533 21.016 20.2711 21.0616 20.0888C21.1071 19.8975 21.1572 19.7198 21.2119 19.5558C21.2939 19.3098 21.5035 19.2187 21.8406 19.2825C22.1777 19.3736 22.2871 19.5376 22.1686 19.7745C22.0228 20.2665 21.8998 20.6629 21.7996 20.9636ZM21.7313 17.1093C21.7313 16.9362 21.7222 16.7722 21.7039 16.6173C21.6948 16.4533 21.6903 16.2756 21.6903 16.0843C21.7449 15.7654 21.9363 15.6196 22.2643 15.6469C22.5832 15.7198 22.7108 15.8793 22.647 16.1253C22.6652 16.4077 22.6652 16.7995 22.647 17.3007C22.6106 17.5376 22.4374 17.6469 22.1276 17.6287C21.827 17.6196 21.6948 17.4465 21.7313 17.1093ZM12.2051 9.6606C12.5331 9.85194 12.4511 10.385 11.9591 11.2597C11.4488 12.1344 11.0251 12.4761 10.688 12.2847C10.3509 12.0934 10.4374 11.5604 10.9477 10.6857C11.4488 9.80183 11.8679 9.46014 12.2051 9.6606ZM19.9682 25.8018C20.1504 24.2528 20.8566 23.1185 22.0866 22.3986C21.0206 22.6082 20.0866 22.3941 19.2848 21.7563C19.0023 21.7016 18.934 21.5103 19.0798 21.1822C19.2256 20.8907 19.4579 20.8178 19.7768 20.9636C20.2962 21.3918 20.8793 21.5786 21.5263 21.5239C22.1732 21.4692 22.7062 21.1959 23.1253 20.7039C23.6265 20.0843 23.7723 19.3918 23.5627 18.6264C23.016 18.8451 22.5058 18.9544 22.032 18.9544C21.3941 18.9544 20.7882 18.7677 20.2142 18.3941C19.8771 18.2392 19.7723 18.0159 19.8998 17.7244C20.0456 17.4237 20.278 17.3554 20.5969 17.5194C21.0433 17.8565 21.5217 18.0251 22.032 18.0251C22.6698 18.0251 23.2165 17.7973 23.672 17.3417C24.1367 16.8861 24.3691 16.3349 24.3691 15.6879C24.3691 15.0501 24.1276 14.4943 23.6447 14.0205C23.1891 14.5308 22.688 14.8861 22.1413 15.0866C21.5217 15.3052 20.8884 15.3371 20.2415 15.1822C19.8679 15.1276 19.7085 14.9362 19.7632 14.6082C19.8269 14.3075 20.0228 14.1845 20.3509 14.2392C20.8429 14.4032 21.3349 14.3941 21.8269 14.2119C22.4283 13.9932 22.8657 13.5923 23.139 13.0091C23.4124 12.426 23.4397 11.8292 23.221 11.2187C22.9932 10.6082 22.524 10.1207 21.8133 9.75628C21.9226 10.1025 22.0137 10.4943 22.0866 10.9317C22.032 12.0069 21.7222 12.836 21.1572 13.4192C20.7108 13.8656 20.1504 14.1709 19.4761 14.3349C19.1299 14.4624 18.9021 14.3668 18.7928 14.0479C18.6743 13.7381 18.7882 13.5285 19.1345 13.4192C19.672 13.3554 20.1276 13.1367 20.5012 12.7631C20.9477 12.3166 21.1709 11.7699 21.1709 11.123C21.18 10.4761 20.9705 9.93396 20.5422 9.4966C19.4488 8.77678 18.2734 8.28475 17.016 8.02052C18.2916 8.76767 19.4033 9.71528 20.3509 10.8633C20.5878 11.0729 20.6014 11.2961 20.3919 11.533C20.1823 11.7973 19.95 11.811 19.6948 11.574C17.9454 9.46926 15.7449 8.11619 13.0935 7.51482C12.0365 7.38726 11.0297 7.11391 10.073 6.69478C9.84517 6.98635 9.6356 7.32348 9.44426 7.70617C8.89756 8.77223 8.51032 9.93396 8.28253 11.1914C8.40098 11.4556 8.63333 11.8428 8.97957 12.3531L7.96818 20.2665C7.86795 20.7859 7.96362 21.2643 8.25519 21.7016C8.55588 22.1299 8.9659 22.3895 9.48526 22.4807C9.99551 22.5718 10.4648 22.467 10.893 22.1663C11.3304 21.8656 11.5946 21.4556 11.6857 20.9362C11.7222 20.6811 11.6493 20.4123 11.467 20.1299C11.2848 19.8383 11.2894 19.5968 11.4807 19.4055C12.5377 18.3485 13.5217 17.2779 14.4329 16.1936C15.344 15.1002 15.9864 13.8565 16.36 12.4624C16.4329 12.1253 16.6288 11.9841 16.9477 12.0387C17.2666 12.0934 17.3896 12.303 17.3167 12.6674C16.934 14.0797 16.3099 15.3508 15.4443 16.4807C14.5878 17.6105 13.6402 18.6811 12.6014 19.6925C12.4374 19.8565 12.4055 20.0752 12.5058 20.3485C12.606 20.6128 12.6379 20.8633 12.6014 21.1002C12.4921 21.7289 12.2051 22.2529 11.7404 22.672C12.3418 23.5103 12.6424 24.4807 12.6424 25.5832C12.6424 25.6834 12.6151 25.7563 12.5604 25.8018L19.9682 25.8018Z" fill="white"/>
</svg>
