<svg width="32" height="32" viewBox="0 0 32 32" fill="none" xmlns="http://www.w3.org/2000/svg">
<path d="M17.6515 9.67426H21.1093V10.6036H16.9271C17.0364 12.5718 17.3827 14.5763 17.9658 16.6173C18.549 18.6583 19.5786 20.2483 21.0547 21.3872C21.0547 22.3166 20.8178 23.1913 20.344 24.0114C19.8793 24.8223 19.2779 25.4875 18.5399 26.0068L20.2073 26.0205C20.6993 26.0205 21.123 26.2027 21.4784 26.5672C21.8428 26.9317 22.0251 27.3645 22.0251 27.8656V29.287H9.01367L9 27.8929C9 27.3736 9.18223 26.9317 9.5467 26.5672C9.91116 26.2027 10.3531 26.0205 10.8724 26.0205L12.5262 26.0068C11.7517 25.4784 11.1185 24.8041 10.6264 23.9841C10.1344 23.1549 9.88838 22.2893 9.88838 21.3872C11.3554 20.2483 12.3941 18.6583 13.0046 16.6173C13.615 14.5763 13.9841 12.5718 14.1116 10.6036H9.92938V9.67426H13.4282C12.9453 9.1549 12.7039 8.53531 12.7039 7.81549C12.7039 7.041 12.9772 6.38041 13.5239 5.83371C14.0706 5.2779 14.7358 5 15.5194 5C16.2847 5 16.9453 5.2779 17.5011 5.83371C18.0569 6.38041 18.3348 7.041 18.3348 7.81549C18.3348 8.53531 18.1071 9.1549 17.6515 9.67426V9.67426ZM11.3098 20.8952C11.0091 20.8952 10.8588 21.0501 10.8588 21.3599C10.8588 21.6697 11.0091 21.8246 11.3098 21.8246H19.7153C20.0251 21.8246 20.18 21.6697 20.18 21.3599C20.18 21.0501 20.0251 20.8952 19.7153 20.8952H11.3098ZM13.4009 25.7335C13.1185 25.7335 12.9772 25.8884 12.9772 26.1982C12.9772 26.508 13.1185 26.6629 13.4009 26.6629H17.6378C17.9112 26.6629 18.0478 26.508 18.0478 26.1982C18.0478 25.8884 17.9112 25.7335 17.6378 25.7335H13.4009Z" fill="black"/>
<path d="M11.3098 20.8952C11.0091 20.8952 10.8588 21.0501 10.8588 21.3599C10.8588 21.6697 11.0091 21.8246 11.3098 21.8246H19.7153C20.025 21.8246 20.1799 21.6697 20.1799 21.3599C20.1799 21.0501 20.025 20.8952 19.7153 20.8952H11.3098ZM13.4009 25.7335C13.1184 25.7335 12.9772 25.8884 12.9772 26.1982C12.9772 26.508 13.1184 26.6629 13.4009 26.6629H17.6378C17.9112 26.6629 18.0478 26.508 18.0478 26.1982C18.0478 25.8884 17.9112 25.7335 17.6378 25.7335H13.4009Z" fill="#EEEEEE"/>
</svg>
