<svg width="32" height="32" viewBox="0 0 32 32" fill="none" xmlns="http://www.w3.org/2000/svg">
<path d="M9.02733 27.5649C9.02733 27.0456 9.20501 26.6036 9.56036 26.2392C9.92483 25.8747 10.3622 25.6925 10.8724 25.6925V23.984H10.1891C9.57859 24.0661 8.98178 23.9112 8.39863 23.5194C7.8246 23.1184 7.4328 22.5216 7.22323 21.7289L4.8451 10.5763C5.2369 10.5581 5.61048 10.4396 5.96583 10.221L8.05695 15.5786C8.10251 16.1891 8.39863 16.4761 8.94533 16.4396C9.51025 16.4123 9.76082 16.0934 9.69704 15.4829L9.91572 9.66059C10.1162 9.69704 10.2984 9.71526 10.4624 9.71526C10.836 9.71526 11.2141 9.60137 11.5968 9.37358L12.4442 15.2916C12.4989 16.0296 12.8223 16.3986 13.4146 16.3986C14.0068 16.3986 14.3121 16.0752 14.3303 15.4282L15.1367 8.5672C15.3918 8.76765 15.697 8.86788 16.0524 8.86788C16.4715 8.86788 16.8223 8.75399 17.1048 8.52619L17.8838 15.4282C17.8929 16.0752 18.2027 16.3986 18.8132 16.3986C19.3964 16.3986 19.7153 16.0296 19.7699 15.2916L20.6856 9.44191C20.9954 9.62414 21.3189 9.71526 21.656 9.71526C21.7836 9.71526 22.0114 9.68793 22.3394 9.63326L22.5307 15.4829C22.4579 16.0934 22.7084 16.4123 23.2825 16.4396C23.82 16.4761 24.1162 16.1891 24.1708 15.5786L26.303 10.139C26.6583 10.4032 27.0501 10.5535 27.4784 10.59L25.0045 21.7289C24.7859 22.5216 24.3713 23.1184 23.7608 23.5194C23.1594 23.9112 22.5535 24.0661 21.943 23.984H21.1777V25.6925C21.6788 25.6925 22.1116 25.8747 22.4761 26.2392C22.8405 26.6036 23.0228 27.0456 23.0228 27.5649V28.959H9.02733V27.5649ZM4.91344 10.4533C4.38497 10.4533 3.93394 10.2665 3.56036 9.89294C3.18679 9.51936 3 9.07289 3 8.55353C3 8.03417 3.18679 7.5877 3.56036 7.21412C3.93394 6.84055 4.38497 6.65376 4.91344 6.65376C5.4328 6.65376 5.87927 6.84055 6.25285 7.21412C6.62642 7.5877 6.81321 8.03417 6.81321 8.55353C6.81321 9.07289 6.62642 9.51936 6.25285 9.89294C5.87927 10.2665 5.4328 10.4533 4.91344 10.4533ZM10.4624 9.64692C9.93394 9.64692 9.48291 9.46014 9.10934 9.08656C8.73576 8.71298 8.54897 8.26196 8.54897 7.73348C8.54897 7.21412 8.73576 6.76765 9.10934 6.39408C9.48291 6.0205 9.93394 5.83371 10.4624 5.83371C10.9818 5.83371 11.4282 6.0205 11.8018 6.39408C12.1754 6.76765 12.3622 7.21412 12.3622 7.73348C12.3622 8.26196 12.1754 8.71298 11.8018 9.08656C11.4282 9.46014 10.9818 9.64692 10.4624 9.64692ZM21.656 9.67426C21.1276 9.67426 20.6765 9.48747 20.303 9.11389C19.9385 8.74032 19.7563 8.28929 19.7563 7.76082C19.7563 7.24146 19.9385 6.79499 20.303 6.42141C20.6765 6.04784 21.1276 5.86105 21.656 5.86105C22.1754 5.86105 22.6219 6.04784 22.9954 6.42141C23.369 6.79499 23.5558 7.24146 23.5558 7.76082C23.5558 8.28929 23.369 8.74032 22.9954 9.11389C22.6219 9.48747 22.1754 9.67426 21.656 9.67426ZM16.1071 8.79954C15.5786 8.79954 15.1276 8.61276 14.754 8.23918C14.3895 7.8656 14.2073 7.41913 14.2073 6.89977C14.2073 6.38041 14.3895 5.93394 14.754 5.56036C15.1276 5.18679 15.5786 5 16.1071 5C16.6264 5 17.0729 5.18679 17.4465 5.56036C17.82 5.93394 18.0068 6.38041 18.0068 6.89977C18.0068 7.41913 17.82 7.8656 17.4465 8.23918C17.0729 8.61276 16.6264 8.79954 16.1071 8.79954ZM27.533 10.549C27.0045 10.549 26.5535 10.3667 26.1799 10.0023C25.8155 9.6287 25.6333 9.17768 25.6333 8.6492C25.6333 8.12984 25.8155 7.68337 26.1799 7.30979C26.5535 6.93622 27.0045 6.74943 27.533 6.74943C28.0524 6.74943 28.4989 6.93622 28.8724 7.30979C29.246 7.68337 29.4328 8.12984 29.4328 8.6492C29.4328 9.17768 29.246 9.6287 28.8724 10.0023C28.4989 10.3667 28.0524 10.549 27.533 10.549ZM11.9795 25.6925C11.6333 25.6925 11.4601 25.8474 11.4601 26.1572C11.4601 26.467 11.6333 26.6219 11.9795 26.6219H20.1389C20.4852 26.6219 20.6583 26.467 20.6583 26.1572C20.6583 25.8474 20.4852 25.6925 20.1389 25.6925H11.9795ZM11.9795 23.1913C11.6333 23.1913 11.4601 23.3462 11.4601 23.656C11.4601 23.9658 11.6333 24.1207 11.9795 24.1207H20.1389C20.4852 24.1207 20.6583 23.9658 20.6583 23.656C20.6583 23.3462 20.4852 23.1913 20.1389 23.1913H11.9795ZM8.60364 18.6674C8.29385 18.6674 8.13895 18.836 8.13895 19.1731C8.13895 19.5194 8.29385 19.6925 8.60364 19.6925H23.5148C23.8246 19.6925 23.9795 19.5194 23.9795 19.1731C23.9795 18.836 23.8246 18.6674 23.5148 18.6674H8.60364Z" fill="black"/>
<path d="M11.9795 25.6925C11.6332 25.6925 11.4601 25.8474 11.4601 26.1572C11.4601 26.467 11.6332 26.6219 11.9795 26.6219H20.1389C20.4852 26.6219 20.6583 26.467 20.6583 26.1572C20.6583 25.8474 20.4852 25.6925 20.1389 25.6925H11.9795ZM11.9795 23.1913C11.6332 23.1913 11.4601 23.3462 11.4601 23.656C11.4601 23.9658 11.6332 24.1207 11.9795 24.1207H20.1389C20.4852 24.1207 20.6583 23.9658 20.6583 23.656C20.6583 23.3462 20.4852 23.1913 20.1389 23.1913H11.9795ZM8.60361 18.6674C8.29381 18.6674 8.13892 18.836 8.13892 19.1731C8.13892 19.5194 8.29381 19.6925 8.60361 19.6925H23.5148C23.8246 19.6925 23.9795 19.5194 23.9795 19.1731C23.9795 18.836 23.8246 18.6674 23.5148 18.6674H8.60361Z" fill="#EEEEEE"/>
</svg>
