<svg width="180" height="180" viewBox="0 0 180 180" fill="none" xmlns="http://www.w3.org/2000/svg">
<path d="M84.0521 73.5289L61.3434 118.219L73.152 129.119L50.625 156.551V170.176H134.193V156.551L111.302 129.119L123.293 118.219L100.766 73.5289C104.156 72.3178 106.942 70.1376 109.122 66.9887C111.06 63.7189 112.029 60.4485 112.029 57.1787C112.029 52.2129 110.152 48.0345 106.397 44.6434C102.764 41.1311 98.1011 39.375 92.4086 39.375C86.5952 39.375 81.8719 41.1311 78.2387 44.6434C74.3631 48.0345 72.4252 52.2129 72.4252 57.1787C72.4252 60.5694 73.5154 63.8398 75.6951 66.9887C77.8753 70.0166 80.6608 72.1963 84.0521 73.5289Z" fill="#470D21"/>
<path d="M105.852 125.849H78.9655L79.3288 131.663H105.671L105.852 125.849Z" fill="#E6176A"/>
</svg>
