<svg width="180" height="180" viewBox="0 0 180 180" fill="none" xmlns="http://www.w3.org/2000/svg">
<path d="M114.411 34.8535C116.47 33.4001 117.499 31.644 117.499 29.5851C117.499 27.6473 116.712 26.0122 115.138 24.68C113.684 23.2267 111.928 22.5 109.869 22.5C107.689 22.5 105.812 23.2267 104.237 24.68C102.784 26.0122 102.057 27.6473 102.057 29.5851C102.057 30.6751 102.421 31.7651 103.147 32.8551C103.995 33.824 104.903 34.6112 105.873 35.2168V105.341H80.2569V34.8535C82.3163 33.4001 83.3456 31.644 83.3456 29.5851C83.3456 27.6473 82.6189 26.0122 81.1654 24.68C79.7124 23.2267 77.8956 22.5 75.7153 22.5C73.5356 22.5 71.7188 23.2267 70.2653 24.68C68.8123 26.0122 68.0856 27.6473 68.0856 29.5851C68.0856 32.0073 69.2966 33.7634 71.7188 34.8535V105.159H45.9218V49.9319C48.1018 48.3575 49.1919 46.4803 49.1919 44.3002C49.1919 42.4835 48.4046 40.9696 46.8302 39.7585C45.3768 38.4263 43.5601 37.7602 41.38 37.7602C39.3211 37.7602 37.5045 38.4263 35.93 39.7585C34.4766 40.9696 33.75 42.4835 33.75 44.3002C33.75 46.6014 34.9611 48.4786 37.3834 49.9319V106.794L56.6404 135.498V167.835H129.308V135.498L148.565 106.794V49.9319C150.744 48.3575 151.834 46.4803 151.834 44.3002C151.834 42.4835 151.048 40.9696 149.473 39.7585C148.02 38.4263 146.203 37.7602 144.023 37.7602C141.964 37.7602 140.147 38.4263 138.573 39.7585C137.12 40.9696 136.393 42.4835 136.393 44.3002C136.393 46.4803 137.604 48.3575 140.026 49.9319V105.159H114.411V34.8535ZM65.1786 160.205V137.86H120.769V160.205H65.1786ZM135.484 111.518L122.95 130.411H63.1806L50.2818 111.518H135.484Z" fill="#470D21"/>
<path d="M65.1791 160.205V137.859H120.769V160.205H65.1791ZM135.485 111.517L122.95 130.411H63.1805L50.282 111.517H135.485Z" fill="#F9E4D4"/>
</svg>
