<svg width="512" height="512" viewBox="0 0 512 512" fill="none" xmlns="http://www.w3.org/2000/svg">
<path d="M295 408.707C350.544 393.863 391 348.134 391 294.022C391 215.913 331.178 118.698 284.692 58.1924C270.153 39.2692 241.847 39.2692 227.308 58.1924C180.822 118.698 121 215.913 121 294.022C121 347.482 160.487 392.761 215 408.157V419.051C173.423 423.102 143.799 433.132 143.016 444.917H143V463.6C143 479.209 193.592 491.862 256 491.862C318.408 491.862 369 479.209 369 463.6V444.917H368.984C368.189 432.944 337.624 422.782 295 418.862V408.707Z" fill="#00173C"/>
<path d="M341.825 283.347C340.628 296.194 324.285 284.6 324.285 271.7C324.285 213.171 299.69 148.017 277 100.972C306.896 146.325 342.285 213.512 342.285 273.428C342.285 276.776 342.129 280.086 341.825 283.347Z" fill="#FF9CAE"/>
<path d="M164 458.376C164 460.436 165.316 462.281 167.324 462.916C188.02 469.46 220.049 473.659 256 473.659C291.35 473.659 322.909 469.599 343.63 463.242C345.661 462.619 347 460.762 347 458.684V448.455C347 447.444 345.783 446.901 345 447.562C336.209 455.357 299.478 461.204 255.5 461.204C211.522 461.204 174.791 455.357 166 447.562C165.296 446.8 164 447.286 164 448.312V458.376Z" fill="#FF9CAE"/>
<path d="M255 438.211C277.091 438.211 295 436.71 295 434.858V445.396C295 447.248 277.091 448.75 255 448.75C232.909 448.75 215 447.248 215 445.396V434.858C215 436.71 232.909 438.211 255 438.211Z" fill="#FF9CAE"/>
<path fill-rule="evenodd" clip-rule="evenodd" d="M233.225 205.964L223.783 171.918C221.265 171.08 220.285 179.949 220.111 184.489C220.46 186.759 220.845 191.298 219.586 191.298C218.327 191.298 218.362 196.885 218.537 199.679C216.019 202.193 213.291 207.012 212.242 209.107C208.465 209.526 199.478 212.773 195.456 214.345C195.456 215.371 194.337 216.175 193.122 217.046C192.477 217.509 191.805 217.99 191.26 218.535L186.014 223.773C184.379 222.467 183.151 225.64 182.204 228.088L182.098 228.362C181.574 229.712 181.139 230.767 180.768 230.582C179.929 230.163 174.474 239.836 171.851 244.725C172.271 245.563 168.179 258.343 166.081 264.629C161.36 266.375 151.813 269.867 151.393 269.867C151.242 269.867 150.702 269.996 149.984 270.169C148.201 270.597 145.321 271.288 144.574 270.914C143.525 270.391 143 273.533 143 275.628C143 277.042 149.211 277.264 153.573 277.419C155.674 277.494 157.347 277.553 157.688 277.724C158.527 278.143 159.436 276.501 159.786 275.628C160.311 276.327 161.465 277.619 161.884 277.2C162.304 276.781 165.906 277.025 167.654 277.2C167.654 278.597 167.969 281.495 169.228 281.914C168.878 282.263 168.389 283.8 169.228 287.152C170.277 291.342 172.375 295.009 172.375 295.533C172.375 295.952 175.873 299.897 177.621 301.818L178.67 302.342V303.389L183.718 307.779C184.66 308.674 185.161 309.151 184.965 309.151C184.126 309.151 184.615 314.04 184.965 316.484C184.126 316.484 183.566 319.627 183.391 321.198C181.293 323.713 182.517 328.182 183.391 330.103C186.748 330.941 187.938 329.404 188.112 328.531C188.637 327.484 189.686 325.074 189.686 323.817C189.686 322.56 190.735 320.849 191.26 320.151C191.609 318.23 192.519 314.494 193.358 314.913C193.358 314.04 193.568 312.399 194.407 312.818C195.106 313.341 196.715 314.389 197.554 314.389C198.394 314.389 201.052 316.833 202.275 318.056C203.325 318.579 205.947 319.522 208.046 319.103C209.445 319.627 212.452 320.675 213.291 320.675C214.131 320.675 215.04 321.373 215.39 321.722C217.663 321.897 222.419 322.246 223.258 322.246C224.307 322.246 231.126 323.817 232.7 322.246C234.274 320.675 239.519 323.293 239.519 321.722C244.555 320.884 252.808 316.135 256.305 313.865C257.704 313.691 260.187 313.551 258.928 314.389C257.669 315.227 260.852 316.833 262.6 317.532C262.181 320.465 265.922 326.087 267.846 328.531C270.818 330.452 276.134 332.826 273.616 326.96C271.098 321.094 270.119 310.199 269.944 305.485C268.265 305.485 270.294 300.945 271.518 298.675C273.616 297.453 277.603 294.485 276.763 292.39C275.924 290.295 277.463 288.723 278.337 288.199C277.987 286.628 277.498 283.695 278.337 284.533C279.176 285.371 280.086 281.041 280.435 278.771C278.757 277.933 280.086 273.882 280.96 271.962C283.058 272.8 286.73 270.914 288.304 269.867C288.723 267.772 298.62 265.851 303.516 265.153L304.565 260.438L281.484 258.867C281.484 255.934 280.086 253.105 279.386 252.058C282.743 249.544 279.036 242.28 276.763 238.963C277.603 235.611 269.419 227.09 265.223 223.249C263.125 219.897 259.453 216.265 257.879 214.869C255.256 214.694 249.171 213.402 245.814 209.631C242.457 205.86 236.022 205.615 233.225 205.964ZM231.126 240.534C229.448 240.115 225.531 227.09 223.783 220.63C223.783 220.847 222.899 222.93 221.851 225.4L221.85 225.402C220.866 227.721 219.739 230.379 219.061 232.154C220.211 234.067 218.841 238.497 218.019 241.154C217.716 242.133 217.488 242.871 217.488 243.153C217.488 243.425 216.853 244.718 215.985 246.485C213.508 251.53 209.134 260.438 212.242 260.438C215.599 260.438 222.384 261.835 225.356 262.534C230.812 262.115 237.071 259.915 239.519 258.867C237.421 252.931 232.805 240.954 231.126 240.534ZM263.649 271.438C261.551 272.695 258.578 272.311 257.355 271.962C258.613 274.057 257.879 277.724 257.355 279.295C259.033 281.39 259.103 284.708 258.928 286.104C259.977 286.628 262.18 287.885 262.6 288.723C263.02 289.561 263.824 288.025 264.174 287.152C263.754 286.314 263.999 284.358 264.174 283.485C266.272 280.971 267.496 274.406 267.846 271.438C267.321 270.914 265.747 270.181 263.649 271.438ZM194.932 235.297C196.61 233.201 205.423 227.789 209.619 225.345C210.039 228.278 207.696 233.551 206.472 235.82C206.122 237.916 205.108 242.211 203.849 242.63C202.59 243.049 202.625 246.995 202.8 248.915C200.282 252.267 199.653 257.994 199.653 260.438C199.233 260.857 194.232 259.915 191.784 259.391C190.735 259.915 180.244 262.534 181.818 259.915C183.391 257.296 183.916 255.201 183.391 255.201C182.972 255.201 184.615 251.709 185.49 249.963C184.65 249.125 186.189 247.518 187.063 246.82C185.804 244.725 189.336 241.058 191.26 239.487C191.784 238.963 193.253 237.392 194.932 235.297ZM181.818 275.628C183.916 275.454 188.322 275 189.161 274.581C190.211 274.756 192.728 275 194.407 274.581C193.008 276.501 190.315 280.657 190.735 281.914C189.511 284.009 187.378 288.514 188.637 289.771C188.127 290.96 187.319 293.403 188.047 293.922C186.281 292.86 182.977 290.709 183.391 290.295C183.811 289.876 182.867 285.93 182.342 284.009C182.167 282.612 181.922 279.714 182.342 279.295C181.818 278.247 180.978 276.047 181.818 275.628ZM239.519 224.297C243.541 226.916 251.689 232.154 252.109 232.154C252.633 232.154 263.649 242.106 266.272 250.487C267.321 251.01 269.419 253.42 269.419 258.867C269.044 258.867 268.534 258.906 267.983 258.949C266.737 259.045 265.28 259.158 264.698 258.867C263.859 258.448 255.956 259.391 252.109 259.915C251.06 256.248 248.227 248.077 245.29 244.725C245.639 244.201 245.814 242.315 243.716 238.963C241.093 234.773 236.897 225.868 239.519 224.297ZM209.095 273.009C211.893 272.835 217.698 272.8 218.537 274.057C219.936 273.359 223.258 272.381 225.356 274.057C227.455 275.733 237.771 274.057 242.667 273.009C243.017 275.105 243.926 279.19 244.765 278.771C244.241 279.295 244.345 282.438 248.962 290.818C249.136 293.437 249.906 298.675 251.584 298.675C253.263 298.675 251.934 300.77 251.06 301.818C250.011 303.04 247.073 305.694 243.716 306.532C239.519 307.58 233.749 309.151 231.651 310.199C229.972 311.037 222.209 309.85 218.537 309.151L218.012 310.199C215.914 308.453 211.193 305.275 209.095 306.532C207.171 304.786 203.115 301.609 202.276 302.866C201.226 304.437 199.128 298.152 200.177 298.675C201.017 299.094 201.576 291.866 201.751 288.199C203.849 284.358 208.046 276.571 208.046 276.152C208.046 276.071 208.033 275.95 208.017 275.804C207.933 275.013 207.767 273.451 209.095 273.009Z" fill="#FF385C"/>
</svg>
