<svg width="256" height="256" viewBox="0 0 256 256" fill="none" xmlns="http://www.w3.org/2000/svg">
<path fill-rule="evenodd" clip-rule="evenodd" d="M128.443 10.1611C114.896 10.1616 103.861 21.3231 103.861 34.9333C103.861 39.5882 105.184 44.1077 107.601 48.0111C102.781 51.7423 97.8437 55.5458 94.5065 58.6231C93.7034 59.3635 93.2235 60.3896 93.1706 61.4806C93.1177 62.5716 93.4961 63.6401 94.2237 64.4548L94.6529 64.937L97.6313 68.2719L86.2227 79.1483L82.0037 74.3774C81.2607 73.5645 80.2256 73.0797 79.1254 73.0285C78.0253 72.9773 76.9499 73.3644 76.1346 74.1048C48.0827 99.7597 29.1399 143.365 36.1094 177.922C36.2998 178.864 36.8098 179.711 37.5536 180.319C38.2973 180.927 39.2288 181.26 40.1896 181.26H48.9824C48.9824 181.309 48.9824 181.322 48.9824 181.356H207.057C207.057 181.307 207.057 181.294 207.057 181.26H216.625C217.641 181.26 218.622 180.887 219.383 180.213C220.144 179.54 220.633 178.611 220.756 177.602C224.695 145.304 209.627 101.924 148.866 48.598C151.526 44.5649 153.005 39.8291 153.009 34.9309C153.009 21.3212 141.975 10.1626 128.427 10.1611H128.443ZM42.4 195.122C41.357 195.195 40.3795 195.658 39.6622 196.419C38.9449 197.179 38.5403 198.182 38.5287 199.227C38.5287 208.562 38.7187 219.816 43.8335 229.343C48.9473 238.87 59.5107 245.84 76.9555 245.84H179.05C196.511 245.84 207.079 238.762 212.193 229.199C217.306 219.636 217.507 208.382 217.507 199.227C217.496 198.182 217.091 197.179 216.374 196.419C215.657 195.658 214.679 195.195 213.636 195.122H42.4Z" fill="#333333"/>
<path fill-rule="evenodd" clip-rule="evenodd" d="M203.556 170.754C203.556 232.274 169.778 230.248 128.699 230.248C87.62 230.248 52.4131 232.274 52.4131 170.754C52.4131 109.233 87.62 56.7764 128.699 56.7764C169.778 56.7764 203.556 109.233 203.556 170.754Z" fill="url(#paint0_linear_703_43)"/>
<path d="M179.019 241.682C211.884 241.682 213.316 217.318 213.316 199.23H42.6542C42.6542 217.688 44.0566 241.682 76.9203 241.682H179.019Z" fill="url(#paint1_linear_703_43)"/>
<path d="M128.409 14.3188C125.727 14.3184 123.071 14.8514 120.593 15.8868C118.115 16.9223 115.863 18.4404 113.967 20.3541C112.07 22.2677 110.565 24.5389 109.539 27.0394C108.512 29.5399 107.983 32.2207 107.983 34.9273C107.989 40.034 109.874 44.9566 113.272 48.7409C107.23 53.3709 101.196 58.0791 97.2907 61.6806L143.718 113.635L126.044 130.482L78.9075 77.1802C51.9344 101.848 33.6206 144.72 40.1521 177.102H216.61C220.408 145.959 206.051 103.151 143.239 49.0731C146.824 45.2511 148.825 40.1904 148.83 34.9273C148.83 29.4619 146.678 24.2199 142.849 20.3553C139.019 16.4906 133.825 14.3192 128.409 14.3188Z" fill="url(#paint2_radial_703_43)"/>
<defs>
<linearGradient id="paint0_linear_703_43" x1="58.2336" y1="-52.0254" x2="197.835" y2="-52.0254" gradientUnits="userSpaceOnUse">
<stop stop-color="#6FC21C"/>
<stop offset="0.190644" stop-color="#9ADF55"/>
<stop offset="0.246967" stop-color="#CAF99A"/>
<stop offset="0.298072" stop-color="#C4F790"/>
<stop offset="0.342166" stop-color="#A2E65D"/>
<stop offset="0.415058" stop-color="#9EE656"/>
<stop offset="0.492164" stop-color="#9EE656"/>
<stop offset="0.584086" stop-color="#8AD340"/>
<stop offset="0.67331" stop-color="#6FBA23"/>
<stop offset="0.728321" stop-color="#6BB521"/>
<stop offset="0.798373" stop-color="#85C347"/>
<stop offset="0.846643" stop-color="#B7E08E"/>
<stop offset="0.905813" stop-color="#DCF6C1"/>
<stop offset="0.960237" stop-color="#A0D16E"/>
<stop offset="1" stop-color="#87C24B"/>
</linearGradient>
<linearGradient id="paint1_linear_703_43" x1="138.095" y1="215.382" x2="138.095" y2="237.13" gradientUnits="userSpaceOnUse">
<stop stop-color="#F9F9F9"/>
<stop offset="1" stop-color="#999999"/>
</linearGradient>
<radialGradient id="paint2_radial_703_43" cx="0" cy="0" r="1" gradientUnits="userSpaceOnUse" gradientTransform="translate(124.194 179.225) rotate(0.735858) scale(194.933 164.01)">
<stop stop-color="white"/>
<stop offset="1" stop-color="#999999"/>
</radialGradient>
</defs>
</svg>
