<svg width="256" height="256" viewBox="0 0 256 256" fill="none" xmlns="http://www.w3.org/2000/svg">
<path fill-rule="evenodd" clip-rule="evenodd" d="M148.855 10.2196C147.864 10.0931 146.861 10.3274 146.028 10.8798L93.5457 45.7063C76.5348 57.1249 63.9327 65.9322 55.5539 72.2306C51.3666 75.3781 48.2483 77.8745 46.002 79.9423C44.8979 80.9586 43.9382 81.9117 43.0862 83.0397C43.087 83.0397 43.0854 83.0397 43.0862 83.0397C42.7107 83.5376 42.1229 84.3914 41.7205 85.4341C41.2962 86.5426 40.7359 89.0437 41.9741 91.5075C42.0451 91.64 42.1231 91.7691 42.2081 91.8932L42.5498 92.3844L42.4956 92.3165C42.4725 92.2892 42.4502 92.2611 42.4278 92.2332L42.3742 92.1653C42.3138 92.0765 42.2567 91.9852 42.2033 91.892L42.1497 91.8385C43.2095 93.6936 44.775 95.7017 47.1778 98.8668C49.5972 102.052 52.6942 106.026 55.97 110.122C61.2969 116.985 65.192 121.539 68.8282 124.399C69.5285 124.95 70.4541 125.782 71.9381 126.468C73.4231 127.154 75.5047 127.47 77.4823 127.045C80.4103 126.413 82.0388 124.767 83.0717 122.479C83.2473 122.079 83.2232 121.807 83.3354 121.43C83.589 121.235 83.6474 121.166 83.998 120.931C85.5469 119.891 88.0192 118.487 90.6536 117.221C90.6733 117.204 90.6926 117.185 90.712 117.167C100.151 112.448 107.501 112.714 115.215 117.445L113.471 119.187C78.5851 125.219 49.9528 147.724 43.2189 176.322C43.0754 176.933 43.0722 177.568 43.2088 178.18C43.3454 178.792 43.6188 179.366 44.0083 179.858C44.3978 180.349 44.8932 180.747 45.4579 181.02C46.0226 181.293 46.6421 181.435 47.2694 181.435H50.9735C50.9754 181.435 50.9769 181.484 50.9735 181.494H211.214C211.215 181.494 211.217 181.445 211.219 181.435H214.888C215.513 181.435 216.129 181.295 216.692 181.024C217.255 180.753 217.749 180.359 218.139 179.871C218.528 179.383 218.803 178.814 218.943 178.205C219.082 177.596 219.084 176.964 218.946 176.355C216.836 167.046 212.363 158.377 206.201 150.677C206.479 150.11 206.752 149.573 207.02 148.988C229.562 101.115 208.974 40.8738 161.456 16.5609H161.402L150.243 10.6637C149.808 10.4346 149.336 10.2847 148.849 10.2202L148.855 10.2196ZM45.1281 195.258C44.258 195.494 43.4878 196.006 42.9338 196.717C42.3798 197.428 42.0714 198.3 42.0557 199.202C42.0557 208.536 42.2414 219.791 47.3581 229.318C52.4725 238.846 63.0389 245.815 80.4833 245.815H182.577C200.037 245.815 210.604 238.737 215.718 229.174C220.832 219.611 221.038 208.356 221.038 199.202C221.037 198.328 220.761 197.478 220.25 196.77C219.738 196.062 219.017 195.533 218.188 195.258H45.1281Z" fill="#808080"/>
<path fill-rule="evenodd" clip-rule="evenodd" d="M54.5806 170.126C54.633 232.294 90.2719 230.246 131.85 230.246C173.427 230.246 207.622 232.294 207.674 170.126H54.5806Z" fill="url(#paint0_linear_703_72)"/>
<path d="M182.614 241.679C215.478 241.679 216.911 217.316 216.911 199.228H46.2514C46.2514 217.685 47.6537 241.679 80.5171 241.679H182.614Z" fill="url(#paint1_linear_703_72)"/>
<path fill-rule="evenodd" clip-rule="evenodd" d="M148.354 14.3215L95.8729 49.1483H95.8646C78.8859 60.545 66.3198 69.3289 58.0552 75.542C53.9228 78.6486 50.8757 81.0992 48.8202 82.9917C47.7927 83.9379 47.0149 84.7239 46.4065 85.5301C46.1021 85.933 45.8299 86.3319 45.602 86.9225C45.3739 87.5132 45.1231 88.5264 45.6833 89.645L45.7157 89.7131L45.7563 89.7808C46.5258 91.1276 48.0845 93.1961 50.4835 96.3559C52.8756 99.5064 55.959 103.46 59.2146 107.53C64.495 114.336 68.3578 118.747 71.3942 121.135C72.9126 122.329 74.2233 123.493 76.6036 122.982C77.7938 122.727 78.8584 121.697 79.2774 120.769C79.5611 120.141 79.6612 119.554 79.7109 118.971L79.7325 118.948C80.0999 118.605 80.8015 118.059 81.6965 117.458C83.4865 116.256 86.0731 114.791 88.8699 113.449L88.8838 113.435L88.9028 113.421C99.8256 107.96 109.61 108.4 118.851 114.632L118.899 114.661L121.982 116.56L115.616 122.926C81.4399 128.351 53.6382 150.382 47.317 177.228H214.938C212.792 167.758 208.104 158.879 201.388 151.127C202.039 149.803 202.708 148.478 203.306 147.169C224.867 101.389 205.059 43.4237 159.559 20.1797L159.542 20.1662L148.354 14.3215Z" fill="url(#paint2_radial_703_72)"/>
<defs>
<linearGradient id="paint0_linear_703_72" x1="60.4747" y1="215.946" x2="201.876" y2="215.946" gradientUnits="userSpaceOnUse">
<stop stop-color="#8B1CC2"/>
<stop offset="0.190644" stop-color="#A047D8"/>
<stop offset="0.246967" stop-color="#C799F9"/>
<stop offset="0.298072" stop-color="#C697F9"/>
<stop offset="0.342166" stop-color="#B667EA"/>
<stop offset="0.415058" stop-color="#B656E6"/>
<stop offset="0.492164" stop-color="#B656E6"/>
<stop offset="0.584086" stop-color="#A442D5"/>
<stop offset="0.67331" stop-color="#8C25BC"/>
<stop offset="0.728321" stop-color="#831BB3"/>
<stop offset="0.798373" stop-color="#8A2BB9"/>
<stop offset="0.846643" stop-color="#B583DD"/>
<stop offset="0.905813" stop-color="#D2C1F6"/>
<stop offset="0.960237" stop-color="#9C50C8"/>
<stop offset="1" stop-color="#821BB2"/>
</linearGradient>
<linearGradient id="paint1_linear_703_72" x1="-376.39" y1="205.84" x2="-376.39" y2="275.614" gradientUnits="userSpaceOnUse">
<stop stop-color="#0D0D0D"/>
<stop offset="1" stop-color="#4D4D4D"/>
</linearGradient>
<radialGradient id="paint2_radial_703_72" cx="0" cy="0" r="1" gradientUnits="userSpaceOnUse" gradientTransform="translate(130.001 180.364) rotate(0.0437135) scale(277.112 171.412)">
<stop stop-color="#0D0D0D"/>
<stop offset="1" stop-color="#333333"/>
</radialGradient>
</defs>
</svg>
