<svg width="256" height="256" viewBox="0 0 256 256" fill="none" xmlns="http://www.w3.org/2000/svg">
<path fill-rule="evenodd" clip-rule="evenodd" d="M98.4999 8.40192C83.8978 8.40192 71.7084 19.8069 71.6889 34.1212C71.6889 43.702 77.4141 52.0903 85.8978 56.51L85.3394 68.0252C80.9395 72.1519 76.8939 76.9419 73.1081 82.1471L62.2127 65.2035C64.2307 61.514 65.5714 57.4978 65.5607 53.2786C65.5583 38.9738 53.3714 27.5818 38.7854 27.563C24.1838 27.563 11.9919 38.9643 11.9719 53.2786C11.9744 64.8878 20.0961 74.7368 31.263 77.8958L46.4036 174.873C46.623 183.009 47.6272 189.86 49.0605 196.064H42.6704C41.5668 196.065 40.5081 196.51 39.7277 197.302C38.9474 198.094 38.5092 199.168 38.5091 200.288C38.5091 209.762 38.6996 221.184 43.8134 230.854C48.9277 240.524 59.4912 247.598 76.9359 247.598H179.035C196.495 247.598 207.063 240.414 212.177 230.708C217.29 221.002 217.491 209.579 217.491 200.288C217.491 199.168 217.054 198.094 216.273 197.302C215.493 196.51 214.434 196.065 213.33 196.064H206.109C207.315 190.638 208.216 184.734 208.527 177.841L224.026 78.6136C235.513 75.6952 243.999 65.7307 244.028 53.8671C244.028 39.5281 231.815 28.1006 217.188 28.1164C202.575 28.1164 190.38 39.5415 190.38 53.8671C190.38 57.7052 191.52 61.3687 193.216 64.7806L182.269 81.5549C178.391 76.1721 174.228 71.2432 169.675 67.0403L169.236 56.4109C177.589 51.9581 183.198 43.6356 183.218 34.1623C183.218 19.8356 171.022 8.41038 156.407 8.41038C141.804 8.41038 129.613 19.8154 129.593 34.1296C129.596 39.9748 131.78 45.5338 135.491 50.0352C133.088 49.6986 130.711 49.2207 128.249 49.2207C125.357 49.2207 122.508 49.5382 119.684 50.0049L119.631 49.7826C123.214 45.3199 125.312 39.8565 125.317 34.1296C125.317 19.8085 113.103 8.40192 98.4999 8.40192Z" fill="#333333"/>
<path fill-rule="evenodd" clip-rule="evenodd" d="M204.059 170.614C204.059 233.861 169.846 231.778 128.236 231.778C86.6267 231.778 50.9657 233.861 50.9657 170.614C50.9657 107.366 86.6267 53.4373 128.236 53.4373C169.846 53.4373 204.059 107.366 204.059 170.614Z" fill="url(#paint0_linear_703_12)"/>
<path d="M179.035 243.383C211.899 243.383 213.332 218.655 213.332 200.296H42.6699C42.6699 219.029 44.0717 243.383 76.9355 243.383H179.035Z" fill="url(#paint1_linear_703_12)"/>
<path d="M98.5049 12.6179C86.0066 12.6179 75.8699 22.2383 75.8533 34.1172C75.8533 42.9467 81.5421 50.8746 90.1818 54.1182L87.3767 112.05L57.4397 65.5041C60.0322 61.9061 61.4145 57.6439 61.4033 53.2831C61.4033 41.4151 51.2681 31.7984 38.782 31.7825C26.2838 31.7825 16.1476 41.4037 16.131 53.2831C16.1334 63.7623 24.0746 72.7179 34.9411 74.4949L51.3026 179.289H204.087L220.358 75.1294C231.525 73.6434 239.842 64.5768 239.869 53.8596C239.869 41.9578 229.709 32.3141 217.187 32.33C204.678 32.33 194.537 41.9692 194.537 53.8596C194.537 57.8535 195.732 61.7647 197.951 65.1573L167.373 112.021L164.965 54.0324C173.468 50.7309 179.031 42.8762 179.049 34.1463C179.049 22.2554 168.908 12.6179 156.398 12.6179C143.9 12.6179 133.763 22.2383 133.746 34.1172C133.75 39.714 136.046 45.0896 140.149 49.1043L127.375 112.021L115.18 48.6717C119.019 44.7025 121.152 39.5085 121.156 34.1172C121.156 22.2383 111.003 12.6179 98.5049 12.6179Z" fill="url(#paint2_radial_703_12)"/>
<defs>
<linearGradient id="paint0_linear_703_12" x1="56.8613" y1="-58.4185" x2="198.264" y2="-58.4185" gradientUnits="userSpaceOnUse">
<stop stop-color="#6FC21C"/>
<stop offset="0.190644" stop-color="#9ADF55"/>
<stop offset="0.246967" stop-color="#CAF99A"/>
<stop offset="0.298072" stop-color="#C4F790"/>
<stop offset="0.342166" stop-color="#A2E65D"/>
<stop offset="0.415058" stop-color="#9EE656"/>
<stop offset="0.492164" stop-color="#9EE656"/>
<stop offset="0.584086" stop-color="#8AD340"/>
<stop offset="0.67331" stop-color="#6FBA23"/>
<stop offset="0.728321" stop-color="#6BB521"/>
<stop offset="0.798373" stop-color="#85C347"/>
<stop offset="0.846643" stop-color="#B7E08E"/>
<stop offset="0.905813" stop-color="#DCF6C1"/>
<stop offset="0.960237" stop-color="#A0D16E"/>
<stop offset="1" stop-color="#87C24B"/>
</linearGradient>
<linearGradient id="paint1_linear_703_12" x1="138.11" y1="211.044" x2="138.11" y2="233.117" gradientUnits="userSpaceOnUse">
<stop stop-color="#F9F9F9"/>
<stop offset="1" stop-color="#999999"/>
</linearGradient>
<radialGradient id="paint2_radial_703_12" cx="0" cy="0" r="1" gradientUnits="userSpaceOnUse" gradientTransform="translate(126.023 173.604) scale(254.467 165.504)">
<stop stop-color="white"/>
<stop offset="1" stop-color="#999999"/>
</radialGradient>
</defs>
</svg>
