<svg width="700" height="700" viewBox="0 0 700 700" fill="none" xmlns="http://www.w3.org/2000/svg">
<path fill-rule="evenodd" clip-rule="evenodd" d="M354.594 168.677C363.009 154.476 385.05 129.407 407.776 116.369C435.958 142.857 474.385 204.545 493.394 263.825C508.209 310.025 511.282 330.785 512.053 380.14C512.825 429.496 486.868 478.114 470.936 496.099" fill="url(#paint0_linear_2_174)"/>
<path d="M354.594 168.677C363.009 154.476 385.05 129.407 407.776 116.369C435.958 142.857 474.385 204.545 493.394 263.825C508.209 310.025 511.282 330.785 512.053 380.14C512.825 429.496 486.868 478.114 470.936 496.099" stroke="black" stroke-width="12.4444" stroke-linecap="round" stroke-linejoin="round"/>
<path fill-rule="evenodd" clip-rule="evenodd" d="M455.365 534.378C460.062 492.791 226.604 495.861 236.15 536.716C243.863 553.74 237.78 575.633 237.78 575.633C237.78 575.633 291.663 567.987 351.634 568.94C411.604 569.893 452.193 574.648 452.193 574.648C452.193 574.648 450.668 546.634 455.365 534.378H455.365Z" fill="url(#paint1_linear_2_174)" stroke="black" stroke-width="12.4444" stroke-linecap="round" stroke-linejoin="round"/>
<path fill-rule="evenodd" clip-rule="evenodd" d="M232.893 530.665C215.167 524.377 202.263 499.215 191.08 483.166C173.23 457.55 162.706 404.277 173.16 344.54C183.614 284.802 240.428 169.369 298.605 118.165C369.509 169.369 415.234 246.78 451.321 349.93C470.632 405.13 480.218 465.538 462.491 528.869C421.132 520.335 281.075 512.24 232.893 530.665V530.665Z" fill="url(#paint2_linear_2_174)" stroke="black" stroke-width="12.4444" stroke-linecap="round" stroke-linejoin="round"/>
<path fill-rule="evenodd" clip-rule="evenodd" d="M288.112 107.893C297.818 91.4068 272.765 80.8889 285.87 69.3754C293.229 62.9098 305.819 62.2627 312.887 70.6494C323.079 82.7423 295.197 93.2322 308.915 107.732" fill="url(#paint3_linear_2_174)"/>
<path d="M288.112 107.893C297.818 91.4068 272.765 80.8889 285.87 69.3754C293.229 62.9098 305.819 62.2627 312.887 70.6494C323.079 82.7423 295.197 93.2322 308.915 107.732" stroke="black" stroke-width="12.4444" stroke-linecap="round" stroke-linejoin="round"/>
<path d="M354.962 554.049C347.548 552.047 340.883 555.571 338.164 553.318C334.828 550.554 335.023 539.054 337.232 536.134C339.12 533.637 363.389 533.326 365.771 535.626C367.992 537.766 365.707 551.699 363.65 555.224" stroke="black" stroke-width="12.4444" stroke-linecap="round" stroke-linejoin="round"/>
<path fill-rule="evenodd" clip-rule="evenodd" d="M312.132 271.105C303.244 272.514 298.82 282.259 299.933 290.524C299.78 297.589 302.874 306.693 297.063 312.23C289.2 314.845 280.692 311.568 272.68 310.884C266.085 310.282 258.131 307.788 252.268 312.035C247.78 317.351 253.022 325.386 258.806 327.177C270.436 332.236 284.244 329.597 295.434 335.587C299.297 339.151 298.506 345.357 299.688 350.097C303.326 378.332 303.133 407.356 311.67 434.705C313.905 440.709 317.395 449.041 324.868 449.094C330.637 447.12 329.908 439.457 330.216 434.51C329.516 403.499 320.91 373.271 319.545 342.319C319.391 339.272 319.664 335.449 323.605 335.125C337.575 331.104 353.898 335.576 366.6 327.08C371.817 324.253 376.171 313.706 367.719 312.326C352.819 310.133 337.759 316.556 322.948 313.76C318.363 312.137 318.764 305.79 318.232 301.802C317.364 292.406 320.22 282.405 316.653 273.437C315.758 271.874 313.961 270.878 312.132 271.104L312.132 271.105Z" fill="#57CC99" stroke="black" stroke-width="12.4444" stroke-linecap="round" stroke-linejoin="round"/>
<path fill-rule="evenodd" clip-rule="evenodd" d="M262.785 624.78C306.204 624.294 327.106 599.594 346.325 599.566C365.543 599.536 383.077 624.177 429.821 624.259C454.9 624.304 586.93 626.939 579.593 606.926C572.255 586.914 488.873 613.789 460.954 599.555C446.339 592.105 442.052 590.34 423.148 587.476C372.149 579.749 320.006 580.057 273.892 587.183C253.363 590.357 245.013 593.889 233.45 601.671C214.001 614.763 132.072 587.543 125.623 606.666C119.175 625.788 210.027 625.371 262.785 624.78V624.78Z" fill="url(#paint4_linear_2_174)" stroke="black" stroke-width="12.4444" stroke-linecap="round" stroke-linejoin="round"/>
<path fill-rule="evenodd" clip-rule="evenodd" d="M509.98 70.8991C493.968 71.0531 482.024 84.1937 475.383 97.5497C470.989 106.032 463.242 112.207 458.937 120.677C458.032 125.779 465.307 127.441 469.145 126.34C478.517 124.357 485.939 116.949 489.104 108.045C492.859 98.8773 501.338 91.665 511.389 91C521.259 89.2648 530.377 97.0231 532.365 106.458C535.238 116.349 533.937 128.007 525.972 135.188C513.539 148.229 494.681 154.065 484.215 169.191C426.779 282.536 369.43 395.953 312.765 509.688C292.65 550.94 271.394 591.726 253.774 634.107C252.404 639.396 248.289 645.259 250.493 650.757C253.969 653.458 258.348 649.281 261.358 647.452C273.745 636.144 280.613 620.17 288.823 605.768C323.415 538.653 355.834 470.432 389.503 402.845C426.06 329.037 462.621 255.205 499.965 181.806C510.53 166.169 530.582 160.93 542.428 146.487C549.971 138.207 554.797 127.246 553.583 115.889C552.806 96.9904 541.862 76.538 522.302 72.0417C518.289 71.0243 514.135 70.714 509.98 70.8991V70.8991Z" fill="#57CC99" stroke="black" stroke-width="12.4444" stroke-linecap="round" stroke-linejoin="round"/>
<path fill-rule="evenodd" clip-rule="evenodd" d="M396.454 104.865C406.16 88.3789 381.107 77.8618 394.212 66.3475C401.571 59.8819 414.16 59.2355 421.23 67.6223C431.421 79.7144 403.539 90.2051 417.258 104.704" fill="url(#paint5_linear_2_174)"/>
<path d="M396.454 104.865C406.16 88.3789 381.107 77.8618 394.212 66.3475C401.571 59.8819 414.16 59.2355 421.23 67.6223C431.421 79.7144 403.539 90.2051 417.258 104.704" stroke="black" stroke-width="12.4444" stroke-linecap="round" stroke-linejoin="round"/>
<defs>
<linearGradient id="paint0_linear_2_174" x1="576.817" y1="171.144" x2="436.54" y2="466.184" gradientUnits="userSpaceOnUse">
<stop stop-color="#38A3A5"/>
<stop offset="1" stop-color="#22577A"/>
</linearGradient>
<linearGradient id="paint1_linear_2_174" x1="165.122" y1="346.899" x2="657.828" y2="557.928" gradientUnits="userSpaceOnUse">
<stop stop-color="#38A3A5"/>
<stop offset="1" stop-color="#22577A"/>
</linearGradient>
<linearGradient id="paint2_linear_2_174" x1="165.122" y1="346.899" x2="657.828" y2="557.928" gradientUnits="userSpaceOnUse">
<stop stop-color="#38A3A5"/>
<stop offset="1" stop-color="#22577A"/>
</linearGradient>
<linearGradient id="paint3_linear_2_174" x1="265.345" y1="70.1252" x2="323.114" y2="99.9157" gradientUnits="userSpaceOnUse">
<stop stop-color="#38A3A5"/>
<stop offset="1" stop-color="#22577A"/>
</linearGradient>
<linearGradient id="paint4_linear_2_174" x1="121.409" y1="489.704" x2="625.941" y2="672.858" gradientUnits="userSpaceOnUse">
<stop stop-color="#38A3A5"/>
<stop offset="1" stop-color="#22577A"/>
</linearGradient>
<linearGradient id="paint5_linear_2_174" x1="373.687" y1="67.0981" x2="431.455" y2="96.8878" gradientUnits="userSpaceOnUse">
<stop stop-color="#38A3A5"/>
<stop offset="1" stop-color="#22577A"/>
</linearGradient>
</defs>
</svg>
