<svg width="700" height="700" viewBox="0 0 700 700" fill="none" xmlns="http://www.w3.org/2000/svg">
<path fill-rule="evenodd" clip-rule="evenodd" d="M205.282 641.581L166.1 512.305L503.475 513.33L464.96 645.304L205.282 641.581Z" fill="url(#paint0_linear_2_278)"/>
<path fill-rule="evenodd" clip-rule="evenodd" d="M492.11 557.107C397.065 523.142 271.683 522.944 179.137 557.026C188.925 580.771 191.518 629.358 191.518 629.358C269.855 607.445 403.038 608.111 480.762 632.615C480.762 632.615 482.559 580.732 492.11 557.107Z" fill="url(#paint1_linear_2_278)" stroke="black" stroke-width="12.4444" stroke-linecap="round" stroke-linejoin="round"/>
<path fill-rule="evenodd" clip-rule="evenodd" d="M167.303 542.823C262.075 501.845 410.421 501.196 506.085 543.142C515.517 461.448 545.246 360.601 601.505 288.265C558.846 304.958 496.91 411.826 460.902 431.966C432.666 372.65 488.548 218.696 510.274 186.088C473.797 208.036 396.604 343.989 373.798 407.587C340.925 334.13 348.619 196.746 347.833 139.17C323.103 193.267 290.652 317.571 287.331 405.414C224.181 358.076 201.896 230.204 185.053 179.543C175.779 252.497 191.963 379.566 202.648 430.942C161.588 403.258 113.64 342.337 73.8398 290.705C124.442 411.707 142.757 448.355 167.303 542.824V542.823ZM332.705 544.275C317.928 544.199 326.027 555.658 323.124 560.698C316.483 564.547 294.933 557.717 301.87 571.851C306.784 581.864 314.132 577.15 322.385 580.376C326.489 586.028 319.552 603.216 334.08 602.856C346.079 602.558 339.539 585.41 342.104 580.789C349.358 576.049 358.874 582.473 363.675 570.327C367.32 561.105 349.277 564.526 342.151 560.555C339.167 556.097 348.078 544.355 332.705 544.275V544.275ZM205.779 641.879C274.864 650.123 386.785 653.048 464.746 645.307C420.749 625.644 262.61 625.809 205.779 641.879Z" fill="url(#paint2_linear_2_278)" stroke="black" stroke-width="12.4444" stroke-linecap="round" stroke-linejoin="round"/>
<path fill-rule="evenodd" clip-rule="evenodd" d="M384.704 64.1807C378.046 64.3269 357.526 67.774 345.195 73.9247C341.454 83.3435 343.396 110.952 345.297 133.534C357.107 114.579 383.203 82.0027 384.704 64.1807Z" fill="url(#paint3_linear_2_278)" stroke="black" stroke-width="12.4444" stroke-linecap="round" stroke-linejoin="round"/>
<path fill-rule="evenodd" clip-rule="evenodd" d="M376.146 141.24C376.146 149.129 372.93 156.694 367.205 162.272C361.48 167.85 353.715 170.983 345.619 170.983C337.523 170.983 329.759 167.85 324.034 162.272C318.309 156.694 315.093 149.129 315.093 141.24C315.093 137.334 315.882 133.466 317.416 129.858C318.951 126.249 321.199 122.97 324.034 120.208C326.868 117.446 330.234 115.255 333.937 113.761C337.641 112.266 341.61 111.497 345.619 111.497C349.628 111.497 353.598 112.266 357.301 113.761C361.005 115.255 364.37 117.446 367.205 120.208C370.039 122.97 372.288 126.249 373.822 129.858C375.356 133.466 376.146 137.334 376.146 141.24V141.24Z" fill="url(#paint4_linear_2_278)" stroke="black" stroke-width="12.4445" stroke-linecap="round" stroke-linejoin="round"/>
<path fill-rule="evenodd" clip-rule="evenodd" d="M571.59 160.226C567.921 155.829 570.26 147.782 540.477 131.406L502.478 178.873C523.796 172.223 557.516 162.181 571.591 160.226H571.59Z" fill="url(#paint5_linear_2_278)" stroke="black" stroke-width="12.4444" stroke-linecap="round" stroke-linejoin="round"/>
<path fill-rule="evenodd" clip-rule="evenodd" d="M537.923 187.907C537.923 195.795 534.707 203.361 528.982 208.938C523.257 214.516 515.493 217.65 507.397 217.65C499.3 217.65 491.536 214.516 485.811 208.938C480.086 203.361 476.87 195.795 476.87 187.907C476.87 184.001 477.66 180.133 479.194 176.524C480.728 172.916 482.976 169.637 485.811 166.875C488.646 164.113 492.011 161.922 495.715 160.427C499.418 158.933 503.388 158.163 507.397 158.163C511.405 158.163 515.375 158.933 519.079 160.427C522.782 161.922 526.147 164.113 528.982 166.875C531.817 169.637 534.065 172.916 535.599 176.524C537.133 180.133 537.923 184.001 537.923 187.907V187.907Z" fill="url(#paint6_linear_2_278)" stroke="black" stroke-width="12.4445" stroke-linecap="round" stroke-linejoin="round"/>
<path fill-rule="evenodd" clip-rule="evenodd" d="M673.214 273.693C675.294 262.939 663.748 259.485 652.672 244.663C637.244 250.98 619.37 258.515 606.778 276.18C638.564 269.625 653.013 279.337 673.214 273.693Z" fill="url(#paint7_linear_2_278)" stroke="black" stroke-width="12.4444" stroke-linecap="round" stroke-linejoin="round"/>
<path fill-rule="evenodd" clip-rule="evenodd" d="M633.29 285.718C633.29 293.606 630.074 301.172 624.349 306.749C618.624 312.327 610.86 315.461 602.764 315.461C594.668 315.461 586.903 312.327 581.178 306.749C575.453 301.172 572.237 293.606 572.237 285.718C572.237 281.812 573.027 277.944 574.561 274.335C576.095 270.727 578.344 267.448 581.178 264.686C584.013 261.924 587.378 259.733 591.082 258.238C594.785 256.744 598.755 255.974 602.764 255.974C606.773 255.974 610.742 256.744 614.446 258.238C618.149 259.733 621.515 261.924 624.349 264.686C627.184 267.448 629.432 270.727 630.967 274.335C632.501 277.944 633.29 281.812 633.29 285.718V285.718Z" fill="url(#paint8_linear_2_278)" stroke="black" stroke-width="12.4445" stroke-linecap="round" stroke-linejoin="round"/>
<path fill-rule="evenodd" clip-rule="evenodd" d="M191.815 120.181C183.602 110.994 174.01 112.312 152.345 109.13C153.101 135.361 168.759 142.679 178.074 163.088C189.885 144.134 187.981 143.447 191.815 120.181V120.181Z" fill="url(#paint9_linear_2_278)" stroke="black" stroke-width="12.4444" stroke-linecap="round" stroke-linejoin="round"/>
<path fill-rule="evenodd" clip-rule="evenodd" d="M212.034 181.685C212.034 189.573 208.818 197.138 203.093 202.716C197.369 208.294 189.604 211.428 181.508 211.428C173.412 211.428 165.647 208.294 159.922 202.716C154.198 197.138 150.981 189.573 150.981 181.685C150.981 177.779 151.771 173.911 153.305 170.302C154.839 166.694 157.088 163.415 159.922 160.653C162.757 157.891 166.122 155.7 169.826 154.205C173.53 152.71 177.499 151.941 181.508 151.941C185.517 151.941 189.486 152.71 193.19 154.205C196.894 155.7 200.259 157.891 203.093 160.653C205.928 163.415 208.177 166.694 209.711 170.302C211.245 173.911 212.034 177.779 212.034 181.685V181.685Z" fill="url(#paint10_linear_2_278)" stroke="black" stroke-width="12.4445" stroke-linecap="round" stroke-linejoin="round"/>
<path fill-rule="evenodd" clip-rule="evenodd" d="M54.6491 225.386C44.1903 227.564 43.3052 248.962 40.0229 259.94C51.7339 272.847 63.6417 280.201 73.8718 300.166C84.8113 280.696 67.0593 240.327 54.6491 225.386V225.386Z" fill="url(#paint11_linear_2_278)" stroke="black" stroke-width="12.4444" stroke-linecap="round" stroke-linejoin="round"/>
<path fill-rule="evenodd" clip-rule="evenodd" d="M114.546 298.807C114.546 306.695 111.329 314.261 105.605 319.839C99.8798 325.417 92.1153 328.55 84.0192 328.55C75.923 328.55 68.1585 325.417 62.4337 319.839C56.7089 314.261 53.4927 306.695 53.4927 298.807C53.4927 294.901 54.2823 291.033 55.8164 287.425C57.3505 283.816 59.599 280.537 62.4337 277.775C65.2683 275.013 68.6335 272.822 72.3372 271.328C76.0408 269.833 80.0104 269.064 84.0192 269.064C88.028 269.064 91.9975 269.833 95.7011 271.328C99.4048 272.822 102.77 275.013 105.605 277.775C108.439 280.537 110.688 283.816 112.222 287.425C113.756 291.033 114.546 294.901 114.546 298.807V298.807Z" fill="url(#paint12_linear_2_278)" stroke="black" stroke-width="12.4445" stroke-linecap="round" stroke-linejoin="round"/>
<defs>
<linearGradient id="paint0_linear_2_278" x1="135.025" y1="295.976" x2="607.727" y2="530.605" gradientUnits="userSpaceOnUse">
<stop stop-color="#38A3A5"/>
<stop offset="1" stop-color="#22577A"/>
</linearGradient>
<linearGradient id="paint1_linear_2_278" x1="135.025" y1="295.976" x2="607.727" y2="530.606" gradientUnits="userSpaceOnUse">
<stop stop-color="#38A3A5"/>
<stop offset="1" stop-color="#22577A"/>
</linearGradient>
<linearGradient id="paint2_linear_2_278" x1="135.025" y1="295.976" x2="607.728" y2="530.605" gradientUnits="userSpaceOnUse">
<stop stop-color="#38A3A5"/>
<stop offset="1" stop-color="#22577A"/>
</linearGradient>
<linearGradient id="paint3_linear_2_278" x1="331.342" y1="80.5249" x2="381.76" y2="103.44" gradientUnits="userSpaceOnUse">
<stop stop-color="#38A3A5"/>
<stop offset="1" stop-color="#22577A"/>
</linearGradient>
<linearGradient id="paint4_linear_2_278" x1="308.871" y1="141.24" x2="412.183" y2="177.206" gradientUnits="userSpaceOnUse">
<stop stop-color="#38A3A5"/>
<stop offset="1" stop-color="#22577A"/>
</linearGradient>
<linearGradient id="paint5_linear_2_278" x1="521.004" y1="133.14" x2="568.646" y2="177.138" gradientUnits="userSpaceOnUse">
<stop stop-color="#38A3A5"/>
<stop offset="1" stop-color="#22577A"/>
</linearGradient>
<linearGradient id="paint6_linear_2_278" x1="470.648" y1="187.907" x2="568.775" y2="223.873" gradientUnits="userSpaceOnUse">
<stop stop-color="#38A3A5"/>
<stop offset="1" stop-color="#22577A"/>
</linearGradient>
<linearGradient id="paint7_linear_2_278" x1="626.221" y1="229.257" x2="669.598" y2="282.403" gradientUnits="userSpaceOnUse">
<stop stop-color="#38A3A5"/>
<stop offset="1" stop-color="#22577A"/>
</linearGradient>
<linearGradient id="paint8_linear_2_278" x1="566.015" y1="285.718" x2="671.92" y2="321.684" gradientUnits="userSpaceOnUse">
<stop stop-color="#38A3A5"/>
<stop offset="1" stop-color="#22577A"/>
</linearGradient>
<linearGradient id="paint9_linear_2_278" x1="146.123" y1="136.109" x2="198.038" y2="136.109" gradientUnits="userSpaceOnUse">
<stop stop-color="#38A3A5"/>
<stop offset="1" stop-color="#22577A"/>
</linearGradient>
<linearGradient id="paint10_linear_2_278" x1="144.76" y1="181.684" x2="261.035" y2="208.907" gradientUnits="userSpaceOnUse">
<stop stop-color="#38A3A5"/>
<stop offset="1" stop-color="#22577A"/>
</linearGradient>
<linearGradient id="paint11_linear_2_278" x1="33.8007" y1="262.776" x2="83.5108" y2="245.36" gradientUnits="userSpaceOnUse">
<stop stop-color="#38A3A5"/>
<stop offset="1" stop-color="#22577A"/>
</linearGradient>
<linearGradient id="paint12_linear_2_278" x1="47.2708" y1="298.807" x2="160.954" y2="334.773" gradientUnits="userSpaceOnUse">
<stop stop-color="#38A3A5"/>
<stop offset="1" stop-color="#22577A"/>
</linearGradient>
</defs>
</svg>
