<svg width="32" height="32" viewBox="0 0 32 32" fill="none" xmlns="http://www.w3.org/2000/svg">
<path d="M21.5993 25.445V22.1184C22.805 21.3218 23.7309 20.3636 24.3768 19.244C25.0443 18.0598 25.378 16.8433 25.378 15.5945C25.378 13.7428 24.5598 11.9234 22.9234 10.1364C22.7297 9.94259 22.4605 9.64115 22.116 9.23206C21.7715 8.8445 21.4809 8.52153 21.244 8.26316C20.8995 7.89713 20.3505 7.40191 19.5969 6.77751C19.2309 6.47608 18.994 6.2823 18.8864 6.19617C17.7883 5.20574 16.744 4.47368 15.7536 4C14.6555 4.51675 13.5036 5.30263 12.2978 6.35766C12.2333 6.42225 12.1364 6.50837 12.0072 6.61603C11.0167 7.45574 10.3062 8.10168 9.8756 8.55383C9.76794 8.66148 9.61722 8.82297 9.42344 9.03828C9.03588 9.4689 8.74521 9.7811 8.55143 9.97488C6.89354 11.762 6.06459 13.6352 6.06459 15.5945C6.06459 16.8218 6.40909 18.0383 7.09809 19.244C7.76555 20.3852 8.68062 21.3433 9.8433 22.1184V25.3804H14.2679C13.7943 25.6172 13.1699 25.994 12.3947 26.5108L12.3301 26.6077C11.5765 27.0813 11.0275 27.4151 10.683 27.6089C10.2524 27.8242 9.8756 27.9318 9.55263 27.9318C9.10048 27.9318 8.65909 27.695 8.22847 27.2213C7.81938 26.64 7.44259 25.9079 7.09809 25.0251L6 26.4462C6.49522 27.5658 6.97967 28.3947 7.45335 28.933C8.05622 29.579 8.75598 29.9019 9.55263 29.9019C10.0694 29.9019 10.6077 29.762 11.1675 29.4821C11.7919 29.2237 12.384 28.89 12.9438 28.4809C13.5036 28.0718 14.0419 27.7165 14.5586 27.4151C14.9462 27.1782 15.3445 27.0598 15.7536 27.0598C16.1196 27.0598 16.4856 27.1675 16.8517 27.3828C17.1531 27.5335 17.6914 27.8672 18.4665 28.384L18.5634 28.4809C19.1017 28.89 19.6723 29.2237 20.2751 29.4821C20.8349 29.762 21.3517 29.9019 21.8254 29.9019C22.6866 29.9019 23.4079 29.579 23.9892 28.933C24.5275 28.3301 24.9904 27.5012 25.378 26.4462L24.3768 25.0251C23.9892 26.0156 23.6017 26.7476 23.2141 27.2213C22.8266 27.695 22.3636 27.9318 21.8254 27.9318C21.5455 27.9318 21.1902 27.8242 20.7596 27.6089C20.4151 27.4366 19.8876 27.1029 19.177 26.6077L19.0478 26.5108C18.5526 26.1447 17.9498 25.7895 17.2392 25.445H21.5993ZM11.2643 24.1854V22.4414H20.2105V24.1854H11.2643ZM24.0215 15.5945C24.0215 16.7141 23.7093 17.7799 23.0849 18.7919C22.4605 19.8254 21.6316 20.6435 20.5981 21.2464H10.9414C9.90789 20.6651 9.05742 19.8469 8.38995 18.7919C7.76555 17.7799 7.45335 16.7141 7.45335 15.5945C7.45335 13.8505 8.15311 12.2464 9.55263 10.7823C9.68182 10.6531 9.86483 10.4486 10.1017 10.1687C10.4462 9.7811 10.7153 9.49043 10.9091 9.29665L11.1998 9.00598C12.1902 8.05861 12.9868 7.35885 13.5897 6.9067C14.451 6.2177 15.1723 5.72249 15.7536 5.42105C16.1196 5.61483 16.6579 5.99163 17.3684 6.55144L17.4653 6.61603C18.3911 7.30502 19.2847 8.08014 20.1459 8.94139C20.3612 9.1567 20.6627 9.5012 21.0502 9.97488C21.4378 10.427 21.7177 10.7392 21.89 10.9115C23.311 12.3971 24.0215 13.9581 24.0215 15.5945ZM15.0431 9.94258V13.6244H11.5873V15.11H15.0431V18.8565H16.4318V15.11H19.8553V13.6244H16.4318V9.94258H15.0431Z" fill="black"/>
<path d="M11.2644 24.1854V22.4414H20.2106V24.1854H11.2644ZM24.0216 15.5945C24.0216 16.7141 23.7094 17.7799 23.085 18.7919C22.4606 19.8254 21.6316 20.6436 20.5981 21.2464H10.9414C9.90794 20.6651 9.05747 19.8469 8.39 18.7919C7.7656 17.7799 7.4534 16.7141 7.4534 15.5945C7.4534 13.8505 8.15316 12.2464 9.55268 10.7823C9.68187 10.6531 9.86488 10.4486 10.1017 10.1687C10.4462 9.78113 10.7154 9.49046 10.9091 9.29668L11.1998 9.00601C12.1902 8.05864 12.9869 7.35888 13.5898 6.90673C14.451 6.21773 15.1723 5.72252 15.7536 5.42108C16.1197 5.61486 16.6579 5.99165 17.3685 6.55146L17.4654 6.61606C18.3912 7.30505 19.2847 8.08017 20.146 8.94142C20.3613 9.15673 20.6627 9.50122 21.0503 9.97491C21.4378 10.4271 21.7178 10.7393 21.89 10.9115C23.3111 12.3972 24.0216 13.9582 24.0216 15.5945ZM15.0431 9.94261V13.6244H11.5874V15.1101H15.0431V18.8565H16.4319V15.1101H19.8553V13.6244H16.4319V9.94261H15.0431Z" fill="white"/>
</svg>
