<svg width="32" height="32" viewBox="0 0 32 32" fill="none" xmlns="http://www.w3.org/2000/svg">
<path d="M15.4641 9.03947C15.3134 9.08254 15.1842 9.14713 15.0766 9.23325C14.9904 9.29785 14.9151 9.35168 14.8505 9.39474C14.6136 9.50239 14.4199 9.68541 14.2691 9.94378C14.0323 10.2452 13.8708 10.5144 13.7847 10.7512C13.6986 10.9665 13.6555 11.2679 13.6555 11.6555V12.2368C13.677 12.3014 13.7093 12.4306 13.7524 12.6244C13.7739 12.7321 13.7847 12.7967 13.7847 12.8182C13.2679 12.2584 12.6435 11.817 11.9115 11.494C11.1364 11.1926 10.4151 11.0419 9.74761 11.0419C9.16627 11.0419 8.5634 11.1818 7.93899 11.4617C7.33612 11.7847 6.83014 12.2045 6.42105 12.7213C6.03349 13.1734 5.67823 13.7548 5.35526 14.4653C5.11842 15.2404 5 15.9725 5 16.6615C5 17.6304 5.23684 18.5239 5.71053 19.3421C6.16268 20.0311 6.79785 20.8385 7.61603 21.7644C7.83134 22.0227 8.24043 22.378 8.8433 22.8301C9.31699 23.1962 9.5646 23.4223 9.58613 23.5084V30H22.8278V23.5084C22.8708 23.4223 23.1077 23.2392 23.5383 22.9593C23.9043 22.701 24.195 22.4856 24.4103 22.3134C24.6471 22.1411 24.8409 21.9581 24.9916 21.7644C25.7237 20.9892 26.3696 20.1818 26.9294 19.3421C27.3816 18.567 27.6077 17.6734 27.6077 16.6615C27.6077 15.8864 27.4892 15.1543 27.2524 14.4653C26.9725 13.7763 26.628 13.195 26.2189 12.7213C25.8098 12.2261 25.3146 11.8062 24.7333 11.4617C24.1089 11.1818 23.506 11.0419 22.9246 11.0419C22.2141 11.0419 21.4928 11.1926 20.7608 11.494C20.0287 11.817 19.3935 12.2584 18.8553 12.8182C18.8768 12.7536 18.8876 12.6567 18.8876 12.5275C18.9091 12.3983 18.9199 12.3014 18.9199 12.2368C18.9414 12.1507 18.9629 12.0431 18.9845 11.9139C19.006 11.7847 19.0168 11.6986 19.0168 11.6555C19.0168 11.2895 18.9629 10.988 18.8553 10.7512C18.7691 10.5144 18.5969 10.2237 18.3385 9.87919C18.2955 9.77153 18.177 9.65311 17.9833 9.52393C17.8971 9.45933 17.8433 9.41627 17.8218 9.39474C17.7787 9.37321 17.7572 9.36244 17.7572 9.36244C17.6065 9.27632 17.488 9.22249 17.4019 9.20096C17.3373 9.15789 17.2081 9.10407 17.0144 9.03947V6.81101H20.9223V5.71292H17.0144V3H15.4641V5.71292H11.5562V6.81101H15.4641V9.03947Z" fill="black"/>
<path fill-rule="evenodd" clip-rule="evenodd" d="M16.3038 17.1782C16.2177 16.7476 15.9916 16.1232 15.6256 15.305C15.3457 14.5299 15.1089 13.8624 14.9151 13.3026L14.0108 14.8206C14.6352 15.7033 15.0766 16.6077 15.3349 17.5335C15.4211 17.7703 15.4857 18.1471 15.5287 18.6639C15.5718 19.1591 15.6041 19.7297 15.6256 20.3756C15.6687 21 15.6902 21.5706 15.6902 22.0873C15.7117 22.6041 15.7225 23.0562 15.7225 23.4438H11.1041L10.8457 24.7033H21.5036L21.0837 23.4438H16.8206C16.8206 23.1854 16.8314 22.7548 16.8529 22.1519C16.8744 21.549 16.9067 20.9569 16.9498 20.3756C16.9928 19.7727 17.0467 19.2129 17.1113 18.6962C17.1759 18.1579 17.2404 17.7703 17.305 17.5335C17.5634 16.6292 17.994 15.7249 18.5969 14.8206L17.7572 13.3672C17.6711 13.5825 17.5634 13.8732 17.4342 14.2392C17.3912 14.3684 17.2512 14.756 17.0144 15.4019C16.7345 16.0263 16.4976 16.6184 16.3038 17.1782Z" fill="white"/>
</svg>
