<svg width="32" height="32" viewBox="0 0 32 32" fill="none" xmlns="http://www.w3.org/2000/svg">
<path d="M17.1758 17.3708C17.1112 17.9091 17.0359 18.4474 16.9498 18.9856C16.8636 19.5024 16.7667 19.8792 16.6591 20.116C16.4222 20.5682 16.0885 21.0526 15.6579 21.5694L12.3313 25.122C11.7069 25.7679 11.2333 26.5 10.9103 27.3182C10.6304 28.0072 10.4904 28.8469 10.4904 29.8373H27.6076V23.4426C27.6076 21.4402 27.317 19.5239 26.7356 17.6938C26.1543 15.8421 25.3253 14.1304 24.2488 12.5586C23.1938 11.0299 21.9235 9.70574 20.4378 8.58612C19.0383 7.46651 17.4665 6.65909 15.7225 6.16388L10.3935 4L11.8146 6.68062L5.29065 20.5036C5.09687 20.9773 5 21.4294 5 21.8601C5 22.5706 5.22607 23.2165 5.67823 23.7978C6.10885 24.3146 6.64712 24.573 7.29306 24.573C7.74521 24.573 8.27271 24.4653 8.87559 24.25C9.52152 24.0347 9.98443 23.7978 10.2643 23.5395L17.1758 17.3708ZM17.2727 15.9821L9.45693 22.6352C9.34928 22.7428 9.20933 22.8505 9.03708 22.9581C8.86483 23.0443 8.66028 23.1304 8.42343 23.2165C8.10047 23.3672 7.72368 23.4426 7.29306 23.4426C6.97009 23.4426 6.70094 23.2811 6.48563 22.9581C6.27032 22.6782 6.16268 22.3122 6.16268 21.8601C6.16268 21.5801 6.19496 21.3325 6.25956 21.1172L12.9773 6.8744L15.2703 7.19737C16.8206 7.62799 18.3062 8.37081 19.7273 9.42584C21.0837 10.4809 22.2787 11.7404 23.3122 13.2045C24.3242 14.6256 25.0885 16.2189 25.6053 17.9845C26.1435 19.6639 26.4127 21.4833 26.4127 23.4426V28.7392H11.75C11.8146 28.3517 11.9868 27.8457 12.2667 27.2213C12.6328 26.5754 12.9342 26.134 13.171 25.8971L16.5299 22.2799C17.0466 21.7201 17.5096 20.988 17.9187 20.0837C18.2201 19.2225 18.3708 18.3935 18.3708 17.5969V15.9821H17.2727Z" fill="black"/>
<path d="M17.2727 15.9821L9.45695 22.6352C9.34929 22.7428 9.20934 22.8505 9.03709 22.9581C8.86485 23.0443 8.66029 23.1304 8.42345 23.2165C8.10048 23.3672 7.72369 23.4426 7.29307 23.4426C6.9701 23.4426 6.70095 23.2811 6.48564 22.9581C6.27033 22.6782 6.16269 22.3122 6.16269 21.8601C6.16269 21.5802 6.19497 21.3325 6.25957 21.1172L12.9773 6.8744L15.2703 7.19737C16.8206 7.62799 18.3062 8.37082 19.7273 9.42584C21.0837 10.4809 22.2787 11.7404 23.3122 13.2045C24.3242 14.6256 25.0885 16.2189 25.6053 17.9845C26.1436 19.6639 26.4127 21.4833 26.4127 23.4426V28.7392H11.75C11.8146 28.3517 11.9868 27.8457 12.2668 27.2213C12.6328 26.5754 12.9342 26.134 13.1711 25.8971L16.5299 22.2799C17.0467 21.7201 17.5096 20.988 17.9187 20.0837C18.2201 19.2225 18.3708 18.3935 18.3708 17.5969V15.9821H17.2727Z" fill="white"/>
</svg>
