<svg width="32" height="32" viewBox="0 0 32 32" fill="none" xmlns="http://www.w3.org/2000/svg">
<path d="M14.9426 13.0718L10.9055 21.0167L13.0048 22.9545L9 27.8313V30.2536H23.8565V27.8313L19.7871 22.9545L21.9187 21.0167L17.9139 13.0718C18.5167 12.8565 19.012 12.4689 19.3995 11.9091C19.744 11.3278 19.9163 10.7464 19.9163 10.1651C19.9163 9.2823 19.5825 8.53947 18.9151 7.9366C18.2691 7.3122 17.4402 7 16.4282 7C15.3947 7 14.555 7.3122 13.9091 7.9366C13.2201 8.53947 12.8756 9.2823 12.8756 10.1651C12.8756 10.7679 13.0694 11.3493 13.4569 11.9091C13.8445 12.4474 14.3397 12.8349 14.9426 13.0718Z" fill="black"/>
<path d="M18.8182 22.3732H14.0383L14.1029 23.4067H18.7859L18.8182 22.3732Z" fill="white"/>
</svg>
