<svg width="32" height="32" viewBox="0 0 32 32" fill="none" xmlns="http://www.w3.org/2000/svg">
<path d="M14.9426 13.0718L10.9055 21.0167L13.0048 22.9545L9 27.8313V30.2536H23.8565V27.8313L19.7871 22.9545L21.9187 21.0167L17.9139 13.0718C18.5167 12.8565 19.012 12.4689 19.3995 11.9091C19.744 11.3278 19.9163 10.7464 19.9163 10.1651C19.9163 9.2823 19.5825 8.53947 18.9151 7.9366C18.2691 7.3122 17.4402 7 16.4282 7C15.3947 7 14.555 7.3122 13.9091 7.9366C13.2201 8.53947 12.8756 9.2823 12.8756 10.1651C12.8756 10.7679 13.0694 11.3493 13.4569 11.9091C13.8445 12.4474 14.3397 12.8349 14.9426 13.0718V13.0718ZM16.073 13.3947H16.7835L20.5299 20.823L18.8182 22.3732H14.0383L12.2943 20.823L16.073 13.3947ZM16.4282 8.06579C17.0742 8.06579 17.634 8.27034 18.1077 8.67943C18.5813 9.08852 18.8182 9.58373 18.8182 10.1651C18.8182 10.7895 18.5813 11.3062 18.1077 11.7153C17.634 12.1244 17.0742 12.3289 16.4282 12.3289C15.7392 12.3289 15.1687 12.1244 14.7165 11.7153C14.2644 11.2847 14.0383 10.7679 14.0383 10.1651C14.0383 9.58373 14.2644 9.08852 14.7165 8.67943C15.1687 8.27034 15.7392 8.06579 16.4282 8.06579ZM14.1029 23.4067H18.7859L22.6938 28.1543V29.1878H10.1304V28.1543L14.1029 23.4067Z" fill="black"/>
<path d="M16.073 13.3947H16.7835L20.5299 20.823L18.8182 22.3732H14.0383L12.2942 20.823L16.073 13.3947ZM16.4282 8.06578C17.0742 8.06578 17.634 8.27033 18.1076 8.67942C18.5813 9.08851 18.8182 9.58372 18.8182 10.1651C18.8182 10.7895 18.5813 11.3062 18.1076 11.7153C17.634 12.1244 17.0742 12.3289 16.4282 12.3289C15.7392 12.3289 15.1686 12.1244 14.7165 11.7153C14.2643 11.2847 14.0383 10.7679 14.0383 10.1651C14.0383 9.58372 14.2643 9.08851 14.7165 8.67942C15.1686 8.27033 15.7392 8.06578 16.4282 8.06578ZM14.1029 23.4067H18.7859L22.6938 28.1543V29.1878H10.1304V28.1543L14.1029 23.4067Z" fill="white"/>
</svg>
