<svg width="32" height="32" viewBox="0 0 32 32" fill="none" xmlns="http://www.w3.org/2000/svg">
<path d="M20.3397 6.19617C20.7057 5.9378 20.8888 5.6256 20.8888 5.25957C20.8888 4.91507 20.7488 4.6244 20.4689 4.38756C20.2105 4.12919 19.8983 4 19.5323 4C19.1447 4 18.811 4.12919 18.5311 4.38756C18.2727 4.6244 18.1435 4.91507 18.1435 5.25957C18.1435 5.45335 18.2081 5.64713 18.3373 5.84091C18.488 6.01316 18.6495 6.15311 18.8218 6.26076V18.7273H14.2679V6.19617C14.634 5.9378 14.817 5.6256 14.817 5.25957C14.817 4.91507 14.6878 4.6244 14.4294 4.38756C14.1711 4.12919 13.8481 4 13.4605 4C13.073 4 12.75 4.12919 12.4916 4.38756C12.2333 4.6244 12.1041 4.91507 12.1041 5.25957C12.1041 5.69019 12.3194 6.00239 12.75 6.19617V18.695H8.16387V8.87679C8.55143 8.59689 8.74522 8.26316 8.74522 7.8756C8.74522 7.55263 8.60526 7.28349 8.32536 7.06818C8.06698 6.83134 7.74401 6.71292 7.35645 6.71292C6.99042 6.71292 6.66746 6.83134 6.38755 7.06818C6.12918 7.28349 6 7.55263 6 7.8756C6 8.28469 6.21531 8.61842 6.64593 8.87679V18.9856L10.0694 24.0885V29.8373H22.988V24.0885L26.4115 18.9856V8.87679C26.799 8.59689 26.9928 8.26316 26.9928 7.8756C26.9928 7.55263 26.8529 7.28349 26.573 7.06818C26.3146 6.83134 25.9916 6.71292 25.6041 6.71292C25.238 6.71292 24.9151 6.83134 24.6352 7.06818C24.3768 7.28349 24.2476 7.55263 24.2476 7.8756C24.2476 8.26316 24.4629 8.59689 24.8935 8.87679V18.695H20.3397V6.19617ZM11.5873 28.4809V24.5084H21.4701V28.4809H11.5873ZM24.0861 19.8254L21.8577 23.1842H11.2321L8.93899 19.8254H24.0861Z" fill="black"/>
<path d="M11.5874 28.4808V24.5083H21.4701V28.4808H11.5874ZM24.0862 19.8253L21.8577 23.1842H11.2321L8.93903 19.8253H24.0862Z" fill="white"/>
</svg>
