<svg width="180" height="180" viewBox="0 0 180 180" fill="none" xmlns="http://www.w3.org/2000/svg">
<path d="M89.8954 41.4412L64.2071 49.6707C62.2586 50.2347 60.8743 51.3115 60.0536 52.901C59.2335 54.4392 59.0023 55.8749 59.3612 57.2079C59.6689 58.5923 60.5919 59.7718 62.1304 60.7461C63.6682 61.6691 65.3861 61.9251 67.2834 61.515L90.2796 53.4394C91.7156 58.8229 91.0232 63.9248 88.2034 68.7448C85.383 73.5131 80.7429 76.5641 74.2821 77.8973C69.2061 77.8973 65.2837 79.7946 62.5146 83.5886C59.7459 87.3827 58.5922 91.5362 59.0541 96.048H124.198V74.2056C123.992 66.258 121.07 59.1053 115.43 52.7472C109.841 46.3379 103.355 42.8769 95.9715 42.3641C93.8177 40.1593 92.4075 39.0057 91.7409 38.9031C90.5619 38.8518 89.9466 39.6978 89.8954 41.4412ZM81.2042 47.9017C83.9734 47.1839 85.5371 47.5172 85.896 48.9016C86.2549 50.3372 85.0753 51.414 82.3579 52.1318C79.5381 52.7984 77.9737 52.4395 77.6666 51.0551C77.256 49.6194 78.4356 48.5683 81.2042 47.9017ZM95.8174 37.5187C105.919 38.7493 113.866 42.9025 119.66 49.9784C125.505 57.0544 128.402 65.8479 128.351 76.3588L128.12 99.9709L54.9775 99.8938C53.4392 94.2024 54.1315 88.7929 57.0544 83.6657C59.9766 78.538 64.2836 75.2563 69.975 73.8208C74.4874 73.9232 78.3844 72.5389 81.666 69.6679C84.9988 66.7963 86.6649 63.3353 86.6649 59.2847L70.6674 65.2067C67.95 66.6422 65.1808 67.0016 62.361 66.2833C59.5924 65.5144 57.5156 63.8995 56.1311 61.438C54.6955 58.977 54.234 56.2338 54.7468 53.2086C55.3108 50.1834 56.9002 47.8248 59.5153 46.1328L88.6646 36.7495C88.8187 35.0575 89.4083 34.0833 90.4337 33.8269C92.4334 33.4167 94.2278 34.6473 95.8174 37.5186V37.5187ZM41.5949 151.194C39.0312 151.194 37.7493 152.501 37.7493 155.116C37.7493 157.731 39.0312 159.038 41.5949 159.038H141.503C144.118 159.038 145.425 157.731 145.425 155.116C145.425 152.501 144.118 151.194 141.503 151.194H41.5949ZM41.6719 147.272H141.503C146.784 147.272 149.425 149.886 149.425 155.116C149.425 160.397 146.784 163.038 141.503 163.038H41.6719C36.3907 163.038 33.75 160.397 33.75 155.116C33.75 149.886 36.3907 147.272 41.6719 147.272ZM111.277 123.659V109.2H71.8982V123.659C71.8982 126.223 70.9751 128.402 69.129 130.197C67.3346 131.94 65.2067 132.812 62.7458 132.812H56.2082C54.4648 132.812 53.5931 133.684 53.5931 135.427C53.5931 137.17 54.4648 138.042 56.2082 138.042H127.12C128.864 138.042 129.736 137.17 129.736 135.427C129.736 133.684 128.864 132.812 127.12 132.812H120.429C117.866 132.812 115.686 131.94 113.892 130.197C112.097 128.402 111.225 126.223 111.277 123.659ZM115.199 123.659C115.199 127.146 116.943 128.89 120.429 128.89H126.966C131.325 128.89 133.504 131.069 133.504 135.427C133.504 139.836 131.325 142.041 126.966 142.041H56.2082C51.7985 142.041 49.5938 139.836 49.5938 135.427C49.5938 131.069 51.7985 128.89 56.2082 128.89H62.7458C66.1809 128.89 67.8988 127.146 67.8988 123.659V105.278H115.199V123.659Z" fill="#170055"/>
<path d="M89.8954 41.4412L64.2066 49.6707C62.2581 50.2347 60.8738 51.3114 60.0536 52.9009C59.2329 54.4392 59.0023 55.8749 59.3612 57.2079C59.6689 58.5923 60.5919 59.7718 62.1304 60.7461C63.6682 61.6691 65.3861 61.9251 67.2834 61.515L90.2796 53.4393C91.7156 58.8229 91.0232 63.9248 88.2028 68.7448C85.383 73.5131 80.7429 76.5641 74.2821 77.8973C69.2061 77.8973 65.2838 79.7946 62.5146 83.5886C59.7459 87.3827 58.5922 91.5362 59.0535 96.048H124.198V74.2056C123.992 66.258 121.07 59.1053 115.429 52.7472C109.841 46.3379 103.355 42.8769 95.9709 42.3641C93.8177 40.1593 92.4075 39.0056 91.7409 38.9031C90.5619 38.8518 89.9466 39.6978 89.8954 41.4412ZM81.2042 47.9017C83.9728 47.1839 85.5366 47.5171 85.896 48.9016C86.2549 50.3372 85.0753 51.414 82.3579 52.1318C79.5375 52.7984 77.9737 52.4395 77.6661 51.0551C77.256 49.6194 78.4356 48.5683 81.2042 47.9017ZM41.5948 151.194C39.031 151.194 37.7492 152.501 37.7492 155.116C37.7492 157.731 39.031 159.038 41.5948 159.038H141.503C144.118 159.038 145.425 157.731 145.425 155.116C145.425 152.501 144.118 151.194 141.503 151.194H41.5948ZM111.277 123.659V109.2H71.8982V123.659C71.8982 126.223 70.9751 128.402 69.129 130.197C67.3346 131.94 65.2067 132.812 62.7452 132.812H56.208C54.4647 132.812 53.593 133.684 53.593 135.427C53.593 137.17 54.4647 138.042 56.208 138.042H127.12C128.864 138.042 129.736 137.17 129.736 135.427C129.736 133.684 128.864 132.812 127.12 132.812H120.429C117.865 132.812 115.686 131.94 113.892 130.197C112.097 128.402 111.225 126.223 111.277 123.659Z" fill="#FFC600"/>
</svg>
