<svg width="180" height="180" viewBox="0 0 180 180" fill="none" xmlns="http://www.w3.org/2000/svg">
<path d="M87.1875 39.375C93.7851 39.375 99.4399 41.62 104.153 46.1102C108.917 50.551 111.3 55.8799 111.3 62.0972C111.3 68.3634 108.917 73.7173 104.153 78.1577C99.4399 82.5986 93.7851 84.8188 87.1875 84.8188C80.5376 84.8188 74.8564 82.5986 70.1443 78.1577C65.4317 73.7173 63.0754 68.3634 63.0754 62.0972C63.0754 55.8799 65.4317 50.551 70.1443 46.1102C74.8564 41.62 80.5376 39.375 87.1875 39.375ZM111.3 125.231C111.3 128.586 113.08 130.263 116.64 130.263H123.316C127.767 130.263 129.992 132.36 129.992 136.554C129.992 140.798 127.767 142.919 123.316 142.919H51.0589C46.5559 142.919 44.3044 140.798 44.3044 136.554C44.3044 132.36 46.5559 130.263 51.0589 130.263H57.735C61.2427 130.263 62.9972 128.586 62.9972 125.231V107.541H111.3V125.231ZM55.0644 89.8521H119.389C123.892 89.8521 126.143 91.9491 126.143 96.1431C126.143 100.387 123.892 102.508 119.389 102.508H55.0644C50.6138 102.508 48.3884 100.387 48.3884 96.1431C48.3884 91.9491 50.6138 89.8521 55.0644 89.8521ZM36.2146 147.952H138.16C143.553 147.952 146.25 150.469 146.25 155.501C146.25 160.584 143.553 163.125 138.16 163.125H36.2146C30.8216 163.125 28.125 160.584 28.125 155.501C28.125 150.469 30.8216 147.952 36.2146 147.952Z" fill="#170055"/>
</svg>
