<svg width="180" height="180" viewBox="0 0 180 180" fill="none" xmlns="http://www.w3.org/2000/svg">
<path d="M46.5172 34.8058C44.6714 34.8058 43.7484 35.7288 43.7484 37.5747C43.7484 39.3693 44.6714 40.2666 46.5172 40.2666C48.3118 40.2666 49.2091 39.3693 49.2091 37.5747C49.2091 35.7288 48.3118 34.8058 46.5172 34.8058ZM131.505 52.5724C131.505 53.4953 129.453 54.9822 125.351 57.033C121.25 59.0844 117.84 62.4426 115.122 67.1085C112.045 63.5709 109.739 60.6482 108.2 58.3408C106.662 56.0334 104.662 54.1106 102.201 52.5724C100.56 50.0599 99.0731 48.4448 97.74 47.7269C96.4069 46.9578 94.6125 45.2658 92.3563 42.6508C90.6131 44.3941 89.0747 45.6247 87.7416 46.3425C86.4596 47.0091 84.4599 48.9063 81.7425 52.034C79.5381 53.7261 77.5896 55.4694 75.8976 57.2642C74.2567 59.0586 71.6417 62.3402 68.0524 67.1085C65.6426 62.4426 62.361 59.1868 58.2075 57.3407C54.0546 55.4437 51.9779 53.9312 51.9779 52.8031V64.1092C51.9779 65.4424 54.0033 67.0314 58.0539 68.8776C62.1557 70.6719 65.5402 73.7741 68.2065 78.1841C71.6929 73.7741 74.5132 70.8514 76.6665 69.4159C78.8715 67.9804 81.2042 66.2884 83.6657 64.3399C85.7166 61.8784 87.075 60.3146 87.7416 59.6481C88.4599 58.9303 89.6389 57.7513 91.2797 56.1103C92.8181 57.7513 94.0995 58.905 95.1255 59.5716C96.2021 60.1864 97.5606 61.4171 99.2014 63.2633C102.586 66.9038 105.329 69.2623 107.431 70.3389C109.533 71.4156 112.046 74.0306 114.968 78.1841C117.071 74.8513 120.66 71.595 125.736 68.4163C130.812 65.2371 132.735 63.6986 131.505 63.8016V52.5724ZM47.3633 44.4967C49.0553 47.5731 52.9265 50.3163 58.977 52.7262C65.0273 55.0848 68.0524 58.1355 68.0524 61.8784C68.0524 58.1355 71.5393 53.7004 78.5126 48.5729C85.5371 43.3943 89.8954 39.2411 91.5874 36.1133C93.2794 39.2411 97.6635 43.3943 104.739 48.5729C111.815 53.7004 115.276 58.1355 115.122 61.8784C114.917 58.1355 117.814 55.0848 123.813 52.7262C129.864 50.3163 133.888 47.4962 135.888 44.2659V66.0319C134.196 69.1594 130.223 72.3898 123.967 75.7226C117.763 79.0042 114.738 82.5165 114.892 86.2594C115.045 82.5165 111.61 78.3118 104.586 73.6459C97.6123 68.9287 93.2794 65.0064 91.5874 61.8784C89.8954 65.0064 85.5624 68.9287 78.5891 73.6459C71.667 78.3118 68.2065 82.5165 68.2065 86.2594C68.2065 82.5165 65.1296 79.0042 58.977 75.7226C52.8752 72.3898 48.9784 69.1594 47.2863 66.0319L47.3633 44.4967ZM91.5874 22.5C95.9456 22.5 98.1248 24.6791 98.1248 29.0375C98.1248 33.3958 95.9456 35.5749 91.5874 35.5749C87.2291 35.5749 85.05 33.3958 85.05 29.0375C85.05 24.6791 87.2291 22.5 91.5874 22.5ZM136.196 30.4219C140.554 30.4219 142.733 32.6267 142.733 37.0362C142.733 41.3945 140.554 43.5737 136.196 43.5737C131.838 43.5737 129.658 41.3945 129.658 37.0362C129.658 32.6267 131.838 30.4219 136.196 30.4219ZM46.3634 30.6526C50.7217 30.6526 52.9009 32.8318 52.9009 37.1901C52.9009 41.5484 50.7217 43.7276 46.3634 43.7276C42.0051 43.7276 39.826 41.5484 39.826 37.1901C39.826 32.8318 42.0051 30.6526 46.3634 30.6526ZM91.5874 26.2686C89.7412 26.2686 88.8187 27.1916 88.8187 29.0375C88.8187 30.8833 89.7412 31.8063 91.5874 31.8063C93.4329 31.8063 94.356 30.8833 94.356 29.0375C94.356 27.1916 93.4329 26.2686 91.5874 26.2686ZM136.119 34.2674C134.273 34.2674 133.35 35.1904 133.35 37.0362C133.35 38.8821 134.273 39.8051 136.119 39.8051C137.965 39.8051 138.888 38.8821 138.888 37.0362C138.888 35.1904 137.965 34.2674 136.119 34.2674ZM41.5949 153.634C39.0312 153.634 37.7493 154.941 37.7493 157.556C37.7493 160.171 39.0312 161.479 41.5949 161.479H141.503C144.118 161.479 145.425 160.171 145.425 157.556C145.425 154.941 144.118 153.634 141.503 153.634H41.5949ZM41.6719 149.712H141.503C146.784 149.712 149.425 152.327 149.425 157.556C149.425 162.838 146.784 165.478 141.503 165.478H41.6719C36.3907 165.478 33.75 162.838 33.75 157.556C33.75 152.327 36.3907 149.712 41.6719 149.712ZM60.0536 93.2586C58.3104 93.2586 57.4386 94.1299 57.4386 95.8736C57.4386 97.6168 58.3104 98.4887 60.0536 98.4887H123.121C124.864 98.4887 125.736 97.6168 125.736 95.8736C125.736 94.1299 124.864 93.2586 123.121 93.2586H60.0536ZM60.1307 89.3362H123.121C127.531 89.3362 129.736 91.5154 129.736 95.8736C129.736 100.283 127.531 102.488 123.121 102.488H60.1307C55.7723 102.488 53.5931 100.283 53.5931 95.8736C53.5931 91.5154 55.7723 89.3362 60.1307 89.3362ZM111.277 126.1V111.641H71.8982V126.1C71.8982 128.663 70.9751 130.843 69.129 132.637C67.3346 134.381 65.2067 135.252 62.7458 135.252H56.2082C54.4648 135.252 53.5931 136.124 53.5931 137.867C53.5931 139.61 54.4648 140.482 56.2082 140.482H127.12C128.864 140.482 129.736 139.61 129.736 137.867C129.736 136.124 128.864 135.252 127.12 135.252H120.429C117.866 135.252 115.686 134.381 113.892 132.637C112.097 130.843 111.225 128.663 111.277 126.1ZM115.199 126.1C115.199 129.586 116.943 131.33 120.429 131.33H126.966C131.325 131.33 133.504 133.509 133.504 137.867C133.504 142.277 131.325 144.482 126.966 144.482H56.2082C51.7985 144.482 49.5938 142.277 49.5938 137.867C49.5938 133.509 51.7985 131.33 56.2082 131.33H62.7458C66.1809 131.33 67.8988 129.586 67.8988 126.1V107.718H115.199V126.1Z" fill="#170055"/>
<path d="M46.5171 34.8058C44.6712 34.8058 43.7482 35.7288 43.7482 37.5746C43.7482 39.3693 44.6712 40.2665 46.5171 40.2665C48.3116 40.2665 49.209 39.3693 49.209 37.5746C49.209 35.7288 48.3116 34.8058 46.5171 34.8058ZM131.504 52.5724C131.504 53.4953 129.453 54.9822 125.351 57.033C121.249 59.0844 117.84 62.4426 115.122 67.1085C112.045 63.5709 109.738 60.6482 108.2 58.3408C106.662 56.0334 104.662 54.1106 102.201 52.5724C100.56 50.0599 99.0731 48.4448 97.7399 47.727C96.4068 46.9578 94.6124 45.2658 92.3562 42.6508C90.6131 44.3941 89.0746 45.6247 87.7415 46.3425C86.4596 47.0091 84.4599 48.9062 81.7424 52.034C79.5374 53.726 77.5895 55.4694 75.8969 57.2642C74.2567 59.0586 71.6416 62.3402 68.0523 67.1085C65.6426 62.4426 62.3609 59.1868 58.2074 57.3407C54.0543 55.4437 51.9778 53.9312 51.9778 52.8031V64.1093C51.9778 65.4424 54.0031 67.0314 58.0539 68.8776C62.1556 70.6719 65.5396 73.7741 68.2059 78.1841C71.6928 73.7741 74.5126 70.8514 76.6664 69.4159C78.8709 67.9804 81.2041 66.2884 83.6651 64.3399C85.7159 61.8784 87.0749 60.3146 87.7415 59.6481C88.4593 58.9303 89.6388 57.7513 91.2796 56.1103C92.8175 57.7513 94.0994 58.905 95.1249 59.5716C96.2021 60.1864 97.5605 61.4171 99.2013 63.2633C102.585 66.9038 105.329 69.2623 107.431 70.3389C109.533 71.4156 112.045 74.0306 114.968 78.1841C117.07 74.8513 120.66 71.595 125.736 68.4163C130.812 65.2371 132.735 63.6986 131.504 63.8016V52.5724ZM91.5873 26.2686C89.7412 26.2686 88.8181 27.1916 88.8181 29.0375C88.8181 30.8833 89.7412 31.8063 91.5873 31.8063C93.4329 31.8063 94.3559 30.8833 94.3559 29.0375C94.3559 27.1916 93.4329 26.2686 91.5873 26.2686ZM136.119 34.2675C134.273 34.2675 133.35 35.1904 133.35 37.0362C133.35 38.8821 134.273 39.8051 136.119 39.8051C137.965 39.8051 138.887 38.8821 138.887 37.0362C138.887 35.1904 137.965 34.2675 136.119 34.2675ZM41.5947 153.634C39.031 153.634 37.7491 154.941 37.7491 157.556C37.7491 160.171 39.031 161.479 41.5947 161.479H141.502C144.118 161.479 145.425 160.171 145.425 157.556C145.425 154.941 144.118 153.634 141.502 153.634H41.5947ZM60.0536 93.2586C58.3104 93.2586 57.4385 94.1305 57.4385 95.8736C57.4385 97.6168 58.3104 98.4887 60.0536 98.4887H123.121C124.864 98.4887 125.736 97.6168 125.736 95.8736C125.736 94.1305 124.864 93.2586 123.121 93.2586H60.0536ZM111.276 126.1V111.641H71.8981V126.1C71.8981 128.663 70.9751 130.843 69.1289 132.637C67.3346 134.381 65.2066 135.252 62.7451 135.252H56.2079C54.4646 135.252 53.5929 136.124 53.5929 137.867C53.5929 139.61 54.4646 140.482 56.2079 140.482H127.12C128.864 140.482 129.736 139.61 129.736 137.867C129.736 136.124 128.864 135.252 127.12 135.252H120.429C117.865 135.252 115.686 134.381 113.892 132.637C112.097 130.843 111.225 128.663 111.276 126.1Z" fill="#FFC600"/>
</svg>
