<svg width="180" height="180" viewBox="0 0 180 180" fill="none" xmlns="http://www.w3.org/2000/svg">
<path d="M111.3 124.603C111.3 128.014 113.08 129.719 116.64 129.719H123.316C127.767 129.719 129.992 131.851 129.992 136.114C129.992 140.428 127.767 142.585 123.316 142.585H51.0589C46.5559 142.585 44.3044 140.428 44.3044 136.114C44.3044 131.851 46.5559 129.719 51.0589 129.719H57.735C61.2427 129.719 62.9972 128.014 62.9972 124.603V106.621H111.3V124.603ZM55.0644 88.6388H119.389C123.892 88.6388 126.143 90.7701 126.143 95.0338C126.143 99.3476 123.892 101.504 119.389 101.504H55.0644C50.6138 101.504 48.3884 99.3476 48.3884 95.0338C48.3884 90.7701 50.6138 88.6388 55.0644 88.6388ZM36.2146 147.701H138.16C143.553 147.701 146.25 150.259 146.25 155.375C146.25 160.542 143.553 163.125 138.16 163.125H36.2146C30.8216 163.125 28.125 160.542 28.125 155.375C28.125 150.259 30.8216 147.701 36.2146 147.701ZM87.1875 83.5223L60.9548 83.5976C50.0116 78.1802 44.4614 65.3147 44.3044 45H60.4052V60.4237H76.4274V45H87.2662H98.0263V60.4237H114.127V45H130.149C129.94 65.4148 124.521 78.2556 113.891 83.5223H87.1875Z" fill="#170055"/>
</svg>
