<svg width="50" height="50" viewBox="0 0 50 50" fill="none" xmlns="http://www.w3.org/2000/svg">
<path fill-rule="evenodd" clip-rule="evenodd" d="M25 42.162C24.771 43.102 24.484 43.754 24.153 44.118C23.823 44.482 23.391 44.863 22.841 45.261C22.248 45.676 21.546 46.023 20.733 46.311C19.92 46.599 19.023 46.675 18.032 46.522L11.064 45.557C10.8111 45.523 10.5548 45.523 10.302 45.557C10.082 45.591 9.86999 45.608 9.66699 45.608C9.31999 45.608 8.87999 45.684 8.34699 45.845C7.80399 45.998 7.38899 46.226 7.09299 46.522L4.68799 42.577C4.98499 42.247 5.24799 42.018 5.47599 41.883C5.71299 41.756 5.98399 41.612 6.29699 41.468C7.26574 41.0176 8.30568 40.7397 9.36999 40.647C9.83599 40.613 10.293 40.604 10.734 40.621C11.2003 40.6376 11.6671 40.6209 12.131 40.571C13.02 40.723 13.917 40.858 14.815 40.977C15.72 41.104 16.626 41.231 17.532 41.367C18.523 41.367 19.192 41.265 19.539 41.07C19.725 40.968 20.013 40.782 20.411 40.52C20.809 40.257 21.207 39.868 21.605 39.351C20.725 39.258 19.835 39.089 18.921 38.843C18.1067 38.6341 17.304 38.3828 16.516 38.09L19.099 31.689C17.803 30.944 16.906 30.351 16.389 29.894C15.89 29.4499 15.4795 28.9156 15.179 28.319C14.747 27.557 14.467 26.821 14.349 26.109C14.2301 25.4785 14.1765 24.8375 14.189 24.196C14.205 23.206 14.434 22.113 14.891 20.911C15.348 19.717 16.203 18.641 17.456 17.702C18.4951 16.909 19.5144 16.0905 20.513 15.247C21.5678 14.3373 22.5526 13.3495 23.459 12.292C22.239 11.665 21.63 10.666 21.63 9.29499C21.63 8.36299 21.952 7.57499 22.604 6.90699C23.256 6.24699 24.06 5.91699 25 5.91699C25.923 5.91699 26.719 6.24699 27.38 6.90699C28.04 7.57599 28.37 8.36299 28.37 9.29499C28.37 10.649 27.76 11.648 26.54 12.292C27.4335 13.3508 28.4077 14.3388 29.454 15.247C30.4552 16.1009 31.4858 16.9197 32.544 17.702C33.78 18.642 34.627 19.717 35.067 20.911C35.516 22.113 35.761 23.205 35.787 24.196C35.787 24.763 35.736 25.398 35.617 26.109C35.498 26.82 35.237 27.557 34.821 28.319C34.4937 28.9099 34.0702 29.4422 33.568 29.894C33.068 30.351 32.18 30.944 30.901 31.689L33.484 38.089C32.755 38.352 31.934 38.606 31.028 38.843C30.114 39.089 29.242 39.258 28.395 39.351C28.776 39.868 29.165 40.257 29.563 40.52C29.961 40.782 30.258 40.968 30.461 41.07C30.808 41.265 31.477 41.366 32.468 41.366C33.3646 41.2314 34.262 41.1014 35.16 40.976C36.0682 40.856 36.9743 40.7207 37.878 40.57C38.318 40.621 38.767 40.638 39.224 40.621C39.6924 40.6046 40.1615 40.6132 40.629 40.647C41.692 40.7479 42.7309 41.0251 43.703 41.467C43.999 41.612 44.27 41.756 44.507 41.883C44.753 42.018 45.015 42.247 45.311 42.577L42.881 46.522C42.585 46.226 42.171 45.998 41.628 45.845C41.095 45.685 40.663 45.608 40.333 45.608C40.113 45.608 39.893 45.591 39.673 45.558C39.4228 45.5239 39.1692 45.5239 38.919 45.558L31.969 46.522C30.977 46.675 30.055 46.607 29.208 46.328C28.353 46.048 27.65 45.676 27.108 45.21C26.566 44.761 26.126 44.38 25.804 44.059C25.483 43.737 25.212 43.102 25 42.162V42.162Z" fill="#222831"/>
<path fill-rule="evenodd" clip-rule="evenodd" d="M24.086 23.705V25.813C24.086 26.423 24.39 26.727 25 26.727C25.61 26.727 25.914 26.423 25.914 25.813V23.679H28.15C28.725 23.679 29.022 23.383 29.022 22.782C29.022 22.189 28.725 21.893 28.15 21.893H25.914V19.658C25.914 19.048 25.61 18.743 25 18.743C24.39 18.743 24.086 19.048 24.086 19.658V21.893H21.9C21.316 21.893 21.028 22.189 21.028 22.782C21.028 23.383 21.316 23.679 21.9 23.679L24.086 23.705ZM31.596 37.446L30.554 34.915C28.869 34.551 27.015 34.373 25 34.373C23.002 34.373 21.165 34.551 19.497 34.915L18.455 37.421C20.505 36.904 22.689 36.651 25 36.651C27.286 36.651 29.479 36.913 31.596 37.446V37.446ZM29.513 32.332L28.793 30.597V29.927C27.5366 29.7481 26.2691 29.6578 25 29.657C23.7393 29.66 22.4803 29.7503 21.232 29.927L21.207 30.597L20.538 32.332C22.0118 32.0792 23.5047 31.9547 25 31.96C26.592 31.96 28.09 32.087 29.513 32.332ZM28.649 41.713C27.989 41.213 27.319 40.426 26.659 39.351H25.872C25.872 40.164 26.058 40.951 26.439 41.713H28.649ZM23.535 41.713C23.916 40.901 24.111 40.113 24.111 39.351H23.315C22.672 40.41 22.003 41.197 21.3 41.713H23.535Z" fill="url(#paint0_linear_1_254)"/>
<defs>
<linearGradient id="paint0_linear_1_254" x1="21.094" y1="37.101" x2="77.669" y2="37.469" gradientUnits="userSpaceOnUse">
<stop stop-color="#00ADB5"/>
<stop offset="1" stop-color="white" stop-opacity="0"/>
</linearGradient>
</defs>
</svg>
