<svg width="50" height="50" viewBox="0 0 50 50" fill="none" xmlns="http://www.w3.org/2000/svg">
<path fill-rule="evenodd" clip-rule="evenodd" d="M25.821 12.022H24.061V8.772H21.994C21.436 8.772 21.156 8.5 21.156 7.95V7.925C21.156 7.383 21.436 7.112 21.994 7.112H24.06V5.004C24.06 4.419 24.357 4.132 24.95 4.132C25.525 4.132 25.821 4.419 25.821 5.004V7.112H27.955C28.497 7.112 28.768 7.382 28.768 7.925V7.95C28.768 8.5 28.497 8.771 27.955 8.771L25.838 8.797L25.821 12.022ZM11.03 37.744L10.217 33.104C10.2 33.104 10.175 33.071 10.141 33.003C10.056 32.884 9.819 32.732 9.43 32.546C9.049 32.351 8.592 32.029 8.084 31.564C7.50339 31.0827 6.93585 30.5859 6.382 30.074C5.976 29.6984 5.60759 29.2841 5.282 28.837C4.273 27.45 3.705 25.772 3.595 23.8C3.425 21.903 4.196 20.006 5.898 18.118C7.617 16.238 9.945 15.35 12.866 15.468C13.958 15.536 15.246 15.798 16.71 16.264C17.193 16.459 17.684 16.654 18.192 16.84L19.69 17.424C19.953 17.56 20.19 17.695 20.385 17.822C20.3011 17.4813 20.2585 17.1318 20.258 16.781C20.258 15.494 20.715 14.393 21.638 13.479C22.552 12.573 23.661 12.107 24.948 12.09C26.235 12.09 27.336 12.556 28.25 13.47C29.156 14.385 29.613 15.485 29.613 16.755C29.613 17.018 29.579 17.365 29.512 17.797C29.74 17.653 29.969 17.526 30.181 17.424C30.943 17.094 31.941 16.704 33.186 16.264C34.609 15.782 35.887 15.511 37.03 15.443C39.951 15.307 42.271 16.196 43.973 18.093C45.641 19.981 46.42 21.878 46.301 23.774C46.174 25.747 45.598 27.424 44.591 28.812C44.261 29.261 43.888 29.675 43.473 30.065C42.9332 30.5711 42.3797 31.0623 41.813 31.538C41.272 32.004 40.806 32.334 40.425 32.52C40.045 32.706 39.825 32.867 39.756 32.977C39.7435 33.0051 39.7266 33.0311 39.706 33.054C39.689 33.071 39.68 33.088 39.68 33.104L38.884 37.77L40.527 43.891C39.697 44.636 37.843 45.246 34.973 45.728C32.094 46.211 28.767 46.448 24.999 46.448C21.164 46.448 17.785 46.194 14.881 45.694C11.969 45.186 10.14 44.551 9.395 43.798L11.03 37.744Z" fill="#393E46"/>
<path fill-rule="evenodd" clip-rule="evenodd" d="M25.796 29.532C28.641 29.565 31.24 29.735 33.602 30.04C35.972 30.344 37.827 30.734 39.165 31.191C39.8564 30.6478 40.5421 30.0975 41.222 29.54C41.9085 28.9945 42.5332 28.3755 43.085 27.694C43.872 26.687 44.27 25.357 44.27 23.698C44.27 22.216 43.914 20.972 43.203 19.981C41.933 18.127 39.994 17.204 37.403 17.204C35.846 17.204 34.254 17.526 32.611 18.169C31.172 18.753 30.08 19.397 29.343 20.109C27.955 21.497 26.922 23.283 26.261 25.459C26.033 26.238 25.897 26.949 25.855 27.584C25.813 28.219 25.795 28.871 25.795 29.531L25.796 29.532ZM12.546 36.229C15.686 35.433 19.852 35.035 25.051 35.035C30.139 35.035 34.254 35.415 37.378 36.178L37.996 32.528C34.669 31.657 30.326 31.216 24.949 31.216C19.539 31.216 15.204 31.666 11.927 32.554L12.546 36.229ZM37.844 40.639L37.107 37.795C33.831 37.067 29.775 36.703 24.949 36.703C20.14 36.703 16.093 37.067 12.816 37.795L12.029 40.665C15.187 39.742 19.497 39.277 24.975 39.277C30.419 39.277 34.703 39.734 37.844 40.64V40.639ZM38.496 42.977C35.304 41.69 30.816 41.037 25.051 41.037C19.065 41.037 14.535 41.698 11.453 43.027C14.366 44.179 18.87 44.763 24.975 44.763C27.887 44.763 30.537 44.603 32.933 44.28C35.338 43.959 37.183 43.518 38.496 42.977V42.977ZM24.077 29.532C24.069 28.888 24.043 28.245 24.009 27.61C23.975 26.975 23.849 26.263 23.637 25.484C22.96 23.274 21.935 21.488 20.555 20.134C19.844 19.439 18.76 18.787 17.287 18.194C15.602 17.534 14.002 17.204 12.495 17.204C9.88699 17.204 7.94799 18.135 6.69499 20.007C5.98399 20.997 5.62799 22.242 5.62799 23.723C5.62799 25.349 6.02599 26.678 6.81399 27.72C7.29599 28.33 7.90599 28.947 8.65099 29.557C9.39599 30.167 10.091 30.725 10.734 31.217C13.629 30.175 18.074 29.617 24.077 29.532V29.532ZM24.949 24.917C25.068 24.452 25.161 24.13 25.245 23.952C25.415 23.309 25.601 22.758 25.821 22.309C25.914 22.03 26.058 21.709 26.253 21.336C26.439 20.963 26.643 20.531 26.863 20.057C26.99 19.777 27.133 19.431 27.278 19.024C27.43 18.618 27.582 18.22 27.726 17.822C27.862 17.492 27.929 17.136 27.929 16.755C27.929 15.942 27.633 15.257 27.057 14.689C26.482 14.114 25.779 13.826 24.949 13.826C22.985 13.826 21.994 14.816 21.994 16.781C21.994 17.161 22.062 17.517 22.197 17.848C22.562 18.923 22.841 19.668 23.036 20.083C23.256 20.557 23.451 20.989 23.636 21.361C23.815 21.734 23.976 22.055 24.102 22.335C24.322 22.885 24.5 23.427 24.652 23.977C24.687 24.071 24.78 24.392 24.949 24.917V24.917Z" fill="url(#paint0_linear_1_263)"/>
<defs>
<linearGradient id="paint0_linear_1_263" x1="21.376" y1="37.346" x2="77.641" y2="37.346" gradientUnits="userSpaceOnUse">
<stop stop-color="#EEEEEE"/>
<stop offset="1" stop-color="white" stop-opacity="0"/>
</linearGradient>
</defs>
</svg>
