<svg width="50" height="50" viewBox="0 0 50 50" fill="none" xmlns="http://www.w3.org/2000/svg">
<path fill-rule="evenodd" clip-rule="evenodd" d="M26.178 9.39501C28.778 9.56501 31.182 10.233 33.4 11.41C35.61 12.579 37.498 14.086 39.056 15.923C40.148 17.21 41.173 18.768 42.138 20.588C43.1184 22.4228 43.8963 24.3589 44.458 26.362C45.1328 28.7986 45.5528 31.2987 45.711 33.822C45.888 36.421 45.973 38.834 45.973 41.052V46.454H15.468C15.315 46.454 15.248 46.047 15.256 45.244C15.265 44.43 15.316 43.778 15.416 43.279C15.476 42.881 15.637 42.322 15.883 41.594C16.137 40.866 16.543 39.985 17.127 38.944C17.39 38.41 18.017 37.64 19.007 36.624C20.006 35.608 21.14 34.423 22.436 33.085C23.181 32.323 23.756 31.366 24.18 30.206C24.603 29.055 24.781 28.005 24.713 27.056C24.105 27.5549 23.4297 27.9656 22.707 28.276C19.202 29.529 16.662 31.349 15.095 33.728C14.977 33.881 14.605 34.55 13.978 35.743C13.648 36.37 13.36 36.802 13.131 37.03C12.818 37.344 12.361 37.521 11.768 37.555C10.845 37.598 10.125 37.157 9.60801 36.209C8.91501 36.412 8.29601 36.497 7.74601 36.463C6.82301 36.116 6.15401 35.743 5.74001 35.346C4.89301 34.499 4.35101 33.661 4.08901 32.814C3.82936 31.9289 3.70099 31.0104 3.70801 30.088C3.70801 28.699 4.56301 26.862 6.29001 24.576C8.30501 21.951 9.38001 19.945 9.50701 18.573C9.50701 17.98 9.56701 17.312 9.68501 16.566C9.79275 16.0341 10.0026 15.5281 10.303 15.076C10.523 14.746 10.667 14.518 10.735 14.399C10.811 14.272 10.947 14.086 11.15 13.84C11.294 13.637 11.42 13.485 11.522 13.383C11.615 13.273 11.742 13.129 11.895 12.943C12.073 12.731 12.301 12.486 12.589 12.198C11.7127 9.81404 11.3491 7.27204 11.522 4.73801C14.807 5.90701 17.576 7.75301 19.802 10.268C20.353 8.39601 21.428 6.88101 23.028 5.72901C24.349 6.65201 25.399 7.87901 26.178 9.39501V9.39501Z" fill="#393E46"/>
<path fill-rule="evenodd" clip-rule="evenodd" d="M42.976 44.693C42.959 44.693 42.976 44.244 43.018 43.347C43.069 42.441 43.094 41.467 43.094 40.426C43.111 38.36 43.111 36.226 43.094 34.016C43.0738 31.7836 42.7752 29.5624 42.205 27.404C41.638 25.287 41.02 23.484 40.343 21.985C39.665 20.487 38.929 19.2 38.133 18.107C36.948 16.321 35.322 14.805 33.273 13.569C31.224 12.325 29.083 11.512 26.847 11.131C26.999 11.944 27.067 12.74 27.05 13.518C27.016 14.111 26.737 14.408 26.203 14.408C25.593 14.408 25.323 14.111 25.383 13.518C25.433 11.334 24.654 9.463 23.053 7.914C21.801 9.234 21.115 10.767 21.022 12.519C20.988 13.104 20.692 13.358 20.124 13.289C19.599 13.273 19.337 12.969 19.337 12.375C19.337 12.375 19.354 12.308 19.379 12.172C18.702 12.392 17.991 12.697 17.246 13.095C16.772 13.425 16.382 13.341 16.086 12.85C15.789 12.35 15.916 11.96 16.484 11.681C17.194 11.317 17.728 11.046 18.092 10.86C16.6852 9.4169 15.0414 8.22565 13.232 7.338C13.4241 9.61744 14.0662 11.8362 15.121 13.866C15.4 14.289 15.332 14.67 14.917 15C14.452 15.364 14.062 15.313 13.749 14.83C13.5682 14.5407 13.4043 14.2412 13.258 13.933C12.911 14.28 12.674 14.543 12.564 14.703C12.445 14.856 12.242 15.186 11.954 15.694C11.666 16.211 11.454 16.634 11.319 16.964C11.175 17.379 11.107 17.709 11.133 17.972C11.158 18.226 11.183 18.505 11.2 18.827C11.0458 19.8009 10.7038 20.7356 10.193 21.579C9.54168 22.6382 8.87562 23.6883 8.195 24.729C7.6106 25.6281 7.01489 26.5199 6.408 27.404C5.993 28.005 5.68 28.758 5.468 29.69C5.316 30.249 5.316 30.934 5.468 31.73C5.612 32.535 5.943 33.161 6.434 33.61C7.196 34.38 7.932 34.736 8.644 34.677C8.872 34.677 9.185 34.584 9.574 34.397C9.964 34.219 10.261 33.872 10.481 33.356C10.904 32.416 11.26 31.942 11.548 31.942C11.954 31.942 12.183 32.179 12.216 32.636C12.216 32.738 12.081 33.153 11.819 33.881C11.666 34.211 11.471 34.558 11.226 34.922C10.904 35.354 10.769 35.532 10.803 35.464C11.065 36.412 11.505 36.574 12.115 35.964C12.293 35.786 12.505 35.439 12.733 34.948C12.97 34.448 13.334 33.779 13.825 32.941C14.409 31.959 15.027 31.171 15.688 30.553C16.348 29.943 16.932 29.444 17.448 29.072C17.745 28.852 18.109 28.606 18.541 28.327C18.973 28.039 19.549 27.751 20.277 27.455C20.853 27.226 21.496 26.938 22.199 26.599C22.902 26.26 23.528 25.829 24.069 25.296C24.832 24.551 25.416 23.636 25.831 22.544C26.051 21.934 26.127 21.181 26.076 20.284C25.932 19.724 26.212 19.445 26.923 19.445C27.456 19.445 27.753 19.716 27.821 20.266C27.821 22.129 27.287 23.831 26.229 25.372C26.576 26.43 26.669 27.59 26.499 28.843C26.356 29.851 26 30.934 25.449 32.086C24.891 33.229 23.773 34.507 22.089 35.913C18.659 38.758 17.043 41.687 17.229 44.693H29.404H42.976ZM9.338 29.613C8.855 29.91 8.568 30.308 8.466 30.807C8.483 31.349 8.229 31.646 7.704 31.697C7.12 31.764 6.824 31.519 6.806 30.951C6.874 29.859 7.356 28.996 8.271 28.352C8.703 28.005 9.101 28.03 9.465 28.445C9.829 28.894 9.787 29.283 9.338 29.614V29.613ZM16.704 17.786C16.916 18.116 17 18.463 16.949 18.827C16.789 19.885 16.196 20.326 15.189 20.165C14.9283 20.1273 14.6809 20.0256 14.469 19.869C14.409 19.945 14.308 20.131 14.172 20.41C13.994 20.944 13.647 21.122 13.131 20.96C12.623 20.758 12.42 20.385 12.538 19.843C13.283 17.938 14.629 16.634 16.577 15.923C17.144 15.753 17.517 15.923 17.694 16.414C17.898 16.948 17.745 17.312 17.246 17.506C17.1582 17.5563 17.0678 17.6017 16.975 17.642C16.89 17.684 16.805 17.735 16.704 17.786V17.786Z" fill="url(#paint0_linear_1_269)"/>
<defs>
<linearGradient id="paint0_linear_1_269" x1="21.405" y1="37.346" x2="77.641" y2="37.346" gradientUnits="userSpaceOnUse">
<stop stop-color="#EEEEEE"/>
<stop offset="1" stop-color="white" stop-opacity="0"/>
</linearGradient>
</defs>
</svg>
