<svg width="50" height="50" viewBox="0 0 50 50" fill="none" xmlns="http://www.w3.org/2000/svg">
<path fill-rule="evenodd" clip-rule="evenodd" d="M25 46.448H11.606C10.9472 44.8486 10.6108 43.1348 10.616 41.405C10.616 38.43 11.479 35.761 13.214 33.387C14.95 31.022 17.185 29.333 19.911 28.32C18.753 27.8021 17.7622 26.9717 17.05 25.922C16.313 24.851 15.95 23.639 15.95 22.288C15.95 20.598 16.525 19.132 17.685 17.896C18.836 16.652 20.259 15.935 21.952 15.746C20.606 14.765 19.937 13.463 19.937 11.856C19.937 10.505 20.428 9.343 21.419 8.379C22.401 7.415 23.595 6.937 25 6.937C26.389 6.937 27.582 7.415 28.573 8.379C29.563 9.343 30.063 10.505 30.063 11.856C30.063 13.463 29.394 14.765 28.048 15.746C29.741 15.935 31.164 16.652 32.315 17.896C33.475 19.132 34.051 20.599 34.051 22.288C34.051 23.639 33.678 24.851 32.925 25.922C32.2044 26.9645 31.2155 27.793 30.063 28.32C32.789 29.333 35.025 31.022 36.76 33.387C38.496 35.761 39.36 38.43 39.36 41.405C39.36 43.144 39.038 44.825 38.394 46.448H25Z" fill="#393E46"/>
<path fill-rule="evenodd" clip-rule="evenodd" d="M25 44.808H37.175C37.5156 43.7055 37.6925 42.5589 37.7 41.405C37.7 38.892 36.989 36.618 35.558 34.574C34.128 32.53 32.281 31.022 30.038 30.058C28.454 29.438 28.395 29.399 28.395 28.32C28.395 27.471 28.954 26.845 30.063 26.441C31.596 25.395 32.366 24.011 32.366 22.288C32.366 21.044 31.934 19.964 31.079 19.025C30.215 18.094 29.174 17.558 27.955 17.41C26.955 17.327 26.465 16.784 26.465 15.77C26.465 15.317 26.643 14.897 27.007 14.51C27.904 13.834 28.353 12.952 28.353 11.856C28.353 10.958 28.014 10.183 27.353 9.541C26.693 8.898 25.906 8.577 25 8.577C24.06 8.577 23.256 8.897 22.604 9.541C22.2909 9.83892 22.0427 10.1984 21.8751 10.5967C21.7075 10.9951 21.6241 11.4238 21.63 11.856C21.63 12.936 22.07 13.817 22.968 14.509C23.332 14.864 23.51 15.284 23.51 15.77C23.51 16.784 23.027 17.327 22.045 17.41C20.8365 17.5411 19.7199 18.1167 18.912 19.025C18.057 19.965 17.634 21.044 17.634 22.288C17.634 24.01 18.404 25.395 19.937 26.441C21.047 26.853 21.605 27.487 21.605 28.32C21.605 29.4 21.537 29.438 19.937 30.058C17.693 31.022 15.856 32.53 14.434 34.574C13.011 36.618 12.3 38.892 12.3 41.405C12.3 42.6 12.478 43.729 12.825 44.808H25Z" fill="url(#paint0_linear_1_274)"/>
<defs>
<linearGradient id="paint0_linear_1_274" x1="21.13" y1="37.5896" x2="77.764" y2="37.716" gradientUnits="userSpaceOnUse">
<stop stop-color="#EEEEEE"/>
<stop offset="1" stop-color="white" stop-opacity="0"/>
</linearGradient>
</defs>
</svg>
