<svg width="180" height="180" viewBox="0 0 180 180" fill="none" xmlns="http://www.w3.org/2000/svg">
<path d="M95.2088 133.589H131.205L152.906 141.77V164.676L131.205 156.581H95.2088V133.589ZM90.7307 22.5L109.676 41.4453L99.6868 51.4347V54.3626C106.576 54.2478 112.719 55.1664 118.115 57.1185C123.512 59.013 126.21 59.9603 126.21 59.9603L107.265 78.9053L114.413 86.0529L134.822 65.6438C138.841 68.7437 141.223 72.3032 141.969 76.3223C142.773 80.3408 143.175 82.35 143.175 82.35V98.3678C142.142 104.74 140.132 110.079 137.147 114.385C134.161 118.634 132.669 120.758 132.669 120.758V124.202H48.7065V119.982C44.1137 114.528 41.2432 109.591 40.095 105.171C38.9468 100.75 38.3727 98.5399 38.3727 98.5399V82.5221C38.4302 75.2884 40.6978 69.777 45.1758 65.988C49.7112 62.1416 54.6485 59.3572 59.9878 57.6349C65.3844 55.9127 70.3215 54.9367 74.7996 54.7071C79.2776 54.4774 81.5164 54.3626 81.5164 54.3626V51.5208L71.6991 41.6176L90.7307 22.5ZM85.8223 133.589V156.581H49.7399L28.125 164.676V141.77L49.7399 133.589H85.8223ZM80.8273 41.5315L90.7307 51.5208L100.72 41.5315L90.7307 31.5421L80.8273 41.5315Z" fill="black"/>
<path d="M80.8273 41.5315L90.7306 51.5208L100.72 41.5315L90.7306 31.5421L80.8273 41.5315Z" fill="#EEEEEE"/>
</svg>
