<svg width="32" height="32" viewBox="0 0 32 32" fill="none" xmlns="http://www.w3.org/2000/svg">
<path d="M16.926 23.7491H23.3253L27.1833 25.2035V29.2758L23.3253 27.8367H16.926V23.7491ZM16.1299 4L19.498 7.36806L17.7221 9.14395V9.66447C18.9468 9.64406 20.0389 9.80736 20.9983 10.1544C21.9577 10.4912 22.4374 10.6596 22.4374 10.6596L19.0693 14.0276L20.34 15.2983L23.9683 11.67C24.6828 12.2211 25.1063 12.8539 25.239 13.5684C25.3819 14.2828 25.4533 14.64 25.4533 14.64V17.4876C25.2696 18.6205 24.9124 19.5696 24.3817 20.3351C23.8509 21.0904 23.5856 21.468 23.5856 21.468V22.0804H8.65894V21.3302C7.84244 20.3606 7.33213 19.4829 7.128 18.697C6.92388 17.9111 6.82182 17.5182 6.82182 17.5182V14.6706C6.83203 13.3846 7.23517 12.4048 8.03126 11.7312C8.83755 11.0474 9.71529 10.5524 10.6645 10.2462C11.6239 9.94004 12.5016 9.76653 13.2977 9.72571C14.0938 9.68488 14.4918 9.66447 14.4918 9.66447V9.15926L12.7465 7.39868L16.1299 4ZM15.2573 23.7491V27.8367H8.84265L5 29.2758V25.2035L8.84265 23.7491H15.2573ZM14.3693 7.38337L16.1299 9.15926L17.9058 7.38337L16.1299 5.60748L14.3693 7.38337Z" fill="black"/>
<path d="M14.3693 7.38337L16.1299 9.15926L17.9058 7.38337L16.1299 5.60748L14.3693 7.38337Z" fill="#EEEEEE"/>
</svg>
