<svg width="32" height="32" viewBox="0 0 32 32" fill="none" xmlns="http://www.w3.org/2000/svg">
<path d="M15.2573 23.7491V27.8367H8.84265L5 29.2758V25.2035L8.84265 23.7491H15.2573ZM14.0938 24.8973H9.02637L6.13289 25.9996V27.653L8.55177 26.7344H14.0938V24.8973ZM18.0589 24.9279V26.6885H23.5703L26.0198 27.653V25.9996L23.1722 24.9279H18.0589ZM14.5224 10.828C14.5224 10.828 14.1856 10.8433 13.512 10.8739C12.8384 10.8943 12.0933 11.0219 11.2768 11.2566C10.4705 11.4812 9.72039 11.8537 9.02637 12.3742C8.34255 12.8947 7.98533 13.65 7.95471 14.64V17.4723C7.95471 17.4723 8.06187 17.8193 8.27621 18.5133C8.50074 19.2073 8.99064 20.0187 9.74591 20.9475H22.4374C22.4374 20.9475 22.718 20.529 23.2794 19.6921C23.8407 18.8552 24.1877 18.0846 24.3204 17.3804V14.6706C24.3204 14.3032 24.1775 13.8337 23.8918 13.2622L20.2941 16.8446L17.4465 14.0123L20.3094 11.1495C20.34 11.1393 20.0797 11.078 19.5286 10.9658C18.9877 10.8433 18.3651 10.7974 17.6609 10.828L16.1146 9.95535L14.5224 10.828ZM16.1299 4L19.4827 7.36806L17.7068 9.14395L17.967 9.66447C19.1918 9.66447 20.2379 9.83287 21.1055 10.1697C21.9832 10.4963 22.4221 10.6596 22.4221 10.6596L19.054 14.0276L20.3247 15.2983L23.9683 11.67C24.6828 12.2211 25.1063 12.8539 25.239 13.5684C25.3717 14.2828 25.438 14.64 25.438 14.64V17.4876C25.2543 18.6205 24.8971 19.5696 24.3664 20.3351C23.8356 21.0904 23.5703 21.468 23.5703 21.468V22.0804H8.65894V21.3302C7.84244 20.3606 7.33213 19.4829 7.128 18.697C6.92388 17.9111 6.82182 17.5182 6.82182 17.5182V14.6706C6.83203 13.3846 7.22497 12.4048 8.00064 11.7312C8.77631 11.0474 9.62343 10.5524 10.542 10.2462C11.4606 9.94004 12.3026 9.76653 13.068 9.72571C13.8335 9.68488 14.2162 9.66447 14.2162 9.66447L14.4918 9.15926L12.7312 7.39868L16.1299 4ZM16.9107 23.7491H23.3253L27.168 25.2035V29.2758L23.3253 27.8367H16.9107V23.7491ZM14.3387 7.38337L16.0993 9.15926L17.8752 7.38337L16.0993 5.60748L14.3387 7.38337Z" fill="black"/>
<path d="M14.0938 24.8973H9.02638L6.1329 25.9996V27.653L8.55179 26.7345H14.0938V24.8973ZM18.0589 24.9279V26.6885H23.5703L26.0198 27.653V25.9996L23.1722 24.9279H18.0589ZM14.5224 10.828C14.5224 10.828 14.1856 10.8433 13.512 10.8739C12.8384 10.8943 12.0934 11.0219 11.2769 11.2567C10.4706 11.4812 9.7204 11.8537 9.02638 12.3742C8.34256 12.8948 7.98534 13.65 7.95472 14.64V17.4723C7.95472 17.4723 8.06188 17.8193 8.27622 18.5133C8.50075 19.2073 8.99065 20.0187 9.74592 20.9475H22.4374C22.4374 20.9475 22.7181 20.529 23.2794 19.6921C23.8407 18.8552 24.1878 18.0846 24.3204 17.3804V14.6706C24.3204 14.3032 24.1776 13.8337 23.8918 13.2622L20.2941 16.8446L17.4465 14.0123L20.3094 11.1495C20.34 11.1393 20.0797 11.078 19.5286 10.9658C18.9877 10.8433 18.3651 10.7974 17.6609 10.828L16.1146 9.95536L14.5224 10.828ZM14.3387 7.38339L16.0993 9.15927L17.8752 7.38339L16.0993 5.6075L14.3387 7.38339Z" fill="white"/>
</svg>
