<svg width="32" height="32" viewBox="0 0 32 32" fill="none" xmlns="http://www.w3.org/2000/svg">
<path d="M17.9266 8.53646H18.9677V10.542H21.7234C21.7234 10.542 22.0244 10.6134 22.6266 10.7563C23.2288 10.8992 23.9075 11.1952 24.6628 11.6443C25.418 12.0831 26.1376 12.721 26.8214 13.5579C27.5154 14.3949 27.9543 15.5073 28.138 16.8954V19.9879C28.138 19.9879 28.0257 20.4318 27.8012 21.3198C27.5766 22.1975 26.6683 23.1875 25.0761 24.2898V29.0204H15.569H6.06187V24.2898C4.45949 23.1875 3.54603 22.1975 3.3215 21.3198C3.10717 20.4318 3 19.9879 3 19.9879V16.8954C3.17351 15.5073 3.60217 14.3949 4.28599 13.5579C4.98001 12.721 5.70466 12.0831 6.45992 11.6443C7.22539 11.1952 7.90921 10.8992 8.51137 10.7563C9.11354 10.6134 9.41463 10.542 9.41463 10.542H12.1703V8.53646H13.2114C13.0787 8.2609 13.0123 7.95471 13.0123 7.6179C13.0123 6.92388 13.2573 6.31661 13.7472 5.79609C14.2371 5.26536 14.8444 5 15.569 5C16.2834 5 16.8856 5.26536 17.3755 5.79609C17.8756 6.31661 18.1257 6.92388 18.1257 7.6179C18.1257 7.95471 18.0593 8.2609 17.9266 8.53646V8.53646ZM17.4674 9.27131C17.2734 9.45503 17.0132 9.63874 16.6866 9.82245C16.3702 10.0062 15.9977 10.098 15.569 10.098C14.8239 10.098 14.1963 9.82245 13.6859 9.27131H13.5482V10.5114L15.2016 16.7882H15.569H15.9364L17.5898 10.5114V9.27131H17.4674ZM7.27132 25.1165C7.27132 25.1165 8.09292 25.3462 9.73612 25.8054C11.3895 26.2647 13.3338 25.8565 15.569 24.5807C17.794 25.8565 19.7331 26.2647 21.3866 25.8054C23.0502 25.3462 23.882 25.1165 23.882 25.1165L25.0761 24.3051C25.0761 24.0704 25.0761 23.7846 25.0761 23.4478C25.0761 23.1008 25.0761 22.8048 25.0761 22.5598C23.586 23.856 22.0193 24.4786 20.3761 24.4276C18.7431 24.3664 17.1408 23.8509 15.569 22.8813C14.0891 23.8611 12.4867 24.3561 10.7619 24.3664C9.0472 24.3766 7.48054 23.805 6.06187 22.6517V24.3051C6.44971 24.5909 6.85286 24.8614 7.27132 25.1165Z" fill="black"/>
<path d="M17.4674 9.27127C17.2735 9.45498 17.0132 9.6387 16.6866 9.82241C16.3702 10.0061 15.9977 10.098 15.569 10.098C14.824 10.098 14.1963 9.82241 13.686 9.27127H13.5482V10.5113L15.2016 16.7882H15.569H15.9364L17.5898 10.5113V9.27127H17.4674ZM7.27133 25.1165C7.27133 25.1165 8.09293 25.3461 9.73614 25.8054C11.3896 26.2647 13.3338 25.8564 15.569 24.5806C17.794 25.8564 19.7332 26.2647 21.3866 25.8054C23.0502 25.3461 23.882 25.1165 23.882 25.1165L25.0761 24.3051C25.0761 24.0703 25.0761 23.7846 25.0761 23.4478C25.0761 23.1007 25.0761 22.8048 25.0761 22.5598C23.586 23.856 22.0194 24.4786 20.3762 24.4276C18.7432 24.3663 17.1408 23.8509 15.569 22.8813C14.0891 23.8611 12.4867 24.3561 10.7619 24.3663C9.04722 24.3765 7.48056 23.805 6.06189 22.6517V24.3051C6.44973 24.5909 6.85287 24.8613 7.27133 25.1165Z" fill="#EEEEEE"/>
</svg>
