<svg width="180" height="180" viewBox="0 0 180 180" fill="none" xmlns="http://www.w3.org/2000/svg">
<path d="M142.862 137.981H107.038C104.339 137.981 101.096 136.746 97.3069 134.278C93.5752 131.752 90.5034 129.025 88.0926 126.097C85.6811 129.025 82.5812 131.752 78.7916 134.278C75.0026 136.746 71.7879 137.981 69.147 137.981H33.323V134.794L16.875 65.2995C22.3864 74.5999 27.0079 80.1973 30.7396 82.0918C34.5286 83.9863 38.2029 87.6893 41.7623 93.2006C43.5994 82.8669 45.2069 74.8007 46.5847 69.0024C47.9626 63.1463 49.3979 56.1998 50.8905 48.1623L72.6778 96.5593L88.0926 22.5L103.507 96.5593L125.294 48.1623L133.217 93.8036C136.317 88.8086 140.077 85.2204 144.498 83.0391C148.976 80.8577 153.913 74.9441 159.31 65.2995L142.862 134.794V137.981ZM142.862 146.42V161.835H88.0926H33.323V146.42C37.6288 146.42 43.1688 146.42 49.9433 146.42C56.7748 146.42 62.3728 146.42 66.7356 146.42C69.7213 146.42 73.2516 145.645 77.328 144.095C81.4612 142.545 85.0494 139.875 88.0926 136.086C89.9871 138.382 92.8001 140.679 96.5317 142.975C100.263 145.214 104.569 146.362 109.449 146.42C113.754 146.42 119.294 146.42 126.069 146.42C132.901 146.42 138.498 146.42 142.862 146.42Z" fill="black"/>
<path d="M142.861 137.981H107.038C104.339 137.981 101.095 136.746 97.3063 134.278C93.5747 131.752 90.5034 129.025 88.092 126.097C85.6811 129.025 82.5806 131.752 78.7916 134.278C75.0026 136.746 71.7879 137.981 69.147 137.981H33.3229V146.42H49.9431H66.7355C69.7207 146.42 73.2515 145.645 77.328 144.095C81.4612 142.544 85.0494 139.875 88.092 136.086C89.9865 138.382 92.7995 140.678 96.5317 142.975C100.263 145.214 104.569 146.363 109.449 146.42H126.069H142.861V137.981Z" fill="#EEEEEE"/>
</svg>
