<svg width="180" height="180" viewBox="0 0 180 180" fill="none" xmlns="http://www.w3.org/2000/svg">
<path d="M88.0926 56.9458L73.3663 123.255L53.7323 74.772L46.6708 113.093C43.5707 107.237 38.5473 101.726 31.6007 96.5593C33.0934 103.62 34.586 110.711 36.0787 117.83C37.6288 124.891 39.1789 131.952 40.7289 139.014H69.147C71.7879 139.014 75.0026 137.779 78.7916 135.311C82.5812 132.785 85.6811 130.058 88.0926 127.13C90.5034 130.058 93.5752 132.785 97.3069 135.311C101.096 137.779 104.339 139.014 107.038 139.014H135.456L144.584 96.3866C138.728 100.234 133.705 105.802 129.514 113.093L122.452 74.772L102.818 123.255L88.0926 56.9458ZM88.0926 161.835H33.323V134.794L16.875 65.2995C22.3864 74.5999 27.0079 80.1973 30.7396 82.0918C34.5286 83.9863 38.2029 87.6893 41.7623 93.2006C43.5994 82.8669 45.2069 74.8007 46.5847 69.0024C47.9626 63.1463 49.3979 56.1998 50.8905 48.1623L72.6778 96.5593L88.0926 22.5L103.507 96.5593L125.294 48.1623L133.217 93.8036C136.317 88.8086 140.077 85.2204 144.498 83.0391C148.976 80.8577 153.913 74.9441 159.31 65.2995L142.862 134.794V161.835H88.0926ZM88.0926 155.203H135.456V145.731C131.092 145.731 126.73 145.731 122.366 145.731C118.06 145.731 113.754 145.731 109.449 145.731C104.569 145.616 100.263 144.439 96.5317 142.2C92.8001 139.904 89.9871 137.607 88.0926 135.311C85.0494 139.1 81.4612 141.798 77.328 143.406C73.2516 144.956 69.7213 145.731 66.7356 145.731C62.3728 145.731 58.0095 145.731 53.6462 145.731C49.3404 145.731 45.0346 145.731 40.7289 145.731V155.203H88.0926Z" fill="black"/>
<path d="M88.092 56.9458L73.3663 123.255L53.7322 74.772L46.6708 113.093C43.5706 107.237 38.5472 101.726 31.6006 96.5593C33.0932 103.62 34.5859 110.711 36.0786 117.83C37.6286 124.891 39.1787 131.952 40.7288 139.014H69.147C71.7879 139.014 75.0026 137.779 78.7916 135.311C82.5806 132.785 85.6811 130.058 88.092 127.13C90.5034 130.058 93.5746 132.785 97.3063 135.311C101.096 137.779 104.339 139.014 107.038 139.014H135.456L144.584 96.3866C138.728 100.234 133.705 105.802 129.513 113.093L122.452 74.772L102.818 123.255L88.092 56.9458ZM88.092 155.203H135.456V145.731C131.092 145.731 126.729 145.731 122.366 145.731C118.06 145.731 113.754 145.731 109.449 145.731C104.569 145.616 100.263 144.439 96.5317 142.2C92.7995 139.904 89.9865 137.607 88.092 135.311C85.0494 139.1 81.4612 141.798 77.328 143.406C73.2515 144.956 69.7207 145.731 66.7355 145.731C62.3722 145.731 58.0095 145.731 53.6461 145.731C49.3403 145.731 45.0346 145.731 40.7288 145.731V155.203H88.092Z" fill="white"/>
</svg>
