<svg width="32" height="32" viewBox="0 0 32 32" fill="none" xmlns="http://www.w3.org/2000/svg">
<path d="M8.24006 8H12.4042V9.59218H14.0423V8.01531H18.2218V9.59218H19.7374V8H24.0087V14.0472H8.24006V8ZM9.21986 9.05635V12.9755H22.8605V9.05635H20.8091V10.6638H17.0583V9.05635H15.0527V10.6638H11.3326V9.05635H9.21986ZM10.2609 14.0472L8.50032 25.2077H9.57197L11.3326 14.0472H10.2609ZM20.7172 14.0472L22.6768 25.2077H23.7485L21.7889 14.0472H20.7172ZM7 25.2077H25.2488V29.4637H7V25.2077ZM7.9798 26.2947V28.3155H24.1771V26.2947H7.9798Z" fill="black"/>
<path d="M9.21986 9.05635V12.9756H22.8605V9.05635H20.8091V10.6638H17.0583V9.05635H15.0527V10.6638H11.3325V9.05635H9.21986ZM7.9798 26.2947V28.3155H24.1771V26.2947H7.9798Z" fill="white"/>
<path d="M20.7172 14.0472H11.3325L9.57197 25.2077H22.6768L20.7172 14.0472Z" fill="white"/>
</svg>
