<svg width="180" height="180" viewBox="0 0 180 180" fill="none" xmlns="http://www.w3.org/2000/svg">
<path d="M89.3677 32.1493C85.9534 32.6371 84.051 34.2224 83.6606 36.9053C84.4408 39.1492 86.4411 40.2223 89.6602 40.1248C92.4407 39.5882 94.0264 38.3199 94.4168 36.32C93.6849 33.7346 92.0019 32.3444 89.3677 32.1493ZM89.2946 46.1247C84.1725 49.149 79.0267 53.3441 73.8557 58.7098C68.7341 64.0266 64.368 70.2951 60.7584 77.5142C59.5389 82.9288 59.8314 87.246 61.6365 90.4652C63.4899 93.636 67.6119 99.2458 74.0019 107.294C82.0997 105.392 88.4408 104.612 93.0263 104.953C97.6118 105.294 102.831 105.928 108.685 106.855C111.904 101.831 114.196 98.1968 115.562 95.9529C116.928 93.6602 117.831 91.8309 118.27 90.4652C118.709 89.0994 118.879 87.7337 118.782 86.3679C118.684 85.0022 118.782 82.6605 119.075 79.3434C117.514 72.612 113.685 66.1972 107.587 60.1003C101.538 54.0026 95.4411 49.3441 89.2946 46.1247ZM89.6602 128.44C86.1486 128.44 82.0018 128.855 77.2217 129.684C72.441 130.514 70.0509 131.44 70.0509 132.465C70.0509 133.489 72.441 134.294 77.2217 134.879C82.0018 135.416 86.1486 135.684 89.6602 135.684C93.1236 135.684 97.0504 135.343 101.441 134.66C105.879 133.977 108.099 133.123 108.099 132.099C108.099 131.074 105.879 130.221 101.441 129.538C97.0504 128.806 93.1236 128.44 89.6602 128.44ZM107.514 74.7338L107.44 84.6849C106.465 84.7339 105.172 84.7581 103.562 84.7581C102.002 84.7091 98.8796 84.6849 94.1968 84.6849V93.8312H84.2456V84.7581C80.7339 84.7581 78.1729 84.807 76.563 84.9043C74.9531 84.9532 73.0024 84.9043 70.7096 84.7581V75.0268C72.3679 75.0268 74.7096 75.0268 77.7336 75.0268C80.8071 75.0268 82.9778 75.0268 84.2456 75.0268V64.6363H94.1968L94.1237 74.7338C95.0991 74.88 97.3918 74.9289 101.001 74.88C104.611 74.7827 106.782 74.7338 107.513 74.7338H107.514ZM96.6116 141.61C97.7822 142.294 98.5382 142.782 98.8796 143.074C99.27 143.367 101.148 143.952 104.514 144.83C112.953 144.83 118.196 144.367 120.245 143.44C122.294 142.464 125.952 142.342 131.221 143.074C137.513 144.147 141.513 144.977 143.22 145.562C144.928 146.147 148.318 147.781 153.391 150.464C153.391 151.928 153.342 154.22 153.245 157.342C153.196 160.464 153.172 162.757 153.172 164.22C150.83 163.488 147.903 162.245 144.391 160.489C140.928 158.732 137.83 157.61 135.098 157.123C130.074 155.464 125.709 154.83 122.001 155.22C118.343 155.562 112.392 155.806 104.148 155.952C99.0748 154.781 94.8313 152.269 91.4164 148.416C91.4164 147.391 91.4164 146.342 91.4164 145.269C91.4164 144.196 91.4164 143.147 91.4164 142.123C90.7335 142.123 90.2216 142.099 89.8802 142.05C89.8802 143.123 89.8802 144.196 89.8802 145.269C89.8802 146.293 89.8802 147.318 89.8802 148.342C88.1241 149.074 86.8314 150.074 86.0017 151.342C85.1726 152.562 82.0266 154.05 76.563 155.806C69.0998 155.806 64.1486 155.513 61.7096 154.928C59.2706 154.293 55.344 154.318 49.9295 155.001C47.149 155.537 43.3686 157.074 38.5882 159.611C33.8566 162.098 30.3689 163.708 28.125 164.44C28.125 162.976 28.125 160.781 28.125 157.854C28.125 154.879 28.125 152.659 28.125 151.196C30.6128 150.757 34.003 149.464 38.2956 147.318C42.5882 145.172 45.9784 143.733 48.4661 143.001C54.1733 141.83 58.8319 141.464 62.4414 141.904C66.051 142.342 70.6123 143.05 76.1243 144.025C78.9047 144.123 80.7581 143.903 81.6851 143.367C82.6116 142.782 83.7096 142.123 84.9774 141.391C81.7093 140.659 77.6852 139.44 72.9045 137.733C68.1733 135.976 64.0513 133.562 60.5391 130.489C62.1489 127.123 63.3437 124.026 64.1244 121.196C64.9046 118.367 65.8806 115.562 67.0511 112.782C57.7344 101.953 52.7831 94.4409 52.1978 90.2458C51.6612 86.0017 51.6612 81.2706 52.1978 76.0511C54.9294 68.1975 58.6856 62.0269 63.4657 57.5393C68.2464 53.0514 74.4412 48.5393 82.0507 44.0027C79.0751 42.7345 77.5873 40.1979 77.5873 36.3931C77.5873 34.1493 78.9778 32.2225 81.7582 30.6128C84.5387 28.9542 87.0266 28.125 89.2215 28.125C91.368 28.125 93.636 29.0762 96.0261 30.9786C98.4167 32.881 99.6114 34.9541 99.6114 37.198C99.6114 40.6614 98.0994 43.1491 95.0749 44.6613C104.392 49.3441 111.416 53.9538 116.148 58.4904C120.928 63.027 124.465 69.2949 126.757 77.2948C126.562 82.4653 126.538 86.8798 126.684 90.5383C126.879 94.1484 122.562 100.977 113.733 111.026C115.05 114.099 115.928 117.148 116.367 120.172C116.855 123.148 117.611 126.465 118.636 130.123C115.416 133.294 111.758 135.855 107.66 137.806C103.611 139.708 99.9287 140.977 96.6116 141.61ZM32.442 154.781C32.0029 154.977 31.881 155.586 32.0761 156.611C32.2712 157.586 32.5395 157.928 32.8809 157.635C40.7833 152.22 47.1734 149.464 52.0513 149.367C56.9779 149.221 62.9539 149.391 69.9778 149.879C72.8072 149.879 75.8559 149.659 79.1241 149.221C82.4411 148.781 85.4167 147.684 88.0509 145.928C88.0509 144.659 88.0509 144.172 88.0509 144.465C88.0509 144.757 88.0509 144.611 88.0509 144.025C84.2946 145.977 81.0996 147.05 78.4654 147.245C75.8801 147.391 73.1976 147.464 70.4171 147.464C62.856 146.977 56.4902 147.196 51.3196 148.123C46.1978 149.001 39.9052 151.22 32.442 154.781ZM148.489 153.757C142.342 150.196 136.733 148.147 131.66 147.611C126.636 147.074 119.904 147.342 111.465 148.416C108.685 148.952 106.416 149.098 104.66 148.854C102.953 148.562 99.6604 146.952 94.7824 144.025C94.7824 144.611 94.7824 145.196 94.7824 145.781C94.7824 146.318 94.7824 146.855 94.7824 147.391C98.0994 149.879 100.904 151.123 103.197 151.123C105.49 151.074 108.075 151.05 110.953 151.05C118.514 150.318 124.66 149.732 129.391 149.294C134.172 148.854 140.538 151.318 148.489 156.684C148.781 156.879 148.927 156.513 148.927 155.586C148.927 154.61 148.781 154.001 148.489 153.757ZM72.6851 113.88L68.0023 126.757C74.4902 124.855 81.612 123.757 89.3677 123.465C97.1235 123.172 104.148 124.124 110.441 126.318C109.904 124.855 109.514 122.709 109.27 119.879C109.075 117.05 108.758 114.904 108.318 113.441L72.6851 113.88Z" fill="#0F3460"/>
<path d="M89.3678 32.1493C85.9534 32.6371 84.051 34.2225 83.6606 36.9053C84.4414 39.1492 86.4411 40.2223 89.6608 40.1248C92.4413 39.5882 94.0264 38.32 94.4168 36.32C93.685 33.7347 92.002 32.3445 89.3678 32.1493ZM89.2946 46.1247C84.1731 49.1491 79.0268 53.3441 73.8563 58.7098C68.7341 64.0266 64.3686 70.2951 60.7585 77.5142C59.539 82.9288 59.832 87.246 61.6365 90.4652C63.4905 93.636 67.612 99.2458 74.0025 107.294C82.0997 105.392 88.4413 104.611 93.0263 104.953C97.6118 105.294 102.831 105.928 108.685 106.855C111.904 101.831 114.197 98.1967 115.563 95.9529C116.929 93.6602 117.831 91.8309 118.27 90.4652C118.709 89.0994 118.879 87.7337 118.782 86.3679C118.685 85.0022 118.782 82.6605 119.075 79.3434C117.514 72.612 113.685 66.1972 107.587 60.1003C101.539 54.0026 95.4411 49.3441 89.2946 46.1247ZM89.6608 128.44C86.1486 128.44 82.0024 128.855 77.2217 129.684C72.4416 130.514 70.051 131.44 70.051 132.465C70.051 133.489 72.4416 134.294 77.2217 134.879C82.0024 135.416 86.1486 135.684 89.6608 135.684C93.1241 135.684 97.0509 135.343 101.441 134.66C105.88 133.977 108.099 133.123 108.099 132.099C108.099 131.074 105.88 130.221 101.441 129.538C97.0509 128.806 93.1241 128.44 89.6608 128.44ZM107.514 74.7337L107.441 84.6849C106.465 84.7339 105.172 84.7581 103.562 84.7581C102.002 84.7091 98.8796 84.6849 94.1968 84.6849V93.8312H84.2462V84.7581C80.734 84.7581 78.1729 84.807 76.563 84.9043C74.9537 84.9532 73.0024 84.9043 70.7096 84.7581V75.0268C72.3679 75.0268 74.7096 75.0268 77.7341 75.0268C80.8071 75.0268 82.9778 75.0268 84.2462 75.0268V64.6363H94.1968L94.1237 74.7337C95.0996 74.8806 97.3918 74.9289 101.002 74.8806C104.612 74.7827 106.782 74.7337 107.514 74.7337ZM32.4421 154.781C32.0031 154.977 31.8811 155.586 32.0762 156.611C32.2714 157.586 32.5397 157.927 32.8811 157.635C40.7834 152.22 47.1735 149.464 52.0515 149.367C56.9785 149.221 62.9539 149.391 69.9778 149.879C72.8072 149.879 75.856 149.659 79.1241 149.221C82.4411 148.781 85.4168 147.684 88.051 145.928C88.051 144.659 88.051 144.172 88.051 144.465C88.051 144.757 88.051 144.611 88.051 144.025C84.2946 145.977 81.0996 147.05 78.4654 147.245C75.8801 147.391 73.1976 147.464 70.4171 147.464C62.856 146.977 56.4902 147.196 51.3198 148.123C46.198 149.001 39.9054 151.22 32.4421 154.781ZM148.489 153.757C142.342 150.196 136.733 148.147 131.66 147.611C126.636 147.074 119.904 147.342 111.465 148.416C108.685 148.952 106.417 149.098 104.66 148.854C102.953 148.562 99.6604 146.952 94.7824 144.025C94.7824 144.611 94.7824 145.196 94.7824 145.781C94.7824 146.318 94.7824 146.855 94.7824 147.391C98.0995 149.879 100.904 151.123 103.197 151.123C105.49 151.074 108.075 151.05 110.953 151.05C118.514 150.318 124.66 149.732 129.391 149.294C134.172 148.854 140.538 151.318 148.489 156.684C148.781 156.879 148.928 156.513 148.928 155.586C148.928 154.61 148.781 154.001 148.489 153.757ZM72.6851 113.88L68.0023 126.757C74.4902 124.855 81.612 123.757 89.3678 123.465C97.1241 123.172 104.148 124.124 110.441 126.318C109.904 124.855 109.514 122.709 109.27 119.879C109.075 117.05 108.758 114.904 108.319 113.44L72.6851 113.88Z" fill="white"/>
</svg>
