<svg width="180" height="180" viewBox="0 0 180 180" fill="none" xmlns="http://www.w3.org/2000/svg">
<path d="M87.1875 28.125C90.8139 28.125 94.0477 29.5336 96.8901 32.3507C99.7813 35.1678 101.227 38.5534 101.227 42.5072C101.227 48.4874 98.6788 52.639 93.5826 54.9619C99.6097 56.1481 104.437 59.1874 108.062 64.0806C111.689 68.9243 113.502 74.3856 113.502 80.4645C113.502 88.6191 110.17 95.1924 103.506 100.184C106.887 101.568 110.537 103.125 114.457 104.855C118.426 106.535 122.2 109.451 125.777 113.602C129.354 117.754 132.491 123.685 135.186 131.395C137.881 139.056 139.694 149.558 140.625 162.903C137.979 163.051 131.069 163.125 119.897 163.125C108.724 163.076 96.8901 163.026 84.3941 162.977C71.8987 162.928 60.5301 162.903 50.2884 162.903C40.0468 162.853 34.5341 162.853 33.75 162.903C34.5831 141.255 39.0178 125.983 47.0543 117.087C55.1397 108.142 62.7598 102.359 69.9143 99.7397C63.6418 94.7481 60.5053 88.3226 60.5053 80.4645C60.5053 74.3856 62.4656 68.8253 66.3857 63.7841C70.3552 58.6935 75.4267 55.5797 81.6013 54.443C76.3087 51.9224 73.6628 47.9438 73.6628 42.5073C73.6628 38.5534 75.0105 35.1679 77.7054 32.3507C80.4004 29.5336 83.5611 28.1251 87.1875 28.1251V28.125Z" fill="#1A1A2E"/>
</svg>
