<svg width="180" height="180" viewBox="0 0 180 180" fill="none" xmlns="http://www.w3.org/2000/svg">
<path d="M62.6608 118.331C62.6608 119.209 62.6366 120.428 62.5877 121.989C62.5388 123.55 62.5146 124.721 62.5146 125.502C74.0751 122.721 83.8558 121.136 91.8557 120.746C99.855 120.306 110.074 121.575 122.514 124.55C122.514 123.819 122.465 122.648 122.367 121.038C122.318 119.38 122.294 118.16 122.294 117.38C113.806 114.599 104.27 113.209 93.6849 113.209C83.0992 113.209 72.7582 114.917 62.6608 118.331ZM62.5146 139.258C62.5146 139.843 62.4414 141.257 62.2952 143.501C62.1489 145.745 62.0758 147.111 62.0758 147.599C73.3927 145.014 84.2946 143.818 94.7824 144.013C105.27 144.209 114.709 145.355 123.099 147.453C123.294 146.575 123.294 145.062 123.099 142.916C122.952 140.721 122.879 139.38 122.879 138.891C114.49 136.843 105.002 135.794 94.4168 135.745C83.88 135.696 73.2459 136.868 62.5146 139.258ZM62.4414 128.941C62.4414 129.965 62.4414 131.16 62.4414 132.526C62.4904 133.843 62.5146 134.965 62.5146 135.892C71.7339 133.257 81.1243 131.745 90.6851 131.355C100.245 130.965 110.928 132.306 122.733 135.38C122.83 133.965 122.83 132.843 122.733 132.014C122.636 131.185 122.563 129.965 122.514 128.355C112.367 125.916 102.368 124.673 92.5138 124.624C82.7094 124.575 72.6851 126.014 62.4414 128.941ZM123.465 154.623C124.586 154.477 125.148 154.013 125.148 153.233C125.148 152.452 124.635 151.891 123.611 151.55C120.684 150.574 116.489 149.77 111.026 149.135C105.612 148.452 99.9039 148.038 93.9043 147.891C87.9531 147.696 82.2218 147.818 76.7093 148.258C71.1973 148.696 66.9049 149.501 63.8314 150.672C62.6608 151.111 61.9779 151.745 61.7827 152.574C61.6365 153.403 62.1731 154.086 63.3926 154.623C71.3436 156.038 81.7582 156.623 94.6361 156.379C107.514 156.086 117.123 155.501 123.465 154.623ZM146.952 52.1858C152.708 52.2834 155.757 55.9419 156.098 63.1614C155.854 68.8686 152.245 71.4296 145.269 70.8441C142.05 81.4292 138.684 91.7708 135.172 101.868C131.66 111.965 129.367 116.819 128.294 116.429C128.245 120.233 128.123 126.672 127.928 135.745C127.733 144.818 128.806 152.355 131.147 158.354C118.416 160.55 104.831 161.525 90.3921 161.282C75.9533 160.989 64.0997 160.282 54.8318 159.159C56.8806 148.184 57.7097 139.599 57.3193 133.404C56.9779 127.209 57.0026 121.843 57.393 117.307C54.466 115.697 51.4661 109.867 48.3929 99.819C45.3686 89.7705 42.1491 79.1854 38.7345 68.0636C37.4663 68.3077 35.3688 67.9416 32.442 66.9662C29.564 65.9419 28.125 63.3808 28.125 59.283C28.2714 55.0394 29.5884 52.1858 32.0762 50.7224C34.5639 49.2591 36.8322 48.5274 38.8809 48.5274C40.0516 48.5274 42.0272 49.0883 44.8076 50.2103C47.5881 51.3322 48.9539 53.7468 48.9051 57.4543C49.0026 60.0879 48.4904 62.1124 47.3686 63.5271C46.2954 64.9418 45.3686 65.8929 44.5881 66.3806C47.0271 70.1854 48.9051 73.0637 50.2221 75.0144C51.5392 76.9658 52.7831 78.8681 53.9538 80.7221C55.1733 82.5756 56.5633 84.8194 58.1243 87.4536C59.7341 90.0878 62.0511 93.9898 65.0756 99.1609C64.0513 90.8196 63.2222 81.9169 62.5877 72.4539C61.9538 62.9415 61.344 56.7225 60.7584 53.7956C59.0023 53.7956 57.4903 52.8443 56.222 50.942C55.0025 48.9908 54.3928 47.4786 54.3928 46.4055C54.4903 42.747 55.5147 40.1372 57.4661 38.5763C59.4658 36.9666 61.7096 36.1374 64.1976 36.0885C65.3192 36.0885 67.2953 36.5032 70.1241 37.3324C72.9534 38.1617 74.4654 40.625 74.6606 44.7226C74.6606 45.7469 74.2461 47.2591 73.4169 49.2591C72.6362 51.259 71.1242 52.5029 68.8804 52.9907C70.6365 56.6004 73.0024 63.2346 75.978 72.8927C78.9536 82.5024 81.3189 89.3559 83.0751 93.4532L89.514 46.4055C87.2702 46.503 85.3678 45.4543 83.8069 43.2592C82.2459 41.0641 81.4657 39.4544 81.4657 38.43C81.3189 35.3081 82.4411 32.8203 84.8312 30.9667C87.2213 29.1131 89.8554 28.1863 92.7338 28.1863C95.3679 27.8936 97.7822 28.6496 99.9776 30.4545C102.172 32.2594 103.246 34.6983 103.197 37.7715C103.197 39.1373 102.66 40.8446 101.587 42.8933C100.514 44.9421 98.9044 46.0884 96.7579 46.3323L102.904 94.4775L117.538 53.7956C116.416 53.2102 115.221 52.3322 113.953 51.1615C112.733 49.942 112.367 48.2103 112.855 45.9664C113.196 41.9665 114.806 39.43 117.685 38.3568C120.562 37.2349 122.587 36.6739 123.757 36.6739C124.928 36.6739 126.977 37.4788 129.904 39.0885C132.83 40.6495 134.294 43.2835 134.294 46.9908C134.342 50.3566 133.391 52.5761 131.44 53.6492C129.538 54.7224 127.416 55.1614 125.075 54.9663L119.953 99.3803L140.147 68.7954C138.977 68.0636 137.879 67.0146 136.855 65.6488C135.879 64.2341 135.489 62.8442 135.684 61.4784C136.074 58.8442 137.391 56.6246 139.635 54.82C141.879 53.0151 144.318 52.1371 146.952 52.1858ZM147.171 57.1612C146.147 57.1612 145.074 57.6489 143.952 58.6249C142.83 59.6003 142.269 60.8198 142.269 62.2834C142.269 63.8443 142.757 64.8686 143.733 65.3563C144.708 65.844 145.659 66.0881 146.586 66.0881C147.513 66.0881 148.464 65.7467 149.44 65.0638C150.464 64.3809 150.976 63.4539 150.976 62.2834C150.976 61.2101 150.586 60.0879 149.806 58.9174C149.074 57.7468 148.196 57.1612 147.171 57.1612ZM123.757 41.5031C120.88 41.5031 119.44 43.1372 119.44 46.4055C119.44 49.4298 120.953 50.8932 123.977 50.7956C125.391 50.7956 126.489 50.2834 127.27 49.2591C128.05 48.2347 128.391 47.2103 128.294 46.1859C128.197 45.1615 127.708 44.1372 126.83 43.1128C126.001 42.0397 124.977 41.5031 123.757 41.5031ZM92.8069 33.0886C91.7826 33.0886 90.6604 33.43 89.4409 34.113C88.2703 34.7471 87.6847 35.9422 87.6847 37.6983C87.6847 39.5031 88.2456 40.747 89.3677 41.4299C90.5383 42.0641 91.7578 42.3811 93.0263 42.3811C96.1481 42.3811 97.8553 40.7714 98.1478 37.5519C98.2457 36.2349 97.6359 35.1618 96.3191 34.3325C95.0017 33.5032 93.8312 33.0886 92.8069 33.0886ZM64.6363 41.7958C61.9048 41.7958 60.6611 43.064 60.9047 45.6006C61.0509 48.381 62.2221 49.6737 64.4169 49.4786C67.3436 49.2834 68.8072 47.8932 68.8072 45.3079C68.8072 42.9665 67.4168 41.7958 64.6363 41.7958ZM39.3199 53.7956C36.2955 53.7956 34.7834 55.3078 34.7834 58.3318C34.7834 60.381 36.2224 61.4053 39.1004 61.4053C41.4906 61.4053 42.6857 60.381 42.6857 58.3318C42.6857 57.7468 42.5637 56.8446 42.3198 55.6248C42.0759 54.4053 41.0759 53.7956 39.3199 53.7956ZM93.3919 54.1614L85.2705 108.38L100.343 108.746C99.9039 107.039 99.2942 103.355 98.514 97.6973C97.7822 91.9901 97.0262 86.0147 96.2454 79.7709C95.4653 73.4783 94.7824 67.7953 94.1968 62.7221C93.6602 57.6006 93.3919 54.7468 93.3919 54.1614ZM68.4411 65.8688C68.5879 71.0882 68.8804 78.6729 69.3191 88.6241C69.7584 98.5264 70.1972 106.039 70.6365 111.16C71.7581 110.917 73.8557 110.404 76.9292 109.624C80.0511 108.843 82.0997 108.404 83.0751 108.307C82.2459 104.502 79.8801 97.6241 75.978 87.6729C72.1243 77.6734 69.6122 70.4048 68.4411 65.8688ZM47.8807 79.4047C49.0514 84.2338 51.1001 90.234 54.0269 97.4048C56.9537 104.575 59.1244 110.746 60.5391 115.917C61.5144 115.087 62.9049 114.185 64.7094 113.209C66.5145 112.233 67.905 111.795 68.8804 111.892C66.6855 108.087 63.2706 102.868 58.6367 96.2336C54.0025 89.5511 50.4172 83.9413 47.8807 79.4047ZM119.148 65.1369L101.368 109.112L114.611 110.941C114.952 109.038 115.367 105.697 115.855 100.916C116.343 96.0874 116.806 91.1363 117.245 86.0631C117.733 80.9415 118.147 76.3318 118.489 72.234C118.83 68.0878 119.05 65.7219 119.148 65.1369ZM138.977 78.0879C137.026 82.1363 132.928 88.0633 126.684 95.868C120.489 103.624 116.733 108.916 115.416 111.746C116.245 112.136 117.977 112.673 120.611 113.356C123.294 113.989 125.269 114.185 126.538 113.941C126.879 112.038 127.708 109.209 129.026 105.453C130.343 101.697 131.708 97.8924 133.123 94.0388C134.587 90.1361 135.903 86.6486 137.074 83.5757C138.245 80.5022 138.879 78.6729 138.977 78.0879Z" fill="#0F3460"/>
<path d="M62.6608 118.331C62.6608 119.209 62.6366 120.428 62.5877 121.989C62.5388 123.55 62.5146 124.721 62.5146 125.502C74.0751 122.721 83.8558 121.136 91.8557 120.746C99.8556 120.306 110.075 121.575 122.514 124.55C122.514 123.819 122.465 122.648 122.367 121.038C122.318 119.38 122.294 118.16 122.294 117.38C113.806 114.599 104.27 113.209 93.685 113.209C83.0998 113.209 72.7583 114.917 62.6608 118.331ZM62.5146 139.258C62.5146 139.843 62.4415 141.257 62.2952 143.501C62.149 145.745 62.0758 147.111 62.0758 147.599C73.3928 145.014 84.2946 143.818 94.7824 144.014C105.27 144.209 114.709 145.355 123.099 147.453C123.294 146.575 123.294 145.062 123.099 142.916C122.952 140.721 122.879 139.38 122.879 138.891C114.49 136.843 105.002 135.794 94.4168 135.745C83.88 135.696 73.246 136.867 62.5146 139.258ZM62.4415 128.941C62.4415 129.965 62.4415 131.16 62.4415 132.526C62.4904 133.843 62.5146 134.965 62.5146 135.892C71.734 133.257 81.1243 131.745 90.6851 131.355C100.246 130.965 110.928 132.306 122.733 135.38C122.831 133.965 122.831 132.843 122.733 132.014C122.636 131.185 122.563 129.965 122.514 128.355C112.367 125.916 102.368 124.673 92.5144 124.624C82.7095 124.575 72.6851 126.014 62.4415 128.941ZM123.465 154.623C124.586 154.477 125.148 154.013 125.148 153.233C125.148 152.452 124.635 151.891 123.611 151.55C120.684 150.575 116.489 149.77 111.026 149.135C105.612 148.452 99.904 148.038 93.9043 147.891C87.9531 147.696 82.2218 147.818 76.7093 148.257C71.1973 148.696 66.9049 149.501 63.832 150.672C62.6608 151.111 61.978 151.745 61.7828 152.574C61.6365 153.403 62.1731 154.086 63.3926 154.623C71.3436 156.038 81.7583 156.623 94.6361 156.379C107.514 156.086 117.123 155.501 123.465 154.623ZM147.171 57.1613C146.147 57.1613 145.074 57.649 143.952 58.6249C142.83 59.6003 142.269 60.8198 142.269 62.2834C142.269 63.8443 142.757 64.8686 143.733 65.3563C144.708 65.844 145.659 66.0881 146.586 66.0881C147.513 66.0881 148.465 65.7467 149.44 65.0638C150.464 64.381 150.977 63.454 150.977 62.2834C150.977 61.2101 150.586 60.088 149.806 58.9174C149.074 57.7468 148.196 57.1613 147.171 57.1613ZM123.757 41.5031C120.88 41.5031 119.441 43.1372 119.441 46.4054C119.441 49.4298 120.953 50.8932 123.977 50.7956C125.391 50.7956 126.489 50.2834 127.27 49.259C128.05 48.2347 128.392 47.2103 128.294 46.1859C128.197 45.1616 127.709 44.1372 126.831 43.1128C126.001 42.0397 124.977 41.5031 123.757 41.5031ZM92.8069 33.0886C91.7826 33.0886 90.6604 33.4301 89.4409 34.113C88.2703 34.7471 87.6848 35.9422 87.6848 37.6983C87.6848 39.5031 88.2461 40.747 89.3678 41.4299C90.5383 42.0641 91.7578 42.3811 93.0263 42.3811C96.1481 42.3811 97.8553 40.7714 98.1484 37.552C98.2457 36.2349 97.636 35.1617 96.3191 34.3325C95.0018 33.5032 93.8312 33.0886 92.8069 33.0886ZM64.6363 41.7958C61.9048 41.7958 60.6611 43.0641 60.9047 45.6006C61.0515 48.381 62.2221 49.6737 64.417 49.4785C67.3436 49.2835 68.8073 47.8932 68.8073 45.3079C68.8073 42.9665 67.4168 41.7958 64.6363 41.7958ZM39.32 53.7955C36.2956 53.7955 34.7834 55.3077 34.7834 58.3318C34.7834 60.381 36.2224 61.4053 39.1004 61.4053C41.4906 61.4053 42.6857 60.381 42.6857 58.3318C42.6857 57.7468 42.5638 56.844 42.3199 55.6248C42.076 54.4053 41.076 53.7955 39.32 53.7955ZM93.3919 54.1614L85.2705 108.38L100.343 108.746C99.904 107.039 99.2942 103.355 98.514 97.6973C97.7822 91.9901 97.0262 86.0147 96.246 79.771C95.4653 73.4783 94.7824 67.7953 94.1968 62.7221C93.6602 57.6006 93.3919 54.7467 93.3919 54.1614ZM68.4411 65.8688C68.5879 71.0882 68.8804 78.673 69.3191 88.6241C69.7585 98.5264 70.1972 106.039 70.6365 111.16C71.7581 110.917 73.8557 110.404 76.9292 109.624C80.0511 108.843 82.0997 108.404 83.0751 108.307C82.246 104.502 79.8801 97.6241 75.978 87.673C72.1243 77.6734 69.6122 70.4048 68.4411 65.8688ZM47.8808 79.4048C49.0515 84.2338 51.1002 90.234 54.027 97.4048C56.9537 104.575 59.1244 110.746 60.5391 115.917C61.5145 115.087 62.905 114.185 64.7095 113.209C66.5145 112.233 67.905 111.795 68.8804 111.892C66.6855 108.087 63.2706 102.868 58.6367 96.2336C54.0026 89.5511 50.4173 83.9413 47.8808 79.4048ZM119.148 65.137L101.368 109.112L114.611 110.941C114.953 109.038 115.367 105.697 115.855 100.916C116.343 96.0874 116.807 91.1363 117.245 86.0631C117.733 80.9415 118.148 76.3318 118.49 72.234C118.831 68.0878 119.05 65.722 119.148 65.137ZM138.977 78.088C137.026 82.1363 132.928 88.0633 126.684 95.868C120.489 103.624 116.733 108.916 115.416 111.746C116.245 112.136 117.977 112.673 120.611 113.356C123.294 113.99 125.269 114.185 126.538 113.941C126.879 112.038 127.708 109.209 129.026 105.453C130.343 101.697 131.708 97.8925 133.123 94.0388C134.587 90.1361 135.903 86.6486 137.075 83.5757C138.245 80.5022 138.879 78.673 138.977 78.088Z" fill="white"/>
</svg>
