<svg width="180" height="180" viewBox="0 0 180 180" fill="none" xmlns="http://www.w3.org/2000/svg">
<path d="M33.75 163.47V148.031L41.945 148.251V135.374L48.896 135.227L59.652 123.154V75.3744C58.1884 73.4721 56.7253 71.5449 55.2618 69.5942C53.7984 67.6429 52.3351 65.7157 50.8717 63.8134C49.7497 63.8134 48.6522 63.8381 47.579 63.8865C46.5059 63.9354 45.4327 63.9354 44.3596 63.8865V39.4482H62.4324V48.0822L75.3834 48.009V39.375H102.675L102.602 47.9358L115.041 47.8627V39.375H133.48V63.9602L128.358 63.8134C126.407 65.5695 124.7 67.2767 123.236 68.9355C121.822 70.5454 120.139 72.423 118.187 74.5695V123.52L129.455 136.763L135.089 136.544V148.836H143.358V163.47H33.75ZM68.7982 64.3258C59.5299 64.3258 56.1155 65.3259 58.5546 67.3256C61.0419 69.2769 63.9444 70.2523 67.2615 70.2523H111.822C114.456 70.2523 116.773 69.2769 118.773 67.3256C120.822 65.3259 118.627 64.3258 112.188 64.3258H68.7982ZM66.7496 74.9351V124.691H111.895L111.968 74.9351H66.7496ZM62.0668 129.446L54.9691 136.544H122.943L116.651 129.446H62.0668ZM49.4814 140.934V147.593H128.797V140.934H49.4814ZM40.4084 154.324V158.714H138.602V154.324H40.4084ZM49.1156 43.7651V59.2037H128.797V43.692L120.529 43.7651L120.456 52.1065H97.1876V43.7651H81.4562L81.3099 52.2528L56.7253 52.1796L56.8716 43.692L49.1156 43.7651Z" fill="#0F3460"/>
<path d="M68.7982 64.3258C59.5299 64.3258 56.1154 65.3259 58.5545 67.3256C61.0419 69.2769 63.9444 70.2523 67.2615 70.2523H111.822C114.456 70.2523 116.773 69.2769 118.773 67.3256C120.822 65.3259 118.627 64.3258 112.188 64.3258H68.7982ZM66.7496 74.9351V124.691H111.895L111.968 74.9351H66.7496ZM62.0668 129.446L54.9691 136.544H122.943L116.651 129.446H62.0668ZM49.4814 140.934V147.593H128.797V140.934H49.4814ZM40.4084 154.324V158.714H138.602V154.324H40.4084ZM49.1156 43.7652V59.2037H128.797V43.692L120.529 43.7652L120.455 52.1065H97.1876V43.7652H81.4562L81.3099 52.2528L56.7253 52.1797L56.8715 43.692L49.1156 43.7652Z" fill="white"/>
</svg>
