<svg width="400" height="400" viewBox="0 0 400 400" fill="none" xmlns="http://www.w3.org/2000/svg">
<path d="M125.853 363.047C125.853 361.637 127.822 359.912 130.65 358.843L135.446 357.03L131.748 350.365C125.149 338.472 123.026 325.681 123.003 297.687C122.991 283 123.729 266.643 124.645 261.34L126.308 251.696H121.677C119.129 251.696 115.95 252.253 114.612 252.933C112.66 253.924 111.464 253.717 108.564 251.885C105.592 250.005 105.099 248.425 105.787 242.983C106.502 237.326 108.297 234.644 118.155 224.497C124.626 217.837 134.675 209.44 141.057 205.363C149.44 200.007 153.968 195.9 158.281 189.742C161.5 185.147 165.459 180.064 167.078 178.446C170.255 175.272 170.31 175.305 159.867 174.124C149.003 172.894 152.397 164.129 164.932 161.041L171.29 159.475L165.644 151.93C151.156 132.567 138.043 94.949 141.993 84.074C143.099 81.029 144.609 80.137 151.336 78.56C155.748 77.525 163.236 76.662 167.975 76.643C181.321 76.588 185.207 75.769 185.207 73.009C185.207 71.685 186.521 69.289 188.127 67.684C191.698 64.117 189.164 63.828 179.895 66.748C170.903 69.58 165.052 69.328 162.625 66.002C159.204 61.317 158.27 56.587 159.581 50.6C161.085 43.735 163.269 42.999 175.433 45.258C180.205 46.145 184.421 46.71 184.799 46.514C185.178 46.318 184.158 44.828 182.53 43.203C180.903 41.577 179.034 38.511 178.378 36.389C177.282 32.851 177.635 32.422 182.631 31.221C189.457 29.581 229.107 28.658 233.053 30.048C235.573 30.937 235.55 31.72 232.862 36.783C231.189 39.934 229.109 43.369 228.242 44.415C226.904 46.027 227.225 46.195 230.347 45.51C242.78 42.782 250.667 41.81 252.537 42.776C255.821 44.473 256.681 59.913 253.65 62.788C251.331 64.988 249.947 65.237 241.101 65.045C235.632 64.927 231.158 65.055 231.158 65.332C231.158 65.608 232.913 67.612 235.059 69.785C237.205 71.958 238.447 74.165 237.818 74.69C237.136 75.261 240.984 75.646 247.381 75.646C253.269 75.646 261.085 76.293 264.751 77.084L271.416 78.523L270.401 92.167C268.661 115.556 264.397 130.633 253.956 150.317C251.839 154.307 251.059 157.372 252.112 157.554C253.118 157.727 256.139 158.761 258.824 159.852C265.692 162.643 265.354 166.928 257.963 170.746C253.047 173.286 252.224 174.452 252.252 178.83C252.27 181.644 253.536 186.996 255.065 190.723C257.638 196.999 258.823 198.031 271.115 204.716C290.067 215.022 296.648 222.506 297.627 234.868C298.651 247.801 294.927 250.998 282.087 248.206C278.904 247.514 278.608 247.739 279.715 250.016C283.367 257.535 287.276 283.02 287.405 300.16C287.55 319.375 285.4 329.444 278.021 344.095C275.688 348.728 275.798 349.373 279.426 352.413C282.965 355.379 283.065 355.861 280.414 357.23C277.812 358.575 276.819 358.584 271.878 357.31C267.898 356.285 264.951 356.139 261.647 356.803C250.884 358.966 202.368 361.824 174.676 361.926C151.986 362.01 144.4 362.39 138.543 363.735C128.51 366.038 125.853 365.895 125.853 363.047V363.047Z" fill="black" stroke="black" stroke-width="6.80005"/>
<path d="M264.736 98.861C265.833 84.328 265.598 80.823 263.458 79.907C261.907 79.243 250.919 78.647 236.576 78.451C223.235 78.268 211.661 77.777 210.857 77.36C208.225 75.995 213.423 74.443 222.375 73.922C227.206 73.64 231.158 73.232 231.158 73.012C231.158 71.744 224.784 65.057 222.131 63.542C216.613 60.392 221.616 59.725 234.825 61.849C241.545 62.929 247.557 63.547 248.187 63.222C250.086 62.242 250.583 47.555 248.763 46.166C247.419 45.139 244.466 45.427 234.343 47.575C227.343 49.06 221.063 49.991 220.392 49.644C219.719 49.296 221 46.66 223.237 43.784C225.474 40.909 227.874 37.042 228.571 35.192L229.838 31.828L209.915 32.378C198.958 32.682 188.491 33.241 186.656 33.621C182.416 34.499 183.649 37.577 191.182 44.913C194.215 47.866 196.694 50.648 196.694 51.095C196.694 52.472 192.112 52.014 179.577 49.382C172.958 47.993 166.997 47.138 166.331 47.482C164.62 48.366 164.805 60.754 166.577 64.028L168.052 66.753L179.625 63.735C186.411 61.965 192.672 60.959 194.762 61.301C198.2 61.865 198.183 62.065 194.275 66.923C190.432 71.7 190.387 72.107 193.414 74.831C197.271 78.303 197.494 78.252 174.867 79.041C165.495 79.369 155.587 80.189 152.849 80.864C148.465 81.945 147.803 82.769 147.297 87.775C145.638 104.185 163.795 147.293 176.627 157.41C180.539 160.494 179.066 162.682 173.08 162.682C166.578 162.682 158.402 166.296 158.402 169.171C158.402 171.193 159.577 171.657 166.06 172.193C175.638 172.983 175.722 173.851 167.274 184.676C158.123 196.401 145.887 216.051 140.25 228.07C130.763 248.3 128.88 259.36 128.907 294.72C128.932 329.114 130.558 338.388 139.019 352.433L142.712 358.563L137.155 360.047C134.097 360.863 131.597 361.732 131.597 361.977C131.597 362.611 141.544 360.574 144.376 359.359C145.91 358.702 154.119 358.589 167.57 359.039C188.928 359.754 219.837 358.276 252.662 354.97C263.316 353.898 268.514 353.77 271.204 354.513C277.202 356.171 278.086 355.717 273.629 353.266L269.482 350.986L274.121 340.381C281.633 323.208 283.536 312.405 282.241 294.293C280.242 266.352 276.502 252.941 259.883 214.113C252.874 197.74 248.46 185.016 248.119 180.213C247.606 172.949 247.864 172.384 252.769 170.035C260.11 166.518 259.864 162.34 252.218 160.704C245.013 159.162 244.927 157.577 251.37 145.068C256.933 134.268 261.058 126.146 261.862 118.422C264.207 111.067 263.994 108.667 264.736 98.861V98.861Z" fill="black" stroke="black" stroke-width="6.80005"/>
<path d="M122.56 248.158C125.422 249.637 125.756 249.471 126.854 246.031C131.144 232.575 141.349 211.738 146.012 206.911C146.653 206.248 144.475 207.263 141.175 209.167C132.686 214.064 112.614 235.384 111.211 240.994C110.573 243.539 110.658 246.866 111.396 248.388L112.74 251.153L116.098 248.853C119.193 246.733 119.697 246.679 122.559 248.158H122.56ZM292.396 236.295C292.442 225.478 283.318 214.499 267.977 206.911L262.417 204.161L268.755 219.275C275.401 235.121 281.136 244.278 284.415 244.278C285.486 244.278 287.022 244.619 287.828 245.035C290.656 246.496 292.367 243.223 292.397 236.295H292.396Z" fill="black" stroke="black" stroke-width="6.80005"/>
<path d="M140.802 352.641C135.472 343.733 132.972 336.896 131.587 327.429C130.485 319.907 129.906 296.087 130.444 280.474C131.18 259.146 132.477 251.072 137.159 238.684C142.479 224.61 154.488 204.164 167.954 186.256C174.379 177.711 175.556 175.206 174.172 173.026C173.325 171.692 172.002 171.286 166.387 170.639C163.527 170.309 160.797 169.867 160.322 169.656C159.5 169.292 159.518 169.222 160.695 168.219C162.72 166.493 167.098 164.989 171.587 164.477C177.61 163.789 178.552 163.487 179.518 161.928C180.699 160.023 180.112 158.712 176.599 155.407C166.246 145.667 152.505 116.299 149.219 96.891C148.279 91.33 148.558 85.077 149.801 83.871C151.611 82.117 159.041 81.281 181.065 80.35C194.433 79.785 196.079 79.477 196.502 77.462C196.742 76.319 196.502 75.839 194.817 74.082C193.737 72.955 192.854 71.842 192.856 71.61C192.857 71.378 194.075 69.593 195.561 67.644C198.613 63.641 198.981 62.644 197.963 61.14C196.452 58.906 190.51 59.366 177.315 62.74C173.052 63.83 169.313 64.722 169.007 64.722C167.534 64.722 166.047 56.747 166.573 51.671L166.854 48.957L169.502 49.253C170.959 49.416 176.344 50.363 181.47 51.356C192.432 53.482 196.292 53.769 197.322 52.536C198.597 51.009 197.703 49.487 192.238 43.876C186.582 38.071 185.184 36.168 186.085 35.502C186.376 35.286 188.825 34.957 191.527 34.772C196.112 34.456 221.334 33.502 225.847 33.472L227.875 33.459L226.982 35.361C226.491 36.406 225.036 38.732 223.749 40.529C220.033 45.716 218.975 47.629 218.975 49.156C218.975 50.276 219.213 50.656 220.076 50.915C221.656 51.389 226.122 50.838 234.56 49.127C238.615 48.304 243.192 47.477 244.731 47.288C247.285 46.975 247.571 47.036 247.996 47.984C248.584 49.299 248.598 57.301 248.017 59.805C247.477 62.133 247.909 62.111 236.035 60.433C225.026 58.877 220.722 58.797 219.353 60.124C218.493 60.957 218.434 61.233 218.868 62.373C219.14 63.087 220.098 64.122 220.998 64.671C221.898 65.221 224.018 66.988 225.71 68.6L228.785 71.529L226.513 71.873C225.263 72.062 221.871 72.453 218.975 72.742C212.885 73.349 209.453 74.396 209.092 75.754C208.712 77.191 209.233 78.215 210.647 78.805C211.419 79.127 220.025 79.555 231.991 79.865C257.381 80.525 262.725 80.919 263.536 82.19C264.736 84.07 263.168 108.37 261.392 115.414C260.836 117.624 260.045 120.793 259.636 122.457C258.529 126.957 256.513 131.764 251.996 140.675C247.046 150.437 245.513 154.182 245.512 156.507C245.512 159.827 246.659 160.845 252.036 162.295C253.655 162.732 255.424 163.438 255.968 163.865C256.932 164.621 256.938 164.665 256.183 165.686C255.759 166.262 253.871 167.59 251.988 168.639C247.398 171.196 246.776 172.207 246.776 177.119C246.776 184.405 249.424 192.579 259.975 217.865C274.408 252.453 277.787 263.745 280.081 285.062C282.159 304.37 281.465 315.772 277.476 327.846C276.329 331.32 270.399 345.81 268.409 350.004C267.723 351.448 267.705 351.712 268.259 352.139C268.687 352.469 267.469 352.629 264.467 352.638C262.035 352.645 257.959 352.866 255.411 353.13C224.399 356.343 205.301 357.328 173.002 357.382L143.668 357.432L140.802 352.641Z" fill="#AEEEC0"/>
<path d="M112.587 247.95C112.085 246.841 112.083 246.826 112.094 244.519C112.102 242.832 112.172 241.994 112.349 241.441C112.929 239.629 114.749 237.013 118.771 232.212C123.359 226.729 128.325 221.573 133.63 216.781C136.976 213.766 141.377 210.357 141.592 210.613C141.635 210.665 141.408 211.135 141.087 211.658C139.127 214.848 135.953 220.947 133.31 226.602C131.51 230.456 127.746 239.6 126.706 242.647C124.926 247.867 125.058 247.554 124.658 247.501C124.458 247.474 123.558 247.097 122.656 246.663C119.731 245.255 118.866 245.373 115.461 247.643C114.289 248.425 113.276 249.065 113.211 249.065C113.146 249.065 112.865 248.563 112.587 247.95V247.95ZM287.786 243.526C287.36 243.341 286.26 243.071 285.341 242.927C283.833 242.691 283.591 242.6 282.869 242.005C280.166 239.777 276.117 232.85 271.613 222.747C269.641 218.324 265.077 207.32 265.169 207.21C265.279 207.079 268.519 208.7 271.201 210.23C280.185 215.352 286.588 221.728 289.449 228.4C290.611 231.11 291.031 232.94 291.126 235.721C291.288 240.431 290.383 243.926 289.015 243.879C288.765 243.87 288.211 243.712 287.785 243.526H287.786Z" fill="#AEEEC0"/>
<path d="M260.083 123.348C258.454 125.999 245.288 129.215 235.943 129.244C227.643 129.27 219.841 125.751 217.858 121.088C216.74 118.458 217.404 117.602 222.329 115.328C232.375 110.692 255.357 109.551 259.329 113.492C260.124 114.28 261.287 115.767 261.861 118.422C261.391 119.831 260.807 122.169 260.083 123.348ZM199.167 141.42C197.452 139.987 203.19 134.397 207.637 133.168C211.533 132.091 212.63 132.339 218.447 135.618C224.59 139.081 225.669 141.144 221.681 141.801C220.694 141.964 217.897 140.512 215.467 138.575C211.856 135.697 210.543 135.27 208.287 136.237C206.769 136.887 205.527 137.979 205.527 138.662C205.527 140.258 200.424 142.471 199.167 141.42ZM179.081 129.549C173.531 129.001 167.251 123.814 167.241 119.769C167.238 118.082 169.201 115.189 171.605 113.34C175.35 110.46 177.217 109.937 184.635 109.686C192.43 109.422 194.194 109.801 202.283 113.479C207.226 115.727 211.27 118.161 211.27 118.889C211.27 122.089 191.211 130.672 185.02 130.12C184.188 130.046 181.516 129.79 179.081 129.549ZM168.642 103.949C165.841 102.501 170.556 100.372 183.906 97.055C193.302 94.72 198.938 93.818 200.165 94.451C202.261 95.534 188.854 100.726 177.805 103.111C170.257 104.741 170.187 104.747 168.642 103.949V103.949ZM244.57 101.552C234.52 98.965 227.081 94.987 229.73 93.619C231.047 92.939 233.353 93.296 236.868 94.725C239.724 95.885 245.58 97.796 249.88 98.971C263.222 102.615 258.194 105.059 244.57 101.551V101.552Z" fill="black" stroke="black" stroke-width="1.828"/>
<path d="M184.773 121.455C184.414 118.79 185.091 115.675 186.276 114.531C188.189 112.685 187.911 112.452 183.795 112.452C178.497 112.452 172.977 116.107 172.977 119.615C172.977 122.602 178.068 126.299 182.181 126.3C184.875 126.3 185.313 125.48 184.773 121.455V121.455ZM204.465 119.992C206.072 118.648 205.507 117.918 201.697 116.415L196.911 114.525L195.889 118.817C195.328 121.177 193.604 123.937 192.06 124.951C190.24 126.145 191.573 125.893 195.848 124.236C199.476 122.829 203.353 120.919 204.464 119.991L204.465 119.992Z" fill="white" stroke="black" stroke-width="1.82797"/>
<path d="M251.934 124.175C256.114 123.045 258.401 118.589 255.874 116.503C254.822 115.635 250.942 114.791 247.249 114.627C240.664 114.334 240.516 114.409 239.397 118.627C238.769 120.992 237.655 123.736 236.921 124.724C235.735 126.32 236.317 126.44 242.096 125.799C245.676 125.401 250.103 124.671 251.934 124.175V124.175ZM230.503 118.027C232.246 115.255 232.193 115.227 228 116.687C223.92 118.109 223.369 119.953 226.017 123.332C226.924 124.489 227.35 124.38 227.952 122.837C228.377 121.75 229.525 119.585 230.504 118.027H230.503Z" fill="white" stroke="black" stroke-width="1.82797"/>
</svg>
