<svg width="400" height="400" viewBox="0 0 400 400" fill="none" xmlns="http://www.w3.org/2000/svg">
<path d="M109.432 345.505C104.62 345.055 102.892 344.805 101.569 344.371C100.759 344.105 99.932 343.887 99.731 343.887C98.739 343.887 95.62 342.859 94.169 342.054C93.975 341.946 93.716 341.858 93.593 341.858C93.377 341.858 89.909 340.278 89.013 339.772C88.413 339.434 85.696 336.832 85.696 336.598C85.696 336.494 85.148 335.932 84.479 335.35C83.328 334.349 82.247 332.65 82.247 331.84C82.247 331.673 82.163 331.483 82.06 331.42C81.957 331.356 81.814 331.039 81.743 330.715C81.672 330.39 81.48 330.074 81.316 330.011C81.126 329.938 81.022 329.621 81.026 329.132C81.03 328.712 80.986 327.454 80.928 326.338C80.792 323.668 81.418 312.695 81.756 311.833C82.247 310.578 82.401 306.839 82.699 288.907C82.714 287.959 82.613 286.004 82.473 284.563C82.075 280.466 82.273 274.357 82.942 270.04C83.635 265.573 83.789 264.388 84.174 260.551C84.346 258.847 84.632 256.793 84.81 255.987C85.282 253.858 85.47 252.864 85.69 251.333C85.797 250.584 86.29 248.621 86.785 246.971C87.2084 245.57 87.6151 244.164 88.005 242.753C88.697 240.176 89.4137 237.606 90.155 235.043C90.7324 233.017 91.3018 230.988 91.863 228.957L93.433 223.279C93.773 222.052 94.309 220.499 94.623 219.826C94.938 219.153 95.389 218.011 95.626 217.288C95.863 216.565 96.142 215.791 96.246 215.568C96.35 215.344 96.811 214.203 97.27 213.032C97.6255 212.113 97.9955 211.199 98.38 210.292C98.734 209.512 99.532 207.189 100.327 204.624C100.671 203.514 101.172 202.128 101.439 201.544C102.171 199.944 103.143 197.359 103.144 197.009C103.145 196.839 103.284 196.435 103.453 196.111C103.769 195.505 104.467 192.783 104.628 191.527C104.914 189.301 105.498 186.872 106.478 183.817C107.638 180.207 108.183 178.312 108.318 177.427C108.493 176.291 109.194 173.947 109.683 172.862L110.594 170.855C110.869 170.253 111.219 169.405 111.372 168.971C111.526 168.537 111.791 167.981 111.962 167.738C112.132 167.494 112.273 167.109 112.274 166.883C112.274 166.657 112.402 166.228 112.557 165.931C112.712 165.634 113.034 164.869 113.273 164.231C113.512 163.593 113.841 162.88 114.004 162.647C114.168 162.413 114.301 162.034 114.301 161.803C114.301 161.387 114.517 160.92 115.611 158.965C115.924 158.407 116.319 157.677 116.49 157.342C116.66 157.007 116.96 156.502 117.155 156.22C117.351 155.938 117.73 155.3 117.998 154.8C118.266 154.301 118.591 153.71 118.72 153.487C118.85 153.264 119.417 152.123 119.983 150.951C120.548 149.78 121.415 148.273 121.909 147.604C122.403 146.934 123.059 145.884 123.369 145.271C124.039 143.933 126.459 140.381 127.373 139.387C127.733 138.997 128.536 137.988 129.158 137.147C129.781 136.304 130.435 135.494 130.613 135.347C130.791 135.198 130.937 134.973 130.937 134.845C130.937 134.717 131.28 134.184 131.698 133.66C132.429 132.745 133.454 131.35 133.878 130.689C134.865 129.157 136.103 127.754 139.391 124.437C141.492 122.319 143.622 120.306 144.124 119.964C145.754 118.855 146.817 117.395 147.034 115.964C147.116 115.424 147.064 115.06 146.878 114.849C146.522 114.446 145.95 112.195 145.95 111.197C145.95 110.773 145.814 110.04 145.647 109.567C145.454 109.021 145.271 107.257 145.144 104.724C144.924 100.326 144.88 99.882 144.298 96.074C143.441 90.466 143.288 89.568 143.12 89.176C143.025 88.952 142.836 88.086 142.7 87.248C142.532 86.2683 142.317 85.2972 142.056 84.338C141.513 82.43 141.564 77.146 142.14 75.588C142.691 74.1 143.244 73.685 144.677 73.683C146.425 73.683 147.481 73.983 148.773 74.861C150.688 76.161 151.333 77.053 152.448 79.945C152.685 80.558 153.039 81.243 153.236 81.466C153.433 81.689 153.716 82.192 153.866 82.582C154.016 82.972 154.483 83.805 154.903 84.432C155.323 85.059 155.726 85.808 155.799 86.097C155.871 86.387 156.059 86.729 156.215 86.859C156.372 86.989 156.5 87.303 156.5 87.557C156.5 87.811 156.831 88.507 157.236 89.104C157.641 89.701 158.419 91.072 158.965 92.149C159.51 93.227 160.372 94.614 160.881 95.232C161.476 95.9747 161.947 96.8084 162.276 97.701C162.534 98.441 162.793 98.97 162.85 98.877C162.907 98.785 162.96 97.659 162.97 96.377C162.978 95.094 163.13 93.04 163.309 91.813C163.487 90.586 163.717 88.988 163.82 88.263C163.923 87.537 164.098 85.529 164.21 83.799C164.556 78.449 165.202 73.871 165.928 71.627C166.542 69.727 167.252 66.607 167.252 65.809C167.252 64.822 167.864 63.24 168.439 62.742C169.681 61.665 169.939 61.482 170.217 61.482C170.379 61.482 170.572 61.642 170.647 61.837C170.722 62.032 170.986 62.395 171.233 62.642C171.481 62.89 171.749 63.298 171.828 63.548C171.908 63.798 172.176 64.164 172.425 64.359C172.675 64.555 172.992 64.992 173.133 65.331C173.273 65.669 173.468 65.946 173.566 65.946C173.664 65.946 173.744 66.113 173.744 66.316C173.744 66.716 175.16 69.418 176.024 70.669C176.581 71.475 176.841 72.342 177.296 74.912C177.448 75.772 177.67 76.655 177.789 76.877C177.907 77.099 178.005 77.433 178.005 77.619C178.005 77.806 178.472 79.067 179.042 80.422C179.613 81.778 180.195 83.297 180.334 83.799C180.596 84.737 180.972 85.827 181.768 87.959C182.018 88.628 182.333 89.586 182.468 90.089C182.602 90.591 182.835 91.367 182.984 91.813C183.134 92.259 183.366 93.218 183.501 93.943C183.636 94.668 183.906 95.491 184.101 95.771C184.296 96.051 184.521 96.801 184.6 97.439C184.709 98.311 184.838 98.626 185.122 98.716C185.43 98.814 185.457 98.904 185.272 99.202C185.093 99.486 185.117 99.673 185.378 100.046C185.563 100.31 185.714 100.756 185.715 101.038C185.715 101.32 185.853 101.813 186.019 102.132C186.186 102.452 186.322 102.81 186.322 102.928C186.322 103.046 186.474 103.309 186.659 103.514C186.844 103.718 187.05 104.225 187.118 104.641C187.291 105.708 187.86 105.961 189.725 105.801C190.557 105.73 191.618 105.77 192.159 105.893C194.759 106.486 197.614 107.21 197.886 107.345C198.054 107.428 198.784 107.592 199.509 107.709L202.147 108.131C203.537 108.353 207.393 108.324 211.756 108.058C213.846 107.931 214.588 107.801 215.484 107.404C216.531 106.941 216.906 106.902 221.327 106.785C226.091 106.66 227.614 106.772 230.347 107.448C232.135 107.891 234.784 108.315 236.524 108.438C237.411 108.501 238.644 108.68 239.263 108.836C239.973 109.013 240.687 109.178 241.403 109.329C241.961 109.443 243.193 109.803 244.143 110.129C245.091 110.453 246.506 110.828 247.287 110.96C248.067 111.093 249.939 111.423 251.446 111.695C252.952 111.966 254.961 112.289 255.909 112.412C258.24 112.715 260.796 113.216 261.261 113.462C261.471 113.573 262.109 113.734 262.681 113.819C263.77 113.981 266.348 114.455 268.848 114.952C269.66 115.113 270.705 115.245 271.169 115.245C272.059 115.245 273.293 115.442 276.299 116.063C277.302 116.27 278.9 116.543 279.849 116.667L283.805 117.189C287.042 117.616 288.086 117.803 289.789 118.259C290.626 118.484 291.539 118.728 291.819 118.801C292.985 119.108 295.006 119.764 295.584 120.022C295.926 120.175 296.611 120.362 297.106 120.438C297.601 120.514 298.159 120.735 298.346 120.928C298.532 121.122 299.034 121.345 299.461 121.424C299.888 121.503 300.877 121.874 301.658 122.25C302.438 122.626 303.523 123.078 304.067 123.254C304.611 123.431 305.247 123.71 305.481 123.874C305.715 124.038 306.078 124.172 306.287 124.172C306.495 124.172 306.713 124.349 306.769 124.566C306.829 124.797 307.119 125.014 307.47 125.091C308.29 125.271 309.57 126.14 309.886 126.731C310.048 127.033 310.452 127.301 310.949 127.434C311.699 127.636 312.58 128.404 314.789 130.779C315.092 131.106 315.578 131.602 315.867 131.881C316.157 132.16 316.456 132.454 316.532 132.535C316.608 132.616 317.172 133.116 317.786 133.646C320.196 135.729 322.423 138.073 322.565 138.677C322.691 139.219 323.57 140.575 324.34 141.417C324.695 141.804 324.868 142.283 325.107 143.539C325.213 144.093 325.474 144.915 325.688 145.365C326.688 147.467 326.885 148.401 326.723 150.28C326.639 151.263 326.42 152.42 326.236 152.853C326.052 153.285 325.901 153.896 325.901 154.21C325.901 154.525 325.811 154.839 325.699 154.908C325.587 154.976 325.496 155.35 325.496 155.738C325.496 156.126 325.36 156.65 325.194 156.904C325.028 157.157 324.714 157.884 324.494 158.522C324.275 159.158 323.963 159.93 323.8 160.235C323.307 161.16 322.859 162.256 322.855 162.546C322.853 162.696 322.567 163.139 322.22 163.53C321.872 163.92 321.334 164.8 321.025 165.484C320.715 166.168 320.365 166.788 320.245 166.862C320.126 166.936 319.888 167.289 319.715 167.647C319.388 168.327 319.288 168.448 316.162 171.974C314.222 174.163 308.138 180.368 307.285 181.028C307.033 181.223 306.759 181.383 306.677 181.383C306.594 181.383 306.267 181.607 305.95 181.88C305.632 182.153 304.789 182.723 304.075 183.147C303.361 183.572 302.725 184.077 302.662 184.27C302.554 184.597 300.974 185.44 300.465 185.44C300.34 185.441 299.926 185.707 299.545 186.033C299.165 186.358 298.618 186.743 298.329 186.89C298.039 187.037 297.516 187.368 297.164 187.626C296.813 187.884 295.914 188.27 295.167 188.483C294.42 188.697 293.657 189.043 293.473 189.254C293.034 189.754 292.423 190.069 291.172 190.441C290.61 190.608 289.682 190.997 289.108 191.306C288.534 191.616 287.426 192.079 286.645 192.336C285.864 192.592 284.677 193.051 284.007 193.356C282.162 194.194 281.107 194.57 280.593 194.57C280.338 194.57 279.952 194.704 279.735 194.868C279.468 195.049 279.157 195.156 278.835 195.179C278.091 195.199 275.972 195.839 275.385 196.222C275.106 196.404 274.375 196.712 273.762 196.906C273.149 197.101 272.204 197.574 271.662 197.958C271.122 198.341 269.752 198.964 268.62 199.342C265.082 200.522 264.322 200.802 263.458 201.243C262.998 201.478 262.308 201.671 261.927 201.671C261.546 201.671 261.125 201.801 260.992 201.961C260.859 202.122 260.462 202.316 260.112 202.393C259.76 202.471 259.332 202.603 259.162 202.686C258.62 202.951 257.416 203.294 257.026 203.294C256.82 203.294 256.498 203.432 256.312 203.601C256.125 203.77 255.459 204.041 254.832 204.205C254.205 204.368 253.301 204.68 252.822 204.898C252.344 205.115 250.903 205.537 249.62 205.835C248.337 206.133 246.967 206.47 246.577 206.585C245.448 206.915 243.481 207.134 239.882 207.329C235.125 207.588 233.248 208.169 232.248 209.695C231.953 210.146 231.957 210.271 232.301 211.254C232.507 211.841 232.927 212.678 233.236 213.113C233.544 213.548 233.796 213.979 233.796 214.07C233.796 214.162 234.031 214.751 234.318 215.38C234.795 216.423 235.041 217.356 235.354 219.32C235.416 219.711 235.538 220.122 235.624 220.234C235.964 220.671 237.042 224.254 237.042 224.944C237.042 225.658 237.57 228.131 238.592 232.197C238.872 233.31 239.152 234.862 239.215 235.647C239.277 236.431 239.406 237.224 239.501 237.409C239.596 237.594 239.726 238.182 239.79 238.716C239.854 239.25 239.964 239.78 240.035 239.895C240.105 240.009 240.231 240.79 240.313 241.631C240.489 243.441 241.18 246.291 242.085 248.941C242.917 251.379 243.01 251.72 243.14 252.795C243.303 254.144 244.088 259.398 244.337 260.809C244.511 261.792 245.205 266.039 245.597 268.519C245.704 269.188 245.871 271.47 245.97 273.59C246.069 275.71 246.253 277.947 246.38 278.56C246.603 279.644 246.688 280.637 247.163 287.69C247.406 291.308 247.44 291.59 247.792 292.965C247.92 293.467 248.063 294.317 248.109 294.855C248.155 295.392 248.342 296.145 248.525 296.53C248.707 296.914 248.851 297.611 248.845 298.079C248.835 298.699 248.939 299.003 249.226 299.204C249.473 299.377 249.62 299.717 249.62 300.114C249.62 301.112 250.358 302.388 251.612 303.556C252.246 304.146 252.947 305.017 253.17 305.49C253.393 305.963 253.626 306.351 253.687 306.353C253.749 306.353 253.759 306.693 253.711 307.106C253.616 307.923 253.28 308.384 252.779 308.384C252.595 308.384 252.46 308.556 252.46 308.791C252.46 309.076 252.22 309.294 251.664 309.517C251.227 309.692 250.819 309.964 250.759 310.12C250.699 310.28 250.511 310.352 250.337 310.286C250.165 310.22 249.637 310.346 249.163 310.566C248.689 310.786 247.936 311.077 247.49 311.214C247.043 311.35 246.39 311.591 246.039 311.749C245.687 311.906 245.32 312.035 245.224 312.035C245.127 312.035 244.724 312.256 244.326 312.525C243.929 312.795 242.972 313.229 242.2 313.489C241.427 313.749 240.722 314.077 240.633 314.216C240.576 314.292 240.504 314.354 240.42 314.398C240.337 314.441 240.244 314.466 240.15 314.47C239.792 314.47 237.523 315.535 236.433 316.215C236.043 316.459 234.971 316.903 234.051 317.203C233.131 317.503 232.328 317.832 232.264 317.935C232.201 318.038 231.924 318.122 231.649 318.122C231.375 318.122 230.627 318.41 229.988 318.763C227.806 319.967 226.999 320.341 226.289 320.477C225.899 320.553 225.279 320.875 224.913 321.194C224.546 321.513 224.16 321.774 224.055 321.774C223.95 321.774 223.194 322.087 222.375 322.47C221.557 322.853 220.619 323.228 220.292 323.303C219.142 323.567 217.254 324.289 216.505 324.753C215.195 325.564 212.267 326.866 210.16 327.574C207.436 328.489 206.158 328.941 204.545 329.558C203.262 330.049 201.187 330.59 198.698 331.081L196.669 331.483C196.167 331.583 195.026 331.856 194.133 332.091C193.24 332.325 190.673 332.79 188.429 333.122C186.185 333.455 183.491 333.923 182.444 334.162C181.397 334.402 180.175 334.667 179.729 334.752C178.554 334.977 177.209 335.314 174.454 336.076C173.115 336.446 171.564 336.848 171.005 336.968C170.447 337.088 169.169 337.416 168.165 337.698C165.424 338.465 164.146 338.736 161.47 339.119C160.131 339.31 158.762 339.549 158.427 339.647C157.406 339.949 151.791 340.802 150.807 340.804C149.981 340.804 147.552 341.142 144.631 341.659C144.073 341.759 142.704 341.9 141.588 341.975C140.472 342.05 138.177 342.315 136.487 342.566C133.709 342.978 133.34 343.082 132.632 343.644C131.494 344.549 129.094 345.091 125.155 345.331C121.009 345.584 111.415 345.691 109.432 345.505V345.505Z" fill="black" stroke="black" stroke-width="9.99976"/>
<path d="M117.66 339.815C118.435 339.685 120.484 339.547 122.213 339.509C123.943 339.47 126.225 339.344 127.285 339.227C128.345 339.11 130.947 338.935 133.067 338.838C135.187 338.741 137.652 338.56 138.545 338.437C141.434 338.037 143.405 337.79 143.82 337.777C144.311 337.759 148.017 337.243 149.703 336.956C152.004 336.564 153.157 336.404 155.283 336.182C156.454 336.059 157.733 335.877 158.123 335.777C158.513 335.677 159.928 335.44 161.267 335.251C162.607 335.063 164.934 334.589 166.441 334.199C167.947 333.809 169.941 333.316 170.871 333.104C171.801 332.892 172.877 332.588 173.261 332.428C173.954 332.138 175.005 331.875 178.106 331.215C178.999 331.025 180.368 330.701 181.149 330.494C181.93 330.287 182.889 330.057 183.279 329.984C183.669 329.91 185.039 329.551 186.322 329.186C189.445 328.298 191.066 327.938 193.727 327.544C195.785 327.239 197.472 326.788 199.002 326.133C200.106 325.661 203.304 324.613 203.642 324.613C203.825 324.613 204.408 324.397 204.937 324.131C205.731 323.733 206.526 323.335 207.32 322.937C208.101 322.547 209.699 321.889 210.87 321.477C213.371 320.599 214.325 320.127 215.448 319.212C215.95 318.803 216.984 318.307 218.086 317.946C220.682 317.095 221.616 316.705 222.536 316.088C223.725 315.291 224.498 314.97 227.172 314.165C228.494 313.768 230.02 313.217 230.563 312.942C231.106 312.666 231.713 312.44 231.913 312.438C232.111 312.438 232.639 312.212 233.085 311.941C233.532 311.669 234.445 311.165 235.115 310.819C236.985 309.853 237.591 309.497 238.835 308.634C239.603 308.1 240.689 307.622 242.113 307.191C243.285 306.837 244.763 306.308 245.398 306.015L246.552 305.484L246.058 304.836C245.53 304.144 245.073 302.272 245.276 301.632C245.401 301.239 244.756 298.646 244.533 298.646C244.466 298.646 244.399 298.341 244.385 297.968C244.358 297.534 244.266 297.107 244.112 296.7C243.637 295.568 243.303 293.657 243.124 291.038C243.024 289.588 242.886 287.944 242.816 287.386C242.746 286.828 242.775 285.996 242.881 285.536C243.107 284.551 242.684 281.002 241.807 276.532C241.266 273.775 241.123 272.219 241.023 268.012C240.933 264.192 240.883 263.734 240.403 262.408C240.117 261.613 239.882 260.628 239.882 260.218C239.882 259.808 239.752 258.815 239.592 258.011C239.408 257.04 239.265 256.061 239.165 255.077C239.09 254.267 238.947 253.555 238.847 253.493C238.747 253.431 238.665 253.132 238.665 252.828C238.665 252.524 238.521 251.776 238.346 251.166C238.046 250.12 237.834 249.165 237.537 247.521C237.467 247.131 237.183 246.232 236.907 245.525C236.365 244.135 236.089 242.808 235.655 239.507C235.178 235.877 234.784 233.654 234.529 233.154C234.271 232.649 233.797 231.128 232.873 227.842C232.166 225.328 229.484 218.404 228.905 217.596C227.634 215.823 227.435 211.012 228.536 208.67C229.012 207.657 232.001 204.51 232.486 204.51C232.616 204.51 232.968 204.283 233.269 204.004C233.57 203.724 234.007 203.496 234.24 203.496C234.473 203.496 234.77 203.35 234.902 203.171C235.086 202.919 235.471 202.851 236.598 202.873C237.4 202.888 238.17 202.898 238.31 202.896C239.917 202.873 246.851 202.086 247.031 201.906C247.161 201.776 247.608 201.67 248.026 201.67C248.443 201.67 248.841 201.58 248.91 201.468C248.979 201.356 249.225 201.265 249.456 201.265C249.687 201.265 250.161 201.093 250.509 200.884C250.857 200.674 251.781 200.394 252.562 200.262C253.342 200.13 254.256 199.926 254.59 199.809C254.925 199.692 255.61 199.479 256.112 199.337C256.614 199.194 257.299 198.939 257.634 198.769C258.871 198.143 260.301 197.589 261.387 197.315C262.667 196.992 264.597 196.331 265.161 196.023C265.373 195.907 265.957 195.636 266.459 195.42C267.637 194.913 268.712 194.415 269.096 194.197C269.954 193.71 270.344 193.555 270.714 193.555C270.937 193.555 271.874 193.244 272.796 192.863C273.718 192.482 275.157 192.029 275.994 191.857C276.862 191.677 278.196 191.191 279.101 190.722C280.336 190.082 280.887 189.909 281.596 189.936C282.359 189.965 282.69 189.84 283.662 189.156C284.298 188.708 285.162 188.218 285.58 188.067C285.998 187.917 286.34 187.727 286.34 187.645C286.34 187.563 286.546 187.434 286.797 187.357C287.048 187.281 287.39 187.107 287.557 186.97C287.725 186.834 288.41 186.511 289.079 186.253C289.749 185.994 290.383 185.706 290.489 185.612C290.618 185.509 290.777 185.448 290.942 185.44C291.085 185.44 291.721 185.098 292.355 184.68C293.865 183.683 295.251 182.857 295.852 182.597C296.208 182.429 296.55 182.231 296.872 182.005C297.167 181.795 297.84 181.385 298.367 181.097C299.36 180.552 300.262 180.047 302.165 178.97C302.779 178.623 303.805 178.089 304.447 177.783C305.089 177.477 305.614 177.16 305.614 177.077C305.614 176.76 307.383 174.924 312.588 169.838C315.458 167.035 315.858 166.558 316.482 165.208C316.865 164.38 317.178 163.65 317.178 163.586C317.178 163.522 317.498 163.08 317.888 162.603C318.278 162.127 318.598 161.635 318.598 161.511C318.598 161.387 318.735 161.233 318.902 161.168C319.07 161.104 319.207 160.84 319.207 160.581C319.207 160.321 319.337 159.979 319.496 159.821C320.026 159.29 320.626 158.159 320.626 157.687C320.626 157.43 320.761 156.961 320.926 156.643C321.324 155.872 321.84 153.613 322.018 151.864C322.137 150.691 322.096 150.307 321.783 149.658C321.575 149.226 321.355 148.566 321.294 148.191C321.234 147.816 321.058 147.405 320.905 147.278C320.752 147.151 320.627 146.93 320.627 146.786C320.627 146.529 319.601 144.08 319.207 143.396C319.095 143.203 319.004 142.901 319.004 142.726C319.004 142.226 315.257 138.495 313.684 137.43C312.812 136.84 311.712 135.814 310.843 134.782C310.063 133.856 309.321 133.096 309.193 133.092C309.066 133.092 308.698 132.819 308.376 132.491C308.055 132.163 307.489 131.795 307.119 131.673C306.023 131.311 303.922 130.25 303.464 129.828C302.98 129.38 299.536 128.356 295.369 127.42C292.489 126.775 289.615 126.107 286.746 125.416C285.352 125.084 283.754 124.761 283.196 124.698C282.416 124.605 281.639 124.497 280.863 124.374C280.138 124.259 278.905 124.078 278.124 123.974C276.703 123.778 275.283 123.575 273.864 123.366C272.302 123.137 270.384 122.866 269.604 122.764C265.136 122.178 262.352 121.7 261.196 121.32C260.449 121.074 259.648 120.938 259.327 121.003C258.994 121.069 258.657 121.009 258.499 120.85C257.969 120.32 257.333 120.114 256.176 120.1C254.136 120.074 252.942 119.816 252.074 119.215C251.482 118.805 251.095 118.675 250.692 118.752C250.384 118.812 249.98 118.778 249.796 118.68C249.611 118.58 248.971 118.489 248.374 118.475C247.209 118.448 246.055 118.153 245.562 117.756C245.395 117.621 244.892 117.446 244.447 117.366C244 117.286 243.362 117.081 243.028 116.912C242.695 116.742 241.985 116.62 241.45 116.639C240.916 116.657 240.286 116.569 240.05 116.444C239.516 116.158 234.616 115.084 232.578 114.807C231.499 114.67 230.417 114.565 229.332 114.494C226.898 114.346 201.15 114.464 200.541 114.627C200.264 114.701 199.713 114.694 199.317 114.612C198.921 114.53 197.684 114.284 196.567 114.066C195.452 113.848 194.037 113.51 193.423 113.316C192.619 113.062 191.486 112.95 189.366 112.915C186.739 112.872 186.364 112.908 185.866 113.259C185.386 113.595 185.29 113.608 185.189 113.344C185.124 113.176 184.817 112.982 184.505 112.914C183.596 112.714 183.137 112.031 182.796 110.376C182.624 109.539 182.059 107.85 181.539 106.623C181.019 105.395 180.477 103.98 180.334 103.478C180.186 102.964 180.016 102.456 179.824 101.957C179.688 101.622 179.456 100.846 179.308 100.232C179.124 99.4834 178.922 98.7392 178.703 98C178.477 97.223 178.281 96.4378 178.114 95.646C177.976 94.966 177.789 94.289 177.699 94.143C177.609 93.998 177.419 93.368 177.276 92.744C176.783 90.592 176.612 90.026 176.019 88.589C175.691 87.795 175.259 86.599 175.058 85.929C174.856 85.259 174.402 84.073 174.048 83.292C173.627 82.3326 173.259 81.3504 172.948 80.35C172.698 79.513 172.372 78.463 172.225 78.017C172.047 77.4298 171.917 76.8292 171.837 76.221C171.696 75.058 171.185 73.475 170.813 73.047C170.668 72.879 170.413 72.477 170.248 72.154L169.948 71.565L169.513 72.997C169.273 73.784 169.078 74.664 169.078 74.952C169.078 75.24 168.991 75.865 168.884 76.34C168.58 77.695 168.058 82.543 168.059 84.002C168.061 85.276 167.69 88.579 167.241 91.305C167.121 92.031 166.937 94.267 166.831 96.276C166.724 98.284 166.583 100.371 166.516 100.914C166.44 101.544 166.489 102.074 166.654 102.382C166.864 102.774 166.861 103.193 166.641 104.612C166.441 105.899 166.428 106.454 166.592 106.718C166.778 107.016 166.67 107.218 165.941 107.934C165.333 108.531 165.03 109.02 164.946 109.54C164.774 110.62 163.633 111.68 162.673 111.653C161.863 111.63 161.557 111.447 161.937 111.213C162.127 111.095 162.096 110.971 161.81 110.713C161.602 110.523 161.273 109.8 161.08 109.105L160.395 106.623C160.211 105.953 159.853 104.973 159.599 104.443C159.345 103.913 159.137 103.429 159.137 103.366C159.137 103.26 158.987 102.918 157.809 100.334C157.434 99.4895 157.076 98.6377 156.735 97.779C156.399 96.932 155.852 95.837 155.521 95.345C155.16 94.8011 154.84 94.2308 154.565 93.639L153.992 92.319C153.872 92.041 153.525 91.439 153.221 90.982C152.917 90.525 152.605 89.885 152.528 89.562C152.37 88.903 151.864 87.904 151.478 87.491C151.339 87.341 151.225 87.078 151.225 86.905C151.225 86.733 150.974 86.295 150.667 85.935C149.549 84.618 149.406 84.404 149.269 83.853C149.193 83.544 148.963 83.173 148.758 83.027C148.552 82.881 148.385 82.63 148.385 82.469C148.385 82.308 148.262 82.176 148.112 82.176C147.962 82.176 147.455 81.72 146.984 81.162C146.514 80.604 146.01 80.147 145.865 80.147C145.479 80.147 145.485 82.435 145.875 83.799C146.712 86.722 147.03 88.062 147.177 89.277C147.264 90.002 147.573 92.102 147.864 93.943C148.629 98.785 148.776 100.116 148.991 104.188C149.098 106.197 149.279 108.159 149.395 108.55C149.511 108.94 149.691 109.99 149.795 110.883C149.898 111.776 150.133 112.806 150.318 113.173C150.503 113.54 150.598 113.985 150.53 114.163C150.499 114.264 150.493 114.371 150.511 114.475C150.529 114.579 150.572 114.677 150.636 114.761C150.762 114.914 150.913 115.628 150.971 116.348C151.064 117.512 151.021 117.726 150.592 118.264C150.327 118.596 149.881 119.208 149.602 119.622C148.927 120.626 146.955 122.752 146.7 122.752C146.261 122.752 144.952 124.488 144.825 125.239C144.73 125.805 144.503 126.147 143.954 126.552C143.07 127.204 142.121 128.16 140.878 129.651C139.588 131.199 139.296 131.475 138.951 131.475C138.783 131.475 138.647 131.572 138.647 131.691C138.647 131.81 138.144 132.417 137.531 133.041C136.917 133.665 136.415 134.239 136.415 134.317C136.415 134.395 136.187 134.705 135.908 135.007C135.628 135.307 135.4 135.587 135.4 135.627C135.4 135.666 134.92 136.2 134.331 136.812C133.743 137.424 133.052 138.345 132.795 138.859C132.539 139.373 132.221 139.793 132.09 139.793C131.767 139.793 129.874 142.003 128.725 143.723C127.687 145.299 126.739 146.934 125.888 148.618C125.666 149.064 125.159 149.744 124.762 150.128C124.364 150.513 124.039 150.911 124.039 151.012C124.039 151.339 121.321 156.702 120.641 157.717C120.279 158.258 119.981 158.789 119.981 158.897C119.981 159.005 119.754 159.393 119.475 159.758C119.195 160.124 118.967 160.488 118.967 160.569C118.967 160.649 118.747 161.189 118.479 161.767L117.362 164.179C116.921 165.173 116.53 166.189 116.19 167.222C115.89 168.148 115.497 169.134 115.314 169.412C115.132 169.692 114.815 170.377 114.611 170.934C114.284 171.78 113.929 172.615 113.547 173.438C112.887 174.857 112.07 177.585 112.07 178.363C112.07 178.564 111.516 180.489 110.84 182.642C110.163 184.795 109.43 187.332 109.212 188.28L108.616 190.87C108.507 191.346 108.418 192.017 108.418 192.36C108.418 193.384 106.504 199.497 105.471 201.77C104.684 203.504 104.361 204.346 104.361 204.657C104.361 204.822 104.239 205.244 104.091 205.596C103.883 206.108 103.688 206.626 103.506 207.148C102.356 210.453 101.338 213.148 100.704 214.553C100.402 215.223 99.909 216.501 99.608 217.393C99.307 218.286 98.941 219.29 98.794 219.625C97.914 221.635 96.651 225.342 96.651 225.912C96.651 226.103 96.431 227.004 96.161 227.913C94.981 231.89 94.211 234.658 94.213 234.911C94.215 235.061 94.089 235.473 93.933 235.824C93.778 236.176 93.399 237.422 93.093 238.594C92.786 239.765 92.331 241.454 92.081 242.347C91.831 243.24 91.377 244.883 91.073 245.999C90.769 247.115 90.348 248.529 90.138 249.143C89.927 249.757 89.654 250.898 89.532 251.679L89.153 254.114C89.0194 254.904 88.8576 255.688 88.668 256.466C88.487 257.202 88.201 259.165 88.032 260.828C87.633 264.754 87.108 268.726 86.396 273.209C86.037 275.466 86.013 281.189 86.349 284.444C86.609 286.969 86.609 287.881 86.335 300.978C86.225 306.197 86.058 310.11 85.917 310.716C85.787 311.274 85.591 312.644 85.481 313.76C85.3739 314.844 85.2486 315.926 85.105 317.006C84.903 318.416 84.987 324.303 85.236 326.236C85.33 326.962 85.516 327.754 85.651 327.996C85.786 328.239 85.994 328.891 86.113 329.446C86.387 330.725 86.439 330.771 91.123 333.883C94.5 336.126 95.063 336.452 95.952 336.678C96.417 336.796 96.934 337.005 97.1 337.143C97.266 337.282 97.984 337.455 98.694 337.53C99.484 337.612 100.134 337.802 100.364 338.017C100.573 338.211 101.078 338.417 101.487 338.473C103.782 338.791 105.953 339.194 106.453 339.396C106.767 339.523 108.137 339.633 109.496 339.641C110.856 339.648 112.13 339.719 112.328 339.797C112.964 340.049 116.209 340.06 117.661 339.815H117.66Z" fill="black" stroke="black" stroke-width="9.99976"/>
<path d="M109.603 339.31C107.151 339.183 102.173 338.302 100.173 337.641C99.405 337.387 97.892 336.901 96.81 336.561C95.714 336.216 93.092 334.771 90.885 333.294C87.212 330.836 86.88 330.52 86.272 328.899C85.269 326.228 85.093 319.226 85.89 313.708C86.426 310.001 86.53 306.631 86.58 291.358C86.628 277.024 86.75 272.663 87.185 269.88C87.485 267.96 87.905 264.816 88.119 262.896C88.98 255.18 90.461 248.824 95.24 232.338C95.7906 230.424 96.3176 228.503 96.821 226.576C97.218 225.039 98.421 221.503 99.496 218.718C100.702 215.585 101.88 212.442 103.032 209.289C103.902 206.889 105.211 203.352 105.941 201.432C107.446 197.471 108.435 194.087 109.054 190.78C109.288 189.532 110.156 186.153 110.984 183.272C111.811 180.391 112.605 177.483 112.748 176.812C112.891 176.139 113.625 174.175 114.38 172.446C115.135 170.717 116.158 168.203 116.654 166.858C117.721 163.964 119.131 161.045 121.574 156.674C122.557 154.914 123.604 152.894 123.901 152.185C124.197 151.475 124.845 150.401 125.34 149.797C125.835 149.193 127.054 147.33 128.049 145.658C129.044 143.986 130.593 141.786 131.492 140.768C132.976 139.063 134.439 137.341 135.882 135.602C137.398 133.778 140.062 130.858 141.802 129.113C143.542 127.369 145.064 125.63 145.185 125.249C145.305 124.867 146.543 123.38 147.933 121.943C149.324 120.507 150.689 118.899 150.967 118.37C151.499 117.357 151.469 117.078 150.143 110.633C149.867 109.288 149.467 106.005 149.254 103.337C148.786 97.456 147.674 89.569 146.809 86.012C145.538 80.776 145.601 80.043 147.179 81.755C150.543 85.406 158.209 100.715 160.634 108.625C161.614 111.819 161.637 111.855 162.74 111.855C163.53 111.855 164.068 111.586 164.58 110.935C164.979 110.429 165.304 109.855 165.304 109.658C165.304 109.462 165.669 108.816 166.115 108.221C166.815 107.289 166.922 106.755 166.895 104.347C166.855 100.755 167.255 94.51 167.935 88.107L168.806 79.901C168.989 78.172 169.316 75.767 169.533 74.556C169.88 72.607 169.978 72.428 170.377 72.997C170.625 73.352 171.234 75.249 171.731 77.213C172.227 79.177 173.008 81.686 173.465 82.787C175.115 86.762 176.462 90.824 177.864 96.05C178.649 98.978 179.784 102.75 180.385 104.432C181.058 106.314 181.724 108.199 182.385 110.085C183.11 112.167 183.505 112.799 184.374 113.28C185.069 113.665 185.633 113.769 185.945 113.571C186.862 112.991 191.438 113.251 195.409 114.11C199.356 114.963 199.451 114.967 213.16 114.76C222.587 114.618 228.096 114.68 230.592 114.956C234.767 115.418 241.098 116.739 244.928 117.948C246.368 118.403 248.363 118.873 249.36 118.992C250.358 119.11 251.693 119.42 252.329 119.68C252.964 119.94 254.413 120.264 255.549 120.401C256.684 120.538 257.862 120.785 258.167 120.951C259.027 121.417 265.542 122.546 275.311 123.922C283.275 125.044 295.346 127.525 300.63 129.126C303.931 130.126 308.115 132.608 310.734 135.121C312.336 136.648 313.969 138.143 315.632 139.603C317.622 141.331 318.229 142.128 319.215 144.317C321.749 149.944 321.879 150.381 321.617 152.357C321.155 155.845 320.152 158.304 317.202 163.191C316.622 164.151 316.045 165.114 315.473 166.079C315.16 166.611 312.646 169.324 309.885 172.108C305.457 176.574 304.475 177.381 301.535 178.966C299.264 180.204 297.016 181.485 294.794 182.809C292.919 183.935 290.244 185.394 288.848 186.049C287.23 186.817 285.627 187.617 284.041 188.449C282.793 189.112 281.143 189.818 280.374 190.019C277.652 190.729 269.86 193.516 267.239 194.717C265.777 195.387 263.269 196.36 261.666 196.879C260.062 197.398 258.316 198.047 257.786 198.322C257.254 198.596 255.362 199.224 253.58 199.716C251.916 200.175 250.254 200.644 248.595 201.123C246.531 201.727 239.625 202.626 236.895 202.646C234.477 202.664 232.083 203.959 229.825 206.471C226.945 209.674 226.726 213.571 229.125 218.94C231.999 225.37 234.514 233.681 235.346 239.497C235.676 241.802 236.163 244.307 236.428 245.063C237.225 247.333 238.728 254.206 239.182 257.657C239.309 258.617 239.71 260.777 240.075 262.455C240.459 264.227 240.737 266.871 240.737 268.76C240.737 270.6 241.116 274.278 241.609 277.232C242.089 280.103 242.481 283.654 242.482 285.122C242.485 289.377 243.139 294.625 244.069 297.832C244.541 299.462 244.928 301.352 244.928 302.032C244.928 302.71 245.163 303.721 245.451 304.276C246.065 305.465 246.094 305.44 242.777 306.568C241.403 307.035 239.714 307.758 239.024 308.176C234.346 311.002 227.724 314.057 226.277 314.057C225.999 314.057 224.711 314.61 223.416 315.285C222.121 315.96 219.991 316.898 218.685 317.37C217.378 317.841 215.709 318.623 214.977 319.108C214.244 319.593 212.237 320.557 210.517 321.251C208.797 321.944 206.825 322.8 206.134 323.152C203.852 324.317 196.446 326.651 192.874 327.332C190.943 327.699 188.232 328.317 186.85 328.704C185.468 329.091 182.058 329.952 179.273 330.617C176.488 331.281 171.773 332.449 168.797 333.211C165.819 333.973 161.183 334.928 158.494 335.334C140.691 338.014 139.497 338.142 122.174 339.203C116.837 339.529 114.251 339.551 109.603 339.31V339.31Z" fill="#126E82"/>
<path d="M232.754 173.154C232.171 172.963 231.582 172.695 231.446 172.559C231.309 172.422 230.993 172.31 230.743 172.31C230.493 172.31 230.232 172.219 230.163 172.107C230.093 171.996 229.88 171.904 229.687 171.904C229.495 171.904 228.861 171.422 228.279 170.833L227.221 169.761V168.393C227.221 167.087 227.246 167.016 227.779 166.814C228.086 166.698 228.565 166.387 228.844 166.122C229.87 165.148 231.078 165.1 232.12 165.992C232.322 166.165 233.22 166.456 234.115 166.64C236.538 167.138 240.757 166.72 241.423 165.918C241.566 165.747 242.009 165.615 242.445 165.615C243.03 165.615 243.303 165.495 243.586 165.109C243.841 164.763 244.262 164.548 244.926 164.425C245.55 164.309 246.068 164.057 246.386 163.713C246.658 163.42 246.957 163.181 247.051 163.181C247.145 163.181 247.614 162.815 248.092 162.369C248.572 161.923 249.076 161.558 249.215 161.558C249.353 161.558 249.681 161.329 249.943 161.05C250.205 160.771 250.626 160.543 250.877 160.543C251.197 160.543 251.354 160.406 251.4 160.087C251.453 159.712 251.611 159.619 252.278 159.57C252.982 159.518 253.185 159.607 253.791 160.232C254.491 160.954 254.491 160.956 254.544 163.104C254.574 164.333 254.696 165.374 254.828 165.532C255.007 165.748 254.952 165.899 254.58 166.211L253.11 167.445C252.264 168.157 249.43 169.673 248.944 169.673C248.857 169.673 248.384 169.883 247.894 170.14C247.403 170.398 246.682 170.732 246.291 170.884C245.901 171.035 245.444 171.27 245.277 171.404C244.832 171.763 239.529 173.152 237.872 173.344C235.678 173.599 233.916 173.534 232.754 173.154V173.154ZM180.56 164.092C180.057 163.929 179.365 163.847 179.021 163.91C178.539 163.998 178.185 163.882 177.469 163.399C176.276 162.594 173.459 159.725 173.459 159.316C173.459 158.953 173.072 158.514 172.753 158.514C172.633 158.514 172.093 159.099 171.553 159.814C170.751 160.876 170.45 161.127 169.901 161.191C169.531 161.234 169.093 161.22 168.926 161.16C167.389 160.604 167.042 156.8 168.398 155.357L168.808 154.921L168.242 154.318C167.609 153.643 165.925 152.985 165.259 153.152C164.985 153.221 164.643 153.106 164.342 152.845C164.078 152.615 163.754 152.428 163.623 152.428C163.312 152.428 162.643 151.659 162.345 150.96C162.149 150.5 162.183 150.206 162.541 149.236C163.336 147.082 164.352 146.586 166.581 147.261C167.621 147.575 167.986 147.831 169.136 149.05L170.476 150.472L170.96 149.878C171.225 149.553 171.468 149.211 171.69 148.855C171.826 148.62 172.232 148.026 172.592 147.536C174.613 144.789 175.292 143.932 176.336 142.812C177.091 141.987 177.811 141.13 178.494 140.244C179.76 138.569 181.406 137.078 182.178 136.909C182.559 136.812 182.919 136.644 183.238 136.414C183.494 136.214 183.932 135.98 184.211 135.894C184.569 135.769 184.91 135.599 185.225 135.388C186.347 134.612 189.532 134.191 191.007 134.625C192.377 135.027 195.369 137.085 195.369 137.625C195.369 137.705 195.626 137.878 195.939 138.008C196.253 138.138 197.132 138.856 197.892 139.605C198.652 140.353 199.557 141.102 199.903 141.27C200.249 141.437 200.865 142.076 201.273 142.69C201.68 143.303 202.382 144.1 202.833 144.46C203.702 145.155 204.261 146.404 204.311 147.762C204.341 148.592 203.791 150.716 203.383 151.339C203.228 151.577 203.098 151.942 203.096 152.151C203.086 152.981 202.816 153.848 202.567 153.848C202.423 153.848 201.977 154.304 201.577 154.862C201.176 155.42 200.757 155.877 200.644 155.877C200.533 155.877 200.441 156.001 200.441 156.152C200.441 156.304 199.931 156.766 199.309 157.179C198.115 157.972 197.338 158.612 196.303 159.655C195.46 160.505 192.827 161.808 191.819 161.876C190.971 161.933 189.016 162.544 187.457 163.238C186.597 163.621 184.096 164.139 182.284 164.311C181.837 164.353 181.061 164.254 180.559 164.091L180.56 164.092Z" fill="black" stroke="black" stroke-width="0.191633"/>
<path d="M183.907 159.123C184.669 158.722 185.36 158.514 185.931 158.514C186.996 158.514 187.401 158.138 187.012 157.508C186.866 157.272 186.542 157.028 186.292 156.964C185.745 156.824 184.665 155.637 184.305 154.776C184.161 154.433 183.807 153.931 183.519 153.661C183.169 153.333 182.994 152.955 182.994 152.531C182.994 152.179 182.864 151.487 182.704 150.993C182.27 149.647 181.914 145.624 182.185 145.119C182.51 144.511 182.196 144.163 181.798 144.689C181.619 144.927 181.153 145.292 180.762 145.499C180.372 145.708 179.96 146.059 179.847 146.28C179.734 146.502 178.957 147.436 178.122 148.358C177.287 149.278 176.542 150.194 176.467 150.392C176.393 150.59 175.819 151.64 175.192 152.726C173.973 154.836 173.985 154.706 174.929 155.76C175.125 155.978 175.285 156.276 175.285 156.422C175.285 156.569 175.385 156.689 175.509 156.689C175.632 156.689 176.004 156.917 176.336 157.196C176.667 157.475 177.076 157.703 177.242 157.703C177.572 157.703 178.125 158.176 178.125 158.459C178.125 158.763 180.675 159.486 182.517 159.704C182.645 159.719 183.27 159.458 183.907 159.123V159.123ZM194.037 155.238C194.319 155.109 194.602 154.84 194.666 154.639C194.729 154.439 195.119 154.069 195.532 153.816C195.945 153.564 196.313 153.284 196.352 153.192C196.39 153.101 196.788 152.562 197.236 151.995C197.756 151.336 198.089 150.679 198.157 150.175C198.251 149.472 198.177 149.293 197.469 148.524C197.033 148.049 196.553 147.341 196.402 146.95C195.786 145.348 195.672 145.145 195.337 145.057C195.144 145.007 194.907 144.659 194.811 144.284C194.699 143.848 194.44 143.508 194.09 143.338C193.79 143.193 193.543 142.942 193.543 142.78C193.543 142.579 193.315 142.487 192.815 142.487C192.393 142.487 191.868 142.317 191.57 142.081C191.286 141.858 190.884 141.676 190.676 141.676C190.365 141.676 190.299 141.829 190.304 142.538C190.308 143.012 190.442 143.574 190.603 143.787C190.907 144.189 191.383 145.646 191.834 147.559C192.359 149.785 192.553 150.489 192.697 150.696C192.869 150.943 192.83 152.886 192.623 154.406C192.48 155.453 192.486 155.471 193.001 155.471C193.289 155.471 193.755 155.366 194.037 155.238V155.238ZM244.604 151.469C244.361 151.332 243.796 151.125 243.35 151.009C242.794 150.853 242.251 150.653 241.727 150.411C241.212 150.167 240.693 149.931 240.171 149.703C239.269 149.313 236.395 146.293 235.553 144.848C235.251 144.329 234.946 143.813 234.637 143.298C234.227 142.627 233.307 140.538 233.307 140.283C233.307 140.172 232.881 139.733 232.36 139.306C231.766 138.814 231.19 138.299 230.636 137.762C229.896 137.029 229.858 136.93 229.858 135.697C229.858 134.789 229.763 134.306 229.539 134.082C229.364 133.907 229.317 133.763 229.434 133.763C229.552 133.763 229.701 133.513 229.767 133.206C229.984 132.192 230.524 130.829 230.904 130.338C231.146 130.026 231.278 129.518 231.278 128.905C231.278 128.123 231.382 127.857 231.864 127.395C232.2 127.073 232.604 126.341 232.81 125.683C233.304 124.1 233.808 123.381 235.792 121.425C237.972 119.273 240.443 117.939 242.244 117.939C242.924 117.939 243.531 118.058 243.767 118.237C243.984 118.401 244.361 118.537 244.606 118.541C244.85 118.548 245.106 118.639 245.176 118.751C245.244 118.862 245.564 118.953 245.886 118.953C246.207 118.953 246.52 119.035 246.582 119.133C246.643 119.233 246.933 119.375 247.227 119.448C247.796 119.591 248.32 120.017 248.32 120.336C248.32 120.443 248.627 120.676 249.002 120.854C249.377 121.032 249.799 121.316 249.94 121.486C250.08 121.656 250.306 121.794 250.442 121.794C250.703 121.794 252.814 123.991 254.001 125.498C254.391 125.994 255.327 126.938 256.08 127.596C256.833 128.254 257.45 128.934 257.45 129.107C257.45 129.28 257.543 129.515 257.657 129.63C257.772 129.744 257.957 130.653 258.07 131.648C258.26 133.328 258.445 134.158 258.896 135.345C259.168 136.062 259.116 139.523 258.828 139.81C258.538 140.1 258.08 141.747 258.068 142.546C258.062 142.858 257.88 143.304 257.663 143.537C257.445 143.771 257.127 144.257 256.956 144.617C256.786 144.977 256.501 145.392 256.324 145.538C256.147 145.685 255.86 146.086 255.685 146.428C255.511 146.771 254.786 147.631 254.075 148.34C253.365 149.048 252.783 149.707 252.783 149.805C252.783 150.052 251.674 150.602 251.178 150.602C250.953 150.602 250.677 150.774 250.564 150.984C250.452 151.194 250.198 151.44 249.999 151.53C249.407 151.799 245.105 151.75 244.604 151.469V151.469Z" fill="black" stroke="black" stroke-width="0.191633"/>
<path d="M248.523 144.33C248.523 144.116 248.773 143.76 249.078 143.537L249.634 143.132L248.978 142.759C248.618 142.554 248.322 142.244 248.321 142.071C248.32 141.629 247.849 140.665 247.634 140.663C247.535 140.663 247.307 140.825 247.127 141.025C246.947 141.225 246.496 141.532 246.126 141.706C245.572 141.968 245.329 141.982 244.754 141.784C243.821 141.464 242.842 140.5 242.842 139.902C242.842 139.637 242.458 138.674 241.988 137.761C241.104 136.044 241.128 136.167 240.784 131.735C240.77 131.567 240.807 130.473 240.864 129.303C240.967 127.2 240.962 127.17 240.434 126.716C240.141 126.464 239.795 126.257 239.666 126.257C239.104 126.257 237.826 127.17 237.302 127.947C236.953 128.463 236.597 128.975 236.236 129.482C235.964 129.862 235.742 130.374 235.742 130.621C235.742 130.868 235.468 131.415 235.133 131.836C234.558 132.559 234.31 133.561 234.705 133.561C234.805 133.561 234.945 133.798 235.019 134.089C235.194 134.789 236.476 136.493 237.643 137.579C238.159 138.059 238.582 138.627 238.582 138.84C238.582 139.346 240.94 141.713 241.727 141.997C242.164 142.155 242.353 142.369 242.399 142.757C242.449 143.174 242.575 143.299 242.945 143.299C243.21 143.299 243.48 143.384 243.545 143.489C243.924 144.102 245.71 144.669 247.356 144.699C248.378 144.716 248.523 144.67 248.523 144.33V144.33ZM253.52 140.51C253.784 140.202 254 139.833 254 139.69C254 139.545 254.186 139.228 254.413 138.985C254.914 138.446 254.859 137.989 254.259 137.725C254.012 137.616 253.754 137.275 253.687 136.965C253.619 136.656 253.453 136.335 253.318 136.25C252.96 136.026 251.566 133.845 251.566 133.51C251.566 133.352 251.503 133.16 251.426 133.082C251.348 133.005 251.256 132.738 251.219 132.49C251.076 131.514 250.735 130.808 250.315 130.616C249.919 130.436 249.735 130.192 249.353 129.336C249.177 128.94 248.823 129.133 248.859 129.604C248.902 130.154 249.753 133.372 249.971 133.811C250.067 134.005 250.146 134.286 250.146 134.436C250.146 134.586 250.374 135.27 250.653 135.956C250.933 136.643 251.16 137.514 251.16 137.894C251.16 138.273 251.296 138.696 251.462 138.834C251.629 138.971 251.716 139.163 251.657 139.258C251.597 139.354 251.782 139.635 252.067 139.882C252.405 140.176 252.543 140.459 252.467 140.699C252.283 141.277 252.965 141.154 253.52 140.509V140.51Z" fill="black" stroke="black" stroke-width="0.191633"/>
<path d="M180.135 159.047C178.936 158.738 178.519 158.543 178.101 158.095C177.811 157.785 177.474 157.532 177.351 157.532C176.698 157.532 174.866 155.762 174.427 154.706C174.395 154.63 174.902 153.604 175.554 152.426C176.872 150.046 179.771 146.444 181.186 145.43L181.993 144.852L182.019 146.783C182.033 147.845 182.175 149.303 182.335 150.024C182.495 150.744 182.685 151.746 182.76 152.25C182.85 152.868 183.066 153.38 183.42 153.822C183.71 154.182 184.081 154.737 184.246 155.055C184.676 155.887 185.669 156.934 186.26 157.179C186.816 157.409 187.077 157.844 186.816 158.105C186.725 158.196 186.27 158.311 185.806 158.361C185.341 158.411 184.459 158.677 183.846 158.953C182.521 159.547 182.118 159.557 180.136 159.047H180.135ZM192.852 153.143C192.936 151.008 192.928 150.951 192.132 147.956C191.688 146.291 191.132 144.466 190.894 143.902C190.522 143.018 190.313 141.817 190.531 141.817C190.57 141.817 191.021 142.013 191.536 142.252C192.049 142.492 192.636 142.688 192.838 142.689C193.314 142.692 194.44 143.754 194.673 144.42C194.772 144.705 195.032 145.054 195.25 145.197C195.47 145.341 195.82 145.919 196.033 146.488C196.245 147.055 196.767 147.944 197.194 148.465C197.75 149.143 197.97 149.567 197.97 149.965C197.97 150.687 196.43 153.011 195.618 153.513C195.291 153.715 194.802 154.154 194.532 154.489C194.189 154.915 193.85 155.129 193.404 155.2L192.767 155.302L192.852 153.143ZM245.175 144.186C244.775 144.061 244.225 143.801 243.953 143.609C243.68 143.417 243.288 143.208 243.083 143.144C242.877 143.08 242.615 142.801 242.5 142.524C242.385 142.248 242.068 141.929 241.794 141.816C241.184 141.563 238.889 139.31 238.729 138.807C238.665 138.607 237.989 137.734 237.225 136.869C236.461 136.004 235.635 134.897 235.389 134.409C235.143 133.922 234.871 133.477 234.784 133.421C234.588 133.296 234.867 132.525 235.357 131.836C235.555 131.558 235.792 131.059 235.884 130.728C236.166 129.703 237.71 127.579 238.6 126.99C239.55 126.361 239.647 126.35 240.226 126.794L240.663 127.13L240.683 130.501C240.71 134.762 240.874 135.805 241.855 137.938C242.283 138.871 242.68 139.838 242.736 140.088C242.856 140.614 243.58 141.387 244.308 141.764C245.124 142.186 245.939 142.094 246.808 141.482C247.233 141.182 247.653 140.981 247.741 141.035C247.828 141.089 247.985 141.448 248.088 141.833C248.217 142.309 248.446 142.635 248.811 142.856C249.331 143.173 249.336 143.186 248.978 143.377C248.777 143.485 248.563 143.767 248.504 144.005C248.401 144.415 248.334 144.435 247.148 144.425C246.462 144.419 245.574 144.311 245.175 144.185V144.186ZM252.624 140.556C252.624 140.319 252.458 139.976 252.254 139.793C251.817 139.398 251.645 138.995 251.224 137.365C250.911 136.223 250.575 135.088 250.216 133.96C249.836 132.76 249.404 131.247 249.258 130.598C248.985 129.392 249.1 129.025 249.471 129.918C249.584 130.193 249.905 130.586 250.184 130.792C250.509 131.033 250.757 131.431 250.877 131.908C251.214 133.242 251.917 134.726 252.714 135.79C253.144 136.364 253.497 136.924 253.497 137.035C253.497 137.145 253.743 137.476 254.043 137.77C254.367 138.087 254.543 138.398 254.473 138.533C253.9 139.653 253.317 140.527 253.002 140.736C252.649 140.97 252.624 140.959 252.624 140.556V140.556Z" fill="white"/>
</svg>
