<svg width="144" height="144" viewBox="0 0 144 144" fill="none" xmlns="http://www.w3.org/2000/svg">
<path d="M48.7055 56.6756H41.1213H40.1213V57.6756V65.9906V66.9906H41.1213H52.314L39.8216 121.268H30.1606H29.1606V122.268V129.978V130.978H30.1606H35.548V131.321H30.0095H29.0095V132.321V140.031V141.031H30.0095H113.802H114.802V140.031V132.321V131.321H113.802H108.792V130.978H113.953H114.953V129.978V122.268V121.268H113.953H104.436L90.7197 66.9906H103.03H104.03V65.9906V57.6756V56.6756H103.03H93.7071L105.251 34.7626C105.663 34.8783 106.097 34.9402 106.545 34.9402C109.185 34.9402 111.324 32.8003 111.324 30.1606C111.324 27.521 109.185 25.3811 106.545 25.3811C103.905 25.3811 101.765 27.521 101.765 30.1606C101.765 30.6022 101.826 31.0306 101.938 31.4377L88.8243 38.2843L89.9597 18.8981C92.2553 18.5488 94.0142 16.5664 94.0142 14.1732C94.0142 11.5336 91.8743 9.39371 89.2346 9.39371C86.595 9.39371 84.4551 11.5336 84.4551 14.1732C84.4551 15.2602 84.8187 16.2629 85.4294 17.0655L71.1881 33.6307L56.9429 17.0311C57.5551 16.228 57.9197 15.224 57.9197 14.1354C57.9197 11.4958 55.7798 9.35591 53.1402 9.35591C50.5005 9.35591 48.3606 11.4958 48.3606 14.1354C48.3606 16.5285 50.1194 18.5108 52.4148 18.8603L53.5506 38.2826L40.4734 31.4415C40.5868 31.0333 40.6473 30.6036 40.6473 30.1606C40.6473 27.521 38.5074 25.3811 35.8677 25.3811C33.2281 25.3811 31.0882 27.521 31.0882 30.1606C31.0882 32.8003 33.2281 34.9402 35.8677 34.9402C36.3155 34.9402 36.7497 34.8783 37.1618 34.7626L48.7055 56.6756Z" fill="#383838" stroke="#111111" stroke-width="2"/>
<path d="M91.5024 11.1496L87.8362 17.6882L78.7654 57.6756H85.4174V65.9528L53.1583 65.9528L52.9134 65.915L52.9512 65.9528H53.1583L84.5102 70.7906C84.5102 70.7906 92.2205 99.0992 94.0724 113.008C95.4469 123.124 96.6214 125.143 97.8141 127.193C98.2519 127.945 98.6921 128.702 99.1455 129.865H36.6614V132.246H99.9671C101.177 136.127 101.858 140.031 101.858 140.031H113.802V132.321L107.868 132.208V129.94H113.953V122.23H103.899L89.4236 65.9528L103.03 65.9528V57.6756H92.0315L104.769 33.5244L104.709 33.4654C105.253 33.7678 105.879 33.9402 106.545 33.9402C108.632 33.9402 110.324 32.248 110.324 30.1606C110.324 28.0733 108.632 26.3811 106.545 26.3811C104.458 26.3811 102.765 28.0733 102.765 30.1606C102.765 30.8267 102.938 31.4526 103.24 31.9961L103.181 31.937L87.7229 39.9874L89.2347 17.915C89.2347 17.915 95.7733 16.6299 91.5024 11.1118V11.1496Z" fill="#111111"/>
</svg>
