<svg width="32" height="32" viewBox="0 0 32 32" fill="none" xmlns="http://www.w3.org/2000/svg">
<path d="M15.572 26.0134C14.015 26.953 12.3774 27.4228 10.6593 27.4228C9.85388 27.4228 9.07983 27.3065 8.3371 27.0738C7.60332 26.8322 6.91429 26.5235 6.26999 26.1477C6.28788 26.1924 6.29682 26.255 6.29682 26.3356C6.30577 26.4072 6.31919 26.4564 6.33709 26.4832C6.36393 26.5369 6.39525 26.5906 6.43105 26.6443C6.47579 26.698 6.51158 26.7427 6.53843 26.7785C6.26997 26.7785 5.98362 26.8546 5.67937 27.0067C7.21852 27.9105 8.87847 28.3624 10.6592 28.3624C12.4042 28.3624 14.0418 27.9239 15.572 27.047C17.0932 27.9239 18.7308 28.3624 20.4847 28.3624C22.2655 28.3624 23.921 27.9105 25.4512 27.0067C25.1469 26.8546 24.8606 26.7785 24.5921 26.7785C24.6816 26.6711 24.7487 26.5727 24.7935 26.4832C24.8114 26.4564 24.8337 26.4072 24.8606 26.3356C24.8874 26.255 24.9143 26.1924 24.9411 26.1477C24.2879 26.5235 23.5809 26.8322 22.8203 27.0738C22.0686 27.3065 21.2901 27.4228 20.4847 27.4228C18.7577 27.4228 17.1201 26.953 15.572 26.0134H15.572ZM15.572 25.2349C17.1022 26.2192 18.7398 26.7114 20.4848 26.7114C21.4065 26.7114 22.3595 26.5056 23.3438 26.094C24.3371 25.6734 25.1827 25.2036 25.8807 24.6846C25.9613 24.8456 25.9255 25.1096 25.7733 25.4765C25.6212 25.8345 25.4959 26.1387 25.3975 26.3893C25.5049 26.4161 25.6167 26.4564 25.7331 26.5101C26.2253 26.7517 26.6011 27.0559 26.8606 27.4228C27.1291 27.7808 27.2006 28.094 27.0754 28.3624C27.0038 28.5145 26.8919 28.6264 26.7398 28.698C26.7577 28.6085 26.7666 28.5369 26.7666 28.4832C26.7666 27.9195 26.4847 27.6376 25.921 27.6376C25.751 27.6376 25.6078 27.6779 25.4915 27.7584C23.9344 28.5996 22.2655 29.0201 20.4847 29.0201C18.8293 29.0201 17.1917 28.6353 15.572 27.8658C13.9434 28.6353 12.3058 29.0201 10.6592 29.0201C8.86058 29.0201 7.19167 28.5996 5.65252 27.7584C5.52724 27.6779 5.38407 27.6376 5.22299 27.6376C4.65924 27.6376 4.37735 27.9195 4.37735 28.4832C4.37735 28.528 4.37735 28.5682 4.37735 28.604C4.38631 28.6398 4.39079 28.6711 4.39079 28.698C4.22077 28.6085 4.11338 28.4966 4.06864 28.3624C3.93441 28.094 3.99705 27.7808 4.25656 27.4228C4.51607 27.0559 4.89638 26.7517 5.3975 26.5101C5.49593 26.4653 5.60779 26.4251 5.73307 26.3893C5.62569 26.1387 5.49593 25.8345 5.34381 25.4765C5.20063 25.1096 5.17378 24.8456 5.26327 24.6846C5.95231 25.2036 6.789 25.6734 7.77334 26.094C8.76663 26.5056 9.72859 26.7114 10.6592 26.7114C12.3774 26.7114 14.0149 26.2192 15.572 25.2349H15.572ZM18.9277 19.4094C19.5631 18.255 19.9389 17.3557 20.0552 16.7114C20.1805 16.0582 20.2029 15.3691 20.1223 14.6443C20.006 13.6421 19.5004 12.5951 18.6056 11.5034C17.7197 10.4027 16.7085 9.566 15.572 8.99329C14.1402 9.69128 13.0396 10.5548 12.27 11.5839C11.5094 12.604 11.1067 13.6376 11.0619 14.6846C11.0261 15.4094 11.0798 16.1208 11.223 16.8188C11.3751 17.5078 11.7197 18.3714 12.2566 19.4094C12.9635 19.2215 13.7733 19.1051 14.6861 19.0604V15.4497H12.968V13.6242H14.6861V11.3423H16.525V13.6242H18.2431V15.4497H16.525V19.0604C17.3572 19.1051 18.1581 19.2215 18.9277 19.4094ZM15.9613 19.0336L15.9478 14.8859H17.666V14.2013H15.9478V11.906H15.2633V14.2013H13.5451V14.8859H15.2633V19.0336C15.2633 19.0336 15.3662 19.0336 15.572 19.0336C15.6346 19.0336 15.6973 19.0336 15.7599 19.0336C15.8315 19.0336 15.8986 19.0336 15.9613 19.0336H15.9613ZM19.223 20.8322L18.8069 24.255C18.798 24.5235 18.4758 24.7517 17.8405 24.9396C17.2051 25.1275 16.4445 25.2215 15.5586 25.2215C14.6637 25.2215 13.8986 25.1275 13.2633 24.9396C12.6369 24.7517 12.3237 24.5235 12.3237 24.255L11.921 20.8322C11.2856 19.8658 10.8382 18.8859 10.5787 17.8926C10.3192 16.8993 10.1895 15.9463 10.1895 15.0336C10.1895 12.2864 11.6749 10.1834 14.6458 8.72483C14.6458 8.5906 14.6593 8.41611 14.6861 8.20134C14.3818 7.95078 14.2297 7.62864 14.2297 7.2349C14.2297 6.41163 14.6458 6 15.478 6C16.3013 6 16.7129 6.41163 16.7129 7.2349C16.7129 7.60179 16.5832 7.90604 16.3237 8.14765C16.3237 8.42506 16.3595 8.61298 16.4311 8.71141C16.5742 8.91723 16.7756 9.02908 17.0351 9.04698C17.3035 9.02909 17.5183 8.91276 17.6794 8.69799C17.7152 8.6443 17.751 8.47427 17.7868 8.18792C17.5541 7.94631 17.4378 7.65101 17.4378 7.30201C17.4378 6.46085 17.8584 6.04027 18.6995 6.04027C19.5407 6.04027 19.9613 6.46085 19.9613 7.30201C19.9613 7.78524 19.7555 8.14765 19.3438 8.38926C19.308 8.56823 19.2991 8.71588 19.317 8.83222C20.8293 10.613 21.487 12.6801 21.2901 15.0336C21.2275 15.7047 21.138 16.3445 21.0217 16.953C20.9143 17.5615 20.6861 18.1924 20.3371 18.8456C20.1671 19.1767 19.9926 19.5123 19.8136 19.8524C19.6347 20.1924 19.4378 20.519 19.223 20.8322H19.223ZM15.6123 22.9933C14.8606 22.9933 14.2208 23.0694 13.6928 23.2215C13.1738 23.3647 12.9143 23.5392 12.9143 23.745C12.9143 23.9508 13.1738 24.1253 13.6928 24.2685C14.2208 24.4116 14.8606 24.4832 15.6123 24.4832C16.3461 24.4832 16.9769 24.4116 17.5049 24.2685C18.0329 24.1253 18.2968 23.9508 18.2968 23.745C18.2968 23.5392 18.0329 23.3647 17.5049 23.2215C16.9769 23.0694 16.3461 22.9933 15.6123 22.9933ZM18.3103 22.7919L18.5787 20.0805C17.7286 19.9105 16.7577 19.8255 15.666 19.8255C14.5742 19.8255 13.5541 19.9239 12.6056 20.1208L12.8874 22.7517C13.5317 22.4653 14.4221 22.3221 15.5586 22.3221C16.7756 22.3221 17.6928 22.4787 18.3103 22.7919ZM18.6995 6.72483C18.3147 6.72483 18.1223 6.91723 18.1223 7.30201C18.1223 7.6868 18.3147 7.87919 18.6995 7.87919C19.0843 7.87919 19.2767 7.6868 19.2767 7.30201C19.2767 6.91723 19.0843 6.72483 18.6995 6.72483ZM15.478 6.698C15.1112 6.698 14.9277 6.87697 14.9277 7.23491C14.9277 7.6018 15.1112 7.78525 15.478 7.78525C15.8449 7.78525 16.0284 7.6018 16.0284 7.23491C16.0284 6.87697 15.8449 6.698 15.478 6.698ZM16.9546 21.1007L15.5989 21.6644L14.2431 21.1007L15.5989 20.5369L16.9546 21.1007ZM20.8472 15.0067C20.9456 14.5235 20.7845 13.6331 20.364 12.3356C19.9523 11.0291 19.3349 9.94632 18.5116 9.08726C18.4042 9.01567 18.3013 8.98435 18.2029 8.9933C18.0597 9.01119 17.9255 9.0783 17.8002 9.19464C17.6839 9.31098 17.6704 9.44968 17.7599 9.61075C18.7532 10.264 19.5138 11.1946 20.0418 12.4027C20.5698 13.6018 20.8382 14.4698 20.8472 15.0067Z" fill="black"/>
<path d="M15.572 26.0134C14.0149 26.953 12.3773 27.4228 10.6592 27.4228C9.85384 27.4228 9.07979 27.3065 8.33706 27.0738C7.60328 26.8322 6.91424 26.5235 6.26994 26.1477C6.28783 26.1924 6.29677 26.255 6.29677 26.3356C6.30572 26.4072 6.31915 26.4564 6.33704 26.4832C6.36388 26.5369 6.39521 26.5906 6.431 26.6443C6.47574 26.698 6.51154 26.7427 6.53838 26.7785C6.26993 26.7785 5.98357 26.8546 5.67932 27.0067C7.21847 27.9105 8.87843 28.3624 10.6592 28.3624C12.4042 28.3624 14.0417 27.9239 15.5719 27.047C17.0932 27.9239 18.7308 28.3624 20.4847 28.3624C22.2655 28.3624 23.9209 27.9105 25.4511 27.0067C25.1469 26.8546 24.8605 26.7785 24.5921 26.7785C24.6816 26.6711 24.7487 26.5727 24.7934 26.4832C24.8113 26.4564 24.8337 26.4072 24.8605 26.3356C24.8874 26.255 24.9142 26.1924 24.9411 26.1477C24.2878 26.5235 23.5809 26.8322 22.8203 27.0738C22.0686 27.3065 21.2901 27.4228 20.4847 27.4228C18.7576 27.4228 17.1201 26.953 15.572 26.0134ZM18.9277 19.4094C19.563 18.255 19.9388 17.3557 20.0552 16.7114C20.1805 16.0582 20.2028 15.3691 20.1223 14.6443C20.006 13.6421 19.5004 12.5951 18.6055 11.5034C17.7196 10.4027 16.7084 9.56599 15.572 8.99329C14.1402 9.69127 13.0395 10.5548 12.2699 11.5839C11.5093 12.604 11.1066 13.6376 11.0619 14.6846C11.0261 15.4094 11.0798 16.1208 11.223 16.8188C11.3751 17.5078 11.7196 18.3714 12.2565 19.4094C12.9635 19.2215 13.7733 19.1051 14.6861 19.0604V15.4497H12.9679V13.6242H14.6861V11.3423H16.525V13.6242H18.2431V15.4497H16.525V19.0604C17.3572 19.1051 18.1581 19.2215 18.9277 19.4094ZM15.9612 19.0336L15.9478 14.8859H17.6659V14.2013H15.9478V11.906H15.2632V14.2013H13.5451V14.8859H15.2632V19.0336C15.2632 19.0336 15.3661 19.0336 15.5719 19.0336C15.6346 19.0336 15.6972 19.0336 15.7599 19.0336C15.8315 19.0336 15.8986 19.0336 15.9612 19.0336ZM15.6122 22.9933C14.8605 22.9933 14.2207 23.0694 13.6928 23.2215C13.1737 23.3647 12.9142 23.5392 12.9142 23.745C12.9142 23.9508 13.1737 24.1253 13.6928 24.2685C14.2207 24.4116 14.8605 24.4832 15.6122 24.4832C16.346 24.4832 16.9769 24.4116 17.5048 24.2685C18.0328 24.1253 18.2968 23.9508 18.2968 23.745C18.2968 23.5392 18.0328 23.3647 17.5048 23.2215C16.9769 23.0694 16.346 22.9933 15.6122 22.9933ZM18.3102 22.7919L18.5787 20.0805C17.7286 19.9105 16.7576 19.8255 15.6659 19.8255C14.5742 19.8255 13.5541 19.9239 12.6055 20.1208L12.8874 22.7517C13.5317 22.4653 14.4221 22.3221 15.5585 22.3221C16.7755 22.3221 17.6928 22.4787 18.3102 22.7919ZM18.6995 6.72483C18.3147 6.72483 18.1223 6.91722 18.1223 7.30201C18.1223 7.6868 18.3147 7.87919 18.6995 7.87919C19.0843 7.87919 19.2767 7.6868 19.2767 7.30201C19.2767 6.91722 19.0843 6.72483 18.6995 6.72483ZM15.478 6.698C15.1111 6.698 14.9277 6.87697 14.9277 7.23491C14.9277 7.6018 15.1111 7.78525 15.478 7.78525C15.8449 7.78525 16.0283 7.6018 16.0283 7.23491C16.0283 6.87697 15.8449 6.698 15.478 6.698ZM16.9545 21.1007L15.5988 21.6644L14.2431 21.1007L15.5988 20.5369L16.9545 21.1007ZM20.8471 15.0067C20.9456 14.5235 20.7845 13.6331 20.3639 12.3356C19.9523 11.0291 19.3348 9.94632 18.5116 9.08726C18.4042 9.01567 18.3013 8.98435 18.2028 8.9933C18.0597 9.01119 17.9254 9.0783 17.8001 9.19464C17.6838 9.31097 17.6704 9.44968 17.7599 9.61075C18.7532 10.264 19.5138 11.1946 20.0418 12.4027C20.5697 13.6018 20.8382 14.4698 20.8471 15.0067Z" fill="white"/>
</svg>
