<svg width="32" height="32" viewBox="0 0 32 32" fill="none" xmlns="http://www.w3.org/2000/svg">
<path d="M17.3956 23.5839L15.6506 24.4564L13.8385 23.5839L15.5835 22.7248L17.3956 23.5839ZM15.6238 11.1275C15.1048 11.1275 14.6618 11.1857 14.2949 11.302C13.937 11.4094 13.758 11.5436 13.758 11.7047C13.758 11.8658 13.937 12.0045 14.2949 12.1208C14.6618 12.2282 15.1048 12.2819 15.6238 12.2819C16.1338 12.2819 16.5723 12.2282 16.9392 12.1208C17.3061 12.0045 17.4895 11.8658 17.4895 11.7047C17.4895 11.5436 17.3061 11.4094 16.9392 11.302C16.5723 11.1857 16.1338 11.1275 15.6238 11.1275ZM15.6103 21.2617C15.7535 21.2617 15.9414 21.2707 16.1741 21.2886C16.1025 21.1007 16.0757 20.8904 16.0936 20.6577C16.1025 20.3624 16.201 20.0626 16.3889 19.7584C16.5142 19.6062 16.5947 19.4228 16.6305 19.208C16.711 18.6711 16.7692 18.0895 16.805 17.4631C16.8766 15.9508 16.7647 14.4429 16.4694 12.9396C16.1652 12.9843 15.8788 13.0067 15.6103 13.0067C15.324 13.0067 15.0332 12.9843 14.7379 12.9396C14.4336 14.4429 14.3218 15.9508 14.4023 17.4631C14.4202 18.0179 14.4828 18.5995 14.5902 19.208C14.6171 19.4228 14.6976 19.6062 14.8318 19.7584C15.0108 20.0626 15.1092 20.3624 15.1271 20.6577C15.1361 20.8725 15.1048 21.0828 15.0332 21.2886C15.2837 21.2707 15.4761 21.2617 15.6103 21.2617ZM13.8654 12.7517C13.6775 12.698 13.5253 12.6398 13.409 12.5772C12.532 13.2573 12.0354 14.0626 11.9191 14.9933C11.7401 16.1834 11.9191 17.3781 12.456 18.5772C12.5544 18.7919 12.6036 19.0022 12.6036 19.2081C12.6126 19.4944 12.5544 19.7987 12.4291 20.1208C12.3307 20.3177 12.2815 20.5101 12.2815 20.698C12.2904 20.8859 12.3486 21.0694 12.456 21.2483C12.4918 21.3378 12.5186 21.4004 12.5365 21.4362C12.975 21.3826 13.4806 21.3378 14.0533 21.302C14.1696 21.1141 14.2233 20.9083 14.2144 20.6846C14.1965 20.5503 14.1517 20.4116 14.0801 20.2685C13.8475 19.9642 13.7133 19.6242 13.6775 19.2483C13.588 18.7114 13.5298 18.1298 13.503 17.5034C13.4045 15.9374 13.5253 14.3535 13.8654 12.7517ZM10.7244 11.6107C10.5634 11.6107 10.4515 11.5973 10.3889 11.5705C8.23227 12.6532 7.06001 14.0089 6.87209 15.6376C6.80945 16.1477 6.82735 16.7114 6.92578 17.3289C7.03317 17.9463 7.2703 18.4698 7.63719 18.8993C7.94144 19.2394 8.09357 19.6286 8.09357 20.0671C8.09357 20.1029 8.0891 20.1387 8.08015 20.1745C8.08015 20.2103 8.08015 20.2416 8.08015 20.2685C7.99066 20.4474 7.95934 20.6488 7.98619 20.8725C8.06673 21.4183 8.31729 21.8076 8.73787 22.0403C8.88999 22.0224 9.10476 21.9776 9.38216 21.906C9.56113 21.7987 9.65509 21.6286 9.66404 21.396C9.67299 21.1633 9.66404 20.9262 9.6372 20.6846C9.6014 20.4251 9.52086 20.2192 9.39559 20.0671C8.57232 18.7696 8.18306 17.4183 8.2278 16.0134C8.25465 15.2349 8.42914 14.4743 8.75129 13.7315C9.07344 12.9799 9.73115 12.2729 10.7244 11.6107ZM12.7781 12.0537C12.6171 11.9821 12.3218 11.9016 11.8922 11.8121C11.06 12.1879 10.4157 12.7785 9.95934 13.5839C9.51191 14.3803 9.27478 15.1946 9.24793 16.0268C9.20319 17.217 9.55218 18.443 10.2949 19.7047C10.4649 20.0626 10.5499 20.3848 10.5499 20.6711C10.5499 21.1186 10.4828 21.4631 10.3486 21.7047C10.5365 21.6779 10.7334 21.651 10.9392 21.6242C11.145 21.5884 11.3598 21.557 11.5835 21.5302C11.4493 21.2886 11.3777 21.0246 11.3687 20.7383C11.3687 20.4072 11.4493 20.0716 11.6103 19.7315C11.673 19.5436 11.7043 19.3781 11.7043 19.2349C11.6864 19.0828 11.6327 18.9217 11.5432 18.7517C11.23 18.0984 11.0108 17.4139 10.8855 16.698C10.7692 15.9732 10.7916 15.2975 10.9526 14.6711C11.1853 13.7405 11.7938 12.868 12.7781 12.0537ZM9.00632 11.5839C8.97948 11.5839 8.95263 11.5839 8.92578 11.5839C8.90789 11.5839 8.88999 11.5839 8.87209 11.5839C8.17411 11.6286 7.54771 11.8076 6.9929 12.1208C6.44704 12.4251 6.01303 12.783 5.69089 13.1946C5.20766 13.821 4.96605 14.4922 4.96605 15.2081C4.96605 16.1387 5.21214 16.9351 5.70431 17.5973C5.91012 17.9016 6.11594 18.1566 6.32176 18.3624C6.13384 17.8971 6.01751 17.4183 5.97276 16.9262C5.92802 16.434 5.9325 15.9776 5.98619 15.557C6.192 13.8121 7.19871 12.4877 9.00632 11.5839H9.00632ZM15.6103 24.8993C17.1316 24.8993 18.5321 24.9888 19.8117 25.1678C21.1003 25.3378 22.1562 25.6242 22.9795 26.0268L22.8989 25.1275L22.362 25.2752L20.7916 24.1208L22.7513 23.5973L22.711 23.0604C21.843 22.783 20.7826 22.5593 19.5298 22.3893C18.286 22.2103 16.9795 22.1208 15.6103 22.1208C14.2323 22.1208 12.9168 22.2103 11.664 22.3893C10.4202 22.5593 9.36874 22.783 8.50968 23.0604L8.46941 23.5973L10.4157 24.1208L8.84525 25.2752L8.32176 25.1275L8.24122 26.0268C9.04659 25.6242 10.0936 25.3378 11.3822 25.1678C12.6708 24.9888 14.0801 24.8993 15.6103 24.8993ZM15.6103 28.8725C13.5343 28.8725 11.7088 28.7383 10.1338 28.4698C8.55889 28.2013 7.57008 27.8568 7.1674 27.4362L7.57008 24.0134C7.67746 23.3333 7.68194 22.783 7.5835 22.3624C7.54771 22.2192 7.44927 21.8434 7.2882 21.2349C7.13607 20.6174 6.85867 20.1119 6.45598 19.7181C6.08015 19.3781 5.7759 19.1096 5.54323 18.9128C5.31952 18.7069 5.11818 18.4832 4.93921 18.2416C4.40229 17.5078 4.09357 16.5996 4.01303 15.5168C3.92355 14.3266 4.29491 13.2707 5.12713 12.349C5.5835 11.8479 6.16068 11.4676 6.85867 11.2081C7.5656 10.9485 8.29491 10.7964 9.04659 10.7517C9.49402 10.7248 9.85196 10.7204 10.1204 10.7382C10.3889 10.7561 10.7468 10.7875 11.1942 10.8322C11.7759 10.9038 12.362 11.0335 12.9526 11.2215C13.4269 10.7114 14.3128 10.4564 15.6103 10.4564C16.8989 10.4564 17.7848 10.7114 18.2681 11.2215C18.8587 11.0335 19.4448 10.9038 20.0265 10.8322C20.4649 10.7875 20.8184 10.7561 21.0869 10.7382C21.3553 10.7204 21.7177 10.7248 22.1741 10.7517C22.9079 10.7964 23.6282 10.9485 24.3352 11.2081C25.0421 11.4676 25.6238 11.8479 26.0801 12.349C26.9034 13.2707 27.2748 14.3266 27.1942 15.5168C27.1137 16.5996 26.8095 17.5078 26.2815 18.2416C26.0936 18.4832 25.8833 18.7069 25.6506 18.9128C25.4269 19.1096 25.1316 19.3781 24.7647 19.7181C24.3441 20.1119 24.0533 20.6174 23.8922 21.2349C23.7401 21.8434 23.6506 22.2192 23.6238 22.3624C23.5253 22.8188 23.5298 23.3691 23.6372 24.0134L24.0533 27.4362C23.6417 27.8568 22.6484 28.2013 21.0734 28.4698C19.4985 28.7383 17.6775 28.8725 15.6104 28.8725H15.6103ZM22.9392 26.9799C21.2121 26.2819 18.7871 25.9329 15.664 25.9329C12.4247 25.9329 9.97276 26.2908 8.30833 27.0067C9.88328 27.6331 12.3218 27.9463 15.6238 27.9463C17.1987 27.9463 18.635 27.8613 19.9325 27.6913C21.23 27.5123 22.2323 27.2752 22.9392 26.9799ZM17.3553 12.7517C17.6775 14.2998 17.7983 15.8837 17.7177 17.5034C17.6909 18.0582 17.6282 18.6398 17.5298 19.2483C17.503 19.6152 17.3732 19.9553 17.1405 20.2685C17.0511 20.4116 17.0063 20.5503 17.0063 20.6846C16.9884 20.9262 17.0421 21.132 17.1674 21.302C17.7401 21.3378 18.2412 21.3826 18.6707 21.4362C18.7334 21.311 18.7647 21.2483 18.7647 21.2483C18.8631 21.0425 18.9213 20.8591 18.9392 20.698C18.9392 20.5101 18.89 20.3177 18.7916 20.1208C18.6663 19.8076 18.6036 19.5034 18.6036 19.2081C18.6126 18.9933 18.6663 18.783 18.7647 18.5772C19.2927 17.3781 19.4716 16.1834 19.3016 14.9933C19.1584 14.0537 18.6618 13.2483 17.8117 12.5772C17.6864 12.6398 17.5343 12.698 17.3553 12.7517ZM20.4963 11.6107C21.4716 12.2729 22.1204 12.9799 22.4426 13.7315C22.7737 14.4743 22.9526 15.2349 22.9795 16.0134C23.0153 17.4094 22.6305 18.7606 21.8251 20.0671C21.673 20.2461 21.5924 20.4519 21.5835 20.6846C21.4851 21.3378 21.5701 21.745 21.8385 21.906C22.1249 21.9776 22.3397 22.0224 22.4828 22.0403C22.8945 21.8076 23.1405 21.4183 23.2211 20.8725C23.2569 20.6577 23.2256 20.4564 23.1271 20.2685C23.1271 20.2416 23.1271 20.2103 23.1271 20.1745C23.1271 20.1387 23.1271 20.1029 23.1271 20.0671C23.1271 19.6107 23.2793 19.2215 23.5835 18.8993C23.9414 18.4698 24.1696 17.9463 24.2681 17.3289C24.3754 16.7114 24.4023 16.1477 24.3486 15.6376C24.1517 14.0089 22.9795 12.6532 20.8318 11.5705C20.7602 11.5973 20.6484 11.6107 20.4963 11.6107ZM18.4426 12.0537C19.418 12.8859 20.0265 13.7584 20.2681 14.6711C20.4202 15.2975 20.4336 15.9732 20.3083 16.698C20.192 17.4139 19.9817 18.0984 19.6775 18.7517C19.5701 18.9128 19.5164 19.0738 19.5164 19.2349C19.4985 19.396 19.5298 19.5615 19.6103 19.7315C19.7714 20.0805 19.8475 20.4161 19.8385 20.7383C19.8385 20.9888 19.7714 21.2528 19.6372 21.5302C19.852 21.557 20.0622 21.5884 20.2681 21.6242C20.4739 21.651 20.6752 21.6779 20.8721 21.7047C20.7379 21.4631 20.6707 21.1186 20.6707 20.6711C20.6707 20.3579 20.7558 20.0358 20.9258 19.7047C21.6506 18.434 21.9951 17.2081 21.9593 16.0268C21.9325 15.1946 21.6909 14.3803 21.2345 13.5839C20.7871 12.7785 20.1517 12.1879 19.3285 11.8121C18.9079 11.9016 18.6126 11.9821 18.4426 12.0537ZM22.2009 11.5839C24.0086 12.4877 25.0153 13.8121 25.2211 15.557C25.3464 16.5414 25.239 17.4765 24.8989 18.3624C25.0958 18.1566 25.3016 17.9016 25.5164 17.5973C26.0086 16.9351 26.2546 16.1387 26.2546 15.2081C26.2546 14.4922 26.0086 13.821 25.5164 13.1946C25.1942 12.783 24.7558 12.4251 24.201 12.1208C23.6461 11.8076 23.0242 11.6286 22.3352 11.5839C22.3083 11.5839 22.286 11.5839 22.2681 11.5839C22.2502 11.5839 22.2278 11.5839 22.2009 11.5839ZM15.6103 6H16.0667V7.57047H17.2077V8.4698H16.0667V10.4161H15.154V8.4698H14.013V7.57047H15.154V6H15.6103Z" fill="black"/>
<path d="M15.6103 21.2618C15.7535 21.2618 15.9414 21.2707 16.1741 21.2886C16.1025 21.1007 16.0757 20.8904 16.0936 20.6577C16.1025 20.3624 16.2009 20.0626 16.3889 19.7584C16.5141 19.6063 16.5947 19.4228 16.6305 19.2081C16.711 18.6711 16.7692 18.0895 16.805 17.4631C16.8765 15.9508 16.7647 14.443 16.4694 12.9396C16.1651 12.9843 15.8788 13.0067 15.6103 13.0067C15.324 13.0067 15.0331 12.9843 14.7378 12.9396C14.4336 14.443 14.3217 15.9508 14.4023 17.4631C14.4202 18.0179 14.4828 18.5996 14.5902 19.2081C14.617 19.4228 14.6976 19.6063 14.8318 19.7584C15.0108 20.0626 15.1092 20.3624 15.1271 20.6577C15.1361 20.8725 15.1047 21.0828 15.0331 21.2886C15.2837 21.2707 15.4761 21.2618 15.6103 21.2618ZM12.7781 12.0537C12.617 11.9821 12.3217 11.9016 11.8922 11.8121C11.06 12.1879 10.4157 12.7785 9.95932 13.5839C9.5119 14.3803 9.27476 15.1946 9.24791 16.0269C9.20317 17.217 9.55216 18.443 10.2949 19.7047C10.4649 20.0627 10.5499 20.3848 10.5499 20.6712C10.5499 21.1186 10.4828 21.4631 10.3486 21.7047C10.5365 21.6779 10.7334 21.651 10.9392 21.6242C11.145 21.5884 11.3598 21.5571 11.5835 21.5302C11.4493 21.2886 11.3777 21.0246 11.3687 20.7383C11.3687 20.4072 11.4493 20.0716 11.6103 19.7316C11.673 19.5436 11.7043 19.3781 11.7043 19.2349C11.6864 19.0828 11.6327 18.9217 11.5432 18.7517C11.23 18.0984 11.0108 17.4139 10.8855 16.698C10.7692 15.9732 10.7915 15.2976 10.9526 14.6712C11.1853 13.7405 11.7938 12.868 12.7781 12.0537ZM9.0063 11.5839C8.97946 11.5839 8.95261 11.5839 8.92577 11.5839C8.90787 11.5839 8.88997 11.5839 8.87207 11.5839C8.17409 11.6286 7.54769 11.8076 6.99288 12.1208C6.44702 12.4251 6.01301 12.783 5.69087 13.1946C5.20764 13.821 4.96603 14.4922 4.96603 15.2081C4.96603 16.1387 5.21212 16.9351 5.70429 17.5973C5.91011 17.9016 6.11592 18.1566 6.32174 18.3624C6.13382 17.8971 6.01749 17.4184 5.97275 16.9262C5.928 16.434 5.93248 15.9776 5.98617 15.5571C6.19198 13.8121 7.1987 12.4877 9.0063 11.5839ZM18.4425 12.0537C19.4179 12.8859 20.0264 13.7584 20.268 14.6712C20.4202 15.2976 20.4336 15.9732 20.3083 16.698C20.192 17.4139 19.9817 18.0984 19.6774 18.7517C19.5701 18.9128 19.5164 19.0738 19.5164 19.2349C19.4985 19.396 19.5298 19.5615 19.6103 19.7316C19.7714 20.0805 19.8475 20.4161 19.8385 20.7383C19.8385 20.9888 19.7714 21.2528 19.6372 21.5302C19.8519 21.5571 20.0622 21.5884 20.268 21.6242C20.4739 21.651 20.6752 21.6779 20.8721 21.7047C20.7378 21.4631 20.6707 21.1186 20.6707 20.6712C20.6707 20.358 20.7557 20.0358 20.9258 19.7047C21.6506 18.434 21.9951 17.2081 21.9593 16.0269C21.9325 15.1946 21.6909 14.3803 21.2345 13.5839C20.7871 12.7785 20.1517 12.1879 19.3284 11.8121C18.9079 11.9016 18.6126 11.9821 18.4425 12.0537ZM22.2009 11.5839C24.0085 12.4877 25.0152 13.8121 25.2211 15.5571C25.3463 16.5414 25.239 17.4765 24.8989 18.3624C25.0958 18.1566 25.3016 17.9016 25.5164 17.5973C26.0085 16.9351 26.2546 16.1387 26.2546 15.2081C26.2546 14.4922 26.0085 13.821 25.5164 13.1946C25.1942 12.783 24.7557 12.4251 24.2009 12.1208C23.6461 11.8076 23.0242 11.6286 22.3352 11.5839C22.3083 11.5839 22.2859 11.5839 22.268 11.5839C22.2502 11.5839 22.2278 11.5839 22.2009 11.5839Z" fill="white"/>
<path d="M17.3956 23.5839L15.6506 24.4564L13.8385 23.5839L15.5835 22.7248L17.3956 23.5839ZM15.6238 11.1275C15.1047 11.1275 14.6618 11.1857 14.2949 11.302C13.937 11.4094 13.758 11.5436 13.758 11.7047C13.758 11.8658 13.937 12.0045 14.2949 12.1208C14.6618 12.2282 15.1047 12.2819 15.6238 12.2819C16.1338 12.2819 16.5723 12.2282 16.9392 12.1208C17.3061 12.0045 17.4895 11.8658 17.4895 11.7047C17.4895 11.5436 17.3061 11.4094 16.9392 11.302C16.5723 11.1857 16.1338 11.1275 15.6238 11.1275ZM15.6103 24.8993C17.1316 24.8993 18.532 24.9888 19.8117 25.1678C21.1003 25.3378 22.1562 25.6242 22.9795 26.0269L22.8989 25.1275L22.362 25.2752L20.7916 24.1208L22.7513 23.5973L22.711 23.0604C21.843 22.783 20.7826 22.5593 19.5298 22.3893C18.286 22.2103 16.9795 22.1208 15.6103 22.1208C14.2323 22.1208 12.9168 22.2103 11.664 22.3893C10.4202 22.5593 9.36873 22.783 8.50967 23.0604L8.4694 23.5973L10.4157 24.1208L8.84524 25.2752L8.32175 25.1275L8.24121 26.0269C9.04658 25.6242 10.0936 25.3378 11.3822 25.1678C12.6707 24.9888 14.0801 24.8993 15.6103 24.8993ZM22.9392 26.9799C21.2121 26.2819 18.7871 25.9329 15.664 25.9329C12.4247 25.9329 9.97276 26.2908 8.30833 27.0067C9.88327 27.6331 12.3218 27.9463 15.6238 27.9463C17.1987 27.9463 18.635 27.8613 19.9325 27.6913C21.23 27.5123 22.2323 27.2752 22.9392 26.9799Z" fill="white"/>
</svg>
