<svg width="32" height="32" viewBox="0 0 32 32" fill="none" xmlns="http://www.w3.org/2000/svg">
<path d="M14.8262 9C14.7457 9 14.6562 9.12975 14.5577 9.38926C14.4683 9.63982 14.4235 9.87696 14.4235 10.1007C14.4146 10.3333 14.4727 10.4407 14.598 10.4228C14.7322 10.396 14.862 10.3826 14.9873 10.3826C15.0947 10.3826 15.2289 10.3691 15.39 10.3423C15.56 10.3065 15.5913 10.1946 15.4839 10.0067C15.3765 9.81879 15.2602 9.60403 15.1349 9.36242C15.0096 9.12081 14.9067 9 14.8262 9ZM12.3698 9.77852C12.1551 9.79642 12.0611 10.0783 12.0879 10.6242C12.0879 10.821 12.1461 10.8881 12.2624 10.8255C12.3788 10.7629 12.4951 10.7315 12.6114 10.7315C12.7188 10.7315 12.853 10.7315 13.0141 10.7315C13.1752 10.7226 13.1976 10.6421 13.0812 10.4899C12.947 10.3378 12.8173 10.1812 12.692 10.0201C12.5756 9.85906 12.4683 9.77852 12.3698 9.77852ZM24.4772 28.1544C24.4235 25.1834 24.2222 22.6465 23.8732 20.5436C23.5242 18.4318 22.9604 16.557 22.1819 14.9195C21.5734 13.6577 20.853 12.7047 20.0208 12.0604C19.1976 11.4072 18.3027 10.9642 17.3363 10.7315C16.7278 10.6868 16.419 10.7987 16.4101 11.0671C16.3743 11.3535 16.6428 11.519 17.2155 11.5638C18.1014 11.8412 18.9023 12.3154 19.6181 12.9866C20.334 13.6488 20.9694 14.5973 21.5242 15.8322C22.2043 17.3982 22.683 19.17 22.9604 21.1477C23.2468 23.1163 23.381 25.4519 23.3631 28.1544H24.4772ZM8.63828 19.7383C8.77251 19.5861 8.78145 19.4072 8.66511 19.2013C8.13714 19.2371 7.73893 19.4027 7.47048 19.698C7.28256 19.9217 7.23334 20.1812 7.32282 20.4765C7.36757 20.7002 7.49732 20.8166 7.71209 20.8255C7.90001 20.8255 8.04318 20.5526 8.14162 20.0067C8.30269 19.953 8.46824 19.8635 8.63826 19.7383H8.63828ZM15.9269 19.5235C16.4011 19.7293 16.9202 19.8322 17.4839 19.8322C17.6718 19.8322 17.8598 19.8188 18.0477 19.7919C18.2893 19.7919 18.4101 19.6667 18.4101 19.4161C18.4101 19.1745 18.2848 19.0447 18.0343 19.0268C17.8463 19.0537 17.6674 19.0671 17.4973 19.0671C17.1752 19.0671 16.9023 19.0313 16.6785 18.9597C16.6964 18.9597 16.7143 18.9553 16.7322 18.9463C16.7591 18.9374 16.7859 18.9284 16.8128 18.9195C17.4481 18.7495 17.9985 18.4452 18.4638 18.0067C18.4906 17.8725 18.5041 17.7964 18.5041 17.7785C18.5041 17.528 18.3922 17.4027 18.1685 17.4027C18.1774 17.4027 18.1148 17.4161 17.9806 17.443C17.6584 17.7562 17.2468 17.9933 16.7457 18.1544C17.0947 17.6712 17.3228 17.1163 17.4302 16.4899C17.4929 16.1052 17.5018 15.7293 17.4571 15.3624C17.4392 15.0224 17.3139 14.8524 17.0812 14.8524C16.8396 14.8524 16.7188 15.0179 16.7188 15.349C16.7456 15.7338 16.7322 16.0649 16.6785 16.3423C16.5443 17.1208 16.2043 17.7338 15.6584 18.1812C15.5063 18.3512 15.4302 18.5481 15.4302 18.7718C15.4302 19.1387 15.5958 19.3893 15.9269 19.5235L15.9269 19.5235ZM12.947 18.7584C13.0365 18.8389 13.1394 18.8792 13.2557 18.8792C13.5421 18.8792 13.6853 18.7405 13.6853 18.4631C13.6853 18.3557 13.6405 18.2573 13.551 18.1678C13.3989 18.0157 13.2781 17.8322 13.1886 17.6175C13.3318 17.519 13.5287 17.443 13.7792 17.3893C13.8956 17.2998 13.9492 17.1924 13.9403 17.0671C13.9224 16.8434 13.7569 16.7584 13.4436 16.8121C12.7009 16.9911 12.0924 17.2685 11.6181 17.6443C11.4123 17.8054 11.2289 17.9978 11.0678 18.2215C10.9336 18.4094 10.8665 18.5526 10.8665 18.651C10.8933 18.9374 10.9917 19.0716 11.1618 19.0537C11.3497 19.0447 11.475 18.9463 11.5376 18.7584C11.7166 18.5168 11.9224 18.311 12.1551 18.1409C12.2356 18.0604 12.3251 18.0022 12.4235 17.9664C12.5488 18.226 12.7233 18.4899 12.947 18.7584ZM11.2692 13.7114C11.0544 13.8188 10.956 13.9754 10.9738 14.1812C10.9828 14.4944 11.1797 14.6421 11.5645 14.6242C11.6002 14.6152 11.7166 14.5526 11.9134 14.4362C12.0835 14.6152 12.2938 14.6958 12.5443 14.6779C13.0454 14.6331 13.2736 14.3691 13.2289 13.8859C13.211 13.7248 13.1349 13.5548 13.0007 13.3758C13.126 13.1342 13.202 12.9911 13.2289 12.9463C13.2199 12.9284 13.2155 12.9105 13.2155 12.8926C13.2155 12.8658 13.2155 12.8389 13.2155 12.8121C13.1976 12.5168 13.032 12.3826 12.7188 12.4094C12.513 12.4273 12.3743 12.5257 12.3027 12.7047C12.0253 13.1611 11.6808 13.4966 11.2691 13.7114H11.2692ZM25.5242 29.0805H10.692C10.7815 26.3691 11.2915 24.4318 12.2222 23.2685C12.6785 22.6958 13.1483 22.1141 13.6316 21.5235C14.1148 20.9239 14.5756 20.1991 15.0141 19.349C14.6651 19.3937 14.3832 19.3937 14.1685 19.349C14.0343 19.3311 13.8329 19.2774 13.5645 19.1879C13.1707 19.3222 12.8665 19.5145 12.6517 19.7651C12.4459 20.0067 12.2759 20.2483 12.1416 20.4899C11.4973 21.5727 11.0096 22.3602 10.6785 22.8524C10.3564 23.3445 9.99398 23.5235 9.5913 23.3893C9.21546 23.2729 8.94253 23.2192 8.77251 23.2282C8.60248 23.2371 8.43694 23.1879 8.27586 23.0805C8.14164 22.9911 8.12821 22.8031 8.23559 22.5168C8.32508 22.2394 8.58906 22.0246 9.02754 21.8725C9.41233 21.7383 9.62262 21.5056 9.65841 21.1745C9.69421 20.8345 9.49734 20.7539 9.06781 20.9329C8.87989 21.0134 8.60248 21.3087 8.23559 21.8188C8.02083 22.1141 7.81501 22.3154 7.61814 22.4228C7.22441 22.6197 6.87989 22.4855 6.58459 22.0201C6.40562 21.7517 6.27139 21.5101 6.1819 21.2953C6.09242 21.0716 6.03425 20.7718 6.00741 20.396C5.97161 19.9396 6.06557 19.5503 6.28928 19.2282C6.513 18.906 6.71882 18.6689 6.90673 18.5168C7.1036 18.3647 7.28257 18.2349 7.44365 18.1275C7.60472 18.0112 7.73895 17.8993 7.84633 17.7919C8.13269 17.4787 8.47273 17.0537 8.86647 16.5168C9.19756 15.962 9.42128 15.4877 9.53761 15.094C9.66289 14.6913 9.77474 14.2438 9.87318 13.7517C9.98056 13.1521 10.1014 12.6063 10.2356 12.1141C10.3698 11.6219 10.6875 11.0447 11.1886 10.3826C11.1439 10.1767 11.1036 9.91275 11.0678 9.5906C11.041 9.3311 11.0275 9.14318 11.0275 9.02685C11.0365 8.90157 11.041 8.69128 11.041 8.39597C11.041 7.75168 11.202 7.42953 11.5242 7.42953C11.7121 7.42953 11.8463 7.51902 11.9269 7.69799C12.0074 7.86801 12.2311 8.16779 12.598 8.59732C12.9381 9.0179 13.2468 9.3311 13.5242 9.53691C13.5868 9.05369 13.7658 8.50783 14.0611 7.89933C14.3475 7.29978 14.5801 7 14.7591 7C14.8307 7 14.9425 7.12528 15.0947 7.37584C15.2557 7.6264 15.3989 7.87248 15.5242 8.11409C15.6584 8.3915 15.7658 8.62864 15.8463 8.8255C15.9358 9.02237 16.0656 9.25503 16.2356 9.52349L18.6786 9.38926L18.8933 10.1812L20.6786 10.2752L20.7591 11.3356L22.5443 11.7383L22.1819 12.9597L24.2625 14.1141L23.1618 14.7315L24.9739 16.1946L24.0745 16.7181L25.6987 18.4362L24.598 18.9597L26.2625 20.7047L24.8396 20.7718L26.2356 22.7584L25.0276 23.0268L26.4101 25.3221L25.0947 25.255L26.1014 27.1208L25.0947 27.6443L26.1416 28.5973L25.5242 29.0805Z" fill="black"/>
<path d="M14.8263 9C14.7457 9 14.6563 9.12975 14.5578 9.38926C14.4683 9.63982 14.4236 9.87696 14.4236 10.1007C14.4146 10.3333 14.4728 10.4407 14.5981 10.4228C14.7323 10.396 14.8621 10.3826 14.9873 10.3826C15.0947 10.3826 15.229 10.3691 15.39 10.3423C15.5601 10.3065 15.5914 10.1946 15.484 10.0067C15.3766 9.81879 15.2603 9.60403 15.135 9.36242C15.0097 9.12081 14.9068 9 14.8263 9ZM12.3699 9.77852C12.1551 9.79642 12.0612 10.0783 12.088 10.6242C12.088 10.821 12.1462 10.8881 12.2625 10.8255C12.3788 10.7629 12.4952 10.7315 12.6115 10.7315C12.7189 10.7315 12.8531 10.7315 13.0142 10.7315C13.1753 10.7226 13.1976 10.6421 13.0813 10.4899C12.9471 10.3378 12.8173 10.1812 12.692 10.0201C12.5757 9.85906 12.4683 9.77852 12.3699 9.77852ZM24.4773 28.1544C24.4236 25.1834 24.2222 22.6465 23.8733 20.5436C23.5243 18.4318 22.9605 16.557 22.182 14.9195C21.5735 13.6577 20.8531 12.7047 20.0209 12.0604C19.1976 11.4072 18.3028 10.9642 17.3363 10.7315C16.7278 10.6868 16.4191 10.7987 16.4102 11.0671C16.3744 11.3535 16.6428 11.519 17.2155 11.5638C18.1014 11.8412 18.9023 12.3154 19.6182 12.9866C20.3341 13.6488 20.9695 14.5973 21.5243 15.8322C22.2044 17.3982 22.6831 19.17 22.9605 21.1477C23.2469 23.1163 23.3811 25.4519 23.3632 28.1544H24.4773ZM8.63836 19.7383C8.77258 19.5861 8.78152 19.4072 8.66518 19.2013C8.13722 19.2371 7.73901 19.4027 7.47055 19.698C7.28263 19.9217 7.23342 20.1812 7.3229 20.4765C7.36764 20.7002 7.4974 20.8166 7.71216 20.8255C7.90008 20.8255 8.04326 20.5526 8.14169 20.0067C8.30277 19.953 8.46833 19.8635 8.63836 19.7383ZM15.9269 19.5235C16.4012 19.7293 16.9202 19.8322 17.484 19.8322C17.6719 19.8322 17.8598 19.8188 18.0478 19.7919C18.2894 19.7919 18.4102 19.6667 18.4102 19.4161C18.4102 19.1745 18.2849 19.0447 18.0343 19.0268C17.8464 19.0537 17.6674 19.0671 17.4974 19.0671C17.1753 19.0671 16.9023 19.0313 16.6786 18.9597C16.6965 18.9597 16.7144 18.9553 16.7323 18.9463C16.7592 18.9374 16.786 18.9284 16.8129 18.9195C17.4482 18.7495 17.9985 18.4452 18.4639 18.0067C18.4907 17.8725 18.5041 17.7964 18.5041 17.7785C18.5041 17.528 18.3923 17.4027 18.1686 17.4027C18.1775 17.4027 18.1149 17.4161 17.9806 17.443C17.6585 17.7562 17.2469 17.9933 16.7457 18.1544C17.0947 17.6712 17.3229 17.1163 17.4303 16.4899C17.4929 16.1052 17.5019 15.7293 17.4571 15.3624C17.4392 15.0224 17.314 14.8524 17.0813 14.8524C16.8397 14.8524 16.7189 15.0179 16.7189 15.349C16.7457 15.7338 16.7323 16.0649 16.6786 16.3423C16.5444 17.1208 16.2043 17.7338 15.6585 18.1812C15.5063 18.3512 15.4303 18.5481 15.4303 18.7718C15.4303 19.1387 15.5958 19.3893 15.9269 19.5235ZM12.9471 18.7584C13.0366 18.8389 13.1395 18.8792 13.2558 18.8792C13.5422 18.8792 13.6853 18.7405 13.6853 18.4631C13.6853 18.3557 13.6406 18.2573 13.5511 18.1678C13.399 18.0157 13.2782 17.8322 13.1887 17.6175C13.3319 17.519 13.5287 17.443 13.7793 17.3893C13.8956 17.2998 13.9493 17.1924 13.9404 17.0671C13.9225 16.8434 13.7569 16.7584 13.4437 16.8121C12.701 16.9911 12.0925 17.2685 11.6182 17.6443C11.4124 17.8054 11.229 17.9978 11.0679 18.2215C10.9337 18.4094 10.8665 18.5526 10.8665 18.651C10.8934 18.9374 10.9918 19.0716 11.1618 19.0537C11.3498 19.0447 11.475 18.9463 11.5377 18.7584C11.7167 18.5168 11.9225 18.311 12.1551 18.1409C12.2357 18.0604 12.3252 18.0022 12.4236 17.9664C12.5489 18.226 12.7234 18.4899 12.9471 18.7584ZM11.2692 13.7114C11.0545 13.8188 10.956 13.9754 10.9739 14.1812C10.9829 14.4944 11.1797 14.6421 11.5645 14.6242C11.6003 14.6152 11.7167 14.5526 11.9135 14.4362C12.0835 14.6152 12.2938 14.6957 12.5444 14.6779C13.0455 14.6331 13.2737 14.3691 13.229 13.8859C13.2111 13.7248 13.135 13.5548 13.0008 13.3758C13.1261 13.1342 13.2021 12.9911 13.229 12.9463C13.22 12.9284 13.2155 12.9105 13.2155 12.8926C13.2155 12.8658 13.2155 12.8389 13.2155 12.8121C13.1976 12.5168 13.0321 12.3826 12.7189 12.4094C12.5131 12.4273 12.3744 12.5257 12.3028 12.7047C12.0254 13.1611 11.6809 13.4966 11.2692 13.7114Z" fill="#EEEEEE"/>
</svg>
