<svg width="32" height="32" viewBox="0 0 32 32" fill="none" xmlns="http://www.w3.org/2000/svg">
<path d="M9.62416 24.6846L10.0403 24.7383L11.5839 23.396L9.50336 22.9933C9.64653 23.5392 9.6868 24.1029 9.62416 24.6846ZM23.1678 27.5168L22.9664 26.1074C21.3557 25.6063 19.1409 25.3557 16.3221 25.3557C13.5034 25.3557 11.2796 25.6063 9.65101 26.1074L9.44966 27.5034C10.9083 26.8859 13.2125 26.5772 16.3624 26.5772C19.4049 26.5772 21.6734 26.8904 23.1678 27.5168ZM22.9664 24.6846C22.9217 24.1029 22.9575 23.5481 23.0738 23.0201L21.0067 23.396L22.5369 24.7383L22.9664 24.6846ZM9.39597 21.8658C11.0783 21.4362 13.4004 21.2215 16.3624 21.2215C17.7852 21.2215 19.0828 21.2707 20.255 21.3691C21.4362 21.4586 22.434 21.6063 23.2483 21.8121C23.2304 21.6331 23.2483 21.4586 23.302 21.2886C23.3647 21.1096 23.4228 20.9262 23.4765 20.7383C21.7315 20.264 19.3423 20.0268 16.3087 20.0268C13.2304 20.0268 10.8322 20.264 9.11409 20.7383C9.16779 20.9262 9.22595 21.1141 9.28859 21.302C9.36018 21.4899 9.39597 21.6779 9.39597 21.8658ZM18.1745 23.3423L16.3087 22.4295L14.4564 23.3423L16.3087 24.255L18.1745 23.3423ZM6.65772 13.7987L7.42282 13.4094L9.74497 17.302C9.95973 17.5168 10.2058 17.6242 10.4832 17.6242C11.1007 17.6242 11.4094 17.311 11.4094 16.6846C11.4094 16.604 11.4049 16.5459 11.396 16.5101L10.8725 11.6376L11.7986 11.4765L13.5168 16.0805C13.7226 16.3758 13.991 16.5235 14.3221 16.5235C14.8859 16.5235 15.1946 16.2506 15.2483 15.7047L15.8523 10.0537H16.7651L17.3557 15.7047C17.4183 16.2506 17.7271 16.5235 18.2819 16.5235C18.613 16.5235 18.8769 16.3758 19.0738 16.0805L20.8188 11.4765L21.7181 11.6644L21.1812 16.4966C21.1812 16.5324 21.1767 16.5682 21.1678 16.604C21.1678 16.6309 21.1678 16.6577 21.1678 16.6846C21.1678 17.311 21.481 17.6242 22.1074 17.6242C22.3758 17.6242 22.6264 17.5168 22.859 17.302L25.208 13.396L26.0537 13.7852C25.0246 15.9418 24.51 18.2282 24.51 20.6443C24.51 20.7785 24.51 20.9262 24.51 21.0872C24.51 21.2483 24.4966 21.4541 24.4698 21.7047C24.1566 22.7248 24 23.6555 24 24.4966C24 25.5436 24.1968 26.5682 24.5906 27.5705C24.1432 27.9463 23.1543 28.2595 21.6241 28.5101C20.0939 28.7606 18.3311 28.8859 16.3356 28.8859C14.3042 28.8859 12.5145 28.7562 10.9664 28.4966C9.42728 28.2282 8.45636 27.8926 8.05367 27.4899C8.42951 26.5503 8.61743 25.5526 8.61743 24.4966C8.61743 23.6555 8.47426 22.7248 8.1879 21.7047C8.17895 21.4541 8.17447 21.2483 8.17447 21.0872C8.18342 20.9262 8.1879 20.7785 8.1879 20.6443C8.1879 18.255 7.67783 15.9732 6.6577 13.7987H6.65772ZM16.3087 10.0268C15.745 10.0268 15.2662 9.83445 14.8725 9.44966C14.4877 9.05593 14.2953 8.57718 14.2953 8.01342C14.2953 7.46756 14.4877 6.99776 14.8725 6.60403C15.2662 6.20134 15.745 6 16.3087 6C16.8635 6 17.3378 6.20134 17.7315 6.60403C18.1253 6.99776 18.3221 7.46756 18.3221 8.01342C18.3221 8.57718 18.1253 9.05593 17.7315 9.44966C17.3378 9.83445 16.8635 10.0268 16.3087 10.0268ZM10.9396 11.5302C10.3848 11.5302 9.91051 11.3378 9.51678 10.953C9.12304 10.5593 8.92617 10.0805 8.92617 9.51678C8.92617 8.97092 9.12304 8.50112 9.51678 8.10738C9.91051 7.7047 10.3848 7.50336 10.9396 7.50336C11.4944 7.50336 11.9687 7.7047 12.3624 8.10738C12.7562 8.50112 12.953 8.97092 12.953 9.51678C12.953 10.0805 12.7562 10.5593 12.3624 10.953C11.9687 11.3378 11.4944 11.5302 10.9396 11.5302ZM21.6779 11.5302C21.1141 11.5302 20.6353 11.3378 20.2416 10.953C19.8568 10.5593 19.6644 10.0805 19.6644 9.51678C19.6644 8.97092 19.8568 8.50112 20.2416 8.10738C20.6353 7.7047 21.1141 7.50336 21.6779 7.50336C22.2327 7.50336 22.7069 7.7047 23.1007 8.10738C23.4944 8.50112 23.6913 8.97092 23.6913 9.51678C23.6913 10.0805 23.4944 10.5593 23.1007 10.953C22.7069 11.3378 22.2327 11.5302 21.6779 11.5302ZM6.01342 13.8389C5.44967 13.8389 4.97092 13.6421 4.57718 13.2483C4.19239 12.8546 4 12.3803 4 11.8255C4 11.2707 4.19239 10.7964 4.57718 10.4027C4.97092 10.0089 5.44967 9.81208 6.01342 9.81208C6.55929 9.81208 7.02908 10.0089 7.42282 10.4027C7.8255 10.7964 8.02685 11.2707 8.02685 11.8255C8.02685 12.3803 7.8255 12.8546 7.42282 13.2483C7.02908 13.6421 6.55929 13.8389 6.01342 13.8389ZM26.6309 13.8389C26.0671 13.8389 25.5884 13.6421 25.1946 13.2483C24.8098 12.8546 24.6175 12.3803 24.6175 11.8255C24.6175 11.2707 24.8098 10.7964 25.1946 10.4027C25.5884 10 26.0671 9.79866 26.6309 9.79866C27.1857 9.79866 27.66 10 28.0537 10.4027C28.4474 10.7964 28.6443 11.2707 28.6443 11.8255C28.6443 12.3803 28.4474 12.8546 28.0537 13.2483C27.66 13.6421 27.1857 13.8389 26.6309 13.8389Z" fill="black"/>
<path fill-rule="evenodd" clip-rule="evenodd" d="M10.0402 24.7383L9.62414 24.6846C9.68678 24.1029 9.64651 23.5392 9.50334 22.9933L11.5839 23.396L10.0402 24.7383ZM23.0738 23.0201C22.9575 23.5481 22.9217 24.1029 22.9664 24.6846L22.5369 24.7383L21.0067 23.396L23.0738 23.0201ZM16.3624 21.2215C13.4004 21.2215 11.0783 21.4362 9.39595 21.8658C9.39595 21.6779 9.36016 21.4899 9.28857 21.302C9.22593 21.1141 9.16777 20.9262 9.11407 20.7383C10.8322 20.264 13.2304 20.0268 16.3087 20.0268C19.3423 20.0268 21.7315 20.264 23.4765 20.7383C23.4228 20.9262 23.3646 21.1096 23.302 21.2886C23.2483 21.4586 23.2304 21.6331 23.2483 21.8121C22.434 21.6063 21.4362 21.4586 20.255 21.3691C19.0828 21.2707 17.7852 21.2215 16.3624 21.2215ZM16.3087 22.4295L18.1745 23.3423L16.3087 24.255L14.4564 23.3423L16.3087 22.4295Z" fill="#EEEEEE"/>
<path d="M23.1678 27.5168L22.9664 26.1074C21.3557 25.6063 19.1409 25.3557 16.3221 25.3557C13.5033 25.3557 11.2796 25.6063 9.65099 26.1074L9.44965 27.5034C10.9083 26.8859 13.2125 26.5772 16.3624 26.5772C19.4049 26.5772 21.6734 26.8904 23.1678 27.5168Z" fill="#EEEEEE"/>
</svg>
