<svg width="32" height="32" viewBox="0 0 32 32" fill="none" xmlns="http://www.w3.org/2000/svg">
<path d="M8.81208 25.2081V26.604H22.557V25.2081H8.81208ZM22.557 23.396L23.4564 24.3221V25.2081H24.3691V28.8993H7V25.2081H7.89933V24.3221L8.81208 23.396H10.6242V24.3087H20.745V23.396H22.557ZM18.4228 11.4631H21.6443V13.7584H18.4228V11.4631ZM13.8456 11.4631H17.5235V13.7584H13.8456V11.4631ZM9.72483 11.4631V13.7584H12.9329V11.4631H9.72483ZM16.1544 14.6711H19.1208V16.9664H16.1544V14.6711ZM12.2483 14.6711H15.2013V16.9664H12.2483V14.6711ZM20.047 14.6711H21.6443V16.9664H20.047V14.6711ZM9.72483 14.6711H11.3356V16.9664H9.72483V14.6711ZM20.047 21.0872H21.6443V23.396H20.047V21.0872ZM16.1544 21.0872H19.1208V23.396H16.1544V21.0872ZM12.2483 21.0872H15.2013V23.396H12.2483V21.0872ZM18.4228 17.8792H21.6443V20.1745H18.4228V17.8792ZM13.8456 17.8792H17.5235V20.1745H13.8456V17.8792ZM9.72483 17.8792H12.9329V20.1745H9.72483V17.8792ZM9.72483 21.0872H11.3356V23.396H9.72483V21.0872ZM20.745 11.4631V10.5503H10.6242V11.4631H7.89933V6H11.1074V8.05369H13.8725V6H17.4966V8.05369H20.2617V6H23.4564V11.4631H20.745Z" fill="black"/>
<path fill-rule="evenodd" clip-rule="evenodd" d="M10.6242 23.396V24.3087H20.745V23.396H20.047V21.0873H21.6443V20.1745H18.4228V17.8792H21.6443V16.9665H20.047V14.6712H21.6443V13.7584H18.4228V11.4631H20.745V10.5504H10.6242V11.4631H12.9329V13.7584H9.72482V14.6712H11.3356V16.9665H9.72482V17.8792H12.9329V20.1745H9.72482V21.0873H11.3356V23.396H10.6242ZM17.5235 11.4631H13.8456V13.7584H17.5235V11.4631ZM19.1208 14.6712H16.1544V16.9665H19.1208V14.6712ZM15.2013 14.6712H12.2483V16.9665H15.2013V14.6712ZM19.1208 21.0873H16.1544V23.396H19.1208V21.0873ZM15.2013 21.0873H12.2483V23.396H15.2013V21.0873ZM17.5235 17.8792H13.8456V20.1745H17.5235V17.8792Z" fill="#EEEEEE"/>
<path d="M8.81207 25.2081V26.604H22.557V25.2081H8.81207Z" fill="#EEEEEE"/>
</svg>
