<svg width="32" height="32" viewBox="0 0 32 32" fill="none" xmlns="http://www.w3.org/2000/svg">
<path d="M22.557 23.396L23.4564 24.2953V25.2081H24.3691V28.8993H7V25.2081H7.89933V24.2953L8.81208 23.396H9.72483V11.4631H7.89933V6H11.1074V8.05369H13.8725V6H17.4966V8.05369H20.2617V6H23.4564V11.4631H21.6443V23.396H22.557ZM22.1007 24.2953H9.26846L8.81208 24.7785V25.2081H22.557V24.7785L22.1007 24.2953ZM17.9664 11.4631V13.7584H20.745V11.4631H17.9664ZM14.302 11.4631V13.7584H17.0671V11.4631H14.302ZM10.6242 11.4631V13.7584H13.3893V11.4631H10.6242ZM16.1544 14.6711V16.9664H18.8792V14.6711H16.1544ZM12.4899 14.6711V16.9664H15.2013V14.6711H12.4899ZM19.7919 14.6711V16.9664H20.745V14.6711H19.7919ZM10.6242 14.6711V16.9664H11.5772V14.6711H10.6242ZM19.7919 21.0872V23.396H20.745V21.0872H19.7919ZM16.1544 21.0872V23.396H18.8792V21.0872H16.1544ZM12.4899 21.0872V23.396H15.2013V21.0872H12.4899ZM17.9664 17.8792V20.1745H20.745V17.8792H17.9664ZM14.302 17.8792V20.1745H17.0671V17.8792H14.302ZM10.6242 17.8792V20.1745H13.3893V17.8792H10.6242ZM10.6242 21.0872V23.396H11.5772V21.0872H10.6242ZM7.89933 26.1745V27.9866H23.4564V26.1745H7.89933ZM15.6846 10.5503H22.557V6.89933L21.1745 6.91276V8.96645H16.5839V6.89933H14.7718V8.96645H10.1946V6.91276L8.81208 6.89933V10.5503H15.6846Z" fill="black"/>
<path d="M22.1006 24.2953H9.26842L8.81204 24.7785V25.2081H22.557V24.7785L22.1006 24.2953ZM17.9664 11.4631V13.7584H20.7449V11.4631H17.9664ZM14.302 11.4631V13.7584H17.0671V11.4631H14.302ZM10.6241 11.4631V13.7584H13.3892V11.4631H10.6241ZM16.1543 14.6712V16.9665H18.8792V14.6712H16.1543ZM12.4899 14.6712V16.9665H15.2013V14.6712H12.4899ZM19.7919 14.6712V16.9665H20.7449V14.6712H19.7919ZM10.6241 14.6712V16.9665H11.5771V14.6712H10.6241ZM19.7919 21.0873V23.396H20.7449V21.0873H19.7919ZM16.1543 21.0873V23.396H18.8792V21.0873H16.1543ZM12.4899 21.0873V23.396H15.2013V21.0873H12.4899ZM17.9664 17.8792V20.1745H20.7449V17.8792H17.9664ZM14.302 17.8792V20.1745H17.0671V17.8792H14.302ZM10.6241 17.8792V20.1745H13.3892V17.8792H10.6241ZM10.6241 21.0873V23.396H11.5771V21.0873H10.6241ZM7.89929 26.1745V27.9866H23.4563V26.1745H7.89929ZM15.6845 10.5504H22.557V6.89935L21.1745 6.91278V8.96647H16.5839V6.89936H14.7718V8.96647H10.1946V6.91278L8.81204 6.89935V10.5504H15.6845Z" fill="white"/>
</svg>
