<svg width="181" height="180" viewBox="0 0 181 180" fill="none" xmlns="http://www.w3.org/2000/svg">
<path d="M90.0424 167.954H42.1186C43.2324 155.35 48.5964 144.71 58.2104 136.034C59.7933 134.569 60.6726 133.777 60.8485 133.66C65.8314 129.556 70.0815 124.661 73.5988 118.975C64.571 113.054 60.057 104.7 60.057 93.9139C60.057 87.231 62.0795 81.2222 66.1245 75.8875C67.4728 74.1875 68.909 72.2529 70.4332 70.0839C72.016 67.9149 73.2764 65.8045 74.2144 63.7527C72.8074 64.1044 70.6677 64.6613 67.7952 65.4234C64.9813 66.1855 62.9002 66.8304 61.5519 67.358C65.5969 63.6061 69.4366 59.1508 73.0712 53.9921C76.7644 48.8333 78.9335 43.3521 79.5783 37.5485C76.5886 34.5001 75.0937 30.9242 75.0937 26.8206C75.0937 22.717 76.53 19.1997 79.4024 16.2686C82.3336 13.3374 85.8802 11.8719 90.0424 11.8719C94.0873 11.8719 97.5754 13.3374 100.507 16.2686C103.438 19.1997 104.903 22.717 104.903 26.8206C104.903 30.9828 103.408 34.5587 100.419 37.5485C101.063 43.3521 103.232 48.8333 106.926 53.9921C110.677 59.1508 114.576 63.6061 118.621 67.358C117.272 66.8304 115.133 66.1855 112.202 65.4234C109.329 64.6613 107.189 64.1044 105.782 63.7527C106.72 65.8045 107.952 67.9149 109.476 70.0839C111.059 72.2529 112.553 74.1875 113.96 75.8875C118.005 81.2222 120.028 87.231 120.028 93.9139C120.028 104.7 115.514 113.054 106.486 118.975C109.827 124.603 114.048 129.498 119.148 133.66C120.028 134.363 120.907 135.155 121.786 136.034C131.459 144.71 136.823 155.35 137.878 167.954H90.0424Z" fill="black"/>
</svg>
