<svg width="181" height="180" viewBox="0 0 181 180" fill="none" xmlns="http://www.w3.org/2000/svg">
<path d="M90.0424 167.954H42.1187C43.2325 155.35 48.5965 144.71 58.2105 136.034C59.7933 134.569 60.6727 133.777 60.8486 133.66C65.8315 129.556 70.0816 124.661 73.5989 118.975C64.5711 113.054 60.0571 104.7 60.0571 93.9139C60.0571 87.2309 62.0795 81.2222 66.1245 75.8875C67.4728 74.1875 68.9091 72.2529 70.4333 70.084C72.0161 67.915 73.2765 65.8046 74.2144 63.7528C72.8075 64.1045 70.6677 64.6614 67.7952 65.4235C64.9813 66.1856 62.9003 66.8305 61.552 67.3581C65.5969 63.6062 69.4367 59.1508 73.0713 53.9921C76.7645 48.8333 78.9335 43.3521 79.5784 37.5485C76.5886 34.5001 75.0938 30.9242 75.0938 26.8206C75.0938 22.717 76.53 19.1997 79.4025 16.2686C82.3336 13.3374 85.8802 11.8719 90.0424 11.8719C94.0873 11.8719 97.5755 13.3374 100.506 16.2686C103.438 19.1997 104.903 22.717 104.903 26.8206C104.903 30.9828 103.408 34.5587 100.419 37.5485C101.063 43.3521 103.232 48.8333 106.926 53.9921C110.677 59.1508 114.576 63.6062 118.621 67.3581C117.272 66.8305 115.133 66.1856 112.202 65.4235C109.329 64.6614 107.189 64.1045 105.782 63.7528C106.72 65.8046 107.952 67.915 109.476 70.084C111.059 72.2529 112.553 74.1875 113.96 75.8875C118.005 81.2222 120.028 87.2309 120.028 93.9139C120.028 104.7 115.514 113.054 106.486 118.975C109.827 124.603 114.048 129.498 119.148 133.66C120.028 134.363 120.907 135.155 121.786 136.034C131.459 144.71 136.823 155.35 137.878 167.954H90.0424Z" fill="black"/>
<path d="M90.0424 35.7898C96.0219 35.7898 99.0116 32.8001 99.0116 26.8206C99.0116 20.8411 96.0219 17.8514 90.0424 17.8514C84.0629 17.8514 81.0732 20.8411 81.0732 26.8206C81.0732 32.8001 84.0629 35.7898 90.0424 35.7898Z" fill="white"/>
<path d="M107.014 110.973C102.324 115.663 96.6667 118.008 90.0424 118.008C83.3594 118.008 77.6731 115.663 72.9833 110.973C68.2935 106.283 65.9486 100.597 65.9486 93.9139C65.9486 88.462 67.6486 83.567 71.0487 79.229C74.7419 74.5392 77.7903 69.2046 80.1938 63.2251C83.5353 62.7561 86.8181 62.5216 90.0424 62.5216C93.0907 62.5216 96.3736 62.7561 99.891 63.2251C102.001 68.8528 105.02 74.1875 108.948 79.229C112.348 83.567 114.048 88.462 114.048 93.9139C114.048 100.597 111.703 106.283 107.014 110.973Z" fill="white"/>
<path d="M130.668 162.062H49.4171C51.1171 155.086 54.4879 148.902 59.5294 143.508C61.4054 141.281 63.2226 139.434 64.9813 137.969C70.3746 133.513 74.9764 128.12 78.7869 121.789C82.4215 123.196 86.1733 123.899 90.0424 123.899C93.7942 123.899 97.5461 123.196 101.298 121.789C104.874 128.003 109.476 133.396 115.103 137.969C116.803 139.434 118.621 141.281 120.555 143.508C125.538 148.902 128.909 155.086 130.668 162.062Z" fill="white"/>
<path d="M101.913 58.2129C98.4547 57.0991 94.4977 56.5421 90.0424 56.5421C86.7595 56.5421 82.8025 57.0991 78.1714 58.2129C79.461 55.7507 80.8094 53.0248 82.2163 50.0351C83.6232 46.9867 84.5612 43.9676 85.0302 40.9779C86.613 41.4469 88.2837 41.6814 90.0424 41.6814C91.6838 41.6814 93.3253 41.4469 94.9667 40.9779C95.377 43.9676 96.2857 46.9867 97.6926 50.0351C99.1582 53.0248 100.565 55.7507 101.913 58.2129Z" fill="white"/>
</svg>
