<svg width="181" height="180" viewBox="0 0 181 180" fill="none" xmlns="http://www.w3.org/2000/svg">
<path d="M90.0434 12.0456H102.178V24.0046H120.381V12.0456H141.309V43.4379L127.151 59.7935C130.2 63.6626 130.258 67.7369 127.327 72.0163C126.858 72.7784 126.624 73.4818 126.624 74.1267C126.624 74.8888 126.858 75.6215 127.327 76.325C128.558 78.1423 129.145 80.7217 129.086 84.0632C129.086 87.346 128.47 89.9254 127.239 91.8013C126.829 92.3876 126.624 93.0031 126.624 93.6479C126.624 94.4686 126.888 95.2307 127.415 95.9342C130.17 100.096 130.112 104.2 127.239 108.245C126.829 108.948 126.624 109.623 126.624 110.267C126.624 110.912 126.829 111.586 127.239 112.29C128.529 114.224 129.174 116.921 129.174 120.38C129.174 123.78 128.47 126.301 127.063 127.942L141.309 135.065V142.627H147.2V168.128H32.7987V142.715H38.7782V135.153L52.9355 127.942C51.5286 126.301 50.8251 123.78 50.8251 120.38C50.8251 116.98 51.4699 114.312 52.7596 112.378C53.2286 111.733 53.4631 111.059 53.4631 110.355C53.4631 109.769 53.2286 109.095 52.7596 108.333C49.8871 104.229 49.8578 100.126 52.6717 96.0221C53.1993 95.0842 53.4631 94.3221 53.4631 93.7359C53.4631 93.1496 53.2579 92.5048 52.8476 91.8013C51.5579 89.9254 50.8837 87.346 50.8251 84.0632C50.8251 80.7217 51.4406 78.1423 52.6717 76.325C53.1993 75.6215 53.4631 74.8888 53.4631 74.1267C53.4631 73.4818 53.2286 72.8077 52.7596 72.1042C49.7699 67.8248 49.8285 63.7212 52.9355 59.7935L38.7782 43.5258V12.1335H59.7064V24.0046L77.8207 24.0925V12.1335L90.0434 12.0456Z" fill="black"/>
<path d="M45.0215 42.0309V34.3807H135.065V42.0309C127.503 41.8551 119.941 41.5326 112.379 41.0636C104.875 40.5947 97.4299 40.3602 90.0434 40.3602C82.4812 40.3602 74.9482 40.5653 67.4445 40.9757C59.9995 41.3274 52.5251 41.6792 45.0215 42.0309Z" fill="white"/>
<path d="M45.0215 141.748C45.0215 139.461 46.2819 138.201 48.8026 137.966C55.6614 137.556 62.5203 137.204 69.3791 136.911C76.2965 136.56 83.1846 136.384 90.0434 136.384C96.9023 136.384 103.761 136.56 110.62 136.911C117.537 137.204 124.425 137.556 131.284 137.966C133.805 138.201 135.065 139.461 135.065 141.748C135.065 144.268 133.805 145.529 131.284 145.529L90.0434 144.122L48.8026 145.529C46.2819 145.529 45.0215 144.268 45.0215 141.748Z" fill="white"/>
<path fill-rule="evenodd" clip-rule="evenodd" d="M70.6981 51.8795C78.0259 51.1174 84.4743 50.7364 90.0434 50.7364C95.4953 50.7364 101.885 51.1175 109.213 51.8796C116.599 52.583 121.26 53.2279 123.194 53.8141C125.012 54.5176 125.832 55.5728 125.657 56.9797C125.539 58.328 124.719 59.3833 123.194 60.1454C121.612 60.9661 118.417 60.9074 113.61 59.9695C108.803 59.0315 105.93 59.0901 104.992 60.1454C104.054 61.2592 103.585 63.2523 103.585 66.1248C103.585 68.9973 104.054 70.9905 104.992 72.1043C105.93 73.2181 108.949 73.3647 114.049 72.544C119.149 71.7233 122.198 71.5767 123.194 72.1043C124.074 72.6319 124.455 73.5992 124.338 75.0061C124.279 76.3544 123.898 77.351 123.194 77.9958C122.432 78.6993 121.348 78.5527 119.941 77.5562C118.593 76.5596 117.596 76.7062 116.951 77.9958C116.248 79.4028 115.896 81.4252 115.896 84.0632C115.896 86.7012 116.248 88.6651 116.951 89.9548C117.596 91.3031 118.593 91.479 119.941 90.4824C121.348 89.4272 122.432 89.2513 123.194 89.9548C123.898 90.7169 124.25 91.86 124.25 93.3842C124.25 94.9084 123.898 95.8463 123.194 96.1981C122.374 96.6084 119.355 96.3153 114.137 95.3188C108.979 94.3222 105.93 94.6153 104.992 96.1981C104.054 97.7809 103.615 99.9206 103.673 102.617C103.79 105.255 104.23 107.102 104.992 108.157C105.754 109.271 108.803 109.417 114.137 108.597C119.472 107.776 122.491 107.629 123.194 108.157C125.363 109.974 125.363 111.967 123.194 114.137C122.491 114.84 121.436 114.693 120.029 113.697C118.622 112.7 117.596 112.847 116.951 114.137C116.248 115.485 115.896 117.478 115.896 120.116C115.896 122.754 116.248 124.718 116.951 126.008C117.596 127.415 118.593 127.62 119.941 126.623C121.348 125.568 122.432 125.363 123.194 126.008C123.898 126.711 124.367 127.854 124.601 129.437C124.894 130.961 124.425 131.811 123.194 131.987C122.315 132.163 118.505 132.016 111.763 131.547C105.021 131.02 97.7816 130.756 90.0434 130.756C82.2467 130.756 75.0655 131.078 68.4997 131.723C61.934 132.368 58.0649 132.456 56.8925 131.987C55.3683 131.459 54.8114 130.521 55.2218 129.173C55.6321 127.766 56.189 126.711 56.8925 126.008C57.596 125.363 58.6219 125.568 59.9702 126.623C61.3771 127.62 62.4323 127.414 63.1358 126.008C63.8393 124.718 64.191 122.754 64.191 120.116C64.191 117.478 63.8393 115.485 63.1358 114.136C62.4323 112.847 61.3771 112.7 59.9702 113.697C58.6219 114.693 57.596 114.84 56.8925 114.136C54.6062 112.026 54.6062 110.033 56.8925 108.157C57.596 107.629 60.4978 107.835 65.5979 108.773C70.7567 109.652 73.893 109.447 75.0068 108.157C76.062 106.926 76.5896 104.903 76.5896 102.09C76.5896 99.2757 76.062 97.3119 75.0068 96.198C73.893 95.1429 70.786 95.0256 65.6859 95.8463C60.5857 96.6084 57.6546 96.7256 56.8925 96.198C56.0718 95.7877 55.6614 94.8497 55.6614 93.3841C55.7201 91.86 56.1304 90.7168 56.8925 89.9548C57.596 89.2513 58.6219 89.4271 59.9702 90.4823C61.3771 91.4789 62.4323 91.3031 63.1358 89.9548C63.8393 88.665 64.191 86.7012 64.191 84.0632C64.191 81.4252 63.8393 79.4027 63.1358 77.9958C62.4323 76.7061 61.3771 76.5595 59.9702 77.5561C58.6219 78.5527 57.596 78.6992 56.8925 77.9958C56.189 77.3509 55.7201 76.3543 55.4856 75.006C55.2511 73.5991 55.72 72.6318 56.8925 72.1042C58.0649 71.5766 61.084 71.7232 65.9497 72.5439C70.8739 73.3646 73.893 73.218 75.0068 72.1042C76.062 70.9904 76.5896 68.9386 76.5896 65.9489C76.5896 62.9005 76.062 60.966 75.0068 60.1453C73.893 59.3832 70.9912 59.3246 66.3014 59.9694C61.6116 60.6143 58.4753 60.6729 56.8925 60.1453C55.3097 59.6763 54.4303 58.6797 54.2545 57.1555C54.0786 55.6313 54.958 54.5175 56.8925 53.814C58.7684 53.2278 63.3703 52.583 70.6981 51.8795ZM89.9555 58.1228C86.7899 58.1228 84.3864 58.797 82.745 60.1453C81.0449 61.5522 80.1949 63.5454 80.1949 66.1248C80.1949 68.7041 81.0449 70.6973 82.745 72.1042C84.3864 73.5112 86.7899 74.2147 89.9555 74.2147C93.1798 74.2147 95.6419 73.5112 97.3419 72.1042C99.042 70.6973 99.892 68.7041 99.892 66.1248C99.892 63.5454 99.042 61.5522 97.3419 60.1453C95.6419 58.797 93.1798 58.1228 89.9555 58.1228ZM70.4343 114.136C72.1929 112.788 74.7137 112.114 77.9965 112.114C81.2794 112.114 83.8002 112.788 85.5589 114.136C87.3175 115.543 88.1089 117.654 87.933 120.468C87.8158 123.282 87.0244 125.128 85.5589 126.008C84.0347 127.004 81.4553 127.473 77.8207 127.414C74.2447 127.297 71.7826 126.828 70.4343 126.008C69.0273 125.245 68.2359 123.428 68.0601 120.556C67.8842 117.683 68.6756 115.543 70.4343 114.136ZM94.5281 114.136C96.2281 112.788 98.7196 112.114 102.002 112.114C105.344 112.114 107.894 112.788 109.653 114.136C111.411 115.543 112.291 117.654 112.291 120.468C112.349 123.282 111.47 125.128 109.653 126.008C107.777 127.004 105.227 127.502 102.002 127.502C98.7782 127.502 96.2867 127.004 94.5281 126.008C92.6522 125.128 91.7435 123.282 91.8021 120.468C91.8607 117.654 92.7694 115.543 94.5281 114.136ZM94.5281 77.9957C96.2281 76.6474 98.7196 75.9733 102.002 75.9733C105.344 75.9733 107.894 76.6474 109.653 77.9957C111.411 79.4027 112.291 81.4252 112.291 84.0632C112.291 86.6426 111.411 88.6064 109.653 89.9547C107.894 91.3617 105.344 92.0651 102.002 92.0651C98.7196 92.0651 96.2281 91.3617 94.5281 89.9547C92.7694 88.6064 91.8901 86.6426 91.8901 84.0632C91.8901 81.4252 92.7694 79.4027 94.5281 77.9957ZM77.9966 75.9733C74.7137 75.9733 72.1929 76.6474 70.4343 77.9957C68.6756 79.4027 67.7963 81.4252 67.7963 84.0632C67.7963 86.6426 68.6756 88.6064 70.4343 89.9547C72.1929 91.3617 74.7137 92.0651 77.9966 92.0651C81.2794 92.0651 83.8002 91.3617 85.5589 89.9547C87.3175 88.6064 88.1968 86.6426 88.1968 84.0632C88.1968 81.4252 87.3175 79.4027 85.5589 77.9957C83.8002 76.6474 81.2794 75.9733 77.9966 75.9733ZM82.745 96.198C84.3864 94.8497 86.7899 94.1755 89.9555 94.1755C93.1798 94.1755 95.6419 94.8497 97.3419 96.198C99.042 97.605 99.892 99.6274 99.892 102.265C99.892 104.845 99.042 106.809 97.3419 108.157C95.6419 109.564 93.1798 110.267 89.9555 110.267C86.7899 110.267 84.3864 109.564 82.745 108.157C81.0449 106.809 80.1949 104.845 80.1949 102.265C80.1949 99.6274 81.0449 97.605 82.745 96.198Z" fill="white"/>
<path d="M39.042 157.488V151.508H141.133V157.488H39.042Z" fill="white"/>
</svg>
