<svg width="180" height="180" viewBox="0 0 180 180" fill="none" xmlns="http://www.w3.org/2000/svg">
<path d="M120.857 123.839C121.114 123.583 121.754 123.071 122.779 122.302C132.005 115.178 137.591 105.44 139.539 93.0881C141.538 80.685 139.308 69.3579 132.851 59.1075C128.34 52.0345 122.574 46.8835 115.553 43.6546C108.582 40.3744 101.458 39.1956 94.1805 40.1182C104.636 42.5783 113.375 48.498 120.396 57.8773C127.469 67.2564 131.005 78.1222 131.005 90.4742C131.005 99.3921 129.211 107.593 125.624 115.076C123.676 117.792 122.087 120.713 120.857 123.839ZM53.2805 71.5618L53.2036 78.1734C56.5864 79.8649 60.7888 80.9409 65.8119 81.4022C72.8848 82.1711 79.6241 81.1204 86.031 78.2505C92.4891 75.3801 98.1776 71.1776 103.098 65.6421L101.022 60.1065C96.7686 65.4373 91.5919 69.5374 85.4927 72.4072C79.3935 75.2777 72.9613 76.3537 66.1961 75.6366C61.5319 75.1753 57.2271 73.8169 53.2804 71.5618H53.2805ZM56.5093 122.456C60.1999 122.661 63.8899 122.584 67.5799 122.225C75.4217 121.457 82.5969 118.407 89.1062 113.077C94.7441 108.464 99.2542 102.698 102.637 95.7786L97.1786 95.7021C94.8206 100.161 91.1818 104.363 86.2616 108.31C79.7524 113.64 72.8078 116.459 65.4272 116.767C60.8659 117.125 56.5864 116.767 52.5886 115.69L56.5093 122.456ZM68.0411 144.674C66.4014 144.674 65.5813 145.571 65.5813 147.365V147.442C65.5813 149.236 66.4014 150.132 68.0411 150.132H112.478C114.118 150.132 114.938 149.236 114.938 147.442V147.365C114.938 145.571 114.118 144.674 112.478 144.674H68.0411ZM63.9669 145.135C63.6081 140.164 61.8908 135.756 58.8156 131.912C55.7918 128.017 53.1523 124.147 50.8972 120.303C46.8995 119.432 43.0811 117.843 39.4422 115.537C36.2645 108.976 34.4194 102.006 33.9069 94.6254C33.3944 87.2449 34.1375 80.0955 36.1364 73.1762L50.6666 74.7141C50.0515 62.5669 52.5886 51.9063 58.2778 42.7321C64.0181 33.5578 71.3216 28.6888 80.1883 28.125C80.3419 30.3801 80.8802 33.4297 81.8027 37.2736C91.6942 32.0458 102.125 30.9695 113.092 34.0447C124.061 37.1199 132.851 43.8083 139.462 54.1102C146.74 65.6421 149.277 78.3529 147.073 92.2421C144.869 106.132 138.54 117.1 128.084 125.147C125.675 126.992 123.189 128.555 120.626 129.836C120.114 131.015 119.653 132.04 119.243 132.911C118.833 133.783 118.551 135.218 118.397 137.217C118.244 138.805 118.141 140.164 118.09 141.291C118.038 142.419 117.936 143.674 117.782 145.059C120.242 144.904 122.472 145.827 124.471 147.826C126.47 149.825 127.469 152.234 127.469 155.053V163.048H54.2799V155.053C54.2799 152.387 55.2537 150.03 57.2012 147.98C59.1491 145.878 61.4042 144.93 63.9669 145.135Z" fill="black"/>
<path d="M120.857 123.84C121.114 123.584 121.754 123.071 122.779 122.302C132.005 115.178 137.591 105.44 139.539 93.0881C141.538 80.685 139.308 69.3579 132.85 59.1075C128.34 52.0346 122.574 46.8837 115.553 43.6547C108.582 40.3746 101.458 39.1957 94.1799 40.1183C104.636 42.5784 113.374 48.4981 120.396 57.8773C127.469 67.2564 131.005 78.1222 131.005 90.4742C131.005 99.3921 129.211 107.593 125.624 115.076C123.676 117.792 122.087 120.714 120.857 123.84ZM53.2804 71.5618L53.2035 78.1734C56.5864 79.8649 60.7888 80.9409 65.8114 81.4022C72.8848 82.1711 79.6241 81.1204 86.031 78.2505C92.4885 75.3801 98.1776 71.1776 103.098 65.6421L101.022 60.1071C96.7686 65.4373 91.5919 69.5374 85.4927 72.4078C79.3935 75.2777 72.9613 76.3543 66.1961 75.6366C61.5319 75.1753 57.2271 73.8169 53.2804 71.5618ZM56.5093 122.456C60.1993 122.661 63.8899 122.584 67.5799 122.226C75.4217 121.457 82.5969 118.407 89.1062 113.077C94.7441 108.464 99.2543 102.698 102.637 95.7791L97.1786 95.7021C94.8206 100.161 91.1818 104.363 86.2616 108.31C79.7524 113.64 72.8078 116.459 65.4272 116.767C60.8659 117.125 56.5864 116.767 52.5885 115.69L56.5093 122.456ZM68.0411 144.674C66.4009 144.674 65.5813 145.571 65.5813 147.365V147.442C65.5813 149.236 66.4009 150.132 68.0411 150.132H112.478C114.118 150.132 114.937 149.236 114.937 147.442V147.365C114.937 145.571 114.118 144.674 112.478 144.674H68.0411Z" fill="#EEEEEE"/>
</svg>
