<svg width="180" height="180" viewBox="0 0 180 180" fill="none" xmlns="http://www.w3.org/2000/svg">
<path d="M123.01 122.302C123.369 121.994 123.676 121.738 123.932 121.533C124.24 121.277 124.548 121.021 124.855 120.764C133.671 113.589 139.001 103.826 140.846 91.4737C142.742 79.1218 140.615 67.7947 134.465 57.4931C130.16 50.42 124.676 45.269 118.013 42.0401C111.401 38.76 104.636 37.5811 97.7169 38.5037C107.66 40.9638 115.963 46.8835 122.626 56.2629C129.34 65.6421 132.697 76.5332 132.697 88.9363C132.697 97.7006 130.98 105.901 127.546 113.538C125.65 116.305 124.138 119.227 123.01 122.302ZM66.5038 116.382C73.6791 116.075 80.2907 113.41 86.3387 108.387C91.9766 103.774 96.2561 97.9824 99.1772 91.0125C102.099 83.9908 103.508 76.7126 103.405 69.1785C98.8442 74.4064 93.5139 78.3782 87.4147 81.0951C81.3667 83.8114 74.9604 84.8104 68.1953 84.0932C63.5822 83.5807 59.2768 82.2994 55.2794 80.2491L42.2098 78.7882C39.0835 90.2689 39.9804 101.314 44.9006 111.923C51.871 115.562 59.0721 117.049 66.5038 116.382ZM56.7399 74.7141C60.5329 76.8662 64.6329 78.1734 69.0407 78.6347C75.4988 79.3007 81.5979 78.2505 87.3383 75.4824C93.0786 72.7149 98.0241 68.7431 102.176 63.5664C99.2031 61.5161 96.7939 60.3118 94.9489 59.9529C85.365 55.9041 79.1629 47.6524 76.3442 35.1979C70.2962 37.3505 65.4019 42.117 61.6601 49.4974C57.9701 56.8777 56.3299 65.2832 56.7399 74.7141ZM112.093 144.674C111.786 141.547 111.914 138.062 112.478 134.218C113.092 129.554 114.118 125.685 115.553 122.61C117.039 119.535 118.807 116.203 120.857 112.615C124.599 105.337 126.47 97.4447 126.47 88.9363C126.47 76.3284 122.626 65.5397 114.938 56.5701C107.301 47.6011 98.1264 43.1165 87.4147 43.1165C86.3899 43.1165 85.6468 43.1421 85.1856 43.1934C88.1066 48.4212 91.8737 52.1626 96.4868 54.4178C101.305 55.7503 105.482 58.4921 109.018 62.6439C109.941 72.1254 108.787 81.4281 105.558 90.5512C102.329 99.6227 97.1786 107.054 90.1058 112.846C84.0066 117.92 77.1902 120.841 69.6555 121.61C65.7608 121.969 62.1984 121.969 58.9697 121.61C61.4807 123.814 63.8128 127.043 65.9655 131.297C68.1182 135.551 69.579 140.01 70.3479 144.674H112.093ZM122.318 155.053C122.318 151.618 120.575 149.902 117.09 149.902H64.7353C61.1989 149.902 59.4309 151.67 59.4309 155.207V157.82H122.318V155.053ZM63.9669 145.135C63.6081 140.164 61.8908 135.756 58.8156 131.912C55.7918 128.017 53.1523 124.147 50.8972 120.303C46.8995 119.432 43.0811 117.843 39.4422 115.537C36.2645 108.976 34.4194 102.006 33.9069 94.6254C33.3944 87.2449 34.1375 80.0955 36.1364 73.1762L50.6666 74.7141C50.0515 62.5669 52.5886 51.9063 58.2778 42.7321C64.0181 33.5578 71.3216 28.6888 80.1883 28.125C80.3419 30.3801 80.8802 33.4297 81.8027 37.2736C91.6942 32.0458 102.125 30.9695 113.092 34.0447C124.061 37.1199 132.851 43.8084 139.462 54.1102C146.74 65.6421 149.277 78.3529 147.073 92.2421C144.869 106.132 138.54 117.1 128.084 125.147C125.675 126.992 123.189 128.555 120.626 129.836C120.114 131.015 119.653 132.04 119.243 132.911C118.833 133.783 118.551 135.218 118.397 137.217C118.244 138.805 118.141 140.164 118.09 141.291C118.038 142.419 117.936 143.674 117.782 145.059C120.242 144.904 122.472 145.827 124.471 147.826C126.47 149.825 127.469 152.234 127.469 155.053V163.048H54.2799V155.053C54.2799 152.387 55.2537 150.03 57.2012 147.98C59.1491 145.878 61.4042 144.93 63.9669 145.135Z" fill="black"/>
<path d="M123.01 122.302C123.369 121.994 123.676 121.739 123.932 121.533C124.24 121.277 124.548 121.021 124.855 120.765C133.671 113.589 139.001 103.826 140.846 91.4737C142.742 79.1218 140.615 67.7947 134.465 57.4931C130.16 50.4201 124.676 45.2692 118.013 42.0402C111.401 38.76 104.636 37.5812 97.7169 38.5037C107.66 40.9639 115.963 46.8836 122.626 56.2629C129.34 65.6421 132.697 76.5332 132.697 88.9363C132.697 97.7006 130.98 105.901 127.546 113.538C125.65 116.305 124.138 119.227 123.01 122.302ZM66.5038 116.382C73.6791 116.075 80.2907 113.41 86.3387 108.387C91.9766 103.775 96.2561 97.9824 99.1772 91.0125C102.099 83.9908 103.508 76.7126 103.405 69.1785C98.8442 74.4064 93.5139 78.3787 87.4147 81.0951C81.3673 83.8114 74.9604 84.8109 68.1952 84.0932C63.5822 83.5807 59.2768 82.2994 55.2793 80.2491L42.2099 78.7882C39.0835 90.2689 39.9804 101.314 44.9007 111.923C51.871 115.562 59.0721 117.049 66.5038 116.382ZM56.7399 74.7141C60.5329 76.8668 64.6329 78.1734 69.0407 78.6347C75.4987 79.3012 81.5979 78.2505 87.3382 75.4824C93.0786 72.7149 98.0241 68.7431 102.176 63.5664C99.2031 61.5161 96.7939 60.3118 94.9489 59.9529C85.365 55.9041 79.1634 47.6524 76.3442 35.198C70.2962 37.3506 65.4019 42.1171 61.6601 49.4975C57.9701 56.8777 56.3299 65.2832 56.7399 74.7141ZM112.093 144.674C111.786 141.548 111.914 138.062 112.477 134.219C113.092 129.554 114.118 125.685 115.553 122.61C117.039 119.535 118.807 116.203 120.858 112.615C124.599 105.338 126.47 97.4447 126.47 88.9363C126.47 76.3284 122.626 65.5397 114.938 56.5706C107.301 47.6012 98.127 43.1165 87.4147 43.1165C86.3899 43.1165 85.6468 43.1422 85.1856 43.1935C88.1066 48.4212 91.8737 52.1627 96.4867 54.4178C101.305 55.7504 105.482 58.4927 109.018 62.6439C109.941 72.1254 108.787 81.4281 105.558 90.5512C102.329 99.6227 97.1786 107.054 90.1057 112.846C84.0066 117.92 77.1902 120.841 69.6555 121.61C65.7607 121.969 62.1984 121.969 58.9697 121.61C61.4807 123.814 63.8128 127.043 65.9655 131.297C68.1182 135.551 69.579 140.01 70.3479 144.674H112.093ZM122.318 155.053C122.318 151.618 120.575 149.902 117.09 149.902H64.7353C61.1989 149.902 59.4309 151.67 59.4309 155.207V157.821H122.318V155.053Z" fill="white"/>
</svg>
