<svg width="180" height="180" viewBox="0 0 180 180" fill="none" xmlns="http://www.w3.org/2000/svg">
<path d="M70.3446 145.135C68.6019 145.135 67.7306 146.006 67.7306 147.749C67.7306 149.492 68.6019 150.363 70.3446 150.363H112.167C113.91 150.363 114.781 149.492 114.781 147.749C114.781 146.006 113.91 145.135 112.167 145.135H70.3446ZM117.472 145.135C120.393 145.135 122.879 146.16 124.929 148.21C127.03 150.209 128.081 152.669 128.081 155.591V163.509H54.8151V155.591C54.8151 152.72 55.7377 150.261 57.5826 148.21C59.4281 146.16 61.9138 145.135 65.0402 145.135C65.8091 144.52 66.1933 144.11 66.1933 143.905C66.1933 138.678 64.6813 134.193 61.6573 130.451C58.6845 131.784 55.6095 132.168 52.4319 131.605C48.1266 130.836 44.6926 128.657 42.13 125.07C39.6186 121.482 38.8242 117.51 39.7467 113.154L45.0515 71.0235C43.6164 69.0249 42.4632 67.1799 41.5919 65.4885C42.4119 56.1603 44.9746 47.3448 49.2798 39.0418C48.8185 34.6341 48.8185 30.9952 49.2798 28.125C57.4802 32.789 65.7832 35.7104 74.1887 36.8893C76.905 37.453 79.6213 38.1706 82.3376 39.0418C86.1306 38.8369 90.2306 39.1187 94.6384 39.8875C99.1491 40.7076 103.531 41.9889 107.785 43.7315C112.039 45.4228 116.472 47.4986 121.085 49.9587C128.414 51.4963 133.232 55.289 135.538 61.3367C137.024 65.6421 136.999 69.9216 135.461 74.1758C140.023 77.7634 142.303 82.4529 142.303 88.2444C142.303 92.9087 140.612 97.4188 137.23 101.775C139.434 109.156 138.485 115.28 134.385 120.149C131.618 125.07 128.158 129.401 124.006 133.142C120.316 136.064 118.138 140.061 117.471 145.135H117.472ZM122.776 118.304C123.391 116.459 124.16 113.999 125.083 110.924C125.698 109.54 125.006 108.541 123.007 107.926C120.957 107.465 119.65 108.003 119.086 109.54C118.779 110.565 118.471 111.667 118.164 112.846C117.907 114.025 117.574 115.178 117.164 116.305C116.703 118.253 117.42 119.432 119.317 119.842C121.264 120.355 122.417 119.842 122.776 118.304ZM121.854 96.5475C121.597 98.5978 122.443 99.6486 124.391 99.6997C126.39 99.9045 127.517 99.2638 127.774 97.7777C127.876 95.7274 127.902 93.2676 127.851 90.3971C128.209 88.8598 127.363 87.8856 125.313 87.4761C123.161 87.2196 121.931 88.1162 121.623 90.1665C121.623 91.3455 121.674 92.4474 121.777 93.4723C121.879 94.446 121.905 95.4714 121.854 96.5475ZM69.0379 53.5721C68.1666 53.1107 66.9622 53.4952 65.4244 54.7252C63.8871 55.9553 62.5033 57.672 61.2731 59.8759C59.9406 62.1315 59.1204 64.2324 58.8127 66.1804C58.5051 68.1277 58.7874 69.3321 59.6587 69.7933C60.4783 70.3063 61.6573 69.9474 63.1952 68.7173C64.7325 67.4871 66.1674 65.7444 67.5 63.4894C68.7814 61.2343 69.5762 59.1328 69.8833 57.1854C70.191 55.2377 69.9092 54.0333 69.0379 53.5721ZM65.0402 127.837C67.9612 125.326 69.7809 122.276 70.4987 118.689C70.6522 117.356 70.4216 115.947 69.8068 114.46C69.2426 112.923 69.4479 111.693 70.4216 110.77C76.572 105.081 81.8764 99.9045 86.3359 95.2408C90.7948 90.5254 94.1518 84.1956 96.4069 76.2514C96.9705 73.7398 96.5351 72.3561 95.0996 72.1001C92.691 71.6901 91.3072 72.3308 90.9484 74.0222C88.7445 81.8634 85.2339 88.1932 80.4161 93.0111C75.5983 97.8289 70.0627 103.21 63.81 109.156C62.6822 110.232 62.6569 111.59 63.7329 113.23C64.8607 114.87 65.2961 116.382 65.0402 117.766C64.5789 120.329 63.1693 122.507 60.8119 124.301C59.1204 125.89 59.0434 127.299 60.5812 128.53C62.0162 129.606 63.5023 129.375 65.0402 127.837ZM92.5627 49.7281C99.5332 53.8283 105.607 58.9534 110.783 65.1038C112.218 66.4363 113.525 66.3598 114.704 64.8731C115.883 63.5406 115.806 62.2851 114.473 61.1061C109.041 54.5459 102.839 49.2924 95.8686 45.3459C94.5872 44.4234 93.357 44.6284 92.1786 45.961C91.0507 47.3961 91.179 48.6518 92.5627 49.7281ZM118.164 78.0199C118.369 79.8137 119.342 80.5309 121.085 80.172C122.982 79.9161 123.827 79.0701 123.622 77.6351C123.212 75.6877 122.648 73.5351 121.931 71.1776C121.931 69.7421 120.982 69.1014 119.086 69.2556C117.138 69.4603 116.267 70.5369 116.472 72.4843C116.728 73.458 117.011 74.3805 117.318 75.2518C117.625 76.1231 117.907 77.0456 118.164 78.0199Z" fill="black"/>
<path d="M70.3451 145.135C68.6025 145.135 67.7312 146.006 67.7312 147.749C67.7312 149.492 68.6025 150.363 70.3451 150.363H112.167C113.91 150.363 114.781 149.492 114.781 147.749C114.781 146.006 113.91 145.135 112.167 145.135H70.3451ZM122.777 118.304C123.392 116.459 124.161 113.999 125.083 110.924C125.698 109.54 125.006 108.541 123.008 107.926C120.957 107.464 119.65 108.002 119.086 109.54C118.779 110.565 118.472 111.667 118.164 112.846C117.907 114.025 117.574 115.178 117.164 116.305C116.703 118.253 117.421 119.432 119.317 119.842C121.265 120.354 122.418 119.842 122.777 118.304ZM121.854 96.5475C121.598 98.5978 122.443 99.648 124.391 99.6997C126.39 99.9045 127.518 99.2638 127.774 97.7777C127.876 95.7274 127.902 93.267 127.851 90.3971C128.21 88.8593 127.364 87.8856 125.314 87.4755C123.161 87.2196 121.931 88.1162 121.624 90.1665C121.624 91.3455 121.675 92.4474 121.777 93.4723C121.88 94.446 121.905 95.4709 121.854 96.5475ZM69.0379 53.5719C68.1666 53.1107 66.9623 53.495 65.4249 54.7251C63.8871 55.9552 62.5033 57.672 61.2731 59.8759C59.9406 62.1309 59.1204 64.2324 58.8133 66.1804C58.5056 68.1278 58.7874 69.3321 59.6588 69.7933C60.4789 70.3057 61.6579 69.9474 63.1952 68.7173C64.7325 67.4871 66.168 65.7444 67.5006 63.4894C68.7819 61.2343 69.5762 59.1328 69.8839 57.1854C70.191 55.2377 69.9092 54.0332 69.0379 53.5719ZM65.0402 127.837C67.9618 125.326 69.7809 122.276 70.4987 118.689C70.6523 117.356 70.4216 115.946 69.8068 114.46C69.2432 112.923 69.4479 111.693 70.4216 110.77C76.572 105.081 81.8769 99.9045 86.3359 95.2403C90.7948 90.5254 94.1518 84.1956 96.4069 76.2514C96.9711 73.7398 96.5351 72.3561 95.1002 72.1001C92.691 71.6901 91.3073 72.3308 90.9484 74.0216C88.7445 81.8634 85.2339 88.1932 80.4161 93.0111C75.5983 97.8289 70.0633 103.21 63.81 109.155C62.6828 110.232 62.6569 111.59 63.7335 113.23C64.8608 114.87 65.2967 116.382 65.0402 117.766C64.5789 120.329 63.1693 122.507 60.8119 124.301C59.1204 125.89 59.0439 127.299 60.5813 128.529C62.0162 129.606 63.5029 129.375 65.0402 127.837ZM92.5633 49.728C99.5333 53.8282 105.607 58.9534 110.783 65.1038C112.219 66.4363 113.525 66.3598 114.704 64.8731C115.883 63.5406 115.806 62.2851 114.474 61.1061C109.041 54.5457 102.839 49.2923 95.8691 45.3459C94.5878 44.4233 93.3576 44.6284 92.1786 45.9609C91.0513 47.396 91.179 48.6517 92.5633 49.728ZM118.164 78.0193C118.369 79.8131 119.343 80.5309 121.085 80.172C122.982 79.9161 123.827 79.0701 123.622 77.6351C123.212 75.6878 122.649 73.5351 121.931 71.1771C121.931 69.7421 120.983 69.1014 119.086 69.2556C117.139 69.4603 116.268 70.5364 116.472 72.4843C116.729 73.458 117.011 74.3805 117.318 75.2518C117.626 76.1231 117.907 77.0456 118.164 78.0193Z" fill="#EEEEEE"/>
</svg>
