<svg width="180" height="180" viewBox="0 0 180 180" fill="none" xmlns="http://www.w3.org/2000/svg">
<path d="M99.2897 54.4177H118.74V59.6452H95.2149C95.8297 70.7164 97.7777 81.9917 101.058 93.4723C104.338 104.953 110.13 113.897 118.433 120.303C118.433 125.531 117.1 130.451 114.435 135.064C111.821 139.625 108.438 143.367 104.287 146.288L113.666 146.365C116.434 146.365 118.817 147.39 120.816 149.44C122.866 151.491 123.891 153.925 123.891 156.744V164.739H50.7019L50.625 156.898C50.625 153.977 51.65 151.491 53.7002 149.44C55.7503 147.39 58.2362 146.365 61.1573 146.365L70.4599 146.288C66.1033 143.316 62.5416 139.523 59.7735 134.911C57.006 130.246 55.6221 125.377 55.6221 120.303C63.8741 113.897 69.7168 104.953 73.1509 93.4723C76.5844 81.9917 78.6606 70.7164 79.3777 59.6452H55.8528V54.4177H75.5336C72.8173 51.4963 71.4594 48.0111 71.4594 43.9621C71.4594 39.6056 72.9968 35.8898 76.0719 32.8146C79.1471 29.6882 82.8889 28.125 87.2966 28.125C91.6014 28.125 95.3173 29.6882 98.4437 32.8146C101.57 35.8898 103.133 39.6056 103.133 43.9621C103.133 48.0111 101.852 51.4963 99.2897 54.4177ZM63.6176 117.536C61.9262 117.536 61.0807 118.407 61.0807 120.149C61.0807 121.892 61.9262 122.763 63.6176 122.763H110.899C112.641 122.763 113.513 121.892 113.513 120.149C113.513 118.407 112.641 117.536 110.899 117.536H63.6176ZM75.3801 144.751C73.7916 144.751 72.9967 145.622 72.9967 147.365C72.9967 149.108 73.7916 149.979 75.3801 149.979H99.2126C100.751 149.979 101.519 149.108 101.519 147.365C101.519 145.622 100.751 144.751 99.2126 144.751H75.3801Z" fill="black"/>
<path d="M63.6176 117.536C61.9262 117.536 61.0807 118.407 61.0807 120.149C61.0807 121.892 61.9262 122.763 63.6176 122.763H110.899C112.641 122.763 113.512 121.892 113.512 120.149C113.512 118.407 112.641 117.536 110.899 117.536H63.6176ZM75.3801 144.751C73.791 144.751 72.9967 145.622 72.9967 147.365C72.9967 149.108 73.791 149.979 75.3801 149.979H99.2126C100.751 149.979 101.519 149.108 101.519 147.365C101.519 145.622 100.751 144.751 99.2126 144.751H75.3801Z" fill="#EEEEEE"/>
</svg>
