<svg width="32" height="32" viewBox="0 0 32 32" fill="none" xmlns="http://www.w3.org/2000/svg">
<path d="M27.533 10.549C27.0045 10.549 26.5535 10.3667 26.1799 10.0023C25.8155 9.6287 25.6333 9.17768 25.6333 8.6492C25.6333 8.12984 25.8155 7.68337 26.1799 7.30979C26.5535 6.93622 27.0045 6.74943 27.533 6.74943C28.0524 6.74943 28.4989 6.93622 28.8724 7.30979C29.246 7.68337 29.4328 8.12984 29.4328 8.6492C29.4328 9.17768 29.246 9.6287 28.8724 10.0023C28.4989 10.3667 28.0524 10.549 27.533 10.549ZM24.3485 20.5672H7.85193L8.07061 21.4692C8.22551 22.0068 8.50342 22.4305 8.90433 22.7403C9.31435 23.041 9.7426 23.1458 10.1891 23.0547H16.1207H21.943C22.3895 23.1458 22.8269 23.041 23.2551 22.7403C23.6925 22.4305 23.9932 22.0068 24.1572 21.4692L24.3485 20.5672ZM24.7859 18.7084H7.45558L7.66059 19.6515H24.5809L24.7859 18.7084ZM24.9772 17.7927L26.1116 12.5307L24.9635 15.8929C24.8815 16.303 24.6856 16.6583 24.3758 16.959C24.0752 17.2506 23.697 17.3827 23.2415 17.3553C22.7768 17.328 22.3895 17.1321 22.0797 16.7677C21.779 16.3941 21.6515 15.9749 21.697 15.5102L21.451 10.385L20.6446 15.3462C20.6446 15.9203 20.4624 16.4077 20.0979 16.8087C19.7426 17.2096 19.3143 17.41 18.8132 17.41C18.303 17.41 17.8702 17.2187 17.5148 16.836C17.1595 16.4442 16.9954 15.9932 17.0228 15.4829L16.0661 9.45558L15.205 15.4829C15.2141 15.9932 15.041 16.4442 14.6856 16.836C14.3303 17.2187 13.9066 17.41 13.4146 17.41C12.9043 17.41 12.4715 17.2096 12.1162 16.8087C11.7608 16.4077 11.5831 15.9203 11.5831 15.3462L10.8588 10.385L10.5307 15.5102C10.5581 15.9749 10.4214 16.3941 10.1207 16.7677C9.82004 17.1321 9.44191 17.328 8.98633 17.3553C8.52164 17.3827 8.13439 17.2506 7.8246 16.959C7.51481 16.6583 7.32346 16.303 7.25057 15.8929L6.1025 12.5307L7.26424 17.7927H24.9772ZM16.1071 7.82916C16.7266 7.82916 17.0364 7.51936 17.0364 6.89977C17.0364 6.28018 16.7266 5.97039 16.1071 5.97039C15.4875 5.97039 15.1777 6.28018 15.1777 6.89977C15.1777 7.51936 15.4875 7.82916 16.1071 7.82916ZM16.1071 8.79954C15.5786 8.79954 15.1276 8.61275 14.754 8.23918C14.3895 7.8656 14.2073 7.41913 14.2073 6.89977C14.2073 6.38041 14.3895 5.93394 14.754 5.56036C15.1276 5.18679 15.5786 5 16.1071 5C16.6264 5 17.0729 5.18679 17.4465 5.56036C17.82 5.93394 18.0068 6.38041 18.0068 6.89977C18.0068 7.41913 17.82 7.8656 17.4465 8.23918C17.0729 8.61275 16.6264 8.79954 16.1071 8.79954ZM21.656 8.6902C22.2756 8.6902 22.5854 8.38041 22.5854 7.76082C22.5854 7.15034 22.2756 6.8451 21.656 6.8451C21.0364 6.8451 20.7266 7.15034 20.7266 7.76082C20.7266 8.38041 21.0364 8.6902 21.656 8.6902ZM21.656 9.67426C21.1276 9.67426 20.6765 9.48747 20.303 9.11389C19.9385 8.74032 19.7563 8.28929 19.7563 7.76082C19.7563 7.24146 19.9385 6.79499 20.303 6.42141C20.6765 6.04784 21.1276 5.86105 21.656 5.86105C22.1754 5.86105 22.6219 6.04784 22.9954 6.42141C23.369 6.79499 23.5558 7.24146 23.5558 7.76082C23.5558 8.28929 23.369 8.74032 22.9954 9.11389C22.6219 9.48747 22.1754 9.67426 21.656 9.67426ZM27.533 9.57859C28.1526 9.57859 28.4624 9.26879 28.4624 8.6492C28.4624 8.02961 28.1526 7.71982 27.533 7.71982C26.9134 7.71982 26.6036 8.02961 26.6036 8.6492C26.6036 9.26879 26.9134 9.57859 27.533 9.57859ZM10.4624 8.66287C11.0729 8.66287 11.3781 8.35307 11.3781 7.73348C11.3781 7.11389 11.0729 6.8041 10.4624 6.8041C9.84282 6.8041 9.53303 7.11389 9.53303 7.73348C9.53303 8.35307 9.84282 8.66287 10.4624 8.66287ZM10.4624 9.64692C9.93394 9.64692 9.48291 9.46013 9.10934 9.08656C8.73576 8.71298 8.54897 8.26196 8.54897 7.73348C8.54897 7.21412 8.73576 6.76765 9.10934 6.39408C9.48291 6.0205 9.93394 5.83371 10.4624 5.83371C10.9818 5.83371 11.4282 6.0205 11.8018 6.39408C12.1754 6.76765 12.3622 7.21412 12.3622 7.73348C12.3622 8.26196 12.1754 8.71298 11.8018 9.08656C11.4282 9.46013 10.9818 9.64692 10.4624 9.64692ZM4.91344 9.48291C5.52392 9.48291 5.82916 9.17312 5.82916 8.55353C5.82916 7.93394 5.52392 7.62415 4.91344 7.62415C4.29385 7.62415 3.98405 7.93394 3.98405 8.55353C3.98405 9.17312 4.29385 9.48291 4.91344 9.48291ZM4.91344 10.4533C4.38497 10.4533 3.93394 10.2665 3.56036 9.89294C3.18679 9.51936 3 9.07289 3 8.55353C3 8.03417 3.18679 7.5877 3.56036 7.21412C3.93394 6.84055 4.38497 6.65376 4.91344 6.65376C5.4328 6.65376 5.87927 6.84055 6.25285 7.21412C6.62642 7.5877 6.81321 8.03417 6.81321 8.55353C6.81321 9.07289 6.62642 9.51936 6.25285 9.89294C5.87927 10.2665 5.4328 10.4533 4.91344 10.4533ZM11.8428 23.984V25.6925H20.2073V23.984H11.8428ZM9.02733 27.5649C9.02733 27.0456 9.20501 26.6036 9.56036 26.2392C9.92483 25.8747 10.3622 25.6925 10.8724 25.6925V23.984H10.1891C9.57859 24.0661 8.98178 23.9112 8.39863 23.5194C7.8246 23.1184 7.4328 22.5216 7.22323 21.7289L4.8451 10.5763C5.2369 10.5581 5.61048 10.4396 5.96583 10.221L8.05695 15.5786C8.10251 16.1891 8.39863 16.4761 8.94533 16.4396C9.51025 16.4123 9.76082 16.0934 9.69704 15.4829L9.91572 9.66059C10.1162 9.69704 10.2984 9.71526 10.4624 9.71526C10.836 9.71526 11.2141 9.60137 11.5968 9.37358L12.4442 15.2916C12.4989 16.0296 12.8223 16.3986 13.4146 16.3986C14.0068 16.3986 14.3121 16.0752 14.3303 15.4282L15.1367 8.5672C15.3918 8.76765 15.697 8.86788 16.0524 8.86788C16.4715 8.86788 16.8223 8.75399 17.1048 8.52619L17.8838 15.4282C17.8929 16.0752 18.2027 16.3986 18.8132 16.3986C19.3964 16.3986 19.7153 16.0296 19.7699 15.2916L20.6856 9.44191C20.9954 9.62414 21.3189 9.71526 21.656 9.71526C21.7836 9.71526 22.0114 9.68793 22.3394 9.63326L22.5307 15.4829C22.4579 16.0934 22.7084 16.4123 23.2825 16.4396C23.82 16.4761 24.1162 16.1891 24.1708 15.5786L26.303 10.139C26.6583 10.4032 27.0501 10.5535 27.4784 10.59L25.0045 21.7289C24.7859 22.5216 24.3713 23.1184 23.7608 23.5194C23.1594 23.9112 22.5535 24.0661 21.943 23.984H21.1777V25.6925C21.6788 25.6925 22.1116 25.8747 22.4761 26.2392C22.8405 26.6036 23.0228 27.0456 23.0228 27.5649V28.959H9.02733V27.5649ZM22.0934 27.5512C22.0934 26.9316 21.7882 26.6219 21.1777 26.6219H10.8861C10.2665 26.6219 9.95672 26.9316 9.95672 27.5512V28.0296H22.0934V27.5512Z" fill="black"/>
<path d="M24.3485 20.5672H7.85189L8.07057 21.4692C8.22546 22.0068 8.50337 22.4305 8.90428 22.7403C9.3143 23.041 9.74255 23.1458 10.189 23.0547H16.1207H21.943C22.3895 23.1458 22.8268 23.041 23.2551 22.7403C23.6924 22.4305 23.9931 22.0068 24.1571 21.4692L24.3485 20.5672ZM24.7858 18.7084H7.45553L7.66055 19.6515H24.5808L24.7858 18.7084ZM24.9772 17.7927L26.1116 12.5307L24.9635 15.8929C24.8815 16.303 24.6856 16.6583 24.3758 16.959C24.0751 17.2506 23.697 17.3827 23.2414 17.3553C22.7767 17.328 22.3895 17.1321 22.0797 16.7676C21.779 16.3941 21.6514 15.9749 21.697 15.5102L21.451 10.385L20.6446 15.3462C20.6446 15.9203 20.4624 16.4077 20.0979 16.8086C19.7425 17.2096 19.3143 17.41 18.8132 17.41C18.3029 17.41 17.8701 17.2187 17.5148 16.836C17.1594 16.4442 16.9954 15.9932 17.0227 15.4829L16.066 9.45558L15.205 15.4829C15.2141 15.9932 15.041 16.4442 14.6856 16.836C14.3302 17.2187 13.9066 17.41 13.4145 17.41C12.9043 17.41 12.4715 17.2096 12.1161 16.8086C11.7608 16.4077 11.5831 15.9203 11.5831 15.3462L10.8587 10.385L10.5307 15.5102C10.558 15.9749 10.4214 16.3941 10.1207 16.7676C9.82 17.1321 9.44187 17.328 8.98629 17.3553C8.52159 17.3827 8.13435 17.2506 7.82455 16.959C7.51476 16.6583 7.32342 16.303 7.25052 15.8929L6.10246 12.5307L7.26419 17.7927H24.9772ZM16.107 7.82915C16.7266 7.82915 17.0364 7.51936 17.0364 6.89977C17.0364 6.28018 16.7266 5.97038 16.107 5.97038C15.4874 5.97038 15.1776 6.28018 15.1776 6.89977C15.1776 7.51936 15.4874 7.82915 16.107 7.82915ZM21.656 8.6902C22.2756 8.6902 22.5854 8.3804 22.5854 7.76082C22.5854 7.15034 22.2756 6.8451 21.656 6.8451C21.0364 6.8451 20.7266 7.15034 20.7266 7.76082C20.7266 8.3804 21.0364 8.6902 21.656 8.6902ZM27.533 9.57858C28.1526 9.57858 28.4624 9.26879 28.4624 8.6492C28.4624 8.02961 28.1526 7.71981 27.533 7.71981C26.9134 7.71981 26.6036 8.02961 26.6036 8.6492C26.6036 9.26879 26.9134 9.57858 27.533 9.57858ZM10.4624 8.66286C11.0728 8.66286 11.3781 8.35307 11.3781 7.73348C11.3781 7.11389 11.0728 6.8041 10.4624 6.8041C9.84278 6.8041 9.53298 7.11389 9.53298 7.73348C9.53298 8.35307 9.84278 8.66286 10.4624 8.66286ZM4.91339 9.48291C5.52387 9.48291 5.82911 9.17312 5.82911 8.55353C5.82911 7.93394 5.52387 7.62414 4.91339 7.62414C4.2938 7.62414 3.98401 7.93394 3.98401 8.55353C3.98401 9.17312 4.2938 9.48291 4.91339 9.48291ZM11.8428 23.984V25.6925H20.2072V23.984H11.8428ZM22.0933 27.5512C22.0933 26.9316 21.7881 26.6218 21.1776 26.6218H10.8861C10.2665 26.6218 9.95667 26.9316 9.95667 27.5512V28.0296H22.0933V27.5512Z" fill="white"/>
</svg>
