<svg width="180" height="180" viewBox="0 0 180 180" fill="none" xmlns="http://www.w3.org/2000/svg">
<path d="M154.873 59.3381C151.9 59.3381 149.363 58.3127 147.262 56.2629C145.212 54.1614 144.187 51.6245 144.187 48.6518C144.187 45.7304 145.212 43.219 147.262 41.1176C149.363 39.0162 151.9 37.9655 154.873 37.9655C157.795 37.9655 160.306 39.0162 162.407 41.1176C164.509 43.219 165.56 45.7304 165.56 48.6518C165.56 51.6245 164.509 54.1614 162.407 56.2629C160.306 58.3127 157.795 59.3381 154.873 59.3381ZM136.96 115.691H44.1671L45.3972 120.764C46.2685 123.788 47.8317 126.172 50.0869 127.914C52.3932 129.606 54.8021 130.195 57.3137 129.683H90.6789H123.429C125.941 130.195 128.401 129.606 130.81 127.914C133.27 126.172 134.962 123.788 135.884 120.764L136.96 115.691ZM139.421 105.235H41.9376L43.0908 110.54H138.268L139.421 105.235ZM140.497 100.084L146.878 70.4852L140.42 89.3976C139.958 91.7044 138.857 93.7029 137.114 95.3944C135.423 97.0346 133.296 97.7777 130.733 97.6236C128.12 97.47 125.941 96.3681 124.198 94.3183C122.507 92.2168 121.79 89.8588 122.046 87.2449L120.662 58.4156L116.126 86.3224C116.126 89.5517 115.101 92.2933 113.051 94.5489C111.052 96.804 108.643 97.9313 105.824 97.9313C102.954 97.9313 100.52 96.8552 98.5208 94.7025C96.5222 92.4986 95.5991 89.9618 95.7533 87.0913L90.3718 53.1876L85.5281 87.0913C85.5793 89.9618 84.6056 92.4986 82.6065 94.7025C80.6079 96.8552 78.2246 97.9313 75.4571 97.9313C72.5867 97.9313 70.1522 96.804 68.1536 94.5489C66.1545 92.2933 65.1549 89.5517 65.1549 86.3224L61.0808 58.4156L59.2352 87.2449C59.3893 89.8588 58.6204 92.2168 56.9289 94.3183C55.2377 96.3681 53.1107 97.47 50.5481 97.6236C47.9342 97.7777 45.7559 97.0346 44.0134 95.3944C42.2708 93.7029 41.1945 91.7044 40.7845 89.3976L34.3266 70.4852L40.8614 100.084H140.497ZM90.6024 44.039C94.0871 44.039 95.8298 42.2964 95.8298 38.8112C95.8298 35.326 94.0871 33.5834 90.6024 33.5834C87.1172 33.5834 85.3746 35.326 85.3746 38.8112C85.3746 42.2964 87.1172 44.039 90.6024 44.039ZM90.6024 49.4974C87.6296 49.4974 85.0928 48.4467 82.9913 46.3454C80.9409 44.244 79.9161 41.7326 79.9161 38.8112C79.9161 35.8898 80.9409 33.3784 82.9913 31.277C85.0928 29.1757 87.6296 28.125 90.6024 28.125C93.5235 28.125 96.0351 29.1757 98.1366 31.277C100.238 33.3784 101.288 35.8898 101.288 38.8112C101.288 41.7326 100.238 44.244 98.1366 46.3454C96.0351 48.4467 93.5235 49.4974 90.6024 49.4974ZM121.815 48.8824C125.3 48.8824 127.043 47.1398 127.043 43.6546C127.043 40.2207 125.3 38.5037 121.815 38.5037C118.33 38.5037 116.587 40.2207 116.587 43.6546C116.587 47.1398 118.33 48.8824 121.815 48.8824ZM121.815 54.4177C118.843 54.4177 116.305 53.367 114.204 51.2656C112.154 49.1643 111.129 46.6273 111.129 43.6546C111.129 40.7332 112.154 38.2218 114.204 36.1204C116.305 34.0191 118.843 32.9684 121.815 32.9684C124.737 32.9684 127.248 34.0191 129.349 36.1204C131.451 38.2218 132.501 40.7332 132.501 43.6546C132.501 46.6273 131.451 49.1643 129.349 51.2656C127.248 53.367 124.737 54.4177 121.815 54.4177ZM154.873 53.8796C158.358 53.8796 160.101 52.1369 160.101 48.6518C160.101 45.1666 158.358 43.424 154.873 43.424C151.388 43.424 149.645 45.1666 149.645 48.6518C149.645 52.1369 151.388 53.8796 154.873 53.8796ZM58.851 48.7286C62.2851 48.7286 64.0018 46.986 64.0018 43.5008C64.0018 40.0156 62.2851 38.2731 58.851 38.2731C55.3659 38.2731 53.6233 40.0156 53.6233 43.5008C53.6233 46.986 55.3659 48.7286 58.851 48.7286ZM58.851 54.2639C55.8784 54.2639 53.3414 53.2132 51.24 51.1119C49.1387 49.0105 48.088 46.4735 48.088 43.5008C48.088 40.5794 49.1387 38.068 51.24 35.9667C53.3414 33.8653 55.8784 32.8146 58.851 32.8146C61.7726 32.8146 64.2836 33.8653 66.3851 35.9667C68.4866 38.068 69.5374 40.5794 69.5374 43.5008C69.5374 46.4735 68.4866 49.0105 66.3851 51.1119C64.2836 53.2132 61.7726 54.2639 58.851 54.2639ZM27.6381 53.3414C31.0721 53.3414 32.789 51.5988 32.789 48.1136C32.789 44.6284 31.0721 42.8858 27.6381 42.8858C24.1529 42.8858 22.4103 44.6284 22.4103 48.1136C22.4103 51.5988 24.1529 53.3414 27.6381 53.3414ZM27.6381 58.7998C24.6655 58.7998 22.1284 57.7491 20.027 55.6478C17.9257 53.5464 16.875 51.035 16.875 48.1136C16.875 45.1922 17.9257 42.6808 20.027 40.5794C22.1284 38.4781 24.6655 37.4274 27.6381 37.4274C30.5595 37.4274 33.0709 38.4781 35.1723 40.5794C37.2736 42.6808 38.3243 45.1922 38.3243 48.1136C38.3243 51.035 37.2736 53.5464 35.1723 55.6478C33.0709 57.7491 30.5595 58.7998 27.6381 58.7998ZM66.6158 134.91V144.52H113.666V134.91H66.6158ZM50.7787 155.053C50.7787 152.132 51.7782 149.645 53.777 147.596C55.8272 145.545 58.2874 144.52 61.1573 144.52V134.91H57.3137C53.8796 135.372 50.5225 134.501 47.2423 132.297C44.0134 130.041 41.8095 126.684 40.6307 122.225L27.2537 59.4917C29.4576 59.3893 31.559 58.7228 33.5578 57.4931L45.3203 87.6296C45.5766 91.0637 47.2423 92.6781 50.3175 92.4728C53.4952 92.3192 54.9046 90.5254 54.5459 87.0913L55.7759 54.3408C56.9036 54.5459 57.9285 54.6483 58.851 54.6483C60.9525 54.6483 63.0793 54.0077 65.232 52.7264L69.9986 86.0153C70.3063 90.1665 72.1254 92.2421 75.4571 92.2421C78.7883 92.2421 80.5056 90.423 80.6079 86.7836L85.1439 48.1905C86.5789 49.318 88.2956 49.8818 90.2948 49.8818C92.6522 49.8818 94.6254 49.2412 96.2145 47.9598L100.596 86.7836C100.648 90.423 102.39 92.2421 105.824 92.2421C109.105 92.2421 110.899 90.1665 111.206 86.0153L116.357 53.1107C118.099 54.1358 119.919 54.6483 121.815 54.6483C122.533 54.6483 123.814 54.4946 125.659 54.1871L126.735 87.0913C126.326 90.5254 127.735 92.3192 130.964 92.4728C133.988 92.6781 135.654 91.0637 135.961 87.6296L147.954 57.0319C149.953 58.518 152.157 59.3634 154.566 59.5688L140.65 122.225C139.421 126.684 137.089 130.041 133.655 132.297C130.272 134.501 126.863 135.372 123.429 134.91H119.125V144.52C121.943 144.52 124.378 145.545 126.428 147.596C128.478 149.645 129.503 152.132 129.503 155.053V162.894H50.7787V155.053ZM124.275 154.976C124.275 151.49 122.559 149.748 119.125 149.748H61.2343C57.7491 149.748 56.0066 151.49 56.0066 154.976V157.667H124.275V154.976Z" fill="black"/>
<path d="M136.96 115.69H44.1669L45.397 120.764C46.2682 123.788 47.8315 126.172 50.0866 127.914C52.3929 129.606 54.8018 130.195 57.3131 129.683H90.679H123.429C125.941 130.195 128.401 129.606 130.81 127.914C133.27 126.172 134.961 123.788 135.884 120.764L136.96 115.69ZM139.42 105.235H41.9374L43.0906 110.54H138.267L139.42 105.235ZM140.497 100.084L146.878 70.4852L140.42 89.3976C139.958 91.7044 138.857 93.7029 137.114 95.3944C135.422 97.0346 133.296 97.7777 130.733 97.6236C128.119 97.47 125.941 96.3681 124.198 94.3177C122.507 92.2168 121.789 89.8588 122.046 87.2449L120.662 58.4156L116.126 86.3224C116.126 89.5517 115.101 92.2933 113.051 94.5484C111.052 96.804 108.643 97.9312 105.824 97.9312C102.954 97.9312 100.519 96.8552 98.5208 94.7025C96.5216 92.4986 95.5991 89.9617 95.7527 87.0913L90.3713 53.1876L85.5281 87.0913C85.5793 89.9617 84.6056 92.4986 82.6065 94.7025C80.6074 96.8552 78.2246 97.9312 75.4566 97.9312C72.5867 97.9312 70.1522 96.804 68.1531 94.5484C66.1545 92.2933 65.1549 89.5517 65.1549 86.3224L61.0802 58.4156L59.2352 87.2449C59.3888 89.8588 58.6204 92.2168 56.9289 94.3177C55.2375 96.3681 53.1105 97.47 50.5479 97.6236C47.9339 97.7777 45.7557 97.0346 44.0131 95.3944C42.2705 93.7029 41.1942 91.7044 40.7842 89.3976L34.3263 70.4852L40.8611 100.084H140.497ZM90.6019 44.039C94.0871 44.039 95.8298 42.2964 95.8298 38.8112C95.8298 35.326 94.0871 33.5834 90.6019 33.5834C87.1166 33.5834 85.374 35.326 85.374 38.8112C85.374 42.2964 87.1166 44.039 90.6019 44.039ZM121.815 48.8824C125.3 48.8824 127.043 47.1397 127.043 43.6546C127.043 40.2207 125.3 38.5037 121.815 38.5037C118.33 38.5037 116.587 40.2207 116.587 43.6546C116.587 47.1397 118.33 48.8824 121.815 48.8824ZM154.873 53.8795C158.358 53.8795 160.101 52.1369 160.101 48.6518C160.101 45.1666 158.358 43.4239 154.873 43.4239C151.388 43.4239 149.645 45.1666 149.645 48.6518C149.645 52.1369 151.388 53.8795 154.873 53.8795ZM58.851 48.7286C62.2845 48.7286 64.0018 46.986 64.0018 43.5008C64.0018 40.0156 62.2845 38.2731 58.851 38.2731C55.3656 38.2731 53.623 40.0156 53.623 43.5008C53.623 46.986 55.3656 48.7286 58.851 48.7286ZM27.6378 53.3414C31.0718 53.3414 32.7887 51.5988 32.7887 48.1136C32.7887 44.6284 31.0718 42.8858 27.6378 42.8858C24.1526 42.8858 22.4101 44.6284 22.4101 48.1136C22.4101 51.5988 24.1526 53.3414 27.6378 53.3414ZM66.6158 134.91V144.52H113.665V134.91H66.6158ZM124.275 154.976C124.275 151.49 122.558 149.748 119.124 149.748H61.2343C57.7491 149.748 56.0063 151.49 56.0063 154.976V157.666H124.275V154.976Z" fill="white"/>
</svg>
