<svg width="180" height="180" viewBox="0 0 180 180" fill="none" xmlns="http://www.w3.org/2000/svg">
<path d="M128.952 33.3528V59.4146L118.573 75.4059L128.952 135.525L139.331 146.212V164.586H92.2039H45V146.212L55.4556 135.525L65.8344 75.4059L55.4556 59.4146V33.3528C55.4556 29.9189 57.1984 28.2019 60.6836 28.2019H68.6019C72.036 28.2019 73.7527 30.0214 73.7527 33.6603V54.4946H81.6716V33.5065C81.6716 29.9701 83.4142 28.2019 86.8989 28.2019L92.2039 28.125L97.4317 28.2019C100.917 28.2019 102.66 29.9445 102.66 33.4297V54.4946H110.578V33.3528C110.578 29.9189 112.346 28.2019 115.883 28.2019H123.801C127.235 28.2019 128.952 29.9189 128.952 33.3528ZM81.1333 122.61V142.752H102.967L103.121 122.686L118.42 122.61C120.162 122.61 121.034 121.738 121.034 119.996C121.034 118.253 120.162 117.382 118.42 117.382H102.967C102.967 114.512 101.891 112.077 99.738 110.078C97.5853 108.028 95.0226 107.003 92.0498 107.003C89.0263 107.003 86.4377 108.028 84.285 110.078C82.1841 112.077 81.1333 114.512 81.1333 117.382H65.6803C63.9377 117.382 63.0664 118.253 63.0664 119.996C63.0664 121.738 63.9377 122.61 65.6803 122.61H81.1333ZM57.9926 146.212C56.3012 146.212 55.4556 147.083 55.4556 148.826C55.4556 150.568 56.3012 151.439 57.9926 151.439H126.569C128.311 151.439 129.183 150.568 129.183 148.826C129.183 147.083 128.311 146.212 126.569 146.212H57.9926ZM70.7546 69.8704C69.2685 69.8704 68.5249 70.6134 68.5249 72.1001C68.5249 73.5351 69.2685 74.2528 70.7546 74.2528H113.345C114.832 74.2528 115.575 73.5351 115.575 72.1001C115.575 70.6134 114.832 69.8704 113.345 69.8704H70.7546Z" fill="black"/>
<path d="M81.1333 122.61V142.752H102.967L103.12 122.686L118.42 122.61C120.162 122.61 121.034 121.739 121.034 119.996C121.034 118.253 120.162 117.382 118.42 117.382H102.967C102.967 114.512 101.891 112.077 99.738 110.078C97.5853 108.028 95.0226 107.003 92.0498 107.003C89.0263 107.003 86.4377 108.028 84.285 110.078C82.1841 112.077 81.1333 114.512 81.1333 117.382H65.6803C63.9377 117.382 63.0664 118.253 63.0664 119.996C63.0664 121.739 63.9377 122.61 65.6803 122.61H81.1333ZM57.9926 146.212C56.3012 146.212 55.4555 147.083 55.4555 148.826C55.4555 150.568 56.3012 151.44 57.9926 151.44H126.569C128.311 151.44 129.183 150.568 129.183 148.826C129.183 147.083 128.311 146.212 126.569 146.212H57.9926ZM70.7546 69.8704C69.2679 69.8704 68.5249 70.6134 68.5249 72.1001C68.5249 73.5351 69.2679 74.2528 70.7546 74.2528H113.345C114.832 74.2528 115.575 73.5351 115.575 72.1001C115.575 70.6134 114.832 69.8704 113.345 69.8704H70.7546Z" fill="#EEEEEE"/>
</svg>
