<svg width="32" height="32" viewBox="0 0 32 32" fill="none" xmlns="http://www.w3.org/2000/svg">
<path d="M22.9248 5.92938V10.5626L21.0797 13.4055L22.9248 24.0934L24.7699 25.9932V29.2597H16.3918H8V25.9932L9.85877 24.0934L11.7039 13.4055L9.85877 10.5626V5.92938C9.85877 5.31891 10.1686 5.01367 10.7882 5.01367H12.1959C12.8064 5.01367 13.1116 5.33713 13.1116 5.98405V9.68793H14.5194V5.95672C14.5194 5.32802 14.8292 5.01367 15.4487 5.01367L16.3918 5L17.3212 5.01367C17.9408 5.01367 18.2506 5.32346 18.2506 5.94305V9.68793H19.6583V5.92938C19.6583 5.31891 19.9727 5.01367 20.6014 5.01367H22.0091C22.6196 5.01367 22.9248 5.31891 22.9248 5.92938ZM14.4237 21.7973V25.3781H18.3052L18.3326 21.8109L21.0524 21.7973C21.3622 21.7973 21.5171 21.6424 21.5171 21.3326C21.5171 21.0228 21.3622 20.8679 21.0524 20.8679H18.3052C18.3052 20.3576 18.1139 19.9248 17.7312 19.5695C17.3485 19.205 16.8929 19.0228 16.3644 19.0228C15.8269 19.0228 15.3667 19.205 14.984 19.5695C14.6105 19.9248 14.4237 20.3576 14.4237 20.8679H11.6765C11.3667 20.8679 11.2118 21.0228 11.2118 21.3326C11.2118 21.6424 11.3667 21.7973 11.6765 21.7973L14.4237 21.7973ZM10.3098 25.9932C10.0091 25.9932 9.85877 26.1481 9.85877 26.4579C9.85877 26.7677 10.0091 26.9225 10.3098 26.9225H22.5011C22.8109 26.9225 22.9658 26.7677 22.9658 26.4579C22.9658 26.1481 22.8109 25.9932 22.5011 25.9932H10.3098ZM12.5786 12.4214C12.3144 12.4214 12.1822 12.5535 12.1822 12.8178C12.1822 13.0729 12.3144 13.2005 12.5786 13.2005H20.1503C20.4146 13.2005 20.5467 13.0729 20.5467 12.8178C20.5467 12.5535 20.4146 12.4214 20.1503 12.4214H12.5786Z" fill="black"/>
<path d="M14.4237 21.7973V25.3781H18.3052L18.3325 21.8109L21.0524 21.7973C21.3622 21.7973 21.5171 21.6424 21.5171 21.3326C21.5171 21.0228 21.3622 20.8679 21.0524 20.8679H18.3052C18.3052 20.3576 18.1139 19.9248 17.7312 19.5695C17.3485 19.205 16.8929 19.0228 16.3644 19.0228C15.8269 19.0228 15.3667 19.205 14.984 19.5695C14.6105 19.9248 14.4237 20.3576 14.4237 20.8679H11.6765C11.3667 20.8679 11.2118 21.0228 11.2118 21.3326C11.2118 21.6424 11.3667 21.7973 11.6765 21.7973L14.4237 21.7973ZM10.3098 25.9932C10.0091 25.9932 9.85876 26.1481 9.85876 26.4579C9.85876 26.7677 10.0091 26.9226 10.3098 26.9226H22.5011C22.8109 26.9226 22.9658 26.7677 22.9658 26.4579C22.9658 26.1481 22.8109 25.9932 22.5011 25.9932H10.3098ZM12.5786 12.4214C12.3143 12.4214 12.1822 12.5535 12.1822 12.8178C12.1822 13.0729 12.3143 13.2005 12.5786 13.2005H20.1503C20.4146 13.2005 20.5467 13.0729 20.5467 12.8178C20.5467 12.5535 20.4146 12.4214 20.1503 12.4214H12.5786Z" fill="#EEEEEE"/>
</svg>
