<svg width="32" height="32" viewBox="0 0 32 32" fill="none" xmlns="http://www.w3.org/2000/svg">
<path d="M14.5194 25.9932V22.2756L11.0888 22.2893L10.7335 24.3804L9.18907 25.9932L14.5194 25.9932ZM15.4351 5.92939V9.68793H17.2802V5.92939H15.4351ZM16.3918 12.4214H20.5877L21.9681 10.5626H16.3918H10.8155L12.1822 12.4214H16.3918ZM10.7745 5.92939V9.68793H12.1822V5.92939H10.7745ZM16.3918 28.3303H23.8952V26.9225H16.3918H8.87472V28.3303H16.3918ZM21.9954 5.92939H20.5877V9.68793H21.9954V5.92939ZM11.2528 21.3189L14.5194 21.3052C14.5194 20.8041 14.697 20.3713 15.0524 20.0068C15.4077 19.6424 15.8451 19.4601 16.3645 19.4601C16.8656 19.4601 17.2984 19.6424 17.6629 20.0068C18.0273 20.3713 18.2096 20.8041 18.2096 21.3052L21.5171 21.3189L20.123 13.2005H16.3918H12.6469L11.2528 21.3189ZM18.2096 22.2756L18.2369 25.9932H23.5808L22.0501 24.3804L21.6811 22.2893L18.2096 22.2756ZM22.9248 5.92939V10.5626L21.0797 13.4055L22.9248 24.0934L24.7699 25.9932V29.2597H16.3918H8V25.9932L9.85877 24.0934L11.7039 13.4055L9.85877 10.5626V5.92939C9.85877 5.31891 10.1686 5.01367 10.7882 5.01367H12.1959C12.8064 5.01367 13.1116 5.33714 13.1116 5.98406V9.68793H14.5194V5.95672C14.5194 5.32802 14.8292 5.01367 15.4487 5.01367L16.3918 5L17.3212 5.01367C17.9408 5.01367 18.2506 5.32347 18.2506 5.94306V9.68793H19.6583V5.92939C19.6583 5.31891 19.9727 5.01367 20.6014 5.01367H22.0091C22.6196 5.01367 22.9248 5.31891 22.9248 5.92939Z" fill="black"/>
<path d="M14.5194 25.9932V22.2756L11.0888 22.2893L10.7335 24.3804L9.18908 25.9932L14.5194 25.9932ZM15.4351 5.9294V9.68794H17.2802V5.9294H15.4351ZM16.3918 12.4214H20.5877L21.9681 10.5627H16.3918H10.8155L12.1822 12.4214H16.3918ZM10.7745 5.9294V9.68794H12.1822V5.9294H10.7745ZM16.3918 28.3303H23.8952V26.9226H16.3918H8.87473V28.3303H16.3918ZM21.9955 5.9294H20.5877V9.68794H21.9955V5.9294ZM11.2529 21.3189L14.5194 21.3052C14.5194 20.8041 14.697 20.3713 15.0524 20.0068C15.4078 19.6424 15.8451 19.4601 16.3645 19.4601C16.8656 19.4601 17.2984 19.6424 17.6629 20.0068C18.0273 20.3713 18.2096 20.8041 18.2096 21.3052L21.5171 21.3189L20.123 13.2005H16.3918H12.6469L11.2529 21.3189ZM18.2096 22.2756L18.2369 25.9932H23.5809L22.0501 24.3804L21.6811 22.2893L18.2096 22.2756Z" fill="white"/>
</svg>
