<svg width="700" height="700" viewBox="0 0 700 700" fill="none" xmlns="http://www.w3.org/2000/svg">
<path fill-rule="evenodd" clip-rule="evenodd" d="M171.347 251.498C171.347 251.498 173.874 160.317 185.078 130.005C208.488 124.951 254.573 122.567 283.2 126.745C283.52 145.289 278.974 184.293 281.962 202.123C307.975 200.891 360.673 204.05 394.208 200.279C394.955 178.525 388.554 147.725 394.903 123.474C416.189 121.875 464.31 120.183 486.717 129.811C483.73 160.837 487.155 203.49 487.155 203.49L545.902 205.523L537.154 252.19C463.807 279.683 217.231 275.601 171.347 251.498V251.498Z" fill="url(#paint0_linear_2_307)" stroke="black" stroke-width="12.4444" stroke-linecap="round" stroke-linejoin="round"/>
<path fill-rule="evenodd" clip-rule="evenodd" d="M210.558 546.37C191.9 565 152.913 583.747 125.113 589.632C121.081 602.941 117.115 618.33 125.3 634.878C224.387 635.777 486.026 634.626 580.701 634.297C585.81 615.84 589.673 602.488 584.565 587.981C555.414 582.209 520.209 573.495 494.148 546.373" fill="url(#paint1_linear_2_307)"/>
<path d="M210.558 546.37C191.9 565 152.913 583.747 125.113 589.632C121.081 602.941 117.115 618.33 125.3 634.878C224.387 635.777 486.026 634.626 580.701 634.297C585.81 615.84 589.673 602.488 584.565 587.981C555.414 582.209 520.209 573.495 494.148 546.373" stroke="black" stroke-width="12.4444" stroke-linecap="round" stroke-linejoin="round"/>
<path d="M169.587 597.818C285.833 597.874 411.993 593.53 536.319 598.269" stroke="black" stroke-width="12.4444" stroke-linecap="round" stroke-linejoin="round"/>
<path fill-rule="evenodd" clip-rule="evenodd" d="M212.133 241.788C209.203 276.672 208.358 519.678 209.164 548.624C252.08 544.995 451.529 544.766 495.513 548.183C493.022 493.715 493.711 242.554 493.711 242.554" fill="url(#paint2_linear_2_307)"/>
<path d="M212.133 241.788C209.203 276.672 208.358 519.678 209.164 548.624C252.08 544.995 451.529 544.766 495.513 548.183C493.022 493.715 493.711 242.554 493.711 242.554" stroke="black" stroke-width="12.4444" stroke-linejoin="round"/>
<path d="M242.526 298.048C264.192 295.689 275.233 294.931 293.685 295.286M242.184 493.759C273.209 491.472 338.217 488.896 409.748 491.196L242.184 493.759ZM241.129 443.448C280.603 439.648 318.788 438.397 374.362 438.975L241.129 443.448ZM241.545 392.739C297.753 388.852 299.337 389.265 360.169 388.388L241.545 392.739ZM241.545 343.009C270.078 340.65 286.857 339.424 321.003 340.248L241.545 343.009ZM275.924 355.992C276.609 379.272 275.788 354.953 276.472 375.086L275.924 355.992ZM319.232 405.417C319.916 428.697 319.096 404.378 319.779 424.511L319.232 405.417ZM275.924 455.411C276.609 478.691 275.788 454.372 276.472 474.506L275.924 455.411ZM366.764 453.833C367.448 477.113 366.627 454.372 367.311 474.506L366.764 453.833ZM319.232 507.292C319.916 530.573 319.096 507.831 319.779 527.966L319.232 507.292Z" stroke="black" stroke-width="12.4444" stroke-linecap="round" stroke-linejoin="round"/>
<path fill-rule="evenodd" clip-rule="evenodd" d="M118.026 125.438C122.036 147.39 125.067 168.215 128.952 199.747C153.901 217.143 167.867 223.218 170.539 252.369C245.479 238.866 471.514 241.978 539.48 252.096C544.216 225.821 551.965 221.331 588.581 199.277C593.206 164.774 597.268 148.138 597.529 127.509C586.557 124.841 507.721 101.232 497.982 104.624C494.519 125.151 499.416 142.787 494.859 162.092C465.348 163.571 439.058 162.448 408.516 154.499C408.668 128.693 408.63 114.542 409.897 94.5692C396.999 89.9757 320.291 89.159 305.818 93.8965C303.324 118.768 306.477 132.318 304.478 154.431C278.28 161.842 253.435 159.92 222.16 161.677C219.64 135.384 224.293 126.158 223.701 107.702C210.798 104.174 130.209 121.692 118.026 125.438V125.438Z" fill="url(#paint3_linear_2_307)" stroke="black" stroke-width="12.4444" stroke-linecap="round" stroke-linejoin="round"/>
<path d="M162.353 203.97C277.973 192.54 448.975 191.829 548.206 206.726" stroke="black" stroke-width="12.4444" stroke-linecap="round" stroke-linejoin="round"/>
<defs>
<linearGradient id="paint0_linear_2_307" x1="-4.79064" y1="154.654" x2="549.644" y2="210.458" gradientUnits="userSpaceOnUse">
<stop stop-color="#F7CCAC"/>
<stop offset="1" stop-color="#C69B7B"/>
</linearGradient>
<linearGradient id="paint1_linear_2_307" x1="146.264" y1="555.29" x2="703.169" y2="611.094" gradientUnits="userSpaceOnUse">
<stop stop-color="#F7CCAC"/>
<stop offset="1" stop-color="#C69B7B"/>
</linearGradient>
<linearGradient id="paint2_linear_2_307" x1="166.873" y1="402.311" x2="724.805" y2="504.024" gradientUnits="userSpaceOnUse">
<stop stop-color="#F7CCAC"/>
<stop offset="1" stop-color="#C69B7B"/>
</linearGradient>
<linearGradient id="paint3_linear_2_307" x1="113.961" y1="171.542" x2="773.293" y2="314.945" gradientUnits="userSpaceOnUse">
<stop stop-color="#F7CCAC"/>
<stop offset="1" stop-color="#C69B7B"/>
</linearGradient>
</defs>
</svg>
