<svg width="50" height="50" viewBox="0 0 50 50" fill="none" xmlns="http://www.w3.org/2000/svg">
<path fill-rule="evenodd" clip-rule="evenodd" d="M24.9353 7.59905V7.60413C24.1587 7.63138 23.4699 7.90511 22.9256 8.45701C22.3196 9.03918 22.0327 9.74372 22.0327 10.5404C22.0327 11.7353 22.575 12.5935 23.6914 13.1756C22.894 14.0948 22.0008 14.983 21.0439 15.7796C19.2258 17.3423 16.8019 18.599 15.9726 20.7438C15.558 21.7855 15.3347 22.7656 15.3347 23.6235C15.3347 24.1138 15.3667 24.6657 15.4943 25.3092C15.59 25.922 15.8449 26.5959 16.2277 27.2393C16.5147 27.7602 16.8977 28.2196 17.3762 28.618C17.8227 29.0163 18.6198 29.5377 19.7999 30.1811L17.4716 35.788C18.1414 36.0331 18.8752 36.2479 19.7045 36.4624C20.5337 36.6769 21.3309 36.8297 22.0964 36.9216C18.4284 41.3645 12.4322 35.2367 8.25433 39.7409L10.4554 43.2029C15.75 40.2921 18.9592 45.8594 24.4578 41.0278C25.0047 40.5472 24.9956 40.5252 25.5421 41.0278C30.9295 45.9824 34.2496 40.2921 39.5445 43.2029L41.745 39.7409C37.5666 35.2368 31.5708 41.3645 27.9029 36.9216C28.6684 36.8297 29.4656 36.6769 30.2948 36.4624C31.1241 36.2479 31.8579 36.0331 32.5277 35.788L30.1993 30.1811C31.3795 29.5377 32.1771 29.0164 32.6236 28.618C33.102 28.2197 33.4846 27.7602 33.7716 27.2393C34.1544 26.5959 34.4093 25.922 34.505 25.3092C34.6326 24.6658 34.6646 24.1138 34.6646 23.6235C34.6646 22.7656 34.4413 21.7855 34.0267 20.7438C33.1974 18.599 30.7735 17.3423 28.9554 15.7796C27.9986 14.983 27.1053 14.0948 26.3079 13.1756C27.4242 12.5934 27.9665 11.7353 27.9665 10.5404C27.9665 9.74372 27.6796 9.03916 27.0736 8.45701C26.5293 7.9051 25.8405 7.63138 25.0639 7.60413V7.59905C25.0424 7.59905 25.0217 7.6011 25.0003 7.60159C24.9789 7.60133 24.9582 7.59905 24.9367 7.59905H24.9353Z" fill="#064635" stroke="#141414" stroke-width="1.19998"/>
<path fill-rule="evenodd" clip-rule="evenodd" d="M30.4866 35.2362L29.6067 32.9995C28.1988 32.6931 26.6736 32.5093 25.0018 32.5093C23.33 32.5093 21.8049 32.6625 20.4263 32.9995L19.5464 35.2056C21.2476 34.746 23.066 34.5315 24.9725 34.5315C26.9082 34.5315 28.7268 34.7766 30.4866 35.2362V35.2362Z" fill="#E6E6E6"/>
<path fill-rule="evenodd" clip-rule="evenodd" d="M24.8766 18.6293C24.1111 18.6293 23.7603 18.9664 23.7603 19.6405V22.061H21.1448C20.4432 22.061 20.0923 22.3674 20.0923 22.9802H20.5707V22.827V22.9802H20.0923C20.0923 23.593 20.4431 23.8994 21.1448 23.8994H23.7603V26.32C23.7603 26.9941 24.143 27.3311 24.8766 27.3311C25.6102 27.3311 25.9929 26.9941 25.9929 26.32V23.8994H28.7041C29.3739 23.8994 29.7247 23.593 29.7247 22.9802H29.5014V22.827V22.9802H29.7247C29.7247 22.3674 29.3739 22.061 28.7041 22.061H25.9929V19.6405C25.9929 18.9664 25.6102 18.6293 24.8766 18.6293Z" fill="#E6E6E6"/>
<path opacity="0.15" fill-rule="evenodd" clip-rule="evenodd" d="M24.9353 7.59905C24.1695 7.59905 23.5051 7.81854 22.9635 8.27619C23.0309 8.33354 23.0977 8.39225 23.1612 8.4568C27.8906 9.15081 26.9376 11.61 24.5095 13.1757C23.4032 14.1195 24.2311 15.1001 25.043 15.78C26.8613 17.3427 29.285 18.5986 30.1138 20.7435C30.5285 21.7852 30.7522 22.7661 30.7522 23.6241C30.7522 24.1143 30.7194 24.6657 30.5921 25.3091C30.4968 25.9219 30.2413 26.5962 29.8588 27.2397C29.5716 27.7606 29.1894 28.22 28.7107 28.6183C28.2642 29.0167 27.4666 29.5375 26.2866 30.1809L28.6152 35.7881C27.9455 36.0333 27.2119 36.248 26.3826 36.4624C25.5533 36.6769 24.7558 36.8302 23.9905 36.9221C29.0581 43.3802 35.5935 37.4124 41.0636 40.8097C41.992 39.1745 40.3998 41.8538 41.7431 39.741C40.4374 38.3335 38.9543 37.9644 37.4201 37.9863C34.8016 38.0862 32.254 38.7766 30.073 38.4135H30.0808C29.295 38.1748 28.5598 37.7215 27.9011 36.923C28.6663 36.8315 29.4636 36.6779 30.2932 36.4633C31.1225 36.2489 31.8561 36.0342 32.5257 35.7891L30.1976 30.1819C31.3777 29.5384 32.1753 29.0176 32.6218 28.6192C33.1004 28.2209 33.4824 27.7615 33.7694 27.2406C34.1522 26.5972 34.4076 25.9229 34.5031 25.31C34.6305 24.6666 34.6632 24.1153 34.6632 23.625C34.6632 22.7671 34.4396 21.7861 34.0248 20.7445C33.1957 18.5996 30.7714 17.3436 28.9531 15.7809C27.9964 14.9843 27.1041 14.096 26.3065 13.1766C27.423 12.5945 27.9648 11.7366 27.9648 10.5417C27.9648 9.74503 27.6779 9.03988 27.0717 8.45773C26.4976 7.87555 25.7643 7.59999 24.9349 7.59999L24.9353 7.59905Z" fill="black"/>
</svg>
