<svg width="50" height="50" viewBox="0 0 50 50" fill="none" xmlns="http://www.w3.org/2000/svg">
<path fill-rule="evenodd" clip-rule="evenodd" d="M22.5532 5.59542V9.14809H18.8614V13.8434H22.355L21.7503 17.6162C14.8672 14.6302 9.12101 16.2233 6.71128 21.076C4.54403 27.1576 8.38305 29.7428 12.476 33.3919V41.1566C15.9432 43.1701 22.1304 43.3714 24.993 43.4058C25.0105 43.4057 25.0157 43.4058 25.0256 43.4058H25.0432C27.9056 43.3715 34.0928 43.17 37.5601 41.1566V33.3489C41.6343 29.723 45.4341 27.133 43.2758 21.0763C40.8659 16.2236 35.1202 14.6305 28.2368 17.6165L27.6295 13.8436H31.126V9.14838H27.4341V5.59572L22.5532 5.59542Z" fill="#064635" stroke="#141414" stroke-width="1.2" stroke-linejoin="round"/>
<path fill-rule="evenodd" clip-rule="evenodd" d="M22.6836 28.9537L14.2811 29.7365C14.2811 29.7365 7.27869 26.1427 10.4091 21.8105C13.5397 17.478 23.3543 20.5822 22.6834 28.9537L22.6836 28.9537Z" stroke="#E6E6E6" stroke-width="2.00006" stroke-linejoin="round"/>
<path fill-rule="evenodd" clip-rule="evenodd" d="M27.3066 28.9537L35.7091 29.7365C35.7091 29.7365 42.7116 26.1427 39.581 21.8105C36.4505 17.478 26.6359 20.5822 27.3067 28.9537L27.3066 28.9537Z" stroke="#E6E6E6" stroke-width="2.00006" stroke-linejoin="round"/>
<path fill-rule="evenodd" clip-rule="evenodd" d="M35.4192 36.7888C32.811 35.7947 29.3313 35.2928 24.995 35.2928C20.622 35.2928 17.1063 35.8041 14.4406 36.8198L14.4405 39.7928C17.1215 38.8284 20.8466 38.3454 24.995 38.3454C29.1209 38.3454 32.8254 38.8176 35.419 39.762L35.4192 36.7888Z" fill="#E6E6E6"/>
<path opacity="0.15" fill-rule="evenodd" clip-rule="evenodd" d="M34.8476 16.1059C33.9634 16.1048 33.0349 16.2004 32.0715 16.3931C34.6981 17.0144 36.7597 18.6304 37.9739 21.0754C40.1322 27.1324 36.3322 29.7225 32.258 33.3489V40.6351C31.7149 41.7619 19.7742 42.4698 16.6585 42.6327C17.6746 42.6858 24.2937 43.3977 24.9976 43.4061C25.0151 43.406 25.0208 43.4061 25.0308 43.4061H25.0478C27.9102 43.3718 34.0975 43.1701 37.5648 41.1566V33.3489C41.6389 29.723 45.439 27.1329 43.2806 21.0753C41.6991 17.8908 38.6812 16.1098 34.8478 16.1058L34.8476 16.1059Z" fill="black"/>
<path opacity="0.15" fill-rule="evenodd" clip-rule="evenodd" d="M24.9901 5.59542V10.0867H27.6148V12.8015L27.6258 13.8433L28.191 17.3541L27.6258 13.8433H31.1224V9.14799H27.7751L27.4304 5.59532L24.9901 5.59542Z" fill="black"/>
</svg>
