<svg width="50" height="50" viewBox="0 0 50 50" fill="none" xmlns="http://www.w3.org/2000/svg">
<path fill-rule="evenodd" clip-rule="evenodd" d="M19.8922 7.85851C19.0586 8.24209 20.7779 10.2545 20.2966 11.1288C20.199 11.246 20.0997 11.3516 20 11.4529C19.002 11.4688 15.5261 10.6617 15.5998 11.4211C16.1286 12.3348 17.902 13.1462 17.3914 14.4836C17.0216 15.0186 16.6414 15.5477 16.2545 16.0739C12.9808 20.5269 9.22107 24.7733 7.05978 30.573C6.92134 32.641 9.17038 33.8954 12.4228 34.9803C14.9486 34.6074 16.1954 32.2368 18.6866 30.7112C20.6588 29.4908 23.2129 29.581 25.6695 28.4283C24.6235 35.4681 15.9048 36.5593 15.1545 43.4495H42.839C43.578 25.6431 41.0954 14.3183 24.0551 10.6199C23.2494 9.23776 21.6881 7.77191 19.8926 7.85827L19.8922 7.85851Z" fill="#FFF5FD" stroke="#3A3A3A" stroke-width="1.09998"/>
<path fill-rule="evenodd" clip-rule="evenodd" d="M13.7905 30.5005C14.1984 30.0929 14.4703 30.908 14.1984 31.5872C13.2468 32.1306 12.1944 33.2627 11.4796 33.7608C10.9293 34.1441 10.2809 34.4136 13.7905 30.5005H13.7905Z" fill="#519259"/>
<path fill-rule="evenodd" clip-rule="evenodd" d="M10.1606 27.7194C10.7044 27.3119 10.9763 27.9911 10.7044 28.6704C10.4326 29.0779 9.48091 29.6213 8.80126 29.7571C8.12151 30.0288 7.84959 29.7571 10.1607 27.7194L10.1606 27.7194Z" fill="#519259"/>
<path fill-rule="evenodd" clip-rule="evenodd" d="M24.3785 26.5784C26.0622 25.7278 28.3071 24.4519 27.2969 22.5382C26.9611 22.0198 26.1515 20.8316 25.2764 20.3054C26.5112 23.1762 25.95 23.7076 23.7051 26.791" fill="#519259"/>
<path fill-rule="evenodd" clip-rule="evenodd" d="M16.3305 21.3436C17.0402 20.1236 17.9977 18.9096 19.337 18.3039C22.1067 17.1633 19.9467 19.1615 19.3731 19.7181C19.8198 20.4301 19.2992 21.4433 18.2982 21.2616C18.1604 21.2262 18.5218 20.6697 18.4266 20.6714C17.8835 20.6814 17.4479 21.7615 16.8166 21.9649C16.4179 22.2367 16.1486 21.6522 16.3305 21.3436H16.3305Z" fill="#519259"/>
<path fill-rule="evenodd" clip-rule="evenodd" d="M39.1413 42.8928C39.8445 29.9975 37.7335 17.0457 26.6032 15.6385C36.7863 18.8679 36.3601 29.1504 36.1494 42.8928H39.1413Z" fill="#519259"/>
<path opacity="0.15" fill-rule="evenodd" clip-rule="evenodd" d="M28.9134 24.2233C28.2438 25.5677 27.7461 32.6661 25.4283 31.0477C25.0683 30.6756 25.3932 30.1429 25.4195 29.7083C25.4869 29.42 25.8573 28.5002 25.7174 28.4366C25.5157 28.345 23.935 29.0444 23.3227 29.2521C14.2947 32.3165 19.4196 30.5698 28.9139 24.2233H28.9134Z" fill="black"/>
<path opacity="0.15" fill-rule="evenodd" clip-rule="evenodd" d="M19.8922 7.85851C19.1396 8.20478 22.6613 10.5292 22.5725 11.4947C38.7455 15.4079 38.9226 25.983 38.1976 43.4501H42.8385C43.5775 25.6436 41.0949 14.3188 24.0545 10.6204C23.2489 9.23829 21.6876 7.77245 19.892 7.8588L19.8922 7.85851Z" fill="black"/>
</svg>
