<svg width="32" height="32" viewBox="0 0 32 32" fill="none" xmlns="http://www.w3.org/2000/svg">
<path d="M25.4494 18.9248C26.0418 18.2769 26.338 17.4902 26.338 16.5646C26.338 15.5836 25.9909 14.746 25.2967 14.0518C24.6026 13.3576 23.7649 13.0106 22.7839 13.0106C21.9601 13.0106 21.2197 13.2697 20.5626 13.788C19.1557 15.1578 18.1191 16.7498 17.4528 18.5638C17.1751 19.3228 16.9854 19.9706 16.8835 20.5075C20.1229 20.5445 22.4923 20.8638 23.9917 21.4654C24.0102 21.3728 24.0565 21.2201 24.1305 21.0072C24.3804 20.3038 24.8201 19.6097 25.4494 18.9248V18.9248ZM7.40137 18.9248C8.03999 19.6282 8.47962 20.3223 8.72026 21.0072C8.78505 21.1831 8.83133 21.3358 8.85909 21.4654C10.3492 20.8638 12.7186 20.5445 15.9673 20.5075C15.8469 19.9429 15.6572 19.295 15.398 18.5638C14.7317 16.759 13.6951 15.1671 12.2882 13.788C11.6218 13.2697 10.8814 13.0106 10.0669 13.0106C9.08585 13.0106 8.24824 13.3576 7.55408 14.0518C6.85992 14.746 6.51285 15.5836 6.51285 16.5646C6.51285 17.4809 6.80902 18.2676 7.40137 18.9248V18.9248ZM5.88811 17.8002C5.66598 17.1431 5.55491 16.7312 5.55491 16.5646C5.55491 15.3614 5.98066 14.3017 6.83216 13.3854C7.56334 12.5987 8.56292 12.2053 9.83091 12.2053C10.0438 12.2053 10.2613 12.2146 10.4834 12.2331C10.0762 12.0665 9.54862 11.9415 8.90074 11.8582C8.26212 11.7749 7.73456 11.8073 7.31807 11.9554C6.38327 12.2979 5.72614 12.9087 5.34666 13.788C5.12453 14.3063 5.01347 14.8292 5.01347 15.3568C5.01347 15.9214 5.12916 16.4767 5.36055 17.0228C5.43459 17.1986 5.61044 17.4578 5.88811 17.8002V17.8002ZM16.4254 25.7275C19.6185 25.7275 22.0573 26.0144 23.7418 26.5883C23.7418 26.4587 23.7372 26.2643 23.7279 26.0052C23.7187 25.746 23.714 25.5517 23.714 25.4221C22.4368 24.9315 20.0072 24.6863 16.4254 24.6863C12.8343 24.6863 10.4047 24.9315 9.13674 25.4221C9.13674 25.5517 9.13212 25.746 9.12286 26.0052C9.12286 26.2643 9.12286 26.4587 9.12286 26.5883C10.7888 26.0144 13.223 25.7275 16.4254 25.7275H16.4254ZM16.4254 28.3375C18.0451 28.3375 19.7481 28.2265 21.5344 28.0043C23.1819 27.8007 24.0056 27.6341 24.0056 27.5045C24.0056 27.2547 23.0014 27.0464 20.9929 26.8798C19.3918 26.741 17.8692 26.6716 16.4254 26.6716C14.7224 26.6716 12.9963 26.7826 11.247 27.0048C9.64581 27.2084 8.84521 27.375 8.84521 27.5045C8.84521 27.7452 9.84942 27.9534 11.8579 28.1293C13.4961 28.2681 15.0186 28.3375 16.4254 28.3375ZM16.4254 23.7422C19.637 23.7422 22.0666 24.0291 23.714 24.603C23.714 23.9551 23.7418 23.1869 23.7973 22.2984C22.5849 21.7338 20.1276 21.4515 16.4254 21.4515C12.714 21.4515 10.2567 21.7338 9.05346 22.2984C9.09048 23.1869 9.11825 23.9551 9.13676 24.603C10.775 24.0291 13.2045 23.7422 16.4254 23.7422ZM16.4254 29.2816C14.9445 29.2816 13.3896 29.1798 11.7607 28.9762C9.17841 28.6522 7.88728 28.1617 7.88728 27.5045C7.88728 27.3565 7.9752 27.2084 8.15106 27.0603C8.17882 26.2921 8.1927 25.6026 8.1927 24.9917C8.1927 24.0014 8.16031 23.1406 8.09552 22.4094C7.99371 21.9282 7.90116 21.5672 7.81786 21.3266C7.46615 20.3732 6.79976 19.5495 5.81869 18.8554C4.60623 17.8188 4 16.6294 4 15.2874C4 14.6488 4.14809 14.0194 4.44426 13.3993C4.97182 12.2609 5.81869 11.4788 6.98487 11.053C7.52169 10.8587 8.04925 10.7615 8.56755 10.7615C9.29873 10.7615 10.0068 10.9559 10.6917 11.3446C11.5061 11.8166 12.353 12.5061 13.2323 13.4132C13.2878 12.6357 13.6025 11.9601 14.1763 11.3862L13.2323 11.4001V5H19.6185V11.4001L18.6745 11.3862C19.2298 11.9601 19.5445 12.6357 19.6185 13.4132C20.4978 12.5061 21.3447 11.8166 22.1591 11.3446C22.8348 10.9559 23.5428 10.7615 24.2832 10.7615C24.8016 10.7615 25.3291 10.8587 25.8659 11.053C27.0321 11.4788 27.879 12.2609 28.4065 13.3993C28.7027 14.0194 28.8508 14.6488 28.8508 15.2874C28.8508 16.6294 28.2446 17.8188 27.0321 18.8554C26.051 19.5403 25.3846 20.364 25.0329 21.3266C24.9311 21.6042 24.8386 21.9652 24.7553 22.4094C24.6905 23.2147 24.6581 24.0754 24.6581 24.9917C24.6581 25.6118 24.672 26.3013 24.6997 27.0603C24.8756 27.2084 24.9635 27.3565 24.9635 27.5045C24.9635 28.1617 23.6724 28.6522 21.0901 28.9762C19.4519 29.1798 17.897 29.2816 16.4254 29.2816ZM16.4254 18.661L16.5781 18.2445C16.754 17.7355 16.9807 17.2218 17.2584 16.7035C16.99 16.7868 16.7123 16.8284 16.4254 16.8284C16.157 16.8284 15.8886 16.796 15.6202 16.7312C15.8978 17.3143 16.1153 17.8188 16.2727 18.2445L16.4254 18.661ZM18.0081 5.94405H14.8288L16.4254 7.54061L18.0081 5.94405ZM18.6883 9.78968V6.61044L17.0918 8.207L18.6883 9.78968ZM14.8427 10.4561H18.022L16.4254 8.85951L14.8427 10.4561ZM14.1902 9.77579L15.759 8.19312L14.1763 6.62432L14.1902 9.77579ZM16.4254 15.8983C17.0455 15.8983 17.5731 15.6808 18.0081 15.2457C18.4523 14.8015 18.6745 14.2693 18.6745 13.6492C18.6745 13.0291 18.4523 12.5015 18.0081 12.0665C17.5731 11.6222 17.0455 11.4001 16.4254 11.4001C15.796 11.4001 15.2638 11.6176 14.8288 12.0526C14.3938 12.4876 14.1763 13.0198 14.1763 13.6492C14.1763 14.2786 14.3938 14.8107 14.8288 15.2457C15.2638 15.6808 15.796 15.8983 16.4254 15.8983ZM27.0182 17.8002C27.3699 17.3467 27.6013 16.9256 27.7124 16.5369C27.8234 16.1481 27.879 15.764 27.879 15.3846C27.879 14.8478 27.7679 14.3156 27.5458 13.788C27.1571 12.8995 26.5092 12.2886 25.6021 11.9554C25.1764 11.8074 24.6396 11.775 23.9917 11.8583C23.3438 11.9416 22.8209 12.0665 22.4229 12.2331C22.645 12.2146 22.8579 12.2054 23.0615 12.2054C24.3295 12.2054 25.3337 12.5987 26.0742 13.3854C26.9257 14.3017 27.3514 15.3615 27.3514 16.5647C27.3514 16.7498 27.2404 17.1616 27.0182 17.8003V17.8002Z" fill="black"/>
<path d="M25.4495 18.9248C26.0418 18.2769 26.338 17.4902 26.338 16.5646C26.338 15.5836 25.9909 14.746 25.2967 14.0518C24.6026 13.3576 23.765 13.0106 22.7839 13.0106C21.9602 13.0106 21.2197 13.2697 20.5626 13.788C19.1558 15.1578 18.1192 16.7497 17.4528 18.5638C17.1751 19.3228 16.9854 19.9706 16.8836 20.5074C20.123 20.5445 22.4923 20.8638 23.9917 21.4654C24.0102 21.3728 24.0565 21.2201 24.1306 21.0072C24.3805 20.3038 24.8201 19.6097 25.4495 18.9248ZM7.40139 18.9248C8.04001 19.6282 8.47964 20.3223 8.72028 21.0072C8.78507 21.1831 8.83135 21.3358 8.85912 21.4654C10.3492 20.8638 12.7186 20.5445 15.9673 20.5074C15.847 19.9429 15.6572 19.295 15.3981 18.5638C14.7317 16.759 13.6951 15.1671 12.2882 13.788C11.6219 13.2697 10.8814 13.0106 10.0669 13.0106C9.08587 13.0106 8.24826 13.3576 7.5541 14.0518C6.85994 14.746 6.51287 15.5836 6.51287 16.5646C6.51287 17.4809 6.80904 18.2676 7.40139 18.9248ZM5.88813 17.8002C5.666 17.1431 5.55493 16.7312 5.55493 16.5646C5.55493 15.3614 5.98068 14.3017 6.83218 13.3854C7.56336 12.5987 8.56294 12.2053 9.83093 12.2053C10.0438 12.2053 10.2613 12.2146 10.4834 12.2331C10.0762 12.0665 9.54864 11.9415 8.90076 11.8582C8.26214 11.7749 7.73458 11.8073 7.31809 11.9554C6.38329 12.2979 5.72616 12.9087 5.34668 13.788C5.12455 14.3063 5.01349 14.8292 5.01349 15.3568C5.01349 15.9214 5.12918 16.4767 5.36057 17.0228C5.43461 17.1986 5.61046 17.4578 5.88813 17.8002ZM16.4254 25.7275C19.6185 25.7275 22.0573 26.0144 23.7418 26.5883C23.7418 26.4587 23.7372 26.2643 23.7279 26.0052C23.7187 25.746 23.714 25.5517 23.714 25.4221C22.4368 24.9315 20.0073 24.6863 16.4254 24.6863C12.8343 24.6863 10.4048 24.9315 9.13676 25.4221C9.13676 25.5517 9.13214 25.746 9.12288 26.0052C9.12288 26.2643 9.12288 26.4587 9.12288 26.5883C10.7889 26.0144 13.223 25.7275 16.4254 25.7275ZM16.4254 28.3375C18.0451 28.3375 19.7481 28.2265 21.5344 28.0043C23.1819 27.8007 24.0056 27.6341 24.0056 27.5045C24.0056 27.2546 23.0014 27.0464 20.993 26.8798C19.3918 26.741 17.8693 26.6716 16.4254 26.6716C14.7224 26.6716 12.9963 26.7826 11.247 27.0048C9.64583 27.2084 8.84523 27.375 8.84523 27.5045C8.84523 27.7452 9.84944 27.9534 11.8579 28.1293C13.4961 28.2681 15.0186 28.3375 16.4254 28.3375ZM16.4254 23.7422C19.6371 23.7422 22.0666 24.0291 23.7141 24.603C23.7141 23.9551 23.7418 23.1869 23.7974 22.2984C22.5849 21.7338 20.1276 21.4515 16.4254 21.4515C12.714 21.4515 10.2567 21.7338 9.05348 22.2984C9.0905 23.1869 9.11827 23.9551 9.13678 24.603C10.775 24.0291 13.2045 23.7422 16.4254 23.7422ZM16.4254 18.661L16.5781 18.2445C16.754 17.7355 16.9807 17.2218 17.2584 16.7035C16.99 16.7868 16.7123 16.8284 16.4254 16.8284C16.157 16.8284 15.8886 16.796 15.6202 16.7312C15.8979 17.3143 16.1154 17.8187 16.2727 18.2445L16.4254 18.661ZM18.0081 5.94405H14.8289L16.4254 7.54061L18.0081 5.94405ZM18.6884 9.78967V6.61044L17.0918 8.207L18.6884 9.78967ZM14.8427 10.4561H18.022L16.4254 8.8595L14.8427 10.4561ZM14.1902 9.77579L15.759 8.19311L14.1764 6.62432L14.1902 9.77579ZM16.4254 15.8982C17.0455 15.8982 17.5731 15.6807 18.0081 15.2457C18.4524 14.8015 18.6745 14.2693 18.6745 13.6492C18.6745 13.0291 18.4524 12.5015 18.0081 12.0665C17.5731 11.6222 17.0455 11.4001 16.4254 11.4001C15.7961 11.4001 15.2639 11.6176 14.8289 12.0526C14.3939 12.4876 14.1764 13.0198 14.1764 13.6492C14.1764 14.2786 14.3939 14.8107 14.8289 15.2457C15.2639 15.6807 15.7961 15.8982 16.4254 15.8982ZM27.0182 17.8002C27.37 17.3467 27.6013 16.9256 27.7124 16.5369C27.8235 16.1481 27.879 15.764 27.879 15.3846C27.879 14.8478 27.7679 14.3156 27.5458 13.788C27.1571 12.8995 26.5092 12.2886 25.6022 11.9554C25.1764 11.8074 24.6396 11.775 23.9917 11.8583C23.3438 11.9416 22.8209 12.0665 22.4229 12.2331C22.6451 12.2146 22.8579 12.2054 23.0616 12.2054C24.3295 12.2054 25.3338 12.5987 26.0742 13.3854C26.9257 14.3017 27.3514 15.3614 27.3514 16.5647C27.3514 16.7498 27.2404 17.1616 27.0182 17.8002Z" fill="white"/>
</svg>
