<svg width="32" height="32" viewBox="0 0 32 32" fill="none" xmlns="http://www.w3.org/2000/svg">
<path d="M13.0881 9.84563C12.4865 10.3732 12.2366 10.7573 12.3384 10.9979C12.431 11.2108 12.6531 11.2339 13.0048 11.0673C13.1251 11.0118 13.2223 10.9378 13.2963 10.8452C13.4722 10.5583 13.7406 10.3408 14.1016 10.1927C14.5273 10.0261 14.7171 9.85025 14.6708 9.66515C14.6152 9.43376 14.3006 9.39211 13.7267 9.5402C13.4491 9.61424 13.2362 9.71605 13.0881 9.84563ZM8.67327 22.035C8.75656 21.8962 8.90465 21.7111 9.11753 21.4797C9.26561 21.2946 9.46461 21.0447 9.7145 20.73C9.78854 20.6374 9.78854 20.5727 9.7145 20.5356C9.64046 20.4894 9.497 20.4708 9.28412 20.4801C9.06199 20.4986 8.89077 20.568 8.77045 20.6884C8.52981 20.8642 8.29842 21.091 8.07629 21.3686C8.01151 21.4519 7.95597 21.5445 7.90969 21.6463C7.72459 22.0905 7.77086 22.3543 8.04853 22.4376C8.2614 22.5024 8.46965 22.3682 8.67327 22.035ZM11.6443 10.1788C11.6165 9.74382 11.6535 9.24402 11.7553 8.67944C11.9497 7.53177 12.3014 6.63862 12.8104 6C13.412 6.56458 13.9072 7.38369 14.2959 8.45731C14.333 8.56838 14.3885 8.7396 14.4625 8.97099C14.481 8.99876 14.4995 9.01264 14.5181 9.01264C14.5366 9.01264 14.5597 8.99876 14.5875 8.97099C14.7911 7.81406 15.1474 6.91629 15.6565 6.27766C16.2488 6.87001 16.7394 7.69374 17.1281 8.74886C17.1374 8.80439 17.216 8.87844 17.3641 8.97099L19.4466 9.06817L20.3351 9.95669L22.1538 10.4287L22.126 11.2895L24.0419 12.0669L23.6671 13.1498L25.7218 14.2327L24.9304 14.677L26.3743 16.5234L25.6107 16.7178L27.3322 18.9252L26.3743 18.8974L27.832 21.202L26.7769 20.9105L27.6099 23.1179L26.6797 23.1318L27.832 25.5613L26.8741 25.6863L27.707 27.6993L26.9157 27.9631L27.5404 29.4347H9.03425C9.01575 29.3422 9.00649 29.2496 9.00649 29.1571C9.00649 28.0372 9.65437 26.8479 10.9501 25.5891C11.0242 25.5151 11.6813 24.932 12.9215 23.8398C14.0229 22.868 14.5921 22.3636 14.6292 22.3266C15.3788 21.6232 15.8601 21.0632 16.073 20.6467C16.2951 20.221 16.4478 19.8137 16.5311 19.425C15.9481 19.7027 15.2585 19.8045 14.4626 19.7304C14.0461 19.7027 13.6435 19.6101 13.2547 19.4528C12.5513 20.2025 11.8618 20.6976 11.1861 20.9383C11.0381 21.2992 10.8529 21.6324 10.6308 21.9379C10.2513 22.4839 9.7932 22.9328 9.25639 23.2845C8.54372 23.7565 7.96063 23.8306 7.50711 23.5066C7.28498 23.3586 7.14615 23.2012 7.09062 23.0346C7.01657 23.0346 6.86849 23.0022 6.64636 22.9374C5.93369 22.7523 5.44778 22.2711 5.18863 21.4936C4.95724 20.8087 4.93873 20.096 5.1331 19.3556C5.35523 18.5319 5.77635 17.884 6.39646 17.412C7.46083 16.4031 8.32622 15.223 8.99261 13.8718C9.79783 12.2243 10.6817 10.9933 11.6443 10.1788L11.6443 10.1788ZM7.50708 19.1751C7.81251 18.8141 8.03464 18.5642 8.17347 18.4254C8.30305 18.2773 8.2938 18.1015 8.14573 17.8978C7.94211 17.6479 7.56263 17.9487 7.00731 18.8002C6.93327 19.0779 6.96103 19.2723 7.09061 19.3833C7.21093 19.4851 7.34976 19.4157 7.5071 19.1751H7.50708ZM12.7549 13.4275C13.1714 13.1776 13.3796 12.9601 13.3796 12.775C13.3796 12.5158 13.1529 12.4279 12.6994 12.5112C11.8386 12.6685 11.1352 13.0758 10.5891 13.7329C10.3485 14.0106 10.2745 14.2234 10.367 14.3715C10.4966 14.6029 10.8483 14.5751 11.4221 14.2882C11.7553 14.6584 12.1024 14.7417 12.4634 14.5381C12.8058 14.3345 12.903 13.9643 12.7549 13.4275ZM18.2387 17.9673C18.9607 17.0232 19.3679 15.9681 19.4605 14.8019C19.4697 14.6446 19.4744 14.5242 19.4744 14.4409C19.4558 13.9504 19.2985 13.7051 19.0023 13.7051C18.6969 13.7051 18.5442 13.9458 18.5442 14.4271C18.5349 14.4641 18.5257 14.5659 18.5164 14.7325C18.4424 15.7136 18.0999 16.616 17.4891 17.4397C17.1374 17.921 17.0865 18.2542 17.3364 18.4393C17.4011 18.4856 17.4659 18.5087 17.5307 18.5087C17.7251 18.5087 17.9611 18.3282 18.2388 17.9673H18.2387ZM18.808 19.0363C19.5484 18.3699 20.0574 17.5924 20.3351 16.7039C20.4739 16.2781 20.4276 16.019 20.1963 15.9264C19.9464 15.8339 19.7474 15.9959 19.5993 16.4123C19.59 16.4494 19.5576 16.5327 19.5021 16.6622C19.2522 17.2824 18.8727 17.8331 18.3637 18.3143C18.0305 18.5642 17.9426 18.8095 18.0999 19.0501C18.2387 19.2908 18.4748 19.2862 18.808 19.0363V19.0363ZM19.28 20.0081C19.9186 19.7397 20.349 19.388 20.5711 18.953L20.6683 18.7586C20.7979 18.3143 20.7516 18.0367 20.5295 17.9256C20.2981 17.8145 20.0852 17.9626 19.8908 18.3699C19.8353 18.4717 19.8075 18.518 19.8075 18.5087C19.6224 18.8419 19.3309 19.1103 18.9329 19.3139C18.6367 19.462 18.5395 19.6517 18.6414 19.8831C18.7432 20.1053 18.956 20.1469 19.28 20.0081ZM25.8467 28.1991C25.893 27.4217 25.9161 26.3619 25.9161 25.0199C25.9161 20.5865 25.2358 17.1852 23.8753 14.8158C23.7827 14.5566 23.6208 14.242 23.3894 13.8717C23.1302 13.446 22.9544 13.2701 22.8618 13.3442C22.76 13.4275 22.8433 13.6727 23.1117 14.08C23.2228 14.3484 23.3107 14.5844 23.3755 14.788C24.2363 16.6576 24.6666 19.064 24.6666 22.0072C24.6666 23.0809 24.5695 24.6265 24.3751 26.6442C24.3288 27.1533 24.264 27.6716 24.1807 28.1991C24.1807 28.3102 24.463 28.3657 25.0276 28.3657C25.5737 28.3657 25.8467 28.3102 25.8467 28.1991Z" fill="black"/>
<path d="M13.0881 9.84565C12.4865 10.3732 12.2366 10.7573 12.3384 10.998C12.431 11.2108 12.6531 11.234 13.0048 11.0674C13.1251 11.0118 13.2223 10.9378 13.2963 10.8452C13.4722 10.5583 13.7406 10.3408 14.1016 10.1927C14.5273 10.0261 14.7171 9.85028 14.6708 9.66517C14.6152 9.43378 14.3006 9.39214 13.7267 9.54022C13.4491 9.61427 13.2362 9.71607 13.0881 9.84565ZM8.67326 22.035C8.75656 21.8962 8.90465 21.7111 9.11752 21.4797C9.26561 21.2946 9.4646 21.0447 9.7145 20.73C9.78854 20.6375 9.78854 20.5727 9.7145 20.5357C9.64046 20.4894 9.497 20.4709 9.28412 20.4801C9.06199 20.4986 8.89077 20.568 8.77045 20.6884C8.5298 20.8642 8.29842 21.091 8.07629 21.3686C8.0115 21.4519 7.95597 21.5445 7.90969 21.6463C7.72458 22.0906 7.77086 22.3543 8.04852 22.4376C8.2614 22.5024 8.46964 22.3682 8.67326 22.035ZM7.50708 19.1751C7.81251 18.8142 8.03464 18.5643 8.17347 18.4254C8.30305 18.2773 8.2938 18.1015 8.14572 17.8979C7.9421 17.648 7.56263 17.9488 7.00731 18.8003C6.93326 19.0779 6.96103 19.2723 7.09061 19.3834C7.21092 19.4852 7.34974 19.4158 7.50708 19.1751ZM12.7549 13.4275C13.1714 13.1776 13.3796 12.9601 13.3796 12.775C13.3796 12.5158 13.1529 12.4279 12.6994 12.5112C11.8386 12.6686 11.1352 13.0758 10.5891 13.7329C10.3485 14.0106 10.2745 14.2235 10.367 14.3716C10.4966 14.6029 10.8483 14.5752 11.4221 14.2883C11.7553 14.6585 12.1024 14.7418 12.4634 14.5381C12.8058 14.3345 12.903 13.9643 12.7549 13.4275ZM18.2387 17.9673C18.9607 17.0232 19.3679 15.9681 19.4605 14.8019C19.4697 14.6446 19.4743 14.5243 19.4743 14.441C19.4558 13.9504 19.2985 13.7052 19.0023 13.7052C18.6969 13.7052 18.5442 13.9458 18.5442 14.4271C18.5349 14.4641 18.5257 14.5659 18.5164 14.7325C18.4424 15.7136 18.0999 16.616 17.4891 17.4397C17.1374 17.921 17.0865 18.2542 17.3364 18.4393C17.4011 18.4856 17.4659 18.5087 17.5307 18.5087C17.7251 18.5087 17.9611 18.3282 18.2387 17.9673ZM18.8079 19.0363C19.5484 18.3699 20.0574 17.5924 20.3351 16.7039C20.4739 16.2782 20.4276 16.019 20.1963 15.9265C19.9464 15.8339 19.7474 15.9959 19.5993 16.4124C19.59 16.4494 19.5576 16.5327 19.5021 16.6623C19.2522 17.2824 18.8727 17.8331 18.3637 18.3144C18.0305 18.5643 17.9426 18.8095 18.0999 19.0502C18.2387 19.2908 18.4748 19.2862 18.8079 19.0363ZM19.28 20.0081C19.9186 19.7397 20.349 19.388 20.5711 18.953L20.6683 18.7586C20.7979 18.3144 20.7516 18.0367 20.5295 17.9256C20.2981 17.8146 20.0852 17.9627 19.8908 18.3699C19.8353 18.4717 19.8075 18.518 19.8075 18.5087C19.6224 18.8419 19.3309 19.1103 18.9329 19.3139C18.6367 19.462 18.5395 19.6518 18.6414 19.8832C18.7432 20.1053 18.956 20.1469 19.28 20.0081ZM25.8467 28.1991C25.893 27.4217 25.9161 26.3619 25.9161 25.0199C25.9161 20.5866 25.2358 17.1852 23.8753 14.8158C23.7827 14.5567 23.6208 14.242 23.3894 13.8718C23.1302 13.446 22.9544 13.2702 22.8618 13.3442C22.76 13.4275 22.8433 13.6728 23.1117 14.08C23.2228 14.3484 23.3107 14.5844 23.3755 14.788C24.2363 16.6576 24.6666 19.064 24.6666 22.0073C24.6666 23.0809 24.5694 24.6266 24.3751 26.6442C24.3288 27.1533 24.264 27.6716 24.1807 28.1991C24.1807 28.3102 24.463 28.3657 25.0276 28.3657C25.5737 28.3657 25.8467 28.3102 25.8467 28.1991Z" fill="#EEEEEE"/>
</svg>
