<svg width="32" height="32" viewBox="0 0 32 32" fill="none" xmlns="http://www.w3.org/2000/svg">
<path d="M23.8684 28.5462C23.8221 27.3245 23.4797 26.2185 22.8411 25.2281C22.4338 24.5895 21.7397 23.9139 20.7586 23.2012C19.6665 22.4052 18.9306 21.7851 18.5512 21.3409C17.9403 21.4982 17.2277 21.5769 16.4132 21.5769C15.5894 21.5769 14.8768 21.4982 14.2752 21.3409C13.8957 21.7851 13.1553 22.4052 12.0539 23.2012C11.0821 23.9139 10.3879 24.5895 9.9714 25.2281C9.32352 26.2185 8.9857 27.3245 8.95794 28.5462H23.8684ZM16.4271 20.6606C17.3341 20.6606 18.0236 20.5727 18.4956 20.3968C19.5137 19.7489 20.0228 18.8188 20.0228 17.6063C20.0228 16.653 19.6572 15.8339 18.926 15.149C18.3337 14.6122 17.9449 13.9504 17.7598 13.1637H15.0665C14.8721 13.9504 14.4834 14.6122 13.9003 15.149C13.1784 15.8246 12.8174 16.6437 12.8174 17.6063C12.8174 18.8188 13.3265 19.7489 14.3446 20.3968C14.7981 20.5727 15.4923 20.6606 16.4271 20.6606ZM17.2184 10.3454C16.9685 10.4472 16.7001 10.4981 16.4132 10.4981C16.1633 10.4981 15.9041 10.4519 15.6357 10.3593C15.1359 11.0627 14.6408 11.6736 14.1502 12.1919H18.6761C18.1208 11.6273 17.6349 11.0118 17.2184 10.3454ZM17.9959 9.84563C18.616 10.7989 19.3657 11.6597 20.2449 12.4279C20.43 12.5945 20.4948 12.7565 20.4393 12.9138C20.3838 13.0804 20.2264 13.1637 19.9673 13.1637H18.7178C18.8751 13.6727 19.1389 14.0939 19.5091 14.4271C20.4717 15.3063 20.953 16.3661 20.953 17.6063C20.953 18.9391 20.4347 20.0312 19.398 20.8827C19.8053 21.3547 20.2634 21.7481 20.7725 22.0628C22.0127 22.7199 22.9984 23.6501 23.7296 24.8533C24.4608 26.0472 24.8264 27.3476 24.8264 28.7544C24.8264 28.9488 24.8078 29.1941 24.7708 29.4903H8.05553C8.01851 29.0923 8 28.847 8 28.7544C8 27.3476 8.36096 26.0472 9.08288 24.8533C9.81406 23.6501 10.8044 22.7199 12.0539 22.0628C12.5537 21.7481 13.0118 21.3547 13.4283 20.8827C12.3917 20.0405 11.8734 18.9483 11.8734 17.6063C11.8734 16.3661 12.3547 15.3063 13.3172 14.4271C13.6689 14.0939 13.9327 13.6727 14.1086 13.1637H12.8591C12.5999 13.1637 12.4426 13.0804 12.3871 12.9138C12.3223 12.7565 12.3871 12.5945 12.5814 12.4279C13.4607 11.6504 14.2104 10.7897 14.8305 9.84563C14.3862 9.40137 14.1641 8.86918 14.1641 8.24907C14.1641 7.62895 14.3816 7.10139 14.8166 6.66639C15.2609 6.22213 15.7931 6 16.4132 6C17.0333 6 17.5608 6.22213 17.9959 6.66639C18.4401 7.10139 18.6622 7.62895 18.6622 8.24907C18.6622 8.85067 18.4401 9.38286 17.9959 9.84563ZM16.4132 9.55408C17.2832 9.55408 17.7182 9.11908 17.7182 8.24907C17.7182 7.3698 17.2832 6.93017 16.4132 6.93017C15.5432 6.93017 15.1082 7.3698 15.1082 8.24907C15.1082 9.11908 15.5432 9.55408 16.4132 9.55408Z" fill="black"/>
<path d="M23.8684 28.5462C23.8222 27.3245 23.4797 26.2185 22.8411 25.2281C22.4338 24.5895 21.7397 23.9139 20.7586 23.2012C19.6665 22.4052 18.9307 21.7851 18.5512 21.3409C17.9403 21.4982 17.2277 21.5769 16.4132 21.5769C15.5895 21.5769 14.8768 21.4982 14.2752 21.3409C13.8957 21.7851 13.1553 22.4052 12.0539 23.2012C11.0821 23.9139 10.3879 24.5895 9.97142 25.2281C9.32354 26.2185 8.98571 27.3245 8.95795 28.5462H23.8684ZM16.4271 20.6606C17.3341 20.6606 18.0236 20.5727 18.4957 20.3968C19.5138 19.7489 20.0228 18.8188 20.0228 17.6063C20.0228 16.653 19.6572 15.8339 18.926 15.149C18.3337 14.6122 17.945 13.9504 17.7599 13.1637H15.0665C14.8722 13.9504 14.4834 14.6122 13.9003 15.149C13.1784 15.8246 12.8175 16.6437 12.8175 17.6063C12.8175 18.8188 13.3265 19.7489 14.3446 20.3968C14.7981 20.5727 15.4923 20.6606 16.4271 20.6606ZM17.2184 10.3454C16.9685 10.4472 16.7001 10.4981 16.4132 10.4981C16.1633 10.4981 15.9041 10.4519 15.6357 10.3593C15.1359 11.0627 14.6408 11.6736 14.1502 12.1919H18.6761C18.1208 11.6273 17.6349 11.0118 17.2184 10.3454ZM16.4132 9.55409C17.2832 9.55409 17.7182 9.11908 17.7182 8.24907C17.7182 7.36981 17.2832 6.93018 16.4132 6.93018C15.5432 6.93018 15.1082 7.36981 15.1082 8.24907C15.1082 9.11908 15.5432 9.55409 16.4132 9.55409Z" fill="white"/>
</svg>
