<svg width="32" height="32" viewBox="0 0 32 32" fill="none" xmlns="http://www.w3.org/2000/svg">
<path d="M8.6925 24.2567L9.88645 24.6177L12.0106 23.035L9.48384 22.2714C9.10436 22.5491 8.8267 22.7574 8.65085 22.8962C8.66935 23.3497 8.68323 23.8032 8.6925 24.2567ZM15.9395 21.6883C15.1528 22.0771 14.3614 22.4751 13.5655 22.8823L14.7455 23.4793C15.1435 23.6829 15.5415 23.8773 15.9395 24.0624L18.3135 22.8823L15.9395 21.6883ZM15.9395 21.0636C18.6791 21.0636 20.8125 21.2441 22.3396 21.6051C22.8302 21.7254 23.1448 21.6097 23.2837 21.258C23.3207 21.1747 23.3392 21.096 23.3392 21.022C23.3392 20.7443 23.1078 20.5314 22.645 20.3833C20.9791 19.828 18.7439 19.5503 15.9395 19.5503C13.1351 19.5503 10.8999 19.828 9.23394 20.3833C8.77117 20.5314 8.53978 20.7443 8.53978 21.022C8.53978 21.096 8.55829 21.1747 8.59532 21.258C8.73415 21.6097 9.04883 21.7254 9.53937 21.6051C11.0573 21.2441 13.1906 21.0636 15.9395 21.0636V21.0636ZM15.9395 26.1865C18.6791 26.1865 20.8125 26.367 22.3396 26.7279C22.8302 26.8482 23.1448 26.7326 23.2837 26.3808C23.3207 26.2975 23.3392 26.2189 23.3392 26.1448C23.3392 25.8672 23.1078 25.6497 22.645 25.4923C20.9883 24.9463 18.7531 24.6732 15.9395 24.6732C13.1166 24.6732 10.8814 24.9463 9.23394 25.4923C8.77117 25.6497 8.53978 25.8672 8.53978 26.1448C8.53978 26.2189 8.55829 26.2975 8.59532 26.3808C8.73415 26.7326 9.04883 26.8482 9.53937 26.7279C11.0573 26.367 13.1906 26.1865 15.9395 26.1865V26.1865ZM15.9395 28.9909C14.4494 28.9909 12.8852 28.8752 11.247 28.6438C8.68324 28.2736 7.40137 27.7183 7.40137 26.9778C7.40137 26.8297 7.48467 26.6724 7.65126 26.5058C7.71605 25.8949 7.74844 25.1499 7.74844 24.2706C7.74844 22.7157 7.66977 21.3644 7.51243 20.2167C7.4569 20.0594 7.39674 19.8974 7.33195 19.7308L7.15147 19.2172C6.64242 17.8288 6.06396 16.4868 5.41608 15.191C4.47203 15.191 4 14.719 4 13.775C4 12.8309 4.47203 12.3589 5.41608 12.3589C6.36013 12.3589 6.83216 12.8309 6.83216 13.775C6.83216 14.0434 6.77663 14.2562 6.66556 14.4136C6.96173 14.8486 7.41988 15.4918 8.03999 16.3433C8.10478 16.4266 8.22047 16.584 8.38707 16.8154C9.0442 17.7964 9.50697 18.2731 9.77538 18.2453C10.2659 18.1991 10.5112 17.3985 10.5112 15.8436C10.5112 15.0661 10.451 14.1035 10.3307 12.9559C9.52548 12.8355 9.12287 12.3681 9.12287 11.5537C9.12287 10.6189 9.5949 10.1515 10.539 10.1515C11.483 10.1515 11.955 10.6189 11.955 11.5537C11.955 12.0072 11.7838 12.3728 11.4414 12.6504C11.7005 14.2146 12.3391 15.8945 13.3572 17.69C13.5608 17.6622 13.7274 17.6484 13.857 17.6484C14.3013 17.0838 14.6622 15.9407 14.9399 14.2192C15.1435 12.9605 15.2638 11.748 15.3009 10.5818C15.3009 10.3412 15.3286 10.0497 15.3842 9.70721C14.8103 9.48508 14.5234 9.0547 14.5234 8.41608C14.5234 7.47203 14.9954 7 15.9395 7C16.8835 7 17.3556 7.47203 17.3556 8.41608C17.3556 9.0547 17.0687 9.48508 16.4948 9.70721C16.5503 10.1144 16.5781 10.406 16.5781 10.5818C16.6059 11.7573 16.7216 12.9697 16.9252 14.2192C17.2029 15.9407 17.5684 17.0838 18.022 17.6484C18.1423 17.6484 18.3089 17.6622 18.5218 17.69C19.5398 15.8667 20.1785 14.1868 20.4376 12.6504C20.0952 12.3728 19.9239 12.0072 19.9239 11.5537C19.9239 10.6189 20.396 10.1515 21.34 10.1515C22.2841 10.1515 22.7561 10.6189 22.7561 11.5537C22.7561 12.3681 22.3535 12.8355 21.5483 12.9559C21.428 14.1035 21.3678 15.0661 21.3678 15.8436C21.3678 17.3985 21.6131 18.1991 22.1036 18.2453C22.3628 18.2731 22.8255 17.7964 23.4919 16.8154C23.7511 16.4637 24.1305 15.9222 24.6303 15.191C24.7877 14.9319 24.982 14.6727 25.2134 14.4136C25.1024 14.2562 25.0468 14.0434 25.0468 13.775C25.0468 12.8309 25.5188 12.3589 26.4629 12.3589C27.407 12.3589 27.879 12.8309 27.879 13.775C27.879 14.719 27.407 15.191 26.4629 15.191C25.8335 16.422 25.2551 17.7641 24.7275 19.2172L24.3665 20.2167C24.2092 21.4199 24.1305 22.7712 24.1305 24.2706C24.1305 25.1499 24.1629 25.8949 24.2277 26.5058C24.3943 26.6539 24.4776 26.8112 24.4776 26.9778C24.4776 27.7183 23.1957 28.2736 20.632 28.6438C18.9938 28.8752 17.4296 28.9909 15.9395 28.9909ZM23.1865 24.2567C23.1865 23.8032 23.2004 23.3497 23.2281 22.8962C23.043 22.7574 22.7654 22.5491 22.3951 22.2714L19.8684 23.035L20.9235 23.8264C21.2752 24.0948 21.6316 24.3585 21.9925 24.6177C22.3813 24.5066 22.7792 24.3863 23.1865 24.2567Z" fill="black"/>
<path d="M8.69245 24.2567L9.8864 24.6177L12.0105 23.035L9.48379 22.2714C9.10432 22.5491 8.82665 22.7574 8.6508 22.8962C8.6693 23.3497 8.68318 23.8032 8.69245 24.2567ZM15.9394 21.6884C15.1527 22.0771 14.3614 22.4751 13.5654 22.8823L14.7455 23.4793C15.1435 23.6829 15.5415 23.8773 15.9394 24.0624L18.3135 22.8823L15.9394 21.6884ZM15.9394 21.0636C18.679 21.0636 20.8124 21.2441 22.3396 21.6051C22.8301 21.7254 23.1448 21.6097 23.2836 21.258C23.3206 21.1747 23.3391 21.096 23.3391 21.022C23.3391 20.7443 23.1078 20.5314 22.645 20.3833C20.979 19.828 18.7438 19.5504 15.9394 19.5504C13.135 19.5504 10.8999 19.828 9.23389 20.3833C8.77112 20.5314 8.53973 20.7443 8.53973 21.022C8.53973 21.096 8.55824 21.1747 8.59527 21.258C8.7341 21.6097 9.04878 21.7254 9.53932 21.6051C11.0572 21.2441 13.1906 21.0636 15.9394 21.0636ZM15.9394 26.1865C18.679 26.1865 20.8124 26.367 22.3396 26.7279C22.8301 26.8483 23.1448 26.7326 23.2836 26.3809C23.3206 26.2976 23.3391 26.2189 23.3391 26.1448C23.3391 25.8672 23.1078 25.6497 22.645 25.4923C20.9883 24.9463 18.7531 24.6732 15.9394 24.6732C13.1165 24.6732 10.8814 24.9463 9.23389 25.4923C8.77112 25.6497 8.53973 25.8672 8.53973 26.1448C8.53973 26.2189 8.55824 26.2976 8.59527 26.3809C8.7341 26.7326 9.04878 26.8483 9.53932 26.7279C11.0572 26.367 13.1906 26.1865 15.9394 26.1865ZM23.1864 24.2567C23.1864 23.8032 23.2003 23.3497 23.2281 22.8962C23.043 22.7574 22.7653 22.5491 22.3951 22.2714L19.8684 23.035L20.9235 23.8264C21.2752 24.0948 21.6315 24.3585 21.9925 24.6177C22.3812 24.5066 22.7792 24.3863 23.1864 24.2567Z" fill="#EEEEEE"/>
</svg>
