<svg width="32" height="32" viewBox="0 0 32 32" fill="none" xmlns="http://www.w3.org/2000/svg">
<path d="M15.9395 8.88811C16.2542 8.88811 16.4115 8.73076 16.4115 8.41608C16.4115 8.10139 16.2542 7.94405 15.9395 7.94405C15.6248 7.94405 15.4675 8.10139 15.4675 8.41608C15.4675 8.73076 15.6248 8.88811 15.9395 8.88811ZM15.9395 9.83216C14.9954 9.83216 14.5234 9.36013 14.5234 8.41608C14.5234 7.47203 14.9954 7 15.9395 7C16.8835 7 17.3556 7.47203 17.3556 8.41608C17.3556 9.36013 16.8835 9.83216 15.9395 9.83216ZM10.539 12.9697C9.5949 12.9697 9.12287 12.4977 9.12287 11.5537C9.12287 10.6189 9.5949 10.1515 10.539 10.1515C11.483 10.1515 11.955 10.6189 11.955 11.5537C11.955 12.4977 11.483 12.9697 10.539 12.9697ZM10.539 12.0257C10.8536 12.0257 11.011 11.8684 11.011 11.5537C11.011 11.239 10.8536 11.0816 10.539 11.0816C10.2243 11.0816 10.0669 11.239 10.0669 11.5537C10.0669 11.8684 10.2243 12.0257 10.539 12.0257ZM6.63779 15.5937C7.16535 16.6951 7.62812 17.8103 8.02611 18.9395C8.1927 18.8562 8.44723 18.7312 8.78968 18.5646C8.54904 18.287 8.3084 17.926 8.06776 17.4818C7.67903 16.9264 7.20237 16.2971 6.63779 15.5937ZM15.9395 19.7447C19.4103 19.7447 21.8954 20.1288 23.3947 20.897C23.4318 20.6286 23.4734 20.2214 23.5197 19.6753C23.4086 19.4902 23.0615 19.319 22.4784 19.1616C22.2933 19.2819 22.1129 19.3236 21.937 19.2866C21.7611 19.2588 21.5992 19.1477 21.4511 18.9534C20.6736 18.8053 19.7435 18.6896 18.6606 18.6063C18.568 18.6896 18.4708 18.7359 18.369 18.7451C18.2024 18.7544 18.0405 18.6942 17.8831 18.5646C17.2538 18.5369 16.6059 18.523 15.9395 18.523C15.2731 18.523 14.6252 18.5369 13.9959 18.5646C13.8385 18.6942 13.6812 18.7544 13.5238 18.7451C13.4035 18.7359 13.3017 18.6896 13.2184 18.6063C12.1263 18.6896 11.2007 18.8053 10.4418 18.9534C10.2844 19.1477 10.1178 19.2588 9.94198 19.2866C9.75687 19.3236 9.57639 19.2819 9.40054 19.1616C8.80819 19.319 8.46111 19.4902 8.3593 19.6753C8.36856 19.8789 8.41021 20.2862 8.48425 20.897C9.97437 20.1288 12.4595 19.7447 15.9395 19.7447ZM12.5937 17.7594C12.1494 17.0653 11.7051 16.1397 11.2609 14.9828C11.2239 16.2323 11.0989 17.2365 10.886 17.9954C11.4506 17.8936 12.0198 17.815 12.5937 17.7594ZM15.9395 17.5789C16.356 17.5789 16.7725 17.5836 17.189 17.5928C16.6707 16.5377 16.2542 15.043 15.9395 13.1086C15.6063 15.0522 15.1898 16.547 14.69 17.5928C15.1065 17.5836 15.523 17.5789 15.9395 17.5789ZM25.2412 15.5937C24.547 16.4359 24.0704 17.0653 23.8112 17.4818C23.6446 17.7502 23.404 18.1111 23.0893 18.5646C23.2559 18.6572 23.5104 18.7821 23.8529 18.9395C24.2323 17.8103 24.6951 16.6951 25.2412 15.5937ZM19.2853 17.7594C19.8406 17.8057 20.4145 17.8844 21.0068 17.9954C20.7754 17.2457 20.6459 16.2415 20.6181 14.9828C20.1646 16.1397 19.7203 17.0653 19.2853 17.7594ZM15.9395 28.977V28.0468C17.2908 28.0468 18.6976 27.982 20.16 27.8525C22.3998 27.6581 23.5197 27.3665 23.5197 26.9778C23.5197 26.5891 22.4044 26.2975 20.1738 26.1032C18.7022 25.9736 17.2908 25.9088 15.9395 25.9088C14.5789 25.9088 13.1675 25.9736 11.7051 26.1032C9.47458 26.2975 8.3593 26.5891 8.3593 26.9778C8.3593 27.3665 9.47921 27.6581 11.719 27.8525C13.1721 27.982 14.5789 28.0468 15.9395 28.0468V28.977C14.4401 28.977 12.8759 28.8613 11.247 28.6299C8.68324 28.269 7.40137 27.7183 7.40137 26.9778C7.40137 26.8297 7.48467 26.6724 7.65126 26.5058C7.71605 25.8949 7.74844 25.1499 7.74844 24.2706C7.74844 22.7157 7.66977 21.3644 7.51243 20.2167C7.4569 20.0594 7.39674 19.8974 7.33195 19.7308L7.15147 19.2172C6.64242 17.8288 6.06396 16.4868 5.41608 15.191C6.04545 15.191 6.48045 14.8949 6.72109 14.3025C7.20237 14.8856 7.79472 15.6816 8.49813 16.6904C9.00718 17.7826 9.43293 18.3009 9.77538 18.2453C10.0716 18.1991 10.2705 17.6854 10.3724 16.7043C10.4094 16.2786 10.4279 15.8065 10.4279 15.2882C10.4279 14.6033 10.3955 13.8259 10.3307 12.9559C10.414 12.9651 10.4834 12.9698 10.539 12.9698C10.8721 12.9698 11.1776 12.8587 11.4552 12.6366C12.1124 14.9319 12.7464 16.6164 13.3572 17.69C13.5608 17.6623 13.7274 17.6484 13.857 17.6484C14.4679 16.8709 14.9492 14.5154 15.3009 10.5819L15.3286 10.1376C15.3471 9.98951 15.3656 9.84605 15.3842 9.70721C15.56 9.79051 15.7451 9.83217 15.9395 9.83217C16.1246 9.83217 16.3097 9.79051 16.4948 9.70721L16.5781 10.5819C16.9113 14.5154 17.3926 16.8709 18.0219 17.6484C18.1423 17.6484 18.3089 17.6623 18.5217 17.69C19.1141 16.6256 19.7527 14.9458 20.4376 12.6504C20.6968 12.8633 20.9976 12.9698 21.34 12.9698C21.3863 12.9698 21.4557 12.9651 21.5483 12.9559C21.4742 13.8351 21.4372 14.6218 21.4372 15.316C21.4372 15.825 21.4557 16.2878 21.4927 16.7043C21.5945 17.6854 21.7982 18.1991 22.1036 18.2453C22.4368 18.3009 22.8625 17.7826 23.3808 16.6904C23.8158 16.0055 24.4082 15.2096 25.1579 14.3025C25.3893 14.8949 25.8243 15.191 26.4629 15.191C25.8335 16.422 25.2551 17.7641 24.7275 19.2172L24.3665 20.2167C24.2092 21.4199 24.1305 22.7712 24.1305 24.2706C24.1305 25.1129 24.1583 25.8579 24.2138 26.5058C24.3897 26.6539 24.4776 26.8112 24.4776 26.9778C24.4776 27.7183 23.1957 28.269 20.632 28.6299C19.003 28.8613 17.4389 28.977 15.9395 28.977H15.9395ZM23.2559 25.9366C23.2096 25.3905 23.1865 24.8352 23.1865 24.2706C23.1865 23.4376 23.2235 22.6 23.2975 21.7578C23.2883 21.369 22.1869 21.0775 19.9934 20.8831C18.5773 20.7536 17.226 20.6888 15.9395 20.6888C14.5882 20.6888 13.1814 20.7582 11.719 20.897C9.60878 21.1006 8.56292 21.3875 8.58143 21.7578C8.65548 22.9332 8.6925 23.7708 8.6925 24.2706C8.6925 24.7426 8.67399 25.298 8.63696 25.9366C10.2937 25.2887 12.7279 24.9648 15.9395 24.9648C19.1141 24.9648 21.5529 25.2887 23.2559 25.9366ZM21.34 12.9697C20.396 12.9697 19.9239 12.4977 19.9239 11.5537C19.9239 10.6189 20.396 10.1515 21.34 10.1515C22.2841 10.1515 22.7561 10.6189 22.7561 11.5537C22.7561 12.4977 22.2841 12.9697 21.34 12.9697ZM21.34 12.0257C21.6547 12.0257 21.8121 11.8684 21.8121 11.5537C21.8121 11.239 21.6547 11.0816 21.34 11.0816C21.0253 11.0816 20.868 11.239 20.868 11.5537C20.868 11.8684 21.0253 12.0257 21.34 12.0257ZM26.4629 15.191C25.5188 15.191 25.0468 14.719 25.0468 13.775C25.0468 12.8309 25.5188 12.3589 26.4629 12.3589C27.407 12.3589 27.879 12.8309 27.879 13.775C27.879 14.719 27.407 15.191 26.4629 15.191ZM26.4629 14.247C26.7776 14.247 26.9349 14.0897 26.9349 13.775C26.9349 13.4603 26.7776 13.3029 26.4629 13.3029C26.1482 13.3029 25.9909 13.4603 25.9909 13.775C25.9909 14.0897 26.1482 14.247 26.4629 14.247ZM5.41608 15.191C4.47203 15.191 4 14.719 4 13.775C4 12.8309 4.47203 12.3589 5.41608 12.3589C6.36013 12.3589 6.83216 12.8309 6.83216 13.775C6.83216 14.719 6.36013 15.191 5.41608 15.191ZM5.41608 14.247C5.73076 14.247 5.88811 14.0897 5.88811 13.775C5.88811 13.4603 5.73076 13.3029 5.41608 13.3029C5.10139 13.3029 4.94405 13.4603 4.94405 13.775C4.94405 14.0897 5.10139 14.247 5.41608 14.247Z" fill="black"/>
<path d="M15.9395 8.8881C16.2542 8.8881 16.4116 8.73076 16.4116 8.41607C16.4116 8.10139 16.2542 7.94405 15.9395 7.94405C15.6248 7.94405 15.4675 8.10139 15.4675 8.41607C15.4675 8.73076 15.6248 8.8881 15.9395 8.8881ZM10.539 12.0257C10.8537 12.0257 11.011 11.8683 11.011 11.5537C11.011 11.239 10.8537 11.0816 10.539 11.0816C10.2243 11.0816 10.067 11.239 10.067 11.5537C10.067 11.8683 10.2243 12.0257 10.539 12.0257ZM6.63783 15.5936C7.16539 16.695 7.62816 17.8103 8.02615 18.9395C8.19274 18.8562 8.44727 18.7312 8.78972 18.5646C8.54908 18.287 8.30844 17.926 8.0678 17.4818C7.67907 16.9264 7.20241 16.2971 6.63783 15.5936ZM15.9395 19.7447C19.4103 19.7447 21.8954 20.1288 23.3948 20.897C23.4318 20.6286 23.4734 20.2214 23.5197 19.6753C23.4087 19.4902 23.0616 19.319 22.4785 19.1616C22.2934 19.2819 22.1129 19.3236 21.937 19.2866C21.7612 19.2588 21.5992 19.1477 21.4511 18.9534C20.6737 18.8053 19.7435 18.6896 18.6606 18.6063C18.5681 18.6896 18.4709 18.7359 18.3691 18.7451C18.2025 18.7544 18.0405 18.6942 17.8832 18.5646C17.2538 18.5369 16.6059 18.523 15.9395 18.523C15.2731 18.523 14.6253 18.5369 13.9959 18.5646C13.8385 18.6942 13.6812 18.7544 13.5239 18.7451C13.4035 18.7359 13.3017 18.6896 13.2184 18.6063C12.1263 18.6896 11.2008 18.8053 10.4418 18.9534C10.2845 19.1477 10.1179 19.2588 9.94202 19.2866C9.75691 19.3236 9.57643 19.2819 9.40058 19.1616C8.80823 19.319 8.46115 19.4902 8.35934 19.6753C8.3686 19.8789 8.41025 20.2861 8.48429 20.897C9.97441 20.1288 12.4595 19.7447 15.9395 19.7447ZM12.5937 17.7594C12.1494 17.0653 11.7052 16.1397 11.2609 14.9828C11.2239 16.2323 11.0989 17.2365 10.8861 17.9954C11.4507 17.8936 12.0199 17.815 12.5937 17.7594ZM15.9395 17.5789C16.356 17.5789 16.7725 17.5836 17.189 17.5928C16.6707 16.5377 16.2542 15.043 15.9395 13.1086C15.6063 15.0522 15.1898 16.547 14.69 17.5928C15.1065 17.5836 15.523 17.5789 15.9395 17.5789ZM25.2412 15.5936C24.5471 16.4359 24.0704 17.0653 23.8113 17.4818C23.6447 17.7502 23.404 18.1111 23.0893 18.5646C23.2559 18.6572 23.5105 18.7821 23.8529 18.9395C24.2324 17.8103 24.6952 16.695 25.2412 15.5936ZM19.2854 17.7594C19.8407 17.8057 20.4145 17.8844 21.0069 17.9954C20.7755 17.2457 20.6459 16.2415 20.6181 14.9828C20.1646 16.1397 19.7204 17.0653 19.2854 17.7594ZM23.2559 25.9366C23.2097 25.3905 23.1865 24.8352 23.1865 24.2706C23.1865 23.4376 23.2235 22.6 23.2976 21.7578C23.2883 21.369 22.1869 21.0775 19.9934 20.8831C18.5773 20.7535 17.226 20.6888 15.9395 20.6888C14.5882 20.6888 13.1814 20.7582 11.7191 20.897C9.60882 21.1006 8.56296 21.3875 8.58147 21.7578C8.65551 22.9332 8.69254 23.7708 8.69254 24.2706C8.69254 24.7426 8.67403 25.298 8.637 25.9366C10.2937 25.2887 12.7279 24.9648 15.9395 24.9648C19.1141 24.9648 21.5529 25.2887 23.2559 25.9366ZM21.3401 12.0257C21.6548 12.0257 21.8121 11.8683 21.8121 11.5537C21.8121 11.239 21.6548 11.0816 21.3401 11.0816C21.0254 11.0816 20.868 11.239 20.868 11.5537C20.868 11.8683 21.0254 12.0257 21.3401 12.0257ZM26.4629 14.247C26.7776 14.247 26.935 14.0896 26.935 13.775C26.935 13.4603 26.7776 13.3029 26.4629 13.3029C26.1483 13.3029 25.9909 13.4603 25.9909 13.775C25.9909 14.0896 26.1483 14.247 26.4629 14.247ZM5.41612 14.247C5.7308 14.247 5.88814 14.0896 5.88814 13.775C5.88814 13.4603 5.7308 13.3029 5.41612 13.3029C5.10143 13.3029 4.94409 13.4603 4.94409 13.775C4.94409 14.0896 5.10143 14.247 5.41612 14.247Z" fill="white"/>
<path d="M15.9395 28.0468C17.2908 28.0468 18.6976 27.982 20.16 27.8525C22.3998 27.6581 23.5197 27.3665 23.5197 26.9778C23.5197 26.5891 22.4044 26.2975 20.1739 26.1032C18.7023 25.9736 17.2908 25.9088 15.9395 25.9088C14.579 25.9088 13.1675 25.9736 11.7052 26.1032C9.47462 26.2975 8.35934 26.5891 8.35934 26.9778C8.35934 27.3665 9.47925 27.6581 11.7191 27.8525C13.1722 27.982 14.579 28.0468 15.9395 28.0468Z" fill="white"/>
</svg>
