<svg width="32" height="32" viewBox="0 0 32 32" fill="none" xmlns="http://www.w3.org/2000/svg">
<path d="M9.56879 8.73415L10.3046 9.91421H21.3278L22.0636 8.73415H9.56879ZM17.4822 4L17.5932 5.65209H20.0783L20.2033 4H23.1743V8.73415L21.9803 10.6361V21.0485L23.1743 22.9505V25.7965H23.6324V28.6287H8V25.7965H8.45814V22.9505L9.65209 21.0485V10.6361L8.45814 8.73415V4H11.443L11.5541 5.65209H14.0392L14.1641 4H17.4822ZM9.42996 6.59614V7.79009H22.2024V6.59614H9.42996ZM9.18007 26.0186V27.2126H22.4523V26.0186H9.18007ZM9.42996 22.9505V24.1444H22.2024V22.9505H9.42996ZM10.61 20.5765V21.7565H21.0363V20.5765H10.61Z" fill="black"/>
<path d="M9.56878 8.73415L10.3046 9.91421H21.3278L22.0636 8.73415H9.56878ZM9.42995 6.59615V7.79009H22.2024V6.59615H9.42995ZM9.18005 26.0186V27.2126H22.4523V26.0186H9.18005ZM9.42995 22.9505V24.1444H22.2024V22.9505H9.42995ZM10.61 20.5765V21.7565H21.0362V20.5765H10.61Z" fill="#EEEEEE"/>
</svg>
