<svg width="32" height="32" viewBox="0 0 32 32" fill="none" xmlns="http://www.w3.org/2000/svg">
<path d="M10.61 10.6361V21.0485H21.0224V10.6361H10.61ZM9.42996 23.8945V25.7965H22.2024V23.8945H9.42996ZM10.1519 22.0064L9.56879 22.9505H22.0636L21.4805 22.0064H10.1519ZM8.95794 26.7406V27.6846H22.7022V26.7406H8.95794ZM17.7182 4L17.8293 5.65209H19.8423L19.9534 4H23.1743V8.73415L21.9803 10.6361V21.0485L23.1743 22.9505V25.7965H23.6324V28.6287H8V25.7965H8.45814V22.9505L9.65209 21.0485V10.6361L8.45814 8.73415V4H11.6651L11.7901 5.65209H13.8031L13.9142 4H17.7182ZM9.56879 8.73415L10.1519 9.66432H21.4805L22.0636 8.73415H9.56879ZM9.42996 7.79009H22.2024V4.94405H20.9113L20.7864 6.59614H16.8852L16.7603 4.94405H14.8721L14.7472 6.59614H10.846L10.7211 4.94405H9.42996V7.79009Z" fill="black"/>
<path d="M10.61 10.6361V21.0485H21.0224V10.6361H10.61ZM9.42997 23.8945V25.7965H22.2025V23.8945H9.42997ZM10.1519 22.0064L9.5688 22.9505H22.0636L21.4805 22.0064H10.1519ZM8.95795 26.7406V27.6846H22.7022V26.7406H8.95795ZM9.5688 8.73414L10.1519 9.66431H21.4805L22.0636 8.73414H9.5688ZM9.42997 7.79009H22.2025V4.94405H20.9113L20.7864 6.59614H16.8852L16.7603 4.94405H14.8722L14.7472 6.59614H10.8461L10.7211 4.94405H9.42997V7.79009Z" fill="white"/>
</svg>
