<svg width="180" height="180" viewBox="0 0 180 180" fill="none" xmlns="http://www.w3.org/2000/svg">
<path d="M66.5392 117.536H108.054C100.929 111.078 96.2657 102.441 94.0618 91.6273C91.9091 80.7615 90.5507 70.101 89.9871 59.6452H84.5286C83.9137 69.9986 82.53 80.6079 80.3773 91.4737C78.2246 102.339 73.6121 111.026 66.5392 117.536ZM113.513 122.994H61.0807C61.7467 129.606 64.566 135.192 69.5374 139.754C74.5599 144.315 80.4797 146.596 87.2966 146.596C94.0618 146.596 99.9304 144.315 104.902 139.754C109.924 135.192 112.795 129.606 113.513 122.994ZM118.74 156.744C118.74 153.31 116.997 151.593 113.513 151.593H61.1573C57.6208 151.593 55.8528 153.361 55.8528 156.898V159.511H118.74V156.744ZM87.2966 33.5834C84.375 33.5834 81.9146 34.6085 79.9161 36.6586C77.9169 38.6575 76.9179 41.092 76.9179 43.9621C76.9179 46.8835 77.9169 49.3437 79.9161 51.3425C81.9146 53.3414 84.375 54.3408 87.2966 54.3408C90.1153 54.3408 92.5498 53.3414 94.6001 51.3425C96.6499 49.3437 97.6753 46.8835 97.6753 43.9621C97.6753 41.092 96.6499 38.6575 94.6001 36.6586C92.5498 34.6085 90.1153 33.5834 87.2966 33.5834ZM99.2897 54.4177H118.74V59.6452H95.2149C95.8297 70.7164 97.7777 81.9917 101.058 93.4723C104.338 104.953 110.13 113.897 118.433 120.303C118.433 125.531 117.1 130.451 114.435 135.064C111.821 139.625 108.438 143.367 104.287 146.288L113.666 146.365C116.434 146.365 118.817 147.39 120.816 149.44C122.866 151.491 123.891 153.925 123.891 156.744V164.739H50.7019L50.625 156.898C50.625 153.977 51.65 151.491 53.7002 149.44C55.7503 147.39 58.2362 146.365 61.1573 146.365L70.4599 146.288C66.1033 143.316 62.5416 139.523 59.7735 134.911C57.006 130.246 55.6221 125.377 55.6221 120.303C63.8741 113.897 69.7168 104.953 73.1509 93.4723C76.5844 81.9917 78.6606 70.7164 79.3777 59.6452H55.8528V54.4177H75.5336C72.8173 51.4963 71.4594 48.0111 71.4594 43.9621C71.4594 39.6056 72.9968 35.8898 76.0719 32.8146C79.1471 29.6882 82.8889 28.125 87.2966 28.125C91.6014 28.125 95.3173 29.6882 98.4437 32.8146C101.57 35.8898 103.133 39.6056 103.133 43.9621C103.133 48.0111 101.852 51.4963 99.2897 54.4177Z" fill="#1C1124"/>
<path d="M66.5393 117.536H108.054C100.929 111.077 96.2657 102.441 94.0618 91.6273C91.9091 80.7615 90.5507 70.101 89.9871 59.6452H84.5286C83.9138 69.9986 82.53 80.6079 80.3773 91.4737C78.2246 102.339 73.6121 111.026 66.5393 117.536ZM113.512 122.994H61.0808C61.7468 129.606 64.566 135.192 69.5374 139.754C74.5599 144.315 80.4797 146.596 87.2966 146.596C94.0618 146.596 99.9304 144.315 104.902 139.754C109.924 135.192 112.795 129.606 113.512 122.994ZM118.74 156.744C118.74 153.31 116.997 151.593 113.512 151.593H61.1573C57.6208 151.593 55.8528 153.361 55.8528 156.898V159.511H118.74V156.744ZM87.2966 33.5834C84.375 33.5834 81.9146 34.6085 79.9161 36.6586C77.9169 38.6574 76.9179 41.0919 76.9179 43.9621C76.9179 46.8835 77.9169 49.3437 79.9161 51.3425C81.9146 53.3414 84.375 54.3408 87.2966 54.3408C90.1153 54.3408 92.5498 53.3414 94.6001 51.3425C96.6499 49.3437 97.6753 46.8835 97.6753 43.9621C97.6753 41.0919 96.6499 38.6574 94.6001 36.6586C92.5498 34.6085 90.1153 33.5834 87.2966 33.5834Z" fill="#FF9165"/>
</svg>
