<svg width="50" height="50" viewBox="0 0 50 50" fill="none" xmlns="http://www.w3.org/2000/svg">
<path fill-rule="evenodd" clip-rule="evenodd" d="M22.56 5.6V9.1517H18.867V13.8457H22.3616L21.7567 17.6175C14.8717 14.6323 9.12473 16.2249 6.71373 21.0763C4.54593 27.1562 8.38593 29.7407 12.48 33.3893V41.1518C15.9482 43.1647 22.137 43.366 25 43.4004C25.0176 43.4003 25.0228 43.4004 25.0327 43.4004H25.0503C27.9135 43.3661 34.1025 43.1647 37.5703 41.1518V33.3462C41.6456 29.7213 45.4465 27.132 43.2876 21.0762C40.877 16.2248 35.1298 14.6322 28.2446 17.6174L27.6371 13.8456H31.1346V9.1516H27.4416V5.5999L22.56 5.6Z" fill="#FFF5FD" stroke="#3A3A3A" stroke-width="1.2" stroke-linejoin="round"/>
<path fill-rule="evenodd" clip-rule="evenodd" d="M22.68 28.9479L14.2776 29.7307C14.2776 29.7307 7.2754 26.1369 10.4058 21.8048C13.5363 17.4723 23.3508 20.5765 22.6798 28.9479L22.68 28.9479Z" stroke="#3C8DAD" stroke-width="2" stroke-linejoin="round"/>
<path fill-rule="evenodd" clip-rule="evenodd" d="M27.31 28.9479L35.7124 29.7307C35.7124 29.7307 42.7147 26.1369 39.5842 21.8048C36.4537 17.4723 26.6392 20.5765 27.3102 28.9479L27.31 28.9479Z" stroke="#3C8DAD" stroke-width="2" stroke-linejoin="round"/>
<path fill-rule="evenodd" clip-rule="evenodd" d="M35.42 36.7827C32.8119 35.7886 29.3322 35.2867 24.996 35.2867C20.6231 35.2867 17.1075 35.798 14.442 36.8137L14.4419 39.7867C17.1228 38.8222 20.8479 38.3393 24.9959 38.3393C29.1217 38.3393 32.8262 38.8115 35.4199 39.7559L35.42 36.7827Z" fill="#3C8DAD"/>
<path opacity="0.15" fill-rule="evenodd" clip-rule="evenodd" d="M34.85 16.101C33.9658 16.0999 33.0373 16.1955 32.074 16.3882C34.7006 17.0095 36.7621 18.6255 37.9763 21.0705C40.1346 27.1275 36.3347 29.7176 32.2605 33.3435V40.6297C31.7174 41.7565 19.7765 42.4644 16.6615 42.6273C17.6776 42.6804 24.2966 43.3922 25.0004 43.4007C25.018 43.4006 25.0237 43.4007 25.0336 43.4007H25.0506C27.9129 43.3664 34.1001 43.1647 37.5676 41.1512V33.3435C41.6417 29.7176 45.4416 27.1275 43.2833 21.0705C41.7018 17.8859 38.684 16.1051 34.8506 16.101H34.85Z" fill="black"/>
<path opacity="0.15" fill-rule="evenodd" clip-rule="evenodd" d="M25 5.59V10.0813H27.6247V12.7961L27.6357 13.8379L28.2009 17.3488L27.6357 13.8379H31.1321V9.1427H27.7849L27.4402 5.59H25Z" fill="black"/>
</svg>
