<svg width="50" height="50" viewBox="0 0 50 50" fill="none" xmlns="http://www.w3.org/2000/svg">
<path fill-rule="evenodd" clip-rule="evenodd" d="M19.889 7.55296C19.0553 7.93981 20.7746 9.96943 20.2933 10.8513C20.1957 10.9694 20.0964 11.076 19.9967 11.178C18.9987 11.1942 15.5227 10.3801 15.5965 11.146C16.1254 12.0675 17.8987 12.8859 17.3882 14.2347C13.8884 19.3394 9.47323 23.9211 7.05597 30.4616C6.91752 32.5473 9.16658 33.8125 12.419 34.9066C14.9448 34.5304 16.1917 32.1396 18.6829 30.601C20.6551 29.3701 23.2092 29.461 25.666 28.2985C24.6199 35.3986 15.901 36.4991 15.1499 43.4484H42.8348C43.5738 25.4888 41.0911 14.0681 24.05 10.338C23.2444 8.94406 21.683 7.46565 19.8875 7.55283L19.889 7.55296Z" fill="#125D98" stroke="black" stroke-width="1.09996"/>
<path fill-rule="evenodd" clip-rule="evenodd" d="M13.7889 30.3886C14.1967 29.9776 14.4686 30.7997 14.1967 31.4847C13.2451 32.0327 12.1927 33.1746 11.4778 33.6768C10.9276 34.0634 10.2792 34.3352 13.7889 30.3885L13.7889 30.3886Z" fill="#E6E6E6"/>
<path fill-rule="evenodd" clip-rule="evenodd" d="M10.1697 27.5867C10.7134 27.1757 10.9853 27.8607 10.7134 28.5458C10.4416 28.9568 9.48988 29.5049 8.81021 29.6418C8.13044 29.9158 7.85853 29.6418 10.1696 27.5867L10.1697 27.5867Z" fill="#E6E6E6"/>
<path fill-rule="evenodd" clip-rule="evenodd" d="M24.3837 26.429C26.0673 25.5712 28.3123 24.2843 27.3021 22.3542C26.9663 21.8314 26.1567 20.633 25.2816 20.1024C26.5164 22.9977 25.9552 23.5338 23.7103 26.6435" fill="#E6E6E6"/>
<path fill-rule="evenodd" clip-rule="evenodd" d="M16.3379 21.154C17.0476 19.9234 18.005 18.6991 19.3444 18.0884C22.1141 16.938 19.9541 18.9532 19.3805 19.5146C19.8975 20.3206 19.4277 21.4059 18.3055 21.0714C18.1677 21.0357 18.5291 20.4744 18.4339 20.4761C17.8909 20.4862 17.4552 21.5755 16.824 21.7806C16.4252 22.0548 16.156 21.4652 16.3379 21.154L16.3379 21.154Z" fill="#E6E6E6"/>
<path fill-rule="evenodd" clip-rule="evenodd" d="M39.1523 42.8903C39.8555 29.8847 37.7445 16.8217 26.6146 15.4032C36.7979 18.6601 36.3708 29.0305 36.161 42.8903H39.1523Z" fill="#E6E6E6"/>
<path opacity="0.15" fill-rule="evenodd" clip-rule="evenodd" d="M28.9175 24.058C28.2479 25.4141 27.7502 32.5732 25.4322 30.9408C25.0722 30.5656 25.3971 30.0284 25.4235 29.5901C25.4909 29.2992 25.8613 28.3715 25.7214 28.3074C25.5197 28.2151 23.939 28.9204 23.3267 29.1299C14.2985 32.2205 19.4235 30.4589 28.9179 24.0581L28.9175 24.058Z" fill="black"/>
<path opacity="0.15" fill-rule="evenodd" clip-rule="evenodd" d="M19.889 7.55296C19.1364 7.9022 22.658 10.2464 22.5693 11.2203C38.7418 15.167 38.9198 25.8331 38.195 43.4492H42.836C43.575 25.4896 41.0923 14.0689 24.0512 10.3388C23.2456 8.94487 21.6842 7.46647 19.8887 7.55364L19.889 7.55296Z" fill="black"/>
</svg>
