<svg width="50" height="50" viewBox="0 0 50 50" fill="none" xmlns="http://www.w3.org/2000/svg">
<path fill-rule="evenodd" clip-rule="evenodd" d="M24.9915 43.3888H12.6567C10.2064 37.5836 16.1928 31.2055 20.7592 29.3779C15.3018 26.2604 17.7521 19.3078 22.4298 18.6628C21.3161 17.9103 20.7592 16.8353 20.7592 15.5452C20.7592 14.4702 21.2047 13.5027 21.9843 12.7502C22.764 11.9976 23.7663 11.5676 24.9915 11.5676C26.1052 11.5676 27.1076 11.9976 27.9986 12.7502C28.7782 13.5027 29.2237 14.4702 29.2237 15.5452C29.2237 16.8353 28.6668 17.9103 27.5531 18.6628C32.6763 20.7054 34.0128 27.2279 29.2237 29.3779C35.4607 31.6355 39.331 38.3358 37.3262 43.3888H24.9915Z" fill="#125D98" stroke="#141414" stroke-width="1.20003" stroke-linejoin="round"/>
<path opacity="0.15" fill-rule="evenodd" clip-rule="evenodd" d="M25.0018 11.567C24.0702 11.567 23.2678 11.8168 22.5938 12.267C25.9733 12.8553 28.6632 15.6551 24.9211 18.6624C30.0442 20.705 31.3807 27.2273 26.5918 29.3769C32.8287 31.6345 34.5849 38.3351 32.5803 43.3878H37.3364C39.341 38.3351 35.4712 31.6345 29.2344 29.3769C34.0233 27.2268 32.6863 20.7045 27.5632 18.6624C28.6768 17.9099 29.2344 16.8344 29.2344 15.5444C29.2344 14.4693 28.789 13.5017 28.0093 12.7492C27.1184 11.9966 26.1154 11.567 25.0018 11.567V11.567Z" fill="black"/>
</svg>
