<svg width="50" height="50" viewBox="0 0 50 50" fill="none" xmlns="http://www.w3.org/2000/svg">
<path fill-rule="evenodd" clip-rule="evenodd" d="M19.3145 7.61436C17.3103 7.61409 15.6851 9.28255 15.6851 11.3408C15.6851 12.8782 16.6077 14.2567 18.0039 14.8118L17.4391 24.9577L12.3406 18.7684C12.6323 18.2202 12.7851 17.6055 12.7851 16.9808C12.7851 14.9225 11.1604 13.2538 9.15625 13.2538C7.15178 13.2537 5.52685 14.9225 5.52713 16.9808C5.52713 19.0389 7.15206 20.7073 9.15625 20.7072L12.7812 32.3663L15.1305 36.1771V41.6736C15.1305 42.6028 20.0826 43.3592 24.999 43.3866C29.9158 43.359 34.8676 42.6028 34.8676 41.6736V36.1771L37.2165 32.3663L40.8418 20.7072C42.846 20.7073 44.4709 19.0389 44.4709 16.9808C44.4709 14.9224 42.8462 13.2537 40.8418 13.2538C38.8376 13.2539 37.2126 14.9225 37.2129 16.9808C37.2129 17.6055 37.3657 18.2202 37.6574 18.7684L32.5586 24.9577L31.9938 14.8118C33.39 14.2567 34.3109 12.8782 34.3126 11.3408C34.3126 9.28265 32.6877 7.61427 30.6835 7.61436C28.6793 7.61442 27.0546 9.28275 27.0546 11.3408C27.0546 12.2909 27.4113 13.2045 28.047 13.8947L24.9985 23.4659L21.95 13.8947C22.5857 13.2044 22.9407 12.2909 22.9424 11.3408C22.9424 9.28275 21.3177 7.61436 19.3135 7.61436H19.3145Z" fill="#FFF5FD" stroke="#3A3A3A" stroke-width="1.20003" stroke-linejoin="round"/>
<path fill-rule="evenodd" clip-rule="evenodd" d="M33.0175 37.979C31.0238 37.1178 28.3641 36.6831 25.0497 36.6831C21.7071 36.6831 19.0198 37.1261 16.9823 38.0056L16.9822 40.5805C19.0315 39.7452 21.8789 39.327 25.0496 39.327C28.2033 39.327 31.035 39.7359 33.0174 40.5539L33.0175 37.979Z" fill="#3C8DAD"/>
<path fill-rule="evenodd" clip-rule="evenodd" d="M25.002 29.3778C21.2822 29.4352 17.5571 30.1389 14.9969 31.3543L16.6245 33.8778C18.5456 32.9042 22.0968 32.4337 25.0019 32.434C27.9069 32.4337 31.4583 32.9042 33.3794 33.8778L35.0064 31.3543C32.4463 30.1388 28.7216 29.4345 25.0021 29.3778H25.002Z" fill="#3C8DAD"/>
<path opacity="0.15" fill-rule="evenodd" clip-rule="evenodd" d="M40.8425 13.2529C40.1169 13.2529 39.4424 13.4738 38.8754 13.8506C44.1996 14.912 42.4969 19.6913 39.1971 20.1645L33.2831 32.3653L30.9342 36.1759V41.6727C30.9342 42.4772 27.2203 43.1509 23.0323 43.3353C23.681 43.3639 24.3399 43.3815 24.9994 43.3852C29.9162 43.3577 34.8689 42.6019 34.8689 41.6727V36.1759L37.2178 32.3654L40.843 20.7063C42.8472 20.7064 44.4722 19.038 44.4722 16.9798C44.4722 14.9214 42.8475 13.2527 40.843 13.2528L40.8425 13.2529Z" fill="black"/>
</svg>
