<svg width="368" height="368" viewBox="0 0 368 368" fill="none" xmlns="http://www.w3.org/2000/svg">
<path d="M115 336H309C309 327.81 310.089 318.747 306.867 311C304.554 305.441 299.374 302.198 298.301 296C293.877 270.453 289.676 245.203 283.373 220C279.325 203.81 274.677 186.738 266.691 172C255.758 151.82 238.774 134.441 221 120.2C215.732 115.979 207.718 112.258 203.728 106.816C199.162 100.588 199.632 89.0719 189.996 87.4383C182.731 86.2065 181.484 95.9088 175 95.4537C167.601 94.9343 166.107 84.3537 157.001 88.01C149.794 90.9037 146.773 99.4788 141.946 105C132.533 115.767 120.76 125.996 112.966 138C109.319 143.617 109.247 150.297 106.034 156C96.3308 173.226 76.2943 184.561 72.6157 205C71.184 212.955 70.655 224.355 73.5633 232C78.6293 245.318 96.0595 255.04 110 251.756C119.159 249.599 126.545 241.514 134 236.155C140.947 231.162 148.62 228.15 156 223.996C164.172 219.396 171.417 213.862 178.996 208.383C182.14 206.11 185.616 204.092 187.282 209.035C188.867 213.734 185.872 219.075 183.546 223C177.342 233.471 168.554 242.445 160 251C149.983 261.018 138.752 270.859 131.232 283C128.079 288.092 127.356 293.797 124.697 299C122.098 304.084 117.509 307.268 115.928 313C113.938 320.218 115 328.575 115 336Z" fill="#112B3C"/>
<path d="M160 98C152.559 106.988 145.682 116.277 137.831 125C132.583 130.831 126.195 136.456 121.854 143C117.32 149.835 117.481 158.249 112.32 165C106.313 172.859 99.6329 180.316 93.389 188C89.7768 192.445 85.8273 196.491 84.0001 202C87.0809 202.002 91.0265 201.475 93.7678 203.179C96.8065 205.068 96.8069 208.932 93.7678 210.821C90.571 212.808 85.5981 212 82.0001 212C82.0001 221.04 81.6683 227.897 88.0001 235C92.7307 231.668 99.8555 220.649 105.998 220.961C108.516 221.09 111.017 223.65 113 225C107.859 230.141 102.193 235.048 98.0001 241C110.918 244.076 118.151 234.826 128 228.025C139.513 220.077 152.641 215.093 164 206.848C169.061 203.174 177.547 193.662 184 193.38C187.145 193.243 189.912 195.996 191.956 198.043C199.454 205.554 198.938 214.893 194.677 224C185.722 243.139 167.043 257.802 152.91 273C145.771 280.678 137.625 288.156 136 299H288C287.879 284.346 283.864 269.32 281 255C274.891 224.449 268.483 189.483 249.522 164C239.404 150.403 227.136 138.27 214 127.611C210.126 124.468 206.181 121.421 202 118.695C199.326 116.952 195.782 115.454 194.013 112.671C191.833 109.241 191.444 103.873 190 100C182.291 103.41 175.65 108.964 167.039 103.772C164.448 102.21 162.372 99.8543 160 98Z" fill="#C5C5C5"/>
<path d="M208 143C210.447 148.789 214.846 153.772 218.333 159C224.779 168.664 231.173 178.509 236.216 189C244.019 205.232 250.018 222.332 253.551 240C255.275 248.619 255.404 257.404 257 266H268C268 233.022 255.199 196.656 235.848 170C228.335 159.651 219.217 149.391 208 143ZM152 157H134C131.935 157.004 128.502 156.473 126.836 158.028C123.464 161.174 129.041 169.469 133.015 169.093C135.606 168.848 137.915 166.449 140 165.1C144.191 162.391 148.707 160.842 152 157Z" fill="#112B3C"/>
<path d="M125 326H299C298.986 320.829 298.948 315.086 294.775 311.318C291.771 308.604 287.764 309.002 284 309H263H159C152 309 144.999 308.955 138 309.001C134.177 309.026 130.351 309.163 127.703 312.344C124.589 316.085 125.003 321.453 125 326Z" fill="#C5C5C5"/>
</svg>
