<svg width="368" height="368" viewBox="0 0 368 368" fill="none" xmlns="http://www.w3.org/2000/svg">
<path d="M140 109C133.816 135.731 119.183 160.272 113 187C104.241 176.724 97.4948 164.242 89.9999 153C86.5779 147.867 80.954 141.913 79.1033 136C77.941 132.287 81.0333 129.329 82.1457 126C84.6474 118.514 82.3141 109.433 75.9567 104.638C61.632 93.834 44.4839 106.704 46.1048 123C46.6522 128.503 50.3465 133.17 55.0007 135.992C58.8931 138.351 62.3731 138.247 64.0964 143.019C68.749 155.904 71.5703 169.778 75.1511 183C80.9358 204.359 86.8253 225.711 92.8595 247C93.9706 250.92 96.811 256.756 95.3572 260.83C94.3196 263.738 91.2577 265.558 89.513 268.015C85.3337 273.898 86.6015 281.611 91.9999 286C88.1314 290.75 82.3335 295.259 80.0092 301C78.5065 304.712 78.9999 309.082 78.9999 313V336H290V314C290 310.056 290.45 305.757 289.005 302.004C286.753 296.152 280.636 291.009 276 287C280.683 281.595 283.051 274.44 278.487 268.015C276.368 265.032 272.522 262.947 272.322 258.961C272.11 254.757 274.284 249.99 275.421 246C277.695 238.023 279.712 229.973 282 222C286.863 205.056 291.614 188.043 296.116 171C298.599 161.597 300.405 150.992 304.249 142.059C306.093 137.774 310.511 137.781 313.996 135.347C320.407 130.87 323.307 123.656 321.945 116C319.204 100.588 298.148 95.4342 288.638 108.043C284.922 112.97 283.896 120.14 285.854 126C286.967 129.329 290.059 132.287 288.897 136C287.256 141.242 282.363 146.455 279.333 151C271.765 162.353 262.843 173.645 257 186C251.151 176.772 248.42 165.192 244.576 155C238.936 140.043 231.684 124.545 228 109C247.236 102.442 240.638 73.0803 221 73.0803C200.948 73.0803 194.358 102.322 214 109C207.803 124.976 201.624 140.966 195.576 157C192.28 165.74 187.587 174.777 186 184H182C180.413 174.777 175.72 165.74 172.424 157C166.376 140.966 160.197 124.976 154 109C173.642 102.322 167.052 73.0803 147 73.0803C127.362 73.0803 120.764 102.442 140 109Z" fill="#112B3C"/>
<path d="M145.015 83.6929C135.083 86.3886 138.553 102.812 148.996 100.384C160.089 97.8059 155.862 80.7491 145.015 83.6929ZM219.005 83.6157C208.156 86.1455 212.218 103.229 222.985 100.307C232.916 97.6117 229.446 81.1808 219.005 83.6157ZM61.0441 111.746C50.9953 115.696 57.7041 131.377 67.9561 127.257C78.0056 123.218 70.9753 107.843 61.0441 111.746ZM301.04 111.657C290.145 115.095 296.19 131.583 306.956 127.257C316.431 123.449 311.038 108.501 301.04 111.657ZM147 121C140.097 141.406 132.823 161.853 125.192 182C122.26 189.741 121.019 200.57 110.04 197.682C105.075 196.376 102.296 189.944 99.6668 186C92.7782 175.667 85.945 165.295 79.0001 155C78.5306 158.732 80.1631 162.393 81.1158 166C82.8805 172.681 84.6846 179.355 86.5788 186C92.9023 208.184 99.8468 230.521 105 253H263C270.54 220.109 280.786 187.468 290 155C281.415 162.867 275.454 175.318 269 185C266.386 188.921 263.519 195.549 258.907 197.397C248.426 201.596 246.285 189.043 243.681 182C236.199 161.762 229.741 140.72 221 121C215.578 128.247 213.125 139.51 209.95 148C204.439 162.734 195.668 178.504 193 194H175C172.332 178.504 163.561 162.734 158.05 148C154.875 139.51 152.422 128.247 147 121ZM106 262C105.927 264.997 105.956 268.083 103.567 270.277C101.597 272.086 97.6359 272.661 97.6359 275.999C97.6359 279.347 101.623 279.763 103.567 281.584C105.947 283.814 105.927 286.984 106 290H262C262.073 286.984 262.052 283.814 264.433 281.584C266.377 279.763 270.364 279.347 270.364 275.999C270.364 272.661 266.403 272.086 264.433 270.277C262.044 268.083 262.073 264.997 262 262H106Z" fill="#C5C5C5"/>
<path d="M180.094 267.858C169.575 272.5 177.192 288.871 187.906 284.142C198.425 279.5 190.808 263.129 180.094 267.858Z" fill="#112B3C"/>
<path d="M89 326H280C280 317.843 282.812 304.521 273.995 300.028C270.293 298.141 265.027 299 261 299H234H137H107C103.006 299 97.6774 298.116 94.0193 300.028C86.0598 304.188 89 318.542 89 326Z" fill="#C5C5C5"/>
</svg>
