<svg width="368" height="368" viewBox="0 0 368 368" fill="none" xmlns="http://www.w3.org/2000/svg">
<path d="M87 96V127C87 131.312 86.0441 137.03 88.0278 141C89.7386 144.424 93.0909 147.138 95.5756 150C102.03 157.434 108.775 164.615 115.285 172C118.016 175.097 121.932 178.027 123.397 182C125.77 188.439 124 198.186 124 205C124 221.469 125.369 238.598 123.941 255C123.347 261.83 116.447 266.39 112.039 271C105.669 277.662 99.6121 284.535 93 290.985C89.2206 294.672 84.6293 297.78 81.419 302.004C75.0196 310.424 78 325.981 78 336H290C290 326.034 293.007 310.362 286.581 302.015C283.37 297.843 278.738 294.69 275 290.996C268.43 284.505 262.331 277.663 255.961 271C251.553 266.39 244.653 261.83 244.059 255C242.631 238.598 244 221.469 244 205C244 198.186 242.23 188.439 244.603 182C246.068 178.027 249.984 175.097 252.715 172C259.225 164.615 265.97 157.434 272.424 150C274.909 147.138 278.261 144.424 279.972 141C281.956 137.03 281 131.312 281 127V96H230V115H208V96H161V115H138V96H87Z" fill="#112B3C"/>
<path d="M97 106V126C97 129.178 96.4839 132.964 97.6034 136C100.016 142.542 108.212 148.921 112.914 153.999C115.038 156.292 117.019 159.232 120.039 160.397C126.609 162.93 137.006 161 144 161H197H234C238.771 161 245.712 162.27 249.83 159.397C254.962 155.816 258.997 149.622 263.17 145C265.679 142.22 269.065 139.612 270.397 136C271.516 132.964 271 129.178 271 126V106H240V125H198V106H171V125H128V106H97ZM134 170V272H234V170H134ZM88 326H280C280 321.212 281.15 314.652 279.258 310.17C277.726 306.541 273.723 303.713 271 300.999C264.783 294.802 257.906 284.981 250 281.028C245.799 278.927 239.568 280 235 280H203H145C137.359 280 126.208 277.946 119 280.603C113.884 282.49 109.755 288.245 106 292C100.863 297.137 91.5947 303.413 88.7423 310.17C86.85 314.652 88 321.212 88 326Z" fill="#C5C5C5"/>
</svg>
