<svg width="50" height="50" viewBox="0 0 50 50" fill="none" xmlns="http://www.w3.org/2000/svg">
<path fill-rule="evenodd" clip-rule="evenodd" d="M26.87 8.22351C21.0732 5.92501 19.9175 10.7498 22.2015 14.083C12.3044 24.683 10.9485 30.508 16.0072 38.287H33.9962C40.0811 31.3745 36.5554 23.772 29.1741 15.987C26.2911 20.1059 25.9002 23.3376 25.2278 27.118L21.6073 27.0469C20.9485 21.0413 29.2295 11.9069 26.8693 8.22394L26.87 8.22351Z" fill="url(#paint0_linear_1_287)" stroke="#323232" stroke-width="1.6001" stroke-linejoin="round"/>
<path opacity="0.1" fill-rule="evenodd" clip-rule="evenodd" d="M24.933 7.65371C24.3079 7.67414 24.726 7.85053 24.1616 8.22151C24.1616 8.22366 24.1718 8.22689 24.1718 8.22904C27.7535 7.91801 21.8034 20.001 20.7779 27.123C21.3139 24.1091 22.1025 21.4425 23.8601 18.3982C25.8634 14.0465 28.0965 9.71684 26.8679 8.22924C26.4566 7.84842 25.7235 7.62794 24.9337 7.65367L24.933 7.65371ZM29.1721 15.9923C28.5727 16.8485 28.6564 16.6621 28.2012 17.4544C34.2052 23.5028 36.929 31.2414 31.2976 38.2924H33.9943C40.0792 31.3799 36.5532 23.7774 29.1721 15.9924V15.9923Z" fill="black"/>
<path fill-rule="evenodd" clip-rule="evenodd" d="M13.24 38.286C11.8032 38.286 10.613 39.5025 10.613 40.9707V41.5156L10.6255 44.2003H39.3745L39.3871 41.5156V40.9707C39.3871 39.5025 38.1968 38.286 36.7601 38.286H25.0001H13.24Z" fill="url(#paint1_linear_1_287)" stroke="#323232" stroke-width="1.6" stroke-linecap="round" stroke-linejoin="round"/>
<path fill-rule="evenodd" clip-rule="evenodd" d="M14.895 34.327C14.1793 32.9314 11.6288 27.5149 19.4085 18.588C17.3083 23.4487 13.4501 27.2776 14.895 34.327Z" fill="#F1FFDA"/>
<defs>
<linearGradient id="paint0_linear_1_287" x1="12.3828" y1="22.9486" x2="37.8578" y2="22.9486" gradientUnits="userSpaceOnUse">
<stop stop-color="#DADBBD"/>
<stop offset="1" stop-color="#6EBF8B"/>
</linearGradient>
<linearGradient id="paint1_linear_1_287" x1="9.80564" y1="41.2463" x2="40.1779" y2="41.2463" gradientUnits="userSpaceOnUse">
<stop stop-color="#DADBBD"/>
<stop offset="1" stop-color="#6EBF8B"/>
</linearGradient>
</defs>
</svg>
