<svg width="50" height="50" viewBox="0 0 50 50" fill="none" xmlns="http://www.w3.org/2000/svg">
<path fill-rule="evenodd" clip-rule="evenodd" d="M25 12.264C21.4394 12.2643 18.5528 14.919 18.5528 18.1948C18.5528 19.8985 19.3519 21.5201 20.7427 22.6449H19.0769C17.7645 22.6449 16.6778 23.6223 16.6778 24.802V25.2397C16.6778 26.4194 17.7645 27.3973 19.0769 27.3973H21.4531C21.4531 34.6899 12.1109 33.8536 12.7643 44.1763L24.9993 44.1683H24.9998L37.2348 44.1763C37.8881 33.8533 28.546 34.6899 28.546 27.3973H30.9222C32.2345 27.3973 33.3213 26.4194 33.3213 25.2397V24.802C33.3213 23.6223 32.2346 22.6449 30.9222 22.6449H29.2564C30.6472 21.52 31.4463 19.8985 31.4463 18.1948C31.4463 14.919 28.5601 12.2644 24.9996 12.264H25Z" fill="url(#paint0_linear_1_325)" stroke="#1E1E1E" stroke-width="1.6" stroke-linejoin="round"/>
<path opacity="0.2" fill-rule="evenodd" clip-rule="evenodd" d="M24.999 12.264C24.4777 12.264 23.9712 12.3223 23.4856 12.4299C29.7432 13.1221 31.1608 18.8958 28.4031 21.6524C26.3875 23.3429 20.7415 22.6454 20.7415 22.6454C23.3016 23.0877 25.7108 24.5988 27.9926 25.1326C21.9599 36.5676 37.6929 34.1589 37.2351 44.1756C38.2301 33.5836 29.5617 36.0281 28.546 27.3966H30.9225C32.2351 27.3966 33.3212 26.4192 33.3212 25.2396V24.8019C33.3212 23.6222 32.2351 22.6443 30.9225 22.6443H29.2564C30.6473 21.5195 31.447 19.8985 31.4467 18.195C31.4467 14.919 28.5599 12.2634 24.9991 12.2634L24.999 12.264Z" fill="black"/>
<path opacity="0.25" fill-rule="evenodd" clip-rule="evenodd" d="M22.959 13.401C21.1885 15.0032 19.9912 17.0134 19.4826 19.5904C19.4826 19.5904 18.3238 15.3556 22.959 13.401V13.401Z" fill="#FFF6F3"/>
<path opacity="0.25" fill-rule="evenodd" clip-rule="evenodd" d="M13.342 43.419C13.6154 38.0976 15.9145 37.2354 20.88 31.985C19.8491 35.5512 13.4934 37.8534 13.342 43.419V43.419Z" fill="#FFF6F3"/>
<defs>
<linearGradient id="paint0_linear_1_325" x1="12.5076" y1="28.22" x2="37.4959" y2="28.22" gradientUnits="userSpaceOnUse">
<stop stop-color="#D82148"/>
<stop offset="1" stop-color="#151D3B"/>
</linearGradient>
</defs>
</svg>
