<svg width="50" height="50" viewBox="0 0 50 50" fill="none" xmlns="http://www.w3.org/2000/svg">
<path fill-rule="evenodd" clip-rule="evenodd" d="M25 6.1218C22.3647 6.12202 20.2287 8.2197 20.2287 10.807C20.2307 12.662 21.3466 14.3413 23.0754 15.0897C22.7062 17.3763 21.5654 22.6481 18.3952 23.0987C16.0402 23.4333 14.5404 21.8117 13.5155 19.9549C14.6236 19.1635 15.28 17.9 15.2822 16.5547C15.2823 14.2277 13.361 12.3414 10.991 12.3414C8.6209 12.3413 6.6995 14.2278 6.6998 16.5547C6.7008 18.6974 8.3402 20.4978 10.5087 20.7384L15.4817 38.2784H34.5177L39.4913 20.7384C41.6596 20.4974 43.2983 18.697 43.2996 16.5547C43.2997 14.2277 41.3784 12.3414 39.0084 12.3414C36.6386 12.3416 34.7175 14.228 34.7178 16.5547C34.7198 17.8999 35.3761 19.1633 36.4839 19.9549C35.4589 21.8118 33.9591 23.4333 31.6042 23.0987C28.434 22.6482 27.2932 17.3764 26.924 15.0897C28.6528 14.3414 29.7691 12.6621 29.7707 10.807C29.7709 8.2199 27.6352 6.1224 25.0001 6.1218H25Z" fill="url(#paint0_linear_1_335)" stroke="#1E1E1E" stroke-width="1.6" stroke-linejoin="round"/>
<path opacity="0.2" fill-rule="evenodd" clip-rule="evenodd" d="M39.002 12.342C38.4655 12.343 37.9341 12.4439 37.4353 12.6378C42.1762 14.3163 41.3115 19.4429 38.0262 19.9539L30.4135 38.2799H34.6137L39.4849 20.7389C41.6533 20.4978 43.292 18.6975 43.2932 16.555C43.2934 14.228 41.3719 12.3415 39.0019 12.3416L39.002 12.342Z" fill="black"/>
<path fill-rule="evenodd" clip-rule="evenodd" d="M13.227 38.286C11.7902 38.286 10.6 39.5025 10.6 40.9707V41.5156L10.6125 44.2003H39.3615L39.374 41.5156V40.9707C39.374 39.5025 38.1837 38.286 36.747 38.286H24.987H13.227Z" fill="url(#paint1_linear_1_335)" stroke="#1E1E1E" stroke-width="1.6" stroke-linecap="round" stroke-linejoin="round"/>
<path opacity="0.25" fill-rule="evenodd" clip-rule="evenodd" d="M9.515 13.489C8.72074 14.6584 7.7885 16.156 7.9606 18.268C7.9606 18.268 6.3566 15.2584 9.515 13.489Z" fill="#FFF6F3"/>
<path opacity="0.25" fill-rule="evenodd" clip-rule="evenodd" d="M23.659 7.2299C22.8057 8.10392 21.2881 10.1643 21.5258 12.6043C21.3189 12.5197 19.7969 8.7115 23.659 7.2299V7.2299Z" fill="#FFF6F3"/>
<path opacity="0.25" fill-rule="evenodd" clip-rule="evenodd" d="M12.062 23.328L17.306 37.439L16.1367 37.4623L12.062 23.328Z" fill="#FFF6F3"/>
<defs>
<linearGradient id="paint0_linear_1_335" x1="5.90424" y1="22.1997" x2="44.1035" y2="22.1997" gradientUnits="userSpaceOnUse">
<stop stop-color="#D82148"/>
<stop offset="1" stop-color="#151D3B"/>
</linearGradient>
<linearGradient id="paint1_linear_1_335" x1="9.79564" y1="41.2463" x2="40.1679" y2="41.2463" gradientUnits="userSpaceOnUse">
<stop stop-color="#D82148"/>
<stop offset="1" stop-color="#151D3B"/>
</linearGradient>
</defs>
</svg>
