<svg width="256" height="256" viewBox="0 0 256 256" fill="none" xmlns="http://www.w3.org/2000/svg">
<path d="M210.954 71.0538C206.655 71.0538 202.531 72.7628 199.49 75.8024C196.451 78.842 194.743 82.9656 194.743 87.2659C194.756 89.6728 195.309 92.0487 196.364 94.2136C196.829 95.0789 197.372 95.8993 197.984 96.6685L171.028 126.634L176.864 79.9942C181.926 79.0234 186.225 75.7046 188.444 71.0537C189.514 68.8934 190.083 66.5175 190.111 64.1061C190.111 58.3153 187.022 52.9637 182.005 50.0667C176.99 47.1714 170.81 47.1714 165.794 50.0667C160.779 52.9636 157.688 58.3153 157.688 64.1061C157.702 66.5144 158.256 68.8888 159.311 71.0537C160.34 73.0961 161.793 74.895 163.57 76.3342L143.515 116.4L134.252 64.5233C137.644 63.0454 140.425 60.4449 142.126 57.1584C143.196 54.9982 143.766 52.6223 143.793 50.2108C143.793 44.4201 140.704 39.0685 135.688 36.1715C130.671 33.2762 124.493 33.2762 119.476 36.1715C114.461 39.0684 111.372 44.4201 111.372 50.2108C111.384 52.6192 111.938 54.9936 112.992 57.1584C114.633 60.4198 117.325 63.0298 120.635 64.5698L111.372 116.399L91.5012 76.5633C93.2815 75.1288 94.7346 73.3283 95.7626 71.2843V71.0517C96.8482 68.8945 97.4344 66.5203 97.4763 64.1041C97.4763 58.3134 94.3855 52.9617 89.3702 50.0648C84.3548 47.1694 78.175 47.1694 73.1597 50.0648C68.1427 52.9617 65.0536 58.3134 65.0536 64.1041C65.066 66.5125 65.6212 68.8868 66.6742 71.0517C68.9508 75.6141 73.2403 78.8398 78.254 79.7596L84.1361 126.634L57.0869 96.8992C57.6979 96.1455 58.2407 95.3406 58.7075 94.4908C59.8349 92.2483 60.4226 89.7747 60.4211 87.2657C60.4211 81.4733 57.3319 76.1217 52.3166 73.2263C47.2997 70.331 41.1214 70.331 36.1045 73.2263C31.0891 76.1217 28 81.4733 28 87.2657C28.0124 89.6725 28.5661 92.0484 29.6206 94.2133C30.9357 96.9721 33.0013 99.3045 35.5836 100.944C38.1641 102.583 41.154 103.461 44.2105 103.476H44.5347L74.5491 182.214H72.0011C69.4438 182.214 67.3689 184.289 67.3689 186.847V205.374H53.4737C50.9164 205.374 48.843 207.448 48.843 210.005V233.165C48.843 234.393 49.3299 235.57 50.1984 236.44C51.0684 237.308 52.2454 237.795 53.4737 237.795H201.692C202.92 237.795 204.097 237.308 204.967 236.44C205.836 235.57 206.323 234.393 206.323 233.165V210.005C206.323 208.777 205.836 207.599 204.967 206.729C204.097 205.861 202.92 205.374 201.692 205.374H187.797V186.847C187.797 185.618 187.308 184.44 186.44 183.571C185.571 182.703 184.393 182.214 183.164 182.214H180.616L210.631 103.476H210.955C214.004 103.451 216.985 102.569 219.556 100.931C222.129 99.2936 224.186 96.9658 225.499 94.2131C226.573 92.0048 227.128 89.5808 227.119 87.1258C227.083 82.8579 225.365 78.7779 222.34 75.7694C219.312 72.7608 215.223 71.0657 210.955 71.0534L210.954 71.0538ZM173.9 57.1586C176.382 57.3742 178.56 58.8971 179.615 61.1549C180.67 63.4113 180.44 66.0599 179.014 68.1025C177.587 70.1433 175.178 71.2692 172.696 71.0537C170.501 70.6396 168.631 69.216 167.648 67.2092C166.568 65.0505 166.689 62.4856 167.964 60.4367C169.239 58.3865 171.486 57.1462 173.9 57.1586ZM127.582 43.2634C129.968 43.2665 132.188 44.4948 133.458 46.517C134.726 48.5393 134.869 51.0702 133.835 53.2228C132.813 55.3893 130.749 56.8765 128.369 57.1588C127.79 57.2859 127.189 57.2859 126.609 57.1588C124.367 56.8424 122.425 55.4389 121.422 53.4074C120.307 51.2549 120.394 48.6774 121.652 46.6055C122.911 44.5336 125.158 43.2665 127.582 43.2634ZM75.0579 67.2092C74.0157 65.0567 74.1538 62.5182 75.4239 60.4911C76.694 58.4642 78.9194 57.2344 81.3107 57.2344C83.7035 57.2344 85.9274 58.4642 87.1975 60.4911C88.4676 62.518 88.6072 65.0566 87.5635 67.2092C86.7508 68.805 85.3582 70.0317 83.6725 70.638C83.1716 70.8458 82.6396 70.9699 82.0984 71.0071L81.2641 71.0536C79.9754 71.0521 78.7115 70.6923 77.615 70.0131C76.5202 69.3338 75.6348 68.363 75.0579 67.2092ZM38.0045 90.3674V90.3689C37.9925 90.3449 37.9806 90.3209 37.9688 90.2968C37.0485 88.4129 37.0264 86.2118 37.9146 84.3082C38.814 82.3821 40.5463 80.9725 42.6151 80.4839C44.6854 79.9954 46.8643 80.4824 48.5297 81.8052C50.1953 83.1265 51.1645 85.1379 51.1583 87.2656C51.1227 89.0971 50.3798 90.8433 49.0833 92.1381C47.7884 93.433 46.0422 94.1774 44.2109 94.2131C42.9051 94.2053 41.6272 93.8331 40.5215 93.1368C39.4241 92.4463 38.5399 91.4615 37.9688 90.2968C37.9653 90.2897 37.9615 90.2827 37.958 90.2756L37.9688 90.2968L38.0045 90.3674ZM197.057 228.533H58.1049V214.638H197.057V228.533ZM76.6332 205.375V191.48H178.529V205.375H76.6332ZM84.4602 182.217L57.2716 110.839L87.1463 143.633V143.631C88.5079 145.12 90.6775 145.556 92.5091 144.709C94.339 143.862 95.4122 141.929 95.1594 139.926L89.2773 92.6827L109.61 133.304H109.612C110.376 134.866 111.95 135.866 113.687 135.899H114.335C116.317 135.607 117.887 134.075 118.226 132.101L127.582 79.1125L136.845 132.053C137.185 134.027 138.754 135.56 140.736 135.851H141.477C143.222 135.845 144.815 134.86 145.6 133.303L165.932 92.6815L160.005 139.973C159.752 141.975 160.825 143.909 162.655 144.756C164.487 145.602 166.656 145.167 168.018 143.678L197.893 110.884L170.704 182.214L84.4602 182.217ZM217.159 90.3697C216.584 91.5235 215.699 92.4928 214.602 93.172C213.506 93.8513 212.242 94.2126 210.953 94.2142C209.857 94.3165 208.756 94.0731 207.803 93.5194C206.628 92.806 205.693 91.7577 205.117 90.5078C204.308 88.7662 204.176 86.7843 204.747 84.9497C205.195 83.5338 206.088 82.2978 207.295 81.4294C208.379 80.7098 209.65 80.3236 210.953 80.319C212.788 80.319 214.545 81.0525 215.833 82.3583C217.122 83.6641 217.832 85.432 217.808 87.2665C217.826 88.3365 217.604 89.3958 217.159 90.3697Z" fill="black"/>
<path d="M84.4602 182.217L57.2716 110.839L87.1463 143.633V143.631C88.5079 145.12 90.6775 145.556 92.5091 144.709C94.339 143.862 95.4122 141.929 95.1594 139.926L89.2773 92.6827L109.61 133.304H109.612C110.376 134.866 111.95 135.866 113.687 135.899H114.335C116.317 135.607 117.887 134.075 118.226 132.101L127.582 79.1125L136.845 132.053C137.185 134.027 138.754 135.56 140.736 135.851H141.477C143.222 135.845 144.815 134.86 145.6 133.303L165.932 92.6815L160.005 139.973C159.752 141.975 160.825 143.909 162.655 144.756C164.487 145.602 166.656 145.167 168.018 143.678L197.893 110.884L170.704 182.214L84.4602 182.217Z" fill="#DDFFBC"/>
<path d="M76.6332 205.375V191.48H178.529V205.375H76.6332Z" fill="#91C788"/>
<path d="M197.057 228.533H58.1049V214.638H197.057V228.533Z" fill="#DDFFBC"/>
<path d="M38.0045 90.3674V90.3689C37.9925 90.3449 37.9806 90.3209 37.9688 90.2968L37.958 90.2756C38.5287 91.4496 39.4173 92.4421 40.5215 93.1368C41.6272 93.8331 42.9051 94.2053 44.2109 94.2131C46.0422 94.1774 47.7884 93.433 49.0833 92.1381C50.3798 90.8433 51.1227 89.0971 51.1583 87.2656C51.1645 85.1379 50.1953 83.1265 48.5297 81.8052C46.8643 80.4824 44.6854 79.9954 42.6151 80.4839C40.5463 80.9725 38.814 82.3821 37.9146 84.3082C37.0264 86.2118 37.0485 88.4129 37.9688 90.2968L38.0045 90.3674Z" fill="#DDFFBC"/>
<path d="M75.0579 67.2092C74.0157 65.0567 74.1538 62.5182 75.4239 60.4911C76.694 58.4642 78.9194 57.2344 81.3107 57.2344C83.7035 57.2344 85.9274 58.4642 87.1975 60.4911C88.4676 62.518 88.6072 65.0566 87.5635 67.2092C86.7508 68.805 85.3582 70.0317 83.6725 70.638C83.1716 70.8458 82.6396 70.9699 82.0984 71.0071L81.2641 71.0536C79.9754 71.0521 78.7115 70.6923 77.615 70.0131C76.5202 69.3338 75.6348 68.363 75.0579 67.2092Z" fill="#DDFFBC"/>
<path d="M127.582 43.2634C129.968 43.2665 132.188 44.4948 133.458 46.517C134.726 48.5393 134.869 51.0702 133.835 53.2228C132.813 55.3893 130.749 56.8765 128.369 57.1588C127.79 57.2859 127.189 57.2859 126.609 57.1588C124.367 56.8424 122.425 55.4389 121.422 53.4074C120.307 51.2549 120.394 48.6774 121.652 46.6055C122.911 44.5336 125.158 43.2665 127.582 43.2634Z" fill="#DDFFBC"/>
<path d="M173.9 57.1586C176.382 57.3742 178.56 58.8971 179.615 61.1549C180.67 63.4113 180.44 66.0599 179.014 68.1025C177.587 70.1433 175.178 71.2692 172.696 71.0537C170.501 70.6396 168.631 69.216 167.648 67.2092C166.568 65.0505 166.689 62.4856 167.964 60.4367C169.239 58.3865 171.486 57.1462 173.9 57.1586Z" fill="#DDFFBC"/>
<path d="M217.159 90.3697C216.584 91.5235 215.699 92.4928 214.602 93.172C213.506 93.8513 212.242 94.2126 210.953 94.2142C209.857 94.3165 208.756 94.0731 207.803 93.5194C206.628 92.806 205.693 91.7577 205.117 90.5078C204.308 88.7662 204.176 86.7843 204.747 84.9497C205.195 83.5338 206.088 82.2978 207.295 81.4294C208.379 80.7098 209.65 80.3236 210.953 80.319C212.788 80.319 214.545 81.0525 215.833 82.3583C217.122 83.6641 217.832 85.432 217.808 87.2665C217.826 88.3365 217.604 89.3958 217.159 90.3697Z" fill="#DDFFBC"/>
</svg>
