<svg width="180" height="180" viewBox="0 0 180 180" fill="none" xmlns="http://www.w3.org/2000/svg">
<path d="M142.107 46.2653C138.296 50.315 134.514 54.3647 130.762 58.4145C127.01 62.4639 123.258 66.5139 119.506 70.5639L139.249 163.29H39.375L58.8493 71.8144L59.0282 47.1586C59.0282 38.8805 61.9757 31.7637 67.8718 25.8082C73.8276 19.8528 81.0039 16.875 89.4009 16.875C97.8576 16.875 104.885 20.0612 110.483 26.4336C110.245 32.5081 111.138 37.7192 113.163 42.0667C114.533 42.7813 118.404 43.5258 124.777 44.3C131.208 45.0742 136.985 45.7293 142.107 46.2653ZM129.243 50.9106C125.849 50.7914 121.739 50.3746 116.916 49.6599C112.151 48.8857 109.322 48.052 108.429 47.1586C105.987 41.084 104.766 35.2774 104.766 29.7388C100.478 25.2127 95.3567 22.9496 89.4009 22.9496C82.6712 22.9496 76.9241 25.3318 72.1597 30.0962C67.3954 34.8605 65.0132 40.548 65.0132 47.1586V65.6505H115.575C117.898 63.2087 120.161 60.7967 122.365 58.4145C124.628 55.9727 126.921 53.4714 129.243 50.9106ZM131.744 157.216L128.261 141.851H50.3629L46.9682 157.216H131.744ZM115.933 83.9632H62.5123L51.4348 135.776H127.01L115.933 83.9632ZM114.592 77.8888L113.253 71.8144H64.9237L63.6733 77.8888H114.592Z" fill="#092A35"/>
<path d="M129.243 50.9106C125.849 50.7914 121.739 50.3746 116.915 49.6599C112.151 48.8857 109.322 48.0519 108.429 47.1586C105.987 41.084 104.766 35.2774 104.766 29.7388C100.478 25.2126 95.3561 22.9496 89.401 22.9496C82.6712 22.9496 76.9241 25.3318 72.1598 30.0961C67.3954 34.8605 65.0132 40.548 65.0132 47.1586V65.6505H115.575C117.898 63.2087 120.161 60.7967 122.365 58.4145C124.628 55.9727 126.92 53.4714 129.243 50.9106ZM131.744 157.216L128.261 141.851H50.3627L46.9681 157.216H131.744ZM115.932 83.9632H62.5118L51.4347 135.776H127.01L115.932 83.9632ZM114.593 77.8888L113.253 71.8144H64.9238L63.6733 77.8888H114.593Z" fill="#FFDD5C"/>
</svg>
