<svg width="180" height="180" viewBox="0 0 180 180" fill="none" xmlns="http://www.w3.org/2000/svg">
<path d="M54.1359 138.851L56.4767 139.153L65.1594 131.602L53.4564 129.337C54.2617 132.408 54.4882 135.579 54.1359 138.851ZM130.319 154.782L129.186 146.854C120.126 144.035 107.668 142.626 91.8118 142.626C75.9566 142.626 63.4477 144.035 54.2869 146.854L53.1543 154.707C61.3592 151.233 74.3203 149.497 92.0385 149.497C109.153 149.497 121.913 151.258 130.319 154.782ZM129.186 138.851C128.935 135.579 129.136 132.458 129.79 129.488L118.163 131.602L126.77 139.153L129.186 138.851ZM52.8523 122.995C62.3154 120.579 75.3773 119.371 92.0385 119.371C100.042 119.371 107.341 119.648 113.934 120.201C120.579 120.705 126.191 121.535 130.772 122.693C130.671 121.686 130.772 120.705 131.074 119.748C131.426 118.741 131.753 117.71 132.055 116.653C122.24 113.985 108.8 112.651 91.7364 112.651C74.421 112.651 60.9311 113.985 51.2668 116.653C51.5688 117.71 51.896 118.767 52.2483 119.824C52.651 120.881 52.8523 121.938 52.8523 122.995ZM102.232 131.3L91.7364 126.166L81.3172 131.3L91.7364 136.434L102.232 131.3ZM37.4497 77.6177L41.7534 75.4279L54.8155 97.3237C56.0235 98.532 57.4076 99.1361 58.968 99.1361C62.4414 99.1361 64.1779 97.3744 64.1779 93.8509C64.1779 93.3975 64.1526 93.0707 64.1025 92.8693L61.1578 65.4615L66.3671 64.5553L76.032 90.4528C77.1896 92.1139 78.6994 92.9447 80.5618 92.9447C83.7332 92.9447 85.4696 91.4096 85.7717 88.3389L89.1692 56.5521H94.3037L97.6258 88.3389C97.9779 91.4096 99.7149 92.9447 102.836 92.9447C104.698 92.9447 106.183 92.1139 107.29 90.4528L117.106 64.5553L122.164 65.6122L119.144 92.7934C119.144 92.9947 119.119 93.1961 119.069 93.3975C119.069 93.5488 119.069 93.6996 119.069 93.8509C119.069 97.3744 120.831 99.1361 124.354 99.1361C125.864 99.1361 127.273 98.532 128.582 97.3237L141.795 75.3525L146.552 77.5417C140.763 89.6726 137.869 102.534 137.869 116.124C137.869 116.879 137.869 117.71 137.869 118.615C137.869 119.522 137.793 120.679 137.643 122.089C135.881 127.827 135 133.062 135 137.793C135 143.683 136.107 149.446 138.322 155.084C135.805 157.198 130.243 158.96 121.636 160.369C113.028 161.778 103.112 162.483 91.8877 162.483C80.4611 162.483 70.3941 161.754 61.686 160.293C53.0285 158.784 47.567 156.896 45.3019 154.631C47.416 149.345 48.473 143.733 48.473 137.793C48.473 133.062 47.6677 127.827 46.0569 122.089C46.0066 120.679 45.9814 119.522 45.9814 118.615C46.0317 117.71 46.0569 116.879 46.0569 116.124C46.0569 102.684 43.1878 89.8492 37.4496 77.6177H37.4497ZM91.7364 56.4007C88.5656 56.4007 85.8724 55.3188 83.6578 53.1543C81.4933 50.9396 80.4111 48.2466 80.4111 45.0755C80.4111 42.005 81.4933 39.3624 83.6578 37.1477C85.8724 34.8825 88.5656 33.75 91.7364 33.75C94.8572 33.75 97.5251 34.8825 99.7397 37.1477C101.955 39.3624 103.062 42.005 103.062 45.0755C103.062 48.2466 101.955 50.9396 99.7397 53.1543C97.5251 55.3188 94.8572 56.4007 91.7364 56.4007ZM61.5352 64.8574C58.4145 64.8574 55.7466 63.7751 53.5319 61.6106C51.3171 59.3961 50.2097 56.7028 50.2097 53.5319C50.2097 50.4614 51.3171 47.8188 53.5319 45.604C55.7466 43.3389 58.4145 42.2064 61.5352 42.2064C64.656 42.2064 67.3239 43.3389 69.5385 45.604C71.7536 47.8188 72.8606 50.4614 72.8606 53.5319C72.8606 56.7028 71.7536 59.3961 69.5385 61.6106C67.3239 63.7751 64.656 64.8574 61.5352 64.8574ZM121.938 64.8574C118.767 64.8574 116.074 63.7751 113.859 61.6106C111.695 59.3961 110.612 56.7028 110.612 53.5319C110.612 50.4614 111.695 47.8188 113.859 45.604C116.074 43.3389 118.767 42.2064 121.938 42.2064C125.059 42.2064 127.726 43.3389 129.941 45.604C132.156 47.8188 133.264 50.4614 133.264 53.5319C133.264 56.7028 132.156 59.3961 129.941 61.6106C127.726 63.7751 125.059 64.8574 121.938 64.8574ZM33.8255 77.8438C30.6544 77.8438 27.9614 76.7368 25.7466 74.5217C23.5822 72.3071 22.5 69.6392 22.5 66.5184C22.5 63.3977 23.5822 60.7298 25.7466 58.5152C27.9614 56.3001 30.6544 55.193 33.8255 55.193C36.896 55.193 39.5386 56.3001 41.7534 58.5152C44.0184 60.7298 45.151 63.3977 45.151 66.5184C45.151 69.6392 44.0184 72.3071 41.7534 74.5217C39.5386 76.7368 36.896 77.8438 33.8255 77.8438ZM149.799 77.8438C146.627 77.8438 143.935 76.7368 141.72 74.5217C139.555 72.3071 138.473 69.6392 138.473 66.5184C138.473 63.3977 139.555 60.7298 141.72 58.5152C143.935 56.25 146.627 55.1175 149.799 55.1175C152.92 55.1175 155.587 56.25 157.802 58.5152C160.017 60.7298 161.124 63.3977 161.124 66.5184C161.124 69.6392 160.017 72.3071 157.802 74.5217C155.587 76.7368 152.92 77.8438 149.799 77.8438Z" fill="#272121"/>
<path fill-rule="evenodd" clip-rule="evenodd" d="M56.4761 139.153L54.1358 138.851C54.4882 135.579 54.2616 132.408 53.4563 129.337L65.1595 131.602L56.4761 139.153ZM129.79 129.488C129.136 132.458 128.935 135.579 129.186 138.851L126.77 139.153L118.163 131.602L129.79 129.488ZM92.0385 119.371C75.3773 119.371 62.3155 120.579 52.8522 122.995C52.8522 121.938 52.6509 120.881 52.2482 119.824C51.8959 118.767 51.5687 117.71 51.2667 116.653C60.9311 113.985 74.421 112.651 91.7365 112.651C108.8 112.651 122.24 113.985 132.055 116.653C131.753 117.71 131.426 118.741 131.074 119.748C130.772 120.705 130.671 121.686 130.772 122.693C126.191 121.535 120.579 120.705 113.934 120.201C107.341 119.648 100.042 119.371 92.0385 119.371ZM91.7365 126.166L102.232 131.3L91.7365 136.434L81.3173 131.3L91.7365 126.166Z" fill="#DB6633"/>
<path d="M130.319 154.782L129.186 146.854C120.126 144.035 107.668 142.626 91.8118 142.626C75.956 142.626 63.4477 144.035 54.2868 146.854L53.1542 154.707C61.3591 151.233 74.3203 149.497 92.0385 149.497C109.153 149.497 121.913 151.258 130.319 154.782Z" fill="#DB6633"/>
</svg>
