<svg width="180" height="180" viewBox="0 0 180 180" fill="none" xmlns="http://www.w3.org/2000/svg">
<path d="M126.883 131.602L131.942 136.661V141.796H137.076V162.559H39.375V141.796H44.4337V136.661L49.568 131.602H54.7022V64.4799H44.4337V33.75H62.4791V45.302H78.0328V33.75H98.4184V45.302H113.972V33.75H131.942V64.4799H121.749V131.602H126.883ZM124.316 136.661H52.1351L49.568 139.379V141.796H126.883V139.379L124.316 136.661ZM101.061 64.4799V77.391H116.691V64.4799H101.061ZM80.4488 64.4799V77.391H96.0024V64.4799H80.4488ZM59.7611 64.4799V77.391H75.3148V64.4799H59.7611ZM90.8685 82.5249V95.436H106.195V82.5249H90.8685ZM70.2557 82.5249V95.436H85.5073V82.5249H70.2557ZM111.329 82.5249V95.436H116.691V82.5249H111.329ZM59.7611 82.5249V95.436H65.1217V82.5249H59.7611ZM111.329 118.616V131.602H116.691V118.616H111.329ZM90.8685 118.616V131.602H106.195V118.616H90.8685ZM70.2557 118.616V131.602H85.5073V118.616H70.2557ZM101.061 100.57V113.482H116.691V100.57H101.061ZM80.4488 100.57V113.482H96.0024V100.57H80.4488ZM59.7611 100.57V113.482H75.3148V100.57H59.7611ZM59.7611 118.616V131.602H65.1217V118.616H59.7611ZM44.4337 147.232V157.425H131.942V147.232H44.4337ZM88.2259 59.3454H126.883V38.8087L119.107 38.8843V50.4363H93.2844V38.8087H83.0914V50.4363H57.3446V38.8843L49.568 38.8087V59.3454H88.2259Z" fill="#272121"/>
<path d="M124.316 136.661H52.1349L49.5678 139.379V141.796H126.883V139.379L124.316 136.661ZM101.061 64.48V77.391H116.69V64.48H101.061ZM80.4488 64.48V77.391H96.0025V64.48H80.4488ZM59.7606 64.48V77.391H75.3143V64.48H59.7606ZM90.868 82.5255V95.4366H106.196V82.5255H90.868ZM70.2557 82.5255V95.4366H85.5073V82.5255H70.2557ZM111.329 82.5255V95.4366H116.69V82.5255H111.329ZM59.7606 82.5255V95.4366H65.1212V82.5255H59.7606ZM111.329 118.616V131.603H116.69V118.616H111.329ZM90.868 118.616V131.603H106.196V118.616H90.868ZM70.2557 118.616V131.603H85.5073V118.616H70.2557ZM101.061 100.571V113.482H116.69V100.571H101.061ZM80.4488 100.571V113.482H96.0025V100.571H80.4488ZM59.7606 100.571V113.482H75.3143V100.571H59.7606ZM59.7606 118.616V131.603H65.1212V118.616H59.7606ZM44.4335 147.232V157.425H131.942V147.232H44.4335ZM88.2253 59.346H126.883V38.8089L119.107 38.8844V50.4364H93.2845V38.8089H83.0914V50.4364H57.3447V38.8844L49.5678 38.8089V59.346H88.2253Z" fill="#D8BFAD"/>
</svg>
