<svg width="180" height="180" viewBox="0 0 180 180" fill="none" xmlns="http://www.w3.org/2000/svg">
<path d="M140.164 73.8765C139.528 77.7988 139.952 81.774 141.436 85.8021C142.019 87.5509 142.761 89.2474 143.662 90.8904C144.563 92.4801 145.543 93.249 146.604 93.1956C145.543 90.8634 144.987 88.9554 144.934 87.4716C144.881 85.9877 144.802 84.4504 144.696 82.8602C144.431 78.7264 144.961 75.9966 146.285 74.6719C147.558 73.3995 147.77 72.2334 146.922 71.1737C145.703 69.6892 144.007 69.6099 141.834 70.9352C140.986 71.4122 140.429 72.3926 140.164 73.8765ZM128.159 52.1724C128.636 55.1405 130.412 57.9763 133.486 60.6791C136.348 63.2762 139.21 64.8135 142.072 65.2905C139.634 63.9124 137.567 61.8187 135.871 59.0096C133.804 55.9355 133.247 53.1794 134.201 50.7413C134.89 49.2043 134.652 48.0117 133.486 47.1637C131.896 46.2097 130.359 46.6602 128.874 48.5153C128.185 49.4693 127.947 50.6883 128.159 52.1724ZM110.032 41.2805C111.994 43.6656 114.882 45.2027 118.698 45.8917C121.931 46.5277 124.476 46.3422 126.331 45.3351C125.058 45.4412 122.806 44.6726 119.573 43.0296C116.287 41.4395 114.326 39.2399 113.69 36.4309C113.318 34.5758 112.471 33.6482 111.145 33.6482C109.397 33.6482 108.522 34.9468 108.522 37.5439C108.522 38.8689 109.025 40.1145 110.032 41.2805ZM86.7381 35.3178C88.3811 36.4839 91.3494 37.2789 95.6424 37.7029C98.2395 37.9679 100.677 37.2524 102.957 35.5564C100.943 36.0334 98.7429 35.9273 96.3579 35.2383C92.754 34.3373 90.4747 32.7207 89.5207 30.3887C88.7788 28.7986 87.7984 28.1096 86.5794 28.3216C84.8301 28.6396 84.1939 29.9382 84.6709 32.2172C84.7772 33.4893 85.4662 34.5228 86.7381 35.3178ZM65.2725 36.0334C68.0816 37.4114 71.2614 37.7824 74.8125 37.1464C76.509 36.8284 77.5952 36.4044 78.0722 35.8743C78.6026 35.2913 79.2917 34.5758 80.1394 33.7278C78.8147 34.3108 77.0124 34.4698 74.7332 34.2048C71.0764 33.8338 68.5586 32.6413 67.1805 30.6272C66.2265 29.1961 65.1397 28.6926 63.9208 29.1166C62.2777 29.6996 61.8536 31.1042 62.649 33.3303C63.0197 34.4433 63.8944 35.3443 65.2725 36.0334ZM124.581 108.222L126.887 103.292L131.101 105.439C134.175 99.5029 135.712 93.2754 135.712 86.7561C135.712 74.4598 130.65 63.9124 120.527 55.114C110.456 46.3157 98.3458 41.9165 84.1939 41.9165C78.6291 41.9165 73.0901 42.7116 67.5782 44.3016L71.3149 52.4904L66.465 54.8755L62.4898 46.1302C60.8996 46.7662 59.0979 47.6142 57.0836 48.6742C54.9636 49.8403 52.764 50.4233 50.4849 50.4233C46.7218 50.4233 43.5152 49.1248 40.8651 46.5277C38.215 43.8776 36.89 40.671 36.89 36.9079C36.89 33.1977 38.215 30.0176 40.8651 27.3675C43.5152 24.6644 46.7218 23.3129 50.4849 23.3129C53.5591 23.3129 56.3417 24.2935 58.833 26.2545C61.2709 24.6644 64.08 23.5779 67.2598 22.9949C72.2424 22.1998 76.509 22.7564 80.0601 24.6644C83.3462 22.9154 87.1886 22.2264 91.5879 22.5974C96.8878 23.1274 100.996 24.85 103.911 27.7651C107.356 27.0231 111.093 27.3675 115.121 28.7986C120.262 30.7597 123.866 33.6748 125.933 37.5439C129.802 37.9149 133.565 39.8495 137.222 43.3476C140.614 46.8457 142.629 50.6089 143.265 54.637C147.081 56.6511 149.89 60.1757 151.692 65.2106C153.547 70.3519 153.627 74.9897 151.93 79.1241C153.52 89.3531 152.142 99.4236 147.796 109.335C148.644 109.229 149.227 109.176 149.545 109.176C152.513 109.176 155.031 110.236 157.098 112.356C159.218 114.423 160.278 116.941 160.278 119.909C160.278 120.81 160.172 121.684 159.96 122.532C158.953 126.984 156.992 130.642 154.077 133.504C151.162 136.366 147.849 137.797 144.139 137.797C139.634 137.797 135.791 135.809 132.611 131.834C129.431 127.859 127.841 123.063 127.841 117.444C127.841 114.9 128.185 112.515 128.874 110.289L124.581 108.222ZM149.545 116.172C145.994 116.172 144.219 117.948 144.219 121.499C144.219 125.103 145.994 126.905 149.545 126.905C153.15 126.905 154.951 125.103 154.951 121.499C154.951 117.948 153.15 116.172 149.545 116.172ZM48.3384 29.4346C43.5682 32.0847 42.5612 35.7684 45.3172 40.4855C48.0734 45.3086 51.81 46.3157 56.5273 43.5066C57.7991 42.7646 58.7531 41.8106 59.3893 40.6445C55.4671 41.0685 52.4195 40.4325 50.2464 38.7364C47.4904 35.6623 46.8543 32.5617 48.3384 29.4346ZM141.198 110.607C142.311 107.427 141.913 105.439 140.005 104.644C138.203 104.061 136.639 105.28 135.314 108.301C135.155 108.619 135.049 108.884 134.996 109.096C134.943 109.308 134.837 109.573 134.678 109.891C133.724 112.223 133.247 114.741 133.247 117.444C133.247 121.578 134.308 125.103 136.428 128.018C138.601 130.933 141.224 132.391 144.298 132.391C146.047 132.391 147.77 131.808 149.466 130.642C146.551 130.642 144.033 129.608 141.913 127.541C139.846 125.474 138.813 122.93 138.813 119.909C138.813 119.432 138.892 118.902 139.051 118.318C139.21 117.047 139.448 115.774 139.767 114.502C140.084 113.071 140.561 111.773 141.198 110.607ZM42.6142 94.3881L49.4514 86.7561L46.0328 82.9401L35.777 94.3881L45.9533 105.757L49.4514 101.941L42.6142 94.3881ZM58.1169 122.373L69.804 108.54C71.9769 109.759 74.4154 110.368 77.1182 110.368C81.5704 110.368 85.3864 108.805 88.5667 105.677C91.8 102.498 93.4166 98.6552 93.4166 94.1496C93.4166 89.6979 91.8 85.8814 88.5667 82.7016C85.3864 79.5212 81.5704 77.931 77.1182 77.931C74.3091 77.931 71.6062 78.6471 69.0092 80.0781L55.4141 64.0181C58.4882 60.5199 62.1984 57.5257 66.5443 55.0345C76.8797 49.0983 87.6921 47.4553 98.9814 50.1053C110.324 52.7554 118.804 58.9303 124.422 68.6295C129.988 78.3287 131.101 88.7704 127.762 99.9534C124.422 111.137 117.585 119.67 107.25 125.553C107.25 125.553 106.985 125.713 106.455 126.03C103.54 128.362 102.082 130.933 102.082 133.742C102.082 138.3 105.58 142.063 112.576 145.032C118.407 147.311 122.568 150.517 125.058 154.651C123.574 155.341 121.879 155.976 119.971 156.559C119.387 156.772 118.884 156.904 118.46 156.957C107.7 159.872 98.6901 159.13 91.4287 154.731C86.9766 156.851 82.5778 158.441 78.2314 159.501C71.6062 161.303 65.2196 162.178 59.0715 162.125C52.923 162.071 47.5168 162.045 42.8527 162.045C45.8208 158.07 49.9285 154.545 55.1756 151.471C57.7727 149.934 60.5818 148.662 63.603 147.655C69.7511 144.899 72.8252 141.348 72.8252 137.002C72.8252 132.973 70.1752 129.608 64.8748 126.905C62.5427 125.686 60.2904 124.175 58.1169 122.373ZM48.7359 125.076L22.5 94.7857L48.8154 64.1773L68.1345 86.8354C70.4137 83.9734 73.4085 82.5424 77.1182 82.5424C80.2986 82.5424 83.0278 83.682 85.3071 85.9612C87.5863 88.2399 88.7259 90.9697 88.7259 94.1496C88.7259 97.3299 87.5863 100.06 85.3071 102.338C83.0278 104.618 80.2986 105.757 77.1182 105.757C73.8855 105.757 71.0764 104.512 68.6908 102.021L48.7359 125.076ZM77.1182 88.0279C73.0372 88.0279 70.9965 90.0686 70.9965 94.1496C70.9965 98.2311 73.0372 100.271 77.1182 100.271C81.1997 100.271 83.2399 98.2311 83.2399 94.1496C83.2399 90.0686 81.1997 88.0279 77.1182 88.0279Z" fill="url(#paint0_linear_301_15)" stroke="#FF7D05" stroke-width="2"/>
<g filter="url(#filter0_f_301_15)">
<path d="M140.164 73.8765C139.528 77.7988 139.952 81.774 141.436 85.8021C142.019 87.5509 142.761 89.2474 143.662 90.8899C144.563 92.4801 145.544 93.249 146.603 93.1956C145.544 90.8634 144.987 88.9554 144.934 87.4716C144.881 85.9877 144.802 84.4504 144.695 82.8602C144.43 78.7264 144.96 75.9966 146.285 74.6719C147.557 73.3995 147.769 72.2334 146.922 71.1737C145.702 69.6893 144.006 69.6099 141.833 70.9352C140.985 71.4122 140.429 72.3926 140.164 73.8765ZM128.159 52.1723C128.636 55.1405 130.411 57.9763 133.485 60.6791C136.348 63.2762 139.21 64.8135 142.072 65.2905C139.634 63.9124 137.567 61.8187 135.871 59.0096C133.804 55.9354 133.247 53.1794 134.201 50.7413C134.89 49.2042 134.651 48.0117 133.485 47.1637C131.896 46.2097 130.358 46.6602 128.874 48.5152C128.185 49.4692 127.947 50.6883 128.159 52.1723ZM110.032 41.2805C111.993 43.6656 114.882 45.2026 118.698 45.8916C121.931 46.5276 124.475 46.3421 126.33 45.3351C125.058 45.4411 122.806 44.6726 119.572 43.0296C116.286 41.4395 114.325 39.2399 113.689 36.4308C113.318 34.5758 112.47 33.6482 111.145 33.6482C109.396 33.6482 108.521 34.9468 108.521 37.5438C108.521 38.8689 109.025 40.1145 110.032 41.2805ZM86.7381 35.3178C88.3811 36.4838 91.3489 37.2788 95.6424 37.7029C98.2395 37.9679 100.677 37.2523 102.957 35.5563C100.942 36.0333 98.7429 35.9273 96.3579 35.2383C92.7534 34.3372 90.4748 32.7207 89.5202 30.3886C88.7783 28.7985 87.7978 28.1095 86.5789 28.3215C84.8301 28.6396 84.1939 29.9381 84.6709 32.2172C84.7766 33.4892 85.4657 34.5228 86.7381 35.3178ZM65.2719 36.0333C68.0811 37.4114 71.2614 37.7823 74.8125 37.1463C76.5084 36.8283 77.5952 36.4043 78.0722 35.8743C78.6021 35.2913 79.2911 34.5757 80.1394 33.7277C78.8141 34.3108 77.0119 34.4698 74.7332 34.2047C71.0758 33.8338 68.5581 32.6412 67.1799 30.6271C66.2259 29.1961 65.1398 28.6926 63.9208 29.1166C62.2778 29.6996 61.8536 31.1041 62.6484 33.3302C63.0197 34.4432 63.8938 35.3443 65.2719 36.0333ZM149.545 116.172C145.994 116.172 144.218 117.948 144.218 121.499C144.218 125.103 145.994 126.905 149.545 126.905C153.149 126.905 154.951 125.103 154.951 121.499C154.951 117.948 153.149 116.172 149.545 116.172ZM48.3381 29.4346C43.5679 32.0847 42.5609 35.7683 45.317 40.4854C48.0731 45.3086 51.8097 46.3156 56.5268 43.5066C57.7991 42.7645 58.7531 41.8105 59.3888 40.6444C55.4668 41.0685 52.4192 40.4324 50.2461 38.7364C47.49 35.6623 46.854 32.5617 48.3381 29.4346ZM141.197 110.607C142.31 107.427 141.913 105.439 140.005 104.644C138.203 104.061 136.639 105.28 135.314 108.301C135.155 108.619 135.049 108.884 134.996 109.096C134.943 109.308 134.837 109.573 134.678 109.891C133.724 112.223 133.247 114.741 133.247 117.444C133.247 121.578 134.307 125.103 136.427 128.018C138.6 130.933 141.224 132.391 144.298 132.391C146.047 132.391 147.769 131.808 149.465 130.642C146.55 130.642 144.033 129.608 141.913 127.541C139.845 125.474 138.812 122.93 138.812 119.909C138.812 119.432 138.891 118.902 139.051 118.319C139.21 117.047 139.448 115.774 139.766 114.503C140.084 113.072 140.561 111.773 141.197 110.607ZM42.6139 94.3881L49.4511 86.7561L46.0325 82.9401L35.7766 94.3881L45.953 105.757L49.4511 101.941L42.6139 94.3881ZM77.1182 88.0279C73.0367 88.0279 70.9965 90.0686 70.9965 94.1496C70.9965 98.2311 73.0367 100.271 77.1182 100.271C81.1991 100.271 83.2399 98.2311 83.2399 94.1496C83.2399 90.0686 81.1991 88.0279 77.1182 88.0279Z" fill="#FF7D05"/>
<path d="M138.192 73.5406L138.195 73.5249C138.505 71.7909 139.241 70.1165 140.819 69.2112C142.079 68.4473 143.438 67.9379 144.828 68.003C146.319 68.0728 147.55 68.7883 148.467 69.9038L148.476 69.9143L148.484 69.925C149.211 70.8339 149.591 71.9635 149.366 73.2012C149.158 74.3422 148.483 75.3017 147.699 76.0859L147.699 76.0863C147.425 76.3608 147.081 76.9418 146.857 78.0939C146.636 79.23 146.565 80.7591 146.691 82.7281C146.691 82.7295 146.691 82.7309 146.691 82.7323L144.695 82.8602M138.192 73.5406L145.314 89.7413C145.085 88.8983 144.958 88.1417 144.934 87.4716C144.881 85.9877 144.802 84.4504 144.695 82.8602M138.192 73.5406L138.19 73.5564C137.496 77.836 137.964 82.1495 139.549 86.4642L138.192 73.5406ZM144.695 82.8602C144.43 78.7264 144.96 75.9966 146.285 74.6719C147.557 73.3995 147.769 72.2334 146.922 71.1737M144.695 82.8602L146.922 71.1737M146.922 71.1737C145.702 69.6893 144.006 69.6099 141.833 70.9352L146.922 71.1737ZM126.179 52.4551L126.182 52.4724L126.184 52.4896C126.757 56.0543 128.862 59.2743 132.153 62.1709C135.204 64.936 138.4 66.7061 141.743 67.2633L143.056 63.5494C140.965 62.3676 139.132 60.5414 137.583 57.9759L137.558 57.9341L137.531 57.8937C135.681 55.1423 135.442 53.0996 136.049 51.5078C136.485 50.5153 136.723 49.4163 136.5 48.3015C136.264 47.1238 135.57 46.2073 134.661 45.5462L134.59 45.4944L134.514 45.449C133.324 44.734 131.968 44.4594 130.578 44.8668C129.267 45.2509 128.194 46.1643 127.312 47.2658L127.281 47.3043L127.253 47.3442C126.183 48.8249 125.915 50.6056 126.179 52.4551ZM127.284 47.0928L126.164 43.342C125.948 43.36 125.385 43.3043 124.333 42.9454C123.329 42.6029 122.05 42.045 120.478 41.2465L120.461 41.2377L120.443 41.2293C117.555 39.8318 116.116 38.0631 115.645 36.0107C115.42 34.9032 115.009 33.8232 114.251 32.9944C113.425 32.0915 112.335 31.6482 111.145 31.6482C109.697 31.6482 108.376 32.232 107.518 33.5047C106.756 34.637 106.521 36.0835 106.521 37.5438C106.521 39.418 107.246 41.1071 108.502 42.5692C110.832 45.3923 114.184 47.1061 118.327 47.857C121.768 48.5318 124.849 48.4148 127.284 47.0928ZM104.151 37.161L102.496 33.6101C100.877 33.9934 99.033 33.9293 96.913 33.3169L96.8782 33.3068L96.843 33.298C93.5494 32.4746 91.9858 31.1324 91.3712 29.631L91.353 29.5865L91.3326 29.543C90.8779 28.5684 90.2575 27.6607 89.3784 27.0429C88.4391 26.3828 87.3489 26.1576 86.2362 26.3511L86.2286 26.3524L86.221 26.3538C84.882 26.5973 83.6563 27.3024 82.9941 28.6542C82.4099 29.847 82.4333 31.2168 82.6899 32.5118C82.8921 34.4459 83.9915 35.9439 85.629 36.9829C87.736 38.4537 91.1489 39.2685 95.4427 39.6929C98.582 40.0124 101.509 39.1258 104.151 37.161ZM64.3775 37.8222L64.3843 37.8256L64.3911 37.8289C67.6391 39.4223 71.2616 39.8141 75.1651 39.115L75.1731 39.1135L75.1811 39.112C76.0992 38.9399 76.9263 38.7262 77.6265 38.453C78.2942 38.1924 79.0135 37.8147 79.5522 37.2195C80.0528 36.6688 80.7175 35.9778 81.5534 35.1422L79.334 31.8971C78.4717 32.2764 77.077 32.4639 74.9643 32.2181L74.9497 32.2164L74.935 32.2149C71.5699 31.8737 69.7442 30.8262 68.8361 29.5059C68.2404 28.6154 67.4789 27.8197 66.4908 27.3617C65.438 26.8737 64.3214 26.8597 63.2638 27.2276L63.2638 27.2276L63.252 27.2317C61.9588 27.6906 60.8877 28.5989 60.4558 30.0291C60.0669 31.3169 60.3023 32.7003 60.7582 33.9841C61.3485 35.7315 62.6856 36.9763 64.3775 37.8222ZM50.145 30.2921L52.8193 24.6572L47.3668 27.6863C44.7151 29.1594 42.773 31.1077 42.076 33.6575C41.3798 36.2039 42.0574 38.8679 43.5853 41.4861C45.1112 44.1531 47.0979 46.097 49.6661 46.7892C52.2405 47.483 54.919 46.79 57.5423 45.2296C59.0905 44.325 60.3173 43.1196 61.1448 41.6017L62.9747 38.245L59.1738 38.656C55.6464 39.0374 53.2288 38.4542 51.6132 37.2633C50.4808 35.9658 49.8817 34.7783 49.6612 33.7035C49.4387 32.6187 49.5706 31.5023 50.145 30.2921ZM142.953 111.565L143.031 111.422L143.085 111.268C143.69 109.539 143.996 107.845 143.695 106.339C143.363 104.677 142.328 103.445 140.774 102.798L140.699 102.766L140.621 102.741C139.054 102.234 137.527 102.549 136.251 103.544C135.099 104.442 134.216 105.835 133.502 107.453C133.322 107.818 133.155 108.214 133.056 108.611C133.056 108.611 133.056 108.611 133.056 108.611C133.055 108.615 133.046 108.646 133.02 108.711C132.992 108.781 132.95 108.876 132.889 108.997L132.855 109.064L132.827 109.134C131.768 111.723 131.247 114.5 131.247 117.444C131.247 121.936 132.405 125.889 134.81 129.194L134.816 129.204L134.824 129.213C137.296 132.53 140.472 134.391 144.298 134.391C146.519 134.391 148.629 133.644 150.598 132.29L155.904 128.642H151.922C153.096 128.358 154.155 127.826 155.014 126.968C156.422 125.559 156.951 123.609 156.951 121.499C156.951 119.408 156.418 117.473 155.003 116.079C153.594 114.691 151.648 114.172 149.545 114.172C147.461 114.172 145.531 114.694 144.136 116.09C142.741 117.485 142.218 119.415 142.218 121.499C142.218 123.366 142.627 125.108 143.689 126.462C143.564 126.352 143.441 126.237 143.318 126.118C141.645 124.442 140.812 122.415 140.812 119.909C140.812 119.649 140.856 119.3 140.98 118.848L141.018 118.71L141.036 118.567C141.184 117.376 141.408 116.182 141.706 114.988L141.713 114.963L141.718 114.937C142 113.67 142.415 112.55 142.953 111.565ZM50.9408 88.0906L52.1363 86.7561L50.9408 85.4216L47.5222 81.6056L46.0325 79.9428L44.5429 81.6056L34.287 93.0536L33.0919 94.3875L34.2864 95.722L44.4628 107.091L45.9354 108.736L47.4273 107.108L50.9254 103.292L52.1565 101.949L50.9338 100.599L45.3053 94.3811L50.9408 88.0906ZM77.1182 86.0279C74.7692 86.0279 72.6402 86.6165 71.1125 88.1442C69.5849 89.6719 68.9965 91.8009 68.9965 94.1496C68.9965 96.4985 69.5849 98.6275 71.1126 100.155C72.6403 101.683 74.7694 102.271 77.1182 102.271C79.4668 102.271 81.5958 101.683 83.1235 100.155C84.6513 98.6276 85.2399 96.4987 85.2399 94.1496C85.2399 91.8007 84.6512 89.6718 83.1236 88.1442C81.596 86.6165 79.467 86.0279 77.1182 86.0279Z" stroke="#FF4105" stroke-opacity="0.34" stroke-width="4"/>
</g>
<defs>
<filter id="filter0_f_301_15" x="25.4072" y="14.8797" width="141.936" height="126.511" filterUnits="userSpaceOnUse" color-interpolation-filters="sRGB">
<feFlood flood-opacity="0" result="BackgroundImageFix"/>
<feBlend mode="normal" in="SourceGraphic" in2="BackgroundImageFix" result="shape"/>
<feGaussianBlur stdDeviation="2.5" result="effect1_foregroundBlur_301_15"/>
</filter>
<linearGradient id="paint0_linear_301_15" x1="91.1116" y1="7.35989" x2="92.3354" y2="204.679" gradientUnits="userSpaceOnUse">
<stop stop-color="#531264"/>
<stop offset="0.882482" stop-color="#361500"/>
</linearGradient>
</defs>
</svg>
