<svg width="180" height="180" viewBox="0 0 180 180" fill="none" xmlns="http://www.w3.org/2000/svg">
<mask id="path-1-outside-1_301_28" maskUnits="userSpaceOnUse" x="13.875" y="30.75" width="153" height="136" fill="black">
<rect fill="white" x="13.875" y="30.75" width="153" height="136"/>
<path d="M53.0688 76.6018C53.3868 75.7007 54.1289 74.7467 55.2949 73.7398C56.0899 75.1708 57.2822 75.8863 58.8724 75.8863C61.5757 75.8863 62.9269 74.5346 62.9269 71.8318C62.9269 71.1956 62.7418 70.6129 62.3706 70.083C63.6958 69.7117 64.9147 69.6853 66.0279 70.0031C66.2929 69.6324 66.4251 69.1554 66.4251 68.5721C66.213 65.6573 63.5631 65.1538 58.4752 67.0618C53.2808 68.9169 50.7898 71.3284 51.0018 74.2961C51.0018 75.4093 51.6908 76.1777 53.0688 76.6018ZM126.847 77.6357C130.292 81.0804 133.526 83.7309 136.547 85.5855C139.567 87.4406 141.476 87.9711 142.271 87.1757C143.066 86.3809 142.536 84.4993 140.681 81.531C138.826 78.5098 136.176 75.2507 132.73 71.7525C130.664 69.6853 128.649 67.9095 126.688 66.4256C124.462 67.5917 121.309 67.9095 117.227 67.3796C120.832 70.7715 124.038 74.1904 126.847 77.6357ZM142.748 105.938C144.656 109.754 146.564 112.802 148.472 115.081C150.38 117.361 151.811 118.261 152.765 117.784C153.772 117.307 153.904 115.346 153.163 111.901C152.473 108.456 151.095 104.507 149.029 100.055C147.703 97.2461 146.272 94.5433 144.735 91.9457C142.456 92.8468 139.356 92.3169 135.434 90.3561C138.19 95.2852 140.628 100.479 142.748 105.938ZM149.108 133.446C149.903 140.39 151.175 143.861 152.924 143.861C153.878 143.861 154.7 142.642 155.389 140.204C156.131 137.713 156.608 134.56 156.82 130.743C155.548 125.602 154.17 123.058 152.686 123.111C150.937 122.846 149.055 121.866 147.041 120.17C148.048 124.887 148.737 129.312 149.108 133.446ZM157.933 154.992C158.516 152.341 158.781 148.79 158.728 144.338C157.032 147.624 155.097 149.267 152.924 149.267C151.758 149.267 150.565 148.737 149.347 147.678C149.241 148.843 149.108 150.407 148.949 152.368C152.076 153.11 155.071 153.984 157.933 154.992ZM91.8664 51.7971C93.7209 52.4332 95.6824 53.2016 97.7496 54.1027C105.169 54.0497 108.985 53.0957 109.198 51.2406C109.251 50.1276 107.661 49.1205 104.428 48.2195C101.194 47.3185 96.822 47.0535 91.3095 47.4245C91.6807 48.8555 91.8664 50.313 91.8664 51.7971ZM106.018 58.2367C110.47 60.3568 114.445 61.7878 117.943 62.5297C121.441 63.2722 123.429 63.1131 123.906 62.0527C124.648 60.2511 121.414 57.2828 114.207 53.1487C113.041 55.4277 110.311 57.1236 106.018 58.2367ZM29.854 118.42C27.1509 118.315 24.0769 116.619 20.6317 113.332C17.0806 108.456 16.0471 104.322 17.5311 100.93C19.0681 97.5375 23.0963 92.9796 29.6155 87.2556C30.8875 86.1424 32.4511 85.0027 34.3062 83.8367C35.7373 83.0419 37.3008 81.7959 38.9968 80.1C41.2759 77.8207 43.0514 75.2507 44.3235 72.3881C47.0796 65.6573 52.2738 60.0919 59.9062 55.6927C60.2241 55.4807 60.4626 55.3483 60.6217 55.2952C60.4097 52.4861 60.5419 49.836 61.0189 47.3449C61.5493 43.8999 62.5826 40.8787 64.1199 38.2817C67.0877 39.5007 69.8175 41.1437 72.3082 43.2108C73.1036 43.8468 73.872 44.5359 74.6139 45.2779C75.8329 43.2108 77.0524 41.4618 78.2713 40.0307C80.4442 37.4336 82.8292 35.3401 85.4263 33.75C87.3872 36.3471 88.9509 39.1562 90.117 42.1773C90.117 42.3363 90.1699 42.5218 90.2762 42.7338C90.5411 42.7338 90.8061 42.7338 91.071 42.7338C91.3359 42.6808 91.6273 42.6543 91.9457 42.6543C95.3376 42.4953 98.6501 42.6278 101.883 43.0518C105.117 43.4758 107.767 44.2709 109.834 45.4369C110.152 45.5959 110.443 45.7019 110.708 45.7549C111.026 45.7549 111.424 45.8344 111.901 45.9934C116.83 48.0075 120.832 50.5781 123.906 53.7052C127.033 56.7793 128.755 59.4821 129.073 61.8142C131.352 63.2987 133.843 65.3389 136.546 67.9359C143.861 75.4093 147.491 81.8758 147.439 87.3349C149.717 90.0377 151.891 93.5094 153.957 97.7496C158.516 107.767 159.629 115.293 157.297 120.328C160.901 124.675 163.074 131.194 163.816 139.886C164.028 143.066 164.028 146.087 163.816 148.949C163.71 153.667 163.392 158.251 162.862 162.703C153.375 158.516 143.039 155.919 131.856 154.912C120.196 153.905 108.959 154.806 98.1467 157.615C84.4723 163.022 70.0296 165.327 54.8178 164.532C52.9097 164.426 51.5316 164.32 50.6836 164.214C59.058 148.737 69.9232 137.024 83.2798 129.073C86.301 126.159 88.3147 121.945 89.3222 116.433C90.0107 112.246 89.8256 108.323 88.7653 104.667C87.0165 105.779 85.6384 106.548 84.6315 106.972C79.1719 109.463 73.7392 110.364 68.3331 109.675C64.8883 113.385 60.7275 116.195 55.8513 118.103C55.6393 118.208 54.6322 118.553 52.8302 119.136C49.3321 122.051 45.7545 123.933 42.0973 124.781C38.4932 125.629 35.4191 125.152 32.875 123.35C31.232 122.236 30.2249 120.593 29.8539 118.42H29.854ZM94.8077 99.9759C97.6168 96.6364 99.4719 93.006 100.373 89.0837C100.744 86.328 100.055 84.7907 98.3059 84.4729C96.4507 84.1016 95.2847 85.3206 94.8077 88.1297C93.9594 90.9917 92.5549 93.6422 90.594 96.0801C88.5268 98.253 88.1561 99.9495 89.4808 101.168C90.7532 102.493 92.5284 102.096 94.8077 99.9759ZM37.4863 116.274C39.8713 115.108 43.131 113.12 47.2651 110.311C49.4382 108.986 50.1272 107.555 49.3322 106.018C48.3252 104.481 46.7351 104.375 44.562 105.7C39.8978 109.039 36.4792 111.133 34.3062 111.981C32.0271 113.57 31.4176 115.055 32.4776 116.433C33.4316 117.811 35.1012 117.758 37.4863 116.274ZM29.854 99.2604C26.9389 99.2604 25.4814 100.188 25.4814 102.043C25.4814 103.898 26.9389 104.825 29.854 104.825C32.7161 104.825 34.1472 103.898 34.1472 102.043C34.1472 100.188 32.7161 99.2604 29.854 99.2604ZM87.732 58.4753C86.4602 59.2706 85.5326 59.7476 84.9493 59.9062C84.4194 60.0126 83.916 60.1183 83.439 60.2246C82.5379 60.4361 81.6103 60.4896 80.6563 60.3833C80.1264 60.3833 79.5431 60.2246 78.9069 59.9062C77.4231 59.1114 75.9921 57.8925 74.6139 56.2493C74.1369 60.2246 75.3559 62.7953 78.2713 63.9608C78.3771 64.0142 78.5362 64.0935 78.7483 64.1998C78.9604 64.2527 79.2517 64.332 79.6224 64.4383C80.6827 64.4383 81.3718 64.3849 81.6896 64.2791C84.393 63.2188 86.4067 61.2844 87.732 58.4753Z"/>
</mask>
<path d="M53.0688 76.6018C53.3868 75.7007 54.1289 74.7467 55.2949 73.7398C56.0899 75.1708 57.2822 75.8863 58.8724 75.8863C61.5757 75.8863 62.9269 74.5346 62.9269 71.8318C62.9269 71.1956 62.7418 70.6129 62.3706 70.083C63.6958 69.7117 64.9147 69.6853 66.0279 70.0031C66.2929 69.6324 66.4251 69.1554 66.4251 68.5721C66.213 65.6573 63.5631 65.1538 58.4752 67.0618C53.2808 68.9169 50.7898 71.3284 51.0018 74.2961C51.0018 75.4093 51.6908 76.1777 53.0688 76.6018ZM126.847 77.6357C130.292 81.0804 133.526 83.7309 136.547 85.5855C139.567 87.4406 141.476 87.9711 142.271 87.1757C143.066 86.3809 142.536 84.4993 140.681 81.531C138.826 78.5098 136.176 75.2507 132.73 71.7525C130.664 69.6853 128.649 67.9095 126.688 66.4256C124.462 67.5917 121.309 67.9095 117.227 67.3796C120.832 70.7715 124.038 74.1904 126.847 77.6357ZM142.748 105.938C144.656 109.754 146.564 112.802 148.472 115.081C150.38 117.361 151.811 118.261 152.765 117.784C153.772 117.307 153.904 115.346 153.163 111.901C152.473 108.456 151.095 104.507 149.029 100.055C147.703 97.2461 146.272 94.5433 144.735 91.9457C142.456 92.8468 139.356 92.3169 135.434 90.3561C138.19 95.2852 140.628 100.479 142.748 105.938ZM149.108 133.446C149.903 140.39 151.175 143.861 152.924 143.861C153.878 143.861 154.7 142.642 155.389 140.204C156.131 137.713 156.608 134.56 156.82 130.743C155.548 125.602 154.17 123.058 152.686 123.111C150.937 122.846 149.055 121.866 147.041 120.17C148.048 124.887 148.737 129.312 149.108 133.446ZM157.933 154.992C158.516 152.341 158.781 148.79 158.728 144.338C157.032 147.624 155.097 149.267 152.924 149.267C151.758 149.267 150.565 148.737 149.347 147.678C149.241 148.843 149.108 150.407 148.949 152.368C152.076 153.11 155.071 153.984 157.933 154.992ZM91.8664 51.7971C93.7209 52.4332 95.6824 53.2016 97.7496 54.1027C105.169 54.0497 108.985 53.0957 109.198 51.2406C109.251 50.1276 107.661 49.1205 104.428 48.2195C101.194 47.3185 96.822 47.0535 91.3095 47.4245C91.6807 48.8555 91.8664 50.313 91.8664 51.7971ZM106.018 58.2367C110.47 60.3568 114.445 61.7878 117.943 62.5297C121.441 63.2722 123.429 63.1131 123.906 62.0527C124.648 60.2511 121.414 57.2828 114.207 53.1487C113.041 55.4277 110.311 57.1236 106.018 58.2367ZM29.854 118.42C27.1509 118.315 24.0769 116.619 20.6317 113.332C17.0806 108.456 16.0471 104.322 17.5311 100.93C19.0681 97.5375 23.0963 92.9796 29.6155 87.2556C30.8875 86.1424 32.4511 85.0027 34.3062 83.8367C35.7373 83.0419 37.3008 81.7959 38.9968 80.1C41.2759 77.8207 43.0514 75.2507 44.3235 72.3881C47.0796 65.6573 52.2738 60.0919 59.9062 55.6927C60.2241 55.4807 60.4626 55.3483 60.6217 55.2952C60.4097 52.4861 60.5419 49.836 61.0189 47.3449C61.5493 43.8999 62.5826 40.8787 64.1199 38.2817C67.0877 39.5007 69.8175 41.1437 72.3082 43.2108C73.1036 43.8468 73.872 44.5359 74.6139 45.2779C75.8329 43.2108 77.0524 41.4618 78.2713 40.0307C80.4442 37.4336 82.8292 35.3401 85.4263 33.75C87.3872 36.3471 88.9509 39.1562 90.117 42.1773C90.117 42.3363 90.1699 42.5218 90.2762 42.7338C90.5411 42.7338 90.8061 42.7338 91.071 42.7338C91.3359 42.6808 91.6273 42.6543 91.9457 42.6543C95.3376 42.4953 98.6501 42.6278 101.883 43.0518C105.117 43.4758 107.767 44.2709 109.834 45.4369C110.152 45.5959 110.443 45.7019 110.708 45.7549C111.026 45.7549 111.424 45.8344 111.901 45.9934C116.83 48.0075 120.832 50.5781 123.906 53.7052C127.033 56.7793 128.755 59.4821 129.073 61.8142C131.352 63.2987 133.843 65.3389 136.546 67.9359C143.861 75.4093 147.491 81.8758 147.439 87.3349C149.717 90.0377 151.891 93.5094 153.957 97.7496C158.516 107.767 159.629 115.293 157.297 120.328C160.901 124.675 163.074 131.194 163.816 139.886C164.028 143.066 164.028 146.087 163.816 148.949C163.71 153.667 163.392 158.251 162.862 162.703C153.375 158.516 143.039 155.919 131.856 154.912C120.196 153.905 108.959 154.806 98.1467 157.615C84.4723 163.022 70.0296 165.327 54.8178 164.532C52.9097 164.426 51.5316 164.32 50.6836 164.214C59.058 148.737 69.9232 137.024 83.2798 129.073C86.301 126.159 88.3147 121.945 89.3222 116.433C90.0107 112.246 89.8256 108.323 88.7653 104.667C87.0165 105.779 85.6384 106.548 84.6315 106.972C79.1719 109.463 73.7392 110.364 68.3331 109.675C64.8883 113.385 60.7275 116.195 55.8513 118.103C55.6393 118.208 54.6322 118.553 52.8302 119.136C49.3321 122.051 45.7545 123.933 42.0973 124.781C38.4932 125.629 35.4191 125.152 32.875 123.35C31.232 122.236 30.2249 120.593 29.8539 118.42H29.854ZM94.8077 99.9759C97.6168 96.6364 99.4719 93.006 100.373 89.0837C100.744 86.328 100.055 84.7907 98.3059 84.4729C96.4507 84.1016 95.2847 85.3206 94.8077 88.1297C93.9594 90.9917 92.5549 93.6422 90.594 96.0801C88.5268 98.253 88.1561 99.9495 89.4808 101.168C90.7532 102.493 92.5284 102.096 94.8077 99.9759ZM37.4863 116.274C39.8713 115.108 43.131 113.12 47.2651 110.311C49.4382 108.986 50.1272 107.555 49.3322 106.018C48.3252 104.481 46.7351 104.375 44.562 105.7C39.8978 109.039 36.4792 111.133 34.3062 111.981C32.0271 113.57 31.4176 115.055 32.4776 116.433C33.4316 117.811 35.1012 117.758 37.4863 116.274ZM29.854 99.2604C26.9389 99.2604 25.4814 100.188 25.4814 102.043C25.4814 103.898 26.9389 104.825 29.854 104.825C32.7161 104.825 34.1472 103.898 34.1472 102.043C34.1472 100.188 32.7161 99.2604 29.854 99.2604ZM87.732 58.4753C86.4602 59.2706 85.5326 59.7476 84.9493 59.9062C84.4194 60.0126 83.916 60.1183 83.439 60.2246C82.5379 60.4361 81.6103 60.4896 80.6563 60.3833C80.1264 60.3833 79.5431 60.2246 78.9069 59.9062C77.4231 59.1114 75.9921 57.8925 74.6139 56.2493C74.1369 60.2246 75.3559 62.7953 78.2713 63.9608C78.3771 64.0142 78.5362 64.0935 78.7483 64.1998C78.9604 64.2527 79.2517 64.332 79.6224 64.4383C80.6827 64.4383 81.3718 64.3849 81.6896 64.2791C84.393 63.2188 86.4067 61.2844 87.732 58.4753Z" fill="url(#paint0_linear_301_28)"/>
<path d="M53.0688 76.6018C53.3868 75.7007 54.1289 74.7467 55.2949 73.7398C56.0899 75.1708 57.2822 75.8863 58.8724 75.8863C61.5757 75.8863 62.9269 74.5346 62.9269 71.8318C62.9269 71.1956 62.7418 70.6129 62.3706 70.083C63.6958 69.7117 64.9147 69.6853 66.0279 70.0031C66.2929 69.6324 66.4251 69.1554 66.4251 68.5721C66.213 65.6573 63.5631 65.1538 58.4752 67.0618C53.2808 68.9169 50.7898 71.3284 51.0018 74.2961C51.0018 75.4093 51.6908 76.1777 53.0688 76.6018ZM126.847 77.6357C130.292 81.0804 133.526 83.7309 136.547 85.5855C139.567 87.4406 141.476 87.9711 142.271 87.1757C143.066 86.3809 142.536 84.4993 140.681 81.531C138.826 78.5098 136.176 75.2507 132.73 71.7525C130.664 69.6853 128.649 67.9095 126.688 66.4256C124.462 67.5917 121.309 67.9095 117.227 67.3796C120.832 70.7715 124.038 74.1904 126.847 77.6357ZM142.748 105.938C144.656 109.754 146.564 112.802 148.472 115.081C150.38 117.361 151.811 118.261 152.765 117.784C153.772 117.307 153.904 115.346 153.163 111.901C152.473 108.456 151.095 104.507 149.029 100.055C147.703 97.2461 146.272 94.5433 144.735 91.9457C142.456 92.8468 139.356 92.3169 135.434 90.3561C138.19 95.2852 140.628 100.479 142.748 105.938ZM149.108 133.446C149.903 140.39 151.175 143.861 152.924 143.861C153.878 143.861 154.7 142.642 155.389 140.204C156.131 137.713 156.608 134.56 156.82 130.743C155.548 125.602 154.17 123.058 152.686 123.111C150.937 122.846 149.055 121.866 147.041 120.17C148.048 124.887 148.737 129.312 149.108 133.446ZM157.933 154.992C158.516 152.341 158.781 148.79 158.728 144.338C157.032 147.624 155.097 149.267 152.924 149.267C151.758 149.267 150.565 148.737 149.347 147.678C149.241 148.843 149.108 150.407 148.949 152.368C152.076 153.11 155.071 153.984 157.933 154.992ZM91.8664 51.7971C93.7209 52.4332 95.6824 53.2016 97.7496 54.1027C105.169 54.0497 108.985 53.0957 109.198 51.2406C109.251 50.1276 107.661 49.1205 104.428 48.2195C101.194 47.3185 96.822 47.0535 91.3095 47.4245C91.6807 48.8555 91.8664 50.313 91.8664 51.7971ZM106.018 58.2367C110.47 60.3568 114.445 61.7878 117.943 62.5297C121.441 63.2722 123.429 63.1131 123.906 62.0527C124.648 60.2511 121.414 57.2828 114.207 53.1487C113.041 55.4277 110.311 57.1236 106.018 58.2367ZM29.854 118.42C27.1509 118.315 24.0769 116.619 20.6317 113.332C17.0806 108.456 16.0471 104.322 17.5311 100.93C19.0681 97.5375 23.0963 92.9796 29.6155 87.2556C30.8875 86.1424 32.4511 85.0027 34.3062 83.8367C35.7373 83.0419 37.3008 81.7959 38.9968 80.1C41.2759 77.8207 43.0514 75.2507 44.3235 72.3881C47.0796 65.6573 52.2738 60.0919 59.9062 55.6927C60.2241 55.4807 60.4626 55.3483 60.6217 55.2952C60.4097 52.4861 60.5419 49.836 61.0189 47.3449C61.5493 43.8999 62.5826 40.8787 64.1199 38.2817C67.0877 39.5007 69.8175 41.1437 72.3082 43.2108C73.1036 43.8468 73.872 44.5359 74.6139 45.2779C75.8329 43.2108 77.0524 41.4618 78.2713 40.0307C80.4442 37.4336 82.8292 35.3401 85.4263 33.75C87.3872 36.3471 88.9509 39.1562 90.117 42.1773C90.117 42.3363 90.1699 42.5218 90.2762 42.7338C90.5411 42.7338 90.8061 42.7338 91.071 42.7338C91.3359 42.6808 91.6273 42.6543 91.9457 42.6543C95.3376 42.4953 98.6501 42.6278 101.883 43.0518C105.117 43.4758 107.767 44.2709 109.834 45.4369C110.152 45.5959 110.443 45.7019 110.708 45.7549C111.026 45.7549 111.424 45.8344 111.901 45.9934C116.83 48.0075 120.832 50.5781 123.906 53.7052C127.033 56.7793 128.755 59.4821 129.073 61.8142C131.352 63.2987 133.843 65.3389 136.546 67.9359C143.861 75.4093 147.491 81.8758 147.439 87.3349C149.717 90.0377 151.891 93.5094 153.957 97.7496C158.516 107.767 159.629 115.293 157.297 120.328C160.901 124.675 163.074 131.194 163.816 139.886C164.028 143.066 164.028 146.087 163.816 148.949C163.71 153.667 163.392 158.251 162.862 162.703C153.375 158.516 143.039 155.919 131.856 154.912C120.196 153.905 108.959 154.806 98.1467 157.615C84.4723 163.022 70.0296 165.327 54.8178 164.532C52.9097 164.426 51.5316 164.32 50.6836 164.214C59.058 148.737 69.9232 137.024 83.2798 129.073C86.301 126.159 88.3147 121.945 89.3222 116.433C90.0107 112.246 89.8256 108.323 88.7653 104.667C87.0165 105.779 85.6384 106.548 84.6315 106.972C79.1719 109.463 73.7392 110.364 68.3331 109.675C64.8883 113.385 60.7275 116.195 55.8513 118.103C55.6393 118.208 54.6322 118.553 52.8302 119.136C49.3321 122.051 45.7545 123.933 42.0973 124.781C38.4932 125.629 35.4191 125.152 32.875 123.35C31.232 122.236 30.2249 120.593 29.8539 118.42H29.854ZM94.8077 99.9759C97.6168 96.6364 99.4719 93.006 100.373 89.0837C100.744 86.328 100.055 84.7907 98.3059 84.4729C96.4507 84.1016 95.2847 85.3206 94.8077 88.1297C93.9594 90.9917 92.5549 93.6422 90.594 96.0801C88.5268 98.253 88.1561 99.9495 89.4808 101.168C90.7532 102.493 92.5284 102.096 94.8077 99.9759ZM37.4863 116.274C39.8713 115.108 43.131 113.12 47.2651 110.311C49.4382 108.986 50.1272 107.555 49.3322 106.018C48.3252 104.481 46.7351 104.375 44.562 105.7C39.8978 109.039 36.4792 111.133 34.3062 111.981C32.0271 113.57 31.4176 115.055 32.4776 116.433C33.4316 117.811 35.1012 117.758 37.4863 116.274ZM29.854 99.2604C26.9389 99.2604 25.4814 100.188 25.4814 102.043C25.4814 103.898 26.9389 104.825 29.854 104.825C32.7161 104.825 34.1472 103.898 34.1472 102.043C34.1472 100.188 32.7161 99.2604 29.854 99.2604ZM87.732 58.4753C86.4602 59.2706 85.5326 59.7476 84.9493 59.9062C84.4194 60.0126 83.916 60.1183 83.439 60.2246C82.5379 60.4361 81.6103 60.4896 80.6563 60.3833C80.1264 60.3833 79.5431 60.2246 78.9069 59.9062C77.4231 59.1114 75.9921 57.8925 74.6139 56.2493C74.1369 60.2246 75.3559 62.7953 78.2713 63.9608C78.3771 64.0142 78.5362 64.0935 78.7483 64.1998C78.9604 64.2527 79.2517 64.332 79.6224 64.4383C80.6827 64.4383 81.3718 64.3849 81.6896 64.2791C84.393 63.2188 86.4067 61.2844 87.732 58.4753Z" stroke="#FF7D05" stroke-width="4" mask="url(#path-1-outside-1_301_28)"/>
<g filter="url(#filter0_f_301_28)">
<path d="M53.0688 76.6018C53.3869 75.7007 54.1289 74.7467 55.2949 73.7398C56.09 75.1708 57.2827 75.8863 58.8724 75.8863C61.5757 75.8863 62.9274 74.5346 62.9274 71.8318C62.9274 71.1956 62.7418 70.6129 62.3706 70.083C63.6958 69.7117 64.9147 69.6853 66.0279 70.0031C66.2929 69.6324 66.4251 69.1554 66.4251 68.5721C66.2136 65.6573 63.5631 65.1538 58.4752 67.0618C53.2808 68.9169 50.7898 71.3284 51.0018 74.2961C51.0018 75.4093 51.6908 76.1777 53.0688 76.6018ZM126.847 77.6357C130.292 81.0804 133.526 83.7309 136.547 85.5855C139.568 87.4406 141.476 87.9711 142.271 87.1757C143.066 86.3809 142.536 84.4993 140.681 81.531C138.826 78.5098 136.176 75.2507 132.73 71.7525C130.664 69.6853 128.649 67.9095 126.688 66.4256C124.462 67.5917 121.309 67.9095 117.227 67.3796C120.832 70.7715 124.038 74.1904 126.847 77.6357ZM142.748 105.938C144.656 109.754 146.564 112.802 148.472 115.081C150.38 117.361 151.811 118.261 152.765 117.784C153.772 117.307 153.904 115.346 153.163 111.901C152.473 108.456 151.096 104.507 149.029 100.055C147.703 97.2461 146.272 94.5433 144.735 91.9463C142.456 92.8468 139.356 92.3169 135.434 90.3561C138.19 95.2852 140.628 100.479 142.748 105.938ZM149.108 133.446C149.903 140.39 151.175 143.861 152.924 143.861C153.878 143.861 154.7 142.642 155.389 140.204C156.131 137.713 156.608 134.56 156.82 130.744C155.548 125.602 154.17 123.058 152.686 123.111C150.937 122.846 149.055 121.866 147.041 120.17C148.048 124.887 148.737 129.312 149.108 133.446ZM157.933 154.992C158.516 152.341 158.781 148.79 158.728 144.338C157.032 147.624 155.098 149.267 152.924 149.267C151.758 149.267 150.565 148.737 149.347 147.678C149.241 148.844 149.108 150.407 148.949 152.368C152.076 153.11 155.071 153.984 157.933 154.992ZM91.8664 51.7971C93.7215 52.4332 95.6824 53.2016 97.7496 54.1027C105.169 54.0497 108.985 53.0957 109.198 51.2406C109.251 50.1276 107.661 49.1205 104.428 48.2195C101.194 47.3185 96.822 47.0535 91.3095 47.4245C91.6807 48.8555 91.8664 50.3131 91.8664 51.7971ZM106.018 58.2367C110.47 60.3568 114.445 61.7878 117.943 62.5297C121.441 63.2722 123.429 63.1131 123.906 62.0527C124.648 60.2511 121.414 57.2828 114.207 53.1487C113.041 55.4277 110.311 57.1236 106.018 58.2367ZM94.8077 99.9759C97.6168 96.6364 99.4719 93.006 100.373 89.0837C100.744 86.328 100.055 84.7907 98.3059 84.4729C96.4507 84.1016 95.2847 85.3206 94.8077 88.1297C93.96 90.9917 92.5554 93.6422 90.594 96.0801C88.5268 98.253 88.1561 99.9495 89.4808 101.168C90.7532 102.493 92.5284 102.096 94.8077 99.9759ZM37.4863 116.274C39.8714 115.108 43.131 113.12 47.2651 110.311C49.4382 108.986 50.1272 107.555 49.3322 106.018C48.3252 104.481 46.7351 104.375 44.562 105.7C39.8979 109.039 36.4793 111.133 34.3062 111.981C32.0271 113.57 31.4176 115.055 32.4776 116.433C33.4317 117.811 35.1012 117.758 37.4863 116.274ZM29.8541 99.2604C26.939 99.2604 25.4814 100.188 25.4814 102.043C25.4814 103.898 26.939 104.825 29.8541 104.825C32.7162 104.825 34.1472 103.898 34.1472 102.043C34.1472 100.188 32.7162 99.2604 29.8541 99.2604ZM87.732 58.4753C86.4602 59.2706 85.5326 59.7476 84.9493 59.9062C84.4194 60.0126 83.916 60.1183 83.439 60.2246C82.5379 60.4367 81.6103 60.4896 80.6563 60.3833C80.1264 60.3833 79.5431 60.2246 78.9075 59.9062C77.4231 59.1114 75.9921 57.8925 74.6139 56.2493C74.1369 60.2246 75.3559 62.7952 78.2713 63.9607C78.3771 64.0142 78.5362 64.0935 78.7483 64.1998C78.9604 64.2527 79.2517 64.332 79.623 64.4383C80.6827 64.4383 81.3718 64.3849 81.6896 64.2791C84.393 63.2188 86.4067 61.2844 87.732 58.4753Z" fill="#FF7D05"/>
<path d="M125.361 78.9782L125.297 78.8995C122.549 75.5293 119.404 72.1743 115.856 68.8362L111.355 64.6005L117.484 65.3962C121.396 65.904 124.064 65.5425 125.76 64.654L126.883 64.0654L127.895 64.8307C129.941 66.3791 132.025 68.2179 134.145 70.3387L134.15 70.3438L134.155 70.349C137.667 73.9147 140.423 77.2907 142.381 80.4779C143.341 82.0147 144.054 83.4146 144.395 84.6262C144.708 85.7366 144.89 87.385 143.686 88.5896L125.361 78.9782ZM125.361 78.9782L125.433 79.05M125.361 78.9782L125.433 79.05M125.433 79.05C128.95 82.5673 132.307 85.3292 135.5 87.2898M125.433 79.05L135.5 87.2898M135.5 87.2898C137.066 88.251 138.486 88.9618 139.708 89.3015M135.5 87.2898L139.708 89.3015M139.708 89.3015C140.82 89.6104 142.478 89.7968 143.685 88.5901L139.708 89.3015ZM52.4805 78.5133L54.3156 79.0781L54.9547 77.2676C55.0087 77.1147 55.1 76.9304 55.2424 76.7157C55.4061 76.8406 55.5774 76.9571 55.7567 77.0647C56.7062 77.6344 57.768 77.8863 58.8724 77.8863C60.5324 77.8863 62.1446 77.4699 63.3278 76.2869C64.511 75.1038 64.9274 73.4916 64.9274 71.8318C64.9274 71.8259 64.9274 71.8201 64.9274 71.8142C65.1207 71.8385 65.3042 71.8764 65.4789 71.9263L66.8349 72.3134L67.6549 71.1662C68.2231 70.3714 68.4251 69.4546 68.4251 68.5721V68.4996L68.4199 68.4274C68.346 67.4094 68.0428 66.3904 67.3427 65.5542C66.6297 64.7026 65.6695 64.2368 64.6521 64.0435C62.7579 63.6837 60.3849 64.211 57.7878 65.1836C55.0698 66.1557 52.8533 67.3405 51.32 68.8247C49.7441 70.3503 48.8697 72.2254 49.0024 74.3715C49.0184 75.3512 49.3465 76.2807 50.0294 77.0424C50.6941 77.7838 51.576 78.2349 52.4805 78.5133ZM140.884 106.662L140.917 106.749L148.472 115.081L146.938 116.365C146.938 116.365 146.938 116.365 146.938 116.365C147.941 117.563 148.934 118.544 149.911 119.159C150.85 119.75 152.238 120.273 153.641 119.582C155.168 118.846 155.538 117.227 155.615 116.09C155.7 114.835 155.503 113.273 155.121 111.494C154.39 107.85 152.95 103.751 150.843 99.2128L150.838 99.2012C149.486 96.3378 148.026 93.5799 146.456 90.9277L145.587 89.4592L144 90.0862C142.542 90.6623 140.116 90.4606 136.328 88.5672L130.518 85.6625L133.688 91.3321C136.397 96.1772 138.796 101.287 140.884 106.662ZM147.116 133.625L147.118 133.649L147.121 133.673C147.524 137.19 148.061 139.983 148.78 141.946C149.138 142.921 149.588 143.828 150.193 144.523C150.823 145.247 151.739 145.861 152.924 145.861C154.37 145.861 155.342 144.914 155.914 144.065C156.497 143.2 156.944 142.054 157.31 140.762C158.11 138.071 158.6 134.755 158.817 130.855L158.834 130.555L158.761 130.264C158.112 127.64 157.402 125.524 156.591 124.027C156.186 123.279 155.699 122.578 155.092 122.05C154.514 121.546 153.758 121.147 152.858 121.112C151.632 120.894 150.127 120.154 148.329 118.64L143.867 114.883L145.085 120.588C146.078 125.238 146.753 129.583 147.116 133.625ZM157.269 156.878L159.401 157.629L159.886 155.422C160.516 152.558 160.782 148.835 160.728 144.314L156.951 143.421C155.345 146.531 153.925 147.267 152.924 147.267C152.398 147.267 151.653 147.033 150.659 146.169L147.709 143.604L147.355 147.497C147.248 148.672 147.115 150.242 146.956 152.206L146.817 153.918L148.487 154.314C151.55 155.041 154.477 155.895 157.269 156.878ZM89.8664 51.7971V53.2256L91.2177 53.689C91.3025 53.7181 91.3876 53.7474 91.4729 53.7771L86.6716 56.7796C85.4617 57.5361 84.7684 57.8673 84.4719 57.9622C83.9615 58.0651 83.472 58.1682 83.004 58.2725L82.9924 58.2751L82.9808 58.2778C82.3104 58.4356 81.613 58.4775 80.8778 58.3956L80.7674 58.3833H80.6563C80.5261 58.3833 80.2595 58.3432 79.8266 58.1296C78.6272 57.4823 77.395 56.4529 76.1463 54.9641L73.1784 51.4255L72.6281 56.011C72.3622 58.2274 72.539 60.2775 73.3634 62.0157C74.1993 63.7783 75.612 65.0305 77.4441 65.7834C77.5037 65.8134 77.5741 65.8486 77.6534 65.8883C77.7146 65.9189 77.7812 65.9522 77.8522 65.9878L78.0498 66.0869L78.2643 66.1404C78.4441 66.1852 78.7103 66.2574 79.0725 66.3611L79.3423 66.4383H79.623C80.1805 66.4383 80.6735 66.4245 81.0884 66.3924C81.462 66.3636 81.9181 66.3109 82.3213 66.1767L82.3711 66.1601L82.4199 66.141C85.6334 64.8806 88.0145 62.5639 89.5408 59.3287L92.0618 53.9851C93.6102 54.5405 95.2394 55.1903 96.9504 55.9361L97.3395 56.1057L97.7639 56.1026C101.519 56.0758 104.518 55.8235 106.661 55.2877C107.727 55.0214 108.72 54.6521 109.507 54.1036C110.324 53.5339 111.047 52.6685 111.185 51.4687L111.193 51.4024L111.196 51.3357C111.275 49.6643 110.085 48.5749 109.115 47.9609C108.074 47.3014 106.647 46.7617 104.965 46.2929L104.965 46.2929C101.417 45.3045 96.7873 45.0513 91.1752 45.429L88.7677 45.591L89.3736 47.9267C89.7021 49.1931 89.8664 50.482 89.8664 51.7971ZM105.516 56.3007L100.197 57.6799L105.158 60.0424C109.703 62.2065 113.831 63.7019 117.528 64.4861C119.341 64.8711 120.935 65.0634 122.217 64.9609C123.4 64.8662 125.022 64.4467 125.73 62.8732L125.743 62.844L125.755 62.8143C126.242 61.6316 125.965 60.4672 125.49 59.5567C125.025 58.6664 124.275 57.8147 123.39 57.002C121.607 55.3651 118.842 53.5016 115.202 51.4139L113.382 50.3699L112.427 52.2377C111.659 53.7385 109.64 55.2316 105.516 56.3007ZM96.1698 101.44L96.2595 101.357L96.3382 101.263C99.3339 97.7021 101.344 93.7886 102.322 89.5315L102.343 89.4418L102.355 89.3506C102.561 87.8188 102.526 86.3094 101.96 85.046C101.331 83.6429 100.153 82.781 98.6809 82.5083C97.1847 82.2138 95.7109 82.5593 94.5947 83.7261C93.6304 84.7343 93.1275 86.1603 92.8577 87.6698C92.0915 90.2055 90.8401 92.5687 89.085 94.765C87.9878 95.9302 87.108 97.1997 86.8116 98.5546C86.472 100.108 86.9518 101.533 88.0813 102.598C89.1907 103.726 90.6452 104.164 92.2034 103.816C93.6034 103.502 94.9325 102.591 96.1698 101.44ZM51.1086 105.099L51.0614 105.008L51.0051 104.922C50.2176 103.72 49.0399 102.892 47.5174 102.79C46.131 102.698 44.7661 103.233 43.5208 103.992L43.4578 104.031L43.3978 104.074C38.7292 107.416 35.4929 109.371 33.5791 110.118L33.3575 110.204L33.1624 110.34C31.9106 111.213 30.8122 112.254 30.2897 113.526C29.6942 114.976 29.9655 116.423 30.8621 117.613C31.7239 118.831 33.0096 119.473 34.5088 119.426C35.8292 119.384 37.17 118.814 38.4547 118.027C40.9512 116.797 44.2606 114.769 48.35 111.992C49.567 111.243 50.636 110.311 51.2137 109.112C51.858 107.774 51.765 106.368 51.1086 105.099ZM29.8541 97.2604C28.2488 97.2604 26.7023 97.5042 25.5008 98.2688C24.146 99.1309 23.4814 100.492 23.4814 102.043C23.4814 103.594 24.1461 104.955 25.5011 105.817C26.7026 106.581 28.249 106.825 29.8541 106.825C31.4371 106.825 32.9698 106.58 34.1615 105.808C35.503 104.939 36.1472 103.578 36.1472 102.043C36.1472 100.508 35.5031 99.1472 34.1618 98.2778C32.97 97.5054 31.4373 97.2604 29.8541 97.2604Z" stroke="#FF4105" stroke-opacity="0.34" stroke-width="4"/>
</g>
<defs>
<filter id="filter0_f_301_28" x="16.4814" y="38.262" width="151.253" height="127.005" filterUnits="userSpaceOnUse" color-interpolation-filters="sRGB">
<feFlood flood-opacity="0" result="BackgroundImageFix"/>
<feBlend mode="normal" in="SourceGraphic" in2="BackgroundImageFix" result="shape"/>
<feGaussianBlur stdDeviation="2.5" result="effect1_foregroundBlur_301_28"/>
</filter>
<linearGradient id="paint0_linear_301_28" x1="90.1289" y1="19.5524" x2="91.1368" y2="204.589" gradientUnits="userSpaceOnUse">
<stop stop-color="#531264"/>
<stop offset="0.882482" stop-color="#361500"/>
</linearGradient>
</defs>
</svg>
