<svg width="180" height="180" viewBox="0 0 180 180" fill="none" xmlns="http://www.w3.org/2000/svg">
<path d="M113.17 133.165C115.262 129.198 116.307 124.881 116.307 120.246C116.307 111.046 112.684 103.521 105.508 97.8377C103.759 96.2122 102.39 94.4691 101.393 92.6008C100.275 90.5051 99.6241 88.2518 99.4278 85.8305H119.012V77.517L118.556 76.9632C115.09 72.7513 110.794 69.3027 105.698 66.6126L105.691 66.6091C102.619 65.0028 100.212 62.7971 98.4356 59.972C100.312 57.4223 101.276 54.5347 101.276 51.3559C101.276 47.5093 99.8675 44.1859 97.1056 41.5014C94.3969 38.764 91.0519 37.375 87.1875 37.375C83.2727 37.375 79.8755 38.7613 77.111 41.5014C74.3955 44.1925 73.0195 47.5168 73.0195 51.3559C73.0195 54.5952 73.9862 57.4913 75.8969 59.9798C74.0038 62.8659 71.6243 65.0631 68.7559 66.6133C63.746 69.209 59.4295 72.7169 55.8166 77.1237L55.3632 77.6766V85.8305H74.914C74.4771 90.4122 72.504 94.3382 68.9403 97.6847C61.6719 103.464 57.9878 111.036 57.9878 120.246C57.9878 125.759 59.4128 130.83 62.2671 135.412L62.2748 135.425L62.2826 135.437C64.4034 138.734 67.0084 141.47 70.0905 143.63C63.845 146.542 58.6779 150.874 54.6177 156.609L54.25 157.129V165.125H120.125V157.122L119.75 156.599C115.692 150.942 110.492 146.609 104.184 143.609C107.213 141.382 109.797 138.6 111.934 135.279L111.975 135.215C112.405 134.542 112.804 133.859 113.17 133.165Z" fill="#FF7D05"/>
<path d="M99.9124 143.971C107.494 146.809 113.565 151.407 118.125 157.765V163.125H56.25V157.765C60.8631 151.249 66.96 146.651 74.5419 143.971C70.1944 141.764 66.6686 138.559 63.9647 134.355C61.3136 130.099 59.9878 125.396 59.9878 120.246C59.9878 111.628 63.4078 104.613 70.2473 99.2008C74.754 94.9967 77.0074 89.8734 77.0074 83.8305H57.3632V78.3917C60.8096 74.1881 64.9187 70.8514 69.6909 68.3814C73.296 66.4369 76.1856 63.5732 78.3596 59.7898C76.1327 57.4251 75.0195 54.6139 75.0195 51.3559C75.0195 48.0454 76.1856 45.2341 78.5188 42.922C80.9044 40.5573 83.7939 39.375 87.1875 39.375C90.5276 39.375 93.3643 40.5573 95.6976 42.922C98.0831 45.2341 99.2762 48.0454 99.2762 51.3559C99.2762 54.5088 98.1894 57.3199 96.0154 59.7898C98.0303 63.5209 100.946 66.3846 104.764 68.3814C109.642 70.956 113.725 74.2404 117.012 78.2342V83.8305H97.3676C97.2613 89.8734 99.5411 95.0496 104.207 99.3583C110.941 104.666 114.307 111.628 114.307 120.246C114.307 125.343 112.956 129.994 110.252 134.197C107.547 138.401 104.101 141.659 99.9124 143.971Z" fill="url(#paint0_linear_301_34)"/>
<defs>
<linearGradient id="paint0_linear_301_34" x1="87.0629" y1="25.9565" x2="89.2032" y2="200.818" gradientUnits="userSpaceOnUse">
<stop stop-color="#531264"/>
<stop offset="0.882482" stop-color="#361500"/>
</linearGradient>
</defs>
</svg>
