<svg width="180" height="180" viewBox="0 0 180 180" fill="none" xmlns="http://www.w3.org/2000/svg">
<mask id="path-1-outside-1_301_40" maskUnits="userSpaceOnUse" x="9.25" y="31.75" width="157" height="135" fill="black">
<rect fill="white" x="9.25" y="31.75" width="157" height="135"/>
<path d="M130.106 124.383C132.545 125.072 134.002 124.595 134.479 122.952C134.85 121.309 133.869 120.143 131.538 119.454C118.552 115.85 103.871 114.047 87.4929 114.047C70.9037 114.047 56.3282 115.85 43.7666 119.454C41.3285 120.143 40.3215 121.309 40.7455 122.952C41.1695 124.542 42.6005 125.045 45.0386 124.463C57.1759 121.124 71.4336 119.454 87.8113 119.454C104.03 119.454 118.128 121.097 130.106 124.383ZM110.231 129.312C106.256 128.676 104.056 129.578 103.632 132.015C103.155 134.453 104.93 136.043 108.959 136.785C112.881 137.527 115.054 136.626 115.478 134.083C115.955 131.698 114.206 130.107 110.231 129.312ZM127.88 142.192C131.167 142.192 132.81 140.389 132.81 136.785C132.81 134.984 132.173 133.552 130.902 132.492L120.487 136.308L127.88 142.192ZM47.1057 142.192L54.4994 136.388L44.0846 132.492C42.8125 133.606 42.1765 135.037 42.1765 136.785C42.1765 140.389 43.8196 142.192 47.1057 142.192ZM119.612 151.175C122.898 150.433 126.237 149.506 129.629 148.393C123.746 146.803 117.227 145.398 110.072 144.179C102.917 142.96 95.3904 142.351 87.4929 142.351C79.596 142.351 72.0698 142.96 64.9142 144.179C57.8121 145.398 51.3194 146.803 45.4362 148.393C48.8813 149.559 52.2204 150.486 55.4535 151.175C60.1178 150.275 65.1527 149.479 70.5589 148.79C75.9651 148.101 81.6098 147.757 87.4929 147.757C93.3233 147.757 98.9679 148.128 104.427 148.87C109.887 149.559 114.948 150.328 119.612 151.175ZM132.969 113.809L136.228 99.8961L126.052 111.901C128.702 112.537 131.007 113.173 132.969 113.809ZM118.022 110.947L115.478 94.1721L107.846 109.596C111.821 110.019 115.213 110.47 118.022 110.947ZM96.0795 108.085L87.4929 84.6315L78.9069 108.006C80.8149 107.899 83.6769 107.846 87.4929 107.846C90.3549 107.846 93.2175 107.926 96.0795 108.085ZM67.1406 109.596L59.508 94.1721L56.9638 110.868C59.9321 110.391 63.324 109.966 67.1406 109.596ZM49.0138 111.901L38.7579 99.8961L42.0971 113.73C43.6871 113.253 45.9927 112.643 49.0138 111.901ZM87.4929 52.7511C84.843 52.7511 82.5902 51.8236 80.7356 49.9686C78.8805 48.1135 77.9529 45.8609 77.9529 43.2108C77.9529 40.6667 78.8805 38.4672 80.7356 36.6121C82.5902 34.7041 84.843 33.75 87.4929 33.75C90.09 33.75 92.3164 34.7041 94.1715 36.6121C96.0266 38.4672 96.9536 40.6667 96.9536 43.2108C96.9536 45.8609 96.0266 48.1135 94.1715 49.9686C92.3164 51.8236 90.09 52.7511 87.4929 52.7511ZM138.772 121.203C139.726 123.058 140.203 124.993 140.203 127.007C140.203 130.134 139.196 132.784 137.183 134.957C137.341 135.54 137.421 136.149 137.421 136.785C137.421 139.966 136.44 142.616 134.479 144.736C134.691 145.478 134.797 146.299 134.797 147.2C134.797 152.872 132.438 156.396 127.721 157.774C115.69 161.803 102.281 163.816 87.4929 163.816C72.6525 163.816 59.2431 161.803 47.2647 157.774C42.5476 156.396 40.189 152.872 40.189 147.2C40.189 146.299 40.295 145.478 40.507 144.736C38.5459 142.616 37.5654 139.966 37.5654 136.785C37.5654 136.149 37.6449 135.54 37.8039 134.957C35.7898 132.89 34.7828 130.266 34.7828 127.086C34.7828 125.231 35.1538 123.509 35.8958 121.919L24.6859 71.6726L49.8088 100.85L54.9765 63.4044L71.1158 97.9881L87.4929 52.8306L103.871 97.9881L119.93 63.4044L125.098 100.85L150.3 71.5933L138.772 121.203ZM121.679 62.5297C119.029 62.5297 116.777 61.6022 114.922 59.7476C113.066 57.8925 112.139 55.6397 112.139 52.9896C112.139 50.4456 113.066 48.246 114.922 46.391C116.777 44.4828 119.029 43.5288 121.679 43.5288C124.277 43.5288 126.502 44.4828 128.357 46.391C130.213 48.246 131.14 50.4456 131.14 52.9896C131.14 55.6397 130.213 57.8925 128.357 59.7476C126.502 61.6022 124.277 62.5297 121.679 62.5297ZM53.3069 62.5297C50.6568 62.5297 48.4042 61.6022 46.5492 59.7476C44.6941 57.8925 43.7666 55.6397 43.7666 52.9896C43.7666 50.4456 44.6941 48.246 46.5492 46.391C48.4042 44.4828 50.6568 43.5288 53.3069 43.5288C55.904 43.5288 58.1299 44.4828 59.985 46.391C61.8401 48.246 62.7677 50.4456 62.7677 52.9896C62.7677 55.6397 61.8401 57.8925 59.985 59.7476C58.1299 61.6022 55.904 62.5297 53.3069 62.5297ZM154.196 72.3088C151.599 72.3088 149.372 71.3812 147.518 69.5261C145.663 67.671 144.735 65.4188 144.735 62.7683C144.735 60.1712 145.663 57.9454 147.518 56.0902C149.372 54.2352 151.599 53.3077 154.196 53.3077C156.793 53.3077 159.019 54.2352 160.874 56.0902C162.782 57.9454 163.736 60.1712 163.736 62.7683C163.736 65.4188 162.782 67.671 160.874 69.5261C159.019 71.3812 156.793 72.3088 154.196 72.3088ZM20.7108 72.3088C18.0608 72.3088 15.8082 71.3812 13.9531 69.5261C12.151 67.671 11.25 65.4188 11.25 62.7683C11.25 56.4615 14.4036 53.3077 20.7108 53.3077C23.3079 53.3077 25.534 54.2352 27.389 56.0902C29.2971 57.9454 30.2511 60.1712 30.2511 62.7683C30.2511 65.4188 29.2971 67.671 27.389 69.5261C25.534 71.3812 23.3079 72.3088 20.7108 72.3088ZM87.4929 125.973L78.0323 131.459L87.4929 136.865L96.9536 131.459L87.4929 125.973ZM64.9941 129.312C60.9126 130.001 59.1373 131.591 59.6672 134.083C60.1442 136.626 62.3436 137.501 66.2659 136.706C70.2411 136.07 71.9899 134.506 71.5129 132.015C71.0887 129.578 68.9158 128.676 64.9941 129.312Z"/>
</mask>
<path d="M130.106 124.383C132.545 125.072 134.002 124.595 134.479 122.952C134.85 121.309 133.869 120.143 131.538 119.454C118.552 115.85 103.871 114.047 87.4929 114.047C70.9037 114.047 56.3282 115.85 43.7666 119.454C41.3285 120.143 40.3215 121.309 40.7455 122.952C41.1695 124.542 42.6005 125.045 45.0386 124.463C57.1759 121.124 71.4336 119.454 87.8113 119.454C104.03 119.454 118.128 121.097 130.106 124.383ZM110.231 129.312C106.256 128.676 104.056 129.578 103.632 132.015C103.155 134.453 104.93 136.043 108.959 136.785C112.881 137.527 115.054 136.626 115.478 134.083C115.955 131.698 114.206 130.107 110.231 129.312ZM127.88 142.192C131.167 142.192 132.81 140.389 132.81 136.785C132.81 134.984 132.173 133.552 130.902 132.492L120.487 136.308L127.88 142.192ZM47.1057 142.192L54.4994 136.388L44.0846 132.492C42.8125 133.606 42.1765 135.037 42.1765 136.785C42.1765 140.389 43.8196 142.192 47.1057 142.192ZM119.612 151.175C122.898 150.433 126.237 149.506 129.629 148.393C123.746 146.803 117.227 145.398 110.072 144.179C102.917 142.96 95.3904 142.351 87.4929 142.351C79.596 142.351 72.0698 142.96 64.9142 144.179C57.8121 145.398 51.3194 146.803 45.4362 148.393C48.8813 149.559 52.2204 150.486 55.4535 151.175C60.1178 150.275 65.1527 149.479 70.5589 148.79C75.9651 148.101 81.6098 147.757 87.4929 147.757C93.3233 147.757 98.9679 148.128 104.427 148.87C109.887 149.559 114.948 150.328 119.612 151.175ZM132.969 113.809L136.228 99.8961L126.052 111.901C128.702 112.537 131.007 113.173 132.969 113.809ZM118.022 110.947L115.478 94.1721L107.846 109.596C111.821 110.019 115.213 110.47 118.022 110.947ZM96.0795 108.085L87.4929 84.6315L78.9069 108.006C80.8149 107.899 83.6769 107.846 87.4929 107.846C90.3549 107.846 93.2175 107.926 96.0795 108.085ZM67.1406 109.596L59.508 94.1721L56.9638 110.868C59.9321 110.391 63.324 109.966 67.1406 109.596ZM49.0138 111.901L38.7579 99.8961L42.0971 113.73C43.6871 113.253 45.9927 112.643 49.0138 111.901ZM87.4929 52.7511C84.843 52.7511 82.5902 51.8236 80.7356 49.9686C78.8805 48.1135 77.9529 45.8609 77.9529 43.2108C77.9529 40.6667 78.8805 38.4672 80.7356 36.6121C82.5902 34.7041 84.843 33.75 87.4929 33.75C90.09 33.75 92.3164 34.7041 94.1715 36.6121C96.0266 38.4672 96.9536 40.6667 96.9536 43.2108C96.9536 45.8609 96.0266 48.1135 94.1715 49.9686C92.3164 51.8236 90.09 52.7511 87.4929 52.7511ZM138.772 121.203C139.726 123.058 140.203 124.993 140.203 127.007C140.203 130.134 139.196 132.784 137.183 134.957C137.341 135.54 137.421 136.149 137.421 136.785C137.421 139.966 136.44 142.616 134.479 144.736C134.691 145.478 134.797 146.299 134.797 147.2C134.797 152.872 132.438 156.396 127.721 157.774C115.69 161.803 102.281 163.816 87.4929 163.816C72.6525 163.816 59.2431 161.803 47.2647 157.774C42.5476 156.396 40.189 152.872 40.189 147.2C40.189 146.299 40.295 145.478 40.507 144.736C38.5459 142.616 37.5654 139.966 37.5654 136.785C37.5654 136.149 37.6449 135.54 37.8039 134.957C35.7898 132.89 34.7828 130.266 34.7828 127.086C34.7828 125.231 35.1538 123.509 35.8958 121.919L24.6859 71.6726L49.8088 100.85L54.9765 63.4044L71.1158 97.9881L87.4929 52.8306L103.871 97.9881L119.93 63.4044L125.098 100.85L150.3 71.5933L138.772 121.203ZM121.679 62.5297C119.029 62.5297 116.777 61.6022 114.922 59.7476C113.066 57.8925 112.139 55.6397 112.139 52.9896C112.139 50.4456 113.066 48.246 114.922 46.391C116.777 44.4828 119.029 43.5288 121.679 43.5288C124.277 43.5288 126.502 44.4828 128.357 46.391C130.213 48.246 131.14 50.4456 131.14 52.9896C131.14 55.6397 130.213 57.8925 128.357 59.7476C126.502 61.6022 124.277 62.5297 121.679 62.5297ZM53.3069 62.5297C50.6568 62.5297 48.4042 61.6022 46.5492 59.7476C44.6941 57.8925 43.7666 55.6397 43.7666 52.9896C43.7666 50.4456 44.6941 48.246 46.5492 46.391C48.4042 44.4828 50.6568 43.5288 53.3069 43.5288C55.904 43.5288 58.1299 44.4828 59.985 46.391C61.8401 48.246 62.7677 50.4456 62.7677 52.9896C62.7677 55.6397 61.8401 57.8925 59.985 59.7476C58.1299 61.6022 55.904 62.5297 53.3069 62.5297ZM154.196 72.3088C151.599 72.3088 149.372 71.3812 147.518 69.5261C145.663 67.671 144.735 65.4188 144.735 62.7683C144.735 60.1712 145.663 57.9454 147.518 56.0902C149.372 54.2352 151.599 53.3077 154.196 53.3077C156.793 53.3077 159.019 54.2352 160.874 56.0902C162.782 57.9454 163.736 60.1712 163.736 62.7683C163.736 65.4188 162.782 67.671 160.874 69.5261C159.019 71.3812 156.793 72.3088 154.196 72.3088ZM20.7108 72.3088C18.0608 72.3088 15.8082 71.3812 13.9531 69.5261C12.151 67.671 11.25 65.4188 11.25 62.7683C11.25 56.4615 14.4036 53.3077 20.7108 53.3077C23.3079 53.3077 25.534 54.2352 27.389 56.0902C29.2971 57.9454 30.2511 60.1712 30.2511 62.7683C30.2511 65.4188 29.2971 67.671 27.389 69.5261C25.534 71.3812 23.3079 72.3088 20.7108 72.3088ZM87.4929 125.973L78.0323 131.459L87.4929 136.865L96.9536 131.459L87.4929 125.973ZM64.9941 129.312C60.9126 130.001 59.1373 131.591 59.6672 134.083C60.1442 136.626 62.3436 137.501 66.2659 136.706C70.2411 136.07 71.9899 134.506 71.5129 132.015C71.0887 129.578 68.9158 128.676 64.9941 129.312Z" fill="url(#paint0_linear_301_40)"/>
<path d="M130.106 124.383C132.545 125.072 134.002 124.595 134.479 122.952C134.85 121.309 133.869 120.143 131.538 119.454C118.552 115.85 103.871 114.047 87.4929 114.047C70.9037 114.047 56.3282 115.85 43.7666 119.454C41.3285 120.143 40.3215 121.309 40.7455 122.952C41.1695 124.542 42.6005 125.045 45.0386 124.463C57.1759 121.124 71.4336 119.454 87.8113 119.454C104.03 119.454 118.128 121.097 130.106 124.383ZM110.231 129.312C106.256 128.676 104.056 129.578 103.632 132.015C103.155 134.453 104.93 136.043 108.959 136.785C112.881 137.527 115.054 136.626 115.478 134.083C115.955 131.698 114.206 130.107 110.231 129.312ZM127.88 142.192C131.167 142.192 132.81 140.389 132.81 136.785C132.81 134.984 132.173 133.552 130.902 132.492L120.487 136.308L127.88 142.192ZM47.1057 142.192L54.4994 136.388L44.0846 132.492C42.8125 133.606 42.1765 135.037 42.1765 136.785C42.1765 140.389 43.8196 142.192 47.1057 142.192ZM119.612 151.175C122.898 150.433 126.237 149.506 129.629 148.393C123.746 146.803 117.227 145.398 110.072 144.179C102.917 142.96 95.3904 142.351 87.4929 142.351C79.596 142.351 72.0698 142.96 64.9142 144.179C57.8121 145.398 51.3194 146.803 45.4362 148.393C48.8813 149.559 52.2204 150.486 55.4535 151.175C60.1178 150.275 65.1527 149.479 70.5589 148.79C75.9651 148.101 81.6098 147.757 87.4929 147.757C93.3233 147.757 98.9679 148.128 104.427 148.87C109.887 149.559 114.948 150.328 119.612 151.175ZM132.969 113.809L136.228 99.8961L126.052 111.901C128.702 112.537 131.007 113.173 132.969 113.809ZM118.022 110.947L115.478 94.1721L107.846 109.596C111.821 110.019 115.213 110.47 118.022 110.947ZM96.0795 108.085L87.4929 84.6315L78.9069 108.006C80.8149 107.899 83.6769 107.846 87.4929 107.846C90.3549 107.846 93.2175 107.926 96.0795 108.085ZM67.1406 109.596L59.508 94.1721L56.9638 110.868C59.9321 110.391 63.324 109.966 67.1406 109.596ZM49.0138 111.901L38.7579 99.8961L42.0971 113.73C43.6871 113.253 45.9927 112.643 49.0138 111.901ZM87.4929 52.7511C84.843 52.7511 82.5902 51.8236 80.7356 49.9686C78.8805 48.1135 77.9529 45.8609 77.9529 43.2108C77.9529 40.6667 78.8805 38.4672 80.7356 36.6121C82.5902 34.7041 84.843 33.75 87.4929 33.75C90.09 33.75 92.3164 34.7041 94.1715 36.6121C96.0266 38.4672 96.9536 40.6667 96.9536 43.2108C96.9536 45.8609 96.0266 48.1135 94.1715 49.9686C92.3164 51.8236 90.09 52.7511 87.4929 52.7511ZM138.772 121.203C139.726 123.058 140.203 124.993 140.203 127.007C140.203 130.134 139.196 132.784 137.183 134.957C137.341 135.54 137.421 136.149 137.421 136.785C137.421 139.966 136.44 142.616 134.479 144.736C134.691 145.478 134.797 146.299 134.797 147.2C134.797 152.872 132.438 156.396 127.721 157.774C115.69 161.803 102.281 163.816 87.4929 163.816C72.6525 163.816 59.2431 161.803 47.2647 157.774C42.5476 156.396 40.189 152.872 40.189 147.2C40.189 146.299 40.295 145.478 40.507 144.736C38.5459 142.616 37.5654 139.966 37.5654 136.785C37.5654 136.149 37.6449 135.54 37.8039 134.957C35.7898 132.89 34.7828 130.266 34.7828 127.086C34.7828 125.231 35.1538 123.509 35.8958 121.919L24.6859 71.6726L49.8088 100.85L54.9765 63.4044L71.1158 97.9881L87.4929 52.8306L103.871 97.9881L119.93 63.4044L125.098 100.85L150.3 71.5933L138.772 121.203ZM121.679 62.5297C119.029 62.5297 116.777 61.6022 114.922 59.7476C113.066 57.8925 112.139 55.6397 112.139 52.9896C112.139 50.4456 113.066 48.246 114.922 46.391C116.777 44.4828 119.029 43.5288 121.679 43.5288C124.277 43.5288 126.502 44.4828 128.357 46.391C130.213 48.246 131.14 50.4456 131.14 52.9896C131.14 55.6397 130.213 57.8925 128.357 59.7476C126.502 61.6022 124.277 62.5297 121.679 62.5297ZM53.3069 62.5297C50.6568 62.5297 48.4042 61.6022 46.5492 59.7476C44.6941 57.8925 43.7666 55.6397 43.7666 52.9896C43.7666 50.4456 44.6941 48.246 46.5492 46.391C48.4042 44.4828 50.6568 43.5288 53.3069 43.5288C55.904 43.5288 58.1299 44.4828 59.985 46.391C61.8401 48.246 62.7677 50.4456 62.7677 52.9896C62.7677 55.6397 61.8401 57.8925 59.985 59.7476C58.1299 61.6022 55.904 62.5297 53.3069 62.5297ZM154.196 72.3088C151.599 72.3088 149.372 71.3812 147.518 69.5261C145.663 67.671 144.735 65.4188 144.735 62.7683C144.735 60.1712 145.663 57.9454 147.518 56.0902C149.372 54.2352 151.599 53.3077 154.196 53.3077C156.793 53.3077 159.019 54.2352 160.874 56.0902C162.782 57.9454 163.736 60.1712 163.736 62.7683C163.736 65.4188 162.782 67.671 160.874 69.5261C159.019 71.3812 156.793 72.3088 154.196 72.3088ZM20.7108 72.3088C18.0608 72.3088 15.8082 71.3812 13.9531 69.5261C12.151 67.671 11.25 65.4188 11.25 62.7683C11.25 56.4615 14.4036 53.3077 20.7108 53.3077C23.3079 53.3077 25.534 54.2352 27.389 56.0902C29.2971 57.9454 30.2511 60.1712 30.2511 62.7683C30.2511 65.4188 29.2971 67.671 27.389 69.5261C25.534 71.3812 23.3079 72.3088 20.7108 72.3088ZM87.4929 125.973L78.0323 131.459L87.4929 136.865L96.9536 131.459L87.4929 125.973ZM64.9941 129.312C60.9126 130.001 59.1373 131.591 59.6672 134.083C60.1442 136.626 62.3436 137.501 66.2659 136.706C70.2411 136.07 71.9899 134.506 71.5129 132.015C71.0887 129.578 68.9158 128.676 64.9941 129.312Z" stroke="#FF7D05" stroke-width="4" mask="url(#path-1-outside-1_301_40)"/>
<g filter="url(#filter0_f_301_40)">
<path d="M130.106 124.383C132.544 125.072 134.002 124.595 134.479 122.952C134.85 121.309 133.869 120.143 131.537 119.454C118.552 115.85 103.87 114.047 87.4929 114.047C70.9031 114.047 56.3276 115.85 43.7664 119.454C41.3283 120.143 40.3212 121.309 40.7452 122.952C41.1693 124.542 42.6003 125.045 45.0384 124.463C57.1759 121.124 71.4336 119.454 87.8107 119.454C104.029 119.454 118.128 121.097 130.106 124.383ZM110.231 129.312C106.256 128.676 104.056 129.578 103.632 132.015C103.155 134.453 104.93 136.043 108.958 136.785C112.881 137.527 115.054 136.626 115.478 134.083C115.955 131.698 114.205 130.107 110.231 129.312ZM127.88 142.192C131.167 142.192 132.81 140.389 132.81 136.785C132.81 134.984 132.173 133.552 130.901 132.492L120.486 136.308L127.88 142.192ZM47.1055 142.192L54.4992 136.388L44.0844 132.492C42.8123 133.606 42.1763 135.037 42.1763 136.785C42.1763 140.389 43.8194 142.192 47.1055 142.192ZM119.612 151.175C122.898 150.433 126.237 149.506 129.629 148.393C123.746 146.803 117.227 145.398 110.072 144.179C102.916 142.96 95.3899 142.351 87.4929 142.351C79.5954 142.351 72.0692 142.96 64.9142 144.179C57.8121 145.398 51.3191 146.803 45.4359 148.393C48.881 149.559 52.2202 150.486 55.4533 151.175C60.1172 150.275 65.1527 149.479 70.5589 148.79C75.9651 148.101 81.6097 147.757 87.4929 147.757C93.3232 147.757 98.9679 148.128 104.427 148.87C109.886 149.559 114.948 150.328 119.612 151.175ZM132.968 113.809L136.228 99.8961L126.052 111.901C128.702 112.537 131.007 113.173 132.968 113.809ZM118.022 110.947L115.478 94.1721L107.845 109.596C111.821 110.019 115.213 110.47 118.022 110.947ZM96.0789 108.085L87.4929 84.6315L78.9064 108.006C80.8144 107.899 83.6769 107.846 87.4929 107.846C90.3549 107.846 93.2169 107.926 96.0789 108.085ZM67.14 109.596L59.508 94.1721L56.9638 110.868C59.9321 110.391 63.324 109.966 67.14 109.596ZM49.0135 111.901L38.7577 99.8961L42.0968 113.73C43.6869 113.253 45.9924 112.643 49.0135 111.901ZM87.4929 125.973L78.0323 131.459L87.4929 136.865L96.9536 131.459L87.4929 125.973ZM64.9935 129.312C60.9126 130.001 59.1368 131.591 59.6672 134.083C60.1442 136.626 62.3436 137.501 66.2659 136.706C70.2405 136.07 71.9899 134.506 71.5129 132.015C71.0887 129.578 68.9158 128.676 64.9935 129.312Z" fill="#FF7D05"/>
<path d="M136.4 123.51L136.417 123.452L136.43 123.393C136.736 122.035 136.491 120.675 135.552 119.558C134.7 118.545 133.441 117.931 132.104 117.536L132.088 117.531L132.072 117.527C118.88 113.865 104.013 112.047 87.4929 112.047C70.7659 112.047 55.9991 113.864 43.219 117.53C41.8437 117.919 40.5441 118.525 39.6689 119.538C38.688 120.674 38.4521 122.07 38.8086 123.452L38.8107 123.46L38.8128 123.467C39.1782 124.837 40.0741 125.917 41.4727 126.409C42.7171 126.846 44.1293 126.736 45.5028 126.408L45.536 126.4L45.5689 126.391C57.4908 123.112 71.5622 121.454 87.8107 121.454C103.898 121.454 117.809 123.084 129.57 126.31C130.944 126.697 132.372 126.861 133.65 126.443C135.087 125.972 136.002 124.88 136.4 123.51ZM110.623 127.351L110.585 127.343L110.547 127.337C108.419 126.997 106.442 127.005 104.842 127.66C103.081 128.382 101.994 129.799 101.665 131.652C101.306 133.518 101.837 135.241 103.271 136.526C104.565 137.684 106.446 138.356 108.592 138.751C110.696 139.149 112.679 139.184 114.296 138.513C115.529 138.002 116.41 137.141 116.942 136.044L119.241 137.873L126.635 143.757L127.181 144.192H127.88C129.882 144.192 131.736 143.634 133.056 142.187C134.343 140.775 134.81 138.852 134.81 136.785C134.81 134.449 133.953 132.432 132.181 130.956L131.296 130.217L130.213 130.614L119.798 134.43L117.213 135.377C117.312 135.079 117.39 134.767 117.445 134.443C117.804 132.598 117.273 130.898 115.869 129.621C114.597 128.465 112.743 127.775 110.623 127.351ZM47.1055 144.192H47.7967L48.3404 143.765L55.7341 137.961L58.2131 136.015C58.7641 137.133 59.6717 138.002 60.9356 138.505C62.5574 139.15 64.5301 139.094 66.6226 138.674C68.7322 138.333 70.6011 137.701 71.8917 136.547C73.3351 135.257 73.832 133.517 73.4803 131.655C73.1546 129.812 72.0833 128.39 70.3312 127.664C68.7392 127.003 66.7774 126.997 64.6734 127.338L64.6734 127.338L64.6605 127.34C62.4885 127.707 60.575 128.36 59.2668 129.532C57.8079 130.838 57.3133 132.597 57.706 134.476C57.7791 134.858 57.8827 135.223 58.0169 135.569L55.1999 134.515L44.7851 130.619L43.6658 130.2L42.7668 130.987C41.0445 132.496 40.1763 134.483 40.1763 136.785C40.1763 138.852 40.6435 140.775 41.9305 142.187C43.2495 143.634 45.1038 144.192 47.1055 144.192ZM119.255 153.143L119.655 153.216L120.053 153.126C123.404 152.369 126.804 151.425 130.253 150.293L136.609 148.208L130.151 146.462C124.196 144.853 117.614 143.435 110.408 142.207L110.072 144.179L110.408 142.207C103.132 140.968 95.4926 140.351 87.4929 140.351C79.4927 140.351 71.8536 140.968 64.5783 142.207L64.5759 142.208C57.4227 143.436 50.8674 144.853 44.9141 146.462L38.5637 148.179L44.7947 150.287C48.3063 151.476 51.7205 152.424 55.0364 153.131L55.4336 153.216L55.8322 153.139C60.4491 152.248 65.4422 151.458 70.8117 150.774C76.1277 150.096 81.6875 149.757 87.4929 149.757C93.2383 149.757 98.7928 150.123 104.158 150.852L104.167 150.853L104.177 150.854C109.605 151.539 114.631 152.303 119.255 153.143ZM132.351 115.711L134.419 116.382L134.915 114.265L138.175 100.352L134.702 98.6029L124.526 110.608L122.425 113.087L125.585 113.846C128.2 114.473 130.452 115.096 132.351 115.711ZM117.687 112.919L120.414 113.382L119.999 110.647L117.455 93.8722L116.503 87.5918L113.685 93.285L106.052 108.709L104.78 111.281L107.633 111.585C111.583 112.005 114.931 112.451 117.687 112.919ZM95.968 110.082L99.0014 110.25L97.957 107.397L89.371 83.944L87.4961 78.8225L85.6155 83.9419L77.029 107.316L75.9796 110.173L79.0184 110.003C80.8682 109.899 83.6849 109.846 87.4929 109.846C90.3176 109.846 93.1426 109.925 95.968 110.082ZM67.333 111.587L70.218 111.307L68.9325 108.709L61.3005 93.2851L58.4866 87.5983L57.5308 93.8708L54.9866 110.567L54.5735 113.278L57.2811 112.843C60.1993 112.374 63.5486 111.954 67.333 111.587ZM49.4905 113.843L52.642 113.069L50.5341 110.602L40.2783 98.597L36.8135 100.365L40.1526 114.199L40.6482 116.253L42.6715 115.646C44.2128 115.183 46.4796 114.583 49.4905 113.843ZM88.4962 124.243L87.4929 123.661L86.4896 124.243L77.029 129.729L74.0234 131.472L77.04 133.195L86.5006 138.601L87.4929 139.168L88.4851 138.602L97.9459 133.195L100.962 131.472L97.9569 129.729L88.4962 124.243Z" stroke="#FF4105" stroke-opacity="0.34" stroke-width="4"/>
</g>
<defs>
<filter id="filter0_f_301_40" x="26.6915" y="68.0136" width="121.897" height="92.2429" filterUnits="userSpaceOnUse" color-interpolation-filters="sRGB">
<feFlood flood-opacity="0" result="BackgroundImageFix"/>
<feBlend mode="normal" in="SourceGraphic" in2="BackgroundImageFix" result="shape"/>
<feGaussianBlur stdDeviation="2.5" result="effect1_foregroundBlur_301_40"/>
</filter>
<linearGradient id="paint0_linear_301_40" x1="87.186" y1="19.6466" x2="88.1455" y2="203.456" gradientUnits="userSpaceOnUse">
<stop stop-color="#531264"/>
<stop offset="0.882482" stop-color="#361500"/>
</linearGradient>
</defs>
</svg>
