<svg width="180" height="180" viewBox="0 0 180 180" fill="none" xmlns="http://www.w3.org/2000/svg">
<path d="M74.9722 93.8082H73.9722V94.8082V104.984V105.984H74.9722H102.083H103.083V104.984V94.8082V93.8082H102.083H74.9722ZM119.854 110.307L119.777 109.391H118.858H91.2707H90.2707V110.391V119.567H86.8645V110.391V109.391H85.8645H58.3566H57.4516L57.3616 110.291L56.4142 119.762C53.9306 119.96 51.7592 120.98 49.9376 122.802C47.8971 124.842 46.8621 127.322 46.8621 130.187C46.8621 132.966 47.7535 135.344 49.5321 137.268C45.8609 140.381 44 144.402 44 149.267V164.135V165.135H45H132.055H133.055V164.135V149.267C133.055 144.441 131.211 140.4 127.578 137.198C129.366 135.249 130.273 132.899 130.273 130.187C130.273 127.315 129.206 124.834 127.113 122.797C125.295 120.982 123.131 119.963 120.655 119.763L119.854 110.307ZM118.302 105.984H119.4L119.298 104.891L118.344 94.7149L118.259 93.8082H117.348H107.489H106.489V94.8082V104.984V105.984H107.489H118.302ZM116.871 90.4021H117.969L117.867 89.3088L116.913 79.132L116.828 78.2253H115.917H91.2707H90.2707V79.2253V89.4021V90.4021H91.2707H116.871ZM115.35 74.819L116.459 74.8302L116.356 73.7258L115.461 64.1813L128.51 56.4742L129.001 56.184V55.6132V33.75V32.75H128.001H111.623H110.623V33.75V40.8593H99.0286V33.75V32.75H98.0286H79.1066H78.1066V33.75V40.8593H66.5116V33.75V32.75H65.5116H49.2932H48.2932V33.75V55.6132V56.1823L48.7824 56.4729L61.7584 64.182L60.9378 73.6535L60.8437 74.7398H61.9341H69.6459H70.6459V73.7398V64.6429H73.9722V73.7398V74.7398H74.9722H102.083H103.083V73.7398V64.6429H106.489V73.7398V74.7298L107.479 74.7397L115.35 74.819ZM59.349 89.301L59.2372 90.4021H60.3439H85.8645H86.8645V89.4021V79.2253V78.2253H85.8645H61.3778H60.4742L60.3829 79.1242L59.349 89.301ZM57.9174 104.81L57.8139 105.897L58.9055 105.905L69.6385 105.984L70.6459 105.991V104.984V94.8082V93.8L69.6378 93.8082L59.8588 93.8876L58.9569 93.895L58.8714 94.7928L57.9174 104.81ZM116.95 141.124C119.483 141.124 121.364 141.695 122.699 142.725C123.776 143.555 124.577 144.745 125.063 146.359H52.0584C52.5271 144.744 53.3197 143.555 54.3958 142.725C55.7299 141.696 57.6226 141.124 60.1853 141.124H116.95ZM118.851 53.5921L112.696 57.3161H88.5673H64.3596L58.2044 53.5921H118.851ZM57.3227 127.53H88.5673H119.733C120.985 127.53 121.737 127.81 122.17 128.193C122.58 128.556 122.866 129.156 122.866 130.187C122.866 131.251 122.577 131.873 122.162 132.247C121.729 132.639 120.981 132.923 119.733 132.923H57.3227C56.106 132.923 55.3799 132.641 54.9595 132.254C54.5546 131.881 54.2683 131.256 54.2683 130.187C54.2683 129.15 54.5509 128.548 54.9517 128.187C55.3721 127.808 56.1014 127.53 57.3227 127.53Z" fill="url(#paint0_linear_301_47)" stroke="#FF7D05" stroke-width="2"/>
<g filter="url(#filter0_f_301_47)">
<path fill-rule="evenodd" clip-rule="evenodd" d="M58.3566 110.391H85.8645V120.567H91.2707V110.391H118.858L118.302 104.984H107.489V94.8082H117.348L116.871 89.4021H91.2707V79.2253H115.917L115.36 73.8191L107.489 73.7398V63.6429H102.083V73.7398H74.9728V63.6429H69.6459V73.7398H61.9341L61.3778 79.2253H85.8645V89.4021H60.3444L59.8674 94.8876L69.6459 94.8082V104.984L58.9129 104.905L58.3566 110.391ZM102.083 94.8082H74.9728V104.984H102.083V94.8082Z" fill="#FF7D05"/>
<path d="M56.3668 110.189L56.1435 112.391H58.3566H83.8645V120.567V122.567H85.8645H91.2707H93.2707V120.567V112.391H118.858H121.074L120.848 110.186L120.292 104.779L120.107 102.984H118.302H109.489V96.8082H117.348H119.532L119.34 94.6324L118.863 89.2263L118.702 87.4021H116.871H93.2707V81.2253H115.917H118.134L117.906 79.0203L117.349 73.6141L117.166 71.8372L115.38 71.8192L109.489 71.7598V63.6429V61.6429H107.489H102.083H100.083V63.6429V71.7398H76.9728V63.6429V61.6429H74.9728H69.6459H67.6459V63.6429V71.7398H61.9341H60.1267L59.9443 73.538L59.388 79.0235L59.1647 81.2253H61.3778H83.8645V87.4021H60.3444H58.5108L58.3519 89.2288L57.8749 94.7143L57.6844 96.9054L59.8836 96.8875L67.6459 96.8245V102.969L58.9276 102.905L57.1068 102.892L56.9231 104.703L56.3668 110.189ZM76.9728 102.984V96.8082H100.083V102.984H76.9728Z" stroke="#FF4105" stroke-opacity="0.34" stroke-width="4"/>
</g>
<g filter="url(#filter1_f_301_47)">
<path fill-rule="evenodd" clip-rule="evenodd" d="M126.331 147.359C125.43 142.536 122.303 140.124 116.95 140.124H60.1852C54.779 140.124 51.6519 142.536 50.8039 147.359H126.331ZM88.5679 126.53H57.3232C54.62 126.53 53.2685 127.749 53.2685 130.187C53.2685 132.678 54.62 133.923 57.3232 133.923H119.733C122.489 133.923 123.867 132.678 123.867 130.187C123.867 127.749 122.489 126.53 119.733 126.53H88.5679Z" fill="#FF7D05"/>
<path d="M126.331 149.359H128.739L128.297 146.992C127.779 144.219 126.572 141.923 124.531 140.349C122.512 138.792 119.913 138.124 116.95 138.124H60.1852C57.2011 138.124 54.5863 138.789 52.5638 140.349C50.5162 141.928 49.3228 144.233 48.8341 147.013L48.4216 149.359H50.8039H126.331ZM88.5679 124.53H57.3232C55.7114 124.53 54.1291 124.889 52.9426 125.959C51.7169 127.065 51.2685 128.603 51.2685 130.187C51.2685 131.785 51.7095 133.338 52.927 134.46C54.1134 135.553 55.7022 135.923 57.3232 135.923H119.733C121.372 135.923 122.975 135.557 124.174 134.473C125.413 133.354 125.867 131.796 125.867 130.187C125.867 128.592 125.405 127.049 124.159 125.946C122.959 124.885 121.363 124.53 119.733 124.53H88.5679Z" stroke="#FF4105" stroke-opacity="0.34" stroke-width="4"/>
</g>
<g filter="url(#filter2_f_301_47)">
<path d="M122.436 52.5922H54.62L64.0806 58.3166H88.5679H112.975L122.436 52.5922Z" fill="#FF7D05"/>
<path d="M123.471 54.3034L129.605 50.5922H122.436H54.62H47.4513L53.5846 54.3033L63.0452 60.0277L63.5226 60.3166H64.0806H88.5679H112.975H113.533L114.01 60.0278L123.471 54.3034Z" stroke="#FF4105" stroke-opacity="0.34" stroke-width="4"/>
</g>
<defs>
<filter id="filter0_f_301_47" x="48.9305" y="54.6429" width="79.3599" height="74.9241" filterUnits="userSpaceOnUse" color-interpolation-filters="sRGB">
<feFlood flood-opacity="0" result="BackgroundImageFix"/>
<feBlend mode="normal" in="SourceGraphic" in2="BackgroundImageFix" result="shape"/>
<feGaussianBlur stdDeviation="2.5" result="effect1_foregroundBlur_301_47"/>
</filter>
<filter id="filter1_f_301_47" x="41.0392" y="117.53" width="95.1082" height="38.829" filterUnits="userSpaceOnUse" color-interpolation-filters="sRGB">
<feFlood flood-opacity="0" result="BackgroundImageFix"/>
<feBlend mode="normal" in="SourceGraphic" in2="BackgroundImageFix" result="shape"/>
<feGaussianBlur stdDeviation="2.5" result="effect1_foregroundBlur_301_47"/>
</filter>
<filter id="filter2_f_301_47" x="35.2826" y="43.5922" width="106.491" height="23.7244" filterUnits="userSpaceOnUse" color-interpolation-filters="sRGB">
<feFlood flood-opacity="0" result="BackgroundImageFix"/>
<feBlend mode="normal" in="SourceGraphic" in2="BackgroundImageFix" result="shape"/>
<feGaussianBlur stdDeviation="2.5" result="effect1_foregroundBlur_301_47"/>
</filter>
<linearGradient id="paint0_linear_301_47" x1="88.3522" y1="19.612" x2="90.0411" y2="203.861" gradientUnits="userSpaceOnUse">
<stop stop-color="#531264"/>
<stop offset="0.882482" stop-color="#361500"/>
</linearGradient>
</defs>
</svg>
