<svg width="180" height="180" viewBox="0 0 180 180" fill="none" xmlns="http://www.w3.org/2000/svg">
<path d="M92.2286 36.2923H67.3684V25.2838H86.7448V16.875H97.713V25.2838H117.049V36.2923H92.2286ZM121.68 97.3879L146.947 58.6344H37.3485L62.7778 97.3879H121.68ZM128.301 108.518H56.1159L16.875 47.6259H167.583L128.301 108.518ZM86.7448 67.0433H97.713V86.1761H86.7448V67.0433ZM81.8297 86.1761L68.6683 86.2166L55.141 67.1242H68.5462L81.8297 86.1761ZM102.628 86.1761L116.034 67.0433L129.317 67.0837L116.196 86.1761H102.628ZM67.3684 130.576V150.034H117.049V130.576H67.3684ZM56.1159 119.567H128.301V161.327H56.1159V119.567Z" fill="#430D27"/>
<path d="M121.68 97.3879L146.946 58.6344H37.3484L62.7778 97.3879H121.68ZM86.7448 67.0432H97.7124V86.1761H86.7448V67.0432ZM81.8297 86.1761L68.6677 86.2166L55.1408 67.1242H68.5462L81.8297 86.1761ZM102.628 86.1761L116.033 67.0432L129.316 67.0837L116.196 86.1761H102.628ZM67.3678 130.576V150.034H117.049V130.576H67.3678Z" fill="white"/>
</svg>
