<svg width="180" height="180" viewBox="0 0 180 180" fill="none" xmlns="http://www.w3.org/2000/svg">
<path d="M133.174 123.467L133.214 88.9386L117.047 72.7712L106.16 77.6048L122.165 93.6506V123.467H133.174ZM86.0518 53.6786C81.4483 53.6786 79.1466 55.9805 79.1466 60.5841C79.1466 65.1881 81.4483 67.4899 86.0518 67.4899C90.6829 67.4899 92.9981 65.1881 92.9981 60.5841C92.9981 55.9805 90.6829 53.6786 86.0518 53.6786ZM72.8094 44.6199C73.9468 44.349 75.2468 43.7127 76.7087 42.7106C78.0362 41.7899 79.0785 40.8014 79.8368 39.7452L88.5707 33.6113L79.8773 24.8369L87.8394 16.875L151.413 80.7328V161.083L54.5293 161.043V149.303L76.7902 102.1L45.6331 113.474L28.125 75.9392L72.8094 44.6199Z" fill="#430D27"/>
<path d="M133.174 123.467L133.214 88.9386L117.047 72.7712L106.16 77.6048L122.165 93.6506V123.467H133.174ZM86.0518 53.6786C81.4483 53.6786 79.146 55.9805 79.146 60.5846C79.146 65.1881 81.4483 67.4899 86.0518 67.4899C90.6829 67.4899 92.9982 65.1881 92.9982 60.5846C92.9982 55.9805 90.6829 53.6786 86.0518 53.6786Z" fill="#C94E4E"/>
</svg>
