<svg width="180" height="180" viewBox="0 0 180 180" fill="none" xmlns="http://www.w3.org/2000/svg">
<path d="M88.5302 55.5878C93.5398 55.5878 96.0452 58.0927 96.0452 63.1029C96.0452 68.1131 93.5398 70.6179 88.5302 70.6179C83.547 70.6179 81.0557 68.1131 81.0557 63.1029C81.0557 58.0927 83.547 55.5878 88.5302 55.5878ZM129.842 125.133H118.834V95.3162L102.829 79.2703L113.716 74.3957L129.884 90.6041L129.842 125.133ZM151.413 149.75V161.083H54.57L54.4887 149.79L76.7902 102.1L45.6331 113.474L28.125 75.9392L88.5707 33.6113L79.8773 24.8369L87.8394 16.875L151.413 80.8954L151.413 149.75ZM91.8203 96.4941L66.96 149.79H140.445L140.486 85.3234L96.8169 41.6544L42.3427 79.758L51.4014 99.216L94.4201 83.5357L98.2794 94.0972L91.8203 96.4941Z" fill="#430D27"/>
<path d="M88.5302 55.5878C93.5398 55.5878 96.0452 58.0928 96.0452 63.103C96.0452 68.1131 93.5398 70.618 88.5302 70.618C83.547 70.618 81.0557 68.1131 81.0557 63.103C81.0557 58.0928 83.547 55.5878 88.5302 55.5878ZM129.842 125.133H118.834V95.3162L102.829 79.2703L113.716 74.3957L129.883 90.6041L129.842 125.133ZM91.8202 96.4941L66.9594 149.79H140.445L140.485 85.3234L96.8169 41.6545L42.3427 79.758L51.4014 99.216L94.4201 83.5358L98.2794 94.0978L91.8202 96.4941Z" fill="white"/>
</svg>
