<svg width="144" height="144" viewBox="0 0 144 144" fill="none" xmlns="http://www.w3.org/2000/svg">
<path d="M61.8913 10.5449C61.8913 12.2434 62.8728 13.6994 64.293 14.4221C64.1102 14.8306 64.0079 15.2831 64.0079 15.7606C64.0079 17.3417 65.1164 18.6323 66.577 18.9992C66.5651 19.4236 66.3513 19.8685 65.8758 20.3652C65.2443 21.025 64.2692 21.6362 63.1783 22.1646C62.1022 22.6857 60.9853 23.0925 60.13 23.3701C59.7043 23.5083 59.3476 23.6132 59.0989 23.6831C58.9747 23.718 58.8776 23.7441 58.8126 23.7613C58.7801 23.7699 58.7556 23.7762 58.7398 23.7802L58.7227 23.7846L58.7191 23.7855L58.719 23.7855L58.7187 23.7856L58.7186 23.7856L57.9606 23.9744V23.9793C48.0001 26.4472 41.1953 31.1213 39.7961 39.0965L39.7956 39.0997C39.2013 42.5521 40.0041 46.3316 41.228 49.7156C42.1935 52.3849 43.4456 54.8744 44.5728 56.8646H41.1213H40.1213V57.8646V66.1795V67.1795H41.1213H48.7877L39.7021 121.494H30.1606H29.1606V122.494V130.205V131.205H30.1606H35.548V131.548H30.0094H29.0094V132.548V140.258V141.258H30.0094H113.802H114.802V140.258V132.548V131.548H113.802H108.792V131.205H113.953H114.953V130.205V122.494V121.494H113.953H104.608L94.2245 67.1795H103.03H104.03V66.1795V57.8646V56.8646H103.03H98.7847C99.9119 54.8744 101.164 52.3849 102.129 49.7156C103.353 46.3316 104.156 42.5521 103.562 39.0997L103.561 39.0965C102.005 30.227 93.7765 25.4447 81.9144 23.2273C81.2043 22.8301 80.0347 22.1162 79.0146 21.2229C78.1037 20.4254 77.4642 19.6163 77.223 18.8708C78.4785 18.3854 79.3874 17.1917 79.3874 15.7606C79.3874 15.2831 79.2851 14.8307 79.1022 14.4221C80.5225 13.6994 81.5039 12.2434 81.5039 10.5449C81.5039 8.114 79.4953 6.1811 77.0646 6.1811C76.8044 6.1811 76.549 6.2032 76.3004 6.24566C75.75 4.24351 73.9733 2.74173 71.811 2.74173C69.6335 2.74173 67.8467 4.26424 67.31 6.28783C66.9945 6.21793 66.6667 6.1811 66.3307 6.1811C63.9 6.1811 61.8913 8.114 61.8913 10.5449Z" fill="#9692AF" stroke="#111111" stroke-width="2"/>
<path d="M76.1092 18.3891C76.116 18.3755 76.1197 18.3685 76.1197 18.3685L76.0819 18.3307C76.0819 18.3307 76.0913 18.3512 76.1092 18.3891Z" fill="#69779B"/>
<path d="M76.1092 18.3891C75.9636 18.6814 74.3804 22.0053 76.8 23.811C78.0441 24.7535 80.2189 25.5174 82.4992 26.3183C84.791 27.1233 87.1895 27.9657 88.8567 29.0646C89.3513 29.3869 89.8965 29.7125 90.4669 30.0531C93.7762 32.0291 97.9331 34.5114 97.9654 39.7984C98.0409 45.9968 96.7181 48.7181 92.7118 53.0646C88.6677 57.4488 86.0976 57.8268 86.0976 57.8268H96.9827C96.9827 57.8268 100.271 52.0819 101.14 49.285L101.145 49.2683C102.014 46.4741 103.104 42.9657 102.501 39.1937C101.896 35.4142 99.0992 30.6898 94.715 28.611C93.1978 27.8786 92.3414 27.4223 91.7386 27.101C90.5995 26.494 90.3659 26.3696 88.2898 25.7764C85.3588 24.9289 84.8034 24.8072 84.4656 24.7332C84.4419 24.728 84.4192 24.7231 84.3969 24.7181C84.0567 24.6425 80.8063 23.6976 80.8063 23.6976C80.8063 23.6976 79.1055 22.7528 78.1606 21.7701C77.302 20.8771 76.2873 18.767 76.1092 18.3891Z" fill="#69779B"/>
<path d="M87.3827 66.1795L86.0976 57.8646H103.03V66.1795L93.052 66.1795L103.937 122.457H113.991V130.167L107.906 130.054V132.435L113.839 132.548V140.258H101.896C101.896 140.258 101.215 136.354 100.005 132.472H36.6614V130.091H99.1833C98.7299 128.929 98.2896 128.172 97.8519 127.419C96.6592 125.369 95.4847 123.35 94.1102 113.235C92.2583 99.326 88.4409 71.622 88.4409 71.622L53.1959 66.1795L87.3827 66.1795Z" fill="#69779B"/>
<path d="M53.1959 66.1795L52.9512 66.1417V66.1795H53.1959Z" fill="#69779B"/>
</svg>
