<svg width="144" height="144" viewBox="0 0 144 144" fill="none" xmlns="http://www.w3.org/2000/svg">
<path d="M90.7197 66.9906H103.03H104.03V65.9906V57.6756V56.6756H103.03H93.7091L105.248 34.7997C105.661 34.9159 106.096 34.978 106.545 34.978C109.185 34.978 111.324 32.8381 111.324 30.1984C111.324 27.5588 109.185 25.4189 106.545 25.4189C103.905 25.4189 101.765 27.5588 101.765 30.1984C101.765 30.6374 101.825 31.0633 101.936 31.4682L88.8241 38.2875L89.9597 18.8981C92.2553 18.5488 94.0142 16.5664 94.0142 14.1732C94.0142 11.5336 91.8743 9.39371 89.2346 9.39371C86.595 9.39371 84.4551 11.5336 84.4551 14.1732C84.4551 15.2602 84.8187 16.2629 85.4294 17.0655L71.1881 33.6307L56.9429 17.0311C57.5551 16.228 57.9197 15.224 57.9197 14.1354C57.9197 11.4958 55.7798 9.35591 53.1402 9.35591C50.5005 9.35591 48.3606 11.4958 48.3606 14.1354C48.3606 16.5285 50.1194 18.5108 52.4148 18.8603L53.5506 38.2826L40.4734 31.4415C40.5868 31.0333 40.6473 30.6036 40.6473 30.1606C40.6473 27.521 38.5074 25.3811 35.8677 25.3811C33.2281 25.3811 31.0882 27.521 31.0882 30.1606C31.0882 32.8003 33.2281 34.9402 35.8677 34.9402C36.3155 34.9402 36.7497 34.8783 37.1618 34.7626L48.7055 56.6756H41.1213H40.1213V57.6756V65.9906V66.9906H41.1213H52.314L39.8216 121.268H30.1606H29.1606V122.268V129.978V130.978H30.1606H35.548V131.321H30.0095H29.0095V132.321V140.031V141.031H30.0095H113.802H114.802V140.031V132.321V131.321H113.802H108.792V130.978H113.953H114.953V129.978V122.268V121.268H113.953H104.436L90.7197 66.9906Z" fill="#D7EAEA" stroke="#111111" stroke-width="2"/>
<path d="M87.8362 17.6882L91.5024 11.1496V11.1118C96.2268 16.7055 89.3481 17.915 89.3481 17.915L87.7229 39.9874L103.181 31.937L103.196 31.9516C102.921 31.4276 102.765 30.8312 102.765 30.1984C102.765 28.1111 104.458 26.4189 106.545 26.4189C108.632 26.4189 110.324 28.1111 110.324 30.1984C110.324 32.2858 108.632 33.978 106.545 33.978C105.901 33.978 105.295 33.8169 104.764 33.5329L92.0315 57.6756H103.03V65.9528L89.4236 65.9528L103.899 122.23H113.953V129.94H107.868V132.208L113.802 132.321V140.031H101.858C101.858 140.031 101.177 136.127 99.9671 132.246H36.6614V129.865H99.1455C98.6921 128.702 98.2519 127.945 97.8141 127.193C96.6214 125.143 95.4469 123.124 94.0724 113.008C92.2205 99.0992 84.5102 70.7906 84.5102 70.7906L53.1583 65.9528L85.4174 65.9528V57.6756H78.7654L87.8362 17.6882Z" fill="#91CBD0"/>
<path d="M53.1583 65.9528H52.9512L52.9134 65.915L53.1583 65.9528Z" fill="#91CBD0"/>
</svg>
