<svg width="16" height="16" viewBox="0 0 16 16" fill="none" xmlns="http://www.w3.org/2000/svg">
<path d="M7 1H9V2H10V4H9V5H7V4H6V2H7V1Z" fill="#111111"/>
<path d="M2 9V7H1V5H3V6H4V7H5V8H6V7H7V6H9V7H10V8H11V7H12V6H13V5H15V7H14V9H13V11H12V13H13V15H3V13H4V11H3V9H2Z" fill="#111111"/>
<path d="M9 2H7V4H9V2Z" fill="#113CFC"/>
<path d="M13 7H12V8H11V9H10V8H9V7H7V8H6V9H5V8H4V7H3V9H4V11H5V12H11V11H12V9H13V7Z" fill="#113CFC"/>
<path d="M12 14V13H4V14H12Z" fill="#113CFC"/>
<path d="M7 2H8V4H7V2Z" fill="#1597E5"/>
<path d="M3 7H4V8H5V9H6V12H5V11H4V9H3V7Z" fill="#1597E5"/>
<path d="M7 8V9H6V8H7Z" fill="#1597E5"/>
<path d="M7 8H8V7H7V8Z" fill="#1597E5"/>
<path d="M4 13V14H6V13H4Z" fill="#1597E5"/>
<path d="M7 2H8V3H7V2Z" fill="#69DADB"/>
<path d="M3 7H4V9H3V7Z" fill="#69DADB"/>
<path d="M3 7H2V6H3V7Z" fill="#69DADB"/>
<path d="M9 2H8V4H9V2Z" fill="#193498"/>
<path d="M13 7H12V8H11V10H10V11H9V12H11V11H12V9H13V7Z" fill="#193498"/>
<path d="M13 7V6H14V7H13Z" fill="#193498"/>
<path d="M9 13V14H12V13H9Z" fill="#193498"/>
</svg>
