<svg width="180" height="180" viewBox="0 0 180 180" fill="none" xmlns="http://www.w3.org/2000/svg">
<g clip-path="url(#clip0_5_599)">
<path d="M149.635 151.122C148.231 153.482 148.544 156.58 150.575 158.611C152.976 161.012 156.869 161.012 159.27 158.611C161.671 156.209 161.671 152.316 159.27 149.915C157.189 147.834 153.987 147.557 151.608 149.083C149.634 142.389 149.77 136.038 149.962 127.148C150.012 124.808 150.066 122.292 150.086 119.548C150.176 111.758 147.213 103.993 141.288 98.068C135.363 92.1428 127.597 89.1804 119.832 89.1804C115.114 89.1663 110.817 86.4839 107.456 83.4805L108.9 82.0364L97.9496 71.0864L97.285 71.751C94.4854 68.7305 91.4914 64.6026 91.2261 59.4608C91.2261 51.6952 88.2633 43.9296 82.3381 38.0048C80.8569 36.5236 79.3445 35.2716 77.7909 34.2236C76.2861 33.205 74.679 32.3466 72.9957 31.6624C71.3493 30.9944 69.6513 30.5032 67.8917 30.1628L67.7395 30.1339C65.7613 29.7578 64.7899 29.5731 62.5057 29.52L62.4341 42.0724L51.4373 42.3936L51.5121 29.4688C50.9226 29.4749 50.3452 29.4817 49.7788 29.4883L49.7221 29.489C47.2139 29.5186 44.9232 29.5456 42.7673 29.4992C40.1089 29.442 37.6549 29.2728 35.2501 28.8588C33.8291 28.6174 32.4268 28.2821 31.0525 27.8555C32.4228 25.502 32.0997 22.4335 30.0833 20.417C27.6822 18.0159 23.7893 18.016 21.3882 20.4171C18.9871 22.8182 18.9871 26.7111 21.3882 29.1122C23.4857 31.2098 26.7218 31.4749 29.1073 29.9077C31.0794 36.5991 30.9429 42.9494 30.752 51.8363C30.7017 54.1764 30.6476 56.6927 30.6273 59.4372C30.5381 67.2268 33.5009 74.9924 39.4261 80.9172C45.3509 86.8424 53.1165 89.8048 60.8821 89.8048C66.3625 89.8212 71.2741 93.438 74.8121 96.976L75.1291 96.6582L83.2177 104.747L82.1045 105.862C85.1941 108.952 89.1797 113.555 89.4877 119.524C89.4877 127.29 92.4505 135.055 98.3753 140.98C99.8565 142.462 101.369 143.713 102.923 144.762C104.427 145.78 106.035 146.638 107.718 147.322C109.364 147.99 111.062 148.482 112.822 148.822L112.968 148.85C114.95 149.227 115.921 149.412 118.208 149.465L118.28 136.913L129.276 136.591L129.201 149.516C129.789 149.51 130.364 149.503 130.929 149.496C133.462 149.467 135.772 149.439 137.946 149.486C140.605 149.544 143.058 149.712 145.463 150.126C146.875 150.366 148.269 150.699 149.635 151.122Z" fill="#31112C" stroke="#31112C" stroke-width="4.00661"/>
<path d="M125.939 83.9325L84.6369 125.234C78.8299 125.303 74.8428 121.307 74.8545 115.452L116.156 74.1501C122.059 75.1529 125.399 77.9501 125.939 83.9325Z" fill="#F2A07B" stroke="#31112C" stroke-width="8.01322" stroke-linejoin="round"/>
<path d="M72.376 97.9888C77.77 98.7876 81.4652 101.547 82.158 107.771M100.376 69.9884C101.175 75.3828 103.934 79.078 110.158 79.7708" stroke="#31112C" stroke-width="4.00667"/>
<path d="M54.7196 95.0952L96.0216 53.7932C101.828 53.7248 105.816 57.72 105.804 63.5752L64.5016 104.878C58.5984 103.875 55.2588 101.078 54.7196 95.0956V95.0952Z" fill="#F2A07B" stroke="#31112C" stroke-width="8.01333" stroke-linejoin="round"/>
</g>
<defs>
<clipPath id="clip0_5_599">
<rect width="180" height="180" fill="white"/>
</clipPath>
</defs>
</svg>
