<svg width="181" height="180" viewBox="0 0 181 180" fill="none" xmlns="http://www.w3.org/2000/svg">
<path d="M80.1812 136.584C79.5782 137.875 79.2657 139.283 79.2657 140.708C79.2657 142.133 79.5782 143.541 80.1812 144.832C80.7704 146.099 81.6232 147.241 82.6768 148.2C83.73 149.158 84.9848 149.934 86.3776 150.47C87.8243 151.023 89.3607 151.305 90.9096 151.302C92.5176 151.302 94.0488 151.006 95.4416 150.47C96.8348 149.934 98.0892 149.158 99.1428 148.2C100.196 147.241 101.049 146.1 101.638 144.832C102.241 143.54 102.553 142.133 102.553 140.708C102.553 139.283 102.241 137.875 101.638 136.584" fill="#FBDCC4"/>
<path d="M80.1812 136.584C79.5782 137.875 79.2657 139.283 79.2657 140.708C79.2657 142.133 79.5782 143.541 80.1812 144.832C80.7704 146.099 81.6232 147.241 82.6768 148.2C83.73 149.158 84.9848 149.934 86.3776 150.47C87.8243 151.023 89.3607 151.305 90.9096 151.302C92.5176 151.302 94.0488 151.006 95.4416 150.47C96.8348 149.934 98.0892 149.158 99.1428 148.2C100.196 147.241 101.049 146.1 101.638 144.832C102.241 143.54 102.553 142.133 102.553 140.708C102.553 139.283 102.241 137.875 101.638 136.584" stroke="#31112C" stroke-width="6.01"/>
<path fill-rule="evenodd" clip-rule="evenodd" d="M81.5808 137.458L91.11 120.441L100.445 137.652L81.5808 137.458ZM81.304 42.0688L90.8336 59.0856L100.168 41.874L81.304 42.0688Z" fill="#FBDCC4"/>
<path d="M80.1812 43.4152C79.5783 42.1241 79.2658 40.7164 79.2658 39.2914C79.2658 37.8664 79.5783 36.4588 80.1812 35.1676C80.7704 33.9 81.6232 32.7588 82.6764 31.8C83.73 30.8416 84.9844 30.0656 86.3776 29.5296C87.8243 28.976 89.3606 28.6939 90.9096 28.6972C92.5172 28.6972 94.0488 28.9936 95.4416 29.5296C96.8348 30.0656 98.0892 30.8416 99.1424 31.8C100.196 32.7588 101.049 33.9 101.638 35.168C102.241 36.4591 102.553 37.8667 102.553 39.2916C102.553 40.7165 102.241 42.1241 101.638 43.4152" fill="#FBDCC4"/>
<path d="M80.1812 43.4152C79.5783 42.1241 79.2658 40.7164 79.2658 39.2914C79.2658 37.8664 79.5783 36.4588 80.1812 35.1676C80.7704 33.9 81.6232 32.7588 82.6764 31.8C83.73 30.8416 84.9844 30.0656 86.3776 29.5296C87.8243 28.976 89.3606 28.6939 90.9096 28.6972C92.5172 28.6972 94.0488 28.9936 95.4416 29.5296C96.8348 30.0656 98.0892 30.8416 99.1424 31.8C100.196 32.7588 101.049 33.9 101.638 35.168C102.241 36.4591 102.553 37.8667 102.553 39.2916C102.553 40.7165 102.241 42.1241 101.638 43.4152" stroke="#31112C" stroke-width="6.01"/>
<path d="M153.611 71.024C156.442 68.5908 158.733 65.6932 160.316 62.476C161.899 59.2588 162.774 55.7216 162.774 52.0084C162.774 48.2956 161.899 44.7584 160.316 41.5408C158.733 38.3236 156.442 35.4264 153.611 32.9928C150.78 30.56 147.41 28.5908 143.667 27.23C139.924 25.8692 135.809 25.1168 131.489 25.1168C127.17 25.1168 123.054 25.8692 119.312 27.23C115.569 28.5908 112.198 30.56 109.367 32.9932C106.536 35.4264 104.246 38.3236 102.662 41.5412C101.079 44.7584 96.3632 52.8732 91.028 63.056C86.2052 53.01 80.7208 44.7912 79.1376 41.574C77.5544 38.3568 75.2636 35.4596 72.4328 33.026C69.602 30.5928 66.2312 28.624 62.4884 27.2632C58.7456 25.9024 54.6304 25.1496 50.3108 25.1496C45.9908 25.1496 41.876 25.9024 38.1332 27.2632C34.39 28.624 31.0196 30.5928 28.1888 33.0264C25.358 35.4596 23.0672 38.3568 21.484 41.5744C19.9008 44.7912 19.0252 48.3288 19.0252 52.0416C19.0252 55.7544 19.9012 59.292 21.484 62.5092C23.0672 65.7264 25.3464 68.6372 28.1888 71.0572C33.968 75.9764 39.5792 82.0132 39.5792 90C39.5792 97.9872 33.9792 104.037 28.1888 108.943C25.358 111.376 23.0672 114.274 21.484 117.491C19.9008 120.708 19.0256 124.245 19.0256 127.958C19.0256 131.671 19.9008 135.208 21.484 138.426C23.0672 141.643 25.358 144.54 28.1888 146.974C31.0196 149.407 34.3904 151.376 38.1332 152.737C41.876 154.098 45.9912 154.85 50.3108 154.85C54.6308 154.85 58.7456 154.098 62.4884 152.737C66.2316 151.376 69.602 149.407 72.4328 146.974C75.2636 144.54 77.5544 141.643 79.1376 138.426C80.7208 135.208 86.2056 126.99 91.028 116.944C96.3632 127.127 101.08 135.242 102.662 138.459C104.246 141.676 106.536 144.574 109.367 147.007C112.198 149.44 115.569 151.409 119.312 152.77C123.055 154.131 127.17 154.883 131.489 154.883C135.809 154.883 139.924 154.131 143.667 152.77C147.41 151.409 150.781 149.44 153.611 147.007C156.442 144.574 158.733 141.676 160.316 138.459C161.899 135.242 162.775 131.704 162.775 127.992C162.775 124.278 161.899 120.741 160.316 117.524C158.733 114.307 156.442 111.409 153.612 108.976C147.821 104.07 142.649 97.5384 142.649 90C142.649 82.4616 147.82 75.9296 153.611 71.024Z" fill="#FBDCC4" stroke="#31112C" stroke-width="6.01"/>
<path d="M90.9 100L84.9 90L90.9 80L96.9 90L90.9 100ZM69.7 98L64.9 90L69.7 82L74.5 90L69.7 98ZM51.7 96L48.1 90L51.7 84L55.3 90L51.7 96ZM112.1 98L116.9 90L112.1 82L107.3 90L112.1 98ZM130.1 96L133.7 90L130.1 84L126.5 90L130.1 96Z" fill="#31112C"/>
<path d="M90.9 28.6V4.60001" stroke="#31112C" stroke-width="6.01"/>
<path d="M81.9 14.754H99.9" stroke="#31112C" stroke-width="6.36699"/>
<path d="M90.9 151.4V175.4" stroke="#31112C" stroke-width="6.01"/>
<path d="M81.9 165.246H99.9" stroke="#31112C" stroke-width="6.36699"/>
<path d="M38.6528 80.0288C77.1276 70.328 115.901 70.0764 143.381 80.2732M38.6528 99.9708C77.1276 109.672 115.901 109.924 143.381 99.7268" stroke="#31112C" stroke-width="6.01"/>
</svg>
