<svg width="181" height="180" viewBox="0 0 181 180" fill="none" xmlns="http://www.w3.org/2000/svg">
<path d="M74 105.988C79.3016 96.8056 80.5928 85.0208 74 73.6012H107.129C99.8348 86.2348 101.302 95.8964 107.129 105.988" stroke="#31112C" stroke-width="4.00667" stroke-linecap="round"/>
<path d="M73.584 115.322C70.252 119.362 68.4752 124.463 68.4652 129.582C68.4652 135.773 70.9744 141.377 75.0312 145.434C79.088 149.491 84.6924 152 90.8832 152C97.0736 152 102.678 149.491 106.735 145.434C110.792 141.377 113.301 135.773 113.301 129.582C113.298 124.345 111.437 119.282 108.182 115.322H73.584ZM73.584 64.6056C70.252 60.5664 68.4752 55.4648 68.4652 50.3456C68.4652 44.1552 70.9744 38.5508 75.0312 34.494C79.088 30.4372 84.6924 27.928 90.8832 27.928C97.0736 27.928 102.678 30.4372 106.735 34.494C110.792 38.5508 113.301 44.1552 113.301 50.346C113.298 55.5832 111.437 60.6468 108.182 64.6056" fill="#31112C"/>
<path d="M73.584 64.6056C70.252 60.5664 68.4752 55.4648 68.4652 50.3456C68.4652 44.1552 70.9744 38.5508 75.0312 34.494C79.088 30.4372 84.6924 27.928 90.8832 27.928C97.0736 27.928 102.678 30.4372 106.735 34.494C110.792 38.5508 113.301 44.1552 113.301 50.346C113.298 55.5832 111.437 60.6468 108.182 64.6056M73.584 115.322C70.252 119.362 68.4752 124.463 68.4652 129.582C68.4652 135.773 70.9744 141.377 75.0312 145.434C79.088 149.491 84.6924 152 90.8832 152C97.0736 152 102.678 149.491 106.735 145.434C110.792 141.377 113.301 135.773 113.301 129.582C113.298 124.345 111.437 119.282 108.182 115.322H73.584Z" stroke="#31112C" stroke-width="4.00667" stroke-linecap="round"/>
<path d="M66.2 116.382H115.412V105.239H66.2V116.382Z" fill="#F2A07B" stroke="#31112C" stroke-width="6.01" stroke-linecap="round" stroke-linejoin="round"/>
<path d="M66.2 61.9324H115.412V73.0756H66.2V61.9324Z" fill="#F2A07B" stroke="#31112C" stroke-width="6.01" stroke-linecap="round" stroke-linejoin="round"/>
<path d="M75.78 104.634C75.78 104.582 76.0796 103.646 76.4456 102.553C79.2184 94.2764 79.1676 85.4048 76.2988 77.0524L75.2168 73.9C75.096 73.546 75.9168 73.526 90.5016 73.526C98.9784 73.526 105.914 73.5644 105.914 73.6116C105.914 73.6588 105.474 74.7892 104.936 76.1228C101.526 84.5772 101.2 92.9428 103.961 101.14C104.408 102.468 104.886 103.764 105.024 104.021C105.161 104.277 105.273 104.541 105.273 104.608C105.273 104.674 98.6372 104.729 90.5264 104.729C82.416 104.729 75.78 104.686 75.78 104.634V104.634Z" fill="#31112C"/>
</svg>
