<svg width="512" height="512" viewBox="0 0 512 512" fill="none" xmlns="http://www.w3.org/2000/svg">
<path d="M192 341.25C191.167 347.75 189 354.583 185.5 361.75H326.5C323.5 355.75 321.333 348.917 320 341.25H192ZM315.75 323L327.25 304.75C303.583 296.583 279.833 292.667 256 293C232 292.667 208.25 296.583 184.75 304.75L196.25 323C215.917 316.333 235.833 313.167 256 313.5C276 313.167 295.917 316.333 315.75 323ZM207.75 379.75H156C167.167 360.417 173.167 341.333 174 322.5C155 302.667 141.5 284.042 133.5 266.625C125.5 249.208 125 230.583 132 210.75C137.5 194.75 147.333 178.958 161.5 163.375C175.667 147.792 201.667 127.25 239.5 101.75C236.667 99.9167 232.833 96.9167 228 92.75C223.167 88.5833 220.75 82 220.75 73C220.75 63.3333 224.167 55.3333 231 49C237.833 42.6667 246.167 39.5 256 39.5C265.667 39.5 273.958 42.6667 280.875 49C287.792 55.3333 291.25 63.3333 291.25 73C291.25 82 288.792 88.5833 283.875 92.75C278.958 96.9167 275.167 99.9167 272.5 101.75C310.167 127.25 336.083 147.792 350.25 163.375C364.417 178.958 374.333 194.75 380 210.75C387 230.583 386.5 249.208 378.5 266.625C370.5 284.042 357 302.667 338 322.5C338.667 341.333 344.667 360.417 356 379.75H304.25C303.917 379.083 304.75 380.417 306.75 383.75C312.25 392.583 318.083 397.583 324.25 398.75C330.417 399.917 337.833 400.5 346.5 400.5H409C421.667 400.5 433.458 405.667 444.375 416C455.292 426.333 460.75 441.25 460.75 460.75H337C316.5 460.75 297.875 453.708 281.125 439.625C264.375 425.542 256 409 256 390C256 409 247.583 425.542 230.75 439.625C213.917 453.708 195.333 460.75 175 460.75H51.25C51.25 441.25 56.6667 426.333 67.5 416C78.3333 405.667 90.1667 400.5 103 400.5H165.5C174 400.5 181.333 399.917 187.5 398.75C193.667 397.583 199.583 392.583 205.25 383.75C207.25 380.417 208.083 379.083 207.75 379.75ZM244.25 204.5H220.5V226.75H244.25V268H267.75V226.75H291.5V204.5H267.75V178.5H244.25V204.5Z" fill="#101010"/>
<path d="M190.385 351.674L193.599 341.912H318.401L321.615 351.674L324.829 361.437H187.171L190.385 351.674ZM191.269 312.737L186.856 305.257L198.106 301.99C219.272 295.843 241.209 293.591 266.847 294.932C280.569 295.65 295.213 297.177 299.39 298.326C303.566 299.474 311.084 301.477 316.097 302.777L325.212 305.141L320.765 312.679C315.683 321.292 314.937 321.427 297.868 316.825C280.688 312.194 231.311 312.194 214.131 316.825C197.074 321.424 196.315 321.288 191.269 312.737ZM245.152 245.369V224.759H221.288V205.234H245.153V179.2H266.847V205.234H290.712V224.759H266.847V265.979H245.152V245.369Z" fill="#ECECEC"/>
</svg>
