<svg width="512" height="512" viewBox="0 0 512 512" fill="none" xmlns="http://www.w3.org/2000/svg">
<path d="M125.5 217L112.5 217.25L106 233.25L123.25 238.5L134.75 224.75L125.5 217ZM259.5 170.25C265.167 170.417 263.833 164.75 255.5 153.25C247.167 141.75 240.5 138.25 235.5 142.75L206.5 170L259.5 170.25ZM175 145.75C176 139.25 185.625 130.292 203.875 118.875C222.125 107.458 240.5 95.5 259 83L287.75 44.5L311.75 98.75C368.75 127.417 404.792 162.208 419.875 203.125C434.958 244.042 438.917 294.333 431.75 354C428.75 375.333 429.125 395 432.875 413C436.625 431 441.417 446.833 447.25 460.5L136.75 460.75C135.25 431.083 138.5 405.958 146.5 385.375C154.5 364.792 169.75 345 192.25 326C200.583 324.167 207.458 320.875 212.875 316.125C218.292 311.375 222.75 306.5 226.25 301.5L241.875 301.25L276.375 294L311.125 269.75L327.75 218C327.75 215.167 327.042 212.333 325.625 209.5C324.208 206.667 323.25 203.583 322.75 200.25C312.417 238.25 299 262.292 282.5 272.375C266 282.458 250.083 287.333 234.75 287C195.417 280 171.083 285 161.75 302L147.75 327.5L93.5 297.25L122.25 276.75L109.5 264.25L79 285.75L76 211.5L175 145.75ZM420.25 443.75C403.25 422.083 396.167 396.375 399 366.625C401.833 336.875 404.083 306.667 405.75 276C407.417 245.333 403.25 216.042 393.25 188.125C383.25 160.208 356.917 137.25 314.25 119.25C350.917 146.583 371.958 175.083 377.375 204.75C382.792 234.417 384.167 263.625 381.5 292.375C378.833 321.125 377.833 348.542 378.5 374.625C379.167 400.708 393.083 423.75 420.25 443.75Z" fill="#101010"/>
<path d="M400.326 423.26C380.056 400.823 377.43 384.125 381.769 305.248C386.864 212.635 379.581 181.468 344.13 144.163C337.043 136.705 332.176 130.604 333.316 130.604C337.57 130.604 358.343 145.212 369.478 156.035C383.741 169.898 391.013 183.008 396.888 205.451C405.636 238.872 406.274 255.936 401.22 321.405C396.222 386.145 396.834 399.56 405.734 420.323C408.159 425.979 409.767 430.983 409.308 431.442C408.848 431.902 404.807 428.22 400.326 423.26V423.26ZM224.175 155.333C238.096 142.016 239.281 141.342 243.701 144.238C250.218 148.508 262.802 165.255 261.308 167.671C260.634 168.762 248.669 169.622 234.719 169.582L209.356 169.51L224.175 155.333ZM116.067 235.362C109.207 233.712 108.25 231.691 110.827 224.297C112.748 218.788 114.448 217.383 119.198 217.383C122.476 217.383 126.788 219.185 128.781 221.387C132.179 225.142 132.123 225.75 127.875 231.15C125.384 234.317 122.684 236.795 121.876 236.657C121.068 236.519 118.454 235.936 116.067 235.362Z" fill="#ECECEC"/>
</svg>
