<svg width="512" height="512" viewBox="0 0 512 512" fill="none" xmlns="http://www.w3.org/2000/svg">
<path d="M251 273C256.167 275.833 260.667 279.333 264.5 283.5C268 281 271.042 279.875 273.625 280.125C276.208 280.375 279 280.25 282 279.75C295 277.917 305.708 270.833 314.125 258.5C322.542 246.167 326.917 232.417 327.25 217.25L322.5 200.5C313.333 240.333 297.667 261.75 275.5 264.75C272 265.25 268.25 265.708 264.25 266.125C260.25 266.542 255.833 268.833 251 273ZM186.5 160.75L175 145.75C176 139.25 185.625 130.292 203.875 118.875C222.125 107.458 240.5 95.5 259 83L287.75 44.5L311.75 98.75C368.75 127.417 404.792 162.208 419.875 203.125C434.958 244.042 438.917 294.333 431.75 354C428.75 375.333 429.125 395.042 432.875 413.125C436.625 431.208 441.417 447.083 447.25 460.75H136.75C135.25 431.083 138.5 405.958 146.5 385.375C154.5 364.792 169.75 345 192.25 326C205.25 323.333 214.833 317.417 221 308.25C227.167 299.083 231.75 292 234.75 287C195.417 280 171.083 285 161.75 302L147.75 327.5L93.5 297.25L122.25 276.75L109.5 264.25L79 285.75L76 211.5L175 145.75C177 148.75 178.917 151.333 180.75 153.5C182.583 155.667 184.5 158.083 186.5 160.75L95 221L96 252.25L112 242L146.5 278L127 294.25L138.75 301.25L148.375 290L175.5 271.75C184.5 268.75 198.25 266.5 216.75 265C235.25 263.5 251.167 269.667 264.5 283.5C255.167 294 247.583 305.042 241.75 316.625C235.917 328.208 223.25 336.75 203.75 342.25C188.417 355.417 176.25 370.125 167.25 386.375C158.25 402.625 154.25 421.25 155.25 442.25H410C404.167 420.083 401.5 400.542 402 383.625C402.5 366.708 403.542 350.125 405.125 333.875C406.708 317.625 407.458 300.542 407.375 282.625C407.292 264.708 403.917 243.667 397.25 219.5C388.75 198.5 377.583 179 363.75 161C349.917 143 328.083 127.333 298.25 114L283.5 80.75L271.25 98C254.75 108.333 237.417 119.25 219.25 130.75C201.083 142.25 190.167 152.25 186.5 160.75ZM259.5 168.25L206.5 167.75L235.5 142.75C240.5 138.583 247.167 141.792 255.5 152.375C263.833 162.958 265.167 168.25 259.5 168.25ZM125.5 217L134.75 224.75L123.25 238.5L109 232L117.25 218L125.5 217Z" fill="#101010"/>
<path d="M156.987 426.577C158.753 407.573 164.652 391.655 175.991 375.291C189.894 355.227 199.575 346.254 214.776 339.343C232.602 331.237 234.622 329.372 248.421 308.285C263.974 284.518 267.519 281.176 277.237 281.119C287.814 281.056 300.965 274.788 309.584 265.702C323.619 250.907 330.997 223.203 325.409 206.274L322.683 198.012L316.771 215.631C308.239 241.062 300.398 252.256 285.917 259.682C281.49 261.953 275.357 263.81 272.288 263.81C269.219 263.81 263.152 265.296 258.805 267.113C251.657 270.099 249.868 270.072 240.103 266.828C228.456 262.96 204.083 263.734 184.463 268.595C173.757 271.247 144.533 289.716 142.449 295.146C140.92 299.13 136.396 299.542 132.872 296.017C130.979 294.124 132.537 291.587 139.256 285.625L148.145 277.737L130.742 259.399L113.339 241.061L105.756 244.678L98.172 248.294L96.815 238.393C96.0685 232.948 95.458 227.139 95.458 225.484C95.458 223.829 115.966 208.9 141.031 192.31C166.096 175.719 189.282 158.904 192.556 154.944C201.621 143.978 204.668 141.699 240.233 119.297C264.175 104.216 274.613 96.3233 278.12 90.649L282.96 82.817L290.349 99.3383C296.854 113.882 298.805 116.339 306.649 119.869C354.258 141.29 390.028 188.211 401.497 244.285C406.385 268.182 406.453 281.561 402.154 374.454C401.098 397.272 401.578 407.508 404.331 420.788C406.275 430.163 407.865 438.705 407.865 439.771C407.865 440.886 354.299 441.708 281.723 441.708H155.581L156.987 426.577ZM131.95 221.091C125.153 213.855 117.98 214.62 112.79 223.132C107.15 232.382 107.259 232.911 115.526 236.408C122.259 239.258 122.894 239.093 129.616 232.746L136.656 226.1L131.95 221.091ZM262.843 162.978C261.678 156.324 249.71 142.456 243.866 140.989C237.702 139.442 233.422 142.024 216.95 157.228L205.017 168.242L234.305 167.755C262.157 167.292 263.557 167.058 262.843 162.978Z" fill="#F9F9F9"/>
</svg>
