<svg width="512" height="512" viewBox="0 0 512 512" fill="none" xmlns="http://www.w3.org/2000/svg">
<path d="M256 460.75H111.5V442.25C110.833 428.917 114.291 417.5 121.875 408C129.458 398.5 139.916 389.5 153.25 381C172.75 365.833 187.041 347.708 196.125 326.625C205.208 305.542 211.75 283.25 215.75 259.75H144L215 200C200.666 187.667 193.5 172 193.5 153C193.5 135.833 199.583 121.083 211.75 108.75C223.916 96.4167 238.666 90.25 256 90.25C273.166 90.25 287.875 96.4167 300.125 108.75C312.375 121.083 318.5 135.833 318.5 153C318.5 172 311.333 187.667 297 200L368 259.75H296.25C300.083 283.25 306.583 305.542 315.75 326.625C324.916 347.708 339.25 365.833 358.75 381C371.916 389.5 382.291 398.5 389.875 408C397.458 417.5 401 428.917 400.5 442.25V460.75H256Z" fill="#101010"/>
</svg>
