<svg width="512" height="512" viewBox="0 0 512 512" fill="none" xmlns="http://www.w3.org/2000/svg">
<path d="M147.5 379.75C148.167 391.75 146.917 404.917 143.75 419.25L177.25 397.75L147.5 379.75ZM256 460.75H110.25C129.25 422.25 134.042 384.208 124.625 346.625C115.208 309.042 98.3333 271.583 74 234.25C72 234.583 70.4167 234.75 69.25 234.75C60.25 234.75 52.5417 231.542 46.125 225.125C39.7083 218.708 36.5 211 36.5 202C36.5 193 39.7083 185.292 46.125 178.875C52.5417 172.458 60.25 169.25 69.25 169.25C78.25 169.25 85.9583 172.458 92.375 178.875C98.7917 185.292 102 193 102 202C102 205.333 101.5 208.5 100.5 211.5C99.8333 213.833 98.5833 216.583 96.75 219.75L145.75 254.5L170.75 133C160.083 127.833 154.083 119.25 152.75 107.25C151.917 99.9166 154.333 92.3333 160 84.5C165.667 76.6666 173 72.25 182 71.25C191 70.4166 199 72.8333 206 78.5C213 84.1666 217 91.5 218 100.5C219.167 111.833 215.333 121.333 206.5 129L256 232L305.5 129C296.5 121.333 292.667 111.833 294 100.5C295 91.5 299 84.1666 306 78.5C313 72.8333 321 70.4166 330 71.25C339 72.25 346.292 76.6666 351.875 84.5C357.458 92.3333 359.917 99.9166 359.25 107.25C357.75 119.25 351.75 127.833 341.25 133L366.25 254.5L415.25 219.75C413.25 216.583 412 213.833 411.5 211.5C410.5 208.5 410 205.333 410 202C410 193 413.208 185.292 419.625 178.875C426.042 172.458 433.75 169.25 442.75 169.25C451.75 169.25 459.458 172.458 465.875 178.875C472.292 185.292 475.5 193 475.5 202C475.5 211 472.292 218.708 465.875 225.125C459.458 231.542 451.75 234.75 442.75 234.75C441.583 234.75 440 234.583 438 234.25C413.5 271.583 396.583 309.042 387.25 346.625C377.917 384.208 382.75 422.25 401.75 460.75H256ZM256 348.25C274.167 348.25 292.667 350.625 311.5 355.375C330.333 360.125 348.083 365.75 364.75 372.25C365.083 365.417 366 358 367.5 350C349.5 343 331.042 337.333 312.125 333C293.208 328.667 274.5 326.5 256 326.5C237.5 326.5 218.75 328.667 199.75 333C180.75 337.333 162.333 343 144.5 350C145.833 358 146.75 365.417 147.25 372.25C163.75 365.75 181.417 360.125 200.25 355.375C219.083 350.625 237.667 348.25 256 348.25ZM256 442.25H375.5C373 436.583 371 430.5 369.5 424H142.5C140.833 430.5 138.833 436.583 136.5 442.25H256ZM364.5 379.75L334.75 397.75L368.25 419.25C364.917 404.917 363.667 391.75 364.5 379.75ZM221.25 391.5L256 413.25L290.75 392.25L256 370.75L221.25 391.5Z" fill="#101010"/>
<path d="M138.848 439.646C138.848 439.227 139.919 435.81 141.229 432.053L143.611 425.22H368.389L370.771 432.053C372.081 435.81 373.153 439.227 373.153 439.646C373.153 440.064 320.434 440.407 256 440.407C191.566 440.407 138.848 440.064 138.848 439.646ZM238.091 400.608L223.436 391.295L239.72 381.978L256.004 372.661L271.189 381.682C279.54 386.643 286.354 391.391 286.331 392.233C286.274 394.36 259.11 410.047 255.604 409.978C254.032 409.947 246.151 405.73 238.091 400.608ZM353.231 408.167C346.45 403.824 340.885 399.295 340.863 398.102C340.841 396.909 345.901 392.725 352.107 388.805L363.39 381.678L364.691 398.568C365.406 407.857 365.894 415.594 365.775 415.76C365.657 415.927 360.012 412.51 353.231 408.167V408.167ZM147.2 363.133C147.021 359.098 146.777 354.723 146.658 353.41C146.134 347.646 197.638 333.213 232.601 329.325C250.607 327.323 261.273 327.304 278.62 329.243C313.764 333.17 365.862 347.688 365.343 353.41C365.223 354.723 364.979 359.098 364.8 363.133L364.475 370.469L338.983 362.321C305.504 351.62 286.282 348.394 256 348.394C225.719 348.394 206.496 351.62 173.017 362.321L147.526 370.469L147.2 363.133ZM146.913 400.689C147.441 392.107 148.044 384.337 148.253 383.423C148.462 382.508 154.316 385.315 161.261 389.659C168.206 394.003 173.082 398.307 172.096 399.224C171.111 400.141 164.826 404.357 158.129 408.592L145.953 416.294L146.913 400.689Z" fill="#ECECEC"/>
</svg>
