<svg width="512" height="512" viewBox="0 0 512 512" fill="none" xmlns="http://www.w3.org/2000/svg">
<path d="M256 460.75H95.75L103 394.75L142.75 365.25L155.25 200.5L118 173.75L113.75 88.5H186V125.25H220.25V88.5H291.75V125.25H326V88.5H398.25L394 173.75L356.75 200.5L369.25 365.25L409 394.75L416.25 460.75H256ZM256 213.5H339.25L337.75 191.5H174.25L172.75 213.5H256ZM256 375.25H351.25L349.75 353.5H162.25L160.75 375.25H256Z" fill="#101010"/>
<path d="M162.712 364.258V354.495H349.288V374.02H162.712V364.258ZM173.559 209.41C173.559 207.173 174.169 202.292 174.915 198.562L176.271 191.783H335.729L337.085 198.563C340.351 214.895 348.055 213.478 256 213.478C176.837 213.478 173.559 213.316 173.559 209.41V209.41Z" fill="#ECECEC"/>
</svg>
