<svg width="180" height="180" viewBox="0 0 180 180" fill="none" xmlns="http://www.w3.org/2000/svg">
<path d="M40.2285 168.606C37.4931 168.606 35.584 167.124 34.5012 164.161C33.4754 161.198 32.1647 158.719 30.569 156.724C49.7741 156.724 69.0075 156.724 88.2697 156.724C107.531 156.724 126.822 156.724 146.141 156.724C144.546 158.719 143.206 161.198 142.123 164.161C141.041 167.124 139.16 168.606 136.482 168.606C120.411 168.606 104.312 168.606 88.1843 168.606C72.0563 168.606 56.0712 168.606 40.2285 168.606ZM35.8689 71.0707C30.797 74.0914 29.7142 78.1088 32.6206 83.124L41.2543 97.9976C44.1037 103.07 48.0929 104.153 53.2218 101.246H53.3073C58.3791 98.2828 59.4337 94.2649 56.4699 89.1934L47.9219 74.3192C44.9016 69.3039 40.8838 68.2217 35.8689 71.0707ZM140.841 71.1562C135.655 68.193 131.638 69.2471 128.788 74.3192L120.154 89.1928C117.248 94.2649 118.331 98.2828 123.403 101.246C128.475 104.209 132.492 103.127 135.456 97.9976L144.004 83.124C146.968 78.1088 145.913 74.1195 140.841 71.1562ZM88.3552 54.7437C82.4856 54.7437 79.5504 57.6787 79.5504 63.5484V80.7306C79.5504 86.6003 82.4856 89.5348 88.3552 89.5348C94.2249 89.5348 97.1601 86.6003 97.1601 80.7306V63.5484C97.1601 57.6787 94.2249 54.7437 88.3552 54.7437ZM124.941 121.847C120.611 116.49 115.253 112.217 108.871 109.025C102.545 105.834 95.7066 104.238 88.3552 104.238C80.9466 104.238 74.0796 105.834 67.7537 109.025C61.4284 112.217 56.1283 116.49 51.8541 121.847H124.941ZM97.1601 132.02V140.825H108.7V132.02H97.1601ZM68.0102 132.02V140.825H79.5504V132.02H68.0102ZM38.7753 132.02V140.825H50.401V132.02H38.7753ZM126.309 132.02V140.825H137.85V132.02H126.309ZM91.4327 40.1262H99.81C103.856 40.1262 107.304 41.5794 110.153 44.4858C113.06 47.3352 114.513 50.7545 114.513 54.7437V64.4889L118.189 58.0776C120.183 54.6012 123.118 52.3502 126.993 51.3244C130.925 50.2416 134.658 50.6975 138.191 52.6921L158.109 64.1469C161.528 66.1984 163.779 69.1903 164.862 73.1222C165.945 77.0546 165.46 80.7306 163.408 84.1494L146.056 114.325C142.921 119.625 138.277 122.161 132.122 121.933H140.927C144.061 121.933 146.768 123.073 149.047 125.352C151.327 127.632 152.467 130.339 152.467 133.473V139.371C152.467 142.563 151.327 145.298 149.047 147.578C146.768 149.8 144.061 150.911 140.927 150.911H35.7834C32.5921 150.911 29.8567 149.8 27.5771 147.578C25.3546 145.298 24.2434 142.563 24.2434 139.371V133.473C24.2434 130.339 25.3546 127.632 27.5771 125.352C29.8567 123.073 32.5921 121.933 35.7834 121.933H44.5881C38.3194 122.161 33.6749 119.597 30.6545 114.239L13.3016 84.1494C11.25 80.6732 10.7371 76.9978 11.7629 73.1222C12.8456 69.1903 15.1252 66.1984 18.6015 64.1469L38.5189 52.6921C41.9381 50.6975 45.6139 50.2416 49.5461 51.3244C53.4783 52.3502 56.4699 54.5727 58.5219 57.9921L62.2828 64.5744L62.1973 54.7437C62.1973 50.7545 63.6221 47.3352 66.4717 44.4858C69.3208 41.5794 72.7971 40.1262 76.9005 40.1262H85.3633L83.9098 32.7747L76.815 31.236V25.5087L83.9098 24.141L85.2778 16.875H91.3472L92.7146 24.141L99.8955 25.5087V31.236L92.7146 32.7747L91.4327 40.1262Z" fill="#1D2D50"/>
<path d="M35.869 71.0708C30.7971 74.0914 29.7143 78.1088 32.6207 83.124L41.2545 97.9976C44.1039 103.07 48.0931 104.153 53.222 101.246H53.3075C58.3796 98.2828 59.4337 94.2649 56.4705 89.1934L47.9221 74.3192C44.9017 69.3039 40.884 68.2217 35.869 71.0708ZM140.842 71.1562C135.655 68.193 131.638 69.2471 128.788 74.3192L120.154 89.1928C117.248 94.2649 118.331 98.2828 123.403 101.246C128.475 104.209 132.492 103.127 135.456 97.9976L144.005 83.124C146.968 78.1088 145.914 74.1195 140.842 71.1562ZM88.3552 54.7437C82.4856 54.7437 79.5504 57.6787 79.5504 63.5484V80.7306C79.5504 86.6003 82.4856 89.5348 88.3552 89.5348C94.2249 89.5348 97.1601 86.6003 97.1601 80.7306V63.5484C97.1601 57.6787 94.2249 54.7437 88.3552 54.7437ZM97.1601 132.02V140.825H108.7V132.02H97.1601ZM68.0102 132.02V140.825H79.5504V132.02H68.0102ZM38.7755 132.02V140.825H50.4011V132.02H38.7755ZM126.309 132.02V140.825H137.85V132.02H126.309Z" fill="#2D92B3"/>
</svg>
