<svg width="180" height="180" viewBox="0 0 180 180" fill="none" xmlns="http://www.w3.org/2000/svg">
<path d="M127.729 103.64C126.361 106.204 124.993 108.74 123.626 111.247C122.315 113.755 121.004 116.263 119.693 118.77C116.844 118.77 113.995 118.77 111.146 118.77C108.296 118.77 105.446 118.77 102.597 118.77C103.965 116.263 105.304 113.755 106.615 111.247C107.925 108.74 109.265 106.204 110.633 103.64C113.482 103.64 116.303 103.64 119.095 103.64C121.944 103.64 124.823 103.64 127.729 103.64ZM57.1202 103.725C59.913 103.725 62.7339 103.725 65.583 103.725C68.4326 103.725 71.3104 103.725 74.2168 103.725C75.5274 106.289 76.8381 108.826 78.1493 111.333C79.4599 113.84 80.7992 116.319 82.1666 118.77C79.3176 118.77 76.4679 118.77 73.6183 118.77C70.7693 118.77 67.9483 118.77 65.1555 118.77C63.7881 116.263 62.4201 113.755 61.0526 111.247C59.742 108.74 58.4314 106.233 57.1202 103.725ZM45.1528 61.5825C41.9045 61.5825 39.1406 60.471 36.8611 58.2486C34.6385 55.9689 33.5273 53.205 33.5273 49.9567C33.5273 46.8223 34.6385 44.1154 36.8611 41.8358C39.1406 39.5563 41.9045 38.4166 45.1528 38.4166C48.3442 38.4166 51.0511 39.5563 53.2737 41.8358C55.5532 44.1154 56.6933 46.8223 56.6933 49.9567C56.6933 53.205 55.5532 55.9689 53.2737 58.2486C51.0511 60.471 48.3442 61.5825 45.1528 61.5825ZM45.1528 55.7695C48.9711 55.7695 50.8802 53.8319 50.8802 49.9567C50.8802 46.1384 48.9711 44.2294 45.1528 44.2294C41.2777 44.2294 39.3401 46.1384 39.3401 49.9567C39.3401 53.8319 41.2777 55.7695 45.1528 55.7695ZM139.696 61.5825C136.448 61.5825 133.684 60.471 131.405 58.2486C129.182 55.9689 128.071 53.205 128.071 49.9567C128.071 46.8223 129.182 44.1154 131.405 41.8358C133.684 39.5563 136.448 38.4166 139.696 38.4166C142.888 38.4166 145.595 39.5563 147.817 41.8358C150.097 44.1154 151.237 46.8223 151.237 49.9567C151.237 53.205 150.097 55.9689 147.817 58.2486C145.595 60.471 142.888 61.5825 139.696 61.5825ZM139.696 55.7695C143.515 55.7695 145.424 53.8319 145.424 49.9567C145.424 46.1384 143.515 44.2294 139.696 44.2294C135.821 44.2294 133.883 46.1384 133.883 49.9567C133.883 53.8319 135.821 55.7695 139.696 55.7695ZM54.4704 89.6203C54.1855 85.3464 53.9006 81.0152 53.6156 76.6271C53.3877 72.2391 53.1312 67.8223 52.8463 63.3774C59.6278 67.9365 67.0078 72.7521 74.9863 77.8241C80.7992 66.1984 86.6121 54.6582 92.4244 43.2036C95.3308 49.0164 98.2373 54.8577 101.144 60.7275C104.107 66.5404 107.042 72.3246 109.949 78.0806C116.616 73.5784 123.939 68.706 131.918 63.4629C131.632 67.851 131.376 72.2391 131.148 76.6271C130.977 80.9584 130.778 85.2609 130.55 89.5348C135.849 89.5348 141.121 89.5348 146.364 89.5348C151.664 89.5348 156.964 89.5348 162.264 89.5348C158.389 97.3423 154.513 105.15 150.638 112.957C146.82 120.707 143.002 128.486 139.183 136.294C123.569 136.294 107.954 136.294 92.3389 136.294C76.7244 136.294 61.1381 136.294 45.5802 136.294C41.705 128.486 37.8299 120.707 33.9546 112.957C30.1364 105.15 26.3182 97.3423 22.5 89.5348C27.7999 89.5922 33.0999 89.6203 38.3997 89.6203C43.7567 89.6203 49.1135 89.6203 54.4704 89.6203ZM125.763 74.0627C122.97 75.8863 120.093 77.7954 117.129 79.7901C114.166 81.7279 111.146 83.7793 108.068 85.9449C105.446 80.8161 102.825 75.6298 100.204 70.3867C97.5819 65.0869 94.9888 59.787 92.4244 54.4872C89.8031 59.6734 87.1819 64.8877 84.5601 70.1302C81.9388 75.3165 79.3176 80.4741 76.6958 85.6029C73.6183 83.6083 70.5983 81.6424 67.635 79.7046C64.7286 77.7099 61.8789 75.7721 59.0867 73.8917C59.2577 77.5389 59.5423 81.1575 59.9411 84.7479C60.3405 88.2816 60.6251 91.8146 60.7961 95.3477C55.8381 95.3477 50.8802 95.3477 45.9222 95.3477C40.9642 95.3477 36.0062 95.3477 31.0483 95.3477C33.9547 101.217 36.8611 107.088 39.7675 112.957C42.7309 118.827 45.6942 124.668 48.6576 130.481C63.1896 130.481 77.7499 130.481 92.3389 130.481C106.928 130.481 121.546 130.481 136.191 130.481C139.098 124.668 142.004 118.827 144.911 112.957C147.874 107.088 150.838 101.217 153.801 95.3477C148.9 95.3477 143.999 95.3477 139.098 95.3477C134.254 95.3477 129.439 95.3477 124.652 95.3477C124.936 87.5402 125.307 80.4454 125.763 74.0627ZM92.4244 86.0304C93.8492 88.5375 95.3027 91.0164 96.7843 93.4672C98.2659 95.9175 99.7476 98.3396 101.229 100.733C99.7476 103.184 98.2659 105.634 96.7843 108.085C95.3027 110.535 93.8492 112.957 92.4244 115.351C90.9428 112.957 89.4611 110.535 87.9795 108.085C86.4979 105.634 85.0444 103.184 83.6201 100.733C85.0444 98.3396 86.4979 95.9175 87.9795 93.4672C89.4611 91.0164 90.9428 88.5375 92.4244 86.0304ZM92.4244 34.3134C96.2426 34.3134 98.1518 32.3758 98.1518 28.5006C98.1518 24.6254 96.2426 22.6878 92.4244 22.6878C88.5493 22.6878 86.6121 24.6254 86.6121 28.5006C86.6121 32.3758 88.5493 34.3134 92.4244 34.3134ZM92.4244 40.1262C89.1765 40.1262 86.4124 39.0149 84.1326 36.7924C81.9101 34.5129 80.7992 31.7489 80.7992 28.5006C80.7992 25.3092 81.9101 22.5738 84.1326 20.2943C86.4124 18.0148 89.1765 16.875 92.4244 16.875C95.616 16.875 98.3228 18.0148 100.545 20.2943C102.825 22.5738 103.965 25.3092 103.965 28.5006C103.965 31.7489 102.825 34.5129 100.545 36.7924C98.3228 39.0149 95.616 40.1262 92.4244 40.1262ZM53.6156 168.606C51.3931 168.606 49.8544 167.124 48.9995 164.161C48.1447 161.198 47.0905 158.719 45.8367 156.724C61.3373 156.724 76.8381 156.724 92.3389 156.724C107.897 156.724 123.455 156.724 139.012 156.724C137.702 158.719 136.619 161.198 135.764 164.161C134.909 167.124 133.399 168.606 131.234 168.606C118.24 168.606 105.247 168.606 92.2534 168.606C79.2602 168.606 66.3812 168.606 53.6156 168.606ZM49.9399 142.363H134.909C137.759 142.363 139.183 143.788 139.183 146.637C139.183 149.487 137.759 150.911 134.909 150.911H49.9399C47.0905 150.911 45.6657 149.487 45.6657 146.637C45.6657 143.788 47.0905 142.363 49.9399 142.363Z" fill="#521F2B"/>
<path d="M127.729 103.64C126.362 106.204 124.994 108.74 123.626 111.247C122.316 113.755 121.004 116.263 119.694 118.77C116.845 118.77 113.995 118.77 111.145 118.77C108.296 118.77 105.447 118.77 102.598 118.77C103.965 116.263 105.305 113.755 106.615 111.247C107.926 108.74 109.265 106.204 110.633 103.64C113.482 103.64 116.303 103.64 119.095 103.64C121.945 103.64 124.823 103.64 127.729 103.64ZM57.1208 103.725C59.9136 103.725 62.7339 103.725 65.5836 103.725C68.4332 103.725 71.3109 103.725 74.2174 103.725C75.528 106.289 76.8386 108.826 78.1493 111.333C79.4604 113.84 80.7998 116.319 82.1672 118.77C79.3176 118.77 76.4685 118.77 73.6189 118.77C70.7698 118.77 67.9489 118.77 65.1561 118.77C63.7886 116.263 62.4206 113.755 61.0532 111.247C59.7426 108.74 58.4314 106.233 57.1208 103.725ZM45.1533 55.7695C48.9715 55.7695 50.8807 53.8319 50.8807 49.9566C50.8807 46.1384 48.9715 44.2293 45.1533 44.2293C41.2781 44.2293 39.3405 46.1384 39.3405 49.9566C39.3405 53.8319 41.2781 55.7695 45.1533 55.7695ZM139.697 55.7695C143.515 55.7695 145.424 53.8319 145.424 49.9566C145.424 46.1384 143.515 44.2293 139.697 44.2293C135.822 44.2293 133.884 46.1384 133.884 49.9566C133.884 53.8319 135.822 55.7695 139.697 55.7695ZM125.763 74.0627C122.971 75.8863 120.093 77.7954 117.129 79.7901C114.166 81.7279 111.146 83.7793 108.069 85.9449C105.447 80.8161 102.826 75.6298 100.204 70.3868C97.5825 65.0869 94.9894 59.787 92.4249 54.4872C89.8037 59.6734 87.1819 64.8878 84.5606 70.1303C81.9394 75.3165 79.3176 80.4741 76.6963 85.6029C73.6189 83.6083 70.5988 81.6424 67.635 79.7046C64.7286 77.7099 61.8795 75.7721 59.0867 73.8917C59.2577 77.5389 59.5429 81.1575 59.9417 84.7479C60.3405 88.281 60.6257 91.8146 60.7967 95.3477C55.8386 95.3477 50.8807 95.3477 45.9227 95.3477C40.9647 95.3477 36.0067 95.3477 31.0488 95.3477C33.9551 101.217 36.8615 107.088 39.768 112.957C42.7313 118.827 45.6947 124.668 48.6581 130.481C63.1901 130.481 77.7504 130.481 92.3394 130.481C106.928 130.481 121.546 130.481 136.192 130.481C139.098 124.668 142.005 118.827 144.911 112.957C147.874 107.088 150.838 101.217 153.802 95.3477C148.901 95.3477 143.999 95.3477 139.098 95.3477C134.255 95.3477 129.439 95.3477 124.652 95.3477C124.937 87.5402 125.308 80.4454 125.763 74.0627ZM92.4249 86.0304C93.8498 88.5375 95.3033 91.0164 96.7849 93.4673C98.2665 95.9175 99.7481 98.3396 101.23 100.733C99.7481 103.184 98.2665 105.634 96.7849 108.085C95.3033 110.535 93.8498 112.957 92.4249 115.351C90.9433 112.957 89.4617 110.535 87.9801 108.085C86.4984 105.634 85.0449 103.184 83.6201 100.733C85.0449 98.3396 86.4984 95.9175 87.9801 93.4673C89.4617 91.0164 90.9433 88.5375 92.4249 86.0304ZM92.4249 34.3134C96.2432 34.3134 98.1523 32.3758 98.1523 28.5006C98.1523 24.6254 96.2432 22.6878 92.4249 22.6878C88.5499 22.6878 86.6121 24.6254 86.6121 28.5006C86.6121 32.3758 88.5499 34.3134 92.4249 34.3134Z" fill="#FFB470"/>
</svg>
