<svg width="180" height="180" viewBox="0 0 180 180" fill="none" xmlns="http://www.w3.org/2000/svg">
<path d="M133.764 46.1955C118.036 46.1955 103.988 46.1955 91.6217 46.1955C79.3119 46.1955 65.2928 46.1955 49.5642 46.1955C46.2589 46.1955 44.5493 42.7762 44.4353 35.9376C44.3783 29.042 44.3499 22.6878 44.3499 16.875C46.9143 16.875 49.5073 16.875 52.1287 16.875C54.7502 16.875 57.3716 16.875 59.9929 16.875L65.4637 28.5006H78.543L83.7574 16.875H99.657L104.786 28.5006H117.95L123.421 16.875H138.979C138.979 22.6878 138.922 29.042 138.808 35.9376C138.694 42.7762 137.013 46.1955 133.764 46.1955ZM133.764 22.6878H125.9L120.686 33.9715H102.05L96.9216 22.6878H86.4928L81.2784 33.9715H62.7283L57.5139 22.6878C56.1464 22.6878 54.8071 22.6878 53.4964 22.6878C52.1857 22.6878 50.875 22.6878 49.5642 22.6878C49.5642 25.5942 49.6497 29.3269 49.8207 33.886C49.9917 38.4451 50.989 40.7246 52.8126 40.7246C67.2874 40.7246 80.2811 40.7246 91.7927 40.7246C103.304 40.7246 116.326 40.7246 130.858 40.7246C132.625 40.7246 133.536 38.4451 133.593 33.886C133.707 29.3269 133.764 25.5942 133.764 22.6878ZM68.7122 156.724C71.7896 156.724 74.4683 155.613 76.7475 153.39C79.0273 151.111 80.1669 148.375 80.1669 145.184V127.318C80.1669 124.184 81.2784 121.477 83.5009 119.198C85.7233 116.918 88.4587 115.778 91.7072 115.778C94.8414 115.778 97.5482 116.918 99.828 119.198C102.107 121.477 103.247 124.184 103.247 127.318V145.184C103.247 148.375 104.358 151.111 106.581 153.39C108.803 155.613 111.396 156.724 114.36 156.724C118.862 156.724 123.45 156.724 128.122 156.724C132.796 156.724 137.44 156.724 142.056 156.724L130.174 145.013L115.044 60.8985L67.8572 60.984C65.2928 75.0032 62.757 89.0224 60.2494 103.041C57.7423 117.003 55.2346 130.994 52.7271 145.013C50.6755 146.951 48.6524 148.917 46.6578 150.911C44.7202 152.849 42.7541 154.787 40.7595 156.724H68.7122ZM91.7072 75.1742C95.5254 75.1742 97.4346 77.1114 97.4346 80.9865V95.6897C97.4346 99.5079 95.5254 101.417 91.7072 101.417C87.8321 101.417 85.8943 99.5079 85.8943 95.6897V80.9865C85.8943 77.1114 87.8321 75.1742 91.7072 75.1742ZM149.664 156.724C147.898 158.719 146.444 161.198 145.304 164.161C144.222 167.124 142.341 168.606 139.663 168.606C123.649 168.606 107.607 168.606 91.5362 168.606C75.4656 168.606 59.5372 168.606 43.7514 168.606C41.016 168.606 39.1069 167.124 38.0241 164.161C36.9413 161.198 35.5166 158.719 33.75 156.724L47.94 142.363L62.6428 60.813H52.4706C49.4502 60.813 47.94 59.3027 47.94 56.2826C47.94 53.205 49.4502 51.6663 52.4706 51.6663H130.858C133.935 51.6663 135.474 53.205 135.474 56.2826C135.474 59.3027 133.935 60.813 130.858 60.813H120.856L135.474 142.363L149.664 156.724Z" fill="#521F2B"/>
<path d="M133.764 22.6878H125.9L120.686 33.9715H102.05L96.9216 22.6878H86.4923L81.2779 33.9715H62.7283L57.5139 22.6878C56.1463 22.6878 54.807 22.6878 53.4963 22.6878C52.1856 22.6878 50.8749 22.6878 49.5641 22.6878C49.5641 25.5942 49.6496 29.3269 49.8206 33.886C49.9916 38.445 50.9889 40.7246 52.8125 40.7246C67.2874 40.7246 80.2811 40.7246 91.7927 40.7246C103.304 40.7246 116.326 40.7246 130.858 40.7246C132.625 40.7246 133.536 38.445 133.593 33.886C133.707 29.3269 133.764 25.5942 133.764 22.6878ZM68.7122 156.724C71.7896 156.724 74.4683 155.613 76.7475 153.39C79.0273 151.111 80.1669 148.375 80.1669 145.184V127.318C80.1669 124.184 81.2779 121.477 83.5009 119.197C85.7233 116.918 88.4587 115.778 91.7072 115.778C94.8414 115.778 97.5482 116.918 99.828 119.197C102.107 121.477 103.247 124.184 103.247 127.318V145.184C103.247 148.375 104.358 151.111 106.581 153.39C108.803 155.613 111.396 156.724 114.36 156.724C118.862 156.724 123.45 156.724 128.122 156.724C132.796 156.724 137.44 156.724 142.056 156.724L130.174 145.013L115.044 60.8985L67.8572 60.984C65.2928 75.0032 62.757 89.0218 60.2494 103.041C57.7418 117.003 55.2345 130.994 52.727 145.013C50.6754 146.951 48.6523 148.917 46.6577 150.911C44.7201 152.849 42.7541 154.787 40.7594 156.724H68.7122ZM91.7072 75.1742C95.5254 75.1742 97.434 77.1114 97.434 80.9865V95.6897C97.434 99.5079 95.5254 101.417 91.7072 101.417C87.8316 101.417 85.8943 99.5079 85.8943 95.6897V80.9865C85.8943 77.1114 87.8316 75.1742 91.7072 75.1742Z" fill="#FFB470"/>
</svg>
