<svg width="180" height="180" viewBox="0 0 180 180" fill="none" xmlns="http://www.w3.org/2000/svg">
<path d="M70.1331 112.865C69.3039 115.059 68.7431 116.425 68.4506 116.962C68.2065 117.498 67.6946 118.864 66.9139 121.06C81.2064 116.767 94.8403 116.889 107.816 121.425C107.035 119.181 106.304 116.182 105.621 112.425C100.206 113.596 94.5231 114.279 88.5718 114.474C82.6695 114.621 76.5236 114.084 70.1331 112.865ZM87.0356 126.108C83.3771 126.108 79.4503 126.084 75.2552 126.035C71.109 125.986 69.0356 126.474 69.0356 127.498C69.0356 128.571 71.109 129.206 75.2552 129.4C79.4503 129.596 83.3771 129.693 87.0356 129.693C90.5962 129.693 94.4741 129.669 98.6693 129.62C102.913 129.571 105.035 129.011 105.035 127.937C105.035 126.864 102.913 126.303 98.6693 126.254C94.4741 126.157 90.5962 126.108 87.0356 126.108ZM105.401 69.6943C104.474 69.6943 102.377 69.6943 99.1086 69.6943C95.8404 69.6943 93.2546 69.597 91.3523 69.4018V58.4994H80.9623V69.2556C79.6455 69.2556 77.3286 69.2556 74.0115 69.2556C70.6944 69.2066 68.2307 69.1824 66.6214 69.1824V79.4993C69.0114 79.6455 71.0601 79.6939 72.7673 79.6455C74.5234 79.5476 77.2554 79.4993 80.9623 79.4993V89.2305H91.3523V79.2793C96.2303 79.2793 99.5473 79.3041 101.303 79.353C103.06 79.353 104.474 79.3283 105.547 79.2793L105.401 69.6943ZM93.8402 140.742C95.0597 141.474 95.8646 141.986 96.255 142.278C96.6448 142.571 98.5961 143.181 102.108 144.107C110.888 144.107 116.328 143.62 118.425 142.644C120.571 141.668 124.401 141.547 129.913 142.278C136.498 143.4 140.669 144.278 142.425 144.912C144.181 145.498 147.693 147.181 152.961 149.961C152.961 151.473 152.985 153.863 153.034 157.132C153.132 160.4 153.181 162.766 153.181 164.229C150.742 163.497 147.62 162.23 143.815 160.424C140.059 158.619 136.766 157.449 133.937 156.912C128.669 155.156 124.108 154.473 120.254 154.864C116.449 155.254 110.254 155.522 101.669 155.669C96.3523 154.449 91.9378 151.815 88.4256 147.766C88.4256 146.693 88.4256 145.62 88.4256 144.547C88.4256 143.425 88.4256 142.327 88.4256 141.254C87.6938 141.254 87.1819 141.23 86.8888 141.181C86.8888 142.303 86.8888 143.425 86.8888 144.547C86.8888 145.62 86.8888 146.693 86.8888 147.766C85.0354 148.547 83.6696 149.595 82.7916 150.913C81.9135 152.18 78.6212 153.717 72.9135 155.522C65.1578 155.473 60.0114 155.156 57.4751 154.571C54.9384 153.937 50.8409 153.986 45.1825 154.717C42.3045 155.254 38.3777 156.839 33.4023 159.473C28.4755 162.107 24.8414 163.79 22.5 164.522C22.5 163.01 22.5 160.717 22.5 157.644C22.5 154.571 22.5 152.254 22.5 150.693C25.0853 150.254 28.5974 148.912 33.0364 146.669C37.5241 144.425 41.0851 142.913 43.7191 142.132C49.6703 140.912 54.5238 140.547 58.2801 141.035C62.0359 141.473 66.7676 142.205 72.4748 143.229C75.4014 143.327 77.3528 143.083 78.3281 142.498C79.3041 141.913 80.4504 141.254 81.7672 140.522C78.3529 139.742 74.1577 138.449 69.1819 136.644C64.2066 134.84 59.8894 132.352 56.2311 129.181C57.987 125.62 59.2554 122.376 60.0362 119.45C60.8164 116.522 61.8165 113.596 63.036 110.669C53.3775 99.4011 48.2312 91.5722 47.5971 87.1819C47.0118 82.7426 47.0118 77.8163 47.5971 72.4016C51.2556 65.2798 55.4506 59.5238 60.1824 55.1336C64.9626 50.7434 71.1332 45.402 78.6943 39.1094C75.5724 37.207 74.0115 34.5242 74.0115 31.0608C74.0115 28.7194 75.4504 26.7194 78.3281 25.0609C81.2548 23.3536 83.8648 22.5 86.1576 22.5C88.3524 22.5 90.6941 23.5 93.1815 25.4999C95.6694 27.4511 96.9131 29.5974 96.9131 31.9388C96.9131 34.5729 95.3522 37.1827 92.2303 39.768C101.108 46.4996 107.864 51.8165 112.498 55.7189C117.181 59.6211 121.425 65.6213 125.23 73.7184C125.035 79.1331 124.669 84.06 124.133 88.4987C123.596 92.889 119.45 99.6936 111.693 108.913C113.108 112.084 114.035 115.23 114.474 118.352C114.962 121.474 115.718 124.937 116.742 128.742C113.376 132.059 109.572 134.718 105.328 136.717C101.084 138.718 97.2546 140.059 93.8402 140.742Z" fill="#2F2519"/>
<path d="M70.1336 112.865C69.3045 115.059 68.7431 116.425 68.4506 116.962C68.2065 117.498 67.6946 118.864 66.9139 121.059C81.2064 116.767 94.8403 116.889 107.816 121.425C107.035 119.181 106.303 116.181 105.621 112.425C100.206 113.596 94.5236 114.279 88.5724 114.474C82.67 114.62 76.5236 114.084 70.1336 112.865ZM87.0356 126.108C83.3771 126.108 79.4503 126.083 75.2552 126.035C71.109 125.986 69.0362 126.474 69.0362 127.498C69.0362 128.571 71.109 129.205 75.2552 129.4C79.4503 129.596 83.3771 129.693 87.0356 129.693C90.5968 129.693 94.4747 129.669 98.6698 129.62C102.913 129.571 105.036 129.01 105.036 127.937C105.036 126.864 102.913 126.303 98.6698 126.254C94.4747 126.156 90.5968 126.108 87.0356 126.108ZM105.401 69.6943C104.474 69.6943 102.377 69.6943 99.1085 69.6943C95.8404 69.6943 93.2552 69.597 91.3528 69.4018V58.4995H80.9629V69.255C79.6455 69.255 77.3285 69.255 74.0115 69.255C70.6944 69.2066 68.2312 69.1819 66.6214 69.1819V79.4987C69.0114 79.6455 71.0606 79.6939 72.7678 79.6449C74.5239 79.5476 77.2554 79.4987 80.9629 79.4987V89.2305H91.3528V79.2793C96.2308 79.2793 99.5479 79.3041 101.304 79.3524C103.06 79.3524 104.474 79.3283 105.547 79.2793L105.401 69.6943Z" fill="#FF6D39"/>
</svg>
