<svg width="180" height="180" viewBox="0 0 180 180" fill="none" xmlns="http://www.w3.org/2000/svg">
<path d="M106.568 147.683C114.505 147.683 114.505 135.41 106.568 135.41C98.632 135.41 98.632 147.683 106.568 147.683ZM58.4592 33.2193C56.8229 30.7648 54.7774 29.6193 52.0774 28.5557C49.2138 27.492 46.7592 25.7738 43.8956 24.7102C38.4138 22.6648 28.8411 20.292 28.3502 29.2102C28.1865 31.7466 29.332 33.9557 30.232 36.3284C31.4592 39.3557 32.6865 42.5466 34.9774 45.0011C37.1047 47.3738 39.5592 48.6829 42.5047 49.8284C44.0592 50.4829 46.3502 50.4829 47.9865 50.0738C48.8865 49.9102 49.7047 49.5829 50.5229 49.1738C51.832 48.5193 51.9956 48.4375 51.0138 48.8466C53.3865 47.8647 55.8411 45.8193 55.5138 42.9557C55.0229 38.4557 51.9138 35.5102 47.7411 34.2011C42.1774 32.4829 36.8592 40.5011 41.7683 44.4284C46.5138 48.2738 55.0229 56.4557 60.4229 48.7647C64.432 43.1193 59.4411 34.3648 56.1683 29.7011C53.8774 32.7284 51.5865 35.6738 49.2138 38.7011C52.2411 39.2738 54.9411 41.2375 58.0502 41.8102C62.632 42.5466 67.132 40.9102 69.1774 36.492C70.732 33.1375 69.7501 28.3102 65.4956 27.492C63.2865 27.0829 61.4047 27.2466 59.1956 27.2466C51.2592 27.3284 51.2592 39.5193 59.1956 39.5193C65.4138 39.5193 71.3865 38.9466 76.4592 35.0193C78.5865 33.3829 81.9411 33.5466 84.4774 32.892C88.4047 31.8284 91.1047 30.7648 95.1138 31.9102C100.35 33.3829 104.441 36.9011 110.168 35.6738C113.114 35.0193 115.323 32.2375 115.977 29.4557C116.387 27.7375 116.059 26.1829 115.814 24.5466C115.241 26.0193 115.323 26.2648 115.977 25.3648C116.714 24.8738 116.632 24.792 115.65 25.2011C114.587 24.9557 113.605 24.6284 112.541 24.3829C113.523 24.8738 114.505 28.1466 115.405 29.4557C117.123 31.992 118.923 34.3648 120.477 36.9829L121.214 38.4557L121.132 38.3738C121.541 40.5829 122.359 39.2738 123.505 34.6102C121.868 35.2648 120.068 35.5102 118.432 36.1648C119.496 35.7557 119.987 38.7829 118.596 35.6738C118.268 34.8557 118.023 33.9557 117.777 33.0557C117.287 31.0102 119.577 32.9738 116.387 34.7738C115.323 35.0193 114.341 35.3466 113.277 35.592C110.087 36.0011 111.805 31.5011 112.623 30.8466C111.232 31.8284 109.759 32.8102 108.368 33.7102C105.587 35.5102 102.641 37.0648 99.7774 38.7011C93.7229 42.2193 87.9956 46.3102 82.1047 50.0738C76.4592 53.6738 71.3865 57.6829 64.7592 59.0738C61.5683 59.8102 58.4592 58.6647 55.432 57.6829C52.2411 56.6193 48.7229 56.2102 45.9411 54.3284C44.8774 58.1738 43.8956 61.9375 42.832 65.7829C50.5229 66.7648 56.1683 64.8829 62.2229 59.9738C65.0865 57.6011 67.2956 54.9011 67.5411 51.0557C67.7047 49.3375 67.3774 47.7011 66.8865 46.0648C66.7229 45.6557 66.5592 45.2466 66.3956 44.7557C66.3138 44.5102 66.232 44.2647 66.232 44.0193C66.3138 45.3284 65.8229 46.392 64.6774 47.2102C63.6138 47.4557 62.632 47.7829 61.5683 48.0284C63.6138 47.9466 62.8774 47.292 59.2774 46.0648C58.9502 44.2647 58.7865 43.9375 58.8683 45.0829C58.8683 45.8193 58.7865 45.9011 58.5411 47.0466C58.0501 49.2557 57.232 51.4647 56.6592 53.6738C54.9411 59.5647 57.8047 66.7648 65.1683 64.8829C67.9502 64.1466 70.2411 61.3647 71.8774 59.2375C74.4138 56.0466 75.8047 52.2011 76.0502 48.192C76.132 46.5557 76.0502 44.9193 75.9683 43.2829V39.8466C75.9683 39.3557 76.0502 38.7829 76.0502 38.292C76.0502 38.3738 76.0502 38.5375 75.9683 38.6193C76.4592 36.9829 75.7229 37.7193 73.7592 40.9102C72.6956 41.1557 71.7138 41.4829 70.6502 41.7284H70.9774C69.9138 41.4829 68.932 41.1557 67.8683 40.9102C68.6047 41.2375 70.9774 43.7738 71.0592 45.5738C71.2229 47.5375 70.4047 49.8284 70.1592 51.792C69.9138 54.492 70.8956 57.3557 72.2865 59.5648C75.3138 64.4738 81.532 62.8375 83.4956 58.092C86.1138 51.7102 86.6865 44.8375 86.1956 38.0466C86.1138 37.3102 86.1138 36.6557 86.1956 35.9193C82.5138 37.5557 81.6956 38.5375 83.9865 38.7829C84.3138 38.8648 84.7229 38.9466 85.0502 39.1102C86.5229 40.092 86.2774 39.192 84.3138 36.492C83.9047 38.4557 82.5956 40.5011 81.8592 42.3829C79.5683 48.5193 84.7229 54.8193 91.1865 51.7102C93.9683 50.4011 95.932 47.9466 97.8138 45.492C98.7956 44.1829 99.4502 42.7102 100.023 41.2375C100.35 40.5829 100.596 39.8466 100.841 39.192C101.659 36.9829 102.559 36.6557 100.023 38.5375C98.9592 38.7829 97.9774 39.1102 96.9138 39.3557C95.032 39.5193 95.6047 38.9466 96.832 39.9284C97.8138 40.7466 98.7956 41.4829 99.9411 42.2193C102.477 43.9375 105.177 43.2829 107.877 42.6284L100.35 35.1011C99.7774 39.1102 98.8774 42.9557 98.8774 47.0466C98.7956 50.1557 96.2592 52.1193 94.2956 54.2466C91.9229 56.7829 89.7956 59.7284 87.9138 62.6738C87.2592 63.7375 86.6865 64.8829 86.1956 66.1102C85.9502 66.6011 85.7865 67.092 85.5411 67.5829C84.4774 69.792 84.232 68.1557 86.5229 67.6647H89.7956C91.9229 70.2011 92.5774 70.5284 91.9229 68.6466C91.5956 67.4193 91.1047 66.3557 90.4501 65.292C89.7956 64.2284 88.8138 63.3284 87.7502 62.6738C85.7865 61.3647 86.7683 61.1193 87.7502 63.7375V67.0102C87.832 66.7648 87.9138 66.6011 87.9956 66.3557C89.0592 63.1648 86.8502 59.6466 83.7411 58.8284C82.7592 58.5829 81.6956 58.5011 80.7138 58.092C81.2047 61.8557 81.6956 65.5375 82.1865 69.3011C86.5229 66.8466 91.2683 65.2102 95.5229 62.7557C92.4138 60.9557 89.3865 59.2375 86.2774 57.4375C86.5229 59.8102 85.132 62.592 84.232 64.7193C83.4956 66.4375 82.8411 68.0738 82.5138 69.8738C82.3502 70.692 82.2683 71.592 82.3502 72.4102C82.5138 71.9193 82.6774 71.5102 82.8411 71.0193L81.3683 72.9829C76.9502 79.5284 87.5865 85.6648 92.0047 79.2011C92.9865 77.7284 93.8047 76.6647 94.3774 74.9466C94.7047 73.8829 94.3774 72.9011 94.6229 71.8375C94.8683 70.6102 95.5229 69.3829 96.0138 68.1557C97.3229 64.8011 99.1229 61.0375 98.632 57.3557C98.0592 52.9375 93.8047 49.5011 89.3865 52.0375C85.0502 54.5738 80.3865 56.2102 76.0502 58.5829C71.0592 61.3647 72.7774 68.0738 77.5229 69.792C78.5047 70.2011 79.5683 70.2011 80.5501 70.5284C79.1592 67.992 77.6865 65.4557 76.2956 63.0011C75.3138 65.9466 76.3774 68.5648 78.4229 70.7738L80.3865 72.2466C81.4502 72.9829 81.3683 72.9011 80.3047 71.8375C80.7956 73.3102 81.2047 74.7011 82.1047 76.0102C86.4411 82.3102 93.4774 79.2829 96.4229 73.6375C97.732 71.2648 98.7138 68.892 100.268 66.6011C102.068 63.9829 104.441 61.7738 106.568 59.3193C111.887 53.3466 111.559 45.8193 112.541 38.292C113.196 33.6284 110.005 29.6193 105.014 30.7648C102.968 31.2557 107.223 32.1557 105.177 30.6011C104.032 29.7011 102.887 28.8011 101.577 28.0648C99.2047 26.6738 96.0138 26.592 93.8047 28.2284C91.1047 30.192 90.4502 32.892 89.4683 35.9193C89.0592 37.1466 88.4047 38.2102 87.6683 39.3557C87.0956 40.2557 85.2956 40.7466 86.5229 40.5829C88.0774 40.8284 89.7138 40.992 91.2683 41.2375L93.1502 43.0375C93.3956 44.1011 93.7229 45.0829 93.9683 46.1466C94.0502 47.7011 93.9683 46.392 94.132 45.7375C94.3774 45.0829 94.4592 45.0011 94.8683 44.1011C95.8502 41.9738 97.0774 39.6829 97.0774 37.3102C96.9956 31.092 91.5956 27.492 85.8683 26.6738C78.7502 25.692 74.6592 30.1102 74.4138 36.9829C74.332 39.4375 74.8229 41.8102 74.6592 44.2647C74.4138 47.9466 73.5956 51.4647 72.2047 54.9011L83.4138 53.4284C82.1865 51.4647 83.7411 47.8647 83.8229 45.5738C83.9865 42.7102 82.9229 39.7648 81.3683 37.392C78.9138 33.792 73.1865 26.4284 68.032 30.2738C63.7774 33.4648 64.0229 38.4557 64.1047 43.2829C64.1047 44.6738 64.3502 46.7193 64.1865 47.8647C64.0229 49.1738 63.6138 50.5648 62.7956 51.5466C62.1411 52.3647 59.7683 53.7557 61.6502 53.2647C63.2047 53.5102 64.8411 53.6738 66.3956 53.9193L65.9047 53.6738L68.6865 57.3557C68.932 57.9284 68.1956 59.4829 68.6047 57.6829C68.8502 56.7829 69.0956 55.8829 69.3411 55.0648C69.9956 53.0193 70.5683 51.0557 70.9774 48.9284C71.9592 43.5284 70.8138 37.8829 65.0047 36.0829C57.1502 33.7102 53.3047 41.8102 54.8592 48.1102C55.0229 48.5193 55.1047 49.0102 55.2683 49.4193C55.5956 50.892 55.7592 50.9738 55.6774 49.7466C54.6956 50.892 53.1411 51.9557 51.9138 52.7738C49.132 54.7375 46.1047 54.0011 43.0774 53.592C36.4502 52.7738 35.5502 61.9375 39.9683 65.0466C44.3047 68.0738 50.1956 68.9738 55.1865 70.6102C61.3229 72.5738 67.9502 71.6738 73.9229 69.5466C79.1592 67.6648 83.9047 63.8193 88.5683 60.8738C94.0502 57.4375 99.3683 53.6738 105.014 50.3193C112.705 45.6557 128.741 39.9284 122.196 28.3102C119.659 23.892 114.259 22.2557 109.841 24.792C105.423 27.3284 105.505 33.0557 106.487 37.392C107.387 41.1557 109.596 45.1648 112.787 47.4557C117.041 50.5648 123.505 48.1102 127.923 46.3102C137.905 42.1375 132.341 32.1557 127.923 25.9375C123.587 19.8829 120.068 9.32839 110.496 14.6466C105.996 17.1829 103.05 22.092 104.032 27.2466C104.605 30.2738 109.923 24.7102 106.814 23.7284C105.996 23.4829 105.177 22.992 104.359 22.5829C101.659 21.2738 98.7956 20.292 95.8502 19.6375C88.9774 18.0829 82.8411 21.4375 76.2138 22.3375C73.1865 22.7466 71.1411 24.3011 68.6865 26.0193C66.0683 27.8193 62.3865 27.492 59.4411 27.492V39.7647C60.3411 39.7647 61.5683 39.3557 62.4683 39.6011C61.2411 36.5738 60.0138 33.6284 58.7865 30.6011C57.7229 32.892 59.1138 29.9466 60.7502 30.192C59.8502 30.0284 58.9501 29.7011 58.132 29.3738C56.332 28.6375 54.6138 27.6557 52.6502 27.2466C47.9047 26.3466 42.3411 31.4193 45.6956 36.2466C46.5138 37.392 47.7411 38.4557 48.232 39.6829C48.5592 40.5011 48.8865 41.3193 49.132 42.1375C49.7047 43.8557 49.0502 44.3466 50.032 42.9557L53.7138 40.1738C53.5502 40.2557 53.3047 40.2557 53.1411 40.3375H56.4138C54.2865 39.8466 52.3229 37.5557 50.6865 36.1648C48.7229 39.6011 46.6774 43.0375 44.7138 46.392C45.0411 46.4738 44.8774 46.392 44.3047 46.0648C44.0592 45.0011 43.732 44.0193 43.4865 42.9557V43.2829C44.9592 41.3193 46.5138 39.3557 47.9865 37.392C47.4138 37.6375 45.4502 38.292 46.0229 38.3738C44.8774 38.1284 44.1411 36.9829 43.6502 36.1648C42.6683 34.6102 40.8683 30.6011 40.9502 29.6193C40.7047 30.6829 40.3774 31.6648 40.132 32.7284C40.2138 32.5648 40.2956 32.4829 40.3774 32.3193L36.3683 34.692C34.2411 35.592 37.0229 35.5102 38.0047 35.7557C39.7229 36.1648 41.032 36.9829 42.5865 37.8011C44.0592 38.6193 45.532 39.2738 47.0865 39.8466C49.0502 40.5829 49.0502 41.1557 47.8229 39.4375C52.2411 45.9011 62.8774 39.7648 58.4592 33.2193Z" fill="black"/>
<path d="M109.841 52.3682C112.623 53.4318 114.914 55.4773 118.105 55.4773C119.905 55.4773 121.705 55.2318 123.423 54.8227C124.078 54.6591 124.814 54.4954 125.469 54.4954C123.75 53.5954 123.423 53.6773 124.487 54.5773C125.959 56.05 126.696 58.8318 127.514 60.7136C127.841 61.5318 128.25 62.2682 128.578 63.0045C127.269 59.5682 132.832 58.2591 128.823 59.65C126.123 60.55 123.505 61.1227 120.887 62.2682C117.778 63.5773 114.832 65.3773 111.887 67.0954C109.023 68.7318 106.159 70.45 103.132 71.5954C101.578 72.25 99.8595 72.5773 98.2231 72.9864C98.8776 72.9045 98.714 72.9045 97.814 72.9864C96.0958 72.8227 96.5867 73.3136 99.2049 74.2954C99.4504 75.85 99.614 77.4864 99.8595 79.0409C100.35 76.9136 103.541 73.9682 105.178 72.0864C108.041 68.8136 109.514 65.2136 111.396 61.2864C112.95 58.0954 114.669 60.4682 117.614 61.5318C118.759 61.9409 119.987 62.35 121.132 62.7591C121.459 62.9227 121.869 63.0045 122.196 63.1682C123.75 63.8227 123.669 64.7227 122.441 62.6773C122.196 61.6136 121.869 60.6318 121.623 59.5682C121.787 58.3409 122.278 57.3591 123.096 56.7045C122.441 57.1136 122.523 57.0318 121.787 57.2773C120.232 57.85 118.678 58.1773 117.123 58.5045C112.787 59.4864 108.859 61.1227 104.85 62.9227C107.305 66.1136 109.841 69.3864 112.296 72.5773C113.114 71.6773 113.932 70.6954 114.75 69.7136C115.323 69.0591 115.896 68.4864 116.469 67.8318C117.532 67.0136 117.778 66.7682 117.123 67.0954C115.569 66.85 113.932 66.6864 112.378 66.4409C110.332 65.4591 110.496 64.3954 111.887 66.5227C112.541 67.5864 113.359 68.4045 114.259 69.2227C116.141 70.9409 118.35 71.8409 120.641 72.8227C124.405 74.3773 128.741 73.8864 131.114 77.65C132.259 79.5318 133.159 81.5773 134.223 83.5409C134.796 84.5227 135.369 85.5045 135.778 86.5682C135.859 86.9773 136.023 87.3864 136.105 87.7954C136.105 89.5954 137.005 89.1864 138.887 86.7318C137.578 86.8136 136.105 86.2409 134.796 86.0773C131.441 85.5864 128.087 85.8318 124.814 85.4227C126.287 88.9409 127.678 92.3773 129.15 95.8954C130.214 94.9136 131.769 94.3409 132.914 93.4409C135.041 91.8045 136.759 89.6773 137.659 87.1409C139.296 82.6409 137.332 78.6318 134.469 75.1954C129.559 69.3045 116.387 65.95 114.178 76.3409C112.623 83.5409 117.532 88.6136 121.05 94.2591C122.85 97.2045 123.259 101.05 124.405 104.323C125.959 108.414 128.414 111.768 132.178 114.059C133.896 115.123 136.678 115.286 138.396 114.059C143.223 110.459 145.187 105.55 145.678 99.6591C146.25 92.6227 138.805 88.7773 133.159 92.2136C129.396 94.5045 128.905 100.723 133.159 102.85C134.305 103.423 135.287 103.914 136.514 104.077C137.414 104.241 138.314 104.323 139.132 104.323C137.005 102.441 136.432 102.195 137.414 103.668C138.559 105.795 138.559 109.723 138.805 112.095C138.969 113.65 139.132 115.205 139.296 116.677C139.459 117.332 139.541 118.068 139.541 118.723C142.487 116.841 142.896 116.023 140.85 116.268C137.578 116.268 134.55 116.268 131.278 116.759C126.696 117.495 119.823 118.805 118.432 123.959C116.387 131.241 123.669 133.286 128.741 135.332C127.841 131.895 126.941 128.459 126.041 125.105C124.078 127.068 122.441 129.277 120.805 131.486C120.15 132.468 119.332 133.368 118.514 134.186L119.741 133.941C119.169 133.695 118.514 133.45 117.859 133.286C110.25 130.832 107.305 142.368 114.587 145.15C117.941 146.377 123.096 148.586 126.614 144.659C130.541 140.323 127.105 135.168 126.041 130.505C124.323 123.223 137.169 121.014 141.587 119.459C146.823 117.659 147.396 111.359 143.059 108.25C140.278 106.286 136.514 106.45 133.241 106.532C131.769 106.532 124.241 106.041 123.832 105.141C121.787 100.232 121.95 94.5045 121.459 89.35C121.05 84.85 120.723 78.55 118.105 74.7045C114.914 69.8773 106.405 71.35 106.65 77.8136C106.814 83.05 109.923 88.3682 112.214 93.0318C113.441 95.4864 115.078 97.6954 116.796 99.9045C117.614 100.968 120.559 103.75 120.478 104.895C120.723 103.832 121.05 102.85 121.296 101.786C122.114 101.214 122.032 101.214 120.969 101.868L119.25 102.85C117.532 103.832 115.896 105.223 114.341 106.532C110.741 109.559 109.269 113.405 108.696 117.905C108.205 121.995 108.205 126.577 109.023 130.586C109.514 132.877 108.369 135.905 106.569 137.786C101.087 143.514 109.759 152.186 115.241 146.459C119.169 142.368 122.441 135.495 121.378 129.768C120.723 126.25 120.723 122.895 120.805 119.295C120.887 116.023 123.587 114.468 126.205 112.914C128.905 111.359 131.523 109.723 132.423 106.532C133.405 102.932 131.605 99.4954 129.559 96.6318C127.514 93.6864 125.141 91.2318 123.341 88.1227C121.787 85.5045 118.841 81.0045 118.759 77.8954C114.914 78.9591 111.15 79.9409 107.305 81.0045C108.369 82.6409 108.205 85.0954 108.532 86.9773C109.023 89.6773 109.187 92.3773 109.35 95.1591C109.759 100.559 110.332 107.023 113.278 111.768C115.896 116.023 121.05 117.332 125.632 118.068C128.005 118.477 130.541 118.805 132.996 118.805C133.978 118.805 136.596 118.805 136.596 118.886C137.087 115.123 137.578 111.441 138.069 107.677C130.378 110.295 121.541 112.341 116.632 119.377C114.014 123.141 113.032 127.886 113.769 132.468C114.096 134.677 114.75 136.641 115.569 138.686C117.041 142.123 123.996 135.741 120.478 134.595C119.496 134.268 118.596 133.777 117.614 133.45C116.55 137.377 115.405 141.305 114.341 145.314C118.678 146.705 122.278 146.95 125.959 143.841C129.314 140.977 131.196 136.968 134.387 133.941C138.069 130.423 135.778 125.35 131.687 123.714C131.196 123.468 130.705 123.305 130.132 123.141L129.15 122.895C127.759 122.405 127.841 122.486 129.314 123.305C129.559 124.368 129.887 125.35 130.132 126.414V125.841C129.887 126.905 129.559 127.886 129.314 128.95C128.578 130.095 126.859 130.586 128.578 130.259C129.232 130.095 129.805 130.014 130.459 129.85C133.241 129.114 135.614 128.541 138.559 128.705C144.696 128.95 150.505 127.15 151.405 120.114C151.732 117.577 151.078 114.959 150.832 112.341C150.505 108.986 149.932 105.714 149.359 102.441C148.95 100.068 147.805 96.4682 145.759 94.9136C144.696 94.0136 143.796 93.1954 142.405 92.7864C141.669 92.5409 138.723 92.3773 139.05 92.4591V103.095C139.378 102.932 139.705 102.686 140.032 102.523C138.969 102.768 137.987 103.095 136.923 103.341C137.169 103.341 137.496 103.259 137.741 103.259C136.678 103.014 135.696 102.686 134.632 102.441C132.259 101.295 133.487 98.5136 132.832 101.377C132.669 101.95 132.178 103.505 131.85 103.75H138.069C135.123 101.95 134.714 97.45 133.814 94.3409C132.669 90.4136 130.705 87.3864 128.414 84.1136C127.514 82.8864 126.532 81.5773 125.959 80.1864C125.469 79.0409 125.878 79.45 125.305 80.7591C124.159 83.4591 120.887 80.8409 123.587 82.4773C124.323 82.8864 124.896 83.6227 125.469 84.2773C126.205 85.0136 125.141 84.5227 125.632 83.7045C124.814 85.0954 121.378 86.4045 120.15 87.55C115.896 91.6409 119.496 97.45 124.487 98.0227C128.087 98.4318 131.605 98.35 135.205 98.9227C139.05 99.5773 142.65 99.25 145.596 96.3864C152.387 89.6773 145.023 78.1409 141.423 71.7591C139.541 68.4864 136.759 65.7045 133.323 64.2318C129.723 62.6773 125.632 62.5136 122.196 60.55C121.132 59.9773 120.641 58.1773 119.823 57.3591C118.187 55.7227 115.65 54.9864 113.441 55.5591C109.023 56.7864 106.159 60.8773 103.214 64.15C98.3867 69.6318 104.359 76.5864 110.659 73.8045C114.014 72.3318 117.205 71.1864 120.723 70.45C123.75 69.7954 126.859 68.8954 129.478 67.1773C132.832 64.9682 134.959 60.4682 132.669 56.7045C131.278 53.1864 127.187 51.9591 123.75 50.7318C120.478 49.5864 117.123 47.2954 113.605 47.2954C108.123 47.2954 103.623 50.4864 100.923 55.15C99.9413 56.95 99.2867 58.9136 98.3867 60.7955C97.3231 62.9227 95.6049 64.5591 94.0504 66.3591C91.3504 69.3864 86.8504 74.6227 88.0776 79.0409C90.9413 89.4318 105.096 84.2773 111.478 81.3318C115.732 79.3682 119.659 76.75 123.75 74.5409C127.678 72.4136 131.932 71.8409 135.941 69.9591C144.859 65.7864 139.132 55.6409 135.696 49.4227C133.65 45.7409 130.541 42.7954 126.205 42.3045C123.832 41.9773 121.623 42.8773 119.332 43.1227C117.532 43.3682 114.75 41.1591 113.032 40.5045C109.923 39.2773 106.323 41.8136 105.505 44.7591C104.605 48.3591 106.732 51.2227 109.841 52.3682Z" fill="black"/>
<path d="M88.3227 74.709C83.8227 75.4453 79.5681 80.0271 75.9681 82.6453C71.2227 86.0817 67.3772 90.2544 64.1045 95.0817C60.8318 99.7453 58.6227 104.982 56.4954 110.3C54.1227 116.109 51.9136 121.836 51.1772 128.054C50.8499 130.673 51.259 133.454 50.5227 135.909C49.8681 138.2 49.6227 140.736 50.8499 142.864C54.5318 149.164 60.9136 145.482 66.1499 145.154C78.1772 144.5 90.2863 148.345 102.232 146.3C115.241 144.009 114.914 128.873 116.55 118.809C118.35 107.682 122.523 94.1817 117.204 83.3817C110.741 70.209 96.0954 81.009 87.9136 85.9999C78.259 91.8908 69.5863 100.891 64.8408 111.282C61.6499 118.236 56.0863 127.482 62.3045 134.273C66.8045 139.182 74.0045 140.164 80.2227 140.982C88.0772 141.964 98.8772 143.436 105.75 138.773C113.032 133.782 116.959 123.554 118.186 115.209C119.332 107.109 119.414 97.5362 116.55 89.7635C114.995 85.4271 112.214 82.4817 107.959 80.7635C103.214 78.8817 98.059 82.6453 94.459 85.1817C86.5227 90.7453 83.0045 100.727 76.7045 107.845C73.1863 111.773 69.3408 115.454 65.5772 119.136C62.3863 122.245 59.8499 126.009 57.1499 129.118C53.059 133.945 56.9863 140.491 63.1227 139.345C69.0954 138.282 74.2499 135.254 79.8954 133.127C85.9499 130.836 91.4318 132.227 97.5681 133.045C109.759 134.682 111.886 120.854 112.704 111.936C113.277 106.045 114.095 98.7635 112.132 93.1181C110.086 86.9817 103.295 86.4908 98.7954 90.3362C95.1954 93.4453 92.659 97.8635 90.2045 101.873C88.4863 104.654 86.7681 107.436 84.6409 109.891C82.9227 111.936 79.5681 113.163 77.4409 114.882C74.2499 117.418 75.559 122.654 78.6681 124.536C81.6136 126.336 85.2136 126.009 88.5681 126.173C92.9045 126.418 96.9954 125.763 100.677 123.473C106.732 119.791 106.323 109.809 103.377 104.164C99.7772 97.1271 89.1409 103.345 92.7409 110.382C92.2499 109.4 92.7409 111.854 92.7409 112.018C92.7409 112.673 92.8227 113.327 92.9045 113.982C92.9045 115.454 93.0681 115.291 93.3954 113.491C92.0045 114.309 89.8772 113.982 88.4045 113.9C87.8318 113.9 84.0681 113.491 84.7227 113.9C85.1318 117.091 85.5409 120.364 85.9499 123.554C88.2409 121.673 90.9409 120.691 93.1499 118.645C95.5227 116.354 97.3227 113.245 99.1227 110.545C100.923 107.764 102.641 104.9 104.523 102.2C105.014 101.464 107.059 99.6635 106.404 99.8271H103.132C102.232 99.009 101.332 98.109 100.432 97.2908C100.514 98.109 100.595 98.9271 100.595 99.8271C100.677 101.382 100.677 102.854 100.677 104.409C100.677 107.927 100.35 111.527 99.9408 115.045C99.7772 116.6 99.3681 118.4 98.8772 120.118C98.6318 120.936 98.4681 121.1 97.9772 121.836C98.3045 121.345 98.7954 121.1 99.3681 121.182C98.5499 121.018 97.7318 120.773 96.9954 120.609C90.6954 119.054 84.1499 119.463 77.8499 121.018C71.5499 122.573 66.2318 126.418 59.6863 127.645C61.6499 131.082 63.6954 134.518 65.659 137.873C67.1318 136.154 68.7681 134.927 69.9136 132.8C71.1409 130.509 73.1863 128.709 74.9863 126.909C79.4863 122.409 84.0681 117.991 88.159 113.082C91.6772 108.909 94.2954 104 97.4045 99.4999C98.7954 97.4544 100.514 95.7362 102.559 94.3453C103.459 93.6908 104.441 92.9544 105.504 92.6271C103.786 93.2817 104.114 91.809 104.932 94.018C106.404 98.109 106.404 102.773 106.404 107.027C106.404 112.509 105.586 117.991 102.886 122.818C101.904 124.536 100.923 126.336 99.6136 127.809C98.2227 129.445 96.5863 129.363 94.6227 129.445C90.0408 129.691 83.659 129.282 80.2227 128.791C77.359 128.382 74.1681 127.891 71.7136 126.5C70.6499 125.927 71.4681 126.173 71.3863 126.991C71.8772 124.209 73.759 121.427 74.8227 118.809C78.9954 108.009 87.5863 100.318 97.2409 94.5908C99.7772 93.118 102.395 91.5635 105.014 90.1726C105.423 89.9271 105.914 89.6817 106.323 89.5181C107.632 89.1908 107.55 88.8635 105.995 88.6999C106.486 89.3544 106.568 90.4999 106.732 91.2362C108.123 97.209 106.568 103.427 105.586 109.318C104.523 115.536 103.541 121.836 102.559 128.054C102.314 129.527 102.395 132.064 101.332 133.209C99.6136 135.091 96.3409 134.6 94.1318 134.518C87.7499 134.191 81.4499 133.618 75.0681 133.127C72.0408 132.882 68.9318 132.882 65.9045 132.964C64.4318 132.964 63.0408 133.209 61.6499 133.454C60.8318 133.7 60.0954 133.864 59.2772 134.191C56.659 134.6 57.4772 135.664 61.6499 137.545V140.818C62.059 138.445 62.7136 136.236 62.8772 133.782C63.0408 130.918 63.1227 128.382 63.7772 125.6C65.1681 119.709 67.7863 113.9 70.3227 108.418C72.5318 103.754 75.3954 99.4999 78.9954 95.818C80.959 93.7726 83.3318 92.2181 85.6227 90.6635C87.1772 89.5999 89.4681 86.8999 91.2681 86.6544C99.3681 85.2635 96.0136 73.3999 88.3227 74.709Z" fill="black"/>
<path d="M51.3411 152.599V146.217H127.105V152.599" fill="#7B8F40"/>
<path d="M51.3411 152.599V146.217H127.105V152.599" stroke="black" stroke-width="4.90909" stroke-miterlimit="10"/>
<path d="M62.5501 157.509C62.4683 157.263 62.4683 157.018 62.3865 156.772C61.8956 158.736 61.3229 160.782 60.832 162.745L61.3229 162.254H52.5683C56.2501 166.345 61.4047 165.936 66.3956 165.282C72.4501 164.463 78.9138 164.382 84.9683 164.954C91.432 165.527 97.732 164.709 104.114 164.872C107.468 164.954 110.659 165.282 114.014 165.118C116.387 165.036 119.087 163.891 121.296 164.709C128.741 167.409 131.932 155.545 124.568 152.845C119.905 151.209 114.587 152.927 109.759 152.927C106.896 152.927 104.032 152.6 101.168 152.6C97.732 152.6 94.2956 153.091 90.8592 153.091C84.7229 153.172 78.9138 152.109 72.7774 152.6C70.1592 152.763 67.541 152.763 64.9229 153.172C64.1865 153.254 63.3683 153.418 62.632 153.5C61.9774 153.582 61.3229 153.582 60.6683 153.582C60.341 153.418 60.4229 153.5 61.0774 153.663C58.8683 151.209 54.6138 151.291 52.4047 153.663C50.3592 155.791 49.7865 157.918 50.5229 160.863C52.5683 168.472 64.432 165.2 62.5501 157.509Z" fill="black"/>
<path d="M93.3141 77.1571C49.3777 84.1116 51.3413 146.13 51.3413 146.13M89.2232 152.593H51.3413V165.521H127.105V152.593H89.2232Z" stroke="black" stroke-width="4.90909" stroke-miterlimit="10"/>
<path d="M119.25 48.1134C130.296 45.9861 133.241 38.1316 133.241 38.1316C126.859 20.5407 114.341 11.4589 114.341 11.4589C114.341 11.4589 105.341 19.8043 105.178 23.8134C105.178 23.8134 93.4776 16.1225 78.5049 22.668C78.5049 22.668 62.1413 31.177 48.314 26.1861C48.314 26.1861 30.9685 19.2316 29.8231 23.977C29.8231 23.977 27.1231 32.568 31.8685 40.7498C31.8685 40.7498 36.614 48.3589 38.7413 48.3589C38.7413 48.3589 56.414 50.4043 53.8776 51.2225C53.8776 51.2225 52.7322 54.9861 40.6231 54.3316C40.6231 54.3316 36.2867 54.2498 37.1049 58.4225C38.0049 62.8407 41.0322 67.0952 49.4594 68.6498C49.4594 68.6498 57.3958 71.0225 70.7322 69.0589C84.0685 67.0952 81.3685 80.8407 81.3685 80.8407" stroke="black" stroke-width="4.90909" stroke-miterlimit="10"/>
<path d="M124.978 68.9737C136.023 69.5464 141.26 63.8191 141.26 63.8191C141.26 63.8191 138.478 52.201 129.805 42.7919" stroke="black" stroke-width="4.90909" stroke-miterlimit="10"/>
<path d="M91.9225 36.6624C91.9225 38.2987 90.6134 39.6078 89.0589 39.6078C87.5043 39.6078 86.1953 38.2987 86.1953 36.6624C86.1953 35.026 87.5043 33.7169 89.0589 33.7169C90.6953 33.7987 91.9225 35.1078 91.9225 36.6624Z" fill="#7B8F40"/>
<path d="M89.0589 39.6078C90.6404 39.6078 91.9225 38.2891 91.9225 36.6624C91.9225 35.0356 90.6404 33.7169 89.0589 33.7169C87.4773 33.7169 86.1953 35.0356 86.1953 36.6624C86.1953 38.2891 87.4773 39.6078 89.0589 39.6078Z" stroke="#7B8F40" stroke-width="3.27273" stroke-miterlimit="10"/>
<path d="M88.8141 33.7941C88.8141 33.7941 85.705 33.7123 82.5959 36.8214" stroke="#7B8F40" stroke-width="3.27273" stroke-miterlimit="10"/>
<path d="M138.313 66.4453C147.804 79.2908 149.113 93.3635 149.113 93.3635C149.113 93.3635 141.177 98.8453 127.023 95.7362" stroke="black" stroke-width="4.90909" stroke-miterlimit="10"/>
<path d="M127.105 146.217C127.105 146.217 128.905 130.181 145.105 128.135M126.859 125.353C140.85 131.326 150.341 126.744 150.341 126.744C150.341 126.744 152.305 110.872 145.677 94.9989L126.859 125.353Z" stroke="black" stroke-width="4.90909" stroke-miterlimit="10"/>
<path d="M111.314 102.442C110.414 103.096 110.66 103.015 111.887 102.115C112.951 101.378 114.178 100.805 115.323 100.233C117.778 99.0054 120.396 98.1872 122.932 97.1236C127.269 95.2418 131.932 92.2963 136.678 92.2145C142.732 92.1327 145.187 83.8691 139.787 80.76C134.796 77.8963 129.314 76.8327 123.914 75.1145C117.778 73.2327 112.623 70.0418 107.06 66.9327C100.187 63.0054 93.9687 73.56 100.841 77.5691C106.405 80.76 111.805 84.0327 117.86 86.16C123.014 87.96 128.741 88.6963 133.487 91.4782C134.551 87.6327 135.532 83.8691 136.596 80.0236C129.641 80.1872 124.241 83.3782 117.941 85.9963C112.541 88.2872 103.378 90.4145 100.596 96.2236C97.4051 103.342 107.96 109.56 111.314 102.442Z" fill="black"/>
</svg>
