<svg width="180" height="180" viewBox="0 0 180 180" fill="none" xmlns="http://www.w3.org/2000/svg">
<path d="M130.377 146.04C130.214 97.931 117.941 62.6674 117.941 62.6674L130.377 55.9583V10.8765H111.396V23.7219H101.986V10.8765H83.0046V23.7219H73.5955V10.8765H54.6137V55.9583L67.0501 62.7492C67.0501 62.7492 54.6955 97.931 54.6137 146.122" fill="black"/>
<path d="M130.377 146.04C130.214 97.931 117.941 62.6674 117.941 62.6674L130.377 55.9583V10.8765H111.396V23.7219H101.986V10.8765H83.0046V23.7219H73.5955V10.8765H54.6137V55.9583L67.0501 62.7492C67.0501 62.7492 54.6955 97.931 54.6137 146.122" stroke="black" stroke-width="4.90909" stroke-miterlimit="10"/>
<path d="M54.6137 152.505V146.041H130.377V152.505" fill="#7B8F40"/>
<path d="M54.6137 152.505V146.041H130.377V152.505" stroke="black" stroke-width="4.90909" stroke-miterlimit="10"/>
<path d="M92.4955 152.501H54.6137V165.347H130.377V152.501H92.4955Z" fill="black"/>
<path d="M92.4955 152.501H54.6137V165.347H130.377V152.501H92.4955Z" stroke="black" stroke-width="4.90909" stroke-miterlimit="10"/>
<path d="M54.6137 55.2173H130.377M67.0501 62.6627H117.941H67.0501Z" stroke="#7B8F40" stroke-width="3.27273" stroke-miterlimit="10"/>
</svg>
