<svg width="32" height="32" viewBox="0 0 32 32" fill="none" xmlns="http://www.w3.org/2000/svg">
<path d="M5.99718 30V29.9331V29.0967L6.09873 28.0595C6.16643 27.3903 6.34697 26.7881 6.64034 26.2528C6.93371 25.6952 7.46403 25.3829 8.23131 25.316L9.41608 25.2156L10.7024 25.0818L13.1396 24.8476L16.0169 24.7472C16.5134 24.7472 17.0663 24.7584 17.6756 24.7807C18.3075 24.803 18.9619 24.8476 19.6389 24.9145C20.4062 24.9145 21.2073 24.9703 22.0423 25.0818C22.8773 25.1933 23.5882 25.2825 24.1749 25.3494C24.7616 25.4164 25.2017 25.7955 25.4951 26.487C25.5628 26.6654 25.653 26.9554 25.7659 27.3569C25.8787 27.7584 25.9351 28.1933 25.9351 28.6617L25.969 29.2974V29.8996V30H5.99718ZM24.378 21L24.5134 21.4684L24.615 21.9703L24.6827 22.4052C24.6827 22.5836 24.6262 22.7621 24.5134 22.9405C24.4006 23.0967 24.1749 23.2639 23.8364 23.4424L19.6389 23.0409L16.0169 22.8736L12.9027 22.974L10.2962 23.2082L9.24683 23.342L8.23131 23.4424C7.96051 23.2863 7.73484 23.0855 7.5543 22.8401C7.4866 22.7063 7.43018 22.4721 7.38505 22.1375L7.4189 21.803C7.4189 21.6468 7.44147 21.5242 7.4866 21.4349L7.52045 21.2342L7.58815 21.0669L7.68971 20.5316L7.7574 20.0297C7.7574 19.6952 7.66714 19.4275 7.4866 19.2268C7.3512 18.9814 7.1481 18.7472 6.87729 18.5242L6.40339 18.1227L5.86178 17.6543C5.43301 17.2751 5.00423 16.7844 4.57546 16.1822C4.19182 15.5576 4 14.7546 4 13.7732C4 12.2342 4.51904 10.9182 5.55712 9.82528C6.5952 8.71004 7.83639 8.15242 9.28068 8.15242C10.5444 8.15242 11.5712 8.38662 12.3611 8.85502C13.0606 9.25651 13.6587 9.75837 14.1551 10.3606L14.2229 10.461C14.5839 10.8848 14.8547 11.2974 15.0353 11.6989C15.2384 12.1004 15.4302 12.3903 15.6107 12.5688L15.8138 12.7695L16.0169 12.803L16.1523 12.7695L16.3216 12.6022L16.7955 11.7323C16.9535 11.3532 17.2017 10.9294 17.5402 10.461L17.6079 10.3606C18.0592 9.80298 18.6911 9.30112 19.5035 8.85502C20.3159 8.38662 21.4781 8.15242 22.9901 8.15242C24.4118 8.15242 25.5966 8.66543 26.5444 9.69145C27.5148 10.6952 28 12.0558 28 13.7732C28 14.6208 27.7969 15.3457 27.3907 15.948C27.0071 16.5279 26.6008 17.052 26.1721 17.5204L25.7659 17.9219L25.3935 18.3234L24.6488 19.3606C24.4457 19.6952 24.3441 20.0632 24.3441 20.4647L24.378 21ZM10.7701 15.7472L10.8716 15.948L11.1425 16.4498L11.5487 16.9182L11.9549 17.487C12.0903 17.6654 12.1918 17.855 12.2595 18.0558L12.2934 18.2231L12.3272 18.3569V18.5242L12.3611 18.658L12.4626 19.1933C12.5303 19.3271 12.6432 19.3941 12.8011 19.3941C12.914 19.3941 13.0268 19.3271 13.1396 19.1933L13.2412 18.6915V18.4907V18.29C13.2412 18.1338 13.2186 18.0112 13.1735 17.9219L13.0719 17.5539L12.8688 17.119L12.6657 16.684L12.3611 15.9814L12.158 15.2454L12.0903 15.0446L11.8195 14.71C11.7518 14.6431 11.6164 14.5874 11.4133 14.5428C11.3004 14.5428 11.1763 14.6097 11.0409 14.7435L10.8378 15.1784C10.8152 15.29 10.7927 15.3569 10.7701 15.3792V15.5465V15.7472ZM21.1622 15.3792L21.1284 15.1784L20.8914 14.7435C20.8237 14.6097 20.7109 14.5428 20.5529 14.5428C20.3949 14.5428 20.2482 14.5985 20.1128 14.71L19.8759 15.0446L19.8082 15.1784L19.5712 15.9145L19.3004 16.5836L19.0635 17.0855L18.8942 17.5539L18.7588 17.9219L18.725 18.29V18.4907V18.6915L18.8265 19.1933C18.8942 19.3271 19.0071 19.3941 19.165 19.3941C19.3004 19.3941 19.402 19.316 19.4697 19.1599L19.6051 18.658L19.6389 18.4573V18.2231L19.7066 18.0558L20.0113 17.487L20.4175 16.9182L20.7898 16.4498L21.0945 15.948L21.1622 15.7472L21.1961 15.5465L21.1622 15.3792ZM17.7095 3.56877C18.1382 3.94796 18.3526 4.47212 18.3526 5.14127C18.3526 5.49815 18.2398 6 18.0141 6.64684L17.2694 8.68773C17.2243 8.86617 17.1678 9 17.1001 9.08922L16.9647 9.45725L16.4231 10.6952L15.9831 11.6989L15.5092 10.6617C15.3963 10.3048 15.3061 10.0595 15.2384 9.92565C15.103 9.6803 15.0127 9.51301 14.9676 9.42379L14.8322 9.05576L14.6629 8.68773L13.952 6.74722C13.7489 6.14499 13.6474 5.66543 13.6474 5.30855V5.10781L13.6812 4.90706C13.7489 4.43866 13.9746 4.00372 14.3583 3.60223C14.7645 3.20075 15.3061 3 15.9831 3C16.7278 3 17.3032 3.18959 17.7095 3.56877V3.56877Z" fill="#111111"/>
</svg>
