<svg width="32" height="32" viewBox="0 0 32 32" fill="none" xmlns="http://www.w3.org/2000/svg">
<path d="M7.19354 30V29.4038L7.2258 28.8076C7.2258 28.2777 7.29032 27.7588 7.41935 27.251C7.56989 26.721 7.78495 26.18 8.06452 25.628C8.51613 24.6344 9.4086 23.8726 10.7419 23.3427C10.7419 22.6803 11.0215 22.0951 11.5806 21.5873L13.4516 20.1962L13.6452 20.0637L13.8387 19.9312L15.4516 18.7057C15.9247 18.2862 16.1613 17.8004 16.1613 17.2484L16.0645 16.7516C16 16.6191 15.828 16.5418 15.5484 16.5197L15.2581 16.6191L15.0323 16.851L14.7742 17.1822L14.5484 17.5134L14.1613 17.9771L13.6774 18.3414C13.4839 18.4297 13.2903 18.518 13.0968 18.6064C13.0538 18.6285 12.8495 18.6947 12.4839 18.8051L11.4516 19.1363C11.1075 19.2246 10.8172 19.3461 10.5806 19.5006C10.3656 19.6331 10.2366 19.8208 10.1935 20.0637C10.172 20.2845 10.1505 20.4059 10.129 20.428L10.0323 20.6268C9.86021 20.8034 9.55914 21.0132 9.12903 21.2561C8.72043 21.4327 8.29032 21.521 7.83871 21.521C7 21.521 6.33333 21.2008 5.83871 20.5605C5.34409 19.9202 5.06452 19.2136 5 18.4408V18.242C5 17.403 5.19355 16.6301 5.58064 15.9236C5.7957 15.5261 6 15.1839 6.19355 14.8968C6.3871 14.5877 6.62366 14.2675 6.90323 13.9363L7.45161 13.2408L7.96774 12.5121C8.13979 12.2692 8.24731 12.1036 8.29032 12.0153C8.35484 11.8828 8.4301 11.7062 8.51613 11.4853C8.62365 11.2645 8.69892 11.0769 8.74193 10.9223C8.78494 10.7456 8.80645 10.5359 8.80645 10.293C8.80645 9.9397 8.92473 9.64161 9.16129 9.39873L10.0645 8.5707L10.1935 8.47134L10.3548 8.37197L11.3548 7.47771C11.6989 7.12442 11.871 6.76009 11.871 6.38471L11.9355 5.92102C11.9355 5.67813 11.957 5.43524 12 5.19236C12.0645 4.94947 12.1613 4.70658 12.2903 4.46369C12.4409 4.22081 12.6667 4.06624 12.9677 4C13.2473 4.15456 13.5376 4.40849 13.8387 4.76178L14.7742 5.85478C15.0968 6.31847 15.4409 6.738 15.8064 7.11338C16.1935 7.46667 16.5914 7.69851 17 7.80892C17.0645 7.831 17.2366 7.8862 17.5161 7.97452C17.8172 8.04076 18.1613 8.14013 18.5484 8.27261C19.3871 8.5155 20.2903 8.99023 21.2581 9.69682C22.2473 10.3813 23.1936 11.4191 24.0968 12.8102C25 14.1792 25.4516 16.0229 25.4516 18.3414C25.4516 18.8051 25.4409 19.2357 25.4194 19.6331C25.3978 20.0306 25.3548 20.4059 25.2903 20.7592L24.9032 22.6803L24.7742 23.0446L24.6774 23.4089C25.8387 24.1817 26.5161 25.076 26.7097 26.0917C26.9032 27.1074 27 28.2225 27 29.4369V29.735V30H7.19354ZM24.6129 27.6484C24.6129 26.9197 24.3226 26.3898 23.7419 26.0586C23.4624 25.8819 23.172 25.7384 22.871 25.628C22.5699 25.5176 22.1398 25.3741 21.5806 25.1975L21.4839 25.1643L20.8064 24.9987L20.2258 24.8994L18.7419 24.8H17.4839H17.1935H16.9355H16.8064H16.6774L15.4194 24.8331L13.7419 24.9325L13.0323 25.0318L12.3871 25.1643C11.6344 25.3631 10.9785 25.6391 10.4194 25.9924C9.86021 26.3236 9.58064 26.8756 9.58064 27.6484H24.6129ZM21.6129 13.307C20.5806 11.9159 19.4409 10.8892 18.1935 10.2267C17.8064 10.0059 17.3979 9.8293 16.9677 9.69682C16.5376 9.56433 16.1183 9.49809 15.7097 9.49809C15.5806 9.49809 15.4193 9.39873 15.2258 9.2L14.6774 8.53758L14.6129 8.47134L14 7.67643C13.828 7.49979 13.6667 7.38938 13.5161 7.34522L13.3871 7.41146C13.3226 7.87516 13.172 8.27261 12.9355 8.60382C12.6989 8.93503 12.4409 9.22208 12.1613 9.46497L11.3226 10.1274C11.1075 10.282 10.9677 10.4586 10.9032 10.6573C10.6882 11.4301 10.4516 12.0926 10.1935 12.6446L9.41935 14.135C9.05376 14.7091 8.69892 15.2059 8.35483 15.6255C8.03225 16.0229 7.78495 16.3873 7.6129 16.7185L7.35484 17.2484L7.29032 17.7452V17.9439L7.32258 18.1427C7.36559 18.4297 7.45161 18.6726 7.58064 18.8713C7.70968 19.0701 7.90322 19.1694 8.16129 19.1694L8.45161 19.1363L8.67742 19.0038L8.93548 18.7389L9.35484 18.2752L9.41935 18.2089L9.54838 18.1096L10.0968 17.7783L10.8065 17.4471L11.8387 17.0497L12.4194 16.8841C12.5699 16.862 12.6667 16.8399 12.7097 16.8178L12.9677 16.5529L13.3226 16.0892L13.7419 15.5261L14.5161 14.5987C14.8387 14.3117 15.1828 14.1682 15.5484 14.1682H15.7419C16.2581 14.1682 16.7312 14.3669 17.1613 14.7643C17.5914 15.1618 17.9355 15.6144 18.1935 16.1223L18.3871 16.6522L18.4516 17.149C18.4516 18.2089 18.2043 19.0149 17.7097 19.5669C17.2366 20.0968 16.6989 20.5605 16.0968 20.958L15.2903 21.3885C14.9892 21.4989 14.7634 21.6204 14.6129 21.7529L13.9677 22.1834C13.8602 22.2938 13.7849 22.4705 13.7419 22.7134L15.1613 22.5478C15.7419 22.4815 16.5591 22.4484 17.6129 22.4484L20.2581 22.5478C20.5161 22.5478 20.7634 22.5588 21 22.5809C21.2581 22.5809 21.7204 22.6251 22.3871 22.7134C22.6452 22.2938 22.8602 21.6204 23.0323 20.693C23.0753 20.4059 23.1075 19.9643 23.129 19.3682C23.1505 18.7499 23.1613 18.2641 23.1613 17.9108C23.1613 16.2769 22.6452 14.7423 21.6129 13.307V13.307Z" fill="#111111"/>
<path d="M24.6129 27.6484C24.6129 26.9197 24.3226 26.3898 23.742 26.0586C23.4624 25.8819 23.1721 25.7384 22.871 25.628C22.5699 25.5176 22.1398 25.3741 21.5807 25.1974L21.4839 25.1643L20.8065 24.9987L20.2258 24.8994L18.742 24.8H17.4839H17.1936H16.9355H16.8065H16.6774L15.4194 24.8331L13.742 24.9325L13.0323 25.0318L12.3871 25.1643C11.6344 25.363 10.9785 25.6391 10.4194 25.9923C9.86024 26.3236 9.58067 26.8756 9.58067 27.6484H24.6129ZM21.6129 13.307C20.5807 11.9159 19.4409 10.8892 18.1936 10.2267C17.8065 10.0059 17.3979 9.82929 16.9678 9.69681C16.5377 9.56432 16.1183 9.49808 15.7097 9.49808C15.5807 9.49808 15.4194 9.39872 15.2258 9.19999L14.6774 8.53757L14.6129 8.47133L14 7.67642C13.828 7.49978 13.6667 7.38938 13.5162 7.34521L13.3871 7.41146C13.3226 7.87515 13.1721 8.2726 12.9355 8.60381C12.699 8.93502 12.4409 9.22207 12.1613 9.46496L11.3226 10.1274C11.1075 10.2819 10.9678 10.4586 10.9033 10.6573C10.6882 11.4301 10.4516 12.0926 10.1936 12.6446L9.41938 14.135C9.05379 14.7091 8.69895 15.2059 8.35486 15.6255C8.03228 16.0229 7.78498 16.3873 7.61293 16.7185L7.35487 17.2484L7.29034 17.7452V17.9439L7.32261 18.1427C7.36562 18.4297 7.45164 18.6726 7.58067 18.8713C7.7097 19.0701 7.90325 19.1694 8.16132 19.1694L8.45164 19.1363L8.67745 19.0038L8.9355 18.7388L9.35487 18.2752L9.41938 18.2089L9.54841 18.1095L10.0968 17.7783L10.8065 17.4471L11.8387 17.0497L12.4194 16.8841C12.5699 16.862 12.6667 16.8399 12.7097 16.8178L12.9678 16.5529L13.3226 16.0892L13.742 15.5261L14.5162 14.5987C14.8387 14.3117 15.1828 14.1681 15.5484 14.1681H15.742C16.2581 14.1681 16.7312 14.3669 17.1613 14.7643C17.5914 15.1618 17.9355 15.6144 18.1936 16.1223L18.3871 16.6522L18.4516 17.149C18.4516 18.2089 18.2043 19.0149 17.7097 19.5669C17.2366 20.0968 16.699 20.5605 16.0968 20.958L15.2904 21.3885C14.9893 21.4989 14.7635 21.6204 14.6129 21.7529L13.9678 22.1834C13.8602 22.2938 13.785 22.4705 13.742 22.7134L15.1613 22.5478C15.742 22.4815 16.5592 22.4484 17.6129 22.4484L20.2581 22.5478C20.5162 22.5478 20.7635 22.5588 21 22.5809C21.2581 22.5809 21.7205 22.625 22.3871 22.7134C22.6452 22.2938 22.8602 21.6204 23.0323 20.693C23.0753 20.4059 23.1076 19.9643 23.1291 19.3681C23.1506 18.7499 23.1613 18.2641 23.1613 17.9108C23.1613 16.2768 22.6452 14.7422 21.6129 13.307Z" fill="#F5F5F5"/>
</svg>
