<svg width="32" height="32" viewBox="0 0 32 32" fill="none" xmlns="http://www.w3.org/2000/svg">
<path d="M6.04534 30C6.04534 28.981 6.05626 28.279 6.07809 27.894C6.12175 27.5091 6.20907 26.909 6.34005 26.0937C6.47103 25.2785 7.08228 24.4293 8.1738 23.5462L5.19395 13.7296C4.56087 13.7296 4.03694 13.4918 3.62216 13.0163C3.20739 12.5408 3 11.986 3 11.3519C3 10.6499 3.22922 10.0611 3.68765 9.5856C4.14609 9.11005 4.69185 8.87228 5.32494 8.87228C5.97985 8.87228 6.53652 9.12138 6.99496 9.61956C7.4534 10.0951 7.68262 10.6726 7.68262 11.3519L7.58438 11.9633C7.54072 12.1671 7.42066 12.3936 7.22418 12.6427L9.81108 15.4959L10.7934 10.2989C10.2477 10.0498 9.82199 9.69882 9.51637 9.24592C9.21074 8.79303 9.05793 8.28351 9.05793 7.71739C9.05793 6.97011 9.30898 6.33605 9.81108 5.81522C10.335 5.27174 10.9681 5 11.7103 5C12.4089 5 13.0311 5.27174 13.5768 5.81522C14.1226 6.33605 14.3955 6.97011 14.3955 7.71739C14.3955 8.14764 14.2863 8.56657 14.068 8.97418C13.8715 9.35915 13.6096 9.6875 13.2821 9.95924L15.9345 15.0883L18.6196 9.95924C18.4013 9.80072 18.2049 9.60824 18.0302 9.38179C17.8774 9.1327 17.7464 8.84964 17.6373 8.53261L17.539 8.09103L17.5063 7.71739C17.5063 6.99275 17.7683 6.3587 18.2922 5.81522C18.8161 5.27174 19.4383 5 20.1587 5C20.8573 5 21.4794 5.27174 22.0252 5.81522C22.5709 6.33605 22.8438 6.97011 22.8438 7.71739C22.8438 8.26087 22.6801 8.77038 22.3526 9.24592C22.047 9.72147 21.6322 10.0725 21.1083 10.2989L22.0252 15.5299L24.6448 12.6427L24.4156 12.0312L24.3174 11.3519C24.3174 10.6499 24.5466 10.0611 25.005 9.5856C25.4635 9.11005 26.0092 8.87228 26.6423 8.87228C27.2972 8.87228 27.8539 9.12138 28.3123 9.61956C28.7708 10.0951 29 10.6726 29 11.3519C29 11.986 28.7926 12.5294 28.3778 12.9823C27.9849 13.4126 27.4719 13.6617 26.8388 13.7296L23.7934 23.4783C24.8631 24.3161 25.4962 25.2785 25.6927 26.3655C25.8892 27.4524 25.9874 28.6639 25.9874 30H6.04534ZM23.5642 27.5883C23.5642 26.841 23.2695 26.3089 22.6801 25.9918C22.1125 25.6522 21.3266 25.3351 20.3224 25.0408L19.5693 24.8709L18.8489 24.7351L17.5063 24.6671H16.3929H16.131H15.9345H15.8035L14.5264 24.7011C14.1553 24.7011 13.7951 24.7011 13.4458 24.7011C13.0966 24.769 12.8455 24.8143 12.6927 24.837L11.9723 24.9389L11.3174 25.0747C10.5751 25.2332 9.90932 25.4937 9.3199 25.856C8.75231 26.2183 8.46851 26.7957 8.46851 27.5883H23.5642ZM20.9446 19.0285L19.7657 11.7935L15.9345 18.8927L12.1688 11.7935L10.9244 19.0965L7.55164 15.5299L7.48614 15.6318L10.1385 22.7649L11.8086 22.4932L13.4131 22.3234L14.4937 22.2894L15.6071 22.2554L18.1612 22.3573L20.9446 22.663L21.4358 22.7649C21.6541 22.7649 21.8287 22.7876 21.9597 22.8329L24.4156 15.5978L24.3501 15.5299L20.9446 19.0285ZM4.76826 11.8954C4.89924 12.0313 5.0848 12.1105 5.32494 12.1332C5.56507 12.1332 5.75063 12.0539 5.88161 11.8954C6.01259 11.7369 6.09991 11.5331 6.14357 11.284C6.14357 11.0802 6.07809 10.9103 5.9471 10.7745C5.81612 10.6159 5.60873 10.514 5.32494 10.4687C5.12846 10.4687 4.95382 10.548 4.80101 10.7065C4.64819 10.8424 4.56087 11.0349 4.53904 11.284C4.53904 11.5104 4.61545 11.7142 4.76826 11.8954ZM26.0856 11.8954C26.2166 12.0313 26.4022 12.1105 26.6423 12.1332C26.8388 12.1332 27.0134 12.0652 27.1662 11.9293C27.3191 11.7708 27.4173 11.5557 27.461 11.284C27.461 11.0802 27.3736 10.899 27.199 10.7405C27.0898 10.582 26.9043 10.4914 26.6423 10.4687C26.4458 10.4687 26.2712 10.548 26.1184 10.7065C25.9874 10.8424 25.9001 11.0349 25.8564 11.284C25.8564 11.5104 25.9328 11.7142 26.0856 11.8954ZM11.0554 8.46467C11.2301 8.60054 11.4484 8.69112 11.7103 8.73641C11.9723 8.73641 12.1906 8.64583 12.3652 8.46467C12.5617 8.26087 12.6599 8.0231 12.6599 7.75136C12.6599 7.50226 12.5726 7.28714 12.398 7.10598C12.2452 6.92482 12.016 6.82292 11.7103 6.80027C11.4702 6.80027 11.2628 6.87953 11.0882 7.03804C10.9353 7.19656 10.8371 7.43433 10.7934 7.75136C10.7934 8.04574 10.8808 8.28351 11.0554 8.46467V8.46467ZM19.5038 8.46467C19.6784 8.60054 19.8967 8.69112 20.1587 8.73641C20.4425 8.73641 20.6717 8.64583 20.8463 8.46467C20.9773 8.28351 21.0647 8.04574 21.1083 7.75136C21.1083 7.47962 21.0319 7.26449 20.8791 7.10598C20.7263 6.94746 20.4861 6.84556 20.1587 6.80027C19.9186 6.80027 19.7112 6.87953 19.5365 7.03804C19.3837 7.19656 19.2855 7.43433 19.2418 7.75136C19.2418 8.04574 19.3291 8.28351 19.5038 8.46467V8.46467Z" fill="#111111"/>
<path d="M23.5643 27.5883C23.5643 26.841 23.2695 26.3089 22.6801 25.9918C22.1125 25.6522 21.3266 25.3351 20.3224 25.0408L19.5693 24.8709L18.8489 24.735L17.5063 24.6671H16.393H16.131H15.9345H15.8035L14.5265 24.7011C14.1554 24.7011 13.7952 24.7011 13.4459 24.7011C13.0966 24.769 12.8455 24.8143 12.6927 24.8369L11.9723 24.9389L11.3174 25.0747C10.5752 25.2332 9.90934 25.4936 9.31992 25.856C8.75233 26.2183 8.46853 26.7957 8.46853 27.5883H23.5643ZM20.9446 19.0285L19.7658 11.7935L15.9345 18.8927L12.1688 11.7935L10.9245 19.0965L7.55166 15.5299L7.48617 15.6318L10.1386 22.7649L11.8086 22.4932L13.4131 22.3234L14.4937 22.2894L15.6071 22.2554L18.1612 22.3573L20.9446 22.663L21.4358 22.7649C21.6541 22.7649 21.8287 22.7876 21.9597 22.8329L24.4156 15.5978L24.3501 15.5299L20.9446 19.0285ZM4.76828 11.8954C4.89926 12.0312 5.08482 12.1105 5.32496 12.1331C5.56509 12.1331 5.75065 12.0539 5.88163 11.8954C6.01262 11.7369 6.09993 11.5331 6.14359 11.284C6.14359 11.0802 6.07811 10.9103 5.94712 10.7744C5.81614 10.6159 5.60875 10.514 5.32496 10.4687C5.12848 10.4687 4.95384 10.548 4.80103 10.7065C4.64822 10.8424 4.56089 11.0349 4.53906 11.284C4.53906 11.5104 4.61547 11.7142 4.76828 11.8954ZM26.0857 11.8954C26.2166 12.0312 26.4022 12.1105 26.6423 12.1331C26.8388 12.1331 27.0135 12.0652 27.1663 11.9293C27.3191 11.7708 27.4173 11.5557 27.461 11.284C27.461 11.0802 27.3737 10.899 27.199 10.7405C27.0899 10.582 26.9043 10.4914 26.6423 10.4687C26.4459 10.4687 26.2712 10.548 26.1184 10.7065C25.9874 10.8424 25.9001 11.0349 25.8564 11.284C25.8564 11.5104 25.9329 11.7142 26.0857 11.8954ZM11.0554 8.46467C11.2301 8.60053 11.4484 8.69111 11.7103 8.7364C11.9723 8.7364 12.1906 8.64582 12.3653 8.46467C12.5617 8.26086 12.66 8.02309 12.66 7.75135C12.66 7.50225 12.5727 7.28713 12.398 7.10597C12.2452 6.92481 12.016 6.82291 11.7103 6.80026C11.4702 6.80026 11.2628 6.87952 11.0882 7.03803C10.9354 7.19655 10.8371 7.43432 10.7935 7.75135C10.7935 8.04573 10.8808 8.28351 11.0554 8.46467ZM19.5038 8.46467C19.6784 8.60053 19.8967 8.69111 20.1587 8.7364C20.4425 8.7364 20.6717 8.64582 20.8464 8.46467C20.9773 8.28351 21.0647 8.04573 21.1083 7.75135C21.1083 7.47961 21.0319 7.26448 20.8791 7.10597C20.7263 6.94745 20.4862 6.84555 20.1587 6.80026C19.9186 6.80026 19.7112 6.87952 19.5365 7.03803C19.3837 7.19655 19.2855 7.43432 19.2418 7.75135C19.2418 8.04573 19.3292 8.28351 19.5038 8.46467Z" fill="#F5F5F5"/>
</svg>
