<svg width="32" height="32" viewBox="0 0 32 32" fill="none" xmlns="http://www.w3.org/2000/svg">
<path d="M6 30C6 28.5272 6.09009 27.2887 6.27027 26.2845C6.47297 25.258 7.13738 24.265 8.26351 23.3054L9.3446 15.0042L9.1081 14.7364L8.87162 14.4351L8.33108 13.7322L7.89189 12.9289C7.86937 12.8173 7.84685 12.7503 7.82433 12.728L7.75675 12.4937C7.62162 12.1144 7.52027 11.7238 7.45271 11.3222L7.38513 9.94979L7.41892 8.77824L7.58784 7.4728C8.24099 7.16039 8.90541 6.93724 9.58109 6.80335L11.3716 6.56904L12.0811 8.10879H13.6689L14.0743 6.13389L15.0878 6.03347L16.1014 6H16.4392L16.777 6.03347L17.4527 6.06695L18.1284 6.13389L18.4324 8.10879H19.9527L20.5608 6.60251L20.8987 6.63598H21.2365L22.8919 6.93724C23.455 7.04881 23.9617 7.22734 24.4122 7.4728L24.5473 8.24268L24.5811 9.17992L24.5473 9.74895V10.3515L24.4122 11.3891C24.3896 11.59 24.3784 11.7908 24.3784 11.9916C24.3108 12.1478 24.2658 12.2594 24.2433 12.3264L24.1757 12.4603L23.9054 13.0962L23.6351 13.5983L23.1959 14.2678L22.6554 15.0042L23.7703 23.3054C24.7838 24.0418 25.4032 25.0014 25.6284 26.1841C25.8761 27.3668 26 28.6388 26 30H6ZM23.5 27.6234C23.5 26.8647 23.196 26.3291 22.5878 26.0167C22.0023 25.682 21.1914 25.3696 20.1554 25.0795L19.2095 24.8787L17.9932 24.7782L17.0135 24.7448H16.2027L15.223 24.7782C14.9752 24.7782 14.7387 24.7782 14.5135 24.7782C14.2883 24.7782 13.9955 24.8006 13.6351 24.8452L12.3851 24.9456C12.205 24.9679 12.036 24.9791 11.8784 24.9791C11.7883 25.0014 11.6419 25.046 11.4392 25.113C10.6734 25.2692 9.98648 25.5258 9.37838 25.8828C8.79279 26.2399 8.5 26.8201 8.5 27.6234H23.5ZM20.4932 16.1757C20.1779 16.0642 19.75 15.9526 19.2095 15.841L17.723 15.6402L16.8446 15.5732L16.0676 15.5397C15.4595 15.5397 14.9077 15.5509 14.4122 15.5732C13.9167 15.5955 13.3986 15.6513 12.8581 15.7406C12.3401 15.8298 11.9009 15.9749 11.5405 16.1757L10.7297 22.7364L13.2635 22.4686L16.2365 22.3682L19.1081 22.4686C19.5586 22.4686 19.9077 22.4909 20.1554 22.5356C20.4032 22.5579 20.7973 22.6248 21.3378 22.7364L20.4932 16.1757ZM18.2297 10.7866L17.5203 8.87866L16.7432 8.74477L16 8.7113L15.3243 8.77824L14.6487 8.87866L13.8716 10.7866H11.8108L11.0338 8.94561L10.8986 8.91213H10.7635L10.4257 8.97908L10.0878 9.0795L9.91892 9.14644L9.75 9.21339V9.34728C9.75 10.106 9.77253 10.6304 9.81757 10.9205C9.86262 11.1883 9.97523 11.5676 10.1554 12.0586C10.4482 12.8396 10.8649 13.364 11.4054 13.6318L13.9054 13.2971L16 13.1632C16.3153 13.1632 16.6081 13.1632 16.8784 13.1632C17.1712 13.1632 17.4865 13.1855 17.8243 13.2301C18.455 13.2301 19.0068 13.2859 19.4797 13.3975L20.1216 13.4979L20.7635 13.6318C21.259 13.364 21.6081 12.9177 21.8108 12.2929C21.9009 12.0028 21.9685 11.7015 22.0135 11.3891C22.0811 11.0767 22.1374 10.6973 22.1824 10.251L22.2162 9.71548V9.21339L21.8784 9.0795L21.473 8.97908L21.2027 8.94561L20.9324 8.91213L20.1554 10.7866H18.2297Z" fill="#111111"/>
<path d="M23.5 27.6234C23.5 26.8647 23.196 26.3292 22.5878 26.0167C22.0023 25.682 21.1915 25.3696 20.1554 25.0795L19.2095 24.8787L17.9932 24.7782L17.0135 24.7448H16.2027L15.223 24.7782C14.9752 24.7782 14.7387 24.7782 14.5135 24.7782C14.2883 24.7782 13.9955 24.8006 13.6351 24.8452L12.3851 24.9456C12.205 24.9679 12.036 24.9791 11.8784 24.9791C11.7883 25.0014 11.6419 25.046 11.4392 25.113C10.6734 25.2692 9.98649 25.5258 9.37838 25.8829C8.79279 26.2399 8.5 26.8201 8.5 27.6234H23.5ZM20.4933 16.1757C20.1779 16.0642 19.75 15.9526 19.2095 15.841L17.723 15.6402L16.8446 15.5732L16.0676 15.5398C15.4595 15.5398 14.9077 15.5509 14.4122 15.5732C13.9167 15.5955 13.3987 15.6513 12.8581 15.7406C12.3401 15.8299 11.9009 15.9749 11.5405 16.1757L10.7297 22.7364L13.2635 22.4686L16.2365 22.3682L19.1081 22.4686C19.5586 22.4686 19.9077 22.4909 20.1554 22.5356C20.4032 22.5579 20.7973 22.6248 21.3378 22.7364L20.4933 16.1757ZM18.2297 10.7866L17.5203 8.87867L16.7432 8.74478L16 8.7113L15.3243 8.77825L14.6487 8.87867L13.8716 10.7866H11.8108L11.0338 8.94561L10.8987 8.91214H10.7635L10.4257 8.97909L10.0878 9.0795L9.91892 9.14645L9.75 9.21339V9.34729C9.75 10.106 9.77253 10.6304 9.81757 10.9205C9.86262 11.1883 9.97523 11.5676 10.1554 12.0586C10.4482 12.8396 10.8649 13.364 11.4054 13.6318L13.9054 13.2971L16 13.1632C16.3153 13.1632 16.6081 13.1632 16.8784 13.1632C17.1712 13.1632 17.4865 13.1855 17.8243 13.2301C18.455 13.2301 19.0068 13.2859 19.4797 13.3975L20.1216 13.4979L20.7635 13.6318C21.259 13.364 21.6081 12.9177 21.8108 12.2929C21.9009 12.0028 21.9685 11.7015 22.0135 11.3891C22.0811 11.0767 22.1374 10.6974 22.1824 10.2511L22.2162 9.71549V9.21339L21.8784 9.0795L21.473 8.97909L21.2027 8.94561L20.9324 8.91214L20.1554 10.7866H18.2297Z" fill="#F5F5F5"/>
</svg>
