<svg width="180" height="180" viewBox="0 0 180 180" fill="none" xmlns="http://www.w3.org/2000/svg">
<path d="M118.906 84.6191C118.442 83.3603 117.946 82.035 117.416 80.6434C116.952 79.1859 116.389 77.8275 115.726 76.5686L88.1944 87.5014L83.1257 72.5929L107.377 61.1629C106.78 60.1689 106.217 59.175 105.688 58.1811C105.157 57.1871 104.694 56.1271 104.296 55.0007C103.766 53.9405 103.136 52.8803 102.408 51.8202C101.745 50.7601 101.149 49.6667 100.618 48.5403C100.022 47.4139 99.3594 46.3206 98.6304 45.2604C97.902 44.2002 97.272 43.0738 96.7421 41.8812C96.5436 41.5499 96.3776 41.2185 96.2454 40.8872C96.1791 40.5559 96.0795 40.1915 95.9473 39.794C95.2847 38.6675 94.3898 37.1766 93.2636 35.3214C92.7996 34.7913 91.872 33.3005 90.4804 30.8488C86.571 37.7399 82.629 44.6641 78.6532 51.6214C74.6775 58.5124 70.9009 65.4699 67.3228 72.4933C65.2022 76.9331 63.4466 81.1074 62.055 85.0168C60.597 89.3233 59.4045 93.5308 58.4769 97.6393C57.0853 104.265 56.1246 112.051 55.5945 120.996C55.1969 127.225 54.9319 133.453 54.7994 139.682C54.7331 145.844 54.6999 152.006 54.6999 158.168H126.46C126.46 156.777 126.394 155.352 126.261 153.894C126.195 152.37 126.162 150.913 126.162 149.521C125.963 144.154 125.731 138.754 125.466 133.32C125.267 127.887 125.102 122.487 124.969 117.12C124.903 115.927 124.804 114.701 124.671 113.442C124.604 112.183 124.571 110.924 124.571 109.666C124.505 108.009 123.975 105.094 122.981 100.919C122.981 99.594 122.782 98.2688 122.385 96.9435C122.053 95.6183 121.755 94.2598 121.49 92.8688C121.424 91.4108 121.06 90.0523 120.397 88.7934C119.801 87.4682 119.304 86.0766 118.906 84.6191ZM130.535 162.243H50.625C50.625 142.63 51.0226 127.324 51.8177 116.324C52.6128 105.259 54.3687 95.4529 57.0853 86.9051C59.8686 78.3574 63.8769 69.4783 69.1116 60.2685C74.4126 51.0582 81.5687 38.4688 90.5799 22.5C91.3089 24.0902 92.1369 25.7136 93.0645 27.3701C93.9926 29.0266 94.8538 30.4512 95.6486 31.6439C96.3776 32.9029 97.2394 34.3275 98.2333 35.9177C99.2931 37.4417 99.9557 38.7006 100.221 39.6946C100.685 41.0198 101.314 42.3119 102.109 43.5708C102.971 44.7635 103.7 45.8567 104.296 46.8507C104.759 47.8446 105.455 49.1035 106.383 50.6275C107.377 52.1515 108.006 53.4104 108.272 54.4043C108.537 54.9344 109.232 56.2596 110.359 58.3802C111.485 60.5003 112.313 62.0573 112.844 63.0512L88.0954 74.6798L90.5799 82.2336L117.416 71.5989C117.614 72.1288 118.078 73.0238 118.807 74.2826C119.602 75.4751 120.165 76.4359 120.497 77.1649C120.695 77.9597 121.093 79.0864 121.689 80.5438C122.286 82.0018 122.716 83.2275 122.981 84.2214C123.445 85.5467 123.975 86.9383 124.572 88.3958C125.168 89.7874 125.466 91.1126 125.466 92.3715C125.665 93.6304 125.963 94.9888 126.361 96.4468C126.758 97.9043 126.957 99.2295 126.957 100.422C127.222 101.747 127.553 103.238 127.951 104.895C128.348 106.485 128.547 108.042 128.547 109.566C128.547 110.891 128.613 112.481 128.746 114.337C128.945 116.126 129.044 117.915 129.044 119.704C129.044 121.493 129.11 123.415 129.243 125.468C129.441 127.456 129.541 129.577 129.541 131.83C129.541 133.818 129.607 135.971 129.74 138.29C129.938 140.543 130.038 142.961 130.038 145.545C130.038 148.064 130.104 150.714 130.236 153.497C130.435 156.279 130.534 159.195 130.534 162.243H130.535Z" fill="#1B262C"/>
<path d="M118.906 84.6191C118.442 83.3603 117.946 82.035 117.415 80.6434C116.952 79.186 116.389 77.8275 115.726 76.5686L88.1943 87.5014L83.1257 72.5929L107.377 61.1629C106.78 60.169 106.217 59.175 105.688 58.1811C105.157 57.1871 104.694 56.1273 104.296 55.0008C103.765 53.9407 103.136 52.8805 102.408 51.8203C101.745 50.7602 101.148 49.6669 100.618 48.5404C100.022 47.414 99.3594 46.3207 98.6304 45.2606C97.9014 44.2004 97.272 43.074 96.7421 41.8813C96.5435 41.55 96.3776 41.2187 96.2454 40.8874C96.179 40.5561 96.0795 40.1917 95.9467 39.7941C95.2847 38.6677 94.3897 37.1768 93.2636 35.3215C92.7995 34.7914 91.872 33.3006 90.4803 30.8489C86.571 37.74 82.6284 44.6642 78.6532 51.6215C74.6775 58.5124 70.9008 65.47 67.3228 72.4933C65.2022 76.9331 63.446 81.1075 62.055 85.0168C60.597 89.3239 59.4045 93.5314 58.4769 97.6393C57.0853 104.266 56.1245 112.051 55.5944 120.996C55.1969 127.225 54.9319 133.453 54.7993 139.682C54.733 145.844 54.6999 152.006 54.6999 158.168H126.46C126.46 156.777 126.394 155.352 126.261 153.894C126.195 152.371 126.162 150.913 126.162 149.521C125.963 144.154 125.731 138.754 125.466 133.32C125.267 127.887 125.102 122.487 124.969 117.12C124.903 115.927 124.804 114.702 124.671 113.442C124.604 112.183 124.571 110.924 124.571 109.666C124.505 108.009 123.975 105.094 122.981 100.919C122.981 99.594 122.782 98.2688 122.385 96.9435C122.053 95.6183 121.755 94.2598 121.49 92.8688C121.424 91.4108 121.06 90.0523 120.397 88.7935C119.801 87.4682 119.304 86.0771 118.906 84.6191Z" fill="#BBE1FA"/>
</svg>
