<svg width="256" height="256" viewBox="0 0 256 256" fill="none" xmlns="http://www.w3.org/2000/svg">
<path d="M178.453 196.129C187.647 184.69 192.963 170.354 192.963 155.307C192.963 139.59 181.328 116.638 158.377 87.091C157.633 86.1274 156.499 85.556 155.274 85.515C154.082 85.5724 152.89 85.988 152.081 86.9024C145.819 94.055 136.903 98.1529 127.644 98.1529C118.385 98.1529 109.469 94.0536 103.207 86.9024C102.406 85.9879 101.231 85.5478 100.014 85.515C98.7979 85.556 97.6553 86.1356 96.9117 87.091C95.7936 88.5276 94.8381 89.8739 93.7775 91.2792C103.828 101.803 127.644 128.272 127.644 143.06C127.644 145.314 125.815 147.143 123.561 147.143C121.309 147.141 119.48 145.312 119.48 143.06C119.48 133.499 102.285 112.148 88.8129 97.8996C71.2254 122.28 62.3259 141.559 62.3259 155.307C62.3259 170.355 67.6415 184.692 76.8352 196.132L178.453 196.129ZM127.645 89.9883C141.175 89.9883 152.14 79.0233 152.14 65.4942C152.14 51.965 141.175 41 127.645 41C114.116 41 103.151 51.965 103.151 65.4942C103.151 79.0233 114.116 89.9883 127.645 89.9883ZM180.717 204.296H74.577C58.8185 204.296 46 217.114 46 232.871C46 235.125 47.8289 236.954 50.0814 236.954H205.21C207.464 236.954 209.293 235.125 209.293 232.871C209.293 217.114 196.474 204.296 180.717 204.296V204.296Z" fill="#041034"/>
</svg>
