<svg width="256" height="256" viewBox="0 0 256 256" fill="none" xmlns="http://www.w3.org/2000/svg">
<path d="M178.453 196.129C187.647 184.69 192.963 170.354 192.963 155.307C192.963 139.59 181.328 116.638 158.377 87.091C157.633 86.1274 156.499 85.556 155.274 85.515C154.082 85.5724 152.89 85.988 152.081 86.9024C145.819 94.055 136.903 98.1529 127.644 98.1529C118.385 98.1529 109.469 94.0536 103.207 86.9024C102.406 85.9879 101.231 85.5478 100.014 85.515C98.7979 85.556 97.6553 86.1356 96.9117 87.091C95.7936 88.5276 94.8381 89.8739 93.7775 91.2792C103.828 101.803 127.644 128.272 127.644 143.06C127.644 145.314 125.815 147.143 123.561 147.143C121.309 147.141 119.48 145.312 119.48 143.06C119.48 133.499 102.285 112.148 88.8129 97.8996C71.2253 122.28 62.3259 141.559 62.3259 155.307C62.3259 170.355 67.6415 184.692 76.8352 196.132L178.453 196.129ZM127.645 89.9883C141.175 89.9883 152.14 79.0233 152.14 65.4942C152.14 51.965 141.175 41 127.645 41C114.116 41 103.151 51.965 103.151 65.4942C103.151 79.0233 114.116 89.9883 127.645 89.9883ZM180.717 204.296H74.577C58.8185 204.296 46 217.114 46 232.871C46 235.125 47.8289 236.954 50.0814 236.954H205.21C207.464 236.954 209.293 235.125 209.293 232.871C209.293 217.114 196.474 204.296 180.717 204.296Z" fill="#041034"/>
<path fill-rule="evenodd" clip-rule="evenodd" d="M89.3324 105.828C82.4211 115.822 77.1612 124.781 73.514 132.685C69.2461 141.934 67.3259 149.441 67.3259 155.307C67.3259 168.366 71.6719 180.874 79.2892 191.132L175.999 191.129C183.616 180.872 187.962 168.365 187.962 155.307C187.962 148.579 185.438 139.733 179.817 128.646C174.343 117.849 166.121 105.29 155.098 91.0228C147.957 98.7211 138.018 103.153 127.644 103.153C118.367 103.153 109.438 99.6078 102.548 93.3542C107.341 98.6206 113.237 105.458 118.504 112.604C122.199 117.616 125.665 122.887 128.228 127.954C130.735 132.911 132.644 138.184 132.644 143.06C132.644 148.075 128.577 152.143 123.561 152.143H123.558C118.547 152.14 114.48 148.074 114.48 143.06C114.48 141.909 113.876 139.668 112.13 136.248C110.465 132.988 108.052 129.204 105.14 125.158C100.512 118.728 94.8112 111.889 89.3324 105.828ZM127.645 84.9883C138.413 84.9883 147.139 76.2619 147.139 65.4942C147.139 54.7264 138.413 46 127.645 46C116.878 46 108.151 54.7264 108.151 65.4942C108.151 76.2619 116.878 84.9883 127.645 84.9883ZM180.717 209.296H74.577C61.8869 209.296 51.5013 219.382 51.0176 231.954H204.275C203.791 219.381 193.406 209.296 180.717 209.296Z" fill="#A7FF83"/>
</svg>
