<svg width="256" height="256" viewBox="0 0 256 256" fill="none" xmlns="http://www.w3.org/2000/svg">
<path d="M115.646 196.129V111.617C119.37 113.398 123.492 114.483 127.893 114.483C132.294 114.483 136.417 113.406 140.14 111.617V196.129H115.646Z" fill="#041034"/>
<path d="M118.724 104.048C118.47 103.917 118.225 103.779 117.981 103.64C111.752 100.146 107.482 93.5477 107.497 85.9069C107.497 76.0515 114.518 67.8054 123.827 65.9109V57.3299H119.744C117.49 57.3299 115.661 55.501 115.661 53.2471C115.661 50.9931 117.49 49.1643 119.744 49.1643H123.827V45.0828C123.827 42.8289 125.655 41 127.909 41C130.163 41 131.992 42.8289 131.992 45.0828L131.991 49.1643H136.074C138.328 49.1643 140.148 50.9931 140.15 53.2471C140.15 55.501 138.321 57.3299 136.067 57.3299H131.984V65.9099C141.292 67.8047 148.314 76.0508 148.314 85.9058C148.314 93.548 144.036 100.145 137.805 103.64C137.559 103.787 137.315 103.917 137.062 104.048C136.359 104.408 135.658 104.726 134.915 105.004C134.451 105.181 133.969 105.317 133.49 105.451C133.421 105.47 133.351 105.49 133.281 105.51C133.138 105.549 132.996 105.59 132.853 105.631C132.438 105.752 132.024 105.872 131.592 105.951C130.392 106.179 129.159 106.327 127.893 106.327C126.627 106.327 125.395 106.179 124.194 105.951C123.771 105.873 123.365 105.756 122.958 105.638C122.807 105.595 122.657 105.551 122.505 105.51C122.469 105.5 122.434 105.49 122.398 105.48C121.878 105.336 121.368 105.194 120.872 105.004C120.128 104.726 119.419 104.4 118.724 104.048Z" fill="#041034"/>
<path d="M107.482 196.13H78.9055C74.6519 196.13 70.6345 196.996 66.8306 198.334C54.5919 180.152 34 146.103 34 122.647C34 111.739 38.2539 101.492 45.9616 93.7772C53.6758 86.0696 63.9235 81.824 74.8227 81.824C85.7236 81.824 95.9776 86.0696 103.694 93.7856C103.849 93.9646 104.844 94.8381 107.482 95.7525V196.13Z" fill="#041034"/>
<path d="M176.882 196.13H148.304V95.7953C150.844 94.9451 151.759 94.1701 151.775 94.1537C159.817 86.0702 170.065 81.8247 180.964 81.8247C191.864 81.8247 202.119 86.0702 209.834 93.7849C217.541 101.501 221.787 111.748 221.787 122.647C221.787 146.106 201.197 180.152 188.958 198.334C185.152 196.995 181.135 196.13 176.882 196.13Z" fill="#041034"/>
<path d="M176.883 204.295C178.401 204.295 179.862 204.482 181.309 204.743C194.952 206.891 205.46 218.632 205.46 232.871C205.46 235.125 203.631 236.954 201.377 236.954H54.4121C52.1581 236.954 50.3292 235.125 50.3292 232.871C50.3292 218.632 60.8295 206.891 74.4805 204.745C75.9265 204.482 77.3877 204.295 78.9062 204.295H176.883Z" fill="#041034"/>
<path d="M100.108 97.2708C100.65 97.8348 101.435 98.4282 102.482 99.0094V191.13H78.9055C75.397 191.13 72.0683 191.637 68.9275 192.461C63.1806 183.736 56.1432 172.239 50.3214 160.28C43.7067 146.693 39 133.178 39 122.647C39 113.069 42.7248 104.092 49.4976 97.3122C56.2751 90.5416 65.2512 86.824 74.8227 86.824C84.3737 86.824 93.3351 90.5243 100.108 97.2708Z" fill="#A7FF83"/>
<path d="M124.824 70.8105C126.107 70.5494 127.191 69.8107 127.906 68.8026C128.621 69.8102 129.704 70.5484 130.987 70.8094C138.016 72.2402 143.314 78.4783 143.314 85.9059C143.314 91.6154 140.124 96.6061 135.359 99.2789C135.317 99.3028 135.275 99.3272 135.233 99.3523C135.127 99.4156 134.999 99.4857 134.772 99.6037C134.212 99.8897 133.693 100.123 133.166 100.319L133.126 100.335C132.891 100.425 132.647 100.493 132.132 100.639L131.934 100.694C131.613 100.783 131.397 100.846 131.237 100.893C130.978 100.968 130.866 101.001 130.687 101.034L130.657 101.039C129.683 101.224 128.771 101.327 127.893 101.327C127.015 101.327 126.103 101.224 125.129 101.039L125.099 101.034C124.923 101.001 124.821 100.971 124.586 100.903C124.423 100.855 124.195 100.789 123.835 100.69C123.21 100.516 122.922 100.435 122.664 100.336L122.62 100.319C122.108 100.128 121.581 99.8895 121.001 99.5968C120.852 99.5191 120.689 99.4279 120.456 99.2954L120.427 99.2788C115.667 96.6089 112.485 91.6213 112.497 85.9167V85.9069C112.497 78.479 117.795 72.241 124.824 70.8105Z" fill="#A7FF83"/>
<path d="M135.14 118.653V191.129H120.646V118.65C122.962 119.186 125.384 119.483 127.893 119.483C130.401 119.483 132.823 119.188 135.14 118.653Z" fill="#A7FF83"/>
<path d="M155.31 97.6892L155.319 97.6802C162.443 90.5199 171.424 86.8247 180.964 86.8247C190.537 86.8247 199.52 90.5428 206.296 97.3185C213.069 104.098 216.787 113.075 216.787 122.647C216.787 133.18 212.081 146.694 205.466 160.281C199.645 172.239 192.608 183.736 186.861 192.462C183.719 191.637 180.39 191.13 176.881 191.13H153.304V99.0926C154.248 98.5814 154.906 98.0939 155.31 97.6892Z" fill="#A7FF83"/>
<path d="M180.42 209.664C180.457 209.671 180.494 209.677 180.531 209.683C191.519 211.412 200.004 220.662 200.442 231.954H55.3469C55.7843 220.661 64.2636 211.412 75.2569 209.684C75.2958 209.678 75.3346 209.672 75.3734 209.665C76.6552 209.432 77.7955 209.295 78.9062 209.295H176.883C177.994 209.295 179.135 209.432 180.42 209.664Z" fill="#A7FF83"/>
</svg>
