<svg width="256" height="256" viewBox="0 0 256 256" fill="none" xmlns="http://www.w3.org/2000/svg">
<path d="M66.9753 157.469C68.0456 155.477 70.5316 154.751 72.4999 155.787C74.4846 156.849 75.2432 159.322 74.1825 161.315C72.4603 164.539 68.573 172.835 67.1037 179.449C81.0976 177.743 85.7518 168.63 89.1565 161.74C90.6259 158.777 92.0146 155.976 93.8681 154.114C99.1183 148.864 102.49 147.549 113.945 147.239C93.8436 168.427 82.3139 183.938 77.4973 196.137H186.587L183.926 182.827C181.77 172.042 186.702 161.346 195.92 156.823C197.969 155.82 199.749 155.306 201.202 155.306C202.852 155.306 204.346 154.309 204.974 152.783C205.603 151.256 205.252 149.501 204.093 148.333C199.79 144.029 197.127 118.931 197.127 98.1519C197.127 81.6677 169.464 41 127.728 41C99.2005 41 85.0348 49.3774 76.5774 54.3815C74.1279 55.8276 71.5966 57.3298 70.577 57.3298C68.323 57.3298 66.4942 59.1587 66.4942 61.4113C66.4942 67.96 71.0662 74.7354 73.8095 78.2223C67.0162 90.5432 42 136.872 42 151.222C42 164.947 44.2786 177.578 58.7782 179.423C60.4116 170.026 66.2167 158.889 66.9753 157.469ZM119.561 73.6579C127.873 73.6579 140.291 77.9853 147.925 90.1834C155.649 102.521 160.474 126.27 139.572 169.331C138.863 170.785 137.409 171.634 135.898 171.634C135.302 171.634 134.69 171.503 134.11 171.225C132.086 170.237 131.236 167.804 132.224 165.772C151.501 126.067 147.648 105.107 141.009 94.5181C135.148 85.1537 125.798 81.8228 119.569 81.8228C117.315 81.8228 115.486 79.9939 115.486 77.74C115.486 75.486 117.307 73.6579 119.561 73.6579ZM84.0132 99.3438L88.0961 95.261C89.6885 93.6686 92.2758 93.6686 93.8683 95.261C95.4607 96.8534 95.4607 99.4408 93.8683 101.033L89.7855 105.116C88.9858 105.917 87.9402 106.309 86.8945 106.309C85.8489 106.309 84.8046 105.909 84.0036 105.117C82.4208 103.525 82.4208 100.944 84.0132 99.3438ZM188.292 204.637L188.226 204.294H75.1297C75.1133 204.417 75.0641 204.547 75.0477 204.67C61.0454 206.506 50.1613 218.378 50.1613 232.87C50.1613 235.124 51.9902 236.953 54.2441 236.953H209.373C211.627 236.953 213.455 235.124 213.455 232.87C213.455 218.288 202.425 206.351 188.292 204.637Z" fill="#041034"/>
<path fill-rule="evenodd" clip-rule="evenodd" d="M62.5652 155.113L62.571 155.102C64.9612 150.654 70.4706 149.069 74.8289 151.363L74.859 151.379C79.2663 153.737 80.9567 159.229 78.5963 163.664L78.5928 163.671C77.6925 165.356 76.1987 168.455 74.8129 171.891C76.2946 171.042 77.5163 170.057 78.5579 169.011C81.2487 166.308 82.952 163.01 84.6739 159.525L84.6769 159.519L84.8527 159.164C86.1812 156.48 87.885 153.037 90.325 150.586L90.3326 150.579C93.2116 147.7 95.9943 145.479 99.9311 144.104C103.651 142.805 108.033 142.397 113.809 142.241C115.832 142.186 117.688 143.355 118.511 145.203C119.335 147.051 118.964 149.213 117.572 150.68C101.331 167.8 91.0766 180.834 85.407 191.137H180.489L179.023 183.808C176.468 171.021 182.266 157.953 193.718 152.334L193.721 152.332C195.531 151.446 197.456 150.734 199.391 150.445C198.79 149.561 198.325 148.617 197.957 147.751C197.343 146.309 196.814 144.64 196.35 142.858C195.421 139.29 194.652 134.869 194.037 130.055C192.803 120.407 192.127 108.723 192.127 98.1519C192.127 95.201 190.808 90.4142 187.734 84.607C184.725 78.9227 180.259 72.6901 174.53 66.9161C163.045 55.3421 146.901 46 127.728 46C100.56 46 87.2879 53.8536 79.2346 58.619L78.9744 58.7727C77.823 59.4527 76.513 60.2262 75.3535 60.8311C74.7478 61.1471 74.0781 61.4729 73.4173 61.7307C73.0361 61.8794 72.355 62.1314 71.5314 62.2558C71.7014 64.2316 72.4444 66.4454 73.5881 68.7146C74.8723 71.2628 76.4877 73.5401 77.7391 75.1307C78.981 76.7092 79.1578 78.8776 78.1881 80.6365C74.8084 86.7662 66.9114 101.328 59.8715 116.111C56.3486 123.509 53.0776 130.884 50.698 137.246C48.2347 143.832 47 148.643 47 151.222C47 157.99 47.5972 163.623 49.4826 167.663C50.6412 170.145 52.3152 172.119 55.0742 173.329C57.5582 164.629 61.9464 156.271 62.5652 155.113ZM76.9508 209.294C76.5563 209.457 76.1361 209.57 75.6976 209.628C64.408 211.108 55.6247 220.463 55.179 231.953H208.438C207.989 220.39 199.087 210.983 187.69 209.601C187.265 209.549 186.856 209.445 186.471 209.294H76.9508ZM127.726 163.588C136.339 145.849 140.089 132.258 141.116 121.913C142.345 109.537 139.676 101.806 136.773 97.1742L136.77 97.1708C131.925 89.4298 124.277 86.8228 119.569 86.8228C114.554 86.8228 110.486 82.7554 110.486 77.74C110.486 72.7365 114.534 68.6579 119.561 68.6579C129.336 68.6579 143.485 73.6646 152.163 87.5301C161.128 101.85 165.408 127.555 144.07 171.514L144.066 171.523C142.493 174.747 139.262 176.634 135.898 176.634C134.569 176.634 133.217 176.341 131.951 175.735L131.917 175.719C127.431 173.529 125.526 168.117 127.726 163.588ZM93.321 108.652C91.5323 110.442 89.1918 111.309 86.8945 111.309C84.5709 111.309 82.2527 110.416 80.4894 108.674L80.4574 108.642C76.9295 105.093 76.9424 99.3616 80.4687 95.8173L80.4777 95.8083L84.5605 91.7255C88.1056 88.1804 93.8587 88.1805 97.4037 91.7254C100.949 95.2705 100.949 101.024 97.4039 104.569L93.324 108.649L93.321 108.652Z" fill="#A7FF83"/>
</svg>
