<svg width="256" height="256" viewBox="0 0 256 256" fill="none" xmlns="http://www.w3.org/2000/svg">
<path d="M81.4904 129.983C81.2969 128.936 80.4689 128.144 79.4484 127.972C71.1336 126.415 64.8257 119.136 64.8257 110.402V45.0828C64.8257 44.2096 65.5353 43.5 66.4085 43.5H90.9027C91.7759 43.5 92.4855 44.2096 92.4855 45.0828V73.6584C92.4855 75.0391 93.6048 76.1584 94.9855 76.1584H111.314C112.695 76.1584 113.814 75.0391 113.814 73.6584V45.0828C113.814 44.2096 114.524 43.5 115.397 43.5H139.891C140.764 43.5 141.474 44.2095 141.474 45.0827C141.474 45.0827 141.474 45.0828 141.474 45.0828L141.472 73.6583C141.472 74.3214 141.736 74.9573 142.205 75.4261C142.673 75.895 143.309 76.1584 143.972 76.1584H160.302C161.683 76.1584 162.802 75.0391 162.802 73.6584V45.0828C162.802 44.2096 163.512 43.5 164.385 43.5H188.879C189.753 43.5 190.462 44.2101 190.462 45.0814V110.4C190.462 119.15 184.135 126.437 175.802 127.979C174.783 128.167 173.987 128.964 173.798 129.982C172.255 138.316 164.968 144.642 156.22 144.642H99.0677C90.3195 144.642 83.032 138.316 81.4904 129.983ZM172.552 182.303C172.706 182.303 172.92 182.347 173.259 182.532C173.478 182.654 173.715 182.744 173.965 182.796C178.872 183.827 183.231 186.68 185.993 190.882C186.099 191.044 186.224 191.192 186.364 191.325C186.666 191.611 186.856 192.015 186.856 192.481C186.856 193.067 186.655 193.496 186.431 193.734C186.247 193.929 185.951 194.111 185.38 194.07C185.321 194.066 185.261 194.063 185.201 194.063H185.11C185.062 194.063 185.009 194.061 184.944 194.055L183.57 193.883C183.565 193.882 183.561 193.881 183.556 193.881C183.497 193.873 183.437 193.864 183.376 193.856C182.627 193.753 181.687 193.623 180.717 193.623H74.5771C73.59 193.623 72.6495 193.754 71.8928 193.859C71.8394 193.867 71.7869 193.874 71.7353 193.881C71.7304 193.882 71.7254 193.882 71.7205 193.883L70.3589 194.054C69.6954 194.113 69.1905 193.846 68.8587 193.337L68.8516 193.326C68.5273 192.834 68.509 192.198 68.8098 191.681L68.8105 191.68C71.4936 187.065 76.0741 183.923 81.2696 182.818C81.5207 182.765 81.762 182.673 81.9852 182.546C82.3456 182.341 82.5671 182.293 82.7262 182.293C84.4067 182.293 85.8147 181.329 86.8602 180.281C87.9587 179.181 89.0068 177.645 89.9921 175.756C91.97 171.964 93.8947 166.362 95.4453 158.859L95.4459 158.855C95.5883 158.162 96.3352 157.572 97.1185 157.6C97.3331 157.614 97.5276 157.64 97.8038 157.675C97.897 157.688 97.9994 157.701 98.1149 157.715C98.2171 157.728 98.3199 157.735 98.4229 157.735L156.212 157.809C156.311 157.809 156.41 157.803 156.508 157.791C156.65 157.775 156.779 157.759 156.895 157.746C157.657 157.655 157.907 157.626 158.174 157.609C158.987 157.565 159.677 158.111 159.832 158.865L159.833 158.868C161.383 166.368 163.308 171.969 165.285 175.762C166.27 177.651 167.318 179.188 168.416 180.289C169.462 181.337 170.87 182.303 172.552 182.303ZM74.577 206.797H180.717C195.094 206.797 206.793 218.496 206.793 232.873C206.793 233.746 206.083 234.455 205.21 234.455H50.0814C49.2102 234.455 48.5 233.746 48.5 232.873C48.5 218.496 60.1991 206.797 74.577 206.797Z" fill="#A7FF83" stroke="#041034" stroke-width="5" stroke-linejoin="round"/>
</svg>
