<svg width="180" height="180" viewBox="0 0 180 180" fill="none" xmlns="http://www.w3.org/2000/svg">
<path d="M123.794 65.7399H59.0282V47.1586C59.0282 38.8805 61.9763 31.7637 67.8718 25.8082C73.8276 19.8528 81.0039 16.875 89.4009 16.875C97.8576 16.875 104.885 20.0612 110.483 26.4336C110.246 32.5081 111.139 37.7192 113.163 42.0667C114.533 42.7813 118.404 43.5257 124.777 44.3C131.209 45.0742 136.985 45.7293 142.107 46.2653C139.01 49.5408 135.943 52.7866 132.906 56.0025C129.868 59.2183 126.831 62.4639 123.794 65.7399ZM134.603 141.94L139.249 163.29H39.375L43.8416 141.94H134.603ZM133.352 135.687H45.2709L56.3479 83.8744H122.275L133.352 135.687ZM121.114 77.8888H57.5989L58.7599 71.7249H119.863L121.114 77.8888Z" fill="#2D2424"/>
<path d="M123.794 65.74H59.0282L58.7599 71.725H119.863L123.794 65.74Z" fill="#5C3D2E"/>
<path d="M56.3478 83.8743H122.275L121.114 77.8888H57.5988L56.3478 83.8743Z" fill="#5C3D2E"/>
<path d="M43.8416 141.94H134.603L133.352 135.687H45.2709L43.8416 141.94Z" fill="#5C3D2E"/>
</svg>
