<svg width="180" height="180" viewBox="0 0 180 180" fill="none" xmlns="http://www.w3.org/2000/svg">
<path fill-rule="evenodd" clip-rule="evenodd" d="M87.4389 33.75C93.2749 33.75 98.2777 35.8344 102.446 40.0033C106.615 44.1721 108.7 49.1747 108.7 55.0111C108.7 61.3237 106.407 66.5049 101.821 70.5549L141.038 162.656H87.4389H33.75L73.0564 70.5549C68.4703 66.5646 66.1776 61.3834 66.1776 55.0111C66.1776 49.1747 68.2324 44.1721 72.3414 40.0033C76.5101 35.8344 81.5428 33.75 87.4389 33.75ZM131.748 156.314H87.4389H43.1299L49.4725 141.306H87.4389H125.405L131.748 156.314ZM104.858 134.874H87.4389H69.9294H52.3311L60.5497 115.221C63.2891 108.61 66.0583 102 68.8573 95.3893H78.0587H87.4389H96.6398H106.02C108.7 102 111.409 108.61 114.149 115.221C116.948 121.772 119.717 128.323 122.457 134.874H104.858ZM95.2999 89.3149H87.4389H79.488H71.5376C71.9544 88.3024 72.3712 87.3197 72.7881 86.3668C73.2645 85.3543 73.7409 84.312 74.2174 83.2399H80.8279H87.4389H93.96H100.57C100.987 84.312 101.404 85.3543 101.821 86.3668C102.297 87.3197 102.774 88.3024 103.25 89.3149H95.2999ZM98.2479 77.1654H87.4389H76.6294L80.2918 68.5001C74.8727 65.6415 72.1631 61.1454 72.1631 55.0111C72.1631 50.8422 73.6515 47.269 76.6294 44.2912C79.6073 41.2539 83.2101 39.7353 87.4389 39.7353C91.6076 39.7353 95.1806 41.2539 98.1585 44.2912C101.136 47.269 102.625 50.8422 102.625 55.0111C102.625 61.1454 99.9152 65.6415 94.4961 68.5001L98.2479 77.1654Z" fill="#2D2424"/>
<path d="M87.4389 134.874H104.858H122.457C119.717 128.323 116.948 121.772 114.149 115.221C111.409 108.61 108.7 102 106.02 95.3893H96.6397H87.4389H78.0587H68.8579C66.0583 102 63.2891 108.61 60.5497 115.221L52.3311 134.874H69.9294H87.4389Z" fill="#E0C097"/>
<path d="M87.439 156.314H131.748L125.405 141.306H87.439H49.4725L43.1299 156.314H87.439Z" fill="#E0C097"/>
<path d="M87.439 89.3149H95.2999H103.25C102.774 88.3024 102.297 87.3197 101.821 86.3668C101.404 85.3543 100.987 84.312 100.571 83.2399H93.96H87.439H80.8279H74.2174C73.741 84.312 73.2645 85.3543 72.7881 86.3668C72.3713 87.3197 71.9545 88.3024 71.5377 89.3149H79.488H87.439Z" fill="#E0C097"/>
<path d="M87.439 77.1654H98.248L94.4961 68.5001C99.9152 65.6415 102.625 61.1454 102.625 55.0111C102.625 50.8423 101.136 47.269 98.1585 44.2912C95.1806 41.254 91.6076 39.7353 87.439 39.7353C83.2101 39.7353 79.6073 41.254 76.6294 44.2912C73.6515 47.269 72.1631 50.8423 72.1631 55.0111C72.1631 61.1454 74.8727 65.6415 80.2924 68.5001L76.6294 77.1654H87.439Z" fill="#E0C097"/>
</svg>
