<svg width="180" height="180" viewBox="0 0 180 180" fill="none" xmlns="http://www.w3.org/2000/svg">
<path d="M113.086 76.4595C113.026 76.1023 112.996 75.5961 112.996 74.9407C112.996 71.6057 114.158 68.7471 116.48 66.3649C118.862 63.9827 121.721 62.7919 125.056 62.7919C125.652 62.7919 126.605 62.8515 127.915 62.9702L149.89 68.7769L145.067 40.816C143.637 35.6348 140.749 31.3766 136.401 28.0415C132.113 24.6469 127.2 22.9496 121.661 22.9496C111.835 22.9496 104.629 27.3566 100.043 36.1708L96.9165 42.8707C96.5593 43.7044 96.3804 44.5084 96.3804 45.2827C96.3804 46.4142 96.7376 47.5755 97.4526 48.7666C98.7626 50.9701 99.4179 53.263 99.4179 55.6452C99.4179 58.9804 98.2266 61.839 95.8444 64.2212C93.5218 66.6034 90.693 67.7942 87.3579 67.7942C83.9633 67.7942 81.0748 66.6034 78.6926 64.2212C76.3701 61.839 75.2091 58.9804 75.2091 55.6452C75.2091 53.3225 75.8936 51.0297 77.2633 48.7666C77.9186 47.6946 78.246 46.5333 78.246 45.2827C78.246 44.5084 78.0677 43.7044 77.7099 42.8707L74.5836 36.1708C70.0571 27.3566 62.8807 22.9496 53.0544 22.9496C47.4563 22.9496 42.5132 24.6469 38.2253 28.0415C33.9374 31.3766 31.0787 35.6348 29.6494 40.816L24.8255 68.7769L46.7119 63.0596C47.7838 62.8813 48.7367 62.7919 49.5705 62.7919C52.9055 62.7919 55.7642 63.9827 58.1462 66.3649C60.5284 68.7471 61.7197 71.6057 61.7197 74.9407C61.7197 75.2389 61.7197 75.5066 61.7197 75.7451C61.7794 75.9831 61.8092 76.2216 61.8092 76.4595H113.086ZM116.212 88.6089L114.515 82.5339H60.0221L58.5928 88.6089H116.212ZM128.272 134.258L117.82 94.6834H56.9852L46.3546 134.258H128.272ZM133.99 155.608L130.059 140.6H44.8359L40.816 155.608H133.99ZM32.2401 161.951L55.5558 75.834C55.6154 75.5961 55.6452 75.2985 55.6452 74.9407C55.6452 70.8913 53.6203 68.8663 49.5706 68.8663C48.975 68.8663 48.3795 68.9557 47.7839 69.1346L16.875 77.4422L22.8603 43.228C23.9918 35.7241 27.3864 29.4708 33.0441 24.4682C38.7614 19.4061 45.4315 16.875 53.0546 16.875C59.1885 16.875 64.7573 18.5723 69.7596 21.9669C74.7624 25.3616 78.5143 29.7686 81.0157 35.1881L83.3383 40.2801C83.9931 41.888 84.321 43.5556 84.321 45.2827C84.321 47.4266 83.7551 49.5706 82.6234 51.7146C81.7301 53.0248 81.2835 54.335 81.2835 55.6452C81.2835 59.6947 83.3085 61.7197 87.3579 61.7197C91.4079 61.7197 93.4329 59.6947 93.4329 55.6452C93.4329 54.335 92.9863 53.0248 92.0925 51.7146C90.9613 49.5706 90.3954 47.4266 90.3954 45.2827C90.3954 43.6151 90.7228 41.9178 91.3781 40.1907L93.7007 35.1881C96.2021 29.7686 99.9242 25.3616 104.867 21.9669C109.87 18.5723 115.468 16.875 121.661 16.875C129.225 16.875 135.836 19.4061 141.493 24.4682C147.151 29.4708 150.605 35.7241 151.856 43.228L157.93 77.4422L126.932 69.1346C126.277 68.9557 125.652 68.8663 125.056 68.8663C121.066 68.8663 119.071 70.8913 119.071 74.9407C119.071 75.4768 119.131 75.8638 119.249 76.1023L142.118 161.951H32.2401Z" fill="#2D2424"/>
<path d="M113.086 76.4595C113.026 76.1023 112.996 75.596 112.996 74.9407C112.996 71.6057 114.157 68.747 116.48 66.3648C118.862 63.9827 121.721 62.7919 125.056 62.7919C125.651 62.7919 126.604 62.8515 127.915 62.9702L149.89 68.7768L145.066 40.816C143.637 35.6347 140.749 31.3766 136.401 28.0415C132.113 24.6469 127.2 22.9496 121.661 22.9496C111.835 22.9496 104.628 27.3566 100.043 36.1707L96.9159 42.8706C96.5587 43.7044 96.3804 44.5084 96.3804 45.2826C96.3804 46.4142 96.7376 47.5755 97.452 48.7666C98.7626 50.9701 99.4174 53.2629 99.4174 55.6451C99.4174 58.9804 98.2266 61.839 95.8444 64.2212C93.5218 66.6034 90.693 67.7942 87.3579 67.7942C83.9632 67.7942 81.0748 66.6034 78.6926 64.2212C76.3701 61.839 75.2085 58.9804 75.2085 55.6451C75.2085 53.3225 75.8936 51.0296 77.2633 48.7666C77.9181 47.6946 78.246 46.5332 78.246 45.2826C78.246 44.5084 78.0671 43.7044 77.7099 42.8706L74.583 36.1707C70.0571 27.3566 62.8808 22.9496 53.0542 22.9496C47.456 22.9496 42.5129 24.6469 38.225 28.0415C33.937 31.3766 31.0784 35.6347 29.6491 40.816L24.8251 68.7768L46.7115 63.0596C47.7835 62.8813 48.7364 62.7919 49.5701 62.7919C52.9052 62.7919 55.7638 63.9827 58.1462 66.3648C60.5284 68.747 61.7192 71.6057 61.7192 74.9407C61.7192 75.2389 61.7192 75.5066 61.7192 75.7451C61.7788 75.983 61.8086 76.2215 61.8086 76.4595H113.086ZM116.212 88.6089L114.515 82.5339H60.0221L58.5928 88.6089H116.212ZM128.272 134.257L117.82 94.6834H56.9846L46.3542 134.257H128.272ZM133.989 155.608L130.058 140.6H44.8356L40.8157 155.608H133.989Z" fill="#E0C097"/>
</svg>
