<svg width="32" height="32" viewBox="0 0 32 32" fill="none" xmlns="http://www.w3.org/2000/svg">
<path d="M12.4681 20.0648C12.3207 20.455 12.221 20.6978 12.169 20.7932C12.1256 20.8886 12.0346 21.1314 11.8958 21.5217C14.4367 20.7585 16.8605 20.7802 19.1672 21.5867C19.0285 21.1878 18.8984 20.6545 18.777 19.9867C17.8144 20.1949 16.8041 20.3163 15.7461 20.3509C14.6968 20.377 13.6042 20.2816 12.4681 20.0648V20.0648ZM15.473 22.4192C14.8226 22.4192 14.1245 22.4149 13.3787 22.4062C12.6416 22.3975 12.273 22.4842 12.273 22.6663C12.273 22.8571 12.6416 22.9699 13.3787 23.0045C14.1245 23.0392 14.8226 23.0566 15.473 23.0566C16.106 23.0566 16.7954 23.0522 17.5412 23.0436C18.2957 23.0349 18.6729 22.9352 18.6729 22.7444C18.6729 22.5536 18.2957 22.4539 17.5412 22.4452C16.7954 22.4279 16.106 22.4192 15.473 22.4192ZM18.738 12.3901C18.5732 12.3901 18.2003 12.3901 17.6193 12.3901C17.0383 12.3901 16.5786 12.3728 16.2404 12.3381V10.3999H14.3933V12.3121C14.1592 12.3121 13.7473 12.3121 13.1576 12.3121C12.5679 12.3034 12.1299 12.2991 11.8438 12.2991V14.1332C12.2687 14.1592 12.6329 14.1678 12.9364 14.1592C13.2486 14.1418 13.7343 14.1332 14.3933 14.1332V15.8632H16.2404V14.0941C17.1076 14.0941 17.6973 14.0985 18.0095 14.1072C18.3217 14.1072 18.5732 14.1028 18.764 14.0941L18.738 12.3901ZM16.6827 25.0208C16.8995 25.1509 17.0426 25.2419 17.112 25.2939C17.1813 25.346 17.5282 25.4544 18.1526 25.6191C19.7135 25.6191 20.6805 25.5324 21.0534 25.359C21.4349 25.1855 22.1157 25.1639 23.0956 25.2939C24.2663 25.4934 25.0078 25.6495 25.32 25.7622C25.6321 25.8663 26.2565 26.1655 27.1931 26.6598C27.1931 26.9286 27.1974 27.3535 27.2061 27.9346C27.2234 28.5156 27.2321 28.9362 27.2321 29.1963C26.7985 29.0662 26.2435 28.8408 25.5671 28.5199C24.8994 28.199 24.314 27.9909 23.811 27.8955C22.8745 27.5833 22.0636 27.4619 21.3785 27.5313C20.7021 27.6007 19.6008 27.6484 18.0745 27.6744C17.1293 27.4576 16.3445 26.9893 15.7201 26.2695C15.7201 26.0788 15.7201 25.888 15.7201 25.6972C15.7201 25.4977 15.7201 25.3026 15.7201 25.1118C15.59 25.1118 15.499 25.1075 15.4469 25.0988C15.4469 25.2983 15.4469 25.4977 15.4469 25.6972C15.4469 25.888 15.4469 26.0787 15.4469 26.2695C15.1174 26.4083 14.8746 26.5947 14.7185 26.8289C14.5624 27.0543 13.9771 27.3275 12.9624 27.6484C11.5836 27.6397 10.6687 27.5833 10.2178 27.4793C9.76683 27.3665 9.03839 27.3752 8.03245 27.5053C7.5208 27.6007 6.82271 27.8825 5.93818 28.3508C5.06231 28.8191 4.41625 29.1182 4 29.2483C4 28.9795 4 28.5719 4 28.0256C4 27.4792 4 27.0673 4 26.7898C4.45961 26.7118 5.08399 26.4733 5.87314 26.0744C6.67095 25.6755 7.30401 25.4067 7.77229 25.2679C8.83027 25.0511 9.69312 24.9861 10.3609 25.0728C11.0286 25.1508 11.8698 25.2809 12.8844 25.463C13.4047 25.4804 13.7516 25.437 13.925 25.3329C14.0985 25.2289 14.3023 25.1118 14.5364 24.9817C13.9294 24.843 13.1836 24.6132 12.299 24.2923C11.4145 23.9715 10.647 23.5292 9.99664 22.9655C10.3088 22.3325 10.5343 21.7558 10.6731 21.2355C10.8118 20.7151 10.9896 20.1948 11.2064 19.6745C9.48933 17.6713 8.57444 16.2795 8.46171 15.499C8.35765 14.7098 8.35765 13.834 8.46171 12.8714C9.1121 11.6053 9.85789 10.582 10.6991 9.80152C11.5489 9.02105 12.6459 8.07147 13.9901 6.95279C13.4351 6.61458 13.1576 6.13763 13.1576 5.52192C13.1576 5.10567 13.4134 4.75012 13.925 4.45527C14.4453 4.15176 14.9093 4 15.3169 4C15.7071 4 16.1234 4.17777 16.5656 4.53332C17.0079 4.8802 17.229 5.26176 17.229 5.67801C17.229 6.1463 16.9515 6.61025 16.3965 7.06986C17.9748 8.26659 19.1759 9.21183 19.9997 9.90559C20.8322 10.5993 21.5867 11.666 22.2631 13.1055C22.2284 14.0681 22.1634 14.944 22.068 15.7331C21.9726 16.5136 21.2355 17.7233 19.8566 19.3623C20.1081 19.926 20.2729 20.4853 20.3509 21.0403C20.4376 21.5953 20.5721 22.2111 20.7542 22.8875C20.1558 23.4772 19.4794 23.9498 18.7249 24.3053C17.9705 24.6609 17.2897 24.8993 16.6827 25.0208L16.6827 25.0208Z" fill="black"/>
<path d="M12.4682 20.0648C12.3208 20.455 12.221 20.6978 12.169 20.7932C12.1256 20.8886 12.0346 21.1314 11.8958 21.5216C14.4367 20.7585 16.8605 20.7802 19.1673 21.5867C19.0285 21.1878 18.8984 20.6544 18.777 19.9867C17.8144 20.1948 16.8042 20.3162 15.7462 20.3509C14.6969 20.3769 13.6042 20.2816 12.4682 20.0648ZM15.473 22.4192C14.8226 22.4192 14.1245 22.4148 13.3787 22.4062C12.6416 22.3975 12.2731 22.4842 12.2731 22.6663C12.2731 22.8571 12.6416 22.9698 13.3787 23.0045C14.1245 23.0392 14.8226 23.0566 15.473 23.0566C16.1061 23.0566 16.7955 23.0522 17.5413 23.0435C18.2957 23.0349 18.673 22.9351 18.673 22.7444C18.673 22.5536 18.2957 22.4539 17.5413 22.4452C16.7955 22.4278 16.1061 22.4192 15.473 22.4192ZM18.738 12.3901C18.5732 12.3901 18.2003 12.3901 17.6193 12.3901C17.0383 12.3901 16.5787 12.3728 16.2405 12.3381V10.3999H14.3934V12.312C14.1592 12.312 13.7473 12.312 13.1576 12.312C12.5679 12.3034 12.13 12.299 11.8438 12.299V14.1331C12.2687 14.1592 12.633 14.1678 12.9365 14.1591C13.2487 14.1418 13.7343 14.1331 14.3934 14.1331V15.8632H16.2405V14.0941C17.1077 14.0941 17.6974 14.0985 18.0096 14.1071C18.3217 14.1071 18.5732 14.1028 18.764 14.0941L18.738 12.3901Z" fill="#EEEEEE"/>
</svg>
