<svg width="32" height="32" viewBox="0 0 32 32" fill="none" xmlns="http://www.w3.org/2000/svg">
<path d="M15.8876 5.71544C15.2806 5.80215 14.9424 6.08399 14.873 6.56095C15.0117 6.95986 15.3673 7.15064 15.9396 7.1333C16.4339 7.03791 16.7158 6.81243 16.7852 6.45689C16.6551 5.99727 16.3559 5.75012 15.8876 5.71544ZM15.8746 8.19994C14.964 8.7376 14.0492 9.48339 13.1299 10.4373C12.2194 11.3825 11.4432 12.4969 10.8015 13.7803C10.5847 14.7429 10.6367 15.5104 10.9576 16.0827C11.2871 16.6464 12.0199 17.6437 13.1559 19.0745C14.5955 18.7363 15.7228 18.5976 16.538 18.6583C17.3532 18.719 18.2811 18.8317 19.3217 18.9965C19.894 18.1033 20.3016 17.4572 20.5444 17.0583C20.7872 16.6507 20.9477 16.3255 21.0257 16.0827C21.1038 15.8399 21.1341 15.5971 21.1168 15.3543C21.0994 15.1115 21.1168 14.6952 21.1688 14.1055C20.8913 12.9088 20.2106 11.7684 19.1266 10.6845C18.0512 9.60046 16.9673 8.77229 15.8746 8.19994ZM15.9396 22.8338C15.3153 22.8338 14.5781 22.9075 13.7283 23.055C12.8784 23.2024 12.4535 23.3672 12.4535 23.5493C12.4535 23.7314 12.8784 23.8745 13.7283 23.9785C14.5781 24.0739 15.3153 24.1216 15.9396 24.1216C16.5553 24.1216 17.2534 24.0609 18.0339 23.9395C18.823 23.8181 19.2176 23.6663 19.2176 23.4842C19.2176 23.3021 18.823 23.1504 18.0339 23.0289C17.2534 22.8989 16.5553 22.8338 15.9396 22.8338V22.8338ZM19.1136 13.286L19.1005 15.0551C18.9271 15.0638 18.6973 15.0681 18.4111 15.0681C18.1336 15.0594 17.5786 15.0551 16.7461 15.0551V16.6811H14.977V15.0681C14.3527 15.0681 13.8974 15.0768 13.6112 15.0941C13.325 15.1028 12.9782 15.0941 12.5706 15.0681V13.3381C12.8654 13.3381 13.2817 13.3381 13.8193 13.3381C14.3657 13.3381 14.7516 13.3381 14.977 13.3381V11.4909H16.7461L16.7331 13.286C16.9065 13.312 17.3141 13.3207 17.9558 13.312C18.5976 13.2947 18.9835 13.286 19.1135 13.286H19.1136ZM17.1754 25.1752C17.3835 25.2967 17.5179 25.3834 17.5786 25.4354C17.648 25.4874 17.9819 25.5915 18.5802 25.7476C20.0805 25.7476 21.0127 25.6652 21.3769 25.5004C21.7412 25.327 22.3915 25.3053 23.3281 25.4354C24.4468 25.6262 25.1579 25.7736 25.4614 25.8777C25.7649 25.9817 26.3676 26.2722 27.2695 26.7492C27.2695 27.0094 27.2608 27.4169 27.2435 27.9719C27.2348 28.527 27.2305 28.9345 27.2305 29.1947C26.8142 29.0646 26.2939 28.8435 25.6695 28.5313C25.0538 28.2191 24.5032 28.0196 24.0175 27.9329C23.1243 27.6381 22.3482 27.5253 21.6891 27.5947C21.0387 27.6554 19.9808 27.6988 18.5152 27.7248C17.6133 27.5167 16.8589 27.0701 16.2518 26.385C16.2518 26.2029 16.2518 26.0164 16.2518 25.8256C16.2518 25.6349 16.2518 25.4484 16.2518 25.2663C16.1304 25.2663 16.0394 25.262 15.9787 25.2533C15.9787 25.4441 15.9787 25.6349 15.9787 25.8256C15.9787 26.0077 15.9787 26.1899 15.9787 26.372C15.6665 26.502 15.4367 26.6798 15.2892 26.9053C15.1418 27.1221 14.5825 27.3866 13.6112 27.6988C12.2844 27.6988 11.4042 27.6467 10.9706 27.5427C10.537 27.4299 9.83894 27.4343 8.87635 27.5557C8.38205 27.6511 7.70998 27.9243 6.86013 28.3752C6.01895 28.8175 5.39891 29.1036 5 29.2337C5 28.9736 5 28.5833 5 28.063C5 27.534 5 27.1394 5 26.8793C5.44227 26.8012 6.04497 26.5714 6.8081 26.1899C7.57123 25.8083 8.17393 25.5525 8.6162 25.4224C9.63081 25.2143 10.459 25.1492 11.1007 25.2273C11.7424 25.3053 12.5533 25.4311 13.5332 25.6045C14.0275 25.6218 14.357 25.5828 14.5218 25.4874C14.6865 25.3834 14.8817 25.2663 15.1071 25.1362C14.5261 25.0061 13.8107 24.7893 12.9608 24.4858C12.1197 24.1736 11.3869 23.7444 10.7625 23.198C11.0487 22.5997 11.2611 22.049 11.3999 21.546C11.5386 21.0431 11.7121 20.5444 11.9202 20.0501C10.2639 18.125 9.38366 16.7895 9.2796 16.0437C9.18421 15.2892 9.18421 14.4481 9.2796 13.5202C9.76523 12.124 10.433 11.027 11.2828 10.2292C12.1327 9.43136 13.234 8.6292 14.5868 7.82271C14.0578 7.59724 13.7933 7.1463 13.7933 6.46989C13.7933 6.07098 14.0405 5.72844 14.5348 5.44227C15.0291 5.14742 15.4714 5 15.8616 5C16.2432 5 16.6464 5.1691 17.0713 5.50731C17.4963 5.84551 17.7087 6.21407 17.7087 6.61298C17.7087 7.22869 17.4399 7.67096 16.9022 7.93979C18.5586 8.77229 19.8073 9.59179 20.6485 10.3983C21.4983 11.2048 22.1271 12.3191 22.5346 13.7413C22.5 14.6605 22.4956 15.4453 22.5216 16.0957C22.5563 16.7375 21.7888 17.9515 20.2192 19.7379C20.4534 20.2843 20.6095 20.8263 20.6875 21.3639C20.7742 21.8929 20.9086 22.4826 21.0908 23.133C20.5184 23.6967 19.868 24.152 19.1396 24.4988C18.4198 24.837 17.7651 25.0625 17.1754 25.1752V25.1752ZM5.76746 27.5167C5.68941 27.5514 5.66773 27.6598 5.70242 27.8419C5.73711 28.0153 5.7848 28.076 5.8455 28.024C7.25036 27.0614 8.38638 26.5714 9.25357 26.5541C10.1294 26.5281 11.1918 26.5584 12.4405 26.6451C12.9435 26.6451 13.4855 26.6061 14.0665 26.5281C14.6562 26.45 15.1852 26.2549 15.6535 25.9427C15.6535 25.7172 15.6535 25.6305 15.6535 25.6826C15.6535 25.7346 15.6535 25.7086 15.6535 25.6045C14.9857 25.9514 14.4177 26.1422 13.9494 26.1769C13.4898 26.2029 13.0129 26.2159 12.5186 26.2159C11.1744 26.1292 10.0427 26.1682 9.12349 26.333C8.21294 26.489 7.09426 26.8836 5.76746 27.5167ZM26.398 27.3346C25.3053 26.7015 24.308 26.3373 23.4062 26.2419C22.513 26.1465 21.3162 26.1942 19.816 26.385C19.3217 26.4804 18.9184 26.5064 18.6063 26.463C18.3027 26.411 17.7174 26.1248 16.8502 25.6045C16.8502 25.7086 16.8502 25.8126 16.8502 25.9167C16.8502 26.0121 16.8502 26.1075 16.8502 26.2029C17.4399 26.6451 17.9385 26.8663 18.3461 26.8663C18.7537 26.8576 19.2133 26.8533 19.7249 26.8533C21.0691 26.7232 22.1617 26.6191 23.0029 26.5411C23.8528 26.463 24.9845 26.901 26.398 27.8549C26.45 27.8896 26.476 27.8245 26.476 27.6597C26.476 27.4863 26.45 27.3779 26.398 27.3346V27.3346ZM12.9218 20.2453L12.0893 22.5346C13.2427 22.1964 14.5088 22.0013 15.8876 21.9493C17.2664 21.8973 18.5152 22.0664 19.6339 22.4566C19.5385 22.1964 19.4691 21.8149 19.4257 21.3119C19.3911 20.8089 19.3347 20.4274 19.2566 20.1672L12.9218 20.2453Z" fill="black"/>
<path d="M15.8876 5.71544C15.2806 5.80216 14.9424 6.084 14.873 6.56095C15.0118 6.95986 15.3673 7.15064 15.9397 7.1333C16.434 7.03791 16.7158 6.81244 16.7852 6.45689C16.6551 5.99728 16.3559 5.75013 15.8876 5.71544ZM15.8746 8.19995C14.9641 8.73761 14.0492 9.48339 13.13 10.4373C12.2194 11.3825 11.4433 12.4969 10.8015 13.7803C10.5847 14.7429 10.6368 15.5104 10.9576 16.0827C11.2872 16.6464 12.0199 17.6437 13.156 19.0745C14.5955 18.7363 15.7229 18.5976 16.538 18.6583C17.3532 18.719 18.2811 18.8317 19.3217 18.9965C19.8941 18.1033 20.3016 17.4572 20.5445 17.0583C20.7873 16.6507 20.9477 16.3255 21.0257 16.0827C21.1038 15.8399 21.1341 15.5971 21.1168 15.3543C21.0995 15.1115 21.1168 14.6952 21.1688 14.1055C20.8913 12.9088 20.2106 11.7684 19.1266 10.6845C18.0513 9.60046 16.9673 8.77229 15.8746 8.19995ZM15.9397 22.8338C15.3153 22.8338 14.5782 22.9075 13.7283 23.055C12.8785 23.2024 12.4535 23.3672 12.4535 23.5493C12.4535 23.7314 12.8785 23.8745 13.7283 23.9785C14.5782 24.0739 15.3153 24.1216 15.9397 24.1216C16.5554 24.1216 17.2535 24.0609 18.0339 23.9395C18.8231 23.8181 19.2176 23.6663 19.2176 23.4842C19.2176 23.3021 18.8231 23.1504 18.0339 23.0289C17.2535 22.8989 16.5554 22.8338 15.9397 22.8338ZM19.1136 13.286L19.1006 15.0551C18.9271 15.0638 18.6973 15.0681 18.4111 15.0681C18.1336 15.0594 17.5786 15.0551 16.7461 15.0551V16.6811H14.9771V15.0681C14.3527 15.0681 13.8974 15.0768 13.6112 15.0941C13.3251 15.1028 12.9782 15.0941 12.5706 15.0681V13.3381C12.8654 13.3381 13.2817 13.3381 13.8194 13.3381C14.3657 13.3381 14.7516 13.3381 14.9771 13.3381V11.4909H16.7461L16.7331 13.286C16.9066 13.3121 17.3141 13.3207 17.9559 13.3121C18.5976 13.2947 18.9835 13.286 19.1136 13.286ZM5.76748 27.5167C5.68943 27.5514 5.66775 27.6598 5.70244 27.8419C5.73713 28.0153 5.78483 28.076 5.84553 28.024C7.25038 27.0614 8.3864 26.5714 9.2536 26.5541C10.1295 26.5281 11.1918 26.5584 12.4405 26.6451C12.9435 26.6451 13.4855 26.6061 14.0665 26.5281C14.6562 26.45 15.1852 26.2549 15.6535 25.9427C15.6535 25.7172 15.6535 25.6305 15.6535 25.6826C15.6535 25.7346 15.6535 25.7086 15.6535 25.6045C14.9857 25.9514 14.4177 26.1422 13.9494 26.1769C13.4898 26.2029 13.0129 26.2159 12.5186 26.2159C11.1744 26.1292 10.0427 26.1682 9.12352 26.333C8.21297 26.489 7.09429 26.8836 5.76748 27.5167ZM26.398 27.3346C25.3053 26.7015 24.3081 26.3373 23.4062 26.2419C22.513 26.1465 21.3163 26.1942 19.816 26.385C19.3217 26.4804 18.9185 26.5064 18.6063 26.463C18.3028 26.411 17.7174 26.1248 16.8502 25.6045C16.8502 25.7086 16.8502 25.8126 16.8502 25.9167C16.8502 26.0121 16.8502 26.1075 16.8502 26.2029C17.4399 26.6451 17.9385 26.8663 18.3461 26.8663C18.7537 26.8576 19.2133 26.8533 19.725 26.8533C21.0691 26.7232 22.1618 26.6191 23.0029 26.5411C23.8528 26.463 24.9845 26.901 26.398 27.8549C26.45 27.8896 26.4761 27.8245 26.4761 27.6598C26.4761 27.4863 26.45 27.3779 26.398 27.3346ZM12.9218 20.2453L12.0893 22.5346C13.2427 22.1964 14.5088 22.0013 15.8876 21.9493C17.2665 21.8973 18.5152 22.0664 19.6339 22.4566C19.5385 22.1964 19.4691 21.8149 19.4258 21.3119C19.3911 20.8089 19.3347 20.4274 19.2567 20.1672L12.9218 20.2453Z" fill="white"/>
</svg>
