<svg width="32" height="32" viewBox="0 0 32 32" fill="none" xmlns="http://www.w3.org/2000/svg">
<path d="M10.736 23.3834C10.7013 23.7996 10.6449 23.9427 10.5669 23.8126C10.4888 23.6826 10.4541 23.8473 10.4628 24.3069C12.3359 23.7606 14.1701 23.5221 15.9651 23.5915C17.7689 23.6522 19.5336 23.9427 21.2594 24.463C21.2767 24.1769 21.281 24.0208 21.2724 23.9947C21.2637 23.9601 21.2507 23.7823 21.2334 23.4614C19.9065 23.1145 18.3152 22.9021 16.4595 22.824C14.6037 22.746 12.6958 22.9324 10.736 23.3834H10.736ZM15.5489 8.15113C15.6963 8.10777 15.8567 8.25953 16.0302 8.6064C16.2123 8.95328 16.3034 9.24379 16.3034 9.47793C16.3034 9.71207 16.2123 10.4535 16.0302 11.7023C15.8567 12.951 15.718 13.5537 15.6139 13.5104C15.5099 13.467 15.3581 12.7993 15.1587 11.5072C14.9592 10.215 14.8595 9.4866 14.8595 9.32184C14.8595 9.15707 14.9332 8.93594 15.0806 8.65844C15.2367 8.37226 15.3928 8.20316 15.5489 8.15113ZM21.8837 10.7917C23.0198 10.9478 23.6918 11.4551 23.9 12.3137C24.1168 13.1635 24.2252 13.8269 24.2252 14.3039C24.2425 14.6681 23.9303 15.4225 23.2886 16.5672C22.6469 17.7119 21.81 18.8653 20.7781 20.0273C20.1884 20.0967 19.5683 20.0924 18.9179 20.0143C18.2762 19.9363 17.6562 19.8669 17.0578 19.8062C17.1272 18.5314 17.305 17.3694 17.5911 16.3201C17.886 15.2621 18.1852 14.2692 18.4887 13.3413C18.7922 12.821 19.1564 12.2269 19.5813 11.5592C20.0149 10.8914 20.7824 10.6356 21.8837 10.7917V10.7917ZM10.1896 10.9478C10.5539 10.9478 11.0482 11.1429 11.6725 11.5332C12.2969 11.9147 12.7045 12.4654 12.8953 13.1852C13.1208 13.9917 13.4069 15.1711 13.7538 16.7233C14.1094 18.2669 14.2394 19.3336 14.144 19.9233C13.6151 19.9666 13.0601 20.0403 12.479 20.1444C11.898 20.2485 11.3864 20.1661 10.9441 19.8973C9.7994 18.9607 8.99725 17.9547 8.53764 16.8794C8.07803 15.8041 7.84822 14.8112 7.84822 13.9006C7.84822 13.1808 8.14307 12.5088 8.73276 11.8844C9.32245 11.26 9.80808 10.9478 10.1896 10.9478V10.9478ZM14.9765 3H16.3814V4.36583H17.8903V5.36744H16.3814V6.64221C16.8323 6.64221 17.2052 6.71159 17.5001 6.85034C17.8036 6.98909 17.977 7.43569 18.0204 8.19015C17.9423 8.68445 17.8903 9.04434 17.8643 9.26981C17.847 9.4866 17.7516 9.78145 17.5781 10.1543C18.1071 9.55598 18.8442 9.11371 19.7895 8.82754C20.7434 8.54136 21.7016 8.49367 22.6642 8.68445C23.6355 8.87523 24.5113 9.34785 25.2918 10.1023C26.081 10.8481 26.5753 11.9494 26.7747 13.4063C26.4018 15.8952 25.6994 17.6859 24.6674 18.7786C23.6441 19.8626 22.9721 20.7818 22.6512 21.5363C22.6425 22.3081 22.6816 23.4007 22.7683 24.8142C22.8637 26.2191 23.0068 27.5242 23.1975 28.7296C20.7694 29.1719 18.1808 29.367 15.4318 29.315C12.6828 29.2629 10.4238 29.1242 8.65471 28.8987C8.88885 27.5286 9.01026 26.1931 9.01893 24.8923C9.0276 23.5828 9.06662 22.4728 9.136 21.5623C8.97123 21.2761 8.64604 20.8945 8.16041 20.4176C7.68345 19.9319 7.19782 19.3423 6.70352 18.6485C6.20922 17.9547 5.7843 17.1483 5.42875 16.229C5.0732 15.3011 4.93879 14.2518 5.02551 13.0811C5.22496 11.9104 5.67156 10.9782 6.36532 10.2844C7.05907 9.582 7.83088 9.10938 8.68072 8.86656C9.53925 8.62375 10.3978 8.60207 11.2563 8.80152C12.1148 9.00098 12.8172 9.40856 13.3636 10.0243C13.2075 9.7034 13.1121 9.40422 13.0774 9.12672C13.0514 8.84055 12.9863 8.54136 12.8823 8.22917C13.0124 7.54409 13.2985 7.10616 13.7408 6.91538C14.1917 6.72459 14.6037 6.62053 14.9765 6.60319V5.36744H13.4676V4.36583H14.9765V3ZM10.9311 10.2324C9.7864 9.95489 8.85416 10.2064 8.13439 10.9868C7.41462 11.7587 6.96368 12.7559 6.78157 13.9787C6.88564 16.0079 7.44064 17.5081 8.44658 18.4794C9.45253 19.4507 10.207 20.2138 10.71 20.7688C11.3604 20.7428 12.0107 20.7471 12.6611 20.7818C13.3202 20.8165 14.0226 20.7601 14.7684 20.6127C14.8725 19.2425 14.7814 17.9417 14.4953 16.7103C14.2178 15.4702 13.8795 14.2388 13.4806 13.0161C13.1945 12.2183 12.8779 11.6329 12.5311 11.26C12.1929 10.8871 11.6595 10.5446 10.9311 10.2324V10.2324ZM21.7016 10.0633C20.8171 10.0633 20.1017 10.2367 19.5553 10.5836C19.0177 10.9305 18.415 11.7803 17.7472 13.1332C17.2356 14.5727 16.8627 15.7738 16.6286 16.7363C16.4031 17.6989 16.338 18.9694 16.4334 20.5477C17.4567 20.5477 18.467 20.63 19.4643 20.7948C20.4702 20.9509 21.0382 20.9422 21.1683 20.7688C22.0615 19.6675 22.8507 18.6355 23.5357 17.6729C24.2208 16.7017 24.7498 15.6047 25.1227 14.3819C25.2008 13.7662 24.997 12.8947 24.5113 11.7673C24.0344 10.6313 23.0978 10.0633 21.7016 10.0633V10.0633ZM15.6139 7.68284C15.0156 7.76089 14.5906 8.10777 14.3392 8.72348C14.2958 9.20043 14.3999 10.15 14.6513 11.5722C14.9115 12.9857 15.2584 14.1868 15.692 15.1754C16.0042 14.3429 16.286 13.1852 16.5375 11.7023C16.789 10.2194 16.8627 9.27848 16.7586 8.87957C16.7586 8.64543 16.6632 8.39828 16.4725 8.13812C16.2903 7.87796 16.0042 7.7262 15.6139 7.68284ZM10.1116 25.9589C10.1116 26.063 10.0986 26.1974 10.0726 26.3622C10.0466 26.5183 10.0335 26.6484 10.0335 26.7524C12.1929 26.2234 14.2438 25.9719 16.1863 25.998C18.1288 26.024 19.9022 26.2494 21.5065 26.6744C21.5412 26.7437 21.5629 26.6657 21.5715 26.4402C21.5802 26.2148 21.5846 26.0543 21.5846 25.9589C19.9803 25.534 18.1765 25.3042 16.1733 25.2695C14.1787 25.2348 12.1582 25.4646 10.1116 25.9589H10.1116Z" fill="black"/>
<path d="M10.736 23.3834C10.7013 23.7996 10.6449 23.9427 10.5669 23.8126C10.4888 23.6826 10.4541 23.8473 10.4628 24.3069C12.3359 23.7606 14.17 23.5221 15.9651 23.5915C17.7689 23.6522 19.5336 23.9427 21.2593 24.463C21.2767 24.1769 21.281 24.0208 21.2724 23.9947C21.2637 23.9601 21.2507 23.7823 21.2333 23.4614C19.9065 23.1145 18.3152 22.9021 16.4594 22.824C14.6036 22.746 12.6958 22.9324 10.736 23.3834ZM15.5489 8.15113C15.6963 8.10777 15.8567 8.25953 16.0302 8.60641C16.2123 8.95328 16.3033 9.24379 16.3033 9.47794C16.3033 9.71208 16.2123 10.4535 16.0302 11.7023C15.8567 12.951 15.718 13.5537 15.6139 13.5104C15.5099 13.467 15.3581 12.7993 15.1586 11.5072C14.9592 10.215 14.8595 9.48661 14.8595 9.32184C14.8595 9.15707 14.9332 8.93594 15.0806 8.65844C15.2367 8.37227 15.3928 8.20316 15.5489 8.15113ZM21.8837 10.7917C23.0197 10.9478 23.6918 11.4551 23.8999 12.3137C24.1167 13.1635 24.2251 13.8269 24.2251 14.3039C24.2425 14.6681 23.9303 15.4225 23.2886 16.5672C22.6469 17.7119 21.81 18.8653 20.7781 20.0273C20.1884 20.0967 19.5683 20.0924 18.9179 20.0143C18.2762 19.9363 17.6562 19.8669 17.0578 19.8062C17.1272 18.5314 17.3049 17.3694 17.5911 16.3201C17.886 15.2621 18.1851 14.2692 18.4887 13.3413C18.7922 12.821 19.1564 12.2269 19.5813 11.5592C20.0149 10.8915 20.7824 10.6356 21.8837 10.7917ZM10.1896 10.9478C10.5538 10.9478 11.0481 11.1429 11.6725 11.5332C12.2969 11.9147 12.7045 12.4654 12.8953 13.1852C13.1207 13.9917 13.4069 15.1711 13.7538 16.7233C14.1093 18.2669 14.2394 19.3336 14.144 19.9233C13.615 19.9666 13.06 20.0403 12.479 20.1444C11.898 20.2485 11.3864 20.1661 10.9441 19.8973C9.79939 18.9607 8.99723 17.9547 8.53762 16.8794C8.07801 15.8041 7.8482 14.8112 7.8482 13.9006C7.8482 13.1808 8.14305 12.5088 8.73274 11.8844C9.32243 11.26 9.80806 10.9478 10.1896 10.9478ZM10.9311 10.2324C9.78638 9.95489 8.85415 10.2064 8.13438 10.9869C7.41461 11.7587 6.96367 12.7559 6.78156 13.9787C6.88562 16.0079 7.44062 17.5081 8.44657 18.4794C9.45251 19.4507 10.207 20.2138 10.7099 20.7688C11.3603 20.7428 12.0107 20.7471 12.6611 20.7818C13.3202 20.8165 14.0226 20.7601 14.7684 20.6127C14.8725 19.2425 14.7814 17.9417 14.4952 16.7103C14.2177 15.4702 13.8795 14.2388 13.4806 13.0161C13.1944 12.2183 12.8779 11.6329 12.531 11.26C12.1928 10.8871 11.6595 10.5446 10.9311 10.2324ZM21.7016 10.0633C20.8171 10.0633 20.1016 10.2367 19.5553 10.5836C19.0176 10.9305 18.4149 11.7803 17.7472 13.1332C17.2356 14.5727 16.8627 15.7738 16.6285 16.7363C16.4031 17.6989 16.338 18.9694 16.4334 20.5477C17.4567 20.5477 18.467 20.63 19.4643 20.7948C20.4702 20.9509 21.0382 20.9422 21.1683 20.7688C22.0615 19.6675 22.8506 18.6355 23.5357 17.6729C24.2208 16.7017 24.7498 15.6047 25.1227 14.3819C25.2007 13.7662 24.9969 12.8947 24.5113 11.7673C24.0344 10.6313 23.0978 10.0633 21.7016 10.0633ZM15.6139 7.68285C15.0156 7.76089 14.5906 8.10777 14.3391 8.72348C14.2958 9.20043 14.3998 10.15 14.6513 11.5722C14.9115 12.9857 15.2584 14.1868 15.692 15.1754C16.0042 14.3429 16.286 13.1852 16.5375 11.7023C16.789 10.2194 16.8627 9.27848 16.7586 8.87957C16.7586 8.64543 16.6632 8.39828 16.4724 8.13812C16.2903 7.87796 16.0042 7.7262 15.6139 7.68285ZM10.1116 25.9589C10.1116 26.063 10.0986 26.1974 10.0726 26.3622C10.0465 26.5183 10.0335 26.6484 10.0335 26.7524C12.1928 26.2234 14.2438 25.9719 16.1863 25.998C18.1288 26.024 19.9022 26.2494 21.5065 26.6744C21.5412 26.7437 21.5629 26.6657 21.5715 26.4402C21.5802 26.2148 21.5845 26.0543 21.5845 25.9589C19.9802 25.534 18.1765 25.3042 16.1733 25.2695C14.1787 25.2348 12.1582 25.4646 10.1116 25.9589Z" fill="#EEEEEE"/>
</svg>
