<svg width="32" height="32" viewBox="0 0 32 32" fill="none" xmlns="http://www.w3.org/2000/svg">
<path d="M7.78369 18.9965C6.75173 19.1266 6.33114 19.4214 6.52192 19.881C6.652 20.2279 6.93818 20.2843 7.38045 20.0501C7.82271 19.816 7.95713 19.4648 7.78369 18.9965ZM12.5836 10.8926C11.7858 10.8579 11.2004 11.0834 10.8275 11.569C10.4633 12.0459 10.3983 12.5272 10.6324 13.0129C11.1701 13.0389 11.5213 12.9955 11.6861 12.8828C11.8508 12.7614 11.9462 12.4145 11.9722 11.8422C12.0936 11.66 12.176 11.4866 12.2194 11.3218C12.2627 11.1484 12.3842 11.0053 12.5836 10.8926ZM16.6941 8.87635L16.7071 9.69585C18.4762 10.8666 19.855 12.202 20.8436 13.7023C21.8322 15.2025 22.565 16.7765 23.042 18.4242C23.5189 20.0631 23.8051 21.7325 23.9005 23.4322C24.0045 25.1232 24.0566 26.7449 24.0566 28.2971H24.9411C24.8197 25.895 24.6853 23.7921 24.5379 21.9883C24.3991 20.1759 24.0739 18.5282 23.5623 17.0453C23.0506 15.5624 22.2658 14.1749 21.2078 12.8828C20.1499 11.5907 18.6453 10.2552 16.6941 8.87635H16.6941ZM10.8796 29.3508C10.8536 28.6484 10.9012 27.8896 11.0227 27.0744C11.1527 26.2506 11.3305 25.5612 11.556 25.0061C12.2064 24.0696 12.705 23.3585 13.0519 22.8729C13.4074 22.3786 13.711 21.9493 13.9624 21.5851C14.2139 21.2208 14.4697 20.8393 14.7299 20.4404C14.9901 20.0415 15.363 19.4561 15.8486 18.6843C16.0741 17.7564 16.486 16.8892 17.0843 16.0827C17.6914 15.2676 17.5136 15.0074 16.551 15.3023C16.3429 16.0394 16.2605 16.6204 16.3039 17.0453C16.3472 17.4616 16.2258 17.9385 15.9396 18.4762C15.5234 19.0485 14.9467 19.3564 14.2096 19.3997C13.4811 19.4431 12.5706 19.764 11.4779 20.3623C11.1397 20.7265 10.8362 21.1385 10.5674 21.5981C10.3072 22.0577 9.98203 22.4783 9.59179 22.8598C9.09749 23.0159 8.75061 23.0116 8.55116 22.8468C8.65522 22.6907 8.7853 22.5433 8.94139 22.4046C9.09749 22.2571 9.18854 22.0447 9.21456 21.7672C9.08448 21.9233 8.86335 22.1444 8.55116 22.4306C8.24764 22.7081 7.91377 22.7731 7.54955 22.6257C7.18533 22.4176 6.67802 22.0013 6.02762 21.3769C5.3859 20.7439 5.04336 20.2366 5 19.855C5.19945 18.9358 5.65907 17.7651 6.37884 16.3429C7.09861 14.912 7.69263 13.8193 8.16092 13.0649C8.36037 11.582 8.75928 10.6324 9.35765 10.2162C9.96468 9.79123 10.5674 9.3533 11.1657 8.90236C10.6975 7.9311 10.3506 7.2677 10.1251 6.91215C9.90831 6.54793 9.91698 6.25309 10.1511 6.02762C10.3853 5.94957 10.8665 6.12734 11.595 6.56094C12.3234 6.98586 12.8611 7.44548 13.208 7.93978C13.4681 7.87907 13.5635 7.85306 13.4941 7.86173C13.4248 7.87041 13.4551 7.87475 13.5852 7.87475C13.7413 7.01623 13.763 6.34849 13.6502 5.87153C13.5375 5.3859 13.6112 5.09539 13.8714 5C14.886 5.05203 15.5581 5.55934 15.8876 6.52192C16.2258 7.47584 16.4556 7.97447 16.577 8.01783C17.9212 8.50346 18.9314 9.02378 19.6079 9.57878C20.2929 10.1251 21.3813 11.2655 22.8728 12.9999C23.766 14.1706 24.4641 15.6795 24.9671 17.5266C25.4787 19.3737 25.843 21.1732 26.0598 22.9249C26.2852 24.6766 26.3936 26.1855 26.385 27.4516C26.3763 28.7177 26.3026 29.3508 26.1638 29.3508H10.8796Z" fill="black"/>
<path d="M7.78371 18.9965C6.75175 19.1266 6.33116 19.4214 6.52195 19.881C6.65203 20.2279 6.9382 20.2843 7.38047 20.0501C7.82274 19.816 7.95715 19.4648 7.78371 18.9965ZM12.5836 10.8926C11.7858 10.8579 11.2005 11.0833 10.8276 11.569C10.4633 12.0459 10.3983 12.5272 10.6324 13.0129C11.1701 13.0389 11.5213 12.9955 11.6861 12.8828C11.8508 12.7614 11.9462 12.4145 11.9723 11.8421C12.0937 11.66 12.176 11.4866 12.2194 11.3218C12.2628 11.1484 12.3842 11.0053 12.5836 10.8926ZM16.6941 8.87634L16.7071 9.69584C18.4762 10.8666 19.855 12.202 20.8436 13.7023C21.8322 15.2025 22.565 16.7765 23.042 18.4241C23.5189 20.0631 23.8051 21.7325 23.9005 23.4322C24.0046 25.1232 24.0566 26.7449 24.0566 28.2971H24.9411C24.8197 25.895 24.6853 23.7921 24.5379 21.9883C24.3991 20.1759 24.0739 18.5282 23.5623 17.0453C23.0507 15.5624 22.2658 14.1749 21.2079 12.8828C20.1499 11.5907 18.6453 10.2552 16.6941 8.87634Z" fill="#EEEEEE"/>
</svg>
