<svg width="32" height="32" viewBox="0 0 32 32" fill="none" xmlns="http://www.w3.org/2000/svg">
<path d="M13.2064 28.1915H24.7834C24.7661 27.7492 24.7357 26.9861 24.6923 25.9021C24.6577 24.8094 24.5493 23.591 24.3672 22.2469C24.185 20.9027 23.8945 19.5282 23.4956 18.1234C23.1054 16.7185 22.546 15.4828 21.8176 14.4161C20.7423 13.0199 19.8751 12.0617 19.216 11.5414C18.557 11.021 17.5987 10.5224 16.3413 10.0455C16.2025 10.1062 16.1548 10.2232 16.1982 10.3967C16.2502 10.5614 16.2242 10.7609 16.1201 10.995C16.1722 10.5961 16.1939 10.375 16.1852 10.3316C16.1765 10.2796 16.1765 10.0975 16.1852 9.7853C16.0985 9.36905 16.0074 8.88342 15.912 8.32841C15.8253 7.76474 15.5435 7.45689 15.0665 7.40485C15.0405 7.79509 15.0145 8.13763 14.9885 8.43248C14.9624 8.71865 14.9321 9.06986 14.8974 9.48612C14.828 9.48612 14.6416 9.52514 14.3381 9.60319C14.0345 9.67256 13.8177 9.7246 13.6877 9.75928C13.5576 9.58584 13.3581 9.32569 13.0893 8.97881C12.8205 8.62326 12.608 8.45849 12.4519 8.48451C12.3218 8.67529 12.3479 8.92678 12.53 9.23897C12.7121 9.54249 12.8508 9.83299 12.9462 10.1105C12.66 10.5875 12.1961 10.9517 11.5544 11.2032C10.9126 11.446 10.4964 12.1267 10.3056 13.2454C10.0455 13.9999 9.50346 15.1489 8.67963 16.6925C7.86447 18.2274 7.31813 19.4372 7.04063 20.3217C7.06665 20.6599 7.28345 21.0328 7.69103 21.4404C8.09861 21.848 8.43248 22.1038 8.69263 22.2078C9.05686 22.1124 9.40373 21.9 9.73327 21.5705C10.0628 21.2409 10.2883 21.0111 10.4097 20.881C10.5744 21.1152 10.6395 21.345 10.6048 21.5705C10.5788 21.7959 10.5831 21.9477 10.6178 22.0257C10.6959 21.8176 10.8129 21.4664 10.969 20.9721C11.1251 20.4778 11.2856 20.1483 11.4503 19.9835C12.3435 19.6019 13.0893 19.3504 13.6877 19.229C14.2947 19.1076 14.9798 18.7304 15.7429 18.0973C16.1158 17.1868 16.3673 16.3153 16.4974 15.4828C16.6361 14.6503 16.8833 14.1863 17.2388 14.0909C17.4643 14.4291 17.6204 14.8324 17.7071 15.3006C17.8025 15.7689 17.7982 17.0741 17.6941 19.216C17.2952 20.0572 16.8226 20.8333 16.2762 21.5444C15.7386 22.2469 14.841 23.5086 13.5836 25.3297C13.4275 25.7547 13.3321 26.1883 13.2974 26.6305C13.2714 27.0728 13.2411 27.5931 13.2064 28.1915V28.1915ZM13.2844 11.6584C13.0936 11.7625 12.9766 11.8969 12.9332 12.0617C12.8898 12.2264 12.8118 12.3912 12.6991 12.556C12.6731 13.111 12.582 13.4449 12.4259 13.5576C12.2698 13.6703 11.9316 13.7137 11.4113 13.6877C11.1858 13.2194 11.2509 12.7554 11.6064 12.2958C11.962 11.8275 12.5213 11.6151 13.2844 11.6584ZM8.44548 19.6713C8.41947 19.9141 8.38045 20.1136 8.32841 20.2697C8.27638 20.4171 8.06826 20.4735 7.70403 20.4388C7.57395 20.4301 7.55228 20.313 7.639 20.0876C7.72571 19.8621 7.99454 19.7233 8.44548 19.6713ZM11.6454 29.3752C11.6194 28.6988 11.6671 27.9703 11.7885 27.1899C11.9186 26.4007 12.0877 25.7373 12.2958 25.1997C12.9289 24.3064 13.4102 23.6257 13.7397 23.1574C14.0779 22.6805 14.3684 22.2685 14.6112 21.9217C14.854 21.5661 15.1012 21.1976 15.3527 20.816C15.6042 20.4258 15.9597 19.8621 16.4193 19.125C16.6361 18.2404 16.7922 17.6161 16.8876 17.2518C16.983 16.8789 17.0524 16.4237 17.0957 15.886C16.8876 16.5884 16.7705 17.022 16.7445 17.1868C16.7185 17.3516 16.5884 17.8285 16.3543 18.6177C15.9467 19.164 15.4177 19.5109 14.7673 19.6583C14.1169 19.8057 13.2714 20.1656 12.2308 20.7379C11.9012 21.0848 11.6064 21.4794 11.3462 21.9217C11.0948 22.3639 10.7869 22.7672 10.4227 23.1314C9.93706 23.2788 9.59885 23.2788 9.40807 23.1314C9.51213 22.984 9.63787 22.8409 9.7853 22.7021C9.94139 22.5634 10.0324 22.3596 10.0585 22.0908C9.92839 22.2382 9.71159 22.4463 9.40807 22.7151C9.11322 22.984 8.79236 23.049 8.44548 22.9103C8.09861 22.7195 7.61298 22.3206 6.9886 21.7135C6.37289 21.1065 6.04336 20.6209 6 20.2567C6.19946 19.3721 6.64172 18.2448 7.32681 16.8746C8.02056 15.5044 8.58857 14.4551 9.03084 13.7267C9.23029 12.3045 9.6162 11.3939 10.1885 10.995C10.7696 10.5961 11.3462 10.1799 11.9186 9.74628C11.4763 8.80971 11.1468 8.16798 10.93 7.82111C10.7219 7.47423 10.7305 7.19239 10.956 6.97559C11.1815 6.89755 11.6411 7.06665 12.3348 7.4829C13.0286 7.89048 13.5446 8.33709 13.8828 8.82271C14.1256 8.76201 14.2166 8.736 14.1559 8.74467C14.0952 8.74467 14.1256 8.74467 14.247 8.74467C14.3944 7.92083 14.4161 7.27911 14.312 6.8195C14.208 6.35989 14.2773 6.08672 14.5202 6C15.4914 6.04336 16.1375 6.52899 16.4583 7.45689C16.7879 8.37611 17.0047 8.85307 17.1087 8.88775C18.4008 9.35604 19.4025 9.82432 20.1136 10.2926C20.8333 10.7609 21.8479 11.8882 23.1574 13.6747C24.094 14.776 24.8094 16.2155 25.3037 17.9933C25.798 19.7624 26.1405 21.4924 26.3313 23.1834C26.5308 24.8658 26.6132 26.3183 26.5785 27.5411C26.5438 28.7638 26.4614 29.3752 26.3313 29.3752H11.6454Z" fill="black"/>
<path d="M13.2064 28.1915H24.7834C24.7661 27.7492 24.7357 26.9861 24.6923 25.9021C24.6576 24.8094 24.5493 23.591 24.3671 22.2469C24.185 20.9027 23.8945 19.5282 23.4956 18.1234C23.1054 16.7185 22.546 15.4828 21.8176 14.4161C20.7423 13.0199 19.8751 12.0617 19.216 11.5414C18.5569 11.021 17.5987 10.5224 16.3413 10.0454C16.2025 10.1062 16.1548 10.2232 16.1982 10.3967C16.2502 10.5614 16.2242 10.7609 16.1201 10.995C16.1722 10.5961 16.1938 10.375 16.1852 10.3316C16.1765 10.2796 16.1765 10.0975 16.1852 9.78529C16.0985 9.36904 16.0074 8.88341 15.912 8.32841C15.8253 7.76473 15.5434 7.45688 15.0665 7.40485C15.0405 7.79508 15.0145 8.13762 14.9884 8.43247C14.9624 8.71864 14.9321 9.06986 14.8974 9.48611C14.828 9.48611 14.6416 9.52513 14.3381 9.60318C14.0345 9.67256 13.8177 9.72459 13.6877 9.75928C13.5576 9.58584 13.3581 9.32568 13.0893 8.9788C12.8205 8.62325 12.608 8.45849 12.4519 8.4845C12.3218 8.67528 12.3478 8.92677 12.53 9.23896C12.7121 9.54248 12.8508 9.83299 12.9462 10.1105C12.66 10.5874 12.1961 10.9517 11.5544 11.2032C10.9126 11.446 10.4964 12.1267 10.3056 13.2454C10.0454 13.9999 9.50345 15.1489 8.67961 16.6925C7.86445 18.2274 7.31812 19.4372 7.04062 20.3217C7.06664 20.6599 7.28343 21.0328 7.69101 21.4404C8.0986 21.8479 8.43246 22.1038 8.69262 22.2078C9.05684 22.1124 9.40372 21.9 9.73325 21.5704C10.0628 21.2409 10.2883 21.0111 10.4097 20.881C10.5744 21.1152 10.6395 21.345 10.6048 21.5704C10.5788 21.7959 10.5831 21.9477 10.6178 22.0257C10.6958 21.8176 10.8129 21.4664 10.969 20.9721C11.1251 20.4778 11.2855 20.1483 11.4503 19.9835C12.3435 19.6019 13.0893 19.3504 13.6877 19.229C14.2947 19.1076 14.9798 18.7304 15.7429 18.0973C16.1158 17.1868 16.3673 16.3153 16.4974 15.4828C16.6361 14.6502 16.8833 14.1863 17.2388 14.0909C17.4643 14.4291 17.6204 14.8324 17.7071 15.3006C17.8025 15.7689 17.7982 17.0741 17.6941 19.216C17.2952 20.0572 16.8226 20.8333 16.2762 21.5444C15.7386 22.2469 14.841 23.5086 13.5836 25.3297C13.4275 25.7547 13.3321 26.1882 13.2974 26.6305C13.2714 27.0728 13.2411 27.5931 13.2064 28.1915ZM13.2844 11.6584C13.0936 11.7625 12.9766 11.8969 12.9332 12.0617C12.8898 12.2264 12.8118 12.3912 12.6991 12.556C12.673 13.111 12.582 13.4448 12.4259 13.5576C12.2698 13.6703 11.9316 13.7137 11.4113 13.6877C11.1858 13.2194 11.2508 12.7554 11.6064 12.2958C11.9619 11.8275 12.5213 11.6151 13.2844 11.6584ZM8.44547 19.6713C8.41946 19.9141 8.38043 20.1136 8.3284 20.2697C8.27637 20.4171 8.06824 20.4734 7.70402 20.4388C7.57394 20.4301 7.55226 20.313 7.63898 20.0875C7.7257 19.8621 7.99453 19.7233 8.44547 19.6713Z" fill="white"/>
</svg>
