<svg width="32" height="32" viewBox="0 0 32 32" fill="none" xmlns="http://www.w3.org/2000/svg">
<path d="M15.5 5C16.1447 5 16.7196 5.25041 17.2249 5.75124C17.7389 6.25206 17.9959 6.85393 17.9959 7.55684C17.9959 8.61999 17.5429 9.35805 16.6369 9.77101C17.7084 9.98188 18.5665 10.5222 19.2111 11.3921C19.8558 12.2532 20.1781 13.2241 20.1781 14.3048C20.1781 15.7545 19.5857 16.9231 18.401 17.8105C19.0021 18.0566 19.6511 18.3333 20.348 18.6409C21.0536 18.9396 21.7244 19.458 22.3604 20.196C22.9963 20.9341 23.5539 21.9885 24.033 23.3591C24.5121 24.721 24.8345 26.5881 25 28.9605C24.5296 28.9868 23.3012 29 21.315 29C19.3287 28.9912 17.2249 28.9824 15.0034 28.9737C12.782 28.9649 10.7609 28.9605 8.94016 28.9605C7.11944 28.9517 6.13939 28.9517 6 28.9605C6.1481 25.112 6.9365 22.397 8.3652 20.8155C9.80261 19.2252 11.1573 18.1972 12.4292 17.7315C11.3141 16.8441 10.7565 15.7018 10.7565 14.3048C10.7565 13.2241 11.105 12.2356 11.8019 11.3394C12.5076 10.4344 13.4092 9.88084 14.5069 9.67876C13.566 9.23065 13.0956 8.52335 13.0956 7.55685C13.0956 6.85394 13.3352 6.25207 13.8143 5.75124C14.2934 5.25042 14.8553 5.00001 15.5 5.00001V5Z" fill="black"/>
</svg>
