<svg width="32" height="32" viewBox="0 0 32 32" fill="none" xmlns="http://www.w3.org/2000/svg">
<path d="M16.4567 5C17.0985 5 17.6708 5.24715 18.1738 5.74145C18.6768 6.23575 18.9282 6.82978 18.9282 7.52353C18.9282 8.57284 18.4773 9.29694 17.5754 9.69585C18.6421 9.90398 19.4963 10.4373 20.138 11.2958C20.7884 12.1543 21.1136 13.1169 21.1136 14.1836C21.1136 15.5971 20.5239 16.7505 19.3445 17.6437C19.9429 17.8778 20.5889 18.1466 21.2827 18.4502C21.9851 18.745 22.6528 19.261 23.2859 19.9981C23.9189 20.7265 24.4739 21.7672 24.9509 23.12C25.4279 24.4642 25.7487 26.3026 25.9135 28.6354C25.4365 28.6614 24.2094 28.6744 22.2322 28.6744C20.2637 28.6744 18.1738 28.67 15.9624 28.6614C13.7511 28.644 11.7392 28.6354 9.92678 28.6354C8.11434 28.6267 7.13875 28.6267 7 28.6354C7.13875 24.8457 7.92356 22.1704 9.35443 20.6095C10.7853 19.0399 12.1338 18.0253 13.3999 17.5656C12.2812 16.6898 11.7219 15.5624 11.7219 14.1836C11.7219 13.1169 12.0731 12.1413 12.7755 11.2568C13.4779 10.3636 14.3755 9.81727 15.4681 9.61781C14.5316 9.18422 14.0633 8.48613 14.0633 7.52354C14.0633 6.82979 14.2974 6.23576 14.7657 5.74146C15.2427 5.24716 15.8063 5.00001 16.4567 5.00001V5ZM16.5478 5.94958C15.9841 6.20974 15.5939 6.40919 15.3771 6.54794C15.1603 6.67802 15.0519 7.06392 15.0519 7.70564C15.0519 8.1826 15.208 8.59452 15.5202 8.94139C15.8324 9.2796 16.1836 9.53542 16.5738 9.70886C15.5592 9.89097 14.718 10.407 14.0503 11.2568C13.3825 12.098 13.0487 13.0129 13.0487 14.0015C13.0487 14.6345 13.3782 15.3586 14.0373 16.1738C14.705 16.9803 15.2774 17.57 15.7543 17.9429C15.1646 18.1597 14.4969 18.4372 13.7511 18.7754C13.014 19.1049 12.3116 19.6079 11.6438 20.2843C10.9761 20.952 10.3994 21.8409 9.91377 22.9509C9.43681 24.0522 9.16798 25.4788 9.10728 27.2305C9.23736 27.2218 10.0092 27.2218 11.4227 27.2305C12.8449 27.2392 14.4232 27.2478 16.1576 27.2565C17.8919 27.2652 19.5396 27.2695 21.1006 27.2695C22.6702 27.2695 23.6761 27.2565 24.1184 27.2305C23.9623 25.0712 23.6198 23.4148 23.0908 22.2615C22.5705 21.0994 21.9678 20.2366 21.2827 19.6729C20.6063 19.1092 19.9038 18.7363 19.1754 18.5542C18.447 18.3721 17.8052 18.1683 17.2502 17.9429C17.7445 17.57 18.3082 16.9846 18.9413 16.1868C19.583 15.3803 19.9038 14.6519 19.9038 14.0015C19.9038 13.0215 19.5916 12.111 18.9673 11.2698C18.3516 10.4286 17.5494 9.90831 16.5608 9.70885C17.4453 9.32729 17.8876 8.65955 17.8876 7.70564C17.8876 7.06391 17.8182 6.65633 17.6795 6.48289C17.5494 6.30945 17.1722 6.13168 16.5478 5.94957V5.94958Z" fill="black"/>
<path d="M16.5478 5.94957C15.9841 6.20973 15.5938 6.40918 15.377 6.54793C15.1602 6.67801 15.0518 7.06391 15.0518 7.70564C15.0518 8.18259 15.2079 8.59451 15.5201 8.94139C15.8323 9.27959 16.1835 9.53541 16.5738 9.70885C15.5592 9.89096 14.718 10.4069 14.0502 11.2568C13.3825 12.098 13.0486 13.0129 13.0486 14.0015C13.0486 14.6345 13.3782 15.3586 14.0372 16.1738C14.705 16.9803 15.2773 17.57 15.7543 17.9429C15.1646 18.1596 14.4968 18.4372 13.7511 18.7754C13.0139 19.1049 12.3115 19.6079 11.6438 20.2843C10.976 20.952 10.3994 21.8409 9.91373 22.9509C9.43677 24.0522 9.16794 25.4788 9.10724 27.2305C9.23732 27.2218 10.0091 27.2218 11.4226 27.2305C12.8448 27.2392 14.4231 27.2478 16.1575 27.2565C17.8919 27.2652 19.5396 27.2695 21.1005 27.2695C22.6701 27.2695 23.6761 27.2565 24.1184 27.2305C23.9623 25.0712 23.6197 23.4148 23.0907 22.2615C22.5704 21.0994 21.9677 20.2366 21.2826 19.6729C20.6062 19.1092 19.9038 18.7363 19.1754 18.5542C18.4469 18.3721 17.8052 18.1683 17.2502 17.9428C17.7445 17.57 18.3082 16.9846 18.9412 16.1868C19.5829 15.3803 19.9038 14.6518 19.9038 14.0014C19.9038 13.0215 19.5916 12.111 18.9672 11.2698C18.3515 10.4286 17.5494 9.9083 16.5608 9.70884C17.4453 9.32728 17.8876 8.65954 17.8876 7.70563C17.8876 7.0639 17.8182 6.65632 17.6794 6.48289C17.5494 6.30945 17.1721 6.13168 16.5478 5.94957Z" fill="white"/>
</svg>
