<svg width="32" height="32" viewBox="0 0 32 32" fill="none" xmlns="http://www.w3.org/2000/svg">
<path d="M26.0094 8.45911C27.076 8.47644 27.6397 9.15285 27.7004 10.4883C27.6657 11.5376 26.998 12.0146 25.6972 11.9192C25.0988 13.8704 24.4961 15.7652 23.8891 17.6037C23.282 19.4334 22.8354 20.3483 22.5493 20.3483C22.5493 21.0508 22.5276 22.2431 22.4842 23.9255C22.4409 25.6079 22.6403 27.004 23.0826 28.114C20.7238 28.5216 18.209 28.6994 15.538 28.6474C12.8671 28.5953 10.6731 28.4653 8.95601 28.2571C9.22484 26.332 9.36793 24.8274 9.38527 23.7434C9.41128 22.6507 9.42429 21.5711 9.42429 20.5044C9.10343 20.5304 8.6048 19.5332 7.92839 17.5126C7.25197 15.492 6.59724 13.4541 5.96419 11.3989C5.73005 11.4423 5.34415 11.3729 4.80649 11.1908C4.26883 11 4 10.5274 4 9.77291C4.03469 8.98376 4.28184 8.45477 4.74145 8.18594C5.20106 7.91711 5.62165 7.7827 6.00322 7.7827C6.21134 7.7827 6.57123 7.88676 7.08287 8.09489C7.60319 8.29434 7.86335 8.73661 7.86335 9.42169C7.87202 9.91599 7.77663 10.2932 7.57717 10.5534C7.37772 10.8135 7.20428 10.9913 7.05686 11.0867C7.5078 11.7891 7.85467 12.3225 8.09749 12.6867C8.3403 13.0422 8.57011 13.3934 8.78691 13.7403C9.01238 14.0785 9.27253 14.4948 9.56738 14.9891C9.86223 15.4747 10.2915 16.1945 10.8552 17.1484C10.6644 15.6134 10.5083 13.9658 10.3869 12.2054C10.2655 10.445 10.1527 9.29595 10.0487 8.75829C9.71914 8.74961 9.4373 8.5675 9.20316 8.21196C8.97769 7.85641 8.86495 7.58324 8.86495 7.39246C8.89097 6.71605 9.08609 6.23042 9.45031 5.93558C9.81453 5.64073 10.2264 5.48463 10.6861 5.46729C10.8942 5.46729 11.2584 5.54534 11.7787 5.70143C12.299 5.85753 12.5809 6.31281 12.6242 7.06726C12.6242 7.24937 12.5462 7.52688 12.3901 7.89977C12.2427 8.27266 11.9608 8.5068 11.5446 8.60219C11.8828 9.27861 12.3251 10.51 12.8714 12.2964C13.4264 14.0742 13.8643 15.3403 14.1852 16.0947L15.3819 7.37945C14.9657 7.39679 14.6101 7.20167 14.3153 6.7941C14.0291 6.38651 13.886 6.08733 13.886 5.89655C13.86 5.3242 14.0681 4.86893 14.5104 4.53072C14.9526 4.18384 15.4383 4.01041 15.9673 4.01041C16.4529 3.95837 16.8995 4.10146 17.3071 4.43967C17.7147 4.7692 17.9141 5.2158 17.9054 5.77948C17.9054 6.03964 17.8057 6.3605 17.6063 6.74206C17.4068 7.11496 17.112 7.32742 16.7217 7.37945L17.8534 16.2899L20.5591 8.75829C20.3509 8.65423 20.1298 8.48946 19.8957 8.26399C19.6702 8.03852 19.6051 7.71766 19.7005 7.3014C19.7612 6.55562 20.0604 6.083 20.5981 5.88354C21.1357 5.68409 21.5086 5.58436 21.7168 5.58436C21.9249 5.58436 22.2978 5.73178 22.8354 6.02663C23.3818 6.31281 23.6549 6.80277 23.6549 7.49652C23.6723 8.1209 23.4988 8.53282 23.1346 8.73227C22.7791 8.93173 22.3888 9.00978 21.9639 8.96642L21.0143 17.2004L24.7476 11.529C24.5308 11.3989 24.327 11.2038 24.1362 10.9436C23.9541 10.6835 23.8847 10.4276 23.9281 10.1762C23.9975 9.68185 24.236 9.26993 24.6435 8.9404C25.0598 8.6022 25.5151 8.44176 26.0094 8.45911V8.45911ZM10.3609 25.0962C10.3609 25.2003 10.3479 25.3737 10.3218 25.6165C10.3045 25.8593 10.2958 26.0284 10.2958 26.1238C12.3944 25.6469 14.4107 25.4257 16.3445 25.4604C18.287 25.4864 20.0388 25.6946 21.5997 26.0848C21.6257 25.9287 21.6127 25.7509 21.5607 25.5515C21.5086 25.3434 21.4826 25.1959 21.4826 25.1092C19.9217 24.719 18.1743 24.5109 16.2404 24.4848C14.3153 24.4501 12.3554 24.6539 10.3609 25.0962H10.3609ZM10.3999 20.7125C10.3999 20.8686 10.4042 21.0204 10.4129 21.1678C10.4302 21.3066 10.4389 21.4497 10.4389 21.5971C12.5895 21.0768 14.3933 20.7646 15.8502 20.6605C17.3071 20.5565 19.1845 20.7819 21.4826 21.3369C21.4826 21.2068 21.4739 21.0768 21.4566 20.9467C21.4479 20.8166 21.4436 20.6779 21.4436 20.5304C19.874 20.0101 18.1092 19.7543 16.1494 19.763C14.1895 19.763 12.273 20.0795 10.3999 20.7125H10.3999ZM10.3609 22.9629C10.3609 23.1624 10.3609 23.3228 10.3609 23.4442C10.3695 23.5656 10.3739 23.713 10.3739 23.8865C12.0909 23.3922 13.821 23.0973 15.564 23.0019C17.3071 22.9065 19.2713 23.145 21.4566 23.7174C21.4739 23.4572 21.4696 23.3358 21.4436 23.3532C21.4263 23.3705 21.4132 23.2274 21.4046 22.9239C19.5314 22.4816 17.6973 22.2431 15.9022 22.2085C14.1071 22.1738 12.26 22.4253 10.3609 22.9629Z" fill="black"/>
<path d="M10.3609 25.0962C10.3609 25.2003 10.3479 25.3737 10.3218 25.6165C10.3045 25.8593 10.2958 26.0284 10.2958 26.1238C12.3944 25.6469 14.4107 25.4257 16.3445 25.4604C18.287 25.4864 20.0388 25.6946 21.5997 26.0848C21.6257 25.9287 21.6127 25.7509 21.5607 25.5515C21.5086 25.3434 21.4826 25.1959 21.4826 25.1092C19.9217 24.719 18.1743 24.5109 16.2404 24.4848C14.3153 24.4501 12.3554 24.6539 10.3609 25.0962ZM10.3999 20.7125C10.3999 20.8686 10.4042 21.0204 10.4129 21.1678C10.4302 21.3066 10.4389 21.4497 10.4389 21.5971C12.5895 21.0768 14.3933 20.7646 15.8502 20.6605C17.3071 20.5565 19.1845 20.7819 21.4826 21.3369C21.4826 21.2068 21.4739 21.0768 21.4566 20.9467C21.4479 20.8166 21.4436 20.6779 21.4436 20.5304C19.874 20.0101 18.1092 19.7543 16.1494 19.763C14.1895 19.763 12.273 20.0795 10.3999 20.7125ZM10.3609 22.9629C10.3609 23.1624 10.3609 23.3228 10.3609 23.4442C10.3695 23.5656 10.3739 23.713 10.3739 23.8865C12.0909 23.3922 13.821 23.0973 15.564 23.0019C17.3071 22.9065 19.2713 23.145 21.4566 23.7174C21.4739 23.4572 21.4696 23.3358 21.4436 23.3531C21.4263 23.3705 21.4132 23.2274 21.4046 22.9239C19.5314 22.4816 17.6973 22.2431 15.9022 22.2085C14.1071 22.1738 12.26 22.4253 10.3609 22.9629Z" fill="#EEEEEE"/>
</svg>
