<svg width="32" height="32" viewBox="0 0 32 32" fill="none" xmlns="http://www.w3.org/2000/svg">
<path d="M6 29.037V26.2663L7.52192 26.2273V23.8468L8.80971 23.8208L10.7999 21.5835V12.6601L9.17393 10.5528L8.18533 10.5268L8.19834 6.06506H11.0861L11.0991 7.75609L13.6877 7.78209L13.7137 6.00001H19.3851L19.4372 7.57397L21.6355 7.59997V6H24.2501V10.4617L23.1574 10.4747L21.6355 12.504V21.6485L23.7298 24.107L24.7704 24.068V26.3313H26.2923V29.037H6ZM12.4909 10.6828C10.7739 10.6828 10.2189 10.7782 10.8259 10.969C11.4416 11.1598 12.0487 11.2552 12.647 11.2552L20.4648 11.2682C20.9331 11.2682 21.358 11.1728 21.7396 10.982C22.1298 10.7826 21.7265 10.6829 20.5298 10.6829L12.4909 10.6828ZM11.2422 22.7542L10.6698 23.2485H21.7135L21.3493 22.7542H11.2422ZM8.91377 24.8745V25.4468H23.5346L23.5997 24.8745H8.91377ZM7.23575 27.359V27.7882H25.4208V27.359H7.23575ZM9.1349 9.08287L9.14792 9.65522H23.4436V9.08287H9.1349Z" fill="black"/>
<path d="M12.491 10.6829C10.7739 10.6829 10.2189 10.7782 10.826 10.969C11.4417 11.1598 12.0487 11.2552 12.6471 11.2552L20.4648 11.2682C20.9331 11.2682 21.358 11.1728 21.7396 10.982C22.1298 10.7826 21.7266 10.6829 20.5298 10.6829L12.491 10.6829ZM11.2422 22.7542L10.6699 23.2485H21.7136L21.3493 22.7542H11.2422ZM8.9138 24.8745V25.4468H23.5347L23.5997 24.8745H8.9138ZM7.23578 27.359V27.7882H25.4208V27.359H7.23578ZM9.13493 9.08289L9.14795 9.65523H23.4436V9.08289H9.13493Z" fill="#EEEEEE"/>
</svg>
