<svg width="32" height="32" viewBox="0 0 32 32" fill="none" xmlns="http://www.w3.org/2000/svg">
<path d="M6 29.0614V26.3167L7.45688 26.3558V24.0664L8.69263 24.0404L10.6048 21.8941V13.3999C10.3446 13.0617 10.0845 12.7191 9.82432 12.3723C9.56416 12.0254 9.30401 11.6828 9.04385 11.3446C8.84439 11.3446 8.64928 11.349 8.45849 11.3576C8.26771 11.3663 8.07693 11.3663 7.88615 11.3576V7.01301H11.0991V8.54794L13.4015 8.53493V7H18.2534L18.2404 8.52192L20.4518 8.50892V7H23.7298V11.3707L22.8192 11.3446C22.4723 11.6568 22.1688 11.9603 21.9087 12.2552C21.6572 12.5414 21.358 12.8752 21.0111 13.2568V21.9591L23.0143 24.3135L24.0159 24.2745V26.4598H25.4858V29.0614H6ZM12.2308 11.4357C10.5831 11.4357 9.97608 11.6135 10.4097 11.969C10.8519 12.3159 11.3679 12.4893 11.9576 12.4893H19.8794C20.3477 12.4893 20.7596 12.3159 21.1152 11.969C21.4794 11.6135 21.0892 11.4357 19.9445 11.4357H12.2308ZM11.8666 13.3218V22.1672H19.8924L19.9055 13.3218H11.8666ZM11.0341 23.0127L9.77229 24.2745H21.8566L20.7379 23.0127H11.0341ZM8.7967 25.055V26.2387H22.8973V25.055H8.7967ZM7.18372 27.4354V28.2159H24.6403V27.4354H7.18372ZM8.73166 7.78047V10.5251H22.8973V7.76747L21.4274 7.78047L21.4144 9.26337H17.2778V7.78047H14.4811L14.4551 9.28939L10.0845 9.27638L10.1105 7.76747L8.73166 7.78047Z" fill="black"/>
<path d="M12.2308 11.4357C10.5831 11.4357 9.97608 11.6135 10.4097 11.969C10.8519 12.3159 11.3679 12.4893 11.9576 12.4893H19.8794C20.3477 12.4893 20.7596 12.3159 21.1152 11.969C21.4794 11.6135 21.0892 11.4357 19.9445 11.4357H12.2308ZM11.8666 13.3218V22.1672H19.8924L19.9054 13.3218H11.8666ZM11.0341 23.0127L9.77229 24.2745H21.8566L20.7379 23.0127H11.0341ZM8.79669 25.055V26.2387H22.8973V25.055H8.79669ZM7.18372 27.4354V28.2159H24.6403V27.4354H7.18372ZM8.73166 7.78048V10.5251H22.8973V7.76747L21.4274 7.78048L21.4143 9.26338H17.2778V7.78048H14.4811L14.4551 9.28939L10.0845 9.27639L10.1105 7.76747L8.73166 7.78048Z" fill="white"/>
</svg>
