<svg width="180" height="180" viewBox="0 0 180 180" fill="none" xmlns="http://www.w3.org/2000/svg">
<path d="M162.944 171.185H107.488C105.455 171.185 103.613 170.629 101.962 169.52C100.31 168.41 98.8487 167.054 97.5786 165.452L95.8635 163.418L94.3386 161.568L92.8142 160.458C92.4328 160.089 91.8613 159.904 91.0991 159.904L89.9556 160.089L89.1934 160.458C88.5583 160.828 87.732 161.568 86.7161 162.678L84.0476 165.452C82.7775 166.931 81.0624 168.287 78.9024 169.52C76.8696 170.629 74.0745 171.185 70.5172 171.185H19.254L11.25 134.198H61.5606H62.3228H63.2756L65.5627 134.013C65.9436 133.89 66.2614 133.52 66.5156 132.904C66.5156 131.918 65.5628 130.561 63.657 128.835L57.5584 121.993C55.1447 119.034 53.0485 115.52 51.2698 111.452C49.4911 107.384 48.6018 102.452 48.6018 96.6572C48.6018 89.3835 49.9358 83.1572 52.6038 77.9794C55.2718 72.6778 58.3211 68.1165 61.7512 64.2943C65.1814 60.3489 68.2307 57.267 70.8986 55.0478C73.6937 52.8287 75.1545 51.2876 75.2816 50.4245L74.9003 48.7601L74.3287 46.1711L73.5666 43.0273L73.3759 38.7739C73.3759 34.7054 75.2181 31.0068 78.9024 27.678C82.5868 24.226 86.6526 22.5 91.0991 22.5H92.052H93.0049C96.6893 22.8698 100.183 24.7808 103.486 28.2328C106.916 31.6849 108.632 35.8766 108.632 40.8081L108.441 43.3972C108.441 44.3835 108.314 45.1232 108.06 45.6163L107.297 47.6506L106.154 49.8697L109.965 53.0135L113.586 56.1574C120.193 61.9521 125.148 67.9928 128.451 74.2804C131.881 80.568 133.596 88.0886 133.596 96.8423C133.596 101.527 132.643 105.904 130.738 109.972C128.959 113.918 126.926 117.37 124.639 120.328L118.351 128.095C116.826 129.945 115.937 131.547 115.683 132.904C116.191 133.643 116.572 134.013 116.826 134.013L120.066 134.198H121.019H170.948L162.944 171.185ZM154.559 147.328H113.205C109.902 147.328 106.98 146.28 104.439 144.185C101.898 141.965 100.627 139.314 100.627 136.232L100.818 134.383L101.39 132.349C102.152 130.376 103.359 128.219 105.011 125.876L110.347 119.034C111.109 118.047 112.189 116.507 113.586 114.411C114.603 112.931 115.746 111.143 117.016 109.047C119.049 105.349 120.066 101.342 120.066 97.0273C120.066 89.1366 118.478 82.0479 115.301 75.7603C112.252 69.4727 107.361 64.5407 100.627 60.9654C97.3243 67.7464 95.2914 74.5273 94.5293 81.3083L93.5764 97.0273V98.5067V99.6159H80.8082V98.3216C80.8082 93.5134 80.8718 90 80.9989 87.7804C81.2526 85.4381 81.8246 82.5407 82.7139 79.0886C84.4926 72.801 86.4619 67.1299 88.6219 62.0753L93.9577 50.2396C95.355 47.0341 96.1807 44.8766 96.435 43.767V42.8424C96.435 40.6232 95.9271 38.7123 94.9106 37.1095C94.1484 35.3835 92.6235 34.5205 90.3369 34.5205H89.3841C88.2405 34.6438 87.0334 35.3219 85.7633 36.5547C84.4926 37.7876 83.8575 39.3287 83.8575 41.178L84.0476 44.6917L84.8104 47.8355V48.5753L85.0005 49.13L85.3819 51.5341L85.5726 53.9382C85.5726 55.0478 85.3183 56.0341 84.8104 56.8969L82.7139 59.4861L78.5216 63C76.8696 64.2324 75.3452 65.5886 73.9479 67.0686C71.0258 69.7804 68.2942 73.6644 65.7529 78.7191C63.3392 83.7737 62.1321 90.6778 62.1321 99.4314C62.1321 103.499 63.0849 107.198 64.9907 110.527C66.8964 113.732 69.12 116.815 71.6608 119.774L75.0909 124.212L78.3309 128.465L80.2367 132.349L80.9989 136.418C80.9989 140.116 79.7917 142.89 77.3781 144.739C75.0909 146.465 72.2323 147.328 68.8022 147.328H27.6391L29.9259 158.054H72.9951C75.1545 158.054 76.9967 157.499 78.5216 156.39L82.3326 152.322L82.9046 151.766L86.3348 148.253C87.4783 147.143 89.0663 146.589 91.0991 146.589C92.3693 146.589 93.7035 147.143 95.1007 148.253L98.9123 151.582L99.4843 152.322L103.677 156.39C105.074 157.499 106.599 158.054 108.25 158.054H152.081L154.559 147.328Z" fill="url(#paint0_linear_1_96)"/>
<path d="M154.559 147.328H113.205C109.902 147.328 106.98 146.28 104.439 144.184C101.898 141.965 100.627 139.314 100.627 136.232L100.818 134.383L101.39 132.349C102.152 130.376 103.359 128.219 105.01 125.876L110.347 119.034C111.109 118.047 112.189 116.507 113.586 114.411C114.603 112.931 115.746 111.143 117.016 109.047C119.049 105.349 120.066 101.342 120.066 97.0273C120.066 89.1366 118.478 82.0479 115.301 75.7603C112.253 69.4727 107.361 64.5407 100.627 60.9654C97.3243 67.7464 95.2914 74.5273 94.5293 81.3083L93.5764 97.0273V98.5067V99.6159H80.8082V98.3216C80.8082 93.5134 80.8718 90 80.9989 87.7804C81.2526 85.4381 81.8246 82.5407 82.7139 79.0886C84.4926 72.801 86.4619 67.1299 88.6213 62.0752L93.9578 50.2397C95.355 47.0342 96.1808 44.8767 96.435 43.7671V42.8424C96.435 40.6233 95.9265 38.7123 94.9106 37.1096C94.1479 35.3836 92.6235 34.5206 90.3369 34.5206H89.3841C88.2405 34.6439 87.0334 35.3219 85.7633 36.5548C84.4926 37.7877 83.8575 39.3288 83.8575 41.1781L84.0476 44.6917L84.8104 47.8356V48.5753L85.0005 49.1301L85.3819 51.5342L85.5726 53.9383C85.5726 55.0479 85.3183 56.0342 84.8104 56.8969L82.7139 59.4861L78.5211 63C76.8696 64.2324 75.3452 65.5886 73.9474 67.0686C71.0258 69.7804 68.2943 73.6644 65.7529 78.7191C63.3392 83.7737 62.1321 90.6778 62.1321 99.4314C62.1321 103.499 63.0849 107.198 64.9907 110.527C66.8964 113.732 69.12 116.815 71.6608 119.774L75.0909 124.212L78.3309 128.465L80.2367 132.349L80.9989 136.418C80.9989 140.116 79.7918 142.89 77.3781 144.739C75.0909 146.465 72.2323 147.328 68.8022 147.328H27.639L29.9259 158.054H72.9945C75.1545 158.054 76.9967 157.499 78.5211 156.39L82.3326 152.322L82.9046 151.766L86.3348 148.253C87.4783 147.143 89.0663 146.589 91.0991 146.589C92.3693 146.589 93.7035 147.143 95.1008 148.253L98.9123 151.582L99.4843 152.322L103.677 156.39C105.074 157.499 106.599 158.054 108.25 158.054H152.081L154.559 147.328Z" fill="#F5F5F5"/>
<defs>
<linearGradient id="paint0_linear_1_96" x1="11" y1="97" x2="171" y2="97" gradientUnits="userSpaceOnUse">
<stop stop-color="#0F2B56"/>
<stop offset="1" stop-color="#15133C"/>
</linearGradient>
</defs>
</svg>
