<svg width="180" height="180" viewBox="0 0 180 180" fill="none" xmlns="http://www.w3.org/2000/svg">
<path d="M33.7341 168.75V168.374V163.669L34.3054 157.835C34.6862 154.07 35.7017 150.683 37.3519 147.672C39.0021 144.535 41.9852 142.779 46.3011 142.402L52.9655 141.838L60.201 141.085L73.9102 139.768L90.0951 139.203C92.8879 139.203 95.9979 139.266 99.4253 139.391C102.98 139.517 106.661 139.768 110.469 140.144C114.785 140.144 119.291 140.458 123.988 141.085C128.685 141.712 132.684 142.214 135.984 142.59C139.284 142.967 141.76 145.1 143.41 148.989C143.791 149.993 144.298 151.624 144.933 153.883C145.568 156.141 145.885 158.587 145.885 161.222L146.076 164.798V168.185V168.75H33.7341ZM137.126 118.125L137.888 120.76L138.459 123.583L138.84 126.029C138.84 127.033 138.522 128.037 137.888 129.04C137.253 129.919 135.984 130.859 134.08 131.863L110.469 129.605L90.0951 128.664L72.5777 129.229L57.9161 130.546L52.0134 131.299L46.3011 131.863C44.7779 130.985 43.5085 129.856 42.4929 128.476C42.1121 127.723 41.7948 126.406 41.5409 124.523L41.7313 122.642C41.7313 121.763 41.8583 121.074 42.1121 120.571L42.3025 119.442L42.6833 118.501L43.2546 115.49L43.6354 112.667C43.6354 110.785 43.1277 109.28 42.1121 108.151C41.3505 106.77 40.2081 105.453 38.6848 104.199L36.0191 101.94L32.9725 99.3054C30.5607 97.1724 28.1488 94.4122 25.737 91.0249C23.579 87.5115 22.5 82.9946 22.5 77.4743C22.5 68.8174 25.4196 61.4149 31.2588 55.2672C37.098 48.994 44.0797 45.8574 52.2038 45.8574C59.3122 45.8574 65.088 47.1747 69.5312 49.8095C73.4659 52.0679 76.8302 54.8908 79.6224 58.2784L80.0038 58.8431C82.0344 61.227 83.5577 63.5479 84.5736 65.8063C85.716 68.0648 86.7949 69.6954 87.8102 70.6995L88.9526 71.8284L90.0951 72.0169L90.8567 71.8284L91.809 70.8874L94.4747 65.9942C95.3634 63.8617 96.7596 61.4779 98.6636 58.8431L99.0444 58.2784C101.583 55.1418 105.137 52.3188 109.707 49.8095C114.277 47.1747 120.814 45.8574 129.319 45.8574C137.316 45.8574 143.981 48.743 149.312 54.5144C154.771 60.1605 157.5 67.8139 157.5 77.4743C157.5 82.242 156.358 86.3196 154.073 89.7075C151.915 92.9694 149.63 95.9175 147.218 98.5522L144.933 100.811L142.838 103.069L138.649 108.903C137.507 110.785 136.936 112.856 136.936 115.114L137.126 118.125ZM60.5818 88.578L61.1528 89.7075L62.6766 92.5301L64.9614 95.1649L67.2463 98.3644C68.0079 99.3679 68.5789 100.434 68.9597 101.564L69.1504 102.505L69.3405 103.258V104.199L69.5312 104.951L70.1021 107.962C70.4829 108.715 71.118 109.092 72.0062 109.092C72.6412 109.092 73.2757 108.715 73.9102 107.962L74.4818 105.14V104.01V102.881C74.4818 102.003 74.3546 101.313 74.1009 100.811L73.5294 98.7407L72.387 96.2944L71.2446 93.8475L69.5312 89.8954L68.3887 85.7554L68.0079 84.6259L66.4847 82.7438C66.1039 82.3674 65.3422 82.0541 64.1998 81.8032C63.5647 81.8032 62.8667 82.1796 62.1051 82.9322L60.9626 85.3785C60.8355 86.0063 60.7089 86.3826 60.5818 86.508V87.4491V88.578ZM119.037 86.508L118.847 85.3785L117.514 82.9322C117.133 82.1796 116.499 81.8032 115.61 81.8032C114.721 81.8032 113.896 82.1166 113.135 82.7438L111.802 84.6259L111.421 85.3785L110.088 89.5191L108.565 93.2827L107.232 96.1059L106.28 98.7407L105.518 100.811L105.328 102.881V104.01V105.14L105.899 107.962C106.28 108.715 106.915 109.092 107.803 109.092C108.565 109.092 109.136 108.653 109.517 107.774L110.279 104.951L110.469 103.822V102.505L110.85 101.564L112.564 98.3644L114.848 95.1649L116.943 92.5301L118.657 89.7075L119.037 88.578L119.228 87.4491L119.037 86.508ZM99.6159 20.0743C102.027 22.2073 103.233 25.1557 103.233 28.9196C103.233 30.9271 102.599 33.75 101.329 37.3885L97.1404 48.8685C96.8867 49.8722 96.5689 50.625 96.1881 51.1269L95.4264 53.197L92.3799 60.1605L89.9049 65.8063L87.2393 59.9721C86.6042 57.9645 86.0968 56.5847 85.716 55.8318C84.9544 54.4517 84.4464 53.5107 84.1927 53.0088L83.4311 50.9387L82.4788 48.8685L78.48 37.9531C77.3376 34.5656 76.7666 31.868 76.7666 29.8606V28.7314L76.9568 27.6022C77.3376 24.9675 78.6071 22.5209 80.7654 20.2625C83.0503 18.0042 86.0968 16.875 89.9049 16.875C94.0939 16.875 97.3305 17.9414 99.6159 20.0743Z" fill="url(#paint0_linear_1_99)"/>
<defs>
<linearGradient id="paint0_linear_1_99" x1="22" y1="93" x2="157" y2="93" gradientUnits="userSpaceOnUse">
<stop stop-color="#0F2B56"/>
<stop offset="1" stop-color="#15133C"/>
</linearGradient>
</defs>
</svg>
