<svg width="180" height="180" viewBox="0 0 180 180" fill="none" xmlns="http://www.w3.org/2000/svg">
<path d="M40.4637 168.75V165.396L40.6451 162.043C40.6451 159.062 41.0081 156.143 41.7338 153.287C42.5806 150.306 43.7903 147.263 45.3629 144.158C47.9032 138.569 52.9234 134.283 60.4232 131.303C60.4232 127.577 61.9959 124.285 65.1409 121.429L75.6653 113.604L76.7542 112.858L77.8427 112.113L86.9153 105.22C89.5764 102.86 90.9073 100.127 90.9073 97.0222L90.3628 94.2278C90 93.4824 89.0325 93.0476 87.4597 92.9233L85.8268 93.4824L84.5567 94.7869L83.1049 96.6499L81.8347 98.5129L79.6573 101.121L76.9354 103.17C75.8469 103.667 74.7579 104.164 73.6695 104.661C73.4276 104.785 72.2784 105.158 70.2219 105.779L64.4153 107.642C62.4797 108.138 60.8467 108.822 59.5159 109.691C58.3065 110.436 57.5809 111.492 57.3384 112.858C57.2175 114.1 57.0966 114.783 56.9756 114.907L56.4317 116.026C55.4637 117.019 53.7702 118.199 51.3508 119.566C49.0524 120.559 46.633 121.056 44.0927 121.056C39.375 121.056 35.625 119.254 32.8427 115.653C30.0605 112.051 28.4879 108.076 28.125 103.729V102.611C28.125 97.8919 29.2137 93.5443 31.3911 89.5703C32.6008 87.3343 33.75 85.4094 34.8387 83.7945C35.9274 82.0558 37.2581 80.2547 38.8307 78.3917L41.9153 74.4795L44.8185 70.3806C45.7863 69.0143 46.3911 68.0827 46.6331 67.5861C46.996 66.8407 47.4193 65.8474 47.9032 64.6048C48.508 63.3628 48.9314 62.3076 49.1734 61.4379C49.4153 60.444 49.5363 59.2644 49.5363 57.8981C49.5363 55.9108 50.2016 54.2341 51.5323 52.8679L56.6128 48.2102L57.3384 47.6513L58.2458 47.0923L63.8708 42.0621C65.8063 40.0749 66.7744 38.0255 66.7744 35.914L67.1372 33.3057C67.1372 31.9395 67.2581 30.5732 67.5 29.207C67.8628 27.8408 68.4073 26.4745 69.1329 25.1083C69.9801 23.7421 71.2502 22.8726 72.9433 22.5C74.5161 23.3694 76.149 24.7978 77.8427 26.785L83.1049 32.9331C84.9195 35.5414 86.8551 37.9012 88.911 40.0128C91.0884 42 93.3266 43.3041 95.625 43.9252C95.9878 44.0494 96.9559 44.3599 98.5281 44.8567C100.222 45.2293 102.157 45.7882 104.335 46.5334C109.052 47.8997 114.133 50.57 119.577 54.5446C125.141 58.3948 130.464 64.2324 135.544 72.0574C140.625 79.758 143.165 90.1288 143.165 103.17C143.165 105.779 143.105 108.201 142.984 110.436C142.863 112.672 142.621 114.783 142.258 116.77L140.081 127.577L139.355 129.626L138.81 131.675C145.343 136.022 149.153 141.052 150.242 146.766C151.33 152.479 151.875 158.752 151.875 165.583V167.259V168.75H40.4637ZM138.448 155.522C138.448 151.423 136.815 148.443 133.548 146.58C131.976 145.586 130.343 144.779 128.649 144.158C126.956 143.537 124.536 142.729 121.391 141.736L120.847 141.549L117.036 140.618L113.77 140.059L105.423 139.5H98.3469H96.7134H95.2622H94.536H93.8104L86.7341 139.686L77.2982 140.245L73.3067 140.804L69.6774 141.549C65.4435 142.667 61.7541 144.22 58.6091 146.207C55.4637 148.07 53.8911 151.175 53.8911 155.522H138.448ZM121.573 74.8519C115.766 67.0269 109.355 61.2517 102.338 57.5252C100.161 56.2832 97.8632 55.2898 95.4433 54.5446C93.024 53.7994 90.6654 53.4268 88.3671 53.4268C87.6409 53.4268 86.7336 52.8679 85.6451 51.75L82.5604 48.0239L82.1976 47.6513L78.75 43.1799C77.7825 42.1863 76.8752 41.5653 76.0281 41.3169L75.3024 41.6895C74.9396 44.2978 74.0925 46.5334 72.7622 48.3965C71.4313 50.2595 69.9801 51.8742 68.4073 53.2405L63.6896 56.9666C62.4797 57.8363 61.6933 58.8296 61.3305 59.9473C60.1211 64.2943 58.7902 68.0209 57.3384 71.1259L52.9838 79.5094C50.9274 82.7387 48.9314 85.5332 46.9959 87.8934C45.1814 90.1288 43.7903 92.1786 42.8226 94.0416L41.371 97.0222L41.008 99.8167V100.934L41.1895 102.053C41.4314 103.667 41.9153 105.033 42.6411 106.151C43.3669 107.269 44.4556 107.828 45.9073 107.828L47.5403 107.642L48.8105 106.896L50.2621 105.406L52.621 102.798L52.9838 102.425L53.7096 101.867L56.7945 100.003L60.7866 98.1399L66.5927 95.9046L69.8591 94.9731C70.7057 94.8487 71.2502 94.7244 71.4921 94.6001L72.9433 93.1101L74.9396 90.5017L77.2982 87.3343L81.6531 82.1177C83.4677 80.5033 85.4032 79.6961 87.4597 79.6961H88.5482C91.4518 79.6961 94.113 80.8138 96.5323 83.0492C98.9516 85.2851 100.887 87.831 102.338 90.6879L103.427 93.6686L103.79 96.4631C103.79 102.425 102.399 106.959 99.6171 110.064C96.9559 113.045 93.9313 115.653 90.5445 117.889L86.0079 120.31C84.3143 120.931 83.0441 121.615 82.1976 122.36L78.5683 124.782C77.9636 125.403 77.5401 126.397 77.2982 127.763L85.2823 126.831C88.5482 126.458 93.1449 126.272 99.0726 126.272L113.952 126.831C115.403 126.831 116.794 126.893 118.125 127.018C119.577 127.018 122.177 127.266 125.927 127.763C127.379 125.403 128.589 121.615 129.557 116.398C129.799 114.783 129.98 112.299 130.101 108.946C130.222 105.468 130.282 102.736 130.282 100.748C130.282 91.5576 127.379 82.9254 121.573 74.8519Z" fill="url(#paint0_linear_1_106)"/>
<path d="M138.448 155.522C138.448 151.423 136.815 148.443 133.549 146.58C131.976 145.586 130.343 144.779 128.649 144.158C126.956 143.537 124.536 142.729 121.391 141.735L120.847 141.549L117.037 140.618L113.77 140.059L105.424 139.5H98.3469H96.714H95.2622H94.5366H93.8104L86.7341 139.686L77.2987 140.245L73.3067 140.804L69.6774 141.549C65.4435 142.667 61.7541 144.22 58.6091 146.207C55.4639 148.07 53.8913 151.175 53.8913 155.522H138.448ZM121.573 74.8519C115.766 67.0269 109.355 61.2517 102.339 57.5252C100.162 56.2832 97.8632 55.2898 95.4439 54.5446C93.0246 53.7993 90.6654 53.4268 88.3671 53.4268C87.6414 53.4268 86.7341 52.8679 85.6451 51.75L82.5604 48.0238L82.1976 47.6512L78.75 43.1799C77.7825 42.1863 76.8752 41.5653 76.0286 41.3168L75.3024 41.6895C74.9396 44.2977 74.0931 46.5334 72.7622 48.3965C71.4319 50.2595 69.9801 51.8741 68.4073 53.2404L63.6896 56.9666C62.4797 57.8357 61.6939 58.8296 61.3311 59.9473C60.1211 64.2943 58.7902 68.0209 57.339 71.1259L52.984 79.5094C50.9276 82.7387 48.9316 85.5332 46.9961 87.8934C45.1816 90.1288 43.7905 92.1786 42.8227 94.0416L41.3711 97.0222L41.0082 99.8167V100.934L41.1897 102.053C41.4316 103.667 41.9155 105.033 42.6413 106.151C43.3671 107.269 44.4558 107.828 45.9074 107.828L47.5405 107.642L48.8107 106.896L50.2622 105.406L52.6211 102.798L52.984 102.425L53.7098 101.866L56.7945 100.003L60.7866 98.1399L66.5927 95.9046L69.8591 94.9731C70.7057 94.8487 71.2502 94.7244 71.4921 94.6001L72.9439 93.1101L74.9396 90.5017L77.2987 87.3343L81.6536 82.1177C83.4677 80.5033 85.4033 79.6956 87.4598 79.6956H88.5488C91.4518 79.6956 94.113 80.8138 96.5323 83.0492C98.9516 85.2851 100.887 87.831 102.339 90.6879L103.427 93.6686L103.79 96.4631C103.79 102.425 102.399 106.959 99.6171 110.064C96.9559 113.044 93.9319 115.653 90.5445 117.889L86.0085 120.31C84.3148 120.931 83.0447 121.615 82.1976 122.36L78.5689 124.782C77.9636 125.403 77.5406 126.397 77.2987 127.763L85.2823 126.831C88.5487 126.458 93.1455 126.272 99.0726 126.272L113.952 126.831C115.404 126.831 116.795 126.893 118.125 127.018C119.577 127.018 122.178 127.266 125.927 127.763C127.379 125.403 128.589 121.615 129.557 116.398C129.799 114.783 129.98 112.299 130.101 108.946C130.222 105.468 130.282 102.736 130.282 100.748C130.282 91.557 127.379 82.9249 121.573 74.8519Z" fill="#F5F5F5"/>
<defs>
<linearGradient id="paint0_linear_1_106" x1="28" y1="96" x2="152" y2="96" gradientUnits="userSpaceOnUse">
<stop stop-color="#0F2B56"/>
<stop offset="1" stop-color="#15133C"/>
</linearGradient>
</defs>
</svg>
