<svg width="180" height="180" viewBox="0 0 180 180" fill="none" xmlns="http://www.w3.org/2000/svg">
<path d="M33.75 168.75C33.75 160.465 34.2568 153.499 35.2703 147.85C36.4105 142.076 40.1478 136.491 46.4822 131.093L52.5634 84.3986L51.2331 82.8922L49.9029 81.1974L46.8623 77.2436L44.3919 72.7251C44.2652 72.0973 44.1385 71.7204 44.0119 71.595L43.6317 70.2771C42.8716 68.1435 42.3015 65.9464 41.9215 63.6874L41.5414 55.9676L41.7314 49.3776L42.6816 42.0345C46.3556 40.2772 50.0929 39.022 53.8936 38.2688L63.9653 36.9508L67.9562 45.6119H76.8876L79.1679 34.5031L84.8689 33.9383L90.5704 33.75H92.4705L94.3706 33.9383L98.1714 34.1266L101.972 34.5031L103.682 45.6119H112.234L115.655 37.1391L117.555 37.3274H119.455L128.767 39.022C131.934 39.6496 134.785 40.6538 137.319 42.0345L138.079 46.3651L138.269 51.6371L138.079 54.8378V58.2272L137.319 64.0637C137.192 65.1938 137.129 66.3233 137.129 67.4528C136.748 68.3314 136.495 68.9591 136.369 69.336L135.988 70.0892L134.468 73.6661L132.947 76.4904L130.477 80.2564L127.437 84.3986L133.708 131.093C139.409 135.235 142.893 140.633 144.16 147.286C145.553 153.938 146.25 161.093 146.25 168.75H33.75ZM132.188 155.382C132.188 151.114 130.477 148.101 127.056 146.344C123.763 144.461 119.202 142.704 113.374 141.072L108.053 139.943L101.212 139.377L95.7009 139.19H91.1402L85.6294 139.377C84.2355 139.377 82.9052 139.377 81.6384 139.377C80.3717 139.377 78.7247 139.503 76.6974 139.754L69.6662 140.319C68.6531 140.444 67.7025 140.507 66.816 140.507C66.3092 140.633 65.4857 140.884 64.3455 141.261C60.0379 142.139 56.1739 143.583 52.7534 145.591C49.4594 147.599 47.8125 150.863 47.8125 155.382H132.188ZM115.274 90.9883C113.501 90.3611 111.094 89.7334 108.053 89.1056L99.6919 87.9761L94.7509 87.5993L90.3803 87.4108C86.9597 87.4108 83.8558 87.4738 81.0686 87.5993C78.2814 87.7247 75.3671 88.0386 72.3268 88.5409C69.4131 89.0426 66.9426 89.8588 64.9153 90.9883L60.3546 127.892L74.6072 126.386L91.3303 125.821L107.483 126.386C110.017 126.386 111.981 126.511 113.374 126.763C114.768 126.888 116.985 127.265 120.025 127.892L115.274 90.9883ZM102.542 60.6746L98.5517 49.9425L94.1805 49.1893L90 49.0011L86.1992 49.3776L82.3989 49.9425L78.0278 60.6746H66.4357L62.0651 50.3191L61.3046 50.1307H60.5447L58.6446 50.5073L56.7439 51.0722L55.7939 51.4487L54.8438 51.8253V52.5784C54.8438 56.8462 54.9705 59.796 55.2238 61.4278C55.4772 62.9342 56.1107 65.0678 57.1241 67.8296C58.7711 72.2228 61.1151 75.1725 64.1554 76.6789L78.2179 74.7962L90 74.043C91.7736 74.043 93.4206 74.043 94.941 74.043C96.588 74.043 98.3616 74.1684 100.262 74.4193C103.809 74.4193 106.913 74.7332 109.573 75.3609L113.184 75.9257L116.795 76.6789C119.582 75.1725 121.546 72.6621 122.686 69.1476C123.193 67.5158 123.573 65.8209 123.826 64.0637C124.206 62.3064 124.523 60.1723 124.776 57.6619L124.966 54.6496V51.8253L123.066 51.0722L120.786 50.5073L119.265 50.3191L117.745 50.1307L113.374 60.6746H102.542Z" fill="url(#paint0_linear_1_121)"/>
<path d="M132.188 155.382C132.188 151.114 130.477 148.102 127.056 146.344C123.763 144.461 119.202 142.704 113.374 141.072L108.053 139.943L101.212 139.377L95.7009 139.19H91.1402L85.6294 139.377C84.2355 139.377 82.9052 139.377 81.6384 139.377C80.3717 139.377 78.7247 139.503 76.6974 139.754L69.6662 140.319C68.6531 140.444 67.7025 140.507 66.816 140.507C66.3092 140.633 65.4857 140.884 64.3455 141.261C60.0379 142.139 56.174 143.583 52.7534 145.591C49.4594 147.599 47.8125 150.863 47.8125 155.382H132.188ZM115.275 90.9883C113.501 90.3611 111.094 89.7334 108.053 89.1056L99.6919 87.9761L94.7509 87.5993L90.3803 87.4114C86.9597 87.4114 83.8558 87.4738 81.0686 87.5993C78.2814 87.7247 75.3677 88.0386 72.3268 88.5409C69.4131 89.0432 66.9426 89.8588 64.9153 90.9883L60.3546 127.892L74.6072 126.386L91.3303 125.821L107.483 126.386C110.017 126.386 111.981 126.511 113.374 126.763C114.768 126.888 116.985 127.265 120.025 127.892L115.275 90.9883ZM102.542 60.6746L98.5517 49.9425L94.1805 49.1894L90 49.0011L86.1992 49.3777L82.3989 49.9425L78.0278 60.6746H66.4357L62.0651 50.3191L61.3052 50.1308H60.5447L58.6446 50.5074L56.7439 51.0722L55.7939 51.4488L54.8438 51.8253V52.5785C54.8438 56.8463 54.9705 59.796 55.2238 61.4278C55.4772 62.9342 56.1107 65.0678 57.1241 67.8296C58.7711 72.2228 61.1151 75.1725 64.1554 76.6789L78.2179 74.7962L90 74.043C91.7736 74.043 93.4206 74.043 94.941 74.043C96.588 74.043 98.3616 74.1684 100.262 74.4193C103.809 74.4193 106.913 74.7332 109.573 75.3609L113.184 75.9257L116.795 76.6789C119.582 75.1725 121.546 72.6621 122.686 69.1476C123.193 67.5158 123.573 65.8209 123.826 64.0637C124.206 62.3064 124.523 60.1729 124.776 57.6624L124.966 54.6496V51.8253L123.066 51.0722L120.786 50.5074L119.265 50.3191L117.745 50.1308L113.374 60.6746H102.542Z" fill="#F5F5F5"/>
<defs>
<linearGradient id="paint0_linear_1_121" x1="34" y1="101" x2="146" y2="101" gradientUnits="userSpaceOnUse">
<stop stop-color="#0F2B56"/>
<stop offset="1" stop-color="#15133C"/>
</linearGradient>
</defs>
</svg>
