<svg width="256" height="256" viewBox="0 0 256 256" fill="none" xmlns="http://www.w3.org/2000/svg">
<path fill-rule="evenodd" clip-rule="evenodd" d="M63.8247 233.859C63.906 236.797 66.935 235.933 66.935 235.933H195.494C178.006 223.482 167.359 222.18 157.134 220.381C181.717 198.234 184.603 161.336 184.09 144.519C183.577 127.702 172.03 95.673 141.807 68.7641C144.189 63.653 144.83 57.706 143.289 53.0181C141.748 48.3302 135.394 41.3785 126.031 41.0205C110.355 40.4209 106.821 53.1528 106.332 58.6455C105.844 64.1382 108.836 72.8193 116.7 78.3441C124.563 83.8689 147.014 99.6854 142.619 142.624C138.224 185.562 110.942 198.269 92.8542 210.013C74.7663 221.758 63.6826 228.725 63.8247 233.859ZM105.295 78.3441C107.778 77.566 94.5536 88.5054 90.7806 103.226C87.0077 117.947 98.5393 134.971 105.295 148.844C112.051 162.718 112.05 180.874 102.185 188.241C92.3198 195.609 70.3927 194.558 61.7512 157.138C59.434 147.039 63.1557 137 63.8247 133.293C72.3348 142.485 78.7242 155.493 82.4865 165.432C86.7543 159.687 83.178 149.745 80.413 140.55C77.6479 131.355 74.0791 123.353 70.0454 117.741C77.6512 93.1559 103.186 79.0046 105.295 78.3441Z" fill="#2D132C"/>
</svg>
