<svg width="256" height="256" viewBox="0 0 256 256" fill="none" xmlns="http://www.w3.org/2000/svg">
<path fill-rule="evenodd" clip-rule="evenodd" d="M167.453 186.182C176.47 189.569 181.639 214.897 181.639 214.897C181.639 214.897 169.645 228.711 127.905 228.711C86.164 228.711 73.9771 215.19 73.9771 215.19C73.9019 214.867 79.3289 189.505 88.3563 186.182C45.1186 185.179 32 154.418 32 127.848C32 101.279 56.3953 76.2634 100.221 82.3676C102.155 69.1361 113.869 57.6499 123.95 57.6499V128.837C123.95 128.837 121.876 144.816 107.26 147.739C92.6443 150.663 91.5696 143.137 81.4354 139.713C71.3011 136.289 59.082 139.377 57.7064 159.487C56.3308 179.596 73.8482 185.841 90.3338 184.204C90.6132 184.29 165.282 184.14 165.475 184.204C181.961 185.841 199.478 179.596 198.103 159.487C196.727 139.377 184.508 136.288 174.374 139.713C164.24 143.138 163.165 150.663 148.549 147.739C133.934 144.816 131.86 128.837 131.86 128.837V57.6499C141.94 57.6499 153.654 69.1361 155.588 82.3676C199.414 76.2613 223.809 101.282 223.809 127.848C223.809 154.414 210.687 185.179 167.453 186.182ZM153.611 52.7064H101.21C101.21 52.7064 101.07 44.9031 102.198 43.808C103.327 42.7129 121.972 42.8193 121.972 42.8193V27H132.848V42.8193C132.848 42.8193 151.494 42.7119 152.622 43.808C153.751 44.9042 153.611 52.7064 153.611 52.7064V52.7064Z" fill="#2D132C" stroke="#2D132C" stroke-linejoin="round"/>
</svg>
