<svg width="256" height="256" viewBox="0 0 256 256" fill="none" xmlns="http://www.w3.org/2000/svg">
<path fill-rule="evenodd" clip-rule="evenodd" d="M167.716 185.315C176.683 188.682 176.544 204.725 162.339 215.873C148.519 226.733 140.674 227.812 128.383 227.609C116.091 227.812 108.246 226.733 94.4257 215.873C80.2209 204.725 80.082 188.682 89.0495 185.315C46.0504 184.321 33 153.721 33 127.299C33 100.878 57.2625 75.9953 100.849 82.0662C102.773 68.9089 114.424 57.4831 124.449 57.4831V128.282C124.449 128.282 122.386 144.176 107.85 147.083C93.3142 149.99 92.256 142.509 82.1663 139.099C72.0765 135.689 59.9345 138.768 58.5664 158.765C57.1983 178.763 74.6203 184.973 91.0162 183.349C100.817 182.369 110.672 182.041 120.516 182.365C114.701 185.796 105.766 190.243 105.766 203.998C105.766 217.754 118.164 223.441 128.383 223.665C138.601 223.441 150.999 217.754 150.999 203.998C150.999 190.243 142.064 185.796 136.249 182.365C146.093 182.041 155.948 182.369 165.749 183.349C182.145 184.973 199.567 178.763 198.199 158.765C196.83 138.768 184.689 135.689 174.599 139.099C164.509 142.509 163.451 149.99 148.915 147.083C134.379 144.176 132.316 128.282 132.316 128.282V57.4831C142.342 57.4831 153.992 68.9089 155.916 82.0662C199.503 75.9953 223.765 100.878 223.765 127.299C223.765 153.721 210.715 184.321 167.716 185.315ZM153.949 52.5664H101.833C101.833 52.5664 101.694 44.8067 102.816 43.7165C103.938 42.6263 122.483 42.7332 122.483 42.7332V27H133.299V42.7332C133.299 42.7332 151.843 42.6263 152.966 43.7165C154.088 44.8067 153.949 52.5664 153.949 52.5664Z" fill="#C6E377" stroke="#36622B" stroke-width="4" stroke-linecap="square" stroke-linejoin="round"/>
</svg>
