<svg width="256" height="256" viewBox="0 0 256 256" fill="none" xmlns="http://www.w3.org/2000/svg">
<path fill-rule="evenodd" clip-rule="evenodd" d="M61.5124 236.438H194.047C195.139 213.565 217.207 194.961 217.562 160.551C217.917 126.141 197.082 71.4254 112.816 73.9756C89.1951 62.7432 77.0468 62.4525 66.8565 63.2873C71.216 71.6753 75.1267 80.289 78.572 89.0921C81.6096 97.1415 79.6323 106.549 74.1246 116.115C68.6169 125.681 47.4947 154.245 39.3427 179.273C35.745 190.029 61.5915 201.424 64.7189 202.235C66.6321 202.591 63.0333 203.475 74.5072 190.618C85.9811 177.761 95.2992 173.39 110.601 168.291C121.23 164.749 132.438 160.3 142.744 119.935C143.481 117.691 138.148 114.247 137.399 116.729C131.996 126.947 123.853 135.46 113.885 141.312C108.398 144.726 86.0057 149.073 75.4072 163.757C64.8087 178.442 64.612 181.031 63.65 184.065C62.6881 187.1 49.5853 179.576 49.7552 175.515C49.9252 171.453 53.6362 160.676 59.3747 155.207C65.1133 149.738 81.8897 139.42 88.2332 127.417C94.5767 115.414 102.86 100.624 89.302 78.2509C101.254 78.6378 112.647 87.8576 117.092 90.0081C124.421 93.5534 147.737 96.8881 157.707 107.109C167.677 117.331 174.785 138.235 152.077 160.837C129.368 183.44 92.3738 180.333 61.5124 236.438Z" fill="#2D132C"/>
</svg>
