<svg width="256" height="256" viewBox="0 0 256 256" fill="none" xmlns="http://www.w3.org/2000/svg">
<path fill-rule="evenodd" clip-rule="evenodd" d="M61.5124 228.438H194.047C195.139 205.565 217.207 186.961 217.562 152.551C217.917 118.141 197.082 63.4254 112.816 65.9756C89.1951 54.7432 77.0468 54.4525 66.8565 55.2873C71.216 63.6753 75.1267 72.289 78.572 81.0921C81.6096 89.1415 79.6323 98.5493 74.1246 108.115C68.6169 117.681 47.4946 146.245 39.3427 171.273C35.745 182.029 61.5915 193.424 64.7189 194.235C66.6321 194.591 63.0333 195.475 74.5072 182.618C85.9811 169.761 95.2992 165.39 110.601 160.291C121.23 156.749 132.438 152.3 142.744 111.935C143.481 109.691 138.148 106.247 137.399 108.729C131.996 118.947 123.853 127.46 113.885 133.312C108.398 136.726 86.0057 141.073 75.4072 155.757C64.8087 170.442 64.612 173.031 63.65 176.065C62.6881 179.1 49.5853 171.576 49.7552 167.515C49.9252 163.453 53.6362 152.676 59.3747 147.207C65.1133 141.738 81.8897 131.42 88.2332 119.417C94.5767 107.414 102.86 92.6237 89.302 70.2509C101.254 70.6378 112.647 79.8576 117.092 82.0081C124.421 85.5534 147.737 88.8881 157.707 99.1094C167.677 109.331 174.785 130.235 152.077 152.837C129.368 175.44 92.3738 172.333 61.5124 228.438Z" fill="#2D132C"/>
</svg>
