<svg width="256" height="256" viewBox="0 0 256 256" fill="none" xmlns="http://www.w3.org/2000/svg">
<path fill-rule="evenodd" clip-rule="evenodd" d="M127.759 40.0002C136.528 39.9845 145.28 40.7809 153.903 42.3794C154.908 42.5686 155.682 69.4465 155.682 69.4465L165.836 70.4619C165.836 70.4619 164.836 44.9169 166.739 45.4962C192.789 53.3617 210.513 68.8672 210.513 86.7082C210.326 87.2191 211.205 152.8 211.205 152.8C210.936 156.989 196.584 166.214 173.099 162.144C190.201 147.091 188.585 136.642 190.201 85.6928L185.124 83.662C185.124 83.662 182.772 114.746 182.078 114.124C174.678 107.497 153.993 103.222 132.163 102.789C131.993 102.773 131.308 65.385 131.308 65.385H125.216C125.216 65.385 123.218 102.571 123.225 102.827C103.722 103.392 84.6152 107.15 74.4463 115.139L70.3847 82.6466L65.3078 86.7082L69.3694 137.478C114.278 110.606 176.351 160.045 184.99 228.382C185.246 228.393 71.4001 227.847 71.4001 227.847V163.878C60.4981 163.878 45 157.928 45 150.678V86.7082C45 68.7251 63.0055 53.1169 89.395 45.3102C90.7428 44.9115 90.6925 70.4619 90.6925 70.4619L100.846 68.4311C100.846 68.4311 100.933 42.4949 102.751 42.17C111.007 40.7125 119.375 39.9865 127.759 40.0002Z" fill="#2D132C"/>
</svg>
