<svg width="181" height="180" viewBox="0 0 181 180" fill="none" xmlns="http://www.w3.org/2000/svg">
<path d="M90.1317 158.719C85.7936 164.991 79.9314 168.128 72.545 168.128C71.7829 168.128 71.0208 168.098 70.2587 168.04C69.5552 167.923 68.8518 167.835 68.1483 167.776C66.4483 167.717 63.9568 167.424 60.674 166.897C57.3911 166.31 53.7272 164.991 49.6823 162.94C46.1063 159.833 41.5631 158.279 36.0526 158.279C31.8318 158.279 28.1679 159.276 25.0609 161.269C24.1815 161.679 23.097 162.529 21.8073 163.819C19.4624 166.34 17.5572 167.717 16.0917 167.952C14.9192 167.366 14.3037 166.369 14.245 164.962C13.9519 162.207 15.9744 158.66 20.3125 154.322C19.5504 154.439 18.1141 154.791 16.0037 155.377C14.245 155.905 13.0726 156.169 12.4864 156.169C10.5518 156.462 9.52594 156.491 9.40869 156.257C8.76385 155.612 8.99835 154.293 10.1122 152.3C11.0501 150.6 12.8674 149.105 15.564 147.815C15.9158 147.639 17.0296 147.141 18.9055 146.32C24.3574 143.448 30.0731 142.011 36.0526 142.011C44.7873 142.011 52.672 144.972 59.7067 150.893C62.5206 151.831 65.3637 152.3 68.2362 152.3C77.0296 152.3 81.5728 148.665 81.8659 141.396C76.1796 140.868 71.4312 139.901 67.6207 138.494C63.8689 137.087 61.993 135.446 61.993 133.57L69.0276 110.179C64.9241 103.731 61.524 97.1655 58.8274 90.4825C56.1307 83.7996 54.7824 77.4683 54.7824 71.4888C54.7824 53.5504 64.5137 39.7742 83.9763 30.1601C83.9763 29.398 84.0642 28.2549 84.2401 26.7307C82.2469 25.0892 81.2503 23.0081 81.2503 20.4874C81.2503 15.0941 83.9763 12.3975 89.4281 12.3975C94.8214 12.3975 97.5181 15.0941 97.5181 20.4874C97.5181 22.8323 96.668 24.7961 94.968 26.3789C94.968 28.1962 95.2024 29.4273 95.6714 30.0721C96.668 31.4791 97.987 32.2119 99.6284 32.2705C101.328 32.2119 102.735 31.4498 103.849 29.9842C104.084 29.6325 104.318 28.548 104.553 26.7307C103.029 25.1479 102.266 23.184 102.266 20.8391C102.266 15.3286 105.022 12.5734 110.532 12.5734C116.043 12.5734 118.798 15.3286 118.798 20.8391C118.798 23.9461 117.45 26.3496 114.753 28.0497C114.519 29.2221 114.46 30.1601 114.577 30.8636C124.484 42.588 128.793 56.1298 127.503 71.4888C127.093 75.8855 126.419 80.2236 125.481 84.503C124.543 88.7238 122.902 92.7102 120.557 96.462C119.677 98.4551 118.3 100.712 116.424 103.233C114.606 105.695 113.024 108.01 111.675 110.179L118.622 133.57C118.563 135.446 116.629 137.087 112.818 138.494C109.008 139.901 104.201 140.868 98.3974 141.396C98.6905 148.665 103.263 152.3 112.115 152.3C114.988 152.3 117.831 151.831 120.645 150.893C127.621 144.972 135.505 142.011 144.299 142.011C150.278 142.011 155.965 143.448 161.358 146.32C162.061 146.672 162.677 146.965 163.204 147.2C163.732 147.434 164.26 147.639 164.787 147.815C167.425 149.163 169.243 150.658 170.239 152.3C170.415 152.827 170.679 153.501 171.03 154.322C171.382 155.143 171.353 155.788 170.943 156.257C170.767 156.491 169.741 156.462 167.865 156.169C167.279 156.169 166.106 155.905 164.348 155.377C162.179 154.791 160.713 154.439 159.951 154.322C164.289 158.719 166.341 162.265 166.106 164.962C165.989 166.31 165.344 167.307 164.172 167.952C162.706 167.717 160.801 166.34 158.456 163.819C157.284 162.647 156.228 161.797 155.29 161.269C152.008 159.276 148.344 158.279 144.299 158.279C138.671 158.279 134.098 159.833 130.581 162.94C126.536 164.991 122.872 166.31 119.589 166.897C116.307 167.424 113.844 167.717 112.203 167.776C111.499 167.835 110.767 167.923 110.005 168.04C109.243 168.098 108.51 168.128 107.806 168.128C100.244 168.128 94.3524 164.991 90.1316 158.719H90.1317Z" fill="#191A19"/>
<path d="M123.195 75.2698C124.015 72.1042 123.107 66.2127 120.469 57.5952C117.831 48.9777 113.727 41.7672 108.158 35.9636C107.455 35.436 106.722 35.2015 105.96 35.2601C104.963 35.3187 104.025 35.729 103.146 36.4911C102.266 37.2532 102.149 38.1619 102.794 39.2171C109.653 43.731 114.782 50.0036 118.183 58.0348C121.583 66.0075 123.253 71.7525 123.195 75.2698Z" fill="#4E9F3D"/>
<path d="M105.784 69.7301V59.8815H95.2318V46.1639H85.4712V59.8815H74.7433V69.7301H85.4712V89.3392H95.2318V69.7301H105.784Z" fill="#4E9F3D"/>
<path d="M106.751 104.64L108.334 110.707C103.351 109.241 97.2836 108.509 90.1317 108.509C83.4487 108.509 77.5572 109.183 72.457 110.531L74.2157 104.464C78.9055 103.291 84.2108 102.705 90.1317 102.705C96.5802 102.705 102.12 103.35 106.751 104.64Z" fill="#4E9F3D"/>
<path d="M97.694 151.772C99.394 153.648 100.713 154.879 101.651 155.465C102.648 156.345 103.146 157.136 103.146 157.839C103.146 159.598 102.267 160.477 100.508 160.477C99.9802 160.477 99.4526 160.302 98.925 159.95C97.9285 159.481 96.8733 158.719 95.7594 157.664C93.3559 155.436 91.949 154.117 91.5386 153.707C91.5973 153.765 91.4507 153.531 91.099 153.003C90.3369 150.717 91.48 149.574 94.5284 149.574C94.9974 149.574 95.4663 149.72 95.9353 150.013C96.2284 150.365 96.5215 150.688 96.8146 150.981C97.1077 151.215 97.4009 151.479 97.694 151.772Z" fill="#4E9F3D"/>
<path d="M77.4693 157.664C77.4693 156.843 77.7917 156.11 78.4365 155.465C79.3158 154.879 80.0193 154.263 80.5469 153.619C81.1331 152.915 81.778 152.3 82.4814 151.772C83.2435 151.186 83.8884 150.629 84.416 150.101C84.7677 149.75 85.1488 149.574 85.5591 149.574C87.8454 149.574 88.9885 150.717 88.9885 153.003C88.9885 153.296 88.9299 153.501 88.8127 153.619C87.992 154.322 86.5264 155.67 84.416 157.664C83.478 158.602 82.5108 159.334 81.5142 159.862C81.1038 160.155 80.6349 160.302 80.1073 160.302C78.3486 160.302 77.4693 159.422 77.4693 157.664Z" fill="#4E9F3D"/>
<path fill-rule="evenodd" clip-rule="evenodd" d="M108.686 115.719C103.703 114.371 97.606 113.697 90.3955 113.697C83.6539 113.697 77.7037 114.312 72.545 115.543L71.3139 118.973L78.7883 120.644L71.0501 125.568L69.3794 125.216L67.269 131.547C68.5 130.258 71.2846 129.173 75.6227 128.294C79.9607 127.415 84.9729 126.975 90.6593 126.975C96.2284 126.975 101.153 127.415 105.432 128.294C109.77 129.173 112.584 130.228 113.874 131.459L111.675 125.128L109.477 125.568L101.739 120.644L109.653 118.973L108.686 115.719ZM98.7492 120.292L90.2196 123.809L81.778 120.292L90.2196 116.774L98.7492 120.292Z" fill="#4E9F3D"/>
</svg>
