<svg width="181" height="180" viewBox="0 0 181 180" fill="none" xmlns="http://www.w3.org/2000/svg">
<path d="M138.936 128.031C139.347 129.262 139.552 130.435 139.552 131.549C139.552 135.008 138.292 137.675 135.771 139.551C135.536 140.547 135.36 141.544 135.243 142.54C137.412 145.589 138.497 148.051 138.497 149.927C138.497 154.851 133.748 159.072 124.251 162.589C114.755 166.107 103.353 167.865 90.0454 167.865C76.6795 167.865 65.2481 166.107 55.7513 162.589C46.3131 159.072 41.594 154.851 41.594 149.927C41.594 147.992 42.7371 145.472 45.0234 142.365C44.9061 141.72 44.7303 140.811 44.4958 139.639C41.9164 137.763 40.6267 135.066 40.6267 131.549C40.6267 130.435 40.8026 129.292 41.1543 128.119C41.7405 126.654 41.6233 125.511 40.8026 124.69C39.9819 123.869 39.0439 122.726 37.9887 121.261C37.0507 118.329 36.5818 116.307 36.5818 115.193C36.6404 114.666 36.7283 114.079 36.8455 113.434C37.0214 112.79 37.1093 112.028 37.1093 111.148C34.53 108.569 31.8333 106.136 29.0195 103.85C26.2642 101.505 24.0952 98.691 22.5124 95.4081C20.6365 91.539 18.9071 87.6406 17.3243 83.7129C15.8001 79.7266 15.038 75.8282 15.038 72.0178C15.038 64.8072 16.9433 58.7105 20.7537 53.7276C24.5642 48.7447 29.7229 44.8463 36.23 42.0324C44.9061 41.4462 48.57 41.1531 47.2217 41.1531C57.422 41.1531 66.6843 44.9342 75.0087 52.4965V21.6318H104.994V52.5845C113.318 44.9635 122.639 41.1531 132.957 41.1531C131.491 41.1531 135.155 41.4462 143.949 42.0324C150.338 44.8463 155.439 48.7447 159.249 53.7276C163.118 58.7105 165.053 64.8072 165.053 72.0178C165.053 75.8282 164.261 79.6973 162.678 83.625C161.154 87.5527 159.484 91.4511 157.666 95.3201C156.083 98.6616 153.885 101.563 151.071 104.026C148.257 106.488 145.59 108.95 143.069 111.412C143.011 112.115 143.04 112.79 143.157 113.434C143.333 114.079 143.45 114.666 143.509 115.193C143.567 116.014 143.098 118.036 142.102 121.261C141.047 122.726 140.109 123.869 139.288 124.69C138.526 125.511 138.409 126.624 138.936 128.031Z" fill="#191A19"/>
<path d="M91.1005 33.503L96.8162 26.7321H83.2744L88.6384 33.5909C88.9901 33.4151 89.4591 33.3272 90.0453 33.3272C90.2798 33.3272 90.6316 33.3858 91.1005 33.503Z" fill="#E0C097"/>
<path d="M80.2847 29.8097L86.528 35.8771C86.3521 36.3461 86.2642 36.7564 86.2642 37.1082C86.2642 37.6358 86.3521 38.0169 86.528 38.2513L80.2847 43.2635V29.8097Z" fill="#E0C097"/>
<path d="M90.0454 51.7931C84.0073 51.7931 80.9882 54.8122 80.9882 60.8503C80.9882 66.8884 84.0073 69.9074 90.0454 69.9074C96.0835 69.9074 99.1025 66.8884 99.1025 60.8503C99.1025 54.8122 96.0835 51.7931 90.0454 51.7931Z" fill="#E0C097"/>
<path d="M62.8739 127.768L54.3443 124.954L47.7493 130.23L56.103 133.044L62.8739 127.768Z" fill="#E0C097"/>
<path d="M88.5505 40.5376L83.2744 46.2533H96.8162L91.1885 40.6256C90.6022 40.7428 90.2212 40.8014 90.0453 40.8014C89.4591 40.8014 88.9608 40.7135 88.5505 40.5376Z" fill="#E0C097"/>
<path d="M99.806 43.2635L93.5627 38.5151C93.6799 37.9289 93.7385 37.4599 93.7385 37.1082C93.7385 36.5806 93.6506 36.0823 93.4748 35.6133L99.806 29.8097V43.2635Z" fill="#E0C097"/>
<path d="M89.8695 119.854L100.685 125.042L90.2212 130.23L79.4933 125.042L89.8695 119.854Z" fill="#E0C097"/>
<path d="M83.0986 101.124C83.04 93.9133 82.4244 86.6734 81.252 79.4042C80.0796 72.0764 78.9071 67.6212 77.7347 66.0383C70.4655 58.0071 62.2584 53.9915 53.1133 53.9915C45.2579 53.9915 39.2784 56.6295 35.1748 61.9055C32.4782 65.3642 31.1299 69.9074 31.1299 75.5352C31.1299 87.2596 35.4973 98.222 44.232 108.422C45.2286 107.953 46.1958 107.543 47.1338 107.191C48.0924 106.853 49.0509 106.515 50.0095 106.176L50.1235 106.136C49.5959 104.964 49.0683 103.85 48.5407 102.795C48.0131 101.739 47.4562 100.362 46.87 98.6617C45.7562 95.3788 45.3165 92.2719 45.551 89.3407C45.9613 87.5234 46.9579 86.6148 48.5407 86.6148C49.2442 86.6148 50.1821 87.2303 51.3546 88.4614C51.0615 86.8786 50.9149 85.882 50.9149 85.4717C50.9149 80.0198 53.2305 76.649 57.8617 75.3593C62.7273 75.5937 65.9516 79.2283 67.5344 86.2631C68.062 84.5044 68.7948 83.5078 69.7327 83.2733C70.6707 83.0389 71.2862 82.9216 71.5793 82.9216C72.2828 82.9216 72.8983 83.0975 73.4259 83.4492C75.4191 85.9114 76.6501 89.4874 77.1191 94.1772C77.2364 95.2323 77.295 96.2582 77.295 97.2548C77.3536 98.2514 77.4708 99.6582 77.6467 101.476C79.464 101.124 81.2813 101.007 83.0986 101.124Z" fill="#E0C097"/>
<path d="M55.1357 99.6289C55.722 101.27 56.2789 102.765 56.8065 104.114C56.3961 104.289 55.9271 104.465 55.3995 104.641C54.9306 104.758 54.4616 104.905 53.9926 105.081C51.0029 100.039 49.5666 96.8151 49.6839 95.4081C49.7425 93.7667 50.2701 92.946 51.2667 92.946C51.9701 92.946 52.5564 93.4149 53.0253 94.3529C53.9047 96.2288 54.6081 97.9875 55.1357 99.6289Z" fill="#E0C097"/>
<path d="M65.5998 102.795C65.3653 95.115 64.2222 88.9011 62.1704 84.1527C61.4669 82.9216 60.441 82.306 59.0927 82.306C57.3927 82.306 56.5427 83.156 56.5427 84.8561C56.4841 84.9147 56.4548 85.6768 56.4548 87.1423C56.4548 89.6631 57.891 95.1736 60.7635 103.674C63.2256 103.205 64.8378 102.912 65.5998 102.795Z" fill="#E0C097"/>
<path d="M73.1621 90.4837C73.9242 93.5907 74.1587 97.4011 73.8656 101.915C72.6345 101.915 71.4327 102.062 70.2603 102.355C68.9706 97.0787 68.5602 93.1803 69.0292 90.6596C69.4396 89.1354 70.2603 88.4613 71.4914 88.6371C72.3707 88.8716 72.9276 89.4871 73.1621 90.4837Z" fill="#E0C097"/>
<path d="M129.264 145.53C128.795 141.309 122.932 138.085 111.677 135.858C108.16 135.154 104.613 134.744 101.037 134.626C97.4611 134.509 93.7972 134.363 90.0453 134.187C86.3521 134.539 82.8641 134.802 79.5813 134.978C76.357 135.154 73.4259 135.506 70.7879 136.033C57.8324 138.671 51.208 141.837 50.9149 145.53C50.446 146.234 50.2114 146.966 50.2114 147.729C50.2114 150.367 52.3219 153.005 56.5427 155.643C56.5427 152.946 57.0117 150.923 57.9496 149.575C58.4772 148.93 59.0048 148.285 59.5324 147.641C59.8429 147.268 60.1534 146.896 60.4639 146.523L60.4688 146.517L61.2911 145.53C66.5671 142.365 76.2105 140.958 90.2212 141.309C103.939 140.958 113.494 142.365 118.888 145.53C120.177 147.172 121.291 148.52 122.229 149.575C123.167 151.041 123.636 153.063 123.636 155.643C127.857 153.005 129.967 150.367 129.967 147.729C129.967 146.966 129.733 146.234 129.264 145.53Z" fill="#E0C097"/>
<path d="M89.8695 145.794C109.332 145.794 119.063 148.432 119.063 153.708C117.715 158.925 108.101 161.534 90.2212 161.534C72.0483 161.534 62.3463 158.925 61.1152 153.708C61.1152 148.432 70.7 145.794 89.8695 145.794Z" fill="#E0C097"/>
<path d="M118.008 127.768L124.691 133.044L133.133 130.23L126.45 124.954L118.008 127.768Z" fill="#E0C097"/>
<path d="M148.345 75.5352C148.345 87.0251 144.154 97.9582 135.771 108.334C134.716 107.924 133.631 107.543 132.517 107.191C132.005 106.992 131.493 106.793 130.981 106.594L129.352 105.96C129.879 104.905 130.378 103.85 130.847 102.794C131.374 101.739 131.96 100.362 132.605 98.6615C133.66 95.3787 134.1 92.2717 133.924 89.3406C133.455 87.5233 132.459 86.6147 130.934 86.6147C130.172 86.6147 129.234 87.2302 128.121 88.4613C128.414 86.8784 128.56 85.8819 128.56 85.4715C128.56 80.0196 126.245 76.6488 121.614 75.3592C116.689 75.5936 113.465 79.2282 111.941 86.2629C111.413 84.5042 110.68 83.5076 109.742 83.2732C108.805 83.0387 108.189 82.9215 107.896 82.9215C107.134 82.9215 106.518 83.0974 106.049 83.4491C103.997 85.9111 102.766 89.4872 102.356 94.177C102.18 95.2322 102.063 96.2581 102.004 97.2547C102.004 98.2512 101.975 99.6581 101.916 101.475C100.275 101.065 98.399 100.948 96.2886 101.124C96.3473 93.9133 96.9628 86.6734 98.1352 79.4042C99.3077 72.0764 100.509 67.6212 101.741 66.0383C108.951 58.0071 117.158 53.9915 126.362 53.9915C134.159 53.9915 140.138 56.6295 144.3 61.9055C146.997 65.3642 148.345 69.9074 148.345 75.5352Z" fill="#E0C097"/>
<path d="M122.669 104.114C123.02 104.289 123.431 104.465 123.9 104.641C124.427 104.758 124.955 104.905 125.483 105.081C128.414 100.039 129.85 96.8151 129.791 95.4081C129.674 93.7667 129.146 92.946 128.208 92.946C127.446 92.946 126.86 93.4149 126.45 94.3529C125.512 96.2288 124.75 97.9875 124.164 99.6289C123.636 101.27 123.138 102.765 122.669 104.114Z" fill="#E0C097"/>
<path d="M118.712 103.674C116.191 103.205 114.579 102.912 113.875 102.795C114.051 95.115 115.194 88.9011 117.305 84.1527C117.95 82.9216 118.976 82.306 120.382 82.306C122.083 82.306 122.933 83.156 122.933 84.8561C122.991 84.9147 123.02 85.6768 123.02 87.1423C123.02 89.6631 121.584 95.1736 118.712 103.674Z" fill="#E0C097"/>
<path d="M105.61 101.915C106.841 101.915 108.042 102.062 109.215 102.355C110.446 97.0787 110.856 93.1804 110.446 90.6596C109.977 89.1354 109.156 88.4613 107.984 88.6371C107.046 88.8716 106.489 89.4871 106.313 90.4837C105.492 93.5907 105.258 97.4012 105.61 101.915Z" fill="#E0C097"/>
<path d="M135.859 116.952C135.859 119.59 134.54 121.055 131.902 121.349C121.232 117.362 107.251 115.369 89.9574 115.369C72.8983 115.369 59.1514 117.333 48.7166 121.261C45.7269 121.378 44.232 119.942 44.232 116.952C44.232 115.486 44.8768 114.255 46.1665 113.259C56.5427 108.627 71.1396 106.312 89.9574 106.312C98.9266 106.312 107.192 106.957 114.755 108.246C122.376 109.477 128.648 111.09 133.572 113.083C135.097 113.962 135.859 115.252 135.859 116.952Z" fill="#E0C097"/>
</svg>
