<svg width="181" height="180" viewBox="0 0 181 180" fill="none" xmlns="http://www.w3.org/2000/svg">
<path d="M90.0424 167.954H42.1187C43.2325 155.35 48.5965 144.71 58.2105 136.034C59.7934 134.569 60.6727 133.777 60.8486 133.66C65.8315 129.556 70.0816 124.661 73.5989 118.975C64.5711 113.054 60.0571 104.7 60.0571 93.9139C60.0571 87.231 62.0795 81.2222 66.1245 75.8875C67.4728 74.1875 68.9091 72.2529 70.4333 70.084C72.0161 67.915 73.2765 65.8046 74.2145 63.7528C72.8075 64.1045 70.6677 64.6614 67.7952 65.4235C64.9813 66.1856 62.9003 66.8305 61.552 67.3581C65.597 63.6062 69.4367 59.1508 73.0713 53.9921C76.7645 48.8333 78.9336 43.3521 79.5784 37.5485C76.5887 34.5001 75.0938 30.9242 75.0938 26.8206C75.0938 22.717 76.5301 19.1997 79.4025 16.2686C82.3337 13.3374 85.8802 11.8719 90.0424 11.8719C94.0873 11.8719 97.5755 13.3374 100.507 16.2686C103.438 19.1997 104.903 22.717 104.903 26.8206C104.903 30.9828 103.408 34.5587 100.419 37.5485C101.063 43.3521 103.232 48.8333 106.926 53.9921C110.677 59.1508 114.576 63.6062 118.621 67.3581C117.272 66.8305 115.133 66.1856 112.202 65.4235C109.329 64.6614 107.189 64.1045 105.782 63.7528C106.72 65.8046 107.952 67.915 109.476 70.084C111.059 72.2529 112.553 74.1875 113.96 75.8875C118.005 81.2222 120.028 87.231 120.028 93.9139C120.028 104.7 115.514 113.054 106.486 118.975C109.827 124.603 114.048 129.498 119.148 133.66C120.028 134.363 120.907 135.155 121.786 136.034C131.459 144.71 136.823 155.35 137.878 167.954H90.0424Z" fill="#191A19"/>
</svg>
