<svg width="181" height="180" viewBox="0 0 181 180" fill="none" xmlns="http://www.w3.org/2000/svg">
<path d="M94.3511 32.2718C95.2304 41.7686 96.1097 51.2654 96.9891 60.7622C97.927 70.2005 98.865 79.6386 99.8029 89.0768C99.8615 90.4252 100.536 91.0993 101.825 91.0993C102.763 91.0407 103.408 90.6304 103.76 89.8683C108.86 77.5576 112.612 68.0314 115.015 61.2899C117.478 54.4897 118.972 50.2982 119.5 48.7154C116.803 46.136 115.455 43.2342 115.455 40.0099C115.455 37.1961 116.452 34.7925 118.445 32.7994C120.497 30.7476 122.959 29.7217 125.831 29.7217C128.645 29.7217 131.049 30.7476 133.042 32.7994C135.094 34.7925 136.119 37.1961 136.119 40.0099C136.119 45.1101 133.481 48.5688 128.205 50.3861L121.786 88.7251C121.493 90.4838 122.109 91.3631 123.633 91.3631C124.864 91.3631 125.802 91.0407 126.447 90.3958C133.481 83.3612 138.523 77.9093 141.571 74.0402C144.678 70.1712 146.847 67.4745 148.078 65.9504C146.789 64.2503 146.144 62.1985 146.144 59.795C146.144 52.9362 149.573 49.5067 156.432 49.5067C159.246 49.5067 161.65 50.5327 163.643 52.5845C165.694 54.5776 166.72 56.9811 166.72 59.795C166.72 62.6675 165.694 65.1003 163.643 67.0935C161.65 69.0867 159.246 70.0832 156.432 70.0832C155.553 70.0832 154.761 69.9953 154.058 69.8195C149.368 79.9611 145.616 90.3373 142.802 100.948C140.399 109.565 138.904 117.743 138.318 125.481C138.67 127.123 138.875 127.973 138.933 128.031C138.758 127.328 138.875 128.002 139.285 130.054C139.519 130.992 139.637 131.901 139.637 132.78C139.285 133.718 138.552 134.773 137.438 135.945C136.442 137.059 135.709 139.258 135.24 142.541C137.409 145.589 138.494 148.051 138.494 149.927C138.494 154.851 133.745 159.072 124.248 162.589C114.752 166.107 103.349 167.865 90.0422 167.865C76.6763 167.865 65.2449 166.107 55.748 162.589C46.3098 159.072 41.5908 154.851 41.5908 149.927C41.5908 147.992 42.7339 145.472 45.0202 142.365C44.3167 139.023 43.5546 136.883 42.7339 135.945C41.5614 134.773 40.7993 133.718 40.4476 132.78C40.4476 132.018 40.5355 131.138 40.7114 130.142C40.8286 129.673 40.9165 129.263 40.9751 128.911C41.0337 128.5 41.0924 128.207 41.151 128.031C41.3854 127.387 41.6199 126.478 41.8544 125.306C41.2682 117.919 39.832 109.8 37.5457 100.948C34.4973 89.8097 30.7162 79.3749 26.2023 69.6436C25.2057 69.9367 24.1798 70.0833 23.1246 70.0833C16.2658 70.0833 12.8364 66.6538 12.8364 59.795C12.8364 52.9362 16.2658 49.5068 23.1246 49.5068C29.9834 49.5068 33.4128 52.9362 33.4128 59.795C33.4128 61.9054 32.8852 63.8107 31.83 65.5107C35.2887 69.9074 38.7475 74.0109 42.2062 77.8214C45.7235 81.5732 49.5926 85.7061 53.8134 90.22C54.341 90.9821 55.1031 91.3632 56.0997 91.3632C57.7997 91.3632 58.5618 90.4838 58.3859 88.7252C58.2687 88.1976 57.5359 84.0061 56.1876 76.1507C54.8393 68.2953 53.3738 59.7364 51.791 50.4741C46.2218 48.9499 43.4372 45.4619 43.4372 40.01C43.4372 37.1961 44.4338 34.7926 46.427 32.7994C48.4788 30.7476 50.9116 29.7217 53.7255 29.7217C60.5843 29.7217 64.0137 33.1512 64.0137 40.01C64.0137 43.0584 62.8413 45.8429 60.4964 48.3636C60.7895 49.5947 61.5223 52.0569 62.6947 55.7501C63.8671 59.3847 65.6844 64.1917 68.1466 70.1712C69.4949 73.454 70.8432 76.7662 72.1915 80.1077C73.5985 83.3905 75.0054 86.6441 76.4123 89.8683C76.7641 90.6304 77.3796 91.0115 78.259 91.0115C79.49 90.9529 80.1935 90.308 80.3693 89.0769C80.4866 88.3734 82.2746 69.4677 85.7333 32.3597C81.5711 30.1321 79.49 26.82 79.49 22.4233C79.49 19.6094 80.4866 17.1766 82.4798 15.1248C84.4729 13.073 86.9057 12.0471 89.7782 12.0471C92.5921 12.0471 94.9957 13.073 96.9888 15.1248C99.0406 17.1766 100.066 19.6094 100.066 22.4233C100.066 26.4096 98.1613 29.6924 94.3508 32.2718H94.3511Z" fill="#191A19"/>
<path d="M43.7892 104.553C44.4927 106.957 45.1082 109.126 45.6358 111.06C46.2221 112.936 46.7204 114.988 47.1307 117.216C47.4824 117.391 48.01 117.479 48.7135 117.479C53.6378 116.014 59.6759 114.724 66.8278 113.61C74.0384 112.496 81.7765 111.94 90.0423 111.94C98.4839 111.94 106.339 112.526 113.608 113.698C120.878 114.812 126.974 116.102 131.899 117.567C132.192 117.567 132.631 117.45 133.218 117.216C133.569 115.105 134.038 113.141 134.625 111.324C135.211 109.448 135.856 107.279 136.559 104.817C129.876 103.293 122.578 101.798 114.664 100.332C106.75 98.8668 98.5425 98.134 90.0423 98.134C81.5421 98.134 73.4228 98.8668 65.6847 100.332C57.9465 101.739 50.648 103.146 43.7892 104.553Z" fill="#4E9F3D"/>
<path d="M70.609 123.019C67.3848 123.019 65.7726 124.719 65.7726 128.119C65.7726 131.578 67.3848 133.307 70.609 133.307C73.8918 133.307 75.5333 131.578 75.5333 128.119C75.5333 124.719 73.8918 123.019 70.609 123.019Z" fill="#4E9F3D"/>
<path d="M125.743 126.185L132.075 132.252L124.073 135.506L117.653 129.438L125.743 126.185Z" fill="#4E9F3D"/>
<path d="M101.21 126.009L89.8663 120.117L78.9626 126.009L90.306 131.988L101.21 126.009Z" fill="#4E9F3D"/>
<path d="M54.3413 126.537L63.2225 129.526L56.0999 135.066L47.3065 132.076L54.3413 126.537Z" fill="#4E9F3D"/>
<path d="M109.388 123.019C106.105 123.019 104.463 124.719 104.463 128.119C104.463 131.578 106.105 133.307 109.388 133.307C112.671 133.307 114.312 131.578 114.312 128.119C114.312 124.719 112.671 123.019 109.388 123.019Z" fill="#4E9F3D"/>
<path d="M127.414 149.136C127.883 150.308 128.293 151.774 128.645 153.532C128.645 155.525 127.766 156.522 126.007 156.522C124.131 156.522 123.252 155.555 123.369 153.62C122.783 147.523 111.615 144.475 89.8664 144.475C68.352 144.475 57.331 147.523 56.8034 153.62C56.8034 155.555 55.9241 156.522 54.1654 156.522C52.2895 156.522 51.4102 155.525 51.5274 153.532C51.7619 152.301 52.1722 150.806 52.7585 149.048C53.2861 147.582 53.9016 146.585 54.6051 146.058C55.3086 145.472 56.0414 144.827 56.8034 144.123C59.8518 142.13 64.1312 140.43 69.6417 139.023C75.1522 137.558 81.9524 136.913 90.0423 137.089C97.9563 136.913 104.698 137.558 110.267 139.023C115.895 140.43 120.262 142.13 123.369 144.123C123.955 144.944 124.6 145.618 125.304 146.146C126.007 146.615 126.711 147.611 127.414 149.136Z" fill="#4E9F3D"/>
</svg>
