<svg width="181" height="180" viewBox="0 0 181 180" fill="none" xmlns="http://www.w3.org/2000/svg">
<g clip-path="url(#clip0_5_802)">
<path d="M74.2472 95.0888L98.4432 70.8924L109.394 81.8424L85.1976 106.039L74.2472 95.0888Z" fill="#BCE9FF"/>
<path d="M75.3056 96.7824C71.7676 93.2444 66.856 89.6276 61.3756 89.6112C53.61 89.6112 45.8444 86.6484 39.9196 80.7236C33.9944 74.7988 31.0316 67.0328 31.1208 59.2436C31.2308 44.4548 32.3192 36.2996 28.52 26.5556C30.8384 27.5355 33.2626 28.2433 35.744 28.6648C38.1488 29.0788 40.6024 29.248 43.2608 29.3056C45.9196 29.3628 48.7824 29.3084 52.006 29.2752L51.9308 42.2L61.3276 41.8784L61.3992 29.3264C61.896 29.3396 62.4004 29.3548 62.9128 29.3728C64.8052 29.4384 66.626 29.6288 68.3856 29.9688C70.1448 30.3096 71.8428 30.8008 73.4892 31.4688C75.1725 32.153 76.7797 33.0114 78.2844 34.03C79.838 35.078 81.3508 36.33 82.832 37.8112C88.7568 43.736 91.7192 51.5016 91.7192 59.2672C92.0272 65.236 96.0132 69.8392 99.1028 72.9288" fill="#BCE9FF"/>
<path d="M75.3056 96.7824C71.7676 93.2444 66.856 89.6276 61.3756 89.6112C53.61 89.6112 45.8444 86.6484 39.9196 80.7236C33.9944 74.7988 31.0316 67.0328 31.1208 59.2436C31.2308 44.4548 32.3192 36.2996 28.52 26.5556C30.8384 27.5355 33.2626 28.2433 35.744 28.6648C38.1488 29.0788 40.6024 29.248 43.2608 29.3056C45.9196 29.3628 48.7824 29.3084 52.006 29.2752L51.9308 42.2L61.3276 41.8784L61.3992 29.3264C61.896 29.3396 62.4004 29.3548 62.9128 29.3728C64.8052 29.4384 66.626 29.6288 68.3856 29.9688C70.1448 30.3096 71.8428 30.8008 73.4892 31.4688C75.1725 32.153 76.7797 33.0114 78.2844 34.03C79.838 35.078 81.3508 36.33 82.832 37.8112C88.7568 43.736 91.7192 51.5016 91.7192 59.2672C92.0272 65.236 96.0132 69.8392 99.1028 72.9288" stroke="#13252E" stroke-width="6.01"/>
<path d="M30.577 28.9185C32.9781 26.5174 32.9781 22.6244 30.577 20.2233C28.1759 17.8222 24.2829 17.8222 21.8818 20.2233C19.4807 22.6244 19.4807 26.5173 21.8818 28.9184C24.2829 31.3195 28.1759 31.3196 30.577 28.9185Z" fill="#BCE9FF" stroke="#13252E" stroke-width="6.01"/>
<path d="M55.2132 94.902L96.5156 53.5992C102.322 53.5304 106.31 57.526 106.298 63.3812L64.9952 104.684C59.0924 103.681 55.7528 100.884 55.2132 94.902Z" fill="#BCE9FF" stroke="#13252E" stroke-width="6.01" stroke-linejoin="round"/>
<path d="M106.34 81.8574C109.878 85.3952 114.79 89.0122 120.27 89.029C128.036 89.029 135.801 91.9912 141.726 97.9162C147.651 103.841 150.614 111.607 150.525 119.397C150.415 134.185 149.326 142.34 153.126 152.084C150.808 151.104 148.384 150.396 145.902 149.975C143.497 149.561 141.043 149.392 138.385 149.335C135.727 149.277 132.864 149.332 129.64 149.364L129.715 136.44L120.318 136.761L120.247 149.313C119.75 149.3 119.246 149.285 118.733 149.267C116.841 149.201 115.02 149.011 113.26 148.671C111.514 148.338 109.805 147.836 108.157 147.171C106.473 146.487 104.866 145.628 103.361 144.609C101.807 143.561 100.295 142.31 98.8141 140.829C92.8891 134.904 89.9268 127.138 89.9268 119.372C89.6187 113.404 85.6323 108.8 82.5434 105.711" fill="#BCE9FF"/>
<path d="M106.34 81.8574C109.878 85.3952 114.79 89.0122 120.27 89.029C128.036 89.029 135.801 91.9912 141.726 97.9162C147.651 103.841 150.614 111.607 150.525 119.397C150.415 134.185 149.326 142.34 153.126 152.084C150.808 151.104 148.384 150.396 145.902 149.975C143.497 149.561 141.043 149.392 138.385 149.335C135.727 149.277 132.864 149.332 129.64 149.364L129.715 136.44L120.318 136.761L120.247 149.313C119.75 149.3 119.246 149.285 118.733 149.267C116.841 149.201 115.02 149.011 113.26 148.671C111.514 148.338 109.805 147.836 108.157 147.171C106.473 146.487 104.866 145.628 103.361 144.609C101.807 143.561 100.295 142.31 98.8141 140.829C92.8891 134.904 89.9268 127.138 89.9268 119.372C89.6187 113.404 85.6323 108.8 82.5434 105.711" stroke="#13252E" stroke-width="6.01018"/>
<path d="M151.069 149.721C148.667 152.122 148.667 156.015 151.069 158.417C153.47 160.818 157.363 160.818 159.764 158.417C162.165 156.015 162.165 152.122 159.764 149.721C157.363 147.32 153.47 147.32 151.069 149.721Z" fill="#BCE9FF" stroke="#13252E" stroke-width="6.01018"/>
<path d="M126.433 83.7385L85.131 125.04C79.3239 125.109 75.3368 121.114 75.3486 115.258L116.65 73.9561C122.554 74.9589 125.893 77.7561 126.433 83.7385Z" fill="#BCE9FF" stroke="#13252E" stroke-width="6.01018" stroke-linejoin="round"/>
<path d="M72.8692 97.7952C78.2636 98.594 81.9588 101.353 82.6516 107.577M100.87 69.7952C101.669 75.1892 104.428 78.884 110.652 79.5768" stroke="#13252E" stroke-width="6.01"/>
</g>
<defs>
<clipPath id="clip0_5_802">
<rect width="180" height="180" fill="white" transform="translate(0.299988)"/>
</clipPath>
</defs>
</svg>
