<svg width="181" height="180" viewBox="0 0 181 180" fill="none" xmlns="http://www.w3.org/2000/svg">
<path d="M19.4992 62.35H149.387V88.0208H19.4992V62.35Z" fill="#13252E"/>
<path fill-rule="evenodd" clip-rule="evenodd" d="M80.662 104.302C76.8512 112.735 71.5616 118.509 63.4832 123.261C47.2316 132.328 43.366 142.311 37.3856 160H133.825C139.912 146.216 142.174 132.911 142.972 116.853" fill="#B3B3B3"/>
<path d="M80.662 104.302C76.8512 112.735 71.5616 118.509 63.4832 123.261C47.2316 132.328 43.366 142.311 37.3856 160H133.825C139.912 146.216 142.174 132.911 142.972 116.853" stroke="#13252E" stroke-width="4.00667"/>
<path fill-rule="evenodd" clip-rule="evenodd" d="M18.5928 75.1916C18.6192 84.2428 21.3156 97.002 26.9288 98.1788C58.586 100.234 58.8176 90.6888 82.7192 103.882C95.2888 113.35 111.307 114.286 125.035 114.196C126.715 115.201 129.215 117.342 131.706 119.448C132.84 116.556 132.45 115.007 132.622 113.716C135.157 114.051 137.141 115.94 138.149 116.558C139.725 113.927 138.228 111.808 137.603 108.641C143.284 118.428 147.86 121.636 156.786 126.492C161.688 108.942 162.358 104.101 147.515 85.7844" fill="#13252E"/>
<path d="M18.5928 75.1916C18.6192 84.2428 21.3156 97.002 26.9288 98.1788C58.586 100.234 58.8176 90.6888 82.7192 103.882C95.2888 113.35 111.307 114.286 125.035 114.196C126.715 115.201 129.215 117.342 131.706 119.448C132.84 116.556 132.45 115.007 132.622 113.716C135.157 114.051 137.141 115.94 138.149 116.558C139.725 113.927 138.228 111.808 137.603 108.641C143.284 118.428 147.86 121.636 156.786 126.492C161.688 108.942 162.358 104.101 147.515 85.7844" stroke="#13252E" stroke-width="4.00667"/>
<path fill-rule="evenodd" clip-rule="evenodd" d="M18.5928 75.8508C18.6192 66.7996 21.3156 54.0404 26.9288 52.8636C58.586 50.808 58.818 60.354 82.7192 47.1608C95.2892 37.6928 111.308 36.7568 125.035 37.6468C126.715 37.4412 129.215 35.3 131.706 33.1948C132.84 36.0864 132.45 37.6352 132.622 38.926C135.157 38.592 137.141 36.702 138.149 36.0844C139.725 38.7156 138.228 40.8344 137.603 43.2016C143.284 32.6144 147.859 29.4068 156.786 24.55C161.688 42.1008 162.915 46.2916 148.072 64.608" fill="#13252E"/>
<path d="M18.5928 75.8508C18.6192 66.7996 21.3156 54.0404 26.9288 52.8636C58.586 50.808 58.818 60.354 82.7192 47.1608C95.2892 37.6928 111.308 36.7568 125.035 37.6468C126.715 37.4412 129.215 35.3 131.706 33.1948C132.84 36.0864 132.45 37.6352 132.622 38.926C135.157 38.592 137.141 36.702 138.149 36.0844C139.725 38.7156 138.228 40.8344 137.603 43.2016C143.284 32.6144 147.859 29.4068 156.786 24.55C161.688 42.1008 162.915 46.2916 148.072 64.608" stroke="#13252E" stroke-width="4.00667"/>
<path d="M50.692 144.235C53.8664 139.514 56.1704 135.553 61.5492 132.28C62.64 131.616 67.0776 129.26 68.0124 128.578C74.7072 123.691 79.0232 120.316 82.798 114.022C83.0986 113.519 83.3845 113.008 83.6556 112.49C88.3972 115.522 92.266 116.846 97.158 118.258C103.463 120.04 115.689 120.509 115.689 120.509L122.872 120.442L127.713 124.004C128.621 124.672 130.373 126.147 131.649 127.226C132.925 128.306 134.021 129.129 134.085 129.057C134.357 128.748 135.569 125.326 135.773 124.293C135.895 123.674 135.938 123.55 136.048 123.094C136.756 123.518 136.951 123.586 137.988 124.279C139.026 124.972 140.005 125.549 140.165 125.561C140.339 125.574 140.749 125.076 141.189 124.318C142.31 122.387 142.426 122.73 142.125 127.068C141.507 135.961 139.223 141.228 137.469 148.192C136.652 151.438 134.449 156.412 133.306 159.2C117.925 159.56 104.224 160 88.438 159.662L44.644 159.221C44.4824 161.093 48.7832 147.259 50.692 144.235V144.235Z" fill="#13252E" stroke="#13252E" stroke-width="0.929947"/>
<path fill-rule="evenodd" clip-rule="evenodd" d="M28.104 80.9812C31.582 86.4332 28.104 89.6292 28.104 89.6292Z" fill="#B3B3B3"/>
<path d="M28.104 80.9812C31.582 86.4332 28.104 89.6292 28.104 89.6292" stroke="#B3B3B3" stroke-width="4.00667" stroke-linecap="round"/>
<path fill-rule="evenodd" clip-rule="evenodd" d="M93.0964 92.7896C99.7108 90.676 104.68 93.976 106.382 99.0552C99.244 99.3272 98.3364 94.6924 98.3364 94.6924" fill="#B3B3B3"/>
<path d="M93.0964 92.7896C99.7108 90.676 104.68 93.976 106.382 99.0552C99.244 99.3272 98.3364 94.6924 98.3364 94.6924" stroke="#B3B3B3" stroke-width="6.01" stroke-linecap="round" stroke-linejoin="round"/>
<path fill-rule="evenodd" clip-rule="evenodd" d="M28.104 70.0612C31.582 64.6092 28.104 61.4132 28.104 61.4132Z" fill="#B3B3B3"/>
<path d="M28.104 70.0612C31.582 64.6092 28.104 61.4132 28.104 61.4132" stroke="#B3B3B3" stroke-width="4.00667" stroke-linecap="round"/>
<path fill-rule="evenodd" clip-rule="evenodd" d="M93.0964 58.2528C99.7108 60.366 104.68 57.0664 106.382 51.9868C99.244 51.7148 98.3364 56.35 98.3364 56.35" fill="#B3B3B3"/>
<path d="M93.0964 58.2528C99.7108 60.366 104.68 57.0664 106.382 51.9868C99.244 51.7148 98.3364 56.35 98.3364 56.35" stroke="#B3B3B3" stroke-width="6.01" stroke-linecap="round" stroke-linejoin="round"/>
<path fill-rule="evenodd" clip-rule="evenodd" d="M146.666 51.26C150.219 48.1488 150.688 44.2932 150.41 40.93Z" fill="#B3B3B3"/>
<path d="M146.666 51.26C150.219 48.1488 150.688 44.2932 150.41 40.93" stroke="#B3B3B3" stroke-width="4.00667" stroke-linecap="round" stroke-linejoin="round"/>
<path d="M101.812 98.3716C103.091 98.3716 104.127 97.3354 104.127 96.0572C104.127 94.779 103.091 93.7428 101.812 93.7428C100.534 93.7428 99.498 94.779 99.498 96.0572C99.498 97.3354 100.534 98.3716 101.812 98.3716Z" fill="#B3B3B3"/>
<path d="M101.838 58.1436C103.116 58.1436 104.152 57.1074 104.152 55.8292C104.152 54.551 103.116 53.5148 101.838 53.5148C100.56 53.5148 99.5236 54.551 99.5236 55.8292C99.5236 57.1074 100.56 58.1436 101.838 58.1436Z" fill="#B3B3B3"/>
<path fill-rule="evenodd" clip-rule="evenodd" d="M146.666 100.312C150.219 103.423 150.688 107.278 150.41 110.642Z" fill="#B3B3B3"/>
<path d="M146.666 100.312C150.219 103.423 150.688 107.278 150.41 110.642" stroke="#B3B3B3" stroke-width="4.00667" stroke-linecap="round" stroke-linejoin="round"/>
<path fill-rule="evenodd" clip-rule="evenodd" d="M158.391 62.7524C157.839 65.7044 156.513 69.4656 154.198 71.36C155.95 73.112 156.822 73.2864 162.191 76.386C157.06 79.3484 155.833 79.7768 154.197 81.412C156.513 83.3064 157.839 87.0672 158.391 90.0196L148.404 87.8156C146.29 91.4792 142.797 94.2772 137.618 95.6652C138.17 92.7132 138.628 87.4 140.211 84.6576C137.984 84.6576 134.482 84.4936 131.418 83.6724C134.034 80.3092 135.886 77.9796 138.567 76.4316C135.571 74.7016 134.034 72.554 131.418 69.1912C135.192 68.1796 137.984 68.2056 140.211 68.2056C138.539 65.3096 138.17 60.1504 137.618 57.198C142.876 58.6072 145.402 61.5108 148.404 64.2016L158.391 62.7524Z" fill="#B3B3B3" stroke="#13252E" stroke-width="4.00667" stroke-linecap="square"/>
</svg>
