<svg width="181" height="180" viewBox="0 0 181 180" fill="none" xmlns="http://www.w3.org/2000/svg">
<path d="M19.7992 62.128H147.485V90.9056H19.7992V62.128Z" fill="#BCE9FF"/>
<path fill-rule="evenodd" clip-rule="evenodd" d="M80.9621 104.302C77.1513 112.735 71.8613 118.509 63.7833 123.261C47.5313 132.328 43.6661 142.311 37.6857 160H134.124C140.212 146.216 142.474 132.911 143.272 116.853" fill="#BCE9FF"/>
<path d="M80.9621 104.302C77.1513 112.735 71.8613 118.509 63.7833 123.261C47.5313 132.328 43.6661 142.311 37.6857 160H134.124C140.212 146.216 142.474 132.911 143.272 116.853" stroke="#13252E" stroke-width="6.01"/>
<path fill-rule="evenodd" clip-rule="evenodd" d="M147.814 86.5844C162.658 104.901 161.988 108.942 157.086 126.492C148.159 121.636 143.584 118.428 137.903 108.641C138.528 111.808 140.025 113.927 138.449 116.558C137.441 115.941 135.457 114.05 132.922 113.717C132.749 115.007 133.14 116.556 132.006 119.448C129.515 117.343 127.014 115.202 125.335 114.196C111.608 114.286 95.5888 113.35 83.0188 103.882C59.1176 90.6888 58.8856 100.236 27.2288 98.1808C21.6156 97.004 18.9192 84.2428 18.8928 75.5212C18.9192 66.7996 21.6156 54.0404 27.2288 52.8636C58.886 50.8084 59.1176 60.354 83.0192 47.1608C95.5888 37.6928 111.607 36.7568 125.335 37.6468C127.015 37.4412 129.515 35.3 132.006 33.1948C133.14 36.0864 132.749 37.6352 132.922 38.926C135.457 38.592 137.441 36.702 138.449 36.0844C140.025 38.7156 138.528 40.8344 137.903 43.2016C143.584 32.6144 148.159 29.4068 157.086 24.5504C161.988 42.1008 163.215 46.2916 148.372 64.608" fill="#BCE9FF"/>
<path d="M147.814 86.5844C162.658 104.901 161.988 108.942 157.086 126.492C148.159 121.636 143.584 118.428 137.903 108.641C138.528 111.808 140.025 113.927 138.449 116.558C137.441 115.941 135.457 114.05 132.922 113.717C132.749 115.007 133.14 116.556 132.006 119.448C129.515 117.343 127.014 115.202 125.335 114.196C111.608 114.286 95.5888 113.35 83.0188 103.882C59.1176 90.6888 58.8856 100.236 27.2288 98.1808C21.6156 97.004 18.9192 84.2428 18.8928 75.5212C18.9192 66.7996 21.6156 54.0404 27.2288 52.8636C58.886 50.8084 59.1176 60.354 83.0192 47.1608C95.5888 37.6928 111.607 36.7568 125.335 37.6468C127.015 37.4412 129.515 35.3 132.006 33.1948C133.14 36.0864 132.749 37.6352 132.922 38.926C135.457 38.592 137.441 36.702 138.449 36.0844C140.025 38.7156 138.528 40.8344 137.903 43.2016C143.584 32.6144 148.159 29.4068 157.086 24.5504C161.988 42.1008 163.215 46.2916 148.372 64.608" stroke="#13252E" stroke-width="6.01"/>
<path d="M28.404 80.9816C31.882 86.4332 28.404 89.6292 28.404 89.6292" stroke="#13252E" stroke-width="4.00667" stroke-linecap="round"/>
<path d="M93.3961 92.7896C100.01 90.6764 104.98 93.976 106.682 99.0556C99.5437 99.3276 98.6365 94.6924 98.6365 94.6924" stroke="#13252E" stroke-width="6.01" stroke-linecap="round" stroke-linejoin="round"/>
<path d="M93.3961 58.2528C100.01 60.3664 104.98 57.0668 106.682 51.9872C99.5437 51.7152 98.6365 56.3504 98.6365 56.3504" stroke="#13252E" stroke-width="6.01" stroke-linecap="round" stroke-linejoin="round"/>
<path fill-rule="evenodd" clip-rule="evenodd" d="M158.691 62.7528C158.138 65.7048 156.812 69.466 154.497 71.3604C156.249 73.1124 157.122 73.2868 162.49 76.3864C157.359 79.3488 156.132 79.7772 154.497 81.4124C156.813 83.3068 158.138 87.0676 158.691 90.02L148.704 87.816C146.589 91.4796 143.097 94.2776 137.917 95.6656C138.47 92.7136 138.928 87.4004 140.511 84.658C138.284 84.658 134.782 84.494 131.718 83.6728C134.334 80.3096 136.185 77.98 138.866 76.432C135.87 74.702 134.333 72.5544 131.718 69.1916C135.492 68.18 138.284 68.206 140.511 68.206C138.839 65.31 138.47 60.1508 137.917 57.1984C143.176 58.6076 145.702 61.5112 148.704 64.202L158.691 62.7528Z" fill="#BCE9FF" stroke="#13252E" stroke-width="4.00667" stroke-linecap="square"/>
<path d="M146.966 51.2604C150.519 48.1492 150.988 44.2932 150.71 40.9304" stroke="#13252E" stroke-width="4.00667" stroke-linecap="round" stroke-linejoin="round"/>
<path d="M102.112 98.3716C103.39 98.3716 104.426 97.3354 104.426 96.0572C104.426 94.779 103.39 93.7428 102.112 93.7428C100.834 93.7428 99.7976 94.779 99.7976 96.0572C99.7976 97.3354 100.834 98.3716 102.112 98.3716Z" fill="#13252E"/>
<path d="M102.138 58.144C103.416 58.144 104.452 57.1078 104.452 55.8296C104.452 54.5514 103.416 53.5152 102.138 53.5152C100.86 53.5152 99.8237 54.5514 99.8237 55.8296C99.8237 57.1078 100.86 58.144 102.138 58.144Z" fill="#13252E"/>
<path d="M146.966 100.312C150.519 103.423 150.988 107.278 150.71 110.642" stroke="#13252E" stroke-width="4.00667" stroke-linecap="round" stroke-linejoin="round"/>
<path d="M28.404 61.4184C28.404 61.4184 31.6136 64.4272 28.404 70.0664" stroke="#13252E" stroke-width="4.00667" stroke-linecap="round"/>
</svg>
