<svg width="181" height="180" viewBox="0 0 181 180" fill="none" xmlns="http://www.w3.org/2000/svg">
<path fill-rule="evenodd" clip-rule="evenodd" d="M32.8025 44.5772C34.2785 47.2592 40.0085 58.2196 41.3185 61.472C42.6662 64.8221 43.8325 68.2424 44.8121 71.718C45.8057 75.2476 43.2097 78.842 43.7365 82.3556C44.2637 85.8692 47.9137 89.3012 47.8233 92.5056L92.5393 92.2444L92.2777 25.5624C82.5169 38.246 75.2801 48.8964 69.6321 63.6364C61.9281 55.8588 48.0977 46.234 39.0393 41.1652L32.8025 44.5772Z" fill="#13252E"/>
<path fill-rule="evenodd" clip-rule="evenodd" d="M147.991 44.718C146.515 47.4004 142.821 59.2656 141.511 62.518C140.163 65.8681 138.997 69.2884 138.018 72.764C137.024 76.2936 138.489 78.7568 137.962 82.2704C137.435 85.784 134.916 90.3472 135.007 93.5516L90.2905 93.2904L90.5521 26.6084C100.313 39.292 107.55 49.9424 113.198 64.6824C120.902 56.9048 133.148 43.7372 142.207 38.6684L147.991 44.718Z" fill="#13252E"/>
<path fill-rule="evenodd" clip-rule="evenodd" d="M33.9773 134.354C35.4533 131.672 39.8253 122.974 41.1357 119.722C42.4833 116.372 43.6494 112.951 44.6289 109.476C45.6229 105.946 43.7053 101.899 44.2325 98.3852C44.7593 94.872 47.7305 91.8924 47.6405 88.688L92.3565 88.9492L92.0949 155.631C82.3337 142.948 75.0969 132.297 69.4489 117.557C61.7449 125.335 49.3113 135.677 40.2529 140.746L33.9773 134.354Z" fill="#13252E"/>
<path fill-rule="evenodd" clip-rule="evenodd" d="M148.939 135.624C147.463 132.942 142.638 122.66 141.328 119.408C139.98 116.058 138.814 112.638 137.834 109.162C136.841 105.632 141.232 100.995 139.589 97.8452C138 94.8 133.333 91.4984 133.423 88.294L90.1073 88.6356L90.3689 155.317C100.13 142.634 107.367 131.983 113.015 117.243C120.719 125.021 132.777 134.685 141.836 139.754L148.939 135.624Z" fill="#13252E"/>
<path d="M33.1384 36.1946C43.3671 41.6321 57.2915 54.124 68.7578 63.0151C76.5861 47.5684 84.4826 35.0361 92.6254 26.3273M47.8671 83.9387C48.1057 85.953 48.1051 88.5606 48.108 90.2555C48.1051 91.9506 48.1059 94.5577 47.8671 96.5722M30.3229 37.7946C34.7865 47.7538 43.5277 65.8257 46.1227 76.0129L30.3229 37.7946Z" stroke="#13252E" stroke-width="6.01004"/>
<path d="M30.1089 45.638C36.254 45.638 41.2357 40.6564 41.2357 34.5112C41.2357 28.366 36.254 23.3844 30.1089 23.3844C23.9637 23.3844 18.9821 28.366 18.9821 34.5112C18.9821 40.6564 23.9637 45.638 30.1089 45.638Z" fill="#13252E" stroke="#13252E" stroke-width="6.01"/>
<path d="M90.4473 99.4776L84.4069 90.3256L90.4473 81.1728L96.4881 90.3256L90.4473 99.4776ZM67.1201 97.1208L62.5441 90.2564L67.1201 83.3924L71.6961 90.2564L67.1201 97.1208Z" fill="#B3B3B3"/>
<path d="M33.1385 144.315C43.3672 138.878 57.2914 126.386 68.7577 117.495C76.586 132.941 82.2859 143.277 90.4284 151.986M30.323 142.715C34.7866 132.756 43.5278 114.684 46.1228 104.497" stroke="#13252E" stroke-width="6.01"/>
<path d="M30.109 134.871C36.2541 134.871 41.2358 139.852 41.2358 145.997C41.2358 152.143 36.2541 157.124 30.109 157.124C23.9639 157.124 18.9822 152.143 18.9822 145.997C18.9822 139.852 23.9639 134.871 30.109 134.871Z" fill="#13252E" stroke="#13252E" stroke-width="6.00995"/>
<path d="M148.776 144.315C138.547 138.877 124.623 126.385 113.157 117.494C105.329 132.941 98.0289 143.277 89.8861 151.985M151.592 142.715C147.128 132.756 138.387 114.684 135.792 104.497" stroke="#13252E" stroke-width="6.01"/>
<path d="M151.805 134.87C145.66 134.87 140.679 139.852 140.679 145.997C140.679 152.142 145.66 157.124 151.805 157.124C157.951 157.124 162.932 152.142 162.932 145.997C162.932 139.852 157.951 134.87 151.805 134.87Z" fill="#13252E" stroke="#13252E" stroke-width="6.00995"/>
<path d="M113.879 83.4111L118.455 90.2754L113.879 97.1397L109.303 90.2754L113.879 83.4111Z" fill="#B3B3B3"/>
<path d="M90.5913 148.025C84.4461 148.025 79.4645 153.007 79.4645 159.152C79.4645 165.297 84.4461 170.278 90.5913 170.278C96.7364 170.278 101.718 165.297 101.718 159.152C101.718 153.007 96.7364 148.025 90.5913 148.025Z" fill="#13252E" stroke="#13252E" stroke-width="6.00995"/>
<path d="M148.776 34.5914C138.547 40.0289 124.623 52.5207 113.157 61.4117C105.328 45.9652 98.0288 35.6295 89.886 26.921M134.047 82.3351C133.809 84.3494 133.809 86.9569 133.806 88.6524C133.809 90.348 133.808 92.9553 134.047 94.9699M151.591 36.1915C147.128 46.1506 138.387 64.2223 135.792 74.4094L151.591 36.1915Z" stroke="#13252E" stroke-width="6.00998"/>
<path d="M151.805 44.0358C145.66 44.0358 140.679 39.0541 140.679 32.909C140.679 26.7638 145.66 21.7822 151.805 21.7822C157.95 21.7822 162.932 26.7638 162.932 32.909C162.932 39.0541 157.95 44.0358 151.805 44.0358Z" fill="#13252E" stroke="#13252E" stroke-width="6.01001"/>
<path d="M90.5912 31.6812C84.4461 31.6812 79.4644 26.6996 79.4644 20.5544C79.4644 14.4092 84.4461 9.42761 90.5912 9.42761C96.7364 9.42761 101.718 14.4092 101.718 20.5544C101.718 26.6996 96.7364 31.6812 90.5912 31.6812Z" fill="#13252E" stroke="#13252E" stroke-width="6.01001"/>
<path fill-rule="evenodd" clip-rule="evenodd" d="M90.9575 60.7974C76.4126 60.7084 62.141 64.0804 46.6152 72.0013C37.8493 76.3544 41.6781 84.4455 48.7513 83.217C63.6485 75.8357 77.158 72.644 90.9575 72.7283C104.757 72.6428 118.267 75.8346 133.168 83.2162C140.246 84.4455 144.075 76.3544 135.304 72.0005C119.774 64.0788 105.502 60.7069 90.9575 60.7974V60.7974Z" fill="#B3B3B3" stroke="#13252E" stroke-width="5.20873"/>
<path fill-rule="evenodd" clip-rule="evenodd" d="M135.304 107.783C119.774 115.716 105.502 119.088 90.9573 118.998C76.4125 119.088 62.1409 115.716 46.6149 107.782C37.8489 103.417 41.6777 95.3256 48.7509 96.5668C63.6481 103.96 77.1577 107.152 90.9573 107.067C104.756 107.152 118.266 103.96 133.168 96.5672C140.246 95.3256 144.075 103.417 135.304 107.783H135.304Z" fill="#B3B3B3" stroke="#13252E" stroke-width="5.20867"/>
</svg>
