<svg width="181" height="180" viewBox="0 0 181 180" fill="none" xmlns="http://www.w3.org/2000/svg">
<path fill-rule="evenodd" clip-rule="evenodd" d="M33.1024 44.5772C34.5784 47.2592 40.3084 58.2196 41.6184 61.472C42.9662 64.8221 44.1324 68.2424 45.112 71.718C46.1056 75.2476 43.5096 78.842 44.0364 82.3556C44.5636 85.8692 48.2136 89.3012 48.1232 92.5056L92.8392 92.2444L92.5776 25.5624C82.8168 38.246 75.58 48.8964 69.932 63.6364C62.228 55.8588 48.3976 46.234 39.3392 41.1652L33.1024 44.5772Z" fill="#BCE9FF"/>
<path fill-rule="evenodd" clip-rule="evenodd" d="M34.2772 134.354C35.7532 131.672 40.1252 122.974 41.4356 119.722C42.7832 116.372 43.9493 112.951 44.9288 109.476C45.9228 105.946 44.0052 101.899 44.5324 98.3852C45.0592 94.872 48.0304 91.8924 47.9404 88.688L92.6564 88.9492L92.3948 155.631C82.6336 142.948 75.3968 132.297 69.7488 117.557C62.0448 125.335 49.6112 135.677 40.5528 140.746L34.2772 134.354Z" fill="#BCE9FF"/>
<path fill-rule="evenodd" clip-rule="evenodd" d="M148.29 44.7179C146.814 47.4003 143.121 59.2655 141.811 62.5179C140.463 65.8681 139.297 69.2885 138.317 72.7642C137.324 76.2933 138.788 78.7572 138.262 82.2706C137.734 85.784 135.216 90.3474 135.306 93.5518L90.5901 93.2904L90.8518 26.6086C100.613 39.292 107.85 49.9425 113.497 64.6826C121.202 56.9049 133.448 43.7372 142.507 38.6686L148.29 44.7179Z" fill="#BCE9FF"/>
<path fill-rule="evenodd" clip-rule="evenodd" d="M149.239 135.624C147.763 132.942 142.938 122.66 141.628 119.408C140.28 116.058 139.114 112.637 138.134 109.162C137.141 105.633 141.532 100.995 139.889 97.8454C138.3 94.8002 133.633 91.4984 133.724 88.2939L90.4071 88.6355L90.6689 155.317C100.43 142.634 107.667 131.983 113.314 117.243C121.019 125.021 133.077 134.685 142.136 139.753L149.239 135.624Z" fill="#BCE9FF"/>
<path d="M33.4383 36.1946C43.6671 41.6321 57.5914 54.124 69.0577 63.0151C76.8861 47.5684 84.7825 35.0361 92.9253 26.3273M30.6228 37.7946C35.0864 47.7539 43.8277 65.8257 46.4227 76.0129L30.6228 37.7946ZM48.167 83.9387C48.4056 85.953 48.405 88.5606 48.4079 90.2555C48.405 91.9506 48.4059 94.5577 48.167 96.5722V83.9387Z" stroke="#13252E" stroke-width="6.01004"/>
<path d="M30.4088 45.638C36.5539 45.638 41.5356 40.6564 41.5356 34.5112C41.5356 28.366 36.5539 23.3844 30.4088 23.3844C24.2636 23.3844 19.282 28.366 19.282 34.5112C19.282 40.6564 24.2636 45.638 30.4088 45.638Z" fill="#BCE9FF" stroke="#13252E" stroke-width="6.01"/>
<path d="M90.7472 99.4776L84.7068 90.3256L90.7472 81.1728L96.788 90.3256L90.7472 99.4776ZM67.42 97.1208L62.844 90.2564L67.42 83.3924L71.996 90.2564L67.42 97.1208Z" fill="#13252E"/>
<path d="M33.4384 144.315C43.6671 138.878 57.5913 126.386 69.0576 117.495C76.8859 132.941 82.5859 143.277 90.7284 151.986M30.6229 142.715C35.0865 132.756 43.8277 114.684 46.4227 104.497" stroke="#13252E" stroke-width="6.01"/>
<path d="M30.409 134.871C36.5541 134.871 41.5357 139.852 41.5357 145.997C41.5357 152.143 36.5541 157.124 30.409 157.124C24.2638 157.124 19.2822 152.143 19.2822 145.997C19.2822 139.852 24.2638 134.871 30.409 134.871Z" fill="#BCE9FF" stroke="#13252E" stroke-width="6.00995"/>
<path d="M149.076 144.315C138.847 138.877 124.923 126.385 113.457 117.494C105.628 132.941 98.3287 143.277 90.1859 151.985M151.891 142.715C147.428 132.756 138.687 114.684 136.092 104.497" stroke="#13252E" stroke-width="6.01"/>
<path d="M152.105 134.87C145.96 134.87 140.979 139.852 140.979 145.997C140.979 152.142 145.96 157.124 152.105 157.124C158.25 157.124 163.232 152.142 163.232 145.997C163.232 139.852 158.25 134.87 152.105 134.87Z" fill="#BCE9FF" stroke="#13252E" stroke-width="6.00995"/>
<path d="M114.179 83.4111L118.755 90.2754L114.179 97.1397L109.603 90.2754L114.179 83.4111Z" fill="#13252E"/>
<path d="M90.8912 148.025C84.7461 148.025 79.7644 153.007 79.7644 159.152C79.7644 165.297 84.7461 170.278 90.8912 170.278C97.0363 170.278 102.018 165.297 102.018 159.152C102.018 153.007 97.0363 148.025 90.8912 148.025Z" fill="#BCE9FF" stroke="#13252E" stroke-width="6.00995"/>
<path d="M149.076 34.5914C138.847 40.0289 124.923 52.5207 113.457 61.4117C105.628 45.9652 98.3287 35.6295 90.1859 26.921M134.347 82.3351C134.109 84.3494 134.109 86.9569 134.106 88.6524C134.109 90.348 134.108 92.9553 134.347 94.9699M151.891 36.1915C147.428 46.1506 138.687 64.2223 136.092 74.4094L151.891 36.1915Z" stroke="#13252E" stroke-width="6.00998"/>
<path d="M152.105 44.0358C145.96 44.0358 140.978 39.0541 140.978 32.909C140.978 26.7638 145.96 21.7822 152.105 21.7822C158.25 21.7822 163.232 26.7638 163.232 32.909C163.232 39.0541 158.25 44.0358 152.105 44.0358Z" fill="#BCE9FF" stroke="#13252E" stroke-width="6.01001"/>
<path d="M90.891 31.6812C84.7459 31.6812 79.7642 26.6996 79.7642 20.5544C79.7642 14.4092 84.7459 9.42761 90.891 9.42761C97.0362 9.42761 102.018 14.4092 102.018 20.5544C102.018 26.6996 97.0362 31.6812 90.891 31.6812Z" fill="#BCE9FF" stroke="#13252E" stroke-width="6.01001"/>
<path fill-rule="evenodd" clip-rule="evenodd" d="M91.2574 60.7974C76.7125 60.7084 62.4409 64.0804 46.9151 72.0013C38.1493 76.3544 41.978 84.4455 49.0513 83.217C63.9484 75.8357 77.4579 72.644 91.2574 72.7283C105.057 72.6428 118.566 75.8346 133.468 83.2162C140.546 84.4455 144.375 76.3544 135.604 72.0005C120.074 64.0788 105.802 60.7069 91.2574 60.7974V60.7974Z" fill="#BCE9FF" stroke="#13252E" stroke-width="5.20873"/>
<path fill-rule="evenodd" clip-rule="evenodd" d="M135.604 107.783C120.074 115.716 105.802 119.088 91.2572 118.998C76.7124 119.088 62.4408 115.716 46.9148 107.782C38.1488 103.417 41.9776 95.3256 49.0508 96.5668C63.948 103.96 77.4576 107.152 91.2572 107.067C105.056 107.152 118.566 103.96 133.468 96.5672C140.546 95.3256 144.375 103.417 135.604 107.783H135.604Z" fill="#BCE9FF" stroke="#13252E" stroke-width="5.20867"/>
</svg>
