<svg width="180" height="181" viewBox="0 0 180 181" fill="none" xmlns="http://www.w3.org/2000/svg">
<path d="M42.8 140.3H137.701L122.029 125.555H57.932L42.8 140.3Z" fill="#B3B3B3"/>
<path d="M42.8 41.5552H137.701L122.029 56.3H57.932L42.8 41.5552Z" fill="#B3B3B3"/>
<path d="M80 31.3V21.3H100V31.3" stroke="#13252E" stroke-width="4.00667" stroke-linecap="round"/>
<path d="M120 31.3V21.3H140V41.3H40V21.3H60V31.3" stroke="#13252E" stroke-width="4.00667" stroke-linecap="round"/>
<path d="M60 31.3H80.6252M99.3752 31.3H120H99.3752Z" stroke="#13252E" stroke-width="4.00667"/>
<path d="M60 61.3H120V121.3H60V61.3Z" fill="#13252E" stroke="#13252E" stroke-width="4.00667" stroke-linecap="round"/>
<path d="M42.2612 31.364V23.5252H57.9388V27.954C57.9388 30.876 58.0988 32.5428 58.4092 32.8532C58.7528 33.1972 61.8608 33.3236 69.9432 33.3236C79.4792 33.3236 81.0924 33.2384 81.6232 32.7076C82.108 32.2228 82.2392 31.1796 82.2392 27.8084V23.5252H97.9168V27.954C97.9168 30.876 98.0768 32.5428 98.3872 32.8532C98.7308 33.1972 101.839 33.3236 109.921 33.3236C119.457 33.3236 121.07 33.2384 121.601 32.7076C122.086 32.2228 122.217 31.1796 122.217 27.8084V23.5252H137.895V39.2028H42.2612V31.364Z" fill="#13252E" stroke="#13252E" stroke-width="1.96287"/>
<path d="M49.39 39.7H131.152V43.7232H49.39V39.7Z" fill="#13252E" stroke="#13252E" stroke-width="4.00667"/>
<path d="M120.668 60.798L140.455 41.7952M39.468 41.7616L59.2548 60.7644L39.468 41.7616Z" stroke="#13252E" stroke-width="4.00667"/>
<path d="M56.0748 57.3752H123.925V69.2252H56.0748V57.3752Z" fill="#B3B3B3" stroke="#13252E" stroke-width="4.00667" stroke-linejoin="round"/>
<path d="M119.665 57.924L139.452 38.9212M40.428 38.8888L60.2148 57.8916L40.428 38.8888Z" stroke="#13252E" stroke-width="4.00667"/>
<path d="M57.5268 53.84H124.335V56.76H57.5268V53.84Z" fill="#13252E" stroke="#13252E" stroke-width="3.08553"/>
<path d="M55.998 66.17H123.13V68.4972H55.998V66.17Z" fill="#13252E" stroke="#13252E" stroke-width="2.76099"/>
<path d="M55.8932 59.386H61.7004V66.038H55.8932V59.386ZM118.016 59.19H123.823V65.842H118.016V59.19Z" fill="#13252E" stroke="#13252E" stroke-width="1.37308"/>
<path d="M42.8 140.045H137.701L122.029 125.3H57.9316L42.8 140.045Z" fill="#B3B3B3"/>
<path d="M80 150.3V160.3H100V150.3" stroke="#13252E" stroke-width="4.00667" stroke-linecap="round"/>
<path d="M120 150.3V160.3H140V140.3H40V160.3H60V150.3" stroke="#13252E" stroke-width="4.00667" stroke-linecap="round"/>
<path d="M60 150.3H80.6248M99.3748 150.3H120H99.3748Z" stroke="#13252E" stroke-width="4.00667"/>
<path d="M42.2612 150.236V158.075H57.9388V153.646C57.9388 150.724 58.0988 149.057 58.4092 148.747C58.7528 148.403 61.8608 148.276 69.9432 148.276C79.4792 148.276 81.0924 148.362 81.6232 148.892C82.108 149.377 82.2392 150.42 82.2392 153.792V158.075H97.9168V153.646C97.9168 150.724 98.0768 149.057 98.3872 148.747C98.7308 148.403 101.839 148.276 109.921 148.276C119.457 148.276 121.07 148.362 121.601 148.892C122.086 149.377 122.217 150.42 122.217 153.792V158.075H137.895V142.397H42.2612V150.236V150.236Z" fill="#13252E" stroke="#13252E" stroke-width="1.96287"/>
<path d="M49.39 141.9H131.152V137.877H49.39V141.9Z" fill="#13252E" stroke="#13252E" stroke-width="4.00667"/>
<path d="M120.668 120.802L140.455 139.805M39.468 139.838L59.2548 120.836L39.468 139.838Z" stroke="#13252E" stroke-width="4.00667"/>
<path d="M56.0744 124.225H123.925V112.375H56.0744V124.225Z" fill="#B3B3B3" stroke="#13252E" stroke-width="4.00667" stroke-linejoin="round"/>
<path d="M119.665 123.676L139.452 142.679M40.428 142.711L60.2148 123.708L40.428 142.711Z" stroke="#13252E" stroke-width="4.00667"/>
<path d="M57.5264 127.76H124.335V124.84H57.5268L57.5264 127.76Z" fill="#13252E" stroke="#13252E" stroke-width="3.08553"/>
<path d="M55.998 115.43H123.13V113.103H55.998V115.43Z" fill="#13252E" stroke="#13252E" stroke-width="2.76099"/>
<path d="M55.8928 122.214H61.7V115.562H55.8928V122.214ZM118.016 122.41H123.823V115.758H118.016V122.41Z" fill="#13252E" stroke="#13252E" stroke-width="1.37308"/>
</svg>
