<svg width="32" height="32" viewBox="0 0 32 32" fill="none" xmlns="http://www.w3.org/2000/svg">
<path d="M15.3174 4H16.6181V5.27478H18.023V6.21134H16.6181V7.39506C17.0431 7.40373 17.3943 7.47311 17.6718 7.60319C17.958 7.73327 18.1184 8.15386 18.1531 8.86495C18.075 9.32457 18.0273 9.65844 18.01 9.86656C17.9927 10.0747 17.9059 10.3522 17.7498 10.6991C18.2355 10.1441 18.9205 9.73215 19.8051 9.46332C20.6983 9.19449 21.5958 9.15113 22.4977 9.33324C23.3996 9.50668 24.2148 9.94461 24.9432 10.647C25.6803 11.3408 26.1443 12.3728 26.335 13.7429C25.9795 16.067 25.3204 17.7407 24.3578 18.764C23.4039 19.7786 22.7752 20.6371 22.4717 21.3395C22.463 22.068 22.502 23.0913 22.5888 24.4094C22.6755 25.7275 22.8056 26.9503 22.979 28.0776C20.7156 28.4939 18.3005 28.6803 15.7336 28.637C13.1667 28.5849 11.0594 28.4505 9.41177 28.2337C9.63724 26.9589 9.74998 25.7102 9.74998 24.4874C9.75865 23.2647 9.79767 22.2241 9.86705 21.3655C9.55486 20.8366 8.79607 19.9303 7.59067 18.6469C6.38527 17.3548 5.86495 15.6161 6.02972 13.4307C6.2205 12.3381 6.63676 11.4665 7.27848 10.8161C7.9202 10.1571 8.63997 9.7148 9.43779 9.48933C10.2443 9.25519 11.0464 9.23351 11.8443 9.42429C12.6421 9.60641 13.2968 9.98797 13.8084 10.569C13.6523 10.2741 13.5613 9.99664 13.5353 9.73648C13.5179 9.46765 13.4572 9.18582 13.3532 8.89097C13.4746 8.24925 13.7434 7.84167 14.1597 7.66823C14.5846 7.48612 14.9705 7.38639 15.3174 7.36905V6.21134H13.8995V5.27478H15.3174V4ZM21.4701 27.2581C21.2533 27.024 20.6072 26.8462 19.5319 26.7248C18.4566 26.5947 17.3032 26.5297 16.0718 26.5297C14.8404 26.5297 13.7087 26.5947 12.6768 26.7248C11.6448 26.8549 11.0724 27.0587 10.9597 27.3362C11.5321 27.4402 12.3039 27.527 13.2751 27.5963C14.255 27.6657 15.2653 27.7047 16.306 27.7134C17.3466 27.7134 18.3352 27.683 19.2718 27.6223C20.217 27.553 20.9498 27.4316 21.4701 27.2581ZM11.2199 22.172C11.1852 22.5709 11.1548 22.8484 11.1288 23.0045C11.1028 23.152 11.0941 23.4381 11.1028 23.8631C12.2475 23.4988 13.9299 23.3297 16.1499 23.3558C18.3786 23.3818 20.0522 23.6029 21.1709 24.0192C21.1882 23.7417 21.1926 23.4555 21.1839 23.1606C21.1753 22.8571 21.1666 22.5536 21.1579 22.2501C19.9178 22.0073 18.3916 21.8945 16.5791 21.9119C14.7667 21.9292 12.9803 22.0159 11.2199 22.172H11.2199ZM11.5451 10.7641C10.4784 10.504 9.55486 10.6557 8.77439 11.2194C8.00259 11.7831 7.63403 12.802 7.66872 14.2762C7.77278 16.1754 8.29309 17.5802 9.22966 18.4908C10.1662 19.3927 10.8687 20.1038 11.3369 20.6241C11.9353 20.5981 12.538 20.6024 13.145 20.6371C13.7607 20.6718 14.4155 20.6198 15.1092 20.481C15.2133 19.1976 15.1309 17.9792 14.8621 16.8258C14.6019 15.6638 14.2854 14.5104 13.9125 13.3657C13.6523 12.6199 13.3618 12.0736 13.041 11.7267C12.7201 11.3798 12.2215 11.059 11.5451 10.7641V10.7641ZM21.5872 10.608C20.7633 10.608 20.0956 10.7728 19.584 11.1023C19.081 11.4232 18.5173 12.2167 17.8929 13.4828C17.4246 14.8269 17.0821 15.9499 16.8653 16.8518C16.6485 17.7537 16.5878 18.9461 16.6832 20.429C17.6284 20.4203 18.565 20.4897 19.4929 20.6371C20.4295 20.7845 20.9628 20.7802 21.0929 20.6241C21.9254 19.5921 22.6581 18.6252 23.2912 17.7233C23.9329 16.8214 24.4316 15.7982 24.7871 14.6535C24.8565 13.6822 24.6657 12.7673 24.2148 11.9088C23.7638 11.0416 22.888 10.608 21.5872 10.608V10.608ZM15.9157 8.37065C15.3607 8.4487 14.9618 8.7739 14.719 9.34625C14.6756 9.79719 14.7754 10.6861 15.0182 12.0129C15.261 13.3397 15.5819 14.467 15.9808 15.3949C16.2756 14.6144 16.5401 13.5305 16.7742 12.1429C17.0084 10.7554 17.0734 9.87523 16.9694 9.50234C16.9694 9.27687 16.8826 9.04273 16.7092 8.79992C16.5444 8.5571 16.2799 8.41401 15.9157 8.37065ZM10.8426 25.1118C10.8426 25.2159 10.8296 25.3937 10.8036 25.6451C10.7776 25.888 10.7646 26.0571 10.7646 26.1525C12.7852 25.6581 14.7017 25.424 16.5141 25.45C18.3265 25.476 19.9829 25.6885 21.4831 26.0874C21.5091 26.1481 21.5265 26.0224 21.5351 25.7102C21.5438 25.398 21.5481 25.1985 21.5481 25.1118C20.0566 24.7129 18.3742 24.5004 16.5011 24.4744C14.6366 24.4397 12.7505 24.6522 10.8427 25.1118H10.8426Z" fill="black"/>
<path d="M21.4701 27.2581C21.2533 27.024 20.6072 26.8462 19.5319 26.7248C18.4566 26.5947 17.3032 26.5297 16.0718 26.5297C14.8404 26.5297 13.7087 26.5947 12.6767 26.7248C11.6448 26.8549 11.0724 27.0586 10.9597 27.3361C11.532 27.4402 12.3038 27.5269 13.2751 27.5963C14.255 27.6657 15.2653 27.7047 16.3059 27.7134C17.3466 27.7134 18.3352 27.683 19.2717 27.6223C20.217 27.5529 20.9497 27.4315 21.4701 27.2581ZM11.2198 22.172C11.1851 22.5709 11.1548 22.8484 11.1288 23.0045C11.1028 23.1519 11.0941 23.4381 11.1028 23.863C12.2475 23.4988 13.9298 23.3297 16.1498 23.3557C18.3785 23.3818 20.0522 23.6029 21.1709 24.0191C21.1882 23.7416 21.1926 23.4555 21.1839 23.1606C21.1752 22.8571 21.1666 22.5536 21.1579 22.2501C19.9178 22.0072 18.3915 21.8945 16.5791 21.9119C14.7667 21.9292 12.9802 22.0159 11.2198 22.172ZM11.545 10.7641C10.4784 10.5039 9.55483 10.6557 8.77435 11.2194C8.00255 11.783 7.63399 12.802 7.66868 14.2762C7.77274 16.1754 8.29306 17.5802 9.22963 18.4908C10.1662 19.3927 10.8686 20.1038 11.3369 20.6241C11.9353 20.5981 12.538 20.6024 13.145 20.6371C13.7607 20.6718 14.4154 20.6197 15.1092 20.481C15.2133 19.1975 15.1309 17.9791 14.862 16.8258C14.6019 15.6637 14.2854 14.5104 13.9125 13.3657C13.6523 12.6199 13.3618 12.0736 13.0409 11.7267C12.7201 11.3798 12.2214 11.0589 11.545 10.7641ZM21.5871 10.608C20.7633 10.608 20.0956 10.7728 19.5839 11.1023C19.0809 11.4232 18.5173 12.2166 17.8929 13.4827C17.4246 14.8269 17.0821 15.9499 16.8653 16.8518C16.6485 17.7537 16.5878 18.9461 16.6832 20.429C17.6284 20.4203 18.565 20.4897 19.4929 20.6371C20.4294 20.7845 20.9628 20.7802 21.0928 20.6241C21.9253 19.5921 22.6581 18.6252 23.2912 17.7233C23.9329 16.8214 24.4315 15.7981 24.7871 14.6534C24.8564 13.6822 24.6657 12.7673 24.2147 11.9088C23.7638 11.0416 22.8879 10.608 21.5871 10.608ZM15.9157 8.37064C15.3607 8.44868 14.9618 8.77388 14.719 9.34623C14.6756 9.79717 14.7753 10.686 15.0181 12.0128C15.261 13.3397 15.5818 14.467 15.9807 15.3949C16.2756 14.6144 16.5401 13.5304 16.7742 12.1429C17.0084 10.7554 17.0734 9.87522 16.9693 9.50232C16.9693 9.27685 16.8826 9.04271 16.7092 8.7999C16.5444 8.55708 16.2799 8.414 15.9157 8.37064ZM10.8426 25.1118C10.8426 25.2159 10.8296 25.3936 10.8036 25.6451C10.7776 25.8879 10.7646 26.057 10.7646 26.1524C12.7851 25.6581 14.7016 25.424 16.5141 25.45C18.3265 25.476 19.9828 25.6885 21.4831 26.0874C21.5091 26.1481 21.5264 26.0224 21.5351 25.7102C21.5438 25.398 21.5481 25.1985 21.5481 25.1118C20.0565 24.7129 18.3742 24.5004 16.5011 24.4744C14.6366 24.4397 12.7504 24.6522 10.8426 25.1118Z" fill="white"/>
</svg>
