<svg width="180" height="180" viewBox="0 0 180 180" fill="none" xmlns="http://www.w3.org/2000/svg">
<path d="M86.1604 22.5H93.4768V29.6706H101.379V34.9388H93.4768V41.5972C95.8674 41.646 97.843 42.0362 99.4039 42.7679C101.014 43.4996 101.916 45.8655 102.111 49.8653C101.672 52.4507 101.404 54.3287 101.306 55.4994C101.209 56.6702 100.721 58.2311 99.8426 60.1824C102.575 57.0606 106.428 54.7433 111.404 53.2312C116.428 51.719 121.476 51.4751 126.55 52.4995C131.623 53.4751 136.208 55.9384 140.306 59.8894C144.452 63.792 147.062 69.597 148.134 77.3038C146.135 90.3769 142.427 99.7914 137.013 105.547C131.647 111.255 128.111 116.084 126.403 120.035C126.354 124.133 126.574 129.889 127.062 137.303C127.55 144.717 128.282 151.595 129.257 157.937C116.525 160.278 102.94 161.327 88.5015 161.083C74.0627 160.79 62.2091 160.034 52.9412 158.815C54.2095 151.644 54.8436 144.62 54.8436 137.742C54.8924 130.864 55.1119 125.011 55.5022 120.181C53.7461 117.206 49.4779 112.108 42.6975 104.889C35.9172 97.6208 32.9904 87.8406 33.9172 75.5477C34.9903 69.4018 37.3318 64.4991 40.9415 60.8406C44.5511 57.1337 48.5998 54.6458 53.0876 53.3775C57.6242 52.0604 62.136 51.9385 66.6242 53.0116C71.1118 54.0361 74.7945 56.1823 77.6723 59.4506C76.7942 57.7918 76.2823 56.2311 76.1361 54.7677C76.0382 53.2555 75.6968 51.6702 75.1118 50.0117C75.7946 46.402 77.3066 44.1094 79.6483 43.1338C82.0384 42.1094 84.2091 41.5484 86.1604 41.4509V34.9388H78.1847V29.6706H86.1604V22.5ZM120.769 153.327C119.55 152.01 115.916 151.01 109.867 150.327C103.818 149.595 97.3305 149.23 90.4039 149.23C83.4773 149.23 77.1114 149.595 71.307 150.327C65.502 151.059 62.2823 152.205 61.6483 153.766C64.8681 154.351 69.2094 154.839 74.6724 155.229C80.1844 155.62 85.8673 155.839 91.7213 155.888C97.5746 155.888 103.136 155.717 108.404 155.375C113.721 154.986 117.843 154.303 120.769 153.327ZM63.1119 124.718C62.9168 126.961 62.7458 128.522 62.5995 129.4C62.4533 130.23 62.4043 131.839 62.4533 134.23C68.8922 132.181 78.3557 131.23 90.8432 131.376C103.38 131.523 112.794 132.766 119.086 135.108C119.184 133.547 119.208 131.937 119.159 130.278C119.111 128.571 119.062 126.864 119.013 125.157C112.038 123.791 103.453 123.157 93.2574 123.254C83.0627 123.352 73.0142 123.839 63.1119 124.718ZM64.9412 60.5481C58.941 59.085 53.7461 59.9383 49.356 63.1091C45.0146 66.2799 42.9414 72.0113 43.1366 80.3036C43.7219 90.9866 46.6486 98.8886 51.9168 104.011C57.1849 109.084 61.1364 113.084 63.7701 116.011C67.1361 115.864 70.5263 115.889 73.9406 116.084C77.4039 116.279 81.0872 115.986 84.9893 115.206C85.5748 107.987 85.1113 101.133 83.5993 94.6451C82.1357 88.1089 80.3554 81.621 78.2578 75.1821C76.7942 70.9869 75.1601 67.914 73.3556 65.9627C71.5506 64.0114 68.7459 62.2069 64.9412 60.5481ZM121.428 59.67C116.794 59.67 113.038 60.597 110.16 62.4504C107.331 64.2555 104.16 68.7189 100.648 75.8407C98.0134 83.4013 96.0868 89.7182 94.8673 94.7914C93.6478 99.8646 93.3064 106.572 93.843 114.913C99.1598 114.864 104.428 115.255 109.648 116.084C114.916 116.913 117.916 116.889 118.648 116.011C123.33 110.206 127.452 104.767 131.013 99.6936C134.623 94.6204 137.428 88.8649 139.427 82.4259C139.818 76.9624 138.745 71.8161 136.208 66.987C133.671 62.109 128.745 59.67 121.428 59.67ZM89.5258 47.0849C86.4039 47.5239 84.1601 49.3532 82.7944 52.5727C82.5503 55.1092 83.1116 60.1093 84.4774 67.5726C85.8431 75.0358 87.6482 81.3769 89.892 86.5963C91.5503 82.206 93.0381 76.1091 94.3549 68.3038C95.6723 60.4991 96.0379 55.5482 95.4529 53.4507C95.4529 52.1824 94.9646 50.8654 93.9893 49.4996C93.0623 48.1337 91.5744 47.3288 89.5258 47.0849ZM60.9896 141.254C60.9896 141.839 60.9165 142.84 60.7703 144.254C60.624 145.62 60.5509 146.571 60.5509 147.108C71.9168 144.327 82.6971 143.01 92.8918 143.156C103.087 143.303 112.404 144.498 120.842 146.742C120.989 147.083 121.087 146.376 121.135 144.62C121.184 142.864 121.208 141.742 121.208 141.254C112.818 139.01 103.355 137.815 92.8187 137.668C82.3309 137.473 71.7216 138.669 60.9902 141.254H60.9896Z" fill="black"/>
<path d="M120.769 153.327C119.55 152.01 115.916 151.01 109.867 150.327C103.818 149.595 97.3305 149.23 90.4039 149.23C83.4773 149.23 77.1114 149.595 71.3064 150.327C65.502 151.059 62.2823 152.205 61.6483 153.766C64.8675 154.351 69.2089 154.839 74.6724 155.229C80.1844 155.62 85.8673 155.839 91.7207 155.888C97.5746 155.888 103.136 155.717 108.403 155.375C113.721 154.985 117.842 154.302 120.769 153.327ZM63.1114 124.717C62.9162 126.961 62.7458 128.522 62.5995 129.4C62.4533 130.229 62.4043 131.839 62.4533 134.229C68.8922 132.181 78.3551 131.23 90.8426 131.376C103.379 131.523 112.794 132.766 119.086 135.107C119.184 133.546 119.208 131.937 119.159 130.278C119.111 128.571 119.062 126.864 119.013 125.157C112.038 123.79 103.452 123.157 93.2574 123.254C83.0627 123.352 73.0136 123.839 63.1114 124.717ZM64.9406 60.548C58.941 59.0844 53.7459 59.9383 49.3557 63.1091C45.0144 66.2794 42.9412 72.0112 43.1363 80.3036C43.7217 90.9866 46.6485 98.8886 51.9167 104.011C57.1849 109.084 61.1359 113.084 63.7701 116.011C67.1361 115.864 70.5263 115.888 73.9406 116.084C77.404 116.279 81.0866 115.986 84.9893 115.206C85.5748 107.986 85.1113 101.132 83.5988 94.6451C82.1357 88.1083 80.3554 81.621 78.2578 75.182C76.7942 70.9869 75.1601 67.914 73.3551 65.9627C71.5506 64.0114 68.7454 62.2063 64.9406 60.548ZM121.427 59.67C116.794 59.67 113.038 60.597 110.159 62.4504C107.33 64.2555 104.16 68.7184 100.648 75.8402C98.0134 83.4013 96.0868 89.7182 94.8673 94.7914C93.6478 99.8645 93.3064 106.572 93.843 114.913C99.1598 114.864 104.428 115.255 109.648 116.084C114.915 116.913 117.916 116.889 118.647 116.011C123.33 110.206 127.452 104.767 131.013 99.6935C134.623 94.6204 137.427 88.8643 139.427 82.4254C139.817 76.9624 138.745 71.816 136.208 66.987C133.671 62.109 128.744 59.67 121.427 59.67ZM89.5258 47.0848C86.404 47.5238 84.1601 49.3531 82.7944 52.5725C82.5503 55.1091 83.1111 60.1087 84.4768 67.572C85.8431 75.0358 87.6476 81.3769 89.8914 86.5963C91.5503 82.206 93.0381 76.1085 94.3549 68.3038C95.6723 60.4991 96.0379 55.5481 95.4523 53.4505C95.4523 52.1823 94.9646 50.8652 93.9893 49.4994C93.0623 48.1336 91.5745 47.3287 89.5258 47.0848ZM60.9896 141.254C60.9896 141.839 60.9165 142.839 60.7703 144.254C60.624 145.619 60.5509 146.571 60.5509 147.107C71.9162 144.327 82.6965 143.01 92.8918 143.156C103.087 143.302 112.403 144.498 120.842 146.742C120.989 147.083 121.086 146.376 121.135 144.62C121.184 142.864 121.208 141.742 121.208 141.254C112.818 139.01 103.355 137.815 92.8187 137.668C82.3309 137.473 71.721 138.669 60.9896 141.254Z" fill="white"/>
</svg>
