<svg width="180" height="180" viewBox="0 0 180 180" fill="none" xmlns="http://www.w3.org/2000/svg">
<path d="M43.7833 106.855C37.9785 107.587 35.6127 109.245 36.6858 111.831C37.4175 113.782 39.0273 114.099 41.515 112.782C44.0027 111.465 44.7589 109.49 43.7833 106.855ZM70.7828 61.2709C66.2951 61.0757 63.0023 62.3441 60.9047 65.0756C58.8561 67.7582 58.4904 70.4655 59.8072 73.1976C62.8318 73.3438 64.8073 73.0997 65.7343 72.4658C66.6608 71.7829 67.1974 69.8316 67.3436 66.6124C68.0265 65.5875 68.49 64.6121 68.7341 63.6851C68.9777 62.7098 69.6611 61.9048 70.7828 61.2709ZM93.9043 49.9295L93.9774 54.5392C103.929 61.1246 111.684 68.6363 117.245 77.0754C122.806 85.5141 126.928 94.3678 129.611 103.636C132.294 112.855 133.904 122.245 134.44 131.806C135.025 141.318 135.318 150.44 135.318 159.171H140.294C139.611 145.659 138.855 133.831 138.026 123.684C137.245 113.489 135.416 104.221 132.538 95.8798C129.66 87.5385 125.245 79.7338 119.294 72.4658C113.343 65.1977 104.88 57.6855 93.9043 49.9295ZM61.1977 165.098C61.0515 161.147 61.3193 156.879 62.0027 152.293C62.7339 147.66 63.7341 143.782 65.0025 140.659C68.661 135.391 71.4656 131.392 73.4169 128.66C75.4166 125.88 77.1244 123.465 78.5385 121.416C79.9532 119.367 81.3921 117.221 82.8557 114.977C84.3193 112.733 86.4169 109.441 89.1484 105.099C90.4168 99.8797 92.7337 95.0018 96.0992 90.4652C99.5141 85.8803 98.514 84.4166 93.0994 86.0754C91.9288 90.2216 91.4653 93.4897 91.7094 95.8798C91.953 98.2215 91.2701 100.904 89.6602 103.929C87.3191 107.148 84.0752 108.88 79.929 109.123C75.8312 109.367 70.7096 111.173 64.5632 114.538C62.6608 116.587 60.9536 118.904 59.4416 121.489C57.978 124.075 56.1489 126.44 53.9538 128.586C51.1734 129.464 49.2222 129.44 48.1003 128.513C48.6856 127.635 49.4173 126.806 50.2953 126.026C51.1734 125.196 51.6855 124.001 51.8319 122.441C51.1002 123.319 49.8563 124.562 48.1003 126.172C46.393 127.733 44.515 128.099 42.4662 127.27C40.4175 126.099 37.5639 123.757 33.9054 120.245C30.2957 116.684 28.3689 113.831 28.125 111.684C29.2469 106.514 31.8323 99.9287 35.881 91.9288C39.9297 83.88 43.271 77.7336 45.9052 73.4901C47.0271 65.1488 49.2709 59.8072 52.6368 57.4661C56.0513 55.0757 59.4416 52.6123 62.8071 50.0758C60.1734 44.6124 58.2221 40.8808 56.9537 38.8808C55.7342 36.8321 55.783 35.1736 57.0999 33.9054C58.4173 33.4663 61.1241 34.4663 65.2219 36.9053C69.3191 39.2955 72.3437 41.8808 74.295 44.6613C75.7581 44.3198 76.2947 44.1735 75.9043 44.2222C75.5145 44.2711 75.6849 44.2955 76.4168 44.2955C77.2948 39.4663 77.4169 35.7103 76.7824 33.0274C76.1484 30.2957 76.563 28.6616 78.0266 28.125C83.7337 28.4177 87.5143 31.2713 89.3677 36.6858C91.2701 42.0516 92.5627 44.8564 93.2456 45.1003C100.807 47.832 106.489 50.7588 110.294 53.8806C114.148 56.9537 120.27 63.3684 128.66 73.1244C133.684 79.7096 137.611 88.1972 140.44 98.5871C143.318 108.977 145.367 119.099 146.586 128.953C147.854 138.806 148.464 147.293 148.416 154.415C148.367 161.537 147.952 165.098 147.171 165.098H61.1977Z" fill="black"/>
<path d="M43.7834 106.855C37.9786 107.587 35.6128 109.245 36.686 111.831C37.4177 113.782 39.0274 114.099 41.5152 112.782C44.0029 111.465 44.759 109.49 43.7834 106.855ZM70.7828 61.2709C66.2952 61.0757 63.0028 62.3436 60.9053 65.0756C58.8561 67.7582 58.4905 70.4655 59.8073 73.1976C62.8318 73.3438 64.8073 73.0997 65.7343 72.4658C66.6608 71.7829 67.1974 69.8316 67.3442 66.6118C68.0271 65.5875 68.49 64.6121 68.7342 63.6851C68.9783 62.7098 69.6612 61.9048 70.7828 61.2709ZM93.9043 49.9294L93.9775 54.5391C103.929 61.1246 111.684 68.6363 117.245 77.0755C122.806 85.5141 126.928 94.3678 129.611 103.636C132.294 112.855 133.904 122.245 134.44 131.806C135.026 141.318 135.318 150.44 135.318 159.171H140.294C139.611 145.659 138.855 133.831 138.026 123.684C137.245 113.489 135.416 104.221 132.538 95.8798C129.66 87.5385 125.245 79.7338 119.294 72.4658C113.343 65.1977 104.88 57.6855 93.9043 49.9294Z" fill="#EEEEEE"/>
</svg>
