<svg width="180" height="180" viewBox="0 0 180 180" fill="none" xmlns="http://www.w3.org/2000/svg">
<path d="M74.286 158.577H139.407C139.309 156.089 139.138 151.797 138.894 145.699C138.7 139.553 138.09 132.699 137.066 125.139C136.041 117.578 134.407 109.846 132.163 101.944C129.968 94.0416 126.821 87.0907 122.724 81.0906C116.675 73.2369 111.797 67.8471 108.09 64.9204C104.383 61.9931 98.9927 59.1885 91.9198 56.5059C91.1391 56.8474 90.8708 57.5055 91.1149 58.4814C91.4074 59.4079 91.2611 60.5301 90.6756 61.8469C90.9686 59.6031 91.0907 58.3594 91.0417 58.1153C90.9928 57.8228 90.9928 56.7984 91.0417 55.0423C90.5541 52.7009 90.0416 49.9692 89.505 46.8473C89.0173 43.6767 87.4322 41.945 84.7491 41.6523C84.6028 43.8474 84.4566 45.7742 84.3103 47.4327C84.1635 49.0424 83.9931 51.018 83.7979 53.3594C83.4075 53.3594 82.359 53.5789 80.6518 54.0179C78.9441 54.4082 77.7246 54.7009 76.9933 54.896C76.2615 53.9204 75.1393 52.457 73.6273 50.5058C72.1153 48.5058 70.92 47.579 70.0419 47.7254C69.3101 48.7985 69.4569 50.2131 70.4812 51.9692C71.5056 53.6765 72.2858 55.3106 72.8224 56.8716C71.2125 59.5547 68.6031 61.6033 64.9935 63.018C61.3834 64.3838 59.0423 68.2127 57.969 74.5054C56.5059 78.7494 53.457 85.2126 48.8229 93.8953C44.2376 102.529 41.1645 109.334 39.6035 114.31C39.7499 116.212 40.9694 118.309 43.262 120.602C45.5547 122.895 47.4327 124.334 48.896 124.919C50.9448 124.382 52.896 123.187 54.7496 121.334C56.6032 119.48 57.8717 118.187 58.5546 117.456C59.481 118.773 59.8472 120.066 59.652 121.334C59.5058 122.602 59.5299 123.456 59.7251 123.895C60.1644 122.724 60.8226 120.748 61.7006 117.968C62.5787 115.188 63.4815 113.334 64.4079 112.407C69.4322 110.261 73.6273 108.846 76.9933 108.163C80.4077 107.48 84.2614 105.358 88.5538 101.797C90.6514 96.6757 92.0661 91.7736 92.7979 87.0907C93.5781 82.4079 94.9686 79.7979 96.9683 79.2613C98.2367 81.1637 99.1147 83.4323 99.6024 86.0659C100.139 88.7001 100.115 96.0418 99.5293 108.09C97.2855 112.822 94.6271 117.187 91.5536 121.187C88.5296 125.139 83.4806 132.236 76.4078 142.48C75.5297 144.87 74.9931 147.309 74.7979 149.797C74.6516 152.285 74.4812 155.211 74.286 158.577ZM74.7247 65.5785C73.6515 66.1641 72.9934 66.9201 72.7492 67.8471C72.5051 68.7735 72.0664 69.7005 71.4324 70.6275C71.2862 73.7494 70.7738 75.6276 69.8957 76.2615C69.0176 76.8954 67.1152 77.1396 64.1886 76.9933C62.9201 74.3591 63.2863 71.7491 65.286 69.1639C67.2862 66.5297 70.4323 65.3349 74.7247 65.5785ZM47.5058 110.651C47.3595 112.017 47.14 113.139 46.8473 114.017C46.5546 114.846 45.384 115.163 43.3352 114.968C42.6035 114.919 42.4816 114.261 42.9694 112.993C43.4571 111.724 44.9693 110.944 47.5058 110.651ZM65.5054 165.236C65.3591 161.431 65.6274 157.333 66.3103 152.943C67.0421 148.504 67.9933 144.772 69.1639 141.748C72.7251 136.723 75.4324 132.895 77.2858 130.26C79.1882 127.578 80.8223 125.26 82.188 123.31C83.5538 121.309 84.9443 119.236 86.3589 117.09C87.7736 114.895 89.7733 111.724 92.3586 107.578C93.5781 102.602 94.4561 99.0906 94.9927 97.0414C95.5294 94.9438 95.9197 92.3833 96.1633 89.3587C94.9927 93.3097 94.3341 95.7487 94.1878 96.6758C94.0416 97.6028 93.3097 100.285 91.9929 104.725C89.7002 107.798 86.7246 109.749 83.0661 110.578C79.4076 111.407 74.6516 113.431 68.7982 116.651C66.9442 118.602 65.286 120.822 63.8224 123.31C62.4082 125.797 60.6763 128.065 58.6277 130.114C55.896 130.943 53.9935 130.943 52.9204 130.114C53.5057 129.285 54.213 128.48 55.0423 127.699C55.9203 126.919 56.4323 125.773 56.5791 124.261C55.8472 125.09 54.6277 126.26 52.9204 127.772C51.2619 129.285 49.457 129.651 47.5058 128.87C45.5547 127.797 42.823 125.553 39.3109 122.138C35.8475 118.724 33.9939 115.993 33.75 113.944C34.872 108.968 37.3597 102.627 41.2133 94.9196C45.1156 87.2122 48.3107 81.3099 50.7985 77.2127C51.9204 69.2128 54.0911 64.0907 57.3103 61.8469C60.579 59.6031 63.8224 57.2619 67.0421 54.8228C64.5542 49.5546 62.7008 45.9449 61.4813 43.9937C60.3107 42.0425 60.3591 40.4572 61.6275 39.2377C62.8959 38.7987 65.4812 39.7499 69.3832 42.0913C73.2859 44.384 76.1884 46.8961 78.0908 49.6277C79.4565 49.2863 79.9684 49.14 79.6269 49.1888C79.2855 49.1888 79.4565 49.1888 80.1394 49.1888C80.9685 44.5547 81.0906 40.945 80.505 38.3597C79.92 35.7744 80.3098 34.2378 81.6761 33.75C87.1391 33.9939 90.7734 36.7256 92.5779 41.945C94.4319 47.1156 95.6514 49.7985 96.2364 49.9936C103.504 52.6277 109.139 55.2618 113.139 57.8959C117.187 60.5301 122.894 66.8711 130.26 76.9202C135.529 83.115 139.553 91.2122 142.333 101.212C145.114 111.163 147.04 120.895 148.114 130.407C149.236 139.87 149.699 148.04 149.504 154.919C149.309 161.796 148.845 165.236 148.114 165.236H65.5054Z" fill="black"/>
<path d="M74.286 158.577H139.407C139.309 156.089 139.138 151.797 138.894 145.699C138.699 139.553 138.09 132.699 137.065 125.139C136.041 117.578 134.407 109.846 132.163 101.944C129.968 94.0415 126.821 87.0907 122.724 81.0905C116.675 73.2369 111.797 67.847 108.09 64.9204C104.383 61.9931 98.9927 59.1885 91.9198 56.5054C91.139 56.8474 90.8707 57.5055 91.1148 58.4814C91.4073 59.4079 91.2611 60.53 90.6755 61.8469C90.9686 59.603 91.0901 58.3594 91.0417 58.1152C90.9928 57.8227 90.9928 56.7984 91.0417 55.0422C90.554 52.7008 90.0416 49.9692 89.505 46.8473C89.0173 43.6766 87.4316 41.9449 84.749 41.6523C84.6028 43.8473 84.4565 45.7741 84.3097 47.4326C84.1635 49.0423 83.993 51.0179 83.7978 53.3593C83.4075 53.3593 82.359 53.5788 80.6518 54.0179C78.944 54.4081 77.7245 54.7008 76.9933 54.8959C76.2615 53.9203 75.1393 52.4569 73.6273 50.5057C72.1153 48.5058 70.92 47.579 70.0419 47.7253C69.3101 48.7984 69.4563 50.2131 70.4812 51.9691C71.5055 53.6764 72.2857 55.3105 72.8223 56.8715C71.2125 59.5541 68.603 61.6033 64.9935 63.018C61.3833 64.3837 59.0422 68.2127 57.969 74.5054C56.5053 78.7494 53.4569 85.2125 48.8228 93.8953C44.2375 102.529 41.1644 109.334 39.6035 114.31C39.7498 116.212 40.9693 118.309 43.2619 120.602C45.5546 122.894 47.4326 124.334 48.896 124.919C50.9447 124.382 52.8959 123.187 54.7495 121.333C56.6032 119.48 57.8717 118.187 58.5545 117.456C59.481 118.773 59.8472 120.066 59.652 121.333C59.5057 122.602 59.5299 123.456 59.7251 123.895C60.1638 122.724 60.8225 120.748 61.7006 117.968C62.5787 115.188 63.4809 113.334 64.4079 112.407C69.4322 110.261 73.6273 108.846 76.9933 108.163C80.4077 107.48 84.2613 105.358 88.5538 101.797C90.6513 96.6757 92.066 91.7735 92.7978 87.0907C93.578 82.4074 94.9685 79.7979 96.9682 79.2613C98.2367 81.1637 99.1147 83.4322 99.6024 86.0659C100.139 88.7 100.115 96.0418 99.5293 108.09C97.2855 112.822 94.6271 117.187 91.5536 121.187C88.5296 125.139 83.4806 132.236 76.4077 142.48C75.5297 144.87 74.993 147.309 74.7978 149.797C74.6516 152.284 74.4812 155.211 74.286 158.577ZM74.7247 65.5785C73.6515 66.164 72.9933 66.92 72.7492 67.847C72.5051 68.7735 72.0663 69.7005 71.4324 70.6275C71.2856 73.7494 70.7737 75.627 69.8957 76.2615C69.0176 76.8954 67.1152 77.1395 64.1885 76.9933C62.9201 74.3591 63.2857 71.7491 65.286 69.1639C67.2857 66.5297 70.4323 65.3349 74.7247 65.5785ZM47.5057 110.651C47.3594 112.017 47.1399 113.139 46.8472 114.017C46.5545 114.846 45.3838 115.163 43.3351 114.968C42.6034 114.919 42.4814 114.261 42.9692 112.992C43.457 111.724 44.9692 110.944 47.5057 110.651Z" fill="white"/>
</svg>
