<svg width="32" height="32" viewBox="0 0 32 32" fill="none" xmlns="http://www.w3.org/2000/svg">
<path d="M11.1397 21.0366C11.1397 21.1927 11.1354 21.4095 11.1267 21.687C11.118 21.9645 11.1137 22.1726 11.1137 22.3114C13.1689 21.8171 14.9077 21.5353 16.3299 21.4659C17.752 21.3878 19.5688 21.6133 21.7802 22.1423C21.7802 22.0122 21.7715 21.8041 21.7542 21.5179C21.7455 21.2231 21.7411 21.0063 21.7411 20.8675C20.2322 20.3732 18.5369 20.1261 16.6551 20.1261C14.7732 20.1261 12.9348 20.4296 11.1397 21.0366H11.1397ZM11.1137 24.7569C11.1137 24.8609 11.1007 25.1124 11.0747 25.5113C11.0487 25.9102 11.0357 26.1531 11.0357 26.2398C13.0476 25.7802 14.9857 25.5677 16.8502 25.6024C18.7147 25.6371 20.3927 25.8409 21.8842 26.2138C21.9189 26.0577 21.9189 25.7888 21.8842 25.4073C21.8582 25.017 21.8452 24.7786 21.8452 24.6918C20.3537 24.3276 18.667 24.1412 16.7852 24.1325C14.912 24.1238 13.0215 24.332 11.1137 24.7569ZM11.1007 22.9228C11.1007 23.1049 11.1007 23.3173 11.1007 23.5602C11.1094 23.7943 11.1137 23.9938 11.1137 24.1585C12.7527 23.6902 14.4221 23.4214 16.1218 23.352C17.8214 23.2827 19.7206 23.5211 21.8192 24.0675C21.8365 23.816 21.8365 23.6165 21.8192 23.4691C21.8019 23.3217 21.7889 23.1049 21.7802 22.8187C19.9764 22.3851 18.1987 22.164 16.4469 22.1553C14.7039 22.1466 12.9218 22.4024 11.1007 22.9228H11.1007ZM21.9493 27.4885C22.1487 27.4625 22.2485 27.3801 22.2485 27.2414C22.2485 27.1026 22.1574 27.0029 21.9753 26.9422C21.455 26.7688 20.7092 26.6257 19.7379 26.5129C18.7754 26.3915 17.7607 26.3178 16.6941 26.2918C15.6361 26.2571 14.6172 26.2788 13.6372 26.3569C12.6573 26.4349 11.8942 26.578 11.3478 26.7861C11.1397 26.8642 11.0183 26.9769 10.9836 27.1243C10.9576 27.2717 11.053 27.3931 11.2698 27.4885C12.6833 27.74 14.5348 27.8441 16.8242 27.8007C19.1136 27.7487 20.8219 27.6446 21.9493 27.4885ZM26.1248 9.27748C27.1481 9.29483 27.6901 9.94522 27.7508 11.2287C27.7074 12.2433 27.0657 12.6986 25.8256 12.5945C25.2533 14.4763 24.6549 16.3148 24.0305 18.1098C23.4062 19.9049 22.9986 20.7678 22.8078 20.6984C22.7991 21.3748 22.7774 22.5195 22.7428 24.1325C22.7081 25.7455 22.8989 27.0853 23.3151 28.1519C21.0517 28.5422 18.6366 28.7156 16.0697 28.6723C13.5028 28.6202 11.3955 28.4945 9.74787 28.295C10.1121 26.3438 10.2595 24.8176 10.1901 23.7162C10.1294 22.6149 10.1338 21.661 10.2032 20.8545C9.68284 20.5683 9.14952 19.532 8.60319 17.7456C8.06553 15.9592 7.49318 14.0774 6.88614 12.1002C6.66067 12.1436 6.28778 12.0785 5.76747 11.9051C5.25582 11.723 5 11.2677 5 10.5392C5.02602 9.78479 5.26016 9.27748 5.70243 9.01732C6.1447 8.75717 6.54794 8.62709 6.91216 8.62709C7.12029 8.62709 7.4715 8.72681 7.9658 8.92627C8.4601 9.12572 8.70292 9.55498 8.69424 10.2141C8.71158 10.6823 8.62052 11.0422 8.42108 11.2937C8.23029 11.5452 8.06553 11.7143 7.92678 11.801C8.36037 12.4774 8.69424 12.9891 8.92838 13.3359C9.16253 13.6828 9.38366 14.021 9.59179 14.3506C9.80858 14.6801 10.0557 15.079 10.3332 15.5473C10.6194 16.0156 11.0313 16.7093 11.569 17.6286C11.3869 16.1457 11.2395 14.563 11.1267 12.8807C11.014 11.1896 10.9056 10.084 10.8015 9.56366C10.4893 9.56366 10.2205 9.39455 9.99503 9.05635C9.77823 8.70947 9.66983 8.44064 9.66983 8.24986C9.68717 7.59946 9.86928 7.13551 10.2162 6.85801C10.5717 6.57184 10.9706 6.42442 11.4129 6.41574C11.6123 6.41574 11.9636 6.48946 12.4665 6.63688C12.9695 6.7843 13.2383 7.22223 13.273 7.95068C13.273 8.13279 13.1993 8.40162 13.0519 8.75717C12.9131 9.11272 12.6443 9.33385 12.2454 9.42057C12.5576 10.0623 12.9782 11.2417 13.5072 12.9587C14.0362 14.6671 14.4567 15.8855 14.7689 16.6139L15.9136 8.24986C15.5147 8.2672 15.1765 8.08076 14.899 7.69052C14.6215 7.30028 14.4828 7.01411 14.4828 6.832C14.4567 6.27699 14.6562 5.83472 15.0811 5.50519C15.506 5.17566 15.9743 5.01089 16.486 5.01089C16.9543 4.95886 17.3835 5.09327 17.7738 5.41414C18.164 5.735 18.3548 6.16859 18.3461 6.71493C18.3461 6.95774 18.2507 7.26126 18.0599 7.62548C17.8691 7.9897 17.583 8.19349 17.2014 8.23685L18.2941 16.796L20.8956 9.56366C20.6962 9.45959 20.4837 9.3035 20.2583 9.09537C20.0415 8.87857 19.9764 8.57072 20.0631 8.17181C20.1238 7.46071 20.41 7.00977 20.9217 6.81899C21.4333 6.61953 21.7932 6.51981 22.0013 6.51981C22.2094 6.51981 22.5737 6.66289 23.094 6.94907C23.6143 7.22657 23.8745 7.69485 23.8745 8.35392C23.8831 8.95228 23.714 9.34686 23.3671 9.53764C23.0289 9.72842 22.6517 9.80647 22.2355 9.77178L21.3249 17.6676L24.9151 12.2303C24.707 12.1002 24.5118 11.9137 24.3297 11.6709C24.1563 11.4194 24.0869 11.1723 24.1216 10.9295C24.191 10.4612 24.4251 10.0666 24.824 9.74577C25.2229 9.4249 25.6565 9.26881 26.1248 9.27748H26.1248ZM26.1638 10.162C25.9817 10.162 25.7909 10.2487 25.5915 10.4222C25.392 10.5956 25.2923 10.8124 25.2923 11.0726C25.2923 11.3501 25.379 11.5322 25.5525 11.6189C25.7259 11.7056 25.895 11.749 26.0598 11.749C26.2245 11.749 26.3936 11.6883 26.5671 11.5669C26.7492 11.4455 26.8402 11.2807 26.8402 11.0726C26.8402 10.8818 26.7709 10.6823 26.6321 10.4742C26.502 10.2661 26.3459 10.162 26.1638 10.162ZM22.0013 7.37833C21.4897 7.37833 21.2338 7.66884 21.2338 8.24986C21.2338 8.78752 21.5027 9.04768 22.0403 9.03033C22.2918 9.03033 22.4869 8.93928 22.6257 8.75717C22.7644 8.57506 22.8251 8.39294 22.8078 8.21083C22.7905 8.02872 22.7037 7.84661 22.5476 7.6645C22.4002 7.47372 22.2181 7.37833 22.0013 7.37833ZM16.499 5.88242C16.3169 5.88242 16.1174 5.94312 15.9006 6.06453C15.6925 6.17727 15.5884 6.38973 15.5884 6.70192C15.5884 7.02278 15.6881 7.24391 15.8876 7.36532C16.0957 7.47806 16.3125 7.53442 16.538 7.53442C17.093 7.53442 17.3965 7.24825 17.4485 6.6759C17.4659 6.44176 17.3575 6.25098 17.1234 6.10355C16.8892 5.95613 16.6811 5.88242 16.499 5.88242ZM11.4909 7.43036C11.0053 7.43036 10.7842 7.65583 10.8275 8.10677C10.8535 8.60107 11.0617 8.83088 11.4519 8.79619C11.9722 8.7615 12.2324 8.51435 12.2324 8.05474C12.2324 7.63849 11.9852 7.43036 11.4909 7.43036ZM6.9902 9.56366C6.45254 9.56366 6.18371 9.83249 6.18371 10.3701C6.18371 10.7344 6.43953 10.9165 6.95118 10.9165C7.3761 10.9165 7.58856 10.7344 7.58856 10.3701C7.58856 10.2661 7.56688 10.1057 7.52352 9.88885C7.48016 9.67205 7.30239 9.56366 6.9902 9.56366ZM16.603 9.6287L15.1592 19.2675L17.8388 19.3326C17.7607 19.0291 17.6523 18.3743 17.5136 17.3684C17.3835 16.3538 17.2491 15.2915 17.1103 14.1815C16.9716 13.0628 16.8502 12.0525 16.7461 11.1506C16.6507 10.2401 16.603 9.73276 16.603 9.6287ZM12.1673 11.71C12.1934 12.6379 12.2454 13.9863 12.3234 15.7554C12.4015 17.5158 12.4795 18.8513 12.5576 19.7618C12.757 19.7185 13.1299 19.6274 13.6763 19.4887C14.2313 19.3499 14.5955 19.2719 14.7689 19.2545C14.6215 18.5781 14.2009 17.3554 13.5072 15.5863C12.8221 13.8086 12.3755 12.5164 12.1673 11.71ZM8.51212 14.1164C8.72025 14.9749 9.08447 16.0416 9.60479 17.3164C10.1251 18.5911 10.511 19.6881 10.7625 20.6074C10.9359 20.4599 11.1831 20.2995 11.5039 20.1261C11.8248 19.9526 12.072 19.8746 12.2454 19.8919C11.8552 19.2155 11.2481 18.2876 10.4243 17.1082C9.60045 15.9202 8.96306 14.9229 8.51212 14.1164ZM21.1818 11.5799L18.0209 19.3976L20.3753 19.7228C20.436 19.3846 20.5097 18.7906 20.5965 17.9407C20.6832 17.0822 20.7656 16.202 20.8436 15.3001C20.9303 14.3896 21.004 13.5701 21.0647 12.8416C21.1254 12.1045 21.1645 11.6839 21.1818 11.5799ZM24.707 13.8823C24.3601 14.602 23.6316 15.6557 22.5216 17.0432C21.4203 18.422 20.7526 19.3629 20.5184 19.8659C20.6658 19.9353 20.9737 20.0307 21.442 20.1521C21.9189 20.2648 22.2701 20.2995 22.4956 20.2561C22.5563 19.9179 22.7037 19.415 22.9379 18.7472C23.172 18.0795 23.4148 17.4031 23.6663 16.718C23.9265 16.0242 24.1606 15.4042 24.3687 14.8579C24.5769 14.3115 24.6896 13.9863 24.707 13.8823Z" fill="black"/>
<path d="M11.1397 21.0366C11.1397 21.1927 11.1354 21.4095 11.1267 21.687C11.118 21.9645 11.1137 22.1726 11.1137 22.3114C13.1689 21.8171 14.9077 21.5353 16.3299 21.4659C17.7521 21.3878 19.5688 21.6133 21.7802 22.1423C21.7802 22.0122 21.7715 21.8041 21.7542 21.5179C21.7455 21.2231 21.7412 21.0063 21.7412 20.8675C20.2322 20.3732 18.5369 20.1261 16.6551 20.1261C14.7733 20.1261 12.9348 20.4296 11.1397 21.0366ZM11.1137 24.7569C11.1137 24.8609 11.1007 25.1124 11.0747 25.5113C11.0487 25.9102 11.0357 26.1531 11.0357 26.2398C13.0476 25.7802 14.9857 25.5677 16.8502 25.6024C18.7147 25.6371 20.3927 25.8409 21.8843 26.2138C21.9189 26.0577 21.9189 25.7888 21.8843 25.4073C21.8582 25.017 21.8452 24.7786 21.8452 24.6918C20.3537 24.3276 18.667 24.1412 16.7852 24.1325C14.912 24.1238 13.0215 24.3319 11.1137 24.7569ZM11.1007 22.9228C11.1007 23.1049 11.1007 23.3173 11.1007 23.5601C11.1094 23.7943 11.1137 23.9937 11.1137 24.1585C12.7527 23.6902 14.4221 23.4214 16.1218 23.352C17.8215 23.2826 19.7206 23.5211 21.8192 24.0675C21.8366 23.816 21.8366 23.6165 21.8192 23.4691C21.8019 23.3217 21.7889 23.1049 21.7802 22.8187C19.9764 22.3851 18.1987 22.164 16.447 22.1553C14.7039 22.1466 12.9218 22.4024 11.1007 22.9228ZM21.9493 27.4885C22.1487 27.4625 22.2485 27.3801 22.2485 27.2414C22.2485 27.1026 22.1574 27.0029 21.9753 26.9422C21.455 26.7688 20.7092 26.6257 19.7379 26.5129C18.7754 26.3915 17.7607 26.3178 16.6941 26.2918C15.6361 26.2571 14.6172 26.2788 13.6372 26.3568C12.6573 26.4349 11.8942 26.578 11.3479 26.7861C11.1397 26.8642 11.0183 26.9769 10.9836 27.1243C10.9576 27.2717 11.053 27.3931 11.2698 27.4885C12.6833 27.74 14.5348 27.8441 16.8242 27.8007C19.1136 27.7487 20.8219 27.6446 21.9493 27.4885ZM26.1638 10.162C25.9817 10.162 25.791 10.2487 25.5915 10.4222C25.392 10.5956 25.2923 10.8124 25.2923 11.0726C25.2923 11.3501 25.379 11.5322 25.5525 11.6189C25.7259 11.7056 25.895 11.749 26.0598 11.749C26.2246 11.749 26.3937 11.6883 26.5671 11.5669C26.7492 11.4455 26.8403 11.2807 26.8403 11.0726C26.8403 10.8818 26.7709 10.6823 26.6321 10.4742C26.5021 10.2661 26.346 10.162 26.1638 10.162ZM22.0013 7.37832C21.4897 7.37832 21.2339 7.66883 21.2339 8.24985C21.2339 8.78751 21.5027 9.04767 22.0403 9.03033C22.2918 9.03033 22.4869 8.93927 22.6257 8.75716C22.7644 8.57505 22.8252 8.39294 22.8078 8.21083C22.7905 8.02872 22.7038 7.84661 22.5477 7.6645C22.4002 7.47372 22.2181 7.37832 22.0013 7.37832ZM16.499 5.88242C16.3169 5.88242 16.1174 5.94312 15.9006 6.06453C15.6925 6.17726 15.5884 6.38972 15.5884 6.70191C15.5884 7.02277 15.6882 7.24391 15.8876 7.36532C16.0957 7.47805 16.3125 7.53442 16.538 7.53442C17.093 7.53442 17.3965 7.24825 17.4486 6.6759C17.4659 6.44176 17.3575 6.25097 17.1234 6.10355C16.8892 5.95613 16.6811 5.88242 16.499 5.88242ZM11.4909 7.43036C11.0053 7.43036 10.7842 7.65583 10.8275 8.10677C10.8536 8.60107 11.0617 8.83087 11.4519 8.79618C11.9722 8.7615 12.2324 8.51435 12.2324 8.05473C12.2324 7.63848 11.9852 7.43036 11.4909 7.43036ZM6.99021 9.56365C6.45255 9.56365 6.18372 9.83248 6.18372 10.3701C6.18372 10.7344 6.43954 10.9165 6.95118 10.9165C7.37611 10.9165 7.58857 10.7344 7.58857 10.3701C7.58857 10.2661 7.56689 10.1056 7.52353 9.88885C7.48017 9.67205 7.3024 9.56365 6.99021 9.56365ZM16.603 9.62869L15.1592 19.2675L17.8388 19.3326C17.7607 19.0291 17.6523 18.3743 17.5136 17.3684C17.3835 16.3538 17.2491 15.2915 17.1104 14.1815C16.9716 13.0628 16.8502 12.0525 16.7461 11.1506C16.6507 10.2401 16.603 9.73275 16.603 9.62869ZM12.1673 11.71C12.1934 12.6379 12.2454 13.9863 12.3234 15.7554C12.4015 17.5158 12.4795 18.8513 12.5576 19.7618C12.757 19.7185 13.1299 19.6274 13.6763 19.4887C14.2313 19.3499 14.5955 19.2719 14.7689 19.2545C14.6215 18.5781 14.2009 17.3554 13.5072 15.5863C12.8221 13.8086 12.3755 12.5164 12.1673 11.71ZM8.51213 14.1164C8.72026 14.9749 9.08448 16.0416 9.60479 17.3164C10.1251 18.5911 10.511 19.6881 10.7625 20.6074C10.9359 20.4599 11.1831 20.2995 11.5039 20.1261C11.8248 19.9526 12.072 19.8746 12.2454 19.8919C11.8552 19.2155 11.2481 18.2876 10.4243 17.1082C9.60046 15.9202 8.96307 14.9229 8.51213 14.1164ZM21.1818 11.5799L18.0209 19.3976L20.3753 19.7228C20.436 19.3846 20.5097 18.7906 20.5965 17.9407C20.6832 17.0822 20.7656 16.202 20.8436 15.3001C20.9303 14.3896 21.004 13.5701 21.0648 12.8416C21.1255 12.1045 21.1645 11.6839 21.1818 11.5799ZM24.707 13.8823C24.3601 14.602 23.6316 15.6557 22.5216 17.0432C21.4203 18.422 20.7526 19.3629 20.5184 19.8659C20.6658 19.9353 20.9737 20.0307 21.442 20.1521C21.9189 20.2648 22.2701 20.2995 22.4956 20.2561C22.5563 19.9179 22.7037 19.415 22.9379 18.7472C23.172 18.0795 23.4148 17.4031 23.6663 16.718C23.9265 16.0242 24.1606 15.4042 24.3688 14.8579C24.5769 14.3115 24.6896 13.9863 24.707 13.8823Z" fill="white"/>
</svg>
