<svg width="180" height="180" viewBox="0 0 180 180" fill="none" xmlns="http://www.w3.org/2000/svg">
<path d="M33.75 163.333V147.748L42.3108 147.529V134.138L49.5546 133.992L60.7494 121.407V71.2131L51.6034 59.3595L46.0425 59.2133L46.1157 34.116H62.3593L62.4324 43.628L76.9933 43.7743L77.1396 33.7501H109.041L109.334 42.6036L121.7 42.7498V33.75H136.407V58.8471L130.26 58.9202L121.7 70.335V121.773L133.48 135.602L139.333 135.383V148.114H147.894V163.333H33.75ZM70.2613 60.0908C60.6032 60.0908 57.4813 60.6274 60.8957 61.7006C64.359 62.7739 67.7739 63.3105 71.1394 63.3105L115.114 63.3836C117.749 63.3836 120.139 62.847 122.285 61.7738C124.48 60.6521 122.212 60.0913 115.48 60.0913L70.2613 60.0908ZM63.2374 127.992L60.0176 130.773H122.138L120.09 127.992H63.2374ZM50.14 139.919V143.138H132.382L132.748 139.919H50.14ZM40.7011 153.894V156.309H142.992V153.894H40.7011ZM51.3838 51.0911L51.457 54.3106H131.87V51.0911H51.3838Z" fill="black"/>
<path d="M70.2619 60.0913C60.6032 60.0913 57.4813 60.6274 60.8963 61.7006C64.3596 62.7739 67.7739 63.3105 71.1399 63.3105L115.115 63.3836C117.749 63.3836 120.139 62.847 122.285 61.7737C124.48 60.6521 122.212 60.0913 115.48 60.0913H70.2619ZM63.2374 127.992L60.0182 130.773H122.139L120.09 127.992H63.2374ZM50.1401 139.919V143.138H132.383L132.748 139.919H50.1401ZM40.7013 153.894V156.309H142.992V153.894H40.7013ZM51.384 51.0912L51.4572 54.3107H131.87V51.0912H51.384Z" fill="#EEEEEE"/>
</svg>
