<svg width="32" height="32" viewBox="0 0 32 32" fill="none" xmlns="http://www.w3.org/2000/svg">
<path d="M24.918 13.1336C24.805 13.8309 24.8804 14.5376 25.1442 15.2537C25.2478 15.5646 25.3797 15.8662 25.5399 16.1583C25.7001 16.4409 25.8744 16.5776 26.0629 16.5681C25.8744 16.1535 25.7755 15.8143 25.7661 15.5505C25.7566 15.2867 25.7425 15.0134 25.7237 14.7307C25.6766 13.9958 25.7708 13.5105 26.0063 13.275C26.2325 13.0488 26.2702 12.8415 26.1194 12.6531C25.9027 12.3892 25.6012 12.3751 25.2149 12.6107C25.0641 12.6955 24.9652 12.8698 24.918 13.1336ZM22.7838 9.27509C22.8686 9.80275 23.1843 10.3069 23.7308 10.7874C24.2396 11.2491 24.7484 11.5224 25.2573 11.6072C24.8238 11.3622 24.4563 10.99 24.1548 10.4906C23.7873 9.94409 23.6884 9.45412 23.858 9.02068C23.9805 8.74743 23.9381 8.53542 23.7308 8.38466C23.4481 8.21506 23.1749 8.29515 22.911 8.62494C22.7885 8.79454 22.7461 9.01126 22.7838 9.27509ZM19.5613 7.33876C19.91 7.76277 20.4235 8.03603 21.1019 8.15852C21.6767 8.27159 22.129 8.23861 22.4588 8.05958C22.2326 8.07843 21.8322 7.9418 21.2574 7.6497C20.6732 7.36703 20.3246 6.97599 20.2115 6.4766C20.1455 6.14681 19.9948 5.98191 19.7592 5.98191C19.4483 5.98191 19.2928 6.21277 19.2928 6.67447C19.2928 6.91003 19.3823 7.13146 19.5613 7.33876ZM15.4201 6.27872C15.7122 6.48602 16.2399 6.62736 17.0031 6.70274C17.4648 6.74985 17.8982 6.62265 18.3034 6.32113C17.9454 6.40593 17.5543 6.38708 17.1303 6.26459C16.4896 6.10441 16.0844 5.81702 15.9148 5.40243C15.7829 5.11975 15.6086 4.99726 15.3919 5.03495C15.0809 5.09148 14.9678 5.32234 15.0526 5.72751C15.0715 5.95365 15.194 6.13739 15.4201 6.27872ZM11.604 6.40593C12.1034 6.65091 12.6687 6.71687 13.3 6.6038C13.6016 6.54727 13.7947 6.47189 13.8795 6.37766C13.9738 6.27401 14.0963 6.14681 14.247 5.99605C14.0115 6.0997 13.6911 6.12796 13.2859 6.08085C12.6358 6.01489 12.1882 5.80289 11.9432 5.44483C11.7736 5.19042 11.5804 5.10091 11.3637 5.17629C11.0716 5.27993 10.9962 5.52963 11.1376 5.92538C11.2035 6.12325 11.359 6.28344 11.604 6.40593ZM22.1478 19.2394L22.5577 18.3631L23.3068 18.7447C23.8533 17.6894 24.1265 16.5823 24.1265 15.4233C24.1265 13.2373 23.2267 11.3622 21.427 9.79804C19.6367 8.2339 17.4837 7.45183 14.9678 7.45183C13.9785 7.45183 12.9938 7.59317 12.0139 7.87584L12.6782 9.33163L11.816 9.75564L11.1093 8.20092C10.8266 8.31399 10.5063 8.46475 10.1482 8.6532C9.77131 8.8605 9.38027 8.96415 8.9751 8.96415C8.3061 8.96415 7.73604 8.7333 7.26491 8.27159C6.79378 7.80046 6.55822 7.2304 6.55822 6.5614C6.55822 5.90182 6.79378 5.33647 7.26491 4.86534C7.73604 4.38479 8.3061 4.14452 8.9751 4.14452C9.52161 4.14452 10.0163 4.31884 10.4592 4.66747C10.8926 4.38479 11.392 4.19163 11.9573 4.08798C12.8431 3.94664 13.6016 4.04558 14.2329 4.38479C14.8171 4.07385 15.5002 3.95136 16.2823 4.01731C17.2245 4.11154 17.9548 4.41777 18.473 4.93601C19.0855 4.8041 19.7498 4.86534 20.4659 5.11975C21.3799 5.46839 22.0206 5.98663 22.3881 6.67447C23.0759 6.74043 23.7449 7.08435 24.3951 7.70624C24.9981 8.32813 25.3562 8.99713 25.4693 9.71324C26.1477 10.0713 26.6471 10.6979 26.9674 11.593C27.2972 12.507 27.3114 13.3315 27.0098 14.0665C27.2925 15.885 27.0475 17.6753 26.2749 19.4373C26.4256 19.4185 26.5293 19.409 26.5858 19.409C27.1135 19.409 27.5611 19.5975 27.9285 19.9744C28.3054 20.3419 28.4939 20.7895 28.4939 21.3171C28.4939 21.4773 28.4751 21.6328 28.4374 21.7835C28.2583 22.575 27.9097 23.2252 27.3915 23.734C26.8732 24.2428 26.2843 24.4972 25.6247 24.4972C24.8238 24.4972 24.1407 24.1439 23.5753 23.4372C23.01 22.7305 22.7273 21.8778 22.7273 20.879C22.7273 20.4267 22.7885 20.0027 22.911 19.6069L22.1478 19.2394ZM26.5858 20.6528C25.9545 20.6528 25.6389 20.9685 25.6389 21.5998C25.6389 22.2405 25.9545 22.5609 26.5858 22.5609C27.2266 22.5609 27.5469 22.2405 27.5469 21.5998C27.5469 20.9685 27.2266 20.6528 26.5858 20.6528ZM8.59349 5.23282C7.74546 5.70395 7.56643 6.35882 8.0564 7.19742C8.54638 8.05487 9.21066 8.2339 10.0493 7.73451C10.2754 7.60259 10.445 7.43299 10.5581 7.22569C9.86082 7.30107 9.31903 7.188 8.9327 6.88648C8.44273 6.33997 8.32966 5.78875 8.59349 5.23282ZM25.1018 19.6634C25.2997 19.0981 25.229 18.7447 24.8898 18.6034C24.5694 18.4998 24.2914 18.7165 24.0559 19.2536C24.0276 19.3101 24.0088 19.3572 23.9993 19.3949C23.9899 19.4326 23.9711 19.4797 23.9428 19.5362C23.7732 19.9508 23.6884 20.3984 23.6884 20.879C23.6884 21.6139 23.8769 22.2405 24.2538 22.7587C24.6401 23.277 25.1065 23.5361 25.653 23.5361C25.9639 23.5361 26.2702 23.4325 26.5717 23.2252C26.0535 23.2252 25.6059 23.0414 25.229 22.6739C24.8615 22.3065 24.6778 21.8542 24.6778 21.3171C24.6778 21.2323 24.6919 21.1381 24.7202 21.0344C24.7484 20.8083 24.7908 20.5821 24.8474 20.356C24.9039 20.1016 24.9887 19.8707 25.1018 19.6634ZM7.57585 16.7801L8.79136 15.4233L8.18361 14.7449L6.36035 16.7801L8.16947 18.8013L8.79136 18.1229L7.57585 16.7801ZM10.3319 21.7552L12.4096 19.296C12.7959 19.5127 13.2294 19.621 13.7099 19.621C14.5014 19.621 15.1798 19.3431 15.7452 18.7871C16.32 18.2218 16.6074 17.5387 16.6074 16.7377C16.6074 15.9463 16.32 15.2678 15.7452 14.7025C15.1798 14.1371 14.5014 13.8544 13.7099 13.8544C13.2105 13.8544 12.73 13.9817 12.2683 14.2361L9.8514 11.381C10.3979 10.7591 11.0575 10.2268 11.8301 9.78391C13.6675 8.72858 15.5897 8.43649 17.5967 8.90761C19.6132 9.37874 21.1208 10.4765 22.1195 12.2008C23.1089 13.9251 23.3068 15.7814 22.7132 17.7695C22.1195 19.7577 20.904 21.2747 19.0666 22.3206C19.0666 22.3206 19.0195 22.3489 18.9253 22.4054C18.4071 22.82 18.1479 23.277 18.1479 23.7764C18.1479 24.5867 18.7698 25.2557 20.0136 25.7834C21.0501 26.1886 21.7898 26.7586 22.2326 27.4936C21.9688 27.6161 21.6673 27.7291 21.3281 27.8328C21.2244 27.8705 21.1349 27.894 21.0595 27.9035C19.1467 28.4217 17.5449 28.2898 16.254 27.5077C15.4625 27.8846 14.6805 28.1673 13.9078 28.3557C12.73 28.6761 11.5946 28.8316 10.5016 28.8222C9.40854 28.8127 8.44744 28.808 7.61826 28.808C8.14592 28.1013 8.87617 27.4747 9.809 26.9282C10.2707 26.655 10.7701 26.4288 11.3072 26.2498C12.4002 25.7598 12.9467 25.1285 12.9467 24.3559C12.9467 23.6397 12.4756 23.0414 11.5333 22.5609C11.1187 22.3441 10.7183 22.0756 10.3319 21.7552V21.7552ZM8.66416 22.2358L4 16.8508L8.67829 11.4093L12.1128 15.4374C12.518 14.9286 13.0504 14.6742 13.7099 14.6742C14.2753 14.6742 14.7605 14.8768 15.1657 15.282C15.5709 15.6871 15.7735 16.1724 15.7735 16.7377C15.7735 17.3031 15.5709 17.7884 15.1657 18.1935C14.7605 18.5987 14.2753 18.8013 13.7099 18.8013C13.1352 18.8013 12.6358 18.5799 12.2117 18.137L8.66416 22.2358ZM13.7099 15.6494C12.9844 15.6494 12.6216 16.0122 12.6216 16.7377C12.6216 17.4633 12.9844 17.826 13.7099 17.826C14.4355 17.826 14.7982 17.4633 14.7982 16.7377C14.7982 16.0122 14.4355 15.6494 13.7099 15.6494Z" fill="black"/>
<path d="M24.918 13.1336C24.8049 13.8309 24.8803 14.5376 25.1441 15.2537C25.2478 15.5646 25.3797 15.8662 25.5399 16.1582C25.7001 16.4409 25.8744 16.5776 26.0628 16.5681C25.8744 16.1535 25.7754 15.8143 25.766 15.5505C25.7566 15.2867 25.7425 15.0134 25.7236 14.7307C25.6765 13.9958 25.7707 13.5105 26.0063 13.275C26.2324 13.0488 26.2701 12.8415 26.1194 12.6531C25.9026 12.3892 25.6011 12.3751 25.2148 12.6107C25.064 12.6955 24.9651 12.8698 24.918 13.1336ZM22.7838 9.27508C22.8686 9.80275 23.1842 10.3069 23.7307 10.7874C24.2396 11.2491 24.7484 11.5224 25.2572 11.6072C24.8238 11.3622 24.4563 10.99 24.1548 10.4906C23.7873 9.94408 23.6883 9.45411 23.8579 9.02068C23.9804 8.74742 23.938 8.53541 23.7307 8.38465C23.4481 8.21505 23.1748 8.29514 22.911 8.62493C22.7885 8.79453 22.7461 9.01125 22.7838 9.27508ZM19.5613 7.33875C19.9099 7.76277 20.4234 8.03602 21.1019 8.15851C21.6766 8.27158 22.1289 8.2386 22.4587 8.05958C22.2326 8.07842 21.8321 7.94179 21.2573 7.6497C20.6731 7.36702 20.3245 6.97598 20.2114 6.47659C20.1455 6.1468 19.9947 5.98191 19.7591 5.98191C19.4482 5.98191 19.2927 6.21276 19.2927 6.67446C19.2927 6.91003 19.3822 7.13146 19.5613 7.33875ZM15.4201 6.27872C15.7122 6.48601 16.2398 6.62735 17.0031 6.70273C17.4648 6.74984 17.8982 6.62264 18.3034 6.32112C17.9453 6.40592 17.5543 6.38708 17.1303 6.26458C16.4895 6.1044 16.0844 5.81701 15.9147 5.40242C15.7828 5.11974 15.6085 4.99725 15.3918 5.03494C15.0809 5.09148 14.9678 5.32233 15.0526 5.7275C15.0714 5.95364 15.1939 6.13738 15.4201 6.27872ZM11.6039 6.40592C12.1033 6.65091 12.6687 6.71686 13.3 6.60379C13.6015 6.54726 13.7947 6.47188 13.8795 6.37765C13.9737 6.27401 14.0962 6.1468 14.247 5.99604C14.0114 6.09969 13.691 6.12796 13.2859 6.08084C12.6357 6.01489 12.1881 5.80288 11.9431 5.44482C11.7735 5.19041 11.5804 5.1009 11.3637 5.17628C11.0716 5.27993 10.9962 5.52962 11.1375 5.92537C11.2035 6.12324 11.3589 6.28343 11.6039 6.40592ZM26.5858 20.6528C25.9545 20.6528 25.6388 20.9685 25.6388 21.5998C25.6388 22.2405 25.9545 22.5609 26.5858 22.5609C27.2265 22.5609 27.5469 22.2405 27.5469 21.5998C27.5469 20.9685 27.2265 20.6528 26.5858 20.6528ZM8.59343 5.23281C7.7454 5.70394 7.56638 6.35881 8.05635 7.19741C8.54632 8.05487 9.21061 8.23389 10.0492 7.7345C10.2754 7.60258 10.445 7.43298 10.558 7.22568C9.86076 7.30106 9.31897 7.18799 8.93264 6.88647C8.44267 6.33996 8.3296 5.78874 8.59343 5.23281ZM25.1017 19.6634C25.2996 19.0981 25.2289 18.7447 24.8897 18.6034C24.5694 18.4998 24.2914 18.7165 24.0558 19.2536C24.0276 19.3101 24.0087 19.3572 23.9993 19.3949C23.9899 19.4326 23.971 19.4797 23.9428 19.5362C23.7731 19.9508 23.6883 20.3984 23.6883 20.8789C23.6883 21.6139 23.8768 22.2405 24.2537 22.7587C24.64 23.277 25.1064 23.5361 25.6529 23.5361C25.9639 23.5361 26.2701 23.4325 26.5716 23.2252C26.0534 23.2252 25.6058 23.0414 25.2289 22.6739C24.8614 22.3065 24.6777 21.8542 24.6777 21.3171C24.6777 21.2323 24.6918 21.1381 24.7201 21.0344C24.7484 20.8083 24.7908 20.5821 24.8473 20.356C24.9038 20.1016 24.9887 19.8707 25.1017 19.6634ZM7.5758 16.7801L8.79131 15.4233L8.18355 14.7449L6.36029 16.7801L8.16942 18.8013L8.79131 18.1229L7.5758 16.7801ZM13.7099 15.6494C12.9843 15.6494 12.6216 16.0122 12.6216 16.7377C12.6216 17.4633 12.9843 17.826 13.7099 17.826C14.4354 17.826 14.7982 17.4633 14.7982 16.7377C14.7982 16.0122 14.4354 15.6494 13.7099 15.6494Z" fill="#EEEEEE"/>
<path d="M10.3319 21.7552L12.4096 19.296C12.7959 19.5127 13.2293 19.621 13.7099 19.621C14.5014 19.621 15.1798 19.3431 15.7451 18.7871C16.3199 18.2218 16.6073 17.5387 16.6073 16.7377C16.6073 15.9462 16.3199 15.2678 15.7451 14.7025C15.1798 14.1371 14.5014 13.8544 13.7099 13.8544C13.2105 13.8544 12.7299 13.9816 12.2682 14.2361L9.85134 11.381L9.23412 12.0613L12.1128 15.4374C12.5179 14.9286 13.0503 14.6742 13.7099 14.6742C14.2752 14.6742 14.7605 14.8768 15.1657 15.282C15.5708 15.6871 15.7734 16.1724 15.7734 16.7377C15.7734 17.3031 15.5708 17.7883 15.1657 18.1935C14.7605 18.5987 14.2752 18.8013 13.7099 18.8013C13.1351 18.8013 12.6357 18.5798 12.2117 18.137L9.62916 21.1208L10.3319 21.7552Z" fill="#EEEEEE"/>
</svg>
