<svg width="180" height="180" viewBox="0 0 180 180" fill="none" xmlns="http://www.w3.org/2000/svg">
<path d="M114.632 134.678C117.494 134.678 118.925 133.274 118.925 130.465C118.925 127.603 117.494 126.172 114.632 126.172C111.77 126.172 110.339 127.603 110.339 130.465C110.339 133.274 111.77 134.678 114.632 134.678ZM90.2244 124.104L80.0483 128.795L90.2244 133.565L100.401 128.795L90.2244 124.104ZM90.2244 54.301C87.2033 54.301 85.6929 55.8116 85.6929 58.833C85.6929 61.8007 87.2033 63.2846 90.2244 63.2846C93.1928 63.2846 94.6766 61.8007 94.6766 58.833C94.6766 55.8116 93.1928 54.301 90.2244 54.301ZM90.3836 73.6999C86.2493 73.6999 82.7246 72.2689 79.8098 69.4063C76.8949 66.4914 75.4369 62.9668 75.4369 58.833C75.4369 54.7516 76.8949 51.2535 79.8098 48.3384C82.7246 45.3703 86.2493 43.8863 90.3836 43.8863C94.4646 43.8863 97.9628 45.3703 100.878 48.3384C103.793 51.2535 105.251 54.7516 105.251 58.833C105.251 62.9668 103.793 66.4914 100.878 69.4063C97.9628 72.2689 94.4646 73.6999 90.3836 73.6999ZM145.24 116.313C147.413 118.486 148.5 121.083 148.5 124.104C148.5 127.338 147.387 129.961 145.161 131.975C145.32 132.611 145.4 133.221 145.4 133.804C145.4 136.931 144.339 139.581 142.219 141.754C142.431 142.496 142.538 143.318 142.538 144.219C142.538 149.89 139.914 153.415 134.666 154.793C121.628 158.821 106.814 160.835 90.2244 160.835C73.5818 160.835 58.7678 158.821 45.7826 154.793C40.5354 153.415 37.9118 149.89 37.9118 144.219C37.9118 143.371 38.0178 142.549 38.2298 141.754C36.1098 139.581 35.0497 136.958 35.0497 133.883C35.0497 133.247 35.1292 132.611 35.2882 131.975C33.0621 129.961 31.9491 127.338 31.9491 124.104C31.9491 120.925 33.0621 118.3 35.2882 116.234C34.3342 115.226 33.4067 114.007 32.5056 112.576C28.0005 106.163 25.0059 99.6176 23.5218 92.9396C22.0377 86.2611 22.1703 80.5371 23.9193 75.7671C26.5694 69.0356 30.7036 64.08 36.3218 60.8996C41.7279 57.7727 47.7702 56.6331 54.4484 57.4813C61.1263 58.2761 67.6457 60.741 74.0059 64.8748C80.154 69.0621 85.5872 74.9188 90.3043 82.4451C94.968 74.9188 100.401 69.0621 106.602 64.8748C112.962 60.741 119.455 58.2761 126.08 57.4813C132.758 56.6331 138.827 57.7727 144.286 60.8996C149.852 64.08 153.986 69.0356 156.689 75.7671C158.385 80.5371 158.491 86.2611 157.007 92.9396C155.523 99.6176 152.555 106.163 148.102 112.576C147.095 114.007 146.141 115.253 145.24 116.313ZM94.3588 44.2042C92.9807 43.7802 91.629 43.5682 90.3043 43.5682C89.0319 43.5682 87.6009 43.8067 86.0108 44.2837L87.7601 34.5844L80.446 37.049V27.3497L87.7601 29.7348L85.2159 22.5H94.995L92.6094 29.7348L100.004 27.3497V37.049L92.6094 34.5844L94.3588 44.2042ZM130.294 151.135L136.734 147.081C122.953 143.423 107.45 141.595 90.2244 141.595C73.1582 141.595 57.6551 143.423 43.7155 147.081L50.0757 151.135C61.789 148.75 75.1719 147.558 90.2244 147.558C105.065 147.558 118.421 148.75 130.294 151.135ZM123.616 109.953C124.093 108.522 123.987 106.852 123.298 104.944C122.662 102.983 122.821 101.393 123.775 100.174C124.411 99.3791 125.206 99.8826 126.16 101.685C127.114 103.434 128.068 104.043 129.022 103.513C130.135 102.93 130.903 101.817 131.327 100.174C131.752 98.5309 131.645 97.1527 131.01 96.0401C130.479 95.1919 129.419 95.2712 127.829 96.2786C126.293 97.2855 125.285 97.3384 124.808 96.4372C124.278 95.5896 124.808 94.7413 126.398 93.8931C128.041 93.0454 128.625 92.1707 128.147 91.2696C126.239 88.2484 123.722 87.5863 120.594 89.2823C119.694 89.8121 119.747 90.846 120.754 92.3827C121.814 93.9201 121.92 94.9534 121.071 95.4833C120.171 95.9603 119.296 95.3775 118.448 93.7344C117.6 92.0914 116.752 91.5081 115.904 91.9851C114.791 92.6741 113.996 93.8402 113.519 95.4833C113.095 97.0734 113.201 98.4251 113.837 99.5378C114.314 100.439 115.427 100.36 117.176 99.2993C118.925 98.2395 119.879 98.1866 120.038 99.1406C120.303 100.996 119.482 102.665 117.574 104.149C115.665 105.58 114.923 107.17 115.347 108.92C107.45 107.965 99.0495 107.488 90.1451 107.488C81.0287 107.488 72.4956 107.965 64.5452 108.92C64.9164 107.17 64.1211 105.554 62.1602 104.07C60.2522 102.586 59.4568 100.916 59.7752 99.0613C59.9338 98.1073 60.8614 98.1602 62.5579 99.2199C64.3067 100.28 65.4463 100.36 65.9762 99.4584C66.6124 98.3452 66.6917 96.9941 66.2147 95.4039C65.7906 93.7609 65.0222 92.6212 63.909 91.9851C63.0079 91.5081 62.1338 92.0914 61.2855 93.7344C60.4378 95.3246 59.5896 95.8545 58.7413 95.3246C57.8402 94.8476 57.8936 93.8402 58.9005 92.3034C59.9608 90.7661 60.0666 89.7328 59.2183 89.2029C58.0523 88.5668 56.6477 88.4869 55.0049 88.9644C53.4148 89.388 52.3018 90.1569 51.6658 91.2696C51.1358 92.1178 51.6657 92.9661 53.2558 93.8137C54.8989 94.662 55.4819 95.5097 55.0049 96.3579C54.4749 97.2591 53.4148 97.2062 51.8248 96.1987C50.2877 95.1919 49.2807 95.139 48.8037 96.0401C48.1677 97.1533 48.0616 98.5314 48.4857 100.174C48.9097 101.764 49.6782 102.877 50.7912 103.513C51.6923 104.043 52.6198 103.407 53.5739 101.605C54.5808 99.8032 55.4024 99.2998 56.0384 100.095C56.9925 101.314 57.1517 102.904 56.5155 104.865C55.8794 106.773 55.8264 108.443 56.3563 109.874C54.5544 110.244 52.8053 110.616 51.1093 110.986C49.4132 111.305 47.7702 111.649 46.1801 112.02C43.477 112.762 42.3375 114.061 42.7615 115.916C43.2385 117.665 44.802 118.195 47.4521 117.506C60.1194 114.644 74.5093 113.213 90.6221 113.213C106.311 113.213 120.462 114.617 133.076 117.426C135.568 118.221 137.078 117.718 137.608 115.916C137.979 114.114 136.866 112.815 134.269 112.02C130.559 111.225 127.008 110.536 123.616 109.953ZM86.4878 103.434C86.2228 101.366 85.8521 99.4056 85.3751 97.5504C84.1028 93.0983 82.3804 89.5472 80.2074 86.8972C78.0874 84.2473 75.8346 81.6503 73.4496 79.1061C69.1031 75.2366 64.4923 72.3218 59.616 70.3609C54.7929 68.3466 50.3937 68.1345 46.4186 69.7247C44.1925 70.6258 42.152 71.7919 40.2969 73.2229C38.4418 74.6539 36.8253 76.9596 35.4472 80.1394C34.0162 83.1606 33.6982 87.2679 34.4932 92.4626C35.3412 97.6567 37.5938 103.169 41.2509 108.999C42.099 108.84 42.9735 108.628 43.8745 108.363C44.8286 108.098 45.8091 107.886 46.8161 107.727C41.5689 92.0385 42.6025 82.5244 49.9167 79.1854C54.3159 77.1182 58.9798 78.1785 63.909 82.3658C68.8911 86.4996 72.9726 91.1109 76.1524 96.1987C76.7886 97.2062 77.5569 98.7165 78.4581 100.731C79.4121 102.692 79.9155 103.672 79.9689 103.672C81.0287 103.672 82.089 103.646 83.1488 103.593C84.2619 103.54 85.3751 103.487 86.4878 103.434ZM93.8019 103.434C95.9754 103.434 98.1748 103.513 100.401 103.672C100.401 103.672 100.851 102.665 101.752 100.651C102.706 98.6372 103.502 97.1527 104.137 96.1987C107.318 91.1109 111.372 86.4996 116.301 82.3658C121.283 78.1785 126.001 77.0918 130.453 79.1061C137.608 82.4979 138.615 92.0121 133.474 107.647C134.958 107.965 136.813 108.416 139.039 108.999C142.696 103.169 144.923 97.6567 145.717 92.4626C146.566 87.2151 146.274 83.0812 144.843 80.0601C143.412 76.8797 141.769 74.601 139.914 73.2229C138.059 71.7919 136.045 70.6258 133.872 69.7247C129.844 68.1345 125.391 68.3201 120.515 70.281C115.692 72.2424 111.134 75.1573 106.841 79.0262C104.456 81.6232 102.176 84.2473 100.004 86.8972C97.8835 89.5472 96.1875 93.0983 94.9151 97.5504C94.3853 99.2998 94.014 101.261 93.8019 103.434ZM41.5689 137.54L45.8621 138.336L54.4484 131.101L43.3975 129.113L40.8534 131.18C40.3764 131.975 40.1379 132.876 40.1379 133.883C40.1379 135.314 40.6149 136.533 41.5689 137.54ZM138.88 137.54C139.834 136.533 140.311 135.288 140.311 133.804C140.311 132.903 140.126 132.108 139.755 131.419L137.051 129.113L126.001 131.021L134.587 138.336L138.88 137.54ZM65.817 134.678C68.6261 134.678 70.0307 133.274 70.0307 130.465C70.0307 127.603 68.6261 126.172 65.817 126.172C62.955 126.172 61.524 127.603 61.524 130.465C61.524 133.274 62.955 134.678 65.817 134.678Z" fill="black"/>
<path d="M114.632 134.678C117.494 134.678 118.925 133.274 118.925 130.465C118.925 127.603 117.494 126.172 114.632 126.172C111.77 126.172 110.339 127.603 110.339 130.465C110.339 133.274 111.77 134.678 114.632 134.678ZM90.225 124.104L80.0482 128.795L90.225 133.565L100.401 128.795L90.225 124.104ZM90.225 54.301C87.2038 54.301 85.6929 55.8116 85.6929 58.8324C85.6929 61.8007 87.2038 63.2846 90.225 63.2846C93.1927 63.2846 94.6772 61.8007 94.6772 58.8324C94.6772 55.8116 93.1927 54.301 90.225 54.301ZM130.294 151.135L136.734 147.081C122.953 143.423 107.45 141.595 90.225 141.595C73.1582 141.595 57.6551 143.423 43.7158 147.081L50.076 151.135C61.7895 148.75 75.1725 147.558 90.225 147.558C105.065 147.558 118.422 148.75 130.294 151.135ZM123.616 109.953C124.093 108.522 123.987 106.852 123.298 104.944C122.662 102.983 122.821 101.393 123.775 100.174C124.411 99.3791 125.206 99.8826 126.16 101.685C127.114 103.434 128.068 104.043 129.022 103.513C130.135 102.93 130.904 101.817 131.328 100.174C131.752 98.5309 131.646 97.1527 131.01 96.0401C130.48 95.1919 129.419 95.2712 127.83 96.2786C126.292 97.2855 125.286 97.3384 124.809 96.4372C124.279 95.5896 124.809 94.7413 126.399 93.8931C128.042 93.0454 128.625 92.1707 128.148 91.2696C126.24 88.2484 123.722 87.5863 120.595 89.2823C119.694 89.8121 119.747 90.8454 120.754 92.3827C121.814 93.9201 121.92 94.9534 121.072 95.4833C120.171 95.9603 119.296 95.3775 118.448 93.7344C117.6 92.0914 116.752 91.5081 115.904 91.9851C114.791 92.6741 113.996 93.8402 113.519 95.4833C113.095 97.0734 113.201 98.4251 113.837 99.5378C114.314 100.439 115.427 100.36 117.176 99.2993C118.925 98.2395 119.879 98.1866 120.039 99.1406C120.304 100.996 119.482 102.665 117.574 104.149C115.666 105.58 114.924 107.17 115.348 108.919C107.45 107.965 99.0495 107.488 90.1451 107.488C81.0292 107.488 72.4956 107.965 64.5457 108.919C64.9164 107.17 64.1216 105.554 62.1602 104.07C60.2522 102.586 59.4574 100.916 59.7752 99.0613C59.9344 98.1068 60.8619 98.1602 62.5579 99.2199C64.3072 100.28 65.4463 100.36 65.9767 99.4584C66.6124 98.3452 66.6922 96.9941 66.2152 95.4039C65.7911 93.7609 65.0227 92.6212 63.9096 91.9851C63.0084 91.5081 62.1337 92.0914 61.2861 93.7344C60.4378 95.3241 59.5896 95.8545 58.7419 95.3241C57.8407 94.8471 57.8936 93.8402 58.9011 92.3034C59.9608 90.7661 60.0671 89.7328 59.2189 89.2024C58.0528 88.5668 56.6482 88.4869 55.0052 88.9639C53.4151 89.388 52.3021 90.1569 51.6661 91.2696C51.136 92.1178 51.6661 92.9655 53.2561 93.8137C54.8991 94.662 55.4822 95.5097 55.0052 96.3579C54.4751 97.2591 53.4151 97.2062 51.825 96.1987C50.288 95.1919 49.281 95.139 48.804 96.0401C48.1679 97.1533 48.0619 98.5309 48.4859 100.174C48.91 101.764 49.6785 102.877 50.7915 103.513C51.6926 104.043 52.6201 103.407 53.5741 101.606C54.5812 99.8033 55.4027 99.2998 56.0387 100.095C56.9925 101.314 57.1517 102.904 56.5155 104.865C55.8797 106.773 55.8267 108.443 56.3569 109.874C54.5547 110.244 52.8056 110.616 51.1095 110.986C49.4135 111.305 47.7704 111.649 46.1803 112.02C43.4773 112.762 42.3377 114.06 42.7617 115.916C43.2387 117.665 44.8023 118.195 47.4524 117.506C60.12 114.644 74.5099 113.213 90.6221 113.213C106.311 113.213 120.462 114.617 133.077 117.426C135.568 118.221 137.078 117.718 137.608 115.916C137.98 114.114 136.866 112.815 134.269 112.02C130.559 111.225 127.008 110.536 123.616 109.953ZM86.4883 103.434C86.2234 101.366 85.8521 99.4056 85.3751 97.5504C84.1033 93.0983 82.3804 89.5472 80.2074 86.8972C78.0874 84.2473 75.8351 81.6497 73.4496 79.1061C69.1037 75.2366 64.4923 72.3218 59.6166 70.3603C54.7932 68.3466 50.394 68.1345 46.4189 69.7247C44.1928 70.6258 42.1522 71.7919 40.2972 73.2229C38.4421 74.6539 36.8256 76.9596 35.4475 80.1394C34.0164 83.1606 33.6985 87.2679 34.4934 92.4621C35.3415 97.6568 37.5941 103.169 41.2512 108.999C42.0992 108.84 42.9738 108.628 43.8748 108.363C44.8288 108.098 45.8094 107.886 46.8164 107.727C41.5692 92.0385 42.6027 82.5244 49.917 79.1854C54.3161 77.1182 58.9804 78.1785 63.9096 82.3658C68.8916 86.4996 72.9725 91.1109 76.1529 96.1987C76.7891 97.2062 77.5575 98.7165 78.4586 100.731C79.4126 102.692 79.9161 103.672 79.9689 103.672C81.0292 103.672 82.089 103.646 83.1493 103.593C84.2619 103.539 85.3751 103.487 86.4883 103.434ZM93.8025 103.434C95.9754 103.434 98.1754 103.513 100.401 103.672C100.401 103.672 100.852 102.665 101.753 100.651C102.707 98.6372 103.502 97.1527 104.138 96.1987C107.318 91.1109 111.373 86.4996 116.302 82.3658C121.284 78.1785 126.001 77.0918 130.453 79.1061C137.608 82.4979 138.616 92.0121 133.474 107.647C134.958 107.965 136.813 108.416 139.039 108.999C142.697 103.169 144.922 97.6568 145.718 92.4621C146.566 87.2151 146.274 83.0812 144.843 80.0601C143.412 76.8797 141.769 74.601 139.914 73.2229C138.059 71.7919 136.045 70.6258 133.872 69.7247C129.844 68.1345 125.391 68.3201 120.516 70.281C115.692 72.2419 111.134 75.1573 106.841 79.0262C104.456 81.6232 102.177 84.2473 100.003 86.8972C97.8834 89.5472 96.1875 93.0983 94.9157 97.5504C94.3852 99.2998 94.0146 101.261 93.8025 103.434ZM41.5692 137.54L45.8624 138.336L54.4486 131.101L43.3978 129.113L40.8537 131.18C40.3767 131.975 40.1382 132.876 40.1382 133.883C40.1382 135.314 40.6152 136.533 41.5692 137.54ZM138.881 137.54C139.835 136.533 140.312 135.288 140.312 133.804C140.312 132.902 140.126 132.108 139.755 131.419L137.052 129.113L126.001 131.021L134.587 138.336L138.881 137.54ZM65.8176 134.678C68.6267 134.678 70.0312 133.274 70.0312 130.465C70.0312 127.603 68.6267 126.172 65.8176 126.172C62.9556 126.172 61.5246 127.603 61.5246 130.465C61.5246 133.274 62.9556 134.678 65.8176 134.678Z" fill="#EEEEEE"/>
</svg>
