<svg width="32" height="32" viewBox="0 0 32 32" fill="none" xmlns="http://www.w3.org/2000/svg">
<path d="M20.379 23.9428C20.8878 23.9428 21.1422 23.6931 21.1422 23.1937C21.1422 22.6849 20.8878 22.4305 20.379 22.4305C19.8702 22.4305 19.6158 22.6849 19.6158 23.1937C19.6158 23.6931 19.8702 23.9428 20.379 23.9428ZM16.0399 22.063L14.2308 22.8969L16.0399 23.7449L17.8491 22.8969L16.0399 22.063ZM16.0399 9.65352C15.5028 9.65352 15.2343 9.92207 15.2343 10.4592C15.2343 10.9868 15.5028 11.2506 16.0399 11.2506C16.5676 11.2506 16.8314 10.9868 16.8314 10.4592C16.8314 9.92207 16.5676 9.65352 16.0399 9.65352ZM16.0682 13.1022C15.3332 13.1022 14.7066 12.8478 14.1884 12.3389C13.6702 11.8207 13.411 11.1941 13.411 10.4592C13.411 9.73362 13.6702 9.11173 14.1884 8.59349C14.7066 8.06583 15.3332 7.802 16.0682 7.802C16.7937 7.802 17.4156 8.06583 17.9339 8.59349C18.4521 9.11173 18.7112 9.73362 18.7112 10.4592C18.7112 11.1941 18.4521 11.8207 17.9339 12.3389C17.4156 12.8478 16.7937 13.1022 16.0682 13.1022ZM25.8205 20.6779C26.2068 21.0642 26.4 21.5259 26.4 22.063C26.4 22.6378 26.2021 23.1042 25.8064 23.4623C25.8347 23.5753 25.8488 23.6837 25.8488 23.7873C25.8488 24.3433 25.6603 24.8144 25.2834 25.2007C25.3211 25.3326 25.34 25.4787 25.34 25.6389C25.34 26.6471 24.8736 27.2737 23.9407 27.5187C21.6228 28.2348 18.9892 28.5928 16.0399 28.5928C13.0812 28.5928 10.4476 28.2348 8.13912 27.5187C7.20629 27.2737 6.73987 26.6471 6.73987 25.6389C6.73987 25.4881 6.75872 25.3421 6.79641 25.2007C6.41951 24.8144 6.23106 24.348 6.23106 23.8015C6.23106 23.6884 6.24519 23.5753 6.27346 23.4623C5.87771 23.1042 5.67984 22.6378 5.67984 22.063C5.67984 21.4977 5.87771 21.0312 6.27346 20.6638C6.10385 20.4847 5.93896 20.268 5.77878 20.0136C4.97786 18.8735 4.44549 17.7098 4.18165 16.5226C3.91782 15.3353 3.94138 14.3177 4.25232 13.4697C4.72345 12.273 5.45841 11.392 6.4572 10.8266C7.4183 10.2707 8.49247 10.0681 9.67971 10.2189C10.8669 10.3602 12.0259 10.7984 13.1566 11.5333C14.2496 12.2777 15.2155 13.3189 16.0541 14.6569C16.8832 13.3189 17.8491 12.2777 18.9515 11.5333C20.0822 10.7984 21.2365 10.3602 22.4143 10.2189C23.6015 10.0681 24.6804 10.2707 25.6509 10.8266C26.6403 11.392 27.3752 12.273 27.8558 13.4697C28.1573 14.3177 28.1762 15.3353 27.9123 16.5226C27.6485 17.7098 27.1208 18.8735 26.3293 20.0136C26.1503 20.268 25.9807 20.4894 25.8205 20.6779V20.6779ZM16.7749 7.85853C16.5299 7.78315 16.2896 7.74546 16.0541 7.74546C15.8279 7.74546 15.5735 7.78786 15.2908 7.87266L15.6018 6.14834L14.3015 6.58649V4.86216L15.6018 5.28618L15.1495 4H16.888L16.4639 5.28618L17.7784 4.86216V6.58649L16.4639 6.14834L16.7749 7.85853ZM23.1634 26.8685L24.3082 26.1477C21.8583 25.4975 19.1022 25.1725 16.0399 25.1725C13.0059 25.1725 10.2498 25.4975 7.77164 26.1477L8.90235 26.8685C10.9847 26.4445 13.3639 26.2325 16.0399 26.2325C18.6782 26.2325 21.0527 26.4445 23.1634 26.8685ZM21.9761 19.5472C22.0609 19.2928 22.0421 18.996 21.9196 18.6568C21.8065 18.3081 21.8348 18.0255 22.0044 17.8087C22.1175 17.6674 22.2588 17.7569 22.4284 18.0773C22.598 18.3882 22.7676 18.4966 22.9372 18.4024C23.1351 18.2987 23.2717 18.1008 23.3471 17.8087C23.4225 17.5166 23.4036 17.2716 23.2906 17.0738C23.1963 16.923 23.0079 16.9371 22.7252 17.1162C22.452 17.2952 22.2729 17.3046 22.1881 17.1444C22.0939 16.9937 22.1881 16.8429 22.4708 16.6921C22.7629 16.5414 22.8666 16.3859 22.7817 16.2257C22.4425 15.6886 21.995 15.5709 21.439 15.8724C21.2789 15.9666 21.2883 16.1504 21.4673 16.4236C21.6558 16.6969 21.6746 16.8806 21.5238 16.9748C21.3637 17.0596 21.2082 16.956 21.0574 16.6639C20.9067 16.3718 20.7559 16.2681 20.6051 16.3529C20.4073 16.4754 20.2659 16.6827 20.1811 16.9748C20.1057 17.2575 20.1246 17.4978 20.2377 17.6956C20.3225 17.8558 20.5203 17.8417 20.8313 17.6532C21.1422 17.4648 21.3118 17.4554 21.3401 17.625C21.3872 17.9548 21.2412 18.2516 20.902 18.5154C20.5627 18.7698 20.4308 19.0525 20.5062 19.3635C19.1022 19.1938 17.6088 19.109 16.0258 19.109C14.4051 19.109 12.8881 19.1938 11.4747 19.3635C11.5407 19.0525 11.3993 18.7651 11.0507 18.5013C10.7115 18.2375 10.5701 17.9406 10.6267 17.6109C10.6549 17.4413 10.8198 17.4507 11.1214 17.6391C11.4323 17.8276 11.6349 17.8417 11.7291 17.6815C11.8422 17.4836 11.8563 17.2434 11.7715 16.9607C11.6961 16.6686 11.5595 16.466 11.3616 16.3529C11.2014 16.2681 11.046 16.3718 10.8952 16.6639C10.7445 16.9466 10.5937 17.0408 10.4429 16.9466C10.2827 16.8618 10.2922 16.6827 10.4712 16.4095C10.6597 16.1362 10.6785 15.9525 10.5277 15.8583C10.3204 15.7452 10.0707 15.731 9.77864 15.8159C9.49597 15.8912 9.29809 16.0279 9.18502 16.2257C9.0908 16.3765 9.18502 16.5273 9.4677 16.678C9.7598 16.8288 9.86345 16.9795 9.77864 17.1303C9.68442 17.2905 9.49597 17.2811 9.21329 17.102C8.94004 16.923 8.76101 16.9136 8.67621 17.0738C8.56314 17.2717 8.54429 17.5167 8.61967 17.8088C8.69505 18.0914 8.83168 18.2893 9.02955 18.4024C9.18974 18.4966 9.35463 18.3835 9.52424 18.0632C9.70326 17.7428 9.84931 17.6533 9.96238 17.7946C10.132 18.0113 10.1603 18.294 10.0472 18.6426C9.93412 18.9819 9.92469 19.2787 10.0189 19.5331C9.69855 19.599 9.38761 19.665 9.08609 19.7309C8.78457 19.7875 8.49247 19.8487 8.20979 19.9147C7.72924 20.0466 7.52666 20.2775 7.60204 20.6072C7.68684 20.9182 7.9648 21.0124 8.43593 20.8899C10.6879 20.3811 13.2461 20.1267 16.1106 20.1267C18.8997 20.1267 21.4155 20.3764 23.658 20.8758C24.1009 21.0171 24.3695 20.9276 24.4637 20.6072C24.5296 20.2869 24.3318 20.056 23.8701 19.9147C23.2105 19.7733 22.5792 19.6509 21.9761 19.5472V19.5472ZM15.3756 18.3882C15.3285 18.0207 15.2626 17.6721 15.1778 17.3423C14.9516 16.5508 14.6454 15.9195 14.2591 15.4484C13.8822 14.9773 13.4817 14.5156 13.0577 14.0633C12.285 13.3754 11.4653 12.8572 10.5984 12.5086C9.74095 12.1505 8.95888 12.1128 8.25219 12.3955C7.85645 12.5557 7.49368 12.763 7.16389 13.0174C6.8341 13.2718 6.54671 13.6817 6.30173 14.247C6.04732 14.7841 5.99078 15.5143 6.13212 16.4378C6.28288 17.3612 6.68334 18.3411 7.33349 19.3776C7.48426 19.3493 7.63973 19.3116 7.79991 19.2645C7.96952 19.2174 8.14383 19.1797 8.32286 19.1514C7.39003 16.3624 7.57377 14.671 8.87408 14.0774C9.65615 13.7099 10.4853 13.8984 11.3616 14.6428C12.2473 15.3777 12.9729 16.1975 13.5382 17.102C13.6513 17.2811 13.7879 17.5496 13.9481 17.9077C14.1177 18.2563 14.2072 18.4306 14.2167 18.4306C14.4051 18.4306 14.5936 18.4259 14.782 18.4165C14.9799 18.4071 15.1778 18.3976 15.3756 18.3882V18.3882ZM16.6759 18.3882C17.0623 18.3882 17.4533 18.4024 17.8491 18.4306C17.8491 18.4306 17.9291 18.2516 18.0893 17.8935C18.2589 17.5355 18.4003 17.2716 18.5133 17.102C19.0787 16.1975 19.7995 15.3777 20.6758 14.6428C21.5615 13.8984 22.4001 13.7052 23.1916 14.0633C24.4637 14.6663 24.6427 16.3577 23.7287 19.1373C23.9925 19.1938 24.3223 19.2739 24.7181 19.3776C25.3682 18.3411 25.764 17.3612 25.9053 16.4378C26.0561 15.5049 26.0043 14.77 25.7499 14.2329C25.4954 13.6675 25.2033 13.2624 24.8736 13.0174C24.5438 12.763 24.1857 12.5557 23.7994 12.3955C23.0833 12.1128 22.2918 12.1458 21.4249 12.4944C20.5675 12.8431 19.7571 13.3613 18.9939 14.0491C18.5699 14.5108 18.1647 14.9773 17.7784 15.4484C17.4015 15.9195 17.1 16.5508 16.8738 17.3423C16.7796 17.6533 16.7136 18.0019 16.6759 18.3882ZM7.39003 24.4516L8.15326 24.593L9.67971 23.3068L7.71511 22.9534L7.26283 23.3209C7.17802 23.4623 7.13562 23.6224 7.13562 23.8015C7.13562 24.0559 7.22042 24.2726 7.39003 24.4516ZM24.6898 24.4516C24.8594 24.2726 24.9442 24.0512 24.9442 23.7873C24.9442 23.6272 24.9112 23.4858 24.8453 23.3633L24.3647 22.9534L22.4001 23.2927L23.9266 24.593L24.6898 24.4516ZM11.7008 23.9428C12.2002 23.9428 12.4499 23.6931 12.4499 23.1937C12.4499 22.6849 12.2002 22.4305 11.7008 22.4305C11.192 22.4305 10.9376 22.6849 10.9376 23.1937C10.9376 23.6931 11.192 23.9428 11.7008 23.9428Z" fill="black"/>
<path d="M20.3791 23.9428C20.8879 23.9428 21.1423 23.6931 21.1423 23.1937C21.1423 22.6849 20.8879 22.4305 20.3791 22.4305C19.8702 22.4305 19.6158 22.6849 19.6158 23.1937C19.6158 23.6931 19.8702 23.9428 20.3791 23.9428ZM16.04 22.063L14.2308 22.8969L16.04 23.7449L17.8491 22.8969L16.04 22.063ZM16.04 9.65352C15.5029 9.65352 15.2343 9.92206 15.2343 10.4591C15.2343 10.9868 15.5029 11.2506 16.04 11.2506C16.5676 11.2506 16.8315 10.9868 16.8315 10.4591C16.8315 9.92206 16.5676 9.65352 16.04 9.65352ZM23.1634 26.8685L24.3083 26.1477C21.8584 25.4975 19.1023 25.1724 16.04 25.1724C13.0059 25.1724 10.2498 25.4975 7.7717 26.1477L8.9024 26.8685C10.9848 26.4445 13.364 26.2325 16.04 26.2325C18.6783 26.2325 21.0528 26.4445 23.1634 26.8685ZM21.9762 19.5472C22.061 19.2928 22.0421 18.996 21.9196 18.6568C21.8066 18.3081 21.8348 18.0254 22.0044 17.8087C22.1175 17.6674 22.2589 17.7569 22.4285 18.0773C22.5981 18.3882 22.7677 18.4966 22.9373 18.4023C23.1351 18.2987 23.2718 18.1008 23.3472 17.8087C23.4225 17.5166 23.4037 17.2716 23.2906 17.0738C23.1964 16.923 23.0079 16.9371 22.7253 17.1162C22.452 17.2952 22.273 17.3046 22.1882 17.1444C22.094 16.9937 22.1882 16.8429 22.4709 16.6921C22.763 16.5414 22.8666 16.3859 22.7818 16.2257C22.4426 15.6886 21.995 15.5709 21.4391 15.8724C21.2789 15.9666 21.2883 16.1503 21.4674 16.4236C21.6558 16.6969 21.6747 16.8806 21.5239 16.9748C21.3637 17.0596 21.2082 16.956 21.0575 16.6639C20.9067 16.3718 20.756 16.2681 20.6052 16.3529C20.4073 16.4754 20.266 16.6827 20.1812 16.9748C20.1058 17.2575 20.1246 17.4978 20.2377 17.6956C20.3225 17.8558 20.5204 17.8417 20.8313 17.6532C21.1423 17.4648 21.3119 17.4554 21.3402 17.625C21.3873 17.9548 21.2412 18.2516 20.902 18.5154C20.5628 18.7698 20.4309 19.0525 20.5063 19.3634C19.1023 19.1938 17.6088 19.109 16.0258 19.109C14.4052 19.109 12.8881 19.1938 11.4748 19.3634C11.5407 19.0525 11.3994 18.7651 11.0507 18.5013C10.7115 18.2375 10.5702 17.9406 10.6267 17.6109C10.655 17.4412 10.8199 17.4507 11.1214 17.6391C11.4324 17.8276 11.6349 17.8417 11.7292 17.6815C11.8422 17.4836 11.8564 17.2434 11.7716 16.9607C11.6962 16.6686 11.5596 16.466 11.3617 16.3529C11.2015 16.2681 11.046 16.3718 10.8953 16.6639C10.7445 16.9465 10.5937 17.0408 10.443 16.9465C10.2828 16.8617 10.2922 16.6827 10.4713 16.4095C10.6597 16.1362 10.6786 15.9525 10.5278 15.8582C10.3205 15.7452 10.0708 15.731 9.7787 15.8158C9.49602 15.8912 9.29815 16.0279 9.18508 16.2257C9.09085 16.3765 9.18508 16.5272 9.46775 16.678C9.75985 16.8288 9.8635 16.9795 9.7787 17.1303C9.68447 17.2905 9.49602 17.2811 9.21334 17.102C8.94009 16.923 8.76106 16.9136 8.67626 17.0738C8.56319 17.2717 8.54434 17.5166 8.61972 17.8087C8.69511 18.0914 8.83173 18.2893 9.02961 18.4024C9.18979 18.4966 9.35468 18.3835 9.52429 18.0632C9.70332 17.7428 9.84937 17.6533 9.96244 17.7946C10.132 18.0113 10.1603 18.294 10.0472 18.6426C9.93417 18.9818 9.92475 19.2787 10.019 19.5331C9.69861 19.599 9.38766 19.665 9.08614 19.7309C8.78462 19.7875 8.49252 19.8487 8.20984 19.9147C7.7293 20.0466 7.52671 20.2774 7.60209 20.6072C7.68689 20.9182 7.96486 21.0124 8.43599 20.8899C10.688 20.3811 13.2462 20.1267 16.1106 20.1267C18.8997 20.1267 21.4155 20.3764 23.6581 20.8758C24.101 21.0171 24.3695 20.9276 24.4637 20.6072C24.5297 20.2869 24.3318 20.056 23.8701 19.9147C23.2105 19.7733 22.5792 19.6508 21.9762 19.5472ZM15.3757 18.3882C15.3286 18.0207 15.2626 17.6721 15.1778 17.3423C14.9517 16.5508 14.6454 15.9195 14.2591 15.4484C13.8822 14.9773 13.4818 14.5155 13.0577 14.0633C12.2851 13.3754 11.4653 12.8572 10.5985 12.5085C9.74101 12.1505 8.95894 12.1128 8.25225 12.3955C7.8565 12.5557 7.49373 12.763 7.16394 13.0174C6.83415 13.2718 6.54677 13.6817 6.30178 14.247C6.04737 14.7841 5.99084 15.5143 6.13217 16.4377C6.28294 17.3612 6.68339 18.3411 7.33355 19.3776C7.48431 19.3493 7.63978 19.3116 7.79996 19.2645C7.96957 19.2174 8.14389 19.1797 8.32292 19.1514C7.39008 16.3624 7.57382 14.671 8.87413 14.0774C9.6562 13.7099 10.4854 13.8984 11.3617 14.6428C12.2474 15.3777 12.9729 16.1975 13.5383 17.102C13.6514 17.2811 13.788 17.5496 13.9482 17.9077C14.1178 18.2563 14.2073 18.4306 14.2167 18.4306C14.4052 18.4306 14.5936 18.4259 14.7821 18.4165C14.9799 18.407 15.1778 18.3976 15.3757 18.3882ZM16.676 18.3882C17.0623 18.3882 17.4534 18.4023 17.8491 18.4306C17.8491 18.4306 17.9292 18.2516 18.0894 17.8935C18.259 17.5355 18.4003 17.2716 18.5134 17.102C19.0787 16.1975 19.7996 15.3777 20.6759 14.6428C21.5616 13.8984 22.4002 13.7052 23.1917 14.0633C24.4637 14.6663 24.6428 16.3577 23.7288 19.1373C23.9926 19.1938 24.3224 19.2739 24.7181 19.3776C25.3683 18.3411 25.764 17.3612 25.9054 16.4377C26.0561 15.5049 26.0043 14.77 25.7499 14.2329C25.4955 13.6675 25.2034 13.2624 24.8736 13.0174C24.5438 12.763 24.1858 12.5557 23.7994 12.3955C23.0833 12.1128 22.2918 12.1458 21.425 12.4944C20.5675 12.843 19.7572 13.3613 18.9939 14.0491C18.5699 14.5108 18.1648 14.9773 17.7784 15.4484C17.4015 15.9195 17.1 16.5508 16.8739 17.3423C16.7796 17.6533 16.7137 18.0019 16.676 18.3882ZM7.39008 24.4516L8.15331 24.593L9.67976 23.3068L7.71516 22.9534L7.26288 23.3209C7.17808 23.4623 7.13568 23.6224 7.13568 23.8015C7.13568 24.0559 7.22048 24.2726 7.39008 24.4516ZM24.6899 24.4516C24.8595 24.2726 24.9443 24.0512 24.9443 23.7873C24.9443 23.6271 24.9113 23.4858 24.8453 23.3633L24.3648 22.9534L22.4002 23.2926L23.9266 24.593L24.6899 24.4516ZM11.7009 23.9428C12.2003 23.9428 12.45 23.6931 12.45 23.1937C12.45 22.6849 12.2003 22.4305 11.7009 22.4305C11.1921 22.4305 10.9377 22.6849 10.9377 23.1937C10.9377 23.6931 11.1921 23.9428 11.7009 23.9428Z" fill="#EEEEEE"/>
</svg>
