<svg width="32" height="32" viewBox="0 0 32 32" fill="none" xmlns="http://www.w3.org/2000/svg">
<path d="M9.81607 13.816C9.59935 13.7595 9.48628 13.637 9.47686 13.4485C9.45802 12.9774 9.86319 12.5864 10.6924 12.2754C11.5027 11.9739 11.9267 12.054 11.9644 12.5157C11.9644 12.5911 11.9503 12.6712 11.922 12.756C11.743 12.7183 11.5451 12.7183 11.3284 12.756C11.3849 12.8596 11.4132 12.9586 11.4132 13.0528C11.4132 13.4862 11.1918 13.7029 10.7489 13.7029C10.5039 13.7029 10.3108 13.5899 10.1694 13.3637C9.97154 13.5145 9.85376 13.6652 9.81607 13.816ZM22.5506 13.8019C23.1631 14.4143 23.7379 14.8855 24.275 15.2152C24.812 15.545 25.1513 15.6393 25.2926 15.4979C25.4339 15.3566 25.3397 15.0221 25.0099 14.4944C24.6801 13.9573 24.209 13.3779 23.5965 12.756C23.2291 12.3885 22.871 12.0728 22.5224 11.809C22.1266 12.0163 21.566 12.0728 20.8404 11.9786C21.4812 12.5816 22.0512 13.1894 22.5506 13.8019ZM25.3774 18.8335C25.7166 19.5119 26.0558 20.0537 26.395 20.4589C26.7342 20.8641 26.9886 21.0242 27.1583 20.9394C27.3373 20.8546 27.3608 20.506 27.2289 19.8935C27.1064 19.2811 26.8614 18.5791 26.494 17.7876C26.2584 17.2882 26.004 16.8077 25.7307 16.346C25.3256 16.5061 24.7744 16.4119 24.0771 16.0633C24.5671 16.9396 25.0005 17.863 25.3774 18.8335ZM26.5081 23.7238C26.6494 24.9582 26.8756 25.5753 27.1865 25.5753C27.3561 25.5753 27.5022 25.3586 27.6247 24.9252C27.7566 24.4823 27.8414 23.9217 27.8791 23.2432C27.6529 22.3293 27.408 21.877 27.1441 21.8864C26.8332 21.8393 26.4987 21.665 26.1406 21.3634C26.3197 22.2021 26.4421 22.9888 26.5081 23.7238ZM28.077 27.5541C28.1806 27.0829 28.2277 26.4516 28.2183 25.6601C27.9168 26.2443 27.5728 26.5364 27.1865 26.5364C26.9792 26.5364 26.7672 26.4422 26.5505 26.2537C26.5317 26.461 26.5081 26.739 26.4798 27.0876C27.0358 27.2196 27.5681 27.375 28.077 27.5541ZM14.2258 11.4698C14.2729 11.4698 14.3248 11.4557 14.3813 11.4274C14.8618 11.2295 15.1728 10.7867 15.3141 10.0988C15.4649 9.40154 15.3942 8.64302 15.1021 7.82326C15.0456 7.6725 14.9985 7.55943 14.9608 7.48405C14.9042 7.52174 14.8147 7.61597 14.6922 7.76673C14.1269 8.43573 13.7924 9.12828 13.6887 9.8444C13.5851 10.5511 13.7358 11.0693 14.141 11.3991C14.1693 11.4274 14.1975 11.4509 14.2258 11.4698ZM16.3318 9.20838C16.6615 9.32145 17.0102 9.45807 17.3777 9.61826C18.6968 9.60883 19.3752 9.43922 19.4129 9.10944C19.4224 8.91157 19.1397 8.73254 18.5649 8.57235C17.9901 8.41217 17.2128 8.36506 16.2328 8.43102C16.2988 8.68543 16.3318 8.94454 16.3318 9.20838ZM5.59006 17.6887C6.06119 17.6887 6.29675 17.8394 6.29675 18.1409C6.29675 18.4425 6.06119 18.5932 5.59006 18.5932C5.12835 18.5932 4.8975 18.4425 4.8975 18.1409C4.8975 17.8394 5.12835 17.6887 5.59006 17.6887ZM18.8476 10.3532C19.6391 10.7301 20.3458 10.9845 20.9676 11.1164C21.5895 11.2484 21.9429 11.2201 22.0277 11.0316C22.1596 10.7113 21.5848 10.1836 20.3034 9.44865C20.0961 9.85382 19.6108 10.1553 18.8476 10.3532ZM12.8407 9.03877C12.6711 8.82205 12.4685 8.61475 12.2329 8.41688C12.1481 8.35092 12.0492 8.28026 11.9361 8.20487C11.889 8.31795 11.8608 8.44515 11.8513 8.58649C11.8042 8.88801 11.7807 9.15184 11.7807 9.37798C12.0162 9.28376 12.3696 9.17069 12.8407 9.03877ZM5.30738 21.0525C4.82683 21.0337 4.28033 20.7322 3.66786 20.1479C3.03655 19.2811 2.85281 18.5461 3.11664 17.9431C3.38989 17.34 4.10601 16.5297 5.26498 15.5121C5.49112 15.3142 5.76909 15.1116 6.09888 14.9043C6.35329 14.763 6.63125 14.5415 6.93277 14.24C7.33794 13.8348 7.65359 13.3779 7.87974 12.869C8.36971 11.6724 9.29312 10.683 10.65 9.90093C10.7065 9.86324 10.7489 9.83968 10.7772 9.83026C10.7395 9.33087 10.763 8.85974 10.8478 8.41688C10.9421 7.80442 11.1258 7.26733 11.3991 6.80563C11.9267 7.02234 12.412 7.31444 12.8548 7.68192C12.9962 7.79499 13.1328 7.91749 13.2647 8.0494C13.4814 7.68192 13.6982 7.37098 13.9149 7.11657C14.3012 6.65487 14.7252 6.28268 15.1869 6C15.5355 6.46171 15.8135 6.9611 16.0208 7.49818C16.0208 7.52645 16.0302 7.55943 16.0491 7.59712C16.0962 7.59712 16.1433 7.59712 16.1904 7.59712C16.2375 7.58769 16.2893 7.58298 16.3459 7.58298C16.9489 7.55471 17.5378 7.57827 18.1126 7.65365C18.6874 7.72903 19.1585 7.87037 19.526 8.07767C19.5825 8.10593 19.6343 8.12478 19.6815 8.1342C19.738 8.1342 19.8087 8.14833 19.8935 8.1766C20.7698 8.53465 21.4812 8.99165 22.0277 9.54758C22.5836 10.0941 22.8898 10.5746 22.9464 10.9892C23.3515 11.2531 23.7944 11.6158 24.2749 12.0775C25.5753 13.4061 26.2207 14.5557 26.2113 15.5262C26.6164 16.0067 27.0028 16.6239 27.3702 17.3777C28.1806 19.1586 28.3785 20.4966 27.9639 21.3917C28.6046 22.1644 28.9909 23.3233 29.1228 24.8686C29.1605 25.434 29.1605 25.9711 29.1228 26.4799C29.104 27.3185 29.0475 28.1335 28.9532 28.925C27.2666 28.1807 25.4292 27.719 23.441 27.5399C21.3681 27.3609 19.3705 27.5211 17.4483 28.0205C15.0173 28.9816 12.4497 29.3915 9.74538 29.2501C9.40617 29.2313 9.16118 29.2124 9.01042 29.1936C10.4992 26.4422 12.4308 24.3598 14.8053 22.9464C15.3424 22.4282 15.7004 21.6791 15.8795 20.6992C16.0019 19.9548 15.969 19.2575 15.7805 18.6074C15.4696 18.8052 15.2246 18.9419 15.0456 19.0172C14.075 19.4601 13.1092 19.6203 12.1481 19.4978C11.5357 20.1574 10.796 20.6568 9.92912 20.996C9.89143 21.0148 9.7124 21.0761 9.39204 21.1797C8.77015 21.698 8.13413 22.0324 7.48397 22.1832C6.84324 22.334 6.29673 22.2492 5.84445 21.9288C5.55235 21.7309 5.37332 21.4388 5.30736 21.0525H5.30738ZM8.40269 19.6109C7.43216 20.2704 6.71134 20.6944 6.24021 20.8829C6.24021 21.0148 6.28261 21.1043 6.36742 21.1514C6.97046 21.5472 7.7808 21.2834 8.79843 20.3599C8.95862 20.3128 9.20831 20.2327 9.54753 20.1197C10.5275 19.7239 11.2624 19.1727 11.7524 18.466C12.6475 18.7299 13.5992 18.6262 14.6074 18.1551C15.7852 17.5991 16.5343 16.7982 16.8547 15.7523C16.9301 15.3095 17.128 15.1116 17.4483 15.1587C17.731 15.2152 17.8488 15.4649 17.8017 15.9078C17.6038 16.6993 17.1798 17.3966 16.5296 17.9996C16.9065 18.8571 17.0055 19.8134 16.8264 20.8688C16.6097 22.0937 16.1056 23.0454 15.3141 23.7238C13.4767 24.8262 11.9173 26.3574 10.6358 28.3173C12.9726 28.3361 15.1398 27.9357 17.1374 27.1159C19.1727 26.5788 21.3021 26.3998 23.5259 26.5788C24.2137 26.6448 24.8827 26.7437 25.5329 26.8756C25.7967 24.3881 25.4622 21.8628 24.5294 19.2999C23.7096 17.0479 22.5553 15.1257 21.0666 13.5333C19.5872 11.9315 17.9901 10.8008 16.2752 10.1412C16.0491 11.3096 15.5167 12.0399 14.6781 12.3319C14.4802 12.4073 14.2729 12.445 14.0562 12.445C13.8489 12.3791 13.6652 12.2707 13.505 12.1199C12.9396 11.6582 12.6664 10.9704 12.6852 10.0564C12.1576 10.2072 11.644 10.4192 11.1446 10.6924C9.98567 11.3708 9.18476 12.2047 8.7419 13.1941C8.45922 13.816 8.07761 14.3672 7.59706 14.8478C7.35207 15.0928 7.04113 15.3519 6.66423 15.6251C6.26848 15.9078 6.01407 16.101 5.901 16.2046C4.92106 17.0903 4.33215 17.7122 4.13428 18.0703C3.94582 18.4189 4.03063 18.89 4.38868 19.4837C4.8975 19.9077 5.35921 20.082 5.7738 20.0066C6.18839 19.9312 6.9045 19.5261 7.92214 18.7911C8.30846 18.5555 8.59114 18.5744 8.77017 18.8476C8.9115 19.1209 8.78901 19.3753 8.40269 19.6109Z" fill="black"/>
<path d="M9.81607 13.816C9.59935 13.7595 9.48628 13.637 9.47686 13.4485C9.45802 12.9774 9.86319 12.5864 10.6924 12.2754C11.5027 11.9739 11.9267 12.054 11.9644 12.5157C11.9644 12.5911 11.9503 12.6712 11.922 12.756C11.743 12.7183 11.5451 12.7183 11.3284 12.756C11.3849 12.8596 11.4132 12.9586 11.4132 13.0528C11.4132 13.4862 11.1918 13.7029 10.7489 13.7029C10.5039 13.7029 10.3108 13.5899 10.1694 13.3637C9.97154 13.5145 9.85376 13.6652 9.81607 13.816ZM22.5506 13.8019C23.1631 14.4143 23.7379 14.8855 24.275 15.2152C24.812 15.545 25.1513 15.6393 25.2926 15.4979C25.4339 15.3566 25.3397 15.0221 25.0099 14.4944C24.6801 13.9573 24.209 13.3779 23.5965 12.756C23.2291 12.3885 22.871 12.0728 22.5224 11.809C22.1266 12.0163 21.566 12.0728 20.8404 11.9786C21.4812 12.5816 22.0512 13.1894 22.5506 13.8019ZM25.3774 18.8335C25.7166 19.5119 26.0558 20.0537 26.395 20.4589C26.7342 20.8641 26.9887 21.0242 27.1583 20.9394C27.3373 20.8546 27.3608 20.506 27.2289 19.8935C27.1064 19.2811 26.8614 18.5791 26.494 17.7876C26.2584 17.2882 26.004 16.8077 25.7307 16.346C25.3256 16.5061 24.7744 16.4119 24.0771 16.0633C24.5671 16.9396 25.0005 17.863 25.3774 18.8335ZM26.5081 23.7238C26.6494 24.9582 26.8756 25.5753 27.1865 25.5753C27.3561 25.5753 27.5022 25.3586 27.6247 24.9252C27.7566 24.4823 27.8414 23.9217 27.8791 23.2432C27.6529 22.3293 27.408 21.877 27.1441 21.8864C26.8332 21.8393 26.4987 21.665 26.1406 21.3635C26.3197 22.2021 26.4421 22.9888 26.5081 23.7238ZM28.077 27.5541C28.1806 27.0829 28.2277 26.4516 28.2183 25.6601C27.9168 26.2443 27.5728 26.5364 27.1865 26.5364C26.9792 26.5364 26.7672 26.4422 26.5505 26.2538C26.5317 26.461 26.5081 26.739 26.4798 27.0876C27.0358 27.2196 27.5681 27.375 28.077 27.5541ZM14.2258 11.4698C14.2729 11.4698 14.3248 11.4557 14.3813 11.4274C14.8618 11.2295 15.1728 10.7867 15.3141 10.0988C15.4649 9.40154 15.3942 8.64303 15.1021 7.82327C15.0456 7.67251 14.9985 7.55943 14.9608 7.48405C14.9042 7.52174 14.8147 7.61597 14.6922 7.76673C14.1269 8.43573 13.7924 9.12829 13.6887 9.8444C13.5851 10.5511 13.7358 11.0693 14.141 11.3991C14.1693 11.4274 14.1976 11.4509 14.2258 11.4698ZM16.3318 9.20838C16.6615 9.32145 17.0102 9.45808 17.3777 9.61826C18.6968 9.60883 19.3752 9.43923 19.4129 9.10944C19.4224 8.91157 19.1397 8.73254 18.5649 8.57236C17.9901 8.41218 17.2128 8.36506 16.2328 8.43102C16.2988 8.68543 16.3318 8.94455 16.3318 9.20838ZM5.59006 17.6887C6.06119 17.6887 6.29675 17.8394 6.29675 18.1409C6.29675 18.4425 6.06119 18.5932 5.59006 18.5932C5.12836 18.5932 4.8975 18.4425 4.8975 18.1409C4.8975 17.8394 5.12836 17.6887 5.59006 17.6887ZM18.8476 10.3532C19.6391 10.7301 20.3458 10.9845 20.9676 11.1164C21.5895 11.2484 21.9429 11.2201 22.0277 11.0316C22.1596 10.7113 21.5848 10.1836 20.3034 9.44865C20.0961 9.85382 19.6108 10.1553 18.8476 10.3532ZM12.8407 9.03877C12.6711 8.82205 12.4685 8.61476 12.233 8.41689C12.1482 8.35093 12.0492 8.28026 11.9361 8.20488C11.889 8.31795 11.8608 8.44515 11.8513 8.58649C11.8042 8.88801 11.7807 9.15184 11.7807 9.37799C12.0162 9.28376 12.3696 9.17069 12.8407 9.03877ZM8.40269 19.6109C7.43217 20.2704 6.71134 20.6945 6.24022 20.8829C6.24022 21.0148 6.28262 21.1043 6.36742 21.1514C6.97046 21.5472 7.7808 21.2834 8.79844 20.36C8.95862 20.3128 9.20832 20.2328 9.54753 20.1197C10.5275 19.7239 11.2624 19.1727 11.7524 18.466C12.6475 18.7299 13.5992 18.6262 14.6074 18.1551C15.7853 17.5992 16.5343 16.7982 16.8547 15.7523C16.9301 15.3095 17.128 15.1116 17.4483 15.1587C17.731 15.2152 17.8488 15.4649 17.8017 15.9078C17.6038 16.6993 17.1798 17.3966 16.5296 17.9996C16.9065 18.8571 17.0055 19.8134 16.8264 20.8688C16.6097 22.0937 16.1056 23.0454 15.3141 23.7238C13.4767 24.8262 11.9173 26.3574 10.6358 28.3173C12.9726 28.3361 15.1398 27.9357 17.1374 27.1159C19.1727 26.5788 21.3021 26.3998 23.5259 26.5788C24.2137 26.6448 24.8827 26.7437 25.5329 26.8756C25.7967 24.3881 25.4622 21.8629 24.5294 19.2999C23.7096 17.0479 22.5553 15.1257 21.0666 13.5333C19.5872 11.9315 17.9901 10.8008 16.2752 10.1412C16.0491 11.3096 15.5167 12.0399 14.6781 12.332C14.4802 12.4073 14.2729 12.445 14.0562 12.445C13.8489 12.3791 13.6652 12.2707 13.505 12.1199C12.9396 11.6582 12.6664 10.9704 12.6852 10.0564C12.1576 10.2072 11.644 10.4192 11.1446 10.6924C9.98568 11.3709 9.18476 12.2047 8.7419 13.1941C8.45922 13.816 8.07761 14.3672 7.59706 14.8478C7.35208 15.0928 7.04113 15.3519 6.66423 15.6251C6.26848 15.9078 6.01408 16.101 5.90101 16.2046C4.92106 17.0903 4.33215 17.7122 4.13428 18.0703C3.94583 18.4189 4.03063 18.89 4.38869 19.4837C4.8975 19.9077 5.35921 20.082 5.7738 20.0066C6.18839 19.9312 6.90451 19.5261 7.92214 18.7911C8.30846 18.5555 8.59114 18.5744 8.77017 18.8476C8.91151 19.1209 8.78901 19.3753 8.40269 19.6109Z" fill="white"/>
</svg>
