<svg width="180" height="180" viewBox="0 0 180 180" fill="none" xmlns="http://www.w3.org/2000/svg">
<path d="M55.2154 77.715C53.9963 77.3972 53.3603 76.7081 53.3073 75.6478C53.2014 72.9979 55.4804 70.7985 60.1447 69.0491C64.7027 67.3532 67.0877 67.8038 67.2997 70.4008C67.2997 70.8249 67.2204 71.2755 67.0612 71.7525C66.0544 71.5404 64.9412 71.5404 63.7222 71.7525C64.0401 72.3352 64.1992 72.8921 64.1992 73.422C64.1992 75.8599 62.9539 77.0788 60.4626 77.0788C59.0844 77.0788 57.9982 76.4432 57.2029 75.1708C56.0899 76.0191 55.4274 76.8667 55.2154 77.715ZM126.847 77.6357C130.292 81.0804 133.526 83.7309 136.547 85.5855C139.567 87.4406 141.476 87.9711 142.271 87.1757C143.066 86.3809 142.536 84.4993 140.681 81.531C138.826 78.5098 136.176 75.2507 132.73 71.7525C130.664 69.6853 128.649 67.9095 126.688 66.4256C124.462 67.5917 121.309 67.9095 117.227 67.3796C120.832 70.7715 124.038 74.1904 126.847 77.6357ZM142.748 105.938C144.656 109.754 146.564 112.802 148.472 115.081C150.38 117.361 151.811 118.261 152.765 117.784C153.772 117.307 153.904 115.346 153.163 111.901C152.473 108.456 151.095 104.507 149.029 100.055C147.703 97.2461 146.272 94.5433 144.735 91.9463C142.456 92.8468 139.356 92.3169 135.434 90.3561C138.19 95.2852 140.628 100.479 142.748 105.938ZM149.108 133.446C149.903 140.39 151.175 143.861 152.924 143.861C153.878 143.861 154.7 142.642 155.389 140.204C156.131 137.713 156.608 134.56 156.82 130.743C155.548 125.602 154.17 123.058 152.686 123.111C150.937 122.846 149.055 121.866 147.041 120.169C148.048 124.887 148.737 129.312 149.108 133.446ZM157.933 154.992C158.516 152.341 158.781 148.79 158.728 144.338C157.032 147.624 155.097 149.267 152.924 149.267C151.758 149.267 150.565 148.737 149.347 147.677C149.241 148.843 149.108 150.407 148.949 152.368C152.076 153.11 155.071 153.984 157.933 154.992ZM80.0201 64.5176C80.2851 64.5176 80.577 64.4383 80.8948 64.2791C83.5976 63.1659 85.347 60.6752 86.1418 56.8057C86.9901 52.8837 86.5924 48.617 84.9493 44.0058C84.6315 43.1578 84.3666 42.5218 84.1545 42.0978C83.8361 42.3098 83.3327 42.8398 82.6436 43.6879C79.4638 47.451 77.5822 51.3466 76.9989 55.3748C76.4162 59.3499 77.2639 62.2648 79.5431 64.1199C79.7023 64.2791 79.8609 64.4113 80.0201 64.5176ZM91.8664 51.7971C93.7209 52.4332 95.6824 53.2016 97.7496 54.1027C105.169 54.0497 108.985 53.0956 109.198 51.2406C109.251 50.1276 107.661 49.1205 104.428 48.2195C101.194 47.3185 96.822 47.0535 91.3095 47.4245C91.6807 48.8555 91.8664 50.313 91.8664 51.7971ZM31.4441 99.4989C34.0942 99.4989 35.4192 100.347 35.4192 102.043C35.4192 103.739 34.0942 104.587 31.4441 104.587C28.847 104.587 27.5484 103.739 27.5484 102.043C27.5484 100.347 28.847 99.4989 31.4441 99.4989ZM106.018 58.2367C110.47 60.3568 114.445 61.7878 117.943 62.5297C121.441 63.2722 123.429 63.1131 123.906 62.0527C124.648 60.2511 121.414 57.2828 114.207 53.1487C113.041 55.4277 110.311 57.1236 106.018 58.2367ZM72.2289 50.8431C71.2749 49.624 70.1353 48.458 68.8101 47.3449C68.3331 46.9739 67.7767 46.5765 67.1406 46.1524C66.8756 46.7885 66.717 47.504 66.6636 48.299C66.3986 49.9951 66.2664 51.4791 66.2664 52.7511C67.5911 52.2212 69.579 51.5851 72.2289 50.8431ZM29.854 118.42C27.1509 118.315 24.0769 116.619 20.6317 113.332C17.0806 108.456 16.0471 104.322 17.5311 100.93C19.0681 97.5375 23.0963 92.9796 29.6155 87.2556C30.8875 86.1424 32.4511 85.0027 34.3062 83.8367C35.7373 83.0419 37.3008 81.7959 38.9968 80.1C41.2759 77.8207 43.0514 75.2507 44.3235 72.3881C47.0796 65.6573 52.2738 60.0919 59.9062 55.6927C60.2241 55.4807 60.4626 55.3482 60.6217 55.2952C60.4097 52.4861 60.5419 49.836 61.0189 47.3449C61.5493 43.8999 62.5826 40.8787 64.1199 38.2817C67.0877 39.5007 69.8175 41.1437 72.3082 43.2108C73.1036 43.8468 73.872 44.5359 74.6139 45.2779C75.8329 43.2108 77.0524 41.4618 78.2713 40.0307C80.4442 37.4336 82.8292 35.3401 85.4263 33.75C87.3872 36.3471 88.9509 39.1562 90.117 42.1773C90.117 42.3363 90.1699 42.5218 90.2762 42.7338C90.5411 42.7338 90.8061 42.7338 91.071 42.7338C91.3359 42.6808 91.6273 42.6543 91.9457 42.6543C95.3376 42.4952 98.6501 42.6278 101.883 43.0518C105.117 43.4758 107.767 44.2708 109.834 45.4369C110.152 45.5959 110.443 45.7019 110.708 45.7549C111.026 45.7549 111.424 45.8344 111.901 45.9934C116.83 48.0074 120.832 50.578 123.906 53.7051C127.033 56.7793 128.755 59.4821 129.073 61.8142C131.352 63.2987 133.843 65.3389 136.546 67.9359C143.861 75.4093 147.491 81.8758 147.439 87.3349C149.717 90.0377 151.891 93.5094 153.957 97.7496C158.516 107.767 159.629 115.293 157.297 120.328C160.901 124.675 163.074 131.194 163.816 139.886C164.028 143.066 164.028 146.087 163.816 148.949C163.71 153.667 163.392 158.251 162.862 162.703C153.375 158.516 143.039 155.919 131.856 154.912C120.196 153.905 108.959 154.806 98.1467 157.615C84.4723 163.022 70.0296 165.327 54.8178 164.532C52.9097 164.426 51.5316 164.32 50.6836 164.214C59.058 148.737 69.9232 137.024 83.2798 129.073C86.301 126.159 88.3147 121.945 89.3222 116.433C90.0107 112.246 89.8256 108.323 88.7653 104.667C87.0165 105.779 85.6384 106.548 84.6315 106.972C79.1719 109.463 73.7392 110.364 68.3331 109.675C64.8883 113.385 60.7275 116.195 55.8513 118.103C55.6393 118.208 54.6322 118.553 52.8302 119.136C49.3321 122.051 45.7545 123.932 42.0973 124.781C38.4932 125.629 35.4191 125.152 32.875 123.35C31.232 122.236 30.2249 120.593 29.8539 118.42H29.854ZM47.2651 110.311C41.8059 114.021 37.7513 116.406 35.1012 117.466C35.1012 118.208 35.3397 118.712 35.8167 118.977C39.2088 121.203 43.767 119.719 49.4912 114.524C50.3922 114.259 51.7967 113.809 53.7049 113.173C59.2172 110.947 63.351 107.846 66.1072 103.871C71.1422 105.356 76.4955 104.772 82.1666 102.122C88.7917 98.9949 93.0054 94.4899 94.8077 88.6067C95.2318 86.1159 96.345 85.0027 98.1467 85.2677C99.7369 85.5855 100.399 86.9901 100.135 89.4814C99.0214 93.9336 96.6364 97.8559 92.979 101.248C95.0991 106.071 95.6559 111.45 94.6485 117.387C93.4296 124.277 90.594 129.63 86.1418 133.446C75.8064 139.647 67.0348 148.26 59.8264 159.285C72.9709 159.391 85.1614 157.138 96.3979 152.527C107.846 149.506 119.824 148.499 132.333 149.506C136.202 149.877 139.965 150.433 143.623 151.175C145.106 137.183 143.225 122.978 137.978 108.562C133.366 95.8944 126.874 85.0821 118.5 76.1248C110.178 67.1147 101.194 60.7545 91.548 57.0443C90.2762 63.6165 87.2814 67.7244 82.5643 69.3669C81.4511 69.7911 80.2851 70.0031 79.0661 70.0031C77.9001 69.6324 76.8667 69.0227 75.9656 68.1744C72.7852 65.5774 71.2485 61.7085 71.3542 56.5673C68.3865 57.4155 65.4975 58.608 62.6884 60.1447C56.1694 63.9607 51.6643 68.6514 49.1732 74.2168C47.5831 77.715 45.4366 80.8155 42.7335 83.5189C41.3554 84.897 39.6064 86.3544 37.4863 87.8912C35.2602 89.4814 33.8291 90.5681 33.1931 91.1509C27.681 96.1329 24.3683 99.6311 23.2553 101.645C22.1952 103.606 22.6723 106.256 24.6863 109.596C27.5484 111.981 30.1456 112.961 32.4776 112.537C34.8097 112.113 38.8378 109.834 44.562 105.7C46.7351 104.375 48.3252 104.481 49.3322 106.018C50.1272 107.555 49.4382 108.986 47.2651 110.311Z" fill="black"/>
<path d="M55.2154 77.715C53.9963 77.3972 53.3603 76.7081 53.3073 75.6478C53.2014 72.9979 55.4804 70.7985 60.1447 69.0491C64.7027 67.3532 67.0877 67.8038 67.2998 70.4008C67.2998 70.8249 67.2204 71.2755 67.0612 71.7525C66.0544 71.5404 64.9412 71.5404 63.7222 71.7525C64.0401 72.3352 64.1993 72.8921 64.1993 73.422C64.1993 75.8599 62.9539 77.0788 60.4626 77.0788C59.0844 77.0788 57.9983 76.4432 57.2029 75.1708C56.0899 76.0191 55.4274 76.8667 55.2154 77.715ZM126.847 77.6357C130.292 81.0804 133.526 83.7309 136.547 85.5855C139.567 87.4406 141.476 87.9711 142.271 87.1757C143.066 86.3809 142.536 84.4993 140.681 81.531C138.826 78.5098 136.176 75.2507 132.73 71.7525C130.664 69.6853 128.649 67.9095 126.688 66.4256C124.462 67.5917 121.309 67.9095 117.227 67.3796C120.832 70.7715 124.038 74.1904 126.847 77.6357ZM142.748 105.938C144.656 109.754 146.564 112.802 148.472 115.081C150.38 117.361 151.811 118.261 152.765 117.784C153.772 117.307 153.905 115.346 153.163 111.901C152.474 108.456 151.095 104.507 149.029 100.055C147.703 97.2461 146.272 94.5433 144.735 91.9463C142.456 92.8468 139.356 92.3169 135.434 90.3561C138.19 95.2852 140.628 100.479 142.748 105.938ZM149.108 133.446C149.903 140.39 151.175 143.861 152.924 143.861C153.878 143.861 154.7 142.642 155.389 140.204C156.131 137.713 156.608 134.56 156.82 130.743C155.548 125.602 154.17 123.058 152.686 123.111C150.937 122.846 149.055 121.866 147.041 120.17C148.048 124.887 148.737 129.312 149.108 133.446ZM157.933 154.992C158.516 152.341 158.781 148.79 158.728 144.338C157.032 147.624 155.097 149.267 152.924 149.267C151.758 149.267 150.566 148.737 149.347 147.678C149.241 148.843 149.108 150.407 148.949 152.368C152.076 153.11 155.071 153.984 157.933 154.992ZM80.0201 64.5176C80.2851 64.5176 80.577 64.4383 80.8948 64.2791C83.5976 63.1659 85.347 60.6752 86.1418 56.8057C86.9901 52.8837 86.5924 48.617 84.9493 44.0059C84.6315 43.1579 84.3666 42.5218 84.1545 42.0978C83.8361 42.3098 83.3327 42.8398 82.6436 43.6879C79.4638 47.451 77.5823 51.3466 76.9989 55.3748C76.4162 59.3499 77.2639 62.2648 79.5431 64.1199C79.7023 64.2791 79.8615 64.4113 80.0201 64.5176ZM91.8664 51.7971C93.7209 52.4332 95.6824 53.2017 97.7496 54.1027C105.17 54.0497 108.986 53.0957 109.198 51.2406C109.251 50.1276 107.661 49.1205 104.428 48.2195C101.194 47.3185 96.822 47.0535 91.3095 47.4245C91.6807 48.8555 91.8664 50.3131 91.8664 51.7971ZM31.4441 99.4989C34.0942 99.4989 35.4192 100.347 35.4192 102.043C35.4192 103.739 34.0942 104.587 31.4441 104.587C28.847 104.587 27.5484 103.739 27.5484 102.043C27.5484 100.347 28.847 99.4989 31.4441 99.4989ZM106.018 58.2367C110.47 60.3568 114.445 61.7878 117.943 62.5297C121.441 63.2722 123.429 63.1131 123.906 62.0527C124.648 60.2511 121.414 57.2828 114.207 53.1487C113.041 55.4277 110.311 57.1236 106.018 58.2367ZM72.2289 50.8431C71.2749 49.624 70.1353 48.458 68.8106 47.345C68.3336 46.974 67.7767 46.5765 67.1406 46.1524C66.8756 46.7885 66.717 47.504 66.6636 48.299C66.3986 49.9951 66.2664 51.4791 66.2664 52.7512C67.5911 52.2211 69.579 51.5851 72.2289 50.8431ZM47.2651 110.311C41.806 114.021 37.7513 116.407 35.1012 117.466C35.1012 118.208 35.3397 118.712 35.8167 118.977C39.2088 121.203 43.767 119.719 49.4912 114.525C50.3922 114.26 51.7968 113.809 53.7049 113.173C59.2172 110.947 63.351 107.846 66.1073 103.871C71.1422 105.356 76.4955 104.772 82.1666 102.122C88.7923 98.9955 93.0054 94.4899 94.8077 88.6067C95.2318 86.1159 96.345 85.0027 98.1467 85.2677C99.7369 85.5855 100.4 86.9901 100.135 89.4814C99.0214 93.9336 96.6364 97.8559 92.979 101.248C95.0991 106.071 95.6559 111.45 94.6485 117.387C93.4296 124.277 90.594 129.63 86.1418 133.446C75.8064 139.647 67.0348 148.26 59.8264 159.285C72.9709 159.391 85.1614 157.138 96.3979 152.527C107.846 149.506 119.824 148.499 132.333 149.506C136.202 149.877 139.965 150.433 143.623 151.175C145.106 137.183 143.225 122.979 137.978 108.562C133.366 95.8944 126.874 85.0821 118.5 76.1248C110.178 67.1147 101.194 60.7545 91.548 57.0442C90.2762 63.6165 87.2814 67.7244 82.5643 69.3675C81.4511 69.7911 80.2851 70.0031 79.0661 70.0031C77.9001 69.6324 76.8668 69.0227 75.9656 68.1744C72.7853 65.5774 71.2485 61.7085 71.3543 56.5672C68.3865 57.4155 65.4975 58.608 62.6884 60.1447C56.1694 63.9613 51.6643 68.6514 49.1732 74.2168C47.5831 77.715 45.4366 80.8155 42.7335 83.5189C41.3555 84.897 39.6064 86.3544 37.4863 87.8912C35.2602 89.4814 33.8292 90.5681 33.1932 91.1509C27.681 96.1329 24.3683 99.6311 23.2553 101.645C22.1953 103.606 22.6723 106.256 24.6864 109.596C27.5484 111.981 30.1456 112.961 32.4776 112.537C34.8097 112.113 38.8379 109.834 44.562 105.7C46.7351 104.375 48.3252 104.481 49.3322 106.018C50.1272 107.555 49.4382 108.986 47.2651 110.311Z" fill="white"/>
</svg>
