<svg width="32" height="32" viewBox="0 0 32 32" fill="none" xmlns="http://www.w3.org/2000/svg">
<path d="M17.7622 25.5949C19.1101 26.0994 20.1894 26.9168 21 28.0471V29H10V28.0471C10.8201 26.8887 11.904 26.0713 13.2519 25.5949C12.479 25.2025 11.8522 24.6327 11.3715 23.8854C10.9002 23.1287 10.6645 22.2926 10.6645 21.3771C10.6645 19.845 11.2725 18.5979 12.4884 17.6357C13.2896 16.8883 13.6902 15.9775 13.6902 14.9032H10.1979V13.9363C10.8106 13.189 11.5411 12.5958 12.3895 12.1567C13.0304 11.811 13.5441 11.3019 13.9306 10.6293C13.5347 10.2089 13.3368 9.70913 13.3368 9.12994C13.3368 8.5414 13.5441 8.04161 13.9589 7.63057C14.383 7.21019 14.8967 7 15.5 7C16.0938 7 16.5981 7.21019 17.0129 7.63057C17.437 8.04161 17.6491 8.5414 17.6491 9.12994C17.6491 9.69045 17.4559 10.1902 17.0694 10.6293C17.4276 11.2926 17.946 11.8017 18.6247 12.1567C19.4919 12.6144 20.2177 13.1983 20.8021 13.9083V14.9032H17.3098C17.2909 15.9775 17.6962 16.8977 18.5257 17.6637C19.7228 18.6072 20.3213 19.845 20.3213 21.3771C20.3213 22.2832 20.081 23.11 19.6003 23.8573C19.1195 24.6047 18.5069 25.1839 17.7622 25.5949Z" fill="black"/>
</svg>
