<svg width="32" height="32" viewBox="0 0 32 32" fill="none" xmlns="http://www.w3.org/2000/svg">
<path d="M23.13 22.1125C23.5635 22.235 23.8226 22.1502 23.9074 21.8581C23.9734 21.566 23.799 21.3587 23.3845 21.2362C21.0759 20.5955 18.4659 20.2751 15.5543 20.2751C12.6051 20.2751 10.0139 20.5955 7.78073 21.2362C7.34729 21.3587 7.16826 21.566 7.24364 21.8581C7.31902 22.1408 7.57343 22.2303 8.00687 22.1267C10.1646 21.5331 12.6993 21.2362 15.6109 21.2362C18.4942 21.2362 21.0006 21.5283 23.13 22.1125ZM19.5966 22.9888C18.8899 22.8758 18.4989 23.036 18.4235 23.4694C18.3387 23.9028 18.6543 24.1855 19.3705 24.3174C20.0677 24.4493 20.454 24.2891 20.5294 23.8369C20.6142 23.4129 20.3033 23.1302 19.5966 22.9888ZM22.7343 25.2785C23.3185 25.2785 23.6106 24.9581 23.6106 24.3174C23.6106 23.9971 23.4975 23.7426 23.2714 23.5542L21.4199 24.2326L22.7343 25.2785ZM8.37435 25.2785L9.68879 24.2467L7.83726 23.5542C7.61112 23.7521 7.49805 24.0065 7.49805 24.3174C7.49805 24.9581 7.79015 25.2785 8.37435 25.2785ZM21.2644 26.8756C21.8486 26.7437 22.4422 26.5788 23.0452 26.381C21.9993 26.0983 20.8404 25.8486 19.5683 25.6319C18.2963 25.4151 16.9583 25.3068 15.5543 25.3068C14.1504 25.3068 12.8124 25.4151 11.5403 25.6319C10.2777 25.8486 9.12344 26.0983 8.07754 26.381C8.69001 26.5883 9.28363 26.7531 9.8584 26.8756C10.6876 26.7155 11.5827 26.5741 12.5438 26.4516C13.5049 26.3291 14.5084 26.2679 15.5543 26.2679C16.5908 26.2679 17.5943 26.3338 18.5648 26.4658C19.5354 26.5883 20.4352 26.7249 21.2644 26.8756ZM23.6389 20.2327L24.2184 17.7593L22.4092 19.8935C22.8804 20.0066 23.2902 20.1197 23.6389 20.2327ZM20.9817 19.7239L20.5294 16.7417L19.1726 19.4837C19.8793 19.559 20.4823 19.6391 20.9817 19.7239ZM17.0808 19.2151L15.5543 15.0456L14.0279 19.201C14.3671 19.1821 14.8759 19.1727 15.5543 19.1727C16.0631 19.1727 16.572 19.1869 17.0808 19.2151V19.2151ZM11.9361 19.4837L10.5792 16.7417L10.1269 19.7098C10.6546 19.625 11.2576 19.5496 11.9361 19.4837ZM8.71356 19.8935L6.8903 17.7593L7.48392 20.2186C7.7666 20.1338 8.17648 20.0255 8.71356 19.8935ZM15.5543 9.37798C15.0832 9.37798 14.6827 9.21309 14.353 8.8833C14.0232 8.55351 13.8583 8.15305 13.8583 7.68192C13.8583 7.22964 14.0232 6.83861 14.353 6.50882C14.6827 6.16961 15.0832 6 15.5543 6C16.016 6 16.4118 6.16961 16.7416 6.50882C17.0714 6.83861 17.2362 7.22964 17.2362 7.68192C17.2362 8.15305 17.0714 8.55351 16.7416 8.8833C16.4118 9.21309 16.016 9.37798 15.5543 9.37798ZM24.6706 21.5472C24.8402 21.877 24.925 22.2209 24.925 22.579C24.925 23.1349 24.746 23.606 24.388 23.9923C24.4162 24.096 24.4304 24.2043 24.4304 24.3174C24.4304 24.8828 24.256 25.3539 23.9074 25.7308C23.9451 25.8627 23.9639 26.0088 23.9639 26.1689C23.9639 27.1772 23.5446 27.8038 22.706 28.0487C20.5671 28.7649 18.1832 29.1229 15.5543 29.1229C12.916 29.1229 10.5321 28.7649 8.40262 28.0487C7.56401 27.8038 7.14471 27.1772 7.14471 26.1689C7.14471 26.0088 7.16355 25.8627 7.20124 25.7308C6.85261 25.3539 6.67829 24.8828 6.67829 24.3174C6.67829 24.2043 6.69243 24.096 6.72069 23.9923C6.36264 23.6249 6.18361 23.1584 6.18361 22.5931C6.18361 22.2633 6.24957 21.9571 6.38148 21.6744L4.38861 12.7418L8.8549 17.9289L9.7736 11.2719L12.6428 17.4201L15.5543 9.39211L18.4659 17.4201L21.3209 11.2719L22.2396 17.9289L26.72 12.7277L24.6706 21.5472ZM21.6319 11.1164C21.1607 11.1164 20.7603 10.9515 20.4305 10.6218C20.1007 10.292 19.9358 9.89151 19.9358 9.42038C19.9358 8.9681 20.1007 8.57706 20.4305 8.24728C20.7603 7.90806 21.1607 7.73846 21.6319 7.73846C22.0936 7.73846 22.4893 7.90806 22.8191 8.24728C23.1489 8.57706 23.3138 8.9681 23.3138 9.42038C23.3138 9.89151 23.1489 10.292 22.8191 10.6218C22.4893 10.9515 22.0936 11.1164 21.6319 11.1164ZM9.47679 11.1164C9.00566 11.1164 8.6052 10.9515 8.27541 10.6218C7.94562 10.292 7.78073 9.89151 7.78073 9.42038C7.78073 8.9681 7.94562 8.57706 8.27541 8.24728C8.6052 7.90806 9.00566 7.73846 9.47679 7.73846C9.93849 7.73846 10.3342 7.90806 10.664 8.24728C10.9938 8.57706 11.1587 8.9681 11.1587 9.42038C11.1587 9.89151 10.9938 10.292 10.664 10.6218C10.3342 10.9515 9.93849 11.1164 9.47679 11.1164ZM27.4126 12.8549C26.9509 12.8549 26.5551 12.69 26.2254 12.3602C25.8956 12.0304 25.7307 11.63 25.7307 11.1588C25.7307 10.6971 25.8956 10.3014 26.2254 9.9716C26.5551 9.64181 26.9509 9.47692 27.4126 9.47692C27.8743 9.47692 28.27 9.64181 28.5998 9.9716C28.939 10.3014 29.1087 10.6971 29.1087 11.1588C29.1087 11.63 28.939 12.0304 28.5998 12.3602C28.27 12.69 27.8743 12.8549 27.4126 12.8549ZM3.68192 12.8549C3.2108 12.8549 2.81034 12.69 2.48055 12.3602C2.16018 12.0304 2 11.63 2 11.1588C2 10.0376 2.56064 9.47692 3.68192 9.47692C4.14363 9.47692 4.53937 9.64181 4.86916 9.9716C5.20838 10.3014 5.37798 10.6971 5.37798 11.1588C5.37798 11.63 5.20838 12.0304 4.86916 12.3602C4.53937 12.69 4.14363 12.8549 3.68192 12.8549ZM15.5543 22.3952L13.8724 23.3705L15.5543 24.3316L17.2362 23.3705L15.5543 22.3952ZM11.5545 22.9888C10.8289 23.1113 10.5133 23.394 10.6075 23.8369C10.6923 24.2891 11.0833 24.4446 11.7806 24.3033C12.4873 24.1902 12.7982 23.9122 12.7134 23.4694C12.638 23.036 12.2517 22.8758 11.5545 22.9888Z" fill="black"/>
<path d="M23.13 22.1125C23.5634 22.235 23.8226 22.1502 23.9074 21.8581C23.9733 21.566 23.799 21.3587 23.3844 21.2362C21.0759 20.5955 18.4658 20.2751 15.5543 20.2751C12.605 20.2751 10.0138 20.5955 7.78069 21.2362C7.34725 21.3587 7.16822 21.566 7.2436 21.8581C7.31898 22.1408 7.57339 22.2303 8.00683 22.1267C10.1646 21.5331 12.6993 21.2362 15.6108 21.2362C18.4941 21.2362 21.0005 21.5283 23.13 22.1125ZM19.5966 22.9888C18.8899 22.8758 18.4988 23.036 18.4234 23.4694C18.3386 23.9028 18.6543 24.1855 19.3704 24.3174C20.0677 24.4493 20.454 24.2891 20.5294 23.8369C20.6142 23.4129 20.3032 23.1302 19.5966 22.9888ZM22.7343 25.2785C23.3185 25.2785 23.6106 24.9581 23.6106 24.3174C23.6106 23.9971 23.4975 23.7426 23.2713 23.5542L21.4198 24.2326L22.7343 25.2785ZM8.37431 25.2785L9.68875 24.2467L7.83722 23.5542C7.61108 23.7521 7.49801 24.0065 7.49801 24.3174C7.49801 24.9581 7.79011 25.2785 8.37431 25.2785ZM21.2643 26.8756C21.8485 26.7437 22.4422 26.5788 23.0452 26.381C21.9993 26.0983 20.8403 25.8486 19.5683 25.6319C18.2962 25.4151 16.9582 25.3068 15.5543 25.3068C14.1503 25.3068 12.8123 25.4151 11.5403 25.6319C10.2777 25.8486 9.1234 26.0983 8.0775 26.381C8.68996 26.5883 9.28359 26.7531 9.85836 26.8756C10.6875 26.7155 11.5827 26.5741 12.5438 26.4516C13.5049 26.3291 14.5084 26.2679 15.5543 26.2679C16.5908 26.2679 17.5943 26.3338 18.5648 26.4658C19.5353 26.5883 20.4352 26.7249 21.2643 26.8756ZM23.6388 20.2327L24.2183 17.7593L22.4092 19.8935C22.8803 20.0066 23.2902 20.1197 23.6388 20.2327ZM20.9817 19.7239L20.5294 16.7417L19.1725 19.4837C19.8792 19.559 20.4823 19.6391 20.9817 19.7239ZM17.0807 19.2151L15.5543 15.0456L14.0278 19.201C14.367 19.1821 14.8759 19.1727 15.5543 19.1727C16.0631 19.1727 16.5719 19.1868 17.0807 19.2151ZM11.936 19.4837L10.5792 16.7417L10.1269 19.7098C10.6546 19.625 11.2576 19.5496 11.936 19.4837ZM8.71352 19.8935L6.89026 17.7593L7.48388 20.2186C7.76656 20.1338 8.17643 20.0255 8.71352 19.8935ZM15.5543 22.3952L13.8724 23.3705L15.5543 24.3316L17.2362 23.3705L15.5543 22.3952ZM11.5544 22.9888C10.8289 23.1113 10.5132 23.394 10.6075 23.8369C10.6923 24.2891 11.0833 24.4446 11.7806 24.3033C12.4872 24.1902 12.7982 23.9122 12.7134 23.4694C12.638 23.036 12.2517 22.8758 11.5544 22.9888Z" fill="#EEEEEE"/>
</svg>
