<svg width="32" height="32" viewBox="0 0 32 32" fill="none" xmlns="http://www.w3.org/2000/svg">
<path d="M7.15174 29.9744C6.66544 29.9744 6.32604 29.711 6.13355 29.1842C5.95119 28.6574 5.71817 28.2167 5.43449 27.8621C8.84872 27.8621 12.268 27.8621 15.6924 27.8621C19.1167 27.8621 22.5462 27.8621 25.9807 27.8621C25.697 28.2167 25.4589 28.6574 25.2664 29.1842C25.0739 29.711 24.7396 29.9744 24.2634 29.9744C21.4064 29.9744 18.5443 29.9744 15.6772 29.9744C12.81 29.9744 9.96822 29.9744 7.15174 29.9744ZM6.3767 12.6348C5.47502 13.1718 5.28252 13.886 5.79922 14.7776L7.3341 17.4218C7.84066 18.3235 8.54985 18.516 9.46166 17.9993H9.47686C10.3785 17.4725 10.566 16.7582 10.0391 15.8566L8.51945 13.2123C7.9825 12.3207 7.26824 12.1283 6.3767 12.6348H6.3767ZM25.0384 12.65C24.1165 12.1232 23.4023 12.3106 22.8957 13.2123L21.3608 15.8565C20.8441 16.7582 21.0366 17.4725 21.9383 17.9993C22.84 18.5261 23.5542 18.3336 24.081 17.4218L25.6007 14.7776C26.1276 13.886 25.9401 13.1768 25.0384 12.65V12.65ZM15.7076 9.73221C14.6641 9.73221 14.1423 10.254 14.1423 11.2975V14.3521C14.1423 15.3956 14.6641 15.9173 15.7076 15.9173C16.7511 15.9173 17.2729 15.3956 17.2729 14.3521V11.2975C17.2729 10.254 16.7511 9.73221 15.7076 9.73221V9.73221ZM22.2118 21.6617C21.4419 20.7094 20.4895 19.9496 19.3548 19.3822C18.2303 18.8149 17.0145 18.5312 15.7076 18.5312C14.3905 18.5312 13.1697 18.8149 12.0451 19.3822C10.9206 19.9496 9.97836 20.7094 9.21851 21.6617H22.2118ZM17.2729 23.4702V25.0355H19.3244V23.4702H17.2729ZM12.0907 23.4702V25.0355H14.1423V23.4702H12.0907ZM6.89339 23.4702V25.0355H8.96017V23.4702H6.89339ZM22.455 23.4702V25.0355H24.5066V23.4702L22.455 23.4702ZM16.2547 7.13355H17.744C18.4633 7.13355 19.0762 7.39189 19.5828 7.90859C20.0995 8.41515 20.3578 9.02302 20.3578 9.73221V11.4647L21.0113 10.3249C21.3659 9.70688 21.8876 9.3067 22.5766 9.12434C23.2756 8.93184 23.9392 9.01289 24.5673 9.36749L28.1082 11.4039C28.7161 11.7686 29.1163 12.3005 29.3088 12.9995C29.5013 13.6986 29.4151 14.3521 29.0504 14.9599L25.9655 20.3244C25.4082 21.2666 24.5825 21.7175 23.4884 21.6769H25.0536C25.6109 21.6769 26.0921 21.8796 26.4973 22.2848C26.9026 22.6901 27.1052 23.1713 27.1052 23.7285V24.7771C27.1052 25.3445 26.9026 25.8308 26.4973 26.236C26.0921 26.6311 25.6109 26.8287 25.0536 26.8287H6.3615C5.79415 26.8287 5.30785 26.6311 4.9026 26.236C4.50748 25.8308 4.30993 25.3445 4.30993 24.7771V23.7285C4.30993 23.1713 4.50748 22.6901 4.9026 22.2848C5.30785 21.8796 5.79415 21.6769 6.3615 21.6769H7.92678C6.81234 21.7175 5.98665 21.2616 5.44969 20.3092L2.36472 14.9599C2 14.3419 1.90882 13.6885 2.09118 12.9995C2.28367 12.3005 2.68892 11.7686 3.30693 11.4039L6.8478 9.36749C7.45567 9.01289 8.10914 8.93184 8.8082 9.12434C9.50725 9.3067 10.0391 9.70182 10.4039 10.3097L11.0725 11.4799L11.0573 9.73221C11.0573 9.02302 11.3106 8.41515 11.8172 7.90859C12.3237 7.39189 12.9417 7.13355 13.6712 7.13355H15.1757L14.9173 5.82662L13.656 5.55307V4.53488L14.9173 4.29173L15.1605 3H16.2395L16.4826 4.29173L17.7592 4.53488V5.55307L16.4826 5.82662L16.2547 7.13355Z" fill="black"/>
<path d="M6.37672 12.6348C5.47504 13.1718 5.28255 13.886 5.79924 14.7776L7.33413 17.4218C7.84069 18.3235 8.54988 18.516 9.46169 17.9993H9.47688C10.3786 17.4725 10.566 16.7582 10.0392 15.8566L8.51948 13.2123C7.98252 12.3207 7.26827 12.1283 6.37672 12.6348ZM25.0385 12.65C24.1165 12.1232 23.4023 12.3106 22.8957 13.2123L21.3608 15.8565C20.8441 16.7582 21.0366 17.4725 21.9383 17.9993C22.84 18.5261 23.5542 18.3336 24.0811 17.4218L25.6008 14.7776C26.1276 13.886 25.9402 13.1768 25.0385 12.65ZM15.7076 9.73221C14.6641 9.73221 14.1423 10.254 14.1423 11.2975V14.3521C14.1423 15.3956 14.6641 15.9173 15.7076 15.9173C16.7511 15.9173 17.2729 15.3956 17.2729 14.3521V11.2975C17.2729 10.254 16.7511 9.73221 15.7076 9.73221ZM17.2729 23.4702V25.0355H19.3245V23.4702H17.2729ZM12.0907 23.4702V25.0355H14.1423V23.4702H12.0907ZM6.89342 23.4702V25.0355H8.96019V23.4702H6.89342ZM22.455 23.4702V25.0355H24.5066V23.4702L22.455 23.4702Z" fill="#EEEEEE"/>
</svg>
