<svg width="32" height="32" viewBox="0 0 32 32" fill="none" xmlns="http://www.w3.org/2000/svg">
<path d="M16.2547 7.13355H17.744C18.4633 7.13355 19.0762 7.3919 19.5828 7.90859C20.0995 8.41515 20.3578 9.02303 20.3578 9.73221V11.4647L21.0113 10.3249C21.3659 9.70689 21.8876 9.3067 22.5766 9.12434C23.2756 8.93185 23.9392 9.01289 24.5673 9.36749L28.1082 11.4039C28.7161 11.7686 29.1163 12.3005 29.3088 12.9995C29.5013 13.6986 29.4151 14.3521 29.0504 14.9599L25.9655 20.3244C25.4082 21.2666 24.5825 21.7175 23.4884 21.6769H25.0536C25.6109 21.6769 26.0921 21.8796 26.4973 22.2848C26.9026 22.6901 27.1052 23.1713 27.1052 23.7285V24.7771C27.1052 25.3445 26.9026 25.8308 26.4973 26.236C26.0921 26.6311 25.6109 26.8287 25.0536 26.8287H6.3615C5.79415 26.8287 5.30785 26.6311 4.9026 26.236C4.50748 25.8308 4.30993 25.3445 4.30993 24.7771V23.7285C4.30993 23.1713 4.50748 22.6901 4.9026 22.2848C5.30785 21.8796 5.79415 21.6769 6.3615 21.6769H7.92678C6.81234 21.7175 5.98665 21.2616 5.44969 20.3092L2.36472 14.9599C2 14.3419 1.90882 13.6885 2.09118 12.9995C2.28367 12.3005 2.68892 11.7686 3.30693 11.4039L6.8478 9.36749C7.45567 9.01289 8.10914 8.93185 8.8082 9.12434C9.50725 9.3067 10.0391 9.70182 10.4039 10.3097L11.0725 11.4799L11.0573 9.73221C11.0573 9.02303 11.3106 8.41515 11.8172 7.90859C12.3237 7.3919 12.9417 7.13355 13.6712 7.13355H15.1757L14.9173 5.82662L13.656 5.55308V4.53488L14.9173 4.29173L15.1605 3H16.2395L16.4826 4.29173L17.7592 4.53488V5.55308L16.4826 5.82662L16.2547 7.13355ZM22.455 23.4702H24.5066V25.0355H22.455V23.4702ZM6.89339 23.4702H8.96017V25.0355H6.89339V23.4702ZM12.0907 23.4702H14.1423V25.0355H12.0907V23.4702ZM17.2729 23.4702H19.3244V25.0355H17.2729V23.4702ZM6.3615 22.7103C5.67258 22.7103 5.32811 23.0497 5.32811 23.7285V24.7619C5.32811 25.4508 5.67258 25.7953 6.3615 25.7953H25.0536C25.7324 25.7953 26.0718 25.4508 26.0718 24.7619V23.7285C26.0718 23.0497 25.7324 22.7103 25.0536 22.7103H6.3615ZM21.7711 19.7166L22.9261 20.3852C23.8278 20.912 24.542 20.7195 25.0688 19.8077L28.169 14.4432C28.6756 13.5517 28.4831 12.8374 27.5915 12.3005L24.0507 10.2641C23.1388 9.72715 22.4246 9.91457 21.9079 10.8264L19.3092 15.3095L19.3244 9.73221C19.3244 8.68869 18.8027 8.16693 17.7591 8.16693H13.656C12.6125 8.16693 12.0907 8.68869 12.0907 9.73221V15.2943L9.50725 10.8264C8.98043 9.92471 8.26617 9.73221 7.36449 10.2489L3.82362 12.3005C2.91181 12.8273 2.71932 13.5416 3.24614 14.4432L6.3463 19.8077C6.86299 20.7195 7.57725 20.912 8.48906 20.3852L9.65922 19.7014C11.4018 18.2323 13.4179 17.4978 15.7076 17.4978C17.977 17.4978 19.9982 18.2374 21.7711 19.7166V19.7166ZM22.2118 21.6618C21.4419 20.7094 20.4895 19.9496 19.3548 19.3822C18.2303 18.8149 17.0145 18.5312 15.7076 18.5312C14.3905 18.5312 13.1697 18.8149 12.0451 19.3822C10.9206 19.9496 9.97836 20.7094 9.21851 21.6618H22.2118ZM15.7076 9.73221C16.7511 9.73221 17.2729 10.254 17.2729 11.2975V14.3521C17.2729 15.3956 16.7511 15.9173 15.7076 15.9173C14.6641 15.9173 14.1423 15.3956 14.1423 14.3521V11.2975C14.1423 10.254 14.6641 9.73221 15.7076 9.73221ZM25.0384 12.65C25.9401 13.1768 26.1276 13.886 25.6007 14.7776L24.081 17.4218C23.5542 18.3336 22.84 18.5261 21.9383 17.9993C21.0366 17.4725 20.8441 16.7582 21.3608 15.8565L22.8957 13.2123C23.4023 12.3106 24.1165 12.1232 25.0384 12.65V12.65ZM6.3767 12.6348C7.26825 12.1283 7.9825 12.3207 8.51946 13.2123L10.0391 15.8566C10.566 16.7582 10.3785 17.4725 9.47686 17.9993H9.46167C8.54985 18.516 7.84066 18.3235 7.3341 17.4218L5.79922 14.7776C5.28252 13.886 5.47502 13.1718 6.3767 12.6348V12.6348ZM7.15174 29.9744C6.66544 29.9744 6.32604 29.711 6.13355 29.1842C5.95119 28.6574 5.71817 28.2167 5.43449 27.8621C8.84872 27.8621 12.268 27.8621 15.6924 27.8621C19.1167 27.8621 22.5462 27.8621 25.9807 27.8621C25.697 28.2167 25.4589 28.6574 25.2664 29.1842C25.0739 29.711 24.7396 29.9744 24.2634 29.9744C21.4064 29.9744 18.5443 29.9744 15.6772 29.9744C12.81 29.9744 9.96822 29.9744 7.15174 29.9744V29.9744Z" fill="black"/>
<path d="M22.455 23.4702H24.5066V25.0355H22.455V23.4702ZM6.89339 23.4702H8.96016V25.0355H6.89339V23.4702ZM12.0907 23.4702H14.1423V25.0355H12.0907V23.4702ZM17.2728 23.4702H19.3244V25.0355H17.2728V23.4702ZM6.3615 22.7103C5.67257 22.7103 5.32811 23.0497 5.32811 23.7285V24.7619C5.32811 25.4508 5.67257 25.7953 6.3615 25.7953H25.0536C25.7324 25.7953 26.0718 25.4508 26.0718 24.7619V23.7285C26.0718 23.0497 25.7324 22.7103 25.0536 22.7103H6.3615ZM21.7711 19.7165L22.9261 20.3852C23.8278 20.912 24.542 20.7195 25.0688 19.8077L28.169 14.4432C28.6756 13.5517 28.4831 12.8374 27.5915 12.3005L24.0507 10.2641C23.1388 9.72714 22.4246 9.91457 21.9079 10.8264L19.3092 15.3095L19.3244 9.73221C19.3244 8.68869 18.8027 8.16693 17.7591 8.16693H13.656C12.6125 8.16693 12.0907 8.68869 12.0907 9.73221V15.2943L9.50725 10.8264C8.98042 9.9247 8.26617 9.73221 7.36449 10.2489L3.82362 12.3005C2.91181 12.8273 2.71931 13.5416 3.24614 14.4432L6.3463 19.8077C6.86299 20.7195 7.57724 20.912 8.48906 20.3852L9.65922 19.7014C11.4018 18.2323 13.4179 17.4978 15.7076 17.4978C17.977 17.4978 19.9982 18.2374 21.7711 19.7165ZM15.7076 9.73221C16.7511 9.73221 17.2728 10.254 17.2728 11.2975V14.3521C17.2728 15.3956 16.7511 15.9173 15.7076 15.9173C14.6641 15.9173 14.1423 15.3956 14.1423 14.3521V11.2975C14.1423 10.254 14.6641 9.73221 15.7076 9.73221ZM25.0384 12.65C25.9401 13.1768 26.1276 13.886 25.6007 14.7776L24.081 17.4218C23.5542 18.3336 22.84 18.5261 21.9383 17.9993C21.0366 17.4725 20.8441 16.7582 21.3608 15.8565L22.8957 13.2123C23.4023 12.3106 24.1165 12.1232 25.0384 12.65ZM6.3767 12.6348C7.26824 12.1283 7.9825 12.3207 8.51945 13.2123L10.0391 15.8565C10.566 16.7582 10.3785 17.4725 9.47686 17.9993H9.46166C8.54985 18.516 7.84066 18.3235 7.3341 17.4218L5.79921 14.7776C5.28252 13.886 5.47501 13.1718 6.3767 12.6348Z" fill="white"/>
</svg>
