<svg width="32" height="32" viewBox="0 0 32 32" fill="none" xmlns="http://www.w3.org/2000/svg">
<path d="M6.14773 13.4245C6.51245 12.7559 6.90757 12.0973 7.33308 11.4489C7.76873 10.7904 8.04226 10.066 8.15371 9.27578C8.70079 9.09342 9.1415 8.79455 9.47584 8.37917C9.8203 7.96379 10.1546 7.52308 10.4788 7.05704L13.2599 8.80468C13.2092 8.8452 13.1839 8.93132 13.1839 9.06303C13.1839 9.42775 13.2903 9.73169 13.503 9.97484C12.7432 12.2341 11.2032 14.4174 8.88318 16.5247C8.51846 16.2207 8.06256 15.8054 7.51547 15.2785C6.96838 14.7517 6.51248 14.1337 6.14776 13.4245H6.14773ZM23.8217 20.6734C24.075 20.5519 24.2219 20.3746 24.2624 20.1415C24.313 19.7768 24.2168 19.5286 23.9737 19.3969C22.3527 20.0048 20.4581 20.2834 18.29 20.2327C16.1321 20.1821 14.0146 19.6299 11.9377 18.5763C12.1606 18.323 12.3987 18.0646 12.652 17.8012C12.9154 17.5378 13.1535 17.2643 13.3662 16.9806C13.6904 16.6361 13.8576 16.4234 13.8677 16.3423C13.8677 16.3423 13.8069 16.3677 13.6854 16.4183C13.5638 16.469 13.503 16.5146 13.503 16.5551C13.2801 16.6564 13.037 16.7678 12.7736 16.8894C12.5203 17.0009 12.2569 17.087 11.9833 17.1478C11.4362 17.0667 10.874 17.1984 10.2965 17.5429C9.98241 17.3301 9.78485 17.1832 9.7038 17.1022C11.8921 15.0354 13.4422 12.8521 14.354 10.5523C14.5567 10.5726 14.6782 10.5827 14.7188 10.5827C15.7319 10.5827 16.2385 10.0761 16.2385 9.06302C16.2385 8.70842 16.127 8.42475 15.9041 8.21199L17.1047 6.49475C17.5606 6.69737 17.9607 6.8848 18.3052 7.05703C19.5716 7.61425 20.7722 7.58386 21.9069 6.96585C21.6232 7.45215 21.3091 7.8422 20.9647 8.13601C20.8026 8.25758 20.6253 8.37916 20.4328 8.50073C21.5877 9.58478 22.9099 9.87858 24.3992 9.38215C24.0851 9.7874 23.7102 10.1167 23.2746 10.3699C23.1226 10.4611 22.8693 10.5827 22.5148 10.7347C23.3354 12.1328 24.5461 12.7812 26.1468 12.6799C25.7112 13.0041 25.2603 13.2219 24.7943 13.3333C24.5005 13.4245 24.2523 13.46 24.0496 13.4397C24.465 14.9898 25.4579 15.9168 27.0282 16.2207C26.5217 16.4132 26.0303 16.5095 25.5541 16.5095C25.3211 16.5095 25.0932 16.4943 24.8703 16.4639C24.8703 16.5753 24.8905 16.7324 24.931 16.935C24.9108 17.6341 24.8956 18.2419 24.8855 18.7586C25.5035 19.3969 26.2177 19.7971 27.0282 19.9592C26.5217 20.1517 26.0303 20.2479 25.5541 20.2479C25.3819 20.2479 25.1235 20.2276 24.7791 20.1871C24.698 20.6937 24.6069 21.2256 24.5055 21.7828C25.1134 22.4717 25.853 22.9023 26.7243 23.0745C26.2177 23.267 25.7213 23.3633 25.235 23.3633C24.8399 23.3633 24.3738 23.2822 23.8369 23.1201C23.7254 23.3025 23.5836 23.5203 23.4114 23.7736H8.86797C8.2601 23.7736 7.94603 23.5102 7.92576 22.9833C7.9055 22.4565 8.24489 21.874 8.94395 21.2357C9.24788 20.8811 9.57715 20.5417 9.93174 20.2175C10.2863 19.8933 10.6409 19.5792 10.9955 19.2753C13.1332 20.4911 15.357 21.1749 17.667 21.3269C19.987 21.4687 22.0386 21.2509 23.8217 20.6734V20.6734ZM9.55182 18.3483C9.25802 18.6219 8.94395 18.8751 8.60962 19.1082C8.27528 19.331 7.9055 19.4577 7.50025 19.4881C7.39894 19.4881 7.24697 19.5134 7.04435 19.5641C6.84172 19.6147 6.7404 19.5894 6.7404 19.4881C6.55804 19.5286 6.40607 19.5185 6.2845 19.4577C6.16292 19.3969 6.01095 19.3513 5.82859 19.3209C5.6057 19.2703 5.28657 19.0119 4.87118 18.5459C4.45581 18.0697 4.18733 17.7303 4.06576 17.5277C3.91379 16.9198 4.02523 16.3677 4.40009 15.8712C4.77495 15.3647 5.15994 14.8632 5.55505 14.3667C5.9299 15.0557 6.56817 15.8206 7.46985 16.6615C8.37153 17.5024 9.06552 18.0646 9.55182 18.3483V18.3483ZM11.0563 6.19082C11.0968 6.16042 11.1829 6.06924 11.3147 5.91727C11.4464 5.49176 11.5021 5.03586 11.4818 4.54956C11.4717 4.06326 11.4312 3.59722 11.3603 3.15144C11.5933 2.97921 12.0999 2.95389 12.88 3.07546C13.0218 3.10585 13.1991 3.15144 13.4119 3.21223C13.8981 3.48578 14.3541 3.8505 14.7796 4.30641C15.2152 4.76231 15.5242 5.27901 15.7066 5.85649C15.9295 5.9578 16.1017 6.03378 16.2233 6.08444L15.1291 7.60413C15.0278 7.5636 14.891 7.54334 14.7188 7.54334C14.3135 7.54334 13.9995 7.66998 13.7766 7.92326L11.0563 6.19082ZM9.43025 10.6283C8.97434 11.3983 8.93889 11.8896 9.3239 12.1024C9.70889 12.3253 10.1243 12.0467 10.57 11.2666C11.0158 10.5067 11.0563 10.0154 10.6916 9.79248C10.2965 9.58985 9.87603 9.86846 9.43025 10.6283ZM8.94395 29.518C8.54883 29.518 8.27528 29.2546 8.12331 28.7278C7.97135 28.2009 7.78392 27.7602 7.56104 27.4056C10.3167 27.4056 13.0775 27.4056 15.8433 27.4056C18.6092 27.4056 21.375 27.4056 24.1408 27.4056C23.8977 27.7602 23.7001 28.2009 23.5481 28.7278C23.3962 29.2546 23.1277 29.518 22.7427 29.518C20.4328 29.518 18.1228 29.518 15.8129 29.518C13.5131 29.518 11.2235 29.518 8.94395 29.518ZM23.3962 24.8526C23.9027 24.8526 24.156 25.1059 24.156 25.6124C24.156 26.119 23.9027 26.3723 23.3962 26.3723H8.27529C7.76872 26.3723 7.51545 26.119 7.51545 25.6124C7.51545 25.1059 7.76872 24.8526 8.27529 24.8526H23.3962Z" fill="black"/>
<path d="M9.43025 10.6283C8.97434 11.3983 8.93889 11.8896 9.3239 12.1024C9.70889 12.3253 10.1243 12.0467 10.57 11.2666C11.0158 10.5067 11.0563 10.0154 10.6916 9.79246C10.2965 9.58984 9.87603 9.86845 9.43025 10.6283Z" fill="#EEEEEE"/>
<path d="M10.4788 7.05703L13.2599 8.80467C13.2092 8.84519 13.1839 8.93131 13.1839 9.06301C13.1839 9.42774 13.2903 9.73167 13.503 9.97482C12.7432 12.2341 11.2032 14.4174 8.88318 16.5247C8.51846 16.2207 8.06256 15.8054 7.51547 15.2785C6.96838 14.7517 6.51245 14.1337 6.14773 13.4245L5.55505 14.3667C5.9299 15.0556 6.56817 15.8206 7.46985 16.6615C8.37154 17.5023 9.06552 18.0646 9.55182 18.3483L10.9955 19.2753C13.1332 20.491 15.357 21.1749 17.667 21.3269C19.987 21.4687 22.0386 21.2509 23.8217 20.6734C24.075 20.5518 24.2219 20.3745 24.2624 20.1415C24.313 19.7768 24.2168 19.5286 23.9737 19.3969C22.3526 20.0048 20.4581 20.2834 18.29 20.2327C16.1321 20.1821 14.0146 19.6299 11.9377 18.5763L10.2965 17.5429C9.98241 17.3301 9.78485 17.1832 9.7038 17.1022C11.8921 15.0354 13.4422 12.8521 14.354 10.5523C14.5567 10.5726 14.6782 10.5827 14.7188 10.5827C15.7319 10.5827 16.2385 10.0761 16.2385 9.06301C16.2385 8.70841 16.127 8.42474 15.9041 8.21198L17.1047 6.49473L16.2233 6.08443L15.1291 7.60411C15.0278 7.56359 14.891 7.54333 14.7188 7.54333C14.3135 7.54333 13.9995 7.66997 13.7766 7.92325L11.0563 6.1908L10.4788 7.05703Z" fill="#EEEEEE"/>
</svg>
