<svg width="180" height="180" viewBox="0 0 180 180" fill="none" xmlns="http://www.w3.org/2000/svg">
<path d="M34.581 75.5128C36.6325 71.7519 38.8551 68.0473 41.2486 64.4001C43.6991 60.696 45.2377 56.6212 45.8646 52.1763C48.9419 51.1505 51.4209 49.4693 53.3016 47.1328C55.2392 44.7963 57.1196 42.3173 58.9432 39.6958L74.5869 49.5263C74.3017 49.7542 74.1594 50.2387 74.1594 50.9795C74.1594 53.0311 74.7579 54.7408 75.9544 56.1085C71.6805 68.8168 63.018 81.0979 49.9679 92.9514C47.9163 91.2414 45.3519 88.9054 42.2745 85.9416C39.1971 82.9783 36.6327 79.5021 34.5811 75.5128H34.581ZM133.997 116.288C135.422 115.604 136.248 114.607 136.476 113.296C136.761 111.245 136.219 109.848 134.852 109.108C125.734 112.527 115.077 114.094 102.881 113.809C90.7431 113.524 78.8321 110.418 67.1495 104.492C68.4034 103.067 69.7427 101.613 71.1675 100.132C72.6491 98.6501 73.9884 97.1117 75.1849 95.5159C77.0085 93.5781 77.949 92.3816 78.0058 91.9254C78.0058 91.9254 77.6638 92.0683 76.9804 92.3529C76.2964 92.6381 75.9544 92.8946 75.9544 93.1224C74.7005 93.6922 73.3331 94.3189 71.8515 95.0029C70.4267 95.6301 68.945 96.1144 67.406 96.4564C64.3286 96.0002 61.1662 96.741 57.9178 98.6788C56.151 97.4818 55.0398 96.6555 54.5839 96.1999C66.893 84.5741 75.6124 72.2931 80.7412 59.3567C81.8814 59.4709 82.5649 59.5277 82.7932 59.5277C88.4919 59.5277 91.3415 56.6781 91.3415 50.9795C91.3415 48.9849 90.7144 47.3892 89.4605 46.1924L96.2139 36.533C98.7784 37.6727 101.029 38.727 102.967 39.6958C110.09 42.8302 116.844 42.6592 123.226 39.1829C121.63 41.9183 119.864 44.1124 117.926 45.7651C117.015 46.4489 116.017 47.1328 114.934 47.8166C121.431 53.9144 128.868 55.567 137.245 52.7746C135.479 55.0541 133.37 56.9064 130.92 58.3307C130.065 58.8437 128.64 59.5277 126.646 60.3827C131.262 68.247 138.072 71.8943 147.076 71.3244C144.625 73.1481 142.089 74.3732 139.468 74.9998C137.815 75.5128 136.419 75.7125 135.279 75.5983C137.616 84.3176 143.201 89.532 152.034 91.2414C149.185 92.3242 146.42 92.8659 143.742 92.8659C142.431 92.8659 141.149 92.7804 139.895 92.6094C139.895 93.2361 140.009 94.1197 140.237 95.2594C140.123 99.1918 140.038 102.611 139.981 105.517C143.457 109.108 147.475 111.359 152.034 112.27C149.185 113.353 146.42 113.894 143.742 113.894C142.773 113.894 141.32 113.78 139.382 113.552C138.926 116.402 138.414 119.394 137.843 122.528C141.263 126.403 145.423 128.825 150.324 129.794C147.475 130.877 144.682 131.419 141.947 131.419C139.724 131.419 137.103 130.962 134.083 130.051C133.455 131.077 132.658 132.302 131.689 133.726H49.8823C46.463 133.726 44.6964 132.245 44.5824 129.281C44.4684 126.318 46.3775 123.041 50.3097 119.451C52.0193 117.456 53.8715 115.547 55.866 113.723C57.8604 111.9 59.855 110.133 61.8497 108.424C73.8742 115.262 86.3831 119.109 99.3769 119.964C112.427 120.761 123.967 119.536 133.997 116.288ZM53.729 103.209C52.0763 104.748 50.3097 106.172 48.4291 107.484C46.5484 108.737 44.4684 109.45 42.1889 109.621C41.619 109.621 40.7642 109.763 39.6245 110.048C38.4847 110.333 37.9147 110.19 37.9147 109.621C36.889 109.848 36.0341 109.792 35.3503 109.45C34.6664 109.108 33.8116 108.851 32.7858 108.68C31.532 108.395 29.7369 106.942 27.4004 104.321C25.0639 101.642 23.5537 99.7329 22.8699 98.5933C22.0151 95.1739 22.6419 92.0683 24.7505 89.2755C26.8591 86.4264 29.0246 83.6055 31.2471 80.8127C33.3557 84.6883 36.9459 88.9909 42.0179 93.7209C47.0898 98.451 50.9935 101.613 53.729 103.209ZM62.1917 34.8234C62.4195 34.6524 62.9038 34.1395 63.6452 33.2846C64.386 30.8911 64.6993 28.3267 64.5851 25.5913C64.5283 22.8558 64.3005 20.2344 63.9017 17.7268C65.2123 16.7581 68.0619 16.6156 72.45 17.2995C73.2476 17.4704 74.2449 17.7268 75.4419 18.0688C78.1768 19.6075 80.7418 21.6591 83.1352 24.2236C85.5855 26.788 87.3236 29.6944 88.3496 32.9428C89.6034 33.5126 90.5721 33.94 91.2561 34.225L85.1012 42.7732C84.5314 42.5452 83.7619 42.4313 82.7932 42.4313C80.5134 42.4313 78.7472 43.1436 77.4934 44.5683L62.1917 34.8234ZM53.0451 59.7842C50.4806 64.1154 50.2812 66.879 52.4469 68.076C54.6125 69.3298 56.9492 67.7627 59.4562 63.3746C61.9639 59.1002 62.1917 56.3366 60.1402 55.0827C57.9178 53.9429 55.5527 55.5101 53.0451 59.7842ZM50.3097 166.039C48.0872 166.039 46.5484 164.557 45.6936 161.594C44.8388 158.63 43.7845 156.151 42.5308 154.156C58.0314 154.156 73.5609 154.156 89.1185 154.156C104.677 154.156 120.234 154.156 135.792 154.156C134.425 156.151 133.313 158.63 132.458 161.594C131.604 164.557 130.093 166.039 127.928 166.039C114.934 166.039 101.941 166.039 88.9475 166.039C76.0112 166.039 63.1322 166.039 50.3097 166.039ZM131.604 139.796C134.453 139.796 135.877 141.221 135.877 144.07C135.877 146.919 134.453 148.344 131.604 148.344H46.5485C43.699 148.344 42.2744 146.919 42.2744 144.07C42.2744 141.221 43.699 139.796 46.5485 139.796H131.604Z" fill="black"/>
<path d="M53.0452 59.7842C50.4807 64.1154 50.2813 66.879 52.4469 68.076C54.6125 69.3298 56.9492 67.7627 59.4563 63.3746C61.9639 59.1002 62.1917 56.3366 60.1403 55.0826C57.9178 53.9429 55.5527 55.51 53.0452 59.7842Z" fill="#EEEEEE"/>
<path d="M58.9433 39.6958L74.5869 49.5263C74.3018 49.7542 74.1594 50.2386 74.1594 50.9794C74.1594 53.031 74.7579 54.7406 75.9544 56.1084C71.6805 68.8168 63.018 81.0979 49.9679 92.9514C47.9163 91.2414 45.3519 88.9054 42.2745 85.9416C39.1971 82.9783 36.6325 79.5021 34.581 75.5128L31.2472 80.8127C33.3557 84.6877 36.946 88.9909 42.0179 93.7209C47.0899 98.4504 50.9936 101.613 53.729 103.209L61.8497 108.424C73.8743 115.262 86.3831 119.109 99.3769 119.964C112.427 120.761 123.967 119.536 133.997 116.288C135.422 115.604 136.248 114.607 136.476 113.296C136.761 111.244 136.22 109.848 134.852 109.108C125.733 112.527 115.077 114.094 102.881 113.809C90.7431 113.524 78.8321 110.418 67.1496 104.492L57.9178 98.6788C56.1511 97.4818 55.0398 96.6555 54.5839 96.1999C66.8931 84.5741 75.6124 72.2931 80.7413 59.3567C81.8814 59.4709 82.5649 59.5277 82.7933 59.5277C88.4919 59.5277 91.3416 56.6781 91.3416 50.9794C91.3416 48.9848 90.7144 47.3892 89.4606 46.1924L96.2139 36.5329L91.2561 34.2249L85.1012 42.7731C84.5314 42.5452 83.7619 42.4312 82.7933 42.4312C80.5134 42.4312 78.7472 43.1436 77.4934 44.5683L62.1917 34.8232L58.9433 39.6958Z" fill="#EEEEEE"/>
</svg>
