<svg width="32" height="32" viewBox="0 0 32 32" fill="none" xmlns="http://www.w3.org/2000/svg">
<path d="M23.3979 23.7754H8.85446C8.25672 23.7754 7.94772 23.512 7.92746 22.9851C7.9072 22.4583 8.24659 21.8758 8.94565 21.2375C9.24958 20.8829 9.57885 20.5435 9.93344 20.2193C10.288 19.8951 10.6325 19.5709 10.9668 19.2467C10.7135 19.1049 10.4805 18.9529 10.2678 18.7908C10.0651 18.6186 9.83719 18.4717 9.5839 18.3501C9.27997 18.6236 8.95577 18.8769 8.61131 19.1099C8.27698 19.3328 7.90719 19.4595 7.50194 19.4899C7.40063 19.4899 7.24866 19.5152 7.04603 19.5658C6.84341 19.6165 6.7421 19.5912 6.7421 19.4899C6.55973 19.5304 6.40776 19.5203 6.2862 19.4595C6.16462 19.3987 6.01265 19.3531 5.83029 19.3227C5.59727 19.272 5.27307 19.0137 4.85769 18.5477C4.45244 18.0715 4.18903 17.7321 4.06745 17.5295C3.88509 16.7696 4.07251 16.0959 4.62973 15.5083C5.18695 14.9105 5.64286 14.2875 5.99745 13.6391C6.36218 12.9299 6.78263 12.2511 7.2588 11.6027C7.7451 10.9543 8.04396 10.1792 8.1554 9.27757C8.85447 9.03442 9.42182 8.56332 9.85746 7.86426C10.3032 7.15508 10.7895 6.50668 11.3164 5.91906C11.4481 5.49355 11.5038 5.03764 11.4835 4.55134C11.4734 4.06504 11.4329 3.59901 11.362 3.15323C11.5139 3.04179 11.7318 2.99114 12.0154 3.00127C12.2991 3.0114 12.5828 3.03672 12.8665 3.07725C13.0184 3.10764 13.2008 3.15323 13.4136 3.21402C13.8998 3.48756 14.3558 3.85229 14.7813 4.30819C15.2169 4.7641 15.5259 5.28079 15.7083 5.85827C16.1439 6.07103 16.5745 6.27366 17 6.46615C17.4255 6.64851 17.8612 6.84607 18.3069 7.05882C19.5733 7.61604 20.7739 7.58565 21.9086 6.96765C21.6249 7.45395 21.3109 7.844 20.9664 8.13781C20.8043 8.25938 20.627 8.38096 20.4345 8.50253C21.5895 9.58657 22.9116 9.88038 24.4009 9.38395C24.0868 9.7892 23.7069 10.1185 23.2611 10.3717C23.1396 10.4528 23.0129 10.5237 22.8812 10.5845C22.7495 10.6352 22.6279 10.6858 22.5165 10.7365C23.3371 12.1346 24.5427 12.783 26.1333 12.6817C25.7078 13.0059 25.262 13.2237 24.796 13.3351C24.5022 13.4263 24.2489 13.4618 24.0361 13.4415C24.4718 14.9916 25.4697 15.9186 27.0299 16.2225C26.5234 16.415 26.032 16.5113 25.5559 16.5113C25.3228 16.5113 25.0949 16.4961 24.872 16.4657C24.872 16.5771 24.8922 16.7342 24.9328 16.9368C24.9125 17.6359 24.8973 18.2437 24.8872 18.7604C25.5052 19.4088 26.2194 19.809 27.0299 19.961C26.5234 20.1535 26.032 20.2497 25.5559 20.2497C25.3836 20.2497 25.1253 20.2294 24.7808 20.1889C24.6998 20.6955 24.6086 21.2274 24.5073 21.7846C25.1151 22.4634 25.8497 22.894 26.7108 23.0763C26.2245 23.2688 25.7331 23.3651 25.2367 23.3651C24.8213 23.3651 24.3553 23.284 23.8386 23.1219C23.7069 23.3448 23.56 23.5626 23.3979 23.7754L23.3979 23.7754ZM11.4379 7.59071C11.1036 8.07701 10.7389 8.56838 10.3438 9.06481C9.94864 9.56124 9.50793 9.88544 9.02163 10.0374C8.93045 10.7162 8.63158 11.4862 8.12501 12.3473C7.62858 13.2085 7.21319 13.9177 6.87887 14.4749C7.49687 15.2246 8.16554 15.9085 8.88486 16.5265C9.91825 15.4931 10.8453 14.4496 11.6659 13.3959C12.4865 12.3423 13.0995 11.2025 13.5047 9.97662C13.292 9.73347 13.1856 9.42953 13.1856 9.06481C13.1856 8.9331 13.2109 8.84699 13.2615 8.80646L11.4379 7.59071ZM11.8938 18.5477C12.137 18.3045 12.3852 18.0563 12.6385 17.803C12.9019 17.5396 13.14 17.266 13.3527 16.9824C13.6871 16.648 13.8593 16.4353 13.8694 16.3441C13.8694 16.3441 13.8036 16.3694 13.6719 16.4201C13.5503 16.4707 13.4946 16.5163 13.5047 16.5569C13.2717 16.6582 13.0235 16.7696 12.7601 16.8912C12.5068 17.0026 12.2434 17.0888 11.9698 17.1495C11.3822 17.0685 10.8402 17.2205 10.3438 17.6054C10.597 17.7777 10.8554 17.9398 11.1188 18.0917C11.3822 18.2437 11.6406 18.3957 11.8938 18.5476V18.5477ZM16.4225 7.43874L15.9058 8.21378C16.1287 8.42654 16.2401 8.71021 16.2401 9.06481C16.2401 10.0779 15.7285 10.5845 14.7053 10.5845C14.6749 10.5845 14.5584 10.5744 14.3557 10.5541C13.3629 12.7222 11.985 14.6674 10.2222 16.3897C10.4349 16.2681 10.7135 16.1719 11.058 16.101C11.3923 16.1314 11.6608 16.1314 11.8634 16.101C12.0661 16.0604 12.3244 15.9186 12.6385 15.6754C12.6689 15.6754 13.1248 15.5893 14.0062 15.4171C14.8978 15.2449 15.1308 15.5235 14.7053 16.2529C14.6141 16.4961 14.5026 16.7696 14.3709 17.0736C14.2494 17.3674 14.067 17.6713 13.8238 17.9854C13.601 18.3906 13.3173 18.7351 12.9728 19.0188C14.8572 19.809 16.7518 20.2244 18.6564 20.2649C20.5713 20.3054 22.3341 20.0218 23.945 19.4139C23.9754 18.573 23.8943 17.6257 23.7018 16.5721C23.3472 14.5154 22.5924 12.7678 21.4375 11.3291C20.9005 10.6301 20.3129 10.0323 19.6746 9.53591C18.8743 8.88751 17.7902 8.18846 16.4225 7.43875V7.43874ZM6.25579 15.4779C5.62766 16.1769 5.25281 16.6835 5.13123 16.9976C5.31359 17.2914 5.54155 17.6105 5.81509 17.955C6.08864 18.2994 6.43816 18.4818 6.86367 18.5021C7.07643 18.5932 7.29425 18.5932 7.51715 18.5021C7.75016 18.4109 7.94265 18.3045 8.09462 18.1829C8.24659 18.1221 8.45428 17.9955 8.71769 17.803C8.29218 17.4687 7.87173 17.0989 7.45635 16.6936C7.04097 16.2884 6.64078 15.8831 6.25579 15.4779V15.4779ZM23.793 20.6904C22.0302 21.2679 20.1153 21.4908 18.0486 21.3591C15.9919 21.2172 13.9758 20.6803 12.0002 19.7482C11.8584 19.8799 11.7064 20.0268 11.5443 20.1889C11.3822 20.3409 11.21 20.5182 11.0276 20.7208C10.6426 21.1159 10.1665 21.5262 9.59911 21.9517C9.04189 22.3671 8.94058 22.6305 9.29518 22.742H22.8356C23.3219 21.9518 23.641 21.2679 23.793 20.6904V20.6904ZM12.0306 6.80047L13.7631 7.92504C13.9961 7.67176 14.3101 7.54512 14.7053 7.54512C14.8876 7.54512 15.0295 7.56538 15.1308 7.60591L15.5715 6.95244C15.1764 6.74982 14.9281 6.62318 14.8268 6.57253C14.6445 6.03557 14.5077 5.67591 14.4165 5.49354C14.3355 5.30105 14.143 5.03764 13.839 4.70331C13.6567 4.53108 13.4692 4.37911 13.2767 4.2474C13.0944 4.10557 12.8512 4.03971 12.5473 4.04984C12.6182 4.56653 12.6435 5.01738 12.6233 5.40236C12.603 5.77722 12.4612 6.14701 12.1978 6.51174C12.0863 6.62318 12.0306 6.71943 12.0306 6.80048L12.0306 6.80047ZM10.1006 10.9796C10.5261 10.2806 10.9111 10.0273 11.2556 10.2198C11.5899 10.4123 11.5544 10.858 11.1492 11.5571C10.7237 12.2562 10.3438 12.5044 10.0094 12.3017C9.65485 12.1295 9.68524 11.6888 10.1006 10.9796ZM8.94565 29.5198C8.55052 29.5198 8.27698 29.2564 8.12501 28.7296C7.97304 28.2027 7.78561 27.762 7.56273 27.4074C10.3184 27.4074 13.0741 27.4074 15.8298 27.4074C18.5957 27.4074 21.3615 27.4074 24.1273 27.4074C23.8943 27.762 23.7018 28.2027 23.5498 28.7296C23.3979 29.2564 23.1294 29.5198 22.7444 29.5198C20.4345 29.5198 18.1246 29.5198 15.8146 29.5198C13.5047 29.5198 11.215 29.5198 8.94565 29.5198V29.5198ZM23.3827 24.8544C23.8892 24.8544 24.1425 25.1076 24.1425 25.6142C24.1425 26.1208 23.8892 26.374 23.3827 26.374H8.27698C7.77042 26.374 7.51715 26.1208 7.51715 25.6142C7.51715 25.1076 7.77042 24.8544 8.27698 24.8544H23.3827Z" fill="black"/>
<path d="M11.4379 7.59071C11.1036 8.07701 10.7389 8.56838 10.3438 9.06481C9.94864 9.56124 9.50792 9.88544 9.02163 10.0374C8.93045 10.7162 8.63157 11.4862 8.12501 12.3473C7.62857 13.2085 7.21319 13.9177 6.87887 14.4749C7.49687 15.2246 8.16554 15.9085 8.88486 16.5265C9.91825 15.4931 10.8453 14.4496 11.6659 13.3959C12.4865 12.3423 13.0995 11.2025 13.5047 9.97662C13.2919 9.73347 13.1856 9.42953 13.1856 9.06481C13.1856 8.9331 13.2109 8.84699 13.2615 8.80646L11.4379 7.59071ZM11.8938 18.5477C12.137 18.3045 12.3852 18.0563 12.6385 17.803C12.9019 17.5396 13.14 17.266 13.3527 16.9824C13.6871 16.648 13.8593 16.4353 13.8694 16.3441C13.8694 16.3441 13.8036 16.3694 13.6719 16.4201C13.5503 16.4707 13.4946 16.5163 13.5047 16.5569C13.2717 16.6582 13.0235 16.7696 12.7601 16.8912C12.5068 17.0026 12.2434 17.0888 11.9698 17.1495C11.3822 17.0685 10.8402 17.2205 10.3438 17.6054C10.597 17.7777 10.8554 17.9398 11.1188 18.0917C11.3822 18.2437 11.6405 18.3957 11.8938 18.5477ZM16.4225 7.43874L15.9058 8.21378C16.1287 8.42654 16.2401 8.71021 16.2401 9.06481C16.2401 10.0779 15.7285 10.5845 14.7053 10.5845C14.6749 10.5845 14.5583 10.5744 14.3557 10.5541C13.3629 12.7222 11.985 14.6674 10.2222 16.3897C10.4349 16.2681 10.7135 16.1719 11.058 16.101C11.3923 16.1314 11.6608 16.1314 11.8634 16.101C12.0661 16.0604 12.3244 15.9186 12.6385 15.6754C12.6689 15.6754 13.1248 15.5893 14.0062 15.4171C14.8977 15.2449 15.1308 15.5235 14.7053 16.2529C14.6141 16.4961 14.5026 16.7696 14.3709 17.0736C14.2493 17.3674 14.067 17.6713 13.8238 17.9854C13.601 18.3906 13.3173 18.7351 12.9728 19.0188C14.8572 19.809 16.7518 20.2244 18.6564 20.2649C20.5712 20.3054 22.3341 20.0218 23.945 19.4139C23.9753 18.573 23.8943 17.6257 23.7018 16.5721C23.3472 14.5154 22.5924 12.7678 21.4375 11.3291C20.9005 10.6301 20.3129 10.0323 19.6746 9.53591C18.8743 8.88751 17.7902 8.18846 16.4225 7.43874ZM6.25579 15.4779C5.62766 16.1769 5.2528 16.6835 5.13123 16.9976C5.31359 17.2914 5.54154 17.6105 5.81508 17.955C6.08863 18.2994 6.43816 18.4818 6.86366 18.5021C7.07642 18.5932 7.29425 18.5932 7.51714 18.5021C7.75016 18.4109 7.94265 18.3045 8.09461 18.1829C8.24659 18.1221 8.45428 17.9955 8.71769 17.803C8.29218 17.4687 7.87172 17.0989 7.45635 16.6936C7.04096 16.2884 6.64078 15.8831 6.25579 15.4779ZM23.793 20.6904C22.0302 21.2679 20.1153 21.4908 18.0486 21.3591C15.9919 21.2172 13.9758 20.6803 12.0002 19.7482C11.8584 19.8799 11.7064 20.0268 11.5443 20.1889C11.3822 20.3409 11.21 20.5182 11.0276 20.7208C10.6426 21.1159 10.1665 21.5262 9.59911 21.9517C9.04189 22.3671 8.94058 22.6305 9.29517 22.742H22.8356C23.3219 21.9517 23.641 21.2679 23.793 20.6904ZM12.0306 6.80047L13.763 7.92504C13.9961 7.67176 14.3101 7.54512 14.7053 7.54512C14.8876 7.54512 15.0294 7.56538 15.1308 7.60591L15.5715 6.95244C15.1764 6.74982 14.9281 6.62318 14.8268 6.57252C14.6445 6.03557 14.5077 5.67591 14.4165 5.49354C14.3355 5.30105 14.143 5.03764 13.839 4.70331C13.6567 4.53108 13.4692 4.37911 13.2767 4.2474C13.0944 4.10556 12.8512 4.03971 12.5473 4.04984C12.6182 4.56653 12.6435 5.01738 12.6233 5.40236C12.603 5.77722 12.4612 6.14701 12.1978 6.51174C12.0863 6.62318 12.0306 6.71942 12.0306 6.80047ZM10.1006 10.9796C10.5261 10.2806 10.9111 10.0273 11.2556 10.2198C11.5899 10.4123 11.5544 10.858 11.1492 11.5571C10.7237 12.2562 10.3438 12.5044 10.0094 12.3017C9.65484 12.1295 9.68523 11.6888 10.1006 10.9796Z" fill="white"/>
</svg>
