<svg width="32" height="32" viewBox="0 0 32 32" fill="none" xmlns="http://www.w3.org/2000/svg">
<path d="M17.551 11.1707H18.7816C19.1286 11.1707 19.3022 11.3444 19.3022 11.692C19.3022 12.0396 19.1286 12.2133 18.7816 12.2133H12.2184C11.8608 12.2133 11.682 12.0396 11.682 11.692C11.682 11.3444 11.8608 11.1707 12.2184 11.1707H13.4332C13.0441 10.7516 12.8495 10.22 12.8495 9.576C12.8495 8.87067 13.1072 8.26756 13.6226 7.76667C14.1379 7.25556 14.7637 7 15.5 7C16.2257 7 16.8463 7.25556 17.3617 7.76667C17.8875 8.26756 18.1505 8.87067 18.1505 9.576C18.1505 10.1893 17.9507 10.7209 17.551 11.1707ZM18.3083 24.756H21.4636C21.8212 24.756 22 24.9247 22 25.262C22 25.6096 21.8212 25.7833 21.4636 25.7833H9.52062C9.17354 25.7833 9 25.6096 9 25.262C9 24.9247 9.17354 24.756 9.52062 24.756H12.6602C11.7031 23.9484 11.2245 22.9058 11.2245 21.628C11.2245 21.1884 11.2981 20.7438 11.4454 20.294L13.3702 13.256H17.6299L19.5388 20.294C19.6966 20.7233 19.7755 21.168 19.7755 21.628C19.7755 22.8649 19.2864 23.9076 18.3083 24.756ZM11.2403 30C10.5777 30 10.1307 29.6064 9.89928 28.8193C9.66789 28.022 9.36812 27.3576 9 26.826C11.1561 26.826 13.3176 26.826 15.4842 26.826C17.6509 26.826 19.8228 26.826 22 26.826C21.6214 27.3576 21.3163 28.022 21.085 28.8193C20.8536 29.6064 20.4118 30 19.7597 30C18.182 30 16.699 30 15.3107 30C13.9329 30 12.5761 30 11.2403 30V30Z" fill="black"/>
</svg>
