<svg width="180" height="180" viewBox="0 0 180 180" fill="none" xmlns="http://www.w3.org/2000/svg">
<path d="M98.7244 62.8352H105.647C107.598 62.8352 108.575 63.8123 108.575 65.7675C108.575 67.7228 107.598 68.6998 105.647 68.6998H68.7285C66.717 68.6998 65.7113 67.7228 65.7113 65.7675C65.7113 63.8123 66.717 62.8352 68.7285 62.8352H75.5617C73.3731 60.4778 72.2784 57.4875 72.2784 53.865C72.2784 49.8975 73.728 46.505 76.6271 43.6875C79.5257 40.8125 83.0458 39.375 87.1875 39.375C91.2696 39.375 94.7604 40.8125 97.6596 43.6875C100.617 46.505 102.097 49.8975 102.097 53.865C102.097 57.3148 100.973 60.3051 98.7244 62.8352ZM102.984 139.253H120.733C122.744 139.253 123.75 140.201 123.75 142.099C123.75 144.054 122.744 145.031 120.733 145.031H53.5535C51.6012 145.031 50.625 144.054 50.625 142.099C50.625 140.201 51.6012 139.253 53.5535 139.253H71.2136C65.8299 134.71 63.1378 128.845 63.1378 121.658C63.1378 119.185 63.5518 116.684 64.3804 114.154L75.2074 74.565H99.1682L109.906 114.154C110.793 116.569 111.237 119.07 111.237 121.658C111.237 128.615 108.486 134.48 102.984 139.253ZM63.2267 168.75C59.4996 168.75 56.9852 166.536 55.6834 162.109C54.3819 157.624 52.6957 153.887 50.625 150.896C62.7531 150.896 74.9115 150.896 87.0986 150.896C99.2863 150.896 111.503 150.896 123.75 150.896C121.62 153.887 119.904 157.624 118.603 162.109C117.301 166.536 114.816 168.75 111.148 168.75C102.274 168.75 93.9319 168.75 86.1227 168.75C78.3726 168.75 70.7406 168.75 63.2267 168.75Z" fill="black"/>
</svg>
