<svg width="180" height="180" viewBox="0 0 180 180" fill="none" xmlns="http://www.w3.org/2000/svg">
<path d="M49.9399 142.363H134.909C137.759 142.363 139.183 143.788 139.183 146.637C139.183 149.487 137.759 150.911 134.909 150.911H49.9399C47.0905 150.911 45.6657 149.487 45.6657 146.637C45.6657 143.788 47.0905 142.363 49.9399 142.363ZM53.6156 168.606C51.3931 168.606 49.8544 167.124 48.9995 164.161C48.1447 161.198 47.0905 158.719 45.8367 156.724C61.3373 156.724 76.8381 156.724 92.3389 156.724C107.897 156.724 123.455 156.724 139.012 156.724C137.702 158.719 136.619 161.198 135.764 164.161C134.909 167.124 133.399 168.606 131.234 168.606C118.24 168.606 105.247 168.606 92.2534 168.606C79.2602 168.606 66.3812 168.606 53.6156 168.606ZM92.4244 40.1262C89.1765 40.1262 86.4124 39.0149 84.1326 36.7924C81.9101 34.5129 80.7992 31.7489 80.7992 28.5006C80.7992 25.3092 81.9101 22.5738 84.1326 20.2943C86.4124 18.0147 89.1765 16.875 92.4244 16.875C95.616 16.875 98.3228 18.0147 100.545 20.2943C102.825 22.5738 103.965 25.3092 103.965 28.5006C103.965 31.7489 102.825 34.5129 100.545 36.7924C98.3228 39.0149 95.616 40.1262 92.4244 40.1262ZM92.4244 86.0304C90.9428 88.5375 89.4611 91.0164 87.9795 93.4672C86.4979 95.9175 85.0444 98.3396 83.6201 100.733C85.0444 103.184 86.4979 105.634 87.9795 108.085C89.4611 110.535 90.9428 112.957 92.4244 115.351C93.8492 112.957 95.3027 110.535 96.7843 108.085C98.2659 105.634 99.7476 103.184 101.229 100.733C99.7476 98.3396 98.2659 95.9175 96.7843 93.4672C95.3027 91.0164 93.8492 88.5375 92.4244 86.0304ZM54.4704 89.6203C54.1855 85.3464 53.9006 81.0152 53.6156 76.6271C53.3877 72.2391 53.1312 67.8223 52.8463 63.3774C59.6278 67.9365 67.0078 72.7521 74.9863 77.8241C80.7992 66.1984 86.6121 54.6582 92.4244 43.2035C95.3308 49.0164 98.2373 54.8576 101.144 60.7275C104.107 66.5404 107.042 72.3246 109.949 78.0806C116.616 73.5784 123.939 68.706 131.918 63.4629C131.632 67.851 131.376 72.2391 131.148 76.6271C130.977 80.9584 130.778 85.2609 130.55 89.5348C135.849 89.5348 141.121 89.5348 146.364 89.5348C151.664 89.5348 156.964 89.5348 162.264 89.5348C158.389 97.3423 154.513 105.15 150.638 112.957C146.82 120.707 143.002 128.486 139.183 136.294C123.569 136.294 107.954 136.294 92.3389 136.294C76.7244 136.294 61.1381 136.294 45.5802 136.294C41.705 128.486 37.8299 120.707 33.9546 112.957C30.1364 105.15 26.3182 97.3423 22.5 89.5348C27.7999 89.5922 33.0999 89.6203 38.3997 89.6203C43.7567 89.6203 49.1135 89.6203 54.4704 89.6203ZM139.696 61.5825C136.448 61.5825 133.684 60.471 131.405 58.2486C129.182 55.9689 128.071 53.205 128.071 49.9567C128.071 46.8223 129.182 44.1154 131.405 41.8358C133.684 39.5563 136.448 38.4166 139.696 38.4166C142.888 38.4166 145.595 39.5563 147.817 41.8358C150.097 44.1154 151.237 46.8223 151.237 49.9567C151.237 53.205 150.097 55.9689 147.817 58.2486C145.595 60.471 142.888 61.5825 139.696 61.5825ZM45.1528 61.5825C41.9045 61.5825 39.1406 60.471 36.8611 58.2486C34.6385 55.9689 33.5273 53.205 33.5273 49.9567C33.5273 46.8223 34.6385 44.1154 36.8611 41.8358C39.1406 39.5563 41.9045 38.4166 45.1528 38.4166C48.3442 38.4166 51.0511 39.5563 53.2737 41.8358C55.5532 44.1154 56.6933 46.8223 56.6933 49.9567C56.6933 53.205 55.5532 55.9689 53.2737 58.2486C51.0511 60.471 48.3442 61.5825 45.1528 61.5825ZM57.1202 103.725C58.4314 106.233 59.742 108.74 61.0526 111.247C62.4201 113.755 63.7881 116.263 65.1555 118.77C67.9483 118.77 70.7693 118.77 73.6183 118.77C76.4679 118.77 79.3176 118.77 82.1666 118.77C80.7992 116.319 79.4599 113.84 78.1493 111.333C76.8381 108.826 75.5274 106.289 74.2168 103.725C71.3104 103.725 68.4326 103.725 65.583 103.725C62.7339 103.725 59.913 103.725 57.1202 103.725ZM127.729 103.64C124.823 103.64 121.944 103.64 119.095 103.64C116.303 103.64 113.482 103.64 110.633 103.64C109.265 106.204 107.925 108.74 106.615 111.247C105.304 113.755 103.965 116.263 102.597 118.77C105.446 118.77 108.296 118.77 111.146 118.77C113.995 118.77 116.844 118.77 119.693 118.77C121.004 116.263 122.315 113.755 123.626 111.247C124.993 108.74 126.361 106.204 127.729 103.64Z" fill="black"/>
<path d="M92.4244 86.0304C90.9428 88.5381 89.4611 91.017 87.9795 93.4673C86.4979 95.9181 85.0444 98.3396 83.6201 100.733C85.0444 103.184 86.4979 105.634 87.9795 108.085C89.4611 110.535 90.9428 112.957 92.4244 115.351C93.8492 112.957 95.3027 110.535 96.7843 108.085C98.2659 105.634 99.7476 103.184 101.229 100.733C99.7476 98.3396 98.2659 95.9181 96.7843 93.4673C95.3027 91.017 93.8492 88.5381 92.4244 86.0304ZM57.1202 103.725C58.4308 106.233 59.742 108.74 61.0526 111.248C62.4201 113.755 63.7881 116.263 65.1555 118.77C67.9483 118.77 70.7693 118.77 73.6183 118.77C76.4679 118.77 79.317 118.77 82.1666 118.77C80.7992 116.319 79.4599 113.84 78.1493 111.333C76.8381 108.826 75.5274 106.289 74.2168 103.725C71.3104 103.725 68.4326 103.725 65.583 103.725C62.7339 103.725 59.913 103.725 57.1202 103.725ZM127.729 103.64C124.822 103.64 121.944 103.64 119.095 103.64C116.303 103.64 113.482 103.64 110.633 103.64C109.265 106.204 107.925 108.74 106.615 111.248C105.304 113.755 103.965 116.263 102.597 118.77C105.446 118.77 108.296 118.77 111.145 118.77C113.995 118.77 116.844 118.77 119.693 118.77C121.004 116.263 122.315 113.755 123.626 111.248C124.993 108.74 126.361 106.204 127.729 103.64Z" fill="#EEEEEE"/>
</svg>
