<svg width="81" height="81" viewBox="0 0 81 81" fill="none" xmlns="http://www.w3.org/2000/svg">
<path d="M18.9 72H62.1L50.3 62.5H30.7L18.9 72ZM41 18.9C42.5 18.9 43.9 18.4 45 17.6L47.8 12.4V12.1C47.8 8.4 44.8 5.3 41 5.3C37.3 5.3 34.2 8.3 34.2 12.1V12.4L37 17.6C38.2 18.4 39.6 18.9 41 18.9Z" fill="#1B314A"/>
<path d="M48.4 20.4L38.7 38.6L37 32.7L45.1 17.5C44.1 16.7 43.1 16 42.1 15.3H39C29 21.9 19.9 32.8 19.9 47.5L30.8 62.7H50.2L61.1 47.5C61.1 36.1 55.6 27 48.4 20.4Z" fill="#1B314A"/>
<path d="M48.6 27.9L41.4 40.9C41.4 40.9 46.4 42.2 48.6 39C50.8 35.9 50.2 28.9 48.6 27.9ZM31.2 55.1C29.6 41.2 32.6 27 39.1 20.3L38.6 19.6C31.5 25.9 24.6 35.2 24.6 46.2L31.2 55.1ZM37.9 69V63.3H35.4L28.8 69H37.9ZM42.4 7.89999C41.6 7.39999 40.6 7.29999 39.7 7.59999C37.8 8.09999 36.7 10.1 37.2 12C37.2 12.1 37.2 12.1 37.3 12.2C40.3 12.4 42.8 9.29999 42.4 7.89999Z" fill="#396EB0"/>
</svg>
