<svg width="81" height="81" viewBox="0 0 81 81" fill="none" xmlns="http://www.w3.org/2000/svg">
<path d="M19.6 72H67L65 65.9C65 65.9 64.9 48.9 64.9 39.8C64.9 22.5 56.4 14.5 48.9 11.4C43.3 9.10001 34.3 9.60001 34.3 9.60001L37.6 16.1L12 36.4L14 48.6L27.4 52.1L33.5 47C34.7 47.5 36 47.8 37.2 48.1V48.4C37.2 48.4 22.9 57 19.6 72ZM31.4 31.3C30.8 31.6 30.3 30.8 30.8 30.3L38 24.1L40.2 27.8L31.4 31.3Z" fill="#1B314A"/>
<path d="M15.8 38L17.1 45.9L21.8 47L21.7 42.4L18.8 41.9L15.8 38ZM30.8 33.4L46.4 29.6L48.6 25.8C48.6 25.8 51.4 26.9 50.7 32.1C50 37.3 43.9 40.4 38.6 39.7C31.7 38.8 30.8 33.4 30.8 33.4ZM36 67.9C41.1 51.5 52.4 54.9 52.8 45.5C49.5 51.4 42.1 51.1 42.1 51.1C42.1 51.1 30.5 56.2 26.3 67.9H36Z" fill="#396EB0"/>
</svg>
