<svg width="81" height="81" viewBox="0 0 81 81" fill="none" xmlns="http://www.w3.org/2000/svg">
<path d="M58.7 59.4L55.5 32.1L64.1 23.9V12.8H53V20.9H46.3V12.8H34.7V20.9H28V12.8H16.9V23.9L25.5 32.1L22.3 59.4H15.7V71H65.3V59.4H58.7Z" fill="#F5E8C7"/>
<path d="M58.5 59.7L54.3 32.5H56.5L64.1 23.9V12.8L58.3 17.4V25.6H32L43.6 32.5H46.8C46.8 44.6 44 53.8 35.1 59.7H48.4L54.5 70H64.4V59.7H58.5Z" fill="#F0BB95"/>
<path d="M59.1 58.1L56.5 33.3L65.2 24.3V11.5H51.8V19.7H47.6V11.5H33.5V19.7H29.3V11.5H15.6V24.4L24.3 33.4L21.7 58.2H14.4V72.3H66.2V72H66.4V58.1H59.1ZM36 22.2V14H45V22.2H54.2V14H62.7V23.3L54.4 32H26.5L18.1 23.4V14H26.7V22.2H36ZM54 34.4L56.6 58.1H24.3L26.9 34.4H54ZM56.9 60.6H64V69.7H17V60.6H56.9Z" fill="#222222"/>
</svg>
