<svg width="144" height="144" viewBox="0 0 144 144" fill="none" xmlns="http://www.w3.org/2000/svg">
<path fill-rule="evenodd" clip-rule="evenodd" d="M70.6772 18.2173C70.6772 18.2173 94.148 28.3842 87.9874 51.5905C81.8268 74.7968 66.4441 61.4173 66.4441 61.4173L70.715 18.2551L70.6772 18.2173ZM30.1606 122.381H113.953V130.091H30.1606V122.381Z" fill="#FEFFDE"/>
<path fill-rule="evenodd" clip-rule="evenodd" d="M36.548 127.937H107.792V133.72H36.548V127.937Z" fill="#FEFFDE"/>
<path fill-rule="evenodd" clip-rule="evenodd" d="M30.0095 132.472H113.802V140.183H30.0095V132.472ZM59.7165 58.6961H82.3181L101.254 123.099H42.4819L59.7165 58.6961Z" fill="#FEFFDE"/>
<path fill-rule="evenodd" clip-rule="evenodd" d="M48.6047 57.1087H93.9591V62.8535H48.6047V57.1087Z" fill="#FEFFDE"/>
<path fill-rule="evenodd" clip-rule="evenodd" d="M71.2441 18.2551C71.2441 18.2551 47.6976 28.422 53.8961 51.6283C60.0945 74.8346 75.515 61.4551 75.515 61.4551L71.2441 18.2929V18.2551Z" fill="#FEFFDE"/>
<path d="M71.0551 22.337C74.6872 22.337 77.6315 19.9172 77.6315 16.9323C77.6315 13.9473 74.6872 11.5276 71.0551 11.5276C67.4231 11.5276 64.4787 13.9473 64.4787 16.9323C64.4787 19.9172 67.4231 22.337 71.0551 22.337Z" fill="#FEFFDE"/>
<path fill-rule="evenodd" clip-rule="evenodd" d="M74.4567 12.2835C74.4567 12.2835 75.8929 14.211 75.8929 16.5543C75.8929 18.8598 75.3638 21.0142 75.3638 21.0142C75.3638 21.0142 81.4866 16.6677 74.4567 12.2835ZM36.548 130.091H107.792V132.472H36.548V130.091ZM75.3638 21.0142C75.3638 21.0142 83.7165 26.4567 86.7024 33.6C89.6882 40.7433 89.1969 43.389 88.5921 48.6047C87.9874 53.8205 86.0221 57.0709 86.0221 57.0709H93.9213V62.8157H81.789L81.1465 57.0709C81.1465 57.0709 81.0709 55.4835 80.6929 54.1606C80.315 52.8 84.2079 50.948 84.6236 45.0898C85.0016 39.2315 84.6614 35.5276 82.6205 31.1811C80.6173 26.7968 75.2882 21.0142 75.2882 21.0142H75.3638Z" fill="#B6D995"/>
<path fill-rule="evenodd" clip-rule="evenodd" d="M58.2425 62.8535H83.5276L101.102 122.381H113.991V130.091H107.792V132.472H113.839V140.183H95.6598V130.091L92.485 122.381L80.6929 68.3717L58.2425 62.8535Z" fill="#B6D995"/>
</svg>
