<svg width="144" height="144" viewBox="0 0 144 144" fill="none" xmlns="http://www.w3.org/2000/svg">
<path fill-rule="evenodd" clip-rule="evenodd" d="M31.3323 52.0819C25.0961 57.789 25.852 57.3732 28.611 62.3244C31.3323 67.2756 37.7197 69.4299 43.7291 67.6913C49.7008 65.9528 62.8535 60.7748 67.6535 61.8709C72.4535 63.0047 73.663 65.3102 73.9653 67.8047C74.2677 70.2992 66.9354 76.3843 58.8472 84.1701C50.7591 91.9181 43.6535 93.3543 44.7496 109.531C45.8835 125.707 45.4677 129.373 43.1622 131.906C40.8567 134.438 83.7543 141.846 89.3102 139.313C94.8661 136.743 109.833 137.235 106.885 121.928C103.937 106.583 99.0236 87.9118 106.507 75.137C113.991 62.3622 121.55 35.7543 86.589 21.3543C51.6283 6.95434 65.4992 22.6772 62.0976 24.4913C58.6961 26.2677 57.5244 26.6457 55.4835 27.6284C51.7795 29.4047 38.022 45.9969 31.3323 52.0819Z" fill="#91C788"/>
<path fill-rule="evenodd" clip-rule="evenodd" d="M33.6378 122.419H117.43V130.129H33.6378V122.419Z" fill="#91C788"/>
<path fill-rule="evenodd" clip-rule="evenodd" d="M40.0252 127.975H111.269V133.757H40.0252V127.975Z" fill="#91C788"/>
<path fill-rule="evenodd" clip-rule="evenodd" d="M33.4866 132.51H117.279V140.22H33.4866V132.51Z" fill="#91C788"/>
<path fill-rule="evenodd" clip-rule="evenodd" d="M61.0394 62.1354C61.0394 62.1354 64.252 57.4488 70.9417 57.1843C77.5937 56.9197 73.7764 44.674 73.7764 44.674C73.7764 44.674 82.3559 55.748 82.3559 61.4551C82.3559 67.1622 73.3228 69.6567 73.3228 69.6567C73.3228 69.6567 72.189 62.778 61.0772 62.0976L61.0394 62.1354ZM98.9858 28.1197C98.9858 28.1197 115.049 37.115 107.339 59.9433C99.6283 82.7717 86.1732 94.526 88.5165 106.28C90.8598 118.035 88.8567 120.038 89.6882 121.058C90.5197 122.079 93.2031 122.079 97.0583 120.907C100.913 119.735 100.233 122.57 100.573 124.271C100.913 125.934 103.294 140.183 103.294 140.183H117.241V132.472H111.231V130.091H117.392V122.381H106.923C106.923 122.381 103.332 105.449 102.539 94.8661C101.745 84.2835 104.731 77.7071 108.964 70.1858C113.159 62.6268 117.694 40.8189 98.948 28.1197H98.9858Z" fill="#52734D"/>
<path fill-rule="evenodd" clip-rule="evenodd" d="M40.063 130.129H111.307V132.51H40.063V130.129Z" fill="#52734D"/>
</svg>
