<svg width="144" height="144" viewBox="0 0 144 144" fill="none" xmlns="http://www.w3.org/2000/svg">
<path fill-rule="evenodd" clip-rule="evenodd" d="M31.2945 52.0819C24.3779 58.4693 26.3055 57.9402 29.0268 62.8913C31.748 67.8425 36.3968 71.4709 48.0378 65.8016C59.6787 60.1323 62.7779 60.7748 67.5779 61.9087C72.3779 63.0425 73.5874 65.348 73.8898 67.8425C74.1921 70.337 66.8598 76.4221 58.7716 84.2079C50.6835 91.9559 43.5779 93.3921 44.674 109.569C45.8079 125.745 45.3921 129.411 43.0866 131.943C40.7811 134.476 83.6787 141.883 89.2346 139.351C94.7905 136.781 109.757 137.272 106.809 121.965C103.861 106.62 98.948 87.9496 106.431 75.1748C113.915 62.4 121.474 35.7921 86.5134 21.3921C51.5527 6.99213 65.4236 22.715 62.022 24.5291C58.6205 26.3055 57.4488 26.6835 55.4079 27.6661C51.7039 29.4425 37.9087 45.9969 31.2567 52.1197L31.2945 52.0819Z" fill="#FEFFDE"/>
<path fill-rule="evenodd" clip-rule="evenodd" d="M33.6378 122.419H117.43V130.129H33.6378V122.419Z" fill="#FEFFDE"/>
<path fill-rule="evenodd" clip-rule="evenodd" d="M40.0252 127.975H111.269V133.757H40.0252V127.975Z" fill="#FEFFDE"/>
<path fill-rule="evenodd" clip-rule="evenodd" d="M33.4866 132.51H117.279V140.22H33.4866V132.51Z" fill="#FEFFDE"/>
<path fill-rule="evenodd" clip-rule="evenodd" d="M61.0394 62.1354C61.0394 62.1354 64.252 57.4488 70.9417 57.1843C77.5937 56.9197 73.7764 44.674 73.7764 44.674C73.7764 44.674 82.3559 55.748 82.3559 61.4551C82.3559 67.1622 73.3228 69.6567 73.3228 69.6567C73.3228 69.6567 72.189 62.778 61.0772 62.0976L61.0394 62.1354ZM98.9858 28.1197C98.9858 28.1197 115.049 37.115 107.339 59.9433C99.6283 82.7717 86.1732 94.526 88.5165 106.28C90.8598 118.035 88.8567 120.038 89.6882 121.058C90.5197 122.079 93.2031 122.079 97.0583 120.907C100.913 119.735 100.233 122.57 100.573 124.271C100.913 125.934 103.294 140.183 103.294 140.183H117.241V132.472H111.231V130.091H117.392V122.381H106.923C106.923 122.381 103.332 105.449 102.539 94.8661C101.745 84.2835 104.731 77.7071 108.964 70.1858C113.159 62.6268 117.694 40.8189 98.948 28.1197H98.9858Z" fill="#B6D995"/>
<path fill-rule="evenodd" clip-rule="evenodd" d="M40.063 130.129H111.307V132.51H40.063V130.129Z" fill="#B6D995"/>
</svg>
