<svg width="144" height="144" viewBox="0 0 144 144" fill="none" xmlns="http://www.w3.org/2000/svg">
<path d="M53.3608 17.9086C53.2878 17.9128 53.2142 17.915 53.1402 17.915C51.0528 17.915 49.3606 16.2228 49.3606 14.1354C49.3606 12.0481 51.0528 10.3559 53.1402 10.3559C55.2275 10.3559 56.9197 12.0481 56.9197 14.1354C56.9197 15.2827 56.4086 16.3105 55.6016 17.0037L71.1874 35.1654L86.7707 17.0393C85.9652 16.3461 85.4551 15.3193 85.4551 14.1732C85.4551 12.0859 87.1473 10.3937 89.2346 10.3937C91.322 10.3937 93.0142 12.0859 93.0142 14.1732C93.0142 16.2606 91.322 17.9528 89.2346 17.9528C89.1605 17.9528 89.0868 17.9506 89.0137 17.9464L87.7228 39.9874L103.191 31.9427C102.919 31.4209 102.765 30.8276 102.765 30.1984C102.765 28.1111 104.458 26.4189 106.545 26.4189C108.632 26.4189 110.324 28.1111 110.324 30.1984C110.324 32.2858 108.632 33.978 106.545 33.978C105.908 33.978 105.308 33.8204 104.781 33.5421L92.051 57.6756H103.03V65.9906H89.4355L103.658 122.268H113.953V129.978H107.792V132.321H113.802V140.031H30.0095V132.321H36.548V129.978H30.1606V122.268H40.6176L53.5703 65.9906H41.1213V57.6756H50.3625L37.6296 33.5052C37.1035 33.7829 36.504 33.9402 35.8677 33.9402C33.7803 33.9402 32.0882 32.248 32.0882 30.1606C32.0882 28.0733 33.7803 26.3811 35.8677 26.3811C37.9551 26.3811 39.6473 28.0733 39.6473 30.1606C39.6473 30.793 39.4919 31.3892 39.2174 31.913L54.652 39.9874L53.3608 17.9086Z" fill="#FEFFDE"/>
<path d="M87.8362 17.6882L91.5024 11.1496V11.1118C96.2268 16.7055 89.3481 17.915 89.3481 17.915L87.7229 39.9874L103.181 31.937L103.196 31.9516C102.921 31.4276 102.765 30.8312 102.765 30.1984C102.765 28.1111 104.458 26.4189 106.545 26.4189C108.632 26.4189 110.324 28.1111 110.324 30.1984C110.324 32.2858 108.632 33.978 106.545 33.978C105.901 33.978 105.295 33.8169 104.764 33.5329L92.0315 57.6756H103.03V65.9528L89.4236 65.9528L103.899 122.23H113.953V129.94H107.868V132.208L113.802 132.321V140.031H101.858C101.858 140.031 101.177 136.127 99.9671 132.246H36.6614V129.865H99.1455C98.6921 128.702 98.2519 127.945 97.8141 127.193C96.6214 125.143 95.4469 123.124 94.0724 113.008C92.2205 99.0992 84.5102 70.7906 84.5102 70.7906L53.1583 65.9528L85.4174 65.9528V57.6756H78.7654L87.8362 17.6882Z" fill="#B6D995"/>
<path d="M53.1583 65.9528H52.9512L52.9134 65.915L53.1583 65.9528Z" fill="#B6D995"/>
</svg>
