<svg width="144" height="144" viewBox="0 0 144 144" fill="none" xmlns="http://www.w3.org/2000/svg">
<path fill-rule="evenodd" clip-rule="evenodd" d="M47.5842 64.0252L96.0756 64.1764L103.975 124.271L40.1764 123.439L47.5842 64.0252Z" fill="#91C788"/>
<path fill-rule="evenodd" clip-rule="evenodd" d="M37.8709 66.0283H105.978L114.18 22.526L94.3748 23.6976V34.3559H82.7716V24.0378H62.022V34.3559H49.9276L49.8142 24.0756L30.1228 22.526L37.8709 66.0283ZM29.9716 122.268H113.764V129.978H29.9716V122.268Z" fill="#91C788"/>
<path fill-rule="evenodd" clip-rule="evenodd" d="M36.359 127.824H107.603V133.606H36.359V127.824Z" fill="#91C788"/>
<path fill-rule="evenodd" clip-rule="evenodd" d="M29.8205 132.359H113.613V140.069H29.8205V132.359Z" fill="#91C788"/>
<path fill-rule="evenodd" clip-rule="evenodd" d="M107.792 22.9039C107.792 22.9039 102.274 57.6378 101.442 60.1701C100.611 62.7024 97.8897 66.0283 97.8897 66.0283H105.94L114.142 22.526L107.754 22.9039H107.792ZM52.3842 66.0283H96.3023L103.672 122.268H113.726V129.978L107.641 129.865V132.246L113.575 132.359V140.069H101.631C101.631 140.069 100.724 133.606 99.0992 129.902C97.5118 126.161 95.6976 126.954 93.8456 113.083C91.9937 99.1748 88.063 74.5323 88.063 74.5323L52.3464 66.1039L52.3842 66.0283Z" fill="#52734D"/>
<path fill-rule="evenodd" clip-rule="evenodd" d="M36.4346 129.865H107.679V132.246H36.4346V129.865Z" fill="#52734D"/>
</svg>
