<svg width="144" height="144" viewBox="0 0 144 144" fill="none" xmlns="http://www.w3.org/2000/svg">
<path d="M47.3343 66.0284H37.8709L30.1228 22.526L49.8142 24.0756L49.9276 34.3559H62.022V24.0378H82.7716V34.3559H94.3748V23.6977L114.18 22.526L105.978 66.0284H96.319L103.712 122.268H113.764V129.978H107.603V132.359H113.613V140.069H29.8205V132.359H36.3591V129.978H29.9716V122.268H40.3179L47.3343 66.0284Z" fill="#FEFFDE"/>
<path d="M101.442 60.1701C102.274 57.6378 107.792 22.904 107.792 22.904H107.754L114.142 22.526L105.94 66.0284H97.8897C97.8897 66.0284 100.611 62.7024 101.442 60.1701Z" fill="#B6D995"/>
<path d="M96.3023 66.0284H52.3842L52.3464 66.104L88.063 74.5323C88.063 74.5323 91.9937 99.1748 93.8456 113.083C95.2328 123.473 96.5987 125.635 97.864 127.638C98.2823 128.301 98.6896 128.946 99.0831 129.865H36.4346V132.246H99.9454C101.036 135.826 101.631 140.069 101.631 140.069H113.575V132.359L107.641 132.246L107.679 132.246V129.865L113.726 129.978V122.268H103.672L96.3023 66.0284Z" fill="#B6D995"/>
</svg>
