<svg width="180" height="180" viewBox="0 0 180 180" fill="none" xmlns="http://www.w3.org/2000/svg">
<path d="M42.0117 48.4668C42.0117 46.6895 42.6497 45.1628 43.9258 43.8867C45.2018 42.6107 46.7285 41.9727 48.5059 41.9727H104.082C117.708 41.9727 127.757 45.8919 134.229 53.7305C137.829 58.0599 139.629 63.597 139.629 70.3418C139.629 77.041 136.553 82.8971 130.4 87.9102C139.15 92.6042 143.525 99.8958 143.525 109.785C143.525 119.674 140.016 127.194 132.998 132.344C126.025 137.448 117.458 140 107.295 140H48.5059C46.7285 140 45.2018 139.385 43.9258 138.154C42.6497 136.878 42.0117 135.352 42.0117 133.574V48.4668ZM67.7832 121.543H106.885C110.394 121.543 113.083 120.495 114.951 118.398C116.82 116.302 117.754 113.431 117.754 109.785C117.754 106.139 116.82 103.268 114.951 101.172C113.083 99.0755 110.394 98.0273 106.885 98.0273H67.7832V121.543ZM67.7832 80.0488H104.355C107.227 80.0488 109.528 79.2057 111.26 77.5195C112.992 75.7878 113.857 73.3952 113.857 70.3418C113.857 67.2428 112.992 64.8275 111.26 63.0957C109.528 61.3639 107.227 60.498 104.355 60.498H67.7832V80.0488Z" fill="#421535" stroke="#421535" stroke-width="3"/>
</svg>
