<svg width="256" height="256" viewBox="0 0 256 256" fill="none" xmlns="http://www.w3.org/2000/svg">
<path fill-rule="evenodd" clip-rule="evenodd" d="M125.015 37C123.194 37 121.729 38.2823 121.729 39.8756V56.8665C103.906 58.3513 89.2007 71.7861 86.1809 89.5504L63.5926 103.62C58.5912 106.759 56 112.588 56 119.16C56 122.828 57.052 126.534 59.0487 129.693C64.4155 138.186 75.3783 141.257 84.3703 136.863L91.9129 133.314C93.9067 132.488 96.0958 131.668 98.7234 133.186C100.761 134.363 102.01 136.526 102.01 138.88C100.943 181.326 79.6592 198.963 65.1787 206.299C59.5656 209.057 56.0001 214.785 56.0001 221.041V227.613C56.0001 231.098 57.3865 234.443 59.8514 236.908C62.3162 239.372 65.6614 240.759 69.1457 240.759H187.457C190.941 240.759 194.286 239.373 196.751 236.908C199.216 234.443 200.602 231.098 200.602 227.613V221.041C200.602 214.785 197.037 209.057 191.424 206.297C176.943 198.963 155.763 181.325 154.695 138.879H164.452C167.936 138.879 171.281 137.492 173.746 135.028C176.211 132.563 177.597 129.218 177.597 125.733V89.5827C177.597 75.6389 172.053 62.266 162.192 52.4053C152.333 42.5445 138.96 37.0001 125.015 37.0001L125.015 37Z" fill="#FBC5C5"/>
<path fill-rule="evenodd" clip-rule="evenodd" d="M125.015 37.0001C124.824 37.0001 124.637 37.0141 124.456 37.0411C122.903 37.2721 121.729 38.4492 121.729 39.8756V56.8665C103.906 58.3513 89.2007 71.7861 86.1809 89.5504L63.5926 103.62C58.5912 106.759 56 112.588 56 119.16C56 122.828 57.052 126.534 59.0487 129.693C64.4155 138.186 75.3783 141.257 84.3703 136.863L91.9129 133.314C93.9067 132.488 96.0958 131.668 98.7234 133.186C100.761 134.363 102.01 136.526 102.01 138.88C100.943 181.326 79.6592 198.963 65.1787 206.299C59.5656 209.057 56.0001 214.785 56.0001 221.041V227.613C56.0001 231.098 57.3865 234.443 59.8514 236.908C62.3162 239.372 65.6614 240.759 69.1457 240.759H187.457C190.941 240.759 194.286 239.373 196.751 236.908C199.216 234.443 200.602 231.098 200.602 227.613V221.041C200.602 214.785 197.037 209.057 191.424 206.297C177.601 199.296 157.674 182.907 154.963 144.513C154.834 142.685 154.744 140.808 154.695 138.879H164.452C167.936 138.879 171.281 137.492 173.746 135.028C176.211 132.563 177.597 129.218 177.597 125.733V89.5827C177.597 75.6389 172.053 62.266 162.192 52.4053C152.466 42.6775 139.32 37.1504 125.578 37.0031C125.391 37.0011 125.203 37.0001 125.015 37.0001ZM127.362 42.6926V62.0506L122.196 62.4809C106.934 63.7524 94.3235 75.2676 91.7351 90.4945L91.3104 92.9927L66.587 108.393C66.5849 108.394 66.5827 108.395 66.5806 108.397C63.6406 110.245 61.6338 113.983 61.6338 119.16C61.6338 121.774 62.3896 124.434 63.8109 126.683L63.8114 126.684C67.636 132.736 75.4756 134.939 81.8968 131.801L81.9341 131.783L89.6342 128.16L89.8048 128.089C91.8982 127.222 96.4183 125.348 101.541 128.307M127.362 42.6926C138.957 43.2733 149.96 48.1389 158.208 56.3887C167.013 65.194 171.963 77.1346 171.963 89.5827V125.733C171.963 127.722 171.171 129.635 169.762 131.044C168.353 132.453 166.441 133.245 164.452 133.245H148.918L149.063 139.021C149.621 161.204 155.46 177.303 163.373 188.926C171.265 200.519 180.998 207.332 188.878 211.323L188.908 211.338L188.938 211.353C192.623 213.165 194.968 216.931 194.968 221.041V227.613C194.968 229.602 194.176 231.515 192.767 232.924C191.358 234.333 189.446 235.125 187.457 235.125H69.1457C67.157 235.125 65.2443 234.333 63.8349 232.924C62.426 231.515 61.6339 229.603 61.6339 227.613V221.041C61.6339 216.931 63.9794 213.165 67.6634 211.355L67.6941 211.34L67.7246 211.325C75.5984 207.336 85.3565 200.525 93.2762 188.934C101.217 177.312 107.084 161.211 107.642 139.022L107.644 138.951V138.88C107.644 134.514 105.323 130.492 101.542 128.308" fill="black"/>
</svg>
