<svg width="256" height="256" viewBox="0 0 256 256" fill="none" xmlns="http://www.w3.org/2000/svg">
<path fill-rule="evenodd" clip-rule="evenodd" d="M128.037 60C111.633 60 97.4146 71.4511 93.9153 87.4771C91.15 100.139 95.6813 112.978 105.053 121.191H93.1082C90.022 121.191 87.059 122.42 84.8761 124.606C82.6931 126.791 81.4649 129.757 81.4649 132.846V138.674C81.4649 141.763 82.6929 144.729 84.8761 146.914C87.0592 149.1 90.0221 150.329 93.1082 150.329H104.661C103.716 187.962 84.9556 203.6 72.1297 210.104C67.158 212.551 64 217.629 64 223.176V229.004C64 232.093 65.228 235.059 67.4112 237.244C69.5943 239.429 72.5572 240.659 75.6433 240.659H180.433C183.519 240.659 186.482 239.43 188.665 237.244C190.848 235.059 192.076 232.093 192.076 229.004V223.176C192.076 217.629 188.918 212.551 183.946 210.104C171.121 203.601 152.36 187.963 151.415 150.329H162.968C166.054 150.329 169.017 149.1 171.2 146.914C173.383 144.729 174.611 141.763 174.611 138.674V132.846C174.611 129.757 173.383 126.791 171.2 124.606C169.017 122.42 166.054 121.191 162.968 121.191H151.023C160.395 112.979 164.926 100.14 162.161 87.4771C158.66 71.4511 144.441 60 128.039 60H128.037Z" fill="black"/>
<path fill-rule="evenodd" clip-rule="evenodd" d="M99.4194 88.6792C97.1039 99.2816 100.894 110.055 108.766 116.954L120.03 126.825H93.1082C91.5192 126.825 89.9896 127.458 88.862 128.587C87.7338 129.717 87.0988 131.251 87.0988 132.846V138.674C87.0988 140.27 87.7338 141.804 88.8617 142.933C89.9899 144.062 91.5196 144.695 93.1082 144.695H110.438L110.293 150.47C109.796 170.247 104.594 184.642 97.5091 195.059C90.4441 205.446 81.73 211.553 74.6776 215.129L74.6476 215.144L74.6174 215.159C71.5747 216.656 69.6338 219.773 69.6338 223.176V229.004C69.6338 230.599 70.2689 232.133 71.3968 233.262C72.5249 234.391 74.0547 235.025 75.6433 235.025H180.433C182.022 235.025 183.551 234.391 184.679 233.263C185.807 232.133 186.442 230.599 186.442 229.004V223.176C186.442 219.773 184.502 216.656 181.459 215.159L181.429 215.144L181.399 215.129C174.346 211.553 165.632 205.447 158.567 195.059C151.482 184.642 146.28 170.247 145.783 150.47L145.638 144.695H162.968C164.557 144.695 166.087 144.062 167.214 142.933C168.342 141.803 168.977 140.269 168.977 138.674V132.846C168.977 131.25 168.342 129.716 167.214 128.587C166.086 127.458 164.557 126.825 162.968 126.825H136.045L147.31 116.954C155.183 110.056 158.972 99.2823 156.657 88.6792C153.721 75.2396 141.792 65.6339 128.039 65.6339H128.037C114.282 65.6339 102.354 75.2401 99.4194 88.6792Z" fill="#8879B0"/>
</svg>
