<svg width="512" height="512" viewBox="0 0 512 512" fill="none" xmlns="http://www.w3.org/2000/svg">
<path d="M391 294.022C391 348.134 350.544 393.863 295 408.707V418.862C337.624 422.782 368.188 432.944 368.984 444.917H369V463.599C369 479.209 318.408 491.862 256 491.862C193.592 491.862 143 479.209 143 463.599V444.917H143.016C143.799 433.132 173.423 423.102 215 419.051V408.157C160.487 392.761 121 347.482 121 294.022C121 215.913 180.822 118.698 227.308 58.1924C241.847 39.2692 270.153 39.2692 284.692 58.1924C331.178 118.698 391 215.913 391 294.022Z" fill="#1F1A17"/>
<path d="M372 286.039C372 339.419 331.04 383.824 277 393.095V448.197C286.338 447.681 292.941 446.845 294.595 445.875H295V428.399C325.759 431.178 347 437.101 347 443.959C347 453.483 306.034 461.204 255.5 461.204C204.966 461.204 164 453.483 164 443.959C164 437.176 184.781 431.307 215 428.491V445.875H215.405C217 446.81 223.192 447.62 232 448.14V392.542C179.451 382.17 140 338.427 140 286.039C140 213.368 193.873 131.14 234.171 80.8163C245.36 66.8438 266.64 66.8438 277.829 80.8163C318.127 131.14 372 213.368 372 286.039Z" fill="#FDFFA9"/>
<path d="M341.825 283.347C340.628 296.194 324.285 284.6 324.285 271.7C324.285 213.17 299.69 148.017 277 100.972C306.896 146.325 342.285 213.511 342.285 273.428C342.285 276.776 342.129 280.085 341.825 283.347Z" fill="#1F1A17"/>
<path fill-rule="evenodd" clip-rule="evenodd" d="M238.225 205.964L228.783 171.918C226.265 171.08 225.285 179.949 225.111 184.489C225.46 186.759 225.845 191.298 224.586 191.298C223.327 191.298 223.362 196.885 223.537 199.679C221.019 202.193 218.291 207.012 217.242 209.107C213.465 209.526 204.478 212.773 200.456 214.345C200.456 215.371 199.337 216.175 198.122 217.046C197.477 217.509 196.805 217.99 196.26 218.535L191.014 223.773C189.379 222.467 188.151 225.64 187.204 228.088L187.098 228.362C186.574 229.712 186.139 230.767 185.768 230.582C184.929 230.163 179.474 239.836 176.851 244.725C177.271 245.563 173.179 258.343 171.081 264.629C166.36 266.375 156.813 269.867 156.393 269.867C156.242 269.867 155.702 269.996 154.984 270.169C153.201 270.597 150.321 271.288 149.574 270.914C148.525 270.391 148 273.533 148 275.628C148 277.042 154.211 277.264 158.573 277.419C160.674 277.494 162.347 277.553 162.688 277.724C163.527 278.143 164.436 276.501 164.786 275.628C165.311 276.327 166.465 277.619 166.884 277.2C167.304 276.781 170.906 277.025 172.654 277.2C172.654 278.597 172.969 281.495 174.228 281.914C173.878 282.263 173.389 283.8 174.228 287.152C175.277 291.342 177.375 295.009 177.375 295.533C177.375 295.952 180.873 299.897 182.621 301.818L183.67 302.342V303.389L188.718 307.779C189.66 308.674 190.161 309.151 189.965 309.151C189.126 309.151 189.615 314.04 189.965 316.484C189.126 316.484 188.566 319.627 188.391 321.198C186.293 323.713 187.517 328.182 188.391 330.103C191.748 330.941 192.938 329.404 193.112 328.531C193.637 327.484 194.686 325.074 194.686 323.817C194.686 322.56 195.735 320.849 196.26 320.151C196.609 318.23 197.519 314.494 198.358 314.913C198.358 314.04 198.568 312.399 199.407 312.818C200.106 313.341 201.715 314.389 202.554 314.389C203.394 314.389 206.052 316.833 207.275 318.056C208.325 318.579 210.947 319.522 213.046 319.103C214.445 319.627 217.452 320.675 218.291 320.675C219.131 320.675 220.04 321.373 220.39 321.722C222.663 321.897 227.419 322.246 228.258 322.246C229.307 322.246 236.126 323.817 237.7 322.246C239.274 320.675 244.519 323.293 244.519 321.722C249.555 320.884 257.808 316.135 261.305 313.865C262.704 313.691 265.187 313.551 263.928 314.389C262.669 315.227 265.852 316.833 267.6 317.532C267.181 320.465 270.922 326.087 272.846 328.531C275.818 330.452 281.134 332.826 278.616 326.96C276.098 321.094 275.119 310.199 274.944 305.485C273.265 305.485 275.294 300.945 276.518 298.675C278.616 297.453 282.603 294.485 281.763 292.39C280.924 290.295 282.463 288.723 283.337 288.199C282.987 286.628 282.498 283.695 283.337 284.533C284.176 285.371 285.086 281.041 285.435 278.771C283.757 277.933 285.086 273.882 285.96 271.962C288.058 272.8 291.73 270.914 293.304 269.867C293.723 267.772 303.62 265.851 308.516 265.153L309.565 260.438L286.484 258.867C286.484 255.934 285.086 253.105 284.386 252.058C287.743 249.544 284.036 242.28 281.763 238.963C282.603 235.611 274.419 227.09 270.223 223.249C268.125 219.897 264.453 216.265 262.879 214.869C260.256 214.694 254.171 213.402 250.814 209.631C247.457 205.86 241.022 205.615 238.225 205.964ZM236.126 240.534C234.448 240.115 230.531 227.09 228.783 220.63C228.783 220.847 227.899 222.93 226.851 225.4L226.85 225.402C225.866 227.721 224.739 230.379 224.061 232.154C225.211 234.067 223.841 238.497 223.019 241.154C222.716 242.133 222.488 242.871 222.488 243.153C222.488 243.425 221.853 244.718 220.985 246.485C218.508 251.53 214.134 260.438 217.242 260.438C220.599 260.438 227.384 261.835 230.356 262.534C235.812 262.115 242.071 259.915 244.519 258.867C242.421 252.931 237.805 240.954 236.126 240.534ZM268.649 271.438C266.551 272.695 263.578 272.311 262.355 271.962C263.613 274.057 262.879 277.724 262.355 279.295C264.033 281.39 264.103 284.708 263.928 286.104C264.977 286.628 267.18 287.885 267.6 288.723C268.02 289.561 268.824 288.025 269.174 287.152C268.754 286.314 268.999 284.358 269.174 283.485C271.272 280.971 272.496 274.406 272.846 271.438C272.321 270.914 270.747 270.181 268.649 271.438ZM199.932 235.297C201.61 233.201 210.423 227.789 214.619 225.345C215.039 228.278 212.696 233.551 211.472 235.82C211.122 237.916 210.108 242.211 208.849 242.63C207.59 243.049 207.625 246.995 207.8 248.915C205.282 252.267 204.653 257.994 204.653 260.438C204.233 260.857 199.232 259.915 196.784 259.391C195.735 259.915 185.244 262.534 186.818 259.915C188.391 257.296 188.916 255.201 188.391 255.201C187.972 255.201 189.615 251.709 190.49 249.963C189.65 249.125 191.189 247.518 192.063 246.82C190.804 244.725 194.336 241.058 196.26 239.487C196.784 238.963 198.253 237.392 199.932 235.297ZM186.818 275.628C188.916 275.454 193.322 275 194.161 274.581C195.211 274.756 197.728 275 199.407 274.581C198.008 276.501 195.315 280.657 195.735 281.914C194.511 284.009 192.378 288.514 193.637 289.771C193.127 290.96 192.319 293.403 193.047 293.922C191.281 292.86 187.977 290.709 188.391 290.295C188.811 289.876 187.867 285.93 187.342 284.009C187.167 282.612 186.922 279.714 187.342 279.295C186.818 278.247 185.978 276.047 186.818 275.628ZM244.519 224.297C248.541 226.916 256.689 232.154 257.109 232.154C257.633 232.154 268.649 242.106 271.272 250.487C272.321 251.01 274.419 253.42 274.419 258.867C274.044 258.867 273.534 258.906 272.983 258.949C271.737 259.045 270.28 259.158 269.698 258.867C268.859 258.448 260.956 259.391 257.109 259.915C256.06 256.248 253.227 248.077 250.29 244.725C250.639 244.201 250.814 242.315 248.716 238.963C246.093 234.773 241.897 225.868 244.519 224.297ZM214.095 273.009C216.893 272.835 222.698 272.8 223.537 274.057C224.936 273.359 228.258 272.381 230.356 274.057C232.455 275.733 242.771 274.057 247.667 273.009C248.017 275.105 248.926 279.19 249.765 278.771C249.241 279.295 249.345 282.438 253.962 290.818C254.136 293.437 254.906 298.675 256.584 298.675C258.263 298.675 256.934 300.77 256.06 301.818C255.011 303.04 252.073 305.694 248.716 306.532C244.519 307.58 238.749 309.151 236.651 310.199C234.972 311.037 227.209 309.85 223.537 309.151L223.012 310.199C220.914 308.453 216.193 305.275 214.095 306.532C212.171 304.786 208.115 301.609 207.276 302.866C206.226 304.437 204.128 298.152 205.177 298.675C206.017 299.094 206.576 291.866 206.751 288.199C208.849 284.358 213.046 276.571 213.046 276.152C213.046 276.071 213.033 275.95 213.017 275.804C212.933 275.013 212.767 273.451 214.095 273.009Z" fill="#003B1F"/>
</svg>
