<svg width="32" height="32" viewBox="0 0 32 32" fill="none" xmlns="http://www.w3.org/2000/svg">
<path d="M15.6756 4H16.684C17.1322 4.06723 17.558 4.19048 17.9614 4.36976C18.3872 4.54904 18.757 4.79555 19.0707 5.10929C19.5413 5.51267 19.8663 6.03931 20.0455 6.68919C20.2472 7.31667 20.3145 7.93295 20.2472 8.53802C21.4126 9.12068 22.477 9.82659 23.4407 10.6558C24.4267 11.4625 25.3007 12.4037 26.0626 13.4794C26.5108 14.0397 26.8918 14.6447 27.2055 15.2946C27.5417 15.9445 27.7658 16.6056 27.8778 17.2779C27.9227 17.7709 27.9227 18.264 27.8778 18.757C27.833 19.2276 27.6649 19.6534 27.3736 20.0343C27.1943 20.3705 26.9478 20.617 26.6341 20.7739C26.3203 20.9083 25.9842 21.054 25.6256 21.2109C25.7601 21.4798 25.9282 21.7039 26.1299 21.8832C26.354 22.0624 26.5781 22.2305 26.8022 22.3874C27.0263 22.5443 27.2391 22.7123 27.4408 22.8916C27.6425 23.0709 27.8106 23.2838 27.9451 23.5303C28.0795 23.7992 28.1692 24.0681 28.214 24.3371C28.2588 24.5836 28.3036 24.8525 28.3484 25.1438V28.8415C24.2698 28.8863 20.2136 28.8975 16.1798 28.8751C12.1684 28.8527 8.11223 28.8639 4.0112 28.9087C4.03361 28.2588 4.03361 27.6201 4.0112 26.9926C3.98879 26.3427 4 25.6816 4.04482 25.0093C4.04482 24.6284 4.10084 24.2586 4.21289 23.9001C4.34735 23.5415 4.54904 23.2278 4.81796 22.9588C5.1317 22.6675 5.47906 22.3986 5.86003 22.1521C6.241 21.9056 6.52112 21.5918 6.7004 21.2109C6.36425 21.0764 6.03931 20.9307 5.72557 20.7739C5.41183 20.5946 5.16532 20.3481 4.98604 20.0343C4.6723 19.6534 4.49302 19.2276 4.4482 18.757C4.40338 18.264 4.40338 17.7821 4.4482 17.3115C4.51543 16.5944 4.75073 15.8997 5.15411 15.2274C5.5799 14.5551 6.0169 13.9052 6.4651 13.2777C7.20463 12.2917 8.0338 11.4065 8.9526 10.6222C9.89382 9.81539 10.9359 9.12068 12.0788 8.53802C12.0116 8.00018 12.0564 7.46235 12.2133 6.92451C12.3701 6.38667 12.639 5.89365 13.02 5.44545C13.3338 5.01966 13.7147 4.69471 14.1629 4.47061C14.6335 4.24651 15.1378 4.08964 15.6756 4V4ZM15.6756 4.80676C15.1153 4.91881 14.6111 5.13171 14.1629 5.44545C13.7147 5.73678 13.401 6.14016 13.2217 6.65559C13.0424 6.99174 12.9304 7.3615 12.8856 7.76488C12.8631 8.14585 12.8968 8.52681 12.9864 8.90778C13.076 9.26634 13.2217 9.6137 13.4234 9.94985C13.6475 10.2636 13.9164 10.5325 14.2302 10.7566C14.7904 11.16 15.4403 11.3617 16.1798 11.3617C16.9194 11.3393 17.5692 11.1152 18.1295 10.6894C18.4656 10.4653 18.7346 10.1964 18.9362 9.88262C19.1379 9.54647 19.2836 9.19912 19.3732 8.84056C19.4629 8.482 19.4853 8.11223 19.4405 7.73126C19.3957 7.35029 19.2948 6.99174 19.1379 6.65559C18.8466 6.0057 18.3648 5.50147 17.6925 5.14291C17.0426 4.78435 16.3703 4.6723 15.6756 4.80676V4.80676ZM5.82641 15.6644C5.55749 16.1798 5.38942 16.7177 5.32219 17.2779C5.25496 17.8158 5.25496 18.3536 5.32219 18.8914C5.43424 19.4517 5.69195 19.8214 6.09533 20.0007C6.40907 20.18 6.73402 20.3033 7.07017 20.3705C7.40632 20.4377 7.76488 20.4937 8.14585 20.5386C9.78177 20.5834 11.4065 20.5946 13.02 20.5722C14.6335 20.5274 16.2807 20.561 17.9614 20.673C18.9026 20.6506 19.8327 20.6506 20.7515 20.673C21.6927 20.673 22.6339 20.6394 23.5751 20.5722C24.0233 20.5274 24.4827 20.4825 24.9533 20.4377C25.4239 20.3929 25.8497 20.2584 26.2307 20.0343C26.6117 19.7878 26.8582 19.4629 26.9702 19.0595C27.0823 18.6337 27.1159 18.2079 27.0711 17.7821C27.0263 17.4684 26.9814 17.1435 26.9366 16.8073C26.8918 16.4712 26.7797 16.1798 26.6005 15.9333C25.9282 14.5887 25.0542 13.3674 23.9785 12.2693C22.9252 11.1488 21.7263 10.2412 20.3817 9.54647C20.2696 9.79298 20.1352 10.0395 19.9783 10.286C19.8439 10.5325 19.687 10.7454 19.5077 10.9247C18.925 11.5746 18.1743 12.0228 17.2555 12.2693C16.3591 12.4934 15.4739 12.4486 14.5999 12.1348C14.0173 11.9555 13.4906 11.6306 13.02 11.16C12.5718 10.667 12.2021 10.1291 11.9107 9.54647C10.6334 10.2412 9.47924 11.1152 8.44838 12.1684C7.41752 13.2217 6.54353 14.387 5.82641 15.6644ZM7.47355 21.4462C7.3615 21.6254 7.23824 21.8271 7.10378 22.0512C6.96932 22.2529 6.80125 22.421 6.59956 22.5555C6.44269 22.7347 6.2522 22.9028 6.0281 23.0597C5.82641 23.1941 5.63593 23.3286 5.45665 23.4631C5.27737 23.6648 5.14291 23.9001 5.05327 24.169C4.98604 24.4379 4.91881 24.6956 4.85158 24.9421C6.33064 24.9421 7.79849 24.9533 9.25514 24.9757C10.7118 24.9981 12.1572 24.9869 13.5915 24.9421C14.0397 24.5612 14.4655 24.1578 14.8688 23.732C15.2722 23.2838 15.6868 22.858 16.1126 22.4546C16.5608 22.8804 16.9978 23.295 17.4236 23.6984C17.8494 24.1018 18.2752 24.5163 18.7009 24.9421C20.18 24.9645 21.6367 24.9757 23.0709 24.9757C24.5275 24.9533 25.9954 24.9421 27.4745 24.9421C27.4296 24.7628 27.396 24.5948 27.3736 24.4379C27.3736 24.281 27.3288 24.1466 27.2391 24.0345C27.1271 23.7208 26.9478 23.4855 26.7013 23.3286C26.4548 23.1717 26.2195 23.0037 25.9954 22.8244C25.5248 22.4434 25.1326 21.984 24.8189 21.4462C23.9897 21.5806 23.1605 21.6254 22.3314 21.5806C21.5022 21.5358 20.673 21.5246 19.8439 21.547H10.398C9.92744 21.547 9.44562 21.547 8.9526 21.547C8.45959 21.547 7.96657 21.5134 7.47355 21.4462V21.4462ZM16.1126 23.295C15.754 23.676 15.3843 24.0457 15.0033 24.4043C14.6447 24.7404 14.2974 25.1102 13.9612 25.5136C14.2974 25.8497 14.6447 26.1971 15.0033 26.5556C15.3843 26.8918 15.754 27.2616 16.1126 27.6649C16.516 27.284 16.8969 26.9142 17.2555 26.5556C17.6365 26.1971 18.0062 25.8497 18.3648 25.5136C18.0062 25.1102 17.6365 24.7404 17.2555 24.4043C16.8969 24.0457 16.516 23.676 16.1126 23.295ZM4.95242 25.8161V28.0347C6.7004 28.0347 8.47079 28.0459 10.2636 28.0683C12.0788 28.0683 13.894 28.0571 15.7092 28.0347C15.3282 27.6761 14.9473 27.3064 14.5663 26.9254C14.2077 26.5444 13.838 26.1859 13.457 25.8497C12.0452 25.8049 10.6221 25.7937 9.18791 25.8161C7.77608 25.8385 6.36425 25.8385 4.95242 25.8161ZM18.432 26.3203C18.1183 26.5668 17.8158 26.8358 17.5244 27.1271C17.2331 27.4184 16.9418 27.721 16.6504 28.0347C18.4656 28.0571 20.2696 28.0683 22.0624 28.0683C23.8552 28.0459 25.6592 28.0347 27.4745 28.0347V25.8161C26.085 25.8161 24.6956 25.8161 23.3062 25.8161C21.9392 25.7937 20.5722 25.7937 19.2052 25.8161C19.0035 25.7937 18.8466 25.8385 18.7346 25.9506C18.6449 26.0402 18.5441 26.1635 18.432 26.3203V26.3203ZM15.5075 13.1769H16.8521V15.261H19.2052V16.8409H16.8521V20.0007H15.5075C15.4851 19.4405 15.4739 18.9026 15.4739 18.3872C15.4739 17.8718 15.4739 17.3563 15.4739 16.8409H13.1881V15.261H15.4739C15.4739 14.9025 15.4739 14.5551 15.4739 14.219C15.4739 13.8828 15.4851 13.5354 15.5075 13.1769Z" fill="black"/>
<path d="M15.6755 4.80675C15.1153 4.9188 14.6111 5.13169 14.1629 5.44543C13.7147 5.73676 13.4009 6.14014 13.2217 6.65557C13.0424 6.99172 12.9303 7.36148 12.8855 7.76486C12.8631 8.14583 12.8967 8.52679 12.9864 8.90776C13.076 9.26632 13.2217 9.61368 13.4233 9.94983C13.6474 10.2636 13.9164 10.5325 14.2301 10.7566C14.7904 11.16 15.4402 11.3617 16.1798 11.3617C16.9193 11.3393 17.5692 11.1151 18.1294 10.6894C18.4656 10.4653 18.7345 10.1963 18.9362 9.88261C19.1379 9.54646 19.2836 9.1991 19.3732 8.84054C19.4628 8.48198 19.4852 8.11221 19.4404 7.73124C19.3956 7.35027 19.2948 6.99172 19.1379 6.65557C18.8466 6.00568 18.3647 5.50145 17.6924 5.14289C17.0426 4.78433 16.3703 4.67229 15.6755 4.80675ZM5.82637 15.6644C5.55745 16.1798 5.38937 16.7176 5.32214 17.2779C5.25491 17.8157 5.25491 18.3536 5.32214 18.8914C5.43419 19.4517 5.69191 19.8214 6.09528 20.0007C6.40902 20.18 6.73397 20.3032 7.07012 20.3705C7.40627 20.4377 7.76483 20.4937 8.1458 20.5385C9.78173 20.5834 11.4064 20.5946 13.02 20.5722C14.6335 20.5273 16.2806 20.561 17.9614 20.673C18.9026 20.6506 19.8326 20.6506 20.7514 20.673C21.6926 20.673 22.6338 20.6394 23.5751 20.5722C24.0233 20.5273 24.4827 20.4825 24.9533 20.4377C25.4239 20.3929 25.8497 20.2584 26.2306 20.0343C26.6116 19.7878 26.8581 19.4629 26.9702 19.0595C27.0822 18.6337 27.1158 18.2079 27.071 17.7821C27.0262 17.4684 26.9814 17.1434 26.9366 16.8073C26.8917 16.4711 26.7797 16.1798 26.6004 15.9333C25.9281 14.5887 25.0541 13.3673 23.9784 12.2693C22.9252 11.1488 21.7262 10.2412 20.3816 9.54645C20.2696 9.79296 20.1351 10.0395 19.9783 10.286C19.8438 10.5325 19.6869 10.7454 19.5077 10.9247C18.925 11.5746 18.1743 12.0228 17.2555 12.2693C16.3591 12.4934 15.4739 12.4485 14.5999 12.1348C14.0172 11.9555 13.4906 11.6306 13.02 11.16C12.5718 10.6669 12.202 10.1291 11.9107 9.54645C10.6333 10.2412 9.47919 11.1151 8.44833 12.1684C7.41747 13.2217 6.54349 14.387 5.82637 15.6644ZM7.4735 21.4461C7.36145 21.6254 7.23819 21.8271 7.10373 22.0512C6.96927 22.2529 6.8012 22.421 6.59951 22.5554C6.44264 22.7347 6.25216 22.9028 6.02806 23.0597C5.82637 23.1941 5.63588 23.3286 5.4566 23.463C5.27732 23.6647 5.14286 23.9 5.05322 24.169C4.98599 24.4379 4.91876 24.6956 4.85153 24.9421C6.33059 24.9421 7.79844 24.9533 9.25509 24.9757C10.7117 24.9981 12.1572 24.9869 13.5914 24.9421C14.0396 24.5611 14.4654 24.1578 14.8688 23.732C15.2722 23.2838 15.6868 22.858 16.1125 22.4546C16.5607 22.8804 16.9977 23.295 17.4235 23.6984C17.8493 24.1017 18.2751 24.5163 18.7009 24.9421C20.18 24.9645 21.6366 24.9757 23.0708 24.9757C24.5275 24.9533 25.9953 24.9421 27.4744 24.9421C27.4296 24.7628 27.396 24.5948 27.3736 24.4379C27.3736 24.281 27.3287 24.1465 27.2391 24.0345C27.127 23.7208 26.9478 23.4855 26.7013 23.3286C26.4547 23.1717 26.2194 23.0036 25.9953 22.8244C25.5247 22.4434 25.1326 21.984 24.8188 21.4461C23.9896 21.5806 23.1605 21.6254 22.3313 21.5806C21.5021 21.5358 20.673 21.5246 19.8438 21.547H10.398C9.92739 21.547 9.44558 21.547 8.95256 21.547C8.45954 21.547 7.96652 21.5134 7.4735 21.4461ZM16.1125 23.295C15.754 23.6759 15.3842 24.0457 15.0032 24.4043C14.6447 24.7404 14.2973 25.1102 13.9612 25.5136C14.2973 25.8497 14.6447 26.1971 15.0032 26.5556C15.3842 26.8918 15.754 27.2615 16.1125 27.6649C16.5159 27.2839 16.8969 26.9142 17.2555 26.5556C17.6364 26.1971 18.0062 25.8497 18.3647 25.5136C18.0062 25.1102 17.6364 24.7404 17.2555 24.4043C16.8969 24.0457 16.5159 23.6759 16.1125 23.295ZM4.95238 25.8161V28.0347C6.70035 28.0347 8.47074 28.0459 10.2635 28.0683C12.0787 28.0683 13.894 28.0571 15.7092 28.0347C15.3282 27.6761 14.9472 27.3064 14.5663 26.9254C14.2077 26.5444 13.8379 26.1859 13.457 25.8497C12.0451 25.8049 10.6221 25.7937 9.18786 25.8161C7.77603 25.8385 6.3642 25.8385 4.95238 25.8161ZM18.432 26.3203C18.1182 26.5668 17.8157 26.8357 17.5244 27.1271C17.233 27.4184 16.9417 27.7209 16.6504 28.0347C18.4656 28.0571 20.2696 28.0683 22.0624 28.0683C23.8552 28.0459 25.6592 28.0347 27.4744 28.0347V25.8161C26.085 25.8161 24.6956 25.8161 23.3061 25.8161C21.9391 25.7937 20.5721 25.7937 19.2051 25.8161C19.0034 25.7937 18.8466 25.8385 18.7345 25.9506C18.6449 26.0402 18.544 26.1635 18.432 26.3203ZM15.5075 13.1769H16.8521V15.261H19.2051V16.8409H16.8521V20.0007H15.5075C15.4851 19.4405 15.4739 18.9026 15.4739 18.3872C15.4739 17.8718 15.4739 17.3563 15.4739 16.8409H13.188V15.261H15.4739C15.4739 14.9024 15.4739 14.5551 15.4739 14.2189C15.4739 13.8828 15.4851 13.5354 15.5075 13.1769Z" fill="white"/>
</svg>
