<svg width="180" height="180" viewBox="0 0 180 180" fill="none" xmlns="http://www.w3.org/2000/svg">
<path d="M88.1753 22.5H93.8475C96.3686 22.8782 98.7638 23.5715 101.033 24.5799C103.428 25.5884 105.508 26.975 107.273 28.7398C109.92 31.0088 111.748 33.9711 112.756 37.6267C113.891 41.1563 114.269 44.6228 113.891 48.0264C120.446 51.3038 126.433 55.2746 131.854 59.9389C137.4 64.4766 142.316 69.7708 146.602 75.8216C149.123 78.9733 151.266 82.3764 153.031 86.0321C154.922 89.6878 156.183 93.4065 156.813 97.1882C157.065 99.9613 157.065 102.735 156.813 105.508C156.561 108.155 155.615 110.55 153.977 112.693C152.968 114.584 151.581 115.971 149.817 116.853C148.052 117.609 146.161 118.429 144.144 119.311C144.901 120.824 145.846 122.084 146.981 123.093C148.241 124.101 149.502 125.047 150.762 125.929C152.023 126.812 153.22 127.757 154.355 128.765C155.489 129.774 156.435 130.971 157.191 132.358C157.947 133.871 158.452 135.383 158.704 136.896C158.956 138.283 159.208 139.795 159.46 141.434V162.233C136.518 162.485 113.702 162.548 91.0114 162.422C68.4473 162.296 45.6313 162.359 22.563 162.611C22.6891 158.956 22.6891 155.363 22.563 151.833C22.437 148.178 22.5 144.459 22.7521 140.677C22.7521 138.535 23.0672 136.455 23.6975 134.438C24.4539 132.421 25.5884 130.656 27.101 129.143C28.8658 127.505 30.8197 125.992 32.9627 124.606C35.1056 123.219 36.6813 121.454 37.6898 119.311C35.7989 118.555 33.9711 117.735 32.2064 116.853C30.4416 115.845 29.0549 114.458 28.0465 112.693C26.2817 110.55 25.2733 108.155 25.0211 105.508C24.769 102.735 24.769 100.024 25.0211 97.3772C25.3993 93.3435 26.7229 89.4358 28.9919 85.6541C31.387 81.8724 33.8451 78.2168 36.3662 74.6871C40.5261 69.1408 45.1901 64.1616 50.3584 59.7499C55.6528 55.2116 61.5145 51.3038 67.9433 48.0264C67.5653 45.001 67.8173 41.9757 68.6998 38.9504C69.5818 35.925 71.0944 33.1518 73.2375 30.6307C75.0026 28.2356 77.1452 26.4077 79.6663 25.1472C82.3135 23.8866 85.1501 23.0042 88.1753 22.5ZM88.1753 27.038C85.0236 27.6683 82.1875 28.8659 79.6663 30.6307C77.1452 32.2694 75.3806 34.5384 74.3721 37.4377C73.3635 39.3285 72.7335 41.4084 72.4815 43.6775C72.355 45.8204 72.5445 47.9633 73.0485 50.1063C73.5525 52.1232 74.3721 54.0771 75.5066 55.9679C76.7672 57.7328 78.2798 59.2453 80.0449 60.5059C83.196 62.775 86.8517 63.9096 91.0114 63.9096C95.1716 63.7836 98.8268 62.523 101.978 60.1279C103.869 58.8673 105.382 57.3548 106.516 55.5897C107.651 53.6989 108.47 51.7451 108.974 49.7282C109.479 47.7113 109.605 45.6313 109.353 43.4883C109.101 41.3454 108.533 39.3285 107.651 37.4377C106.012 33.7821 103.302 30.9458 99.5203 28.9289C95.8646 26.912 92.083 26.2817 88.1753 27.038ZM32.7736 88.1123C31.2609 91.0114 30.3155 94.0371 29.9373 97.1882C29.5592 100.214 29.5592 103.239 29.9373 106.264C30.5676 109.416 32.0172 111.495 34.2863 112.504C36.051 113.513 37.8789 114.206 39.7697 114.584C41.6606 114.962 43.6775 115.277 45.8204 115.53C55.0225 115.782 64.1616 115.845 73.2375 115.719C82.3135 115.467 91.579 115.656 101.033 116.286C106.327 116.16 111.559 116.16 116.727 116.286C122.021 116.286 127.316 116.097 132.61 115.719C135.131 115.467 137.715 115.214 140.362 114.962C143.009 114.71 145.405 113.954 147.548 112.693C149.691 111.306 151.077 109.479 151.707 107.21C152.338 104.815 152.527 102.419 152.275 100.024C152.023 98.2598 151.77 96.4322 151.518 94.5411C151.266 92.6505 150.636 91.0114 149.628 89.6248C145.846 82.0614 140.93 75.1916 134.879 69.0148C128.954 62.712 122.21 57.6068 114.647 53.6989C114.017 55.0855 113.261 56.4722 112.378 57.8588C111.622 59.2453 110.739 60.4429 109.731 61.4514C106.453 65.1071 102.23 67.6283 97.0622 69.0148C92.02 70.2754 87.0407 70.0234 82.1245 68.2583C78.8473 67.2497 75.8846 65.4221 73.2375 62.775C70.7164 60.0019 68.6368 56.9762 66.9977 53.6989C59.8129 57.6068 53.3207 62.523 47.5222 68.4473C41.7236 74.3721 36.8074 80.9269 32.7736 88.1123ZM42.0387 120.635C41.4085 121.643 40.7151 122.777 39.9588 124.038C39.2024 125.173 38.2571 126.118 37.1225 126.875C36.2402 127.883 35.1686 128.828 33.9081 129.711C32.7736 130.467 31.7021 131.223 30.6937 131.98C29.6852 133.115 28.9289 134.438 28.4247 135.951C28.0465 137.463 27.6683 138.913 27.2902 140.299C35.6099 140.299 43.8665 140.362 52.0602 140.488C60.2539 140.614 68.3843 140.551 76.4522 140.299C78.9733 138.157 81.3685 135.888 83.637 133.493C85.9061 130.971 88.2383 128.576 90.6334 126.307C93.1545 128.702 95.6126 131.034 98.0078 133.304C100.403 135.573 102.798 137.904 105.193 140.299C113.513 140.425 121.706 140.488 129.774 140.488C137.967 140.362 146.224 140.299 154.544 140.299C154.292 139.291 154.103 138.346 153.977 137.463C153.977 136.581 153.725 135.825 153.22 135.194C152.59 133.43 151.581 132.106 150.195 131.223C148.808 130.341 147.485 129.396 146.224 128.387C143.577 126.244 141.371 123.66 139.606 120.635C134.942 121.391 130.278 121.643 125.614 121.391C120.95 121.139 116.286 121.076 111.622 121.202H58.4888C55.8419 121.202 53.1316 121.202 50.3584 121.202C47.5852 121.202 44.812 121.013 42.0387 120.635ZM90.6334 131.034C88.6163 133.178 86.5367 135.257 84.3936 137.274C82.3765 139.165 80.4229 141.245 78.5318 143.514C80.4229 145.405 82.3765 147.359 84.3936 149.375C86.5367 151.266 88.6163 153.347 90.6334 155.615C92.9025 153.473 95.0451 151.392 97.0622 149.375C99.2053 147.359 101.285 145.405 103.302 143.514C101.285 141.245 99.2053 139.165 97.0622 137.274C95.0451 135.257 92.9025 133.178 90.6334 131.034ZM27.8574 145.216V157.695C37.6898 157.695 47.6482 157.758 57.7328 157.884C67.9433 157.884 78.1538 157.821 88.3643 157.695C86.2211 155.678 84.0786 153.599 81.9355 151.455C79.9183 149.312 77.8388 147.296 75.6956 145.405C67.7543 145.153 59.7493 145.09 51.682 145.216C43.7405 145.342 35.7989 145.342 27.8574 145.216ZM103.68 148.052C101.915 149.438 100.214 150.951 98.5748 152.59C96.9362 154.229 95.2976 155.931 93.6585 157.695C103.869 157.821 114.017 157.884 124.101 157.884C134.186 157.758 144.333 157.695 154.544 157.695V145.216C146.728 145.216 138.913 145.216 131.097 145.216C123.408 145.09 115.719 145.09 108.029 145.216C106.895 145.09 106.012 145.342 105.382 145.972C104.878 146.476 104.311 147.17 103.68 148.052ZM87.2297 74.1201H94.7931V85.8431H108.029V94.7301H94.7931V112.504H87.2297C87.1037 109.353 87.0407 106.327 87.0407 103.428C87.0407 100.529 87.0407 97.6292 87.0407 94.7301H74.1831V85.8431H87.0407C87.0407 83.8266 87.0407 81.8724 87.0407 79.9819C87.0407 78.0908 87.1037 76.1366 87.2297 74.1201Z" fill="black"/>
<path d="M88.1747 27.038C85.0236 27.6682 82.1875 28.8657 79.6663 30.6305C77.1452 32.2693 75.3801 34.5383 74.3721 37.4376C73.3635 39.3284 72.733 41.4083 72.481 43.6773C72.355 45.8203 72.544 47.9632 73.0485 50.1061C73.5525 52.123 74.3721 54.0769 75.5061 55.9678C76.7666 57.7327 78.2798 59.2453 80.0443 60.5059C83.196 62.775 86.8511 63.9095 91.0114 63.9095C95.1711 63.7835 98.8268 62.5224 101.978 60.1279C103.869 58.8673 105.382 57.3542 106.516 55.5897C107.651 53.6988 108.47 51.7449 108.974 49.728C109.478 47.7111 109.604 45.6312 109.352 43.4882C109.1 41.3453 108.533 39.3284 107.651 37.4376C106.012 33.7819 103.301 30.9456 99.5198 28.9287C95.8646 26.9118 92.083 26.2816 88.1747 27.038ZM32.7733 88.1122C31.2607 91.0114 30.3152 94.0365 29.9371 97.1882C29.5589 100.213 29.5589 103.239 29.9371 106.264C30.5673 109.416 32.017 111.495 34.286 112.504C36.0508 113.512 37.8786 114.205 39.7694 114.584C41.6603 114.962 43.6772 115.277 45.8201 115.529C55.0222 115.782 64.161 115.845 73.2375 115.719C82.3135 115.466 91.5784 115.656 101.033 116.286C106.327 116.16 111.558 116.16 116.727 116.286C122.021 116.286 127.315 116.097 132.61 115.719C135.131 115.466 137.715 115.214 140.362 114.962C143.009 114.71 145.405 113.953 147.547 112.693C149.69 111.306 151.077 109.479 151.707 107.21C152.337 104.815 152.526 102.419 152.274 100.024C152.022 98.2597 151.77 96.4316 151.518 94.5411C151.266 92.6499 150.636 91.0114 149.627 89.6248C145.846 82.0614 140.929 75.191 134.879 69.0148C128.954 62.712 122.21 57.6067 114.647 53.6988C114.017 55.0854 113.26 56.4722 112.378 57.8587C111.621 59.2453 110.739 60.4429 109.731 61.4514C106.453 65.1071 102.23 67.6282 97.0622 69.0148C92.02 70.2754 87.0407 70.0228 82.1245 68.2582C78.8468 67.2497 75.8846 65.4221 73.2375 62.775C70.7164 60.0013 68.6363 56.9762 66.9977 53.6988C59.8123 57.6067 53.3205 62.5224 47.5219 68.4472C41.7233 74.372 36.8071 80.9269 32.7733 88.1122ZM42.0385 120.634C41.4082 121.643 40.7148 122.777 39.9585 124.038C39.2022 125.173 38.2568 126.118 37.1223 126.874C36.2399 127.883 35.1684 128.828 33.9079 129.711C32.7733 130.467 31.7018 131.223 30.6934 131.979C29.6849 133.114 28.9286 134.437 28.4244 135.951C28.0462 137.463 27.668 138.913 27.2899 140.299C35.6096 140.299 43.8662 140.362 52.0599 140.488C60.2533 140.614 68.3843 140.551 76.4516 140.299C78.9728 138.156 81.3679 135.888 83.637 133.492C85.9061 130.971 88.2383 128.576 90.6328 126.307C93.1539 128.702 95.6121 131.034 98.0072 133.303C100.402 135.572 102.797 137.904 105.193 140.299C113.513 140.425 121.706 140.488 129.773 140.488C137.967 140.362 146.224 140.299 154.544 140.299C154.292 139.291 154.103 138.346 153.977 137.463C153.977 136.581 153.724 135.824 153.22 135.194C152.589 133.429 151.581 132.106 150.195 131.223C148.808 130.341 147.484 129.395 146.224 128.387C143.576 126.244 141.371 123.66 139.606 120.634C134.942 121.391 130.278 121.643 125.614 121.391C120.949 121.139 116.286 121.076 111.621 121.202H58.4888C55.8416 121.202 53.1314 121.202 50.3582 121.202C47.5849 121.202 44.8117 121.013 42.0385 120.634ZM90.6328 131.034C88.6163 133.177 86.5361 135.257 84.393 137.274C82.3764 139.165 80.4223 141.245 78.5318 143.514C80.4223 145.405 82.3764 147.359 84.393 149.375C86.5361 151.266 88.6163 153.346 90.6328 155.615C92.9019 153.472 95.0451 151.392 97.0622 149.375C99.2048 147.359 101.285 145.405 103.301 143.514C101.285 141.245 99.2048 139.165 97.0622 137.274C95.0451 135.257 92.9019 133.177 90.6328 131.034ZM27.8572 145.216V157.695C37.6895 157.695 47.6479 157.758 57.7322 157.884C67.9427 157.884 78.1538 157.821 88.3643 157.695C86.2211 155.678 84.078 153.598 81.9355 151.455C79.9183 149.312 77.8382 147.296 75.6956 145.405C67.7537 145.153 59.7493 145.09 51.6817 145.216C43.7402 145.342 35.7986 145.342 27.8572 145.216ZM103.68 148.052C101.915 149.438 100.213 150.951 98.5748 152.59C96.9356 154.228 95.2971 155.93 93.6585 157.695C103.869 157.821 114.017 157.884 124.101 157.884C134.186 157.758 144.333 157.695 154.544 157.695V145.216C146.728 145.216 138.913 145.216 131.097 145.216C123.407 145.09 115.718 145.09 108.029 145.216C106.894 145.09 106.012 145.342 105.382 145.972C104.878 146.476 104.31 147.17 103.68 148.052ZM87.2297 74.12H94.7931V85.8431H108.029V94.7301H94.7931V112.504H87.2297C87.1037 109.353 87.0407 106.327 87.0407 103.428C87.0407 100.529 87.0407 97.6292 87.0407 94.7301H74.1825V85.8431H87.0407C87.0407 83.826 87.0407 81.8724 87.0407 79.9813C87.0407 78.0907 87.1037 76.1366 87.2297 74.12Z" fill="white"/>
</svg>
