<svg width="180" height="180" viewBox="0 0 180 180" fill="none" xmlns="http://www.w3.org/2000/svg">
<path d="M152.968 100.544C151.456 103.065 149.754 105.46 147.863 107.729C145.973 109.999 144.334 112.205 142.947 114.347C142.065 115.86 141.938 117.373 142.569 118.886C143.326 120.272 144.082 121.659 144.838 123.045C145.594 124.306 146.54 125.377 147.674 126.26C148.935 127.142 150.195 128.024 151.456 128.907C152.716 129.663 153.914 130.483 155.049 131.365C156.309 132.247 157.381 133.256 158.263 134.39C158.893 135.399 159.271 136.596 159.397 137.983C159.523 139.37 159.649 140.567 159.776 141.576C159.776 145.357 159.712 149.013 159.586 152.542C159.586 155.946 159.649 159.286 159.776 162.564C135.825 162.564 111.937 162.627 88.1128 162.753C64.4141 162.753 40.5895 162.627 16.6389 162.375C16.6389 158.467 16.5758 154.433 16.4498 150.274C16.4498 145.987 16.891 141.639 17.7734 137.226C18.0255 135.21 19.034 133.445 20.7988 131.932C22.5635 130.42 24.3913 129.096 26.2822 127.961C28.2991 126.953 30.0008 125.566 31.3874 123.802C32.774 121.911 33.9716 119.957 34.9801 117.94C34.6019 116.931 33.9086 115.986 32.9001 115.104C32.0177 114.221 31.2614 113.465 30.6311 112.835C27.7318 108.801 24.8956 104.641 22.1223 100.355C19.3491 96.0694 17.0171 91.6571 15.1262 87.1194C13.8657 84.2197 12.8572 81.3206 12.1009 78.4215C11.3445 75.5224 11.0924 72.4967 11.3445 69.3456C11.4706 64.4293 13.2354 59.8911 16.6389 55.7313C20.1685 51.5714 24.7065 48.7982 30.2529 47.4116C33.1522 46.9073 36.0515 46.8443 38.9508 47.2225C41.8501 47.4746 44.4973 48.2309 46.8923 49.4915C51.8085 51.6345 55.8423 54.6598 58.9939 58.5675C62.145 62.4752 64.6031 66.5719 66.3682 70.8581C66.8722 69.8496 67.6288 68.841 68.6368 67.8324C69.7714 66.6984 71.0319 65.8789 72.4185 65.3743C73.427 64.8703 74.5616 64.4923 75.8222 64.2403C77.0827 63.8617 78.3433 63.5468 79.6039 63.2948V53.8404H67.1242V41.1718H79.4149C79.5409 39.0288 79.6039 36.8859 79.6039 34.7429C79.6039 32.4739 79.6039 30.268 79.6039 28.125H95.2982C95.4242 30.394 95.4872 32.6 95.4872 34.7429C95.4872 36.8859 95.4872 39.0288 95.4872 41.1718H107.21V53.8404H95.4872V63.2948C96.8737 63.6728 98.2603 64.0507 99.6469 64.4293C101.033 64.6813 102.294 65.1223 103.429 65.7529C104.563 66.3829 105.509 67.1394 106.265 68.022C107.021 68.904 107.967 69.8496 109.101 70.8581C110.488 66.8244 112.441 63.1057 114.963 59.7021C117.484 56.2984 120.761 53.4623 124.795 51.1933C128.072 49.0503 131.854 47.6637 136.14 47.0334C140.426 46.2771 144.46 46.7813 148.241 48.5461C153.157 50.4369 156.876 53.4623 159.397 57.6219C162.044 61.7822 163.494 66.1939 163.747 70.8581C163.242 76.1524 161.981 81.3206 159.965 86.3629C158.074 91.4051 155.742 96.1324 152.968 100.544ZM38.9508 114.158C39.5811 114.662 39.9593 115.293 40.0853 116.049C40.2114 116.679 40.4005 117.183 40.6526 117.562C72.4185 117.814 103.996 117.814 135.384 117.562C135.636 117.183 135.762 116.679 135.762 116.049C135.888 115.293 135.951 114.662 135.951 114.158H38.9508ZM22.1223 81.4466C23.635 85.6063 25.5888 89.7036 27.9839 93.7373C30.505 97.6449 33.0892 101.427 35.7364 105.082C34.3498 100.67 32.9632 96.2584 31.5765 91.8461C30.316 87.4344 29.3075 82.9592 28.5512 78.4215C28.5512 76.6564 28.6142 74.7658 28.7402 72.7487C28.8663 70.7321 29.5596 68.778 30.8202 66.8874C31.8287 65.3743 33.2783 64.2403 35.1691 63.4838C37.06 62.7272 38.8878 62.4122 40.6526 62.5382C43.1737 62.5382 45.5688 62.9797 47.8377 63.8617C50.2328 64.7443 52.6279 65.5009 55.023 66.1309C53.3842 64.3663 51.7455 62.7272 50.1068 61.2146C48.468 59.7021 46.5772 58.4415 44.4343 57.4329C42.6695 56.6769 40.8416 56.3614 38.9508 56.4874C37.186 56.6139 35.2322 56.6769 33.0892 56.6769C30.5681 56.9289 28.236 57.8109 26.0931 59.3241C23.9502 60.7106 22.5005 62.6012 21.7442 64.9963C20.7357 67.8954 20.3575 70.6691 20.6096 73.3163C20.9878 75.9634 21.492 78.6735 22.1223 81.4466ZM72.608 146.492C72.3555 145.483 72.608 144.601 73.364 143.845C64.4141 143.971 55.5902 144.034 46.8923 144.034C38.1945 143.908 29.4966 143.908 20.7988 144.034C20.6727 144.664 20.6096 145.483 20.6096 146.492C29.3075 146.492 37.9424 146.492 46.5142 146.492C55.2121 146.366 63.9101 146.366 72.608 146.492ZM90.7599 156.891C93.029 155.127 95.2982 153.299 97.5667 151.408C99.9619 149.391 102.294 147.311 104.563 145.168C102.294 142.899 99.9619 140.819 97.5667 138.929C95.2982 136.911 93.029 135.021 90.7599 133.256C85.9697 137.037 81.432 141.008 77.1457 145.168C79.4149 147.311 81.621 149.391 83.7635 151.408C86.0327 153.299 88.3648 155.127 90.7599 156.891ZM154.292 144.034C146.729 143.908 139.165 143.908 131.602 144.034C124.039 144.034 116.538 143.971 109.101 143.845C109.353 144.727 109.353 145.609 109.101 146.492C116.538 146.366 124.039 146.366 131.602 146.492C139.165 146.492 146.729 146.492 154.292 146.492V144.034ZM139.165 105.082C140.804 103.065 142.254 100.986 143.515 98.8425C144.901 96.5734 146.225 94.3673 147.485 92.2247C149.628 88.821 151.393 85.2283 152.779 81.4466C154.292 77.5389 154.797 73.5053 154.292 69.3456C153.914 67.7064 153.409 66.0049 152.779 64.2403C152.275 62.4752 151.015 60.8996 148.998 59.5131C146.855 57.7479 144.271 56.7399 141.245 56.4874C138.22 56.2355 135.258 56.3614 132.358 56.8659C129.711 57.6219 127.379 58.8825 125.362 60.6476C123.472 62.4122 121.643 64.2403 119.879 66.1309C122.652 65.2483 125.488 64.3033 128.388 63.2948C131.413 62.2862 134.628 62.0342 138.031 62.5382C139.417 62.7902 140.615 63.3577 141.623 64.2403C142.632 64.9963 143.325 65.8789 143.704 66.8874C144.964 68.904 145.594 70.9841 145.594 73.1272C145.594 75.2698 145.468 77.4129 145.216 79.5561C144.964 83.7158 144.208 88.0014 142.947 92.4137C141.686 96.6994 140.426 100.923 139.165 105.082Z" fill="black"/>
<path d="M38.9506 114.158C39.5809 114.662 39.959 115.293 40.0851 116.049C40.2111 116.679 40.4002 117.183 40.6523 117.562C72.4185 117.814 103.996 117.814 135.384 117.562C135.636 117.183 135.762 116.679 135.762 116.049C135.888 115.293 135.951 114.662 135.951 114.158H38.9506ZM22.1221 81.4466C23.6348 85.6063 25.5886 89.7035 27.9837 93.7372C30.5048 97.6449 33.089 101.427 35.7361 105.082C34.3496 100.67 32.9629 96.2584 31.5763 91.8461C30.3158 87.4344 29.3073 82.9592 28.551 78.4215C28.551 76.6564 28.614 74.7658 28.74 72.7487C28.8661 70.7321 29.5594 68.778 30.8199 66.8874C31.8284 65.3743 33.2781 64.2397 35.1689 63.4837C37.0597 62.7272 38.8875 62.4122 40.6523 62.5382C43.1734 62.5382 45.5685 62.9792 47.8375 63.8617C50.2326 64.7443 52.6277 65.5003 55.0227 66.1309C53.384 64.3663 51.7453 62.7272 50.1065 61.2146C48.4678 59.702 46.577 58.4415 44.434 57.4329C42.6692 56.6764 40.8414 56.3614 38.9506 56.4874C37.1858 56.6134 35.2319 56.6764 33.0889 56.6764C30.5678 56.9289 28.2358 57.8109 26.0928 59.3241C23.9499 60.7106 22.5003 62.6012 21.7439 64.9963C20.7355 67.8954 20.3573 70.6691 20.6094 73.3162C20.9876 75.9634 21.4918 78.6735 22.1221 81.4466ZM72.6075 146.492C72.3555 145.483 72.6075 144.601 73.364 143.844C64.4141 143.97 55.59 144.034 46.8921 144.034C38.1942 143.907 29.4964 143.907 20.7985 144.034C20.6724 144.664 20.6094 145.483 20.6094 146.492C29.3073 146.492 37.9421 146.492 46.514 146.492C55.2118 146.365 63.9096 146.365 72.6075 146.492ZM90.7594 156.891C93.0285 155.126 95.2976 153.299 97.5667 151.408C99.9619 149.391 102.294 147.311 104.563 145.168C102.294 142.899 99.9619 140.819 97.5667 138.928C95.2976 136.911 93.0285 135.02 90.7594 133.256C85.9697 137.037 81.4314 141.008 77.1457 145.168C79.4149 147.311 81.6204 149.391 83.7636 151.408C86.0327 153.299 88.3648 155.126 90.7594 156.891ZM154.292 144.034C146.729 143.907 139.165 143.907 131.602 144.034C124.039 144.034 116.538 143.97 109.101 143.844C109.353 144.727 109.353 145.609 109.101 146.492C116.538 146.365 124.039 146.365 131.602 146.492C139.165 146.492 146.729 146.492 154.292 146.492V144.034ZM139.165 105.082C140.804 103.065 142.253 100.985 143.514 98.8425C144.901 96.5734 146.224 94.3672 147.485 92.2247C149.628 88.821 151.392 85.2283 152.779 81.4466C154.292 77.5389 154.796 73.5052 154.292 69.3456C153.913 67.7064 153.409 66.0049 152.779 64.2397C152.275 62.4752 151.014 60.8996 148.998 59.5131C146.855 57.7479 144.271 56.7394 141.245 56.4874C138.22 56.2354 135.258 56.3614 132.358 56.8659C129.711 57.6219 127.379 58.8825 125.362 60.6476C123.471 62.4122 121.643 64.2397 119.879 66.1309C122.652 65.2483 125.488 64.3027 128.387 63.2947C131.413 62.2862 134.627 62.0342 138.031 62.5382C139.417 62.7902 140.615 63.3577 141.623 64.2397C142.632 64.9963 143.325 65.8789 143.703 66.8874C144.964 68.904 145.594 70.9841 145.594 73.1267C145.594 75.2698 145.468 77.4129 145.216 79.556C144.964 83.7157 144.208 88.0014 142.947 92.4137C141.686 96.6994 140.426 100.922 139.165 105.082Z" fill="#EEEEEE"/>
</svg>
