<svg width="32" height="32" viewBox="0 0 32 32" fill="none" xmlns="http://www.w3.org/2000/svg">
<path d="M24.5577 22.6532C24.7992 22.955 25.091 23.1965 25.433 23.3776C25.7751 23.5587 26.0367 23.8001 26.2177 24.1019C26.4391 24.3233 26.5699 24.5848 26.6101 24.8867C26.6504 25.1684 26.6906 25.44 26.7308 25.7016V26.9994H26.7007V28.8405C23.0587 28.8606 19.4369 28.8706 15.8352 28.8706C12.2537 28.8505 8.65199 28.8405 5.03018 28.8405V26.6674V25.7016H5C5.02012 25.3796 5.07042 25.0476 5.15091 24.7056C5.23139 24.3434 5.41249 24.0214 5.69418 23.7398C5.97588 23.5385 6.27769 23.3373 6.59963 23.1361C6.92157 22.9148 7.16302 22.6331 7.32399 22.291C7.56545 22.0093 7.71635 21.6874 7.77672 21.3252C7.8572 20.9429 7.97793 20.6009 8.1389 20.299C8.4206 19.6753 8.77271 19.1018 9.19526 18.5787C9.63792 18.0354 10.0605 17.4921 10.4629 16.9489C10.7647 16.5465 11.0665 16.1239 11.3683 15.6812C11.6702 15.2185 11.9317 14.7657 12.1531 14.3231C11.6903 13.639 11.4689 12.8542 11.4891 11.9689C11.5092 11.0836 11.811 10.2988 12.3945 9.61472C12.6762 9.25254 13.0183 8.95072 13.4207 8.70926C13.8231 8.44769 14.2557 8.25654 14.7185 8.13581C15.2014 8.01508 15.6843 7.97485 16.1672 8.01509C16.6703 8.05533 17.1431 8.17605 17.5858 8.37727C18.1089 8.55836 18.5617 8.84006 18.944 9.22236C19.3263 9.60466 19.618 10.0272 19.8192 10.49C20.0406 10.9528 20.1613 11.4457 20.1814 11.9689C20.2015 12.492 20.1009 12.9951 19.8796 13.478C19.8595 13.6188 19.8192 13.7496 19.7589 13.8703C19.6985 13.9911 19.6985 14.1118 19.7589 14.2325C20.0003 14.7557 20.2719 15.2587 20.5738 15.7416C20.8957 16.2245 21.2176 16.6974 21.5396 17.1601C21.8816 17.6229 22.2036 18.0958 22.5054 18.5787C22.8273 19.0616 23.1191 19.5546 23.3807 20.0576C23.6221 20.4801 23.7931 20.9329 23.8938 21.4158C23.9944 21.8987 24.2157 22.3112 24.5577 22.6532V22.6532ZM23.0487 21.0838C22.3042 21.0636 21.5597 21.0636 20.8152 21.0838C20.0707 21.0838 19.3162 21.0737 18.5516 21.0536C18.6522 21.2145 18.6522 21.3956 18.5516 21.5969H23.3505C23.2901 21.4963 23.2298 21.4057 23.1694 21.3252C23.1292 21.2447 23.0889 21.1642 23.0487 21.0838V21.0838ZM12.5152 14.8362C12.4951 14.9368 12.4549 15.0374 12.3945 15.138C12.3543 15.2185 12.3945 15.2989 12.5152 15.3794C13.0988 15.8623 13.7628 16.2144 14.5072 16.4358C15.2517 16.6571 16.0063 16.6772 16.7709 16.4961C17.797 16.3352 18.6924 15.8925 19.457 15.1682C19.4369 15.0072 19.3866 14.816 19.3061 14.5947C18.8635 15.0776 18.3303 15.48 17.7065 15.802C17.1029 16.1239 16.4489 16.2547 15.7447 16.1943C15.1209 16.2346 14.5274 16.1138 13.964 15.8322C13.4207 15.5505 12.9378 15.2185 12.5152 14.8362V14.8362ZM17.9178 21.295C17.5355 21.0133 17.1632 20.7115 16.801 20.3896C16.459 20.0475 16.1169 19.7155 15.7749 19.3936C15.4328 19.7155 15.0908 20.0375 14.7487 20.3594C14.4066 20.6612 14.0646 20.9631 13.7225 21.2649C14.0042 21.6472 14.3261 21.9892 14.6883 22.291C15.0706 22.5929 15.4328 22.9148 15.7749 23.2569C16.1773 22.9349 16.5495 22.613 16.8916 22.291C17.2337 21.9691 17.5757 21.6371 17.9178 21.295ZM8.62181 21.0838C8.58156 21.1642 8.55138 21.2447 8.53126 21.3252C8.51114 21.4057 8.48096 21.4963 8.44072 21.5969H13.1792C13.1189 21.5566 13.0585 21.5164 12.9982 21.4761C12.9579 21.4359 12.9177 21.3956 12.8774 21.3554C12.9579 21.2347 13.0082 21.1441 13.0283 21.0838C11.5595 21.0435 10.0907 21.0435 8.62181 21.0838V21.0838ZM25.8254 25.7016H5.8149V26.1845H25.8254V25.7016Z" fill="black"/>
<path d="M23.0487 21.0838C22.3042 21.0636 21.5597 21.0636 20.8153 21.0838C20.0708 21.0838 19.3162 21.0737 18.5516 21.0536C18.6522 21.2145 18.6522 21.3956 18.5516 21.5968H23.3505C23.2902 21.4962 23.2298 21.4057 23.1694 21.3252C23.1292 21.2447 23.0889 21.1642 23.0487 21.0838ZM12.5153 14.8362C12.4952 14.9368 12.4549 15.0374 12.3946 15.138C12.3543 15.2184 12.3946 15.2989 12.5153 15.3794C13.0988 15.8623 13.7628 16.2144 14.5073 16.4358C15.2518 16.6571 16.0063 16.6772 16.7709 16.4961C17.7971 16.3352 18.6925 15.8925 19.4571 15.1681C19.437 15.0072 19.3867 14.816 19.3062 14.5947C18.8635 15.0776 18.3303 15.48 17.7065 15.802C17.1029 16.1239 16.449 16.2547 15.7447 16.1943C15.121 16.2346 14.5274 16.1138 13.964 15.8321C13.4207 15.5504 12.9378 15.2185 12.5153 14.8362ZM17.9178 21.295C17.5355 21.0133 17.1633 20.7115 16.8011 20.3896C16.459 20.0475 16.117 19.7155 15.7749 19.3936C15.4328 19.7155 15.0908 20.0375 14.7487 20.3594C14.4067 20.6612 14.0646 20.963 13.7226 21.2649C14.0042 21.6472 14.3262 21.9892 14.6884 22.291C15.0707 22.5928 15.4328 22.9148 15.7749 23.2568C16.1773 22.9349 16.5496 22.613 16.8916 22.291C17.2337 21.9691 17.5757 21.6371 17.9178 21.295ZM8.62184 21.0838C8.5816 21.1642 8.55142 21.2447 8.5313 21.3252C8.51117 21.4057 8.48099 21.4962 8.44075 21.5968H13.1793C13.1189 21.5566 13.0585 21.5164 12.9982 21.4761C12.9579 21.4359 12.9177 21.3956 12.8775 21.3554C12.958 21.2347 13.0082 21.1441 13.0284 21.0838C11.5595 21.0435 10.0907 21.0435 8.62184 21.0838ZM25.8254 25.7016H5.81494V26.1845H25.8254V25.7016Z" fill="#EEEEEE"/>
</svg>
