<svg width="32" height="32" viewBox="0 0 32 32" fill="none" xmlns="http://www.w3.org/2000/svg">
<path d="M26.9461 25.5054C26.9864 26.0889 26.9964 26.6724 26.9763 27.2559C26.9763 27.8193 26.9763 28.3928 26.9763 28.9763H6.03018C6.03018 28.4531 6.02012 27.9199 6 27.3767C6 26.8133 6.01006 26.2499 6.03018 25.6865C6.07042 25.4048 6.11066 25.1332 6.15091 24.8716C6.21127 24.5899 6.32194 24.3283 6.48291 24.0869C6.64388 23.7649 6.86521 23.5235 7.1469 23.3625C7.44872 23.1814 7.7103 22.9601 7.93163 22.6985C8.25357 22.3564 8.48496 21.944 8.62581 21.461C8.76666 20.958 8.95781 20.5053 9.19926 20.1029C9.44071 19.62 9.71235 19.1672 10.0142 18.7447C10.316 18.302 10.6279 17.8694 10.9498 17.4469C11.2717 17.0042 11.5836 16.5615 11.8854 16.1189C12.1872 15.6762 12.4589 15.2134 12.7003 14.7305C12.2174 13.805 12.0363 12.819 12.1571 11.7727C12.2979 10.9276 12.65 10.1731 13.2134 9.50909C13.7768 8.84509 14.4509 8.41248 15.2356 8.21127C15.6581 8.07042 16.0908 8 16.5334 8C16.9761 8 17.4087 8.07042 17.8312 8.21127C18.2538 8.332 18.6461 8.52315 19.0083 8.78473C19.3705 9.02618 19.6824 9.328 19.944 9.69018C20.3061 10.1127 20.5476 10.5856 20.6683 11.1087C20.8092 11.6117 20.8796 12.1349 20.8796 12.6782C20.8796 12.9599 20.8393 13.2416 20.7589 13.5233C20.6985 13.805 20.6281 14.0766 20.5476 14.3382C20.5275 14.4186 20.5476 14.5092 20.608 14.6098C20.8293 15.1128 21.0808 15.5957 21.3625 16.0585C21.6442 16.5012 21.9259 16.9539 22.2076 17.4167C22.5094 17.8594 22.8012 18.3121 23.0829 18.7749C23.3646 19.2175 23.6161 19.6803 23.8374 20.1632C23.9984 20.5053 24.1392 20.8574 24.2599 21.2196C24.3807 21.5617 24.5316 21.9037 24.7127 22.2458C24.8133 22.4269 24.9441 22.5878 25.105 22.7287C25.266 22.8695 25.437 23.0003 25.6181 23.121C25.7992 23.2418 25.9702 23.3726 26.1312 23.5134C26.2922 23.6543 26.433 23.8253 26.5537 24.0265C26.6946 24.2478 26.7851 24.4792 26.8254 24.7207C26.8858 24.9621 26.926 25.2237 26.9461 25.5054V25.5054ZM16.0505 8.78473C15.5877 8.82497 15.1451 8.96581 14.7225 9.20727C14.3201 9.44872 13.968 9.7606 13.6662 10.1429C13.3845 10.5051 13.1631 10.9176 13.0022 11.3804C12.8613 11.823 12.8211 12.2757 12.8814 12.7385C12.9015 13.2214 13.0122 13.6742 13.2134 14.0967C13.4146 14.5192 13.6863 14.8915 14.0283 15.2134C14.3704 15.5354 14.7628 15.7869 15.2054 15.968C15.6481 16.1491 16.1109 16.2295 16.5938 16.2094C17.1773 16.2094 17.7407 16.0686 18.284 15.7869C18.8272 15.4851 19.2498 15.0726 19.5516 14.5494C19.954 13.9659 20.1653 13.312 20.1854 12.5876C20.2257 11.8431 20.0647 11.1791 19.7025 10.5956C19.3403 9.95175 18.8172 9.45878 18.133 9.11672C17.4691 8.75454 16.7749 8.64388 16.0505 8.78473V8.78473ZM12.8814 15.8473C12.6199 16.2899 12.3382 16.7225 12.0363 17.1451C11.7345 17.5475 11.4327 17.96 11.1309 18.3825C10.8291 18.8051 10.5373 19.2377 10.2556 19.6803C9.99405 20.123 9.76266 20.5858 9.56144 21.0687C10.326 21.0486 11.0806 21.0486 11.8251 21.0687C12.5696 21.0888 13.3241 21.0787 14.0887 21.0385C14.4911 20.6763 14.8734 20.3041 15.2356 19.9218C15.5978 19.5194 15.9801 19.127 16.3825 18.7447C16.7648 19.127 17.1471 19.5093 17.5294 19.8916C17.9117 20.2739 18.294 20.6663 18.6763 21.0687H23.4752C23.274 20.5657 23.0326 20.0928 22.7509 19.6501C22.4893 19.2075 22.2076 18.7648 21.9058 18.3221C21.6241 17.8795 21.3323 17.4469 21.0305 17.0243C20.7488 16.5817 20.4872 16.1189 20.2458 15.636C19.9037 16.0384 19.5114 16.3704 19.0687 16.632C18.6461 16.8734 18.1834 17.0545 17.6803 17.1752C17.1773 17.296 16.6642 17.3362 16.1411 17.296C15.6179 17.2557 15.1149 17.1451 14.632 16.964C14.31 16.8634 14.0082 16.7024 13.7265 16.4811C13.4448 16.2597 13.1631 16.0485 12.8814 15.8473V15.8473ZM18.4349 21.5818C18.0928 21.2397 17.7508 20.8977 17.4087 20.5556C17.0666 20.2135 16.7246 19.8715 16.3825 19.5294C16.0405 19.8715 15.6984 20.2135 15.3563 20.5556C15.0344 20.8977 14.7024 21.2397 14.3603 21.5818C14.7024 21.9238 15.0344 22.2659 15.3563 22.608C15.6984 22.9299 16.0405 23.2619 16.3825 23.604C16.7246 23.2619 17.0666 22.9299 17.4087 22.608C17.7508 22.2659 18.0928 21.9238 18.4349 21.5818ZM7.4789 24.0567C7.21733 24.2176 7.03624 24.4289 6.93563 24.6905C6.85515 24.9319 6.79478 25.1935 6.75454 25.4752H26.2519C26.2117 25.3142 26.1815 25.1734 26.1614 25.0527C26.1413 24.9118 26.1211 24.781 26.101 24.6603C25.9401 24.3786 25.7388 24.1573 25.4974 23.9963C25.2761 23.8152 25.0547 23.6341 24.8334 23.453C24.6121 23.2921 24.4108 23.0909 24.2298 22.8494C24.0688 22.608 23.938 22.3564 23.8374 22.0949C22.9722 22.0949 22.117 22.0848 21.272 22.0647C20.447 22.0446 19.5918 22.0647 18.7065 22.125C18.5657 22.2256 18.4349 22.3363 18.3141 22.457C18.2135 22.5778 18.0928 22.6884 17.952 22.789C19.0787 22.95 20.1653 23.2116 21.2116 23.5738C22.2579 23.9359 23.2338 24.4289 24.1392 25.0527C23.0929 24.61 22.0164 24.2579 20.9098 23.9963C19.8031 23.7347 18.6663 23.604 17.4992 23.604C17.2377 23.5838 17.0364 23.6744 16.8956 23.8756C16.7547 24.0768 16.5837 24.2478 16.3825 24.3887C16.2417 24.2478 16.1109 24.117 15.9901 23.9963C15.8895 23.8756 15.7688 23.7448 15.628 23.604C14.6018 23.7046 13.5857 23.8454 12.5796 24.0265C11.5937 24.2076 10.6178 24.4692 9.65199 24.8112C10.4367 24.3082 11.2617 23.9058 12.1269 23.604C13.0122 23.282 13.9076 23.0406 14.8131 22.8796C14.6923 22.7186 14.5716 22.5778 14.4509 22.457C14.3503 22.3162 14.2195 22.1955 14.0585 22.0949C13.2336 22.0546 12.4186 22.0446 11.6138 22.0647C10.8291 22.0848 10.0242 22.0949 9.19926 22.0949C9.07853 22.3564 8.89744 22.6683 8.65599 23.0305C8.4749 23.2317 8.28375 23.4128 8.08254 23.5738C7.88132 23.7347 7.68011 23.8957 7.4789 24.0567V24.0567ZM6.78473 28.2217C10.0242 28.2419 13.2738 28.2519 16.5334 28.2519C19.793 28.2318 23.0426 28.2217 26.2821 28.2217C26.2821 27.9401 26.2821 27.6483 26.2821 27.3465C26.2821 27.0245 26.2721 26.7127 26.2519 26.4108C23.0124 26.3706 19.7629 26.3605 16.5032 26.3807C13.2637 26.3807 10.0242 26.3807 6.78473 26.3807V28.2217Z" fill="black"/>
<path d="M16.0504 8.78474C15.5876 8.82498 15.145 8.96583 14.7224 9.20728C14.32 9.44874 13.9679 9.76062 13.6661 10.1429C13.3844 10.5051 13.163 10.9176 13.0021 11.3804C12.8612 11.823 12.821 12.2758 12.8813 12.7386C12.9015 13.2215 13.0121 13.6742 13.2133 14.0967C13.4146 14.5193 13.6862 14.8915 14.0282 15.2134C14.3703 15.5354 14.7627 15.7869 15.2053 15.968C15.648 16.1491 16.1108 16.2296 16.5937 16.2094C17.1772 16.2094 17.7406 16.0686 18.2839 15.7869C18.8271 15.4851 19.2497 15.0726 19.5515 14.5494C19.9539 13.9659 20.1652 13.312 20.1853 12.5876C20.2256 11.8432 20.0646 11.1792 19.7024 10.5956C19.3402 9.95177 18.8171 9.4588 18.133 9.11674C17.469 8.75456 16.7748 8.64389 16.0504 8.78474ZM12.8813 15.8473C12.6198 16.2899 12.3381 16.7225 12.0363 17.1451C11.7344 17.5475 11.4326 17.96 11.1308 18.3825C10.829 18.8051 10.5372 19.2377 10.2555 19.6803C9.99396 20.123 9.76257 20.5858 9.56136 21.0687C10.326 21.0486 11.0805 21.0486 11.825 21.0687C12.5695 21.0888 13.324 21.0788 14.0886 21.0385C14.491 20.6763 14.8733 20.3041 15.2355 19.9218C15.5977 19.5194 15.98 19.127 16.3824 18.7447C16.7647 19.127 17.147 19.5093 17.5293 19.8916C17.9116 20.2739 18.2939 20.6663 18.6762 21.0687H23.4751C23.2739 20.5657 23.0325 20.0928 22.7508 19.6502C22.4892 19.2075 22.2075 18.7648 21.9057 18.3222C21.624 17.8795 21.3322 17.4469 21.0304 17.0244C20.7487 16.5817 20.4871 16.1189 20.2457 15.636C19.9036 16.0384 19.5113 16.3704 19.0686 16.632C18.6461 16.8734 18.1833 17.0545 17.6802 17.1753C17.1772 17.296 16.6641 17.3362 16.141 17.296C15.6178 17.2557 15.1148 17.1451 14.6319 16.964C14.3099 16.8634 14.0081 16.7024 13.7264 16.4811C13.4447 16.2597 13.163 16.0485 12.8813 15.8473ZM18.4348 21.5818C18.0927 21.2397 17.7507 20.8977 17.4086 20.5556C17.0665 20.2136 16.7245 19.8715 16.3824 19.5294C16.0404 19.8715 15.6983 20.2136 15.3562 20.5556C15.0343 20.8977 14.7023 21.2397 14.3602 21.5818C14.7023 21.9239 15.0343 22.2659 15.3562 22.608C15.6983 22.9299 16.0404 23.2619 16.3824 23.604C16.7245 23.2619 17.0665 22.9299 17.4086 22.608C17.7507 22.2659 18.0927 21.9239 18.4348 21.5818ZM7.47882 24.0567C7.21724 24.2177 7.03615 24.4289 6.93555 24.6905C6.85506 24.932 6.7947 25.1935 6.75446 25.4752H26.2518C26.2116 25.3143 26.1814 25.1734 26.1613 25.0527C26.1412 24.9118 26.1211 24.7811 26.1009 24.6603C25.94 24.3786 25.7388 24.1573 25.4973 23.9963C25.276 23.8152 25.0546 23.6341 24.8333 23.4531C24.612 23.2921 24.4108 23.0909 24.2297 22.8494C24.0687 22.608 23.9379 22.3565 23.8373 22.0949C22.9721 22.0949 22.117 22.0848 21.2719 22.0647C20.4469 22.0446 19.5917 22.0647 18.7064 22.1251C18.5656 22.2257 18.4348 22.3363 18.3141 22.4571C18.2135 22.5778 18.0927 22.6885 17.9519 22.7891C19.0787 22.95 20.1652 23.2116 21.2115 23.5738C22.2578 23.936 23.2337 24.4289 24.1391 25.0527C23.0928 24.61 22.0163 24.2579 20.9097 23.9963C19.803 23.7348 18.6662 23.604 17.4991 23.604C17.2376 23.5838 17.0364 23.6744 16.8955 23.8756C16.7547 24.0768 16.5836 24.2478 16.3824 24.3887C16.2416 24.2478 16.1108 24.1171 15.9901 23.9963C15.8895 23.8756 15.7687 23.7448 15.6279 23.604C14.6017 23.7046 13.5856 23.8454 12.5795 24.0265C11.5936 24.2076 10.6177 24.4692 9.6519 24.8112C10.4366 24.3082 11.2616 23.9058 12.1268 23.604C13.0121 23.282 13.9075 23.0406 14.813 22.8796C14.6922 22.7186 14.5715 22.5778 14.4508 22.4571C14.3502 22.3162 14.2194 22.1955 14.0584 22.0949C13.2335 22.0546 12.4186 22.0446 11.6137 22.0647C10.829 22.0848 10.0241 22.0949 9.19917 22.0949C9.07845 22.3565 8.89736 22.6683 8.65591 23.0305C8.47481 23.2317 8.28366 23.4128 8.08245 23.5738C7.88124 23.7348 7.68003 23.8957 7.47882 24.0567ZM6.78464 28.2218C10.0241 28.2419 13.2737 28.252 16.5333 28.252C19.793 28.2318 23.0425 28.2218 26.282 28.2218C26.282 27.9401 26.282 27.6483 26.282 27.3465C26.282 27.0246 26.272 26.7127 26.2518 26.4109C23.0123 26.3706 19.7628 26.3606 16.5032 26.3807C13.2636 26.3807 10.0241 26.3807 6.78464 26.3807V28.2218Z" fill="white"/>
</svg>
