<svg width="32" height="32" viewBox="0 0 32 32" fill="none" xmlns="http://www.w3.org/2000/svg">
<path d="M14.7428 6.1748C14.9893 6.06275 15.2583 6.00672 15.5496 6.00672C15.8409 5.98431 16.121 6.01793 16.39 6.10757C16.6589 6.19721 16.9054 6.33167 17.1295 6.51095C17.3536 6.66782 17.5329 6.8583 17.6673 7.0824C17.8466 7.32891 17.9587 7.57542 18.0035 7.82193C18.0707 8.06844 18.0819 8.32616 18.0371 8.59507C17.9699 8.84158 17.8578 9.07689 17.7009 9.30099C17.5665 9.50268 17.4208 9.69317 17.2639 9.87245C17.1743 9.96209 17.1407 10.0405 17.1631 10.1078C17.1855 10.175 17.2079 10.2646 17.2303 10.3767C17.4096 11.1386 17.5889 11.9005 17.7682 12.6625C17.9475 13.4244 18.1491 14.1976 18.3732 14.9819C18.687 14.3544 18.9783 13.7494 19.2472 13.1667C19.5386 12.5841 19.8187 11.9902 20.0876 11.3851C19.8187 11.0714 19.6394 10.6792 19.5498 10.2086C19.4825 9.73798 19.5386 9.30099 19.7178 8.89761C19.8747 8.6511 20.0764 8.43821 20.3229 8.25893C20.5918 8.05724 20.872 7.91157 21.1633 7.82193C21.477 7.73229 21.7908 7.69868 22.1045 7.72108C22.4182 7.72108 22.7096 7.79952 22.9785 7.95639C23.6284 8.27013 24.043 8.74074 24.2222 9.36822C24.4015 9.9957 24.3007 10.5784 23.9197 11.1162C23.7853 11.4075 23.5612 11.6316 23.2474 11.7885C22.9337 11.9454 22.6199 12.0798 22.3062 12.1919C22.239 12.7969 22.1605 13.4132 22.0709 14.0407C21.9813 14.6682 21.914 15.2732 21.8692 15.8559C22.1605 15.7214 22.4294 15.5758 22.676 15.4189C22.9449 15.262 23.225 15.094 23.5163 14.9147C23.5387 14.5337 23.606 14.164 23.718 13.8054C23.8525 13.4244 24.0878 13.1107 24.4239 12.8642C24.8049 12.5504 25.2755 12.3936 25.8358 12.3936C26.396 12.3712 26.8778 12.5168 27.2812 12.8306C27.5501 13.0098 27.763 13.2339 27.9199 13.5029C28.0992 13.7718 28.2112 14.0631 28.256 14.3768C28.3233 14.6682 28.3121 14.9595 28.2224 15.2508C28.1328 15.5422 27.9759 15.7999 27.7518 16.024C27.4381 16.405 27.0459 16.6403 26.5753 16.7299C26.1271 16.8195 25.6677 16.8307 25.1971 16.7635C24.9954 17.1445 24.8049 17.5142 24.6256 17.8728C24.4463 18.2314 24.2671 18.5899 24.0878 18.9485C24.043 19.5311 24.1102 20.1026 24.2895 20.6629C24.4688 21.2231 24.7153 21.7497 25.029 22.2428C25.2531 22.5565 25.5108 22.8142 25.8021 23.0159C26.1159 23.2176 26.4184 23.4305 26.7098 23.6546C26.9563 23.8563 27.1467 24.114 27.2812 24.4277C27.4381 24.7191 27.5165 25.0216 27.5165 25.3353C27.5389 26.03 27.5389 26.7247 27.5165 27.4195C27.5165 28.0918 27.5165 28.7641 27.5165 29.4364H3.78435C3.78435 28.7865 3.77314 28.1254 3.75073 27.4531C3.75073 26.7808 3.76194 26.1085 3.78435 25.4362C3.76194 25.1224 3.80676 24.8087 3.91881 24.495C4.05327 24.1812 4.26616 23.9235 4.55749 23.7218C4.804 23.4753 5.08413 23.2512 5.39787 23.0495C5.73401 22.8478 6.02535 22.5789 6.27185 22.2428C6.58559 21.7497 6.8209 21.2231 6.97777 20.6629C7.15705 20.1026 7.22428 19.5311 7.17946 18.9485C7.02259 18.5899 6.84331 18.2314 6.64162 17.8728C6.43993 17.5142 6.24945 17.1445 6.07017 16.7635C5.73402 16.8083 5.38666 16.8195 5.0281 16.7971C4.66954 16.7523 4.3446 16.6403 4.05327 16.461C3.56025 16.1472 3.23531 15.7102 3.07844 15.15C2.92157 14.5897 3 14.0743 3.31374 13.6037C3.51543 13.1107 3.88519 12.7633 4.42303 12.5616C4.98328 12.3375 5.54353 12.3039 6.10378 12.4608C6.35029 12.5504 6.5856 12.6737 6.8097 12.8306C7.05621 12.9874 7.24669 13.1555 7.38115 13.3348C7.56043 13.5365 7.65007 13.7942 7.65007 14.1079C7.67248 14.3993 7.70609 14.6682 7.75091 14.9147C8.28875 15.2508 8.849 15.5646 9.43166 15.8559C9.38684 15.3405 9.31961 14.8138 9.22997 14.276C9.14033 13.7158 9.07311 13.1779 9.02829 12.6625C8.98347 12.6177 8.97226 12.5392 8.99467 12.4272C9.01708 12.3151 8.99467 12.2367 8.92744 12.1919C8.72575 12.0798 8.52406 11.9902 8.32237 11.923C8.12068 11.8333 7.93019 11.7325 7.75091 11.6204C7.43717 11.3067 7.21307 10.9369 7.07861 10.5111C6.94415 10.0853 6.95536 9.68196 7.11223 9.30099C7.24669 8.78556 7.57164 8.38218 8.08706 8.09085C8.60249 7.77711 9.15154 7.67627 9.7342 7.78832C10.0703 7.81073 10.3841 7.92278 10.6754 8.12447C10.9667 8.30375 11.2021 8.53905 11.3813 8.83038C11.583 9.0993 11.7063 9.40184 11.7511 9.73799C11.7959 10.0517 11.7511 10.3655 11.6166 10.6792C11.5718 10.8361 11.4822 11.0041 11.3477 11.1834C11.2133 11.3403 11.2021 11.486 11.3141 11.6204C11.5606 12.2031 11.8183 12.7633 12.0872 13.3012C12.3562 13.839 12.6363 14.3881 12.9276 14.9483C13.1293 14.1415 13.331 13.3348 13.5327 12.528C13.7568 11.6989 13.9585 10.8697 14.1378 10.0405C14.0257 9.81642 13.8576 9.59232 13.6335 9.36822C13.4318 9.14412 13.3086 8.8864 13.2638 8.59507C13.1741 8.07965 13.2638 7.59783 13.5327 7.14963C13.824 6.67903 14.2274 6.35408 14.7428 6.1748V6.1748ZM8.22153 19.0493C10.1488 18.4891 12.0872 18.1305 14.0369 17.9736C16.009 17.8168 17.9699 17.9288 19.9195 18.3098C20.4125 18.4219 20.8832 18.5563 21.3314 18.7132C21.7796 18.8476 22.239 18.9933 22.7096 19.1502C22.0597 18.7692 21.3762 18.4555 20.6591 18.209C19.9643 17.94 19.2584 17.7159 18.5413 17.5367C16.7933 17.1109 15.023 17.0436 13.2302 17.335C11.4374 17.6263 9.76781 18.1978 8.22153 19.0493V19.0493ZM8.01983 20.8645C7.90778 21.0214 7.81814 21.1783 7.75091 21.3351H23.5499C23.5499 21.2007 23.5275 21.0438 23.4827 20.8645C20.9056 20.8645 18.3284 20.8645 15.7513 20.8645C13.1741 20.8421 10.597 20.8421 8.01983 20.8645ZM15.684 24.0916C15.3031 24.4501 14.9221 24.7975 14.5411 25.1336C14.1602 25.4698 13.7792 25.8284 13.3982 26.2093C13.7792 26.5679 14.1602 26.9152 14.5411 27.2514C14.9221 27.5875 15.3031 27.9237 15.684 28.2598C16.065 27.9237 16.4348 27.5875 16.7933 27.2514C17.1743 26.9152 17.5441 26.5679 17.9026 26.2093C17.5441 25.8284 17.1743 25.4698 16.7933 25.1336C16.4348 24.7975 16.065 24.4501 15.684 24.0916ZM4.96087 25.8059V26.5791C6.28306 26.5791 7.60525 26.5791 8.92744 26.5791C10.2496 26.5791 11.5718 26.5679 12.894 26.5455C12.8044 26.4782 12.7371 26.4222 12.6923 26.3774C12.6475 26.3326 12.5803 26.2766 12.4906 26.2093C12.5803 26.1421 12.6475 26.0749 12.6923 26.0076C12.7371 25.9404 12.7932 25.8732 12.8604 25.8059H4.96087ZM18.4405 25.8059C18.4853 25.8732 18.5301 25.9516 18.5749 26.0412C18.6422 26.1085 18.6982 26.1645 18.743 26.2093C18.6982 26.2766 18.6422 26.3326 18.5749 26.3774C18.5301 26.4222 18.4853 26.4782 18.4405 26.5455C19.7402 26.5679 21.0512 26.5791 22.3734 26.5791C23.6956 26.5791 25.0066 26.5791 26.3064 26.5791V25.8059H18.4405Z" fill="black"/>
<path d="M8.22153 19.0493C10.1488 18.4891 12.0873 18.1305 14.0369 17.9736C16.009 17.8168 17.9699 17.9288 19.9195 18.3098C20.4126 18.4218 20.8832 18.5563 21.3314 18.7132C21.7796 18.8476 22.239 18.9933 22.7096 19.1502C22.0597 18.7692 21.3762 18.4555 20.6591 18.2089C19.9644 17.94 19.2584 17.7159 18.5413 17.5366C16.7933 17.1109 15.023 17.0436 13.2302 17.335C11.4374 17.6263 9.76782 18.1977 8.22153 19.0493ZM8.01984 20.8645C7.90779 21.0214 7.81815 21.1783 7.75092 21.3351H23.55C23.55 21.2007 23.5275 21.0438 23.4827 20.8645C20.9056 20.8645 18.3284 20.8645 15.7513 20.8645C13.1741 20.8421 10.597 20.8421 8.01984 20.8645ZM15.6841 24.0916C15.3031 24.4501 14.9221 24.7975 14.5411 25.1336C14.1602 25.4698 13.7792 25.8283 13.3982 26.2093C13.7792 26.5679 14.1602 26.9152 14.5411 27.2514C14.9221 27.5875 15.3031 27.9237 15.6841 28.2598C16.065 27.9237 16.4348 27.5875 16.7933 27.2514C17.1743 26.9152 17.5441 26.5679 17.9026 26.2093C17.5441 25.8283 17.1743 25.4698 16.7933 25.1336C16.4348 24.7975 16.065 24.4501 15.6841 24.0916ZM4.96088 25.8059V26.5791C6.28307 26.5791 7.60525 26.5791 8.92744 26.5791C10.2496 26.5791 11.5718 26.5679 12.894 26.5455C12.8044 26.4782 12.7371 26.4222 12.6923 26.3774C12.6475 26.3326 12.5803 26.2765 12.4906 26.2093C12.5803 26.1421 12.6475 26.0748 12.6923 26.0076C12.7371 25.9404 12.7932 25.8732 12.8604 25.8059H4.96088ZM18.4405 25.8059C18.4853 25.8732 18.5301 25.9516 18.5749 26.0412C18.6422 26.1085 18.6982 26.1645 18.743 26.2093C18.6982 26.2765 18.6422 26.3326 18.5749 26.3774C18.5301 26.4222 18.4853 26.4782 18.4405 26.5455C19.7403 26.5679 21.0512 26.5791 22.3734 26.5791C23.6956 26.5791 25.0066 26.5791 26.3064 26.5791V25.8059H18.4405Z" fill="#EEEEEE"/>
</svg>
