<svg width="32" height="32" viewBox="0 0 32 32" fill="none" xmlns="http://www.w3.org/2000/svg">
<path d="M15.8793 5.01681C16.2827 4.97199 16.6749 5.01681 17.0559 5.15127C17.4368 5.28573 17.7618 5.48742 18.0307 5.75634C18.322 6.02526 18.5461 6.339 18.703 6.69756C18.8599 7.05612 18.9159 7.42588 18.8711 7.80685C18.8935 8.18782 18.7926 8.53517 18.5685 8.84891C18.3668 9.14024 18.1764 9.43157 17.9971 9.7229C17.9523 9.85736 17.9411 10.003 17.9635 10.1599C18.0083 10.3168 18.0531 10.4624 18.0979 10.5969C18.21 11.1571 18.3332 11.7286 18.4677 12.3113C18.6021 12.8715 18.7702 13.4093 18.9719 13.9248C19.1512 13.499 19.3305 13.0844 19.5097 12.681C19.689 12.2552 19.8683 11.8182 20.0476 11.37C20.1372 11.258 20.1372 11.1571 20.0476 11.0675C19.9579 10.9779 19.9131 10.8882 19.9131 10.7986C19.5546 10.2383 19.4425 9.63326 19.577 8.98337C19.7114 8.31107 20.0476 7.78444 20.5854 7.40347C20.8992 7.11214 21.2577 6.92166 21.6611 6.83202C22.0869 6.74238 22.4791 6.74238 22.8376 6.83202C23.4875 6.98889 24.0142 7.31383 24.4175 7.80685C24.8433 8.27746 25.045 8.8041 25.0226 9.38676C25.0898 9.96942 24.9218 10.5185 24.5184 11.0339C24.1374 11.5269 23.6556 11.8743 23.0729 12.076C22.9833 12.5914 22.9049 13.118 22.8376 13.6559C22.7928 14.1937 22.7368 14.7427 22.6696 15.303C22.7816 15.2358 22.9161 15.1797 23.0729 15.1349C23.2298 15.0677 23.3643 14.978 23.4763 14.866C23.6332 14.7539 23.7004 14.6083 23.678 14.429C23.6556 14.2273 23.6892 14.0592 23.7788 13.9248C23.9581 13.2525 24.3055 12.7146 24.8209 12.3113C25.3588 11.9079 25.9862 11.7622 26.7033 11.8743C27.0619 11.8743 27.3981 11.9639 27.7118 12.1432C28.0479 12.3001 28.3281 12.5129 28.5522 12.7819C28.7987 13.0284 28.978 13.3309 29.09 13.6895C29.2021 14.0256 29.2357 14.373 29.1909 14.7315C29.1684 15.3366 28.9219 15.8857 28.4513 16.3787C27.9807 16.8493 27.4429 17.107 26.8378 17.1518H25.863C25.6613 17.5328 25.4708 17.9138 25.2915 18.2947C25.1347 18.6533 24.9666 19.0342 24.7873 19.4376C24.8993 19.9531 25.0226 20.4685 25.1571 20.9839C25.2915 21.4769 25.538 21.9363 25.8966 22.3621C26.0983 22.5638 26.3224 22.7543 26.5689 22.9336C26.8378 23.1129 27.0619 23.2921 27.2412 23.4714C27.6222 23.7628 27.8575 24.1101 27.9471 24.5135C28.0592 24.9169 28.1264 25.3315 28.1488 25.7572C28.1712 26.3175 28.1712 26.9001 28.1488 27.5052C28.1488 28.1103 28.1488 28.7266 28.1488 29.354H4.04687C4.04687 28.7042 4.03566 28.0767 4.01325 27.4716C4.01325 26.8441 4.03566 26.2391 4.08048 25.6564C4.10289 25.3427 4.13651 25.0401 4.18133 24.7488C4.24856 24.4351 4.3606 24.1661 4.51747 23.942C4.78639 23.5611 5.12254 23.2585 5.52592 23.0344C5.9293 22.7879 6.26545 22.4854 6.53437 22.1268C6.80329 21.7234 7.00498 21.2977 7.13944 20.8495C7.29631 20.3788 7.40836 19.9082 7.47559 19.4376C7.29631 19.0342 7.10583 18.6533 6.90414 18.2947C6.70245 17.9138 6.51196 17.5328 6.33268 17.1518C5.97412 17.1966 5.60436 17.1854 5.22339 17.1182C4.84242 17.051 4.49507 16.8941 4.18133 16.6476C3.84518 16.4459 3.57626 16.177 3.37457 15.8408C3.17288 15.4823 3.04962 15.1237 3.0048 14.7652C2.98239 14.3842 3.03842 14.0032 3.17288 13.6222C3.30734 13.2413 3.52023 12.9163 3.81156 12.6474C4.19253 12.1992 4.69675 11.9303 5.32423 11.8406C5.95171 11.751 6.54557 11.8406 7.10582 12.1096C7.35233 12.2216 7.55403 12.3785 7.7109 12.5802C7.89018 12.7819 8.04705 12.9724 8.18151 13.1516C8.33838 13.3981 8.42802 13.6559 8.45043 13.9248C8.47284 14.1937 8.51766 14.4514 8.58489 14.6979C8.71935 14.8324 8.86501 14.9556 9.02188 15.0677C9.20116 15.1573 9.36923 15.2358 9.5261 15.303C9.45887 14.7427 9.39165 14.1937 9.32442 13.6559C9.2796 13.118 9.21237 12.5914 9.12273 12.076C8.8314 11.9191 8.54007 11.7398 8.24874 11.5381C7.97982 11.3364 7.76692 11.1011 7.61005 10.8322C7.31872 10.384 7.18426 9.89098 7.20667 9.35314C7.22908 8.8153 7.39716 8.29987 7.7109 7.80685C8.09187 7.31383 8.6073 7.00009 9.25719 6.86563C9.92949 6.70876 10.5458 6.74238 11.106 6.96648C11.4646 7.14576 11.7671 7.38106 12.0136 7.67239C12.2601 7.96372 12.4394 8.27746 12.5514 8.61361C12.6635 8.94976 12.7083 9.30832 12.6859 9.68929C12.6635 10.0478 12.5627 10.3952 12.3834 10.7314C12.3386 10.8434 12.2713 10.9555 12.1817 11.0675C12.092 11.1571 12.0808 11.2692 12.1481 11.4037C12.3498 11.8519 12.5402 12.2776 12.7195 12.681C12.9212 13.0844 13.1229 13.499 13.3246 13.9248C13.5039 13.2525 13.672 12.5802 13.8288 11.9079C13.9857 11.2132 14.1538 10.5185 14.333 9.82375C14.1538 9.53242 13.9633 9.2635 13.7616 9.01699C13.5599 8.77048 13.4478 8.47915 13.4254 8.143C13.3582 7.78444 13.3694 7.42588 13.4591 7.06732C13.5711 6.68635 13.7392 6.35021 13.9633 6.05888C14.1874 5.76755 14.4675 5.53224 14.8037 5.35296C15.1398 5.15127 15.4984 5.03922 15.8793 5.01681V5.01681ZM15.8793 5.82357C15.3639 5.8908 14.9269 6.1261 14.5683 6.52948C14.2322 6.91045 14.1089 7.32504 14.1986 7.77324C14.1986 8.04216 14.2658 8.29987 14.4003 8.54638C14.5571 8.79289 14.7476 9.00579 14.9717 9.18507C15.1958 9.34193 15.4423 9.46519 15.7113 9.55483C16.0026 9.62206 16.2827 9.62206 16.5516 9.55483C16.843 9.4876 17.0895 9.36434 17.2912 9.18507C17.5153 8.98338 17.6833 8.75928 17.7954 8.51277C17.9298 8.26626 17.9971 7.99734 17.9971 7.70601C18.0195 7.41468 17.9747 7.14576 17.8626 6.89925C17.6833 6.51828 17.4032 6.22695 17.0222 6.02526C16.6413 5.82357 16.2603 5.75634 15.8793 5.82357V5.82357ZM9.66056 7.60516C9.18995 7.67239 8.78658 7.9077 8.45043 8.31108C8.11428 8.71445 7.96861 9.14024 8.01343 9.58844C8.01343 9.87977 8.08066 10.1487 8.21512 10.3952C8.34958 10.6193 8.51765 10.8098 8.71934 10.9667C8.94344 11.1235 9.18995 11.2356 9.45887 11.3028C9.7502 11.37 10.0303 11.3812 10.2992 11.3364C10.7699 11.2244 11.1732 10.9555 11.5094 10.5297C11.8455 10.1039 11.9688 9.64447 11.8792 9.15145C11.8119 8.68084 11.5654 8.28867 11.1396 7.97493C10.7138 7.66119 10.2208 7.53793 9.66056 7.60516V7.60516ZM21.9636 7.63878C21.4482 7.6836 21.0336 7.93011 20.7199 8.37831C20.4061 8.8041 20.2717 9.24109 20.3165 9.68929C20.4061 10.0703 20.5742 10.4064 20.8207 10.6977C21.0897 10.9891 21.4146 11.1796 21.7956 11.2692C22.1093 11.3812 22.4118 11.3924 22.7032 11.3028C23.0169 11.2132 23.2858 11.0675 23.5099 10.8658C23.7564 10.6641 23.9357 10.4288 24.0478 10.1599C24.1822 9.86857 24.2158 9.56604 24.1486 9.2523C24.1486 9.00579 24.0814 8.78169 23.9469 8.58C23.8125 8.3559 23.6444 8.16541 23.4427 8.00854C23.241 7.85167 23.0057 7.73962 22.7368 7.67239C22.4903 7.60516 22.2326 7.59396 21.9636 7.63878V7.63878ZM14.9717 10.4624C14.7476 11.4709 14.5123 12.4681 14.2658 13.4542C14.0417 14.4402 13.8176 15.4262 13.5935 16.4123C13.235 15.74 12.8876 15.0341 12.5514 14.2945C12.2377 13.555 11.8904 12.8267 11.5094 12.1096C11.2853 12.1992 11.0612 12.2888 10.8371 12.3785C10.613 12.4681 10.3777 12.5354 10.1312 12.5802C10.176 13.2973 10.232 14.0144 10.2992 14.7315C10.3889 15.4487 10.4673 16.1658 10.5346 16.8829C10.2208 16.6588 9.89587 16.4571 9.55972 16.2778C9.24598 16.0985 8.93224 15.9081 8.6185 15.7064C8.43922 16.0201 8.23753 16.289 8.01343 16.5131C7.78933 16.7372 7.55403 16.9501 7.30752 17.1518C7.46439 17.5104 7.62126 17.8689 7.77813 18.2275C7.95741 18.5636 8.11428 18.8998 8.24874 19.2359C8.27115 19.4824 8.25994 19.7402 8.21512 20.0091C8.1703 20.278 8.12548 20.5133 8.08066 20.715H24.115C24.0926 20.4013 24.0366 20.0875 23.9469 19.7738C23.8573 19.46 23.9133 19.1351 24.115 18.7989C24.2495 18.5524 24.3839 18.2947 24.5184 18.0258C24.6752 17.7569 24.8209 17.4656 24.9554 17.1518C24.664 16.9501 24.4063 16.7484 24.1822 16.5467C23.9581 16.3226 23.7452 16.0649 23.5435 15.7736C23.2298 15.9529 22.9273 16.1322 22.6359 16.3114C22.3446 16.4683 22.0421 16.6588 21.7283 16.8829C21.7732 16.1658 21.8404 15.4487 21.93 14.7315C22.0421 14.0144 22.1205 13.2973 22.1653 12.5802C21.9188 12.5354 21.6611 12.4681 21.3922 12.3785C21.1233 12.2888 20.888 12.2104 20.6863 12.1432C20.3053 12.8603 19.9579 13.5886 19.6442 14.3282C19.3529 15.0453 19.0279 15.74 18.6694 16.4123C18.4229 15.4262 18.1764 14.4402 17.9298 13.4542C17.7057 12.4681 17.4704 11.4709 17.2239 10.4624C16.4844 10.7314 15.7337 10.7314 14.9717 10.4624V10.4624ZM5.694 12.5802C5.42508 12.6026 5.16736 12.681 4.92086 12.8155C4.67435 12.9275 4.46145 13.0844 4.28217 13.2861C4.1253 13.4654 4.00204 13.6783 3.9124 13.9248C3.84517 14.1713 3.83397 14.429 3.87879 14.6979C3.87879 14.9444 3.93482 15.1685 4.04687 15.3702C4.18133 15.5719 4.33819 15.7512 4.51747 15.9081C4.71916 16.0649 4.93206 16.1882 5.15616 16.2778C5.40267 16.3451 5.64918 16.3675 5.89569 16.3451C6.43353 16.3451 6.88173 16.1322 7.24029 15.7064C7.59884 15.2806 7.73331 14.8212 7.64367 14.3282C7.64367 13.8127 7.44198 13.3869 7.0386 13.0508C6.65763 12.7146 6.20943 12.5578 5.694 12.5802V12.5802ZM26.3672 12.5802C25.8518 12.5802 25.426 12.7707 25.0898 13.1516C24.7537 13.5326 24.5856 13.9584 24.5856 14.429C24.5408 14.6979 24.5632 14.9556 24.6528 15.2021C24.7649 15.4262 24.9105 15.6279 25.0898 15.8072C25.2691 15.9865 25.482 16.1322 25.7285 16.2442C25.9974 16.3338 26.2776 16.3675 26.5689 16.3451C26.8602 16.3451 27.1291 16.2778 27.3756 16.1434C27.6446 16.0089 27.8575 15.8296 28.0143 15.6055C28.1712 15.3814 28.272 15.1349 28.3169 14.866C28.3841 14.5747 28.3841 14.2945 28.3169 14.0256C28.2048 13.5774 27.9583 13.2301 27.5773 12.9836C27.1964 12.7146 26.793 12.5802 26.3672 12.5802V12.5802ZM7.64367 21.8243C7.46439 22.2725 7.16185 22.6983 6.73606 23.1017C6.55678 23.2809 6.35509 23.449 6.13099 23.6059C5.90689 23.7403 5.7052 23.8972 5.52592 24.0765C5.32423 24.2558 5.17857 24.4799 5.08893 24.7488C4.99929 24.9953 4.92085 25.2418 4.85362 25.4883C6.42232 25.4883 7.97981 25.4883 9.5261 25.4883C11.0948 25.4883 12.6859 25.4771 14.2994 25.4547C14.6356 25.141 14.9605 24.816 15.2743 24.4799C15.6104 24.1213 15.9914 23.7964 16.4172 23.505C16.7757 23.8188 17.1119 24.1549 17.4256 24.5135C17.7618 24.872 18.1091 25.1858 18.4677 25.4547C19.9916 25.4995 21.4818 25.5107 22.9385 25.4883C24.3951 25.4659 25.8742 25.4547 27.3756 25.4547C27.286 25.2754 27.2188 25.0961 27.174 24.9169C27.1516 24.7376 27.0955 24.5583 27.0059 24.379C26.8266 24.1325 26.5801 23.9196 26.2664 23.7403C25.975 23.5611 25.7061 23.3594 25.4596 23.1353C25.3027 22.956 25.1459 22.7543 24.989 22.5302C24.8545 22.2837 24.7313 22.0484 24.6192 21.8243C21.7956 21.8243 18.9719 21.8243 16.1483 21.8243C13.3246 21.8019 10.4897 21.8019 7.64367 21.8243V21.8243ZM14.1314 26.5304C14.4899 26.8441 14.8485 27.1803 15.207 27.5388C15.588 27.875 15.9802 28.2111 16.3836 28.5473C16.7645 28.1887 17.1343 27.8302 17.4928 27.4716C17.8514 27.0906 18.1988 26.7097 18.5349 26.3287C18.1764 26.0374 17.8178 25.7124 17.4592 25.3539C17.1231 24.9953 16.7645 24.6255 16.3836 24.2446C16.0026 24.6479 15.6104 25.0401 15.207 25.4211C14.8037 25.7797 14.4451 26.1494 14.1314 26.5304ZM4.92086 26.4968V28.5137C6.66883 28.5137 8.41681 28.5249 10.1648 28.5473C11.9128 28.5473 13.6607 28.5361 15.4087 28.5137C15.0278 28.1551 14.658 27.8078 14.2994 27.4716C13.9409 27.1355 13.6047 26.8105 13.291 26.4968C11.8791 26.4744 10.4673 26.4744 9.05549 26.4968C7.66608 26.4968 6.28786 26.4968 4.92086 26.4968ZM19.3753 26.5304C18.9943 26.8217 18.6358 27.1467 18.2996 27.5052C17.9635 27.8414 17.6273 28.1775 17.2912 28.5137C18.9719 28.5361 20.6415 28.5473 22.2998 28.5473C23.9805 28.5249 25.6389 28.5137 27.2748 28.5137V26.4968C25.9974 26.5192 24.6977 26.508 23.3755 26.4632C22.0533 26.3959 20.7199 26.4183 19.3753 26.5304Z" fill="black"/>
<path d="M15.8794 5.82355C15.364 5.89078 14.927 6.12609 14.5684 6.52947C14.2323 6.91044 14.109 7.32502 14.1986 7.77322C14.1986 8.04214 14.2659 8.29985 14.4003 8.54636C14.5572 8.79287 14.7477 9.00577 14.9718 9.18505C15.1959 9.34192 15.4424 9.46517 15.7113 9.55481C16.0026 9.62204 16.2828 9.62204 16.5517 9.55481C16.843 9.48758 17.0895 9.36433 17.2912 9.18505C17.5153 8.98336 17.6834 8.75926 17.7954 8.51275C17.9299 8.26624 17.9971 7.99732 17.9971 7.70599C18.0195 7.41466 17.9747 7.14574 17.8627 6.89923C17.6834 6.51826 17.4033 6.22693 17.0223 6.02524C16.6413 5.82355 16.2604 5.75632 15.8794 5.82355ZM9.66062 7.60515C9.19001 7.67238 8.78664 7.90768 8.45049 8.31106C8.11434 8.71444 7.96867 9.14023 8.01349 9.58843C8.01349 9.87976 8.08072 10.1487 8.21518 10.3952C8.34964 10.6193 8.51771 10.8098 8.7194 10.9666C8.9435 11.1235 9.19001 11.2356 9.45893 11.3028C9.75026 11.37 10.0304 11.3812 10.2993 11.3364C10.7699 11.2244 11.1733 10.9554 11.5094 10.5296C11.8456 10.1039 11.9688 9.64446 11.8792 9.15144C11.812 8.68083 11.5655 8.28865 11.1397 7.97491C10.7139 7.66117 10.2209 7.53792 9.66062 7.60515ZM21.9637 7.63876C21.4483 7.68358 21.0337 7.93009 20.7199 8.37829C20.4062 8.80408 20.2717 9.24107 20.3166 9.68927C20.4062 10.0702 20.5743 10.4064 20.8208 10.6977C21.0897 10.989 21.4147 11.1795 21.7956 11.2692C22.1094 11.3812 22.4119 11.3924 22.7032 11.3028C23.017 11.2132 23.2859 11.0675 23.51 10.8658C23.7565 10.6641 23.9358 10.4288 24.0478 10.1599C24.1823 9.86855 24.2159 9.56602 24.1487 9.25228C24.1487 9.00577 24.0814 8.78167 23.947 8.57998C23.8125 8.35588 23.6444 8.16539 23.4428 8.00853C23.2411 7.85166 23.0058 7.7396 22.7368 7.67237C22.4903 7.60514 22.2326 7.59394 21.9637 7.63876ZM14.9718 10.4624C14.7477 11.4709 14.5124 12.4681 14.2659 13.4541C14.0418 14.4402 13.8177 15.4262 13.5936 16.4123C13.235 15.74 12.8877 15.0341 12.5515 14.2945C12.2378 13.555 11.8904 12.8267 11.5094 12.1096C11.2853 12.1992 11.0612 12.2888 10.8371 12.3785C10.613 12.4681 10.3777 12.5353 10.1312 12.5802C10.1761 13.2973 10.2321 14.0144 10.2993 14.7315C10.3889 15.4486 10.4674 16.1658 10.5346 16.8829C10.2209 16.6588 9.89593 16.4571 9.55978 16.2778C9.24604 16.0985 8.9323 15.908 8.61856 15.7063C8.43928 16.0201 8.23759 16.289 8.01349 16.5131C7.78939 16.7372 7.55409 16.9501 7.30758 17.1518C7.46445 17.5104 7.62132 17.8689 7.77819 18.2275C7.95747 18.5636 8.11434 18.8998 8.2488 19.2359C8.27121 19.4824 8.26 19.7401 8.21518 20.0091C8.17036 20.278 8.12554 20.5133 8.08072 20.715H24.1151C24.0926 20.4012 24.0366 20.0875 23.947 19.7738C23.8573 19.46 23.9134 19.1351 24.1151 18.7989C24.2495 18.5524 24.384 18.2947 24.5184 18.0258C24.6753 17.7569 24.821 17.4655 24.9554 17.1518C24.6641 16.9501 24.4064 16.7484 24.1823 16.5467C23.9582 16.3226 23.7453 16.0649 23.5436 15.7736C23.2299 15.9529 22.9273 16.1321 22.636 16.3114C22.3447 16.4683 22.0421 16.6588 21.7284 16.8829C21.7732 16.1658 21.8404 15.4486 21.9301 14.7315C22.0421 14.0144 22.1206 13.2973 22.1654 12.5802C21.9189 12.5353 21.6612 12.4681 21.3922 12.3785C21.1233 12.2888 20.888 12.2104 20.6863 12.1432C20.3054 12.8603 19.958 13.5886 19.6443 14.3281C19.3529 15.0453 19.028 15.74 18.6694 16.4123C18.4229 15.4262 18.1764 14.4402 17.9299 13.4541C17.7058 12.4681 17.4705 11.4709 17.224 10.4624C16.4845 10.7313 15.7337 10.7313 14.9718 10.4624ZM5.69406 12.5802C5.42514 12.6026 5.16742 12.681 4.92092 12.8155C4.67441 12.9275 4.46151 13.0844 4.28223 13.2861C4.12536 13.4654 4.0021 13.6782 3.91246 13.9248C3.84523 14.1713 3.83403 14.429 3.87885 14.6979C3.87885 14.9444 3.93488 15.1685 4.04693 15.3702C4.18139 15.5719 4.33825 15.7512 4.51753 15.908C4.71922 16.0649 4.93212 16.1882 5.15622 16.2778C5.40273 16.345 5.64924 16.3674 5.89575 16.345C6.43359 16.345 6.88179 16.1321 7.24034 15.7063C7.5989 15.2806 7.73337 14.8212 7.64373 14.3281C7.64373 13.8127 7.44204 13.3869 7.03866 13.0508C6.65769 12.7146 6.20949 12.5577 5.69406 12.5802ZM26.3673 12.5802C25.8518 12.5802 25.426 12.7706 25.0899 13.1516C24.7537 13.5326 24.5857 13.9584 24.5857 14.429C24.5408 14.6979 24.5633 14.9556 24.6529 15.2021C24.7649 15.4262 24.9106 15.6279 25.0899 15.8072C25.2692 15.9865 25.4821 16.1321 25.7286 16.2442C25.9975 16.3338 26.2776 16.3674 26.5689 16.345C26.8603 16.345 27.1292 16.2778 27.3757 16.1433C27.6446 16.0089 27.8575 15.8296 28.0144 15.6055C28.1713 15.3814 28.2721 15.1349 28.3169 14.866C28.3842 14.5746 28.3842 14.2945 28.3169 14.0256C28.2049 13.5774 27.9584 13.23 27.5774 12.9835C27.1964 12.7146 26.7931 12.5802 26.3673 12.5802ZM7.64373 21.8243C7.46445 22.2725 7.16191 22.6983 6.73612 23.1016C6.55684 23.2809 6.35515 23.449 6.13105 23.6059C5.90695 23.7403 5.70526 23.8972 5.52598 24.0765C5.32429 24.2558 5.17863 24.4799 5.08899 24.7488C4.99935 24.9953 4.92091 25.2418 4.85368 25.4883C6.42238 25.4883 7.97987 25.4883 9.52616 25.4883C11.0949 25.4883 12.686 25.4771 14.2995 25.4547C14.6356 25.141 14.9606 24.816 15.2743 24.4799C15.6105 24.1213 15.9914 23.7964 16.4172 23.505C16.7758 23.8188 17.1119 24.1549 17.4257 24.5135C17.7618 24.872 18.1092 25.1858 18.4677 25.4547C19.9916 25.4995 21.4819 25.5107 22.9385 25.4883C24.3952 25.4659 25.8742 25.4547 27.3757 25.4547C27.2861 25.2754 27.2188 25.0961 27.174 24.9168C27.1516 24.7376 27.0956 24.5583 27.0059 24.379C26.8267 24.1325 26.5802 23.9196 26.2664 23.7403C25.9751 23.561 25.7062 23.3594 25.4597 23.1353C25.3028 22.956 25.1459 22.7543 24.989 22.5302C24.8546 22.2837 24.7313 22.0484 24.6193 21.8243C21.7956 21.8243 18.972 21.8243 16.1483 21.8243C13.3247 21.8019 10.4898 21.8019 7.64373 21.8243ZM14.1314 26.5304C14.49 26.8441 14.8485 27.1803 15.2071 27.5388C15.5881 27.875 15.9802 28.2111 16.3836 28.5473C16.7646 28.1887 17.1343 27.8301 17.4929 27.4716C17.8515 27.0906 18.1988 26.7097 18.535 26.3287C18.1764 26.0374 17.8179 25.7124 17.4593 25.3538C17.1231 24.9953 16.7646 24.6255 16.3836 24.2446C16.0026 24.6479 15.6105 25.0401 15.2071 25.4211C14.8037 25.7796 14.4452 26.1494 14.1314 26.5304ZM4.92092 26.4968V28.5137C6.66889 28.5137 8.41687 28.5249 10.1648 28.5473C11.9128 28.5473 13.6608 28.5361 15.4088 28.5137C15.0278 28.1551 14.658 27.8077 14.2995 27.4716C13.9409 27.1354 13.6048 26.8105 13.291 26.4968C11.8792 26.4743 10.4674 26.4743 9.05555 26.4968C7.66614 26.4968 6.28792 26.4968 4.92092 26.4968ZM19.3753 26.5304C18.9944 26.8217 18.6358 27.1466 18.2997 27.5052C17.9635 27.8414 17.6274 28.1775 17.2912 28.5137C18.972 28.5361 20.6415 28.5473 22.2999 28.5473C23.9806 28.5249 25.6389 28.5137 27.2749 28.5137V26.4968C25.9975 26.5192 24.6977 26.508 23.3755 26.4631C22.0533 26.3959 20.7199 26.4183 19.3753 26.5304Z" fill="white"/>
</svg>
