<svg width="32" height="32" viewBox="0 0 32 32" fill="none" xmlns="http://www.w3.org/2000/svg">
<path d="M25.564 18.4375C25.5192 18.5944 25.4744 18.7625 25.4295 18.9418C25.4071 19.121 25.3287 19.2891 25.1942 19.446C25.127 19.5356 25.0486 19.6365 24.9589 19.7485C24.8693 19.8606 24.8469 19.9838 24.8917 20.1183C24.9365 20.5665 25.0598 20.9923 25.2615 21.3957C25.4856 21.7766 25.7433 22.1464 26.0346 22.505C26.2811 22.8187 26.5837 23.0764 26.9422 23.2781C27.3232 23.4798 27.6705 23.7263 27.9843 24.0176C28.1636 24.2641 28.2756 24.5106 28.3204 24.7572C28.3877 25.0037 28.4437 25.2502 28.4885 25.4967C28.5333 26.1914 28.5557 26.8637 28.5557 27.5136C28.5557 28.1635 28.5333 28.8246 28.4885 29.4969H4.08404C4.10645 28.7797 4.09524 28.0626 4.05042 27.3455C4.02801 26.6284 4.05042 25.9113 4.11765 25.1941C4.14006 24.858 4.25211 24.5443 4.4538 24.2529C4.65549 23.9616 4.9132 23.7263 5.22694 23.547C5.60791 23.3229 5.93286 23.0876 6.20178 22.8411C6.49311 22.5946 6.72841 22.292 6.90769 21.9335C7.10938 21.5749 7.27746 21.2276 7.41192 20.8914C7.56879 20.5553 7.65842 20.2191 7.68083 19.883C7.56878 19.6813 7.41192 19.5356 7.21023 19.446C7.03095 19.3339 6.9189 19.1771 6.87408 18.9754C6.78444 18.4599 6.72841 17.9557 6.706 17.4627C6.68359 16.9697 6.59396 16.4879 6.43709 16.0173C6.2354 15.7932 5.96648 15.6139 5.63033 15.4794C5.31659 15.345 5.10369 15.1321 4.99164 14.8407C4.56585 13.8323 4.28573 12.8126 4.15127 11.7818C4.01681 10.7509 3.97199 9.70886 4.01681 8.65559C4.01681 8.54354 4.02801 8.43149 4.05042 8.31944C4.07283 8.18498 4.14006 8.09534 4.25211 8.05052C4.70031 7.7816 5.15972 7.5687 5.63033 7.41183C6.10094 7.25496 6.58275 7.0981 7.07577 6.94123C7.18782 7.3446 7.29987 7.72557 7.41192 8.08413C7.52397 8.44269 7.65843 8.81245 7.8153 9.19342C8.33073 9.17101 8.83495 9.1486 9.32797 9.12619C9.8434 9.10378 10.3588 9.07017 10.8743 9.02535C10.8294 8.55474 10.7734 8.08413 10.7062 7.61352C10.639 7.14291 10.5829 6.67231 10.5381 6.2017C11.7034 6.11206 12.9024 6.04482 14.1349 6C14.1797 6.49302 14.2021 6.98604 14.2021 7.47906C14.2246 7.97208 14.2582 8.4763 14.303 8.99173H18.0679C18.1127 8.4763 18.1351 7.97208 18.1351 7.47906C18.1351 6.98604 18.1575 6.49302 18.2023 6C18.8298 6.04482 19.4573 6.07844 20.0848 6.10085C20.7346 6.12326 21.3621 6.15688 21.9672 6.2017C21.9224 6.67231 21.8663 7.14291 21.7991 7.61352C21.7319 8.08413 21.6759 8.55474 21.631 9.02535C22.1689 9.07017 22.6955 9.10378 23.211 9.12619C23.7264 9.1486 24.253 9.15981 24.7909 9.15981C24.9029 8.80125 25.0262 8.44269 25.1606 8.08413C25.2951 7.72557 25.4183 7.3558 25.5304 6.97483C26.0234 7.08688 26.494 7.23255 26.9422 7.41183C27.4128 7.5687 27.861 7.7928 28.2868 8.08413C28.4661 8.15136 28.5781 8.31943 28.623 8.58835C28.735 9.17101 28.7686 9.75367 28.7238 10.3363C28.679 10.8966 28.623 11.4792 28.5557 12.0843C28.3989 12.6221 28.2308 13.1712 28.0515 13.7314C27.8722 14.2693 27.6033 14.7735 27.2447 15.2441C27.0655 15.4234 26.8638 15.5691 26.6397 15.6811C26.4156 15.7708 26.2139 15.8828 26.0346 16.0173C25.9226 16.4206 25.8329 16.824 25.7657 17.2274C25.6985 17.6308 25.6312 18.0342 25.564 18.4375V18.4375ZM13.429 26.6396C13.3842 26.5724 13.3394 26.5163 13.2945 26.4715C13.2721 26.4267 13.2385 26.3819 13.1937 26.3371C13.2609 26.2698 13.3394 26.1914 13.429 26.1018C13.5186 26.0121 13.6083 25.9337 13.6979 25.8664H5.29417C5.29417 26.0233 5.28297 26.169 5.26056 26.3034C5.26056 26.4155 5.27176 26.5275 5.29417 26.6396C6.66118 26.6396 8.00578 26.6508 9.32797 26.6732C10.6726 26.6732 12.0396 26.662 13.429 26.6396V26.6396ZM8.25229 19.2779C8.29711 19.3676 8.36434 19.446 8.45398 19.5132C8.54362 19.558 8.61085 19.6365 8.65567 19.7485C11.1208 19.7485 13.5859 19.7597 16.051 19.7821C18.5161 19.7821 21.0036 19.7709 23.5135 19.7485C23.6928 19.8158 23.8496 19.7821 23.9841 19.6477C24.1186 19.5132 24.2418 19.39 24.3539 19.2779C21.6647 19.2331 18.9755 19.2219 16.2863 19.2443C13.6195 19.2667 10.9415 19.2779 8.25229 19.2779V19.2779ZM16.3535 28.3876C16.7121 28.0738 17.0818 27.7489 17.4628 27.4127C17.8438 27.0542 18.2359 26.7068 18.6393 26.3707C18.2359 25.9897 17.8438 25.6423 17.4628 25.3286C17.0818 24.9925 16.7121 24.6675 16.3535 24.3538C15.5692 24.9588 14.796 25.6311 14.0341 26.3707C14.415 26.7068 14.796 27.0542 15.177 27.4127C15.5804 27.7489 15.9725 28.0738 16.3535 28.3876ZM19.0427 25.8664C19.1323 25.9337 19.2108 26.0121 19.278 26.1018C19.3676 26.1914 19.4461 26.2698 19.5133 26.3371C19.4685 26.3819 19.4349 26.4267 19.4125 26.4715C19.3901 26.5163 19.3676 26.5724 19.3452 26.6396C20.645 26.662 21.9448 26.6732 23.2446 26.6732C24.5443 26.6508 25.8665 26.6396 27.2111 26.6396V25.8664H19.0427ZM23.9505 15.95C24.3314 15.9949 24.6788 15.9388 24.9925 15.782C25.3287 15.6251 25.6536 15.457 25.9674 15.2777H6.36986C6.66118 15.4346 6.96372 15.5915 7.27746 15.7483C7.5912 15.9052 7.91614 15.9724 8.25229 15.95H23.9505Z" fill="black"/>
<path d="M13.4289 26.6396C13.3841 26.5724 13.3393 26.5163 13.2945 26.4715C13.2721 26.4267 13.2384 26.3819 13.1936 26.3371C13.2609 26.2698 13.3393 26.1914 13.4289 26.1018C13.5186 26.0121 13.6082 25.9337 13.6979 25.8665H5.29411C5.29411 26.0233 5.28291 26.169 5.2605 26.3035C5.2605 26.4155 5.2717 26.5275 5.29411 26.6396C6.66112 26.6396 8.00571 26.6508 9.3279 26.6732C10.6725 26.6732 12.0395 26.662 13.4289 26.6396ZM8.25223 19.2779C8.29705 19.3676 8.36428 19.446 8.45392 19.5132C8.54356 19.558 8.61079 19.6365 8.65561 19.7485C11.1207 19.7485 13.5858 19.7597 16.0509 19.7821C18.516 19.7821 21.0035 19.7709 23.5134 19.7485C23.6927 19.8158 23.8496 19.7821 23.984 19.6477C24.1185 19.5132 24.2417 19.39 24.3538 19.2779C21.6646 19.2331 18.9754 19.2219 16.2862 19.2443C13.6194 19.2667 10.9414 19.2779 8.25223 19.2779ZM16.3534 28.3876C16.712 28.0738 17.0818 27.7489 17.4627 27.4127C17.8437 27.0542 18.2359 26.7068 18.6393 26.3707C18.2359 25.9897 17.8437 25.6424 17.4627 25.3286C17.0818 24.9925 16.712 24.6675 16.3534 24.3538C15.5691 24.9589 14.7959 25.6311 14.034 26.3707C14.415 26.7068 14.7959 27.0542 15.1769 27.4127C15.5803 27.7489 15.9725 28.0738 16.3534 28.3876ZM19.0426 25.8665C19.1323 25.9337 19.2107 26.0121 19.2779 26.1018C19.3676 26.1914 19.446 26.2698 19.5132 26.3371C19.4684 26.3819 19.4348 26.4267 19.4124 26.4715C19.39 26.5163 19.3676 26.5724 19.3452 26.6396C20.6449 26.662 21.9447 26.6732 23.2445 26.6732C24.5443 26.6508 25.8665 26.6396 27.2111 26.6396V25.8665H19.0426ZM23.9504 15.95C24.3314 15.9949 24.6787 15.9388 24.9925 15.782C25.3286 15.6251 25.6536 15.457 25.9673 15.2777H6.36979C6.66112 15.4346 6.96365 15.5915 7.27739 15.7483C7.59113 15.9052 7.91608 15.9725 8.25223 15.95H23.9504Z" fill="#EEEEEE"/>
</svg>
