<svg width="32" height="32" viewBox="0 0 32 32" fill="none" xmlns="http://www.w3.org/2000/svg">
<path d="M14.218 19.7401C12.8266 19.7401 12.1309 19.9575 12.1309 20.3923C12.1309 20.7837 12.7397 21.0119 13.9571 21.0772C13.9137 21.0772 14.6637 21.0772 16.2073 21.0772C18.9248 21.0772 20.2836 20.8489 20.2836 20.3923C20.2836 19.9575 19.5879 19.7401 18.1965 19.7401H14.218ZM14.218 17.1965C13.5223 17.1965 13.0006 17.24 12.6527 17.3269C12.3049 17.3922 12.1309 17.5661 12.1309 17.8487C12.1309 18.1748 12.4136 18.3596 12.9788 18.4031C13.6963 18.4683 14.7724 18.5009 16.2073 18.5009C17.6421 18.5009 18.7292 18.4683 19.4683 18.4031C20.0118 18.3596 20.2836 18.1748 20.2836 17.8487C20.2836 17.4139 19.5879 17.1965 18.1965 17.1965H14.218ZM21.7837 18.9575C21.7837 19.1749 21.9141 19.6749 22.175 20.4576C22.262 20.6967 22.3489 21.0011 22.4359 21.3707C22.5446 21.7185 22.5989 21.9576 22.5989 22.0881C22.5989 23.0229 21.6315 23.5882 19.6966 23.7838C20.5879 24.1099 21.2836 24.3165 21.7837 24.4034C22.4576 24.5121 23.0881 24.5665 23.6751 24.5665C23.9142 24.5665 24.3708 24.5556 25.0447 24.5339C25.7404 24.4904 26.0774 24.4687 26.0556 24.4687C26.86 24.4687 27.5449 24.7187 28.1101 25.2187C28.5232 25.5883 28.958 26.2079 29.4145 27.0775C29.0015 27.6862 28.5993 28.3058 28.2079 28.9363C27.7514 29.632 27.2079 30.1103 26.5774 30.3712C26.4687 29.9146 25.9469 29.5994 25.0121 29.4255C24.7947 29.382 24.1208 29.3168 22.9903 29.2298C19.5988 28.9254 17.3378 28.208 16.2073 27.0775C15.142 28.1645 13.5223 28.8059 11.3483 29.0015C10.9135 29.045 10.2722 29.1211 9.42428 29.2298C8.38075 29.3168 7.71767 29.382 7.43504 29.4255C6.45672 29.6211 5.92408 29.9364 5.83712 30.3712C5.14143 30.0668 4.47834 29.382 3.84787 28.3167C3.56525 27.8384 3.28262 27.4253 3 27.0775C3.45655 26.1861 3.89136 25.5665 4.30443 25.2187C4.84794 24.7187 5.53276 24.4687 6.35889 24.4687C6.33715 24.4687 6.66326 24.4904 7.33721 24.5339C8.0329 24.5556 8.50032 24.5665 8.73946 24.5665C10.0221 24.5665 11.3374 24.3056 12.6853 23.7838C10.7722 23.5882 9.8156 23.0229 9.8156 22.0881C9.8156 21.7837 9.95692 21.2946 10.2395 20.6206C10.5222 19.9249 10.6635 19.4249 10.6635 19.1205C9.01121 17.0769 8.18508 15.2942 8.18508 13.7724C8.18508 11.9897 9.06556 10.3592 10.8265 8.88082C12.3701 7.5764 13.5115 6.86984 14.2506 6.76114C13.6636 6.06545 13.3702 5.30453 13.3702 4.4784C13.3702 3.67401 13.631 3.06528 14.1528 2.65221C14.6963 2.2174 15.3811 2 16.2073 2C17.0117 2 17.6856 2.2174 18.2291 2.65221C18.7726 3.08702 19.0444 3.69575 19.0444 4.4784C19.0444 5.28279 18.7509 6.04371 18.1639 6.76114C18.6639 6.89158 19.4357 7.31552 20.4792 8.03295C21.7837 8.94604 22.7729 9.96784 23.4468 11.0983C23.9686 11.9462 24.2295 12.8376 24.2295 13.7724C24.2295 15.3594 23.4142 17.0878 21.7837 18.9575ZM16.9573 15.1747V13.2832H18.3596V11.7505H16.9573V9.98958H15.4572V11.7505H14.055V13.2832H15.4572V15.1747H16.9573ZM16.2073 3.66314C15.9246 3.66314 15.6746 3.76097 15.4572 3.95663C15.2398 4.1523 15.1311 4.38057 15.1311 4.64145C15.1311 4.92408 15.2398 5.16322 15.4572 5.35888C15.6746 5.55455 15.9246 5.65238 16.2073 5.65238C16.8812 5.65238 17.2182 5.3154 17.2182 4.64145C17.2182 3.98924 16.8812 3.66314 16.2073 3.66314Z" fill="#111111"/>
<path d="M14.2181 19.7401C12.8267 19.7401 12.131 19.9575 12.131 20.3924C12.131 20.7837 12.7397 21.0119 13.9572 21.0772C13.9137 21.0772 14.6637 21.0772 16.2073 21.0772C18.9248 21.0772 20.2836 20.8489 20.2836 20.3924C20.2836 19.9575 19.5879 19.7401 18.1965 19.7401H14.2181ZM14.2181 17.1965C13.5224 17.1965 13.0006 17.24 12.6528 17.327C12.3049 17.3922 12.131 17.5661 12.131 17.8487C12.131 18.1748 12.4136 18.3596 12.9789 18.4031C13.6963 18.4683 14.7724 18.5009 16.2073 18.5009C17.6422 18.5009 18.7292 18.4683 19.4684 18.4031C20.0119 18.3596 20.2836 18.1748 20.2836 17.8487C20.2836 17.4139 19.5879 17.1965 18.1965 17.1965H14.2181ZM16.9573 15.1747V13.2833H18.3596V11.7506H16.9573V9.98959H15.4573V11.7506H14.055V13.2833H15.4573V15.1747H16.9573ZM16.2073 3.66315C15.9247 3.66315 15.6747 3.76098 15.4573 3.95664C15.2399 4.15231 15.1312 4.38058 15.1312 4.64146C15.1312 4.92409 15.2399 5.16323 15.4573 5.35889C15.6747 5.55456 15.9247 5.65239 16.2073 5.65239C16.8813 5.65239 17.2182 5.31541 17.2182 4.64146C17.2182 3.98925 16.8813 3.66315 16.2073 3.66315Z" fill="#F7F7F7"/>
</svg>
