<svg width="32" height="32" viewBox="0 0 32 32" fill="none" xmlns="http://www.w3.org/2000/svg">
<path d="M16.944 19.1931C16.944 19.6895 16.583 19.9377 15.861 19.9377C15.0713 19.9377 14.6764 19.6895 14.6764 19.1931C14.6764 16.8014 13.898 14.8949 12.3412 13.4734C11.0099 12.2324 9.6787 11.6119 8.34747 11.6119C7.19675 11.6119 6.28294 11.9165 5.60605 12.5257C4.92915 13.1349 4.5907 14.0036 4.5907 15.1318C4.5907 15.9215 5.08709 17.0384 6.07987 18.4824C6.84702 19.6106 7.55776 20.4454 8.21209 20.9869C8.64079 21.3479 9.38538 21.5284 10.4458 21.5284C11.5514 21.5284 13.3339 21.3254 15.7933 20.9192C18.2753 21.3254 20.069 21.5284 21.1746 21.5284C22.2577 21.5284 23.0023 21.3479 23.4084 20.9869C24.1755 20.31 24.9314 19.4188 25.676 18.3132C26.5785 16.9819 27.0298 15.9215 27.0298 15.1318C27.0298 14.0036 26.6913 13.1349 26.0144 12.5257C25.3375 11.9165 24.4237 11.6119 23.273 11.6119C21.9869 11.6119 20.6557 12.2437 19.2793 13.5072C17.7225 14.9061 16.944 16.8014 16.944 19.1931ZM26.116 15.0979C26.116 15.9553 25.6196 16.982 24.6268 18.1778C23.7243 19.2383 22.9346 19.9377 22.2577 20.2762C21.6936 20.3664 21.1295 20.4116 20.5654 20.4116C18.8055 20.4116 17.9368 20.0618 17.9594 19.3624C17.9819 17.1963 18.625 15.4928 19.8885 14.2518C20.9264 13.1913 22.032 12.6611 23.2053 12.6611C24.0176 12.6611 24.6832 12.8642 25.2022 13.2703C25.8114 13.699 26.116 14.3082 26.116 15.0979ZM22.0884 25.8606C22.0884 25.4319 21.31 25.1273 19.7532 24.9468C18.3317 24.8114 17.0343 24.7437 15.861 24.7437C14.7328 24.7437 13.7401 24.7888 12.8827 24.8791L11.8673 24.9806C10.333 25.1837 9.56588 25.4657 9.56588 25.8267C9.56588 26.2329 9.94946 26.4359 10.7166 26.4359C11.0325 26.4359 11.653 26.3908 12.5781 26.3005C14.2477 26.12 15.3308 26.0298 15.8272 26.0298C16.3912 26.0298 17.2374 26.0975 18.3655 26.2329C19.4937 26.3682 20.3398 26.4359 20.9039 26.4359C21.6936 26.4359 22.0884 26.2441 22.0884 25.8606ZM24.4576 26.8759C24.4125 28.7938 21.5356 29.7527 15.8272 29.7527C10.1638 29.7527 7.29828 28.8051 7.23059 26.9097C7.18547 24.9919 6.91471 23.3786 6.41832 22.0699C6.125 21.3028 5.53836 20.3213 4.65839 19.1255C3.5528 17.6588 3 16.3389 3 15.1656C3 13.7441 3.51895 12.5483 4.55686 11.5781C5.59476 10.6079 6.82446 10.1227 8.24594 10.1227C9.71254 10.1227 11.1115 10.6643 12.4427 11.7473C12.4427 11.093 12.4765 10.4612 12.5442 9.85199C12.5668 9.64892 12.657 9.38944 12.815 9.07356C13.0406 8.48691 13.6949 7.83258 14.778 7.11056V6.12906L13.0519 5.07987V3.55686H14.6088L15.1164 2H16.5379L17.1133 3.55686H18.6363V5.07987L16.9102 6.12906V7.11056C17.9932 7.90027 18.6476 8.5546 18.8732 9.07356C19.0086 9.36688 19.1101 9.77302 19.1778 10.292C19.2004 10.6304 19.2342 11.1155 19.2793 11.7473C20.588 10.6643 21.9643 10.1227 23.4084 10.1227C24.8073 10.1227 26.037 10.5966 27.0975 11.5442C28.1579 12.4919 28.6882 13.699 28.6882 15.1656C28.6882 16.3389 28.1354 17.6701 27.0298 19.1593C26.7365 19.5654 26.4093 20.028 26.0483 20.5469C25.3939 21.5623 24.9427 22.7581 24.6945 24.1345C24.5591 24.8339 24.4801 25.7477 24.4576 26.8759ZM5.53836 15.0979C5.53836 14.3308 5.8204 13.7329 6.38447 13.3042C6.94855 12.8755 7.61417 12.6611 8.38132 12.6611C9.57716 12.6611 10.7053 13.2026 11.7658 14.2857C12.9842 15.5041 13.616 17.1963 13.6611 19.3624C13.6837 19.7234 13.4468 19.9941 12.9504 20.1746C12.4765 20.3326 11.856 20.4116 11.0889 20.4116C10.5023 20.4116 9.92689 20.3664 9.36282 20.2762C8.61823 19.9152 7.81724 19.2044 6.95984 18.144C6.01218 16.9481 5.53836 15.9328 5.53836 15.0979Z" fill="#111111"/>
<path d="M16.944 19.1931C16.944 19.6895 16.583 19.9377 15.861 19.9377C15.0713 19.9377 14.6764 19.6895 14.6764 19.1931C14.6764 16.8014 13.898 14.8949 12.3411 13.4734C11.0099 12.2324 9.67869 11.6119 8.34747 11.6119C7.19674 11.6119 6.28294 11.9165 5.60604 12.5257C4.92914 13.1349 4.5907 14.0036 4.5907 15.1318C4.5907 15.9215 5.08709 17.0384 6.07987 18.4824C6.84702 19.6106 7.55776 20.4454 8.21209 20.9869C8.64079 21.3479 9.38537 21.5284 10.4458 21.5284C11.5514 21.5284 13.3339 21.3254 15.7933 20.9192C18.2753 21.3254 20.069 21.5284 21.1746 21.5284C22.2577 21.5284 23.0023 21.3479 23.4084 20.9869C24.1755 20.31 24.9314 19.4188 25.676 18.3132C26.5785 16.9819 27.0298 15.9215 27.0298 15.1318C27.0298 14.0036 26.6913 13.1349 26.0144 12.5257C25.3375 11.9165 24.4237 11.6119 23.273 11.6119C21.9869 11.6119 20.6557 12.2437 19.2793 13.5072C17.7225 14.9061 16.944 16.8014 16.944 19.1931ZM26.116 15.0979C26.116 15.9553 25.6196 16.9819 24.6268 18.1778C23.7243 19.2383 22.9346 19.9377 22.2577 20.2762C21.6936 20.3664 21.1295 20.4115 20.5654 20.4115C18.8055 20.4115 17.9368 20.0618 17.9594 19.3624C17.9819 17.1963 18.625 15.4928 19.8885 14.2518C20.9264 13.1913 22.032 12.6611 23.2053 12.6611C24.0176 12.6611 24.6832 12.8642 25.2022 13.2703C25.8114 13.699 26.116 14.3082 26.116 15.0979ZM22.0884 25.8606C22.0884 25.4319 21.31 25.1272 19.7532 24.9467C18.3317 24.8114 17.0343 24.7437 15.861 24.7437C14.7328 24.7437 13.7401 24.7888 12.8827 24.8791L11.8673 24.9806C10.333 25.1837 9.56588 25.4657 9.56588 25.8267C9.56588 26.2328 9.94945 26.4359 10.7166 26.4359C11.0325 26.4359 11.653 26.3908 12.5781 26.3005C14.2477 26.12 15.3308 26.0298 15.8272 26.0298C16.3912 26.0298 17.2374 26.0975 18.3655 26.2328C19.4937 26.3682 20.3398 26.4359 20.9039 26.4359C21.6936 26.4359 22.0884 26.2441 22.0884 25.8606ZM5.53835 15.0979C5.53835 14.3308 5.82039 13.7328 6.38447 13.3041C6.94855 12.8754 7.61416 12.6611 8.38131 12.6611C9.57716 12.6611 10.7053 13.2026 11.7658 14.2856C12.9842 15.5041 13.616 17.1963 13.6611 19.3624C13.6837 19.7234 13.4467 19.9941 12.9504 20.1746C12.4765 20.3326 11.856 20.4115 11.0889 20.4115C10.5022 20.4115 9.92689 20.3664 9.36281 20.2762C8.61823 19.9152 7.81723 19.2044 6.95983 18.1439C6.01218 16.9481 5.53835 15.9328 5.53835 15.0979Z" fill="#EEEEEE"/>
</svg>
