<svg width="32" height="32" viewBox="0 0 32 32" fill="none" xmlns="http://www.w3.org/2000/svg">
<path d="M7.06703 29C7.02234 28.5011 7 27.8435 7 27.0272C7 24.941 7.36871 23.161 8.10614 21.6871C8.88826 20.0771 10.3966 18.7052 12.6313 17.5714C11.8938 17.3447 11.3017 16.8458 10.8548 16.0748C10.4525 15.3719 10.2514 14.6009 10.2514 13.7619C10.2514 11.8571 11.2123 10.5079 13.1341 9.71429C12.6425 8.87528 12.3966 8.0703 12.3966 7.29932C12.3966 6.32426 12.7765 5.51927 13.5363 4.88435C14.2291 4.29479 15.0559 4 16.0168 4C16.9776 4 17.8156 4.31746 18.5307 4.95238C19.2458 5.56463 19.6034 6.34694 19.6034 7.29932C19.6034 8.0703 19.3576 8.87528 18.8659 9.71429C19.8939 10.1224 20.6313 10.6893 21.0782 11.415C21.5251 12.1406 21.7486 12.9229 21.7486 13.7619C21.7486 14.5782 21.5363 15.3605 21.1117 16.1088C20.6872 16.8571 20.1173 17.3447 19.4022 17.5714C21.6369 18.7279 23.1452 20.1111 23.9274 21.7211C24.6425 23.1497 25 24.9184 25 27.0272C25 27.8435 24.9777 28.5011 24.933 29H7.06703Z" fill="#111111"/>
</svg>
