<svg width="32" height="32" viewBox="0 0 32 32" fill="none" xmlns="http://www.w3.org/2000/svg">
<path d="M23.6516 27.2175C23.6516 24.8258 23.1552 22.9418 22.1625 21.5654C21.5532 20.708 20.583 19.8958 19.2518 19.1286C18.1462 18.4743 17.5934 17.8764 17.5934 17.3348C17.5934 17.1318 17.6498 16.9738 17.7626 16.861C17.898 16.7482 18.1236 16.6015 18.4395 16.421C19.0487 16.06 19.4774 15.699 19.7256 15.338C19.9738 14.977 20.0979 14.458 20.0979 13.7811C20.0979 12.5402 19.4323 11.5248 18.1011 10.7351C17.7401 10.5095 17.4806 10.3403 17.3226 10.2274C17.1873 10.0921 17.1196 9.92283 17.1196 9.71976C17.1196 9.20081 17.2662 8.76083 17.5596 8.39982C17.7401 8.12906 17.8529 7.93728 17.898 7.82446C17.9431 7.68908 17.9657 7.47473 17.9657 7.18141C17.9657 6.70758 17.7626 6.30145 17.3565 5.963C16.9729 5.62455 16.5329 5.45533 16.0366 5.45533C15.5627 5.45533 15.134 5.62455 14.7504 5.963C14.3669 6.30145 14.1751 6.70758 14.1751 7.18141C14.1751 7.61011 14.3105 8.01625 14.5812 8.39982C14.8745 8.76083 15.0212 9.20081 15.0212 9.71976C15.0212 9.92283 14.9422 10.1033 14.7843 10.2613C14.6263 10.3967 14.3781 10.5546 14.0397 10.7351C12.731 11.5248 12.0767 12.5402 12.0767 13.7811C12.0767 14.8867 12.6295 15.7667 13.7351 16.421C13.9607 16.5564 14.1525 16.7031 14.3105 16.861C14.4684 17.019 14.5474 17.1769 14.5474 17.3348C14.5474 17.8764 13.9946 18.4743 12.889 19.1286C11.5352 19.9409 10.565 20.7644 9.97834 21.5993C9.00812 22.9756 8.523 24.8484 8.523 27.2175H23.6516ZM7.03383 28.9097C7.01127 28.3908 7 27.7365 7 26.9467C7 24.8709 7.361 23.0884 8.08302 21.5993C8.89529 19.9973 10.4183 18.6322 12.6521 17.5041C11.9075 17.2784 11.3208 16.782 10.8921 16.0149C10.486 15.338 10.2829 14.5821 10.2829 13.7473C10.2829 11.8294 11.2419 10.4756 13.1598 9.68592C12.6859 8.85108 12.449 8.05009 12.449 7.28295C12.449 6.31273 12.81 5.52302 13.532 4.91381C14.2766 4.30461 15.134 4 16.1042 4C17.0745 4 17.9206 4.31589 18.6426 4.94765C19.3646 5.55686 19.7256 6.33529 19.7256 7.28295C19.7256 8.05009 19.4774 8.85108 18.981 9.68592C20.9215 10.4756 21.8917 11.8294 21.8917 13.7473C21.8917 14.537 21.6886 15.2929 21.2825 16.0149C20.8087 16.782 20.2107 17.2784 19.4887 17.5041C21.745 18.6548 23.2793 20.0311 24.0916 21.6331C24.8136 23.0772 25.1746 24.8484 25.1746 26.9467C25.1746 27.6688 25.1521 28.3231 25.1069 28.9097H7.03383Z" fill="#111111"/>
<path d="M23.6516 27.2175C23.6516 24.8258 23.1552 22.9418 22.1625 21.5654C21.5533 20.708 20.583 19.8958 19.2518 19.1286C18.1462 18.4743 17.5934 17.8763 17.5934 17.3348C17.5934 17.1318 17.6498 16.9738 17.7626 16.861C17.898 16.7482 18.1236 16.6015 18.4395 16.421C19.0487 16.06 19.4774 15.699 19.7256 15.338C19.9738 14.977 20.0979 14.458 20.0979 13.7811C20.0979 12.5402 19.4323 11.5248 18.1011 10.7351C17.7401 10.5095 17.4806 10.3402 17.3227 10.2274C17.1873 10.0921 17.1196 9.92283 17.1196 9.71976C17.1196 9.20081 17.2662 8.76083 17.5596 8.39982C17.7401 8.12906 17.8529 7.93727 17.898 7.82446C17.9432 7.68908 17.9657 7.47472 17.9657 7.1814C17.9657 6.70758 17.7626 6.30144 17.3565 5.96299C16.9729 5.62455 16.5329 5.45532 16.0366 5.45532C15.5627 5.45532 15.134 5.62455 14.7504 5.96299C14.3669 6.30144 14.1751 6.70758 14.1751 7.1814C14.1751 7.6101 14.3105 8.01624 14.5812 8.39982C14.8745 8.76083 15.0212 9.20081 15.0212 9.71976C15.0212 9.92283 14.9422 10.1033 14.7843 10.2613C14.6264 10.3967 14.3782 10.5546 14.0397 10.7351C12.731 11.5248 12.0767 12.5402 12.0767 13.7811C12.0767 14.8867 12.6295 15.7667 13.7351 16.421C13.9607 16.5564 14.1525 16.7031 14.3105 16.861C14.4684 17.0189 14.5474 17.1769 14.5474 17.3348C14.5474 17.8763 13.9946 18.4743 12.889 19.1286C11.5352 19.9409 10.565 20.7644 9.97835 21.5993C9.00813 22.9756 8.52301 24.8484 8.52301 27.2175H23.6516Z" fill="#F7F7F7"/>
</svg>
