<svg width="32" height="32" viewBox="0 0 32 32" fill="none" xmlns="http://www.w3.org/2000/svg">
<path d="M8.71661 24.9129C8.71661 25.3416 9.03249 25.556 9.66426 25.556C10.0253 25.556 10.5329 25.5221 11.1873 25.4544C11.8642 25.3867 12.338 25.3529 12.6088 25.3529L15.1471 25.2514C15.3953 25.2288 15.6097 25.2175 15.7902 25.2175C16.4219 25.2175 17.2455 25.2626 18.2608 25.3529C19.4792 25.4206 20.3028 25.4657 20.7315 25.4883C20.8218 25.4883 20.9797 25.4995 21.2053 25.5221C21.4535 25.5447 21.634 25.556 21.7468 25.556C22.3786 25.556 22.6945 25.3303 22.6945 24.8791C22.6945 24.4278 21.9725 24.0781 20.5284 23.8299C19.671 23.6719 18.509 23.5704 17.0424 23.5253C16.6137 23.5253 16.1737 23.5253 15.7225 23.5253C12.6313 23.5253 10.4991 23.7735 9.32581 24.2699C8.91968 24.4504 8.71661 24.6647 8.71661 24.9129ZM3.40298 7.21209C3.10966 7.21209 2.86146 7.31363 2.6584 7.5167C2.45533 7.71977 2.35379 7.96796 2.35379 8.26128C2.35379 8.5546 2.45533 8.81408 2.6584 9.03971C2.86146 9.24278 3.10966 9.34431 3.40298 9.34431C4.07988 9.34431 4.41833 8.9833 4.41833 8.26128C4.41833 7.56182 4.07988 7.21209 3.40298 7.21209ZM8.95352 4.53836C8.2315 4.53836 7.87049 4.88809 7.87049 5.58754C7.87049 6.30957 8.2315 6.67058 8.95352 6.67058C9.63042 6.67058 9.96887 6.30957 9.96887 5.58754C9.96887 4.88809 9.63042 4.53836 8.95352 4.53836ZM22.4576 4.53836C22.1868 4.53836 21.9499 4.65117 21.7468 4.87681C21.5438 5.07987 21.4422 5.31679 21.4422 5.58754C21.4422 6.30957 21.7807 6.67058 22.4576 6.67058C23.157 6.67058 23.5068 6.30957 23.5068 5.58754C23.5068 4.88809 23.157 4.53836 22.4576 4.53836ZM27.9743 7.21209C27.2974 7.21209 26.9589 7.56182 26.9589 8.26128C26.9589 8.9833 27.2974 9.34431 27.9743 9.34431C28.6737 9.34431 29.0235 8.9833 29.0235 8.26128C29.0235 7.96796 28.9219 7.71977 28.7189 7.5167C28.5158 7.31363 28.2676 7.21209 27.9743 7.21209ZM24.8944 27.4174C24.8944 28.2297 23.4504 28.7825 20.5623 29.0758C19.2762 29.1886 18.2721 29.2676 17.5501 29.3127L16.4332 29.3466C16.1173 29.3466 15.8691 29.3466 15.6886 29.3466C12.2816 29.3466 9.65298 29.0532 7.8028 28.4666C6.9454 28.1958 6.5167 27.8461 6.5167 27.4174C6.5167 26.5375 6.74233 25.6124 7.19359 24.6421C7.48691 24.0555 7.63358 23.6155 7.63358 23.3222C7.63358 22.713 6.96796 21.6412 5.63673 20.1069C4.86959 19.2044 4.47473 18.6742 4.45217 18.5162C4.45217 18.3583 4.3732 17.9747 4.21526 17.3655L3.67374 15.2333C3.51579 14.6241 3.3917 14.0826 3.30144 13.6088C3.1435 12.6837 3.03069 11.7699 2.963 10.8673C1.65433 10.2807 1 9.412 1 8.26128C1 7.60695 1.23692 7.05415 1.71074 6.60289C2.18457 6.12906 2.74865 5.89215 3.40298 5.89215C4.03475 5.89215 4.58755 6.12906 5.06137 6.60289C5.5352 7.05415 5.77211 7.60695 5.77211 8.26128C5.77211 8.3741 5.73827 8.59973 5.67058 8.93818C5.60289 9.38944 5.56904 9.70533 5.56904 9.88583C5.56904 11.1042 6.47157 12.6498 8.27663 14.5226C8.43457 13.1462 8.51354 11.9391 8.51354 10.9012C8.51354 9.63764 8.38944 8.72383 8.14125 8.15975C7.96074 7.73105 7.68998 7.40388 7.32897 7.17825C6.81002 6.86237 6.55054 6.30957 6.55054 5.51986C6.55054 4.86552 6.77618 4.31273 7.22744 3.86146C7.70127 3.38764 8.27663 3.15072 8.95352 3.15072C9.58529 3.15072 10.1381 3.38764 10.6119 3.86146C11.0857 4.31273 11.3227 4.86552 11.3227 5.51986C11.3227 5.6778 11.2775 5.95984 11.1873 6.36597C11.097 6.77211 11.0519 7.09928 11.0519 7.34747C11.0519 8.99459 11.819 11.4088 13.3533 14.5903C13.5338 13.8005 13.7708 12.6273 14.0641 11.0704C14.1995 10.0325 14.2671 9.16381 14.2671 8.46435C14.2671 7.29107 14.0528 6.20803 13.6241 5.21525C13.4436 4.83168 13.3533 4.54964 13.3533 4.36913C13.3533 3.7148 13.579 3.162 14.0302 2.71074C14.5041 2.23691 15.0681 2 15.7225 2C16.3542 2 16.8958 2.23691 17.347 2.71074C17.7983 3.162 18.0239 3.7148 18.0239 4.36913C18.0239 4.59476 17.9224 4.95578 17.7193 5.45217C17.4711 6.06137 17.3245 6.44495 17.2793 6.60289C17.1891 7.05415 17.144 7.67464 17.144 8.46435C17.144 9.70533 17.3019 11.1155 17.6178 12.6949C17.7306 13.2816 17.866 13.9134 18.0239 14.5903C19.5356 11.3637 20.2915 8.94946 20.2915 7.34747C20.2915 7.12184 20.2464 6.81724 20.1561 6.43366C20.0884 6.02753 20.0546 5.72292 20.0546 5.51986C20.0546 4.84296 20.2802 4.27888 20.7315 3.82762C21.2053 3.37635 21.7807 3.15072 22.4576 3.15072C23.1119 3.15072 23.6647 3.38764 24.116 3.86146C24.5898 4.33529 24.8267 4.88809 24.8267 5.51986C24.8267 6.30957 24.5672 6.87365 24.0483 7.21209C23.4391 7.61823 23.0781 8.30641 22.9653 9.27662C22.8976 9.72789 22.8637 10.2807 22.8637 10.935C22.8637 11.9278 22.9427 13.1236 23.1006 14.5226C24.9057 12.6498 25.8082 11.1042 25.8082 9.88583C25.8082 9.75045 25.7744 9.43457 25.7067 8.93818C25.639 8.57717 25.6051 8.35153 25.6051 8.26128C25.6051 7.60695 25.8421 7.05415 26.3159 6.60289C26.7897 6.12906 27.3425 5.89215 27.9743 5.89215C28.6286 5.89215 29.1927 6.12906 29.6665 6.60289C30.1403 7.05415 30.3773 7.60695 30.3773 8.26128C30.3773 9.38944 29.7229 10.2581 28.4143 10.8673C28.3466 11.7247 28.2225 12.6498 28.042 13.6426C27.8389 14.7708 27.4892 16.2261 26.9928 18.0086C26.9477 18.1891 26.9138 18.3583 26.8912 18.5162C26.8912 18.6742 26.6769 19.0014 26.2482 19.4977L25.7405 20.1069C24.4093 21.6864 23.7437 22.7581 23.7437 23.3222C23.7437 23.5704 23.8791 23.9991 24.1498 24.6083C24.4657 25.3303 24.6575 25.7816 24.7252 25.9621C24.838 26.3682 24.8944 26.8533 24.8944 27.4174ZM15.7225 3.25226C15.4292 3.25226 15.181 3.35379 14.9779 3.55686C14.7748 3.75993 14.6733 4.00812 14.6733 4.30144C14.6733 4.5722 14.7748 4.8204 14.9779 5.04603C15.181 5.2491 15.4292 5.35063 15.7225 5.35063C16.3994 5.35063 16.7378 5.0009 16.7378 4.30144C16.7378 4.00812 16.6363 3.75993 16.4332 3.55686C16.2301 3.35379 15.9932 3.25226 15.7225 3.25226ZM23.3375 19.7347C23.3375 19.2383 22.5591 18.8773 21.0023 18.6516C19.671 18.4711 17.9111 18.3809 15.7225 18.3809C13.5338 18.3809 11.7626 18.4824 10.4088 18.6855C8.85199 18.9337 8.07356 19.2947 8.07356 19.7685C8.07356 20.1746 8.43457 20.3777 9.15659 20.3777C9.54017 20.3777 10.0704 20.3551 10.7473 20.31C11.5144 20.2423 12.0447 20.1972 12.338 20.1746L15.0794 20.0731C15.3502 20.0731 15.5871 20.0731 15.7902 20.0731C16.7604 20.0731 18.2495 20.1408 20.2577 20.2762C20.6187 20.2762 21.1602 20.2987 21.8822 20.3439C22.0853 20.3664 22.2319 20.3777 22.3222 20.3777C22.9991 20.3777 23.3375 20.1634 23.3375 19.7347Z" fill="#111111"/>
<path d="M8.71658 24.9129C8.71658 25.3416 9.03246 25.556 9.66422 25.556C10.0252 25.556 10.5329 25.5221 11.1872 25.4544C11.8641 25.3867 12.338 25.3529 12.6087 25.3529L15.1471 25.2514C15.3953 25.2288 15.6096 25.2175 15.7901 25.2175C16.4219 25.2175 17.2455 25.2626 18.2608 25.3529C19.4792 25.4206 20.3028 25.4657 20.7315 25.4883C20.8217 25.4883 20.9797 25.4996 21.2053 25.5221C21.4535 25.5447 21.634 25.556 21.7468 25.556C22.3786 25.556 22.6945 25.3303 22.6945 24.8791C22.6945 24.4278 21.9724 24.0781 20.5284 23.8299C19.671 23.6719 18.509 23.5704 17.0424 23.5253C16.6137 23.5253 16.1737 23.5253 15.7224 23.5253C12.6313 23.5253 10.4991 23.7735 9.32578 24.2699C8.91964 24.4504 8.71658 24.6647 8.71658 24.9129ZM3.40295 7.2121C3.10963 7.2121 2.86143 7.31363 2.65836 7.5167C2.45529 7.71977 2.35376 7.96796 2.35376 8.26128C2.35376 8.55461 2.45529 8.81408 2.65836 9.03971C2.86143 9.24278 3.10963 9.34432 3.40295 9.34432C4.07984 9.34432 4.41829 8.98331 4.41829 8.26128C4.41829 7.56183 4.07984 7.2121 3.40295 7.2121ZM8.95349 4.53836C8.23147 4.53836 7.87045 4.88809 7.87045 5.58755C7.87045 6.30957 8.23147 6.67058 8.95349 6.67058C9.63038 6.67058 9.96883 6.30957 9.96883 5.58755C9.96883 4.88809 9.63038 4.53836 8.95349 4.53836ZM22.4575 4.53836C22.1868 4.53836 21.9499 4.65118 21.7468 4.87681C21.5437 5.07988 21.4422 5.31679 21.4422 5.58755C21.4422 6.30957 21.7806 6.67058 22.4575 6.67058C23.157 6.67058 23.5067 6.30957 23.5067 5.58755C23.5067 4.88809 23.157 4.53836 22.4575 4.53836ZM27.9742 7.2121C27.2973 7.2121 26.9589 7.56183 26.9589 8.26128C26.9589 8.98331 27.2973 9.34432 27.9742 9.34432C28.6737 9.34432 29.0234 8.98331 29.0234 8.26128C29.0234 7.96796 28.9219 7.71977 28.7188 7.5167C28.5158 7.31363 28.2676 7.2121 27.9742 7.2121ZM15.7224 3.25226C15.4291 3.25226 15.1809 3.35379 14.9779 3.55686C14.7748 3.75993 14.6733 4.00813 14.6733 4.30145C14.6733 4.5722 14.7748 4.8204 14.9779 5.04603C15.1809 5.2491 15.4291 5.35063 15.7224 5.35063C16.3993 5.35063 16.7378 5.0009 16.7378 4.30145C16.7378 4.00813 16.6362 3.75993 16.4332 3.55686C16.2301 3.35379 15.9932 3.25226 15.7224 3.25226ZM23.3375 19.7347C23.3375 19.2383 22.5591 18.8773 21.0022 18.6516C19.671 18.4711 17.9111 18.3809 15.7224 18.3809C13.5338 18.3809 11.7626 18.4824 10.4088 18.6855C8.85195 18.9337 8.07352 19.2947 8.07352 19.7685C8.07352 20.1746 8.43454 20.3777 9.15656 20.3777C9.54013 20.3777 10.0704 20.3551 10.7473 20.31C11.5144 20.2423 12.0446 20.1972 12.338 20.1746L15.0794 20.0731C15.3501 20.0731 15.5871 20.0731 15.7901 20.0731C16.7603 20.0731 18.2495 20.1408 20.2576 20.2762C20.6186 20.2762 21.1602 20.2987 21.8822 20.3439C22.0853 20.3664 22.2319 20.3777 22.3222 20.3777C22.9991 20.3777 23.3375 20.1634 23.3375 19.7347Z" fill="#F7F7F7"/>
</svg>
