<svg width="32" height="32" viewBox="0 0 32 32" fill="none" xmlns="http://www.w3.org/2000/svg">
<path d="M15.6548 19.8362H16.1286C16.1737 19.8362 16.2527 19.8249 16.3655 19.8023C16.4558 19.8023 16.5347 19.8023 16.6024 19.8023C16.7153 19.8023 17.2229 19.8249 18.1255 19.87C18.4413 19.87 19.1408 19.9152 20.2238 20.0054C21.1038 20.0731 21.8032 20.1069 22.3222 20.1069C22.8412 20.1069 23.1006 20.0393 23.1006 19.9039C23.1006 19.8813 23.0893 19.8475 23.0668 19.8023V19.7685V19.7347C23.0668 19.1255 21.9499 18.6516 19.7162 18.3132C18.227 18.1101 16.8845 18.0086 15.6886 18.0086C14.4928 18.0086 13.1503 18.1101 11.6611 18.3132C9.44991 18.6291 8.34431 19.1029 8.34431 19.7347V19.8023C8.29919 19.8249 8.27663 19.8588 8.27663 19.9039C8.27663 20.0393 8.5361 20.1069 9.05505 20.1069C9.19043 20.1069 9.90117 20.0618 11.1873 19.9716C12.699 19.8588 13.8836 19.8023 14.741 19.8023C14.7861 19.8023 14.8651 19.8023 14.9779 19.8023C15.0907 19.8249 15.1697 19.8362 15.2148 19.8362H15.6548ZM22.5591 21.7315C20.2351 21.4382 17.9449 21.2915 15.6886 21.2915C13.5903 21.2915 11.8078 21.3818 10.3412 21.5623C9.79964 21.6074 9.30325 21.6638 8.85198 21.7315C9.19043 22.0023 9.35966 22.5551 9.35966 23.3899C9.35966 23.8863 9.26941 24.2022 9.0889 24.3375C10.9616 24.0217 13.1616 23.8637 15.6886 23.8637C18.2383 23.8637 20.4382 24.0217 22.2884 24.3375C22.1304 24.2022 22.0514 23.8863 22.0514 23.3899C22.0514 22.5551 22.2207 22.0023 22.5591 21.7315ZM15.6886 25.3529C14.0641 25.3529 12.4621 25.4319 10.8827 25.5898C9.48376 25.7026 8.7843 26.0185 8.7843 26.5375C8.7843 27.2369 11.0857 27.5866 15.6886 27.5866C20.2915 27.5866 22.593 27.2369 22.593 26.5375C22.593 26.3118 22.4125 26.1088 22.0514 25.9282C21.3294 25.6575 20.0997 25.4883 18.3624 25.4206C17.4373 25.3755 16.546 25.3529 15.6886 25.3529ZM15.6886 3.21841C14.9892 3.21841 14.6394 3.56814 14.6394 4.2676C14.6394 4.98962 14.9892 5.35063 15.6886 5.35063C16.3655 5.35063 16.704 4.98962 16.704 4.2676C16.704 3.56814 16.3655 3.21841 15.6886 3.21841ZM15.6886 2C16.343 2 16.8958 2.23692 17.347 2.71074C17.7983 3.16201 18.0239 3.7148 18.0239 4.36913C18.0239 4.5722 17.9111 4.93321 17.6855 5.45217C17.4373 6.08394 17.3019 6.46751 17.2793 6.60289C17.1665 7.05415 17.1101 7.66336 17.1101 8.43051C17.1101 8.99459 17.1891 9.87455 17.347 11.0704C17.4598 11.9955 17.6855 13.1575 18.0239 14.5564C19.5357 11.3524 20.2915 8.93818 20.2915 7.31363C20.2915 6.93005 20.2351 6.50135 20.1223 6.02752C20.0772 5.77933 20.0546 5.59883 20.0546 5.48601C20.0546 4.83168 20.2802 4.27888 20.7315 3.82762C21.2053 3.35379 21.7581 3.11688 22.3899 3.11688C23.0442 3.11688 23.6083 3.35379 24.0821 3.82762C24.556 4.27888 24.7929 4.83168 24.7929 5.48601C24.7929 6.23059 24.5447 6.80595 24.0483 7.21209C23.4391 7.59566 23.0668 8.28384 22.9314 9.27662C22.8863 9.70532 22.8637 10.2581 22.8637 10.935C22.8637 11.815 22.9314 12.9995 23.0668 14.4887C24.8944 12.6385 25.8082 11.1042 25.8082 9.88583C25.8082 9.70533 25.7631 9.38944 25.6728 8.93818C25.6277 8.59973 25.6051 8.36281 25.6051 8.22744C25.6051 7.59567 25.8308 7.04287 26.282 6.56904C26.7559 6.09522 27.3087 5.8583 27.9404 5.8583C28.5948 5.8583 29.1588 6.09522 29.6327 6.56904C30.1065 7.04287 30.3434 7.59567 30.3434 8.22744C30.3434 9.37816 29.6891 10.2468 28.3804 10.8335C28.3353 11.6458 28.2112 12.5821 28.0081 13.6426C27.8953 14.2969 27.602 15.5379 27.1282 17.3655L26.8574 18.4824C26.8574 18.8885 26.4061 19.5542 25.5036 20.4792C24.3078 21.6977 23.7098 22.6453 23.7098 23.3222C23.7098 23.593 23.8452 24.0104 24.116 24.5745C24.4995 25.3642 24.7026 25.7816 24.7252 25.8267C24.838 26.1426 24.8944 26.5262 24.8944 26.9774C24.8944 27.0451 24.8831 27.1467 24.8606 27.282C24.838 27.3949 24.8267 27.4851 24.8267 27.5528V27.6205L24.8606 27.6543C24.8606 28.3538 23.4165 28.8389 20.5284 29.1097C19.2649 29.2225 18.2608 29.2902 17.5162 29.3127C16.6814 29.3353 16.0609 29.3466 15.6548 29.3466C15.5871 29.3466 15.3727 29.3353 15.0117 29.3127C14.583 29.2902 14.1882 29.2789 13.8272 29.2789C11.2324 29.2112 9.213 28.9856 7.76896 28.602C6.91156 28.3538 6.48285 28.0379 6.48285 27.6543L6.5167 27.6205V27.5528C6.5167 27.5302 6.50541 27.4851 6.48285 27.4174C6.48285 27.3497 6.48285 27.2933 6.48285 27.2482V26.9774C6.48285 26.3457 6.6972 25.5898 7.1259 24.7098C7.44179 24.0555 7.59973 23.593 7.59973 23.3222C7.59973 22.8484 7.36282 22.3181 6.88899 21.7315C6.41516 21.2125 5.72699 20.4228 4.82446 19.3624C4.59883 19.0465 4.48601 18.7532 4.48601 18.4824C4.17013 17.2189 3.85424 15.9553 3.53836 14.6918C3.22247 13.2252 3.03069 11.9391 2.963 10.8335C1.65433 10.2468 1 9.37816 1 8.22744C1 7.59567 1.23692 7.04287 1.71074 6.56904C2.18457 6.09522 2.73736 5.8583 3.36913 5.8583C4.02347 5.8583 4.57627 6.09522 5.02753 6.56904C5.50136 7.04287 5.73827 7.59567 5.73827 8.22744C5.73827 8.34025 5.7157 8.57717 5.67058 8.93818C5.58032 9.38944 5.5352 9.70533 5.5352 9.88583C5.5352 11.1042 6.43773 12.6385 8.24278 14.4887C8.40072 12.9995 8.47969 11.815 8.47969 10.935C8.47969 9.60379 8.3556 8.6787 8.1074 8.15975C7.99458 7.93411 7.87049 7.74233 7.73511 7.58438C7.64486 7.49413 7.49819 7.35875 7.29513 7.17825C7.0018 6.99774 6.81002 6.78339 6.71976 6.5352C6.58438 6.35469 6.5167 6.00496 6.5167 5.48601C6.5167 4.83168 6.75361 4.27888 7.22744 3.82762C7.70126 3.35379 8.26534 3.11688 8.91967 3.11688C9.57401 3.11688 10.1268 3.35379 10.5781 3.82762C11.0519 4.27888 11.2888 4.83168 11.2888 5.48601C11.2888 5.57626 11.2662 5.75677 11.2211 6.02752C11.1083 6.50135 11.0519 6.93005 11.0519 7.31363C11.0519 8.91561 11.8078 11.3299 13.3195 14.5564C13.9287 11.9842 14.2333 9.94224 14.2333 8.43051C14.2333 7.32491 14.019 6.25316 13.5903 5.21525C13.4097 4.83168 13.3195 4.54964 13.3195 4.36913C13.3195 3.7148 13.5564 3.16201 14.0302 2.71074C14.5041 2.23692 15.0569 2 15.6886 2ZM27.9404 7.21209C27.6697 7.21209 27.4328 7.31363 27.2297 7.5167C27.0266 7.71977 26.9251 7.95668 26.9251 8.22744C26.9251 8.52076 27.0266 8.78024 27.2297 9.00587C27.4328 9.20894 27.6697 9.31047 27.9404 9.31047C28.6399 9.31047 28.9896 8.94946 28.9896 8.22744C28.9896 7.55054 28.6399 7.21209 27.9404 7.21209ZM22.3899 4.50451C22.1191 4.50451 21.8822 4.61733 21.6791 4.84296C21.4761 5.04603 21.3745 5.28294 21.3745 5.5537C21.3745 5.84702 21.4761 6.1065 21.6791 6.33213C21.8822 6.5352 22.1191 6.63673 22.3899 6.63673C23.1119 6.63673 23.4729 6.27572 23.4729 5.5537C23.4729 4.85424 23.1119 4.50451 22.3899 4.50451ZM8.91967 4.50451C8.22022 4.50451 7.87049 4.85424 7.87049 5.5537C7.87049 6.27572 8.22022 6.63673 8.91967 6.63673C9.59657 6.63673 9.93502 6.27572 9.93502 5.5537C9.93502 4.85424 9.59657 4.50451 8.91967 4.50451ZM3.36913 7.21209C2.66967 7.21209 2.31995 7.55054 2.31995 8.22744C2.31995 8.94946 2.66967 9.31047 3.36913 9.31047C4.04603 9.31047 4.38448 8.94946 4.38448 8.22744C4.38448 7.95668 4.28294 7.71977 4.07988 7.5167C3.87681 7.31363 3.63989 7.21209 3.36913 7.21209ZM15.6886 9.91967C15.5984 10.4612 15.4968 10.9689 15.384 11.4427L15.1133 12.6611C14.8425 13.7667 14.5266 14.6467 14.1656 15.301C14.0979 15.4364 13.9851 15.6056 13.8272 15.8087C13.6692 16.0117 13.5677 16.1922 13.5226 16.3502C13.4774 16.2825 13.3421 16.1133 13.1164 15.8425C12.9359 15.6394 12.7103 15.3912 12.4395 15.0979C12.1913 14.782 11.977 14.4662 11.7965 14.1503C11.1196 12.9319 10.4765 11.4201 9.86733 9.61507C9.91246 9.93096 9.93502 10.3371 9.93502 10.8335C9.93502 11.3299 9.85605 12.3791 9.69811 13.981C9.67554 14.2292 9.61913 14.6015 9.52888 15.0979L9.22428 16.9932C7.71254 16.1133 6.23466 14.6692 4.79061 12.6611C5.06137 14.0826 5.30957 15.2446 5.5352 16.1471C5.73827 16.9368 5.85108 17.3655 5.87365 17.4332C6.05415 17.9973 6.2685 18.3245 6.5167 18.4147C8.86327 17.0835 11.9206 16.4179 15.6886 16.4179C19.4792 16.4179 22.5366 17.0835 24.8606 18.4147C25.2893 18.2793 25.7518 16.9481 26.2482 14.421C26.2933 14.1954 26.361 13.8569 26.4513 13.4057L26.5866 12.6611C25.1426 14.6692 23.676 16.1133 22.1868 16.9932L22.0514 16.3502C21.6453 14.0036 21.4422 12.2888 21.4422 11.2058C21.4422 10.6417 21.4761 10.1115 21.5438 9.61507C20.9346 11.4201 20.2802 12.9319 19.5808 14.1503C19.31 14.6241 18.87 15.1882 18.2608 15.8425C18.0352 16.1133 17.8998 16.2825 17.8547 16.3502C17.7193 16.102 17.505 15.7523 17.2116 15.301C17.0988 15.0979 16.9522 14.7933 16.7717 14.3872C16.6137 13.9585 16.3542 12.9657 15.9932 11.4088C15.903 10.935 15.8014 10.4386 15.6886 9.91967Z" fill="#111111"/>
<path d="M15.6548 19.8362H16.1286C16.1737 19.8362 16.2527 19.8249 16.3655 19.8024C16.4558 19.8024 16.5347 19.8024 16.6024 19.8024C16.7153 19.8024 17.2229 19.8249 18.1254 19.87C18.4413 19.87 19.1408 19.9152 20.2238 20.0054C21.1038 20.0731 21.8032 20.107 22.3222 20.107C22.8412 20.107 23.1006 20.0393 23.1006 19.9039C23.1006 19.8813 23.0893 19.8475 23.0668 19.8024V19.7685V19.7347C23.0668 19.1255 21.9499 18.6516 19.7162 18.3132C18.227 18.1101 16.8845 18.0086 15.6886 18.0086C14.4928 18.0086 13.1503 18.1101 11.6611 18.3132C9.44991 18.6291 8.34431 19.1029 8.34431 19.7347V19.8024C8.29919 19.8249 8.27663 19.8588 8.27663 19.9039C8.27663 20.0393 8.5361 20.107 9.05505 20.107C9.19043 20.107 9.90117 20.0618 11.1873 19.9716C12.699 19.8588 13.8836 19.8024 14.741 19.8024C14.7861 19.8024 14.8651 19.8024 14.9779 19.8024C15.0907 19.8249 15.1697 19.8362 15.2148 19.8362H15.6548ZM22.5591 21.7315C20.2351 21.4382 17.9449 21.2915 15.6886 21.2915C13.5903 21.2915 11.8078 21.3818 10.3412 21.5623C9.79964 21.6074 9.30325 21.6638 8.85198 21.7315C9.19043 22.0023 9.35966 22.5551 9.35966 23.3899C9.35966 23.8863 9.26941 24.2022 9.0889 24.3376C10.9616 24.0217 13.1615 23.8637 15.6886 23.8637C18.2383 23.8637 20.4382 24.0217 22.2884 24.3376C22.1304 24.2022 22.0514 23.8863 22.0514 23.3899C22.0514 22.5551 22.2207 22.0023 22.5591 21.7315ZM15.6886 25.3529C14.0641 25.3529 12.4621 25.4319 10.8827 25.5898C9.48376 25.7026 8.78429 26.0185 8.78429 26.5375C8.78429 27.2369 11.0857 27.5866 15.6886 27.5866C20.2915 27.5866 22.593 27.2369 22.593 26.5375C22.593 26.3118 22.4125 26.1088 22.0514 25.9283C21.3294 25.6575 20.0997 25.4883 18.3624 25.4206C17.4373 25.3755 16.546 25.3529 15.6886 25.3529ZM15.6886 3.21841C14.9892 3.21841 14.6394 3.56815 14.6394 4.26761C14.6394 4.98963 14.9892 5.35064 15.6886 5.35064C16.3655 5.35064 16.704 4.98963 16.704 4.26761C16.704 3.56815 16.3655 3.21841 15.6886 3.21841ZM27.9404 7.2121C27.6697 7.2121 27.4328 7.31364 27.2297 7.5167C27.0266 7.71977 26.9251 7.95668 26.9251 8.22744C26.9251 8.52076 27.0266 8.78024 27.2297 9.00587C27.4328 9.20894 27.6697 9.31048 27.9404 9.31048C28.6399 9.31048 28.9896 8.94946 28.9896 8.22744C28.9896 7.55055 28.6399 7.2121 27.9404 7.2121ZM22.3899 4.50452C22.1191 4.50452 21.8822 4.61733 21.6791 4.84296C21.4761 5.04603 21.3745 5.28295 21.3745 5.55371C21.3745 5.84703 21.4761 6.10651 21.6791 6.33214C21.8822 6.53521 22.1191 6.63674 22.3899 6.63674C23.1119 6.63674 23.4729 6.27573 23.4729 5.55371C23.4729 4.85425 23.1119 4.50452 22.3899 4.50452ZM8.91967 4.50452C8.22022 4.50452 7.87049 4.85425 7.87049 5.55371C7.87049 6.27573 8.22022 6.63674 8.91967 6.63674C9.59657 6.63674 9.93502 6.27573 9.93502 5.55371C9.93502 4.85425 9.59657 4.50452 8.91967 4.50452ZM3.36913 7.2121C2.66967 7.2121 2.31995 7.55055 2.31995 8.22744C2.31995 8.94946 2.66967 9.31048 3.36913 9.31048C4.04603 9.31048 4.38448 8.94946 4.38448 8.22744C4.38448 7.95668 4.28294 7.71977 4.07987 7.5167C3.87681 7.31364 3.63989 7.2121 3.36913 7.2121ZM15.6886 9.91968C15.5984 10.4612 15.4968 10.9689 15.384 11.4427L15.1133 12.6611C14.8425 13.7667 14.5266 14.6467 14.1656 15.301C14.0979 15.4364 13.9851 15.6056 13.8272 15.8087C13.6692 16.0117 13.5677 16.1922 13.5226 16.3502C13.4774 16.2825 13.3421 16.1133 13.1164 15.8425C12.9359 15.6394 12.7103 15.3913 12.4395 15.0979C12.1913 14.782 11.977 14.4662 11.7965 14.1503C11.1196 12.9319 10.4765 11.4201 9.86733 9.61508C9.91245 9.93096 9.93502 10.3371 9.93502 10.8335C9.93502 11.3299 9.85605 12.3791 9.69811 13.9811C9.67554 14.2292 9.61913 14.6015 9.52888 15.0979L9.22428 16.9932C7.71254 16.1133 6.23466 14.6692 4.79061 12.6611C5.06137 14.0826 5.30956 15.2446 5.5352 16.1471C5.73827 16.9368 5.85108 17.3655 5.87365 17.4332C6.05415 17.9973 6.2685 18.3245 6.5167 18.4147C8.86327 17.0835 11.9206 16.4179 15.6886 16.4179C19.4792 16.4179 22.5366 17.0835 24.8606 18.4147C25.2893 18.2793 25.7518 16.9481 26.2482 14.421C26.2933 14.1954 26.361 13.857 26.4513 13.4057L26.5866 12.6611C25.1426 14.6692 23.676 16.1133 22.1868 16.9932L22.0514 16.3502C21.6453 14.0036 21.4422 12.2888 21.4422 11.2058C21.4422 10.6417 21.4761 10.1115 21.5438 9.61508C20.9346 11.4201 20.2802 12.9319 19.5808 14.1503C19.31 14.6241 18.87 15.1882 18.2608 15.8425C18.0352 16.1133 17.8998 16.2825 17.8547 16.3502C17.7193 16.102 17.505 15.7523 17.2116 15.301C17.0988 15.0979 16.9522 14.7933 16.7717 14.3872C16.6137 13.9585 16.3542 12.9657 15.9932 11.4088C15.903 10.935 15.8014 10.4386 15.6886 9.91968Z" fill="#F7F7F7"/>
</svg>
