<svg width="32" height="32" viewBox="0 0 32 32" fill="none" xmlns="http://www.w3.org/2000/svg">
<path d="M10.7875 13.3935V20.907H20.4332V13.3935H10.7875ZM5.81228 29.8082L5 28.9959V26.0853L9.33214 21.7193V13.2581L5.6092 10.009V6.18457L6.82762 5H10.6182L11.3628 5.71074V6.79377H12.5812V5.71074L13.292 5H17.9625L18.6733 5.71074V6.79377H19.8579V5.71074L20.6024 5H24.4269L25.6453 6.18457V10.009L21.9224 13.2581V21.7193L26.2545 26.0853V28.9959L25.4422 29.8082H5.81228ZM6.48917 26.4914V28.116H24.7653V26.4914H6.48917ZM10.6182 22.2947L7.84296 25.0023H23.4116L20.6363 22.2947H10.6182ZM14.0027 6.75993V7.84296L13.3935 8.45217H10.6521L10.009 7.84296V6.69224H7.63989L7.09838 7.2676V9.63673L9.97518 11.972H21.2793L24.1561 9.63673V7.2676L23.6146 6.69224H21.2455V7.84296L20.6024 8.45217H17.861L17.2518 7.84296V6.75993H14.0027Z" fill="#111111"/>
<path d="M10.7875 13.3935V20.907H20.4332V13.3935H10.7875ZM6.4892 26.4914V28.116H24.7654V26.4914H6.4892ZM10.6183 22.2947L7.84299 25.0022H23.4116L20.6363 22.2947H10.6183ZM14.0027 6.75992V7.84295L13.3935 8.45216H10.6521L10.0091 7.84295V6.69223H7.63992L7.09841 7.26759V9.63673L9.97521 11.972H21.2794L24.1562 9.63673V7.26759L23.6147 6.69223H21.2455V7.84295L20.6025 8.45216H17.861L17.2518 7.84295V6.75992H14.0027Z" fill="#F7F7F7"/>
</svg>
