<svg width="180" height="180" viewBox="0 0 180 180" fill="none" xmlns="http://www.w3.org/2000/svg">
<path d="M92.2286 36.2923H67.3684V25.2838H86.7448V16.875H97.713V25.2838H117.049V36.2923H92.2286ZM56.1159 119.567H128.301V161.327H56.1159V119.567ZM106.203 87.1509H121.192L135.654 66.1089L121.03 66.0279L106.203 87.1509ZM78.2145 87.1509L63.5496 66.1089H48.8039L63.7121 87.1509H78.2145ZM86.2166 66.0279V87.1509H98.2817V66.0279H86.2166ZM128.301 108.518H56.1159L16.875 47.6259H167.583L128.301 108.518Z" fill="#001F3F"/>
<path d="M106.203 87.1509H121.192L135.654 66.1089L121.03 66.0279L106.203 87.1509ZM78.2139 87.1509L63.5496 66.1089H48.8037L63.7121 87.1509H78.2139ZM86.2166 66.0279V87.1509H98.2811V66.0279H86.2166Z" fill="#0D63A5"/>
</svg>
