<svg width="180" height="180" viewBox="0 0 180 180" fill="none" xmlns="http://www.w3.org/2000/svg">
<path d="M64.3404 133.86V153.317H114.022V133.86H64.3404ZM53.0884 122.851H125.274V164.611H53.0884V122.851ZM89.2012 83.9756H83.7174V61.9177H64.3404V83.9756H53.0884V61.9177H33.7523V100.793H144.61V61.9177H125.274V83.9756H114.022V61.9177H94.6856V83.9756H89.2012ZM22.5 50.625H155.618V111.802H22.5V50.625Z" fill="#001F3F"/>
<path d="M64.3404 133.86V153.317H114.021V133.86H64.3404ZM89.2012 83.9756H83.7174V61.9177H64.3404V83.9756H53.0881V61.9177H33.7521V100.793H144.61V61.9177H125.273V83.9756H114.021V61.9177H94.6851V83.9756H89.2012Z" fill="#FFD717"/>
</svg>
