<svg width="256" height="256" viewBox="0 0 256 256" fill="none" xmlns="http://www.w3.org/2000/svg">
<path fill-rule="evenodd" clip-rule="evenodd" d="M63.8247 233.859C63.906 236.798 66.935 235.933 66.935 235.933H195.494C178.006 223.481 167.359 222.177 157.134 220.381C181.717 198.235 184.603 161.339 184.09 144.526C183.577 127.713 172.03 95.6699 141.807 68.7674C144.189 63.6583 144.83 57.705 143.289 53.0235C141.748 48.342 135.394 41.3838 126.031 41.0204C110.355 40.4219 106.821 53.1518 106.332 58.6456C105.844 64.1393 108.836 72.8182 116.7 78.344C124.563 83.8699 147.014 99.6886 142.619 142.624C138.224 185.559 110.942 198.267 92.8542 210.013C74.7663 221.76 63.6826 228.729 63.8247 233.859ZM105.295 78.344C107.778 77.5638 94.5536 88.5087 90.7806 103.226C87.0077 117.944 98.5393 134.971 105.295 148.844C112.051 162.718 112.05 180.877 102.185 188.241C92.3198 195.606 70.3927 194.558 61.7512 157.138C59.434 147.038 63.1557 137.002 63.8247 133.293C72.3348 142.485 78.7242 155.492 82.4865 165.432C86.7543 159.693 83.178 149.742 80.413 140.55C77.6479 131.358 74.0791 123.353 70.0454 117.741C77.6512 93.158 103.186 79.0067 105.295 78.344Z" fill="#BBE1FA" stroke="#0F4C75" stroke-width="4" stroke-linecap="square" stroke-linejoin="round"/>
</svg>
