<svg width="256" height="256" viewBox="0 0 256 256" fill="none" xmlns="http://www.w3.org/2000/svg">
<path fill-rule="evenodd" clip-rule="evenodd" d="M227.527 97.7494C227.375 97.7494 225.54 97.76 225.389 97.7494L167.672 235.629H137.112C169.376 189.156 220.916 104.184 220.054 103.895C217.929 103.168 162.864 190.289 161.257 188.6C158.422 185.768 152.555 182.497 144.509 180.595C141.73 179.943 164.264 69.2222 164.464 65.6844C164.491 65.2996 164.475 65.0004 164.128 64.9256C163.932 64.9348 163.747 65.0185 163.611 65.1595C163.475 65.3006 163.397 65.4883 163.395 65.6844C162.747 68.0465 135.418 179.184 135.418 179.184C135.418 179.184 130.268 178.799 127.993 178.799C125.719 178.799 120.832 179.184 120.832 179.184C120.832 179.184 93.5019 68.0465 92.8542 65.6844C92.8517 65.4883 92.7744 65.3006 92.6381 65.1595C92.5019 65.0185 92.3169 64.9348 92.121 64.9256C91.7747 65.0004 91.7587 65.2996 91.7854 65.6844C91.9852 69.2222 114.522 179.943 111.74 180.595C103.694 182.497 97.8275 185.768 94.9919 188.6C93.3886 190.289 38.3203 103.168 36.1954 103.895C35.335 104.184 86.8752 189.156 119.137 235.629H88.5789L30.862 97.7494C30.7113 97.76 28.8761 97.7494 28.7243 97.7494C26.1193 97.7537 23.6022 96.8081 21.6443 95.0898C19.6864 93.3715 18.4221 90.9984 18.0883 88.415C17.7545 85.8315 18.374 83.2149 19.8308 81.0554C21.2876 78.8959 23.4817 77.3415 26.0022 76.6835C28.5227 76.0255 31.1966 76.309 33.5231 77.481C35.8496 78.6529 37.6689 80.6328 38.6405 83.0498C39.612 85.4668 39.6691 88.1552 38.8009 90.6112C37.9327 93.0672 36.1988 95.1224 33.9242 96.3919C32.9312 96.937 34.0685 97.7494 34.0685 97.7494C66.8217 109.496 90.9859 86.0884 87.51 61.4091C87.4844 61.2274 87.4662 61.0671 87.4427 60.8961C85.0413 60.1282 82.9881 58.5373 81.645 56.4036C80.302 54.27 79.7552 51.7307 80.1012 49.2334C80.4473 46.7361 81.6639 44.4411 83.5365 42.7531C85.4091 41.065 87.8176 40.0922 90.3373 40.0062C92.857 39.9203 95.3261 40.7267 97.3095 42.2832C99.2928 43.8397 100.663 46.0464 101.178 48.5143C101.694 50.9823 101.321 53.5529 100.127 55.7731C98.9323 57.9933 96.9923 59.7205 94.6488 60.6503C94.8626 61.1205 94.9919 61.4091 94.9919 61.4091C115.457 79.8464 141.784 79.6861 161.259 61.4091C161.259 61.4091 161.388 61.1205 161.603 60.6503C159.267 59.7211 157.334 57.9974 156.144 55.7828C154.955 53.5683 154.585 51.005 155.1 48.5446C155.615 46.0842 156.982 43.8844 158.96 42.3329C160.938 40.7815 163.4 39.9778 165.912 40.0635C168.424 40.1492 170.826 41.1188 172.693 42.8015C174.561 44.4841 175.775 46.7719 176.121 49.2617C176.467 51.7515 175.923 54.2837 174.586 56.412C173.248 58.5403 171.202 60.1282 168.809 60.8961C168.785 61.0671 168.767 61.2274 168.741 61.4091C165.265 86.0884 189.43 109.496 222.183 97.7494C222.183 97.7494 223.32 96.937 222.327 96.3919C220.06 95.1246 218.333 93.0744 217.468 90.6252C216.604 88.1759 216.662 85.4955 217.631 83.0859C218.601 80.6764 220.416 78.7029 222.735 77.5348C225.055 76.3668 227.721 76.0842 230.234 76.7403C232.747 77.3963 234.935 78.9459 236.388 81.0988C237.841 83.2517 238.459 85.8604 238.127 88.4364C237.795 91.0123 236.536 93.3791 234.585 95.0933C232.633 96.8076 230.124 97.7519 227.527 97.7494V97.7494Z" fill="#BBE1FA" stroke="#0F4C75" stroke-width="4" stroke-linecap="square" stroke-linejoin="round"/>
</svg>
