<svg width="81" height="81" viewBox="0 0 81 81" fill="none" xmlns="http://www.w3.org/2000/svg">
<path d="M61.4 71L49.5 61.9L60.1 47.3C60.1 36.3 55.2 27.4 48.2 21L46.5 20.2L38.6 34.5L37.1 32.9L44.9 18.2L47.6 13.1V12.9C47.6 9.3 44.7 6.3 41 6.3C37.4 6.3 34.4 9.2 34.4 12.9V13.1L36.7 17.5C28 24.1 20.9 34.1 20.9 47.3L31.5 61.9L19.6 71H61.4Z" fill="#8AA3D2"/>
<path d="M45.6 70.7H60L49.6 61.2H42.8L45.6 70.7ZM50.8 25.1C54.7 42.1 36 55.8 36 55.8L43.3 60.5H50.7L60.9 47.3L59.4 38.7L55.8 30.4L53.2 26L50.8 25.1ZM44.5 8.60001C45.3 11 41.1 13 41.1 13V18.1L44.4 18.2L47.4 13.9L47.1 10.5L45 8.60001H44.5Z" fill="#6F639B"/>
<path d="M65 72.2L50.9 61.6L61.1 47.6V47.2C61.1 33.1 53.5 24.1 48.9 19.9L46.6 17.6L48.7 13.7L48.8 13.4V12.9C48.8 8.6 45.3 5 40.9 5C36.6 5 33.1 8.5 33.1 12.9V13.4L35 17.1C29.1 21.7 19.5 31.7 19.5 47.2V47.6L29.7 61.6L16 72.2H65ZM22.5 46.9C22.2 32.3 31.8 22.9 37.5 18.7L38.4 18.1L35.7 13C35.7 10.1 38.1 7.7 41 7.7C43.9 7.7 46.3 10.1 46.4 13L35.8 34.6V34.7L38 40.5L47.3 21.7L48.4 22.7C53.2 27.4 58.8 35.4 58.5 46.8L49.3 59.8H31.8L22.5 46.9ZM32.9 62.5H48L57.8 69.8H23.2L32.9 62.5Z" fill="#111111"/>
<path d="M36.2 18H41.1L38.4 20.1H34.6" fill="#111111"/>
</svg>
