<svg width="81" height="81" viewBox="0 0 81 81" fill="none" xmlns="http://www.w3.org/2000/svg">
<path d="M56.9 31.1H24.1L19.2 72H61.8L56.9 31.1Z" fill="#261C2C"/>
<path d="M14.2 58.5H66.7V72H14.2V58.5Z" fill="#261C2C"/>
<path d="M41.1 34.1C41 41.3 34.5 58.5 26.9 58.5H24.6L28.4 34.1H41.1ZM18.4 62.3H36.3V68.4H18.4V62.3Z" fill="#65466A"/>
<path d="M53.4 12V18.9H46.5V12H34.5V18.9H27.6V12H15.6V23.4L24.6 32.5H56.4L65.4 23.4V12H53.4Z" fill="#261C2C"/>
<path d="M62.4 15H56.4V22.2L62.4 15ZM43.5 15H37.5V22.2L43.5 15ZM24.6 15H18.6V22.2L24.6 15Z" fill="#65466A"/>
</svg>
