<svg width="180" height="180" viewBox="0 0 180 180" fill="none" xmlns="http://www.w3.org/2000/svg">
<path fill-rule="evenodd" clip-rule="evenodd" d="M87.6364 164.209H31.5045L49.0176 136.218L23.0474 39.073C22.2491 36.229 22.3239 34.5076 23.2719 33.9088C24.1701 33.4099 25.8914 34.2831 28.4361 36.5284L77.5327 85.6249V62.1242H64.7347V44.2371H77.5327V36.5284H87.6364H97.74V44.2371H110.538V62.1242H97.74V85.6249L146.986 36.5284C149.431 34.2332 151.152 33.36 152.15 33.9088C152.998 34.5575 152.998 36.3038 152.15 39.1478L126.255 136.218L143.768 164.209H87.6364ZM78.2061 110.697C71.6197 111.894 65.583 113.716 60.0941 116.16L51.712 84.2777L78.2061 110.697ZM51.6371 129.856C62.2147 121.574 74.2146 117.433 87.6364 117.433C101.008 117.433 113.008 121.574 123.635 129.856L122.138 135.47C112.16 127.037 100.659 122.821 87.6364 122.821C74.4637 122.821 62.9634 127.037 53.134 135.47L51.6371 129.856ZM69.6741 141.232H87.6364H105.598H123.56C124.059 142.131 124.558 143.004 125.057 143.852C125.556 144.65 126.08 145.474 126.629 146.322H107.095H87.6364H68.0276H48.5686C49.0675 145.474 49.5665 144.65 50.0654 143.852C50.6143 143.004 51.1631 142.131 51.712 141.232H69.6741ZM123.635 84.2777L115.178 116.16C109.49 113.665 103.503 111.845 97.2157 110.697L123.635 84.2777Z" fill="#222831"/>
<path fill-rule="evenodd" clip-rule="evenodd" d="M51.6374 129.857C62.2153 121.574 74.2146 117.433 87.6364 117.433C101.008 117.433 113.008 121.574 123.636 129.857L122.138 135.47C112.16 127.037 100.659 122.821 87.6364 122.821C74.4643 122.821 62.9634 127.037 53.1342 135.47L51.6374 129.857ZM69.6741 141.233H87.6364H105.599H123.56C124.059 142.131 124.559 143.004 125.058 143.852C125.557 144.65 126.08 145.474 126.629 146.322H107.095H87.6364H68.0276H48.5688C49.0678 145.474 49.5667 144.65 50.0657 143.852C50.6145 143.004 51.1634 142.131 51.7122 141.233H69.6741Z" fill="#F58634"/>
</svg>
