<svg width="180" height="180" viewBox="0 0 180 180" fill="none" xmlns="http://www.w3.org/2000/svg">
<path d="M50.8889 157.614C57.924 143.843 66.8053 132.866 77.5327 124.683C82.6217 120.791 86.5389 115.877 89.2828 109.939C84.7924 111.985 80.0775 113.133 75.1376 113.382C66.9549 113.931 60.6684 117.424 56.2776 123.86L33.75 102.829L91.1537 33.75C93.3491 36.1948 95.7443 38.3653 98.3391 40.2613C100.933 42.1573 103.204 44.5522 105.149 47.4461L114.131 40.1116C116.126 38.3653 117.623 37.7665 118.621 38.3154C119.569 38.964 119.644 40.5606 118.846 43.1053L115.777 52.6102C124.259 63.2379 131.244 75.3373 136.733 88.9087C141.423 100.684 144.541 112.285 146.088 123.71C147.685 135.086 147.809 145.49 146.462 154.919C135.386 159.11 123.885 161.905 111.96 163.302C100.584 164.699 89.6822 164.873 79.254 163.826C68.8258 162.778 59.3708 160.707 50.8889 157.614ZM117.798 152.375C120.492 143.144 121.615 132.666 121.166 120.941C120.716 109.166 118.496 97.0667 114.505 84.6427C112.06 77.0085 109.166 70.0487 105.823 63.7616C102.48 57.4251 98.7626 51.4876 94.6716 45.9493C92.5262 42.8558 90.6547 41.833 89.0584 42.8807C87.7112 43.7789 87.8608 45.4753 89.5073 47.97C93.2996 53.2588 96.7669 58.9219 99.9107 64.9592C103.054 70.9464 105.773 77.508 108.068 84.6427C111.96 96.7669 114.155 108.567 114.654 120.043C115.203 131.469 114.23 141.747 111.736 150.878C110.638 154.67 111.087 156.84 113.083 157.389C114.979 157.838 116.551 156.167 117.798 152.375ZM84.7176 68.9259C82.2229 66.7806 79.7777 65.3085 77.3831 64.5103C75.0381 63.7116 73.4164 63.8364 72.5181 64.8844C71.5703 65.9323 71.6451 67.6035 72.7425 69.8985C73.8906 72.144 75.7114 74.3147 78.2061 76.41C80.6513 78.5554 83.0458 80.0274 85.3909 80.8256C87.786 81.6238 89.4324 81.4995 90.3307 80.4516C91.2291 79.4537 91.1289 77.832 90.0315 75.5865C88.9335 73.3416 87.1622 71.1214 84.7176 68.9259ZM134.188 103.877C135.934 103.977 136.808 103.103 136.808 101.258C136.808 100.01 136.184 99.162 134.936 98.7131C133.29 97.9644 131.593 97.3907 129.847 96.9919C128.051 96.5925 126.23 96.3427 124.384 96.2432C122.687 96.1931 121.839 97.0414 121.839 98.7879C121.839 100.534 122.712 101.407 124.459 101.407C125.008 101.457 126.404 101.707 128.65 102.156C130.546 102.605 132.392 103.179 134.188 103.877ZM137.481 124.459C137.881 124.658 138.255 124.758 138.604 124.758C140.3 124.758 141.149 123.885 141.149 122.138C141.149 121.091 140.674 120.318 139.727 119.819C138.13 118.87 136.284 118.047 134.188 117.349C132.092 116.65 129.922 116.176 127.677 115.927C125.931 115.927 125.057 116.8 125.057 118.546C125.057 120.292 125.905 121.166 127.602 121.166C129.448 121.565 131.095 121.989 132.542 122.438C134.138 122.937 135.785 123.61 137.481 124.459ZM139.652 144.292C139.801 144.391 140.026 144.442 140.325 144.442C142.022 144.442 142.87 143.569 142.87 141.822C142.87 141.024 142.521 140.35 141.822 139.801C139.776 138.255 137.656 137.007 135.461 136.059C132.766 134.962 130.346 134.288 128.201 134.039C126.505 134.039 125.656 134.887 125.656 136.583C125.656 137.831 126.205 138.653 127.303 139.053C129.349 139.452 131.369 140.075 133.365 140.924C135.71 141.972 137.806 143.094 139.652 144.292ZM125.881 83.8941C127.527 83.8941 128.351 83.0211 128.351 81.2751C128.351 80.0274 127.752 79.1792 126.554 78.7303C125.507 78.4806 124.633 78.2809 123.935 78.1313C121.889 77.8821 120.143 77.7819 118.696 77.832C117.598 78.2809 117.049 79.1044 117.049 80.3019C117.049 82.0479 117.798 82.9462 119.294 82.9963C120.642 82.9963 121.939 83.1206 123.186 83.3704C123.785 83.52 124.683 83.6949 125.881 83.8941ZM117.872 69.1504C118.97 68.6514 119.519 67.8533 119.519 66.7553C119.519 65.0093 118.671 64.1357 116.975 64.1357C116.625 64.1357 116.401 64.1357 116.301 64.1357C116.201 64.1357 116.002 64.1109 115.702 64.0609C114.904 64.0114 113.656 64.0361 111.96 64.1357C110.912 64.5851 110.388 65.3833 110.388 66.5308C110.388 68.0777 111.187 68.8511 112.783 68.8511C113.781 68.8511 114.529 68.8759 115.028 68.9259C115.927 68.9259 116.875 69.0007 117.872 69.1504Z" fill="#222831"/>
<path d="M117.798 152.375C120.492 143.144 121.615 132.666 121.165 120.941C120.716 109.166 118.496 97.0667 114.505 84.6427C112.06 77.0091 109.166 70.0487 105.823 63.7616C102.48 57.4251 98.7626 51.4876 94.6715 45.9493C92.5261 42.8558 90.6547 41.833 89.0583 42.8808C87.7111 43.7789 87.8608 45.4753 89.5072 47.97C93.299 53.2588 96.7668 58.9219 99.9101 64.9592C103.054 70.9464 105.773 77.508 108.068 84.6427C111.96 96.7669 114.155 108.567 114.654 120.043C115.203 131.469 114.23 141.747 111.736 150.878C110.638 154.67 111.087 156.84 113.083 157.389C114.978 157.838 116.551 156.167 117.798 152.375ZM84.7175 68.9259C82.2228 66.7806 79.7776 65.3085 77.3831 64.5103C75.038 63.7116 73.4163 63.8364 72.518 64.8844C71.5702 65.9323 71.645 67.6035 72.7425 69.8991C73.89 72.144 75.7113 74.3147 78.206 76.41C80.6512 78.5554 83.0458 80.0274 85.3908 80.8256C87.786 81.6238 89.4324 81.4995 90.3307 80.4516C91.2285 79.4537 91.1289 77.832 90.0309 75.5871C88.9335 73.3416 87.1621 71.1214 84.7175 68.9259ZM134.188 103.877C135.934 103.977 136.807 103.103 136.807 101.258C136.807 100.01 136.184 99.162 134.936 98.7131C133.29 97.9644 131.593 97.3907 129.847 96.9919C128.051 96.5925 126.23 96.3427 124.384 96.2432C122.687 96.1931 121.839 97.0414 121.839 98.7879C121.839 100.534 122.712 101.407 124.459 101.407C125.007 101.457 126.404 101.707 128.65 102.156C130.546 102.605 132.392 103.179 134.188 103.877ZM137.481 124.459C137.881 124.658 138.255 124.758 138.604 124.758C140.3 124.758 141.149 123.885 141.149 122.138C141.149 121.091 140.674 120.318 139.727 119.819C138.13 118.87 136.284 118.047 134.188 117.349C132.092 116.65 129.922 116.176 127.677 115.927C125.93 115.927 125.057 116.8 125.057 118.546C125.057 120.292 125.905 121.166 127.602 121.166C129.448 121.565 131.095 121.989 132.541 122.438C134.138 122.937 135.785 123.61 137.481 124.459ZM139.651 144.292C139.801 144.391 140.026 144.442 140.325 144.442C142.022 144.442 142.87 143.569 142.87 141.822C142.87 141.024 142.521 140.35 141.822 139.801C139.776 138.255 137.656 137.007 135.461 136.059C132.766 134.962 130.346 134.288 128.2 134.039C126.505 134.039 125.656 134.887 125.656 136.583C125.656 137.83 126.205 138.654 127.303 139.053C129.349 139.452 131.369 140.076 133.365 140.924C135.71 141.972 137.806 143.094 139.651 144.292ZM125.881 83.8941C127.527 83.8941 128.351 83.0211 128.351 81.2751C128.351 80.0274 127.752 79.1792 126.554 78.7303C125.507 78.4806 124.633 78.2809 123.934 78.1312C121.889 77.8821 120.143 77.7819 118.696 77.832C117.598 78.2809 117.049 79.1044 117.049 80.3019C117.049 82.0479 117.798 82.9462 119.294 82.9963C120.642 82.9963 121.939 83.1206 123.186 83.3704C123.785 83.52 124.683 83.6949 125.881 83.8941ZM117.872 69.1504C118.97 68.6514 119.519 67.8532 119.519 66.7552C119.519 65.0092 118.671 64.1357 116.974 64.1357C116.625 64.1357 116.4 64.1357 116.301 64.1357C116.201 64.1357 116.002 64.1109 115.702 64.0609C114.904 64.0114 113.656 64.0361 111.96 64.1357C110.912 64.5851 110.388 65.3833 110.388 66.5308C110.388 68.0777 111.187 68.8511 112.783 68.8511C113.781 68.8511 114.529 68.8759 115.028 68.9259C115.927 68.9259 116.875 69.0007 117.872 69.1504Z" fill="#F58634"/>
</svg>
