<svg width="180" height="180" viewBox="0 0 180 180" fill="none" xmlns="http://www.w3.org/2000/svg">
<path d="M50.8889 157.614C57.924 143.843 66.8053 132.866 77.5327 124.683C82.6217 120.791 86.5389 115.877 89.2828 109.939C84.7924 111.985 80.0775 113.133 75.1376 113.382C66.9549 113.931 60.6684 117.424 56.2776 123.86L33.75 102.829L91.1537 33.75C93.3491 36.1948 95.7443 38.3653 98.3391 40.2613C100.933 42.1573 103.204 44.5522 105.149 47.4461L114.131 40.1116C116.126 38.3653 117.623 37.7665 118.621 38.3154C119.569 38.964 119.644 40.5606 118.846 43.1053L115.777 52.6102C124.259 63.2379 131.244 75.3373 136.733 88.9087C141.423 100.684 144.541 112.285 146.088 123.71C147.685 135.086 147.809 145.49 146.462 154.919C135.386 159.11 123.885 161.905 111.96 163.302C100.584 164.699 89.6822 164.873 79.254 163.826C68.8258 162.778 59.3708 160.707 50.8889 157.614ZM57.7744 154.695C73.7904 159.435 91.6526 160.633 111.361 158.287C112.01 158.237 112.683 158.163 113.382 158.063C114.081 157.913 114.779 157.789 115.478 157.688C118.92 148.408 120.592 137.356 120.492 124.534C120.392 111.711 118.247 98.3886 114.056 84.5679C111.361 75.8362 108.093 67.9776 104.251 60.9924C100.459 53.9574 96.2432 47.4711 91.6031 41.5336L74.7636 61.7411C78.5059 61.0926 82.4721 62.2896 86.6633 65.3333C89.8071 67.6288 91.9772 70.2979 93.1747 73.3416C94.3723 76.3852 94.2474 78.8799 92.8007 80.8256C91.3534 82.8714 89.0083 83.7945 85.7655 83.5948C82.5221 83.3456 79.3288 82.0733 76.1856 79.7777C71.6451 76.6344 69.2252 72.9675 68.9259 68.7763L40.86 102.53L55.8285 116.6C61.1173 111.611 67.4539 108.841 74.8384 108.293C84.3182 107.844 92.2269 104.027 98.5635 96.8417C100.41 94.4471 102.006 93.7485 103.353 94.7464C104.601 95.8438 104.326 97.5403 102.53 99.8359C100.484 102.23 98.1889 104.376 95.6447 106.272C92.9503 115.153 87.8608 122.463 80.3767 128.201C71.5455 134.986 64.0114 143.818 57.7744 154.695ZM108.592 58.2981L111.511 49.3172L106.197 53.9574C106.946 55.4542 107.744 56.9014 108.592 58.2981ZM119.07 65.7827C117.124 62.7885 115.403 60.3191 113.906 58.3729L111.885 64.6599C112.035 65.2584 112.21 65.6325 112.409 65.7827C113.707 65.6325 115.353 65.583 117.349 65.6331C117.698 65.6331 118.272 65.6826 119.07 65.7827ZM126.554 78.5807C124.758 75.2873 123.386 72.8179 122.438 71.1709C121.191 70.9217 119.245 70.6719 116.6 70.4227C115.103 70.4227 114.355 70.4227 114.355 70.4227C115.503 73.2667 116.45 75.7614 117.199 77.9068C119.344 77.7572 121.59 77.832 123.935 78.1313C125.132 78.3309 126.006 78.4806 126.554 78.5807ZM134.936 98.6383C133.789 95.3949 132.816 92.8007 132.018 90.8544C131.519 89.5573 130.72 87.6116 129.623 85.0168C127.727 84.3182 125.581 83.7697 123.186 83.3704C121.191 83.1707 119.769 83.0711 118.92 83.0711C120.417 88.3597 121.54 92.7506 122.288 96.2432C124.484 96.1436 127.003 96.3928 129.847 96.9919C131.843 97.4908 133.54 98.0392 134.936 98.6383ZM140.55 120.342C139.701 115.453 138.579 110.563 137.182 105.673C135.236 104.276 132.392 103.104 128.65 102.156C126.754 101.707 125.008 101.482 123.411 101.482C124.209 106.871 124.783 111.661 125.132 115.852C128.176 115.852 131.195 116.351 134.188 117.349C136.583 118.147 138.704 119.145 140.55 120.342ZM125.132 133.814C128.575 133.814 132.018 134.562 135.461 136.059C138.055 137.157 140.4 138.604 142.496 140.4C142.396 136.259 142.096 131.943 141.598 127.452C140.001 125.606 136.982 123.935 132.542 122.438C129.698 121.59 127.327 121.116 125.432 121.016C125.481 125.756 125.382 130.022 125.132 133.814ZM83.6696 69.7489C78.8799 66.2563 75.7367 65.5082 74.2399 67.5039C73.6408 68.3522 73.8157 69.5993 74.7636 71.2457C75.7614 72.8426 77.283 74.3394 79.3288 75.7367C81.2745 77.2335 83.1459 78.2061 84.942 78.6555C86.7881 79.1044 88.0104 78.8799 88.6095 77.9816C89.208 77.1834 89.0083 75.9859 88.0104 74.3895C87.0626 72.7431 85.6159 71.1962 83.6696 69.7489ZM120.866 156.791C124.309 156.142 127.677 155.393 130.97 154.545C130.771 154.446 129.922 153.947 128.425 153.048C126.03 151.901 124.059 151.103 122.513 150.653C122.114 152.549 121.565 154.595 120.866 156.791ZM123.56 145.639C125.956 146.138 128.425 147.036 130.97 148.333C133.415 149.73 135.461 151.202 137.107 152.749C137.905 152.549 138.703 152.325 139.502 152.075C140.35 151.776 141.198 151.477 142.046 151.177C142.046 150.578 142.072 149.98 142.121 149.381C142.221 148.732 142.296 148.084 142.346 147.435C141.298 145.24 138.305 143.07 133.365 140.924C130.171 139.627 127.303 138.878 124.758 138.679C124.309 141.622 123.91 143.943 123.56 145.639Z" fill="#222831"/>
<path d="M57.7744 154.695C73.7904 159.435 91.6526 160.633 111.361 158.287C112.01 158.237 112.683 158.163 113.382 158.062C114.081 157.913 114.779 157.789 115.477 157.688C118.92 148.408 120.592 137.356 120.492 124.534C120.392 111.71 118.246 98.3886 114.055 84.5679C111.361 75.8362 108.093 67.9775 104.251 60.9924C100.459 53.9572 96.2432 47.4709 91.6031 41.5335L74.7635 61.7411C78.5053 61.092 82.472 62.2896 86.6632 65.3332C89.8065 67.6282 91.9772 70.2979 93.1747 73.3416C94.3723 76.3852 94.2474 78.8799 92.8001 80.8256C91.3534 82.8714 89.0083 83.7945 85.7649 83.5948C82.5221 83.3451 79.3288 82.0732 76.1855 79.7777C71.645 76.6344 69.2252 72.9669 68.9259 68.7757L40.8599 102.53L55.8283 116.6C61.1173 111.611 67.4538 108.841 74.8383 108.292C84.3182 107.844 92.2264 104.026 98.5629 96.8417C100.409 94.4471 102.006 93.7485 103.353 94.7464C104.6 95.8438 104.326 97.5403 102.53 99.8353C100.484 102.23 98.1889 104.376 95.6441 106.272C92.9497 115.153 87.8608 122.463 80.3767 128.2C71.5449 134.986 64.0108 143.818 57.7744 154.695ZM108.592 58.2981L111.511 49.3171L106.197 53.9572C106.945 55.4541 107.744 56.9008 108.592 58.2981ZM119.07 65.7821C117.124 62.7885 115.402 60.3191 113.906 58.3729L111.885 64.6599C112.035 65.2584 112.209 65.6325 112.409 65.7821C113.706 65.6325 115.353 65.583 117.349 65.6325C117.698 65.6325 118.272 65.6826 119.07 65.7821ZM126.554 78.5801C124.758 75.2872 123.386 72.8173 122.438 71.1709C121.191 70.9217 119.244 70.6719 116.6 70.4227C115.103 70.4227 114.355 70.4227 114.355 70.4227C115.503 73.2667 116.45 75.7614 117.199 77.9068C119.344 77.7572 121.589 77.832 123.934 78.1312C125.132 78.3309 126.005 78.4806 126.554 78.5801ZM134.936 98.6383C133.789 95.3949 132.816 92.8001 132.018 90.8544C131.519 89.5573 130.72 87.6111 129.622 85.0168C127.727 84.3182 125.581 83.7692 123.186 83.3704C121.191 83.1707 119.769 83.0711 118.92 83.0711C120.417 88.3597 121.54 92.7506 122.288 96.2432C124.483 96.1436 127.003 96.3928 129.847 96.9913C131.843 97.4902 133.539 98.0392 134.936 98.6383ZM140.55 120.342C139.701 115.453 138.579 110.563 137.182 105.673C135.236 104.276 132.392 103.103 128.65 102.156C126.754 101.707 125.007 101.482 123.411 101.482C124.209 106.87 124.783 111.661 125.132 115.852C128.176 115.852 131.194 116.351 134.188 117.349C136.583 118.147 138.703 119.145 140.55 120.342ZM125.132 133.814C128.575 133.814 132.018 134.562 135.46 136.059C138.055 137.157 140.4 138.604 142.495 140.4C142.396 136.259 142.096 131.943 141.598 127.452C140.001 125.606 136.982 123.934 132.541 122.438C129.697 121.589 127.327 121.116 125.431 121.016C125.481 125.756 125.382 130.022 125.132 133.814ZM83.6696 69.7489C78.8799 66.2563 75.7361 65.5082 74.2393 67.5039C73.6408 68.3522 73.8152 69.5992 74.7635 71.2457C75.7614 72.8426 77.283 74.3394 79.3288 75.7361C81.2745 77.2329 83.1459 78.2061 84.942 78.6549C86.7881 79.1044 88.0104 78.8799 88.6089 77.9816C89.208 77.1834 89.0083 75.9859 88.0104 74.3889C87.0626 72.7425 85.6153 71.1962 83.6696 69.7489ZM120.866 156.791C124.309 156.142 127.677 155.393 130.97 154.545C130.77 154.446 129.922 153.947 128.425 153.048C126.03 151.901 124.059 151.103 122.512 150.653C122.114 152.549 121.565 154.595 120.866 156.791ZM123.56 145.639C125.956 146.138 128.425 147.036 130.97 148.333C133.415 149.73 135.46 151.202 137.107 152.749C137.905 152.549 138.703 152.325 139.502 152.075C140.35 151.776 141.198 151.477 142.046 151.177C142.046 150.578 142.072 149.98 142.121 149.381C142.221 148.732 142.296 148.084 142.346 147.435C141.298 145.24 138.305 143.07 133.365 140.924C130.171 139.627 127.303 138.878 124.758 138.679C124.309 141.622 123.91 143.943 123.56 145.639Z" fill="#FFD369"/>
</svg>
