<svg width="180" height="180" viewBox="0 0 180 180" fill="none" xmlns="http://www.w3.org/2000/svg">
<path d="M43.2431 136.445L63.675 80.2389H47.2846L28.125 39.375H53.5713L60.6814 54.568H77.9698V39.375H100.946V54.568H118.16L125.27 39.375H150.716L131.557 80.2389H115.166L135.598 136.445H144.804C146.101 136.445 146.9 136.745 147.199 137.343C147.349 137.842 147.224 138.391 146.825 138.99L136.122 161.966H89.4206H42.5696L31.7923 138.99C31.3432 138.491 31.2434 137.917 31.4929 137.269C31.7923 136.67 32.6405 136.396 34.0375 136.445H43.2431ZM72.8055 100.671H106.036V116.013H72.8055V100.671ZM89.4206 75.1494H68.9889V80.2389H86.8759V95.5817H63.5254L61.6545 100.671H67.7166V116.013H56.0411L54.1701 121.103H86.8759V136.445H48.5569V141.535H130.285V136.445H91.9654V121.103H124.671L122.875 116.013H111.125V100.671H117.187L115.316 95.5817H91.9654V80.2389H109.853V75.1494H89.4206Z" fill="#222831"/>
<path d="M72.8055 100.671H106.036V116.013H72.8055V100.671ZM89.4206 75.1494H68.989V80.2389H86.8759V95.5811H63.5254L61.654 100.671H67.7166V116.013H56.041L54.17 121.102H86.8759V136.445H48.5568V141.535H130.285V136.445H91.9654V121.102H124.671L122.875 116.013H111.125V100.671H117.187L115.316 95.5811H91.9654V80.2389H109.852V75.1494H89.4206Z" fill="#F58634"/>
</svg>
