<svg width="180" height="180" viewBox="0 0 180 180" fill="none" xmlns="http://www.w3.org/2000/svg">
<path d="M89.4206 141.535H38.6029L45.7877 156.952H89.4206H132.904L140.089 141.535H89.4206ZM89.4206 75.1494H128.488L142.783 44.3894H128.488L121.229 59.8815H95.7825V44.3894H83.0593V59.8815H57.5381L50.3531 44.3894H35.9834L50.3531 75.1494H89.4206ZM86.8759 95.5817V80.2389H68.9889L63.5254 95.5817H86.8759ZM91.9654 95.5817H115.316L109.853 80.2389H91.9654V95.5817ZM72.8055 100.671V116.013H106.036V100.671H72.8055ZM111.125 116.013H122.875L117.187 100.671H111.125V116.013ZM67.7166 116.013V100.671H61.5797L56.0411 116.013H67.7166ZM86.8759 136.445V121.103H54.1701L48.5569 136.445H86.8759ZM91.9654 136.445H130.285L124.671 121.103H91.9654V136.445ZM43.2431 136.445L63.675 80.2389H47.2846L28.125 39.375H53.5713L60.6814 54.568H77.9698V39.375H100.946V54.568H118.16L125.27 39.375H150.716L131.557 80.2389H115.166L135.598 136.445H144.804C146.101 136.445 146.9 136.745 147.199 137.343C147.349 137.842 147.224 138.391 146.825 138.99L136.122 161.966H89.4206H42.5696L31.7923 138.99C31.3432 138.491 31.2434 137.917 31.4929 137.269C31.7923 136.67 32.6405 136.396 34.0375 136.445H43.2431Z" fill="#222831"/>
<path d="M89.4207 141.535H38.603L45.7879 156.952H89.4207H132.904L140.089 141.535H89.4207ZM89.4207 75.1494H128.489L142.783 44.3896H128.489L121.229 59.8821H95.7825V44.3896H83.0593V59.8821H57.5382L50.3532 44.3896H35.9835L50.3532 75.1494H89.4207ZM86.8765 95.5817V80.2389H68.989L63.5254 95.5817H86.8765ZM91.9654 95.5817H115.316L109.853 80.2389H91.9654V95.5817ZM72.8061 100.671V116.013H106.036V100.671H72.8061ZM111.125 116.013H122.875L117.187 100.671H111.125V116.013ZM67.7166 116.013V100.671H61.5797L56.0412 116.013H67.7166ZM86.8765 136.446V121.103H54.1702L48.557 136.446H86.8765ZM91.9654 136.446H130.285L124.671 121.103H91.9654V136.446Z" fill="#FFD369"/>
</svg>
