<svg width="180" height="180" viewBox="0 0 180 180" fill="none" xmlns="http://www.w3.org/2000/svg">
<path d="M125.301 105.374L125.139 141.46H53.1306V104.969L89.2159 86.1559L125.301 105.374ZM101.623 61.2613V68.8027L144.438 91.6701V160.84H33.75V91.6701L76.7278 68.9647V61.2613H53.1306V36.3665H76.7278V22.5H101.623V36.3665H125.139V61.2613H101.623ZM119.706 108.213L89.3779 92.0756L58.5636 108.213V135.946H119.706V108.213ZM96.1088 72.2087L96.0272 55.7471H119.706V41.8806H96.0272V28.0141H82.242V41.8806H58.5636V55.7471H82.242L82.161 72.3707L39.2642 95.4006V155.326H139.006V94.995L96.1088 72.2087Z" fill="#24222D"/>
<path d="M125.301 105.374L125.139 141.46H53.131V104.969L89.2164 86.1559L125.301 105.374ZM96.1087 72.2087L96.0277 55.7471H119.706V41.8807H96.0277V28.0142H82.2425V41.8807H58.5641V55.7471H82.2425L82.1615 72.3707L39.2646 95.4006V155.326H139.006V94.995L96.1087 72.2087Z" fill="#FDC57B"/>
</svg>
