<svg width="180" height="180" viewBox="0 0 180 180" fill="none" xmlns="http://www.w3.org/2000/svg">
<path d="M125.301 105.096C125.247 111.097 125.193 117.125 125.139 123.18C125.139 129.18 125.139 135.181 125.139 141.181C113.138 141.181 101.136 141.181 89.1349 141.181C77.1334 141.181 65.1319 141.181 53.1307 141.181C53.1307 135.127 53.1307 129.072 53.1307 123.017C53.1307 116.908 53.1307 110.8 53.1307 104.691C59.1311 101.609 65.1319 98.5011 71.1326 95.3651C77.1874 92.1758 83.2151 89.0134 89.2159 85.878C95.2166 89.1214 101.217 92.3378 107.218 95.5277C113.219 98.7171 119.247 101.906 125.301 105.096H125.301ZM139.006 94.7166L89.3779 68.2813L39.2641 95.1221V155.048H139.006V94.7166ZM33.75 91.3922L89.3779 61.875L144.438 91.3922V160.562H33.75V91.3922ZM89.2159 91.7162C84.0803 94.4196 78.9446 97.1224 73.8084 99.8252C68.7268 102.529 63.6452 105.231 58.5636 107.934C58.5636 112.584 58.5636 117.233 58.5636 121.882C58.5636 126.477 58.5636 131.072 58.5636 135.667C68.7268 135.667 78.8901 135.667 89.0539 135.667C99.2711 135.667 109.488 135.667 119.706 135.667C119.706 131.072 119.706 126.477 119.706 121.882C119.706 117.233 119.706 112.584 119.706 107.934C114.57 105.231 109.461 102.529 104.38 99.8252C99.2981 97.1224 94.2435 94.4196 89.2159 91.7162Z" fill="#24222D"/>
<path d="M125.301 105.096C125.247 111.097 125.193 117.125 125.139 123.18C125.139 129.18 125.139 135.181 125.139 141.181C113.138 141.181 101.137 141.181 89.1354 141.181C77.1339 141.181 65.1325 141.181 53.1312 141.181C53.1312 135.127 53.1312 129.072 53.1312 123.017C53.1312 116.908 53.1312 110.8 53.1312 104.691C59.1317 101.609 65.1324 98.5011 71.1332 95.3657C77.1879 92.1758 83.2157 89.0134 89.2164 85.878C95.2172 89.1214 101.218 92.3383 107.219 95.5277C113.219 98.7171 119.247 101.907 125.301 105.096ZM139.006 94.7166L89.3784 68.2813L39.2646 95.1221V155.048H139.006V94.7166Z" fill="#FDC57B"/>
</svg>
