<svg width="32" height="32" viewBox="0 0 32 32" fill="none" xmlns="http://www.w3.org/2000/svg">
<path d="M16.0057 6C16.2845 6.10136 17.9569 7.44441 21.0231 10.0291L21.0992 10.4093C21.0992 10.574 20.5924 12.1451 19.5787 15.1226C20.4403 16.0349 20.8711 17.1498 20.8711 18.4676C20.8711 19.5699 20.5163 20.5835 19.8068 21.5084C21.1245 21.6731 21.7834 22.0786 21.7834 22.7248C21.7834 23.3456 20.5924 23.7764 18.2103 24.0171C18.3877 24.8787 18.8185 25.3095 19.5027 25.3095C20.2883 25.4615 20.8458 25.6896 21.1752 25.9937C21.682 26.3231 21.9354 27.4635 21.9354 29.4147C21.8467 29.9722 21.5933 30.2509 21.1752 30.2509H10.7602C10.2534 30.1876 10 29.9342 10 29.4907V28.8065C10 27.2607 10.3294 26.2471 10.9883 25.7656L13.1929 25.0814C13.497 24.8154 13.649 24.4353 13.649 23.9411C11.3684 23.8017 10.2281 23.4216 10.2281 22.8008V22.5727C10.2281 22.0152 10.8616 21.6605 12.1286 21.5084C11.4191 20.5455 11.0643 19.5825 11.0643 18.6196V18.2395C11.0643 17.1879 11.4951 16.1236 12.3567 15.0466C11.343 12.1451 10.8362 10.5993 10.8362 10.4093C10.8362 10.0798 11.4191 9.497 12.5847 8.66076C14.6627 6.88692 15.7776 6 15.9297 6H16.0057ZM12.1286 10.7133C12.9902 13.032 13.497 14.5271 13.649 15.1986C13.649 15.4267 13.3703 15.8575 12.8128 16.491C12.458 17.1118 12.2806 17.6947 12.2806 18.2395V18.6196C12.2806 19.6839 12.8635 20.6975 14.0291 21.6605C14.0798 21.7492 14.1052 21.8505 14.1052 21.9645C14.1052 22.37 13.7251 22.5727 12.9648 22.5727C12.9648 22.6741 13.0409 22.7248 13.1929 22.7248C14.4093 22.7248 15.0174 22.9528 15.0174 23.409C15.0174 25.2081 14.2065 26.2471 12.5847 26.5258C11.7232 26.6145 11.2924 26.9946 11.2924 27.6662C11.2417 27.9322 11.2163 28.2363 11.2163 28.5784V29.0346H20.7191V28.7305C20.7191 27.3621 20.415 26.6779 19.8068 26.6779C18.8312 26.4752 18.1216 26.1711 17.6782 25.7656C17.1714 25.0181 16.918 24.2072 16.918 23.3329C16.918 22.9275 17.5768 22.7248 18.8945 22.7248L18.9706 22.5727C18.2103 22.5727 17.8302 22.3447 17.8302 21.8885C17.8302 21.7492 18.2357 21.293 19.0466 20.5201C19.452 19.8106 19.6548 19.1264 19.6548 18.4676V18.3915C19.6548 17.3779 19.2493 16.4656 18.4384 15.6548C18.337 15.49 18.2864 15.338 18.2864 15.1986C18.2864 15.0973 18.7932 13.5515 19.8068 10.5613L16.0057 7.44441H15.9297C13.4463 9.45898 12.1793 10.5486 12.1286 10.7133ZM15.9297 8.88882H16.0057C16.5632 8.88882 16.8419 9.31961 16.8419 10.1812V10.2572H17.2221C17.8809 10.3206 18.2103 10.574 18.2103 11.0174V11.1695C18.2103 11.6763 17.7542 11.9297 16.8419 11.9297V13.07C16.7659 13.7796 16.4872 14.1343 16.0057 14.1343H15.9297C15.4736 14.1343 15.1948 13.8302 15.0935 13.2221V11.9297H15.0174C14.1052 11.9297 13.649 11.6256 13.649 11.0174C13.8264 10.5106 14.1812 10.2572 14.7133 10.2572H15.0935V9.80108C15.2328 9.19291 15.5116 8.88882 15.9297 8.88882Z" fill="#EEEEEE"/>
<path d="M12.1285 10.7133C12.9901 13.032 13.4969 14.5271 13.6489 15.1986C13.6489 15.4267 13.3702 15.8575 12.8127 16.491C12.4579 17.1118 12.2806 17.6947 12.2806 18.2395V18.6196C12.2806 19.6839 12.8634 20.6975 14.029 21.6605C14.0797 21.7492 14.1051 21.8505 14.1051 21.9646C14.1051 22.37 13.725 22.5727 12.9647 22.5727C12.9647 22.6741 13.0408 22.7248 13.1928 22.7248C14.4092 22.7248 15.0173 22.9528 15.0173 23.409C15.0173 25.2081 14.2064 26.2471 12.5846 26.5259C11.7231 26.6145 11.2923 26.9947 11.2923 27.6662C11.2416 27.9323 11.2162 28.2363 11.2162 28.5784V29.0346H20.719V28.7305C20.719 27.3621 20.4149 26.6779 19.8067 26.6779C18.8311 26.4752 18.1215 26.1711 17.6781 25.7656C17.1713 25.0181 16.9179 24.2072 16.9179 23.3329C16.9179 22.9275 17.5767 22.7248 18.8944 22.7248L18.9705 22.5727C18.2102 22.5727 17.8301 22.3447 17.8301 21.8885C17.8301 21.7492 18.2356 21.293 19.0465 20.5201C19.4519 19.8106 19.6547 19.1264 19.6547 18.4676V18.3915C19.6547 17.3779 19.2492 16.4657 18.4383 15.6548C18.3369 15.49 18.2863 15.338 18.2863 15.1986C18.2863 15.0973 18.7931 13.5515 19.8067 10.5613L16.0056 7.44441H15.9296C13.4462 9.45899 12.1792 10.5486 12.1285 10.7133ZM15.9296 8.88882H16.0056C16.5631 8.88882 16.8419 9.31961 16.8419 10.1812V10.2572H17.222C17.8808 10.3206 18.2102 10.574 18.2102 11.0174V11.1695C18.2102 11.6763 17.7541 11.9297 16.8419 11.9297V13.07C16.7658 13.7796 16.4871 14.1343 16.0056 14.1343H15.9296C15.4735 14.1343 15.1947 13.8302 15.0934 13.2221V11.9297H15.0173C14.1051 11.9297 13.6489 11.6256 13.6489 11.0174C13.8263 10.5106 14.1811 10.2572 14.7132 10.2572H15.0934V9.80108C15.2327 9.19291 15.5115 8.88882 15.9296 8.88882Z" fill="black"/>
</svg>
