<svg width="32" height="32" viewBox="0 0 32 32" fill="none" xmlns="http://www.w3.org/2000/svg">
<path d="M17.0583 11C19.415 11 21.3155 12.5204 22.7599 15.5613C22.912 16.1061 22.988 16.5623 22.988 16.9297V17.3858C22.988 18.6022 22.2531 20.8068 20.7834 23.9997C20.4793 25.064 20.3272 25.9002 20.3272 26.5084C20.3272 27.522 20.7327 28.561 21.5436 29.6253V29.8534C21.5436 30.2588 21.3409 30.4615 20.9354 30.4615H10.5204C9.97561 30.4615 9.62085 29.9547 9.45613 28.9411C9.30409 28.3456 9.22807 27.6614 9.22807 26.8885V26.6605C9.22807 24.5699 10.0136 22.8974 11.5847 21.643C11.0653 21.643 10.6091 21.3136 10.2163 20.6548C9.40545 19.8439 9 19.2864 9 18.9823C9 18.7922 10.0896 17.7279 12.2689 15.7894L12.421 15.5613C11.8635 15.0291 11.5847 14.649 11.5847 14.421V14.345C11.8762 13.5087 12.8138 12.6218 14.3975 11.6842C15.2845 11.2281 16.1714 11 17.0583 11ZM12.9531 14.421C13.5613 14.9278 13.8654 15.3332 13.8654 15.6373C13.8654 15.9287 13.3332 16.5116 12.2689 17.3858L10.4444 19.1343C11.1539 19.9452 11.5341 20.3507 11.5847 20.3507L15.3098 19.1343C15.6646 19.2864 15.842 19.5144 15.842 19.8185C15.8166 20.0973 14.955 20.7561 13.2572 21.7951C11.5341 23.2141 10.6725 24.3291 10.6725 25.14C10.5458 25.14 10.4698 25.6722 10.4444 26.7365V26.9646C10.5078 28.3329 10.6598 29.0932 10.9005 29.2452H19.8711C19.3643 28.3963 19.1109 27.4587 19.1109 26.4324C19.1109 25.1147 19.8458 22.834 21.3155 19.5904C21.6196 18.6655 21.7716 17.956 21.7716 17.4618V16.9297C21.7716 15.6753 20.9861 14.383 19.415 13.0526C18.6421 12.4951 17.8058 12.2163 16.9063 12.2163C15.5632 12.2163 14.2455 12.9512 12.9531 14.421Z" fill="#EEEEEE"/>
<path d="M12.9531 14.421C13.5613 14.9278 13.8654 15.3332 13.8654 15.6373C13.8654 15.9287 13.3332 16.5116 12.2689 17.3858L10.4444 19.1343C11.1539 19.9452 11.534 20.3507 11.5847 20.3507L15.3098 19.1343C15.6646 19.2864 15.8419 19.5144 15.8419 19.8185C15.8166 20.0973 14.955 20.7561 13.2572 21.7951C11.534 23.2141 10.6725 24.3291 10.6725 25.14C10.5458 25.14 10.4697 25.6722 10.4444 26.7365V26.9645C10.5077 28.3329 10.6598 29.0931 10.9005 29.2452H19.8711C19.3643 28.3963 19.1109 27.4587 19.1109 26.4324C19.1109 25.1147 19.8457 22.834 21.3155 19.5904C21.6196 18.6655 21.7716 17.956 21.7716 17.4618V16.9297C21.7716 15.6753 20.9861 14.383 19.415 13.0526C18.6421 12.4951 17.8058 12.2163 16.9062 12.2163C15.5632 12.2163 14.2455 12.9512 12.9531 14.421Z" fill="black"/>
</svg>
