<svg width="32" height="32" viewBox="0 0 32 32" fill="none" xmlns="http://www.w3.org/2000/svg">
<path d="M16.0057 14C17.8176 14 19.1353 15.0136 19.9588 17.0409L20.1109 18.1052C20.1109 19.5623 19.4267 20.7533 18.0583 21.6782C18.0583 23.9208 18.5144 25.2385 19.4267 25.6313C20.7191 25.8467 21.3779 26.1508 21.4032 26.5436C21.7073 26.7843 21.8594 27.2911 21.8594 28.064V29.6605C21.8594 30.0659 21.6567 30.2686 21.2512 30.2686H10.6842C10.2281 30.2053 10 29.9772 10 29.5844V28.4441C10 26.6196 10.7856 25.7073 12.3567 25.7073C12.7114 25.7073 13.0662 25.3272 13.421 24.567C13.6744 23.6041 13.8011 22.6665 13.8011 21.7542V21.6022C12.4834 20.7659 11.8245 19.6509 11.8245 18.2572V18.0291C11.8245 17.0029 12.23 16.0653 13.0409 15.2163C13.8898 14.4054 14.8781 14 16.0057 14ZM13.0409 18.1052C13.0409 19.3088 13.649 20.2464 14.8654 20.918C14.9667 21.0827 15.0174 21.2347 15.0174 21.3741V21.4501C15.0174 24.4023 14.3839 26.1508 13.1169 26.6956C11.9005 26.8983 11.2924 27.1771 11.2924 27.5319C11.2417 27.874 11.2163 28.1527 11.2163 28.3681V29.0523H20.643V27.912C20.643 27.2024 20.1362 26.8477 19.1226 26.8477C18.4131 26.5943 17.8556 26.0874 17.4501 25.3272C17.0447 24.0855 16.8419 22.7425 16.8419 21.2981C16.8419 21.0954 17.2474 20.7152 18.0583 20.1578C18.6158 19.5242 18.8945 18.84 18.8945 18.1052C18.8945 16.6354 18.0076 15.6725 16.2338 15.2163H15.8537C14.5486 15.2163 13.611 16.0019 13.0409 17.573V18.1052Z" fill="black"/>
<path d="M13.0409 18.1052C13.0409 19.3088 13.6491 20.2464 14.8654 20.918C14.9668 21.0827 15.0175 21.2347 15.0175 21.3741V21.4501C15.0175 24.4023 14.3839 26.1508 13.1169 26.6956C11.9006 26.8983 11.2924 27.1771 11.2924 27.5319C11.2417 27.8739 11.2164 28.1527 11.2164 28.3681V29.0523H20.6431V27.912C20.6431 27.2024 20.1362 26.8477 19.1226 26.8477C18.4131 26.5942 17.8556 26.0874 17.4501 25.3272C17.0447 24.0855 16.842 22.7425 16.842 21.2981C16.842 21.0953 17.2474 20.7152 18.0583 20.1577C18.6158 19.5242 18.8946 18.84 18.8946 18.1052C18.8946 16.6354 18.0076 15.6725 16.2338 15.2163H15.8537C14.5487 15.2163 13.6111 16.0019 13.0409 17.573V18.1052Z" fill="white"/>
</svg>
