<svg width="32" height="32" viewBox="0 0 32 32" fill="none" xmlns="http://www.w3.org/2000/svg">
<path d="M16.5379 5C16.9306 5 17.3614 6.05389 17.8302 8.16167C17.9316 8.16167 17.9823 8.27622 17.9823 8.50533C19.0086 7.81801 19.6421 7.47435 19.8828 7.47435C20.3389 7.47435 20.567 7.93256 20.567 8.84899L20.7191 10.5673C21.5553 10.4298 22.1128 10.3611 22.3915 10.3611C22.7083 10.3611 22.8857 10.5444 22.9237 10.9109C22.9237 11.014 22.2141 12.572 20.7951 15.5847C21.2005 16.3408 21.4033 17.051 21.4033 17.7154C21.4033 18.7464 20.9978 19.7086 20.1869 20.6021C21.3906 20.6021 22.1001 20.9458 22.3155 21.6331C22.3155 22.2975 21.1245 22.7099 18.7425 22.8703C18.7425 24.1189 19.8068 25.7456 21.9354 27.7503C22.2395 28.2428 22.3915 28.7011 22.3915 29.1249V30.2246C22.3282 30.637 22.1001 30.8432 21.7073 30.8432H11.2163C10.7602 30.7859 10.5322 30.5797 10.5322 30.2246V29.1936C10.5322 28.2543 11.191 27.2233 12.5087 26.1007C13.6237 24.875 14.1812 23.7982 14.1812 22.8703V22.8016H14.1052C12.0272 22.8016 10.8616 22.435 10.6082 21.7019V21.5644C10.9503 20.9229 11.6598 20.6021 12.7368 20.6021C11.9259 19.6628 11.5204 18.7006 11.5204 17.7154C11.5204 17.2343 11.7232 16.5011 12.1286 15.516C10.7095 12.5261 10 10.9911 10 10.9109C10 10.5444 10.2027 10.3611 10.6082 10.3611C10.8362 10.3611 11.3684 10.4298 12.2046 10.5673C12.3567 8.59697 12.4834 7.61181 12.5847 7.61181C12.7495 7.52017 12.9015 7.47435 13.0409 7.47435C13.2563 7.47435 13.8644 7.7951 14.8654 8.4366H15.0174C15.5623 6.19135 15.9677 5.06873 16.2338 5.06873C16.3225 5.02291 16.4238 5 16.5379 5ZM15.3215 9.87997H15.2455C15.0681 9.87997 14.5106 9.58213 13.573 8.98645C13.5097 10.8193 13.3069 11.7357 12.9648 11.7357H12.7368C12.6227 11.7357 12.2426 11.6899 11.5965 11.5983L13.497 15.5847C12.9902 16.5126 12.7368 17.2228 12.7368 17.7154C12.7368 18.7922 13.3703 19.8003 14.6373 20.7396C14.688 20.8198 14.7133 20.9114 14.7133 21.0145C14.7133 21.4269 14.2572 21.6331 13.345 21.6331V21.7019C14.764 21.7019 15.4736 21.8622 15.4736 22.183V22.5266C15.4736 24.1991 14.4346 25.9861 12.3567 27.8877C11.9512 28.323 11.7485 28.7125 11.7485 29.0562V29.7435H21.1752V29.1249C21.1752 28.6323 20.4657 27.7388 19.0466 26.4444C17.9823 25.0124 17.4501 23.6378 17.4501 22.3204C17.4501 21.9081 18.0583 21.7019 19.2746 21.7019H19.5787V21.6331C18.6665 21.6331 18.2103 21.404 18.2103 20.9458C18.2103 20.8198 18.6665 20.3616 19.5787 19.5712C19.9842 18.8838 20.1869 18.2653 20.1869 17.7154C20.1869 17.051 19.9588 16.4095 19.5027 15.7909V15.516L21.3272 11.5983H21.2512C20.7191 11.6899 20.3136 11.7357 20.0349 11.7357C19.6548 11.7357 19.4267 10.9109 19.3507 9.26138V8.98645C18.4131 9.58213 17.8556 9.87997 17.6782 9.87997H17.6022C17.1334 9.87997 16.8039 9.26138 16.6139 8.0242C16.5632 8.0242 16.5379 7.93256 16.5379 7.74928C16.4492 7.74928 16.2211 8.39077 15.8537 9.67377C15.6636 9.81123 15.4862 9.87997 15.3215 9.87997Z" fill="black"/>
<path d="M15.3216 9.87996H15.2455C15.0682 9.87996 14.5107 9.58213 13.5731 8.98645C13.5097 10.8193 13.307 11.7357 12.9649 11.7357H12.7368C12.6228 11.7357 12.2427 11.6899 11.5965 11.5983L13.497 15.5847C12.9902 16.5126 12.7368 17.2228 12.7368 17.7154C12.7368 18.7922 13.3703 19.8003 14.6374 20.7396C14.688 20.8198 14.7134 20.9114 14.7134 21.0145C14.7134 21.4269 14.2573 21.6331 13.345 21.6331V21.7019C14.7641 21.7019 15.4736 21.8622 15.4736 22.183V22.5266C15.4736 24.1991 14.4346 25.9861 12.3567 27.8877C11.9513 28.323 11.7485 28.7125 11.7485 29.0562V29.7435H21.1752V29.1249C21.1752 28.6323 20.4657 27.7388 19.0466 26.4444C17.9823 25.0124 17.4502 23.6378 17.4502 22.3204C17.4502 21.908 18.0583 21.7019 19.2747 21.7019H19.5788V21.6331C18.6665 21.6331 18.2104 21.404 18.2104 20.9458C18.2104 20.8198 18.6665 20.3616 19.5788 19.5712C19.9842 18.8838 20.1869 18.2653 20.1869 17.7154C20.1869 17.051 19.9589 16.4095 19.5028 15.7909V15.516L21.3273 11.5983H21.2512C20.7191 11.6899 20.3136 11.7357 20.0349 11.7357C19.6548 11.7357 19.4267 10.9109 19.3507 9.26138V8.98645C18.4131 9.58213 17.8556 9.87996 17.6782 9.87996H17.6022C17.1334 9.87996 16.804 9.26138 16.6139 8.0242C16.5632 8.0242 16.5379 7.93256 16.5379 7.74928C16.4492 7.74928 16.2211 8.39077 15.8537 9.67377C15.6637 9.81123 15.4863 9.87996 15.3216 9.87996Z" fill="white"/>
</svg>
