<svg width="32" height="32" viewBox="0 0 32 32" fill="none" xmlns="http://www.w3.org/2000/svg">
<path d="M9.71653 10H11.7765C12.3139 10.0746 12.5826 10.3433 12.5826 10.8061V12.1496H14.1948V10.8061C14.2694 10.2687 14.5381 10 15.0009 10H16.9714C17.5087 10.0746 17.7774 10.3433 17.7774 10.8061V12.1496H19.3896V10.8061C19.3896 10.3433 19.6882 10.0746 20.2853 10H22.1662C22.7036 10.0746 22.9723 10.3433 22.9723 10.8061V14.8366C22.9723 21.4495 21.6885 25.8382 19.1209 28.0027C17.8073 29.3462 16.7624 30.0926 15.9861 30.2419C15.4935 30.2419 14.4187 29.4656 12.7618 27.9131C11.1048 26.0173 10.0599 23.9275 9.62696 21.6435C9.20899 19.6134 9 16.6577 9 12.7765V10.7165C9 10.2388 9.23884 10 9.71653 10V10ZM10.4331 11.4331V13.3139C10.4331 20.5538 11.5676 25.0918 13.8365 26.9279C14.4337 27.6146 15.1502 28.2117 15.9861 28.7192C18.1506 27.4952 19.6732 25.5844 20.554 22.987C21.2108 21.0464 21.5392 18.449 21.5392 15.1948V11.4331H20.8227V12.7765C20.8227 13.2244 20.5241 13.4931 19.927 13.5826H17.24C16.6429 13.5826 16.3444 13.2244 16.3444 12.5078V11.4331H15.6279V12.7765C15.6279 13.2244 15.3293 13.4931 14.7322 13.5826H12.0452C11.4481 13.508 11.1496 13.2094 11.1496 12.687V11.4331H10.4331Z" fill="#EEEEEE"/>
<path d="M10.4331 11.433V13.3139C10.4331 20.5538 11.5676 25.0918 13.8366 26.9279C14.4337 27.6146 15.1502 28.2117 15.9862 28.7192C18.1507 27.4952 19.6733 25.5844 20.554 22.987C21.2108 21.0464 21.5393 18.449 21.5393 15.1948V11.433H20.8227V12.7765C20.8227 13.2244 20.5242 13.4931 19.9271 13.5826H17.2401C16.643 13.5826 16.3444 13.2244 16.3444 12.5078V11.433H15.6279V12.7765C15.6279 13.2244 15.3294 13.4931 14.7323 13.5826H12.0453C11.4482 13.508 11.1496 13.2094 11.1496 12.687V11.433H10.4331Z" fill="black"/>
</svg>
