<svg width="180" height="180" viewBox="0 0 180 180" fill="none" xmlns="http://www.w3.org/2000/svg">
<path d="M41.5948 150.501C39.0311 150.501 37.7493 151.809 37.7493 154.424C37.7493 157.039 39.0311 158.347 41.5948 158.347H141.503C144.118 158.347 145.425 157.039 145.425 154.424C145.425 151.809 144.118 150.501 141.503 150.501H41.5948ZM41.6718 146.579H141.503C146.784 146.579 149.425 149.194 149.425 154.424C149.425 159.705 146.784 162.346 141.503 162.346H41.6718C36.3905 162.346 33.75 159.705 33.75 154.424C33.75 149.194 36.3905 146.579 41.6718 146.579ZM60.0536 90.126C58.3104 90.126 57.4386 90.9979 57.4386 92.7411C57.4386 94.4843 58.3104 95.3561 60.0536 95.3561H123.121C124.864 95.3561 125.736 94.4843 125.736 92.7411C125.736 90.9979 124.864 90.126 123.121 90.126H60.0536ZM60.1307 86.2037H123.121C127.531 86.2037 129.736 88.3828 129.736 92.7411C129.736 97.1505 127.531 99.3555 123.121 99.3555H60.1307C55.7722 99.3555 53.5931 97.1505 53.5931 92.7411C53.5931 88.3828 55.7722 86.2037 60.1307 86.2037ZM111.277 122.967V108.508H71.8982V122.967C71.8982 125.531 70.9751 127.71 69.129 129.505C67.3346 131.248 65.2067 132.119 62.7458 132.119H56.2082C54.4648 132.119 53.5931 132.991 53.5931 134.735C53.5931 136.478 54.4648 137.35 56.2082 137.35H127.12C128.864 137.35 129.736 136.478 129.736 134.735C129.736 132.991 128.864 132.119 127.12 132.119H120.429C117.865 132.119 115.686 131.248 113.892 129.505C112.097 127.71 111.225 125.531 111.277 122.967ZM115.199 122.967C115.199 126.454 116.943 128.197 120.429 128.197H126.966C131.325 128.197 133.504 130.376 133.504 134.735C133.504 139.145 131.325 141.349 126.966 141.349H56.2082C51.7985 141.349 49.5938 139.145 49.5938 134.735C49.5938 130.376 51.7985 128.197 56.2082 128.197H62.7458C66.1809 128.197 67.8988 126.454 67.8988 122.967V104.586H115.199V122.967ZM91.5874 37.7494C86.1525 37.7494 81.5119 39.6722 77.6661 43.5178C73.872 47.3633 71.9747 51.978 71.9747 57.3621C71.9747 62.7969 73.872 67.437 77.6661 71.2828C81.5119 75.0769 86.1525 76.9742 91.5874 76.9742C96.9711 76.9742 101.586 75.0769 105.432 71.2828C109.277 67.437 111.2 62.7969 111.2 57.3621C111.2 51.978 109.277 47.3633 105.432 43.5178C101.586 39.6722 96.9711 37.7494 91.5874 37.7494ZM91.5874 33.75C98.0477 33.75 103.585 36.083 108.2 40.749C112.866 45.3636 115.199 50.9012 115.199 57.3621C115.199 63.8736 112.866 69.4367 108.2 74.0514C103.585 78.6662 98.0477 80.9736 91.5874 80.9736C85.0753 80.9736 79.5122 78.6662 74.8974 74.0514C70.2827 69.4367 67.9753 63.8736 67.9753 57.3621C67.9753 50.9012 70.2827 45.3636 74.8974 40.749C79.5122 36.083 85.0753 33.75 91.5874 33.75Z" fill="#222831"/>
<path d="M41.5948 150.501C39.031 150.501 37.7492 151.809 37.7492 154.424C37.7492 157.039 39.031 158.347 41.5948 158.347H141.503C144.118 158.347 145.425 157.039 145.425 154.424C145.425 151.809 144.118 150.501 141.503 150.501H41.5948ZM60.0536 90.126C58.3104 90.126 57.4386 90.9979 57.4386 92.7411C57.4386 94.4843 58.3104 95.3561 60.0536 95.3561H123.121C124.864 95.3561 125.736 94.4843 125.736 92.7411C125.736 90.9979 124.864 90.126 123.121 90.126H60.0536ZM111.277 122.968V108.508H71.8982V122.968C71.8982 125.531 70.9751 127.71 69.129 129.505C67.3346 131.248 65.2067 132.12 62.7452 132.12H56.208C54.4647 132.12 53.593 132.991 53.593 134.735C53.593 136.478 54.4647 137.35 56.208 137.35H127.12C128.864 137.35 129.736 136.478 129.736 134.735C129.736 132.991 128.864 132.12 127.12 132.12H120.429C117.865 132.12 115.686 131.248 113.892 129.505C112.097 127.71 111.225 125.531 111.277 122.968ZM91.5874 37.7495C86.1519 37.7495 81.5119 39.6722 77.6661 43.5178C73.872 47.3634 71.9747 51.9781 71.9747 57.3621C71.9747 62.797 73.872 67.437 77.6661 71.2828C81.5119 75.0769 86.1519 76.9742 91.5874 76.9742C96.9711 76.9742 101.586 75.0769 105.431 71.2828C109.277 67.437 111.2 62.797 111.2 57.3621C111.2 51.9781 109.277 47.3634 105.431 43.5178C101.586 39.6722 96.9711 37.7495 91.5874 37.7495Z" fill="#FFC764"/>
</svg>
