<svg width="180" height="180" viewBox="0 0 180 180" fill="none" xmlns="http://www.w3.org/2000/svg">
<path d="M87.1875 22.5C91.638 22.5 93.8633 24.6433 93.8633 28.9299C93.8633 33.2165 91.638 35.3597 87.1875 35.3597C82.737 35.3597 80.5117 33.2165 80.5117 28.9299C80.5117 24.6433 82.737 22.5 87.1875 22.5ZM42.0267 44.1346C43.7546 47.1604 47.7078 49.8584 53.8863 52.2287C60.0649 54.5485 63.1541 57.5488 63.1541 61.2304C63.1541 57.5488 66.7147 53.1868 73.8354 48.1438C81.009 43.0504 85.4595 38.9655 87.1875 35.8892C88.9155 38.9655 93.3924 43.0504 100.618 48.1438C107.844 53.1868 111.378 57.5488 111.221 61.2304C111.012 57.5488 113.97 54.5485 120.096 52.2287C126.275 49.8584 130.385 47.0848 132.427 43.9077V65.3152C130.699 68.3916 126.641 71.5686 120.253 74.8468C113.917 78.0744 110.828 81.5288 110.985 85.2103C111.142 81.5288 107.634 77.3932 100.461 72.8044C93.3396 68.1649 88.9155 64.3067 87.1875 61.2304C85.4595 64.3067 81.0349 68.1649 73.9142 72.8044C66.8452 77.3932 63.3111 81.5288 63.3111 85.2103C63.3111 81.5288 60.1695 78.0744 53.8863 74.8468C47.6554 71.5686 43.676 68.3916 41.9482 65.3152L42.0267 44.1346ZM41.0056 30.5184C45.4563 30.5184 47.6816 32.6617 47.6816 36.9483C47.6816 41.2349 45.4563 43.3781 41.0056 43.3781C36.555 43.3781 34.3297 41.2349 34.3297 36.9483C34.3297 32.6617 36.555 30.5184 41.0056 30.5184ZM132.741 30.2915C137.192 30.2915 139.417 32.46 139.417 36.797C139.417 41.0836 137.192 43.2269 132.741 43.2269C128.291 43.2269 126.065 41.0836 126.065 36.797C126.065 32.46 128.291 30.2915 132.741 30.2915ZM111.3 124.395C111.3 127.824 113.08 129.538 116.64 129.538H123.316C127.767 129.538 129.992 131.682 129.992 135.968C129.992 140.306 127.767 142.474 123.316 142.474H51.0589C46.5559 142.474 44.3044 140.306 44.3044 135.968C44.3044 131.682 46.5559 129.538 51.0589 129.538H57.735C61.2427 129.538 62.9972 127.824 62.9972 124.395V106.315H111.3V124.395ZM55.0644 88.236H119.389C123.892 88.236 126.143 90.3791 126.143 94.6659C126.143 99.0028 123.892 101.171 119.389 101.171H55.0644C50.6138 101.171 48.3884 99.0028 48.3884 94.6659C48.3884 90.3791 50.6138 88.236 55.0644 88.236ZM36.2146 147.617H138.16C143.553 147.617 146.25 150.19 146.25 155.333C146.25 160.528 143.553 163.125 138.16 163.125H36.2146C30.8216 163.125 28.125 160.528 28.125 155.333C28.125 150.19 30.8216 147.617 36.2146 147.617Z" fill="#222831"/>
</svg>
