<svg width="180" height="180" viewBox="0 0 180 180" fill="none" xmlns="http://www.w3.org/2000/svg">
<path d="M91.6644 80.379L115.122 80.4561C119.326 79.4818 122.762 75.8413 125.429 69.5346C128.146 63.2278 129.479 56.3828 129.428 48.9994H121.89V64.6127H98.2789V48.9994H91.6644L85.05 48.9224V64.6121H61.3614V48.9224H53.8239C53.7726 56.3057 55.0801 63.1766 57.7462 69.5346C60.4637 75.8413 63.9506 79.4565 68.2065 80.379H91.6644ZM91.5874 84.3784L65.8991 84.4554C55.1826 78.9182 49.7475 65.7658 49.5937 45H65.3608V60.7669H81.0506V45H91.6644H102.201V60.7669H117.968V45H133.658C133.453 65.8688 128.146 78.9947 117.737 84.3784H91.5874ZM41.5949 153.907C39.0312 153.907 37.7493 155.214 37.7493 157.829C37.7493 160.444 39.0312 161.751 41.5949 161.751H141.503C144.118 161.751 145.425 160.444 145.425 157.829C145.425 155.214 144.118 153.907 141.503 153.907H41.5949ZM41.6719 149.984H141.503C146.784 149.984 149.425 152.599 149.425 157.829C149.425 163.11 146.784 165.751 141.503 165.751H41.6719C36.3907 165.751 33.75 163.11 33.75 157.829C33.75 152.599 36.3907 149.984 41.6719 149.984ZM60.0536 93.5308C58.3104 93.5308 57.4386 94.4027 57.4386 96.1459C57.4386 97.8896 58.3104 98.7609 60.0536 98.7609H123.121C124.864 98.7609 125.736 97.8896 125.736 96.1459C125.736 94.4027 124.864 93.5308 123.121 93.5308H60.0536ZM60.1307 89.6085H123.121C127.531 89.6085 129.736 91.7876 129.736 96.1459C129.736 100.556 127.531 102.76 123.121 102.76H60.1307C55.7724 102.76 53.5932 100.556 53.5932 96.1459C53.5932 91.7876 55.7724 89.6085 60.1307 89.6085ZM111.277 126.372V111.913H71.8982V126.372C71.8982 128.936 70.9751 131.115 69.1296 132.91C67.3346 134.653 65.2067 135.525 62.7458 135.525H56.2082C54.4648 135.525 53.5932 136.396 53.5932 138.14C53.5932 139.883 54.4648 140.755 56.2082 140.755H127.12C128.864 140.755 129.736 139.883 129.736 138.14C129.736 136.396 128.864 135.525 127.12 135.525H120.429C117.866 135.525 115.687 134.653 113.892 132.91C112.097 131.115 111.225 128.936 111.277 126.372ZM115.199 126.372C115.199 129.859 116.943 131.602 120.429 131.602H126.967C131.325 131.602 133.504 133.782 133.504 138.14C133.504 142.549 131.325 144.754 126.967 144.754H56.2082C51.7986 144.754 49.5938 142.549 49.5938 138.14C49.5938 133.782 51.7986 131.602 56.2082 131.602H62.7458C66.1809 131.602 67.8988 129.859 67.8988 126.372V107.99H115.199V126.372Z" fill="#222831"/>
<path d="M91.6639 80.379L115.122 80.4561C119.326 79.4818 122.762 75.8413 125.429 69.5346C128.146 63.2278 129.479 56.3828 129.428 48.9993H121.89V64.6121H98.2783V48.9993H91.6639L85.05 48.9224V64.6121H61.3609V48.9224H53.8237C53.7724 56.3057 55.0799 63.1766 57.7462 69.5346C60.4637 75.8413 63.9506 79.4565 68.2059 80.379H91.6639ZM41.5948 153.906C39.031 153.906 37.7492 155.214 37.7492 157.829C37.7492 160.444 39.031 161.751 41.5948 161.751H141.503C144.118 161.751 145.425 160.444 145.425 157.829C145.425 155.214 144.118 153.906 141.503 153.906H41.5948ZM60.0536 93.5308C58.3104 93.5308 57.4386 94.4027 57.4386 96.1459C57.4386 97.8891 58.3104 98.7609 60.0536 98.7609H123.121C124.864 98.7609 125.736 97.8891 125.736 96.1459C125.736 94.4027 124.864 93.5308 123.121 93.5308H60.0536ZM111.277 126.372V111.913H71.8982V126.372C71.8982 128.936 70.9751 131.115 69.129 132.91C67.3346 134.653 65.2067 135.525 62.7458 135.525H56.208C54.4647 135.525 53.593 136.396 53.593 138.14C53.593 139.883 54.4647 140.754 56.208 140.754H127.12C128.864 140.754 129.736 139.883 129.736 138.14C129.736 136.396 128.864 135.525 127.12 135.525H120.429C117.865 135.525 115.686 134.653 113.892 132.91C112.097 131.115 111.225 128.936 111.277 126.372Z" fill="#FFC764"/>
</svg>
