<svg width="180" height="180" viewBox="0 0 180 180" fill="none" xmlns="http://www.w3.org/2000/svg">
<path d="M55.8263 29.4756C63.0118 28.215 70.1966 27.8369 77.382 28.3411C84.5674 28.7193 91.6262 29.7907 98.5596 31.5555C103.349 32.564 107.888 34.2027 112.173 36.4717C116.459 38.7407 120.367 41.4509 123.897 44.6023C128.057 48.2579 131.523 52.3548 134.296 56.8929C137.195 61.4306 139.465 66.2209 141.103 71.2631C143.75 78.3225 145.83 85.5703 147.343 93.0077C148.982 100.445 150.242 107.882 151.125 115.32C151.755 116.58 151.692 117.652 150.936 118.534C150.179 119.29 149.801 120.173 149.801 121.182C150.053 122.568 150.81 124.081 152.07 125.719C153.331 127.232 154.717 128.492 156.23 129.501C157.616 130.51 159.003 131.518 160.39 132.527C161.903 133.409 163.163 134.669 164.172 136.308C164.802 137.443 165.117 138.577 165.117 139.711C165.243 140.846 165.432 141.918 165.684 142.926C165.936 146.203 166.062 149.544 166.062 152.948C166.062 156.351 165.999 159.691 165.873 162.969C143.435 163.221 121.123 163.347 98.9376 163.347C76.8774 163.221 54.6918 163.158 32.3799 163.158C32.2538 160.132 32.1277 156.981 32.0017 153.704C32.0017 150.427 32.0647 147.086 32.1908 143.682C32.4429 142.296 32.695 140.72 32.9471 138.955C33.3253 137.19 34.1447 135.615 35.4052 134.228C36.4137 133.22 37.4222 132.401 38.4306 131.77C39.5651 131.14 40.8256 130.384 42.2122 129.501C43.851 128.366 45.2376 126.98 46.3721 125.341C47.5066 123.703 48.389 122.001 49.0193 120.236C48.5151 119.605 47.8848 119.038 47.1284 118.534C46.4982 118.03 46.246 117.274 46.3721 116.265C46.8763 112.736 47.6957 109.206 48.8302 105.676C50.0908 102.021 51.9816 98.6805 54.5027 95.6548C56.5194 93.2602 58.9776 91.4321 61.8772 90.1716C64.9024 88.785 68.0535 88.0284 71.3312 87.9024C73.8523 87.6504 76.4364 87.7134 79.0836 88.0914C81.8567 88.344 84.5044 88.0914 87.0255 87.3354C89.5461 86.7049 91.8782 85.6969 94.0213 84.3097C96.1644 82.7972 97.929 80.9696 99.3156 78.8265C97.929 79.7091 96.4164 80.5911 94.7779 81.4736C93.2647 82.2302 91.6892 82.7342 90.0506 82.9862C86.7729 83.9947 83.5588 84.4363 80.4071 84.3097C77.256 84.1837 74.1043 84.1837 70.9532 84.3097C68.4321 84.4363 66.0369 84.9403 63.7678 85.8229C61.4987 86.5789 59.2931 87.5874 57.15 88.848C55.133 90.1086 53.1161 91.4951 51.0992 93.0077C49.2084 94.5208 47.3806 96.0334 45.6158 97.5459C44.2292 98.8065 42.6535 99.6261 40.8887 100.004C39.1239 100.256 37.5482 100.508 36.1615 100.76C37.17 98.6175 38.1155 96.5374 38.9978 94.5208C39.8802 92.3777 40.0693 90.2346 39.5651 88.0914C38.5566 89.8566 37.4852 91.6211 36.3507 93.3862C35.3422 95.0248 33.9556 96.6634 32.1908 98.3025C31.8126 98.5545 31.4345 98.8065 31.0563 99.0585C30.8042 99.3105 30.363 99.3105 29.7327 99.0585C24.5644 97.1679 20.2785 94.2052 16.875 90.1716C17.3792 88.533 17.9465 86.8309 18.5767 85.0663C19.207 83.3017 20.0264 81.6626 21.0349 80.1501C23.8081 74.2252 27.2116 68.679 31.2454 63.5107C35.4052 58.2165 39.8802 53.3002 44.6704 48.7622C46.4352 47.3756 48.1369 46.115 49.7756 44.9805C51.5404 43.7199 53.1161 42.3963 54.5027 41.0097C51.8555 39.8752 49.2714 38.2364 46.7503 36.0935C48.5151 35.8414 50.2799 35.5893 52.0446 35.3372C53.8094 34.959 55.5742 34.833 57.339 34.959C58.7256 35.0851 60.0491 35.4003 61.3097 35.9045C62.6962 36.4086 64.2088 36.6608 65.8479 36.6608C62.6962 33.7615 59.3561 31.3664 55.8263 29.4756ZM77.004 36.6608C82.2983 38.2995 87.5295 40.0643 92.6978 41.9551C97.866 43.7199 102.656 46.241 107.068 49.5185C111.606 52.5439 115.388 56.3884 118.413 61.0526C121.565 65.5909 124.086 70.3176 125.976 75.2338C127.993 80.6546 129.506 86.2009 130.515 91.8737C131.649 97.5459 132.531 103.218 133.162 108.891C134.674 108.765 136.061 108.702 137.321 108.702C138.582 108.702 139.906 108.576 141.292 108.323C140.536 100.382 139.15 92.6927 137.132 85.2553C135.242 77.6919 132.279 70.3176 128.246 63.1327C123.96 54.9389 117.405 48.6361 108.581 44.2241C103.665 42.0812 98.4966 40.3795 93.0758 39.1189C87.7815 37.8583 82.4242 37.039 77.004 36.6608ZM56.961 50.4639C55.3221 50.716 54.1876 51.4724 53.5573 52.733C52.927 53.9935 52.4859 55.191 52.2338 56.3254C53.7464 57.4599 55.196 57.7119 56.5824 57.0819C57.969 56.4514 59.4191 56.0734 60.9317 55.9473C62.4443 55.8213 64.0198 56.0734 65.6589 56.7039C65.7849 55.8213 65.7849 55.065 65.6589 54.4348C65.6589 53.6784 65.1544 53.0481 64.1458 52.5439C63.1378 51.7875 61.9402 51.2202 60.5537 50.8421C59.2931 50.3378 58.0956 50.2118 56.961 50.4639ZM27.4637 82.4192C26.2032 83.4277 25.3838 84.9403 25.0056 86.9569C24.6274 88.848 25.0056 90.5496 26.1401 92.0621C28.2831 90.8016 29.7327 89.226 30.489 87.3354C31.2454 85.4443 32.0017 83.6167 32.7581 81.8522C31.8757 81.7256 30.9302 81.6626 29.9218 81.6626C28.9133 81.5366 28.094 81.7886 27.4637 82.4192ZM52.801 117.778C53.1791 118.156 53.4943 118.534 53.7464 118.912C54.1246 119.29 54.5027 119.731 54.8809 120.236H142.616C142.994 119.731 143.309 119.29 143.561 118.912C143.813 118.534 144.066 118.156 144.318 117.778H52.801ZM85.3234 145.573C87.7185 147.464 89.9876 149.418 92.1307 151.435C94.2733 153.326 96.4164 155.343 98.5596 157.485C100.702 155.343 102.845 153.326 104.988 151.435C107.131 149.418 109.211 147.464 111.228 145.573C109.085 143.556 106.942 141.603 104.799 139.711C102.782 137.821 100.702 135.804 98.5596 133.661C96.4164 135.804 94.2733 137.821 92.1307 139.711C89.9876 141.603 87.7185 143.556 85.3234 145.573ZM40.1324 144.439C39.8802 145.069 39.6911 145.636 39.5651 146.14C39.5651 146.519 39.5651 147.023 39.5651 147.653H82.8652C82.3612 147.023 81.9197 146.33 81.5417 145.573C81.1637 144.817 80.5961 144.439 79.8401 144.439C73.1593 144.439 66.4779 144.439 59.7971 144.439C53.2422 144.313 46.6873 144.313 40.1324 144.439ZM114.442 147.653H158.121V144.439C151.314 144.439 144.57 144.376 137.889 144.25C131.208 144.124 124.464 144.187 117.657 144.439C116.648 144.313 115.955 144.691 115.577 145.573C115.199 146.33 114.82 147.023 114.442 147.653Z" fill="#201717"/>
<path d="M77.004 36.6607C82.2982 38.2994 87.5295 40.0642 92.6977 41.955C97.866 43.7198 102.656 46.2409 107.068 49.5184C111.606 52.5437 115.388 56.3884 118.413 61.0526C121.565 65.5903 124.086 70.3175 125.976 75.2338C127.993 80.654 129.506 86.2009 130.515 91.8731C131.649 97.5459 132.531 103.218 133.162 108.891C134.674 108.765 136.061 108.701 137.321 108.701C138.582 108.701 139.906 108.575 141.292 108.323C140.536 100.382 139.15 92.6927 137.132 85.2553C135.242 77.6919 132.279 70.3175 128.245 63.1322C123.96 54.9387 117.404 48.636 108.581 44.224C103.665 42.0811 98.4965 40.3793 93.0757 39.1188C87.7815 37.8582 82.4242 37.0389 77.004 36.6607ZM56.961 50.4638C55.3221 50.7159 54.1876 51.4723 53.5573 52.7328C52.927 53.9934 52.4858 55.1909 52.2337 56.3254C53.7463 57.4599 55.196 57.7119 56.5824 57.0819C57.969 56.4514 59.4191 56.0732 60.9317 55.9472C62.4442 55.8211 64.0198 56.0733 65.6589 56.7034C65.7849 55.8212 65.7849 55.0649 65.6589 54.4346C65.6589 53.6783 65.1544 53.0479 64.1458 52.5437C63.1378 51.7874 61.9402 51.2201 60.5537 50.8419C59.2931 50.3377 58.0955 50.2117 56.961 50.4638ZM27.4637 82.4192C26.2031 83.4272 25.3838 84.9403 25.0056 86.9569C24.6274 88.848 25.0056 90.5495 26.1401 92.0621C28.283 90.8015 29.7327 89.226 30.489 87.3354C31.2453 85.4443 32.0017 83.6167 32.758 81.8516C31.8756 81.7256 30.9302 81.6626 29.9218 81.6626C28.9133 81.5366 28.0939 81.7886 27.4637 82.4192ZM52.801 117.778C53.1791 118.156 53.4943 118.534 53.7464 118.912C54.1246 119.29 54.5027 119.731 54.8809 120.236H142.616C142.994 119.731 143.309 119.29 143.561 118.912C143.813 118.534 144.066 118.156 144.318 117.778H52.801ZM85.3234 145.573C87.7185 147.464 89.9876 149.418 92.1302 151.435C94.2733 153.326 96.4164 155.342 98.5595 157.485C100.702 155.342 102.845 153.326 104.988 151.435C107.131 149.418 109.211 147.464 111.228 145.573C109.085 143.556 106.942 141.603 104.799 139.711C102.782 137.821 100.702 135.804 98.5595 133.661C96.4164 135.804 94.2733 137.821 92.1302 139.711C89.9876 141.603 87.7185 143.556 85.3234 145.573ZM40.1323 144.439C39.8802 145.069 39.6911 145.636 39.5651 146.14C39.5651 146.519 39.5651 147.023 39.5651 147.653H82.8652C82.3612 147.023 81.9197 146.329 81.5417 145.573C81.1637 144.817 80.5961 144.439 79.8401 144.439C73.1593 144.439 66.4779 144.439 59.7971 144.439C53.2421 144.313 46.6873 144.313 40.1323 144.439ZM114.442 147.653H158.121V144.439C151.314 144.439 144.57 144.376 137.889 144.25C131.208 144.124 124.464 144.187 117.657 144.439C116.648 144.313 115.955 144.691 115.577 145.573C115.199 146.329 114.82 147.023 114.442 147.653Z" fill="#6B4F4F"/>
</svg>
