<svg width="180" height="180" viewBox="0 0 180 180" fill="none" xmlns="http://www.w3.org/2000/svg">
<path d="M138.137 127.424C139.495 129.122 141.137 130.48 143.061 131.499C144.985 132.518 146.456 133.876 147.475 135.573C148.72 136.819 149.456 138.29 149.682 139.988C149.908 141.572 150.135 143.1 150.361 144.572V151.872H150.191V162.228C129.705 162.341 109.333 162.397 89.073 162.397C68.9271 162.284 48.6674 162.228 28.2948 162.228V150.004V144.572H28.125C28.2382 142.76 28.5211 140.893 28.9739 138.969C29.4266 136.932 30.4453 135.12 32.0298 133.536C33.6143 132.404 35.312 131.272 37.1229 130.141C38.9338 128.896 40.292 127.311 41.1974 125.387C42.5557 123.802 43.4045 121.992 43.7441 119.954C44.1968 117.804 44.8759 115.88 45.7813 114.182C47.3659 110.674 49.3465 107.448 51.7233 104.505C54.2133 101.449 56.5903 98.3931 58.8538 95.3376C60.5514 93.0741 62.2491 90.6969 63.9467 88.2068C65.6449 85.6041 67.1158 83.0571 68.3612 80.5674C65.7579 76.7194 64.5126 72.3049 64.6262 67.3251C64.7393 62.3453 66.4369 57.9308 69.7191 54.0828C71.3036 52.0455 73.2279 50.3478 75.4914 48.9896C77.7549 47.5183 80.1883 46.443 82.7916 45.7639C85.5079 45.0848 88.2242 44.8585 90.9405 45.0849C93.7704 45.3112 96.4299 45.9903 98.9201 47.1222C101.863 48.1408 104.41 49.7253 106.56 51.8758C108.71 54.0262 110.351 56.403 111.483 59.0063C112.728 61.6095 113.407 64.3821 113.52 67.3251C113.633 70.2675 113.068 73.0974 111.823 75.8138C111.71 76.6058 111.483 77.3415 111.144 78.0204C110.804 78.6999 110.804 79.3789 111.144 80.0578C112.502 83.0008 114.029 85.8302 115.728 88.5465C117.538 91.2628 119.349 93.9229 121.16 96.5256C123.084 99.1288 124.895 101.789 126.593 104.505C128.404 107.222 130.045 109.995 131.516 112.824C132.874 115.201 133.836 117.748 134.403 120.464C134.969 123.18 136.213 125.501 138.137 127.424ZM129.649 118.596C125.461 118.483 121.273 118.483 117.086 118.596C112.898 118.596 108.654 118.54 104.353 118.427C104.919 119.332 104.919 120.35 104.353 121.483H131.347C131.007 120.917 130.668 120.407 130.328 119.954C130.102 119.501 129.875 119.049 129.649 118.596ZM70.398 83.4536C70.2849 84.0195 70.0588 84.5854 69.7191 85.1513C69.4929 85.6041 69.7191 86.0563 70.398 86.5091C73.6807 89.2254 77.4158 91.206 81.603 92.4514C85.7908 93.6962 90.0354 93.8093 94.3363 92.7906C100.108 91.8855 105.145 89.3953 109.446 85.3211C109.333 84.4155 109.05 83.34 108.597 82.0952C106.107 84.8115 103.108 87.075 99.5991 88.8863C96.2038 90.6969 92.5251 91.4327 88.5639 91.0929C85.0551 91.3196 81.7166 90.6401 78.5475 89.0561C75.4914 87.4716 72.7751 85.6041 70.398 83.4536ZM100.788 119.784C98.6372 118.2 96.543 116.502 94.5056 114.692C92.5819 112.767 90.6576 110.9 88.7338 109.089C86.8095 110.9 84.8858 112.711 82.9614 114.522C81.0371 116.219 79.1134 117.917 77.1891 119.615C78.7736 121.766 80.5843 123.689 82.6217 125.387C84.7721 127.085 86.8095 128.896 88.7338 130.82C90.9973 129.009 93.0909 127.198 95.0152 125.387C96.9396 123.576 98.8633 121.709 100.788 119.784ZM48.4977 118.596C48.2713 119.049 48.1015 119.501 47.9883 119.954C47.8752 120.407 47.7054 120.917 47.479 121.483H74.133C73.7938 121.256 73.4541 121.03 73.1149 120.803C72.8882 120.577 72.6621 120.35 72.4354 120.124C72.8882 119.445 73.1711 118.936 73.2842 118.596C65.0222 118.37 56.7602 118.37 48.4977 118.596ZM145.268 144.572H32.7088V147.288H145.268V144.572Z" fill="#201717"/>
<path d="M129.649 118.596C125.461 118.483 121.273 118.483 117.086 118.596C112.898 118.596 108.654 118.54 104.353 118.426C104.919 119.332 104.919 120.35 104.353 121.482H131.347C131.007 120.916 130.668 120.407 130.328 119.954C130.102 119.501 129.875 119.049 129.649 118.596ZM70.3986 83.4536C70.2855 84.0195 70.0588 84.5854 69.7196 85.1512C69.4929 85.6035 69.7196 86.0563 70.3986 86.5091C73.6808 89.2254 77.4158 91.206 81.6036 92.4514C85.7914 93.6962 90.0355 93.8092 94.3363 92.7905C100.109 91.8855 105.145 89.3953 109.446 85.3205C109.333 84.4155 109.05 83.34 108.597 82.0952C106.107 84.8115 103.108 87.075 99.5991 88.8862C96.2038 90.6969 92.5256 91.4327 88.5639 91.0929C85.0556 91.3196 81.7166 90.6401 78.5475 89.0555C75.4914 87.471 72.7751 85.604 70.3986 83.4536ZM100.788 119.784C98.6372 118.2 96.5436 116.502 94.5062 114.691C92.5819 112.767 90.6581 110.9 88.7338 109.089C86.8095 110.9 84.8858 112.711 82.9614 114.522C81.0377 116.219 79.1134 117.917 77.1896 119.615C78.7736 121.765 80.5849 123.689 82.6223 125.387C84.7727 127.084 86.8095 128.896 88.7338 130.819C90.9973 129.009 93.0915 127.198 95.0153 125.387C96.9396 123.576 98.8633 121.709 100.788 119.784ZM48.4979 118.596C48.2715 119.049 48.1017 119.501 47.9886 119.954C47.8753 120.407 47.7056 120.916 47.4792 121.482H74.1336C73.7938 121.256 73.4541 121.03 73.1149 120.803C72.8882 120.577 72.6621 120.35 72.4359 120.124C72.8888 119.445 73.1711 118.936 73.2848 118.596C65.0222 118.37 56.7602 118.37 48.4979 118.596ZM145.268 144.571H32.709V147.288H145.268V144.571Z" fill="#6B4F4F"/>
</svg>
