<svg width="180" height="180" viewBox="0 0 180 180" fill="none" xmlns="http://www.w3.org/2000/svg">
<path d="M153.951 85.4173C153.321 87.1824 152.25 88.254 150.737 88.632C149.351 88.884 148.216 89.136 147.333 89.388C146.451 92.7917 145.821 96.0064 145.443 99.0315C145.064 101.931 144.56 104.893 143.93 107.918C143.678 108.801 143.111 109.431 142.228 109.81C141.346 110.188 140.842 110.881 140.716 111.889C141.85 115.041 143.363 118.066 145.253 120.965C147.144 123.865 149.54 126.26 152.439 128.15C154.582 129.537 156.346 131.239 157.733 133.256C159.245 135.273 160.065 137.668 160.191 140.441C160.443 144.349 160.506 148.256 160.38 152.164C160.38 156.072 160.38 159.854 160.38 163.509H22.916C22.916 159.476 22.7899 155.379 22.5378 151.219C22.4118 146.933 22.6009 142.71 23.1051 138.55C23.6093 135.903 24.7438 133.697 26.5086 131.932C28.2734 130.168 30.1642 128.592 32.1811 127.205C34.9543 125.188 37.0973 122.793 38.61 120.02C40.1227 117.12 41.3202 114.284 42.2026 111.511C40.5639 110.503 39.1772 109.747 38.0427 109.242C37.5385 106.343 37.2233 103.507 37.0973 100.733C37.0973 97.9599 36.7822 95.2498 36.1519 92.6027C35.1434 91.2161 33.9459 90.1446 32.5593 89.388C31.2988 88.506 30.3533 87.1824 29.723 85.4173C27.2019 81.3836 25.4371 77.0349 24.4287 72.3707C23.4203 67.5804 22.7899 62.6642 22.5378 57.6219V44.5753C22.7899 43.945 22.916 43.3147 22.916 42.6845C23.042 42.0542 23.4202 41.4239 24.0505 40.7936C26.9498 39.155 29.9121 37.7683 32.9375 36.6338C36.0889 35.3733 39.2403 34.2388 42.3916 33.2303C43.4001 35.4993 44.1564 37.8313 44.6607 40.2264C45.2909 42.6215 45.9212 44.8905 46.5515 47.0334C48.9466 46.9074 51.1525 46.8443 53.1694 46.8443C55.3124 46.7183 57.5184 46.5292 59.7876 46.2771C59.157 43.3778 58.653 40.6676 58.275 38.1464C58.0224 35.4993 57.7705 32.7891 57.5185 30.0158C61.4261 29.6377 65.2078 29.3226 68.8635 29.0704C72.6452 28.8183 76.3009 28.5662 79.8306 28.3141C80.5866 28.1881 81.2171 28.3141 81.7211 28.6923C82.3517 29.0705 82.7297 29.4486 82.8557 29.8267C83.2337 32.3479 83.3597 34.806 83.2337 37.2011C83.2337 39.4701 83.4227 41.8021 83.8013 44.1971C83.9273 44.7014 84.1793 45.0795 84.5573 45.3316C84.9358 45.4577 85.2508 45.5208 85.5028 45.5208C88.024 45.6468 90.6081 45.7098 93.2552 45.7098C95.9023 45.5838 98.4865 45.5208 101.008 45.5208C101.134 42.4954 101.197 39.5961 101.197 36.8229C101.323 33.9236 101.386 31.0243 101.386 28.125C105.42 28.5032 109.391 28.8183 113.298 29.0704C117.332 29.3226 121.366 29.7007 125.4 30.2049C125.021 32.8521 124.643 35.4993 124.265 38.1464C124.013 40.7936 123.698 43.6299 123.32 46.6553C125.589 46.6553 127.795 46.7183 129.938 46.8443C132.081 46.8443 134.161 46.9074 136.177 47.0334C136.934 44.8905 137.69 42.6215 138.446 40.2264C139.203 37.8313 139.896 35.4993 140.527 33.2303C143.552 34.2388 146.451 35.2472 149.224 36.2557C152.124 37.138 154.834 38.4616 157.355 40.2264C158.993 40.4785 160.002 41.3609 160.38 42.8736C161.011 44.7644 161.389 46.6553 161.515 48.5461C161.641 50.3109 161.704 52.0757 161.704 53.8404C161.956 59.5131 161.389 65.0593 160.002 70.4801C158.741 75.7744 156.724 80.7536 153.951 85.4173ZM26.6977 159.161C36.9082 159.161 46.9297 159.224 56.7619 159.35C66.7204 159.35 76.6159 159.287 86.4484 159.161C84.6833 157.521 82.9187 155.82 81.1541 154.055C79.389 152.164 77.4355 150.337 75.2923 148.571C74.6623 147.815 73.8428 147.5 72.8342 147.626C71.8256 147.626 70.8171 147.563 69.8091 147.437C62.6237 147.563 55.5015 147.626 48.4424 147.626C41.3833 147.5 34.135 147.5 26.6977 147.626V159.161ZM79.452 147.815C81.5951 149.958 83.6123 151.975 85.5028 153.866C87.52 155.757 89.5365 157.584 91.5536 159.35C93.9488 157.584 96.2173 155.694 98.3605 153.677C100.63 151.534 102.71 149.391 104.6 147.248C102.71 145.105 100.693 143.025 98.5495 141.008C96.4069 138.991 94.0748 136.911 91.5536 134.768C89.6625 137.163 87.646 139.306 85.5028 141.197C83.4857 143.088 81.4691 145.294 79.452 147.815ZM156.031 147.626C148.216 147.626 140.464 147.626 132.774 147.626C125.084 147.5 117.332 147.563 109.517 147.815C106.995 149.58 104.852 151.471 103.088 153.488C101.449 155.505 99.621 157.395 97.6045 159.161H156.031V147.626ZM148.09 130.609C144.434 128.465 141.724 125.566 139.959 121.911C138.194 118.255 136.871 114.599 135.988 110.944C121.114 110.944 106.302 110.944 91.5536 110.944C76.8049 110.944 61.9931 111.133 47.1188 111.511C46.1103 115.293 44.5346 119.075 42.3916 122.856C40.2487 126.512 37.3494 129.6 33.6938 132.121C31.803 133.004 30.2903 134.39 29.1558 136.281C28.0213 138.046 27.391 140 27.2649 142.143H80.2086C82.3517 140.378 84.3053 138.424 86.0698 136.281C87.835 134.138 89.7885 132.373 91.9316 130.987C94.4528 132.626 96.5959 134.516 98.3605 136.659C100.126 138.803 102.205 140.63 104.6 142.143H155.842C155.59 141.134 155.338 140.189 155.086 139.307C154.96 138.424 154.645 137.352 154.14 136.092C153.384 134.831 152.376 133.886 151.115 133.256C149.981 132.5 148.972 131.617 148.09 130.609ZM139.013 104.326C139.392 102.183 139.707 99.8511 139.959 97.3299C140.337 94.8088 140.653 92.2877 140.905 89.7666H42.0135C42.2656 92.2877 42.3916 94.8088 42.3916 97.3299C42.5177 99.8511 42.7068 102.183 42.9589 104.326H139.013ZM149.981 82.9592C153.132 77.1609 155.275 71.0471 156.409 64.6183C157.544 58.1895 157.418 51.7605 156.031 45.3316C156.031 44.7014 155.779 44.3232 155.275 44.1971C154.897 44.0711 154.456 43.819 153.951 43.4408C152.313 42.6845 150.674 41.9912 149.035 41.3609C147.396 40.6046 145.632 39.9112 143.741 39.281C143.111 41.4239 142.417 43.5669 141.661 45.7098C140.905 47.8528 140.274 49.9327 139.77 51.9496C136.24 51.6975 132.648 51.5084 128.992 51.3823C125.337 51.2563 121.744 51.0672 118.214 50.8151C118.592 47.9158 118.844 45.0795 118.971 42.3063C119.223 39.5331 119.538 36.7598 119.916 33.9866C117.899 33.6084 115.63 33.3564 113.109 33.2303C110.588 32.9782 108.13 32.8521 105.735 32.8521C105.483 35.7514 105.294 38.6507 105.168 41.55C105.042 44.4493 104.852 47.4116 104.6 50.437C101.071 50.3109 97.4149 50.3109 93.6332 50.437C89.8515 50.563 85.9438 50.5 81.9101 50.2478C81.6581 50.1218 81.1541 50.1218 80.3976 50.2478C79.767 50.3739 79.452 50.2478 79.452 49.8697C78.57 46.9704 78.2545 44.2602 78.507 41.7391C78.885 39.0919 78.696 36.5077 77.9395 33.9866C77.6875 33.2302 76.9309 32.8521 75.6703 32.8521C73.6538 32.8521 71.5106 32.9782 69.2415 33.2303C67.0984 33.3564 65.0188 33.5454 63.0017 33.7975C63.3803 36.6968 63.7583 39.5331 64.1363 42.3063C64.6408 45.0795 65.0188 47.9158 65.2708 50.8151C61.4891 51.0672 57.7705 51.2563 54.1149 51.3823C50.5853 51.5084 46.9927 51.5715 43.3371 51.5715C42.7068 49.8067 42.0135 47.8528 41.2571 45.7098C40.6269 43.5669 39.9966 41.4239 39.3663 39.281C37.2234 39.9112 35.0804 40.7306 32.9375 41.7391C30.9206 42.6215 28.8406 43.5669 26.6977 44.5753C26.6977 51.1302 27.0128 57.6849 27.6431 64.2403C28.3995 70.6691 30.2272 76.9089 33.1265 82.9592H149.981Z" fill="#201717"/>
<path d="M26.6975 159.16C36.908 159.16 46.9294 159.223 56.7618 159.349C66.7203 159.349 76.6159 159.286 86.4478 159.16C84.6832 157.522 82.9187 155.82 81.1535 154.055C79.389 152.164 77.4349 150.337 75.2923 148.572C74.6617 147.815 73.8422 147.5 72.8342 147.626C71.8256 147.626 70.817 147.563 69.8085 147.437C62.6237 147.563 55.5013 147.626 48.4421 147.626C41.383 147.5 34.1347 147.5 26.6975 147.626V159.16ZM79.452 147.815C81.5951 149.959 83.6117 151.975 85.5028 153.866C87.5193 155.757 89.5365 157.585 91.553 159.349C93.9482 157.585 96.2173 155.694 98.3604 153.677C100.63 151.534 102.709 149.391 104.6 147.248C102.709 145.105 100.693 143.025 98.5494 141.009C96.4063 138.991 94.0742 136.911 91.553 134.769C89.6625 137.164 87.6453 139.306 85.5028 141.198C83.4857 143.088 81.4691 145.294 79.452 147.815ZM156.031 147.626C148.215 147.626 140.463 147.626 132.774 147.626C125.084 147.5 117.332 147.563 109.516 147.815C106.995 149.58 104.852 151.471 103.088 153.488C101.449 155.505 99.621 157.396 97.6039 159.16H156.031V147.626ZM148.089 130.609C144.434 128.466 141.724 125.566 139.959 121.911C138.194 118.255 136.87 114.6 135.988 110.944C121.114 110.944 106.302 110.944 91.553 110.944C76.8049 110.944 61.9931 111.133 47.1185 111.511C46.1101 115.293 44.5344 119.074 42.3914 122.856C40.2485 126.512 37.3492 129.601 33.6936 132.122C31.8027 133.004 30.29 134.39 29.1555 136.281C28.021 138.046 27.3907 140 27.2647 142.143H80.2085C82.3511 140.378 84.3052 138.424 86.0698 136.281C87.8349 134.138 89.7885 132.374 91.9316 130.987C94.4527 132.626 96.5953 134.516 98.3604 136.659C100.125 138.802 102.205 140.63 104.6 142.143H155.842C155.59 141.135 155.338 140.189 155.086 139.306C154.96 138.424 154.644 137.353 154.14 136.092C153.384 134.832 152.376 133.886 151.115 133.256C149.98 132.5 148.972 131.617 148.089 130.609ZM139.013 104.326C139.391 102.183 139.707 99.8511 139.959 97.3299C140.337 94.8088 140.652 92.2877 140.905 89.7665H42.0133C42.2654 92.2877 42.3914 94.8088 42.3914 97.3299C42.5175 99.8511 42.7066 102.183 42.9587 104.326H139.013ZM149.98 82.9597C153.132 77.1609 155.275 71.0471 156.409 64.6183C157.544 58.1895 157.418 51.7607 156.031 45.3318C156.031 44.7016 155.779 44.3234 155.275 44.1973C154.897 44.0712 154.455 43.8191 153.951 43.441C152.313 42.6846 150.673 41.9913 149.035 41.3611C147.396 40.6047 145.631 39.9114 143.741 39.2811C143.11 41.4241 142.417 43.5671 141.661 45.71C140.905 47.8529 140.274 49.9329 139.77 51.9498C136.24 51.6977 132.648 51.5086 128.992 51.3825C125.336 51.2565 121.744 51.0674 118.214 50.8153C118.592 47.916 118.844 45.0797 118.97 42.3065C119.222 39.5332 119.538 36.76 119.916 33.9867C117.899 33.6086 115.63 33.3565 113.109 33.2305C110.588 32.9783 108.13 32.8523 105.735 32.8523C105.483 35.7516 105.293 38.6509 105.167 41.5502C105.041 44.4495 104.852 47.4118 104.6 50.4371C101.071 50.3111 97.4149 50.3111 93.6332 50.4371C89.8515 50.5632 85.9438 50.5001 81.9101 50.248C81.6581 50.1219 81.1535 50.1219 80.3975 50.248C79.767 50.3741 79.452 50.248 79.452 49.8698C78.5694 46.9706 78.2544 44.2604 78.5064 41.7392C78.8844 39.0921 78.6954 36.5079 77.9394 33.9867C77.6874 33.2304 76.9309 32.8523 75.6703 32.8523C73.6532 32.8523 71.5106 32.9783 69.2415 33.2305C67.0984 33.3565 65.0182 33.5456 63.0017 33.7977C63.3797 36.697 63.7582 39.5332 64.1362 42.3065C64.6402 45.0797 65.0182 47.916 65.2708 50.8153C61.4891 51.0674 57.7704 51.2565 54.1147 51.3825C50.5851 51.5086 46.9925 51.5716 43.3368 51.5716C42.7066 49.8068 42.0133 47.8529 41.2569 45.71C40.6267 43.5671 39.9964 41.4241 39.3661 39.2811C37.2231 39.9114 35.0802 40.7308 32.9372 41.7392C30.9203 42.6216 28.8404 43.567 26.6975 44.5755C26.6975 51.1304 27.0126 57.6855 27.6429 64.2403C28.3992 70.6691 30.227 76.9089 33.1263 82.9597H149.98Z" fill="#EED6C4"/>
</svg>
