<svg width="32" height="32" viewBox="0 0 32 32" fill="none" xmlns="http://www.w3.org/2000/svg">
<path d="M20.7457 23.1877C20.6194 22.9983 20.5036 22.8088 20.3983 22.6194C19.9773 22.2405 19.5984 22.0405 19.2616 22.0194C18.4196 21.8931 17.746 21.8089 17.2407 21.7668C16.7566 21.7037 16.3356 21.6721 15.9777 21.6721C15.4514 21.6721 14.9147 21.7142 14.3673 21.7984C13.82 21.8826 13.2938 21.9563 12.7885 22.0194C12.3044 22.0615 11.7992 22.3352 11.2729 22.8404C11.2308 22.9878 11.1992 23.1246 11.1782 23.2509C11.3045 23.2719 11.4834 23.2825 11.715 23.2825C12.1149 23.2825 12.778 23.2088 13.7042 23.0614C14.6305 22.9141 15.3883 22.8404 15.9777 22.8404C16.5461 22.8404 17.346 22.9036 18.3775 23.0299C19.43 23.1562 19.9984 23.2193 20.0826 23.2193C20.3773 23.2193 20.5983 23.2088 20.7457 23.1877ZM18.4091 20.5985C18.809 20.788 19.0827 20.9143 19.23 20.9774C19.3774 21.0195 19.5037 21.0511 19.6089 21.0722C19.5668 20.8195 19.5668 20.6406 19.6089 20.5354C19.651 20.4091 19.7037 20.3038 19.7668 20.2196C19.5353 20.1775 19.3037 20.0723 19.0722 19.9038C18.8406 19.7354 18.6196 19.6197 18.4091 19.5565C18.1986 19.4934 17.8196 19.4407 17.2723 19.3986C16.725 19.3565 16.2935 19.3355 15.9777 19.3355C15.4514 19.3355 14.9883 19.3565 14.5884 19.3986C14.1884 19.4197 13.8305 19.4723 13.5148 19.5565C13.2201 19.6407 12.9569 19.767 12.7254 19.9354C12.5149 20.0828 12.3149 20.1775 12.1254 20.2196C12.1675 20.3038 12.2096 20.4196 12.2517 20.5669C12.3149 20.6932 12.3254 20.8616 12.2833 21.0722C12.4307 21.0511 12.5886 21.0195 12.757 20.9774C12.9885 20.8511 13.2306 20.7248 13.4832 20.5985C13.7569 20.5143 14.0832 20.4512 14.4621 20.4091C14.841 20.3459 15.1567 20.3143 15.4093 20.3143C15.5357 20.3143 15.6409 20.3143 15.7251 20.3143C15.8304 20.3143 15.9146 20.3249 15.9777 20.3459C16.1882 20.3249 16.3671 20.3143 16.5145 20.3143C16.8724 20.3143 17.1776 20.3354 17.4302 20.3775C17.7039 20.3985 18.0301 20.4722 18.4091 20.5985V20.5985ZM16.0093 27.7978L14.1147 29.0609C13.9674 29.1451 13.7569 29.3135 13.4832 29.5661C13.2095 29.8397 12.8727 30.0292 12.4728 30.1345C12.0728 30.2397 11.6518 30.3134 11.2097 30.3555C10.7887 30.4186 10.2835 30.4502 9.6941 30.4502C9.42044 30.4502 8.9889 30.4397 8.39948 30.4186C7.81006 30.3976 7.33642 30.3871 6.97856 30.3871H6.18917C5.97866 30.3871 5.7892 30.3765 5.6208 30.3555C5.47345 30.3344 5.25242 30.2713 4.95771 30.166C4.663 30.0608 4.35777 29.7976 4.04201 29.3766C3.72625 28.9767 3.47363 28.682 3.28418 28.4925C3.09472 28.3241 3 28.1346 3 27.9241C3 27.6926 3.1684 27.461 3.50521 27.2295C3.94727 26.9769 4.26303 26.7874 4.45249 26.6611C4.663 26.5558 4.87351 26.4822 5.08401 26.4401C5.31557 26.3769 5.56817 26.3453 5.84183 26.3453C5.98918 26.3453 6.23127 26.3559 6.56808 26.3769C6.90489 26.398 7.16802 26.4085 7.35748 26.4085C7.69429 26.4085 8.13635 26.419 8.68367 26.4401C9.23099 26.4611 9.62041 26.4716 9.85197 26.4716C10.1046 26.4716 10.3888 26.4611 10.7045 26.4401C11.0203 26.419 11.3571 26.3769 11.715 26.3138C12.0728 26.2506 12.3465 26.1664 12.5359 26.0612C12.7464 25.9349 12.8517 25.7454 12.8517 25.4928C12.8517 25.2823 12.7254 25.177 12.4728 25.177C12.2202 25.1981 12.0307 25.2086 11.9044 25.2086C11.736 25.2086 11.5571 25.156 11.3676 25.0507C11.1992 24.9244 10.8624 24.7771 10.3572 24.6087C9.87303 24.4403 9.63094 24.1877 9.63094 23.8508C9.63094 23.4088 9.88355 22.9562 10.3888 22.4931C10.915 22.03 11.2097 21.7142 11.2729 21.5458C11.3571 21.3563 11.3992 21.1774 11.3992 21.009C11.3992 20.7564 11.1361 20.388 10.6098 19.9038C10.0835 19.3986 9.7362 18.9566 9.56779 18.5777C9.39939 18.1777 9.25204 17.7251 9.12573 17.2199C9.02048 16.7147 8.96785 16.1463 8.96785 15.5148C8.96785 14.0623 9.31518 12.8835 10.0099 11.9783C10.7256 11.0521 11.2518 10.4416 11.5887 10.1469C11.9465 9.83112 12.3149 9.56799 12.6938 9.35748C13.0938 9.12592 13.4516 8.92594 13.7674 8.75754C14.1042 8.58913 14.4305 8.50493 14.7462 8.50493C14.7673 8.44178 14.7884 8.37862 14.8094 8.31547C14.22 7.95761 13.8937 7.69448 13.8305 7.52608C13.7674 7.35767 13.7358 7.16821 13.7358 6.95771C13.7358 6.51564 13.8727 6.13673 14.1463 5.82097C14.42 5.48416 14.6726 5.28418 14.9041 5.22103C15.1567 5.13683 15.5146 5.06315 15.9777 5C16.3356 5.0842 16.6513 5.15788 16.925 5.22103C17.1987 5.28418 17.4723 5.48416 17.746 5.82097C18.0196 6.13673 18.1565 6.52617 18.1565 6.98928C18.1565 7.17874 18.1143 7.36819 18.0301 7.55765C17.967 7.74711 17.7039 7.96814 17.2407 8.22075C17.1565 8.326 17.0723 8.42073 16.9881 8.50493C17.4934 8.61018 17.8302 8.70491 17.9986 8.78911C18.188 8.85226 18.6196 9.0733 19.2932 9.45221C19.9668 9.83112 20.5878 10.3995 21.1562 11.1573C21.7245 11.8941 22.1455 12.6098 22.4192 13.3045C22.7139 13.9781 22.8613 14.7149 22.8613 15.5148C22.8613 16.6305 22.7034 17.5462 22.3876 18.2619C22.0929 18.9566 21.693 19.5249 21.1877 19.967C20.6825 20.388 20.4299 20.7459 20.4299 21.0406C20.4299 21.1879 20.472 21.3563 20.5562 21.5458C20.6404 21.7353 20.9351 22.0615 21.4404 22.5246C21.9456 22.9878 22.1982 23.4298 22.1982 23.8508C22.1982 24.1666 21.9561 24.4087 21.4719 24.5771C21.0088 24.7455 20.6825 24.8928 20.4931 25.0191C20.3247 25.1455 20.1036 25.2086 19.83 25.2086C19.6195 25.1876 19.4721 25.177 19.3879 25.177C19.1143 25.177 18.9774 25.2612 18.9774 25.4296C18.9774 25.7033 19.0721 25.9033 19.2616 26.0296C19.4721 26.1559 19.7142 26.2506 19.9879 26.3138C20.2826 26.3559 20.6194 26.398 20.9983 26.4401C21.3772 26.4611 21.7351 26.4716 22.0719 26.4716C22.3455 26.4716 22.7981 26.4611 23.4296 26.4401C24.0822 26.419 24.4295 26.4085 24.4716 26.4085C24.6611 26.4085 24.9242 26.398 25.261 26.3769C25.5979 26.3559 25.8399 26.3453 25.9873 26.3453C26.2399 26.3453 26.482 26.3664 26.7135 26.4085C26.9451 26.4506 27.1872 26.5453 27.4398 26.6927C27.7134 26.8611 28.0081 27.0295 28.3239 27.1979C28.6607 27.4294 28.8291 27.6715 28.8291 27.9241C28.8291 28.1346 28.7344 28.3241 28.5449 28.4925C28.3555 28.6609 28.0923 28.9556 27.7555 29.3766C27.4398 29.7976 27.1556 30.0608 26.903 30.166C26.6504 30.2923 26.4504 30.366 26.303 30.3871C26.1557 30.4081 25.9662 30.4186 25.7347 30.4186C25.3768 30.3976 25.0821 30.3871 24.8505 30.3871C24.3243 30.3871 23.8191 30.3976 23.3349 30.4186C22.8718 30.4397 22.4087 30.4607 21.9456 30.4818C21.2509 30.4818 20.7667 30.4607 20.4931 30.4186C20.2194 30.3765 19.8721 30.2923 19.4511 30.166C19.0301 30.0608 18.6827 29.8713 18.4091 29.5977C18.1354 29.3451 17.9038 29.1556 17.7144 29.0293C17.5249 28.924 17.2723 28.7451 16.9566 28.4925C16.6619 28.2399 16.3461 28.0083 16.0093 27.7978V27.7978ZM16.5145 17.0936V15.199H18.2828V14.0623H16.5145V12.1677H15.3778V14.0623H13.4832V15.199H15.3778V17.0936H16.5145Z" fill="black"/>
<path d="M20.7457 23.1878C20.6194 22.9983 20.5036 22.8088 20.3983 22.6194C19.9773 22.2405 19.5984 22.0405 19.2616 22.0195C18.4196 21.8931 17.746 21.8089 17.2407 21.7668C16.7566 21.7037 16.3356 21.6721 15.9777 21.6721C15.4514 21.6721 14.9147 21.7142 14.3673 21.7984C13.82 21.8826 13.2937 21.9563 12.7885 22.0195C12.3044 22.0616 11.7992 22.3352 11.2729 22.8404C11.2308 22.9878 11.1992 23.1246 11.1782 23.2509C11.3045 23.272 11.4834 23.2825 11.7149 23.2825C12.1149 23.2825 12.778 23.2088 13.7042 23.0615C14.6305 22.9141 15.3883 22.8404 15.9777 22.8404C16.5461 22.8404 17.346 22.9036 18.3775 23.0299C19.43 23.1562 19.9984 23.2193 20.0826 23.2193C20.3773 23.2193 20.5983 23.2088 20.7457 23.1878ZM18.4091 20.5985C18.809 20.788 19.0827 20.9143 19.23 20.9774C19.3774 21.0195 19.5037 21.0511 19.6089 21.0722C19.5668 20.8196 19.5668 20.6406 19.6089 20.5354C19.651 20.4091 19.7037 20.3038 19.7668 20.2196C19.5353 20.1775 19.3037 20.0723 19.0721 19.9039C18.8406 19.7355 18.6196 19.6197 18.4091 19.5565C18.1985 19.4934 17.8196 19.4407 17.2723 19.3986C16.725 19.3565 16.2935 19.3355 15.9777 19.3355C15.4514 19.3355 14.9883 19.3565 14.5884 19.3986C14.1884 19.4197 13.8305 19.4723 13.5148 19.5565C13.2201 19.6407 12.9569 19.767 12.7254 19.9354C12.5149 20.0828 12.3149 20.1775 12.1254 20.2196C12.1675 20.3038 12.2096 20.4196 12.2517 20.567C12.3149 20.6933 12.3254 20.8617 12.2833 21.0722C12.4307 21.0511 12.5885 21.0195 12.757 20.9774C12.9885 20.8511 13.2306 20.7248 13.4832 20.5985C13.7569 20.5143 14.0832 20.4512 14.4621 20.4091C14.841 20.3459 15.1567 20.3143 15.4093 20.3143C15.5356 20.3143 15.6409 20.3143 15.7251 20.3143C15.8304 20.3143 15.9146 20.3249 15.9777 20.3459C16.1882 20.3249 16.3671 20.3143 16.5145 20.3143C16.8724 20.3143 17.1776 20.3354 17.4302 20.3775C17.7039 20.3985 18.0301 20.4722 18.4091 20.5985ZM16.5145 17.0936V15.199H18.2828V14.0623H16.5145V12.1678H15.3778V14.0623H13.4832V15.199H15.3778V17.0936H16.5145Z" fill="#EEEEEE"/>
</svg>
