<svg width="32" height="32" viewBox="0 0 32 32" fill="none" xmlns="http://www.w3.org/2000/svg">
<path d="M14.8726 20.5247V17.0829V17.1145C14.641 16.1882 14.3568 15.5041 14.02 15.062C13.62 14.7042 13.3148 14.3989 13.1043 14.1463C12.9149 13.8937 12.7254 13.7042 12.5359 13.5779C12.3675 13.4306 11.9991 13.178 11.4308 12.8201C10.8624 12.4623 10.3888 12.1991 10.0099 12.0307C9.652 11.8413 9.20994 11.7465 8.68367 11.7465C7.96795 11.7465 7.44169 11.7781 7.10488 11.8413C6.78912 11.9044 6.33653 12.136 5.74711 12.5359C5.17874 12.9149 4.79983 13.399 4.61038 13.9884C4.44197 14.5779 4.35777 15.0725 4.35777 15.4725C4.35777 15.8093 4.38934 16.1356 4.45249 16.4514C4.5367 16.7671 4.6209 17.1039 4.7051 17.4618C4.78931 17.8196 4.89456 18.1459 5.02086 18.4406C5.16822 18.7353 5.38925 19.1353 5.68396 19.6405C5.99972 20.1247 6.29443 20.5247 6.56808 20.8404C6.84174 21.1562 7.14698 21.4719 7.48379 21.7877C7.9469 21.6193 8.49422 21.4509 9.12574 21.2825C9.75726 21.1141 10.4519 20.9667 11.2097 20.8404C11.9676 20.7141 12.5675 20.6299 13.0096 20.5878C13.4727 20.5457 14.0937 20.5247 14.8726 20.5247V20.5247ZM20.6194 20.9036C20.9141 20.9457 21.4088 21.0614 22.1035 21.2509C22.7981 21.4193 23.377 21.5982 23.8401 21.7877C24.2401 21.4088 24.5348 21.1035 24.7243 20.872C24.9348 20.6404 25.2189 20.2405 25.5768 19.6721C25.9557 19.0827 26.2083 18.6301 26.3346 18.3143C26.482 17.9986 26.5872 17.6723 26.6504 17.3355C26.7346 16.9987 26.8083 16.6513 26.8714 16.2935C26.9346 15.9356 26.9661 15.6514 26.9661 15.4409C26.9661 15.062 26.8714 14.5779 26.682 13.9884C26.5136 13.399 26.1452 12.9149 25.5768 12.5359C25.0295 12.157 24.5558 11.936 24.1559 11.8728C23.7559 11.7886 23.2507 11.7465 22.6402 11.7465C22.0929 11.7465 21.6509 11.8307 21.3141 11.9991C20.9983 12.1465 20.5562 12.3991 19.9879 12.757C19.4405 13.0938 19.0406 13.3674 18.788 13.5779C18.5564 13.7674 18.2933 14.0305 17.9986 14.3673C17.7249 14.6831 17.4302 15.0199 17.1145 15.3778C16.8408 15.8198 16.6198 16.3987 16.4514 17.1145V17.0829V20.5247C17.2092 20.5247 17.8302 20.5562 18.3143 20.6194C18.8196 20.6615 19.5879 20.7562 20.6194 20.9036V20.9036ZM19.4827 24.3769C19.7563 24.398 20.2826 24.4927 21.0614 24.6611C21.8403 24.8295 22.2403 24.9137 22.2613 24.9137C22.3455 24.9137 22.3666 24.8506 22.3245 24.7243C22.3034 24.5769 22.3245 24.4716 22.3876 24.4085C22.2824 24.219 22.1877 24.0191 22.1035 23.8086C21.8929 23.7243 21.2404 23.598 20.1457 23.4296C19.0511 23.2612 18.1459 23.177 17.4302 23.177C16.7145 23.177 16.1251 23.156 15.662 23.1139C14.441 23.177 13.2201 23.2402 11.9991 23.3033C10.673 23.4928 9.79936 23.6296 9.37835 23.7138C8.95733 23.798 8.74682 23.9559 8.74682 24.1875C8.74682 24.2085 8.7784 24.2717 8.84155 24.3769C8.92576 24.4611 8.94681 24.5769 8.90471 24.7243C8.86261 24.8506 8.89418 24.9137 8.99943 24.9137C9.27309 24.8927 9.79935 24.7979 10.5782 24.6295C11.3571 24.4611 11.9781 24.3559 12.4412 24.3138C12.9043 24.2506 13.399 24.219 13.9253 24.219C14.1568 24.219 14.42 24.2296 14.7147 24.2506C15.0094 24.2506 15.3357 24.2506 15.6935 24.2506C16.0514 24.2506 16.3882 24.2506 16.704 24.2506C17.0197 24.2506 17.3144 24.2401 17.5881 24.219C17.8617 24.219 18.167 24.2401 18.5038 24.2822C18.8406 24.3243 19.1669 24.3559 19.4827 24.3769V24.3769ZM17.6512 12.8201C17.7144 12.3991 17.7775 11.9676 17.8407 11.5255C17.8407 11.1887 17.746 10.8729 17.5565 10.5782C17.3671 10.2625 17.1145 10.0204 16.7987 9.85198C16.4829 9.68358 16.1145 9.59937 15.6935 9.59937C14.7884 9.59937 14.1884 9.86251 13.8937 10.3888C13.599 10.894 13.4516 11.2939 13.4516 11.5887C13.4516 11.7571 13.4832 11.9676 13.5464 12.2202C13.6095 12.4517 13.6516 12.6517 13.6727 12.8201C13.799 13.2832 14.0411 13.7885 14.3989 14.3358C14.7778 14.862 15.1988 15.4304 15.662 16.0409C15.7672 15.8514 16.0935 15.3988 16.6408 14.6831C17.2092 13.9674 17.546 13.3464 17.6512 12.8201V12.8201ZM20.0194 26.4925C20.3141 26.4925 20.8088 26.5767 21.5035 26.7451C22.2192 26.9135 22.8297 27.0714 23.3349 27.2188C23.3349 27.1556 23.3349 27.103 23.3349 27.0609C23.1665 26.8714 23.1349 26.6609 23.2402 26.4294C23.3665 26.2188 23.0402 26.0189 22.2613 25.8294C21.1457 25.64 20.3141 25.5031 19.7668 25.4189C19.2406 25.3137 18.7564 25.2505 18.3143 25.2295C17.8723 25.2084 17.3671 25.1979 16.7987 25.1979H15.7251H14.5884C13.6832 25.1979 13.1148 25.2084 12.8833 25.2295C12.6728 25.2505 12.2202 25.3242 11.5255 25.4505C10.8519 25.5558 10.1362 25.6715 9.37835 25.7978C8.62052 25.9241 8.24161 26.1346 8.24161 26.4294C8.24161 26.4504 8.26266 26.5241 8.30476 26.6504C8.34686 26.7135 8.31529 26.8083 8.21004 26.9346C8.12583 27.0819 8.09425 27.1767 8.1153 27.2188C8.30476 27.1556 8.85208 27.0188 9.75726 26.8083C10.6835 26.5978 11.2413 26.4925 11.4308 26.4925L15.7251 26.4294L20.0194 26.4925ZM16.4514 5.30505H18.788V6.88384H16.4198V8.71525C16.6513 8.60999 16.9566 8.67315 17.3355 8.9047C17.7144 9.13626 18.0091 9.38887 18.2196 9.66253C18.4512 9.91513 18.6301 10.6519 18.7564 11.8728C18.8196 11.957 18.8932 12.0412 18.9774 12.1255C19.209 11.536 19.7458 11.094 20.5878 10.7993C21.4298 10.4835 22.1982 10.3256 22.8928 10.3256C23.5454 10.3256 24.1875 10.4414 24.819 10.673C25.4716 10.9045 25.9452 11.1045 26.2399 11.2729C26.5346 11.4413 26.8609 11.7255 27.2188 12.1255C27.5977 12.5044 27.8713 12.9991 28.0397 13.6095C28.2292 14.1989 28.3239 14.9041 28.3239 15.7251C28.3239 16.6724 28.0818 17.6197 27.5977 18.5669C27.1977 19.2616 26.8925 19.8089 26.682 20.2089C25.8399 21.3035 24.9979 22.3982 24.1559 23.4928C23.9664 23.8717 23.8191 24.1875 23.7138 24.4401C23.6086 24.6716 23.556 24.9137 23.556 25.1663C23.556 25.2926 23.577 25.44 23.6191 25.6084C23.6612 25.7557 23.9243 25.9347 24.4085 26.1452C24.9137 26.3557 25.1874 26.6083 25.2295 26.903C25.3137 27.4924 25.04 27.9134 24.4085 28.166C23.777 28.4397 23.2297 28.6818 22.7665 28.8923C22.3034 29.1238 21.7666 29.2922 21.1562 29.3975C20.5668 29.5238 19.8089 29.6712 18.8827 29.8396C17.9565 30.008 16.8934 30.0922 15.6935 30.0922C14.4936 30.0922 13.3885 29.9974 12.3781 29.808C11.3887 29.6185 10.6309 29.4817 10.1046 29.3975C9.55727 29.2712 9.02048 29.0817 8.49422 28.8291C7.989 28.5976 7.46274 28.366 6.91542 28.1345C6.326 27.8187 6.07339 27.4082 6.1576 26.903C6.1997 26.6504 6.47336 26.3978 6.97857 26.1452C7.48379 25.8926 7.75745 25.661 7.79955 25.4505C7.8627 25.1137 7.81007 24.7874 7.64166 24.4716C7.49431 24.1348 7.33643 23.8086 7.16803 23.4928C6.97857 23.0297 6.54703 22.4297 5.87341 21.693C5.19979 20.9562 4.6209 20.1668 4.13674 19.3248C3.67362 18.4617 3.36839 17.8091 3.22104 17.3671C3.07368 16.925 3 16.3777 3 15.7251C3 14.862 3.0842 14.1463 3.25261 13.5779C3.42101 13.0096 3.69467 12.5254 4.07358 12.1255C4.47355 11.7044 4.79983 11.4203 5.05244 11.2729C5.30505 11.1255 5.76816 10.9361 6.44178 10.7045C7.1154 10.4519 7.78902 10.3256 8.46264 10.3256C9.17836 10.3256 9.84146 10.4414 10.4519 10.673C11.0835 10.9045 11.515 11.1255 11.7465 11.3361C11.9991 11.5466 12.1781 11.8097 12.2833 12.1255C12.3254 12.0623 12.3781 11.9991 12.4412 11.936C12.5886 10.7151 12.778 9.96776 13.0096 9.6941C13.2411 9.42045 13.5358 9.16784 13.8937 8.93628C14.2726 8.68367 14.5779 8.60999 14.8094 8.71525V6.88384H12.4728V5.30505H14.8094V3H16.4514V5.30505ZM13.8937 19.7037V17.0197V17.0513C13.7253 16.3356 13.5043 15.7988 13.2306 15.4409C12.9149 15.1462 12.6412 14.862 12.4096 14.5884C12.1781 14.2937 11.8307 14.0305 11.3676 13.799C10.9466 13.5043 10.5572 13.2832 10.1993 13.1359C9.86251 12.9675 9.4836 12.8833 9.06258 12.8833C8.78893 12.8833 8.47317 12.8938 8.1153 12.9149C7.75744 12.9359 7.33643 13.1043 6.85227 13.4201C6.3681 13.7358 6.05234 14.1358 5.90499 14.62C5.77868 15.1041 5.71554 15.483 5.71554 15.7567C5.71554 15.9461 5.72606 16.1356 5.74711 16.3251C5.78921 16.5145 5.85236 16.7882 5.93657 17.146C6.02077 17.4828 6.1155 17.7775 6.22075 18.0302C6.34705 18.2617 6.55756 18.6406 6.85227 19.1669C7.04172 19.4405 7.23118 19.6932 7.42063 19.9247C7.63114 20.1563 7.87323 20.3983 8.14688 20.651C8.23109 20.6299 8.57842 20.5457 9.18889 20.3983C9.82041 20.2299 10.3151 20.0931 10.673 19.9879C11.2624 19.9037 11.7781 19.8405 12.2202 19.7984C12.6622 19.7353 13.2201 19.7037 13.8937 19.7037V19.7037ZM20.651 19.9879C21.093 20.0931 21.5246 20.1984 21.9456 20.3036C22.3666 20.4089 22.7771 20.5247 23.177 20.651C23.3875 20.4405 23.598 20.2194 23.8085 19.9879C24.0401 19.7563 24.2717 19.4405 24.5032 19.0406C24.7558 18.6406 24.9453 18.3143 25.0716 18.0617C25.1979 17.8091 25.2926 17.5144 25.3558 17.1776C25.44 16.8197 25.5031 16.5461 25.5452 16.3566C25.5873 16.1461 25.6084 15.9356 25.6084 15.7251C25.6084 15.4515 25.5347 15.0831 25.3874 14.62C25.261 14.1358 24.9769 13.7569 24.5348 13.4832C24.0927 13.1885 23.7138 13.0201 23.3981 12.978C23.1034 12.9148 22.7244 12.8833 22.2613 12.8833C21.8824 12.8833 21.5667 12.9254 21.3141 13.0096C21.0825 13.0938 20.7141 13.2938 20.2089 13.6095C19.7247 13.9042 19.409 14.1147 19.2616 14.241C19.1143 14.3463 18.9248 14.5357 18.6933 14.8094C18.4406 15.0199 18.2091 15.262 17.9986 15.5357C17.8091 15.7883 17.6197 16.2935 17.4302 17.0513V17.0197V19.7037C18.2091 19.7037 18.8617 19.7458 19.3879 19.83C19.9142 19.8931 20.3352 19.9458 20.651 19.9879V19.9879ZM16.9566 12.5359C17.0408 12.1149 17.0829 11.8413 17.0829 11.715C17.0829 11.5676 17.0303 11.3676 16.925 11.115C16.7987 10.9256 16.6303 10.7993 16.4198 10.7361C16.2093 10.6519 15.9672 10.6098 15.6935 10.6098C15.3567 10.6098 15.0936 10.6414 14.9041 10.7045C14.7147 10.7466 14.5568 10.8835 14.4305 11.115C14.3042 11.3255 14.241 11.5571 14.241 11.8097C14.241 12.0623 14.2831 12.3044 14.3673 12.5359C14.4515 12.9149 14.6726 13.3359 15.0304 13.799C15.4094 14.2621 15.6199 14.5568 15.662 14.6831C15.7251 14.5568 15.9356 14.2621 16.2935 13.799C16.6724 13.3359 16.8934 12.9149 16.9566 12.5359V12.5359Z" fill="black"/>
<path fill-rule="evenodd" clip-rule="evenodd" d="M14.8726 17.1145V20.5247C14.0937 20.5247 13.4727 20.5457 13.0096 20.5878C12.5675 20.6299 11.9676 20.7141 11.2098 20.8404C10.4519 20.9667 9.75728 21.1141 9.12576 21.2825C8.49424 21.4509 7.94692 21.6193 7.48381 21.7877C7.147 21.4719 6.84176 21.1562 6.5681 20.8404C6.29445 20.5247 5.99974 20.1247 5.68398 19.6405C5.38927 19.1353 5.16824 18.7354 5.02089 18.4406C4.89458 18.1459 4.78933 17.8197 4.70512 17.4618C4.62092 17.1039 4.53672 16.7671 4.45251 16.4514C4.38936 16.1356 4.35779 15.8093 4.35779 15.4725C4.35779 15.0725 4.44199 14.5779 4.6104 13.9884C4.79985 13.399 5.17876 12.9149 5.74713 12.5359C6.33655 12.136 6.78914 11.9044 7.1049 11.8413C7.44171 11.7781 7.96797 11.7465 8.68369 11.7465C9.20996 11.7465 9.65202 11.8413 10.0099 12.0307C10.3888 12.1991 10.8624 12.4623 11.4308 12.8201C11.9992 13.178 12.3676 13.4306 12.536 13.578C12.7254 13.7043 12.9149 13.8937 13.1043 14.1463C13.3148 14.3989 13.6201 14.7042 14.02 15.062C14.3568 15.5041 14.641 16.1882 14.8726 17.1145ZM22.1035 21.2509C21.4088 21.0615 20.9141 20.9457 20.6194 20.9036C19.5879 20.7562 18.8196 20.6615 18.3144 20.6194C17.8302 20.5562 17.2092 20.5247 16.4514 20.5247V17.1145C16.6198 16.3987 16.8408 15.8198 17.1145 15.3778C17.4302 15.0199 17.7249 14.6831 17.9986 14.3674C18.2933 14.0305 18.5564 13.7674 18.788 13.578C19.0406 13.3674 19.4406 13.0938 19.9879 12.757C20.5562 12.3991 20.9983 12.1465 21.3141 11.9992C21.6509 11.8307 22.093 11.7465 22.6403 11.7465C23.2507 11.7465 23.7559 11.7886 24.1559 11.8729C24.5559 11.936 25.0295 12.157 25.5768 12.5359C26.1452 12.9149 26.5136 13.399 26.682 13.9884C26.8714 14.5779 26.9662 15.062 26.9662 15.4409C26.9662 15.6514 26.9346 15.9356 26.8714 16.2935C26.8083 16.6513 26.7346 16.9987 26.6504 17.3355C26.5873 17.6723 26.482 17.9986 26.3347 18.3143C26.2083 18.6301 25.9557 19.0827 25.5768 19.6721C25.219 20.2405 24.9348 20.6404 24.7243 20.872C24.5348 21.1036 24.2401 21.4088 23.8401 21.7877C23.377 21.5982 22.7981 21.4193 22.1035 21.2509ZM21.0615 24.6611C20.2826 24.4927 19.7563 24.398 19.4827 24.3769C19.1669 24.3559 18.8406 24.3243 18.5038 24.2822C18.167 24.2401 17.8618 24.219 17.5881 24.219C17.3145 24.2401 17.0197 24.2506 16.704 24.2506H15.6936H14.7147C14.42 24.2296 14.1569 24.219 13.9253 24.219C13.399 24.219 12.9043 24.2506 12.4412 24.3138C11.9781 24.3559 11.3571 24.4611 10.5782 24.6295C9.79937 24.7979 9.27311 24.8927 8.99945 24.9137C8.8942 24.9137 8.86263 24.8506 8.90473 24.7243C8.94683 24.5769 8.92578 24.4611 8.84157 24.3769C8.77842 24.2717 8.74684 24.2085 8.74684 24.1875C8.74684 23.9559 8.95735 23.798 9.37837 23.7138C9.79938 23.6296 10.673 23.4928 11.9992 23.3033L15.662 23.1139C16.1251 23.156 16.7145 23.177 17.4302 23.177C18.146 23.177 19.0511 23.2612 20.1458 23.4296C21.2404 23.5981 21.893 23.7244 22.1035 23.8086C22.1877 24.0191 22.2824 24.219 22.3877 24.4085C22.3245 24.4717 22.3035 24.5769 22.3245 24.7243C22.3666 24.8506 22.3456 24.9137 22.2614 24.9137C22.2403 24.9137 21.8403 24.8295 21.0615 24.6611ZM17.8407 11.5255C17.7776 11.9676 17.7144 12.3991 17.6513 12.8201C17.546 13.3464 17.2092 13.9674 16.6408 14.6831C16.0935 15.3988 15.7672 15.8514 15.662 16.0409C15.1989 15.4304 14.7779 14.862 14.3989 14.3358C14.0411 13.7885 13.799 13.2832 13.6727 12.8201C13.6516 12.6517 13.6095 12.4517 13.5464 12.2202C13.4832 11.9676 13.4517 11.7571 13.4517 11.5887C13.4517 11.294 13.599 10.894 13.8937 10.3888C14.1884 9.86251 14.7884 9.59938 15.6936 9.59938C16.1146 9.59938 16.483 9.68358 16.7987 9.85199C17.1145 10.0204 17.3671 10.2625 17.5565 10.5782C17.746 10.8729 17.8407 11.1887 17.8407 11.5255ZM21.5035 26.7451C20.8089 26.5767 20.3142 26.4925 20.0195 26.4925L15.7251 26.4294L11.4308 26.4925C11.2413 26.4925 10.6835 26.5978 9.75728 26.8083C8.8521 27.0188 8.30478 27.1556 8.11533 27.2188C8.09427 27.1767 8.12585 27.0819 8.21006 26.9346C8.31531 26.8083 8.34688 26.7135 8.30478 26.6504C8.26268 26.5241 8.24163 26.4504 8.24163 26.4294C8.24163 26.1347 8.62054 25.9241 9.37837 25.7978C10.1362 25.6715 10.8519 25.5558 11.5255 25.4505C12.2202 25.3242 12.6728 25.2505 12.8833 25.2295C13.1149 25.2084 13.6832 25.1979 14.5884 25.1979H15.7251H16.7987C17.3671 25.1979 17.8723 25.2084 18.3144 25.2295C18.7564 25.2505 19.2406 25.3137 19.7668 25.4189C20.3142 25.5031 21.1457 25.64 22.2614 25.8294C23.0402 26.0189 23.3665 26.2189 23.2402 26.4294C23.135 26.6609 23.1665 26.8714 23.3349 27.0609V27.2188C22.8297 27.0714 22.2192 26.9135 21.5035 26.7451ZM17.0829 11.715C17.0829 11.8413 17.0408 12.1149 16.9566 12.5359C16.8934 12.9149 16.6724 13.3359 16.2935 13.799C15.9356 14.2621 15.7251 14.5568 15.662 14.6831C15.6199 14.5568 15.4094 14.2621 15.0305 13.799C14.6726 13.3359 14.4516 12.9149 14.3674 12.5359C14.2832 12.3044 14.2411 12.0623 14.2411 11.8097C14.2411 11.5571 14.3042 11.3255 14.4305 11.115C14.5568 10.8835 14.7147 10.7466 14.9042 10.7045C15.0936 10.6414 15.3567 10.6098 15.6936 10.6098C15.9672 10.6098 16.2093 10.6519 16.4198 10.7361C16.6303 10.7993 16.7987 10.9256 16.925 11.115C17.0303 11.3676 17.0829 11.5676 17.0829 11.715ZM20.651 19.9879C21.093 20.0931 21.5246 20.1984 21.9456 20.3036C22.3666 20.4089 22.7771 20.5247 23.1771 20.651C23.3876 20.4405 23.5981 20.2194 23.8086 19.9879C24.0401 19.7563 24.2717 19.4406 24.5032 19.0406C24.7558 18.6406 24.9453 18.3143 25.0716 18.0617C25.1979 17.8091 25.2926 17.5144 25.3558 17.1776C25.44 16.8197 25.5031 16.5461 25.5452 16.3566C25.5873 16.1461 25.6084 15.9356 25.6084 15.7251C25.6084 15.4515 25.5347 15.0831 25.3874 14.62C25.2611 14.1358 24.9769 13.7569 24.5348 13.4832C24.0928 13.1885 23.7138 13.0201 23.3981 12.978C23.1034 12.9149 22.7245 12.8833 22.2614 12.8833C21.8824 12.8833 21.5667 12.9254 21.3141 13.0096C21.0825 13.0938 20.7141 13.2938 20.2089 13.6095C19.7247 13.9042 19.409 14.1147 19.2616 14.241C19.1143 14.3463 18.9248 14.5358 18.6933 14.8094C18.4407 15.0199 18.2091 15.262 17.9986 15.5357C17.8091 15.7883 17.6197 16.2935 17.4302 17.0513V19.7037C18.2091 19.7037 18.8617 19.7458 19.3879 19.83C19.9142 19.8931 20.3352 19.9458 20.651 19.9879ZM13.8937 17.0513V19.7037C13.2201 19.7037 12.6623 19.7353 12.2202 19.7984C11.7781 19.8405 11.2624 19.9037 10.673 19.9879C10.3151 20.0931 9.82043 20.2299 9.18891 20.3984C8.57844 20.5457 8.23111 20.6299 8.1469 20.651C7.87325 20.3984 7.63116 20.1563 7.42065 19.9247C7.2312 19.6932 7.04174 19.4406 6.85229 19.1669C6.55758 18.6406 6.34707 18.2617 6.22077 18.0302C6.11552 17.7776 6.02079 17.4828 5.93659 17.146C5.85238 16.7882 5.78923 16.5145 5.74713 16.3251C5.72608 16.1356 5.71556 15.9461 5.71556 15.7567C5.71556 15.483 5.7787 15.1041 5.90501 14.62C6.05236 14.1358 6.36812 13.7358 6.85229 13.4201C7.33645 13.1043 7.75746 12.9359 8.11533 12.9149C8.47319 12.8938 8.78895 12.8833 9.0626 12.8833C9.48362 12.8833 9.86253 12.9675 10.1993 13.1359C10.5572 13.2832 10.9466 13.5043 11.3677 13.799C11.8308 14.0305 12.1781 14.2937 12.4097 14.5884C12.6412 14.862 12.9149 15.1462 13.2306 15.4409C13.5043 15.7988 13.7253 16.3356 13.8937 17.0513Z" fill="#EEEEEE"/>
</svg>
