<svg width="32" height="32" viewBox="0 0 32 32" fill="none" xmlns="http://www.w3.org/2000/svg">
<path d="M22.6402 27.4714C22.556 27.3451 22.4718 27.2293 22.3876 27.124C21.6298 26.8714 20.8404 26.7451 20.0194 26.7451C19.5563 26.7451 18.8511 26.7135 17.9038 26.6504C16.9566 26.5872 16.1882 26.5557 15.5988 26.5557C14.9883 26.5557 14.2305 26.5978 13.3253 26.682C12.4202 26.7662 11.7255 26.8083 11.2413 26.8083C10.7151 26.8083 10.0941 26.8925 9.37834 27.0609C9.12573 27.1872 8.88365 27.324 8.6521 27.4714C9.55727 27.8503 10.5888 28.1239 11.7465 28.2923C12.9254 28.4607 14.2305 28.5449 15.662 28.5449C18.4827 28.5449 20.8088 28.1871 22.6402 27.4714ZM14.8726 20.5247V17.0829V17.1145C14.641 16.1882 14.3568 15.5041 14.02 15.062C13.62 14.7042 13.3148 14.3989 13.1043 14.1463C12.9148 13.8937 12.7254 13.7042 12.5359 13.5779C12.3675 13.4306 11.9991 13.178 11.4308 12.8201C10.8624 12.4623 10.3888 12.1991 10.0099 12.0307C9.652 11.8413 9.20994 11.7465 8.68367 11.7465C7.96795 11.7465 7.44168 11.7781 7.10487 11.8413C6.78911 11.9044 6.33653 12.136 5.74711 12.5359C5.17874 12.9149 4.79983 13.399 4.61037 13.9884C4.44197 14.5778 4.35777 15.0725 4.35777 15.4725C4.35777 15.8093 4.38934 16.1356 4.45249 16.4514C4.5367 16.7671 4.6209 17.1039 4.7051 17.4618C4.7893 17.8196 4.89456 18.1459 5.02086 18.4406C5.16822 18.7353 5.38925 19.1353 5.68396 19.6405C5.99972 20.1247 6.29442 20.5246 6.56808 20.8404C6.84174 21.1562 7.14697 21.4719 7.48378 21.7877C7.9469 21.6193 8.49422 21.4509 9.12573 21.2825C9.75725 21.1141 10.4519 20.9667 11.2097 20.8404C11.9676 20.7141 12.5675 20.6299 13.0096 20.5878C13.4727 20.5457 14.0937 20.5247 14.8726 20.5247ZM20.6194 20.9036C20.9141 20.9457 21.4088 21.0614 22.1034 21.2509C22.7981 21.4193 23.377 21.5982 23.8401 21.7877C24.2401 21.4088 24.5348 21.1035 24.7243 20.872C24.9348 20.6404 25.2189 20.2405 25.5768 19.6721C25.9557 19.0827 26.2083 18.6301 26.3346 18.3143C26.482 17.9986 26.5872 17.6723 26.6504 17.3355C26.7346 16.9987 26.8083 16.6513 26.8714 16.2935C26.9346 15.9356 26.9661 15.6514 26.9661 15.4409C26.9661 15.062 26.8714 14.5778 26.682 13.9884C26.5136 13.399 26.1452 12.9149 25.5768 12.5359C25.0295 12.157 24.5558 11.936 24.1559 11.8728C23.7559 11.7886 23.2507 11.7465 22.6402 11.7465C22.0929 11.7465 21.6509 11.8307 21.314 11.9991C20.9983 12.1465 20.5562 12.3991 19.9879 12.757C19.4405 13.0938 19.0406 13.3674 18.788 13.5779C18.5564 13.7674 18.2933 14.0305 17.9986 14.3673C17.7249 14.6831 17.4302 15.0199 17.1144 15.3778C16.8408 15.8198 16.6198 16.3987 16.4514 17.1145V17.0829V20.5247C17.2092 20.5247 17.8302 20.5562 18.3143 20.6194C18.8195 20.6615 19.5879 20.7562 20.6194 20.9036ZM19.3563 25.3873L22.135 25.861C22.135 25.8189 22.135 25.7768 22.135 25.7347C21.9035 25.5031 21.8193 25.3558 21.8824 25.2926C21.9666 25.2084 22.0087 25.1242 22.0087 25.04C22.0087 24.8295 21.7877 24.6716 21.3456 24.5664C20.9246 24.4611 20.3247 24.3559 19.5458 24.2506C18.7669 24.1454 18.188 24.0927 17.8091 24.0927C17.5565 24.0927 17.3039 24.1033 17.0513 24.1243C16.8197 24.1243 16.5777 24.1243 16.3251 24.1243H15.8514C15.7041 24.1033 15.5988 24.0927 15.5357 24.0927C15.3462 24.1138 15.1567 24.1243 14.9673 24.1243C14.7778 24.1243 14.6305 24.1243 14.5252 24.1243H13.8937C13.5779 24.1243 13.2727 24.1348 12.978 24.1559C12.7043 24.1559 12.4412 24.198 12.1886 24.2822C11.957 24.3453 11.3676 24.4506 10.4203 24.598C9.47307 24.7243 8.99943 24.8927 8.99943 25.1032C8.99943 25.1663 9.05206 25.2716 9.15731 25.4189C9.22046 25.4821 9.19941 25.5663 9.09416 25.6715C9.00996 25.7768 8.93628 25.8715 8.87313 25.9557C9.10468 25.9347 9.64147 25.8294 10.4835 25.64C11.3466 25.4505 11.9465 25.3347 12.2833 25.2926C12.6201 25.2295 12.9464 25.1874 13.2622 25.1663C13.599 25.1453 13.9884 25.1347 14.4305 25.1347H15.5357C16.1672 25.1347 16.704 25.1453 17.146 25.1663C17.5881 25.1663 18.3249 25.24 19.3563 25.3873ZM11.6202 21.693C10.6309 21.8824 9.7783 22.0613 9.06258 22.2298C8.34686 22.3771 7.989 22.6087 7.989 22.9244C7.989 23.0718 8.04163 23.1981 8.14688 23.3033C8.29423 23.5349 8.41001 23.7243 8.49422 23.8717C8.59947 23.998 8.70472 24.0612 8.80997 24.0612C9.04153 24.0612 9.29414 23.998 9.5678 23.8717C9.84146 23.7243 10.1362 23.6191 10.4519 23.5559C10.7677 23.4717 11.1676 23.4086 11.6518 23.3665C12.136 23.3033 12.6833 23.2718 13.2938 23.2718C13.6516 23.2718 14.02 23.2823 14.3989 23.3033C14.7989 23.3033 15.1988 23.3033 15.5988 23.3033C15.9567 23.3033 16.304 23.3033 16.6408 23.3033C16.9776 23.3033 17.3144 23.2928 17.6512 23.2718C18.1986 23.2718 18.7038 23.2928 19.1669 23.3349C19.6511 23.377 20.1984 23.4717 20.8088 23.6191C21.1456 23.7665 21.4193 23.8822 21.6298 23.9664C21.8403 24.0296 22.0613 24.0612 22.2929 24.0612C22.4192 24.0612 22.5245 23.9454 22.6087 23.7138C22.6929 23.4823 22.7665 23.3244 22.8297 23.2402C22.8928 23.156 22.9244 23.0507 22.9244 22.9244C22.9244 22.6087 22.4718 22.3455 21.5667 22.135C20.7878 21.9877 20.0194 21.8403 19.2616 21.693C18.6511 21.5246 18.0302 21.4088 17.3986 21.3456C16.7882 21.2825 16.1672 21.2193 15.5357 21.1562C14.5884 21.2404 13.8516 21.3141 13.3253 21.3772C12.7991 21.4193 12.2307 21.5246 11.6202 21.693ZM17.5881 12.7885C17.6512 12.3675 17.7144 11.9465 17.7775 11.5255C17.7775 11.3361 17.7565 11.1887 17.7144 11.0834C17.6933 10.9782 17.5565 10.7151 17.3039 10.294C17.0723 9.87303 16.5356 9.66252 15.6935 9.66252C14.8094 9.66252 14.22 9.91513 13.9253 10.4203C13.6516 10.9256 13.5148 11.3255 13.5148 11.6202C13.5148 11.8097 13.5464 12.0202 13.6095 12.2518C13.6727 12.4833 13.7358 12.7464 13.799 13.0412C13.8621 13.3148 14.0726 13.7148 14.4305 14.241C14.8094 14.7673 15.2199 15.3251 15.662 15.9146C15.7462 15.7672 16.0619 15.3462 16.6092 14.6515C17.1565 13.9569 17.4828 13.3359 17.5881 12.7885ZM16.4514 5.30504H18.788V6.88384H16.4198V8.71524C16.6513 8.60999 16.9566 8.67314 17.3355 8.9047C17.7144 9.13626 18.0091 9.38887 18.2196 9.66252C18.4512 9.91513 18.6301 10.6519 18.7564 11.8728C18.8195 11.957 18.8932 12.0412 18.9774 12.1255C19.209 11.536 19.7458 11.094 20.5878 10.7993C21.4298 10.4835 22.1982 10.3256 22.8928 10.3256C23.5454 10.3256 24.1875 10.4414 24.819 10.673C25.4715 10.9045 25.9452 11.1045 26.2399 11.2729C26.5346 11.4413 26.8609 11.7255 27.2188 12.1255C27.5977 12.5044 27.8713 12.9991 28.0397 13.6095C28.2292 14.1989 28.3239 14.9041 28.3239 15.7251C28.3239 16.6724 28.0818 17.6197 27.5977 18.5669C27.1977 19.2616 26.8925 19.8089 26.682 20.2089C25.8399 21.3035 24.9979 22.3982 24.1559 23.4928C23.9664 23.8717 23.8191 24.1875 23.7138 24.4401C23.6086 24.6716 23.5559 24.9137 23.5559 25.1663C23.5559 25.2926 23.577 25.44 23.6191 25.6084C23.6612 25.7557 23.9243 25.9347 24.4085 26.1452C24.9137 26.3557 25.1874 26.6083 25.2295 26.903C25.3137 27.4924 25.04 27.9134 24.4085 28.166C23.777 28.4397 23.2297 28.6818 22.7665 28.8923C22.3034 29.1238 21.7666 29.2922 21.1562 29.3975C20.5668 29.5238 19.8089 29.6711 18.8827 29.8396C17.9565 30.008 16.8934 30.0922 15.6935 30.0922C14.4936 30.0922 13.3885 29.9974 12.3781 29.808C11.3887 29.6185 10.6309 29.4817 10.1046 29.3975C9.55727 29.2712 9.02048 29.0817 8.49422 28.8291C7.989 28.5976 7.46273 28.366 6.91542 28.1345C6.326 27.8187 6.07339 27.4082 6.1576 26.903C6.1997 26.6504 6.47335 26.3978 6.97857 26.1452C7.48378 25.8926 7.75744 25.661 7.79954 25.4505C7.8627 25.1137 7.81007 24.7874 7.64166 24.4716C7.49431 24.1348 7.33643 23.8086 7.16803 23.4928C6.97857 23.0297 6.54703 22.4297 5.87341 21.693C5.19979 20.9562 4.6209 20.1668 4.13673 19.3248C3.67362 18.4617 3.36839 17.8091 3.22103 17.3671C3.07368 16.925 3 16.3777 3 15.7251C3 14.862 3.0842 14.1463 3.25261 13.5779C3.42101 13.0096 3.69467 12.5254 4.07358 12.1255C4.47354 11.7044 4.79983 11.4203 5.05244 11.2729C5.30504 11.1255 5.76816 10.9361 6.44178 10.7045C7.1154 10.4519 7.78902 10.3256 8.46264 10.3256C9.17836 10.3256 9.84145 10.4414 10.4519 10.673C11.0834 10.9045 11.515 11.1255 11.7465 11.336C11.9991 11.5466 12.1781 11.8097 12.2833 12.1255C12.3254 12.0623 12.3781 11.9991 12.4412 11.936C12.5886 10.7151 12.778 9.96776 13.0096 9.6941C13.2411 9.42044 13.5358 9.16784 13.8937 8.93628C14.2726 8.68367 14.5778 8.60999 14.8094 8.71524V6.88384H12.4728V5.30504H14.8094V3H16.4514V5.30504Z" fill="black"/>
<path d="M22.6403 27.4714C22.5561 27.3451 22.4719 27.2293 22.3877 27.124C21.6298 26.8714 20.8404 26.7451 20.0195 26.7451C19.5563 26.7451 18.8511 26.7136 17.9039 26.6504C16.9566 26.5873 16.1882 26.5557 15.5988 26.5557C14.9884 26.5557 14.2305 26.5978 13.3254 26.682C12.4202 26.7662 11.7255 26.8083 11.2413 26.8083C10.7151 26.8083 10.0941 26.8925 9.37836 27.0609C9.12576 27.1872 8.88367 27.324 8.65212 27.4714C9.55729 27.8503 10.5888 28.1239 11.7466 28.2924C12.9254 28.4608 14.2305 28.545 15.662 28.545C18.4828 28.545 20.8089 28.1871 22.6403 27.4714ZM14.8726 20.5247V17.0829V17.1145C14.641 16.1882 14.3568 15.5041 14.02 15.062C13.6201 14.7042 13.3148 14.3989 13.1043 14.1463C12.9149 13.8937 12.7254 13.7043 12.536 13.578C12.3676 13.4306 11.9992 13.178 11.4308 12.8201C10.8624 12.4623 10.3888 12.1991 10.0099 12.0307C9.65202 11.8413 9.20996 11.7465 8.68369 11.7465C7.96797 11.7465 7.4417 11.7781 7.10489 11.8413C6.78914 11.9044 6.33655 12.136 5.74713 12.536C5.17876 12.9149 4.79985 13.399 4.61039 13.9884C4.44199 14.5779 4.35779 15.0726 4.35779 15.4725C4.35779 15.8093 4.38936 16.1356 4.45252 16.4514C4.53672 16.7671 4.62092 17.1039 4.70512 17.4618C4.78933 17.8197 4.89458 18.1459 5.02088 18.4407C5.16824 18.7354 5.38927 19.1353 5.68398 19.6405C5.99974 20.1247 6.29445 20.5247 6.5681 20.8404C6.84176 21.1562 7.147 21.4719 7.48381 21.7877C7.94692 21.6193 8.49424 21.4509 9.12576 21.2825C9.75727 21.1141 10.4519 20.9667 11.2098 20.8404C11.9676 20.7141 12.5675 20.6299 13.0096 20.5878C13.4727 20.5457 14.0937 20.5247 14.8726 20.5247ZM20.6194 20.9036C20.9141 20.9457 21.4088 21.0615 22.1035 21.2509C22.7981 21.4193 23.377 21.5982 23.8401 21.7877C24.2401 21.4088 24.5348 21.1036 24.7243 20.872C24.9348 20.6404 25.219 20.2405 25.5768 19.6721C25.9557 19.0827 26.2083 18.6301 26.3346 18.3143C26.482 17.9986 26.5873 17.6723 26.6504 17.3355C26.7346 16.9987 26.8083 16.6513 26.8714 16.2935C26.9346 15.9356 26.9662 15.6514 26.9662 15.4409C26.9662 15.062 26.8714 14.5779 26.682 13.9884C26.5136 13.399 26.1452 12.9149 25.5768 12.536C25.0295 12.157 24.5559 11.936 24.1559 11.8729C23.7559 11.7887 23.2507 11.7465 22.6403 11.7465C22.0929 11.7465 21.6509 11.8308 21.3141 11.9992C20.9983 12.1465 20.5563 12.3991 19.9879 12.757C19.4406 13.0938 19.0406 13.3675 18.788 13.578C18.5564 13.7674 18.2933 14.0305 17.9986 14.3674C17.7249 14.6831 17.4302 15.0199 17.1145 15.3778C16.8408 15.8198 16.6198 16.3987 16.4514 17.1145V17.0829V20.5247C17.2092 20.5247 17.8302 20.5562 18.3144 20.6194C18.8196 20.6615 19.5879 20.7562 20.6194 20.9036ZM19.3564 25.3874L22.135 25.861C22.135 25.8189 22.135 25.7768 22.135 25.7347C21.9035 25.5031 21.8193 25.3558 21.8824 25.2926C21.9666 25.2084 22.0087 25.1242 22.0087 25.04C22.0087 24.8295 21.7877 24.6716 21.3456 24.5664C20.9246 24.4611 20.3247 24.3559 19.5458 24.2506C18.7669 24.1454 18.1881 24.0927 17.8091 24.0927C17.5565 24.0927 17.3039 24.1033 17.0513 24.1243C16.8198 24.1243 16.5777 24.1243 16.3251 24.1243H15.8514C15.7041 24.1033 15.5988 24.0927 15.5357 24.0927C15.3462 24.1138 15.1568 24.1243 14.9673 24.1243C14.7779 24.1243 14.6305 24.1243 14.5252 24.1243H13.8937C13.578 24.1243 13.2727 24.1348 12.978 24.1559C12.7044 24.1559 12.4412 24.198 12.1886 24.2822C11.9571 24.3454 11.3676 24.4506 10.4204 24.598C9.47309 24.7243 8.99945 24.8927 8.99945 25.1032C8.99945 25.1663 9.05208 25.2716 9.15733 25.4189C9.22048 25.4821 9.19943 25.5663 9.09418 25.6715C9.00998 25.7768 8.9363 25.8715 8.87315 25.9557C9.10471 25.9347 9.6415 25.8294 10.4835 25.64C11.3466 25.4505 11.9465 25.3347 12.2834 25.2926C12.6202 25.2295 12.9464 25.1874 13.2622 25.1663C13.599 25.1453 13.9885 25.1348 14.4305 25.1348H15.5357C16.1672 25.1348 16.704 25.1453 17.146 25.1663C17.5881 25.1663 18.3249 25.24 19.3564 25.3874ZM11.6203 21.693C10.6309 21.8824 9.77833 22.0614 9.0626 22.2298C8.34688 22.3771 7.98902 22.6087 7.98902 22.9244C7.98902 23.0718 8.04165 23.1981 8.1469 23.3033C8.29426 23.5349 8.41003 23.7244 8.49424 23.8717C8.59949 23.998 8.70474 24.0612 8.81 24.0612C9.04155 24.0612 9.29416 23.998 9.56782 23.8717C9.84148 23.7244 10.1362 23.6191 10.4519 23.556C10.7677 23.4718 11.1677 23.4086 11.6518 23.3665C12.136 23.3033 12.6833 23.2718 13.2938 23.2718C13.6516 23.2718 14.02 23.2823 14.3989 23.3033C14.7989 23.3033 15.1989 23.3033 15.5988 23.3033C15.9567 23.3033 16.304 23.3033 16.6408 23.3033C16.9776 23.3033 17.3145 23.2928 17.6513 23.2718C18.1986 23.2718 18.7038 23.2928 19.1669 23.3349C19.6511 23.377 20.1984 23.4718 20.8089 23.6191C21.1457 23.7665 21.4193 23.8822 21.6298 23.9664C21.8403 24.0296 22.0614 24.0612 22.2929 24.0612C22.4192 24.0612 22.5245 23.9454 22.6087 23.7138C22.6929 23.4823 22.7666 23.3244 22.8297 23.2402C22.8929 23.156 22.9244 23.0507 22.9244 22.9244C22.9244 22.6087 22.4719 22.3455 21.5667 22.135C20.7878 21.9877 20.0195 21.8403 19.2616 21.693C18.6512 21.5246 18.0302 21.4088 17.3987 21.3456C16.7882 21.2825 16.1672 21.2193 15.5357 21.1562C14.5884 21.2404 13.8516 21.3141 13.3254 21.3772C12.7991 21.4193 12.2307 21.5246 11.6203 21.693ZM17.5881 12.7886C17.6513 12.3675 17.7144 11.9465 17.7776 11.5255C17.7776 11.3361 17.7565 11.1887 17.7144 11.0835C17.6934 10.9782 17.5565 10.7151 17.3039 10.2941C17.0724 9.87304 16.5356 9.66254 15.6936 9.66254C14.8094 9.66254 14.22 9.91514 13.9253 10.4204C13.6516 10.9256 13.5148 11.3255 13.5148 11.6202C13.5148 11.8097 13.5464 12.0202 13.6095 12.2518C13.6727 12.4833 13.7358 12.7465 13.799 13.0412C13.8621 13.3148 14.0727 13.7148 14.4305 14.241C14.8094 14.7673 15.2199 15.3252 15.662 15.9146C15.7462 15.7672 16.0619 15.3462 16.6093 14.6515C17.1566 13.9569 17.4829 13.3359 17.5881 12.7886Z" fill="white"/>
</svg>
