<svg width="32" height="32" viewBox="0 0 32 32" fill="none" xmlns="http://www.w3.org/2000/svg">
<path d="M29.4606 29.808H9.94671C9.94671 28.3134 10.0309 27.2714 10.1993 26.682C10.3888 26.0925 10.7151 25.461 11.1782 24.7874C12.3781 23.4612 13.5779 22.135 14.7778 20.8088C15.1778 20.1773 15.483 19.6721 15.6935 19.2932C15.904 18.9143 16.104 18.4406 16.2935 17.8723C16.1672 17.8723 16.0409 17.8617 15.9146 17.8407C15.1778 18.4301 14.4515 19.009 13.7358 19.5774C13.4622 19.7247 12.9675 19.9352 12.2518 20.2089C11.5571 20.4615 11.0413 20.7246 10.7045 20.9983C10.3888 21.2719 10.0941 21.6719 9.82041 22.1982C9.54675 22.7244 9.26257 23.1244 8.96786 23.3981C8.6942 23.6717 8.46264 23.8928 8.27319 24.0612C8.10478 24.2296 7.89427 24.3138 7.64166 24.3138C7.41011 24.3138 7.1575 24.1875 6.88385 23.9349C6.63124 23.6612 6.41021 23.5244 6.22075 23.5244C6.09445 23.5244 5.95762 23.5665 5.81026 23.6507C5.66291 23.7138 5.51555 23.7454 5.3682 23.7454C4.94719 23.7454 4.50512 23.5138 4.04201 23.0507C3.57889 22.5876 3.27366 22.0613 3.1263 21.4719C3.0842 21.1983 3.05263 20.9983 3.03158 20.872C3.01053 20.7457 3 20.6299 3 20.5246C3 19.6195 3.37892 18.4722 4.13674 17.0829C4.91562 15.6935 5.45241 14.5778 5.74711 13.7358C6.06287 12.8727 6.34705 12.0939 6.59966 11.3992C6.87332 10.7045 7.22065 10.0835 7.64166 9.53622C8.08373 8.96785 8.34687 8.59947 8.43107 8.43106C8.51527 8.26266 8.57842 8.0311 8.62052 7.73639C8.68367 7.29433 8.61 6.88384 8.39949 6.50493C8.18899 6.10497 8.02058 5.78921 7.89427 5.55765C7.78902 5.3261 7.67324 5.06296 7.54694 4.76825C7.44169 4.47354 7.38906 4.26304 7.38906 4.13673C7.38906 3.90518 7.48379 3.7473 7.67324 3.66309C7.8627 3.57889 8.08373 3.59994 8.33634 3.72625C8.54684 3.8736 8.76788 4.01043 8.99944 4.13673C9.23099 4.24199 9.5678 4.48407 10.0099 4.86298C10.4519 5.22084 10.7782 5.47345 10.9887 5.6208C11.1992 5.76816 11.4097 5.92604 11.6202 6.09444C11.8518 6.2418 12.0834 6.2839 12.3149 6.22075C12.5675 6.15759 12.757 5.96814 12.8833 5.65238C13.0096 5.21031 13.0938 4.92613 13.1359 4.79983C13.178 4.65247 13.2096 4.38934 13.2306 4.01043C13.2727 3.63152 13.3674 3.36839 13.5148 3.22103C13.6622 3.07368 13.799 3 13.9253 3C14.1779 3 14.4831 3.36839 14.841 4.10516C15.2199 4.82088 15.4514 5.24189 15.5357 5.36819C15.6409 5.4945 15.7988 5.72606 16.0093 6.06287C16.2408 6.39968 16.4408 6.63123 16.6092 6.75754C16.7776 6.86279 16.9566 6.93647 17.146 6.97857C17.3565 7.02067 17.5355 7.04172 17.6828 7.04172C18.0828 7.02067 18.3985 7.01015 18.6301 7.01015C18.7354 7.01015 18.9353 7.03119 19.23 7.0733C19.8616 7.22065 20.3878 7.39958 20.8088 7.61009C21.2509 7.82059 21.7877 8.14688 22.4192 8.58894C23.0718 9.031 23.598 9.48359 23.998 9.94671C24.419 10.3888 24.9137 11.0203 25.4821 11.8413C26.0715 12.6412 26.5241 13.3569 26.8398 13.9884C27.1556 14.6199 27.5345 15.5251 27.9766 16.704C28.4186 17.8828 28.7344 18.8827 28.9239 19.7037C29.1344 20.5036 29.2922 21.3982 29.3975 22.3876C29.5238 23.356 29.608 24.1033 29.6501 24.6295C29.6922 25.1558 29.7133 25.7136 29.7133 26.303C29.7133 26.8293 29.6922 27.3345 29.6501 27.8187C29.608 28.3239 29.5448 28.987 29.4606 29.808V29.808ZM9.09416 13.6095C9.22047 13.5043 9.33625 13.399 9.4415 13.2938C9.5678 13.1675 9.68358 13.0411 9.78883 12.9148C9.89409 12.7885 10.0835 12.6517 10.3572 12.5044C10.6309 12.336 10.8098 12.1991 10.894 12.0939C11.1045 11.9255 11.315 11.7571 11.5255 11.5887C11.5887 11.5045 11.5571 11.3887 11.4308 11.2413C11.0519 10.8414 10.7151 10.6414 10.4203 10.6414C10.294 10.6414 10.1572 10.673 10.0099 10.7361C9.88356 10.7993 9.71515 10.8835 9.50465 10.9887C9.31519 11.094 9.15731 11.2097 9.03101 11.3361C8.92575 11.4624 8.79946 11.6623 8.6521 11.936C8.50475 12.1886 8.38897 12.5149 8.30477 12.9148C8.22056 13.3148 8.08373 13.7253 7.89427 14.1463C7.95743 14.1674 8.02058 14.1779 8.08374 14.1779C8.33634 14.0726 8.67315 13.8832 9.09416 13.6095V13.6095ZM4.86298 20.7457C5.09454 20.6615 5.27348 20.5773 5.39978 20.4931C5.52608 20.3878 5.65238 20.1984 5.77868 19.9247C5.92604 19.63 5.99971 19.2721 5.99971 18.8511C5.99971 18.7038 5.85236 18.6827 5.55765 18.788C5.28399 18.8932 5.07349 19.0616 4.92614 19.2932C4.77878 19.5037 4.68405 19.7037 4.64195 19.8931C4.6209 20.0826 4.61037 20.2615 4.61037 20.4299C4.61037 20.5773 4.6209 20.6825 4.64195 20.7457C4.68405 20.7878 4.75773 20.7878 4.86298 20.7457V20.7457ZM7.79955 22.735C8.01005 22.6087 8.18898 22.4087 8.33634 22.135C8.50474 21.8403 8.58894 21.5877 8.58894 21.3772C8.58894 21.2509 8.54684 21.1456 8.46264 21.0614C8.39949 20.9772 8.31528 20.9351 8.21003 20.9351C8.10478 20.9351 7.96795 21.0509 7.79955 21.2825C7.65219 21.493 7.55746 21.6403 7.51536 21.7245C7.38906 21.8508 7.26276 22.0087 7.13646 22.1982C7.0312 22.3666 6.97857 22.535 6.97857 22.7034C6.97857 22.8297 7.0733 22.8928 7.26276 22.8928C7.45222 22.8928 7.63114 22.8402 7.79955 22.735V22.735ZM11.0519 7.76797C10.8624 7.83112 10.6098 8.06268 10.2941 8.46264C9.97829 8.8626 9.82041 9.14678 9.82041 9.31519C9.82041 9.37834 9.85199 9.40992 9.91514 9.40992C9.97829 9.40992 10.0835 9.37834 10.2309 9.31519L11.5887 8.49421C11.736 8.43106 11.8834 8.35738 12.0307 8.27318C12.1781 8.18898 12.2833 8.02057 12.3465 7.76797C12.2833 7.74692 12.2202 7.71534 12.157 7.67324C12.0097 7.67324 11.9044 7.67324 11.8413 7.67324C11.5676 7.67324 11.3045 7.70481 11.0519 7.76797ZM17.4618 13.3253C17.3565 13.3464 17.2618 13.3674 17.1776 13.3885C17.1145 13.5148 17.0197 13.8411 16.8934 14.3673C16.7882 14.8936 16.6408 15.3883 16.4514 15.8514C16.2829 16.2935 16.1988 16.5671 16.1988 16.6724C16.1988 16.7355 16.2303 16.7566 16.2935 16.7355C16.3566 16.7145 16.4514 16.6513 16.5777 16.5461C16.704 16.4198 16.8724 16.2408 17.0829 16.0093C17.2934 15.7567 17.4302 15.4935 17.4934 15.2199C17.5565 14.9462 17.6091 14.7463 17.6512 14.6199C17.6933 14.4726 17.7144 14.3358 17.7144 14.2095C17.7144 13.9779 17.6302 13.6832 17.4618 13.3253V13.3253ZM16.4514 7.76797C16.8092 7.95742 17.1355 8.09425 17.4302 8.17845C17.7249 8.26266 18.0617 8.38896 18.4406 8.55737C18.8196 8.70472 19.2406 8.96785 19.7037 9.34676C20.1878 9.72568 20.6194 10.0625 20.9983 10.3572C21.3983 10.6519 21.7666 11.0203 22.1035 11.4624C22.4613 11.8834 22.8508 12.4623 23.2718 13.199C23.6928 13.9358 24.0401 14.6515 24.3138 15.3462C24.6085 16.0409 24.8821 16.8197 25.1347 17.6828C25.4084 18.5248 25.6294 19.4932 25.7978 20.5878C25.9662 21.6824 26.0926 22.4929 26.1768 23.0191C26.261 23.5244 26.3136 23.9243 26.3346 24.219C26.3557 24.5137 26.3662 24.8611 26.3662 25.261C26.3662 25.5768 26.3557 26.1136 26.3346 26.8714C26.3136 27.6292 26.3031 28.1345 26.3031 28.3871H27.8503V26.9346V26.4294C27.8503 25.461 27.7871 24.3243 27.6608 23.0191C27.5345 21.693 27.3977 20.6615 27.2503 19.9247C27.124 19.1879 26.8714 18.2617 26.4925 17.146C26.1346 16.0093 25.8189 15.1357 25.5452 14.5252C25.2926 13.9148 24.8821 13.2096 24.3138 12.4096C23.7665 11.6097 23.3033 10.9992 22.9244 10.5782C22.5666 10.1362 22.1035 9.74673 21.5351 9.40992C21.0088 9.05206 20.5036 8.7363 20.0194 8.46264C19.5563 8.16793 19.1564 7.989 18.8196 7.92585C18.5038 7.84164 18.2196 7.79954 17.967 7.79954C17.7144 7.79954 17.5144 7.78902 17.3671 7.76797H16.4514Z" fill="black"/>
<path d="M9.0942 13.6095C9.22051 13.5042 9.33629 13.399 9.44154 13.2937C9.56784 13.1674 9.68362 13.0411 9.78887 12.9148C9.89413 12.7885 10.0836 12.6517 10.3572 12.5043C10.6309 12.3359 10.8098 12.1991 10.894 12.0938C11.1045 11.9254 11.315 11.757 11.5256 11.5886C11.5887 11.5044 11.5571 11.3886 11.4308 11.2413C11.0519 10.8413 10.7151 10.6413 10.4204 10.6413C10.2941 10.6413 10.1573 10.6729 10.0099 10.7361C9.8836 10.7992 9.71519 10.8834 9.50469 10.9887C9.31523 11.0939 9.15735 11.2097 9.03105 11.336C8.92579 11.4623 8.7995 11.6623 8.65214 11.936C8.50479 12.1886 8.38901 12.5148 8.30481 12.9148C8.2206 13.3148 8.08377 13.7253 7.89431 14.1463C7.95747 14.1673 8.02062 14.1778 8.08378 14.1778C8.33638 14.0726 8.67319 13.8831 9.0942 13.6095ZM4.86302 20.7456C5.09458 20.6614 5.27352 20.5772 5.39982 20.493C5.52612 20.3878 5.65242 20.1983 5.77872 19.9247C5.92608 19.63 5.99975 19.2721 5.99975 18.8511C5.99975 18.7037 5.8524 18.6827 5.55769 18.7879C5.28403 18.8932 5.07353 19.0616 4.92618 19.2931C4.77882 19.5037 4.68409 19.7036 4.64199 19.8931C4.62094 20.0825 4.61041 20.2615 4.61041 20.4299C4.61041 20.5772 4.62094 20.6825 4.64199 20.7456C4.68409 20.7877 4.75777 20.7877 4.86302 20.7456ZM7.79959 22.7349C8.01009 22.6086 8.18902 22.4086 8.33638 22.135C8.50478 21.8403 8.58899 21.5877 8.58899 21.3772C8.58899 21.2509 8.54688 21.1456 8.46268 21.0614C8.39953 20.9772 8.31532 20.9351 8.21007 20.9351C8.10482 20.9351 7.96799 21.0509 7.79959 21.2824C7.65223 21.4929 7.5575 21.6403 7.5154 21.7245C7.3891 21.8508 7.2628 22.0087 7.1365 22.1981C7.03124 22.3665 6.97861 22.5349 6.97861 22.7034C6.97861 22.8297 7.07335 22.8928 7.2628 22.8928C7.45226 22.8928 7.63118 22.8402 7.79959 22.7349ZM11.0519 7.76793C10.8625 7.83108 10.6099 8.06264 10.2941 8.4626C9.97833 8.86256 9.82045 9.14675 9.82045 9.31515C9.82045 9.3783 9.85203 9.40988 9.91518 9.40988C9.97833 9.40988 10.0836 9.3783 10.2309 9.31515L11.5887 8.49418C11.7361 8.43102 11.8834 8.35735 12.0308 8.27314C12.1781 8.18894 12.2834 8.02054 12.3465 7.76793C12.2834 7.74688 12.2202 7.7153 12.1571 7.6732C12.0097 7.6732 11.9045 7.6732 11.8413 7.6732C11.5677 7.6732 11.3045 7.70478 11.0519 7.76793ZM17.4618 13.3253C17.3566 13.3463 17.2618 13.3674 17.1776 13.3884C17.1145 13.5148 17.0198 13.841 16.8935 14.3673C16.7882 14.8936 16.6409 15.3883 16.4514 15.8514C16.283 16.2934 16.1988 16.5671 16.1988 16.6723C16.1988 16.7355 16.2304 16.7565 16.2935 16.7355C16.3567 16.7144 16.4514 16.6513 16.5777 16.546C16.704 16.4197 16.8724 16.2408 17.0829 16.0093C17.2934 15.7566 17.4302 15.4935 17.4934 15.2199C17.5566 14.9462 17.6092 14.7462 17.6513 14.6199C17.6934 14.4726 17.7144 14.3357 17.7144 14.2094C17.7144 13.9779 17.6302 13.6832 17.4618 13.3253ZM16.4514 7.76793C16.8093 7.95738 17.1355 8.09421 17.4303 8.17842C17.725 8.26262 18.0618 8.38892 18.4407 8.55733C18.8196 8.70468 19.2406 8.96782 19.7037 9.34673C20.1879 9.72564 20.6194 10.0624 20.9983 10.3572C21.3983 10.6519 21.7667 11.0203 22.1035 11.4623C22.4614 11.8833 22.8508 12.4622 23.2718 13.199C23.6928 13.9358 24.0402 14.6515 24.3138 15.3462C24.6085 16.0408 24.8822 16.8197 25.1348 17.6828C25.4084 18.5248 25.6295 19.4931 25.7979 20.5878C25.9663 21.6824 26.0926 22.4928 26.1768 23.0191C26.261 23.5243 26.3136 23.9243 26.3347 24.219C26.3557 24.5137 26.3662 24.861 26.3662 25.261C26.3662 25.5768 26.3557 26.1136 26.3347 26.8714C26.3136 27.6292 26.3031 28.1344 26.3031 28.387H27.8503V26.9345V26.4293C27.8503 25.461 27.7872 24.3243 27.6609 23.0191C27.5346 21.6929 27.3977 20.6614 27.2504 19.9247C27.1241 19.1879 26.8715 18.2617 26.4926 17.146C26.1347 16.0093 25.8189 15.1357 25.5453 14.5252C25.2927 13.9147 24.8822 13.2095 24.3138 12.4096C23.7665 11.6097 23.3034 10.9992 22.9245 10.5782C22.5666 10.1361 22.1035 9.74669 21.5351 9.40988C21.0089 9.05202 20.5036 8.73626 20.0195 8.4626C19.5564 8.16789 19.1564 7.98896 18.8196 7.92581C18.5038 7.84161 18.2196 7.7995 17.967 7.7995C17.7144 7.7995 17.5145 7.78898 17.3671 7.76793H16.4514Z" fill="#EEEEEE"/>
</svg>
