<svg width="32" height="32" viewBox="0 0 32 32" fill="none" xmlns="http://www.w3.org/2000/svg">
<path d="M6.23878 25.5697C6.46619 24.6135 6.72771 23.8805 7.02334 23.3705C7.31897 22.8393 7.75105 22.255 8.31958 21.6175C8.8881 20.9588 9.39977 20.5126 9.85459 20.2789C10.3094 20.0239 10.9802 19.7583 11.8671 19.4821C11.9354 19.4396 12.0036 19.3865 12.0718 19.3227C11.6397 19.0677 11.219 18.8127 10.8097 18.5578C10.4686 18.2603 10.1957 17.7928 9.99102 17.1554C9.8091 16.5179 9.71813 15.9336 9.71813 15.4024C9.71813 15.1687 9.74088 14.9243 9.78636 14.6693C9.83184 14.4143 10.0138 14.0213 10.3321 13.49C10.6733 12.9376 11.0144 12.5339 11.3555 12.2789C11.7193 12.0027 12.0832 11.8433 12.447 11.8008C12.8336 11.7371 13.1975 11.6839 13.5386 11.6414C13.5841 11.5989 13.6409 11.5564 13.7092 11.5139C13.3453 11.3652 12.9928 11.2165 12.6517 11.0677C12.3788 10.8552 12.1742 10.5684 12.0377 10.2072C11.9013 9.8247 11.833 9.44223 11.833 9.05976C11.833 8.69854 11.8671 8.39044 11.9354 8.13546C12.0263 7.88048 12.2537 7.57238 12.6176 7.21116C12.9814 6.82869 13.3339 6.53121 13.675 6.31873C14.0389 6.10624 14.6302 6 15.4488 6C16.2902 6 16.8929 6.10624 17.2567 6.31873C17.6433 6.50996 18.0527 6.83931 18.4847 7.30677C18.9396 7.75299 19.167 8.34794 19.167 9.09164C19.167 9.96282 18.8941 10.6215 18.3483 11.0677C17.7798 11.2802 17.4273 11.4183 17.2908 11.4821C17.3363 11.5458 17.3932 11.5989 17.4614 11.6414C17.8253 11.6839 18.2005 11.7158 18.5871 11.7371C18.9055 11.8008 19.2579 11.9814 19.6445 12.2789C20.0539 12.5551 20.4063 13.0013 20.702 13.6175C21.0203 14.2125 21.1909 14.6056 21.2136 14.7968C21.2591 14.9668 21.2819 15.1687 21.2819 15.4024C21.2819 15.9761 21.1909 16.5711 21.009 17.1873C20.8498 17.7822 20.5996 18.2284 20.2585 18.5259C19.9174 18.8021 19.6331 18.9934 19.4057 19.0996C19.1783 19.2058 19.0078 19.2908 18.8941 19.3546C18.985 19.4183 19.2466 19.5246 19.6786 19.6733C20.1334 19.8008 20.5996 19.992 21.0772 20.247C21.5775 20.502 22.0892 20.9376 22.6122 21.5538C23.158 22.17 23.5901 22.7862 23.9084 23.4024C24.2495 23.9973 24.4997 24.6348 24.6589 25.3147C24.8408 25.9734 24.9431 26.4409 24.9659 26.7171C24.9886 26.9934 25 27.3333 25 27.7371C25 27.9283 24.9886 28.2683 24.9659 28.757C24.9431 29.2457 24.9318 29.66 24.9318 30H6.03411C6.03411 29.6175 6.02274 29.2457 6 28.8845C6 28.5232 6 28.1726 6 27.8327C6 27.3865 6.01137 27.0146 6.03411 26.7171C6.05686 26.3984 6.12507 26.0159 6.23878 25.5697V25.5697Z" fill="black"/>
</svg>
