<svg width="32" height="32" viewBox="0 0 32 32" fill="none" xmlns="http://www.w3.org/2000/svg">
<path d="M7.22103 25.3876C7.43154 24.4404 7.67362 23.7141 7.94728 23.2089C8.22094 22.6826 8.6209 22.1037 9.14717 21.4722C9.67344 20.8196 10.1471 20.3776 10.5681 20.146C10.9891 19.8934 11.6101 19.6303 12.4311 19.3566C12.4942 19.3145 12.5574 19.2619 12.6205 19.1987C12.2206 18.9461 11.8311 18.6935 11.4522 18.4409C11.1365 18.1462 10.8838 17.6831 10.6944 17.0516C10.526 16.4201 10.4418 15.8412 10.4418 15.3149C10.4418 15.0833 10.4628 14.8413 10.5049 14.5887C10.547 14.336 10.7154 13.9466 11.0102 13.4203C11.3259 12.873 11.6417 12.4731 11.9574 12.2205C12.2942 11.9468 12.631 11.7889 12.9678 11.7468C13.3257 11.6837 13.6625 11.631 13.9783 11.5889C14.0204 11.5468 14.073 11.5047 14.1362 11.4626C13.7993 11.3153 13.4731 11.1679 13.1573 11.0206C12.9047 10.8101 12.7152 10.5259 12.5889 10.168C12.4626 9.78911 12.3995 9.4102 12.3995 9.03129C12.3995 8.67343 12.4311 8.36819 12.4942 8.11559C12.5784 7.86298 12.7889 7.55775 13.1257 7.19988C13.4625 6.82097 13.7888 6.52626 14.1046 6.31576C14.4414 6.10525 14.9887 6 15.7465 6C16.5254 6 17.0832 6.10525 17.4201 6.31576C17.7779 6.50521 18.1568 6.8315 18.5568 7.29462C18.9778 7.73668 19.1883 8.32609 19.1883 9.06287C19.1883 9.92594 18.9357 10.5785 18.4305 11.0206C17.9042 11.2311 17.5779 11.3679 17.4516 11.4311C17.4937 11.4942 17.5464 11.5468 17.6095 11.5889C17.9463 11.631 18.2937 11.6626 18.6515 11.6837C18.9462 11.7468 19.2725 11.9258 19.6304 12.2205C20.0093 12.4941 20.3356 12.9362 20.6092 13.5467C20.9039 14.1361 21.0618 14.5255 21.0829 14.715C21.125 14.8834 21.146 15.0833 21.146 15.3149C21.146 15.8833 21.0618 16.4727 20.8934 17.0832C20.7461 17.6726 20.5145 18.1146 20.1987 18.4093C19.883 18.683 19.6198 18.8725 19.4093 18.9777C19.1988 19.083 19.0409 19.1672 18.9357 19.2303C19.0199 19.2935 19.262 19.3987 19.6619 19.5461C20.083 19.6724 20.5145 19.8618 20.9566 20.1144C21.4197 20.3671 21.8933 20.7986 22.3775 21.4091C22.8827 22.0195 23.2827 22.63 23.5774 23.2405C23.8931 23.8299 24.1247 24.4614 24.272 25.135C24.4404 25.7876 24.5352 26.2507 24.5562 26.5244C24.5773 26.798 24.5878 27.1348 24.5878 27.5348C24.5878 27.7243 24.5773 28.0611 24.5562 28.5452C24.5352 29.0294 24.5246 29.4399 24.5246 29.7767H7.03158C7.03158 29.3978 7.02105 29.0294 7 28.6715C7 28.3137 7 27.9663 7 27.6295C7 27.1875 7.01053 26.8191 7.03158 26.5244C7.05263 26.2086 7.11578 25.8297 7.22103 25.3876V25.3876ZM13.9467 7.98929C13.673 8.34715 13.5362 8.73658 13.5362 9.15759C13.5362 9.2839 13.5468 9.43125 13.5678 9.59966C13.6099 9.74701 13.6625 9.89436 13.7257 10.0417C13.7888 10.168 13.9151 10.3049 14.1046 10.4522C14.3151 10.5785 14.4519 10.6732 14.5151 10.7364L15.3676 11.5889C14.673 11.8837 14.1993 12.1152 13.9467 12.2836C13.7151 12.452 13.4836 12.6099 13.252 12.7572C13.0415 12.8836 12.8416 13.0625 12.6521 13.294C12.4626 13.5045 12.2942 13.7782 12.1469 14.115C11.9995 14.4518 11.8837 14.7255 11.7995 14.936C11.7364 15.1254 11.7048 15.336 11.7048 15.5675C11.7048 15.8412 11.768 16.1254 11.8943 16.4201C12.0206 16.7148 12.1785 17.0305 12.3679 17.3673C12.5784 17.7041 12.81 17.9883 13.0626 18.2199C13.3362 18.4514 13.6309 18.6935 13.9467 18.9461C14.2835 19.1777 14.5361 19.3461 14.7045 19.4514L12.7152 20.3986C12.1469 20.6723 11.6838 20.9459 11.3259 21.2196C10.968 21.4722 10.5891 21.8511 10.1892 22.3563C9.81025 22.8405 9.52608 23.3036 9.33662 23.7457C9.16822 24.1667 9.02086 24.6824 8.89456 25.2929C8.76826 25.8823 8.69458 26.3244 8.67353 26.6191C8.65248 26.9138 8.64195 27.2506 8.64195 27.6295V28.3558H22.8196V27.6295C22.8196 27.2506 22.809 26.9138 22.788 26.6191C22.7669 26.3244 22.6932 25.8823 22.5669 25.2929C22.4406 24.7035 22.2828 24.1983 22.0933 23.7773C21.9249 23.3352 21.6512 22.8721 21.2723 22.3879C20.8934 21.9038 20.525 21.5248 20.1672 21.2512C19.8093 20.9565 19.3357 20.6723 18.7462 20.3986L16.757 19.4514C17.0096 19.2829 17.2622 19.1145 17.5148 18.9461C17.7885 18.7567 18.02 18.5672 18.2095 18.3778C18.3989 18.1883 18.5568 18.0199 18.6831 17.8726C18.8305 17.7252 18.9778 17.5252 19.1252 17.2726C19.2936 17.02 19.4409 16.7463 19.5672 16.4516C19.6935 16.1569 19.7567 15.8622 19.7567 15.5675C19.7567 15.336 19.7041 15.0939 19.5988 14.8413C19.4936 14.5676 19.3778 14.2939 19.2515 14.0203C19.1462 13.7466 19.0094 13.5151 18.841 13.3256C18.6726 13.1151 18.42 12.9046 18.0832 12.6941C17.7463 12.4836 17.5043 12.3257 17.3569 12.2205C17.2095 12.0942 16.957 11.9573 16.5991 11.81C16.2623 11.6626 16.3781 11.3048 16.9464 10.7364C17.199 10.5259 17.4516 10.3049 17.7042 10.0733C17.8306 9.75754 17.8937 9.43125 17.8937 9.09444C17.8937 8.67343 17.7148 8.24189 17.3569 7.79983C17.0201 7.35777 16.5044 7.13673 15.8097 7.13673C15.515 7.13673 15.1782 7.21041 14.7993 7.35776C14.4203 7.50512 14.1362 7.71563 13.9467 7.98929V7.98929Z" fill="black"/>
<path d="M13.9467 7.98927C13.6731 8.34713 13.5362 8.73657 13.5362 9.15758C13.5362 9.28388 13.5468 9.43124 13.5678 9.59964C13.6099 9.747 13.6625 9.89435 13.7257 10.0417C13.7888 10.168 13.9151 10.3048 14.1046 10.4522C14.3151 10.5785 14.4519 10.6732 14.5151 10.7364L15.3676 11.5889C14.673 11.8836 14.1993 12.1152 13.9467 12.2836C13.7152 12.452 13.4836 12.6099 13.2521 12.7572C13.0415 12.8835 12.8416 13.0625 12.6521 13.294C12.4627 13.5045 12.2943 13.7782 12.1469 14.115C11.9995 14.4518 11.8838 14.7255 11.7996 14.936C11.7364 15.1254 11.7048 15.3359 11.7048 15.5675C11.7048 15.8412 11.768 16.1253 11.8943 16.42C12.0206 16.7148 12.1785 17.0305 12.3679 17.3673C12.5784 17.7041 12.81 17.9883 13.0626 18.2199C13.3363 18.4514 13.631 18.6935 13.9467 18.9461C14.2835 19.1777 14.5361 19.3461 14.7046 19.4513L12.7153 20.3986C12.1469 20.6723 11.6838 20.9459 11.3259 21.2196C10.9681 21.4722 10.5891 21.8511 10.1892 22.3563C9.81027 22.8405 9.52609 23.3036 9.33664 23.7457C9.16823 24.1667 9.02088 24.6824 8.89458 25.2929C8.76827 25.8823 8.6946 26.3244 8.67355 26.6191C8.6525 26.9138 8.64197 27.2506 8.64197 27.6295V28.3558H22.8196V27.6295C22.8196 27.2506 22.809 26.9138 22.788 26.6191C22.7669 26.3244 22.6933 25.8823 22.567 25.2929C22.4407 24.7035 22.2828 24.1983 22.0933 23.7772C21.9249 23.3352 21.6512 22.8721 21.2723 22.3879C20.8934 21.9037 20.525 21.5248 20.1672 21.2512C19.8093 20.9565 19.3357 20.6723 18.7463 20.3986L16.757 19.4513C17.0096 19.2829 17.2622 19.1145 17.5148 18.9461C17.7885 18.7567 18.02 18.5672 18.2095 18.3778C18.3989 18.1883 18.5568 18.0199 18.6831 17.8725C18.8305 17.7252 18.9778 17.5252 19.1252 17.2726C19.2936 17.02 19.4409 16.7463 19.5672 16.4516C19.6936 16.1569 19.7567 15.8622 19.7567 15.5675C19.7567 15.3359 19.7041 15.0939 19.5988 14.8413C19.4936 14.5676 19.3778 14.2939 19.2515 14.0203C19.1462 13.7466 19.0094 13.5151 18.841 13.3256C18.6726 13.1151 18.42 12.9046 18.0832 12.6941C17.7464 12.4836 17.5043 12.3257 17.3569 12.2204C17.2096 12.0941 16.957 11.9573 16.5991 11.81C16.2623 11.6626 16.3781 11.3047 16.9464 10.7364C17.199 10.5259 17.4517 10.3048 17.7043 10.0733C17.8306 9.75753 17.8937 9.43124 17.8937 9.09443C17.8937 8.67342 17.7148 8.24188 17.3569 7.79982C17.0201 7.35775 16.5044 7.13672 15.8097 7.13672C15.515 7.13672 15.1782 7.2104 14.7993 7.35775C14.4204 7.5051 14.1362 7.71561 13.9467 7.98927Z" fill="white"/>
</svg>
