<svg width="32" height="32" viewBox="0 0 32 32" fill="none" xmlns="http://www.w3.org/2000/svg">
<path d="M18.23 4.23146C18.3563 4.54722 18.4195 4.85246 18.4195 5.14716C18.4195 5.48397 18.3248 5.77868 18.1353 6.03129C17.8827 6.22075 17.6301 6.4102 17.3775 6.59966C17.2933 6.74701 17.2512 6.93647 17.2512 7.16802C17.2512 7.52589 17.4196 8.27318 17.7564 9.40992C18.1143 10.5256 18.3142 11.1887 18.3563 11.3992C18.3984 11.6097 18.4405 12.4728 18.4826 13.9884C18.5458 15.5041 18.6616 16.2619 18.83 16.2619C18.8931 16.2619 19.03 16.0514 19.2405 15.6304C19.472 15.1883 19.7246 14.42 19.9983 13.3253C20.2719 12.2307 20.4614 11.536 20.5667 11.2413C20.6719 10.9256 20.9245 10.473 21.3245 9.88355C21.7455 9.27309 21.956 8.78892 21.956 8.43106C21.956 8.22056 21.9244 8.04163 21.8613 7.89427C21.7981 7.72587 21.6613 7.54694 21.4508 7.35748C21.2403 7.16803 21.0824 6.94699 20.9771 6.69438C20.8719 6.42073 20.8193 6.12602 20.8193 5.81026C20.8193 5.47345 20.9456 5.08401 21.1982 4.64195C21.4718 4.17883 21.9981 3.94728 22.777 3.94728C23.5348 3.94728 24.0505 4.18936 24.3242 4.67352C24.6189 5.13664 24.7663 5.5366 24.7663 5.87341C24.7663 6.08392 24.7452 6.25232 24.7031 6.37863C24.6821 6.48388 24.6189 6.65228 24.5137 6.88384C24.4294 7.1154 24.2505 7.31538 23.9769 7.48378C23.7243 7.63114 23.5348 7.87322 23.4085 8.21003C23.2822 8.52579 23.1875 8.8205 23.1243 9.09416C23.0822 9.34677 23.0612 9.67305 23.0612 10.073C23.0612 10.3256 23.0612 10.5888 23.0612 10.8624C23.0612 11.1361 23.0717 11.4203 23.0927 11.715C23.0927 12.3675 23.0822 12.999 23.0612 13.6095C23.0401 14.22 23.0191 14.8094 22.998 15.3778C22.998 16.3882 23.1033 16.8934 23.3138 16.8934C23.4401 16.8934 23.6085 16.7355 23.819 16.4198C24.0505 16.104 24.3137 15.6199 24.6084 14.9673C24.9241 14.2937 25.1557 13.8411 25.3031 13.6095C25.4504 13.3569 25.8293 12.9043 26.4398 12.2518C27.0713 11.5992 27.366 11.1992 27.3239 11.0519C27.2818 10.8835 27.166 10.694 26.9766 10.4835C26.8082 10.273 26.6924 10.0941 26.6292 9.94671C26.5871 9.7783 26.545 9.62042 26.5029 9.47307C26.4819 9.30466 26.4714 9.14678 26.4714 8.99943C26.4714 8.70472 26.6082 8.31528 26.8818 7.83112C27.1555 7.3259 27.6502 7.0733 28.3659 7.0733C29.0816 7.0733 29.5763 7.31538 29.85 7.79954C30.1236 8.26266 30.2605 8.65209 30.2605 8.96785C30.2605 9.30466 30.1868 9.6099 30.0394 9.88355C29.9131 10.1572 29.6711 10.4203 29.3132 10.673C28.9553 10.9045 28.6817 11.1255 28.4922 11.336C28.3238 11.5466 28.187 11.9044 28.0817 12.4096C27.9554 13.2938 27.8186 14.1884 27.6712 15.0936C27.5449 15.9777 27.4397 16.7145 27.3555 17.3039C27.2923 17.8933 27.0924 18.4617 26.7555 19.009C26.1451 19.851 25.6714 20.5141 25.3346 20.9983C25.0189 21.4825 24.8189 21.9561 24.7347 22.4192C24.6505 22.8823 24.5873 23.2402 24.5452 23.4928C24.5031 23.7454 24.4821 23.977 24.4821 24.1875C24.4821 24.5243 24.5242 24.84 24.6084 25.1347C24.6926 25.4084 24.8505 25.6715 25.082 25.9241C25.3136 26.1978 25.4294 26.4504 25.4294 26.682C25.4294 27.0398 25.3557 27.3135 25.2083 27.5029C25.061 27.7134 24.8505 27.966 24.5768 28.2608C24.3031 28.5765 23.8821 28.766 23.3138 28.8291C22.7454 28.9133 22.1876 28.987 21.6402 29.0502C19.5562 29.4922 17.7248 29.7133 16.146 29.7133C14.5883 29.7133 12.7463 29.4922 10.6202 29.0502C9.86241 28.966 9.25194 28.8923 8.78883 28.8291C8.32571 28.766 7.9468 28.566 7.65209 28.2292C7.35739 27.9134 7.14688 27.6503 7.02058 27.4398C6.89427 27.2293 6.83112 26.9767 6.83112 26.682C6.83112 26.4925 6.95742 26.2294 7.21003 25.8926C7.46264 25.5558 7.62052 25.2716 7.68367 25.04C7.74682 24.8085 7.7784 24.5243 7.7784 24.1875C7.7784 23.998 7.75735 23.7559 7.71525 23.4612C7.67315 23.1665 7.60999 22.8086 7.52579 22.3876C7.44159 21.9456 7.18898 21.4298 6.76797 20.8404C6.34696 20.2299 5.94699 19.6405 5.56808 19.0722C5.18917 18.4827 4.94709 17.8407 4.84184 17.146C4.73658 16.4303 4.6208 15.6514 4.4945 14.8094C4.38925 13.9674 4.29452 13.2517 4.21032 12.6622C4.14716 12.0728 3.98928 11.6308 3.73668 11.336C3.48407 11.0203 3.19989 10.7677 2.88413 10.5782C2.56837 10.3888 2.33681 10.1572 2.18946 9.88355C2.06315 9.6099 2 9.30466 2 8.96785C2 8.65209 2.13683 8.26266 2.41049 7.79954C2.68415 7.31538 3.17883 7.0733 3.89456 7.0733C4.61028 7.0733 5.07339 7.26275 5.2839 7.64166C5.51546 8.02058 5.65228 8.29423 5.69439 8.46264C5.75754 8.60999 5.78911 8.78892 5.78911 8.99943C5.78911 9.31519 5.72596 9.652 5.59966 10.0099C5.3681 10.3677 5.14707 10.7151 4.93656 11.0519C4.91551 11.1782 5.23127 11.6308 5.88384 12.4096C6.55746 13.1675 7.0311 13.8095 7.30476 14.3358C7.57842 14.862 7.95733 15.5672 8.44149 16.4514C8.652 16.7461 8.8204 16.8934 8.94671 16.8934C9.15721 16.8934 9.26247 16.3882 9.26247 15.3778C9.26247 14.5568 9.25194 13.8621 9.23089 13.2938C9.20984 12.7254 9.18879 12.1991 9.16774 11.715C9.16774 11.4203 9.16774 11.1361 9.16774 10.8624C9.16774 10.5888 9.17827 10.3256 9.19932 10.073C9.19932 9.6941 9.17827 9.37834 9.13616 9.12573C9.09406 8.85208 8.99934 8.54684 8.85198 8.21003C8.70463 7.85217 8.50465 7.59956 8.25204 7.45221C7.99943 7.2838 7.84155 7.12592 7.7784 6.97857C7.71525 6.83122 7.6521 6.64176 7.58894 6.4102C7.52579 6.17864 7.49421 5.98919 7.49421 5.84184C7.49421 5.52608 7.63104 5.13664 7.9047 4.67352C8.19941 4.18936 8.72568 3.94728 9.4835 3.94728C10.2624 3.94728 10.7781 4.17883 11.0307 4.64195C11.3044 5.08401 11.4412 5.48397 11.4412 5.84184C11.4412 6.13654 11.3886 6.42073 11.2833 6.69438C11.1781 6.94699 11.0097 7.18907 10.7781 7.42063C10.5676 7.63114 10.4308 7.79954 10.3676 7.92585C10.3255 8.05215 10.3045 8.23108 10.3045 8.46264C10.3045 8.7784 10.5045 9.23099 10.9044 9.8204C11.3044 10.3888 11.6517 11.1571 11.9464 12.1254C12.2622 13.0938 12.6727 14.3779 13.1779 15.9777C13.2831 16.1672 13.3673 16.2619 13.4305 16.2619C13.5568 16.2619 13.6305 15.5041 13.6515 13.9884C13.6936 12.4728 13.7568 11.4939 13.841 11.0519C13.9252 10.6098 14.1357 9.92566 14.4725 8.99943C14.8093 8.0732 14.9777 7.44168 14.9777 7.10487C14.9777 6.93647 14.9567 6.79964 14.9146 6.69438C14.8725 6.56808 14.7462 6.4523 14.5357 6.34705C14.3251 6.22075 14.1567 6.07339 14.0304 5.90499C13.9041 5.73658 13.841 5.47345 13.841 5.11559C13.841 4.84193 13.9147 4.52617 14.062 4.16831C14.2094 3.81045 14.4725 3.52627 14.8514 3.31576C15.2303 3.10525 15.6513 3 16.1144 3C16.6197 3 17.0512 3.10525 17.4091 3.31576C17.788 3.50521 18.0616 3.81045 18.23 4.23146V4.23146ZM11.8517 19.3563C10.6308 19.5247 9.64138 19.6931 8.88356 19.8616C8.14679 20.03 7.7784 20.2299 7.7784 20.4615C7.7784 20.5457 7.8205 20.6194 7.9047 20.6825C8.00996 20.7246 8.08363 20.8299 8.12573 20.9983C8.16784 21.1456 8.25204 21.2193 8.37834 21.2193C8.652 21.2193 8.93618 21.1772 9.23089 21.093C9.54665 21.0088 9.85189 20.9246 10.1466 20.8404C11.1149 20.7352 11.999 20.672 12.799 20.651C13.6199 20.6089 14.7356 20.5878 16.146 20.5878C17.5354 20.5878 18.6195 20.6089 19.3983 20.651C20.1983 20.672 21.0824 20.7352 22.0507 20.8404C22.6191 20.9667 23.1875 21.093 23.7558 21.2193C23.8821 21.2193 23.9663 21.1456 24.0084 20.9983C24.0716 20.8299 24.1558 20.7246 24.261 20.6825C24.3663 20.6194 24.4189 20.5457 24.4189 20.4615C24.4189 20.251 23.9979 20.051 23.1559 19.8616C22.3139 19.6721 21.4403 19.5142 20.5351 19.3879C19.651 19.2616 18.8931 19.1774 18.2616 19.1353C17.6301 19.0932 16.9354 19.0722 16.1776 19.0722C14.6199 19.0722 13.1779 19.1669 11.8517 19.3563V19.3563ZM20.5351 23.2402C20.6824 23.2612 21.1034 23.3244 21.7981 23.4296C22.4928 23.5349 22.9559 23.5875 23.1875 23.5875C23.2296 23.5875 23.2717 23.577 23.3138 23.5559C23.2506 23.3665 23.2611 23.2297 23.3453 23.1455C23.4295 23.0402 23.4716 22.9349 23.4716 22.8297C23.4716 22.556 23.0296 22.3561 22.1455 22.2298C21.2613 22.1034 20.6509 22.0298 20.314 22.0087C19.9983 21.9666 19.5562 21.935 18.9879 21.914C18.4195 21.8929 18.009 21.8824 17.7564 21.8824H16.146C15.4514 21.8824 14.8304 21.8929 14.283 21.914C13.7568 21.914 12.9253 21.9877 11.7885 22.135C10.6729 22.2613 9.91504 22.3666 9.51508 22.4508C9.11511 22.5139 8.91513 22.6718 8.91513 22.9244C8.91513 23.0086 8.95723 23.1034 9.04144 23.2086C9.14669 23.2928 9.16774 23.3981 9.10459 23.5244C9.12564 23.5875 9.15722 23.6401 9.19932 23.6822L11.8517 23.3033C13.1147 23.156 14.1357 23.0823 14.9146 23.0823H16.1776C16.5565 23.0823 16.9038 23.0823 17.2196 23.0823C17.5564 23.0823 17.8617 23.0718 18.1353 23.0507C18.5353 23.0507 18.9352 23.0718 19.3352 23.1139C19.7352 23.156 20.1351 23.1981 20.5351 23.2402V23.2402ZM20.5035 25.4821C20.7982 25.4821 21.2929 25.5663 21.9876 25.7347C22.7033 25.9031 23.3138 26.061 23.819 26.2083C23.819 26.1452 23.819 26.0925 23.819 26.0504C23.6506 25.861 23.619 25.6505 23.7243 25.4189C23.8506 25.2084 23.5243 25.0084 22.7454 24.819C21.6297 24.6295 20.7982 24.4927 20.2509 24.4085C19.7246 24.3032 19.2405 24.2401 18.7984 24.219C18.3563 24.198 17.8511 24.1875 17.2828 24.1875H16.2092H15.0724C14.1673 24.1875 13.5989 24.198 13.3673 24.219C13.1568 24.2401 12.7042 24.3138 12.0096 24.4401C11.336 24.5453 10.6202 24.6611 9.86241 24.7874C9.10459 24.9137 8.72568 25.1242 8.72568 25.4189C8.72568 25.44 8.74673 25.5136 8.78883 25.64C8.83093 25.7031 8.79935 25.7978 8.6941 25.9241C8.6099 26.0715 8.57832 26.1662 8.59937 26.2083C8.78883 26.1452 9.33615 26.0083 10.2413 25.7978C11.1676 25.5873 11.7254 25.4821 11.9148 25.4821L16.2092 25.4189L20.5035 25.4821Z" fill="black"/>
<path d="M11.8516 19.3563C10.6307 19.5247 9.6413 19.6931 8.88348 19.8615C8.14671 20.0299 7.77832 20.2299 7.77832 20.4615C7.77832 20.5457 7.82042 20.6194 7.90462 20.6825C8.00988 20.7246 8.08355 20.8299 8.12566 20.9983C8.16776 21.1456 8.25196 21.2193 8.37826 21.2193C8.65192 21.2193 8.93611 21.1772 9.23081 21.093C9.54657 21.0088 9.85181 20.9246 10.1465 20.8404C11.1148 20.7351 11.999 20.672 12.7989 20.6509C13.6199 20.6088 14.7356 20.5878 16.1459 20.5878C17.5353 20.5878 18.6194 20.6088 19.3983 20.6509C20.1982 20.672 21.0823 20.7351 22.0506 20.8404C22.619 20.9667 23.1874 21.093 23.7557 21.2193C23.8821 21.2193 23.9663 21.1456 24.0084 20.9983C24.0715 20.8299 24.1557 20.7246 24.261 20.6825C24.3662 20.6194 24.4188 20.5457 24.4188 20.4615C24.4188 20.251 23.9978 20.051 23.1558 19.8615C22.3138 19.6721 21.4402 19.5142 20.535 19.3879C19.6509 19.2616 18.8931 19.1774 18.2615 19.1353C17.63 19.0932 16.9353 19.0721 16.1775 19.0721C14.6198 19.0721 13.1778 19.1669 11.8516 19.3563ZM20.535 23.2402C20.6824 23.2612 21.1034 23.3244 21.798 23.4296C22.4927 23.5349 22.9558 23.5875 23.1874 23.5875C23.2295 23.5875 23.2716 23.577 23.3137 23.5559C23.2505 23.3665 23.2611 23.2296 23.3453 23.1454C23.4295 23.0402 23.4716 22.9349 23.4716 22.8297C23.4716 22.556 23.0295 22.356 22.1454 22.2297C21.2612 22.1034 20.6508 22.0298 20.314 22.0087C19.9982 21.9666 19.5561 21.935 18.9878 21.914C18.4194 21.8929 18.0089 21.8824 17.7563 21.8824H16.1459C15.4513 21.8824 14.8303 21.8929 14.283 21.914C13.7567 21.914 12.9252 21.9877 11.7885 22.135C10.6728 22.2613 9.91496 22.3666 9.515 22.4508C9.11504 22.5139 8.91505 22.6718 8.91505 22.9244C8.91505 23.0086 8.95716 23.1033 9.04136 23.2086C9.14661 23.2928 9.16766 23.398 9.10451 23.5244C9.12556 23.5875 9.15714 23.6401 9.19924 23.6822L11.8516 23.3033C13.1147 23.156 14.1356 23.0823 14.9145 23.0823H16.1775C16.5564 23.0823 16.9038 23.0823 17.2195 23.0823C17.5563 23.0823 17.8616 23.0718 18.1352 23.0507C18.5352 23.0507 18.9352 23.0718 19.3351 23.1139C19.7351 23.156 20.135 23.1981 20.535 23.2402ZM20.5034 25.4821C20.7981 25.4821 21.2928 25.5663 21.9875 25.7347C22.7032 25.9031 23.3137 26.061 23.8189 26.2083C23.8189 26.1452 23.8189 26.0925 23.8189 26.0504C23.6505 25.861 23.6189 25.6505 23.7242 25.4189C23.8505 25.2084 23.5242 25.0084 22.7453 24.819C21.6296 24.6295 20.7981 24.4927 20.2508 24.4085C19.7246 24.3032 19.2404 24.2401 18.7983 24.219C18.3563 24.198 17.851 24.1874 17.2827 24.1874H16.2091H15.0724C14.1672 24.1874 13.5988 24.198 13.3673 24.219C13.1568 24.2401 12.7042 24.3138 12.0095 24.4401C11.3359 24.5453 10.6202 24.6611 9.86233 24.7874C9.10451 24.9137 8.7256 25.1242 8.7256 25.4189C8.7256 25.44 8.74665 25.5136 8.78875 25.6399C8.83085 25.7031 8.79928 25.7978 8.69402 25.9241C8.60982 26.0715 8.57824 26.1662 8.59929 26.2083C8.78875 26.1452 9.33607 26.0083 10.2412 25.7978C11.1675 25.5873 11.7253 25.4821 11.9148 25.4821L16.2091 25.4189L20.5034 25.4821Z" fill="#EEEEEE"/>
</svg>
