<svg width="32" height="32" viewBox="0 0 32 32" fill="none" xmlns="http://www.w3.org/2000/svg">
<path d="M18.23 4.23146C18.3563 4.54722 18.4195 4.85246 18.4195 5.14716C18.4195 5.48397 18.3248 5.77868 18.1353 6.03129C17.8827 6.22075 17.6301 6.4102 17.3775 6.59966C17.2933 6.74701 17.2512 6.93647 17.2512 7.16802C17.2512 7.52588 17.4196 8.27319 17.7564 9.40992C18.1143 10.5256 18.3142 11.1887 18.3563 11.3992C18.3984 11.6097 18.4405 12.4728 18.4826 13.9884C18.5458 15.5041 18.6616 16.2619 18.83 16.2619C18.8931 16.2619 19.03 16.0514 19.2405 15.6304C19.472 15.1883 19.7246 14.42 19.9983 13.3253C20.2719 12.2307 20.4614 11.536 20.5667 11.2413C20.6719 10.9256 20.9245 10.473 21.3245 9.88355C21.7455 9.27309 21.956 8.78892 21.956 8.43106C21.956 8.22055 21.9244 8.04163 21.8613 7.89427C21.7981 7.72587 21.6613 7.54694 21.4508 7.35748C21.2403 7.16803 21.0824 6.94699 20.9771 6.69438C20.8719 6.42073 20.8193 6.12602 20.8193 5.81026C20.8193 5.47345 20.9456 5.08401 21.1982 4.64195C21.4718 4.17884 21.9981 3.94728 22.777 3.94728C23.5348 3.94728 24.0505 4.18936 24.3242 4.67352C24.6189 5.13664 24.7663 5.5366 24.7663 5.87341C24.7663 6.08391 24.7452 6.25232 24.7031 6.37863C24.6821 6.48388 24.6189 6.65228 24.5137 6.88384C24.4294 7.1154 24.2505 7.31538 23.9769 7.48379C23.7243 7.63114 23.5348 7.87322 23.4085 8.21003C23.2822 8.52579 23.1875 8.8205 23.1243 9.09416C23.0822 9.34677 23.0612 9.67305 23.0612 10.073C23.0612 10.3256 23.0612 10.5888 23.0612 10.8624C23.0612 11.1361 23.0717 11.4203 23.0927 11.715C23.0927 12.3675 23.0822 12.999 23.0612 13.6095C23.0401 14.22 23.0191 14.8094 22.998 15.3778C22.998 16.3882 23.1033 16.8934 23.3138 16.8934C23.4401 16.8934 23.6085 16.7355 23.819 16.4198C24.0505 16.104 24.3137 15.6199 24.6084 14.9673C24.9241 14.2937 25.1557 13.8411 25.303 13.6095C25.4504 13.3569 25.8293 12.9043 26.4398 12.2518C27.0713 11.5992 27.366 11.1992 27.3239 11.0519C27.2818 10.8835 27.166 10.694 26.9766 10.4835C26.8082 10.273 26.6924 10.0941 26.6292 9.94671C26.5871 9.7783 26.545 9.62042 26.5029 9.47307C26.4819 9.30466 26.4714 9.14679 26.4714 8.99943C26.4714 8.70472 26.6082 8.31529 26.8818 7.83112C27.1555 7.32591 27.6502 7.0733 28.3659 7.0733C29.0816 7.0733 29.5763 7.31538 29.85 7.79954C30.1236 8.26266 30.2605 8.65209 30.2605 8.96785C30.2605 9.30466 30.1868 9.6099 30.0394 9.88355C29.9131 10.1572 29.6711 10.4203 29.3132 10.673C28.9553 10.9045 28.6817 11.1255 28.4922 11.336C28.3238 11.5466 28.187 11.9044 28.0817 12.4096C27.9554 13.2938 27.8186 14.1884 27.6712 15.0936C27.5449 15.9777 27.4397 16.7145 27.3555 17.3039C27.2923 17.8933 27.0924 18.4617 26.7555 19.009C26.1451 19.851 25.6714 20.5141 25.3346 20.9983C25.0189 21.4825 24.8189 21.9561 24.7347 22.4192C24.6505 22.8823 24.5873 23.2402 24.5452 23.4928C24.5031 23.7454 24.4821 23.977 24.4821 24.1875C24.4821 24.5243 24.5242 24.84 24.6084 25.1347C24.6926 25.4084 24.8505 25.6715 25.082 25.9241C25.3136 26.1978 25.4294 26.4504 25.4294 26.682C25.4294 27.0398 25.3557 27.3135 25.2083 27.5029C25.061 27.7134 24.8505 27.966 24.5768 28.2608C24.3031 28.5765 23.8821 28.766 23.3138 28.8291C22.7454 28.9133 22.1876 28.987 21.6402 29.0502C19.5562 29.4922 17.7248 29.7132 16.146 29.7132C14.5883 29.7132 12.7463 29.4922 10.6202 29.0502C9.86241 28.966 9.25194 28.8923 8.78883 28.8291C8.32571 28.766 7.9468 28.566 7.65209 28.2292C7.35738 27.9134 7.14688 27.6503 7.02057 27.4398C6.89427 27.2293 6.83112 26.9767 6.83112 26.682C6.83112 26.4925 6.95742 26.2294 7.21003 25.8926C7.46264 25.5557 7.62052 25.2716 7.68367 25.04C7.74682 24.8085 7.7784 24.5243 7.7784 24.1875C7.7784 23.998 7.75735 23.7559 7.71524 23.4612C7.67314 23.1665 7.60999 22.8086 7.52579 22.3876C7.44158 21.9456 7.18898 21.4298 6.76796 20.8404C6.34695 20.2299 5.94699 19.6405 5.56808 19.0722C5.18917 18.4827 4.94709 17.8407 4.84184 17.146C4.73658 16.4303 4.6208 15.6514 4.4945 14.8094C4.38925 13.9674 4.29451 13.2517 4.21031 12.6622C4.14716 12.0728 3.98928 11.6308 3.73668 11.336C3.48407 11.0203 3.19988 10.7677 2.88412 10.5782C2.56836 10.3888 2.33681 10.1572 2.18945 9.88355C2.06315 9.6099 2 9.30466 2 8.96785C2 8.65209 2.13682 8.26266 2.41048 7.79954C2.68414 7.31538 3.17883 7.0733 3.89456 7.0733C4.61028 7.0733 5.07339 7.26275 5.2839 7.64166C5.51545 8.02058 5.65228 8.29423 5.69438 8.46264C5.75754 8.60999 5.78911 8.78893 5.78911 8.99943C5.78911 9.31519 5.72596 9.652 5.59965 10.0099C5.3681 10.3677 5.14707 10.7151 4.93656 11.0519C4.91551 11.1782 5.23127 11.6308 5.88384 12.4096C6.55746 13.1675 7.0311 13.8095 7.30476 14.3358C7.57841 14.862 7.95733 15.5672 8.44149 16.4514C8.652 16.7461 8.8204 16.8934 8.94671 16.8934C9.15721 16.8934 9.26246 16.3882 9.26246 15.3778C9.26246 14.5568 9.25194 13.8621 9.23089 13.2938C9.20984 12.7254 9.18879 12.1991 9.16774 11.715C9.16774 11.4203 9.16774 11.1361 9.16774 10.8624C9.16774 10.5888 9.17826 10.3256 9.19931 10.073C9.19931 9.6941 9.17827 9.37834 9.13616 9.12573C9.09406 8.85207 8.99933 8.54684 8.85198 8.21003C8.70462 7.85217 8.50464 7.59956 8.25204 7.45221C7.99943 7.2838 7.84155 7.12592 7.7784 6.97857C7.71524 6.83121 7.65209 6.64176 7.58894 6.4102C7.52579 6.17864 7.49421 5.98919 7.49421 5.84183C7.49421 5.52608 7.63104 5.13664 7.9047 4.67352C8.19941 4.18936 8.72568 3.94728 9.4835 3.94728C10.2624 3.94728 10.7781 4.17884 11.0307 4.64195C11.3044 5.08401 11.4412 5.48397 11.4412 5.84183C11.4412 6.13654 11.3886 6.42073 11.2833 6.69438C11.1781 6.94699 11.0097 7.18908 10.7781 7.42063C10.5676 7.63114 10.4308 7.79954 10.3676 7.92585C10.3255 8.05215 10.3045 8.23108 10.3045 8.46264C10.3045 8.7784 10.5045 9.23098 10.9044 9.8204C11.3044 10.3888 11.6517 11.1571 11.9464 12.1254C12.2622 13.0938 12.6727 14.3779 13.1779 15.9777C13.2831 16.1672 13.3673 16.2619 13.4305 16.2619C13.5568 16.2619 13.6305 15.5041 13.6515 13.9884C13.6936 12.4728 13.7568 11.4939 13.841 11.0519C13.9252 10.6098 14.1357 9.92566 14.4725 8.99943C14.8093 8.0732 14.9777 7.44168 14.9777 7.10487C14.9777 6.93647 14.9567 6.79964 14.9146 6.69438C14.8725 6.56808 14.7462 6.4523 14.5357 6.34705C14.3251 6.22074 14.1567 6.07339 14.0304 5.90499C13.9041 5.73658 13.841 5.47345 13.841 5.11559C13.841 4.84193 13.9147 4.52617 14.062 4.16831C14.2094 3.81045 14.4725 3.52627 14.8514 3.31576C15.2303 3.10526 15.6513 3 16.1144 3C16.6197 3 17.0512 3.10526 17.4091 3.31576C17.788 3.50522 18.0616 3.81045 18.23 4.23146V4.23146ZM20.4088 17.3671C20.7666 17.3671 21.0403 17.4092 21.2297 17.4934C21.4403 17.5565 21.6718 17.6407 21.9244 17.746C22.1981 17.8512 22.3349 17.7249 22.3349 17.3671C22.3349 17.1565 22.2823 16.7882 22.177 16.2619C22.0928 15.7146 22.0507 15.3672 22.0507 15.2199C22.0507 14.7568 22.0718 14.0516 22.1139 13.1043C22.177 12.157 22.2086 11.6413 22.2086 11.5571C22.2086 10.9887 22.156 10.7045 22.0507 10.7045C21.9876 10.7045 21.8613 10.8414 21.6718 11.115C21.4824 11.3887 21.314 11.9149 21.1666 12.6938C21.0403 13.4727 20.9456 13.9569 20.8824 14.1463C20.8193 14.3147 20.6193 14.7463 20.2825 15.4409C19.9667 16.1356 19.8088 16.6092 19.8088 16.8618C19.8088 17.1986 20.0088 17.3671 20.4088 17.3671V17.3671ZM3.04201 8.55737C2.93675 8.72577 2.88412 8.92575 2.88412 9.15731C2.88412 9.24151 2.89465 9.31519 2.9157 9.37834C2.97885 9.44149 3.05253 9.53622 3.13673 9.66252C3.24199 9.78883 3.48407 9.85198 3.86298 9.85198C4.05243 9.85198 4.22084 9.83093 4.3682 9.78883C4.51555 9.74673 4.63133 9.66252 4.71553 9.53622C4.79973 9.40992 4.84184 9.26256 4.84184 9.09416C4.84184 8.9047 4.79973 8.74682 4.71553 8.62052C4.63133 8.49421 4.50502 8.41001 4.33662 8.36791C4.18926 8.30476 4.05243 8.25213 3.92613 8.21003C3.65247 8.23108 3.46302 8.26266 3.35776 8.30476C3.25251 8.32581 3.14726 8.41001 3.04201 8.55737V8.55737ZM8.63095 5.39977C8.52569 5.56818 8.47307 5.76816 8.47307 5.99971C8.47307 6.08392 8.48359 6.1576 8.50464 6.22075C8.56779 6.2839 8.64147 6.37863 8.72568 6.50493C8.83093 6.63124 9.07301 6.69438 9.45192 6.69438C9.64138 6.69438 9.80978 6.67333 9.95713 6.63123C10.1045 6.58913 10.2203 6.50493 10.3045 6.37863C10.3887 6.25232 10.4308 6.10497 10.4308 5.93656C10.4308 5.74711 10.3887 5.58923 10.3045 5.46293C10.2203 5.33662 10.094 5.25242 9.92556 5.21032C9.77821 5.14716 9.64138 5.09454 9.51507 5.05244C9.24141 5.07349 9.05196 5.10506 8.94671 5.14716C8.84145 5.16821 8.7362 5.25242 8.63095 5.39977V5.39977ZM15.2619 4.5788C15.1566 4.7472 15.104 4.95771 15.104 5.21032C15.104 5.33662 15.1777 5.50502 15.325 5.71553C15.4724 5.90499 15.7566 5.99971 16.1776 5.99971C16.4302 5.99971 16.6197 5.97866 16.746 5.93656C16.8723 5.87341 16.988 5.77868 17.0933 5.65238C17.1986 5.50502 17.2512 5.34714 17.2512 5.17874C17.2512 4.94718 17.1986 4.76825 17.0933 4.64195C17.0091 4.4946 16.8512 4.38934 16.6197 4.32619C16.3881 4.24199 16.2618 4.18936 16.2407 4.16831C15.9039 4.23146 15.6829 4.28409 15.5777 4.32619C15.4935 4.34724 15.3882 4.43144 15.2619 4.5788V4.5788ZM21.9876 5.46293C21.8823 5.63133 21.8297 5.83131 21.8297 6.06287C21.8297 6.14707 21.8402 6.22074 21.8613 6.2839C21.9244 6.34705 21.9981 6.44178 22.0823 6.56808C22.1876 6.69439 22.4296 6.75754 22.8085 6.75754C22.998 6.75754 23.1664 6.73649 23.3138 6.69438C23.4611 6.65228 23.5769 6.56808 23.6611 6.44178C23.7453 6.31548 23.7874 6.16812 23.7874 5.99971C23.7874 5.81026 23.7453 5.65238 23.6611 5.52607C23.5769 5.39977 23.4506 5.31557 23.2822 5.27347C23.1348 5.21032 22.998 5.15769 22.8717 5.11559C22.598 5.13664 22.4086 5.16822 22.3033 5.21032C22.1981 5.23137 22.0928 5.31557 21.9876 5.46293V5.46293ZM27.6081 8.55737C27.5028 8.72577 27.4502 8.92575 27.4502 9.15731C27.4502 9.24151 27.4607 9.31519 27.4818 9.37834C27.5449 9.44149 27.6186 9.53622 27.7028 9.66252C27.8081 9.78883 28.0502 9.85198 28.4291 9.85198C28.6185 9.85198 28.7869 9.83093 28.9343 9.78883C29.0816 9.74673 29.1974 9.66252 29.2816 9.53622C29.3658 9.40992 29.4079 9.26256 29.4079 9.09416C29.4079 8.9047 29.3658 8.74682 29.2816 8.62052C29.1974 8.49421 29.0711 8.41001 28.9027 8.36791C28.7554 8.30476 28.6185 8.25213 28.4922 8.21003C28.2186 8.23108 28.0291 8.26266 27.9239 8.30476C27.8186 8.32581 27.7133 8.41001 27.6081 8.55737V8.55737ZM11.8517 18.2828C10.715 18.5775 9.74663 18.8827 8.94671 19.1985C8.16783 19.4932 7.7784 19.8405 7.7784 20.2405C7.7784 20.3878 7.8205 20.5036 7.9047 20.5878C7.9889 20.672 8.09415 20.8615 8.22046 21.1562C8.34676 21.4509 8.47307 21.5982 8.59937 21.5982C8.83093 21.5982 9.10459 21.5035 9.42035 21.314C9.75716 21.1246 10.1782 20.9772 10.6834 20.872C11.2096 20.7457 11.9569 20.651 12.9253 20.5878C13.8936 20.5036 14.9672 20.4615 16.146 20.4615C17.5354 20.4615 18.5984 20.4931 19.3352 20.5562C20.072 20.5983 20.7456 20.6931 21.3561 20.8404C21.9665 20.9667 22.4296 21.1246 22.7454 21.314C23.0822 21.5035 23.3664 21.5982 23.5979 21.5982C23.6821 21.5982 23.7769 21.5035 23.8821 21.314C23.9874 21.1246 24.1032 20.9036 24.2295 20.651C24.3558 20.5247 24.4189 20.3878 24.4189 20.2405C24.4189 19.7563 23.9453 19.3563 22.998 19.0406C22.0718 18.7248 21.2297 18.4827 20.4719 18.3143C19.7141 18.1249 18.9773 17.9986 18.2616 17.9354C17.5669 17.8723 16.8723 17.8091 16.1776 17.746C15.1251 17.8302 14.3041 17.9038 13.7147 17.967C13.1463 18.0091 12.5253 18.1144 11.8517 18.2828V18.2828ZM20.5351 23.3033L23.1875 23.7138C23.2296 23.6928 23.2717 23.6717 23.3138 23.6507C23.2506 23.4191 23.2611 23.2507 23.3453 23.1455C23.4295 23.0192 23.4716 22.9034 23.4716 22.7981C23.4716 22.5245 23.2506 22.3455 22.8085 22.2613C22.3875 22.1561 21.7455 22.0508 20.8824 21.9456C20.0404 21.8193 19.3141 21.7456 18.7037 21.7245C18.1143 21.7035 17.788 21.693 17.7248 21.693H16.1144C15.1461 21.693 14.4093 21.7035 13.9041 21.7245C13.42 21.7456 12.6937 21.8298 11.7254 21.9771C10.7571 22.1245 10.0413 22.2508 9.57823 22.3561C9.13616 22.4613 8.91513 22.6402 8.91513 22.8928C8.91513 22.9981 8.95723 23.1139 9.04143 23.2402C9.14669 23.3454 9.16774 23.4717 9.10459 23.6191C9.12564 23.6822 9.14669 23.7454 9.16774 23.8086C9.4414 23.8086 9.80978 23.7664 10.2729 23.6822C10.7571 23.598 11.2833 23.4928 11.8517 23.3665C12.399 23.2823 12.9463 23.2191 13.4936 23.177C14.062 23.1349 14.5356 23.1139 14.9146 23.1139H16.1776C16.5565 23.1139 16.9038 23.1139 17.2196 23.1139C17.5564 23.1139 17.8617 23.1034 18.1353 23.0823C18.5353 23.0823 18.8721 23.0928 19.1457 23.1139C19.4404 23.1349 19.9036 23.1981 20.5351 23.3033V23.3033ZM20.5035 25.1032L23.6927 25.5768C23.6927 25.5347 23.6927 25.4926 23.6927 25.4505C23.419 25.2189 23.3138 25.0716 23.3769 25.0084C23.4822 24.9032 23.5348 24.819 23.5348 24.7558C23.5348 24.5453 23.2822 24.398 22.777 24.3138C22.2928 24.2085 21.5876 24.0927 20.6614 23.9664C19.7352 23.8401 18.9563 23.777 18.3248 23.777C17.9037 23.777 17.5143 23.7875 17.1565 23.8086C16.7986 23.8086 16.4723 23.8086 16.1776 23.8086C15.8829 23.8086 15.5987 23.8086 15.325 23.8086C15.0514 23.8086 14.7883 23.798 14.5357 23.777C13.7357 23.777 13.0726 23.8401 12.5464 23.9664C12.0201 24.0927 11.2623 24.2085 10.2729 24.3138C9.28352 24.419 8.78883 24.5874 8.78883 24.819C8.78883 24.9242 8.84145 25.0295 8.94671 25.1347C9.00986 25.1979 8.96776 25.2926 8.8204 25.4189C8.6941 25.5452 8.63095 25.6294 8.63095 25.6715C8.9046 25.6505 9.51507 25.5452 10.4624 25.3558C11.4307 25.1663 12.1043 25.0505 12.4832 25.0084C12.8832 24.9453 13.2621 24.9032 13.6199 24.8821C13.9989 24.8611 14.4409 24.8506 14.9461 24.8506H16.1776C16.746 24.8506 17.3038 24.8506 17.8511 24.8506C18.4195 24.8506 19.3036 24.9348 20.5035 25.1032V25.1032ZM7.65209 16.9881C7.21003 16.104 6.78902 15.2936 6.38905 14.5568C5.98909 13.799 5.69438 13.4201 5.50493 13.4201C5.39967 13.4201 5.33652 13.4727 5.31547 13.5779C5.29442 13.6832 5.2839 13.8095 5.2839 13.9569C5.2839 14.2937 5.42073 14.9989 5.69438 16.0724C5.98909 17.125 6.14697 17.746 6.16802 17.9354C6.21013 18.1249 6.31538 18.3775 6.48378 18.6932C6.65219 18.988 6.85217 19.1353 7.08373 19.1353C7.12583 19.1353 7.22055 19.1037 7.36791 19.0406C7.53631 18.9564 7.69419 18.8511 7.84155 18.7248C7.9889 18.5985 8.13626 18.4933 8.28361 18.4091C8.43096 18.3249 8.50464 18.2301 8.50464 18.1249C8.50464 17.9986 8.36782 17.7986 8.09416 17.5249C7.84155 17.2302 7.69419 17.0513 7.65209 16.9881V16.9881ZM23.9769 27.0924C23.8716 26.9661 23.7769 26.8504 23.6927 26.7451C22.8085 26.4504 21.9349 26.3031 21.0719 26.3031C20.293 26.3031 19.3352 26.2715 18.1985 26.2083C17.0617 26.1452 16.3986 26.1136 16.2092 26.1136C15.304 26.1136 14.5041 26.1241 13.8094 26.1452C13.1147 26.1873 12.2832 26.2399 11.3149 26.3031C10.4518 26.3031 9.6098 26.4399 8.78883 26.7135C8.66252 26.8398 8.53622 26.9661 8.40991 27.0924C9.37824 27.4503 10.4834 27.6819 11.7254 27.7871C12.9674 27.9134 14.462 27.9766 16.2092 27.9766C17.9353 27.9766 19.4089 27.9134 20.6298 27.7871C21.8507 27.6819 22.9664 27.4503 23.9769 27.0924V27.0924ZM11.5044 14.2095C11.4202 13.9779 11.3044 13.4727 11.157 12.6938C11.0307 11.9149 10.8097 11.3045 10.4939 10.8624C10.3887 10.7361 10.3045 10.7045 10.2413 10.7677C10.1782 10.8098 10.1466 11.0834 10.1466 11.5887C10.1466 12.0728 10.1676 12.778 10.2097 13.7042C10.2729 14.6305 10.3045 15.1357 10.3045 15.2199C10.3045 15.4725 10.2518 15.8619 10.1466 16.3882C10.0624 16.9145 10.0203 17.2407 10.0203 17.3671C10.0203 17.7249 10.1571 17.8512 10.4308 17.746C10.6623 17.6407 10.8728 17.5565 11.0623 17.4934C11.2517 17.4092 11.5465 17.3671 11.9464 17.3671C12.3464 17.3671 12.5464 17.1986 12.5464 16.8618C12.5464 16.6092 12.378 16.1356 12.0412 15.4409C11.7254 14.7463 11.5465 14.3358 11.5044 14.2095V14.2095ZM23.9453 18.4406C24.1347 18.5459 24.3031 18.6617 24.4505 18.788C24.6189 18.9143 24.7873 19.0301 24.9557 19.1353C25.2504 19.2827 25.503 19.1985 25.7135 18.8827C25.9451 18.5459 26.0819 18.2196 26.124 17.9038C26.1661 17.5881 26.324 16.946 26.5977 15.9777C26.8713 15.0094 27.0082 14.3568 27.0082 14.02C27.0082 13.8726 26.9976 13.7463 26.9766 13.6411C26.9555 13.5358 26.8924 13.4832 26.7871 13.4832C26.5556 13.4832 26.1661 14.0305 25.6188 15.1252C25.0715 16.2198 24.7452 16.8618 24.64 17.0513C24.3873 17.3039 24.1768 17.5249 24.0084 17.7144C23.8611 17.8828 23.7874 18.0407 23.7874 18.188C23.7874 18.2933 23.84 18.3775 23.9453 18.4406V18.4406ZM17.5985 13.5779C17.6196 13.2201 17.6301 12.9675 17.6301 12.8201C17.6301 12.357 17.588 11.9149 17.5038 11.4939C17.4196 11.0729 17.2933 10.6098 17.1249 10.1046C16.9565 9.59937 16.6197 9.34677 16.1144 9.34677C15.8618 9.34677 15.6619 9.40992 15.5145 9.53622C15.3672 9.66252 15.2093 9.92566 15.0409 10.3256C14.8725 10.7045 14.7567 11.1045 14.6935 11.5255C14.6514 11.9465 14.6304 12.5675 14.6304 13.3885C14.6304 13.7253 14.5462 14.2726 14.3778 15.0304C14.2304 15.7672 14.1567 16.1987 14.1567 16.325C14.1567 16.8303 14.3778 17.0408 14.8198 16.9566C14.883 16.9355 15.0303 16.9039 15.2619 16.8618C15.4935 16.8197 15.6829 16.7987 15.8303 16.7987C15.8934 16.7987 16.0934 16.8303 16.4302 16.8934C16.767 16.9355 17.0828 16.9566 17.3775 16.9566C17.7564 16.9566 17.9459 16.7461 17.9459 16.325C17.9459 16.0724 17.8827 15.5988 17.7564 14.9041C17.6511 14.1884 17.5985 13.7463 17.5985 13.5779V13.5779Z" fill="black"/>
<path d="M20.4088 17.367C20.7666 17.367 21.0403 17.4091 21.2298 17.4934C21.4403 17.5565 21.6718 17.6407 21.9244 17.746C22.1981 17.8512 22.3349 17.7249 22.3349 17.367C22.3349 17.1565 22.2823 16.7882 22.177 16.2619C22.0928 15.7146 22.0507 15.3672 22.0507 15.2199C22.0507 14.7568 22.0718 14.0516 22.1139 13.1043C22.177 12.157 22.2086 11.6413 22.2086 11.5571C22.2086 10.9887 22.156 10.7045 22.0507 10.7045C21.9876 10.7045 21.8613 10.8414 21.6718 11.115C21.4824 11.3887 21.314 11.9149 21.1666 12.6938C21.0403 13.4727 20.9456 13.9568 20.8824 14.1463C20.8193 14.3147 20.6193 14.7462 20.2825 15.4409C19.9667 16.1356 19.8088 16.6092 19.8088 16.8618C19.8088 17.1986 20.0088 17.367 20.4088 17.367ZM3.04201 8.55736C2.93675 8.72576 2.88412 8.92575 2.88412 9.1573C2.88412 9.24151 2.89465 9.31518 2.9157 9.37833C2.97886 9.44149 3.05253 9.53621 3.13673 9.66252C3.24199 9.78882 3.48407 9.85197 3.86298 9.85197C4.05243 9.85197 4.22084 9.83092 4.3682 9.78882C4.51555 9.74672 4.63133 9.66252 4.71553 9.53621C4.79974 9.40991 4.84184 9.26256 4.84184 9.09415C4.84184 8.9047 4.79974 8.74682 4.71553 8.62051C4.63133 8.49421 4.50502 8.41001 4.33662 8.36791C4.18926 8.30476 4.05243 8.25213 3.92613 8.21002C3.65247 8.23107 3.46302 8.26265 3.35776 8.30475C3.25251 8.32581 3.14726 8.41 3.04201 8.55736ZM8.63095 5.39977C8.52569 5.56817 8.47307 5.76815 8.47307 5.99971C8.47307 6.08391 8.48359 6.15759 8.50464 6.22074C8.5678 6.28389 8.64148 6.37862 8.72568 6.50493C8.83093 6.63123 9.07301 6.69438 9.45192 6.69438C9.64138 6.69438 9.80978 6.67333 9.95714 6.63123C10.1045 6.58912 10.2203 6.50492 10.3045 6.37862C10.3887 6.25232 10.4308 6.10496 10.4308 5.93655C10.4308 5.7471 10.3887 5.58922 10.3045 5.46292C10.2203 5.33662 10.094 5.25241 9.92556 5.21031C9.77821 5.14716 9.64138 5.09453 9.51508 5.05243C9.24142 5.07348 9.05196 5.10506 8.94671 5.14716C8.84146 5.16821 8.7362 5.25241 8.63095 5.39977ZM15.2619 4.57879C15.1566 4.7472 15.104 4.9577 15.104 5.21031C15.104 5.33661 15.1777 5.50502 15.3251 5.71552C15.4724 5.90498 15.7566 5.99971 16.1776 5.99971C16.4302 5.99971 16.6197 5.97866 16.746 5.93655C16.8723 5.8734 16.988 5.77868 17.0933 5.65237C17.1986 5.50502 17.2512 5.34714 17.2512 5.17873C17.2512 4.94717 17.1986 4.76825 17.0933 4.64194C17.0091 4.49459 16.8512 4.38933 16.6197 4.32618C16.3881 4.24198 16.2618 4.18936 16.2408 4.1683C15.9039 4.23146 15.6829 4.28408 15.5777 4.32618C15.4935 4.34723 15.3882 4.43144 15.2619 4.57879ZM21.9876 5.46292C21.8823 5.63132 21.8297 5.8313 21.8297 6.06286C21.8297 6.14706 21.8402 6.22074 21.8613 6.28389C21.9244 6.34704 21.9981 6.44177 22.0823 6.56808C22.1876 6.69438 22.4296 6.75753 22.8086 6.75753C22.998 6.75753 23.1664 6.73648 23.3138 6.69438C23.4611 6.65228 23.5769 6.56808 23.6611 6.44177C23.7453 6.31547 23.7874 6.16811 23.7874 5.99971C23.7874 5.81025 23.7453 5.65237 23.6611 5.52607C23.5769 5.39976 23.4506 5.31556 23.2822 5.27346C23.1348 5.21031 22.998 5.15769 22.8717 5.11558C22.598 5.13664 22.4086 5.16821 22.3033 5.21031C22.1981 5.23136 22.0928 5.31557 21.9876 5.46292ZM27.6081 8.55736C27.5028 8.72576 27.4502 8.92575 27.4502 9.1573C27.4502 9.24151 27.4607 9.31518 27.4818 9.37833C27.5449 9.44149 27.6186 9.53621 27.7028 9.66252C27.8081 9.78882 28.0502 9.85197 28.4291 9.85197C28.6185 9.85197 28.7869 9.83092 28.9343 9.78882C29.0816 9.74672 29.1974 9.66252 29.2816 9.53621C29.3658 9.40991 29.4079 9.26256 29.4079 9.09415C29.4079 8.9047 29.3658 8.74682 29.2816 8.62051C29.1974 8.49421 29.0711 8.41001 28.9027 8.36791C28.7554 8.30476 28.6185 8.25213 28.4922 8.21002C28.2186 8.23107 28.0291 8.26265 27.9239 8.30475C27.8186 8.32581 27.7133 8.41 27.6081 8.55736ZM11.8517 18.2828C10.715 18.5775 9.74663 18.8827 8.94671 19.1985C8.16784 19.4932 7.7784 19.8405 7.7784 20.2405C7.7784 20.3878 7.8205 20.5036 7.9047 20.5878C7.98891 20.672 8.09416 20.8615 8.22046 21.1562C8.34676 21.4509 8.47307 21.5982 8.59937 21.5982C8.83093 21.5982 9.10459 21.5035 9.42035 21.314C9.75716 21.1246 10.1782 20.9772 10.6834 20.872C11.2097 20.7457 11.9569 20.6509 12.9253 20.5878C13.8936 20.5036 14.9672 20.4615 16.146 20.4615C17.5354 20.4615 18.5984 20.4931 19.3352 20.5562C20.072 20.5983 20.7456 20.6931 21.3561 20.8404C21.9665 20.9667 22.4296 21.1246 22.7454 21.314C23.0822 21.5035 23.3664 21.5982 23.5979 21.5982C23.6822 21.5982 23.7769 21.5035 23.8821 21.314C23.9874 21.1246 24.1032 20.9036 24.2295 20.6509C24.3558 20.5246 24.4189 20.3878 24.4189 20.2405C24.4189 19.7563 23.9453 19.3563 22.998 19.0406C22.0718 18.7248 21.2298 18.4827 20.4719 18.3143C19.7141 18.1249 18.9773 17.9986 18.2616 17.9354C17.5669 17.8723 16.8723 17.8091 16.1776 17.746C15.1251 17.8302 14.3041 17.9038 13.7147 17.967C13.1463 18.0091 12.5253 18.1143 11.8517 18.2828ZM20.5351 23.3033L23.1875 23.7138C23.2296 23.6928 23.2717 23.6717 23.3138 23.6507C23.2506 23.4191 23.2611 23.2507 23.3453 23.1454C23.4295 23.0191 23.4716 22.9034 23.4716 22.7981C23.4716 22.5245 23.2506 22.3455 22.8086 22.2613C22.3875 22.1561 21.7455 22.0508 20.8824 21.9456C20.0404 21.8193 19.3141 21.7456 18.7037 21.7245C18.1143 21.7035 17.788 21.693 17.7248 21.693H16.1144C15.1461 21.693 14.4093 21.7035 13.9041 21.7245C13.42 21.7456 12.6937 21.8298 11.7254 21.9771C10.7571 22.1245 10.0413 22.2508 9.57823 22.3561C9.13617 22.4613 8.91513 22.6402 8.91513 22.8928C8.91513 22.9981 8.95723 23.1139 9.04144 23.2402C9.14669 23.3454 9.16774 23.4717 9.10459 23.6191C9.12564 23.6822 9.14669 23.7454 9.16774 23.8085C9.4414 23.8085 9.80978 23.7664 10.2729 23.6822C10.7571 23.598 11.2833 23.4928 11.8517 23.3665C12.399 23.2823 12.9463 23.2191 13.4936 23.177C14.062 23.1349 14.5357 23.1139 14.9146 23.1139H16.1776C16.5565 23.1139 16.9038 23.1139 17.2196 23.1139C17.5564 23.1139 17.8617 23.1033 18.1353 23.0823C18.5353 23.0823 18.8721 23.0928 19.1457 23.1139C19.4404 23.1349 19.9036 23.1981 20.5351 23.3033ZM20.5035 25.1032L23.6927 25.5768C23.6927 25.5347 23.6927 25.4926 23.6927 25.4505C23.419 25.2189 23.3138 25.0716 23.3769 25.0084C23.4822 24.9032 23.5348 24.819 23.5348 24.7558C23.5348 24.5453 23.2822 24.398 22.777 24.3138C22.2928 24.2085 21.5876 24.0927 20.6614 23.9664C19.7352 23.8401 18.9563 23.777 18.3248 23.777C17.9038 23.777 17.5143 23.7875 17.1565 23.8085C16.7986 23.8085 16.4723 23.8085 16.1776 23.8085C15.8829 23.8085 15.5987 23.8085 15.3251 23.8085C15.0514 23.8085 14.7883 23.798 14.5357 23.777C13.7357 23.777 13.0726 23.8401 12.5464 23.9664C12.0201 24.0927 11.2623 24.2085 10.2729 24.3138C9.28352 24.419 8.78883 24.5874 8.78883 24.819C8.78883 24.9242 8.84146 25.0295 8.94671 25.1347C9.00986 25.1979 8.96776 25.2926 8.8204 25.4189C8.6941 25.5452 8.63095 25.6294 8.63095 25.6715C8.90461 25.6505 9.51508 25.5452 10.4624 25.3558C11.4307 25.1663 12.1043 25.0505 12.4832 25.0084C12.8832 24.9453 13.2621 24.9032 13.6199 24.8821C13.9989 24.8611 14.4409 24.8506 14.9461 24.8506H16.1776C16.746 24.8506 17.3038 24.8506 17.8511 24.8506C18.4195 24.8506 19.3036 24.9348 20.5035 25.1032ZM7.65209 16.9881C7.21003 16.104 6.78902 15.2936 6.38906 14.5568C5.9891 13.799 5.69439 13.4201 5.50493 13.4201C5.39968 13.4201 5.33652 13.4727 5.31547 13.5779C5.29442 13.6832 5.2839 13.8095 5.2839 13.9568C5.2839 14.2937 5.42073 14.9989 5.69439 16.0724C5.9891 17.125 6.14698 17.746 6.16803 17.9354C6.21013 18.1249 6.31538 18.3775 6.48378 18.6932C6.65219 18.988 6.85217 19.1353 7.08373 19.1353C7.12583 19.1353 7.22056 19.1037 7.36791 19.0406C7.53632 18.9564 7.6942 18.8511 7.84155 18.7248C7.98891 18.5985 8.13626 18.4933 8.28361 18.4091C8.43097 18.3249 8.50464 18.2301 8.50464 18.1249C8.50464 17.9986 8.36782 17.7986 8.09416 17.5249C7.84155 17.2302 7.6942 17.0513 7.65209 16.9881ZM23.9769 27.0924C23.8716 26.9661 23.7769 26.8504 23.6927 26.7451C22.8086 26.4504 21.935 26.303 21.0719 26.303C20.293 26.303 19.3352 26.2715 18.1985 26.2083C17.0617 26.1452 16.3986 26.1136 16.2092 26.1136C15.304 26.1136 14.5041 26.1241 13.8094 26.1452C13.1147 26.1873 12.2832 26.2399 11.3149 26.303C10.4518 26.303 9.60981 26.4399 8.78883 26.7135C8.66253 26.8398 8.53622 26.9661 8.40992 27.0924C9.37825 27.4503 10.4834 27.6819 11.7254 27.7871C12.9674 27.9134 14.462 27.9766 16.2092 27.9766C17.9353 27.9766 19.4089 27.9134 20.6298 27.7871C21.8508 27.6819 22.9664 27.4503 23.9769 27.0924ZM11.5044 14.2095C11.4202 13.9779 11.3044 13.4727 11.157 12.6938C11.0307 11.9149 10.8097 11.3045 10.4939 10.8624C10.3887 10.7361 10.3045 10.7045 10.2413 10.7677C10.1782 10.8098 10.1466 11.0834 10.1466 11.5887C10.1466 12.0728 10.1676 12.778 10.2097 13.7042C10.2729 14.6305 10.3045 15.1357 10.3045 15.2199C10.3045 15.4725 10.2518 15.8619 10.1466 16.3882C10.0624 16.9145 10.0203 17.2407 10.0203 17.367C10.0203 17.7249 10.1571 17.8512 10.4308 17.746C10.6623 17.6407 10.8728 17.5565 11.0623 17.4934C11.2518 17.4091 11.5465 17.367 11.9464 17.367C12.3464 17.367 12.5464 17.1986 12.5464 16.8618C12.5464 16.6092 12.378 16.1356 12.0412 15.4409C11.7254 14.7462 11.5465 14.3358 11.5044 14.2095ZM23.9453 18.4406C24.1347 18.5459 24.3031 18.6617 24.4505 18.788C24.6189 18.9143 24.7873 19.0301 24.9557 19.1353C25.2504 19.2827 25.503 19.1985 25.7135 18.8827C25.9451 18.5459 26.0819 18.2196 26.124 17.9038C26.1661 17.5881 26.324 16.946 26.5977 15.9777C26.8713 15.0094 27.0082 14.3568 27.0082 14.02C27.0082 13.8726 26.9976 13.7463 26.9766 13.6411C26.9555 13.5358 26.8924 13.4832 26.7871 13.4832C26.5556 13.4832 26.1661 14.0305 25.6188 15.1252C25.0715 16.2198 24.7452 16.8618 24.64 17.0513C24.3873 17.3039 24.1768 17.5249 24.0084 17.7144C23.8611 17.8828 23.7874 18.0407 23.7874 18.188C23.7874 18.2933 23.84 18.3775 23.9453 18.4406ZM17.5985 13.5779C17.6196 13.2201 17.6301 12.9675 17.6301 12.8201C17.6301 12.357 17.588 11.9149 17.5038 11.4939C17.4196 11.0729 17.2933 10.6098 17.1249 10.1046C16.9565 9.59937 16.6197 9.34676 16.1144 9.34676C15.8618 9.34676 15.6619 9.40991 15.5145 9.53621C15.3672 9.66252 15.2093 9.92565 15.0409 10.3256C14.8725 10.7045 14.7567 11.1045 14.6935 11.5255C14.6514 11.9465 14.6304 12.5675 14.6304 13.3885C14.6304 13.7253 14.5462 14.2726 14.3778 15.0304C14.2304 15.7672 14.1567 16.1987 14.1567 16.325C14.1567 16.8303 14.3778 17.0408 14.8198 16.9566C14.883 16.9355 15.0303 16.9039 15.2619 16.8618C15.4935 16.8197 15.6829 16.7987 15.8303 16.7987C15.8934 16.7987 16.0934 16.8303 16.4302 16.8934C16.767 16.9355 17.0828 16.9566 17.3775 16.9566C17.7564 16.9566 17.9459 16.7461 17.9459 16.325C17.9459 16.0724 17.8827 15.5988 17.7564 14.9041C17.6511 14.1884 17.5985 13.7463 17.5985 13.5779Z" fill="white"/>
</svg>
