<svg width="32" height="32" viewBox="0 0 32 32" fill="none" xmlns="http://www.w3.org/2000/svg">
<path d="M19.1987 7.51565H20.9986V6H24.7877V11.3048L21.7564 14.2413V21.1565L24.1246 23.5247V26.4612H26.4928V30.4398H6V26.4612H8.3682V23.5247L10.7364 21.1565V14.2413L7.7051 11.3048V6H11.4942V7.51565H13.1993V6H19.1672L19.1987 7.51565ZM23.272 26.4612H9.18917V27.2822H23.272V26.4612ZM22.9879 23.5562H9.47335V24.5982H22.9879V23.5562ZM20.9354 21.1249H11.5258V21.9459H20.9354V21.1249ZM20.9354 13.4519H11.5258V14.2729H20.9354V13.4519ZM23.651 10.2943H8.81026V11.3363H23.651V10.2943Z" fill="black"/>
<path d="M23.2721 26.4612H9.18922V27.2822H23.2721V26.4612ZM22.9879 23.5562H9.4734V24.5982H22.9879V23.5562ZM20.9355 21.1249H11.5258V21.9458H20.9355V21.1249ZM20.9355 13.4519H11.5258V14.2729H20.9355V13.4519ZM23.651 10.2943H8.8103V11.3363H23.651V10.2943Z" fill="#EEEEEE"/>
</svg>
