<svg width="32" height="32" viewBox="0 0 32 32" fill="none" xmlns="http://www.w3.org/2000/svg">
<path d="M19.1987 7.51565H20.9986V6H24.7877V11.3048L21.7564 14.2413V21.1565L24.1246 23.5247V26.4612H26.4928V30.4398H6V26.4612H8.3682V23.5247L10.7364 21.1565V14.2413L7.7051 11.3048V6H11.4942V7.51565H13.1993V6H19.1672L19.1987 7.51565ZM24.9456 27.8821H7.51565V29.2083H24.9456V27.8821ZM22.6721 24.6614H9.78912V26.4612H22.6721V24.6614ZM20.3039 14.8097H12.252V20.3986H20.3039V14.8097ZM23.3352 10.2628V7.42092H22.2932V8.84184H17.9357V7.42092H14.4308V8.84184H10.2312V7.42092H9.12602V10.2628H23.3352ZM22.5774 23.5247L20.5881 21.6301H11.8731L9.88384 23.5247H22.5774ZM20.6828 13.5782L22.8616 11.3995H9.59966L11.6837 13.5782H20.6828Z" fill="black"/>
<path d="M24.9455 27.8821H7.51562V29.2083H24.9455V27.8821ZM22.6721 24.6614H9.78909V26.4612H22.6721V24.6614ZM20.3039 14.8097H12.252V20.3986H20.3039V14.8097ZM23.3352 10.2628V7.42093H22.2932V8.84185H17.9357V7.42093H14.4308V8.84185H10.2312V7.42093H9.126V10.2628H23.3352ZM22.5774 23.5247L20.5881 21.6301H11.8731L9.88382 23.5247H22.5774ZM20.6828 13.5782L22.8615 11.3995H9.59964L11.6837 13.5782H20.6828Z" fill="white"/>
</svg>
