<svg width="180" height="180" viewBox="0 0 180 180" fill="none" xmlns="http://www.w3.org/2000/svg">
<path d="M146.596 121.994C146.596 124.967 145.52 127.479 143.367 129.529C141.266 131.528 138.805 132.501 135.987 132.45H120.688V142.829C123.506 142.829 125.941 143.905 127.991 146.058C130.041 148.159 131.066 150.645 131.066 153.515V161.203H52.342V153.515C52.342 150.645 53.3414 148.159 55.3403 146.058C57.3902 143.957 59.8506 142.88 62.7204 142.829V132.45H47.4217C44.5003 132.45 42.0401 131.451 40.0413 129.452C38.0424 127.402 37.043 124.967 37.043 122.149L36.9661 111.309L28.9707 67.0258C28.4069 65.2832 28.125 63.4894 28.125 61.6444C28.125 55.9041 30.1495 50.9838 34.1985 46.8835C38.2987 42.7833 43.219 40.7332 48.9593 40.7332C50.9069 40.7332 52.9058 41.0407 54.9559 41.6558L78.6347 47.9599C79.6084 46.4223 80.8897 45.0897 82.4788 43.9621C79.8649 42.2708 78.5576 40.0925 78.5576 37.4274C78.5576 34.8648 79.839 32.6865 82.4018 30.8927C84.9645 29.0476 88.065 28.125 91.7044 28.125C95.292 28.125 98.3672 29.0476 100.93 30.8927C103.492 32.6865 104.773 34.8648 104.773 37.4274C104.773 39.8875 103.595 42.0145 101.237 43.8083C102.877 45.1922 104.133 46.576 105.004 47.9599L128.683 41.6558C130.682 41.0407 132.681 40.7332 134.679 40.7332C140.369 40.7332 145.263 42.7833 149.363 46.8835C153.464 50.9838 155.514 55.9041 155.514 61.6444C155.514 63.4894 155.232 65.2832 154.668 67.0258L146.596 111.309V121.994ZM91.6273 43.1165C86.6048 43.1165 84.0932 43.7828 84.0932 45.1153C84.0932 46.4479 86.6048 47.1142 91.6273 47.1142C96.5987 47.1142 99.0844 46.4479 99.0844 45.1153C99.0844 43.7828 96.5987 43.1165 91.6273 43.1165ZM68.7173 143.137C66.8211 143.137 65.8727 144.008 65.8727 145.75C65.8727 147.493 66.8211 148.364 68.7173 148.364H114.691C116.587 148.364 117.536 147.493 117.536 145.75C117.536 144.008 116.587 143.137 114.691 143.137H68.7173ZM129.452 103.774L133.987 75.2518C134.705 73.3044 135.064 71.3565 135.064 69.4091C135.064 65.8727 133.911 62.8487 131.604 60.3377C129.349 57.7749 126.608 56.4936 123.378 56.4936C121.79 56.4936 120.149 56.9036 118.458 57.7238L105.773 61.7979L104.159 84.708C114.358 88.0909 122.789 94.446 129.452 103.774ZM54.2639 103.006C61.1831 93.8824 69.6909 87.732 79.7878 84.5544L77.8658 61.875L65.2579 57.8003C63.4641 56.9801 61.7979 56.5701 60.2606 56.5701C57.0319 56.5701 54.2639 57.8514 51.9576 60.4142C49.6512 62.9258 48.498 65.9497 48.498 69.4862C48.498 71.28 48.8824 73.2274 49.6512 75.3289L54.2639 103.006ZM45.1153 110.001C43.3727 110.001 42.5014 110.95 42.5014 112.846C42.5014 114.793 43.3727 115.768 45.1153 115.768H138.293C140.035 115.768 140.907 114.793 140.907 112.846C140.907 110.95 140.035 110.001 138.293 110.001H45.1153ZM68.7173 127.453C66.8211 127.453 65.8727 128.324 65.8727 130.067C65.8727 131.809 66.8211 132.681 68.7173 132.681H114.691C116.587 132.681 117.536 131.809 117.536 130.067C117.536 128.324 116.587 127.453 114.691 127.453H68.7173Z" fill="#212121"/>
<path d="M91.6273 43.1165C86.6042 43.1165 84.0932 43.7828 84.0932 45.1153C84.0932 46.4479 86.6042 47.1142 91.6273 47.1142C96.5987 47.1142 99.0844 46.4479 99.0844 45.1153C99.0844 43.7828 96.5987 43.1165 91.6273 43.1165ZM68.7172 143.137C66.8205 143.137 65.8727 144.008 65.8727 145.751C65.8727 147.493 66.8205 148.364 68.7172 148.364H114.691C116.587 148.364 117.535 147.493 117.535 145.751C117.535 144.008 116.587 143.137 114.691 143.137H68.7172ZM45.1152 110.001C43.3726 110.001 42.5013 110.95 42.5013 112.846C42.5013 114.793 43.3726 115.768 45.1152 115.768H138.293C140.035 115.768 140.907 114.793 140.907 112.846C140.907 110.95 140.035 110.001 138.293 110.001H45.1152ZM68.7172 127.453C66.8205 127.453 65.8727 128.324 65.8727 130.067C65.8727 131.809 66.8205 132.681 68.7172 132.681H114.691C116.587 132.681 117.535 131.809 117.535 130.067C117.535 128.324 116.587 127.453 114.691 127.453H68.7172Z" fill="#6D9886"/>
</svg>
