<svg width="180" height="180" viewBox="0 0 180 180" fill="none" xmlns="http://www.w3.org/2000/svg">
<path d="M141.137 121.994V116.767H91.8579H42.5014V121.994C42.5014 125.326 44.1415 127.069 47.4217 127.222H91.8579H136.064C139.446 127.222 141.137 125.48 141.137 121.994ZM146.596 121.994C146.596 124.967 145.52 127.479 143.367 129.529C141.266 131.528 138.805 132.501 135.987 132.45H120.688V142.829C123.506 142.829 125.941 143.905 127.991 146.058C130.041 148.159 131.066 150.645 131.066 153.515V161.203H52.342V153.515C52.342 150.645 53.3414 148.159 55.3403 146.058C57.3902 143.957 59.8506 142.88 62.7204 142.829V132.45H47.4217C44.5003 132.45 42.0401 131.451 40.0413 129.452C38.0424 127.402 37.043 124.967 37.043 122.149L36.9661 111.309L28.9707 67.0258C28.4069 65.2832 28.125 63.4894 28.125 61.6444C28.125 55.9041 30.1495 50.9838 34.1985 46.8835C38.2987 42.7833 43.219 40.7332 48.9593 40.7332C50.9069 40.7332 52.9058 41.0407 54.9559 41.6558L78.6347 47.9599C79.6084 46.4223 80.8897 45.0897 82.4788 43.9621C79.8649 42.2708 78.5576 40.0925 78.5576 37.4274C78.5576 34.8648 79.839 32.6865 82.4018 30.8927C84.9645 29.0476 88.065 28.125 91.7044 28.125C95.292 28.125 98.3672 29.0476 100.93 30.8927C103.492 32.6865 104.773 34.8648 104.773 37.4274C104.773 39.8875 103.595 42.0145 101.237 43.8083C102.877 45.1922 104.133 46.576 105.004 47.9599L128.683 41.6558C130.682 41.0407 132.681 40.7332 134.679 40.7332C140.369 40.7332 145.263 42.7833 149.363 46.8835C153.464 50.9838 155.514 55.9041 155.514 61.6444C155.514 63.4894 155.232 65.2832 154.668 67.0258L146.596 111.309V121.994ZM91.7044 32.8146C87.3478 32.8146 85.1693 34.3522 85.1693 37.4274C85.1693 40.5538 87.3478 42.117 91.7044 42.117C96.0092 42.117 98.1619 40.5538 98.1619 37.4274C98.1619 34.3522 96.0092 32.8146 91.7044 32.8146ZM141.137 111.309L149.44 66.4875C149.953 64.899 150.209 63.2846 150.209 61.6444C150.209 57.339 148.697 53.6745 145.673 50.6507C142.649 47.5755 138.985 46.0379 134.679 46.0379C133.193 46.0379 131.732 46.2685 130.297 46.7298L107.31 53.1107C107.618 54.4433 107.746 55.7247 107.695 56.9548L117.305 54.5714C119.304 53.9564 121.225 53.6489 123.071 53.6489C127.376 53.6489 131.092 55.2121 134.218 58.3386C137.345 61.4137 138.908 65.1296 138.908 69.4862C138.908 71.5359 138.498 73.6121 137.678 75.7131L131.297 111.309H141.137ZM91.8579 111.309H97.3929L102.006 59.6452C101.955 59.0816 101.955 58.5951 102.006 58.185C102.057 57.7237 102.083 57.2625 102.083 56.8007C102.083 54.0333 101.083 51.65 99.0844 49.6512C97.0858 47.6524 94.6766 46.6529 91.8579 46.6529C88.9363 46.6529 86.4765 47.6524 84.4774 49.6512C82.53 51.65 81.5563 54.0333 81.5563 56.8007C81.5563 57.2625 81.5563 57.7237 81.5563 58.185C81.6075 58.5951 81.6328 59.0816 81.6328 59.6452L86.2459 111.309H91.8579ZM78.8653 87.2449C69.2809 90.2177 61.7726 95.958 56.3394 104.466L57.6467 111.309H80.7103L78.8653 87.2449ZM127.222 104.773C121.892 96.3169 114.512 90.5254 105.081 87.399L102.929 111.309H125.992L127.222 104.773ZM55.1865 97.1623C61.3367 89.7311 69.0502 84.6315 78.327 81.8634L76.6356 63.1817L65.1038 59.7994C63.5153 59.1328 62.0286 58.7998 60.6448 58.7998C57.672 58.7998 55.1352 59.8506 53.0338 61.9521C50.9838 64.053 49.9587 66.5646 49.9587 69.4862C49.9587 70.9723 50.2918 72.5867 50.9581 74.3293L55.1865 97.1623ZM128.53 97.8548L132.681 74.3293C133.347 72.5867 133.68 70.9723 133.68 69.4862C133.68 66.5646 132.63 64.053 130.528 61.9521C128.478 59.8506 125.992 58.7998 123.071 58.7998C121.584 58.7998 120.072 59.1328 118.535 59.7994L107.003 63.1817L105.542 82.0941C114.87 84.9645 122.533 90.2177 128.53 97.8548ZM42.5014 111.309H52.342L45.961 75.7131C45.141 73.6121 44.7309 71.5359 44.7309 69.4862C44.7309 65.1296 46.2685 61.4137 49.3437 58.3386C52.4701 55.2121 56.2372 53.6489 60.6448 53.6489C62.4386 53.6489 64.3354 53.9564 66.3339 54.5714L75.9437 56.9548C75.8413 55.7247 75.9696 54.4433 76.3284 53.1107L53.3414 46.7298C51.8551 46.2685 50.3944 46.0379 48.9593 46.0379C44.654 46.0379 40.9894 47.5755 37.9655 50.6507C34.9416 53.6745 33.4297 57.339 33.4297 61.6444C33.4297 63.2846 33.6859 64.899 34.1985 66.4875L42.5014 111.309ZM68.1789 132.45V142.829H115.229V132.45H68.1789ZM57.5696 153.515V156.052H125.839V153.515C125.839 149.876 124.122 148.057 120.688 148.057H62.7204C59.2869 148.057 57.5696 149.876 57.5696 153.515Z" fill="#273A32"/>
<path d="M141.137 121.994V116.767H91.8579H42.5016V121.994C42.5016 125.326 44.1417 127.069 47.4219 127.222H91.8579H136.064C139.447 127.222 141.137 125.48 141.137 121.994ZM91.7044 32.8146C87.3478 32.8146 85.1698 34.3522 85.1698 37.4274C85.1698 40.5538 87.3478 42.117 91.7044 42.117C96.0097 42.117 98.1624 40.5538 98.1624 37.4274C98.1624 34.3522 96.0097 32.8146 91.7044 32.8146ZM141.137 111.308L149.44 66.4875C149.953 64.899 150.209 63.2846 150.209 61.6444C150.209 57.339 148.697 53.6745 145.673 50.6506C142.649 47.5754 138.985 46.0379 134.68 46.0379C133.193 46.0379 131.733 46.2685 130.298 46.7297L107.311 53.1107C107.618 54.4433 107.746 55.7246 107.695 56.9548L117.305 54.5714C119.304 53.9564 121.226 53.6489 123.071 53.6489C127.376 53.6489 131.092 55.2121 134.219 58.3386C137.345 61.4137 138.908 65.1296 138.908 69.4862C138.908 71.5359 138.498 73.6121 137.678 75.7131L131.297 111.308H141.137ZM91.8579 111.308H97.3935L102.006 59.6452C101.955 59.0816 101.955 58.5951 102.006 58.185C102.057 57.7238 102.083 57.2619 102.083 56.8007C102.083 54.0333 101.084 51.65 99.0849 49.6512C97.0858 47.6523 94.6772 46.6529 91.8579 46.6529C88.9369 46.6529 86.4765 47.6523 84.4779 49.6512C82.53 51.65 81.5563 54.0333 81.5563 56.8007C81.5563 57.2619 81.5563 57.7238 81.5563 58.185C81.6075 58.5951 81.6334 59.0816 81.6334 59.6452L86.2459 111.308H91.8579ZM78.8653 87.2449C69.2814 90.2177 61.7726 95.958 56.34 104.466L57.6467 111.308H80.7109L78.8653 87.2449ZM127.222 104.774C121.892 96.3169 114.512 90.5254 105.081 87.399L102.929 111.308H125.993L127.222 104.774ZM42.5016 111.308H52.3421L45.9611 75.7131C45.1411 73.6121 44.7311 71.5359 44.7311 69.4862C44.7311 65.1296 46.2687 61.4137 49.3438 58.3386C52.4703 55.2121 56.2373 53.6489 60.6454 53.6489C62.4392 53.6489 64.3354 53.9564 66.3339 54.5714L75.9442 56.9548C75.8413 55.7246 75.9696 54.4433 76.3284 53.1107L53.3416 46.7297C51.8552 46.2685 50.3945 46.0379 48.9594 46.0379C44.6542 46.0379 40.9897 47.5754 37.9657 50.6506C34.9418 53.6745 33.4298 57.339 33.4298 61.6444C33.4298 63.2846 33.6861 64.899 34.1987 66.4875L42.5016 111.308ZM68.1795 132.45V142.829H115.229V132.45H68.1795ZM57.5702 153.515V156.052H125.839V153.515C125.839 149.876 124.122 148.057 120.688 148.057H62.721C59.2869 148.057 57.5702 149.876 57.5702 153.515Z" fill="#C7BAA6"/>
</svg>
