<svg width="180" height="180" viewBox="0 0 180 180" fill="none" xmlns="http://www.w3.org/2000/svg">
<path d="M122.853 155.591C122.853 152.106 121.111 150.363 117.625 150.363H65.1937C61.7085 150.363 59.9659 152.106 59.9659 155.591V158.281H122.853V155.591ZM117.472 145.135C120.393 145.135 122.879 146.16 124.929 148.21C127.03 150.209 128.081 152.669 128.081 155.591V163.509H54.8151V155.591C54.8151 152.72 55.7377 150.261 57.5826 148.21C59.4281 146.16 61.9138 145.135 65.0402 145.135C65.8091 144.52 66.1933 144.11 66.1933 143.905C66.1933 138.678 64.6813 134.193 61.6573 130.451C58.6845 131.784 55.6095 132.168 52.4319 131.605C48.1266 130.836 44.6926 128.657 42.13 125.07C39.6186 121.482 38.8242 117.51 39.7467 113.154L45.0515 71.0235C43.6164 69.0249 42.4632 67.1799 41.5919 65.4885C42.4119 56.1603 44.9746 47.3448 49.2798 39.0418C48.8185 34.6341 48.8185 30.9952 49.2798 28.125C57.4802 32.789 65.7832 35.7104 74.1887 36.8893C76.905 37.453 79.6213 38.1706 82.3376 39.0418C86.1306 38.8369 90.2306 39.1187 94.6384 39.8875C99.1491 40.7076 103.531 41.9889 107.785 43.7315C112.039 45.4228 116.472 47.4986 121.085 49.9587C128.414 51.4963 133.232 55.289 135.538 61.3367C137.024 65.6421 136.999 69.9216 135.461 74.1758C140.023 77.7634 142.303 82.4529 142.303 88.2444C142.303 92.9087 140.612 97.4188 137.23 101.775C139.434 109.156 138.485 115.28 134.385 120.149C131.618 125.07 128.158 129.401 124.006 133.142C120.316 136.064 118.138 140.061 117.471 145.135H117.472ZM122.623 117.92C122.366 119.355 121.315 119.816 119.47 119.304C117.728 118.894 117.087 117.817 117.548 116.075C117.907 115.05 118.215 114.025 118.471 113C118.727 111.923 119.009 110.924 119.317 110.001C119.778 108.618 120.957 108.105 122.853 108.464C124.75 108.976 125.364 109.899 124.698 111.232C123.878 113.999 123.186 116.229 122.623 117.92ZM122.238 96.2398C122.238 95.2661 122.187 94.3436 122.084 93.4723C122.033 92.5498 122.007 91.5502 122.007 90.4742C122.315 88.6804 123.392 87.8603 125.237 88.0138C127.03 88.4239 127.748 89.3211 127.389 90.7048C127.492 92.2933 127.492 94.4972 127.389 97.3164C127.184 98.649 126.21 99.2638 124.468 99.1614C122.776 99.1103 122.033 98.1366 122.238 96.2398ZM68.6531 54.3408C70.4987 55.4171 70.0374 58.4156 67.2694 63.3358C64.3995 68.256 62.0162 70.1781 60.12 69.1014C58.2232 68.0254 58.7104 65.0273 61.5802 60.1065C64.3995 55.1352 66.7569 53.2133 68.6531 54.3408ZM112.321 145.135C113.346 136.422 117.318 130.041 124.237 125.992C118.24 127.171 112.987 125.967 108.477 122.379C106.888 122.071 106.504 120.995 107.324 119.15C108.143 117.51 109.451 117.1 111.244 117.92C114.166 120.329 117.446 121.38 121.085 121.072C124.724 120.764 127.722 119.227 130.08 116.459C132.899 112.974 133.719 109.079 132.54 104.773C129.465 106.004 126.595 106.618 123.929 106.618C120.342 106.618 116.934 105.568 113.705 103.467C111.808 102.596 111.219 101.339 111.936 99.6997C112.756 98.0083 114.063 97.6236 115.857 98.5466C118.369 100.443 121.06 101.391 123.929 101.391C127.517 101.391 130.592 100.11 133.155 97.5471C135.769 94.9843 137.076 91.8832 137.076 88.2444C137.076 84.6568 135.718 81.5304 133.001 78.8653C130.439 81.7352 127.62 83.7343 124.545 84.8621C121.06 86.0918 117.497 86.2712 113.858 85.3999C111.757 85.0928 110.86 84.0161 111.167 82.1711C111.526 80.4797 112.628 79.7878 114.473 80.0955C117.241 81.018 120.009 80.9668 122.776 79.9419C126.159 78.7117 128.619 76.4567 130.157 73.1762C131.694 69.8962 131.848 66.5393 130.618 63.1052C129.337 59.6711 126.697 56.9289 122.699 54.8791C123.315 56.8266 123.827 59.0304 124.237 61.4908C123.929 67.5382 122.187 72.2025 119.009 75.4824C116.498 77.994 113.346 79.7113 109.553 80.6338C107.606 81.351 106.324 80.8133 105.709 79.0189C105.043 77.2768 105.684 76.0978 107.631 75.4824C110.655 75.1241 113.218 73.8939 115.319 71.7924C117.83 69.2809 119.086 66.2057 119.086 62.5669C119.137 58.9281 117.958 55.8785 115.55 53.4184C109.399 49.3694 102.788 46.6017 95.715 45.1154C102.89 49.3181 109.143 54.6484 114.473 61.1061C115.806 62.2851 115.883 63.5406 114.704 64.8731C113.525 66.3598 112.218 66.4363 110.783 65.1038C100.943 53.2646 88.5651 45.6536 73.6504 42.2709C67.7053 41.5533 62.0415 40.0157 56.6601 37.6581C55.3788 39.2982 54.2001 41.1946 53.1237 43.3472C50.0486 49.3437 47.8703 55.8785 46.589 62.9516C47.2553 64.4377 48.5622 66.6157 50.5098 69.4862L44.8208 113.999C44.257 116.921 44.7952 119.612 46.4353 122.071C48.1266 124.481 50.433 125.941 53.3544 126.454C56.2246 126.966 58.8639 126.377 61.2731 124.685C63.7329 122.994 65.2196 120.688 65.7321 117.766C65.9368 116.331 65.5267 114.819 64.5019 113.231C63.477 111.59 63.5023 110.232 64.5789 109.156C70.524 103.21 76.0596 97.1882 81.1845 91.089C86.31 84.9386 89.9235 77.9428 92.0244 70.101C92.4345 68.2048 93.5364 67.4106 95.3302 67.7177C97.1246 68.0254 97.8165 69.2044 97.4064 71.2541C95.2537 79.1983 91.7426 86.3483 86.8736 92.7034C82.0558 99.0591 76.7256 105.081 70.8829 110.77C69.9604 111.693 69.7809 112.923 70.3446 114.46C70.9087 115.947 71.0882 117.356 70.8829 118.689C70.2681 122.225 68.6537 125.173 66.0397 127.53C69.4221 132.245 71.1135 137.704 71.1135 143.906C71.1135 144.469 70.9599 144.879 70.6522 145.135H112.321Z" fill="#273A32"/>
<path d="M122.853 155.591C122.853 152.106 121.111 150.363 117.626 150.363H65.1938C61.7091 150.363 59.9664 152.106 59.9664 155.591V158.282H122.853V155.591ZM122.623 117.92C122.367 119.355 121.316 119.816 119.471 119.304C117.728 118.894 117.088 117.817 117.549 116.075C117.907 115.05 118.215 114.025 118.472 113C118.727 111.923 119.009 110.924 119.317 110.001C119.778 108.618 120.957 108.105 122.853 108.464C124.75 108.976 125.365 109.899 124.698 111.232C123.878 113.999 123.186 116.229 122.623 117.92ZM122.239 96.2398C122.239 95.2661 122.187 94.3436 122.084 93.4723C122.033 92.5498 122.008 91.5502 122.008 90.4742C122.315 88.6804 123.392 87.8602 125.237 88.0138C127.031 88.4239 127.748 89.3211 127.389 90.7048C127.492 92.2933 127.492 94.4972 127.389 97.3164C127.185 98.649 126.21 99.2638 124.468 99.1614C122.777 99.1103 122.033 98.1366 122.239 96.2398ZM68.6537 54.3409C70.4987 55.4172 70.0374 58.4156 67.2699 63.3358C64.3995 68.256 62.0162 70.1781 60.12 69.1014C58.2238 68.0254 58.7104 65.0273 61.5808 60.1071C64.3995 55.1353 66.7569 53.2133 68.6537 54.3409ZM112.321 145.135C113.346 136.422 117.318 130.042 124.237 125.992C118.241 127.171 112.987 125.967 108.477 122.379C106.888 122.071 106.504 120.995 107.324 119.15C108.144 117.51 109.451 117.1 111.245 117.92C114.166 120.329 117.446 121.38 121.085 121.072C124.724 120.764 127.722 119.227 130.08 116.459C132.899 112.974 133.719 109.079 132.54 104.773C129.465 106.004 126.595 106.618 123.93 106.618C120.342 106.618 116.934 105.568 113.705 103.467C111.809 102.595 111.219 101.339 111.936 99.6997C112.757 98.0083 114.064 97.6241 115.858 98.5466C118.369 100.443 121.06 101.391 123.93 101.391C127.518 101.391 130.593 100.11 133.155 97.5471C135.769 94.9843 137.076 91.8838 137.076 88.2444C137.076 84.6568 135.718 81.5304 133.001 78.8653C130.439 81.7358 127.62 83.7343 124.545 84.8621C121.06 86.0918 117.497 86.2712 113.858 85.3999C111.757 85.0928 110.86 84.0161 111.168 82.1711C111.526 80.4797 112.628 79.7878 114.474 80.0955C117.241 81.018 120.009 80.9668 122.776 79.9419C126.159 78.7118 128.62 76.4567 130.157 73.1762C131.695 69.8963 131.848 66.5393 130.618 63.1052C129.337 59.6711 126.698 56.9289 122.7 54.8791C123.315 56.8266 123.827 59.0304 124.237 61.4908C123.93 67.5388 122.187 72.2025 119.009 75.483C116.498 77.994 113.346 79.7113 109.553 80.6338C107.606 81.351 106.324 80.8133 105.71 79.0194C105.043 77.2768 105.684 76.0978 107.632 75.483C110.655 75.1241 113.218 73.8939 115.319 71.7924C117.831 69.2809 119.086 66.2057 119.086 62.5669C119.138 58.9281 117.959 55.8785 115.55 53.4184C109.4 49.3694 102.788 46.6017 95.715 45.1154C102.89 49.3181 109.144 54.6485 114.474 61.1061C115.806 62.2851 115.883 63.5406 114.704 64.8731C113.525 66.3598 112.219 66.4369 110.783 65.1038C100.943 53.2646 88.5651 45.6536 73.6509 42.2709C67.7053 41.5533 62.0421 40.0157 56.6606 37.6581C55.3791 39.2982 54.2003 41.1946 53.124 43.3472C50.0488 49.3438 47.8706 55.8785 46.5892 62.9516C47.2555 64.4377 48.5625 66.6158 50.5101 69.4862L44.821 113.999C44.2572 116.921 44.7954 119.612 46.4354 122.071C48.1268 124.481 50.4332 125.941 53.3546 126.454C56.2247 126.966 58.8645 126.377 61.2731 124.685C63.7335 122.994 65.2196 120.688 65.7321 117.766C65.9374 116.331 65.5273 114.819 64.5019 113.231C63.477 111.59 63.5029 110.232 64.5789 109.156C70.5246 103.21 76.0596 97.1882 81.1851 91.089C86.31 84.9386 89.9235 77.9428 92.025 70.101C92.4351 68.2048 93.537 67.4106 95.3308 67.7177C97.1246 68.0254 97.8165 69.2044 97.4064 71.2541C95.2538 79.1983 91.7432 86.3482 86.8742 92.7039C82.0564 99.0591 76.7261 105.081 70.8829 110.77C69.9604 111.693 69.7809 112.923 70.3451 114.46C70.9088 115.947 71.0882 117.356 70.8829 118.689C70.2681 122.225 68.6537 125.173 66.0398 127.53C69.4226 132.245 71.1135 137.704 71.1135 143.906C71.1135 144.469 70.9599 144.879 70.6523 145.135H112.321Z" fill="#C7BAA6"/>
</svg>
