<svg width="50" height="50" viewBox="0 0 50 50" fill="none" xmlns="http://www.w3.org/2000/svg">
<path d="M28.3884 9.06291C27.599 8.66137 26.5871 8.43103 25.5137 8.40726L25.5075 8.40498L25.3299 8.405C24.1889 8.40508 23.1063 8.63822 22.2722 9.06257C21.4931 9.45896 20.647 10.1877 20.647 11.2788V11.5475L21.8367 13.6017C15.2376 19.5647 13.2551 25.3974 13.2118 30.1465C13.1777 33.8813 14.3436 36.8518 15.2436 38.5835C14.5672 38.7777 13.9471 39.0208 13.4706 39.3321C12.5646 39.924 11.8729 40.5876 11.4982 41.5795C11.1439 42.5177 11.1236 43.6269 11.236 44.9878L11.3118 45.9054H38.6894L38.7652 44.9877C38.8776 43.6269 38.8573 42.5176 38.5029 41.5795C38.1283 40.5876 37.4366 39.924 36.5306 39.3321C36.188 39.1083 35.773 38.9224 35.3231 38.7655C36.86 35.8895 39.3778 29.1482 34.989 21.1562L34.2006 19.7204L29.0668 27.3221L26.8044 25.8799L32.4991 17.4471L32.0086 16.8689C31.0907 15.7869 30.0348 14.6959 28.8239 13.6015L30.0136 11.5478L30.0136 11.2791C30.0137 10.1878 29.1675 9.45924 28.3884 9.06291Z" fill="#222222"/>
<path d="M21.6154 11.3425C21.6154 10.3075 23.2645 9.46875 25.2989 9.46875C27.3334 9.46905 28.9823 10.3074 28.9823 11.3424L27.5169 13.8716C28.9556 15.1191 30.1783 16.358 31.2143 17.5792L25.8053 25.5892C25.5639 25.9467 25.6657 26.4231 26.0336 26.6576L28.6551 28.3291C29.023 28.5636 29.5132 28.4647 29.7546 28.1073L34.0808 21.7008C38.8958 30.4694 34.9304 37.6486 33.8134 39.3731C34.7155 39.5814 35.4831 39.8424 35.9834 40.1693C37.6061 41.2294 37.989 42.2331 37.7683 44.9054H12.2323C12.0115 42.2331 12.3943 41.2295 14.017 40.1693C14.612 39.7805 15.5848 39.4851 16.7121 39.2605C15.1563 36.7974 9.41575 25.7214 23.0807 13.8718L21.6154 11.3425Z" fill="url(#paint0_linear_3_180)"/>
<path d="M35.9834 40.1692C35.4831 39.8423 34.7155 39.5814 33.8134 39.3731C31.017 38.7557 23.6817 37.8689 16.7121 39.2605C15.5848 39.4851 14.612 39.7805 14.017 40.1692C12.3943 41.2294 12.0115 42.2331 12.2323 44.9054H37.7683C37.989 42.2331 37.6061 41.2293 35.9834 40.1692Z" fill="#FF9900"/>
<path fill-rule="evenodd" clip-rule="evenodd" d="M34.0385 38.3987C34.9671 38.6132 35.8771 38.9053 36.5304 39.3321C37.4364 39.924 38.128 40.5875 38.5027 41.5794C38.857 42.5176 38.8773 43.6269 38.7649 44.9877C38.7221 45.5063 38.2887 45.9054 37.7683 45.9054H12.2323C11.712 45.9054 11.2786 45.5063 11.2357 44.9877C11.1233 43.6269 11.1436 42.5177 11.4978 41.5795C11.8724 40.5876 12.564 39.924 13.47 39.3321C14.2373 38.8308 15.3747 38.5073 16.5163 38.2798M35.9834 40.1693C35.4831 39.8424 34.7155 39.5814 33.8134 39.3731C31.017 38.7557 23.6817 37.8689 16.7121 39.2605C15.5848 39.4851 14.612 39.7805 14.017 40.1693C12.3943 41.2295 12.0115 42.2331 12.2323 44.9054H37.7683C37.989 42.2331 37.6061 41.2294 35.9834 40.1693ZM34.0385 38.3987L34.029 38.3966L34.0385 38.3987ZM34.029 38.3966C31.1412 37.759 23.6598 36.8536 16.5163 38.2798L34.029 38.3966Z" fill="#222222"/>
<path fill-rule="evenodd" clip-rule="evenodd" d="M15.4501 34.27C15.2384 34.24 12.6775 24.9862 21.5448 16.4301C19.3209 18.2386 14.116 28.937 15.4501 34.27Z" fill="url(#paint1_linear_3_180)"/>
<path fill-rule="evenodd" clip-rule="evenodd" d="M24.0201 14.0701L22.4078 11.2175C22.4078 11.2175 22.6559 10.7297 24.0449 10.3577C24.0369 10.3747 22.9783 11.2671 22.9783 11.2671L24.0201 14.0701Z" fill="url(#paint2_linear_3_180)"/>
<path opacity="0.5" fill-rule="evenodd" clip-rule="evenodd" d="M23.6 39.13C20.3666 39.1637 17.8142 39.5111 15.8733 40.0777C22.0201 39.64 28.1293 39.5809 34.1823 40.0777C31.9642 39.4302 28.947 39.0691 25.0278 39.1352C24.5379 39.1272 24.0619 39.1252 23.6 39.1302V39.13Z" fill="url(#paint3_linear_3_180)"/>
<g opacity="0.2">
<path d="M23.1816 9.78088C23.7808 9.56618 24.5101 9.43872 25.2988 9.43872C27.3332 9.43902 28.9824 10.2776 28.9824 11.3126L27.5174 13.8417C28.956 15.0891 30.1788 16.3281 31.2148 17.5493C27.9148 22.4359 25.6748 25.983 25.6748 25.983C25.6748 25.983 25.2586 25.2006 28.7914 17.3365L25.6552 13.9329C26.4836 12.847 27.5667 11.1924 27.5667 11.1924C27.5667 11.1924 25.6304 10.2355 23.1816 9.78088Z" fill="black"/>
<path d="M32.7318 23.6677L34.0812 21.6708C38.921 30.4837 34.8897 37.6925 33.7968 39.3692C32.6342 39.1021 31.2507 38.9219 29.9289 38.8005C31.3633 36.4765 34.6481 30.1653 32.7318 23.6677Z" fill="black"/>
</g>
<defs>
<linearGradient id="paint0_linear_3_180" x1="11.65" y1="42.52" x2="38.5016" y2="42.52" gradientUnits="userSpaceOnUse">
<stop stop-color="#F5F5F5"/>
<stop offset="1" stop-color="#7E7E7E"/>
</linearGradient>
<linearGradient id="paint1_linear_3_180" x1="14.9501" y1="25.37" x2="21.5501" y2="25.37" gradientUnits="userSpaceOnUse">
<stop stop-color="white"/>
<stop offset="1" stop-color="white" stop-opacity="0"/>
</linearGradient>
<linearGradient id="paint2_linear_3_180" x1="22.4101" y1="12.1701" x2="24.0501" y2="12.1701" gradientUnits="userSpaceOnUse">
<stop stop-color="white"/>
<stop offset="1" stop-color="white" stop-opacity="0"/>
</linearGradient>
<linearGradient id="paint3_linear_3_180" x1="14.5549" y1="39.8322" x2="35.4831" y2="39.8322" gradientUnits="userSpaceOnUse">
<stop stop-color="white"/>
<stop offset="1" stop-color="white" stop-opacity="0"/>
</linearGradient>
</defs>
</svg>
