<svg width="50" height="50" viewBox="0 0 50 50" fill="none" xmlns="http://www.w3.org/2000/svg">
<path fill-rule="evenodd" clip-rule="evenodd" d="M25.0176 6.05033C25.7259 6.05209 26.5014 6.30615 27.1089 6.69514C27.6818 7.06194 28.3868 7.7414 28.3868 8.71692V11.5234H32.4724C33.4655 11.4467 34.1944 12.1085 34.5923 12.6642C35.0159 13.2558 35.3037 14.0359 35.3037 14.7408C35.3037 15.4527 35.0126 16.2102 34.5872 16.7886C34.1702 17.3556 33.4614 17.9588 32.5172 17.9588H28.5871L28.747 18.8296C32.2186 19.1701 35.3542 20.0088 37.4943 21.4085C38.6536 22.1667 39.579 23.1285 40.058 24.322C40.545 25.5358 40.5247 26.8767 39.9884 28.283C39.9751 28.3177 39.9599 28.3517 39.9429 28.3848L35.0728 37.8337C34.9504 38.099 34.8251 38.3529 34.6951 38.5954C35.3567 38.7874 35.9627 39.0268 36.4301 39.3322C37.3361 39.9241 38.0277 40.5876 38.4023 41.5795C38.7567 42.5177 38.777 43.6269 38.6646 44.9877C38.6218 45.5063 38.1884 45.9054 37.668 45.9054H12.132C11.6117 45.9054 11.1783 45.5064 11.1354 44.9878C11.023 43.6269 11.0433 42.5177 11.3977 41.5795C11.7723 40.5876 12.464 39.9241 13.37 39.3322C13.88 38.999 14.5584 38.7439 15.2968 38.543C15.1767 38.3164 15.0605 38.08 14.947 37.8337L10.0768 28.3847C10.0598 28.3517 10.0446 28.3177 10.0314 28.2829C9.49506 26.8767 9.47475 25.5357 9.96187 24.3219C10.4408 23.1284 11.3664 22.1667 12.5258 21.4084C14.666 20.0087 17.8019 19.17 21.2738 18.8296L21.4336 17.9588H17.5485C16.555 18.0358 15.8261 17.3733 15.4284 16.8177C15.0048 16.2259 14.717 15.4456 14.717 14.7408C14.717 14.0288 15.0082 13.2714 15.4336 12.6931C15.8508 12.1262 16.5596 11.5234 17.5035 11.5234H21.6339V8.7169C21.6339 7.74153 22.3386 7.06206 22.9115 6.69517C23.5211 6.30477 24.2997 6.0503 25.01 6.0503C25.0125 6.0503 25.0151 6.05031 25.0176 6.05033Z" fill="#222222"/>
<path d="M25.01 7.04993C24.0203 7.04993 22.6337 7.7933 22.6337 8.7168V12.5229H17.5037C16.514 12.5229 15.7173 13.8169 15.7173 14.7405C15.7173 15.6639 16.5205 17.064 17.5037 16.9584H22.6337L22.1202 19.7571C14.7068 20.3207 9.12579 23.1012 10.966 27.9265L15.8463 37.3951C16.1765 38.1135 16.5125 38.7137 16.8886 39.2073C15.6447 39.4378 14.5602 39.749 13.917 40.1692C12.2943 41.2294 11.9116 42.2331 12.1324 44.9054H37.6684C37.8891 42.2331 37.5062 41.2293 35.8835 40.1692C35.2737 39.7708 34.2669 39.4703 33.1037 39.2437C33.4911 38.7432 33.8356 38.1312 34.1739 37.3951L39.0542 27.9265C40.8944 23.1012 35.3133 20.3207 27.9 19.7571L27.3864 16.9584H32.517C33.5068 16.9584 34.3034 15.6639 34.3034 14.7405C34.3034 13.8171 33.5002 12.4176 32.517 12.5229H27.3864V8.7168C27.3864 7.7933 25.9997 7.04993 25.01 7.04993Z" fill="url(#paint0_linear_3_204)"/>
<path d="M16.8886 39.2073C15.6447 39.4378 14.5602 39.749 13.917 40.1692C12.2943 41.2294 11.9116 42.2331 12.1324 44.9054H37.6684C37.8891 42.2331 37.5062 41.2293 35.8835 40.1692C35.2737 39.7708 34.2669 39.4703 33.1037 39.2437C30.4948 38.8007 23.5995 38.1731 16.8886 39.2073Z" fill="#0094FF"/>
<path fill-rule="evenodd" clip-rule="evenodd" d="M16.7064 38.224C16.7163 38.2222 16.7263 38.2205 16.7363 38.219C23.5795 37.1644 30.5864 37.8019 33.2711 38.2578L33.2949 38.2622C34.4705 38.4912 35.6454 38.8191 36.4304 39.332C37.3364 39.9239 38.0281 40.5875 38.4027 41.5794C38.757 42.5176 38.7774 43.6269 38.665 44.9877C38.6221 45.5063 38.1887 45.9054 37.6684 45.9054H12.1324C11.612 45.9054 11.1786 45.5063 11.1358 44.9877C11.0233 43.6269 11.0436 42.5177 11.3979 41.5795C11.7724 40.5876 12.464 39.924 13.3701 39.332L13.3701 39.332C14.1946 38.7934 15.4548 38.456 16.7064 38.224ZM33.1037 39.2437C34.2669 39.4703 35.2737 39.7708 35.8835 40.1692C37.5062 41.2293 37.8891 42.2331 37.6684 44.9054H12.1324C11.9116 42.2331 12.2943 41.2294 13.917 40.1692C14.5602 39.749 15.6447 39.4378 16.8886 39.2073C23.5995 38.1731 30.4948 38.8007 33.1037 39.2437Z" fill="#222222"/>
<path fill-rule="evenodd" clip-rule="evenodd" d="M17.31 16.25C17.1932 16.214 16.4547 15.6052 16.4874 14.807C16.52 14.0088 16.987 13.4726 17.4723 13.3206H18.2791C16.789 13.9262 16.3985 14.9918 17.31 16.25Z" fill="url(#paint1_linear_3_204)"/>
<path fill-rule="evenodd" clip-rule="evenodd" d="M16.89 38.5499L11.64 27.474C11.5382 27.2518 10.5795 25.0455 13.1717 23.0688C14.4522 22.1326 16.5216 21.2894 20.6148 20.6631C16.5496 21.6033 11.304 24.1403 12.4669 27.4575C13.6298 30.7747 16.8902 38.5504 16.8902 38.5504L16.89 38.5499Z" fill="url(#paint2_linear_3_204)"/>
<path fill-rule="evenodd" clip-rule="evenodd" d="M23.39 12.65V8.68945C23.39 8.68945 23.6546 8.07759 24.7543 7.83789C23.4555 8.15099 23.4067 12.5775 23.39 12.65Z" fill="url(#paint3_linear_3_204)"/>
<path opacity="0.5" fill-rule="evenodd" clip-rule="evenodd" d="M23.5 39.12C20.2666 39.1537 17.7142 39.5011 15.7733 40.0677C21.9201 39.63 28.0294 39.5708 34.0824 40.0677C31.8643 39.4202 28.8471 39.059 24.9279 39.1251C24.438 39.1171 23.9619 39.1152 23.5 39.1202V39.12Z" fill="url(#paint4_linear_3_204)"/>
<path opacity="0.2" d="M32.9039 39.2058C33.242 38.7375 33.549 38.1792 33.8511 37.5219L39.0489 27.9782C40.1018 19.9988 29.9183 19.7935 28.7611 19.8502C38.3259 22.6044 36.388 26.335 32.9367 32.9794C32.2187 34.3616 31.4352 35.87 30.6761 37.5219C30.4538 38.0055 30.2289 38.4355 29.9909 38.8156C30.9725 38.909 31.9818 39.0353 32.9039 39.2058Z" fill="black"/>
<defs>
<linearGradient id="paint0_linear_3_204" x1="11.5501" y1="42.52" x2="38.4017" y2="42.52" gradientUnits="userSpaceOnUse">
<stop stop-color="#F5F5F5"/>
<stop offset="1" stop-color="#7E7E7E"/>
</linearGradient>
<linearGradient id="paint1_linear_3_204" x1="16.49" y1="14.75" x2="18.28" y2="14.75" gradientUnits="userSpaceOnUse">
<stop stop-color="white"/>
<stop offset="1" stop-color="white" stop-opacity="0"/>
</linearGradient>
<linearGradient id="paint2_linear_3_204" x1="11.38" y1="29.65" x2="20.61" y2="29.65" gradientUnits="userSpaceOnUse">
<stop stop-color="white"/>
<stop offset="1" stop-color="white" stop-opacity="0"/>
</linearGradient>
<linearGradient id="paint3_linear_3_204" x1="23.39" y1="10.25" x2="24.75" y2="10.25" gradientUnits="userSpaceOnUse">
<stop stop-color="white"/>
<stop offset="1" stop-color="white" stop-opacity="0"/>
</linearGradient>
<linearGradient id="paint4_linear_3_204" x1="14.4579" y1="39.8302" x2="35.3863" y2="39.8302" gradientUnits="userSpaceOnUse">
<stop stop-color="white"/>
<stop offset="1" stop-color="white" stop-opacity="0"/>
</linearGradient>
</defs>
</svg>
