<svg width="50" height="50" viewBox="0 0 50 50" fill="none" xmlns="http://www.w3.org/2000/svg">
<path d="M15.1714 29.8468C15.239 29.8397 15.2944 29.8321 15.3364 29.8256C15.5061 29.791 15.7491 29.6978 15.8795 29.5839C17.0899 28.5267 18.2142 28.0877 19.4921 27.7389C19.8098 27.6522 20.1481 27.5691 20.5048 27.4815C21.0881 27.3383 21.7204 27.183 22.3916 26.9801C22.2895 27.114 22.1703 27.2587 22.0329 27.4147C21.4126 28.1188 20.5811 28.8812 19.647 29.7376C19.2863 30.0683 18.9102 30.4131 18.5251 30.7739C17.1911 32.024 15.7837 33.439 14.8482 34.946C14.0637 36.2098 13.5488 37.6431 13.7776 39.1504C13.6711 39.2072 13.5681 39.2675 13.4702 39.3315C12.5642 39.9235 11.8725 40.587 11.4979 41.5789C11.1435 42.517 11.1232 43.6263 11.2356 44.9871C11.2785 45.5057 11.7119 45.9048 12.2322 45.9048H37.7682C38.2886 45.9048 38.722 45.5057 38.7648 44.9871C38.8772 43.6263 38.8569 42.517 38.5025 41.5788C38.1279 40.587 37.4363 39.9234 36.5303 39.3315C36.4516 39.2801 36.3706 39.2325 36.2903 39.1885C35.2874 37.4727 35.1391 35.4628 35.3424 33.165C35.4425 32.0334 35.6233 30.8717 35.8113 29.6643L35.8442 29.4527C36.0416 28.1831 36.2413 26.8662 36.336 25.5596C36.5256 22.9441 36.3061 20.2406 34.7216 17.7976C33.1665 15.3998 30.4011 13.4117 25.8565 11.9285C25.7991 11.869 25.73 11.7998 25.6497 11.7228C25.3972 11.4805 25.0302 11.1587 24.5621 10.829C23.6324 10.1744 22.2586 9.45757 20.5619 9.32083C20.1372 9.2866 19.7374 9.52525 19.566 9.91535C19.4983 10.0696 19.4721 10.2341 19.4845 10.3945C19.4908 10.5694 19.5082 11.0205 19.5268 11.5054L19.5269 11.507L19.5411 11.8788L19.5831 12.9716L8.58975 24.2482C8.28592 24.5598 8.21857 25.0322 8.42321 25.4164C9.75942 27.9248 11.433 29.0745 12.8605 29.5577C13.561 29.7948 14.1765 29.8627 14.6264 29.8694C14.8515 29.8728 15.0364 29.8608 15.1714 29.8468Z" fill="#222222"/>
<path d="M20.4821 10.3182C23.4043 10.5537 25.3 12.8001 25.3 12.8001C36.8537 16.4699 35.8229 23.0855 34.8201 29.5204C34.2371 33.2606 33.6637 36.9398 35.5765 39.944C35.7265 40.0154 35.8627 40.0904 35.9834 40.1693C37.6061 41.2294 37.989 42.2331 37.7683 44.9054H12.2323C12.0115 42.2331 12.3943 41.2295 14.017 40.1693C14.2664 40.0063 14.5821 39.8598 14.9477 39.728C13.788 36.4653 17.3208 33.227 20.2809 30.5138C22.5363 28.4463 24.4593 26.6837 23.7205 25.4472C22.4774 25.9671 21.3673 26.2398 20.3244 26.4961C18.5359 26.9355 16.9453 27.3263 15.2217 28.8317C15.2217 28.8317 11.7521 29.539 9.30591 24.9469L20.5989 13.3628L20.4821 10.3182Z" fill="url(#paint0_linear_3_217)"/>
<path d="M36.2569 39.7507C36.114 39.6573 35.9575 39.5716 35.7914 39.4925C35.7839 39.4889 35.7763 39.4856 35.7686 39.4824C33.26 38.4386 25.6766 37.0059 14.8468 39.2383C14.8235 39.2431 14.8006 39.2496 14.7782 39.2576C14.391 39.3972 14.0365 39.5593 13.7435 39.7507L13.7435 39.7507C12.8848 40.3117 12.2883 40.9015 11.9656 41.7562C11.653 42.584 11.6226 43.5981 11.734 44.9466C11.7555 45.2059 11.9722 45.4054 12.2323 45.4054H37.7683C38.0285 45.4054 38.2452 45.2059 38.2666 44.9465C38.378 43.5981 38.3476 42.5839 38.0349 41.7561C37.7121 40.9014 37.1156 40.3116 36.2569 39.7507ZM36.2569 39.7507L35.9846 40.1675L36.2569 39.7507C36.2569 39.7507 36.2569 39.7507 36.2569 39.7507Z" fill="#65D848" stroke="#222222" stroke-linejoin="round"/>
<path opacity="0.5" fill-rule="evenodd" clip-rule="evenodd" d="M24.7001 25.6001C25.741 29.1917 14.3691 33.8498 15.73 39.3981C15.73 34.0463 26.98 29.4451 24.7001 25.6001Z" fill="url(#paint1_linear_3_217)"/>
<path opacity="0.5" fill-rule="evenodd" clip-rule="evenodd" d="M12.8 27.6001C12.8 27.6001 11.7454 27.4247 10.2787 25.0745L21.3068 13.7365L21.2488 11.2416C21.5173 12.1136 21.6164 12.947 22.4 13.9359L10.941 25.0179C11.3286 26.0336 12.1443 26.7635 12.7999 27.6001H12.8Z" fill="url(#paint2_linear_3_217)"/>
<path opacity="0.5" fill-rule="evenodd" clip-rule="evenodd" d="M23.6 39.13C20.3666 39.1637 17.8142 39.5111 15.8733 40.0777C22.0201 39.64 28.1293 39.5809 34.1823 40.0777C31.9642 39.4302 28.947 39.0691 25.0278 39.1352C24.5379 39.1272 24.0619 39.1252 23.6 39.1302V39.13Z" fill="url(#paint3_linear_3_217)"/>
<path opacity="0.1" fill-rule="evenodd" clip-rule="evenodd" d="M15.2001 28.8C17.4454 26.6729 20.8592 26.5324 23.6987 25.4155C23.9508 25.5324 23.6717 26.5983 23.7737 26.4888C24.5676 25.6336 26.4675 23.951 25.1464 20.6909C24.9621 26.3338 14.0974 25.8846 15.1996 28.8H15.2001Z" fill="url(#paint4_linear_3_217)"/>
<path opacity="0.3" d="M24.5635 14.2699C23.6117 12.7136 22.0885 11.4878 20.5 10.3C23.4222 10.5355 25.3179 12.7819 25.3179 12.7819C36.8713 16.451 35.8403 23.0666 34.8374 29.5016C34.252 33.2581 33.6762 36.953 35.6188 39.9644C34.4976 39.416 32.5735 39.08 30.6685 38.8742C29.5107 35.9861 30.6403 32.7258 31.7667 29.4749C33.7878 23.6414 35.7985 17.8382 24.5635 14.2699Z" fill="black"/>
<defs>
<linearGradient id="paint0_linear_3_217" x1="11.65" y1="42.52" x2="38.5016" y2="42.52" gradientUnits="userSpaceOnUse">
<stop stop-color="#666666"/>
<stop offset="1" stop-color="#323232"/>
</linearGradient>
<linearGradient id="paint1_linear_3_217" x1="15.6001" y1="32.5001" x2="25.0001" y2="32.5001" gradientUnits="userSpaceOnUse">
<stop stop-color="white"/>
<stop offset="1" stop-color="white" stop-opacity="0"/>
</linearGradient>
<linearGradient id="paint2_linear_3_217" x1="10.3" y1="19.4001" x2="22.4" y2="19.4001" gradientUnits="userSpaceOnUse">
<stop stop-color="white"/>
<stop offset="1" stop-color="white" stop-opacity="0"/>
</linearGradient>
<linearGradient id="paint3_linear_3_217" x1="14.5549" y1="39.8322" x2="35.4831" y2="39.8322" gradientUnits="userSpaceOnUse">
<stop stop-color="white"/>
<stop offset="1" stop-color="white" stop-opacity="0"/>
</linearGradient>
<linearGradient id="paint4_linear_3_217" x1="25.1001" y1="24.9" x2="15.1001" y2="25.7" gradientUnits="userSpaceOnUse">
<stop/>
<stop offset="1" stop-opacity="0"/>
</linearGradient>
</defs>
</svg>
