<svg width="50" height="50" viewBox="0 0 50 50" fill="none" xmlns="http://www.w3.org/2000/svg">
<path d="M24.5626 10.83C23.6382 10.1789 22.2747 9.46631 20.5912 9.32383C20.5163 9.31565 20.4395 9.31585 20.3619 9.32524C19.8597 9.38601 19.482 9.8127 19.482 10.3185C19.482 10.3399 19.5034 10.8963 19.5268 11.506L19.5411 11.8791L19.5831 12.9722L8.58975 24.2488C8.28591 24.5604 8.21857 25.0328 8.4232 25.417C9.75939 27.9253 11.4328 29.0752 12.8601 29.5585C13.5606 29.7957 14.176 29.8637 14.6259 29.8704C14.851 29.8738 15.0358 29.8619 15.1708 29.8479C15.2384 29.8408 15.3789 29.8182 15.4209 29.8117C15.5907 29.7771 15.7485 29.699 15.879 29.585C17.0895 28.5278 18.2137 28.0887 19.4916 27.7397C19.8094 27.6529 20.1479 27.5698 20.5047 27.4822C21.0879 27.3389 21.7201 27.1837 22.3911 26.9807C22.289 27.1146 22.1699 27.2593 22.0324 27.4153C21.4122 28.1195 20.5806 28.8819 19.6465 29.7384C19.2859 30.0691 18.9099 30.4138 18.5249 30.7746C17.191 32.0247 15.7836 33.4397 14.8481 34.9466C14.0636 36.2105 13.5486 37.6437 13.7772 39.1509C13.6707 39.2078 13.5676 39.2681 13.4696 39.3321C12.5636 39.9241 11.872 40.5877 11.4975 41.5796C11.1434 42.5178 11.1232 43.627 11.2356 44.9877C11.2785 45.5063 11.7119 45.9054 12.2322 45.9054H37.7682C38.2886 45.9054 38.722 45.5063 38.7648 44.9877C38.8772 43.6269 38.8569 42.5176 38.5025 41.5795C38.1279 40.5876 37.4363 39.924 36.5303 39.3321C36.4516 39.2807 36.3706 39.2331 36.2903 39.1891C35.2874 37.4733 35.1391 35.4634 35.3425 33.1656C35.4426 32.0339 35.6235 30.8722 35.8115 29.6647L35.8444 29.4533C36.0418 28.1837 36.2416 26.8669 36.3364 25.5603C36.526 22.9447 36.3066 20.2412 34.7223 17.7982C33.1671 15.4002 30.4014 13.4119 25.8561 11.9286C25.7988 11.8694 25.7301 11.8004 25.6503 11.7239C25.3977 11.4816 25.0308 11.1597 24.5626 10.83Z" fill="#222222"/>
<path d="M20.4821 10.3182C23.4043 10.5537 25.3 12.8001 25.3 12.8001C36.8537 16.4699 35.8229 23.0855 34.8201 29.5204C34.2371 33.2606 33.6637 36.9398 35.5765 39.944C35.7265 40.0154 35.8627 40.0904 35.9834 40.1693C37.6061 41.2294 37.989 42.2331 37.7683 44.9054H12.2323C12.0115 42.2331 12.3943 41.2295 14.017 40.1693C14.2664 40.0063 14.5821 39.8598 14.9477 39.728C13.788 36.4653 17.3208 33.227 20.2809 30.5138C22.5363 28.4463 24.4593 26.6837 23.7205 25.4472C22.4774 25.9671 21.3673 26.2398 20.3244 26.4961C18.5359 26.9355 16.9453 27.3263 15.2217 28.8317C15.2217 28.8317 11.7521 29.539 9.30591 24.9469L20.5989 13.3628L20.4821 10.3182Z" fill="url(#paint0_linear_3_228)"/>
<path d="M37.7683 45.4054C38.0285 45.4054 38.2452 45.2059 38.2666 44.9465C38.378 43.5981 38.3476 42.5839 38.0349 41.7561C37.7121 40.9014 37.1156 40.3116 36.2569 39.7507C36.215 39.7233 36.1692 39.7024 36.1211 39.6886C32.4852 38.6471 28.1469 38.3413 24.2455 38.3894C20.3415 38.4375 16.8359 38.8406 14.8497 39.2377C14.8254 39.2426 14.8015 39.2492 14.7782 39.2576C14.391 39.3972 14.0365 39.5593 13.7435 39.7507L13.7435 39.7507C12.8848 40.3117 12.2883 40.9015 11.9656 41.7562C11.653 42.584 11.6226 43.5981 11.734 44.9466C11.7555 45.2059 11.9722 45.4054 12.2323 45.4054H37.7683Z" fill="#65D848" stroke="#222222" stroke-linejoin="round"/>
<path fill-rule="evenodd" clip-rule="evenodd" d="M24.7001 25.6001C25.741 29.1917 14.3691 33.8498 15.73 39.3981C15.73 34.0463 26.98 29.4451 24.7001 25.6001Z" fill="url(#paint1_linear_3_228)"/>
<path fill-rule="evenodd" clip-rule="evenodd" d="M12.8 27.6001C12.8 27.6001 11.7454 27.4247 10.2787 25.0745L21.3068 13.7365L21.2488 11.2416C21.5173 12.1136 21.6164 12.947 22.4 13.9359L10.941 25.0179C11.3286 26.0336 12.1443 26.7635 12.7999 27.6001H12.8Z" fill="url(#paint2_linear_3_228)"/>
<path opacity="0.5" fill-rule="evenodd" clip-rule="evenodd" d="M23.6 39.13C20.3666 39.1637 17.8142 39.5111 15.8733 40.0777C22.0201 39.64 28.1293 39.5809 34.1823 40.0777C31.9642 39.4302 28.947 39.0691 25.0278 39.1352C24.5379 39.1272 24.0619 39.1252 23.6 39.1302V39.13Z" fill="url(#paint3_linear_3_228)"/>
<path opacity="0.1" fill-rule="evenodd" clip-rule="evenodd" d="M15.2001 28.8C17.4454 26.6729 20.8592 26.5324 23.6987 25.4155C23.9508 25.5324 23.6717 26.5983 23.7737 26.4888C24.5676 25.6336 26.4675 23.951 25.1464 20.6909C24.9621 26.3338 14.0974 25.8846 15.1996 28.8H15.2001Z" fill="url(#paint4_linear_3_228)"/>
<path opacity="0.2" d="M24.5635 14.2699C23.6117 12.7136 22.0885 11.4878 20.5 10.3C23.4222 10.5355 25.3179 12.7819 25.3179 12.7819C36.8713 16.451 35.8403 23.0666 34.8374 29.5016C34.252 33.2581 33.6762 36.953 35.6188 39.9644C34.4976 39.416 32.5735 39.08 30.6685 38.8742C29.5107 35.9861 30.6403 32.7258 31.7667 29.4749C33.7878 23.6414 35.7985 17.8382 24.5635 14.2699Z" fill="black"/>
<defs>
<linearGradient id="paint0_linear_3_228" x1="11.65" y1="42.52" x2="38.5016" y2="42.52" gradientUnits="userSpaceOnUse">
<stop stop-color="#F5F5F5"/>
<stop offset="1" stop-color="#7E7E7E"/>
</linearGradient>
<linearGradient id="paint1_linear_3_228" x1="15.6001" y1="32.5001" x2="25.0001" y2="32.5001" gradientUnits="userSpaceOnUse">
<stop stop-color="white"/>
<stop offset="1" stop-color="white" stop-opacity="0"/>
</linearGradient>
<linearGradient id="paint2_linear_3_228" x1="10.3" y1="19.4001" x2="22.4" y2="19.4001" gradientUnits="userSpaceOnUse">
<stop stop-color="white"/>
<stop offset="1" stop-color="white" stop-opacity="0"/>
</linearGradient>
<linearGradient id="paint3_linear_3_228" x1="14.5549" y1="39.8322" x2="35.4831" y2="39.8322" gradientUnits="userSpaceOnUse">
<stop stop-color="white"/>
<stop offset="1" stop-color="white" stop-opacity="0"/>
</linearGradient>
<linearGradient id="paint4_linear_3_228" x1="25.1001" y1="24.9" x2="15.1001" y2="25.7" gradientUnits="userSpaceOnUse">
<stop/>
<stop offset="1" stop-opacity="0"/>
</linearGradient>
</defs>
</svg>
