<svg width="50" height="50" viewBox="0 0 50 50" fill="none" xmlns="http://www.w3.org/2000/svg">
<path fill-rule="evenodd" clip-rule="evenodd" d="M38.4185 40.3862L38.4197 40.3867L39.1812 40.7212L37.965 45.8549H12.3496L11.1326 40.7212L11.8942 40.3867L11.8955 40.3861L11.9062 40.3813C11.917 40.3764 11.935 40.3681 11.9597 40.3565C12.009 40.3331 12.0852 40.2963 12.1847 40.2456C12.3838 40.1442 12.6755 39.9876 13.032 39.7734C13.7463 39.3441 14.7132 38.6876 15.7143 37.7848C17.516 36.1597 19.3952 33.7682 20.1548 30.4856H19.1249C17.3308 30.4856 15.7912 29.1005 15.7912 27.2728C15.7912 25.5804 17.1112 24.2674 18.7313 24.0824C17.7459 22.7904 17.1885 21.2112 17.1885 19.5528C17.1885 15.2756 20.805 11.885 25.169 11.885C29.5327 11.885 33.1497 15.2755 33.1497 19.5528C33.1497 21.2109 32.5926 22.7895 31.6078 24.0811C33.2333 24.2611 34.559 25.5766 34.559 27.2728C34.559 29.1002 33.0204 30.4856 31.2258 30.4856H30.1602C30.9198 33.7683 32.7988 36.1598 34.6003 37.7849C35.6011 38.6877 36.568 39.3442 37.2821 39.7734C37.6386 39.9877 37.9303 40.1442 38.1293 40.2456C38.2288 40.2963 38.305 40.3332 38.3543 40.3565C38.3666 40.3623 38.3773 40.3673 38.3862 40.3714C38.3951 40.3755 38.4023 40.3788 38.4077 40.3813L38.4185 40.3862Z" fill="#222222"/>
<path d="M21.1568 25.0588C19.2526 23.8177 18.1113 21.7568 18.1113 19.5517C18.1113 15.8694 21.2364 12.8842 25.0918 12.8842C28.9469 12.8842 32.0724 15.8694 32.0724 19.5517C32.0724 21.7571 30.9311 23.8177 29.0269 25.0588H31.1484C32.4412 25.0588 33.4819 26.0456 33.4819 27.2715C33.4819 28.4974 32.4412 29.4842 31.1484 29.4842H28.8745C30.0546 37.8441 37.9389 41.3004 37.9389 41.3004L37.0971 44.8538H13.0632L12.2211 41.3004C12.2211 41.3004 20.106 37.844 21.286 29.4842H19.0477C17.755 29.4842 16.7142 28.4974 16.7142 27.2715C16.7142 26.0456 17.755 25.0588 19.0477 25.0588H21.1568Z" fill="url(#paint0_linear_3_239)"/>
<path opacity="0.5" fill-rule="evenodd" clip-rule="evenodd" d="M19.2534 21.1271C19.2534 21.1271 17.5407 16.1991 23.1834 13.9329C19.8178 16.1532 19.2534 21.1271 19.2534 21.1271Z" fill="url(#paint1_linear_3_239)"/>
<path opacity="0.5" fill-rule="evenodd" clip-rule="evenodd" d="M17.5933 27.0419C17.7327 25.7944 25.2988 25.8527 25.2988 25.8527L18.9117 25.843C17.9713 25.936 17.624 26.7748 17.5887 27.0402L17.5933 27.0419Z" fill="url(#paint2_linear_3_239)"/>
<path opacity="0.5" fill-rule="evenodd" clip-rule="evenodd" d="M13.7543 44.2045L13.1719 41.7895C13.1719 42.1928 21.9465 36.4343 22.0495 30.2411C23.2956 37.0599 14.0698 42.1531 14.0698 42.1531L13.7543 44.2045Z" fill="url(#paint3_linear_3_239)"/>
<path opacity="0.3" d="M25.1067 29.4842H28.9508C30.1308 37.8448 38.0156 41.3014 38.0156 41.3014L37.1738 44.8549H33.3298L34.1716 41.3014C34.1716 41.3014 26.2867 37.8441 25.1067 29.4842Z" fill="black"/>
<path opacity="0.3" fill-rule="evenodd" clip-rule="evenodd" d="M25.0641 12.9821C24.2714 12.9821 23.5101 13.1052 22.7992 13.3292C33.4751 11.2913 28.9556 24.899 24.426 24.899L28.9551 24.8994C30.9134 23.6939 32.0905 21.6617 32.0905 19.485C32.0905 15.8937 28.9448 12.9825 25.0641 12.9825V12.9821Z" fill="black"/>
<defs>
<linearGradient id="paint0_linear_3_239" x1="16.6044" y1="27.2651" x2="33.5978" y2="27.2651" gradientUnits="userSpaceOnUse">
<stop stop-color="#666666"/>
<stop offset="1" stop-color="#323232"/>
</linearGradient>
<linearGradient id="paint1_linear_3_239" x1="18.9422" y1="17.5394" x2="23.0926" y2="17.5394" gradientUnits="userSpaceOnUse">
<stop stop-color="white"/>
<stop offset="1" stop-color="white" stop-opacity="0"/>
</linearGradient>
<linearGradient id="paint2_linear_3_239" x1="17.4896" y1="26.4601" x2="25.2715" y2="26.4601" gradientUnits="userSpaceOnUse">
<stop stop-color="white"/>
<stop offset="1" stop-color="white" stop-opacity="0"/>
</linearGradient>
<linearGradient id="paint3_linear_3_239" x1="13.2355" y1="37.2231" x2="22.1587" y2="37.2231" gradientUnits="userSpaceOnUse">
<stop stop-color="white"/>
<stop offset="1" stop-color="white" stop-opacity="0"/>
</linearGradient>
</defs>
</svg>
