<svg width="50" height="50" viewBox="0 0 50 50" fill="none" xmlns="http://www.w3.org/2000/svg">
<path d="M19.4024 7.70084L19.3902 7.70091C16.6464 7.70765 14.3772 9.87959 14.3774 12.6154C14.3774 14.5987 15.5899 16.3376 17.3762 17.1072V23.1849L14.7495 21.4C14.9961 20.8125 15.1255 20.18 15.1258 19.5369C15.1258 16.7961 12.8479 14.6213 10.0981 14.6214C7.34858 14.6214 5.07235 16.7965 5.07255 19.5364C5.0726 22.253 7.3111 24.4117 10.0276 24.4488L15.6027 38.4883C14.7856 38.6968 14.0274 38.9674 13.4699 39.3316C12.5639 39.9235 11.8722 40.5871 11.4976 41.579C11.1432 42.5172 11.1229 43.6264 11.2353 44.9872C11.2782 45.5058 11.7115 45.9049 12.2319 45.9049H37.7679C38.2883 45.9049 38.7217 45.5058 38.7645 44.9872C38.8769 43.6264 38.8566 42.5171 38.5022 41.5789C38.1276 40.5871 37.436 39.9235 36.53 39.3316L34.3028 38.465L39.8669 24.4488C42.5839 24.4119 44.8212 22.2527 44.8219 19.5366C44.8219 16.7965 42.5458 14.6223 39.7966 14.6213C37.047 14.6213 34.7684 16.7954 34.7686 19.5363C34.7686 20.1799 34.8982 20.8125 35.1448 21.3999L32.5176 23.185V17.1071C34.3043 16.3374 35.5142 14.5983 35.5169 12.6167V12.6153C35.5169 9.87521 33.2407 7.70133 30.4915 7.70084C27.742 7.70084 25.4639 9.87426 25.4642 12.6155C25.4643 13.9564 26.0258 15.2171 26.9828 16.1282L24.9473 21.1316L22.9107 16.1281C23.8678 15.2166 24.427 13.9561 24.4297 12.6174V12.6153C24.4297 9.87445 22.1524 7.70034 19.4024 7.70084Z" fill="#222222"/>
<path d="M15.3774 12.6154C15.3772 10.4538 17.1795 8.70068 19.4033 8.70068C21.6276 8.70028 23.4303 10.4532 23.4303 12.6154C23.4277 13.8929 22.7841 15.0891 21.7058 15.8195L24.9483 23.7848L28.189 15.8195C27.1109 15.0891 26.4646 13.8929 26.4646 12.6154C26.4643 10.4532 28.2676 8.70068 30.4919 8.70068C32.7156 8.70108 34.5176 10.4538 34.5176 12.6154C34.5152 14.3904 33.2844 15.9415 31.5186 16.3948V25.0735L36.4548 21.7191C36.0083 21.0738 35.7692 20.3139 35.7692 19.5363C35.769 17.3743 37.5722 15.6215 39.7966 15.6215C42.0204 15.6223 43.8224 17.3747 43.8224 19.5363C43.8219 21.6974 42.0198 23.4495 39.7966 23.4495C39.5989 23.4485 39.4016 23.4335 39.2061 23.4045L32.938 39.1938C34.2128 39.4256 35.3277 39.7408 35.9834 40.1693C37.6061 41.2294 37.989 42.2331 37.7683 44.9054H12.2323C12.0115 42.2331 12.3943 41.2295 14.017 40.1693C14.6562 39.7517 15.7314 39.4417 16.9657 39.2116L10.6891 23.4045C10.4935 23.4325 10.2962 23.4495 10.0984 23.4495C7.87535 23.4492 6.07263 21.6974 6.07263 19.5363C6.07243 17.3747 7.87475 15.6215 10.0984 15.6215C12.3227 15.6214 14.1258 17.3743 14.1258 19.5363C14.1254 20.3139 13.8868 21.0738 13.4402 21.7191L18.3765 25.0735V16.3948C16.611 15.9415 15.3774 14.3904 15.3774 12.6154Z" fill="url(#paint0_linear_3_261)"/>
<path d="M33.0274 38.7019C33.0191 38.7003 33.0107 38.699 33.0023 38.698C24.9181 37.6485 18.9113 38.2655 16.8653 38.7217C15.6301 38.9525 14.4713 39.2752 13.7435 39.7507L13.7435 39.7507C12.8848 40.3117 12.2883 40.9015 11.9656 41.7562C11.653 42.584 11.6226 43.5981 11.734 44.9466C11.7555 45.2059 11.9722 45.4054 12.2323 45.4054H37.7683C38.0285 45.4054 38.2452 45.2059 38.2666 44.9466C38.378 43.5981 38.3476 42.5839 38.0349 41.7561C37.7121 40.9014 37.1156 40.3116 36.2569 39.7507C35.5093 39.2622 34.3052 38.9342 33.0274 38.7019Z" fill="#FF4343" stroke="#222222" stroke-linejoin="round"/>
<path opacity="0.5" fill-rule="evenodd" clip-rule="evenodd" d="M7.43999 21.3199C7.43999 21.3199 5.60443 18.7237 8.68023 16.7063C8.01769 18.125 7.40719 19.517 7.43999 21.3199Z" fill="url(#paint1_linear_3_261)"/>
<path opacity="0.5" fill-rule="evenodd" clip-rule="evenodd" d="M16.7 14.4199C16.7 14.4199 14.8644 11.8238 17.9402 9.8064C17.1172 10.9727 16.4017 12.4694 16.7 14.4199Z" fill="url(#paint2_linear_3_261)"/>
<path opacity="0.5" fill-rule="evenodd" clip-rule="evenodd" d="M27.5 13.5199C27.5 13.5199 26.4504 10.5187 29.9628 9.42627C28.3869 10.6373 27.4653 11.8029 27.5 13.5199Z" fill="url(#paint3_linear_3_261)"/>
<path opacity="0.5" fill-rule="evenodd" clip-rule="evenodd" d="M36.7 20.4199C36.758 20.4489 35.7132 17.7789 38.9456 16.5586C37.8296 17.4486 36.8766 18.0428 36.7 20.4199Z" fill="url(#paint4_linear_3_261)"/>
<path opacity="0.5" fill-rule="evenodd" clip-rule="evenodd" d="M11.44 23.12L17.6908 38.7959H18.8484L11.44 23.12Z" fill="url(#paint5_linear_3_261)"/>
<path opacity="0.5" fill-rule="evenodd" clip-rule="evenodd" d="M23.6 39.13C20.3666 39.1637 17.8142 39.5111 15.8733 40.0777C22.0201 39.64 28.1293 39.5809 34.1823 40.0777C31.9642 39.4302 28.947 39.0691 25.0278 39.1352C24.5379 39.1272 24.0619 39.1252 23.6 39.1302V39.13Z" fill="url(#paint6_linear_3_261)"/>
<path opacity="0.3" d="M37.7061 16.1779C38.3218 15.8066 39.0452 15.5888 39.8229 15.5887C42.0467 15.5895 43.849 17.3416 43.849 19.5031C43.8485 21.6642 42.0461 23.4166 39.8229 23.4166C39.6252 23.4156 39.4283 23.4006 39.2328 23.3716L32.9503 39.196C31.3793 38.9095 29.5636 38.7498 28.0643 38.6609L38.0454 22.5035C41.0563 22.9972 44.1164 17.5188 37.7061 16.1779Z" fill="black"/>
<defs>
<linearGradient id="paint0_linear_3_261" x1="11.65" y1="42.52" x2="38.5016" y2="42.52" gradientUnits="userSpaceOnUse">
<stop stop-color="#666666"/>
<stop offset="1" stop-color="#323232"/>
</linearGradient>
<linearGradient id="paint1_linear_3_261" x1="6.89001" y1="19.0199" x2="8.68003" y2="19.0199" gradientUnits="userSpaceOnUse">
<stop stop-color="white"/>
<stop offset="1" stop-color="white" stop-opacity="0"/>
</linearGradient>
<linearGradient id="paint2_linear_3_261" x1="16.15" y1="12.12" x2="17.94" y2="12.12" gradientUnits="userSpaceOnUse">
<stop stop-color="white"/>
<stop offset="1" stop-color="white" stop-opacity="0"/>
</linearGradient>
<linearGradient id="paint3_linear_3_261" x1="27.35" y1="11.5199" x2="29.96" y2="11.5199" gradientUnits="userSpaceOnUse">
<stop stop-color="white"/>
<stop offset="1" stop-color="white" stop-opacity="0"/>
</linearGradient>
<linearGradient id="paint4_linear_3_261" x1="36.59" y1="18.42" x2="38.95" y2="18.42" gradientUnits="userSpaceOnUse">
<stop stop-color="white"/>
<stop offset="1" stop-color="white" stop-opacity="0"/>
</linearGradient>
<linearGradient id="paint5_linear_3_261" x1="11.44" y1="30.9199" x2="18.85" y2="30.9199" gradientUnits="userSpaceOnUse">
<stop stop-color="white"/>
<stop offset="1" stop-color="white" stop-opacity="0"/>
</linearGradient>
<linearGradient id="paint6_linear_3_261" x1="14.5549" y1="39.8322" x2="35.4831" y2="39.8322" gradientUnits="userSpaceOnUse">
<stop stop-color="white"/>
<stop offset="1" stop-color="white" stop-opacity="0"/>
</linearGradient>
</defs>
</svg>
