<svg width="50" height="50" viewBox="0 0 50 50" fill="none" xmlns="http://www.w3.org/2000/svg">
<path d="M21.2208 13.8169H19.0412V10.8443L13.3403 10.8451L13.1975 11.6754C12.2494 17.186 13.4557 20.3602 15.1567 22.1492C15.9886 23.0241 16.8897 23.5125 17.586 23.7823C17.6517 23.8078 17.7157 23.8314 17.7778 23.8531L14.7302 38.7399C14.2666 38.899 13.8312 39.0905 13.4696 39.3267C12.5636 39.9187 11.872 40.5823 11.4975 41.5742C11.1434 42.5124 11.1232 43.6216 11.2356 44.9823L11.3114 45.9H38.689L38.7648 44.9823C38.8772 43.6215 38.8569 42.5122 38.5025 41.574C38.1279 40.5822 37.4363 39.9186 36.5303 39.3267C36.1687 39.0905 35.7332 38.8987 35.2693 38.7394L32.2216 23.8527C32.2837 23.8309 32.3477 23.8073 32.4134 23.7819C33.1098 23.5121 34.0109 23.0237 34.8429 22.1488C36.5441 20.3599 37.7506 17.1857 36.8024 11.6749L36.6595 10.8445H30.9577V13.8169H28.7786V10.9044H21.2208V13.8169Z" fill="#222222"/>
<path d="M18.9486 23.12C18.9486 23.12 12.358 22.452 14.183 11.845H18.0413V14.8174H22.2209V11.9045H27.7787V14.8174H31.9577V11.845H35.8169C37.642 22.4526 31.0508 23.12 31.0508 23.12L34.4082 39.519C35.0518 39.6988 35.5972 39.9119 35.9834 40.1642C37.6061 41.2243 37.989 42.2281 37.7683 44.9004H12.2323C12.0115 42.2281 12.3943 41.2244 14.017 40.1642C14.403 39.912 14.9481 39.6991 15.5911 39.5193L18.9486 23.12Z" fill="url(#paint0_linear_3_303)"/>
<path d="M34.5428 39.0374C34.5303 39.0339 34.5176 39.0309 34.5049 39.0284C24.4099 37.0393 17.6498 38.1723 15.4311 39.0449C14.779 39.2288 14.1867 39.4561 13.7435 39.7456L13.7435 39.7456C12.8848 40.3067 12.2883 40.8964 11.9656 41.7511C11.653 42.579 11.6226 43.5931 11.734 44.9416C11.7554 45.2009 11.9721 45.4004 12.2323 45.4004H37.7683C38.0285 45.4004 38.2452 45.2009 38.2666 44.9416C38.378 43.5931 38.3475 42.5789 38.0349 41.7511C37.7121 40.8964 37.1156 40.3066 36.2569 39.7456C35.8078 39.4522 35.2054 39.2226 34.5428 39.0374Z" fill="#D96DFF" stroke="#222222" stroke-linejoin="round"/>
<path fill-rule="evenodd" clip-rule="evenodd" d="M14.835 12.6C14.835 12.6 14.1653 17.47 15.5047 19.6694C14.4216 15.1333 15.7874 12.6114 15.7874 12.6114L14.835 12.6Z" fill="url(#paint1_linear_3_303)"/>
<path fill-rule="evenodd" clip-rule="evenodd" d="M22.979 15.544V12.6584L23.905 12.6684L22.979 15.544Z" fill="url(#paint2_linear_3_303)"/>
<path fill-rule="evenodd" clip-rule="evenodd" d="M32.726 14.635V12.5971L33.3985 12.6071L32.726 14.635Z" fill="url(#paint3_linear_3_303)"/>
<path fill-rule="evenodd" clip-rule="evenodd" d="M19.603 23.886L17.7555 32.7961L20.3641 23.8626L19.603 23.886Z" fill="url(#paint4_linear_3_303)"/>
<path opacity="0.5" fill-rule="evenodd" clip-rule="evenodd" d="M23.572 39.124C20.3386 39.158 17.7862 39.5051 15.8453 40.0717C21.9921 39.6339 28.1013 39.5748 34.1543 40.0717C31.9362 39.4242 28.919 39.063 24.9998 39.1291C24.5099 39.1191 24.0339 39.1191 23.572 39.1191V39.124Z" fill="url(#paint5_linear_3_303)"/>
<path opacity="0.2" d="M20.6518 23.0391C30.408 22.5864 36.3862 22.3091 34.789 11.845L35.8175 11.8446C37.6426 22.4522 31.0514 23.1196 31.0514 23.1196L34.5 39.5L34.2694 39.4811C33.0918 39.1672 31.6132 38.9584 30.185 38.8196C29.8425 37.0653 29.6192 35.4053 29.4127 33.8708C28.501 27.0944 27.9185 22.7642 18.859 23.5606L18.949 23.12C19.5284 23.0912 20.0962 23.0648 20.6518 23.0391Z" fill="black"/>
<defs>
<linearGradient id="paint0_linear_3_303" x1="11.574" y1="42.52" x2="38.4256" y2="42.52" gradientUnits="userSpaceOnUse">
<stop stop-color="#F5F5F5"/>
<stop offset="1" stop-color="#7E7E7E"/>
</linearGradient>
<linearGradient id="paint1_linear_3_303" x1="14.6" y1="16.1" x2="15.7" y2="16.1" gradientUnits="userSpaceOnUse">
<stop stop-color="white"/>
<stop offset="1" stop-color="white" stop-opacity="0"/>
</linearGradient>
<linearGradient id="paint2_linear_3_303" x1="22.9" y1="14.1" x2="23.9" y2="14.1" gradientUnits="userSpaceOnUse">
<stop stop-color="white"/>
<stop offset="1" stop-color="white" stop-opacity="0"/>
</linearGradient>
<linearGradient id="paint3_linear_3_303" x1="32.7" y1="13.6" x2="33.4" y2="13.6" gradientUnits="userSpaceOnUse">
<stop stop-color="white"/>
<stop offset="1" stop-color="white" stop-opacity="0"/>
</linearGradient>
<linearGradient id="paint4_linear_3_303" x1="17.7" y1="28.3" x2="20.3" y2="28.3" gradientUnits="userSpaceOnUse">
<stop stop-color="white"/>
<stop offset="1" stop-color="white" stop-opacity="0"/>
</linearGradient>
<linearGradient id="paint5_linear_3_303" x1="14.5009" y1="39.8342" x2="35.4292" y2="39.8342" gradientUnits="userSpaceOnUse">
<stop stop-color="white"/>
<stop offset="1" stop-color="white" stop-opacity="0"/>
</linearGradient>
</defs>
</svg>
