<svg width="180" height="180" viewBox="0 0 180 180" fill="none" xmlns="http://www.w3.org/2000/svg">
<path d="M139.006 102.139V73.4333L129.274 68.2431L115.165 75.7845L125.22 81.1367V102.139L125.139 143.657H53.1305V102.22V81.7042L104.218 54.7011L89.1349 46.6732L39.2641 73.5953V102.22V157.524H139.006V102.139ZM33.75 102.22V68.9732L89.2159 39.375L117.354 54.3767L58.5636 85.4342V102.22V123.547V138.143H119.706V123.222V102.22V85.4342L101.704 75.9471L129.68 60.9452L144.438 68.9732V102.139V123.385V163.038H33.75V123.547V102.22Z" fill="black"/>
<path d="M139.005 102.139V73.4327L129.274 68.2431L115.165 75.7845L125.22 81.1367V102.139L125.139 143.657H53.1303V102.22V81.7042L104.217 54.701L89.1343 46.6731L39.2639 73.5952V102.22V157.524H139.005V102.139Z" fill="white"/>
</svg>
