<svg width="32" height="32" viewBox="0 0 32 32" fill="none" xmlns="http://www.w3.org/2000/svg">
<path d="M24.7121 18.158V13.0548L22.9821 12.1321L20.4737 13.4728L22.2613 14.4243V18.158L22.2469 25.5391H9.44543V18.1725V14.5252L18.5276 9.72464L15.8462 8.29745L6.98028 13.0836V18.1725V28.0042H24.7121L24.7121 18.158ZM6 18.1725V12.2619L15.8606 7L20.863 9.66697L10.4113 15.1883V18.1725V21.9639V24.5588H21.281V21.9062V18.1725V15.1883L18.0807 13.5017L23.0542 10.8347L25.6779 12.2619V18.158V21.9351V28.9845H6V21.9639V18.1725Z" fill="black"/>
<path d="M24.712 18.158V13.0547L22.9821 12.1321L20.4737 13.4728L22.2613 14.4243V18.158L22.2469 25.5391H9.4454V18.1725V14.5252L18.5275 9.72463L15.8461 8.29744L6.98026 13.0836V18.1725V28.0042H24.712L24.712 18.158Z" fill="white"/>
</svg>
