<svg width="32" height="32" viewBox="0 0 32 32" fill="none" xmlns="http://www.w3.org/2000/svg">
<path d="M22.2757 18.7332L22.2469 25.1484H9.44544V18.6611L15.8606 15.3166L22.2757 18.7332ZM18.0663 10.8909V12.2316L25.6779 16.2969V28.5938H6V16.2969L13.6405 12.2604V10.8909H9.44544V6.46515H13.6405V4H18.0663V6.46515H22.2469V10.8909H18.0663ZM21.281 19.2378L15.8894 16.369L10.4113 19.2378V24.1681H21.281V19.2378ZM17.086 12.8371L17.0715 9.91059H21.281V7.44544H17.0715V4.98029H14.6208V7.44544H10.4113V9.91059H14.6208L14.6064 12.8659L6.9803 16.9601V27.6135H24.7121V16.888L17.086 12.8371Z" fill="black"/>
<path d="M22.2758 18.7332L22.247 25.1484H9.44552V18.6612L15.8607 15.3166L22.2758 18.7332ZM17.086 12.8371L17.0716 9.9106H21.2811V7.44545H17.0716V4.9803H14.6209V7.44545H10.4114V9.9106H14.6209L14.6065 12.8659L6.98038 16.9601V27.6135H24.7121V16.888L17.086 12.8371Z" fill="white"/>
</svg>
