<svg width="32" height="32" viewBox="0 0 32 32" fill="none" xmlns="http://www.w3.org/2000/svg">
<path d="M22.2757 18.6838C22.2661 19.7506 22.2565 20.8222 22.2469 21.8986C22.2469 22.9653 22.2469 24.0321 22.2469 25.0989C20.1134 25.0989 17.9798 25.0989 15.8462 25.0989C13.7126 25.0989 11.579 25.0989 9.44546 25.0989C9.44546 24.0225 9.44546 22.9461 9.44546 21.8697C9.44546 20.7837 9.44546 19.6977 9.44546 18.6117C10.5122 18.0639 11.579 17.5113 12.6458 16.9538C13.7222 16.3868 14.7938 15.8246 15.8606 15.2672C16.9274 15.8438 17.9942 16.4156 19.061 16.9827C20.1278 17.5497 21.1994 18.1167 22.2758 18.6838H22.2757ZM24.7121 16.8385L15.8894 12.1389L6.98029 16.9106V27.5641H24.7121V16.8385ZM6 16.2475L15.8894 11L25.6779 16.2475V28.5444H6V16.2475ZM15.8606 16.3051C14.9476 16.7857 14.0346 17.2662 13.1215 17.7467C12.2181 18.2273 11.3147 18.7078 10.4113 19.1883C10.4113 20.0149 10.4113 20.8414 10.4113 21.6679C10.4113 22.4848 10.4113 23.3017 10.4113 24.1186C12.2181 24.1186 14.0249 24.1186 15.8318 24.1186C17.6482 24.1186 19.4646 24.1186 21.281 24.1186C21.281 23.3017 21.281 22.4848 21.281 21.6679C21.281 20.8414 21.281 20.0149 21.281 19.1883C20.368 18.7078 19.4598 18.2273 18.5564 17.7467C17.653 17.2662 16.7544 16.7857 15.8606 16.3051V16.3051Z" fill="black"/>
<path d="M22.2758 18.6838C22.2662 19.7506 22.2566 20.8222 22.247 21.8986C22.247 22.9654 22.247 24.0321 22.247 25.0989C20.1134 25.0989 17.9799 25.0989 15.8463 25.0989C13.7127 25.0989 11.5791 25.0989 9.44554 25.0989C9.44554 24.0225 9.44554 22.9461 9.44554 21.8697C9.44554 20.7837 9.44554 19.6977 9.44554 18.6117C10.5123 18.0639 11.5791 17.5113 12.6459 16.9539C13.7223 16.3868 14.7939 15.8246 15.8607 15.2672C16.9275 15.8438 17.9943 16.4157 19.0611 16.9827C20.1279 17.5497 21.1994 18.1168 22.2758 18.6838ZM24.7121 16.8385L15.8895 12.1389L6.98038 16.9106V27.5641H24.7121V16.8385Z" fill="white"/>
</svg>
