<svg width="32" height="32" viewBox="0 0 32 32" fill="none" xmlns="http://www.w3.org/2000/svg">
<path d="M22.2757 18.7332L22.2469 25.1484H9.44546V18.6611L15.8606 15.3166L22.2757 18.7332ZM18.0374 9.91059L21.281 8.16625V4H25.6779V11.1215L20.8341 13.702L25.6779 16.2969V28.5938H6V16.2969L10.887 13.7309L6 11.1215V4H10.4113V8.16625L13.6549 9.88176L13.6405 4H18.0518L18.0374 9.91059ZM21.281 19.2378L15.8606 16.3546L10.4113 19.2378V24.1681H21.281V19.2378ZM24.7121 16.8303L18.8015 13.7309L24.7121 10.5305V4.98029H22.2469V8.72847L17.0715 11.5108V4.98029H14.6208V11.5108L9.44544 8.72847V4.98029H6.98029L6.99471 10.5305L12.8909 13.7309L6.99471 16.8303L6.98029 27.6135H24.7121V16.8303Z" fill="black"/>
<path d="M22.2758 18.7332L22.247 25.1484H9.44554V18.6612L15.8607 15.3166L22.2758 18.7332ZM24.7121 16.8303L18.8016 13.7309L24.7121 10.5305V4.9803H22.247V8.72848L17.0716 11.5108V4.9803H14.6209V11.5108L9.44553 8.72848V4.9803H6.98038L6.9948 10.5305L12.891 13.7309L6.9948 16.8303L6.98038 27.6135H24.7121V16.8303Z" fill="white"/>
</svg>
