<svg width="32" height="32" viewBox="0 0 32 32" fill="none" xmlns="http://www.w3.org/2000/svg">
<path d="M6 16.3507L10.887 13.7703L6 11.1754V6H10.4113V8.22008L15.9038 11.1033L21.281 8.22008V6H25.6779V11.1754L20.863 13.7703L25.6779 16.3507V28.6477H6V16.3507ZM15.8462 16.4084L10.4113 19.2916V24.2219H21.281V19.2916L15.8462 16.4084ZM22.2757 18.7871L22.2469 25.2022H9.44546V18.715L15.8606 15.3704L22.2757 18.7871ZM9.44544 8.7823V6.98029H6.98029L6.99471 10.5843L12.8909 13.7847L6.99471 16.8841L6.98029 27.6674H24.7121V16.8841L18.8015 13.7847L24.7121 10.5843V6.98029H22.2469V8.7823L15.8462 12.2133L9.50311 8.81113L9.44544 8.7823Z" fill="black"/>
<path d="M22.2758 18.7871L22.247 25.2022H9.44554V18.715L15.8607 15.3705L22.2758 18.7871ZM9.44553 8.78231V6.9803H6.98038L6.9948 10.5843L12.891 13.7847L6.9948 16.8841L6.98038 27.6674H24.7121V16.8841L18.8016 13.7847L24.7121 10.5843V6.9803H22.247V8.78231L15.8463 12.2133L9.50319 8.81114L9.44553 8.78231Z" fill="white"/>
</svg>
