<svg width="180" height="180" viewBox="0 0 180 180" fill="none" xmlns="http://www.w3.org/2000/svg">
<path d="M79.9763 111.038C72.1496 111.038 68.2363 112.261 68.2363 114.707C68.2363 116.908 71.6608 118.192 78.5087 118.559C78.2646 118.559 82.4833 118.559 91.1661 118.559C106.452 118.559 114.095 117.275 114.095 114.707C114.095 112.261 110.182 111.038 102.355 111.038H79.9763ZM79.9763 96.7303C76.0629 96.7303 73.1284 96.975 71.1714 97.4638C69.2151 97.8311 68.2363 98.8093 68.2363 100.399C68.2363 102.233 69.8265 103.273 73.0057 103.517C77.0417 103.884 83.0948 104.068 91.1661 104.068C99.2368 104.068 105.352 103.884 109.509 103.517C112.566 103.273 114.095 102.233 114.095 100.399C114.095 97.9532 110.182 96.7303 102.355 96.7303H79.9763ZM122.533 106.636C122.533 107.859 123.267 110.671 124.734 115.074C125.224 116.419 125.713 118.131 126.202 120.21C126.813 122.167 127.119 123.512 127.119 124.246C127.119 129.504 121.677 132.684 110.793 133.784C115.807 135.618 119.72 136.78 122.533 137.269C126.324 137.881 129.871 138.187 133.172 138.187C134.517 138.187 137.086 138.125 140.876 138.003C144.79 137.758 146.685 137.636 146.563 137.636C151.087 137.636 154.94 139.043 158.119 141.855C160.443 143.934 162.889 147.419 165.457 152.311C163.133 155.735 160.871 159.22 158.669 162.767C156.102 166.68 153.044 169.37 149.498 170.838C148.886 168.27 145.951 166.497 140.693 165.518C139.47 165.274 135.679 164.907 129.32 164.418C110.243 162.705 97.5251 158.67 91.1661 152.311C85.1738 158.425 76.0629 162.033 63.8342 163.133C61.3884 163.378 57.7811 163.806 53.0116 164.418C47.1417 164.907 43.4119 165.274 41.8221 165.518C36.319 166.619 33.323 168.392 32.8338 170.838C28.9205 169.126 25.1907 165.274 21.6443 159.281C20.0545 156.591 18.4647 154.267 16.875 152.311C19.4431 147.297 21.8889 143.812 24.2124 141.855C27.2697 139.043 31.1218 137.636 35.7688 137.636C35.6465 137.636 37.4808 137.758 41.2718 138.003C45.1851 138.125 47.8143 138.187 49.1595 138.187C56.3743 138.187 63.7729 136.719 71.3548 133.784C60.5936 132.684 55.2128 129.504 55.2128 124.246C55.2128 122.533 56.0077 119.782 57.5972 115.991C59.1874 112.078 59.9822 109.265 59.9822 107.553C50.6881 96.0576 46.0411 86.0299 46.0411 77.4697C46.0411 67.4421 50.9938 58.2705 60.8991 49.9546C69.5818 42.6173 76.0022 38.6428 80.1596 38.0314C76.8577 34.1182 75.2074 29.838 75.2074 25.191C75.2074 20.6663 76.6744 17.2422 79.6095 14.9187C82.6667 12.4729 86.5187 11.25 91.1661 11.25C95.6908 11.25 99.4815 12.4729 102.539 14.9187C105.596 17.3645 107.125 20.7886 107.125 25.191C107.125 29.7157 105.474 33.9959 102.172 38.0314C104.984 38.7651 109.326 41.1498 115.196 45.1853C122.533 50.3215 128.098 56.0691 131.888 62.4279C134.823 67.1974 136.291 72.2115 136.291 77.4697C136.291 86.3966 131.705 96.1189 122.533 106.636ZM95.3848 85.3577V74.718H103.273V66.0966H95.3848V56.1914H86.9468V66.0966H79.0594V74.718H86.9468V85.3577H95.3848ZM91.1661 20.6052C89.5759 20.6052 88.1696 21.1555 86.9468 22.256C85.7239 23.3567 85.1124 24.6407 85.1124 26.1082C85.1124 27.6979 85.7239 29.0431 86.9468 30.1437C88.1696 31.2443 89.5759 31.7946 91.1661 31.7946C94.9568 31.7946 96.8524 29.8991 96.8524 26.1082C96.8524 22.4395 94.9568 20.6052 91.1661 20.6052Z" fill="#111111"/>
<path d="M79.9768 111.038C72.1502 111.038 68.2369 112.261 68.2369 114.707C68.2369 116.908 71.6608 118.192 78.5093 118.559C78.2646 118.559 82.4833 118.559 91.1661 118.559C106.452 118.559 114.095 117.275 114.095 114.707C114.095 112.261 110.182 111.038 102.355 111.038H79.9768ZM79.9768 96.7303C76.0635 96.7303 73.1284 96.975 71.172 97.4644C69.2151 97.8311 68.2369 98.8093 68.2369 100.399C68.2369 102.233 69.8265 103.273 73.0063 103.517C77.0417 103.884 83.0948 104.068 91.1661 104.068C99.2374 104.068 105.352 103.884 109.51 103.517C112.567 103.273 114.095 102.233 114.095 100.399C114.095 97.9532 110.182 96.7303 102.355 96.7303H79.9768ZM95.3848 85.3577V74.7186H103.273V66.0971H95.3848V56.1914H86.9473V66.0971H79.0594V74.7186H86.9473V85.3577H95.3848ZM91.1661 20.6052C89.5764 20.6052 88.1702 21.1555 86.9473 22.2561C85.7244 23.3567 85.113 24.6408 85.113 26.1082C85.113 27.698 85.7244 29.0432 86.9473 30.1438C88.1702 31.2444 89.5764 31.7947 91.1661 31.7947C94.9573 31.7947 96.8524 29.8992 96.8524 26.1082C96.8524 22.4395 94.9573 20.6052 91.1661 20.6052Z" fill="#F7F7F7"/>
</svg>
