<svg width="180" height="180" viewBox="0 0 180 180" fill="none" xmlns="http://www.w3.org/2000/svg">
<path d="M89.028 167.74C57.4251 167.74 41.3701 162.409 40.8625 151.748C40.3548 140.071 38.8318 130.934 36.2935 124.334C34.5166 119.892 31.1533 114.371 26.2034 107.771C22.7767 103.202 20.5556 99.7751 19.5402 97.4908C17.7634 93.9369 16.875 90.0028 16.875 85.6873C16.875 79.722 18.6518 74.3282 22.2055 69.5053C25.7592 64.5553 30.3283 61.065 35.9127 59.0344C39.8471 57.6382 43.4008 57.0037 46.5738 57.1309C54.8234 57.258 62.6287 60.3039 69.9902 66.2687L70.1803 66.4594C70.1803 62.1439 70.371 58.527 70.7518 55.6078C70.7518 54.4655 71.2592 53.006 72.2745 51.2292C73.5441 48.0562 77.2245 44.3756 83.3164 40.1873V34.476L73.6071 28.7647V20.1977H82.3646L85.4106 11.25H92.6449L95.6908 20.1977H104.448V28.7647L94.7391 34.476V40.1873C100.451 43.9948 104.195 47.6755 105.971 51.2292C106.86 53.2599 107.304 54.8463 107.304 55.9885C107.431 57.0037 107.558 58.7171 107.685 61.1286C107.812 63.4134 107.875 65.1904 107.875 66.4594L108.065 66.2687C115.3 60.3039 123.105 57.258 131.482 57.1309C137.066 57.0037 142.397 58.527 147.473 61.7001C152.677 64.8726 156.421 69.0609 158.705 74.2646C160.356 77.8185 161.18 81.6261 161.18 85.6873C161.18 92.4143 158.134 99.7751 152.043 107.771C149.377 111.325 147.473 113.99 146.331 115.767C144.427 118.559 142.968 121.414 141.952 124.334C139.16 131.187 137.574 140.326 137.193 151.748C136.939 162.409 120.884 167.74 89.028 167.74ZM89.028 87.5914C89.1546 87.3371 89.6625 86.5125 90.5507 85.1164C92.7084 82.0704 94.4218 79.3412 95.6908 76.9298C96.9604 74.5183 97.9121 72.1704 98.5466 69.8861C98.9274 66.4594 99.1176 64.1745 99.1176 63.0326C99.1176 53.6406 95.8179 48.9446 89.2181 48.9446C82.3646 48.9446 78.9379 53.6406 78.9379 63.0326C78.9379 64.6824 79.128 66.9668 79.5088 69.8861C80.7784 74.3282 83.4435 79.4047 87.5047 85.1164C88.5201 86.5125 89.028 87.3371 89.028 87.5914ZM152.614 87.2106C152.614 80.1028 150.202 74.5819 145.379 70.6477C141.318 67.3476 136.685 65.6977 131.482 65.6977C124.501 65.6977 117.076 69.1881 109.208 76.1687C99.8156 84.2912 94.5489 95.2695 93.4065 109.104C93.4065 110.246 96.3253 111.452 102.164 112.721C107.113 113.736 115.427 114.371 127.103 114.625C129.134 114.752 130.974 114.815 132.624 114.815H133.386H136.812C137.447 113.799 138.336 112.594 139.477 111.198C140.747 109.675 142.27 107.835 144.047 105.677C147.473 100.727 149.885 96.6021 151.281 93.3024C152.169 90.891 152.614 88.8604 152.614 87.2106ZM89.028 119.194C85.8549 120.59 80.1433 121.669 71.8937 122.43C67.5787 122.684 61.1061 123.128 52.4755 123.763L45.4315 124.334C47.0815 130.553 48.1602 137.216 48.6679 144.323C59.7099 140.77 73.1632 138.993 89.028 138.993C105.019 138.993 118.536 140.77 129.578 144.323C129.959 136.581 130.974 129.918 132.624 124.334L125.77 123.763C121.328 123.509 114.792 123.065 106.162 122.43C101.593 121.922 98.6737 121.605 97.4042 121.478C94.1046 120.971 91.3123 120.209 89.028 119.194ZM25.4419 87.2106C25.4419 90.3831 27.0919 94.635 30.3918 99.9658C32.0417 102.504 33.3743 104.408 34.3897 105.677L36.2935 108.342C37.9434 110.119 39.5933 112.277 41.2432 114.815H45.4315C52.0312 114.815 60.3444 114.307 70.371 113.292C80.0167 112.404 84.8396 111.008 84.8396 109.104C83.5701 95.2695 78.2398 84.2912 68.8477 76.1687C61.1061 69.1881 53.6812 65.6977 46.5738 65.6977C44.4162 65.6977 42.0682 66.1421 39.5299 67.0303C34.0724 68.4264 30.0745 71.9167 27.5361 77.5012C26.14 80.4201 25.4419 83.6567 25.4419 87.2106ZM89.028 159.173C96.8968 159.173 104.702 158.665 112.444 157.65C118.917 156.888 122.154 155.873 122.154 154.604C122.154 152.573 119.234 151.113 113.396 150.225C104.893 149.083 96.8332 148.512 89.2181 148.512C81.4764 148.512 73.3534 149.083 64.8501 150.225C58.8847 151.113 55.9023 152.573 55.9023 154.604C55.9023 156.381 62.6923 157.777 76.2727 158.792C80.2069 159.046 84.4588 159.173 89.028 159.173Z" fill="#111111"/>
<path d="M89.028 87.5914C89.1546 87.3371 89.6625 86.5125 90.5507 85.1164C92.7084 82.0704 94.4218 79.3412 95.6908 76.9297C96.9604 74.5183 97.9121 72.1704 98.5466 69.8861C98.9274 66.4594 99.1176 64.1745 99.1176 63.0326C99.1176 53.6406 95.8179 48.9446 89.2181 48.9446C82.3646 48.9446 78.9379 53.6406 78.9379 63.0326C78.9379 64.6824 79.128 66.9667 79.5088 69.8861C80.7784 74.3282 83.4435 79.4047 87.5047 85.1164C88.5201 86.5125 89.028 87.3371 89.028 87.5914ZM152.614 87.2106C152.614 80.1028 150.202 74.5819 145.379 70.6477C141.318 67.3476 136.685 65.6977 131.482 65.6977C124.501 65.6977 117.076 69.1881 109.208 76.1687C99.8156 84.2912 94.5489 95.2695 93.4065 109.104C93.4065 110.246 96.3253 111.451 102.164 112.721C107.113 113.736 115.427 114.371 127.103 114.625C129.134 114.752 130.974 114.815 132.624 114.815H133.386H136.812C137.447 113.799 138.336 112.594 139.477 111.198C140.747 109.675 142.27 107.835 144.047 105.677C147.473 100.727 149.885 96.6021 151.281 93.3024C152.169 90.891 152.614 88.8604 152.614 87.2106ZM89.028 119.194C85.8549 120.59 80.1433 121.669 71.8937 122.43C67.5787 122.684 61.1061 123.128 52.4755 123.763L45.4315 124.334C47.0814 130.553 48.1602 137.216 48.6679 144.323C59.7099 140.77 73.1632 138.993 89.028 138.993C105.019 138.993 118.536 140.77 129.578 144.323C129.959 136.581 130.974 129.918 132.624 124.334L125.77 123.763C121.328 123.509 114.792 123.065 106.162 122.43C101.593 121.922 98.6737 121.605 97.4042 121.478C94.1046 120.971 91.3123 120.209 89.028 119.194ZM25.4419 87.2106C25.4419 90.3831 27.0919 94.635 30.3917 99.9658C32.0417 102.504 33.3743 104.408 34.3896 105.677L36.2934 108.342C37.9433 110.119 39.5932 112.277 41.2432 114.815H45.4315C52.0312 114.815 60.3444 114.307 70.371 113.292C80.0167 112.404 84.8396 111.008 84.8396 109.104C83.5701 95.2695 78.2398 84.2912 68.8477 76.1687C61.1061 69.1881 53.6812 65.6977 46.5738 65.6977C44.4161 65.6977 42.0682 66.1421 39.5298 67.0303C34.0724 68.4264 30.0745 71.9167 27.5361 77.5012C26.14 80.4201 25.4419 83.6567 25.4419 87.2106ZM89.028 159.173C96.8968 159.173 104.702 158.665 112.444 157.65C118.917 156.888 122.153 155.873 122.153 154.604C122.153 152.573 119.234 151.113 113.396 150.225C104.893 149.083 96.8332 148.512 89.2181 148.512C81.4764 148.512 73.3534 149.083 64.8501 150.225C58.8847 151.113 55.9022 152.573 55.9022 154.604C55.9022 156.381 62.6923 157.777 76.2727 158.792C80.2069 159.046 84.4588 159.173 89.028 159.173Z" fill="#F7F7F7"/>
</svg>
