<svg width="32" height="32" viewBox="0 0 32 32" fill="none" xmlns="http://www.w3.org/2000/svg">
<path d="M5.57221 19.4332C5.18863 19.4332 4.85019 19.5573 4.55686 19.8055C4.28611 20.0537 4.15072 20.3696 4.15072 20.7532C4.15072 20.8885 4.19585 21.0352 4.2861 21.1931C4.64712 21.1931 4.96301 21.0803 5.23376 20.8547C5.52709 20.6065 5.67374 20.3019 5.67374 19.9409C5.67374 19.8281 5.6399 19.6588 5.57221 19.4332ZM26.3191 25.9653C26.3416 24.9273 26.3529 24.4084 26.3529 24.4084C26.3529 19.8055 25.1796 16.0375 22.833 13.1042C20.8249 10.5546 18.986 9.27978 17.3163 9.27978C17.2035 9.27978 17.0682 9.30235 16.9102 9.34747C16.8876 9.34747 16.8651 9.33619 16.8425 9.31363C16.7974 9.31363 16.7635 9.31363 16.741 9.31363H16.6733C16.2897 9.31363 16.0979 9.46029 16.0979 9.75361C16.0979 9.88899 16.1882 10.0357 16.3687 10.1936C17.8804 10.3064 19.5388 11.3894 21.3439 13.4427C23.6453 16.1277 24.796 19.9634 24.796 24.9499C24.796 24.995 24.7847 25.0853 24.7622 25.2207C24.7622 25.356 24.7622 25.4576 24.7622 25.5253V25.8637C24.7622 26.0217 24.7622 26.1006 24.7622 26.1006C24.7847 26.394 24.875 26.6309 25.0329 26.8114C25.1909 26.9919 25.3827 27.0821 25.6083 27.0821C25.7888 27.0821 25.9468 26.9919 26.0821 26.8114C26.2175 26.6083 26.2965 26.3263 26.3191 25.9653ZM8.61823 13.815H8.65208H8.71977C8.7649 13.815 8.79874 13.8263 8.82131 13.8488H8.85515C9.41923 13.8488 10.0284 13.5668 10.6828 13.0027C11.3597 12.4386 11.6981 11.9535 11.6981 11.5474C11.6981 11.4346 11.653 11.3218 11.5627 11.2089C11.292 11.051 11.0099 10.972 10.7166 10.972C10.1751 10.972 9.63358 11.1977 9.09207 11.6489C8.55055 12.0776 8.27979 12.5627 8.27979 13.1042C8.27979 13.4201 8.3926 13.657 8.61823 13.815ZM28.2482 28.9774L10.412 28.9097C10.4571 27.5785 10.7053 26.4729 11.1566 25.593C11.6304 24.713 12.2622 23.7766 13.0519 22.7838C13.7514 21.9039 14.2252 21.2608 14.4734 20.8547C14.8795 20.1552 15.1277 19.3994 15.218 18.5871C13.819 19.1512 12.7135 19.8732 11.9012 20.7532C11.5176 21.1819 11.2243 21.5542 11.0212 21.87C10.7279 22.389 10.2653 23.1223 9.63358 24.0699C9.45307 24.273 9.25 24.3858 9.02437 24.4084C8.30235 24.4084 7.94134 23.9684 7.94134 23.0884C7.64802 23.4495 7.32085 23.63 6.95984 23.63C6.91471 23.63 6.64396 23.5623 6.14757 23.4269C5.26761 23.2013 4.61327 22.9192 4.18457 22.5808C3.77843 22.2198 3.38357 21.6218 3 20.787C3.15794 19.7491 3.68818 18.2825 4.59071 16.3872C5.06453 15.3493 5.6963 14.0293 6.48602 12.4273C7.34342 10.7125 7.94134 9.23466 8.27979 7.99368C8.32491 7.61011 8.34748 7.23782 8.34748 6.87681C8.34748 6.71886 8.26851 5.963 8.11056 4.60921H8.17825H8.27979C8.32491 4.60921 8.35876 4.59793 8.38132 4.57536H8.44901C9.71255 4.57536 11.1002 4.99278 12.6119 5.82762C12.7699 5.91787 12.8488 5.97428 12.8488 5.99684C13.6611 4.66561 14.2816 4 14.7103 4C15.4098 4.36101 15.9174 4.76715 16.2333 5.21841C16.4815 5.60199 16.7748 6.34657 17.1133 7.45217C17.3163 7.38448 17.5532 7.35063 17.824 7.35063C20.148 7.35063 22.4043 8.80596 24.593 11.7166C27.1426 15.0785 28.4174 19.6476 28.4174 25.4237C28.4174 26.597 28.361 27.7816 28.2482 28.9774Z" fill="#111111"/>
<path d="M5.57224 19.4332C5.18867 19.4332 4.85022 19.5573 4.5569 19.8055C4.28614 20.0537 4.15076 20.3696 4.15076 20.7532C4.15076 20.8885 4.19588 21.0352 4.28614 21.1931C4.64715 21.1931 4.96304 21.0803 5.2338 20.8547C5.52712 20.6065 5.67377 20.3019 5.67377 19.9409C5.67377 19.8281 5.63993 19.6588 5.57224 19.4332ZM26.3191 25.9653C26.3417 24.9273 26.3529 24.4084 26.3529 24.4084C26.3529 19.8055 25.1796 16.0375 22.8331 13.1042C20.8249 10.5546 18.986 9.27979 17.3164 9.27979C17.2036 9.27979 17.0682 9.30235 16.9102 9.34748C16.8877 9.34748 16.8651 9.33619 16.8425 9.31363C16.7974 9.31363 16.7636 9.31363 16.741 9.31363H16.6733C16.2897 9.31363 16.098 9.46029 16.098 9.75361C16.098 9.88899 16.1882 10.0357 16.3687 10.1936C17.8805 10.3064 19.5388 11.3894 21.3439 13.4427C23.6453 16.1277 24.7961 19.9634 24.7961 24.9499C24.7961 24.995 24.7848 25.0853 24.7622 25.2207C24.7622 25.356 24.7622 25.4576 24.7622 25.5253V25.8637C24.7622 26.0217 24.7622 26.1006 24.7622 26.1006C24.7848 26.394 24.875 26.6309 25.033 26.8114C25.1909 26.9919 25.3827 27.0821 25.6083 27.0821C25.7889 27.0821 25.9468 26.9919 26.0822 26.8114C26.2175 26.6083 26.2965 26.3263 26.3191 25.9653ZM8.61826 13.815H8.65212H8.7198C8.76493 13.815 8.79878 13.8263 8.82134 13.8488H8.85518C9.41926 13.8488 10.0285 13.5668 10.6828 13.0027C11.3597 12.4386 11.6981 11.9535 11.6981 11.5474C11.6981 11.4346 11.653 11.3218 11.5628 11.2089C11.292 11.051 11.01 10.972 10.7166 10.972C10.1751 10.972 9.63362 11.1977 9.0921 11.6489C8.55058 12.0776 8.27982 12.5627 8.27982 13.1042C8.27982 13.4201 8.39263 13.657 8.61826 13.815Z" fill="#EEEEEE"/>
</svg>
