<svg width="32" height="32" viewBox="0 0 32 32" fill="none" xmlns="http://www.w3.org/2000/svg">
<path d="M6.04602 19.0271C6.45216 19.0271 6.65524 19.2978 6.65524 19.8393C6.65524 20.5388 6.3055 20.8885 5.60604 20.8885C5.65117 20.8885 5.60605 20.8773 5.47067 20.8547H5.33529C5.22248 20.7419 5.16606 20.5275 5.16606 20.2116C5.16606 19.4219 5.45938 19.0271 6.04602 19.0271ZM8.85514 13.8488C8.62951 13.6909 8.51669 13.454 8.51669 13.1381C8.51669 12.6191 8.78746 12.134 9.32897 11.6828C9.87049 11.2315 10.412 11.0059 10.9535 11.0059C11.2468 11.0059 11.5289 11.0848 11.7996 11.2428C11.8899 11.3556 11.935 11.4684 11.935 11.5812C11.935 12.0551 11.5966 12.5627 10.9197 13.1042C10.2428 13.6232 9.63357 13.8827 9.09206 13.8827H9.05821C9.01309 13.8601 8.97924 13.8488 8.95668 13.8488H8.88899H8.85514ZM9.4305 5.92915C9.54332 6.19991 9.59972 6.45939 9.59972 6.70758C9.59972 6.79784 9.56589 7.02347 9.4982 7.38448H9.53204C9.68998 7.36191 10.0397 7.2491 10.5812 7.04603C10.8294 7.0009 11.0776 6.88809 11.3258 6.70758C10.8971 6.45939 10.5925 6.30144 10.412 6.23375C10.2315 6.16606 9.91562 6.06453 9.46435 5.92915H9.4305ZM4.42147 20.4486C4.53429 20.8998 4.80505 21.2947 5.23375 21.6331C5.66245 21.949 6.10244 22.1069 6.5537 22.1069H6.65524C6.76805 22.1069 7.06137 21.949 7.53519 21.6331C7.76082 21.4977 7.91877 21.4301 8.00903 21.4301C8.03159 21.4526 8.07672 21.4639 8.14441 21.4639L8.17825 21.4977C8.31363 21.4977 8.38131 21.5654 8.38131 21.7008C8.38131 21.7459 8.33619 21.87 8.24593 22.0731C8.17824 22.2762 8.14441 22.4228 8.14441 22.5131C8.14441 22.7613 8.33618 22.8854 8.71976 22.8854C8.78745 22.8628 9.13719 22.3664 9.76896 21.3962C10.6038 20.1552 11.5966 19.1399 12.7473 18.3502C13.4242 17.8538 14.2026 17.4138 15.0826 17.0302C15.1051 16.782 15.2067 16.3646 15.3872 15.778C15.7256 14.6724 16.1769 13.7586 16.741 13.0366C16.9892 12.7207 17.2148 12.5627 17.4179 12.5627C17.4856 12.5627 17.5645 12.5966 17.6548 12.6643C17.7676 12.7319 17.824 12.8786 17.824 13.1042C17.824 13.3299 17.6886 13.8037 17.4179 14.5257C16.9892 15.6313 16.7748 16.4436 16.7748 16.9625C16.7748 17.1205 16.7974 17.301 16.8425 17.5041C16.8425 19.5122 15.9964 21.6106 14.3041 23.7992C13.1986 25.2658 12.5781 26.4842 12.4427 27.4544H26.3867C26.4995 26.4616 26.556 25.5027 26.556 24.5776C26.556 20.0424 25.4391 16.2067 23.2053 13.0704C22.6187 12.2356 21.9192 11.4346 21.107 10.6674C20.0014 9.62951 19.1101 9.11056 18.4332 9.11056C18.4106 9.13312 18.3881 9.14441 18.3655 9.14441H18.264C17.6999 9.07672 17.384 9.04287 17.3163 9.04287C17.1133 9.04287 16.9328 9.06543 16.7748 9.11056C16.7297 9.11056 16.662 9.12184 16.5717 9.14441C16.4589 9.14441 16.38 9.14441 16.3348 9.14441C16.2897 9.14441 16.222 9.14441 16.1318 9.14441C16.0189 9.12184 15.94 9.11056 15.8949 9.11056C15.6918 9.04287 15.5226 8.74955 15.3872 8.23059C15.3195 7.84702 15.1954 7.29422 15.0149 6.5722C14.9472 6.32401 14.8118 6.09838 14.6088 5.89531C14.2477 6.95578 13.1986 7.74549 11.4612 8.26444C10.5135 8.55776 9.87049 8.85109 9.53204 9.14441C9.23872 10.1146 8.31362 12.1115 6.75677 15.1349C6.50857 15.6088 5.96705 16.7482 5.13222 18.5532C4.72608 19.3881 4.48916 20.0199 4.42147 20.4486ZM28.1128 29.0113H10.3782C10.4458 27.7703 10.7053 26.6534 11.1566 25.6607C11.5176 24.9161 12.1494 23.9571 13.0519 22.7838C13.7514 21.8813 14.2139 21.2383 14.4395 20.8547C14.8457 20.1552 15.0826 19.3994 15.1503 18.5871C13.819 19.1737 12.815 19.8168 12.1381 20.5162C11.4612 21.1931 10.8407 22.0054 10.2766 22.9531C9.9833 23.4495 9.75767 23.7992 9.59972 24.0023C9.37409 24.2053 9.14847 24.3069 8.92283 24.3069C7.79467 24.194 7.17418 23.7992 7.06137 23.1223C6.81317 23.2577 6.53114 23.3254 6.21526 23.3254C4.90659 23.3254 3.83484 22.4905 3 20.8209C3.18051 19.7604 3.71074 18.2825 4.59071 16.3872C4.79378 15.9359 5.12093 15.2477 5.5722 14.3227C6.36191 12.6981 6.8583 11.6602 7.06137 11.2089C7.60288 10.0131 7.99774 8.93006 8.24593 7.95984C8.31362 7.5537 8.34747 7.20397 8.34747 6.91065C8.34747 6.75271 8.25722 5.97428 8.07671 4.57536H8.14441H8.24593C8.29106 4.57536 8.33619 4.57536 8.38131 4.57536L8.41516 4.54152C9.65613 4.54152 10.9648 4.92509 12.3412 5.69224C12.6345 5.87274 12.7811 5.97428 12.7811 5.99684C13.5483 4.66561 14.1801 4 14.6764 4C15.2857 4.31588 15.782 4.72202 16.1656 5.21841C16.4364 5.64711 16.7184 6.38041 17.0117 7.41832C17.2374 7.37319 17.4743 7.35064 17.7225 7.35064C20.0013 7.35064 22.2351 8.79468 24.4237 11.6828C26.9959 15.0447 28.282 19.6363 28.282 25.4576C28.282 26.6309 28.2256 27.8154 28.1128 29.0113Z" fill="#111111"/>
<path d="M6.046 19.0271C6.45213 19.0271 6.65521 19.2978 6.65521 19.8393C6.65521 20.5388 6.30547 20.8885 5.60601 20.8885C5.65114 20.8885 5.60602 20.8773 5.47064 20.8547H5.33526C5.22245 20.7419 5.16603 20.5275 5.16603 20.2116C5.16603 19.4219 5.45935 19.0271 6.046 19.0271ZM8.85511 13.8488C8.62948 13.6909 8.51667 13.454 8.51667 13.1381C8.51667 12.6191 8.78743 12.134 9.32895 11.6828C9.87046 11.2315 10.412 11.0059 10.9535 11.0059C11.2468 11.0059 11.5289 11.0848 11.7996 11.2428C11.8899 11.3556 11.935 11.4684 11.935 11.5812C11.935 12.0551 11.5965 12.5627 10.9196 13.1042C10.2427 13.6232 9.63355 13.8827 9.09203 13.8827H9.05819C9.01306 13.8601 8.97921 13.8488 8.95665 13.8488H8.88897H8.85511ZM9.43047 5.92915C9.54329 6.19991 9.5997 6.45939 9.5997 6.70758C9.5997 6.79784 9.56586 7.02347 9.49817 7.38448H9.53201C9.68995 7.36192 10.0397 7.2491 10.5812 7.04603C10.8294 7.0009 11.0776 6.88809 11.3258 6.70758C10.8971 6.45939 10.5925 6.30144 10.412 6.23375C10.2315 6.16606 9.91559 6.06453 9.46433 5.92915H9.43047ZM4.42145 20.4486C4.53426 20.8998 4.80503 21.2947 5.23373 21.6331C5.66243 21.949 6.10241 22.107 6.55367 22.107H6.65521C6.76803 22.107 7.06134 21.949 7.53517 21.6331C7.7608 21.4977 7.91875 21.4301 8.009 21.4301C8.03156 21.4526 8.07669 21.4639 8.14438 21.4639L8.17822 21.4977C8.3136 21.4977 8.38129 21.5654 8.38129 21.7008C8.38129 21.7459 8.33616 21.87 8.24591 22.0731C8.17822 22.2762 8.14438 22.4228 8.14438 22.5131C8.14438 22.7613 8.33616 22.8854 8.71973 22.8854C8.78742 22.8628 9.13716 22.3664 9.76893 21.3962C10.6038 20.1552 11.5965 19.1399 12.7473 18.3502C13.4242 17.8538 14.2026 17.4138 15.0825 17.0302C15.1051 16.782 15.2067 16.3646 15.3872 15.778C15.7256 14.6724 16.1769 13.7586 16.7409 13.0366C16.9891 12.7207 17.2148 12.5627 17.4178 12.5627C17.4855 12.5627 17.5645 12.5966 17.6548 12.6643C17.7676 12.7319 17.824 12.8786 17.824 13.1042C17.824 13.3299 17.6886 13.8037 17.4178 14.5257C16.9891 15.6313 16.7748 16.4436 16.7748 16.9625C16.7748 17.1205 16.7974 17.301 16.8425 17.5041C16.8425 19.5122 15.9964 21.6106 14.3041 23.7992C13.1985 25.2658 12.578 26.4842 12.4427 27.4544H26.3867C26.4995 26.4616 26.5559 25.5027 26.5559 24.5776C26.5559 20.0424 25.4391 16.2067 23.2053 13.0704C22.6187 12.2356 21.9192 11.4346 21.1069 10.6674C20.0013 9.62951 19.1101 9.11056 18.4332 9.11056C18.4106 9.13312 18.3881 9.14441 18.3655 9.14441H18.264C17.6999 9.07672 17.384 9.04287 17.3163 9.04287C17.1132 9.04287 16.9327 9.06543 16.7748 9.11056C16.7297 9.11056 16.662 9.12184 16.5717 9.14441C16.4589 9.14441 16.3799 9.14441 16.3348 9.14441C16.2897 9.14441 16.222 9.14441 16.1317 9.14441C16.0189 9.12184 15.94 9.11056 15.8948 9.11056C15.6918 9.04287 15.5225 8.74955 15.3872 8.2306C15.3195 7.84702 15.1954 7.29423 15.0149 6.5722C14.9472 6.32401 14.8118 6.09838 14.6087 5.89531C14.2477 6.95578 13.1985 7.74549 11.4612 8.26444C10.5135 8.55776 9.87046 8.85109 9.53201 9.14441C9.23869 10.1146 8.3136 12.1115 6.75674 15.1349C6.50854 15.6088 5.96703 16.7482 5.13219 18.5533C4.72605 19.3881 4.48914 20.0199 4.42145 20.4486Z" fill="#F7F7F7"/>
</svg>
