<svg width="32" height="32" viewBox="0 0 32 32" fill="none" xmlns="http://www.w3.org/2000/svg">
<path d="M5.81228 29.6728L5 28.8606V25.8822L9.29828 21.6516V13.2243L5.9815 9.97518V6.18457L7.16607 5H10.1782L10.9228 5.74459V6.79377H12.5474V5.74459L13.2581 5H17.9625L18.6733 5.74459V6.79377H20.2978V5.74459L21.0086 5H24.0546L25.2392 6.18457V9.97518L21.9224 13.2243V21.6516L26.2207 25.8822V28.8606L25.3745 29.6728H5.81228ZM10.8213 20.6701V22.0916H20.3994V20.6701H10.8213ZM10.8213 13.0551V14.4765H20.3994V13.0551H10.8213Z" fill="#111111"/>
<path d="M10.8213 20.6701V22.0916H20.3994V20.6701H10.8213ZM10.8213 13.0551V14.4765H20.3994V13.0551H10.8213Z" fill="#F7F7F7"/>
</svg>
