<svg width="256" height="256" viewBox="0 0 256 256" fill="none" xmlns="http://www.w3.org/2000/svg">
<path d="M201.847 205.376H187.952V186.848C187.952 185.62 187.463 184.441 186.595 183.573C185.726 182.704 184.548 182.216 183.319 182.216H179.799L181.559 180.271C191.408 169.293 196.935 155.113 197.115 140.364C197.294 125.617 192.111 111.307 182.532 100.096L143.348 54.333C143.726 52.9915 143.929 51.6051 143.949 50.2108C143.949 44.4201 140.86 39.0685 135.845 36.1715C130.828 33.2762 124.65 33.2762 119.633 36.1715C114.617 39.0684 111.528 44.4201 111.528 50.2108C111.55 51.605 111.752 52.9914 112.13 54.333L72.946 100.048V100.05C63.3511 111.253 58.1543 125.562 58.325 140.31C58.4957 155.058 64.0213 169.245 73.8718 180.225L75.632 182.17H72.1582C69.6009 182.17 67.5259 184.245 67.5259 186.802V205.33H53.6307C51.0734 205.33 49 207.403 49 209.96V233.12C49 234.348 49.487 235.527 50.3554 236.395C51.2254 237.264 52.4025 237.751 53.6307 237.751H201.849C203.077 237.751 204.254 237.264 205.124 236.395C205.993 235.527 206.48 234.348 206.48 233.12V210.007C206.48 208.778 205.993 207.601 205.124 206.731C204.254 205.863 203.077 205.376 201.849 205.376L201.847 205.376ZM127.738 43.2622C130.124 43.2653 132.344 44.4936 133.614 46.5158C134.882 48.5381 135.025 51.0691 133.991 53.2216C133.215 54.7616 131.894 55.9603 130.286 56.5806C128.676 57.201 126.893 57.201 125.283 56.5806C123.673 55.9603 122.353 54.7616 121.578 53.2216C121.12 52.2834 120.882 51.2537 120.883 50.21C120.883 48.3831 121.601 46.6307 122.885 45.3296C124.168 44.03 125.911 43.287 127.738 43.2622ZM80.7719 174.064C72.4257 164.759 67.7438 152.737 67.5993 140.238C67.4535 127.738 71.8563 115.613 79.9838 106.115L117.037 62.5758L117.039 62.5773C119.954 65.0353 123.645 66.3845 127.46 66.3845C131.274 66.3845 134.966 65.0353 137.882 62.5773L153.537 80.8721L123.755 119.177H123.754C122.181 121.198 122.544 124.112 124.565 125.684C126.586 127.258 129.5 126.894 131.072 124.873L160.161 88.0508L175.63 106.115C183.76 115.612 188.16 127.737 188.016 140.237C187.872 152.736 183.19 164.758 174.842 174.063L167.339 182.214H88.1368L80.7719 174.064ZM76.7895 191.479H178.685V205.374H76.7895V191.479ZM197.213 228.533H58.2613V214.637H197.213V228.533Z" fill="black"/>
<path d="M80.7719 174.064C72.4257 164.759 67.7438 152.737 67.5993 140.238C67.4535 127.738 71.8563 115.613 79.9838 106.115L117.037 62.5758L117.039 62.5773C119.954 65.0353 123.645 66.3845 127.46 66.3845C131.274 66.3845 134.966 65.0353 137.882 62.5773L153.537 80.8721L123.755 119.177H123.754C122.181 121.198 122.544 124.112 124.565 125.684C126.586 127.258 129.5 126.894 131.072 124.873L160.161 88.0508L175.63 106.115C183.76 115.612 188.16 127.737 188.016 140.237C187.872 152.736 183.19 164.758 174.842 174.063L167.339 182.214H88.1368L80.7719 174.064Z" fill="white"/>
<path d="M76.7895 191.479H178.685V205.374H76.7895V191.479Z" fill="#DDDDDD"/>
<path d="M197.213 228.533H58.2613V214.637H197.213V228.533Z" fill="white"/>
<path d="M127.738 43.2622C130.124 43.2653 132.344 44.4936 133.614 46.5158C134.882 48.5381 135.025 51.0691 133.991 53.2216C133.215 54.7616 131.894 55.9603 130.286 56.5806C128.676 57.201 126.893 57.201 125.283 56.5806C123.673 55.9603 122.353 54.7616 121.578 53.2216C121.12 52.2834 120.882 51.2537 120.883 50.21C120.883 48.3831 121.601 46.6307 122.885 45.3296C124.168 44.03 125.911 43.287 127.738 43.2622Z" fill="white"/>
</svg>
