<svg width="256" height="256" viewBox="0 0 256 256" fill="none" xmlns="http://www.w3.org/2000/svg">
<path d="M200.748 205.374H186.853V186.846C186.853 185.618 186.364 184.439 185.496 183.571C184.627 182.703 183.449 182.214 182.22 182.214H181.572C195.791 169.801 219.274 145.161 219.274 117.371C219.569 100.781 211.557 85.1406 197.922 75.6855C181.757 65.2641 159.34 66.0517 131.273 77.8628V57.1582H145.168C147.726 57.1582 149.799 55.0847 149.799 52.5275C149.799 49.9687 147.726 47.8952 145.168 47.8952H131.273V38.6323C131.273 36.0734 129.198 34 126.641 34C124.084 34 122.009 36.0734 122.009 38.6323V47.8952H108.113C105.556 47.8952 103.483 49.9687 103.483 52.5275C103.483 55.0847 105.556 57.1582 108.113 57.1582H122.009V77.8628C93.9407 66.0519 71.5253 65.2642 55.3592 75.6855C41.7245 85.1406 33.7133 100.781 34.0079 117.371C34.0079 145.162 57.49 169.804 71.7095 182.214H71.0613C68.504 182.214 66.429 184.289 66.429 186.846V205.374H52.5338C49.9765 205.374 47.9031 207.447 47.9031 210.004V233.164C47.9031 234.392 48.3901 235.57 49.2586 236.44C50.1286 237.308 51.3056 237.795 52.5339 237.795H200.752C201.98 237.795 203.157 237.308 204.027 236.44C204.896 235.57 205.383 234.392 205.383 233.164V210.004C205.383 208.776 204.896 207.599 204.027 206.729C203.157 205.861 201.98 205.374 200.752 205.374L200.748 205.374ZM43.2675 117.37C43.0225 103.926 49.3933 91.2183 60.3126 83.3727C74.718 74.1097 96.9503 76.194 124.647 89.1154C125.894 89.7016 127.336 89.7016 128.583 89.1154C156.374 76.1924 178.558 74.2015 192.918 83.3727C203.855 91.2088 210.244 103.918 210.01 117.37C210.01 148.587 173.511 177.21 166.796 182.212H86.4813C79.7647 177.258 43.2675 148.633 43.2675 117.37ZM75.6902 191.479H177.586V205.374H75.6902V191.479ZM196.114 228.532H57.162V214.637H196.114V228.532Z" fill="black"/>
<path d="M43.2675 117.37C43.0225 103.926 49.3933 91.2183 60.3126 83.3727C74.718 74.1097 96.9503 76.194 124.647 89.1154C125.894 89.7016 127.336 89.7016 128.583 89.1154C156.374 76.1924 178.558 74.2015 192.918 83.3727C203.855 91.2088 210.244 103.918 210.01 117.37C210.01 148.587 173.511 177.21 166.796 182.212H86.4813C79.7647 177.258 43.2675 148.633 43.2675 117.37Z" fill="#555555"/>
<path d="M75.6902 191.479H177.586V205.374H75.6902V191.479Z" fill="#333333"/>
<path d="M196.114 228.532H57.162V214.637H196.114V228.532Z" fill="#555555"/>
</svg>
