<svg width="256" height="256" viewBox="0 0 256 256" fill="none" xmlns="http://www.w3.org/2000/svg">
<path d="M201.748 205.374H187.853V186.846C187.853 185.618 187.364 184.439 186.496 183.571C185.627 182.703 184.449 182.214 183.22 182.214H182.572C196.791 169.801 220.274 145.161 220.274 117.371C220.569 100.781 212.557 85.1406 198.922 75.6855C182.757 65.2641 160.34 66.0517 132.273 77.8628V57.1582H146.168C148.726 57.1582 150.799 55.0847 150.799 52.5275C150.799 49.9687 148.726 47.8952 146.168 47.8952H132.273V38.6323C132.273 36.0734 130.198 34 127.641 34C125.084 34 123.009 36.0734 123.009 38.6323V47.8952H109.113C106.556 47.8952 104.483 49.9687 104.483 52.5275C104.483 55.0847 106.556 57.1582 109.113 57.1582H123.009V77.8628C94.9407 66.0519 72.5253 65.2642 56.3592 75.6855C42.7245 85.1406 34.7133 100.781 35.0079 117.371C35.0079 145.162 58.49 169.804 72.7095 182.214H72.0613C69.504 182.214 67.429 184.289 67.429 186.846V205.374H53.5338C50.9765 205.374 48.9031 207.447 48.9031 210.004V233.164C48.9031 234.392 49.3901 235.57 50.2586 236.44C51.1286 237.308 52.3056 237.795 53.5339 237.795H201.752C202.98 237.795 204.157 237.308 205.027 236.44C205.896 235.57 206.383 234.392 206.383 233.164V210.004C206.383 208.776 205.896 207.599 205.027 206.729C204.157 205.861 202.98 205.374 201.752 205.374L201.748 205.374ZM44.2675 117.37C44.0225 103.926 50.3933 91.2183 61.3126 83.3727C75.718 74.1097 97.9503 76.194 125.647 89.1154C126.894 89.7016 128.336 89.7016 129.583 89.1154C157.374 76.1924 179.558 74.2015 193.918 83.3727C204.855 91.2088 211.244 103.918 211.01 117.37C211.01 148.587 174.511 177.21 167.796 182.212H87.4813C80.7647 177.258 44.2675 148.633 44.2675 117.37ZM76.6902 191.479H178.586V205.374H76.6902V191.479ZM197.114 228.532H58.162V214.637H197.114V228.532Z" fill="black"/>
<path d="M44.2675 117.37C44.0225 103.926 50.3933 91.2183 61.3126 83.3727C75.718 74.1097 97.9503 76.194 125.647 89.1154C126.894 89.7016 128.336 89.7016 129.583 89.1154C157.374 76.1924 179.558 74.2015 193.918 83.3727C204.855 91.2088 211.244 103.918 211.01 117.37C211.01 148.587 174.511 177.21 167.796 182.212H87.4813C80.7647 177.258 44.2675 148.633 44.2675 117.37Z" fill="white"/>
<path d="M76.6902 191.479H178.586V205.374H76.6902V191.479Z" fill="#DDDDDD"/>
<path d="M197.114 228.532H58.162V214.637H197.114V228.532Z" fill="white"/>
</svg>
