<svg width="180" height="180" viewBox="0 0 180 180" fill="none" xmlns="http://www.w3.org/2000/svg">
<path d="M60.6797 75.3384V117.602H114.937V75.3384H60.6797ZM32.6941 167.671L28.125 163.102V146.73L52.4933 122.171V74.5768L31.5518 56.3006V34.7882L38.4054 28.125H59.7274L63.9157 32.1229V38.215H70.7692V32.1229L74.7675 28.125H101.039L105.037 32.1229V38.215H111.701V32.1229L115.888 28.125H137.401L144.255 34.7882V56.3006L123.313 74.5768V122.171L147.682 146.73V163.102L143.112 167.671H32.6941ZM36.5016 149.014V158.152H139.305V149.014H36.5016ZM59.7274 125.408L44.1166 140.638H131.69L116.079 125.408H59.7274ZM78.7652 38.0246V44.1166L75.3384 47.5435H59.9181L56.3006 44.1166V37.6439H42.9744L39.9284 40.8803V54.2066L56.1104 67.3425H119.696L135.878 54.2066V40.8803L132.832 37.6439H119.506V44.1166L115.888 47.5435H100.468L97.0414 44.1166V38.0246H78.7652Z" fill="#393E46"/>
<path d="M60.6797 75.3384V117.602H114.937V75.3384H60.6797ZM36.5017 149.014V158.152H139.305V149.014H36.5017ZM59.7279 125.408L44.1168 140.637H131.69L116.079 125.408H59.7279ZM78.7652 38.0246V44.1166L75.3384 47.5434H59.918L56.3012 44.1166V37.6438H42.9745L39.9285 40.8802V54.2066L56.1105 67.3425H119.697L135.879 54.2066V40.8802L132.833 37.6438H119.506V44.1166L115.889 47.5434H100.468L97.0414 44.1166V38.0246H78.7652Z" fill="#F2F2F2"/>
</svg>
