<svg width="50" height="50" viewBox="0 0 50 50" fill="none" xmlns="http://www.w3.org/2000/svg">
<path fill-rule="evenodd" clip-rule="evenodd" d="M26.178 9.39501C28.778 9.56501 31.182 10.233 33.4 11.41C35.61 12.579 37.498 14.086 39.056 15.923C40.148 17.21 41.173 18.768 42.138 20.588C43.1184 22.4228 43.8963 24.3589 44.458 26.362C45.1328 28.7986 45.5528 31.2987 45.711 33.822C45.888 36.421 45.973 38.834 45.973 41.052V46.454H15.468C15.315 46.454 15.248 46.047 15.256 45.244C15.265 44.43 15.316 43.778 15.416 43.279C15.476 42.881 15.637 42.322 15.883 41.594C16.137 40.866 16.543 39.985 17.127 38.944C17.39 38.41 18.017 37.64 19.007 36.624C20.006 35.608 21.14 34.423 22.436 33.085C23.181 32.323 23.756 31.366 24.18 30.206C24.603 29.055 24.781 28.005 24.713 27.056C24.105 27.5549 23.4297 27.9656 22.707 28.276C19.202 29.529 16.662 31.349 15.095 33.728C14.977 33.881 14.605 34.55 13.978 35.743C13.648 36.37 13.36 36.802 13.131 37.03C12.818 37.344 12.361 37.521 11.768 37.555C10.845 37.598 10.125 37.157 9.60801 36.209C8.91501 36.412 8.29601 36.497 7.74601 36.463C6.82301 36.116 6.15401 35.743 5.74001 35.346C4.89301 34.499 4.35101 33.661 4.08901 32.814C3.82936 31.9289 3.70099 31.0104 3.70801 30.088C3.70801 28.699 4.56301 26.862 6.29001 24.576C8.30501 21.951 9.38001 19.945 9.50701 18.573C9.50701 17.98 9.56701 17.312 9.68501 16.566C9.79275 16.0341 10.0026 15.5281 10.303 15.076C10.523 14.746 10.667 14.518 10.735 14.399C10.811 14.272 10.947 14.086 11.15 13.84C11.294 13.637 11.42 13.485 11.522 13.383C11.615 13.273 11.742 13.129 11.895 12.943C12.073 12.731 12.301 12.486 12.589 12.198C11.7127 9.81404 11.3491 7.27204 11.522 4.73801C14.807 5.90701 17.576 7.75301 19.802 10.268C20.353 8.39601 21.428 6.88101 23.028 5.72901C24.349 6.65201 25.399 7.87901 26.178 9.39501V9.39501Z" fill="#151D3B"/>
<path fill-rule="evenodd" clip-rule="evenodd" d="M15.688 17.786L16.23 17.506C16.73 17.312 16.882 16.947 16.704 16.414C16.509 15.923 16.128 15.754 15.561 15.923C13.614 16.634 12.267 17.938 11.522 19.843C11.404 20.385 11.598 20.757 12.115 20.961C12.631 21.121 12.979 20.944 13.156 20.411C13.292 20.131 13.385 19.945 13.453 19.868C13.639 20.012 13.876 20.114 14.173 20.165C15.18 20.325 15.773 19.885 15.933 18.827C15.9822 18.4617 15.895 18.091 15.688 17.786V17.786ZM11.573 34.55C11.633 34.397 11.743 34.177 11.895 33.88C12.175 33.187 12.31 32.772 12.31 32.636C12.284 32.179 12.039 31.942 11.59 31.942C11.26 31.942 10.879 32.416 10.43 33.356C10.3603 33.4936 10.2588 33.6125 10.134 33.703C9.68499 34.169 9.75299 34.558 10.328 34.871C10.862 35.185 11.268 35.083 11.573 34.55ZM26.203 25.346C27.363 23.822 27.931 22.129 27.913 20.266C27.846 19.716 27.533 19.446 26.973 19.446C26.212 19.446 25.916 19.725 26.076 20.283C26.127 21.198 26.043 21.951 25.806 22.544C25.424 23.484 25.001 24.187 24.544 24.652C24.29 25.152 24.442 25.516 24.993 25.744C25.518 25.99 25.924 25.863 26.203 25.346V25.346ZM19.726 13.24C19.6511 12.5975 19.6683 11.9476 19.777 11.31C18.787 11.504 17.855 11.97 16.975 12.698C16.45 12.978 16.323 13.368 16.602 13.867C16.882 14.375 17.272 14.459 17.771 14.112C18.118 13.926 18.44 13.757 18.727 13.604C19.015 13.444 19.345 13.324 19.727 13.24H19.726ZM42.976 44.694C42.959 44.694 42.976 44.245 43.018 43.348C43.149 40.24 43.114 37.127 43.094 34.018C43.0739 31.7853 42.7753 29.5638 42.205 27.405C41.365 24.095 40.081 20.92 38.133 18.108C35.499 14.263 31.319 12.075 26.847 11.132C26.973 11.898 26.88 12.672 26.923 13.443C28.4975 13.9728 30.0172 14.6533 31.461 15.475C35.702 18.03 37.875 22.751 38.658 27.405C39.93 33.559 39.111 38.962 39.471 44.694H42.976ZM9.43899 30.139C9.91399 29.799 9.96399 29.41 9.58299 28.945C9.18499 28.564 8.75299 28.53 8.27099 28.843C7.26399 29.503 6.72099 30.376 6.65399 31.451C6.67099 31.993 7.00099 32.255 7.62799 32.221C8.21999 32.171 8.50799 31.866 8.49099 31.299C8.62699 30.774 8.93999 30.384 9.43899 30.139V30.139Z" fill="url(#paint0_linear_1_195)"/>
<defs>
<linearGradient id="paint0_linear_1_195" x1="21.253" y1="37.592" x2="77.641" y2="37.469" gradientUnits="userSpaceOnUse">
<stop stop-color="#EEEEEE"/>
<stop offset="1" stop-color="#EEEEEE" stop-opacity="0"/>
</linearGradient>
</defs>
</svg>
