<svg width="50" height="50" viewBox="0 0 50 50" fill="none" xmlns="http://www.w3.org/2000/svg">
<path fill-rule="evenodd" clip-rule="evenodd" d="M25 46.448H11.606C10.9472 44.8486 10.6108 43.1348 10.616 41.405C10.616 38.43 11.479 35.761 13.214 33.387C14.95 31.022 17.185 29.333 19.911 28.32C18.753 27.8021 17.7622 26.9717 17.05 25.922C16.313 24.851 15.95 23.639 15.95 22.288C15.95 20.598 16.525 19.132 17.685 17.896C18.836 16.652 20.259 15.935 21.952 15.746C20.606 14.765 19.937 13.463 19.937 11.856C19.937 10.505 20.428 9.343 21.419 8.379C22.401 7.415 23.595 6.937 25 6.937C26.389 6.937 27.582 7.415 28.573 8.379C29.564 9.343 30.063 10.505 30.063 11.856C30.063 13.463 29.394 14.765 28.048 15.746C29.741 15.935 31.164 16.652 32.315 17.896C33.475 19.132 34.051 20.599 34.051 22.288C34.051 23.639 33.678 24.851 32.925 25.922C32.2044 26.9645 31.2155 27.793 30.063 28.32C32.789 29.333 35.025 31.022 36.76 33.387C38.496 35.761 39.36 38.43 39.36 41.405C39.36 43.144 39.038 44.825 38.394 46.448H25Z" fill="#151D3B"/>
</svg>
