<svg width="50" height="50" viewBox="0 0 50 50" fill="none" xmlns="http://www.w3.org/2000/svg">
<path fill-rule="evenodd" clip-rule="evenodd" d="M44.541 14.723C43.601 14.723 42.797 14.393 42.137 13.741C41.477 13.089 41.146 12.293 41.146 11.345C41.146 10.422 41.476 9.626 42.136 8.957C42.796 8.28 43.601 7.95 44.541 7.95C45.472 7.95 46.268 8.28 46.929 8.957C47.589 9.627 47.919 10.422 47.919 11.345C47.919 12.293 47.589 13.089 46.929 13.741C46.6181 14.0577 46.2462 14.3081 45.8357 14.4769C45.4252 14.6457 44.9848 14.7294 44.541 14.723ZM40.231 43.942C39.419 44.652 37.598 45.246 34.771 45.728C31.943 46.202 28.683 46.448 25 46.448C21.25 46.448 17.947 46.194 15.102 45.703C12.258 45.203 10.462 44.585 9.718 43.84L11.284 37.888L10.59 33.993L8.405 30.2L6.297 14.774L7.507 14.3L14.307 25.755L14.459 12.115L16.144 11.819L21.326 25.535L24.102 10.778H25.822L28.598 25.484L33.73 11.82L35.44 12.116L35.593 25.756L42.417 14.276L43.577 14.817L41.519 30.176L39.309 33.969L38.615 37.914L40.231 43.942ZM14.535 11.988C13.587 11.988 12.783 11.667 12.122 11.015C11.462 10.363 11.132 9.559 11.132 8.619C11.132 7.696 11.462 6.9 12.122 6.239C12.782 5.578 13.587 5.249 14.535 5.249C15.458 5.249 16.254 5.579 16.915 6.239C17.576 6.899 17.905 7.696 17.905 8.619C17.905 9.559 17.575 10.363 16.915 11.015C16.6048 11.3298 16.2339 11.5783 15.8248 11.7456C15.4157 11.9128 14.9769 11.9953 14.535 11.988V11.988ZM5.4 14.723C4.46 14.723 3.664 14.393 3.012 13.741C2.36 13.089 2.03 12.293 2.03 11.345C2.03 10.422 2.36 9.626 3.012 8.957C3.664 8.28 4.46 7.95 5.4 7.95C6.348 7.95 7.144 8.28 7.813 8.957C8.473 9.627 8.803 10.422 8.803 11.345C8.803 12.293 8.473 13.089 7.813 13.741C7.49768 14.0588 7.1214 14.3096 6.70674 14.4783C6.29209 14.6471 5.84762 14.7303 5.4 14.723ZM24.95 10.753C24.01 10.753 23.205 10.423 22.553 9.762C21.901 9.102 21.579 8.297 21.579 7.357C21.579 6.426 21.901 5.63 22.553 4.97C23.205 4.31 24.009 3.98 24.949 3.98C25.872 3.98 26.676 4.31 27.345 4.97C27.6672 5.27743 27.9224 5.64818 28.0945 6.05896C28.2666 6.46974 28.3519 6.91168 28.345 7.357C28.345 8.297 28.015 9.101 27.345 9.762C26.676 10.422 25.872 10.752 24.949 10.752L24.95 10.753ZM35.363 11.988C34.423 11.988 33.627 11.667 32.976 11.015C32.324 10.363 31.993 9.559 31.993 8.619C31.993 7.696 32.323 6.9 32.976 6.239C33.629 5.578 34.423 5.249 35.363 5.249C36.311 5.249 37.116 5.579 37.776 6.239C38.436 6.899 38.766 7.696 38.766 8.619C38.766 9.559 38.436 10.363 37.776 11.015C37.116 11.667 36.311 11.988 35.363 11.988V11.988Z" fill="#151D3B" stroke="#151D3B" stroke-width="0.076"/>
<path fill-rule="evenodd" clip-rule="evenodd" d="M38.217 43.044C35.194 41.791 30.8 41.164 25.051 41.164C19.175 41.164 14.738 41.808 11.724 43.095C14.62 44.238 19.04 44.805 24.974 44.805C27.819 44.805 30.419 44.653 32.772 44.34C35.135 44.026 36.947 43.595 38.217 43.044V43.044ZM24.949 9.017C26.059 9.017 26.609 8.457 26.609 7.357C26.609 6.265 26.059 5.715 24.949 5.715C23.857 5.715 23.315 6.265 23.315 7.357C23.315 8.457 23.857 9.017 24.949 9.017ZM37.573 33.993C34.381 33.181 30.207 32.783 25.051 32.783C19.759 32.783 15.534 33.189 12.376 34.019L12.749 36.398C15.966 35.636 20.072 35.255 25.051 35.255C29.995 35.255 34.026 35.627 37.15 36.372L37.573 33.993ZM38.191 32.503L39.808 29.65C39.0363 29.9639 38.2111 30.1249 37.378 30.124C35.16 30.124 33.391 29.227 32.07 27.424C31.08 28.244 29.97 28.659 28.742 28.659C27.159 28.659 25.889 28.041 24.949 26.797C23.891 27.957 22.629 28.541 21.156 28.541C19.962 28.541 18.87 28.135 17.88 27.321C16.491 29.091 14.696 29.971 12.495 29.971C11.6384 29.9694 10.7892 29.8119 9.989 29.506L11.724 32.478C14.934 31.555 19.344 31.089 24.949 31.089C30.656 31.089 35.067 31.563 38.191 32.503V32.503ZM27.083 26.577L24.975 14.444L22.866 26.433C22.917 26.399 23.027 26.314 23.214 26.179C23.594 25.434 24.17 25.061 24.949 25.061C25.796 25.061 26.338 25.434 26.583 26.179C26.685 26.28 26.854 26.416 27.083 26.577V26.577ZM33.949 27.051V15.56L29.859 26.821C30.173 26.711 30.436 26.559 30.656 26.381C30.986 25.966 31.435 25.754 31.994 25.754C32.654 25.754 33.187 26.051 33.585 26.626C33.628 26.694 33.687 26.762 33.755 26.838C33.822 26.914 33.89 26.982 33.949 27.05V27.051ZM20.013 26.704L15.95 15.562V26.898C15.993 26.831 16.069 26.754 16.17 26.653C16.5 25.959 17.042 25.611 17.804 25.611C18.431 25.611 18.947 25.874 19.345 26.407C19.794 26.602 20.015 26.704 20.015 26.704H20.013ZM13.713 28.092L8.38 18.89L9.743 27.272C10.683 27.932 11.606 28.262 12.495 28.262C12.842 28.262 13.248 28.203 13.714 28.093L13.713 28.092ZM36.108 28.211C36.489 28.329 36.913 28.389 37.378 28.389C38.386 28.389 39.326 28.075 40.206 27.449L41.569 18.864L36.108 28.211ZM37.598 40.767L36.853 37.964C33.611 37.254 29.648 36.898 24.949 36.898C20.301 36.898 16.339 37.253 13.071 37.964L12.3 40.792C15.373 39.861 19.598 39.404 24.975 39.404C30.215 39.404 34.423 39.852 37.598 40.767V40.767ZM14.535 10.253C15.619 10.253 16.169 9.711 16.169 8.619C16.169 7.527 15.619 6.985 14.535 6.985C13.426 6.985 12.867 7.527 12.867 8.619C12.867 9.711 13.427 10.253 14.535 10.253ZM35.363 10.253C36.473 10.253 37.031 9.711 37.031 8.619C37.031 7.527 36.472 6.985 35.363 6.985C34.28 6.985 33.729 7.527 33.729 8.619C33.729 9.711 34.279 10.253 35.363 10.253ZM5.4 12.988C6.509 12.988 7.068 12.438 7.068 11.345C7.068 10.235 6.508 9.685 5.4 9.685C4.316 9.685 3.766 10.235 3.766 11.345C3.766 12.437 4.316 12.988 5.4 12.988ZM44.541 12.988C45.633 12.988 46.184 12.438 46.184 11.345C46.184 10.235 45.634 9.685 44.541 9.685C43.441 9.685 42.881 10.235 42.881 11.345C42.881 12.437 43.441 12.988 44.541 12.988Z" fill="url(#paint0_linear_1_209)" stroke="#151D3B" stroke-width="0.076"/>
<defs>
<linearGradient id="paint0_linear_1_209" x1="21.253" y1="37.224" x2="77.641" y2="37.346" gradientUnits="userSpaceOnUse">
<stop stop-color="white"/>
<stop offset="1" stop-color="white" stop-opacity="0"/>
</linearGradient>
</defs>
</svg>
