<svg width="50" height="50" viewBox="0 0 50 50" fill="none" xmlns="http://www.w3.org/2000/svg">
<path fill-rule="evenodd" clip-rule="evenodd" d="M25.004 5.75C23.321 5.75 21.9568 6.8485 21.957 8.2026C21.957 8.70558 22.1515 9.19601 22.5109 9.6076C19.9702 12.9144 13.7298 19.4078 13.5255 25.9436C13.4387 29.3187 17.4586 34.6673 17.6327 35.2033C17.8067 35.7393 18.9655 36.1372 20.9011 36.38C19.5706 40.9705 10.8031 35.3014 6.75412 39.7508L8.59582 44.25C14.1687 41.1277 18.5629 47.3994 25.0048 40.8284V40.8295C31.4457 47.3987 35.8398 41.128 41.4118 44.2501L43.2541 39.7509C39.2043 35.3016 30.4371 40.9706 29.1061 36.3801C31.0416 36.1373 32.2005 35.7394 32.3745 35.2034C32.5486 34.6674 36.5684 29.3188 36.4817 25.9437C36.2775 19.408 30.0371 12.9147 27.4964 9.6077C27.8559 9.19615 28.0503 8.70572 28.0503 8.2027C28.0505 6.8488 26.6868 5.7505 25.0043 5.7501L25.004 5.75Z" fill="#CA2845" stroke="#1E1E1E" stroke-width="1.5" stroke-linejoin="round"/>
<path opacity="0.5" fill-rule="evenodd" clip-rule="evenodd" d="M25.004 21.106C24.305 21.106 23.9847 21.4476 23.9847 22.1307V24.5839H21.5965C20.9558 24.5839 20.6354 24.8945 20.6354 25.5155C20.6354 26.1365 20.9557 26.4471 21.5965 26.4471H23.9847V28.9002C23.9847 29.5833 24.3341 29.9249 25.004 29.9249C25.6738 29.9249 26.0233 29.5833 26.0233 28.9002V26.4471H28.4989C29.1106 26.4471 29.4308 26.1365 29.4308 25.5155C29.4308 24.8945 29.1106 24.5839 28.4989 24.5839H26.0233V22.1307C26.0233 21.4476 25.6738 21.106 25.004 21.106Z" fill="#00072B"/>
<path opacity="0.25" fill-rule="evenodd" clip-rule="evenodd" d="M25.004 5.74989C24.1767 5.7501 23.3844 6.02068 22.8103 6.50017C26.7469 6.69384 26.8551 8.76157 25.8824 9.97467C26.9838 12.3686 28.7022 14.1749 30.043 16.4064C30.043 16.4064 41.647 38.2944 16.685 33.6594C16.685 33.6594 17.3142 35.2119 18.7151 35.9394C19.4151 36.303 19.8789 36.3348 20.9003 36.38C22.2235 36.4609 26.2337 36.9172 27.2061 37.0706C29.1434 44.1263 40.5381 37.0819 42.3331 42.0007L43.2542 39.7511C39.5283 35.2987 33.2579 40.8142 29.1972 36.441C30.5763 36.2267 31.5891 35.8375 32.151 35.5427C32.151 35.3999 36.5727 29.4778 36.482 25.9439C36.2776 19.4091 30.0389 12.9169 27.4974 9.60886C27.8567 9.19682 28.0506 8.70544 28.0511 8.20196C28.0511 6.84766 26.6867 5.74996 25.0036 5.74986L25.004 5.74989Z" fill="#00072B"/>
<path opacity="0.25" fill-rule="evenodd" clip-rule="evenodd" d="M23.797 6.8981C23.0835 7.21782 22.5321 7.84831 22.7955 8.6767C22.8795 8.9973 23.1103 9.18416 23.2612 9.46665C23.3277 9.74504 23.2501 10.0056 23.1181 10.1968C21.5425 12.1435 17.5522 16.6085 15.7043 20.7958C14.9996 22.5315 14.1387 24.5416 14.3082 26.444C14.7826 29.8566 17.6962 33.8358 17.6962 33.8358C17.6962 33.8358 15.643 29.4789 15.4502 26.8146C15.4179 19.7352 21.25 14.3906 23.7511 9.71555C23.3723 8.13825 22.5787 8.25095 23.7971 6.89775L23.797 6.8981Z" fill="#FFD0C1"/>
<path opacity="0.25" fill-rule="evenodd" clip-rule="evenodd" d="M9.01001 43.191C9.01001 43.1325 7.66501 39.9292 7.66501 39.9292C10.5854 37.3691 16.0341 39.6299 18.894 38.9766C14.6079 39.8239 11.2554 38.4668 8.82501 40.0679L9.01001 43.191Z" fill="#FFD0C1"/>
</svg>
