<svg width="50" height="50" viewBox="0 0 50 50" fill="none" xmlns="http://www.w3.org/2000/svg">
<path fill-rule="evenodd" clip-rule="evenodd" d="M25 5.75C23.317 5.75 21.9528 6.8485 21.953 8.2026C21.953 8.70558 22.1475 9.19601 22.5069 9.6076C19.9662 12.9144 13.7258 19.4078 13.5216 25.9436C13.4348 29.3187 17.4547 34.6673 17.6288 35.2033C17.8028 35.7393 18.9616 36.1372 20.8972 36.38C19.5667 40.9705 10.8002 35.3014 6.75021 39.7508L8.59191 44.25C14.1648 41.1277 18.559 47.3994 24.9999 40.8284V40.8295C31.4407 47.3987 35.8349 41.128 41.4069 44.2501L43.2492 39.7509C39.1994 35.3016 30.4322 40.9706 29.1012 36.3801C31.0367 36.1373 32.1956 35.7394 32.3696 35.2034C32.5437 34.6674 36.5635 29.3188 36.4767 25.9437C36.2725 19.408 30.0321 12.9147 27.4914 9.6077C27.8509 9.19615 28.0453 8.70572 28.0453 8.2027C28.0455 6.8488 26.6818 5.7505 24.9994 5.7501L25 5.75Z" fill="#EFD5FF" stroke="#2A2A2A" stroke-width="1.5" stroke-linejoin="round"/>
<path opacity="0.5" fill-rule="evenodd" clip-rule="evenodd" d="M25 21.106C24.301 21.106 23.9807 21.4476 23.9807 22.1307V24.5839H21.5925C20.9517 24.5839 20.6314 24.8945 20.6314 25.5155C20.6314 26.1365 20.9517 26.4471 21.5925 26.4471H23.9807V28.9002C23.9807 29.5833 24.3301 29.9249 25 29.9249C25.6698 29.9249 26.0193 29.5833 26.0193 28.9002V26.4471H28.4949C29.1066 26.4471 29.4268 26.1365 29.4268 25.5155C29.4268 24.8945 29.1066 24.5839 28.4949 24.5839H26.0193V22.1307C26.0193 21.4476 25.6698 21.106 25 21.106Z" fill="#610084"/>
<path opacity="0.2" fill-rule="evenodd" clip-rule="evenodd" d="M25 5.74989C24.1727 5.7501 23.3804 6.02068 22.8063 6.50017C26.7428 6.69384 26.8511 8.76157 25.8784 9.97467C26.9798 12.3686 28.6981 14.1749 30.039 16.4064C30.039 16.4064 41.643 38.2944 16.681 33.6594C16.681 33.6594 17.3102 35.2119 18.7111 35.9394C19.4111 36.303 19.8749 36.3348 20.8963 36.38C22.2195 36.4609 26.2296 36.9172 27.2021 37.0706C29.1394 44.1263 40.5341 37.0819 42.3291 42.0007L43.2502 39.7511C39.5244 35.2987 33.254 40.8142 29.1932 36.441C30.5723 36.2267 31.5851 35.8375 32.147 35.5427C32.147 35.3999 36.5687 29.4778 36.478 25.9439C36.2736 19.4091 30.0349 12.9169 27.4935 9.60886C27.8528 9.19682 28.0467 8.70544 28.0472 8.20196C28.0472 6.84766 26.6828 5.74996 24.9997 5.74986L25 5.74989Z" fill="#610084"/>
<path fill-rule="evenodd" clip-rule="evenodd" d="M23.793 6.8981C23.0795 7.21782 22.5281 7.84831 22.7915 8.6767C22.8755 8.9973 23.1063 9.18416 23.2572 9.46665C23.3237 9.74504 23.2461 10.0056 23.1141 10.1968C21.5385 12.1435 17.5483 16.6084 15.7003 20.7958C14.9956 22.5315 14.1347 24.5416 14.3042 26.444C14.7786 29.8566 17.6922 33.8358 17.6922 33.8358C17.6922 33.8358 15.639 29.4789 15.4462 26.8146C15.4139 19.7352 21.246 14.3906 23.747 9.71555C23.3682 8.13825 22.5746 8.25095 23.793 6.89775V6.8981Z" fill="#FFEEFA"/>
<path fill-rule="evenodd" clip-rule="evenodd" d="M9.00649 43.191C9.00649 43.1325 7.66159 39.9292 7.66159 39.9292C10.582 37.3691 16.0306 39.6299 18.8906 38.9766C14.6045 39.8239 11.252 38.4668 8.82159 40.0679L9.00649 43.191Z" fill="#FFEEFA"/>
</svg>
