<svg width="50" height="50" viewBox="0 0 50 50" fill="none" xmlns="http://www.w3.org/2000/svg">
<path fill-rule="evenodd" clip-rule="evenodd" d="M19.1298 5.76172C16.7453 5.76172 14.8123 7.64498 14.8123 9.96668C14.8123 11.8732 16.1352 13.5398 18.0287 14.0263V24.7722L12.7352 17.5566C13.2142 16.8636 13.4709 16.0472 13.4709 15.2119C13.4709 12.8896 11.5374 11.0072 9.15219 11.0072C6.76754 11.0072 4.83374 12.8901 4.83374 15.2119C4.89792 17.2728 6.74491 18.8866 9.10784 19.4155L9.97563 23.4951L11.7131 31.6551L14.4438 36.654L15.5492 42.8846C15.5492 43.6554 19.8135 44.2804 25.0747 44.2804C30.336 44.2804 34.6011 43.6555 34.6006 42.8846L35.7063 36.654L38.4367 31.6551L40.1744 23.4951L41.0422 19.4155C43.4048 18.8866 45.2519 17.2728 45.3153 15.2119C45.3153 12.8901 43.3828 11.0078 40.9981 11.0072C38.6127 11.0072 36.679 12.8896 36.6792 15.2119C36.6792 16.0472 36.9355 16.8636 37.4144 17.5566L32.1211 24.7722V14.0263C34.0143 13.5398 35.3345 11.8732 35.337 9.96668C35.337 7.64479 33.4047 5.7622 31.02 5.76172C28.6345 5.76172 26.7002 7.64411 26.7008 9.96668C26.7008 11.3389 27.3936 12.6235 28.5499 13.408L25.0747 23.3882L21.5989 13.408C22.7553 12.6235 23.449 11.3389 23.449 9.96668C23.449 7.6443 21.5154 5.76201 19.1303 5.76172H19.1298Z" fill="#CA2845" stroke="#1E1E1E" stroke-width="1.49996"/>
<path opacity="0.25" fill-rule="evenodd" clip-rule="evenodd" d="M41.3451 10.673C42.2837 11.6222 44.6021 15.7969 39.294 19.0822L34.169 32.0398C27.2953 33.2491 19.661 33.5353 14.1062 31.6355L15.9874 34.6445C22.4968 36.8549 33.5683 35.1142 33.5683 35.1142C32.5079 38.5522 31.022 41.7079 27.9744 44.1901C27.9744 44.1901 32.437 44.3057 34.5031 42.8649L36.0533 36.3198L38.783 31.3216L40.5217 23.1614L41.3887 19.0822C43.7513 18.5533 45.5989 16.9397 45.6624 14.8789C45.6624 12.5571 43.7301 10.6736 41.3453 10.673H41.3451Z" fill="#00072B"/>
<path opacity="0.25" fill-rule="evenodd" clip-rule="evenodd" d="M19.1298 5.76172C18.8679 5.76172 18.6129 5.78868 18.3638 5.83201C21.3554 7.61763 20.744 11.6101 19.9489 12.9334L25.0749 21.2713L24.3081 19.5366L21.5989 13.4083C22.7553 12.6237 23.449 11.3391 23.449 9.96691C23.449 7.64454 21.5156 5.76224 19.1303 5.76195L19.1298 5.76172Z" fill="#010101"/>
<path opacity="0.25" fill-rule="evenodd" clip-rule="evenodd" d="M30.978 5.76172C30.7161 5.76172 30.4605 5.78868 30.2114 5.83201C34.7157 7.10129 31.9657 12.1548 30.8577 12.5619L32.0796 22.6556L32.0793 21.179V14.0268C33.9724 13.5402 35.293 11.8738 35.2955 9.96715C35.2955 7.64526 33.3627 5.76277 30.978 5.76219V5.76172Z" fill="#010101"/>
<path opacity="0.25" fill-rule="evenodd" clip-rule="evenodd" d="M9.05878 10.9619C8.79664 10.9619 8.54134 10.9879 8.29224 11.0322C11.536 12.2312 11.3139 15.3327 10.641 17.4323L17.9355 24.7266L12.6418 17.5115C13.1209 16.8185 13.3775 16.002 13.3775 15.1669C13.3775 12.8444 11.444 10.9621 9.05878 10.9621V10.9619Z" fill="#010101"/>
<path opacity="0.25" fill-rule="evenodd" clip-rule="evenodd" d="M6.88691 12.4064C6.88691 12.4064 3.61395 15.0128 7.00816 17.7151C6.78887 17.1666 6.10226 13.9525 6.88691 12.4064Z" fill="#FFD0C1"/>
<path opacity="0.25" fill-rule="evenodd" clip-rule="evenodd" d="M17.3527 6.91745C16.9938 6.76184 14.0495 9.11502 16.201 12.0656C16.2997 11.588 15.3651 8.30094 17.3527 6.91745Z" fill="#FFD0C1"/>
<path opacity="0.25" fill-rule="evenodd" clip-rule="evenodd" d="M29.4969 6.82108C29.138 6.66546 25.9927 8.99802 28.1895 12.0219C28.0214 11.4682 27.4712 7.78904 29.4969 6.82108Z" fill="#FFD0C1"/>
<path opacity="0.25" fill-rule="evenodd" clip-rule="evenodd" d="M9.75 18.8582L12.4025 31.4295L15.157 36.4754L16.2444 42.6522L16.9464 42.8776L15.8614 36.4263L13.0568 31.4542L9.75 18.8582Z" fill="#FFD0C1"/>
<path opacity="0.25" fill-rule="evenodd" clip-rule="evenodd" d="M39.4692 12.1175C39.1103 11.9618 35.9954 14.3837 38.1769 17.363C37.9662 16.3795 37.1443 13.0087 39.4692 12.1175Z" fill="#FFD0C1"/>
</svg>
