<svg width="180" height="180" viewBox="0 0 180 180" fill="none" xmlns="http://www.w3.org/2000/svg">
<path d="M28.125 167.393V146.868H39.3905C38.8761 145.736 38.6189 144.451 38.6189 143.01C38.6189 140.541 39.4934 138.432 41.2424 136.683C42.9914 134.831 45.1004 133.905 47.5696 133.905H54.8227L39.5448 76.6513C38.9275 74.4907 39.7506 72.9478 42.014 72.0219L81.5203 56.1267C78.6398 53.5547 77.1992 50.3654 77.1992 46.5587C77.1992 42.9579 78.4339 39.9229 80.9033 37.4537C83.3721 34.9846 86.4073 33.75 90.0079 33.75C93.609 33.75 96.6443 34.9846 99.1131 37.4537C101.582 39.9229 102.817 42.9579 102.817 46.5587C102.817 50.3654 101.377 53.5547 98.496 56.1267L138.002 72.0219C140.369 72.9478 141.243 74.4907 140.626 76.6513L125.348 133.905H132.447C135.019 133.905 137.179 134.779 138.928 136.528C140.677 138.278 141.551 140.438 141.551 143.01C141.551 144.451 141.243 145.736 140.626 146.868H152.045V167.393H28.125ZM50.1931 146.868C48.4441 146.868 47.5696 147.742 47.5696 149.492C47.5696 151.24 48.4441 152.115 50.1931 152.115H129.823C131.572 152.115 132.447 151.24 132.447 149.492C132.447 147.742 131.572 146.868 129.823 146.868H50.1931ZM95.1007 133.905V94.0899H110.687V83.9047H95.1007V68.4726H85.5326V83.9047H69.4834V94.0899H85.5326V133.905H95.1007Z" fill="#041C32"/>
<path d="M50.1929 146.868C48.4439 146.868 47.5695 147.742 47.5695 149.492C47.5695 151.24 48.4439 152.115 50.1929 152.115H129.823C131.572 152.115 132.446 151.24 132.446 149.492C132.446 147.742 131.572 146.868 129.823 146.868H50.1929ZM95.1008 133.905V94.0899H110.687V83.9047H95.1008V68.4725H85.5326V83.9047H69.4834V94.0899H85.5326V133.905H95.1008Z" fill="#2F7A9C"/>
</svg>
