<svg width="180" height="180" viewBox="0 0 180 180" fill="none" xmlns="http://www.w3.org/2000/svg">
<path d="M132.91 146.868C135.482 146.868 136.768 145.582 136.768 143.01C136.768 140.438 135.482 139.152 132.91 139.152H47.7239C45.1519 139.152 43.8658 140.438 43.8658 143.01C43.8658 145.582 45.1519 146.868 47.7239 146.868H132.91ZM146.953 162.3V151.96H33.6806V162.3H146.953ZM97.8784 87.7629C120.512 86.8365 138.671 82.2071 152.354 73.8737L132.91 133.905C135.379 133.905 137.488 134.831 139.237 136.683C140.986 138.432 141.86 140.541 141.86 143.01C141.86 144.451 141.551 145.736 140.934 146.868H152.354V167.393H28.2793V146.868H39.5448C39.0304 145.736 38.7732 144.451 38.7732 143.01C38.7732 140.541 39.6477 138.432 41.3967 136.683C43.1457 134.831 45.2548 133.905 47.7239 133.905L28.125 73.8737C41.8082 82.2071 59.9152 86.8365 82.4462 87.7629V85.1394H87.5391V133.905H92.6314V85.1394H97.8784V87.7629ZM97.8784 93.0099V133.905H127.2L143.404 84.2136C129.926 89.3576 114.751 92.2894 97.8784 93.0099ZM82.4462 93.0099C65.574 92.2894 50.4502 89.3576 37.0757 84.2136L53.2795 133.905H82.4462V93.0099ZM101.737 33.75L95.2549 54.2748L115.934 49.1822V69.7072L95.2549 64.6144L101.737 85.1394H78.5886L85.0697 64.6144L64.3905 70.9414V47.7933L85.0697 54.2748L78.5886 33.75H101.737ZM90.1626 53.6575L94.6378 38.8427H85.6873L90.1626 53.6575ZM90.1626 65.2314L85.6873 80.0466H94.6378L90.1626 65.2314ZM84.2979 59.3674L69.6375 54.8921V63.9973L84.2979 59.3674ZM96.0266 59.3674L110.842 63.9973V54.8921L96.0266 59.3674ZM90.1626 63.3797C92.7343 63.3797 94.0207 62.0426 94.0207 59.3674C94.0207 56.7956 92.7343 55.5094 90.1626 55.5094C87.5903 55.5094 86.3044 56.7956 86.3044 59.3674C86.3044 62.0426 87.5903 63.3797 90.1626 63.3797Z" fill="#041C32"/>
<path d="M132.91 146.868C135.482 146.868 136.768 145.582 136.768 143.01C136.768 140.438 135.482 139.152 132.91 139.152H47.7241C45.1521 139.152 43.8661 140.438 43.8661 143.01C43.8661 145.582 45.1521 146.868 47.7241 146.868H132.91ZM146.953 162.3V151.96H33.6808V162.3H146.953ZM97.8789 93.0094V133.905H127.2L143.404 84.2136C129.926 89.3576 114.751 92.2894 97.8789 93.0094ZM82.4468 93.0094C65.574 92.2894 50.4505 89.3576 37.0759 84.2136L53.2797 133.905H82.4468V93.0094ZM90.1626 53.6575L94.6378 38.8426H85.6873L90.1626 53.6575ZM90.1626 65.2314L85.6873 80.0466H94.6378L90.1626 65.2314ZM84.2985 59.3674L69.6381 54.8921V63.9973L84.2985 59.3674ZM96.0272 59.3674L110.842 63.9973V54.8921L96.0272 59.3674ZM90.1626 63.3797C92.7349 63.3797 94.0208 62.0426 94.0208 59.3674C94.0208 56.7956 92.7349 55.5094 90.1626 55.5094C87.5908 55.5094 86.3044 56.7956 86.3044 59.3674C86.3044 62.0426 87.5908 63.3797 90.1626 63.3797Z" fill="#F2C688"/>
<path d="M87.5391 85.1394V133.905H92.6319V85.1394H87.5391Z" fill="#F2C688"/>
</svg>
