<svg width="180" height="180" viewBox="0 0 180 180" fill="none" xmlns="http://www.w3.org/2000/svg">
<path d="M50.1931 146.868C48.4441 146.868 47.5696 147.742 47.5696 149.492C47.5696 151.138 48.4441 151.96 50.1931 151.96H129.823C131.572 151.96 132.447 151.138 132.447 149.492C132.447 147.742 131.572 146.868 129.823 146.868H50.1931ZM100.657 33.75V59.3674H121.181V33.75H141.706V85.1394H123.959L132.755 133.905C135.224 133.905 137.333 134.831 139.083 136.683C140.831 138.432 141.706 140.541 141.706 143.01C141.706 144.451 141.397 145.736 140.78 146.868H152.2V167.393H28.125V146.868H39.3905C38.8761 145.736 38.6189 144.451 38.6189 143.01C38.6189 140.438 39.4419 138.278 41.088 136.528C42.837 134.779 44.9975 133.905 47.5696 133.905L56.2116 85.1394H38.6189V33.75H59.1435V59.3674H79.6686V33.75H100.657ZM64.2364 80.0466C62.5905 80.0466 61.767 80.9213 61.767 82.6701C61.767 84.3159 62.5905 85.1394 64.2364 85.1394H115.78C117.426 85.1394 118.249 84.3159 118.249 82.6701C118.249 80.9213 117.426 80.0466 115.78 80.0466H64.2364Z" fill="#041C32"/>
<path d="M50.1929 146.868C48.4439 146.868 47.5695 147.742 47.5695 149.492C47.5695 151.138 48.4439 151.96 50.1929 151.96H129.823C131.572 151.96 132.446 151.138 132.446 149.492C132.446 147.742 131.572 146.868 129.823 146.868H50.1929ZM64.2364 80.0466C62.59 80.0466 61.767 80.9212 61.767 82.6701C61.767 84.3159 62.59 85.1394 64.2364 85.1394H115.78C117.426 85.1394 118.249 84.3159 118.249 82.6701C118.249 80.9212 117.426 80.0466 115.78 80.0466H64.2364Z" fill="#2F7A9C"/>
</svg>
