<svg width="180" height="180" viewBox="0 0 180 180" fill="none" xmlns="http://www.w3.org/2000/svg">
<path d="M51.8932 155.284H156.67V168.127H51.8932V155.284ZM58.6378 59.2847C52.8479 59.2847 49.9528 61.6871 49.9528 66.4914C49.9528 71.3576 52.8479 73.7904 58.6378 73.7904C64.3663 73.7904 67.2306 71.3576 67.2306 66.4914C67.2306 61.6871 64.3663 59.2847 58.6378 59.2847ZM100.77 96.7973C104.404 90.3909 106.191 83.6769 106.129 76.6547L105.852 72.405C105.852 68.9552 104.528 67.2306 101.879 67.2306H101.787C99.1378 67.2306 97.8137 68.9552 97.8137 72.405L98.091 76.8398C98.1523 81.5209 96.9514 85.8639 94.4876 89.8673L92.7321 92.3619C90.8224 94.8263 90.8224 97.2591 92.7321 99.6615V99.7537C94.6412 102.156 96.5818 102.125 98.5528 99.6615L100.77 96.7973ZM131.631 38.6804C132.37 39.4811 133.078 40.2203 133.756 40.8979C134.495 41.5139 135.142 42.1298 135.696 42.7458C137.174 44.5321 138.283 46.4724 139.022 48.5667C138.776 51.2154 139.484 53.5253 141.147 55.4964C142.256 56.8513 143.734 57.8064 145.582 58.3605C146.875 59.346 147.954 60.3624 148.816 61.4098C151.342 64.4282 152.82 68.0316 153.251 72.2199C152.45 75.2383 152.974 77.9794 154.822 80.4431C154.945 80.5663 155.006 80.6895 155.006 80.8127C155.499 81.5518 156.115 82.1368 156.854 82.5682C159.318 86.0175 160.55 89.7137 160.55 93.6557C160.55 95.2571 160.334 96.7354 159.904 98.0904C158.918 99.8156 158.425 101.509 158.425 103.173C158.425 105.76 159.349 107.977 161.197 109.825C161.998 111.92 162.398 114.106 162.398 116.385C162.398 121.19 160.858 125.317 157.778 128.766C156.977 130.306 156.577 131.846 156.577 133.386C156.577 134.125 156.547 135.049 156.485 136.158C156.485 137.266 156.546 138.375 156.669 139.484V149.001H51.8929C51.6465 142.225 54.1104 136.681 59.2847 132.369C77.5789 117.648 86.5721 107.916 86.2639 103.173C81.8291 104.651 77.8866 105.421 74.4373 105.482C70.9881 105.482 67.2615 104.959 63.2576 103.912C57.6523 115.06 51.4617 121.282 44.6861 122.576C43.3925 122.884 42.4685 123.037 41.9142 123.037C41.3598 122.976 40.3435 122.945 38.8651 122.945C37.6948 123.13 36.4012 122.822 34.9845 122.021C33.5678 121.159 32.2127 120.481 30.9191 119.989C29.6256 119.496 28.794 118.818 28.4244 117.956C28.1164 117.093 27.3157 116.016 26.0222 114.722C24.6054 113.428 23.1887 112.227 21.772 111.119C20.4168 109.948 19.4313 108.931 18.8153 108.069C18.5073 107.761 18.1069 106.56 17.6142 104.466C17.1214 102.31 16.875 100.986 16.875 100.493C16.9981 97.5364 17.6757 95.0726 18.9077 93.1011C20.1396 91.1301 22.3264 88.1426 25.4678 84.1388C28.6092 79.9504 31.1039 76.6547 32.9518 74.2528C34.7997 71.7885 36.3089 69.2634 37.4792 66.6759C38.2184 65.0132 38.6188 63.5962 38.6803 62.4262C38.8034 61.1938 38.9883 60.3315 39.2347 59.8387C40.5282 57.3137 43.8545 53.556 49.2134 48.5666C49.0286 48.3819 49.3058 47.8891 50.045 47.0883C50.8457 46.226 51.1229 44.6245 50.8765 42.2837C50.6918 40.9286 49.6754 38.742 47.8275 35.7237C47.2731 34.9845 46.8111 34.153 46.4416 33.229C46.072 32.2435 44.994 30.488 43.2077 27.9624C48.2587 27.9008 52.4473 28.3937 55.7735 29.4408C59.0996 30.488 61.8716 31.7507 64.089 33.229C64.4586 31.0731 63.8426 29.0404 62.2412 27.1309C60.7011 25.4062 59.4382 23.8663 58.4527 22.5111C57.4672 21.156 54.9111 19.4005 50.7841 17.2446C54.172 16.6286 59.8388 16.7826 67.7852 17.7065C75.7311 18.5689 81.3673 20.54 84.6934 23.6199C92.0852 23.4967 97.875 24.0819 102.063 25.3754C106.314 26.6689 111.549 28.9788 117.771 32.3051C123.377 32.4282 127.996 34.5534 131.63 38.6804H131.631Z" fill="#632626"/>
<path d="M58.6384 59.2847C52.8482 59.2847 49.9531 61.6871 49.9531 66.4915C49.9531 71.3576 52.8482 73.791 58.6384 73.791C64.3669 73.791 67.2312 71.3576 67.2312 66.4915C67.2312 61.6871 64.3669 59.2847 58.6384 59.2847ZM100.771 96.7973C104.405 90.391 106.191 83.677 106.13 76.6553L105.852 72.405C105.852 68.9552 104.528 67.2306 101.879 67.2306H101.787C99.1384 67.2306 97.8137 68.9552 97.8137 72.405L98.091 76.8398C98.1529 81.5209 96.9514 85.864 94.4877 89.8678L92.7321 92.3625C90.823 94.8263 90.823 97.2591 92.7321 99.6615V99.7538C94.6418 102.156 96.5818 102.125 98.5534 99.6615L100.771 96.7973Z" fill="#BF8B67"/>
</svg>
