<svg width="180" height="180" viewBox="0 0 180 180" fill="none" xmlns="http://www.w3.org/2000/svg">
<path d="M125.809 46.4416C124.208 43.1769 121.621 41.5446 118.049 41.5446C116.94 41.5446 115.523 41.1443 113.798 40.3435C110.657 38.8652 107.885 37.818 105.482 37.2021C103.142 36.5245 100.401 35.7237 97.2591 34.7997C92.1471 33.4446 87.5576 32.6747 83.4924 32.4899C81.8291 31.6275 80.5973 31.1039 79.7968 30.9192C79.0577 30.6728 78.4412 30.3956 77.9484 30.0876C76.6553 29.4716 75.6079 29.1637 74.8074 29.1637C74.0064 29.1637 73.3596 29.1637 72.8668 29.1637C73.3596 32.0587 73.4828 34.615 73.2364 36.8324C73.0519 38.9884 71.5117 41.3598 68.6166 43.9469C67.3234 43.2078 66.0606 42.5302 64.8287 41.9142C63.6581 41.2982 61.6562 40.7131 58.8229 40.1587C59.4388 42.0066 59.7774 43.6389 59.8393 45.0557C59.9006 46.4108 59.1002 48.7207 57.4369 51.9854C53.0019 56.3586 49.9528 60.3315 48.2897 63.9045C47.6121 65.1977 46.9346 66.4914 46.257 67.7852C45.5794 69.0171 44.9327 71.019 44.3167 73.7904C43.516 75.9465 41.3292 78.8107 37.7566 82.3832C36.2783 83.9233 34.5536 85.6789 32.5825 87.6499C30.673 89.6209 29.0099 91.9311 27.5931 94.5799C26.7924 96.0581 26.2072 97.1668 25.8376 97.9059C25.5296 98.5832 25.5912 99.5693 26.0223 100.862C26.823 103.326 27.5622 104.866 28.2398 105.482C28.9173 106.037 30.2725 107.115 32.3052 108.716C33.5987 109.271 34.769 110.317 35.8162 111.858C36.9249 113.336 38.1569 114.075 39.512 114.075C42.5303 114.075 44.8094 113.613 46.3493 112.689C48.7515 111.273 50.6919 109.363 52.1702 106.961C53.7101 104.559 55.1577 101.848 56.5127 98.8301C57.6214 97.3513 58.761 96.0581 59.9316 94.9494C61.1634 93.8407 63.2886 93.8098 66.3069 94.8566C67.8465 95.5344 70.3412 95.8731 73.791 95.8731C78.9649 95.8731 83.3693 94.1175 87.0036 90.6064C90.6373 87.0339 92.3929 82.9378 92.2697 78.318L91.9929 74.2528C91.9929 71.1112 93.5634 69.5402 96.705 69.5402C99.9079 69.5402 101.509 71.1112 101.509 74.2528L101.787 78.1335C101.848 84.7856 99.6306 90.8224 95.1339 96.2426C96.1813 101.725 96.1813 105.574 95.1339 107.792C94.1484 110.01 92.547 112.751 90.3296 116.016C87.804 119.711 84.5702 123.284 80.6282 126.733C76.7475 130.183 71.4808 134.433 64.8281 139.484H147.153C147.091 137.944 147.061 135.911 147.061 133.386C147.061 129.751 148.015 126.394 149.925 123.315C151.896 121.467 152.881 119.157 152.881 116.385C152.881 115.954 152.819 115.307 152.697 114.445C151.588 113.028 150.725 111.426 150.109 109.64C149.309 107.484 148.908 105.328 148.908 103.173C148.908 100.462 149.555 97.6596 150.848 94.7644C150.972 94.1484 151.034 93.7789 151.034 93.6557C151.034 92.1156 150.602 90.576 149.74 89.0359C148.385 87.9272 147.307 86.6334 146.506 85.1552C143.796 81.09 142.81 76.6547 143.549 71.8504C143.241 70.1871 142.594 68.7398 141.609 67.5079C141.301 67.1996 141.024 66.9533 140.777 66.7688C138.129 65.5982 135.819 63.8736 133.848 61.5943C132.369 59.8084 131.291 57.8987 130.614 55.8659C130.06 54.4492 129.69 52.6629 129.505 50.507C129.32 50.2606 129.135 50.0142 128.951 49.7678C128.766 49.4598 128.581 49.1519 128.396 48.8438C128.15 48.5975 127.288 47.7967 125.809 46.4416ZM131.631 38.6804C132.37 39.4811 133.078 40.2203 133.756 40.8979C134.495 41.5139 135.142 42.1298 135.696 42.7458C137.174 44.5321 138.283 46.4724 139.022 48.5667C138.776 51.2153 139.484 53.5253 141.147 55.4964C142.256 56.8513 143.734 57.8064 145.582 58.3605C146.875 59.346 147.954 60.3624 148.816 61.4098C151.342 64.4282 152.82 68.0316 153.251 72.2199C152.45 75.2383 152.974 77.9794 154.822 80.4431C154.945 80.5663 155.006 80.6895 155.006 80.8127C155.499 81.5518 156.115 82.1368 156.854 82.5682C159.318 86.0175 160.55 89.7137 160.55 93.6557C160.55 95.2571 160.334 96.7354 159.904 98.0904C158.918 99.8156 158.425 101.509 158.425 103.173C158.425 105.76 159.349 107.977 161.197 109.825C161.998 111.92 162.398 114.106 162.398 116.385C162.398 121.19 160.858 125.317 157.778 128.766C156.977 130.306 156.577 131.846 156.577 133.386C156.577 134.125 156.547 135.049 156.485 136.158C156.485 137.266 156.546 138.375 156.669 139.484V149.001H51.8929C51.6465 142.225 54.1104 136.681 59.2847 132.369C77.5789 117.648 86.5721 107.916 86.2639 103.173C81.8291 104.651 77.8866 105.421 74.4373 105.482C70.9881 105.482 67.2615 104.959 63.2576 103.912C57.6523 115.06 51.4617 121.282 44.6861 122.576C43.3925 122.884 42.4685 123.037 41.9142 123.037C41.3598 122.976 40.3435 122.945 38.8651 122.945C37.6948 123.13 36.4012 122.822 34.9845 122.021C33.5678 121.159 32.2127 120.481 30.9191 119.989C29.6256 119.496 28.794 118.818 28.4244 117.956C28.1164 117.093 27.3157 116.016 26.0222 114.722C24.6054 113.428 23.1887 112.227 21.772 111.119C20.4168 109.948 19.4313 108.931 18.8153 108.069C18.5073 107.761 18.1069 106.56 17.6142 104.466C17.1214 102.31 16.875 100.986 16.875 100.493C16.9981 97.5364 17.6757 95.0726 18.9077 93.1011C20.1396 91.1301 22.3264 88.1426 25.4678 84.1388C28.6092 79.9504 31.1039 76.6547 32.9518 74.2528C34.7997 71.7885 36.3089 69.2634 37.4792 66.6759C38.2184 65.0132 38.6188 63.5962 38.6803 62.4262C38.8034 61.1938 38.9883 60.3315 39.2347 59.8387C40.5282 57.3137 43.8545 53.556 49.2134 48.5666C49.0286 48.3819 49.3058 47.8891 50.045 47.0883C50.8457 46.226 51.1229 44.6245 50.8765 42.2837C50.6918 40.9286 49.6754 38.742 47.8275 35.7237C47.2731 34.9845 46.8111 34.153 46.4416 33.229C46.072 32.2435 44.994 30.488 43.2077 27.9624C48.2587 27.9008 52.4473 28.3936 55.7735 29.4408C59.0996 30.488 61.8716 31.7507 64.089 33.229C64.4586 31.0731 63.8426 29.0404 62.2412 27.1309C60.7011 25.4062 59.4382 23.8663 58.4527 22.5111C57.4672 21.156 54.9111 19.4005 50.7841 17.2446C54.172 16.6286 59.8388 16.7826 67.7852 17.7065C75.7311 18.5689 81.3673 20.54 84.6934 23.6199C92.0852 23.4968 97.875 24.0819 102.063 25.3754C106.314 26.6689 111.549 28.9788 117.771 32.3051C123.377 32.4282 127.996 34.5533 131.63 38.6804H131.631ZM64.2741 59.9316C69.5098 59.9316 72.1277 62.118 72.1277 66.4914C72.1277 70.9262 69.5098 73.1441 64.2741 73.1441C59.0383 73.1441 56.4204 70.9262 56.4204 66.4914C56.4204 62.118 59.0383 59.9316 64.2741 59.9316ZM51.8932 155.284H156.67V168.127H51.8932V155.284Z" fill="#632626"/>
<path d="M125.81 46.4415C124.208 43.1769 121.621 41.5446 118.048 41.5446C116.94 41.5446 115.523 41.1442 113.799 40.3434C110.657 38.8651 107.885 37.8179 105.483 37.2019C103.142 36.5244 100.401 35.7236 97.2596 34.7997C92.147 33.4446 87.5582 32.6746 83.493 32.4898C81.8297 31.6274 80.5978 31.1039 79.7968 30.919C79.0577 30.6727 78.4417 30.3955 77.949 30.0875C76.6558 29.4715 75.6084 29.1635 74.8074 29.1635C74.007 29.1635 73.3601 29.1635 72.8673 29.1635C73.3601 32.0586 73.4833 34.6149 73.2369 36.8324C73.0518 38.9883 71.5123 41.3598 68.6171 43.9468C67.3233 43.2076 66.0611 42.5301 64.8287 41.9141C63.6587 41.2982 61.6567 40.713 58.8234 40.1586C59.4393 42.0065 59.778 43.6389 59.8393 45.0556C59.9012 46.4107 59.1002 48.7206 57.4374 51.9852C53.0023 56.3586 49.9532 60.3315 48.2901 63.9045C47.6126 65.1977 46.935 66.4914 46.2574 67.7846C45.5799 69.0171 44.9331 71.019 44.3171 73.7904C43.5163 75.9465 41.3297 78.8107 37.7571 82.3832C36.2787 83.9233 34.554 85.6789 32.5829 87.6499C30.6734 89.6209 29.0103 91.9311 27.5935 94.5793C26.7928 96.0581 26.2076 97.1668 25.838 97.9059C25.53 98.5832 25.5916 99.5687 26.0227 100.862C26.8235 103.326 27.5626 104.866 28.2402 105.482C28.9178 106.037 30.2729 107.115 32.3056 108.716C33.5991 109.271 34.7694 110.317 35.8166 111.858C36.9253 113.336 38.1573 114.075 39.5124 114.075C42.5307 114.075 44.8098 113.613 46.3497 112.689C48.752 111.273 50.6923 109.363 52.1706 106.961C53.7106 104.558 55.158 101.848 56.5132 98.8296C57.6219 97.3513 58.7615 96.0581 59.9321 94.9494C61.164 93.8402 63.2891 93.8098 66.3069 94.8566C67.847 95.5344 70.3417 95.8731 73.791 95.8731C78.9654 95.8731 83.3698 94.1175 87.0035 90.6064C90.6378 87.0339 92.3934 82.9378 92.2702 78.318L91.9929 74.2528C91.9929 71.1112 93.564 69.5402 96.7055 69.5402C99.9084 69.5402 101.51 71.1112 101.51 74.2528L101.787 78.1329C101.848 84.7856 99.6311 90.8224 95.1345 96.2426C96.1818 101.725 96.1818 105.575 95.1345 107.792C94.149 110.01 92.5475 112.751 90.3302 116.015C87.8045 119.711 84.5707 123.284 80.6282 126.733C76.748 130.183 71.4813 134.433 64.8287 139.484H147.153C147.091 137.944 147.061 135.911 147.061 133.386C147.061 129.751 148.016 126.394 149.925 123.315C151.896 121.467 152.882 119.157 152.882 116.385C152.882 115.954 152.82 115.307 152.697 114.445C151.588 113.028 150.726 111.426 150.11 109.64C149.309 107.484 148.909 105.328 148.909 103.172C148.909 100.462 149.556 97.6596 150.849 94.7644C150.972 94.1484 151.033 93.7789 151.033 93.6557C151.033 92.1156 150.603 90.576 149.74 89.0359C148.385 87.9272 147.307 86.6334 146.506 85.1552C143.796 81.09 142.81 76.6547 143.55 71.8504C143.242 70.1871 142.595 68.7398 141.609 67.5079C141.302 67.1996 141.024 66.9532 140.778 66.7687C138.129 65.5982 135.82 63.8736 133.848 61.5943C132.37 59.8078 131.292 57.8987 130.614 55.8658C130.06 54.4491 129.691 52.6628 129.505 50.5069C129.321 50.2605 129.136 50.0141 128.951 49.7678C128.766 49.4597 128.582 49.1518 128.397 48.8438C128.15 48.5974 127.288 47.7966 125.81 46.4415ZM64.2746 59.931C69.5103 59.931 72.1282 62.118 72.1282 66.4914C72.1282 70.9262 69.5103 73.1436 64.2746 73.1436C59.0388 73.1436 56.421 70.9262 56.421 66.4914C56.421 62.118 59.0388 59.931 64.2746 59.931Z" fill="#DACC96"/>
</svg>
