<svg width="144" height="144" viewBox="0 0 144 144" fill="none" xmlns="http://www.w3.org/2000/svg">
<path d="M27.7434 60.7745C25.9052 57.9194 25.5578 57.3797 31.2945 52.0819L31.2567 52.1197C33.9962 49.5981 37.9472 45.3073 41.906 41.0081C47.5598 34.8681 53.2293 28.711 55.4079 27.6661C56.1199 27.3233 56.7261 27.0541 57.3581 26.7734C58.5377 26.2496 59.8072 25.6858 62.022 24.5291C62.885 24.0689 62.6363 22.7135 62.3553 21.1819C61.5285 16.6762 60.422 10.6453 86.5134 21.3921C121.474 35.7921 113.915 62.4 106.431 75.1748C99.724 86.6249 102.976 102.812 105.845 117.095C106.177 118.747 106.504 120.374 106.809 121.965C106.839 122.118 106.867 122.269 106.892 122.419H117.43V130.129H111.269V132.51H117.279V140.22H33.4866V132.51H40.0252V130.129H33.6378V122.419H45.2805C45.2768 119.337 45.0698 115.215 44.674 109.569C43.8018 96.6961 48.1231 93.1575 54.0002 88.3448C55.5087 87.1096 57.1197 85.7904 58.7716 84.2079C60.5381 82.5074 62.2686 80.8881 63.8913 79.3696L63.8926 79.3683C69.6991 73.9347 74.1261 69.792 73.8898 67.8425C73.5874 65.348 72.3779 63.0425 67.5779 61.9087C62.7779 60.7748 59.6787 60.1323 48.0378 65.8016C36.3968 71.4709 31.748 67.8425 29.0268 62.8913C28.5626 62.0468 28.1215 61.3617 27.7434 60.7745Z" fill="#FFF5A5"/>
<path d="M70.9417 57.1843C64.252 57.4488 61.0394 62.1354 61.0394 62.1354L61.0772 62.0976C72.189 62.778 73.3228 69.6567 73.3228 69.6567C73.3228 69.6567 82.3559 67.1622 82.3559 61.4551C82.3559 55.748 73.7764 44.674 73.7764 44.674C73.7764 44.674 77.5937 56.9197 70.9417 57.1843Z" fill="#FFAA64"/>
<path d="M101.876 30.329C100.238 28.821 98.9858 28.1197 98.9858 28.1197H98.948C99.9952 28.829 100.97 29.5668 101.876 30.329Z" fill="#FFAA64"/>
<path d="M111.231 130.129V130.091H117.392V122.381H106.923C106.923 122.381 103.332 105.449 102.539 94.8661C101.745 84.2835 104.731 77.7071 108.964 70.1858C112.925 63.049 117.189 43.2108 101.876 30.329C106.103 34.2215 112.896 43.4891 107.339 59.9433C104.011 69.7964 99.6126 77.5866 95.8765 84.2041C90.9566 92.9184 87.1846 99.5994 88.5165 106.28C90.0622 114.034 89.7168 117.544 89.5412 119.329C89.4506 120.25 89.4052 120.711 89.6882 121.058C90.5197 122.079 93.2031 122.079 97.0583 120.907C100.196 119.954 100.329 121.653 100.454 123.236C100.482 123.598 100.51 123.954 100.573 124.271C100.702 124.902 101.125 127.342 101.6 130.129H40.063V132.51H102.004C102.663 136.403 103.294 140.183 103.294 140.183H117.241V132.472H111.307V130.129H111.231Z" fill="#FFAA64"/>
</svg>
