<svg width="144" height="144" viewBox="0 0 144 144" fill="none" xmlns="http://www.w3.org/2000/svg">
<path fill-rule="evenodd" clip-rule="evenodd" d="M36.0189 122.419H108.094V130.129H36.0189V122.419Z" fill="#FF8264"/>
<path fill-rule="evenodd" clip-rule="evenodd" d="M41.537 127.975H102.803V133.757H41.537V127.975Z" fill="#FF8264"/>
<path fill-rule="evenodd" clip-rule="evenodd" d="M35.9055 132.51H107.981V140.22H35.9055V132.51Z" fill="#FF8264"/>
<path fill-rule="evenodd" clip-rule="evenodd" d="M41.537 130.129H102.803V132.51H41.537V130.129Z" fill="#D15252"/>
<path fill-rule="evenodd" clip-rule="evenodd" d="M62.7024 77.8205L73.8898 77.6693L73.9275 126.123L50.5701 125.783L62.7024 77.8205Z" fill="#FF8264"/>
<path fill-rule="evenodd" clip-rule="evenodd" d="M80.8819 77.8205L70.9039 77.6693V126.123L94.2236 125.783L80.8819 77.8205Z" fill="#FF8264"/>
<path fill-rule="evenodd" clip-rule="evenodd" d="M51.2126 72.0756H93.3543V78.0472H51.2126V72.0756Z" fill="#FF8264"/>
<path d="M71.4331 74.9102C80.0748 74.9102 87.0803 67.5832 87.0803 58.5449C87.0803 49.5066 80.0748 42.1795 71.4331 42.1795C62.7913 42.1795 55.7858 49.5066 55.7858 58.5449C55.7858 67.5832 62.7913 74.9102 71.4331 74.9102Z" fill="#FF8264"/>
<path fill-rule="evenodd" clip-rule="evenodd" d="M74.8346 42.5575C74.8346 42.5575 82.2047 48.1134 83.074 55.748C84.4346 67.6535 76.9512 71.5465 66.2173 69.0142C60.8126 67.7291 56.9953 64.8567 57.4866 65.915C57.4866 65.915 58.2803 67.8425 59.7165 69.3165C61.1149 70.7906 62.8157 72.1512 62.8157 72.1512H80.0882C80.0882 72.1512 82.885 70.6016 84.3968 67.7291C85.9086 64.8189 87.1181 62.5512 87.1181 58.5071C87.1181 54.463 85.5685 50.9858 84.548 49.5496C83.5275 48.1134 82.4315 46.8661 80.5795 45.2409C78.7653 43.578 74.8346 42.5575 74.8346 42.5575Z" fill="#D15252"/>
<path fill-rule="evenodd" clip-rule="evenodd" d="M78.3874 72.0756L80.9953 78.0472H93.3165V72.0756H78.3874ZM58.885 78.0472H80.9953L94.0724 124.989H84.4346L78.085 83.6032L58.885 78.0472Z" fill="#D15252"/>
<path fill-rule="evenodd" clip-rule="evenodd" d="M93.2031 122.419L95.8488 140.22H107.981V132.51H102.803V130.129H108.094V122.419H93.2031Z" fill="#D15252"/>
</svg>
