<svg width="144" height="144" viewBox="0 0 144 144" fill="none" xmlns="http://www.w3.org/2000/svg">
<path d="M80.2375 72.0756C84.3683 69.1296 87.0803 64.1685 87.0803 58.5449C87.0803 49.5066 80.0748 42.1795 71.4331 42.1795C62.7913 42.1795 55.7858 49.5066 55.7858 58.5449C55.7858 64.1685 58.4978 69.1296 62.6286 72.0756H51.2126V78.0473H62.645L51.421 122.419H36.0189V130.129H41.537V132.51H35.9055V140.22H107.981V132.51H102.803V130.129H108.094V122.419H93.2879L80.945 78.0473H93.3543V72.0756H80.2375Z" fill="#FFF5A5"/>
<path d="M83.074 55.748C82.2047 48.1134 74.8347 42.5575 74.8347 42.5575C74.8347 42.5575 78.7654 43.578 80.5795 45.2409C82.4315 46.8661 83.5276 48.1134 84.548 49.5496C85.5685 50.9858 87.1181 54.463 87.1181 58.5071C87.1181 62.4923 85.9436 64.7525 84.4627 67.6024L84.3969 67.7291C83.0784 70.2342 80.7827 71.7331 80.2169 72.0756H93.3166V78.0472H80.9953L78.4204 72.1512H62.8158C62.8158 72.1512 61.115 70.7906 59.7166 69.3165C58.2803 67.8425 57.4866 65.915 57.4866 65.915C57.2695 65.4473 57.8937 65.7472 59.1245 66.3385C60.6789 67.0853 63.2009 68.297 66.2173 69.0142C76.9512 71.5465 84.4347 67.6535 83.074 55.748Z" fill="#FFAA64"/>
<path d="M93.3565 122.419L80.9953 78.0472H58.8851L78.0851 83.6031L84.4347 124.989H93.5852L94.3491 130.129H41.537V132.51H94.703L95.8489 140.22H107.981V132.51H102.803V130.129H108.095V122.419H93.3565Z" fill="#FFAA64"/>
</svg>
