<svg width="144" height="144" viewBox="0 0 144 144" fill="none" xmlns="http://www.w3.org/2000/svg">
<path d="M53.3608 17.9086C53.2878 17.9128 53.2142 17.915 53.1402 17.915C51.0528 17.915 49.3606 16.2228 49.3606 14.1354C49.3606 12.0481 51.0528 10.3559 53.1402 10.3559C55.2275 10.3559 56.9197 12.0481 56.9197 14.1354C56.9197 15.2827 56.4086 16.3105 55.6016 17.0037L71.1874 35.1654L86.7707 17.0393C85.9652 16.3461 85.4551 15.3193 85.4551 14.1732C85.4551 12.0859 87.1473 10.3937 89.2346 10.3937C91.322 10.3937 93.0142 12.0859 93.0142 14.1732C93.0142 16.2606 91.322 17.9528 89.2346 17.9528C89.1605 17.9528 89.0868 17.9506 89.0137 17.9464L87.7228 39.9874L103.194 31.9102C102.92 31.3871 102.765 30.7919 102.765 30.1606C102.765 28.0733 104.458 26.3811 106.545 26.3811C108.632 26.3811 110.324 28.0733 110.324 30.1606C110.324 32.248 108.632 33.9402 106.545 33.9402C105.909 33.9402 105.309 33.7829 104.783 33.5052L92.0501 57.6756H103.03V65.9906H89.4355L103.658 122.268H113.953V129.978H107.792V132.321H113.802V140.031H30.0095V132.321H36.548V129.978H30.1606V122.268H40.6176L53.5703 65.9906H41.1213V57.6756H50.3625L37.6296 33.5052C37.1035 33.7829 36.504 33.9402 35.8677 33.9402C33.7803 33.9402 32.0882 32.248 32.0882 30.1606C32.0882 28.0733 33.7803 26.3811 35.8677 26.3811C37.9551 26.3811 39.6473 28.0733 39.6473 30.1606C39.6473 30.793 39.4919 31.3892 39.2174 31.913L54.652 39.9874L53.3608 17.9086Z" fill="#FF8264"/>
<path d="M91.5024 11.1496L87.8362 17.6882L78.7654 57.6756H85.4174V65.9528L53.1583 65.9528L52.9134 65.915L52.9512 65.9528H53.1583L84.5102 70.7906C84.5102 70.7906 92.2205 99.0992 94.0724 113.008C95.4469 123.124 96.6214 125.143 97.8141 127.193C98.2519 127.945 98.6921 128.702 99.1455 129.865H36.6614V132.246H99.9671C101.177 136.127 101.858 140.031 101.858 140.031H113.802V132.321L107.868 132.208V129.94H113.953V122.23H103.899L89.4236 65.9528L103.03 65.9528V57.6756H92.0315L104.769 33.5244L104.709 33.4654C105.253 33.7678 105.879 33.9402 106.545 33.9402C108.632 33.9402 110.324 32.248 110.324 30.1606C110.324 28.0733 108.632 26.3811 106.545 26.3811C104.458 26.3811 102.765 28.0733 102.765 30.1606C102.765 30.8267 102.938 31.4526 103.24 31.9961L103.181 31.937L87.7229 39.9874L89.2347 17.915C89.2347 17.915 95.7733 16.6299 91.5024 11.1118V11.1496Z" fill="#D15252"/>
</svg>
