<svg width="32" height="32" viewBox="0 0 32 32" fill="none" xmlns="http://www.w3.org/2000/svg">
<path d="M15.8469 28.5053H5C6.42932 24.6938 7.14397 20.7076 7.14397 16.5467C7.14397 13.2858 6.6993 10.1148 5.80995 7.03385C8.46741 8.06084 11.2361 8.65903 14.1159 8.82843C14.1159 8.75432 14.1159 8.68021 14.1159 8.60609C14.1159 8.52139 14.1159 8.4314 14.1159 8.33611C14.1159 7.55263 13.9994 6.72681 13.7665 5.85863C13.7135 5.56218 13.6871 5.32396 13.6871 5.14397C13.6871 4.56166 13.8935 4.05875 14.3064 3.63525C14.7299 3.21175 15.2434 3 15.8469 3C16.4398 3 16.9427 3.21175 17.3556 3.63525C17.7791 4.05875 17.9909 4.56166 17.9909 5.14397C17.9909 5.32396 17.9644 5.56218 17.9115 5.85863C17.6786 6.72681 17.5621 7.55263 17.5621 8.33611C17.5621 8.55845 17.5674 8.72256 17.578 8.82843C20.4472 8.65903 23.2158 8.06084 25.8839 7.03385C24.9839 10.1466 24.534 13.3175 24.534 16.5467C24.534 20.6653 25.2486 24.6515 26.678 28.5053H15.8469ZM23.6129 12.7511C23.7505 11.3641 23.9728 10.0036 24.2799 8.66962C21.7706 9.42133 19.2032 9.83424 16.5775 9.90836C16.5245 9.26252 16.498 8.73844 16.498 8.33611C16.498 7.57381 16.6092 6.70034 16.8316 5.7157C16.8951 5.3769 16.9268 5.18632 16.9268 5.14397C16.9268 4.42402 16.5669 4.06405 15.8469 4.06405C15.127 4.06405 14.767 4.42402 14.767 5.14397C14.767 5.27102 14.7988 5.4616 14.8623 5.7157C15.0846 6.70034 15.1958 7.57381 15.1958 8.33611C15.1958 8.49492 15.1852 8.72785 15.164 9.03489C15.1428 9.33134 15.1323 9.62249 15.1323 9.90836C12.4854 9.83424 9.90732 9.42133 7.39807 8.66962C7.7157 10.0883 7.94333 11.4488 8.08097 12.7511H23.6129ZM8.2239 13.8152C8.25566 14.2704 8.27154 14.731 8.27154 15.1968C8.28213 15.6521 8.28742 16.1021 8.28742 16.5467C8.28742 16.642 8.28742 16.7373 8.28742 16.8326C8.28742 16.9279 8.28742 17.0179 8.28742 17.1026H23.4223C23.4117 16.9755 23.4064 16.7902 23.4064 16.5467C23.4064 15.5727 23.4435 14.6622 23.5176 13.8152H8.2239ZM23.4541 18.1984L8.25566 18.1825C8.23449 18.5637 8.20273 18.9236 8.16038 19.2624H23.5335C23.4805 18.8813 23.4541 18.5266 23.4541 18.1984ZM8.08097 20.3424C7.97509 21.3482 7.79511 22.4281 7.54101 23.5821H24.1211C23.9093 22.6504 23.7346 21.5705 23.597 20.3424H8.08097ZM24.3752 24.7097H7.35043C7.24455 25.165 7.1228 25.6149 6.98516 26.0596C6.84752 26.5043 6.71518 26.9437 6.58813 27.3778H15.8469H25.1057C24.841 26.6049 24.5975 25.7155 24.3752 24.7097Z" fill="black"/>
<path d="M23.6129 12.7511C23.7505 11.3642 23.9728 10.0037 24.2799 8.66963C21.7706 9.42134 19.2032 9.83426 16.5775 9.90837C16.5245 9.26253 16.4981 8.73845 16.4981 8.33612C16.4981 7.57382 16.6092 6.70035 16.8316 5.71571C16.8951 5.37691 16.9269 5.18633 16.9269 5.14398C16.9269 4.42403 16.5669 4.06406 15.8469 4.06406C15.127 4.06406 14.767 4.42403 14.767 5.14398C14.767 5.27103 14.7988 5.46161 14.8623 5.71571C15.0846 6.70035 15.1958 7.57382 15.1958 8.33612C15.1958 8.49493 15.1852 8.72786 15.164 9.0349C15.1429 9.33135 15.1323 9.62251 15.1323 9.90837C12.4854 9.83426 9.90732 9.42134 7.39808 8.66963C7.71571 10.0884 7.94334 11.4489 8.08098 12.7511H23.6129ZM8.22391 13.8152C8.25567 14.2704 8.27155 14.731 8.27155 15.1968C8.28214 15.6521 8.28743 16.1021 8.28743 16.5467C8.28743 16.642 8.28743 16.7373 8.28743 16.8326C8.28743 16.9279 8.28743 17.0179 8.28743 17.1026H23.4223C23.4117 16.9755 23.4064 16.7903 23.4064 16.5467C23.4064 15.5727 23.4435 14.6622 23.5176 13.8152H8.22391ZM23.4541 18.1984L8.25567 18.1825C8.23449 18.5637 8.20273 18.9236 8.16038 19.2624H23.5335C23.4805 18.8813 23.4541 18.5266 23.4541 18.1984ZM8.08098 20.3424C7.9751 21.3482 7.79511 22.4281 7.54101 23.5822H24.1211C23.9093 22.6504 23.7346 21.5705 23.597 20.3424H8.08098ZM24.3752 24.7097H7.35044C7.24456 25.165 7.1228 25.615 6.98517 26.0596C6.84753 26.5043 6.71519 26.9437 6.58813 27.3778H15.8469H25.1057C24.841 26.6049 24.5975 25.7155 24.3752 24.7097Z" fill="white"/>
</svg>
