<svg width="180" height="180" viewBox="0 0 180 180" fill="none" xmlns="http://www.w3.org/2000/svg">
<path d="M36.51 55.6505C34.6969 54.9912 32.9388 57.0791 31.2356 61.9138C29.3676 66.7485 29.3401 69.5233 31.1532 70.2371C32.9113 70.9515 34.6969 68.8365 36.5099 63.8916C38.1581 59.0017 38.1581 56.2551 36.5099 55.6505H36.51ZM162.352 106.746H62.4696C64.2825 101.801 65.1893 96.3894 65.1893 90.5107C65.1893 83.5329 63.7605 77.1874 60.9036 71.4735C58.8707 72.4624 56.6736 73.1216 54.3108 73.4512C51.344 74.9346 49.7782 77.3522 49.6134 80.7036C49.3936 83.6156 49.9156 85.7582 51.1792 87.1318C52.4429 90.9225 52.8275 95.0979 52.333 99.6581C51.9484 102.955 50.6847 105.729 48.5421 107.982C46.3993 110.18 43.927 111.278 41.125 111.278C40.7954 111.278 40.4932 111.278 40.2185 111.278C39.9987 111.278 39.7515 111.278 39.4768 111.278C35.7408 111.113 32.307 110.399 29.1754 109.136C26.0437 107.817 23.8186 105.922 22.5 103.449V35.7893C25.7415 35.7343 29.0654 36.7233 32.4718 38.7561C32.4718 38.6463 32.4718 38.5364 32.4718 38.4265C32.4718 38.3167 32.4718 38.2067 32.4718 38.0968C32.4718 34.5256 33.0761 31.2292 34.2848 28.2075C34.6145 28.1524 35.6584 28.125 37.4165 28.125C41.8118 28.125 45.7401 29.4161 49.2013 31.9983C52.6626 34.5806 55.0801 37.7946 56.4536 41.6405C69.4744 40.8164 81.864 44.882 93.6214 53.8374C105.379 62.7379 112.658 76.4454 115.46 94.9607C119.196 94.2463 123.015 93.8891 126.915 93.8891C130.816 93.8891 134.745 93.8891 138.7 93.8891C141.063 93.8891 143.508 93.9994 146.035 94.2193C148.617 94.4387 150.98 94.8786 153.122 95.5378C158.122 98.0651 161.198 101.801 162.352 106.746ZM160.869 143.501C159.33 151.413 156.886 157.978 153.534 163.198H39.3119C39.3119 156.604 40.3009 150.039 42.2788 143.501H160.869ZM162.764 112.267C162.929 113.366 162.929 114.437 162.764 115.481C162.82 117.02 162.82 117.926 162.764 118.201H56.2888C57.717 116.223 59.0085 114.245 60.1622 112.267H162.764ZM44.3391 137.65C45.9873 133.53 48.4597 128.914 51.7561 123.805H162.682C162.572 129.079 162.27 133.694 161.776 137.65H44.3391Z" fill="black"/>
<path d="M36.5098 55.6504C34.6967 54.9911 32.9385 57.0791 31.2354 61.9138C29.3674 66.7485 29.3399 69.5233 31.1529 70.2371C32.911 70.9515 34.6966 68.8365 36.5097 63.8916C38.1579 59.0018 38.158 56.2551 36.5098 55.6504Z" fill="#777777"/>
<path d="M162.352 106.746H62.4696L60.1617 112.267H162.764L162.352 106.746Z" fill="#777777"/>
<path d="M162.764 118.201H56.2882L51.7558 123.805H162.682L162.764 118.201Z" fill="#777777"/>
<path d="M42.2785 143.501H160.869L161.775 137.65H44.3388L42.2785 143.501Z" fill="#777777"/>
</svg>
