<svg width="180" height="180" viewBox="0 0 180 180" fill="none" xmlns="http://www.w3.org/2000/svg">
<path d="M126.027 83.3265H52.4175C51.8815 76.716 50.9286 69.5992 49.5589 61.9762H79.0386C78.3833 58.9387 77.877 56.7653 77.5198 55.4548C77.2222 53.7873 77.0732 52.4473 77.0732 51.4348C77.0732 48.1593 78.2347 45.3305 80.5573 42.9483C82.9395 40.5661 85.8279 39.375 89.2226 39.375C92.5577 39.375 95.3865 40.5661 97.7091 42.9483C100.091 45.3305 101.282 48.1593 101.282 51.4348C101.282 52.4473 101.134 53.7873 100.835 55.4548C100.121 58.1946 99.6446 60.3681 99.4061 61.9762H128.886C127.456 69.5992 126.503 76.716 126.027 83.3265ZM52.5068 89.4009H126.027C125.968 90.4731 125.908 91.5154 125.849 92.5279C125.789 93.5404 125.759 94.5225 125.759 95.4754C125.759 98.9297 125.789 101.461 125.849 103.069H52.4176C52.5962 100.687 52.6856 98.1557 52.6856 95.4754C52.6856 92.7956 52.626 90.7706 52.507 89.4009H52.5068ZM126.831 115.307H51.5242C51.8815 112.568 52.09 110.513 52.1495 109.144H126.295C126.355 111.228 126.533 113.282 126.831 115.307ZM50.6309 121.471H127.635C128.291 126.057 129.154 130.583 130.226 135.05H48.2189C48.7549 132.846 49.2015 130.613 49.5589 128.35C49.9162 126.087 50.2736 123.794 50.6309 121.471ZM46.7003 141.392H131.744C133.829 149.075 136.271 156.192 139.07 162.743H89.2226H39.375C42.1145 156.192 44.5562 149.075 46.7003 141.392Z" fill="black"/>
<path d="M126.027 83.3265H52.4171L52.5064 89.4009H126.027V83.3265Z" fill="#777777"/>
<path d="M125.848 103.069H52.4171L52.149 109.144H126.295L125.848 103.069Z" fill="#777777"/>
<path d="M126.831 115.307H51.5237L50.6304 121.471H127.635L126.831 115.307Z" fill="#777777"/>
<path d="M130.226 135.05H48.2185L46.6998 141.392H131.744L130.226 135.05Z" fill="#777777"/>
</svg>
