<svg width="32" height="32" viewBox="0 0 32 32" fill="none" xmlns="http://www.w3.org/2000/svg">
<path d="M16.3962 6.45197H11.9766V4.49489H15.4213V3H17.3712V4.49489H20.8087V6.45197H16.3962ZM21.632 17.3134L26.1239 10.4239H6.63973L11.1605 17.3134H21.632ZM22.8091 19.2921H9.97616L3 8.46682H29.7925L22.8091 19.2921ZM15.4213 11.9188H17.3712V15.3202H15.4213V11.9188ZM14.5475 15.3202L12.2077 15.3274L9.80284 11.9332H12.186L14.5475 15.3202ZM18.245 15.3202L20.6282 11.9188L22.9897 11.926L20.657 15.3202L18.245 15.3202ZM11.9766 23.2135V26.6727H20.8087V23.2135H11.9766ZM9.97616 21.2564H22.8091V28.6804H9.97616V21.2564Z" fill="black"/>
<path d="M21.632 17.3134L26.1238 10.4239H6.63971L11.1605 17.3134H21.632ZM15.4213 11.9188H17.3711V15.3202H15.4213V11.9188ZM14.5475 15.3202L12.2076 15.3274L9.80281 11.9332H12.186L14.5475 15.3202ZM18.245 15.3202L20.6281 11.9188L22.9896 11.926L20.657 15.3202L18.245 15.3202ZM11.9765 23.2135V26.6727H20.8087V23.2135H11.9765Z" fill="white"/>
</svg>
