<svg width="32" height="32" viewBox="0 0 32 32" fill="none" xmlns="http://www.w3.org/2000/svg">
<path d="M16.389 15.3669H14.3308L16.389 11.8428L18.4183 15.3669H16.389ZM25.3006 11.7417L19.5088 13.316L16.389 7.90694L13.2765 13.3015L7.48467 11.7561L11.1533 17.3601H21.6248L25.3006 11.7417ZM29.7997 8.52078L22.8019 19.3389H9.96894L3 8.52078L12.3232 11.0412L16.389 4L20.4621 11.0267L29.7997 8.52078ZM11.9693 23.2603V26.7195H20.8015V23.2603H11.9693ZM9.96894 21.3032H22.8019V28.7271H9.96894V21.3032Z" fill="black"/>
<path d="M16.389 15.3669H14.3308L16.389 11.8428L18.4183 15.3669H16.389ZM25.3006 11.7417L19.5088 13.316L16.389 7.90694L13.2765 13.3015L7.48468 11.7561L11.1533 17.3601H21.6248L25.3006 11.7417ZM11.9694 23.2603V26.7195H20.8015V23.2603H11.9694Z" fill="white"/>
</svg>
