<svg width="32" height="32" viewBox="0 0 32 32" fill="none" xmlns="http://www.w3.org/2000/svg">
<path d="M28.9678 30.4328H19.109C18.7476 30.4328 18.4201 30.3341 18.1265 30.1369C17.8329 29.9396 17.5731 29.6985 17.3473 29.4136L17.0424 29.052L16.7713 28.7232L16.5003 28.5259C16.4325 28.4602 16.3309 28.4273 16.1954 28.4273L15.9921 28.4602L15.8566 28.5259C15.7437 28.5917 15.5968 28.7232 15.4162 28.9205L14.9418 29.4136C14.716 29.6766 14.4111 29.9177 14.0271 30.1369C13.6657 30.3341 13.1688 30.4328 12.5364 30.4328H3.42293L2 23.8575H10.9441H11.0796H11.249L11.6556 23.8246C11.7233 23.8027 11.7798 23.7369 11.825 23.6273C11.825 23.452 11.6556 23.2109 11.3168 22.904L10.2326 21.6876C9.80351 21.1616 9.43084 20.5369 9.11463 19.8136C8.79842 19.0904 8.64032 18.2136 8.64032 17.1835C8.64032 15.8904 8.87748 14.7835 9.35178 13.863C9.82609 12.9205 10.3682 12.1096 10.978 11.4301C11.5878 10.7287 12.1299 10.1808 12.6042 9.78628C13.1011 9.39176 13.3608 9.11779 13.3834 8.96436L13.3156 8.66847L13.214 8.2082L13.0785 7.6493L13.0446 6.89314C13.0446 6.16985 13.3721 5.51232 14.0271 4.92054C14.6821 4.30685 15.4049 4 16.1954 4H16.3648H16.5342C17.1892 4.06575 17.8103 4.40548 18.3975 5.01917C19.0073 5.63287 19.3123 6.37807 19.3123 7.25478L19.2784 7.71505C19.2784 7.8904 19.2558 8.0219 19.2106 8.10957L19.0751 8.47121L18.8718 8.86573L19.5494 9.42463L20.1931 9.98354C21.3676 11.0137 22.2485 12.0876 22.8357 13.2054C23.4455 14.3232 23.7504 15.6602 23.7504 17.2164C23.7504 18.0493 23.581 18.8273 23.2423 19.5506C22.9261 20.252 22.5647 20.8657 22.1581 21.3917L21.0401 22.7725C20.7691 23.1013 20.611 23.3862 20.5658 23.6273C20.6561 23.7588 20.7239 23.8246 20.7691 23.8246L21.345 23.8575H21.5144H30.3908L28.9678 30.4328ZM27.4772 26.1917H20.1254C19.5381 26.1917 19.0186 26.0054 18.5669 25.6328C18.1152 25.2383 17.8893 24.767 17.8893 24.2191L17.9232 23.8903L18.0249 23.5287C18.1604 23.178 18.3749 22.7944 18.6686 22.378L19.6172 21.1616C19.7527 20.9862 19.9447 20.7123 20.1931 20.3397C20.3738 20.0766 20.5771 19.7588 20.8029 19.3862C21.1643 18.7287 21.345 18.0164 21.345 17.2493C21.345 15.8465 21.0627 14.5863 20.498 13.4685C19.956 12.3507 19.0864 11.4739 17.8893 10.8383C17.3021 12.0438 16.9407 13.2493 16.8052 14.4548L16.6358 17.2493V17.5123V17.7095H14.3659V17.4794C14.3659 16.6246 14.3772 16 14.3998 15.6054C14.4449 15.189 14.5466 14.6739 14.7047 14.0602C15.0209 12.9424 15.371 11.9342 15.755 11.0356L16.7036 8.93149C16.952 8.36162 17.0988 7.97806 17.144 7.7808V7.61642C17.144 7.2219 17.0537 6.88218 16.873 6.59725C16.7375 6.2904 16.4664 6.13698 16.0599 6.13698H15.8905C15.6872 6.15889 15.4726 6.27944 15.2468 6.49862C15.0209 6.7178 14.908 6.99177 14.908 7.32053L14.9418 7.94519L15.0774 8.50409V8.6356L15.1112 8.73423L15.179 9.16162L15.2129 9.58902C15.2129 9.78628 15.1677 9.96162 15.0774 10.115L14.7047 10.5753L13.9594 11.2C13.6657 11.4191 13.3947 11.6602 13.1463 11.9233C12.6268 12.4054 12.1412 13.0959 11.6894 13.9945C11.2603 14.8931 11.0457 16.1205 11.0457 17.6767C11.0457 18.3999 11.2151 19.0575 11.5539 19.6493C11.8927 20.2191 12.288 20.7671 12.7397 21.2931L13.3495 22.0821L13.9255 22.8383L14.2643 23.5287L14.3998 24.252C14.3998 24.9095 14.1852 25.4027 13.7561 25.7314C13.3495 26.0383 12.8413 26.1917 12.2315 26.1917H4.91361L5.32016 28.0985H12.9769C13.3608 28.0985 13.6883 27.9999 13.9594 27.8026L14.6369 27.0794L14.7386 26.9807L15.3484 26.3561C15.5517 26.1588 15.834 26.0602 16.1954 26.0602C16.4212 26.0602 16.6584 26.1588 16.9068 26.3561L17.5844 26.9479L17.6861 27.0794L18.4314 27.8026C18.6799 27.9999 18.9509 28.0985 19.2445 28.0985H27.0367L27.4772 26.1917Z" fill="#111111"/>
<path d="M27.4771 26.1917H20.1254C19.5381 26.1917 19.0186 26.0054 18.5669 25.6328C18.1152 25.2383 17.8893 24.767 17.8893 24.2191L17.9232 23.8903L18.0248 23.5287C18.1604 23.178 18.3749 22.7944 18.6685 22.378L19.6172 21.1616C19.7527 20.9862 19.9447 20.7123 20.1931 20.3397C20.3738 20.0766 20.5771 19.7588 20.8029 19.3862C21.1643 18.7287 21.345 18.0164 21.345 17.2493C21.345 15.8465 21.0627 14.5863 20.498 13.4685C19.956 12.3507 19.0864 11.4739 17.8893 10.8383C17.3021 12.0438 16.9407 13.2493 16.8052 14.4548L16.6358 17.2493V17.5123V17.7095H14.3659V17.4794C14.3659 16.6246 14.3772 16 14.3998 15.6054C14.4449 15.189 14.5466 14.6739 14.7047 14.0602C15.0209 12.9424 15.371 11.9342 15.7549 11.0356L16.7036 8.9315C16.952 8.36164 17.0988 7.97808 17.144 7.78082V7.61643C17.144 7.22192 17.0536 6.88219 16.873 6.59726C16.7374 6.29041 16.4664 6.13699 16.0599 6.13699H15.8905C15.6872 6.15891 15.4726 6.27945 15.2468 6.49863C15.0209 6.71781 14.908 6.99178 14.908 7.32055L14.9418 7.9452L15.0774 8.5041V8.63561L15.1112 8.73424L15.179 9.16163L15.2129 9.58903C15.2129 9.78629 15.1677 9.96163 15.0774 10.115L14.7047 10.5753L13.9593 11.2C13.6657 11.4191 13.3947 11.6602 13.1462 11.9233C12.6268 12.4054 12.1412 13.0959 11.6894 13.9945C11.2603 14.8931 11.0457 16.1205 11.0457 17.6767C11.0457 18.3999 11.2151 19.0575 11.5539 19.6493C11.8927 20.2191 12.288 20.7671 12.7397 21.2931L13.3495 22.0821L13.9255 22.8383L14.2643 23.5287L14.3998 24.252C14.3998 24.9095 14.1852 25.4027 13.7561 25.7314C13.3495 26.0383 12.8413 26.1917 12.2315 26.1917H4.9136L5.32015 28.0985H12.9768C13.3608 28.0985 13.6883 27.9999 13.9593 27.8026L14.6369 27.0794L14.7386 26.9807L15.3484 26.3561C15.5517 26.1588 15.834 26.0602 16.1954 26.0602C16.4212 26.0602 16.6584 26.1588 16.9068 26.3561L17.5844 26.9479L17.6861 27.0794L18.4314 27.8026C18.6798 27.9999 18.9509 28.0985 19.2445 28.0985H27.0367L27.4771 26.1917Z" fill="#F5F5F5"/>
</svg>
