<svg width="32" height="32" viewBox="0 0 32 32" fill="none" xmlns="http://www.w3.org/2000/svg">
<path d="M6.15321 30L6.03829 29.2348L6 28.5078C6 27.4365 6.20428 26.5438 6.61288 25.8296C6.84272 25.4215 7.0598 25.0899 7.2641 24.8348C7.49394 24.5542 7.76208 24.2736 8.06853 23.993L8.29837 23.8017L8.56651 23.6104C9.07727 23.2023 9.57526 22.8835 10.0605 22.6539C10.5712 22.4243 10.8521 22.2586 10.9032 22.1565L10.8649 21.8887V21.5826L10.9798 20.5113L11.3246 19.44C11.7077 18.5983 12.2312 17.8841 12.8952 17.2974C13.5847 16.6852 14.3253 16.3026 15.1169 16.1496L15.3085 16.1113H15.5L15.7681 16.1496H16.0363C16.7258 16.3026 17.4026 16.6852 18.0665 17.2974C18.7305 17.9096 19.254 18.6238 19.6371 19.44L19.9052 20.2435L20.0585 21.047L20.0968 21.3148V21.5826V21.8887L20.0585 22.1565L20.8629 22.6539C21.3226 22.858 21.8716 23.2023 22.5101 23.687L22.7016 23.84L22.9314 23.993C23.4422 24.4267 23.9146 25.0261 24.3488 25.7913C24.7829 26.5565 25 27.4748 25 28.5461L24.9617 29.273L24.8468 30H6.15321ZM12.8952 9.07131C13.6102 8.3571 14.4785 8 15.5 8C16.496 8 17.3515 8.3571 18.0665 9.07131C18.7816 9.78551 19.1391 10.64 19.1391 11.6348C19.1391 12.6296 18.7816 13.4841 18.0665 14.1983C17.3515 14.9125 16.496 15.2696 15.5 15.2696C14.504 15.2696 13.6485 14.9252 12.9335 14.2365C12.2184 13.5223 11.8609 12.6551 11.8609 11.6348C11.8609 10.6655 12.2056 9.81102 12.8952 9.07131Z" fill="#111111"/>
</svg>
