<svg width="32" height="32" viewBox="0 0 32 32" fill="none" xmlns="http://www.w3.org/2000/svg">
<path d="M6.61739 30V29.9311V29.0358C6.61739 28.5766 6.63892 28.1289 6.68199 27.6927C6.74658 27.2336 6.90808 26.717 7.16646 26.1431C7.42485 25.5691 7.86626 25.2477 8.49069 25.1788L9.62112 25.0755L10.8484 24.9377L13.1739 24.6967L15.9193 24.5934C16.393 24.5934 16.9205 24.6049 17.5019 24.6278C18.1048 24.6508 18.7292 24.6967 19.3752 24.7656C20.1072 24.7656 20.8716 24.823 21.6683 24.9377C22.465 25.0525 23.1433 25.1444 23.7031 25.2132C24.2629 25.2821 24.6828 25.6724 24.9627 26.3841C25.0273 26.5678 25.1135 26.8662 25.2211 27.2795C25.3288 27.6927 25.3826 28.1404 25.3826 28.6225L25.4149 29.2768V29.8967V30H6.61739ZM24.8981 12.196L24.5106 11.5417L24.3814 10.6808C24.3814 10.0609 24.6075 9.49845 25.0596 8.99338C25.5118 8.4883 26.0501 8.23576 26.6745 8.23576C27.2559 8.23576 27.7834 8.4883 28.2571 8.99338C28.7524 9.4755 29 10.038 29 10.6808C29 11.3236 28.7954 11.8746 28.3863 12.3338C27.9988 12.77 27.5143 13.0455 26.9329 13.1603L23.4447 23.2503L19.4075 22.8371L15.9838 22.6649L13.2385 22.7682L10.913 23.0093L9.68571 23.147L8.55528 23.2503L5.13168 13.1258C4.59337 13.1258 4.09814 12.8848 3.64596 12.4026C3.21532 11.8976 3 11.3236 3 10.6808C3 10.0609 3.22609 9.49845 3.67826 8.99338C4.15197 8.46534 4.70104 8.20133 5.32547 8.20133C5.92837 8.20133 6.4559 8.45387 6.90807 8.95894C7.38178 9.44106 7.61863 10.015 7.61863 10.6808V10.7841L7.48944 11.3351C7.42484 11.5647 7.28488 11.8402 7.06956 12.1616L10.3963 16.1907L11.7851 9.02782C11.3329 9.02782 10.913 8.78676 10.5255 8.30464C10.1594 7.79956 9.97639 7.23709 9.97639 6.61722C9.97639 5.88256 10.224 5.26269 10.7193 4.75762C11.2145 4.25254 11.7851 4 12.4311 4C13.077 4 13.6476 4.25254 14.1429 4.75762C14.6381 5.23974 14.8857 5.8596 14.8857 6.61722L14.8534 6.85828V7.09934C14.7888 7.39779 14.6704 7.69625 14.4981 7.9947C14.3259 8.2702 14.0783 8.51126 13.7553 8.71788L16.0484 15.8119L18.3093 8.71788C18.0294 8.4883 17.7925 8.18985 17.5988 7.82252C17.4265 7.43223 17.3404 7.03047 17.3404 6.61722C17.3404 5.88256 17.588 5.26269 18.0832 4.75762C18.5785 4.25254 19.1491 4 19.795 4C20.441 4 21.0116 4.25254 21.5068 4.75762C22.0021 5.23974 22.2497 5.8596 22.2497 6.61722C22.2497 7.23709 22.099 7.74217 21.7975 8.13245C21.4961 8.52274 21.087 8.82119 20.5702 9.02782L21.7006 16.1907L24.8981 12.196Z" fill="#111111"/>
</svg>
