<svg width="50" height="50" viewBox="0 0 50 50" fill="none" xmlns="http://www.w3.org/2000/svg">
<path fill-rule="evenodd" clip-rule="evenodd" d="M25.01 8.29999C24.6608 8.30001 24.315 8.3648 23.9923 8.49063C23.6697 8.61646 23.3765 8.8009 23.1296 9.03339C22.8827 9.26587 22.6869 9.54184 22.5533 9.84558C22.4197 10.1493 22.3509 10.4748 22.351 10.8036C22.3511 11.192 22.4472 11.5751 22.6317 11.9226C22.8162 12.27 23.0841 12.5723 23.4142 12.8054C6.4912 27.5764 17.5742 39.6454 17.5742 39.6454H32.4462C32.4462 39.6454 40.2258 31.169 32.7885 19.7304L27.2417 27.4722L24.2474 25.3281L30.4623 16.6542C29.3765 15.3964 28.1027 14.1112 26.6057 12.8046C26.9358 12.5715 27.2038 12.2693 27.3884 11.9218C27.5731 11.5744 27.6692 11.1913 27.6694 10.8028C27.6694 10.4741 27.6007 10.1485 27.4671 9.84482C27.3335 9.54109 27.1377 9.26508 26.8908 9.03259C26.6439 8.80011 26.3507 8.61571 26.0281 8.48987C25.7055 8.36403 25.3597 8.29923 25.0105 8.29919L25.01 8.29999Z" fill="#F8ECD1" stroke="#191919" stroke-width="1.2" stroke-linejoin="round"/>
<path fill-rule="evenodd" clip-rule="evenodd" d="M18.41 39.02C18.41 39.02 8.144 26.263 25.0283 12.886C20.9447 17.9485 14.8123 26.743 23.5154 39.015L18.41 39.02Z" fill="url(#paint0_linear_2_257)"/>
<path d="M24.13 11.9589C24.7279 11.9589 25.2126 11.4221 25.2126 10.76C25.2126 10.0979 24.7279 9.5611 24.13 9.5611C23.5321 9.5611 23.0474 10.0979 23.0474 10.76C23.0474 11.4221 23.5321 11.9589 24.13 11.9589Z" fill="url(#paint1_linear_2_257)"/>
<path fill-rule="evenodd" clip-rule="evenodd" d="M27.47 28.3C27.5636 28.3 32.7319 20.8866 32.7319 20.8866C32.7319 20.8866 33.089 21.2666 33.2527 21.7343L28.2325 28.8782L27.47 28.3Z" fill="url(#paint2_linear_2_257)"/>
<path opacity="0.15" fill-rule="evenodd" clip-rule="evenodd" d="M34.44 24.36C37.2859 33.3033 32.147 39.027 32.147 39.027H28.756C31.0188 38.9462 35.722 30.607 34.4399 24.36H34.44Z" fill="black" fill-opacity="0.90196" stroke="black" stroke-width="0.26458"/>
<path fill-rule="evenodd" clip-rule="evenodd" d="M15.21 39.0316L13.9408 39.8191V42.9484L15.21 43.7364H34.774L36.0432 42.9484V39.8191L34.774 39.0316H24.992H15.21Z" fill="#F8ECD1" stroke="#191919" stroke-width="1.1999" stroke-linejoin="round"/>
<path fill-rule="evenodd" clip-rule="evenodd" d="M35.49 40.1816L14.496 40.1906L15.3804 39.6486L34.6274 39.6336L35.49 40.1816Z" fill="url(#paint3_linear_2_257)"/>
<path opacity="0.15" fill-rule="evenodd" clip-rule="evenodd" d="M35.49 40.1816L35.482 42.5851L34.616 43.1089L26.1767 43.0987C26.1767 43.0987 29.1254 42.4703 28.1158 40.2049C28.1148 40.2009 33.3929 40.1849 35.49 40.1815L35.49 40.1816Z" fill="black"/>
<path fill-rule="evenodd" clip-rule="evenodd" d="M15.21 43.7316V45.6911H34.774V43.7316H15.21Z" fill="#F8ECD1" stroke="#191919" stroke-width="1.2" stroke-linecap="round" stroke-linejoin="round"/>
<path d="M23.4156 44.3616H15.84V45.0706H23.4156V44.3616Z" fill="url(#paint4_linear_2_257)"/>
<defs>
<linearGradient id="paint0_linear_2_257" x1="14.3692" y1="26.33" x2="20.1492" y2="26.35" gradientUnits="userSpaceOnUse">
<stop stop-color="white"/>
<stop offset="1" stop-color="white" stop-opacity="0"/>
</linearGradient>
<linearGradient id="paint1_linear_2_257" x1="23.04" y1="10.76" x2="25.21" y2="10.76" gradientUnits="userSpaceOnUse">
<stop stop-color="white"/>
<stop offset="1" stop-color="white" stop-opacity="0"/>
</linearGradient>
<linearGradient id="paint2_linear_2_257" x1="27.47" y1="24.88" x2="33.25" y2="24.88" gradientUnits="userSpaceOnUse">
<stop stop-color="white"/>
<stop offset="1" stop-color="white" stop-opacity="0"/>
</linearGradient>
<linearGradient id="paint3_linear_2_257" x1="14.49" y1="39.9116" x2="35.49" y2="39.9116" gradientUnits="userSpaceOnUse">
<stop stop-color="white"/>
<stop offset="1" stop-color="white" stop-opacity="0"/>
</linearGradient>
<linearGradient id="paint4_linear_2_257" x1="15.84" y1="44.7216" x2="23.42" y2="44.7216" gradientUnits="userSpaceOnUse">
<stop stop-color="white"/>
<stop offset="1" stop-color="white" stop-opacity="0"/>
</linearGradient>
</defs>
</svg>
