<svg width="50" height="50" viewBox="0 0 50 50" fill="none" xmlns="http://www.w3.org/2000/svg">
<path fill-rule="evenodd" clip-rule="evenodd" d="M34.7724 39.6637C34.7724 39.6637 30.9183 29.3884 36.1731 19.8634L34.6069 10.294C34.6069 10.294 30.4427 9.42043 27.5869 8.76459C26.5832 9.92575 25.6944 10.9122 25.6944 10.9122L11.7148 12.7388C11.7148 12.7388 9.58419 12.982 9.93219 18.5296C12.0376 18.3195 12.9235 18.2586 13.1168 19.5404L10.3758 19.8846C10.3758 19.8846 10.5127 22.6751 12.2794 22.7025C15.1702 22.5415 19.3697 20.3574 22.0198 25.7411C20.0021 29.0643 13.6693 32.0922 15.2083 39.6644L34.7724 39.6637Z" fill="#F8ECD1" stroke="#191919" stroke-width="1.19992" stroke-linejoin="round"/>
<path opacity="0.15" fill-rule="evenodd" clip-rule="evenodd" d="M27.9429 18.3469C23.4892 25.4773 22.1544 19.4751 11.2028 21.201C11.2028 21.201 11.2139 22.2323 12.4569 22.342C13.7831 22.3077 19.3769 19.9191 22.0464 24.8071C25.1925 26.8644 27.8626 19.6653 27.9435 18.3471L27.9429 18.3469Z" fill="black" fill-opacity="0.90196"/>
<path fill-rule="evenodd" clip-rule="evenodd" d="M28.827 11.6094C28.922 11.4742 29.2815 10.6629 29.2815 10.6629L37.0841 10.6309C36.8914 14.6083 31.096 15.3784 31.096 15.3784" fill="#F8ECD1"/>
<path d="M28.827 11.6094C28.922 11.4742 29.2815 10.6629 29.2815 10.6629L37.0841 10.6309C36.8914 14.6083 31.096 15.3784 31.096 15.3784" stroke="#191919" stroke-width="1.19992" stroke-linecap="round" stroke-linejoin="round"/>
<path fill-rule="evenodd" clip-rule="evenodd" d="M11.9522 14.7795C11.3503 15.2313 11.3152 15.6887 11.3451 16.1023C11.9734 16.3183 13.1733 15.6211 13.1109 14.5692L11.9522 14.7793V14.7795Z" fill="#191919" fill-opacity="0.90196"/>
<path opacity="0.15" fill-rule="evenodd" clip-rule="evenodd" d="M35.4906 16.9885C28.659 18.7993 31.0164 30.3982 30.4175 39.2839L34.2765 39.2729C33.5845 39.3314 30.5085 27.5398 35.5818 19.6978L35.0929 17.1078L35.4906 16.9885Z" fill="black"/>
<path fill-rule="evenodd" clip-rule="evenodd" d="M10.6258 15.7736C10.6258 15.7736 10.8262 13.673 11.8801 13.2872L25.7292 11.5728L27.9086 11.5021L11.9233 13.884C11.9233 13.884 11.2778 14.2695 10.6263 15.7736H10.6258Z" fill="url(#paint0_linear_2_325)"/>
<path fill-rule="evenodd" clip-rule="evenodd" d="M29.0809 12.3494L29.6046 11.2503L36.2362 11.268L29.9251 11.7199L29.0809 12.3494Z" fill="url(#paint1_linear_2_325)"/>
<path fill-rule="evenodd" clip-rule="evenodd" d="M16.262 38.9681C15.5846 31.7948 20.3158 30.4503 22.7378 26.5125C20.6975 30.498 16.2184 33.6054 20.5497 39L16.262 38.9681Z" fill="url(#paint2_linear_2_325)"/>
<path fill-rule="evenodd" clip-rule="evenodd" d="M27.0917 12.9017L26.8206 13.4712L25.8042 13.584C25.8716 13.6867 25.8739 13.7358 25.8838 13.8517C25.7364 15.169 23.569 15.0525 23.4411 14.0465C23.4289 13.9592 23.4412 13.869 23.471 13.782L22.8629 13.5813L21.9153 13.2687C22.0004 13.2687 27.0917 12.9016 27.0917 12.9017V12.9017Z" fill="#191919" fill-opacity="0.90196"/>
<path fill-rule="evenodd" clip-rule="evenodd" d="M15.21 39.034L13.9408 39.8215V42.9508L15.21 43.7388H34.774L36.0432 42.9508V39.8215L34.774 39.034H24.992H15.21Z" fill="#F8ECD1" stroke="#191919" stroke-width="1.1999" stroke-linejoin="round"/>
<path fill-rule="evenodd" clip-rule="evenodd" d="M35.49 40.184L14.496 40.193L15.3804 39.651L34.6274 39.636L35.49 40.184Z" fill="url(#paint3_linear_2_325)"/>
<path opacity="0.15" fill-rule="evenodd" clip-rule="evenodd" d="M35.49 40.184L35.482 42.5875L34.616 43.1113L26.1767 43.1011C26.1767 43.1011 29.1254 42.4727 28.1158 40.2073C28.1148 40.2033 33.3929 40.1874 35.49 40.184L35.49 40.184Z" fill="black"/>
<path fill-rule="evenodd" clip-rule="evenodd" d="M15.21 43.734V45.6935H34.774V43.734H15.21Z" fill="#F8ECD1" stroke="#191919" stroke-width="1.2" stroke-linecap="round" stroke-linejoin="round"/>
<path d="M23.4156 44.364H15.84V45.073H23.4156V44.364Z" fill="url(#paint4_linear_2_325)"/>
<defs>
<linearGradient id="paint0_linear_2_325" x1="10.6258" y1="13.675" x2="27.8654" y2="13.675" gradientUnits="userSpaceOnUse">
<stop stop-color="white"/>
<stop offset="1" stop-color="white" stop-opacity="0"/>
</linearGradient>
<linearGradient id="paint1_linear_2_325" x1="28.9704" y1="11.6868" x2="36.485" y2="11.6868" gradientUnits="userSpaceOnUse">
<stop stop-color="white"/>
<stop offset="1" stop-color="white" stop-opacity="0"/>
</linearGradient>
<linearGradient id="paint2_linear_2_325" x1="15.9071" y1="33.4455" x2="19.7747" y2="34.3299" gradientUnits="userSpaceOnUse">
<stop stop-color="white"/>
<stop offset="1" stop-color="white" stop-opacity="0"/>
</linearGradient>
<linearGradient id="paint3_linear_2_325" x1="14.49" y1="39.914" x2="35.49" y2="39.914" gradientUnits="userSpaceOnUse">
<stop stop-color="white"/>
<stop offset="1" stop-color="white" stop-opacity="0"/>
</linearGradient>
<linearGradient id="paint4_linear_2_325" x1="15.84" y1="44.724" x2="23.42" y2="44.724" gradientUnits="userSpaceOnUse">
<stop stop-color="white"/>
<stop offset="1" stop-color="white" stop-opacity="0"/>
</linearGradient>
</defs>
</svg>
