<svg width="64" height="64" viewBox="0 0 64 64" fill="none" xmlns="http://www.w3.org/2000/svg">
<path d="M19.71 10.503C19.9587 7.0706 24.9656 5.9566 26.8482 8.7083C28.1271 10.2338 27.2673 12.1902 26.6895 13.8034C28.3843 17.3169 30.1279 20.8069 31.8547 24.3054C33.6907 20.7867 35.5195 17.264 37.3608 13.7474C36.8175 12.2497 35.9275 10.5467 36.9334 9.0213C38.6286 5.9336 44.1438 6.8677 44.3648 10.5107C44.7379 12.4947 43.0493 13.7555 41.7269 14.8579C42.9899 20.0498 44.2606 25.2399 45.5318 30.4299C47.9661 28.5525 50.4153 26.693 52.8276 24.7844C52.8135 23.1717 52.4962 21.1071 54.1703 20.1595C56.266 18.5907 59.5844 20.4852 59.2944 23.0876C59.379 25.1019 57.3354 25.8596 55.8801 26.6308C53.9307 30.9395 51.7949 35.176 50.0631 39.5748C49.3087 44.3902 49.1334 49.2834 48.5313 54.1218C42.0905 58.1352 34.1953 58.4299 26.8433 57.8707C22.8253 57.5937 18.8013 56.5477 15.4923 54.1757C14.7913 49.3117 14.5003 44.3867 13.6403 39.5507C11.9853 35.1517 9.96154 30.8957 8.09084 26.5857C6.62644 25.8677 4.66814 25.0997 4.71144 23.1337C4.35074 20.3277 8.12994 18.4477 10.1553 20.4097C11.6024 21.4228 11.1212 23.28 11.09 24.7634C13.4554 26.647 15.8116 28.5426 18.1743 30.4325C19.5417 25.2305 20.9208 20.0315 22.2801 14.8275C20.9576 13.7379 19.3339 12.4615 19.7094 10.505L19.71 10.503Z" fill="#F3F0D7" stroke="#2C322C" stroke-width="0.084247" stroke-miterlimit="10"/>
<path d="M19.71 10.503C19.9587 7.0706 24.9656 5.9566 26.8482 8.7083C28.1271 10.2338 27.2673 12.1902 26.6895 13.8034C28.3843 17.3169 30.1279 20.8069 31.8547 24.3054C33.6907 20.7867 35.5195 17.264 37.3608 13.7474C36.8175 12.2497 35.9275 10.5467 36.9334 9.0213C38.6286 5.9336 44.1438 6.8677 44.3648 10.5107C44.7379 12.4947 43.0493 13.7555 41.7269 14.8579C42.9899 20.0498 44.2606 25.2399 45.5318 30.4299C47.9661 28.5525 50.4153 26.693 52.8276 24.7844C52.8135 23.1717 52.4962 21.1071 54.1703 20.1595C56.266 18.5907 59.5844 20.4852 59.2944 23.0876C59.379 25.1019 57.3354 25.8596 55.8801 26.6308C53.9307 30.9395 51.7949 35.176 50.0631 39.5748C49.3087 44.3902 49.1334 49.2834 48.5313 54.1218C42.0905 58.1352 34.1953 58.4299 26.8433 57.8707C22.8253 57.5937 18.8013 56.5477 15.4923 54.1757C14.7913 49.3117 14.5003 44.3867 13.6403 39.5507C11.9853 35.1517 9.96154 30.8957 8.09084 26.5857C6.62644 25.8677 4.66814 25.0997 4.71144 23.1337C4.35074 20.3277 8.12994 18.4477 10.1553 20.4097C11.6024 21.4228 11.1212 23.28 11.09 24.7634C13.4554 26.647 15.8116 28.5426 18.1743 30.4325C19.5417 25.2305 20.9208 20.0315 22.2801 14.8275C20.9576 13.7379 19.3339 12.4615 19.7094 10.505L19.71 10.503Z" fill="#2C322C"/>
<path d="M22.953 9.102C25.6052 7.7986 26.9044 12.5523 24.1614 12.9236C21.7077 13.688 20.6567 9.917 22.953 9.102Z" fill="#F3F0D7" stroke="#F3F0D7" stroke-width="0.084247" stroke-miterlimit="10"/>
<path d="M22.953 9.102C25.6052 7.7986 26.9044 12.5523 24.1614 12.9236C21.7077 13.688 20.6567 9.917 22.953 9.102Z" fill="#F3F0D7"/>
<path d="M39.082 9.30699C40.5303 8.37721 42.8598 9.3102 42.4364 11.2376C42.4083 13.0112 40.2282 13.325 38.9684 12.5861C38.3281 11.6178 38.1535 10.1607 39.082 9.30699Z" fill="#F3F0D7" stroke="#F3F0D7" stroke-width="0.084247" stroke-miterlimit="10"/>
<path d="M39.082 9.30699C40.5303 8.37721 42.8598 9.3102 42.4364 11.2376C42.4083 13.0112 40.2282 13.325 38.9684 12.5861C38.3281 11.6178 38.1535 10.1607 39.082 9.30699Z" fill="#F3F0D7"/>
<path d="M19.148 33.707C21.182 27.298 22.2119 20.532 24.9702 14.381C27.4197 18.9937 29.5421 23.7701 31.8538 28.453C34.1882 23.8016 36.3822 19.0786 38.8222 14.48C39.8656 15.5738 40.3302 17.0063 40.679 18.4401C41.9551 23.5367 43.2803 28.6211 44.5949 33.7081C47.7023 31.2695 50.8062 28.8256 53.9169 26.389C52.0912 30.2918 50.2263 34.1756 48.4086 38.082C37.9046 33.7645 25.8276 33.9413 15.3016 38.0884C13.4255 33.9776 11.5145 29.8834 9.63161 25.7764C12.808 28.414 15.9749 31.0639 19.1481 33.7075L19.148 33.707Z" fill="#F3F0D7" stroke="#F3F0D7" stroke-width="0.084247" stroke-miterlimit="10"/>
<path d="M19.148 33.707C21.182 27.298 22.2119 20.532 24.9702 14.381C27.4197 18.9937 29.5421 23.7701 31.8538 28.453C34.1882 23.8016 36.3822 19.0786 38.8222 14.48C39.8656 15.5738 40.3302 17.0063 40.679 18.4401C41.9551 23.5367 43.2803 28.6211 44.5949 33.7081C47.7023 31.2695 50.8062 28.8256 53.9169 26.389C52.0912 30.2918 50.2263 34.1756 48.4086 38.082C37.9046 33.7645 25.8276 33.9413 15.3016 38.0884C13.4255 33.9776 11.5145 29.8834 9.63161 25.7764C12.808 28.414 15.9749 31.0639 19.1481 33.7075L19.148 33.707Z" fill="#F3F0D7"/>
<path d="M6.6943 21.614C8.6647 20.6083 10.0476 22.2159 9.2926 24.0918C7.4707 25.42 5.4789 23.4579 6.6943 21.614Z" fill="#F3F0D7" stroke="#F3F0D7" stroke-width="0.084247" stroke-miterlimit="10"/>
<path d="M6.6943 21.614C8.6647 20.6083 10.0476 22.2159 9.2926 24.0918C7.4707 25.42 5.4789 23.4579 6.6943 21.614Z" fill="#F3F0D7"/>
<path d="M54.458 24.599C54.5007 23.4076 54.2159 21.0873 56.177 21.5775C57.3139 21.2259 57.6288 22.7985 57.4737 23.5787C57.3505 25.0327 55.355 24.3126 54.458 24.599Z" fill="#F3F0D7" stroke="#F3F0D7" stroke-width="0.084247" stroke-miterlimit="10"/>
<path d="M54.458 24.599C54.5007 23.4076 54.2159 21.0873 56.177 21.5775C57.3139 21.2259 57.6288 22.7985 57.4737 23.5787C57.3505 25.0327 55.355 24.3126 54.458 24.599Z" fill="#F3F0D7"/>
<path d="M16.211 40.134C26.0133 35.7756 37.724 35.7585 47.523 40.1353C47.4225 41.458 47.3249 42.7809 47.2314 44.1046C46.0882 44.1064 44.949 44.1091 43.8137 44.1125C44.7948 45.2232 45.7836 46.3337 46.7688 47.4464C46.7803 48.1594 46.8032 49.5854 46.8147 50.2984C43.7427 48.8031 40.3945 47.9572 36.9923 47.7172C30.2569 47.1856 23.1063 47.1288 16.9433 50.294C16.9503 49.5839 16.9643 48.1638 16.9713 47.4537C17.9547 46.3384 18.94 45.2257 19.9299 44.1124C18.7741 44.109 17.6218 44.1065 16.4732 44.1048C16.3822 42.7806 16.294 41.4571 16.2101 40.1339L16.211 40.134Z" fill="#F3F0D7" stroke="#F3F0D7" stroke-width="0.084247" stroke-miterlimit="10"/>
<path d="M16.211 40.134C26.0133 35.7756 37.724 35.7585 47.523 40.1353C47.4225 41.458 47.3249 42.7809 47.2314 44.1046C46.0882 44.1064 44.949 44.1091 43.8137 44.1125C44.7948 45.2232 45.7836 46.3337 46.7688 47.4464C46.7803 48.1594 46.8032 49.5854 46.8147 50.2984C43.7427 48.8031 40.3945 47.9572 36.9923 47.7172C30.2569 47.1856 23.1063 47.1288 16.9433 50.294C16.9503 49.5839 16.9643 48.1638 16.9713 47.4537C17.9547 46.3384 18.94 45.2257 19.9299 44.1124C18.7741 44.109 17.6218 44.1065 16.4732 44.1048C16.3822 42.7806 16.294 41.4571 16.2101 40.1339L16.211 40.134Z" fill="#F3F0D7"/>
<path d="M29.65 41.316C31.4793 40.8334 33.4613 40.9854 35.2188 41.6878C35.6838 43.8608 33.2998 43.7095 31.8301 43.7893C30.3719 43.7133 28.0483 43.8281 28.4994 41.6972C28.787 41.6019 29.3623 41.4113 29.65 41.316Z" fill="#F3F0D7" stroke="#2C322C" stroke-width="0.084247" stroke-miterlimit="10"/>
<path d="M29.65 41.316C31.4793 40.8334 33.4613 40.9854 35.2188 41.6878C35.6838 43.8608 33.2998 43.7095 31.8301 43.7893C30.3719 43.7133 28.0483 43.8281 28.4994 41.6972C28.787 41.6019 29.3623 41.4113 29.65 41.316Z" fill="#2C322C"/>
<path d="M23.877 49.921C29.6196 49.069 35.498 49.1291 41.214 50.1666C42.8615 50.5065 44.6285 50.872 45.9167 52.044C46.6922 53.8032 44.4519 54.3605 43.221 54.8054C35.7956 56.5419 27.927 56.5272 20.497 54.8304C19.2146 54.369 16.8737 53.8279 17.7342 51.9956C19.4508 50.5754 21.7548 50.2918 23.8765 49.921H23.877Z" fill="#F3F0D7" stroke="#F3F0D7" stroke-width="0.084247" stroke-miterlimit="10"/>
<path d="M23.877 49.921C29.6196 49.069 35.498 49.1291 41.214 50.1666C42.8615 50.5065 44.6285 50.872 45.9167 52.044C46.6922 53.8032 44.4519 54.3605 43.221 54.8054C35.7956 56.5419 27.927 56.5272 20.497 54.8304C19.2146 54.369 16.8737 53.8279 17.7342 51.9956C19.4508 50.5754 21.7548 50.2918 23.8765 49.921H23.877Z" fill="#F3F0D7"/>
</svg>
