<svg width="64" height="64" viewBox="0 0 64 64" fill="none" xmlns="http://www.w3.org/2000/svg">
<path d="M15.039 10.785C17.1427 10.7849 19.2478 10.7849 21.3544 10.7849C21.3525 12.3639 21.3519 13.9427 21.3539 15.5218C23.4579 15.5215 25.5632 15.5215 27.6703 15.5215C27.6682 13.9425 27.6678 12.3637 27.6697 10.7848C30.6003 10.7849 33.5319 10.785 36.4648 10.7854C36.4629 12.364 36.4625 13.9424 36.4645 15.5211C38.5312 15.5212 40.5992 15.5216 42.6691 15.522C42.667 13.9428 42.6664 12.3639 42.6686 10.7849C44.7721 10.7849 46.8771 10.7849 48.984 10.7849C48.9823 13.9625 48.9824 17.1399 48.984 20.3175C47.666 21.795 46.3499 23.273 45.0349 24.7511C45.0406 31.0404 45.0304 37.3301 45.0399 43.6191C47.5213 46.3993 48.5994 49.182 51.3291 51.6913C51.3286 53.8436 51.3297 55.9962 51.3305 58.1494C38.4435 58.1504 25.5575 58.1504 12.6705 58.1504C12.6697 56.0039 12.6697 53.8578 12.6714 51.7121C15.7687 49.773 16.2941 45.9481 18.9807 43.6042C18.9933 37.3654 18.9819 31.1272 18.9868 24.8882C17.6681 23.4189 16.3518 21.9487 15.0367 20.4783C15.0401 17.2474 15.0387 14.0167 15.039 10.7859V10.785Z" fill="#2C322C"/>
<path d="M17.408 13.152C17.9166 13.1527 18.9337 13.1541 19.4423 13.1548C19.4396 14.7329 19.439 16.3109 19.441 17.8892C22.9725 17.8898 26.5048 17.8893 30.038 17.8896C30.036 16.3105 30.0357 14.7317 30.0378 13.1528C31.4372 13.153 32.8377 13.1531 34.2421 13.1535C34.2402 14.732 34.2396 16.3104 34.2413 17.8891C37.8389 17.8898 41.4373 17.8895 45.0363 17.8895C45.0341 16.3106 45.034 14.7319 45.0364 13.1532C45.4311 13.1531 46.2205 13.153 46.6152 13.1529C46.614 15.4081 46.614 17.6632 46.613 19.9185C45.3035 21.0834 43.9968 22.249 42.6914 23.4155C35.0524 23.4154 27.4144 23.4152 19.7754 23.4156C18.9839 22.5336 18.194 21.6515 17.4068 20.7695C17.406 18.2302 17.404 15.6911 17.4071 13.152H17.408Z" fill="#F3F0D7"/>
<path d="M21.354 25.784C28.4583 25.784 35.563 25.7839 42.668 25.784C42.6675 31.3099 42.6673 36.836 42.6681 42.362C35.5628 42.3618 28.4581 42.362 21.3541 42.3619C21.3535 36.8359 21.3536 31.3099 21.3541 25.7839L21.354 25.784Z" fill="#F3F0D7"/>
<path d="M20.814 44.719C28.2925 44.743 35.771 44.7267 43.251 44.7276C45.5714 46.9187 46.5943 49.5319 48.9832 51.712C48.9801 53.0681 48.9811 54.4248 48.9854 55.7822C37.6694 55.782 26.3534 55.7819 15.0384 55.7822C15.0375 54.4254 15.0378 53.0694 15.0407 51.7138C17.8075 50.0362 18.3857 46.7059 20.8145 44.7189L20.814 44.719Z" fill="#F3F0D7"/>
</svg>
