<svg width="800" height="800" viewBox="0 0 800 800" fill="none" xmlns="http://www.w3.org/2000/svg">
<path d="M694.7 363.2C685 355.7 672.1 352 656.7 352H655.3C653.2 352 651.1 352.1 648.8 352.1C646.1 352.1 643.2 352.2 640.3 352.2C643.6 328.5 640.9 310.6 632.3 296.7C625.7 286.1 616.4 278.4 604.5 273.8C595.2 270.1 584.2 268.4 570.9 268.4C558.7 268.4 545.7 269.8 532.1 271.6C529.1 257.5 522.8 246.2 513.4 238.1C503.9 229.8 492.8 225.6 480.4 225.6C456.3 225.6 433.2 241.9 414.5 255.2V174.5H464.2V144.3H414.5V94.6H384.3V144.3H337.9V174.5H384.3V253.4C366 240.4 343.9 225.4 320.8 225.4C308.4 225.4 297.3 229.6 287.8 237.9C278.4 246 272.2 257.2 269.1 271.4C255.4 269.6 242.4 268.2 230.2 268.2C216.9 268.2 205.9 269.9 196.5 273.6C184.6 278.2 175.3 285.9 168.7 296.5C160.1 310.5 157.4 328.5 160.6 352C157.8 352 155 351.9 152.4 351.9C149.9 351.9 147.5 351.8 145.4 351.8H144C128.8 351.8 115.6 355.7 105.8 362.9C97.3 369.3 87.2 381.2 87.2 402.3C87.2 428.4 105.5 456.1 124.7 485.5L130.4 494.2L156 548.1C148.4 556.4 144.7 565.4 144.7 574.9V577.1L145.1 579.3L160.8 643.9C161.9 656.8 171 667.9 187.8 676.8C200.4 683.5 217.9 689.3 239.9 694.3C283 704 340 709.3 400.5 709.3C460.5 709.3 517.2 704 560.2 694.5C582 689.6 599.5 683.8 612.3 677.2C629.4 668.3 638.8 657.3 640.2 644.6L654.9 578.9L655.5 577V574.9C655.5 565.5 651.5 556.8 643.9 548.8L667.7 496.2C670.2 492.5 672.6 488.7 675 485.2C694.4 456 712.8 428.5 712.8 402.5C712.8 381.4 702.9 369.5 694.7 363.2V363.2Z" fill="#361500"/>
<path d="M182 371.5C170.1 371.8 156.1 371.4 144.5 371.2C122.6 370.9 105.1 379.9 105.1 403.4C105.1 442.5 165.7 499.1 178.4 550.1" stroke="#CC9544" stroke-width="15.12" stroke-miterlimit="10" stroke-linecap="round"/>
<path d="M284.1 293.5C238.5 287.2 200.8 279.7 183.8 307.2C156.8 350.8 219.4 457.9 238.9 529.6" stroke="#CC9544" stroke-width="15.12" stroke-miterlimit="10" stroke-linecap="round"/>
<path d="M398.9 286.8C374.6 277.8 331 225.1 299.1 252.9C255.5 290.8 322 426.8 337.2 513.4M617.9 371.5C629.8 371.8 643.8 371.4 655.4 371.2C677.3 370.9 694.8 379.9 694.8 403.4C694.8 442.5 634.2 499.1 621.5 550.1" stroke="#CC9544" stroke-width="15.12" stroke-miterlimit="10" stroke-linecap="round"/>
<path d="M515.9 293.5C561.5 287.2 599.2 279.7 616.2 307.2C643.2 350.8 580.6 457.9 561.1 529.6" stroke="#CC9544" stroke-width="15.12" stroke-miterlimit="10" stroke-linecap="round"/>
<path d="M401.1 286.8C425.4 277.8 469 225.1 500.9 252.9C544.5 290.8 478 426.8 462.8 513.4" stroke="#CC9544" stroke-width="15.12" stroke-miterlimit="10" stroke-linecap="round"/>
<path d="M177.9 554C211.9 530.7 298.5 514.4 399.9 514.4C502.4 514.4 590.2 530.7 623.5 554.4L655.3 476.3C643.5 489.4 631.6 494.8 621.4 491.6C594.5 483.2 594.9 451 597 425.1C580.6 454.6 557.7 469.8 533.1 464.6C508.2 459.3 493.1 424.1 494.1 396C476.6 431.6 444.7 450.1 400 450.1C355.3 450.1 323.4 431.5 305.9 395.9C307 424 291.9 459.2 266.9 464.5C242.3 469.7 219.5 454.5 203 425C204.9 450.9 205.6 483.5 178.6 491.5C169.5 494.2 156.5 487.7 144.7 476.2L177.9 554Z" fill="#361500" stroke="#CC9544" stroke-width="12.96" stroke-miterlimit="10" stroke-linecap="round"/>
<path d="M162.5 575.9C162.5 541.6 268.8 514.2 399.9 514.2C531 514.2 637.3 541.5 637.3 575.9M162.3 577.7L178.5 642.8M637.7 577.7L621.5 642.8" stroke="#CC9544" stroke-width="12.96" stroke-miterlimit="10" stroke-linecap="round"/>
<path d="M178.6 642.2C178.6 614.8 277.7 592.5 400 592.5C522.3 592.5 621.4 614.7 621.4 642.2" stroke="#CC9544" stroke-width="15.12" stroke-miterlimit="10" stroke-linecap="round"/>
<path d="M400 286.8V447.7" stroke="#CC9544" stroke-width="6.48" stroke-miterlimit="10" stroke-linecap="round"/>
</svg>
