<svg width="800" height="800" viewBox="0 0 800 800" fill="none" xmlns="http://www.w3.org/2000/svg">
<path d="M645.254 692.2V280.6C588.054 238.8 502.954 194.8 448.654 182.5C406.054 172.8 347.354 180.4 300.054 195.7C286.754 160.8 252.054 137.1 218.554 135.3C224.854 164.9 224.454 209.6 242.854 233C235.854 249.2 210.754 302.4 194.154 352.3V391.7C180.254 450.8 159.254 557.9 150.754 604.5L271.654 656L294.054 597.9C309.254 575.2 339.754 537 359.154 519.7C383.554 509.4 414.954 490.3 425.754 460.5C439.754 422.1 432.054 376.2 415.254 340.6C446.254 370.8 465.254 417.6 465.254 468.4C465.254 536.5 427.154 614.3 360.554 692.1H645.254V692.2Z" fill="#CC9544" stroke="#361500" stroke-width="29.16" stroke-miterlimit="10" stroke-linecap="round"/>
<path d="M179.754 574.8C199.154 563.9 213.654 578.6 202.154 600L179.754 574.8Z" fill="#361500" stroke="#361500" stroke-width="9.169" stroke-miterlimit="10"/>
<path d="M231.454 357.9C224.554 367.4 230.854 387.2 237.454 392.4C241.954 391.8 251.554 388 256.054 384.4L277.554 359.5L273.054 355.8C264.254 355.7 242.354 355.7 231.454 357.9V357.9Z" fill="#361500" stroke="#361500" stroke-width="0.952" stroke-miterlimit="10"/>
<path d="M320.054 186C307.554 168.1 310.154 136.3 327.054 110.9C355.254 125.2 366.754 158.3 362.154 181.5" fill="#CC9544"/>
<path d="M320.054 186C307.554 168.1 310.154 136.3 327.054 110.9C355.254 125.2 366.754 158.3 362.154 181.5" stroke="#361500" stroke-width="23.76" stroke-miterlimit="10" stroke-linecap="square"/>
</svg>
