<svg width="800" height="800" viewBox="0 0 800 800" fill="none" xmlns="http://www.w3.org/2000/svg">
<path d="M398.3 708.2C342.1 708.2 289.7 702.4 250 691.7C205.4 679.6 182.9 663.3 182.9 643.2V582C182.9 553.7 226 535.9 256.1 526.8L264 354.3C260.8 351.7 258.4 349 256.8 346.1L256.6 345.8L232.3 293C225.3 289.5 213.3 282.3 213.3 270.8V145.3H286.7V196.1H328.8V145.9L463.8 146V196.1H505.9V145.3H580.4V270.7C580.4 278.4 576.3 285.1 567.7 290.5L544.1 346L543.7 346.8C541.6 349.9 538.8 352.8 535.3 355.5L542.8 526.6C563.4 532.6 580.8 540.1 593.3 548.2C609.5 558.7 617.6 570 617.6 582.2C617.6 583 617.6 583.8 617.5 584.7L617.4 643.5C617.4 663.7 594.4 680 549 692C508.6 702.3 455.2 708.2 398.3 708.2Z" fill="#3A1D14"/>
<path d="M570.6 155V270.7C570.6 275.2 567.5 279.7 559.9 283.8L535.4 341.5C533.3 344.7 529.9 347.7 525.2 350.5L533.2 534C579.5 546.5 607.8 564.8 607.8 582.2C607.8 582.8 607.8 583.5 607.7 584.1L607.6 643.4C607.6 674 514.5 698.8 398.4 698.8C283.9 698.8 192.6 674.1 192.6 643.4V582.2C192.6 565 220 546.9 265.4 534.4L273.8 349.7C269.8 347.1 266.7 344.4 265.1 341.6L239.5 285.9C229.3 281.4 222.9 276.3 222.9 270.9V155H276.9V205.8H338.5V155.5L454.1 155.6V205.8H515.7V155H570.6ZM590.1 135.6H497.2V186.3H473.4V136.3H454.1L339.1 136.2H320V186.3H296.2V135.6H203.5V270.7C203.5 286 215.9 295.1 224.8 300L247.6 349.5L247.9 350.3L248.3 351.1C249.8 353.8 251.8 356.3 254 358.6L246.7 519.7C228.3 525.6 213.2 532.6 201.3 540.3C188.4 548.7 173.2 562.9 173.2 582.1V643.3C173.2 661.3 186.7 673.9 198 681.1C210 688.8 226.5 695.5 247.4 701.1C287.8 712 341.4 717.9 398.4 717.9C456.1 717.9 510.5 711.9 551.5 701.1C572.6 695.5 589.4 688.8 601.6 681.1C613.2 673.9 627 661.3 627 643.2L627.1 585C627.2 583.9 627.2 582.9 627.2 582C627.2 573.4 624.1 564.9 618 557.1C613.4 551.1 606.8 545.2 598.5 539.9C586.4 532.1 570.9 525.1 552.1 519.2L545.2 359.7C547.9 357.2 550.1 354.6 551.9 351.9L552.9 350.5L553.5 349L575.6 296.9C587.7 288.3 590.3 278.1 590.3 270.8V135.6H590.1Z" fill="#3A1D14"/>
<path d="M606.1 586.6C597.2 615 509.2 637.4 400.7 637.4C286.2 637.4 192.4 612.3 192.4 581.8" stroke="#EFC280" stroke-width="16.051" stroke-miterlimit="10" stroke-linecap="round" stroke-linejoin="round"/>
<path d="M534.3 541.2C534.3 560.9 473.4 575.1 399.9 575.1H400C326.6 575.1 265.6 560.8 265.6 541.2L272.1 350.5" stroke="#EFC280" stroke-width="12.96" stroke-miterlimit="10" stroke-linecap="round"/>
<path d="M534.6 341.3C525.2 357.9 472.9 370 400 370H400.1C327.2 370 274.8 357.9 265.4 341.4L240.9 286.9" stroke="#EFC280" stroke-width="10.8" stroke-miterlimit="10" stroke-linecap="round"/>
<path d="M572.8 270.6V154H515.6V204.8H454V155.7L338.4 155.6V204.8H276.8V154H224V270.6C224 290.7 305.5 307 399.3 307C493 307 572.8 290.8 572.8 270.6Z" stroke="#EFC280" stroke-width="15.12" stroke-miterlimit="10" stroke-linecap="round"/>
</svg>
