<svg width="800" height="800" viewBox="0 0 800 800" fill="none" xmlns="http://www.w3.org/2000/svg">
<path d="M400.4 708.3C343.3 708.3 289.6 702.5 249.2 691.8C203.7 679.8 180.7 663.4 180.7 643.2V582C180.7 553.6 224.8 535.8 255.4 526.7L263.5 354.3C260.3 351.7 257.9 349 256.2 346.2L256 345.9L231.3 293.1C212 283.6 212 274.1 212 270.9V145.3H286.5V196.1H329.7V145.8L466.9 145.9V196.1H510V145.3H585.6V270.7C585.6 278.5 581.4 285.2 572.6 290.6L548.6 346L548.2 346.8C546.1 349.9 543.2 352.8 539.7 355.4L547.3 526.3C568.4 532.3 586.1 539.8 598.8 547.9C615.3 558.4 623.6 569.8 623.6 582C623.6 582.8 623.6 583.6 623.5 584.5L623.4 643.1C623.4 663.3 600 679.7 553.8 691.7C512.9 702.4 458.3 708.3 400.4 708.3V708.3Z" fill="#EFC280"/>
<path d="M576 155V270.7C576 275.2 572.8 279.7 565.1 283.8L540.2 341.5C538 344.7 534.6 347.7 529.8 350.5L538 534C585.2 546.5 614 564.8 614 582.2C614 582.8 614 583.5 613.9 584.1L613.8 643.4C613.8 674 518.8 698.8 400.5 698.8C283.9 698.8 190.5 674.1 190.5 643.4V582.2C190.5 565 218.7 546.9 264.9 534.4L273.5 349.7C269.4 347.1 266.3 344.4 264.6 341.6L238.6 285.9C228.2 281.4 221.8 276.3 221.8 270.9V155H277V205.8H339.6V155.5L457.3 155.6V205.8H520V155H576ZM595.5 135.6H500.4V186.3H476.6V136.1H457.2L339.7 136H320V186.3H296.2V135.6H202.3V270.7C202.3 286.1 214.8 295.3 223.9 300.2L247 349.6L247.3 350.4L247.7 351.2C249.2 353.8 251.2 356.3 253.5 358.7L245.9 519.5C227.2 525.4 211.7 532.4 199.7 540C191.4 545.3 184.8 551.1 180.2 557.1C174 565 170.9 573.3 170.9 582V643.3C170.9 661.6 184.8 674.1 196.4 681.3C208.6 689 225.5 695.7 246.6 701.3C287.7 712.2 342.3 718.1 400.3 718.1C459.1 718.1 514.3 712.2 556.1 701.3C577.5 695.7 594.7 689 607 681.4C618.9 674.1 632.9 661.5 632.9 643.3L633 585.1C633.1 584 633.1 583 633.1 582.1C633.1 573.4 630 564.8 623.7 556.9C618.9 550.9 612.3 545.1 603.8 539.7C591.5 531.9 575.6 525 556.5 519.1L549.5 360C552.2 357.6 554.5 355 556.3 352.2L557.3 350.8L557.9 349.2L580.4 297.1C592.7 288.4 595.3 278.2 595.3 270.7V135.6H595.5Z" fill="#3A1D14"/>
<path d="M191 581.6V643.2C191 673.8 284.1 698.6 400.6 698.6C518.9 698.6 613.8 673.8 613.8 643.2L613.5 581.9" fill="#EFC280"/>
<path d="M191 581.6V643.2C191 673.8 284.1 698.6 400.6 698.6C518.9 698.6 613.8 673.8 613.8 643.2L613.5 581.9" stroke="#3A1D14" stroke-width="18.36" stroke-miterlimit="10" stroke-linecap="round"/>
<path d="M613.9 582C613.9 612.6 519.4 637.4 402.8 637.4C286.2 637.4 191.7 612.6 191.7 582C191.7 551.4 279.2 518 402.8 518C524.4 517.9 613.9 551.3 613.9 582Z" fill="#EFC280" stroke="#3A1D14" stroke-width="21.6" stroke-miterlimit="10"/>
<path d="M275.8 260.9L265.3 541.5C265.3 561.2 327.4 575.6 402.1 575.6C476.9 575.6 538.2 561.2 538.2 541.7L523.3 260.9H275.8Z" fill="#EFC280" stroke="#3A1D14" stroke-width="15.12" stroke-miterlimit="10"/>
<path d="M231.3 268.1L265.1 341.2C274.6 357.7 326.7 369.7 402.7 369.7C478.7 369.7 529.1 358 540.3 341.2L573.1 268.1" fill="#EFC280"/>
<path d="M231.3 268.1L265.1 341.2C274.6 357.7 326.7 369.7 402.7 369.7C478.7 369.7 529.1 358 540.3 341.2L573.1 268.1" stroke="#3A1D14" stroke-width="15.12" stroke-miterlimit="10"/>
<path d="M522 154V204.8H458.3V155.7L341.7 155.6V204.8H278V154H222.9V270.7C222.9 290.8 306 307.1 401.4 307.1C496.9 307.1 578.2 290.8 578.2 270.7V154H522Z" fill="#EFC280" stroke="#3A1D14" stroke-width="19.44" stroke-miterlimit="10" stroke-linecap="square"/>
</svg>
