<svg width="133" height="133" viewBox="0 0 133 133" fill="none" xmlns="http://www.w3.org/2000/svg">
<path d="M27.937 114.741V104.863L38.5131 104.564L49.0893 104.265L40.9077 97.3803L32.7262 90.4959L49.4884 73.7337L66.1508 57.0713L63.5566 55.4749C59.2663 52.5814 54.4771 52.3818 49.4884 54.8762C46.994 56.0735 44.8987 57.4704 44.8987 57.9692C44.8987 60.1643 42.7037 58.4681 38.2138 52.6812C35.4201 49.189 32.9257 45.8965 32.5266 45.1981C32.1275 44.3999 39.1118 39.1118 53.6789 29.3338L75.6294 14.7667L79.82 16.9617C98.7772 26.6399 107.059 50.8852 98.0788 69.9422C96.4824 73.4344 94.1875 77.4254 92.9902 78.8222L90.895 81.3166L95.3848 85.9062L99.8747 90.4959L91.6932 97.3803L83.6114 104.265L94.1875 104.564L104.764 104.863V124.719H27.937V114.741Z" fill="#8785A2"/>
<path d="M104.764 114.741V104.863L94.1875 104.564L83.6114 104.265L91.6932 97.3804L99.8747 90.4959L95.3848 85.9062L90.895 81.3166L92.9902 78.8222C94.1875 77.4254 96.4824 73.4344 98.0788 69.9422C103.566 58.3683 102.768 43.6017 96.183 32.3271C93.09 27.1388 85.4073 19.7554 80.0195 17.0615C74.7314 14.3676 73.8334 14.3676 77.4253 17.2611C82.015 20.7532 84.7089 24.0458 87.7022 29.9325C100.074 53.7787 87.1035 82.3143 61.0623 88.8995C57.5701 89.6977 54.7764 90.5957 54.6767 90.895C54.5769 91.0945 55.5746 94.2873 56.7719 98.0788L59.0668 104.764H74.8312V124.719H104.764V114.741Z" fill="#536295"/>
<path d="M75.829 57.171V47.4929L71.0398 52.1823C67.0488 56.0735 66.051 56.6722 64.8537 55.6744C63.5566 54.5769 63.5566 54.5769 64.6542 55.874C65.6519 57.0713 65.0533 58.069 61.162 62.06L56.4726 66.8492H75.829V57.171Z" fill="#536295"/>
<path d="M74.8312 114.741V104.764H59.0668L56.9715 98.5776C55.7742 95.0855 54.8762 91.8927 54.8762 91.3938C54.7764 90.895 57.5701 89.6977 61.0623 88.8995C87.1035 82.3143 99.9745 53.9782 87.8019 29.9325C85.108 24.7442 77.5251 15.964 75.6294 15.964C74.4321 15.964 32.9257 43.8012 32.9257 44.5994C32.9257 45.198 40.3091 55.1755 43.003 58.2686C43.5019 58.7674 44.5994 58.2686 45.5971 57.171C49.2888 52.8807 58.1688 51.6834 63.3571 54.8762L66.3503 56.6722L71.0398 52.0825L75.829 47.4929V66.8492H56.3728L44.8987 78.3233L33.5244 89.6977L35.5199 91.9925C36.5176 93.2896 38.0143 94.6864 38.8125 95.1853C39.5109 95.5844 41.8057 97.5799 43.7014 99.3758C45.6969 101.272 47.6924 102.768 48.0915 102.768C48.4906 102.768 48.8897 103.267 48.8897 103.766C48.8897 104.365 44.6992 104.764 38.4134 104.764H27.937V124.719H74.8312V114.741Z" fill="#8785A2"/>
<path d="M27.937 114.741V104.863L38.5131 104.564L49.0893 104.265L40.9077 97.3803L32.7262 90.4959L49.4884 73.7337L66.1508 57.0713L63.5566 55.4749C59.2663 52.5814 54.4771 52.3818 49.4884 54.8762C46.994 56.0735 44.8987 57.4704 44.8987 57.9692C44.8987 60.1643 42.7037 58.4681 38.2138 52.6812C35.4201 49.189 32.9257 45.8965 32.5266 45.1981C32.1275 44.3999 39.1118 39.1118 53.6789 29.3338L75.6294 14.7667L79.82 16.9617C98.7772 26.6399 107.059 50.8852 98.0788 69.9422C96.4824 73.4344 94.1875 77.4254 92.9902 78.8222L90.895 81.3166L95.3848 85.9062L99.8747 90.4959L91.6932 97.3803L83.6114 104.265L94.1875 104.564L104.764 104.863V124.719H27.937V114.741Z" stroke="black" stroke-width="2.3946"/>
</svg>
