<svg width="133" height="133" viewBox="0 0 133 133" fill="none" xmlns="http://www.w3.org/2000/svg">
<path d="M28.4359 114.741V104.863L37.1163 104.564L45.7967 104.265L51.3841 86.1058L57.0713 67.9467L54.078 65.153C47.892 59.3661 45.8965 50.4861 48.9895 43.1028C54.1778 30.5311 70.042 26.5401 80.0195 35.2206C89.099 43.2025 89.5979 55.874 81.2168 64.1553L77.3256 68.0465L83.1125 86.2056L88.8995 104.265L97.081 104.564L105.263 104.863V124.719H28.4359V114.741Z" fill="#8785A2"/>
<path d="M105.263 114.741V104.863L97.081 104.564L88.8995 104.265L83.1125 86.2056L77.3256 68.0465L81.2168 64.1553C85.0082 60.3638 87.3031 55.0758 87.3031 49.7877C87.3031 46.7945 85.4073 40.9077 84.4096 40.9077C84.1103 40.9077 77.9242 46.7945 70.8402 53.8785C62.4591 62.2596 57.3706 66.6497 56.3728 66.3503C54.6767 65.7517 54.1778 65.3526 64.0555 73.135L70.042 77.9242L71.2393 89.5979C72.8357 104.963 72.7359 104.764 76.9265 104.764H80.3188V124.719H105.263V114.741Z" fill="#536295"/>
<path d="M80.3188 114.741V104.764H76.9265C72.7359 104.764 72.8357 104.963 71.2393 89.5979L70.042 77.9242L63.6564 72.8357L57.3706 67.7472L56.3728 70.3413C55.7742 71.838 55.3751 73.4344 55.3751 74.1328C55.3751 75.2303 52.9805 82.8132 47.892 97.7794L45.5971 104.265L37.0165 104.564L28.4359 104.863V124.719H80.3188V114.741ZM71.2393 53.4794L84.5094 40.1095L80.4186 36.1185C74.931 30.8305 68.7449 29.3338 61.4614 31.4291C50.1868 34.8215 44.4996 48.9895 49.9872 60.0645C51.2843 62.5589 55.874 66.8492 57.2708 66.8492C57.5701 66.8492 63.856 60.8627 71.2393 53.4794Z" fill="#8785A2"/>
<path d="M28.4359 114.741V104.863L37.1163 104.564L45.7967 104.265L51.3841 86.1058L57.0713 67.9467L54.078 65.153C47.892 59.3661 45.8965 50.4861 48.9895 43.1028C54.1778 30.5311 70.042 26.5401 80.0195 35.2206C89.099 43.2025 89.5979 55.874 81.2168 64.1553L77.3256 68.0465L83.1125 86.2056L88.8995 104.265L97.081 104.564L105.263 104.863V124.719H28.4359V114.741Z" stroke="black" stroke-width="2.3946"/>
</svg>
