<svg width="180" height="180" viewBox="0 0 180 180" fill="none" xmlns="http://www.w3.org/2000/svg">
<path d="M127.354 135.911C128.486 130.253 129.052 122.434 129.052 112.454C129.052 102.886 127.869 93.3699 125.502 83.9047C122.725 72.7937 118.866 64.1514 113.928 57.9786C109.813 52.8345 104.72 49.1307 98.6501 46.8673C99.0619 47.4846 99.4731 47.9991 99.8848 48.4106C101.325 50.0567 101.634 51.2913 100.811 52.1143C100.194 52.8345 99.6278 53.1946 99.1131 53.1946C98.496 53.1946 97.8784 52.783 97.2613 51.96C95.6149 50.0052 93.969 47.9991 92.3231 45.9415C90.3684 43.6781 88.4132 41.9805 86.4585 40.8488C86.8703 43.5237 87.7961 46.4044 89.2367 49.4908C89.442 50.5196 89.442 51.3942 89.2367 52.1143C88.8249 52.9374 88.1049 53.1431 87.0761 52.7316C86.2532 52.423 85.7385 51.96 85.5326 51.3427C84.5038 49.388 83.835 47.4847 83.5268 45.6328C78.8968 46.6616 75.7074 47.7419 73.9586 48.8735C73.2386 47.639 72.1069 46.713 70.5634 46.0958C70.6663 47.5361 71.0263 49.0278 71.6439 50.5711L70.5634 51.6513C68.7116 55.0464 65.5223 60.8079 60.9958 68.9355L60.3782 70.0155C55.2342 79.0695 50.2445 87.2483 45.4091 94.5529C43.2486 97.7423 42.0654 101.292 41.8597 105.201C41.6539 108.185 42.2197 110.397 43.5572 111.837C44.1745 112.557 46.0778 113.791 49.2671 115.541C54.7198 106.384 58.6806 101.806 61.1499 101.806C61.4588 101.806 61.7158 101.858 61.9217 101.96C62.7446 102.269 63.1558 103.4 63.1558 105.355C60.4811 107.413 57.3435 111.477 53.7424 117.547C55.8001 117.547 57.1888 117.29 57.9094 116.775C58.7323 116.158 60.8929 113.74 64.3905 109.522C69.2263 103.658 75.5021 98.2564 83.2179 93.3182C87.8479 90.3347 91.6543 87.5053 94.6378 84.8306C97.3125 81.8471 99.3189 80.3554 100.657 80.3554C101.788 80.3554 102.354 80.9213 102.354 82.053C102.354 83.3901 101.068 85.4477 98.496 88.2259C96.6437 93.3699 94.4837 97.6393 92.0143 101.035C89.7508 104.018 86.3561 107.362 81.8291 111.065C73.2898 116.312 67.0658 124.594 63.1558 135.911H127.354ZM49.7301 108.75C48.3926 110.294 47.4667 110.551 46.9523 109.522C46.8494 109.316 46.4893 109.265 45.872 109.368C45.5634 109.47 45.3062 109.522 45.1004 109.522C44.8946 109.522 44.7918 109.47 44.7918 109.368C44.1745 108.75 43.8658 108.133 43.8658 107.516C43.8658 106.487 44.3803 105.458 45.4091 104.429C47.1581 102.578 48.8041 102.372 50.3473 103.812C51.6848 105.047 51.479 106.693 49.7301 108.75ZM47.5696 141.158C44.9975 141.158 43.7115 142.444 43.7115 145.016C43.7115 147.588 44.9975 148.874 47.5696 148.874H132.447C135.019 148.874 136.304 147.588 136.304 145.016C136.304 142.444 135.019 141.158 132.447 141.158H47.5696ZM133.836 135.911C138.877 136.734 141.397 139.769 141.397 145.016C141.397 146.353 141.14 147.639 140.626 148.874H151.737V169.399H28.125V148.874H39.3905C38.8761 147.742 38.6189 146.456 38.6189 145.016C38.6189 142.547 39.4934 140.438 41.2424 138.689C42.9914 136.837 45.1004 135.911 47.5696 135.911H57.9094C60.9958 124.491 66.8081 116.004 75.3474 110.448C79.0515 107.259 81.9833 104.635 84.1438 102.578C87.7449 98.9769 90.2138 95.9417 91.5514 93.4729C85.9956 96.9705 81.1091 100.366 76.8909 103.658C72.3639 107.156 68.2487 111.477 64.5452 116.621C61.9729 120.222 58.5264 122.022 54.2054 122.022C53.4853 122.022 52.7136 121.971 51.8906 121.868C51.5819 121.251 50.9132 120.479 49.8844 119.553C49.1642 119.861 48.084 119.964 46.6437 119.861C42.5284 117.599 40.0078 115.952 39.0819 114.923C37.5387 113.174 36.7156 110.345 36.6127 106.436C36.5099 101.703 37.9502 97.0223 40.9337 92.3923C43.0943 88.9971 47.3638 81.4354 53.7424 69.7072C59.0923 59.8303 63.5164 52.6287 67.014 48.102C66.1911 44.3982 65.8311 41.0031 65.934 37.9167C68.6087 39.357 71.2839 41.2089 73.9586 43.4723C74.0616 43.3694 74.2674 43.2665 74.5757 43.1636C76.9421 42.2377 79.5144 41.4146 82.2921 40.6945C82.0862 39.8714 82.035 38.7912 82.1379 37.4537L82.2921 33.75C85.2756 35.3961 88.2591 37.4537 91.2426 39.9229C99.1648 40.3344 107.344 44.2439 115.78 51.6513C122.262 58.9556 127.2 68.4726 130.595 80.2007C133.579 90.4888 135.07 101.24 135.07 112.454C135.07 123.668 134.659 131.487 133.836 135.911ZM66.7057 64.9232C68.7634 61.9397 70.6151 60.4479 72.261 60.4479C74.1128 60.4479 75.0386 61.3738 75.0386 63.2256C75.0386 64.7685 74.2157 66.672 72.5698 68.9355C70.4093 71.919 68.5575 73.4108 67.014 73.4108C65.1622 73.4108 64.2364 72.4331 64.2364 70.4784C64.2364 69.1414 65.0593 67.2891 66.7057 64.9232ZM72.1069 67.2379C71.4893 66.8261 70.8722 66.7232 70.2551 66.9291C68.8146 67.3408 68.3004 68.3696 68.7116 70.0155C68.7116 70.0155 68.8657 70.2214 69.1746 70.6331C69.8946 70.2214 70.5122 69.6555 71.0263 68.9355C71.2322 68.7296 71.5922 68.1637 72.1069 67.2379ZM33.5263 153.967V164.306H146.644V153.967H33.5263Z" fill="#191919"/>
<path d="M127.354 135.911C128.486 130.252 129.052 122.434 129.052 112.454C129.052 102.886 127.869 93.3699 125.502 83.9047C122.725 72.7937 118.866 64.1514 113.928 57.9786C109.813 52.8345 104.721 49.1308 98.6501 46.8674C99.0618 47.4847 99.4736 47.9991 99.8848 48.4106C101.325 50.0567 101.634 51.2913 100.811 52.1143C100.194 52.8345 99.6277 53.1946 99.113 53.1946C98.496 53.1946 97.8789 52.783 97.2613 51.96C95.6154 50.0052 93.969 47.9991 92.3231 45.9414C90.3684 43.6781 88.4137 41.9805 86.459 40.8488C86.8702 43.5237 87.7961 46.4044 89.2367 49.4908C89.4425 50.5196 89.4425 51.3942 89.2367 52.1143C88.8249 52.9374 88.1049 53.1431 87.0761 52.7316C86.2532 52.423 85.7385 51.96 85.5332 51.3427C84.5043 49.3879 83.8355 47.4847 83.5267 45.6328C78.8973 46.6616 75.708 47.7418 73.9586 48.8735C73.2386 47.639 72.1068 46.713 70.5639 46.0957C70.6668 47.5361 71.0268 49.0279 71.6439 50.5711L70.5639 51.6513C68.7116 55.0464 65.5228 60.8079 60.9958 68.9355L60.3787 70.0155C55.2344 79.0695 50.2447 87.2482 45.4092 94.5529C43.2487 97.7422 42.0656 101.292 41.8598 105.201C41.6541 108.184 42.2199 110.397 43.5574 111.837C44.1747 112.557 46.078 113.791 49.2673 115.541C54.72 106.384 58.6811 101.806 61.1499 101.806C61.4587 101.806 61.7158 101.857 61.9217 101.96C62.7446 102.269 63.1563 103.4 63.1563 105.356C60.4811 107.413 57.3435 111.477 53.7426 117.547C55.8003 117.547 57.1893 117.29 57.9093 116.775C58.7323 116.158 60.8928 113.74 64.391 109.522C69.2263 103.658 75.5021 98.2564 83.2179 93.3182C87.8478 90.3347 91.6543 87.5053 94.6378 84.8306C97.313 81.8471 99.3189 80.3554 100.657 80.3554C101.788 80.3554 102.354 80.9212 102.354 82.053C102.354 83.3901 101.068 85.4477 98.496 88.2259C96.6442 93.3699 94.4837 97.6393 92.0143 101.035C89.7514 104.018 86.3561 107.362 81.8291 111.065C73.2903 116.312 67.0657 124.594 63.1563 135.911H127.354ZM49.7303 108.75C48.3928 110.294 47.4669 110.551 46.9525 109.522C46.8496 109.316 46.4895 109.265 45.8722 109.368C45.5636 109.471 45.3064 109.522 45.1006 109.522C44.8948 109.522 44.792 109.471 44.792 109.368C44.1747 108.75 43.866 108.133 43.866 107.516C43.866 106.487 44.3804 105.458 45.4092 104.429C47.1582 102.577 48.8043 102.372 50.3475 103.812C51.685 105.047 51.4792 106.693 49.7303 108.75ZM47.5698 141.158C44.9977 141.158 43.7117 142.444 43.7117 145.016C43.7117 147.588 44.9977 148.874 47.5698 148.874H132.447C135.019 148.874 136.305 147.588 136.305 145.016C136.305 142.444 135.019 141.158 132.447 141.158H47.5698ZM66.7057 64.9232C68.7633 61.9397 70.6151 60.4479 72.2615 60.4479C74.1133 60.4479 75.0392 61.3738 75.0392 63.2256C75.0392 64.7685 74.2162 66.672 72.5698 68.9355C70.4092 71.919 68.5575 73.4107 67.0145 73.4107C65.1622 73.4107 64.2363 72.4331 64.2363 70.4784C64.2363 69.1414 65.0598 67.2891 66.7057 64.9232ZM72.1068 67.2379C71.4898 66.8261 70.8722 66.7237 70.2551 66.9291C68.8145 67.3408 68.3004 68.3696 68.7122 70.0155C68.7122 70.0155 68.8663 70.2214 69.1751 70.6331C69.8951 70.2214 70.5122 69.6555 71.0268 68.9355C71.2327 68.7296 71.5927 68.1637 72.1068 67.2379ZM33.5265 153.967V164.306H146.644V153.967H33.5265Z" fill="#ECDBBA"/>
</svg>
