<svg width="32" height="32" viewBox="0 0 32 32" fill="none" xmlns="http://www.w3.org/2000/svg">
<path d="M16.1747 18.2727C14.805 18.2727 13.6093 18.2183 12.5875 18.1096C12.2614 18.0879 11.9788 18.0553 11.7396 18.0118C11.9135 18.3379 12.0005 18.6748 12.0005 19.0227C12.0005 19.3923 11.9244 19.7293 11.7722 20.0336C12.2288 19.8814 13.1962 19.7619 14.6746 19.6749C15.1311 19.6532 15.6311 19.6423 16.1747 19.6423C18.3269 19.6423 19.7944 19.7727 20.5771 20.0336C20.4032 19.7293 20.3162 19.3923 20.3162 19.0227C20.3162 18.6966 20.4032 18.3596 20.5771 18.0118C19.3161 18.1857 17.8487 18.2727 16.1747 18.2727ZM16.1747 3.50008C15.8268 3.50008 15.5224 3.63052 15.2616 3.89141C15.0224 4.13055 14.9028 4.40231 14.9028 4.70667C14.9028 5.05452 15.0224 5.34801 15.2616 5.58716C15.5224 5.80456 15.8268 5.91326 16.1747 5.91326C16.5008 5.91326 16.7942 5.80456 17.0551 5.58716C17.316 5.34801 17.4465 5.05452 17.4465 4.70667C17.4465 4.38057 17.316 4.09794 17.0551 3.8588C16.7942 3.61966 16.5008 3.50008 16.1747 3.50008ZM16.1747 20.8489C15.2833 20.8489 13.9463 20.9358 12.1636 21.1098C11.6418 21.2185 11.3809 21.4794 11.3809 21.8924C11.3809 22.2403 12.1201 22.4468 13.5984 22.512C13.2941 22.4903 14.1528 22.4794 16.1747 22.4794C19.3487 22.4794 20.9358 22.2838 20.9358 21.8924C20.9358 21.3924 20.4358 21.0772 19.4357 20.9467C19.2618 20.925 18.577 20.9032 17.3812 20.8815C17.1638 20.8815 16.8703 20.8706 16.5008 20.8489H16.1747ZM16.142 17.0987C19.164 17.0987 21.0228 16.8161 21.7184 16.2508C22.1967 15.8812 22.5337 14.9355 22.7294 13.4137C22.6207 12.0658 21.7402 10.7614 20.0879 9.50042C18.5226 8.3047 17.1965 7.64162 16.1094 7.51118C15.0659 7.64162 13.7723 8.3047 12.2288 9.50042C10.5982 10.7614 9.72864 12.0658 9.61993 13.4137C9.72864 14.2181 9.82647 14.7725 9.91343 15.0768C10.1091 15.7073 10.4243 16.153 10.8591 16.4139C11.5983 16.8704 13.3593 17.0987 16.142 17.0987ZM15.4246 15.1094V13.2832H14.055V11.7179H15.4246V9.95697H16.9247V11.7179H18.2943V13.2832H16.9247V15.1094H15.4246ZM16.1094 23.3925C15.9355 23.3925 15.5768 23.599 15.0333 24.0121C14.6637 24.2947 14.2941 24.5665 13.9245 24.8274C13.5549 25.0883 13.1962 25.2404 12.8484 25.2839C12.044 25.5665 11.0439 25.7622 9.84821 25.8709C9.67429 25.8709 9.23948 25.8926 8.54379 25.9361C7.50025 25.9796 6.84804 26.0231 6.58716 26.0666C5.71754 26.2622 5.28274 26.6318 5.28274 27.1753C5.39144 27.7188 5.67406 27.9906 6.13061 27.9906C6.23931 27.9906 6.54367 27.9471 7.0437 27.8601C7.67417 27.7297 8.09811 27.6645 8.31551 27.6645C9.61994 27.6645 11.0983 27.4688 12.7505 27.0775C14.4898 26.6427 15.6311 25.9144 16.1747 24.8926C16.5008 25.5231 17.1095 26.0557 18.0008 26.4905C19.0444 26.9905 20.3379 27.3275 21.8815 27.5014L22.9576 27.6319C23.3272 27.6536 23.6751 27.6645 24.0012 27.6645C24.2403 27.6645 24.6751 27.7297 25.3056 27.8601C25.7839 27.9471 26.0774 27.9906 26.1861 27.9906C26.6644 27.9906 26.9579 27.7188 27.0666 27.1753C27.0666 26.6318 26.6318 26.2622 25.7621 26.0666C25.4795 26.0231 24.8273 25.9796 23.8055 25.9361C23.3055 25.9144 22.5011 25.8492 21.3923 25.7405C20.8271 25.6752 20.1966 25.5231 19.5009 25.2839C19.1531 25.2187 18.8052 25.0774 18.4574 24.86C18.24 24.7513 17.8813 24.5013 17.3812 24.1099C16.7942 23.6317 16.3703 23.3925 16.1094 23.3925ZM16.1747 26.9471C15.1311 28.0341 13.5223 28.6863 11.3483 28.9037C10.3265 28.9906 8.80467 29.1863 6.78282 29.4907C6.21757 29.6211 5.90234 29.882 5.83712 30.2733C5.11969 29.969 4.4566 29.2841 3.84787 28.2189C3.54351 27.7188 3.26088 27.2949 3 26.9471C3.91309 25.2296 5.03272 24.3708 6.35888 24.3708C6.61976 24.3708 7.01109 24.3926 7.53286 24.436C8.07636 24.4795 8.47857 24.5013 8.73945 24.5013C9.95691 24.5013 11.2613 24.2404 12.6527 23.7186C10.7396 23.5012 9.78298 22.9251 9.78298 21.9903C9.78298 21.7076 9.91343 21.1967 10.1743 20.4576C10.4569 19.6966 10.5983 19.1423 10.5983 18.7944C8.96772 17.0117 8.15246 15.3268 8.15246 13.7398C8.15246 11.9571 9.03294 10.3266 10.7939 8.84821C12.3375 7.54379 13.4788 6.85897 14.218 6.79375C13.631 6.07632 13.3375 5.30453 13.3375 4.4784C13.3375 3.69574 13.6202 3.07614 14.1854 2.6196C14.6854 2.20653 15.3485 2 16.1747 2C16.979 2 17.6421 2.22827 18.1639 2.68482C18.7074 3.11963 18.9792 3.71748 18.9792 4.4784C18.9792 5.30453 18.6965 6.07632 18.1313 6.79375C18.9139 6.88071 20.0662 7.5764 21.588 8.88082C23.3272 10.3374 24.1968 11.9571 24.1968 13.7398C24.1968 15.3051 23.3816 16.99 21.751 18.7944C21.751 19.1423 21.8815 19.6966 22.1424 20.4576C22.425 21.1967 22.5663 21.7076 22.5663 21.9903C22.5663 22.9251 21.5989 23.5012 19.664 23.7186C21.0554 24.2404 22.3598 24.5013 23.5772 24.5013C23.8599 24.5013 24.2621 24.4795 24.7838 24.436C25.3056 24.3926 25.7078 24.3708 25.9904 24.3708C27.3166 24.3708 28.4362 25.2296 29.3493 26.9471C28.9362 27.5775 28.534 28.208 28.1427 28.8385C27.6862 29.5124 27.1427 29.9907 26.5122 30.2733C26.4252 29.8168 25.9035 29.5015 24.9469 29.3276C24.7295 29.2841 24.0555 29.2081 22.925 29.0994C19.5335 28.795 17.2834 28.0776 16.1747 26.9471Z" fill="#111111"/>
<path d="M16.1746 18.2726C14.805 18.2726 13.6092 18.2183 12.5874 18.1096C12.2613 18.0879 11.9787 18.0552 11.7396 18.0118C11.9135 18.3379 12.0005 18.6748 12.0005 19.0227C12.0005 19.3923 11.9244 19.7293 11.7722 20.0336C12.2287 19.8814 13.1962 19.7619 14.6745 19.6749C15.1311 19.6532 15.6311 19.6423 16.1746 19.6423C18.3269 19.6423 19.7944 19.7727 20.577 20.0336C20.4031 19.7293 20.3161 19.3923 20.3161 19.0227C20.3161 18.6966 20.4031 18.3596 20.577 18.0118C19.3161 18.1857 17.8486 18.2726 16.1746 18.2726ZM16.1746 3.50008C15.8268 3.50008 15.5224 3.63052 15.2615 3.8914C15.0224 4.13054 14.9028 4.4023 14.9028 4.70667C14.9028 5.05451 15.0224 5.34801 15.2615 5.58715C15.5224 5.80455 15.8268 5.91326 16.1746 5.91326C16.5007 5.91326 16.7942 5.80455 17.0551 5.58715C17.316 5.34801 17.4464 5.05451 17.4464 4.70667C17.4464 4.38056 17.316 4.09794 17.0551 3.85879C16.7942 3.61965 16.5007 3.50008 16.1746 3.50008ZM16.1746 20.8489C15.2832 20.8489 13.9462 20.9358 12.1635 21.1098C11.6417 21.2185 11.3808 21.4794 11.3808 21.8924C11.3808 22.2403 12.12 22.4468 13.5984 22.512C13.294 22.4903 14.1527 22.4794 16.1746 22.4794C19.3487 22.4794 20.9357 22.2837 20.9357 21.8924C20.9357 21.3924 20.4357 21.0772 19.4357 20.9467C19.2617 20.925 18.5769 20.9032 17.3812 20.8815C17.1638 20.8815 16.8703 20.8706 16.5007 20.8489H16.1746ZM16.142 17.0987C19.1639 17.0987 21.0227 16.816 21.7184 16.2508C22.1967 15.8812 22.5337 14.9355 22.7293 13.4137C22.6206 12.0658 21.7401 10.7614 20.0879 9.50041C18.5226 8.30469 17.1964 7.64161 16.1094 7.51117C15.0658 7.64161 13.7723 8.30469 12.2287 9.50041C10.5982 10.7614 9.72858 12.0658 9.61988 13.4137C9.72858 14.2181 9.82641 14.7724 9.91337 15.0768C10.109 15.7073 10.4243 16.153 10.8591 16.4138C11.5983 16.8704 13.3592 17.0987 16.142 17.0987ZM15.4246 15.1094V13.2832H14.0549V11.7179H15.4246V9.95696H16.9246V11.7179H18.2943V13.2832H16.9246V15.1094H15.4246ZM16.1094 23.3925C15.9355 23.3925 15.5767 23.599 15.0332 24.0121C14.6636 24.2947 14.2941 24.5665 13.9245 24.8274C13.5549 25.0882 13.1962 25.2404 12.8483 25.2839C12.0439 25.5665 11.0439 25.7622 9.84816 25.8709C9.67424 25.8709 9.23943 25.8926 8.54374 25.9361C7.5002 25.9796 6.84799 26.0231 6.5871 26.0666C5.71749 26.2622 5.28268 26.6318 5.28268 27.1753C5.39139 27.7188 5.67401 27.9906 6.13056 27.9906C6.23926 27.9906 6.54362 27.9471 7.04365 27.8601C7.67412 27.7297 8.09806 27.6645 8.31546 27.6645C9.61988 27.6645 11.0982 27.4688 12.7505 27.0775C14.4897 26.6427 15.6311 25.9144 16.1746 24.8926C16.5007 25.5231 17.1094 26.0557 18.0008 26.4905C19.0443 26.9905 20.3379 27.3275 21.8814 27.5014L22.9576 27.6319C23.3272 27.6536 23.675 27.6645 24.0011 27.6645C24.2403 27.6645 24.6751 27.7297 25.3055 27.8601C25.7838 27.9471 26.0773 27.9906 26.186 27.9906C26.6643 27.9906 26.9578 27.7188 27.0665 27.1753C27.0665 26.6318 26.6317 26.2622 25.7621 26.0666C25.4795 26.0231 24.8273 25.9796 23.8055 25.9361C23.3054 25.9144 22.501 25.8492 21.3923 25.7405C20.827 25.6752 20.1966 25.5231 19.5009 25.2839C19.153 25.2187 18.8052 25.0774 18.4573 24.86C18.2399 24.7513 17.8812 24.5013 17.3812 24.1099C16.7942 23.6316 16.3703 23.3925 16.1094 23.3925Z" fill="#FFDA92"/>
</svg>
