<svg width="32" height="32" viewBox="0 0 32 32" fill="none" xmlns="http://www.w3.org/2000/svg">
<path d="M15.8272 29.8204C10.2089 29.8204 7.35469 28.8727 7.26444 26.9774C7.17419 24.9016 6.90343 23.2771 6.45217 22.1038C6.13628 21.3141 5.53836 20.3326 4.65839 19.1593C4.04919 18.347 3.65433 17.7378 3.47382 17.3317C3.15794 16.6999 3 16.0005 3 15.2333C3 14.1728 3.31588 13.2139 3.94765 12.3565C4.57942 11.4765 5.3917 10.856 6.38448 10.495C7.08393 10.2468 7.7157 10.134 8.27978 10.1566C9.74639 10.1792 11.134 10.7207 12.4427 11.7811L12.4765 11.815C12.4765 11.0478 12.5104 10.4048 12.5781 9.88583C12.5781 9.68276 12.6683 9.42329 12.8488 9.10741C13.0745 8.54333 13.7288 7.88899 14.8118 7.14441V6.12906L13.0857 5.11372V3.59071H14.6426L15.1841 2H16.4702L17.0117 3.59071H18.5686V5.11372L16.8425 6.12906V7.14441C17.8579 7.8213 18.5235 8.47564 18.8393 9.10741C18.9973 9.46842 19.0763 9.75045 19.0763 9.95352C19.0988 10.134 19.1214 10.4386 19.144 10.8673C19.1665 11.2735 19.1778 11.5894 19.1778 11.815L19.2116 11.7811C20.4977 10.7207 21.8854 10.1792 23.3745 10.1566C24.3673 10.134 25.315 10.4048 26.2175 10.9689C27.1426 11.5329 27.8082 12.2775 28.2143 13.2026C28.5077 13.8344 28.6543 14.5113 28.6543 15.2333C28.6543 16.4292 28.1128 17.7378 27.0298 19.1593C26.556 19.7911 26.2175 20.2649 26.0144 20.5808C25.676 21.0772 25.4165 21.5848 25.236 22.1038C24.7396 23.3222 24.4576 24.9468 24.3899 26.9774C24.3448 28.8727 21.4905 29.8204 15.8272 29.8204ZM15.8272 15.5718C15.8497 15.5266 15.94 15.38 16.0979 15.1318C16.4815 14.5903 16.7861 14.1051 17.0117 13.6764C17.2374 13.2477 17.4066 12.8303 17.5194 12.4242C17.5871 11.815 17.6209 11.4088 17.6209 11.2058C17.6209 9.5361 17.0343 8.70127 15.861 8.70127C14.6426 8.70127 14.0334 9.5361 14.0334 11.2058C14.0334 11.4991 14.0672 11.9052 14.1349 12.4242C14.3606 13.2139 14.8344 14.1164 15.5564 15.1318C15.7369 15.38 15.8272 15.5266 15.8272 15.5718ZM27.1313 15.5041C27.1313 14.2405 26.7026 13.259 25.8452 12.5596C25.1232 11.9729 24.2996 11.6796 23.3745 11.6796C22.1336 11.6796 20.8136 12.3001 19.4147 13.5411C17.745 14.9851 16.8087 16.9368 16.6056 19.3962C16.6056 19.5993 17.1245 19.8136 18.1625 20.0393C19.0424 20.2198 20.5203 20.3326 22.5961 20.3777C22.9571 20.4003 23.2843 20.4116 23.5776 20.4116H23.713H24.3222C24.435 20.231 24.593 20.0167 24.796 19.7685C25.0217 19.4977 25.2924 19.1706 25.6083 18.787C26.2175 17.907 26.6462 17.1737 26.8944 16.5871C27.0523 16.1584 27.1313 15.7974 27.1313 15.5041ZM15.8272 21.19C15.2631 21.4382 14.2477 21.63 12.7811 21.7653C12.014 21.8105 10.8633 21.8894 9.32897 22.0023L8.07671 22.1038C8.37004 23.2094 8.56182 24.394 8.65207 25.6575C10.6151 25.0257 13.0068 24.7098 15.8272 24.7098C18.6701 24.7098 21.0731 25.0257 23.0361 25.6575C23.1038 24.2811 23.2843 23.0966 23.5776 22.1038L22.3592 22.0023C21.5695 21.9571 20.4075 21.8782 18.8732 21.7653C18.0609 21.6751 17.542 21.6187 17.3163 21.5961C16.7297 21.5059 16.2333 21.3705 15.8272 21.19ZM4.52301 15.5041C4.52301 16.0681 4.81634 16.824 5.40298 17.7717C5.6963 18.2229 5.93321 18.5614 6.11372 18.787L6.45217 19.2608C6.74549 19.5767 7.03881 19.9603 7.33213 20.4116H8.07671C9.25 20.4116 10.7279 20.3213 12.5104 20.1408C14.2252 19.9829 15.0826 19.7347 15.0826 19.3962C14.8569 16.9368 13.9093 14.9851 12.2396 13.5411C10.8633 12.3001 9.54332 11.6796 8.27978 11.6796C7.89621 11.6796 7.47879 11.7586 7.02753 11.9165C6.05731 12.1647 5.34657 12.7852 4.89531 13.778C4.64711 14.2969 4.52301 14.8723 4.52301 15.5041ZM15.8272 28.2974C17.2261 28.2974 18.6137 28.2071 19.9901 28.0266C21.1408 27.8912 21.7162 27.7107 21.7162 27.4851C21.7162 27.1241 21.1972 26.8646 20.1593 26.7067C18.6476 26.5036 17.2148 26.4021 15.861 26.4021C14.4847 26.4021 13.0406 26.5036 11.5289 26.7067C10.4684 26.8646 9.93818 27.1241 9.93818 27.4851C9.93818 27.801 11.1453 28.0492 13.5596 28.2297C14.259 28.2748 15.0149 28.2974 15.8272 28.2974Z" fill="#111111"/>
<path d="M15.8272 15.5718C15.8497 15.5266 15.94 15.38 16.0979 15.1318C16.4815 14.5903 16.7861 14.1051 17.0117 13.6764C17.2374 13.2477 17.4066 12.8303 17.5194 12.4242C17.5871 11.815 17.6209 11.4088 17.6209 11.2058C17.6209 9.5361 17.0343 8.70126 15.861 8.70126C14.6426 8.70126 14.0334 9.5361 14.0334 11.2058C14.0334 11.4991 14.0672 11.9052 14.1349 12.4242C14.3606 13.2139 14.8344 14.1164 15.5564 15.1318C15.7369 15.38 15.8272 15.5266 15.8272 15.5718ZM27.1313 15.5041C27.1313 14.2405 26.7026 13.259 25.8452 12.5596C25.1232 11.9729 24.2996 11.6796 23.3745 11.6796C22.1336 11.6796 20.8136 12.3001 19.4147 13.5411C17.745 14.9851 16.8087 16.9368 16.6056 19.3962C16.6056 19.5993 17.1245 19.8136 18.1625 20.0393C19.0424 20.2198 20.5203 20.3326 22.5961 20.3777C22.9571 20.4003 23.2843 20.4115 23.5776 20.4115H23.713H24.3222C24.435 20.231 24.593 20.0167 24.796 19.7685C25.0217 19.4977 25.2924 19.1706 25.6083 18.787C26.2175 17.907 26.6462 17.1737 26.8944 16.5871C27.0523 16.1584 27.1313 15.7974 27.1313 15.5041ZM15.8272 21.19C15.2631 21.4382 14.2477 21.63 12.7811 21.7653C12.014 21.8105 10.8633 21.8894 9.32897 22.0023L8.07671 22.1038C8.37003 23.2094 8.56182 24.394 8.65207 25.6575C10.6151 25.0257 13.0068 24.7098 15.8272 24.7098C18.6701 24.7098 21.0731 25.0257 23.0361 25.6575C23.1038 24.2811 23.2843 23.0966 23.5776 22.1038L22.3592 22.0023C21.5695 21.9571 20.4075 21.8782 18.8732 21.7653C18.0609 21.6751 17.542 21.6187 17.3163 21.5961C16.7297 21.5059 16.2333 21.3705 15.8272 21.19ZM4.52301 15.5041C4.52301 16.0681 4.81633 16.824 5.40297 17.7717C5.6963 18.2229 5.93321 18.5614 6.11371 18.787L6.45216 19.2608C6.74548 19.5767 7.0388 19.9603 7.33213 20.4115H8.07671C9.25 20.4115 10.7279 20.3213 12.5104 20.1408C14.2252 19.9829 15.0826 19.7347 15.0826 19.3962C14.8569 16.9368 13.9093 14.9851 12.2396 13.5411C10.8633 12.3001 9.54332 11.6796 8.27978 11.6796C7.8962 11.6796 7.47879 11.7586 7.02752 11.9165C6.05731 12.1647 5.34657 12.7852 4.8953 13.778C4.64711 14.2969 4.52301 14.8723 4.52301 15.5041ZM15.8272 28.2974C17.2261 28.2974 18.6137 28.2071 19.9901 28.0266C21.1408 27.8912 21.7161 27.7107 21.7161 27.4851C21.7161 27.1241 21.1972 26.8646 20.1593 26.7067C18.6476 26.5036 17.2148 26.4021 15.861 26.4021C14.4847 26.4021 13.0406 26.5036 11.5289 26.7067C10.4684 26.8646 9.93817 27.1241 9.93817 27.4851C9.93817 27.801 11.1453 28.0492 13.5596 28.2297C14.259 28.2748 15.0149 28.2974 15.8272 28.2974Z" fill="#DFB6FF"/>
</svg>
