<svg width="180" height="180" viewBox="0 0 180 180" fill="none" xmlns="http://www.w3.org/2000/svg">
<path d="M158.688 164.218H22.1694C22.1694 160.688 22.1063 157.222 21.9802 153.818C21.9802 150.415 22.0433 147.012 22.1694 143.608C22.1694 141.087 22.7366 138.692 23.8711 136.423C25.1317 134.027 26.9595 132.2 29.3546 130.939C30.9933 129.679 32.569 128.418 34.0816 127.158C35.5943 125.897 36.8549 124.321 37.8633 122.43C37.9894 122.178 38.1155 121.926 38.2415 121.674C38.3676 121.422 38.3046 121.17 38.0525 120.918C35.5313 118.397 33.3253 115.75 31.4345 112.976C29.6697 110.203 27.9049 107.367 26.1401 104.468C23.619 100.055 21.476 95.5176 19.7112 90.8533C17.9465 86.0631 17.0011 81.2104 16.875 76.2941C17.0011 72.7644 17.7574 69.4238 19.144 66.2726C20.6567 62.9949 22.7366 60.2218 25.3838 57.9527C28.2831 55.0535 31.8757 53.0996 36.1616 52.0912C40.5736 50.9567 44.7964 51.0197 48.8302 52.2803C53.9985 53.6669 58.4106 56.2511 62.0663 60.0328C65.7219 63.6885 68.6211 67.7852 70.7642 72.3234C72.2768 71.1889 73.9153 70.2433 75.6804 69.4867C77.571 68.7307 79.4621 68.1632 81.3527 67.7852V62.4909C79.5881 62.4909 77.697 62.5539 75.6804 62.6799C73.7893 62.6799 71.8987 62.6169 70.0076 62.4909C68.8731 61.8604 68.3691 60.8518 68.4951 59.4652C68.7471 58.0787 68.7471 56.8811 68.4951 55.8728C68.6211 55.2426 68.6211 54.5493 68.4951 53.7929C68.3691 52.9106 68.3061 52.0912 68.3061 51.3348C68.3061 50.5785 68.4321 49.8852 68.6841 49.2549C68.9361 48.6246 69.3776 48.1204 70.0076 47.7422C71.8987 47.4901 73.7893 47.4271 75.6804 47.5532C77.697 47.5532 79.5881 47.5532 81.3527 47.5532C81.3527 45.7884 81.2897 44.0236 81.1637 42.2588C81.1637 40.494 81.2267 38.7292 81.3527 36.9645C81.3527 35.4518 81.9197 34.5063 83.0542 34.1282C85.1974 33.8761 87.2775 33.75 89.2941 33.75C91.4372 33.75 93.5173 33.8131 95.5339 33.9391C96.7944 34.1912 97.488 34.6324 97.614 35.2627C97.74 37.2796 97.803 39.3595 97.803 41.5024C97.803 43.5193 97.803 45.5363 97.803 47.5532C99.4416 47.5532 101.144 47.5532 102.908 47.5532C104.799 47.4271 106.69 47.4901 108.581 47.7422C109.463 47.7422 110.031 48.1204 110.283 48.8768C110.661 52.9106 110.661 56.8811 110.283 60.7888C110.283 61.1674 110.157 61.5454 109.905 61.9234C109.652 62.3019 109.274 62.4909 108.77 62.4909C106.879 62.6169 104.988 62.6799 103.097 62.6799C101.333 62.5539 99.5676 62.4909 97.803 62.4909V67.7852C101.585 68.5418 105.177 70.0543 108.581 72.3234C109.589 69.8023 110.913 67.4072 112.552 65.1381C114.316 62.7429 116.27 60.5998 118.413 58.7092C120.682 56.8181 123.14 55.2426 125.787 53.982C128.434 52.7214 131.271 51.9021 134.296 51.5239C137.321 51.0197 140.284 51.2088 143.183 52.0912C146.082 52.8476 148.667 54.0451 150.936 55.6838C153.331 57.3227 155.411 59.2762 157.175 61.5454C158.94 63.8145 160.201 66.2726 160.957 68.9198C162.344 73.3314 162.533 77.8697 161.524 82.5339C160.642 87.1976 159.256 91.5469 157.364 95.5806C155.474 99.9922 153.205 104.279 150.558 108.438C147.911 112.472 145.137 116.506 142.238 120.54C142.868 121.548 143.435 122.556 143.94 123.565C144.444 124.574 145.2 125.582 146.208 126.59C147.595 127.977 149.171 129.238 150.936 130.372C152.701 131.38 154.276 132.578 155.663 133.964C156.923 135.604 157.742 137.368 158.121 139.259C158.499 141.15 158.688 143.104 158.688 145.121V164.218ZM26.7074 95.5806C28.4722 99.3622 30.4891 103.018 32.7581 106.548C35.0271 109.951 37.4222 113.354 39.9433 116.758H139.024C141.419 113.732 143.624 110.644 145.641 107.493C147.784 104.342 149.738 101.064 151.503 97.6607C153.52 93.5004 155.158 89.1518 156.419 84.6135C157.679 80.0758 157.806 75.6006 156.797 71.1889C156.167 69.0457 155.158 66.9656 153.772 64.9491C152.385 62.9319 150.747 61.2304 148.855 59.8438C146.965 58.3307 144.822 57.1967 142.427 56.4401C140.158 55.6838 137.826 55.4947 135.431 55.8728C130.137 56.3771 125.535 58.3307 121.628 61.7344C117.846 65.1381 115.01 69.0458 113.119 73.4574C112.489 74.592 111.984 75.8526 111.606 77.2391C111.354 78.4997 110.346 79.2562 108.581 79.5082C107.573 78.3737 106.438 77.2391 105.177 76.1051C104.043 74.8446 102.656 73.962 101.018 73.4574C100.009 72.8274 98.8116 72.4494 97.425 72.3234C96.1644 72.1969 94.9669 71.8819 93.8323 71.3779C92.9497 70.6213 92.5718 69.6127 92.6978 68.3522C92.9498 66.9656 92.9498 65.7681 92.6978 64.7601C92.9498 63.7515 92.9498 62.5539 92.6978 61.1674C92.5718 59.7808 93.2017 58.8352 94.5889 58.3307C96.3534 58.0787 98.181 57.9527 100.072 57.9527C101.963 57.9527 103.854 57.9527 105.744 57.9527V52.0912C103.854 52.0912 101.963 52.1542 100.072 52.2803C98.181 52.2803 96.2904 52.1542 94.3993 51.9021C93.6433 51.65 93.1388 51.0197 92.8868 50.0113C92.6348 48.1204 92.5087 46.2296 92.5087 44.3387C92.6347 42.3218 92.6978 40.2419 92.6978 38.099H86.2689C86.1429 40.2419 86.1429 42.3218 86.2689 44.3387C86.3949 46.3556 86.2689 48.3095 85.8909 50.2003C85.8909 50.8306 85.7014 51.2718 85.3234 51.5239C84.9454 51.776 84.6304 51.9021 84.3778 51.9021C82.4872 52.1542 80.5961 52.2803 78.7056 52.2803C76.941 52.1542 75.1759 52.0912 73.4113 52.0912V57.9527C75.3019 57.9527 77.13 57.9527 78.8946 57.9527C80.7857 57.9527 82.6132 58.0157 84.3778 58.1417C85.0084 58.2677 85.4494 58.5833 85.7014 59.0873C86.0799 59.4653 86.2689 59.8438 86.2689 60.2218C86.2689 61.9864 86.2689 63.7515 86.2689 65.5161C86.3949 67.2812 86.2689 69.0458 85.8909 70.8103C85.7649 71.1889 85.4494 71.4409 84.9454 71.5669C84.5674 71.6929 84.2518 71.8819 83.9998 72.1339C82.2353 72.3864 80.4071 72.7014 78.5166 73.0794C76.6254 73.4574 75.1129 74.34 73.9783 75.7266C73.3483 76.3571 72.7808 77.0501 72.2768 77.8067C71.7722 78.5627 71.0162 79.0043 70.0076 79.1303C68.8731 79.0043 68.1171 78.4997 67.7385 77.6177C67.4865 76.7351 67.1085 75.8526 66.6039 74.9706C64.2088 68.4152 59.9231 63.1209 53.7464 59.0873C51.6035 57.9527 49.2084 57.0071 46.5612 56.2511C44.0401 55.4947 41.519 55.4317 38.9978 56.062C36.7288 56.3141 34.5859 57.0071 32.569 58.1417C30.6781 59.2762 28.9764 60.6628 27.4637 62.3019C25.9511 63.9405 24.6905 65.7681 23.682 67.7852C22.7996 69.8023 22.1694 71.8189 21.7912 73.836C21.5391 77.4917 21.9172 81.2104 22.9257 84.9921C23.9341 88.6472 25.1947 92.1769 26.7074 95.5806ZM30.3 135.478C29.1655 136.486 28.3461 137.683 27.8419 139.07C27.3377 140.456 26.9595 141.843 26.7074 143.23H73.9783C74.7349 143.104 75.5539 143.104 76.4364 143.23C77.319 143.23 78.012 142.914 78.5166 142.284C80.4071 140.519 82.2353 138.818 83.9998 137.179C85.8909 135.541 87.7815 133.838 89.6726 132.074C91.8152 133.838 93.8953 135.73 95.9124 137.746C97.929 139.763 100.009 141.591 102.152 143.23C110.85 143.356 119.485 143.419 128.057 143.419C136.754 143.293 145.452 143.23 154.15 143.23C153.898 142.221 153.646 141.15 153.394 140.015C153.142 138.755 152.574 137.62 151.692 136.612C150.306 135.225 148.667 134.027 146.776 133.019C145.011 131.885 143.498 130.498 142.238 128.859C141.482 128.103 140.788 127.284 140.158 126.401C139.528 125.393 138.898 124.385 138.267 123.376C138.141 123.124 137.889 122.998 137.51 122.998C137.258 122.998 136.943 122.935 136.565 122.808H42.9686C42.0862 124.069 41.3299 125.267 40.6996 126.401C40.0693 127.536 39.25 128.607 38.2415 129.616C36.9809 130.75 35.6574 131.759 34.2708 132.641C33.0102 133.397 31.6866 134.343 30.3 135.478ZM84.3778 159.869C82.4872 157.852 80.4701 155.899 78.3276 154.007C76.3104 152.117 74.4199 150.289 72.6547 148.524C64.9654 148.398 57.213 148.398 49.3975 148.524C41.708 148.524 34.0817 148.524 26.5183 148.524V159.869H84.3778ZM89.6726 159.869C91.6892 157.978 93.7063 156.088 95.7229 154.196C97.866 152.18 100.009 150.226 102.152 148.335C100.009 146.444 97.866 144.553 95.7229 142.662C93.7063 140.646 91.6892 138.629 89.6726 136.612C87.4035 138.629 85.2604 140.646 83.2438 142.662C81.2267 144.553 79.1466 146.381 77.004 148.146C79.1466 150.163 81.2267 152.18 83.2438 154.196C85.2604 156.088 87.4035 157.978 89.6726 159.869ZM154.339 148.524C146.398 148.524 138.456 148.524 130.515 148.524C122.573 148.398 114.631 148.461 106.69 148.713C104.547 150.478 102.467 152.306 100.45 154.196C98.5596 156.088 96.6054 157.978 94.5889 159.869H154.339V148.524ZM142.805 68.7307C140.662 66.5876 138.141 65.1381 135.242 64.3815C132.468 63.4995 129.632 62.9319 126.733 62.6799C128.624 62.1759 130.641 61.9234 132.784 61.9234C135.053 61.7974 137.195 62.1124 139.213 62.8689C141.986 63.7515 144.696 65.0121 147.343 66.6506C149.99 68.2892 151.818 70.5583 152.827 73.4574C153.961 76.2311 154.276 79.0673 153.772 81.9664C153.394 84.8655 152.637 87.7652 151.503 90.6643C149.738 94.698 147.469 98.4797 144.696 102.009C142.049 105.539 139.087 108.753 135.809 111.653C138.078 107.619 140.347 103.648 142.616 99.7402C144.885 95.8326 146.461 91.6729 147.343 87.2606C147.973 84.1095 148.036 80.8318 147.532 77.4287C147.028 74.025 145.452 71.1259 142.805 68.7307ZM45.6158 112.409C43.0946 110.014 40.6996 107.556 38.4306 105.035C36.1616 102.513 34.2077 99.8032 32.569 96.9041C30.8042 94.005 29.3546 90.8533 28.2201 87.4502C27.0856 84.0465 26.7074 80.5798 27.0856 77.0501C27.4637 75.2856 28.157 73.647 29.1655 72.1339C30.1739 70.4953 31.4345 69.1717 32.9471 68.1632C35.8464 66.0206 39.1239 64.4445 42.7795 63.4365C46.5612 62.3019 50.2798 62.2389 53.9355 63.2469C51.0362 63.4995 48.1369 64.1295 45.2376 65.1381C42.4644 66.1466 40.1324 67.5332 38.2415 69.2978C36.4767 71.0629 35.1532 73.0794 34.2708 75.3486C33.5144 77.4917 33.1363 79.6973 33.1363 81.9664C32.8841 84.8655 33.2623 87.7022 34.2708 90.4753C35.2792 93.2484 36.4767 95.9586 37.8633 98.6057C38.8718 101.001 40.0693 103.333 41.456 105.602C42.8426 107.745 44.2292 110.014 45.6158 112.409Z" fill="#07031A"/>
<path d="M26.7075 95.5805C28.4723 99.3622 30.4892 103.018 32.7582 106.547C35.0272 109.951 37.4223 113.354 39.9434 116.758H139.024C141.419 113.732 143.625 110.644 145.641 107.493C147.785 104.341 149.738 101.064 151.503 97.6601C153.52 93.5004 155.159 89.1517 156.419 84.6135C157.68 80.0752 157.806 75.6005 156.797 71.1883C156.167 69.0457 155.159 66.9656 153.772 64.9485C152.385 62.9319 150.747 61.2298 148.856 59.8432C146.965 58.3307 144.822 57.1961 142.427 56.4401C140.158 55.6836 137.826 55.4945 135.431 55.8727C130.137 56.3771 125.535 58.3307 121.628 61.7344C117.846 65.1381 115.01 69.0457 113.119 73.4574C112.489 74.592 111.984 75.8525 111.606 77.2391C111.354 78.4997 110.346 79.2562 108.581 79.5082C107.573 78.3737 106.438 77.2391 105.177 76.1045C104.043 74.844 102.656 73.962 101.018 73.4574C100.009 72.8274 98.8116 72.4489 97.425 72.3229C96.1644 72.1969 94.9669 71.8819 93.8323 71.3773C92.9497 70.6213 92.5718 69.6127 92.6978 68.3522C92.9498 66.9656 92.9498 65.768 92.6978 64.7595C92.9498 63.7509 92.9498 62.5534 92.6978 61.1668C92.5718 59.7802 93.2023 58.8352 94.5889 58.3307C96.3534 58.0787 98.1816 57.9527 100.072 57.9527C101.963 57.9527 103.854 57.9527 105.745 57.9527V52.091C103.854 52.091 101.963 52.154 100.072 52.2801C98.1816 52.2801 96.2904 52.154 94.3999 51.9019C93.6433 51.6498 93.1393 51.0195 92.8868 50.0111C92.6348 48.1202 92.5087 46.2294 92.5087 44.3385C92.6347 42.3216 92.6978 40.2417 92.6978 38.0988H86.2689C86.1429 40.2417 86.1429 42.3216 86.2689 44.3385C86.3949 46.3554 86.2689 48.3093 85.8909 50.2001C85.8909 50.8304 85.7019 51.2716 85.3234 51.5237C84.9454 51.7759 84.6304 51.9019 84.3784 51.9019C82.4873 52.154 80.5967 52.2801 78.7056 52.2801C76.941 52.154 75.1759 52.091 73.4113 52.091V57.9527C75.3019 57.9527 77.13 57.9527 78.8946 57.9527C80.7857 57.9527 82.6133 58.0157 84.3784 58.1417C85.0084 58.2677 85.4494 58.5827 85.7019 59.0872C86.0799 59.4652 86.2689 59.8432 86.2689 60.2218C86.2689 61.9864 86.2689 63.7509 86.2689 65.516C86.3949 67.2806 86.2689 69.0457 85.8909 70.8103C85.7649 71.1883 85.4494 71.4409 84.9454 71.5669C84.5674 71.6929 84.2524 71.8819 83.9998 72.1339C82.2353 72.3859 80.4077 72.7014 78.5166 73.0794C76.626 73.4574 75.1129 74.34 73.9783 75.7265C73.3483 76.3565 72.7808 77.0501 72.2768 77.8067C71.7728 78.5627 71.0162 79.0042 70.0076 79.1302C68.8731 79.0042 68.1171 78.4997 67.7385 77.6171C67.4865 76.7351 67.1085 75.8525 66.6045 74.97C64.2094 68.4152 59.9231 63.1209 53.7465 59.0872C51.6036 57.9527 49.2085 57.0071 46.5613 56.2511C44.0402 55.4945 41.5191 55.4315 38.998 56.0618C36.729 56.3141 34.586 57.0071 32.5691 58.1417C30.6783 59.2762 28.9765 60.6628 27.4638 62.3014C25.9512 63.9405 24.6906 65.768 23.6822 67.7852C22.7998 69.8017 22.1695 71.8189 21.7913 73.8354C21.5392 77.4911 21.9174 81.2098 22.9258 84.9915C23.9343 88.6472 25.1948 92.1769 26.7075 95.5805ZM30.3001 135.477C29.1656 136.486 28.3462 137.683 27.842 139.07C27.3378 140.456 26.9596 141.843 26.7075 143.229H73.9783C74.7349 143.103 75.5544 143.103 76.4364 143.229C77.319 143.229 78.0126 142.914 78.5166 142.284C80.4077 140.519 82.2353 138.818 83.9998 137.179C85.8909 135.54 87.7815 133.838 89.6726 132.073C91.8158 133.838 93.8953 135.729 95.9124 137.746C97.929 139.763 100.009 141.591 102.152 143.229C110.85 143.355 119.485 143.418 128.057 143.418C136.754 143.292 145.452 143.229 154.15 143.229C153.898 142.221 153.646 141.15 153.394 140.015C153.142 138.755 152.575 137.62 151.692 136.612C150.306 135.225 148.667 134.027 146.776 133.019C145.011 131.884 143.498 130.498 142.238 128.859C141.482 128.103 140.788 127.284 140.158 126.401C139.528 125.392 138.898 124.384 138.267 123.376C138.141 123.123 137.889 122.997 137.511 122.997C137.259 122.997 136.943 122.934 136.565 122.808H42.9688C42.0864 124.069 41.33 125.266 40.6998 126.401C40.0695 127.536 39.2501 128.607 38.2416 129.616C36.9811 130.75 35.6575 131.758 34.2709 132.641C33.0103 133.397 31.6867 134.342 30.3001 135.477ZM84.3784 159.869C82.4873 157.852 80.4707 155.898 78.3276 154.007C76.3104 152.116 74.4199 150.289 72.6548 148.524C64.9654 148.398 57.213 148.398 49.3976 148.524C41.7082 148.524 34.0818 148.524 26.5185 148.524V159.869H84.3784ZM89.6726 159.869C91.6892 157.978 93.7063 156.088 95.7234 154.196C97.866 152.179 100.009 150.226 102.152 148.335C100.009 146.444 97.866 144.553 95.7234 142.662C93.7063 140.645 91.6892 138.629 89.6726 136.612C87.4035 138.629 85.2604 140.645 83.2438 142.662C81.2267 144.553 79.1471 146.381 77.004 148.146C79.1471 150.163 81.2267 152.179 83.2438 154.196C85.2604 156.088 87.4035 157.978 89.6726 159.869ZM154.339 148.524C146.398 148.524 138.456 148.524 130.515 148.524C122.573 148.398 114.632 148.461 106.69 148.713C104.547 150.478 102.467 152.306 100.45 154.196C98.5596 156.088 96.6054 157.978 94.5889 159.869H154.339V148.524ZM142.805 68.7302C140.662 66.5876 138.141 65.138 135.242 64.3815C132.469 63.4989 129.632 62.9319 126.733 62.6799C128.624 62.1754 130.641 61.9234 132.784 61.9234C135.053 61.7974 137.195 62.1124 139.213 62.8689C141.986 63.7509 144.696 65.0115 147.343 66.6506C149.991 68.2892 151.818 70.5583 152.827 73.4574C153.961 76.2305 154.276 79.0672 153.772 81.9664C153.394 84.8655 152.638 87.7646 151.503 90.6643C149.738 94.698 147.47 98.4797 144.696 102.009C142.049 105.539 139.087 108.753 135.809 111.652C138.078 107.619 140.347 103.648 142.616 99.7402C144.885 95.8325 146.461 91.6729 147.343 87.2606C147.974 84.1095 148.037 80.8318 147.533 77.4281C147.028 74.025 145.452 71.1253 142.805 68.7302ZM45.6159 112.409C43.0948 110.014 40.6998 107.556 38.4307 105.034C36.1617 102.513 34.2078 99.8032 32.5691 96.9041C30.8043 94.0044 29.3547 90.8533 28.2202 87.4496C27.0857 84.0465 26.7075 80.5798 27.0857 77.0501C27.4638 75.2855 28.1571 73.6464 29.1656 72.1339C30.174 70.4953 31.4346 69.1717 32.9473 68.1632C35.8466 66.02 39.124 64.4445 42.7797 63.4359C46.5613 62.3014 50.28 62.2384 53.9357 63.2469C51.0364 63.4989 48.1371 64.1295 45.2378 65.138C42.4645 66.146 40.1325 67.5326 38.2416 69.2977C36.4768 71.0623 35.1533 73.0794 34.2709 75.3485C33.5145 77.4911 33.1364 79.6972 33.1364 81.9664C32.8843 84.8655 33.2624 87.7016 34.2709 90.4753C35.2793 93.2484 36.4768 95.9585 37.8635 98.6057C38.8719 101.001 40.0695 103.333 41.4561 105.602C42.8427 107.745 44.2293 110.014 45.6159 112.409Z" fill="#DDDDDD"/>
</svg>
