<svg width="180" height="180" viewBox="0 0 180 180" fill="none" xmlns="http://www.w3.org/2000/svg">
<path d="M82.9282 34.7333C84.3148 34.103 85.8279 33.7878 87.4665 33.7878C89.105 33.6618 90.6806 33.8509 92.1937 34.3551C93.7063 34.8593 95.0929 35.6157 96.3534 36.6241C97.614 37.5065 98.6225 38.578 99.3785 39.8385C100.387 41.2251 101.018 42.6118 101.27 43.9984C101.648 45.385 101.711 46.8347 101.459 48.3473C101.081 49.7339 100.45 51.0575 99.5675 52.3181C98.8115 53.4526 97.992 54.5241 97.1094 55.5325C96.6054 56.0368 96.4164 56.4778 96.5424 56.8564C96.6684 57.2344 96.7944 57.7384 96.9204 58.369C97.929 62.6546 98.9375 66.9403 99.9461 71.2266C100.955 75.5123 102.089 79.8615 103.349 84.2732C105.114 80.7435 106.753 77.3404 108.265 74.0627C109.905 70.7856 111.48 67.4449 112.993 64.0412C111.48 62.2766 110.472 60.0705 109.968 57.4234C109.589 54.7762 109.905 52.3181 110.913 50.0491C111.795 48.6624 112.93 47.4649 114.316 46.4565C115.829 45.322 117.405 44.5026 119.044 43.9984C120.808 43.4941 122.573 43.3051 124.338 43.4311C126.102 43.4311 127.741 43.8723 129.254 44.7547C132.91 46.5195 135.242 49.1667 136.25 52.6963C137.258 56.2258 136.691 59.5035 134.548 62.5286C133.792 64.1672 132.532 65.4278 130.767 66.3103C129.002 67.1929 127.237 67.9489 125.472 68.5795C125.094 71.9826 124.653 75.4493 124.149 78.979C123.645 82.5086 123.266 85.9118 123.014 89.1895C124.653 88.4329 126.165 87.6139 127.552 86.7313C129.065 85.8488 130.641 84.9038 132.279 83.8952C132.405 81.7521 132.784 79.6725 133.414 77.6554C134.17 75.5123 135.494 73.7477 137.384 72.3611C139.528 70.596 142.175 69.714 145.326 69.714C148.477 69.588 151.188 70.407 153.457 72.1721C154.969 73.1801 156.167 74.4407 157.049 75.9538C158.058 77.4664 158.688 79.105 158.94 80.8695C159.319 82.5086 159.256 84.1472 158.751 85.7858C158.247 87.4249 157.364 88.8745 156.104 90.135C154.339 92.2781 152.133 93.6017 149.486 94.1057C146.965 94.6097 144.381 94.6727 141.734 94.2947C140.599 96.4378 139.528 98.5174 138.519 100.535C137.51 102.552 136.502 104.568 135.494 106.585C135.242 109.862 135.62 113.077 136.628 116.229C137.637 119.38 139.024 122.342 140.788 125.116C142.049 126.88 143.498 128.33 145.137 129.464C146.902 130.599 148.603 131.797 150.243 133.057C151.629 134.192 152.7 135.641 153.457 137.406C154.339 139.045 154.78 140.747 154.78 142.511C154.906 146.419 154.906 150.326 154.78 154.235C154.78 158.016 154.78 161.798 154.78 165.58H21.2869C21.2869 161.924 21.2239 158.205 21.0978 154.424C21.0978 150.642 21.1609 146.86 21.2869 143.079C21.1609 141.314 21.413 139.549 22.0433 137.784C22.7996 136.019 23.9971 134.57 25.6359 133.435C27.0225 132.049 28.5982 130.788 30.363 129.653C32.2538 128.519 33.8926 127.006 35.2791 125.116C37.0439 122.342 38.3675 119.38 39.2499 116.229C40.2584 113.077 40.6366 109.862 40.3844 106.585C39.502 104.568 38.4936 102.552 37.3591 100.535C36.2246 98.5174 35.1531 96.4378 34.1447 94.2947C32.2538 94.5467 30.2999 94.6097 28.283 94.4837C26.2661 94.2317 24.4384 93.6017 22.7996 92.5931C20.0264 90.828 18.1986 88.3699 17.3162 85.2188C16.4338 82.0671 16.875 79.1679 18.6398 76.5208C19.7743 73.7477 21.8542 71.7936 24.8795 70.659C28.0309 69.3984 31.1823 69.2095 34.3337 70.092C35.7204 70.596 37.044 71.2896 38.3045 72.1721C39.6912 73.0541 40.7626 73.9997 41.5189 75.0083C42.5274 76.1428 43.0316 77.5924 43.0316 79.357C43.1577 80.9961 43.3467 82.5086 43.5988 83.8952C46.6242 85.7858 49.7756 87.5509 53.0531 89.1895C52.801 86.2903 52.4228 83.3276 51.9186 80.3025C51.4143 77.1514 51.0362 74.1257 50.7841 71.2266C50.532 70.9746 50.4689 70.533 50.595 69.903C50.7211 69.2725 50.595 68.8315 50.2168 68.5795C49.0823 67.9489 47.9478 67.4449 46.8133 67.0669C45.6788 66.5623 44.6073 65.9953 43.5988 65.3648C41.8341 63.6002 40.5735 61.5201 39.8172 59.1249C39.0608 56.7298 39.1239 54.461 40.0063 52.3181C40.7626 49.4188 42.5905 47.1498 45.4897 45.511C48.389 43.7463 51.4774 43.179 54.7549 43.8093C56.6454 43.9354 58.4105 44.5656 60.0491 45.7002C61.6877 46.7086 63.0118 48.0322 64.0198 49.6709C65.1544 51.1836 65.8479 52.8854 66.0999 54.7762C66.3519 56.5408 66.0999 58.306 65.3434 60.0705C65.0914 60.9531 64.5874 61.8981 63.8308 62.9066C63.0748 63.7892 63.0118 64.6088 63.6418 65.3648C65.0284 68.6425 66.4779 71.7936 67.9905 74.8193C69.5036 77.8444 71.0792 80.9331 72.7177 84.0842C73.8523 79.546 74.9869 75.0083 76.1214 70.47C77.382 65.8063 78.5165 61.1421 79.5251 56.4778C78.8945 55.2174 77.949 53.9568 76.6884 52.6963C75.5539 51.4357 74.8609 49.986 74.6089 48.3473C74.1043 45.448 74.6089 42.7378 76.1214 40.2167C77.76 37.5696 80.0291 35.7417 82.9282 34.7333ZM46.2461 107.152C57.087 104.001 67.9905 101.984 78.9575 101.102C90.0506 100.22 101.081 100.85 112.047 102.993C114.82 103.623 117.468 104.379 119.989 105.262C122.51 106.018 125.094 106.837 127.741 107.72C124.086 105.577 120.241 103.812 116.207 102.426C112.299 100.913 108.328 99.6519 104.295 98.6439C94.4623 96.2488 84.5044 95.8703 74.4199 97.5094C64.3354 99.1479 54.9439 102.363 46.2461 107.152ZM45.1115 117.363C44.4812 118.245 43.977 119.128 43.5988 120.01H132.468C132.468 119.254 132.342 118.371 132.09 117.363C117.594 117.363 103.097 117.363 88.601 117.363C74.1043 117.237 59.6081 117.237 45.1115 117.363ZM88.2225 135.515C86.0799 137.532 83.9368 139.486 81.7937 141.377C79.6511 143.268 77.508 145.285 75.3649 147.427C77.508 149.444 79.6511 151.398 81.7937 153.289C83.9368 155.18 86.0799 157.071 88.2225 158.961C90.3656 157.071 92.4457 155.18 94.4623 153.289C96.6054 151.398 98.6855 149.444 100.702 147.427C98.6855 145.285 96.6054 143.268 94.4623 141.377C92.4457 139.486 90.3656 137.532 88.2225 135.515ZM27.9049 145.158V149.507C35.3422 149.507 42.7795 149.507 50.2168 149.507C57.654 149.507 65.0914 149.444 72.5287 149.318C72.0247 148.94 71.6462 148.625 71.3942 148.373C71.1422 148.121 70.7642 147.806 70.2596 147.427C70.7642 147.049 71.1422 146.671 71.3942 146.293C71.6462 145.915 71.9617 145.537 72.3397 145.158H27.9049ZM103.728 145.158C103.98 145.537 104.232 145.978 104.484 146.482C104.862 146.86 105.177 147.175 105.429 147.427C105.177 147.806 104.862 148.121 104.484 148.373C104.232 148.625 103.98 148.94 103.728 149.318C111.039 149.444 118.413 149.507 125.85 149.507C133.288 149.507 140.662 149.507 147.973 149.507V145.158H103.728Z" fill="#07031A"/>
<path d="M46.2461 107.152C57.087 104.001 67.991 101.984 78.9575 101.101C90.0506 100.219 101.081 100.849 112.047 102.993C114.821 103.623 117.468 104.379 119.989 105.262C122.51 106.018 125.094 106.837 127.741 107.72C124.086 105.577 120.241 103.812 116.207 102.425C112.3 100.912 108.328 99.6519 104.295 98.6434C94.4623 96.2488 84.5043 95.8702 74.4198 97.5094C64.3353 99.1479 54.9439 102.362 46.2461 107.152ZM45.1116 117.363C44.4813 118.245 43.9771 119.128 43.5989 120.01H132.469C132.469 119.254 132.342 118.371 132.09 117.363C117.594 117.363 103.097 117.363 88.601 117.363C74.1043 117.237 59.6081 117.237 45.1116 117.363ZM88.223 135.515C86.0799 137.532 83.9368 139.486 81.7936 141.376C79.6511 143.268 77.508 145.284 75.3648 147.427C77.508 149.444 79.6511 151.398 81.7936 153.289C83.9368 155.18 86.0799 157.071 88.223 158.961C90.3656 157.071 92.4457 155.18 94.4623 153.289C96.6054 151.398 98.6855 149.444 100.702 147.427C98.6855 145.284 96.6054 143.268 94.4623 141.376C92.4457 139.486 90.3656 137.532 88.223 135.515ZM27.9049 145.158V149.507C35.3422 149.507 42.7795 149.507 50.2168 149.507C57.654 149.507 65.0913 149.444 72.5287 149.318C72.0247 148.94 71.6461 148.625 71.3941 148.373C71.1421 148.121 70.7641 147.805 70.2596 147.427C70.7641 147.049 71.1421 146.671 71.3941 146.293C71.6461 145.915 71.9617 145.537 72.3397 145.158H27.9049ZM103.728 145.158C103.98 145.537 104.232 145.978 104.484 146.482C104.862 146.86 105.177 147.175 105.429 147.427C105.177 147.805 104.862 148.121 104.484 148.373C104.232 148.625 103.98 148.94 103.728 149.318C111.039 149.444 118.413 149.507 125.85 149.507C133.288 149.507 140.662 149.507 147.973 149.507V145.158H103.728Z" fill="#4F8A8B"/>
</svg>
