<svg width="50" height="50" viewBox="0 0 50 50" fill="none" xmlns="http://www.w3.org/2000/svg">
<path fill-rule="evenodd" clip-rule="evenodd" d="M25.447 42.008C25.219 42.948 24.931 43.6 24.601 43.964C24.271 44.328 23.839 44.709 23.288 45.107C22.696 45.522 21.993 45.869 21.18 46.157C20.367 46.445 19.47 46.521 18.48 46.368L11.511 45.403C11.2581 45.369 11.0018 45.369 10.749 45.403C10.529 45.437 10.317 45.454 10.114 45.454C9.76699 45.454 9.32699 45.53 8.79399 45.691C8.25199 45.843 7.83699 46.072 7.53999 46.368L5.13599 42.423C5.43199 42.093 5.69499 41.864 5.92299 41.729C6.15999 41.602 6.43099 41.458 6.74399 41.314C7.71298 40.8631 8.75328 40.585 9.81799 40.492C10.284 40.459 10.741 40.45 11.181 40.467C11.6472 40.4836 12.1141 40.4669 12.578 40.417C13.468 40.569 14.364 40.704 15.262 40.823C16.168 40.95 17.074 41.077 17.98 41.213C18.97 41.213 19.64 41.111 19.986 40.916C20.173 40.814 20.46 40.628 20.858 40.366C21.256 40.103 21.654 39.714 22.052 39.197C21.172 39.104 20.282 38.935 19.368 38.689C18.5541 38.4801 17.7516 38.2287 16.964 37.936L19.546 31.535C18.251 30.79 17.353 30.197 16.836 29.74C16.337 29.2959 15.9265 28.7616 15.626 28.165C15.194 27.403 14.915 26.666 14.796 25.955C14.6771 25.3245 14.6235 24.6835 14.636 24.042C14.652 23.052 14.881 21.959 15.338 20.757C15.795 19.563 16.65 18.487 17.904 17.547C18.9428 16.754 19.9618 15.9355 20.96 15.092C22.0147 14.1827 22.9995 13.1952 23.906 12.138C22.687 11.511 22.078 10.512 22.078 9.14C22.078 8.21 22.399 7.422 23.051 6.753C23.703 6.093 24.508 5.763 25.447 5.763C26.37 5.763 27.167 6.093 27.827 6.753C28.487 7.422 28.817 8.209 28.817 9.14C28.817 10.495 28.207 11.494 26.988 12.138C27.8812 13.1965 28.8551 14.1841 29.901 15.092C30.883 15.931 31.916 16.752 32.991 17.548C34.227 18.488 35.074 19.563 35.514 20.757C35.963 21.959 36.208 23.051 36.234 24.042C36.234 24.609 36.184 25.244 36.064 25.955C35.944 26.666 35.684 27.403 35.269 28.165C34.9417 28.7559 34.5182 29.2882 34.016 29.74C33.516 30.197 32.627 30.79 31.349 31.535L33.931 37.935C33.1244 38.223 32.3052 38.4746 31.476 38.689C30.561 38.935 29.689 39.104 28.842 39.197C29.223 39.714 29.613 40.103 30.011 40.365C30.409 40.628 30.705 40.815 30.908 40.915C31.255 41.111 31.924 41.212 32.915 41.212C33.8116 41.0774 34.709 40.9474 35.607 40.822C36.5152 40.702 37.4213 40.5667 38.325 40.416C38.765 40.467 39.215 40.484 39.671 40.467C40.1398 40.4502 40.6091 40.4585 41.077 40.492C42.1398 40.5937 43.1783 40.8715 44.15 41.314C44.447 41.458 44.717 41.602 44.955 41.729C45.2 41.864 45.463 42.093 45.759 42.423L43.329 46.368C43.033 46.072 42.618 45.843 42.076 45.691C41.542 45.531 41.111 45.454 40.78 45.454C40.56 45.454 40.34 45.437 40.12 45.404C39.8701 45.37 39.6168 45.37 39.367 45.404L32.415 46.368C31.425 46.521 30.502 46.453 29.655 46.174C28.8 45.894 28.097 45.522 27.555 45.056C27.1042 44.6914 26.6695 44.3073 26.252 43.905C25.93 43.583 25.659 42.948 25.447 42.008Z" fill="#393E46"/>
<path fill-rule="evenodd" clip-rule="evenodd" d="M26.32 39.197C26.32 40.289 26.565 41.221 27.073 41.991C27.573 42.761 28.114 43.363 28.699 43.786C29.604 44.455 30.934 44.786 32.686 44.786C33.118 44.786 33.965 44.692 35.218 44.506C36.0426 44.3735 36.8694 44.2548 37.698 44.15C38.325 44.074 38.748 44.015 38.968 43.964C39.6274 43.8797 40.2957 43.8966 40.95 44.014C41.212 44.082 41.509 44.142 41.83 44.201C42.1289 44.249 42.408 44.3807 42.635 44.581L43.829 42.651C43.1506 42.3006 42.4219 42.0577 41.669 41.931C40.417 41.711 39.316 41.669 38.368 41.78C38.088 41.813 37.724 41.898 37.267 42.025C36.81 42.161 36.2 42.288 35.421 42.397C33.745 42.669 32.864 42.796 32.763 42.796C32.119 42.796 31.56 42.719 31.078 42.55C30.6373 42.3985 30.2073 42.2174 29.791 42.008C28.911 41.61 28.021 40.67 27.107 39.198L26.32 39.197ZM24.558 39.197H23.763C22.831 40.687 21.951 41.627 21.104 42.008C20.706 42.203 20.274 42.381 19.792 42.55C19.309 42.72 18.759 42.796 18.132 42.796C18.014 42.796 17.133 42.669 15.474 42.398C14.686 42.288 14.051 42.16 13.594 42.025C13.2356 41.9203 12.8708 41.8385 12.502 41.78C11.554 41.67 10.462 41.712 9.20001 41.932C8.45471 42.0562 7.73421 42.2993 7.06601 42.652L8.26001 44.582C8.45501 44.387 8.71701 44.26 9.03901 44.201C9.36101 44.141 9.65701 44.082 9.91901 44.015C10.5732 43.8972 11.2416 43.88 11.901 43.964C12.121 44.014 12.544 44.074 13.171 44.15C13.797 44.226 14.636 44.345 15.677 44.506C16.913 44.692 17.76 44.786 18.208 44.786C19.944 44.786 21.273 44.455 22.196 43.786C22.763 43.363 23.296 42.762 23.796 41.991C24.304 41.221 24.558 40.289 24.558 39.197ZM25.448 29.85C27.048 29.85 28.588 29.977 30.062 30.222C31.679 29.647 32.856 28.741 33.584 27.522C34.2102 26.4638 34.5353 25.2546 34.524 24.025C34.524 23.263 34.337 22.425 33.956 21.502C33.576 20.587 32.957 19.758 32.094 19.012C31.12 18.2 30.054 17.311 28.894 16.346C27.664 15.3025 26.5119 14.1705 25.447 12.959C24.287 14.246 23.136 15.38 21.977 16.346C20.9138 17.2296 19.8551 18.1186 18.801 19.013C17.921 19.758 17.302 20.587 16.93 21.502C16.557 22.425 16.371 23.262 16.371 24.025C16.371 25.295 16.676 26.463 17.285 27.522C17.997 28.741 19.182 29.647 20.833 30.222C22.358 29.9697 23.9023 29.8453 25.448 29.85ZM25.448 34.363C27.386 34.363 29.241 34.557 31.027 34.938L29.842 31.882C28.3883 31.6522 26.9188 31.5362 25.447 31.535C23.94 31.535 22.467 31.653 21.037 31.882L19.843 34.938C21.612 34.558 23.484 34.363 25.448 34.363ZM25.448 10.825C26.574 10.825 27.132 10.266 27.132 9.14001C27.132 8.01401 26.573 7.44701 25.447 7.44701C24.321 7.44701 23.763 8.01401 23.763 9.14001C23.763 10.266 24.322 10.825 25.448 10.825ZM25.448 37.834C26.5491 37.8362 27.6482 37.7425 28.733 37.554C29.799 37.36 30.833 37.131 31.823 36.869C29.883 36.361 27.759 36.099 25.447 36.099C23.102 36.099 20.977 36.361 19.072 36.869C20.029 37.131 21.045 37.359 22.12 37.555C23.219 37.7431 24.3331 37.8365 25.448 37.834ZM24.558 23.5L22.493 23.474C21.933 23.474 21.654 23.195 21.654 22.628C21.654 22.069 21.934 21.79 22.493 21.79H24.558V19.656C24.558 19.08 24.855 18.784 25.448 18.784C26.023 18.784 26.32 19.08 26.32 19.656V21.79H28.453C28.995 21.79 29.266 22.07 29.266 22.628C29.266 23.195 28.995 23.474 28.453 23.474H26.32V25.506C26.32 26.108 26.023 26.404 25.447 26.404C24.855 26.404 24.558 26.108 24.558 25.506V23.5Z" fill="url(#paint0_linear_1_257)"/>
<defs>
<linearGradient id="paint0_linear_1_257" x1="21.13" y1="37.592" x2="77.641" y2="37.469" gradientUnits="userSpaceOnUse">
<stop stop-color="#FFD369"/>
<stop offset="1" stop-color="white" stop-opacity="0"/>
</linearGradient>
</defs>
</svg>
