<svg width="50" height="50" viewBox="0 0 50 50" fill="none" xmlns="http://www.w3.org/2000/svg">
<path fill-rule="evenodd" clip-rule="evenodd" d="M25.821 12.022H24.061V8.772H21.994C21.436 8.772 21.156 8.5 21.156 7.95V7.925C21.156 7.383 21.436 7.112 21.994 7.112H24.06V5.004C24.06 4.419 24.357 4.132 24.95 4.132C25.525 4.132 25.821 4.419 25.821 5.004V7.112H27.955C28.497 7.112 28.768 7.382 28.768 7.925V7.95C28.768 8.5 28.497 8.771 27.955 8.771L25.838 8.797L25.821 12.022ZM11.03 37.744L10.217 33.104C10.2 33.104 10.175 33.071 10.141 33.003C10.056 32.884 9.819 32.732 9.43 32.546C9.049 32.351 8.592 32.029 8.084 31.564C7.50339 31.0827 6.93585 30.5859 6.382 30.074C5.976 29.6984 5.60759 29.2841 5.282 28.837C4.273 27.45 3.705 25.772 3.595 23.8C3.425 21.903 4.196 20.006 5.898 18.118C7.617 16.238 9.945 15.35 12.866 15.468C13.958 15.536 15.246 15.798 16.71 16.264C17.193 16.459 17.684 16.654 18.192 16.84L19.69 17.424C19.953 17.56 20.19 17.695 20.385 17.822C20.3011 17.4813 20.2585 17.1318 20.258 16.781C20.258 15.494 20.715 14.393 21.638 13.479C22.552 12.573 23.661 12.107 24.948 12.09C26.235 12.09 27.336 12.556 28.25 13.47C29.156 14.385 29.613 15.485 29.613 16.755C29.613 17.018 29.579 17.365 29.512 17.797C29.74 17.653 29.969 17.526 30.181 17.424C30.943 17.094 31.941 16.704 33.186 16.264C34.609 15.782 35.887 15.511 37.03 15.443C39.951 15.307 42.271 16.196 43.973 18.093C45.641 19.981 46.42 21.878 46.301 23.774C46.174 25.747 45.598 27.424 44.591 28.812C44.261 29.261 43.888 29.675 43.473 30.065C42.9332 30.5711 42.3797 31.0623 41.813 31.538C41.272 32.004 40.806 32.334 40.425 32.52C40.045 32.706 39.825 32.867 39.756 32.977C39.7435 33.0051 39.7266 33.0311 39.706 33.054C39.689 33.071 39.68 33.088 39.68 33.104L38.884 37.77L40.527 43.891C39.697 44.636 37.843 45.246 34.973 45.728C32.094 46.211 28.767 46.448 24.999 46.448C21.164 46.448 17.785 46.194 14.881 45.694C11.969 45.186 10.14 44.551 9.395 43.798L11.03 37.744Z" fill="#222831"/>
<path fill-rule="evenodd" clip-rule="evenodd" d="M24.95 20.675C24.921 20.5302 24.8782 20.3886 24.822 20.252C24.7567 20.0067 24.6749 19.7662 24.577 19.532C24.526 19.422 24.458 19.278 24.382 19.101C24.291 18.9173 24.2063 18.7305 24.128 18.541C24.078 18.423 24.018 18.271 23.942 18.085C23.874 17.89 23.806 17.712 23.755 17.551C23.7109 17.3969 23.6883 17.2373 23.688 17.077C23.688 16.205 24.103 15.765 24.949 15.765C25.829 15.765 26.262 16.196 26.262 17.052C26.262 17.272 26.228 17.424 26.168 17.526C25.931 18.152 25.813 18.491 25.796 18.542C25.542 19.042 25.39 19.363 25.322 19.507C25.203 19.777 25.127 20.015 25.102 20.227C25.051 20.328 25.017 20.413 25 20.489C24.983 20.565 24.966 20.625 24.95 20.675V20.675ZM22.172 29.235C20.106 29.269 18.218 29.371 16.499 29.557C14.789 29.735 13.469 29.997 12.52 30.327C11.9889 29.6715 11.4146 29.0521 10.801 28.473C10.2039 27.9133 9.62784 27.3315 9.07399 26.729C8.24399 25.882 7.83799 24.959 7.83799 23.952C7.83799 22.707 8.04099 21.802 8.45599 21.226C8.89599 20.556 9.59099 20.066 10.514 19.744C11.4142 19.4266 12.3615 19.2633 13.316 19.261C14.51 19.261 15.644 19.524 16.736 20.057C17.812 20.617 18.523 21.065 18.87 21.395C19.996 22.538 20.877 23.775 21.503 25.112C21.715 25.612 21.876 26.306 21.986 27.186C22.096 28.076 22.156 28.753 22.172 29.236V29.235ZM24.949 24.917C25.068 24.451 25.161 24.13 25.245 23.952C25.415 23.309 25.601 22.758 25.821 22.309C25.914 22.03 26.058 21.709 26.253 21.336C26.439 20.963 26.643 20.531 26.863 20.057C26.99 19.777 27.133 19.431 27.278 19.024C27.43 18.618 27.582 18.22 27.726 17.822C27.862 17.492 27.929 17.136 27.929 16.755C27.929 15.942 27.633 15.257 27.057 14.689C26.482 14.114 25.779 13.826 24.949 13.826C22.985 13.826 21.994 14.816 21.994 16.781C21.994 17.161 22.062 17.517 22.197 17.847C22.562 18.923 22.841 19.667 23.036 20.083C23.256 20.557 23.451 20.989 23.636 21.361C23.815 21.734 23.976 22.055 24.102 22.335C24.322 22.885 24.5 23.427 24.652 23.977C24.687 24.07 24.78 24.392 24.949 24.917V24.917ZM24.06 31.14C24.06 30.48 24.043 29.565 24.01 28.405C23.976 27.237 23.849 26.263 23.637 25.485C22.96 23.275 21.935 21.488 20.555 20.134C19.844 19.439 18.76 18.787 17.287 18.194C15.602 17.534 14.002 17.204 12.495 17.204C9.88699 17.204 7.94799 18.135 6.69499 20.007C5.98399 20.997 5.62799 22.242 5.62799 23.723C5.62799 25.349 6.02599 26.678 6.81399 27.72C7.22899 28.312 8.02399 29.049 9.20099 29.93C10.37 30.802 11.369 31.614 12.173 32.36C13.613 32.046 15.238 31.775 17.05 31.538C18.862 31.309 21.199 31.174 24.06 31.14V31.14ZM37.844 42.875L37.107 39.945C33.882 39.209 29.826 38.836 24.949 38.836C20.123 38.836 16.085 39.209 12.842 39.946L12.055 42.9C15.195 41.944 19.497 41.461 24.975 41.461C27.599 41.461 30.046 41.597 32.29 41.859C34.542 42.121 36.396 42.46 37.844 42.875ZM37.201 35.458C34.161 34.62 30.105 34.197 25.051 34.197C19.954 34.197 15.856 34.628 12.749 35.484L13.121 37.99C16.246 37.177 20.216 36.77 25.051 36.77C29.86 36.77 33.78 37.168 36.803 37.964L37.201 35.458ZM25.838 31.166C28.683 31.216 31.02 31.36 32.84 31.589C34.652 31.818 36.295 32.097 37.75 32.41C38.657 31.513 39.664 30.666 40.773 29.853C41.882 29.04 42.661 28.346 43.11 27.77C43.898 26.695 44.296 25.357 44.296 23.749C44.296 22.284 43.94 21.048 43.229 20.057C41.959 18.187 40.011 17.255 37.404 17.255C35.88 17.255 34.296 17.585 32.637 18.245C31.13 18.838 30.047 19.482 29.36 20.175C27.955 21.539 26.93 23.325 26.287 25.535C26.041 26.297 25.906 27.262 25.88 28.439C25.854 29.616 25.838 30.522 25.838 31.166V31.166ZM27.65 29.236C27.65 28.753 27.71 28.076 27.81 27.186C27.921 26.306 28.09 25.611 28.319 25.112C28.937 23.774 29.809 22.538 30.952 21.395C31.282 21.065 31.994 20.616 33.086 20.057C34.1568 19.5263 35.3369 19.2537 36.532 19.261C37.462 19.261 38.377 19.422 39.3 19.744C40.215 20.066 40.909 20.557 41.366 21.226C41.781 21.785 41.993 22.69 41.993 23.952C41.993 24.942 41.586 25.865 40.773 26.729C40.2193 27.296 39.6491 27.8466 39.063 28.38C38.453 28.93 37.861 29.582 37.303 30.327C36.345 29.997 35.008 29.735 33.297 29.557C31.587 29.371 29.707 29.269 27.65 29.235V29.236Z" fill="url(#paint0_linear_1_260)"/>
<defs>
<linearGradient id="paint0_linear_1_260" x1="21.13" y1="37.224" x2="77.764" y2="37.469" gradientUnits="userSpaceOnUse">
<stop stop-color="#FFD369"/>
<stop offset="1" stop-color="white" stop-opacity="0"/>
</linearGradient>
</defs>
</svg>
