<svg width="50" height="50" viewBox="0 0 50 50" fill="none" xmlns="http://www.w3.org/2000/svg">
<path fill-rule="evenodd" clip-rule="evenodd" d="M24.95 10.752C24.01 10.752 23.205 10.422 22.553 9.762C21.901 9.102 21.579 8.297 21.579 7.357C21.579 6.426 21.901 5.63 22.553 4.97C23.205 4.31 24.009 3.98 24.949 3.98C25.872 3.98 26.676 4.31 27.345 4.97C27.6672 5.27743 27.9224 5.64818 28.0945 6.05896C28.2666 6.46974 28.3519 6.91168 28.345 7.357C28.345 8.297 28.015 9.101 27.345 9.762C26.676 10.422 25.872 10.752 24.949 10.752H24.95ZM40.231 43.942C39.419 44.652 37.598 45.246 34.771 45.728C31.943 46.202 28.683 46.448 25 46.448C21.25 46.448 17.947 46.194 15.102 45.703C12.258 45.203 10.462 44.585 9.718 43.84L11.284 37.888L10.59 33.993L8.405 30.2L6.297 14.774L7.507 14.3L14.307 25.755L14.459 12.115L16.144 11.819L21.326 25.535L24.102 10.778H25.822L28.598 25.484L33.73 11.82L35.44 12.116L35.593 25.756L42.417 14.276L43.577 14.817L41.519 30.176L39.309 33.969L38.615 37.914L40.231 43.942ZM14.535 11.989C13.587 11.989 12.783 11.667 12.122 11.015C11.462 10.363 11.132 9.559 11.132 8.619C11.132 7.696 11.462 6.9 12.122 6.239C12.782 5.578 13.587 5.249 14.535 5.249C15.458 5.249 16.254 5.579 16.915 6.239C17.576 6.899 17.905 7.696 17.905 8.619C17.905 9.559 17.575 10.363 16.915 11.015C16.6049 11.33 16.234 11.5787 15.8249 11.7461C15.4158 11.9135 14.977 11.9962 14.535 11.989V11.989ZM35.363 11.989C34.423 11.989 33.627 11.667 32.976 11.015C32.324 10.363 31.994 9.559 31.994 8.619C31.994 7.696 32.324 6.9 32.976 6.239C33.628 5.578 34.423 5.249 35.363 5.249C36.311 5.249 37.116 5.579 37.776 6.239C38.436 6.899 38.766 7.696 38.766 8.619C38.766 9.559 38.436 10.363 37.776 11.015C37.116 11.667 36.311 11.989 35.363 11.989ZM5.4 14.723C4.46 14.723 3.664 14.393 3.012 13.741C2.36 13.089 2.03 12.293 2.03 11.345C2.03 10.422 2.36 9.626 3.012 8.957C3.664 8.28 4.46 7.95 5.4 7.95C6.348 7.95 7.144 8.28 7.813 8.957C8.473 9.627 8.803 10.422 8.803 11.345C8.803 12.293 8.473 13.089 7.813 13.741C7.49768 14.0588 7.1214 14.3096 6.70674 14.4783C6.29209 14.6471 5.84762 14.7303 5.4 14.723ZM44.541 14.723C43.601 14.723 42.797 14.393 42.137 13.741C41.477 13.089 41.146 12.293 41.146 11.345C41.146 10.422 41.476 9.626 42.136 8.957C42.796 8.28 43.601 7.95 44.541 7.95C45.472 7.95 46.268 8.28 46.929 8.957C47.589 9.627 47.919 10.422 47.919 11.345C47.919 12.293 47.589 13.089 46.929 13.741C46.6181 14.0577 46.2462 14.3081 45.8357 14.4769C45.4252 14.6457 44.9848 14.7294 44.541 14.723Z" fill="#222831"/>
<path fill-rule="evenodd" clip-rule="evenodd" d="M37.2 35.73C34.16 34.89 30.105 34.468 25.05 34.468C19.954 34.468 15.856 34.899 12.749 35.754L13.121 38.261C16.245 37.448 20.216 37.041 25.051 37.041C29.86 37.041 33.78 37.439 36.803 38.235L37.2 35.73ZM38.936 31.293C37.564 30.793 35.634 30.387 33.145 30.065C30.655 29.743 27.912 29.582 24.898 29.582C21.952 29.582 19.26 29.735 16.813 30.04C14.366 30.344 12.435 30.742 11.03 31.242L12.275 33.494C13.663 33.088 15.466 32.791 17.685 32.604C19.895 32.427 22.316 32.334 24.949 32.334C27.582 32.334 30.012 32.427 32.239 32.604C34.474 32.791 36.286 33.096 37.675 33.519L38.936 31.293ZM37.844 43.146L37.107 40.216C33.881 39.48 29.826 39.107 24.949 39.107C20.123 39.107 16.085 39.48 12.842 40.217L12.054 43.171C15.196 42.215 19.497 41.731 24.974 41.731C27.599 41.731 30.046 41.867 32.29 42.13C34.542 42.392 36.396 42.731 37.844 43.146Z" fill="url(#paint0_linear_1_277)"/>
<defs>
<linearGradient id="paint0_linear_1_277" x1="21.253" y1="37.224" x2="77.764" y2="37.36" gradientUnits="userSpaceOnUse">
<stop stop-color="#FFD369"/>
<stop offset="1" stop-color="white" stop-opacity="0"/>
</linearGradient>
</defs>
</svg>
