<svg width="100" height="100" viewBox="0 0 100 100" fill="none" xmlns="http://www.w3.org/2000/svg">
<path d="M73.0228 83.01C73.0228 65.181 58.3222 59.3424 60.0082 48.2105C64.2773 45.2442 67.0377 40.2578 66.8965 34.6329C66.6837 26.1411 59.7545 19.2227 51.2627 19.0229C42.2348 18.81 34.8505 26.0647 34.8505 35.044C34.8505 40.4954 37.5747 45.3082 41.7342 48.2036C43.6223 59.3424 28.9518 65.2535 28.9518 83.01C35.4583 84.9606 39.6795 86.905 51.0984 86.905C62.5172 86.905 66.5163 84.9606 73.0228 83.01Z" fill="#CD2929"/>
<path d="M50.6078 21.8011C50.6078 21.8011 45.6886 26.9185 45.4742 34.4377C45.259 41.957 48.2385 46.3949 48.2385 47.4693C48.2385 48.5437 48.3256 53.0796 47.2512 56.9468C46.1768 60.814 40.1431 74.5197 40.538 83.7998C40.8133 90.2685 29.565 81.7489 29.565 81.7489L31.0682 70.5777L42.2394 54.2504L41.3802 47.376L34.7202 37.064L38.5874 24.8183L50.6078 21.8011Z" fill="#E05643"/>
<path d="M73.0228 83.01H73.0244H73.0228ZM32.2722 80.6638C32.3948 80.7023 32.5167 80.7417 32.6385 80.7794C37.7753 82.4014 41.833 83.6825 51.0984 83.6825C60.2412 83.6825 64.1747 82.4292 69.1541 80.8419C69.3361 80.7841 69.5189 80.7255 69.7032 80.6668C69.0993 73.4708 65.7628 68.6125 62.5257 63.8999C59.2416 59.1188 55.8456 54.1741 56.8221 47.7277C56.9547 46.8523 57.4422 46.0694 58.1695 45.5643C61.7251 43.0931 63.7837 39.0369 63.6749 34.7139C63.5068 27.996 57.9049 22.4027 51.1871 22.2445C47.7017 22.1574 44.4175 23.4547 41.9309 25.8842C39.4428 28.3138 38.073 31.567 38.073 35.044C38.073 39.2297 40.1292 43.1609 43.5745 45.5581C44.2849 46.0525 44.7669 46.8122 44.9112 47.6645C46.0141 54.1718 42.6212 59.1758 39.3394 64.0149C36.1556 68.7112 32.873 73.5518 32.2722 80.6638ZM51.0984 90.1274C40.8396 90.1274 35.9134 88.5725 30.698 86.9258C29.8372 86.6535 28.9479 86.3728 28.0262 86.0967C26.6634 85.6879 25.7294 84.433 25.7294 83.01C25.7294 72.6031 30.3185 65.8359 34.0052 60.3983C36.9831 56.0059 38.7818 53.1714 38.6777 49.9289C34.2374 46.2869 31.6281 40.8286 31.6281 35.044C31.6281 29.817 33.6875 24.9263 37.4274 21.2735C41.1658 17.6215 46.1051 15.6809 51.3382 15.8013C56.2768 15.9169 60.9368 17.9192 64.4608 21.4378C67.9848 24.9571 69.994 29.6141 70.1182 34.5519C70.2678 40.5232 67.6686 46.1543 63.1003 49.9089C63.0895 53.3365 65.2175 56.4347 67.8383 60.251C71.5836 65.7047 76.2453 72.4905 76.2453 83.01C76.2453 84.433 75.3112 85.6879 73.9484 86.0967C72.9634 86.3921 72.0217 86.6921 71.1116 86.9821C66.0366 88.6002 61.243 90.1274 51.0984 90.1274Z" fill="black"/>
</svg>
