<svg width="408" height="408" viewBox="0 0 408 408" fill="none" xmlns="http://www.w3.org/2000/svg">
<path d="M296.978 357.773H118.749C122.227 353.462 132.462 339.635 132.462 319.523C132.462 314.135 131.726 297.361 118.749 281.273H296.978C293.501 285.583 283.268 299.411 283.268 319.523C283.268 324.911 284.001 341.684 296.978 357.773Z" fill="#AFDBE9"/>
<path d="M158.409 357.773C161.162 349.828 167.244 337.857 167.682 323C168.222 304.611 161.421 290.76 158.409 282.045C150.157 282.045 137.349 281.273 129.097 281.273L141.122 323L122.024 357.773H158.409Z" fill="#E1FFFF"/>
<path d="M137.935 346.182H277.783C273.515 335.352 272.658 325.599 272.658 319.523C272.658 309.23 274.843 300.271 277.792 292.864H137.944C142.212 303.694 143.069 313.447 143.069 319.523C143.069 329.816 140.884 338.775 137.935 346.182ZM296.975 369.364H118.752C114.581 369.364 110.799 366.695 109.084 362.545C107.367 358.392 108.037 353.529 110.793 350.109C114.922 344.987 121.852 334.202 121.852 319.523C121.852 313.223 120.416 300.869 110.79 288.934C108.037 285.517 107.367 280.651 109.084 276.501C110.799 272.35 114.581 269.682 118.752 269.682H296.975C301.146 269.682 304.928 272.35 306.643 276.501C308.36 280.654 307.693 285.517 304.934 288.937C300.805 294.059 293.875 304.844 293.875 319.523C293.875 325.822 295.312 338.177 304.934 350.112C307.693 353.529 308.36 358.395 306.643 362.545C304.928 366.695 301.146 369.364 296.975 369.364Z" fill="black"/>
<path d="M120.624 250.596L93.2917 152.484C95.7941 153.99 132.263 205.835 150.576 194.341C165.143 185.198 162.113 129.293 163.308 107.409C169.719 127.687 191.193 179.852 207.864 179.852C224.535 179.852 246.008 127.687 252.419 107.409C252.824 109.905 246.37 182.484 271.514 194.341C285.876 201.114 317.787 154.536 322.439 152.484C317.672 179.689 300.177 217.242 295.414 250.463C292.879 268.145 277.913 281.273 260.249 281.273H155.768C138.158 281.273 123.205 268.221 120.624 250.596Z" fill="#AFDBE9"/>
<path d="M117.322 176.955C168.455 202.455 122.091 269.682 227.955 269.682L150.661 281.273C142.013 273.183 124.337 254.402 117.322 225.636C112.23 204.761 114.85 187.214 117.322 176.955Z" fill="#E1FFFF"/>
<path d="M115.773 193.384L130.772 247.221C130.914 247.729 131.023 248.245 131.098 248.767C132.846 260.69 143.453 269.682 155.768 269.682H260.252C272.604 269.682 283.217 260.648 284.934 248.67C287.557 230.39 293.549 211.667 299.54 193.475C288.028 204.091 277.309 209.699 267.312 204.981C254.454 198.92 246.289 182.88 243.035 157.298C230.65 180.592 219.47 191.443 207.864 191.443C196.212 191.443 184.996 180.51 172.557 157.042C172.532 156.993 172.505 156.942 172.481 156.894C170.884 180.211 166.837 197.504 155.861 204.392C152.303 206.623 148.569 207.607 144.747 207.607C135.173 207.607 125.052 201.437 115.773 193.384ZM260.252 292.864H155.768C144.853 292.864 134.261 288.864 125.939 281.599C117.633 274.351 112.094 264.318 110.28 253.27L83.1436 155.862C81.8849 151.349 83.2553 146.456 86.6088 143.483C89.9593 140.51 94.6259 140.057 98.405 142.33C100.436 143.549 101.589 144.962 105.414 149.637C110.379 155.708 119.625 167.009 128.994 175.216C139.402 184.332 144.328 184.73 145.233 184.323C145.611 183.93 148.768 180.181 150.624 163.408C151.998 150.972 152.173 136.088 152.312 124.125C152.393 117.316 152.46 111.433 152.719 106.718C153.018 101.197 156.849 96.6784 161.865 95.9268C166.876 95.1753 171.681 98.396 173.335 103.624C176.499 113.633 182.88 129.9 190 143.67C199.433 161.914 205.856 167.437 207.864 168.207C209.871 167.437 216.294 161.914 225.727 143.67C232.847 129.9 239.228 113.633 242.392 103.624C243.97 98.6314 248.441 95.4439 253.258 95.8544C258.076 96.271 262.03 100.198 262.869 105.399C263.12 106.95 263.074 108.064 262.929 111.753C260.687 168.482 270.886 180.725 275.055 183.333C276.241 183.001 279.957 181.449 287.485 174.241C293.905 168.095 300.361 160.495 305.55 154.385C312.42 146.296 314.989 143.271 318.463 141.738C322.064 140.147 326.172 140.836 329.173 143.531C332.173 146.224 333.586 150.495 332.855 154.663C330.546 167.851 325.671 182.629 320.51 198.277C314.533 216.4 308.351 235.142 305.894 252.256C304.258 263.672 298.665 274.071 290.144 281.541C281.81 288.843 271.197 292.864 260.252 292.864Z" fill="black"/>
<path d="M180.045 86.5455C180.045 98.0669 170.703 107.409 159.182 107.409C147.66 107.409 138.318 98.0669 138.318 86.5455C138.318 75.024 147.66 65.6818 159.182 65.6818C170.703 65.6818 180.045 75.024 180.045 86.5455Z" fill="#E1FFFF"/>
<path d="M180.045 86.5455C180.045 98.0669 170.703 107.409 159.182 107.409C147.66 107.409 138.318 98.0669 138.318 86.5455C138.318 75.024 147.66 65.6818 159.182 65.6818C170.703 65.6818 180.045 75.024 180.045 86.5455Z" stroke="black" stroke-width="23.1818" stroke-miterlimit="10" stroke-linejoin="round"/>
<path d="M277.409 86.5455C277.409 98.0669 268.067 107.409 256.545 107.409C245.024 107.409 235.682 98.0669 235.682 86.5455C235.682 75.024 245.024 65.6818 256.545 65.6818C268.067 65.6818 277.409 75.024 277.409 86.5455Z" fill="#E1FFFF"/>
<path d="M277.409 86.5455C277.409 98.0669 268.067 107.409 256.545 107.409C245.024 107.409 235.682 98.0669 235.682 86.5455C235.682 75.024 245.024 65.6818 256.545 65.6818C268.067 65.6818 277.409 75.024 277.409 86.5455Z" stroke="black" stroke-width="23.1818" stroke-miterlimit="10" stroke-linejoin="round"/>
<path d="M353.909 128.273C353.909 139.794 344.567 149.136 333.045 149.136C321.524 149.136 312.182 139.794 312.182 128.273C312.182 116.751 321.524 107.409 333.045 107.409C344.567 107.409 353.909 116.751 353.909 128.273Z" fill="#E1FFFF"/>
<path d="M353.909 128.273C353.909 139.794 344.567 149.136 333.045 149.136C321.524 149.136 312.182 139.794 312.182 128.273C312.182 116.751 321.524 107.409 333.045 107.409C344.567 107.409 353.909 116.751 353.909 128.273Z" stroke="black" stroke-width="23.1818" stroke-miterlimit="10" stroke-linejoin="round"/>
<path d="M103.545 128.273C103.545 139.794 94.2033 149.136 82.6818 149.136C71.1603 149.136 61.8182 139.794 61.8182 128.273C61.8182 116.751 71.1603 107.409 82.6818 107.409C94.2033 107.409 103.545 116.751 103.545 128.273Z" fill="#E1FFFF"/>
<path d="M103.545 128.273C103.545 139.794 94.2033 149.136 82.6818 149.136C71.1603 149.136 61.8182 139.794 61.8182 128.273C61.8182 116.751 71.1603 107.409 82.6818 107.409C94.2033 107.409 103.545 116.751 103.545 128.273Z" stroke="black" stroke-width="23.1818" stroke-miterlimit="10" stroke-linejoin="round"/>
<path d="M131.481 323H284.246" stroke="black" stroke-width="23.1818" stroke-miterlimit="10" stroke-linejoin="round"/>
</svg>
