<svg width="100" height="100" viewBox="0 0 100 100" fill="none" xmlns="http://www.w3.org/2000/svg">
<path d="M31.293 52.1566C31.3893 38.5523 22.6418 27.2731 25.2169 19.1329H76.7717C79.3468 27.2731 70.5993 38.5523 70.6956 52.1566C70.7966 66.5111 79.4253 78.4418 76.7717 86.8321H25.2169C22.5626 78.4418 31.1912 66.5111 31.293 52.1566Z" fill="#AFDBE9"/>
<path d="M39.9489 19.4831C38.012 30.4579 41.1417 44.3985 41.1417 53.8767C41.1417 63.1298 37.5143 73.9671 38.1596 86.8787L26.1636 86.8321L30.0085 53.8767L26.1636 19.0467L39.9489 19.4831Z" fill="#E1FFFF"/>
<path d="M71.4413 71.92C69.6031 66.1088 67.5195 59.5233 67.4675 52.1799C67.417 45.0609 69.5441 38.7138 71.4203 33.1138C72.8026 28.987 74.0374 25.3021 74.018 22.3604H27.9701C27.9507 25.3021 29.1854 28.987 30.5678 33.1138C32.444 38.7138 34.5711 45.0609 34.5206 52.1799C34.4686 59.5233 32.385 66.1096 30.5468 71.92C29.1233 76.4219 27.8536 80.4346 27.9421 83.6038H74.0467C74.1345 80.4346 72.8656 76.4219 71.4413 71.92ZM22.1394 87.8052C20.4449 82.4498 22.3623 76.3893 24.3916 69.9731C26.0923 64.5976 28.0198 58.5044 28.0648 52.1341C28.1083 46.0914 26.2468 40.5365 24.4467 35.1648C22.4136 29.0965 20.4923 23.3645 22.1394 18.159C22.5635 16.8171 23.8091 15.9046 25.2171 15.9046H76.7718C78.179 15.9046 79.4246 16.8171 79.8494 18.159C81.4958 23.3645 79.5753 29.0965 77.5414 35.1648C75.7413 40.5365 73.8806 46.0914 73.9233 52.1341C73.9683 58.5044 75.8958 64.5968 77.5965 69.9731C79.6266 76.3885 81.5432 82.4498 79.8494 87.8052C79.4246 89.1471 78.179 90.0596 76.7718 90.0596H25.2171C23.8091 90.0596 22.5635 89.1471 22.1394 87.8052Z" fill="black"/>
<path d="M41.0866 20.7839V32.3419" stroke="black" stroke-width="5.96421" stroke-miterlimit="10" stroke-linejoin="round"/>
<path d="M60.9013 20.7839V32.3419" stroke="black" stroke-width="5.96421" stroke-miterlimit="10" stroke-linejoin="round"/>
<path d="M26.1287 75.2035H75.8592" stroke="black" stroke-width="5.96421" stroke-miterlimit="10" stroke-linejoin="round"/>
<path d="M29.5286 43.9007H72.4601" stroke="black" stroke-width="5.96421" stroke-miterlimit="10" stroke-linejoin="round"/>
</svg>
