<svg width="180" height="180" viewBox="0 0 180 180" fill="none" xmlns="http://www.w3.org/2000/svg">
<path d="M122.543 163.436H56.25L64.3005 97.2416L80.7002 72.2947V55.3983H64.3005V38.9988H80.7002V22.5H97.5966V38.9988H113.996V55.3983H97.5966V72.2947L113.996 97.2416L122.543 163.436ZM110.119 98.6332L93.6208 73.5868V51.4226H110.021V42.9744H93.6208V26.575H84.6759V42.9744H68.2762V51.4226H84.6759V73.5868L68.1767 98.6332L60.822 159.46H117.971L110.119 98.6332Z" fill="#84142D"/>
<path d="M110.12 98.6332L93.6208 73.5868V51.4225H110.02V42.9743H93.6208V26.5749H84.6754V42.9743H68.2763V51.4225H84.6754V73.5868L68.1767 98.6332L60.822 159.46H117.971L110.12 98.6332Z" fill="#FFEFDD"/>
</svg>
