<svg width="180" height="180" viewBox="0 0 180 180" fill="none" xmlns="http://www.w3.org/2000/svg">
<path d="M85.7289 77.5007H95.4692V80.8802H85.7289V77.5007ZM78.3737 124.214H105.11V127.594H78.3737V124.214ZM90.8972 160.989H61.875C63.5979 154.363 65.9171 147.77 68.8326 141.21C71.748 134.65 72.7087 128.289 71.7148 122.127C71.1844 117.754 69.3956 114.573 66.3474 112.585C63.3656 110.598 61.875 107.384 61.875 102.945C61.875 98.3064 63.2334 93.9662 65.9497 89.9246C68.6666 85.8161 71.4167 83.6297 74.1994 83.3648C77.1148 83.1662 78.9041 82.5694 79.5667 81.5754C80.2294 80.5157 80.5607 78.9913 80.5607 77.004C80.5607 75.0161 79.0031 72.5642 75.8891 69.6487C72.7746 66.7333 71.2176 63.7847 71.2176 60.8029C71.2176 56.1649 73.305 52.388 77.4793 49.4726C81.72 46.4909 86.1924 45 90.8972 45C95.8005 45 100.373 46.4909 104.613 49.4726C108.853 52.388 110.974 56.1649 110.974 60.8029C110.974 63.7847 109.417 66.7333 106.302 69.6487C103.255 72.5642 101.73 75.0161 101.73 77.004C101.73 78.9913 102.028 80.5157 102.625 81.5754C103.288 82.5694 105.11 83.1662 108.092 83.3648C110.742 83.6297 113.425 85.8161 116.142 89.9246C118.925 93.9662 120.317 98.3064 120.317 102.945C120.317 107.384 118.793 110.598 115.744 112.585C112.697 114.573 110.941 117.754 110.477 122.127C109.483 128.289 110.444 134.65 113.359 141.21C116.275 147.77 118.594 154.363 120.317 160.989H90.8972ZM107.794 133.358C107.329 130.907 107.065 128.72 106.998 126.798C106.998 125.142 107.098 123.419 107.296 121.63L107.694 119.841L108.191 118.052L108.886 116.362L109.781 114.872C110.643 113.613 111.537 112.453 112.465 111.393C114.452 109.272 115.811 107.484 116.54 106.026C117.534 102.978 117.203 99.4989 115.546 95.5896C113.956 91.6802 111.802 88.8311 109.086 87.0424C108.622 86.8433 107.429 86.5783 105.508 86.247C103.983 85.9821 102.724 85.518 101.73 84.8554C99.8752 83.5965 98.8149 81.7414 98.55 79.29C98.55 78.8923 98.5168 78.4946 98.4504 78.0969C98.4504 77.6334 98.4504 77.1694 98.4504 76.7053C98.6496 75.2479 99.3454 73.5913 100.538 71.7362C101.598 70.2782 102.724 68.8539 103.917 67.4623C105.176 66.0043 106.269 64.4141 107.197 62.6917C107.86 61.2337 107.893 59.5772 107.296 57.7221C106.037 54.5415 103.785 52.1893 100.538 50.6653C97.2911 49.1413 94.0776 48.3461 90.8972 48.2799C84.3373 48.4123 79.434 50.7977 76.1873 55.436C74.6634 57.8874 74.1662 60.0413 74.6966 61.8964C75.2929 63.3544 76.0877 64.7122 77.0816 65.9711C78.1419 67.2306 79.1691 68.4562 80.163 69.6487C81.6868 71.5039 82.8461 73.4259 83.6415 75.4133C83.9064 77.7988 83.7079 79.9521 83.0453 81.8741C82.3163 83.133 81.4883 84.1269 80.5607 84.8554C78.8378 85.7835 76.8499 86.3466 74.5971 86.5451C73.7359 86.6779 72.7419 87.2077 71.6152 88.1353C69.4288 90.1232 67.7059 92.7405 66.447 95.9872C65.1881 99.234 64.8568 102.282 65.4531 105.131C65.9171 106.655 66.6456 107.98 67.6395 109.107C68.6334 110.167 69.6274 111.26 70.6213 112.387L71.6152 113.579L72.5096 114.872L73.305 116.362L74.0998 118.052L74.5971 119.841C74.9284 121.564 75.1601 123.486 75.2929 125.606C75.2929 126.467 75.2265 127.759 75.0943 129.482C74.4975 133.656 73.4378 137.897 71.9134 142.204C70.9194 144.788 69.9255 147.372 68.9321 149.956C67.9382 152.54 67.0433 155.125 66.2484 157.709H116.043C114.784 154.131 113.426 150.553 111.968 146.974C110.576 143.33 109.384 139.62 108.39 135.843L108.092 134.65L107.794 133.358Z" fill="#84142D"/>
<path d="M85.7289 77.5007H95.4692V80.8802H85.7289V77.5007ZM78.3737 124.214H105.11V127.594H78.3737V124.214ZM107.794 133.358C107.329 130.907 107.065 128.72 106.998 126.798C106.998 125.142 107.098 123.419 107.296 121.63L107.694 119.841L108.191 118.052L108.886 116.362L109.781 114.872C110.643 113.613 111.537 112.453 112.465 111.393C114.452 109.272 115.811 107.484 116.54 106.026C117.534 102.978 117.202 99.499 115.546 95.5896C113.956 91.6802 111.802 88.8311 109.086 87.0424C108.622 86.8433 107.429 86.5783 105.508 86.247C103.984 85.9821 102.724 85.518 101.73 84.8554C99.8752 83.5965 98.8149 81.7414 98.55 79.2895C98.55 78.8923 98.5168 78.4946 98.451 78.097C98.451 77.6335 98.451 77.1694 98.451 76.7053C98.6495 75.2479 99.3454 73.5913 100.538 71.7362C101.598 70.2782 102.724 68.854 103.917 67.4623C105.176 66.0043 106.269 64.4141 107.197 62.6918C107.86 61.2338 107.893 59.5772 107.296 57.7221C106.037 54.5415 103.785 52.1892 100.538 50.6652C97.2911 49.1413 94.0775 48.3461 90.8972 48.2798C84.3373 48.4123 79.434 50.7977 76.1872 55.436C74.6634 57.8875 74.1662 60.0413 74.6966 61.8964C75.2929 63.3538 76.0877 64.7123 77.0816 65.9711C78.1419 67.2306 79.169 68.4563 80.163 69.6488C81.6868 71.5039 82.8467 73.4254 83.6415 75.4133C83.9064 77.7988 83.7079 79.9521 83.0452 81.8736C82.3162 83.133 81.4882 84.127 80.5607 84.8554C78.8377 85.783 76.8499 86.3466 74.597 86.5451C73.7359 86.6779 72.7419 87.2078 71.6152 88.1353C69.4288 90.1232 67.7059 92.7405 66.447 95.9873C65.1881 99.234 64.8568 102.282 65.453 105.131C65.9171 106.655 66.6455 107.98 67.6395 109.107C68.6334 110.167 69.6274 111.26 70.6213 112.387L71.6152 113.579L72.5096 114.872L73.305 116.362L74.0998 118.052L74.597 119.841C74.9284 121.564 75.1601 123.485 75.2929 125.606C75.2929 126.467 75.2265 127.759 75.0943 129.482C74.4975 133.656 73.4377 137.897 71.9134 142.204C70.9194 144.788 69.926 147.372 68.9321 149.956C67.9382 152.54 67.0432 155.125 66.2484 157.709H116.043C114.784 154.131 113.426 150.553 111.968 146.975C110.576 143.33 109.384 139.62 108.39 135.843L108.092 134.65L107.794 133.358Z" fill="#FFEFDD"/>
</svg>
