<svg width="180" height="180" viewBox="0 0 180 180" fill="none" xmlns="http://www.w3.org/2000/svg">
<path d="M78.2364 45H98.2142V71.6366H117.695V45H137.672V89.3284L117.695 98.3728V142.701L137.672 151.746V160.889H39.375V151.746L58.7559 142.701V98.3728L39.375 89.3284V45H58.7559V71.6366H78.2364V45ZM94.2384 48.9756H82.3117V75.6124H54.7805V48.9756H43.3506V86.7442L62.8313 95.7887V145.285L43.3506 154.33V156.814H133.697V154.33L113.719 145.285V95.7887L133.697 86.7442V48.9756H121.67V75.6124H94.2384V48.9756Z" fill="#84142D"/>
<path d="M94.2384 48.9756H82.3117V75.6124H54.7806V48.9756H43.3507V86.7443L62.8312 95.7887V145.285L43.3507 154.33V156.814H133.697V154.33L113.719 145.285V95.7887L133.697 86.7443V48.9756H121.67V75.6124H94.2384V48.9756Z" fill="#FFEFDD"/>
</svg>
