<svg width="180" height="180" viewBox="0 0 180 180" fill="none" xmlns="http://www.w3.org/2000/svg">
<path d="M33.75 91.9727L61.2394 77.4579L33.75 62.8616V33.75H58.5636V46.238L89.4589 62.4561L119.706 46.238V33.75H144.438V62.8616L117.354 77.4579L144.438 91.9727V161.143H33.75V91.9727ZM89.1349 92.2972L58.5636 108.515V136.248H119.706V108.515L89.1349 92.2972ZM125.301 105.677L125.139 141.762H53.1307V105.272L89.2159 86.4585L125.301 105.677ZM53.1306 49.4004V39.2641H39.2641L39.3452 59.5367L72.5113 77.5389L39.3452 94.9731L39.2641 155.629H139.006V94.9731L105.758 77.5389L139.006 59.5367V39.2641H125.139V49.4004L89.1349 68.6998L53.455 49.5626L53.1306 49.4004Z" fill="#17223B"/>
<path d="M125.301 105.677L125.139 141.762H53.1311V105.272L89.2164 86.4591L125.301 105.677ZM53.1311 49.4005V39.2642H39.2646L39.3457 59.5367L72.5119 77.5389L39.3457 94.9731L39.2646 155.629H139.006V94.9731L105.759 77.5389L139.006 59.5367V39.2642H125.139V49.4005L89.1354 68.6998L53.4554 49.5627L53.1311 49.4005Z" fill="#B5C5E3"/>
</svg>
