<svg width="256" height="256" viewBox="0 0 256 256" fill="none" xmlns="http://www.w3.org/2000/svg">
<path fill-rule="evenodd" clip-rule="evenodd" d="M128.301 37.0003C123.521 37.0003 119.104 39.6104 116.799 43.7978C114.927 47.1972 114.708 51.2082 116.047 54.7616C107.787 63.2654 100.18 71.8848 97.2079 81.3421C95.6248 86.3803 95.4722 91.7561 97.4895 96.9716C98.6897 100.072 100.701 103.065 103.389 105.984L92.1505 105.983C88.6661 105.983 85.3208 107.369 82.8562 109.834C80.3916 112.299 79.0049 115.644 79.0049 119.128V125.701C79.0049 129.186 80.3913 132.531 82.8562 134.996C85.321 137.46 88.6662 138.847 92.1505 138.847H101.907C100.841 181.292 79.6595 198.93 65.1787 206.265C59.5655 209.025 56 214.753 56 221.009V227.582C56 231.066 57.3865 234.411 59.8513 236.876C62.3161 239.34 65.6613 240.727 69.1456 240.727H187.456C190.941 240.727 194.286 239.341 196.751 236.876C199.215 234.411 200.602 231.066 200.602 227.582V221.009C200.602 214.753 197.037 209.025 191.423 206.265C176.943 198.931 155.762 181.293 154.695 138.847H164.452C167.936 138.847 171.281 137.46 173.746 134.996C176.211 132.531 177.597 129.186 177.597 125.701V119.128C177.597 115.644 176.211 112.299 173.746 109.834C171.281 107.369 167.937 105.983 164.452 105.983H153.212C155.898 103.065 157.911 100.072 159.111 96.9701C161.13 91.7528 160.977 86.3788 159.393 81.3407C156.42 71.8818 148.813 63.2654 140.553 54.7601C141.894 51.2082 141.676 47.1969 139.803 43.7974C137.499 39.6104 133.081 37 128.301 37L128.301 37.0003Z" fill="white"/>
<path fill-rule="evenodd" clip-rule="evenodd" d="M128.372 42.6342H128.301C125.574 42.6342 123.048 44.1271 121.734 46.5146L121.734 46.5155C120.683 48.4226 120.541 50.7101 121.319 52.7744L122.581 56.1213L120.089 58.687C111.74 67.2818 105.1 75.0211 102.582 83.0314C101.318 87.0568 101.26 91.1007 102.743 94.9376C103.622 97.2075 105.181 99.6126 107.534 102.168L116.235 111.62L92.1505 111.617C90.1617 111.617 88.2487 112.409 86.8401 113.818C85.4308 115.227 84.6387 117.14 84.6387 119.128V125.701C84.6387 127.69 85.4308 129.603 86.8397 131.012C88.2492 132.421 90.1619 133.213 92.1505 133.213H107.684L107.539 138.988C106.982 161.172 101.143 177.271 93.2303 188.893C85.3373 200.486 75.6039 207.3 67.7245 211.291L67.6945 211.306L67.6644 211.321C63.9792 213.133 61.6338 216.9 61.6338 221.009V227.582C61.6338 229.571 62.4259 231.483 63.8348 232.892C65.2443 234.301 67.157 235.093 69.1456 235.093H187.456C189.446 235.093 191.358 234.301 192.767 232.892C194.176 231.483 194.968 229.57 194.968 227.582V221.009C194.968 216.899 192.623 213.133 188.938 211.321L188.908 211.306L188.878 211.291C180.998 207.3 171.265 200.487 163.372 188.894C155.459 177.271 149.62 161.172 149.063 138.988L148.918 133.213H164.452C166.441 133.213 168.353 132.421 169.762 131.012C171.171 129.603 171.963 127.69 171.963 125.701V119.128C171.963 117.139 171.171 115.227 169.762 113.818C168.353 112.408 166.441 111.617 164.452 111.617H140.368L149.067 102.167C151.419 99.6114 152.979 97.2069 153.857 94.9372C155.342 91.0979 155.284 87.0557 154.018 83.0309L154.018 83.0297C151.5 75.0183 144.861 67.2824 136.512 58.6852L134.019 56.1181L135.282 52.7703C136.06 50.7094 135.919 48.4225 134.868 46.5151C133.566 44.1486 131.072 42.66 128.372 42.6342ZM134.1 38.3525C132.326 37.4783 130.348 37.0005 128.304 37L128.301 37L128.298 37.0003C127.41 37.0006 126.534 37.0909 125.683 37.2646L125.679 37.2653C121.949 38.0273 118.674 40.3903 116.799 43.7978C114.927 47.1972 114.708 51.2082 116.047 54.7616C107.787 63.2654 100.18 71.8848 97.2079 81.3421C95.6248 86.3803 95.4722 91.7561 97.4895 96.9716C97.9309 98.1116 98.4819 99.2371 99.1359 100.35C100.26 102.263 101.69 104.138 103.389 105.984L92.1505 105.983C88.6661 105.983 85.3208 107.369 82.8562 109.834C80.3916 112.299 79.0049 115.644 79.0049 119.128V125.701C79.0049 129.186 80.3913 132.531 82.8562 134.996C85.321 137.46 88.6662 138.847 92.1505 138.847H101.907C101.859 140.776 101.769 142.653 101.64 144.481C98.9295 182.874 79.0015 199.263 65.1787 206.265C59.5655 209.025 56 214.753 56 221.009V227.582C56 231.066 57.3865 234.411 59.8513 236.876C62.3161 239.34 65.6613 240.727 69.1456 240.727H187.456C190.941 240.727 194.286 239.341 196.751 236.876C199.215 234.411 200.602 231.066 200.602 227.582V221.009C200.602 214.753 197.037 209.025 191.423 206.265C177.601 199.264 157.673 182.875 154.962 144.481C154.833 142.653 154.743 140.776 154.695 138.847H164.452C167.936 138.847 171.281 137.46 173.746 134.996C176.211 132.531 177.597 129.186 177.597 125.701V119.128C177.597 115.644 176.211 112.299 173.746 109.834C171.281 107.369 167.937 105.983 164.452 105.983H153.212C154.91 104.138 156.34 102.262 157.465 100.349C158.119 99.2362 158.67 98.1105 159.111 96.9701C161.13 91.7528 160.977 86.3788 159.393 81.3407C156.42 71.8818 148.813 63.2654 140.553 54.7601C141.894 51.2082 141.676 47.1969 139.803 43.7974C138.485 41.4018 136.474 39.5223 134.1 38.3525Z" fill="black"/>
</svg>
