<svg width="256" height="256" viewBox="0 0 256 256" fill="none" xmlns="http://www.w3.org/2000/svg">
<path fill-rule="evenodd" clip-rule="evenodd" d="M115.155 37C113.335 37 111.869 38.4657 111.869 40.2864V56.7185H95.4369C93.6162 56.7185 92.1505 58.1841 92.1505 60.0049V86.2962C92.1505 88.1169 93.6162 89.5826 95.4369 89.5826H111.869V106.015H92.1505C88.6661 106.015 85.3208 107.401 82.8562 109.866C80.3916 112.331 79.0049 115.676 79.0049 119.16V125.733C79.0049 129.218 80.3913 132.563 82.8562 135.027C85.321 137.492 88.6662 138.879 92.1505 138.879H101.907C100.841 181.324 79.6595 198.962 65.1787 206.297C59.5655 209.057 56 214.785 56 221.041V227.613C56 231.098 57.3865 234.443 59.8513 236.908C62.3161 239.372 65.6613 240.759 69.1456 240.759H187.456C190.941 240.759 194.286 239.373 196.751 236.908C199.215 234.443 200.602 231.098 200.602 227.613V221.041C200.602 214.785 197.037 209.057 191.423 206.297C176.943 198.963 155.762 181.325 154.695 138.879H164.452C167.936 138.879 171.281 137.492 173.746 135.027C176.211 132.563 177.597 129.217 177.597 125.733V119.16C177.597 115.676 176.211 112.331 173.746 109.866C171.281 107.401 167.936 106.015 164.452 106.015H144.733V89.5826H161.165C162.986 89.5826 164.452 88.1169 164.452 86.2962V60.0049C164.452 58.1841 162.986 56.7185 161.165 56.7185H144.733V40.2864C144.733 38.4657 143.267 37 141.447 37H115.155Z" fill="#555555"/>
<path fill-rule="evenodd" clip-rule="evenodd" d="M117.503 62.3523H97.7844V83.9487H117.503V111.649H92.1505C90.1614 111.649 88.2489 112.441 86.8401 113.85C85.4308 115.259 84.6387 117.172 84.6387 119.16V125.733C84.6387 127.722 85.4308 129.635 86.8397 131.044C88.2492 132.453 90.1619 133.245 92.1505 133.245H107.684L107.539 139.02C106.982 161.204 101.143 177.302 93.2303 188.925C85.3373 200.518 75.6039 207.332 67.7245 211.323L67.6945 211.338L67.6644 211.353C63.9792 213.165 61.6338 216.931 61.6338 221.041V227.613C61.6338 229.603 62.4259 231.515 63.8348 232.924C65.2443 234.333 67.157 235.125 69.1456 235.125H187.456C189.446 235.125 191.358 234.333 192.767 232.924C194.176 231.515 194.968 229.602 194.968 227.613V221.041C194.968 216.931 192.623 213.165 188.938 211.353L188.908 211.338L188.878 211.323C180.998 207.332 171.265 200.519 163.372 188.926C155.459 177.303 149.62 161.204 149.063 139.02L148.918 133.245H164.452C166.441 133.245 168.353 132.453 169.762 131.044C171.171 129.635 171.963 127.722 171.963 125.733V119.16C171.963 117.171 171.171 115.259 169.762 113.85C168.353 112.441 166.44 111.649 164.452 111.649H139.099V83.9487H158.818V62.3523H139.099V42.6338H117.503V62.3523ZM164.452 138.879C167.936 138.879 171.281 137.492 173.746 135.027C176.211 132.563 177.597 129.217 177.597 125.733V119.16C177.597 115.676 176.211 112.331 173.746 109.866C171.281 107.401 167.936 106.015 164.452 106.015H144.733V89.5826H161.165C162.986 89.5826 164.452 88.1169 164.452 86.2962V60.0049C164.452 58.1841 162.986 56.7185 161.165 56.7185H144.733V40.2864C144.733 38.4657 143.267 37 141.447 37H115.155C113.335 37 111.869 38.4657 111.869 40.2864V56.7185H95.4369C93.6162 56.7185 92.1505 58.1841 92.1505 60.0049V86.2962C92.1505 88.1169 93.6162 89.5826 95.4369 89.5826H111.869V106.015H92.1505C88.6661 106.015 85.3208 107.401 82.8562 109.866C80.3916 112.331 79.0049 115.676 79.0049 119.16V125.733C79.0049 129.218 80.3913 132.563 82.8562 135.027C85.321 137.492 88.6662 138.879 92.1505 138.879H101.907C101.859 140.808 101.769 142.685 101.64 144.513C98.9295 182.906 79.0015 199.295 65.1787 206.297C59.5655 209.057 56 214.785 56 221.041V227.613C56 231.098 57.3865 234.443 59.8513 236.908C62.3161 239.372 65.6613 240.759 69.1456 240.759H187.456C190.941 240.759 194.286 239.373 196.751 236.908C199.215 234.443 200.602 231.098 200.602 227.613V221.041C200.602 214.785 197.037 209.057 191.423 206.297C177.601 199.296 157.673 182.907 154.962 144.513C154.833 142.685 154.743 140.808 154.695 138.879H164.452Z" fill="black"/>
</svg>
