<svg width="256" height="256" viewBox="0 0 256 256" fill="none" xmlns="http://www.w3.org/2000/svg">
<path fill-rule="evenodd" clip-rule="evenodd" d="M82.2913 37C80.4764 37 79.0049 38.4716 79.0049 40.2864L85.5777 92.869C85.5777 94.6839 87.0493 96.1554 88.8641 96.1554H98.7234V106.015H88.8641C85.3797 106.015 82.0344 107.401 79.5698 109.866C77.1052 112.331 75.7185 115.676 75.7185 119.16V125.733C75.7185 129.218 77.1049 132.563 79.5698 135.027C82.0346 137.492 85.3798 138.879 88.8641 138.879H101.907C100.841 181.324 79.6595 198.962 65.1787 206.297C59.5655 209.058 56 214.785 56 221.041V227.613C56 231.098 57.3865 234.443 59.8513 236.908C62.3161 239.372 65.6613 240.759 69.1456 240.759H187.456C190.941 240.759 194.286 239.373 196.751 236.908C199.215 234.443 200.602 231.099 200.602 227.613V221.041C200.602 214.785 197.037 209.057 191.423 206.297C176.943 198.963 155.762 181.325 154.695 138.879H167.738C171.222 138.879 174.568 137.492 177.032 135.027C179.497 132.563 180.884 129.219 180.884 125.733V119.16C180.884 115.676 179.497 112.331 177.032 109.866C174.568 107.401 171.222 106.015 167.738 106.015H157.879V96.1554H167.738C169.553 96.1554 171.024 94.6839 171.024 92.869L177.597 40.2864C177.597 38.4716 176.126 37 174.311 37H154.592C152.778 37 151.306 38.4716 151.306 40.2864V53.4321H141.447V40.2864C141.447 38.4716 139.975 37 138.16 37H118.442C116.627 37 115.155 38.4716 115.155 40.2864V53.4321H105.296V40.2864C105.296 38.4716 103.825 37 102.01 37H82.2913Z" fill="#555555"/>
<path fill-rule="evenodd" clip-rule="evenodd" d="M167.738 138.879C171.222 138.879 174.568 137.492 177.032 135.027C179.497 132.563 180.884 129.219 180.884 125.733V119.16C180.884 115.676 179.497 112.331 177.032 109.866C174.568 107.401 171.222 106.015 167.738 106.015H157.879V96.1554H167.738C169.553 96.1554 171.024 94.6839 171.024 92.869L177.597 40.2864C177.597 38.4716 176.126 37 174.311 37H154.592C152.778 37 151.306 38.4716 151.306 40.2864V53.4321H141.447V40.2864C141.447 38.4716 139.975 37 138.16 37H118.442C116.627 37 115.155 38.4716 115.155 40.2864V53.4321H105.296V40.2864C105.296 38.4716 103.825 37 102.01 37H82.2913C80.4764 37 79.0049 38.4716 79.0049 40.2864L85.5777 92.869C85.5777 94.6839 87.0493 96.1554 88.8641 96.1554H98.7234V106.015H88.8641C85.3797 106.015 82.0344 107.401 79.5698 109.866C77.1052 112.331 75.7185 115.676 75.7185 119.16V125.733C75.7185 129.218 77.1049 132.563 79.5698 135.027C82.0346 137.492 85.3798 138.879 88.8641 138.879H101.907C101.859 140.808 101.769 142.685 101.64 144.513C98.9295 182.906 79.0015 199.295 65.1787 206.297C59.5655 209.058 56 214.785 56 221.041V227.613C56 231.098 57.3865 234.443 59.8513 236.908C62.3161 239.372 65.6613 240.759 69.1456 240.759H187.456C190.941 240.759 194.286 239.373 196.751 236.908C199.215 234.443 200.602 231.099 200.602 227.613V221.041C200.602 214.785 197.037 209.057 191.423 206.297C177.601 199.296 157.673 182.907 154.962 144.513C154.833 142.685 154.743 140.808 154.695 138.879H167.738ZM84.976 42.6338L90.962 90.5216H104.357V111.649H88.8641C86.875 111.649 84.9625 112.441 83.5537 113.85C82.1444 115.259 81.3523 117.172 81.3523 119.16V125.733C81.3523 127.722 82.1444 129.635 83.5533 131.044C84.9627 132.453 86.8754 133.245 88.8641 133.245H107.684L107.539 139.02C106.982 161.204 101.143 177.302 93.2303 188.925C85.3373 200.518 75.6039 207.332 67.7245 211.323L67.6951 211.338L67.6654 211.353C63.9786 213.166 61.6338 216.932 61.6338 221.041V227.613C61.6338 229.603 62.4259 231.515 63.8348 232.924C65.2443 234.333 67.157 235.125 69.1456 235.125H187.456C189.446 235.125 191.358 234.333 192.767 232.924C194.176 231.515 194.968 229.603 194.968 227.613V221.041C194.968 216.931 192.623 213.165 188.938 211.353L188.908 211.338L188.878 211.323C180.998 207.332 171.265 200.519 163.372 188.926C155.459 177.303 149.62 161.204 149.063 139.02L148.918 133.245H167.738C169.727 133.245 171.64 132.453 173.048 131.044C174.458 129.634 175.25 127.723 175.25 125.733V119.16C175.25 117.171 174.458 115.259 173.049 113.85C171.639 112.441 169.727 111.649 167.738 111.649H152.245V90.5216H165.64L171.626 42.6338H156.94V59.0659H135.813V42.6338H120.789V59.0659H99.6623V42.6338H84.976Z" fill="black"/>
</svg>
