<svg width="256" height="256" viewBox="0 0 256 256" fill="none" xmlns="http://www.w3.org/2000/svg">
<path d="M181.525 206.206C183.328 206.206 185.091 206.397 186.797 206.751C186.81 206.755 186.829 206.762 186.853 206.771C186.87 206.777 186.895 206.786 186.924 206.797C186.973 206.814 187.036 206.837 187.1 206.858C187.205 206.893 187.343 206.935 187.505 206.973C188.988 207.323 190.376 207.739 191.665 208.281C191.681 208.29 191.7 208.3 191.719 208.311C191.785 208.347 191.876 208.394 191.988 208.441C195.075 209.803 197.837 211.735 200.167 214.122C204.757 218.841 207.597 225.238 207.612 232.293C207.61 233.165 206.901 233.872 206.029 233.872H50.9004C50.0272 233.872 49.3176 233.163 49.3176 232.29C49.3176 225.229 52.1559 218.833 56.746 214.122C59.0787 211.73 61.8579 209.792 64.9506 208.428C65.0252 208.395 65.0887 208.364 65.1388 208.337C65.1649 208.323 65.1888 208.31 65.21 208.298L65.2251 208.289C66.5164 207.745 67.9175 207.327 69.4028 206.973C69.6735 206.911 69.9108 206.827 70.0202 206.788L70.0401 206.78C70.0955 206.761 70.1269 206.75 70.1422 206.745C71.8397 206.394 73.5921 206.206 75.3849 206.206H181.525Z" fill="#DDDDDD"/>
<path d="M75.2997 193.05C75.3247 193.049 75.3498 193.048 75.3749 193.048H181.515C189.5 193.048 196.838 195.537 202.991 199.641L223.863 126.579C224.051 125.92 223.788 125.207 223.206 124.825L223.203 124.823C222.617 124.437 221.871 124.481 221.341 124.919L221.339 124.921L221.338 124.922L221.327 124.931L221.299 124.954L221.199 125.036C221.112 125.107 220.984 125.213 220.818 125.349C220.486 125.621 220.003 126.016 219.397 126.511C218.183 127.502 216.474 128.893 214.486 130.498C210.514 133.707 205.421 137.78 200.958 141.222C200.591 141.506 200.368 141.93 200.341 142.373C200.312 142.83 200.479 143.273 200.807 143.601L200.819 143.614C201.538 144.344 202.009 145.461 202.296 146.666C202.604 147.959 202.768 149.642 202.661 151.767C202.423 156.655 200.914 161.2 199.616 163.474C199.198 164.206 198.44 164.678 197.598 164.73C196.757 164.781 195.946 164.405 195.441 163.73C194.373 162.298 193.351 159.895 192.594 157.045C191.818 154.127 191.263 150.525 191.263 146.566C191.263 141.979 192.183 138.176 193.111 135.505C193.576 134.168 194.045 133.108 194.407 132.367C194.589 131.996 194.744 131.704 194.86 131.496C194.917 131.392 194.966 131.307 195.003 131.244C195.022 131.212 195.038 131.184 195.053 131.16C195.06 131.149 195.069 131.135 195.078 131.12C195.081 131.115 195.085 131.107 195.091 131.098L195.099 131.087C195.1 131.085 195.101 131.084 195.102 131.082C195.437 130.558 195.465 130.185 195.414 129.955C195.306 129.473 195.108 129.217 194.81 129.03L194.753 128.994C194.662 128.933 194.593 128.877 194.587 128.873V128.872C194.566 128.856 194.55 128.843 194.539 128.834L194.537 128.832C194.515 128.814 194.496 128.798 194.482 128.785C194.468 128.772 194.453 128.759 194.439 128.746C194.424 128.733 194.41 128.72 194.396 128.707C194.341 128.655 194.279 128.594 194.213 128.524C194.08 128.383 193.924 128.201 193.754 127.973C193.414 127.515 193.021 126.876 192.65 126.014C191.907 124.287 191.272 121.716 191.272 117.989C191.272 113.484 193.228 109.701 195.041 107.143C196.861 104.575 198.762 102.957 198.665 103.054C198.725 102.994 198.788 102.938 198.853 102.885C199.199 102.605 199.409 102.189 199.432 101.749C199.454 101.295 199.286 100.863 198.969 100.546L182.639 84.2158C182.023 83.5998 181.019 83.5997 180.402 84.2159L164.075 100.543L164.074 100.544C163.741 100.879 163.576 101.335 163.613 101.792C163.652 102.261 163.892 102.684 164.266 102.953L164.268 102.954C165.455 103.805 167.229 105.383 168.73 107.2C169.486 108.114 170.22 109.147 170.776 110.232C171.32 111.294 171.777 112.567 171.777 113.917C171.777 115.214 171.387 116.602 170.903 117.868C170.401 119.176 169.718 120.558 168.962 121.902C167.453 124.588 165.56 127.297 163.971 129.241C163.564 129.738 163.5 130.459 163.821 131.027C163.841 131.063 163.861 131.1 163.879 131.137C163.838 131.055 164.128 131.591 164.483 132.362C164.847 133.153 165.323 134.277 165.796 135.66C166.738 138.411 167.694 142.255 167.694 146.568C167.694 149.448 166.362 153.399 164.728 157.24C163.04 161.205 160.84 165.475 158.756 169.157C158.331 169.908 157.551 170.386 156.69 170.424C155.828 170.461 155.009 170.053 154.52 169.343C151.167 164.467 146.364 155.934 146.364 146.568C146.364 132.846 149.752 124.022 150.312 122.729L150.31 122.728C150.48 122.339 150.492 121.893 150.346 121.501C149.225 118.556 147.23 112.84 145.51 106.761C143.812 100.756 142.292 94.0966 142.292 89.4149C142.292 84.0848 144.268 79.249 146.146 75.832C147.973 72.5084 149.819 70.3285 150.061 70.0529C150.58 69.4647 150.589 68.582 150.096 67.9881L129.687 43.4967C129.138 42.8376 127.81 42.8305 127.248 43.4993L127.247 43.5008L106.84 67.989C106.336 68.5953 106.358 69.4743 106.869 70.0449C107.031 70.2256 108.924 72.4475 110.797 75.8639C112.671 79.2831 114.645 84.1169 114.645 89.4153C114.645 95.0057 112.575 103.088 110.618 109.546C109.623 112.829 108.627 115.789 107.875 117.939C107.499 119.015 107.183 119.89 106.959 120.504C106.847 120.811 106.757 121.053 106.694 121.221C106.623 121.413 106.601 121.471 106.602 121.469L106.589 121.503C106.447 121.882 106.455 122.327 106.626 122.721L106.641 122.757C106.646 122.767 106.65 122.777 106.654 122.787C106.633 122.735 106.726 122.959 106.836 123.244C106.952 123.546 107.111 123.978 107.299 124.533C107.674 125.643 108.163 127.247 108.647 129.296C109.617 133.395 110.572 139.279 110.572 146.56C110.572 155.877 105.771 164.435 102.407 169.32C101.918 170.03 101.098 170.438 100.237 170.399C99.3756 170.361 98.595 169.882 98.1711 169.131C96.092 165.45 93.8941 161.188 92.2076 157.228C90.5739 153.392 89.242 149.444 89.242 146.56C89.242 142.247 90.1984 138.401 91.1406 135.649C91.6139 134.266 92.0898 133.141 92.454 132.35C92.6364 131.954 92.7913 131.64 92.9047 131.418C92.9615 131.307 93.0078 131.218 93.0421 131.154C93.0711 131.1 93.0956 131.055 93.0967 131.053L93.1126 131.024C93.436 130.448 93.3741 129.732 92.9641 129.224C91.3713 127.286 89.4786 124.582 87.9703 121.899C87.2144 120.554 86.5303 119.171 86.0289 117.86C85.5436 116.591 85.155 115.201 85.155 113.901C85.155 112.56 85.6019 111.296 86.1411 110.236C86.6907 109.156 87.4185 108.128 88.1703 107.216C89.6647 105.403 91.4388 103.825 92.6589 102.939C93.0277 102.671 93.2708 102.244 93.312 101.775C93.3457 101.297 93.1732 100.849 92.8599 100.538L92.8528 100.531L76.5229 84.2011C75.9068 83.585 74.9023 83.585 74.2861 84.2011L57.9563 100.531C57.6459 100.841 57.479 101.271 57.5017 101.725C57.524 102.173 57.7317 102.589 58.0831 102.879C58.1012 102.894 58.1191 102.909 58.1368 102.925C58.1229 102.912 58.2719 103.039 58.4895 103.239C58.7067 103.439 59.0037 103.723 59.3534 104.083C60.0506 104.8 60.9701 105.835 61.8896 107.131C63.7045 109.691 65.6607 113.475 65.6607 117.976C65.6607 121.596 65.0728 124.114 64.3968 125.809C64.0595 126.655 63.7042 127.285 63.3995 127.736C63.2475 127.961 63.1091 128.14 62.9935 128.277C62.9357 128.346 62.8837 128.404 62.8387 128.452L62.8377 128.453C62.8155 128.477 62.7951 128.498 62.7765 128.517L62.7496 128.544L62.7373 128.556L62.7314 128.562L62.7285 128.564C62.7271 128.566 62.7257 128.567 60.9887 126.769L62.7257 128.567C62.6014 128.687 62.4649 128.794 62.3185 128.886C61.9567 129.113 61.7059 129.472 61.616 129.871C61.524 130.287 61.6026 130.721 61.8258 131.068C62.2037 131.668 65.6607 137.63 65.6607 146.545C65.6607 150.634 65.0681 154.335 64.2896 157.281C63.5317 160.149 62.5383 162.524 61.596 163.83C61.1041 164.512 60.3025 164.901 59.4626 164.865C58.6226 164.83 57.8568 164.374 57.4244 163.653C56.0836 161.417 54.5081 156.752 54.2625 151.744C54.1598 149.623 54.3242 147.942 54.63 146.649C54.9136 145.451 55.3809 144.326 56.1044 143.591L56.1181 143.577C56.444 143.251 56.6114 142.808 56.5827 142.35C56.5543 141.906 56.3311 141.482 55.9672 141.201L55.966 141.2C51.5066 137.758 46.4153 133.685 42.4435 130.476C40.4561 128.871 38.7462 127.48 37.5321 126.49L36.1101 125.328L35.7303 125.017L35.6372 124.941L35.6347 124.939L35.6221 124.929C35.6094 124.919 35.5967 124.909 35.5842 124.898C35.0616 124.465 34.3123 124.416 33.7142 124.805C33.1329 125.188 32.8726 125.9 33.0601 126.555L33.0605 126.557L53.9324 199.619C60.0452 195.547 67.3513 193.065 75.2997 193.05Z" fill="#DDDDDD"/>
<path d="M106.641 122.757C106.646 122.767 106.65 122.777 106.654 122.787C106.633 122.735 106.726 122.959 106.836 123.244C106.952 123.546 107.111 123.978 107.299 124.533C107.674 125.643 108.163 127.247 108.647 129.296C109.617 133.395 110.572 139.279 110.572 146.56C110.572 155.877 105.771 164.435 102.407 169.32C101.918 170.03 101.098 170.438 100.237 170.399C99.3756 170.361 98.595 169.882 98.1711 169.131C96.092 165.45 93.8941 161.188 92.2076 157.228C90.5739 153.392 89.242 149.444 89.242 146.56C89.242 142.247 90.1984 138.401 91.1406 135.649C91.6139 134.266 92.0898 133.141 92.454 132.35C92.6364 131.954 92.7913 131.64 92.9047 131.418C92.9615 131.307 93.0078 131.218 93.0421 131.154C93.0711 131.1 93.0956 131.055 93.0967 131.053M106.641 122.757C106.636 122.745 106.631 122.733 106.626 122.721M106.641 122.757L106.626 122.721M106.626 122.721C106.455 122.327 106.447 121.882 106.589 121.503L106.602 121.469C106.601 121.471 106.623 121.413 106.694 121.221C106.757 121.053 106.847 120.811 106.959 120.504C107.183 119.89 107.499 119.015 107.875 117.939C108.627 115.789 109.623 112.829 110.618 109.546C112.575 103.088 114.645 95.0057 114.645 89.4153C114.645 84.1169 112.671 79.2831 110.797 75.8639C108.924 72.4475 107.031 70.2256 106.869 70.0449C106.358 69.4743 106.336 68.5953 106.84 67.989L127.247 43.5008L127.248 43.4993C127.81 42.8305 129.138 42.8376 129.687 43.4967L150.096 67.9881C150.589 68.582 150.58 69.4647 150.061 70.0529C149.819 70.3285 147.973 72.5084 146.146 75.832C144.268 79.249 142.292 84.0848 142.292 89.4149C142.292 94.0966 143.812 100.756 145.51 106.761C147.23 112.84 149.225 118.556 150.346 121.501C150.492 121.893 150.48 122.339 150.31 122.728L150.312 122.729C149.752 124.022 146.364 132.846 146.364 146.568C146.364 155.934 151.167 164.467 154.52 169.343C155.009 170.053 155.828 170.461 156.69 170.424C157.551 170.386 158.331 169.908 158.756 169.157C160.84 165.475 163.04 161.205 164.728 157.24C166.362 153.399 167.694 149.448 167.694 146.568C167.694 142.255 166.738 138.411 165.796 135.66C165.323 134.277 164.847 133.153 164.483 132.362C164.128 131.591 163.838 131.055 163.879 131.137C163.861 131.1 163.841 131.063 163.821 131.027C163.5 130.459 163.564 129.738 163.971 129.241C165.56 127.297 167.453 124.588 168.962 121.902C169.718 120.558 170.401 119.176 170.903 117.868C171.387 116.602 171.777 115.214 171.777 113.917C171.777 112.567 171.32 111.294 170.776 110.232C170.22 109.147 169.486 108.114 168.73 107.2C167.229 105.383 165.455 103.805 164.268 102.954L164.266 102.953C163.892 102.684 163.652 102.261 163.613 101.792C163.576 101.335 163.741 100.879 164.074 100.544L164.075 100.543L180.402 84.2159C181.019 83.5997 182.023 83.5998 182.639 84.2158L198.969 100.546C199.286 100.863 199.454 101.295 199.432 101.749C199.409 102.189 199.199 102.605 198.853 102.885C198.788 102.938 198.725 102.994 198.665 103.054C198.762 102.957 196.861 104.575 195.041 107.143C193.228 109.701 191.272 113.484 191.272 117.989C191.272 121.716 191.907 124.287 192.65 126.014C193.021 126.876 193.414 127.515 193.754 127.973C193.924 128.201 194.08 128.383 194.213 128.524C194.279 128.594 194.341 128.655 194.396 128.707C194.41 128.72 194.424 128.733 194.439 128.746C194.453 128.759 194.468 128.772 194.482 128.785C194.496 128.798 194.515 128.814 194.537 128.832M194.537 128.832L194.539 128.834M194.537 128.832L194.539 128.834M194.753 128.994C194.662 128.933 194.593 128.877 194.587 128.873V128.872C194.566 128.856 194.55 128.843 194.539 128.834M194.753 128.994C194.772 129.006 194.791 129.018 194.81 129.03M194.753 128.994L194.81 129.03M194.81 129.03C195.108 129.217 195.306 129.473 195.414 129.955C195.465 130.185 195.437 130.558 195.102 131.082C195.101 131.084 195.1 131.085 195.099 131.087M195.099 131.087L195.091 131.098M195.099 131.087C195.096 131.091 195.094 131.095 195.091 131.098M35.6221 124.929C35.6094 124.919 35.5967 124.909 35.5842 124.898C35.0616 124.465 34.3123 124.416 33.7142 124.805C33.1329 125.188 32.8726 125.9 33.0601 126.555L33.0605 126.557L53.9324 199.619C60.0452 195.547 67.3513 193.065 75.2997 193.05C75.3247 193.049 75.3498 193.048 75.3749 193.048H181.515C189.5 193.048 196.838 195.537 202.991 199.641L223.863 126.579C224.051 125.92 223.788 125.207 223.206 124.825L223.203 124.823C222.617 124.437 221.871 124.481 221.341 124.919L221.339 124.921L221.338 124.922L221.327 124.931L221.299 124.954L221.199 125.036C221.112 125.107 220.984 125.213 220.818 125.349C220.486 125.621 220.003 126.016 219.397 126.511C218.183 127.502 216.474 128.893 214.486 130.498C210.514 133.707 205.421 137.78 200.958 141.222C200.591 141.506 200.368 141.93 200.341 142.373C200.312 142.83 200.479 143.273 200.807 143.601L200.819 143.614C201.538 144.344 202.009 145.461 202.296 146.666C202.604 147.959 202.768 149.642 202.661 151.767C202.423 156.655 200.914 161.2 199.616 163.474C199.198 164.206 198.44 164.678 197.598 164.73C196.757 164.781 195.946 164.405 195.441 163.73C194.373 162.298 193.351 159.895 192.594 157.045C191.818 154.127 191.263 150.525 191.263 146.566C191.263 141.979 192.183 138.176 193.111 135.505C193.576 134.168 194.045 133.108 194.407 132.367C194.589 131.996 194.744 131.704 194.86 131.496C194.917 131.392 194.966 131.307 195.003 131.244C195.022 131.212 195.038 131.184 195.053 131.16C195.06 131.149 195.069 131.135 195.078 131.12C195.081 131.115 195.085 131.107 195.091 131.098M35.6221 124.929C35.6271 124.933 35.6322 124.937 35.6372 124.941M35.6221 124.929L35.6347 124.939M35.6253 124.932L35.6347 124.939M35.6253 124.932C35.6253 124.932 35.6297 124.935 35.6347 124.939M35.6253 124.932C35.6269 124.933 35.6312 124.936 35.6372 124.941M35.6347 124.939L35.6372 124.941M36.1101 125.328L35.7303 125.017L35.6372 124.941M36.1101 125.328C36.4418 125.599 36.925 125.994 37.5321 126.49M36.1101 125.328L37.5321 126.49M37.5321 126.49C38.7462 127.48 40.4561 128.871 42.4435 130.476C46.4153 133.685 51.5066 137.758 55.966 141.2L55.9672 141.201C56.3311 141.482 56.5543 141.906 56.5827 142.35C56.6114 142.808 56.444 143.251 56.1181 143.577L56.1044 143.591C55.3809 144.326 54.9136 145.451 54.63 146.649C54.3242 147.942 54.1598 149.623 54.2625 151.744C54.5081 156.752 56.0836 161.417 57.4244 163.653C57.8568 164.374 58.6226 164.83 59.4626 164.865C60.3025 164.901 61.1041 164.512 61.596 163.83C62.5383 162.524 63.5317 160.149 64.2896 157.281C65.0681 154.335 65.6607 150.634 65.6607 146.545C65.6607 137.63 62.2037 131.668 61.8258 131.068C61.6026 130.721 61.524 130.287 61.616 129.871C61.7059 129.472 61.9567 129.113 62.3185 128.886C62.4649 128.794 62.6014 128.687 62.7257 128.567L60.9887 126.769C62.7257 128.567 62.7271 128.566 62.7285 128.564L62.7314 128.562L62.7373 128.556L62.7496 128.544L62.7765 128.517C62.7951 128.498 62.8155 128.477 62.8377 128.453L62.8387 128.452C62.8837 128.404 62.9357 128.346 62.9935 128.277C63.1091 128.14 63.2475 127.961 63.3995 127.736C63.7042 127.285 64.0595 126.655 64.3968 125.809C65.0728 124.114 65.6607 121.596 65.6607 117.976C65.6607 113.475 63.7045 109.691 61.8896 107.131C60.9701 105.835 60.0506 104.8 59.3534 104.083C59.0037 103.723 58.7067 103.439 58.4895 103.239C58.2719 103.039 58.1229 102.912 58.1368 102.925C58.1191 102.909 58.1012 102.894 58.0831 102.879C57.7317 102.589 57.524 102.173 57.5017 101.725C57.479 101.271 57.6459 100.841 57.9563 100.531L74.2861 84.2011C74.9023 83.585 75.9068 83.585 76.5229 84.2011L92.8528 100.531L92.8599 100.538C93.1732 100.849 93.3457 101.297 93.312 101.775C93.2708 102.244 93.0277 102.671 92.6589 102.939C91.4388 103.825 89.6647 105.403 88.1703 107.216C87.4185 108.128 86.6907 109.156 86.1411 110.236C85.6019 111.296 85.155 112.56 85.155 113.901C85.155 115.201 85.5436 116.591 86.0289 117.86C86.5303 119.171 87.2144 120.554 87.9703 121.899C89.4786 124.582 91.3713 127.286 92.9641 129.224C93.3741 129.732 93.436 130.448 93.1126 131.024L93.0967 131.053M65.2251 208.289C66.5164 207.745 67.9175 207.327 69.4028 206.973C69.6735 206.911 69.9108 206.827 70.0202 206.788L70.0401 206.78C70.0955 206.761 70.1269 206.75 70.1422 206.745C71.8397 206.394 73.5921 206.206 75.3849 206.206H181.525C183.328 206.206 185.091 206.397 186.797 206.751C186.81 206.755 186.829 206.762 186.853 206.771C186.87 206.777 186.895 206.786 186.924 206.797C186.973 206.814 187.036 206.837 187.1 206.858C187.205 206.893 187.343 206.935 187.505 206.973C188.988 207.323 190.376 207.739 191.665 208.281C191.681 208.29 191.7 208.3 191.719 208.311C191.785 208.347 191.876 208.394 191.988 208.441C195.075 209.803 197.837 211.735 200.167 214.122C204.757 218.841 207.597 225.238 207.612 232.293C207.61 233.165 206.901 233.872 206.029 233.872H50.9004C50.0272 233.872 49.3176 233.163 49.3176 232.29C49.3176 225.229 52.1559 218.833 56.746 214.122C59.0787 211.73 61.8579 209.792 64.9506 208.428C65.0252 208.395 65.0887 208.364 65.1388 208.337C65.1649 208.323 65.1888 208.31 65.21 208.298M65.2251 208.289L65.21 208.298M65.2251 208.289C65.2202 208.292 65.2152 208.295 65.21 208.298M93.0967 131.053L93.0957 131.055L93.0967 131.053ZM35.6372 124.941C35.641 124.944 35.6453 124.947 35.6501 124.951C35.658 124.957 35.6803 124.974 35.6946 124.985C35.7268 125.008 35.898 125.12 36.0422 125.2C35.8992 125.127 35.7636 125.04 35.6372 124.941Z" stroke="#222831" stroke-width="5" stroke-linejoin="round"/>
</svg>
