<svg width="180" height="180" viewBox="0 0 180 180" fill="none" xmlns="http://www.w3.org/2000/svg">
<path d="M121.496 143.128V124.416C128.278 119.935 133.486 114.545 137.12 108.247C140.874 101.586 142.751 94.7436 142.751 87.7191C142.751 77.3032 138.149 67.0691 128.944 57.0173C127.855 55.9271 126.34 54.2315 124.402 51.9303C122.465 49.7503 120.83 47.9336 119.497 46.4803C117.56 44.4214 114.472 41.6357 110.233 38.1235C108.174 36.428 106.841 35.3379 106.236 34.8535C100.059 29.2823 94.185 25.1644 88.614 22.5C82.4372 25.4067 75.9578 29.8273 69.1751 35.7618C68.8123 36.1252 68.2673 36.6096 67.5405 37.2152C61.9689 41.9385 57.9724 45.572 55.5502 48.1153C54.9447 48.7208 54.0969 49.6292 53.0068 50.8403C50.8268 53.2626 49.1918 55.0187 48.1018 56.1087C38.7762 66.1613 34.1133 76.698 34.1133 87.7191C34.1133 94.6226 36.0511 101.465 39.9268 108.247C43.6812 114.667 48.8285 120.056 55.3686 124.416V142.765H80.2569C77.5929 144.097 74.0807 146.216 69.7202 149.123L69.3568 149.668C65.1178 152.332 62.0297 154.21 60.0919 155.3C57.6697 156.511 55.5503 157.116 53.7335 157.116C51.1902 157.116 48.7074 155.784 46.2851 153.12C43.984 149.85 41.8646 145.732 39.9268 140.766L33.75 148.76C36.5356 155.058 39.2606 159.72 41.9251 162.748C45.3162 166.382 49.2524 168.198 53.7335 168.198C56.6404 168.198 59.6683 167.411 62.8172 165.837C66.3294 164.383 69.66 162.506 72.8089 160.205C75.9578 157.904 78.9857 155.905 81.8921 154.21C84.0724 152.877 86.3128 152.211 88.614 152.211C90.6728 152.211 92.7315 152.817 94.7908 154.028C96.4862 154.876 99.5141 156.753 103.874 159.66L104.419 160.205C107.447 162.506 110.657 164.383 114.047 165.837C117.196 167.411 120.103 168.198 122.768 168.198C127.612 168.198 131.669 166.382 134.939 162.748C137.967 159.357 140.571 154.694 142.751 148.76L137.12 140.766C134.939 146.338 132.76 150.455 130.579 153.12C128.4 155.784 125.795 157.116 122.768 157.116C121.193 157.116 119.195 156.511 116.773 155.3C114.835 154.331 111.868 152.454 107.871 149.668L107.144 149.123C104.358 147.064 100.968 145.066 96.9705 143.128H121.496ZM63.3617 136.043V126.233H113.684V136.043H63.3617ZM135.121 87.7191C135.121 94.0168 133.365 100.012 129.853 105.704C126.34 111.518 121.678 116.12 115.864 119.511H61.5454C55.7319 116.241 50.948 111.639 47.1935 105.704C43.6812 100.012 41.9251 94.0168 41.9251 87.7191C41.9251 77.9091 45.8612 68.886 53.7335 60.6504C54.4602 59.9237 55.4897 58.7734 56.8221 57.1989C58.7599 55.0187 60.2736 53.3837 61.3637 52.2937L62.9989 50.6586C68.5699 45.3297 73.0507 41.3935 76.4421 38.8502C81.2869 34.9746 85.3442 32.189 88.614 30.4934C90.6728 31.5834 93.7007 33.7029 97.6973 36.8518L98.2423 37.2152C103.45 41.0907 108.476 45.4508 113.321 50.2953C114.532 51.5064 116.228 53.4443 118.407 56.1087C120.588 58.6519 122.162 60.408 123.131 61.3772C131.124 69.7337 135.121 78.5143 135.121 87.7191ZM84.6174 55.927V76.6373H65.1786V84.9937H84.6174V106.068H92.4289V84.9937H111.686V76.6373H92.4289V55.927H84.6174Z" fill="#0C2233"/>
<path d="M63.3623 136.043V126.233H113.685V136.043H63.3623ZM135.122 87.7191C135.122 94.0168 133.365 100.012 129.853 105.704C126.341 111.518 121.678 116.12 115.864 119.511H61.5454C55.7322 116.241 50.9483 111.639 47.1938 105.704C43.6815 100.012 41.9254 94.0168 41.9254 87.7191C41.9254 77.9091 45.8615 68.886 53.7338 60.6505C54.4605 59.9237 55.49 58.7734 56.8221 57.199C58.7599 55.0189 60.2741 53.3839 61.3637 52.2938L62.9989 50.6588C68.5699 45.3299 73.0513 41.3937 76.4426 38.8504C81.2869 34.9747 85.3442 32.1892 88.614 30.4936C90.6733 31.5836 93.7007 33.703 97.6978 36.852L98.2429 37.2154C103.451 41.0909 108.476 45.451 113.321 50.2955C114.532 51.5066 116.228 53.4444 118.408 56.1089C120.588 58.6525 122.163 60.4086 123.131 61.3772C131.125 69.7343 135.122 78.5149 135.122 87.7191ZM84.6174 55.9272V76.6373H65.1791V84.9943H84.6174V106.068H92.4294V84.9943H111.686V76.6373H92.4294V55.9272H84.6174Z" fill="#FFB877"/>
</svg>
