<svg width="180" height="180" viewBox="0 0 180 180" fill="none" xmlns="http://www.w3.org/2000/svg">
<path d="M86.9856 50.847C86.1379 51.0893 85.4111 51.4526 84.8059 51.937C84.321 52.3004 83.8974 52.6032 83.5341 52.8454C82.2015 53.4509 81.1119 54.4804 80.2637 55.9338C78.9317 57.6292 78.0233 59.1435 77.5389 60.4755C77.0546 61.6866 76.8122 63.3819 76.8122 65.5622V68.832C76.9331 69.1954 77.1148 69.9221 77.3573 71.0123C77.4782 71.6181 77.5389 71.9814 77.5389 72.1024C74.6319 68.9535 71.1197 66.4706 67.0022 64.6538C62.6422 62.9584 58.5849 62.1107 54.8303 62.1107C51.5603 62.1107 48.1691 62.8976 44.6568 64.4721C41.2657 66.2889 38.4195 68.6503 36.1184 71.5573C33.9384 74.1004 31.94 77.3707 30.1233 81.3673C28.7911 85.7272 28.125 89.8453 28.125 93.7209C28.125 99.171 29.4572 104.197 32.1217 108.799C34.6651 112.675 38.2379 117.217 42.8402 122.425C44.0513 123.878 46.3524 125.876 49.7436 128.419C52.4081 130.479 53.8009 131.75 53.922 132.235V168.75H128.406V132.235C128.648 131.75 129.981 130.72 132.403 129.146C134.462 127.693 136.097 126.482 137.308 125.513C138.64 124.544 139.73 123.514 140.578 122.425C144.696 118.064 148.329 113.523 151.478 108.799C154.021 104.439 155.293 99.4129 155.293 93.7209C155.293 89.361 154.627 85.2429 153.295 81.3673C151.72 77.4917 149.783 74.2219 147.481 71.5573C145.18 68.7718 142.395 66.4099 139.125 64.4721C135.613 62.8976 132.221 62.1107 128.951 62.1107C124.954 62.1107 120.897 62.9584 116.779 64.6538C112.661 66.4706 109.088 68.9535 106.061 72.1024C106.182 71.739 106.243 71.1939 106.243 70.4672C106.364 69.7404 106.424 69.1954 106.424 68.832C106.545 68.3477 106.666 67.7424 106.788 67.0157C106.909 66.2889 106.969 65.8046 106.969 65.5622C106.969 63.5034 106.666 61.8075 106.061 60.4755C105.576 59.1435 104.608 57.5083 103.154 55.5704C102.912 54.9649 102.246 54.2987 101.156 53.5721C100.671 53.2087 100.369 52.9665 100.248 52.8454C100.005 52.7243 99.8843 52.6637 99.8843 52.6637C99.0366 52.1793 98.37 51.8765 97.8857 51.7554C97.5223 51.5131 96.7956 51.2104 95.706 50.847V38.3119H117.688V32.1352H95.706V16.875H86.9856V32.1352H65.0036V38.3119H86.9856V50.847Z" fill="#0C2233"/>
<path fill-rule="evenodd" clip-rule="evenodd" d="M91.7089 96.6274C91.2246 94.2052 89.9528 90.693 87.894 86.0906C86.3196 81.7307 84.9876 77.976 83.8975 74.8271L78.8108 83.3659C82.323 88.3311 84.8059 93.4183 86.2588 98.6259C86.7437 99.9579 87.1071 102.077 87.349 104.984C87.5914 107.77 87.7731 110.98 87.894 114.613C88.1365 118.125 88.2574 121.335 88.2574 124.241C88.3783 127.148 88.4391 129.691 88.4391 131.871H62.4606L61.0071 138.956H120.958L118.596 131.871H94.6159C94.6159 130.418 94.6766 127.996 94.7976 124.604C94.9185 121.213 95.1002 117.883 95.3426 114.613C95.5845 111.221 95.8877 108.073 96.2511 105.166C96.6145 102.138 96.9773 99.9579 97.3406 98.6259C98.7941 93.5392 101.216 88.4526 104.608 83.3659L99.8843 75.1905C99.4 76.4016 98.7941 78.0367 98.0674 80.0955C97.8255 80.8222 97.038 83.0025 95.706 86.6357C94.1316 90.1479 92.799 93.4785 91.7089 96.6274Z" fill="#0A91AB"/>
</svg>
