<svg width="180" height="180" viewBox="0 0 180 180" fill="none" xmlns="http://www.w3.org/2000/svg">
<path d="M86.9856 50.847C86.1379 51.0893 85.4111 51.4526 84.8059 51.937C84.321 52.3004 83.8974 52.6032 83.5341 52.8454C82.2015 53.4509 81.1119 54.4804 80.2637 55.9338C78.9317 57.6292 78.0233 59.1435 77.5389 60.4755C77.0546 61.6866 76.8122 63.3819 76.8122 65.5622V68.832C76.9331 69.1954 77.1148 69.9221 77.3573 71.0123C77.4782 71.6181 77.5389 71.9814 77.5389 72.1024C74.6319 68.9535 71.1197 66.4706 67.0022 64.6538C62.6422 62.9584 58.5849 62.1107 54.8303 62.1107C51.5603 62.1107 48.1691 62.8976 44.6568 64.4721C41.2657 66.2889 38.4195 68.6503 36.1184 71.5573C33.9384 74.1004 31.94 77.3707 30.1233 81.3673C28.7911 85.7272 28.125 89.8453 28.125 93.7209C28.125 99.171 29.4572 104.197 32.1217 108.799C34.6651 112.675 38.2379 117.217 42.8402 122.425C44.0513 123.878 46.3524 125.876 49.7436 128.419C52.4081 130.479 53.8009 131.75 53.922 132.235V168.75H128.406V132.235C128.648 131.75 129.981 130.72 132.403 129.146C134.462 127.693 136.097 126.482 137.308 125.513C138.64 124.544 139.73 123.514 140.578 122.425C144.696 118.064 148.329 113.523 151.478 108.799C154.021 104.439 155.293 99.4129 155.293 93.7209C155.293 89.361 154.627 85.2429 153.295 81.3673C151.72 77.4917 149.783 74.2219 147.481 71.5573C145.18 68.7718 142.395 66.4099 139.125 64.4721C135.613 62.8976 132.221 62.1107 128.951 62.1107C124.954 62.1107 120.897 62.9584 116.779 64.6538C112.661 66.4706 109.088 68.9535 106.061 72.1024C106.182 71.739 106.243 71.1939 106.243 70.4672C106.364 69.7404 106.424 69.1954 106.424 68.832C106.545 68.3477 106.666 67.7424 106.788 67.0157C106.909 66.2889 106.969 65.8046 106.969 65.5622C106.969 63.5034 106.666 61.8075 106.061 60.4755C105.576 59.1435 104.608 57.5083 103.154 55.5704C102.912 54.9649 102.246 54.2987 101.156 53.5721C100.671 53.2087 100.369 52.9665 100.248 52.8454C100.005 52.7243 99.8843 52.6637 99.8843 52.6637C99.0366 52.1793 98.37 51.8765 97.8857 51.7554C97.5223 51.5131 96.7956 51.2104 95.706 50.847V38.3119H117.688V32.1352H95.706V16.875H86.9856V32.1352H65.0036V38.3119H86.9856V50.847ZM91.7089 96.6274C91.2246 94.2052 89.9527 90.693 87.894 86.0906C86.3196 81.7307 84.9876 77.976 83.8974 74.8271C82.8073 71.9207 82.2623 68.832 82.2623 65.5622C82.2623 63.8668 82.3832 62.6557 82.6256 61.929C82.8681 61.2022 83.4733 60.3546 84.4425 59.3854C85.1687 58.0534 86.3196 57.2057 87.894 56.8423C89.3475 56.2366 90.6193 55.9338 91.7089 55.9338C93.0414 55.9338 94.4342 56.2366 95.8877 56.8423C97.0987 57.5691 97.9464 58.2952 98.4308 59.022C100.248 61.2022 101.156 63.3819 101.156 65.5622C101.156 68.9535 100.732 72.1626 99.8843 75.1905C99.3999 76.4016 98.7941 78.0367 98.0674 80.0955C97.8249 80.8222 97.038 83.0025 95.706 86.6357C94.1316 90.1479 92.799 93.4785 91.7089 96.6274ZM88.4391 131.871H62.4606C62.2181 131.508 61.3704 130.66 59.9169 129.328C58.4634 127.996 56.4654 126.119 53.922 123.696C53.0742 122.969 51.8025 121.819 50.1069 120.245C48.4113 118.67 47.2607 117.58 46.6552 116.975C42.5374 112.857 39.449 109.163 37.3901 105.893C35.089 102.259 33.9384 98.2018 33.9384 93.7209C33.9384 87.1808 35.9973 81.3673 40.1151 76.2806C44.3541 71.4364 49.2591 69.0137 54.8303 69.0137C59.3117 69.0137 63.6716 70.2253 67.9106 72.6474C72.513 75.4329 76.1462 79.0059 78.8108 83.3659C82.323 88.3316 84.8059 93.4183 86.2588 98.6259C86.7437 99.9579 87.1071 102.077 87.3489 104.984C87.5914 107.77 87.7731 110.98 87.894 114.613C88.1364 118.125 88.2574 121.335 88.2574 124.241C88.3783 127.148 88.4391 129.691 88.4391 131.871ZM118.596 131.871H94.6159C94.6159 130.418 94.6761 127.996 94.7976 124.604C94.9185 121.213 95.1002 117.883 95.3426 114.613C95.5845 111.221 95.8877 108.073 96.2505 105.166C96.6139 102.138 96.9773 99.9579 97.3406 98.6259C98.7941 93.5393 101.216 88.4526 104.608 83.3659C107.756 78.7635 111.45 75.1905 115.689 72.6474C119.928 70.2253 124.349 69.0137 128.951 69.0137C134.522 69.0137 139.367 71.4364 143.485 76.2806C146.997 80.6406 148.753 86.454 148.753 93.7209C148.753 99.171 147.905 103.228 146.209 105.893C143.545 109.768 140.457 113.462 136.945 116.975C136.46 117.58 135.552 118.428 134.219 119.518C132.887 120.487 130.404 122.364 126.771 125.15C124.591 126.845 122.714 128.298 121.139 129.509C119.686 130.72 118.838 131.508 118.596 131.871ZM61.0071 162.573V138.957H120.958V162.573H61.0071Z" fill="#0C2233"/>
<path d="M91.7089 96.6273C91.2246 94.2052 89.9527 90.693 87.894 86.0906C86.3196 81.7307 84.9876 77.976 83.8974 74.8271C82.8073 71.9207 82.2622 68.832 82.2622 65.5622C82.2622 63.8662 82.3832 62.6552 82.6256 61.9284C82.8681 61.2022 83.4733 60.354 84.4425 59.3853C85.1692 58.0533 86.3196 57.2051 87.894 56.8417C89.3475 56.2364 90.6193 55.9336 91.7089 55.9336C93.0414 55.9336 94.4342 56.2364 95.8877 56.8417C97.0987 57.5685 97.9464 58.2952 98.4307 59.022C100.248 61.2022 101.156 63.3819 101.156 65.5622C101.156 68.9535 100.732 72.1625 99.8842 75.1905C99.3999 76.4015 98.7941 78.0367 98.0674 80.0955C97.8255 80.8222 97.038 83.0025 95.706 86.6357C94.1316 90.1479 92.799 93.4785 91.7089 96.6273ZM88.4391 131.871H62.4606C62.2181 131.508 61.3704 130.66 59.9169 129.328C58.464 127.996 56.4654 126.118 53.922 123.696C53.0742 122.969 51.8025 121.819 50.107 120.244C48.4114 118.67 47.2608 117.58 46.6553 116.974C42.5374 112.857 39.4491 109.163 37.3902 105.892C35.089 102.259 33.9385 98.2018 33.9385 93.7209C33.9385 87.1807 35.9973 81.3673 40.1152 76.2806C44.3541 71.4358 49.2592 69.0137 54.8303 69.0137C59.3117 69.0137 63.6716 70.2247 67.9106 72.6468C72.513 75.4329 76.1462 79.0053 78.8107 83.3658C82.323 88.331 84.8059 93.4177 86.2588 98.6259C86.7437 99.9579 87.1071 102.077 87.3489 104.984C87.5914 107.77 87.7731 110.979 87.894 114.613C88.1364 118.125 88.2574 121.335 88.2574 124.241C88.3783 127.147 88.4391 129.691 88.4391 131.871ZM118.596 131.871H94.6159C94.6159 130.418 94.6766 127.996 94.7975 124.604C94.9185 121.213 95.1002 117.883 95.3426 114.613C95.5845 111.221 95.8877 108.073 96.251 105.166C96.6144 102.138 96.9772 99.9579 97.3406 98.6259C98.7941 93.5392 101.216 88.4525 104.608 83.3658C107.756 78.7635 111.45 75.1905 115.689 72.6468C119.928 70.2247 124.349 69.0137 128.951 69.0137C134.522 69.0137 139.367 71.4358 143.485 76.2806C146.997 80.6405 148.753 86.454 148.753 93.7209C148.753 99.171 147.905 103.228 146.209 105.892C143.545 109.768 140.457 113.462 136.945 116.974C136.46 117.58 135.552 118.428 134.22 119.518C132.887 120.486 130.404 122.364 126.771 125.149C124.591 126.845 122.714 128.298 121.139 129.509C119.686 130.72 118.838 131.508 118.596 131.871ZM61.0071 162.573V138.956H120.958V162.573H61.0071Z" fill="#FFB877"/>
</svg>
