<svg width="180" height="180" viewBox="0 0 180 180" fill="none" xmlns="http://www.w3.org/2000/svg">
<path fill-rule="evenodd" clip-rule="evenodd" d="M136.183 30.8376C93.1104 159.898 86.4549 160.137 48.7539 31.4487C48.5226 83.8926 55.4967 120.783 65.6037 142.149H114.576C125.653 120.683 134.232 83.565 136.183 30.8376V30.8376Z" fill="url(#paint0_linear_1_119)" stroke="black" stroke-width="3.2913" stroke-linecap="round" stroke-linejoin="round"/>
<path fill-rule="evenodd" clip-rule="evenodd" d="M92.2932 22.0329C76.662 106.733 84.3309 197.517 18.126 60.3603C20.3922 102.294 30.2265 132.006 47.6658 149.351H130.376C148.145 132.222 158.915 102.971 163.039 61.4655C99.8154 198.652 105.304 106.811 92.2932 22.0329V22.0329Z" fill="url(#paint1_linear_1_119)" stroke="black" stroke-width="3.2913" stroke-linecap="round" stroke-linejoin="round"/>
<path fill-rule="evenodd" clip-rule="evenodd" d="M42.5825 155.795H134.469V169.166H42.5825V155.795Z" fill="url(#paint2_linear_1_119)" stroke="black" stroke-width="3.2913" stroke-linecap="round" stroke-linejoin="round"/>
<defs>
<linearGradient id="paint0_linear_1_119" x1="58.7601" y1="59.0643" x2="96.0003" y2="120.779" gradientUnits="userSpaceOnUse">
<stop stop-color="#EDE3DE"/>
<stop offset="1" stop-color="#D0B090"/>
</linearGradient>
<linearGradient id="paint1_linear_1_119" x1="34.3089" y1="49.3488" x2="147.885" y2="153.578" gradientUnits="userSpaceOnUse">
<stop stop-color="#EDE3DE"/>
<stop offset="1" stop-color="#D0B090"/>
</linearGradient>
<linearGradient id="paint2_linear_1_119" x1="40.9373" y1="162.48" x2="136.114" y2="162.48" gradientUnits="userSpaceOnUse">
<stop stop-color="#EDE3DE"/>
<stop offset="1" stop-color="#D0B090"/>
</linearGradient>
</defs>
</svg>
