<svg width="32" height="32" viewBox="0 0 32 32" fill="none" xmlns="http://www.w3.org/2000/svg">
<path d="M24.6498 28.6988H7.75209L11.8634 19.904L4 6.26611C6.27077 6.97572 8.41292 8.0224 10.4264 9.40615C11.2691 10.0093 12.0098 10.6036 12.6484 11.1891C13.5709 9.31745 14.7595 7.58776 16.2142 6C17.6512 7.61437 18.8354 9.34406 19.7668 11.1891C20.4764 10.5504 21.2215 9.9561 22.002 9.40615C23.989 8.0224 26.1267 6.97572 28.4152 6.26611L20.5518 19.904L24.6498 28.6988ZM17.6512 15.5266C17.6512 16.5289 18.0814 17.0301 18.9418 17.0301C19.7934 17.0301 20.2191 16.5289 20.2191 15.5266C20.2191 14.5242 19.7934 14.0231 18.9418 14.0231C18.0814 14.0231 17.6512 14.5242 17.6512 15.5266ZM12.1961 15.5266C12.1961 16.5289 12.6263 17.0301 13.4867 17.0301C14.3471 17.0301 14.7773 16.5289 14.7773 15.5266C14.7773 14.5242 14.3471 14.0231 13.4867 14.0231C12.6263 14.0231 12.1961 14.5242 12.1961 15.5266ZM16.7065 20.2899V14.9145C16.7065 14.5863 16.5424 14.4222 16.2142 14.4222C15.886 14.4222 15.7219 14.5863 15.7219 14.9145V20.2899L14.9103 19.6246C14.662 19.4295 14.4402 19.4295 14.2451 19.6246C14.0233 19.8464 14.0233 20.0681 14.2451 20.2899L15.855 21.8998C15.9437 22.024 16.0634 22.0861 16.2142 22.0861C16.3473 22.0861 16.4715 22.024 16.5868 21.8998L18.1967 20.2899C18.4185 20.0681 18.4185 19.8464 18.1967 19.6246C17.9927 19.4295 17.771 19.4295 17.5315 19.6246L16.7065 20.2899ZM20.3788 21.5539L19.8732 20.5161L16.2142 26.57L12.5553 20.5161L12.0364 21.5406L15.4425 27.1687C15.682 27.6033 15.9393 27.8207 16.2142 27.8207C16.4892 27.8207 16.7465 27.6033 16.9859 27.1687L20.3788 21.5539ZM23.3858 12.9454C21.0441 12.218 18.6535 11.8543 16.2142 11.8543C13.7306 11.8543 11.3445 12.218 9.05601 12.9454L9.56161 13.7836C11.7348 13.1272 13.9523 12.799 16.2142 12.799C18.5028 12.799 20.7292 13.1316 22.8935 13.7969L23.3858 12.9454Z" fill="black"/>
<path d="M17.6512 15.5266C17.6512 16.5289 18.0814 17.0301 18.9419 17.0301C19.7934 17.0301 20.2192 16.5289 20.2192 15.5266C20.2192 14.5243 19.7934 14.0231 18.9419 14.0231C18.0814 14.0231 17.6512 14.5243 17.6512 15.5266ZM12.1961 15.5266C12.1961 16.5289 12.6263 17.0301 13.4867 17.0301C14.3471 17.0301 14.7773 16.5289 14.7773 15.5266C14.7773 14.5243 14.3471 14.0231 13.4867 14.0231C12.6263 14.0231 12.1961 14.5243 12.1961 15.5266ZM16.7066 20.2899V14.9146C16.7066 14.5864 16.5425 14.4223 16.2143 14.4223C15.8861 14.4223 15.722 14.5864 15.722 14.9146V20.2899L14.9104 19.6246C14.662 19.4295 14.4402 19.4295 14.2451 19.6246C14.0233 19.8464 14.0233 20.0681 14.2451 20.2899L15.855 21.8998C15.9437 22.024 16.0635 22.0861 16.2143 22.0861C16.3473 22.0861 16.4715 22.024 16.5868 21.8998L18.1968 20.2899C18.4185 20.0681 18.4185 19.8464 18.1968 19.6246C17.9927 19.4295 17.771 19.4295 17.5315 19.6246L16.7066 20.2899ZM20.3788 21.5539L19.8732 20.5161L16.2143 26.57L12.5553 20.5161L12.0364 21.5406L15.4426 27.1687C15.6821 27.6034 15.9393 27.8207 16.2143 27.8207C16.4892 27.8207 16.7465 27.6034 16.986 27.1687L20.3788 21.5539ZM23.3858 12.9454C21.0441 12.218 18.6536 11.8543 16.2143 11.8543C13.7306 11.8543 11.3445 12.218 9.05603 12.9454L9.56163 13.7836C11.7348 13.1272 13.9524 12.799 16.2143 12.799C18.5028 12.799 20.7292 13.1316 22.8935 13.7969L23.3858 12.9454Z" fill="white"/>
</svg>
