<svg width="32" height="32" viewBox="0 0 32 32" fill="none" xmlns="http://www.w3.org/2000/svg">
<path fill-rule="evenodd" clip-rule="evenodd" d="M15.5798 29.1927H5.60081L8.71425 24.2166L4.09732 6.94631C3.9554 6.44071 3.9687 6.13469 4.13723 6.02824C4.2969 5.93954 4.60292 6.09477 5.0553 6.49393L13.7836 15.2222V11.0443H11.5084V7.86437H13.7836V6.49393H15.5798H17.376V7.86437H19.6512V11.0443H17.376V15.2222L26.1309 6.49393C26.5655 6.0859 26.8715 5.93067 27.0489 6.02824C27.1997 6.14356 27.1997 6.45401 27.0489 6.95961L22.4453 24.2166L25.5587 29.1927H15.5798ZM13.9033 19.6795C12.7324 19.8923 11.6592 20.2161 10.6834 20.6507L9.19324 14.9827L13.9033 19.6795ZM9.17993 23.0856C11.0604 21.6132 13.1937 20.8769 15.5798 20.8769C17.957 20.8769 20.0903 21.6132 21.9796 23.0856L21.7135 24.0835C19.9395 22.5844 17.8949 21.8349 15.5798 21.8349C13.238 21.8349 11.1935 22.5844 9.44604 24.0835L9.17993 23.0856ZM12.3865 25.108H15.5798H18.773H21.9663C22.055 25.2677 22.1437 25.4229 22.2324 25.5737C22.3211 25.7156 22.4142 25.862 22.5118 26.0128H19.0391H15.5798H12.0938H8.63442C8.72312 25.862 8.81182 25.7156 8.90052 25.5737C8.9981 25.4229 9.09567 25.2677 9.19324 25.108H12.3865ZM21.9796 14.9827L20.4761 20.6507C19.4649 20.2072 18.4005 19.8835 17.2828 19.6795L21.9796 14.9827Z" fill="black"/>
<path fill-rule="evenodd" clip-rule="evenodd" d="M9.17998 23.0856C11.0605 21.6131 13.1937 20.8769 15.5798 20.8769C17.957 20.8769 20.0903 21.6131 21.9797 23.0856L21.7135 24.0835C19.9395 22.5844 17.8949 21.8349 15.5798 21.8349C13.2381 21.8349 11.1935 22.5844 9.44608 24.0835L9.17998 23.0856ZM12.3865 25.108H15.5798H18.7731H21.9663C22.055 25.2677 22.1438 25.4229 22.2325 25.5737C22.3212 25.7156 22.4143 25.862 22.5119 26.0128H19.0392H15.5798H12.0938H8.63446C8.72316 25.862 8.81186 25.7156 8.90057 25.5737C8.99814 25.4229 9.09571 25.2677 9.19328 25.108H12.3865Z" fill="white"/>
</svg>
