<svg width="180" height="180" viewBox="0 0 180 180" fill="none" xmlns="http://www.w3.org/2000/svg">
<path d="M134.637 159.195L123.56 141.232H51.712L40.6353 159.195H134.637ZM118.172 136.218C109.141 129.432 98.9623 126.039 87.6364 126.039C76.2604 126.039 66.0819 129.432 57.1005 136.218H118.172ZM60.0193 112.568C64.9592 110.323 70.1977 108.751 75.7361 107.853L52.7597 84.8762L60.0193 112.568ZM115.253 112.493L122.587 84.951L99.6857 107.853C104.825 108.751 110.014 110.298 115.253 112.493ZM86.9625 111.894C76.2851 111.994 66.2316 114.589 56.8012 119.678L42.9554 67.8122L86.9625 111.894ZM88.3845 111.894L132.392 67.9618L118.546 119.678C109.066 114.589 99.0124 111.994 88.3845 111.894ZM152.15 39.1478L126.255 136.218L143.768 164.209H31.5045L49.0176 136.218L23.0474 39.073C22.2491 36.229 22.3239 34.5076 23.2719 33.9088C24.1701 33.4099 25.8914 34.2831 28.4361 36.5284L77.5327 85.6249V62.1242H64.7347V44.2371H77.5327V36.5284H97.74V44.2371H110.538V62.1242H97.74V85.6249L146.986 36.5284C149.431 34.2332 151.152 33.36 152.15 33.9088C152.998 34.5575 152.998 36.3038 152.15 39.1478ZM92.6505 97.8238V56.8108H105.448V49.3264H92.6505V41.6176H82.5469V49.3264H69.8237V56.8108H82.5469L82.6217 97.8238L29.9329 45.21L53.3585 132.775C63.4371 124.892 74.8631 120.95 87.6364 120.95C100.409 120.95 111.835 124.892 121.914 132.775L145.414 45.1352L92.6505 97.8238Z" fill="black"/>
<path d="M134.637 159.195L123.56 141.232H51.7122L40.6356 159.195H134.637ZM118.172 136.218C109.141 129.432 98.9623 126.04 87.6364 126.04C76.2604 126.04 66.0819 129.432 57.1011 136.218H118.172ZM86.9631 111.895C76.2851 111.994 66.2316 114.589 56.8013 119.678L42.9557 67.8122L86.9631 111.895ZM88.3851 111.895L132.392 67.9624L118.546 119.678C109.067 114.589 99.0124 111.994 88.3851 111.895ZM92.6511 97.8244V56.8108H105.449V49.3264H92.6511V41.6177H82.5474V49.3264H69.8243V56.8108H82.5474L82.6223 97.8244L29.9331 45.2101L53.3587 132.775C63.4376 124.892 74.8631 120.95 87.6364 120.95C100.41 120.95 111.835 124.892 121.914 132.775L145.415 45.1352L92.6511 97.8244Z" fill="white"/>
</svg>
