<svg width="32" height="32" viewBox="0 0 32 32" fill="none" xmlns="http://www.w3.org/2000/svg">
<path d="M23.8361 25.2149C21.246 26.2261 18.5583 26.7317 15.7731 26.7317C12.979 26.7317 10.2913 26.2261 7.71009 25.2149L7.82983 26.2793C10.4111 27.2196 13.0588 27.6897 15.7731 27.6897C18.4696 27.6897 21.1129 27.2196 23.703 26.2793L23.8361 25.2149ZM24.355 21.5826L24.488 20.4516C21.7383 21.9773 18.8333 22.7401 15.7731 22.7401C12.7129 22.7401 9.80789 21.9817 7.05813 20.4649L7.19118 21.5959C9.90546 22.9885 12.7661 23.6848 15.7731 23.6848C18.7801 23.6848 21.6407 22.9841 24.355 21.5826V21.5826ZM5.08895 11.5105C4.92042 10.1001 4.99138 9.34616 5.30183 9.24859C5.64777 9.15102 6.21103 9.90942 6.9916 11.5238L11.4755 21.1568L14.9881 8.11764C15.2187 7.37255 15.4804 7 15.7731 7C16.0569 7 16.3186 7.37255 16.5581 8.11764L20.0574 21.1701L24.5546 11.5105C25.3351 9.89611 25.9073 9.13771 26.2709 9.23529C26.5725 9.33286 26.6391 10.0957 26.4705 11.5238L24.5413 27.1974C21.7028 28.2618 18.7801 28.794 15.7731 28.794C12.7217 28.794 9.79902 28.2618 7.00491 27.1974L5.08895 11.5105Z" fill="black"/>
<path d="M23.8361 25.2149C21.246 26.2261 18.5584 26.7317 15.7731 26.7317C12.979 26.7317 10.2913 26.2261 7.71013 25.2149L7.82987 26.2793C10.4111 27.2196 13.0588 27.6897 15.7731 27.6897C18.4697 27.6897 21.113 27.2196 23.7031 26.2793L23.8361 25.2149ZM24.355 21.5826L24.4881 20.4516C21.7383 21.9773 18.8333 22.7401 15.7731 22.7401C12.7129 22.7401 9.80792 21.9817 7.05817 20.4649L7.19122 21.5959C9.9055 22.9885 12.7661 23.6848 15.7731 23.6848C18.7801 23.6848 21.6407 22.9841 24.355 21.5826Z" fill="white"/>
</svg>
