<svg width="32" height="32" viewBox="0 0 32 32" fill="none" xmlns="http://www.w3.org/2000/svg">
<path d="M19.3655 22.0882L15.7731 8.67646L12.1674 22.0749C13.3382 22.3144 14.5401 22.4341 15.7731 22.4341C16.9706 22.4341 18.168 22.3188 19.3655 22.0882ZM7.05813 20.2654C8.27334 20.904 9.5063 21.3963 10.757 21.7422L5.9804 11.5238L7.05813 20.2654ZM23.9558 24.523L24.3417 21.3431C21.6451 22.6736 18.7889 23.3389 15.7731 23.3389C12.7484 23.3389 9.88772 22.6736 7.19118 21.3431L7.59034 24.523C10.207 25.5697 12.9346 26.0931 15.7731 26.0931C18.6115 26.0931 21.3391 25.5697 23.9558 24.523ZM23.8361 25.5476C21.2194 26.5144 18.5317 26.9978 15.7731 26.9978C13.0056 26.9978 10.3179 26.5144 7.71009 25.5476L7.82983 26.5454C10.3933 27.4502 13.0411 27.9026 15.7731 27.9026C18.4785 27.9026 21.1218 27.4546 23.703 26.5588L23.8361 25.5476ZM5.08895 11.5105C4.92042 10.1001 4.99138 9.34616 5.30183 9.24859C5.64777 9.15102 6.21103 9.90942 6.9916 11.5238L11.4755 21.1568L14.9881 8.11764C15.2187 7.37255 15.4804 7 15.7731 7C16.0569 7 16.3186 7.37255 16.5581 8.11764L20.0574 21.1701L24.5546 11.5105C25.3351 9.89611 25.9073 9.13771 26.2709 9.23529C26.5725 9.33286 26.6391 10.0957 26.4705 11.5238L24.5413 27.1974C21.7028 28.2618 18.7801 28.794 15.7731 28.794C12.7217 28.794 9.79902 28.2618 7.00491 27.1974L5.08895 11.5105ZM25.5125 11.9496C25.5392 11.7633 25.5392 11.6702 25.5125 11.6702C25.4859 11.6613 25.4371 11.7411 25.3662 11.9096C24.5945 13.5506 23.8272 15.1916 23.0644 16.8326C22.3104 18.4647 21.552 20.1013 20.7892 21.7422C22.1108 21.3697 23.3394 20.8774 24.4747 20.2654C24.6433 18.8816 24.8162 17.4846 24.9936 16.0742C25.1799 14.6638 25.3529 13.289 25.5125 11.9496Z" fill="black"/>
<path d="M19.3655 22.0882L15.773 8.67644L12.1673 22.0748C13.3382 22.3143 14.5401 22.4341 15.773 22.4341C16.9705 22.4341 18.168 22.3188 19.3655 22.0882ZM7.05807 20.2653C8.27329 20.904 9.50625 21.3963 10.7569 21.7422L5.98035 11.5238L7.05807 20.2653ZM23.9558 24.523L24.3416 21.3431C21.6451 22.6736 18.7889 23.3389 15.773 23.3389C12.7483 23.3389 9.88766 22.6736 7.19113 21.3431L7.59029 24.523C10.207 25.5697 12.9346 26.093 15.773 26.093C18.6115 26.093 21.3391 25.5697 23.9558 24.523ZM23.836 25.5475C21.2193 26.5144 18.5317 26.9978 15.773 26.9978C13.0055 26.9978 10.3179 26.5144 7.71003 25.5475L7.82978 26.5454C10.3933 27.4502 13.041 27.9026 15.773 27.9026C18.4784 27.9026 21.1218 27.4546 23.703 26.5587L23.836 25.5475ZM25.5125 11.9495C25.5391 11.7633 25.5391 11.6701 25.5125 11.6701C25.4859 11.6612 25.4371 11.7411 25.3661 11.9096C24.5944 13.5506 23.8272 15.1916 23.0643 16.8326C22.3104 18.4647 21.552 20.1012 20.7891 21.7422C22.1108 21.3697 23.3393 20.8774 24.4747 20.2653C24.6432 18.8816 24.8162 17.4845 24.9936 16.0742C25.1799 14.6638 25.3528 13.2889 25.5125 11.9495Z" fill="white"/>
</svg>
