<svg width="64" height="64" viewBox="0 0 64 64" fill="none" xmlns="http://www.w3.org/2000/svg">
<path d="M14.0001 56C14.0001 59.75 26.1528 61 33.4445 61C40.7362 61 52.8889 59.75 52.8889 56C52.8889 52.25 40.1255 51 33.4445 51C26.7635 51 14.0001 52.25 14.0001 56Z" fill="url(#paint0_linear_1_785)"/>
<path d="M20 49L12 22C24 33 24 27 24 13C32 23 32 23 40 13C40 27 39.951 33.0678 52 22L44 49" fill="white"/>
<path d="M44 49L36 50C36 50 40 40 40 24C43 28 49 28 49 28C49 28 43 42 44 49Z" fill="#CCCCCC"/>
<path d="M18 42L12 22C24 33 24 27 24 13C32 26 32 26 40 13C40 27 39.951 33.0678 52 22L46 42" stroke="black" stroke-width="3.99999" stroke-linejoin="round"/>
<path d="M24.0001 17C26.2092 17 28.0001 15.2091 28.0001 13C28.0001 10.7909 26.2092 9 24.0001 9C21.7909 9 20.0001 10.7909 20.0001 13C20.0001 15.2091 21.7909 17 24.0001 17Z" fill="white" stroke="black" stroke-width="3.99999" stroke-linejoin="round"/>
<path d="M40 17C42.2092 17 44 15.2091 44 13C44 10.7909 42.2092 9 40 9C37.7909 9 36 10.7909 36 13C36 15.2091 37.7909 17 40 17Z" fill="white" stroke="black" stroke-width="3.99999" stroke-linejoin="round"/>
<path d="M52.0001 26C54.2092 26 56.0001 24.2091 56.0001 22C56.0001 19.7909 54.2092 18 52.0001 18C49.7909 18 48.0001 19.7909 48.0001 22C48.0001 24.2091 49.7909 26 52.0001 26Z" fill="white" stroke="black" stroke-width="3.99999" stroke-linejoin="round"/>
<path d="M12 26C14.2092 26 16 24.2091 16 22C16 19.7909 14.2092 18 12 18C9.79089 18 8.00003 19.7909 8.00003 22C8.00003 24.2091 9.79089 26 12 26Z" fill="white" stroke="black" stroke-width="3.99999" stroke-linejoin="round"/>
<path d="M17.0002 42C17.0002 42 16.0002 50 16.0002 54C22.0003 56 32.0003 56 32.0003 56C32.0003 56 42.0003 56 48.0003 54C48.0002 50 47.0002 42 47.0002 42C42.0002 44 32.0002 44 32.0002 44C32.0002 44 22.0002 44 17.0002 42Z" fill="white"/>
<path d="M45.0002 42L48.0002 54L41.0002 55L39.0001 44L45.0002 42Z" fill="#CCCCCC"/>
<path d="M18 42C18 42 16.0002 50 16.0002 54C22.0003 56 32.0003 56 32.0003 56C32.0003 56 42.0003 56 48.0003 54C48.0002 50 46 42 46 42C41 44 32 44 32 44C32 44 23.0001 44 18 42Z" stroke="black" stroke-width="3.99999" stroke-linecap="round" stroke-linejoin="round"/>
<path d="M47 48C42 50 32 50 32 50C32 50 22 50 17 48" stroke="black" stroke-width="3.99999" stroke-linejoin="round"/>
<defs>
<linearGradient id="paint0_linear_1_785" x1="14.0001" y1="103.5" x2="467.877" y2="103.5" gradientUnits="userSpaceOnUse">
<stop stop-opacity="0.2"/>
</linearGradient>
</defs>
</svg>
