<svg width="64" height="64" viewBox="0 0 64 64" fill="none" xmlns="http://www.w3.org/2000/svg">
<path d="M14 56C14 59.75 26.1528 61 33.4444 61C40.7361 61 52.8889 59.75 52.8889 56C52.8889 52.25 40.1254 51 33.4444 51C26.7635 51 14 52.25 14 56Z" fill="url(#paint0_linear_1_768)"/>
<path d="M44.0002 49L42.0002 25H22.0002L20.0002 49" fill="#595959"/>
<path d="M28.0002 26L26.0002 50L20.0002 49L22.0002 25L28.0002 26Z" fill="#8C8C8C"/>
<path d="M44.0002 48L42.0002 29M22.0002 29L20.0002 48" stroke="black" stroke-width="3.99999" stroke-miterlimit="2.4" stroke-linejoin="round"/>
<path d="M47.0002 48C47.0002 48 48.0002 50 48.0001 54C42.0001 56 32.0001 56 32.0001 56C32.0001 56 22.0001 56 16.0001 54C16.0002 50 17.0002 48 17.0002 48C22.0002 50 32.0002 50 32.0002 50C32.0002 50 42.0002 50 47.0002 48Z" fill="#595959"/>
<path d="M17.0002 48L16.0002 54L23.0002 55L24.0002 50L17.0002 48Z" fill="#8C8C8C"/>
<path d="M47.0002 48C47.0002 48 48.0002 50 48.0001 54C42.0001 56 32.0001 56 32.0001 56C32.0001 56 22.0001 56 16.0001 54C16.0002 50 17.0002 48 17.0002 48C22.0002 50 32.0002 50 32.0002 50C32.0002 50 42.0002 50 47.0002 48Z" stroke="black" stroke-width="3.99999" stroke-linecap="round" stroke-linejoin="round"/>
<path d="M44.0002 15C44.0002 15 47.0003 24 47.0002 28C41.0002 30 32.0001 28 32.0001 28C32.0001 28 23.0002 30 17.0002 28C17.0003 24 19.0002 15 19.0002 15C24.0002 17 32.0002 16 32.0002 16C32.0002 16 39.0002 17 44.0002 15Z" fill="#595959"/>
<path d="M19.0002 20L18.0002 28L21.0002 31L23.0002 15H20.0002" fill="#8C8C8C"/>
<path d="M46 15C46 15 47.0003 24 47.0002 28C42.0002 30 32.0001 30 32.0001 30C32.0001 30 22.0002 30 17.0002 28C17.0003 24 18 15 18 15C18 15 24 15 32 15C40 15 46 15 46 15Z" stroke="black" stroke-width="3.99999" stroke-linecap="round" stroke-linejoin="round"/>
<path d="M36.7011 14.0255L37.2552 23.0255M27.2994 14.0255L26.7453 23.0255" stroke="black" stroke-width="3.99999" stroke-linejoin="round"/>
<defs>
<linearGradient id="paint0_linear_1_768" x1="14" y1="103.5" x2="467.877" y2="103.5" gradientUnits="userSpaceOnUse">
<stop stop-opacity="0.2"/>
</linearGradient>
</defs>
</svg>
