<svg width="32" height="32" viewBox="0 0 32 32" fill="none" xmlns="http://www.w3.org/2000/svg">
<path d="M20.2843 24.7338C22.0091 24.7338 23.3513 24.3153 24.3106 23.4784C25.2802 22.6313 25.9028 22.0597 26.1784 21.7638C26.556 21.3555 26.7857 20.9677 26.8673 20.6002C26.949 20.2226 26.9898 20.0338 26.9898 20.0338V17.0485C26.9898 16.3238 26.7806 15.6196 26.3621 14.9358C25.9539 14.2418 25.5405 13.7161 25.122 13.3589C24.4893 12.8384 23.831 12.4353 23.1471 12.1495C22.4633 11.8535 21.9581 11.7055 21.6315 11.7055H18.4625L16.1508 21.0901V23.5703C16.1508 23.5703 16.5437 23.7795 17.3296 24.198C18.1155 24.6062 19.1004 24.7848 20.2843 24.7338ZM17.4674 9.27131C17.2734 9.45503 17.0132 9.63874 16.6866 9.82245C16.3702 10.0062 15.9977 10.098 15.569 10.098C14.8239 10.098 14.1963 9.82245 13.6859 9.27131H13.5482V10.5114L15.2016 16.7882H15.569H15.9364L17.5898 10.5114V9.27131H17.4674ZM10.869 24.6879C11.4814 24.6879 12.0376 24.6317 12.5377 24.5194C13.0481 24.4072 13.4869 24.2796 13.8543 24.1367C14.2116 24.004 14.4871 23.8816 14.6811 23.7693C14.8852 23.6468 14.9872 23.5856 14.9872 23.5856V21.0901L12.7061 11.7055H9.42994C9.3687 11.7055 9.08803 11.7667 8.58792 11.8892C8.08782 12.0015 7.53157 12.2464 6.9192 12.6241C6.30682 12.9915 5.72507 13.5375 5.17393 14.2622C4.62279 14.9766 4.27578 15.936 4.13289 17.1403V20.0338C4.41867 21.4627 5.27599 22.6007 6.70487 23.4478C8.13374 24.2847 9.52179 24.6981 10.869 24.6879ZM15.569 24.5807C13.3338 25.8565 11.3895 26.2647 9.73612 25.8054C8.09292 25.3462 7.27132 25.1165 7.27132 25.1165V27.8569H15.569H23.8667V25.1165C23.8667 25.1165 23.04 25.3462 21.3866 25.8054C19.7331 26.2647 17.794 25.8565 15.569 24.5807ZM17.9266 8.53646H18.9677V10.542H21.7234C21.7234 10.542 22.0244 10.6134 22.6266 10.7563C23.2288 10.8992 23.9075 11.1952 24.6628 11.6443C25.418 12.0831 26.1376 12.721 26.8214 13.5579C27.5154 14.3949 27.9543 15.5073 28.138 16.8954V19.9879C28.138 19.9879 28.0257 20.4318 27.8012 21.3198C27.5766 22.1975 26.6683 23.1875 25.0761 24.2898V29.0204H15.569H6.06187V24.2898C4.45949 23.1875 3.54603 22.1975 3.3215 21.3198C3.10717 20.4318 3 19.9879 3 19.9879V16.8954C3.17351 15.5073 3.60217 14.3949 4.28599 13.5579C4.98001 12.721 5.70466 12.0831 6.45992 11.6443C7.22539 11.1952 7.90921 10.8992 8.51137 10.7563C9.11354 10.6134 9.41463 10.542 9.41463 10.542H12.1703V8.53646H13.2114C13.0787 8.2609 13.0123 7.95471 13.0123 7.6179C13.0123 6.92388 13.2573 6.31661 13.7472 5.79609C14.2371 5.26536 14.8444 5 15.569 5C16.2834 5 16.8856 5.26536 17.3755 5.79609C17.8756 6.31661 18.1257 6.92388 18.1257 7.6179C18.1257 7.95471 18.0593 8.2609 17.9266 8.53646ZM15.569 6.11758C14.5994 6.11758 14.1146 6.59218 14.1146 7.54136C14.1146 8.50074 14.5994 8.98044 15.569 8.98044C16.5386 8.98044 17.0234 8.50074 17.0234 7.54136C17.0234 6.59218 16.5386 6.11758 15.569 6.11758Z" fill="black"/>
<path d="M20.2843 24.7338C22.0091 24.7338 23.3513 24.3153 24.3107 23.4784C25.2803 22.6313 25.9028 22.0597 26.1784 21.7638C26.556 21.3555 26.7857 20.9677 26.8673 20.6003C26.949 20.2226 26.9898 20.0338 26.9898 20.0338V17.0485C26.9898 16.3238 26.7806 15.6196 26.3621 14.9358C25.9539 14.2418 25.5405 13.7161 25.1221 13.3589C24.4893 12.8384 23.831 12.4353 23.1471 12.1495C22.4633 11.8535 21.9581 11.7055 21.6315 11.7055H18.4625L16.1508 21.0902V23.5703C16.1508 23.5703 16.5437 23.7795 17.3296 24.198C18.1155 24.6062 19.1004 24.7848 20.2843 24.7338ZM17.4674 9.27132C17.2735 9.45503 17.0132 9.63874 16.6866 9.82245C16.3702 10.0062 15.9977 10.098 15.569 10.098C14.824 10.098 14.1963 9.82245 13.686 9.27132H13.5482V10.5114L15.2016 16.7882H15.569H15.9364L17.5898 10.5114V9.27132H17.4674ZM10.869 24.6879C11.4814 24.6879 12.0376 24.6317 12.5378 24.5194C13.0481 24.4072 13.4869 24.2796 13.8544 24.1367C14.2116 24.004 14.4871 23.8816 14.6811 23.7693C14.8852 23.6468 14.9873 23.5856 14.9873 23.5856V21.0902L12.7062 11.7055H9.42995C9.36871 11.7055 9.08804 11.7667 8.58793 11.8892C8.08783 12.0015 7.53159 12.2464 6.91921 12.6241C6.30684 12.9915 5.72508 13.5375 5.17394 14.2622C4.6228 14.9766 4.27579 15.936 4.1329 17.1403V20.0338C4.41868 21.4627 5.276 22.6007 6.70488 23.4478C8.13375 24.2847 9.5218 24.6981 10.869 24.6879ZM15.569 24.5807C13.3338 25.8565 11.3895 26.2647 9.73614 25.8054C8.09293 25.3462 7.27133 25.1165 7.27133 25.1165V27.8569H15.569H23.8667V25.1165C23.8667 25.1165 23.04 25.3462 21.3866 25.8054C19.7332 26.2647 17.794 25.8565 15.569 24.5807ZM15.569 6.11758C14.5994 6.11758 14.1146 6.59218 14.1146 7.54136C14.1146 8.50074 14.5994 8.98044 15.569 8.98044C16.5386 8.98044 17.0234 8.50074 17.0234 7.54136C17.0234 6.59218 16.5386 6.11758 15.569 6.11758Z" fill="white"/>
</svg>
