<svg width="32" height="32" viewBox="0 0 32 32" fill="none" xmlns="http://www.w3.org/2000/svg">
<path d="M13.0374 9.78694V12.2058H15.5175L13.0374 9.78694ZM15.6859 4.38273L15.7013 4L18.8856 7.18435C21.0085 7.87837 22.6211 8.69487 23.7234 9.63385C24.8358 10.5728 25.6268 11.471 26.0963 12.3283C26.576 13.1754 26.8363 13.9001 26.8771 14.5022C26.9281 15.0942 26.9536 15.3902 26.9536 15.3902V28.7246H6.60748V27.4846C6.82182 26.6885 7.38316 26.071 8.29152 25.6321C9.21008 25.1933 10.1746 24.8769 11.185 24.683C12.1954 24.4788 13.1038 24.3615 13.9101 24.3308C14.7266 24.29 15.1348 24.2696 15.1348 24.2696L16.5892 22.5856V21.1618H15.3644C14.3234 20.3147 13.5579 19.4574 13.068 18.5898L8.99575 20.7025H7.52605L5 18.3602V17.1201L10.0062 12.3589V11.8078H9.45503V11.027C9.8939 10.5677 10.3583 10.1135 10.8482 9.66447C11.3381 9.20519 11.8127 8.84286 12.272 8.5775C13.1905 8.05698 13.9866 7.74059 14.6602 7.62832C15.344 7.51605 15.6859 7.45992 15.6859 7.45992L15.6859 4.38273Z" fill="black"/>
<path d="M13.0374 9.78694V12.2058H15.5175L13.0374 9.78694Z" fill="#EEEEEE"/>
</svg>
