<svg width="32" height="32" viewBox="0 0 32 32" fill="none" xmlns="http://www.w3.org/2000/svg">
<path d="M15.6859 4.39804L15.7013 4L18.8856 7.18435C21.0085 7.87837 22.6211 8.69487 23.7234 9.63385C24.8358 10.5728 25.6268 11.471 26.0963 12.3283C26.576 13.1856 26.8363 13.9103 26.8771 14.5022C26.9281 15.0942 26.9536 15.3902 26.9536 15.3902V28.7246H6.60748V27.4846C6.82182 26.6885 7.38316 26.0761 8.29152 25.6475C9.21008 25.2086 10.1746 24.8922 11.185 24.6983C12.1954 24.4941 13.1038 24.3768 13.9101 24.3462C14.7266 24.3053 15.1348 24.2849 15.1348 24.2849L16.5892 22.5856V21.1618H15.3644C14.3234 20.3147 13.5579 19.4574 13.068 18.5898L8.99575 20.7025H7.52605L5 18.3755V17.1354L10.0062 12.3742V11.8231H9.45503V11.0423C9.8939 10.5728 10.3583 10.1135 10.8482 9.66447C11.3381 9.20519 11.8127 8.84286 12.272 8.5775C13.1905 8.05698 13.9866 7.74059 14.6602 7.62832C15.344 7.51605 15.6859 7.45992 15.6859 7.45992L15.6859 4.39804ZM13.2058 9.94004L15.3644 12.0527H13.2058V9.94004ZM16.8648 8.4091C16.8648 8.4091 16.3391 8.51116 15.2879 8.71529C14.2469 8.91941 13.4661 9.18477 12.9456 9.51137C12.0168 10.0727 11.1748 10.8433 10.4195 11.8231H11.0166V12.9407L6.05634 17.7325L8.18434 19.7687L13.3283 17.0895C13.7365 17.5896 14.1652 18.1459 14.6143 18.7582C15.0634 19.3604 15.5022 19.7891 15.9309 20.0442H17.7527V23.0449L15.6247 25.4178C15.6247 25.4178 15.2879 25.428 14.6143 25.4484C13.9509 25.4688 13.1905 25.5403 12.3332 25.6627C11.4759 25.775 10.6338 25.9536 9.80713 26.1986C8.98043 26.4435 8.40888 26.7905 8.09248 27.2396V27.5152L25.6676 27.4846V15.727C25.6676 15.727 25.6472 15.4565 25.6064 14.9156C25.5758 14.3747 25.3461 13.7215 24.9175 12.956C24.4888 12.1803 23.7744 11.3638 22.7742 10.5065C21.774 9.64916 20.3145 8.9041 18.3957 8.27132L16.8648 6.78631V8.4091Z" fill="black"/>
<path d="M13.2058 9.94006L15.3644 12.0528H13.2058V9.94006ZM16.8648 8.40912C16.8648 8.40912 16.3391 8.51119 15.2879 8.71531C14.2469 8.91944 13.4661 9.1848 12.9456 9.5114C12.0168 10.0727 11.1748 10.8433 10.4195 11.8231H11.0166V12.9407L6.05634 17.7325L8.18434 19.7687L13.3283 17.0895C13.7365 17.5896 14.1652 18.1459 14.6143 18.7583C15.0634 19.3604 15.5022 19.7891 15.9309 20.0442H17.7527V23.0449L15.6247 25.4178C15.6247 25.4178 15.2879 25.428 14.6143 25.4484C13.9509 25.4688 13.1905 25.5403 12.3332 25.6628C11.4759 25.775 10.6338 25.9536 9.80713 26.1986C8.98042 26.4435 8.40887 26.7906 8.09248 27.2396V27.5152L25.6676 27.4846V15.727C25.6676 15.727 25.6472 15.4565 25.6064 14.9156C25.5758 14.3747 25.3461 13.7215 24.9175 12.956C24.4888 12.1803 23.7744 11.3638 22.7742 10.5065C21.774 9.64918 20.3145 8.90413 18.3957 8.27134L16.8648 6.78633V8.40912Z" fill="white"/>
</svg>
