<svg width="32" height="32" viewBox="0 0 32 32" fill="none" xmlns="http://www.w3.org/2000/svg">
<path d="M14.645 12.035C14.0973 11.575 13.8234 10.985 13.8234 10.265C13.8234 9.635 14.0348 9.1 14.4577 8.66C14.8805 8.22 15.3946 8 16 8C16.5958 8 17.1051 8.22 17.5279 8.66C17.9603 9.1 18.1766 9.635 18.1766 10.265C18.1766 10.995 17.9027 11.585 17.3549 12.035C18.2006 12.305 18.8973 12.805 19.445 13.535C20.0024 14.265 20.2811 15.095 20.2811 16.025C20.2811 17.655 19.57 18.865 18.1477 19.655C19.6757 20.045 20.9874 20.795 22.0829 21.905C23.188 23.015 23.8174 24.28 23.9712 25.7C23.9808 25.76 23.9856 25.925 23.9856 26.195L24 26.99L23.9856 29H8.01441C8.0048 29 8 28.705 8 28.115C8 27.515 8 27.11 8 26.9C8 26.68 8 26.45 8 26.21C8 25.96 8.0048 25.795 8.01441 25.715C8.18739 24.245 8.82643 22.96 9.93153 21.86C11.0462 20.76 12.3724 20.02 13.9099 19.64C12.4877 18.83 11.7766 17.625 11.7766 16.025C11.7766 15.095 12.0408 14.26 12.5694 13.52C13.0883 12.81 13.7802 12.315 14.645 12.035V12.035Z" fill="black"/>
</svg>
