<svg width="32" height="32" viewBox="0 0 32 32" fill="none" xmlns="http://www.w3.org/2000/svg">
<path d="M16.5273 20.7068C15.0168 20.7068 13.4093 21.2324 11.7049 22.2836C10.0106 23.3247 9.16351 24.7587 9.16351 26.5856C9.16351 26.7999 9.16351 27.0091 9.16351 27.2133C9.16351 27.4072 9.16351 27.6062 9.16351 27.8103C9.16351 27.892 9.16351 27.9685 9.16351 28.04C9.16351 28.1012 9.16351 28.1318 9.16351 28.1318L23.8452 28.1165V26.5703C23.8248 24.7944 22.9777 23.3757 21.3038 22.3143C19.6402 21.2426 18.0481 20.7068 16.5273 20.7068V20.7068ZM15.0576 12.1182C14.4759 11.6487 14.185 11.0466 14.185 10.3117C14.185 9.66872 14.4095 9.12269 14.8586 8.67361C15.3077 8.22454 15.8537 8 16.4967 8C17.1295 8 17.6704 8.22454 18.1195 8.67361C18.5788 9.12269 18.8084 9.66872 18.8084 10.3117C18.8084 11.0568 18.5175 11.6589 17.9358 12.1182C18.8339 12.3938 19.5739 12.9041 20.1556 13.6492C20.7476 14.3942 21.0436 15.2413 21.0436 16.1905C21.0436 17.8541 20.2883 19.0891 18.7778 19.8954C20.4006 20.2934 21.7937 21.0589 22.9573 22.1918C24.131 23.3247 24.7995 24.6158 24.9628 26.0651C24.973 26.1263 24.9781 26.2947 24.9781 26.5703L24.9934 27.3817L24.9781 29.4331H8.01531C8.0051 29.4331 8 29.132 8 28.5299C8 27.9175 8 27.5041 8 27.2898C8 27.0653 8 26.8305 8 26.5856C8 26.3304 8.0051 26.162 8.01531 26.0804C8.19902 24.5801 8.87774 23.2685 10.0515 22.1459C11.2354 21.0232 12.6438 20.2679 14.2768 19.8801C12.7663 19.0534 12.0111 17.8235 12.0111 16.1905C12.0111 15.2413 12.2917 14.3891 12.8531 13.6338C13.4042 12.9092 14.1391 12.404 15.0576 12.1182V12.1182ZM16.5579 19.3289C17.5582 19.3289 18.3696 19.0227 18.9921 18.4104C19.6249 17.798 19.9413 17.0376 19.9413 16.1293C19.9413 15.2311 19.6351 14.4503 19.0227 13.7869C18.4104 13.1235 17.6041 12.7918 16.6039 12.7918C15.5935 12.7918 14.7667 13.1235 14.1237 13.7869C13.4808 14.4503 13.1593 15.2311 13.1593 16.1293C13.1593 17.0376 13.4706 17.798 14.0931 18.4104C14.7259 19.0227 15.5475 19.3289 16.5579 19.3289ZM16.4967 9.11758C15.7006 9.11758 15.3026 9.51563 15.3026 10.3117C15.3026 11.1078 15.7006 11.5058 16.4967 11.5058C17.2928 11.5058 17.6908 11.1078 17.6908 10.3117C17.6908 9.51563 17.2928 9.11758 16.4967 9.11758Z" fill="black"/>
<path d="M16.5273 20.7068C15.0168 20.7068 13.4093 21.2324 11.7049 22.2836C10.0106 23.3247 9.16351 24.7587 9.16351 26.5856C9.16351 26.7999 9.16351 27.0091 9.16351 27.2133C9.16351 27.4072 9.16351 27.6062 9.16351 27.8103C9.16351 27.892 9.16351 27.9685 9.16351 28.04C9.16351 28.1012 9.16351 28.1318 9.16351 28.1318L23.8452 28.1165V26.5703C23.8248 24.7944 22.9777 23.3757 21.3038 22.3143C19.6402 21.2426 18.0481 20.7068 16.5273 20.7068ZM16.5579 19.3289C17.5582 19.3289 18.3696 19.0227 18.9921 18.4104C19.6249 17.798 19.9413 17.0376 19.9413 16.1293C19.9413 15.2311 19.6351 14.4503 19.0228 13.7869C18.4104 13.1235 17.6041 12.7918 16.6039 12.7918C15.5935 12.7918 14.7667 13.1235 14.1238 13.7869C13.4808 14.4503 13.1593 15.2311 13.1593 16.1293C13.1593 17.0376 13.4706 17.798 14.0931 18.4104C14.7259 19.0227 15.5475 19.3289 16.5579 19.3289ZM16.4967 9.11758C15.7006 9.11758 15.3026 9.51563 15.3026 10.3117C15.3026 11.1078 15.7006 11.5058 16.4967 11.5058C17.2928 11.5058 17.6908 11.1078 17.6908 10.3117C17.6908 9.51563 17.2928 9.11758 16.4967 9.11758Z" fill="white"/>
</svg>
