<svg width="32" height="32" viewBox="0 0 32 32" fill="none" xmlns="http://www.w3.org/2000/svg">
<path d="M25.3976 24.5299H19.0289C18.5492 24.5299 17.9726 24.3104 17.299 23.8716C16.6356 23.4225 16.0895 22.9377 15.6609 22.4172C15.2322 22.9377 14.6811 23.4225 14.0074 23.8716C13.3338 24.3104 12.7623 24.5299 12.2928 24.5299H5.92409V23.9634L3 11.6088C3.9798 13.2622 4.8014 14.2573 5.46481 14.5941C6.13842 14.9309 6.79162 15.5892 7.42441 16.569C7.75101 14.7319 8.03678 13.2979 8.28173 12.2671C8.52668 11.226 8.78184 9.99107 9.0472 8.56219L12.9205 17.1661L15.6609 4L18.4012 17.1661L22.2745 8.56219L23.683 16.6762C24.2341 15.7882 24.9026 15.1503 25.6885 14.7625C26.4846 14.3747 27.3623 13.3234 28.3217 11.6088L25.3976 23.9634V24.5299ZM25.3976 26.0302V28.7706H15.6609H5.92409V26.0302C6.68956 26.0302 7.67446 26.0302 8.8788 26.0302C10.0933 26.0302 11.0885 26.0302 11.8641 26.0302C12.3949 26.0302 13.0225 25.8924 13.7472 25.6168C14.482 25.3413 15.1199 24.8667 15.6609 24.1931C15.9977 24.6013 16.4978 25.0096 17.1612 25.4178C17.8246 25.8159 18.59 26.02 19.4576 26.0302C20.223 26.0302 21.2079 26.0302 22.4123 26.0302C23.6268 26.0302 24.6219 26.0302 25.3976 26.0302Z" fill="black"/>
<path d="M25.3976 24.5299H19.0289C18.5492 24.5299 17.9725 24.3104 17.2989 23.8716C16.6355 23.4225 16.0895 22.9377 15.6608 22.4172C15.2322 22.9377 14.681 23.4225 14.0074 23.8716C13.3338 24.3104 12.7623 24.5299 12.2928 24.5299H5.92407V26.0302H8.87878H11.8641C12.3948 26.0302 13.0225 25.8924 13.7472 25.6168C14.482 25.3412 15.1199 24.8667 15.6608 24.193C15.9976 24.6013 16.4977 25.0095 17.1612 25.4178C17.8246 25.8158 18.59 26.02 19.4576 26.0302H22.4123H25.3976V24.5299Z" fill="#EEEEEE"/>
</svg>
