<svg width="32" height="32" viewBox="0 0 32 32" fill="none" xmlns="http://www.w3.org/2000/svg">
<path d="M15.6609 10.1237L13.0429 21.912L9.55241 13.2928L8.29704 20.1055C7.74591 19.0644 6.85286 18.0846 5.6179 17.1661C5.88327 18.4214 6.14863 19.6819 6.41399 20.9475C6.68956 22.2028 6.96513 23.4582 7.2407 24.7136H12.2928C12.7623 24.7136 13.3338 24.4941 14.0074 24.0553C14.6811 23.6062 15.2322 23.1214 15.6609 22.6009C16.0895 23.1214 16.6356 23.6062 17.299 24.0553C17.9726 24.4941 18.5492 24.7136 19.0289 24.7136H24.081L25.7038 17.1354C24.6628 17.8193 23.7697 18.8093 23.0247 20.1055L21.7693 13.2928L18.2788 21.912L15.6609 10.1237ZM15.6609 28.7706H5.92409V23.9634L3 11.6088C3.9798 13.2622 4.8014 14.2573 5.46481 14.5941C6.13842 14.9309 6.79162 15.5892 7.42441 16.569C7.75101 14.7319 8.03678 13.2979 8.28173 12.2671C8.52668 11.226 8.78184 9.99107 9.0472 8.56219L12.9205 17.1661L15.6609 4L18.4012 17.1661L22.2745 8.56219L23.683 16.6762C24.2341 15.7882 24.9026 15.1503 25.6885 14.7625C26.4846 14.3747 27.3623 13.3234 28.3217 11.6088L25.3976 23.9634V28.7706H15.6609ZM15.6609 27.5917H24.081V25.9077C23.3053 25.9077 22.5297 25.9077 21.754 25.9077C20.9885 25.9077 20.223 25.9077 19.4576 25.9077C18.59 25.8873 17.8246 25.6781 17.1612 25.28C16.4978 24.8718 15.9977 24.4635 15.6609 24.0553C15.1199 24.7289 14.482 25.2086 13.7472 25.4944C13.0225 25.7699 12.3949 25.9077 11.8641 25.9077C11.0885 25.9077 10.3128 25.9077 9.5371 25.9077C8.77163 25.9077 8.00616 25.9077 7.2407 25.9077V27.5917H15.6609Z" fill="black"/>
<path d="M15.6608 10.1237L13.0429 21.912L9.5524 13.2928L8.29703 20.1055C7.74589 19.0644 6.85284 18.0846 5.61789 17.1661C5.88325 18.4214 6.14861 19.6819 6.41398 20.9475C6.68954 22.2028 6.96511 23.4582 7.24068 24.7136H12.2928C12.7623 24.7136 13.3338 24.4941 14.0074 24.0553C14.681 23.6062 15.2322 23.1214 15.6608 22.6009C16.0895 23.1214 16.6355 23.6062 17.2989 24.0553C17.9726 24.4941 18.5492 24.7136 19.0289 24.7136H24.081L25.7038 17.1354C24.6628 17.8193 23.7697 18.8093 23.0246 20.1055L21.7693 13.2928L18.2787 21.912L15.6608 10.1237ZM15.6608 27.5917H24.081V25.9077C23.3053 25.9077 22.5296 25.9077 21.754 25.9077C20.9885 25.9077 20.223 25.9077 19.4576 25.9077C18.59 25.8873 17.8246 25.6781 17.1612 25.28C16.4977 24.8718 15.9976 24.4635 15.6608 24.0553C15.1199 24.7289 14.482 25.2086 13.7472 25.4944C13.0225 25.7699 12.3948 25.9077 11.8641 25.9077C11.0884 25.9077 10.3128 25.9077 9.53709 25.9077C8.77162 25.9077 8.00615 25.9077 7.24068 25.9077V27.5917H15.6608Z" fill="white"/>
</svg>
