<svg width="180" height="180" viewBox="0 0 180 180" fill="none" xmlns="http://www.w3.org/2000/svg">
<path d="M47.7351 153.169H135.696V166.012H47.7351V153.169ZM96.4277 39.6154H86.9107V30.1911H82.3832C79.1803 30.1911 77.5789 28.5896 77.5789 25.3865C77.5789 22.1835 79.1803 20.5819 82.3832 20.5819H86.9107V15.9622C86.9107 12.8207 88.5122 11.25 91.7156 11.25C94.8566 11.25 96.4277 12.8207 96.4277 15.9622V20.5819H101.232C104.374 20.5819 105.944 22.1835 105.944 25.3865C105.944 28.5896 104.374 30.1911 101.232 30.1911H96.4277V39.6154ZM153.713 91.08C154.945 87.6302 155.56 84.4273 155.56 81.4708C155.56 74.5099 152.696 68.5659 146.968 63.6384C141.301 58.6491 134.494 56.1542 126.548 56.1542C118.479 56.1542 111.611 58.6491 105.944 63.6384C100.277 68.5659 97.4441 74.5099 97.4441 81.4708C97.4441 88.4925 100.277 94.4674 105.944 99.3954C111.611 104.262 118.418 106.694 126.364 106.694C129.936 106.694 131.723 108.265 131.723 111.406C131.723 114.61 129.936 116.211 126.364 116.211C118.972 116.211 112.227 114.61 106.129 111.406C100.031 108.204 95.2262 103.984 91.7156 98.7486C88.1426 103.984 83.2764 108.204 77.1171 111.406C71.019 114.61 64.3354 116.211 57.0673 116.211C53.4944 116.211 51.7081 114.61 51.7081 111.406C51.7081 108.265 53.4944 106.694 57.0673 106.694C64.9513 106.694 71.7272 104.262 77.3938 99.3954C83.1223 94.4674 85.9871 88.4925 85.9871 81.4708C85.9871 74.5099 83.1223 68.5659 77.3938 63.6384C71.6653 58.6491 64.8281 56.1542 56.8823 56.1542C48.8131 56.1542 41.945 58.6491 36.278 63.6384C30.6111 68.5659 27.7777 74.5099 27.7777 81.4708C27.7777 84.8582 28.5476 88.092 30.0876 91.1723L53.9256 137.37H129.505L153.713 91.08ZM91.7156 64.1925C95.2262 58.9567 100.154 54.7067 106.499 51.442C102.064 49.9637 97.1359 49.2245 91.7156 49.2245C86.4799 49.2245 81.6137 49.9637 77.1171 51.442C83.2151 54.6451 88.0813 58.8954 91.7156 64.1925ZM164.246 93.4819L135.696 146.887H47.7351L19.1849 93.4819C17.645 89.5399 16.875 85.536 16.875 81.4708C16.875 71.8616 20.7556 63.6688 28.5168 56.8935C36.3396 50.0561 45.7948 46.6375 56.8823 46.6375C58.6688 46.6375 60.2702 46.7607 61.6866 47.0071C70.9262 42.1409 80.9359 39.7078 91.7156 39.7078C102.434 39.7078 112.443 42.1409 121.744 47.0071C123.099 46.7607 124.701 46.6375 126.548 46.6375C137.513 46.6375 146.906 50.0561 154.729 56.8935C162.614 63.6688 166.556 71.8616 166.556 81.4708C166.556 85.2896 165.786 89.2935 164.246 93.4819Z" fill="#2F402A"/>
<path d="M153.713 91.0795C154.945 87.6302 155.561 84.4273 155.561 81.4708C155.561 74.5099 152.697 68.566 146.968 63.6385C141.301 58.6491 134.495 56.1542 126.548 56.1542C118.479 56.1542 111.611 58.6491 105.945 63.6385C100.277 68.566 97.4441 74.5099 97.4441 81.4708C97.4441 88.4925 100.277 94.4674 105.945 99.3954C111.611 104.262 118.418 106.694 126.364 106.694C129.936 106.694 131.723 108.266 131.723 111.407C131.723 114.61 129.936 116.211 126.364 116.211C118.972 116.211 112.227 114.61 106.129 111.407C100.031 108.204 95.2268 103.984 91.7156 98.7486C88.1432 103.984 83.277 108.204 77.1171 111.407C71.019 114.61 64.336 116.211 57.0673 116.211C53.4947 116.211 51.7083 114.61 51.7083 111.407C51.7083 108.266 53.4947 106.694 57.0673 106.694C64.9519 106.694 71.7272 104.262 77.3944 99.3954C83.1229 94.4674 85.9871 88.4925 85.9871 81.4708C85.9871 74.5099 83.1229 68.566 77.3944 63.6385C71.6659 58.6491 64.8287 56.1542 56.8823 56.1542C48.8133 56.1542 41.9453 58.6491 36.2783 63.6385C30.6114 68.566 27.7779 74.5099 27.7779 81.4708C27.7779 84.8582 28.5479 88.092 30.0878 91.1723L53.9258 137.37H129.506L153.713 91.0795ZM91.7156 64.1925C95.2268 58.9568 100.154 54.7066 106.499 51.442C102.064 49.9637 97.1359 49.2245 91.7156 49.2245C86.4799 49.2245 81.6137 49.9637 77.1171 51.442C83.2151 54.645 88.0813 58.8954 91.7156 64.1925Z" fill="#FAE8C8"/>
</svg>
