<svg width="180" height="180" viewBox="0 0 180 180" fill="none" xmlns="http://www.w3.org/2000/svg">
<path d="M43.9673 155.886H131.928V168.729H43.9673V155.886ZM87.6701 96.1982C85.5759 96.1982 83.7894 97.7383 82.3112 100.818C80.8329 103.898 80.0938 107.624 80.0938 111.998C80.0938 116.433 80.8329 120.19 82.3112 123.27C83.7894 126.289 85.5759 127.798 87.6701 127.798C89.703 127.798 91.4586 126.289 92.9368 123.27C94.4769 120.19 95.247 116.433 95.247 111.998C95.247 107.624 94.4769 103.898 92.9368 100.818C91.4586 97.7383 89.703 96.1982 87.6701 96.1982ZM109.845 85.2958C112.063 88.2523 114.958 89.7306 118.531 89.7306C120.009 89.7306 121.672 89.361 123.52 88.6219L121.025 71.2513L109.845 85.2958ZM131.651 78.8276L156.874 57.6692C160.201 54.651 162.449 53.5423 163.619 54.3431C164.544 55.0207 164.513 57.3306 163.527 61.2726L131.835 149.603H44.0597L12.368 61.3654C11.0128 57.4228 10.8897 55.0822 11.9984 54.3431C13.1071 53.6039 15.3862 54.6819 18.8356 57.5769L44.3368 79.0127L47.5707 55.5442C47.7555 52.526 48.4946 50.8321 49.7882 50.4624C51.0817 50.0929 52.6216 51.1708 54.4079 53.6963L70.2073 73.746L84.6214 42.7936C85.7301 40.5146 86.8388 39.375 87.9474 39.375C89.0561 39.375 90.1958 40.5762 91.3663 42.9784L105.872 73.5615L121.395 53.6963C123.181 51.1708 124.752 50.0929 126.107 50.4624C127.339 50.8321 128.078 52.526 128.324 55.5442L131.651 78.8276ZM52.2829 88.4368C54.3156 89.2991 56.1018 89.7306 57.6416 89.7306C60.9064 89.7306 63.7397 88.3755 66.1421 85.6654L54.7775 71.2513L52.2829 88.4368Z" fill="#2F402A"/>
<path d="M87.6701 96.1982C85.576 96.1982 83.7895 97.7383 82.3112 100.818C80.833 103.898 80.0938 107.624 80.0938 111.998C80.0938 116.433 80.833 120.19 82.3112 123.27C83.7895 126.289 85.576 127.797 87.6701 127.797C89.703 127.797 91.458 126.289 92.9368 123.27C94.4764 120.19 95.2465 116.433 95.2465 111.998C95.2465 107.624 94.4764 103.898 92.9368 100.818C91.458 97.7383 89.703 96.1982 87.6701 96.1982ZM109.845 85.2953C112.062 88.2523 114.958 89.7306 118.53 89.7306C120.008 89.7306 121.672 89.361 123.519 88.6219L121.025 71.2513L109.845 85.2953ZM52.2826 88.4368C54.3153 89.2991 56.1016 89.7306 57.6416 89.7306C60.9064 89.7306 63.7397 88.3755 66.1421 85.6654L54.7773 71.2513L52.2826 88.4368Z" fill="#FDA77F"/>
</svg>
