<svg width="180" height="180" viewBox="0 0 180 180" fill="none" xmlns="http://www.w3.org/2000/svg">
<path d="M45.4457 91.9479L28.2601 77.9962L50.8046 140.086H124.998L147.635 77.9962L130.542 92.0402C126.6 94.8122 122.534 96.1982 118.345 96.1982C110.585 96.1982 104.856 92.6567 101.16 85.5726L87.9474 57.8542L74.9199 85.4803C71.2856 92.6257 65.5881 96.1982 57.8267 96.1982C53.5764 96.1982 49.4494 94.7812 45.4457 91.9479ZM43.9673 155.886H131.928V168.729H43.9673V155.886ZM87.6701 96.1982C89.703 96.1982 91.4586 97.7383 92.9368 100.818C94.4769 103.898 95.247 107.624 95.247 111.998C95.247 116.433 94.4769 120.19 92.9368 123.27C91.4586 126.289 89.703 127.798 87.6701 127.798C85.5759 127.798 83.79 126.289 82.3112 123.27C80.8329 120.19 80.0938 116.433 80.0938 111.998C80.0938 107.624 80.8329 103.898 82.3112 100.818C83.79 97.7383 85.5759 96.1982 87.6701 96.1982ZM110.492 82.9856C112.525 85.6344 115.143 86.9586 118.345 86.9586C119.886 86.9586 121.395 86.6199 122.873 85.9421L120.656 70.1426L110.492 82.9856ZM131.651 78.8276L156.874 57.6692C160.201 54.651 162.449 53.5423 163.619 54.3431C164.544 55.0207 164.513 57.3306 163.527 61.2726L131.835 149.603H44.0597L12.368 61.3654C11.0128 57.4228 10.8897 55.0822 11.9984 54.3431C13.1071 53.6039 15.3862 54.6819 18.8356 57.5769L44.3368 79.0127L47.5707 55.5442C47.7555 52.526 48.4946 50.8321 49.7882 50.4624C51.0817 50.0929 52.6216 51.1708 54.4079 53.6963L70.2073 73.746L84.6214 42.7936C85.7301 40.5146 86.8388 39.375 87.9474 39.375C89.0561 39.375 90.1958 40.5762 91.3663 42.9784L105.872 73.5615L121.395 53.6963C123.181 51.1708 124.752 50.0929 126.107 50.4624C127.339 50.8321 128.078 52.526 128.324 55.5442L131.651 78.8276ZM52.9297 85.8499C54.716 86.589 56.3484 86.9586 57.8267 86.9586C60.8451 86.9586 63.4011 85.7267 65.4953 83.2629L55.2396 70.1426L52.9297 85.8499Z" fill="#2F402A"/>
<path d="M45.4457 91.948L28.2601 77.9963L50.8046 140.086H124.998L147.635 77.9963L130.542 92.0402C126.6 94.8122 122.534 96.1982 118.346 96.1982C110.585 96.1982 104.856 92.6561 101.16 85.5726L87.9475 57.8543L74.92 85.4803C71.2856 92.6258 65.5881 96.1982 57.8267 96.1982C53.5765 96.1982 49.4495 94.7813 45.4457 91.948ZM87.6707 96.1982C89.703 96.1982 91.4586 97.7383 92.9368 100.818C94.477 103.898 95.247 107.624 95.247 111.998C95.247 116.433 94.477 120.191 92.9368 123.27C91.4586 126.289 89.703 127.798 87.6707 127.798C85.576 127.798 83.79 126.289 82.3118 123.27C80.833 120.191 80.0938 116.433 80.0938 111.998C80.0938 107.624 80.833 103.898 82.3118 100.818C83.79 97.7383 85.576 96.1982 87.6707 96.1982ZM110.492 82.9856C112.525 85.6345 115.143 86.9586 118.346 86.9586C119.886 86.9586 121.395 86.6199 122.873 85.9421L120.656 70.1426L110.492 82.9856ZM52.9297 85.8499C54.716 86.589 56.3485 86.9586 57.8267 86.9586C60.8451 86.9586 63.4011 85.7267 65.4953 83.263L55.2396 70.1426L52.9297 85.8499Z" fill="#FAE8C8"/>
</svg>
