<svg width="32" height="32" viewBox="0 0 32 32" fill="none" xmlns="http://www.w3.org/2000/svg">
<path d="M16.1418 28.6025H11C11.3063 27.4246 11.7186 26.2525 12.2369 25.0863C12.7552 23.9202 12.926 22.7893 12.7493 21.6938C12.655 20.9163 12.337 20.3568 11.7951 20.0152C11.265 19.6618 11 19.0905 11 18.3013C11 17.4767 11.2415 16.6992 11.7244 15.9689C12.2074 15.2386 12.6904 14.8498 13.1733 14.8027C13.7034 14.7674 14.0274 14.6614 14.1452 14.4847C14.263 14.2962 14.3219 14.0253 14.3219 13.6719C14.3219 13.3303 14.045 12.9003 13.4914 12.382C12.9377 11.8519 12.6609 11.3219 12.6609 10.7918C12.6609 9.9672 13.032 9.29576 13.7741 8.77745C14.528 8.25915 15.3172 8 16.1418 8C17.0135 8 17.8263 8.25915 18.5802 8.77745C19.3459 9.29576 19.7287 9.9672 19.7287 10.7918C19.7287 11.3219 19.4519 11.8519 18.8982 12.382C18.3446 12.9003 18.0678 13.3303 18.0678 13.6719C18.0678 14.0253 18.1208 14.2962 18.2268 14.4847C18.3446 14.6614 18.6685 14.7674 19.1986 14.8027C19.6816 14.8498 20.1645 15.2386 20.6475 15.9689C21.1422 16.6992 21.3896 17.4767 21.3896 18.3013C21.3896 19.0905 21.1187 19.6618 20.5768 20.0152C20.035 20.3568 19.7228 20.9163 19.6403 21.6938C19.4637 22.7893 19.6286 23.9202 20.1351 25.0863C20.6534 26.2525 21.0716 27.4246 21.3896 28.6025H16.1418ZM13.085 22.0649V22.6656H19.3046V22.0649H13.085ZM14.5516 13.7779V14.361H17.8204V13.7779H14.5516Z" fill="black"/>
<path d="M13.085 22.0648V22.6656H19.3047V22.0648H13.085ZM14.5516 13.7779V14.361H17.8204V13.7779H14.5516Z" fill="white"/>
</svg>
