<svg width="32" height="32" viewBox="0 0 32 32" fill="none" xmlns="http://www.w3.org/2000/svg">
<path d="M13.9087 8H17.4603V12.7354H20.9235V8H24.4751V15.8806L20.9235 17.4885V25.369L24.4751 26.977V28.6025H7V26.977L10.4455 25.369V17.4885L7 15.8806V8H10.4455V12.7354H13.9087V8ZM16.7535 8.70678H14.6332V13.4422H9.73876V8.70678H7.70678V15.4212L11.17 17.0291V25.8284L7.70678 27.4364V27.8781H23.7683V27.4364L20.2167 25.8284V17.0291L23.7683 15.4212V8.70678H21.6303V13.4422H16.7535V8.70678Z" fill="black"/>
<path d="M16.7535 8.70677H14.6332V13.4422H9.73877V8.70677H7.70679V15.4212L11.17 17.0291V25.8284L7.70679 27.4364V27.8781H23.7683V27.4364L20.2167 25.8284V17.0291L23.7683 15.4212V8.70677H21.6303V13.4422H16.7535V8.70677Z" fill="white"/>
</svg>
