<svg width="256" height="256" viewBox="0 0 256 256" fill="none" xmlns="http://www.w3.org/2000/svg">
<path fill-rule="evenodd" clip-rule="evenodd" d="M72.1363 11.668L42.22 16.0632C41.2444 16.2059 40.3511 16.6902 39.6994 17.4301C39.0477 18.17 38.6796 19.1172 38.6612 20.103L37.8825 61.1363C37.8824 61.1542 37.8824 61.172 37.8825 61.1899L37.3628 104.723C37.3545 105.421 37.5219 106.109 37.8492 106.726C38.1764 107.342 38.6531 107.865 39.2357 108.249L54.843 118.523C54.8607 118.542 54.8786 118.56 54.8966 118.578C60.5293 122.173 63.9168 124.003 65.4408 125.888C66.798 127.569 67.5113 130.415 67.6137 136.208C54.2849 146.314 44.4737 159.51 40.8638 174.459C40.7164 175.071 40.7097 175.708 40.8442 176.323C40.9787 176.938 41.2508 177.515 41.6401 178.009C42.0295 178.504 42.526 178.903 43.0921 179.178C43.6583 179.453 44.2797 179.596 44.909 179.596H47.4617C47.4646 179.644 47.4617 179.659 47.4617 179.693H207.734C207.737 179.644 207.734 179.63 207.734 179.596H212.47C213.096 179.596 213.714 179.454 214.278 179.181C214.843 178.909 215.338 178.513 215.727 178.022C216.117 177.532 216.391 176.959 216.529 176.348C216.666 175.737 216.664 175.103 216.522 174.493C212.819 158.548 202.282 144.554 187.838 134.208C187.784 131.229 187.837 128.483 188.018 127.3C188.135 126.592 188.218 126.287 188.252 126.17C188.252 126.17 188.194 126.224 188.184 126.224C188.277 126.146 188.296 126.058 188.252 126.17C190.535 124.686 197.145 120.361 203.436 116.438L215.407 108.867C216.008 108.487 216.501 107.961 216.84 107.336C217.179 106.712 217.353 106.011 217.345 105.301L216.826 61.4959C216.826 61.4951 216.826 61.4967 216.826 61.4959C216.826 61.4951 216.826 61.4913 216.826 61.4905C216.826 61.4897 216.826 61.4913 216.826 61.4905C216.826 61.4895 216.826 61.4861 216.826 61.4852C216.826 61.4844 216.826 61.4788 216.826 61.478C216.826 61.477 216.826 61.4713 216.826 61.4703L216.045 20.1626C216.026 19.1775 215.658 18.2313 215.007 17.492C214.356 16.7527 213.463 16.2683 212.488 16.1252L182.572 11.727C181.981 11.6406 181.378 11.6829 180.805 11.8502C180.231 12.0175 179.7 12.306 179.248 12.6967C178.796 13.0874 178.434 13.5709 178.186 14.1142C177.937 14.6574 177.809 15.248 177.809 15.8454V38.9954H157.527L156.985 30.1954L156.203 17.2187C156.139 16.1604 155.674 15.1662 154.902 14.4392C154.131 13.7122 153.111 13.3077 152.05 13.3075H102.622C101.562 13.3076 100.542 13.7122 99.7697 14.4392C98.9977 15.1662 98.5325 16.1603 98.4689 17.2187L97.6902 30.1954L97.1485 38.9954H76.8661L76.8631 15.8454C76.8631 15.2979 76.7551 14.7555 76.5452 14.2499C76.3353 13.7443 76.028 13.2857 75.6404 12.8991C75.2527 12.5126 74.7922 12.2062 74.286 11.9978C73.7798 11.7894 73.2374 11.6826 72.69 11.6841C72.4906 11.6877 72.292 11.7056 72.0953 11.7377L72.1363 11.668ZM49.5483 193.455C49.5483 193.504 49.5483 193.523 49.5483 193.558H43.8124C42.7089 193.558 41.6507 193.996 40.8704 194.776C40.0901 195.556 39.6519 196.615 39.6518 197.718C39.6518 207.052 39.8418 218.307 44.9566 227.834C50.0705 237.361 60.635 244.331 78.0794 244.331H180.176C197.636 244.331 208.205 237.255 213.319 227.691C218.433 218.128 218.636 206.873 218.636 197.718C218.636 196.615 218.198 195.557 217.418 194.777C216.637 193.996 215.58 193.558 214.476 193.558H205.708C205.708 193.509 205.708 193.489 205.708 193.455H49.5483Z" fill="#808080"/>
<path fill-rule="evenodd" clip-rule="evenodd" d="M51.1362 163.305C51.0826 165.02 51.0535 166.743 51.0535 168.473C51.0535 230.787 86.7128 228.738 128.322 228.738C169.931 228.738 204.143 230.787 204.143 168.473C204.143 166.743 204.09 165.02 204.065 163.305H51.1362Z" fill="url(#paint0_linear_701_42)"/>
<path d="M180.197 240.169C213.061 240.169 214.494 215.807 214.494 197.718H43.834C43.834 216.175 45.2363 240.169 78.0998 240.169H180.197Z" fill="url(#paint1_linear_701_42)"/>
<path fill-rule="evenodd" clip-rule="evenodd" d="M72.7441 15.8278L42.826 20.2248C42.17 48.4103 41.8624 76.6007 41.5264 104.792L57.1355 115.067C68.0518 122.036 72.0788 122.316 71.894 138.036C58.2116 147.83 48.4142 160.917 44.9102 175.431H212.491C208.898 159.966 198.41 146.121 183.654 136.153C183.346 127.111 184.029 124.173 185.647 122.909C187.728 121.558 194.753 116.961 201.257 112.905L213.225 105.333C213.01 76.9605 212.461 48.5927 211.926 20.2248L182.011 15.8278V43.1402H153.653L152.092 17.4506H102.663L101.104 43.1402H72.7459L72.7441 15.8278Z" fill="url(#paint2_radial_701_42)"/>
<path d="M177.032 77.0861H77.7184C74.9581 77.0861 72.7201 79.3235 72.7201 82.0838V94.558C72.7201 97.3183 74.9581 99.5563 77.7184 99.5563H177.032C179.793 99.5563 182.031 97.3183 182.031 94.558V82.0838C182.031 79.3235 179.793 77.0861 177.032 77.0861Z" fill="#BD2626"/>
<defs>
<linearGradient id="paint0_linear_701_42" x1="56.9483" y1="-57.1786" x2="198.349" y2="-57.1786" gradientUnits="userSpaceOnUse">
<stop stop-color="#C21C1C"/>
<stop offset="0.190644" stop-color="#DF5655"/>
<stop offset="0.246967" stop-color="#F99A9A"/>
<stop offset="0.298072" stop-color="#F79090"/>
<stop offset="0.342166" stop-color="#E65D5D"/>
<stop offset="0.415058" stop-color="#E65656"/>
<stop offset="0.492164" stop-color="#E65656"/>
<stop offset="0.584086" stop-color="#D34040"/>
<stop offset="0.67331" stop-color="#BA2323"/>
<stop offset="0.728321" stop-color="#B52121"/>
<stop offset="0.798373" stop-color="#C34747"/>
<stop offset="0.846643" stop-color="#E08E8E"/>
<stop offset="0.905813" stop-color="#F6C1C1"/>
<stop offset="0.960237" stop-color="#D16E6E"/>
<stop offset="1" stop-color="#C24B4B"/>
</linearGradient>
<linearGradient id="paint1_linear_701_42" x1="142.249" y1="204.331" x2="142.249" y2="274.104" gradientUnits="userSpaceOnUse">
<stop stop-color="#0D0D0D"/>
<stop offset="1" stop-color="#4D4D4D"/>
</linearGradient>
<radialGradient id="paint2_radial_701_42" cx="0" cy="0" r="1" gradientUnits="userSpaceOnUse" gradientTransform="translate(127.596 180.415) scale(265.38 175.934)">
<stop stop-color="#0D0D0D"/>
<stop offset="1" stop-color="#333333"/>
</radialGradient>
</defs>
</svg>
