<svg width="32" height="32" viewBox="0 0 32 32" fill="none" xmlns="http://www.w3.org/2000/svg">
<path d="M16.7287 5.25362C17.2872 5.47608 17.6782 5.78309 17.9016 6.17464C16.7008 6.38821 15.9654 6.89544 15.6955 7.69633C15.4255 8.49722 15.3604 9.21802 15.5 9.85873C15.5559 9.3248 15.998 8.79088 16.8265 8.25695C17.6642 7.71413 18.4136 7.41602 19.0745 7.36262C19.2886 7.81646 19.4515 8.36374 19.5632 9.00445C19.6749 9.64516 19.7261 10.2102 19.7168 10.6997C19.6795 11.901 19.242 12.9021 18.4043 13.703C17.5758 14.5039 16.5751 14.9043 15.4023 14.9043C14.2294 14.9043 13.2241 14.5039 12.3863 13.703C11.5485 12.9021 11.1157 11.901 11.0878 10.6997C11.0505 9.09789 11.4461 7.74972 12.2746 6.65517C13.1031 5.55172 14.141 5 15.3883 5C15.8723 5 16.3191 5.08454 16.7287 5.25362V5.25362ZM19.7866 22.1657C19.7866 22.7709 20.1031 23.0734 20.736 23.0734H21.9229C22.7141 23.0734 23.1097 23.4516 23.1097 24.208C23.1097 24.9733 22.7141 25.356 21.9229 25.356H9.07713C8.2766 25.356 7.87633 24.9733 7.87633 24.208C7.87633 23.4516 8.2766 23.0734 9.07713 23.0734H10.264C10.8876 23.0734 11.1995 22.7709 11.1995 22.1657V18.9755H19.7866V22.1657ZM9.78923 15.7853H21.2247C22.0253 15.7853 22.4255 16.1635 22.4255 16.9199C22.4255 17.6852 22.0253 18.0679 21.2247 18.0679H9.78923C8.99801 18.0679 8.60239 17.6852 8.60239 16.9199C8.60239 16.1635 8.99801 15.7853 9.78923 15.7853ZM6.43816 26.2636H24.5618C25.5206 26.2636 26 26.7175 26 27.6251C26 28.5417 25.5206 29 24.5618 29H6.43816C5.47939 29 5 28.5417 5 27.6251C5 26.7175 5.47939 26.2636 6.43816 26.2636Z" fill="black"/>
</svg>
