<svg width="32" height="32" viewBox="0 0 32 32" fill="none" xmlns="http://www.w3.org/2000/svg">
<path d="M16.5283 4.7657C15.5438 4.68366 14.6414 5.20779 13.821 6.33811C13.0098 7.4593 12.7272 8.71268 12.9733 10.0982C12.8639 10.9095 13.1738 11.657 13.9031 12.3406C14.6323 13.0243 15.4253 13.3661 16.2822 13.3661C17.1299 13.3661 17.9184 13.079 18.6476 12.5047C19.3769 11.9304 19.7552 11.1283 19.7825 10.0982C19.7825 9.6698 19.7688 9.17756 19.7415 8.62152C19.7142 8.06548 19.6139 7.6325 19.4407 7.32257C18.5565 7.14938 17.8455 7.44107 17.3077 8.19765C17.1071 8.47112 16.8975 8.73546 16.6787 8.9907C16.4599 9.23681 16.3095 9.51027 16.2275 9.81108C16.1272 9.41912 15.9996 9.0545 15.8447 8.71723C15.6988 8.37085 15.6623 7.93786 15.7353 7.41828C15.7991 6.91694 16.027 6.44749 16.4189 6.00995C16.82 5.56329 17.2256 5.28072 17.6358 5.16222C17.6358 5.06195 17.4307 4.96168 17.0205 4.86141C16.8656 4.78848 16.7835 4.75658 16.7744 4.7657C16.7744 4.7657 16.6924 4.7657 16.5283 4.7657ZM17.6358 4.25979C18.1828 4.48767 18.5656 4.80216 18.7844 5.20324C18.2648 5.43112 17.7088 5.83676 17.1163 6.42015C16.5238 7.00353 16.2959 7.62338 16.4326 8.27969C16.4873 7.73277 16.9203 7.25876 17.7315 6.85769C18.5519 6.45661 19.2903 6.31076 19.9466 6.42015C20.1471 6.89415 20.3021 7.4593 20.4115 8.11561C20.5209 8.76281 20.5756 9.34164 20.5756 9.8521C20.5391 11.0736 20.1107 12.0945 19.2903 12.9149C18.4699 13.7353 17.4854 14.1455 16.3369 14.1455C15.1883 14.1455 14.2039 13.7353 13.3835 12.9149C12.5631 12.0945 12.1392 11.0736 12.1119 9.8521C12.0754 8.21133 12.4628 6.82578 13.2741 5.69547C14.0854 4.56516 15.1063 4 16.3369 4C16.7835 4 17.2165 4.0866 17.6358 4.25979ZM7.39465 26.4923C6.93888 26.4923 6.71099 26.7248 6.71099 27.1896C6.71099 27.6545 6.93888 27.887 7.39465 27.887H25.1561C25.6209 27.887 25.8534 27.6545 25.8534 27.1896C25.8534 26.7248 25.6209 26.4923 25.1561 26.4923H7.39465ZM7.40833 25.795H25.1561C26.095 25.795 26.5644 26.2599 26.5644 27.1896C26.5644 28.1285 26.095 28.598 25.1561 28.598H7.40833C6.46945 28.598 6 28.1285 6 27.1896C6 26.2599 6.46945 25.795 7.40833 25.795ZM10.6762 15.7589C10.3663 15.7589 10.2113 15.9139 10.2113 16.2238C10.2113 16.5337 10.3663 16.6887 10.6762 16.6887H21.8882C22.1981 16.6887 22.3531 16.5337 22.3531 16.2238C22.3531 15.9139 22.1981 15.7589 21.8882 15.7589H10.6762ZM10.6899 15.0616H21.8882C22.6721 15.0616 23.0641 15.449 23.0641 16.2238C23.0641 17.0077 22.6721 17.3997 21.8882 17.3997H10.6899C9.91508 17.3997 9.52767 17.0077 9.52767 16.2238C9.52767 15.449 9.91508 15.0616 10.6899 15.0616ZM19.7825 21.5973V19.0268H12.7819V21.5973C12.7819 22.0531 12.6178 22.4405 12.2896 22.7595C11.9706 23.0695 11.5923 23.2244 11.1548 23.2244H9.99256C9.68263 23.2244 9.52767 23.3794 9.52767 23.6893C9.52767 23.9992 9.68263 24.1542 9.99256 24.1542H22.5992C22.9091 24.1542 23.0641 23.9992 23.0641 23.6893C23.0641 23.3794 22.9091 23.2244 22.5992 23.2244H21.4096C20.9539 23.2244 20.5664 23.0695 20.2474 22.7595C19.9284 22.4405 19.7734 22.0531 19.7825 21.5973ZM20.4799 21.5973C20.4799 22.2172 20.7898 22.5271 21.4096 22.5271H22.5718C23.3467 22.5271 23.7341 22.9145 23.7341 23.6893C23.7341 24.4732 23.3467 24.8652 22.5718 24.8652H9.99256C9.20863 24.8652 8.81667 24.4732 8.81667 23.6893C8.81667 22.9145 9.20863 22.5271 9.99256 22.5271H11.1548C11.7655 22.5271 12.0709 22.2172 12.0709 21.5973V18.3294H20.4799V21.5973Z" fill="black"/>
<path d="M16.5283 4.7657C15.5438 4.68366 14.6414 5.2078 13.821 6.33811C13.0097 7.4593 12.7271 8.71268 12.9733 10.0982C12.8639 10.9095 13.1738 11.657 13.903 12.3406C14.6323 13.0243 15.4253 13.3661 16.2822 13.3661C17.1299 13.3661 17.9184 13.079 18.6476 12.5047C19.3769 11.9304 19.7551 11.1283 19.7825 10.0982C19.7825 9.6698 19.7688 9.17756 19.7415 8.62152C19.7141 8.06548 19.6139 7.6325 19.4407 7.32257C18.5565 7.14938 17.8455 7.44107 17.3077 8.19766C17.1071 8.47112 16.8975 8.73547 16.6787 8.9907C16.4599 9.23681 16.3095 9.51028 16.2275 9.81109C16.1272 9.41912 15.9996 9.0545 15.8446 8.71723C15.6988 8.37085 15.6623 7.93787 15.7352 7.41829C15.799 6.91694 16.0269 6.44749 16.4189 6.00995C16.82 5.5633 17.2256 5.28072 17.6358 5.16222C17.6358 5.06195 17.4307 4.96168 17.0205 4.86141C16.8656 4.78849 16.7835 4.75658 16.7744 4.7657C16.7744 4.7657 16.6924 4.7657 16.5283 4.7657ZM7.39463 26.4923C6.93885 26.4923 6.71097 26.7248 6.71097 27.1896C6.71097 27.6545 6.93885 27.887 7.39463 27.887H25.156C25.6209 27.887 25.8534 27.6545 25.8534 27.1896C25.8534 26.7248 25.6209 26.4923 25.156 26.4923H7.39463ZM10.6762 15.7589C10.3663 15.7589 10.2113 15.9139 10.2113 16.2238C10.2113 16.5337 10.3663 16.6887 10.6762 16.6887H21.8882C22.1981 16.6887 22.353 16.5337 22.353 16.2238C22.353 15.9139 22.1981 15.7589 21.8882 15.7589H10.6762ZM19.7825 21.5973V19.0268H12.7819V21.5973C12.7819 22.0531 12.6178 22.4405 12.2896 22.7595C11.9706 23.0695 11.5923 23.2244 11.1547 23.2244H9.99253C9.68261 23.2244 9.52764 23.3794 9.52764 23.6893C9.52764 23.9992 9.68261 24.1542 9.99253 24.1542H22.5992C22.9091 24.1542 23.0641 23.9992 23.0641 23.6893C23.0641 23.3794 22.9091 23.2244 22.5992 23.2244H21.4096C20.9538 23.2244 20.5664 23.0695 20.2474 22.7595C19.9283 22.4405 19.7734 22.0531 19.7825 21.5973Z" fill="white"/>
</svg>
