<svg width="180" height="180" viewBox="0 0 180 180" fill="none" xmlns="http://www.w3.org/2000/svg">
<path d="M89.8577 54.1683H84.5173V42.5513H77.9985C76.113 42.5513 75.1708 41.6655 75.1708 39.8938C75.1708 38.1728 76.0607 37.3123 77.841 37.3123L84.5173 37.3883V30.7065C84.5173 28.9855 85.4072 28.125 87.1875 28.125C88.9678 28.125 89.8577 28.9855 89.8577 30.7065V37.3883L96.6909 37.3123C98.4189 37.3123 99.2829 38.1728 99.2829 39.8938C99.2829 41.6655 98.4189 42.5513 96.6909 42.5513H89.8577V54.1683ZM87.1875 82.7932L63.0754 82.8692L52.5511 70.7968C51.1897 69.0756 49.5142 67.1012 47.5245 64.8743C45.5872 62.5961 44.4615 60.7742 44.1473 59.4073C43.7284 58.0404 44.1472 56.826 45.4039 55.7628C46.7129 54.6998 48.1529 54.1683 49.7236 54.1683H87.1875L124.651 54.0924C126.222 54.0924 127.61 54.6239 128.814 55.6869C130.071 56.7501 130.542 57.9645 130.228 59.3314C129.809 60.7489 128.604 62.5708 126.615 64.7983C124.678 67.0253 123.054 68.9996 121.745 70.7209L111.3 82.7932H87.1875ZM111.3 124.25C111.3 127.692 113.08 129.413 116.64 129.413H123.316C127.767 129.413 129.992 131.564 129.992 135.867C129.992 140.22 127.767 142.397 123.316 142.397H51.0589C46.5559 142.397 44.3044 140.22 44.3044 135.867C44.3044 131.564 46.5559 129.413 51.0589 129.413H57.735C61.2427 129.413 62.9972 127.692 62.9972 124.25V106.103H111.3V124.25ZM55.0644 87.9564H119.389C123.892 87.9564 126.143 90.1074 126.143 94.41C126.143 98.7632 123.892 100.94 119.389 100.94H55.0644C50.6138 100.94 48.3884 98.7632 48.3884 94.41C48.3884 90.1074 50.6138 87.9564 55.0644 87.9564ZM36.2146 147.559H138.16C143.553 147.559 146.25 150.141 146.25 155.305C146.25 160.518 143.553 163.125 138.16 163.125H36.2146C30.8216 163.125 28.125 160.518 28.125 155.305C28.125 150.141 30.8216 147.559 36.2146 147.559Z" fill="black"/>
</svg>
