<svg width="32" height="32" viewBox="0 0 32 32" fill="none" xmlns="http://www.w3.org/2000/svg">
<path d="M7.39464 26.7558C6.93887 26.7558 6.71099 26.9883 6.71099 27.4532C6.71099 27.918 6.93887 28.1505 7.39464 28.1505H25.156C25.6209 28.1505 25.8534 27.918 25.8534 27.4532C25.8534 26.9883 25.6209 26.7558 25.156 26.7558H7.39464ZM7.40832 26.0585H25.156C26.0949 26.0585 26.5644 26.5234 26.5644 27.4532C26.5644 28.392 26.0949 28.8615 25.156 28.8615H7.40832C6.46943 28.8615 6 28.392 6 27.4532C6 26.5234 6.46943 26.0585 7.40832 26.0585ZM10.6762 16.0224C10.3663 16.0224 10.2113 16.1774 10.2113 16.4873C10.2113 16.7972 10.3663 16.9522 10.6762 16.9522H21.8882C22.1981 16.9522 22.3531 16.7972 22.3531 16.4873C22.3531 16.1774 22.1981 16.0224 21.8882 16.0224H10.6762ZM10.6899 15.3251H21.8882C22.6721 15.3251 23.0641 15.7125 23.0641 16.4873C23.0641 17.2712 22.6721 17.6632 21.8882 17.6632H10.6899C9.91506 17.6632 9.52767 17.2712 9.52767 16.4873C9.52767 15.7125 9.91506 15.3251 10.6899 15.3251ZM19.7825 21.8608V19.2903H12.7819V21.8608C12.7819 22.3166 12.6178 22.704 12.2896 23.0231C11.9706 23.333 11.5923 23.4879 11.1548 23.4879H9.99256C9.68263 23.4879 9.52767 23.6429 9.52767 23.9528C9.52767 24.2628 9.68263 24.4177 9.99256 24.4177H22.5992C22.9091 24.4177 23.0641 24.2628 23.0641 23.9528C23.0641 23.6429 22.9091 23.4879 22.5992 23.4879H21.4096C20.9538 23.4879 20.5664 23.333 20.2474 23.0231C19.9284 22.704 19.7734 22.3166 19.7825 21.8608ZM20.4798 21.8608C20.4798 22.4807 20.7898 22.7906 21.4096 22.7906H22.5718C23.3467 22.7906 23.734 23.178 23.734 23.9528C23.734 24.7368 23.3467 25.1287 22.5718 25.1287H9.99256C9.20863 25.1287 8.81667 24.7368 8.81667 23.9528C8.81667 23.178 9.20863 22.7906 9.99256 22.7906H11.1548C11.7655 22.7906 12.0709 22.4807 12.0709 21.8608V18.593H20.4798V21.8608ZM16.2822 6.711C15.316 6.711 14.491 7.05283 13.8073 7.73649C13.1328 8.42015 12.7955 9.24054 12.7955 10.1977C12.7955 11.1639 13.1328 11.9888 13.8073 12.6725C14.491 13.347 15.316 13.6843 16.2822 13.6843C17.2393 13.6843 18.0597 13.347 18.7434 12.6725C19.427 11.9888 19.7688 11.1639 19.7688 10.1977C19.7688 9.24054 19.427 8.42015 18.7434 7.73649C18.0597 7.05283 17.2393 6.711 16.2822 6.711ZM16.2822 6C17.4307 6 18.4152 6.41475 19.2356 7.24426C20.0651 8.06464 20.4798 9.04911 20.4798 10.1977C20.4798 11.3553 20.0651 12.3443 19.2356 13.1647C18.4152 13.9851 17.4307 14.3953 16.2822 14.3953C15.1245 14.3953 14.1355 13.9851 13.3151 13.1647C12.4947 12.3443 12.0845 11.3553 12.0845 10.1977C12.0845 9.04911 12.4947 8.06464 13.3151 7.24426C14.1355 6.41475 15.1245 6 16.2822 6Z" fill="black"/>
<path d="M7.39463 26.7558C6.93885 26.7558 6.71097 26.9883 6.71097 27.4532C6.71097 27.9181 6.93885 28.1505 7.39463 28.1505H25.156C25.6209 28.1505 25.8534 27.9181 25.8534 27.4532C25.8534 26.9883 25.6209 26.7558 25.156 26.7558H7.39463ZM10.6762 16.0224C10.3663 16.0224 10.2113 16.1774 10.2113 16.4873C10.2113 16.7972 10.3663 16.9522 10.6762 16.9522H21.8882C22.1981 16.9522 22.353 16.7972 22.353 16.4873C22.353 16.1774 22.1981 16.0224 21.8882 16.0224H10.6762ZM19.7825 21.8609V19.2903H12.7819V21.8609C12.7819 22.3166 12.6178 22.704 12.2896 23.0231C11.9706 23.333 11.5923 23.488 11.1547 23.488H9.99254C9.68262 23.488 9.52765 23.6429 9.52765 23.9528C9.52765 24.2628 9.68262 24.4177 9.99254 24.4177H22.5992C22.9091 24.4177 23.0641 24.2628 23.0641 23.9528C23.0641 23.6429 22.9091 23.488 22.5992 23.488H21.4096C20.9538 23.488 20.5664 23.333 20.2474 23.0231C19.9284 22.704 19.7734 22.3166 19.7825 21.8609ZM16.2822 6.71101C15.3159 6.71101 14.491 7.05284 13.8073 7.7365C13.1328 8.42016 12.7955 9.24055 12.7955 10.1977C12.7955 11.1639 13.1328 11.9888 13.8073 12.6725C14.491 13.347 15.3159 13.6843 16.2822 13.6843C17.2393 13.6843 18.0597 13.347 18.7433 12.6725C19.427 11.9888 19.7688 11.1639 19.7688 10.1977C19.7688 9.24055 19.427 8.42016 18.7433 7.7365C18.0597 7.05284 17.2393 6.71101 16.2822 6.71101Z" fill="white"/>
</svg>
