<svg width="256" height="256" viewBox="0 0 256 256" fill="none" xmlns="http://www.w3.org/2000/svg">
<path fill-rule="evenodd" clip-rule="evenodd" d="M114.388 54.6323C114.757 47.6008 120.586 42 127.711 42C134.836 42 140.665 47.5993 141.034 54.6323C149.192 57.0849 156.531 61.7355 162.501 67.9661L123.918 106.549C122.93 107.538 122.376 108.878 122.376 110.275C122.376 111.673 122.931 113.012 123.918 114C123.918 114 123.918 114.002 123.92 114.002C126.029 116.11 129.451 116.11 131.561 114.002L169.145 76.421C174.983 85.5537 178.414 96.6925 178.414 108.713C178.414 121.839 174.322 133.916 167.471 143.473L194.425 212.786V234.134H61V212.786L87.9546 143.473C81.1045 133.916 77.011 121.839 77.011 108.713C77.011 82.8806 92.8582 61.1064 114.39 54.6334L114.388 54.6323Z" fill="url(#paint0_angular_1_82)" stroke="black" stroke-width="5"/>
<defs>
<radialGradient id="paint0_angular_1_82" cx="0" cy="0" r="1" gradientUnits="userSpaceOnUse" gradientTransform="translate(127.713 138.067) rotate(90) scale(96.0669 66.7127)">
<stop stop-color="white"/>
<stop offset="1" stop-color="#D7D7D7"/>
</radialGradient>
</defs>
</svg>
