<svg width="256" height="256" viewBox="0 0 256 256" fill="none" xmlns="http://www.w3.org/2000/svg">
<path fill-rule="evenodd" clip-rule="evenodd" d="M136.844 54.2109H157.055V71.5346H136.844V84.3017L154.779 104.756C156.692 106.941 159.93 107.361 162.342 105.742C168.193 101.812 179.026 94.5328 187.64 88.7471C189.636 87.4082 192.253 87.442 194.209 88.8373C196.168 90.2326 197.057 92.6946 196.442 95.0177C189.18 122.448 174.378 178.365 174.378 178.365L200.364 218.724V241.885H56V218.724L81.9855 178.365C81.9855 178.365 67.1832 122.447 59.9217 95.0177C59.3079 92.6944 60.1973 90.2323 62.1549 88.8373C64.1109 87.442 66.7292 87.4082 68.7238 88.7471C77.3374 94.5328 88.1696 101.814 94.0213 105.742C96.4333 107.361 99.6717 106.941 101.584 104.756L119.52 84.3017V71.5346H99.3092V54.2109H119.52V34H136.844L136.844 54.2109Z" fill="url(#paint0_angular_1_61)" stroke="black" stroke-width="5"/>
<defs>
<radialGradient id="paint0_angular_1_61" cx="0" cy="0" r="1" gradientUnits="userSpaceOnUse" gradientTransform="translate(128.182 137.943) rotate(90) scale(103.943 72.1819)">
<stop stop-color="white"/>
<stop offset="1" stop-color="#D7D7D7"/>
</radialGradient>
</defs>
</svg>
