<svg width="128" height="128" viewBox="0 0 128 128" fill="none" xmlns="http://www.w3.org/2000/svg">
<g clip-path="url(#clip0_15_19)">
<path d="M114.252 111.198C113.019 116.404 109.952 120.74 105.724 123.525C102.348 125.756 98.4439 126.991 94.5542 127.576C92.6313 127.861 90.6645 128.083 88.7122 127.972C88.2865 127.956 87.9489 127.766 87.714 127.497V127.481C87.259 127.054 87.0535 126.358 87.4204 125.646C87.4645 125.551 87.5085 125.456 87.5672 125.361C87.6406 125.218 87.6993 125.076 87.758 124.933C87.7727 124.902 87.7874 124.87 87.8021 124.854C87.8021 124.838 87.8168 124.838 87.8168 124.823C87.8314 124.775 87.8461 124.744 87.8461 124.744C87.8461 124.744 87.8314 124.759 87.8314 124.775C87.8755 124.664 87.9195 124.554 87.9489 124.443C88.081 124.063 88.1984 123.683 88.3011 123.304C88.9323 121.072 89.2259 118.904 89.3433 116.626C89.4314 114.901 89.4167 113.176 89.3286 111.451C89.2259 109.663 89.0644 107.922 89.2259 106.134C89.4901 103.27 90.2974 100.485 91.9265 98.1899C93.365 96.1485 95.2585 94.7086 97.4454 93.7273C97.783 93.5849 98.1206 93.6324 98.4289 93.7906C101.996 94.6768 105.548 95.563 109.115 96.4492C109.687 96.5916 110.274 96.7182 110.832 96.8764C111.947 97.1929 112.652 98.6488 113.151 99.6932C114.912 103.254 115.177 107.336 114.252 111.198L114.252 111.198Z" fill="#00AD88"/>
<path d="M127.948 20.5561C127.933 20.6352 127.933 20.6985 127.918 20.7776C127.918 20.8409 127.904 20.92 127.904 20.9833C127.904 21.0308 127.889 21.0783 127.889 21.1258C127.463 24.4487 127.008 27.772 126.583 31.1109C125.761 37.3297 124.954 43.5486 124.132 49.7677C123.383 55.512 122.62 61.2402 121.871 66.9685C121.372 70.7979 121.079 74.7858 119.787 78.4094C118.936 80.7989 117.864 83.1251 116.881 85.4512C116.015 87.5242 115.149 89.5812 114.283 91.6545C114.019 92.3032 113.211 92.5248 112.624 92.3824C112.066 92.2399 111.494 92.0975 110.936 91.9709C106.959 90.9898 102.995 89.9929 99.0178 89.0117C98.3866 88.8534 97.9463 88.1572 97.9463 87.4925C97.9463 87.2552 97.961 87.0178 97.961 86.7805C98.049 83.5206 98.1371 80.2451 98.2105 76.9852C98.2986 73.7412 98.5187 70.5606 99.4434 67.443C100.618 63.5029 101.792 59.5627 102.981 55.6222C105.065 48.6597 107.135 41.6969 109.219 34.7501C110.775 29.528 112.345 24.3219 113.901 19.0999C114.488 17.1535 115.061 15.2387 116.558 13.8145C118.657 11.8207 121.578 11.2668 124.132 12.5802C126.847 13.9728 128.3 17.3908 127.948 20.5555L127.948 20.5561Z" fill="#00AD88"/>
<path d="M79.8781 6.69392C75.2692 3.21266 69.7505 0.918065 64.1434 0.300867C58.1695 -0.363757 52.049 0.0951524 46.1923 1.45604C35.727 3.87714 25.9663 9.51057 18.2175 17.4543C10.4968 25.3665 4.81646 35.5889 2.04232 46.6967C-0.863868 58.2166 -0.673038 70.6705 2.64412 82.0792C5.81441 93.0297 11.7884 103.015 19.7731 110.61C27.8167 118.253 37.7683 123.539 48.3519 125.533C51.1408 126.055 53.9734 126.387 56.8064 126.482C59.6833 126.577 62.5159 126.34 65.202 125.153C70.5302 122.811 74.6692 117.81 75.9317 111.718C76.6656 108.173 76.5188 104.36 75.3446 100.926C74.6841 99.011 73.7887 97.3337 72.5997 95.7512C71.5135 94.2954 70.5301 93.3142 69.6788 91.7317C68.1669 88.8833 67.6385 85.845 67.9615 82.4272C67.9615 82.4113 67.9761 82.3322 67.9761 82.2847V82.2689V82.2531V82.2373V82.2214C68.0055 82.0632 68.0202 81.9208 68.0495 81.7784C68.1082 81.4303 68.1816 81.0821 68.255 80.7498C68.3431 80.37 68.4458 80.0061 68.5632 79.6263C68.6219 79.4364 68.6807 79.2623 68.7394 79.0724C68.754 79.0091 68.9302 78.5661 68.9302 78.5661C69.1797 77.9489 69.4732 77.3318 69.7962 76.7463C69.9576 76.4456 70.1338 76.1608 70.3099 75.8759C70.4273 75.686 70.5594 75.4961 70.6769 75.3221C70.7209 75.2746 70.7356 75.2271 70.7503 75.2113C70.6769 75.2904 70.7649 75.1797 70.7649 75.1797C70.7649 75.1797 70.7649 75.1955 70.7503 75.2113C70.7649 75.1955 70.809 75.148 70.853 75.0847C71.2933 74.5309 71.7337 74.0086 72.218 73.5181C72.4529 73.2807 72.6877 73.0592 72.9226 72.8377C72.9373 72.8218 73.2015 72.6003 73.2455 72.5528C73.3776 72.442 73.5097 72.3471 73.6418 72.2363C74.9775 71.2236 76.504 70.5906 77.8983 69.6886C80.4082 68.0587 82.7713 66.065 84.8261 63.8179C89.0386 59.213 92.1356 53.4056 93.677 47.155C94.4403 44.0218 94.8219 40.7619 94.8365 37.5179V37.4863C94.8072 25.2225 89.171 13.7182 79.8797 6.69293L79.8781 6.69392ZM24.9375 75.8299C20.2846 73.9627 17.1584 69.263 17.0556 63.9142V63.8035V63.7876V63.6294C17.173 57.7586 21.092 52.3624 26.5375 51.2391C31.4692 50.2264 36.533 52.5525 39.1311 57.2207C41.7438 61.9204 41.142 67.8861 37.9569 72.0638C34.9186 76.0833 29.4436 77.6499 24.9375 75.8301V75.8299ZM50.5946 102.383C48.1434 105.611 43.7252 106.877 40.0998 105.421C36.3275 103.902 33.8029 100.152 33.7001 95.8002V95.6578V95.4995C33.8322 90.7839 36.944 86.4163 41.318 85.5303C45.3252 84.7074 49.4203 86.5431 51.5484 90.3409C53.6767 94.1546 53.1777 98.9967 50.5944 102.383L50.5946 102.383ZM67.4302 42.5354C63.6434 47.5201 56.9062 49.4823 51.2991 47.2826C45.472 44.9881 41.5384 39.1016 41.4356 32.4079V32.2971V32.2655V32.1389C41.553 24.8124 46.4261 18.1346 53.1779 16.726C59.2546 15.4442 65.5074 18.3084 68.7657 24.021C72.0829 29.8443 71.4078 37.3135 67.4301 42.5352L67.4302 42.5354Z" fill="#00AD88"/>
</g>
<defs>
<clipPath id="clip0_15_19">
<rect width="128" height="128" fill="white"/>
</clipPath>
</defs>
</svg>
