<svg width="128" height="128" viewBox="0 0 128 128" fill="none" xmlns="http://www.w3.org/2000/svg">
<path d="M31.3794 3.0076C29.449 3.12958 27.6318 4.37455 26.8182 6.12757C26.0046 7.88059 26.2285 10.0712 27.3804 11.623C32.9263 17.6289 30.9934 17.8968 27.8872 23.3912C26.4259 26.0107 25.5494 29.9731 26.3655 34.5973C26.7478 37.4759 29.7947 39.7106 32.6583 39.2113C35.5205 38.712 37.6306 35.577 37.0144 32.7388C36.495 29.7962 36.7629 29.5836 37.2961 28.6277C40.8248 23.7083 43.7573 17.2922 40.6197 11.397C39.083 8.64041 37.3212 6.98037 36.056 5.259C35.006 3.79269 33.1825 2.91366 31.3806 3.00673L31.3794 3.0076ZM49.4076 3.0076C47.4773 3.12958 45.66 4.37455 44.8465 6.12757C44.0328 7.88059 44.2567 10.0712 45.4086 11.623C50.9545 17.6289 49.0216 17.8968 45.9154 23.3912C44.4541 26.0107 43.5776 29.9731 44.3937 34.5973C44.776 37.4759 47.823 39.7106 50.6865 39.2113C53.5487 38.712 55.6588 35.577 55.0426 32.7388C54.5232 29.7962 54.7911 29.5836 55.3243 28.6277C58.853 23.7083 61.7855 17.2922 58.6479 11.397C57.1112 8.64041 55.3494 6.98037 54.0842 5.259C53.0342 3.79269 51.2107 2.91366 49.4088 3.00673L49.4076 3.0076ZM67.4358 3.0076C65.5055 3.12958 63.6882 4.37455 62.8747 6.12757C62.061 7.88059 62.2849 10.0712 63.4368 11.623C68.9827 17.6289 67.0498 17.8968 63.9436 23.3912C62.4823 26.0107 61.6058 29.9731 62.4219 34.5973C62.8042 37.4759 65.8512 39.7106 68.7148 39.2113C71.5769 38.712 73.687 35.577 73.0708 32.7388C72.5514 29.7962 72.8193 29.5836 73.3525 28.6277C76.8812 23.7083 79.8137 17.2922 76.6761 11.397C75.1394 8.64041 73.3776 6.98037 72.1124 5.259C71.0624 3.79269 69.2389 2.91366 67.437 3.00673L67.4358 3.0076ZM97.7451 42.4797C68.5925 43.0305 38.4838 42.7413 9.0141 42.7601C2.70359 42.6809 0.164829 44.6276 0 49.9685C0 82.9312 6.17466 103.329 26.8173 123.958C27.812 124.978 29.223 125.58 30.6476 125.591L73.9153 125.479C75.3326 125.479 76.7423 124.901 77.7457 123.902C82.5937 119.075 86.6114 114.236 89.9717 109.261C97.615 108.825 106.221 105.436 113.634 99.2938C121.582 92.7106 128 82.5746 128 69.7314C128.009 65.882 126.061 62.3244 123.493 60.1591C117.86 56.0003 110.864 55.1968 104.506 55.7112C104.552 53.8337 104.563 51.9311 104.563 49.968C103.908 45.3251 101.858 43.2892 97.7457 42.4779L97.7451 42.4797ZM117.182 69.6766C118.083 78.7196 112.216 86.3227 106.759 90.9605C103.71 93.4869 100.215 95.4273 96.9 96.7037C100.741 87.8116 102.895 78.1208 103.886 66.8596C109.069 66.1051 114.477 64.3031 117.182 69.6753V69.6766Z" fill="#00AD88"/>
</svg>
