<svg width="128" height="128" viewBox="0 0 128 128" fill="none" xmlns="http://www.w3.org/2000/svg">
<path d="M125.999 92.0713V119.519C125.999 120.066 125.921 120.573 125.804 121.042C125.258 123.736 122.876 125.766 120.066 125.766L7.89554 125.765C4.88896 125.765 2.39106 123.461 2.07843 120.533C2 120.181 2 119.87 2 119.478V92.0308C2 88.79 4.65477 86.1744 7.85643 86.1744C9.45671 86.1744 10.9405 86.8378 11.995 87.8923C13.0494 88.9468 13.7129 90.4306 13.7129 92.0309V114.012H114.326V92.0309C114.326 88.79 116.981 86.1744 120.183 86.1744C121.783 86.1744 123.267 86.8379 124.321 87.8924C125.337 88.9872 126 90.4709 126 92.0711L125.999 92.0713Z" fill="#00AD88"/>
<path d="M97.7714 64.5851L68.9968 93.3597C68.9576 93.4382 68.8792 93.4774 68.8411 93.5155C67.7866 94.57 66.4205 95.2334 65.0545 95.4284C64.9368 95.4284 64.8202 95.4676 64.7026 95.4676C64.4684 95.5069 64.2342 95.5069 64 95.5069L63.3365 95.4676C63.2189 95.4676 63.1023 95.4284 62.9847 95.4284C61.5794 95.2334 60.2515 94.57 59.1981 93.5155C59.1589 93.4763 59.0804 93.3978 59.0423 93.3597L30.2677 64.5851C28.9398 63.2572 28.2764 61.501 28.2764 59.7441C28.2764 57.9869 28.9398 56.2297 30.2677 54.9031C32.9225 52.2483 37.2561 52.2483 39.9501 54.9031L57.2461 72.199L57.245 8.8325C57.245 5.08411 60.3291 2 64.0775 2C65.9512 2 67.6691 2.78108 68.9185 3.99135C70.168 5.24086 70.9098 6.91957 70.9098 8.83239V72.1989L88.2058 54.9029C90.8606 52.2482 95.1942 52.2482 97.8882 54.9029C100.426 57.597 100.426 61.9304 97.7716 64.5853L97.7714 64.5851Z" fill="#00AD88"/>
</svg>
