<svg width="128" height="128" viewBox="0 0 128 128" fill="none" xmlns="http://www.w3.org/2000/svg">
<path fill-rule="evenodd" clip-rule="evenodd" d="M63.9995 0C28.6582 0 0 29.3774 0 65.6203C0 94.6141 18.3378 119.21 43.7667 127.888C46.9642 128.497 48.1384 126.465 48.1384 124.732C48.1384 123.167 48.0791 117.998 48.0515 112.514C30.2468 116.484 26.4898 104.772 26.4898 104.772C23.5785 97.1873 19.3838 95.1705 19.3838 95.1705C13.5761 91.0978 19.8215 91.1825 19.8215 91.1825C26.2471 91.6444 29.6321 97.9447 29.6321 97.9447C35.3402 107.974 44.604 105.075 48.2561 103.4C48.8305 99.1585 50.4891 96.2626 52.3194 94.6239C38.1042 92.9668 23.1599 87.3391 23.1599 62.1952C23.1599 55.0309 25.661 49.1772 29.7551 44.5807C29.0895 42.929 26.8989 36.2548 30.374 27.2161C30.374 27.2161 35.7472 25.4525 47.9773 33.9424C53.0835 32.4874 58.5595 31.7561 63.9995 31.7311C69.4363 31.7561 74.9155 32.4852 80.0311 33.9403C92.2464 25.4503 97.6133 27.2139 97.6133 27.2139C101.097 36.2516 98.9062 42.9268 98.2417 44.5785C102.345 49.175 104.828 55.0288 104.828 62.193C104.828 87.3967 89.8566 92.9451 75.6054 94.5707C77.902 96.6071 79.9474 100.602 79.9474 106.723C79.9474 115.503 79.8732 122.569 79.8732 124.731C79.8732 126.477 81.0263 128.523 84.2693 127.879C109.683 119.192 128 94.6033 128 65.6203C127.999 29.3796 99.3439 0.00108657 63.9995 0.00108657V0Z" fill="#00AD88"/>
<path d="M24.2399 94.2153C24.0989 94.5413 23.5987 94.6391 23.143 94.4163C22.6766 94.2033 22.417 93.7589 22.5675 93.4318C22.7053 93.095 23.2065 93.0026 23.6697 93.2275C24.136 93.4416 24.4009 93.8904 24.2388 94.2164L24.2399 94.2153ZM26.8321 97.1808C26.528 97.4709 25.9313 97.3361 25.5265 96.8765C25.1068 96.4201 25.0284 95.8083 25.3389 95.5138C25.6547 95.2248 26.2333 95.3617 26.653 95.8181C27.0706 96.281 27.1533 96.8874 26.8332 97.1818L26.8321 97.1808ZM29.3566 100.959C28.9645 101.239 28.3222 100.977 27.9259 100.394C27.5337 99.8093 27.5337 99.1085 27.9365 98.8292C28.3318 98.5488 28.9645 98.802 29.3672 99.3801C29.7572 99.9723 29.7572 100.673 29.3566 100.958V100.959ZM32.8126 104.611C32.4629 105.008 31.7147 104.901 31.1678 104.361C30.6093 103.832 30.4535 103.079 30.8043 102.684C31.1604 102.286 31.9118 102.397 32.4618 102.933C33.0203 103.462 33.1888 104.216 32.8147 104.61L32.8126 104.611ZM37.5817 106.731C37.4259 107.245 36.7074 107.479 35.9814 107.259C35.2576 107.034 34.7839 106.434 34.9322 105.914C35.0806 105.396 35.8044 105.153 36.5346 105.387C37.2585 105.611 37.7322 106.209 37.5817 106.731ZM42.8203 107.124C42.8384 107.665 42.2237 108.112 41.4638 108.123C40.6976 108.142 40.0776 107.703 40.0702 107.17C40.0702 106.624 40.6721 106.181 41.4373 106.166C42.1972 106.152 42.8214 106.587 42.8214 107.122L42.8203 107.124ZM47.6933 106.274C47.7845 106.801 47.2556 107.343 46.5 107.488C45.7581 107.629 45.0693 107.301 44.9739 106.778C44.8827 106.237 45.4211 105.695 46.163 105.554C46.9197 105.421 47.5979 105.739 47.6933 106.275V106.274Z" fill="#00AD88"/>
</svg>
