<svg width="128" height="128" viewBox="0 0 128 128" fill="none" xmlns="http://www.w3.org/2000/svg">
<path d="M92.5723 3.03345C81.2835 2.98855 70.6568 8.36115 63.9995 17.4795C58.071 9.39377 48.9934 4.19774 39.0177 3.18261C29.042 2.16629 19.1045 5.42445 11.6674 12.15C4.22952 18.8744 -0.00912813 28.4358 1.47606e-05 38.4632C1.47606e-05 74.8049 38.1259 105.298 61.166 123.722C61.9435 124.341 62.916 124.666 63.9088 124.636C65.0568 124.653 66.1731 124.264 67.0639 123.539L67.0964 123.513C89.9572 105.225 128 74.7905 128 38.4634C127.988 29.0716 124.251 20.0664 117.61 13.4255C110.968 6.78356 101.964 3.04699 92.5713 3.03471L92.5723 3.03345Z" fill="#CF002D"/>
</svg>
