<svg width="128" height="128" viewBox="0 0 128 128" fill="none" xmlns="http://www.w3.org/2000/svg">
<path d="M92.5723 3.03345C81.2835 2.98855 70.6568 8.36115 63.9995 17.4795C58.071 9.39377 48.9934 4.19774 39.0177 3.18261C29.042 2.16629 19.1045 5.42445 11.6674 12.15C4.22952 18.8744 -0.00912813 28.4358 1.47606e-05 38.4632C1.47606e-05 74.8049 38.1259 105.298 61.166 123.722C61.9435 124.341 62.916 124.666 63.9088 124.636C65.0568 124.653 66.1731 124.264 67.0639 123.539C89.9212 105.254 128 74.8077 128 38.4634C127.988 29.0716 124.251 20.0664 117.61 13.4255C110.968 6.78356 101.964 3.04699 92.5713 3.03471L92.5723 3.03345ZM63.9995 114.302C42.3311 96.931 9.14213 69.1366 9.14213 38.4635V38.4625C9.21457 30.3073 13.0686 22.6481 19.5749 17.7298C26.08 12.8104 34.5006 11.191 42.3669 13.3441C50.2332 15.4971 56.6546 21.1798 59.7486 28.7258C60.2006 29.8697 61.0935 30.7829 62.2271 31.2595C63.3608 31.736 64.6384 31.736 65.772 31.2595C66.9056 30.7829 67.7985 29.8697 68.2506 28.7258C71.3445 21.1798 77.766 15.4971 85.6322 13.3441C93.4985 11.191 101.919 12.8104 108.424 17.7298C114.93 22.6481 118.784 30.3073 118.857 38.4625C118.857 69.0467 85.8956 96.7471 63.9996 114.304L63.9995 114.302Z" fill="#00AD88"/>
</svg>
