<svg width="512" height="512" viewBox="0 0 512 512" fill="none" xmlns="http://www.w3.org/2000/svg">
<path fill-rule="evenodd" clip-rule="evenodd" d="M114.534 0C51.2788 0 0 51.2788 0 114.534V397.47C0 460.723 51.2768 512 114.53 512H397.466C460.721 512 512 460.721 512 397.466V114.53C512 51.2768 460.723 0 397.47 0H114.534ZM256 40H114.534C73.3702 40 40 73.3702 40 114.534V256H95.5247C141.68 194.087 203.317 156.153 256 134.955V40ZM256 472H397.466C438.63 472 472 438.63 472 397.466V256H465.674C464.44 257.6 463.079 259.114 461.598 260.526L323.791 391.876C312.207 402.918 295.156 405.992 280.444 399.691C265.733 393.389 256 379.004 256 363V472ZM296.194 163.012V100L434 231.571L296.194 362.922V299.91C296.036 299.901 295.822 299.887 295.554 299.87C283.591 299.087 163.489 291.234 78 384C112.975 250.271 220.646 186.745 296.194 163.012Z" fill="black"/>
</svg>
