<svg width="3482" height="256" viewBox="0 0 3482 256" fill="none" xmlns="http://www.w3.org/2000/svg">
<path fill-rule="evenodd" clip-rule="evenodd" d="M1243 57.2672C1243 25.6394 1268.64 0 1300.27 0H1441.74C1473.36 0 1499 25.6384 1499 57.265V198.733C1499 230.361 1473.36 256 1441.73 256H1300.26C1268.64 256 1243 230.362 1243 198.735V57.2672ZM1300.27 20H1371V67.4775C1344.66 78.0763 1313.84 97.0433 1290.76 128H1263V57.2672C1263 36.6851 1279.69 20 1300.27 20ZM1441.73 236H1371V181.5C1371 189.502 1375.87 196.695 1383.22 199.845C1390.58 202.996 1399.1 201.459 1404.9 195.938L1473.8 130.263C1474.54 129.557 1475.22 128.8 1475.84 128H1479V198.733C1479 219.315 1462.31 236 1441.73 236ZM1391.1 50V81.5058C1353.32 93.3723 1299.49 125.135 1282 192C1324.74 145.617 1384.8 149.544 1390.78 149.935L1390.78 149.935C1390.91 149.944 1391.02 149.951 1391.1 149.955V181.461L1460 115.786L1391.1 50Z" fill="black"/>
<path d="M1742.38 50V202H1760.97V115.6C1761.64 115.333 1762.71 115 1764.17 114.6C1765.78 114.2 1767.51 113.867 1769.38 113.6C1771.38 113.2 1773.44 112.867 1775.58 112.6C1777.71 112.333 1779.78 112.2 1781.78 112.2C1786.71 112.2 1790.84 112.867 1794.17 114.2C1797.51 115.4 1800.17 117.4 1802.17 120.2C1804.17 123 1805.58 126.667 1806.38 131.2C1807.31 135.733 1807.78 141.2 1807.78 147.6V202H1826.38V143.6C1826.38 136.533 1825.71 130.067 1824.38 124.2C1823.04 118.333 1820.71 113.333 1817.38 109.2C1814.17 104.933 1809.84 101.667 1804.38 99.4C1798.91 97 1792.04 95.8 1783.78 95.8C1779.91 95.8 1775.97 96.2 1771.97 97C1768.11 97.6666 1764.44 98.6667 1760.97 100V46.8L1742.38 50Z" fill="black"/>
<path d="M1694.12 185.6C1690.52 187.6 1684.92 188.6 1677.32 188.6C1669.58 188.6 1663.38 187.8 1658.72 186.2C1654.05 184.6 1650.65 183.4 1648.52 182.6L1645.12 198.6C1646.98 199.4 1650.52 200.533 1655.72 202C1660.92 203.6 1668.12 204.4 1677.32 204.4C1690.52 204.4 1700.65 201.933 1707.72 197C1714.92 192.067 1718.52 184.8 1718.52 175.2C1718.52 170.267 1717.78 166.133 1716.32 162.8C1714.85 159.333 1712.72 156.4 1709.92 154C1707.25 151.6 1703.98 149.533 1700.12 147.8C1696.25 145.933 1691.85 144.067 1686.92 142.2C1683.18 140.867 1679.98 139.6 1677.32 138.4C1674.65 137.2 1672.38 135.933 1670.52 134.6C1668.78 133.133 1667.45 131.533 1666.52 129.8C1665.72 128.067 1665.32 126.067 1665.32 123.8C1665.32 119.4 1667.25 116.2 1671.12 114.2C1674.98 112.067 1679.52 111 1684.72 111C1690.72 111 1695.85 111.6 1700.12 112.8C1704.38 113.867 1707.52 114.933 1709.52 116L1712.92 100C1711.85 99.6 1710.32 99.1333 1708.32 98.6C1706.45 98.0667 1704.25 97.6 1701.72 97.2C1699.18 96.6667 1696.45 96.2667 1693.52 96C1690.58 95.6 1687.65 95.4 1684.72 95.4C1672.98 95.4 1663.72 98.1333 1656.92 103.6C1650.12 108.933 1646.72 116.2 1646.72 125.4C1646.72 130.067 1647.52 134 1649.12 137.2C1650.72 140.4 1652.85 143.133 1655.52 145.4C1658.18 147.667 1661.32 149.667 1664.92 151.4C1668.65 153 1672.52 154.6 1676.52 156.2C1684.78 159.533 1690.72 162.533 1694.32 165.2C1697.92 167.867 1699.72 171.467 1699.72 176C1699.72 180.4 1697.85 183.6 1694.12 185.6Z" fill="black"/>
<path fill-rule="evenodd" clip-rule="evenodd" d="M1890.23 95.4C1897.7 95.4 1903.97 96.4 1909.03 98.4C1914.23 100.267 1918.37 103 1921.43 106.6C1924.63 110.067 1926.9 114.267 1928.23 119.2C1929.57 124 1930.23 129.333 1930.23 135.2V200.2C1928.63 200.467 1926.37 200.867 1923.43 201.4C1920.63 201.8 1917.43 202.2 1913.83 202.6C1910.23 203 1906.3 203.333 1902.03 203.6C1897.9 204 1893.77 204.2 1889.63 204.2C1883.77 204.2 1878.37 203.6 1873.43 202.4C1868.5 201.2 1864.23 199.333 1860.63 196.8C1857.03 194.133 1854.23 190.667 1852.23 186.4C1850.23 182.133 1849.23 177 1849.23 171C1849.23 165.267 1850.37 160.333 1852.63 156.2C1855.03 152.067 1858.23 148.733 1862.23 146.2C1866.23 143.667 1870.9 141.8 1876.23 140.6C1881.57 139.4 1887.17 138.8 1893.03 138.8C1894.9 138.8 1896.83 138.933 1898.83 139.2C1900.83 139.333 1902.7 139.6 1904.43 140C1906.3 140.267 1907.9 140.533 1909.23 140.8C1910.57 141.067 1911.5 141.267 1912.03 141.4V136.2C1912.03 133.133 1911.7 130.133 1911.03 127.2C1910.37 124.133 1909.17 121.467 1907.43 119.2C1905.7 116.8 1903.3 114.933 1900.23 113.6C1897.3 112.133 1893.43 111.4 1888.63 111.4C1882.5 111.4 1877.1 111.867 1872.43 112.8C1867.9 113.6 1864.5 114.467 1862.23 115.4L1860.03 100C1862.43 98.9333 1866.43 97.9333 1872.03 97C1877.63 95.9333 1883.7 95.4 1890.23 95.4ZM1891.83 188.6C1896.23 188.6 1900.1 188.533 1903.43 188.4C1906.9 188.133 1909.77 187.733 1912.03 187.2V156.2C1910.7 155.533 1908.5 155 1905.43 154.6C1902.5 154.067 1898.9 153.8 1894.63 153.8C1891.83 153.8 1888.83 154 1885.63 154.4C1882.57 154.8 1879.7 155.667 1877.03 157C1874.5 158.2 1872.37 159.933 1870.63 162.2C1868.9 164.333 1868.03 167.2 1868.03 170.8C1868.03 177.467 1870.17 182.133 1874.43 184.8C1878.7 187.333 1884.5 188.6 1891.83 188.6Z" fill="black"/>
<path d="M2004.93 96.2C2002.92 95.9333 2001.12 95.8 1999.53 95.8C1991.39 95.8 1984.06 96.5333 1977.53 98C1970.99 99.3333 1965.53 100.8 1961.12 102.4V202H1979.72V114.6C1980.79 114.333 1982.99 113.867 1986.33 113.2C1989.79 112.4 1993.26 112 1996.72 112C2002.06 112 2006.39 112.4 2009.72 113.2C2013.19 113.867 2015.66 114.467 2017.12 115L2020.33 98.8C2019.53 98.5333 2018.26 98.2667 2016.53 98C2014.92 97.6 2013.12 97.2667 2011.12 97C2009.12 96.6 2007.06 96.3333 2004.93 96.2Z" fill="black"/>
<path fill-rule="evenodd" clip-rule="evenodd" d="M2032.47 150.2C2032.47 141 2033.81 133 2036.47 126.2C2039.14 119.267 2042.67 113.533 2047.07 109C2051.47 104.467 2056.54 101.067 2062.27 98.8C2068.01 96.5333 2073.87 95.4 2079.87 95.4C2093.87 95.4 2104.61 99.8 2112.07 108.6C2119.54 117.267 2123.27 130.533 2123.27 148.4V151.6C2123.27 152.8 2123.21 153.933 2123.07 155H2051.87C2052.67 165.8 2055.81 174 2061.27 179.6C2066.74 185.2 2075.27 188 2086.87 188C2093.41 188 2098.87 187.467 2103.27 186.4C2107.81 185.2 2111.21 184.067 2113.47 183L2116.07 198.6C2113.81 199.8 2109.81 201.067 2104.07 202.4C2098.47 203.733 2092.07 204.4 2084.87 204.4C2075.81 204.4 2067.94 203.067 2061.27 200.4C2054.74 197.6 2049.34 193.8 2045.07 189C2040.81 184.2 2037.61 178.533 2035.47 172C2033.47 165.333 2032.47 158.067 2032.47 150.2ZM2103.87 140C2104.01 131.6 2101.87 124.733 2097.47 119.4C2093.21 113.933 2087.27 111.2 2079.67 111.2C2075.41 111.2 2071.61 112.067 2068.27 113.8C2065.07 115.4 2062.34 117.533 2060.07 120.2C2057.81 122.867 2056.01 125.933 2054.67 129.4C2053.47 132.867 2052.67 136.4 2052.27 140H2103.87Z" fill="black"/>
<path d="M2172.99 200.4C2179.39 203.067 2186.79 204.4 2195.19 204.4C2197.86 204.4 2200.59 204.2 2203.39 203.8C2206.33 203.533 2209.06 203.133 2211.59 202.6C2214.13 202.2 2216.39 201.733 2218.39 201.2C2220.39 200.533 2221.93 199.867 2222.99 199.2L2220.39 183.6C2218.13 184.667 2214.99 185.667 2210.99 186.6C2206.99 187.533 2202.53 188 2197.59 188C2191.46 188 2186.26 187.133 2181.99 185.4C2177.73 183.533 2174.19 180.933 2171.39 177.6C2168.73 174.267 2166.73 170.267 2165.39 165.6C2164.19 160.933 2163.59 155.8 2163.59 150.2C2163.59 137.667 2166.33 128.133 2171.79 121.6C2177.39 115.067 2185.39 111.8 2195.79 111.8C2199.93 111.8 2203.79 112.2 2207.39 113C2211.13 113.8 2214.39 114.867 2217.19 116.2L2221.39 100.4C2217.13 98.6666 2212.66 97.4 2207.99 96.6C2203.33 95.8 2198.66 95.4 2193.99 95.4C2186.39 95.4 2179.46 96.8 2173.19 99.6C2167.06 102.267 2161.86 106.067 2157.59 111C2153.33 115.8 2149.99 121.533 2147.59 128.2C2145.33 134.867 2144.19 142.2 2144.19 150.2C2144.19 158.2 2145.26 165.533 2147.39 172.2C2149.53 178.733 2152.73 184.4 2156.99 189.2C2161.39 194 2166.73 197.733 2172.99 200.4Z" fill="black"/>
<path d="M2242.96 202V50L2261.56 46.8V100C2265.03 98.6667 2268.69 97.6666 2272.56 97C2276.56 96.2 2280.49 95.8 2284.36 95.8C2292.63 95.8 2299.49 97 2304.96 99.4C2310.43 101.667 2314.76 104.933 2317.96 109.2C2321.29 113.333 2323.63 118.333 2324.96 124.2C2326.29 130.067 2326.96 136.533 2326.96 143.6V202H2308.36V147.6C2308.36 141.2 2307.89 135.733 2306.96 131.2C2306.16 126.667 2304.76 123 2302.76 120.2C2300.76 117.4 2298.09 115.4 2294.76 114.2C2291.43 112.867 2287.29 112.2 2282.36 112.2C2280.36 112.2 2278.29 112.333 2276.16 112.6C2274.03 112.867 2271.96 113.2 2269.96 113.6C2268.09 113.867 2266.36 114.2 2264.76 114.6C2263.29 115 2262.23 115.333 2261.56 115.6V202H2242.96Z" fill="black"/>
<path fill-rule="evenodd" clip-rule="evenodd" d="M2355.42 126.2C2352.75 133 2351.42 141 2351.42 150.2C2351.42 158.067 2352.42 165.333 2354.42 172C2356.55 178.533 2359.75 184.2 2364.02 189C2368.29 193.8 2373.69 197.6 2380.22 200.4C2386.89 203.067 2394.75 204.4 2403.82 204.4C2411.02 204.4 2417.42 203.733 2423.02 202.4C2428.75 201.067 2432.75 199.8 2435.02 198.6L2432.42 183C2430.15 184.067 2426.75 185.2 2422.22 186.4C2417.82 187.467 2412.35 188 2405.82 188C2394.22 188 2385.69 185.2 2380.22 179.6C2374.75 174 2371.62 165.8 2370.82 155H2442.02C2442.15 153.933 2442.22 152.8 2442.22 151.6V148.4C2442.22 130.533 2438.49 117.267 2431.02 108.6C2423.55 99.8 2412.82 95.4 2398.82 95.4C2392.82 95.4 2386.95 96.5333 2381.22 98.8C2375.49 101.067 2370.42 104.467 2366.02 109C2361.62 113.533 2358.09 119.267 2355.42 126.2ZM2416.42 119.4C2420.82 124.733 2422.95 131.6 2422.82 140H2371.22C2371.62 136.4 2372.42 132.867 2373.62 129.4C2374.95 125.933 2376.75 122.867 2379.02 120.2C2381.29 117.533 2384.02 115.4 2387.22 113.8C2390.55 112.067 2394.35 111.2 2398.62 111.2C2406.22 111.2 2412.15 113.933 2416.42 119.4Z" fill="black"/>
<path d="M2493.14 188.6C2500.74 188.6 2506.34 187.6 2509.94 185.6C2513.67 183.6 2515.54 180.4 2515.54 176C2515.54 171.467 2513.74 167.867 2510.14 165.2C2506.54 162.533 2500.6 159.533 2492.34 156.2C2488.34 154.6 2484.47 153 2480.74 151.4C2477.14 149.667 2474 147.667 2471.34 145.4C2468.67 143.133 2466.54 140.4 2464.94 137.2C2463.34 134 2462.54 130.067 2462.54 125.4C2462.54 116.2 2465.94 108.933 2472.74 103.6C2479.54 98.1333 2488.8 95.4 2500.54 95.4C2503.47 95.4 2506.4 95.6 2509.34 96C2512.27 96.2667 2515 96.6667 2517.54 97.2C2520.07 97.6 2522.27 98.0667 2524.14 98.6C2526.14 99.1333 2527.67 99.6 2528.74 100L2525.34 116C2523.34 114.933 2520.2 113.867 2515.94 112.8C2511.67 111.6 2506.54 111 2500.54 111C2495.34 111 2490.8 112.067 2486.94 114.2C2483.07 116.2 2481.14 119.4 2481.14 123.8C2481.14 126.067 2481.54 128.067 2482.34 129.8C2483.27 131.533 2484.6 133.133 2486.34 134.6C2488.2 135.933 2490.47 137.2 2493.14 138.4C2495.8 139.6 2499 140.867 2502.74 142.2C2507.67 144.067 2512.07 145.933 2515.94 147.8C2519.8 149.533 2523.07 151.6 2525.74 154C2528.54 156.4 2530.67 159.333 2532.14 162.8C2533.6 166.133 2534.34 170.267 2534.34 175.2C2534.34 184.8 2530.74 192.067 2523.54 197C2516.47 201.933 2506.34 204.4 2493.14 204.4C2483.94 204.4 2476.74 203.6 2471.54 202C2466.34 200.533 2462.8 199.4 2460.94 198.6L2464.34 182.6C2466.47 183.4 2469.87 184.6 2474.54 186.2C2479.2 187.8 2485.4 188.6 2493.14 188.6Z" fill="black"/>
<path d="M2599.2 185.6C2595.6 187.6 2590 188.6 2582.4 188.6C2574.66 188.6 2568.46 187.8 2563.8 186.2C2559.13 184.6 2555.73 183.4 2553.6 182.6L2550.2 198.6C2552.06 199.4 2555.6 200.533 2560.8 202C2566 203.6 2573.2 204.4 2582.4 204.4C2595.6 204.4 2605.73 201.933 2612.8 197C2620 192.067 2623.6 184.8 2623.6 175.2C2623.6 170.267 2622.86 166.133 2621.4 162.8C2619.93 159.333 2617.8 156.4 2615 154C2612.33 151.6 2609.06 149.533 2605.2 147.8C2601.33 145.933 2596.93 144.067 2592 142.2C2588.26 140.867 2585.06 139.6 2582.4 138.4C2579.73 137.2 2577.46 135.933 2575.6 134.6C2573.86 133.133 2572.53 131.533 2571.6 129.8C2570.8 128.067 2570.4 126.067 2570.4 123.8C2570.4 119.4 2572.33 116.2 2576.2 114.2C2580.06 112.067 2584.6 111 2589.8 111C2595.8 111 2600.93 111.6 2605.2 112.8C2609.46 113.867 2612.6 114.933 2614.6 116L2618 100C2616.93 99.6 2615.4 99.1333 2613.4 98.6C2611.53 98.0667 2609.33 97.6 2606.8 97.2C2604.26 96.6667 2601.53 96.2667 2598.6 96C2595.66 95.6 2592.73 95.4 2589.8 95.4C2578.06 95.4 2568.8 98.1333 2562 103.6C2555.2 108.933 2551.8 116.2 2551.8 125.4C2551.8 130.067 2552.6 134 2554.2 137.2C2555.8 140.4 2557.93 143.133 2560.6 145.4C2563.26 147.667 2566.4 149.667 2570 151.4C2573.73 153 2577.6 154.6 2581.6 156.2C2589.86 159.533 2595.8 162.533 2599.4 165.2C2603 167.867 2604.8 171.467 2604.8 176C2604.8 180.4 2602.93 183.6 2599.2 185.6Z" fill="black"/>
<path d="M2669.45 191.2C2669.45 194.8 2668.25 197.933 2665.85 200.6C2663.45 203.267 2660.19 204.6 2656.05 204.6C2651.92 204.6 2648.65 203.267 2646.25 200.6C2643.85 197.933 2642.65 194.8 2642.65 191.2C2642.65 187.6 2643.85 184.467 2646.25 181.8C2648.65 179.133 2651.92 177.8 2656.05 177.8C2660.19 177.8 2663.45 179.133 2665.85 181.8C2668.25 184.467 2669.45 187.6 2669.45 191.2Z" fill="black"/>
<path fill-rule="evenodd" clip-rule="evenodd" d="M2752.47 195.8C2757.14 194.067 2760.27 192.667 2761.87 191.6V196C2761.87 205.6 2759.41 212.6 2754.47 217C2749.67 221.4 2741.74 223.6 2730.67 223.6C2724.81 223.6 2719.14 223 2713.67 221.8C2708.34 220.733 2703.81 219.467 2700.07 218L2696.67 234.2C2700.94 235.667 2705.94 236.933 2711.67 238C2717.54 239.067 2723.74 239.6 2730.27 239.6C2747.07 239.6 2759.61 236 2767.87 228.8C2776.14 221.6 2780.27 210 2780.27 194V101.2C2775.87 100.133 2770.41 99 2763.87 97.8C2757.47 96.4667 2749.94 95.8 2741.27 95.8C2733.41 95.8 2726.34 97.1333 2720.07 99.8C2713.81 102.333 2708.47 105.933 2704.07 110.6C2699.81 115.133 2696.54 120.6 2694.27 127C2692.01 133.267 2690.87 140.2 2690.87 147.8C2690.87 156.467 2692.07 163.933 2694.47 170.2C2696.87 176.467 2700.14 181.733 2704.27 186C2708.41 190.133 2713.21 193.2 2718.67 195.2C2724.27 197.2 2730.21 198.2 2736.47 198.2C2742.61 198.2 2747.94 197.4 2752.47 195.8ZM2754.07 113C2757.27 113.4 2759.81 113.867 2761.67 114.4V175.2C2759.27 177.067 2756.01 178.733 2751.87 180.2C2747.74 181.533 2743.21 182.2 2738.27 182.2C2734.67 182.2 2731.14 181.533 2727.67 180.2C2724.34 178.867 2721.34 176.8 2718.67 174C2716.14 171.2 2714.07 167.667 2712.47 163.4C2711.01 159.133 2710.27 154 2710.27 148C2710.27 137.2 2712.94 128.533 2718.27 122C2723.74 115.467 2731.47 112.2 2741.47 112.2C2746.81 112.2 2751.01 112.467 2754.07 113Z" fill="black"/>
<path d="M2830.9 202H2812.3V98H2830.9V202Z" fill="black"/>
<path d="M2821.5 79.2C2818.16 79.2 2815.3 78.1333 2812.9 76C2810.63 73.7333 2809.5 70.7333 2809.5 67C2809.5 63.2667 2810.63 60.3333 2812.9 58.2C2815.3 55.9333 2818.16 54.8 2821.5 54.8C2824.83 54.8 2827.63 55.9333 2829.9 58.2C2832.3 60.3333 2833.5 63.2667 2833.5 67C2833.5 70.7333 2832.3 73.7333 2829.9 76C2827.63 78.1333 2824.83 79.2 2821.5 79.2Z" fill="black"/>
<path d="M2919.68 98H2880.28V65.8L2861.68 69V161.8C2861.68 168.733 2862.22 174.867 2863.28 180.2C2864.48 185.4 2866.48 189.8 2869.28 193.4C2872.08 197 2875.75 199.733 2880.28 201.6C2884.95 203.333 2890.82 204.2 2897.88 204.2C2903.88 204.2 2909.22 203.467 2913.88 202C2918.55 200.667 2921.82 199.533 2923.68 198.6L2920.08 183.2C2918.75 183.733 2916.35 184.667 2912.88 186C2909.55 187.2 2905.08 187.8 2899.48 187.8C2896.28 187.8 2893.48 187.4 2891.08 186.6C2888.68 185.8 2886.68 184.467 2885.08 182.6C2883.48 180.6 2882.28 177.933 2881.48 174.6C2880.68 171.133 2880.28 166.8 2880.28 161.6V113.6H2919.68V98Z" fill="black"/>
<path d="M2943.35 202V50L2961.95 46.8V100C2965.42 98.6667 2969.08 97.6666 2972.95 97C2976.95 96.2 2980.88 95.8 2984.75 95.8C2993.02 95.8 2999.88 97 3005.35 99.4C3010.82 101.667 3015.15 104.933 3018.35 109.2C3021.68 113.333 3024.02 118.333 3025.35 124.2C3026.68 130.067 3027.35 136.533 3027.35 143.6V202H3008.75V147.6C3008.75 141.2 3008.28 135.733 3007.35 131.2C3006.55 126.667 3005.15 123 3003.15 120.2C3001.15 117.4 2998.48 115.4 2995.15 114.2C2991.82 112.867 2987.68 112.2 2982.75 112.2C2980.75 112.2 2978.68 112.333 2976.55 112.6C2974.42 112.867 2972.35 113.2 2970.35 113.6C2968.48 113.867 2966.75 114.2 2965.15 114.6C2963.68 115 2962.62 115.333 2961.95 115.6V202H2943.35Z" fill="black"/>
<path d="M3123.41 202.4C3130.48 201.2 3136.14 200.067 3140.41 199V98H3121.81V185.8C3121.14 186.067 3120.01 186.333 3118.41 186.6C3116.94 186.733 3115.28 186.933 3113.41 187.2C3111.54 187.333 3109.54 187.467 3107.41 187.6C3105.28 187.733 3103.21 187.8 3101.21 187.8C3091.74 187.8 3085.01 185.067 3081.01 179.6C3077.01 174.133 3075.01 165.067 3075.01 152.4V98H3056.41V156.4C3056.41 163.467 3057.14 169.933 3058.61 175.8C3060.08 181.533 3062.48 186.533 3065.81 190.8C3069.14 195.067 3073.54 198.4 3079.01 200.8C3084.48 203.067 3091.21 204.2 3099.21 204.2C3108.41 204.2 3116.48 203.6 3123.41 202.4Z" fill="black"/>
<path fill-rule="evenodd" clip-rule="evenodd" d="M3191.05 102.6C3193.32 101.133 3196.72 99.6 3201.25 98C3205.92 96.4 3211.25 95.6 3217.25 95.6C3224.72 95.6 3231.32 96.9333 3237.05 99.6C3242.92 102.267 3247.85 106 3251.85 110.8C3255.85 115.6 3258.85 121.333 3260.85 128C3262.99 134.667 3264.05 142 3264.05 150C3264.05 158.4 3262.79 166 3260.25 172.8C3257.85 179.467 3254.39 185.133 3249.85 189.8C3245.32 194.467 3239.85 198.067 3233.45 200.6C3227.05 203.133 3219.85 204.4 3211.85 204.4C3203.19 204.4 3195.52 203.8 3188.85 202.6C3182.19 201.4 3176.72 200.2 3172.45 199V50L3191.05 46.8V102.6ZM3191.05 185.8C3192.92 186.333 3195.52 186.867 3198.85 187.4C3202.32 187.8 3206.59 188 3211.65 188C3221.65 188 3229.65 184.733 3235.65 178.2C3241.65 171.533 3244.65 162.133 3244.65 150C3244.65 144.667 3244.12 139.667 3243.05 135C3241.99 130.333 3240.25 126.333 3237.85 123C3235.45 119.533 3232.32 116.867 3228.45 115C3224.72 113 3220.19 112 3214.85 112C3209.79 112 3205.12 112.867 3200.85 114.6C3196.59 116.333 3193.32 118.133 3191.05 120V185.8Z" fill="black"/>
<path d="M3308.63 200.6C3311.03 197.933 3312.23 194.8 3312.23 191.2C3312.23 187.6 3311.03 184.467 3308.63 181.8C3306.23 179.133 3302.96 177.8 3298.83 177.8C3294.69 177.8 3291.43 179.133 3289.03 181.8C3286.63 184.467 3285.43 187.6 3285.43 191.2C3285.43 194.8 3286.63 197.933 3289.03 200.6C3291.43 203.267 3294.69 204.6 3298.83 204.6C3302.96 204.6 3306.23 203.267 3308.63 200.6Z" fill="black"/>
<path d="M3358.05 202H3339.45V98H3358.05V202Z" fill="black"/>
<path d="M3348.65 79.2C3345.31 79.2 3342.45 78.1333 3340.05 76C3337.78 73.7333 3336.65 70.7333 3336.65 67C3336.65 63.2667 3337.78 60.3333 3340.05 58.2C3342.45 55.9333 3345.31 54.8 3348.65 54.8C3351.98 54.8 3354.78 55.9333 3357.05 58.2C3359.45 60.3333 3360.65 63.2667 3360.65 67C3360.65 70.7333 3359.45 73.7333 3357.05 76C3354.78 78.1333 3351.98 79.2 3348.65 79.2Z" fill="black"/>
<path fill-rule="evenodd" clip-rule="evenodd" d="M3468.03 189.6C3472.43 184.8 3475.83 179.067 3478.23 172.4C3480.63 165.733 3481.83 158.267 3481.83 150C3481.83 141.867 3480.63 134.467 3478.23 127.8C3475.83 121 3472.43 115.2 3468.03 110.4C3463.76 105.6 3458.63 101.933 3452.63 99.4C3446.63 96.7333 3440.1 95.4 3433.03 95.4C3425.96 95.4 3419.43 96.7333 3413.43 99.4C3407.43 101.933 3402.23 105.6 3397.83 110.4C3393.56 115.2 3390.23 121 3387.83 127.8C3385.43 134.467 3384.23 141.867 3384.23 150C3384.23 158.267 3385.43 165.733 3387.83 172.4C3390.23 179.067 3393.56 184.8 3397.83 189.6C3402.23 194.4 3407.43 198.133 3413.43 200.8C3419.43 203.333 3425.96 204.6 3433.03 204.6C3440.1 204.6 3446.63 203.333 3452.63 200.8C3458.63 198.133 3463.76 194.4 3468.03 189.6ZM3454.43 122.2C3459.76 129 3462.43 138.267 3462.43 150C3462.43 161.733 3459.76 171.067 3454.43 178C3449.23 184.8 3442.1 188.2 3433.03 188.2C3423.96 188.2 3416.76 184.8 3411.43 178C3406.23 171.067 3403.63 161.733 3403.63 150C3403.63 138.267 3406.23 129 3411.43 122.2C3416.76 115.267 3423.96 111.8 3433.03 111.8C3442.1 111.8 3449.23 115.267 3454.43 122.2Z" fill="black"/>
<path d="M62.4219 62C81.8885 62 96.8219 65.7333 107.222 73.2C117.755 80.5333 123.022 91.5333 123.022 106.2C123.022 114.2 121.555 121.067 118.622 126.8C115.822 132.4 111.689 137 106.222 140.6C100.889 144.067 94.3552 146.6 86.6219 148.2C78.8885 149.8 70.1552 150.6 60.4219 150.6H45.0219V202H25.6219V65.4C31.0885 64.0667 37.1552 63.2 43.8219 62.8C50.6219 62.2667 56.8219 62 62.4219 62ZM64.0219 79C55.7552 79 49.4219 79.2 45.0219 79.6V134H59.6219C66.2885 134 72.2885 133.6 77.6219 132.8C82.9552 131.867 87.4219 130.4 91.0219 128.4C94.7552 126.267 97.6219 123.4 99.6219 119.8C101.622 116.2 102.622 111.6 102.622 106C102.622 100.667 101.555 96.2667 99.4219 92.8C97.4219 89.3333 94.6219 86.6 91.0219 84.6C87.5552 82.4667 83.4885 81 78.8219 80.2C74.1552 79.4 69.2219 79 64.0219 79ZM233.605 150C233.605 158.267 232.405 165.733 230.005 172.4C227.605 179.067 224.205 184.8 219.805 189.6C215.538 194.4 210.405 198.133 204.405 200.8C198.405 203.333 191.871 204.6 184.805 204.6C177.738 204.6 171.205 203.333 165.205 200.8C159.205 198.133 154.005 194.4 149.605 189.6C145.338 184.8 142.005 179.067 139.605 172.4C137.205 165.733 136.005 158.267 136.005 150C136.005 141.867 137.205 134.467 139.605 127.8C142.005 121 145.338 115.2 149.605 110.4C154.005 105.6 159.205 101.933 165.205 99.4C171.205 96.7333 177.738 95.4 184.805 95.4C191.871 95.4 198.405 96.7333 204.405 99.4C210.405 101.933 215.538 105.6 219.805 110.4C224.205 115.2 227.605 121 230.005 127.8C232.405 134.467 233.605 141.867 233.605 150ZM214.205 150C214.205 138.267 211.538 129 206.205 122.2C201.005 115.267 193.871 111.8 184.805 111.8C175.738 111.8 168.538 115.267 163.205 122.2C158.005 129 155.405 138.267 155.405 150C155.405 161.733 158.005 171.067 163.205 178C168.538 184.8 175.738 188.2 184.805 188.2C193.871 188.2 201.005 184.8 206.205 178C211.538 171.067 214.205 161.733 214.205 150ZM342.234 202C338.501 192.4 334.501 181.467 330.234 169.2C326.101 156.8 322.301 143.933 318.834 130.6C315.368 143.933 311.568 156.8 307.434 169.2C303.301 181.467 299.368 192.4 295.634 202H279.434C273.301 188.267 267.301 172.6 261.434 155C255.568 137.4 250.034 118.4 244.834 98H264.834C266.168 104.267 267.768 111.067 269.634 118.4C271.501 125.733 273.434 133.067 275.434 140.4C277.568 147.733 279.768 154.8 282.034 161.6C284.301 168.4 286.434 174.333 288.434 179.4C290.701 173.133 292.901 166.533 295.034 159.6C297.301 152.533 299.434 145.467 301.434 138.4C303.434 131.2 305.301 124.2 307.034 117.4C308.901 110.467 310.501 104 311.834 98H327.234C328.434 104 329.901 110.467 331.634 117.4C333.368 124.2 335.234 131.2 337.234 138.4C339.234 145.467 341.301 152.533 343.434 159.6C345.701 166.533 347.968 173.133 350.234 179.4C352.234 174.333 354.301 168.4 356.434 161.6C358.701 154.8 360.901 147.733 363.034 140.4C365.168 133.067 367.168 125.733 369.034 118.4C370.901 111.067 372.501 104.267 373.834 98H393.034C387.834 118.4 382.301 137.4 376.434 155C370.568 172.6 364.568 188.267 358.434 202H342.234ZM406.903 150.2C406.903 141 408.236 133 410.903 126.2C413.57 119.267 417.103 113.533 421.503 109C425.903 104.467 430.97 101.067 436.703 98.8C442.436 96.5333 448.303 95.4 454.303 95.4C468.303 95.4 479.036 99.8 486.503 108.6C493.97 117.267 497.703 130.533 497.703 148.4C497.703 149.2 497.703 150.267 497.703 151.6C497.703 152.8 497.636 153.933 497.503 155H426.303C427.103 165.8 430.236 174 435.703 179.6C441.17 185.2 449.703 188 461.303 188C467.836 188 473.303 187.467 477.703 186.4C482.236 185.2 485.636 184.067 487.903 183L490.503 198.6C488.236 199.8 484.236 201.067 478.503 202.4C472.903 203.733 466.503 204.4 459.303 204.4C450.236 204.4 442.37 203.067 435.703 200.4C429.17 197.6 423.77 193.8 419.503 189C415.236 184.2 412.036 178.533 409.903 172C407.903 165.333 406.903 158.067 406.903 150.2ZM478.303 140C478.436 131.6 476.303 124.733 471.903 119.4C467.636 113.933 461.703 111.2 454.103 111.2C449.836 111.2 446.036 112.067 442.703 113.8C439.503 115.4 436.77 117.533 434.503 120.2C432.236 122.867 430.436 125.933 429.103 129.4C427.903 132.867 427.103 136.4 426.703 140H478.303ZM562.822 95.8C564.422 95.8 566.222 95.9333 568.222 96.2C570.355 96.3333 572.422 96.6 574.422 97C576.422 97.2667 578.222 97.6 579.822 98C581.555 98.2667 582.822 98.5333 583.622 98.8L580.422 115C578.955 114.467 576.489 113.867 573.022 113.2C569.689 112.4 565.355 112 560.022 112C556.555 112 553.089 112.4 549.622 113.2C546.289 113.867 544.089 114.333 543.022 114.6V202H524.422V102.4C528.822 100.8 534.289 99.3333 540.822 98C547.355 96.5333 554.689 95.8 562.822 95.8ZM595.77 150.2C595.77 141 597.104 133 599.77 126.2C602.437 119.267 605.97 113.533 610.37 109C614.77 104.467 619.837 101.067 625.57 98.8C631.304 96.5333 637.17 95.4 643.17 95.4C657.17 95.4 667.904 99.8 675.37 108.6C682.837 117.267 686.57 130.533 686.57 148.4C686.57 149.2 686.57 150.267 686.57 151.6C686.57 152.8 686.504 153.933 686.37 155H615.17C615.97 165.8 619.104 174 624.57 179.6C630.037 185.2 638.57 188 650.17 188C656.704 188 662.17 187.467 666.57 186.4C671.104 185.2 674.504 184.067 676.77 183L679.37 198.6C677.104 199.8 673.104 201.067 667.37 202.4C661.77 203.733 655.37 204.4 648.17 204.4C639.104 204.4 631.237 203.067 624.57 200.4C618.037 197.6 612.637 193.8 608.37 189C604.104 184.2 600.904 178.533 598.77 172C596.77 165.333 595.77 158.067 595.77 150.2ZM667.17 140C667.304 131.6 665.17 124.733 660.77 119.4C656.504 113.933 650.57 111.2 642.97 111.2C638.704 111.2 634.904 112.067 631.57 113.8C628.37 115.4 625.637 117.533 623.37 120.2C621.104 122.867 619.304 125.933 617.97 129.4C616.77 132.867 615.97 136.4 615.57 140H667.17ZM780.489 120C778.222 118.133 774.956 116.333 770.689 114.6C766.422 112.867 761.756 112 756.689 112C751.356 112 746.756 113 742.889 115C739.156 116.867 736.089 119.533 733.689 123C731.289 126.333 729.556 130.333 728.489 135C727.422 139.667 726.889 144.667 726.889 150C726.889 162.133 729.889 171.533 735.889 178.2C741.889 184.733 749.889 188 759.889 188C764.956 188 769.156 187.8 772.489 187.4C775.956 186.867 778.622 186.333 780.489 185.8V120ZM780.489 50L799.089 46.8V199C794.822 200.2 789.356 201.4 782.689 202.6C776.022 203.8 768.356 204.4 759.689 204.4C751.689 204.4 744.489 203.133 738.089 200.6C731.689 198.067 726.222 194.467 721.689 189.8C717.156 185.133 713.622 179.467 711.089 172.8C708.689 166 707.489 158.4 707.489 150C707.489 142 708.489 134.667 710.489 128C712.622 121.333 715.689 115.6 719.689 110.8C723.689 106 728.556 102.267 734.289 99.6C740.156 96.9333 746.822 95.6 754.289 95.6C760.289 95.6 765.556 96.4 770.089 98C774.756 99.6 778.222 101.133 780.489 102.6V50ZM895.952 102.6C898.218 101.133 901.618 99.6 906.152 98C910.818 96.4 916.152 95.6 922.152 95.6C929.618 95.6 936.218 96.9333 941.952 99.6C947.818 102.267 952.752 106 956.752 110.8C960.752 115.6 963.752 121.333 965.752 128C967.885 134.667 968.952 142 968.952 150C968.952 158.4 967.685 166 965.152 172.8C962.752 179.467 959.285 185.133 954.752 189.8C950.218 194.467 944.752 198.067 938.352 200.6C931.952 203.133 924.752 204.4 916.752 204.4C908.085 204.4 900.418 203.8 893.752 202.6C887.085 201.4 881.618 200.2 877.352 199V50L895.952 46.8V102.6ZM895.952 185.8C897.818 186.333 900.418 186.867 903.752 187.4C907.218 187.8 911.485 188 916.552 188C926.552 188 934.552 184.733 940.552 178.2C946.552 171.533 949.552 162.133 949.552 150C949.552 144.667 949.018 139.667 947.952 135C946.885 130.333 945.152 126.333 942.752 123C940.352 119.533 937.218 116.867 933.352 115C929.618 113 925.085 112 919.752 112C914.685 112 910.018 112.867 905.752 114.6C901.485 116.333 898.218 118.133 895.952 120V185.8ZM980.386 221.4C981.853 222.067 983.719 222.667 985.986 223.2C988.386 223.867 990.719 224.2 992.986 224.2C1000.32 224.2 1006.05 222.533 1010.19 219.2C1014.32 216 1018.05 210.733 1021.39 203.4C1012.99 187.4 1005.12 170.467 997.786 152.6C990.586 134.6 984.586 116.4 979.786 98H999.786C1001.25 104 1002.99 110.467 1004.99 117.4C1007.12 124.333 1009.45 131.467 1011.99 138.8C1014.52 146.133 1017.25 153.467 1020.19 160.8C1023.12 168.133 1026.19 175.2 1029.39 182C1034.45 168 1038.85 154.133 1042.59 140.4C1046.32 126.667 1049.85 112.533 1053.19 98H1072.39C1067.59 117.6 1062.25 136.467 1056.39 154.6C1050.52 172.6 1044.19 189.467 1037.39 205.2C1034.72 211.2 1031.92 216.333 1028.99 220.6C1026.19 225 1023.05 228.6 1019.59 231.4C1016.12 234.2 1012.19 236.267 1007.79 237.6C1003.52 238.933 998.653 239.6 993.186 239.6C991.719 239.6 990.186 239.467 988.586 239.2C986.986 239.067 985.386 238.8 983.786 238.4C982.319 238.133 980.919 237.8 979.586 237.4C978.386 237 977.519 236.667 976.986 236.4L980.386 221.4Z" fill="black"/>
</svg>
