<svg width="1000" height="100" viewBox="0 0 1000 100" fill="none" xmlns="http://www.w3.org/2000/svg">
<g clip-path="url(#clip0_2_46)">
<path fill-rule="evenodd" clip-rule="evenodd" d="M120.486 43H99.5139H85H84.2999C84.759 45.2618 85 47.6027 85 50C85 69.33 69.33 85 50 85C30.67 85 15 69.33 15 50C15 30.67 30.67 15 50 15C60.9953 15 70.8063 20.0701 77.2228 28H94.9124C86.7736 11.4161 69.72 0 50 0C22.3858 0 0 22.3858 0 50C0 77.6142 22.3858 100 50 100C74.8912 100 95.5343 81.8114 99.3634 58H120.637H134H135.918C135.318 55.4307 135 52.7524 135 50C135 30.67 150.67 15 170 15C189.33 15 205 30.67 205 50C205 69.33 189.33 85 170 85C159.474 85 150.034 80.3536 143.618 73H125.592C133.917 89.0411 150.679 100 170 100C197.614 100 220 77.6142 220 50C220 22.3858 197.614 0 170 0C144.761 0 123.89 18.6997 120.486 43Z" fill="#1D1F20"/>
<path d="M270.7 80.1C280.833 80.1 285.9 76.6333 285.9 69.7C285.9 67.5667 285.433 65.7667 284.5 64.3C283.633 62.7667 282.433 61.4667 280.9 60.4C279.367 59.2667 277.6 58.3 275.6 57.5C273.667 56.7 271.6 55.9 269.4 55.1C266.867 54.2333 264.467 53.2667 262.2 52.2C259.933 51.0667 257.967 49.7667 256.3 48.3C254.633 46.7667 253.3 44.9667 252.3 42.9C251.367 40.8333 250.9 38.3333 250.9 35.4C250.9 29.3333 252.967 24.6 257.1 21.2C261.233 17.8 266.933 16.1 274.2 16.1C278.4 16.1 282.2 16.5667 285.6 17.5C289.067 18.3667 291.6 19.3333 293.2 20.4L290.1 28.3C288.7 27.4333 286.6 26.6 283.8 25.8C281.067 24.9333 277.867 24.5 274.2 24.5C272.333 24.5 270.6 24.7 269 25.1C267.4 25.5 266 26.1 264.8 26.9C263.6 27.7 262.633 28.7333 261.9 30C261.233 31.2 260.9 32.6333 260.9 34.3C260.9 36.1667 261.267 37.7333 262 39C262.733 40.2667 263.767 41.4 265.1 42.4C266.433 43.3333 267.967 44.2 269.7 45C271.5 45.8 273.467 46.6 275.6 47.4C278.6 48.6 281.333 49.8 283.8 51C286.333 52.2 288.5 53.6333 290.3 55.3C292.167 56.9667 293.6 58.9667 294.6 61.3C295.6 63.5667 296.1 66.3333 296.1 69.6C296.1 75.6667 293.867 80.3333 289.4 83.6C285 86.8667 278.767 88.5 270.7 88.5C267.967 88.5 265.433 88.3 263.1 87.9C260.833 87.5667 258.8 87.1667 257 86.7C255.2 86.1667 253.633 85.6333 252.3 85.1C251.033 84.5 250.033 84 249.3 83.6L252.2 75.6C253.733 76.4667 256.067 77.4333 259.2 78.5C262.333 79.5667 266.167 80.1 270.7 80.1ZM351.423 17.7H361.123V87H351.423V55H317.523V87H307.823V17.7H317.523V46.6H351.423V17.7ZM375.53 52.3C375.53 46.3667 376.397 41.1333 378.13 36.6C379.93 32.0667 382.33 28.3 385.33 25.3C388.397 22.2333 391.93 19.9333 395.93 18.4C399.997 16.8667 404.297 16.1 408.83 16.1C413.297 16.1 417.497 16.8667 421.43 18.4C425.43 19.9333 428.93 22.2333 431.93 25.3C434.93 28.3 437.297 32.0667 439.03 36.6C440.83 41.1333 441.73 46.3667 441.73 52.3C441.73 58.2333 440.83 63.4667 439.03 68C437.297 72.5333 434.93 76.3333 431.93 79.4C428.93 82.4 425.43 84.6667 421.43 86.2C417.497 87.7333 413.297 88.5 408.83 88.5C404.297 88.5 399.997 87.7333 395.93 86.2C391.93 84.6667 388.397 82.4 385.33 79.4C382.33 76.3333 379.93 72.5333 378.13 68C376.397 63.4667 375.53 58.2333 375.53 52.3ZM385.73 52.3C385.73 56.5 386.264 60.3333 387.33 63.8C388.397 67.2 389.897 70.1 391.83 72.5C393.83 74.9 396.23 76.7667 399.03 78.1C401.897 79.3667 405.097 80 408.63 80C412.164 80 415.33 79.3667 418.13 78.1C420.93 76.7667 423.297 74.9 425.23 72.5C427.23 70.1 428.764 67.2 429.83 63.8C430.897 60.3333 431.43 56.5 431.43 52.3C431.43 48.1 430.897 44.3 429.83 40.9C428.764 37.4333 427.23 34.5 425.23 32.1C423.297 29.7 420.93 27.8667 418.13 26.6C415.33 25.2667 412.164 24.6 408.63 24.6C405.097 24.6 401.897 25.2667 399.03 26.6C396.23 27.8667 393.83 29.7 391.83 32.1C389.897 34.5 388.397 37.4333 387.33 40.9C386.264 44.3 385.73 48.1 385.73 52.3ZM490.063 58C491.129 59.3333 492.463 61.1 494.063 63.3C495.729 65.4333 497.429 67.8333 499.163 70.5C500.896 73.1 502.596 75.8333 504.263 78.7C505.996 81.5667 507.463 84.3333 508.663 87H498.062C496.729 84.4667 495.263 81.9 493.663 79.3C492.129 76.7 490.563 74.2333 488.963 71.9C487.363 69.5 485.763 67.2667 484.163 65.2C482.629 63.1333 481.229 61.3333 479.963 59.8C479.096 59.8667 478.196 59.9 477.263 59.9C476.396 59.9 475.496 59.9 474.563 59.9H465.863V87H456.163V18.7C458.896 18.0333 461.929 17.6 465.263 17.4C468.663 17.1333 471.763 17 474.563 17C484.296 17 491.696 18.8333 496.763 22.5C501.896 26.1667 504.463 31.6333 504.463 38.9C504.463 43.5 503.229 47.4333 500.763 50.7C498.363 53.9667 494.796 56.4 490.063 58ZM475.363 25.5C471.229 25.5 468.063 25.6 465.863 25.8V51.9H472.763C476.096 51.9 479.096 51.7333 481.763 51.4C484.429 51.0667 486.663 50.4333 488.463 49.5C490.329 48.5667 491.763 47.2667 492.763 45.6C493.763 43.8667 494.263 41.6 494.263 38.8C494.263 36.2 493.763 34.0333 492.763 32.3C491.763 30.5667 490.396 29.2 488.663 28.2C486.996 27.2 484.996 26.5 482.663 26.1C480.396 25.7 477.963 25.5 475.363 25.5ZM565.353 17.7V26.1H543.553V87H533.853V26.1H512.053V17.7H565.353ZM602.662 88.5C597.795 88.5 593.362 87.7 589.362 86.1C585.362 84.5 581.928 82.1667 579.062 79.1C576.195 76.0333 573.962 72.2667 572.362 67.8C570.828 63.2667 570.062 58.1 570.062 52.3C570.062 46.5 570.928 41.3667 572.662 36.9C574.462 32.3667 576.862 28.5667 579.862 25.5C582.862 22.4333 586.362 20.1 590.362 18.5C594.362 16.9 598.628 16.1 603.162 16.1C606.028 16.1 608.595 16.3 610.862 16.7C613.195 17.1 615.195 17.5667 616.862 18.1C618.595 18.6333 619.995 19.1667 621.062 19.7C622.128 20.2333 622.862 20.6333 623.262 20.9L620.462 28.9C619.862 28.5 618.995 28.0667 617.862 27.6C616.728 27.1333 615.428 26.6667 613.962 26.2C612.562 25.7333 610.995 25.3667 609.262 25.1C607.595 24.7667 605.895 24.6 604.162 24.6C600.495 24.6 597.195 25.2333 594.262 26.5C591.328 27.7667 588.828 29.6 586.762 32C584.695 34.4 583.095 37.3333 581.962 40.8C580.895 44.2 580.362 48.0333 580.362 52.3C580.362 56.4333 580.828 60.2 581.762 63.6C582.762 67 584.228 69.9333 586.162 72.4C588.095 74.8 590.495 76.6667 593.362 78C596.295 79.3333 599.695 80 603.562 80C608.028 80 611.728 79.5333 614.662 78.6C617.595 77.6667 619.795 76.8333 621.262 76.1L623.762 84.1C623.295 84.4333 622.462 84.8667 621.262 85.4C620.062 85.8667 618.562 86.3333 616.762 86.8C614.962 87.2667 612.862 87.6667 610.462 88C608.062 88.3333 605.462 88.5 602.662 88.5ZM683.42 87C682.286 84 681.22 81.0667 680.22 78.2C679.22 75.2667 678.186 72.3 677.12 69.3H645.72L639.42 87H629.32C631.986 79.6667 634.486 72.9 636.82 66.7C639.153 60.4333 641.42 54.5 643.62 48.9C645.886 43.3 648.12 37.9667 650.32 32.9C652.52 27.7667 654.82 22.7 657.22 17.7H666.12C668.52 22.7 670.82 27.7667 673.02 32.9C675.22 37.9667 677.42 43.3 679.62 48.9C681.886 54.5 684.186 60.4333 686.52 66.7C688.853 72.9 691.353 79.6667 694.02 87H683.42ZM674.32 61.3C672.186 55.5 670.053 49.9 667.92 44.5C665.853 39.0333 663.686 33.8 661.42 28.8C659.086 33.8 656.853 39.0333 654.72 44.5C652.653 49.9 650.586 55.5 648.52 61.3H674.32ZM721.091 80.1C731.224 80.1 736.291 76.6333 736.291 69.7C736.291 67.5667 735.824 65.7667 734.891 64.3C734.024 62.7667 732.824 61.4667 731.291 60.4C729.757 59.2667 727.991 58.3 725.991 57.5C724.057 56.7 721.991 55.9 719.791 55.1C717.257 54.2333 714.857 53.2667 712.591 52.2C710.324 51.0667 708.357 49.7667 706.691 48.3C705.024 46.7667 703.691 44.9667 702.691 42.9C701.757 40.8333 701.291 38.3333 701.291 35.4C701.291 29.3333 703.357 24.6 707.491 21.2C711.624 17.8 717.324 16.1 724.591 16.1C728.791 16.1 732.591 16.5667 735.991 17.5C739.457 18.3667 741.991 19.3333 743.591 20.4L740.491 28.3C739.091 27.4333 736.991 26.6 734.191 25.8C731.457 24.9333 728.257 24.5 724.591 24.5C722.724 24.5 720.991 24.7 719.391 25.1C717.791 25.5 716.391 26.1 715.191 26.9C713.991 27.7 713.024 28.7333 712.291 30C711.624 31.2 711.291 32.6333 711.291 34.3C711.291 36.1667 711.657 37.7333 712.391 39C713.124 40.2667 714.157 41.4 715.491 42.4C716.824 43.3333 718.357 44.2 720.091 45C721.891 45.8 723.857 46.6 725.991 47.4C728.991 48.6 731.724 49.8 734.191 51C736.724 52.2 738.891 53.6333 740.691 55.3C742.557 56.9667 743.991 58.9667 744.991 61.3C745.991 63.5667 746.491 66.3333 746.491 69.6C746.491 75.6667 744.257 80.3333 739.791 83.6C735.391 86.8667 729.157 88.5 721.091 88.5C718.357 88.5 715.824 88.3 713.491 87.9C711.224 87.5667 709.191 87.1667 707.391 86.7C705.591 86.1667 704.024 85.6333 702.691 85.1C701.424 84.5 700.424 84 699.691 83.6L702.591 75.6C704.124 76.4667 706.457 77.4333 709.591 78.5C712.724 79.5667 716.557 80.1 721.091 80.1ZM804.513 17.7V26.1H782.713V87H773.013V26.1H751.213V17.7H804.513ZM856.456 78.6V87H814.756V17.7H824.456V78.6H856.456ZM866.612 87V17.7H908.912V26H876.312V46.6H905.312V54.7H876.312V78.7H911.412V87H866.612Z" fill="#1D1F20"/>
</g>
<defs>
<clipPath id="clip0_2_46">
<rect width="1000" height="100" fill="white"/>
</clipPath>
</defs>
</svg>
