<svg width="2174" height="256" viewBox="0 0 2174 256" fill="none" xmlns="http://www.w3.org/2000/svg">
<g clip-path="url(#clip0_106_105)">
<path d="M438.1 218.3C468.5 218.3 483.7 207.9 483.7 187.1C483.7 180.7 482.3 175.3 479.5 170.9C476.9 166.3 473.3 162.4 468.7 159.2C464.1 155.8 458.8 152.9 452.8 150.5C447 148.1 440.8 145.7 434.2 143.3C426.6 140.7 419.4 137.8 412.6 134.6C405.8 131.2 399.9 127.3 394.9 122.9C389.9 118.3 385.9 112.9 382.9 106.7C380.1 100.5 378.7 93 378.7 84.2C378.7 66 384.9 51.8 397.3 41.6C409.7 31.4 426.8 26.3 448.6 26.3C461.2 26.3 472.6 27.7 482.8 30.5C493.2 33.1 500.8 36 505.6 39.2L496.3 62.9C492.1 60.3 485.8 57.8 477.4 55.4C469.2 52.8 459.6 51.5 448.6 51.5C443 51.5 437.8 52.1 433 53.3C428.2 54.5 424 56.3 420.4 58.7C416.8 61.1 413.9 64.2 411.7 68C409.7 71.6 408.7 75.9 408.7 80.9C408.7 86.5 409.8 91.2 412 95C414.2 98.8 417.3 102.2 421.3 105.2C425.3 108 429.9 110.6 435.1 113C440.5 115.4 446.4 117.8 452.8 120.2C461.8 123.8 470 127.4 477.4 131C485 134.6 491.5 138.9 496.9 143.9C502.5 148.9 506.8 154.9 509.8 161.9C512.8 168.7 514.3 177 514.3 186.8C514.3 205 507.6 219 494.2 228.8C481 238.6 462.3 243.5 438.1 243.5C429.9 243.5 422.3 242.9 415.3 241.7C408.5 240.7 402.4 239.5 397 238.1C391.6 236.5 386.9 234.9 382.9 233.3C379.1 231.5 376.1 230 373.9 228.8L382.6 204.8C387.2 207.4 394.2 210.3 403.6 213.5C413 216.7 424.5 218.3 438.1 218.3ZM680.268 31.1H709.368V239H680.268V143H578.568V239H549.468V31.1H578.568V117.8H680.268V31.1ZM899.891 239C896.491 230 893.291 221.2 890.291 212.6C887.291 203.8 884.191 194.9 880.991 185.9H786.791L767.891 239H737.591C745.591 217 753.091 196.7 760.091 178.1C767.091 159.3 773.891 141.5 780.491 124.7C787.291 107.9 793.991 91.9 800.591 76.7C807.191 61.3 814.091 46.1 821.291 31.1H847.991C855.191 46.1 862.091 61.3 868.691 76.7C875.291 91.9 881.891 107.9 888.491 124.7C895.291 141.5 902.191 159.3 909.191 178.1C916.191 196.7 923.691 217 931.691 239H899.891ZM872.591 161.9C866.191 144.5 859.791 127.7 853.391 111.5C847.191 95.1 840.691 79.4 833.891 64.4C826.891 79.4 820.191 95.1 813.791 111.5C807.591 127.7 801.391 144.5 795.191 161.9H872.591ZM1061.62 152C1064.82 156 1068.82 161.3 1073.62 167.9C1078.62 174.3 1083.72 181.5 1088.92 189.5C1094.12 197.3 1099.22 205.5 1104.22 214.1C1109.42 222.7 1113.82 231 1117.42 239H1085.62C1081.62 231.4 1077.22 223.7 1072.42 215.9C1067.82 208.1 1063.12 200.7 1058.32 193.7C1053.52 186.5 1048.72 179.8 1043.92 173.6C1039.32 167.4 1035.12 162 1031.32 157.4C1028.72 157.6 1026.02 157.7 1023.22 157.7C1020.62 157.7 1017.92 157.7 1015.12 157.7H989.017V239H959.917V34.1C968.117 32.1 977.217 30.8 987.217 30.2C997.417 29.4 1006.72 29 1015.12 29C1044.32 29 1066.52 34.5 1081.72 45.5C1097.12 56.5 1104.82 72.9 1104.82 94.7C1104.82 108.5 1101.12 120.3 1093.72 130.1C1086.52 139.9 1075.82 147.2 1061.62 152ZM1017.52 54.5C1005.12 54.5 995.617 54.8 989.017 55.4V133.7H1009.72C1019.72 133.7 1028.72 133.2 1036.72 132.2C1044.72 131.2 1051.42 129.3 1056.82 126.5C1062.42 123.7 1066.72 119.8 1069.72 114.8C1072.72 109.6 1074.22 102.8 1074.22 94.4C1074.22 86.6 1072.72 80.1 1069.72 74.9C1066.72 69.7 1062.62 65.6 1057.42 62.6C1052.42 59.6 1046.42 57.5 1039.42 56.3C1032.62 55.1 1025.32 54.5 1017.52 54.5ZM1148.59 239V31.1H1275.49V56H1177.69V117.8H1264.69V142.1H1177.69V214.1H1282.99V239H1148.59ZM1400.88 243.5C1386.28 243.5 1372.98 241.1 1360.98 236.3C1348.98 231.5 1338.68 224.5 1330.08 215.3C1321.48 206.1 1314.78 194.8 1309.98 181.4C1305.38 167.8 1303.08 152.3 1303.08 134.9C1303.08 117.5 1305.68 102.1 1310.88 88.7C1316.28 75.1 1323.48 63.7 1332.48 54.5C1341.48 45.3 1351.98 38.3 1363.98 33.5C1375.98 28.7 1388.78 26.3 1402.38 26.3C1410.98 26.3 1418.68 26.9 1425.48 28.1C1432.48 29.3 1438.48 30.7 1443.48 32.3C1448.68 33.9 1452.88 35.5 1456.08 37.1C1459.28 38.7 1461.48 39.9 1462.68 40.7L1454.28 64.7C1452.48 63.5 1449.88 62.2 1446.48 60.8C1443.08 59.4 1439.18 58 1434.78 56.6C1430.58 55.2 1425.88 54.1 1420.68 53.3C1415.68 52.3 1410.58 51.8 1405.38 51.8C1394.38 51.8 1384.48 53.7 1375.68 57.5C1366.88 61.3 1359.38 66.8 1353.18 74C1346.98 81.2 1342.18 90 1338.78 100.4C1335.58 110.6 1333.98 122.1 1333.98 134.9C1333.98 147.3 1335.38 158.6 1338.18 168.8C1341.18 179 1345.58 187.8 1351.38 195.2C1357.18 202.4 1364.38 208 1372.98 212C1381.78 216 1391.98 218 1403.58 218C1416.98 218 1428.08 216.6 1436.88 213.8C1445.68 211 1452.28 208.5 1456.68 206.3L1464.18 230.3C1462.78 231.3 1460.28 232.6 1456.68 234.2C1453.08 235.6 1448.58 237 1443.18 238.4C1437.78 239.8 1431.48 241 1424.28 242C1417.08 243 1409.28 243.5 1400.88 243.5ZM1628.31 31.1H1657.41V239H1628.31V143H1526.61V239H1497.51V31.1H1526.61V117.8H1628.31V31.1ZM1709.04 239V31.1H1835.94V56H1738.14V117.8H1825.14V142.1H1738.14V214.1H1843.44V239H1709.04ZM1928.73 218.3C1959.13 218.3 1974.33 207.9 1974.33 187.1C1974.33 180.7 1972.93 175.3 1970.13 170.9C1967.53 166.3 1963.93 162.4 1959.33 159.2C1954.73 155.8 1949.43 152.9 1943.43 150.5C1937.63 148.1 1931.43 145.7 1924.83 143.3C1917.23 140.7 1910.03 137.8 1903.23 134.6C1896.43 131.2 1890.53 127.3 1885.53 122.9C1880.53 118.3 1876.53 112.9 1873.53 106.7C1870.73 100.5 1869.33 93 1869.33 84.2C1869.33 66 1875.53 51.8 1887.93 41.6C1900.33 31.4 1917.43 26.3 1939.23 26.3C1951.83 26.3 1963.23 27.7 1973.43 30.5C1983.83 33.1 1991.43 36 1996.23 39.2L1986.93 62.9C1982.73 60.3 1976.43 57.8 1968.03 55.4C1959.83 52.8 1950.23 51.5 1939.23 51.5C1933.63 51.5 1928.43 52.1 1923.63 53.3C1918.83 54.5 1914.63 56.3 1911.03 58.7C1907.43 61.1 1904.53 64.2 1902.33 68C1900.33 71.6 1899.33 75.9 1899.33 80.9C1899.33 86.5 1900.43 91.2 1902.63 95C1904.83 98.8 1907.93 102.2 1911.93 105.2C1915.93 108 1920.53 110.6 1925.73 113C1931.13 115.4 1937.03 117.8 1943.43 120.2C1952.43 123.8 1960.63 127.4 1968.03 131C1975.63 134.6 1982.13 138.9 1987.53 143.9C1993.13 148.9 1997.43 154.9 2000.43 161.9C2003.43 168.7 2004.93 177 2004.93 186.8C2004.93 205 1998.23 219 1984.83 228.8C1971.63 238.6 1952.93 243.5 1928.73 243.5C1920.53 243.5 1912.93 242.9 1905.93 241.7C1899.13 240.7 1893.03 239.5 1887.63 238.1C1882.23 236.5 1877.53 234.9 1873.53 233.3C1869.73 231.5 1866.73 230 1864.52 228.8L1873.23 204.8C1877.83 207.4 1884.83 210.3 1894.22 213.5C1903.63 216.7 1915.13 218.3 1928.73 218.3ZM2088.39 218.3C2118.79 218.3 2133.99 207.9 2133.99 187.1C2133.99 180.7 2132.59 175.3 2129.79 170.9C2127.19 166.3 2123.59 162.4 2118.99 159.2C2114.39 155.8 2109.09 152.9 2103.09 150.5C2097.29 148.1 2091.09 145.7 2084.49 143.3C2076.89 140.7 2069.69 137.8 2062.89 134.6C2056.09 131.2 2050.19 127.3 2045.19 122.9C2040.19 118.3 2036.19 112.9 2033.19 106.7C2030.39 100.5 2028.99 93 2028.99 84.2C2028.99 66 2035.19 51.8 2047.59 41.6C2059.99 31.4 2077.09 26.3 2098.89 26.3C2111.49 26.3 2122.89 27.7 2133.09 30.5C2143.49 33.1 2151.09 36 2155.89 39.2L2146.59 62.9C2142.39 60.3 2136.09 57.8 2127.69 55.4C2119.49 52.8 2109.89 51.5 2098.89 51.5C2093.29 51.5 2088.09 52.1 2083.29 53.3C2078.49 54.5 2074.29 56.3 2070.69 58.7C2067.09 61.1 2064.19 64.2 2061.99 68C2059.99 71.6 2058.99 75.9 2058.99 80.9C2058.99 86.5 2060.09 91.2 2062.29 95C2064.49 98.8 2067.59 102.2 2071.59 105.2C2075.59 108 2080.19 110.6 2085.39 113C2090.79 115.4 2096.69 117.8 2103.09 120.2C2112.09 123.8 2120.29 127.4 2127.69 131C2135.29 134.6 2141.79 138.9 2147.19 143.9C2152.79 148.9 2157.09 154.9 2160.09 161.9C2163.09 168.7 2164.59 177 2164.59 186.8C2164.59 205 2157.89 219 2144.49 228.8C2131.29 238.6 2112.59 243.5 2088.39 243.5C2080.19 243.5 2072.59 242.9 2065.59 241.7C2058.79 240.7 2052.69 239.5 2047.29 238.1C2041.89 236.5 2037.19 234.9 2033.19 233.3C2029.39 231.5 2026.39 230 2024.19 228.8L2032.89 204.8C2037.49 207.4 2044.49 210.3 2053.89 213.5C2063.29 216.7 2074.79 218.3 2088.39 218.3Z" fill="#242727"/>
<rect width="256" height="256" rx="50" fill="white"/>
<path fill-rule="evenodd" clip-rule="evenodd" d="M256 128V50C256 22.3858 233.614 0 206 0H128V128H256Z" fill="#00AD88"/>
<path fill-rule="evenodd" clip-rule="evenodd" d="M0 128V206C0 233.614 22.3858 256 50 256H128V128H0Z" fill="#00AD88"/>
<rect x="10" y="10" width="236" height="236" rx="40" stroke="#00AD88" stroke-width="20"/>
<path d="M155.002 42.7672C152.107 40.0032 147.843 39.2317 144.163 40.8061C140.483 42.3805 138.097 45.9975 138.097 50V74.3265C99.0027 88.4033 46.9334 122.144 29.3254 189.47C28.1638 193.911 30.1756 198.573 34.204 200.775C38.2324 202.977 43.2425 202.153 46.3536 198.777C77.7635 164.693 119.534 160.023 138.097 159.717V181.461C138.097 185.462 140.482 189.078 144.159 190.653C147.837 192.228 152.1 191.46 154.996 188.699L223.899 123.024C225.878 121.138 226.999 118.524 227 115.79C227.001 113.056 225.883 110.441 223.906 108.553L155.002 42.7672Z" fill="white" stroke="black" stroke-width="20" stroke-linejoin="round"/>
</g>
<defs>
<clipPath id="clip0_106_105">
<rect width="2174" height="256" fill="white"/>
</clipPath>
</defs>
</svg>
