<svg width="1608" height="256" viewBox="0 0 1608 256" fill="none" xmlns="http://www.w3.org/2000/svg">
<path d="M413.4 188.2C433.667 188.2 443.8 181.267 443.8 167.4C443.8 163.133 442.867 159.533 441 156.6C439.267 153.533 436.867 150.933 433.8 148.8C430.733 146.533 427.2 144.6 423.2 143C419.333 141.4 415.2 139.8 410.8 138.2C405.733 136.467 400.933 134.533 396.4 132.4C391.867 130.133 387.933 127.533 384.6 124.6C381.267 121.533 378.6 117.933 376.6 113.8C374.733 109.667 373.8 104.667 373.8 98.8C373.8 86.6667 377.933 77.2 386.2 70.4C394.467 63.6 405.867 60.2 420.4 60.2C428.8 60.2 436.4 61.1333 443.2 63C450.133 64.7333 455.2 66.6667 458.4 68.8L452.2 84.6C449.4 82.8667 445.2 81.2 439.6 79.6C434.133 77.8667 427.733 77 420.4 77C416.667 77 413.2 77.4 410 78.2C406.8 79 404 80.2 401.6 81.8C399.2 83.4 397.267 85.4667 395.8 88C394.467 90.4 393.8 93.2667 393.8 96.6C393.8 100.333 394.533 103.467 396 106C397.467 108.533 399.533 110.8 402.2 112.8C404.867 114.667 407.933 116.4 411.4 118C415 119.6 418.933 121.2 423.2 122.8C429.2 125.2 434.667 127.6 439.6 130C444.667 132.4 449 135.267 452.6 138.6C456.333 141.933 459.2 145.933 461.2 150.6C463.2 155.133 464.2 160.667 464.2 167.2C464.2 179.333 459.733 188.667 450.8 195.2C442 201.733 429.533 205 413.4 205C407.933 205 402.867 204.6 398.2 203.8C393.667 203.133 389.6 202.333 386 201.4C382.4 200.333 379.267 199.267 376.6 198.2C374.067 197 372.067 196 370.6 195.2L376.4 179.2C379.467 180.933 384.133 182.867 390.4 185C396.667 187.133 404.333 188.2 413.4 188.2ZM574.845 63.4H594.245V202H574.845V138H507.045V202H487.645V63.4H507.045V121.2H574.845V63.4ZM721.261 202C718.994 196 716.861 190.133 714.861 184.4C712.861 178.533 710.794 172.6 708.661 166.6H645.861L633.261 202H613.061C618.394 187.333 623.394 173.8 628.061 161.4C632.728 148.867 637.261 137 641.661 125.8C646.194 114.6 650.661 103.933 655.061 93.8C659.461 83.5333 664.061 73.4 668.861 63.4H686.661C691.461 73.4 696.061 83.5333 700.461 93.8C704.861 103.933 709.261 114.6 713.661 125.8C718.194 137 722.794 148.867 727.461 161.4C732.128 173.8 737.128 187.333 742.461 202H721.261ZM703.061 150.6C698.794 139 694.528 127.8 690.261 117C686.128 106.067 681.794 95.6 677.261 85.6C672.594 95.6 668.128 106.067 663.861 117C659.728 127.8 655.594 139 651.461 150.6H703.061ZM829.078 144C831.211 146.667 833.878 150.2 837.078 154.6C840.411 158.867 843.811 163.667 847.278 169C850.745 174.2 854.145 179.667 857.478 185.4C860.945 191.133 863.878 196.667 866.278 202H845.078C842.411 196.933 839.478 191.8 836.278 186.6C833.211 181.4 830.078 176.467 826.878 171.8C823.678 167 820.478 162.533 817.278 158.4C814.211 154.267 811.411 150.667 808.878 147.6C807.145 147.733 805.345 147.8 803.478 147.8C801.745 147.8 799.945 147.8 798.078 147.8H780.678V202H761.278V65.4C766.745 64.0667 772.811 63.2 779.478 62.8C786.278 62.2667 792.478 62 798.078 62C817.545 62 832.345 65.6667 842.478 73C852.745 80.3333 857.878 91.2667 857.878 105.8C857.878 115 855.411 122.867 850.478 129.4C845.678 135.933 838.545 140.8 829.078 144ZM799.678 79C791.411 79 785.078 79.2 780.678 79.6V131.8H794.478C801.145 131.8 807.145 131.467 812.478 130.8C817.811 130.133 822.278 128.867 825.878 127C829.611 125.133 832.478 122.533 834.478 119.2C836.478 115.733 837.478 111.2 837.478 105.6C837.478 100.4 836.478 96.0667 834.478 92.6C832.478 89.1333 829.745 86.4 826.278 84.4C822.945 82.4 818.945 81 814.278 80.2C809.745 79.4 804.878 79 799.678 79ZM887.059 202V63.4H971.659V80H906.459V121.2H964.459V137.4H906.459V185.4H976.659V202H887.059ZM1055.25 205C1045.52 205 1036.65 203.4 1028.65 200.2C1020.65 197 1013.79 192.333 1008.05 186.2C1002.32 180.067 997.853 172.533 994.653 163.6C991.586 154.533 990.053 144.2 990.053 132.6C990.053 121 991.786 110.733 995.253 101.8C998.853 92.7333 1003.65 85.1333 1009.65 79C1015.65 72.8667 1022.65 68.2 1030.65 65C1038.65 61.8 1047.19 60.2 1056.25 60.2C1061.99 60.2 1067.12 60.6 1071.65 61.4C1076.32 62.2 1080.32 63.1333 1083.65 64.2C1087.12 65.2667 1089.92 66.3333 1092.05 67.4C1094.19 68.4667 1095.65 69.2667 1096.45 69.8L1090.85 85.8C1089.65 85 1087.92 84.1333 1085.65 83.2C1083.39 82.2667 1080.79 81.3333 1077.85 80.4C1075.05 79.4667 1071.92 78.7333 1068.45 78.2C1065.12 77.5333 1061.72 77.2 1058.25 77.2C1050.92 77.2 1044.32 78.4667 1038.45 81C1032.59 83.5333 1027.59 87.2 1023.45 92C1019.32 96.8 1016.12 102.667 1013.85 109.6C1011.72 116.4 1010.65 124.067 1010.65 132.6C1010.65 140.867 1011.59 148.4 1013.45 155.2C1015.45 162 1018.39 167.867 1022.25 172.8C1026.12 177.6 1030.92 181.333 1036.65 184C1042.52 186.667 1049.32 188 1057.05 188C1065.99 188 1073.39 187.067 1079.25 185.2C1085.12 183.333 1089.52 181.667 1092.45 180.2L1097.45 196.2C1096.52 196.867 1094.85 197.733 1092.45 198.8C1090.05 199.733 1087.05 200.667 1083.45 201.6C1079.85 202.533 1075.65 203.333 1070.85 204C1066.05 204.667 1060.85 205 1055.25 205ZM1206.88 63.4H1226.28V202H1206.88V138H1139.08V202H1119.68V63.4H1139.08V121.2H1206.88V63.4ZM1260.69 202V63.4H1345.29V80H1280.09V121.2H1338.09V137.4H1280.09V185.4H1350.29V202H1260.69ZM1407.15 188.2C1427.42 188.2 1437.55 181.267 1437.55 167.4C1437.55 163.133 1436.62 159.533 1434.75 156.6C1433.02 153.533 1430.62 150.933 1427.55 148.8C1424.48 146.533 1420.95 144.6 1416.95 143C1413.08 141.4 1408.95 139.8 1404.55 138.2C1399.48 136.467 1394.68 134.533 1390.15 132.4C1385.62 130.133 1381.68 127.533 1378.35 124.6C1375.02 121.533 1372.35 117.933 1370.35 113.8C1368.48 109.667 1367.55 104.667 1367.55 98.8C1367.55 86.6667 1371.68 77.2 1379.95 70.4C1388.22 63.6 1399.62 60.2 1414.15 60.2C1422.55 60.2 1430.15 61.1333 1436.95 63C1443.88 64.7333 1448.95 66.6667 1452.15 68.8L1445.95 84.6C1443.15 82.8667 1438.95 81.2 1433.35 79.6C1427.88 77.8667 1421.48 77 1414.15 77C1410.42 77 1406.95 77.4 1403.75 78.2C1400.55 79 1397.75 80.2 1395.35 81.8C1392.95 83.4 1391.02 85.4667 1389.55 88C1388.22 90.4 1387.55 93.2667 1387.55 96.6C1387.55 100.333 1388.28 103.467 1389.75 106C1391.22 108.533 1393.28 110.8 1395.95 112.8C1398.62 114.667 1401.68 116.4 1405.15 118C1408.75 119.6 1412.68 121.2 1416.95 122.8C1422.95 125.2 1428.42 127.6 1433.35 130C1438.42 132.4 1442.75 135.267 1446.35 138.6C1450.08 141.933 1452.95 145.933 1454.95 150.6C1456.95 155.133 1457.95 160.667 1457.95 167.2C1457.95 179.333 1453.48 188.667 1444.55 195.2C1435.75 201.733 1423.28 205 1407.15 205C1401.68 205 1396.62 204.6 1391.95 203.8C1387.42 203.133 1383.35 202.333 1379.75 201.4C1376.15 200.333 1373.02 199.267 1370.35 198.2C1367.82 197 1365.82 196 1364.35 195.2L1370.15 179.2C1373.22 180.933 1377.88 182.867 1384.15 185C1390.42 187.133 1398.08 188.2 1407.15 188.2ZM1513.6 188.2C1533.86 188.2 1544 181.267 1544 167.4C1544 163.133 1543.06 159.533 1541.2 156.6C1539.46 153.533 1537.06 150.933 1534 148.8C1530.93 146.533 1527.4 144.6 1523.4 143C1519.53 141.4 1515.4 139.8 1511 138.2C1505.93 136.467 1501.13 134.533 1496.6 132.4C1492.06 130.133 1488.13 127.533 1484.8 124.6C1481.46 121.533 1478.8 117.933 1476.8 113.8C1474.93 109.667 1474 104.667 1474 98.8C1474 86.6667 1478.13 77.2 1486.4 70.4C1494.66 63.6 1506.06 60.2 1520.6 60.2C1529 60.2 1536.6 61.1333 1543.4 63C1550.33 64.7333 1555.4 66.6667 1558.6 68.8L1552.4 84.6C1549.6 82.8667 1545.4 81.2 1539.8 79.6C1534.33 77.8667 1527.93 77 1520.6 77C1516.86 77 1513.4 77.4 1510.2 78.2C1507 79 1504.2 80.2 1501.8 81.8C1499.4 83.4 1497.46 85.4667 1496 88C1494.66 90.4 1494 93.2667 1494 96.6C1494 100.333 1494.73 103.467 1496.2 106C1497.66 108.533 1499.73 110.8 1502.4 112.8C1505.06 114.667 1508.13 116.4 1511.6 118C1515.2 119.6 1519.13 121.2 1523.4 122.8C1529.4 125.2 1534.86 127.6 1539.8 130C1544.86 132.4 1549.2 135.267 1552.8 138.6C1556.53 141.933 1559.4 145.933 1561.4 150.6C1563.4 155.133 1564.4 160.667 1564.4 167.2C1564.4 179.333 1559.93 188.667 1551 195.2C1542.2 201.733 1529.73 205 1513.6 205C1508.13 205 1503.06 204.6 1498.4 203.8C1493.86 203.133 1489.8 202.333 1486.2 201.4C1482.6 200.333 1479.46 199.267 1476.8 198.2C1474.26 197 1472.26 196 1470.8 195.2L1476.6 179.2C1479.66 180.933 1484.33 182.867 1490.6 185C1496.86 187.133 1504.53 188.2 1513.6 188.2Z" fill="#D4DDE0"/>
<rect width="256" height="256" rx="50" fill="white"/>
<path fill-rule="evenodd" clip-rule="evenodd" d="M256 128V50C256 22.3858 233.614 0 206 0H128V128H256Z" fill="#00AD88"/>
<path fill-rule="evenodd" clip-rule="evenodd" d="M0 128V206C0 233.614 22.3858 256 50 256H128V128H0Z" fill="#00AD88"/>
<rect x="10" y="10" width="236" height="236" rx="40" stroke="#00AD88" stroke-width="20"/>
<path d="M155.002 42.7672C152.107 40.0032 147.843 39.2317 144.163 40.8061C140.483 42.3805 138.097 45.9975 138.097 50V74.3265C99.0027 88.4033 46.9334 122.144 29.3254 189.47C28.1638 193.911 30.1756 198.573 34.204 200.775C38.2324 202.977 43.2425 202.153 46.3536 198.777C77.7635 164.693 119.534 160.023 138.097 159.717V181.461C138.097 185.462 140.482 189.078 144.159 190.653C147.837 192.228 152.1 191.46 154.996 188.699L223.899 123.024C225.878 121.138 226.999 118.524 227 115.79C227.001 113.056 225.883 110.441 223.906 108.553L155.002 42.7672Z" fill="white" stroke="black" stroke-width="20" stroke-linejoin="round"/>
</svg>
