<svg width="2083" height="256" viewBox="0 0 2083 256" fill="none" xmlns="http://www.w3.org/2000/svg">
<rect width="2083" height="256" fill="white"/>
<path d="M372.809 188.6C380.409 188.6 386.009 187.6 389.609 185.6C393.343 183.6 395.209 180.4 395.209 176C395.209 171.467 393.409 167.867 389.809 165.2C386.209 162.533 380.276 159.533 372.009 156.2C368.009 154.6 364.143 153 360.409 151.4C356.809 149.667 353.676 147.667 351.009 145.4C348.343 143.133 346.209 140.4 344.609 137.2C343.009 134 342.209 130.067 342.209 125.4C342.209 116.2 345.609 108.933 352.409 103.6C359.209 98.1333 368.476 95.4 380.209 95.4C383.143 95.4 386.076 95.6 389.009 96C391.943 96.2667 394.676 96.6667 397.209 97.2C399.743 97.6 401.943 98.0667 403.809 98.6C405.809 99.1333 407.343 99.6 408.409 100L405.009 116C403.009 114.933 399.876 113.867 395.609 112.8C391.343 111.6 386.209 111 380.209 111C375.009 111 370.476 112.067 366.609 114.2C362.743 116.2 360.809 119.4 360.809 123.8C360.809 126.067 361.209 128.067 362.009 129.8C362.943 131.533 364.276 133.133 366.009 134.6C367.876 135.933 370.143 137.2 372.809 138.4C375.476 139.6 378.676 140.867 382.409 142.2C387.343 144.067 391.743 145.933 395.609 147.8C399.476 149.533 402.743 151.6 405.409 154C408.209 156.4 410.343 159.333 411.809 162.8C413.276 166.133 414.009 170.267 414.009 175.2C414.009 184.8 410.409 192.067 403.209 197C396.143 201.933 386.009 204.4 372.809 204.4C363.609 204.4 356.409 203.6 351.209 202C346.009 200.533 342.476 199.4 340.609 198.6L344.009 182.6C346.143 183.4 349.543 184.6 354.209 186.2C358.876 187.8 365.076 188.6 372.809 188.6ZM437.867 202V50L456.467 46.8V100C459.934 98.6667 463.601 97.6667 467.467 97C471.467 96.2 475.401 95.8 479.267 95.8C487.534 95.8 494.401 97 499.867 99.4C505.334 101.667 509.667 104.933 512.867 109.2C516.201 113.333 518.534 118.333 519.867 124.2C521.201 130.067 521.867 136.533 521.867 143.6V202H503.267V147.6C503.267 141.2 502.801 135.733 501.867 131.2C501.067 126.667 499.667 123 497.667 120.2C495.667 117.4 493.001 115.4 489.667 114.2C486.334 112.867 482.201 112.2 477.267 112.2C475.267 112.2 473.201 112.333 471.067 112.6C468.934 112.867 466.867 113.2 464.867 113.6C463.001 113.867 461.267 114.2 459.667 114.6C458.201 115 457.134 115.333 456.467 115.6V202H437.867ZM590.525 95.8C592.125 95.8 593.925 95.9333 595.925 96.2C598.058 96.3333 600.125 96.6 602.125 97C604.125 97.2667 605.925 97.6 607.525 98C609.258 98.2667 610.525 98.5333 611.325 98.8L608.125 115C606.658 114.467 604.192 113.867 600.725 113.2C597.392 112.4 593.058 112 587.725 112C584.258 112 580.792 112.4 577.325 113.2C573.992 113.867 571.792 114.333 570.725 114.6V202H552.125V102.4C556.525 100.8 561.992 99.3333 568.525 98C575.058 96.5333 582.392 95.8 590.525 95.8ZM623.473 150.2C623.473 141 624.807 133 627.473 126.2C630.14 119.267 633.673 113.533 638.073 109C642.473 104.467 647.54 101.067 653.273 98.8C659.007 96.5333 664.873 95.4 670.873 95.4C684.873 95.4 695.607 99.8 703.073 108.6C710.54 117.267 714.273 130.533 714.273 148.4C714.273 149.2 714.273 150.267 714.273 151.6C714.273 152.8 714.207 153.933 714.073 155H642.873C643.673 165.8 646.807 174 652.273 179.6C657.74 185.2 666.273 188 677.873 188C684.407 188 689.873 187.467 694.273 186.4C698.807 185.2 702.207 184.067 704.473 183L707.073 198.6C704.807 199.8 700.807 201.067 695.073 202.4C689.473 203.733 683.073 204.4 675.873 204.4C666.807 204.4 658.94 203.067 652.273 200.4C645.74 197.6 640.34 193.8 636.073 189C631.807 184.2 628.607 178.533 626.473 172C624.473 165.333 623.473 158.067 623.473 150.2ZM694.873 140C695.007 131.6 692.873 124.733 688.473 119.4C684.207 113.933 678.273 111.2 670.673 111.2C666.407 111.2 662.607 112.067 659.273 113.8C656.073 115.4 653.34 117.533 651.073 120.2C648.807 122.867 647.007 125.933 645.673 129.4C644.473 132.867 643.673 136.4 643.273 140H694.873ZM786.192 204.4C777.792 204.4 770.392 203.067 763.992 200.4C757.726 197.733 752.392 194 747.992 189.2C743.726 184.4 740.526 178.733 738.392 172.2C736.259 165.533 735.192 158.2 735.192 150.2C735.192 142.2 736.326 134.867 738.592 128.2C740.992 121.533 744.326 115.8 748.592 111C752.859 106.067 758.059 102.267 764.192 99.6C770.459 96.8 777.392 95.4 784.992 95.4C789.659 95.4 794.326 95.8 798.992 96.6C803.659 97.4 808.126 98.6667 812.392 100.4L808.192 116.2C805.392 114.867 802.126 113.8 798.392 113C794.792 112.2 790.926 111.8 786.792 111.8C776.392 111.8 768.392 115.067 762.792 121.6C757.326 128.133 754.592 137.667 754.592 150.2C754.592 155.8 755.192 160.933 756.392 165.6C757.726 170.267 759.726 174.267 762.392 177.6C765.192 180.933 768.726 183.533 772.992 185.4C777.259 187.133 782.459 188 788.592 188C793.526 188 797.992 187.533 801.992 186.6C805.992 185.667 809.126 184.667 811.392 183.6L813.992 199.2C812.926 199.867 811.392 200.533 809.392 201.2C807.392 201.733 805.126 202.2 802.592 202.6C800.059 203.133 797.326 203.533 794.392 203.8C791.592 204.2 788.859 204.4 786.192 204.4ZM833.961 202V50L852.561 46.8V100C856.028 98.6667 859.694 97.6667 863.561 97C867.561 96.2 871.494 95.8 875.361 95.8C883.628 95.8 890.494 97 895.961 99.4C901.428 101.667 905.761 104.933 908.961 109.2C912.294 113.333 914.628 118.333 915.961 124.2C917.294 130.067 917.961 136.533 917.961 143.6V202H899.361V147.6C899.361 141.2 898.894 135.733 897.961 131.2C897.161 126.667 895.761 123 893.761 120.2C891.761 117.4 889.094 115.4 885.761 114.2C882.428 112.867 878.294 112.2 873.361 112.2C871.361 112.2 869.294 112.333 867.161 112.6C865.028 112.867 862.961 113.2 860.961 113.6C859.094 113.867 857.361 114.2 855.761 114.6C854.294 115 853.228 115.333 852.561 115.6V202H833.961ZM942.419 150.2C942.419 141 943.752 133 946.419 126.2C949.085 119.267 952.619 113.533 957.019 109C961.419 104.467 966.485 101.067 972.219 98.8C977.952 96.5333 983.819 95.4 989.819 95.4C1003.82 95.4 1014.55 99.8 1022.02 108.6C1029.49 117.267 1033.22 130.533 1033.22 148.4C1033.22 149.2 1033.22 150.267 1033.22 151.6C1033.22 152.8 1033.15 153.933 1033.02 155H961.819C962.619 165.8 965.752 174 971.219 179.6C976.685 185.2 985.219 188 996.819 188C1003.35 188 1008.82 187.467 1013.22 186.4C1017.75 185.2 1021.15 184.067 1023.42 183L1026.02 198.6C1023.75 199.8 1019.75 201.067 1014.02 202.4C1008.42 203.733 1002.02 204.4 994.819 204.4C985.752 204.4 977.885 203.067 971.219 200.4C964.685 197.6 959.285 193.8 955.019 189C950.752 184.2 947.552 178.533 945.419 172C943.419 165.333 942.419 158.067 942.419 150.2ZM1013.82 140C1013.95 131.6 1011.82 124.733 1007.42 119.4C1003.15 113.933 997.219 111.2 989.619 111.2C985.352 111.2 981.552 112.067 978.219 113.8C975.019 115.4 972.285 117.533 970.019 120.2C967.752 122.867 965.952 125.933 964.619 129.4C963.419 132.867 962.619 136.4 962.219 140H1013.82ZM1084.14 188.6C1091.74 188.6 1097.34 187.6 1100.94 185.6C1104.67 183.6 1106.54 180.4 1106.54 176C1106.54 171.467 1104.74 167.867 1101.14 165.2C1097.54 162.533 1091.6 159.533 1083.34 156.2C1079.34 154.6 1075.47 153 1071.74 151.4C1068.14 149.667 1065 147.667 1062.34 145.4C1059.67 143.133 1057.54 140.4 1055.94 137.2C1054.34 134 1053.54 130.067 1053.54 125.4C1053.54 116.2 1056.94 108.933 1063.74 103.6C1070.54 98.1333 1079.8 95.4 1091.54 95.4C1094.47 95.4 1097.4 95.6 1100.34 96C1103.27 96.2667 1106 96.6667 1108.54 97.2C1111.07 97.6 1113.27 98.0667 1115.14 98.6C1117.14 99.1333 1118.67 99.6 1119.74 100L1116.34 116C1114.34 114.933 1111.2 113.867 1106.94 112.8C1102.67 111.6 1097.54 111 1091.54 111C1086.34 111 1081.8 112.067 1077.94 114.2C1074.07 116.2 1072.14 119.4 1072.14 123.8C1072.14 126.067 1072.54 128.067 1073.34 129.8C1074.27 131.533 1075.6 133.133 1077.34 134.6C1079.2 135.933 1081.47 137.2 1084.14 138.4C1086.8 139.6 1090 140.867 1093.74 142.2C1098.67 144.067 1103.07 145.933 1106.94 147.8C1110.8 149.533 1114.07 151.6 1116.74 154C1119.54 156.4 1121.67 159.333 1123.14 162.8C1124.6 166.133 1125.34 170.267 1125.34 175.2C1125.34 184.8 1121.74 192.067 1114.54 197C1107.47 201.933 1097.34 204.4 1084.14 204.4C1074.94 204.4 1067.74 203.6 1062.54 202C1057.34 200.533 1053.8 199.4 1051.94 198.6L1055.34 182.6C1057.47 183.4 1060.87 184.6 1065.54 186.2C1070.2 187.8 1076.4 188.6 1084.14 188.6ZM1173.4 188.6C1181 188.6 1186.6 187.6 1190.2 185.6C1193.93 183.6 1195.8 180.4 1195.8 176C1195.8 171.467 1194 167.867 1190.4 165.2C1186.8 162.533 1180.86 159.533 1172.6 156.2C1168.6 154.6 1164.73 153 1161 151.4C1157.4 149.667 1154.26 147.667 1151.6 145.4C1148.93 143.133 1146.8 140.4 1145.2 137.2C1143.6 134 1142.8 130.067 1142.8 125.4C1142.8 116.2 1146.2 108.933 1153 103.6C1159.8 98.1333 1169.06 95.4 1180.8 95.4C1183.73 95.4 1186.66 95.6 1189.6 96C1192.53 96.2667 1195.26 96.6667 1197.8 97.2C1200.33 97.6 1202.53 98.0667 1204.4 98.6C1206.4 99.1333 1207.93 99.6 1209 100L1205.6 116C1203.6 114.933 1200.46 113.867 1196.2 112.8C1191.93 111.6 1186.8 111 1180.8 111C1175.6 111 1171.06 112.067 1167.2 114.2C1163.33 116.2 1161.4 119.4 1161.4 123.8C1161.4 126.067 1161.8 128.067 1162.6 129.8C1163.53 131.533 1164.86 133.133 1166.6 134.6C1168.46 135.933 1170.73 137.2 1173.4 138.4C1176.06 139.6 1179.26 140.867 1183 142.2C1187.93 144.067 1192.33 145.933 1196.2 147.8C1200.06 149.533 1203.33 151.6 1206 154C1208.8 156.4 1210.93 159.333 1212.4 162.8C1213.86 166.133 1214.6 170.267 1214.6 175.2C1214.6 184.8 1211 192.067 1203.8 197C1196.73 201.933 1186.6 204.4 1173.4 204.4C1164.2 204.4 1157 203.6 1151.8 202C1146.6 200.533 1143.06 199.4 1141.2 198.6L1144.6 182.6C1146.73 183.4 1150.13 184.6 1154.8 186.2C1159.46 187.8 1165.66 188.6 1173.4 188.6ZM1260.45 191.2C1260.45 194.8 1259.25 197.933 1256.85 200.6C1254.45 203.267 1251.19 204.6 1247.05 204.6C1242.92 204.6 1239.65 203.267 1237.25 200.6C1234.85 197.933 1233.65 194.8 1233.65 191.2C1233.65 187.6 1234.85 184.467 1237.25 181.8C1239.65 179.133 1242.92 177.8 1247.05 177.8C1251.19 177.8 1254.45 179.133 1256.85 181.8C1259.25 184.467 1260.45 187.6 1260.45 191.2ZM1352.87 191.6C1351.27 192.667 1348.14 194.067 1343.47 195.8C1338.94 197.4 1333.61 198.2 1327.47 198.2C1321.21 198.2 1315.27 197.2 1309.67 195.2C1304.21 193.2 1299.41 190.133 1295.27 186C1291.14 181.733 1287.87 176.467 1285.47 170.2C1283.07 163.933 1281.87 156.467 1281.87 147.8C1281.87 140.2 1283.01 133.267 1285.27 127C1287.54 120.6 1290.81 115.133 1295.07 110.6C1299.47 105.933 1304.81 102.333 1311.07 99.8C1317.34 97.1333 1324.41 95.8 1332.27 95.8C1340.94 95.8 1348.47 96.4667 1354.87 97.8C1361.41 99 1366.87 100.133 1371.27 101.2V194C1371.27 210 1367.14 221.6 1358.87 228.8C1350.61 236 1338.07 239.6 1321.27 239.6C1314.74 239.6 1308.54 239.067 1302.67 238C1296.94 236.933 1291.94 235.667 1287.67 234.2L1291.07 218C1294.81 219.467 1299.34 220.733 1304.67 221.8C1310.14 223 1315.81 223.6 1321.67 223.6C1332.74 223.6 1340.67 221.4 1345.47 217C1350.41 212.6 1352.87 205.6 1352.87 196V191.6ZM1352.67 114.4C1350.81 113.867 1348.27 113.4 1345.07 113C1342.01 112.467 1337.81 112.2 1332.47 112.2C1322.47 112.2 1314.74 115.467 1309.27 122C1303.94 128.533 1301.27 137.2 1301.27 148C1301.27 154 1302.01 159.133 1303.47 163.4C1305.07 167.667 1307.14 171.2 1309.67 174C1312.34 176.8 1315.34 178.867 1318.67 180.2C1322.14 181.533 1325.67 182.2 1329.27 182.2C1334.21 182.2 1338.74 181.533 1342.87 180.2C1347.01 178.733 1350.27 177.067 1352.67 175.2V114.4ZM1421.9 202H1403.3V98H1421.9V202ZM1412.5 79.2C1409.16 79.2 1406.3 78.1333 1403.9 76C1401.63 73.7333 1400.5 70.7333 1400.5 67C1400.5 63.2667 1401.63 60.3333 1403.9 58.2C1406.3 55.9333 1409.16 54.8 1412.5 54.8C1415.83 54.8 1418.63 55.9333 1420.9 58.2C1423.3 60.3333 1424.5 63.2667 1424.5 67C1424.5 70.7333 1423.3 73.7333 1420.9 76C1418.63 78.1333 1415.83 79.2 1412.5 79.2ZM1471.28 98H1510.68V113.6H1471.28V161.6C1471.28 166.8 1471.68 171.133 1472.48 174.6C1473.28 177.933 1474.48 180.6 1476.08 182.6C1477.68 184.467 1479.68 185.8 1482.08 186.6C1484.48 187.4 1487.28 187.8 1490.48 187.8C1496.08 187.8 1500.55 187.2 1503.88 186C1507.35 184.667 1509.75 183.733 1511.08 183.2L1514.68 198.6C1512.82 199.533 1509.55 200.667 1504.88 202C1500.22 203.467 1494.88 204.2 1488.88 204.2C1481.82 204.2 1475.95 203.333 1471.28 201.6C1466.75 199.733 1463.08 197 1460.28 193.4C1457.48 189.8 1455.48 185.4 1454.28 180.2C1453.22 174.867 1452.68 168.733 1452.68 161.8V69L1471.28 65.8V98ZM1534.35 202V50L1552.95 46.8V100C1556.42 98.6667 1560.08 97.6667 1563.95 97C1567.95 96.2 1571.88 95.8 1575.75 95.8C1584.02 95.8 1590.88 97 1596.35 99.4C1601.82 101.667 1606.15 104.933 1609.35 109.2C1612.68 113.333 1615.02 118.333 1616.35 124.2C1617.68 130.067 1618.35 136.533 1618.35 143.6V202H1599.75V147.6C1599.75 141.2 1599.28 135.733 1598.35 131.2C1597.55 126.667 1596.15 123 1594.15 120.2C1592.15 117.4 1589.48 115.4 1586.15 114.2C1582.82 112.867 1578.68 112.2 1573.75 112.2C1571.75 112.2 1569.68 112.333 1567.55 112.6C1565.42 112.867 1563.35 113.2 1561.35 113.6C1559.48 113.867 1557.75 114.2 1556.15 114.6C1554.68 115 1553.62 115.333 1552.95 115.6V202H1534.35ZM1731.41 199C1727.14 200.067 1721.48 201.2 1714.41 202.4C1707.48 203.6 1699.41 204.2 1690.21 204.2C1682.21 204.2 1675.48 203.067 1670.01 200.8C1664.54 198.4 1660.14 195.067 1656.81 190.8C1653.48 186.533 1651.08 181.533 1649.61 175.8C1648.14 169.933 1647.41 163.467 1647.41 156.4V98H1666.01V152.4C1666.01 165.067 1668.01 174.133 1672.01 179.6C1676.01 185.067 1682.74 187.8 1692.21 187.8C1694.21 187.8 1696.28 187.733 1698.41 187.6C1700.54 187.467 1702.54 187.333 1704.41 187.2C1706.28 186.933 1707.94 186.733 1709.41 186.6C1711.01 186.333 1712.14 186.067 1712.81 185.8V98H1731.41V199ZM1782.05 102.6C1784.32 101.133 1787.72 99.6 1792.25 98C1796.92 96.4 1802.25 95.6 1808.25 95.6C1815.72 95.6 1822.32 96.9333 1828.05 99.6C1833.92 102.267 1838.85 106 1842.85 110.8C1846.85 115.6 1849.85 121.333 1851.85 128C1853.99 134.667 1855.05 142 1855.05 150C1855.05 158.4 1853.79 166 1851.25 172.8C1848.85 179.467 1845.39 185.133 1840.85 189.8C1836.32 194.467 1830.85 198.067 1824.45 200.6C1818.05 203.133 1810.85 204.4 1802.85 204.4C1794.19 204.4 1786.52 203.8 1779.85 202.6C1773.19 201.4 1767.72 200.2 1763.45 199V50L1782.05 46.8V102.6ZM1782.05 185.8C1783.92 186.333 1786.52 186.867 1789.85 187.4C1793.32 187.8 1797.59 188 1802.65 188C1812.65 188 1820.65 184.733 1826.65 178.2C1832.65 171.533 1835.65 162.133 1835.65 150C1835.65 144.667 1835.12 139.667 1834.05 135C1832.99 130.333 1831.25 126.333 1828.85 123C1826.45 119.533 1823.32 116.867 1819.45 115C1815.72 113 1811.19 112 1805.85 112C1800.79 112 1796.12 112.867 1791.85 114.6C1787.59 116.333 1784.32 118.133 1782.05 120V185.8ZM1903.23 191.2C1903.23 194.8 1902.03 197.933 1899.63 200.6C1897.23 203.267 1893.96 204.6 1889.83 204.6C1885.69 204.6 1882.43 203.267 1880.03 200.6C1877.63 197.933 1876.43 194.8 1876.43 191.2C1876.43 187.6 1877.63 184.467 1880.03 181.8C1882.43 179.133 1885.69 177.8 1889.83 177.8C1893.96 177.8 1897.23 179.133 1899.63 181.8C1902.03 184.467 1903.23 187.6 1903.23 191.2ZM1949.05 202H1930.45V98H1949.05V202ZM1939.65 79.2C1936.31 79.2 1933.45 78.1333 1931.05 76C1928.78 73.7333 1927.65 70.7333 1927.65 67C1927.65 63.2667 1928.78 60.3333 1931.05 58.2C1933.45 55.9333 1936.31 54.8 1939.65 54.8C1942.98 54.8 1945.78 55.9333 1948.05 58.2C1950.45 60.3333 1951.65 63.2667 1951.65 67C1951.65 70.7333 1950.45 73.7333 1948.05 76C1945.78 78.1333 1942.98 79.2 1939.65 79.2ZM2072.83 150C2072.83 158.267 2071.63 165.733 2069.23 172.4C2066.83 179.067 2063.43 184.8 2059.03 189.6C2054.76 194.4 2049.63 198.133 2043.63 200.8C2037.63 203.333 2031.1 204.6 2024.03 204.6C2016.96 204.6 2010.43 203.333 2004.43 200.8C1998.43 198.133 1993.23 194.4 1988.83 189.6C1984.56 184.8 1981.23 179.067 1978.83 172.4C1976.43 165.733 1975.23 158.267 1975.23 150C1975.23 141.867 1976.43 134.467 1978.83 127.8C1981.23 121 1984.56 115.2 1988.83 110.4C1993.23 105.6 1998.43 101.933 2004.43 99.4C2010.43 96.7333 2016.96 95.4 2024.03 95.4C2031.1 95.4 2037.63 96.7333 2043.63 99.4C2049.63 101.933 2054.76 105.6 2059.03 110.4C2063.43 115.2 2066.83 121 2069.23 127.8C2071.63 134.467 2072.83 141.867 2072.83 150ZM2053.43 150C2053.43 138.267 2050.76 129 2045.43 122.2C2040.23 115.267 2033.1 111.8 2024.03 111.8C2014.96 111.8 2007.76 115.267 2002.43 122.2C1997.23 129 1994.63 138.267 1994.63 150C1994.63 161.733 1997.23 171.067 2002.43 178C2007.76 184.8 2014.96 188.2 2024.03 188.2C2033.1 188.2 2040.23 184.8 2045.43 178C2050.76 171.067 2053.43 161.733 2053.43 150Z" fill="#D4DDE0"/>
<rect width="256" height="256" rx="50" fill="white"/>
<path fill-rule="evenodd" clip-rule="evenodd" d="M256 128V50C256 22.3858 233.614 0 206 0H128V128H256Z" fill="#00AD88"/>
<path fill-rule="evenodd" clip-rule="evenodd" d="M0 128V206C0 233.614 22.3858 256 50 256H128V128H0Z" fill="#00AD88"/>
<rect x="10" y="10" width="236" height="236" rx="40" stroke="#00AD88" stroke-width="20"/>
<path d="M147.321 42.9585C144.468 40.0812 140.16 39.2103 136.413 40.7532C132.666 42.2961 130.221 45.9478 130.221 50V74.4586C92.9858 88.6681 43.8292 122.519 27.2192 189.596C26.1094 194.078 28.2122 198.737 32.3074 200.87C36.4026 203.002 41.4254 202.054 44.461 198.575C73.7485 165.009 112.522 160.117 130.221 159.726V181.461C130.221 185.512 132.664 189.162 136.409 190.706C140.154 192.25 144.461 191.382 147.315 188.508L212.554 122.833C216.426 118.936 216.428 112.645 212.56 108.744L147.321 42.9585Z" fill="white" stroke="black" stroke-width="20" stroke-linejoin="round"/>
</svg>
