<svg width="2249" height="256" viewBox="0 0 2249 256" fill="none" xmlns="http://www.w3.org/2000/svg">
<path d="M434.317 188.6C441.917 188.6 447.517 187.6 451.117 185.6C454.851 183.6 456.717 180.4 456.717 176C456.717 171.467 454.917 167.867 451.317 165.2C447.717 162.533 441.784 159.533 433.517 156.2C429.517 154.6 425.651 153 421.917 151.4C418.317 149.667 415.184 147.667 412.517 145.4C409.851 143.133 407.717 140.4 406.117 137.2C404.517 134 403.717 130.067 403.717 125.4C403.717 116.2 407.117 108.933 413.917 103.6C420.717 98.1333 429.984 95.4 441.717 95.4C444.651 95.4 447.584 95.6 450.517 96C453.451 96.2667 456.184 96.6667 458.717 97.2C461.251 97.6 463.451 98.0667 465.317 98.6C467.317 99.1333 468.851 99.6 469.917 100L466.517 116C464.517 114.933 461.384 113.867 457.117 112.8C452.851 111.6 447.717 111 441.717 111C436.517 111 431.984 112.067 428.117 114.2C424.251 116.2 422.317 119.4 422.317 123.8C422.317 126.067 422.717 128.067 423.517 129.8C424.451 131.533 425.784 133.133 427.517 134.6C429.384 135.933 431.651 137.2 434.317 138.4C436.984 139.6 440.184 140.867 443.917 142.2C448.851 144.067 453.251 145.933 457.117 147.8C460.984 149.533 464.251 151.6 466.917 154C469.717 156.4 471.851 159.333 473.317 162.8C474.784 166.133 475.517 170.267 475.517 175.2C475.517 184.8 471.917 192.067 464.717 197C457.651 201.933 447.517 204.4 434.317 204.4C425.117 204.4 417.917 203.6 412.717 202C407.517 200.533 403.984 199.4 402.117 198.6L405.517 182.6C407.651 183.4 411.051 184.6 415.717 186.2C420.384 187.8 426.584 188.6 434.317 188.6ZM499.375 202V50L517.975 46.8V100C521.442 98.6667 525.108 97.6667 528.975 97C532.975 96.2 536.908 95.8 540.775 95.8C549.042 95.8 555.908 97 561.375 99.4C566.842 101.667 571.175 104.933 574.375 109.2C577.708 113.333 580.042 118.333 581.375 124.2C582.708 130.067 583.375 136.533 583.375 143.6V202H564.775V147.6C564.775 141.2 564.308 135.733 563.375 131.2C562.575 126.667 561.175 123 559.175 120.2C557.175 117.4 554.508 115.4 551.175 114.2C547.842 112.867 543.708 112.2 538.775 112.2C536.775 112.2 534.708 112.333 532.575 112.6C530.442 112.867 528.375 113.2 526.375 113.6C524.508 113.867 522.775 114.2 521.175 114.6C519.708 115 518.642 115.333 517.975 115.6V202H499.375ZM648.833 188.6C653.233 188.6 657.099 188.533 660.433 188.4C663.899 188.133 666.766 187.733 669.033 187.2V156.2C667.699 155.533 665.499 155 662.433 154.6C659.499 154.067 655.899 153.8 651.633 153.8C648.833 153.8 645.833 154 642.633 154.4C639.566 154.8 636.699 155.667 634.033 157C631.499 158.2 629.366 159.933 627.633 162.2C625.899 164.333 625.033 167.2 625.033 170.8C625.033 177.467 627.166 182.133 631.433 184.8C635.699 187.333 641.499 188.6 648.833 188.6ZM647.233 95.4C654.699 95.4 660.966 96.4 666.033 98.4C671.233 100.267 675.366 103 678.433 106.6C681.633 110.067 683.899 114.267 685.233 119.2C686.566 124 687.233 129.333 687.233 135.2V200.2C685.633 200.467 683.366 200.867 680.433 201.4C677.633 201.8 674.433 202.2 670.833 202.6C667.233 203 663.299 203.333 659.033 203.6C654.899 204 650.766 204.2 646.633 204.2C640.766 204.2 635.366 203.6 630.433 202.4C625.499 201.2 621.233 199.333 617.633 196.8C614.033 194.133 611.233 190.667 609.233 186.4C607.233 182.133 606.233 177 606.233 171C606.233 165.267 607.366 160.333 609.633 156.2C612.033 152.067 615.233 148.733 619.233 146.2C623.233 143.667 627.899 141.8 633.233 140.6C638.566 139.4 644.166 138.8 650.033 138.8C651.899 138.8 653.833 138.933 655.833 139.2C657.833 139.333 659.699 139.6 661.433 140C663.299 140.267 664.899 140.533 666.233 140.8C667.566 141.067 668.499 141.267 669.033 141.4V136.2C669.033 133.133 668.699 130.133 668.033 127.2C667.366 124.133 666.166 121.467 664.433 119.2C662.699 116.8 660.299 114.933 657.233 113.6C654.299 112.133 650.433 111.4 645.633 111.4C639.499 111.4 634.099 111.867 629.433 112.8C624.899 113.6 621.499 114.467 619.233 115.4L617.033 100C619.433 98.9333 623.433 97.9333 629.033 97C634.633 95.9333 640.699 95.4 647.233 95.4ZM756.525 95.8C758.125 95.8 759.925 95.9333 761.925 96.2C764.058 96.3333 766.125 96.6 768.125 97C770.125 97.2667 771.925 97.6 773.525 98C775.258 98.2667 776.525 98.5333 777.325 98.8L774.125 115C772.658 114.467 770.192 113.867 766.725 113.2C763.392 112.4 759.058 112 753.725 112C750.258 112 746.792 112.4 743.325 113.2C739.992 113.867 737.792 114.333 736.725 114.6V202H718.125V102.4C722.525 100.8 727.992 99.3333 734.525 98C741.058 96.5333 748.392 95.8 756.525 95.8ZM789.473 150.2C789.473 141 790.807 133 793.473 126.2C796.14 119.267 799.673 113.533 804.073 109C808.473 104.467 813.54 101.067 819.273 98.8C825.007 96.5333 830.873 95.4 836.873 95.4C850.873 95.4 861.607 99.8 869.073 108.6C876.54 117.267 880.273 130.533 880.273 148.4C880.273 149.2 880.273 150.267 880.273 151.6C880.273 152.8 880.207 153.933 880.073 155H808.873C809.673 165.8 812.807 174 818.273 179.6C823.74 185.2 832.273 188 843.873 188C850.407 188 855.873 187.467 860.273 186.4C864.807 185.2 868.207 184.067 870.473 183L873.073 198.6C870.807 199.8 866.807 201.067 861.073 202.4C855.473 203.733 849.073 204.4 841.873 204.4C832.807 204.4 824.94 203.067 818.273 200.4C811.74 197.6 806.34 193.8 802.073 189C797.807 184.2 794.607 178.533 792.473 172C790.473 165.333 789.473 158.067 789.473 150.2ZM860.873 140C861.007 131.6 858.873 124.733 854.473 119.4C850.207 113.933 844.273 111.2 836.673 111.2C832.407 111.2 828.607 112.067 825.273 113.8C822.073 115.4 819.34 117.533 817.073 120.2C814.807 122.867 813.007 125.933 811.673 129.4C810.473 132.867 809.673 136.4 809.273 140H860.873ZM952.192 204.4C943.792 204.4 936.392 203.067 929.992 200.4C923.726 197.733 918.392 194 913.992 189.2C909.726 184.4 906.526 178.733 904.392 172.2C902.259 165.533 901.192 158.2 901.192 150.2C901.192 142.2 902.326 134.867 904.592 128.2C906.992 121.533 910.326 115.8 914.592 111C918.859 106.067 924.059 102.267 930.192 99.6C936.459 96.8 943.392 95.4 950.992 95.4C955.659 95.4 960.326 95.8 964.992 96.6C969.659 97.4 974.126 98.6667 978.392 100.4L974.192 116.2C971.392 114.867 968.126 113.8 964.392 113C960.792 112.2 956.926 111.8 952.792 111.8C942.392 111.8 934.392 115.067 928.792 121.6C923.326 128.133 920.592 137.667 920.592 150.2C920.592 155.8 921.192 160.933 922.392 165.6C923.726 170.267 925.726 174.267 928.392 177.6C931.192 180.933 934.726 183.533 938.992 185.4C943.259 187.133 948.459 188 954.592 188C959.526 188 963.992 187.533 967.992 186.6C971.992 185.667 975.126 184.667 977.392 183.6L979.992 199.2C978.926 199.867 977.392 200.533 975.392 201.2C973.392 201.733 971.126 202.2 968.592 202.6C966.059 203.133 963.326 203.533 960.392 203.8C957.592 204.2 954.859 204.4 952.192 204.4ZM999.961 202V50L1018.56 46.8V100C1022.03 98.6667 1025.69 97.6667 1029.56 97C1033.56 96.2 1037.49 95.8 1041.36 95.8C1049.63 95.8 1056.49 97 1061.96 99.4C1067.43 101.667 1071.76 104.933 1074.96 109.2C1078.29 113.333 1080.63 118.333 1081.96 124.2C1083.29 130.067 1083.96 136.533 1083.96 143.6V202H1065.36V147.6C1065.36 141.2 1064.89 135.733 1063.96 131.2C1063.16 126.667 1061.76 123 1059.76 120.2C1057.76 117.4 1055.09 115.4 1051.76 114.2C1048.43 112.867 1044.29 112.2 1039.36 112.2C1037.36 112.2 1035.29 112.333 1033.16 112.6C1031.03 112.867 1028.96 113.2 1026.96 113.6C1025.09 113.867 1023.36 114.2 1021.76 114.6C1020.29 115 1019.23 115.333 1018.56 115.6V202H999.961ZM1108.42 150.2C1108.42 141 1109.75 133 1112.42 126.2C1115.09 119.267 1118.62 113.533 1123.02 109C1127.42 104.467 1132.49 101.067 1138.22 98.8C1143.95 96.5333 1149.82 95.4 1155.82 95.4C1169.82 95.4 1180.55 99.8 1188.02 108.6C1195.49 117.267 1199.22 130.533 1199.22 148.4C1199.22 149.2 1199.22 150.267 1199.22 151.6C1199.22 152.8 1199.15 153.933 1199.02 155H1127.82C1128.62 165.8 1131.75 174 1137.22 179.6C1142.69 185.2 1151.22 188 1162.82 188C1169.35 188 1174.82 187.467 1179.22 186.4C1183.75 185.2 1187.15 184.067 1189.42 183L1192.02 198.6C1189.75 199.8 1185.75 201.067 1180.02 202.4C1174.42 203.733 1168.02 204.4 1160.82 204.4C1151.75 204.4 1143.89 203.067 1137.22 200.4C1130.69 197.6 1125.29 193.8 1121.02 189C1116.75 184.2 1113.55 178.533 1111.42 172C1109.42 165.333 1108.42 158.067 1108.42 150.2ZM1179.82 140C1179.95 131.6 1177.82 124.733 1173.42 119.4C1169.15 113.933 1163.22 111.2 1155.62 111.2C1151.35 111.2 1147.55 112.067 1144.22 113.8C1141.02 115.4 1138.29 117.533 1136.02 120.2C1133.75 122.867 1131.95 125.933 1130.62 129.4C1129.42 132.867 1128.62 136.4 1128.22 140H1179.82ZM1250.14 188.6C1257.74 188.6 1263.34 187.6 1266.94 185.6C1270.67 183.6 1272.54 180.4 1272.54 176C1272.54 171.467 1270.74 167.867 1267.14 165.2C1263.54 162.533 1257.6 159.533 1249.34 156.2C1245.34 154.6 1241.47 153 1237.74 151.4C1234.14 149.667 1231 147.667 1228.34 145.4C1225.67 143.133 1223.54 140.4 1221.94 137.2C1220.34 134 1219.54 130.067 1219.54 125.4C1219.54 116.2 1222.94 108.933 1229.74 103.6C1236.54 98.1333 1245.8 95.4 1257.54 95.4C1260.47 95.4 1263.4 95.6 1266.34 96C1269.27 96.2667 1272 96.6667 1274.54 97.2C1277.07 97.6 1279.27 98.0667 1281.14 98.6C1283.14 99.1333 1284.67 99.6 1285.74 100L1282.34 116C1280.34 114.933 1277.2 113.867 1272.94 112.8C1268.67 111.6 1263.54 111 1257.54 111C1252.34 111 1247.8 112.067 1243.94 114.2C1240.07 116.2 1238.14 119.4 1238.14 123.8C1238.14 126.067 1238.54 128.067 1239.34 129.8C1240.27 131.533 1241.6 133.133 1243.34 134.6C1245.2 135.933 1247.47 137.2 1250.14 138.4C1252.8 139.6 1256 140.867 1259.74 142.2C1264.67 144.067 1269.07 145.933 1272.94 147.8C1276.8 149.533 1280.07 151.6 1282.74 154C1285.54 156.4 1287.67 159.333 1289.14 162.8C1290.6 166.133 1291.34 170.267 1291.34 175.2C1291.34 184.8 1287.74 192.067 1280.54 197C1273.47 201.933 1263.34 204.4 1250.14 204.4C1240.94 204.4 1233.74 203.6 1228.54 202C1223.34 200.533 1219.8 199.4 1217.94 198.6L1221.34 182.6C1223.47 183.4 1226.87 184.6 1231.54 186.2C1236.2 187.8 1242.4 188.6 1250.14 188.6ZM1339.4 188.6C1347 188.6 1352.6 187.6 1356.2 185.6C1359.93 183.6 1361.8 180.4 1361.8 176C1361.8 171.467 1360 167.867 1356.4 165.2C1352.8 162.533 1346.86 159.533 1338.6 156.2C1334.6 154.6 1330.73 153 1327 151.4C1323.4 149.667 1320.26 147.667 1317.6 145.4C1314.93 143.133 1312.8 140.4 1311.2 137.2C1309.6 134 1308.8 130.067 1308.8 125.4C1308.8 116.2 1312.2 108.933 1319 103.6C1325.8 98.1333 1335.06 95.4 1346.8 95.4C1349.73 95.4 1352.66 95.6 1355.6 96C1358.53 96.2667 1361.26 96.6667 1363.8 97.2C1366.33 97.6 1368.53 98.0667 1370.4 98.6C1372.4 99.1333 1373.93 99.6 1375 100L1371.6 116C1369.6 114.933 1366.46 113.867 1362.2 112.8C1357.93 111.6 1352.8 111 1346.8 111C1341.6 111 1337.06 112.067 1333.2 114.2C1329.33 116.2 1327.4 119.4 1327.4 123.8C1327.4 126.067 1327.8 128.067 1328.6 129.8C1329.53 131.533 1330.86 133.133 1332.6 134.6C1334.46 135.933 1336.73 137.2 1339.4 138.4C1342.06 139.6 1345.26 140.867 1349 142.2C1353.93 144.067 1358.33 145.933 1362.2 147.8C1366.06 149.533 1369.33 151.6 1372 154C1374.8 156.4 1376.93 159.333 1378.4 162.8C1379.86 166.133 1380.6 170.267 1380.6 175.2C1380.6 184.8 1377 192.067 1369.8 197C1362.73 201.933 1352.6 204.4 1339.4 204.4C1330.2 204.4 1323 203.6 1317.8 202C1312.6 200.533 1309.06 199.4 1307.2 198.6L1310.6 182.6C1312.73 183.4 1316.13 184.6 1320.8 186.2C1325.46 187.8 1331.66 188.6 1339.4 188.6ZM1426.45 191.2C1426.45 194.8 1425.25 197.933 1422.85 200.6C1420.45 203.267 1417.19 204.6 1413.05 204.6C1408.92 204.6 1405.65 203.267 1403.25 200.6C1400.85 197.933 1399.65 194.8 1399.65 191.2C1399.65 187.6 1400.85 184.467 1403.25 181.8C1405.65 179.133 1408.92 177.8 1413.05 177.8C1417.19 177.8 1420.45 179.133 1422.85 181.8C1425.25 184.467 1426.45 187.6 1426.45 191.2ZM1518.87 191.6C1517.27 192.667 1514.14 194.067 1509.47 195.8C1504.94 197.4 1499.61 198.2 1493.47 198.2C1487.21 198.2 1481.27 197.2 1475.67 195.2C1470.21 193.2 1465.41 190.133 1461.27 186C1457.14 181.733 1453.87 176.467 1451.47 170.2C1449.07 163.933 1447.87 156.467 1447.87 147.8C1447.87 140.2 1449.01 133.267 1451.27 127C1453.54 120.6 1456.81 115.133 1461.07 110.6C1465.47 105.933 1470.81 102.333 1477.07 99.8C1483.34 97.1333 1490.41 95.8 1498.27 95.8C1506.94 95.8 1514.47 96.4667 1520.87 97.8C1527.41 99 1532.87 100.133 1537.27 101.2V194C1537.27 210 1533.14 221.6 1524.87 228.8C1516.61 236 1504.07 239.6 1487.27 239.6C1480.74 239.6 1474.54 239.067 1468.67 238C1462.94 236.933 1457.94 235.667 1453.67 234.2L1457.07 218C1460.81 219.467 1465.34 220.733 1470.67 221.8C1476.14 223 1481.81 223.6 1487.67 223.6C1498.74 223.6 1506.67 221.4 1511.47 217C1516.41 212.6 1518.87 205.6 1518.87 196V191.6ZM1518.67 114.4C1516.81 113.867 1514.27 113.4 1511.07 113C1508.01 112.467 1503.81 112.2 1498.47 112.2C1488.47 112.2 1480.74 115.467 1475.27 122C1469.94 128.533 1467.27 137.2 1467.27 148C1467.27 154 1468.01 159.133 1469.47 163.4C1471.07 167.667 1473.14 171.2 1475.67 174C1478.34 176.8 1481.34 178.867 1484.67 180.2C1488.14 181.533 1491.67 182.2 1495.27 182.2C1500.21 182.2 1504.74 181.533 1508.87 180.2C1513.01 178.733 1516.27 177.067 1518.67 175.2V114.4ZM1587.9 202H1569.3V98H1587.9V202ZM1578.5 79.2C1575.16 79.2 1572.3 78.1333 1569.9 76C1567.63 73.7333 1566.5 70.7333 1566.5 67C1566.5 63.2667 1567.63 60.3333 1569.9 58.2C1572.3 55.9333 1575.16 54.8 1578.5 54.8C1581.83 54.8 1584.63 55.9333 1586.9 58.2C1589.3 60.3333 1590.5 63.2667 1590.5 67C1590.5 70.7333 1589.3 73.7333 1586.9 76C1584.63 78.1333 1581.83 79.2 1578.5 79.2ZM1637.28 98H1676.68V113.6H1637.28V161.6C1637.28 166.8 1637.68 171.133 1638.48 174.6C1639.28 177.933 1640.48 180.6 1642.08 182.6C1643.68 184.467 1645.68 185.8 1648.08 186.6C1650.48 187.4 1653.28 187.8 1656.48 187.8C1662.08 187.8 1666.55 187.2 1669.88 186C1673.35 184.667 1675.75 183.733 1677.08 183.2L1680.68 198.6C1678.82 199.533 1675.55 200.667 1670.88 202C1666.22 203.467 1660.88 204.2 1654.88 204.2C1647.82 204.2 1641.95 203.333 1637.28 201.6C1632.75 199.733 1629.08 197 1626.28 193.4C1623.48 189.8 1621.48 185.4 1620.28 180.2C1619.22 174.867 1618.68 168.733 1618.68 161.8V69L1637.28 65.8V98ZM1700.35 202V50L1718.95 46.8V100C1722.42 98.6667 1726.08 97.6667 1729.95 97C1733.95 96.2 1737.88 95.8 1741.75 95.8C1750.02 95.8 1756.88 97 1762.35 99.4C1767.82 101.667 1772.15 104.933 1775.35 109.2C1778.68 113.333 1781.02 118.333 1782.35 124.2C1783.68 130.067 1784.35 136.533 1784.35 143.6V202H1765.75V147.6C1765.75 141.2 1765.28 135.733 1764.35 131.2C1763.55 126.667 1762.15 123 1760.15 120.2C1758.15 117.4 1755.48 115.4 1752.15 114.2C1748.82 112.867 1744.68 112.2 1739.75 112.2C1737.75 112.2 1735.68 112.333 1733.55 112.6C1731.42 112.867 1729.35 113.2 1727.35 113.6C1725.48 113.867 1723.75 114.2 1722.15 114.6C1720.68 115 1719.62 115.333 1718.95 115.6V202H1700.35ZM1897.41 199C1893.14 200.067 1887.48 201.2 1880.41 202.4C1873.48 203.6 1865.41 204.2 1856.21 204.2C1848.21 204.2 1841.48 203.067 1836.01 200.8C1830.54 198.4 1826.14 195.067 1822.81 190.8C1819.48 186.533 1817.08 181.533 1815.61 175.8C1814.14 169.933 1813.41 163.467 1813.41 156.4V98H1832.01V152.4C1832.01 165.067 1834.01 174.133 1838.01 179.6C1842.01 185.067 1848.74 187.8 1858.21 187.8C1860.21 187.8 1862.28 187.733 1864.41 187.6C1866.54 187.467 1868.54 187.333 1870.41 187.2C1872.28 186.933 1873.94 186.733 1875.41 186.6C1877.01 186.333 1878.14 186.067 1878.81 185.8V98H1897.41V199ZM1948.05 102.6C1950.32 101.133 1953.72 99.6 1958.25 98C1962.92 96.4 1968.25 95.6 1974.25 95.6C1981.72 95.6 1988.32 96.9333 1994.05 99.6C1999.92 102.267 2004.85 106 2008.85 110.8C2012.85 115.6 2015.85 121.333 2017.85 128C2019.99 134.667 2021.05 142 2021.05 150C2021.05 158.4 2019.79 166 2017.25 172.8C2014.85 179.467 2011.39 185.133 2006.85 189.8C2002.32 194.467 1996.85 198.067 1990.45 200.6C1984.05 203.133 1976.85 204.4 1968.85 204.4C1960.19 204.4 1952.52 203.8 1945.85 202.6C1939.19 201.4 1933.72 200.2 1929.45 199V50L1948.05 46.8V102.6ZM1948.05 185.8C1949.92 186.333 1952.52 186.867 1955.85 187.4C1959.32 187.8 1963.59 188 1968.65 188C1978.65 188 1986.65 184.733 1992.65 178.2C1998.65 171.533 2001.65 162.133 2001.65 150C2001.65 144.667 2001.12 139.667 2000.05 135C1998.99 130.333 1997.25 126.333 1994.85 123C1992.45 119.533 1989.32 116.867 1985.45 115C1981.72 113 1977.19 112 1971.85 112C1966.79 112 1962.12 112.867 1957.85 114.6C1953.59 116.333 1950.32 118.133 1948.05 120V185.8ZM2069.23 191.2C2069.23 194.8 2068.03 197.933 2065.63 200.6C2063.23 203.267 2059.96 204.6 2055.83 204.6C2051.69 204.6 2048.43 203.267 2046.03 200.6C2043.63 197.933 2042.43 194.8 2042.43 191.2C2042.43 187.6 2043.63 184.467 2046.03 181.8C2048.43 179.133 2051.69 177.8 2055.83 177.8C2059.96 177.8 2063.23 179.133 2065.63 181.8C2068.03 184.467 2069.23 187.6 2069.23 191.2ZM2115.05 202H2096.45V98H2115.05V202ZM2105.65 79.2C2102.31 79.2 2099.45 78.1333 2097.05 76C2094.78 73.7333 2093.65 70.7333 2093.65 67C2093.65 63.2667 2094.78 60.3333 2097.05 58.2C2099.45 55.9333 2102.31 54.8 2105.65 54.8C2108.98 54.8 2111.78 55.9333 2114.05 58.2C2116.45 60.3333 2117.65 63.2667 2117.65 67C2117.65 70.7333 2116.45 73.7333 2114.05 76C2111.78 78.1333 2108.98 79.2 2105.65 79.2ZM2238.83 150C2238.83 158.267 2237.63 165.733 2235.23 172.4C2232.83 179.067 2229.43 184.8 2225.03 189.6C2220.76 194.4 2215.63 198.133 2209.63 200.8C2203.63 203.333 2197.1 204.6 2190.03 204.6C2182.96 204.6 2176.43 203.333 2170.43 200.8C2164.43 198.133 2159.23 194.4 2154.83 189.6C2150.56 184.8 2147.23 179.067 2144.83 172.4C2142.43 165.733 2141.23 158.267 2141.23 150C2141.23 141.867 2142.43 134.467 2144.83 127.8C2147.23 121 2150.56 115.2 2154.83 110.4C2159.23 105.6 2164.43 101.933 2170.43 99.4C2176.43 96.7333 2182.96 95.4 2190.03 95.4C2197.1 95.4 2203.63 96.7333 2209.63 99.4C2215.63 101.933 2220.76 105.6 2225.03 110.4C2229.43 115.2 2232.83 121 2235.23 127.8C2237.63 134.467 2238.83 141.867 2238.83 150ZM2219.43 150C2219.43 138.267 2216.76 129 2211.43 122.2C2206.23 115.267 2199.1 111.8 2190.03 111.8C2180.96 111.8 2173.76 115.267 2168.43 122.2C2163.23 129 2160.63 138.267 2160.63 150C2160.63 161.733 2163.23 171.067 2168.43 178C2173.76 184.8 2180.96 188.2 2190.03 188.2C2199.1 188.2 2206.23 184.8 2211.43 178C2216.76 171.067 2219.43 161.733 2219.43 150Z" fill="white"/>
<rect width="256" height="256" rx="50" fill="white"/>
<path fill-rule="evenodd" clip-rule="evenodd" d="M256 128V50C256 22.3858 233.614 0 206 0H128V128H256Z" fill="#00AD88"/>
<path fill-rule="evenodd" clip-rule="evenodd" d="M0 128V206C0 233.614 22.3858 256 50 256H128V128H0Z" fill="#00AD88"/>
<rect x="10" y="10" width="236" height="236" rx="40" stroke="#00AD88" stroke-width="20"/>
<path d="M155.002 42.7672C152.107 40.0032 147.843 39.2317 144.163 40.8061C140.483 42.3805 138.097 45.9975 138.097 50V74.3265C99.0027 88.4033 46.9334 122.144 29.3254 189.47C28.1638 193.911 30.1756 198.573 34.204 200.775C38.2324 202.977 43.2425 202.153 46.3536 198.777C77.7635 164.693 119.534 160.023 138.097 159.717V181.461C138.097 185.462 140.482 189.078 144.159 190.653C147.837 192.228 152.1 191.46 154.996 188.699L223.899 123.024C225.878 121.138 226.999 118.524 227 115.79C227.001 113.056 225.883 110.441 223.906 108.553L155.002 42.7672Z" fill="white" stroke="black" stroke-width="20" stroke-linejoin="round"/>
</svg>
