<svg width="128" height="128" viewBox="0 0 128 128" fill="none" xmlns="http://www.w3.org/2000/svg">
<path d="M91.8994 22.6412L87.284 33.7181C86.748 35.0044 85.3113 35.6533 83.9743 35.2604C76.071 32.9377 69.2735 32.4934 64.6668 32.7066C61.3337 32.8609 58.0691 34.1586 55.8609 36.66C49.6597 43.6848 56.9885 48.8408 64.6358 51.6495C68.3449 53.0118 72.188 54.1224 75.5996 56.116C95.1034 67.5132 96.3845 81.8463 94.3333 88C86.1679 116.579 52.1208 113.253 34.0134 107.462C32.6796 107.035 31.9656 105.62 32.3503 104.274L35.999 91.5033C36.494 89.7708 38.5386 89.023 40.1337 89.8611C49.6374 94.8538 59.7103 94.5592 66.1246 93.2051C68.9104 92.617 71.322 90.7619 72.3296 88.099C75.7711 79.0043 68.3705 74.5093 63.6665 73.3333C36.9999 65.8667 32.111 48.8889 32.9999 41.3333C36.0513 10.8187 70.8683 13.4437 90.28 19.1485C91.7626 19.5842 92.4937 21.2148 91.8994 22.6412Z" fill="#00AD88"/>
<path fill-rule="evenodd" clip-rule="evenodd" d="M19.6667 0C12.3027 0 6.33333 5.96956 6.33333 13.3333V56H1V72H6.33333V114.667C6.33333 122.03 12.3027 128 19.6667 128H107.667C115.031 128 121 122.03 121 114.667V72H126.333V56H121V13.3333C121 5.96956 115.031 0 107.667 0H19.6667ZM115.667 16C115.667 10.1089 110.891 5.33333 105 5.33333H22.3333C16.4424 5.33333 11.6667 10.1089 11.6667 16V61.3333H6.33333V66.6667H11.6667V112C11.6667 117.891 16.4424 122.667 22.3333 122.667H105C110.891 122.667 115.667 117.891 115.667 112V66.6667H121V61.3333H115.667V16Z" fill="#00AD88"/>
</svg>
