<svg width="512" height="512" viewBox="0 0 512 512" fill="none" xmlns="http://www.w3.org/2000/svg">
<path fill-rule="evenodd" clip-rule="evenodd" d="M250.789 285.194V316.391C250.789 319.803 250.469 323.207 249.555 326.493C244.339 345.248 229.083 379.587 199.93 399.023C172.092 417.582 166.107 454.015 166.624 476.18C166.742 481.232 171.032 485 176.084 485H461.695C467.013 485 471.408 480.858 471.597 475.543C475.449 367.362 452.541 160.851 331.368 117.845C326.977 116.287 322.291 115.662 317.632 115.662L292.497 114.87L265.321 115.662L243.524 73.2792C241.505 70.05 236.016 65.5292 230.203 73.2792C224.391 81.0292 209.214 93.4616 202.351 98.709L151.492 70.8573C147.455 69.2427 139.382 68.4354 139.382 78.1229C139.382 87.8105 140.997 117.68 141.804 131.404C131.921 138.982 113.97 155.648 107.705 171H77.2469C67.2258 171 57.8218 175.166 50.7938 182.739C47.8647 185.884 45.7146 189.554 43.9461 193.406C43.4986 193.994 43.2116 194.661 43.0618 195.409C40.4946 201.911 39.3875 209.008 40.3359 216.268L40.5588 217.897C41.5393 225.338 44.1475 232.122 47.7684 238.15C48.0447 239.03 48.5029 239.809 49.1946 240.415C56.2872 250.949 66.9092 258.54 79.0641 261.076C72.4928 272.227 66.0165 282.563 61.8821 287.616C50.9836 300.937 30.3975 368.749 95.7885 382.07C105.476 397.005 130.906 413.312 155.125 359.062C158.354 348.971 169.898 326.609 190.242 317.89C215.672 306.991 248.367 288.827 250.789 285.194ZM75.7634 338.843C81.0033 337.004 90.6636 332.959 96.0521 325.774C99.5397 321.124 95.9701 316.49 92.5565 313.526C89.9616 311.274 86.2215 311.289 83.3966 313.245C80.1544 315.491 76.2274 318.716 75.1113 321.786C73.3121 326.734 74.0077 334.192 74.4642 338.029C74.5388 338.655 75.1679 339.052 75.7634 338.843ZM156.336 92.9324L157.877 118.859L180.314 106.394L156.336 92.9324Z" fill="url(#paint0_linear_487_151)"/>
<path fill-rule="evenodd" clip-rule="evenodd" d="M233.187 199.834C231.904 197.054 229.635 192.77 227.51 190.494C222.411 185.014 215.588 182 208.311 182H77.0228C69.7525 182 62.9298 185.014 57.831 190.494C55.7059 192.77 54.146 195.425 52.8629 198.213C52.5383 198.638 52.33 199.12 52.2214 199.662C50.3588 204.366 49.5556 209.502 50.2437 214.755L50.4054 215.933C51.1168 221.317 53.0091 226.226 55.636 230.588C55.8365 231.225 56.1689 231.788 56.6708 232.227C63.0461 241.671 73.3521 247.845 84.8339 247.845H94.6071C108.135 247.845 120.659 241.977 129.878 232.174C129.901 232.152 129.92 232.13 129.94 232.108C129.959 232.086 129.979 232.064 130.002 232.042C134.081 227.674 137.488 222.553 140.022 216.751C140.168 216.51 140.292 216.269 140.386 215.998C140.45 215.847 140.525 215.702 140.6 215.556C140.689 215.385 140.778 215.214 140.849 215.033C142.741 210.262 142.935 205.222 141.876 200.437C141.876 200.411 141.883 200.387 141.891 200.363C141.899 200.339 141.907 200.316 141.907 200.291C141.907 199.661 141.698 199.098 141.405 198.586C140.609 195.988 139.542 193.465 137.881 191.197C137.387 190.538 136.878 189.91 136.345 189.317H149C148.467 189.91 147.949 190.539 147.477 191.19C145.817 193.458 144.75 195.982 143.954 198.579C143.654 199.098 143.444 199.661 143.444 200.291C143.444 200.317 143.452 200.341 143.46 200.365C143.468 200.388 143.475 200.412 143.475 200.437C142.417 205.222 142.618 210.269 144.518 215.069C144.583 215.236 144.664 215.392 144.745 215.549C144.817 215.688 144.889 215.829 144.951 215.977C145.044 216.262 145.175 216.526 145.338 216.774C147.81 222.451 151.14 227.478 155.119 231.787C155.14 231.813 155.161 231.839 155.182 231.865C155.29 231.997 155.392 232.124 155.529 232.24C164.738 242 177.239 247.845 190.736 247.845H200.51C211.99 247.845 222.297 241.671 228.671 232.218C229.173 231.78 229.506 231.216 229.706 230.579C232.325 226.219 234.225 221.31 234.937 215.925L235.098 214.732C235.472 211.891 235.406 209.08 234.97 206.352C254.363 188.768 274.688 189.397 282.722 192.075C288.322 192.074 296.161 190.394 282.722 183.675C269.617 177.122 244.799 191.334 233.187 199.834ZM221.896 201.51C221.345 200.492 220.685 199.446 219.935 198.548C219.801 198.383 219.683 198.205 219.564 198.028C219.407 197.792 219.249 197.556 219.055 197.346C215.732 193.739 211.354 191.755 206.733 191.755H167.155C163.08 191.755 159.264 193.8 156.674 197.367C156.523 197.577 156.412 197.807 156.301 198.038C156.218 198.211 156.134 198.383 156.034 198.548C155.683 199.23 155.167 200.332 154.711 201.51H221.896ZM157.45 218.93C157.854 219.648 158.281 220.343 158.726 221.02H222.844C223.064 220.336 223.261 219.639 223.438 218.93C223.765 217.42 224.407 213.948 224.357 212.136C224.366 211.764 224.369 211.392 224.364 211.021H154.166C154.259 211.395 154.363 211.767 154.479 212.136C154.925 213.527 156.145 216.832 157.45 218.93ZM169.646 232.517C169.025 232.11 168.157 231.383 167.217 230.531H217.476C216.851 231.298 216.256 232.001 215.809 232.517C211.415 236.756 205.702 239.31 199.569 239.31H190.591C182.997 239.31 175.785 236.844 169.646 232.517ZM63.4441 201.51H130.629C130.173 200.332 129.656 199.23 129.306 198.548C129.206 198.383 129.122 198.211 129.039 198.039C128.928 197.807 128.817 197.577 128.666 197.367C126.076 193.8 122.26 191.755 118.185 191.755H78.6073C73.9864 191.755 69.6076 193.739 66.2852 197.346C66.0908 197.556 65.9332 197.792 65.7759 198.027C65.6574 198.205 65.539 198.382 65.4048 198.548C64.6554 199.446 63.9949 200.492 63.4441 201.51ZM127.89 218.93C127.486 219.647 127.06 220.343 126.615 221.02H62.4956C62.2763 220.336 62.0788 219.639 61.9022 218.93C61.5748 217.42 60.9326 213.948 60.9832 212.136C60.974 211.764 60.9713 211.392 60.9757 211.021H131.174C131.081 211.395 130.977 211.767 130.861 212.136C130.415 213.527 129.195 216.832 127.89 218.93ZM118.124 230.531H67.8636C68.4889 231.298 69.0835 232.001 69.5306 232.517C73.9246 236.756 79.6382 239.31 85.7709 239.31H94.7493C102.343 239.31 109.555 236.844 115.694 232.517C116.315 232.11 117.183 231.382 118.124 230.531Z" fill="#FF4747"/>
<path d="M156.336 92.9324L157.877 118.859L180.314 106.394L156.336 92.9324Z" fill="url(#paint1_linear_487_151)"/>
<path d="M124.286 358.868C122.711 361.945 121.571 364.225 120.95 365.81C117.789 371.333 113.582 372.39 108.049 369.136C102.091 365.893 101.386 361.862 106.039 357.033C107.333 356.096 108.384 354.863 109.106 353.438C113.759 343.698 117.706 338.786 121.126 338.786C125.778 338.786 128.317 341.242 128.586 345.977C128.586 347.387 127.188 351.687 124.286 358.868Z" fill="url(#paint2_linear_487_151)"/>
<path d="M272.544 270.439C284.564 254.648 290.449 237.105 290.263 217.801C289.569 212.102 286.325 209.304 280.523 209.304C272.637 209.304 269.57 212.195 271.228 217.977C271.756 227.458 270.886 235.261 268.43 241.405C264.472 251.145 260.089 258.43 255.354 263.248C252.722 268.429 254.297 272.201 260.006 274.563C265.446 277.112 269.653 275.796 272.544 270.439Z" fill="url(#paint3_linear_487_151)"/>
<path d="M435.453 457C438.031 457 440.185 455.102 440.39 452.533C447.104 368.491 426.2 198.56 326.5 146.5C326.073 146.358 325.552 146.166 324.929 145.938C319.508 143.947 306.439 139.148 281.958 139.685C278.404 139.763 276.198 143.509 277.746 146.709L279.449 150.229C281.025 153.484 284.221 155.573 287.792 156.145C335.213 163.746 415.514 231.633 403.316 451.597C403.157 454.475 405.435 457 408.318 457H435.453Z" fill="url(#paint4_linear_487_151)"/>
<path d="M75.7633 338.843C81.0032 337.005 90.6635 332.959 96.052 325.774C99.5396 321.124 95.97 316.49 92.5564 313.527C89.9615 311.274 86.2214 311.289 83.3965 313.245C80.1544 315.491 76.2273 318.716 75.1112 321.786C73.312 326.734 74.0076 334.193 74.4641 338.029C74.5387 338.655 75.1678 339.052 75.7633 338.843Z" fill="url(#paint5_linear_487_151)"/>
<defs>
<linearGradient id="paint0_linear_487_151" x1="255.995" y1="69" x2="255.995" y2="485" gradientUnits="userSpaceOnUse">
<stop stop-color="#450000"/>
<stop offset="1" stop-color="#1F0000"/>
</linearGradient>
<linearGradient id="paint1_linear_487_151" x1="257.738" y1="92.9324" x2="257.738" y2="457" gradientUnits="userSpaceOnUse">
<stop stop-color="#EBD1A9"/>
<stop offset="1" stop-color="#FFA978"/>
</linearGradient>
<linearGradient id="paint2_linear_487_151" x1="257.738" y1="92.9324" x2="257.738" y2="457" gradientUnits="userSpaceOnUse">
<stop stop-color="#EBD1A9"/>
<stop offset="1" stop-color="#FFA978"/>
</linearGradient>
<linearGradient id="paint3_linear_487_151" x1="257.738" y1="92.9324" x2="257.738" y2="457" gradientUnits="userSpaceOnUse">
<stop stop-color="#EBD1A9"/>
<stop offset="1" stop-color="#FFA978"/>
</linearGradient>
<linearGradient id="paint4_linear_487_151" x1="257.738" y1="92.9324" x2="257.738" y2="457" gradientUnits="userSpaceOnUse">
<stop stop-color="#EBD1A9"/>
<stop offset="1" stop-color="#FFA978"/>
</linearGradient>
<linearGradient id="paint5_linear_487_151" x1="257.738" y1="92.9324" x2="257.738" y2="457" gradientUnits="userSpaceOnUse">
<stop stop-color="#EBD1A9"/>
<stop offset="1" stop-color="#FFA978"/>
</linearGradient>
</defs>
</svg>
