<svg width="512" height="512" viewBox="0 0 512 512" fill="none" xmlns="http://www.w3.org/2000/svg">
<path d="M328.469 487.071H131.179C123.348 487.071 117 479.927 117 471.114V82.2916C117 76.0413 119.925 70.2527 124.698 67.0563L164.771 40.2203C169.853 36.817 175.831 35 181.948 35H375.279C386.645 35 395.859 44.214 395.859 55.58V408.05C395.859 414.422 393.826 420.583 390.129 425.41L352.339 474.759C346.353 482.576 337.638 487.071 328.469 487.071Z" fill="#350000"/>
<path d="M375.002 420.131C378.776 415.282 380.857 409.055 380.857 402.609V56.8801C380.857 51.1971 376.25 46.5901 370.567 46.5901H191.628C186.258 46.5901 181.022 48.2706 176.656 51.3961L140.668 77.154C135.522 80.6529 132.884 86.156 132.884 92.4464V460.477C132.884 466.352 137.116 471.115 142.337 471.115H323.393C330.055 471.115 336.408 467.95 340.887 462.4L375.002 420.131Z" fill="url(#paint0_linear_487_97)"/>
<path d="M319.149 88.1676H151.168C147.275 88.1676 145.293 82.9032 148.002 79.7565C152.153 74.9339 158.216 74.8665 164.183 74.8665H319.047C325.613 74.8665 332.015 72.5582 337.359 68.264L348.331 59.4466C353.973 54.9123 361.232 51.0207 368.019 53.5348L368.891 53.8577C372.625 55.2407 373.736 59.2403 370.649 61.7541L354.185 74.8665C343.734 84.769 341.721 92.0227 341.721 103.114V446.435C341.721 452.616 339.598 458.187 334.521 460.544C330.95 462.202 327.027 459.247 327.027 454.9V97.0321C327.027 92.1364 323.5 88.1676 319.149 88.1676Z" fill="#350000"/>
<path d="M183.383 59.3165L188.632 55.9572C191.116 54.3672 194.003 53.5222 196.953 53.5222H242.171C246.186 53.5222 247.825 58.6837 244.545 61.0002L240.196 64.0716C237.592 65.9114 234.481 66.8992 231.292 66.8992H185.602C181.49 66.8992 179.92 61.5334 183.383 59.3165Z" fill="#350000"/>
<path d="M268.929 56.8326L265.479 59.5499C262.411 61.9672 264.12 66.8992 268.027 66.8992H316.536C319.739 66.8992 322.863 65.9027 325.474 64.0479L329.774 60.9938C333.043 58.6719 331.4 53.5222 327.39 53.5222H278.48C275.015 53.5222 271.651 54.6882 268.929 56.8326Z" fill="#350000"/>
<path d="M210.956 297.318C209.323 295.536 207.912 293.68 206.725 291.749C205.537 289.67 204.646 287.592 204.052 285.513C203.755 286.552 203.532 287.517 203.384 288.408L202.493 291.081L201.602 293.308C201.156 294.051 200.562 294.719 199.82 295.313C201.008 296.352 201.899 297.169 202.493 297.763C203.087 298.357 203.606 299.025 204.052 299.768L205.165 301.995C205.611 302.886 206.279 304.148 207.17 305.781C208.952 308.9 210.511 312.092 211.847 315.359C213.035 318.477 213.926 321.595 214.52 324.714C212.738 326.05 210.956 327.238 209.175 328.277C207.244 329.317 205.388 330.059 203.606 330.505C202.418 339.562 200.785 348.249 198.706 356.564C196.627 364.879 194.252 372.601 191.579 379.728C196.033 383.737 200.859 386.856 206.056 389.083C211.253 391.31 216.673 392.647 222.316 393.092L222.539 305.336C220.311 304.445 218.232 303.331 216.302 301.995C214.223 300.51 212.441 298.951 210.956 297.318Z" fill="#450000"/>
<path d="M190.911 353.446C192.841 345.873 194.549 338.077 196.033 330.059C193.955 325.604 191.505 321.15 188.683 316.695C185.862 312.24 182.595 308.009 178.883 303.999C177.398 311.869 175.468 319.219 173.092 326.05C170.568 332.88 167.598 338.968 164.183 344.314C165.668 347.581 167.153 350.625 168.637 353.446C170.122 356.267 171.756 358.94 173.538 361.464C175.171 363.84 176.953 366.142 178.883 368.369C180.665 370.596 182.595 372.749 184.674 374.828C186.901 368.146 188.98 361.019 190.911 353.446Z" fill="#450000"/>
<path d="M288.022 260.79C288.616 259.453 288.913 257.968 288.913 256.335V248.985H299.381C298.193 244.085 296.857 239.407 295.372 234.953C293.887 230.35 292.328 225.821 290.694 221.366C287.279 227.454 284.458 234.359 282.231 242.08C280.003 249.801 278.667 258.265 278.221 267.471C279.706 267.471 281.117 267.249 282.453 266.803C283.641 266.209 284.755 265.393 285.794 264.353C286.685 263.314 287.428 262.126 288.022 260.79Z" fill="#450000"/>
<path d="M282.453 291.526C281.117 290.784 279.706 290.413 278.221 290.413C278.518 295.016 279.112 299.471 280.003 303.777C280.746 308.083 281.711 312.241 282.899 316.25C283.938 320.11 285.2 323.823 286.685 327.386C288.17 330.95 289.803 334.291 291.585 337.409C293.219 333.103 294.704 328.648 296.04 324.045C297.376 319.442 298.564 314.616 299.604 309.568L288.913 309.122V301.549C288.913 300.213 288.616 298.877 288.022 297.54C287.428 296.204 286.685 295.016 285.794 293.977C284.755 292.937 283.641 292.12 282.453 291.526Z" fill="#450000"/>
<path d="M268.867 261.235C269.461 262.72 270.352 263.982 271.539 265.021C271.985 259.824 272.727 254.924 273.767 250.321C274.658 245.57 275.771 241.115 277.108 236.957C278.444 232.651 280.003 228.642 281.785 224.93C283.567 221.218 285.572 217.877 287.799 214.907C285.126 208.819 282.008 203.102 278.444 197.756C274.88 192.262 271.02 187.214 266.862 182.611C263.744 191.817 261.071 202.063 258.844 213.348C256.468 224.484 254.76 236.438 253.721 249.207L255.503 248.985V309.122L253.721 308.9C254.166 315.136 254.835 321.224 255.726 327.164C256.468 333.103 257.433 338.894 258.621 344.537C259.66 350.031 260.923 355.302 262.407 360.351C263.744 365.399 265.229 370.225 266.862 374.828C271.168 370.225 275.103 365.325 278.667 360.128C282.231 354.782 285.275 349.214 287.799 343.423C285.572 340.453 283.567 337.112 281.785 333.4C280.003 329.688 278.444 325.753 277.108 321.595C275.771 317.289 274.658 312.834 273.767 308.231C272.727 303.48 271.985 298.505 271.539 293.308C270.352 294.348 269.461 295.61 268.867 297.095C268.124 298.58 267.753 300.139 267.753 301.772V309.122H261.294V248.985H267.753V256.558C267.753 258.042 268.124 259.602 268.867 261.235Z" fill="#450000"/>
<path d="M188.238 251.658C191.505 250.173 194.92 249.207 198.484 248.762C197.147 236.141 195.365 224.336 193.138 213.348C190.762 202.211 187.941 192.114 184.674 183.056C180.813 187.065 177.175 191.594 173.76 196.643C170.197 201.543 167.004 207.037 164.183 213.125C167.895 218.767 171.087 225.375 173.76 232.948C176.285 240.372 178.141 248.391 179.329 257.003C182.001 254.776 184.971 252.994 188.238 251.658Z" fill="#450000"/>
<path d="M163.069 289.745C161.584 289.151 160.099 288.779 158.615 288.631C158.466 287.295 158.615 286.107 159.06 285.067C159.505 284.028 160.174 283.137 161.065 282.394C161.956 281.504 162.995 280.91 164.183 280.613C165.222 280.167 166.336 280.019 167.524 280.167C167.524 277.346 168.044 274.599 169.083 271.926C169.974 269.253 171.236 266.952 172.869 265.021C172.424 260.715 171.904 256.483 171.31 252.326C170.568 248.168 169.677 244.159 168.637 240.298C167.45 236.438 166.187 232.8 164.851 229.384C163.515 225.821 162.03 222.554 160.396 219.584C157.13 228.493 154.605 237.997 152.824 248.094C150.893 258.042 149.928 268.362 149.928 279.054C149.928 289.448 150.819 299.471 152.601 309.122C154.383 318.774 156.833 328.054 159.951 336.964C162.921 331.915 165.519 326.05 167.747 319.368C169.825 312.538 171.31 305.187 172.201 297.318C171.756 296.13 171.088 295.016 170.197 293.977C169.157 292.937 168.044 292.12 166.856 291.526C165.668 290.784 164.406 290.19 163.069 289.745Z" fill="#450000"/>
<path d="M214.297 254.999C216.97 256.335 219.717 257.3 222.539 257.894L222.316 165.683C216.822 165.832 211.55 166.945 206.502 169.024C201.305 170.954 196.405 173.776 191.802 177.488C193.732 182.388 195.514 187.659 197.147 193.302C198.632 198.796 200.043 204.587 201.379 210.675C202.567 216.614 203.606 222.851 204.497 229.384C205.388 235.918 206.131 242.674 206.725 249.653C209.1 251.732 211.625 253.514 214.297 254.999Z" fill="#450000"/>
<path d="M230.78 165.906V258.562C233.304 258.414 235.902 257.968 238.575 257.226C241.099 256.335 243.475 255.073 245.703 253.439C246.148 246.163 246.891 239.11 247.93 232.28C248.821 225.449 249.935 218.916 251.271 212.679C252.459 206.294 253.869 200.281 255.503 194.638C256.988 188.847 258.695 183.427 260.626 178.379C256.171 174.667 251.494 171.771 246.594 169.692C241.545 167.613 236.274 166.351 230.78 165.906Z" fill="#450000"/>
<path d="M248.375 328.945C247.484 322.56 246.816 316.027 246.371 309.345C243.847 309.642 241.322 309.716 238.798 309.568C236.125 309.419 233.452 308.974 230.78 308.231L230.557 393.092C236.051 392.35 241.396 390.865 246.594 388.637C251.791 386.262 256.616 383.218 261.071 379.505C259.141 374.754 257.433 369.705 255.948 364.36C254.315 358.866 252.904 353.223 251.716 347.432C250.38 341.493 249.266 335.33 248.375 328.945Z" fill="#450000"/>
<path d="M294.035 293.977V305.113H316.309V300.658H307.399V294.867H302.722V300.658H298.713V293.977H294.035Z" fill="#450000"/>
<path d="M294.035 286.404V291.081H316.309V286.404H294.035Z" fill="#450000"/>
<path fill-rule="evenodd" clip-rule="evenodd" d="M294.035 276.158V283.063H316.308V276.158C316.308 275.267 316.16 274.376 315.863 273.485C315.715 273.04 315.492 272.669 315.195 272.372L314.081 271.258C313.19 270.664 312.077 270.218 310.74 269.921C309.404 269.476 307.548 269.253 305.172 269.253C304.281 269.253 303.539 269.328 302.945 269.476C302.202 269.476 301.46 269.55 300.717 269.699C299.381 269.847 298.193 270.218 297.154 270.812C296.114 271.406 295.298 272.075 294.704 272.817C294.258 273.708 294.035 274.822 294.035 276.158ZM311.408 278.608H298.935L298.936 277.272C298.936 276.084 299.381 275.193 300.272 274.599C301.311 274.153 302.945 273.931 305.172 273.931C307.102 273.931 308.439 274.005 309.181 274.153C310.072 274.45 310.592 274.822 310.74 275.267C310.889 275.416 311.037 275.713 311.186 276.158C311.334 276.455 311.408 276.826 311.408 277.272V278.608Z" fill="#450000"/>
<path d="M294.035 254.776V267.026H316.309V254.553H311.408V262.571H306.954V255.221H302.276V262.571H298.713V254.776H294.035Z" fill="#450000"/>
<defs>
<linearGradient id="paint0_linear_487_97" x1="256.87" y1="46.5901" x2="256.87" y2="471.115" gradientUnits="userSpaceOnUse">
<stop stop-color="#EBD1A9"/>
<stop offset="1" stop-color="#FFA978"/>
</linearGradient>
</defs>
</svg>
