<svg width="180" height="180" viewBox="0 0 180 180" fill="none" xmlns="http://www.w3.org/2000/svg">
<path d="M90.9144 15.5H90.871L90.8277 15.5025C88.1098 15.66 85.9839 15.8998 84.5076 16.2419C83.7822 16.41 83.1063 16.6261 82.5772 16.9325C82.0958 17.2115 81.3234 17.8184 81.3234 18.875V19.625V20.4091L81.9672 20.8566C82.2636 21.0627 82.5408 21.2624 82.7995 21.4557C82.2314 21.1103 81.6262 20.7156 80.9831 20.2684L80.597 20H80.1268H79.0479H78.6378L78.2847 20.2087C76.0738 21.5154 74.8507 23.4835 74.8507 26V28.625V28.7707L74.8788 28.9138C75.1632 30.3636 75.5697 31.6151 76.1744 32.5397C76.8062 33.5059 77.7608 34.25 79.0479 34.25H80.1268H80.5852L80.9653 33.9937C81.7191 33.4856 82.4119 33.0575 83.046 32.702C82.9396 32.8268 82.8388 32.9472 82.7435 33.0631C82.3655 33.5229 82.0492 33.9438 81.8194 34.3132C81.7046 34.4977 81.5935 34.6978 81.5071 34.9044C81.4893 34.9469 81.4701 34.9955 81.4509 35.0495C79.3694 35.1638 77.6269 35.482 76.2927 36.0618C75.4137 36.4437 74.6393 36.9702 74.0822 37.6964C73.7521 38.1267 73.5204 38.5988 73.3834 39.1006C73.1936 39.1261 72.9659 39.1525 72.6969 39.1792C71.486 39.2995 69.6358 39.4076 67.1256 39.5011L66.9617 39.5072L66.803 39.5485C63.4508 40.4225 60.7692 41.6431 58.9036 43.3005C56.9888 45.0016 55.9727 47.1344 55.9727 49.625C55.9727 50.7327 56.476 51.9658 57.1775 53.2096C57.907 54.5028 58.9726 56.0143 60.3462 57.7333C63.0136 61.0714 66.9438 65.3169 72.1131 70.4588C71.8134 75.107 71.6467 78.377 71.6189 80.2344C69.236 80.6904 67.274 81.3603 65.8232 82.306C64.0555 83.4582 62.9848 85.0765 62.9848 87.1252V87.424L63.0993 87.7001C63.8457 89.4989 64.8638 90.9641 66.2115 91.9792C67.5761 93.007 69.1818 93.4998 70.9569 93.4998H74.8242C74.4371 104.508 69.805 116.752 60.7298 130.26C59.2433 131.155 58.0916 131.883 57.2907 132.44C56.87 132.733 56.5094 133.003 56.2406 133.242C56.1097 133.358 55.9591 133.503 55.8292 133.668L55.8257 133.673C55.7483 133.771 55.4333 134.172 55.4333 134.75V135.875C55.4333 136.839 55.8401 137.707 56.4467 138.476C54.3857 140.578 52.7629 142.575 51.6074 144.469C50.264 146.67 49.5 148.817 49.5 150.875V153.125C49.5 155.822 50.6644 158.639 52.7427 161.543C50.9965 163.278 50.0394 165.355 50.0394 167.75V168.233L50.3217 168.626C50.9447 169.492 51.8746 170.375 53.1575 170.375H127.592C128.079 170.375 128.711 170.299 129.257 169.919C129.903 169.471 130.171 168.786 130.171 168.125V166.625C130.171 165.297 129.829 164.073 129.08 163.03C128.706 162.51 128.25 162.063 127.726 161.68C130.013 158.648 131.25 155.541 131.25 152.375C131.25 148.304 129.023 143.777 124.997 138.852C125.37 138.476 125.742 138.017 126.113 137.501L126.396 137.109V136.625V135.875V135.669L126.34 135.471C125.977 134.172 125.389 133.039 124.479 132.225C123.736 131.561 122.855 131.18 121.891 131.05C111.246 117.358 106.014 104.852 105.901 93.4998H109.254C111.176 93.4998 112.894 93.077 114.29 92.1065C115.698 91.1275 116.635 89.6907 117.163 87.9303L117.226 87.7197V87.4998V87.1252V86.8638L117.137 86.6178C116.446 84.6945 115.461 83.1189 114.109 82.0224C112.736 80.9085 111.089 80.3748 109.254 80.3748H109.05C108.745 75.1139 108.596 71.7537 108.596 70.2502V70.1175C113.604 65.0611 117.405 60.9844 119.979 57.8984C121.301 56.3139 122.326 54.9597 123.028 53.8483C123.379 53.2928 123.668 52.7692 123.874 52.2867C124.07 51.8253 124.238 51.2926 124.238 50.75V48.875C124.238 46.7843 123.008 44.8054 121.127 42.964C119.843 41.5305 117.848 40.5988 115.403 40.0104C113.199 39.4802 110.493 39.1961 107.311 39.1368C107.198 38.7546 107.038 38.3871 106.825 38.039C106.35 37.2602 105.665 36.661 104.848 36.2149C103.694 35.5844 102.223 35.2287 100.505 35.0814V35V34.2307L99.8801 33.7818C99.657 33.6215 99.4427 33.4643 99.2369 33.3099C99.7435 33.6252 100.285 33.9773 100.862 34.3674L101.242 34.625H101.702H102.242H102.572L102.872 34.486C104.203 33.8692 105.26 32.9495 105.969 31.7167C106.67 30.4978 106.978 29.0675 106.978 27.5C106.978 25.7777 106.682 24.2297 105.989 22.9443C105.28 21.629 104.199 20.6751 102.805 20.1099L102.534 20H102.242H101.702H101.232L100.846 20.2684C100.062 20.8131 99.3414 21.2656 98.6804 21.6354L100.041 20.3343L100.505 19.8912V19.25C100.505 18.3385 99.9538 17.7116 99.4657 17.3462C98.98 16.9825 98.3605 16.7179 97.7103 16.5092C96.3927 16.0864 94.5173 15.7614 92.1529 15.5085L92.0733 15.5H91.9933H90.9144Z" fill="#444444" stroke="black" stroke-width="3"/>
<path d="M53.1575 168.875C52.6181 168.875 52.0788 168.5 51.5394 167.75C51.5394 165.438 52.6181 163.437 54.7757 161.75C52.2585 158.563 51 155.688 51 153.125V150.875C51 147.5 53.5171 143.375 58.5516 138.5C57.4727 137.562 56.9333 136.688 56.9333 135.875V134.75C56.9333 134.438 58.5516 133.313 61.7876 131.375C71.4964 117 76.3507 103.875 76.3507 91.9998H70.9569C67.9903 91.9998 65.8331 90.3747 64.4848 87.1252C64.4848 84.2502 67.3614 82.3749 73.1147 81.5002V80.7498C73.1147 78.9999 73.2947 75.3751 73.6541 69.875C62.8665 59.1875 57.4727 52.4375 57.4727 49.625C57.4727 45.5625 60.7088 42.6875 67.1814 41C72.2158 40.8125 74.733 40.5625 74.733 40.25C74.733 37.75 77.6096 36.5 83.3629 36.5L82.8234 35.75C82.8234 35.1875 84.2617 33.4375 87.1389 30.5V29.75C85.4306 29.75 83.0934 30.75 80.1268 32.75H79.0479C77.7896 32.75 76.8902 31.375 76.3507 28.625V26C76.3507 24.0625 77.2502 22.5625 79.0479 21.5H80.1268C83.0034 23.5 85.3406 24.625 87.1389 24.875V24.5C87.1389 23.25 85.7001 21.625 82.8234 19.625V18.875C82.8234 17.9693 85.3408 17.3553 90.3749 17.0329V168.875H53.1575Z" fill="#666666"/>
</svg>
