<svg width="32" height="32" viewBox="0 0 32 32" fill="none" xmlns="http://www.w3.org/2000/svg">
<path d="M17.0522 4.80537C17.3781 4.74358 17.7192 4.58345 18.0651 4.36578C18.0784 4.38245 18.0902 4.40069 18.101 4.4207C18.1456 4.50333 18.1849 4.64219 18.1849 4.86667C18.1849 5.04692 18.1496 5.16111 18.1077 5.23399C18.0947 5.25656 18.0793 5.27831 18.0607 5.29912C17.847 5.16285 17.6514 5.05085 17.4754 4.96614C17.3404 4.90115 17.1968 4.84207 17.0522 4.80537ZM16.6046 6.07781C16.7034 6.177 16.8176 6.27813 16.9457 6.38119C16.9275 6.48623 16.943 6.59636 16.9934 6.69474C17.079 6.86167 17.2508 6.96667 17.4384 6.96667C17.8567 6.96667 18.0917 7.02661 18.2055 7.0888C18.2549 7.11578 18.2677 7.13568 18.2701 7.13961L18.2702 7.1397C18.272 7.14275 18.2808 7.15714 18.2808 7.2C18.2808 7.47614 18.5047 7.7 18.7808 7.7C19.4152 7.7 19.9074 7.74885 20.27 7.83612C20.641 7.9254 20.8206 8.04158 20.8984 8.1301C20.907 8.13984 20.9159 8.14925 20.9252 8.1583C21.2098 8.4353 21.2534 8.60181 21.2534 8.66667V8.96442C21.2524 8.96693 21.2513 8.96977 21.2499 8.97293C21.2351 9.00774 21.2065 9.06282 21.157 9.14121C21.058 9.29783 20.8999 9.50925 20.6743 9.7797C20.2247 10.3186 19.5414 11.0511 18.6178 11.981C18.5248 12.0747 18.4726 12.2013 18.4726 12.3333V12.4667C18.4726 12.7846 18.5057 13.4896 18.5694 14.5629C18.585 14.8271 18.8038 15.0333 19.0685 15.0333H19.3562C19.5254 15.0333 19.6428 15.079 19.7364 15.155C19.8187 15.2217 19.9058 15.331 19.9846 15.5068C19.9358 15.6141 19.8759 15.6797 19.8139 15.7228C19.7278 15.7827 19.5882 15.8333 19.3562 15.8333H18.4932C18.217 15.8333 17.9932 16.0572 17.9932 16.3333V16.5333C17.9932 18.8334 19.0545 21.2737 21.0726 23.8422C21.1674 23.9629 21.3123 24.0333 21.4658 24.0333C21.5263 24.0333 21.5429 24.0479 21.5521 24.0561C21.562 24.065 21.5799 24.0849 21.6006 24.1239C21.4687 24.1663 21.3578 24.2624 21.2984 24.3927C21.2172 24.571 21.2476 24.7803 21.3761 24.9281C22.1869 25.8603 22.5 26.565 22.5 27.0667C22.5 27.4742 22.3175 27.94 21.8554 28.4722C21.7495 28.594 21.709 28.7595 21.7466 28.9165C21.7843 29.0735 21.8954 29.2027 22.045 29.2633C22.1719 29.3148 22.2303 29.3694 22.2585 29.4086C22.274 29.4302 22.2889 29.4588 22.2982 29.5H9.66094C9.71877 29.3757 9.81941 29.2522 9.97927 29.1272C10.084 29.0452 10.1518 28.9249 10.1677 28.7928C10.1835 28.6608 10.1461 28.5278 10.0636 28.4235C9.6477 27.8968 9.5 27.4941 9.5 27.2V26.8C9.5 26.6233 9.56698 26.3807 9.76243 26.0604C9.95669 25.7421 10.2609 25.375 10.6903 24.9592C10.7909 24.8617 10.8461 24.7266 10.8423 24.5865C10.8385 24.4465 10.7762 24.3145 10.6704 24.2226C10.6292 24.1868 10.6007 24.1573 10.5814 24.1347C10.7116 24.0457 10.9076 23.9222 11.1746 23.7623C11.2374 23.7247 11.2912 23.6738 11.3322 23.6132C13.0896 21.0111 14.0068 18.5803 14.0068 16.3333C14.0068 16.0572 13.783 15.8333 13.5068 15.8333H12.5479C12.3815 15.8333 12.262 15.79 12.1655 15.7173C12.082 15.6544 11.9941 15.5529 11.9124 15.3915C11.9305 15.3528 11.9697 15.3071 12.0538 15.2522C12.222 15.1426 12.5234 15.0345 13.0067 14.961C13.251 14.9238 13.4315 14.7138 13.4315 14.4667V14.3333C13.4315 14.0415 13.4622 13.4137 13.5263 12.4326C13.5358 12.2882 13.4821 12.1467 13.3793 12.0448C12.4255 11.0999 11.7221 10.3406 11.2605 9.76287C11.0291 9.47337 10.8674 9.24049 10.766 9.0606C10.6723 8.89461 10.6546 8.81597 10.6514 8.80159C10.6508 8.79896 10.6507 8.79848 10.6507 8.8C10.6507 8.59202 10.7255 8.4165 10.9143 8.2488C11.1128 8.07245 11.4438 7.90183 11.9513 7.7642C12.3741 7.7479 12.7034 7.72869 12.933 7.70589C13.0497 7.69429 13.158 7.68017 13.2443 7.66088C13.2833 7.65217 13.3471 7.63625 13.4115 7.60585C13.4425 7.59123 13.5026 7.56006 13.5618 7.50281C13.6221 7.4444 13.7172 7.32166 13.7191 7.13909C13.7301 7.1299 13.7544 7.11259 13.802 7.09191C13.9623 7.02226 14.2629 6.96667 14.7534 6.96667C14.941 6.96667 15.1128 6.86167 15.1984 6.69474C15.2554 6.58355 15.2677 6.45735 15.2372 6.34047C15.3514 6.20178 15.5308 6.00622 15.7819 5.74984C15.8734 5.65639 15.9247 5.5308 15.9247 5.4V5.26667C15.9247 5.0814 15.8239 4.91967 15.6742 4.83329C15.702 4.81728 15.7284 4.79852 15.753 4.77711C15.862 4.68216 15.9247 4.54462 15.9247 4.4V4.33333C15.9247 4.03751 15.7617 3.79305 15.6073 3.6186C15.5861 3.5947 15.5639 3.57078 15.5408 3.54686C15.6991 3.52893 15.8883 3.51307 16.1105 3.5H16.2607C16.4094 3.51626 16.5395 3.53359 16.6521 3.55155L16.4216 3.77191C16.3229 3.86624 16.2671 3.99682 16.2671 4.13333V4.33333C16.2671 4.54607 16.4 4.72777 16.5872 4.8C16.5311 4.82164 16.4799 4.85311 16.4357 4.89229C16.3644 4.93038 16.3023 4.98576 16.2559 5.05497C16.1631 5.19348 16.1454 5.36916 16.2088 5.52339C16.2924 5.7269 16.4395 5.91199 16.6046 6.07781ZM21.2589 8.94906C21.2589 8.94901 21.2587 8.94965 21.2583 8.95099L21.2589 8.94906ZM15.0347 4.82018C14.7304 4.89908 14.4084 5.05995 14.0795 5.26728C14.0572 5.2123 14.0315 5.13112 14.0068 5.01604V4.6C14.0068 4.50154 14.0288 4.42036 14.0941 4.3461C14.4234 4.56003 14.739 4.72551 15.0347 4.82018ZM22.6164 29.5H22.6155C22.6187 29.4998 22.6203 29.4998 22.6202 29.4999C22.6201 29.4999 22.6189 29.5 22.6164 29.5Z" fill="white" stroke="black" stroke-linejoin="round"/>
</svg>
