<svg width="32" height="32" viewBox="0 0 32 32" fill="none" xmlns="http://www.w3.org/2000/svg">
<path d="M18.1266 9H18.3038C18.7764 9.24178 19.0127 9.54112 19.0127 9.89803C18.9536 9.95559 18.9241 10.0938 18.9241 10.3125C19.3228 10.5543 19.884 11.222 20.6076 12.3158C20.9768 12.6497 21.7152 13.2023 22.8228 13.9737C22.9409 14.1234 23 14.2615 23 14.3882V14.5263C23 14.9178 22.557 15.4934 21.6709 16.2533H21.3165C20.6667 15.8388 20.135 15.6316 19.7215 15.6316H19.1013C18.865 15.6316 18.3333 15.7007 17.5063 15.8388C16.5612 15.6776 16.0886 15.3553 16.0886 14.8717H16V14.9408C16 15.9655 16.8565 17.347 18.5696 19.0855C19.5148 19.7303 19.9873 20.1217 19.9873 20.2599C19.9873 20.4556 19.8397 21.4457 19.5443 23.2303C19.8544 23.2303 20.0612 23.4375 20.1646 23.852C20.1646 23.9671 20.0464 24.1283 19.8101 24.3355C20.519 25.3257 20.8734 26.1086 20.8734 26.6842V27.0296C20.8734 27.5477 20.6667 28.1234 20.2532 28.7566C20.6076 28.9638 20.7848 29.3322 20.7848 29.8618L20.519 30H9.35443C9.31013 30 9.22152 29.9309 9.08861 29.7928C9.14768 29.3783 9.32489 28.9868 9.62025 28.6184C9.20675 28.0543 9 27.4786 9 26.8914V26.6842C9 26.074 9.4135 25.2681 10.2405 24.2664C10.0633 24.2204 9.97468 24.0822 9.97468 23.852V23.7829C10.0485 23.4145 10.2257 23.2303 10.5063 23.2303C9.50211 21.7681 9 19.8339 9 17.4276C9 13.8931 10.1224 11.4984 12.3671 10.2434C13.5042 9.69079 14.597 9.41447 15.6456 9.41447H16.3544L17.4177 9.48355C17.5506 9.31086 17.7869 9.14967 18.1266 9Z" fill="black"/>
</svg>
