<svg width="180" height="180" viewBox="0 0 180 180" fill="none" xmlns="http://www.w3.org/2000/svg">
<path d="M110.533 76.9168L110.522 76.8998L110.511 76.8831C105.965 70.048 99.899 66.5 92.387 66.5H87.113C85.4657 66.5 83.8943 66.7726 82.4101 67.3265C77.7426 68.7623 74.0863 70.6382 71.576 73.0325C69.0166 75.4737 67.6839 78.426 67.6839 81.824V83.318C67.6839 86.7735 69.3084 89.8777 72.2473 92.6529H71.2932C69.0942 92.6529 67.1557 93.2244 65.6029 94.4818C64.0596 95.7315 63.0444 97.5397 62.4598 99.7472L62.4099 99.9359V100.131V100.878C62.4099 102.384 63.2018 103.66 64.3557 104.701C65.5011 105.734 67.1253 106.653 69.1317 107.492L69.4096 107.609H69.7109H76.4794C76.3717 108.175 76.2094 108.84 75.9838 109.61C75.5208 111.191 74.8169 113.13 73.8621 115.436C71.9543 120.044 69.0796 126.034 65.226 133.419C65.0912 133.539 64.8562 133.723 64.4933 133.98C63.7451 134.51 62.5937 135.252 61.0195 136.212L60.3005 136.65V137.492V139.734C60.3005 140.194 60.4298 140.67 60.7315 141.069C58.8839 143.348 57.4341 145.417 56.4028 147.272C55.2104 149.416 54.5 151.41 54.5 153.184C54.5 156.269 55.6074 159.317 57.6736 162.308C57.2086 162.76 56.8097 163.213 56.4884 163.668C55.9458 164.437 55.5547 165.313 55.5547 166.261V168.129V168.386L55.6402 168.628C55.9777 169.584 56.7725 170.111 57.5427 170.384C58.3016 170.653 59.2213 170.75 60.2188 170.75H120.863H121.121L121.363 170.664C121.941 170.46 122.487 170.218 122.917 169.914C123.293 169.647 123.945 169.069 123.945 168.129V166.261V166.031L123.877 165.812C123.501 164.616 123.039 163.579 122.439 162.813C122.311 162.65 122.172 162.494 122.022 162.349C123.955 159.384 125 156.447 125 153.558C125 149.713 123.011 145.682 119.424 141.5C119.868 141.125 120.245 140.656 120.558 140.148L120.781 139.786V139.36V138.987V138.779L120.725 138.579L120.197 136.711L120.026 136.104L119.471 135.802C117.293 134.614 115.921 133.621 115.201 132.84C109.828 124.574 105.847 116.165 103.246 107.609H108.207C110.222 107.609 112.032 107.105 113.557 106.025C115.074 104.95 116.197 103.384 116.981 101.439L117.09 101.169V100.878V100.131V99.9203L117.032 99.7176C116.402 97.5198 115.365 95.7238 113.831 94.4818C112.284 93.2293 110.371 92.6529 108.207 92.6529H107.216C110.175 89.8486 111.816 86.7442 111.816 83.318V82.571C111.816 80.3259 111.451 78.3802 110.533 76.9168Z" fill="#444444" stroke="black" stroke-width="3"/>
<path d="M60.2188 169.25C58.3732 169.25 57.3185 168.876 57.0547 168.129V166.261C57.0547 165.202 57.9339 163.957 59.6911 162.525C57.2308 159.349 56 156.235 56 153.184C56 150.383 58.2849 146.272 62.8557 140.855V140.481C62.1526 140.481 61.8005 140.232 61.8005 139.734V137.492C64.9651 135.562 66.5469 134.441 66.5469 134.13C74.2812 119.31 78.1484 109.97 78.1484 106.109H69.7109C65.8438 104.49 63.9099 102.746 63.9099 100.878V100.131C64.9651 96.1458 67.4255 94.1529 71.2932 94.1529H76.5661C71.6443 90.8527 69.1839 87.2414 69.1839 83.318V81.824C69.1839 75.9082 73.7536 71.5494 82.8943 68.747C84.2128 68.2492 85.619 68 87.113 68H90.5409V169.25H60.2188Z" fill="#666666"/>
</svg>
