<svg width="32" height="32" viewBox="0 0 32 32" fill="none" xmlns="http://www.w3.org/2000/svg">
<path d="M8.9375 10H12.3125C12.4375 10.0113 12.5 10.0567 12.5 10.1361C12.375 10.9637 12.3125 11.4853 12.3125 11.7007H13.9062C13.9062 11.4626 13.8438 10.941 13.7188 10.1361L14 10H16.9062L17.1875 10.1361C17.0625 10.805 17 11.3265 17 11.7007H18.5938C18.5938 11.644 18.5312 11.0998 18.4062 10.068L18.5938 10H21.9688C22.0938 10 22.1562 10.068 22.1562 10.2041C22.1562 11.4512 21.4375 12.6531 20 13.8095C20.3906 14.0703 20.6094 14.2517 20.6562 14.3537V14.7619C20.375 15.1247 20.0312 15.3061 19.625 15.3061C20.1875 19.3084 20.4688 21.576 20.4688 22.1088C21.3438 22.1769 21.7812 22.449 21.7812 22.9252C21.7812 22.9819 21.6562 23.1406 21.4062 23.4014V23.4694C22.4688 24.7846 23 25.7596 23 26.3946C23 26.9048 22.6875 27.6304 22.0625 28.5714C22.5625 28.8889 22.8125 29.3424 22.8125 29.932L22.625 30H8.28125C8.15625 30 8.09375 29.932 8.09375 29.7959C8.09375 29.3311 8.34375 28.9002 8.84375 28.5034C8.28125 27.7778 8 27.1655 8 26.6667V26.2585C8 25.6689 8.59375 24.7166 9.78125 23.4014C9.60938 23.4014 9.45313 23.288 9.3125 23.0612V22.6531C9.45313 22.4376 9.67188 22.2789 9.96875 22.1769H10.4375C11 17.8798 11.3125 15.5896 11.375 15.3061C10.625 15.2041 10.25 14.9546 10.25 14.5578C10.3594 14.1043 10.5469 13.8776 10.8125 13.8776V13.8095C9.4375 12.6531 8.75 11.4059 8.75 10.068L8.9375 10Z" fill="black"/>
</svg>
