<svg width="45" height="45" viewBox="0 0 45 45" fill="none" xmlns="http://www.w3.org/2000/svg">
<path d="M22.5 9C20.29 9 18.5 10.79 18.5 13C18.5 13.89 18.79 14.71 19.28 15.38C17.33 16.5 16 18.59 16 21C16 23.03 16.94 24.84 18.41 26.03C15.41 27.09 11 31.58 11 39.5H34C34 31.58 29.59 27.09 26.59 26.03C28.06 24.84 29 23.03 29 21C29 18.59 27.67 16.5 25.72 15.38C26.21 14.71 26.5 13.89 26.5 13C26.5 10.79 24.71 9 22.5 9Z" fill="#2D231F" stroke="#2D231F" stroke-width="1.5" stroke-linecap="round"/>
</svg>
