<svg width="180" height="180" viewBox="0 0 180 180" fill="none" xmlns="http://www.w3.org/2000/svg">
<path d="M89.7317 32.5096L89.6474 32.5H89.5625C87.589 32.5 85.83 32.9413 84.4038 33.9487C82.9672 34.9634 82.0131 36.4502 81.4761 38.2714L81.4149 38.4791V38.6956V39.8696C81.4149 41.3893 81.9787 42.712 82.9669 43.8286C81.2882 45.5178 79.9826 46.856 79.0539 47.84C78.4947 48.4325 78.0579 48.9117 77.7551 49.2681C77.6065 49.4431 77.4695 49.6125 77.3625 49.7638C77.3106 49.8371 77.2439 49.9365 77.184 50.0493C77.1832 50.051 77.1821 50.053 77.1808 50.0554C77.1485 50.1151 76.9829 50.4215 76.9829 50.8261C76.9829 51.1499 77.0882 51.3884 77.1204 51.4596C77.1665 51.5615 77.215 51.6398 77.2438 51.6841C77.3027 51.7745 77.3632 51.8493 77.4014 51.895C77.4831 51.9926 77.5804 52.096 77.673 52.1912C77.7572 52.2776 77.8546 52.3747 77.9624 52.48L77.0711 52.113L76.2327 51.7678L75.5374 52.3496C69.5305 57.3763 67.3541 60.2678 67.0176 63.9954L67.0115 64.0627V64.1303V66.0867C67.0115 69.4113 68.6042 72.7937 71.4605 76.2088C70.7883 77.0351 70.3353 77.9669 70.3353 79V79.7824C70.3353 80.931 70.6271 82.067 71.4729 82.9035C71.9416 83.3671 72.502 83.661 73.1051 83.8305V87.2176V87.3678L73.1348 87.515L73.3413 88.5353C71.6048 88.6961 70.1065 89.1124 68.9386 89.8739C67.2692 90.9624 66.4574 92.6355 66.4574 94.6521C66.4574 96.9688 68.251 98.6574 70.579 99.8909L70.8593 100.039L71.1757 100.062C73.0056 100.191 74.3065 100.348 75.125 100.522C75.1875 100.535 75.2451 100.548 75.2982 100.56C74.9711 106.596 71.0851 114.728 63.1724 125.066C61.4571 125.644 60.0394 126.316 59.0043 127.12C57.8629 128.007 57.0398 129.182 57.0398 130.652V131.044C57.0398 132.012 57.3075 132.933 57.9278 133.699C58.0846 133.893 58.2572 134.069 58.443 134.227C56.3862 136.774 54.7735 139.093 53.6249 141.179C52.2801 143.622 51.5 145.873 51.5 147.87V150.608C51.5 153.65 52.9059 157.103 55.429 160.906C53.5571 162.722 52.608 165.06 52.608 167.826V168.474L53.0797 168.918C53.5168 169.33 53.9213 169.677 54.2812 169.932C54.4607 170.058 54.6603 170.184 54.871 170.284C55.0595 170.372 55.3802 170.5 55.7699 170.5H122.801C123.302 170.5 123.945 170.42 124.497 170.03C125.145 169.572 125.409 168.88 125.409 168.218V166.261C125.409 164.175 124.607 162.449 123.112 161.147C124.464 158.766 125.519 156.664 126.266 154.847C127.121 152.768 127.625 150.936 127.625 149.435C127.625 147.634 126.911 145.321 125.693 142.609C124.604 140.183 123.051 137.307 121.047 133.989C121.306 133.792 121.542 133.566 121.751 133.308C122.371 132.541 122.639 131.621 122.639 130.652V130.478L122.599 130.308C122.267 128.898 121.617 127.685 120.549 126.836C119.691 126.154 118.666 125.79 117.548 125.673C112.236 117.473 108.169 109.068 105.34 100.456H107.29C108.983 100.456 110.512 100.082 111.756 99.2033C113.013 98.3157 113.83 97.0184 114.273 95.4523L114.33 95.2519V95.0436V94.2606C114.33 91.4714 111.963 89.6922 108.925 88.552L108.67 88.4564H108.398H106.574V84.0665C107.445 83.4085 108.168 82.7615 108.71 82.1235C109.357 81.3617 109.898 80.4352 109.898 79.3915V79.1958L109.848 79.0066C109.552 77.8926 109.172 76.9113 108.653 76.1769C108.621 76.1316 108.587 76.0866 108.553 76.042C111.268 73.113 112.668 69.6491 112.668 65.6957V64.1303C112.668 63.0386 112.164 61.8153 111.471 60.5827C110.748 59.2971 109.691 57.7857 108.329 56.0597C105.778 52.8291 102.062 48.7316 97.2026 43.7775C97.5233 43.4094 97.8024 43.0416 98.0338 42.6739C98.4938 41.9429 98.8182 41.1273 98.8182 40.2608V38.6956C98.8182 36.7928 97.7985 35.3253 96.1562 34.331C94.5902 33.3829 92.3984 32.8123 89.7317 32.5096ZM75.816 100.72C75.8159 100.72 75.8136 100.719 75.8094 100.717C75.8139 100.719 75.816 100.72 75.816 100.72Z" fill="#876445" stroke="black" stroke-width="3"/>
<path d="M55.7699 169C55.4929 169 54.9389 168.609 54.108 167.826C54.108 165.022 55.2159 162.805 57.4318 161.174C54.4773 157 53 153.478 53 150.608V147.87C53 144.609 55.5853 139.913 60.7558 133.782C59.2786 133.326 58.5398 132.413 58.5398 131.044V130.652C58.5398 128.957 60.3862 127.522 64.0796 126.348C72.5739 115.326 76.8208 106.457 76.8208 99.7394C76.8208 99.2174 74.9746 98.8259 71.2812 98.5654C69.0656 97.3915 67.9574 96.0871 67.9574 94.6521C67.9574 91.5218 70.3582 89.9564 75.1591 89.9564L74.6051 87.2176V82.5218C72.7584 82.5218 71.8353 81.6089 71.8353 79.7824V79C71.8353 78.1523 72.3894 77.2394 73.4969 76.2606C70.1731 72.6089 68.5115 69.2176 68.5115 66.0867V64.1303C68.7882 61.0652 70.4987 58.522 76.5 53.5L85 57C84.6304 56.4783 78.4829 51.0869 78.4829 50.8261C78.4829 50.5652 80.6986 48.2174 85.1306 43.7826C83.6534 42.6739 82.9149 41.3696 82.9149 39.8696V38.6956C83.8379 35.5652 86.0542 34 89.5625 34V169H55.7699Z" fill="#CA965C"/>
</svg>
