<svg width="180" height="180" viewBox="0 0 180 180" fill="none" xmlns="http://www.w3.org/2000/svg">
<path d="M102.337 49.5H102.021L101.732 49.6273C100.075 50.3574 98.6934 51.1914 97.7146 52.1756L92.4658 51.8345L92.4172 51.8314H92.3685H88.3815C82.214 51.8314 75.8433 53.4574 69.2843 56.645L69.2455 56.6638L69.2079 56.6849C55.9356 64.1054 49.5 78.2107 49.5 98.4053C49.5 111.256 52.0085 121.894 57.1417 130.213C56.9 130.373 56.6722 130.563 56.4606 130.783C55.6913 131.582 55.2508 132.667 55.0118 133.859L54.9826 134.005V134.154V134.542C54.9826 135.366 55.139 136.197 55.5938 136.906C55.6574 137.005 55.7251 137.1 55.7966 137.189C53.9239 139.568 52.4548 141.778 51.4099 143.815C50.1867 146.199 49.5 148.432 49.5 150.474V151.639C49.5 154.986 50.5772 158.22 52.6368 161.321C51.2268 163.321 50.3386 165.466 50.0134 167.748L49.9102 168.472L50.4177 169C50.8116 169.409 51.1797 169.759 51.5107 170.017C51.6755 170.145 51.8642 170.277 52.0682 170.383C52.2463 170.476 52.5781 170.625 52.9937 170.625H115.794H116.161L116.486 170.456L117.981 169.678L118.789 169.258V168.348C118.789 165.607 118.016 163.319 116.304 161.751C118.242 158.488 119.288 155.367 119.288 152.417V150.474C119.288 146.967 117.313 142.59 113.778 137.458C114.058 137.165 114.305 136.877 114.512 136.595C114.909 136.053 115.301 135.345 115.301 134.542V134.358L115.256 134.179C114.928 132.864 114.396 131.704 113.554 130.86C113.103 130.408 112.589 130.074 112.028 129.856C112.742 125.518 113.288 122.085 113.664 119.561C114.071 116.835 114.304 115.028 114.304 114.337C114.304 113.848 114.109 113.452 113.973 113.22C113.821 112.961 113.626 112.715 113.424 112.488C113.019 112.034 112.454 111.517 111.767 110.947C110.405 109.819 108.406 108.358 105.795 106.575C101.073 101.771 97.5754 97.5073 95.2633 93.7779C94.2388 92.1255 93.462 90.602 92.9124 89.2029C94.4077 89.9972 96.3294 90.5603 98.5957 90.9469L98.8453 90.9895L99.095 90.9478C103.783 90.1649 106.64 89.8028 107.82 89.8028H111.308C113.193 89.8028 115.882 90.7736 119.474 93.0644L119.843 93.2998H120.28H122.274H122.829L123.25 92.9384C125.78 90.7693 127.735 88.815 129.07 87.0804C130.367 85.3942 131.25 83.6997 131.25 82.0854V81.3086C131.25 80.1255 130.703 79.0265 129.931 78.048L129.793 77.8733L129.611 77.7462C123.514 73.5001 119.48 70.483 117.437 68.6631C115.427 65.6335 113.621 63.159 112.021 61.2549C110.709 59.6938 109.485 58.4542 108.354 57.6109C108.37 57.4403 108.391 57.3012 108.414 57.1907C108.429 57.1218 108.443 57.0741 108.453 57.0433L108.821 56.6844V56.0514C108.821 53.2289 106.904 51.1416 104.017 49.6646L103.695 49.5H103.334H102.337Z" fill="#EEC373" stroke="black" stroke-width="3"/>
<path d="M52.9937 169.125C52.7445 169.125 52.246 168.736 51.4984 167.96C51.8307 165.628 52.8275 163.426 54.4889 161.354C52.163 158.18 51 154.942 51 151.639V150.474C51 147.041 53.3259 142.508 57.9778 136.873C56.9811 136.615 56.4826 135.837 56.4826 134.542V134.154C56.8978 132.082 57.8946 131.045 59.4729 131.045C53.8244 122.821 51 111.941 51 98.4053C51 78.5237 57.3135 65.0535 69.9399 57.9941C76.3361 54.8857 82.4831 53.3314 88.3815 53.3314C58.2867 76.3965 73.1837 114.751 84.394 131.045V169.125H52.9937Z" fill="#F4DFBA"/>
</svg>
