<svg width="180" height="180" viewBox="0 0 180 180" fill="none" xmlns="http://www.w3.org/2000/svg">
<mask id="path-1-outside-1_3_86" maskUnits="userSpaceOnUse" x="45" y="13" width="91" height="159" fill="black">
<rect fill="white" x="45" y="13" width="91" height="159"/>
<path d="M100.711 37.146C103.947 34.9448 106 31.6642 106 28C106 21.3726 99.2843 16 91 16C82.7157 16 76 21.3726 76 28C76 31.517 77.8912 34.6806 80.9045 36.8754C77.58 38.4751 74.8071 39.275 72.5863 39.275C67.7432 37.655 64.9493 36.845 64.2045 36.845C58.9892 36.845 56.0091 39.005 55.2641 43.325L56.3816 46.16C68.6747 53.5175 74.8211 63.2375 74.8211 75.32V75.725H68.6747C65.5084 75.725 63.273 77.48 61.9691 80.99V82.205C61.9691 84.095 63.6459 85.715 66.9984 87.065H76.4974C76.4974 100.632 70.9095 114.808 59.7343 129.59C56.0091 130.94 54.1466 132.425 54.1466 134.045C54.8916 135.665 55.6366 136.475 56.3816 136.475C50.7939 142.145 48 146.87 48 150.65C48 154.16 49.4901 157.805 52.4702 161.585C50.2351 162.665 49.1176 164.285 49.1176 166.445V168.065C49.1176 168.605 49.4901 168.875 50.2351 168.875H130.14C130.885 168.875 131.257 168.605 131.257 168.065V165.635C131.257 164.015 130.14 162.665 127.905 161.585C130.885 158.48 132.375 155.375 132.375 152.27V151.46C132.375 147.072 129.953 142.077 125.111 136.475C126.601 136.475 127.346 135.665 127.346 134.045V133.64C127.346 131.885 125.856 130.67 122.876 129.995C111.328 115.212 105.554 101.037 105.554 87.47V87.065H112.818C115.891 87.065 117.94 85.445 118.964 82.205C118.964 78.6275 116.543 76.4675 111.7 75.725H107.23C107.23 67.22 110.396 59.39 116.729 52.235C123.435 47.915 126.787 44.945 126.787 43.325C125.577 39.005 122.783 36.845 118.406 36.845C117.567 36.845 114.401 37.655 108.906 39.275C104.923 38.2251 102.191 37.5154 100.711 37.146Z"/>
</mask>
<path d="M100.711 37.146C103.947 34.9448 106 31.6642 106 28C106 21.3726 99.2843 16 91 16C82.7157 16 76 21.3726 76 28C76 31.517 77.8912 34.6806 80.9045 36.8754C77.58 38.4751 74.8071 39.275 72.5863 39.275C67.7432 37.655 64.9493 36.845 64.2045 36.845C58.9892 36.845 56.0091 39.005 55.2641 43.325L56.3816 46.16C68.6747 53.5175 74.8211 63.2375 74.8211 75.32V75.725H68.6747C65.5084 75.725 63.273 77.48 61.9691 80.99V82.205C61.9691 84.095 63.6459 85.715 66.9984 87.065H76.4974C76.4974 100.632 70.9095 114.808 59.7343 129.59C56.0091 130.94 54.1466 132.425 54.1466 134.045C54.8916 135.665 55.6366 136.475 56.3816 136.475C50.7939 142.145 48 146.87 48 150.65C48 154.16 49.4901 157.805 52.4702 161.585C50.2351 162.665 49.1176 164.285 49.1176 166.445V168.065C49.1176 168.605 49.4901 168.875 50.2351 168.875H130.14C130.885 168.875 131.257 168.605 131.257 168.065V165.635C131.257 164.015 130.14 162.665 127.905 161.585C130.885 158.48 132.375 155.375 132.375 152.27V151.46C132.375 147.072 129.953 142.077 125.111 136.475C126.601 136.475 127.346 135.665 127.346 134.045V133.64C127.346 131.885 125.856 130.67 122.876 129.995C111.328 115.212 105.554 101.037 105.554 87.47V87.065H112.818C115.891 87.065 117.94 85.445 118.964 82.205C118.964 78.6275 116.543 76.4675 111.7 75.725H107.23C107.23 67.22 110.396 59.39 116.729 52.235C123.435 47.915 126.787 44.945 126.787 43.325C125.577 39.005 122.783 36.845 118.406 36.845C117.567 36.845 114.401 37.655 108.906 39.275C104.923 38.2251 102.191 37.5154 100.711 37.146Z" fill="#876445"/>
<path d="M100.711 37.146L99.0239 34.6654L93.484 38.4338L99.9846 40.0566L100.711 37.146ZM80.9045 36.8754L82.2053 39.5787L86.7252 37.4038L82.6708 34.4505L80.9045 36.8754ZM72.5863 39.275L71.6347 42.1201L72.0979 42.275H72.5863V39.275ZM55.2641 43.325L52.3077 42.8151L52.1649 43.6433L52.4731 44.4252L55.2641 43.325ZM56.3816 46.16L53.5907 47.2602L53.9651 48.2099L54.841 48.7342L56.3816 46.16ZM74.8211 75.725V78.725H77.8211V75.725H74.8211ZM61.9691 80.99L59.1569 79.9453L58.9691 80.4508V80.99H61.9691ZM66.9984 87.065L65.8778 89.8478L66.4171 90.065H66.9984V87.065ZM76.4974 87.065H79.4974V84.065H76.4974V87.065ZM59.7343 129.59L60.7564 132.411L61.5917 132.108L62.1274 131.399L59.7343 129.59ZM54.1466 134.045H51.1466V134.702L51.421 135.298L54.1466 134.045ZM56.3816 136.475L58.5184 138.581L63.5501 133.475H56.3816V136.475ZM52.4702 161.585L53.7754 164.286L57.1387 162.661L54.8261 159.728L52.4702 161.585ZM127.905 161.585L125.74 159.508L122.88 162.488L126.599 164.286L127.905 161.585ZM125.111 136.475V133.475H118.552L122.841 138.437L125.111 136.475ZM122.876 129.995L120.512 131.842L121.17 132.685L122.213 132.921L122.876 129.995ZM105.554 87.065V84.065H102.554V87.065H105.554ZM118.964 82.205L121.825 83.1093L121.964 82.6679V82.205H118.964ZM111.7 75.725L112.155 72.7597L111.929 72.725H111.7V75.725ZM107.23 75.725H104.23V78.725H107.23V75.725ZM116.729 52.235L115.104 49.7131L114.757 49.937L114.483 50.2467L116.729 52.235ZM126.787 43.325H129.787V42.9126L129.676 42.5156L126.787 43.325ZM108.906 39.275L108.142 42.1759L108.952 42.3894L109.755 42.1525L108.906 39.275ZM103 28C103 30.4683 101.622 32.8983 99.0239 34.6654L102.399 39.6265C106.272 36.9914 109 32.8601 109 28H103ZM91 19C98.2867 19 103 23.6195 103 28H109C109 19.1256 100.282 13 91 13V19ZM79 28C79 23.6195 83.7133 19 91 19V13C81.7182 13 73 19.1256 73 28H79ZM82.6708 34.4505C80.2692 32.7012 79 30.3721 79 28H73C73 32.6618 75.5133 36.6599 79.1382 39.3003L82.6708 34.4505ZM72.5863 42.275C75.4608 42.275 78.7101 41.2606 82.2053 39.5787L79.6036 34.1721C76.4499 35.6897 74.1534 36.275 72.5863 36.275V42.275ZM64.2045 39.845C64.0152 39.845 64.0313 39.819 64.4779 39.9212C64.8417 40.0045 65.3512 40.139 66.0232 40.3339C67.3627 40.7222 69.2276 41.3149 71.6347 42.1201L73.538 36.4299C71.1019 35.6151 69.1483 34.9928 67.6939 34.5711C66.9689 34.361 66.3376 34.1917 65.8167 34.0725C65.3786 33.9722 64.7662 33.845 64.2045 33.845V39.845ZM58.2204 43.8349C58.4871 42.2886 59.0807 41.4288 59.8185 40.8941C60.6228 40.3111 61.9741 39.845 64.2045 39.845V33.845C61.2196 33.845 58.4732 34.4589 56.2974 36.0359C54.0551 37.6612 52.7861 40.0414 52.3077 42.8151L58.2204 43.8349ZM59.1726 45.0598L58.055 42.2248L52.4731 44.4252L53.5907 47.2602L59.1726 45.0598ZM77.8211 75.32C77.8211 61.9707 70.9227 51.3667 57.9223 43.5858L54.841 48.7342C66.4267 55.6683 71.8211 64.5043 71.8211 75.32H77.8211ZM77.8211 75.725V75.32H71.8211V75.725H77.8211ZM68.6747 78.725H74.8211V72.725H68.6747V78.725ZM64.7814 82.0347C65.3004 80.6374 65.911 79.8446 66.4761 79.4008C67.0049 78.9857 67.6822 78.725 68.6747 78.725V72.725C66.5008 72.725 64.4773 73.3418 62.7708 74.6817C61.1008 75.9929 59.9417 77.8326 59.1569 79.9453L64.7814 82.0347ZM64.9691 82.205V80.99H58.9691V82.205H64.9691ZM68.119 84.2822C66.6252 83.6806 65.7614 83.1152 65.3112 82.6801C65.0996 82.4757 65.0186 82.3375 64.9905 82.2788C64.968 82.2317 64.9691 82.2168 64.9691 82.205H58.9691C58.9691 84.1461 59.8645 85.7605 61.142 86.9949C62.3683 88.1799 64.0192 89.0994 65.8778 89.8478L68.119 84.2822ZM76.4974 84.065H66.9984V90.065H76.4974V84.065ZM62.1274 131.399C73.5544 116.284 79.4974 101.487 79.4974 87.065H73.4974C73.4974 99.7778 68.2646 113.331 57.3412 127.781L62.1274 131.399ZM57.1466 134.045C57.1466 134.515 56.8492 134.512 57.4137 134.062C57.9766 133.613 59.0254 133.038 60.7564 132.411L58.7122 126.77C56.718 127.492 54.9729 128.334 53.6733 129.371C52.3752 130.405 51.1466 131.955 51.1466 134.045H57.1466ZM56.3816 133.475C56.7615 133.475 57.0637 133.583 57.2557 133.687C57.431 133.783 57.4979 133.865 57.4721 133.837C57.4488 133.811 57.3757 133.724 57.2628 133.54C57.1519 133.359 57.0204 133.114 56.8721 132.792L51.421 135.298C51.8538 136.24 52.3814 137.165 53.0561 137.898C53.7236 138.624 54.8374 139.475 56.3816 139.475V133.475ZM51 150.65C51 149.487 51.4381 147.895 52.6778 145.798C53.9083 143.717 55.8265 141.312 58.5184 138.581L54.2449 134.369C51.349 137.308 49.0764 140.1 47.5131 142.744C45.9588 145.373 45 148.033 45 150.65H51ZM54.8261 159.728C52.1099 156.282 51 153.274 51 150.65H45C45 155.045 46.8702 159.328 50.1143 163.442L54.8261 159.728ZM52.1176 166.445C52.1176 165.911 52.2456 165.574 52.4252 165.314C52.6212 165.029 53.0055 164.658 53.7754 164.286L51.165 158.884C49.6998 159.592 48.4077 160.571 47.4863 161.907C46.5483 163.266 46.1176 164.819 46.1176 166.445H52.1176ZM52.1176 168.065V166.445H46.1176V168.065H52.1176ZM50.2351 165.875C50.1355 165.875 50.6022 165.841 51.1576 166.243C51.4678 166.468 51.7372 166.784 51.913 167.166C52.0813 167.532 52.1176 167.857 52.1176 168.065H46.1176C46.1176 169.106 46.5293 170.299 47.6363 171.102C48.5642 171.774 49.5897 171.875 50.2351 171.875V165.875ZM130.14 165.875H50.2351V171.875H130.14V165.875ZM128.257 168.065C128.257 167.857 128.294 167.532 128.462 167.166C128.638 166.784 128.907 166.468 129.217 166.243C129.773 165.841 130.24 165.875 130.14 165.875V171.875C130.785 171.875 131.811 171.774 132.739 171.102C133.846 170.299 134.257 169.106 134.257 168.065H128.257ZM128.257 165.635V168.065H134.257V165.635H128.257ZM126.599 164.286C127.479 164.711 127.914 165.086 128.108 165.321C128.261 165.505 128.257 165.583 128.257 165.635H134.257C134.257 162.311 131.867 160.168 129.21 158.884L126.599 164.286ZM129.375 152.27C129.375 154.343 128.394 156.743 125.74 159.508L130.069 163.662C133.376 160.217 135.375 156.407 135.375 152.27H129.375ZM129.375 151.46V152.27H135.375V151.46H129.375ZM122.841 138.437C127.511 143.84 129.375 148.146 129.375 151.46H135.375C135.375 145.999 132.396 140.315 127.381 134.513L122.841 138.437ZM124.346 134.045C124.346 134.452 124.247 134.197 124.58 133.836C124.745 133.656 124.93 133.552 125.067 133.503C125.186 133.459 125.22 133.475 125.111 133.475V139.475C126.386 139.475 127.874 139.117 128.995 137.899C130.072 136.728 130.346 135.258 130.346 134.045H124.346ZM124.346 133.64V134.045H130.346V133.64H124.346ZM122.213 132.921C123.49 133.21 124.098 133.546 124.333 133.738C124.429 133.816 124.417 133.832 124.385 133.77C124.371 133.742 124.36 133.71 124.353 133.679C124.346 133.65 124.346 133.634 124.346 133.64H130.346C130.346 131.767 129.492 130.203 128.125 129.087C126.87 128.064 125.243 127.455 123.539 127.069L122.213 132.921ZM102.554 87.47C102.554 101.922 108.707 116.731 120.512 131.842L125.24 128.148C113.949 113.694 108.554 100.153 108.554 87.47H102.554ZM102.554 87.065V87.47H108.554V87.065H102.554ZM112.818 84.065H105.554V90.065H112.818V84.065ZM116.104 81.3007C115.719 82.519 115.23 83.1561 114.799 83.4967C114.394 83.8169 113.803 84.065 112.818 84.065V90.065C114.906 90.065 116.876 89.5032 118.52 88.2033C120.138 86.9239 121.186 85.131 121.825 83.1093L116.104 81.3007ZM111.246 78.6903C113.366 79.0155 114.542 79.5968 115.151 80.1406C115.654 80.5893 115.964 81.1733 115.964 82.205H121.964C121.964 79.6592 121.064 77.3745 119.145 75.6632C117.334 74.0469 114.877 73.177 112.155 72.7597L111.246 78.6903ZM107.23 78.725H111.7V72.725H107.23V78.725ZM114.483 50.2467C107.729 57.8777 104.23 66.396 104.23 75.725H110.23C110.23 68.044 113.064 60.9024 118.976 54.2233L114.483 50.2467ZM123.787 43.325C123.787 42.7705 124.031 42.6198 123.736 43.0236C123.495 43.354 123.041 43.8506 122.283 44.5219C120.777 45.8566 118.411 47.5826 115.104 49.7131L118.354 54.7569C121.752 52.5674 124.416 50.6484 126.262 49.0131C127.18 48.1994 127.984 47.3797 128.581 46.5626C129.124 45.8189 129.787 44.6895 129.787 43.325H123.787ZM118.406 39.845C120.093 39.845 121.193 40.2539 121.949 40.8384C122.712 41.4284 123.42 42.4261 123.898 44.1345L129.676 42.5156C128.944 39.9039 127.649 37.6616 125.619 36.0916C123.581 34.5161 121.096 33.845 118.406 33.845V39.845ZM109.755 42.1525C112.489 41.3464 114.614 40.7507 116.146 40.3589C116.913 40.1625 117.505 40.0244 117.935 39.9373C118.439 39.8354 118.529 39.845 118.406 39.845V33.845C117.864 33.845 117.243 33.9558 116.746 34.0564C116.175 34.1719 115.474 34.3375 114.659 34.5461C113.024 34.9643 110.818 35.5836 108.058 36.3975L109.755 42.1525ZM99.9846 40.0566C101.443 40.4207 104.157 41.1256 108.142 42.1759L109.671 36.3741C105.689 35.3246 102.94 34.6102 101.438 34.2353L99.9846 40.0566Z" fill="black" mask="url(#path-1-outside-1_3_86)"/>
<path d="M80.9045 36.8754C77.8912 34.6806 76 31.517 76 28C76 21.5907 82.281 16.355 90.1874 16.0173V168.875H50.2351C49.4901 168.875 49.1176 168.605 49.1176 168.065V166.445C49.1176 164.285 50.2351 162.665 52.4702 161.585C49.4901 157.805 48 154.16 48 150.65C48 146.87 50.7939 142.145 56.3816 136.475C55.6366 136.475 54.8916 135.665 54.1466 134.045C54.1466 132.425 56.0091 130.94 59.7343 129.59C70.9095 114.808 76.4974 100.632 76.4974 87.065H66.9984C63.6459 85.715 61.9691 84.095 61.9691 82.205V80.99C63.273 77.48 65.5084 75.725 68.6747 75.725H74.8211V75.32C74.8211 63.2375 68.6747 53.5175 56.3816 46.16L55.2641 43.325C56.0091 39.005 58.9892 36.845 64.2045 36.845C64.9493 36.845 67.7432 37.655 72.5863 39.275C74.8071 39.275 77.58 38.4751 80.9045 36.8754Z" fill="#CA965C"/>
</svg>
