<svg width="180" height="180" viewBox="0 0 180 180" fill="none" xmlns="http://www.w3.org/2000/svg">
<path d="M53.2734 55.5H53.0098L52.762 55.5899L51.7073 55.9724L50.7188 56.3309V57.3825C50.7188 64.9514 54.3671 71.904 61.3205 78.2345C61.1182 78.4062 60.9287 78.5994 60.7529 78.812C60.0195 79.6988 59.5313 80.9047 59.1981 82.2859L59.1562 82.4593V82.6376C59.1562 84.3301 60.0008 85.6772 61.4075 86.613C62.4167 87.2843 63.7212 87.7547 65.2529 88.0734C64.9736 89.8668 64.5268 93.0266 63.9161 97.502C63.0686 103.713 61.8947 112.545 60.3946 123.995H59.0742H58.8237L58.5868 124.076C56.6727 124.734 55.1376 125.805 54.1266 127.354L53.8828 127.728V128.174V130.469V130.897L54.108 131.26C54.5051 131.9 54.9738 132.484 55.5211 132.937C52.8249 136.025 50.7214 138.766 49.232 141.155C47.5264 143.891 46.5 146.359 46.5 148.454V150.75C46.5 153.763 48.0176 157.155 50.704 160.859C48.3598 163.045 47.0273 165.542 47.0273 168.352C47.0273 168.936 47.1587 169.654 47.6864 170.228C48.2363 170.826 48.9652 171 49.582 171H130.266H130.529L130.777 170.91L131.832 170.528L132.82 170.169V169.117C132.82 165.804 131.571 163.092 129.136 161.087C130.545 158.872 131.649 156.85 132.434 155.026C133.354 152.89 133.875 150.939 133.875 149.22C133.875 147.06 132.988 144.53 131.451 141.71C130.011 139.067 127.929 136.04 125.228 132.636C125.606 132.223 125.922 131.857 126.17 131.541C126.367 131.292 126.547 131.042 126.685 130.804C126.782 130.637 127.019 130.217 127.019 129.704C127.019 127.798 126.093 126.286 124.466 125.274C123.209 124.492 121.549 124.01 119.581 123.753C119.445 121.673 119.058 118.104 118.439 113.113C117.683 107.018 116.567 98.7063 115.092 88.1801C117.162 87.7618 118.934 86.5662 120.377 84.7046L120.691 84.2989V83.7857V81.4896V81.1619L120.554 80.864C120.389 80.5041 120.136 80.1941 119.907 79.9498C119.662 79.6891 119.364 79.4179 119.028 79.1393C118.723 78.8865 118.371 78.6137 117.972 78.3214C125.251 72.0363 129.129 65.3147 129.129 58.1481C129.129 57.5648 128.998 56.8471 128.47 56.2725C127.92 55.6737 127.191 55.5 126.575 55.5H107.59H107.327L107.079 55.5898L106.024 55.9723L104.902 56.3788L105.046 57.5629C105.397 60.464 105.661 62.6766 105.836 64.2026C105.873 64.5211 105.905 64.8089 105.934 65.0664H100.178C100.298 63.2467 100.618 60.9119 101.154 58.0411L101.365 56.9145L100.333 56.4153L98.7507 55.6497L98.4412 55.5H98.0974H81.75H81.4061L81.0965 55.6498L79.5148 56.4154L78.5157 56.8989L78.686 57.9958C79.1836 61.1997 79.4937 63.5411 79.6341 65.0664H73.8538C73.9977 63.5736 74.306 61.2314 74.7957 57.9896L74.8125 57.8782V57.7656C74.8125 57.0779 74.5073 56.4444 73.9301 56.0253C73.4386 55.6685 72.8626 55.5486 72.3929 55.5061L72.3255 55.5H72.2578H53.2734Z" fill="#876445" stroke="black" stroke-width="3"/>
<path d="M53.2734 57H72.2578C72.9609 57.0636 73.3125 57.3189 73.3125 57.7656C72.6094 62.4208 72.2578 65.3548 72.2578 66.5664H81.2224C81.2224 65.2271 80.8714 62.2931 80.1682 57.7656L81.75 57H89.9237V169.5H49.582C48.8789 169.5 48.5273 169.117 48.5273 168.352C48.5273 165.737 49.9336 163.314 52.7461 161.082C49.582 157 48 153.556 48 150.75V148.454C48 145.138 51.3398 139.781 58.0195 132.383C57.0528 132.383 56.1739 131.745 55.3828 130.469V128.174C56.1739 126.961 57.4043 126.069 59.0742 125.495H61.7109C64.875 101.324 66.6328 88.4415 66.9844 86.8468C62.7656 86.2731 60.6562 84.8696 60.6562 82.6376C61.2716 80.0867 62.3263 78.8115 63.8203 78.8115V78.4284C56.0859 71.9237 52.2188 64.9082 52.2188 57.3825L53.2734 57Z" fill="#CA965C"/>
</svg>
