<svg width="144" height="144" viewBox="0 0 144 144" fill="none" xmlns="http://www.w3.org/2000/svg">
<path d="M48.5953 56.1087H47.5953V57.1087V62.8535V63.8535H48.5953H57.2917L41.897 121.381H30.1512H29.1512V122.381V130.091V131.091H30.1512H35.5386V131.472H30H29V132.472V140.183V141.183H30H113.792H114.792V140.183V132.472V131.472H113.792H108.783V131.091H113.943H114.943V130.091V122.381V121.381H113.943H101.781L84.8674 63.8535H93.9496H94.9496V62.8535V57.1087V56.1087H93.9496H87.5671C88.0658 54.8361 88.5269 53.4199 88.9445 51.8471C93.2239 35.7272 83.6859 25.6711 77.0421 20.8528C78.016 19.7884 78.6221 18.4349 78.6221 16.9323C78.6221 13.2205 75.0375 10.5276 71.0457 10.5276C67.0538 10.5276 63.4693 13.2205 63.4693 16.9323C63.4693 18.4031 64.0502 19.7315 64.9885 20.7855C58.3193 25.5625 48.583 35.6472 52.9205 51.8864C53.3363 53.443 53.7947 54.8462 54.2901 56.1087H48.5953Z" fill="#FFF7BC" stroke="#111111" stroke-width="2"/>
<path d="M75.8929 16.5543C75.8929 14.2488 74.2677 12.2079 74.2677 12.2079C81.1465 16.5543 75.3638 21.0142 75.3638 21.0142C75.3638 21.0142 75.8929 18.8598 75.8929 16.5543Z" fill="#B5E09C"/>
<path d="M75.3638 21.0142H75.2882C75.2882 21.0142 80.6173 26.7968 82.6205 31.1811C84.6614 35.5276 85.0016 39.2315 84.6236 45.0898C84.3619 48.7776 82.7223 50.8778 81.6375 52.2672C80.9991 53.085 80.5529 53.6565 80.6929 54.1606C81.0709 55.4835 81.1465 57.0709 81.1465 57.0709L81.789 62.8157H93.9213V57.0709H86.022C86.022 57.0709 87.9874 53.8205 88.5921 48.6047C88.6193 48.37 88.6463 48.1405 88.6728 47.9155C89.234 43.1417 89.5538 40.4218 86.7024 33.6C83.7165 26.4567 75.3638 21.0142 75.3638 21.0142Z" fill="#B5E09C"/>
<path d="M95.6598 130.091L36.548 130.091V132.472H95.6598V140.183H113.839V132.472L107.792 132.472V130.091L113.991 130.091V122.381H101.102L83.5276 62.8535H58.2425L80.6929 68.3717L92.485 122.381L95.6598 130.091Z" fill="#B5E09C"/>
</svg>
