<svg width="144" height="144" viewBox="0 0 144 144" fill="none" xmlns="http://www.w3.org/2000/svg">
<path d="M62.0698 23.6092C62.0671 23.6139 62.0664 23.614 62.0686 23.6114C62.0692 23.6108 62.0697 23.6103 62.0702 23.6098L62.0698 23.6092ZM62.0698 23.6092L62.0697 23.609C62.0698 23.6089 62.0699 23.6089 62.07 23.6088L62.0698 23.6092ZM31.1021 51.3421L31.0999 51.3442C29.6944 52.6304 28.6126 53.6338 27.8299 54.463C27.0582 55.2806 26.4865 56.0197 26.2032 56.7885C25.8947 57.6258 25.9623 58.3952 26.2393 59.1718C26.4874 59.8674 26.9284 60.63 27.4227 61.4845L27.4631 61.5543C27.6837 61.9359 27.9228 62.3494 28.1787 62.8086C31.1712 68.25 38.0884 70.4923 44.4497 68.652L44.4513 68.6515C45.8524 68.2436 47.6352 67.6516 49.5826 67.005L49.5979 66.9999C53.7481 65.6218 58.67 63.9892 62.629 63.1947C67.3704 63.7114 69.8862 65.4563 71.2194 66.9706C71.9018 67.7457 72.2962 68.4851 72.5183 69.0191C72.592 69.1963 72.6465 69.3505 72.6862 69.4756C72.0097 70.4432 70.9188 71.6552 69.4842 73.0996C67.8825 74.7121 65.9118 76.5564 63.7277 78.6003L63.7262 78.6017C62.1044 80.1193 60.3693 81.743 58.5973 83.4488C56.9775 85.0003 55.3955 86.2963 53.885 87.5333L53.8132 87.5921C50.9271 89.9554 48.2478 92.1492 46.4486 95.4138C44.619 98.7334 43.7507 103.047 44.1946 109.598L44.1947 109.601C44.55 114.669 44.7514 118.487 44.7914 121.419H34.0805H33.0805V122.419V130.129V131.129H34.0805H39.4679V131.51H33.9293H32.9293V132.51V140.22V141.22H33.9293H117.721H118.721V140.22V132.51V131.51H118.684V131.472H117.684H112.75V131.129H117.873H118.873V130.129V122.419V121.419H118.835V121.381H117.835H108.241C107.955 119.901 107.651 118.392 107.345 116.865L107.344 116.86C107.026 115.279 106.705 113.68 106.393 112.066C105.577 107.49 104.709 102.091 104.22 97.4448C103.716 91.1645 104 85.1701 105.837 79.937C105.961 79.5894 106.091 79.244 106.225 78.9002C106.674 77.7743 107.201 76.6868 107.813 75.6425C108.836 73.8948 109.861 71.8949 110.782 69.7054C111.909 67.3898 112.981 64.1831 113.596 60.4934C114.941 53.3905 114.494 45.3974 109.999 37.9119C108.305 34.9581 106.011 32.1321 102.979 29.5781C101.468 28.1892 100.264 27.45 99.9796 27.2832C96.5507 24.7906 92.3988 22.4835 87.4125 20.4297C80.868 17.7341 75.9935 16.0754 72.3727 15.1831C68.7847 14.2988 66.3023 14.1335 64.6135 14.5599C63.7444 14.7794 63.0489 15.1646 62.5382 15.7201C62.0284 16.2748 61.7658 16.9306 61.6465 17.5857C61.4257 18.7989 61.6783 20.1731 61.8738 21.2364C61.8792 21.266 61.8846 21.2954 61.89 21.3246C62.0367 22.1245 62.1445 22.7356 62.1361 23.2015C62.1321 23.4242 62.1008 23.5405 62.0787 23.5913C62.075 23.5998 62.0721 23.6054 62.0701 23.6088C59.8878 24.7482 58.6415 25.3016 57.4729 25.8206L57.4706 25.8217L57.4662 25.8236C56.8365 26.1033 56.2187 26.3776 55.493 26.727C54.8191 27.0504 53.9813 27.7034 53.0741 28.5061C52.143 29.33 51.0598 30.384 49.8814 31.5833C47.5267 33.9795 44.7474 37.0012 41.9719 40.0187L41.9632 40.0281C37.9062 44.4388 33.876 48.819 31.1021 51.3421Z" fill="#FF8080" stroke="#111111" stroke-width="2"/>
<path d="M71.3844 57.1843C64.6947 57.4488 61.4821 62.1354 61.4821 62.1354L61.5199 62.0976C72.6317 62.778 73.7655 69.6567 73.7655 69.6567C73.7655 69.6567 82.7986 67.1622 82.7986 61.4551C82.7986 55.748 74.2191 44.674 74.2191 44.674C74.2191 44.674 78.0364 56.9197 71.3844 57.1843Z" fill="#F85959"/>
<path d="M102.318 30.329C100.681 28.821 99.4285 28.1197 99.4285 28.1197H99.3907C100.438 28.829 101.412 29.5668 102.318 30.329Z" fill="#F85959"/>
<path d="M111.674 130.129V130.091H117.835V122.381H107.366C107.366 122.381 103.775 105.449 102.981 94.8661C102.188 84.2835 105.173 77.7071 109.406 70.1858C113.367 63.049 117.632 43.2108 102.318 30.329C106.545 34.2215 113.339 43.4891 107.781 59.9433C104.453 69.7964 100.055 77.5866 96.3192 84.2041C91.3992 92.9184 87.6273 99.5994 88.9592 106.28C90.5049 114.034 90.1595 117.544 89.9839 119.329C89.8932 120.25 89.8479 120.711 90.1309 121.058C90.9624 122.079 93.6458 122.079 97.501 120.907C100.638 119.954 100.772 121.653 100.896 123.236C100.925 123.598 100.953 123.954 101.016 124.271C101.145 124.902 101.567 127.342 102.042 130.129H40.5057V132.51H102.447C103.106 136.403 103.737 140.183 103.737 140.183H117.684V132.472H111.75V130.129H111.674Z" fill="#F85959"/>
</svg>
