<svg width="32" height="32" viewBox="0 0 32 32" fill="none" xmlns="http://www.w3.org/2000/svg">
<path d="M15.5 6C16.4192 6.10435 16.8788 6.38261 16.8788 6.83478V7.11304C16.8788 7.28696 16.7475 7.49565 16.4848 7.73913C18.3889 9.66377 19.3409 10.8696 19.3409 11.3565V11.6348C19.3409 12.3652 19.0455 12.9913 18.4545 13.513C18.6187 13.513 18.75 13.6986 18.8485 14.0696C18.8485 14.2551 18.6515 14.487 18.2576 14.7652V15.9478H18.8485C19.3737 16.1449 19.6364 16.4 19.6364 16.713V16.8522C19.5051 17.3159 19.1768 17.5478 18.6515 17.5478H17.9621V17.6174C18.4874 19.3101 19.2753 20.9565 20.3258 22.5565C20.7525 22.5565 21.0152 22.7652 21.1136 23.1826C21.1136 23.4261 20.9823 23.5884 20.7197 23.6696C21.5732 25.0493 22 26 22 26.5217C22 26.9507 21.7045 27.6696 21.1136 28.6783C21.4419 28.8754 21.6061 29.1536 21.6061 29.513V29.8609C21.6061 29.9536 21.5404 30 21.4091 30H9.49242C9.44318 30 9.3447 29.9304 9.19697 29.7913C9.19697 29.2928 9.39394 28.8986 9.78788 28.6087C9.26263 27.8667 9 27.2406 9 26.7304V26.2435C9 25.6638 9.4596 24.829 10.3788 23.7391C10.1162 23.658 9.98485 23.4957 9.98485 23.2522V23.1826C9.98485 22.8812 10.3131 22.6261 10.9697 22.4174C12.4798 20.458 13.2348 18.8812 13.2348 17.687C13.2348 17.5942 12.9066 17.5246 12.25 17.4783C11.8561 17.2696 11.6591 17.0377 11.6591 16.7826C11.6591 16.2261 12.0859 15.9478 12.9394 15.9478L12.8409 15.4609V14.6261C12.5126 14.6261 12.3485 14.4638 12.3485 14.1391V14C12.3485 13.8493 12.447 13.687 12.6439 13.513C12.053 12.8638 11.7576 12.2609 11.7576 11.7043V11.3565C11.8068 10.8116 12.3649 10.0928 13.4318 9.2H13.6288C13.5631 9.10725 13.5303 9.03768 13.5303 8.9913C13.5303 8.94493 13.9242 8.52754 14.7121 7.73913C14.4495 7.54203 14.3182 7.31015 14.3182 7.04348V6.83478C14.4823 6.27826 14.8763 6 15.5 6Z" fill="black"/>
</svg>
