<svg width="32" height="32" viewBox="0 0 32 32" fill="none" xmlns="http://www.w3.org/2000/svg">
<path d="M16.0959 3H16.2877C17.1187 3.08889 17.5342 3.22222 17.5342 3.4L16.7671 4.13333V4.33333C17.0868 4.33333 17.5023 4.15556 18.0137 3.8H18.1096C18.4932 3.95556 18.6849 4.31111 18.6849 4.86667C18.6849 5.35556 18.4932 5.68889 18.1096 5.86667H18.0137C17.4224 5.46667 17.0068 5.26667 16.7671 5.26667C16.7671 5.31111 16.7352 5.33333 16.6712 5.33333C16.7671 5.56667 17.0548 5.85556 17.5342 6.2V6.33333L17.4384 6.46667C18.3333 6.46667 18.7808 6.71111 18.7808 7.2C20.0913 7.2 20.9224 7.4 21.274 7.8C21.5936 8.11111 21.7534 8.4 21.7534 8.66667V9C21.7534 9.35556 20.8265 10.4667 18.9726 12.3333V12.4667C18.9726 12.7667 19.0046 13.4556 19.0685 14.5333H19.3562C19.8995 14.5333 20.2831 14.8444 20.5068 15.4667V15.5333C20.347 16.0667 19.9635 16.3333 19.3562 16.3333H18.4932V16.5333C18.4932 18.6778 19.484 21.0111 21.4658 23.5333C21.8014 23.5333 22.0251 23.7333 22.137 24.1333V24.2667C21.9772 24.4889 21.8493 24.6 21.7534 24.6C22.5845 25.5556 23 26.3778 23 27.0667C23 27.6333 22.7443 28.2111 22.2329 28.8C22.6164 28.9556 22.8082 29.2222 22.8082 29.6V29.8667C22.8082 29.9556 22.7443 30 22.6164 30H9.38356C9.28767 30 9.19178 29.9333 9.09589 29.8C9.09589 29.3889 9.28767 29.0333 9.67123 28.7333C9.22374 28.1667 9 27.6556 9 27.2V26.8C9 26.2 9.44749 25.4667 10.3425 24.6C10.1507 24.4333 10.0548 24.2778 10.0548 24.1333V23.9333C10.0548 23.8778 10.3425 23.6778 10.9178 23.3333C12.6438 20.7778 13.5068 18.4444 13.5068 16.3333H12.5479C12.0205 16.3333 11.637 16.0444 11.3973 15.4667C11.3973 14.9556 11.9087 14.6222 12.9315 14.4667V14.3333C12.9315 14.0222 12.9635 13.3778 13.0274 12.4C11.1096 10.5 10.1507 9.3 10.1507 8.8C10.1507 8.07778 10.726 7.56667 11.8767 7.26667C12.7717 7.23333 13.2192 7.18889 13.2192 7.13333C13.2192 6.68889 13.7306 6.46667 14.7534 6.46667L14.6575 6.33333C14.6575 6.23333 14.9132 5.92222 15.4247 5.4V5.26667C15.121 5.26667 14.7055 5.44444 14.1781 5.8H13.9863C13.7626 5.8 13.6027 5.55556 13.5068 5.06667V4.6C13.5068 4.25556 13.6667 3.98889 13.9863 3.8H14.1781C14.6895 4.15556 15.105 4.35556 15.4247 4.4V4.33333C15.4247 4.11111 15.1689 3.82222 14.6575 3.46667V3.33333C14.6575 3.16667 15.137 3.05556 16.0959 3Z" fill="black"/>
</svg>
