<svg width="32" height="32" viewBox="0 0 32 32" fill="none" xmlns="http://www.w3.org/2000/svg">
<path d="M15.5312 12H16.4688C17.7031 12 18.7031 12.5756 19.4688 13.7269C19.5938 13.9262 19.6562 14.214 19.6562 14.5904V14.7232C19.6562 15.4096 19.2188 16.0517 18.3438 16.6494H19.2812C19.9531 16.6494 20.3906 17.0037 20.5938 17.7122V17.845C20.3438 18.4649 19.9062 18.7749 19.2812 18.7749H18.0625V18.8413C18.5312 20.4908 19.2812 22.107 20.3125 23.69C20.4688 23.8672 20.75 24.0664 21.1562 24.2878L21.25 24.6199V24.6863C21.1406 24.8635 21.0156 24.952 20.875 24.952V25.0185C21.625 25.8266 22 26.5572 22 27.2103C22 27.7306 21.7812 28.2841 21.3438 28.8708C21.5312 28.8708 21.6875 29.0701 21.8125 29.4686V29.8007C21.8125 29.8672 21.7188 29.9336 21.5312 30H10.75C10.4219 30 10.2344 29.9336 10.1875 29.8007V29.4686C10.1875 29.2804 10.3438 29.059 10.6562 28.8044C10.2188 28.2399 10 27.6863 10 27.1439C10 26.6458 10.4062 25.9151 11.2188 24.952V24.8856C11.0938 24.8856 11.0312 24.8413 11.0312 24.7528V24.3542C11.5938 24.0111 11.875 23.8118 11.875 23.7565C13.25 21.1218 13.9375 19.4613 13.9375 18.7749H12.4375C11.75 18.4871 11.4062 18.1771 11.4062 17.845V17.7122C11.5938 17.0037 12.0312 16.6494 12.7188 16.6494H13.6562C12.7812 16.0627 12.3438 15.4207 12.3438 14.7232V14.4576C12.3438 13.4059 13.1562 12.631 14.7812 12.1328C15.0156 12.0443 15.2656 12 15.5312 12V12Z" fill="black"/>
</svg>
