<svg width="32" height="32" viewBox="0 0 32 32" fill="none" xmlns="http://www.w3.org/2000/svg">
<path d="M16.4688 12.5C17.5112 12.5 18.3627 12.9702 19.048 13.9971C19.1006 14.0841 19.1562 14.2625 19.1562 14.5904V14.7232C19.1562 15.1689 18.8776 15.6792 18.0617 16.2366C17.8806 16.3603 17.8013 16.5875 17.866 16.7971C17.9308 17.0066 18.1245 17.1494 18.3438 17.1494H19.2812C19.5257 17.1494 19.6853 17.212 19.7986 17.3037C19.9033 17.3885 20.0059 17.5287 20.085 17.7601C19.9964 17.9431 19.894 18.0601 19.7891 18.1345C19.6682 18.2201 19.5079 18.2749 19.2812 18.2749H18.0625C17.7864 18.2749 17.5625 18.4988 17.5625 18.7749V18.8413C17.5625 18.8875 17.5689 18.9335 17.5815 18.978C18.0653 20.6804 18.8377 22.3421 19.8936 23.963C19.9068 23.9833 19.9215 24.0026 19.9375 24.0208C20.0949 24.1991 20.3204 24.3711 20.5926 24.5393C20.4612 24.6294 20.375 24.7807 20.375 24.952V25.0185C20.375 25.1446 20.4227 25.2661 20.5085 25.3586C21.2276 26.1334 21.5 26.7458 21.5 27.2103C21.5 27.5869 21.3415 28.0374 20.9429 28.572C20.8299 28.7236 20.812 28.926 20.8968 29.0951C20.9638 29.2286 21.0858 29.3232 21.2272 29.3571C21.2365 29.3723 21.2477 29.3929 21.2605 29.42C21.2714 29.4432 21.2827 29.4698 21.2944 29.5H10.75C10.7275 29.5 10.7067 29.4996 10.6875 29.4989V29.4915C10.6914 29.4835 10.6991 29.4697 10.7132 29.4497C10.7557 29.3895 10.8357 29.3032 10.9721 29.1921C11.1825 29.0206 11.2177 28.7127 11.0515 28.4982C10.6603 27.9934 10.5 27.5448 10.5 27.1439C10.5 27.0193 10.5552 26.8007 10.7417 26.4653C10.9234 26.1385 11.2061 25.7424 11.6009 25.2744C11.677 25.1842 11.7188 25.07 11.7188 24.952V24.8856C11.7188 24.7706 11.6799 24.6647 11.6147 24.5803C11.7497 24.4944 11.8629 24.4193 11.9531 24.3554C12.0288 24.3017 12.1006 24.2474 12.1578 24.1956C12.1853 24.1707 12.2232 24.1342 12.258 24.089C12.2584 24.0884 12.2589 24.0878 12.2594 24.0872C12.2709 24.0724 12.3076 24.025 12.3366 23.9526C13.0181 22.6453 13.5351 21.5686 13.8838 20.7263C14.0597 20.3015 14.1957 19.9294 14.2884 19.6129C14.379 19.3036 14.4375 19.0174 14.4375 18.7749C14.4375 18.4988 14.2136 18.2749 13.9375 18.2749H12.5406C12.273 18.1561 12.1003 18.0467 11.9989 17.9552C11.9281 17.8914 11.9101 17.8538 11.9062 17.8418V17.7811C11.9803 17.5348 12.0834 17.3898 12.1896 17.3037C12.301 17.2136 12.4634 17.1494 12.7188 17.1494H13.6562C13.8763 17.1494 14.0705 17.0055 14.1346 16.795C14.1987 16.5844 14.1175 16.3567 13.9347 16.2342C13.1236 15.6903 12.8438 15.1807 12.8438 14.7232V14.4576C12.8438 14.0784 12.9834 13.7497 13.2982 13.4495C13.6267 13.1361 14.1548 12.8479 14.9278 12.6109C14.938 12.6078 14.948 12.6043 14.958 12.6006C15.1325 12.5346 15.3223 12.5 15.5312 12.5H16.4688ZM11.9054 17.8376C11.9055 17.8376 11.9059 17.8389 11.9061 17.8414C11.9053 17.8389 11.9052 17.8376 11.9054 17.8376Z" fill="white" stroke="black" stroke-linejoin="round"/>
</svg>
