<svg width="32" height="32" viewBox="0 0 32 32" fill="none" xmlns="http://www.w3.org/2000/svg">
<path d="M15.4503 3H15.947C17.0066 3 17.8013 3.504 18.3311 4.512V4.944C18.3311 5.46 17.9338 5.988 17.1391 6.528C17.1722 6.528 17.7351 6.672 18.8278 6.96C19.8046 6.672 20.3675 6.528 20.5166 6.528C21.2947 6.528 21.7914 6.912 22.0066 7.68C22.0066 7.968 21.4106 8.496 20.2185 9.264C19.0927 10.536 18.5298 11.928 18.5298 13.44H19.3245C20.1854 13.572 20.6159 13.956 20.6159 14.592C20.4338 15.168 20.0695 15.456 19.5232 15.456H18.2318V15.528C18.2318 17.94 19.2583 20.46 21.3113 23.088C21.8411 23.208 22.106 23.424 22.106 23.736V23.808C22.106 24.096 21.9735 24.24 21.7086 24.24C22.5695 25.236 23 26.124 23 26.904V27.048C23 27.6 22.7351 28.152 22.2053 28.704C22.6026 28.896 22.8013 29.136 22.8013 29.424V29.856C22.8013 29.952 22.7351 30 22.6026 30H8.39735C8.2649 30 8.19868 29.952 8.19868 29.856V29.568C8.19868 29.184 8.39735 28.896 8.7947 28.704C8.2649 28.032 8 27.384 8 26.76C8 26.088 8.49669 25.248 9.49007 24.24C9.35762 24.24 9.22517 24.096 9.09272 23.808C9.09272 23.52 9.42384 23.256 10.0861 23.016C12.0728 20.388 13.0662 17.868 13.0662 15.456H11.3775C10.7815 15.216 10.4834 14.928 10.4834 14.592V14.376C10.7152 13.752 11.1126 13.44 11.6755 13.44H12.7682V13.368C12.7682 11.22 11.6755 9.492 9.49007 8.184L9.29139 7.68C9.42384 6.912 9.95364 6.528 10.8808 6.528C11.0132 6.528 11.5099 6.672 12.3709 6.96C12.7682 6.96 13.2649 6.816 13.8609 6.528H14.2583C14.7715 6.816 15.2351 6.96 15.649 6.96C16.1788 6.96 16.6093 6.816 16.9404 6.528C16.6093 6.672 16.2781 6.744 15.947 6.744H15.5497C13.9603 6.504 13.1656 5.952 13.1656 5.088V4.656C13.5132 3.552 14.2748 3 15.4503 3Z" fill="black"/>
</svg>
