<svg width="32" height="32" viewBox="0 0 32 32" fill="none" xmlns="http://www.w3.org/2000/svg">
<path d="M17.8311 4.944C17.8311 5.1797 17.6503 5.54765 16.9797 6.02951C16.9002 6.0232 16.8184 6.03582 16.741 6.06948C16.467 6.18862 16.2035 6.244 15.947 6.244H15.5877C14.8451 6.12853 14.348 5.94853 14.0468 5.73935C13.7652 5.54374 13.6656 5.33459 13.6656 5.088V4.73587C13.8143 4.3012 14.0293 4.00846 14.2909 3.81884C14.5671 3.61867 14.9414 3.5 15.4503 3.5H15.947C16.3943 3.5 16.7625 3.60524 17.07 3.80024C17.3543 3.98059 17.6108 4.25305 17.8311 4.63971V4.944ZM12.3709 7.46C12.8492 7.46 13.3894 7.29959 13.9734 7.028H14.1309C14.6487 7.30203 15.1578 7.46 15.649 7.46C16.1996 7.46 16.6965 7.32622 17.108 7.032C17.1189 7.03455 17.1315 7.03755 17.1458 7.04102C17.217 7.05822 17.3221 7.08456 17.4622 7.1204C17.7418 7.19194 18.1543 7.29957 18.7004 7.44349C18.7887 7.46676 18.8816 7.46541 18.9692 7.43959C19.4554 7.29624 19.8337 7.1902 20.1065 7.1204C20.2433 7.08542 20.349 7.06071 20.4263 7.04508C20.496 7.03099 20.5229 7.02848 20.5228 7.02807C20.5228 7.02795 20.5206 7.028 20.5166 7.028C20.822 7.028 21.0253 7.10215 21.1669 7.21157C21.2848 7.30278 21.3935 7.44454 21.4765 7.66536C21.4292 7.72583 21.3501 7.8096 21.2281 7.91773C20.9583 8.15668 20.5361 8.4646 19.9477 8.84368C19.9093 8.86845 19.8744 8.89837 19.8441 8.93261C18.6481 10.2839 18.0298 11.7907 18.0298 13.44C18.0298 13.7161 18.2537 13.94 18.5298 13.94H19.285C19.6429 13.9993 19.8489 14.1008 19.9602 14.2001C20.0442 14.2751 20.0992 14.3698 20.1127 14.5178C20.0474 14.6908 19.969 14.7901 19.896 14.8478C19.8172 14.9101 19.7045 14.956 19.5232 14.956H18.2318C17.9556 14.956 17.7318 15.1799 17.7318 15.456V15.528C17.7318 18.0874 18.8215 20.713 20.9172 23.3958C20.9882 23.4867 21.0884 23.5502 21.2008 23.5756C21.4301 23.6276 21.5438 23.6888 21.5913 23.7275C21.5983 23.7332 21.6029 23.7377 21.606 23.7409V23.7506C21.4526 23.7828 21.3208 23.8859 21.2539 24.032C21.1725 24.2099 21.2024 24.419 21.3303 24.567C22.1625 25.5297 22.5 26.3029 22.5 26.904V27.048C22.5 27.428 22.3199 27.8625 21.8446 28.3578C21.7337 28.4733 21.6849 28.6349 21.7132 28.7925C21.7415 28.9501 21.8436 29.0845 21.9878 29.1542C22.1468 29.2311 22.2285 29.3002 22.2672 29.3468C22.2988 29.385 22.3013 29.4062 22.3013 29.424V29.5H8.70285C8.71128 29.4354 8.73192 29.3875 8.75925 29.3479C8.79814 29.2915 8.8715 29.2222 9.01224 29.1542C9.1487 29.0883 9.24789 28.964 9.28193 28.8163C9.31597 28.6686 9.28118 28.5135 9.18735 28.3944C8.70154 27.7782 8.5 27.2364 8.5 26.76C8.5 26.5451 8.58078 26.2562 8.80291 25.8805C9.02352 25.5074 9.3665 25.0777 9.84619 24.591C9.98768 24.4474 10.0291 24.2329 9.9513 24.047C9.89747 23.9183 9.79385 23.8208 9.66836 23.7729C9.77548 23.6919 9.96209 23.5928 10.2565 23.4861C10.3473 23.4532 10.4267 23.3946 10.4849 23.3175C12.5137 20.634 13.5662 18.0105 13.5662 15.456C13.5662 15.1799 13.3424 14.956 13.0662 14.956H11.4779C11.262 14.8616 11.1292 14.7728 11.0544 14.7005C10.9814 14.6299 10.9832 14.5965 10.9834 14.5923C10.9834 14.5922 10.9834 14.5921 10.9834 14.592V14.4712C11.0702 14.2664 11.1691 14.1418 11.2641 14.0673C11.3646 13.9883 11.4925 13.94 11.6755 13.94H12.7682C13.0444 13.94 13.2682 13.7161 13.2682 13.44V13.368C13.2682 11.0595 12.1019 9.21425 9.89365 7.84442L9.81222 7.63785C9.86873 7.43282 9.96448 7.30567 10.0815 7.22084C10.2302 7.11304 10.474 7.03007 10.866 7.02804C10.8715 7.02902 10.893 7.03235 10.9369 7.0424C11.0024 7.0574 11.0937 7.08151 11.2134 7.11622C11.4522 7.18545 11.7842 7.29098 12.2122 7.43417C12.2634 7.45128 12.3169 7.46 12.3709 7.46ZM21.5187 7.60339C21.5193 7.60167 21.5198 7.60079 21.5198 7.60079C21.5199 7.60078 21.5195 7.60164 21.5187 7.60339ZM22.6026 29.5H22.6018C22.6047 29.4998 22.6062 29.4998 22.6061 29.4999C22.6061 29.4999 22.605 29.5 22.6026 29.5ZM8.39735 29.5C8.39225 29.5 8.39292 29.4996 8.39818 29.5H8.39735ZM9.58336 23.8543C9.58323 23.8543 9.58378 23.8531 9.58539 23.8506C9.5843 23.8531 9.58349 23.8543 9.58336 23.8543Z" fill="white" stroke="black" stroke-linejoin="round"/>
</svg>
