<svg width="32" height="32" viewBox="0 0 32 32" fill="none" xmlns="http://www.w3.org/2000/svg">
<path d="M14.4062 11.7007C14.4062 11.4722 14.361 11.0641 14.2792 10.5H16.6167C16.5406 10.9761 16.5 11.3785 16.5 11.7007C16.5 11.9768 16.7239 12.2007 17 12.2007H18.5938C18.8699 12.2007 19.0938 11.9768 19.0938 11.7007C19.0938 11.6537 19.0857 11.5757 19.0793 11.515C19.0713 11.4373 19.0593 11.3296 19.0436 11.193C19.023 11.0139 18.9958 10.7829 18.9619 10.5H21.64C21.5366 11.4426 20.9334 12.4169 19.6866 13.4199C19.5625 13.5197 19.4934 13.6727 19.5005 13.8317C19.5076 13.9908 19.59 14.137 19.7224 14.2254C19.9113 14.3515 20.0475 14.4511 20.1379 14.526C20.1444 14.5314 20.1505 14.5366 20.1562 14.5415V14.5755C19.9886 14.7434 19.8153 14.8061 19.625 14.8061C19.4803 14.8061 19.3426 14.8689 19.2476 14.9781C19.1527 15.0873 19.1097 15.2324 19.1299 15.3757C19.411 17.3759 19.6215 18.9402 19.7616 20.07C19.9038 21.2168 19.9688 21.8806 19.9688 22.1088C19.9688 22.37 20.1697 22.5871 20.43 22.6073C20.8366 22.6389 21.0705 22.7148 21.1891 22.7885C21.2158 22.8051 21.2348 22.8199 21.2483 22.8337C21.2001 22.8901 21.1334 22.9635 21.0453 23.0553C20.9561 23.1484 20.9062 23.2724 20.9062 23.4014V23.4694C20.9062 23.5837 20.9454 23.6946 21.0173 23.7836C21.5383 24.4285 21.9167 24.9751 22.1625 25.4263C22.414 25.8879 22.5 26.2018 22.5 26.3946C22.5 26.5547 22.449 26.7926 22.3064 27.1237C22.1658 27.45 21.9483 27.8396 21.646 28.2948C21.5716 28.4068 21.5455 28.5439 21.5734 28.6754C21.6014 28.8068 21.681 28.9215 21.7945 28.9935C22.0132 29.1324 22.1586 29.297 22.2382 29.5H8.65257C8.72712 29.3145 8.88022 29.1128 9.15458 28.895C9.36913 28.7248 9.40674 28.4136 9.23892 28.1971C8.69447 27.4947 8.5 26.9941 8.5 26.6667V26.2585C8.5 26.1092 8.58461 25.8237 8.86961 25.3666C9.14461 24.9255 9.56846 24.3831 10.1524 23.7364C10.2848 23.5898 10.3184 23.3789 10.2382 23.1983C10.163 23.0291 10.0009 22.9162 9.8182 22.9027C9.81646 22.9011 9.81455 22.8993 9.8125 22.8972V22.8294C9.87115 22.7739 9.95052 22.7218 10.0592 22.6769H10.4375C10.6886 22.6769 10.9007 22.4907 10.9333 22.2418C11.2145 20.0935 11.4331 18.4478 11.5892 17.304C11.7475 16.1433 11.8377 15.5297 11.8633 15.4138C11.8934 15.2774 11.865 15.1346 11.785 15.02C11.7051 14.9054 11.5808 14.8295 11.4424 14.8107C11.0978 14.7638 10.9037 14.6898 10.8082 14.6262C10.7817 14.6086 10.7673 14.5948 10.7598 14.5862C10.7944 14.4701 10.8286 14.4065 10.8504 14.3761C11.1088 14.3568 11.3125 14.1409 11.3125 13.8776V13.8095C11.3125 13.6619 11.2473 13.5219 11.1343 13.4269C9.99571 12.4692 9.40823 11.4941 9.27806 10.5H11.9411C11.8584 11.08 11.8125 11.4893 11.8125 11.7007C11.8125 11.9768 12.0364 12.2007 12.3125 12.2007H13.9062C14.1824 12.2007 14.4062 11.9768 14.4062 11.7007Z" fill="white" stroke="black" stroke-linejoin="round"/>
</svg>
