<svg width="512" height="512" viewBox="0 0 512 512" fill="none" xmlns="http://www.w3.org/2000/svg">
<path d="M295 408.665C350.544 393.456 391 346.604 391 291.163C391 211.135 331.178 111.533 284.692 49.541C270.153 30.153 241.847 30.153 227.308 49.541C180.822 111.533 121 211.135 121 291.163C121 345.936 160.487 392.327 215 408.102V419.263C173.423 423.413 143.799 433.689 143.016 445.764H143V464.905C143 480.898 193.592 493.862 256 493.862C318.408 493.862 369 480.898 369 464.905V445.764H368.984C368.189 433.497 337.624 423.085 295 419.069V408.665Z" fill="#00173C"/>
<path d="M372 282.984C372 337.675 331.04 383.17 277 392.67V449.125C286.338 448.596 293.345 447.739 295 446.746V428.841C325.759 431.688 347 437.756 347 444.783C347 454.541 306.034 462.451 255.5 462.451C204.966 462.451 164 454.541 164 444.783C164 437.832 184.781 431.82 215 428.935V446.746C216.595 447.703 223.192 448.534 232 449.066V392.103C179.451 381.476 140 336.658 140 282.984C140 208.528 193.873 124.281 234.171 72.7207C245.36 58.405 266.64 58.405 277.829 72.7207C318.127 124.281 372 208.528 372 282.984Z" fill="#FF9CAE"/>
<path d="M341.825 280.226C340.628 293.388 324.285 281.509 324.285 268.293C324.285 208.326 299.69 141.572 277 93.3716C306.896 139.839 342.285 208.675 342.285 270.063C342.285 273.494 342.129 276.884 341.825 280.226Z" fill="#00173C"/>
<path fill-rule="evenodd" clip-rule="evenodd" d="M237 197.415L228 164.915C225.6 164.115 224.667 172.582 224.5 176.915C224.833 179.082 225.2 183.415 224 183.415C222.8 183.415 222.833 188.749 223 191.415C220.6 193.815 218 198.415 217 200.415C213.4 200.815 204.833 203.915 201 205.415C201 206.395 199.933 207.162 198.775 207.994C198.16 208.435 197.52 208.895 197 209.415L192 214.415C190.441 213.168 189.271 216.198 188.369 218.534L188.268 218.796C187.768 220.085 187.353 221.092 187 220.915C186.2 220.515 181 229.749 178.5 234.415C178.9 235.215 175 247.415 173 253.415C168.5 255.082 159.4 258.415 159 258.415C158.856 258.415 158.341 258.539 157.657 258.704C155.958 259.112 153.213 259.772 152.5 259.415C151.5 258.915 151 261.915 151 263.915C151 265.265 156.92 265.476 161.078 265.624C163.081 265.696 164.675 265.753 165 265.915C165.8 266.315 166.667 264.749 167 263.915C167.5 264.582 168.6 265.815 169 265.415C169.4 265.015 172.833 265.249 174.5 265.415C174.5 266.749 174.8 269.515 176 269.915C175.667 270.249 175.2 271.715 176 274.915C177 278.915 179 282.415 179 282.915C179 283.315 182.333 287.082 184 288.915L185 289.415V290.415L189.812 294.606C190.709 295.46 191.187 295.915 191 295.915C190.2 295.915 190.667 300.582 191 302.915C190.2 302.915 189.667 305.915 189.5 307.415C187.5 309.815 188.667 314.082 189.5 315.915C192.7 316.715 193.833 315.249 194 314.415C194.5 313.415 195.5 311.115 195.5 309.915C195.5 308.715 196.5 307.082 197 306.415C197.333 304.582 198.2 301.015 199 301.415C199 300.582 199.2 299.015 200 299.415C200.667 299.915 202.2 300.915 203 300.915C203.8 300.915 206.333 303.249 207.5 304.415C208.5 304.915 211 305.815 213 305.415C214.333 305.915 217.2 306.915 218 306.915C218.8 306.915 219.667 307.582 220 307.915C222.167 308.082 226.7 308.415 227.5 308.415C228.5 308.415 235 309.915 236.5 308.415C238 306.915 243 309.415 243 307.915C247.8 307.115 255.667 302.582 259 300.415C260.333 300.249 262.7 300.115 261.5 300.915C260.3 301.715 263.333 303.249 265 303.915C264.6 306.715 268.167 312.082 270 314.415C272.833 316.249 277.9 318.515 275.5 312.915C273.1 307.315 272.167 296.915 272 292.415C270.4 292.415 272.333 288.082 273.5 285.915C275.5 284.749 279.3 281.915 278.5 279.915C277.7 277.915 279.167 276.415 280 275.915C279.667 274.415 279.2 271.615 280 272.415C280.8 273.215 281.667 269.082 282 266.915C280.4 266.115 281.667 262.249 282.5 260.415C284.5 261.215 288 259.415 289.5 258.415C289.9 256.415 299.333 254.582 304 253.915L305 249.415L283 247.915C283 245.115 281.667 242.415 281 241.415C284.2 239.015 280.667 232.082 278.5 228.915C279.3 225.715 271.5 217.582 267.5 213.915C265.5 210.715 262 207.249 260.5 205.915C258 205.749 252.2 204.515 249 200.915C245.8 197.315 239.667 197.082 237 197.415ZM235 230.415C233.4 230.015 229.667 217.582 228 211.415C228 211.622 227.157 213.611 226.159 215.969L226.158 215.971C225.22 218.184 224.145 220.721 223.5 222.415C224.596 224.242 223.29 228.471 222.506 231.006C222.218 231.941 222 232.646 222 232.915C222 233.175 221.395 234.409 220.568 236.095C218.206 240.912 214.037 249.415 217 249.415C220.2 249.415 226.667 250.749 229.5 251.415C234.7 251.015 240.667 248.915 243 247.915C241 242.249 236.6 230.815 235 230.415ZM266 259.915C264 261.115 261.167 260.749 260 260.415C261.2 262.415 260.5 265.915 260 267.415C261.6 269.415 261.667 272.582 261.5 273.915C262.5 274.415 264.6 275.615 265 276.415C265.4 277.215 266.167 275.749 266.5 274.915C266.1 274.115 266.333 272.249 266.5 271.415C268.5 269.015 269.667 262.749 270 259.915C269.5 259.415 268 258.715 266 259.915ZM200.5 225.415C202.1 223.415 210.5 218.249 214.5 215.915C214.9 218.715 212.667 223.749 211.5 225.915C211.167 227.915 210.2 232.015 209 232.415C207.8 232.815 207.833 236.582 208 238.415C205.6 241.615 205 247.082 205 249.415C204.6 249.815 199.833 248.915 197.5 248.415C196.5 248.915 186.5 251.415 188 248.915C189.5 246.415 190 244.415 189.5 244.415C189.1 244.415 190.667 241.082 191.5 239.415C190.7 238.615 192.167 237.082 193 236.415C191.8 234.415 195.167 230.915 197 229.415C197.5 228.915 198.9 227.415 200.5 225.415ZM188 263.915C190 263.749 194.2 263.315 195 262.915C196 263.082 198.4 263.315 200 262.915C198.667 264.749 196.1 268.715 196.5 269.915C195.333 271.915 193.3 276.215 194.5 277.415C194.014 278.55 193.244 280.883 193.938 281.378C192.254 280.364 189.105 278.31 189.5 277.915C189.9 277.515 189 273.749 188.5 271.915C188.333 270.582 188.1 267.815 188.5 267.415C188 266.415 187.2 264.315 188 263.915ZM243 214.915C246.833 217.415 254.6 222.415 255 222.415C255.5 222.415 266 231.915 268.5 239.915C269.5 240.415 271.5 242.715 271.5 247.915C271.142 247.915 270.656 247.953 270.131 247.994C268.943 248.085 267.555 248.193 267 247.915C266.2 247.515 258.667 248.415 255 248.915C254 245.415 251.3 237.615 248.5 234.415C248.833 233.915 249 232.115 247 228.915C244.5 224.915 240.5 216.415 243 214.915ZM214 261.415C216.667 261.249 222.2 261.215 223 262.415C224.333 261.749 227.5 260.815 229.5 262.415C231.5 264.015 241.333 262.415 246 261.415C246.333 263.415 247.2 267.315 248 266.915C247.5 267.415 247.6 270.415 252 278.415C252.167 280.915 252.9 285.915 254.5 285.915C256.1 285.915 254.833 287.915 254 288.915C253 290.082 250.2 292.615 247 293.415C243 294.415 237.5 295.915 235.5 296.915C233.9 297.715 226.5 296.582 223 295.915L222.5 296.915C220.5 295.249 216 292.215 214 293.415C212.167 291.749 208.3 288.715 207.5 289.915C206.5 291.415 204.5 285.415 205.5 285.915C206.3 286.315 206.833 279.415 207 275.915C209 272.249 213 264.815 213 264.415C213 264.337 212.988 264.223 212.973 264.083C212.893 263.328 212.734 261.837 214 261.415Z" fill="#810F23"/>
</svg>
