<svg width="800" height="800" viewBox="0 0 800 800" fill="none" xmlns="http://www.w3.org/2000/svg">
<path d="M237.8 702.4C195.8 702.4 160.5 687.5 135.6 659.4C112.6 633.5 100 597.1 100 556.9C100 497.7 141.5 483.6 177.5 477.8L193.9 475.2L188.9 491C182.4 511.5 178.7 533.9 178.7 552.2C178.7 606.2 203.1 639.8 242.3 639.8C271.5 639.8 298.9 616 313 579.6C301.2 577.2 291.5 574.4 283.9 571.2C270.5 565.6 263.8 558.2 263.4 549.4L256.4 493.7V493.1C256.4 484 262 477.5 269.3 472.6C267.7 468.3 266 463.7 264.2 459.1C247.6 414.2 226.9 358.2 226.9 315.4C226.9 265 249 220 289.3 188.5C300.2 173.2 316.5 156.5 337.8 138.8C355.6 124 375.8 109.5 394.7 97.9L400.1 94.7L405.5 97.9C441.6 120 487.9 156.5 510.9 188.6C551.2 220.1 573.4 265 573.4 315.1C573.4 358.2 552.7 414.6 535.9 459.8C534.3 464.2 533 468.4 531.5 472.5C538.7 477.5 544.8 483.9 544.8 493V493.6L537.2 549.2C536.6 562.9 520.1 572.9 487.2 579.5C501.3 615.9 528.7 639.7 557.8 639.7C597 639.7 621.3 606.1 621.3 552.1C621.3 533.7 617.6 511.4 611.1 490.9L606.1 475.1L622.4 477.7C647.7 481.7 665.2 488.6 677.6 499.4C692.6 512.6 700 531.4 700 556.7C700 596.9 687.4 633.3 664.4 659.2C639.6 687.3 604.1 702.2 562.2 702.2C496.6 702.2 443.4 657.1 424.4 586.5C416.4 586.8 408.2 587 400 587C391.8 587 383.6 586.8 375.6 586.5C356.7 657.2 303.3 702.4 237.8 702.4V702.4Z" fill="#0D2133"/>
<path d="M400 106.5C433.5 127 480.6 163.2 503.2 195.7C539.1 223.2 563 264 563 315C563 363.3 534.5 432.6 518.6 476.9C528.3 482.3 533.8 487.1 533.8 493.1L526.6 548.5C526.6 558 505.6 566.4 473.5 571.6C486.7 616.3 519.4 650 557.7 650C603.4 650 631.6 611.1 631.6 552.2C631.6 532.2 627.6 508.9 620.9 487.9C662.4 494.5 689.8 509.8 689.8 556.8C689.8 631.8 644.2 692 562.3 692C500.3 692 448.7 648.4 432.4 575.9C422 576.5 411.2 576.9 400 576.9C388.8 576.9 378 576.6 367.6 575.9C351.3 648.4 299.6 692 237.6 692C155.6 692 110.1 631.7 110.1 556.8C110.1 509.8 137.5 494.4 179 487.9C172.4 508.9 168.3 532.3 168.3 552.2C168.3 611.2 196.4 650 242.2 650C280.5 650 313.3 616.3 326.4 571.6C294.2 566.4 273.3 558.1 273.3 548.6L266 493C266 487.1 271.5 482.2 281.2 476.8C265.4 432.5 236.8 363.5 236.8 315.2C236.8 264.2 260.7 223 296.5 195.5C319.4 163.1 366.5 127.1 400 106.5V106.5ZM400 82.5L389.3 89C355.3 109.8 307.3 146.1 281.7 181.1C239.6 214.6 216.5 262 216.5 315.1C216.5 359.8 237.6 416.7 254.4 462.4C255.3 464.6 256 466.7 256.8 468.9C250.8 474.6 245.6 482.4 245.6 493V494.3L245.8 495.6L252.9 550.4C253.2 556.1 255.6 563.8 263.5 570.8C267.7 574.6 273 577.7 279.9 580.6C285.2 582.9 291.5 584.9 298.5 586.8C293.3 597 286.9 605.8 279.6 612.8C271.6 620.5 258.6 629.5 242.2 629.5C226.4 629.5 213.8 623.2 204.6 610.9C194.3 597.1 188.9 576.8 188.9 552.1C188.9 534.7 192.5 513.5 198.6 494L208.5 462.4L175.8 467.6C138.8 473.4 89.6 489.1 89.6 556.8C89.6 577.9 92.8 597.8 99.1 616.2C105.6 635.2 115.3 651.9 127.8 666.1C154.7 696.4 192.7 712.5 237.6 712.5C305.5 712.5 361 667.8 383.1 597C388.6 597.1 394.2 597.2 399.9 597.2C405.5 597.2 411.1 597.1 416.7 597C438.6 667.7 494.2 712.5 562.2 712.5C607.2 712.5 645.1 696.4 672 666.1C684.5 652 694.1 635.2 700.7 616.2C707 597.8 710.2 577.9 710.2 556.8C710.2 489.1 661.1 473.4 624 467.6L591.3 462.4L601.2 494C607.4 513.5 610.9 534.7 610.9 552.1C610.9 576.7 605.5 597 595.2 610.9C586 623.2 573.4 629.5 557.6 629.5C541.2 629.5 528.2 620.4 520.2 612.8C513 605.8 506.5 596.9 501.3 586.8C508.4 585 514.6 582.9 520 580.6C526.8 577.7 532.2 574.4 536.4 570.7C544.3 563.6 546.6 556 547 550.3L554.1 495.8L554.2 494.5V493.1C554.2 482.5 549 474.7 543.1 469.1C543.7 467.2 544.5 465.2 545.3 463.3C562.3 417.3 583.3 359.9 583.3 315C583.3 262.1 560.2 214.8 518.1 181.4C507 165.7 490.4 148.8 469 131C450.7 115.8 430.1 101 410.9 89.1L400 82.5Z" fill="#0D2133"/>
<path d="M526.7 548.5L533.9 492.8C533.9 473.1 475 457.6 400 457.6C324.9 457.6 266.1 473.3 266.1 492.8L273.3 548.5" stroke="#B1DDE7" stroke-width="15.12" stroke-miterlimit="10" stroke-linecap="round"/>
<path d="M273.4 548.5C273.4 532.8 330.1 520.1 400.1 520.1C470.1 520.1 526.8 532.8 526.8 548.5" stroke="#B1DDE7" stroke-width="15.12" stroke-miterlimit="10" stroke-linecap="round"/>
<path d="M169.8 491.2C134.6 497.5 111.3 512.3 111.3 557.4C111.3 629.4 150.1 684.1 219.6 684.1C282.9 684.1 333.5 624.5 334.4 527.9M630.1 491.2C665.3 497.5 688.6 512.3 688.6 557.4C688.6 629.4 649.8 684.1 580.3 684.1C517 684.1 466.4 624.5 465.5 527.9" stroke="#B1DDE7" stroke-width="15.12" stroke-miterlimit="10" stroke-linecap="round"/>
<path d="M518.7 476.2C534.5 431.5 563.1 362.9 563.1 314.6C563.1 263.6 539.2 222.5 503.4 194.9C480.7 162.5 433.5 125.9 400.2 105.4C366.7 125.9 319.6 162.5 297 194.9C261.1 222.3 237.3 263.5 237.3 314.6C237.3 362.9 265.9 431.5 281.7 476.2" stroke="#B1DDE7" stroke-width="15.12" stroke-miterlimit="10"/>
<path d="M329.8 301.9H470.2M398.9 211.2V395.9V211.2Z" stroke="#B1DDE7" stroke-width="17.28" stroke-miterlimit="10"/>
</svg>
