<svg width="800" height="800" viewBox="0 0 800 800" fill="none" xmlns="http://www.w3.org/2000/svg">
<path d="M238.9 701.8C197.1 701.8 161.9 687 137.1 659C114.2 633.2 101.6 596.9 101.6 556.8C101.6 497.9 142.7 483.9 178.7 478.3L194.3 475.8L189.5 490.8C183 511.3 179.3 533.8 179.3 552.1C179.3 606.4 203.8 640.2 243.5 640.2C273 640.2 300.7 616 314.9 579.1C281.9 572.5 265.4 562.7 264.8 549.2L257.5 493.5V493C257.5 483.9 263.4 477.7 270.7 472.7C269.1 468.3 267.4 463.6 265.6 458.9C249 414 228.3 358.1 228.3 315.3C228.3 265.1 250.4 220.2 290.6 188.8C313.5 156.8 359.8 120.3 395.9 98.2L401 95.1L406.1 98.2C442.1 120.2 488.4 156.7 511.4 188.9C551.6 220.3 573.7 265 573.7 314.9C573.7 357.9 553 414.3 536.3 459.5C534.6 464 533 468.5 531.4 472.7C538.6 477.7 544.6 484 544.6 493V493.6L537.4 549.1C536.9 562.6 520.4 572.5 487.4 579C501.5 615.9 529.3 640.1 558.8 640.1C598.3 640.1 623 606.3 623 552C623 533.5 619.3 511.2 612.8 490.7L608 475.7L623.6 478.2C648.8 482.2 666.2 489 678.5 499.8C693.4 512.9 700.7 531.6 700.7 556.7C700.7 596.8 688.1 633.1 665.2 658.9C640.4 686.9 605.3 701.7 563.4 701.7C498 701.7 444.8 656.6 426 585.9C417.8 586.2 409.5 586.4 401.2 586.4C392.9 586.4 384.6 586.2 376.4 585.9C357.4 656.7 304.3 701.8 238.9 701.8V701.8Z" fill="#B1DDE7"/>
<path d="M401.1 106.4C434.6 126.9 481.7 163.2 504.3 195.7C540.2 223.2 564 264 564 315C564 363.3 535.5 432.6 519.6 476.9C529.3 482.3 534.8 487.1 534.8 493.1L527.6 548.5C527.6 558 506.6 566.4 474.5 571.6C487.7 616.3 520.4 650 558.7 650C604.4 650 632.6 611.1 632.6 552.2C632.6 532.2 628.6 508.9 621.9 487.9C663.4 494.5 690.8 509.8 690.8 556.8C690.8 631.8 645.2 692 563.3 692C501.3 692 449.7 648.4 433.4 575.9C423 576.5 412.2 576.9 401 576.9C389.8 576.9 379 576.6 368.6 575.9C352.4 648.4 300.6 692 238.6 692C156.6 692 111.1 631.7 111.1 556.8C111.1 509.8 138.5 494.4 180 487.9C173.4 508.9 169.3 532.3 169.3 552.2C169.3 611.2 197.4 650 243.2 650C281.5 650 314.3 616.3 327.4 571.6C295.2 566.4 274.3 558.1 274.3 548.6L267 493C267 487.1 272.5 482.2 282.2 476.8C266.4 432.5 237.8 363.5 237.8 315.2C237.8 264.2 261.7 223 297.5 195.5C320.5 163.1 367.6 127 401.1 106.4V106.4ZM401.1 83.6L390.9 89.9C357 110.6 309.1 147 283.6 182C241.7 215.3 218.6 262.5 218.6 315.3C218.6 359.9 239.6 416.6 256.4 462.3C257.3 464.8 258.1 467.2 259 469.4C253 474.9 247.7 482.6 247.7 493.1V494.4L247.9 495.7L255 550.5C255.3 556 257.6 563.4 265.3 570.3C269.4 574 274.7 577.1 281.4 580C287 582.4 293.6 584.5 301.2 586.5C295.9 597.2 289.2 606.6 281.5 613.9C273.4 621.7 260.2 631 243.4 631C227.3 631 214.3 624.6 205 612C194.6 598.1 189.1 577.4 189.1 552.6C189.1 535.1 192.7 513.8 198.8 494.2L208.2 464.3L177.2 469.2C150.1 473.5 131.2 481.1 117.5 493.1C100.5 507.9 92 529.5 92 557.4C92 578.4 95.1 598.2 101.5 616.5C108 635.4 117.6 652 130 666.1C156.7 696.2 194.4 712.1 239.1 712.1C306.7 712.1 362.1 667.3 383.7 596.6C389.5 596.8 395.4 596.8 401.3 596.8C407.2 596.8 413.1 596.7 418.9 596.6C440.6 667.2 495.9 712.1 563.5 712.1C608.2 712.1 645.9 696.2 672.6 666.1C685 652.1 694.6 635.4 701.1 616.5C707.4 598.2 710.6 578.4 710.6 557.4C710.6 529.6 702.1 507.9 685.1 493.1C671.4 481.1 652.4 473.4 625.4 469.2L594.4 464.3L603.8 494.2C610 513.9 613.5 535.1 613.5 552.6C613.5 577.4 608 598.1 597.6 612C588.2 624.6 575.2 631 559.2 631C542.4 631 529.2 621.7 521.1 613.9C513.4 606.6 506.7 597.2 501.4 586.4C509 584.5 515.5 582.3 521.2 579.9C527.9 577 533.2 573.9 537.3 570.2C545 563.3 547.1 555.9 547.5 550.4L554.6 495.9L554.7 494.6V493.2C554.7 482.7 549.4 475.1 543.4 469.5C544.2 467.3 545 465.2 545.8 463C562.8 417 583.8 359.9 583.8 315C583.8 262.4 560.8 215.3 518.8 182.2C507.4 166.5 490.8 149.6 469.4 131.8C451.2 116.6 430.6 101.8 411.4 90L401.1 83.6Z" fill="#0D2133"/>
<path d="M527.8 548.5L535 492.8C535 473.1 476.1 457.6 401.1 457.6C326 457.6 267.2 473.3 267.2 492.8L274.4 548.5" stroke="#0D2133" stroke-width="16.906" stroke-miterlimit="10" stroke-linecap="round"/>
<path d="M401.1 576.9C471.074 576.9 527.8 564.185 527.8 548.5C527.8 532.815 471.074 520.1 401.1 520.1C331.125 520.1 274.4 532.815 274.4 548.5C274.4 564.185 331.125 576.9 401.1 576.9Z" stroke="#0D2133" stroke-width="15.911" stroke-miterlimit="10" stroke-linecap="round"/>
<path d="M333.9 527.1C333.9 591.5 293.5 649 243.4 649C197.7 649 169.5 610.1 169.5 551.2C169.5 531.2 173.5 507.9 180.2 486.9C138.7 493.5 111.3 508.8 111.3 555.8C111.3 630.8 156.9 691 238.8 691C313.3 691 373 627.8 374 527.4L333.9 527.1ZM468.4 527.1C468.4 591.5 508.8 649 558.9 649C604.6 649 632.8 610.1 632.8 551.2C632.8 531.2 628.8 507.9 622.1 486.9C663.6 493.5 691 508.8 691 555.8C691 630.8 645.4 691 563.5 691C489 691 429.3 627.8 428.3 527.4" fill="#B1DDE7"/>
<path d="M468.4 527.1C468.4 591.5 508.8 649 558.9 649C604.6 649 632.8 610.1 632.8 551.2C632.8 531.2 628.8 507.9 622.1 486.9C663.6 493.5 691 508.8 691 555.8C691 630.8 645.4 691 563.5 691C489 691 429.3 627.8 428.3 527.4M333.9 527.1C333.9 591.5 293.5 649 243.4 649C197.7 649 169.5 610.1 169.5 551.2C169.5 531.2 173.5 507.9 180.2 486.9C138.7 493.5 111.3 508.8 111.3 555.8C111.3 630.8 156.9 691 238.8 691C313.3 691 373 627.8 374 527.4L333.9 527.1Z" stroke="#0D2133" stroke-width="18.36" stroke-miterlimit="10"/>
<path d="M519.8 476.2C535.6 431.5 564.2 362.9 564.2 314.6C564.2 263.6 540.3 222.2 504.5 194.7C481.8 162.3 434.6 125.5 401.3 105C367.8 125.5 320.7 162.2 298.1 194.7C262.2 222.1 238.4 263.5 238.4 314.5C238.4 362.8 267 431.5 282.8 476.2" stroke="#0D2133" stroke-width="20.52" stroke-miterlimit="10"/>
<path d="M330.9 301.9H471.3M401.1 211.2V395.9V211.2Z" stroke="#0D2133" stroke-width="19.44" stroke-miterlimit="10"/>
</svg>
