<svg width="800" height="800" viewBox="0 0 800 800" fill="none" xmlns="http://www.w3.org/2000/svg">
<path d="M405.3 700C345.5 700 289.2 694.7 246.6 685.2C199.2 674.6 175.5 660.6 174.5 642.4L158.1 576V574.9C158.1 565.8 163.3 556.9 173.3 548.4C167.1 526.5 151.7 502.9 136.7 480C118.3 452 101 425.6 101 402.3C101 376.8 119.4 360.9 148.8 360.9H150.1C152.3 360.9 154.6 361 157.1 361C163.1 361.1 170 361.2 176.4 361.2C171 334.5 172.6 315.3 181.4 301.3C194.7 279.8 218.3 277.3 235 277.3C249.1 277.3 264.8 279.4 281.4 281.7C283.2 265.4 288.9 253.2 298.6 244.8C306.4 238 315.6 234.5 325.6 234.5C346.9 234.5 367.8 249.4 386.4 262.5C393.4 267.5 400 272.2 405.4 275C410.8 272.1 417.5 267.4 424.4 262.5C442.9 249.4 463.9 234.5 485.1 234.5C495.3 234.5 504.3 238 512.1 244.8C521.7 253.2 527.4 265.3 529.2 281.7C545.8 279.4 561.5 277.3 575.6 277.3C592.2 277.3 615.9 279.8 629.2 301.3C637.8 315.3 639.5 334.6 634.1 361.3C640.7 361.3 647.7 361.2 653.9 361.1C656.2 361.1 658.3 361 660.4 361H661.7C691.2 361 708.8 376.4 708.8 402.4C708.8 425.6 691.2 452.1 672.5 480.1C657.3 502.9 641.7 526.4 635.5 548.2C646.2 556.4 651.6 565.5 651.6 575V576.1L635.8 643.3C634.2 661.2 610.3 675.2 563 685.6C520.7 694.8 464.6 700 405.3 700V700Z" fill="#B1DDE7"/>
<path d="M325.6 243.8C353.8 243.8 386 277.4 405.4 285.3C424.8 277.3 457 243.8 485.2 243.8C492.5 243.8 499.7 246.1 506.3 251.8C516.5 260.7 520.6 274.7 520.9 292.2C540.9 289.4 559.7 286.5 575.9 286.5C596.1 286.5 612.3 291 621.7 306.2C631.1 321.4 629.6 344.2 622.9 370.5C625.4 370.5 628 370.6 630.7 370.6C641 370.6 652.4 370.4 660.8 370.3H662C683.4 370.3 699.9 379.5 699.9 402.5C699.9 441.6 639 498.2 626 549.2V552.5C636.8 559.4 642.5 567 642.5 575L626.9 641.9C625.6 669.1 526.9 691 405.4 691C283.1 691 183.9 668.8 183.9 641.3L167.6 575C167.6 567.1 173.4 559.4 183.2 552.5V548.9C171.3 497.9 110.4 441.3 110.4 402.2C110.4 379.2 127.7 370 149.1 370H150.3C158.8 370.1 170.6 370.4 180.9 370.4C183.5 370.4 186 370.4 188.4 370.3C181.7 343.9 180.3 321.2 189.7 306C199.1 290.9 215.2 286.3 235.5 286.3C251.7 286.3 270.5 289.2 290.5 292C290.8 274.5 294.9 260.4 305.1 251.6C311.1 246.1 318.2 243.8 325.6 243.8V243.8ZM325.6 225.5C313.2 225.5 302.1 229.7 292.6 238C283.2 246.1 277 257.3 273.9 271.5C260.2 269.7 247.2 268.3 235 268.3C221.7 268.3 210.7 270 201.3 273.7C189.4 278.3 180.1 286 173.5 296.6C164.9 310.6 162.2 328.6 165.4 352.1C162.6 352.1 159.8 352 157.2 352C154.7 352 152.3 351.9 150.2 351.9H148.8C133.6 351.9 120.3 355.7 110.6 362.9C102.1 369.3 91.8 381.3 91.8 402.3C91.8 428.3 109.9 455.9 129.1 485C142.5 505.4 156.4 526.4 163.1 545.5C153.9 554.7 149.5 564.5 149.5 574.9V577.2L149.8 579.4L165.6 644C166.7 656.9 175.8 668 192.6 676.8C205.2 683.5 222.7 689.3 244.7 694.3C287.8 703.9 344.9 709.3 405.3 709.3C465.3 709.3 522 704 565 694.5C586.8 689.6 604.4 683.8 617.1 677.2C634.1 668.3 643.5 657.4 644.9 644.7L660 579.1L660.3 577V574.8C660.3 564 655.5 554.1 645.9 545C652.7 526 666.6 505.1 680.1 485C699.5 455.8 717.9 428.3 717.9 402.3C717.9 381.2 708.1 369.3 699.8 363C690 355.5 677.2 351.8 661.8 351.8H660.4C658.3 351.8 656.2 351.9 653.9 351.9C651.1 351.9 648.2 352 645.2 352C648.5 328.5 645.8 310.4 637.2 296.5C630.6 285.9 621.3 278.2 609.4 273.6C600.1 269.9 589.1 268.2 575.8 268.2C563.6 268.2 550.6 269.6 536.9 271.4C533.8 257.3 527.6 246 518.2 237.9C508.7 229.6 497.6 225.4 485.2 225.4C461 225.4 437.8 241.8 419.1 255.1C414.3 258.4 409.5 261.9 405.4 264.5C401.3 261.9 396.4 258.5 391.7 255.1C373 241.9 349.8 225.5 325.6 225.5V225.5Z" fill="#0D2133"/>
<path d="M187.4 370.4C175.5 370.7 161.5 370.3 149.9 370.1C128 369.8 110.5 378.8 110.5 402.3C110.5 441.4 171.1 498 183.8 549" stroke="#0D2133" stroke-width="18.36" stroke-miterlimit="10" stroke-linecap="round"/>
<path d="M289.5 292.4C243.9 286.1 206.2 278.6 189.2 306.1C162.2 349.7 224.8 456.8 244.3 528.5" stroke="#0D2133" stroke-width="18.36" stroke-miterlimit="10" stroke-linecap="round"/>
<path d="M404.3 285.7C380 276.7 336.4 224 304.5 251.8C260.9 289.7 327.4 425.7 342.6 512.3M623.3 370.4C635.2 370.7 649.2 370.3 660.8 370.1C682.7 369.8 700.2 378.8 700.2 402.3C700.2 441.4 639.6 498 626.9 549" stroke="#0D2133" stroke-width="18.36" stroke-miterlimit="10" stroke-linecap="round"/>
<path d="M521.3 292.4C566.9 286.1 604.6 278.6 621.6 306.1C648.6 349.7 586 456.8 566.5 528.5" stroke="#0D2133" stroke-width="18.36" stroke-miterlimit="10" stroke-linecap="round"/>
<path d="M406.5 285.7C430.8 276.7 474.4 224 506.3 251.8C549.9 289.7 483.4 425.7 468.2 512.3" stroke="#0D2133" stroke-width="18.36" stroke-miterlimit="10" stroke-linecap="round"/>
<path d="M405.4 271.7V456.2" stroke="#0D2133" stroke-width="15.12" stroke-miterlimit="10" stroke-linecap="round"/>
<path d="M632.9 552.5L660.7 483.7C649.6 498.3 635.9 500.5 626.8 498C599.8 490 600.3 457.4 602.4 431.5C586 461 563.1 476.2 538.5 471C513.6 465.7 498.5 430.5 499.5 402.4C482 438 450.1 456.5 405.4 456.5C360.7 456.5 328.8 438 311.3 402.4C312.4 430.5 297.3 465.7 272.3 471C247.7 476.2 224.9 461 208.4 431.5C210.3 457.4 211 490 184 498C174.9 500.7 161.1 498.3 150.1 483.7L177.9 552.5" fill="#B1DDE7"/>
<path d="M632.9 552.5L660.7 483.7C649.6 498.3 635.9 500.5 626.8 498C599.8 490 600.3 457.4 602.4 431.5C586 461 563.1 476.2 538.5 471C513.6 465.7 498.5 430.5 499.5 402.4C482 438 450.1 456.5 405.4 456.5C360.7 456.5 328.8 438 311.3 402.4C312.4 430.5 297.3 465.7 272.3 471C247.7 476.2 224.9 461 208.4 431.5C210.3 457.4 211 490 184 498C174.9 500.7 161.1 498.3 150.1 483.7L177.9 552.5" stroke="#0D2133" stroke-width="18.36" stroke-miterlimit="10"/>
<path d="M167.9 574.8C167.9 540.5 274.2 513.1 405.3 513.1C536.4 513.1 642.7 540.4 642.7 574.8M167.7 576.7L183.9 641.7M643.1 576.7L626.9 641.7" stroke="#0D2133" stroke-width="21.6" stroke-miterlimit="10" stroke-linecap="round"/>
<path d="M405.4 690.8C527.676 690.8 626.8 668.549 626.8 641.1C626.8 613.651 527.676 591.4 405.4 591.4C283.124 591.4 184 613.651 184 641.1C184 668.549 283.124 690.8 405.4 690.8Z" stroke="#0D2133" stroke-width="21.6" stroke-miterlimit="10" stroke-linecap="round"/>
<path d="M342.8 159.4H468M404.3 94.6V283.6V94.6Z" stroke="#0D2133" stroke-width="30.24" stroke-miterlimit="10"/>
</svg>
