<svg width="800" height="800" viewBox="0 0 800 800" fill="none" xmlns="http://www.w3.org/2000/svg">
<path d="M400 704.4C338 704.4 279.5 698.9 235.2 689C185.5 677.9 161 663.2 160.2 644.2L150 587V586.1C150 580.7 151.6 572.9 158.6 564.7C151.1 521.6 134 447.5 114 372.5C95.6002 365.6 83.2002 348 83.2002 327.9C83.2002 301.5 104.6 280.2 130.9 280.2C157.2 280.2 178.6 301.6 178.6 327.9C178.6 339 174.9 349.4 168 357.8C189.1 424.9 214.9 494.5 232.9 533L238.2 531.7C237.7 476.4 229.1 367.4 217.6 270.1C199 262.1 186.6 243.5 186.6 223C186.6 194.7 209.6 171.7 237.9 171.7C266.2 171.7 289.2 194.7 289.2 223C289.2 236.8 283.8 249.7 274.2 259.3C292.1 352.8 321.9 470.9 339.5 518.2L344.9 517.9C353.5 451.9 364.3 333.4 369.5 223.4C354.6 213.5 345.7 196.9 345.7 178.9C345.7 149.1 369.9 124.9 399.7 124.9C429.5 124.9 453.7 149.1 453.7 178.9C453.7 196.9 444.8 213.5 430.2 223.5C435.4 333.6 446.2 452 454.8 518L460.2 518.3C477.8 471 507.6 353 525.5 259.4C515.9 249.8 510.5 236.9 510.5 223.1C510.5 194.8 533.5 171.8 561.8 171.8C590.1 171.8 613.1 194.8 613.1 223.1C613.1 243.7 600.7 262.2 582.1 270.2C570.5 367.5 561.9 476.5 561.5 531.8L566.8 533.1C584.8 494.7 610.6 425 631.7 357.9C624.8 349.5 621.1 339 621.1 328C621.1 301.6 642.5 280.3 668.8 280.3C695.1 280.3 716.5 301.7 716.5 328C716.5 348.1 704.1 365.7 685.7 372.6C665.8 447.7 648.7 521.7 641.1 564.8C646.8 571.5 649.7 578.6 649.7 586.1V587L639.4 644.7C638.2 663.6 613.7 678.2 564.4 689.3C520.6 698.9 462.1 704.4 400 704.4V704.4ZM215 632.7C225.8 639.9 249.9 647 281.2 651.8C315.5 657.2 356.6 660 400 660C498 660 563.9 646.2 584.2 633.1L587.5 630.2C583.3 626 570.5 618.8 538.8 612.5C503.5 605.6 454.1 601.8 399.9 601.8C349.6 601.8 301.7 605.7 265.3 612.8C232.1 619.3 217.8 626.6 212.7 630.7L215 632.7Z" fill="#0D2133"/>
<path d="M400 134.5C424.4 134.5 444.3 154.4 444.3 178.8C444.3 195.9 434.7 210.7 420.5 218C425.6 332 437.3 460.6 446.5 527.1L466.9 528.4C485 483.7 518.3 351.6 536.3 255.8C526.6 248.2 520.4 236.4 520.4 223.1C520.4 200.1 539 181.5 562 181.5C585 181.5 603.6 200.1 603.6 223.1C603.6 242.1 590.9 258.1 573.4 263.1C561.1 365.2 551.6 485.1 551.9 539.5L572.3 544.4C592.6 503.3 622 422.5 642.7 355.5C635.5 348.6 630.9 338.9 630.9 328C630.9 307 647.9 290 668.9 290C689.9 290 706.9 307 706.9 328C706.9 345.9 694.5 360.9 677.8 364.9C657 442.9 638.3 523.1 630.8 568C636.8 573.7 640.2 579.8 640.2 586.1L630 643.1L629.9 643.2C629.9 671.7 526.9 694.8 399.9 694.8C272.8 694.8 169.9 671.4 169.9 643.3L159.7 586.2C159.7 579.9 162.9 573.7 169.1 567.9C161.6 523 143 442.7 122.1 364.8C105.5 360.8 93.0001 345.8 93.0001 327.9C93.0001 306.9 110 289.9 131 289.9C152.1 289.9 169 306.9 169 327.9C169 338.7 164.5 348.5 157.2 355.4C178 422.4 207.3 503.3 227.6 544.3L248 539.4C248.3 485.2 238.8 365.1 226.5 263C209.1 258 196.3 242 196.3 223C196.3 200 214.9 181.4 237.9 181.4C260.9 181.4 279.5 200 279.5 223C279.5 236.3 273.2 248.1 263.6 255.7C281.6 351.5 314.8 483.6 333 528.3L353.4 527C362.5 460.5 374.2 332 379.4 217.9C365.3 210.4 355.6 195.8 355.6 178.7C355.7 154.4 375.6 134.5 400 134.5V134.5ZM400 669.8C489.4 669.8 565 657.7 590.2 641L599.2 633.1C599.2 607.5 510.1 592.1 400.2 592.1C290.3 592.1 201.2 610.5 201.2 633.1L209.3 640.3C233.3 657.3 309.6 669.8 400 669.8V669.8ZM400 115.1C364.9 115.1 336.3 143.7 336.3 178.8C336.3 198.1 344.9 216.1 359.5 228C355.1 320.8 346.6 418.8 339 485.8C322 430.4 299.4 337.7 284.7 262.3C293.9 251.4 299.1 237.6 299.1 223C299.1 189.3 271.8 162 238.1 162C204.4 162 177.1 189.3 177.1 223C177.1 236.5 181.4 249.4 189.7 260.2C194.9 266.9 201.4 272.5 208.8 276.6C217.9 354 225 438.1 227.7 495.8C212.4 458.2 194.5 408.4 179.1 359.5C185.3 350.2 188.7 339.1 188.7 327.9C188.7 296.3 162.9 270.4 131.2 270.4C99.6001 270.4 73.6001 296.1 73.6001 327.7C73.6001 350.2 86.5001 369.9 105.9 379.3C124.6 450.1 140.7 519.5 148.3 561.9C141.8 571 140.2 579.6 140.2 585.9V587.6L140.5 589.3L150.4 645.1C150.8 650.8 153 658.6 160.1 666.5C164.7 671.5 170.8 675.9 178.8 680.1C191.9 687 210.1 693.2 232.9 698.2C277.9 708.4 337.2 713.9 399.9 713.9C462.8 713.9 522 708.4 566.9 698.2C589.7 693.1 607.9 687 621 679.9C629 675.7 635 671.2 639.7 666.2C643.8 661.7 646.3 657.1 647.7 653L648 652.7L648.3 650.9C648.8 649 649.2 647.1 649.3 645.4L659.3 589L659.6 587.3V586C659.6 579.8 658 571.2 651.5 562.1C659.1 519.7 675.3 450.3 693.9 379.5C713.3 370.1 726.2 350.2 726.2 327.9C726.2 296.3 700.4 270.4 668.7 270.4C637.1 270.4 611.2 296.2 611.2 327.9C611.2 339.2 614.5 350.3 620.8 359.5C605.4 408.4 587.4 458.2 572.2 495.8C574.9 438 582 354 591.1 276.6C598.4 272.5 605 267 610.2 260.2C618.4 249.5 622.8 236.7 622.8 223C622.8 189.3 595.5 162 561.8 162C528.1 162 500.8 189.3 500.8 223C500.8 237.6 505.9 251.4 515.2 262.3C500.5 337.7 477.8 430.3 460.9 485.8C453.2 418.8 444.8 320.9 440.4 228C454.9 216.1 463.5 198.2 463.5 178.9C463.7 143.7 435.1 115.1 400 115.1V115.1ZM234 631C242.5 628 255.6 624.3 275.3 621C310 615 354.2 611.7 400 611.7C448 611.7 491.2 614.6 525.1 620.1C546.2 623.6 559.4 627.2 567.8 630.5C558.3 634.1 542.3 638.6 516.3 642.6C482.6 647.8 442.4 650.5 400.1 650.5C357.2 650.5 316.7 647.7 282.8 642.4C258.8 638.6 243.6 634.3 234 631V631Z" fill="#0D2133"/>
<path d="M400 138.8C414.304 138.8 425.9 127.204 425.9 112.9C425.9 98.5958 414.304 87 400 87C385.696 87 374.1 98.5958 374.1 112.9C374.1 127.204 385.696 138.8 400 138.8Z" fill="#0D2133"/>
<path d="M225 187.8C237.703 187.8 248 177.503 248 164.8C248 152.097 237.703 141.8 225 141.8C212.297 141.8 202 152.097 202 164.8C202 177.503 212.297 187.8 225 187.8Z" fill="#0D2133"/>
<path d="M113.8 296.2C126.171 296.2 136.2 286.171 136.2 273.8C136.2 261.429 126.171 251.4 113.8 251.4C101.429 251.4 91.3999 261.429 91.3999 273.8C91.3999 286.171 101.429 296.2 113.8 296.2Z" fill="#0D2133"/>
<path d="M575 187.8C587.703 187.8 598 177.503 598 164.8C598 152.097 587.703 141.8 575 141.8C562.297 141.8 552 152.097 552 164.8C552 177.503 562.297 187.8 575 187.8Z" fill="#0D2133"/>
<path d="M687.3 296.2C699.671 296.2 709.7 286.171 709.7 273.8C709.7 261.429 699.671 251.4 687.3 251.4C674.929 251.4 664.9 261.429 664.9 273.8C664.9 286.171 674.929 296.2 687.3 296.2Z" fill="#0D2133"/>
<path d="M117.6 287.9L113.1 272.9" stroke="#B1DDE7" stroke-width="17.28" stroke-miterlimit="10" stroke-linecap="round"/>
<path d="M228.8 180.7L224.4 162.7" stroke="#B1DDE7" stroke-width="18.36" stroke-miterlimit="10" stroke-linecap="round"/>
<path d="M682.7 287.9L687.3 272.9" stroke="#B1DDE7" stroke-width="17.28" stroke-miterlimit="10" stroke-linecap="round"/>
<path d="M570.4 180.7L575 162.7" stroke="#B1DDE7" stroke-width="18.36" stroke-miterlimit="10" stroke-linecap="round"/>
<path d="M399.5 108.6V127" stroke="#B1DDE7" stroke-width="20.52" stroke-miterlimit="10" stroke-linecap="round"/>
<path d="M263.7 255.8C273.4 248.2 279.6 236.4 279.6 223.1C279.6 200.1 261 181.5 238 181.5C215 181.5 196.4 200.1 196.4 223.1C196.4 242.1 209.1 258.1 226.6 263.1C238.9 365.2 248.4 478.7 248.1 533L227.7 537.9M420.5 218C434.6 210.5 444.3 195.9 444.3 178.8C444.3 154.4 424.4 134.5 400 134.5C375.6 134.5 355.7 154.4 355.7 178.8C355.7 195.9 365.3 210.7 379.5 218C374.4 332 362.7 454.1 353.5 520.6L333.1 521.9M573.3 263C590.7 258 603.5 242 603.5 223C603.5 200 584.9 181.4 561.9 181.4C538.9 181.4 520.3 200 520.3 223C520.3 236.3 526.6 248.1 536.2 255.7C518.2 351.5 485 477.1 466.8 521.8L446.4 520.5M677.9 364.8C694.5 360.8 707 345.8 707 327.9C707 306.9 690 289.9 669 289.9C648 289.9 631 306.9 631 327.9C631 338.7 635.5 348.5 642.8 355.4C622 422.4 592.7 496.8 572.4 537.8L552 532.9" stroke="#B1DDE7" stroke-width="15.12" stroke-miterlimit="10" stroke-linecap="round" stroke-linejoin="round"/>
<path d="M157.2 355.4C164.4 348.5 169 338.8 169 327.9C169 306.9 152 289.9 131 289.9C109.9 289.9 93 306.9 93 327.9C93 345.8 105.4 360.8 122.1 364.8C142.9 442.8 161.6 519.8 169.1 564.7C163.1 570.4 159.7 576.5 159.7 582.8L169.9 643.1C169.9 614.6 272.9 591.5 400 591.5C527.1 591.5 630.1 614.6 630.1 643.1L640.3 582.8C640.3 576.5 637.1 570.5 630.9 564.7" stroke="#B1DDE7" stroke-width="15.12" stroke-miterlimit="10" stroke-linecap="round" stroke-linejoin="round"/>
</svg>
