<svg width="800" height="800" viewBox="0 0 800 800" fill="none" xmlns="http://www.w3.org/2000/svg">
<path d="M401.1 704.4C339.1 704.4 280.6 698.9 236.3 689C186.7 677.9 162.2 663.2 161.3 644.3L151.1 590.3V589.4C151.1 584 152.7 576.2 159.7 568C151.7 521.5 133.8 442.8 115.1 372.5C96.6998 365.6 84.2998 348 84.2998 327.9C84.2998 301.5 105.7 280.2 132 280.2C158.3 280.2 179.7 301.6 179.7 327.9C179.7 339 176 349.4 169.1 357.8C190.2 424.9 216 494.5 234 533L239.3 531.7C238.8 476.4 230.2 367.4 218.7 270.1C200.1 262.1 187.7 243.5 187.7 223C187.7 194.7 210.7 171.7 239 171.7C267.3 171.7 290.3 194.7 290.3 223C290.3 236.8 284.9 249.7 275.3 259.3C293.2 352.8 323 470.9 340.6 518.2L346 517.9C354.6 451.9 365.4 333.4 370.6 223.4C355.7 213.4 346.8 196.8 346.8 178.8C346.8 149 371 124.8 400.8 124.8C430.6 124.8 454.8 149 454.8 178.8C454.8 196.8 445.9 213.4 431.3 223.4C436.5 333.5 447.3 451.9 455.9 517.9L461.3 518.2C478.9 470.9 508.7 352.9 526.6 259.3C517 249.7 511.6 236.8 511.6 223C511.6 194.7 534.6 171.7 562.9 171.7C591.2 171.7 614.2 194.7 614.2 223C614.2 243.6 601.8 262.1 583.2 270.1C571.6 367.4 563 476.4 562.6 531.7L567.9 533C585.9 494.6 611.7 424.9 632.8 357.8C625.9 349.4 622.2 338.9 622.2 327.9C622.2 301.5 643.6 280.2 669.9 280.2C696.2 280.2 717.6 301.6 717.6 327.9C717.6 348 705.2 365.6 686.8 372.5C668.1 442.8 650.3 521.4 642.2 568C647.9 574.7 650.8 581.8 650.8 589.3V590.2L640.5 644.5C639.3 663.4 614.8 678 565.5 689.1C521.7 698.9 463.2 704.4 401.1 704.4V704.4ZM211.7 613.7C213.1 616.7 225.4 626.1 266.3 634C302.8 641 350.5 645 400.9 645C451.2 645 499.1 641.1 535.5 634C576.4 626 588.9 616.7 590.1 613.7C588.7 610.7 576.4 601.3 535.5 593.4C499 586.4 451.3 582.4 400.9 582.4C350.6 582.4 302.7 586.3 266.3 593.4C225.5 601.3 213.2 610.7 211.7 613.7V613.7Z" fill="#B1DDE7" stroke="#0D2133" stroke-width="20.52" stroke-miterlimit="10"/>
<path d="M592.9 607.6C551.1 621.4 480.6 630.8 401.1 630.8C320.7 630.8 252.2 621.3 210.5 607.3C197 610.8 171 628.4 171 643C171 671.5 274 694.6 401 694.6C528 694.6 631 671.5 631 643C631.1 628.8 606.6 611.3 592.9 607.6Z" fill="#B1DDE7" stroke="#0D2133" stroke-width="16.2" stroke-miterlimit="10"/>
<path d="M401.1 591.4C528.2 591.4 631.2 614.5 631.2 643L641.4 582.7C641.4 576.4 638.2 570.4 632 564.6C639.5 519.7 658.1 442.7 679 364.7C695.6 360.7 708.1 345.7 708.1 327.8C708.1 306.8 691.1 289.8 670.1 289.8C649 289.8 632.1 306.8 632.1 327.8C632.1 338.6 636.6 348.4 643.9 355.3C623.1 422.3 593.8 496.7 573.5 537.7L553.1 532.8C552.8 478.6 562.3 365 574.6 262.9C592 257.9 604.8 241.9 604.8 222.9C604.8 199.9 586.2 181.3 563.2 181.3C540.2 181.3 521.5 200 521.5 223C521.5 236.3 527.8 248.1 537.4 255.7C519.4 351.5 486.2 477.1 468 521.8L447.6 520.5C438.5 454 426.8 331.9 421.6 217.9C435.7 210.4 445.4 195.8 445.4 178.7C445.4 154.3 425.5 134.4 401.1 134.4C376.7 134.4 356.8 154.3 356.8 178.7C356.8 195.8 366.4 210.6 380.6 217.9C375.5 331.9 363.8 454 354.6 520.5L334.2 521.8C316.1 477.1 282.8 351.5 264.8 255.7C274.5 248.1 280.7 236.3 280.7 223C280.7 200 262.1 181.4 239.1 181.4C216.1 181.4 197.3 200 197.3 223C197.3 242 210 258 227.5 263C239.8 365 249.3 478.5 249 532.8L228.6 537.7C208.3 496.6 178.9 422.2 158.2 355.3C165.4 348.4 170 338.7 170 327.8C170 306.8 153 289.8 132 289.8C110.9 289.8 94 306.8 94 327.8C94 345.7 106.4 360.7 123.1 364.7C143.9 442.7 162.6 519.7 170.1 564.6C164.1 570.3 160.7 576.4 160.7 582.7L170.9 643C170.9 614.5 274 591.4 401.1 591.4V591.4Z" fill="#B1DDE7" stroke="#0D2133" stroke-width="17.28" stroke-miterlimit="10"/>
<path d="M401.1 138.8C415.404 138.8 427 127.204 427 112.9C427 98.5958 415.404 87 401.1 87C386.796 87 375.2 98.5958 375.2 112.9C375.2 127.204 386.796 138.8 401.1 138.8Z" fill="#0D2133"/>
<path d="M226.1 187.8C238.803 187.8 249.1 177.503 249.1 164.8C249.1 152.097 238.803 141.8 226.1 141.8C213.398 141.8 203.1 152.097 203.1 164.8C203.1 177.503 213.398 187.8 226.1 187.8Z" fill="#0D2133"/>
<path d="M114.9 296.2C127.271 296.2 137.3 286.171 137.3 273.8C137.3 261.429 127.271 251.4 114.9 251.4C102.529 251.4 92.5 261.429 92.5 273.8C92.5 286.171 102.529 296.2 114.9 296.2Z" fill="#0D2133"/>
<path d="M576 187.8C588.703 187.8 599 177.503 599 164.8C599 152.097 588.703 141.8 576 141.8C563.297 141.8 553 152.097 553 164.8C553 177.503 563.297 187.8 576 187.8Z" fill="#0D2133"/>
<path d="M688.4 296.2C700.771 296.2 710.8 286.171 710.8 273.8C710.8 261.429 700.771 251.4 688.4 251.4C676.029 251.4 666 261.429 666 273.8C666 286.171 676.029 296.2 688.4 296.2Z" fill="#0D2133"/>
</svg>
