<svg width="32" height="32" viewBox="0 0 32 32" fill="none" xmlns="http://www.w3.org/2000/svg">
<path d="M22.2757 18.7871L22.2469 25.2022H9.44546V18.715L15.8606 15.3705L22.2757 18.7871ZM15.8462 16.4084L10.4113 19.2916V24.2219H21.281V19.2916L15.8462 16.4084ZM25.6779 6.00001V11.1754L20.863 13.7703L25.6779 16.3508V28.6477H6V16.3508L17.158 10.4402L6 10.4257V6L25.6779 6.00001ZM24.7121 6.9803H6.98029V9.45987H20.8774L6.98029 16.9562V27.6674H24.7121V16.8841L18.8015 13.7847L24.7121 10.5843V6.9803Z" fill="black"/>
<path d="M22.2758 18.7871L22.247 25.2022H9.44554V18.715L15.8607 15.3705L22.2758 18.7871ZM24.7121 6.9803H6.98038V9.45987H20.8775L6.98038 16.9562V27.6674H24.7121V16.8841L18.8016 13.7847L24.7121 10.5843V6.9803Z" fill="white"/>
</svg>
