<svg width="32" height="32" viewBox="0 0 32 32" fill="none" xmlns="http://www.w3.org/2000/svg">
<path d="M10.7962 25.2422H21.7076C22.2141 25.2422 22.4674 25.4955 22.4674 26.0021C22.4674 26.5086 22.2141 26.7619 21.7076 26.7619H10.7962C10.2897 26.7619 10.0364 26.5086 10.0364 26.0021C10.0364 25.4955 10.2897 25.2422 10.7962 25.2422ZM14.4435 29.9077C13.7039 29.9077 12.9643 29.9077 12.2247 29.9077C11.4953 29.9077 10.7658 29.9077 10.0364 29.9077C9.69192 29.9077 9.44877 29.6442 9.30693 29.1174C9.17523 28.5906 9.003 28.1499 8.79024 27.7953C9.91481 27.7953 11.0343 27.8004 12.1488 27.8105C13.2733 27.8105 14.3979 27.8156 15.5225 27.8257C15.3401 28.1904 15.2337 28.6463 15.2033 29.1934C15.1831 29.7304 14.9298 29.9684 14.4435 29.9077V29.9077ZM18.0451 29.9077C17.5892 29.9583 17.341 29.7152 17.3005 29.1782C17.2701 28.6413 17.1637 28.1904 16.9814 27.8257C18.0857 27.8156 19.2001 27.8105 20.3247 27.8105C21.4594 27.8004 22.589 27.7953 23.7136 27.7953C23.5008 28.1499 23.3235 28.5906 23.1817 29.1174C23.0398 29.6443 22.7967 29.9077 22.4522 29.9077C21.7228 29.9077 20.9883 29.9077 20.2487 29.9077C19.5192 29.9077 18.7847 29.9077 18.0451 29.9077V29.9077ZM17.0118 7.82662L16.9965 8.49528C19.0937 8.66751 20.8667 9.47801 22.3154 10.9268C23.7743 12.3755 24.5038 14.0877 24.5038 16.0633C24.5038 16.9447 24.3265 17.8819 23.9719 18.8747C23.4856 19.6245 23.05 20.4198 22.665 21.2606C22.28 22.1015 22.052 23.0539 21.9811 24.1177C20.0663 24.1177 18.1515 24.1177 16.2367 24.1177C14.332 24.1177 12.4274 24.1177 10.5227 24.1177C10.4112 22.983 10.1782 22.0458 9.82362 21.3062C9.46903 20.5565 9.04352 19.7612 8.54709 18.9203C8.18237 17.9781 8 17.0258 8 16.0633C8 14.0877 8.72439 12.3755 10.1732 10.9268C11.6321 9.47801 13.4101 8.66751 15.5072 8.49528L15.4921 7.82662C14.6512 7.50242 14.2307 7.03132 14.2307 6.41331C14.2307 6.02832 14.4232 5.69906 14.8082 5.42551C15.2033 5.14184 15.6744 5 16.2215 5C16.7686 5 17.2397 5.14184 17.6348 5.42551C18.0299 5.69906 18.2275 6.02832 18.2275 6.41331C18.2275 7.05158 17.8222 7.52268 17.0118 7.82662V7.82662ZM15.2185 21.5038H17.2701L17.8172 16.7928L19.8688 16.3065V14.2397L17.8172 13.6926L17.2701 11.0939H15.2185L14.6866 13.6926L12.635 14.2397V16.3065L14.6866 16.7928L15.2185 21.5038Z" fill="black"/>
<path d="M15.2185 21.5038H17.2701L17.8172 16.7928L19.8688 16.3065V14.2397L17.8172 13.6926L17.2701 11.0939H15.2185L14.6867 13.6926L12.6351 14.2397V16.3065L14.6867 16.7928L15.2185 21.5038Z" fill="#EEEEEE"/>
</svg>
