<svg width="32" height="32" viewBox="0 0 32 32" fill="none" xmlns="http://www.w3.org/2000/svg">
<path d="M9.74762 18.9051C10.1326 19.5333 10.472 20.1918 10.7658 20.8807C11.0697 21.5595 11.2217 22.2788 11.2217 23.0387C12.8934 23.0387 14.5701 23.0387 16.2519 23.0387C17.9337 23.0387 19.6155 23.0387 21.2972 23.0387C21.4188 21.6608 21.9102 20.2779 22.7713 18.8899C23.2475 18.0085 23.4856 17.0663 23.4856 16.0633C23.4856 14.2701 22.7764 12.7301 21.358 11.4435C19.9397 10.1568 18.2376 9.51347 16.2519 9.51347C14.2459 9.51347 12.5388 10.1568 11.1305 11.4435C9.7223 12.7301 9.01818 14.2701 9.01818 16.0633C9.01818 17.0663 9.26132 18.0136 9.74762 18.9051ZM15.2185 21.5038L14.6866 16.7928L12.635 16.3065V14.2397L14.6866 13.6926L15.2185 11.0939H17.2701L17.8172 13.6926L19.8687 14.2397V16.3065L17.8172 16.7928L17.2701 21.5038H15.2185ZM16.2823 6.003C15.7048 6.003 15.4161 6.17016 15.4161 6.50449C15.4161 6.82869 15.7048 6.99079 16.2823 6.99079C16.8496 6.99079 17.1333 6.82869 17.1333 6.50449C17.1333 6.17016 16.8496 6.003 16.2823 6.003ZM17.0117 7.82662L16.9965 8.49528C19.0937 8.66751 20.8667 9.47801 22.3154 10.9268C23.7743 12.3755 24.5038 14.0877 24.5038 16.0633C24.5038 16.9447 24.3265 17.8819 23.9719 18.8747C23.4856 19.6245 23.05 20.4198 22.665 21.2606C22.28 22.1015 22.052 23.0539 21.9811 24.1177C20.0663 24.1177 18.1515 24.1177 16.2367 24.1177C14.332 24.1177 12.4274 24.1177 10.5227 24.1177C10.4112 22.983 10.1782 22.0458 9.82362 21.3062C9.46903 20.5565 9.04351 19.7612 8.54708 18.9203C8.18236 17.9781 8 17.0258 8 16.0633C8 14.0877 8.72438 12.3755 10.1731 10.9268C11.632 9.47801 13.4101 8.66751 15.5072 8.49528L15.492 7.82662C14.6512 7.50242 14.2307 7.03132 14.2307 6.41331C14.2307 6.02832 14.4232 5.69906 14.8082 5.42551C15.2033 5.14184 15.6744 5 16.2215 5C16.7686 5 17.2397 5.14184 17.6348 5.42551C18.0299 5.69906 18.2275 6.02832 18.2275 6.41331C18.2275 7.05158 17.8222 7.52268 17.0117 7.82662ZM18.0451 29.9077C17.5892 29.9583 17.341 29.7152 17.3005 29.1782C17.2701 28.6413 17.1637 28.1904 16.9813 27.8257C18.0856 27.8156 19.2001 27.8105 20.3246 27.8105C21.4593 27.8004 22.589 27.7953 23.7135 27.7953C23.5008 28.1499 23.3235 28.5906 23.1817 29.1174C23.0398 29.6443 22.7967 29.9077 22.4522 29.9077C21.7228 29.9077 20.9882 29.9077 20.2486 29.9077C19.5192 29.9077 18.7847 29.9077 18.0451 29.9077ZM14.4435 29.9077C13.7039 29.9077 12.9643 29.9077 12.2247 29.9077C11.4953 29.9077 10.7658 29.9077 10.0364 29.9077C9.6919 29.9077 9.44875 29.6443 9.30692 29.1174C9.17521 28.5906 9.00298 28.1499 8.79023 27.7953C9.91479 27.7953 11.0343 27.8004 12.1487 27.8105C13.2733 27.8105 14.3979 27.8156 15.5224 27.8257C15.3401 28.1904 15.2337 28.6463 15.2033 29.1934C15.183 29.7304 14.9298 29.9685 14.4435 29.9077ZM10.7962 25.2422H21.7076C22.2141 25.2422 22.4674 25.4955 22.4674 26.0021C22.4674 26.5086 22.2141 26.7619 21.7076 26.7619H10.7962C10.2896 26.7619 10.0364 26.5086 10.0364 26.0021C10.0364 25.4955 10.2896 25.2422 10.7962 25.2422Z" fill="black"/>
<path d="M9.7476 18.9052C10.1326 19.5333 10.472 20.1918 10.7658 20.8807C11.0697 21.5595 11.2217 22.2789 11.2217 23.0387C12.8934 23.0387 14.5701 23.0387 16.2519 23.0387C17.9336 23.0387 19.6154 23.0387 21.2972 23.0387C21.4188 21.6609 21.9102 20.2779 22.7713 18.89C23.2475 18.0085 23.4856 17.0663 23.4856 16.0633C23.4856 14.2701 22.7764 12.7302 21.358 11.4435C19.9396 10.1568 18.2376 9.5135 16.2519 9.5135C14.2459 9.5135 12.5388 10.1568 11.1305 11.4435C9.72228 12.7302 9.01816 14.2701 9.01816 16.0633C9.01816 17.0663 9.2613 18.0136 9.7476 18.9052ZM15.2185 21.5038L14.6866 16.7928L12.635 16.3065V14.2397L14.6866 13.6926L15.2185 11.094H17.2701L17.8171 13.6926L19.8687 14.2397V16.3065L17.8171 16.7928L17.2701 21.5038H15.2185ZM16.2823 6.00302C15.7048 6.00302 15.416 6.17018 15.416 6.50452C15.416 6.82871 15.7048 6.99082 16.2823 6.99082C16.8496 6.99082 17.1333 6.82871 17.1333 6.50452C17.1333 6.17018 16.8496 6.00302 16.2823 6.00302Z" fill="white"/>
</svg>
