<svg width="32" height="32" viewBox="0 0 32 32" fill="none" xmlns="http://www.w3.org/2000/svg">
<path d="M12.158 28.7619C13.4953 28.7619 14.8529 28.7619 16.2307 28.7619C17.6086 28.7619 18.9864 28.7619 20.3643 28.7619C20.5669 28.7619 20.6935 28.6302 20.7442 28.3668C20.8049 28.0932 20.8961 27.8653 21.0177 27.6829C19.4271 27.6829 17.8365 27.6829 16.2459 27.6829C14.6654 27.6829 13.085 27.6829 11.5045 27.6829C11.6058 27.8653 11.6868 28.0932 11.7476 28.3668C11.8084 28.6302 11.9452 28.7619 12.158 28.7619ZM12.158 29.7953C11.5197 29.7953 11.0891 29.4052 10.8662 28.6251C10.6433 27.8349 10.3546 27.1764 10 26.6495C12.0769 26.6495 14.1589 26.6495 16.2459 26.6495C18.3329 26.6495 20.425 26.6495 22.5222 26.6495C22.1575 27.1764 21.8637 27.8349 21.6408 28.6251C21.4179 29.4052 20.9924 29.7953 20.3643 29.7953C18.8446 29.7953 17.4161 29.7953 16.0787 29.7953C14.7516 29.7953 13.4446 29.7953 12.158 29.7953V29.7953ZM18.2367 11.1336H19.4221C19.7564 11.1336 19.9236 11.3058 19.9236 11.6502C19.9236 11.9947 19.7564 12.1669 19.4221 12.1669H13.1002C12.7557 12.1669 12.5835 11.9947 12.5835 11.6502C12.5835 11.3058 12.7557 11.1336 13.1002 11.1336H14.2703C13.8955 10.7182 13.708 10.1913 13.708 9.55308C13.708 8.85402 13.9562 8.25627 14.4527 7.75984C14.9491 7.25328 15.5519 7 16.2611 7C16.9602 7 17.5579 7.25328 18.0543 7.75984C18.5609 8.25627 18.8142 8.85402 18.8142 9.55308C18.8142 10.1609 18.6217 10.6878 18.2367 11.1336ZM16.2611 7.9878C15.2075 7.9878 14.6806 8.50956 14.6806 9.55308C14.6806 10.6067 15.2075 11.1336 16.2611 11.1336C17.3046 11.1336 17.8264 10.6067 17.8264 9.55308C17.8264 8.50956 17.3046 7.9878 16.2611 7.9878ZM18.9662 24.598H22.0055C22.35 24.598 22.5222 24.7651 22.5222 25.0995C22.5222 25.4439 22.35 25.6162 22.0055 25.6162H10.5015C10.1672 25.6162 10 25.4439 10 25.0995C10 24.7651 10.1672 24.598 10.5015 24.598H13.5257C12.6037 23.7976 12.1428 22.7642 12.1428 21.4978C12.1428 21.0622 12.2137 20.6215 12.3555 20.1757L14.2095 13.2003H18.3127L20.1515 20.1757C20.3035 20.6012 20.3795 21.0419 20.3795 21.4978C20.3795 22.7237 19.9084 23.7571 18.9662 24.598V24.598ZM19.2397 20.7228L17.5528 14.2337H14.9694L13.2825 20.7228C13.2015 20.9558 13.161 21.2141 13.161 21.4978C13.161 22.3488 13.4649 23.0783 14.0728 23.6862C14.6806 24.294 15.4101 24.598 16.2611 24.598C17.1122 24.598 17.8365 24.294 18.4343 23.6862C19.0422 23.0783 19.3461 22.3488 19.3461 21.4978C19.3461 21.2243 19.3106 20.9659 19.2397 20.7228H19.2397Z" fill="black"/>
<path d="M12.158 28.7619C13.4953 28.7619 14.8529 28.7619 16.2307 28.7619C17.6086 28.7619 18.9864 28.7619 20.3643 28.7619C20.5669 28.7619 20.6935 28.6302 20.7442 28.3668C20.805 28.0932 20.8962 27.8653 21.0178 27.6829C19.4272 27.6829 17.8366 27.6829 16.2459 27.6829C14.6655 27.6829 13.085 27.6829 11.5045 27.6829C11.6058 27.8653 11.6869 28.0932 11.7477 28.3668C11.8084 28.6302 11.9452 28.7619 12.158 28.7619ZM16.2611 7.98776C15.2075 7.98776 14.6807 8.50952 14.6807 9.55304C14.6807 10.6067 15.2075 11.1335 16.2611 11.1335C17.3046 11.1335 17.8264 10.6067 17.8264 9.55304C17.8264 8.50952 17.3046 7.98776 16.2611 7.98776ZM19.2397 20.7227L17.5529 14.2337H14.9694L13.2826 20.7227C13.2015 20.9558 13.161 21.2141 13.161 21.4978C13.161 22.3488 13.4649 23.0783 14.0728 23.6861C14.6807 24.294 15.4101 24.5979 16.2612 24.5979C17.1122 24.5979 17.8366 24.294 18.4343 23.6861C19.0422 23.0783 19.3461 22.3488 19.3461 21.4978C19.3461 21.2242 19.3106 20.9659 19.2397 20.7227Z" fill="white"/>
</svg>
