<svg width="32" height="32" viewBox="0 0 32 32" fill="none" xmlns="http://www.w3.org/2000/svg">
<path d="M8.8782 25.309H23.9839C24.4904 25.309 24.7437 25.5623 24.7437 26.0688C24.7437 26.5754 24.4904 26.8287 23.9839 26.8287H8.8782C8.37164 26.8287 8.11835 26.5754 8.11835 26.0688C8.11835 25.5623 8.37164 25.309 8.8782 25.309ZM9.53166 29.9744C9.13655 29.9744 8.863 29.711 8.71103 29.1842C8.55906 28.6574 8.37164 28.2167 8.14875 27.8621C10.9044 27.8621 13.6601 27.8621 16.4158 27.8621C19.1817 27.8621 21.9475 27.8621 24.7133 27.8621C24.4803 28.2167 24.2878 28.6574 24.1359 29.1842C23.9839 29.711 23.7154 29.9744 23.3304 29.9744C21.0205 29.9744 18.7106 29.9744 16.4006 29.9744C14.0907 29.9744 11.8011 29.9744 9.53166 29.9744V29.9744ZM16.431 7.13355C15.8536 7.13355 15.3622 6.93599 14.9569 6.54087C14.5618 6.13562 14.3643 5.64425 14.3643 5.06677C14.3643 4.49942 14.5618 4.01312 14.9569 3.60787C15.3622 3.20262 15.8536 3 16.431 3C16.9984 3 17.4796 3.20262 17.8747 3.60787C18.28 4.01312 18.4826 4.49942 18.4826 5.06677C18.4826 5.64425 18.28 6.13562 17.8747 6.54087C17.4796 6.93599 16.9984 7.13355 16.431 7.13355ZM16.431 15.2943C16.1676 15.74 15.9042 16.1807 15.6408 16.6164C15.3774 17.052 15.119 17.4826 14.8658 17.9081C15.119 18.3438 15.3774 18.7794 15.6408 19.2151C15.9042 19.6507 16.1676 20.0813 16.431 20.5068C16.6843 20.0813 16.9427 19.6507 17.2061 19.2151C17.4695 18.7794 17.7329 18.3438 17.9963 17.9081C17.7329 17.4826 17.4695 17.052 17.2061 16.6164C16.9427 16.1807 16.6843 15.74 16.431 15.2943V15.2943ZM9.68363 15.9325C9.63298 15.1727 9.58232 14.4027 9.53166 13.6226C9.49114 12.8425 9.44555 12.0573 9.39489 11.2671C10.6005 12.0776 11.9125 12.9337 13.3309 13.8354C14.3643 11.7686 15.3977 9.71702 16.431 7.68063C16.9477 8.71402 17.4644 9.75247 17.9811 10.796C18.5079 11.8294 19.0297 12.8577 19.5464 13.881C20.7318 13.0806 22.0336 12.2144 23.452 11.2823C23.4013 12.0624 23.3557 12.8425 23.3152 13.6226C23.2848 14.3926 23.2494 15.1575 23.2088 15.9173C24.151 15.9173 25.0882 15.9173 26.0203 15.9173C26.9625 15.9173 27.9047 15.9173 28.8469 15.9173C28.158 17.3053 27.469 18.6933 26.7801 20.0813C26.1013 21.4591 25.4225 22.842 24.7437 24.23C21.9678 24.23 19.1918 24.23 16.4158 24.23C13.6399 24.23 10.869 24.23 8.10315 24.23C7.41423 22.842 6.72531 21.4591 6.03638 20.0813C5.35759 18.6933 4.67879 17.3053 4 15.9173C4.94221 15.9275 5.88442 15.9325 6.82662 15.9325C7.77896 15.9325 8.73129 15.9325 9.68363 15.9325L9.68363 15.9325ZM24.8349 10.948C24.2574 10.948 23.7661 10.7504 23.3608 10.3553C22.9657 9.95003 22.7681 9.45867 22.7681 8.88119C22.7681 8.32397 22.9657 7.84273 23.3608 7.43748C23.7661 7.03224 24.2574 6.82961 24.8349 6.82961C25.4023 6.82961 25.8835 7.03224 26.2786 7.43748C26.6839 7.84273 26.8865 8.32397 26.8865 8.88119C26.8865 9.45867 26.6839 9.95003 26.2786 10.3553C25.8835 10.7504 25.4023 10.948 24.8349 10.948ZM8.02717 10.948C7.44969 10.948 6.95833 10.7504 6.55308 10.3553C6.15796 9.95003 5.9604 9.45867 5.9604 8.88119C5.9604 8.32397 6.15796 7.84273 6.55308 7.43748C6.95833 7.03224 7.44969 6.82961 8.02717 6.82961C8.59452 6.82961 9.07576 7.03224 9.47088 7.43748C9.87613 7.84273 10.0788 8.32397 10.0788 8.88119C10.0788 9.45867 9.87613 9.95003 9.47088 10.3553C9.07576 10.7504 8.59452 10.948 8.02717 10.948ZM10.1547 18.44C10.3878 18.8858 10.6208 19.3316 10.8538 19.7773C11.0969 20.2231 11.3401 20.6689 11.5832 21.1147C12.0797 21.1147 12.5812 21.1147 13.0877 21.1147C13.5943 21.1147 14.1009 21.1147 14.6074 21.1147C14.3643 20.679 14.1262 20.2383 13.8932 19.7925C13.6601 19.3468 13.4271 18.8959 13.1941 18.44C12.6774 18.44 12.1658 18.44 11.6592 18.44C11.1527 18.44 10.6512 18.44 10.1547 18.44ZM22.7073 18.4248C22.1907 18.4248 21.679 18.4248 21.1725 18.4248C20.676 18.4248 20.1745 18.4248 19.668 18.4248C19.4248 18.8807 19.1867 19.3316 18.9537 19.7773C18.7207 20.2231 18.4826 20.6689 18.2395 21.1147C18.746 21.1147 19.2526 21.1147 19.7592 21.1147C20.2657 21.1147 20.7723 21.1147 21.2788 21.1147C21.5119 20.6689 21.7449 20.2231 21.9779 19.7773C22.221 19.3316 22.4642 18.8807 22.7073 18.4248Z" fill="black"/>
<path d="M16.431 15.2943C16.1676 15.7401 15.9042 16.1808 15.6408 16.6164C15.3774 17.0521 15.119 17.4826 14.8658 17.9081C15.119 18.3438 15.3774 18.7794 15.6408 19.2151C15.9042 19.6507 16.1676 20.0813 16.431 20.5068C16.6843 20.0813 16.9427 19.6507 17.2061 19.2151C17.4695 18.7794 17.7329 18.3438 17.9963 17.9081C17.7329 17.4826 17.4695 17.0521 17.2061 16.6164C16.9427 16.1808 16.6843 15.7401 16.431 15.2943ZM10.1547 18.44C10.3877 18.8858 10.6208 19.3316 10.8538 19.7774C11.0969 20.2231 11.3401 20.6689 11.5832 21.1147C12.0797 21.1147 12.5812 21.1147 13.0877 21.1147C13.5943 21.1147 14.1008 21.1147 14.6074 21.1147C14.3643 20.679 14.1262 20.2383 13.8932 19.7926C13.6601 19.3468 13.4271 18.8959 13.1941 18.44C12.6774 18.44 12.1658 18.44 11.6592 18.44C11.1527 18.44 10.6512 18.44 10.1547 18.44ZM22.7073 18.4248C22.1906 18.4248 21.679 18.4248 21.1725 18.4248C20.676 18.4248 20.1745 18.4248 19.668 18.4248C19.4248 18.8807 19.1867 19.3316 18.9537 19.7774C18.7207 20.2231 18.4826 20.6689 18.2395 21.1147C18.746 21.1147 19.2526 21.1147 19.7591 21.1147C20.2657 21.1147 20.7723 21.1147 21.2788 21.1147C21.5119 20.6689 21.7449 20.2231 21.9779 19.7774C22.221 19.3316 22.4642 18.8807 22.7073 18.4248Z" fill="#EEEEEE"/>
</svg>
