<svg width="32" height="32" viewBox="0 0 32 32" fill="none" xmlns="http://www.w3.org/2000/svg">
<path d="M22.7073 18.4248C22.4642 18.8807 22.221 19.3316 21.9779 19.7773C21.7449 20.2231 21.5119 20.6689 21.2788 21.1147C20.7723 21.1147 20.2657 21.1147 19.7592 21.1147C19.2526 21.1147 18.746 21.1147 18.2395 21.1147C18.4826 20.6689 18.7207 20.2231 18.9537 19.7773C19.1867 19.3316 19.4248 18.8807 19.668 18.4248C20.1745 18.4248 20.676 18.4248 21.1725 18.4248C21.679 18.4248 22.1907 18.4248 22.7073 18.4248ZM10.1547 18.44C10.6512 18.44 11.1527 18.44 11.6592 18.44C12.1658 18.44 12.6774 18.44 13.1941 18.44C13.4271 18.8959 13.6601 19.3468 13.8932 19.7925C14.1262 20.2383 14.3643 20.679 14.6074 21.1147C14.1009 21.1147 13.5943 21.1147 13.0877 21.1147C12.5812 21.1147 12.0797 21.1147 11.5832 21.1147C11.3401 20.6689 11.0969 20.2231 10.8538 19.7773C10.6208 19.3316 10.3878 18.8858 10.1547 18.44ZM8.02717 10.948C7.44969 10.948 6.95833 10.7504 6.55308 10.3553C6.15796 9.95003 5.9604 9.45867 5.9604 8.88119C5.9604 8.32397 6.15796 7.84273 6.55308 7.43748C6.95833 7.03223 7.44969 6.82961 8.02717 6.82961C8.59452 6.82961 9.07576 7.03223 9.47088 7.43748C9.87613 7.84273 10.0788 8.32397 10.0788 8.88119C10.0788 9.45867 9.87613 9.95003 9.47088 10.3553C9.07576 10.7504 8.59452 10.948 8.02717 10.948ZM8.02717 9.91457C8.70597 9.91457 9.04537 9.57011 9.04537 8.88119C9.04537 8.20239 8.70597 7.863 8.02717 7.863C7.33825 7.863 6.99379 8.20239 6.99379 8.88119C6.99379 9.57011 7.33825 9.91457 8.02717 9.91457ZM24.8349 10.948C24.2574 10.948 23.7661 10.7504 23.3608 10.3553C22.9657 9.95003 22.7681 9.45867 22.7681 8.88119C22.7681 8.32397 22.9657 7.84273 23.3608 7.43748C23.7661 7.03223 24.2574 6.82961 24.8349 6.82961C25.4023 6.82961 25.8835 7.03223 26.2786 7.43748C26.6839 7.84273 26.8865 8.32397 26.8865 8.88119C26.8865 9.45867 26.6839 9.95003 26.2786 10.3553C25.8835 10.7504 25.4023 10.948 24.8349 10.948ZM24.8349 9.91457C25.5137 9.91457 25.8531 9.57011 25.8531 8.88119C25.8531 8.20239 25.5137 7.863 24.8349 7.863C24.146 7.863 23.8015 8.20239 23.8015 8.88119C23.8015 9.57011 24.146 9.91457 24.8349 9.91457ZM9.68363 15.9325C9.63298 15.1727 9.58232 14.4027 9.53166 13.6226C9.49114 12.8425 9.44555 12.0573 9.39489 11.2671C10.6005 12.0776 11.9125 12.9337 13.3309 13.8354C14.3643 11.7686 15.3977 9.71702 16.431 7.68064C16.9477 8.71402 17.4644 9.75248 17.9811 10.796C18.5079 11.8294 19.0297 12.8577 19.5464 13.881C20.7318 13.0806 22.0336 12.2144 23.452 11.2823C23.4013 12.0624 23.3557 12.8425 23.3152 13.6226C23.2848 14.3926 23.2494 15.1575 23.2088 15.9173C24.151 15.9173 25.0882 15.9173 26.0203 15.9173C26.9625 15.9173 27.9047 15.9173 28.8469 15.9173C28.158 17.3053 27.469 18.6933 26.7801 20.0813C26.1013 21.4591 25.4225 22.842 24.7437 24.23C21.9678 24.23 19.1918 24.23 16.4158 24.23C13.6399 24.23 10.869 24.23 8.10315 24.23C7.41423 22.842 6.72531 21.4591 6.03638 20.0813C5.35759 18.6933 4.67879 17.3053 4 15.9173C4.94221 15.9275 5.88442 15.9325 6.82662 15.9325C7.77896 15.9325 8.73129 15.9325 9.68363 15.9325H9.68363ZM22.3578 13.1667C21.8614 13.4909 21.3498 13.8303 20.8229 14.1849C20.2961 14.5294 19.7592 14.8941 19.2121 15.2791C18.746 14.3673 18.28 13.4453 17.814 12.5132C17.3479 11.571 16.8869 10.6288 16.431 9.68662C15.965 10.6086 15.499 11.5356 15.0329 12.4676C14.5669 13.3896 14.1009 14.3065 13.6348 15.2183C13.0877 14.8637 12.5508 14.5142 12.024 14.1697C11.5073 13.8151 11.0007 13.4706 10.5043 13.1363C10.5347 13.7847 10.5853 14.428 10.6562 15.0663C10.7272 15.6945 10.7778 16.3226 10.8082 16.9507C9.92678 16.9507 9.04537 16.9507 8.16395 16.9507C7.28253 16.9507 6.40111 16.9507 5.51969 16.9507C6.03639 17.9942 6.55308 19.0378 7.06977 20.0813C7.5966 21.1248 8.12342 22.1632 8.65024 23.1966C11.2337 23.1966 13.8222 23.1966 16.4158 23.1966C19.0094 23.1966 21.6081 23.1966 24.2118 23.1966C24.7285 22.1632 25.2452 21.1248 25.7619 20.0813C26.2887 19.0378 26.8156 17.9942 27.3424 16.9507C26.4711 16.9507 25.5998 16.9507 24.7285 16.9507C23.8674 16.9507 23.0113 16.9507 22.1603 16.9507C22.2109 15.5627 22.2768 14.3014 22.3578 13.1667V13.1667ZM16.431 15.2943C16.6843 15.74 16.9427 16.1807 17.2061 16.6164C17.4695 17.052 17.7329 17.4826 17.9963 17.9081C17.7329 18.3438 17.4695 18.7794 17.2061 19.2151C16.9427 19.6507 16.6843 20.0813 16.431 20.5068C16.1676 20.0813 15.9042 19.6507 15.6408 19.2151C15.3774 18.7794 15.119 18.3438 14.8658 17.9081C15.119 17.4826 15.3774 17.052 15.6408 16.6164C15.9042 16.1807 16.1676 15.74 16.431 15.2943ZM16.431 6.10016C17.1098 6.10016 17.4492 5.7557 17.4492 5.06677C17.4492 4.37785 17.1098 4.03339 16.431 4.03339C15.7421 4.03339 15.3977 4.37785 15.3977 5.06677C15.3977 5.7557 15.7421 6.10016 16.431 6.10016ZM16.431 7.13355C15.8536 7.13355 15.3622 6.93599 14.9569 6.54087C14.5618 6.13562 14.3643 5.64425 14.3643 5.06677C14.3643 4.49942 14.5618 4.01312 14.9569 3.60787C15.3622 3.20263 15.8536 3 16.431 3C16.9984 3 17.4796 3.20263 17.8747 3.60787C18.28 4.01312 18.4826 4.49942 18.4826 5.06677C18.4826 5.64425 18.28 6.13562 17.8747 6.54087C17.4796 6.93599 16.9984 7.13355 16.431 7.13355ZM9.53166 29.9744C9.13655 29.9744 8.863 29.711 8.71103 29.1842C8.55906 28.6574 8.37164 28.2167 8.14875 27.8621C10.9044 27.8621 13.6601 27.8621 16.4158 27.8621C19.1817 27.8621 21.9475 27.8621 24.7133 27.8621C24.4803 28.2167 24.2878 28.6574 24.1359 29.1842C23.9839 29.711 23.7154 29.9744 23.3304 29.9744C21.0205 29.9744 18.7106 29.9744 16.4006 29.9744C14.0907 29.9744 11.8011 29.9744 9.53166 29.9744ZM8.8782 25.309H23.9839C24.4904 25.309 24.7437 25.5623 24.7437 26.0688C24.7437 26.5754 24.4904 26.8287 23.9839 26.8287H8.8782C8.37164 26.8287 8.11835 26.5754 8.11835 26.0688C8.11835 25.5623 8.37164 25.309 8.8782 25.309Z" fill="black"/>
<path d="M22.7074 18.4248C22.4643 18.8807 22.2211 19.3316 21.978 19.7773C21.745 20.2231 21.5119 20.6689 21.2789 21.1147C20.7724 21.1147 20.2658 21.1147 19.7592 21.1147C19.2527 21.1147 18.7461 21.1147 18.2396 21.1147C18.4827 20.6689 18.7208 20.2231 18.9538 19.7773C19.1868 19.3316 19.4249 18.8807 19.6681 18.4248C20.1746 18.4248 20.6761 18.4248 21.1725 18.4248C21.6791 18.4248 22.1907 18.4248 22.7074 18.4248ZM10.1548 18.44C10.6513 18.44 11.1527 18.44 11.6593 18.44C12.1659 18.44 12.6775 18.44 13.1942 18.44C13.4272 18.8959 13.6602 19.3468 13.8932 19.7925C14.1263 20.2383 14.3644 20.679 14.6075 21.1147C14.1009 21.1147 13.5944 21.1147 13.0878 21.1147C12.5813 21.1147 12.0798 21.1147 11.5833 21.1147C11.3402 20.6689 11.097 20.2231 10.8539 19.7773C10.6209 19.3316 10.3878 18.8858 10.1548 18.44ZM8.02726 9.91457C8.70605 9.91457 9.04545 9.57011 9.04545 8.88118C9.04545 8.20239 8.70605 7.86299 8.02726 7.86299C7.33833 7.86299 6.99387 8.20239 6.99387 8.88118C6.99387 9.57011 7.33833 9.91457 8.02726 9.91457ZM24.835 9.91457C25.5138 9.91457 25.8532 9.57011 25.8532 8.88118C25.8532 8.20239 25.5138 7.86299 24.835 7.86299C24.1461 7.86299 23.8016 8.20239 23.8016 8.88118C23.8016 9.57011 24.1461 9.91457 24.835 9.91457ZM22.3579 13.1667C21.8615 13.4909 21.3498 13.8303 20.823 14.1849C20.2962 14.5294 19.7592 14.8941 19.2122 15.2791C18.7461 14.3673 18.2801 13.4453 17.814 12.5132C17.348 11.571 16.887 10.6288 16.4311 9.68662C15.9651 10.6086 15.499 11.5356 15.033 12.4676C14.567 13.3896 14.1009 14.3065 13.6349 15.2183C13.0878 14.8637 12.5509 14.5142 12.024 14.1697C11.5073 13.8151 11.0008 13.4706 10.5043 13.1363C10.5347 13.7847 10.5854 14.428 10.6563 15.0663C10.7272 15.6944 10.7779 16.3226 10.8083 16.9507C9.92687 16.9507 9.04545 16.9507 8.16403 16.9507C7.28261 16.9507 6.40119 16.9507 5.51978 16.9507C6.03647 17.9942 6.55316 19.0378 7.06986 20.0813C7.59668 21.1248 8.1235 22.1632 8.65033 23.1966C11.2338 23.1966 13.8223 23.1966 16.4159 23.1966C19.0095 23.1966 21.6082 23.1966 24.2119 23.1966C24.7286 22.1632 25.2453 21.1248 25.762 20.0813C26.2888 19.0378 26.8156 17.9942 27.3425 16.9507C26.4712 16.9507 25.5999 16.9507 24.7286 16.9507C23.8675 16.9507 23.0114 16.9507 22.1603 16.9507C22.211 15.5627 22.2769 14.3014 22.3579 13.1667ZM16.4311 15.2943C16.6844 15.74 16.9428 16.1807 17.2062 16.6164C17.4696 17.052 17.733 17.4826 17.9964 17.9081C17.733 18.3438 17.4696 18.7794 17.2062 19.2151C16.9428 19.6507 16.6844 20.0813 16.4311 20.5068C16.1677 20.0813 15.9043 19.6507 15.6409 19.2151C15.3775 18.7794 15.1191 18.3438 14.8658 17.9081C15.1191 17.4826 15.3775 17.052 15.6409 16.6164C15.9043 16.1807 16.1677 15.74 16.4311 15.2943ZM16.4311 6.10016C17.1099 6.10016 17.4493 5.7557 17.4493 5.06677C17.4493 4.37785 17.1099 4.03339 16.4311 4.03339C15.7422 4.03339 15.3977 4.37785 15.3977 5.06677C15.3977 5.7557 15.7422 6.10016 16.4311 6.10016Z" fill="white"/>
</svg>
