<svg width="32" height="32" viewBox="0 0 32 32" fill="none" xmlns="http://www.w3.org/2000/svg">
<path d="M26.6069 27.8621C26.2929 28.2167 26.0345 28.6574 25.8319 29.1842C25.6394 29.711 25.3051 29.9744 24.8289 29.9744C21.982 29.9744 19.1301 29.9744 16.2731 29.9744C13.4161 29.9744 10.5844 29.9744 7.77803 29.9744C7.29173 29.9744 6.95234 29.711 6.75984 29.1842C6.56735 28.6574 6.31407 28.2167 6 27.8621L8.52267 25.309L11.1365 10.8112H9.32811C8.79115 10.8112 8.52267 10.5427 8.52267 10.0058C8.52267 9.45867 8.79115 9.18512 9.32811 9.18512H23.2636C23.8107 9.18512 24.0843 9.45867 24.0843 10.0058C24.0843 10.5427 23.8107 10.8112 23.2636 10.8112H21.4856L24.0843 25.309L26.6069 27.8621ZM16.3035 13.3643C15.5538 13.3643 15.1789 13.7087 15.1789 14.3976V17.0115C15.1789 17.6903 15.5538 18.0297 16.3035 18.0297C17.0633 18.0297 17.4432 17.6903 17.4432 17.0115V14.3976C17.4432 13.7087 17.0633 13.3643 16.3035 13.3643V13.3643ZM20.4066 27.8621C19.8393 27.8621 19.353 27.6645 18.9477 27.2694C18.5526 26.8641 18.3551 26.3778 18.3551 25.8105V22.6344C18.3551 22.0771 18.1524 21.5959 17.7472 21.1906C17.3419 20.7854 16.8607 20.5828 16.3035 20.5828C15.726 20.5828 15.2397 20.7854 14.8446 21.1906C14.4495 21.5959 14.2519 22.0771 14.2519 22.6344V25.8105C14.2519 26.3778 14.0442 26.8641 13.6288 27.2694C13.2236 27.6645 12.7373 27.8621 12.1699 27.8621H20.4066ZM23.7803 8.21253C20.9841 8.21253 18.4868 8.21253 16.2883 8.21253C14.0999 8.21253 11.6076 8.21253 8.81142 8.21253C8.22381 8.21253 7.91987 7.60465 7.89961 6.3889C7.88948 5.16302 7.88442 4.03339 7.88442 3C8.34032 3 8.80129 3 9.26733 3C9.73336 3 10.1994 3 10.6654 3L11.638 5.06677H13.9632L14.8902 3H17.7168L18.6286 5.06677H20.9689L21.9415 3H24.7073C24.7073 4.03339 24.6972 5.16302 24.677 6.3889C24.6567 7.60465 24.3578 8.21253 23.7803 8.21253H23.7803Z" fill="black"/>
<path d="M16.3035 13.3643C15.5538 13.3643 15.1789 13.7087 15.1789 14.3977V17.0115C15.1789 17.6903 15.5538 18.0297 16.3035 18.0297C17.0633 18.0297 17.4432 17.6903 17.4432 17.0115V14.3977C17.4432 13.7087 17.0633 13.3643 16.3035 13.3643ZM20.4066 27.8621C19.8393 27.8621 19.353 27.6645 18.9477 27.2694C18.5526 26.8642 18.3551 26.3779 18.3551 25.8105V22.6344C18.3551 22.0771 18.1524 21.5959 17.7472 21.1907C17.3419 20.7854 16.8607 20.5828 16.3035 20.5828C15.726 20.5828 15.2397 20.7854 14.8446 21.1907C14.4495 21.5959 14.2519 22.0771 14.2519 22.6344V25.8105C14.2519 26.3779 14.0442 26.8642 13.6288 27.2694C13.2236 27.6645 12.7373 27.8621 12.1699 27.8621H20.4066Z" fill="#EEEEEE"/>
</svg>
