<svg width="32" height="32" viewBox="0 0 32 32" fill="none" xmlns="http://www.w3.org/2000/svg">
<path d="M23.7803 8.21253C20.9841 8.21253 18.4868 8.21253 16.2883 8.21253C14.0999 8.21253 11.6076 8.21253 8.81142 8.21253C8.22381 8.21253 7.91987 7.60465 7.89961 6.3889C7.88948 5.16302 7.88442 4.03339 7.88442 3C8.34032 3 8.80129 3 9.26733 3C9.73336 3 10.1994 3 10.6654 3L11.638 5.06677H13.9632L14.8902 3H17.7168L18.6286 5.06677H20.9689L21.9415 3H24.7073C24.7073 4.03339 24.6972 5.16302 24.677 6.3889C24.6567 7.60465 24.3578 8.21253 23.7803 8.21253H23.7803ZM23.7803 4.03339H22.3822L21.4552 6.03937H18.1423L17.2305 4.03339H15.3765L14.4495 6.03937H11.1517L10.2247 4.03339C9.98158 4.03339 9.74349 4.03339 9.51047 4.03339C9.27745 4.03339 9.04444 4.03339 8.81142 4.03339C8.81142 4.55008 8.82662 5.21368 8.85701 6.02418C8.88741 6.83468 9.06471 7.23993 9.3889 7.23993C11.9622 7.23993 14.2722 7.23993 16.3187 7.23993C18.3652 7.23993 20.6802 7.23993 23.2636 7.23993C23.5777 7.23993 23.7398 6.83468 23.7499 6.02418C23.7702 5.21368 23.7803 4.55008 23.7803 4.03339H23.7803ZM12.2155 27.8621C12.7626 27.8621 13.2388 27.6645 13.644 27.2694C14.0493 26.8641 14.2519 26.3778 14.2519 25.8105V22.6343C14.2519 22.0771 14.4495 21.5959 14.8446 21.1907C15.2397 20.7854 15.726 20.5828 16.3035 20.5828C16.8607 20.5828 17.3419 20.7854 17.7472 21.1907C18.1524 21.5959 18.3551 22.0771 18.3551 22.6343V25.8105C18.3551 26.3778 18.5526 26.8641 18.9477 27.2694C19.3428 27.6645 19.8038 27.8621 20.3306 27.8621C21.131 27.8621 21.9466 27.8621 22.7773 27.8621C23.6081 27.8621 24.4338 27.8621 25.2544 27.8621L23.1421 25.7801L20.4522 10.8264L12.0635 10.8416C11.6076 13.3339 11.1568 15.8262 10.711 18.3184C10.2653 20.8006 9.81948 23.2878 9.3737 25.7801C9.00898 26.1246 8.64931 26.4741 8.29472 26.8287C7.95026 27.1731 7.60073 27.5176 7.24614 27.8621H12.2155ZM16.3035 13.3643C16.9823 13.3643 17.3217 13.7087 17.3217 14.3976V17.0115C17.3217 17.6903 16.9823 18.0297 16.3035 18.0297C15.6146 18.0297 15.2701 17.6903 15.2701 17.0115V14.3976C15.2701 13.7087 15.6146 13.3643 16.3035 13.3643ZM26.6069 27.8621C26.2929 28.2167 26.0345 28.6574 25.8319 29.1842C25.6394 29.711 25.3051 29.9744 24.8289 29.9744C21.982 29.9744 19.1301 29.9744 16.2731 29.9744C13.4161 29.9744 10.5844 29.9744 7.77803 29.9744C7.29173 29.9744 6.95234 29.711 6.75984 29.1842C6.56735 28.6574 6.31407 28.2167 6 27.8621L8.52267 25.309L11.1365 10.8112H9.32811C8.79115 10.8112 8.52267 10.5427 8.52267 10.0058C8.52267 9.45867 8.79115 9.18512 9.32811 9.18512H23.2636C23.8107 9.18512 24.0843 9.45867 24.0843 10.0058C24.0843 10.5427 23.8107 10.8112 23.2636 10.8112H21.4856L24.0843 25.309L26.6069 27.8621Z" fill="black"/>
<path d="M23.7803 4.03339H22.3822L21.4552 6.03937H18.1423L17.2305 4.03339H15.3764L14.4494 6.03937H11.1517L10.2247 4.03339C9.98156 4.03339 9.74347 4.03339 9.51045 4.03339C9.27744 4.03339 9.04442 4.03339 8.8114 4.03339C8.8114 4.55008 8.8266 5.21367 8.857 6.02417C8.88739 6.83467 9.06469 7.23992 9.38889 7.23992C11.9622 7.23992 14.2722 7.23992 16.3187 7.23992C18.3652 7.23992 20.6802 7.23992 23.2636 7.23992C23.5777 7.23992 23.7398 6.83467 23.7499 6.02417C23.7702 5.21367 23.7803 4.55008 23.7803 4.03339ZM12.2155 27.8621C12.7626 27.8621 13.2388 27.6645 13.644 27.2694C14.0493 26.8641 14.2519 26.3778 14.2519 25.8105V22.6343C14.2519 22.0771 14.4494 21.5959 14.8446 21.1906C15.2397 20.7854 15.726 20.5828 16.3035 20.5828C16.8607 20.5828 17.3419 20.7854 17.7472 21.1906C18.1524 21.5959 18.355 22.0771 18.355 22.6343V25.8105C18.355 26.3778 18.5526 26.8641 18.9477 27.2694C19.3428 27.6645 19.8038 27.8621 20.3306 27.8621C21.131 27.8621 21.9466 27.8621 22.7773 27.8621C23.6081 27.8621 24.4338 27.8621 25.2544 27.8621L23.1421 25.7801L20.4522 10.8264L12.0635 10.8416C11.6076 13.3339 11.1568 15.8261 10.711 18.3184C10.2652 20.8006 9.81946 23.2878 9.37369 25.7801C9.00896 26.1246 8.6493 26.4741 8.2947 26.8287C7.95024 27.1731 7.60072 27.5176 7.24612 27.8621H12.2155ZM16.3035 13.3643C16.9823 13.3643 17.3216 13.7087 17.3216 14.3976V17.0115C17.3216 17.6903 16.9823 18.0297 16.3035 18.0297C15.6145 18.0297 15.2701 17.6903 15.2701 17.0115V14.3976C15.2701 13.7087 15.6145 13.3643 16.3035 13.3643Z" fill="white"/>
</svg>
