<svg width="256" height="256" viewBox="0 0 256 256" fill="none" xmlns="http://www.w3.org/2000/svg">
<path d="M31 98.0341C31 105.634 31.7773 112.457 33.3319 118.503C34.8865 124.549 36.7866 130.076 39.0321 135.085C41.2777 139.922 43.6959 144.24 46.2869 148.04C48.8779 151.841 51.2962 155.295 53.5418 158.404C54.5782 159.786 55.5282 160.995 56.3919 162.032C57.2555 162.896 57.9464 163.846 58.4646 164.882C57.6009 165.746 56.7373 166.696 55.8736 167.732C55.1827 168.768 54.8372 169.978 54.8372 171.359C55.01 173.26 55.5282 174.728 56.3919 175.764C57.4283 176.801 58.3783 177.664 59.242 178.355L61.0557 179.651C62.4375 182.069 63.5603 184.228 64.4239 186.128C65.4603 187.856 65.9786 189.41 65.9786 190.792C65.9786 193.728 65.7194 196.147 65.2012 198.047C64.683 199.947 64.1648 201.847 63.6466 203.747C63.1284 205.129 62.6103 206.683 62.0921 208.411C61.5739 210.138 61.3147 212.211 61.3147 214.629V218.516C61.6602 219.207 62.092 219.898 62.6102 220.589C63.3012 221.452 63.9057 222.316 64.4239 223.18L67.7923 226.289L69.865 228.102C75.738 232.075 83.8565 235.098 94.2205 237.171C104.584 239.416 115.985 240.539 128.422 240.539C140.858 240.539 152.259 239.416 162.623 237.171C172.987 235.098 181.105 232.075 186.978 228.102L189.051 226.289L192.419 223.18C193.283 222.316 193.888 221.452 194.233 220.589C194.751 219.898 195.183 219.207 195.529 218.516V214.629C195.529 210.311 194.751 206.683 193.197 203.747C192.679 201.847 192.16 199.947 191.642 198.047C191.124 196.147 190.865 193.728 190.865 190.792C190.865 189.41 191.297 187.856 192.16 186.128C193.197 184.228 194.406 182.069 195.788 179.651L197.601 178.355C198.465 177.664 199.329 176.801 200.192 175.764C201.229 174.728 201.833 173.26 202.006 171.359C202.006 169.978 201.574 168.768 200.711 167.732C200.02 166.696 199.242 165.746 198.379 164.882C198.897 163.846 199.588 162.896 200.452 162.032C201.315 160.995 202.265 159.786 203.302 158.404C205.547 155.295 207.965 151.841 210.556 148.04C213.147 144.24 215.566 139.922 217.811 135.085C220.057 130.076 221.957 124.549 223.511 118.503C225.066 112.457 225.843 105.634 225.843 98.0341C225.843 88.1883 224.202 80.5017 220.92 74.9742C217.811 69.274 214.098 65.0421 209.779 62.2783C205.461 59.3419 201.142 57.5282 196.824 56.8372C192.679 55.9736 189.483 55.5417 187.237 55.5417C184.819 55.5417 181.969 55.8872 178.687 56.5781C175.578 57.0963 172.296 58.0463 168.841 59.4282C165.559 60.6374 162.277 62.2783 158.996 64.3511C155.714 66.2512 152.691 68.4967 149.927 71.0877C150.272 63.6602 150.359 57.1827 150.186 51.6552C150.013 45.955 149.582 41.723 148.891 38.9593L148.113 37.1456L146.559 36.6274C143.45 35.591 140.772 34.8137 138.527 34.2955C136.454 33.6046 133.69 33.1727 130.235 33H128.422H126.867C123.412 33 120.562 33.3455 118.317 34.0364C116.244 34.5546 113.567 35.4183 110.285 36.6274L108.73 37.1456L107.953 38.9593C107.262 41.723 106.83 45.955 106.657 51.6552C106.485 57.1827 106.571 63.6602 106.916 71.0877C104.153 68.4967 101.13 66.2512 97.8479 64.3511C94.5659 62.2783 91.1977 60.6374 87.743 59.4282C84.461 58.0463 81.1791 57.0963 77.8972 56.5781C74.788 55.8872 72.0242 55.5417 69.606 55.5417C67.3604 55.5417 64.0785 55.9736 59.7601 56.8372C55.4418 57.5282 51.1235 59.3419 46.8052 62.2783C42.6596 65.0421 38.9457 69.274 35.6638 74.9742C32.5546 80.5017 31 88.1883 31 98.0341ZM84.6338 149.854C81.5246 145.363 79.5381 142.168 78.6744 140.267C77.9835 138.367 77.8108 137.245 78.1563 136.899C78.1563 136.726 78.2427 136.64 78.4154 136.64C78.7609 136.467 79.1063 136.208 79.4517 135.863C80.8336 138.281 82.2155 140.613 83.5974 142.858C85.152 145.104 86.5339 147.09 87.743 148.818C86.8793 149.336 85.8429 149.681 84.6338 149.854ZM95.516 146.745C94.8251 146.745 94.2204 146.831 93.7022 147.004C90.4203 143.204 87.5702 138.972 85.1519 134.308C82.9064 129.644 82.0427 125.844 82.5609 122.908C82.9064 121.353 84.0292 120.403 85.9293 120.058C87.6566 119.367 89.3839 119.453 91.1113 120.317C93.0113 122.044 94.3932 125.326 95.2569 130.163C96.2933 134.826 96.3797 140.354 95.516 146.745ZM100.698 128.867C101.562 128.694 102.08 128.694 102.253 128.867C102.598 128.867 102.943 128.953 103.289 129.126C103.634 129.817 103.98 131.285 104.325 133.531C104.671 135.776 104.412 139.663 103.548 145.19C102.684 145.19 101.821 145.277 100.957 145.449C101.821 139.058 101.734 133.531 100.698 128.867ZM181.019 152.963C180.501 152.618 179.896 152.359 179.205 152.186C178.514 152.013 177.91 151.754 177.392 151.409C180.328 147.09 182.315 143.722 183.351 141.304C184.387 138.713 184.56 136.554 183.869 134.826C183.524 133.444 182.833 132.494 181.796 131.976C180.933 131.285 179.896 130.594 178.687 129.903C179.033 128.522 179.292 127.14 179.464 125.758C179.637 124.376 179.551 122.908 179.205 121.353C178.342 118.244 176.355 116.085 173.246 114.876C171.346 114.012 169.446 113.753 167.546 114.098C165.646 114.271 163.918 115.135 162.364 116.689C160.291 118.417 158.736 120.749 157.7 123.685C156.145 123.512 154.677 123.512 153.295 123.685C152.086 123.858 150.963 124.462 149.927 125.499C148.372 126.881 147.422 129.04 147.077 131.976C146.731 134.913 146.904 139.145 147.595 144.672C146.559 144.499 145.522 144.413 144.486 144.413C143.622 144.24 142.586 144.154 141.377 144.154C142.586 139.663 143.622 133.963 144.486 127.053C145.35 120.144 146.127 112.976 146.818 105.548C148.372 103.648 150.359 101.748 152.777 99.8478C155.195 97.9478 157.959 96.3068 161.068 94.9249C164.35 93.5431 167.805 92.5067 171.432 91.8157C175.06 91.1248 178.773 91.0384 182.574 91.5566C194.319 92.9385 200.192 99.2433 200.192 110.471C200.192 113.235 199.502 116.43 198.12 120.058C196.911 123.512 195.356 127.14 193.456 130.94C191.556 134.74 189.483 138.54 187.237 142.34C184.992 146.14 182.919 149.681 181.019 152.963ZM165.732 120.317C167.459 119.453 169.187 119.367 170.914 120.058C172.814 120.403 173.937 121.353 174.282 122.908C174.973 125.844 174.11 129.644 171.691 134.308C169.273 138.972 166.423 143.204 163.141 147.004C162.623 146.831 162.018 146.745 161.327 146.745C160.464 140.354 160.464 134.826 161.327 130.163C162.364 125.326 163.832 122.044 165.732 120.317ZM37.9957 98.0341C37.9957 90.0884 39.2049 83.7836 41.6231 79.1198C44.0414 74.456 46.8915 70.915 50.1734 68.4967C53.6281 66.0785 57.0828 64.5238 60.5374 63.8329C64.1648 62.9692 67.1877 62.5374 69.606 62.5374C72.3697 62.5374 75.5653 62.9692 79.1927 63.8329C82.8201 64.6966 86.4474 66.0785 90.0748 67.9785C93.7022 69.7059 97.0706 71.9514 100.18 74.7151C103.289 77.4788 105.794 80.8472 107.694 84.82H107.953C107.953 86.2019 108.039 87.7565 108.212 89.4838C108.385 91.2112 108.557 93.0249 108.73 94.9249C104.412 91.2975 99.1433 88.4474 92.9249 86.3746C86.8793 84.1291 80.4881 83.5245 73.7515 84.5609C65.9785 85.5973 60.0192 88.2747 55.8736 92.593C51.728 96.9114 49.6553 102.871 49.6553 110.471C49.6553 113.753 50.2598 117.294 51.469 121.094C52.6781 124.721 54.2327 128.522 56.1327 132.494C58.0328 136.295 60.1056 140.181 62.3511 144.154C64.5967 147.954 66.8422 151.582 69.0877 155.036L69.865 156.591C68.8286 157.454 67.7059 158.145 66.4967 158.664C65.4603 159.182 64.5103 159.7 63.6466 160.218C63.1284 159.355 62.5239 158.491 61.833 157.627C61.142 156.591 60.3647 155.382 59.501 154C57.4282 151.236 55.1827 148.04 52.7644 144.413C50.3461 140.786 48.0143 136.726 45.7688 132.235C43.5232 127.572 41.6232 122.476 40.0685 116.948C38.6867 111.248 37.9957 104.943 37.9957 98.0341ZM75.0471 151.927C73.147 148.645 71.0742 145.19 68.8287 141.563C66.7559 137.763 64.7694 134.049 62.8694 130.422C61.142 126.794 59.6737 123.253 58.4646 119.799C57.2555 116.344 56.6509 113.235 56.6509 110.471C56.6509 99.2433 62.5239 92.9385 74.2698 91.5566C78.0699 91.0384 81.7836 91.1248 85.411 91.8157C89.0385 92.5067 92.4068 93.5431 95.516 94.9249C98.7979 96.3068 101.648 97.9478 104.066 99.8478C106.485 101.748 108.471 103.648 110.026 105.548C110.716 112.976 111.494 120.144 112.357 127.053C113.221 133.963 114.258 139.663 115.467 144.154C114.258 144.154 113.135 144.24 112.098 144.413C111.235 144.413 110.285 144.499 109.248 144.672C109.939 139.145 110.112 134.913 109.767 131.976C109.421 129.04 108.471 126.881 106.916 125.499C105.88 124.462 104.671 123.858 103.289 123.685C102.08 123.512 100.698 123.512 99.1434 123.685C98.6252 122.303 97.9342 121.008 97.0706 119.799C96.3796 118.589 95.6023 117.553 94.7386 116.689C93.0113 115.135 91.1976 114.271 89.2976 114.098C87.3975 113.753 85.4974 114.012 83.5974 114.876C80.4882 116.085 78.5017 118.244 77.638 121.353C77.2926 122.908 77.2063 124.376 77.379 125.758C77.5517 127.14 77.8108 128.522 78.1563 129.903C76.9471 130.594 75.8243 131.285 74.7879 131.976C73.9243 132.494 73.3197 133.444 72.9742 134.826C72.2833 136.554 72.4561 138.713 73.4925 141.304C74.5289 143.722 76.5153 147.09 79.4517 151.409C78.9335 151.754 78.329 152.013 77.638 152.186C76.9471 152.359 76.3425 152.618 75.8243 152.963L75.0471 151.927ZM116.244 99.3296C119.871 101.921 123.931 103.216 128.422 103.216C133.085 103.216 137.145 101.921 140.599 99.3296C140.599 99.8478 140.513 100.452 140.34 101.143C140.34 101.834 140.34 102.439 140.34 102.957V103.216C139.477 111.335 138.527 118.935 137.49 126.017C136.454 133.099 135.417 138.972 134.381 143.636H132.049V143.377H128.422H125.053V143.636H122.462C121.426 138.972 120.39 133.099 119.353 126.017C118.317 118.935 117.367 111.335 116.503 103.216H117.021C116.676 103.216 116.503 103.216 116.503 103.216C116.503 103.043 116.503 102.957 116.503 102.957C116.503 102.439 116.417 101.834 116.244 101.143C116.244 100.452 116.244 99.8478 116.244 99.3296ZM128.422 96.2204C124.622 96.2204 121.426 94.9249 118.835 92.3339C116.417 89.7429 115.208 86.7201 115.208 83.2654C115.208 79.638 116.417 76.4425 118.835 73.6787C121.426 70.915 124.622 69.5331 128.422 69.5331C132.222 69.5331 135.331 70.915 137.749 73.6787C140.34 76.4425 141.636 79.638 141.636 83.2654C141.636 86.7201 140.34 89.7429 137.749 92.3339C135.331 94.9249 132.222 96.2204 128.422 96.2204ZM136.972 85.8564H135.417C135.417 86.7201 135.072 87.8429 134.381 89.2247C133.863 90.4339 132.481 91.0384 130.235 91.0384V92.8521C134.726 92.8521 136.972 90.5202 136.972 85.8564ZM139.045 47.7687C139.045 48.6324 138.613 49.496 137.749 50.3597C137.058 51.0506 136.022 51.9143 134.64 52.9507C133.604 53.8144 132.481 54.678 131.272 55.5417C130.235 56.4054 129.285 57.5281 128.422 58.91C127.558 57.5281 126.522 56.4054 125.312 55.5417C124.276 54.678 123.24 53.8144 122.203 52.9507C120.821 51.9143 119.699 51.0506 118.835 50.3597C118.144 49.496 117.799 48.6324 117.799 47.7687C117.799 45.8686 118.144 44.2277 118.835 42.8458C119.526 41.2912 121.599 40.3412 125.053 39.9957H128.422H131.79C135.245 40.3412 137.317 41.2912 138.008 42.8458C138.699 44.2277 139.045 45.8686 139.045 47.7687ZM143.19 56.319C143.19 58.3918 143.19 60.4646 143.19 62.5374C143.19 64.6102 143.104 66.8557 142.931 69.274C140.34 66.3375 137.231 64.3511 133.604 63.3147C134.467 62.4511 135.331 61.6737 136.195 60.9828C137.058 60.2919 137.922 59.5146 138.786 58.6509C139.649 57.96 140.427 57.3554 141.118 56.8372C141.981 56.319 142.672 55.6281 143.19 54.7644V56.319ZM113.653 54.7644C114.517 55.6281 115.208 56.319 115.726 56.8372C116.417 57.3554 117.194 57.96 118.058 58.6509C118.921 59.5146 119.785 60.2919 120.649 60.9828C121.512 61.6737 122.376 62.4511 123.24 63.3147C119.612 64.3511 116.503 66.3375 113.912 69.274C113.739 66.8557 113.653 64.6102 113.653 62.5374C113.653 60.4646 113.653 58.3918 113.653 56.319V54.7644ZM197.342 154C196.479 155.382 195.701 156.591 195.01 157.627C194.32 158.491 193.715 159.355 193.197 160.218C192.333 159.7 191.297 159.182 190.088 158.664C189.051 158.145 188.015 157.454 186.978 156.591L187.756 155.036C190.001 151.582 192.247 147.954 194.492 144.154C196.738 140.181 198.811 136.295 200.711 132.494C202.611 128.522 204.165 124.721 205.374 121.094C206.584 117.294 207.188 113.753 207.188 110.471C207.188 102.871 205.115 96.9114 200.97 92.593C196.824 88.2747 190.865 85.5973 183.092 84.5609C176.355 83.5245 169.878 84.1291 163.659 86.3746C157.614 88.4474 152.432 91.2975 148.113 94.9249C148.286 93.0249 148.459 91.2112 148.632 89.4838C148.804 87.7565 148.977 86.2019 149.15 84.82C151.05 80.8472 153.554 77.4788 156.664 74.7151C159.773 71.9514 163.141 69.7059 166.769 67.9785C170.396 66.0785 174.023 64.6966 177.651 63.8329C181.278 62.9692 184.474 62.5374 187.237 62.5374C189.483 62.5374 192.419 62.9692 196.047 63.8329C199.674 64.5238 203.129 66.0785 206.411 68.4967C209.866 70.915 212.802 74.456 215.22 79.1198C217.639 83.7836 218.848 90.0884 218.848 98.0341C218.848 104.943 218.07 111.248 216.516 116.948C215.134 122.476 213.32 127.572 211.075 132.235C209.002 136.726 206.67 140.786 204.079 144.413C201.661 148.04 199.415 151.236 197.342 154ZM155.886 145.449C155.023 145.277 154.159 145.19 153.295 145.19C152.432 139.663 152.173 135.776 152.518 133.531C152.864 131.285 153.209 129.817 153.554 129.126C153.9 128.953 154.159 128.867 154.332 128.867C154.677 128.694 155.282 128.694 156.145 128.867C155.109 133.531 155.023 139.058 155.886 145.449ZM169.1 148.818C170.31 147.09 171.605 145.104 172.987 142.858C174.542 140.613 176.01 138.281 177.392 135.863C178.255 136.726 178.687 137.072 178.687 136.899C179.033 137.245 178.773 138.367 177.91 140.267C177.219 142.168 175.319 145.363 172.21 149.854C171 149.681 169.964 149.336 169.1 148.818ZM62.0921 171.359C62.0921 170.841 62.6966 170.237 63.9058 169.546C65.4604 167.991 67.7922 166.177 70.9014 164.105C74.1834 161.859 78.4154 159.786 83.5974 157.886C88.7794 155.813 95.0841 154.086 102.512 152.704C109.939 151.15 118.576 150.372 128.422 150.372C138.267 150.372 146.904 151.15 154.332 152.704C161.759 154.086 168.064 155.813 173.246 157.886C178.428 159.786 182.574 161.859 185.683 164.105C188.965 166.177 191.383 167.991 192.938 169.546C194.147 170.237 194.751 170.841 194.751 171.359C194.751 171.532 194.233 171.964 193.197 172.655L190.347 175.505C189.828 176.369 189.569 176.887 189.569 177.06C186.806 174.814 183.61 172.741 179.983 170.841C176.528 168.768 172.382 167.041 167.546 165.659C162.709 164.105 157.095 162.896 150.704 162.032C144.313 161.168 136.886 160.736 128.422 160.736C119.958 160.736 112.53 161.168 106.139 162.032C99.7479 162.896 94.1341 164.105 89.2976 165.659C84.461 167.041 80.229 168.768 76.6016 170.841C73.147 172.741 70.0378 174.814 67.274 177.06C67.274 176.887 67.0149 176.369 66.4967 175.505L63.6466 172.655C63.1284 172.31 62.6103 171.878 62.0921 171.359ZM68.5696 214.629C68.5696 212.384 70.0378 210.138 72.9742 207.893C76.0834 205.82 80.3154 203.833 85.6702 201.933C91.0249 200.206 97.3297 198.738 104.584 197.529C112.012 196.492 119.958 195.974 128.422 195.974C136.886 195.974 144.745 196.492 152 197.529C159.427 198.738 165.818 200.206 171.173 201.933C176.528 203.833 180.674 205.82 183.61 207.893C186.719 210.138 188.274 212.384 188.274 214.629C188.274 215.666 187.842 217.047 186.978 218.775C182.66 216.011 177.392 213.679 171.173 211.779C165.128 209.879 158.305 208.411 150.704 207.374H150.186C149.495 207.374 148.804 207.288 148.113 207.115C147.595 206.943 147.077 206.856 146.559 206.856H145.004C144.486 206.683 143.536 206.597 142.154 206.597C141.463 206.597 140.859 206.511 140.34 206.338H137.749H135.158C134.295 206.338 133.69 206.165 133.345 205.82H128.422H123.499C123.153 206.165 122.549 206.338 121.685 206.338H119.094H116.503C115.985 206.511 115.38 206.597 114.689 206.597C113.307 206.597 112.357 206.683 111.839 206.856H110.544C109.853 206.856 109.162 206.943 108.471 207.115C107.953 207.288 107.435 207.374 106.916 207.374H106.139C98.5388 208.411 91.6295 209.879 85.411 211.779C79.3654 213.679 74.3561 216.011 70.3833 218.775C69.1741 217.393 68.5696 216.011 68.5696 214.629ZM76.3426 223.18C76.8608 222.661 77.4653 222.402 78.1563 222.402C78.1563 222.23 78.1563 222.143 78.1563 222.143C78.329 222.143 78.4154 222.143 78.4154 222.143C78.4154 221.625 78.9336 221.366 79.97 221.366C79.97 221.193 80.2291 221.366 80.7473 221.884C81.4382 220.848 82.0427 220.329 82.5609 220.329H83.5974C84.1156 219.811 84.7201 219.552 85.411 219.552C85.7565 219.379 86.1884 219.293 86.7066 219.293C86.8793 218.948 87.3111 218.688 88.002 218.516C88.3475 218.516 88.6067 218.429 88.7794 218.257C89.1249 218.084 89.3839 217.998 89.5567 217.998C89.9021 217.825 90.1612 217.738 90.334 217.738C90.6794 217.738 91.0249 217.566 91.3704 217.22C92.0613 217.22 92.5795 217.134 92.9249 216.961C93.9613 216.961 94.6523 216.875 94.9978 216.702C95.3432 216.702 95.6023 216.616 95.775 216.443C96.1205 216.27 96.3796 216.184 96.5523 216.184C97.0705 216.011 97.5888 215.925 98.107 215.925C98.7979 215.925 99.4025 215.752 99.9207 215.407C100.957 215.407 101.734 215.32 102.253 215.147C102.943 215.147 103.375 214.975 103.548 214.629H105.88C106.053 214.456 106.657 214.37 107.694 214.37C108.039 214.37 108.385 214.284 108.73 214.111C109.248 214.111 109.68 214.111 110.026 214.111H111.839C112.012 213.766 112.703 213.593 113.912 213.593H115.726C116.244 213.42 117.108 213.334 118.317 213.334H119.871H122.462C122.808 213.334 123.067 213.247 123.24 213.075C123.412 212.902 123.672 212.816 124.017 212.816H128.422H132.826C133.172 212.816 133.431 212.902 133.604 213.075C133.776 213.247 134.036 213.334 134.381 213.334H136.972H138.527C139.736 213.334 140.686 213.42 141.377 213.593H143.19C144.227 213.593 144.831 213.766 145.004 214.111H146.818C147.163 214.111 147.509 214.111 147.854 214.111C148.372 214.284 148.804 214.37 149.15 214.37C150.186 214.37 150.791 214.456 150.963 214.629H153.554C153.554 214.975 153.9 215.147 154.591 215.147C155.109 215.32 155.973 215.407 157.182 215.407C157.527 215.752 157.959 215.925 158.477 215.925C159.168 215.925 159.773 216.011 160.291 216.184C160.637 216.184 160.896 216.27 161.068 216.443C161.241 216.616 161.5 216.702 161.846 216.702C162.191 216.875 162.882 216.961 163.918 216.961C164.264 217.134 164.782 217.22 165.473 217.22C165.818 217.566 166.078 217.738 166.25 217.738C166.596 217.738 166.941 217.825 167.287 217.998C167.459 217.998 167.632 218.084 167.805 218.257C168.15 218.429 168.496 218.516 168.841 218.516C169.532 218.688 169.964 218.948 170.137 219.293C170.655 219.293 171.087 219.379 171.432 219.552C172.123 219.552 172.728 219.811 173.246 220.329H174.282C174.628 220.329 175.232 220.589 176.096 221.107C176.614 221.107 176.873 221.193 176.873 221.366C177.91 221.366 178.428 221.625 178.428 222.143C178.601 222.143 178.687 222.23 178.687 222.402C179.378 222.402 179.983 222.661 180.501 223.18C180.501 223.352 179.896 223.784 178.687 224.475H178.428C178.428 224.475 177.91 224.82 176.873 225.511C176.873 225.511 176.787 225.511 176.614 225.511C176.614 225.511 176.442 225.598 176.096 225.771C175.751 225.771 175.405 225.857 175.06 226.03C174.887 226.202 174.628 226.375 174.282 226.548C173.764 226.548 173.419 226.721 173.246 227.066C173.073 227.066 172.469 227.239 171.432 227.584C170.914 227.584 170.482 227.757 170.137 228.102C169.964 228.102 169.791 228.102 169.619 228.102C169.446 228.275 169.187 228.362 168.841 228.362H167.287C166.941 228.707 166.596 228.88 166.25 228.88C166.078 228.88 165.818 228.966 165.473 229.139C164.782 229.139 164.264 229.312 163.918 229.657C163.573 229.657 163.228 229.657 162.882 229.657C162.537 229.83 162.191 229.916 161.846 229.916C161.5 230.089 160.982 230.175 160.291 230.175C159.773 230.521 159.168 230.693 158.477 230.693C157.959 230.693 157.527 230.78 157.182 230.953C156.664 230.953 156.145 231.039 155.627 231.212C155.282 231.384 154.936 231.471 154.591 231.471C154.418 231.471 154.159 231.471 153.813 231.471C153.641 231.643 153.554 231.73 153.554 231.73C152.518 231.73 151.654 231.903 150.963 232.248H149.15C148.631 232.421 147.854 232.507 146.818 232.507C146.127 232.507 145.522 232.594 145.004 232.766H143.19C142.154 232.766 141.549 232.939 141.377 233.284H138.527H136.972C136.627 233.284 136.195 233.284 135.676 233.284C135.158 233.457 134.726 233.544 134.381 233.544H132.826H128.422H124.017H122.462C122.117 233.544 121.685 233.457 121.167 233.284C120.649 233.284 120.217 233.284 119.871 233.284H118.317H115.726C115.38 232.939 114.776 232.766 113.912 232.766H111.839C111.321 232.594 110.716 232.507 110.026 232.507C108.989 232.507 108.212 232.421 107.694 232.248H105.88C105.362 231.903 104.584 231.73 103.548 231.73C103.375 231.73 103.116 231.643 102.771 231.471C102.598 231.471 102.425 231.471 102.253 231.471C101.907 231.471 101.475 231.384 100.957 231.212C100.612 231.039 100.266 230.953 99.9207 230.953C99.4025 230.78 98.7979 230.693 98.107 230.693C97.5888 230.693 97.0705 230.521 96.5523 230.175C95.8614 230.175 95.3432 230.089 94.9978 229.916C94.6523 229.916 94.3068 229.83 93.9614 229.657C93.6159 229.657 93.2704 229.657 92.9249 229.657C92.5795 229.312 92.0613 229.139 91.3704 229.139C91.0249 228.966 90.6794 228.88 90.334 228.88C90.1612 228.88 89.9021 228.707 89.5567 228.362H88.002C87.6566 228.362 87.3975 228.275 87.2247 228.102C87.052 228.102 86.8793 228.102 86.7066 228.102C86.3611 227.757 85.9292 227.584 85.411 227.584C84.3746 227.239 83.7701 227.066 83.5974 227.066C83.4246 226.721 83.0791 226.548 82.5609 226.548C82.2155 226.375 81.87 226.202 81.5245 226.03C81.3518 225.857 81.0927 225.771 80.7473 225.771C80.4018 225.598 80.1427 225.511 79.97 225.511C78.9336 224.82 78.4154 224.475 78.4154 224.475H78.1563C76.9471 223.784 76.3426 223.352 76.3426 223.18ZM71.1605 183.019C74.7879 184.919 78.2426 185.955 81.5245 186.128C79.9699 187.51 78.4153 189.065 76.8607 190.792C75.3061 192.519 73.8379 194.333 72.4561 196.233C72.8015 195.369 72.9742 194.506 72.9742 193.642C72.9742 192.778 72.9742 191.828 72.9742 190.792C72.9742 188.892 72.3697 186.301 71.1605 183.019ZM186.201 183.019C184.646 185.955 183.869 188.546 183.869 190.792C183.869 191.828 183.869 192.778 183.869 193.642C183.869 194.506 184.042 195.369 184.387 196.233C183.005 194.333 181.537 192.519 179.983 190.792C178.601 189.065 177.046 187.51 175.319 186.128C178.601 185.955 182.055 184.919 185.683 183.019H186.201ZM152 178.873C149.409 178.528 146.472 177.146 143.19 174.728C140.081 172.137 137.49 169.805 135.417 167.732C146.645 168.25 155.541 169.459 162.105 171.359C168.841 173.26 174.369 175.591 178.687 178.355C176.787 178.701 174.11 179.478 170.655 180.687C167.373 181.723 164.264 182.242 161.327 182.242C163.227 182.933 165.473 184.833 168.064 187.942C170.828 190.878 173.16 193.383 175.06 195.456C169.705 193.556 163.659 192.087 156.923 191.051C150.186 189.842 143.363 189.065 136.454 188.719C138.354 187.165 140.772 185.265 143.709 183.019C146.818 180.601 149.582 179.219 152 178.873ZM104.844 178.873C107.262 179.219 109.939 180.601 112.876 183.019C115.985 185.265 118.489 187.165 120.39 188.719C113.48 189.065 106.657 189.842 99.9207 191.051C93.1841 192.087 87.1384 193.556 81.7837 195.456C83.6837 193.383 85.9293 190.878 88.5203 187.942C91.284 184.833 93.6159 182.933 95.516 182.242C92.5795 182.242 89.384 181.723 85.9293 180.687C82.6474 179.478 80.0563 178.701 78.1563 178.355C82.4746 175.591 88.002 173.26 94.7386 171.359C101.648 169.459 110.544 168.25 121.426 167.732C119.353 169.805 116.676 172.137 113.394 174.728C110.285 177.146 107.435 178.528 104.844 178.873ZM138.527 178.873C136.799 179.737 134.986 180.86 133.085 182.242C131.358 183.624 129.804 185.092 128.422 186.646C127.04 185.092 125.399 183.624 123.499 182.242C121.771 180.86 120.044 179.737 118.317 178.873C120.044 178.01 121.771 176.887 123.499 175.505C125.399 174.123 127.04 172.482 128.422 170.582C129.804 172.482 131.358 174.123 133.085 175.505C134.986 176.887 136.799 178.01 138.527 178.873Z" fill="#393E46"/>
<path d="M37.9957 98.0341C37.9957 90.0884 39.2049 83.7836 41.6231 79.1198C44.0414 74.456 46.8915 70.915 50.1734 68.4967C53.6281 66.0785 57.0828 64.5238 60.5374 63.8329C64.1648 62.9692 67.1877 62.5374 69.606 62.5374C72.3697 62.5374 75.5653 62.9692 79.1927 63.8329C82.8201 64.6966 86.4474 66.0785 90.0748 67.9785C93.7022 69.7059 97.0706 71.9514 100.18 74.7151C103.289 77.4788 105.794 80.8472 107.694 84.82H107.953C107.953 86.2019 108.039 87.7565 108.212 89.4838C108.385 91.2112 108.557 93.0249 108.73 94.9249C104.412 91.2975 99.1433 88.4474 92.9249 86.3746C86.8793 84.1291 80.4881 83.5245 73.7515 84.5609C65.9785 85.5973 60.0192 88.2747 55.8736 92.593C51.728 96.9114 49.6553 102.871 49.6553 110.471C49.6553 113.753 50.2598 117.294 51.469 121.094C52.6781 124.721 54.2327 128.522 56.1327 132.494C58.0328 136.295 60.1056 140.181 62.3511 144.154C64.5967 147.954 66.8422 151.582 69.0877 155.036L69.865 156.591C68.8286 157.454 67.7059 158.145 66.4967 158.664C65.4603 159.182 64.5103 159.7 63.6466 160.218C63.1284 159.355 62.5239 158.491 61.833 157.627C61.142 156.591 60.3647 155.382 59.501 154C57.4282 151.236 55.1827 148.04 52.7644 144.413C50.3461 140.786 48.0143 136.726 45.7688 132.235C43.5232 127.572 41.6232 122.476 40.0685 116.948C38.6867 111.248 37.9957 104.943 37.9957 98.0341Z" fill="#EEEEEE"/>
<path d="M197.342 154C196.479 155.382 195.701 156.591 195.01 157.627C194.32 158.491 193.715 159.355 193.197 160.218C192.333 159.7 191.297 159.182 190.088 158.664C189.051 158.145 188.015 157.454 186.978 156.591L187.756 155.036C190.001 151.582 192.247 147.954 194.492 144.154C196.738 140.181 198.811 136.295 200.711 132.494C202.611 128.522 204.165 124.721 205.374 121.094C206.584 117.294 207.188 113.753 207.188 110.471C207.188 102.871 205.115 96.9114 200.97 92.593C196.824 88.2747 190.865 85.5973 183.092 84.5609C176.355 83.5245 169.878 84.1291 163.659 86.3746C157.614 88.4474 152.432 91.2975 148.113 94.9249C148.286 93.0249 148.459 91.2112 148.632 89.4838C148.804 87.7565 148.977 86.2019 149.15 84.82C151.05 80.8472 153.554 77.4788 156.664 74.7151C159.773 71.9514 163.141 69.7059 166.769 67.9785C170.396 66.0785 174.023 64.6966 177.651 63.8329C181.278 62.9692 184.474 62.5374 187.237 62.5374C189.483 62.5374 192.419 62.9692 196.047 63.8329C199.674 64.5238 203.129 66.0785 206.411 68.4967C209.866 70.915 212.802 74.456 215.22 79.1198C217.639 83.7836 218.848 90.0884 218.848 98.0341C218.848 104.943 218.07 111.248 216.516 116.948C215.134 122.476 213.32 127.572 211.075 132.235C209.002 136.726 206.67 140.786 204.079 144.413C201.661 148.04 199.415 151.236 197.342 154Z" fill="#EEEEEE"/>
<path fill-rule="evenodd" clip-rule="evenodd" d="M128.422 96.2204C124.622 96.2204 121.426 94.9249 118.835 92.3339C116.417 89.7429 115.208 86.7201 115.208 83.2654C115.208 79.638 116.417 76.4425 118.835 73.6787C121.426 70.915 124.622 69.5331 128.422 69.5331C132.222 69.5331 135.331 70.915 137.749 73.6787C140.34 76.4425 141.636 79.638 141.636 83.2654C141.636 86.7201 140.34 89.7429 137.749 92.3339C135.331 94.9249 132.222 96.2204 128.422 96.2204ZM135.417 85.8564H136.972C136.972 90.5202 134.726 92.8521 130.235 92.8521V91.0384C132.481 91.0384 133.863 90.4339 134.381 89.2247C135.072 87.8429 135.417 86.7201 135.417 85.8564Z" fill="#EEEEEE"/>
<path d="M139.045 47.7687C139.045 48.6324 138.613 49.496 137.749 50.3597C137.058 51.0506 136.022 51.9143 134.64 52.9507C133.604 53.8144 132.481 54.678 131.272 55.5417C130.235 56.4054 129.285 57.5281 128.422 58.91C127.558 57.5281 126.522 56.4054 125.312 55.5417L122.203 52.9507C120.821 51.9143 119.699 51.0506 118.835 50.3597C118.144 49.496 117.799 48.6324 117.799 47.7687C117.799 45.8686 118.144 44.2277 118.835 42.8458C119.526 41.2912 121.599 40.3412 125.053 39.9957H128.422H131.79C135.245 40.3412 137.317 41.2912 138.008 42.8458C138.699 44.2277 139.045 45.8686 139.045 47.7687Z" fill="#EEEEEE"/>
<path d="M113.653 54.7644L115.726 56.8372C116.417 57.3554 117.194 57.96 118.058 58.6509C118.921 59.5146 119.785 60.2919 120.649 60.9828C121.512 61.6737 122.376 62.4511 123.24 63.3147C119.612 64.3511 116.503 66.3375 113.912 69.274C113.739 66.8557 113.653 64.6102 113.653 62.5374V56.319V54.7644Z" fill="#EEEEEE"/>
<path d="M143.19 56.319V62.5374C143.19 64.6102 143.104 66.8557 142.931 69.274C140.34 66.3375 137.231 64.3511 133.604 63.3147C134.467 62.4511 135.331 61.6737 136.195 60.9828C137.058 60.2919 137.922 59.5146 138.786 58.6509C139.649 57.96 140.427 57.3554 141.118 56.8372C141.981 56.319 142.672 55.6281 143.19 54.7644V56.319Z" fill="#EEEEEE"/>
<path d="M75.0471 151.927C73.147 148.645 71.0742 145.19 68.8287 141.563C66.7559 137.763 64.7694 134.049 62.8694 130.422C61.142 126.794 59.6737 123.253 58.4646 119.799C57.2555 116.344 56.6509 113.235 56.6509 110.471C56.6509 99.2433 62.5239 92.9385 74.2698 91.5566C78.0699 91.0384 81.7836 91.1248 85.411 91.8157C89.0385 92.5067 92.4068 93.5431 95.516 94.9249C98.7979 96.3068 101.648 97.9478 104.066 99.8478C106.485 101.748 108.471 103.648 110.026 105.548C110.716 112.976 111.494 120.144 112.357 127.053C113.221 133.963 114.258 139.663 115.467 144.154C114.258 144.154 113.135 144.24 112.098 144.413C111.235 144.413 110.285 144.499 109.248 144.672C109.939 139.145 110.112 134.913 109.767 131.976C109.421 129.04 108.471 126.881 106.916 125.499C105.88 124.462 104.671 123.858 103.289 123.685C102.08 123.512 100.698 123.512 99.1434 123.685C98.6252 122.303 97.9342 121.008 97.0706 119.799C96.3796 118.589 95.6023 117.553 94.7386 116.689C93.0113 115.135 91.1976 114.271 89.2976 114.098C87.3975 113.753 85.4974 114.012 83.5974 114.876C80.4882 116.085 78.5017 118.244 77.638 121.353C77.2926 122.908 77.2063 124.376 77.379 125.758C77.5517 127.14 77.8108 128.522 78.1563 129.903C76.9471 130.594 75.8243 131.285 74.7879 131.976C73.9243 132.494 73.3197 133.444 72.9742 134.826C72.2833 136.554 72.4561 138.713 73.4925 141.304C74.5289 143.722 76.5153 147.09 79.4517 151.409C78.9335 151.754 78.329 152.013 77.638 152.186C76.9471 152.359 76.3425 152.618 75.8243 152.963L75.0471 151.927Z" fill="#EEEEEE"/>
<path d="M116.244 99.3296C119.871 101.921 123.931 103.216 128.422 103.216C133.085 103.216 137.145 101.921 140.599 99.3296C140.599 99.8478 140.513 100.452 140.34 101.143V102.957V103.216C139.477 111.335 138.527 118.935 137.49 126.017C136.454 133.099 135.417 138.972 134.381 143.636H132.049V143.377H128.422H125.053V143.636H122.462C121.426 138.972 120.39 133.099 119.353 126.017C118.317 118.935 117.367 111.335 116.503 103.216V102.957C116.503 102.439 116.417 101.834 116.244 101.143V99.3296Z" fill="#EEEEEE"/>
<path d="M181.019 152.963C180.501 152.618 179.896 152.359 179.205 152.186C178.514 152.013 177.91 151.754 177.392 151.409C180.328 147.09 182.315 143.722 183.351 141.304C184.387 138.713 184.56 136.554 183.869 134.826C183.524 133.444 182.833 132.494 181.796 131.976C180.933 131.285 179.896 130.594 178.687 129.903C179.033 128.522 179.292 127.14 179.464 125.758C179.637 124.376 179.551 122.908 179.205 121.353C178.342 118.244 176.355 116.085 173.246 114.876C171.346 114.012 169.446 113.753 167.546 114.098C165.646 114.271 163.918 115.135 162.364 116.689C160.291 118.417 158.736 120.749 157.7 123.685C156.145 123.512 154.677 123.512 153.295 123.685C152.086 123.858 150.963 124.462 149.927 125.499C148.372 126.881 147.422 129.04 147.077 131.976C146.731 134.913 146.904 139.145 147.595 144.672C146.559 144.499 145.522 144.413 144.486 144.413C143.622 144.24 142.586 144.154 141.377 144.154C142.586 139.663 143.622 133.963 144.486 127.053C145.35 120.144 146.127 112.976 146.818 105.548C148.372 103.648 150.359 101.748 152.777 99.8478C155.195 97.9478 157.959 96.3068 161.068 94.9249C164.35 93.5431 167.805 92.5067 171.432 91.8157C175.06 91.1248 178.773 91.0384 182.574 91.5566C194.319 92.9385 200.192 99.2433 200.192 110.471C200.192 113.235 199.502 116.43 198.12 120.058C196.911 123.512 195.356 127.14 193.456 130.94C191.556 134.74 189.483 138.54 187.237 142.34C184.992 146.14 182.919 149.681 181.019 152.963Z" fill="#EEEEEE"/>
<path d="M165.732 120.317C167.459 119.453 169.187 119.367 170.914 120.058C172.814 120.403 173.937 121.353 174.282 122.908C174.973 125.844 174.11 129.644 171.691 134.308C169.273 138.972 166.423 143.204 163.141 147.004C162.623 146.831 162.018 146.745 161.327 146.745C160.464 140.354 160.464 134.826 161.327 130.163C162.364 125.326 163.832 122.044 165.732 120.317Z" fill="#EEEEEE"/>
<path d="M169.1 148.818C170.31 147.09 171.605 145.104 172.987 142.858C174.542 140.613 176.01 138.281 177.392 135.863C178.255 136.726 178.687 137.072 178.687 136.899C179.033 137.245 178.773 138.367 177.91 140.267C177.219 142.168 175.319 145.363 172.21 149.854C171 149.681 169.964 149.336 169.1 148.818Z" fill="#EEEEEE"/>
<path d="M155.886 145.449C155.023 145.277 154.159 145.19 153.295 145.19C152.432 139.663 152.173 135.776 152.518 133.531C152.864 131.285 153.209 129.817 153.554 129.126C153.9 128.953 154.159 128.867 154.332 128.867C154.677 128.694 155.282 128.694 156.145 128.867C155.109 133.531 155.023 139.058 155.886 145.449Z" fill="#EEEEEE"/>
<path d="M95.516 146.745C94.8251 146.745 94.2204 146.831 93.7022 147.004C90.4203 143.204 87.5702 138.972 85.1519 134.308C82.9064 129.644 82.0427 125.844 82.5609 122.908C82.9064 121.353 84.0292 120.403 85.9293 120.058C87.6566 119.367 89.3839 119.453 91.1113 120.317C93.0113 122.044 94.3932 125.326 95.2569 130.163C96.2933 134.826 96.3797 140.354 95.516 146.745Z" fill="#EEEEEE"/>
<path d="M100.698 128.867C101.562 128.694 102.08 128.694 102.253 128.867C102.598 128.867 102.943 128.953 103.289 129.126C103.634 129.817 103.98 131.285 104.325 133.531C104.671 135.776 104.412 139.663 103.548 145.19C102.684 145.19 101.821 145.277 100.957 145.449C101.821 139.058 101.734 133.531 100.698 128.867Z" fill="#EEEEEE"/>
<path d="M84.6338 149.854C81.5246 145.363 79.5381 142.168 78.6744 140.267C77.9835 138.367 77.8108 137.245 78.1563 136.899C78.1563 136.726 78.2427 136.64 78.4154 136.64C78.7609 136.467 79.1063 136.208 79.4517 135.863C80.8336 138.281 82.2155 140.613 83.5974 142.858C85.152 145.104 86.5339 147.09 87.743 148.818C86.8793 149.336 85.8429 149.681 84.6338 149.854Z" fill="#EEEEEE"/>
<path d="M62.0921 171.359C62.0921 170.841 62.6966 170.237 63.9058 169.546C65.4604 167.991 67.7922 166.177 70.9014 164.105C74.1834 161.859 78.4154 159.786 83.5974 157.886C88.7794 155.813 95.0841 154.086 102.512 152.704C109.939 151.15 118.576 150.372 128.422 150.372C138.267 150.372 146.904 151.15 154.332 152.704C161.759 154.086 168.064 155.813 173.246 157.886C178.428 159.786 182.574 161.859 185.683 164.105C188.965 166.177 191.383 167.991 192.938 169.546C194.147 170.237 194.751 170.841 194.751 171.359C194.751 171.532 194.233 171.964 193.197 172.655L190.347 175.505C189.828 176.369 189.569 176.887 189.569 177.06C186.806 174.814 183.61 172.741 179.983 170.841C176.528 168.768 172.382 167.041 167.546 165.659C162.709 164.105 157.095 162.896 150.704 162.032C144.313 161.168 136.886 160.736 128.422 160.736C119.958 160.736 112.53 161.168 106.139 162.032C99.7479 162.896 94.1341 164.105 89.2976 165.659C84.461 167.041 80.229 168.768 76.6016 170.841C73.147 172.741 70.0378 174.814 67.274 177.06C67.274 176.887 67.0149 176.369 66.4967 175.505L63.6466 172.655C63.1284 172.31 62.6103 171.878 62.0921 171.359Z" fill="#EEEEEE"/>
<path d="M152 178.873C149.409 178.528 146.472 177.146 143.19 174.728C140.081 172.137 137.49 169.805 135.417 167.732C146.645 168.25 155.541 169.459 162.105 171.359C168.841 173.26 174.369 175.591 178.687 178.355C176.787 178.701 174.11 179.478 170.655 180.687C167.373 181.723 164.264 182.242 161.327 182.242C163.227 182.933 165.473 184.833 168.064 187.942C170.828 190.878 173.16 193.383 175.06 195.456C169.705 193.556 163.659 192.087 156.923 191.051C150.186 189.842 143.363 189.065 136.454 188.719C138.354 187.165 140.772 185.265 143.709 183.019C146.818 180.601 149.582 179.219 152 178.873Z" fill="#EEEEEE"/>
<path d="M104.844 178.873C107.262 179.219 109.939 180.601 112.876 183.019C115.985 185.265 118.489 187.165 120.39 188.719C113.48 189.065 106.657 189.842 99.9207 191.051C93.1841 192.087 87.1384 193.556 81.7837 195.456C83.6837 193.383 85.9293 190.878 88.5203 187.942C91.284 184.833 93.6159 182.933 95.516 182.242C92.5795 182.242 89.384 181.723 85.9293 180.687C82.6474 179.478 80.0563 178.701 78.1563 178.355C82.4746 175.591 88.002 173.26 94.7386 171.359C101.648 169.459 110.544 168.25 121.426 167.732C119.353 169.805 116.676 172.137 113.394 174.728C110.285 177.146 107.435 178.528 104.844 178.873Z" fill="#EEEEEE"/>
<path d="M71.1605 183.019C74.7879 184.919 78.2426 185.955 81.5245 186.128C79.9699 187.51 78.4153 189.065 76.8607 190.792C75.3061 192.519 73.8379 194.333 72.4561 196.233C72.8015 195.369 72.9742 194.506 72.9742 193.642V190.792C72.9742 188.892 72.3697 186.301 71.1605 183.019Z" fill="#EEEEEE"/>
<path d="M186.201 183.019C184.646 185.955 183.869 188.546 183.869 190.792V193.642C183.869 194.506 184.042 195.369 184.387 196.233C183.005 194.333 181.537 192.519 179.983 190.792C178.601 189.065 177.046 187.51 175.319 186.128C178.601 185.955 182.055 184.919 185.683 183.019H186.201Z" fill="#EEEEEE"/>
<path d="M68.5696 214.629C68.5696 212.384 70.0378 210.138 72.9742 207.893C76.0834 205.82 80.3154 203.833 85.6702 201.933C91.0249 200.206 97.3297 198.738 104.584 197.529C112.012 196.492 119.958 195.974 128.422 195.974C136.886 195.974 144.745 196.492 152 197.529C159.427 198.738 165.818 200.206 171.173 201.933C176.528 203.833 180.674 205.82 183.61 207.893C186.719 210.138 188.274 212.384 188.274 214.629C188.274 215.666 187.842 217.047 186.978 218.775C182.66 216.011 177.392 213.679 171.173 211.779C165.128 209.879 158.305 208.411 150.704 207.374H150.186C149.495 207.374 148.804 207.288 148.113 207.115C147.595 206.943 147.077 206.856 146.559 206.856H145.004C144.486 206.683 143.536 206.597 142.154 206.597C141.463 206.597 140.859 206.511 140.34 206.338H137.749H135.158C134.295 206.338 133.69 206.165 133.345 205.82H128.422H123.499C123.153 206.165 122.549 206.338 121.685 206.338H119.094H116.503C115.985 206.511 115.38 206.597 114.689 206.597C113.307 206.597 112.357 206.683 111.839 206.856H110.544C109.853 206.856 109.162 206.943 108.471 207.115C107.953 207.288 107.435 207.374 106.916 207.374H106.139C98.5388 208.411 91.6295 209.879 85.411 211.779C79.3654 213.679 74.3561 216.011 70.3833 218.775C69.1741 217.393 68.5696 216.011 68.5696 214.629Z" fill="#EEEEEE"/>
<path d="M76.3426 223.18C76.8608 222.661 77.4653 222.402 78.1563 222.402V222.143H78.4154C78.4154 221.625 78.9336 221.366 79.97 221.366C79.97 221.193 80.2291 221.366 80.7473 221.884C81.4382 220.848 82.0427 220.329 82.5609 220.329H83.5974C84.1156 219.811 84.7201 219.552 85.411 219.552C85.7565 219.379 86.1884 219.293 86.7066 219.293C86.8793 218.948 87.3111 218.688 88.002 218.516C88.3475 218.516 88.6067 218.429 88.7794 218.257C89.1249 218.084 89.3839 217.998 89.5567 217.998C89.9021 217.825 90.1612 217.738 90.334 217.738C90.6794 217.738 91.0249 217.566 91.3704 217.22C92.0613 217.22 92.5795 217.134 92.9249 216.961C93.9613 216.961 94.6523 216.875 94.9978 216.702C95.3432 216.702 95.6023 216.616 95.775 216.443C96.1205 216.27 96.3796 216.184 96.5523 216.184C97.0705 216.011 97.5888 215.925 98.107 215.925C98.7979 215.925 99.4025 215.752 99.9207 215.407C100.957 215.407 101.734 215.32 102.253 215.147C102.943 215.147 103.375 214.975 103.548 214.629H105.88C106.053 214.456 106.657 214.37 107.694 214.37C108.039 214.37 108.385 214.284 108.73 214.111H110.026H111.839C112.012 213.766 112.703 213.593 113.912 213.593H115.726C116.244 213.42 117.108 213.334 118.317 213.334H119.871H122.462C122.808 213.334 123.067 213.247 123.24 213.075C123.412 212.902 123.672 212.816 124.017 212.816H128.422H132.826C133.172 212.816 133.431 212.902 133.604 213.075C133.776 213.247 134.036 213.334 134.381 213.334H136.972H138.527C139.736 213.334 140.686 213.42 141.377 213.593H143.19C144.227 213.593 144.831 213.766 145.004 214.111H146.818H147.854C148.372 214.284 148.804 214.37 149.15 214.37C150.186 214.37 150.791 214.456 150.963 214.629H153.554C153.554 214.975 153.9 215.147 154.591 215.147C155.109 215.32 155.973 215.407 157.182 215.407C157.527 215.752 157.959 215.925 158.477 215.925C159.168 215.925 159.773 216.011 160.291 216.184C160.637 216.184 160.896 216.27 161.068 216.443C161.241 216.616 161.5 216.702 161.846 216.702C162.191 216.875 162.882 216.961 163.918 216.961C164.264 217.134 164.782 217.22 165.473 217.22C165.818 217.566 166.078 217.738 166.25 217.738C166.596 217.738 166.941 217.825 167.287 217.998C167.459 217.998 167.632 218.084 167.805 218.257C168.15 218.429 168.496 218.516 168.841 218.516C169.532 218.688 169.964 218.948 170.137 219.293C170.655 219.293 171.087 219.379 171.432 219.552C172.123 219.552 172.728 219.811 173.246 220.329H174.282C174.628 220.329 175.232 220.589 176.096 221.107C176.614 221.107 176.873 221.193 176.873 221.366C177.91 221.366 178.428 221.625 178.428 222.143C178.601 222.143 178.687 222.23 178.687 222.402C179.378 222.402 179.983 222.661 180.501 223.18C180.501 223.352 179.896 223.784 178.687 224.475H178.428L176.873 225.511H176.614L176.096 225.771C175.751 225.771 175.405 225.857 175.06 226.03C174.887 226.202 174.628 226.375 174.282 226.548C173.764 226.548 173.419 226.721 173.246 227.066C173.073 227.066 172.469 227.239 171.432 227.584C170.914 227.584 170.482 227.757 170.137 228.102H169.619C169.446 228.275 169.187 228.362 168.841 228.362H167.287C166.941 228.707 166.596 228.88 166.25 228.88C166.078 228.88 165.818 228.966 165.473 229.139C164.782 229.139 164.264 229.312 163.918 229.657H162.882C162.537 229.83 162.191 229.916 161.846 229.916C161.5 230.089 160.982 230.175 160.291 230.175C159.773 230.521 159.168 230.693 158.477 230.693C157.959 230.693 157.527 230.78 157.182 230.953C156.664 230.953 156.145 231.039 155.627 231.212C155.282 231.384 154.936 231.471 154.591 231.471H153.813L153.554 231.73C152.518 231.73 151.654 231.903 150.963 232.248H149.15C148.631 232.421 147.854 232.507 146.818 232.507C146.127 232.507 145.522 232.594 145.004 232.766H143.19C142.154 232.766 141.549 232.939 141.377 233.284H138.527H136.972H135.676C135.158 233.457 134.726 233.544 134.381 233.544H132.826H128.422H124.017H122.462C122.117 233.544 121.685 233.457 121.167 233.284H119.871H118.317H115.726C115.38 232.939 114.776 232.766 113.912 232.766H111.839C111.321 232.594 110.716 232.507 110.026 232.507C108.989 232.507 108.212 232.421 107.694 232.248H105.88C105.362 231.903 104.584 231.73 103.548 231.73C103.375 231.73 103.116 231.643 102.771 231.471H102.253C101.907 231.471 101.475 231.384 100.957 231.212C100.612 231.039 100.266 230.953 99.9207 230.953C99.4025 230.78 98.7979 230.693 98.107 230.693C97.5888 230.693 97.0705 230.521 96.5523 230.175C95.8614 230.175 95.3432 230.089 94.9978 229.916C94.6523 229.916 94.3068 229.83 93.9614 229.657H92.9249C92.5795 229.312 92.0613 229.139 91.3704 229.139C91.0249 228.966 90.6794 228.88 90.334 228.88C90.1612 228.88 89.9021 228.707 89.5567 228.362H88.002C87.6566 228.362 87.3975 228.275 87.2247 228.102H86.7066C86.3611 227.757 85.9292 227.584 85.411 227.584C84.3746 227.239 83.7701 227.066 83.5974 227.066C83.4246 226.721 83.0791 226.548 82.5609 226.548L81.5245 226.03C81.3518 225.857 81.0927 225.771 80.7473 225.771C80.4018 225.598 80.1427 225.511 79.97 225.511L78.4154 224.475H78.1563C76.9471 223.784 76.3426 223.352 76.3426 223.18Z" fill="#EEEEEE"/>
<path d="M138.527 178.873C136.799 179.737 134.986 180.86 133.085 182.242C131.358 183.624 129.804 185.092 128.422 186.646C127.04 185.092 125.399 183.624 123.499 182.242C121.771 180.86 120.044 179.737 118.317 178.873C120.044 178.01 121.771 176.887 123.499 175.505C125.399 174.123 127.04 172.482 128.422 170.582C129.804 172.482 131.358 174.123 133.085 175.505C134.986 176.887 136.799 178.01 138.527 178.873Z" fill="#EEEEEE"/>
</svg>
