<svg width="256" height="256" viewBox="0 0 256 256" fill="none" xmlns="http://www.w3.org/2000/svg">
<path d="M65.9379 239.782H211.034C211.725 239.782 212.589 239.264 213.625 238.228L218.03 240.041C219.412 240.905 220.707 240.732 221.916 239.523C222.78 238.66 223.212 237.796 223.212 236.932C223.212 236.587 223.125 236.328 222.953 236.155C222.78 235.982 222.607 235.723 222.434 235.378L221.657 234.082C221.312 233.391 220.793 232.614 220.103 231.75C221.83 232.096 223.384 232.441 224.766 232.787L227.098 233.564C228.48 233.737 229.603 233.218 230.466 232.009C230.985 231.491 231.244 230.714 231.244 229.677C231.244 228.814 231.157 228.209 230.985 227.864C230.812 227.691 230.207 226.741 229.171 225.014C228.135 223.459 226.666 221.3 224.766 218.536C223.039 215.945 221.484 213.527 220.103 211.281C221.312 211.454 222.434 211.627 223.471 211.799L225.284 212.318C225.975 212.663 226.666 212.663 227.357 212.318C228.048 211.972 228.48 211.627 228.653 211.281C229.171 210.59 229.43 209.813 229.43 208.949C229.43 208.258 229.171 207.654 228.653 207.136C228.48 206.79 227.875 205.754 226.839 204.026C225.975 202.299 224.68 199.967 222.953 197.031C221.398 194.267 220.016 191.762 218.807 189.517L226.062 191.331C227.444 191.331 228.653 190.726 229.689 189.517C229.689 189.171 229.776 188.912 229.948 188.74C230.121 188.394 230.207 188.049 230.207 187.703C230.207 187.358 230.121 187.012 229.948 186.667C229.776 186.149 229.603 185.717 229.43 185.371C229.257 185.199 228.48 184.335 227.098 182.78C225.889 181.226 224.248 179.153 222.175 176.562C220.103 173.971 218.289 171.639 216.734 169.566C218.289 169.566 219.671 169.653 220.88 169.825H222.693C224.593 169.825 225.716 169.221 226.062 168.012C226.407 167.493 226.58 166.975 226.58 166.457C226.58 165.939 226.494 165.507 226.321 165.161C226.148 164.643 225.975 164.211 225.803 163.866C225.63 163.693 224.853 162.916 223.471 161.534C222.262 160.152 220.621 158.338 218.548 156.093C216.475 153.847 214.575 151.775 212.848 149.875C214.23 149.875 215.525 149.961 216.734 150.134H218.807C220.362 150.134 221.398 149.27 221.916 147.543V146.506C221.916 145.47 221.571 144.606 220.88 143.915C220.707 143.742 219.843 143.052 218.289 141.842C216.734 140.633 214.748 139.079 212.329 137.179C210.084 135.279 208.27 133.81 206.888 132.774C208.27 131.738 209.479 130.615 210.516 129.406L212.07 127.592C212.416 127.419 212.675 127.16 212.848 126.815C213.02 126.296 213.107 125.865 213.107 125.519V124.742C212.761 123.36 212.157 122.496 211.293 122.151C211.12 121.978 210.343 121.546 208.961 120.855C207.579 119.992 205.766 118.955 203.52 117.746C201.447 116.537 199.634 115.501 198.079 114.637C199.461 112.91 200.756 111.269 201.965 109.714L203.779 107.382C204.297 106.691 204.556 105.914 204.556 105.05C204.556 104.359 204.47 103.841 204.297 103.496C203.952 103.15 203.693 102.891 203.52 102.718C203.347 102.373 203.002 102.027 202.484 101.682C202.138 101.682 201.102 101.423 199.375 100.905C197.647 100.386 195.488 99.7818 192.897 99.0909C190.479 98.4 188.492 97.8817 186.938 97.5363C187.456 95.9817 187.888 94.4271 188.233 92.8725L189.01 90.2815V89.5042C189.01 87.2586 188.147 86.1359 186.42 86.1359C186.247 86.1359 185.383 85.8768 183.828 85.3586C182.274 84.8404 180.287 84.3222 177.869 83.804C175.624 83.113 173.81 82.6812 172.428 82.5085C172.428 80.9539 172.428 79.3993 172.428 77.8447L172.687 75.5128C172.687 73.6127 171.737 72.3172 169.837 71.6263C169.492 71.6263 168.455 71.5399 166.728 71.3672C165.173 71.0217 163.187 70.6762 160.769 70.3308C158.35 69.8126 156.45 69.5535 155.068 69.5535C154.723 68.3443 154.464 67.1352 154.291 65.9261V63.8533C153.946 61.9532 152.736 61.0032 150.664 61.0032L136.931 62.0396C136.413 61.8668 135.808 61.6941 135.118 61.5214C134.599 61.3486 134.081 61.2623 133.563 61.2623L131.49 61.0032C130.281 60.6577 129.245 60.3122 128.381 59.9668L126.567 54.0075C124.84 50.5528 122.335 47.4436 119.053 44.6799C115.944 41.9161 111.367 39.066 105.321 36.1296C104.457 35.9568 103.68 35.9568 102.989 36.1296C102.298 36.3023 101.607 36.8205 100.916 37.6841C100.744 37.8569 100.657 38.4614 100.657 39.4978C100.657 40.8797 101.003 41.9161 101.694 42.607C102.557 43.1252 102.989 43.9026 102.989 44.939C103.162 45.8026 103.248 47.0981 103.248 48.8254V55.8212C102.557 54.4393 101.089 53.3165 98.8437 52.4529L97.2889 51.4164C95.5616 50.0346 93.4889 48.7391 91.0707 47.53C88.8251 46.1481 85.4568 45.1117 80.9657 44.4208C79.4111 43.9026 78.202 44.3344 77.3383 45.7162C76.9929 46.0617 76.8201 46.7527 76.8201 47.7891C76.8201 48.1345 76.9065 48.5663 77.0792 49.0845C77.4247 49.43 77.7701 49.6891 78.1155 49.8619C79.6701 51.7619 80.9656 53.4893 82.002 55.0439C83.2112 56.5985 84.1613 58.2394 84.8522 59.9668C85.5431 61.5214 86.0613 63.3351 86.4068 65.4079C86.925 67.4807 87.3568 69.9853 87.7022 72.9218C83.2112 75.34 77.7701 80.1766 71.379 87.4314C65.1606 94.5134 58.7694 102.373 52.2056 111.009L46.2462 118.782C43.4825 122.583 40.5461 126.987 37.4369 131.997C34.3277 136.833 31.5639 142.015 29.1456 147.543C26.7274 152.897 25.3455 157.82 25 162.311V164.902C25 167.839 25.3456 170.43 26.0365 172.675C26.7274 174.748 27.5046 176.475 28.3683 177.857C30.0956 179.412 32.2548 180.189 34.8458 180.189C37.2641 180.189 40.1143 178.721 43.3962 175.785C46.8509 172.848 50.1327 169.653 53.2419 166.198C53.2419 166.716 53.1557 167.234 52.9829 167.752C52.9829 168.271 52.9829 168.702 52.9829 169.048C52.9829 172.503 52.9829 175.612 52.9829 178.376C53.1557 180.967 53.5874 182.78 54.2784 183.817C56.5239 186.062 59.1149 187.185 62.0514 187.185C65.8515 187.185 68.3562 186.062 69.5653 183.817C70.9472 181.571 72.0699 179.498 72.9336 177.598L73.7109 174.23C74.9201 171.466 76.561 168.875 78.6338 166.457C80.7066 163.866 82.9522 161.534 85.3705 159.461C87.9615 157.388 90.4661 155.575 92.8844 154.02C95.4754 152.466 97.7208 151.17 99.6209 150.134C102.039 151.861 104.717 152.725 107.653 152.725C111.971 152.725 115.858 152.293 119.313 151.429C122.94 150.565 126.222 149.443 129.158 148.061C128.986 149.788 128.64 151.861 128.122 154.279C127.604 156.525 126.74 158.857 125.531 161.275C124.494 163.52 123.026 165.852 121.126 168.271C119.226 170.516 116.808 172.503 113.871 174.23C112.49 175.094 110.244 176.735 107.135 179.153C104.026 181.571 100.485 184.508 96.5117 187.962C92.7116 191.244 88.7387 194.958 84.5931 199.104C80.6202 203.249 76.9065 207.481 73.4518 211.799C70.1699 216.118 67.4061 220.35 65.1605 224.495C63.0877 228.814 62.0514 232.787 62.0514 236.414C62.0514 237.278 62.3968 238.055 63.0877 238.746C63.9514 239.437 64.9015 239.782 65.9379 239.782ZM147.295 80.9539C156.277 84.9267 163.964 90.4542 170.355 97.5363C176.746 104.446 182.015 112.219 186.16 120.855C190.479 129.492 193.847 138.733 196.265 148.579C198.683 158.425 200.497 168.271 201.706 178.116C202.916 187.962 203.606 197.549 203.779 206.877C203.952 216.377 203.866 225.014 203.52 232.787H192.897C193.242 225.359 193.415 217.154 193.415 208.172C193.588 199.19 193.242 190.035 192.379 180.707C191.515 171.207 190.047 161.793 187.974 152.466C186.074 143.138 183.224 134.415 179.424 126.296C175.796 118.178 171.046 110.923 165.173 104.532C159.473 97.9681 152.477 92.8725 144.186 89.2451C143.323 88.5541 142.804 87.5177 142.632 86.1359C142.459 84.754 142.545 83.6312 142.891 82.7676C143.754 80.6948 145.223 80.0902 147.295 80.9539ZM155.068 113.86C155.414 111.96 156.882 111.009 159.473 111.009C160.337 111.182 161.028 111.787 161.546 112.823C162.064 113.687 162.237 114.551 162.064 115.414C161.891 116.796 161.287 118.955 160.25 121.892C159.214 124.828 157.746 127.937 155.846 131.219C153.946 134.501 151.7 137.61 149.109 140.547C146.518 143.483 143.582 145.556 140.3 146.765C139.436 147.111 138.659 147.456 137.968 147.802C137.277 148.147 136.759 147.802 136.413 146.765C135.722 144.693 136.24 143.224 137.968 142.361C140.213 141.497 142.286 139.942 144.186 137.697C146.086 135.279 147.727 132.688 149.109 129.924C150.664 126.987 151.959 124.051 152.996 121.114C154.032 118.178 154.723 115.76 155.068 113.86ZM111.021 105.309C111.021 107.382 110.244 109.196 108.689 110.75C107.307 112.132 105.58 112.823 103.507 112.823C101.607 112.823 100.053 112.132 98.8437 110.75C97.6345 109.196 97.0298 107.382 97.0298 105.309C97.0298 103.409 97.6345 101.682 98.8437 100.127C100.053 98.4 101.607 97.5363 103.507 97.5363C105.58 97.5363 107.307 98.4 108.689 100.127C110.244 101.682 111.021 103.409 111.021 105.309ZM85.8885 104.273C86.0613 102.2 86.8386 100.127 88.2205 98.0545C89.7751 95.9817 91.5888 94.168 93.6616 92.6134C95.9071 90.886 98.3253 89.5042 100.916 88.4678C103.68 87.4314 106.444 86.9995 109.208 87.1723C110.417 87.8632 111.021 88.6405 111.021 89.5042C111.021 90.886 110.244 91.4042 108.689 91.0588C106.789 90.886 104.889 91.2315 102.989 92.0952C101.262 92.9588 99.6209 94.168 98.0663 95.7226C96.6844 97.1044 95.3889 98.6591 94.1798 100.386C92.9707 101.941 92.0206 103.496 91.3296 105.05C90.9842 105.568 90.3796 106 89.5159 106.346C88.6523 106.691 88.0477 106.778 87.7022 106.605C87.184 106.605 86.6659 106.346 86.1477 105.827C85.6295 105.309 85.5431 104.791 85.8885 104.273ZM163.878 141.065C164.741 138.82 165.95 138.042 167.505 138.733C168.714 139.079 169.319 139.683 169.319 140.547C169.319 141.238 169.146 142.015 168.801 142.879C167.764 145.297 166.555 147.37 165.173 149.097C163.791 150.652 162.15 151.947 160.25 152.984C158.35 153.847 156.105 154.538 153.514 155.057C150.923 155.575 147.814 155.92 144.186 156.093C143.15 156.438 142.113 156.438 141.077 156.093C140.04 155.747 139.522 155.057 139.522 154.02C139.522 153.156 140.04 152.725 141.077 152.725H143.927C150.491 152.206 155.068 150.997 157.659 149.097C160.423 147.197 162.496 144.52 163.878 141.065ZM50.3919 145.47C51.2555 146.161 51.3419 147.543 50.651 149.615C50.1328 151.515 48.9237 153.416 47.0236 155.316C45.2963 157.561 43.4826 159.116 41.5825 159.979C39.6825 160.67 38.3006 160.757 37.4369 160.239C36.5732 159.375 36.4005 157.907 36.9187 155.834C37.4369 153.761 38.646 151.775 40.546 149.875C42.2734 147.802 44.0871 146.333 45.9871 145.47C47.8872 144.606 49.3555 144.606 50.3919 145.47ZM161.805 158.684C163.187 157.302 164.396 156.87 165.432 157.388C166.469 157.907 167.073 158.684 167.246 159.72C167.246 160.929 166.642 162.052 165.432 163.089C163.878 164.643 162.15 165.766 160.25 166.457C158.35 167.148 156.45 167.58 154.55 167.752C152.823 167.925 151.095 167.839 149.368 167.493C147.641 167.148 146.173 166.802 144.963 166.457C144.1 166.111 142.977 165.68 141.595 165.161C140.386 164.471 139.954 163.693 140.3 162.83C140.645 161.966 140.991 161.62 141.336 161.793C141.854 161.793 142.718 161.879 143.927 162.052C145.654 162.916 148.332 163.348 151.959 163.348C155.587 163.175 158.868 161.62 161.805 158.684Z" fill="#222831"/>
<path d="M111.021 105.309C111.021 107.382 110.244 109.196 108.689 110.75C107.307 112.132 105.58 112.823 103.507 112.823C101.607 112.823 100.053 112.132 98.8437 110.75C97.6345 109.196 97.0298 107.382 97.0298 105.309C97.0298 103.409 97.6345 101.682 98.8437 100.127C100.053 98.4 101.607 97.5363 103.507 97.5363C105.58 97.5363 107.307 98.4 108.689 100.127C110.244 101.682 111.021 103.409 111.021 105.309Z" fill="#00ADB5"/>
<path d="M85.8885 104.273C86.0613 102.2 86.8386 100.127 88.2205 98.0545C89.7751 95.9817 91.5888 94.168 93.6616 92.6134C95.9071 90.886 98.3253 89.5042 100.916 88.4678C103.68 87.4314 106.444 86.9995 109.208 87.1723C110.417 87.8632 111.021 88.6405 111.021 89.5042C111.021 90.886 110.244 91.4042 108.689 91.0588C106.789 90.886 104.889 91.2315 102.989 92.0952C101.262 92.9588 99.6209 94.168 98.0663 95.7226C96.6844 97.1044 95.3889 98.6591 94.1798 100.386C92.9707 101.941 92.0206 103.496 91.3296 105.05C90.9842 105.568 90.3796 106 89.5159 106.346C88.6523 106.691 88.0477 106.778 87.7022 106.605C87.184 106.605 86.6659 106.346 86.1477 105.827C85.6295 105.309 85.5431 104.791 85.8885 104.273Z" fill="#00ADB5"/>
<path d="M50.3919 145.47C51.2555 146.161 51.3419 147.543 50.651 149.615C50.1328 151.515 48.9237 153.416 47.0236 155.316C45.2963 157.561 43.4826 159.116 41.5825 159.979C39.6825 160.67 38.3006 160.757 37.4369 160.239C36.5732 159.375 36.4005 157.907 36.9187 155.834C37.4369 153.761 38.646 151.775 40.546 149.875C42.2734 147.802 44.0871 146.333 45.9871 145.47C47.8872 144.606 49.3555 144.606 50.3919 145.47Z" fill="#00ADB5"/>
<path d="M147.295 80.9539C156.277 84.9267 163.964 90.4542 170.355 97.5363C176.746 104.446 182.015 112.219 186.16 120.855C190.479 129.492 193.847 138.733 196.265 148.579C198.683 158.425 200.497 168.271 201.706 178.116C202.916 187.962 203.606 197.549 203.779 206.877C203.952 216.377 203.866 225.014 203.52 232.787H192.897C193.242 225.359 193.415 217.154 193.415 208.172C193.588 199.19 193.242 190.035 192.379 180.707C191.515 171.207 190.047 161.793 187.974 152.466C186.074 143.138 183.224 134.415 179.424 126.296C175.796 118.178 171.046 110.923 165.173 104.532C159.473 97.9681 152.477 92.8725 144.186 89.2451C143.323 88.5541 142.804 87.5177 142.632 86.1359C142.459 84.754 142.545 83.6312 142.891 82.7676C143.754 80.6948 145.223 80.0902 147.295 80.9539Z" fill="#00ADB5"/>
<path d="M155.068 113.86C155.414 111.96 156.882 111.009 159.473 111.009C160.337 111.182 161.028 111.787 161.546 112.823C162.064 113.687 162.237 114.551 162.064 115.414C161.891 116.796 161.287 118.955 160.25 121.892C159.214 124.828 157.746 127.937 155.846 131.219C153.946 134.501 151.7 137.61 149.109 140.547C146.518 143.483 143.582 145.556 140.3 146.765C139.436 147.111 138.659 147.456 137.968 147.802C137.277 148.147 136.759 147.802 136.413 146.765C135.722 144.693 136.24 143.224 137.968 142.361C140.213 141.497 142.286 139.942 144.186 137.697C146.086 135.279 147.727 132.688 149.109 129.924C150.664 126.987 151.959 124.051 152.996 121.114C154.032 118.178 154.723 115.76 155.068 113.86Z" fill="#00ADB5"/>
<path d="M163.878 141.065C164.741 138.82 165.95 138.042 167.505 138.733C168.714 139.079 169.319 139.683 169.319 140.547C169.319 141.238 169.146 142.015 168.801 142.879C167.764 145.297 166.555 147.37 165.173 149.097C163.791 150.652 162.15 151.947 160.25 152.984C158.35 153.847 156.105 154.538 153.514 155.057C150.923 155.575 147.814 155.92 144.186 156.093C143.15 156.438 142.113 156.438 141.077 156.093C140.04 155.747 139.522 155.057 139.522 154.02C139.522 153.156 140.04 152.725 141.077 152.725H143.927C150.491 152.206 155.068 150.997 157.659 149.097C160.423 147.197 162.496 144.52 163.878 141.065Z" fill="#00ADB5"/>
<path d="M161.805 158.684C163.187 157.302 164.396 156.87 165.432 157.388C166.469 157.907 167.073 158.684 167.246 159.72C167.246 160.929 166.642 162.052 165.432 163.089C163.878 164.643 162.15 165.766 160.25 166.457C158.35 167.148 156.45 167.58 154.55 167.752C152.823 167.925 151.095 167.839 149.368 167.493C147.641 167.148 146.173 166.802 144.963 166.457C144.1 166.111 142.977 165.68 141.595 165.161C140.386 164.471 139.954 163.693 140.3 162.83C140.645 161.966 140.991 161.62 141.336 161.793C141.854 161.793 142.718 161.879 143.927 162.052C145.654 162.916 148.332 163.348 151.959 163.348C155.587 163.175 158.868 161.62 161.805 158.684Z" fill="#00ADB5"/>
</svg>
