<svg width="256" height="256" viewBox="0 0 256 256" fill="none" xmlns="http://www.w3.org/2000/svg">
<path d="M166.085 197.351L163.494 195.278L160.644 193.464C157.535 191.564 154.253 189.232 150.799 186.469C147.344 183.532 145.185 180.423 144.321 177.141C151.058 175.586 156.585 172.736 160.903 168.591C165.395 164.272 167.64 158.486 167.64 151.231C167.64 145.531 166.172 140.176 163.235 135.167C160.299 129.985 157.19 125.148 153.908 120.657C152.008 118.066 150.367 115.648 148.985 113.402C147.776 111.157 146.739 109.084 145.876 107.184C150.367 107.53 155.117 107.961 160.126 108.48C165.308 108.825 170.317 109.516 175.154 110.552C177.4 111.243 178.695 110.552 179.041 108.48C179.386 107.616 179.386 106.752 179.041 105.889C178.868 105.025 178.436 104.507 177.745 104.334L162.199 95.0063L155.721 91.3789L151.058 87.2333C149.503 85.8514 147.776 84.4696 145.876 83.0877C144.148 81.5331 142.162 80.2376 139.916 79.2012C142.162 77.4739 143.976 75.3147 145.357 72.7237C146.739 70.1327 147.43 67.1962 147.43 63.9143C147.43 58.7323 145.53 54.3276 141.73 50.7002C138.103 46.9001 133.525 45 127.998 45C122.816 45 118.325 46.9001 114.525 50.7002C110.724 54.3276 108.824 58.7323 108.824 63.9143C108.824 67.1962 109.515 70.1327 110.897 72.7237C112.452 75.3147 114.265 77.4739 116.338 79.2012C114.265 80.2376 112.279 81.5331 110.379 83.0877C108.479 84.4696 106.838 85.8514 105.456 87.2333L100.274 91.3789L94.3147 95.0063L78.5096 104.334C77.646 104.507 77.0414 105.025 76.6959 105.889C76.5232 106.752 76.6096 107.616 76.955 108.48C77.3005 109.343 77.8187 110.034 78.5096 110.552C79.3733 110.898 80.0642 110.898 80.5824 110.552C85.5917 109.516 90.6873 108.825 95.8693 108.48C101.051 107.961 105.888 107.53 110.379 107.184C108.997 110.639 106.233 115.13 102.088 120.657C98.9785 125.148 95.8693 129.985 92.7601 135.167C89.8237 140.176 88.3554 145.531 88.3554 151.231C88.3554 158.486 90.601 164.272 95.092 168.591C99.5831 172.736 105.111 175.586 111.674 177.141C111.329 178.696 110.552 180.25 109.343 181.805C108.306 183.359 107.011 184.828 105.456 186.21C103.901 187.591 102.26 188.887 100.533 190.096C98.9785 191.305 97.4239 192.428 95.8693 193.464L93.0192 195.278L89.91 197.351C87.6645 198.733 85.0735 200.46 82.137 202.533C79.2005 204.778 76.4368 207.456 73.8458 210.565C71.2548 213.847 69.0093 217.647 67.1092 221.965C65.2092 226.456 64.1727 231.638 64 237.511V241.398H191.736V237.511C191.736 231.638 190.786 226.456 188.886 221.965C187.159 217.647 184.913 213.847 182.15 210.565C179.559 207.456 176.795 204.778 173.858 202.533C170.922 200.46 168.331 198.733 166.085 197.351V197.351Z" fill="#222831"/>
</svg>
