<svg width="32" height="32" viewBox="0 0 32 32" fill="none" xmlns="http://www.w3.org/2000/svg">
<path d="M24.5427 30.4931H7.04392C5.93077 28.4672 5.26844 26.2631 5.05695 23.881C4.85658 21.4877 5.18496 19.1167 6.04209 16.7679C6.89922 14.4192 8.18491 12.4155 9.89916 10.7569C11.6134 9.08716 13.5726 7.83487 15.7766 7C17.9584 7.93505 19.8897 9.243 21.5706 10.9239C23.2514 12.6047 24.5204 14.614 25.3776 16.9516C26.2124 19.2669 26.5408 21.6046 26.3627 23.9645C26.1846 26.3132 25.5779 28.4894 24.5427 30.4931ZM8.06246 28.7733L23.7245 28.8234C25.1716 25.2279 25.1883 21.4654 23.7746 17.536C23.0399 15.5212 21.9713 13.7568 20.5687 12.243C19.1662 10.7291 17.5688 9.53799 15.7766 8.66973C13.9844 9.44894 12.3648 10.5899 10.9177 12.0927C9.48173 13.5843 8.39641 15.3375 7.66172 17.3523C6.94931 19.2892 6.64319 21.2484 6.74337 23.2298C6.84356 25.2112 7.28325 27.059 8.06246 28.7733ZM14.1403 24.983C13.8063 24.3374 13.8564 23.4246 14.2906 22.2446C14.7247 21.0536 14.8416 20.1519 14.6412 19.5397C14.4408 18.9386 14.1013 18.9775 13.6227 19.6566C13.1551 20.3244 12.7822 20.4747 12.5039 20.1074C12.2145 19.7512 12.0698 19.2113 12.0698 18.4877C12.0698 17.7531 12.2145 17.202 12.5039 16.8347C12.7822 16.4785 13.1384 16.5509 13.5726 17.0518C14.0178 17.5416 14.374 17.6529 14.6412 17.3857C14.9084 17.1408 14.797 16.7957 14.3072 16.3505C13.8286 15.8941 13.7729 15.5268 14.1403 15.2485C14.4965 14.9702 15.0364 14.831 15.7599 14.831C16.4946 14.831 17.0456 14.9702 17.4129 15.2485C17.7692 15.5268 17.7024 15.8941 17.2126 16.3505C16.7339 16.7957 16.6282 17.1408 16.8953 17.3857C17.1625 17.6529 17.5131 17.5416 17.9473 17.0518C18.3925 16.5509 18.7599 16.4785 19.0493 16.8347C19.3276 17.202 19.4667 17.7531 19.4667 18.4877C19.4667 19.2113 19.3276 19.7512 19.0493 20.1074C18.7599 20.4747 18.3758 20.3244 17.8972 19.6566C17.4296 18.9775 17.0957 18.9386 16.8953 19.5397C16.695 20.1519 16.8118 21.0536 17.246 22.2446C17.6801 23.4246 17.7358 24.3374 17.4129 24.983C17.079 25.6397 16.528 25.9681 15.7599 25.9681C15.003 25.9681 14.4631 25.6397 14.1403 24.983Z" fill="black"/>
<path d="M8.06253 28.7733L23.7246 28.8234C25.1717 25.2279 25.1884 21.4654 23.7747 17.536C23.04 15.5212 21.9714 13.7568 20.5688 12.2429C19.1662 10.7291 17.5689 9.53798 15.7767 8.66972C13.9845 9.44893 12.3649 10.5899 10.9178 12.0927C9.4818 13.5843 8.39647 15.3375 7.66179 17.3523C6.94937 19.2892 6.64326 21.2484 6.74344 23.2298C6.84363 25.2112 7.28332 27.059 8.06253 28.7733ZM14.1403 24.983C13.8064 24.3374 13.8565 23.4246 14.2906 22.2446C14.7247 21.0536 14.8416 20.1519 14.6413 19.5397C14.4409 18.9386 14.1014 18.9775 13.6227 19.6565C13.1552 20.3244 12.7823 20.4747 12.504 20.1074C12.2146 19.7512 12.0699 19.2113 12.0699 18.4877C12.0699 17.7531 12.2146 17.202 12.504 16.8347C12.7823 16.4785 13.1385 16.5508 13.5726 17.0518C14.0179 17.5416 14.3741 17.6529 14.6413 17.3857C14.9084 17.1408 14.7971 16.7957 14.3073 16.3505C13.8287 15.8941 13.773 15.5267 14.1403 15.2485C14.4966 14.9702 15.0364 14.831 15.76 14.831C16.4947 14.831 17.0457 14.9702 17.413 15.2485C17.7692 15.5267 17.7024 15.8941 17.2126 16.3505C16.734 16.7957 16.6282 17.1408 16.8954 17.3857C17.1626 17.6529 17.5132 17.5416 17.9473 17.0518C18.3926 16.5508 18.7599 16.4785 19.0493 16.8347C19.3276 17.202 19.4668 17.7531 19.4668 18.4877C19.4668 19.2113 19.3276 19.7512 19.0493 20.1074C18.7599 20.4747 18.3759 20.3244 17.8972 19.6565C17.4297 18.9775 17.0958 18.9386 16.8954 19.5397C16.695 20.1519 16.8119 21.0536 17.246 22.2446C17.6802 23.4246 17.7358 24.3374 17.413 24.983C17.0791 25.6397 16.5281 25.9681 15.76 25.9681C15.003 25.9681 14.4632 25.6397 14.1403 24.983Z" fill="white"/>
</svg>
