<svg width="32" height="32" viewBox="0 0 32 32" fill="none" xmlns="http://www.w3.org/2000/svg">
<path d="M19.3485 13.3189C22.1536 13.92 24.469 15.1055 26.2946 16.8755C28.1313 18.6454 29.0496 20.6713 29.0496 22.9533C29.0496 24.3113 28.7157 25.5859 28.0478 26.777C27.391 27.968 26.5005 29.0033 25.3762 29.8826H5.74019C3.24673 27.9903 2 25.6805 2 22.9533C2 20.6936 2.89609 18.6843 4.68826 16.9255C6.49157 15.1668 8.79023 13.9701 11.5842 13.3356C11.1056 12.9349 10.8663 12.4729 10.8663 11.9498C10.8663 11.2596 11.3171 10.6696 12.2187 10.1798C13.1204 9.67892 14.2113 9.42846 15.4914 9.42846C16.7604 9.42846 17.8457 9.67892 18.7474 10.1798C19.6602 10.6696 20.1166 11.2596 20.1166 11.9498C20.1166 12.4952 19.8605 12.9516 19.3485 13.3189V13.3189ZM24.6749 27.879C26.2445 26.4653 27.0292 24.7955 27.0292 22.8698C27.0292 20.6323 25.905 18.7177 23.6564 17.1259C21.4078 15.523 18.6973 14.7215 15.5248 14.7215C12.3523 14.7215 9.6418 15.523 7.39323 17.1259C5.14466 18.7177 4.02037 20.6323 4.02037 22.8698C4.02037 24.751 4.84967 26.4207 6.50827 27.879H24.6749ZM15.5081 10.998C14.8736 10.998 14.3337 11.0926 13.8885 11.2819C13.4543 11.4711 13.2373 11.6937 13.2373 11.9498C13.2373 12.2169 13.4543 12.4451 13.8885 12.6343C14.3337 12.8236 14.8736 12.9182 15.5081 12.9182C16.1315 12.9182 16.6658 12.8236 17.1111 12.6343C17.5563 12.4451 17.7789 12.2169 17.7789 11.9498C17.7789 11.6937 17.5563 11.4711 17.1111 11.2819C16.6658 11.0926 16.1315 10.998 15.5081 10.998ZM12.5193 7.57506C12.241 7.3079 12.1019 6.91273 12.1019 6.38955C12.1019 5.85524 12.241 5.4545 12.5193 5.18735C12.7976 4.92019 13.1649 4.97028 13.6213 5.33762C14.0777 5.69383 14.4395 5.74949 14.7066 5.50459C14.9738 5.2597 14.9237 4.91462 14.5564 4.46936C14.189 4.01297 14.1445 3.65119 14.4228 3.38404C14.6899 3.12801 15.0962 3 15.6417 3C16.1983 3 16.6157 3.12801 16.894 3.38404C17.1611 3.65119 17.1111 4.01297 16.7437 4.46936C16.3875 4.91462 16.343 5.2597 16.6101 5.50459C16.8662 5.74949 17.2224 5.69383 17.6788 5.33762C18.1352 4.97028 18.5081 4.92019 18.7975 5.18735C19.0646 5.4545 19.1982 5.85524 19.1982 6.38955C19.1982 6.91273 19.0646 7.3079 18.7975 7.57506C18.5081 7.84222 18.1352 7.80326 17.6788 7.45818C17.2335 7.10197 16.8773 7.03518 16.6101 7.25781C16.3207 7.49157 16.304 7.90901 16.56 8.51011C16.8272 9.10008 16.8439 9.39506 16.6101 9.39506C16.3541 9.39506 16.0647 9.38394 15.7419 9.36169C15.4191 9.32829 15.074 9.33942 14.7066 9.39506C14.3393 9.46185 14.317 9.18357 14.6399 8.5602C14.9627 7.9257 14.9849 7.49157 14.7066 7.25781C14.4284 7.03518 14.061 7.10197 13.6046 7.45818C13.1594 7.80326 12.7976 7.84222 12.5193 7.57506Z" fill="black"/>
<path d="M24.6749 27.879C26.2444 26.4653 27.0292 24.7955 27.0292 22.8698C27.0292 20.6324 25.9049 18.7177 23.6563 17.1259C21.4077 15.523 18.6972 14.7215 15.5247 14.7215C12.3522 14.7215 9.64172 15.523 7.39315 17.1259C5.14458 18.7177 4.02029 20.6324 4.02029 22.8698C4.02029 24.751 4.84959 26.4208 6.50819 27.879H24.6749ZM15.508 10.998C14.8735 10.998 14.3337 11.0926 13.8884 11.2819C13.4543 11.4711 13.2372 11.6937 13.2372 11.9498C13.2372 12.2169 13.4543 12.4451 13.8884 12.6344C14.3337 12.8236 14.8735 12.9182 15.508 12.9182C16.1314 12.9182 16.6657 12.8236 17.111 12.6344C17.5562 12.4451 17.7789 12.2169 17.7789 11.9498C17.7789 11.6937 17.5562 11.4711 17.111 11.2819C16.6657 11.0926 16.1314 10.998 15.508 10.998Z" fill="white"/>
</svg>
