<svg width="32" height="32" viewBox="0 0 32 32" fill="none" xmlns="http://www.w3.org/2000/svg">
<path d="M18.2744 13.0314C19.4877 12.8088 20.0387 12.3635 19.9274 11.6956C19.8161 11.0389 19.1537 10.8218 17.9404 11.0444C16.7159 11.2782 16.1649 11.7235 16.2874 12.3802C16.4098 13.0592 17.0721 13.2763 18.2744 13.0314ZM26.8234 29.7454L5.28385 29.7788C5.47309 26.8289 6.29682 24.2297 7.75505 21.9812C9.22442 19.7326 11.473 18.4246 14.5008 18.0573C13.6882 17.9682 12.9257 17.7122 12.2132 17.2892C11.5119 16.8662 10.9776 16.254 10.6103 15.4525C10.243 15.4859 9.80326 15.5861 9.29121 15.7531C8.77915 15.92 8.23371 15.9033 7.65487 15.703C6.38588 15.7698 5.62336 15.3523 5.36734 14.4507C5.12245 13.549 5 12.7086 5 11.9294C5 11.1502 5.26159 10.4823 5.78477 9.9257C6.30796 9.35799 6.95358 9.05188 7.72166 9.00735C11.9294 9.07414 15.8198 8.75689 19.3931 8.05561C22.9774 7.34319 25.5544 6.32465 27.1239 5C27.5914 5.80147 27.8252 6.6252 27.8252 7.4712C27.8252 8.56209 27.4857 9.5194 26.8067 10.3431C26.1388 11.1557 25.3095 11.6455 24.3188 11.8125C25.0201 11.9795 25.61 12.3691 26.0887 12.9813C26.5673 13.5824 26.8067 14.2726 26.8067 15.0518C26.8067 15.8532 26.5673 16.5545 26.0887 17.1556C25.61 17.7567 25.0201 18.1408 24.3188 18.3077C25.0201 18.4859 25.61 18.8755 26.0887 19.4766C26.5673 20.0777 26.8067 20.7734 26.8067 21.5637C26.8067 22.3652 26.5673 23.0665 26.0887 23.6676C25.61 24.2687 25.0201 24.6527 24.3188 24.8197C25.0201 24.9978 25.6045 25.393 26.072 26.0052C26.5506 26.6063 26.79 27.2965 26.79 28.0757L26.8234 29.7454Z" fill="black"/>
<path d="M18.2744 13.0314C19.4877 12.8088 20.0387 12.3635 19.9274 11.6957C19.8161 11.0389 19.1538 10.8218 17.9404 11.0445C16.716 11.2782 16.1649 11.7235 16.2874 12.3802C16.4098 13.0593 17.0722 13.2763 18.2744 13.0314Z" fill="#EEEEEE"/>
</svg>
