<svg width="32" height="32" viewBox="0 0 32 32" fill="none" xmlns="http://www.w3.org/2000/svg">
<path d="M26.8234 29.7454L5.28385 29.7788C5.47309 26.8289 6.29682 24.2297 7.75505 21.9811C9.22442 19.7326 11.473 18.4246 14.5008 18.0573C13.6882 17.9682 12.9257 17.7122 12.2132 17.2892C11.5119 16.8662 10.9776 16.254 10.6103 15.4525C10.243 15.4859 9.80326 15.5861 9.29121 15.7531C8.77915 15.92 8.23371 15.9033 7.65487 15.703C6.38588 15.7698 5.62336 15.3523 5.36734 14.4507C5.12245 13.549 5 12.7086 5 11.9294C5 11.1502 5.26159 10.4823 5.78477 9.9257C6.30796 9.358 6.95358 9.05188 7.72166 9.00735C11.9294 9.07414 15.8198 8.75689 19.3931 8.05561C22.9774 7.34319 25.5544 6.32465 27.1239 5C27.5914 5.80147 27.8252 6.6252 27.8252 7.4712C27.8252 8.56209 27.4857 9.5194 26.8067 10.3431C26.1388 11.1557 25.3095 11.6455 24.3188 11.8125C25.0201 11.9795 25.61 12.3691 26.0887 12.9813C26.5673 13.5824 26.8067 14.2726 26.8067 15.0518C26.8067 15.8532 26.5673 16.5545 26.0887 17.1556C25.61 17.7567 25.0201 18.1408 24.3188 18.3077C25.0201 18.4859 25.61 18.8754 26.0887 19.4766C26.5673 20.0777 26.8067 20.7734 26.8067 21.5637C26.8067 22.3652 26.5673 23.0665 26.0887 23.6676C25.61 24.2687 25.0201 24.6527 24.3188 24.8197C25.0201 24.9978 25.6045 25.393 26.072 26.0052C26.5506 26.6063 26.79 27.2965 26.79 28.0757L26.8234 29.7454ZM25.1035 28.1091C25.1035 27.0071 24.636 26.4616 23.701 26.4727C22.6657 26.495 22.1481 25.9551 22.1481 24.8531C22.1481 23.7622 22.6657 23.2168 23.701 23.2168C24.7251 23.2056 25.2371 22.6546 25.2371 21.5637C25.2371 20.4617 24.7251 19.9274 23.701 19.9608C22.6657 20.0053 22.1481 19.471 22.1481 18.3579C22.1481 17.2558 22.6824 16.7048 23.7511 16.7048C24.7418 16.7271 25.2371 16.1983 25.2371 15.1186C25.2371 14.0277 24.7251 13.4822 23.701 13.4822C22.6657 13.5045 22.1481 12.9646 22.1481 11.8626C22.1481 10.7828 22.6657 10.2318 23.701 10.2096C24.4023 10.1984 25.0034 9.93128 25.5043 9.4081C26.0052 8.87379 26.2612 8.25599 26.2724 7.5547C24.2687 8.6122 21.6361 9.44706 18.3745 10.0593C15.113 10.6604 11.7179 10.8942 8.18918 10.7606C7.15395 10.6827 6.63634 11.0834 6.63634 11.9628C6.63634 12.3079 6.64191 12.7754 6.65304 13.3654C6.67529 13.9553 7.0482 14.2002 7.77176 14.1C8.37286 14.2781 8.95727 14.306 9.52498 14.1835C10.1038 14.05 10.7105 13.9219 11.345 13.7995C11.8236 14.9349 12.6028 15.7419 13.6826 16.2206C14.7735 16.6993 15.8533 16.6714 16.9219 16.1371C18.1241 16.0815 18.7252 16.6436 18.7252 17.8235C18.7252 19.0035 18.1241 19.638 16.9219 19.727C13.883 19.6936 11.6288 20.4673 10.1595 22.048C8.69011 23.6286 7.77176 25.6379 7.40442 28.0757L25.1035 28.1091ZM18.2744 12.9813C17.1055 13.204 16.471 12.998 16.3709 12.3635C16.2595 11.7402 16.7883 11.3172 17.9571 11.0945C19.1036 10.8719 19.7326 11.0778 19.8439 11.7123C19.9441 12.358 19.4209 12.781 18.2744 12.9813Z" fill="black"/>
<path d="M25.1036 28.1091C25.1036 27.007 24.6361 26.4616 23.701 26.4727C22.6658 26.495 22.1482 25.9551 22.1482 24.8531C22.1482 23.7622 22.6658 23.2168 23.701 23.2168C24.7251 23.2056 25.2372 22.6546 25.2372 21.5637C25.2372 20.4617 24.7251 19.9274 23.701 19.9608C22.6658 20.0053 22.1482 19.471 22.1482 18.3578C22.1482 17.2558 22.6825 16.7048 23.7511 16.7048C24.7418 16.7271 25.2372 16.1983 25.2372 15.1186C25.2372 14.0277 24.7251 13.4822 23.701 13.4822C22.6658 13.5045 22.1482 12.9646 22.1482 11.8626C22.1482 10.7828 22.6658 10.2318 23.701 10.2096C24.4023 10.1984 25.0034 9.93126 25.5043 9.40809C26.0052 8.87377 26.2613 8.25598 26.2724 7.55469C24.2687 8.61218 21.6361 9.44705 18.3746 10.0593C15.113 10.6604 11.7179 10.8941 8.18923 10.7606C7.154 10.6826 6.63638 11.0834 6.63638 11.9628C6.63638 12.3079 6.64195 12.7754 6.65309 13.3653C6.67534 13.9553 7.04825 14.2002 7.77181 14.1C8.37291 14.2781 8.95732 14.306 9.52503 14.1835C10.1039 14.0499 10.7105 13.9219 11.345 13.7995C11.8237 14.9349 12.6029 15.7419 13.6827 16.2206C14.7735 16.6992 15.8533 16.6714 16.9219 16.1371C18.1241 16.0814 18.7252 16.6436 18.7252 17.8235C18.7252 19.0035 18.1241 19.638 16.9219 19.727C13.883 19.6936 11.6289 20.4673 10.1595 22.0479C8.69016 23.6286 7.77181 25.6379 7.40447 28.0757L25.1036 28.1091ZM18.2744 12.9813C17.1056 13.2039 16.4711 12.998 16.3709 12.3635C16.2596 11.7401 16.7883 11.3171 17.9571 11.0945C19.1037 10.8719 19.7326 11.0778 19.8439 11.7123C19.9441 12.3579 19.4209 12.7809 18.2744 12.9813Z" fill="white"/>
</svg>
