<svg width="32" height="32" viewBox="0 0 32 32" fill="none" xmlns="http://www.w3.org/2000/svg">
<path d="M20.8661 26.2334C19.7084 26.2334 19.1296 25.6602 19.1296 24.5136C19.1296 23.9793 19.3467 23.5285 19.7808 23.1611C20.727 22.4821 21.4839 21.6139 22.0516 20.5564C22.6305 19.4989 22.9199 18.3523 22.9199 17.1167C22.9199 15.0796 22.1963 13.3376 20.7492 11.8905C19.3021 10.4434 17.56 9.71982 15.523 9.71982C13.4859 9.71982 11.7438 10.4434 10.2967 11.8905C8.84962 13.3376 8.12607 15.0796 8.12607 17.1167C8.12607 18.3857 8.42105 19.5601 9.01103 20.6398C9.61213 21.7196 10.408 22.5934 11.3987 23.2613C11.7327 23.6175 11.8997 24.035 11.8997 24.5136C11.8997 25.6602 11.3375 26.2334 10.2132 26.2334H4.71982V27.97H26.3261V26.2334H20.8661ZM20.8661 24.4969L28.0459 24.5136V29.6898H3V24.5136H10.2132C7.67524 22.7549 6.40625 20.2892 6.40625 17.1167C6.40625 14.6121 7.29677 12.4693 9.07782 10.6883C10.8589 8.89609 13.0072 8 15.523 8C18.0276 8 20.1704 8.89609 21.9514 10.6883C23.7436 12.4693 24.6397 14.6121 24.6397 17.1167C24.6397 18.6306 24.2946 20.0332 23.6045 21.3244C22.9143 22.6046 22.0015 23.6621 20.8661 24.4969V24.4969Z" fill="black"/>
<path d="M20.8661 26.2334C19.7085 26.2334 19.1296 25.6602 19.1296 24.5136C19.1296 23.9793 19.3467 23.5285 19.7808 23.1611C20.727 22.4821 21.4839 21.6139 22.0516 20.5564C22.6305 19.4989 22.9199 18.3523 22.9199 17.1167C22.9199 15.0797 22.1964 13.3376 20.7493 11.8905C19.3022 10.4434 17.5601 9.71982 15.523 9.71982C13.4859 9.71982 11.7438 10.4434 10.2967 11.8905C8.84965 13.3376 8.1261 15.0797 8.1261 17.1167C8.1261 18.3857 8.42108 19.5601 9.01105 20.6399C9.61216 21.7196 10.4081 22.5934 11.3988 23.2613C11.7327 23.6175 11.8997 24.035 11.8997 24.5136C11.8997 25.6602 11.3375 26.2334 10.2133 26.2334H4.71985V27.97H26.3261V26.2334H20.8661Z" fill="white"/>
</svg>
