<svg width="32" height="32" viewBox="0 0 32 32" fill="none" xmlns="http://www.w3.org/2000/svg">
<path d="M15.4918 10C16.3261 10.7006 17.1111 11.7994 17.8467 13.2962C18.5932 14.793 19.241 16.518 19.7899 18.4713C21.4696 16.051 23.1274 14.2357 24.7632 13.0255C26.41 11.8047 27.7713 11.4331 28.8472 11.9108C29.5609 12.2399 29.9451 12.7548 30 13.4554C28.2324 13.3705 26.7558 14.9575 25.5701 18.2166C24.3954 21.4756 23.8245 25.4034 23.8575 30H7.19194C7.19194 25.4034 6.5936 21.4756 5.39693 18.2166C4.21124 14.9575 2.7456 13.3705 1 13.4554C1.04391 12.7548 1.42817 12.2399 2.15275 11.9108C3.21768 11.4331 4.57354 11.8047 6.22033 13.0255C7.86712 14.2357 9.53038 16.051 11.2101 18.4713C11.7481 16.518 12.3848 14.793 13.1204 13.2962C13.8669 11.7994 14.6574 10.7006 15.4918 10V10Z" fill="black"/>
</svg>
