<svg width="32" height="32" viewBox="0 0 32 32" fill="none" xmlns="http://www.w3.org/2000/svg">
<path d="M22.2724 28.3021C22.328 25.0739 22.6341 22.33 23.1907 20.0703C23.7584 17.8106 24.6823 15.7847 25.9625 13.9925C25.9291 13.7365 25.5005 13.9814 24.6768 14.7272C23.8642 15.473 23.2241 16.1409 22.7566 16.7308C22.0442 17.6325 21.4931 18.3672 21.1035 18.9349C20.7139 19.4915 20.1963 20.1538 19.5507 20.9219C19.1277 19.3523 18.5155 17.6381 17.714 15.7791C16.9125 13.9201 16.2279 12.6901 15.6602 12.089C15.0814 12.6901 14.3912 13.9201 13.5898 15.7791C12.7883 17.6381 12.1816 19.3523 11.7698 20.9219C11.113 20.1538 10.5898 19.4915 10.2002 18.9349C9.82174 18.3672 9.27629 17.6325 8.56388 16.7308C8.08522 16.1409 7.43403 15.473 6.61029 14.7272C5.79769 13.9814 5.38582 13.7365 5.37469 13.9925C6.62142 15.7624 7.50638 17.7828 8.02956 20.0536C8.56388 22.3244 8.84773 25.0739 8.88112 28.3021H22.2724ZM15.6936 9C16.5396 9.73468 17.3355 10.8868 18.0813 12.4563C18.8383 14.0259 19.495 15.8348 20.0516 17.883C21.7547 15.345 23.4356 13.4415 25.0942 12.1725C26.7639 10.8924 28.1442 10.5028 29.2351 11.0037C29.9587 11.3488 30.3483 11.8886 30.4039 12.6233C28.6118 12.5343 27.1146 14.1984 25.9124 17.6158C24.7213 21.0332 24.1425 25.1518 24.1758 29.9718H7.27818C7.27818 25.1518 6.67152 21.0332 5.45818 17.6158C4.25597 14.1984 2.76991 12.5343 1 12.6233C1.04453 11.8886 1.43413 11.3488 2.16881 11.0037C3.24857 10.5028 4.62331 10.8924 6.29304 12.1725C7.96277 13.4415 9.6492 15.345 11.3523 17.883C11.8978 15.8348 12.5434 14.0259 13.2892 12.4563C14.0462 10.8868 14.8476 9.73468 15.6936 9Z" fill="black"/>
<path d="M22.2724 28.3021C22.328 25.0739 22.6341 22.33 23.1907 20.0703C23.7584 17.8106 24.6823 15.7847 25.9625 13.9925C25.9291 13.7365 25.5005 13.9814 24.6768 14.7272C23.8642 15.473 23.2241 16.1409 22.7566 16.7309C22.0442 17.6325 21.4931 18.3672 21.1035 18.9349C20.7139 19.4915 20.1963 20.1538 19.5507 20.9219C19.1277 19.3523 18.5155 17.6381 17.714 15.7791C16.9125 13.9201 16.2279 12.6901 15.6602 12.089C15.0814 12.6901 14.3912 13.9201 13.5898 15.7791C12.7883 17.6381 12.1816 19.3523 11.7698 20.9219C11.113 20.1538 10.5898 19.4915 10.2002 18.9349C9.82174 18.3672 9.2763 17.6325 8.56388 16.7309C8.08522 16.1409 7.43403 15.473 6.61029 14.7272C5.79769 13.9814 5.38583 13.7365 5.37469 13.9925C6.62143 15.7624 7.50638 17.7828 8.02956 20.0536C8.56388 22.3244 8.84773 25.0739 8.88113 28.3021H22.2724Z" fill="white"/>
</svg>
