<svg width="180" height="180" viewBox="0 0 180 180" fill="none" xmlns="http://www.w3.org/2000/svg">
<path d="M92.3929 84.0392C87.5509 84.0392 85.1304 81.6182 85.1304 76.7768C85.1304 71.883 87.5509 69.4361 92.3929 69.4361C97.2349 69.4361 99.6553 71.883 99.6553 76.7768C99.6553 81.6182 97.2349 84.0392 92.3929 84.0392ZM92.3929 123.398C110.562 123.398 124.333 125.038 133.704 128.318C133.756 125.038 134.433 121.654 135.734 118.166C138.129 111.658 142.372 106.374 148.463 102.313C154.034 98.5646 156.819 93.15 156.819 86.0698C156.819 83.2584 156.169 80.4471 154.867 77.6357C152.576 72.6379 148.828 69.2016 143.621 67.3273C141.227 66.4425 138.858 65.9998 136.515 65.9998C132.819 65.9998 129.305 67.0933 125.972 69.2797C112.905 77.8179 103.638 89.5579 98.172 104.5C96.0891 110.279 95.0479 114.834 95.0479 118.166H89.7379C89.7379 114.834 88.6967 110.252 86.6137 104.421C81.1474 89.532 71.8808 77.8179 58.8133 69.2797C55.429 67.0933 51.8888 65.9998 48.1925 65.9998C45.8497 65.9998 43.5069 66.4166 41.1641 67.2491C35.958 69.1757 32.1835 72.6379 29.8407 77.6357C28.5392 80.3947 27.8884 83.1803 27.8884 85.9916C27.8884 93.0718 30.6997 98.5123 36.3224 102.313C42.4657 106.426 46.7087 111.71 49.0515 118.166C50.1968 121.341 50.8736 124.725 51.0819 128.318C60.2449 125.038 74.0149 123.398 92.3929 123.398ZM92.3929 139.953C110.406 139.953 124.125 141.568 133.548 144.795C133.548 144.066 133.522 142.973 133.469 141.515C133.418 140.058 133.391 138.964 133.391 138.235C126.207 135.424 112.54 134.018 92.3929 134.018C72.1929 134.018 58.5264 135.424 51.3942 138.235C51.3942 138.964 51.3682 140.058 51.3161 141.515C51.3161 142.973 51.3161 144.066 51.3161 144.795C60.6352 141.568 74.3276 139.953 92.3929 139.953ZM92.3929 159.398C101.504 159.398 111.083 158.774 121.131 157.524C130.398 156.379 135.031 155.442 135.031 154.713C135.031 153.308 129.383 152.136 118.085 151.199C109.079 150.418 100.514 150.028 92.3929 150.028C82.8135 150.028 73.1042 150.652 63.2644 151.902C54.2577 153.047 49.7543 153.984 49.7543 154.713C49.7543 156.067 55.403 157.238 66.7007 158.227C75.9156 159.008 84.4796 159.398 92.3929 159.398ZM92.3929 164.709C84.0628 164.709 75.3165 164.136 66.1539 162.991C51.6286 161.169 44.3659 158.41 44.3659 154.713C44.3659 153.88 44.8605 153.047 45.8497 152.214C46.0059 147.893 46.0839 144.015 46.0839 140.578C46.0839 135.008 45.9017 130.166 45.5373 126.053C44.9646 123.346 44.444 121.315 43.9755 119.962C41.9971 114.6 38.2747 110.07 32.8082 106.374C25.9361 101.741 22.5 94.9461 22.5 85.9916C22.5 82.3995 23.333 78.8591 24.999 75.3711C27.9665 68.9676 32.7301 64.5683 39.2899 62.1731C42.3095 61.0802 45.277 60.5334 48.1925 60.5334C52.3054 60.5334 56.2882 61.6269 60.1408 63.8134C64.7218 66.4684 69.4856 70.3468 74.4317 75.4493C74.7439 71.0758 76.5141 67.2756 79.7417 64.0474L74.4317 64.1256V28.125H110.354V64.1256L105.044 64.0474C108.168 67.2232 109.911 71.0499 110.276 75.5274C115.222 70.425 120.012 66.5207 124.645 63.8134C128.446 61.6269 132.428 60.5334 136.593 60.5334C139.509 60.5334 142.476 61.0802 145.496 62.1731C152.056 64.5683 156.819 68.9676 159.787 75.3711C161.453 78.8591 162.286 82.3995 162.286 85.9916C162.286 88.9071 161.739 91.8225 160.646 94.7379C158.928 99.4759 156.065 103.354 152.056 106.374C146.693 109.706 142.945 114.235 140.81 119.962C140.237 121.472 139.717 123.502 139.249 126.053C138.884 130.583 138.702 135.424 138.702 140.578C138.702 144.066 138.78 147.945 138.936 152.214C139.925 153.047 140.42 153.88 140.42 154.713C140.42 158.41 133.157 161.169 118.632 162.991C109.417 164.136 100.671 164.709 92.3929 164.709ZM79.7417 54.5984V58.8156H83.9587L92.3929 50.1471L100.827 58.8156H105.122V54.5984L96.4536 46.0863L105.122 37.2619V33.4353H101.296L92.3929 42.1036L83.9587 33.4353H79.7417V37.6523L88.4104 46.0863L79.7417 54.5984ZM92.3929 89.4279C95.8809 89.4279 98.8487 88.2045 101.296 85.7571C103.794 83.2584 105.044 80.2648 105.044 76.7768C105.044 73.2887 103.794 70.3209 101.296 67.8741C98.8487 65.3754 95.8809 64.1256 92.3929 64.1256C88.8525 64.1256 85.8589 65.349 83.412 67.7959C80.9651 70.2427 79.7417 73.2364 79.7417 76.7768C79.7417 80.3171 80.9651 83.3102 83.412 85.7571C85.8589 88.2045 88.8525 89.4279 92.3929 89.4279ZM85.4426 118.322C73.9373 118.634 64.2274 119.728 56.3141 121.602C55.9497 120.248 55.5331 118.947 55.0646 117.697C52.2012 109.888 47.2033 103.666 40.0708 99.0332C37.1033 97.1589 35.0989 94.6862 34.0577 91.6144C32.6521 87.8136 32.7822 84.1174 34.4482 80.5253C36.1662 76.8808 38.9254 74.3557 42.726 72.9501C44.444 72.3257 46.1621 72.0129 47.8801 72.0129C50.4832 72.0129 52.9822 72.7678 55.377 74.2776C68.2363 82.2954 77.2689 93.4363 82.4749 107.701C83.6724 111.138 84.6619 114.677 85.4426 118.322ZM99.4213 118.322C100.098 114.677 101.061 111.138 102.311 107.701C107.465 93.5404 116.498 82.3995 129.409 74.2776C131.804 72.7678 134.303 72.0129 136.906 72.0129C138.572 72.0129 140.29 72.3257 142.06 72.9501C145.808 74.3557 148.542 76.8808 150.259 80.5253C151.977 84.1697 152.16 87.8659 150.806 91.6144C149.661 94.7379 147.656 97.2107 144.793 99.0332C137.608 103.719 132.585 109.94 129.721 117.697C129.148 119.259 128.732 120.586 128.472 121.68C120.766 119.806 111.083 118.686 99.4213 118.322Z" fill="#161616"/>
<path d="M92.3928 84.0392C87.5508 84.0392 85.1298 81.6182 85.1298 76.7767C85.1298 71.883 87.5508 69.4361 92.3928 69.4361C97.2343 69.4361 99.6553 71.883 99.6553 76.7767C99.6553 81.6182 97.2343 84.0392 92.3928 84.0392ZM92.3928 123.398C110.562 123.398 124.332 125.038 133.703 128.317C133.756 125.038 134.432 121.654 135.734 118.165C138.129 111.658 142.372 106.374 148.463 102.313C154.034 98.5646 156.819 93.15 156.819 86.0698C156.819 83.2584 156.168 80.447 154.867 77.6357C152.576 72.6379 148.827 69.2015 143.621 67.3273C141.226 66.4425 138.858 65.9998 136.515 65.9998C132.819 65.9998 129.304 67.0933 125.972 69.2797C112.905 77.8179 103.638 89.5578 98.1714 104.5C96.089 110.278 95.0478 114.834 95.0478 118.165H89.7373C89.7373 114.834 88.6961 110.252 86.6137 104.421C81.1473 89.532 71.8802 77.8179 58.8127 69.2797C55.4287 67.0933 51.8885 65.9998 48.1922 65.9998C45.8494 65.9998 43.5066 66.4166 41.1638 67.2491C35.9577 69.1757 32.1832 72.6379 29.8404 77.6357C28.5389 80.3947 27.8881 83.1802 27.8881 85.9916C27.8881 93.0718 30.6994 98.5123 36.3221 102.313C42.4654 106.426 46.7084 111.71 49.0512 118.165C50.1965 121.341 50.8733 124.725 51.0816 128.317C60.2443 125.038 74.0148 123.398 92.3928 123.398ZM92.3928 139.953C110.406 139.953 124.124 141.568 133.548 144.795C133.548 144.066 133.521 142.973 133.469 141.515C133.417 140.057 133.391 138.964 133.391 138.235C126.206 135.424 112.54 134.018 92.3923 134.018C72.1924 134.018 58.5264 135.424 51.3939 138.235C51.3939 138.964 51.3679 140.057 51.3158 141.515C51.3158 142.973 51.3158 144.066 51.3158 144.795C60.6347 141.568 74.327 139.953 92.3928 139.953ZM92.3928 159.398C101.503 159.398 111.082 158.774 121.13 157.524C130.398 156.379 135.031 155.442 135.031 154.713C135.031 153.308 129.382 152.136 118.085 151.199C109.078 150.418 100.514 150.028 92.3928 150.028C82.8135 150.028 73.1036 150.652 63.2638 151.902C54.2574 153.047 49.754 153.984 49.754 154.713C49.754 156.067 55.4027 157.238 66.7001 158.227C75.915 159.008 84.479 159.398 92.3928 159.398ZM79.7417 54.5983V58.8155H83.9587L92.3928 50.1471L100.826 58.8155H105.122V54.5983L96.4535 46.0862L105.122 37.2618V33.4353H101.295L92.3928 42.1035L83.9587 33.4353H79.7417V37.6523L88.4098 46.0862L79.7417 54.5983ZM92.3928 89.4279C95.8809 89.4279 98.8481 88.2039 101.295 85.757C103.794 83.2584 105.043 80.2648 105.043 76.7767C105.043 73.2887 103.794 70.3209 101.295 67.874C98.8481 65.3749 95.8809 64.1255 92.3928 64.1255C88.8525 64.1255 85.8588 65.349 83.412 67.7959C80.9651 70.2427 79.7417 73.2364 79.7417 76.7767C79.7417 80.3171 80.9651 83.3102 83.412 85.757C85.8588 88.2039 88.8525 89.4279 92.3928 89.4279ZM85.4426 118.322C73.9367 118.634 64.2273 119.728 56.3135 121.602C55.9494 120.248 55.5328 118.947 55.0643 117.697C52.2009 109.888 47.203 103.666 40.0705 99.0332C37.103 97.1589 35.0986 94.6856 34.0574 91.6144C32.6517 87.8135 32.7819 84.1174 34.4479 80.5252C36.1659 76.8808 38.9252 74.3557 42.7257 72.95C44.4437 72.3251 46.1618 72.0129 47.8798 72.0129C50.4829 72.0129 52.9819 72.7678 55.3767 74.2775C68.2357 82.2954 77.2689 93.4363 82.4748 107.701C83.6724 111.138 84.6613 114.677 85.4426 118.322ZM99.4207 118.322C100.098 114.677 101.061 111.138 102.31 107.701C107.464 93.5404 116.497 82.3995 129.409 74.2775C131.803 72.7678 134.302 72.0129 136.905 72.0129C138.571 72.0129 140.289 72.3251 142.059 72.95C145.808 74.3557 148.541 76.8808 150.259 80.5252C151.977 84.1697 152.16 87.8659 150.806 91.6144C149.66 94.7379 147.656 97.2107 144.793 99.0332C137.608 103.719 132.584 109.94 129.721 117.697C129.148 119.259 128.731 120.586 128.472 121.68C120.766 119.806 111.082 118.686 99.4207 118.322Z" fill="#C84B31"/>
</svg>
