<svg width="180" height="180" viewBox="0 0 180 180" fill="none" xmlns="http://www.w3.org/2000/svg">
<path d="M134.26 160.572C133.999 153.7 132.073 147.479 128.481 141.908C126.19 138.316 122.286 134.516 116.767 130.507C110.624 126.029 106.485 122.541 104.351 120.043C100.914 120.927 96.9058 121.37 92.3243 121.37C87.6904 121.37 83.682 120.927 80.298 120.043C78.1633 122.541 73.9986 126.029 67.8032 130.507C62.3368 134.516 58.4319 138.316 56.0891 141.908C52.4448 147.479 50.5446 153.7 50.3884 160.572H134.26ZM92.4024 116.216C97.5043 116.216 101.383 115.721 104.038 114.732C109.765 111.088 112.628 105.856 112.628 99.0354C112.628 93.6731 110.572 89.0657 106.459 85.2131C103.127 82.1936 100.94 78.471 99.8989 74.0458H84.7491C83.6556 78.471 81.4691 82.1936 78.1892 85.2131C74.1285 89.0134 72.0979 93.6208 72.0979 99.0354C72.0979 105.856 74.9616 111.088 80.6884 114.732C83.2393 115.721 87.1442 116.216 92.4024 116.216ZM96.8535 58.1929C95.4478 58.7655 93.9381 59.0518 92.3243 59.0518C90.9186 59.0518 89.4606 58.7919 87.9508 58.2711C85.1394 62.2277 82.3545 65.664 79.5949 68.5794H105.053C101.929 65.4036 99.1963 61.9414 96.8535 58.1929ZM101.227 55.3817C104.715 60.7438 108.932 65.5858 113.878 69.9069C114.919 70.8441 115.283 71.7553 114.971 72.6401C114.659 73.5773 113.774 74.0458 112.316 74.0458H105.288C106.172 76.9089 107.656 79.2782 109.739 81.1524C115.153 86.0979 117.861 92.0593 117.861 99.0354C117.861 106.532 114.945 112.675 109.114 117.465C111.405 120.12 113.982 122.333 116.845 124.103C123.821 127.799 129.366 133.032 133.479 139.8C137.592 146.516 139.649 153.83 139.649 161.744C139.649 162.837 139.544 164.217 139.336 165.883H45.3124C45.1041 163.644 45 162.264 45 161.744C45 153.83 47.0304 146.516 51.0912 139.8C55.2041 133.032 60.7747 127.799 67.8032 124.103C70.6146 122.333 73.1914 120.12 75.5342 117.465C69.7033 112.728 66.7879 106.584 66.7879 99.0354C66.7879 92.0593 69.4952 86.0979 74.9092 81.1524C76.8876 79.2782 78.3714 76.9089 79.3609 74.0458H72.3324C70.8744 74.0458 69.9896 73.5773 69.6774 72.6401C69.3129 71.7553 69.6774 70.8441 70.7704 69.9069C75.7164 65.5335 79.9335 60.6921 83.4216 55.3817C80.9224 52.8827 79.6731 49.8891 79.6731 46.401C79.6731 42.9128 80.8965 39.9453 83.3434 37.4984C85.8426 34.9995 88.8362 33.75 92.3243 33.75C95.8123 33.75 98.7795 34.9995 101.227 37.4984C103.726 39.9453 104.975 42.9128 104.975 46.401C104.975 49.785 103.726 52.7786 101.227 55.3817ZM92.3243 53.7417C97.218 53.7417 99.6649 51.2948 99.6649 46.401C99.6649 41.4551 97.218 38.9822 92.3243 38.9822C87.4305 38.9822 84.9836 41.4551 84.9836 46.401C84.9836 51.2948 87.4305 53.7417 92.3243 53.7417Z" fill="#161616"/>
<path d="M134.26 160.572C134 153.7 132.073 147.479 128.481 141.908C126.19 138.316 122.286 134.516 116.767 130.507C110.624 126.029 106.485 122.541 104.35 120.043C100.914 120.927 96.9058 121.37 92.3242 121.37C87.6909 121.37 83.682 120.927 80.298 120.043C78.1633 122.541 73.9985 126.029 67.8031 130.507C62.3368 134.516 58.4319 138.316 56.0892 141.908C52.4449 147.479 50.5446 153.7 50.3884 160.572H134.26ZM92.4024 116.216C97.5043 116.216 101.383 115.721 104.038 114.732C109.765 111.088 112.628 105.856 112.628 99.0354C112.628 93.6731 110.572 89.0657 106.459 85.2131C103.127 82.1936 100.941 78.471 99.8994 74.0458H84.749C83.6561 78.471 81.4691 82.1936 78.1891 85.2131C74.1285 89.0134 72.0984 93.6208 72.0984 99.0354C72.0984 105.856 74.9615 111.088 80.6883 114.732C83.2393 115.721 87.1441 116.216 92.4024 116.216ZM96.8535 58.1929C95.4478 58.7655 93.938 59.0518 92.3242 59.0518C90.9185 59.0518 89.4605 58.7919 87.9508 58.271C85.1394 62.2277 82.3545 65.664 79.5948 68.5794H105.053C101.929 65.4035 99.1963 61.9414 96.8535 58.1929ZM92.3242 53.7417C97.218 53.7417 99.6648 51.2948 99.6648 46.401C99.6648 41.4552 97.218 38.9822 92.3242 38.9822C87.4305 38.9822 84.9836 41.4552 84.9836 46.401C84.9836 51.2948 87.4305 53.7417 92.3242 53.7417Z" fill="#ECDBBA"/>
</svg>
