<svg width="180" height="180" viewBox="0 0 180 180" fill="none" xmlns="http://www.w3.org/2000/svg">
<path d="M89.6597 49.9956C91.4299 49.9956 92.3147 49.1105 92.3147 47.3405C92.3147 45.5703 91.4299 44.6853 89.6597 44.6853C87.8895 44.6853 87.0047 45.5703 87.0047 47.3405C87.0047 49.1105 87.8895 49.9956 89.6597 49.9956ZM89.6597 55.3059C84.3491 55.3059 81.6941 52.6507 81.6941 47.3405C81.6941 42.0302 84.3491 39.375 89.6597 39.375C94.9697 39.375 97.6252 42.0302 97.6252 47.3405C97.6252 52.6507 94.9697 55.3059 89.6597 55.3059ZM59.2819 72.9546C53.9713 72.9546 51.3161 70.2996 51.3161 64.9896C51.3161 59.7313 53.9713 57.1022 59.2819 57.1022C64.5919 57.1022 67.2469 59.7313 67.2469 64.9896C67.2469 70.2996 64.5919 72.9546 59.2819 72.9546ZM59.2819 67.6446C61.0515 67.6446 61.9369 66.7598 61.9369 64.9896C61.9369 63.2194 61.0515 62.334 59.2819 62.334C57.5117 62.334 56.6263 63.2194 56.6263 64.9896C56.6263 66.7598 57.5117 67.6446 59.2819 67.6446ZM37.3376 87.7146C40.3051 93.9099 42.9082 100.183 45.1469 106.535C46.0839 106.066 47.5157 105.363 49.4419 104.426C48.0883 102.864 46.7348 100.834 45.3812 98.3351C43.1945 95.211 40.5133 91.6712 37.3376 87.7146ZM89.6597 111.064C109.183 111.064 123.162 113.224 131.595 117.546C131.804 116.036 132.038 113.745 132.298 110.674C131.673 109.632 129.721 108.669 126.441 107.784C125.4 108.461 124.385 108.695 123.396 108.487C122.406 108.331 121.495 107.706 120.662 106.613C116.289 105.78 111.057 105.129 104.966 104.66C104.445 105.129 103.898 105.389 103.326 105.441C102.388 105.494 101.478 105.155 100.592 104.426C97.0526 104.27 93.4082 104.192 89.6597 104.192C85.9112 104.192 82.2667 104.27 78.7269 104.426C77.8416 105.155 76.9567 105.494 76.0714 105.441C75.3947 105.389 74.8221 105.129 74.3535 104.66C68.2104 105.129 63.0039 105.78 58.7351 106.613C57.8497 107.706 56.9126 108.331 55.9236 108.487C54.8824 108.695 53.8672 108.461 52.878 107.784C49.5461 108.669 47.5937 109.632 47.0211 110.674C47.0731 111.819 47.3074 114.11 47.7239 117.546C56.1058 113.224 70.0847 111.064 89.6597 111.064ZM70.8396 99.8966C68.3404 95.9923 65.8412 90.7858 63.3426 84.2782C63.1344 91.3067 62.4313 96.9553 61.2337 101.224C64.4096 100.651 67.6114 100.209 70.8396 99.8966ZM89.6597 98.8813C92.0025 98.8813 94.3453 98.9078 96.6881 98.9595C93.7727 93.0246 91.4299 84.6169 89.6597 73.7359C87.7854 84.6686 85.4426 93.0769 82.6312 98.9595C84.9741 98.9078 87.3169 98.8813 89.6597 98.8813ZM141.982 87.7146C138.077 92.4519 135.396 95.9923 133.938 98.3351C133.001 99.8449 131.647 101.875 129.877 104.426C130.814 104.947 132.246 105.649 134.173 106.535C136.307 100.183 138.91 93.9099 141.982 87.7146ZM108.48 99.8966C111.603 100.157 114.832 100.6 118.163 101.224C116.862 97.0071 116.133 91.3584 115.977 84.2782C113.426 90.7858 110.927 95.9923 108.48 99.8966ZM89.6597 162.996V157.763C97.2607 157.763 105.174 157.399 113.4 156.67C125.999 155.577 132.298 153.937 132.298 151.75C132.298 149.564 126.025 147.923 113.478 146.831C105.2 146.102 97.2607 145.737 89.6597 145.737C82.0063 145.737 74.0672 146.102 65.8412 146.831C53.2945 147.923 47.0211 149.564 47.0211 151.75C47.0211 153.937 53.3206 155.577 65.9194 156.67C74.0931 157.399 82.0063 157.763 89.6597 157.763V162.996C81.2256 162.996 72.4269 162.345 63.2644 161.043C48.8432 159.013 41.6327 155.915 41.6327 151.75C41.6327 150.917 42.1013 150.032 43.0383 149.095C43.4028 145.659 43.585 141.468 43.585 136.522C43.585 127.776 43.1425 120.175 42.2574 113.719C41.9451 112.834 41.6067 111.923 41.2422 110.986L40.227 108.097C37.3636 100.287 34.1098 92.7382 30.4654 85.4494C34.0057 85.4494 36.4525 83.7838 37.8061 80.4516C40.5133 83.7315 43.8453 88.209 47.802 93.8835C50.6654 100.027 53.0602 102.943 54.9865 102.63C56.6527 102.37 57.7716 99.4804 58.3447 93.9617C58.5529 91.5671 58.6569 88.9116 58.6569 85.9961C58.6569 82.1436 58.4747 77.7707 58.1102 72.8769C58.5787 72.9287 58.9691 72.9551 59.2819 72.9551C61.1556 72.9551 62.874 72.3302 64.4355 71.0809C68.1322 83.9919 71.6985 93.4673 75.1342 99.5063C76.2795 99.3504 77.2166 99.2722 77.9456 99.2722C81.3819 94.8988 84.0892 81.6491 86.0676 59.5232L86.2234 57.024C86.3274 56.191 86.4315 55.384 86.5361 54.6031C87.525 55.0716 88.5662 55.306 89.6597 55.306C90.7009 55.306 91.7421 55.0716 92.7832 54.6031L93.2518 59.5232C95.1261 81.6491 97.8334 94.8988 101.373 99.2722C102.05 99.2722 102.988 99.3504 104.185 99.5063C107.517 93.519 111.109 84.0701 114.961 71.1585C116.419 72.3561 118.111 72.9551 120.037 72.9551C120.298 72.9551 120.688 72.9287 121.209 72.8769C120.792 77.8224 120.584 82.2476 120.584 86.1525C120.584 89.0156 120.688 91.6189 120.896 93.9617C121.469 99.4804 122.615 102.37 124.333 102.63C126.207 102.943 128.602 100.027 131.517 93.8835C133.964 90.0309 137.296 85.554 141.513 80.4516C142.815 83.7838 145.262 85.4494 148.854 85.4494C145.313 92.3737 142.06 99.9231 139.092 108.097L137.062 113.719C136.177 120.487 135.734 128.088 135.734 136.522C135.734 141.26 135.89 145.451 136.203 149.095C137.192 149.928 137.686 150.813 137.686 151.75C137.686 155.915 130.476 159.013 116.055 161.043C106.892 162.345 98.0938 162.996 89.6597 162.996ZM130.814 145.893C130.554 142.822 130.424 139.698 130.424 136.522C130.424 131.836 130.632 127.125 131.048 122.388C130.997 120.201 124.801 118.561 112.463 117.467C104.497 116.739 96.8962 116.375 89.6597 116.375C82.0586 116.375 74.1454 116.765 65.9194 117.546C54.0494 118.691 48.1664 120.305 48.2705 122.388C48.6871 128.999 48.8953 133.711 48.8953 136.522C48.8953 139.177 48.7912 142.301 48.5829 145.893C57.9021 142.249 71.5944 140.427 89.6597 140.427C107.517 140.427 121.235 142.249 130.814 145.893ZM120.037 72.9546C114.727 72.9546 112.072 70.2996 112.072 64.9896C112.072 59.7313 114.727 57.1022 120.037 57.1022C125.348 57.1022 128.003 59.7313 128.003 64.9896C128.003 70.2996 125.348 72.9546 120.037 72.9546ZM120.037 67.6446C121.808 67.6446 122.693 66.7598 122.693 64.9896C122.693 63.2194 121.808 62.334 120.037 62.334C118.267 62.334 117.382 63.2194 117.382 64.9896C117.382 66.7598 118.267 67.6446 120.037 67.6446ZM148.854 85.4494C143.543 85.4494 140.888 82.7944 140.888 77.4844C140.888 72.1738 143.543 69.5188 148.854 69.5188C154.164 69.5188 156.819 72.1738 156.819 77.4844C156.819 82.7944 154.164 85.4494 148.854 85.4494ZM148.854 80.1394C150.624 80.1394 151.509 79.2546 151.509 77.4844C151.509 75.7142 150.624 74.8288 148.854 74.8288C147.084 74.8288 146.199 75.7142 146.199 77.4844C146.199 79.2546 147.084 80.1394 148.854 80.1394ZM30.4654 85.4494C25.1552 85.4494 22.5 82.7944 22.5 77.4844C22.5 72.1738 25.1552 69.5188 30.4654 69.5188C35.7757 69.5188 38.4309 72.1738 38.4309 77.4844C38.4309 82.7944 35.7757 85.4494 30.4654 85.4494ZM30.4654 80.1394C32.2355 80.1394 33.1206 79.2546 33.1206 77.4844C33.1206 75.7142 32.2355 74.8288 30.4654 74.8288C28.6953 74.8288 27.8103 75.7142 27.8103 77.4844C27.8103 79.2546 28.6953 80.1394 30.4654 80.1394Z" fill="#161616"/>
<path d="M89.6597 49.9955C91.4299 49.9955 92.3153 49.1105 92.3153 47.3404C92.3153 45.5703 91.4299 44.6853 89.6597 44.6853C87.8895 44.6853 87.0047 45.5703 87.0047 47.3404C87.0047 49.1105 87.8895 49.9955 89.6597 49.9955ZM59.2819 67.6445C61.0521 67.6445 61.9369 66.7592 61.9369 64.9895C61.9369 63.2194 61.0521 62.334 59.2819 62.334C57.5117 62.334 56.6269 63.2194 56.6269 64.9895C56.6269 66.7592 57.5117 67.6445 59.2819 67.6445ZM37.3378 87.714C40.3054 93.9094 42.9084 100.183 45.1471 106.535C46.0842 106.066 47.5159 105.363 49.4422 104.426C48.0886 102.864 46.735 100.834 45.3814 98.3351C43.1948 95.211 40.5136 91.6712 37.3378 87.714ZM89.6597 111.064C109.183 111.064 123.162 113.224 131.596 117.546C131.804 116.036 132.038 113.745 132.298 110.674C131.674 109.632 129.722 108.669 126.442 107.784C125.4 108.461 124.385 108.695 123.396 108.487C122.407 108.331 121.496 107.706 120.662 106.613C116.29 105.78 111.057 105.129 104.966 104.66C104.446 105.129 103.899 105.389 103.326 105.441C102.389 105.493 101.478 105.155 100.593 104.426C97.0527 104.27 93.4082 104.192 89.6597 104.192C85.9112 104.192 82.2674 104.27 78.727 104.426C77.8416 105.155 76.9568 105.493 76.072 105.441C75.3947 105.389 74.8221 105.129 74.3535 104.66C68.2105 105.129 63.0045 105.78 58.7352 106.613C57.8504 107.706 56.9132 108.331 55.9239 108.487C54.8827 108.695 53.8675 108.461 52.8783 107.784C49.5463 108.669 47.594 109.632 47.0213 110.674C47.0734 111.819 47.3077 114.109 47.7242 117.546C56.1061 113.224 70.0847 111.064 89.6597 111.064ZM70.8396 99.8966C68.3404 95.9923 65.8418 90.7858 63.3426 84.2782C63.1345 91.3067 62.4314 96.9553 61.2344 101.224C64.4102 100.651 67.612 100.209 70.8396 99.8966ZM89.6597 98.8813C92.0025 98.8813 94.3453 98.9077 96.6882 98.9595C93.7727 93.0245 91.4299 84.6168 89.6597 73.7358C87.7855 84.6686 85.4427 93.0769 82.6313 98.9595C84.9741 98.9077 87.3169 98.8813 89.6597 98.8813ZM141.982 87.714C138.077 92.4519 135.396 95.9923 133.939 98.3351C133.001 99.8449 131.648 101.875 129.877 104.426C130.814 104.947 132.247 105.649 134.173 106.535C136.307 100.183 138.911 93.9094 141.982 87.714ZM108.48 99.8966C111.604 100.157 114.832 100.6 118.164 101.224C116.862 97.007 116.133 91.3584 115.977 84.2782C113.426 90.7858 110.927 95.9923 108.48 99.8966ZM130.814 145.893C130.555 142.822 130.424 139.698 130.424 136.522C130.424 131.836 130.632 127.125 131.049 122.388C130.997 120.201 124.801 118.561 112.463 117.467C104.497 116.738 96.8963 116.374 89.6597 116.374C82.0587 116.374 74.1454 116.765 65.92 117.546C54.0497 118.691 48.1667 120.305 48.2708 122.388C48.6873 128.999 48.8956 133.711 48.8956 136.522C48.8956 139.177 48.7915 142.301 48.5832 145.893C57.9021 142.249 71.5945 140.427 89.6597 140.427C107.517 140.427 121.235 142.249 130.814 145.893ZM120.038 67.6445C121.808 67.6445 122.693 66.7592 122.693 64.9895C122.693 63.2194 121.808 62.334 120.038 62.334C118.268 62.334 117.383 63.2194 117.383 64.9895C117.383 66.7592 118.268 67.6445 120.038 67.6445ZM148.854 80.1394C150.624 80.1394 151.509 79.254 151.509 77.4843C151.509 75.7142 150.624 74.8288 148.854 74.8288C147.084 74.8288 146.199 75.7142 146.199 77.4843C146.199 79.254 147.084 80.1394 148.854 80.1394ZM30.4657 80.1394C32.2358 80.1394 33.1208 79.254 33.1208 77.4843C33.1208 75.7142 32.2358 74.8288 30.4657 74.8288C28.6956 74.8288 27.8105 75.7142 27.8105 77.4843C27.8105 79.254 28.6956 80.1394 30.4657 80.1394Z" fill="#ECDBBA"/>
<path d="M89.6598 157.763C97.2608 157.763 105.174 157.399 113.4 156.67C125.999 155.577 132.298 153.937 132.298 151.75C132.298 149.564 126.025 147.923 113.478 146.83C105.201 146.101 97.2608 145.737 89.6598 145.737C82.007 145.737 74.0673 146.101 65.8418 146.83C53.2948 147.923 47.0214 149.564 47.0214 151.75C47.0214 153.937 53.3209 155.577 65.92 156.67C74.0937 157.399 82.007 157.763 89.6598 157.763Z" fill="#ECDBBA"/>
</svg>
