<svg width="180" height="180" viewBox="0 0 180 180" fill="none" xmlns="http://www.w3.org/2000/svg">
<path d="M104.769 77.1654H70.2866L73.0564 70.5549C68.4703 66.5646 66.1776 61.3834 66.1776 55.0111C66.1776 49.1747 68.2324 44.1721 72.3414 40.0033C76.5101 35.8344 81.5428 33.75 87.4389 33.75C93.2749 33.75 98.2777 35.8344 102.446 40.0033C106.615 44.1721 108.7 49.1747 108.7 55.0111C108.7 61.1454 106.437 66.3266 101.91 70.5549L104.769 77.1654ZM131.836 141.306L141.038 162.746L33.75 162.656L42.9512 141.306H131.836ZM109.95 89.3149H65.016L67.6963 83.2399H107.449L109.95 89.3149ZM45.5419 134.963L62.5151 95.3893H112.184L129.336 134.874L45.5419 134.963Z" fill="#2D2424"/>
<path d="M104.77 77.1654H70.2872L67.6963 83.2398H107.449L104.77 77.1654Z" fill="#5C3D2E"/>
<path d="M109.951 89.3149H65.0166L62.5151 95.3893H112.184L109.951 89.3149Z" fill="#5C3D2E"/>
<path d="M42.9514 141.306H131.837L129.336 134.874L45.5421 134.963L42.9514 141.306Z" fill="#5C3D2E"/>
</svg>
