<svg width="180" height="180" viewBox="0 0 180 180" fill="none" xmlns="http://www.w3.org/2000/svg">
<path d="M124.163 94.6834L134.347 134.258H40.0122L50.5534 94.6834H124.163ZM120.947 82.6234L122.555 88.6089H51.9827L53.68 82.5339L120.947 82.6234ZM136.58 140.6L142.119 161.951H32.2403L38.1362 140.6H136.58ZM91.8248 50.3746C90.8719 48.8857 90.3954 47.1884 90.3954 45.2827C90.3954 43.6151 90.7234 41.9178 91.3781 40.1907L93.7007 35.1881C96.2021 29.7686 99.9242 25.3616 104.867 21.9669C109.87 18.5723 115.468 16.875 121.662 16.875C129.225 16.875 135.836 19.4061 141.494 24.4682C147.151 29.4708 150.605 35.7241 151.856 43.228L157.931 77.4422L126.933 69.1346C126.277 68.9557 125.652 68.8663 125.057 68.8663C121.066 68.8663 119.071 70.8913 119.071 74.9407C119.071 75.4768 119.131 75.8638 119.25 76.1023L119.428 76.4595H55.2878L55.5558 75.834C55.6154 75.5961 55.6452 75.2985 55.6452 74.9407C55.6452 70.8913 53.6203 68.8663 49.5706 68.8663C48.975 68.8663 48.3795 68.9557 47.7839 69.1346L16.875 77.4422L22.8603 43.228C23.9918 35.7241 27.3864 29.4708 33.0442 24.4682C38.7614 19.4061 45.4316 16.875 53.0546 16.875C59.1885 16.875 64.7573 18.5723 69.7596 21.9669C74.7624 25.3616 78.5143 29.7686 81.0158 35.1881L83.3383 40.2801C83.9931 41.888 84.321 43.5556 84.321 45.2827C84.321 47.248 83.8148 48.9453 82.8023 50.3746C81.0754 51.8635 80.2114 53.6203 80.2114 55.6452C80.2114 60.3501 82.5936 62.7024 87.3579 62.7024C92.0633 62.7024 94.4156 60.3501 94.4156 55.6452C94.4156 53.5607 93.5516 51.8039 91.8248 50.3746Z" fill="#2D2424"/>
<path d="M53.6801 82.534L120.947 82.6234L119.428 76.4595H55.2879L53.6801 82.534Z" fill="#5C3D2E"/>
<path d="M50.5534 94.6834H124.163L122.555 88.6089H51.9827L50.5534 94.6834Z" fill="#5C3D2E"/>
<path d="M134.347 134.257H40.0122L38.1363 140.6H136.581L134.347 134.257Z" fill="#5C3D2E"/>
</svg>
