<svg width="50" height="50" viewBox="0 0 50 50" fill="none" xmlns="http://www.w3.org/2000/svg">
<path d="M24.704 11.7763C26.0921 11.7763 27.2173 10.6462 27.2173 9.25211C27.2173 7.85803 26.0921 6.72791 24.704 6.72791C23.3159 6.72791 22.1907 7.85803 22.1907 9.25211C22.1907 10.6462 23.3159 11.7763 24.704 11.7763Z" fill="#A35229" stroke="#323232" stroke-width="1.2" stroke-linecap="round" stroke-linejoin="round"/>
<path opacity="0.2" fill-rule="evenodd" clip-rule="evenodd" d="M24.704 6.7281C24.4034 6.72854 24.1054 6.78312 23.824 6.88926C24.3042 7.06851 24.7184 7.39087 25.0111 7.81314C25.3038 8.23541 25.461 8.73744 25.4617 9.25196C25.4613 9.766 25.3047 10.2677 25.0127 10.6899C24.7208 11.1121 24.3075 11.4348 23.828 11.6147C24.1081 11.7205 24.4047 11.7753 24.704 11.7765C25.034 11.7764 25.3609 11.7111 25.6658 11.5842C25.9707 11.4573 26.2478 11.2714 26.4811 11.037C26.7145 10.8025 26.8996 10.5242 27.0259 10.218C27.1522 9.9117 27.2171 9.58345 27.2171 9.25196C27.217 8.58259 26.9522 7.94065 26.4809 7.46734C26.0096 6.99404 25.3705 6.72811 24.704 6.72806L24.704 6.7281Z" fill="black"/>
<path fill-rule="evenodd" clip-rule="evenodd" d="M18.771 38.045C18.771 38.045 5.311 12.245 25.0007 11.829C44.6907 12.2451 31.2305 38.045 31.2305 38.045H18.771Z" fill="url(#paint0_linear_1_392)" stroke="#323232" stroke-width="1.2" stroke-linejoin="round"/>
<path opacity="0.15" fill-rule="evenodd" clip-rule="evenodd" d="M24.704 11.829C24.1267 11.8412 23.5812 11.8772 23.0615 11.9318C39.2845 11.3465 32.8883 34.8368 23.9706 38.0448L31.2302 38.0439C40.1917 20.2759 36.9003 12.5509 24.7039 11.8289L24.704 11.829Z" fill="black"/>
<path fill-rule="evenodd" clip-rule="evenodd" d="M25 36.457C25 36.457 16.4221 36.5051 14.017 38.0762C12.3943 39.1364 12.0115 41.7276 12.2322 44.3999H37.7682C37.9889 41.7276 37.6061 39.1363 35.9834 38.0762C33.5787 36.5051 25.0004 36.457 25.0004 36.457H25Z" fill="url(#paint1_linear_1_392)" stroke="#323232" stroke-width="1.2" stroke-linejoin="round"/>
<path opacity="0.15" fill-rule="evenodd" clip-rule="evenodd" d="M25 36.457C25 36.457 16.4218 36.5049 14.017 38.076C12.3943 39.1362 12.0116 40.669 12.2324 43.3413H12.3164C12.544 41.9614 13.0667 40.8135 14.017 40.1927C16.4221 38.6216 25 38.5737 25 38.5737C25 38.5737 33.5785 38.6216 35.983 40.1927C36.9333 40.8135 37.4559 41.9615 37.6836 43.3413H37.7676C37.9883 40.669 37.6057 39.1361 35.983 38.076C33.5783 36.5049 25 36.457 25 36.457H25Z" fill="black"/>
<path fill-rule="evenodd" clip-rule="evenodd" d="M17.743 34.208C17.743 34.208 13.0433 18.484 20.466 13.193C14.9775 14.7197 12.7033 21.8049 17.743 34.208Z" fill="white"/>
<path opacity="0.25" fill-rule="evenodd" clip-rule="evenodd" d="M24.555 7.3139C24.0869 7.2183 21.7904 8.4165 23.4698 10.7423C23.0532 9.2482 23.3572 8.0572 24.555 7.3139Z" fill="white"/>
<defs>
<linearGradient id="paint0_linear_1_392" x1="13.6671" y1="24.9291" x2="36.3998" y2="24.9291" gradientUnits="userSpaceOnUse">
<stop stop-color="#FBECDC"/>
<stop offset="1" stop-color="#AA7245"/>
</linearGradient>
<linearGradient id="paint1_linear_1_392" x1="11.574" y1="40.43" x2="38.425" y2="40.43" gradientUnits="userSpaceOnUse">
<stop stop-color="#FBECDC"/>
<stop offset="1" stop-color="#AA7245"/>
</linearGradient>
</defs>
</svg>
