<svg width="32" height="32" viewBox="0 0 32 32" fill="none" xmlns="http://www.w3.org/2000/svg">
<path d="M13.495 19.6862C13.7584 19.7773 14.0523 19.8432 14.3765 19.8837C14.7108 19.9242 14.9691 19.8077 15.1515 19.5342C14.9084 19.0175 14.7817 18.4096 14.7716 17.7106C14.7614 17.0014 14.9843 16.2973 15.4402 15.5982C15.5416 15.4158 15.6935 15.1778 15.8961 14.8839C16.0988 14.58 16.2558 14.3673 16.3673 14.2457C16.3673 13.7594 16.2001 13.577 15.8658 13.6986C15.5314 13.8202 15.4656 13.81 15.6682 13.6682C15.2022 14.0633 14.7463 14.6104 14.3005 15.3095C13.6926 16.2415 13.3026 17.0571 13.1303 17.7562C12.9682 18.4451 13.0898 19.0884 13.495 19.6862ZM13.4191 6.92079C12.6592 7.3463 12.3907 7.74142 12.6136 8.10615C12.8163 8.47087 13.2924 8.43541 14.0421 7.99977C14.7817 7.56413 15.0553 7.16394 14.8628 6.79922C14.6399 6.43449 14.1586 6.47502 13.4191 6.92079ZM11.1851 20.8715C10.8407 20.8715 10.6684 21.0589 10.6684 21.4338C10.6684 21.8087 10.8407 21.9961 11.1851 21.9961H21.6102C21.9546 21.9961 22.1269 21.8087 22.1269 21.4338C22.1269 21.0589 21.9546 20.8715 21.6102 20.8715H11.1851ZM9.16394 24.5795C8.79922 24.5795 8.61686 24.7822 8.61686 25.1874C8.61686 25.5825 8.79922 25.7801 9.16394 25.7801H23.6314C23.9961 25.7801 24.1784 25.5825 24.1784 25.1874C24.1784 24.7822 23.9961 24.5795 23.6314 24.5795H9.16394ZM22.7651 21.7833C23.2413 21.8542 23.682 22.0771 24.0873 22.452C24.5027 22.8167 24.7103 23.2777 24.7103 23.8349C24.7103 24.1794 24.6344 24.5086 24.4824 24.8227H25.1814C25.9008 24.8227 26.5137 25.081 27.0203 25.5977C27.537 26.1043 27.7953 26.7122 27.7953 27.4214C27.7953 28.1407 27.537 28.7536 27.0203 29.2602C26.5137 29.7667 25.9008 30.02 25.1814 30.02H7.59867C6.87935 30.02 6.26642 29.7667 5.75985 29.2602C5.25329 28.7536 5 28.1407 5 27.4214C5 26.7122 5.25329 26.1043 5.75985 25.5977C6.26642 25.081 6.87935 24.8227 7.59867 24.8227H8.31292C8.15083 24.4884 8.06977 24.1591 8.06977 23.8349C8.06977 23.2777 8.2724 22.7914 8.67765 22.376C9.09303 21.9606 9.60466 21.7225 10.2125 21.6618C10.1619 20.7195 10.1467 19.7773 10.167 18.8351C10.1872 17.8929 10.3442 16.9811 10.6381 16.0997C11.2155 14.8738 11.8184 13.9823 12.4465 13.425C13.0746 12.8678 13.799 12.4525 14.6196 12.1789C13.9408 12.1485 13.5559 12.1282 13.4647 12.1181C13.3836 12.108 13.1 11.9662 12.6137 11.6926C12.1273 11.5609 11.8031 11.49 11.641 11.4798C11.4789 11.4697 11.0484 11.571 10.3493 11.7838C9.58947 11.9054 9.02719 11.9459 8.66247 11.9054C8.29774 11.8648 8.10524 11.5001 8.08498 10.8112C7.78105 10.3857 7.46191 9.92977 7.12758 9.44347C6.80338 8.94704 6.94015 8.35436 7.53788 7.66544C9.14876 7.15888 10.3139 6.88027 11.0332 6.82961C11.7626 6.77895 12.5225 6.3737 13.3127 5.61386C14.3157 5.4011 15.0249 5.13263 15.4403 4.80843C15.8556 4.4741 16.0633 3.87129 16.0633 3C16.6104 3.11144 17.0917 3.35459 17.507 3.72945C17.9224 4.09417 18.1301 4.57541 18.1301 5.17315C19.2547 5.4467 20.0044 5.78103 20.3792 6.17614C20.7642 6.56113 21.2353 6.98665 21.7925 7.45268C22.4916 8.37463 22.8513 9.18006 22.8715 9.86898C22.9019 10.5579 22.8665 11.2519 22.7652 11.951C22.4511 12.6297 22.132 13.2629 21.8078 13.8506C21.4836 14.428 21.2404 15.1727 21.0783 16.0845C21.0783 16.9659 21.2151 17.7612 21.4886 18.4704C21.7622 19.1796 22.1218 19.828 22.5676 20.4156L22.7651 21.7833ZM15.4251 12.498C15.5466 12.498 15.6581 12.5082 15.7594 12.5284C15.8607 12.5386 16.0177 12.5284 16.2305 12.498C16.9599 12.3967 17.5627 12.1029 18.0389 11.6166C18.5252 11.1303 18.6974 10.7453 18.5556 10.4617C18.4948 10.0868 18.2365 9.89938 17.7806 9.89938C17.6083 10.8922 17.0207 11.4697 16.0177 11.6318C15.8556 11.6622 15.729 11.6875 15.6378 11.7078C15.5466 11.7281 15.4048 11.7686 15.2123 11.8294C14.7564 12.1333 14.8273 12.3562 15.4251 12.498Z" fill="#6E2142"/>
<path d="M13.495 19.6861C13.7584 19.7773 14.0522 19.8432 14.3764 19.8837C14.7108 19.9242 14.9691 19.8077 15.1515 19.5342C14.9083 19.0175 14.7817 18.4096 14.7715 17.7105C14.7614 17.0014 14.9843 16.2972 15.4402 15.5982C15.5415 15.4158 15.6935 15.1777 15.8961 14.8839C16.0987 14.58 16.2558 14.3672 16.3672 14.2457C16.3672 13.7594 16.2 13.577 15.8657 13.6986C15.5314 13.8202 15.4655 13.81 15.6682 13.6682C15.2021 14.0633 14.7462 14.6104 14.3004 15.3094C13.6926 16.2415 13.3025 17.0571 13.1303 17.7561C12.9682 18.4451 13.0898 19.0884 13.495 19.6861ZM13.419 6.92077C12.6592 7.34629 12.3907 7.7414 12.6136 8.10613C12.8162 8.47085 13.2924 8.43539 14.0421 7.99975C14.7817 7.56411 15.0552 7.16392 14.8627 6.7992C14.6398 6.43447 14.1586 6.475 13.419 6.92077ZM11.1851 20.8715C10.8406 20.8715 10.6684 21.0589 10.6684 21.4338C10.6684 21.8086 10.8406 21.9961 11.1851 21.9961H21.6101C21.9546 21.9961 22.1268 21.8086 22.1268 21.4338C22.1268 21.0589 21.9546 20.8715 21.6101 20.8715H11.1851ZM9.1639 24.5795C8.79918 24.5795 8.61682 24.7822 8.61682 25.1874C8.61682 25.5825 8.79918 25.7801 9.1639 25.7801H23.6313C23.9961 25.7801 24.1784 25.5825 24.1784 25.1874C24.1784 24.7822 23.9961 24.5795 23.6313 24.5795H9.1639ZM15.425 12.498C15.5466 12.498 15.658 12.5082 15.7593 12.5284C15.8607 12.5385 16.0177 12.5284 16.2305 12.498C16.9599 12.3967 17.5627 12.1029 18.0389 11.6166C18.5252 11.1303 18.6974 10.7453 18.5556 10.4616C18.4948 10.0868 18.2364 9.89936 17.7805 9.89936C17.6083 10.8922 17.0207 11.4697 16.0177 11.6318C15.8556 11.6622 15.729 11.6875 15.6378 11.7078C15.5466 11.728 15.4048 11.7686 15.2123 11.8294C14.7564 12.1333 14.8273 12.3562 15.425 12.498Z" fill="#AA4263"/>
</svg>
