<svg width="32" height="32" viewBox="0 0 32 32" fill="none" xmlns="http://www.w3.org/2000/svg">
<path d="M8.36714 26.3845C7.42931 26.3845 6.96039 26.8489 6.96039 27.7777V27.7912C6.96039 28.7201 7.42931 29.1845 8.36714 29.1845H24.0309C24.9597 29.1845 25.4241 28.7201 25.4241 27.7912V27.7777C25.4241 26.8489 24.9597 26.3845 24.0309 26.3845H8.36714ZM18.8908 17.1053H13.4125C13.2322 19.017 12.8985 20.7169 12.4116 22.2048C11.9246 23.6837 11.3565 24.7568 10.7072 25.4241H21.7314C21.037 24.7478 20.4193 23.6702 19.8782 22.1913C19.3462 20.7033 19.017 19.008 18.8908 17.1053ZM10.6667 14.4135C10.0625 14.4135 9.76039 14.7156 9.76039 15.3198C9.76039 15.933 10.0625 16.2396 10.6667 16.2396H21.7178C22.331 16.2396 22.6376 15.933 22.6376 15.3198C22.6376 14.7156 22.331 14.4135 21.7178 14.4135H10.6667ZM19.9053 17.1053C19.9684 19.4318 20.3742 21.4022 21.1227 23.0164C21.8711 24.6215 22.7368 25.4241 23.7198 25.4241H24.0714C24.7027 25.4241 25.2437 25.6541 25.6946 26.114C26.1545 26.5648 26.3845 27.1059 26.3845 27.7371C26.3845 28.3774 26.1545 28.923 25.6946 29.3738C25.2437 29.8247 24.7027 30.0502 24.0714 30.0502H8.32657C7.6773 30.0502 7.12721 29.8247 6.67633 29.3738C6.22544 28.923 6 28.3774 6 27.7371C6 27.1059 6.22544 26.5648 6.67633 26.114C7.12721 25.6541 7.6773 25.4241 8.32657 25.4241H8.71884C9.6747 25.4241 10.5269 24.6215 11.2753 23.0164C12.0328 21.4022 12.4567 19.4318 12.5469 17.1053H10.6261C10.1121 17.1053 9.6747 16.9294 9.314 16.5777C8.96231 16.2261 8.78647 15.7932 8.78647 15.2792C8.78647 14.7742 8.96231 14.3414 9.314 13.9807C9.6747 13.6199 10.1121 13.4396 10.6261 13.4396H13.5343C12.5063 12.61 11.9923 11.5324 11.9923 10.2067C11.9923 9.05249 12.4026 8.06505 13.2232 7.24444C14.0438 6.41482 15.0357 6 16.199 6C17.3533 6 18.3407 6.41482 19.1613 7.24444C19.9819 8.06505 20.3922 9.05249 20.3922 10.2067C20.3922 11.5233 19.8872 12.6009 18.8773 13.4396H21.7719C22.2679 13.4396 22.6963 13.6199 23.057 13.9807C23.4177 14.3414 23.598 14.7742 23.598 15.2792C23.598 15.7932 23.4177 16.2261 23.057 16.5777C22.6963 16.9294 22.2679 17.1053 21.7719 17.1053H19.9053ZM16.199 6.97391C15.3063 6.97391 14.5443 7.28953 13.913 7.92077C13.2818 8.55201 12.9662 9.314 12.9662 10.2067C12.9662 11.0995 13.2818 11.8615 13.913 12.4927C14.5443 13.124 15.3063 13.4396 16.199 13.4396C17.0827 13.4396 17.8402 13.124 18.4715 12.4927C19.1117 11.8615 19.4319 11.0995 19.4319 10.2067C19.4319 9.314 19.1117 8.55201 18.4715 7.92077C17.8402 7.28953 17.0827 6.97391 16.199 6.97391Z" fill="#CA5858"/>
<path d="M8.36711 26.3845C7.42928 26.3845 6.96036 26.8489 6.96036 27.7777V27.7912C6.96036 28.7201 7.42928 29.1845 8.36711 29.1845H24.0308C24.9597 29.1845 25.4241 28.7201 25.4241 27.7912V27.7777C25.4241 26.8489 24.9597 26.3845 24.0308 26.3845H8.36711ZM18.8908 17.1053H13.4125C13.2322 19.017 12.8985 20.7169 12.4116 22.2048C11.9246 23.6837 11.3565 24.7568 10.7072 25.4241H21.7313C21.037 24.7478 20.4193 23.6702 19.8782 22.1913C19.3461 20.7033 19.017 19.008 18.8908 17.1053ZM10.6666 14.4135C10.0624 14.4135 9.76036 14.7156 9.76036 15.3198C9.76036 15.933 10.0624 16.2396 10.6666 16.2396H21.7178C22.331 16.2396 22.6376 15.933 22.6376 15.3198C22.6376 14.7156 22.331 14.4135 21.7178 14.4135H10.6666ZM16.199 6.97391C15.3062 6.97391 14.5442 7.28953 13.913 7.92076C13.2818 8.552 12.9661 9.31399 12.9661 10.2067C12.9661 11.0995 13.2818 11.8615 13.913 12.4927C14.5442 13.124 15.3062 13.4396 16.199 13.4396C17.0827 13.4396 17.8402 13.124 18.4714 12.4927C19.1117 11.8615 19.4318 11.0995 19.4318 10.2067C19.4318 9.31399 19.1117 8.552 18.4714 7.92076C17.8402 7.28953 17.0827 6.97391 16.199 6.97391Z" fill="#FFD692"/>
</svg>
