<svg width="32" height="32" viewBox="0 0 32 32" fill="none" xmlns="http://www.w3.org/2000/svg">
<path d="M16.2031 5.09418C15.4027 5.09418 15.0025 5.48929 15.0025 6.27953C15.0025 7.0799 15.4027 7.48008 16.2031 7.48008C16.9933 7.48008 17.3884 7.0799 17.3884 6.27953C17.3884 5.48929 16.9933 5.09418 16.2031 5.09418ZM19.668 11.6744C19.6072 10.8031 19.2425 10.0686 18.5738 9.47087C17.9051 8.863 17.1149 8.55906 16.2031 8.55906C15.2811 8.55906 14.496 8.863 13.8476 9.47087C13.2093 10.0686 12.9256 10.8031 12.9965 11.6744C13.8577 11.6947 14.5162 11.5275 14.9721 11.1729C15.4382 10.8082 15.8485 10.3371 16.2031 9.75961C16.5374 10.3574 17.0085 10.8437 17.6164 11.2185C18.2243 11.5832 18.9081 11.7352 19.668 11.6744ZM17.9659 7.73843C18.7967 8.07276 19.4755 8.58439 20.0023 9.27332C20.5291 9.96224 20.7976 10.7373 20.8077 11.5984C21.2738 11.4465 21.6689 11.2084 21.9931 10.8842C22.3173 10.56 22.6314 10.1851 22.9353 9.75961C23.2798 11.0969 24.0396 11.7656 25.2148 11.7656C25.7619 11.7656 26.3394 11.5934 26.9473 11.2489C27.5551 10.9044 28.0414 10.4435 28.4062 9.86599L22.4642 21.2484C23.0011 21.289 23.4773 21.5068 23.8927 21.9019C24.3081 22.2869 24.5158 22.758 24.5158 23.3152C24.5158 23.6293 24.4246 23.9586 24.2422 24.303H25.0477C25.7568 24.303 26.3647 24.5614 26.8713 25.0781C27.388 25.5846 27.6463 26.1925 27.6463 26.9017C27.6463 27.621 27.388 28.2339 26.8713 28.7405C26.3647 29.2471 25.7568 29.5003 25.0477 29.5003H7.35851C6.62906 29.5003 6.01105 29.2471 5.50449 28.7405C4.99793 28.2339 4.74465 27.621 4.74465 26.9017C4.74465 26.1925 4.99793 25.5846 5.50449 25.0781C6.01105 24.5614 6.62906 24.303 7.35851 24.303H8.10315C7.95119 24.1004 7.8752 23.7711 7.8752 23.3152C7.8752 22.758 8.08289 22.2869 8.49827 21.9019C8.91365 21.5068 9.39489 21.294 9.94197 21.2636L4 9.86599C4.86116 11.1324 5.90974 11.7656 7.14575 11.7656C8.34124 11.7656 9.11628 11.102 9.47087 9.77481C10.0078 10.6258 10.7373 11.2286 11.6592 11.5832C11.639 10.7322 11.8872 9.96224 12.4039 9.27332C12.9206 8.58439 13.5943 8.07276 14.425 7.73843C14.0907 7.29265 13.9236 6.80635 13.9236 6.27953C13.9236 5.65139 14.1414 5.11444 14.577 4.66866C15.0228 4.22289 15.5648 4 16.2031 4C16.8312 4 17.3682 4.22289 17.814 4.66866C18.2597 5.11444 18.4826 5.65139 18.4826 6.27953C18.4826 6.81649 18.3104 7.30278 17.9659 7.73843ZM10.0332 16.5678L12.0847 15.5344L14.1819 16.5678L12.0847 17.6012L10.0332 16.5678ZM18.2091 16.5678L20.2606 15.5344L22.373 16.5678L20.2606 17.6012L18.2091 16.5678ZM14.1515 17.7076L16.2031 16.6742L18.3003 17.7076L16.2031 18.741L14.1515 17.7076ZM14.1515 15.2153L16.2031 14.1819L18.3003 15.2153L16.2031 16.2487L14.1515 15.2153ZM7.4041 25.382C6.35045 25.382 5.82362 25.9037 5.82362 26.9473V26.9625C5.82362 28.006 6.35045 28.5277 7.4041 28.5277H25.0021C26.0456 28.5277 26.5673 28.006 26.5673 26.9625V26.9473C26.5673 25.9037 26.0456 25.382 25.0021 25.382H7.4041ZM21.3852 21.2636L26.0355 12.5254C25.6809 12.6977 25.3111 12.7889 24.9261 12.799C24.1865 12.8496 23.528 12.414 22.9505 11.4921C22.7073 11.8872 22.2058 12.2316 21.446 12.5254C20.6862 12.8192 19.9364 12.9104 19.1969 12.799C18.5586 12.7179 17.9761 12.5812 17.4492 12.3887C16.9224 12.1962 16.507 11.9024 16.2031 11.5073C15.4939 12.3887 14.4909 12.8192 13.1941 12.799C11.3198 12.799 10.0889 12.3279 9.50127 11.3857C8.99471 12.2164 8.32098 12.6875 7.48008 12.799C7.20654 12.8496 6.83675 12.7585 6.37071 12.5254L11.021 21.2636H21.3852ZM9.98757 22.2362C9.30877 22.2362 8.96938 22.5807 8.96938 23.2696C8.96938 23.9586 9.30877 24.303 9.98757 24.303H22.4034C23.0923 24.303 23.4368 23.9586 23.4368 23.2696C23.4368 22.5807 23.0923 22.2362 22.4034 22.2362H9.98757Z" fill="#CA5858"/>
<path d="M16.2031 5.09418C15.4027 5.09418 15.0025 5.48929 15.0025 6.27953C15.0025 7.0799 15.4027 7.48008 16.2031 7.48008C16.9933 7.48008 17.3885 7.0799 17.3885 6.27953C17.3885 5.48929 16.9933 5.09418 16.2031 5.09418ZM19.668 11.6744C19.6072 10.8031 19.2425 10.0686 18.5738 9.47087C17.9051 8.863 17.1149 8.55906 16.2031 8.55906C15.2812 8.55906 14.496 8.863 13.8476 9.47087C13.2093 10.0686 12.9256 10.8031 12.9966 11.6744C13.8577 11.6947 14.5162 11.5275 14.9722 11.1729C15.4382 10.8082 15.8485 10.3371 16.2031 9.75961C16.5374 10.3574 17.0085 10.8437 17.6164 11.2185C18.2243 11.5832 18.9081 11.7352 19.668 11.6744ZM10.0332 16.5678L12.0848 15.5344L14.1819 16.5678L12.0848 17.6012L10.0332 16.5678ZM18.2091 16.5678L20.2607 15.5344L22.373 16.5678L20.2607 17.6012L18.2091 16.5678ZM14.1515 17.7076L16.2031 16.6742L18.3003 17.7076L16.2031 18.741L14.1515 17.7076ZM14.1515 15.2153L16.2031 14.1819L18.3003 15.2153L16.2031 16.2487L14.1515 15.2153ZM7.40411 25.382C6.35047 25.382 5.82364 25.9037 5.82364 26.9473V26.9625C5.82364 28.006 6.35047 28.5277 7.40411 28.5277H25.0021C26.0456 28.5277 26.5674 28.006 26.5674 26.9625V26.9473C26.5674 25.9037 26.0456 25.382 25.0021 25.382H7.40411ZM21.3852 21.2636L26.0355 12.5254C25.6809 12.6977 25.3111 12.7889 24.9261 12.799C24.1865 12.8496 23.528 12.414 22.9505 11.4921C22.7074 11.8872 22.2059 12.2316 21.446 12.5254C20.6862 12.8192 19.9365 12.9104 19.1969 12.799C18.5586 12.7179 17.9761 12.5812 17.4492 12.3887C16.9224 12.1962 16.507 11.9024 16.2031 11.5073C15.4939 12.3887 14.4909 12.8192 13.1941 12.799C11.3198 12.799 10.0889 12.3279 9.50128 11.3857C8.99472 12.2164 8.32099 12.6875 7.4801 12.799C7.20655 12.8496 6.83676 12.7585 6.37073 12.5254L11.021 21.2636H21.3852ZM9.98758 22.2362C9.30879 22.2362 8.96939 22.5807 8.96939 23.2696C8.96939 23.9586 9.30879 24.303 9.98758 24.303H22.4034C23.0923 24.303 23.4368 23.9586 23.4368 23.2696C23.4368 22.5807 23.0923 22.2362 22.4034 22.2362H9.98758Z" fill="#FFD692"/>
</svg>
