<svg width="180" height="180" viewBox="0 0 180 180" fill="none" xmlns="http://www.w3.org/2000/svg">
<path d="M125.301 105.677L125.139 141.762H53.1307V105.272L89.2159 86.4591L125.301 105.677ZM89.1349 92.2972L58.5636 108.515V136.248H119.706V108.515L89.1349 92.2972ZM144.438 33.7501V62.8616L117.354 77.4579L144.438 91.9732V161.143H33.75V91.9732L96.5138 58.7261L33.75 58.6446V33.75L144.438 33.7501ZM139.006 39.2642H39.2641V53.2118H117.435L39.2641 95.3786V155.629H139.006V94.9731L105.758 77.5389L139.006 59.5367V39.2642Z" fill="#071C21"/>
<path d="M125.301 105.677L125.139 141.762H53.1311V105.272L89.2164 86.4591L125.301 105.677ZM139.006 39.2642H39.2646V53.2118H117.436L39.2646 95.3786V155.629H139.006V94.9731L105.759 77.5389L139.006 59.5367V39.2642Z" fill="#C6DE41"/>
</svg>
