<svg width="180" height="180" viewBox="0 0 180 180" fill="none" xmlns="http://www.w3.org/2000/svg">
<path d="M125.301 105.374L125.139 141.46H53.1307V104.969L89.2159 86.1559L125.301 105.374ZM101.46 55.7471L119.706 45.9352V22.5H144.438V62.5584L117.192 77.0737L144.438 91.6701V160.84H33.75V91.6701L61.2394 77.2363L33.75 62.5584V22.5H58.5636V45.9352L76.8088 55.5849L76.7278 22.5H101.541L101.46 55.7471ZM119.706 108.213L89.2159 91.9946L58.5636 108.213V135.946H119.706V108.213ZM139.006 94.6704L105.758 77.2363L139.006 59.2341V28.0141H125.139V49.0976L96.0272 64.7483V28.0141H82.242V64.7483L53.1306 49.0976V28.0141H39.2641L39.3452 59.2341L72.5113 77.2363L39.3452 94.6704L39.2641 155.326H139.006V94.6704Z" fill="#071C21"/>
<path d="M125.301 105.374L125.139 141.46H53.1312V104.969L89.2164 86.1559L125.301 105.374ZM139.006 94.6704L105.759 77.2363L139.006 59.2341V28.0142H125.139V49.0977L96.0278 64.7483V28.0142H82.2426V64.7483L53.1311 49.0977V28.0142H39.2646L39.3458 59.2341L72.5119 77.2363L39.3458 94.6704L39.2646 155.326H139.006V94.6704Z" fill="#C6DE41"/>
</svg>
