<svg width="400" height="400" viewBox="0 0 400 400" fill="none" xmlns="http://www.w3.org/2000/svg">
<path d="M151.038 368.136C150.466 367.193 151.252 364.015 152.784 361.072C155.499 355.858 155.465 355.652 151.436 352.897C134.604 341.391 119.256 309.944 117.052 282.449L115.927 268.4L111.877 271.376C109.65 273.013 107.157 273.928 106.336 273.409C105.516 272.891 104.896 266.534 104.959 259.283C105.05 248.751 106.049 243.734 109.92 234.348C115.406 221.048 122.203 209.654 128.336 203.474C130.628 201.164 137.329 193.112 143.227 185.58C149.125 178.048 155.517 170.625 157.433 169.085C161.801 165.572 165.29 155.236 164.189 149.071C163.729 146.494 161.985 138.536 160.314 131.388C153.807 103.546 163.016 74.809 185.627 52.4C190.425 47.644 191.254 46.096 189.402 45.353C188.097 44.83 186.405 44.393 185.644 44.384C182.26 44.342 180.814 38.556 183.398 35.396C189.388 28.069 214.721 31.512 214.721 39.653C214.721 40.251 212.799 41.909 210.451 43.339L206.181 45.939L211.236 49.956C214.016 52.166 216.521 55.245 216.801 56.799C217.081 58.353 214.819 64.455 211.776 70.36C206.883 79.855 202.548 92.088 204.582 90.66C204.992 90.373 209.538 84.896 214.684 78.488C219.831 72.081 224.31 67.008 224.639 67.216C228.355 69.567 235.001 77.408 238.509 83.581C248.164 100.568 247.911 124.936 237.888 143.363C232.384 153.483 233.146 156.536 245.183 172.573C255.17 185.879 258.75 191.346 268.541 208.238C272.701 215.418 272.003 213.899 279.206 231.406C283.927 242.883 284.824 247.206 285.039 259.524C285.262 272.352 284.916 274.229 282.115 275.346C277.995 276.988 276.54 275.533 273.629 266.855C272.405 263.208 270.747 260.225 269.943 260.225C269.139 260.225 268.003 262.132 267.418 264.463C254.966 314.107 242.628 349.507 237.781 349.507C235.409 349.507 235.756 347.567 239.687 338.873C249.051 318.162 260.142 280.832 263.831 257.611C266.936 238.069 264.224 212.46 257.618 198.941C253.211 189.924 240.245 170.941 236.872 168.568C235.456 167.572 233.136 163.248 231.717 158.961C229.158 151.231 229.183 151.076 234.717 140.429C239.858 130.537 240.305 128.449 240.4 113.871C240.477 101.942 239.71 96.241 237.284 90.703C233.371 81.773 227.317 72.621 225.322 72.621C222.565 72.621 218.956 77.051 208.356 93.451C202.522 102.479 196.743 109.876 195.515 109.89C194.286 109.904 193.281 109.095 193.281 108.091C193.281 105.476 201.556 84.224 207.882 70.592C210.852 64.193 212.827 57.812 212.272 56.413C211.717 55.013 208.592 51.914 205.328 49.526C199.528 45.282 199.317 45.231 196.049 47.298C186.655 53.241 175.592 67.139 169.375 80.81C160.421 100.498 159.395 115.964 165.605 137.604C169.968 152.813 168.208 165.606 161.092 170.399C156.702 173.355 143.213 190.78 137.334 201.09C132.389 209.761 126.749 227.462 123.713 243.838C120.947 258.754 121.342 288.734 124.45 299.915C130.377 321.228 143.27 342.37 155.234 350.395C160.755 354.097 161.148 354.782 159.241 357.372C155.844 361.985 154.105 366.459 155.709 366.459C158.306 366.459 170.055 358.391 170.055 356.608C170.055 355.347 171.117 355.105 174.075 355.694C181.788 357.23 197.82 357.628 207.391 356.521L217.033 355.406L223.606 359.647C231.517 364.753 239.417 368.166 241.002 367.163C241.638 366.761 240.809 363.723 239.16 360.413C235.871 353.813 235.371 350.637 237.621 350.637C239.934 350.637 247.172 365.792 245.878 367.926C245.236 368.984 242.903 369.849 240.693 369.849C236.14 369.849 221.124 363.029 219.393 360.174C218.45 358.62 216.789 358.434 209.787 359.099C199.991 360.029 183.637 360.046 179.077 359.131C176.903 358.694 173.261 360.246 167.236 364.175C158.43 369.917 152.933 371.261 151.038 368.136V368.136Z" fill="black" stroke="black" stroke-width="10"/>
<path d="M282.024 259.378C280.792 247.348 271.973 218.41 269.538 218.41C269.318 218.41 269.417 225.657 269.758 234.514C270.272 247.886 271.112 251.994 274.708 258.72C277.09 263.175 279.039 267.625 279.039 268.609C279.039 269.592 279.965 270.396 281.096 270.396C282.583 270.396 282.84 267.347 282.024 259.378V259.378ZM117.125 250.13C117.798 245.025 119.941 234.956 121.887 227.756C123.833 220.556 125.084 214.449 124.667 214.185C123.427 213.401 114.441 232.991 111.842 242.143C110.518 246.805 109.439 254.433 109.444 259.095L109.453 267.571L112.677 263.493C114.485 261.205 116.439 255.337 117.125 250.131V250.13ZM208.021 41.365C213.276 39.319 204.629 34.195 195.921 34.195C187.252 34.195 183.031 38.534 188.368 41.957C190.436 43.282 204.158 42.869 208.021 41.365Z" fill="black" stroke="black" stroke-width="1.5"/>
<path d="M182.562 143.322C182.562 141.017 186.063 139.932 188.509 141.479C190.069 142.465 189.921 143.044 187.907 143.849C184.137 145.357 182.562 145.202 182.562 143.322V143.322ZM195.668 143.179C194.042 140.499 197.853 138.609 201.268 140.401C203.384 141.512 203.562 142.228 202.018 143.405C199.342 145.444 196.991 145.36 195.668 143.179Z" fill="black" stroke="black" stroke-width="1.5"/>
<path d="M237.583 349.366C237.263 349.611 237.535 349.971 237.431 350.234C237.414 350.278 237.296 350.286 237.279 350.33C237.239 350.432 237.279 350.77 237.279 350.908V352.065" stroke="black" stroke-width="1.066"/>
<path d="M280.191 269.574C278.144 265.525 272.565 252.925 271.862 250.766C271.375 249.266 270.796 241.784 270.577 234.138C270.207 221.202 270.27 220.407 271.483 222.69C276.841 232.773 284.09 266.464 281.523 269.357C280.773 270.203 280.529 270.242 280.191 269.574Z" fill="#FEBAAB"/>
<path d="M109.549 262.4C109.527 254.903 110.449 247.543 112.146 241.693C114.201 234.604 121.609 217.786 123.866 215.087L124.436 214.405L124.449 215.329C124.465 216.443 123.329 221.645 121.723 227.801C119.655 235.733 118.438 241.509 116.689 251.701C116.12 255.013 114.742 259.481 113.631 261.614C113.193 262.454 112.099 264.059 111.199 265.18L109.563 267.218L109.549 262.4Z" fill="#FEBAAB" stroke="#FEBAAB" stroke-width="0.242"/>
<path d="M187.909 41.076C184.321 37.836 188.304 34.655 195.949 34.655C200.355 34.655 203.634 35.451 206.605 37.245C211.777 40.365 207.784 42.287 196.125 42.287C189.998 42.287 189.105 42.155 187.909 41.076V41.076Z" fill="#FEBAAB" stroke="#FEBAAB" stroke-width="0.685"/>
<path d="M235.195 365.453C232.85 364.514 227.779 361.8 223.925 359.423L216.917 355.1L209.824 355.951C200.914 357.021 186.244 357.031 178.36 355.975C170.42 354.911 170.485 354.905 169.419 356.839C168.485 358.533 157.648 366.07 156.145 366.07C154.983 366.07 156.056 362.95 158.558 359.055C159.731 357.228 160.692 355.381 160.692 354.95C160.692 354.519 158.519 352.49 155.863 350.441C146.816 343.461 140.653 335.657 134.058 322.83C126.36 307.854 123.914 299.105 122.752 282.385C120.942 256.321 125.112 229.931 134.512 207.97C138.823 197.897 151.553 179.954 160.178 171.792C166.875 165.455 168.018 162.635 167.945 152.635C167.898 146.302 167.347 142.49 165.502 135.735C162.312 124.056 161.516 108.235 163.652 98.935C168.212 79.082 181.25 58.142 194.856 48.822L199.286 45.787L202.484 47.965C204.244 49.162 207 51.365 208.612 52.861C213.119 57.045 212.987 57.799 204.223 77.951C197.04 94.467 192.341 107.721 193.179 109.101C193.425 109.507 194.312 109.839 195.151 109.839C197.164 109.839 200.917 105.243 209.844 91.849C217.858 79.82 222 74.38 223.907 73.38C224.993 72.81 225.437 72.907 226.52 73.956C228.754 76.118 231.88 80.971 235.09 87.256C239.241 95.388 240.311 102.312 239.738 117.338C239.254 130.013 239.001 131.013 233.505 142.003C229.377 150.257 229.075 152.551 231.287 158.88C232.662 162.815 234.708 166.106 239.931 172.782C248.091 183.214 255.821 195.466 258.514 202.239C262.824 213.081 265.564 233.049 264.572 246.404C262.896 268.972 252.102 308.711 239.842 337.447C235.25 348.21 235.01 351.663 238.318 359.381C240.93 365.476 241.326 367.159 240.15 367.159C239.77 367.159 237.54 366.391 235.195 365.452V365.453ZM188.678 143.583C190.368 142.555 190.368 142.543 188.564 141.402C186.302 139.972 183.327 140.424 182.578 142.312C181.374 145.347 184.652 146.03 188.678 143.582V143.583ZM201.732 143.897C204.237 142.312 204.114 141.663 201.036 140.21C199.245 139.364 198.483 139.284 196.996 139.787C194.785 140.536 194.516 143.151 196.52 144.418C198.365 145.586 199.193 145.503 201.732 143.897Z" fill="#FEBAAB"/>
</svg>
