<svg width="400" height="400" viewBox="0 0 400 400" fill="none" xmlns="http://www.w3.org/2000/svg">
<path d="M137.156 359.726C137.156 359.081 135.156 354.599 132.713 349.767C119.687 324.009 105.229 279.805 98.215 244.29C88.611 195.657 85.579 155.533 88.901 121.018C90.379 105.665 90.691 92.509 89.674 88.453C89.313 87.015 88.19 84.251 87.178 82.312C86.166 80.372 85.338 78.491 85.338 78.13C85.338 76.795 87.808 75.22 91.418 74.254C96.562 72.876 108.657 70.863 111.788 70.863C115.506 70.863 116.773 72.207 117.848 77.291C118.288 79.377 119.123 82.581 119.702 84.411L120.755 87.74L126.46 87.661C129.597 87.618 135.053 87.147 138.582 86.614C147.07 85.333 146.932 85.49 146.374 77.756C145.787 69.618 145.896 65.243 146.707 64.454C147.14 64.032 149.563 63.623 153.557 63.297C160.92 62.697 190.425 61.217 190.636 61.438C190.717 61.523 191.031 65.658 191.333 70.625C191.636 75.593 191.973 80.105 192.083 80.651C192.269 81.578 192.786 81.683 199.762 82.219C212.285 83.181 220.775 83.376 224.858 82.793C228.998 82.203 232.148 80.923 233.053 79.464C233.371 78.951 233.85 75.896 234.117 72.676C234.701 65.638 235.177 63.786 236.789 62.27C238.811 60.37 243.689 60.465 261.036 62.743C269.163 63.81 276.062 64.683 276.368 64.683C276.781 64.683 276.925 68.688 276.928 80.252C276.934 96.084 277.503 112.996 278.349 122.444C279.475 135.016 285.166 192.746 286.667 206.827C289.955 237.664 290.829 252.719 290.833 278.612C290.838 305.717 289.311 325.021 285.901 340.94L285.431 343.129L277.493 343.409C272.08 343.601 266.757 344.149 260.76 345.132C239.893 348.554 186.527 354.919 158.787 357.295C149.017 358.132 145.706 358.603 142.785 359.574C141.65 359.951 139.919 360.403 138.939 360.579C137.274 360.879 137.156 360.822 137.156 359.726V359.726Z" stroke="black" stroke-width="10.479"/>
<path d="M136.667 345.072C106.599 281.776 88.985 189.902 94.293 124.048C94.963 115.728 95.526 104.08 95.543 98.163C95.573 87.923 95.489 87.223 93.802 83.584L92.03 79.762L95.446 79.029C100.282 77.992 111.54 76.212 111.76 76.45C111.86 76.56 112.708 79.523 113.642 83.036C114.576 86.549 115.659 90.256 116.05 91.272L116.76 93.121L124.34 93.108C128.509 93.101 134.794 92.685 138.307 92.184C150.829 90.4 152.099 88.964 151.847 76.883L151.685 69.048L157.938 68.608C168.643 67.856 185.022 67.054 185.265 67.271C185.393 67.384 185.768 70.841 186.098 74.951C186.768 83.283 187.234 84.592 190.048 86.048C194.527 88.364 223.188 89.289 229.788 87.331C236.869 85.23 238.66 82.873 239.438 74.632C239.683 72.044 240.05 69.073 240.255 68.03L240.626 66.135L245.101 66.573C251.655 67.214 265.99 68.867 268.904 69.318L271.426 69.708L271.438 84.272C271.46 109.028 272.195 118.506 280.488 201.028C283.72 233.198 284.607 245.484 285.218 266.578C285.865 288.906 284.018 322.493 281.498 334.247L280.768 337.647L273.967 338.092C270.225 338.338 262.299 339.275 256.353 340.176C234.624 343.468 190.237 348.772 163.183 351.309C154.863 352.089 146.845 353.002 145.366 353.337C143.887 353.672 142.276 353.954 141.788 353.963C141.299 353.973 138.995 349.971 136.668 345.072H136.667Z" fill="#FEBAAB"/>
<path d="M214.746 186.151C211.666 184.296 213.337 182.766 217.56 183.573C222.047 184.432 236.528 181.1 243.595 177.584C247.973 175.405 251.352 176.237 248.685 178.837C246.648 180.823 224.885 187.04 219.902 187.058C217.906 187.065 215.586 186.658 214.746 186.151V186.151ZM114.11 169.712C108.855 167.994 107.808 166.734 107.808 162.128C107.808 145.566 132.301 132.372 152.384 138.114C162.674 141.056 168.061 146.139 166.954 151.859C166.32 155.126 166.894 156.191 169.024 155.699C173.216 154.729 172.691 156.355 167.034 161.872C158.054 170.627 129.74 174.822 114.11 169.712V169.712Z" fill="black" stroke="black" stroke-width="1.779"/>
<path d="M151.593 166.763C153.359 165.7 153.349 164.471 151.559 162.456C148.029 158.481 148.303 143.284 151.919 142.475C156.676 141.411 143.127 138.858 137.271 139.715C129.888 140.795 121.971 145.327 116.751 151.461C111.08 158.124 111.231 162.899 117.231 166.514C121.343 168.992 124.105 169.342 135.597 168.841C143.037 168.517 150.235 167.581 151.593 166.763V166.763ZM224.16 169.73C217.014 167.393 208.602 159.696 213.165 159.696C214.703 159.696 220.78 163.406 223.382 164.859C231.14 169.191 238.982 169.118 248.279 164.627C254.652 161.548 254.669 161.494 250.85 156.887C247.968 153.411 247.299 150.031 248.181 143.411C249.301 135.002 249.096 134.534 243.936 133.754C230.314 131.694 214.527 142.754 214.813 154.16C214.978 160.762 212.72 162.882 210.026 158.652C207.555 154.772 208.636 149.229 212.966 143.576C219.416 135.155 227.224 131.551 240.712 130.77C251.96 130.12 252.603 130.28 261.672 136.025C270.545 141.645 270.954 142.278 269.613 148.287C267.966 155.666 258.76 164.28 247.74 168.755C238.863 172.36 232.95 172.605 224.16 169.73V169.73Z" fill="black" stroke="black" stroke-width="1.779"/>
<path d="M124.138 167.824C120.917 167.451 117.923 166.114 115.723 164.067C113.013 161.547 113.002 158.594 115.685 154.557C119.649 148.595 127.123 143.35 134.591 141.29C136.625 140.729 137.241 140.668 140.772 140.683C143.668 140.696 145.436 140.833 147.53 141.207C149.09 141.486 150.408 141.756 150.46 141.807C150.511 141.859 150.264 142.339 149.91 142.875C148.815 144.529 148.35 146.655 148.207 150.655C147.998 156.514 148.854 160.534 150.877 163.201C151.464 163.976 151.944 164.743 151.944 164.907C151.944 166.293 146.096 167.31 135.068 167.843C129.263 168.124 126.688 168.12 124.138 167.824ZM232.406 166.87C229.276 166.506 226.442 165.37 220.656 162.153L215.372 159.216L215.533 158.366C215.623 157.897 215.78 156.07 215.885 154.306C216.112 150.479 216.575 148.95 218.319 146.276C222.791 139.418 231.967 134.576 240.493 134.576C243.93 134.576 246.503 135.092 247.233 135.928C247.76 136.531 247.789 136.711 247.667 138.606C247.596 139.723 247.358 142.082 247.139 143.846C246.291 150.686 247.048 153.77 250.689 158.316C252.553 160.641 252.673 160.936 251.985 161.484C251.107 162.184 245.941 164.637 243.657 165.439C239.832 166.783 235.933 167.279 232.406 166.869V166.87Z" fill="white"/>
</svg>
