<svg width="50" height="50" viewBox="0 0 50 50" fill="none" xmlns="http://www.w3.org/2000/svg">
<path fill-rule="evenodd" clip-rule="evenodd" d="M14.978 8.7251C14.978 8.7251 14.8518 8.72844 14.6728 8.7723C14.1944 8.77898 14.6695 9.65052 14.1912 9.65934L12.0991 9.96776C12.0991 9.96776 13.9264 13.8038 13.9264 14.5136C13.9264 15.2234 12.6888 16.2475 12.6888 16.2475V28.3415L15.2532 30.5046L19.3616 29.576L17.7802 27.2656L23.4031 22.3657C26.0698 35.3547 12.9091 27.2864 14.3456 39.3707H35.8066C35.8111 39.1441 34.0879 36.6809 35.0188 32.1894C38.4324 10.2404 31.1194 7.61943 15.0208 8.76943C15.0175 8.76609 14.9776 8.72691 14.9776 8.72691L14.978 8.7251Z" fill="url(#paint0_linear_1_180)" stroke="#323232" stroke-width="1.2" stroke-linejoin="round"/>
<path opacity="0.4" d="M19.6664 16.2392L16.374 16.2391M14.91 17.622C14.91 17.9888 15.0643 18.3405 15.3389 18.5999C15.6134 18.8592 15.9859 19.0049 16.3742 19.0049C16.7625 19.0049 17.135 18.8592 17.4095 18.5999C17.6841 18.3405 17.8384 17.9888 17.8384 17.622C17.8384 17.2552 17.6841 16.9035 17.4095 16.6441C17.135 16.3848 16.7625 16.2391 16.3742 16.2391C15.9859 16.2391 15.6134 16.3848 15.3389 16.6441C15.0643 16.9035 14.91 17.2552 14.91 17.622V17.622Z" stroke="black" stroke-width="0.8" stroke-linejoin="round"/>
<path opacity="0.4" d="M14.309 28.0477C13.8746 28.0477 13.5224 27.7277 13.5224 27.333C13.5224 26.9383 13.8746 26.6183 14.309 26.6183C14.7434 26.6183 15.0956 26.9383 15.0956 27.333C15.0956 27.7277 14.7434 28.0477 14.309 28.0477Z" fill="black"/>
<path opacity="0.4" d="M16.346 18.0499C16.1166 18.0499 15.9306 17.8628 15.9306 17.632C15.9306 17.4012 16.1166 17.2141 16.346 17.2141C16.5754 17.2141 16.7615 17.4012 16.7615 17.632C16.7615 17.8628 16.5754 18.0499 16.346 18.0499Z" fill="black"/>
<path opacity="0.15" fill-rule="evenodd" clip-rule="evenodd" d="M35.807 38.823C35.8724 38.8351 34.0988 36.9791 35.0182 32.1893C37.5198 14.2443 34.8745 8.4663 20.0492 8.5513V8.55103C18.4369 8.5399 16.7448 8.60035 14.9801 8.72649C15.0212 8.7689 16.4774 9.98419 16.8395 10.4552C16.8812 10.4519 16.921 10.4496 16.9624 10.4474L19.3965 13.0777C19.3965 13.0777 18.0611 10.9715 19.6053 10.6032C40.9693 7.40009 35.3923 39.0322 22.1243 38.7572" fill="black"/>
<path fill-rule="evenodd" clip-rule="evenodd" d="M17.166 13.338C20.5673 10.0998 14.6774 7.1678 14.6774 7.1678L14.763 12.1498" fill="#D2D2D2"/>
<path d="M17.166 13.338C20.5673 10.0998 14.6774 7.1678 14.6774 7.1678L14.763 12.1498" stroke="#323232" stroke-width="1.2" stroke-linejoin="round"/>
<g opacity="0.4">
<path fill-rule="evenodd" clip-rule="evenodd" d="M16.645 30.19L16.6671 28.0386Z" fill="#CFCFCF"/>
<path d="M16.645 30.19L16.6671 28.0386" stroke="black" stroke-width="0.8" stroke-linejoin="round"/>
</g>
<path fill-rule="evenodd" clip-rule="evenodd" d="M25.076 36.457C25.076 36.457 16.4981 36.5051 14.093 38.0762C12.4703 39.1364 12.0875 41.7276 12.3082 44.3999H37.8442C38.0649 41.7276 37.6821 39.1363 36.0594 38.0762C33.6547 36.5051 25.0764 36.457 25.0764 36.457H25.076Z" fill="url(#paint1_linear_1_180)" stroke="#323232" stroke-width="1.2" stroke-linejoin="round"/>
<path opacity="0.15" fill-rule="evenodd" clip-rule="evenodd" d="M25.076 36.457C25.076 36.457 16.4978 36.5049 14.093 38.076C12.4703 39.1362 12.0876 40.669 12.3084 43.3413H12.3924C12.62 41.9614 13.1427 40.8135 14.093 40.1927C16.4981 38.6216 25.076 38.5737 25.076 38.5737C25.076 38.5737 33.6545 38.6216 36.059 40.1927C37.0093 40.8135 37.5319 41.9615 37.7596 43.3413H37.8436C38.0643 40.669 37.6817 39.1361 36.059 38.076C33.6543 36.5049 25.076 36.457 25.076 36.457H25.076Z" fill="black"/>
<g opacity="0.15">
<path fill-rule="evenodd" clip-rule="evenodd" d="M22.921 14.92C30.6595 18.7832 17.7994 27.284 17.7803 27.265L19.3617 29.5754L15.2533 30.5039L15.592 27.6361C15.609 27.6331 28.127 19.0533 22.9209 14.9201" fill="black"/>
<path d="M22.921 14.92C30.6595 18.7832 17.7994 27.284 17.7803 27.265L19.3617 29.5754L15.2533 30.5039L15.592 27.6361C15.609 27.6331 28.127 19.0533 22.9209 14.9201" stroke="black" stroke-width="0.26458"/>
</g>
<path fill-rule="evenodd" clip-rule="evenodd" d="M13.301 28.081L13.3093 16.505C15.2421 14.852 14.6756 14.275 13.0074 10.4644C15.8948 14.7335 16.0478 14.1164 14.1113 16.9432L13.301 28.081Z" fill="white"/>
<path fill-rule="evenodd" clip-rule="evenodd" d="M14.919 37.016C14.7173 30.0528 25.463 33.8907 24.3309 24.038C26.4457 33.6828 15.618 31.5293 14.919 37.016Z" fill="white"/>
<defs>
<linearGradient id="paint0_linear_1_180" x1="11.5035" y1="23.956" x2="36.4438" y2="23.956" gradientUnits="userSpaceOnUse">
<stop stop-color="#ECECEC"/>
<stop offset="1" stop-color="#787878"/>
</linearGradient>
<linearGradient id="paint1_linear_1_180" x1="11.651" y1="40.43" x2="38.502" y2="40.43" gradientUnits="userSpaceOnUse">
<stop stop-color="#ECECEC"/>
<stop offset="1" stop-color="#787878"/>
</linearGradient>
</defs>
</svg>
