<svg width="256" height="256" viewBox="0 0 256 256" fill="none" xmlns="http://www.w3.org/2000/svg">
<path d="M202 217.235V234.667H54V217.235C54 205.675 62.2828 196.05 73.2377 193.974C74.6765 193.697 76.1613 193.556 77.6791 193.556H78.6665C84.2182 190.344 95.3238 182.887 103.333 168.889C107.277 161.994 109.393 155.396 110.549 150.072L100.035 150.053L113.506 146.709L123.459 144.222H95.1091C93.4298 143.501 91.7486 142.778 90.071 142.057L85.6534 131.476L106.438 119.726C99.4973 113.699 95.1089 104.805 95.1089 94.8889C95.1089 89.0032 96.6543 83.4769 99.3632 78.6996C105.012 68.7281 115.718 62 127.998 62C128.293 62 128.585 62.0018 128.879 62.011C128.891 62.0128 128.908 62.0128 128.923 62.0128C140.171 62.323 150.009 68.2805 155.7 77.1525C158.983 82.2696 160.886 88.3592 160.886 94.8891C160.886 104.47 156.792 113.092 150.256 119.1L172.15 131.48L167.769 141.97C165.475 142.721 163.181 143.474 160.887 144.222H144.442C145.178 150.035 147.102 159.164 152.665 168.889C157.537 177.409 163.561 183.502 168.777 187.693L176.015 187.712L170.543 189.064C170.543 189.064 170.555 189.075 170.563 189.081L152.663 193.557H178.317C179.835 193.557 181.32 193.699 182.758 193.976C193.715 196.052 201.996 205.676 201.996 217.237L202 217.235Z" fill="#2D2424"/>
<path fill-rule="evenodd" clip-rule="evenodd" d="M115.378 151.395C114.123 157.07 111.853 164.064 107.673 171.372C99.0534 186.437 87.1163 194.444 81.1703 197.884C80.4093 198.324 79.5457 198.556 78.6665 198.556H77.6791C76.4722 198.556 75.3043 198.668 74.1833 198.884L74.1685 198.887C65.5311 200.524 59 208.121 59 217.235V229.667H197V217.434C196.997 217.369 196.996 217.303 196.996 217.237C196.996 208.121 190.467 200.525 181.828 198.888L181.813 198.886C180.692 198.67 179.524 198.557 178.317 198.557H152.663C150.138 198.557 148.009 196.675 147.7 194.168C147.392 191.662 149 189.319 151.45 188.707L160.011 186.566C155.989 182.585 151.874 177.578 148.324 171.371C142.338 160.906 140.272 151.09 139.482 144.85C139.302 143.426 139.742 141.993 140.691 140.916C141.641 139.839 143.007 139.222 144.442 139.222H160.091C161.365 138.806 162.639 138.389 163.914 137.971C163.955 137.958 163.996 137.944 164.038 137.931L165.826 133.648L147.795 123.453C146.403 122.666 145.472 121.26 145.289 119.671C145.106 118.082 145.695 116.502 146.872 115.42C152.421 110.318 155.886 103.014 155.886 94.8891C155.886 89.3439 154.273 84.1875 151.492 79.8528C146.665 72.3282 138.339 67.2884 128.826 67.0121C128.804 67.0118 128.778 67.0112 128.749 67.0103C128.725 67.0096 128.693 67.0085 128.652 67.0066C128.457 67.0015 128.247 67 127.998 67C117.591 67 108.511 72.6958 103.714 81.1641L103.713 81.1658C101.42 85.2097 100.109 89.8887 100.109 94.8889C100.109 103.297 103.824 110.834 109.716 115.951C110.943 117.016 111.576 118.61 111.413 120.227C111.251 121.843 110.313 123.279 108.899 124.079L91.9772 133.645L93.9053 138.263C94.6495 138.583 95.3937 138.903 96.1377 139.222H123.459C125.985 139.222 128.114 141.105 128.422 143.612C128.73 146.118 127.121 148.461 124.671 149.073L115.378 151.395Z" fill="#E0C097"/>
</svg>
