<svg width="256" height="256" viewBox="0 0 256 256" fill="none" xmlns="http://www.w3.org/2000/svg">
<path d="M83.3014 121.778V121.375L97.2877 117.882L96.6819 112.956H80.1822C73.1518 112.956 67.4467 107.251 67.4467 100.221V61.8722C75.1779 59.9685 84.1528 58.1427 94.1819 56.7813V83.7349V86.2349H96.6819H112.549H115.049V83.7349V54.8412C119.377 54.6189 123.832 54.5 128.417 54.5C132.998 54.5 137.469 54.6279 141.785 54.8606V83.735V86.235H144.285H160.152H162.652V83.735V56.8206C172.7 58.1886 181.658 60.0393 189.387 61.9575V100.234C189.387 107.264 183.682 112.969 176.652 112.969H176.02H173.52V115.469V188.329V188.892L159.547 192.38L160.152 197.305H176.987C187.885 197.305 196.776 205.856 197.321 216.618V217.679V232.014L59.5 232.001V217.666C59.5 206.429 68.6118 197.306 79.8597 197.306H80.8014H83.3014V194.806V121.778Z" fill="#2D2424" stroke="#2D2424" stroke-width="5"/>
</svg>
