<svg width="180" height="180" viewBox="0 0 180 180" fill="none" xmlns="http://www.w3.org/2000/svg">
<path d="M134.078 141.834C119.509 147.522 104.39 150.366 88.7237 150.366C73.0069 150.366 57.8885 147.522 43.3692 141.834L44.0428 147.821C58.5624 153.11 73.4557 155.755 88.7237 155.755C103.891 155.755 118.76 153.11 133.329 147.821L134.078 141.834ZM136.997 121.402L137.745 115.04C122.278 123.622 105.937 127.913 88.7237 127.913C71.51 127.913 55.1694 123.647 39.702 115.115L40.4504 121.477C55.7182 129.31 71.8093 133.227 88.7237 133.227C105.638 133.227 121.729 129.286 136.997 121.402ZM28.6253 64.7466C27.6773 56.8131 28.0765 52.5722 29.8228 52.0233C31.7687 51.4745 34.937 55.7405 39.3277 64.8214L64.5497 119.007L84.308 45.6617C85.6052 41.4706 87.0772 39.375 88.7237 39.375C90.32 39.375 91.7921 41.4706 93.1393 45.6617L112.823 119.082L138.12 64.7466C142.51 55.6656 145.729 51.3996 147.774 51.9485C149.47 52.4973 149.845 56.7883 148.897 64.8214L138.045 152.985C122.078 158.973 105.638 161.966 88.7237 161.966C71.5595 161.966 55.1195 158.973 39.4026 152.985L28.6253 64.7466Z" fill="#1B262C"/>
<path d="M134.078 141.834C119.509 147.522 104.391 150.366 88.7237 150.366C73.0069 150.366 57.8886 147.522 43.3695 141.834L44.043 147.821C58.5624 153.11 73.4558 155.755 88.7237 155.755C103.892 155.755 118.761 153.11 133.33 147.821L134.078 141.834ZM136.997 121.402L137.746 115.04C122.278 123.622 105.937 127.913 88.7237 127.913C71.5101 127.913 55.1696 123.647 39.7022 115.115L40.4506 121.477C55.7184 129.31 71.8093 133.227 88.7237 133.227C105.638 133.227 121.729 129.286 136.997 121.402Z" fill="#00B7C2"/>
</svg>
