<svg width="32" height="32" viewBox="0 0 32 32" fill="none" xmlns="http://www.w3.org/2000/svg">
<path d="M12.5 7.59503C12.2222 7.32671 12.0833 6.92981 12.0833 6.40435C12.0833 5.8677 12.2222 5.46522 12.5 5.19689C12.7778 4.92857 13.1444 4.97888 13.6 5.34783C14.0556 5.70559 14.4167 5.76149 14.6833 5.51553C14.95 5.26957 14.9 4.92298 14.5333 4.47578C14.1667 4.01739 14.1222 3.65404 14.4 3.38571C14.6667 3.12857 15.0722 3 15.6167 3C16.1722 3 16.5889 3.12857 16.8667 3.38571C17.1333 3.65404 17.0833 4.01739 16.7167 4.47578C16.3611 4.92298 16.3167 5.26957 16.5833 5.51553C16.8389 5.76149 17.1944 5.70559 17.65 5.34783C18.1056 4.97888 18.4778 4.92857 18.7667 5.19689C19.0333 5.46522 19.1667 5.8677 19.1667 6.40435C19.1667 6.92981 19.0333 7.32671 18.7667 7.59503C18.4778 7.86335 18.1056 7.82422 17.65 7.47764C17.2056 7.11988 16.85 7.0528 16.5833 7.2764C16.2944 7.51118 16.2778 7.93043 16.5333 8.53416C16.8 9.12671 16.8167 9.42298 16.5833 9.42298C16.3278 9.42298 16.0389 9.4118 15.7167 9.38944C15.3944 9.3559 15.05 9.36708 14.6833 9.42298C14.3167 9.49006 14.2944 9.21056 14.6167 8.58447C14.9389 7.9472 14.9611 7.51118 14.6833 7.2764C14.4056 7.0528 14.0389 7.11988 13.5833 7.47764C13.1389 7.82422 12.7778 7.86335 12.5 7.59503ZM19.3167 13.364C22.1167 13.9677 24.4278 15.1584 26.25 16.936C28.0833 18.7137 29 20.7484 29 23.0404C29 24.4043 28.6667 25.6845 28 26.8807C27.3444 28.077 26.4556 29.1168 25.3333 30H5.73333C3.24444 28.0994 2 25.7795 2 23.0404C2 20.7708 2.89444 18.7528 4.68333 16.9863C6.48333 15.2199 8.77778 14.018 11.5667 13.3807C11.0889 12.9783 10.85 12.5143 10.85 11.9888C10.85 11.2957 11.3 10.7031 12.2 10.2112C13.1 9.70807 14.1889 9.45652 15.4667 9.45652C16.7333 9.45652 17.8167 9.70807 18.7167 10.2112C19.6278 10.7031 20.0833 11.2957 20.0833 11.9888C20.0833 12.5366 19.8278 12.995 19.3167 13.364V13.364Z" fill="black"/>
</svg>
