<svg width="180" height="180" viewBox="0 0 180 180" fill="none" xmlns="http://www.w3.org/2000/svg">
<path d="M117.372 147.563C110.86 147.563 107.604 144.339 107.604 137.889C107.604 134.884 108.825 132.348 111.267 130.281C116.589 126.462 120.847 121.578 124.04 115.63C127.297 109.681 128.924 103.232 128.924 96.2814C128.924 84.8227 124.854 75.024 116.714 66.8841C108.574 58.7441 98.775 54.674 87.3169 54.674C75.8582 54.674 66.0589 58.7441 57.9189 66.8841C49.7791 75.024 45.7091 84.8227 45.7091 96.2814C45.7091 103.42 47.3684 110.026 50.687 116.099C54.0682 122.173 58.545 127.088 64.1177 130.845C65.9964 132.848 66.9358 135.197 66.9358 137.889C66.9358 144.339 63.7734 147.563 57.4492 147.563H26.549V157.331H148.084V147.563H117.372ZM117.372 137.795L157.758 137.889V167.005H16.875V137.889H57.4492C43.1732 127.996 36.0352 114.127 36.0352 96.2814C36.0352 82.1931 41.0443 70.1398 51.0627 60.1217C61.0813 50.0405 73.1655 45 87.3169 45C101.405 45 113.459 50.0405 123.477 60.1217C133.558 70.1398 138.598 82.1931 138.598 96.2814C138.598 104.797 136.657 112.687 132.775 119.95C128.893 127.151 123.758 133.099 117.372 137.795Z" fill="black"/>
<path d="M117.372 147.563C110.86 147.563 107.604 144.339 107.604 137.889C107.604 134.884 108.825 132.348 111.267 130.281C116.589 126.462 120.847 121.578 124.04 115.63C127.297 109.681 128.924 103.232 128.924 96.2814C128.924 84.8233 124.855 75.024 116.715 66.8841C108.575 58.7441 98.7755 54.674 87.3169 54.674C75.8582 54.674 66.0588 58.7441 57.9189 66.8841C49.7793 75.024 45.7093 84.8233 45.7093 96.2814C45.7093 103.42 47.3686 110.026 50.6871 116.099C54.0684 122.173 58.5455 127.088 64.1182 130.845C65.9964 132.848 66.9358 135.197 66.9358 137.889C66.9358 144.339 63.7734 147.563 57.4498 147.563H26.5491V157.331H148.084V147.563H117.372Z" fill="white"/>
</svg>
