<svg width="256" height="256" viewBox="0 0 256 256" fill="none" xmlns="http://www.w3.org/2000/svg">
<path d="M175.039 196.453H146.851L152.36 195.085V195.124L171.865 190.299H164.112C174.187 176.728 180.714 158.809 181.772 142.697C183.32 118.779 173.078 94.939 154.359 76.8776C153.25 78.2966 152.153 79.7802 151.082 81.3541C133.886 106.51 134.918 133.293 135.731 142.735H120.379C119.876 130.608 120.366 105.129 133.77 80.4889C136.234 75.9608 139.137 71.4585 142.555 67.0853C142.839 66.737 143.11 66.3629 143.407 66.0145C144.658 64.4407 145.935 62.9442 147.238 61.5251C146.89 51.2434 138.44 43 128.055 43C117.684 43 108.872 51.5789 108.872 62.183C108.872 63.6665 109.04 65.1242 109.376 66.5046H122.121L112.936 68.8009L102.397 71.4068H107.905C85.3035 89.9706 72.6344 116.288 74.3517 142.708C75.5773 161.401 84.1563 182.543 97.1338 196.463H81.0985C68.8947 196.463 59 206.358 59 218.562V234.842H197.111V218.562C197.111 206.358 187.216 196.463 175.013 196.463L175.039 196.453ZM110.329 69.4477H110.407L110.329 69.4864V69.4477Z" fill="black"/>
<path fill-rule="evenodd" clip-rule="evenodd" d="M151.762 190.121C151.559 190.145 151.356 190.182 151.155 190.232L145.646 191.6C143.194 192.209 141.581 194.551 141.888 197.059C142.195 199.567 144.324 201.453 146.851 201.453H174.686C174.794 201.46 174.903 201.463 175.013 201.463C184.455 201.463 192.111 209.119 192.111 218.562V229.842H64V218.562C64 209.119 71.6561 201.463 81.0985 201.463H97.1338C99.1243 201.463 100.925 200.282 101.719 198.457C102.513 196.632 102.148 194.509 100.791 193.054C88.6536 180.035 80.4965 160.005 79.341 142.381C77.7448 117.808 89.5245 92.974 111.079 75.2706C111.469 74.9502 111.801 74.5794 112.07 74.1735C112.091 74.166 112.111 74.1584 112.131 74.1506L114.136 73.6548L123.334 71.3553C125.784 70.7429 127.392 68.3999 127.084 65.8937C126.775 63.3874 124.647 61.5046 122.121 61.5046H113.889C114.254 54.0132 120.629 48 128.055 48C135.093 48 140.929 53.1203 142.054 59.8234C141.203 60.8004 140.366 61.8072 139.541 62.8433C139.338 63.0841 139.16 63.3126 139.028 63.4826C138.998 63.5208 138.971 63.5559 138.946 63.5884C138.83 63.7369 138.757 63.8318 138.679 63.927C138.67 63.9382 138.661 63.9495 138.652 63.9609C138.64 63.9758 138.628 63.9908 138.616 64.0058C135.017 68.6096 131.965 73.3447 129.378 78.099C115.337 103.912 114.866 130.468 115.384 142.942C115.495 145.62 117.699 147.735 120.379 147.735H135.731C137.131 147.735 138.468 147.147 139.415 146.115C140.362 145.083 140.833 143.701 140.712 142.306C139.937 133.303 139.007 108.202 154.917 84.6069C170.125 101.179 178.109 121.863 176.783 142.369M151.762 190.121L159.579 188.187C159.72 187.885 159.893 187.593 160.097 187.319C169.605 174.511 175.789 157.511 176.783 142.369" fill="white"/>
</svg>
