<svg width="256" height="256" viewBox="0 0 256 256" fill="none" xmlns="http://www.w3.org/2000/svg">
<path d="M214.989 148.389C220.317 133.257 215.841 119.376 214.989 116.86C209.958 102.05 197.625 89.8465 183.461 85.3313C168.393 80.5195 161.246 87.6276 145.753 91.2656C142.553 84.0285 139.367 76.7784 136.168 69.5542H151.945V53.7771H136.168V38H120.391V53.7771H104.613V69.5542H120.391C118.21 74.508 116.004 79.4617 113.824 84.4413L110.831 91.2785L105.039 104.489L106.845 93.8584L108.728 83.3574L105.774 89.9238C93.5704 86.1698 86.4492 81.0998 73.0975 85.3571C58.9327 89.8723 46.6002 102.076 41.5688 116.886C40.7174 119.401 36.2408 133.295 41.5688 148.415C45.5292 159.677 51.4763 161.844 65.2283 179.943C71.7561 188.548 74.1295 192.96 75.7937 196.108C65.2927 198.107 57.359 207.331 57.359 218.412V235.131H199.265V218.412C199.265 207.499 191.589 198.404 181.32 196.223H165.04L167.052 195.72L183.294 191.669L193.227 189.206H184.829C186.377 186.767 188.454 183.775 191.357 179.956C205.083 161.856 211.03 159.689 215.016 148.427L214.989 148.389ZM112.509 164.166H96.7319L80.9549 148.389C75.9753 139.436 76.2333 129.451 80.9549 124.729C85.0959 120.562 93.5457 119.621 101.596 123.452C105.517 125.323 109.323 128.316 112.484 132.611V164.14L112.509 164.166ZM175.58 148.389C170.33 153.639 165.08 158.89 159.803 164.166H144.026V132.637C147.187 128.328 150.993 125.336 154.914 123.478C162.938 119.646 171.414 120.614 175.555 124.755C180.277 129.477 180.535 139.462 175.555 148.415L175.58 148.389Z" fill="black"/>
</svg>
