<svg width="256" height="256" viewBox="0 0 256 256" fill="none" xmlns="http://www.w3.org/2000/svg">
<path fill-rule="evenodd" clip-rule="evenodd" d="M63.8247 225.859C63.906 228.797 66.935 227.933 66.935 227.933H195.494C178.006 215.482 167.359 214.18 157.134 212.381C181.717 190.234 184.603 153.336 184.09 136.519C183.577 119.702 172.03 87.673 141.807 60.7641C144.189 55.653 144.83 49.706 143.289 45.0181C141.748 40.3302 135.394 33.3785 126.031 33.0205C110.355 32.4209 106.821 45.1528 106.332 50.6455C105.844 56.1382 108.836 64.8193 116.7 70.3441C124.563 75.8689 147.014 91.6854 142.619 134.624C138.224 177.562 110.942 190.269 92.8542 202.013C74.7663 213.758 63.6826 220.725 63.8247 225.859ZM105.295 70.3441C107.778 69.566 94.5536 80.5054 90.7806 95.2265C87.0077 109.947 98.5393 126.971 105.295 140.844C112.051 154.718 112.05 172.874 102.185 180.241C92.3198 187.609 70.3927 186.558 61.7512 149.138C59.434 139.039 63.1557 129 63.8247 125.293C72.3348 134.485 78.7242 147.493 82.4865 157.432C86.7543 151.687 83.178 141.745 80.413 132.55C77.6479 123.355 74.0791 115.353 70.0454 109.741C77.6512 85.1559 103.186 71.0046 105.295 70.3441Z" fill="#20292D"/>
</svg>
