<svg width="256" height="256" viewBox="0 0 256 256" fill="none" xmlns="http://www.w3.org/2000/svg">
<path fill-rule="evenodd" clip-rule="evenodd" d="M167.716 193.315C176.683 196.684 176.544 212.725 162.339 223.875C148.519 234.735 140.674 235.812 128.383 235.613C116.091 235.812 108.246 234.735 94.4257 223.875C80.2209 212.725 80.082 196.684 89.0495 193.315C46.0504 192.318 33 161.724 33 135.299C33 108.874 57.2625 83.9952 100.849 90.0662C102.773 76.9068 114.424 65.4831 124.449 65.4831V136.282C124.449 136.282 122.386 152.175 107.85 155.082C93.3142 157.989 92.256 150.504 82.1663 147.099C72.0765 143.694 59.9345 146.766 58.5664 166.766C57.1983 186.766 74.6203 192.977 91.0162 191.349C100.817 190.367 110.672 190.039 120.516 190.365C114.701 193.8 105.766 198.238 105.766 211.999C105.766 225.759 118.164 231.442 128.383 231.665C138.601 231.442 150.999 225.759 150.999 211.999C150.999 198.238 142.064 193.8 136.249 190.365C146.093 190.039 155.948 190.367 165.749 191.349C182.145 192.977 199.567 186.766 198.199 166.766C196.83 146.766 184.689 143.694 174.599 147.099C164.509 150.504 163.451 157.989 148.915 155.082C134.379 152.175 132.316 136.282 132.316 136.282V65.4831C142.342 65.4831 153.992 76.9068 155.916 90.0662C199.503 83.9931 223.765 108.878 223.765 135.299C223.765 161.721 210.715 192.318 167.716 193.315ZM153.949 60.5665H101.833C101.833 60.5665 101.694 52.8057 102.816 51.7165C103.938 50.6274 122.483 50.7332 122.483 50.7332V35H133.299V50.7332C133.299 50.7332 151.843 50.6263 152.966 51.7165C154.088 52.8067 153.949 60.5665 153.949 60.5665V60.5665Z" fill="#20292D"/>
</svg>
