<svg width="256" height="256" viewBox="0 0 256 256" fill="none" xmlns="http://www.w3.org/2000/svg">
<path fill-rule="evenodd" clip-rule="evenodd" d="M61.5124 236.438H194.047C195.139 213.565 217.207 194.956 217.562 160.551C217.917 126.145 197.082 71.4208 112.816 73.9753C89.1951 62.7419 77.0468 62.4533 66.8565 63.287C71.2154 71.6742 75.1261 80.2868 78.572 89.0886C81.6096 97.1369 79.6323 106.553 74.1246 116.119C68.6169 125.685 47.4947 154.245 39.3427 179.277C35.745 190.029 61.5915 201.423 64.7189 202.235C66.6321 202.588 63.0333 203.475 74.5072 190.617C85.9811 177.759 95.2992 173.387 110.601 168.289C121.23 164.751 132.438 160.294 142.744 119.935C143.481 117.691 138.148 114.249 137.399 116.729C131.997 126.948 123.854 135.461 113.885 141.312C108.398 144.721 86.0057 149.071 75.4072 163.757C64.8087 178.443 64.612 181.029 63.65 184.065C62.6881 187.1 49.5853 179.576 49.7552 175.514C49.9252 171.453 53.6362 160.679 59.3747 155.206C65.1133 149.734 81.8897 139.42 88.2332 127.417C94.5767 115.414 102.86 100.621 89.302 78.2506C101.254 78.6354 112.647 87.8594 117.092 90.0078C124.421 93.5563 147.737 96.891 157.707 107.109C167.677 117.327 174.785 138.233 152.077 160.839C129.368 183.445 92.3738 180.335 61.5124 236.438Z" fill="#FECEA8" stroke="#9B3240" stroke-width="4" stroke-linecap="square" stroke-linejoin="round"/>
</svg>
