<svg width="256" height="256" viewBox="0 0 256 256" fill="none" xmlns="http://www.w3.org/2000/svg">
<path fill-rule="evenodd" clip-rule="evenodd" d="M60.6356 229.387H193.896C194.993 206.389 217.182 187.679 217.539 153.085C217.896 118.491 196.947 63.4669 112.22 66.0354C88.4699 54.7405 76.2551 54.4503 66.009 55.2885C70.3918 63.7216 74.3239 72.3815 77.7886 81.2314C80.8429 89.3237 78.8547 98.7917 73.3169 108.41C67.779 118.029 46.5401 146.744 38.3446 171.913C34.7272 182.724 60.7141 194.18 63.8597 194.997C65.7823 195.352 62.1649 196.244 73.7016 183.315C85.2383 170.387 94.6074 165.992 109.993 160.865C120.68 157.308 131.949 152.827 142.311 112.247C143.053 109.99 137.69 106.529 136.938 109.023C131.506 119.298 123.319 127.857 113.295 133.74C107.778 137.169 85.262 141.543 74.6065 156.309C63.951 171.075 63.7522 173.676 62.785 176.728C61.8178 179.78 48.6432 172.214 48.8141 168.13C48.985 164.046 52.7163 153.214 58.4863 147.711C64.2562 142.209 81.1244 131.838 87.5027 119.769C93.8809 107.701 102.21 92.8272 88.5774 70.3341C100.594 70.721 112.051 79.9955 116.519 82.1556C123.888 85.7235 147.332 89.0766 157.357 99.3505C167.382 109.624 174.528 130.645 151.696 153.375C128.863 176.104 91.666 172.977 60.6356 229.387Z" fill="#FECEA8" stroke="#9B3240" stroke-width="5.37341" stroke-linecap="square" stroke-linejoin="round"/>
</svg>
