<svg width="256" height="256" viewBox="0 0 256 256" fill="none" xmlns="http://www.w3.org/2000/svg">
<path fill-rule="evenodd" clip-rule="evenodd" d="M61.5124 228.438H194.047C195.139 205.565 217.207 186.956 217.562 152.551C217.917 118.145 197.082 63.4208 112.816 65.9753C89.1951 54.7419 77.0468 54.4533 66.8565 55.287C71.2155 63.6742 75.1261 72.2868 78.572 81.0886C81.6096 89.1369 79.6323 98.5533 74.1246 108.119C68.6169 117.685 47.4946 146.245 39.3427 171.277C35.745 182.029 61.5915 193.423 64.7189 194.235C66.6321 194.588 63.0333 195.475 74.5072 182.617C85.9811 169.759 95.2992 165.387 110.601 160.289C121.23 156.751 132.438 152.294 142.744 111.935C143.481 109.691 138.148 106.249 137.399 108.729C131.997 118.948 123.854 127.461 113.885 133.312C108.398 136.721 86.0057 141.071 75.4072 155.757C64.8087 170.443 64.612 173.029 63.65 176.065C62.6881 179.1 49.5853 171.576 49.7552 167.514C49.9252 163.453 53.6362 152.679 59.3747 147.206C65.1133 141.734 81.8897 131.42 88.2332 119.417C94.5767 107.414 102.86 92.6213 89.302 70.2506C101.254 70.6354 112.647 79.8594 117.092 82.0078C124.421 85.5563 147.737 88.891 157.707 99.1091C167.677 109.327 174.785 130.233 152.077 152.839C129.368 175.445 92.3738 172.335 61.5124 228.438Z" fill="#FECEA8" stroke="#9B3240" stroke-width="4" stroke-linecap="square" stroke-linejoin="round"/>
</svg>
