<svg width="256" height="256" viewBox="0 0 256 256" fill="none" xmlns="http://www.w3.org/2000/svg">
<path fill-rule="evenodd" clip-rule="evenodd" d="M127.759 48.0002C136.528 47.9845 145.28 48.7809 153.903 50.3794C154.908 50.5686 155.682 77.4465 155.682 77.4465L165.836 78.4619C165.836 78.4619 164.836 52.9169 166.739 53.4962C192.789 61.3617 210.513 76.8672 210.513 94.7082C210.326 95.2191 211.205 160.8 211.205 160.8C210.936 164.989 196.584 174.214 173.099 170.144C190.201 155.091 188.585 144.642 190.201 93.6928L185.124 91.662C185.124 91.662 182.772 122.746 182.078 122.124C174.678 115.497 153.993 111.222 132.163 110.789C131.993 110.773 131.308 73.385 131.308 73.385H125.216C125.216 73.385 123.218 110.571 123.225 110.827C103.722 111.392 84.6152 115.15 74.4463 123.139L70.3847 90.6466L65.3078 94.7082L69.3694 145.478C114.278 118.606 176.351 168.045 184.99 236.382C185.246 236.393 71.4001 235.847 71.4001 235.847V171.878C60.4981 171.878 45 165.928 45 158.678V94.7082C45 76.7251 63.0055 61.1169 89.395 53.3102C90.7428 52.9115 90.6925 78.4619 90.6925 78.4619L100.846 76.4311C100.846 76.4311 100.933 50.4949 102.751 50.17C111.007 48.7125 119.375 47.9865 127.759 48.0002Z" fill="#20292D"/>
</svg>
