<svg width="256" height="256" viewBox="0 0 256 256" fill="none" xmlns="http://www.w3.org/2000/svg">
<path fill-rule="evenodd" clip-rule="evenodd" d="M127.759 48.0002C136.528 47.9845 145.28 48.7788 153.903 50.373C154.908 50.5654 155.682 77.4465 155.682 77.4465L165.836 78.4619C165.836 78.4619 164.836 52.9169 166.739 53.494C192.789 61.3606 210.513 76.8693 210.513 94.7081C210.326 95.2212 211.205 160.794 211.205 160.794C210.936 164.984 196.584 174.208 173.099 170.146C190.201 155.087 188.585 144.644 190.201 93.6928L185.124 91.662C185.124 91.662 182.772 122.744 182.078 122.124C174.678 115.486 153.993 111.222 132.163 110.783C131.993 110.773 131.308 73.385 131.308 73.385H125.216C125.216 73.385 123.218 110.57 123.225 110.826C103.722 111.393 84.6152 115.144 74.4463 123.139L70.3847 90.6466L65.3078 94.7081L69.3694 145.478C114.278 118.607 176.351 168.041 184.99 236.382C185.246 236.393 71.4001 235.847 71.4001 235.847V171.878C60.4981 171.878 45 165.924 45 158.678V94.7081C45 76.7197 63.0055 61.1148 89.395 53.3123C90.7428 52.9061 90.6925 78.4619 90.6925 78.4619L100.846 76.4311C100.846 76.4311 100.933 50.4906 102.751 50.17C111.007 48.7119 119.375 47.9858 127.759 48.0002Z" fill="#FECEA8" stroke="#9B3240" stroke-width="4" stroke-linecap="square" stroke-linejoin="round"/>
</svg>
