<svg width="256" height="256" viewBox="0 0 256 256" fill="none" xmlns="http://www.w3.org/2000/svg">
<path fill-rule="evenodd" clip-rule="evenodd" d="M127.759 40.0002C136.528 39.9845 145.28 40.7788 153.903 42.373C154.908 42.5654 155.682 69.4465 155.682 69.4465L165.836 70.4619C165.836 70.4619 164.836 44.9169 166.739 45.494C192.789 53.3606 210.513 68.8693 210.513 86.7081C210.326 87.2212 211.205 152.794 211.205 152.794C210.936 156.984 196.584 166.208 173.099 162.146C190.201 147.087 188.585 136.644 190.201 85.6928L185.124 83.662C185.124 83.662 182.772 114.744 182.078 114.124C174.678 107.486 153.993 103.222 132.163 102.783C131.993 102.773 131.308 65.385 131.308 65.385H125.216C125.216 65.385 123.218 102.57 123.225 102.826C103.722 103.393 84.6152 107.144 74.4463 115.139L70.3847 82.6466L65.3078 86.7081L69.3694 137.478C114.278 110.607 176.351 160.041 184.99 228.382C185.246 228.393 71.4001 227.847 71.4001 227.847V163.878C60.4981 163.878 45 157.924 45 150.678V86.7081C45 68.7197 63.0055 53.1148 89.395 45.3123C90.7428 44.9061 90.6925 70.4619 90.6925 70.4619L100.846 68.4311C100.846 68.4311 100.933 42.4906 102.751 42.17C111.007 40.7119 119.375 39.9858 127.759 40.0002Z" fill="#FECEA8" stroke="#9B3240" stroke-width="4" stroke-linecap="square" stroke-linejoin="round"/>
</svg>
