<svg width="32" height="32" viewBox="0 0 32 32" fill="none" xmlns="http://www.w3.org/2000/svg">
<path d="M5 29.7587V26.1099H7.00276C6.91131 25.9087 6.86559 25.6801 6.86559 25.424C6.86559 24.985 7.02105 24.6101 7.33198 24.2992C7.64291 23.9699 8.01785 23.8053 8.45682 23.8053H9.74626L7.03019 13.6269C6.92045 13.2428 7.06678 12.9685 7.46916 12.8039L14.4925 9.97808C13.9804 9.52083 13.7243 8.95384 13.7243 8.27711C13.7243 7.63696 13.9438 7.0974 14.3828 6.65844C14.8217 6.21948 15.3613 6 16.0014 6C16.6416 6 17.1812 6.21948 17.6201 6.65844C18.0591 7.0974 18.2785 7.63696 18.2785 8.27711C18.2785 8.95384 18.0225 9.52083 17.5104 9.97808L24.5337 12.8039C24.9544 12.9685 25.1099 13.2428 25.0001 13.6269L22.2841 23.8053H23.5461C24.0033 23.8053 24.3874 23.9608 24.6983 24.2717C25.0093 24.5827 25.1647 24.9667 25.1647 25.424C25.1647 25.6801 25.1099 25.9087 25.0001 26.1099H27.0303V29.7587H5ZM8.92321 26.1099C8.61228 26.1099 8.45682 26.2653 8.45682 26.5763C8.45682 26.8872 8.61228 27.0427 8.92321 27.0427H23.0797C23.3906 27.0427 23.5461 26.8872 23.5461 26.5763C23.5461 26.2653 23.3906 26.1099 23.0797 26.1099H8.92321ZM16.9068 23.8053V16.7271H19.6777V14.9164H16.9068V12.1729H15.2058V14.9164H12.3526V16.7271H15.2058V23.8053H16.9068Z" fill="black"/>
<path d="M8.92318 26.1099C8.61225 26.1099 8.45679 26.2653 8.45679 26.5763C8.45679 26.8872 8.61225 27.0427 8.92318 27.0427H23.0797C23.3906 27.0427 23.546 26.8872 23.546 26.5763C23.546 26.2653 23.3906 26.1099 23.0797 26.1099H8.92318ZM16.9068 23.8053V16.7271H19.6777V14.9164H16.9068V12.1729H15.2058V14.9164H12.3526V16.7271H15.2058V23.8053H16.9068Z" fill="white"/>
</svg>
