<svg width="32" height="32" viewBox="0 0 32 32" fill="none" xmlns="http://www.w3.org/2000/svg">
<path d="M23.793 24.162C24.6892 24.3083 25.1373 24.8479 25.1373 25.7806C25.1373 26.0184 25.0916 26.247 25.0001 26.4665H26.9754V30.1154H5V26.4665H7.00276C6.91131 26.2653 6.86559 26.0367 6.86559 25.7806C6.86559 25.3417 7.02105 24.9667 7.33198 24.6558C7.64291 24.3266 8.01785 24.162 8.45681 24.162H10.295C10.8437 22.1318 11.877 20.6229 13.3951 19.6352C14.0536 19.0682 14.5748 18.6018 14.9589 18.236C15.5991 17.5959 16.038 17.0563 16.2758 16.6174C15.2881 17.2392 14.4194 17.8428 13.6695 18.4281C12.8647 19.0499 12.1331 19.8181 11.4747 20.7326C11.0174 21.3728 10.4047 21.6928 9.63652 21.6928C9.50849 21.6928 9.37131 21.6837 9.22499 21.6654C9.17012 21.5557 9.05124 21.4185 8.86834 21.2539C8.74031 21.3087 8.54827 21.327 8.29221 21.3087C7.56061 20.9064 7.1125 20.6137 6.94789 20.4308C6.67354 20.1199 6.52722 19.6169 6.50893 18.9219C6.49064 18.0806 6.7467 17.2484 7.27711 16.4253C7.6612 15.8217 8.42023 14.4774 9.55421 12.3924C10.5053 10.6365 11.2918 9.35622 11.9136 8.55146C11.7673 7.89302 11.7033 7.28945 11.7216 6.74075C12.1971 6.99681 12.6727 7.32603 13.1482 7.72841C13.1665 7.71012 13.2031 7.69183 13.2579 7.67354C13.6786 7.50893 14.1359 7.3626 14.6297 7.23457C14.5931 7.08825 14.584 6.89621 14.6023 6.65844L14.6297 6C15.1601 6.29264 15.6905 6.65844 16.2209 7.0974C17.6293 7.17056 19.0833 7.86558 20.5831 9.18246C21.7354 10.4811 22.6133 12.1729 23.2169 14.2579C23.7473 16.0869 24.0125 17.9982 24.0125 19.9919C24.0125 21.9855 23.9393 23.3755 23.793 24.162V24.162ZM12.5995 11.8985L12.3252 12.3649C12.1788 12.5478 12.0234 12.7033 11.8588 12.8313L11.7216 12.6393C11.5936 12.2003 11.7307 11.926 12.1331 11.8162C12.2977 11.7796 12.4532 11.8071 12.5995 11.8985V11.8985ZM11.5021 11.5967C11.2095 12.0174 11.0631 12.3558 11.0631 12.6118C11.0631 12.9593 11.2277 13.1331 11.557 13.1331C11.8313 13.1331 12.1605 12.8679 12.5446 12.3375C12.8373 11.9351 12.9836 11.5967 12.9836 11.3224C12.9836 10.9749 12.819 10.8011 12.4898 10.8011C12.1971 10.8011 11.8679 11.0663 11.5021 11.5967ZM10.048 20.3211C10.5419 19.5712 10.9717 19.0591 11.3375 18.7847C11.3375 18.4372 11.2735 18.236 11.1454 18.1811C10.7796 18.0165 10.1761 18.5835 9.33473 19.8821C9.09696 20.2296 9.10611 20.4765 9.36217 20.6229C9.59994 20.7509 9.82856 20.6503 10.048 20.3211V20.3211ZM8.95064 18.8945C8.95064 18.5287 8.76774 18.3458 8.40194 18.3458C8.21904 18.3458 8.00871 18.4464 7.77094 18.6475C7.55146 18.8487 7.44172 19.0408 7.44172 19.2237C7.44172 19.3517 7.49659 19.4706 7.60633 19.5803C7.71607 19.562 7.86239 19.5895 8.04529 19.6626C8.08187 19.7541 8.13674 19.7998 8.2099 19.7998C8.28306 19.7998 8.40195 19.7267 8.56656 19.5803C8.82262 19.3243 8.95064 19.0956 8.95064 18.8945ZM8.92321 26.4665C8.61228 26.4665 8.45681 26.622 8.45681 26.9329C8.45681 27.2256 8.61228 27.3719 8.92321 27.3719H23.0797C23.3906 27.3719 23.5461 27.2256 23.5461 26.9329C23.5461 26.622 23.3906 26.4665 23.0797 26.4665H8.92321Z" fill="black"/>
<path d="M12.5995 11.8985L12.3251 12.3649C12.1788 12.5478 12.0234 12.7033 11.8587 12.8313L11.7216 12.6393C11.5935 12.2003 11.7307 11.926 12.1331 11.8162C12.2977 11.7796 12.4532 11.8071 12.5995 11.8985ZM11.5021 11.5967C11.2095 12.0174 11.0631 12.3558 11.0631 12.6118C11.0631 12.9594 11.2277 13.1331 11.557 13.1331C11.8313 13.1331 12.1605 12.8679 12.5446 12.3375C12.8373 11.9351 12.9836 11.5967 12.9836 11.3224C12.9836 10.9749 12.819 10.8011 12.4898 10.8011C12.1971 10.8011 11.8679 11.0663 11.5021 11.5967ZM10.048 20.3211C10.5419 19.5712 10.9717 19.0591 11.3375 18.7847C11.3375 18.4372 11.2735 18.236 11.1454 18.1812C10.7796 18.0165 10.1761 18.5835 9.33473 19.8821C9.09696 20.2296 9.1061 20.4765 9.36216 20.6229C9.59993 20.7509 9.82856 20.6503 10.048 20.3211ZM8.95064 18.8945C8.95064 18.5287 8.76773 18.3458 8.40193 18.3458C8.21903 18.3458 8.0087 18.4464 7.77093 18.6475C7.55145 18.8487 7.44171 19.0408 7.44171 19.2237C7.44171 19.3517 7.49658 19.4706 7.60632 19.5803C7.71606 19.562 7.86238 19.5895 8.04528 19.6626C8.08186 19.7541 8.13673 19.7998 8.20989 19.7998C8.28305 19.7998 8.40194 19.7267 8.56655 19.5803C8.82261 19.3243 8.95064 19.0957 8.95064 18.8945ZM8.9232 26.4665C8.61227 26.4665 8.45681 26.622 8.45681 26.9329C8.45681 27.2256 8.61227 27.3719 8.9232 27.3719H23.0797C23.3906 27.3719 23.5461 27.2256 23.5461 26.9329C23.5461 26.622 23.3906 26.4665 23.0797 26.4665H8.9232Z" fill="white"/>
</svg>
