<svg width="32" height="32" viewBox="0 0 32 32" fill="none" xmlns="http://www.w3.org/2000/svg">
<path d="M26.0701 29.5091V27.6709H5.96024V29.5091H26.0701ZM23.5735 26.7655C24.0308 26.7655 24.2594 26.5369 24.2594 26.0797C24.2594 25.6224 24.0308 25.3938 23.5735 25.3938H8.45682C7.99956 25.3938 7.77095 25.6224 7.77095 26.0797C7.77095 26.5369 7.99956 26.7655 8.45682 26.7655H23.5735ZM16.0015 12.9109C16.477 12.9109 16.8977 12.7554 17.2635 12.4445C17.6293 12.1335 17.8122 11.7403 17.8122 11.2648C17.8122 10.8075 17.6293 10.4234 17.2635 10.1125C16.8977 9.80157 16.477 9.6461 16.0015 9.6461C15.5259 9.6461 15.1052 9.80157 14.7394 10.1125C14.3736 10.4051 14.1907 10.7892 14.1907 11.2648C14.1907 11.7403 14.3645 12.1335 14.712 12.4445C15.0778 12.7554 15.5076 12.9109 16.0015 12.9109V12.9109ZM16.6599 13.6516C16.477 13.7065 16.2575 13.7339 16.0015 13.7339C15.7637 13.7339 15.5442 13.7065 15.343 13.6516C15.0321 15.6086 14.3828 17.5565 13.3951 19.4953C12.4075 21.434 11.2095 23.0893 9.80114 24.461H22.2292C20.8392 23.1075 19.6412 21.4432 18.6352 19.4678C17.6476 17.5474 16.9891 15.6086 16.6599 13.6516V13.6516ZM16.6599 8.87792C17.2452 9.02424 17.739 9.31688 18.1414 9.75584C18.5438 10.1948 18.7449 10.6978 18.7449 11.2648C18.7449 12.1427 18.3243 12.8286 17.483 13.3224C17.7573 15.0965 18.3426 16.8981 19.2388 18.7271C20.3911 21.0865 21.836 22.9978 23.5735 24.461C24.0125 24.461 24.3874 24.6256 24.6984 24.9548C25.0093 25.2658 25.1648 25.6407 25.1648 26.0797C25.1648 26.3357 25.1099 26.5644 25.0001 26.7655H27.0303V30.4144H5V26.7655H7.00277C6.91132 26.5644 6.86559 26.3357 6.86559 26.0797C6.86559 25.6407 7.02106 25.2658 7.33199 24.9548C7.64292 24.6256 8.01785 24.461 8.45682 24.461C10.1944 22.9978 11.6393 21.0865 12.7916 18.7271C13.6695 16.9347 14.2456 15.1331 14.52 13.3224C13.6786 12.8469 13.258 12.161 13.258 11.2648C13.258 10.6795 13.4591 10.1765 13.8615 9.75584C14.2639 9.31688 14.7577 9.02424 15.343 8.87792C15.3247 8.82305 15.3156 8.75903 15.3156 8.68587C15.3156 8.22862 15.5442 8 16.0015 8C16.4587 8 16.6873 8.22862 16.6873 8.68587C16.6873 8.75903 16.6782 8.82305 16.6599 8.87792V8.87792Z" fill="black"/>
<path d="M26.0701 29.509V27.6709H5.96027V29.509H26.0701ZM23.5735 26.7655C24.0308 26.7655 24.2594 26.5369 24.2594 26.0797C24.2594 25.6224 24.0308 25.3938 23.5735 25.3938H8.45684C7.99959 25.3938 7.77098 25.6224 7.77098 26.0797C7.77098 26.5369 7.99959 26.7655 8.45684 26.7655H23.5735ZM16.0015 12.9109C16.477 12.9109 16.8977 12.7554 17.2635 12.4445C17.6293 12.1335 17.8122 11.7403 17.8122 11.2648C17.8122 10.8075 17.6293 10.4234 17.2635 10.1125C16.8977 9.80155 16.477 9.64609 16.0015 9.64609C15.5259 9.64609 15.1053 9.80155 14.7395 10.1125C14.3737 10.4051 14.1908 10.7892 14.1908 11.2648C14.1908 11.7403 14.3645 12.1335 14.712 12.4445C15.0778 12.7554 15.5077 12.9109 16.0015 12.9109ZM16.6599 13.6516C16.477 13.7065 16.2575 13.7339 16.0015 13.7339C15.7637 13.7339 15.5442 13.7065 15.343 13.6516C15.0321 15.6086 14.3828 17.5565 13.3952 19.4953C12.4075 21.434 11.2095 23.0892 9.80117 24.461H22.2292C20.8392 23.1075 19.6412 21.4431 18.6352 19.4678C17.6476 17.5474 16.9891 15.6086 16.6599 13.6516Z" fill="white"/>
</svg>
