<svg width="32" height="32" viewBox="0 0 32 32" fill="none" xmlns="http://www.w3.org/2000/svg">
<path d="M4.90536 29.7587V26.1099H6.90812C6.81667 25.9087 6.77094 25.6801 6.77094 25.424C6.77094 24.985 6.9264 24.6101 7.23733 24.2992C7.54826 23.9699 7.92321 23.8053 8.36217 23.8053L6.27711 18.1263C6.09421 18.1811 5.94789 18.2086 5.83815 18.2086C5.32603 18.2086 4.88707 18.0348 4.52127 17.6873C4.17376 17.3215 4 16.8826 4 16.3704C4 15.8583 4.17376 15.4194 4.52127 15.0536C4.88707 14.6878 5.32603 14.5049 5.83815 14.5049C6.35027 14.5049 6.78008 14.6878 7.12759 15.0536C7.49339 15.4194 7.67629 15.8583 7.67629 16.3704C7.67629 16.7179 7.5757 17.038 7.37451 17.3307L10.8862 19.3609L14.4253 11.048C13.584 10.5176 13.1633 9.74945 13.1633 8.7435C13.1633 7.97532 13.4285 7.32603 13.9589 6.79562C14.4893 6.26521 15.1386 6 15.9068 6C16.675 6 17.3243 6.26521 17.8547 6.79562C18.4034 7.32603 18.6777 7.97532 18.6777 8.7435C18.6777 9.74945 18.2571 10.5176 17.4157 11.048L20.9274 19.3609L24.4391 17.3307C24.2562 17.0197 24.1647 16.6997 24.1647 16.3704C24.1647 15.8583 24.3385 15.4194 24.686 15.0536C25.0518 14.6878 25.4908 14.5049 26.0029 14.5049C26.515 14.5049 26.9448 14.6878 27.2923 15.0536C27.6581 15.4194 27.841 15.8583 27.841 16.3704C27.841 16.8826 27.6581 17.3215 27.2923 17.6873C26.9448 18.0348 26.515 18.2086 26.0029 18.2086C25.8749 18.2086 25.7194 18.1811 25.5365 18.1263L23.4514 23.8053C23.9087 23.8053 24.2836 23.9608 24.5763 24.2717C24.8872 24.5827 25.0427 24.9667 25.0427 25.424C25.0427 25.6801 24.9969 25.9087 24.9055 26.1099H26.9082V29.7587H4.90536ZM8.82857 26.1099C8.51764 26.1099 8.36217 26.2653 8.36217 26.5763C8.36217 26.8872 8.51764 27.0427 8.82857 27.0427H22.985C23.296 27.0427 23.4514 26.8872 23.4514 26.5763C23.4514 26.2653 23.296 26.1099 22.985 26.1099H8.82857Z" fill="black"/>
<path d="M8.82852 26.1099C8.51759 26.1099 8.36212 26.2653 8.36212 26.5763C8.36212 26.8872 8.51759 27.0427 8.82852 27.0427H22.985C23.2959 27.0427 23.4514 26.8872 23.4514 26.5763C23.4514 26.2653 23.2959 26.1099 22.985 26.1099H8.82852Z" fill="white"/>
</svg>
