<svg width="32" height="32" viewBox="0 0 32 32" fill="none" xmlns="http://www.w3.org/2000/svg">
<path d="M24.2319 14.2305V6.90536H21.7079V11.487H17.3732V6.90536H14.6297V11.487H10.295V6.90536H7.77094V14.2305H24.2319ZM23.5461 26.1099C24.0033 26.1099 24.2319 25.8812 24.2319 25.424C24.2319 24.9667 24.0033 24.7381 23.5461 24.7381H8.45681C7.99956 24.7381 7.77094 24.9667 7.77094 25.424C7.77094 25.8812 7.99956 26.1099 8.45681 26.1099H23.5461ZM26.0427 28.8534V27.0152H5.96023V28.8534H26.0427ZM5 29.7587V26.1099H7.00276C6.91131 25.9087 6.86558 25.6801 6.86558 25.424C6.86558 24.9667 7.0119 24.5827 7.30454 24.2717C7.61547 23.9608 7.99956 23.8053 8.45681 23.8053L9.99317 15.1359H6.86558V6H11.2003V10.5542H13.7243V6H18.2785V10.5542H20.8026V6H25.1373V15.1359H22.0097L23.5461 23.8053C23.985 23.8053 24.36 23.9699 24.6709 24.2992C24.9818 24.6101 25.1373 24.985 25.1373 25.424C25.1373 25.6801 25.0824 25.9087 24.9727 26.1099H27.0029V29.7587H5ZM22.5584 23.8053L21.022 15.1359H10.9534L9.41704 23.8053H22.5584Z" fill="black"/>
<path d="M24.2319 14.2305V6.90535H21.7079V11.487H17.3732V6.90535H14.6297V11.487H10.2949V6.90535H7.77092V14.2305H24.2319ZM23.5461 26.1099C24.0033 26.1099 24.2319 25.8812 24.2319 25.424C24.2319 24.9667 24.0033 24.7381 23.5461 24.7381H8.45679C7.99954 24.7381 7.77092 24.9667 7.77092 25.424C7.77092 25.8812 7.99954 26.1099 8.45679 26.1099H23.5461ZM26.0426 28.8534V27.0152H5.96021V28.8534H26.0426ZM22.5584 23.8053L21.022 15.1359H10.9534L9.41702 23.8053H22.5584Z" fill="white"/>
</svg>
