<svg width="32" height="32" viewBox="0 0 32 32" fill="none" xmlns="http://www.w3.org/2000/svg">
<path d="M15.0593 5.23636C15.9557 4.90021 16.8633 4.92261 17.7821 5.30358C18.2079 5.43804 18.6001 5.67335 18.9587 6.0095C19.3396 6.32324 19.6198 6.69301 19.799 7.1188C19.9111 7.29808 19.9895 7.49977 20.0343 7.72387C20.0792 7.92556 20.1128 8.13844 20.1352 8.36254C20.18 8.56423 20.2248 8.76593 20.2696 8.96762C20.3369 9.16931 20.4377 9.37099 20.5722 9.57268C20.5722 9.6175 20.6058 9.65112 20.673 9.67353C20.7627 9.69594 20.8411 9.71836 20.9083 9.74077C22.0512 10.301 23.0821 10.9621 24.0009 11.7241C24.9197 12.486 25.7377 13.3152 26.4548 14.2116C26.7685 14.5925 27.0711 15.0183 27.3624 15.4889C27.6537 15.9371 27.8666 16.3965 28.0011 16.8671C28.1804 17.7187 28.1355 18.5031 27.8666 19.2202C27.6649 19.6236 27.3512 19.9261 26.9254 20.1278C26.4996 20.3071 26.0738 20.4527 25.648 20.5648C25.6704 20.7889 25.6929 21.0242 25.7153 21.2707C25.7601 21.5172 25.8721 21.7301 26.0514 21.9094C26.3652 22.2679 26.7125 22.5593 27.0935 22.7834C27.4745 22.9851 27.8106 23.254 28.1019 23.5901C28.2812 23.7694 28.3821 24.0047 28.4045 24.296C28.4493 24.565 28.4717 24.8227 28.4717 25.0692C28.4941 26.3017 28.4941 27.5343 28.4717 28.7668H4V25.1364C4 24.8675 4.02241 24.565 4.06723 24.2288C4.13446 23.8927 4.30253 23.6013 4.57145 23.3548C4.84037 23.1083 5.16532 22.8618 5.54629 22.6153C5.94967 22.3688 6.27461 22.0774 6.52112 21.7413C6.58835 21.562 6.61076 21.3715 6.58835 21.1698C6.58835 20.9457 6.59956 20.7216 6.62197 20.4975C6.30823 20.3855 5.99449 20.2735 5.68075 20.1614C5.38942 20.0494 5.1205 19.8701 4.87399 19.6236C4.58266 19.265 4.43699 18.8728 4.43699 18.447C4.43699 17.9988 4.4594 17.5842 4.50422 17.2033C4.57145 16.6878 4.72832 16.206 4.97483 15.7578C5.24375 15.2872 5.53508 14.839 5.84882 14.4132C6.56594 13.5168 7.3615 12.6877 8.23549 11.9257C9.10947 11.1414 10.0843 10.4691 11.16 9.90884C11.3393 9.8192 11.4961 9.75197 11.6306 9.70715C11.7651 9.66233 11.8883 9.5951 12.0004 9.50546C12.1348 9.32618 12.2245 9.1469 12.2693 8.96762C12.3141 8.76593 12.3477 8.56423 12.3701 8.36254C12.3925 8.16085 12.4149 7.97038 12.4374 7.7911C12.4598 7.58941 12.5046 7.39892 12.5718 7.21964C12.7959 6.70421 13.1209 6.27842 13.5466 5.94227C13.9724 5.58371 14.4767 5.34841 15.0593 5.23636V5.23636ZM12.7735 10.7828C13.1545 11.2086 13.6139 11.5784 14.1517 11.8921C14.712 12.1834 15.317 12.3403 15.9669 12.3627C16.7289 12.43 17.4684 12.2955 18.1855 11.9594C18.9026 11.6232 19.4517 11.175 19.8326 10.6147C19.9223 10.5027 19.9335 10.3906 19.8663 10.2786C19.799 10.1665 19.743 10.0545 19.6982 9.94245C19.362 10.5251 18.869 10.9957 18.2191 11.3543C17.5692 11.7128 16.8745 11.8697 16.135 11.8249C15.4179 11.8025 14.7568 11.612 14.1517 11.2534C13.5691 10.8949 13.1209 10.4579 12.8071 9.94245C12.7399 10.0769 12.6839 10.2226 12.639 10.3794C12.5942 10.5363 12.639 10.6708 12.7735 10.7828V10.7828ZM15.5635 13.5392V15.5225H13.1433V16.8335H15.5635V19.5563H17.009V16.8335H19.3957C19.3957 16.6094 19.3957 16.3853 19.3957 16.1612C19.3957 15.9371 19.3844 15.7242 19.362 15.5225H17.009V13.5392H15.5635ZM7.69765 20.6656C7.69765 20.7104 7.69765 20.8001 7.69765 20.9345C7.72006 21.069 7.75367 21.1811 7.79849 21.2707C8.98622 21.3155 10.1852 21.3267 11.3953 21.3043C12.6278 21.2595 13.8604 21.2595 15.0929 21.3043C16.2583 21.3267 17.4348 21.3379 18.6225 21.3379C19.8326 21.3155 21.0764 21.3155 22.3538 21.3379C22.6899 21.3155 23.0485 21.3155 23.4294 21.3379C23.8328 21.3379 24.225 21.3043 24.606 21.2371C24.6284 21.1698 24.6508 21.069 24.6732 20.9345C24.6956 20.8001 24.7068 20.7104 24.7068 20.6656C24.4379 20.688 24.1802 20.6992 23.9337 20.6992C23.6872 20.6992 23.4407 20.7104 23.1941 20.7328C20.9531 20.7328 18.7346 20.7328 16.5384 20.7328C14.3422 20.7104 12.1124 20.7104 9.849 20.7328C9.51285 20.7328 9.15429 20.7328 8.77332 20.7328C8.41477 20.7104 8.05621 20.688 7.69765 20.6656V20.6656ZM13.9164 25.7079C14.2974 26.0664 14.6784 26.4138 15.0593 26.7499C15.4627 27.0637 15.8661 27.3774 16.2695 27.6911C16.6504 27.3774 17.0426 27.0525 17.446 26.7163C17.8494 26.3802 18.2415 26.0328 18.6225 25.6742C18.2415 25.3381 17.8494 25.0019 17.446 24.6658C17.065 24.3072 16.6728 23.9711 16.2695 23.6573C15.5299 24.3521 14.7456 25.0356 13.9164 25.7079ZM4.97483 25.1364V25.9432H13.3113C13.1321 25.8311 13.0312 25.7527 13.0088 25.7079C13.1209 25.6182 13.2329 25.5286 13.345 25.4389C13.457 25.3269 13.5579 25.226 13.6475 25.1364H4.97483ZM18.925 25.1364C19.0147 25.226 19.1043 25.3157 19.194 25.4053C19.2836 25.495 19.3844 25.5846 19.4965 25.6742C19.4293 25.7639 19.3396 25.8535 19.2276 25.9432C20.617 25.9656 21.9952 25.9768 23.3622 25.9768C24.7292 25.9544 26.0962 25.9432 27.4632 25.9432V25.1364H18.925Z" fill="black"/>
<path d="M12.7735 10.7828C13.1545 11.2086 13.6139 11.5784 14.1517 11.8921C14.712 12.1835 15.3171 12.3403 15.9669 12.3627C16.7289 12.43 17.4684 12.2955 18.1855 11.9594C18.9027 11.6232 19.4517 11.175 19.8327 10.6148C19.9223 10.5027 19.9335 10.3906 19.8663 10.2786C19.7991 10.1665 19.743 10.0545 19.6982 9.94246C19.3621 10.5251 18.869 10.9957 18.2191 11.3543C17.5693 11.7128 16.8745 11.8697 16.135 11.8249C15.4179 11.8025 14.7568 11.612 14.1517 11.2534C13.5691 10.8949 13.1209 10.4579 12.8071 9.94246C12.7399 10.0769 12.6839 10.2226 12.6391 10.3794C12.5942 10.5363 12.6391 10.6708 12.7735 10.7828ZM15.5636 13.5393V15.5225H13.1433V16.8335H15.5636V19.5563H17.009V16.8335H19.3957C19.3957 16.6094 19.3957 16.3853 19.3957 16.1612C19.3957 15.9371 19.3845 15.7242 19.3621 15.5225H17.009V13.5393H15.5636ZM7.69767 20.6656C7.69767 20.7104 7.69767 20.8001 7.69767 20.9345C7.72008 21.069 7.75369 21.1811 7.79851 21.2707C8.98624 21.3155 10.1852 21.3267 11.3953 21.3043C12.6279 21.2595 13.8604 21.2595 15.093 21.3043C16.2583 21.3267 17.4348 21.3379 18.6225 21.3379C19.8327 21.3155 21.0764 21.3155 22.3538 21.3379C22.6899 21.3155 23.0485 21.3155 23.4295 21.3379C23.8328 21.3379 24.225 21.3043 24.606 21.2371C24.6284 21.1698 24.6508 21.069 24.6732 20.9345C24.6956 20.8001 24.7068 20.7104 24.7068 20.6656C24.4379 20.688 24.1802 20.6992 23.9337 20.6992C23.6872 20.6992 23.4407 20.7104 23.1942 20.7329C20.9532 20.7329 18.7346 20.7329 16.5384 20.7329C14.3422 20.7104 12.1124 20.7104 9.84902 20.7329C9.51287 20.7329 9.15431 20.7329 8.77334 20.7329C8.41478 20.7104 8.05623 20.688 7.69767 20.6656ZM13.9164 25.7079C14.2974 26.0664 14.6784 26.4138 15.0593 26.7499C15.4627 27.0637 15.8661 27.3774 16.2695 27.6912C16.6504 27.3774 17.0426 27.0525 17.446 26.7163C17.8494 26.3802 18.2416 26.0328 18.6225 25.6743C18.2416 25.3381 17.8494 25.002 17.446 24.6658C17.065 24.3072 16.6729 23.9711 16.2695 23.6574C15.53 24.3521 14.7456 25.0356 13.9164 25.7079ZM4.97485 25.1364V25.9432H13.3114C13.1321 25.8311 13.0312 25.7527 13.0088 25.7079C13.1209 25.6182 13.2329 25.5286 13.345 25.4389C13.457 25.3269 13.5579 25.2261 13.6475 25.1364H4.97485ZM18.9251 25.1364C19.0147 25.2261 19.1043 25.3157 19.194 25.4053C19.2836 25.495 19.3845 25.5846 19.4965 25.6743C19.4293 25.7639 19.3396 25.8535 19.2276 25.9432C20.617 25.9656 21.9952 25.9768 23.3622 25.9768C24.7292 25.9544 26.0963 25.9432 27.4633 25.9432V25.1364H18.9251Z" fill="#EEEEEE"/>
</svg>
