<svg width="32" height="32" viewBox="0 0 32 32" fill="none" xmlns="http://www.w3.org/2000/svg">
<path d="M27.1944 17.8745C26.9255 18.3227 26.623 18.7485 26.2868 19.1519C25.9507 19.5553 25.6593 19.9475 25.4128 20.3284C25.256 20.5973 25.2335 20.8663 25.3456 21.1352C25.4801 21.3817 25.6145 21.6282 25.749 21.8747C25.8834 22.0988 26.0515 22.2893 26.2532 22.4462C26.4773 22.603 26.7014 22.7599 26.9255 22.9168C27.1496 23.0512 27.3625 23.1969 27.5642 23.3538C27.7883 23.5106 27.9788 23.6899 28.1356 23.8916C28.2477 24.0709 28.3149 24.2838 28.3373 24.5303C28.3597 24.7768 28.3821 24.9897 28.4046 25.169C28.4046 25.8413 28.3933 26.4912 28.3709 27.1186C28.3709 27.7237 28.3821 28.3176 28.4046 28.9002C24.1467 28.9002 19.9 28.9114 15.6645 28.9338C11.4514 28.9338 7.21592 28.9114 2.95803 28.8666C2.95803 28.1719 2.94682 27.4548 2.92441 26.7153C2.92441 25.9533 3.00285 25.1802 3.15972 24.3958C3.20454 24.0373 3.38382 23.7235 3.69756 23.4546C4.0113 23.1857 4.33624 22.9504 4.67239 22.7487C5.03095 22.5694 5.33348 22.3229 5.57999 22.0092C5.8265 21.673 6.0394 21.3257 6.21868 20.9671C6.15145 20.7878 6.02819 20.6198 5.84891 20.4629C5.69204 20.306 5.55758 20.1716 5.44553 20.0595C4.9301 19.3424 4.42588 18.6029 3.93286 17.8409C3.43984 17.079 3.02526 16.2946 2.68911 15.4879C2.46501 14.9724 2.28573 14.457 2.15127 13.9416C2.01681 13.4262 1.97199 12.8883 2.01681 12.3281C2.03922 11.4541 2.35296 10.6473 2.95803 9.90778C3.58551 9.16825 4.39227 8.67523 5.3783 8.42872C5.89373 8.33908 6.40916 8.32788 6.92459 8.39511C7.44002 8.43993 7.91063 8.57439 8.33642 8.79849C9.21041 9.17946 9.92753 9.7173 10.4878 10.412C11.048 11.1067 11.485 11.835 11.7988 12.597C11.8884 12.4177 12.0229 12.2384 12.2021 12.0591C12.4038 11.8575 12.6279 11.7118 12.8744 11.6221C13.0537 11.5325 13.2554 11.4653 13.4795 11.4205C13.7036 11.3532 13.9277 11.2972 14.1518 11.2524V9.57163H11.9332V7.31943H14.1182C14.1406 6.93846 14.1518 6.55749 14.1518 6.17652C14.1518 5.77314 14.1518 5.38097 14.1518 5H16.9419C16.9643 5.40338 16.9755 5.79555 16.9755 6.17652C16.9755 6.55749 16.9755 6.93846 16.9755 7.31943H19.0596V9.57163H16.9755V11.2524C17.222 11.3196 17.4685 11.3868 17.715 11.4541C17.9615 11.4989 18.1856 11.5773 18.3873 11.6894C18.589 11.8014 18.7571 11.9359 18.8915 12.0928C19.026 12.2496 19.1941 12.4177 19.3957 12.597C19.6423 11.8799 19.9896 11.2188 20.4378 10.6137C20.886 10.0086 21.4687 9.50441 22.1858 9.10103C22.7684 8.72006 23.4407 8.47355 24.2027 8.3615C24.9646 8.22704 25.6817 8.31667 26.354 8.63041C27.228 8.96656 27.8891 9.5044 28.3373 10.2439C28.8079 10.9835 29.0656 11.7678 29.1105 12.597C29.0208 13.5382 28.7967 14.457 28.4382 15.3534C28.102 16.2498 27.6874 17.0902 27.1944 17.8745ZM6.92459 20.2948C7.03664 20.3844 7.10387 20.4965 7.12628 20.631C7.14869 20.743 7.18231 20.8326 7.22713 20.8999C12.8744 20.9447 18.4881 20.9447 24.0682 20.8999C24.113 20.8326 24.1355 20.743 24.1355 20.631C24.1579 20.4965 24.1691 20.3844 24.1691 20.2948H6.92459ZM3.93286 14.4794C4.20178 15.2189 4.54913 15.9473 4.97492 16.6644C5.42312 17.3591 5.88253 18.0314 6.35314 18.6813C6.10663 17.8969 5.86012 17.1126 5.61361 16.3282C5.38951 15.5439 5.21023 14.7483 5.07577 13.9416C5.07577 13.6278 5.08697 13.2917 5.10938 12.9331C5.13179 12.5746 5.25505 12.2272 5.47915 11.8911C5.65843 11.6221 5.91614 11.4205 6.25229 11.286C6.58844 11.1515 6.91339 11.0955 7.22713 11.1179C7.67533 11.1179 8.10112 11.1964 8.50449 11.3532C8.93028 11.5101 9.35607 11.6446 9.78186 11.7566C9.49053 11.4429 9.1992 11.1515 8.90787 10.8826C8.61654 10.6137 8.2804 10.3896 7.89943 10.2103C7.58569 10.0759 7.26074 10.0198 6.92459 10.0422C6.61085 10.0647 6.2635 10.0759 5.88253 10.0759C5.43433 10.1207 5.01974 10.2775 4.63878 10.5465C4.25781 10.793 4.00009 11.1291 3.86563 11.5549C3.68635 12.0703 3.61912 12.5634 3.66394 13.034C3.73117 13.5046 3.82081 13.9864 3.93286 14.4794V14.4794ZM12.9081 26.043C12.8632 25.8637 12.9081 25.7068 13.0425 25.5724C11.4514 25.5948 9.88271 25.606 8.33642 25.606C6.79013 25.5836 5.24384 25.5836 3.69756 25.606C3.67515 25.718 3.66394 25.8637 3.66394 26.043C5.21023 26.043 6.74531 26.043 8.26919 26.043C9.81548 26.0206 11.3618 26.0206 12.9081 26.043V26.043ZM16.1351 27.8918C16.5385 27.5781 16.9419 27.2531 17.3452 26.917C17.771 26.5584 18.1856 26.1886 18.589 25.8077C18.1856 25.4043 17.771 25.0345 17.3452 24.6984C16.9419 24.3398 16.5385 24.0037 16.1351 23.6899C15.2835 24.3622 14.4768 25.0681 13.7148 25.8077C14.1182 26.1886 14.5104 26.5584 14.8913 26.917C15.2947 27.2531 15.7093 27.5781 16.1351 27.8918ZM27.4297 25.606C26.0851 25.5836 24.7405 25.5836 23.3959 25.606C22.0513 25.606 20.7179 25.5948 19.3957 25.5724C19.4406 25.7292 19.4406 25.8861 19.3957 26.043C20.7179 26.0206 22.0513 26.0206 23.3959 26.043C24.7405 26.043 26.0851 26.043 27.4297 26.043V25.606ZM24.7405 18.6813C25.0318 18.3227 25.2896 17.953 25.5137 17.572C25.7602 17.1686 25.9955 16.7764 26.2196 16.3955C26.6006 15.7904 26.9143 15.1517 27.1608 14.4794C27.4297 13.7847 27.5194 13.0676 27.4297 12.3281C27.3625 12.0367 27.2728 11.7342 27.1608 11.4205C27.0712 11.1067 26.8471 10.8266 26.4885 10.5801C26.1075 10.2663 25.6481 10.0871 25.1103 10.0422C24.5724 9.99742 24.0458 10.0198 23.5304 10.1095C23.0598 10.2439 22.6452 10.468 22.2866 10.7818C21.9505 11.0955 21.6255 11.4205 21.3118 11.7566C21.8048 11.5997 22.309 11.4317 22.8245 11.2524C23.3623 11.0731 23.9338 11.0283 24.5388 11.1179C24.7853 11.1627 24.9982 11.2636 25.1775 11.4205C25.3568 11.5549 25.48 11.7118 25.5473 11.8911C25.7714 12.2496 25.8834 12.6194 25.8834 13.0004C25.8834 13.3813 25.861 13.7623 25.8162 14.1433C25.7714 14.8828 25.6369 15.6447 25.4128 16.4291C25.1887 17.191 24.9646 17.9418 24.7405 18.6813V18.6813Z" fill="black"/>
<path d="M6.92455 20.2948C7.0366 20.3844 7.10383 20.4965 7.12624 20.6309C7.14865 20.743 7.18226 20.8326 7.22708 20.8999C12.8744 20.9447 18.4881 20.9447 24.0682 20.8999C24.113 20.8326 24.1354 20.743 24.1354 20.6309C24.1578 20.4965 24.169 20.3844 24.169 20.2948H6.92455ZM3.93282 14.4794C4.20174 15.2189 4.54909 15.9473 4.97488 16.6644C5.42308 17.3591 5.88249 18.0314 6.35309 18.6813C6.10659 17.8969 5.86008 17.1126 5.61357 16.3282C5.38947 15.5439 5.21019 14.7483 5.07573 13.9416C5.07573 13.6278 5.08693 13.2917 5.10934 12.9331C5.13175 12.5746 5.25501 12.2272 5.4791 11.8911C5.65838 11.6221 5.9161 11.4204 6.25225 11.286C6.5884 11.1515 6.91334 11.0955 7.22708 11.1179C7.67528 11.1179 8.10107 11.1963 8.50445 11.3532C8.93024 11.5101 9.35603 11.6445 9.78182 11.7566C9.49049 11.4429 9.19916 11.1515 8.90783 10.8826C8.6165 10.6137 8.28035 10.3896 7.89938 10.2103C7.58564 10.0758 7.2607 10.0198 6.92455 10.0422C6.61081 10.0646 6.26345 10.0758 5.88248 10.0758C5.43428 10.1207 5.0197 10.2775 4.63873 10.5465C4.25776 10.793 4.00005 11.1291 3.86559 11.5549C3.68631 12.0703 3.61908 12.5634 3.6639 13.034C3.73113 13.5046 3.82077 13.9864 3.93282 14.4794ZM12.908 26.043C12.8632 25.8637 12.908 25.7068 13.0425 25.5723C11.4514 25.5947 9.88267 25.606 8.33638 25.606C6.79009 25.5835 5.2438 25.5835 3.69751 25.606C3.6751 25.718 3.6639 25.8637 3.6639 26.043C5.21019 26.043 6.74527 26.043 8.26915 26.043C9.81544 26.0205 11.3617 26.0205 12.908 26.043ZM16.135 27.8918C16.5384 27.578 16.9418 27.2531 17.3452 26.9169C17.771 26.5584 18.1856 26.1886 18.5889 25.8076C18.1856 25.4043 17.771 25.0345 17.3452 24.6983C16.9418 24.3398 16.5384 24.0036 16.135 23.6899C15.2835 24.3622 14.4767 25.0681 13.7148 25.8076C14.1182 26.1886 14.5103 26.5584 14.8913 26.9169C15.2947 27.2531 15.7093 27.578 16.135 27.8918ZM27.4297 25.606C26.0851 25.5835 24.7405 25.5835 23.3959 25.606C22.0513 25.606 20.7179 25.5947 19.3957 25.5723C19.4405 25.7292 19.4405 25.8861 19.3957 26.043C20.7179 26.0205 22.0513 26.0205 23.3959 26.043C24.7405 26.043 26.0851 26.043 27.4297 26.043V25.606ZM24.7405 18.6813C25.0318 18.3227 25.2895 17.9529 25.5136 17.572C25.7601 17.1686 25.9954 16.7764 26.2195 16.3955C26.6005 15.7904 26.9142 15.1517 27.1608 14.4794C27.4297 13.7847 27.5193 13.0676 27.4297 12.3281C27.3624 12.0367 27.2728 11.7342 27.1608 11.4204C27.0711 11.1067 26.847 10.8266 26.4885 10.5801C26.1075 10.2663 25.6481 10.087 25.1102 10.0422C24.5724 9.99741 24.0458 10.0198 23.5303 10.1095C23.0597 10.2439 22.6451 10.468 22.2866 10.7818C21.9504 11.0955 21.6255 11.4204 21.3118 11.7566C21.8048 11.5997 22.309 11.4316 22.8244 11.2524C23.3623 11.0731 23.9337 11.0283 24.5388 11.1179C24.7853 11.1627 24.9982 11.2636 25.1775 11.4204C25.3568 11.5549 25.48 11.7118 25.5472 11.8911C25.7713 12.2496 25.8834 12.6194 25.8834 13.0003C25.8834 13.3813 25.861 13.7623 25.8162 14.1433C25.7713 14.8828 25.6369 15.6447 25.4128 16.4291C25.1887 17.191 24.9646 17.9417 24.7405 18.6813Z" fill="#EEEEEE"/>
</svg>
