<svg width="32" height="32" viewBox="0 0 32 32" fill="none" xmlns="http://www.w3.org/2000/svg">
<path d="M28.2112 29.1943H3.94122C3.94122 28.5668 3.93001 27.9506 3.9076 27.3455C3.9076 26.7404 3.91881 26.1354 3.94122 25.5303C3.94122 25.0821 4.04206 24.6563 4.24375 24.2529C4.46785 23.8271 4.7928 23.5022 5.21859 23.2781C5.50992 23.054 5.79004 22.8299 6.05896 22.6058C6.32788 22.3817 6.55198 22.1016 6.73126 21.7654C6.75367 21.7206 6.77608 21.6758 6.79849 21.631C6.8209 21.5861 6.8097 21.5413 6.76488 21.4965C6.31668 21.0483 5.9245 20.5777 5.58835 20.0847C5.27461 19.5916 4.96087 19.0874 4.64713 18.572C4.19893 17.7876 3.81796 16.9809 3.50422 16.1517C3.19048 15.3001 3.02241 14.4374 3 13.5634C3.02241 12.9359 3.15687 12.342 3.40338 11.7818C3.6723 11.1991 4.04206 10.7061 4.51267 10.3027C5.0281 9.78729 5.66679 9.43993 6.42873 9.26066C7.21308 9.05897 7.96381 9.07017 8.68093 9.29427C9.59974 9.54078 10.3841 10.0002 11.034 10.6725C11.6839 11.3224 12.1993 12.0507 12.5803 12.8575C12.8492 12.6558 13.1405 12.4877 13.4543 12.3532C13.7904 12.2188 14.1266 12.1179 14.4627 12.0507V11.1095C14.149 11.1095 13.8128 11.1207 13.4543 11.1431C13.1181 11.1431 12.782 11.1319 12.4458 11.1095C12.2441 10.9974 12.1545 10.8181 12.1769 10.5716C12.2217 10.3251 12.2217 10.1122 12.1769 9.93295C12.1993 9.8209 12.1993 9.69765 12.1769 9.56319C12.1545 9.40632 12.1433 9.26065 12.1433 9.12619C12.1433 8.99173 12.1657 8.86848 12.2105 8.75643C12.2553 8.64438 12.3338 8.55474 12.4458 8.48751C12.782 8.44269 13.1181 8.43149 13.4543 8.4539C13.8128 8.4539 14.149 8.4539 14.4627 8.4539C14.4627 8.14016 14.4515 7.82642 14.4291 7.51268C14.4291 7.19894 14.4403 6.8852 14.4627 6.57146C14.4627 6.30254 14.5635 6.13446 14.7652 6.06723C15.1462 6.02241 15.516 6 15.8745 6C16.2555 6 16.6253 6.01121 16.9838 6.03362C17.2079 6.07844 17.3312 6.15687 17.3536 6.26892C17.376 6.62748 17.3872 6.99725 17.3872 7.37821C17.3872 7.73677 17.3872 8.09534 17.3872 8.4539C17.6785 8.4539 17.9811 8.4539 18.2948 8.4539C18.631 8.43149 18.9671 8.44269 19.3033 8.48751C19.4601 8.48751 19.561 8.55474 19.6058 8.6892C19.673 9.40632 19.673 10.1122 19.6058 10.8069C19.6058 10.8742 19.5834 10.9414 19.5386 11.0086C19.4937 11.0759 19.4265 11.1095 19.3369 11.1095C19.0007 11.1319 18.6646 11.1431 18.3284 11.1431C18.0147 11.1207 17.7009 11.1095 17.3872 11.1095V12.0507C18.0595 12.1852 18.6982 12.4541 19.3033 12.8575C19.4825 12.4093 19.7178 11.9835 20.0092 11.5801C20.3229 11.1543 20.6703 10.7733 21.0512 10.4372C21.4546 10.101 21.8916 9.8209 22.3622 9.5968C22.8328 9.3727 23.3371 9.22704 23.8749 9.15981C24.4127 9.07017 24.9394 9.10379 25.4548 9.26066C25.9702 9.39512 26.4296 9.60801 26.833 9.89934C27.2588 10.1907 27.6286 10.538 27.9423 10.9414C28.256 11.3448 28.4801 11.7818 28.6146 12.2524C28.8611 13.0367 28.8947 13.8435 28.7154 14.6727C28.5586 15.5018 28.3121 16.275 27.9759 16.9921C27.6398 17.7764 27.2364 18.5384 26.7658 19.2779C26.2952 19.995 25.8022 20.7122 25.2867 21.4293C25.3988 21.6086 25.4996 21.7878 25.5893 21.9671C25.6789 22.1464 25.8134 22.3257 25.9926 22.5049C26.2391 22.7515 26.5193 22.9756 26.833 23.1772C27.1468 23.3565 27.4269 23.5694 27.6734 23.8159C27.8975 24.1073 28.0431 24.421 28.1104 24.7572C28.1776 25.0933 28.2112 25.4407 28.2112 25.7992V29.1943ZM4.74798 16.9921C5.06172 17.6644 5.42028 18.3143 5.82366 18.9418C6.22704 19.5468 6.65283 20.1519 7.10103 20.757H24.7153C25.1411 20.2191 25.5332 19.6701 25.8918 19.1098C26.2728 18.5496 26.6201 17.9669 26.9339 17.3619C27.2924 16.6223 27.5837 15.8492 27.8078 15.0424C28.0319 14.2357 28.0544 13.4401 27.8751 12.6558C27.763 12.2748 27.5837 11.905 27.3372 11.5465C27.0907 11.1879 26.7994 10.8854 26.4632 10.6389C26.1271 10.3699 25.7461 10.1683 25.3203 10.0338C24.917 9.89934 24.5024 9.86572 24.0766 9.93295C23.1354 10.0226 22.3174 10.3699 21.6227 10.975C20.9504 11.5801 20.4462 12.2748 20.11 13.0591C19.998 13.2608 19.9083 13.4849 19.8411 13.7314C19.7963 13.9555 19.617 14.09 19.3033 14.1348C19.124 13.9331 18.9223 13.7314 18.6982 13.5298C18.4965 13.3057 18.25 13.1488 17.9587 13.0591C17.7794 12.9471 17.5665 12.8799 17.32 12.8575C17.0959 12.835 16.883 12.779 16.6813 12.6894C16.5244 12.5549 16.4572 12.3756 16.4796 12.1515C16.5244 11.905 16.5244 11.6921 16.4796 11.5129C16.5244 11.3336 16.5244 11.1207 16.4796 10.8742C16.4572 10.6277 16.5692 10.4596 16.8158 10.3699C17.1295 10.3251 17.4544 10.3027 17.7906 10.3027C18.1267 10.3027 18.4629 10.3027 18.799 10.3027V9.26066C18.4629 9.26066 18.1267 9.27186 17.7906 9.29427C17.4544 9.29427 17.1183 9.27186 16.7821 9.22704C16.6477 9.18222 16.558 9.07017 16.5132 8.89089C16.4684 8.55474 16.446 8.21859 16.446 7.88244C16.4684 7.52388 16.4796 7.15412 16.4796 6.77315H15.3367C15.3143 7.15412 15.3143 7.52388 15.3367 7.88244C15.3591 8.241 15.3367 8.58835 15.2695 8.9245C15.2695 9.03655 15.2358 9.11499 15.1686 9.15981C15.1014 9.20463 15.0454 9.22704 15.0005 9.22704C14.6644 9.27186 14.3282 9.29427 13.9921 9.29427C13.6784 9.27186 13.3646 9.26066 13.0509 9.26066V10.3027C13.387 10.3027 13.712 10.3027 14.0257 10.3027C14.3619 10.3027 14.6868 10.3139 15.0005 10.3363C15.1126 10.3587 15.191 10.4148 15.2358 10.5044C15.3031 10.5716 15.3367 10.6389 15.3367 10.7061C15.3367 11.0198 15.3367 11.3336 15.3367 11.6473C15.3591 11.9611 15.3367 12.2748 15.2695 12.5885C15.2471 12.6558 15.191 12.7006 15.1014 12.723C15.0342 12.7454 14.9781 12.779 14.9333 12.8238C14.6196 12.8687 14.2946 12.9247 13.9585 12.9919C13.6223 13.0591 13.3534 13.216 13.1517 13.4625C13.0397 13.5746 12.9388 13.6978 12.8492 13.8323C12.7595 13.9667 12.6251 14.0452 12.4458 14.0676C12.2441 14.0452 12.1097 13.9555 12.0424 13.7987C11.9976 13.6418 11.9304 13.4849 11.8407 13.3281C11.4149 12.1627 10.653 11.2215 9.55492 10.5044C9.17395 10.3027 8.74816 10.1346 8.27755 10.0002C7.82935 9.86572 7.38115 9.85452 6.93295 9.96657C6.52957 10.0114 6.1486 10.1346 5.79004 10.3363C5.45389 10.538 5.15136 10.7845 4.88244 11.0759C4.61352 11.3672 4.38942 11.6921 4.21014 12.0507C4.05327 12.4093 3.94122 12.7678 3.87399 13.1264C3.82917 13.7763 3.8964 14.4374 4.07568 15.1097C4.25496 15.7595 4.47906 16.387 4.74798 16.9921V16.9921ZM5.38666 24.0849C5.18497 24.2641 5.03931 24.477 4.94967 24.7235C4.86003 24.97 4.7928 25.2166 4.74798 25.4631H13.1517C13.2862 25.4407 13.4318 25.4407 13.5887 25.4631C13.7456 25.4631 13.8688 25.407 13.9585 25.295C14.2946 24.9812 14.6196 24.6787 14.9333 24.3874C15.2695 24.0961 15.6056 23.7935 15.9418 23.4798C16.3227 23.7935 16.6925 24.1297 17.0511 24.4882C17.4096 24.8468 17.7794 25.1717 18.1603 25.4631C19.7066 25.4855 21.2417 25.4967 22.7656 25.4967C24.3119 25.4743 25.8582 25.4631 27.4045 25.4631C27.3596 25.2838 27.3148 25.0933 27.27 24.8916C27.2252 24.6675 27.1243 24.4658 26.9675 24.2865C26.721 24.04 26.4296 23.8271 26.0935 23.6479C25.7797 23.4462 25.5108 23.1997 25.2867 22.9083C25.1523 22.7739 25.029 22.6282 24.917 22.4713C24.8049 22.2921 24.6929 22.1128 24.5808 21.9335C24.5584 21.8887 24.5136 21.8663 24.4463 21.8663C24.4015 21.8663 24.3455 21.8551 24.2783 21.8326H7.63886C7.48199 22.0567 7.34753 22.2696 7.23548 22.4713C7.12343 22.673 6.97777 22.8635 6.79849 23.0428C6.57439 23.2445 6.33909 23.4238 6.09258 23.5806C5.86848 23.7151 5.63317 23.8832 5.38666 24.0849V24.0849ZM15.0005 28.4212C14.6644 28.0626 14.3058 27.7153 13.9249 27.3791C13.5663 27.043 13.2302 26.718 12.9164 26.4043C11.5494 26.3819 10.1712 26.3819 8.78177 26.4043C7.41476 26.4043 6.05896 26.4043 4.71436 26.4043V28.4212H15.0005ZM15.9418 28.4212C16.3003 28.085 16.6589 27.7489 17.0174 27.4127C17.3984 27.0542 17.7794 26.7068 18.1603 26.3707C17.7794 26.0345 17.3984 25.6984 17.0174 25.3622C16.6589 25.0037 16.3003 24.6451 15.9418 24.2865C15.5384 24.6451 15.1574 25.0037 14.7989 25.3622C14.4403 25.6984 14.0705 26.0233 13.6896 26.3371C14.0705 26.6956 14.4403 27.0542 14.7989 27.4127C15.1574 27.7489 15.5384 28.085 15.9418 28.4212ZM27.4381 26.4043C26.0263 26.4043 24.6144 26.4043 23.2026 26.4043C21.7908 26.3819 20.3789 26.3931 18.9671 26.4379C18.5861 26.7516 18.2164 27.0766 17.8578 27.4127C17.5217 27.7489 17.1743 28.085 16.8158 28.4212H27.4381V26.4043ZM25.3876 12.2188C25.0066 11.8378 24.5584 11.5801 24.043 11.4456C23.5499 11.2888 23.0457 11.1879 22.5303 11.1431C22.8664 11.0535 23.225 11.0086 23.606 11.0086C24.0094 10.9862 24.3903 11.0422 24.7489 11.1767C25.2419 11.3336 25.7237 11.5577 26.1943 11.849C26.6649 12.1403 26.9899 12.5437 27.1692 13.0591C27.3709 13.5522 27.4269 14.0564 27.3372 14.5718C27.27 15.0872 27.1355 15.6027 26.9339 16.1181C26.6201 16.8352 26.2167 17.5075 25.7237 18.135C25.2531 18.7625 24.7265 19.3339 24.1438 19.8494C24.5472 19.1322 24.9506 18.4263 25.354 17.7316C25.7573 17.0369 26.0375 16.2974 26.1943 15.513C26.3064 14.9528 26.3176 14.3701 26.2279 13.7651C26.1383 13.16 25.8582 12.6446 25.3876 12.2188V12.2188ZM8.10947 19.9838C7.66127 19.558 7.23548 19.121 6.8321 18.6728C6.42873 18.2246 6.08137 17.7428 5.79004 17.2274C5.4763 16.712 5.21859 16.1517 5.0169 15.5467C4.81521 14.9416 4.74798 14.3253 4.81521 13.6978C4.88244 13.3841 5.00569 13.0928 5.18497 12.8238C5.36425 12.5325 5.58835 12.2972 5.85727 12.1179C6.3727 11.737 6.95536 11.4568 7.60525 11.2776C8.27755 11.0759 8.93864 11.0647 9.58853 11.2439C9.0731 11.2888 8.55767 11.4008 8.04224 11.5801C7.54922 11.7594 7.13464 12.0059 6.79849 12.3196C6.48475 12.6334 6.24945 12.9919 6.09258 13.3953C5.95812 13.7763 5.89089 14.1684 5.89089 14.5718C5.84607 15.0872 5.9133 15.5915 6.09258 16.0845C6.27186 16.5775 6.48475 17.0593 6.73126 17.5299C6.91054 17.9557 7.12344 18.3703 7.36995 18.7737C7.61646 19.1547 7.86296 19.558 8.10947 19.9838V19.9838Z" fill="black"/>
<path d="M4.748 16.9921C5.06174 17.6644 5.4203 18.3143 5.82368 18.9417C6.22706 19.5468 6.65285 20.1519 7.10105 20.7569H24.7153C25.1411 20.2191 25.5333 19.6701 25.8918 19.1098C26.2728 18.5496 26.6201 17.9669 26.9339 17.3618C27.2924 16.6223 27.5838 15.8492 27.8079 15.0424C28.032 14.2356 28.0544 13.4401 27.8751 12.6557C27.763 12.2748 27.5838 11.905 27.3373 11.5464C27.0907 11.1879 26.7994 10.8853 26.4633 10.6388C26.1271 10.3699 25.7462 10.1682 25.3204 10.0338C24.917 9.89931 24.5024 9.86569 24.0766 9.93292C23.1354 10.0226 22.3174 10.3699 21.6227 10.975C20.9504 11.5801 20.4462 12.2748 20.11 13.0591C19.998 13.2608 19.9083 13.4849 19.8411 13.7314C19.7963 13.9555 19.617 14.09 19.3033 14.1348C19.124 13.9331 18.9223 13.7314 18.6982 13.5297C18.4965 13.3056 18.25 13.1488 17.9587 13.0591C17.7794 12.9471 17.5665 12.8798 17.32 12.8574C17.0959 12.835 16.883 12.779 16.6813 12.6893C16.5244 12.5549 16.4572 12.3756 16.4796 12.1515C16.5244 11.905 16.5244 11.6921 16.4796 11.5128C16.5244 11.3335 16.5244 11.1206 16.4796 10.8741C16.4572 10.6276 16.5693 10.4596 16.8158 10.3699C17.1295 10.3251 17.4545 10.3027 17.7906 10.3027C18.1268 10.3027 18.4629 10.3027 18.7991 10.3027V9.26063C18.4629 9.26063 18.1268 9.27183 17.7906 9.29424C17.4545 9.29424 17.1183 9.27183 16.7822 9.22701C16.6477 9.18219 16.5581 9.07014 16.5132 8.89086C16.4684 8.55471 16.446 8.21856 16.446 7.88241C16.4684 7.52385 16.4796 7.15409 16.4796 6.77312H15.3367C15.3143 7.15409 15.3143 7.52385 15.3367 7.88241C15.3591 8.24097 15.3367 8.58832 15.2695 8.92447C15.2695 9.03652 15.2359 9.11496 15.1686 9.15978C15.1014 9.2046 15.0454 9.22701 15.0006 9.22701C14.6644 9.27183 14.3283 9.29424 13.9921 9.29424C13.6784 9.27183 13.3646 9.26063 13.0509 9.26063V10.3027C13.387 10.3027 13.712 10.3027 14.0257 10.3027C14.3619 10.3027 14.6868 10.3139 15.0006 10.3363C15.1126 10.3587 15.191 10.4147 15.2359 10.5044C15.3031 10.5716 15.3367 10.6388 15.3367 10.7061C15.3367 11.0198 15.3367 11.3335 15.3367 11.6473C15.3591 11.961 15.3367 12.2748 15.2695 12.5885C15.2471 12.6557 15.191 12.7006 15.1014 12.723C15.0342 12.7454 14.9782 12.779 14.9333 12.8238C14.6196 12.8686 14.2947 12.9247 13.9585 12.9919C13.6224 13.0591 13.3534 13.216 13.1517 13.4625C13.0397 13.5745 12.9388 13.6978 12.8492 13.8323C12.7596 13.9667 12.6251 14.0452 12.4458 14.0676C12.2441 14.0452 12.1097 13.9555 12.0424 13.7986C11.9976 13.6418 11.9304 13.4849 11.8408 13.328C11.415 12.1627 10.653 11.2215 9.55494 10.5044C9.17397 10.3027 8.74818 10.1346 8.27757 10.0002C7.82937 9.86569 7.38117 9.85449 6.93297 9.96654C6.52959 10.0114 6.14862 10.1346 5.79006 10.3363C5.45391 10.538 5.15138 10.7845 4.88246 11.0758C4.61354 11.3672 4.38944 11.6921 4.21016 12.0507C4.05329 12.4092 3.94124 12.7678 3.87401 13.1263C3.82919 13.7762 3.89642 14.4373 4.0757 15.1096C4.25498 15.7595 4.47908 16.387 4.748 16.9921ZM5.38668 24.0848C5.18499 24.2641 5.03933 24.477 4.94969 24.7235C4.86005 24.97 4.79282 25.2165 4.748 25.463H13.1517C13.2862 25.4406 13.4319 25.4406 13.5887 25.463C13.7456 25.463 13.8689 25.407 13.9585 25.295C14.2947 24.9812 14.6196 24.6787 14.9333 24.3874C15.2695 24.096 15.6056 23.7935 15.9418 23.4797C16.3228 23.7935 16.6925 24.1296 17.0511 24.4882C17.4096 24.8468 17.7794 25.1717 18.1604 25.463C19.7067 25.4854 21.2417 25.4966 22.7656 25.4966C24.3119 25.4742 25.8582 25.463 27.4045 25.463C27.3597 25.2838 27.3148 25.0933 27.27 24.8916C27.2252 24.6675 27.1244 24.4658 26.9675 24.2865C26.721 24.04 26.4297 23.8271 26.0935 23.6478C25.7798 23.4461 25.5108 23.1996 25.2867 22.9083C25.1523 22.7738 25.029 22.6282 24.917 22.4713C24.8049 22.292 24.6929 22.1127 24.5808 21.9335C24.5584 21.8886 24.5136 21.8662 24.4464 21.8662C24.4016 21.8662 24.3455 21.855 24.2783 21.8326H7.63889C7.48202 22.0567 7.34756 22.2696 7.23551 22.4713C7.12346 22.673 6.97779 22.8635 6.79851 23.0428C6.57441 23.2444 6.33911 23.4237 6.0926 23.5806C5.8685 23.7151 5.63319 23.8831 5.38668 24.0848ZM15.0006 28.4211C14.6644 28.0626 14.3059 27.7152 13.9249 27.3791C13.5663 27.0429 13.2302 26.718 12.9164 26.4043C11.5494 26.3818 10.1712 26.3818 8.7818 26.4043C7.41479 26.4043 6.05898 26.4043 4.71439 26.4043V28.4211H15.0006ZM15.9418 28.4211C16.3003 28.085 16.6589 27.7489 17.0175 27.4127C17.3984 27.0541 17.7794 26.7068 18.1604 26.3706C17.7794 26.0345 17.3984 25.6983 17.0175 25.3622C16.6589 25.0036 16.3003 24.6451 15.9418 24.2865C15.5384 24.6451 15.1574 25.0036 14.7989 25.3622C14.4403 25.6983 14.0706 26.0233 13.6896 26.337C14.0706 26.6956 14.4403 27.0541 14.7989 27.4127C15.1574 27.7489 15.5384 28.085 15.9418 28.4211ZM27.4381 26.4043C26.0263 26.4043 24.6144 26.4043 23.2026 26.4043C21.7908 26.3818 20.379 26.393 18.9671 26.4379C18.5862 26.7516 18.2164 27.0766 17.8578 27.4127C17.5217 27.7489 17.1743 28.085 16.8158 28.4211H27.4381V26.4043ZM25.3876 12.2187C25.0066 11.8378 24.5584 11.5801 24.043 11.4456C23.55 11.2887 23.0457 11.1879 22.5303 11.1431C22.8665 11.0534 23.225 11.0086 23.606 11.0086C24.0094 10.9862 24.3903 11.0422 24.7489 11.1767C25.2419 11.3335 25.7237 11.5576 26.1943 11.849C26.665 12.1403 26.9899 12.5437 27.1692 13.0591C27.3709 13.5521 27.4269 14.0564 27.3373 14.5718C27.27 15.0872 27.1356 15.6026 26.9339 16.1181C26.6201 16.8352 26.2168 17.5075 25.7237 18.135C25.2531 18.7625 24.7265 19.3339 24.1438 19.8493C24.5472 19.1322 24.9506 18.4263 25.354 17.7316C25.7574 17.0369 26.0375 16.2974 26.1943 15.513C26.3064 14.9528 26.3176 14.3701 26.228 13.765C26.1383 13.16 25.8582 12.6445 25.3876 12.2187ZM8.1095 19.9838C7.6613 19.558 7.23551 19.121 6.83213 18.6728C6.42875 18.2246 6.08139 17.7428 5.79006 17.2274C5.47632 16.7119 5.21861 16.1517 5.01692 15.5466C4.81523 14.9416 4.748 14.3253 4.81523 13.6978C4.88246 13.3841 5.00571 13.0927 5.18499 12.8238C5.36427 12.5325 5.58838 12.2972 5.85729 12.1179C6.37272 11.7369 6.95538 11.4568 7.60527 11.2775C8.27757 11.0758 8.93867 11.0646 9.58856 11.2439C9.07313 11.2887 8.5577 11.4008 8.04227 11.5801C7.54925 11.7593 7.13466 12.0058 6.79851 12.3196C6.48477 12.6333 6.24947 12.9919 6.0926 13.3953C5.95814 13.7762 5.89091 14.1684 5.89091 14.5718C5.84609 15.0872 5.91332 15.5914 6.0926 16.0845C6.27188 16.5775 6.48477 17.0593 6.73128 17.5299C6.91056 17.9557 7.12346 18.3703 7.36997 18.7737C7.61648 19.1546 7.86299 19.558 8.1095 19.9838Z" fill="white"/>
</svg>
