<svg width="32" height="32" viewBox="0 0 32 32" fill="none" xmlns="http://www.w3.org/2000/svg">
<path d="M11.7495 4H13.8336C14.9765 4.11205 16.1194 4.29133 17.2623 4.53784C18.4277 4.76194 19.5145 5.17653 20.523 5.7816C21.4194 6.29703 22.2262 6.93571 22.9433 7.69764C23.6828 8.45958 24.2767 9.26635 24.7249 10.1179C25.1507 10.9919 25.5092 11.8771 25.8006 12.7735C26.0919 13.6699 26.3384 14.5775 26.5401 15.4963C26.7418 16.3927 26.921 17.3115 27.0779 18.2527C27.2348 19.1716 27.3805 20.0792 27.5149 20.9756C27.2684 20.998 27.0331 21.0092 26.809 21.0092C26.6073 21.0092 26.4056 21.0092 26.2039 21.0092C26.316 21.2557 26.4504 21.491 26.6073 21.7151C26.7866 21.9392 26.9995 22.1409 27.246 22.3202C27.5149 22.4994 27.7502 22.6899 27.9519 22.8916C28.176 23.0709 28.3553 23.3062 28.4897 23.5975C28.5794 23.7768 28.6466 23.9785 28.6914 24.2026C28.7587 24.4267 28.8147 24.6284 28.8595 24.8077V28.5053C25.0274 28.5053 21.2289 28.5165 17.464 28.5389C13.7216 28.5389 9.94549 28.5277 6.13579 28.5053C6.11338 27.8554 6.10218 27.2391 6.10218 26.6565C6.10218 26.0514 6.12459 25.4351 6.16941 24.8077C6.21423 24.4267 6.30387 24.0569 6.43833 23.6984C6.57279 23.3174 6.79689 23.0037 7.11063 22.7571C7.46919 22.5106 7.79414 22.2529 8.08547 21.984C8.3768 21.7151 8.60089 21.3901 8.75776 21.0092C8.60089 21.0092 8.44402 21.0092 8.28715 21.0092C8.15269 21.0092 8.02944 20.998 7.91739 20.9756C7.96221 20.3481 8.05185 19.6982 8.18631 19.0259C8.34318 18.3536 8.60089 17.7261 8.95945 17.1435C8.73535 17.2555 8.50005 17.3788 8.25354 17.5132C8.02944 17.6253 7.78293 17.7149 7.51401 17.7821C7.22268 17.8494 6.93135 17.883 6.64002 17.883C6.34869 17.8606 6.05736 17.827 5.76603 17.7821C5.85567 17.7149 5.94531 17.6029 6.03495 17.446C5.90049 17.5132 5.76603 17.5804 5.63157 17.6477C5.51952 17.6925 5.40747 17.6925 5.29542 17.6477C4.84722 17.4684 4.43264 17.2107 4.05167 16.8745C3.69311 16.516 3.36817 16.135 3.07684 15.7316C2.9872 15.6196 2.97599 15.4963 3.04322 15.3619C3.11045 15.205 3.17768 15.0705 3.24491 14.9585C3.93962 13.5018 4.75758 12.0564 5.6988 10.6222C6.66243 9.16551 7.83895 7.92175 9.22837 6.89089C8.95945 6.66679 8.66812 6.4763 8.35438 6.31943C8.04064 6.16256 7.73811 5.98329 7.44678 5.7816C7.89498 5.62473 8.34318 5.50147 8.79138 5.41183C9.23958 5.29978 9.71018 5.22135 10.2032 5.17653C9.95669 5.06448 9.69898 4.95242 9.43006 4.84037C9.18355 4.72832 8.93704 4.61628 8.69053 4.50423C9.20596 4.39218 9.71018 4.29133 10.2032 4.20169C10.6962 4.11205 11.2117 4.04482 11.7495 4V4ZM11.178 4.87399C11.3797 5.05327 11.5814 5.25496 11.7831 5.47906C11.9848 5.68075 12.1753 5.88244 12.3546 6.08413C12.1305 6.21859 11.8503 6.31944 11.5142 6.38667C11.3573 6.36426 11.2117 6.33064 11.0772 6.28582C10.9427 6.21859 10.7859 6.16256 10.6066 6.11774C10.4273 6.05051 10.248 6.02811 10.0687 6.05052C9.88946 6.07293 9.71019 6.08413 9.53091 6.08413C9.71019 6.19618 9.90067 6.31943 10.1024 6.45389C10.3041 6.58835 10.4945 6.71161 10.6738 6.82365C9.84465 7.33908 9.09391 7.92175 8.42161 8.57163C7.77172 9.22152 7.16666 9.92744 6.60641 10.6894C6.06857 11.4289 5.57554 12.2133 5.12734 13.0424C4.67914 13.8492 4.25336 14.6671 3.84998 15.4963C4.07408 15.8101 4.30938 16.079 4.55589 16.3031C4.8024 16.5048 5.08253 16.6953 5.39627 16.8745C5.75483 16.628 6.02375 16.3367 6.20303 16.0005C6.38231 15.6644 6.5952 15.3394 6.84171 15.0257C6.95376 14.9361 7.07702 14.9361 7.21148 15.0257C7.34594 15.0929 7.43557 15.1826 7.48039 15.2946C7.61485 15.6084 7.62606 15.9109 7.51401 16.2022C7.40196 16.4936 7.27871 16.7961 7.14425 17.1098C7.79413 16.8857 8.36559 16.5832 8.85861 16.2022C9.37404 15.8213 9.90067 15.4739 10.4385 15.1602C10.8195 14.9809 11.2004 14.8352 11.5814 14.7232C11.9848 14.6111 12.3994 14.5327 12.8252 14.4879C14.0129 14.4655 15.223 14.6447 16.4556 15.0257C16.59 15.0481 16.6573 15.1266 16.6573 15.261C16.6573 15.3731 16.6797 15.4851 16.7245 15.5972C16.0074 15.3506 15.2679 15.1938 14.5059 15.1266C13.744 15.0593 12.982 15.1265 12.2201 15.3282C11.7943 15.4851 11.3797 15.7092 10.9764 16.0005C10.5954 16.2695 10.2704 16.5944 10.0015 16.9754C9.66537 17.446 9.38524 17.9614 9.16114 18.5217C8.95945 19.0819 8.82499 19.6534 8.75776 20.236H26.6073C26.3608 18.6673 26.0807 17.0762 25.7669 15.4627C25.4532 13.8492 24.9378 12.3029 24.2206 10.8238C23.5708 9.54647 22.6744 8.42597 21.5314 7.46234C20.4109 6.4763 19.1 5.78159 17.5985 5.37821C16.5676 5.1093 15.5032 4.93001 14.4051 4.84037C13.3294 4.75073 12.2537 4.76194 11.178 4.87399V4.87399ZM9.56452 21.1772C9.36283 21.5582 9.12753 21.928 8.85861 22.2865C8.6121 22.6003 8.30956 22.858 7.951 23.0597C7.59245 23.2614 7.31232 23.5303 7.11063 23.8664C7.06581 24.0233 7.02099 24.1802 6.97617 24.3371C6.95376 24.4939 6.92014 24.6284 6.87532 24.7404H14.1025C14.618 24.2922 15.1222 23.844 15.6152 23.3958C16.1082 22.9252 16.6125 22.4658 17.1279 22.0176C17.6657 22.4658 18.1812 22.9252 18.6742 23.3958C19.1672 23.844 19.6938 24.2922 20.2541 24.7404C21.5539 24.7852 22.8536 24.7965 24.1534 24.774C25.4532 24.7516 26.7642 24.7404 28.0864 24.7404C28.0415 24.6284 28.0079 24.5275 27.9855 24.4379C27.9631 24.3258 27.9407 24.2138 27.9183 24.1017C27.8062 23.7656 27.5709 23.4855 27.2124 23.2614C26.8762 23.0373 26.5849 22.802 26.3384 22.5555C26.1367 22.3762 25.9686 22.1745 25.8342 21.9504C25.6997 21.7039 25.5652 21.4462 25.4308 21.1772H9.56452ZM17.1279 22.8244C16.7469 23.1829 16.366 23.5303 15.985 23.8664C15.6264 24.2026 15.2679 24.5499 14.9093 24.9085C15.2679 25.2671 15.6264 25.6144 15.985 25.9506C16.366 26.2643 16.7469 26.6117 17.1279 26.9926C17.4864 26.6341 17.8562 26.2867 18.2372 25.9506C18.6181 25.6144 18.9991 25.2671 19.3801 24.9085C18.9991 24.5499 18.6181 24.2026 18.2372 23.8664C17.8562 23.5303 17.4864 23.1829 17.1279 22.8244ZM6.87532 25.6817V27.6313C8.57848 27.6313 10.2592 27.6425 11.9176 27.6649C13.5983 27.6649 15.2791 27.6537 16.9598 27.6313C16.6461 27.34 16.3211 27.0375 15.985 26.7237C15.6712 26.3876 15.3351 26.0962 14.9765 25.8497C14.8645 25.7377 14.73 25.6929 14.5732 25.7153C14.4387 25.7153 14.3266 25.7041 14.237 25.6817H6.87532ZM19.1112 26.0514C18.7974 26.2979 18.4837 26.5668 18.1699 26.8582C17.8786 27.1271 17.6097 27.3848 17.3632 27.6313C19.156 27.6537 20.9376 27.6649 22.708 27.6649C24.4784 27.6425 26.26 27.6313 28.0527 27.6313V25.6817C26.6633 25.6817 25.2851 25.6817 23.9181 25.6817C22.5511 25.6817 21.1505 25.6929 19.7162 25.7153C19.5594 25.6704 19.4361 25.7041 19.3465 25.8161C19.2792 25.9058 19.2008 25.9842 19.1112 26.0514V26.0514ZM15.3799 5.7816C16.2539 5.89365 17.0943 6.12895 17.901 6.48751C18.7078 6.84607 19.4361 7.29427 20.086 7.83211C20.7807 8.34753 21.4082 8.9526 21.9684 9.64731C22.5511 10.3196 23.0105 11.0591 23.3467 11.8659C23.9069 13.0088 24.3215 14.2189 24.5904 15.4963C24.8593 16.7513 25.0834 18.0174 25.2627 19.2948H23.7837C23.6044 18.2191 23.4139 17.1434 23.2122 16.0678C23.0329 14.9697 22.7416 13.9164 22.3382 12.908C22.0469 12.1236 21.6771 11.3841 21.2289 10.6894C20.7807 9.97226 20.2541 9.32237 19.649 8.73971C19.0663 8.08982 18.4053 7.54078 17.6657 7.09258C16.9262 6.64438 16.1643 6.20739 15.3799 5.7816ZM9.46368 9.10948C9.57573 8.90779 9.7438 8.73971 9.9679 8.60525C10.192 8.44838 10.4161 8.38115 10.6402 8.40356C10.9315 8.42597 11.1892 8.48199 11.4133 8.57163C11.6374 8.63886 11.8615 8.72851 12.0856 8.84056C12.2201 8.9302 12.2873 9.05345 12.2873 9.21032C12.2873 9.36719 12.2649 9.50165 12.2201 9.6137C12.0408 9.59129 11.8727 9.56888 11.7159 9.54647C11.5814 9.50165 11.447 9.47924 11.3125 9.47924C10.9988 9.47924 10.7186 9.52406 10.4721 9.6137C10.2256 9.68093 9.97911 9.65852 9.7326 9.54647C9.48609 9.45683 9.39645 9.31117 9.46368 9.10948V9.10948ZM5.16096 14.1517C5.38506 14.331 5.54193 14.5439 5.63157 14.7904C5.74362 15.0145 5.71001 15.2498 5.53073 15.4963C5.4635 15.6084 5.35144 15.6644 5.19457 15.6644C5.0377 15.642 4.92566 15.5747 4.85843 15.4627C4.81361 15.2162 4.82481 15.0033 4.89204 14.824C4.98168 14.6223 5.07132 14.3982 5.16096 14.1517V14.1517Z" fill="black"/>
<path d="M11.1781 4.87397C11.3798 5.05325 11.5815 5.25494 11.7832 5.47904C11.9849 5.68073 12.1753 5.88242 12.3546 6.08411C12.1305 6.21857 11.8504 6.31942 11.5142 6.38665C11.3574 6.36424 11.2117 6.33062 11.0773 6.2858C10.9428 6.21857 10.7859 6.16254 10.6066 6.11772C10.4274 6.05049 10.2481 6.02809 10.0688 6.0505C9.88952 6.07291 9.71025 6.08411 9.53097 6.08411C9.71025 6.19616 9.90073 6.31941 10.1024 6.45387C10.3041 6.58833 10.4946 6.71159 10.6739 6.82364C9.84471 7.33907 9.09397 7.92173 8.42167 8.57162C7.77178 9.2215 7.16672 9.92742 6.60647 10.6894C6.06863 11.4289 5.5756 12.2132 5.1274 13.0424C4.6792 13.8492 4.25342 14.6671 3.85004 15.4963C4.07414 15.81 4.30944 16.079 4.55595 16.3031C4.80246 16.5048 5.08259 16.6952 5.39633 16.8745C5.75488 16.628 6.0238 16.3367 6.20308 16.0005C6.38236 15.6644 6.59526 15.3394 6.84177 15.0257C6.95382 14.9361 7.07708 14.9361 7.21154 15.0257C7.34599 15.0929 7.43563 15.1826 7.48045 15.2946C7.61491 15.6084 7.62612 15.9109 7.51407 16.2022C7.40202 16.4935 7.27876 16.7961 7.1443 17.1098C7.79419 16.8857 8.36565 16.5832 8.85867 16.2022C9.3741 15.8212 9.90073 15.4739 10.4386 15.1602C10.8195 14.9809 11.2005 14.8352 11.5815 14.7232C11.9849 14.6111 12.3994 14.5327 12.8252 14.4878C14.013 14.4654 15.2231 14.6447 16.4556 15.0257C16.5901 15.0481 16.6573 15.1265 16.6573 15.261C16.6573 15.373 16.6797 15.4851 16.7246 15.5971C16.0075 15.3506 15.2679 15.1938 14.506 15.1265C13.744 15.0593 12.9821 15.1265 12.2202 15.3282C11.7944 15.4851 11.3798 15.7092 10.9764 16.0005C10.5954 16.2694 10.2705 16.5944 10.0016 16.9754C9.66543 17.446 9.3853 17.9614 9.1612 18.5216C8.95951 19.0819 8.82505 19.6534 8.75782 20.236H26.6074C26.3609 18.6673 26.0807 17.0762 25.767 15.4627C25.4533 13.8492 24.9378 12.3029 24.2207 10.8238C23.5708 9.54645 22.6744 8.42595 21.5315 7.46232C20.411 6.47628 19.1 5.78158 17.5986 5.3782C16.5677 5.10928 15.5032 4.92999 14.4051 4.84035C13.3295 4.75071 12.2538 4.76192 11.1781 4.87397ZM9.56458 21.1772C9.36289 21.5582 9.12759 21.928 8.85867 22.2865C8.61216 22.6003 8.30962 22.858 7.95106 23.0597C7.5925 23.2614 7.31238 23.5303 7.11069 23.8664C7.06587 24.0233 7.02105 24.1802 6.97623 24.337C6.95382 24.4939 6.9202 24.6284 6.87538 24.7404H14.1026C14.618 24.2922 15.1223 23.844 15.6153 23.3958C16.1083 22.9252 16.6125 22.4658 17.1279 22.0176C17.6658 22.4658 18.1812 22.9252 18.6742 23.3958C19.1673 23.844 19.6939 24.2922 20.2541 24.7404C21.5539 24.7852 22.8537 24.7964 24.1535 24.774C25.4533 24.7516 26.7642 24.7404 28.0864 24.7404C28.0416 24.6284 28.008 24.5275 27.9856 24.4379C27.9632 24.3258 27.9408 24.2138 27.9184 24.1017C27.8063 23.7656 27.571 23.4855 27.2124 23.2614C26.8763 23.0373 26.585 22.802 26.3384 22.5554C26.1368 22.3762 25.9687 22.1745 25.8342 21.9504C25.6998 21.7039 25.5653 21.4461 25.4308 21.1772H9.56458ZM17.1279 22.8244C16.747 23.1829 16.366 23.5303 15.985 23.8664C15.6265 24.2026 15.2679 24.5499 14.9094 24.9085C15.2679 25.267 15.6265 25.6144 15.985 25.9506C16.366 26.2643 16.747 26.6116 17.1279 26.9926C17.4865 26.6341 17.8563 26.2867 18.2372 25.9506C18.6182 25.6144 18.9992 25.267 19.3802 24.9085C18.9992 24.5499 18.6182 24.2026 18.2372 23.8664C17.8563 23.5303 17.4865 23.1829 17.1279 22.8244ZM6.87538 25.6816V27.6313C8.57854 27.6313 10.2593 27.6425 11.9176 27.6649C13.5984 27.6649 15.2791 27.6537 16.9599 27.6313C16.6461 27.34 16.3212 27.0374 15.985 26.7237C15.6713 26.3875 15.3351 26.0962 14.9766 25.8497C14.8645 25.7377 14.7301 25.6928 14.5732 25.7152C14.4388 25.7152 14.3267 25.704 14.2371 25.6816H6.87538ZM19.1112 26.0514C18.7975 26.2979 18.4837 26.5668 18.17 26.8582C17.8787 27.1271 17.6098 27.3848 17.3632 27.6313C19.156 27.6537 20.9376 27.6649 22.708 27.6649C24.4784 27.6425 26.26 27.6313 28.0528 27.6313V25.6816C26.6634 25.6816 25.2852 25.6816 23.9182 25.6816C22.5512 25.6816 21.1505 25.6928 19.7163 25.7152C19.5594 25.6704 19.4362 25.704 19.3465 25.8161C19.2793 25.9057 19.2009 25.9842 19.1112 26.0514ZM15.38 5.78158C16.254 5.89363 17.0943 6.12893 17.9011 6.48749C18.7079 6.84605 19.4362 7.29425 20.0861 7.83209C20.7808 8.34752 21.4083 8.95258 21.9685 9.64729C22.5512 10.3196 23.0106 11.0591 23.3467 11.8659C23.907 13.0088 24.3215 14.2189 24.5905 15.4963C24.8594 16.7513 25.0835 18.0174 25.2628 19.2948H23.7837C23.6044 18.2191 23.4139 17.1434 23.2123 16.0677C23.033 14.9697 22.7416 13.9164 22.3383 12.9079C22.0469 12.1236 21.6772 11.3841 21.229 10.6894C20.7808 9.97224 20.2541 9.32235 19.6491 8.73969C19.0664 8.0898 18.4053 7.54076 17.6658 7.09256C16.9263 6.64436 16.1643 6.20737 15.38 5.78158ZM9.46374 9.10946C9.57578 8.90777 9.74386 8.73969 9.96796 8.60523C10.1921 8.44836 10.4162 8.38113 10.6403 8.40354C10.9316 8.42595 11.1893 8.48198 11.4134 8.57162C11.6375 8.63885 11.8616 8.72849 12.0857 8.84054C12.2202 8.93018 12.2874 9.05343 12.2874 9.2103C12.2874 9.36717 12.265 9.50163 12.2202 9.61368C12.0409 9.59127 11.8728 9.56886 11.7159 9.54645C11.5815 9.50163 11.447 9.47922 11.3126 9.47922C10.9988 9.47922 10.7187 9.52404 10.4722 9.61368C10.2257 9.68091 9.97917 9.6585 9.73266 9.54645C9.48615 9.45681 9.39651 9.31115 9.46374 9.10946ZM5.16102 14.1517C5.38512 14.331 5.54199 14.5439 5.63163 14.7904C5.74368 15.0145 5.71007 15.2498 5.53079 15.4963C5.46356 15.6083 5.3515 15.6644 5.19463 15.6644C5.03776 15.642 4.92572 15.5747 4.85849 15.4627C4.81367 15.2162 4.82487 15.0033 4.8921 14.824C4.98174 14.6223 5.07138 14.3982 5.16102 14.1517Z" fill="white"/>
</svg>
