<svg width="32" height="32" viewBox="0 0 32 32" fill="none" xmlns="http://www.w3.org/2000/svg">
<path d="M27.3691 15.1853C27.2571 15.4991 27.0666 15.6896 26.7977 15.7568C26.5512 15.8016 26.3495 15.8464 26.1926 15.8912C26.0357 16.4963 25.9237 17.0678 25.8565 17.6056C25.7892 18.121 25.6996 18.6477 25.5875 19.1855C25.5427 19.3424 25.4419 19.4544 25.285 19.5217C25.1281 19.5889 25.0385 19.7121 25.0161 19.8914C25.2178 20.4517 25.4867 20.9895 25.8228 21.5049C26.159 22.0204 26.5848 22.4462 27.1002 22.7823C27.4812 23.0288 27.7949 23.3314 28.0414 23.6899C28.3103 24.0485 28.456 24.4743 28.4784 24.9673C28.5232 25.662 28.5344 26.3567 28.512 27.0514C28.512 27.7461 28.512 28.4184 28.512 29.0683H4.07395C4.07395 28.3512 4.05154 27.6229 4.00672 26.8833C3.98431 26.1214 4.01793 25.3707 4.10757 24.6311C4.19721 24.1605 4.3989 23.7684 4.71264 23.4546C5.02638 23.1409 5.36253 22.8608 5.72108 22.6142C6.2141 22.2557 6.59508 21.8299 6.864 21.3369C7.13292 20.8214 7.34581 20.3172 7.50268 19.8242C7.21135 19.6449 6.96484 19.5105 6.76315 19.4208C6.67351 18.9054 6.61748 18.4012 6.59507 17.9081C6.59507 17.4151 6.53905 16.9333 6.427 16.4627C6.24772 16.2162 6.03483 16.0257 5.78832 15.8912C5.56422 15.7344 5.39614 15.4991 5.28409 15.1853C4.83589 14.4682 4.52215 13.6951 4.34288 12.8659C4.1636 12.0143 4.05154 11.1403 4.00672 10.2439V7.9245C4.05154 7.81245 4.07395 7.7004 4.07395 7.58835C4.09636 7.4763 4.16359 7.36425 4.27564 7.2522C4.79107 6.96088 5.31771 6.71437 5.85555 6.51268C6.4158 6.28858 6.97605 6.08689 7.53629 5.90761C7.71557 6.31099 7.85003 6.72557 7.93967 7.15136C8.05172 7.57715 8.16377 7.98053 8.27582 8.3615C8.70161 8.33909 9.09378 8.32788 9.45234 8.32788C9.83331 8.30547 10.2255 8.27186 10.6289 8.22704C10.5168 7.71161 10.4272 7.22979 10.36 6.78159C10.3151 6.31098 10.2703 5.82917 10.2255 5.33615C10.9202 5.26892 11.5925 5.2129 12.2424 5.16808C12.9147 5.12326 13.5646 5.07844 14.1921 5.03362C14.3265 5.01121 14.4386 5.03362 14.5282 5.10085C14.6403 5.16808 14.7075 5.2353 14.7299 5.30253C14.7971 5.75073 14.8195 6.18773 14.7971 6.61352C14.7971 7.0169 14.8307 7.43148 14.898 7.85727C14.9204 7.94691 14.9652 8.01414 15.0324 8.05896C15.0997 8.08137 15.1557 8.09258 15.2005 8.09258C15.6487 8.11499 16.1081 8.12619 16.5787 8.12619C17.0493 8.10378 17.5087 8.09258 17.9569 8.09258C17.9793 7.55474 17.9905 7.03931 17.9905 6.54629C18.013 6.03086 18.0242 5.51543 18.0242 5C18.7413 5.06723 19.4472 5.12326 20.1419 5.16808C20.859 5.2129 21.5761 5.28012 22.2933 5.36976C22.226 5.84037 22.1588 6.31098 22.0916 6.78159C22.0468 7.2522 21.9907 7.75643 21.9235 8.29427C22.3269 8.29427 22.7191 8.30547 23.1 8.32788C23.481 8.32788 23.8508 8.33909 24.2093 8.3615C24.3438 7.98053 24.4782 7.57715 24.6127 7.15136C24.7472 6.72557 24.8704 6.31099 24.9825 5.90761C25.5203 6.08689 26.0357 6.26617 26.5287 6.44545C27.0442 6.60232 27.526 6.83762 27.9742 7.15136C28.2655 7.19618 28.4448 7.35305 28.512 7.62197C28.6241 7.95812 28.6913 8.29427 28.7137 8.63042C28.7361 8.94416 28.7473 9.2579 28.7473 9.57163C28.7922 10.5801 28.6913 11.5661 28.4448 12.5298C28.2207 13.471 27.8621 14.3562 27.3691 15.1853V15.1853ZM4.74625 28.2952C6.56146 28.2952 8.34305 28.3064 10.091 28.3288C11.8614 28.3288 13.6206 28.3176 15.3686 28.2952C15.0548 28.0038 14.7411 27.7013 14.4274 27.3876C14.1136 27.0514 13.7663 26.7265 13.3853 26.4127C13.2733 26.2783 13.1276 26.2222 12.9483 26.2447C12.769 26.2447 12.5897 26.2335 12.4105 26.211C11.1331 26.2335 9.86693 26.2447 8.61198 26.2447C7.35702 26.2222 6.06844 26.2222 4.74625 26.2447V28.2952ZM14.1248 26.2783C14.5058 26.6592 14.8644 27.0178 15.2005 27.3539C15.5591 27.6901 15.9176 28.015 16.2762 28.3288C16.702 28.015 17.1053 27.6789 17.4863 27.3203C17.8897 26.9394 18.2595 26.5584 18.5956 26.1774C18.2595 25.7965 17.9009 25.4267 17.5199 25.0681C17.139 24.7096 16.7244 24.3398 16.2762 23.9588C15.94 24.3846 15.5815 24.7656 15.2005 25.1017C14.8419 25.4379 14.4834 25.8301 14.1248 26.2783ZM27.7389 26.2447C26.3495 26.2447 24.9713 26.2447 23.6042 26.2447C22.2372 26.2222 20.859 26.2335 19.4696 26.2783C19.0214 26.592 18.6404 26.9282 18.3267 27.2867C18.0354 27.6453 17.7104 27.9814 17.3519 28.2952H27.7389V26.2447ZM26.3271 23.2193C25.6772 22.8383 25.1954 22.3229 24.8816 21.673C24.5679 21.0231 24.3326 20.3732 24.1757 19.7234C21.5313 19.7234 18.8981 19.7234 16.2762 19.7234C13.6542 19.7234 11.021 19.757 8.37667 19.8242C8.19739 20.4965 7.91726 21.1688 7.53629 21.8411C7.15533 22.491 6.6399 23.04 5.99001 23.4882C5.65386 23.6451 5.38494 23.8916 5.18325 24.2278C4.98156 24.5415 4.86951 24.8889 4.8471 25.2698H14.2593C14.6403 24.9561 14.9876 24.6087 15.3013 24.2278C15.6151 23.8468 15.9624 23.533 16.3434 23.2865C16.7916 23.5779 17.1726 23.914 17.4863 24.295C17.8001 24.676 18.1698 25.0009 18.5956 25.2698H27.7053C27.6605 25.0905 27.6156 24.9225 27.5708 24.7656C27.5484 24.6087 27.4924 24.4182 27.4027 24.1941C27.2683 23.97 27.089 23.802 26.8649 23.6899C26.6632 23.5555 26.4839 23.3986 26.3271 23.2193ZM24.7135 18.5468C24.7808 18.1659 24.8368 17.7513 24.8816 17.3031C24.9488 16.8549 25.0049 16.4067 25.0497 15.9585H7.46906C7.51388 16.4067 7.53629 16.8549 7.53629 17.3031C7.5587 17.7513 7.59232 18.1659 7.63714 18.5468H24.7135ZM26.6632 14.7483C27.2235 13.7175 27.6044 12.6306 27.8061 11.4877C28.0078 10.3448 27.9854 9.20187 27.7389 8.05896C27.7389 7.94691 27.6941 7.87968 27.6044 7.85727C27.5372 7.83486 27.4588 7.79004 27.3691 7.72281C27.0778 7.58835 26.7865 7.4651 26.4951 7.35305C26.2038 7.21859 25.8901 7.09533 25.5539 6.98328C25.4419 7.36425 25.3186 7.74523 25.1841 8.12619C25.0497 8.50716 24.9376 8.87693 24.848 9.23549C24.2205 9.19067 23.5818 9.15705 22.9319 9.13464C22.2821 9.11223 21.6434 9.07862 21.0159 9.0338C21.0831 8.51837 21.1279 8.01414 21.1504 7.52112C21.1952 7.0281 21.2512 6.53508 21.3184 6.04206C20.9599 5.97483 20.5565 5.93002 20.1083 5.90761C19.6601 5.86279 19.2231 5.84038 18.7973 5.84038C18.7525 6.35581 18.7189 6.87124 18.6965 7.38667C18.6741 7.9021 18.6404 8.42873 18.5956 8.96657C17.9681 8.94416 17.3182 8.94416 16.6459 8.96657C15.9736 8.98898 15.2789 8.97777 14.5618 8.93295C14.517 8.91054 14.4274 8.91054 14.2929 8.93295C14.1808 8.95536 14.1248 8.93295 14.1248 8.86572C13.968 8.35029 13.9119 7.86848 13.9568 7.42028C14.024 6.94967 13.9904 6.49026 13.8559 6.04206C13.8111 5.9076 13.6766 5.84038 13.4525 5.84038C13.094 5.84038 12.713 5.86279 12.3096 5.90761C11.9286 5.93002 11.5589 5.96363 11.2003 6.00845C11.2676 6.52388 11.3348 7.0281 11.402 7.52112C11.4917 8.01414 11.5589 8.51837 11.6037 9.0338C10.9314 9.07862 10.2703 9.11223 9.62042 9.13464C8.99294 9.15705 8.35426 9.16826 7.70437 9.16826C7.59232 8.85452 7.46906 8.50716 7.3346 8.12619C7.22255 7.74523 7.11051 7.36425 6.99846 6.98328C6.61749 7.09533 6.23652 7.241 5.85555 7.42028C5.49699 7.57715 5.12722 7.74522 4.74625 7.9245C4.74625 9.08982 4.80228 10.2551 4.91433 11.4205C5.04879 12.5634 5.37373 13.6727 5.88916 14.7483H26.6632Z" fill="black"/>
<path d="M4.74622 28.2952C6.56142 28.2952 8.34301 28.3064 10.091 28.3288C11.8614 28.3288 13.6206 28.3176 15.3685 28.2952C15.0548 28.0039 14.7411 27.7013 14.4273 27.3876C14.1136 27.0514 13.7662 26.7265 13.3853 26.4128C13.2732 26.2783 13.1275 26.2223 12.9483 26.2447C12.769 26.2447 12.5897 26.2335 12.4104 26.2111C11.1331 26.2335 9.8669 26.2447 8.61194 26.2447C7.35698 26.2223 6.0684 26.2223 4.74622 26.2447V28.2952ZM14.1248 26.2783C14.5058 26.6593 14.8643 27.0178 15.2005 27.354C15.559 27.6901 15.9176 28.0151 16.2761 28.3288C16.7019 28.0151 17.1053 27.6789 17.4863 27.3204C17.8897 26.9394 18.2594 26.5584 18.5956 26.1775C18.2594 25.7965 17.9009 25.4267 17.5199 25.0682C17.1389 24.7096 16.7243 24.3398 16.2761 23.9589C15.94 24.3847 15.5814 24.7656 15.2005 25.1018C14.8419 25.4379 14.4834 25.8301 14.1248 26.2783ZM27.7389 26.2447C26.3494 26.2447 24.9712 26.2447 23.6042 26.2447C22.2372 26.2223 20.859 26.2335 19.4696 26.2783C19.0214 26.592 18.6404 26.9282 18.3267 27.2868C18.0353 27.6453 17.7104 27.9815 17.3518 28.2952H27.7389V26.2447ZM26.327 23.2193C25.6771 22.8384 25.1953 22.3229 24.8816 21.673C24.5678 21.0232 24.3325 20.3733 24.1757 19.7234C21.5313 19.7234 18.8981 19.7234 16.2761 19.7234C13.6542 19.7234 11.021 19.757 8.37663 19.8242C8.19735 20.4965 7.91723 21.1688 7.53626 21.8411C7.15529 22.491 6.63986 23.0401 5.98997 23.4883C5.65382 23.6451 5.3849 23.8916 5.18321 24.2278C4.98152 24.5415 4.86947 24.8889 4.84706 25.2699H14.2593C14.6402 24.9561 14.9876 24.6088 15.3013 24.2278C15.6151 23.8468 15.9624 23.5331 16.3434 23.2866C16.7916 23.5779 17.1725 23.914 17.4863 24.295C17.8 24.676 18.1698 25.0009 18.5956 25.2699H27.7052C27.6604 25.0906 27.6156 24.9225 27.5708 24.7656C27.5484 24.6088 27.4923 24.4183 27.4027 24.1942C27.2682 23.9701 27.089 23.802 26.8649 23.69C26.6632 23.5555 26.4839 23.3986 26.327 23.2193ZM24.7135 18.5469C24.7807 18.1659 24.8368 17.7513 24.8816 17.3031C24.9488 16.8549 25.0048 16.4067 25.0497 15.9585H7.46903C7.51385 16.4067 7.53626 16.8549 7.53626 17.3031C7.55867 17.7513 7.59228 18.1659 7.6371 18.5469H24.7135ZM26.6632 14.7484C27.2234 13.7175 27.6044 12.6306 27.8061 11.4877C28.0078 10.3448 27.9854 9.2019 27.7389 8.05899C27.7389 7.94695 27.694 7.87971 27.6044 7.8573C27.5372 7.83489 27.4587 7.79007 27.3691 7.72284C27.0778 7.58838 26.7864 7.46513 26.4951 7.35308C26.2038 7.21862 25.89 7.09536 25.5539 6.98331C25.4418 7.36428 25.3186 7.74526 25.1841 8.12623C25.0497 8.50719 24.9376 8.87696 24.848 9.23552C24.2205 9.1907 23.5818 9.15708 22.9319 9.13467C22.282 9.11226 21.6433 9.07865 21.0159 9.03383C21.0831 8.5184 21.1279 8.01417 21.1503 7.52115C21.1951 7.02813 21.2512 6.53511 21.3184 6.04209C20.9598 5.97486 20.5565 5.93005 20.1083 5.90764C19.6601 5.86282 19.2231 5.84041 18.7973 5.84041C18.7525 6.35584 18.7188 6.87127 18.6964 7.3867C18.674 7.90213 18.6404 8.42876 18.5956 8.9666C17.9681 8.94419 17.3182 8.94419 16.6459 8.9666C15.9736 8.98901 15.2789 8.9778 14.5618 8.93298C14.517 8.91057 14.4273 8.91057 14.2929 8.93298C14.1808 8.95539 14.1248 8.93298 14.1248 8.86575C13.9679 8.35033 13.9119 7.86851 13.9567 7.42031C14.0239 6.9497 13.9903 6.49029 13.8559 6.04209C13.8111 5.90763 13.6766 5.84041 13.4525 5.84041C13.0939 5.84041 12.713 5.86282 12.3096 5.90764C11.9286 5.93005 11.5588 5.96366 11.2003 6.00848C11.2675 6.52391 11.3348 7.02813 11.402 7.52115C11.4916 8.01417 11.5588 8.5184 11.6037 9.03383C10.9314 9.07865 10.2703 9.11226 9.62039 9.13467C8.99291 9.15708 8.35422 9.16829 7.70433 9.16829C7.59228 8.85455 7.46903 8.50719 7.33457 8.12623C7.22252 7.74526 7.11047 7.36428 6.99842 6.98331C6.61745 7.09536 6.23648 7.24103 5.85551 7.42031C5.49695 7.57718 5.12719 7.74525 4.74622 7.92453C4.74622 9.08985 4.80224 10.2552 4.91429 11.4205C5.04875 12.5634 5.3737 13.6727 5.88913 14.7484H26.6632Z" fill="white"/>
</svg>
