<svg width="180" height="180" viewBox="0 0 180 180" fill="none" xmlns="http://www.w3.org/2000/svg">
<path d="M138.655 161.431H43.6055L66.7316 111.96L22.5 35.2469C35.2731 39.2384 47.3227 45.126 58.6485 52.9096C63.3887 56.3023 67.5551 59.6453 71.1473 62.9387C76.3363 52.4107 83.0222 42.6811 91.2049 33.75C99.288 42.8308 105.949 52.5603 111.188 62.9387C115.18 59.346 119.371 56.0031 123.761 52.9096C134.938 45.126 146.963 39.2384 159.835 35.2469L115.604 111.96L138.655 161.431ZM130.796 156.416L112.535 117.274L95.0968 147.435C93.8992 149.73 92.6021 150.878 91.2049 150.878C89.8082 150.878 88.4857 149.73 87.2387 147.435L69.8749 117.274L51.5388 156.416H130.796ZM131.994 73.4912L148.534 44.8266C140.701 48.2694 133.391 52.3608 126.605 57.1005C121.816 60.4935 117.075 64.3607 112.385 68.7015C118.822 69.7489 125.358 71.3458 131.994 73.4912ZM129.449 77.9816C117.075 73.9901 104.327 71.9944 91.2049 71.9944C78.0328 71.9944 65.3096 73.9901 53.0356 77.9816L91.2049 144.217L129.449 77.9816ZM50.4161 73.4912C56.9025 71.3458 63.414 69.7489 69.9497 68.7015C65.2101 64.3607 60.4699 60.4935 55.7299 57.1005C49.044 52.4606 41.7594 48.3692 33.876 44.8266L50.4161 73.4912ZM108.194 68.1024C103.554 58.5225 97.8907 49.6914 91.2049 41.6084C84.3694 49.6415 78.7067 58.473 74.2157 68.1024C79.5549 67.3042 85.2176 66.9049 91.2049 66.9049C97.1426 66.9049 102.806 67.3042 108.194 68.1024ZM98.9139 87.3371C98.9139 84.942 99.6621 82.8714 101.159 81.1249C102.656 79.3288 104.452 78.4311 106.548 78.4311C108.643 78.4311 110.44 79.3288 111.936 81.1249C113.433 82.8714 114.182 84.942 114.182 87.3371C114.182 93.2743 111.637 96.2432 106.548 96.2432C101.459 96.2432 98.9139 93.2743 98.9139 87.3371ZM104.003 87.3371C104.003 89.9314 104.851 91.2291 106.548 91.2291C108.244 91.2291 109.092 89.9314 109.092 87.3371C109.092 84.7924 108.244 83.52 106.548 83.52C104.851 83.52 104.003 84.7924 104.003 87.3371ZM68.2284 87.3371C68.2284 84.942 68.9771 82.8714 70.4739 81.1249C71.9707 79.3288 73.7668 78.4311 75.8627 78.4311C77.958 78.4311 79.7541 79.3288 81.2509 81.1249C82.7477 82.8714 83.4964 84.942 83.4964 87.3371C83.4964 93.2743 80.9516 96.2432 75.8627 96.2432C70.7732 96.2432 68.2284 93.2743 68.2284 87.3371ZM73.3179 87.3371C73.3179 89.9314 74.1662 91.2291 75.8627 91.2291C77.5586 91.2291 78.4069 89.9314 78.4069 87.3371C78.4069 84.7924 77.5586 83.52 75.8627 83.52C74.1662 83.52 73.3179 84.7924 73.3179 87.3371ZM93.8244 113.606L98.2401 110.014C99.5872 109.016 100.785 109.016 101.833 110.014C103.03 111.212 103.03 112.409 101.833 113.606L93.1511 122.213C92.6021 122.912 91.9536 123.261 91.2049 123.261C90.5068 123.261 89.8577 122.912 89.2592 122.213L80.6524 113.606C79.4548 112.409 79.4548 111.212 80.6524 110.014C81.6502 109.016 82.8478 109.016 84.2451 110.014L88.5111 113.606V84.7924C88.5111 83.0458 89.4088 82.1728 91.2049 82.1728C92.9514 82.1728 93.8244 83.0458 93.8244 84.7924V113.606Z" fill="#032D3C"/>
<path d="M130.796 156.416L112.535 117.274L95.0968 147.435C93.8992 149.73 92.6021 150.878 91.2049 150.878C89.8076 150.878 88.4857 149.73 87.2381 147.435L69.8749 117.274L51.5385 156.416H130.796ZM131.994 73.4912L148.534 44.8266C140.7 48.2694 133.391 52.3607 126.605 57.1005C121.816 60.4935 117.075 64.3607 112.385 68.7015C118.822 69.7489 125.358 71.3458 131.994 73.4912ZM129.449 77.9816C117.075 73.9901 104.327 71.9944 91.2049 71.9944C78.0328 71.9944 65.3096 73.9901 53.0354 77.9816L91.2049 144.217L129.449 77.9816ZM50.416 73.4912C56.9025 71.3458 63.4134 69.7489 69.9497 68.7015C65.2095 64.3607 60.4699 60.4935 55.7297 57.1005C49.0439 52.4605 41.7592 48.3691 33.8758 44.8266L50.416 73.4912ZM108.194 68.1024C103.554 58.5225 97.8907 49.6914 91.2049 41.6084C84.3694 49.6415 78.7061 58.473 74.2157 68.1024C79.5544 67.3042 85.2176 66.9049 91.2049 66.9049C97.1426 66.9049 102.805 67.3042 108.194 68.1024ZM98.9139 87.3371C98.9139 84.942 99.6621 82.8714 101.159 81.1249C102.656 79.3288 104.452 78.4305 106.548 78.4305C108.643 78.4305 110.44 79.3288 111.936 81.1249C113.433 82.8714 114.181 84.942 114.181 87.3371C114.181 93.2743 111.637 96.2432 106.548 96.2432C101.458 96.2432 98.9139 93.2743 98.9139 87.3371ZM104.003 87.3371C104.003 89.9314 104.851 91.2285 106.548 91.2285C108.244 91.2285 109.092 89.9314 109.092 87.3371C109.092 84.7924 108.244 83.52 106.548 83.52C104.851 83.52 104.003 84.7924 104.003 87.3371ZM68.2284 87.3371C68.2284 84.942 68.9766 82.8714 70.4734 81.1249C71.9707 79.3288 73.7668 78.4305 75.8621 78.4305C77.958 78.4305 79.7541 79.3288 81.2509 81.1249C82.7477 82.8714 83.4964 84.942 83.4964 87.3371C83.4964 93.2743 80.9516 96.2432 75.8621 96.2432C70.7732 96.2432 68.2284 93.2743 68.2284 87.3371ZM73.3174 87.3371C73.3174 89.9314 74.1656 91.2285 75.8621 91.2285C77.5586 91.2285 78.4069 89.9314 78.4069 87.3371C78.4069 84.7924 77.5586 83.52 75.8621 83.52C74.1656 83.52 73.3174 84.7924 73.3174 87.3371ZM93.8244 113.606L98.2401 110.014C99.5872 109.016 100.785 109.016 101.833 110.014C103.03 111.212 103.03 112.409 101.833 113.606L93.1506 122.213C92.6021 122.912 91.9536 123.261 91.2049 123.261C90.5062 123.261 89.8577 122.912 89.2592 122.213L80.6524 113.606C79.4548 112.409 79.4548 111.212 80.6524 110.014C81.6502 109.016 82.8478 109.016 84.2445 110.014L88.5105 113.606V84.7924C88.5105 83.0458 89.4088 82.1728 91.2049 82.1728C92.9514 82.1728 93.8244 83.0458 93.8244 84.7924V113.606Z" fill="#F7FF56"/>
</svg>
