<svg width="180" height="180" viewBox="0 0 180 180" fill="none" xmlns="http://www.w3.org/2000/svg">
<path d="M60.6724 133.44H117.552C104.929 119.369 97.4447 103.004 95.0996 84.3435C93.204 84.7924 91.2082 85.0168 89.1124 85.0168C87.0666 85.0168 85.0708 84.7924 83.1251 84.3435C80.6304 103.004 73.1458 119.369 60.6724 133.44ZM89.1124 79.7029C94.6507 79.7029 99.4157 77.7324 103.407 73.7904C107.399 69.7989 109.394 64.9839 109.394 59.346C109.394 53.8077 107.399 49.0427 103.407 45.0512C99.4157 41.0596 94.6507 39.0638 89.1124 39.0638C83.4744 39.0638 78.6594 41.0596 74.6679 45.0512C70.7259 49.0427 68.7555 53.8077 68.7555 59.346C68.7555 64.9839 70.7259 69.7989 74.6679 73.7904C78.6594 77.7324 83.4744 79.7029 89.1124 79.7029ZM137.46 138.454H40.6895L48.997 156.416H129.153L137.46 138.454ZM141.203 133.44C142.899 133.39 143.922 133.689 144.271 134.338C144.57 134.986 144.496 135.76 144.047 136.658L132.371 161.431H45.8536L34.2531 136.658C33.7043 135.76 33.6045 134.986 33.9537 134.338C34.3529 133.689 35.3757 133.39 37.0223 133.44H53.7121C67.6327 119.369 75.8154 102.43 78.2601 82.6217C73.8697 80.5764 70.3018 77.4827 67.5579 73.3416C64.8135 69.1504 63.4416 64.485 63.4416 59.346C63.4416 52.3109 65.9362 46.2985 70.9256 41.309C75.9651 36.2697 82.0271 33.75 89.1124 33.75C96.1476 33.75 102.185 36.2697 107.224 41.309C112.264 46.2985 114.783 52.3109 114.783 59.346C114.783 64.485 113.386 69.1504 110.592 73.3416C107.848 77.4827 104.305 80.5764 99.9647 82.6217C101.112 92.5009 103.831 101.782 108.122 110.463C112.413 119.095 117.877 126.754 124.513 133.44H141.203Z" fill="#032D3C"/>
<path d="M60.6724 133.44H117.552C104.929 119.369 97.4447 103.004 95.0996 84.3429C93.2034 84.7924 91.2077 85.0168 89.1124 85.0168C87.0666 85.0168 85.0708 84.7924 83.1251 84.3429C80.6304 103.004 73.1458 119.369 60.6724 133.44ZM89.1124 79.7029C94.6507 79.7029 99.4157 77.7319 103.407 73.7904C107.399 69.7989 109.394 64.9839 109.394 59.346C109.394 53.8076 107.399 49.0426 103.407 45.0511C99.4157 41.0595 94.6507 39.0637 89.1124 39.0637C83.4744 39.0637 78.6594 41.0595 74.6679 45.0511C70.7259 49.0426 68.7555 53.8076 68.7555 59.346C68.7555 64.9839 70.7259 69.7989 74.6679 73.7904C78.6594 77.7319 83.4744 79.7029 89.1124 79.7029ZM137.46 138.454H40.6894L48.9969 156.416H129.153L137.46 138.454Z" fill="#F7FF56"/>
</svg>
