<svg width="180" height="180" viewBox="0 0 180 180" fill="none" xmlns="http://www.w3.org/2000/svg">
<path d="M108.931 124.246L88.7237 48.8051L68.4416 124.171C75.0274 125.518 81.788 126.192 88.7237 126.192C95.4596 126.192 102.195 125.543 108.931 124.246ZM39.702 113.993C46.5375 117.585 53.4729 120.354 60.5081 122.3L33.6397 64.8214L39.702 113.993ZM134.751 137.942L136.922 120.055C121.754 127.539 105.688 131.281 88.7237 131.281C71.7097 131.281 55.6184 127.539 40.4504 120.055L42.6956 137.942C57.4144 143.83 72.7571 146.774 88.7237 146.774C104.69 146.774 120.032 143.83 134.751 137.942ZM134.078 143.705C119.359 149.143 104.241 151.863 88.7237 151.863C73.1565 151.863 58.0382 149.143 43.3692 143.705L44.0428 149.318C58.4623 154.407 73.3562 156.952 88.7237 156.952C103.942 156.952 118.81 154.432 133.329 149.393L134.078 143.705ZM28.6253 64.7466C27.6773 56.8131 28.0765 52.5722 29.8228 52.0233C31.7687 51.4745 34.937 55.7405 39.3277 64.8214L64.5497 119.007L84.308 45.6617C85.6052 41.4706 87.0772 39.375 88.7237 39.375C90.32 39.375 91.7921 41.4706 93.1393 45.6617L112.823 119.082L138.12 64.7466C142.51 55.6656 145.729 51.3996 147.774 51.9485C149.47 52.4973 149.845 56.7883 148.897 64.8214L138.045 152.985C122.078 158.973 105.638 161.966 88.7237 161.966C71.5595 161.966 55.1195 158.973 39.4026 152.985L28.6253 64.7466ZM143.508 67.2165C143.658 66.1686 143.658 65.6449 143.508 65.6449C143.358 65.5948 143.084 66.0437 142.685 66.9915C138.344 76.2221 134.028 85.4527 129.737 94.6834C125.496 103.864 121.23 113.07 116.939 122.3C124.373 120.205 131.284 117.435 137.67 113.993C138.619 106.209 139.591 98.3509 140.589 90.4174C141.637 82.4839 142.61 74.7506 143.508 67.2165Z" fill="#032D3C"/>
<path d="M108.931 124.246L88.7231 48.805L68.441 124.171C75.0273 125.518 81.788 126.192 88.7231 126.192C95.459 126.192 102.195 125.543 108.931 124.246ZM39.7016 113.992C46.5372 117.585 53.4726 120.354 60.5075 122.3L33.6394 64.8214L39.7016 113.992ZM134.751 137.942L136.921 120.055C121.754 127.539 105.687 131.281 88.7231 131.281C71.7091 131.281 55.618 127.539 40.45 120.055L42.6953 137.942C57.4143 143.83 72.7571 146.773 88.7231 146.773C104.69 146.773 120.032 143.83 134.751 137.942ZM134.077 143.705C119.358 149.144 104.241 151.863 88.7231 151.863C73.1559 151.863 58.0381 149.144 43.3689 143.705L44.0424 149.318C58.4622 154.407 73.3556 156.952 88.7231 156.952C103.941 156.952 118.81 154.432 133.329 149.393L134.077 143.705ZM143.508 67.2159C143.657 66.1686 143.657 65.6443 143.508 65.6443C143.358 65.5943 143.084 66.0437 142.684 66.9915C138.343 76.2221 134.028 85.4528 129.737 94.6834C125.496 103.864 121.23 113.069 116.939 122.3C124.373 120.205 131.284 117.435 137.67 113.992C138.618 106.209 139.591 98.3503 140.589 90.4174C141.637 82.4839 142.609 74.7501 143.508 67.2159Z" fill="#F7FF56"/>
</svg>
