<svg width="180" height="180" viewBox="0 0 180 180" fill="none" xmlns="http://www.w3.org/2000/svg">
<path d="M85.8223 133.589V156.581H49.7399L28.125 164.676V141.77L49.7399 133.589H85.8223ZM79.2776 140.047H50.7733L34.4975 146.248V155.548L48.1037 150.381H79.2776V140.047ZM101.581 140.219V150.123H132.583L146.361 155.548V146.248L130.344 140.219H101.581ZM81.6885 60.9075C81.6885 60.9075 79.794 60.9936 76.005 61.1657C72.216 61.2804 68.0248 61.9982 63.432 63.3184C58.8966 64.5818 54.6772 66.6771 50.7733 69.6049C46.9268 72.5327 44.9175 76.7813 44.7452 82.35V98.2817C44.7452 98.2817 45.348 100.234 46.5537 104.137C47.8167 108.041 50.5723 112.605 54.8207 117.83H126.21C126.21 117.83 127.789 115.476 130.947 110.768C134.104 106.061 136.056 101.726 136.802 97.7647V82.5221C136.802 80.4555 135.998 77.8146 134.391 74.5999L114.154 94.7509L98.1366 78.8192L114.24 62.7159C114.413 62.6586 112.948 62.3138 109.848 61.6826C106.806 60.9936 103.304 60.7354 99.3426 60.9075L90.6446 55.9988L81.6885 60.9075ZM90.7307 22.5L109.59 41.4453L99.6008 51.4347L101.064 54.3626C107.954 54.3626 113.838 55.3099 118.718 57.2046C123.655 59.0417 126.124 59.9603 126.124 59.9603L107.179 78.9053L114.326 86.0529L134.822 65.6438C138.841 68.7437 141.223 72.3032 141.969 76.3223C142.716 80.3408 143.089 82.35 143.089 82.35V98.3678C142.055 104.74 140.046 110.079 137.061 114.385C134.075 118.634 132.583 120.758 132.583 120.758V124.202H48.7065V119.982C44.1137 114.528 41.2432 109.591 40.095 105.171C38.9468 100.75 38.3727 98.5399 38.3727 98.5399V82.5221C38.4302 75.2884 40.6405 69.777 45.0036 65.988C49.3667 62.1416 54.1318 59.3572 59.2987 57.6349C64.4659 55.9127 69.2021 54.9367 73.5075 54.7071C77.8134 54.4774 79.9661 54.3626 79.9661 54.3626L81.5164 51.5208L71.613 41.6176L90.7307 22.5ZM95.1227 133.589H131.205L152.82 141.77V164.676L131.205 156.581H95.1227V133.589ZM80.6552 41.5315L90.5586 51.5208L100.548 41.5315L90.5586 31.5421L80.6552 41.5315Z" fill="#54123B"/>
<path d="M79.2776 140.047H50.7734L34.4976 146.248V155.548L48.1038 150.382H79.2776V140.047ZM101.581 140.219V150.123H132.583L146.361 155.548V146.248L130.344 140.219H101.581ZM81.6885 60.9075C81.6885 60.9075 79.794 60.9936 76.005 61.1657C72.216 61.2804 68.0254 61.9982 63.4326 63.3189C58.8972 64.5817 54.6773 66.677 50.7734 69.6049C46.9269 72.5332 44.9176 76.7812 44.7453 82.35V98.2817C44.7453 98.2817 45.3481 100.234 46.5538 104.137C47.8167 108.041 50.5724 112.605 54.8208 117.83H126.21C126.21 117.83 127.789 115.476 130.947 110.768C134.104 106.06 136.056 101.726 136.802 97.7647V82.5221C136.802 80.4555 135.999 77.8146 134.391 74.5999L114.154 94.7509L98.1366 78.8192L114.24 62.7159C114.413 62.6585 112.948 62.3137 109.848 61.6826C106.806 60.9936 103.304 60.7354 99.3426 60.9075L90.6446 55.9989L81.6885 60.9075ZM80.6552 41.5316L90.5586 51.5209L100.548 41.5316L90.5586 31.5422L80.6552 41.5316Z" fill="#29C7AC"/>
</svg>
