<svg width="180" height="180" viewBox="0 0 180 180" fill="none" xmlns="http://www.w3.org/2000/svg">
<path d="M82.3781 67.6969C79.2973 65.1094 77.7566 61.7906 77.7566 57.7406C77.7566 54.1969 78.9457 51.1875 81.3246 48.7125C83.7028 46.2375 86.5946 45 90 45C93.3514 45 96.2162 46.2375 98.5944 48.7125C101.027 51.1875 102.243 54.1969 102.243 57.7406C102.243 61.8469 100.703 65.1656 97.6213 67.6969C102.378 69.2156 106.297 72.0281 109.378 76.1344C112.513 80.2406 114.081 84.9094 114.081 90.1406C114.081 99.3094 110.081 106.116 102.081 110.559C110.676 112.753 118.054 116.972 124.216 123.216C130.432 129.459 133.973 136.575 134.838 144.563C134.892 144.9 134.919 145.828 134.919 147.347L135 151.819L134.919 163.125H45.0811C45.027 163.125 45 161.466 45 158.147C45 154.772 45 152.494 45 151.312C45 150.075 45 148.781 45 147.431C45 146.025 45.027 145.097 45.0811 144.647C46.0541 136.378 49.6487 129.15 55.8649 122.963C62.1349 116.775 69.5947 112.612 78.2432 110.475C70.2433 105.919 66.2434 99.1406 66.2434 90.1406C66.2434 84.9094 67.7295 80.2125 70.7029 76.05C73.6217 72.0563 77.5136 69.2719 82.3781 67.6969Z" fill="#54123B"/>
</svg>
