<svg width="32" height="32" viewBox="0 0 32 32" fill="none" xmlns="http://www.w3.org/2000/svg">
<path d="M18.8899 19.5798L16.5192 18.3792L14.0877 19.5798L16.5192 20.7651L18.8899 19.5798ZM10.8356 20.6588L12.9784 19.5798L10.6076 18.3792L10.1365 18.6224L10.8356 20.6588ZM22.2332 20.6892L22.8867 18.6984L22.4308 18.3792L19.9993 19.5798L22.2332 20.6892ZM11.2459 21.7073C10.9014 21.7073 10.7292 21.8796 10.7292 22.224C10.7292 22.5685 10.9014 22.7407 11.2459 22.7407H21.671C22.0154 22.7407 22.1877 22.5685 22.1877 22.224C22.1877 21.8796 22.0154 21.7073 21.671 21.7073H11.2459ZM9.19433 24.7771C8.84987 24.7771 8.67764 24.9595 8.67764 25.3242C8.67764 25.6991 8.84987 25.8865 9.19433 25.8865H23.7225C24.067 25.8865 24.2392 25.6991 24.2392 25.3242C24.2392 24.9595 24.067 24.7771 23.7225 24.7771H9.19433ZM14.3765 10.2641C14.032 10.2641 13.8598 10.4363 13.8598 10.7808C13.8598 11.1253 14.032 11.2975 14.3765 11.2975H18.5404C18.8747 11.2975 19.0419 11.1253 19.0419 10.7808C19.0419 10.4363 18.8747 10.2641 18.5404 10.2641H14.3765ZM13.8598 6.66244V4.58047L15.6682 4.83882L15.425 3H17.4766L17.2335 4.83882L19.0419 4.58047V6.66244L17.2335 6.3889V8.25812H15.6682V6.3889L13.8598 6.66244ZM8.4041 24.7619C8.22173 24.4478 8.13055 24.1186 8.13055 23.7741C8.13055 23.2169 8.33318 22.7407 8.73843 22.3456C9.14368 21.9404 9.63504 21.7529 10.2125 21.7833C9.65531 19.9293 9.20447 18.6274 8.86 17.8777C8.51554 17.128 7.94819 16.3277 7.15796 15.4766C6.50956 14.7472 5.9878 14.195 5.59268 13.8202C5.19756 13.4352 5 12.959 5 12.3917V12.3765C5 11.8193 5.19756 11.338 5.59268 10.9328C5.99793 10.5275 6.48929 10.3249 7.06677 10.3249H13.5862C13.414 10.1223 13.3279 9.9399 13.3279 9.7778C13.3279 8.76468 13.8344 8.25812 14.8476 8.25812H18.0693C19.0824 8.25812 19.589 8.76468 19.589 9.7778C19.589 9.95004 19.4978 10.1324 19.3154 10.3249H25.8501C26.4073 10.3249 26.8886 10.5275 27.2938 10.9328C27.6991 11.338 27.9017 11.8193 27.9017 12.3765V12.3917C27.9017 12.959 27.6889 13.4251 27.2634 13.7898C26.848 14.1444 26.306 14.6864 25.6373 15.4158C24.9079 16.3175 24.3608 17.1635 23.9961 17.9537C23.6314 18.744 23.2058 20.0205 22.7195 21.7833C23.2768 21.7529 23.758 21.9404 24.1632 22.3456C24.5685 22.7407 24.7711 23.2169 24.7711 23.7741C24.7711 24.1186 24.6951 24.4478 24.5432 24.7619H25.303C26.0122 24.7619 26.6201 25.0203 27.1266 25.537C27.6433 26.0435 27.9017 26.6514 27.9017 27.3606C27.9017 28.0799 27.6433 28.6928 27.1266 29.1994C26.6201 29.706 26.0122 29.9592 25.303 29.9592H7.61386C6.88441 29.9592 6.26641 29.706 5.75984 29.1994C5.25328 28.6928 5 28.0799 5 27.3606C5 26.6514 5.25328 26.0435 5.75984 25.537C6.26641 25.0203 6.88441 24.7619 7.61386 24.7619H8.4041ZM9.72622 16.51C9.39189 16.51 9.22473 16.6822 9.22473 17.0267C9.22473 17.3712 9.39189 17.5434 9.72622 17.5434H23.1755C23.5199 17.5434 23.6921 17.3712 23.6921 17.0267C23.6921 16.6822 23.5199 16.51 23.1755 16.51H9.72622Z" fill="#1B3644"/>
<path d="M18.8899 19.5798L16.5192 18.3792L14.0877 19.5798L16.5192 20.7651L18.8899 19.5798ZM10.8356 20.6588L12.9783 19.5798L10.6076 18.3792L10.1365 18.6224L10.8356 20.6588ZM22.2332 20.6892L22.8867 18.6984L22.4308 18.3792L19.9993 19.5798L22.2332 20.6892ZM11.2459 21.7073C10.9014 21.7073 10.7292 21.8796 10.7292 22.224C10.7292 22.5685 10.9014 22.7407 11.2459 22.7407H21.6709C22.0154 22.7407 22.1876 22.5685 22.1876 22.224C22.1876 21.8796 22.0154 21.7073 21.6709 21.7073H11.2459ZM9.1943 24.7771C8.84984 24.7771 8.67761 24.9595 8.67761 25.3242C8.67761 25.6991 8.84984 25.8865 9.1943 25.8865H23.7225C24.067 25.8865 24.2392 25.6991 24.2392 25.3242C24.2392 24.9595 24.067 24.7771 23.7225 24.7771H9.1943ZM14.3764 10.2641C14.032 10.2641 13.8597 10.4363 13.8597 10.7808C13.8597 11.1253 14.032 11.2975 14.3764 11.2975H18.5404C18.8747 11.2975 19.0419 11.1253 19.0419 10.7808C19.0419 10.4363 18.8747 10.2641 18.5404 10.2641H14.3764ZM9.72619 16.51C9.39186 16.51 9.2247 16.6822 9.2247 17.0267C9.2247 17.3712 9.39186 17.5434 9.72619 17.5434H23.1754C23.5199 17.5434 23.6921 17.3712 23.6921 17.0267C23.6921 16.6822 23.5199 16.51 23.1754 16.51H9.72619Z" fill="#417282"/>
</svg>
