<svg width="32" height="32" viewBox="0 0 32 32" fill="none" xmlns="http://www.w3.org/2000/svg">
<path d="M16.1179 13.2502C15.3964 13.2502 14.7832 13.3043 14.2782 13.4125C13.7733 13.5117 13.5208 13.6335 13.5208 13.7778C13.5208 13.9311 13.7733 14.0573 14.2782 14.1565C14.7832 14.2557 15.3964 14.3053 16.1179 14.3053C16.8212 14.3053 17.4299 14.2557 17.9439 14.1565C18.4579 14.0573 18.715 13.9311 18.715 13.7778C18.715 13.6335 18.4579 13.5117 17.9439 13.4125C17.4299 13.3043 16.8212 13.2502 16.1179 13.2502ZM19.9053 17.1053C19.9684 19.4318 20.3742 21.4022 21.1227 23.0164C21.8711 24.6215 22.7368 25.4241 23.7198 25.4241H24.0714C24.7027 25.4241 25.2437 25.654 25.6946 26.1139C26.1545 26.5648 26.3845 27.1059 26.3845 27.7371C26.3845 28.3774 26.1545 28.923 25.6946 29.3738C25.2437 29.8247 24.7027 30.0502 24.0714 30.0502H8.32657C7.6773 30.0502 7.12721 29.8247 6.67633 29.3738C6.22544 28.923 6 28.3774 6 27.7371C6 27.1059 6.22544 26.5648 6.67633 26.1139C7.12721 25.654 7.6773 25.4241 8.32657 25.4241H8.71884C9.6747 25.4241 10.5269 24.6215 11.2753 23.0164C12.0328 21.4022 12.4567 19.4318 12.5469 17.1053H10.6261C10.1121 17.1053 9.6747 16.9294 9.314 16.5777C8.96231 16.2261 8.78647 15.7932 8.78647 15.2792C8.78647 14.7742 8.96231 14.3414 9.314 13.9807C9.6747 13.6199 10.1121 13.4396 10.6261 13.4396H13.5343C12.5063 12.61 11.9923 11.5324 11.9923 10.2068C11.9923 9.05249 12.4026 8.06505 13.2232 7.24444C14.0438 6.41481 15.0357 6 16.199 6C17.3533 6 18.3407 6.41481 19.1613 7.24444C19.9819 8.06505 20.3922 9.05249 20.3922 10.2068C20.3922 11.5233 19.8872 12.6009 18.8773 13.4396H21.7719C22.2679 13.4396 22.6963 13.6199 23.057 13.9807C23.4177 14.3414 23.598 14.7742 23.598 15.2792C23.598 15.7932 23.4177 16.2261 23.057 16.5777C22.6963 16.9294 22.2679 17.1053 21.7719 17.1053H19.9053ZM13.4396 16.9024C13.133 16.9024 12.9797 17.0737 12.9797 17.4164C12.9797 17.75 13.133 17.9169 13.4396 17.9169H18.9584C19.265 17.9169 19.4183 17.75 19.4183 17.4164C19.4183 17.0737 19.265 16.9024 18.9584 16.9024H13.4396ZM10.6667 24.9371C10.351 24.9371 10.1932 25.113 10.1932 25.4647C10.1932 25.8164 10.351 25.9922 10.6667 25.9922H21.7314C22.047 25.9922 22.2048 25.8164 22.2048 25.4647C22.2048 25.113 22.047 24.9371 21.7314 24.9371H10.6667Z" fill="#1B3644"/>
<path d="M16.1178 13.2502C15.3964 13.2502 14.7832 13.3043 14.2782 13.4125C13.7732 13.5117 13.5207 13.6335 13.5207 13.7777C13.5207 13.931 13.7732 14.0573 14.2782 14.1565C14.7832 14.2557 15.3964 14.3053 16.1178 14.3053C16.8212 14.3053 17.4299 14.2557 17.9439 14.1565C18.4579 14.0573 18.7149 13.931 18.7149 13.7777C18.7149 13.6335 18.4579 13.5117 17.9439 13.4125C17.4299 13.3043 16.8212 13.2502 16.1178 13.2502ZM13.4395 16.9024C13.1329 16.9024 12.9796 17.0737 12.9796 17.4164C12.9796 17.75 13.1329 17.9169 13.4395 17.9169H18.9584C19.265 17.9169 19.4183 17.75 19.4183 17.4164C19.4183 17.0737 19.265 16.9024 18.9584 16.9024H13.4395ZM10.6666 24.9371C10.351 24.9371 10.1932 25.113 10.1932 25.4647C10.1932 25.8163 10.351 25.9922 10.6666 25.9922H21.7313C22.0469 25.9922 22.2047 25.8163 22.2047 25.4647C22.2047 25.113 22.0469 24.9371 21.7313 24.9371H10.6666Z" fill="#417282"/>
</svg>
