<svg width="32" height="32" viewBox="0 0 32 32" fill="none" xmlns="http://www.w3.org/2000/svg">
<path d="M12.2823 11.2337L12.0847 12.4191C12.5001 12.4697 12.8699 12.495 13.1941 12.495C14.5112 12.495 15.5142 12.0594 16.2031 11.1881C16.507 11.5832 16.9224 11.8821 17.4492 12.0847C17.9761 12.2772 18.5586 12.414 19.1969 12.495C19.6021 12.5558 19.9871 12.5406 20.3518 12.4495L20.0935 11.2337C19.3336 11.4262 18.5789 11.3299 17.8291 10.945C17.0794 10.5498 16.5374 10.0534 16.2031 9.45567C15.8485 10.023 15.3267 10.5043 14.6378 10.8994C13.9489 11.2844 13.1637 11.3958 12.2823 11.2337ZM13.9539 15.0329L16.2031 16.2183L18.513 15.0329L16.2031 13.8476L13.9539 15.0329ZM13.9539 17.8899L16.2031 19.0753L18.513 17.8899L16.2031 16.7046L13.9539 17.8899ZM18.4218 16.5982L20.671 17.7684L22.9961 16.5982L20.671 15.3977L18.4218 16.5982ZM9.41008 16.5982L11.6744 17.7684L13.9843 16.5982L11.6744 15.3977L9.41008 16.5982ZM17.9659 7.73843C18.7967 8.07276 19.4755 8.58439 20.0023 9.27331C20.5291 9.96224 20.7976 10.7373 20.8077 11.5984C21.2738 11.4465 21.6689 11.2084 21.9931 10.8842C22.3173 10.56 22.6314 10.1851 22.9353 9.75961C23.2798 11.0969 24.0396 11.7656 25.2148 11.7656C25.7619 11.7656 26.3394 11.5934 26.9473 11.2489C27.5551 10.9044 28.0414 10.4435 28.4062 9.86599L22.4642 21.2484C23.0011 21.289 23.4773 21.5068 23.8927 21.9019C24.3081 22.2869 24.5158 22.758 24.5158 23.3152C24.5158 23.6293 24.4246 23.9585 24.2422 24.303H25.0477C25.7568 24.303 26.3647 24.5614 26.8713 25.0781C27.388 25.5846 27.6463 26.1925 27.6463 26.9017C27.6463 27.621 27.388 28.2339 26.8713 28.7405C26.3647 29.2471 25.7568 29.5003 25.0477 29.5003H7.35851C6.62906 29.5003 6.01105 29.2471 5.50449 28.7405C4.99793 28.2339 4.74465 27.621 4.74465 26.9017C4.74465 26.1925 4.99793 25.5846 5.50449 25.0781C6.01105 24.5614 6.62906 24.303 7.35851 24.303H8.10315C7.95119 24.1004 7.8752 23.7711 7.8752 23.3152C7.8752 22.758 8.08289 22.2869 8.49827 21.9019C8.91365 21.5068 9.39489 21.294 9.94197 21.2636L4 9.86599C4.86116 11.1324 5.90974 11.7656 7.14575 11.7656C8.34124 11.7656 9.11628 11.102 9.47087 9.77481C10.0078 10.6258 10.7373 11.2286 11.6592 11.5832C11.639 10.7322 11.8872 9.96224 12.4039 9.27331C12.9206 8.58439 13.5943 8.07276 14.425 7.73843C14.0907 7.29265 13.9236 6.80635 13.9236 6.27953C13.9236 5.65139 14.1414 5.11444 14.577 4.66866C15.0228 4.22289 15.5648 4 16.2031 4C16.8312 4 17.3682 4.22289 17.814 4.66866C18.2597 5.11444 18.4826 5.65139 18.4826 6.27953C18.4826 6.81649 18.3104 7.30279 17.9659 7.73843ZM17.8899 8.27032L17.3884 7.44969C17.044 7.75363 16.6489 7.90559 16.2031 7.90559C15.7877 7.90559 15.428 7.76882 15.1241 7.49528L14.4706 8.27032C14.9468 8.71609 15.5243 8.93898 16.2031 8.93898C16.8819 8.93898 17.4442 8.71609 17.8899 8.27032ZM10.7322 20.3518C10.3776 20.3518 10.2003 20.5393 10.2003 20.9141C10.2003 21.289 10.3776 21.4764 10.7322 21.4764H21.674C22.0286 21.4764 22.2058 21.289 22.2058 20.9141C22.2058 20.5393 22.0286 20.3518 21.674 20.3518H10.7322ZM8.98457 24.0599C8.60972 24.0599 8.42229 24.2676 8.42229 24.6829C8.42229 25.1084 8.60972 25.3212 8.98457 25.3212H23.4064C23.7914 25.3212 23.9839 25.1084 23.9839 24.6829C23.9839 24.2676 23.7914 24.0599 23.4064 24.0599H8.98457Z" fill="#1B3644"/>
<path d="M12.2823 11.2337L12.0847 12.4191C12.5001 12.4697 12.8699 12.495 13.1941 12.495C14.5112 12.495 15.5142 12.0594 16.2031 11.1881C16.507 11.5832 16.9224 11.8821 17.4492 12.0847C17.9761 12.2772 18.5586 12.414 19.1969 12.495C19.6021 12.5558 19.9871 12.5406 20.3518 12.4495L20.0935 11.2337C19.3336 11.4262 18.5789 11.33 17.8292 10.945C17.0794 10.5498 16.5374 10.0534 16.2031 9.45567C15.8485 10.023 15.3267 10.5043 14.6378 10.8994C13.9489 11.2844 13.1637 11.3958 12.2823 11.2337ZM13.954 15.0329L16.2031 16.2183L18.513 15.0329L16.2031 13.8476L13.954 15.0329ZM13.954 17.8899L16.2031 19.0753L18.513 17.8899L16.2031 16.7046L13.954 17.8899ZM18.4218 16.5982L20.671 17.7684L22.9961 16.5982L20.671 15.3977L18.4218 16.5982ZM9.41009 16.5982L11.6744 17.7684L13.9844 16.5982L11.6744 15.3977L9.41009 16.5982ZM17.8899 8.27032L17.3885 7.44969C17.044 7.75363 16.6489 7.9056 16.2031 7.9056C15.7877 7.9056 15.4281 7.76883 15.1241 7.49528L14.4707 8.27032C14.9468 8.7161 15.5243 8.93898 16.2031 8.93898C16.8819 8.93898 17.4442 8.7161 17.8899 8.27032ZM10.7322 20.3518C10.3776 20.3518 10.2003 20.5393 10.2003 20.9141C10.2003 21.289 10.3776 21.4764 10.7322 21.4764H21.674C22.0286 21.4764 22.2059 21.289 22.2059 20.9141C22.2059 20.5393 22.0286 20.3518 21.674 20.3518H10.7322ZM8.98458 24.0599C8.60973 24.0599 8.4223 24.2676 8.4223 24.6829C8.4223 25.1084 8.60973 25.3212 8.98458 25.3212H23.4064C23.7914 25.3212 23.9839 25.1084 23.9839 24.6829C23.9839 24.2676 23.7914 24.0599 23.4064 24.0599H8.98458Z" fill="#417282"/>
</svg>
