<svg width="180" height="180" viewBox="0 0 180 180" fill="none" xmlns="http://www.w3.org/2000/svg">
<path d="M81.6716 146.212V125.3L62.3745 125.377L60.3759 137.14L51.6885 146.212H81.6716ZM86.8224 33.3528V54.4946H97.2011V33.3528H86.8224ZM92.2039 69.8704H115.806L123.571 59.4146H92.2039H60.8372L68.5249 69.8704H92.2039ZM60.6066 33.3528V54.4946H68.5249V33.3528H60.6066ZM92.2039 159.358H134.411V151.439H92.2039H49.9203V159.358H92.2039ZM123.724 33.3528H115.806V54.4946H123.724V33.3528ZM63.297 119.919L81.6716 119.842C81.6716 117.023 82.6706 114.589 84.6697 112.538C86.6683 110.488 89.1287 109.463 92.0503 109.463C94.869 109.463 97.3035 110.488 99.3538 112.538C101.404 114.589 102.429 117.023 102.429 119.842L121.034 119.919L113.192 74.2528H92.2039H71.1388L63.297 119.919ZM102.429 125.3L102.583 146.212H132.642L124.032 137.14L121.956 125.377L102.429 125.3ZM128.952 33.3528V59.4146L118.573 75.4059L128.952 135.525L139.331 146.212V164.586H92.2039H45V146.212L55.4556 135.525L65.8344 75.4059L55.4556 59.4146V33.3528C55.4556 29.9189 57.1984 28.2019 60.6836 28.2019H68.6019C72.036 28.2019 73.7527 30.0214 73.7527 33.6603V54.4946H81.6716V33.5065C81.6716 29.9701 83.4142 28.2019 86.8989 28.2019L92.2039 28.125L97.4317 28.2019C100.917 28.2019 102.66 29.9445 102.66 33.4297V54.4946H110.578V33.3528C110.578 29.9189 112.346 28.2019 115.883 28.2019H123.801C127.235 28.2019 128.952 29.9189 128.952 33.3528Z" fill="#473535"/>
<path d="M81.6716 146.212V125.3L62.3745 125.377L60.3759 137.14L51.6886 146.212H81.6716ZM86.8224 33.3529V54.4947H97.2011V33.3529H86.8224ZM92.2039 69.8704H115.806L123.571 59.4152H92.2039H60.8372L68.5249 69.8704H92.2039ZM60.6066 33.3529V54.4947H68.5249V33.3529H60.6066ZM92.2039 159.358H134.41V151.44H92.2039H49.9203V159.358H92.2039ZM123.725 33.3529H115.806V54.4947H123.725V33.3529ZM63.2976 119.919L81.6716 119.842C81.6716 117.023 82.6706 114.589 84.6697 112.538C86.6689 110.489 89.1287 109.463 92.0503 109.463C94.869 109.463 97.3035 110.489 99.3538 112.538C101.404 114.589 102.429 117.023 102.429 119.842L121.034 119.919L113.192 74.2528H92.2039H71.1388L63.2976 119.919ZM102.429 125.3L102.583 146.212H132.643L124.032 137.14L121.956 125.377L102.429 125.3Z" fill="#FFF3E4"/>
</svg>
