<svg width="256" height="256" viewBox="0 0 256 256" fill="none" xmlns="http://www.w3.org/2000/svg">
<path d="M201.847 205.11H187.952V186.583C187.952 185.355 187.464 184.176 186.595 183.307C185.727 182.439 184.548 181.951 183.32 181.951H177.16C167.517 158.332 161.776 133.301 160.162 107.845H183.32C184.548 107.845 185.727 107.357 186.595 106.488C187.464 105.62 187.952 104.441 187.952 103.213V47.6323C187.952 46.404 187.464 45.2254 186.595 44.357C185.727 43.4885 184.548 43 183.32 43H160.162C157.603 43 155.529 45.075 155.529 47.6323V66.1597H146.266V47.6323C146.266 46.404 145.778 45.2254 144.909 44.357C144.041 43.4885 142.862 43 141.634 43H113.844C111.287 43 109.212 45.075 109.212 47.6323V66.1597H99.9486V47.6323C99.9486 46.404 99.4601 45.2254 98.5916 44.357C97.7232 43.4885 96.5446 43 95.3163 43H72.1582C69.6009 43 67.5259 45.075 67.5259 47.6323V103.213C67.5259 104.441 68.0144 105.62 68.8829 106.488C69.7513 107.357 70.9299 107.845 72.1582 107.845H95.3163C93.7391 133.295 88.0447 158.325 78.4574 181.951H72.1582C69.6009 181.951 67.5259 184.025 67.5259 186.583V205.11H53.6307C51.0734 205.11 49 207.184 49 209.741V232.901C49 234.129 49.487 235.306 50.3554 236.176C51.2254 237.044 52.4025 237.531 53.6307 237.531H201.849C203.077 237.531 204.254 237.044 205.124 236.176C205.993 235.306 206.48 234.129 206.48 232.901V209.741C206.48 208.513 205.993 207.336 205.124 206.466C204.254 205.597 203.077 205.11 201.849 205.11L201.847 205.11ZM76.7904 52.2629H90.6856V70.7888C90.6856 72.0171 91.1726 73.1957 92.041 74.0641C92.911 74.9326 94.0881 75.4211 95.3163 75.4211H113.844C115.072 75.4211 116.251 74.9326 117.119 74.0641C117.988 73.1957 118.476 72.0171 118.476 70.7888V52.2629H137.004L137.002 70.7888C137.002 72.0171 137.491 73.1957 138.359 74.0641C139.227 74.9326 140.406 75.4211 141.634 75.4211H160.162C161.39 75.4211 162.567 74.9326 163.437 74.0641C164.305 73.1957 164.792 72.0171 164.792 70.7888V52.2629H178.688V98.5777H76.7921L76.7904 52.2629ZM104.581 107.844H150.896C152.294 133.251 157.752 158.271 167.061 181.949H88.3191C97.661 158.273 103.149 133.252 104.578 107.844H104.581ZM76.7904 191.215H178.686V205.11H76.7904V191.215ZM197.214 228.268H58.2621V214.373H197.214V228.268Z" fill="black"/>
<path d="M76.7904 52.2629H90.6856V70.7888C90.6856 72.0171 91.1726 73.1957 92.041 74.0641C92.911 74.9326 94.0881 75.4211 95.3163 75.4211H113.844C115.072 75.4211 116.251 74.9326 117.119 74.0641C117.988 73.1957 118.476 72.0171 118.476 70.7888V52.2629H137.004L137.002 70.7888C137.002 72.0171 137.491 73.1957 138.359 74.0641C139.227 74.9326 140.406 75.4211 141.634 75.4211H160.162C161.39 75.4211 162.567 74.9326 163.437 74.0641C164.305 73.1957 164.792 72.0171 164.792 70.7888V52.2629H178.688V98.5777H76.7921L76.7904 52.2629Z" fill="#F9F7F7"/>
<path d="M104.581 107.844H150.896C152.294 133.251 157.752 158.271 167.061 181.949H88.3191C97.661 158.273 103.149 133.252 104.578 107.844H104.581Z" fill="#F9F7F7"/>
<path d="M76.7904 191.215H178.686V205.11H76.7904V191.215Z" fill="#DBE2EF"/>
<path d="M197.214 228.268H58.2621V214.373H197.214V228.268Z" fill="#F9F7F7"/>
</svg>
