<svg width="180" height="180" viewBox="0 0 180 180" fill="none" xmlns="http://www.w3.org/2000/svg">
<path d="M64.3498 146.29C53.0589 138.681 44.9589 125.181 42.8317 111.599C40.4589 97.0358 44.8771 82.3903 51.668 69.6267C55.4317 62.6722 59.9317 56.1267 64.8408 49.9903L83.4135 75.354L96.5044 62.0176L77.1135 36.2449C81.2044 31.9903 85.5408 27.9813 89.8771 23.9722C179.55 104.318 115.486 146.29 115.486 146.29" fill="#CEDDEF"/>
<path d="M64.3498 146.29C53.0589 138.681 44.9589 125.181 42.8317 111.599C40.4589 97.0358 44.8771 82.3903 51.668 69.6267C55.4317 62.6722 59.9317 56.1267 64.8408 49.9903L83.4135 75.354L96.5044 62.0176L77.1135 36.2449C81.2044 31.9903 85.5408 27.9813 89.8771 23.9722C179.55 104.318 115.486 146.29 115.486 146.29" stroke="#070D59" stroke-width="4.90909" stroke-miterlimit="10"/>
<path d="M96.341 17.5115C96.341 21.1115 93.4773 24.0569 89.8773 24.0569C86.3592 24.0569 83.4137 21.1115 83.4137 17.5115C83.4137 13.9115 86.2773 10.966 89.8773 10.966C93.3955 10.8842 96.341 13.8297 96.341 17.5115Z" fill="#CEDDEF"/>
<path d="M89.8773 24.0553C93.4471 24.0553 96.341 21.1248 96.341 17.5098C96.341 13.8949 93.4471 10.9644 89.8773 10.9644C86.3076 10.9644 83.4137 13.8949 83.4137 17.5098C83.4137 21.1248 86.3076 24.0553 89.8773 24.0553Z" stroke="#070D59" stroke-width="4.90909" stroke-miterlimit="10"/>
<path d="M52.0773 152.758V146.294H127.759V152.758" fill="#CEDDEF"/>
<path d="M52.0773 152.758V146.294H127.759V152.758" stroke="#070D59" stroke-width="4.90909" stroke-miterlimit="10"/>
<path d="M89.9591 152.754H52.0773V165.599H127.759V152.754H89.9591Z" fill="#CEDDEF"/>
<path d="M89.9591 152.754H52.0773V165.599H127.759V152.754H89.9591Z" stroke="#070D59" stroke-width="4.90909" stroke-miterlimit="10"/>
</svg>
