<svg width="180" height="180" viewBox="0 0 180 180" fill="none" xmlns="http://www.w3.org/2000/svg">
<path d="M90.1232 152.435H52.2414V165.363H127.923V152.435H90.1232Z" fill="#2D132C"/>
<path d="M90.1232 152.435H52.2414V165.363H127.923V152.435H90.1232Z" stroke="#2D132C" stroke-width="4.90909" stroke-miterlimit="10"/>
<path d="M52.2414 146.052V152.434H127.923V146.052" fill="#EE4540"/>
<path d="M52.2414 146.052V152.434H127.923V146.052" stroke="#2D132C" stroke-width="4.90909" stroke-miterlimit="10"/>
<path d="M96.3413 64.1499V42.959H115.323V30.0317H96.3413L96.4231 10.7227H83.7413V30.0317H64.8413V42.959H83.7413V64.1499" fill="#2D132C"/>
<path d="M96.3413 64.1499V42.959H115.323V30.0317H96.3413L96.4231 10.7227H83.7413V30.0317H64.8413V42.959H83.7413V64.1499" stroke="#2D132C" stroke-width="4.90909" stroke-miterlimit="10"/>
<path d="M164.741 70.1224C158.85 46.6406 136.514 44.186 136.514 44.186C105.014 39.7679 90.3683 74.2951 90.041 75.1133C89.7137 74.2951 75.0683 39.686 43.5683 44.1042C43.5683 44.1042 21.1501 46.5588 15.341 70.0406C15.341 70.0406 4.05011 112.422 52.1592 145.968H127.841C175.95 112.504 164.741 70.1224 164.741 70.1224" fill="#2D132C"/>
<path d="M83.741 64.1497H96.341M164.741 70.1224C158.85 46.6406 136.514 44.186 136.514 44.186C105.014 39.7679 90.3683 74.2951 90.041 75.1133C89.7137 74.2951 75.0683 39.686 43.5683 44.1042C43.5683 44.1042 21.1501 46.5588 15.341 70.0406C15.341 70.0406 4.05011 112.422 52.1592 145.968H127.841C175.95 112.504 164.741 70.1224 164.741 70.1224V70.1224Z" stroke="#2D132C" stroke-width="4.90909" stroke-miterlimit="10"/>
<path d="M132.178 63.1708C111.641 61.3708 96.5049 104.816 96.5049 104.816V131.653C96.5049 131.653 117.941 131.162 134.632 113.816C151.323 96.3071 152.714 64.8889 132.178 63.1708V63.1708ZM47.9049 63.1708C27.3685 64.9708 28.7594 96.3889 45.4503 113.816C62.1413 131.243 83.7413 131.653 83.7413 131.653V104.816C83.7413 104.816 68.4413 61.3708 47.9049 63.1708Z" stroke="#EE4540" stroke-width="4.90909" stroke-miterlimit="10"/>
<path d="M77.4413 36.4928H102.723M90.0413 23.5656V55.8019V23.5656Z" stroke="#EE4540" stroke-width="3.27273" stroke-miterlimit="10"/>
</svg>
