<svg width="180" height="180" viewBox="0 0 180 180" fill="none" xmlns="http://www.w3.org/2000/svg">
<path d="M89.9178 152.427H52.036V165.272H127.8V152.427H52.036V145.963C76.0906 115.936 74.2906 95.1541 70.036 84.1904C67.7451 78.2177 64.7178 75.1904 64.7178 75.1904H114.954C114.954 75.1904 90.6542 99.6541 127.718 145.963V152.427" fill="#2D132C"/>
<path d="M89.9178 152.427H52.036V165.272H127.8V152.427H52.036V145.963C76.0906 115.936 74.2906 95.1541 70.036 84.1904C67.7451 78.2177 64.7178 75.1904 64.7178 75.1904H114.954C114.954 75.1904 90.6542 99.6541 127.718 145.963V152.427" stroke="#2D132C" stroke-width="4.90909" stroke-miterlimit="10"/>
<path d="M115.036 36.4088C115.036 50.5633 103.745 62.0997 89.8359 62.0997C75.9268 62.0997 64.6359 50.6451 64.6359 36.4088C64.7177 22.2542 75.9268 10.7997 89.8359 10.7997C103.745 10.7997 115.036 22.2542 115.036 36.4088Z" fill="#2D132C"/>
<path d="M89.8359 62.1045C103.754 62.1045 115.036 50.6023 115.036 36.4136C115.036 22.2249 103.754 10.7227 89.8359 10.7227C75.9184 10.7227 64.6359 22.2249 64.6359 36.4136C64.6359 50.6023 75.9184 62.1045 89.8359 62.1045Z" stroke="#2D132C" stroke-width="4.90909" stroke-miterlimit="10"/>
<path d="M89.9178 62.1056C89.9178 62.1056 116.918 62.1874 127.718 75.1965H52.1178C62.9178 62.1874 89.9178 62.1056 89.9178 62.1056" fill="#2D132C"/>
<path d="M89.9178 62.1056C89.9178 62.1056 116.918 62.1874 127.718 75.1965H52.1178C62.9178 62.1874 89.9178 62.1056 89.9178 62.1056" stroke="#2D132C" stroke-width="4.90909" stroke-miterlimit="10"/>
<path d="M71.3452 88.1212H108.491" stroke="#EE4540" stroke-width="3.27273" stroke-miterlimit="10"/>
<path d="M52.036 145.964H127.8" stroke="#2D132C" stroke-width="4.90909" stroke-miterlimit="10"/>
<path d="M54.1633 149.161H125.672" stroke="#EE4540" stroke-width="1.63636" stroke-miterlimit="10"/>
</svg>
