<svg width="180" height="180" viewBox="0 0 180 180" fill="none" xmlns="http://www.w3.org/2000/svg">
<path d="M127.8 145.07C127.8 145.07 128.291 139.097 124.855 138.361C105.382 134.597 155.046 59.488 155.046 59.488C155.046 59.488 109.882 110.297 112.664 22.2608L112.009 21.8517C89.264 102.115 68.073 21.8517 68.073 21.8517L67.2549 22.3426C70.0367 110.379 24.873 59.5699 24.873 59.5699C24.873 59.5699 74.5367 134.679 55.064 138.443C51.6276 139.097 52.1185 145.152 52.1185 145.152" fill="#CEDDEF"/>
<path d="M127.8 145.07C127.8 145.07 128.291 139.097 124.855 138.361C105.382 134.597 155.046 59.488 155.046 59.488C155.046 59.488 109.882 110.297 112.664 22.2608L112.009 21.8517C89.264 102.115 68.073 21.8517 68.073 21.8517L67.2549 22.3426C70.0367 110.379 24.873 59.5699 24.873 59.5699C24.873 59.5699 74.5367 134.679 55.064 138.443C51.6276 139.097 52.1185 145.152 52.1185 145.152" stroke="#070D59" stroke-width="4.90909" stroke-miterlimit="10"/>
<path d="M52.0367 152.428V145.964H127.8V152.428" fill="#CEDDEF"/>
<path d="M52.0367 152.428V145.964H127.8V152.428" stroke="#070D59" stroke-width="4.90909" stroke-miterlimit="10"/>
<path d="M72.327 16.1994C73.0634 20.6175 69.2997 24.3812 64.9634 23.6448C62.3452 23.2357 60.2179 21.0266 59.8088 18.3266C59.0725 13.9084 62.8361 10.1448 67.1725 10.8812C69.7088 11.3721 71.8361 13.4994 72.327 16.1994Z" fill="#CEDDEF"/>
<path d="M72.327 16.1994C73.0634 20.6175 69.2997 24.3812 64.9634 23.6448C62.3452 23.2357 60.2179 21.0266 59.8088 18.3266C59.0725 13.9084 62.8361 10.1448 67.1725 10.8812C69.7088 11.3721 71.8361 13.4994 72.327 16.1994V16.1994Z" stroke="#070D59" stroke-width="4.90909" stroke-miterlimit="10"/>
<path d="M26.7546 54.2449C27.4909 58.6631 23.7273 62.4267 19.3909 61.6903C16.7727 61.2813 14.6455 59.0722 14.2364 56.3722C13.5 51.954 17.1818 48.1903 21.6 48.9267C24.2182 49.4176 26.3455 51.5449 26.7546 54.2449Z" fill="#CEDDEF"/>
<path d="M26.7546 54.2449C27.4909 58.6631 23.7273 62.4267 19.3909 61.6903C16.7727 61.2813 14.6455 59.0722 14.2364 56.3722C13.5 51.954 17.1818 48.1903 21.6 48.9267C24.2182 49.4176 26.3455 51.5449 26.7546 54.2449V54.2449Z" stroke="#070D59" stroke-width="4.90909" stroke-miterlimit="10"/>
<path d="M58.9911 136.56H120.846" stroke="#070D59" stroke-width="4.09091" stroke-miterlimit="10"/>
<path d="M107.591 16.1226C106.855 20.5408 110.618 24.3044 114.955 23.568C117.573 23.1589 119.7 20.9498 120.109 18.2498C120.846 13.8317 117.164 10.068 112.746 10.8044C110.128 11.2953 108 13.4226 107.591 16.1226Z" fill="#CEDDEF"/>
<path d="M107.591 16.1226C106.855 20.5408 110.618 24.3044 114.955 23.568C117.573 23.1589 119.7 20.9498 120.109 18.2498C120.846 13.8317 117.164 10.068 112.746 10.8044C110.128 11.2953 108 13.4226 107.591 16.1226V16.1226Z" stroke="#070D59" stroke-width="4.90909" stroke-miterlimit="10"/>
<path d="M153.082 54.1681C152.346 58.5863 156.109 62.3499 160.446 61.6136C163.064 61.2045 165.191 58.9954 165.6 56.2954C166.336 51.8772 162.573 48.1136 158.236 48.8499C155.618 49.3408 153.491 51.4681 153.082 54.1681Z" fill="#CEDDEF"/>
<path d="M153.082 54.1681C152.346 58.5863 156.109 62.3499 160.446 61.6136C163.064 61.2045 165.191 58.9954 165.6 56.2954C166.336 51.8772 162.573 48.1136 158.236 48.8499C155.618 49.3408 153.491 51.4681 153.082 54.1681V54.1681Z" stroke="#070D59" stroke-width="4.90909" stroke-miterlimit="10"/>
<path d="M89.9186 152.183H52.0367V165.028H127.8V152.183H89.9186Z" fill="#CEDDEF"/>
<path d="M89.9186 152.183H52.0367V165.028H127.8V152.183H89.9186Z" stroke="#070D59" stroke-width="4.90909" stroke-miterlimit="10"/>
<path d="M146.21 70.6967L90.9822 135.251C90.655 135.66 89.9186 135.415 89.9186 134.842L69.3004 33.3876" stroke="#070D59" stroke-width="3.27273" stroke-miterlimit="10"/>
<path d="M110.291 33.3876L90.5725 133.615C90.3271 134.76 88.8544 135.169 88.118 134.269L33.5453 70.7785" stroke="#070D59" stroke-width="3.27273" stroke-miterlimit="10"/>
</svg>
