<svg width="32" height="32" viewBox="0 0 32 32" fill="none" xmlns="http://www.w3.org/2000/svg">
<path d="M16.7168 13.9113C16.2913 14.3267 16.2862 14.737 16.7016 15.1423C17.0866 15.5577 17.5222 15.5425 18.0085 15.0967L20.9871 11.7382C21.1897 11.9307 21.3316 12.108 21.4126 12.2701C21.4936 12.4322 21.6102 12.6348 21.7621 12.878C22.0458 13.3339 22.3194 13.8404 22.5828 14.3976C22.8462 14.965 23.0488 15.507 23.1906 16.0237C23.0995 17.0976 22.7651 18.1513 22.1877 19.1847C21.6102 20.218 20.8655 21.0539 19.9537 21.6921L22.6891 21.7225C23.2666 21.7225 23.758 21.9302 24.1633 22.3456C24.5685 22.7509 24.7711 23.2372 24.7711 23.8045V23.8197C24.7711 24.0831 24.6799 24.4174 24.4976 24.8227H25.303C26.0122 24.8227 26.6201 25.081 27.1266 25.5977C27.6433 26.1043 27.9017 26.7122 27.9017 27.4214C27.9017 28.1407 27.6433 28.7536 27.1266 29.2602C26.6201 29.7667 26.0122 30.02 25.303 30.02H7.61386C6.88441 30.02 6.26641 29.7667 5.75984 29.2602C5.25328 28.7536 5 28.1407 5 27.4214C5 26.7122 5.25328 26.1043 5.75984 25.5977C6.26641 25.081 6.88441 24.8227 7.61386 24.8227H8.46489C8.25213 24.5694 8.14575 24.2351 8.14575 23.8197V23.8045C8.14575 23.2372 8.34837 22.7509 8.75362 22.3456C9.15887 21.9302 9.65024 21.7225 10.2277 21.7225H12.8872C11.9348 21.1451 11.1699 20.3548 10.5924 19.3518C10.015 18.3488 9.73129 17.2395 9.74142 16.0237C10.3392 14.1292 11.0939 12.4879 12.0057 11.0999C12.9277 9.70182 13.566 8.77481 13.9206 8.3189C14.0523 7.91365 14.2903 7.60465 14.6348 7.39189C14.108 6.94612 13.8446 6.35344 13.8446 5.61386C13.8446 4.89454 14.0979 4.2816 14.6044 3.77504C15.111 3.25835 15.729 3 16.4584 3C17.1676 3 17.7755 3.25835 18.2821 3.77504C18.7988 4.2816 19.0571 4.89454 19.0571 5.61386C19.0571 6.27239 18.8089 6.92079 18.3124 7.55906C18.5151 7.96431 18.6367 8.20239 18.6772 8.27331C18.9912 8.71909 19.4016 9.42828 19.9081 10.4009L16.7168 13.9113ZM17.8565 8.41008L17.3247 7.3463C17.1119 7.52866 16.8232 7.61984 16.4584 7.61984C16.1646 7.61984 15.9012 7.54386 15.6682 7.39189L14.9995 8.41008C15.4656 8.68363 15.9519 8.8204 16.4584 8.8204C16.9853 8.8204 17.4513 8.68363 17.8565 8.41008ZM13.8446 21.1299C13.5001 21.1299 13.3279 21.3173 13.3279 21.6921C13.3279 22.0771 13.5001 22.2696 13.8446 22.2696H19.0723C19.4168 22.2696 19.589 22.0771 19.589 21.6921C19.589 21.3173 19.4168 21.1299 19.0723 21.1299H13.8446ZM9.72622 24.5947C9.39189 24.5947 9.22473 24.7822 9.22473 25.157C9.22473 25.5319 9.39189 25.7193 9.72622 25.7193H23.1754C23.5199 25.7193 23.6921 25.5319 23.6921 25.157C23.6921 24.7822 23.5199 24.5947 23.1754 24.5947H9.72622Z" fill="black"/>
<path d="M17.8565 8.41011L17.3247 7.34633C17.1119 7.52869 16.8232 7.61987 16.4584 7.61987C16.1646 7.61987 15.9012 7.54389 15.6682 7.39192L14.9995 8.41011C15.4656 8.68365 15.9519 8.82042 16.4584 8.82042C16.9853 8.82042 17.4513 8.68365 17.8565 8.41011ZM13.8446 21.1299C13.5001 21.1299 13.3279 21.3173 13.3279 21.6922C13.3279 22.0772 13.5001 22.2696 13.8446 22.2696H19.0723C19.4168 22.2696 19.589 22.0772 19.589 21.6922C19.589 21.3173 19.4168 21.1299 19.0723 21.1299H16.4584H13.8446ZM9.72622 24.5948C9.39189 24.5948 9.22473 24.7822 9.22473 25.1571C9.22473 25.5319 9.39189 25.7193 9.72622 25.7193H23.1754C23.5199 25.7193 23.6921 25.5319 23.6921 25.1571C23.6921 24.7822 23.5199 24.5948 23.1754 24.5948H9.72622Z" fill="#EEEEEE"/>
</svg>
