<svg width="32" height="32" viewBox="0 0 32 32" fill="none" xmlns="http://www.w3.org/2000/svg">
<path d="M13.7686 7.30071C14.417 6.92586 14.8374 6.8904 15.0299 7.19433C15.2123 7.5084 14.9742 7.85793 14.3157 8.24292C13.6673 8.61777 13.2519 8.64817 13.0695 8.33409C12.877 8.02003 13.1101 7.67556 13.7686 7.30071V7.30071ZM13.9358 20.522C13.338 19.5291 13.571 18.1158 14.6348 16.2821C15.0401 15.5931 15.4402 15.0663 15.8354 14.7016C15.653 14.8333 15.7087 14.8434 16.0025 14.732C16.2963 14.6205 16.4433 14.7978 16.4433 15.2639C16.3419 15.3753 16.2052 15.5779 16.0329 15.8717C15.8607 16.1655 15.729 16.3935 15.6378 16.5556C15.2427 17.2344 15.0451 17.9183 15.0451 18.6072C15.0553 19.2961 15.1667 19.8837 15.3795 20.37C15.2174 20.6334 14.9945 20.7499 14.7108 20.7195C14.4271 20.679 14.1688 20.6132 13.9358 20.522V20.522ZM18.4796 10.4769C18.6215 10.7605 18.4644 11.1455 18.0085 11.6318C17.5526 12.108 16.9599 12.3967 16.2305 12.498C16.0177 12.5284 15.8506 12.574 15.729 12.6348C15.6175 12.6956 15.496 12.7311 15.3643 12.7412C15.2832 12.802 15.1616 12.8678 14.9995 12.9388C14.8476 12.9995 14.6652 13.0857 14.4524 13.1971C13.8952 13.4909 13.3887 13.8911 12.9328 14.3977C12.487 14.9042 12.0969 15.4462 11.7626 16.0237C11.5296 16.743 11.3624 17.7004 11.2611 18.8959C11.1699 20.0914 11.1547 21.0539 11.2155 21.7833C12.9378 21.7833 14.6602 21.7833 16.3825 21.7833C18.1149 21.7833 19.8474 21.7833 21.5798 21.7833C21.5393 21.5604 21.4988 21.3376 21.4582 21.1147C21.4278 20.8816 21.3975 20.6486 21.3671 20.4156C20.9314 19.9293 20.5718 19.2556 20.2881 18.3944C20.0145 17.5333 19.8829 16.743 19.893 16.0237C20.0146 15.274 20.2982 14.4128 20.744 13.4402C21.1999 12.4575 21.5494 11.6926 21.7926 11.1455C21.823 10.7403 21.823 10.3046 21.7926 9.83859C21.7622 9.37256 21.5494 8.92172 21.1543 8.48607C20.9314 8.08082 20.4755 7.57933 19.7866 6.98158C19.1078 6.38384 18.2821 6.05457 17.3095 5.99379C17.4514 5.31499 17.2741 4.78817 16.7776 4.41332C16.7067 4.85909 16.3521 5.2846 15.7138 5.68985C15.0756 6.0951 14.4221 6.32306 13.7534 6.37371C13.176 7.05251 12.3857 7.51348 11.3827 7.75663C10.3899 7.99978 9.39701 8.24292 8.40415 8.48607C8.10021 9.00277 8.10528 9.36749 8.41934 9.58025C8.74354 9.79301 8.93603 10.0615 8.99682 10.3857C9.26024 10.5782 9.36662 10.7453 9.31596 10.8872C9.27544 11.0189 9.69083 11.0138 10.5621 10.872C11.1396 10.6086 11.5803 10.5073 11.8842 10.568C12.1882 10.6288 12.6643 10.7099 13.3127 10.8112C13.5154 10.9632 13.6825 11.0543 13.8142 11.0847C14.3512 11.5406 15.0654 11.6876 15.957 11.5255C17.0512 11.3431 17.6742 10.8163 17.8262 9.94498C18.2011 9.94498 18.4189 10.1223 18.4797 10.4769L18.4796 10.4769ZM10.1821 22.7559C9.50334 22.7559 9.16394 23.1004 9.16394 23.7893C9.16394 24.4782 9.50334 24.8227 10.1821 24.8227H22.598C23.2869 24.8227 23.6314 24.4782 23.6314 23.7893C23.6314 23.1004 23.2869 22.7559 22.598 22.7559H10.1821ZM20.5768 25.9017H12.2641H7.59866C6.54501 25.9017 6.01819 26.4234 6.01819 27.467C6.01819 28.5206 6.54501 29.0474 7.59866 29.0474H25.1966C26.2401 29.0474 26.7619 28.5206 26.7619 27.467C26.7619 26.4234 26.2401 25.9017 25.1966 25.9017H20.5768ZM22.7651 21.7833C23.2413 21.8542 23.682 22.0771 24.0873 22.452C24.5026 22.8167 24.7103 23.2777 24.7103 23.8349C24.7103 24.1794 24.6344 24.5086 24.4824 24.8227H25.1814C25.9008 24.8227 26.5137 25.081 27.0203 25.5977C27.5369 26.1043 27.7953 26.7122 27.7953 27.4214C27.7953 28.1407 27.5369 28.7536 27.0203 29.2602C26.5137 29.7667 25.9008 30.02 25.1814 30.02H7.59866C6.87935 30.02 6.26641 29.7667 5.75984 29.2602C5.25328 28.7536 5 28.1407 5 27.4214C5 26.7122 5.25328 26.1043 5.75984 25.5977C6.26641 25.081 6.87935 24.8227 7.59866 24.8227H8.31292C8.15083 24.4884 8.06977 24.1591 8.06977 23.8349C8.06977 23.2777 8.27239 22.7914 8.67764 22.376C9.09302 21.9606 9.60465 21.7225 10.2125 21.6618C10.1619 20.7195 10.1467 19.7773 10.167 18.8351C10.1872 17.8929 10.3442 16.9811 10.6381 16.0997C11.2155 14.8738 11.8183 13.9823 12.4465 13.425C13.0746 12.8678 13.799 12.4525 14.6196 12.1789C13.9408 12.1485 13.5559 12.1282 13.4647 12.1181C13.3836 12.108 13.1 11.9662 12.6137 11.6926C12.1273 11.5609 11.8031 11.49 11.641 11.4799C11.4789 11.4697 11.0484 11.571 10.3493 11.7838C9.58947 11.9054 9.02718 11.9459 8.66246 11.9054C8.29773 11.8648 8.10523 11.5001 8.08498 10.8112C7.78104 10.3857 7.4619 9.92977 7.12757 9.44347C6.80337 8.94704 6.94015 8.35436 7.53788 7.66544C9.14876 7.15888 10.3139 6.88027 11.0332 6.82961C11.7626 6.77896 12.5225 6.37371 13.3127 5.61386C14.3157 5.40111 15.0249 5.13263 15.4403 4.80843C15.8556 4.4741 16.0633 3.87129 16.0633 3C16.6104 3.11144 17.0917 3.3546 17.507 3.72945C17.9224 4.09418 18.1301 4.57541 18.1301 5.17315C19.2547 5.4467 20.0044 5.78103 20.3792 6.17615C20.7642 6.56113 21.2353 6.98665 21.7926 7.45268C22.4916 8.37463 22.8513 9.18006 22.8715 9.86899C22.9019 10.5579 22.8665 11.2519 22.7652 11.951C22.4511 12.6297 22.132 13.263 21.8078 13.8506C21.4836 14.428 21.2404 15.1727 21.0783 16.0845C21.0783 16.9659 21.2151 17.7612 21.4886 18.4704C21.7622 19.1796 22.1218 19.828 22.5676 20.4156L22.7651 21.7833Z" fill="black"/>
<path d="M13.7686 7.3007C14.417 6.92584 14.8374 6.89038 15.0299 7.19432C15.2123 7.50839 14.9742 7.85792 14.3157 8.2429C13.6673 8.61776 13.2519 8.64815 13.0695 8.33408C12.877 8.02001 13.1101 7.67555 13.7686 7.3007ZM13.9358 20.522C13.338 19.5291 13.571 18.1158 14.6348 16.282C15.0401 15.5931 15.4402 15.0663 15.8354 14.7016C15.653 14.8333 15.7087 14.8434 16.0025 14.732C16.2963 14.6205 16.4433 14.7978 16.4433 15.2638C16.3419 15.3753 16.2052 15.5779 16.0329 15.8717C15.8607 16.1655 15.729 16.3935 15.6378 16.5556C15.2427 17.2344 15.0451 17.9182 15.0451 18.6072C15.0553 19.2961 15.1667 19.8837 15.3795 20.37C15.2174 20.6334 14.9945 20.7499 14.7108 20.7195C14.4271 20.679 14.1688 20.6132 13.9358 20.522ZM18.4796 10.4768C18.6215 10.7605 18.4644 11.1455 18.0085 11.6318C17.5526 12.108 16.9599 12.3967 16.2305 12.498C16.0177 12.5284 15.8506 12.574 15.729 12.6348C15.6175 12.6956 15.496 12.731 15.3643 12.7412C15.2832 12.802 15.1616 12.8678 14.9995 12.9387C14.8476 12.9995 14.6652 13.0856 14.4524 13.1971C13.8952 13.4909 13.3887 13.8911 12.9328 14.3976C12.487 14.9042 12.0969 15.4462 11.7626 16.0237C11.5296 16.743 11.3624 17.7004 11.2611 18.8959C11.1699 20.0914 11.1547 21.0539 11.2155 21.7833C12.9378 21.7833 14.6602 21.7833 16.3825 21.7833C18.1149 21.7833 19.8474 21.7833 21.5798 21.7833C21.5393 21.5604 21.4988 21.3375 21.4582 21.1147C21.4278 20.8816 21.3975 20.6486 21.3671 20.4156C20.9314 19.9293 20.5718 19.2556 20.2881 18.3944C20.0145 17.5333 19.8829 16.743 19.893 16.0237C20.0146 15.274 20.2982 14.4128 20.744 13.4402C21.1999 12.4575 21.5494 11.6926 21.7926 11.1455C21.823 10.7403 21.823 10.3046 21.7926 9.83858C21.7622 9.37254 21.5494 8.9217 21.1543 8.48606C20.9314 8.08081 20.4755 7.57931 19.7866 6.98157C19.1078 6.38382 18.2821 6.05456 17.3095 5.99377C17.4514 5.31498 17.2741 4.78816 16.7776 4.4133C16.7067 4.85907 16.3521 5.28458 15.7138 5.68983C15.0756 6.09508 14.4221 6.32304 13.7534 6.3737C13.176 7.05249 12.3857 7.51346 11.3827 7.75661C10.3899 7.99976 9.39701 8.24291 8.40415 8.48606C8.10021 9.00275 8.10528 9.36748 8.41934 9.58023C8.74354 9.79299 8.93603 10.0615 8.99682 10.3857C9.26024 10.5782 9.36662 10.7453 9.31596 10.8872C9.27545 11.0189 9.69083 11.0138 10.5621 10.872C11.1396 10.6086 11.5803 10.5072 11.8842 10.568C12.1882 10.6288 12.6643 10.7099 13.3127 10.8112C13.5154 10.9632 13.6825 11.0543 13.8142 11.0847C14.3512 11.5406 15.0654 11.6875 15.957 11.5254C17.0512 11.3431 17.6742 10.8162 17.8262 9.94496C18.2011 9.94496 18.4188 10.1223 18.4796 10.4768ZM10.1821 22.7559C9.50334 22.7559 9.16394 23.1004 9.16394 23.7893C9.16394 24.4782 9.50334 24.8227 10.1821 24.8227H22.598C23.2869 24.8227 23.6314 24.4782 23.6314 23.7893C23.6314 23.1004 23.2869 22.7559 22.598 22.7559H10.1821ZM20.5768 25.9017H12.2641H7.59866C6.54501 25.9017 6.01819 26.4234 6.01819 27.4669C6.01819 28.5206 6.54501 29.0474 7.59866 29.0474H25.1966C26.2401 29.0474 26.7619 28.5206 26.7619 27.4669C26.7619 26.4234 26.2401 25.9017 25.1966 25.9017H20.5768Z" fill="white"/>
</svg>
