<svg width="180" height="180" viewBox="0 0 180 180" fill="none" xmlns="http://www.w3.org/2000/svg">
<path d="M73.6206 55.3817C70.2366 58.3492 68.8309 60.5098 69.4035 61.8632C69.9244 63.0608 71.1737 63.1907 73.152 62.2536C73.8287 61.9414 74.3754 61.5251 74.7917 61.0042C75.7811 59.3904 77.2909 58.167 79.3215 57.3339C81.7161 56.3968 82.7837 55.4077 82.5233 54.3665C82.2105 53.0649 80.4409 52.8306 77.2127 53.6636C75.6512 54.0801 74.4536 54.6528 73.6206 55.3817ZM48.7872 123.947C49.2557 123.166 50.0887 122.125 51.2861 120.823C52.1191 119.782 53.2384 118.376 54.6441 116.606C55.0605 116.085 55.0605 115.721 54.6441 115.513C54.2276 115.253 53.4206 115.148 52.2232 115.201C50.9737 115.305 50.0106 115.695 49.3338 116.372C47.9802 117.361 46.6786 118.637 45.4291 120.198C45.0648 120.667 44.7523 121.188 44.492 121.76C43.4508 124.259 43.7111 125.743 45.273 126.211C46.4704 126.576 47.6418 125.821 48.7872 123.947ZM65.4992 57.2557C65.3428 54.809 65.5509 51.9976 66.1236 48.8218C67.2171 42.3662 69.1954 37.3422 72.0585 33.75C75.4425 36.9258 78.228 41.5333 80.4144 47.5724C80.6231 48.1971 80.9353 49.1603 81.3516 50.4618C81.4556 50.618 81.5597 50.6961 81.6643 50.6961C81.7684 50.6961 81.8983 50.618 82.0547 50.4618C83.1999 43.9541 85.2041 38.9041 88.0678 35.3118C91.3995 38.6438 94.1591 43.2773 96.3456 49.2123C96.3979 49.5247 96.84 49.9412 97.6731 50.4618L109.387 51.0085L114.385 56.0064L124.615 58.6614L124.459 63.5034L135.236 67.8763L133.127 73.9676L144.685 80.0589L140.234 82.5581L148.355 92.9441L144.06 94.0376L153.744 106.454L148.355 106.298L156.555 119.261L150.62 117.622L155.306 130.038L150.073 130.116L156.555 143.782L151.167 144.485L155.852 155.809L151.401 157.292L154.915 165.57H50.8177C50.7136 165.05 50.6615 164.529 50.6615 164.009C50.6615 157.709 54.3058 151.019 61.5943 143.939C62.0111 143.522 65.7073 140.242 72.6834 134.099C78.8788 128.632 82.0806 125.795 82.2893 125.587C86.5058 121.63 89.2131 118.48 90.4106 116.138C91.6599 113.743 92.5189 111.452 92.9874 109.266C89.7081 110.828 85.8291 111.4 81.3521 110.984C79.0093 110.828 76.7447 110.307 74.5577 109.422C70.6011 113.639 66.7226 116.424 62.9218 117.778C62.0893 119.808 61.0476 121.682 59.7983 123.401C57.6636 126.472 55.0868 128.997 52.0672 130.975C48.0584 133.63 44.7786 134.047 42.2275 132.225C40.978 131.392 40.1971 130.507 39.8847 129.57C39.4682 129.57 38.6353 129.387 37.3858 129.023C33.377 127.982 30.6438 125.275 29.1861 120.902C27.8845 117.049 27.7804 113.04 28.8737 108.875C30.1232 104.242 32.492 100.598 35.9801 97.9425C41.9672 92.2674 46.835 85.6294 50.5834 78.0289C55.1128 68.7617 60.0846 61.8373 65.4992 57.2557ZM42.2273 107.86C43.9454 105.829 45.1949 104.424 45.9758 103.643C46.7047 102.81 46.6526 101.821 45.8197 100.675C44.6744 99.2694 42.5398 100.961 39.4161 105.751C38.9997 107.313 39.1558 108.407 39.8847 109.031C40.5615 109.604 41.3424 109.213 42.2274 107.86H42.2273ZM71.7463 75.5297C74.0891 74.124 75.2603 72.9006 75.2603 71.8594C75.2603 70.4014 73.9851 69.9069 71.4341 70.3755C66.5921 71.2603 62.6355 73.5514 59.5637 77.2476C58.2103 78.8096 57.7941 80.0066 58.3144 80.8397C59.0434 82.1413 61.0217 81.9849 64.2493 80.3711C66.1236 82.4535 68.076 82.9221 70.1066 81.7768C72.0326 80.6316 72.5794 78.5492 71.7463 75.5297ZM102.593 101.066C106.654 95.7555 108.944 89.8206 109.465 83.2607C109.517 82.3759 109.544 81.6986 109.544 81.2301C109.439 78.471 108.554 77.0912 106.888 77.0912C105.17 77.0912 104.311 78.4451 104.311 81.1524C104.259 81.3606 104.207 81.9332 104.155 82.8703C103.739 88.389 101.812 93.465 98.3762 98.0983C96.3979 100.806 96.1116 102.68 97.5172 103.721C97.8812 103.982 98.2457 104.111 98.6102 104.111C99.7037 104.111 101.031 103.096 102.593 101.066H102.593ZM105.795 107.079C109.96 103.331 112.823 98.9572 114.385 93.9594C115.166 91.5643 114.905 90.1069 113.604 89.586C112.199 89.0657 111.079 89.9769 110.246 92.3192C110.194 92.5279 110.012 92.9964 109.699 93.7249C108.294 97.2135 106.159 100.311 103.296 103.018C101.422 104.424 100.927 105.803 101.812 107.157C102.593 108.511 103.921 108.485 105.795 107.079ZM108.45 112.546C112.042 111.036 114.463 109.057 115.712 106.611L116.259 105.517C116.988 103.018 116.728 101.456 115.478 100.832C114.177 100.207 112.979 101.04 111.886 103.331C111.574 103.903 111.417 104.164 111.417 104.111C110.376 105.986 108.736 107.495 106.498 108.641C104.831 109.474 104.285 110.541 104.858 111.842C105.431 113.092 106.628 113.326 108.45 112.546ZM145.388 158.62C145.648 154.247 145.778 148.286 145.778 140.737C145.778 115.799 141.951 96.6667 134.299 83.3389C133.778 81.8809 132.867 80.1113 131.565 78.0283C130.107 75.6338 129.118 74.6443 128.598 75.0611C128.025 75.5297 128.494 76.9089 130.003 79.2C130.628 80.7097 131.123 82.0373 131.487 83.1825C136.329 93.699 138.75 107.235 138.75 123.791C138.75 129.83 138.203 138.524 137.11 149.874C136.849 152.737 136.485 155.653 136.016 158.62C136.016 159.245 137.604 159.557 140.78 159.557C143.852 159.557 145.388 159.245 145.388 158.62Z" fill="#031C24"/>
<path d="M73.6205 55.3818C70.2365 58.3492 68.8309 60.5098 69.4035 61.8638C69.9244 63.0608 71.1737 63.1912 73.152 62.2541C73.8287 61.9414 74.3754 61.5251 74.7917 61.0042C75.7811 59.3904 77.2909 58.167 79.3215 57.3339C81.716 56.3968 82.7837 55.4078 82.5232 54.3666C82.2105 53.065 80.4409 52.8308 77.2127 53.6637C75.6512 54.0803 74.4536 54.6529 73.6205 55.3818ZM48.7871 123.947C49.2556 123.166 50.0886 122.125 51.286 120.823C52.119 119.782 53.2384 118.376 54.644 116.606C55.0605 116.086 55.0605 115.721 54.644 115.513C54.2276 115.253 53.4206 115.149 52.2232 115.201C50.9737 115.305 50.0106 115.695 49.3338 116.372C47.9801 117.361 46.6786 118.637 45.4291 120.198C45.0647 120.667 44.7523 121.188 44.492 121.76C43.4507 124.26 43.7111 125.743 45.2729 126.211C46.4704 126.576 47.6417 125.821 48.7871 123.947ZM42.2273 107.86C43.9454 105.83 45.1948 104.424 45.9758 103.643C46.7046 102.81 46.6526 101.821 45.8197 100.676C44.6743 99.27 42.5398 100.962 39.4161 105.752C38.9996 107.313 39.1558 108.407 39.8847 109.032C40.5614 109.604 41.3423 109.214 42.2273 107.86ZM71.7463 75.5297C74.0891 74.124 75.2602 72.9006 75.2602 71.8594C75.2602 70.4014 73.985 69.9069 71.4341 70.3755C66.5921 71.2609 62.6355 73.5514 59.5637 77.2476C58.2103 78.8096 57.794 80.0072 58.3144 80.8403C59.0434 82.1413 61.0217 81.9855 64.2493 80.3717C66.1235 82.4541 68.076 82.9226 70.1066 81.7768C72.0326 80.6316 72.5794 78.5492 71.7463 75.5297ZM102.593 101.066C106.654 95.7555 108.944 89.8206 109.465 83.2607C109.517 82.3759 109.543 81.6992 109.543 81.2306C109.439 78.471 108.554 77.0918 106.888 77.0918C105.17 77.0918 104.311 78.4451 104.311 81.1524C104.259 81.3606 104.207 81.9332 104.155 82.8703C103.738 88.389 101.812 93.465 98.3762 98.0983C96.3979 100.806 96.1115 102.68 97.5172 103.721C97.8812 103.982 98.2457 104.111 98.6102 104.111C99.7037 104.111 101.031 103.096 102.593 101.066ZM105.794 107.079C109.96 103.331 112.823 98.9572 114.385 93.9594C115.166 91.5649 114.905 90.1069 113.604 89.5866C112.198 89.0657 111.079 89.9769 110.246 92.3197C110.194 92.5279 110.011 92.9964 109.699 93.7254C108.294 97.2135 106.159 100.311 103.296 103.019C101.422 104.424 100.927 105.803 101.812 107.157C102.593 108.511 103.921 108.485 105.794 107.079ZM108.45 112.546C112.042 111.036 114.463 109.057 115.712 106.611L116.259 105.517C116.988 103.019 116.728 101.456 115.478 100.832C114.177 100.207 112.979 101.04 111.886 103.331C111.574 103.903 111.417 104.164 111.417 104.111C110.376 105.986 108.736 107.495 106.498 108.641C104.831 109.474 104.285 110.541 104.858 111.843C105.43 113.092 106.627 113.326 108.45 112.546ZM145.388 158.62C145.648 154.247 145.778 148.286 145.778 140.737C145.778 115.8 141.951 96.6667 134.299 83.3389C133.778 81.8814 132.867 80.1113 131.565 78.0289C130.107 75.6338 129.118 74.6449 128.598 75.0611C128.025 75.5297 128.494 76.9095 130.003 79.2C130.628 80.7097 131.123 82.0372 131.487 83.1825C136.329 93.699 138.75 107.235 138.75 123.791C138.75 129.83 138.203 138.525 137.11 149.874C136.849 152.737 136.485 155.653 136.016 158.62C136.016 159.245 137.604 159.557 140.78 159.557C143.852 159.557 145.388 159.245 145.388 158.62Z" fill="#658525"/>
</svg>
