<svg width="180" height="180" viewBox="0 0 180 180" fill="none" xmlns="http://www.w3.org/2000/svg">
<path d="M59.6812 59.8281V118.398H118.251V59.8281H59.6812ZM53.0435 134.407V145.105H124.889V134.407H53.0435ZM57.1044 123.786L53.8244 129.097H124.108L120.828 123.786H57.1044ZM50.3884 150.416V155.726H127.7V150.416H50.3884ZM99.6649 22.5L100.29 31.793H111.613L112.238 22.5H130.355V49.1296L123.639 59.8281V118.398L130.355 129.097V145.105H132.932V161.036H45V145.105H47.577V129.097L54.293 118.398V59.8281L47.577 49.1296V22.5H65.6162L66.3193 31.793H77.6424L78.2674 22.5H99.6649ZM53.8244 49.1296L57.1044 54.3618H120.828L124.108 49.1296H53.8244ZM53.0435 43.8193H124.889V27.8103H117.626L116.923 37.1033H94.9793L94.2767 27.8103H83.6556L82.953 37.1033H61.0087L60.3062 27.8103H53.0435V43.8193Z" fill="#031C24"/>
<path d="M59.6812 59.828V118.398H118.251V59.828H59.6812ZM53.0436 134.407V145.105H124.889V134.407H53.0436ZM57.1044 123.786L53.8245 129.097H124.108L120.828 123.786H57.1044ZM50.3885 150.416V155.726H127.7V150.416H50.3885ZM53.8245 49.1295L57.1044 54.3617H120.828L124.108 49.1295H53.8245ZM53.0436 43.8192H124.889V27.8103H117.626L116.923 37.1033H94.9792L94.2767 27.8103H83.6561L82.953 37.1033H61.0093L60.3062 27.8103H53.0436V43.8192Z" fill="#CFEE91"/>
</svg>
