<svg width="256" height="256" viewBox="0 0 256 256" fill="none" xmlns="http://www.w3.org/2000/svg">
<g opacity="0.9">
<path d="M115.646 111.617V196.129H140.14V111.617C136.417 113.406 132.294 114.483 127.893 114.483C123.492 114.483 119.37 113.398 115.646 111.617V111.617ZM117.981 103.64C118.225 103.779 118.47 103.917 118.724 104.048C119.419 104.4 120.128 104.726 120.872 105.004C121.402 105.207 121.949 105.355 122.505 105.51C123.068 105.664 123.615 105.844 124.194 105.951C125.395 106.179 126.627 106.327 127.893 106.327C129.159 106.327 130.392 106.179 131.592 105.951C132.171 105.844 132.718 105.665 133.281 105.51C133.828 105.355 134.383 105.207 134.915 105.004C135.658 104.726 136.359 104.408 137.062 104.048C137.315 103.917 137.559 103.787 137.805 103.64C144.036 100.145 148.314 93.548 148.314 85.9058C148.314 76.0508 141.292 67.8047 131.984 65.9099V57.3299H136.067C138.321 57.3299 140.15 55.501 140.15 53.2471C140.148 50.9931 138.328 49.1643 136.074 49.1643H131.991L131.992 45.0828C131.992 42.8289 130.163 41 127.909 41C125.655 41 123.827 42.8289 123.827 45.0828V49.1643H119.744C117.49 49.1643 115.661 50.9931 115.661 53.2471C115.661 55.501 117.49 57.3299 119.744 57.3299H123.827V65.9109C114.518 67.8054 107.497 76.0515 107.497 85.9069C107.482 93.5477 111.752 100.145 117.981 103.639L117.981 103.64ZM148.304 196.13H176.881C181.135 196.13 185.152 196.995 188.958 198.334C201.197 180.152 221.787 146.106 221.787 122.647C221.787 111.748 217.541 101.501 209.834 93.7849C202.119 86.0702 191.864 81.8247 180.964 81.8247C170.065 81.8247 159.817 86.0702 151.775 94.1537C151.759 94.1701 150.844 94.9451 148.304 95.7953V196.13ZM78.9055 196.13H107.483V95.7525C104.844 94.8381 103.849 93.9646 103.694 93.7856C95.9776 86.0696 85.7236 81.824 74.8227 81.824C63.9235 81.824 53.6758 86.0696 45.9616 93.7772C38.2539 101.492 34 111.739 34 122.647C34 146.103 54.5919 180.152 66.8306 198.334C70.6345 196.996 74.6519 196.129 78.9055 196.129V196.13ZM181.309 204.743C179.862 204.482 178.401 204.295 176.883 204.295H78.9062C77.3876 204.295 75.9265 204.482 74.4805 204.745C60.8295 206.891 50.3292 218.632 50.3292 232.871C50.3292 235.125 52.1581 236.954 54.412 236.954H201.377C203.631 236.954 205.46 235.125 205.46 232.871C205.46 218.632 194.952 206.891 181.309 204.743Z" fill="black"/>
</g>
</svg>
