<svg width="256" height="256" viewBox="0 0 256 256" fill="none" xmlns="http://www.w3.org/2000/svg">
<g opacity="0.9">
<path d="M79.0321 130.437C80.7872 139.925 89.0828 147.142 99.0677 147.142H156.22C166.204 147.142 174.5 139.925 176.256 130.437C185.744 128.682 192.962 120.387 192.962 110.4V45.0814C192.962 42.8288 191.133 41 188.879 41H164.385C162.131 41 160.302 42.8289 160.302 45.0828V73.6584H143.972L143.974 45.0828C143.974 42.8289 142.145 41 139.891 41H115.397C113.143 41 111.314 42.8289 111.314 45.0828V73.6584H94.9855V45.0828C94.9855 42.8289 93.1566 41 90.9027 41H66.4085C64.1546 41 62.3257 42.8289 62.3257 45.0828V110.402C62.3257 120.387 69.5441 128.682 79.0314 130.437H79.0321ZM174.479 180.349C173.899 180.031 173.262 179.803 172.552 179.803C169.735 179.803 165.327 173.091 162.281 158.362C161.872 156.371 160.06 154.998 158.027 155.113C157.627 155.138 157.244 155.187 156.215 155.309L98.4261 155.235C98.0338 155.186 97.6511 155.128 97.2506 155.104C95.3233 155.013 93.4057 156.361 92.997 158.353C89.9516 173.09 85.542 179.793 82.7262 179.793C81.9909 179.793 81.3389 180.038 80.7498 180.373C74.9118 181.614 69.7109 185.157 66.6492 190.423C65.8742 191.755 65.9138 193.411 66.764 194.702C67.6046 195.992 69.0179 196.701 70.6337 196.539L72.0621 196.36C72.8945 196.245 73.7201 196.123 74.5771 196.123H180.717C181.566 196.123 182.4 196.246 183.232 196.36L184.661 196.539C184.815 196.555 184.963 196.563 185.11 196.563H185.201C187.798 196.751 189.356 194.759 189.356 192.481C189.356 191.305 188.867 190.251 188.082 189.509C184.938 184.726 179.998 181.509 174.479 180.35L174.479 180.349ZM180.717 204.297H74.577C58.8185 204.297 46 217.115 46 232.873C46 235.127 47.8289 236.955 50.0814 236.955H205.21C207.464 236.955 209.293 235.127 209.293 232.873C209.293 217.115 196.474 204.297 180.717 204.297V204.297Z" fill="black"/>
</g>
</svg>
