<svg width="2200" height="256" viewBox="0 0 2200 256" fill="none" xmlns="http://www.w3.org/2000/svg">
<path d="M464.139 218.3C494.539 218.3 509.739 207.9 509.739 187.1C509.739 180.7 508.339 175.3 505.539 170.9C502.939 166.3 499.339 162.4 494.739 159.2C490.139 155.8 484.839 152.9 478.839 150.5C473.039 148.1 466.839 145.7 460.239 143.3C452.639 140.7 445.439 137.8 438.639 134.6C431.839 131.2 425.939 127.3 420.939 122.9C415.939 118.3 411.939 112.9 408.939 106.7C406.139 100.5 404.739 93 404.739 84.2C404.739 66 410.939 51.8 423.339 41.6C435.739 31.4 452.839 26.3 474.639 26.3C487.239 26.3 498.639 27.7 508.839 30.5C519.239 33.1 526.839 36 531.639 39.2L522.339 62.9C518.139 60.3 511.839 57.8 503.439 55.4C495.239 52.8 485.639 51.5 474.639 51.5C469.039 51.5 463.839 52.1 459.039 53.3C454.239 54.5 450.039 56.3 446.439 58.7C442.839 61.1 439.939 64.2 437.739 68C435.739 71.6 434.739 75.9 434.739 80.9C434.739 86.5 435.839 91.2 438.039 95C440.239 98.8 443.339 102.2 447.339 105.2C451.339 108 455.939 110.6 461.139 113C466.539 115.4 472.439 117.8 478.839 120.2C487.839 123.8 496.039 127.4 503.439 131C511.039 134.6 517.539 138.9 522.939 143.9C528.539 148.9 532.839 154.9 535.839 161.9C538.839 168.7 540.339 177 540.339 186.8C540.339 205 533.639 219 520.239 228.8C507.039 238.6 488.339 243.5 464.139 243.5C455.939 243.5 448.339 242.9 441.339 241.7C434.539 240.7 428.439 239.5 423.039 238.1C417.639 236.5 412.939 234.9 408.939 233.3C405.139 231.5 402.139 230 399.939 228.8L408.639 204.8C413.239 207.4 420.239 210.3 429.639 213.5C439.039 216.7 450.539 218.3 464.139 218.3ZM706.307 31.1H735.407V239H706.307V143H604.607V239H575.507V31.1H604.607V117.8H706.307V31.1ZM925.93 239C922.53 230 919.33 221.2 916.33 212.6C913.33 203.8 910.23 194.9 907.03 185.9H812.83L793.93 239H763.63C771.63 217 779.13 196.7 786.13 178.1C793.13 159.3 799.93 141.5 806.53 124.7C813.33 107.9 820.03 91.9 826.63 76.7C833.23 61.3 840.13 46.1 847.33 31.1H874.03C881.23 46.1 888.13 61.3 894.73 76.7C901.33 91.9 907.93 107.9 914.53 124.7C921.33 141.5 928.23 159.3 935.23 178.1C942.23 196.7 949.73 217 957.73 239H925.93ZM898.63 161.9C892.23 144.5 885.83 127.7 879.43 111.5C873.23 95.1 866.73 79.4 859.93 64.4C852.93 79.4 846.23 95.1 839.83 111.5C833.63 127.7 827.43 144.5 821.23 161.9H898.63ZM1087.66 152C1090.86 156 1094.86 161.3 1099.66 167.9C1104.66 174.3 1109.76 181.5 1114.96 189.5C1120.16 197.3 1125.26 205.5 1130.26 214.1C1135.46 222.7 1139.86 231 1143.46 239H1111.66C1107.66 231.4 1103.26 223.7 1098.46 215.9C1093.86 208.1 1089.16 200.7 1084.36 193.7C1079.56 186.5 1074.76 179.8 1069.96 173.6C1065.36 167.4 1061.16 162 1057.36 157.4C1054.76 157.6 1052.06 157.7 1049.26 157.7C1046.66 157.7 1043.96 157.7 1041.16 157.7H1015.06V239H985.956V34.1C994.156 32.1 1003.26 30.8 1013.26 30.2C1023.46 29.4 1032.76 29 1041.16 29C1070.36 29 1092.56 34.5 1107.76 45.5C1123.16 56.5 1130.86 72.9 1130.86 94.7C1130.86 108.5 1127.16 120.3 1119.76 130.1C1112.56 139.9 1101.86 147.2 1087.66 152ZM1043.56 54.5C1031.16 54.5 1021.66 54.8 1015.06 55.4V133.7H1035.76C1045.76 133.7 1054.76 133.2 1062.76 132.2C1070.76 131.2 1077.46 129.3 1082.86 126.5C1088.46 123.7 1092.76 119.8 1095.76 114.8C1098.76 109.6 1100.26 102.8 1100.26 94.4C1100.26 86.6 1098.76 80.1 1095.76 74.9C1092.76 69.7 1088.66 65.6 1083.46 62.6C1078.46 59.6 1072.46 57.5 1065.46 56.3C1058.66 55.1 1051.36 54.5 1043.56 54.5ZM1174.63 239V31.1H1301.53V56H1203.73V117.8H1290.73V142.1H1203.73V214.1H1309.03V239H1174.63ZM1426.92 243.5C1412.32 243.5 1399.02 241.1 1387.02 236.3C1375.02 231.5 1364.72 224.5 1356.12 215.3C1347.52 206.1 1340.82 194.8 1336.02 181.4C1331.42 167.8 1329.12 152.3 1329.12 134.9C1329.12 117.5 1331.72 102.1 1336.92 88.7C1342.32 75.1 1349.52 63.7 1358.52 54.5C1367.52 45.3 1378.02 38.3 1390.02 33.5C1402.02 28.7 1414.82 26.3 1428.42 26.3C1437.02 26.3 1444.72 26.9 1451.52 28.1C1458.52 29.3 1464.52 30.7 1469.52 32.3C1474.72 33.9 1478.92 35.5 1482.12 37.1C1485.32 38.7 1487.52 39.9 1488.72 40.7L1480.32 64.7C1478.52 63.5 1475.92 62.2 1472.52 60.8C1469.12 59.4 1465.22 58 1460.82 56.6C1456.62 55.2 1451.92 54.1 1446.72 53.3C1441.72 52.3 1436.62 51.8 1431.42 51.8C1420.42 51.8 1410.52 53.7 1401.72 57.5C1392.92 61.3 1385.42 66.8 1379.22 74C1373.02 81.2 1368.22 90 1364.82 100.4C1361.62 110.6 1360.02 122.1 1360.02 134.9C1360.02 147.3 1361.42 158.6 1364.22 168.8C1367.22 179 1371.62 187.8 1377.42 195.2C1383.22 202.4 1390.42 208 1399.02 212C1407.82 216 1418.02 218 1429.62 218C1443.02 218 1454.12 216.6 1462.92 213.8C1471.72 211 1478.32 208.5 1482.72 206.3L1490.22 230.3C1488.82 231.3 1486.32 232.6 1482.72 234.2C1479.12 235.6 1474.62 237 1469.22 238.4C1463.82 239.8 1457.52 241 1450.32 242C1443.12 243 1435.32 243.5 1426.92 243.5ZM1654.35 31.1H1683.45V239H1654.35V143H1552.65V239H1523.55V31.1H1552.65V117.8H1654.35V31.1ZM1735.08 239V31.1H1861.98V56H1764.18V117.8H1851.18V142.1H1764.18V214.1H1869.48V239H1735.08ZM1954.76 218.3C1985.16 218.3 2000.36 207.9 2000.36 187.1C2000.36 180.7 1998.96 175.3 1996.16 170.9C1993.56 166.3 1989.96 162.4 1985.36 159.2C1980.76 155.8 1975.46 152.9 1969.46 150.5C1963.66 148.1 1957.46 145.7 1950.86 143.3C1943.26 140.7 1936.06 137.8 1929.26 134.6C1922.46 131.2 1916.56 127.3 1911.56 122.9C1906.56 118.3 1902.56 112.9 1899.56 106.7C1896.76 100.5 1895.36 93 1895.36 84.2C1895.36 66 1901.56 51.8 1913.96 41.6C1926.36 31.4 1943.46 26.3 1965.26 26.3C1977.86 26.3 1989.26 27.7 1999.46 30.5C2009.86 33.1 2017.46 36 2022.26 39.2L2012.96 62.9C2008.76 60.3 2002.46 57.8 1994.06 55.4C1985.86 52.8 1976.26 51.5 1965.26 51.5C1959.66 51.5 1954.46 52.1 1949.66 53.3C1944.86 54.5 1940.66 56.3 1937.06 58.7C1933.46 61.1 1930.56 64.2 1928.36 68C1926.36 71.6 1925.36 75.9 1925.36 80.9C1925.36 86.5 1926.46 91.2 1928.66 95C1930.86 98.8 1933.96 102.2 1937.96 105.2C1941.96 108 1946.56 110.6 1951.76 113C1957.16 115.4 1963.06 117.8 1969.46 120.2C1978.46 123.8 1986.66 127.4 1994.06 131C2001.66 134.6 2008.16 138.9 2013.56 143.9C2019.16 148.9 2023.46 154.9 2026.46 161.9C2029.46 168.7 2030.96 177 2030.96 186.8C2030.96 205 2024.26 219 2010.86 228.8C1997.66 238.6 1978.96 243.5 1954.76 243.5C1946.56 243.5 1938.96 242.9 1931.96 241.7C1925.16 240.7 1919.06 239.5 1913.66 238.1C1908.26 236.5 1903.56 234.9 1899.56 233.3C1895.76 231.5 1892.76 230 1890.56 228.8L1899.26 204.8C1903.86 207.4 1910.86 210.3 1920.26 213.5C1929.66 216.7 1941.16 218.3 1954.76 218.3ZM2114.43 218.3C2144.83 218.3 2160.03 207.9 2160.03 187.1C2160.03 180.7 2158.63 175.3 2155.83 170.9C2153.23 166.3 2149.63 162.4 2145.03 159.2C2140.43 155.8 2135.13 152.9 2129.13 150.5C2123.33 148.1 2117.13 145.7 2110.53 143.3C2102.93 140.7 2095.73 137.8 2088.93 134.6C2082.13 131.2 2076.23 127.3 2071.23 122.9C2066.23 118.3 2062.23 112.9 2059.23 106.7C2056.43 100.5 2055.03 93 2055.03 84.2C2055.03 66 2061.23 51.8 2073.63 41.6C2086.03 31.4 2103.13 26.3 2124.93 26.3C2137.53 26.3 2148.93 27.7 2159.13 30.5C2169.53 33.1 2177.13 36 2181.93 39.2L2172.63 62.9C2168.43 60.3 2162.13 57.8 2153.73 55.4C2145.53 52.8 2135.93 51.5 2124.93 51.5C2119.33 51.5 2114.13 52.1 2109.33 53.3C2104.53 54.5 2100.33 56.3 2096.73 58.7C2093.13 61.1 2090.23 64.2 2088.03 68C2086.03 71.6 2085.03 75.9 2085.03 80.9C2085.03 86.5 2086.13 91.2 2088.33 95C2090.53 98.8 2093.63 102.2 2097.63 105.2C2101.63 108 2106.23 110.6 2111.43 113C2116.83 115.4 2122.73 117.8 2129.13 120.2C2138.13 123.8 2146.33 127.4 2153.73 131C2161.33 134.6 2167.83 138.9 2173.23 143.9C2178.83 148.9 2183.13 154.9 2186.13 161.9C2189.13 168.7 2190.63 177 2190.63 186.8C2190.63 205 2183.93 219 2170.53 228.8C2157.33 238.6 2138.63 243.5 2114.43 243.5C2106.23 243.5 2098.63 242.9 2091.63 241.7C2084.83 240.7 2078.73 239.5 2073.33 238.1C2067.93 236.5 2063.23 234.9 2059.23 233.3C2055.43 231.5 2052.43 230 2050.23 228.8L2058.93 204.8C2063.53 207.4 2070.53 210.3 2079.93 213.5C2089.33 216.7 2100.83 218.3 2114.43 218.3Z" fill="#242727"/>
<rect width="256" height="256" rx="50" fill="white"/>
<path fill-rule="evenodd" clip-rule="evenodd" d="M256 128V50C256 22.3858 233.614 0 206 0H128V128H256Z" fill="#00AD88"/>
<path fill-rule="evenodd" clip-rule="evenodd" d="M0 128V206C0 233.614 22.3858 256 50 256H128V128H0Z" fill="#00AD88"/>
<rect x="10" y="10" width="236" height="236" rx="40" stroke="#00AD88" stroke-width="20"/>
<path d="M155.002 42.7672C152.107 40.0032 147.843 39.2317 144.163 40.8061C140.483 42.3805 138.097 45.9975 138.097 50V74.3265C99.0027 88.4033 46.9334 122.144 29.3254 189.47C28.1638 193.911 30.1756 198.573 34.204 200.775C38.2324 202.977 43.2425 202.153 46.3536 198.777C77.7635 164.693 119.534 160.023 138.097 159.717V181.461C138.097 185.462 140.482 189.078 144.159 190.653C147.837 192.228 152.1 191.46 154.996 188.699L223.899 123.024C225.878 121.138 226.999 118.524 227 115.79C227.001 113.056 225.883 110.441 223.906 108.553L155.002 42.7672Z" fill="white" stroke="black" stroke-width="20" stroke-linejoin="round"/>
</svg>
