<svg width="257" height="256" viewBox="0 0 257 256" fill="none" xmlns="http://www.w3.org/2000/svg">
<path fill-rule="evenodd" clip-rule="evenodd" d="M128.672 220.116C156.661 220.116 182.266 212.389 201.042 199.582C219.788 186.797 232.238 168.513 232.238 147.57V109.545C232.238 88.602 219.788 70.3186 201.042 57.5329C182.266 44.7266 156.661 36.9993 128.672 36.9993C100.683 36.9993 75.0785 44.7266 56.3023 57.5329C37.5565 70.3186 25.1062 88.602 25.1062 109.545V147.57C25.1062 168.513 37.5565 186.797 56.3023 199.582C75.0785 212.389 100.683 220.116 128.672 220.116Z" fill="#254628"/>
<path d="M226.234 147.57C226.234 184.32 182.554 214.112 128.672 214.112C74.7901 214.112 31.11 184.32 31.11 147.57V109.545C31.11 72.795 74.7901 43.0029 128.672 43.0029C182.554 43.0029 226.234 72.795 226.234 109.545V147.57Z" fill="#C6DE41"/>
<path d="M128.672 214.112C182.554 214.112 226.234 184.32 226.234 147.57V109.546C226.234 146.296 182.554 176.088 128.672 176.088C74.7898 176.088 31.1097 146.296 31.1097 109.546V147.57C31.1097 184.32 74.7898 214.112 128.672 214.112Z" fill="#001C09" fill-opacity="0.4"/>
<path d="M208.556 109.191C208.227 86.5598 173.015 68.2666 129.625 68.2666C86.2356 68.2666 51.0232 86.5598 50.6943 109.191C50.6928 109.061 50.692 108.93 50.692 108.8C50.692 80.9156 86.0315 58.311 129.625 58.311C173.219 58.311 208.559 80.9156 208.559 108.8C208.559 108.931 208.558 109.061 208.556 109.191Z" fill="#001C09" fill-opacity="0.4"/>
<path d="M129.625 159.289C171.176 159.289 205.228 138.753 208.329 112.684L208.556 109.191C208.227 86.5598 173.015 68.2666 129.625 68.2666C86.2356 68.2666 51.0232 86.5598 50.6943 109.191L50.9221 112.684C54.0225 138.753 88.0745 159.289 129.625 159.289Z" fill="#001C09" fill-opacity="0.15"/>
</svg>
