<svg width="257" height="256" viewBox="0 0 257 256" fill="none" xmlns="http://www.w3.org/2000/svg">
<path fill-rule="evenodd" clip-rule="evenodd" d="M128.445 220.116C156.434 220.116 182.039 212.389 200.815 199.582C219.561 186.797 232.011 168.513 232.011 147.57V109.545C232.011 88.602 219.561 70.3186 200.815 57.5329C182.039 44.7266 156.434 36.9993 128.445 36.9993C100.456 36.9993 74.8512 44.7266 56.0751 57.5329C37.3292 70.3186 24.8789 88.602 24.8789 109.545V147.57C24.8789 168.513 37.3292 186.797 56.0751 199.582C74.8512 212.389 100.456 220.116 128.445 220.116Z" fill="#180C1D"/>
<path d="M226.007 147.57C226.007 184.32 182.327 214.112 128.445 214.112C74.5629 214.112 30.8828 184.32 30.8828 147.57V109.545C30.8828 72.795 74.5629 43.0029 128.445 43.0029C182.327 43.0029 226.007 72.795 226.007 109.545V147.57Z" fill="#A12559"/>
<path d="M128.444 214.112C182.327 214.112 226.007 184.32 226.007 147.57V109.546C226.007 146.296 182.327 176.088 128.444 176.088C74.5624 176.088 30.8823 146.296 30.8823 109.546V147.57C30.8823 184.32 74.5624 214.112 128.444 214.112Z" fill="black" fill-opacity="0.5"/>
<path d="M208.329 109.191C208 86.5598 172.787 68.2666 129.398 68.2666C86.008 68.2666 50.7955 86.5598 50.4667 109.191C50.4651 109.061 50.4644 108.93 50.4644 108.8C50.4644 80.9156 85.8038 58.311 129.398 58.311C172.992 58.311 208.331 80.9156 208.331 108.8C208.331 108.931 208.33 109.061 208.329 109.191Z" fill="black" fill-opacity="0.5"/>
<path d="M129.398 159.289C170.949 159.289 205.001 138.753 208.101 112.684L208.329 109.191C208 86.5598 172.787 68.2666 129.398 68.2666C86.008 68.2666 50.7955 86.5598 50.4667 109.191L50.6944 112.684C53.7948 138.753 87.8468 159.289 129.398 159.289Z" fill="black" fill-opacity="0.2"/>
</svg>
