<svg width="257" height="256" viewBox="0 0 257 256" fill="none" xmlns="http://www.w3.org/2000/svg">
<path fill-rule="evenodd" clip-rule="evenodd" d="M127.709 220.116C155.698 220.116 181.303 212.389 200.079 199.582C218.825 186.797 231.275 168.513 231.275 147.57V109.545C231.275 88.602 218.825 70.3186 200.079 57.5329C181.303 44.7266 155.698 36.9993 127.709 36.9993C99.7201 36.9993 74.1153 44.7266 55.3392 57.5329C36.5934 70.3186 24.1431 88.602 24.1431 109.545V147.57C24.1431 168.513 36.5934 186.797 55.3392 199.582C74.1153 212.389 99.7201 220.116 127.709 220.116Z" fill="#180C1D"/>
<path d="M225.271 147.57C225.271 184.32 181.591 214.112 127.709 214.112C73.8268 214.112 30.1467 184.32 30.1467 147.57V109.545C30.1467 72.795 73.8268 43.0029 127.709 43.0029C181.591 43.0029 225.271 72.795 225.271 109.545V147.57Z" fill="#A12559"/>
<path d="M127.709 214.112C181.591 214.112 225.271 184.32 225.271 147.57V109.546C225.271 146.296 181.591 176.088 127.709 176.088C73.8266 176.088 30.1465 146.296 30.1465 109.546V147.57C30.1465 184.32 73.8266 214.112 127.709 214.112Z" fill="black" fill-opacity="0.5"/>
<path d="M207.593 109.191C207.264 86.5598 172.052 68.2666 128.662 68.2666C85.2726 68.2666 50.0602 86.5598 49.7313 109.191C49.7298 109.061 49.729 108.93 49.729 108.8C49.729 80.9156 85.0685 58.311 128.662 58.311C172.256 58.311 207.596 80.9156 207.596 108.8C207.596 108.931 207.595 109.061 207.593 109.191Z" fill="black" fill-opacity="0.5"/>
<path d="M128.662 159.289C170.213 159.289 204.265 138.753 207.366 112.684L207.593 109.191C207.264 86.5598 172.052 68.2666 128.662 68.2666C85.2726 68.2666 50.0602 86.5598 49.7313 109.191L49.9591 112.684C53.0594 138.753 87.1115 159.289 128.662 159.289Z" fill="black" fill-opacity="0.2"/>
</svg>
