<svg width="32" height="32" viewBox="0 0 32 32" fill="none" xmlns="http://www.w3.org/2000/svg">
<path d="M15.9747 9.62992H15.0253V7.56468H13.8664C13.5312 7.56468 13.3637 7.4072 13.3637 7.09224C13.3637 6.78628 13.5219 6.6333 13.8384 6.6333L15.0253 6.6468V5.45894C15.0253 5.15298 15.1835 5 15.5 5C15.8165 5 15.9747 5.15298 15.9747 5.45894V6.6468L17.1895 6.6333C17.4967 6.6333 17.6503 6.78628 17.6503 7.09224C17.6503 7.4072 17.4967 7.56468 17.1895 7.56468H15.9747V9.62992ZM15.5 14.7188L11.2134 14.7323L9.34242 12.5861C9.1004 12.2801 8.80253 11.9291 8.4488 11.5332C8.10439 11.1282 7.90426 10.8043 7.8484 10.5613C7.77394 10.3183 7.8484 10.1024 8.07181 9.91339C8.30452 9.72441 8.56051 9.62992 8.83976 9.62992H15.5L22.1602 9.61642C22.4395 9.61642 22.6862 9.71091 22.9003 9.89989C23.1237 10.0889 23.2074 10.3048 23.1516 10.5478C23.0771 10.7998 22.863 11.1237 22.5093 11.5197C22.1649 11.9156 21.8763 12.2666 21.6436 12.5726L19.7866 14.7188H15.5ZM19.7866 22.0889C19.7866 22.7008 20.1031 23.0068 20.736 23.0068H21.9229C22.7141 23.0068 23.1097 23.3892 23.1097 24.1541C23.1097 24.928 22.7141 25.315 21.9229 25.315H9.07713C8.2766 25.315 7.87633 24.928 7.87633 24.1541C7.87633 23.3892 8.2766 23.0068 9.07713 23.0068H10.264C10.8876 23.0068 11.1995 22.7008 11.1995 22.0889V18.8628H19.7866V22.0889ZM9.78923 15.6367H21.2247C22.0253 15.6367 22.4255 16.0191 22.4255 16.784C22.4255 17.5579 22.0253 17.9449 21.2247 17.9449H9.78923C8.99801 17.9449 8.60239 17.5579 8.60239 16.784C8.60239 16.0191 8.99801 15.6367 9.78923 15.6367ZM6.43816 26.2328H24.5618C25.5206 26.2328 26 26.6918 26 27.6097C26 28.5366 25.5206 29 24.5618 29H6.43816C5.47939 29 5 28.5366 5 27.6097C5 26.6918 5.47939 26.2328 6.43816 26.2328Z" fill="black"/>
</svg>
