<svg width="32" height="32" viewBox="0 0 32 32" fill="none" xmlns="http://www.w3.org/2000/svg">
<path d="M7.39466 27.2052C6.93889 27.2052 6.711 27.4376 6.711 27.9025C6.711 28.3674 6.93889 28.5998 7.39466 28.5998H25.1561C25.621 28.5998 25.8534 28.3674 25.8534 27.9025C25.8534 27.4376 25.621 27.2052 25.1561 27.2052H7.39466ZM7.40833 26.5078H25.1561C26.095 26.5078 26.5644 26.9727 26.5644 27.9025C26.5644 28.8414 26.095 29.3108 25.1561 29.3108H7.40833C6.46944 29.3108 6 28.8414 6 27.9025C6 26.9727 6.46944 26.5078 7.40833 26.5078H7.40833ZM10.6762 16.4718C10.3663 16.4718 10.2113 16.6267 10.2113 16.9366C10.2113 17.2466 10.3663 17.4015 10.6762 17.4015H21.8882C22.1981 17.4015 22.3531 17.2466 22.3531 16.9366C22.3531 16.6267 22.1981 16.4718 21.8882 16.4718H10.6762ZM10.6899 15.7744H21.8882C22.6721 15.7744 23.0641 16.1618 23.0641 16.9366C23.0641 17.7206 22.6721 18.1125 21.8882 18.1125H10.6899C9.91508 18.1125 9.52767 17.7206 9.52767 16.9366C9.52767 16.1618 9.91508 15.7744 10.6899 15.7744H10.6899ZM19.7825 22.3102V19.7396H12.7819V22.3102C12.7819 22.766 12.6178 23.1534 12.2896 23.4724C11.9706 23.7823 11.5923 23.9373 11.1548 23.9373H9.99256C9.68263 23.9373 9.52767 24.0923 9.52767 24.4022C9.52767 24.7121 9.68263 24.8671 9.99256 24.8671H22.5992C22.9091 24.8671 23.0641 24.7121 23.0641 24.4022C23.0641 24.0923 22.9091 23.9373 22.5992 23.9373H21.4096C20.9539 23.9373 20.5664 23.7823 20.2474 23.4724C19.9284 23.1534 19.7734 22.766 19.7825 22.3102ZM20.4799 22.3102C20.4799 22.93 20.7898 23.24 21.4096 23.24H22.5718C23.3467 23.24 23.7341 23.6274 23.7341 24.4022C23.7341 25.1861 23.3467 25.5781 22.5718 25.5781H9.99256C9.20863 25.5781 8.81667 25.1861 8.81667 24.4022C8.81667 23.6274 9.20863 23.24 9.99256 23.24H11.1548C11.7655 23.24 12.0709 22.93 12.0709 22.3102V19.0423H20.4799L20.4799 22.3102ZM16.2822 14.1337H20.1654L21.6694 12.3288C21.8061 12.1647 21.9748 11.9596 22.1753 11.7135C22.385 11.4674 22.5855 11.2349 22.7769 11.0162C22.9592 10.7974 22.9866 10.6424 22.859 10.5513C22.7405 10.451 22.6037 10.4009 22.4488 10.4009H16.2822H10.1019C9.93786 10.4009 9.79658 10.451 9.67807 10.5513C9.55957 10.6424 9.59604 10.7974 9.78746 11.0162C9.96977 11.2441 10.1612 11.4811 10.3617 11.7272C10.5623 11.9642 10.74 12.1693 10.895 12.3425L12.399 14.1337H16.2822ZM16.2822 14.8447L12.0845 14.8583L10.2523 12.6843C10.0153 12.3744 9.72365 12.0189 9.37727 11.6178C9.03999 11.2076 8.84401 10.8795 8.78932 10.6333C8.7164 10.3872 8.78932 10.1685 9.00809 9.97703C9.23598 9.7856 9.48665 9.68989 9.76011 9.68989H16.2822L22.8043 9.67621C23.0777 9.67621 23.3193 9.77192 23.529 9.96335C23.7477 10.1548 23.8298 10.3735 23.7751 10.6197C23.7022 10.8749 23.4925 11.203 23.1461 11.6041C22.8088 12.0052 22.5263 12.3607 22.2984 12.6706L20.4799 14.8447H16.2822ZM16.7471 9.68988H15.8173V7.59789H14.6824C14.3543 7.59789 14.1902 7.43837 14.1902 7.11933C14.1902 6.80941 14.3452 6.65445 14.6551 6.65445L15.8173 6.66812V5.46489C15.8173 5.15496 15.9723 5 16.2822 5C16.5921 5 16.7471 5.15496 16.7471 5.46489V6.66812L17.9367 6.65445C18.2375 6.65445 18.3879 6.80941 18.3879 7.11933C18.3879 7.43837 18.2375 7.59789 17.9367 7.59789H16.7471V9.68988Z" fill="black"/>
<path d="M7.39462 27.2052C6.93885 27.2052 6.71097 27.4376 6.71097 27.9025C6.71097 28.3674 6.93885 28.5998 7.39462 28.5998H25.156C25.6209 28.5998 25.8534 28.3674 25.8534 27.9025C25.8534 27.4376 25.6209 27.2052 25.156 27.2052H7.39462ZM10.6762 16.4718C10.3663 16.4718 10.2113 16.6267 10.2113 16.9366C10.2113 17.2466 10.3663 17.4015 10.6762 17.4015H21.8882C22.1981 17.4015 22.353 17.2466 22.353 16.9366C22.353 16.6267 22.1981 16.4718 21.8882 16.4718H10.6762ZM19.7825 22.3102V19.7396H12.7818V22.3102C12.7818 22.766 12.6178 23.1534 12.2896 23.4724C11.9706 23.7823 11.5923 23.9373 11.1547 23.9373H9.99252C9.6826 23.9373 9.52763 24.0922 9.52763 24.4022C9.52763 24.7121 9.6826 24.8671 9.99252 24.8671H22.5992C22.9091 24.8671 23.064 24.7121 23.064 24.4022C23.064 24.0922 22.9091 23.9373 22.5992 23.9373H21.4096C20.9538 23.9373 20.5664 23.7823 20.2474 23.4724C19.9283 23.1534 19.7734 22.766 19.7825 22.3102ZM16.2822 14.1336H20.1653L21.6694 12.3288C21.8061 12.1647 21.9747 11.9596 22.1753 11.7135C22.3849 11.4674 22.5855 11.2349 22.7769 11.0162C22.9592 10.7974 22.9866 10.6424 22.8589 10.5513C22.7404 10.451 22.6037 10.4009 22.4487 10.4009H16.2822H10.1019C9.93783 10.4009 9.79654 10.451 9.67804 10.5513C9.55954 10.6424 9.596 10.7974 9.78742 11.0162C9.96973 11.2441 10.1612 11.4811 10.3617 11.7272C10.5622 11.9642 10.74 12.1693 10.8949 12.3425L12.399 14.1336H16.2822Z" fill="white"/>
</svg>
