<svg width="32" height="32" viewBox="0 0 32 32" fill="none" xmlns="http://www.w3.org/2000/svg">
<path d="M19.7866 21.9946C19.7866 22.6149 20.1031 22.925 20.736 22.925H21.9229C22.7141 22.925 23.1097 23.3127 23.1097 24.088C23.1097 24.8725 22.7141 25.2647 21.9229 25.2647H9.07713C8.2766 25.2647 7.87633 24.8725 7.87633 24.088C7.87633 23.3127 8.2766 22.925 9.07713 22.925H10.264C10.8876 22.925 11.1995 22.6149 11.1995 21.9946V18.7246H19.7866V21.9946ZM6.43816 26.1951H24.5618C25.5206 26.1951 26 26.6603 26 27.5907C26 28.5302 25.5206 29 24.5618 29H6.43816C5.47939 29 5 28.5302 5 27.5907C5 26.6603 5.47939 26.1951 6.43816 26.1951ZM16.268 6.67044C18.1017 6.88936 19.5445 7.6282 20.5964 8.88698C21.6576 10.1458 22.1835 11.7101 22.1742 13.58L22.1323 17.7805L8.85372 17.7668C8.57447 16.7543 8.70013 15.792 9.23072 14.8798C9.7613 13.9677 10.5432 13.3839 11.5765 13.1285C12.3956 13.1467 13.1031 12.9005 13.6988 12.3896C14.3039 11.8788 14.6064 11.2631 14.6064 10.5425L11.7021 11.5961C11.2088 11.8515 10.7061 11.9153 10.1941 11.7876C9.69149 11.6508 9.3145 11.3635 9.06316 10.9256C8.80253 10.4878 8.71875 9.9998 8.81184 9.46163C8.91423 8.92346 9.20279 8.50387 9.67753 8.20286L14.9694 6.53361C14.9973 6.2326 15.1044 6.05929 15.2906 6.01368C15.6536 5.94071 15.9794 6.15963 16.268 6.67043V6.67044ZM13.8803 8.17549C13.3125 8.32144 13.0658 8.54036 13.1403 8.83225C13.2148 9.12414 13.5406 9.19255 14.1177 9.03748C14.6855 8.89154 14.9368 8.67262 14.8717 8.38073C14.7879 8.09796 14.4574 8.02955 13.8803 8.17549Z" fill="black"/>
</svg>
