<svg width="32" height="32" viewBox="0 0 32 32" fill="none" xmlns="http://www.w3.org/2000/svg">
<path d="M15.5 7C16.6729 7 17.6782 7.39912 18.516 8.19737C19.363 8.98684 19.7866 9.93421 19.7866 11.0395C19.7866 12.1535 19.363 13.1053 18.516 13.8947C17.6782 14.6842 16.6729 15.0789 15.5 15.0789C14.3178 15.0789 13.3078 14.6842 12.4701 13.8947C11.6323 13.1053 11.2134 12.1535 11.2134 11.0395C11.2134 9.93421 11.6323 8.98684 12.4701 8.19737C13.3078 7.39912 14.3178 7 15.5 7ZM19.7866 22.2632C19.7866 22.8597 20.1031 23.1579 20.736 23.1579H21.9229C22.7141 23.1579 23.1097 23.5307 23.1097 24.2763C23.1097 25.0307 22.7141 25.4079 21.9229 25.4079H9.07713C8.2766 25.4079 7.87633 25.0307 7.87633 24.2763C7.87633 23.5307 8.2766 23.1579 9.07713 23.1579H10.264C10.8876 23.1579 11.1995 22.8597 11.1995 22.2632V19.1184H19.7866V22.2632ZM9.78923 15.9737H21.2247C22.0253 15.9737 22.4255 16.3465 22.4255 17.0921C22.4255 17.8465 22.0253 18.2237 21.2247 18.2237H9.78923C8.99801 18.2237 8.60239 17.8465 8.60239 17.0921C8.60239 16.3465 8.99801 15.9737 9.78923 15.9737ZM6.43816 26.3026H24.5618C25.5206 26.3026 26 26.75 26 27.6447C26 28.5482 25.5206 29 24.5618 29H6.43816C5.47939 29 5 28.5482 5 27.6447C5 26.75 5.47939 26.3026 6.43816 26.3026Z" fill="black"/>
</svg>
