<svg width="32" height="32" viewBox="0 0 32 32" fill="none" xmlns="http://www.w3.org/2000/svg">
<path d="M15.5 4C16.2912 4 16.6868 4.38103 16.6868 5.14309C16.6868 5.90515 16.2912 6.28617 15.5 6.28617C14.7088 6.28617 14.3132 5.90515 14.3132 5.14309C14.3132 4.38103 14.7088 4 15.5 4V4ZM7.47141 7.84615C7.77859 8.38408 8.48138 8.86372 9.57979 9.2851C10.6782 9.69751 11.2274 10.2309 11.2274 10.8854C11.2274 10.2309 11.8604 9.45544 13.1263 8.5589C14.4016 7.6534 15.1928 6.9272 15.5 6.38031C15.8072 6.9272 16.6031 7.6534 17.8876 8.5589C19.1722 9.45544 19.8005 10.2309 19.7726 10.8854C19.7354 10.2309 20.2613 9.69751 21.3504 9.2851C22.4488 8.86372 23.1795 8.37063 23.5426 7.80581V11.6116C23.2354 12.1585 22.514 12.7233 21.3783 13.3061C20.252 13.8799 19.7028 14.494 19.7307 15.1485C19.7586 14.494 19.135 13.7588 17.8597 12.943C16.5937 12.1182 15.8072 11.4323 15.5 10.8854C15.1928 11.4323 14.4062 12.1182 13.1403 12.943C11.8836 13.7588 11.2553 14.494 11.2553 15.1485C11.2553 14.494 10.6968 13.8799 9.57979 13.3061C8.47207 12.7233 7.76463 12.1585 7.45745 11.6116L7.47141 7.84615ZM7.28989 5.4255C8.08112 5.4255 8.47673 5.80653 8.47673 6.56858C8.47673 7.33064 8.08112 7.71167 7.28989 7.71167C6.49867 7.71167 6.10306 7.33064 6.10306 6.56858C6.10306 5.80653 6.49867 5.4255 7.28989 5.4255ZM23.5984 5.38515C24.3896 5.38515 24.7852 5.77066 24.7852 6.54169C24.7852 7.30375 24.3896 7.68478 23.5984 7.68478C22.8072 7.68478 22.4116 7.30375 22.4116 6.54169C22.4116 5.77066 22.8072 5.38515 23.5984 5.38515ZM19.7866 22.1146C19.7866 22.7242 20.1031 23.029 20.736 23.029H21.9229C22.7141 23.029 23.1097 23.4101 23.1097 24.1721C23.1097 24.9432 22.7141 25.3287 21.9229 25.3287H9.07713C8.2766 25.3287 7.87633 24.9432 7.87633 24.1721C7.87633 23.4101 8.2766 23.029 9.07713 23.029H10.264C10.8876 23.029 11.1995 22.7242 11.1995 22.1146V18.9005H19.7866V22.1146ZM9.78923 15.6864H21.2247C22.0253 15.6864 22.4255 16.0674 22.4255 16.8295C22.4255 17.6005 22.0253 17.986 21.2247 17.986H9.78923C8.99801 17.986 8.60239 17.6005 8.60239 16.8295C8.60239 16.0674 8.99801 15.6864 9.78923 15.6864ZM6.43816 26.2431H24.5618C25.5206 26.2431 26 26.7004 26 27.6148C26 28.5383 25.5206 29 24.5618 29H6.43816C5.47939 29 5 28.5383 5 27.6148C5 26.7004 5.47939 26.2431 6.43816 26.2431Z" fill="black"/>
</svg>
