<svg width="32" height="32" viewBox="0 0 32 32" fill="none" xmlns="http://www.w3.org/2000/svg">
<path d="M8.26973 6.1877C7.94158 6.1877 7.7775 6.35178 7.7775 6.67994C7.7775 6.99898 7.94158 7.1585 8.26973 7.1585C8.58877 7.1585 8.74829 6.99898 8.74829 6.67994C8.74829 6.35178 8.58877 6.1877 8.26973 6.1877ZM23.3786 9.3462C23.3786 9.51027 23.0139 9.77462 22.2847 10.1392C21.5555 10.5039 20.9493 11.1009 20.4662 11.9304C19.9192 11.3015 19.5091 10.7819 19.2356 10.3717C18.9621 9.96149 18.6066 9.61966 18.1691 9.3462C17.8774 8.89954 17.613 8.61241 17.376 8.48479C17.139 8.34806 16.82 8.04725 16.4189 7.58236C16.109 7.89229 15.8355 8.11106 15.5985 8.23867C15.3706 8.35717 15.0151 8.69445 14.532 9.25049C14.1401 9.5513 13.7937 9.86122 13.4929 10.1803C13.2012 10.4993 12.7363 11.0827 12.0982 11.9304C11.6698 11.1009 11.0864 10.5221 10.348 10.1939C9.6097 9.85666 9.24052 9.58776 9.24052 9.38722V11.3972C9.24052 11.6342 9.60058 11.9167 10.3207 12.2449C11.0499 12.5639 11.6516 13.1154 12.1256 13.8994C12.7454 13.1154 13.2468 12.5958 13.6296 12.3406C14.0216 12.0854 14.4363 11.7846 14.8739 11.4382C15.2385 11.0006 15.48 10.7226 15.5985 10.6041C15.7262 10.4765 15.9358 10.2669 16.2275 9.97516C16.501 10.2669 16.7288 10.472 16.9112 10.5905C17.1026 10.6998 17.3441 10.9186 17.6358 11.2468C18.2375 11.894 18.7251 12.3133 19.0989 12.5047C19.4726 12.6961 19.9192 13.161 20.4388 13.8994C20.8126 13.3069 21.4506 12.728 22.3531 12.1629C23.2555 11.5977 23.5973 11.3242 23.3786 11.3425V9.3462ZM8.42014 7.91052C8.72095 8.45744 9.40916 8.94512 10.4848 9.37354C11.5604 9.79285 12.0982 10.3352 12.0982 11.0006C12.0982 10.3352 12.7181 9.54674 13.9578 8.63519C15.2066 7.71454 15.9814 6.97619 16.2822 6.42015C16.583 6.97619 17.3624 7.71454 18.6203 8.63519C19.8782 9.54674 20.4935 10.3352 20.4662 11.0006C20.4297 10.3352 20.9447 9.79285 22.0112 9.37354C23.0869 8.94512 23.8024 8.44377 24.1579 7.8695V11.739C23.8571 12.295 23.1507 12.8693 22.0386 13.4618C20.9356 14.0452 20.3978 14.6696 20.4252 15.335C20.4525 14.6696 19.8418 13.9221 18.593 13.0926C17.3533 12.254 16.583 11.5567 16.2822 11.0006C15.9814 11.5567 15.2111 12.254 13.9714 13.0926C12.7408 13.9221 12.1256 14.6696 12.1256 15.335C12.1256 14.6696 11.5786 14.0452 10.4848 13.4618C9.40004 12.8693 8.70727 12.295 8.40646 11.739L8.42014 7.91052ZM16.2822 4C17.057 4 17.4444 4.3874 17.4444 5.16222C17.4444 5.93703 17.057 6.32443 16.2822 6.32443C15.5074 6.32443 15.12 5.93703 15.12 5.16222C15.12 4.3874 15.5074 4 16.2822 4ZM24.2126 5.40833C24.9874 5.40833 25.3748 5.8003 25.3748 6.58422C25.3748 7.35903 24.9874 7.74644 24.2126 7.74644C23.4378 7.74644 23.0504 7.35903 23.0504 6.58422C23.0504 5.8003 23.4378 5.40833 24.2126 5.40833ZM8.24239 5.44935C9.0172 5.44935 9.4046 5.83676 9.4046 6.61157C9.4046 7.38638 9.0172 7.77379 8.24239 7.77379C7.46757 7.77379 7.08017 7.38638 7.08017 6.61157C7.08017 5.83676 7.46757 5.44935 8.24239 5.44935ZM16.2822 4.66998C15.954 4.66998 15.79 4.83406 15.79 5.16222C15.79 5.49037 15.954 5.65445 16.2822 5.65445C16.6103 5.65445 16.7744 5.49037 16.7744 5.16222C16.7744 4.83406 16.6103 4.66998 16.2822 4.66998ZM24.1989 6.09199C23.8708 6.09199 23.7067 6.25607 23.7067 6.58422C23.7067 6.91238 23.8708 7.07646 24.1989 7.07646C24.5271 7.07646 24.6912 6.91238 24.6912 6.58422C24.6912 6.25607 24.5271 6.09199 24.1989 6.09199ZM7.39465 27.3127C6.93888 27.3127 6.71099 27.5451 6.71099 28.01C6.71099 28.4749 6.93888 28.7074 7.39465 28.7074H25.1561C25.6209 28.7074 25.8534 28.4749 25.8534 28.01C25.8534 27.5451 25.6209 27.3127 25.1561 27.3127H7.39465ZM7.40833 26.6154H25.1561C26.095 26.6154 26.5644 27.0803 26.5644 28.01C26.5644 28.9489 26.095 29.4184 25.1561 29.4184H7.40833C6.46945 29.4184 6 28.9489 6 28.01C6 27.0803 6.46945 26.6154 7.40833 26.6154ZM10.6762 16.5793C10.3663 16.5793 10.2113 16.7342 10.2113 17.0442C10.2113 17.3541 10.3663 17.5091 10.6762 17.5091H21.8882C22.1981 17.5091 22.3531 17.3541 22.3531 17.0442C22.3531 16.7342 22.1981 16.5793 21.8882 16.5793H10.6762ZM10.6899 15.882H21.8882C22.6721 15.882 23.0641 16.2694 23.0641 17.0442C23.0641 17.8281 22.6721 18.2201 21.8882 18.2201H10.6899C9.91508 18.2201 9.52767 17.8281 9.52767 17.0442C9.52767 16.2694 9.91508 15.882 10.6899 15.882V15.882ZM19.7825 22.4177V19.8472H12.7819V22.4177C12.7819 22.8735 12.6178 23.2609 12.2896 23.5799C11.9706 23.8899 11.5923 24.0448 11.1548 24.0448H9.99256C9.68263 24.0448 9.52767 24.1998 9.52767 24.5097C9.52767 24.8196 9.68263 24.9746 9.99256 24.9746H22.5992C22.9091 24.9746 23.0641 24.8196 23.0641 24.5097C23.0641 24.1998 22.9091 24.0448 22.5992 24.0448H21.4096C20.9539 24.0448 20.5664 23.8899 20.2474 23.5799C19.9284 23.2609 19.7734 22.8735 19.7825 22.4177ZM20.4799 22.4177C20.4799 23.0376 20.7898 23.3475 21.4096 23.3475H22.5718C23.3467 23.3475 23.7341 23.7349 23.7341 24.5097C23.7341 25.2936 23.3467 25.6856 22.5718 25.6856H9.99256C9.20863 25.6856 8.81667 25.2936 8.81667 24.5097C8.81667 23.7349 9.20863 23.3475 9.99256 23.3475H11.1548C11.7655 23.3475 12.0709 23.0376 12.0709 22.4177V19.1498H20.4799V22.4177Z" fill="black"/>
<path d="M8.26971 6.1877C7.94155 6.1877 7.77747 6.35178 7.77747 6.67993C7.77747 6.99898 7.94155 7.15849 8.26971 7.15849C8.58874 7.15849 8.74827 6.99898 8.74827 6.67993C8.74827 6.35178 8.58874 6.1877 8.26971 6.1877ZM23.3785 9.3462C23.3785 9.51027 23.0139 9.77462 22.2847 10.1392C21.5554 10.5039 20.9493 11.1009 20.4661 11.9304C19.9192 11.3015 19.509 10.7819 19.2356 10.3717C18.9621 9.96149 18.6066 9.61966 18.1691 9.3462C17.8774 8.89954 17.613 8.6124 17.376 8.48479C17.139 8.34806 16.82 8.04725 16.4189 7.58236C16.109 7.89229 15.8355 8.11106 15.5985 8.23867C15.3706 8.35717 15.0151 8.69444 14.532 9.25048C14.14 9.55129 13.7937 9.86122 13.4928 10.1803C13.2012 10.4993 12.7363 11.0827 12.0982 11.9304C11.6698 11.1009 11.0864 10.5221 10.348 10.1939C9.60967 9.85666 9.2405 9.58776 9.2405 9.38722V11.3972C9.2405 11.6342 9.60056 11.9167 10.3207 12.2449C11.0499 12.5639 11.6515 13.1154 12.1255 13.8994C12.7454 13.1154 13.2467 12.5958 13.6296 12.3406C14.0215 12.0854 14.4363 11.7846 14.8738 11.4382C15.2384 11.0006 15.48 10.7226 15.5985 10.6041C15.7261 10.4765 15.9358 10.2669 16.2275 9.97516C16.5009 10.2669 16.7288 10.472 16.9111 10.5905C17.1026 10.6998 17.3441 10.9186 17.6358 11.2468C18.2374 11.894 18.7251 12.3133 19.0988 12.5047C19.4726 12.6961 19.9192 13.161 20.4388 13.8994C20.8125 13.3069 21.4506 12.728 22.353 12.1629C23.2555 11.5977 23.5973 11.3242 23.3785 11.3425V9.3462ZM16.2822 4.66998C15.954 4.66998 15.7899 4.83406 15.7899 5.16222C15.7899 5.49037 15.954 5.65445 16.2822 5.65445C16.6103 5.65445 16.7744 5.49037 16.7744 5.16222C16.7744 4.83406 16.6103 4.66998 16.2822 4.66998ZM24.1989 6.09199C23.8708 6.09199 23.7067 6.25607 23.7067 6.58422C23.7067 6.91238 23.8708 7.07646 24.1989 7.07646C24.5271 7.07646 24.6911 6.91238 24.6911 6.58422C24.6911 6.25607 24.5271 6.09199 24.1989 6.09199ZM7.39463 27.3127C6.93885 27.3127 6.71097 27.5451 6.71097 28.01C6.71097 28.4749 6.93885 28.7074 7.39463 28.7074H25.156C25.6209 28.7074 25.8534 28.4749 25.8534 28.01C25.8534 27.5451 25.6209 27.3127 25.156 27.3127H7.39463ZM10.6762 16.5793C10.3663 16.5793 10.2113 16.7343 10.2113 17.0442C10.2113 17.3541 10.3663 17.5091 10.6762 17.5091H21.8882C22.1981 17.5091 22.353 17.3541 22.353 17.0442C22.353 16.7343 22.1981 16.5793 21.8882 16.5793H10.6762ZM19.7825 22.4177V19.8472H12.7819V22.4177C12.7819 22.8735 12.6178 23.2609 12.2896 23.5799C11.9706 23.8899 11.5923 24.0448 11.1547 24.0448H9.99253C9.68261 24.0448 9.52764 24.1998 9.52764 24.5097C9.52764 24.8196 9.68261 24.9746 9.99253 24.9746H22.5992C22.9091 24.9746 23.0641 24.8196 23.0641 24.5097C23.0641 24.1998 22.9091 24.0448 22.5992 24.0448H21.4096C20.9538 24.0448 20.5664 23.8899 20.2474 23.5799C19.9283 23.2609 19.7734 22.8735 19.7825 22.4177Z" fill="white"/>
</svg>
