<svg width="32" height="32" viewBox="0 0 32 32" fill="none" xmlns="http://www.w3.org/2000/svg">
<path d="M19.7866 22.1516C19.7866 22.758 20.1031 23.0611 20.736 23.0611H21.9229C22.7141 23.0611 23.1097 23.4401 23.1097 24.1981C23.1097 24.965 22.7141 25.3484 21.9229 25.3484H9.07713C8.2766 25.3484 7.87633 24.965 7.87633 24.1981C7.87633 23.4401 8.2766 23.0611 9.07713 23.0611H10.264C10.8876 23.0611 11.1995 22.758 11.1995 22.1516V18.9548H19.7866V22.1516ZM9.78923 15.758H21.2247C22.0253 15.758 22.4255 16.1369 22.4255 16.8949C22.4255 17.6618 22.0253 18.0452 21.2247 18.0452H9.78923C8.99801 18.0452 8.60239 17.6618 8.60239 16.8949C8.60239 16.1369 8.99801 15.758 9.78923 15.758ZM6.43816 26.258H24.5618C25.5206 26.258 26 26.7127 26 27.6223C26 28.5408 25.5206 29 24.5618 29H6.43816C5.47939 29 5 28.5408 5 27.6223C5 26.7127 5.47939 26.258 6.43816 26.258ZM15.5 14.8484L10.8364 14.8618C8.89096 13.8987 7.90425 11.6115 7.87633 8H10.7387V10.742H13.5871V8H15.514H17.4269V10.742H20.2892V8H23.1376C23.1004 11.6293 22.137 13.9121 20.2473 14.8484H15.5Z" fill="black"/>
</svg>
