<svg width="180" height="180" viewBox="0 0 180 180" fill="none" xmlns="http://www.w3.org/2000/svg">
<path d="M64.4318 146.214C53.1409 138.523 45.0409 125.104 42.9137 111.523C40.6227 96.959 44.9591 82.2317 51.8318 69.5499C55.5955 62.5954 60.0955 56.0499 65.0046 49.9136L83.5773 75.2772L96.6682 61.9408L77.2773 36.1681C81.3682 31.9136 85.7046 27.9045 90.0409 23.8954H89.9591C179.632 104.241 115.568 146.214 115.568 146.214" fill="#1B120F"/>
<path d="M64.4318 146.214C53.1409 138.523 45.0409 125.104 42.9137 111.523C40.6227 96.959 44.9591 82.2317 51.8318 69.5499C55.5955 62.5954 60.0955 56.0499 65.0046 49.9136L83.5773 75.2772L96.6682 61.9408L77.2773 36.1681C81.3682 31.9136 85.7046 27.9045 90.0409 23.8954H89.9591C179.632 104.241 115.568 146.214 115.568 146.214" stroke="#1B120F" stroke-width="4.90909" stroke-miterlimit="10"/>
<path d="M96.4227 17.3451C96.4227 20.9451 93.5591 23.8906 89.9591 23.8906C86.3591 23.8906 83.4954 20.9451 83.4954 17.3451C83.4954 13.7451 86.3591 10.7997 89.9591 10.7997C93.5591 10.7997 96.4227 13.7451 96.4227 17.3451Z" fill="#1B120F"/>
<path d="M89.9591 23.8906C93.5288 23.8906 96.4227 20.9601 96.4227 17.3451C96.4227 13.7302 93.5288 10.7997 89.9591 10.7997C86.3893 10.7997 83.4954 13.7302 83.4954 17.3451C83.4954 20.9601 86.3893 23.8906 89.9591 23.8906Z" stroke="#1B120F" stroke-width="4.90909" stroke-miterlimit="10"/>
<path d="M52.159 152.67V146.206H127.923V152.67" fill="#F89D13"/>
<path d="M52.159 152.67V146.206H127.923V152.67" stroke="#1B120F" stroke-width="4.90909" stroke-miterlimit="10"/>
<path d="M90.0408 152.677H52.159V165.522H127.923V152.677H90.0408Z" fill="#1B120F"/>
<path d="M90.0408 152.677H52.159V165.522H127.923V152.677H90.0408Z" stroke="#1B120F" stroke-width="4.90909" stroke-miterlimit="10"/>
</svg>
