<svg width="180" height="180" viewBox="0 0 180 180" fill="none" xmlns="http://www.w3.org/2000/svg">
<path d="M90.0408 152.677H52.159V165.522H127.841V152.677H90.0408Z" fill="#E6DEDD"/>
<path d="M90.0408 152.677H52.159V165.522H127.841V152.677H90.0408Z" stroke="#4B2A28" stroke-width="4.90909" stroke-miterlimit="10"/>
<path d="M52.159 146.206V152.67H127.841V146.206" fill="#E6DEDD"/>
<path d="M52.159 146.206V152.67H127.841V146.206" stroke="#4B2A28" stroke-width="4.90909" stroke-miterlimit="10"/>
<path d="M96.2596 64.3916V43.2007H115.241V30.2734H96.2596L96.3414 10.9644H83.6596V30.2734H64.7596V43.1189H83.6596V64.3916" fill="#E6DEDD"/>
<path d="M96.2596 64.3916V43.2007H115.241V30.2734H96.2596L96.3414 10.9644H83.6596V30.2734H64.7596V43.1189H83.6596V64.3916" stroke="#4B2A28" stroke-width="4.90909" stroke-miterlimit="10"/>
<path d="M164.659 70.2829C158.85 46.8011 136.432 44.3465 136.432 44.3465C104.932 39.9283 90.3684 74.4556 89.9593 75.3556C89.632 74.5374 74.9866 39.9283 43.4866 44.3465C43.4866 44.3465 21.0684 46.8011 15.2593 70.2829C15.2593 70.2829 3.96839 112.665 52.0775 146.21H127.759C175.95 112.747 164.659 70.2829 164.659 70.2829" fill="#E6DEDD"/>
<path d="M164.659 70.2829C158.85 46.8011 136.432 44.3465 136.432 44.3465C104.932 39.9283 90.3684 74.4556 89.9593 75.3556C89.632 74.5374 74.9866 39.9283 43.4866 44.3465C43.4866 44.3465 21.0684 46.8011 15.2593 70.2829C15.2593 70.2829 3.96839 112.665 52.0775 146.21H127.759C175.95 112.747 164.659 70.2829 164.659 70.2829V70.2829Z" stroke="#4B2A28" stroke-width="4.90909" stroke-miterlimit="10"/>
<path d="M132.096 63.3248C111.56 61.5248 96.4232 104.97 96.4232 104.97V131.807C96.4232 131.807 117.86 131.316 134.55 113.97C151.241 96.543 152.632 65.1248 132.096 63.3248ZM47.8232 63.3248C27.2868 65.1248 28.6777 96.543 45.3686 113.97C62.0595 131.398 83.6595 131.807 83.6595 131.807V104.97C83.6595 104.97 68.3595 61.6066 47.8232 63.3248V63.3248Z" stroke="#4B2A28" stroke-width="4.90909" stroke-miterlimit="10"/>
<path d="M77.3596 36.7348H102.641M89.9596 23.8075V56.0439V23.8075Z" stroke="#4B2A28" stroke-width="3.27273" stroke-miterlimit="10"/>
<path d="M83.6595 64.3907H96.2595" stroke="#4B2A28" stroke-width="4.90909" stroke-miterlimit="10"/>
</svg>
