<svg width="180" height="180" viewBox="0 0 180 180" fill="none" xmlns="http://www.w3.org/2000/svg">
<path d="M106.65 147.593C114.586 147.593 114.586 135.32 106.65 135.32C98.7955 135.32 98.7955 147.593 106.65 147.593ZM58.541 33.1293C56.9046 30.6748 54.8592 29.5293 52.1592 28.4657C49.2955 27.4021 46.841 25.6839 43.9773 24.6202C38.4955 22.5748 28.9228 20.2021 28.4319 29.1202C28.2682 31.6566 29.4137 33.8657 30.3137 36.2384C31.541 39.2657 32.7682 42.4566 35.0592 44.9112C37.1864 47.2839 39.641 48.593 42.5864 49.7384C44.141 50.393 46.4319 50.393 48.0682 49.9839C48.9682 49.8202 49.7864 49.493 50.6046 49.0839C51.9137 48.4293 52.0773 48.3475 51.0955 48.7566C53.4682 47.7748 55.9228 45.7293 55.5955 42.8657C55.1046 38.3657 51.9955 35.4202 47.8228 34.1112C42.2592 32.393 36.941 40.4112 41.8501 44.3384C46.6773 48.2657 55.1864 56.3657 60.5864 48.6748C64.5955 43.0293 59.6046 34.2748 56.3319 29.6112C54.041 32.6384 51.7501 35.5839 49.3773 38.6112C52.4046 39.1839 55.1046 41.1475 58.2137 41.7202C62.7955 42.4566 67.2955 40.8202 69.341 36.4021C70.8955 33.0475 69.9137 28.2202 65.6592 27.4021C63.4501 26.993 61.5682 27.1566 59.3592 27.1566C51.4228 27.2384 51.4228 39.4293 59.3592 39.4293C65.5773 39.4293 71.5501 38.8566 76.6228 34.9293C78.7501 33.293 82.1046 33.4566 84.641 32.8021C88.5682 31.7384 91.2682 30.6748 95.2773 31.8202C100.514 33.293 104.605 36.8112 110.332 35.5839C113.277 34.9293 115.486 32.1475 116.141 29.3657C116.55 27.6475 116.223 26.093 115.977 24.4566C115.405 25.9293 115.486 26.1748 116.141 25.2748C116.877 24.7839 116.796 24.7021 115.814 25.1112C114.75 24.8657 113.768 24.5384 112.705 24.293C113.686 24.7839 114.668 28.0566 115.568 29.3657C117.286 31.9021 119.086 34.2748 120.641 36.893L121.377 38.3657L121.296 38.2839C121.705 40.493 122.523 39.1839 123.668 34.5202C122.032 35.1748 120.232 35.4202 118.596 36.0748C119.659 35.6657 120.15 38.693 118.759 35.5839C118.432 34.7657 118.186 33.8657 117.941 32.9657C117.45 30.9202 119.741 32.8839 116.55 34.6839C115.486 34.9293 114.505 35.2566 113.441 35.5021C110.25 35.9112 111.968 31.4112 112.786 30.7566C111.396 31.7384 109.923 32.7202 108.532 33.6202C105.75 35.4202 102.805 36.9748 99.941 38.6112C93.8864 42.1293 88.1591 46.2202 82.2682 49.9839C76.6228 53.5839 71.5501 57.593 64.9228 58.9839C61.6501 59.7202 58.6228 58.5748 55.5955 57.593C52.4046 56.5293 48.8864 56.1202 46.1046 54.2384C45.041 58.0839 44.0592 61.8475 42.9955 65.693C50.6864 66.6748 56.3319 64.793 62.3864 59.8839C65.2501 57.5112 67.4592 54.8111 67.7046 50.9657C67.8682 49.2475 67.541 47.6112 67.0501 45.9748C66.8864 45.5657 66.7228 45.1566 66.5592 44.6657C66.4773 44.4202 66.3955 44.1748 66.3955 43.9293C66.4773 45.2384 65.9864 46.3021 64.841 47.1202C63.7773 47.3657 62.7955 47.693 61.7319 47.9384C63.7773 47.8566 63.041 47.2021 59.441 45.9748C59.1137 44.1748 58.9501 43.8475 59.0319 44.993C59.0319 45.7293 58.9501 45.8112 58.7046 46.9566C58.2137 49.1657 57.3955 51.3748 56.8228 53.5839C55.1046 59.4748 57.9682 66.6748 65.3319 64.793C68.1137 64.0566 70.4046 61.2748 72.041 59.1475C74.5773 55.9566 75.9682 52.1111 76.2137 48.1021C76.2955 46.4657 76.2137 44.8293 76.1319 43.193V39.7566C76.1319 39.2657 76.2137 38.693 76.2137 38.2021C76.2137 38.2839 76.2137 38.4475 76.1319 38.5293C76.6228 36.893 75.8864 37.6293 73.9228 40.8202C72.8592 41.0657 71.8773 41.393 70.8137 41.6384H71.141C70.0773 41.393 69.0955 41.0657 68.0319 40.8202C68.7682 41.1475 71.141 43.6839 71.2228 45.4839C71.3864 47.4475 70.5682 49.7384 70.3228 51.7021C70.0773 54.4021 71.0592 57.2657 72.4501 59.4748C75.4773 64.3839 81.6955 62.7475 83.6592 58.0021C86.2773 51.6202 86.8501 44.7475 86.3591 37.9566C86.2773 37.2202 86.2773 36.5657 86.3591 35.8293C82.6773 37.4657 81.8591 38.4475 84.1501 38.693C84.4773 38.7748 84.8864 38.8566 85.2137 39.0202C86.6864 40.0021 86.441 39.1021 84.4773 36.4021C84.0682 38.3657 82.7592 40.4112 82.0228 42.293C79.7319 48.4293 84.8864 54.7293 91.3501 51.6202C94.1319 50.3111 96.0955 47.8566 97.9773 45.4021C98.9592 44.093 99.6137 42.6202 100.186 41.1475C100.514 40.493 100.759 39.7566 101.005 39.1021C101.823 36.893 102.723 36.5657 100.186 38.4475C99.1228 38.693 98.141 39.0202 97.0773 39.2657C95.1955 39.4293 95.7682 38.8566 96.9955 39.8384C97.9773 40.6566 98.9592 41.393 100.105 42.1293C102.641 43.8475 105.341 43.193 108.041 42.5384L100.514 35.0112C99.941 39.0202 99.041 42.8657 99.041 46.9566C98.9592 50.0657 96.4228 52.0293 94.4592 54.1566C92.0864 56.693 89.9591 59.6384 88.0773 62.5839C87.4228 63.6475 86.8501 64.793 86.3591 66.0202C86.1137 66.5112 85.9501 67.0021 85.7046 67.493C84.641 69.7021 84.3955 68.0657 86.6864 67.5748H89.9592C92.0864 70.1111 92.741 70.4384 92.0864 68.5566C91.7591 67.3293 91.2682 66.2657 90.6137 65.2021C89.9592 64.1384 88.9773 63.2384 87.9137 62.5839C85.9501 61.2748 86.9319 61.0293 87.9137 63.6475V66.9202C87.9955 66.6748 88.0773 66.5112 88.1592 66.2657C89.2228 63.0748 87.0137 59.5566 83.9046 58.7384C82.9228 58.493 81.8591 58.4112 80.8773 58.0021C81.3682 61.7657 81.8591 65.4475 82.3501 69.2112C86.6864 66.7566 91.4319 65.1202 95.6864 62.6657C92.5773 60.8657 89.5501 59.1475 86.441 57.3475C86.6864 59.7202 85.2955 62.5021 84.3955 64.6293C83.6591 66.3475 83.0046 67.9839 82.6773 69.7839C82.5137 70.6021 82.4319 71.5021 82.5137 72.3202C82.6773 71.8293 82.841 71.4202 83.0046 70.9293L81.5319 72.893C77.1137 79.4384 87.7501 85.5748 92.1682 79.1111C93.1501 77.6384 93.9682 76.5748 94.541 74.8566C94.8682 73.793 94.541 72.8111 94.7864 71.7475C95.0319 70.5202 95.6864 69.293 96.1773 68.0657C97.4864 64.7112 99.2864 60.9475 98.7955 57.2657C98.2228 52.8475 93.9682 49.4112 89.5501 51.9475C85.2137 54.4839 80.5501 56.1202 76.2137 58.493C71.2228 61.2748 72.941 67.9839 77.6864 69.7021C78.6682 70.1111 79.7319 70.1111 80.7137 70.4384C79.3228 67.9021 77.8501 65.3657 76.4592 62.9112C75.4773 65.8566 76.541 68.4748 78.5864 70.6839L80.5501 72.1566C81.6137 72.893 81.5319 72.8111 80.4682 71.7475C80.9592 73.2202 81.3682 74.6112 82.2682 75.9202C86.6046 82.2202 93.641 79.193 96.5864 73.5475C97.8955 71.1748 98.8773 68.8021 100.432 66.5112C102.232 63.893 104.605 61.6839 106.732 59.2293C112.05 53.2566 111.723 45.7293 112.705 38.2021C113.359 33.5384 110.168 29.5293 105.177 30.6748C103.132 31.1657 107.386 32.0657 105.341 30.5112C104.196 29.6112 103.05 28.7112 101.741 27.9748C99.3682 26.5839 96.1773 26.5021 93.9682 28.1384C91.2682 30.1021 90.6137 32.8021 89.6319 35.8293C89.2228 37.0566 88.5682 38.1202 87.8319 39.2657C87.2592 40.1657 85.4592 40.6566 86.6864 40.493C88.241 40.7384 89.8773 40.9021 91.4319 41.1475C92.0864 41.7202 92.6591 42.3748 93.3137 42.9475C93.5592 44.0112 93.8864 44.993 94.1319 46.0566C94.2137 47.6111 94.1319 46.3021 94.2955 45.6475C94.541 44.993 94.6228 44.9112 95.0319 44.0112C96.0137 41.8839 97.241 39.593 97.241 37.2202C97.1591 31.0021 91.7591 27.4021 86.0319 26.5839C78.9137 25.6021 74.8228 30.0202 74.5773 36.893C74.4955 39.3475 74.9864 41.7202 74.8228 44.1748C74.5773 47.8566 73.7592 51.3748 72.3682 54.8111L83.5773 53.3384C82.3501 51.3748 83.9046 47.7748 83.9864 45.4839C84.1501 42.6202 83.0864 39.6748 81.5319 37.3021C79.0773 33.7021 73.3501 26.3384 68.1955 30.1839C63.941 33.3748 64.1864 38.3657 64.2682 43.193C64.2682 44.5839 64.5137 46.6293 64.3501 47.7748C64.1864 49.0839 63.7773 50.4748 62.9592 51.4566C62.3046 52.2748 59.9319 53.6657 61.8137 53.1748C63.3682 53.4202 65.0046 53.5839 66.5592 53.8293L66.0682 53.5839C66.9682 54.8111 67.9501 56.0384 68.8501 57.2657C69.0955 57.8384 68.3592 59.393 68.7682 57.593C69.0137 56.693 69.2592 55.793 69.5046 54.9748C70.1592 52.9293 70.7319 50.9657 71.141 48.8384C72.1228 43.4384 70.9773 37.793 65.1682 35.993C57.3137 33.6202 53.4682 41.7202 55.0228 48.0202C55.1864 48.4293 55.2682 48.9202 55.4319 49.3293C55.7592 50.8021 55.9228 50.8839 55.841 49.6566C54.6955 50.4748 53.141 51.5384 51.9137 52.3566C49.1319 54.3202 46.1046 53.5839 43.0773 53.1748C36.4501 52.3566 35.5501 61.5202 39.9682 64.6293C44.3046 67.6566 50.1955 68.5566 55.1864 70.193C61.3228 72.1566 67.9501 71.2566 73.9228 69.1293C79.1592 67.2475 83.9046 63.4021 88.5682 60.4566C94.0501 57.0202 99.3682 53.2566 105.014 49.9021C112.705 45.2384 128.741 39.5112 122.196 27.893C119.659 23.4748 114.259 21.8384 109.841 24.3748C105.423 26.9112 105.505 32.6384 106.486 36.9748C107.386 40.7384 109.596 44.7475 112.786 47.0384C117.041 50.1475 123.505 47.693 127.923 45.893C137.905 41.7202 132.341 31.7384 127.923 25.5202C123.586 19.4657 120.068 8.91115 110.496 14.2293C105.996 16.7657 103.05 21.6748 104.032 26.8293C104.605 29.8566 109.923 24.293 106.814 23.3112C105.996 23.0657 105.177 22.5748 104.359 22.1657C101.659 20.8566 98.7955 19.8748 95.8501 19.2202C88.9773 17.6657 82.841 21.0202 76.2137 21.9202C73.1864 22.3293 71.141 23.8839 68.6864 25.6021C66.0682 27.4021 62.3864 27.0748 59.441 27.0748V39.3475C60.341 39.3475 61.5682 38.9384 62.4682 39.1839C61.241 36.1566 60.0137 33.2112 58.7864 30.1839C57.7228 32.4748 59.1137 29.5293 60.7501 29.7748C59.8501 29.6112 58.9501 29.2839 58.1319 28.9566C56.3319 28.2202 54.6137 27.2384 52.6501 26.8293C47.9046 25.9293 42.341 31.0021 45.6955 35.8293C46.5137 36.9748 47.741 38.0384 48.2319 39.2657C48.5592 40.0839 48.8864 40.9021 49.1319 41.7202C49.7046 43.4384 49.0501 43.9293 50.0319 42.5384C51.2592 41.6384 52.4864 40.6566 53.7137 39.7566C53.5501 39.8384 53.3046 39.8384 53.141 39.9202H56.4137C54.2864 39.4293 52.3228 37.1384 50.6864 35.7475C48.7228 39.1839 46.6773 42.6202 44.7137 45.9748C45.041 46.0566 44.8773 45.9748 44.3046 45.6475C44.0592 44.5839 43.7319 43.6021 43.4864 42.5384V42.8657C44.9592 40.9021 46.5137 38.9384 47.9864 36.9748C47.4137 37.2202 45.4501 37.8748 46.0228 37.9566C44.8773 37.7112 44.141 36.5657 43.6501 35.7475C42.6682 34.193 40.8682 30.1839 40.9501 29.2021C40.7046 30.2657 40.3773 31.2475 40.1319 32.3112C40.2137 32.1475 40.2955 32.0657 40.3773 31.9021C39.1501 32.8021 37.9228 33.7839 36.6955 34.6839C34.5682 35.5839 37.3501 35.5021 38.3319 35.7475C40.0501 36.1566 41.3592 36.9748 42.9137 37.793C44.3864 38.6112 45.8592 39.2657 47.4137 39.8384C49.3773 40.5748 49.3773 41.1475 48.1501 39.4293C52.3228 45.893 62.9592 39.7566 58.541 33.1293Z" fill="#E6DEDD"/>
<path d="M110.004 52.3631C112.786 53.4268 115.077 55.4722 118.268 55.4722C120.068 55.4722 121.868 55.2268 123.586 54.8177C124.241 54.654 124.977 54.4904 125.632 54.4904C123.913 53.5904 123.586 53.6722 124.65 54.5722C126.122 56.045 126.859 58.8268 127.677 60.7086C128.004 61.5268 128.413 62.2631 128.741 62.9995C127.432 59.5631 132.995 58.254 128.986 59.645C126.286 60.545 123.668 61.1177 121.05 62.2631C117.941 63.5722 114.995 65.3722 112.05 67.0904C109.186 68.7268 106.322 70.445 103.295 71.5904C101.741 72.245 100.022 72.5722 98.3861 72.9813C99.0406 72.8995 98.877 72.8995 97.977 72.9813C96.2588 72.8177 96.7497 73.3086 99.3679 74.2904C99.6134 75.845 99.777 77.4813 100.022 79.0359C100.513 76.9086 103.704 73.9631 105.341 72.0813C108.204 68.8086 109.677 65.2086 111.559 61.2813C113.113 58.0904 114.832 60.4631 117.777 61.5268C118.922 61.9359 120.15 62.345 121.295 62.754C121.622 62.9177 122.032 62.9995 122.359 63.1631C123.913 63.8177 123.832 64.7177 122.604 62.6722C122.359 61.6086 122.032 60.6268 121.786 59.5631C121.95 58.3359 122.441 57.354 123.259 56.6995C122.604 57.1086 122.686 57.0268 121.95 57.2722C120.395 57.845 118.841 58.1722 117.286 58.4995C112.95 59.4813 109.022 61.1177 105.013 62.9177C107.468 66.1086 110.004 69.3813 112.459 72.5722C113.277 71.6722 114.095 70.6904 114.913 69.7086C115.486 69.054 116.059 68.4813 116.632 67.8268C117.695 67.0086 117.941 66.7631 117.286 67.0904C115.732 66.845 114.095 66.6813 112.541 66.4359C110.495 65.454 110.659 64.3904 112.05 66.5177C112.704 67.5813 113.522 68.3995 114.422 69.2177C116.304 70.9359 118.513 71.8359 120.804 72.8177C124.568 74.3722 128.904 73.8813 131.277 77.645C132.422 79.5268 133.322 81.5722 134.386 83.5359C134.959 84.5177 135.532 85.4995 135.941 86.5631C136.022 86.9722 136.186 87.3813 136.268 87.7904C136.268 89.5904 137.168 89.1813 139.05 86.7268C137.741 86.8086 136.268 86.2359 134.959 86.0722C131.604 85.5813 128.25 85.8268 124.977 85.4177C126.45 88.9359 127.841 92.3722 129.313 95.8904C130.377 94.9086 131.932 94.3359 133.077 93.4359C135.204 91.7995 136.922 89.6722 137.822 87.1359C139.459 82.6359 137.495 78.6268 134.632 75.1904C129.722 69.2995 116.55 65.945 114.341 76.3359C112.786 83.5359 117.695 88.6086 121.213 94.254C123.013 97.1995 123.422 101.045 124.568 104.318C126.122 108.409 128.577 111.763 132.341 114.054C134.059 115.118 136.841 115.281 138.559 114.054C143.386 110.454 145.35 105.545 145.841 99.654C146.413 92.6177 138.968 88.7722 133.322 92.2086C129.559 94.4995 129.068 100.718 133.322 102.845C134.468 103.418 135.45 103.909 136.677 104.072C137.577 104.236 138.477 104.318 139.295 104.318C137.168 102.436 136.595 102.19 137.577 103.663C138.722 105.79 138.722 109.718 138.968 112.09C139.132 113.645 139.295 115.2 139.459 116.672C139.622 117.327 139.704 118.063 139.704 118.718C142.65 116.836 143.059 116.018 141.013 116.263C137.741 116.263 134.713 116.263 131.441 116.754C126.859 117.49 119.986 118.799 118.595 123.954C116.55 131.236 123.832 133.281 128.904 135.327L126.204 125.099C124.241 127.063 122.604 129.272 120.968 131.481C120.313 132.463 119.495 133.363 118.677 134.181L119.904 133.936C119.332 133.69 118.677 133.445 118.022 133.281C110.413 130.827 107.468 142.363 114.75 145.145C118.104 146.372 123.259 148.581 126.777 144.654C130.704 140.318 127.268 135.163 126.204 130.499C124.486 123.218 137.332 121.009 141.75 119.454C146.986 117.654 147.559 111.354 143.222 108.245C140.441 106.281 136.677 106.445 133.404 106.527C131.932 106.527 124.404 106.036 123.995 105.136C121.95 100.227 122.113 94.4995 121.622 89.345C121.213 84.845 120.886 78.545 118.268 74.6995C115.077 69.8722 106.568 71.345 106.813 77.8086C106.977 83.045 110.086 88.3631 112.377 93.0268C113.604 95.4813 115.241 97.6904 116.959 99.8995C117.777 100.963 120.722 103.745 120.641 104.89C120.886 103.827 121.213 102.845 121.459 101.781C122.277 101.209 122.195 101.209 121.132 101.863L119.413 102.845C117.695 103.827 116.059 105.218 114.504 106.527C110.904 109.554 109.432 113.4 108.859 117.9C108.368 121.99 108.368 126.572 109.186 130.581C109.677 132.872 108.532 135.899 106.732 137.781C101.25 143.509 109.922 152.181 115.404 146.454C119.332 142.363 122.604 135.49 121.541 129.763C120.886 126.245 120.886 122.89 120.968 119.29C121.05 116.018 123.75 114.463 126.368 112.909C129.068 111.354 131.686 109.718 132.586 106.527C133.568 102.927 131.686 99.4904 129.722 96.6268C127.677 93.6813 125.304 91.2268 123.504 88.1177C121.95 85.4995 119.004 80.9995 118.922 77.8904C115.077 78.954 111.313 79.9359 107.468 80.9995C108.532 82.6359 108.368 85.0904 108.695 86.9722C109.186 89.6722 109.35 92.3722 109.513 95.154C109.922 100.554 110.495 107.018 113.441 111.763C116.059 116.018 121.213 117.327 125.795 118.063C128.168 118.472 130.704 118.799 133.159 118.799C134.141 118.799 136.759 118.799 136.759 118.881C137.25 115.118 137.741 111.436 138.232 107.672C130.541 110.29 121.704 112.336 116.795 119.372C114.177 123.136 113.195 127.881 113.932 132.463C114.259 134.672 114.913 136.636 115.732 138.681C117.204 142.118 124.159 135.736 120.641 134.59C119.659 134.263 118.759 133.772 117.777 133.445C116.713 137.372 115.568 141.299 114.504 145.309C118.841 146.7 122.441 146.945 126.122 143.836C129.477 140.972 131.359 136.963 134.55 133.936C138.232 130.418 135.941 125.345 131.85 123.709C131.359 123.463 130.868 123.299 130.295 123.136L129.313 122.89C127.922 122.399 128.004 122.481 129.477 123.299C129.722 124.363 130.05 125.345 130.295 126.409V125.836C130.05 126.899 129.722 127.881 129.477 128.945C128.741 130.09 127.022 130.581 128.741 130.254C129.395 130.09 129.968 130.009 130.622 129.845C133.404 129.109 135.777 128.536 138.722 128.7C144.859 128.945 150.668 127.145 151.568 120.109C151.895 117.572 151.241 114.954 150.995 112.336C150.668 108.981 150.095 105.709 149.522 102.436C149.113 100.063 147.968 96.4631 145.922 94.9086C144.859 94.0086 143.959 93.1904 142.568 92.7813C141.832 92.5359 138.886 92.3722 139.213 92.454V103.09C139.541 102.927 139.868 102.681 140.195 102.518C139.132 102.763 138.15 103.09 137.086 103.336C137.332 103.336 137.659 103.254 137.904 103.254C136.841 103.009 135.859 102.681 134.795 102.436C132.422 101.29 133.65 98.5086 132.995 101.372C132.832 101.945 132.341 103.5 132.013 103.745H138.232C135.286 101.945 134.877 97.445 133.977 94.3359C132.832 90.4086 130.868 87.3813 128.577 84.1086C127.677 82.8813 126.695 81.5722 126.122 80.1813C125.632 79.0359 126.041 79.445 125.468 80.754C124.322 83.454 121.05 80.8359 123.75 82.4722C124.486 82.8813 125.059 83.6177 125.632 84.2722C126.368 85.0086 125.304 84.5177 125.795 83.6995C124.977 85.0904 121.541 86.3995 120.313 87.545C116.059 91.6359 119.659 97.445 124.65 98.0177C128.25 98.4268 131.768 98.345 135.368 98.9177C139.213 99.5722 142.813 99.245 145.677 96.3813C152.468 89.6722 145.104 78.1359 141.504 71.754C139.622 68.4813 136.841 65.6995 133.404 64.2268C129.804 62.6722 125.713 62.5086 122.277 60.545C121.213 59.9722 120.722 58.1722 119.904 57.354C118.268 55.7177 115.732 54.9813 113.522 55.5541C109.104 56.7813 106.241 60.8722 103.295 64.145C98.4679 69.6268 104.441 76.5813 110.741 73.7995C114.095 72.3268 117.286 71.1813 120.804 70.445C123.832 69.7904 126.941 68.8904 129.559 67.1722C132.913 64.9631 135.041 60.4631 132.75 56.6995C130.786 53.345 126.695 52.0359 123.177 50.8086C119.904 49.6631 116.55 47.3722 113.032 47.3722C107.55 47.3722 103.05 50.5631 100.35 55.2268C99.3679 57.0268 98.7134 58.9904 97.8134 60.8722C96.7497 62.9995 95.0315 64.6359 93.477 66.4359C90.777 69.4631 86.277 74.6995 87.5043 79.1177C90.3679 89.5086 104.522 84.354 110.904 81.4086C115.159 79.445 119.086 76.8268 123.177 74.6177C127.104 72.4904 131.359 71.9177 135.368 70.0359C144.286 65.8631 138.559 55.7177 135.122 49.4995C133.077 45.8177 129.968 42.8722 125.632 42.3813C123.259 42.054 121.05 42.954 118.759 43.1995C116.959 43.445 114.177 41.2359 112.459 40.5813C109.35 39.354 105.75 41.8904 104.932 44.8359C104.768 48.2722 106.895 51.1359 110.004 52.3631Z" fill="#E6DEDD"/>
<path d="M88.4867 74.6978C83.9867 75.4342 79.7322 80.016 76.1322 82.6342C71.3867 86.0706 67.5413 90.2433 64.2685 95.0706C60.9958 99.7342 58.7867 104.971 56.6595 110.289C54.2867 116.098 52.0776 121.825 51.3413 128.043C51.014 130.661 51.4231 133.443 50.6867 135.898C50.0322 138.189 49.7867 140.725 51.014 142.852C54.6958 149.152 60.9958 145.471 66.314 145.143C78.3413 144.489 90.4504 148.334 102.396 146.289C115.405 143.998 115.078 128.861 116.714 118.798C118.514 107.671 122.687 94.1706 117.369 83.3706C110.905 70.1978 96.2594 80.9978 88.0776 85.9887C78.4231 91.9615 69.7504 100.88 65.0049 111.271C61.814 118.225 56.2504 127.471 62.4685 134.261C66.9685 139.171 74.1685 140.152 80.3867 140.971C88.2413 141.952 99.0413 143.425 105.914 138.761C113.196 133.771 117.123 123.543 118.35 115.198C119.496 107.098 119.496 97.5251 116.714 89.7524C115.159 85.416 112.378 82.4706 108.123 80.7524C103.459 78.8706 98.3049 82.6342 94.7049 85.2524C86.7685 90.816 83.2504 100.798 76.9504 107.916C73.4322 111.843 69.5867 115.525 65.8231 119.207C62.6322 122.316 60.0958 126.08 57.3958 129.189C53.3049 134.016 57.2322 140.561 63.3685 139.416C69.3413 138.352 74.4958 135.325 80.1413 133.198C86.1958 130.907 91.6776 132.298 97.814 133.116C110.005 134.752 112.132 120.925 112.95 112.007C113.523 106.116 114.341 98.8342 112.378 93.1887C110.332 87.0524 103.541 86.5615 99.0413 90.4069C95.4413 93.516 92.9049 97.9342 90.4504 101.943C88.7322 104.725 87.014 107.507 84.8867 109.961C83.1685 112.007 79.814 113.234 77.6867 114.952C74.4958 117.489 75.8049 122.725 78.914 124.607C81.8595 126.407 85.4595 126.08 88.814 126.243C93.1504 126.489 97.2413 125.834 100.923 123.543C106.978 119.861 106.569 109.88 103.623 104.234C100.023 97.1978 89.3867 103.416 92.9867 110.452C92.4958 109.471 92.9867 111.925 92.9867 112.089C92.9867 112.743 93.0685 113.398 93.1504 114.052C93.1504 115.525 93.314 115.361 93.6413 113.561C92.2504 114.38 90.1231 114.052 88.6504 113.971C88.0776 113.971 84.314 113.561 84.9685 113.971C85.3776 117.161 85.7867 120.434 86.1958 123.625C88.4867 121.743 91.1867 120.761 93.3958 118.716C95.7685 116.425 97.5685 113.316 99.3685 110.616C101.169 107.834 102.887 104.971 104.769 102.271C105.259 101.534 107.305 99.7342 106.65 99.8978H103.378C102.478 99.0797 101.578 98.1797 100.678 97.3615C100.759 98.1797 100.841 98.9978 100.841 99.8978C100.923 101.452 100.923 102.925 100.923 104.48C100.923 107.998 100.596 111.598 100.187 115.116C100.023 116.671 99.614 118.471 99.1231 120.189C98.8776 121.007 98.714 121.171 98.2231 121.907C98.5504 121.416 99.0413 121.171 99.614 121.252C98.7958 121.089 97.9776 120.843 97.2413 120.68C90.9413 119.125 84.3958 119.534 78.0958 121.089C71.7958 122.643 66.4776 126.489 59.9322 127.716L65.9049 137.943C67.3776 136.225 69.014 134.998 70.1595 132.871C71.3867 130.58 73.4322 128.78 75.2322 126.98C79.7322 122.48 84.314 118.061 88.4049 113.152C91.9231 108.98 94.5413 104.071 97.6504 99.5706C99.0413 97.5251 100.759 95.8069 102.805 94.416C103.705 93.7615 104.687 93.0251 105.75 92.6978C104.032 93.3524 104.359 91.8797 105.178 94.0887C106.65 98.1797 106.65 102.843 106.65 107.098C106.65 112.58 105.832 118.061 103.132 122.889C102.15 124.607 101.169 126.407 99.8595 127.88C98.4685 129.516 96.8322 129.434 94.8685 129.516C90.2867 129.761 83.9049 129.352 80.4685 128.861C77.6049 128.452 74.414 127.961 71.9595 126.571C70.8958 125.998 71.714 126.243 71.6322 127.061C72.1231 124.28 74.0049 121.498 75.0685 118.88C79.2413 108.08 87.8322 100.389 97.4867 94.6615C100.023 93.1887 102.641 91.6342 105.259 90.2433C105.669 89.9978 106.159 89.7524 106.569 89.5887C107.878 89.2615 107.796 88.9342 106.241 88.7706C106.732 89.4251 106.814 90.5706 106.978 91.3069C108.369 97.2797 106.814 103.498 105.832 109.389C104.769 115.607 103.787 121.907 102.805 128.125C102.559 129.598 102.641 132.134 101.578 133.28C99.8595 135.161 96.5867 134.671 94.3776 134.589C87.9958 134.261 81.6958 133.689 75.314 133.198C72.2867 132.952 69.1776 132.952 66.1504 133.034C64.6776 133.034 63.2867 133.28 61.8958 133.525C61.0776 133.771 60.3413 133.934 59.5231 134.261C56.9049 134.671 57.7231 135.734 61.8958 137.616V140.889C62.3049 138.516 62.9595 136.307 63.1231 133.852C63.2867 130.989 63.3685 128.452 64.0231 125.671C65.414 119.78 68.0322 113.971 70.5685 108.489C72.7776 103.825 75.6413 99.5706 79.2413 95.8887C81.2049 93.8433 83.5776 92.2887 85.8685 90.7342C87.4231 89.6706 89.714 86.9706 91.514 86.7251C99.5322 85.2524 96.1776 73.3888 88.4867 74.6978Z" fill="#E6DEDD"/>
<path d="M51.5046 152.593V146.129H127.186V152.593" fill="#E6DEDD"/>
<path d="M51.5046 152.593V146.129H127.186V152.593" stroke="#4B2A28" stroke-width="4.90909" stroke-miterlimit="10"/>
<path d="M62.7135 157.498C62.6317 157.252 62.6317 157.007 62.5499 156.761C62.059 158.725 61.4863 160.77 60.9953 162.734L61.4863 162.243H52.7317C56.4135 166.334 61.5681 165.925 66.559 165.27C72.6135 164.452 79.0772 164.37 85.1317 164.943C91.5953 165.516 97.8953 164.698 104.277 164.861C107.632 164.943 110.823 165.27 114.177 165.107C116.55 165.025 119.25 163.88 121.459 164.698C128.904 167.398 132.095 155.534 124.732 152.834C120.068 151.198 114.75 152.916 109.923 152.916C107.059 152.916 104.195 152.589 101.332 152.589C97.8953 152.589 94.459 153.08 91.0226 153.08C84.8863 153.161 79.0772 152.098 72.9408 152.589C70.3226 152.752 67.7044 152.752 65.0863 153.161C64.3499 153.243 63.5317 153.407 62.7953 153.489C62.1408 153.57 61.4863 153.57 60.8317 153.57C60.5044 153.407 60.5863 153.489 61.2408 153.652C59.0317 151.198 54.7772 151.28 52.5681 153.652C50.5226 155.78 49.9499 157.907 50.6863 160.852C52.7317 168.461 64.5953 165.189 62.7135 157.498Z" fill="#E6DEDD"/>
<path d="M93.3957 77.1571C49.4594 84.1116 51.423 146.13 51.423 146.13M89.3048 152.593H51.5048V165.439H127.187V152.593H89.3048Z" stroke="#4B2A28" stroke-width="4.90909" stroke-miterlimit="10"/>
<path d="M119.332 48.0255C130.377 45.8982 133.323 38.0437 133.323 38.0437C126.941 20.5346 114.423 11.371 114.423 11.371C114.423 11.371 105.505 19.7982 105.341 23.7255C105.341 23.7255 93.6411 16.0346 78.6683 22.5801C78.6683 22.5801 62.3047 31.0892 48.4774 26.0982C48.4774 26.0982 31.132 19.1437 29.9865 23.8892C29.9865 23.8892 27.2865 32.4801 32.032 40.6619C32.032 40.6619 36.7774 48.271 38.9047 48.271C38.9047 48.271 56.5774 50.3164 54.0411 51.1346C54.0411 51.1346 52.8956 54.8982 40.7865 54.2437C40.7865 54.2437 36.4502 54.1619 37.2683 58.3346C38.0865 62.671 41.1956 66.9255 49.6229 68.5619C49.6229 68.5619 57.5592 70.9346 70.8956 68.971C84.232 67.0073 81.532 80.7528 81.532 80.7528" stroke="#4B2A28" stroke-width="4.90909" stroke-miterlimit="10"/>
<path d="M125.141 68.9737C136.187 69.5464 141.423 63.8191 141.423 63.8191C141.423 63.8191 138.641 52.201 129.968 42.7919" stroke="#4B2A28" stroke-width="4.90909" stroke-miterlimit="10"/>
<path d="M92.0867 36.6515C92.0867 38.2879 90.7776 39.597 89.2231 39.597C87.6685 39.597 86.3594 38.2879 86.3594 36.6515C86.3594 35.0151 87.6685 33.7061 89.2231 33.7061C90.7776 33.7061 92.0867 35.0151 92.0867 36.6515Z" fill="#4B2A28"/>
<path d="M89.2231 39.597C90.8046 39.597 92.0867 38.2782 92.0867 36.6515C92.0867 35.0248 90.8046 33.7061 89.2231 33.7061C87.6415 33.7061 86.3594 35.0248 86.3594 36.6515C86.3594 38.2782 87.6415 39.597 89.2231 39.597Z" stroke="#4B2A28" stroke-width="3.27273" stroke-miterlimit="10"/>
<path d="M88.8958 33.7063C88.8958 33.7063 85.7867 33.6244 82.6776 36.7335L88.8958 33.7063Z" fill="#4B2A28"/>
<path d="M88.8958 33.7063C88.8958 33.7063 85.7867 33.6244 82.6776 36.7335" stroke="#4B2A28" stroke-width="3.27273" stroke-miterlimit="10"/>
<path d="M138.478 66.4344C147.969 79.2799 149.278 93.3526 149.278 93.3526C149.278 93.3526 141.341 98.8345 127.187 95.7254" stroke="#4B2A28" stroke-width="4.90909" stroke-miterlimit="10"/>
<path d="M126.941 125.266C140.932 131.238 150.423 126.656 150.423 126.656C150.423 126.656 152.386 110.784 145.759 94.911M127.186 146.129C127.186 146.129 128.986 130.093 145.186 128.047" stroke="#4B2A28" stroke-width="4.90909" stroke-miterlimit="10"/>
<path d="M111.478 102.354C110.578 103.008 110.823 102.927 112.05 102.027C113.114 101.29 114.341 100.718 115.487 100.145C117.941 98.9175 120.559 98.0994 123.096 97.0357C127.432 95.1539 132.096 92.2084 136.841 92.1266C142.896 92.0448 145.35 83.7812 139.95 80.6721C134.959 77.8084 129.478 76.7448 124.078 75.0266C117.941 73.1448 112.787 69.9539 107.223 66.8448C100.35 62.9175 94.1321 73.4721 101.005 77.4812C106.569 80.6721 111.969 83.9448 118.023 86.0721C123.178 87.8721 128.905 88.6084 133.65 91.3903C134.714 87.5448 135.696 83.7812 136.759 79.9357C129.805 80.0994 124.405 83.2903 118.105 85.9084C112.705 88.1994 103.541 90.3266 100.759 96.1357C97.4867 103.336 108.041 109.554 111.478 102.354Z" fill="#E6DEDD"/>
</svg>
