<svg width="180" height="180" viewBox="0 0 180 180" fill="none" xmlns="http://www.w3.org/2000/svg">
<path d="M89.9178 152.668H52.036V165.514H127.8V152.668H52.036V146.205C76.0906 116.178 74.2906 95.3958 70.036 84.4321C67.7451 78.4594 64.7178 75.4321 64.7178 75.4321H114.954C114.954 75.4321 90.6542 99.8958 127.718 146.205V152.668" fill="#E6DEDD"/>
<path d="M89.9178 152.668H52.036V165.514H127.8V152.668H52.036V146.205C76.0906 116.178 74.2906 95.3958 70.036 84.4321C67.7451 78.4594 64.7178 75.4321 64.7178 75.4321H114.954C114.954 75.4321 90.6542 99.8958 127.718 146.205V152.668" stroke="#4B2A28" stroke-width="4.90909" stroke-miterlimit="10"/>
<path d="M115.036 36.6553C115.036 50.8098 103.745 62.3462 89.836 62.3462C75.9269 62.3462 64.7178 50.8916 64.7178 36.6553C64.7178 22.5007 76.0087 10.9644 89.836 10.9644C103.745 11.0462 115.036 22.5007 115.036 36.6553Z" fill="#E6DEDD"/>
<path d="M89.836 62.3462C103.754 62.3462 115.036 50.844 115.036 36.6553C115.036 22.4666 103.754 10.9644 89.836 10.9644C75.9184 10.9644 64.636 22.4666 64.636 36.6553C64.636 50.844 75.9184 62.3462 89.836 62.3462Z" stroke="#4B2A28" stroke-width="4.90909" stroke-miterlimit="10"/>
<path d="M89.9178 62.3475C89.9178 62.3475 116.918 62.4294 127.718 75.4384H52.1178C62.9178 62.4294 89.9178 62.3475 89.9178 62.3475Z" fill="#E6DEDD"/>
<path d="M89.9178 62.3475C89.9178 62.3475 116.918 62.4294 127.718 75.4384H52.1178C62.9178 62.4294 89.9178 62.3475 89.9178 62.3475Z" stroke="#4B2A28" stroke-width="4.90909" stroke-miterlimit="10"/>
<path d="M71.3452 88.3632H108.491" stroke="#4B2A28" stroke-width="3.27273" stroke-miterlimit="10"/>
<path d="M52.036 146.206H127.8" stroke="#4B2A28" stroke-width="4.90909" stroke-miterlimit="10"/>
</svg>
