<svg width="180" height="180" viewBox="0 0 180 180" fill="none" xmlns="http://www.w3.org/2000/svg">
<path d="M127.923 145.07C127.923 145.07 128.414 139.097 124.978 138.361C105.505 134.597 155.169 59.488 155.169 59.488C155.169 59.488 110.005 110.297 112.787 22.2608L112.132 21.8517C89.3869 102.115 68.196 21.8517 68.196 21.8517L67.3778 22.3426C70.1596 110.379 24.996 59.5699 24.996 59.5699C24.996 59.5699 74.6596 134.679 55.1869 138.443C51.7505 139.097 52.2414 145.152 52.2414 145.152" fill="#1B120F"/>
<path d="M127.923 145.07C127.923 145.07 128.414 139.097 124.978 138.361C105.505 134.597 155.169 59.488 155.169 59.488C155.169 59.488 110.005 110.297 112.787 22.2608L112.132 21.8517C89.3869 102.115 68.196 21.8517 68.196 21.8517L67.3778 22.3426C70.1596 110.379 24.996 59.5699 24.996 59.5699C24.996 59.5699 74.6596 134.679 55.1869 138.443C51.7505 139.097 52.2414 145.152 52.2414 145.152" stroke="#1B120F" stroke-width="4.90909" stroke-miterlimit="10"/>
<path d="M52.1597 152.428V145.964H127.923V152.428" fill="#F89D13"/>
<path d="M52.1597 152.428V145.964H127.923V152.428" stroke="#1B120F" stroke-width="4.90909" stroke-miterlimit="10"/>
<path d="M72.3682 16.1994C73.1045 20.6175 69.3409 24.3812 65.0045 23.6448C62.3863 23.2357 60.2591 21.0266 59.85 18.3266C59.1136 13.9084 62.8772 10.1448 67.2136 10.8812C69.8318 11.3721 71.9591 13.4994 72.3682 16.1994" fill="#1B120F"/>
<path d="M72.3682 16.1994C73.1045 20.6175 69.3409 24.3812 65.0045 23.6448C62.3863 23.2357 60.2591 21.0266 59.85 18.3266C59.1136 13.9084 62.8772 10.1448 67.2136 10.8812C69.8318 11.3721 71.9591 13.4994 72.3682 16.1994V16.1994Z" stroke="#1B120F" stroke-width="4.90909" stroke-miterlimit="10"/>
<path d="M26.8775 54.2449C27.6139 58.6631 23.8502 62.4267 19.5139 61.6903C16.8957 61.2813 14.7684 59.0722 14.3593 56.3722C13.6229 51.954 17.3048 48.1903 21.7229 48.9267C24.3411 49.4176 26.4684 51.5449 26.8775 54.2449" fill="#1B120F"/>
<path d="M26.8775 54.2449C27.6139 58.6631 23.8502 62.4267 19.5139 61.6903C16.8957 61.2813 14.7684 59.0722 14.3593 56.3722C13.6229 51.954 17.3048 48.1903 21.7229 48.9267C24.3411 49.4176 26.4684 51.5449 26.8775 54.2449V54.2449Z" stroke="#1B120F" stroke-width="4.90909" stroke-miterlimit="10"/>
<path d="M59.114 136.56H120.969" stroke="#F89D13" stroke-width="3.27273" stroke-miterlimit="10"/>
<path d="M107.714 16.1226C106.978 20.5408 110.741 24.3044 115.078 23.568C117.696 23.1589 119.823 20.9498 120.232 18.2498C120.969 13.8317 117.205 10.068 112.869 10.8044C110.25 11.2953 108.123 13.4226 107.714 16.1226" fill="#1B120F"/>
<path d="M107.714 16.1226C106.978 20.5408 110.741 24.3044 115.078 23.568C117.696 23.1589 119.823 20.9498 120.232 18.2498C120.969 13.8317 117.205 10.068 112.869 10.8044C110.25 11.2953 108.123 13.4226 107.714 16.1226V16.1226Z" stroke="#1B120F" stroke-width="4.90909" stroke-miterlimit="10"/>
<path d="M153.205 54.1681C152.469 58.5863 156.232 62.3499 160.569 61.6136C163.187 61.2045 165.314 58.9954 165.723 56.2954C166.46 51.8772 162.696 48.1136 158.36 48.8499C155.741 49.3408 153.614 51.4681 153.205 54.1681" fill="#1B120F"/>
<path d="M153.205 54.1681C152.469 58.5863 156.232 62.3499 160.569 61.6136C163.187 61.2045 165.314 58.9954 165.723 56.2954C166.46 51.8772 162.696 48.1136 158.36 48.8499C155.741 49.3408 153.614 51.4681 153.205 54.1681V54.1681Z" stroke="#1B120F" stroke-width="4.90909" stroke-miterlimit="10"/>
<path d="M90.0415 152.183H52.1597V165.028H127.923V152.183H90.0415Z" fill="#1B120F"/>
<path d="M90.0415 152.183H52.1597V165.028H127.923V152.183H90.0415Z" stroke="#1B120F" stroke-width="4.90909" stroke-miterlimit="10"/>
<path d="M146.332 70.6915L91.105 135.246C90.7778 135.655 90.0414 135.41 90.0414 134.837L70.0778 36.5734" stroke="#F89D13" stroke-width="3.27273" stroke-miterlimit="10"/>
<path d="M109.759 36.5734L90.6956 133.61C90.4502 134.755 88.9774 135.164 88.2411 134.264L33.6683 70.7734" stroke="#F89D13" stroke-width="3.27273" stroke-miterlimit="10"/>
</svg>
