<svg width="180" height="180" viewBox="0 0 180 180" fill="none" xmlns="http://www.w3.org/2000/svg">
<path d="M127.882 146.374C127.8 98.1836 115.446 63.0018 115.446 63.0018L127.882 56.2108V11.129H108.9V23.9745H99.4911V11.129H80.5093V23.9745H71.1002V11.129H52.2002V56.2108L64.6365 63.0018C64.6365 63.0018 52.282 98.1836 52.2002 146.374" fill="#E6DEDD"/>
<path d="M127.882 146.374C127.8 98.1836 115.446 63.0018 115.446 63.0018L127.882 56.2108V11.129H108.9V23.9745H99.4911V11.129H80.5093V23.9745H71.1002V11.129H52.2002V56.2108L64.6365 63.0018C64.6365 63.0018 52.282 98.1836 52.2002 146.374" stroke="#4B2A28" stroke-width="4.90909" stroke-miterlimit="10"/>
<path d="M52.2002 152.753V146.371H127.882V152.753" fill="#E6DEDD"/>
<path d="M52.2002 152.753V146.371H127.882V152.753" stroke="#4B2A28" stroke-width="4.90909" stroke-miterlimit="10"/>
<path d="M90.0002 152.754H52.2002V165.599H127.882V152.754H90.0002Z" fill="#E6DEDD"/>
<path d="M90.0002 152.754H52.2002V165.599H127.882V152.754H90.0002Z" stroke="#4B2A28" stroke-width="4.90909" stroke-miterlimit="10"/>
<path d="M52.2002 55.4698H127.882M64.6365 62.9971H115.446H64.6365Z" stroke="#4B2A28" stroke-width="3.27273" stroke-miterlimit="10"/>
</svg>
