<svg width="16" height="16" viewBox="0 0 16 16" fill="none" xmlns="http://www.w3.org/2000/svg">
<path d="M7 1.5H9H7ZM6 2.5H7H6ZM9 2.5H10H9ZM6 3.5H7H6ZM9 3.5H10H9ZM7 4.5H9H7ZM6 5.5H7H6ZM9 5.5H10H9ZM5 6.5H6H5ZM10 6.5H11H10ZM4 7.5H5H4ZM9 7.5H10H9ZM11 7.5H12H11ZM4 8.5H5H4ZM8 8.5H9H8ZM11 8.5H12H11ZM4 9.5H5H4ZM11 9.5H12H11ZM4 10.5H5H4ZM11 10.5H12H11ZM5 11.5H6H5ZM10 11.5H11H10ZM4 12.5H12H4ZM3 13.5H4H3ZM12 13.5H13H12ZM3 14.5H13Z" fill="black"/>
<path d="M3 14.5H13M7 1.5H9H7ZM6 2.5H7H6ZM9 2.5H10H9ZM6 3.5H7H6ZM9 3.5H10H9ZM7 4.5H9H7ZM6 5.5H7H6ZM9 5.5H10H9ZM5 6.5H6H5ZM10 6.5H11H10ZM4 7.5H5H4ZM9 7.5H10H9ZM11 7.5H12H11ZM4 8.5H5H4ZM8 8.5H9H8ZM11 8.5H12H11ZM4 9.5H5H4ZM11 9.5H12H11ZM4 10.5H5H4ZM11 10.5H12H11ZM5 11.5H6H5ZM10 11.5H11H10ZM4 12.5H12H4ZM3 13.5H4H3ZM12 13.5H13H12Z" stroke="black"/>
<path d="M7 2.5H8H7ZM6 6.5H7H6ZM5 7.5H6Z" fill="black"/>
<path d="M5 7.5H6M7 2.5H8H7ZM6 6.5H7H6Z" stroke="#6D6D6D"/>
<path d="M8 2.5H9H8ZM8 3.5H9H8ZM8 5.5H9H8ZM10 7.5H11H10ZM10 8.5H11H10ZM10 9.5H11H10ZM10 10.5H11H10ZM9 11.5H10H9ZM9 13.5H12Z" fill="black"/>
<path d="M9 13.5H12M8 2.5H9H8ZM8 3.5H9H8ZM8 5.5H9H8ZM10 7.5H11H10ZM10 8.5H11H10ZM10 9.5H11H10ZM10 10.5H11H10ZM9 11.5H10H9Z" stroke="#151515"/>
<path d="M7 3.5H8H7ZM7 5.5H8H7ZM5 8.5H6H5ZM5 9.5H6H5ZM5 10.5H6H5ZM6 11.5H7H6ZM4 13.5H6Z" fill="black"/>
<path d="M4 13.5H6M7 3.5H8H7ZM7 5.5H8H7ZM5 8.5H6H5ZM5 9.5H6H5ZM5 10.5H6H5ZM6 11.5H7H6Z" stroke="#494949"/>
<path d="M7 6.5H9H7ZM6 7.5H8H6ZM6 8.5H8H6ZM9 8.5H10H9ZM6 9.5H10H6ZM6 10.5H10H6ZM7 11.5H9H7ZM6 13.5H9Z" fill="black"/>
<path d="M6 13.5H9M7 6.5H9H7ZM6 7.5H8H6ZM6 8.5H8H6ZM9 8.5H10H9ZM6 9.5H10H6ZM6 10.5H10H6ZM7 11.5H9H7Z" stroke="#242424"/>
</svg>
