<svg width="16" height="16" viewBox="0 0 16 16" fill="none" xmlns="http://www.w3.org/2000/svg">
<path d="M4 1.5H8H4ZM4 2.5H5H4ZM8 2.5H11H8ZM5 3.5H6H5ZM11 3.5H12H11ZM4 4.5H5H4ZM6 4.5H7H6ZM12 4.5H13H12ZM3 5.5H4H3ZM12 5.5H13H12ZM2 6.5H3H2ZM8 6.5H9H8ZM12 6.5H13H12ZM2 7.5H3H2ZM5 7.5H8H5ZM12 7.5H13H12ZM3 8.5H5H3ZM7 8.5H8H7ZM12 8.5H13H12ZM6 9.5H7H6ZM12 9.5H13H12ZM5 10.5H6H5ZM11 10.5H12H11ZM4 11.5H5H4ZM11 11.5H12H11ZM4 12.5H12H4ZM3 13.5H4H3ZM12 13.5H13H12ZM3 14.5H13Z" fill="black"/>
<path d="M3 14.5H13M4 1.5H8H4ZM4 2.5H5H4ZM8 2.5H11H8ZM5 3.5H6H5ZM11 3.5H12H11ZM4 4.5H5H4ZM6 4.5H7H6ZM12 4.5H13H12ZM3 5.5H4H3ZM12 5.5H13H12ZM2 6.5H3H2ZM8 6.5H9H8ZM12 6.5H13H12ZM2 7.5H3H2ZM5 7.5H8H5ZM12 7.5H13H12ZM3 8.5H5H3ZM7 8.5H8H7ZM12 8.5H13H12ZM6 9.5H7H6ZM12 9.5H13H12ZM5 10.5H6H5ZM11 10.5H12H11ZM4 11.5H5H4ZM11 11.5H12H11ZM4 12.5H12H4ZM3 13.5H4H3ZM12 13.5H13H12Z" stroke="black"/>
<path d="M5 2.5H6H5ZM5 11.5H6Z" fill="black"/>
<path d="M5 11.5H6M5 2.5H6H5Z" stroke="#6D6D6D"/>
<path d="M6 2.5H7H6ZM6 3.5H7H6ZM5 4.5H6H5ZM4 5.5H5H4ZM3 6.5H4H3ZM3 7.5H4H3ZM8 7.5H9H8ZM8 8.5H9H8ZM7 9.5H8H7ZM6 10.5H7H6ZM6 11.5H7H6ZM4 13.5H6Z" fill="black"/>
<path d="M4 13.5H6M6 2.5H7H6ZM6 3.5H7H6ZM5 4.5H6H5ZM4 5.5H5H4ZM3 6.5H4H3ZM3 7.5H4H3ZM8 7.5H9H8ZM8 8.5H9H8ZM7 9.5H8H7ZM6 10.5H7H6ZM6 11.5H7H6Z" stroke="#494949"/>
<path d="M7 2.5H8H7ZM7 3.5H10H7ZM7 4.5H11H7ZM5 5.5H8H5ZM9 5.5H11H9ZM4 6.5H7H4ZM9 6.5H11H9ZM4 7.5H5H4ZM9 7.5H11H9ZM9 8.5H11H9ZM8 9.5H11H8ZM7 10.5H10H7ZM7 11.5H9H7ZM6 13.5H9Z" fill="black"/>
<path d="M6 13.5H9M7 2.5H8H7ZM7 3.5H10H7ZM7 4.5H11H7ZM5 5.5H8H5ZM9 5.5H11H9ZM4 6.5H7H4ZM9 6.5H11H9ZM4 7.5H5H4ZM9 7.5H11H9ZM9 8.5H11H9ZM8 9.5H11H8ZM7 10.5H10H7ZM7 11.5H9H7Z" stroke="#242424"/>
<path d="M10 3.5H11H10ZM11 4.5H12H11ZM8 5.5H9H8ZM11 5.5H12H11ZM7 6.5H8H7ZM11 6.5H12H11ZM11 7.5H12H11ZM11 8.5H12H11ZM11 9.5H12H11ZM10 10.5H11H10ZM9 11.5H11H9ZM9 13.5H12Z" fill="black"/>
<path d="M9 13.5H12M10 3.5H11H10ZM11 4.5H12H11ZM8 5.5H9H8ZM11 5.5H12H11ZM7 6.5H8H7ZM11 6.5H12H11ZM11 7.5H12H11ZM11 8.5H12H11ZM11 9.5H12H11ZM10 10.5H11H10ZM9 11.5H11H9Z" stroke="#151515"/>
</svg>
