<svg width="16" height="16" viewBox="0 0 16 16" fill="none" xmlns="http://www.w3.org/2000/svg">
<path d="M6 2.5H10H6ZM5 3.5H6H5ZM10 3.5H11H10ZM5 4.5H6H5ZM10 4.5H11H10ZM5 5.5H6H5ZM10 5.5H11H10ZM6 6.5H7H6ZM9 6.5H10H9ZM5 7.5H6H5ZM10 7.5H11H10ZM5 8.5H6H5ZM10 8.5H11H10ZM6 9.5H7H6ZM9 9.5H10H9ZM5 10.5H6H5ZM10 10.5H11H10ZM4 11.5H5H4ZM11 11.5H12H11ZM4 12.5H5H4ZM11 12.5H12H11ZM4 13.5H12Z" fill="black"/>
<path d="M4 13.5H12M6 2.5H10H6ZM5 3.5H6H5ZM10 3.5H11H10ZM5 4.5H6H5ZM10 4.5H11H10ZM5 5.5H6H5ZM10 5.5H11H10ZM6 6.5H7H6ZM9 6.5H10H9ZM5 7.5H6H5ZM10 7.5H11H10ZM5 8.5H6H5ZM10 8.5H11H10ZM6 9.5H7H6ZM9 9.5H10H9ZM5 10.5H6H5ZM10 10.5H11H10ZM4 11.5H5H4ZM11 11.5H12H11ZM4 12.5H5H4ZM11 12.5H12H11Z" stroke="black"/>
<path d="M6 3.5H7H6ZM6 7.5H7H6ZM6 10.5H7H6ZM5 11.5H6Z" fill="black"/>
<path d="M5 11.5H6M6 3.5H7H6ZM6 7.5H7H6ZM6 10.5H7H6Z" stroke="#6D6D6D"/>
<path d="M7 3.5H9H7ZM6 4.5H7H6ZM7 7.5H8H7ZM6 11.5H7H6ZM5 12.5H6Z" fill="black"/>
<path d="M5 12.5H6M7 3.5H9H7ZM6 4.5H7H6ZM7 7.5H8H7ZM6 11.5H7H6Z" stroke="#494949"/>
<path d="M9 3.5H10H9ZM9 4.5H10H9ZM9 5.5H10H9ZM8 6.5H9H8ZM9 7.5H10H9ZM7 8.5H10H7ZM8 9.5H9H8ZM9 10.5H10H9ZM10 11.5H11H10ZM6 12.5H11Z" fill="black"/>
<path d="M6 12.5H11M9 3.5H10H9ZM9 4.5H10H9ZM9 5.5H10H9ZM8 6.5H9H8ZM9 7.5H10H9ZM7 8.5H10H7ZM8 9.5H9H8ZM9 10.5H10H9ZM10 11.5H11H10Z" stroke="#151515"/>
<path d="M7 4.5H9H7ZM6 5.5H9H6ZM7 6.5H8H7ZM8 7.5H9H8ZM6 8.5H7H6ZM7 9.5H8H7ZM7 10.5H9H7ZM7 11.5H10Z" fill="black"/>
<path d="M7 11.5H10M7 4.5H9H7ZM6 5.5H9H6ZM7 6.5H8H7ZM8 7.5H9H8ZM6 8.5H7H6ZM7 9.5H8H7ZM7 10.5H9H7Z" stroke="#242424"/>
</svg>
