<svg width="16" height="16" viewBox="0 0 16 16" fill="none" xmlns="http://www.w3.org/2000/svg">
<path d="M7 1.5H9H7ZM6 2.5H7H6ZM9 2.5H10H9ZM6 3.5H7H6ZM9 3.5H10H9ZM7 4.5H9H7ZM1 5.5H2H1ZM14 5.5H15H14ZM2 6.5H4H2ZM7 6.5H9H7ZM12 6.5H14H12ZM2 7.5H3H2ZM4 7.5H5H4ZM6 7.5H7H6ZM9 7.5H10H9ZM11 7.5H12H11ZM13 7.5H14H13ZM2 8.5H3H2ZM5 8.5H6H5ZM10 8.5H11H10ZM13 8.5H14H13ZM3 9.5H4H3ZM12 9.5H13H12ZM3 10.5H4H3ZM12 10.5H13H12ZM4 11.5H5H4ZM11 11.5H12H11ZM4 12.5H12H4ZM3 13.5H4H3ZM12 13.5H13H12ZM3 14.5H13Z" fill="black"/>
<path d="M3 14.5H13M7 1.5H9H7ZM6 2.5H7H6ZM9 2.5H10H9ZM6 3.5H7H6ZM9 3.5H10H9ZM7 4.5H9H7ZM1 5.5H2H1ZM14 5.5H15H14ZM2 6.5H4H2ZM7 6.5H9H7ZM12 6.5H14H12ZM2 7.5H3H2ZM4 7.5H5H4ZM6 7.5H7H6ZM9 7.5H10H9ZM11 7.5H12H11ZM13 7.5H14H13ZM2 8.5H3H2ZM5 8.5H6H5ZM10 8.5H11H10ZM13 8.5H14H13ZM3 9.5H4H3ZM12 9.5H13H12ZM3 10.5H4H3ZM12 10.5H13H12ZM4 11.5H5H4ZM11 11.5H12H11ZM4 12.5H12H4ZM3 13.5H4H3ZM12 13.5H13H12Z" stroke="black"/>
<path d="M7 2.5H8H7ZM3 7.5H4H3ZM3 8.5H4Z" fill="black"/>
<path d="M3 8.5H4M7 2.5H8H7ZM3 7.5H4H3Z" stroke="#FDFDFD"/>
<path d="M8 2.5H9H8ZM8 3.5H9H8ZM12 7.5H13H12ZM11 8.5H13H11ZM11 9.5H12H11ZM10 10.5H12H10ZM9 11.5H11H9ZM9 13.5H12Z" fill="black"/>
<path d="M9 13.5H12M8 2.5H9H8ZM8 3.5H9H8ZM12 7.5H13H12ZM11 8.5H13H11ZM11 9.5H12H11ZM10 10.5H12H10ZM9 11.5H11H9Z" stroke="#A7A7A7"/>
<path d="M7 3.5H8H7ZM7 7.5H8H7ZM4 8.5H5H4ZM6 8.5H7H6ZM4 9.5H6H4ZM4 10.5H6H4ZM5 11.5H6H5ZM4 13.5H6Z" fill="black"/>
<path d="M4 13.5H6M7 3.5H8H7ZM7 7.5H8H7ZM4 8.5H5H4ZM6 8.5H7H6ZM4 9.5H6H4ZM4 10.5H6H4ZM5 11.5H6H5Z" stroke="#E1E1E1"/>
<path d="M8 7.5H9H8ZM7 8.5H10H7ZM6 9.5H11H6ZM6 10.5H10H6ZM6 11.5H9H6ZM6 13.5H9Z" fill="black"/>
<path d="M6 13.5H9M8 7.5H9H8ZM7 8.5H10H7ZM6 9.5H11H6ZM6 10.5H10H6ZM6 11.5H9H6Z" stroke="#C1C1C1"/>
</svg>
