<svg width="16" height="16" viewBox="0 0 16 16" fill="none" xmlns="http://www.w3.org/2000/svg">
<path d="M3 1.5H6H3ZM7 1.5H13H7ZM3 2.5H4H3ZM5 2.5H6H5ZM7 2.5H8H7ZM12 2.5H13H12ZM3 3.5H4H3ZM5 3.5H8H5ZM12 3.5H13H12ZM3 4.5H4H3ZM12 4.5H13H12ZM3 5.5H13H3ZM4 6.5H5H4ZM11 6.5H12H11ZM5 7.5H11H5ZM5 8.5H6H5ZM10 8.5H11H10ZM5 9.5H6H5ZM10 9.5H11H10ZM5 10.5H6H5ZM10 10.5H11H10ZM4 11.5H5H4ZM11 11.5H12H11ZM3 12.5H13H3ZM2 13.5H3H2ZM13 13.5H14H13ZM2 14.5H14Z" fill="black"/>
<path d="M2 14.5H14M3 1.5H6H3ZM7 1.5H13H7ZM3 2.5H4H3ZM5 2.5H6H5ZM7 2.5H8H7ZM12 2.5H13H12ZM3 3.5H4H3ZM5 3.5H8H5ZM12 3.5H13H12ZM3 4.5H4H3ZM12 4.5H13H12ZM3 5.5H13H3ZM4 6.5H5H4ZM11 6.5H12H11ZM5 7.5H11H5ZM5 8.5H6H5ZM10 8.5H11H10ZM5 9.5H6H5ZM10 9.5H11H10ZM5 10.5H6H5ZM10 10.5H11H10ZM4 11.5H5H4ZM11 11.5H12H11ZM3 12.5H13H3ZM2 13.5H3H2ZM13 13.5H14H13Z" stroke="black"/>
<path d="M4 2.5H5H4ZM5 6.5H6H5ZM5 11.5H6H5ZM3 13.5H4Z" fill="black"/>
<path d="M3 13.5H4M4 2.5H5H4ZM5 6.5H6H5ZM5 11.5H6H5Z" stroke="#6D6D6D"/>
<path d="M8 2.5H11H8ZM8 3.5H11H8ZM5 4.5H10H5ZM7 6.5H9H7ZM7 8.5H9H7ZM7 9.5H9H7ZM7 10.5H9H7ZM7 11.5H9H7ZM6 13.5H10Z" fill="black"/>
<path d="M6 13.5H10M8 2.5H11H8ZM8 3.5H11H8ZM5 4.5H10H5ZM7 6.5H9H7ZM7 8.5H9H7ZM7 9.5H9H7ZM7 10.5H9H7ZM7 11.5H9H7Z" stroke="#242424"/>
<path d="M11 2.5H12H11ZM11 3.5H12H11ZM10 4.5H12H10ZM9 6.5H11H9ZM9 8.5H10H9ZM9 9.5H10H9ZM9 10.5H10H9ZM9 11.5H11H9ZM10 13.5H13Z" fill="black"/>
<path d="M10 13.5H13M11 2.5H12H11ZM11 3.5H12H11ZM10 4.5H12H10ZM9 6.5H11H9ZM9 8.5H10H9ZM9 9.5H10H9ZM9 10.5H10H9ZM9 11.5H11H9Z" stroke="#151515"/>
<path d="M4 3.5H5H4ZM4 4.5H5H4ZM6 6.5H7H6ZM6 8.5H7H6ZM6 9.5H7H6ZM6 10.5H7H6ZM6 11.5H7H6ZM4 13.5H6Z" fill="black"/>
<path d="M4 13.5H6M4 3.5H5H4ZM4 4.5H5H4ZM6 6.5H7H6ZM6 8.5H7H6ZM6 9.5H7H6ZM6 10.5H7H6ZM6 11.5H7H6Z" stroke="#494949"/>
</svg>
