<svg width="50" height="50" viewBox="0 0 50 50" fill="none" xmlns="http://www.w3.org/2000/svg">
<path fill-rule="evenodd" clip-rule="evenodd" d="M25 5.767C22.8944 5.767 21.1876 6.64565 21.1879 7.7302L22.7045 10.3807C6.6555 24.4697 16.9975 37.5157 16.9975 37.5157H33.0035C33.0035 37.5157 40.0531 28.8443 33.7658 18.0057L30.7768 22.8333C30.106 23.9166 28.8136 24.3231 27.8788 23.7444C26.944 23.1656 26.7316 21.8274 27.4023 20.7441L31.2889 14.467C30.1816 13.1221 28.8638 11.7569 27.2964 10.3809L28.813 7.73037C28.813 6.64577 27.1064 5.76717 25.0009 5.76717L25 5.767Z" fill="#6A4A79" stroke="#1E1E1E" stroke-width="1.2" stroke-linejoin="round"/>
<path opacity="0.18" fill-rule="evenodd" clip-rule="evenodd" d="M25 5.767C24.1836 5.767 23.4289 5.9005 22.8087 6.12547C27.1474 6.97265 27.7852 7.24497 25.3688 10.4761L28.6148 14.0426C24.9583 22.2829 27.0111 22.0345 27.0111 22.0345C27.0111 22.0345 27.7075 19.386 31.1228 14.2656C30.0506 12.986 28.7851 11.6876 27.2962 10.3805L28.8123 7.73037C28.8124 6.64587 27.1056 5.76727 25 5.76697V5.767ZM33.7655 18.005L32.7564 19.5177C36.4927 27.9306 28.6217 37.5147 28.6217 37.5147H33.0032C33.1613 37.5486 39.9612 28.6709 33.7655 18.0047L33.7655 18.005Z" fill="#020014"/>
<path opacity="0.25" fill-rule="evenodd" clip-rule="evenodd" d="M15.145 31.721C14.9259 31.6896 11.7217 21.9351 20.8993 12.97C18.5974 14.865 13.7642 26.133 15.145 31.721Z" fill="white"/>
<path opacity="0.25" fill-rule="evenodd" clip-rule="evenodd" d="M23.292 10.196L21.8148 7.6017C21.8148 7.6017 22.0573 6.87995 23.5956 6.5545C21.869 7.9047 22.6076 8.2167 23.292 10.196Z" fill="white"/>
<path fill-rule="evenodd" clip-rule="evenodd" d="M25 36.457C25 36.457 15.8691 36.505 13.309 38.0762C11.5817 39.1364 11.1742 41.7276 11.4092 44.3999H38.5912C38.8261 41.7276 38.4186 39.1363 36.6913 38.0762C34.1316 36.5051 25.0003 36.457 25.0003 36.457H25Z" fill="#6A4A79" stroke="#1E1E1E" stroke-width="1.2" stroke-linejoin="round"/>
<path opacity="0.25" fill-rule="evenodd" clip-rule="evenodd" d="M25 37.147C25 37.147 16.2879 37.0096 13.376 38.8128C13.0061 39.0418 12.6767 39.6522 12.4224 40.203C12.6831 39.8717 12.9245 39.5899 13.309 39.3539C15.8688 37.7828 25 37.7348 25 37.7348C25 37.7348 34.1318 37.7828 36.692 39.3539C37.083 39.5939 37.2844 39.8856 37.5476 40.224C37.5736 40.148 37.1392 39.0662 36.4038 38.6278C33.6484 37.1358 25.0008 37.147 25.0008 37.147H25Z" fill="white"/>
</svg>
