<svg width="50" height="50" viewBox="0 0 50 50" fill="none" xmlns="http://www.w3.org/2000/svg">
<path fill-rule="evenodd" clip-rule="evenodd" d="M25.192 23.015C25.0266 29.9822 13.434 28.2339 13.676 41.119L36.536 41.2374C34.442 34.7954 46.226 16.0774 24.605 8.9794V8.9793C24.605 8.9793 22.1669 6.3783 18.6395 6.1556L18.8622 9.6903L14.3039 14.2719C11.6745 17.4174 5.5692 22.6503 6.5526 23.883C9.6684 29.1871 12.8832 28.3146 12.8832 28.3146C17.125 23.7713 18.7025 26.2252 25.1922 23.0149L25.192 23.015Z" fill="#F3DCFE" stroke="#3C3C3C" stroke-width="1.2" stroke-linejoin="round"/>
<path opacity="0.35" fill-rule="evenodd" clip-rule="evenodd" d="M19.32 14.694C18.5443 15.5549 18.6298 15.8096 18.5063 16.8443C19.3118 16.9675 20.0132 17.0841 20.7549 16.9099C23.1358 15.6479 20.8299 13.5073 19.3202 14.6937L19.32 14.694Z" fill="#000214"/>
<path opacity="0.3" fill-rule="evenodd" clip-rule="evenodd" d="M9.1916 22.166C8.342 22.5738 8.1932 23.1268 8.1351 23.6414C8.8639 24.0595 10.0116 23.5159 10.1763 22.2098L9.1917 22.1658L9.1916 22.166Z" fill="#000214"/>
<path fill-rule="evenodd" clip-rule="evenodd" d="M8.1905 25.15C8.1905 25.15 8.843 26.2874 7.0886 23.509C7.748 21.5316 15.3516 14.4294 19.5266 9.975L19.343 6.8893C19.343 6.8893 20.4119 8.5794 20.5905 10.3573C16.2007 14.7473 8.3705 21.1903 7.7665 23.5703C7.7895 24.2441 8.0065 24.5981 8.1896 25.15H8.1905Z" fill="white"/>
<path opacity="0.15" fill-rule="evenodd" clip-rule="evenodd" d="M13.26 28.257C15.2891 24.9203 21.6514 25.0331 25.192 23.0146C25.5148 23.117 25.3224 24.3843 25.4318 24.2446C26.2794 23.1543 28.3577 20.9656 26.3002 17.3703C26.8216 23.3278 12.5822 22.9615 10.4102 27.6753C10.2097 28.1108 12.592 28.4685 13.2602 28.2571L13.26 28.257Z" fill="#020014"/>
<path fill-rule="evenodd" clip-rule="evenodd" d="M25.8 23.781C24.7869 29.5942 16.2551 29.8979 14.812 36.422C17.6452 30.0162 25.574 30.7084 25.8 23.781Z" fill="white"/>
<path opacity="0.15" fill-rule="evenodd" clip-rule="evenodd" d="M18.64 6.1556C18.64 6.1556 21.691 6.89367 23.5445 10.1381C44.0435 17.2917 31.1858 38.0751 29.3328 41.2111L36.5362 41.2371C34.5491 37.994 46.0844 15.6401 24.6052 8.9791C22.8295 7.91 21.8375 6.3699 18.6397 6.1553L18.64 6.1556Z" fill="#000214"/>
<path fill-rule="evenodd" clip-rule="evenodd" d="M25 36.457C25 36.457 15.8691 36.505 13.309 38.0762C11.5817 39.1364 11.1742 41.7276 11.4092 44.3999H38.5912C38.8262 41.7276 38.4187 39.1363 36.6913 38.0762C34.1316 36.5051 25.0003 36.457 25.0003 36.457H25Z" fill="#F3DCFE" stroke="#3C3C3C" stroke-width="1.2" stroke-linejoin="round"/>
<path fill-rule="evenodd" clip-rule="evenodd" d="M25 37.147C25 37.147 16.2879 37.0097 13.376 38.8128C13.0062 39.0419 12.6768 39.6522 12.4224 40.203C12.6832 39.8717 12.9246 39.59 13.3091 39.354C15.8689 37.7829 25.0001 37.7349 25.0001 37.7349C25.0001 37.7349 34.1319 37.7829 36.6921 39.354C37.0831 39.594 37.2845 39.8856 37.5477 40.2241C37.5737 40.1481 37.1393 39.0663 36.4039 38.6279C33.6485 37.1359 25.0009 37.1471 25.0009 37.1471L25 37.147Z" fill="white"/>
</svg>
