<svg width="50" height="50" viewBox="0 0 50 50" fill="none" xmlns="http://www.w3.org/2000/svg">
<path fill-rule="evenodd" clip-rule="evenodd" d="M21.503 27.594H28.4974H21.503ZM19 17.508C19 19.2395 19.7123 20.8953 20.9657 22.095L17.3153 24.1949L17.7462 27.5937H22.0521C21.2577 31.1527 19.2973 34.9245 16.9899 36.211C14.6825 37.4975 11.6905 39.3078 12.1474 44.4L37.8534 44.4C38.3103 39.3078 35.3182 37.4975 33.0109 36.211C30.7035 34.9245 28.7431 31.1527 27.9487 27.5937H32.2546L32.6855 24.1949L29.0352 22.095C30.2885 20.8954 31.0007 19.2396 31.0007 17.5081C31.001 14.1414 28.3727 11.5963 25.0001 11.5963C21.6275 11.5963 18.9993 14.1413 18.9995 17.508L19 17.508Z" fill="#6A4A79" stroke="#1E1E1E" stroke-width="1.2" stroke-linejoin="round"/>
<path opacity="0.18" fill-rule="evenodd" clip-rule="evenodd" d="M24.962 11.537C26.1329 11.0784 34.4893 17.4427 25.6091 22.31L30.1211 24.41L29.5589 27.535H32.2175L32.6462 24.1363L28.9958 22.0364C30.2492 20.8368 30.9576 19.4552 30.9604 17.7236C30.4915 12.3077 24.9619 11.5375 24.9619 11.5375L24.962 11.537ZM22.0135 27.535C26.516 35.4687 31.4836 37.529 35.0875 37.4996L32.9718 36.1526C30.8968 34.6631 28.2401 31.2954 27.9096 27.5349L22.0135 27.535Z" fill="#020014"/>
<path opacity="0.25" fill-rule="evenodd" clip-rule="evenodd" d="M21.983 22.213L20.336 24.5596L17.9799 24.5459L21.9929 22.2225L21.983 22.213Z" fill="white"/>
<path opacity="0.25" fill-rule="evenodd" clip-rule="evenodd" d="M24.307 12.267C21.7645 12.4051 18.577 15.4403 19.9222 19.1853L20.121 19.8284C19.7912 16.339 22.2478 12.7115 24.307 12.267L24.307 12.267Z" fill="white"/>
<path opacity="0.25" fill-rule="evenodd" clip-rule="evenodd" d="M17.863 37.625C13.8791 39.9303 12.746 43.7652 12.746 43.7652C12.7356 43.7652 12.1985 39.5901 16.7024 37.1112C21.2063 34.6323 21.5239 30.9605 22.5626 28.2185C21.9255 31.9216 21.8469 35.3197 17.863 37.625V37.625Z" fill="white"/>
</svg>
