<svg width="50" height="50" viewBox="0 0 50 50" fill="none" xmlns="http://www.w3.org/2000/svg">
<path fill-rule="evenodd" clip-rule="evenodd" d="M17.932 20.414C22.8376 19.6733 27.5107 19.8355 32.068 20.414H17.932ZM14.183 9.662C13.1238 18.4289 15.2864 20.339 17.9312 20.414L14.6158 38.573H35.3828L32.0674 20.414C34.7122 20.3395 36.8748 18.4291 35.8156 9.662L32.2084 9.13283L31.1351 12.7755L27.9935 12.676L27.4713 8.92203H22.5265L22.0052 12.676L18.8632 12.7755L17.7899 9.13283L14.183 9.662Z" fill="#F3DCFE" stroke="#3C3C3C" stroke-width="1.2"/>
<path opacity="0.15" fill-rule="evenodd" clip-rule="evenodd" d="M17.932 20.414C24.76 20.414 31.05 20.8216 32.88 36.986L35.1987 37.3718L32.0676 20.9439C32.0362 20.6361 25.9795 19.1215 17.9316 20.4147L17.932 20.414Z" fill="#000214"/>
<path fill-rule="evenodd" clip-rule="evenodd" d="M14.777 10.219L17.0536 9.93301C15.1399 10.245 14.7408 15.2288 14.7408 15.2288C14.5028 15.0523 14.5527 10.3255 14.777 10.219L14.777 10.219Z" fill="white"/>
<path fill-rule="evenodd" clip-rule="evenodd" d="M25.276 9.5507C23.6283 9.5507 22.7569 12.2982 22.7569 12.2982L23.0942 9.5694L25.276 9.5507Z" fill="white"/>
<path fill-rule="evenodd" clip-rule="evenodd" d="M32.671 9.8162L33.605 9.93446C32.8202 10.434 32.0145 11.9229 32.0145 11.9229L32.671 9.8162Z" fill="white"/>
<path fill-rule="evenodd" clip-rule="evenodd" d="M18.472 20.964L21.0926 20.6709C18.472 20.964 16.2038 33.7839 16.2038 33.7839L18.472 20.964Z" fill="white"/>
<path opacity="0.15" fill-rule="evenodd" clip-rule="evenodd" d="M34.013 9.3979C34.3698 15.7614 32.0631 20.0009 25.9715 19.9339L30.7495 20.4971C38.2721 20.8062 35.8505 9.69113 35.8166 9.66213L34.013 9.3979Z" fill="#020014"/>
<path fill-rule="evenodd" clip-rule="evenodd" d="M25 36.457C25 36.457 15.8691 36.5051 13.309 38.0762C11.5817 39.1364 11.1742 41.7277 11.4092 44.3999H38.5912C38.8262 41.7276 38.4186 39.1364 36.6913 38.0762C34.1316 36.5051 25.0003 36.457 25.0003 36.457H25Z" fill="#F3DCFE" stroke="#3C3C3C" stroke-width="1.2" stroke-linejoin="round"/>
<path fill-rule="evenodd" clip-rule="evenodd" d="M25 37.146C25 37.146 16.2879 37.0087 13.376 38.8118C13.0061 39.0408 12.6767 39.6512 12.4224 40.202C12.6832 39.8707 12.9245 39.589 13.309 39.353C15.8687 37.7819 25 37.7339 25 37.7339C25 37.7339 34.1319 37.7818 36.6921 39.353C37.0831 39.593 37.2845 39.8846 37.5477 40.2231C37.5735 40.1472 37.1393 39.0652 36.4039 38.6269C33.6485 37.1349 25.0009 37.1461 25.0009 37.1461L25 37.146Z" fill="white"/>
</svg>
