<svg width="800" height="800" viewBox="0 0 800 800" fill="none" xmlns="http://www.w3.org/2000/svg">
<path d="M137.8 605.9C145.8 562.9 166.7 454.9 181.1 393.9V353.9L181.6 352.3C195.5 310.4 215.2 266.8 225.7 243.3C226.7 241.1 227.5 239.3 228.3 237.6C216.4 218.6 213.1 191.9 209.9 168.2C208.6 158.3 207.4 148.9 205.7 140.9L202.8 127.2L216.8 128C250.5 129.7 282.9 150.4 300.4 179.9C294.5 158.3 299.5 130.5 314.8 107.8L320.6 99.1L330 103.9C357.5 117.8 371.8 147.1 372.6 172.6C383.3 171.5 393.8 171 403.7 171C420.4 171 435.7 172.5 449 175.5C502 187.5 588.4 230.5 649.9 275.4L654.3 278.6V706.9H334.8L350 689C416.7 610.9 452.1 536 452.1 472.1C452.1 450.1 448.2 428.4 441 408.6C442.4 429.7 440 449.9 433.5 467.7C420.9 502.6 384.4 523 362.7 532.4C345 548.6 316.7 583.6 301.4 606.4L275.5 673.8L136.4 614.5L137.8 605.9Z" fill="#4C0027"/>
<path d="M177.4 578.1C196.8 567.2 211.3 581.9 199.8 603.3L177.4 578.1ZM229 361.1C222.1 370.6 228.4 390.4 235 395.6C239.5 395 249.1 391.2 253.6 387.6L275.1 362.7L270.6 359C261.9 358.9 239.9 358.9 229 361.1V361.1ZM319.8 200.3L320.4 197.4C351.5 192.3 393.4 191.4 417.7 191.4C463.4 191.4 565.7 250.2 627.2 295.5V350.6C582.2 307.1 486 231.8 430.9 214.8C393.7 203.3 356.8 199.1 319.8 200.3V200.3Z" fill="#ECB390"/>
</svg>
