<svg width="800" height="800" viewBox="0 0 800 800" fill="none" xmlns="http://www.w3.org/2000/svg">
<path d="M489.3 418.3C489.4 401.3 501.3 393.2 554.4 388.4V330H463.7C495.7 310.5 516.5 276.5 516.5 237.1C516.5 175.2 465.2 126.7 399.8 126.7C334.4 126.7 283.1 175.2 283.1 237.1C283.1 276.5 303.8 310.4 335.9 330H244.5V388.4C298.2 393.2 309.7 401.3 309.7 418.2C309.7 478.9 272.1 549.7 194.2 618.3L194.3 682.3C194.3 700.9 287.5 714.3 399.6 714.3C511.7 714.3 605 700.8 605 682.3L605.1 618.3C527.2 549.8 489.3 478.9 489.3 418.3V418.3Z" fill="#4C0027"/>
<path d="M232.1 627.2C232.1 640.9 308.1 652.9 399.7 652.9C491.2 652.9 567.1 641.9 567.1 628.3" stroke="#ECB390" stroke-width="19.44" stroke-miterlimit="10" stroke-linecap="round"/>
<path d="M400.9 150.3C376.9 150.1 353.3 158.9 334.6 177.6C307.9 204.4 302.1 240.8 314.6 272.9" stroke="#ECB390" stroke-width="16.2" stroke-miterlimit="10" stroke-linecap="round"/>
</svg>
