<svg width="800" height="800" viewBox="0 0 800 800" fill="none" xmlns="http://www.w3.org/2000/svg">
<path d="M497.9 240C497.9 293.6 453.9 333.9 399.8 333.9C345.7 333.9 301.7 293.6 301.7 240C301.7 186.4 345.7 146.1 399.8 146.1C454 146.2 497.9 186.5 497.9 240V240ZM526.4 337.6V392.9C496.2 395.9 483.6 405 483.6 420.9C483.6 477.8 519.6 544.3 592.7 608.8V669.7C592.7 687.1 505.2 700.5 400 700.5C294.8 700.5 207.3 687.1 207.3 669.7L207.2 609.1C280.3 544.6 315.3 478 315.3 421.1C315.3 405.2 301.7 395.9 271.5 392.9V337.6H526.4Z" fill="#ECB390" stroke="#4C0027" stroke-width="30.24" stroke-miterlimit="10"/>
<path d="M207.2 608C207.2 625.4 294.7 638.3 399.9 638.3C505.1 638.3 592.5 625.4 592.5 608.1" stroke="#4C0027" stroke-width="16.2" stroke-miterlimit="10"/>
<path d="M272.6 386.7H525.3" stroke="#4C0027" stroke-width="14.04" stroke-miterlimit="10"/>
</svg>
