<svg width="32" height="32" viewBox="0 0 32 32" fill="none" xmlns="http://www.w3.org/2000/svg">
<path d="M22.0078 11.6871H10.4939V8.38375C10.4939 6.91209 11.018 5.64688 12.0661 4.58813C13.1249 3.52938 14.4007 3 15.8935 3C17.3969 3 18.6463 3.56643 19.6415 4.6993C19.5992 5.77922 19.758 6.70563 20.1179 7.47852C20.3615 7.60557 21.0496 7.73791 22.1825 7.87555C23.326 8.01319 24.3529 8.12965 25.2635 8.22494C24.7129 8.80725 24.1677 9.38428 23.6277 9.956C23.0877 10.5277 22.5478 11.1047 22.0078 11.6871ZM23.9294 25.2338L24.7553 29.0294H7L7.79406 25.2338H23.9294ZM23.7071 24.1221H8.04816L10.0174 14.911H21.7378L23.7071 24.1221ZM21.5314 13.8469H10.2398L10.4462 12.7511H21.309L21.5314 13.8469Z" fill="black"/>
<path d="M22.0078 11.6871H10.4939L10.4462 12.7511H21.309L22.0078 11.6871Z" fill="#777777"/>
<path d="M10.0174 14.911H21.7378L21.5314 13.8469H10.2398L10.0174 14.911Z" fill="#777777"/>
<path d="M7.79407 25.2338H23.9295L23.7071 24.1221H8.04817L7.79407 25.2338Z" fill="#777777"/>
</svg>
