<svg width="32" height="32" viewBox="0 0 32 32" fill="none" xmlns="http://www.w3.org/2000/svg">
<path d="M24.7087 12.7511H6.92164C6.72047 10.8454 6.34991 8.9396 5.80995 7.03385C8.46741 8.06083 11.2361 8.65903 14.1159 8.82843C14.1159 8.75432 14.1159 8.68021 14.1159 8.60609C14.1159 8.52139 14.1159 8.4314 14.1159 8.33611C14.1159 7.55263 13.9994 6.72681 13.7665 5.85863C13.7135 5.56218 13.6871 5.32396 13.6871 5.14397C13.6871 4.56166 13.8935 4.05875 14.3064 3.63525C14.7299 3.21175 15.2434 3 15.8469 3C16.4398 3 16.9427 3.21175 17.3556 3.63525C17.7791 4.05875 17.9909 4.56166 17.9909 5.14397C17.9909 5.32396 17.9644 5.56218 17.9115 5.85863C17.6786 6.72681 17.5621 7.55263 17.5621 8.33611C17.5621 8.55845 17.5674 8.72256 17.578 8.82843C20.4472 8.65903 23.2158 8.06083 25.8839 7.03385C25.3016 9.00312 24.9098 10.9089 24.7087 12.7511H24.7087ZM24.6451 13.8152C24.571 14.8739 24.534 15.7844 24.534 16.5467C24.534 16.8008 24.5446 16.9861 24.5657 17.1026H7.15985C7.15985 17.0179 7.15456 16.9279 7.14397 16.8326C7.14397 16.7373 7.14397 16.642 7.14397 16.5467C7.14397 15.5727 7.10692 14.6622 7.03281 13.8152H24.6451ZM24.5975 18.1825C24.5975 18.3731 24.6028 18.5584 24.6134 18.7384C24.624 18.9183 24.6346 19.093 24.6451 19.2624H7.01692C7.0381 19.093 7.05398 18.9183 7.06457 18.7384C7.07515 18.5584 7.09633 18.3731 7.12809 18.1825H24.5975ZM24.7881 20.3424C24.8834 21.454 25.0422 22.534 25.2645 23.5821L6.38167 23.5663C6.64636 22.5181 6.83694 21.4435 6.9534 20.3424L24.7881 20.3424ZM25.471 24.7097C25.6298 25.3661 25.8151 26.012 26.0268 26.6472C26.2386 27.2825 26.4556 27.9019 26.678 28.5053H15.8469H5C5.46585 27.2454 5.86288 25.9802 6.1911 24.7097H25.471Z" fill="black"/>
<path d="M24.7087 12.7511H6.92164L7.03281 13.8151H24.6452L24.7087 12.7511Z" fill="#777777"/>
<path d="M24.6452 19.2624H7.01693L6.9534 20.3423L24.7881 20.3424L24.6452 19.2624Z" fill="#777777"/>
<path d="M25.2645 23.5821L6.38168 23.5662L6.1911 24.7097H25.471L25.2645 23.5821Z" fill="#777777"/>
<path d="M24.5657 17.1026H7.15986L7.1281 18.1825H24.5975L24.5657 17.1026Z" fill="#777777"/>
</svg>
