<svg width="32" height="32" viewBox="0 0 32 32" fill="none" xmlns="http://www.w3.org/2000/svg">
<path d="M15.8618 27.8045H23.1036C22.7966 26.9363 22.5266 26.047 22.2937 25.1364H9.4616C9.33455 25.6023 9.19691 26.0575 9.04869 26.5022C8.90046 26.9469 8.75224 27.381 8.60401 27.8045H15.8618ZM9.7157 24.0089H22.0713C21.9761 23.6171 21.8861 23.2201 21.8014 22.8178C21.7167 22.4154 21.6478 22.0078 21.5949 21.5949H10.1604C10.0122 22.516 9.86392 23.3207 9.7157 24.0089ZM10.2715 20.4991L21.4678 20.515C21.4255 20.2715 21.399 19.9009 21.3884 19.4033H10.351C10.3404 19.6468 10.3139 20.0121 10.2715 20.4991V20.4991ZM21.309 18.3234C21.2879 18.0269 21.2773 17.5769 21.2773 16.9734C21.2773 16.497 21.2826 16.137 21.2932 15.8935H10.4145C10.4357 16.3805 10.4462 16.7405 10.4462 16.9734C10.4462 17.2805 10.4357 17.7305 10.4145 18.3234H21.309ZM17.6722 11.018H22.913C22.5425 12.9767 22.3572 14.9618 22.3572 16.9734C22.3572 21.1661 23.146 25.1523 24.7235 28.9321H15.8618H7C8.57754 25.11 9.36631 21.1238 9.36631 16.9734C9.36631 14.9618 9.18103 12.9767 8.81047 11.018H14.0513C13.9348 10.478 13.8448 10.0916 13.7813 9.85863C13.7284 9.56218 13.7019 9.32396 13.7019 9.14397C13.7019 8.56166 13.9084 8.05875 14.3213 7.63525C14.7448 7.21175 15.2583 7 15.8618 7C16.4547 7 16.9576 7.21175 17.3705 7.63525C17.794 8.05875 18.0057 8.56166 18.0057 9.14397C18.0057 9.32396 17.9793 9.56218 17.9263 9.85863C17.7993 10.3457 17.7146 10.7321 17.6722 11.018ZM16.5129 12.0979C16.5235 11.4203 16.6347 10.6262 16.8464 9.7157C16.9099 9.39807 16.9417 9.2075 16.9417 9.14397C16.9417 8.43461 16.5817 8.07993 15.8618 8.07993C15.1418 8.07993 14.7818 8.43461 14.7818 9.14397C14.7818 9.2922 14.8136 9.48277 14.8771 9.7157C15.0677 10.5521 15.1789 11.3462 15.2106 12.0979H10.0651C10.2027 12.9872 10.298 13.8925 10.351 14.8136H21.3884C21.4202 14.3583 21.452 13.9031 21.4837 13.4478C21.5261 12.9925 21.579 12.5426 21.6425 12.0979H16.5129Z" fill="black"/>
<path d="M15.8617 27.8045H23.1036C22.7965 26.9363 22.5266 26.047 22.2936 25.1364H9.46156C9.33451 25.6023 9.19687 26.0575 9.04865 26.5022C8.90042 26.9469 8.7522 27.381 8.60397 27.8045H15.8617ZM9.71566 24.0089H22.0713C21.976 23.6171 21.886 23.2201 21.8013 22.8178C21.7166 22.4154 21.6478 22.0078 21.5949 21.5949H10.1603C10.0121 22.516 9.86389 23.3207 9.71566 24.0089ZM10.2715 20.4991L21.4678 20.515C21.4255 20.2715 21.399 19.9009 21.3884 19.4033H10.3509C10.3403 19.6468 10.3139 20.0121 10.2715 20.4991ZM21.309 18.3234C21.2878 18.0269 21.2773 17.5769 21.2773 16.9734C21.2773 16.497 21.2826 16.137 21.2931 15.8935H10.4145C10.4356 16.3805 10.4462 16.7405 10.4462 16.9734C10.4462 17.2805 10.4356 17.7305 10.4145 18.3234H21.309ZM16.5129 12.0979C16.5234 11.4203 16.6346 10.6262 16.8464 9.7157C16.9099 9.39807 16.9416 9.2075 16.9416 9.14397C16.9416 8.43461 16.5817 8.07993 15.8617 8.07993C15.1418 8.07993 14.7818 8.43461 14.7818 9.14397C14.7818 9.2922 14.8136 9.48277 14.8771 9.7157C15.0677 10.5521 15.1788 11.3462 15.2106 12.0979H10.0651C10.2027 12.9872 10.298 13.8925 10.3509 14.8136H21.3884C21.4202 14.3583 21.4519 13.9031 21.4837 13.4478C21.526 12.9925 21.579 12.5426 21.6425 12.0979H16.5129Z" fill="white"/>
</svg>
