<svg width="32" height="32" viewBox="0 0 32 32" fill="none" xmlns="http://www.w3.org/2000/svg">
<path d="M20.1041 13.5928C20.0935 13.5293 20.0882 13.4393 20.0882 13.3228C20.0882 12.7299 20.2947 12.2217 20.7076 11.7982C21.1311 11.3747 21.6393 11.163 22.2322 11.163C22.3381 11.163 22.5075 11.1736 22.7404 11.1947L26.6472 12.227L25.7896 7.25618C25.5355 6.33507 25.022 5.57806 24.2491 4.98516C23.4868 4.38167 22.6134 4.07993 21.6287 4.07993C19.8818 4.07993 18.6007 4.8634 17.7855 6.43036L17.2296 7.62145C17.1661 7.76968 17.1343 7.91261 17.1343 8.05025C17.1343 8.25141 17.1978 8.45787 17.3249 8.66962C17.5578 9.06136 17.6743 9.46898 17.6743 9.89248C17.6743 10.4854 17.4625 10.9936 17.039 11.4171C16.6261 11.8406 16.1232 12.0523 15.5303 12.0523C14.9268 12.0523 14.4133 11.8406 13.9898 11.4171C13.5769 10.9936 13.3705 10.4854 13.3705 9.89248C13.3705 9.47956 13.4922 9.07194 13.7357 8.66962C13.8522 8.47904 13.9104 8.27259 13.9104 8.05025C13.9104 7.91261 13.8787 7.76968 13.8151 7.62145L13.2593 6.43036C12.4546 4.8634 11.1788 4.07993 9.4319 4.07993C8.43668 4.07993 7.55791 4.38167 6.79561 4.98516C6.03331 5.57806 5.52511 6.33507 5.27101 7.25618L4.41342 12.227L8.30433 11.2106C8.4949 11.1789 8.6643 11.163 8.81253 11.163C9.40543 11.163 9.91363 11.3747 10.3371 11.7982C10.7606 12.2217 10.9724 12.7299 10.9724 13.3228C10.9724 13.3758 10.9724 13.4234 10.9724 13.4658C10.983 13.5081 10.9883 13.5505 10.9883 13.5928H20.1041ZM20.66 15.7527L20.3582 14.6727H10.6706L10.4165 15.7527H20.66ZM22.8039 23.868L20.9458 16.8326H10.1307L8.24081 23.868H22.8039ZM23.8204 27.6636L23.1216 24.9956H7.97083L7.25617 27.6636H23.8204ZM5.73157 28.7912L9.87659 13.4816C9.88718 13.4393 9.89248 13.3864 9.89248 13.3228C9.89248 12.6029 9.5325 12.2429 8.81255 12.2429C8.70667 12.2429 8.6008 12.2588 8.49492 12.2906L3 13.7675L4.06405 7.68498C4.26521 6.35095 4.8687 5.23926 5.87451 4.34991C6.89091 3.44997 8.07672 3 9.43192 3C10.5224 3 11.5124 3.30174 12.4017 3.90523C13.2911 4.50872 13.9581 5.2922 14.4028 6.25566L14.8157 7.1609C14.9321 7.44676 14.9904 7.74321 14.9904 8.05025C14.9904 8.4314 14.8898 8.81255 14.6886 9.1937C14.5298 9.42663 14.4504 9.65955 14.4504 9.89248C14.4504 10.6124 14.8104 10.9724 15.5303 10.9724C16.2503 10.9724 16.6103 10.6124 16.6103 9.89248C16.6103 9.65955 16.5309 9.42663 16.372 9.1937C16.1709 8.81255 16.0703 8.4314 16.0703 8.05025C16.0703 7.7538 16.1285 7.45205 16.245 7.14501L16.6579 6.25566C17.1026 5.2922 17.7643 4.50872 18.6431 3.90523C19.5324 3.30174 20.5276 3 21.6287 3C22.9734 3 24.1486 3.44997 25.1544 4.34991C26.1602 5.23926 26.7743 6.35095 26.9966 7.68498L28.0765 13.7675L22.5657 12.2906C22.4493 12.2588 22.3381 12.2429 22.2322 12.2429C21.5229 12.2429 21.1682 12.6029 21.1682 13.3228C21.1682 13.4181 21.1788 13.4869 21.1999 13.5293L25.2655 28.7912H5.73157Z" fill="black"/>
<path d="M20.1041 13.5928C20.0935 13.5293 20.0882 13.4393 20.0882 13.3228C20.0882 12.7299 20.2946 12.2217 20.7076 11.7982C21.1311 11.3747 21.6393 11.163 22.2322 11.163C22.338 11.163 22.5074 11.1736 22.7404 11.1947L26.6472 12.227L25.7896 7.25618C25.5355 6.33507 25.022 5.57806 24.2491 4.98516C23.4868 4.38167 22.6133 4.07993 21.6287 4.07993C19.8817 4.07993 18.6006 4.8634 17.7854 6.43036L17.2295 7.62145C17.166 7.76968 17.1343 7.91261 17.1343 8.05025C17.1343 8.25141 17.1978 8.45787 17.3248 8.66962C17.5578 9.06135 17.6742 9.46897 17.6742 9.89247C17.6742 10.4854 17.4625 10.9936 17.039 11.4171C16.6261 11.8406 16.1232 12.0523 15.5303 12.0523C14.9268 12.0523 14.4133 11.8406 13.9898 11.4171C13.5769 10.9936 13.3704 10.4854 13.3704 9.89247C13.3704 9.47956 13.4922 9.07194 13.7357 8.66962C13.8521 8.47904 13.9104 8.27258 13.9104 8.05025C13.9104 7.91261 13.8786 7.76968 13.8151 7.62145L13.2592 6.43036C12.4546 4.8634 11.1788 4.07993 9.43185 4.07993C8.43662 4.07993 7.55785 4.38167 6.79555 4.98516C6.03325 5.57806 5.52505 6.33507 5.27095 7.25618L4.41336 12.227L8.30427 11.2106C8.49484 11.1789 8.66425 11.163 8.81247 11.163C9.40537 11.163 9.91357 11.3747 10.3371 11.7982C10.7606 12.2217 10.9723 12.7299 10.9723 13.3228C10.9723 13.3758 10.9723 13.4234 10.9723 13.4658C10.9829 13.5081 10.9882 13.5505 10.9882 13.5928H20.1041ZM20.6599 15.7527L20.3582 14.6727H10.6706L10.4165 15.7527H20.6599ZM22.8039 23.868L20.9458 16.8326H10.1306L8.24075 23.868H22.8039ZM23.8203 27.6636L23.1215 24.9956H7.97077L7.25612 27.6636H23.8203Z" fill="white"/>
</svg>
