<svg width="256" height="256" viewBox="0 0 256 256" fill="none" xmlns="http://www.w3.org/2000/svg">
<path d="M214.989 148.389C220.317 133.257 215.841 119.376 214.989 116.86C209.958 102.05 197.625 89.8465 183.461 85.3313C168.393 80.5195 161.246 87.6276 145.753 91.2656C142.553 84.0285 139.367 76.7784 136.168 69.5542H151.945V53.7771H136.168V38H120.391V53.7771H104.613V69.5542H120.391C118.21 74.508 116.004 79.4617 113.824 84.4413L110.831 91.2785L105.039 104.489L106.845 93.8584L108.728 83.3574L105.774 89.9238C93.5704 86.1698 86.4492 81.0998 73.0975 85.3571C58.9327 89.8723 46.6002 102.076 41.5688 116.886C40.7174 119.401 36.2408 133.295 41.5688 148.415C45.5292 159.677 51.4763 161.844 65.2283 179.943C71.7561 188.548 74.1295 192.96 75.7937 196.108C65.2927 198.107 57.359 207.331 57.359 218.412V235.131H199.265V218.412C199.265 207.499 191.589 198.404 181.32 196.223H165.04L167.052 195.72L183.294 191.669L193.227 189.206H184.829C186.377 186.767 188.454 183.775 191.357 179.956C205.083 161.856 211.03 159.689 215.016 148.427L214.989 148.389ZM112.509 164.166H96.7319L80.9549 148.389C75.9753 139.436 76.2333 129.451 80.9549 124.729C85.0959 120.562 93.5457 119.621 101.596 123.452C105.517 125.323 109.323 128.316 112.484 132.611V164.14L112.509 164.166ZM175.58 148.389C170.33 153.639 165.08 158.89 159.803 164.166H144.026V132.637C147.187 128.328 150.993 125.336 154.914 123.478C162.938 119.646 171.414 120.614 175.555 124.755C180.277 129.477 180.56 139.436 175.58 148.389Z" fill="#071C21"/>
<path fill-rule="evenodd" clip-rule="evenodd" d="M210.113 147.282C210.156 147.096 210.209 146.911 210.273 146.728C215.019 133.25 211.024 120.74 210.255 118.468C205.715 105.104 194.539 94.1104 181.942 90.0951L181.94 90.0943C175.533 88.0483 171.014 88.5203 166.162 89.9309C164.149 90.5164 162.158 91.2383 159.87 92.0682C159.191 92.3145 158.485 92.5704 157.745 92.835C154.596 93.9612 151.039 95.1602 146.895 96.1332C144.554 96.6831 142.152 95.4874 141.179 93.2872C139.782 90.1256 138.391 86.9713 137.001 83.8202C135.201 79.7371 133.403 75.6595 131.596 71.5787C130.911 70.0322 131.054 68.2444 131.977 66.8268C132.9 65.4092 134.476 64.5542 136.168 64.5542H146.945V58.7771H136.168C133.406 58.7771 131.168 56.5385 131.168 53.7771V43H125.391V53.7771C125.391 56.5385 123.152 58.7771 120.391 58.7771H109.613V64.5542H120.391C122.08 64.5542 123.655 65.4072 124.578 66.822C125.501 68.2368 125.647 70.0221 124.967 71.5683C124.064 73.6203 123.163 75.658 122.263 77.6928C120.975 80.6058 119.689 83.5126 118.404 86.4463L115.412 93.2835L115.41 93.2863L109.618 106.496C108.604 108.809 106.025 110.003 103.605 109.279C101.186 108.555 99.6865 106.141 100.11 103.651L101.767 93.8926C99.7027 93.2096 97.8498 92.5423 96.1386 91.926C88.2514 89.0854 83.3734 87.3286 74.6164 90.1208C62.0207 94.1358 50.8448 105.128 46.3039 118.492C45.5375 120.757 41.5378 133.283 46.2845 146.753L46.2856 146.756C47.9703 151.547 49.9989 154.35 53.4828 158.315C54.2406 159.177 55.0689 160.095 55.9708 161.095C59.3187 164.806 63.68 169.641 69.2095 176.918L69.2117 176.921C75.928 185.775 78.4435 190.422 80.2139 193.771C80.9554 195.173 80.9873 196.844 80.2999 198.274C79.6125 199.704 78.2874 200.723 76.7289 201.019C68.5421 202.578 62.359 209.776 62.359 218.412V230.131H194.265V218.412C194.265 210.077 188.524 203.1 180.762 201.223H165.04C162.515 201.223 160.386 199.341 160.077 196.834C159.769 194.328 161.377 191.985 163.827 191.373L165.84 190.87L165.842 190.869L180.213 187.285C180.321 187.023 180.453 186.769 180.608 186.525C182.248 183.943 184.409 180.834 187.376 176.93C192.913 169.63 197.276 164.79 200.627 161.073C201.516 160.087 202.333 159.18 203.083 158.327C206.441 154.506 208.453 151.762 210.113 147.282ZM117.121 166.098C116.342 167.956 114.524 169.166 112.509 169.166H96.7319C95.4058 169.166 94.134 168.639 93.1964 167.701L77.4193 151.924C77.0914 151.596 76.8107 151.225 76.5853 150.819C73.7082 145.647 72.2777 140.068 72.3171 134.934C72.3559 129.874 73.8498 124.766 77.4157 121.197C83.5687 115.015 94.5371 114.555 103.744 118.937L103.748 118.939C108.414 121.165 112.863 124.691 116.511 129.648C117.143 130.507 117.484 131.545 117.484 132.611V163.662C117.566 164.475 117.45 165.312 117.121 166.098ZM179.95 150.819C179.725 151.224 179.444 151.596 179.116 151.924L163.339 167.701C162.401 168.639 161.129 169.166 159.803 169.166H144.026C141.265 169.166 139.026 166.927 139.026 164.166V132.637C139.026 131.573 139.365 130.537 139.995 129.68C143.641 124.708 148.093 121.178 152.768 118.962C161.973 114.57 172.952 115.081 179.091 121.22C182.653 124.782 184.159 129.879 184.205 134.939C184.253 140.069 182.828 145.644 179.95 150.819Z" fill="#C6DE41"/>
</svg>
