<svg width="256" height="256" viewBox="0 0 256 256" fill="none" xmlns="http://www.w3.org/2000/svg">
<path d="M133.538 148.601C131.358 154.566 127.815 158.047 123.812 161.153C122.675 162.036 121.528 162.872 120.367 163.718C117.397 165.883 114.333 168.117 111.097 171.371L111.095 171.373C107.963 174.517 103.795 179.525 100.759 184.72C99.2412 187.316 98.0531 189.881 97.3958 192.225C96.7323 194.591 96.6673 196.526 97.1311 198L98.1533 201.25H94.7463H93.882C83.6653 201.25 75.3928 209.523 75.3928 219.739V232.694H201.592V219.764H201.591C201.591 211.319 195.932 204.195 188.189 201.984H174.948L174.342 197.059L177.124 196.363L177.129 196.362L190.489 192.995L191.094 191.815C192.506 189.065 193.434 186.354 194.402 183.427C201.203 162.796 198.244 137.673 189.629 116.855C185.332 106.471 179.672 97.2706 173.241 90.3175C166.795 83.3485 159.704 78.7712 152.551 77.3311L152.55 77.3309C150.419 76.9013 148.175 76.7274 145.753 76.5931C145.296 76.5679 144.832 76.544 144.362 76.5197C142.384 76.4179 140.292 76.3101 138.211 76.0706C132.964 75.4666 127.447 73.9965 122.262 69.4784C119.053 66.689 116.737 63.3694 114.906 60.7444C114.547 60.2298 114.206 59.7418 113.881 59.2898C112.836 57.8351 112.008 56.8208 111.229 56.1836C110.52 55.6034 110.016 55.4674 109.521 55.5062L133.538 148.601ZM133.538 148.601C134.594 145.715 135.156 142.739 135.311 140.097L135.609 135.029L141.063 122.224L136.746 119.768L127.441 132.478C126.722 133.286 126.011 134.266 125.214 135.365C123.083 138.303 120.338 142.087 115.191 145.695L115.191 145.695C112.332 147.699 110.56 148.322 108.605 149.008L108.596 149.012C106.466 149.76 104.154 150.571 100.641 152.964C95.5408 156.438 93.0961 159.691 91.2505 162.327C91.1577 162.46 91.0673 162.589 90.979 162.716C89.3101 165.104 88.3957 166.413 86.409 167.345L86.4064 167.346C84.1088 168.427 80.9864 168.646 77.3681 167.964C73.7811 167.288 69.9264 165.764 66.3552 163.65C62.7836 161.536 59.5914 158.888 57.2789 156.042C54.9511 153.177 53.6433 150.276 53.511 147.618L53.5109 147.617C53.3475 144.344 54.935 142.767 59.2317 138.961C63.4277 135.244 69.2533 130.066 75.0551 119.833C78.8088 113.212 80.3955 108.302 81.6782 104.333C81.882 103.702 82.0782 103.095 82.2741 102.509C83.6511 98.3887 85.0186 95.2256 89.1803 91.27L89.1812 91.2691C91.4854 89.0767 93.6071 87.5959 95.6538 86.1673C96.5655 85.531 97.4623 84.9051 98.3538 84.2312C101.169 82.1029 103.659 79.6249 104.49 75.358L104.49 75.3573C105.062 72.4143 104.553 69.9143 104.154 67.9544C104.1 67.6923 104.049 67.4398 104.002 67.1973C103.605 65.1314 103.437 63.4466 104.344 61.2616L104.345 61.2592C104.806 60.1474 105.61 58.639 106.64 57.4217C107.712 56.1546 108.709 55.5708 109.521 55.5063L133.538 148.601Z" fill="#071C21" stroke="#071C21" stroke-width="5"/>
</svg>
