<svg width="256" height="256" viewBox="0 0 256 256" fill="none" xmlns="http://www.w3.org/2000/svg">
<path d="M204.092 219.739V235.194H72.8928V219.739C72.8928 208.142 82.2845 198.75 93.882 198.75H94.7463C92.0888 190.301 102.822 176.136 109.324 169.608C118.625 160.256 127.281 158.437 131.19 147.742C132.158 145.097 132.674 142.363 132.816 139.95L128.133 146.104L132.609 135.693L138.763 121.245L129.384 134.055C127.256 136.403 124.044 142.543 116.626 147.742C110.369 152.128 108.563 150.593 102.048 155.031C92.5406 161.507 93.0825 166.977 87.4705 169.608C75.7053 175.143 51.6845 161.21 51.014 147.742C50.5496 138.441 61.6828 138.35 72.8804 118.6C81.2915 103.764 78.3371 98.1271 87.458 89.458C94.3728 82.8787 100.72 81.6402 102.036 74.8803C103.106 69.3717 99.6619 66.0176 102.036 60.3026C103.093 57.7483 105.738 53.2977 109.324 53.014C114.562 52.6012 116.794 61.4123 123.902 67.5917C133.242 75.7317 143.768 73.0097 153.044 74.8803C184.379 81.1887 210.851 141.512 196.776 184.21C195.808 187.138 194.828 190.015 193.318 192.956H200.981L192.067 195.175L177.735 198.788L174.948 199.484H188.507C188.623 199.523 188.752 199.536 188.855 199.575C197.653 202.077 204.091 210.166 204.091 219.764L204.092 219.739Z" fill="#071C21"/>
<path fill-rule="evenodd" clip-rule="evenodd" d="M135.886 149.46C133.479 156.043 129.535 159.877 125.344 163.129C124.102 164.093 122.896 164.972 121.703 165.841C118.79 167.964 115.958 170.028 112.869 173.134L112.866 173.137C109.853 176.163 105.826 181.004 102.917 185.981C101.464 188.468 100.383 190.83 99.8028 192.9C99.21 195.014 99.2526 196.413 99.5159 197.25C99.9936 198.769 99.7193 200.425 98.7774 201.708C97.8354 202.992 96.3384 203.75 94.7462 203.75H93.8819C85.0458 203.75 77.8927 210.903 77.8927 219.739V230.194H199.092V219.875C199.091 219.838 199.091 219.801 199.091 219.764C199.091 212.583 194.358 206.5 187.826 204.484H174.948C172.423 204.484 170.294 202.601 169.986 200.095C169.677 197.589 171.286 195.246 173.736 194.634L176.513 193.939L188.786 190.846C188.812 190.788 188.841 190.731 188.87 190.674C190.184 188.113 191.061 185.568 192.028 182.641C198.591 162.728 195.772 138.24 187.319 117.811C183.112 107.646 177.599 98.7116 171.405 92.015C165.182 85.2865 158.53 81.085 152.057 79.7819L152.055 79.7816C150.113 79.3899 148.022 79.2228 145.614 79.0893C145.178 79.0652 144.728 79.042 144.266 79.0183C142.284 78.9164 140.093 78.8037 137.925 78.5542C132.388 77.9167 126.318 76.3303 120.617 71.361C117.152 68.3477 114.631 64.728 112.81 62.1122C112.466 61.6183 112.147 61.1603 111.851 60.7488C110.811 59.3012 110.147 58.5284 109.646 58.1186C109.627 58.1034 109.61 58.0895 109.594 58.0768C109.403 58.1885 109.047 58.4477 108.549 59.0366C107.73 60.0037 107.047 61.2693 106.655 62.2158L106.653 62.2205C106.025 63.733 106.094 64.8354 106.457 66.7257C106.499 66.941 106.547 67.1755 106.599 67.428C106.999 69.3686 107.618 72.3665 106.944 75.8343L106.943 75.8357C105.94 80.9896 102.877 83.9461 99.8612 86.2256C98.8352 87.0011 97.8707 87.6733 96.9268 88.3312C94.9541 89.7062 93.0713 91.0185 90.9044 93.0803L90.9025 93.0821C87.1396 96.6586 85.9462 99.4082 84.6451 103.301C84.4547 103.871 84.2623 104.467 84.0607 105.091C82.7745 109.075 81.1155 114.213 77.2298 121.066C71.2248 131.658 65.1564 137.052 60.8893 140.832C56.4209 144.79 55.9131 145.597 56.0077 147.493C56.1047 149.442 57.0934 151.85 59.219 154.466C61.3139 157.044 64.2653 159.507 67.6286 161.498C70.9912 163.489 74.5739 164.893 77.8311 165.507C81.1508 166.133 83.6883 165.862 85.3421 165.084L85.3475 165.081C86.7215 164.437 87.2608 163.667 89.1868 160.916L89.2024 160.893C91.1391 158.127 93.787 154.608 99.2333 150.898C103.013 148.324 105.56 147.428 107.777 146.649L107.799 146.642C109.651 145.991 111.177 145.455 113.756 143.648C118.547 140.29 120.884 137.057 122.945 134.205C123.791 133.035 124.59 131.929 125.493 130.905L134.728 118.291C136.229 116.242 139.028 115.643 141.235 116.899C143.443 118.155 144.358 120.867 143.363 123.204L137.23 137.603C137.652 138.394 137.862 139.303 137.807 140.244C137.638 143.115 137.03 146.332 135.886 149.46Z" fill="#C6DE41"/>
</svg>
