<svg width="256" height="256" viewBox="0 0 256 256" fill="none" xmlns="http://www.w3.org/2000/svg">
<path d="M202 217.235V234.667H54V217.235C54 205.675 62.2828 196.05 73.2377 193.974C74.6765 193.697 76.1613 193.556 77.6791 193.556H78.6665C84.2182 190.344 95.3238 182.887 103.333 168.889C107.277 161.994 109.393 155.396 110.549 150.072L100.035 150.053L113.506 146.709L123.459 144.222H95.1091C93.4298 143.501 91.7486 142.778 90.071 142.057L85.6534 131.476L106.438 119.726C99.4973 113.699 95.1089 104.805 95.1089 94.8889C95.1089 89.0032 96.6543 83.4769 99.3632 78.6996C105.012 68.7281 115.718 62 127.998 62C128.293 62 128.585 62.0018 128.879 62.011C128.891 62.0128 128.908 62.0128 128.923 62.0128C140.171 62.323 150.009 68.2805 155.7 77.1525C158.983 82.2696 160.886 88.3592 160.886 94.8891C160.886 104.47 156.792 113.092 150.256 119.1L172.15 131.48L167.769 141.97C165.475 142.721 163.181 143.474 160.887 144.222H144.442C145.178 150.035 147.102 159.164 152.665 168.889C157.537 177.409 163.561 183.502 168.777 187.693L176.015 187.712L170.543 189.064C170.543 189.064 170.555 189.075 170.563 189.081L152.663 193.557H178.317C179.835 193.557 181.32 193.699 182.758 193.976C193.715 196.052 201.996 205.676 201.996 217.237L202 217.235Z" fill="#071C21"/>
</svg>
