<svg width="180" height="180" viewBox="0 0 180 180" fill="none" xmlns="http://www.w3.org/2000/svg">
<path fill-rule="evenodd" clip-rule="evenodd" d="M77.4026 18.207C77.0552 42.1425 78.2775 33.1038 63.1737 22.0536C65.5047 37.6677 63.9216 38.1816 59.8869 44.8641C57.6783 48.5208 55.7315 60.0345 54.35 62.5725C45.9764 77.9508 26.7471 98.0271 26.7795 104.572C26.8218 112.856 36.675 120.272 45.6885 111.511C37.2555 123.856 62.7147 111.456 73.3842 103.842C87.5061 112.536 107.237 103.023 107.603 89.0532C114.03 120.65 54.017 126.138 50.8112 167.122C95.5385 177.332 120.451 144.067 147.712 169.79C161.649 129.384 162.936 61.839 98.1476 36.5148C89.342 33.0732 85.6421 24.219 77.4026 18.2061V18.207ZM77.1327 62.7795C75.6675 64.8567 72.5876 68.2479 69.8867 67.7511C67.3883 67.2921 66.384 66.4461 66.2688 63.4869C66.1716 60.9966 74.997 61.0767 77.1318 62.7795H77.1327Z" fill="url(#paint0_linear_1_101)" stroke="black" stroke-width="3.2913" stroke-linecap="round" stroke-linejoin="round"/>
<defs>
<linearGradient id="paint0_linear_1_101" x1="34.0821" y1="52.695" x2="152.879" y2="169.952" gradientUnits="userSpaceOnUse">
<stop stop-color="#583D72"/>
<stop offset="1" stop-color="#9F5F80"/>
</linearGradient>
</defs>
</svg>
