<svg width="512" height="512" viewBox="0 0 512 512" fill="none" xmlns="http://www.w3.org/2000/svg">
<mask id="path-1-outside-1_708_3" maskUnits="userSpaceOnUse" x="40" y="21" width="431" height="471" fill="black">
<rect fill="white" x="40" y="21" width="431" height="471"/>
<path d="M246.005 34.0002C246.005 29.5818 249.586 26 254.005 26H258.005C262.423 26 266.005 29.5818 266.005 34.0002V74.0011H288.006C292.424 74.0011 296.006 77.5829 296.006 82.0013V86.0014C296.006 90.4198 292.424 94.0016 288.006 94.0016H266.005V107.702C288.619 111.375 307.267 126.867 315.405 147.633C369.74 124.044 429.533 137.053 454.419 180.157C476.201 217.885 464.645 267.244 429.508 302.614C432.12 310.146 428.597 318.563 424.566 324.43C423.167 326.467 423.794 329.398 425.885 330.714C433.795 335.694 438.47 342.895 440.761 351.331C441.157 351.433 441.539 351.533 441.908 351.631C445.416 352.568 447.472 355.748 447.375 359.379C446.986 374.015 445.129 396.142 440.02 408.954C438.552 412.634 434.623 414.06 430.783 413.38C425.525 425.288 419.347 435.666 414.123 442.337C413.79 442.761 413.383 443.082 412.933 443.299C404.105 468.187 380.354 486.011 352.44 486.011C337.266 486.011 323.322 480.744 312.336 471.938C303.861 477.414 286.388 483.811 256.861 483.811H254.661C224.976 483.811 207.474 477.345 199.05 471.85C188.048 480.708 174.061 486.011 158.836 486.011C130.856 486.011 107.059 468.103 98.2809 443.123C97.9475 442.917 97.6442 442.65 97.3867 442.321C92.1617 435.646 85.984 425.265 80.728 413.356C76.8466 414.092 72.8439 412.676 71.3593 408.954C66.25 396.142 64.3935 374.015 64.0037 359.379C63.907 355.748 65.963 352.568 69.4716 351.631C69.8869 351.52 70.3205 351.407 70.7717 351.292C73.0676 342.869 77.7436 335.679 85.6476 330.707C87.7388 329.392 88.3546 326.467 86.9557 324.43C82.9332 318.575 79.416 310.181 81.9976 302.66C46.8249 267.287 35.2495 217.901 57.041 180.157C81.9032 137.095 141.605 124.07 195.899 147.565C204.139 126.609 223.086 111.038 246.005 107.587V94.0016H224.004C219.586 94.0016 216.004 90.4198 216.004 86.0014V82.0013C216.004 77.5829 219.586 74.0011 224.004 74.0011H246.005V34.0002Z"/>
</mask>
<path d="M246.005 34.0002C246.005 29.5818 249.586 26 254.005 26H258.005C262.423 26 266.005 29.5818 266.005 34.0002V74.0011H288.006C292.424 74.0011 296.006 77.5829 296.006 82.0013V86.0014C296.006 90.4198 292.424 94.0016 288.006 94.0016H266.005V107.702C288.619 111.375 307.267 126.867 315.405 147.633C369.74 124.044 429.533 137.053 454.419 180.157C476.201 217.885 464.645 267.244 429.508 302.614C432.12 310.146 428.597 318.563 424.566 324.43C423.167 326.467 423.794 329.398 425.885 330.714C433.795 335.694 438.47 342.895 440.761 351.331C441.157 351.433 441.539 351.533 441.908 351.631C445.416 352.568 447.472 355.748 447.375 359.379C446.986 374.015 445.129 396.142 440.02 408.954C438.552 412.634 434.623 414.06 430.783 413.38C425.525 425.288 419.347 435.666 414.123 442.337C413.79 442.761 413.383 443.082 412.933 443.299C404.105 468.187 380.354 486.011 352.44 486.011C337.266 486.011 323.322 480.744 312.336 471.938C303.861 477.414 286.388 483.811 256.861 483.811H254.661C224.976 483.811 207.474 477.345 199.05 471.85C188.048 480.708 174.061 486.011 158.836 486.011C130.856 486.011 107.059 468.103 98.2809 443.123C97.9475 442.917 97.6442 442.65 97.3867 442.321C92.1617 435.646 85.984 425.265 80.728 413.356C76.8466 414.092 72.8439 412.676 71.3593 408.954C66.25 396.142 64.3935 374.015 64.0037 359.379C63.907 355.748 65.963 352.568 69.4716 351.631C69.8869 351.52 70.3205 351.407 70.7717 351.292C73.0676 342.869 77.7436 335.679 85.6476 330.707C87.7388 329.392 88.3546 326.467 86.9557 324.43C82.9332 318.575 79.416 310.181 81.9976 302.66C46.8249 267.287 35.2495 217.901 57.041 180.157C81.9032 137.095 141.605 124.07 195.899 147.565C204.139 126.609 223.086 111.038 246.005 107.587V94.0016H224.004C219.586 94.0016 216.004 90.4198 216.004 86.0014V82.0013C216.004 77.5829 219.586 74.0011 224.004 74.0011H246.005V34.0002Z" fill="#240E22"/>
<path d="M266.005 74.0011H261.005V79.0011H266.005V74.0011ZM266.005 94.0016V89.0016H261.005V94.0016H266.005ZM266.005 107.702H261.005V111.955L265.203 112.637L266.005 107.702ZM315.405 147.633L310.749 149.457L312.641 154.284L317.396 152.219L315.405 147.633ZM454.419 180.157L458.749 177.657L458.749 177.657L454.419 180.157ZM429.508 302.614L425.961 299.091L423.762 301.304L424.784 304.252L429.508 302.614ZM424.566 324.43L420.445 321.599L420.445 321.599L424.566 324.43ZM425.885 330.714L423.221 334.945L423.221 334.945L425.885 330.714ZM440.761 351.331L435.935 352.642L436.699 355.453L439.521 356.175L440.761 351.331ZM441.908 351.631L440.617 356.461L440.617 356.461L441.908 351.631ZM447.375 359.379L452.374 359.512L452.374 359.512L447.375 359.379ZM440.02 408.954L435.376 407.101L435.376 407.102L440.02 408.954ZM430.783 413.38L431.654 408.456L427.793 407.773L426.209 411.36L430.783 413.38ZM414.123 442.337L418.059 445.42L418.059 445.42L414.123 442.337ZM412.933 443.299L410.753 438.8L408.907 439.694L408.221 441.628L412.933 443.299ZM312.336 471.938L315.463 468.036L312.651 465.782L309.623 467.738L312.336 471.938ZM199.05 471.85L201.782 467.662L198.741 465.678L195.914 467.955L199.05 471.85ZM98.2809 443.123L102.998 441.466L102.412 439.798L100.908 438.869L98.2809 443.123ZM97.3867 442.321L101.324 439.239L101.324 439.239L97.3867 442.321ZM80.728 413.356L85.3024 411.337L83.6986 407.703L79.7963 408.443L80.728 413.356ZM71.3593 408.954L76.0036 407.101L76.0036 407.101L71.3593 408.954ZM64.0037 359.379L69.002 359.245L69.002 359.245L64.0037 359.379ZM69.4716 351.631L68.1812 346.8L68.181 346.8L69.4716 351.631ZM70.7717 351.292L72.0052 356.138L74.8294 355.419L75.5957 352.607L70.7717 351.292ZM85.6476 330.707L82.9854 326.475L82.9853 326.475L85.6476 330.707ZM86.9557 324.43L91.0768 321.599L91.0768 321.599L86.9557 324.43ZM81.9976 302.66L86.7267 304.284L87.7369 301.341L85.5432 299.135L81.9976 302.66ZM57.041 180.157L52.7109 177.657L52.7109 177.657L57.041 180.157ZM195.899 147.565L193.913 152.154L198.659 154.208L200.552 149.395L195.899 147.565ZM246.005 107.587L246.749 112.531L251.005 111.891V107.587H246.005ZM246.005 94.0016H251.005V89.0016H246.005V94.0016ZM246.005 74.0011V79.0011H251.005V74.0011H246.005ZM254.005 21C246.825 21 241.005 26.8204 241.005 34.0002H251.005C251.005 32.3432 252.348 31 254.005 31V21ZM258.005 21H254.005V31H258.005V21ZM271.005 34.0002C271.005 26.8204 265.185 21 258.005 21V31C259.662 31 261.005 32.3432 261.005 34.0002H271.005ZM271.005 74.0011V34.0002H261.005V74.0011H271.005ZM288.006 69.0011H266.005V79.0011H288.006V69.0011ZM301.006 82.0013C301.006 74.8215 295.185 69.0011 288.006 69.0011V79.0011C289.663 79.0011 291.006 80.3443 291.006 82.0013H301.006ZM301.006 86.0014V82.0013H291.006V86.0014H301.006ZM288.006 99.0016C295.185 99.0016 301.006 93.1812 301.006 86.0014H291.006C291.006 87.6584 289.663 89.0016 288.006 89.0016V99.0016ZM266.005 99.0016H288.006V89.0016H266.005V99.0016ZM271.005 107.702V94.0016H261.005V107.702H271.005ZM320.06 145.809C311.29 123.429 291.197 106.728 266.807 102.766L265.203 112.637C286.04 116.022 303.244 130.305 310.749 149.457L320.06 145.809ZM458.749 177.657C432.196 131.667 369.274 118.796 313.414 143.046L317.396 152.219C370.207 129.293 426.869 142.44 450.089 182.657L458.749 177.657ZM433.055 306.138C469.286 269.666 481.977 217.889 458.749 177.657L450.089 182.657C470.425 217.881 460.004 264.821 425.961 299.091L433.055 306.138ZM428.687 327.262C432.951 321.055 437.657 310.852 434.232 300.976L424.784 304.252C426.583 309.441 424.242 316.072 420.445 321.599L428.687 327.262ZM428.549 326.483C428.745 326.606 428.797 326.754 428.809 326.809C428.821 326.867 428.835 327.047 428.687 327.262L420.445 321.599C417.412 326.013 418.765 332.14 423.221 334.945L428.549 326.483ZM445.586 350.021C443.013 340.549 437.663 332.221 428.549 326.483L423.221 334.945C429.926 339.166 433.926 345.242 435.935 352.642L445.586 350.021ZM443.198 346.8C442.812 346.697 442.412 346.593 442 346.487L439.521 356.175C439.902 356.273 440.267 356.368 440.617 356.461L443.198 346.8ZM452.374 359.512C452.523 353.903 449.251 348.418 443.198 346.8L440.617 356.461C441.581 356.719 442.421 357.593 442.377 359.245L452.374 359.512ZM444.664 410.806C447.455 403.808 449.259 394.575 450.427 385.488C451.605 376.32 452.175 366.955 452.374 359.512L442.377 359.245C442.186 366.438 441.633 375.456 440.508 384.213C439.373 393.052 437.694 401.288 435.376 407.101L444.664 410.806ZM429.911 418.303C435.284 419.254 442.048 417.365 444.664 410.806L435.376 407.102C435.164 407.633 434.813 407.987 434.26 408.233C433.644 408.507 432.73 408.647 431.654 408.456L429.911 418.303ZM418.059 445.42C423.594 438.352 429.972 427.596 435.357 415.399L426.209 411.36C421.079 422.98 415.1 432.98 410.186 439.254L418.059 445.42ZM415.114 447.799C416.237 447.255 417.249 446.454 418.059 445.42L410.186 439.254C410.332 439.068 410.529 438.908 410.753 438.8L415.114 447.799ZM408.221 441.628C400.079 464.583 378.172 481.011 352.44 481.011V491.011C382.537 491.011 408.132 471.791 417.646 444.971L408.221 441.628ZM352.44 481.011C338.443 481.011 325.594 476.157 315.463 468.036L309.209 475.839C321.049 485.33 336.088 491.011 352.44 491.011V481.011ZM256.861 488.811C287.042 488.811 305.541 482.281 315.05 476.137L309.623 467.738C302.18 472.547 285.733 478.811 256.861 478.811V488.811ZM254.661 488.811H256.861V478.811H254.661V488.811ZM196.318 476.037C205.783 482.212 224.319 488.811 254.661 488.811V478.811C225.632 478.811 209.165 472.479 201.782 467.662L196.318 476.037ZM158.836 491.011C175.243 491.011 190.327 485.292 202.186 475.744L195.914 467.955C185.768 476.124 172.88 481.011 158.836 481.011V491.011ZM93.5637 444.781C103.024 471.7 128.668 491.011 158.836 491.011V481.011C133.044 481.011 111.095 464.505 102.998 441.466L93.5637 444.781ZM93.4494 445.403C94.075 446.202 94.8237 446.865 95.6543 447.378L100.908 438.869C101.071 438.97 101.213 439.098 101.324 439.239L93.4494 445.403ZM76.1537 415.374C81.537 427.572 87.9141 438.331 93.4494 445.403L101.324 439.239C96.4093 432.96 90.4309 422.957 85.3024 411.337L76.1537 415.374ZM66.715 410.806C69.3626 417.445 76.2461 419.295 81.6598 418.268L79.7963 408.443C78.7059 408.65 77.7714 408.517 77.1396 408.242C76.5732 407.995 76.2171 407.637 76.0036 407.101L66.715 410.806ZM59.0055 359.512C59.2037 366.955 59.7746 376.32 60.9525 385.488C62.12 394.575 63.9242 403.808 66.715 410.806L76.0036 407.101C73.6851 401.288 72.0064 393.052 70.8709 384.213C69.7458 375.456 69.1935 366.438 69.002 359.245L59.0055 359.512ZM68.181 346.8C62.1282 348.418 58.8561 353.903 59.0055 359.512L69.002 359.245C68.9579 357.593 69.7977 356.719 70.7623 356.461L68.181 346.8ZM69.5382 346.447C69.0697 346.566 68.617 346.684 68.1812 346.8L70.7621 356.461C71.1567 356.356 71.5713 356.248 72.0052 356.138L69.5382 346.447ZM82.9853 326.475C73.8778 332.204 68.526 340.519 65.9477 349.977L75.5957 352.607C77.6093 345.22 81.6093 339.154 88.3099 334.939L82.9853 326.475ZM82.8346 327.262C82.6925 327.055 82.703 326.879 82.7163 326.816C82.7292 326.754 82.7858 326.6 82.9854 326.475L88.3099 334.939C92.7858 332.124 94.0976 325.996 91.0768 321.599L82.8346 327.262ZM77.2685 301.037C73.8848 310.894 78.5781 321.066 82.8346 327.262L91.0768 321.599C87.2882 316.085 84.9472 309.468 86.7267 304.284L77.2685 301.037ZM52.7109 177.657C29.4729 217.907 42.1848 269.711 78.452 306.186L85.5432 299.135C51.4651 264.862 41.0261 217.896 61.3712 182.657L52.7109 177.657ZM197.884 142.976C142.066 118.821 79.2378 131.711 52.7109 177.657L61.3712 182.657C84.5685 142.478 141.143 129.318 193.913 152.154L197.884 142.976ZM245.26 102.643C220.541 106.364 200.126 123.151 191.245 145.735L200.552 149.395C208.152 130.067 225.632 115.711 246.749 112.531L245.26 102.643ZM241.005 94.0016V107.587H251.005V94.0016H241.005ZM224.004 99.0016H246.005V89.0016H224.004V99.0016ZM211.004 86.0014C211.004 93.1812 216.824 99.0016 224.004 99.0016V89.0016C222.347 89.0016 221.004 87.6584 221.004 86.0014H211.004ZM211.004 82.0013V86.0014H221.004V82.0013H211.004ZM224.004 69.0011C216.824 69.0011 211.004 74.8215 211.004 82.0013H221.004C221.004 80.3444 222.347 79.0011 224.004 79.0011V69.0011ZM246.005 69.0011H224.004V79.0011H246.005V69.0011ZM241.005 34.0002V74.0011H251.005V34.0002H241.005Z" fill="#CE4014" mask="url(#path-1-outside-1_708_3)"/>
<path d="M419.745 217.898C421.089 223.714 430.683 226.454 430.945 220.491C431.372 210.742 429.323 201.306 424.491 192.897C414.528 175.559 394.889 166.335 372.304 166.009C369.875 165.974 369.912 169.941 372.265 170.545C389.299 174.912 404.091 185.25 413.038 200.82C416.165 206.261 418.384 212.003 419.745 217.898Z" fill="#FF501A"/>
<path d="M255.897 198.004C265.744 184.38 278.659 172.018 294.222 162.019C297.754 159.75 302.373 160.453 305.248 163.513C306.844 165.212 306.436 167.956 304.46 169.194C279.66 184.73 262.689 207.389 255.897 231.005C249.105 207.389 232.135 184.73 207.335 169.194C205.359 167.956 204.95 165.212 206.547 163.513C209.421 160.453 214.04 159.75 217.572 162.019C233.136 172.018 246.051 184.38 255.897 198.004Z" fill="#FF501A"/>
<path d="M255.639 285.806C248.102 285.998 239.778 286.296 231.026 286.711C228.209 286.845 226.038 289.236 226.162 292.053L226.343 296.165C226.524 300.257 230.02 303.402 234.111 303.21C241.45 302.865 248.668 302.673 255.639 302.673C262.609 302.673 270.194 302.865 277.533 303.21C281.624 303.402 285.12 300.257 285.301 296.165L285.482 292.053C285.606 289.236 283.434 286.845 280.618 286.711C271.866 286.296 263.175 285.998 255.639 285.806Z" fill="#FFD9B7"/>
<path d="M163.555 302.409L163.021 297.265C162.733 294.487 164.718 291.987 167.492 291.664C178.176 290.419 189.468 289.388 200.72 288.549C203.115 288.37 205.204 290.155 205.412 292.548L205.935 298.569C206.249 302.194 203.571 305.387 199.95 305.741C190.365 306.679 180.906 307.775 171.848 308.946C167.738 309.478 163.982 306.531 163.555 302.409Z" fill="#FFD9B7"/>
<path d="M106.223 314.783C100.162 306.863 113.801 300.859 136.071 296.417C140.404 295.552 144.555 298.47 145.347 302.816L146.157 307.264C146.675 310.107 144.743 312.816 141.889 313.271C132.206 314.815 123.662 316.322 116.801 317.629C112.956 318.362 108.602 317.89 106.223 314.783Z" fill="#FFD9B7"/>
<path d="M348.622 297.265L348.089 302.409C347.662 306.531 343.906 309.478 339.796 308.946C330.738 307.775 321.278 306.679 311.694 305.741C308.073 305.387 305.395 302.194 305.709 298.569L306.232 292.548C306.44 290.155 308.528 288.37 310.924 288.549C322.176 289.388 333.468 290.419 344.152 291.664C346.926 291.987 348.911 294.487 348.622 297.265Z" fill="#FFD9B7"/>
<path d="M405.421 314.783C411.482 306.863 397.843 300.859 375.572 296.417C371.24 295.552 367.089 298.47 366.297 302.816L365.487 307.264C364.969 310.107 366.9 312.816 369.754 313.271C379.438 314.815 387.982 316.322 394.843 317.629C398.687 318.362 403.042 317.89 405.421 314.783Z" fill="#FFD9B7"/>
<path d="M210.16 453.344C182.712 399.544 134.984 405.459 111.587 416.328C109.867 417.127 107.808 416.61 106.846 414.976C106.149 413.792 105.391 412.535 104.594 411.213C103.907 410.072 103.19 408.883 102.457 407.651C117.158 404.274 134.313 401.109 149.253 398.92C160.114 397.328 168.201 387.689 167.304 376.749L165.607 356.05C164.686 344.805 154.668 336.585 143.503 338.213C129.499 340.256 112.954 342.945 98.5373 345.57C102.692 341.147 108.37 336.948 115.935 333.107C128.891 328.34 174.97 318.807 255.639 318.807C336.307 318.807 382.753 328.34 395.709 333.107C403.244 336.934 408.886 341.145 413.002 345.6C398.548 342.965 381.932 340.263 367.876 338.213C356.711 336.585 346.693 344.805 345.771 356.05L344.075 376.749C343.178 387.689 351.265 397.328 362.125 398.92C377.135 401.12 394.38 404.304 409.126 407.698C408.274 409.149 407.442 410.54 406.651 411.862L406.65 411.864L406.649 411.866C406 412.951 405.379 413.989 404.798 414.976C403.836 416.61 401.777 417.127 400.057 416.328C376.66 405.459 328.932 399.544 301.484 453.344C300.759 454.765 299.616 455.98 298.15 456.61C290.949 459.7 275.02 464.377 255.639 464.377C236.257 464.377 220.695 459.7 213.494 456.61C212.027 455.98 210.885 454.765 210.16 453.344Z" fill="#FFD9B7"/>
<path d="M88.4775 393.075C85.3142 386.291 84.1647 374.573 83.9234 366.822C83.8635 364.9 85.1364 363.216 87.3088 362.72C95.8977 360.757 117.186 357.605 133.145 355.614C140.057 354.752 146.26 359.105 146.83 365.06L147.881 376.021C148.436 381.814 143.429 386.919 136.705 387.762C122.588 389.532 105.277 392.504 95.048 395.241C92.4254 395.943 89.4955 395.258 88.4775 393.075Z" fill="#FFD9B7"/>
<path d="M422.901 393.075C426.064 386.291 427.214 374.573 427.455 366.822C427.515 364.9 426.242 363.216 424.07 362.72C415.481 360.757 394.192 357.605 378.234 355.614C371.321 354.752 365.119 359.105 364.548 365.06L363.498 376.021C362.943 381.814 367.949 386.919 374.674 387.762C388.791 389.532 406.101 392.504 416.331 395.241C418.953 395.943 421.883 395.258 422.901 393.075Z" fill="#FFD9B7"/>
</svg>
