<svg width="512" height="512" viewBox="0 0 512 512" fill="none" xmlns="http://www.w3.org/2000/svg">
<path d="M254.005 23.5C248.206 23.5 243.505 28.2011 243.505 34.0002V71.5011H224.004C218.205 71.5011 213.504 76.2022 213.504 82.0013V86.0014C213.504 91.8005 218.205 96.5016 224.004 96.5016H243.505V105.47C221.507 109.516 203.298 124.352 194.556 144.283C140.113 121.817 80.2077 135.031 54.876 178.907C32.5812 217.523 44.2708 267.511 79.1843 303.366C77.1267 311.603 80.9957 320.17 84.8951 325.846C85.4832 326.702 85.2153 328.026 84.3165 328.591C76.2588 333.66 71.3348 340.884 68.7665 349.232C64.0234 350.529 61.3821 354.845 61.5046 359.445C61.7012 366.826 62.2674 376.104 63.4321 385.169C64.5916 394.194 66.3644 403.178 69.0372 409.88C70.8112 414.328 75.0749 416.161 79.1869 416.032C84.3408 427.391 90.2874 437.307 95.4181 443.862L97.3868 442.321L95.4181 443.862C95.6495 444.158 95.904 444.426 96.1777 444.666C105.496 470.242 130.029 488.511 158.836 488.511C174.012 488.511 188.009 483.437 199.215 474.895C208.613 480.466 226.271 486.311 254.661 486.311H256.861C285.114 486.311 302.737 480.523 312.168 474.977C323.356 483.47 337.313 488.511 352.44 488.511C381.137 488.511 405.593 470.381 414.992 444.958C415.395 444.654 415.766 444.294 416.091 443.878C421.224 437.324 427.175 427.402 432.333 416.036C436.399 416.119 440.589 414.276 442.342 409.88C445.015 403.178 446.788 394.194 447.947 385.169C449.112 376.104 449.678 366.826 449.875 359.445C449.996 354.896 447.414 350.624 442.769 349.276C440.206 340.914 435.282 333.676 427.217 328.598C426.309 328.027 426.044 326.693 426.626 325.846C430.533 320.16 434.411 311.568 432.325 303.315C467.2 267.464 478.868 217.505 456.584 178.907C431.228 134.99 371.234 121.792 316.749 144.348C308.115 124.606 290.197 109.852 268.505 105.61V96.5016H288.006C293.805 96.5016 298.506 91.8005 298.506 86.0014V82.0013C298.506 76.2022 293.805 71.5011 288.006 71.5011H268.505V34.0002C268.505 28.2011 263.804 23.5 258.005 23.5H254.005Z" fill="#13120F" stroke="#3A8F52" stroke-width="5"/>
<path d="M255.639 285.806C248.102 285.998 239.778 286.296 231.026 286.711C228.21 286.845 226.038 289.236 226.162 292.053L226.344 296.165C226.524 300.257 230.02 303.402 234.111 303.21C241.45 302.865 248.668 302.673 255.639 302.673C262.61 302.673 270.195 302.865 277.533 303.21C281.624 303.402 285.121 300.257 285.301 296.165L285.482 292.053C285.606 289.236 283.435 286.845 280.618 286.711C271.866 286.296 263.175 285.998 255.639 285.806Z" fill="#EEE5C3"/>
<path d="M163.555 302.409L163.022 297.265C162.734 294.488 164.719 291.987 167.492 291.664C178.176 290.419 189.468 289.388 200.72 288.549C203.116 288.37 205.204 290.155 205.412 292.548L205.935 298.569C206.25 302.194 203.571 305.387 199.95 305.741C190.366 306.679 180.906 307.775 171.848 308.946C167.738 309.478 163.983 306.531 163.555 302.409Z" fill="#EEE5C3"/>
<path d="M106.224 314.783C100.162 306.863 113.801 300.859 136.072 296.417C140.405 295.552 144.555 298.47 145.347 302.816L146.157 307.264C146.675 310.107 144.744 312.816 141.89 313.271C132.206 314.815 123.662 316.322 116.801 317.63C112.957 318.362 108.602 317.89 106.224 314.783Z" fill="#EEE5C3"/>
<path d="M348.623 297.265L348.089 302.409C347.662 306.531 343.907 309.478 339.797 308.946C330.738 307.775 321.279 306.679 311.694 305.741C308.073 305.387 305.395 302.194 305.709 298.569L306.232 292.548C306.44 290.155 308.529 288.37 310.924 288.549C322.176 289.388 333.468 290.419 344.152 291.664C346.926 291.987 348.911 294.488 348.623 297.265Z" fill="#EEE5C3"/>
<path d="M405.421 314.783C411.483 306.863 397.843 300.859 375.573 296.417C371.24 295.552 367.089 298.47 366.297 302.816L365.487 307.264C364.969 310.107 366.901 312.816 369.755 313.271C379.438 314.815 387.982 316.322 394.843 317.63C398.688 318.362 403.042 317.89 405.421 314.783Z" fill="#EEE5C3"/>
<path d="M210.16 453.344C182.712 399.544 134.984 405.459 111.587 416.328C109.868 417.127 107.809 416.61 106.847 414.976C106.149 413.792 105.391 412.535 104.595 411.213C103.907 410.072 103.19 408.883 102.458 407.651C117.158 404.274 134.313 401.11 149.254 398.92C160.114 397.328 168.201 387.689 167.304 376.749L165.608 356.05C164.686 344.805 154.668 336.585 143.503 338.213C129.499 340.256 112.954 342.945 98.5376 345.571C102.692 341.147 108.37 336.948 115.936 333.107C128.892 328.34 174.97 318.807 255.639 318.807C336.307 318.807 382.753 328.34 395.709 333.107C403.244 336.934 408.886 341.145 413.002 345.6C398.548 342.965 381.932 340.263 367.876 338.213C356.711 336.585 346.693 344.805 345.771 356.05L344.075 376.749C343.178 387.689 351.265 397.328 362.126 398.92C377.136 401.12 394.38 404.304 409.126 407.698C408.274 409.149 407.442 410.54 406.652 411.862L406.65 411.864L406.649 411.866C406 412.951 405.379 413.989 404.798 414.976C403.836 416.61 401.777 417.127 400.057 416.328C376.66 405.459 328.932 399.544 301.484 453.344C300.759 454.765 299.617 455.98 298.15 456.61C290.949 459.7 275.021 464.377 255.639 464.377C236.257 464.377 220.695 459.7 213.494 456.61C212.028 455.98 210.886 454.765 210.16 453.344Z" fill="#EEE5C3"/>
<path d="M88.4778 393.075C85.3144 386.291 84.165 374.573 83.9237 366.822C83.8638 364.9 85.1367 363.216 87.3091 362.72C95.8979 360.757 117.187 357.605 133.145 355.614C140.057 354.752 146.26 359.105 146.831 365.06L147.881 376.021C148.436 381.814 143.429 386.919 136.705 387.762C122.588 389.532 105.278 392.504 95.0483 395.241C92.4257 395.943 89.4957 395.258 88.4778 393.075Z" fill="#EEE5C3"/>
<path d="M422.901 393.075C426.065 386.291 427.214 374.573 427.455 366.822C427.515 364.9 426.242 363.216 424.07 362.72C415.481 360.757 394.192 357.605 378.234 355.614C371.322 354.752 365.119 359.105 364.548 365.06L363.498 376.021C362.943 381.814 367.95 386.919 374.674 387.762C388.791 389.532 406.102 392.504 416.331 395.241C418.953 395.943 421.883 395.258 422.901 393.075Z" fill="#EEE5C3"/>
<path d="M297.85 156.679C280.583 167.063 266.366 180.307 255.73 195.024C244.882 180.013 230.309 166.535 212.573 156.062C218.767 138.549 235.471 126.002 255.105 126.002C274.969 126.002 291.834 138.845 297.85 156.679Z" fill="#B2C698"/>
<path fill-rule="evenodd" clip-rule="evenodd" d="M256 269.672C326.85 269.672 395.207 279.402 418.589 291.48C446.48 262.03 455.328 221.845 437.5 190.967C414.697 151.471 356.885 142.158 308.373 170.166C281.444 185.714 263.041 209.494 255.897 234.331C248.754 209.494 230.351 185.714 203.422 170.166C154.91 142.158 97.0975 151.471 74.2943 190.967C56.486 221.812 65.296 261.944 93.1164 291.386C116.667 279.351 185.334 269.672 256 269.672ZM425.532 244.331C424.557 250.218 415.208 247.075 414.529 241.147C413.388 231.178 410.286 221.425 405.06 212.374C393.692 192.684 374.421 180.035 352.432 175.488C350.051 174.995 349.942 171.091 352.372 171.032C381.026 170.329 406.245 181.331 418.732 202.959C425.917 215.404 427.948 229.74 425.532 244.331Z" fill="#B2C698"/>
<path d="M323.33 458.192C345.893 425.573 375.965 427.339 396.752 436.201C390.7 454.893 373.149 468.41 352.44 468.41C341.425 468.41 331.303 464.586 323.33 458.192Z" fill="#B2C698"/>
<path d="M114.554 436.293C135.321 427.363 165.472 425.465 188.103 458.066C180.106 464.535 169.924 468.41 158.836 468.41C138.162 468.41 120.634 454.938 114.554 436.293Z" fill="#B2C698"/>
</svg>
