<svg width="512" height="512" viewBox="0 0 512 512" fill="none" xmlns="http://www.w3.org/2000/svg">
<path d="M54.2645 213.563H61.4534V218.329V220.829L63.9533 220.829L68.7189 220.829V228.016V230.516H71.2189H89.0413C84.8125 238.279 78.906 248.868 72.9798 258.986C66.0271 270.858 59.1609 281.883 54.9472 287.033C51.9214 290.731 48.4719 297.828 45.985 306.426C43.4805 315.085 41.8723 325.537 42.7351 336.047C43.599 346.571 46.9511 357.246 54.4577 366.174C61.8268 374.938 73.0284 381.815 89.2765 385.307C94.436 392.825 103.682 400.913 115.204 400.003C127.257 399.05 140.219 388.383 152.408 361.081L152.464 360.955L152.506 360.824C154.04 356.03 157.611 348.16 163.28 340.441C168.95 332.721 176.598 325.314 186.227 321.188C199.031 315.7 213.634 308.397 225.341 302.012C231.194 298.819 236.35 295.841 240.211 293.421C241.345 292.71 242.378 292.041 243.289 291.424V317.391C243.289 320.653 242.983 323.818 242.147 326.823C237.005 345.31 221.983 378.983 193.543 397.943C164.591 417.244 158.603 454.847 159.125 477.239C159.278 483.796 164.827 488.5 171.084 488.5H456.695C463.326 488.5 468.858 483.325 469.096 476.632C471.028 422.364 466.255 343.411 445.768 272.559C425.319 201.834 388.977 138.413 327.204 116.489C322.5 114.82 317.534 114.166 312.672 114.162L287.576 113.372L287.5 113.369L287.424 113.371L261.823 114.117L240.747 73.1358L240.699 73.0429L240.644 72.9542C239.457 71.0559 237.114 68.5108 233.87 67.7312C232.175 67.3237 230.312 67.4248 228.424 68.277C226.573 69.1126 224.831 70.6083 223.203 72.7792C220.466 76.4286 215.394 81.3269 210.019 86.0557C205.319 90.1915 200.514 94.089 197.118 96.7311L147.693 69.6645L147.56 69.5921L147.42 69.5361C145.148 68.6273 141.473 67.8111 138.162 68.8708C136.425 69.4265 134.784 70.5057 133.611 72.3112C132.457 74.0867 131.882 76.3655 131.882 79.1229C131.882 88.6003 133.405 117.031 134.232 131.237C128.104 136.054 119.481 143.823 112.203 152.541C108.349 157.158 104.826 162.096 102.253 167.049C100.123 171.151 98.5872 175.372 98.1226 179.5H47.0011H44.5012L44.5011 182L44.5 201.375L44.4999 203.875L46.9999 203.875L51.7645 203.875V211.063V213.563H54.2645Z" fill="#13120F" stroke="#3A8F52" stroke-width="5"/>
<path fill-rule="evenodd" clip-rule="evenodd" d="M245.789 317.391V286.194C243.367 289.827 210.672 307.991 185.242 318.89C164.898 327.609 153.354 349.971 150.125 360.062C125.906 414.312 100.476 398.005 90.7885 383.07C25.3975 369.749 45.9836 301.937 56.8821 288.616C65.6009 277.96 84.7338 243.811 93.2104 228.069L100.476 182.053C100.476 164.616 124.695 141.688 136.804 132.404C135.997 118.68 134.382 88.8105 134.382 79.1229C134.382 69.4354 142.455 70.2427 146.492 71.8573L197.351 99.709C204.214 94.4616 219.391 82.0292 225.203 74.2792C231.016 66.5292 236.505 71.05 238.524 74.2792L260.321 116.662L287.497 115.87L312.632 116.662C317.291 116.662 321.977 117.287 326.368 118.845C447.541 161.851 470.449 368.362 466.597 476.543C466.408 481.858 462.013 486 456.695 486H171.084C166.032 486 161.742 482.232 161.624 477.18C161.107 455.015 167.092 418.582 194.93 400.023C224.083 380.587 239.339 346.248 244.555 327.493C245.469 324.207 245.789 320.803 245.789 317.391Z" fill="#13120F"/>
<path fill-rule="evenodd" clip-rule="evenodd" d="M108.004 352.203C113.252 348.57 123.845 345.918 119.97 362.387C118.356 365.616 114.039 371.761 110.164 375.636C106.289 379.511 110.473 380.717 112.492 381.121C116.124 381.524 121.138 380.338 126.951 370.65C128.32 368.369 131.022 364.782 132.934 360.679C141.171 343.001 154.306 310.163 183.79 299.352C219.436 286.282 266.942 264.041 267.569 217.45C267.593 215.692 267.946 213.876 269.189 212.632C272.768 209.049 280.023 206.152 284.971 213.093C285.717 214.14 286.087 215.397 286.183 216.679C287.047 228.325 285.09 254.06 264.063 276.915C267.696 306.785 262.941 376.717 207.722 413.529C197.801 421.543 180.869 437.423 181.505 462.871C181.569 465.433 183.743 467.377 186.305 467.377H439.134C441.864 467.377 444.09 465.254 444.119 462.524C445.182 360.676 429.297 169.813 319.657 139.304C314.006 137.69 294.779 134.845 254.091 135.814C251.266 133.392 240.815 120.089 230.159 93.9324C221.279 103.62 200.502 121.141 175.314 130.828C143.829 142.938 127.236 159.045 119.97 182.053C114.158 200.459 112.895 220.4 112.492 228.069C109.666 236.546 97.4922 262.46 79.0859 288.616C56.078 321.312 49.5236 356.903 95.5394 364.169C96.3467 362.554 98.3166 360.921 108.004 352.203ZM91.0521 326.774C85.6636 333.959 76.0033 338.004 70.7634 339.843C70.1679 340.052 69.5388 339.655 69.4642 339.029C69.0077 335.193 68.312 327.734 70.1113 322.786C71.2274 319.716 75.1544 316.491 78.3966 314.245C81.2215 312.289 84.9616 312.274 87.5565 314.526C90.9701 317.49 94.5397 322.124 91.0521 326.774Z" fill="#B2C698"/>
<path d="M151.336 93.9324L152.877 119.859L175.314 107.394L151.336 93.9324Z" fill="#B2C698"/>
<g filter="url(#filter0_i_708_41)">
<path d="M47.0011 182H301.299V191.688L310.985 191.688V201.375H301.298L301.299 191.688L240.751 191.688V203.797H233.485V211.063L223.797 211.063V218.329L214.11 218.329V228.016H168.094V218.329L158.406 218.329V211.063H151.141V191.688L136.61 191.688L136.609 211.063H126.922V218.329L119.657 218.329V228.016H71.2189V218.329L63.9534 218.329V211.063H54.2645V201.375L47 201.375L47.0011 182Z" fill="#0B0011"/>
<path d="M110.163 191.741H102.898V199.006H110.163V191.741Z" fill="#B2C698"/>
<path d="M93.21 201.428H100.476V208.694H93.21V201.428Z" fill="#B2C698"/>
<path d="M110.163 201.428H117.428V208.694H110.163V201.428Z" fill="#B2C698"/>
<path d="M93.2097 211.116H85.9441V218.382H93.2097V211.116Z" fill="#B2C698"/>
<path d="M100.475 211.116H107.741V218.382H100.475V211.116Z" fill="#B2C698"/>
<path d="M119.85 191.741H127.116V199.006H119.85V191.741Z" fill="#B2C698"/>
<path d="M204.616 191.741H197.351V199.006H204.616V191.741Z" fill="#B2C698"/>
<path d="M187.663 201.428H194.929V208.694H187.663V201.428Z" fill="#B2C698"/>
<path d="M204.616 201.428H211.881V208.694H204.616V201.428Z" fill="#B2C698"/>
<path d="M187.663 211.116H180.397V218.382H187.663V211.116Z" fill="#B2C698"/>
<path d="M194.928 211.116H202.193V218.382H194.928V211.116Z" fill="#B2C698"/>
<path d="M214.303 191.741H221.569V199.006H214.303V191.741Z" fill="#B2C698"/>
</g>
<defs>
<filter id="filter0_i_708_41" x="47" y="182" width="263.985" height="46.0162" filterUnits="userSpaceOnUse" color-interpolation-filters="sRGB">
<feFlood flood-opacity="0" result="BackgroundImageFix"/>
<feBlend mode="normal" in="SourceGraphic" in2="BackgroundImageFix" result="shape"/>
<feColorMatrix in="SourceAlpha" type="matrix" values="0 0 0 0 0 0 0 0 0 0 0 0 0 0 0 0 0 0 127 0" result="hardAlpha"/>
<feOffset/>
<feGaussianBlur stdDeviation="20"/>
<feComposite in2="hardAlpha" operator="arithmetic" k2="-1" k3="1"/>
<feColorMatrix type="matrix" values="0 0 0 0 0.870833 0 0 0 0 0 0 0 0 0 0 0 0 0 1 0"/>
<feBlend mode="normal" in2="shape" result="effect1_innerShadow_708_41"/>
</filter>
</defs>
</svg>
