<svg width="512" height="512" viewBox="0 0 512 512" fill="none" xmlns="http://www.w3.org/2000/svg">
<path d="M390.37 401.934C390.369 401.93 390.368 401.926 390.368 401.923C388.542 393.513 380.222 387.02 371.636 387.02H350.632L282.899 137.747C282.56 135.223 280.637 133.56 278.753 132.51C276.741 131.388 274.155 130.6 271.474 130.032C266.078 128.888 259.623 128.5 254.856 128.5C250.09 128.5 243.634 128.888 238.236 130.032C235.555 130.6 232.968 131.388 230.956 132.509C229.07 133.56 227.146 135.222 226.805 137.746L159.083 387.02H140.535C131.955 387.02 123.634 393.502 121.82 401.91L105.986 468.17C103.357 479.17 111.697 489.737 123.007 489.737H388.25C399.465 489.737 407.785 479.337 405.323 468.396L390.37 401.934Z" fill="#240E22" stroke="#CE4014" stroke-width="5"/>
<path d="M254.995 449.46C204.958 449.46 164.207 438.938 162.386 425.798C162.904 418.771 168.027 417.536 170.523 417.796C185.04 426.337 217.419 432.289 255.052 432.289C292.678 432.289 325.056 426.342 339.571 417.805C342.264 417.541 347.638 418.771 347.596 425.798C345.797 438.941 305.039 449.46 254.995 449.46Z" fill="#FF501A"/>
<path d="M204.735 315.856C224.595 320.754 264.205 325.587 305.457 315.722C308.787 314.926 310.737 311.508 309.84 308.204C308.912 304.785 305.32 302.846 301.89 303.735C269.253 312.194 229.537 307.748 208.255 303.343C204.768 302.621 201.26 304.676 200.329 308.113C199.411 311.503 201.325 315.015 204.735 315.856Z" fill="#FF501A"/>
<path d="M237.316 196.44C246.306 197.57 259.957 198.361 272.897 196.547C276.361 196.062 278.459 192.595 277.542 189.219C276.684 186.058 273.486 184.154 270.244 184.624C258.974 186.259 247.384 185.548 239.74 184.517C236.54 184.085 233.411 186.001 232.566 189.118C231.642 192.531 233.808 195.999 237.316 196.44Z" fill="#FF501A"/>
</svg>
