<svg width="512" height="512" viewBox="0 0 512 512" fill="none" xmlns="http://www.w3.org/2000/svg">
<path d="M388.25 489.737C399.545 489.737 407.882 479.196 405.279 468.205L389.581 401.908C387.748 393.506 379.434 387.02 370.852 387.02H349.849L282.116 137.747C281.776 135.223 279.854 133.56 277.969 132.51C275.958 131.388 273.371 130.6 270.691 130.032C265.295 128.888 258.839 128.5 254.073 128.5C249.306 128.5 242.85 128.888 237.453 130.032C234.772 130.6 232.185 131.388 230.172 132.509C228.287 133.56 226.363 135.222 226.022 137.746L158.3 387.02H139.752C131.167 387.02 122.841 393.509 121.033 401.924C121.032 401.929 121.031 401.935 121.03 401.94L105.941 468.361C103.454 479.311 111.777 489.737 123.006 489.737H388.25Z" fill="#13120F" stroke="#3A8F52" stroke-width="5"/>
<path d="M243.25 144.79C246.876 145.54 256.349 146.585 265.235 144.766L275.223 181.563C259.005 185.24 240.509 183.095 233.288 181.563L243.25 144.79Z" fill="#B2C698"/>
<path d="M230.071 193.437L201.222 299.925C221.143 304.905 270.258 311.877 307.352 299.925L278.443 193.425C260.205 197.399 238.595 195.089 230.071 193.437Z" fill="#B2C698"/>
<path fill-rule="evenodd" clip-rule="evenodd" d="M310.679 312.183C262.541 325.36 215.436 317.673 197.902 312.183L172.374 406.414L141.034 406.23C139.895 406.23 137.228 408.084 135.666 415.502C134.104 422.919 128.183 449.824 125.418 462.349C124.93 464.952 126.296 470.255 135.666 470.645C145.036 471.036 218.951 470.808 254.737 470.645H255.14C290.926 470.808 364.841 471.036 374.211 470.645C383.58 470.255 384.947 464.952 384.459 462.349C381.693 449.824 375.772 422.919 374.211 415.502C372.649 408.084 369.981 406.23 368.843 406.23L336.257 406.414L310.679 312.183ZM161.603 423.798C163.423 436.938 204.174 447.46 254.211 447.46C304.255 447.46 345.014 436.941 346.812 423.798C346.855 416.771 341.48 415.541 338.788 415.805C324.272 424.342 291.895 430.289 254.268 430.289C216.636 430.289 184.256 424.337 169.74 415.796C167.243 415.535 162.121 416.771 161.603 423.798Z" fill="#B2C698"/>
</svg>
