<svg width="512" height="512" viewBox="0 0 512 512" fill="none" xmlns="http://www.w3.org/2000/svg">
<path d="M442.795 299.591C442.736 338.045 439.444 382.497 402.365 414.352C388.02 426.681 366.306 433.663 349.339 439.118L349.077 439.202L349.074 439.203L347.891 439.585C346.179 440.137 344.534 440.668 342.964 441.186C342.681 441.872 342.279 443.383 341.629 446.79L341.619 446.844C340.184 454.366 338.102 465.289 327.003 474.974L327.003 474.974C324.89 476.818 320.743 480.37 310.27 483.49C299.901 486.578 283.354 489.24 256.411 489.5L256.398 489.5H256.386H256.111H256.099L256.087 489.5C229.15 489.24 212.605 486.579 202.236 483.491C191.762 480.372 187.613 476.82 185.499 474.977L185.495 474.974L442.795 299.591ZM442.795 299.591L443.498 299.606C444.51 275.695 448.43 229.568 456.706 196.44C477.771 195.295 494.5 177.851 494.5 156.5C494.5 134.409 476.591 116.5 454.5 116.5C432.409 116.5 414.5 134.409 414.5 156.5C414.5 163.732 416.421 170.522 419.782 176.38C414.353 185.362 408.845 193.005 403.534 199.053C393.404 187.73 381.595 177.603 368.439 168.953C369.557 155.702 372.121 139.388 376.451 119.683C392.703 114.601 404.5 99.4312 404.5 81.5C404.5 59.4086 386.591 41.5 364.5 41.5C342.409 41.5 324.5 59.4086 324.5 81.5C324.5 92.5028 328.945 102.471 336.132 109.7C331.904 122.826 327.388 135.562 322.785 146.863C308.862 142.201 294.144 138.944 278.862 137.291C277.702 125.683 276.813 111.903 276.242 95.7086C287.783 88.6965 295.5 76.0011 295.5 61.5C295.5 39.4086 277.591 21.5 255.5 21.5C233.409 21.5 215.5 39.4086 215.5 61.5C215.5 76.9944 224.31 90.4263 237.184 97.0688C236.6 112.635 235.716 125.891 234.577 137.069C219.749 138.531 205.442 141.525 191.869 145.865C187.023 133.908 182.274 120.303 177.864 106.328C183.27 99.5071 186.5 90.8779 186.5 81.5C186.5 59.4086 168.591 41.5 146.5 41.5C124.409 41.5 106.5 59.4086 106.5 81.5C106.5 100.445 119.668 116.309 137.35 120.448C140.605 139.759 142.457 155.909 143.148 169.194C129.422 178.332 117.181 189.105 106.812 201.184C101.626 194.585 96.2863 186.309 91.0594 176.653C94.5182 170.733 96.5 163.845 96.5 156.5C96.5 134.409 78.5914 116.5 56.5 116.5C34.4086 116.5 16.5 134.409 16.5 156.5C16.5 178.26 33.8751 195.962 55.5083 196.488C63.231 226.004 67.8918 265.832 69.8915 291.106C69.7655 293.554 69.7019 296.016 69.7019 298.49C69.7019 337.196 72.7002 382.191 110.129 414.352L111.758 412.455L110.129 414.352C124.478 426.681 146.193 433.663 163.16 439.118L163.425 439.204L163.426 439.204L163.447 439.211L442.795 299.591ZM170.869 446.792L170.869 446.79C170.869 446.788 170.868 446.786 170.868 446.785C170.219 443.382 169.817 441.872 169.535 441.185C167.612 440.551 165.574 439.895 163.448 439.211L170.869 446.792ZM170.869 446.792L170.881 446.854M170.869 446.792L170.881 446.854M170.881 446.854C172.315 454.374 174.397 465.29 185.489 474.969L170.881 446.854Z" fill="#FF501A" stroke="#CE4014" stroke-width="5"/>
<path d="M255.562 138.54C154.456 138.54 72.2019 210.295 72.2019 298.49C72.2019 337.187 75.2601 381.094 111.758 412.455C125.73 424.46 147.068 431.318 164.212 436.831C166.396 437.533 168.498 438.21 170.479 438.864C171.524 439.21 171.999 439.367 173.325 446.322C174.746 453.773 176.691 463.977 187.139 473.09C190.937 476.401 202.491 486.483 256.111 487H256.249H256.386C310.006 486.483 321.561 476.403 325.359 473.09C335.804 463.976 337.752 453.773 339.173 446.322C340.499 439.367 340.977 439.21 342.022 438.864C344.003 438.21 346.102 437.536 348.285 436.831C365.43 431.318 386.768 424.46 400.736 412.455C437.238 381.096 440.296 337.185 440.296 298.49C440.289 210.293 357.42 138.54 255.561 138.54H255.562Z" fill="#240E22"/>
<g filter="url(#filter0_d_708_8)">
<path d="M179.5 335.215C156.987 335.215 143 345.203 143 361.28C143 379.306 159.716 394.533 179.5 394.533C200.307 394.533 216 381.782 216 364.873C216 347.966 200.308 335.215 179.5 335.215Z" fill="#FF9900"/>
<path d="M331.5 335.216C310.693 335.216 295 347.967 295 364.873C295 381.783 310.692 394.533 331.5 394.533C351.283 394.533 368 379.303 368 361.28C368 345.203 354.014 335.216 331.5 335.216Z" fill="#FF9900"/>
<path d="M256.51 382.331C261.201 382.132 265.41 384.743 266.74 388.671L277.577 420.632C279.173 425.333 276.115 430.276 270.75 431.672C269.79 431.923 268.816 432.043 267.862 432.043C264.206 432.043 260.783 430.295 258.999 427.465C256.939 430.725 252.664 432.615 248.252 431.886C242.753 430.977 239.14 426.332 240.178 421.513L247.071 389.55C247.941 385.523 251.84 382.541 256.51 382.331Z" fill="#FF9900"/>
</g>
<path d="M273.691 94.2999C285.208 87.8993 293 75.6096 293 61.5C293 40.7893 276.211 24 255.5 24C234.789 24 218 40.7893 218 61.5C218 76.5821 226.904 89.5847 239.742 95.5381C234.181 250.789 199.251 182.906 175.073 105.787C180.641 99.2438 184 90.7642 184 81.5C184 60.7893 167.211 44 146.5 44C125.789 44 109 60.7893 109 81.5C109 99.8289 122.15 115.087 139.53 118.353C161.763 248.256 121.897 239.752 88.1795 176.575C91.8654 170.771 94 163.885 94 156.5C94 135.789 77.2107 119 56.5 119C35.7893 119 19 135.789 19 156.5C19 177.211 35.7893 194 56.5 194C56.8111 194 57.1214 193.996 57.4308 193.989C66.4776 227.486 71.4502 275.094 73 299.5C73 287.031 155.38 276.923 257 276.923C358.62 276.923 441 287.031 441 299.5C442.033 275.097 446.088 227.495 454.746 193.999C475.344 193.867 492 177.128 492 156.5C492 135.789 475.211 119 454.5 119C433.789 119 417 135.789 417 156.5C417 163.802 419.087 170.617 422.697 176.38C387.279 235.889 346.878 241.191 374.33 117.698C390.273 113.38 402 98.8093 402 81.5C402 60.7893 385.211 44 364.5 44C343.789 44 327 60.7893 327 81.5C327 92.3567 331.614 102.136 338.987 108.984C314.236 186.392 279.037 252.476 273.691 94.2999Z" fill="#240E22"/>
<path d="M255.5 80C265.717 80 274 71.7173 274 61.5C274 51.2827 265.717 43 255.5 43C245.283 43 237 51.2827 237 61.5C237 71.7173 245.283 80 255.5 80Z" fill="#FF501A"/>
<path d="M165 81.5C165 91.7173 156.717 100 146.5 100C136.283 100 128 91.7173 128 81.5C128 71.2827 136.283 63 146.5 63C156.717 63 165 71.2827 165 81.5Z" fill="#FF501A"/>
<path d="M364.5 100C374.717 100 383 91.7173 383 81.5C383 71.2827 374.717 63 364.5 63C354.283 63 346 71.2827 346 81.5C346 91.7173 354.283 100 364.5 100Z" fill="#FF501A"/>
<path d="M473 156.5C473 166.717 464.717 175 454.5 175C444.283 175 436 166.717 436 156.5C436 146.283 444.283 138 454.5 138C464.717 138 473 146.283 473 156.5Z" fill="#FF501A"/>
<path d="M75 156.5C75 166.717 66.7173 175 56.5 175C46.2827 175 38 166.717 38 156.5C38 146.283 46.2827 138 56.5 138C66.7173 138 75 146.283 75 156.5Z" fill="#FF501A"/>
<path d="M424.988 268.927C427.165 243.943 431.082 213.034 437.407 188.393C428.561 203.226 418.961 215.763 409.338 224.442C403.91 229.337 397.809 233.611 391.254 235.993C384.609 238.408 376.439 239.206 368.382 235.122C352.003 226.822 347.877 205.623 347.339 188.153C346.769 169.658 349.731 145.113 356.553 114.064C350.291 133.849 343.188 153.543 335.83 169.56C331.911 178.091 327.673 186.123 323.167 192.714C318.991 198.823 313.088 205.954 305.325 209.541C301.088 211.499 295.97 212.542 290.446 211.325C284.916 210.107 280.391 206.934 276.914 203.114C270.529 196.101 266.812 186.005 264.298 176.082C260.781 162.205 258.252 128.761 256.728 103.254C255.208 128.152 252.717 161.156 249.261 174.73C246.783 184.463 243.099 194.476 236.712 201.413C233.223 205.202 228.68 208.33 223.14 209.477C217.618 210.62 212.536 209.5 208.365 207.51C200.724 203.865 194.934 196.76 190.846 190.702C186.43 184.16 182.279 176.203 178.441 167.761C170.74 150.823 164.423 134.94 158 114.064C164.216 149.15 164.918 172.384 163.601 192.348C162.943 202.321 161.33 211.626 158.182 219.518C154.969 227.572 149.633 235.321 141.311 239.336C133.001 243.346 124.698 242.191 118.042 239.397C111.515 236.657 105.553 231.978 100.325 226.749C91.9629 218.385 83.7111 206.826 76.0425 193.303C81.9534 217.116 85.9954 245.731 88.4586 269.063C98.3188 266.635 110.78 264.556 124.995 262.811C159.1 258.627 205.763 256.083 257 256.083C308.237 256.083 354.9 258.627 389.005 262.811C402.956 264.523 415.217 266.557 424.988 268.927Z" fill="#FF501A"/>
<defs>
<filter id="filter0_d_708_8" x="113" y="305.215" width="285" height="156.828" filterUnits="userSpaceOnUse" color-interpolation-filters="sRGB">
<feFlood flood-opacity="0" result="BackgroundImageFix"/>
<feColorMatrix in="SourceAlpha" type="matrix" values="0 0 0 0 0 0 0 0 0 0 0 0 0 0 0 0 0 0 127 0" result="hardAlpha"/>
<feOffset/>
<feGaussianBlur stdDeviation="15"/>
<feComposite in2="hardAlpha" operator="out"/>
<feColorMatrix type="matrix" values="0 0 0 0 1 0 0 0 0 0.239216 0 0 0 0 0 0 0 0 1 0"/>
<feBlend mode="normal" in2="BackgroundImageFix" result="effect1_dropShadow_708_8"/>
<feBlend mode="normal" in="SourceGraphic" in2="effect1_dropShadow_708_8" result="shape"/>
</filter>
</defs>
</svg>
