<svg width="512" height="512" viewBox="0 0 512 512" fill="none" xmlns="http://www.w3.org/2000/svg">
<path d="M70.7677 299.65L70.505 299.658C68.9868 275.751 64.1792 229.628 55.5083 196.488C33.8751 195.962 16.5 178.26 16.5 156.5C16.5 134.409 34.4086 116.5 56.5 116.5C78.5914 116.5 96.5 134.409 96.5 156.5C96.5 163.845 94.5182 170.733 91.0594 176.653C94.8912 183.732 98.7857 190.073 102.638 195.556C113.568 180.873 126.956 167.837 142.251 156.937C141.268 146.297 139.663 134.169 137.35 120.448C119.668 116.309 106.5 100.445 106.5 81.5C106.5 59.4086 124.409 41.5 146.5 41.5C168.591 41.5 186.5 59.4086 186.5 81.5C186.5 90.8779 183.27 99.5071 177.864 106.328C180.794 115.614 183.875 124.74 187.036 133.329C202.406 127.661 218.788 123.815 235.858 122.084C236.397 114.505 236.842 106.182 237.184 97.0688C224.31 90.4263 215.5 76.9944 215.5 61.5C215.5 39.4086 233.409 21.5 255.5 21.5C277.591 21.5 295.5 39.4086 295.5 61.5C295.5 76.0011 287.783 88.6965 276.242 95.7086C276.582 105.342 277.034 114.123 277.589 122.101C295.185 123.888 312.054 127.889 327.846 133.79C330.689 126.087 333.468 117.97 336.132 109.7C328.945 102.471 324.5 92.5028 324.5 81.5C324.5 59.4086 342.409 41.5 364.5 41.5C386.591 41.5 404.5 59.4086 404.5 81.5C404.5 99.4312 392.703 114.601 376.451 119.683C373.47 133.25 371.325 145.213 369.913 155.677C384.895 166.014 398.115 178.351 409.078 192.25C412.63 187.581 416.224 182.266 419.782 176.38C416.421 170.522 414.5 163.732 414.5 156.5C414.5 134.409 432.409 116.5 454.5 116.5C476.591 116.5 494.5 134.409 494.5 156.5C494.5 177.851 477.771 195.295 456.706 196.44C449.08 226.968 445.15 268.543 443.789 293.614C443.61 333.205 439.813 378.483 403.405 411.108C389.058 423.969 367.335 431.254 350.366 436.946L350.105 437.033L350.104 437.033L350.084 437.04L350.082 437.041L348.923 437.431C347.21 438.008 345.563 438.562 343.992 439.102C343.701 439.821 343.292 441.41 342.632 445.02L342.62 445.086C341.19 452.913 339.115 464.262 328.042 474.34L328.042 474.341C325.933 476.26 321.783 479.969 311.298 483.227C300.919 486.452 284.362 489.229 257.412 489.5L257.399 489.5H257.386H257.111H257.099L257.086 489.5C230.143 489.229 213.587 486.453 203.208 483.228C192.73 479.973 188.577 476.268 186.465 474.349L70.7677 299.65ZM70.7677 299.65C71.3565 337.733 76.5145 380.12 111.09 411.108C125.44 423.97 147.163 431.255 164.133 436.946L164.395 437.034L164.396 437.034L164.417 437.041M70.7677 299.65L164.417 437.041M164.417 437.041C164.417 437.041 164.418 437.041 164.418 437.041C166.544 437.755 168.583 438.44 170.507 439.101M164.417 437.041L170.507 439.101M170.507 439.101C170.798 439.821 171.205 441.41 171.865 445.016C171.865 445.017 171.865 445.019 171.865 445.02L171.866 445.023L171.879 445.095C173.31 452.922 175.384 464.267 186.456 474.341L186.46 474.344C186.461 474.345 186.462 474.346 186.463 474.347L170.507 439.101Z" fill="#13120F" stroke="#3A8F52" stroke-width="5"/>
<path d="M256.562 123.54C155.456 123.54 73.2019 198.384 73.2019 290.376C73.2019 330.738 76.2601 376.535 112.758 409.246C126.73 421.768 148.068 428.921 165.212 434.671C167.396 435.404 169.498 436.11 171.479 436.792C172.524 437.153 172.999 437.317 174.325 444.571C175.746 452.343 177.691 462.986 188.139 472.492C191.937 475.944 203.491 486.461 257.111 487H257.249H257.386C311.006 486.461 322.561 475.947 326.359 472.492C336.804 462.985 338.752 452.343 340.173 444.571C341.499 437.316 341.977 437.152 343.022 436.792C345.003 436.11 347.101 435.407 349.285 434.671C366.43 428.921 387.768 421.768 401.736 409.246C438.238 376.538 441.296 330.736 441.296 290.376C441.289 198.381 358.42 123.54 256.561 123.54H256.562Z" fill="#13120F"/>
<path d="M388.395 396.045C377.827 405.505 358.549 411.962 343.053 417.153C340.706 417.938 338.451 418.692 336.328 419.425C320.927 424.726 318.639 437.23 317.124 445.506C315.975 451.793 314.982 457.225 309.951 461.793C309.077 462.588 300.162 469.553 256.333 470.007C212.505 469.55 203.59 462.588 202.716 461.793C197.689 457.225 196.695 451.793 195.542 445.506C194.029 437.23 191.74 424.726 176.339 419.425C174.213 418.692 171.958 417.938 169.611 417.153C154.118 411.962 134.836 405.505 124.268 396.045C96.4356 371.13 90.8403 336.746 90.8403 289.346C90.8403 206.767 164.757 139.589 255.617 139.589C347.261 139.589 421.822 206.768 421.822 289.346C421.825 336.747 416.23 371.133 388.397 396.045H388.395Z" fill="#B2C698"/>
<g filter="url(#filter0_i_708_20)">
<path d="M333.108 322.169C308.43 322.169 289.819 338.135 289.819 359.305C289.819 380.478 308.43 396.443 333.108 396.443C356.572 396.443 376.398 377.373 376.398 354.806C376.398 334.675 359.811 322.169 333.108 322.169Z" fill="#0B0011"/>
<path d="M181.391 322.169C154.689 322.169 138.101 334.676 138.101 354.807C138.101 377.377 157.927 396.444 181.391 396.444C206.069 396.444 224.681 380.478 224.681 359.306C224.681 338.135 206.07 322.169 181.391 322.169Z" fill="#0B0011"/>
<path d="M256.614 372.258C262.341 372.005 267.478 375.315 269.102 380.293L282.33 420.804C284.279 426.762 280.546 433.028 273.997 434.797C272.825 435.116 271.637 435.268 270.471 435.268C266.008 435.268 261.83 433.051 259.653 429.464C257.138 433.597 251.919 435.992 246.533 435.068C239.821 433.916 235.41 428.029 236.677 421.921L245.092 381.407C246.153 376.304 250.914 372.523 256.614 372.258Z" fill="#0B0011"/>
</g>
<path d="M293 61.5C293 75.6096 285.208 87.8993 273.691 94.2999C279.037 252.476 314.236 186.392 338.987 108.984C331.614 102.136 327 92.3567 327 81.5C327 60.7893 343.789 44 364.5 44C385.211 44 402 60.7893 402 81.5C402 98.8093 390.273 113.38 374.33 117.698C346.878 241.191 387.279 235.889 422.697 176.38C419.087 170.617 417 163.802 417 156.5C417 135.789 433.789 119 454.5 119C475.211 119 492 135.789 492 156.5C492 177.128 475.344 193.867 454.746 193.999C446.088 227.495 442.033 275.097 441 299.5C441 287.031 358.62 276.923 257 276.923C155.38 276.923 73 287.031 73 299.5C71.4502 275.094 66.4776 227.486 57.4308 193.989C57.1214 193.996 56.8111 194 56.5 194C35.7893 194 19 177.211 19 156.5C19 135.789 35.7893 119 56.5 119C77.2107 119 94 135.789 94 156.5C94 163.885 91.8654 170.771 88.1795 176.575C121.897 239.752 161.763 248.256 139.53 118.353C122.15 115.087 109 99.8289 109 81.5C109 60.7893 125.789 44 146.5 44C167.211 44 184 60.7893 184 81.5C184 90.7642 180.641 99.2438 175.073 105.787C199.251 182.906 234.181 250.789 239.742 95.5381C226.904 89.5847 218 76.5821 218 61.5C218 40.7893 234.789 24 255.5 24C276.211 24 293 40.7893 293 61.5Z" fill="#13120F"/>
<path d="M255.5 80C265.717 80 274 71.7173 274 61.5C274 51.2827 265.717 43 255.5 43C245.283 43 237 51.2827 237 61.5C237 71.7173 245.283 80 255.5 80Z" fill="#6D664A"/>
<path d="M364.5 100C374.717 100 383 91.7173 383 81.5C383 71.2827 374.717 63 364.5 63C354.283 63 346 71.2827 346 81.5C346 91.7173 354.283 100 364.5 100Z" fill="#6D664A"/>
<path d="M56.5 175C66.7173 175 75 166.717 75 156.5C75 146.283 66.7173 138 56.5 138C46.2827 138 38 146.283 38 156.5C38 166.717 46.2827 175 56.5 175Z" fill="#6D664A"/>
<path d="M473 156.5C473 166.717 464.717 175 454.5 175C444.283 175 436 166.717 436 156.5C436 146.283 444.283 138 454.5 138C464.717 138 473 146.283 473 156.5Z" fill="#6D664A"/>
<path d="M146.5 100C156.717 100 165 91.7173 165 81.5C165 71.2827 156.717 63 146.5 63C136.283 63 128 71.2827 128 81.5C128 91.7173 136.283 100 146.5 100Z" fill="#6D664A"/>
<path d="M424.988 268.927C427.165 243.943 431.082 213.034 437.407 188.393C428.561 203.226 418.961 215.763 409.338 224.442C403.91 229.337 397.809 233.611 391.254 235.993C384.609 238.408 376.439 239.206 368.382 235.122C352.003 226.822 347.877 205.623 347.339 188.153C346.769 169.658 349.731 145.113 356.553 114.064C350.291 133.849 343.188 153.543 335.83 169.56C331.911 178.091 327.673 186.123 323.167 192.714C318.991 198.823 313.088 205.954 305.325 209.541C301.088 211.499 295.97 212.542 290.446 211.325C284.916 210.107 280.391 206.934 276.914 203.114C270.529 196.101 266.812 186.005 264.298 176.082C260.781 162.205 258.252 128.761 256.728 103.254C255.208 128.152 252.717 161.156 249.261 174.73C246.783 184.463 243.099 194.476 236.712 201.413C233.223 205.202 228.68 208.33 223.14 209.477C217.618 210.62 212.536 209.5 208.365 207.51C200.724 203.865 194.934 196.76 190.846 190.702C186.43 184.16 182.279 176.203 178.441 167.761C170.74 150.823 164.423 134.94 158 114.064C164.216 149.15 164.918 172.384 163.601 192.348C162.943 202.321 161.33 211.626 158.182 219.518C154.969 227.572 149.633 235.321 141.311 239.336C133.001 243.346 124.698 242.191 118.042 239.397C111.515 236.657 105.553 231.978 100.325 226.749C91.9629 218.385 83.7111 206.826 76.0425 193.303C81.9534 217.116 85.9954 245.731 88.4586 269.063C98.3188 266.635 110.78 264.556 124.995 262.811C159.1 258.627 205.763 256.083 257 256.083C308.237 256.083 354.9 258.627 389.005 262.811C402.956 264.523 415.217 266.557 424.988 268.927Z" fill="#6D664A"/>
<defs>
<filter id="filter0_i_708_20" x="138.101" y="322.169" width="238.297" height="113.099" filterUnits="userSpaceOnUse" color-interpolation-filters="sRGB">
<feFlood flood-opacity="0" result="BackgroundImageFix"/>
<feBlend mode="normal" in="SourceGraphic" in2="BackgroundImageFix" result="shape"/>
<feColorMatrix in="SourceAlpha" type="matrix" values="0 0 0 0 0 0 0 0 0 0 0 0 0 0 0 0 0 0 127 0" result="hardAlpha"/>
<feOffset/>
<feGaussianBlur stdDeviation="20"/>
<feComposite in2="hardAlpha" operator="arithmetic" k2="-1" k3="1"/>
<feColorMatrix type="matrix" values="0 0 0 0 0.870833 0 0 0 0 0 0 0 0 0 0 0 0 0 1 0"/>
<feBlend mode="normal" in2="shape" result="effect1_innerShadow_708_20"/>
</filter>
</defs>
</svg>
