<svg width="32" height="32" viewBox="0 0 32 32" fill="none" xmlns="http://www.w3.org/2000/svg">
<path d="M8.15534 16.7801L9.37085 18.1229L8.74896 18.8013L6.93983 16.7801L8.76309 14.7449L9.37085 15.4233L8.15534 16.7801ZM13.7382 15.706C13.0127 15.706 12.6499 16.0687 12.6499 16.7943C12.6499 17.5104 13.0127 17.8685 13.7382 17.8685C14.4543 17.8685 14.8124 17.5104 14.8124 16.7943C14.8124 16.0687 14.4543 15.706 13.7382 15.706ZM12.1835 18.137C11.8443 17.7412 11.6747 17.2937 11.6747 16.7943C11.6747 16.2855 11.8443 15.8379 12.1835 15.4516L9.31431 12.0877L5.30031 16.8084L9.30018 21.5008L12.1835 18.137ZM11.2224 7.11262C12.4285 6.69803 13.6769 6.49073 14.9678 6.49073C17.7475 6.49073 20.1267 7.36703 22.1054 9.11962C24.0936 10.8628 25.0876 12.964 25.0876 15.4233C25.0876 16.8744 24.706 18.2454 23.9428 19.5362C23.7732 19.9508 23.6884 20.3984 23.6884 20.879C23.6884 21.6139 23.8769 22.2405 24.2538 22.7587C24.6401 23.277 25.1065 23.5361 25.653 23.5361C25.9639 23.5361 26.2702 23.4325 26.5717 23.2252C26.0535 23.2252 25.6059 23.0414 25.229 22.6739C24.8615 22.3065 24.6778 21.8542 24.6778 21.3171C24.6778 21.2323 24.6919 21.1381 24.7202 21.0344C24.7484 20.8083 24.7908 20.5821 24.8474 20.356C24.9039 20.111 25.0028 19.8425 25.1442 19.5504C26.0959 17.7507 26.4068 15.8803 26.077 13.9393C26.3597 13.421 26.355 12.7473 26.0629 11.9181C25.8838 11.4281 25.6389 11.0371 25.3279 10.745C25.017 10.4529 24.7202 10.354 24.4375 10.4482C24.6071 10.2597 24.6212 9.96294 24.4799 9.55777C24.3385 9.1526 24.0841 8.76156 23.7167 8.38466C23.3398 8.01718 22.9487 7.76278 22.5436 7.62144C22.1384 7.4801 21.8369 7.49423 21.639 7.66384C21.7144 7.38116 21.606 7.08435 21.3139 6.77341C21.0218 6.46246 20.6261 6.21277 20.1267 6.02432C19.1656 5.66626 18.4777 5.69453 18.0631 6.10912C18.0726 5.84529 17.8935 5.60501 17.526 5.38829C17.168 5.16215 16.7298 5.02082 16.2116 4.96428C15.0526 4.87005 14.3836 5.10562 14.2046 5.67097C14.1481 5.40714 13.9172 5.21398 13.512 5.09148C13.1069 4.96899 12.6452 4.95014 12.1269 5.03495C11.5993 5.11975 11.1658 5.28936 10.8266 5.54377C10.4874 5.79817 10.3461 6.04787 10.4026 6.29286C10.233 5.50136 9.75716 5.10562 8.97509 5.10562C8.00457 5.10562 7.51931 5.59088 7.51931 6.5614C7.51931 7.53192 8.00457 8.01718 8.97509 8.01718C9.21066 8.01718 9.44151 7.95123 9.66765 7.81931C9.11172 7.6497 8.71597 7.36232 8.48041 6.95715C8.37676 6.74985 8.37676 6.62736 8.48041 6.58967C8.55579 6.54255 8.65002 6.61793 8.76309 6.81581C9.11172 7.25867 9.7713 7.39058 10.7418 7.21156C10.9397 7.18329 11.0999 7.15031 11.2224 7.11262H11.2224ZM26.5858 20.356C25.9545 20.356 25.6389 20.6764 25.6389 21.3171C25.6389 21.9578 25.9545 22.2782 26.5858 22.2782C27.2266 22.2782 27.5469 21.9578 27.5469 21.3171C27.5469 20.6764 27.2266 20.356 26.5858 20.356ZM22.1478 19.2394L22.5577 18.3631L23.3068 18.7447C23.8533 17.6894 24.1265 16.5823 24.1265 15.4233C24.1265 13.2373 23.2267 11.3622 21.427 9.79804C19.6367 8.2339 17.4837 7.45183 14.9678 7.45183C13.9785 7.45183 12.9938 7.59317 12.0139 7.87585L12.6782 9.33163L11.816 9.75564L11.1093 8.20092C10.8266 8.31399 10.5063 8.46475 10.1482 8.6532C9.77131 8.8605 9.38027 8.96415 8.9751 8.96415C8.3061 8.96415 7.73604 8.7333 7.26491 8.27159C6.79378 7.80046 6.55822 7.2304 6.55822 6.5614C6.55822 5.90182 6.79378 5.33647 7.26491 4.86534C7.73604 4.38479 8.3061 4.14452 8.9751 4.14452C9.52161 4.14452 10.0163 4.31883 10.4592 4.66747C10.8926 4.38479 11.392 4.19163 11.9573 4.08798C12.8431 3.94665 13.6016 4.04558 14.2329 4.38479C14.8171 4.07385 15.5002 3.95136 16.2823 4.01731C17.2245 4.11154 17.9548 4.41777 18.473 4.93601C19.0855 4.8041 19.7498 4.86534 20.4659 5.11975C21.3799 5.46838 22.0206 5.98662 22.3881 6.67447C23.0759 6.74043 23.7449 7.08435 24.3951 7.70624C24.9981 8.32813 25.3562 8.99713 25.4693 9.71324C26.1477 10.0713 26.6471 10.6979 26.9674 11.593C27.2972 12.507 27.3114 13.3315 27.0098 14.0665C27.2925 15.885 27.0475 17.6753 26.2749 19.4373C26.4256 19.4185 26.5293 19.409 26.5858 19.409C27.1135 19.409 27.5611 19.5975 27.9285 19.9744C28.3054 20.3419 28.4939 20.7895 28.4939 21.3171C28.4939 21.4773 28.4751 21.6328 28.4374 21.7835C28.2583 22.575 27.9097 23.2252 27.3915 23.734C26.8732 24.2428 26.2843 24.4972 25.6247 24.4972C24.8238 24.4972 24.1407 24.1439 23.5753 23.4372C23.01 22.7305 22.7273 21.8778 22.7273 20.879C22.7273 20.4267 22.7885 20.0027 22.911 19.6069L22.1478 19.2394ZM20.4659 27.0554C20.2303 26.8952 19.9429 26.7539 19.6037 26.6314C18.0019 25.9341 17.201 24.9825 17.201 23.7764C17.201 22.9001 17.6815 22.1274 18.6426 21.4584C20.2256 20.5256 21.2762 19.2017 21.7945 17.4868C22.3127 15.7719 22.1478 14.1654 21.2998 12.6672C20.4235 11.1784 19.1043 10.2315 17.3423 9.82631C15.5897 9.42114 13.9125 9.68026 12.3107 10.6037C11.604 11.0183 10.9962 11.5224 10.4874 12.116L12.876 14.9286C13.1399 14.7967 13.4273 14.7307 13.7382 14.7307C14.3035 14.7307 14.7888 14.9333 15.194 15.3385C15.5991 15.7437 15.8017 16.2289 15.8017 16.7943C15.8017 17.3596 15.5991 17.8449 15.194 18.2501C14.7888 18.6552 14.3035 18.8578 13.7382 18.8578C13.4555 18.8578 13.1964 18.8013 12.9608 18.6882L10.9397 21.0344C11.2035 21.2511 11.5475 21.482 11.9715 21.727C13.2624 22.4337 13.9078 23.31 13.9078 24.3559C13.9078 25.6185 13.0456 26.5843 11.3213 27.2533C10.9633 27.4041 10.6193 27.569 10.2895 27.748C10.1388 27.8422 10.0304 27.9129 9.96447 27.96C11.0669 27.9788 12.3013 27.8045 13.6675 27.437C14.5909 27.1826 15.4908 26.8481 16.3671 26.4335C17.2245 27.2627 18.5908 27.47 20.4659 27.0554ZM7.61826 28.808C8.14592 28.1013 8.87617 27.4747 9.809 26.9282C10.2707 26.655 10.7701 26.4288 11.3072 26.2498C12.4002 25.7598 12.9467 25.1285 12.9467 24.3559C12.9467 23.6398 12.4756 23.0414 11.5333 22.5609C11.1187 22.3442 10.7183 22.0756 10.3319 21.7552L9.27191 22.9849L4 16.8508L9.27191 10.7026L9.8514 11.381C10.3979 10.7591 11.0575 10.2268 11.8301 9.78391C13.6675 8.72858 15.5897 8.43649 17.5967 8.90761C19.6132 9.37874 21.1208 10.4765 22.1195 12.2008C23.1089 13.9251 23.3068 15.7814 22.7132 17.7695C22.1195 19.7577 20.904 21.2747 19.0666 22.3206C19.0666 22.3206 19.0195 22.3489 18.9253 22.4054C18.4071 22.82 18.1479 23.277 18.1479 23.7764C18.1479 24.5867 18.7698 25.2557 20.0136 25.7834C21.0501 26.1886 21.7898 26.7586 22.2326 27.4936C21.9688 27.6161 21.6673 27.7291 21.3281 27.8328C21.2244 27.8705 21.1349 27.894 21.0595 27.9035C19.1467 28.4217 17.5449 28.2898 16.254 27.5077C15.4625 27.8846 14.6805 28.1673 13.9078 28.3557C12.73 28.6761 11.5946 28.8316 10.5016 28.8222C9.40854 28.8127 8.44744 28.808 7.61826 28.808V28.808Z" fill="black"/>
<path d="M8.15532 16.7802L9.37083 18.1229L8.74894 18.8013L6.93982 16.7802L8.76308 14.7449L9.37083 15.4233L8.15532 16.7802ZM13.7382 15.706C13.0126 15.706 12.6499 16.0688 12.6499 16.7943C12.6499 17.5104 13.0126 17.8685 13.7382 17.8685C14.4543 17.8685 14.8123 17.5104 14.8123 16.7943C14.8123 16.0688 14.4543 15.706 13.7382 15.706ZM12.1835 18.137C11.8442 17.7413 11.6746 17.2937 11.6746 16.7943C11.6746 16.2855 11.8442 15.8379 12.1835 15.4516L9.3143 12.0878L5.30029 16.8084L9.30016 21.5009L12.1835 18.137ZM11.2224 7.11265C12.4284 6.69806 13.6769 6.49077 14.9678 6.49077C17.7475 6.49077 20.1267 7.36706 22.1054 9.11965C24.0936 10.8628 25.0876 12.9641 25.0876 15.4233C25.0876 16.8744 24.706 18.2454 23.9428 19.5363C23.7732 19.9509 23.6884 20.3984 23.6884 20.879C23.6884 21.6139 23.8768 22.2405 24.2537 22.7588C24.6401 23.277 25.1065 23.5361 25.653 23.5361C25.9639 23.5361 26.2702 23.4325 26.5717 23.2252C26.0534 23.2252 25.6059 23.0415 25.229 22.674C24.8615 22.3065 24.6777 21.8542 24.6777 21.3171C24.6777 21.2323 24.6919 21.1381 24.7201 21.0345C24.7484 20.8083 24.7908 20.5822 24.8474 20.356C24.9039 20.111 25.0028 19.8425 25.1442 19.5504C26.0958 17.7507 26.4068 15.8803 26.077 13.9393C26.3597 13.421 26.355 12.7473 26.0629 11.9181C25.8838 11.4282 25.6388 11.0371 25.3279 10.745C25.017 10.4529 24.7201 10.354 24.4375 10.4482C24.6071 10.2598 24.6212 9.96297 24.4799 9.5578C24.3385 9.15263 24.0841 8.7616 23.7166 8.3847C23.3397 8.01722 22.9487 7.76281 22.5435 7.62147C22.1384 7.48013 21.8368 7.49427 21.639 7.66387C21.7144 7.3812 21.606 7.08439 21.3139 6.77344C21.0218 6.4625 20.626 6.2128 20.1267 6.02435C19.1656 5.66629 18.4777 5.69456 18.0631 6.10915C18.0725 5.84532 17.8935 5.60505 17.526 5.38833C17.168 5.16219 16.7298 5.02085 16.2116 4.96431C15.0526 4.87009 14.3836 5.10565 14.2046 5.671C14.1481 5.40717 13.9172 5.21401 13.512 5.09152C13.1069 4.96902 12.6452 4.95018 12.1269 5.03498C11.5993 5.11978 11.1658 5.28939 10.8266 5.5438C10.4874 5.79821 10.3461 6.04791 10.4026 6.29289C10.233 5.5014 9.75714 5.10565 8.97507 5.10565C8.00455 5.10565 7.51929 5.59091 7.51929 6.56143C7.51929 7.53196 8.00455 8.01722 8.97507 8.01722C9.21064 8.01722 9.44149 7.95126 9.66763 7.81934C9.1117 7.64974 8.71596 7.36235 8.48039 6.95718C8.37674 6.74989 8.37674 6.62739 8.48039 6.5897C8.55577 6.54259 8.65 6.61797 8.76307 6.81584C9.1117 7.2587 9.77128 7.39062 10.7418 7.21159C10.9397 7.18332 11.0999 7.15034 11.2224 7.11265ZM26.5858 20.356C25.9545 20.356 25.6388 20.6764 25.6388 21.3171C25.6388 21.9579 25.9545 22.2782 26.5858 22.2782C27.2265 22.2782 27.5469 21.9579 27.5469 21.3171C27.5469 20.6764 27.2265 20.356 26.5858 20.356ZM20.4659 27.0555C20.2303 26.8953 19.9429 26.7539 19.6037 26.6314C18.0019 25.9342 17.201 24.9825 17.201 23.7764C17.201 22.9001 17.6815 22.1275 18.6426 21.4585C20.2256 20.5256 21.2762 19.2018 21.7944 17.4869C22.3127 15.772 22.1478 14.1654 21.2998 12.6672C20.4235 11.1785 19.1043 10.2315 17.3423 9.82634C15.5897 9.42118 13.9125 9.6803 12.3107 10.6037C11.604 11.0183 10.9962 11.5224 10.4874 12.116L12.876 14.9287C13.1398 14.7967 13.4272 14.7308 13.7382 14.7308C14.3035 14.7308 14.7888 14.9334 15.194 15.3385C15.5991 15.7437 15.8017 16.229 15.8017 16.7943C15.8017 17.3597 15.5991 17.8449 15.194 18.2501C14.7888 18.6553 14.3035 18.8579 13.7382 18.8579C13.4555 18.8579 13.1964 18.8013 12.9608 18.6882L10.9397 21.0345C11.2035 21.2512 11.5474 21.482 11.9715 21.727C13.2623 22.4337 13.9078 23.31 13.9078 24.3559C13.9078 25.6185 13.0456 26.5843 11.3213 27.2533C10.9632 27.4041 10.6193 27.569 10.2895 27.748C10.1388 27.8422 10.0304 27.9129 9.96445 27.96C11.0669 27.9789 12.3012 27.8045 13.6675 27.4371C14.5909 27.1827 15.4908 26.8482 16.3671 26.4336C17.2245 27.2628 18.5908 27.4701 20.4659 27.0555Z" fill="white"/>
</svg>
