<svg width="32" height="32" viewBox="0 0 32 32" fill="none" xmlns="http://www.w3.org/2000/svg">
<path d="M16.0682 13.1022C15.3332 13.1022 14.7066 12.8478 14.1884 12.3389C13.6702 11.8207 13.411 11.1941 13.411 10.4592C13.411 9.73362 13.6702 9.11173 14.1884 8.59349C14.7066 8.06583 15.3332 7.802 16.0682 7.802C16.7937 7.802 17.4156 8.06583 17.9339 8.59349C18.4521 9.11173 18.7112 9.73362 18.7112 10.4592C18.7112 11.1941 18.4521 11.8207 17.9339 12.3389C17.4156 12.8478 16.7937 13.1022 16.0682 13.1022ZM24.9584 20.2115C25.1468 19.9948 25.3447 19.7451 25.552 19.4624C26.2775 18.4165 26.7581 17.3706 26.9936 16.3247C27.2386 15.2694 27.2198 14.4025 26.9371 13.7241C26.5319 12.7912 25.943 12.0987 25.1704 11.6464C24.3789 11.1941 23.4884 11.0292 22.4991 11.1517C21.5191 11.2742 20.5486 11.637 19.5875 12.24C18.5322 12.9184 17.6135 13.9266 16.8314 15.2646C16.5582 15.7546 16.299 16.287 16.0541 16.8618C15.7996 16.287 15.5405 15.7546 15.2767 15.2646C14.4852 13.9266 13.5665 12.9184 12.5206 12.24C11.5595 11.637 10.5843 11.2742 9.5949 11.1517C8.61496 11.0292 7.72924 11.1941 6.93775 11.6464C6.15568 12.0987 5.56677 12.7912 5.17102 13.7241C4.87892 14.4025 4.85065 15.2694 5.08622 16.3247C5.3312 17.3706 5.82118 18.4165 6.55613 19.4624C6.75401 19.7451 6.95188 19.9948 7.14975 20.2115C7.3759 20.1455 7.60675 20.089 7.84231 20.0419C6.63623 16.4048 6.87179 14.1905 8.549 13.399C9.56664 12.9279 10.6502 13.1776 11.7998 14.1481C12.9588 15.1092 13.9104 16.1786 14.6548 17.3565C14.7961 17.592 14.9799 17.9548 15.206 18.4448C15.4416 18.9347 15.5594 19.1797 15.5594 19.1797C15.6348 19.1797 15.7101 19.1797 15.7855 19.1797C15.8703 19.1703 15.9551 19.1656 16.0399 19.1656C16.3697 19.1656 16.5346 19.1656 16.5346 19.1656C16.5346 19.1561 16.6477 18.9064 16.8738 18.4165C17.1094 17.9171 17.2978 17.5496 17.4392 17.314C18.1741 16.1268 19.1117 15.0621 20.2518 14.1198C21.4013 13.1681 22.4897 12.9278 23.5167 13.399C25.2033 14.1999 25.4483 16.4095 24.2517 20.0277C24.3647 20.056 24.4778 20.089 24.5909 20.1267C24.7134 20.1549 24.8359 20.1832 24.9584 20.2115V20.2115ZM14.5276 19.208C13.8586 17.6721 13.02 16.4802 12.0118 15.6321C11.0036 14.7841 10.1179 14.5203 9.35463 14.8406C8.70447 15.1233 8.33228 15.7216 8.23806 16.6356C8.14383 17.5496 8.337 18.6144 8.81754 19.8299C9.44885 19.7074 10.0001 19.6132 10.4712 19.5472C10.3864 19.3022 10.4005 19.0101 10.5136 18.6709C10.6267 18.3223 10.5984 18.0396 10.4288 17.8229C10.3157 17.6815 10.1697 17.771 9.99065 18.0914C9.81162 18.4118 9.64673 18.5248 9.49597 18.4306C9.29809 18.3176 9.15676 18.1197 9.07195 17.837C8.99657 17.5449 9.02013 17.2999 9.14262 17.102C9.22743 16.9419 9.40645 16.9513 9.67971 17.1303C9.96238 17.3093 10.1508 17.3187 10.2451 17.1586C10.3299 17.0078 10.2262 16.857 9.93412 16.7063C9.64202 16.5555 9.54308 16.4047 9.63731 16.254C9.96709 15.6981 10.4194 15.5756 10.9942 15.8865C11.1449 15.9807 11.1261 16.1645 10.9376 16.4377C10.7586 16.711 10.7492 16.89 10.9093 16.9748C11.0601 17.069 11.2062 16.9748 11.3475 16.6921C11.4983 16.4 11.6584 16.2964 11.828 16.3812C12.0259 16.4943 12.1625 16.6968 12.2379 16.9889C12.3133 17.2716 12.2945 17.5119 12.1814 17.7098C12.0966 17.87 11.8987 17.8558 11.5878 17.6674C11.2768 17.4789 11.1119 17.4695 11.0931 17.6391C11.0366 17.9689 11.1779 18.2657 11.5171 18.5295C11.8657 18.7934 12.0071 19.0761 11.9411 19.3776C12.7891 19.2928 13.6513 19.2362 14.5276 19.208V19.208ZM23.2764 19.8016C23.7476 18.5767 23.936 17.5072 23.8418 16.5932C23.757 15.6698 23.3895 15.0668 22.7393 14.7841C21.9667 14.4637 21.0763 14.7323 20.0681 15.5897C19.0598 16.4378 18.226 17.6391 17.5664 19.1938C18.5652 19.2504 19.4273 19.3116 20.1529 19.3776C20.0775 19.0761 20.2094 18.7934 20.5486 18.5296C20.8878 18.2657 21.0339 17.9736 20.9868 17.6533C20.9585 17.4837 20.7889 17.4931 20.4779 17.6815C20.167 17.87 19.9691 17.8794 19.8843 17.7098C19.7712 17.5119 19.7524 17.2716 19.8278 16.9889C19.9032 16.6968 20.0398 16.4943 20.2377 16.3812C20.3978 16.2964 20.5486 16.4 20.6899 16.6921C20.8407 16.9842 21.0009 17.0832 21.1705 16.9889C21.3213 16.9041 21.3024 16.7251 21.114 16.4519C20.9349 16.1692 20.9255 15.9854 21.0857 15.9006C21.2836 15.7876 21.5238 15.7687 21.8065 15.8441C22.0986 15.9195 22.3059 16.0561 22.4284 16.254C22.5132 16.4142 22.4096 16.5696 22.1175 16.7204C21.8348 16.8712 21.7406 17.0219 21.8348 17.1727C21.9196 17.3329 22.0986 17.3235 22.3719 17.1444C22.6451 16.9654 22.8336 16.9513 22.9372 17.102C23.0503 17.2999 23.0644 17.5449 22.9796 17.837C22.9042 18.1197 22.7723 18.3175 22.5839 18.4306C22.4143 18.5154 22.2447 18.4023 22.0751 18.0914C21.9055 17.7805 21.7641 17.6956 21.651 17.837C21.472 18.0537 21.439 18.3317 21.5521 18.6709C21.6746 19.0101 21.6934 19.3069 21.6086 19.5613C21.8913 19.599 22.1693 19.6414 22.4425 19.6885C22.7252 19.7356 23.0032 19.7733 23.2764 19.8016V19.8016ZM25.8205 20.6779C26.2068 21.0642 26.4 21.5259 26.4 22.063C26.4 22.6378 26.2021 23.1042 25.8064 23.4623C25.8347 23.5753 25.8488 23.6837 25.8488 23.7873C25.8488 24.3433 25.6603 24.8144 25.2834 25.2007C25.3211 25.3326 25.34 25.4787 25.34 25.6389C25.34 26.6471 24.8736 27.2737 23.9407 27.5187C21.6228 28.2348 18.9892 28.5928 16.0399 28.5928C13.0812 28.5928 10.4476 28.2348 8.13912 27.5187C7.20629 27.2737 6.73987 26.6471 6.73987 25.6389C6.73987 25.4881 6.75872 25.3421 6.79641 25.2007C6.41951 24.8144 6.23106 24.348 6.23106 23.8015C6.23106 23.6884 6.24519 23.5753 6.27346 23.4623C5.87771 23.1042 5.67984 22.6378 5.67984 22.063C5.67984 21.4977 5.87771 21.0312 6.27346 20.6638C6.10385 20.4847 5.93896 20.268 5.77878 20.0136C4.97786 18.8735 4.44549 17.7098 4.18165 16.5226C3.91782 15.3353 3.94138 14.3177 4.25232 13.4697C4.72345 12.273 5.45841 11.392 6.4572 10.8266C7.4183 10.2707 8.49247 10.0681 9.67971 10.2189C10.8669 10.3602 12.0259 10.7984 13.1566 11.5333C14.2496 12.2777 15.2155 13.3189 16.0541 14.6569C16.8832 13.3189 17.8491 12.2777 18.9515 11.5333C20.0822 10.7984 21.2365 10.3602 22.4143 10.2189C23.6015 10.0681 24.6804 10.2707 25.6509 10.8266C26.6403 11.392 27.3752 12.273 27.8558 13.4697C28.1573 14.3177 28.1762 15.3353 27.9123 16.5226C27.6485 17.7098 27.1208 18.8735 26.3293 20.0136C26.1503 20.268 25.9807 20.4894 25.8205 20.6779ZM23.1634 26.7837C21.015 26.3974 18.6405 26.2042 16.0399 26.2042C13.4016 26.2042 11.0224 26.3974 8.90235 26.7837C11.0601 27.3208 13.4393 27.5893 16.0399 27.5893C18.6405 27.5893 21.015 27.3208 23.1634 26.7837ZM16.0682 12.1128C16.5205 12.1128 16.9068 11.9526 17.2272 11.6323C17.557 11.3025 17.7218 10.9114 17.7218 10.4592C17.7218 10.0069 17.557 9.61584 17.2272 9.28605C16.9068 8.95626 16.5205 8.79136 16.0682 8.79136C15.6065 8.79136 15.2107 8.95626 14.881 9.28605C14.5606 9.61584 14.4004 10.0069 14.4004 10.4592C14.4004 10.9114 14.5606 11.3025 14.881 11.6323C15.2107 11.9526 15.6065 12.1128 16.0682 12.1128ZM16.7749 7.85853C16.5299 7.78315 16.2896 7.74546 16.0541 7.74546C15.8279 7.74546 15.5735 7.78786 15.2908 7.87266L15.6018 6.14834L14.3015 6.58649V4.86216L15.6018 5.28618L15.1495 4H16.888L16.4639 5.28618L17.7784 4.86216V6.58649L16.4639 6.14834L16.7749 7.85853ZM24.181 24.9746C24.1245 24.918 24.1056 24.8709 24.1245 24.8332C24.1339 24.7673 24.1951 24.7249 24.3082 24.706C24.7322 24.5647 24.9442 24.2585 24.9442 23.7873C24.9442 23.4858 24.8264 23.2314 24.5909 23.0241C25.1939 23.0147 25.4954 22.6943 25.4954 22.063C25.4954 21.5919 25.2834 21.2809 24.8594 21.1302C22.4567 20.4612 19.5404 20.1267 16.1106 20.1267C12.6337 20.1267 9.675 20.4659 7.23456 21.1443C6.80112 21.2951 6.5844 21.6013 6.5844 22.063C6.5844 22.6943 6.88592 23.0147 7.48897 23.0241C7.2534 23.2314 7.13562 23.4905 7.13562 23.8015C7.13562 24.2538 7.33349 24.5506 7.72924 24.6919C7.86116 24.7107 7.93654 24.7578 7.95538 24.8332C7.9648 24.8804 7.94125 24.9322 7.88471 24.9887C7.72453 25.2054 7.64444 25.4221 7.64444 25.6389C7.64444 25.8179 7.69155 25.9828 7.78578 26.1336C10.2639 25.5399 13.0153 25.2431 16.0399 25.2431C19.0834 25.2431 21.8395 25.5399 24.3082 26.1336C24.393 25.9639 24.4354 25.799 24.4354 25.6389C24.4354 25.4033 24.3506 25.1819 24.181 24.9746Z" fill="black"/>
<path d="M24.9584 20.2115C25.1468 19.9948 25.3447 19.7451 25.552 19.4624C26.2775 18.4165 26.7581 17.3706 26.9936 16.3247C27.2386 15.2694 27.2198 14.4025 26.9371 13.7241C26.5319 12.7913 25.943 12.0987 25.1704 11.6464C24.3789 11.1941 23.4885 11.0292 22.4991 11.1517C21.5192 11.2742 20.5486 11.637 19.5875 12.24C18.5322 12.9185 17.6135 13.9267 16.8314 15.2647C16.5582 15.7546 16.2991 16.287 16.0541 16.8618C15.7997 16.287 15.5405 15.7546 15.2767 15.2647C14.4852 13.9267 13.5665 12.9185 12.5206 12.24C11.5595 11.637 10.5843 11.2742 9.59493 11.1517C8.61498 11.0292 7.72926 11.1941 6.93777 11.6464C6.1557 12.0987 5.56679 12.7913 5.17104 13.7241C4.87894 14.4025 4.85068 15.2694 5.08624 16.3247C5.33123 17.3706 5.8212 18.4165 6.55616 19.4624C6.75403 19.7451 6.9519 19.9948 7.14978 20.2115C7.37592 20.1455 7.60677 20.089 7.84233 20.0419C6.63625 16.4048 6.87181 14.1905 8.54902 13.399C9.56666 12.9279 10.6503 13.1776 11.7998 14.1481C12.9588 15.1092 13.9105 16.1787 14.6548 17.3565C14.7962 17.592 14.9799 17.9548 15.206 18.4448C15.4416 18.9347 15.5594 19.1797 15.5594 19.1797C15.6348 19.1797 15.7102 19.1797 15.7855 19.1797C15.8703 19.1703 15.9551 19.1656 16.0399 19.1656C16.3697 19.1656 16.5346 19.1656 16.5346 19.1656C16.5346 19.1562 16.6477 18.9065 16.8738 18.4165C17.1094 17.9171 17.2979 17.5496 17.4392 17.3141C18.1741 16.1268 19.1117 15.0621 20.2518 14.1198C21.4014 13.1681 22.4897 12.9279 23.5167 13.399C25.2034 14.1999 25.4484 16.4095 24.2517 20.0278C24.3648 20.056 24.4778 20.089 24.5909 20.1267C24.7134 20.155 24.8359 20.1832 24.9584 20.2115ZM14.5276 19.208C13.8586 17.6721 13.02 16.4802 12.0118 15.6321C11.0036 14.7841 10.1179 14.5203 9.35465 14.8407C8.7045 15.1233 8.33231 15.7217 8.23808 16.6356C8.14386 17.5496 8.33702 18.6144 8.81757 19.8299C9.44888 19.7074 10.0001 19.6132 10.4712 19.5472C10.3864 19.3022 10.4006 19.0101 10.5136 18.6709C10.6267 18.3223 10.5984 18.0396 10.4288 17.8229C10.3158 17.6816 10.1697 17.7711 9.99067 18.0914C9.81164 18.4118 9.64675 18.5249 9.49599 18.4306C9.29812 18.3176 9.15678 18.1197 9.07198 17.837C8.99659 17.5449 9.02015 17.2999 9.14264 17.1021C9.22745 16.9419 9.40648 16.9513 9.67973 17.1303C9.96241 17.3093 10.1509 17.3188 10.2451 17.1586C10.3299 17.0078 10.2262 16.857 9.93414 16.7063C9.64204 16.5555 9.5431 16.4048 9.63733 16.254C9.96712 15.6981 10.4194 15.5756 10.9942 15.8865C11.1449 15.9808 11.1261 16.1645 10.9376 16.4377C10.7586 16.711 10.7492 16.89 10.9094 16.9748C11.0601 17.0691 11.2062 16.9748 11.3475 16.6921C11.4983 16.4001 11.6585 16.2964 11.8281 16.3812C12.0259 16.4943 12.1626 16.6969 12.2379 16.989C12.3133 17.2716 12.2945 17.5119 12.1814 17.7098C12.0966 17.87 11.8987 17.8558 11.5878 17.6674C11.2769 17.4789 11.112 17.4695 11.0931 17.6391C11.0366 17.9689 11.1779 18.2657 11.5171 18.5296C11.8658 18.7934 12.0071 19.0761 11.9411 19.3776C12.7892 19.2928 13.6513 19.2363 14.5276 19.208ZM23.2765 19.8016C23.7476 18.5767 23.936 17.5072 23.8418 16.5932C23.757 15.6698 23.3895 15.0668 22.7394 14.7841C21.9667 14.4638 21.0763 14.7323 20.0681 15.5897C19.0599 16.4378 18.226 17.6391 17.5664 19.1939C18.5652 19.2504 19.4273 19.3116 20.1529 19.3776C20.0775 19.0761 20.2094 18.7934 20.5486 18.5296C20.8878 18.2657 21.0339 17.9736 20.9868 17.6533C20.9585 17.4837 20.7889 17.4931 20.478 17.6815C20.167 17.87 19.9691 17.8794 19.8843 17.7098C19.7713 17.5119 19.7524 17.2716 19.8278 16.989C19.9032 16.6969 20.0398 16.4943 20.2377 16.3812C20.3979 16.2964 20.5486 16.4001 20.69 16.6921C20.8407 16.9842 21.0009 17.0832 21.1705 16.989C21.3213 16.9042 21.3024 16.7251 21.114 16.4519C20.935 16.1692 20.9255 15.9855 21.0857 15.9007C21.2836 15.7876 21.5239 15.7687 21.8065 15.8441C22.0986 15.9195 22.3059 16.0561 22.4284 16.254C22.5132 16.4142 22.4096 16.5697 22.1175 16.7204C21.8348 16.8712 21.7406 17.0219 21.8348 17.1727C21.9196 17.3329 22.0986 17.3235 22.3719 17.1445C22.6451 16.9654 22.8336 16.9513 22.9372 17.102C23.0503 17.2999 23.0644 17.5449 22.9796 17.837C22.9043 18.1197 22.7723 18.3176 22.5839 18.4306C22.4143 18.5154 22.2447 18.4024 22.0751 18.0914C21.9055 17.7805 21.7641 17.6957 21.6511 17.837C21.472 18.0537 21.4391 18.3317 21.5521 18.6709C21.6746 19.0101 21.6935 19.3069 21.6087 19.5613C21.8913 19.599 22.1693 19.6414 22.4426 19.6885C22.7252 19.7357 23.0032 19.7734 23.2765 19.8016ZM23.1634 26.7837C21.015 26.3974 18.6406 26.2042 16.0399 26.2042C13.4016 26.2042 11.0224 26.3974 8.90237 26.7837C11.0601 27.3208 13.4393 27.5894 16.0399 27.5894C18.6406 27.5894 21.015 27.3208 23.1634 26.7837ZM16.0682 12.1128C16.5205 12.1128 16.9068 11.9526 17.2272 11.6323C17.557 11.3025 17.7219 10.9115 17.7219 10.4592C17.7219 10.0069 17.557 9.61586 17.2272 9.28607C16.9068 8.95628 16.5205 8.79138 16.0682 8.79138C15.6065 8.79138 15.2108 8.95628 14.881 9.28607C14.5606 9.61586 14.4004 10.0069 14.4004 10.4592C14.4004 10.9115 14.5606 11.3025 14.881 11.6323C15.2108 11.9526 15.6065 12.1128 16.0682 12.1128ZM24.181 24.9746C24.1245 24.9181 24.1056 24.8709 24.1245 24.8333C24.1339 24.7673 24.1952 24.7249 24.3082 24.7061C24.7322 24.5647 24.9442 24.2585 24.9442 23.7874C24.9442 23.4858 24.8265 23.2314 24.5909 23.0241C25.1939 23.0147 25.4955 22.6943 25.4955 22.063C25.4955 21.5919 25.2835 21.281 24.8594 21.1302C22.4567 20.4612 19.5404 20.1267 16.1106 20.1267C12.6337 20.1267 9.67502 20.4659 7.23458 21.1443C6.80114 21.2951 6.58442 21.6013 6.58442 22.063C6.58442 22.6943 6.88595 23.0147 7.48899 23.0241C7.25343 23.2314 7.13564 23.4905 7.13564 23.8015C7.13564 24.2538 7.33352 24.5506 7.72926 24.6919C7.86118 24.7108 7.93656 24.7579 7.9554 24.8333C7.96483 24.8804 7.94127 24.9322 7.88474 24.9887C7.72455 25.2054 7.64446 25.4222 7.64446 25.6389C7.64446 25.8179 7.69157 25.9828 7.7858 26.1336C10.2639 25.5399 13.0153 25.2431 16.0399 25.2431C19.0834 25.2431 21.8395 25.5399 24.3082 26.1336C24.393 25.964 24.4354 25.7991 24.4354 25.6389C24.4354 25.4033 24.3506 25.1819 24.181 24.9746Z" fill="white"/>
</svg>
