<svg width="32" height="32" viewBox="0 0 32 32" fill="none" xmlns="http://www.w3.org/2000/svg">
<path d="M9.43445 13.6181C9.49099 13.4579 9.62291 13.2883 9.8302 13.1093C9.97154 13.3637 10.1835 13.4909 10.4662 13.4909C10.9468 13.4909 11.187 13.2506 11.187 12.7701C11.187 12.657 11.1541 12.5534 11.0881 12.4592C11.3237 12.3932 11.5404 12.3885 11.7383 12.445C11.7854 12.3791 11.8089 12.2943 11.8089 12.1906C11.7712 11.6724 11.3001 11.5829 10.3956 11.9221C9.47215 12.2519 9.02929 12.6806 9.06698 13.2082C9.06698 13.4061 9.18947 13.5427 9.43445 13.6181V13.6181ZM22.5506 13.8019C23.1631 14.4143 23.7379 14.8855 24.275 15.2152C24.812 15.545 25.1513 15.6393 25.2926 15.4979C25.4339 15.3566 25.3397 15.0221 25.0099 14.4944C24.6801 13.9573 24.209 13.3779 23.5965 12.756C23.2291 12.3885 22.871 12.0728 22.5224 11.809C22.1266 12.0163 21.566 12.0728 20.8404 11.9786C21.4812 12.5816 22.0512 13.1894 22.5506 13.8019ZM25.3774 18.8335C25.7166 19.5119 26.0558 20.0537 26.395 20.4589C26.7342 20.8641 26.9886 21.0242 27.1583 20.9394C27.3373 20.8546 27.3608 20.506 27.2289 19.8935C27.1064 19.2811 26.8614 18.5791 26.494 17.7876C26.2584 17.2882 26.004 16.8077 25.7307 16.3459C25.3256 16.5061 24.7744 16.4119 24.0771 16.0633C24.5671 16.9396 25.0005 17.863 25.3774 18.8335ZM26.5081 23.7238C26.6494 24.9582 26.8756 25.5753 27.1865 25.5753C27.3561 25.5753 27.5022 25.3586 27.6247 24.9252C27.7566 24.4823 27.8414 23.9217 27.8791 23.2432C27.6529 22.3293 27.408 21.877 27.1441 21.8864C26.8332 21.8393 26.4987 21.665 26.1406 21.3635C26.3197 22.2021 26.4421 22.9888 26.5081 23.7238ZM28.077 27.5541C28.1806 27.0829 28.2277 26.4516 28.2183 25.6601C27.9168 26.2443 27.5728 26.5364 27.1865 26.5364C26.9792 26.5364 26.7672 26.4422 26.5505 26.2538C26.5317 26.461 26.5081 26.739 26.4798 27.0876C27.0358 27.2196 27.5681 27.375 28.077 27.5541ZM16.3318 9.20838C16.6615 9.32145 17.0102 9.45807 17.3777 9.61826C18.6968 9.60883 19.3752 9.43923 19.4129 9.10944C19.4224 8.91157 19.1397 8.73254 18.5649 8.57235C17.9901 8.41217 17.2128 8.36506 16.2328 8.43102C16.2988 8.68542 16.3318 8.94454 16.3318 9.20838ZM18.8476 10.3532C19.6391 10.7301 20.3458 10.9845 20.9676 11.1164C21.5895 11.2484 21.9429 11.2201 22.0277 11.0316C22.1596 10.7113 21.5848 10.1836 20.3034 9.44865C20.0961 9.85382 19.6108 10.1553 18.8476 10.3532ZM5.30738 21.0525C4.82683 21.0337 4.28033 20.7322 3.66786 20.1479C3.03655 19.2811 2.85281 18.5461 3.11664 17.9431C3.38989 17.34 4.10601 16.5297 5.26498 15.5121C5.49112 15.3142 5.76909 15.1116 6.09888 14.9043C6.35329 14.763 6.63125 14.5415 6.93277 14.24C7.33794 13.8348 7.65359 13.3779 7.87974 12.869C8.36971 11.6724 9.29312 10.683 10.65 9.90093C10.7065 9.86324 10.7489 9.83969 10.7772 9.83026C10.7395 9.33087 10.763 8.85974 10.8478 8.41688C10.9421 7.80442 11.1258 7.26733 11.3991 6.80563C11.9267 7.02235 12.412 7.31444 12.8548 7.68192C12.9962 7.79499 13.1328 7.91749 13.2647 8.0494C13.4814 7.68192 13.6982 7.37098 13.9149 7.11657C14.3012 6.65487 14.7252 6.28268 15.1869 6C15.5355 6.4617 15.8135 6.9611 16.0208 7.49818C16.0208 7.52645 16.0302 7.55943 16.0491 7.59712C16.0962 7.59712 16.1433 7.59712 16.1904 7.59712C16.2375 7.5877 16.2893 7.58299 16.3459 7.58299C16.9489 7.55472 17.5378 7.57828 18.1126 7.65366C18.6874 7.72904 19.1585 7.87038 19.526 8.07767C19.5825 8.10594 19.6343 8.12479 19.6815 8.13421C19.738 8.13421 19.8087 8.14834 19.8935 8.17661C20.7698 8.53467 21.4812 8.99166 22.0277 9.54759C22.5836 10.0941 22.8898 10.5746 22.9464 10.9892C23.3515 11.2531 23.7944 11.6158 24.2749 12.0775C25.5753 13.4061 26.2207 14.5557 26.2113 15.5262C26.6164 16.0067 27.0028 16.6239 27.3702 17.3777C28.1806 19.1586 28.3785 20.4966 27.9639 21.3917C28.6046 22.1644 28.9909 23.3233 29.1228 24.8686C29.1605 25.434 29.1605 25.9711 29.1228 26.4799C29.104 27.3185 29.0475 28.1336 28.9532 28.925C27.2666 28.1807 25.4292 27.719 23.441 27.5399C21.3681 27.3609 19.3705 27.5211 17.4483 28.0205C15.0173 28.9816 12.4497 29.3915 9.74538 29.2501C9.40617 29.2313 9.16118 29.2124 9.01042 29.1936C10.4992 26.4422 12.4308 24.3598 14.8053 22.9464C15.3424 22.4282 15.7004 21.6791 15.8795 20.6992C16.0019 19.9548 15.969 19.2575 15.7805 18.6074C15.4696 18.8052 15.2246 18.9419 15.0456 19.0172C14.075 19.4601 13.1092 19.6203 12.1481 19.4978C11.5357 20.1574 10.796 20.6568 9.92912 20.996C9.89143 21.0148 9.7124 21.0761 9.39204 21.1797C8.77015 21.698 8.13413 22.0325 7.48397 22.1832C6.84324 22.334 6.29673 22.2492 5.84445 21.9288C5.55235 21.7309 5.37332 21.4388 5.30736 21.0525L5.30738 21.0525ZM16.8547 17.7735C17.3541 17.1798 17.6839 16.5344 17.8441 15.8371C17.91 15.3472 17.7875 15.0739 17.4766 15.0174C17.1468 14.9514 16.9395 15.1681 16.8547 15.6675C16.7039 16.1763 16.4542 16.6475 16.1056 17.0809C15.7381 17.4672 15.6722 17.7688 15.9077 17.9855C16.1339 18.221 16.4495 18.1504 16.8547 17.7735ZM6.66423 20.6709C7.08824 20.4636 7.66773 20.1103 8.40269 19.6109C8.78901 19.3753 8.9115 19.1209 8.77017 18.8476C8.59114 18.5744 8.30846 18.5555 7.92214 18.7911C7.09295 19.3847 6.4852 19.7569 6.09888 19.9077C5.69371 20.1903 5.58535 20.4542 5.7738 20.6992C5.9434 20.9441 6.24021 20.9347 6.66423 20.6709V20.6709ZM5.30738 17.6463C4.78914 17.6463 4.53002 17.8112 4.53002 18.1409C4.53002 18.4707 4.78914 18.6356 5.30738 18.6356C5.8162 18.6356 6.07061 18.4707 6.07061 18.1409C6.07061 17.8112 5.8162 17.6463 5.30738 17.6463ZM15.5968 10.3956C15.3707 10.537 15.2058 10.6218 15.1021 10.65C15.0079 10.6689 14.9184 10.6877 14.8336 10.7066C14.6734 10.7442 14.5085 10.7537 14.3389 10.7348C14.2447 10.7348 14.141 10.7066 14.0279 10.65C13.7641 10.5087 13.5097 10.292 13.2647 9.99987C13.1799 10.7066 13.3966 11.1636 13.9149 11.3708C13.9337 11.3803 13.962 11.3944 13.9997 11.4133C14.0374 11.4227 14.0892 11.4368 14.1551 11.4557C14.3436 11.4557 14.4661 11.4462 14.5226 11.4274C15.0032 11.2389 15.3612 10.895 15.5968 10.3956Z" fill="black"/>
<path d="M9.43446 13.6181C9.491 13.4579 9.62291 13.2883 9.83021 13.1093C9.97155 13.3637 10.1836 13.4909 10.4662 13.4909C10.9468 13.4909 11.1871 13.2506 11.1871 12.7701C11.1871 12.657 11.1541 12.5534 11.0881 12.4592C11.3237 12.3932 11.5404 12.3885 11.7383 12.445C11.7854 12.3791 11.8089 12.2943 11.8089 12.1906C11.7713 11.6724 11.3001 11.5829 10.3956 11.9221C9.47215 12.2519 9.02929 12.6806 9.06698 13.2082C9.06698 13.4061 9.18948 13.5427 9.43446 13.6181ZM22.5506 13.8019C23.1631 14.4143 23.7379 14.8855 24.275 15.2152C24.8121 15.545 25.1513 15.6393 25.2926 15.4979C25.4339 15.3566 25.3397 15.0221 25.0099 14.4944C24.6801 13.9573 24.209 13.3779 23.5965 12.756C23.2291 12.3885 22.871 12.0728 22.5224 11.809C22.1266 12.0163 21.566 12.0728 20.8404 11.9786C21.4812 12.5816 22.0512 13.1894 22.5506 13.8019ZM25.3774 18.8335C25.7166 19.5119 26.0558 20.0537 26.395 20.4589C26.7342 20.8641 26.9887 21.0242 27.1583 20.9394C27.3373 20.8546 27.3608 20.506 27.2289 19.8935C27.1064 19.2811 26.8615 18.5791 26.494 17.7876C26.2584 17.2882 26.004 16.8077 25.7307 16.346C25.3256 16.5061 24.7744 16.4119 24.0771 16.0633C24.5671 16.9396 25.0005 17.863 25.3774 18.8335ZM26.5081 23.7238C26.6494 24.9582 26.8756 25.5753 27.1865 25.5753C27.3561 25.5753 27.5022 25.3586 27.6247 24.9252C27.7566 24.4823 27.8414 23.9217 27.8791 23.2433C27.6529 22.3293 27.408 21.877 27.1441 21.8864C26.8332 21.8393 26.4987 21.665 26.1406 21.3635C26.3197 22.2021 26.4422 22.9888 26.5081 23.7238ZM28.077 27.5541C28.1806 27.0829 28.2277 26.4516 28.2183 25.6601C27.9168 26.2443 27.5729 26.5364 27.1865 26.5364C26.9792 26.5364 26.7672 26.4422 26.5505 26.2538C26.5317 26.4611 26.5081 26.739 26.4798 27.0876C27.0358 27.2196 27.5681 27.375 28.077 27.5541ZM16.3318 9.20838C16.6616 9.32145 17.0102 9.45807 17.3777 9.61826C18.6968 9.60884 19.3752 9.43923 19.4129 9.10944C19.4224 8.91157 19.1397 8.73254 18.5649 8.57236C17.9901 8.41217 17.2128 8.36506 16.2328 8.43102C16.2988 8.68543 16.3318 8.94455 16.3318 9.20838ZM18.8476 10.3532C19.6391 10.7301 20.3458 10.9845 20.9677 11.1164C21.5895 11.2484 21.9429 11.2201 22.0277 11.0316C22.1596 10.7113 21.5848 10.1836 20.3034 9.44865C20.0961 9.85382 19.6108 10.1553 18.8476 10.3532ZM16.8547 17.7735C17.3541 17.1798 17.6839 16.5344 17.8441 15.8371C17.91 15.3472 17.7875 15.0739 17.4766 15.0174C17.1468 14.9514 16.9395 15.1681 16.8547 15.6675C16.704 16.1763 16.4543 16.6475 16.1056 17.0809C15.7381 17.4672 15.6722 17.7688 15.9077 17.9855C16.1339 18.221 16.4495 18.1504 16.8547 17.7735ZM6.66424 20.6709C7.08825 20.4636 7.66774 20.1103 8.40269 19.6109C8.78902 19.3753 8.91151 19.1209 8.77017 18.8476C8.59114 18.5744 8.30847 18.5555 7.92214 18.7911C7.09296 19.3847 6.48521 19.7569 6.09888 19.9077C5.69371 20.1903 5.58535 20.4542 5.7738 20.6992C5.94341 20.9442 6.24022 20.9347 6.66424 20.6709ZM5.30739 17.6463C4.78915 17.6463 4.53003 17.8112 4.53003 18.1409C4.53003 18.4707 4.78915 18.6356 5.30739 18.6356C5.81621 18.6356 6.07062 18.4707 6.07062 18.1409C6.07062 17.8112 5.81621 17.6463 5.30739 17.6463ZM15.5968 10.3956C15.3707 10.537 15.2058 10.6218 15.1021 10.65C15.0079 10.6689 14.9184 10.6877 14.8336 10.7066C14.6734 10.7443 14.5085 10.7537 14.3389 10.7348C14.2447 10.7348 14.141 10.7066 14.028 10.65C13.7641 10.5087 13.5097 10.292 13.2647 9.99987C13.1799 10.7066 13.3966 11.1636 13.9149 11.3708C13.9337 11.3803 13.962 11.3944 13.9997 11.4133C14.0374 11.4227 14.0892 11.4368 14.1552 11.4557C14.3436 11.4557 14.4661 11.4462 14.5226 11.4274C15.0032 11.2389 15.3612 10.895 15.5968 10.3956Z" fill="#EEEEEE"/>
</svg>
