<svg width="32" height="32" viewBox="0 0 32 32" fill="none" xmlns="http://www.w3.org/2000/svg">
<path d="M17.3319 14.9715H15.65C15.65 16.3566 15.1365 17.5203 14.1094 18.4625C13.1201 19.2446 12.6254 20.2575 12.6254 21.5013C12.6254 22.566 13.0023 23.4753 13.7561 24.2291C14.5099 24.9829 15.4239 25.3598 16.4981 25.3598C17.5534 25.3598 18.4579 24.9829 19.2117 24.2291C19.975 23.4753 20.3566 22.566 20.3566 21.5013C20.3566 20.2575 19.8619 19.2446 18.8725 18.4625C17.8455 17.5203 17.3319 16.3566 17.3319 14.9715ZM17.2613 11.1836C16.9692 11.2684 16.7148 11.3108 16.4981 11.3108C16.2248 11.3108 15.9704 11.2684 15.7348 11.1836C15.2825 11.9845 14.6465 12.6017 13.8268 13.0351C13.3179 13.3178 12.8751 13.6382 12.4982 13.9962H20.4979C20.1116 13.6382 19.6687 13.3178 19.1693 13.0351C18.359 12.6111 17.723 11.9939 17.2613 11.1836ZM16.4981 7.94697C15.6877 7.94697 15.2825 8.34742 15.2825 9.14834C15.2825 9.95868 15.6877 10.3638 16.4981 10.3638C17.299 10.3638 17.6994 9.95868 17.6994 9.14834C17.6994 8.34742 17.299 7.94697 16.4981 7.94697ZM18.7595 25.7556C20.1069 26.2644 21.1858 27.0889 21.9961 28.229V29.1901H11V28.229C11.8198 27.0606 12.9034 26.2361 14.2508 25.7556C13.4781 25.3598 12.8515 24.785 12.371 24.0312C11.8999 23.268 11.6643 22.4247 11.6643 21.5013C11.6643 19.956 12.272 18.6981 13.4876 17.7276C14.2885 16.9738 14.6889 16.0551 14.6889 14.9715H11.1979V13.9962C11.8103 13.2424 12.5406 12.6441 13.3886 12.2012C14.0293 11.8526 14.5429 11.3391 14.9292 10.6607C14.5335 10.2366 14.3356 9.73254 14.3356 9.14834C14.3356 8.55472 14.5429 8.05061 14.9575 7.63602C15.3815 7.21201 15.895 7 16.4981 7C17.0917 7 17.5958 7.21201 18.0104 7.63602C18.4344 8.05061 18.6464 8.55472 18.6464 9.14834C18.6464 9.71369 18.4532 10.2178 18.0669 10.6607C18.425 11.3297 18.9432 11.8432 19.6216 12.2012C20.4885 12.6629 21.214 13.2519 21.7982 13.968V14.9715H18.3072C18.2883 16.0551 18.6935 16.9832 19.5227 17.7558C20.7193 18.7075 21.3177 19.956 21.3177 21.5013C21.3177 22.4153 21.0774 23.2492 20.5969 24.003C20.1163 24.7568 19.5038 25.341 18.7595 25.7556ZM20.7806 28.229C19.6499 26.9475 18.2224 26.3068 16.4981 26.3068C14.7737 26.3068 13.3415 26.9475 12.2014 28.229H20.7806Z" fill="black"/>
<path d="M17.332 14.9715H15.65C15.65 16.3566 15.1365 17.5203 14.1094 18.4625C13.1201 19.2446 12.6254 20.2575 12.6254 21.5013C12.6254 22.566 13.0023 23.4753 13.7561 24.2291C14.5099 24.9829 15.4239 25.3598 16.4981 25.3598C17.5534 25.3598 18.458 24.9829 19.2118 24.2291C19.975 23.4753 20.3566 22.566 20.3566 21.5013C20.3566 20.2575 19.8619 19.2446 18.8725 18.4625C17.8455 17.5203 17.332 16.3566 17.332 14.9715ZM17.2613 11.1836C16.9692 11.2684 16.7148 11.3108 16.4981 11.3108C16.2248 11.3108 15.9704 11.2684 15.7348 11.1836C15.2826 11.9845 14.6465 12.6017 13.8268 13.0351C13.318 13.3178 12.8751 13.6382 12.4982 13.9962H20.4979C20.1116 13.6382 19.6688 13.3178 19.1694 13.0351C18.359 12.6111 17.723 11.994 17.2613 11.1836ZM16.4981 7.94698C15.6877 7.94698 15.2826 8.34743 15.2826 9.14835C15.2826 9.95869 15.6877 10.3639 16.4981 10.3639C17.299 10.3639 17.6994 9.95869 17.6994 9.14835C17.6994 8.34743 17.299 7.94698 16.4981 7.94698ZM20.7806 28.229C19.6499 26.9475 18.2224 26.3068 16.4981 26.3068C14.7737 26.3068 13.3415 26.9475 12.2014 28.229H20.7806Z" fill="white"/>
</svg>
