<svg width="32" height="32" viewBox="0 0 32 32" fill="none" xmlns="http://www.w3.org/2000/svg">
<path d="M3.68192 12.8549C3.2108 12.8549 2.81034 12.69 2.48055 12.3602C2.16018 12.0304 2 11.63 2 11.1588C2 10.0376 2.56064 9.47692 3.68192 9.47692C4.14363 9.47692 4.53937 9.64181 4.86916 9.9716C5.20838 10.3014 5.37798 10.6971 5.37798 11.1588C5.37798 11.63 5.20838 12.0304 4.86916 12.3602C4.53937 12.69 4.14363 12.8549 3.68192 12.8549ZM3.68192 11.8938C4.1719 11.8938 4.41688 11.6488 4.41688 11.1588C4.41688 10.6689 4.1719 10.4239 3.68192 10.4239C3.19195 10.4239 2.94697 10.6689 2.94697 11.1588C2.94697 11.6488 3.19195 11.8938 3.68192 11.8938ZM27.4126 12.8549C26.9509 12.8549 26.5551 12.69 26.2254 12.3602C25.8956 12.0304 25.7307 11.63 25.7307 11.1588C25.7307 10.6971 25.8956 10.3014 26.2254 9.9716C26.5551 9.64181 26.9509 9.47692 27.4126 9.47692C27.8743 9.47692 28.27 9.64181 28.5998 9.9716C28.939 10.3014 29.1087 10.6971 29.1087 11.1588C29.1087 11.63 28.939 12.0304 28.5998 12.3602C28.27 12.69 27.8743 12.8549 27.4126 12.8549ZM27.4126 11.8938C27.9026 11.8938 28.1476 11.6488 28.1476 11.1588C28.1476 10.6689 27.9026 10.4239 27.4126 10.4239C26.932 10.4239 26.6918 10.6689 26.6918 11.1588C26.6918 11.6488 26.932 11.8938 27.4126 11.8938ZM9.47679 11.1164C9.00566 11.1164 8.6052 10.9515 8.27541 10.6218C7.94562 10.292 7.78073 9.89151 7.78073 9.42038C7.78073 8.9681 7.94562 8.57706 8.27541 8.24728C8.6052 7.90806 9.00566 7.73846 9.47679 7.73846C9.93849 7.73846 10.3342 7.90806 10.664 8.24728C10.9938 8.57706 11.1587 8.9681 11.1587 9.42038C11.1587 9.89151 10.9938 10.292 10.664 10.6218C10.3342 10.9515 9.93849 11.1164 9.47679 11.1164ZM9.47679 10.1553C9.96676 10.1553 10.2117 9.91035 10.2117 9.42038C10.2117 8.93041 9.96676 8.68542 9.47679 8.68542C8.98681 8.68542 8.74183 8.93041 8.74183 9.42038C8.74183 9.91035 8.98681 10.1553 9.47679 10.1553ZM21.6319 11.1164C21.1607 11.1164 20.7603 10.9515 20.4305 10.6218C20.1007 10.292 19.9358 9.89151 19.9358 9.42038C19.9358 8.9681 20.1007 8.57706 20.4305 8.24728C20.7603 7.90806 21.1607 7.73846 21.6319 7.73846C22.0936 7.73846 22.4893 7.90806 22.8191 8.24728C23.1489 8.57706 23.3138 8.9681 23.3138 9.42038C23.3138 9.89151 23.1489 10.292 22.8191 10.6218C22.4893 10.9515 22.0936 11.1164 21.6319 11.1164ZM21.6319 10.1553C22.1218 10.1553 22.3668 9.91035 22.3668 9.42038C22.3668 8.93041 22.1218 8.68542 21.6319 8.68542C21.1419 8.68542 20.8969 8.93041 20.8969 9.42038C20.8969 9.91035 21.1419 10.1553 21.6319 10.1553ZM21.9993 27.3138C21.0759 27.1348 20.0677 26.9652 18.9747 26.805C17.8817 26.6354 16.7416 26.5506 15.5543 26.5506C14.3482 26.5506 13.1987 26.6354 12.1057 26.805C11.0127 26.9652 10.0092 27.1348 9.09517 27.3138C11.008 27.8414 13.161 28.1053 15.5543 28.1053C17.9382 28.1053 20.0866 27.8414 21.9993 27.3138ZM24.6706 21.5472C24.8402 21.877 24.925 22.2209 24.925 22.579C24.925 23.1349 24.746 23.606 24.388 23.9923C24.4162 24.096 24.4304 24.2043 24.4304 24.3174C24.4304 24.8828 24.256 25.3539 23.9074 25.7308C23.9451 25.8627 23.9639 26.0088 23.9639 26.1689C23.9639 27.1772 23.5446 27.8038 22.706 28.0487C20.5671 28.7649 18.1832 29.1229 15.5543 29.1229C12.916 29.1229 10.5321 28.7649 8.40262 28.0487C7.56401 27.8038 7.14471 27.1772 7.14471 26.1689C7.14471 26.0088 7.16355 25.8627 7.20124 25.7308C6.85261 25.3539 6.67829 24.8828 6.67829 24.3174C6.67829 24.2043 6.69243 24.096 6.72069 23.9923C6.36264 23.6249 6.18361 23.1584 6.18361 22.5931C6.18361 22.2633 6.24957 21.9571 6.38148 21.6744L4.38861 12.7418L8.8549 17.9289L9.7736 11.2719L12.6428 17.4201L15.5543 9.39211L18.4659 17.4201L21.3209 11.2719L22.2396 17.9289L26.72 12.7277L24.6706 21.5472ZM23.0311 26.6636C23.1065 26.5129 23.1442 26.348 23.1442 26.1689C23.1442 25.7355 22.9652 25.4293 22.6071 25.2503C22.6825 25.2691 22.7437 25.2785 22.7908 25.2785C23.3373 25.2785 23.6106 24.9581 23.6106 24.3174C23.6106 23.997 23.5022 23.7426 23.2855 23.5542C23.832 23.5447 24.1053 23.2197 24.1053 22.5789C24.1053 22.1172 23.9168 21.811 23.5399 21.6602C21.3633 20.9912 18.7203 20.6567 15.6109 20.6567C12.4732 20.6567 9.79715 20.996 7.58286 21.6744C7.19653 21.8063 7.00337 22.1125 7.00337 22.5931C7.00337 23.2244 7.27662 23.5448 7.82313 23.5542C7.60641 23.7615 7.49805 24.0159 7.49805 24.3174C7.49805 24.9581 7.7666 25.2785 8.30368 25.2785C8.33195 25.2785 8.36493 25.2785 8.40262 25.2785C8.44031 25.2691 8.47329 25.2644 8.50155 25.2644C8.1435 25.4245 7.96447 25.7261 7.96447 26.1689C7.96447 26.3479 8.00216 26.5128 8.07754 26.6636C9.12344 26.3809 10.2777 26.1359 11.5403 25.9286C12.8124 25.7119 14.1504 25.6036 15.5543 25.6036C16.9583 25.6036 18.2963 25.7119 19.5683 25.9286C20.8404 26.1454 21.9946 26.3904 23.0311 26.6636V26.6636ZM15.5543 9.37798C15.0832 9.37798 14.6827 9.21309 14.353 8.8833C14.0232 8.55351 13.8583 8.15305 13.8583 7.68192C13.8583 7.22964 14.0232 6.83861 14.353 6.50882C14.6827 6.16961 15.0832 6 15.5543 6C16.016 6 16.4118 6.16961 16.7416 6.50882C17.0714 6.83861 17.2362 7.22964 17.2362 7.68192C17.2362 8.15305 17.0714 8.55351 16.7416 8.8833C16.4118 9.21309 16.016 9.37798 15.5543 9.37798ZM15.5543 8.41688C16.0443 8.41688 16.2893 8.1719 16.2893 7.68192C16.2893 7.20137 16.0443 6.9611 15.5543 6.9611C15.0644 6.9611 14.8194 7.20137 14.8194 7.68192C14.8194 8.1719 15.0644 8.41688 15.5543 8.41688ZM23.9357 20.8264L25.0805 16.0209L23.0028 18.466C22.7673 18.6827 22.5223 18.7911 22.2679 18.7911C21.7025 18.7911 21.3822 18.5178 21.3068 17.9713L20.8121 14.6358L19.2291 17.9996C19.0312 18.254 18.7721 18.3812 18.4518 18.3812C18.122 18.3812 17.8534 18.2446 17.6461 17.9713L15.5543 12.2189L13.4625 17.9572C13.2552 18.2399 12.982 18.3812 12.6428 18.3812C12.3318 18.3812 12.0774 18.2634 11.8795 18.0279L10.2824 14.6358L9.80186 17.9572C9.69822 18.5037 9.37314 18.777 8.82663 18.777C8.5628 18.777 8.32724 18.678 8.11994 18.4802L6.014 16.0209L7.17298 20.8264C9.54746 20.0726 12.3412 19.6957 15.5543 19.6957C18.7674 19.6957 21.5612 20.0726 23.9357 20.8264Z" fill="black"/>
<path d="M3.68189 11.8938C4.17186 11.8938 4.41685 11.6488 4.41685 11.1588C4.41685 10.6689 4.17186 10.4239 3.68189 10.4239C3.19192 10.4239 2.94693 10.6689 2.94693 11.1588C2.94693 11.6488 3.19192 11.8938 3.68189 11.8938ZM27.4126 11.8938C27.9025 11.8938 28.1475 11.6488 28.1475 11.1588C28.1475 10.6689 27.9025 10.4239 27.4126 10.4239C26.932 10.4239 26.6917 10.6689 26.6917 11.1588C26.6917 11.6488 26.932 11.8938 27.4126 11.8938ZM9.47675 10.1553C9.96672 10.1553 10.2117 9.91035 10.2117 9.42037C10.2117 8.9304 9.96672 8.68541 9.47675 8.68541C8.98678 8.68541 8.74179 8.9304 8.74179 9.42037C8.74179 9.91035 8.98678 10.1553 9.47675 10.1553ZM21.6318 10.1553C22.1218 10.1553 22.3668 9.91035 22.3668 9.42037C22.3668 8.9304 22.1218 8.68541 21.6318 8.68541C21.1419 8.68541 20.8969 8.9304 20.8969 9.42037C20.8969 9.91035 21.1419 10.1553 21.6318 10.1553ZM21.9993 27.3138C21.0759 27.1348 20.0677 26.9651 18.9747 26.805C17.8817 26.6354 16.7415 26.5506 15.5543 26.5506C14.3482 26.5506 13.1987 26.6354 12.1056 26.805C11.0126 26.9651 10.0091 27.1348 9.09514 27.3138C11.0079 27.8414 13.161 28.1053 15.5543 28.1053C17.9382 28.1053 20.0865 27.8414 21.9993 27.3138ZM23.0311 26.6636C23.1065 26.5129 23.1441 26.348 23.1441 26.1689C23.1441 25.7355 22.9651 25.4293 22.6071 25.2502C22.6824 25.2691 22.7437 25.2785 22.7908 25.2785C23.3373 25.2785 23.6106 24.9581 23.6106 24.3174C23.6106 23.997 23.5022 23.7426 23.2855 23.5542C23.832 23.5447 24.1052 23.2197 24.1052 22.5789C24.1052 22.1172 23.9168 21.811 23.5399 21.6602C21.3633 20.9912 18.7203 20.6567 15.6108 20.6567C12.4731 20.6567 9.79712 20.9959 7.58282 21.6744C7.19649 21.8063 7.00333 22.1125 7.00333 22.5931C7.00333 23.2244 7.27659 23.5447 7.8231 23.5542C7.60638 23.7615 7.49802 24.0159 7.49802 24.3174C7.49802 24.9581 7.76656 25.2785 8.30364 25.2785C8.33191 25.2785 8.36489 25.2785 8.40258 25.2785C8.44027 25.2691 8.47325 25.2643 8.50152 25.2643C8.14346 25.4245 7.96443 25.7261 7.96443 26.1689C7.96443 26.3479 8.00212 26.5128 8.0775 26.6636C9.12341 26.3809 10.2777 26.1359 11.5403 25.9286C12.8123 25.7119 14.1503 25.6036 15.5543 25.6036C16.9582 25.6036 18.2962 25.7119 19.5683 25.9286C20.8403 26.1454 21.9946 26.3904 23.0311 26.6636ZM15.5543 8.41687C16.0443 8.41687 16.2892 8.17189 16.2892 7.68191C16.2892 7.20136 16.0443 6.96109 15.5543 6.96109C15.0643 6.96109 14.8193 7.20136 14.8193 7.68191C14.8193 8.17189 15.0643 8.41687 15.5543 8.41687ZM23.9356 20.8264L25.0805 16.0209L23.0028 18.466C22.7672 18.6827 22.5223 18.7911 22.2678 18.7911C21.7025 18.7911 21.3821 18.5178 21.3068 17.9713L20.8121 14.6357L19.2291 17.9996C19.0312 18.254 18.7721 18.3812 18.4517 18.3812C18.1219 18.3812 17.8534 18.2446 17.6461 17.9713L15.5543 12.2189L13.4625 17.9572C13.2552 18.2399 12.9819 18.3812 12.6427 18.3812C12.3318 18.3812 12.0774 18.2634 11.8795 18.0279L10.2824 14.6357L9.80183 17.9572C9.69818 18.5037 9.3731 18.777 8.8266 18.777C8.56276 18.777 8.3272 18.678 8.1199 18.4801L6.01397 16.0209L7.17294 20.8264C9.54742 20.0726 12.3412 19.6957 15.5543 19.6957C18.7674 19.6957 21.5612 20.0726 23.9356 20.8264Z" fill="white"/>
</svg>
