<svg width="32" height="32" viewBox="0 0 32 32" fill="none" xmlns="http://www.w3.org/2000/svg">
<path d="M13.3284 16.8548H18.1481V18.6639H13.3284V16.8548ZM22.4589 26.1972C22.2987 25.3398 21.7428 24.911 20.7911 24.911H10.6996C9.73846 24.911 9.18253 25.3398 9.03177 26.1972H22.4589ZM21.1303 19.625L21.2858 21.4624C21.7475 21.4624 22.1432 21.6273 22.473 21.9571C22.8122 22.2869 22.9818 22.6826 22.9818 23.1443C22.9818 23.6437 22.7934 24.063 22.4165 24.4022C23.1232 24.9582 23.4765 25.6696 23.4765 26.5364V29.1795H8V26.5364C8 25.6601 8.35806 24.9534 9.07417 24.4164C8.69727 24.0866 8.50882 23.6626 8.50882 23.1443C8.50882 22.6826 8.67371 22.2869 9.0035 21.9571C9.33329 21.6273 9.72904 21.4624 10.1907 21.4624L10.3745 19.625H15.2648V21.4341H16.2259V19.625H21.1303ZM21.0314 18.6639H19.1092V16.8548H20.8618L21.0314 18.6639ZM20.777 15.8937H16.2259V14.0845H20.6074L20.777 15.8937ZM20.5084 13.1234L19.1092 13.1093V11.3143H18.1481V13.1093H13.3284V11.3143H12.3815V13.1093H11.0105L11.166 11.3143L8.76323 9.8868V6H11.6465V7.44165H14.0634V6H17.4273V7.44165H19.8441V6H22.7557V9.8868L20.3388 11.3143L20.5084 13.1234ZM10.7278 15.8937L10.9116 14.0845H15.2648V15.8937H10.7278ZM10.4734 18.6498L10.643 16.8689L12.3815 16.8548V18.6639L10.4734 18.6498ZM21.7663 9.34971H9.71019L11.3921 10.3673H15.7453H20.0844L21.7663 9.34971ZM15.7453 22.4942H10.1907C9.71019 22.4942 9.46992 22.7109 9.46992 23.1443C9.46992 23.5872 9.71019 23.8086 10.1907 23.8086H21.2858C21.7758 23.8086 22.0207 23.5872 22.0207 23.1443C22.0207 22.7109 21.7758 22.4942 21.2858 22.4942H15.7453Z" fill="black"/>
<path fill-rule="evenodd" clip-rule="evenodd" d="M10.3745 19.625H15.2648V21.4341H16.2259V19.625H21.1303L21.0314 18.6639H19.1092V16.8548H20.8618L20.777 15.8937H16.2259V14.0845H20.6074L20.5085 13.1234L19.1092 13.1093V11.3143H18.1481V13.1093H13.3285V11.3143H12.3815V13.1093H11.0105L10.9116 14.0845H15.2648V15.8937H10.7279L10.6431 16.8689L12.3815 16.8548V18.6639L10.4734 18.6498L10.3745 19.625ZM18.1481 16.8548H13.3285V18.6639H18.1481V16.8548Z" fill="#EEEEEE"/>
<path fill-rule="evenodd" clip-rule="evenodd" d="M22.4589 26.1972C22.2987 25.3398 21.7428 24.911 20.7911 24.911H10.6996C9.73849 24.911 9.18256 25.3398 9.0318 26.1972H22.4589ZM15.7454 22.4942H10.1908C9.71022 22.4942 9.46995 22.7109 9.46995 23.1443C9.46995 23.5872 9.71022 23.8086 10.1908 23.8086H21.2858C21.7758 23.8086 22.0208 23.5872 22.0208 23.1443C22.0208 22.7109 21.7758 22.4942 21.2858 22.4942H15.7454Z" fill="#EEEEEE"/>
<path d="M21.7664 9.34972H9.71022L11.3921 10.3674H15.7454H20.0844L21.7664 9.34972Z" fill="#EEEEEE"/>
</svg>
