<svg width="32" height="32" viewBox="0 0 32 32" fill="none" xmlns="http://www.w3.org/2000/svg">
<path d="M22.473 26.5223C22.473 26.07 22.3081 25.679 21.9783 25.3492C21.6486 25.01 21.2528 24.8404 20.7911 24.8404H10.6996C10.2284 24.8404 9.82797 25.01 9.49818 25.3492C9.17782 25.679 9.01763 26.07 9.01763 26.5223V26.5364V28.2184H22.473V26.5223ZM20.3388 11.3143L21.2858 21.4624C21.7475 21.4624 22.1432 21.6273 22.473 21.9571C22.8122 22.2869 22.9818 22.6826 22.9818 23.1443C22.9818 23.6437 22.7934 24.063 22.4165 24.4022C23.1232 24.9582 23.4765 25.6696 23.4765 26.5364V29.1795H8V26.5364C8 25.6601 8.35806 24.9534 9.07417 24.4164C8.69727 24.0866 8.50882 23.6626 8.50882 23.1443C8.50882 22.6826 8.67371 22.2869 9.0035 21.9571C9.33329 21.6273 9.72904 21.4624 10.1907 21.4624L11.166 11.3143L8.76323 9.8868V6H11.6465V7.44165H14.0634V6H17.4273V7.44165H19.8441V6H22.7557V9.8868L20.3388 11.3143ZM15.7453 10.3673H20.0844L21.7663 9.34971V6.9611H20.8194V8.41688H16.4662V6.9611H15.7453H15.0104V8.41688H10.6713V6.9611H9.71019V9.34971L11.3921 10.3673H15.7453ZM19.3495 11.3143L12.0988 11.3285L10.9681 22.4094L10.1907 22.4235C9.71019 22.4235 9.46992 22.6638 9.46992 23.1443C9.46992 23.6343 9.71019 23.8793 10.1907 23.8793H21.2858C21.7758 23.8793 22.0207 23.6343 22.0207 23.1443C22.0207 22.6638 21.7758 22.4235 21.2858 22.4235H20.5226L19.3495 11.3143Z" fill="black"/>
<path d="M22.4731 26.5223C22.4731 26.07 22.3082 25.679 21.9784 25.3492C21.6486 25.01 21.2528 24.8404 20.7911 24.8404H10.6996C10.2285 24.8404 9.82801 25.01 9.49822 25.3492C9.17785 25.679 9.01767 26.07 9.01767 26.5223V26.5364V28.2184H22.4731V26.5223ZM15.7454 10.3673H20.0844L21.7664 9.3497V6.96109H20.8194V8.41687H16.4662V6.96109H15.7454H15.0104V8.41687H10.6713V6.96109H9.71023V9.3497L11.3921 10.3673H15.7454ZM19.3495 11.3143L12.0988 11.3284L10.9681 22.4094L10.1908 22.4235C9.71023 22.4235 9.46995 22.6638 9.46995 23.1443C9.46995 23.6343 9.71023 23.8793 10.1908 23.8793H21.2858C21.7758 23.8793 22.0208 23.6343 22.0208 23.1443C22.0208 22.6638 21.7758 22.4235 21.2858 22.4235H20.5226L19.3495 11.3143Z" fill="white"/>
</svg>
