<svg width="180" height="180" viewBox="0 0 180 180" fill="none" xmlns="http://www.w3.org/2000/svg">
<path d="M53.0688 76.6018C53.3868 75.7007 54.1289 74.7467 55.2949 73.7398C56.0899 75.1708 57.2822 75.8863 58.8724 75.8863C61.5757 75.8863 62.9269 74.5346 62.9269 71.8318C62.9269 71.1956 62.7418 70.6129 62.3706 70.083C63.6958 69.7117 64.9147 69.6853 66.0279 70.0031C66.2929 69.6324 66.4251 69.1554 66.4251 68.5721C66.213 65.6573 63.5631 65.1538 58.4752 67.0618C53.2808 68.9169 50.7898 71.3284 51.0018 74.2961C51.0018 75.4093 51.6908 76.1777 53.0688 76.6018ZM126.847 77.6357C130.292 81.0804 133.526 83.7309 136.547 85.5855C139.567 87.4406 141.476 87.9711 142.271 87.1757C143.066 86.3809 142.536 84.4993 140.681 81.531C138.826 78.5098 136.176 75.2507 132.73 71.7525C130.664 69.6853 128.649 67.9095 126.688 66.4256C124.462 67.5917 121.309 67.9095 117.227 67.3796C120.832 70.7715 124.038 74.1904 126.847 77.6357ZM142.748 105.938C144.656 109.754 146.564 112.802 148.472 115.081C150.38 117.361 151.811 118.261 152.765 117.784C153.772 117.307 153.904 115.346 153.163 111.901C152.473 108.456 151.095 104.507 149.029 100.055C147.703 97.2461 146.272 94.5433 144.735 91.9457C142.456 92.8468 139.356 92.3169 135.434 90.3561C138.19 95.2852 140.628 100.479 142.748 105.938ZM149.108 133.446C149.903 140.39 151.175 143.861 152.924 143.861C153.878 143.861 154.7 142.642 155.389 140.204C156.131 137.713 156.608 134.56 156.82 130.743C155.548 125.602 154.17 123.058 152.686 123.111C150.937 122.846 149.055 121.866 147.041 120.17C148.048 124.887 148.737 129.312 149.108 133.446ZM157.933 154.992C158.516 152.341 158.781 148.79 158.728 144.338C157.032 147.624 155.097 149.267 152.924 149.267C151.758 149.267 150.565 148.737 149.347 147.678C149.241 148.843 149.108 150.407 148.949 152.368C152.076 153.11 155.071 153.984 157.933 154.992ZM91.8664 51.7971C93.7209 52.4332 95.6824 53.2016 97.7496 54.1027C105.169 54.0497 108.985 53.0957 109.198 51.2406C109.251 50.1276 107.661 49.1205 104.428 48.2195C101.194 47.3185 96.822 47.0535 91.3095 47.4245C91.6807 48.8555 91.8664 50.313 91.8664 51.7971ZM106.018 58.2367C110.47 60.3568 114.445 61.7878 117.943 62.5297C121.441 63.2722 123.429 63.1131 123.906 62.0527C124.648 60.2511 121.414 57.2828 114.207 53.1487C113.041 55.4277 110.311 57.1236 106.018 58.2367ZM29.854 118.42C27.1509 118.315 24.0769 116.619 20.6317 113.332C17.0806 108.456 16.0471 104.322 17.5311 100.93C19.0681 97.5375 23.0963 92.9796 29.6155 87.2556C30.8875 86.1424 32.4511 85.0027 34.3062 83.8367C35.7373 83.0419 37.3008 81.7959 38.9968 80.1C41.2759 77.8207 43.0514 75.2507 44.3235 72.3881C47.0796 65.6573 52.2738 60.0919 59.9062 55.6927C60.2241 55.4807 60.4626 55.3483 60.6217 55.2952C60.4097 52.4861 60.5419 49.836 61.0189 47.3449C61.5493 43.8999 62.5826 40.8787 64.1199 38.2817C67.0877 39.5007 69.8175 41.1437 72.3082 43.2108C73.1036 43.8468 73.872 44.5359 74.6139 45.2779C75.8329 43.2108 77.0524 41.4618 78.2713 40.0307C80.4442 37.4336 82.8292 35.3401 85.4263 33.75C87.3872 36.3471 88.9509 39.1562 90.117 42.1773C90.117 42.3363 90.1699 42.5218 90.2762 42.7338C90.5411 42.7338 90.8061 42.7338 91.071 42.7338C91.3359 42.6808 91.6273 42.6543 91.9457 42.6543C95.3376 42.4953 98.6501 42.6278 101.883 43.0518C105.117 43.4758 107.767 44.2709 109.834 45.4369C110.152 45.5959 110.443 45.7019 110.708 45.7549C111.026 45.7549 111.424 45.8344 111.901 45.9934C116.83 48.0075 120.832 50.5781 123.906 53.7052C127.033 56.7793 128.755 59.4821 129.073 61.8142C131.352 63.2987 133.843 65.3389 136.546 67.9359C143.861 75.4093 147.491 81.8758 147.439 87.3349C149.717 90.0377 151.891 93.5094 153.957 97.7496C158.516 107.767 159.629 115.293 157.297 120.328C160.901 124.675 163.074 131.194 163.816 139.886C164.028 143.066 164.028 146.087 163.816 148.949C163.71 153.667 163.392 158.251 162.862 162.703C153.375 158.516 143.039 155.919 131.856 154.912C120.196 153.905 108.959 154.806 98.1467 157.615C84.4723 163.022 70.0296 165.327 54.8178 164.532C52.9097 164.426 51.5316 164.32 50.6836 164.214C59.058 148.737 69.9232 137.024 83.2798 129.073C86.301 126.159 88.3147 121.945 89.3222 116.433C90.0107 112.246 89.8256 108.323 88.7653 104.667C87.0165 105.779 85.6384 106.548 84.6315 106.972C79.1719 109.463 73.7392 110.364 68.3331 109.675C64.8883 113.385 60.7275 116.195 55.8513 118.103C55.6393 118.208 54.6322 118.553 52.8302 119.136C49.3321 122.051 45.7545 123.933 42.0973 124.781C38.4932 125.629 35.4191 125.152 32.875 123.35C31.232 122.236 30.2249 120.593 29.8539 118.42H29.854ZM94.8077 99.9759C97.6168 96.6364 99.4719 93.006 100.373 89.0837C100.744 86.328 100.055 84.7907 98.3059 84.4729C96.4507 84.1016 95.2847 85.3206 94.8077 88.1297C93.9594 90.9917 92.5549 93.6422 90.594 96.0801C88.5268 98.253 88.1561 99.9495 89.4808 101.168C90.7532 102.493 92.5284 102.096 94.8077 99.9759ZM37.4863 116.274C39.8713 115.108 43.131 113.12 47.2651 110.311C49.4382 108.986 50.1272 107.555 49.3322 106.018C48.3252 104.481 46.7351 104.375 44.562 105.7C39.8978 109.039 36.4792 111.133 34.3062 111.981C32.0271 113.57 31.4176 115.055 32.4776 116.433C33.4316 117.811 35.1012 117.758 37.4863 116.274ZM29.854 99.2604C26.9389 99.2604 25.4814 100.188 25.4814 102.043C25.4814 103.898 26.9389 104.825 29.854 104.825C32.7161 104.825 34.1472 103.898 34.1472 102.043C34.1472 100.188 32.7161 99.2604 29.854 99.2604ZM87.732 58.4753C86.4602 59.2706 85.5326 59.7476 84.9493 59.9062C84.4194 60.0126 83.916 60.1183 83.439 60.2246C82.5379 60.4361 81.6103 60.4896 80.6563 60.3833C80.1264 60.3833 79.5431 60.2246 78.9069 59.9062C77.4231 59.1114 75.9921 57.8925 74.6139 56.2493C74.1369 60.2246 75.3559 62.7953 78.2713 63.9608C78.3771 64.0142 78.5362 64.0935 78.7483 64.1998C78.9604 64.2527 79.2517 64.332 79.6224 64.4383C80.6827 64.4383 81.3718 64.3849 81.6896 64.2791C84.393 63.2188 86.4067 61.2844 87.732 58.4753Z" fill="#430D27"/>
<path d="M53.0688 76.6018C53.3869 75.7007 54.1289 74.7467 55.2949 73.7398C56.09 75.1708 57.2827 75.8863 58.8724 75.8863C61.5757 75.8863 62.9274 74.5346 62.9274 71.8318C62.9274 71.1956 62.7418 70.6129 62.3706 70.083C63.6958 69.7117 64.9147 69.6853 66.0279 70.0031C66.2929 69.6324 66.4251 69.1554 66.4251 68.5721C66.2136 65.6573 63.5631 65.1538 58.4752 67.0618C53.2808 68.9169 50.7898 71.3284 51.0018 74.2961C51.0018 75.4093 51.6908 76.1777 53.0688 76.6018ZM126.847 77.6357C130.292 81.0804 133.526 83.7309 136.547 85.5855C139.568 87.4406 141.476 87.9711 142.271 87.1757C143.066 86.3809 142.536 84.4993 140.681 81.531C138.826 78.5098 136.176 75.2507 132.73 71.7525C130.664 69.6853 128.649 67.9095 126.688 66.4256C124.462 67.5917 121.309 67.9095 117.227 67.3796C120.832 70.7715 124.038 74.1904 126.847 77.6357ZM142.748 105.938C144.656 109.754 146.564 112.802 148.472 115.081C150.38 117.361 151.811 118.261 152.765 117.784C153.772 117.307 153.904 115.346 153.163 111.901C152.473 108.456 151.096 104.507 149.029 100.055C147.703 97.2461 146.272 94.5433 144.735 91.9463C142.456 92.8468 139.356 92.3169 135.434 90.3561C138.19 95.2852 140.628 100.479 142.748 105.938ZM149.108 133.446C149.903 140.39 151.175 143.861 152.924 143.861C153.878 143.861 154.7 142.642 155.389 140.204C156.131 137.713 156.608 134.56 156.82 130.744C155.548 125.602 154.17 123.058 152.686 123.111C150.937 122.846 149.055 121.866 147.041 120.17C148.048 124.887 148.737 129.312 149.108 133.446ZM157.933 154.992C158.516 152.341 158.781 148.79 158.728 144.338C157.032 147.624 155.098 149.267 152.924 149.267C151.758 149.267 150.565 148.737 149.347 147.678C149.241 148.844 149.108 150.407 148.949 152.368C152.076 153.11 155.071 153.984 157.933 154.992ZM91.8664 51.7971C93.7215 52.4332 95.6824 53.2016 97.7496 54.1027C105.169 54.0497 108.985 53.0957 109.198 51.2406C109.251 50.1276 107.661 49.1205 104.428 48.2195C101.194 47.3185 96.822 47.0535 91.3095 47.4245C91.6807 48.8555 91.8664 50.3131 91.8664 51.7971ZM106.018 58.2367C110.47 60.3568 114.445 61.7878 117.943 62.5297C121.441 63.2722 123.429 63.1131 123.906 62.0527C124.648 60.2511 121.414 57.2828 114.207 53.1487C113.041 55.4277 110.311 57.1236 106.018 58.2367ZM94.8077 99.9759C97.6168 96.6364 99.4719 93.006 100.373 89.0837C100.744 86.328 100.055 84.7907 98.3059 84.4729C96.4507 84.1016 95.2847 85.3206 94.8077 88.1297C93.96 90.9917 92.5554 93.6422 90.594 96.0801C88.5268 98.253 88.1561 99.9495 89.4808 101.168C90.7532 102.493 92.5284 102.096 94.8077 99.9759ZM37.4863 116.274C39.8714 115.108 43.131 113.12 47.2651 110.311C49.4382 108.986 50.1272 107.555 49.3322 106.018C48.3252 104.481 46.7351 104.375 44.562 105.7C39.8979 109.039 36.4793 111.133 34.3062 111.981C32.0271 113.57 31.4176 115.055 32.4776 116.433C33.4317 117.811 35.1012 117.758 37.4863 116.274ZM29.8541 99.2604C26.939 99.2604 25.4814 100.188 25.4814 102.043C25.4814 103.898 26.939 104.825 29.8541 104.825C32.7162 104.825 34.1472 103.898 34.1472 102.043C34.1472 100.188 32.7162 99.2604 29.8541 99.2604ZM87.732 58.4753C86.4602 59.2706 85.5326 59.7476 84.9493 59.9062C84.4194 60.0126 83.916 60.1183 83.439 60.2246C82.5379 60.4367 81.6103 60.4896 80.6563 60.3833C80.1264 60.3833 79.5431 60.2246 78.9075 59.9062C77.4231 59.1114 75.9921 57.8925 74.6139 56.2493C74.1369 60.2246 75.3559 62.7952 78.2713 63.9607C78.3771 64.0142 78.5362 64.0935 78.7483 64.1998C78.9604 64.2527 79.2517 64.332 79.623 64.4383C80.6827 64.4383 81.3718 64.3849 81.6896 64.2791C84.393 63.2188 86.4067 61.2844 87.732 58.4753Z" fill="#C94E4E"/>
</svg>
