<svg width="180" height="180" viewBox="0 0 180 180" fill="none" xmlns="http://www.w3.org/2000/svg">
<path d="M99.9124 143.971C107.494 146.809 113.565 151.407 118.125 157.765V163.125H56.25V157.765C60.8631 151.249 66.96 146.651 74.5419 143.971C70.1944 141.764 66.6686 138.559 63.9647 134.355C61.3136 130.099 59.9878 125.396 59.9878 120.246C59.9878 111.628 63.4078 104.613 70.2473 99.2008C74.754 94.9967 77.0074 89.8734 77.0074 83.8305H57.3632V78.3917C60.8096 74.1881 64.9187 70.8514 69.6909 68.3814C73.296 66.4369 76.1856 63.5732 78.3596 59.7898C76.1327 57.4251 75.0195 54.6139 75.0195 51.3559C75.0195 48.0454 76.1856 45.2341 78.5188 42.922C80.9044 40.5573 83.7939 39.375 87.1875 39.375C90.5276 39.375 93.3643 40.5573 95.6976 42.922C98.0831 45.2341 99.2762 48.0454 99.2762 51.3559C99.2762 54.5088 98.1894 57.3199 96.0154 59.7898C98.0303 63.5209 100.946 66.3846 104.764 68.3814C109.642 70.956 113.725 74.2404 117.012 78.2342V83.8305H97.3676C97.2613 89.8734 99.5411 95.0496 104.207 99.3583C110.941 104.666 114.307 111.628 114.307 120.246C114.307 125.343 112.956 129.994 110.252 134.197C107.547 138.401 104.101 141.659 99.9124 143.971Z" fill="#430D27"/>
</svg>
