<svg width="180" height="180" viewBox="0 0 180 180" fill="none" xmlns="http://www.w3.org/2000/svg">
<path d="M97.4919 84.2147H88.0312C88.0312 92.0059 85.1428 98.5517 79.3654 103.852C73.8006 108.251 71.0179 113.948 71.0179 120.945C71.0179 126.934 73.1379 132.049 77.3781 136.289C81.6182 140.529 86.7594 142.649 92.8018 142.649C98.7379 142.649 103.826 140.529 108.066 136.289C112.359 132.049 114.506 126.934 114.506 120.945C114.506 113.948 111.723 108.251 106.158 103.852C100.381 98.5517 97.4919 92.0059 97.4919 84.2147ZM97.0948 62.9078C95.4517 63.3848 94.0208 63.6232 92.8018 63.6232C91.2645 63.6232 89.8335 63.3848 88.5083 62.9078C85.9641 67.4128 82.3866 70.8846 77.7758 73.3224C74.9132 74.9126 72.4224 76.7149 70.3024 78.7286H115.301C113.128 76.7149 110.636 74.9126 107.827 73.3224C103.269 70.9374 99.6919 67.4657 97.0948 62.9078ZM92.8018 44.7017C88.2433 44.7017 85.9641 46.9542 85.9641 51.4594C85.9641 56.0176 88.2433 58.2964 92.8018 58.2964C97.3069 58.2964 99.5591 56.0176 99.5591 51.4594C99.5591 46.9542 97.3069 44.7017 92.8018 44.7017ZM105.522 144.875C113.101 147.737 119.17 152.375 123.728 158.788V164.194H61.875V158.788C66.4864 152.216 72.5816 147.578 80.1608 144.875C75.8143 142.649 72.2897 139.416 69.5869 135.176C66.9369 130.883 65.6117 126.139 65.6117 120.945C65.6117 112.253 69.03 105.177 75.8678 99.7178C80.3728 95.4776 82.6251 90.3099 82.6251 84.2147H62.9882V78.7286C66.4329 74.4885 70.5409 71.1231 75.3109 68.6317C78.9148 66.6709 81.8038 63.7824 83.9768 59.9664C81.7509 57.5809 80.6377 54.7455 80.6377 51.4594C80.6377 48.1203 81.8038 45.2847 84.1359 42.9526C86.5209 40.5676 89.4094 39.375 92.8018 39.375C96.1408 39.375 98.9764 40.5676 101.309 42.9526C103.694 45.2847 104.886 48.1203 104.886 51.4594C104.886 54.6395 103.799 57.4751 101.626 59.9664C103.641 63.7296 106.555 66.618 110.371 68.6317C115.248 71.2288 119.329 74.5419 122.615 78.57V84.2147H102.978C102.872 90.3099 105.151 95.5305 109.815 99.8764C116.546 105.23 119.912 112.253 119.912 120.945C119.912 126.086 118.56 130.777 115.858 135.017C113.154 139.257 109.709 142.543 105.522 144.875ZM116.891 158.788C110.531 151.58 102.501 147.976 92.8018 147.976C83.1021 147.976 75.0459 151.58 68.6329 158.788H116.891Z" fill="#582233"/>
<path d="M97.4925 84.2147H88.0312C88.0312 92.0059 85.1428 98.5517 79.3654 103.852C73.8006 108.251 71.0179 113.948 71.0179 120.945C71.0179 126.934 73.1379 132.049 77.3781 136.289C81.6182 140.529 86.7594 142.649 92.8018 142.649C98.7379 142.649 103.826 140.529 108.066 136.289C112.359 132.049 114.506 126.934 114.506 120.945C114.506 113.948 111.723 108.251 106.158 103.852C100.381 98.5517 97.4925 92.0059 97.4925 84.2147ZM97.0948 62.9078C95.4517 63.3848 94.0208 63.6232 92.8018 63.6232C91.2645 63.6232 89.8335 63.3848 88.5083 62.9078C85.9646 67.4128 82.3866 70.8846 77.7758 73.3224C74.9138 74.9126 72.4224 76.7149 70.3024 78.7286H115.301C113.128 76.7149 110.637 74.9126 107.828 73.3224C103.269 70.9374 99.6919 67.4663 97.0948 62.9078ZM92.8018 44.7018C88.2433 44.7018 85.9646 46.9543 85.9646 51.4595C85.9646 56.0176 88.2433 58.2969 92.8018 58.2969C97.3069 58.2969 99.5591 56.0176 99.5591 51.4595C99.5591 46.9543 97.3069 44.7018 92.8018 44.7018ZM116.891 158.788C110.531 151.58 102.501 147.976 92.8018 147.976C83.1021 147.976 75.0459 151.58 68.6329 158.788H116.891Z" fill="#DECE9C"/>
</svg>
