<svg width="180" height="180" viewBox="0 0 180 180" fill="none" xmlns="http://www.w3.org/2000/svg">
<path d="M74.9722 94.8082H102.083V104.984H74.9722V94.8082ZM126.331 147.359C125.43 142.536 122.303 140.124 116.95 140.124H60.1853C54.7788 140.124 51.6517 142.536 50.8037 147.359H126.331ZM118.858 110.391L119.733 120.726C122.33 120.726 124.555 121.654 126.411 123.509C128.319 125.364 129.273 127.59 129.273 130.187C129.273 132.996 128.213 135.354 126.093 137.262C130.068 140.39 132.055 144.391 132.055 149.267V164.135H45V149.267C45 144.338 47.0141 140.363 51.0422 137.342C48.9221 135.487 47.8621 133.102 47.8621 130.187C47.8621 127.59 48.7896 125.364 50.6447 123.509C52.4998 121.654 54.7258 120.726 57.3227 120.726L58.3566 110.391H85.8645V120.567H91.2707V110.391H118.858ZM118.302 104.984H107.489V94.8082H117.348L118.302 104.984ZM116.871 89.4021H91.2707V79.2253H115.917L116.871 89.4021ZM115.36 73.8191L107.489 73.7398V63.6429H102.083V73.7398H74.9722V63.6429H69.6459V73.7398H61.9341L62.8088 63.6429L49.2932 55.6132V33.75H65.5116V41.8593H79.1066V33.75H98.0286V41.8593H111.623V33.75H128.001V55.6132L114.406 63.6429L115.36 73.8191ZM60.3439 89.4021L61.3778 79.2253H85.8645V89.4021H60.3439ZM58.9129 104.905L59.8669 94.8876L69.6459 94.8082V104.984L58.9129 104.905ZM122.435 52.5921H54.6198L64.0806 58.3161H88.5673H112.975L122.435 52.5921ZM88.5673 126.53H57.3227C54.6198 126.53 53.2683 127.749 53.2683 130.187C53.2683 132.678 54.6198 133.923 57.3227 133.923H119.733C122.489 133.923 123.866 132.678 123.866 130.187C123.866 127.749 122.489 126.53 119.733 126.53H88.5673Z" fill="#430D27"/>
<path fill-rule="evenodd" clip-rule="evenodd" d="M58.3566 110.391H85.8645V120.567H91.2707V110.391H118.858L118.302 104.984H107.489V94.8082H117.348L116.871 89.4021H91.2707V79.2253H115.917L115.36 73.8191L107.489 73.7398V63.6429H102.083V73.7398H74.9728V63.6429H69.6459V73.7398H61.9341L61.3778 79.2253H85.8645V89.4021H60.3444L59.8674 94.8876L69.6459 94.8082V104.984L58.9129 104.905L58.3566 110.391ZM102.083 94.8082H74.9728V104.984H102.083V94.8082Z" fill="#C94E4E"/>
<path fill-rule="evenodd" clip-rule="evenodd" d="M126.331 147.359C125.43 142.536 122.303 140.124 116.95 140.124H60.1852C54.779 140.124 51.6519 142.536 50.8039 147.359H126.331ZM88.5679 126.53H57.3232C54.62 126.53 53.2685 127.749 53.2685 130.187C53.2685 132.678 54.62 133.923 57.3232 133.923H119.733C122.489 133.923 123.867 132.678 123.867 130.187C123.867 127.749 122.489 126.53 119.733 126.53H88.5679Z" fill="#C94E4E"/>
<path d="M122.436 52.5922H54.62L64.0806 58.3166H88.5679H112.975L122.436 52.5922Z" fill="#C94E4E"/>
</svg>
