<svg width="181" height="180" viewBox="0 0 181 180" fill="none" xmlns="http://www.w3.org/2000/svg">
<path d="M90.1317 158.719C85.7936 164.991 79.9314 168.128 72.545 168.128C71.7829 168.128 71.0208 168.098 70.2587 168.04C69.5552 167.923 68.8518 167.835 68.1483 167.776C66.4483 167.717 63.9568 167.424 60.674 166.897C57.3911 166.31 53.7272 164.991 49.6823 162.94C46.1063 159.833 41.5631 158.279 36.0526 158.279C31.8317 158.279 28.1679 159.276 25.0609 161.269C24.1815 161.679 23.097 162.529 21.8073 163.819C19.4624 166.34 17.5572 167.717 16.0916 167.952C14.9192 167.366 14.3037 166.369 14.245 164.962C13.9519 162.207 15.9744 158.66 20.3124 154.322C19.5504 154.439 18.1141 154.791 16.0037 155.377C14.245 155.905 13.0726 156.169 12.4864 156.169C10.5518 156.462 9.52594 156.491 9.4087 156.257C8.76385 155.612 8.99834 154.293 10.1122 152.3C11.0501 150.6 12.8674 149.105 15.564 147.815C15.9158 147.639 17.0296 147.141 18.9055 146.32C24.3574 143.448 30.0731 142.011 36.0526 142.011C44.7873 142.011 52.672 144.972 59.7067 150.893C62.5205 151.831 65.3637 152.3 68.2362 152.3C77.0296 152.3 81.5728 148.665 81.8659 141.396C76.1796 140.868 71.4312 139.901 67.6207 138.494C63.8689 137.087 61.993 135.446 61.993 133.57L69.0276 110.18C64.9241 103.731 61.524 97.1654 58.8274 90.4824C56.1307 83.7995 54.7824 77.4683 54.7824 71.4888C54.7824 53.5503 64.5137 39.7741 83.9763 30.16C83.9763 29.3979 84.0643 28.2548 84.2401 26.7306C82.247 25.0892 81.2504 23.0081 81.2504 20.4873C81.2504 15.0941 83.9763 12.3975 89.4282 12.3975C94.8215 12.3975 97.5181 15.0941 97.5181 20.4873C97.5181 22.8322 96.6681 24.7961 94.968 26.3789C94.968 28.1962 95.2025 29.4273 95.6715 30.0721C96.6681 31.479 97.9871 32.2118 99.6285 32.2704C101.329 32.2118 102.735 31.4497 103.849 29.9842C104.084 29.6324 104.318 28.5479 104.553 26.7306C103.029 25.1478 102.267 23.184 102.267 20.8391C102.267 15.3286 105.022 12.5733 110.532 12.5733C116.043 12.5733 118.798 15.3286 118.798 20.8391C118.798 23.9461 117.45 26.3496 114.753 28.0496C114.519 29.2221 114.46 30.16 114.577 30.8635C124.484 42.588 128.793 56.1297 127.503 71.4888C127.093 75.8855 126.419 80.2235 125.481 84.5029C124.543 88.7238 122.902 92.7101 120.557 96.4619C119.677 98.4551 118.3 100.712 116.424 103.233C114.607 105.695 113.024 108.011 111.675 110.18L118.622 133.57C118.564 135.446 116.629 137.087 112.819 138.494C109.008 139.901 104.201 140.868 98.3974 141.396C98.6905 148.665 103.263 152.3 112.115 152.3C114.988 152.3 117.831 151.831 120.645 150.893C127.621 144.972 135.505 142.011 144.299 142.011C150.278 142.011 155.965 143.448 161.358 146.32C162.061 146.672 162.677 146.965 163.204 147.2C163.732 147.434 164.26 147.639 164.787 147.815C167.425 149.163 169.243 150.658 170.239 152.3C170.415 152.827 170.679 153.501 171.031 154.322C171.382 155.143 171.353 155.788 170.943 156.257C170.767 156.491 169.741 156.462 167.865 156.169C167.279 156.169 166.106 155.905 164.348 155.377C162.179 154.791 160.713 154.439 159.951 154.322C164.289 158.719 166.341 162.265 166.106 164.962C165.989 166.31 165.344 167.307 164.172 167.952C162.706 167.717 160.801 166.34 158.456 163.819C157.284 162.647 156.228 161.797 155.29 161.269C152.008 159.276 148.344 158.279 144.299 158.279C138.671 158.279 134.098 159.833 130.581 162.94C126.536 164.991 122.872 166.31 119.589 166.897C116.307 167.424 113.844 167.717 112.203 167.776C111.5 167.835 110.767 167.923 110.005 168.04C109.243 168.098 108.51 168.128 107.806 168.128C100.244 168.128 94.3525 164.991 90.1317 158.719Z" fill="#222831"/>
<path d="M85.823 20.4873C85.823 18.0838 87.0247 16.882 89.4282 16.882C91.8317 16.882 93.0335 18.0838 93.0335 20.4873C93.0335 22.8908 91.8317 24.0926 89.4282 24.0926C87.0247 24.0926 85.823 22.8908 85.823 20.4873Z" fill="#EEEEEE"/>
<path d="M110.532 17.1458C108.012 17.1458 106.751 18.3769 106.751 20.839C106.751 23.3598 108.012 24.6202 110.532 24.6202C113.053 24.6202 114.313 23.3598 114.313 20.839C114.313 18.3769 113.053 17.1458 110.532 17.1458Z" fill="#EEEEEE"/>
<path d="M90.6593 125.48C84.035 125.48 78.3779 126.066 73.6881 127.239C68.9983 128.411 66.6534 129.818 66.6534 131.459C66.6534 133.101 68.9983 134.508 73.6881 135.68C78.3779 136.794 84.035 137.351 90.6593 137.351C97.2836 137.351 102.941 136.794 107.63 135.68C112.379 134.508 114.753 133.101 114.753 131.459C114.753 129.818 112.379 128.411 107.63 127.239C102.941 126.066 97.2836 125.48 90.6593 125.48Z" fill="#EEEEEE"/>
<path d="M98.7492 118.533L90.2196 115.016L81.778 118.533L90.2196 122.051L98.7492 118.533Z" fill="#EEEEEE"/>
<path d="M121.436 53.8141C124.074 62.3144 125.071 68.1473 124.426 71.3129C124.367 67.7956 122.696 62.0799 119.414 54.1659C116.131 46.2519 111.382 40.1844 105.168 35.9636C104.641 34.9084 104.729 33.9998 105.432 33.2377C106.194 32.4756 107.015 32.036 107.894 31.9187C108.48 31.8601 109.155 32.0653 109.917 32.5342C115.017 38.162 118.857 45.2553 121.436 53.8141Z" fill="#EEEEEE"/>
<path d="M108.334 113.961L106.751 108.421C101.827 107.248 96.287 106.662 90.1317 106.662C84.0936 106.662 78.7883 107.19 74.2157 108.245L72.4571 113.873C77.3227 112.583 83.2142 111.938 90.1317 111.938C97.4008 111.938 103.468 112.612 108.334 113.961Z" fill="#EEEEEE"/>
<path d="M109.565 117.126L111.5 123.369L109.477 123.809L101.739 118.797L109.565 117.126Z" fill="#EEEEEE"/>
<path d="M69.4673 123.457L71.0501 123.809L78.7883 118.797L71.3139 117.126L69.4673 123.457Z" fill="#EEEEEE"/>
<path d="M95.9353 157.664C92.2421 154.088 90.3075 152.3 90.1317 152.3C89.9558 152.3 88.0506 154.088 84.416 157.664C80.9573 160.888 76.7951 162.5 71.9294 162.5H68.3242C65.6862 162.324 63.224 162.031 60.9378 161.621C58.7101 161.152 56.0135 160.272 52.8479 158.983C46.7511 154.762 41.1527 152.651 36.0526 152.651C33.7077 152.651 31.6266 152.915 29.8093 153.443C29.0472 153.619 28.5782 153.824 28.4023 154.058C28.2265 154.234 27.6109 154.586 26.5557 155.113C22.8625 156.989 21.8953 157.195 23.6539 155.729C25.4712 154.205 26.204 153.091 25.8523 152.388C25.4419 151.625 24.035 150.805 21.6315 149.925C19.2866 149.046 21.0452 148.343 26.9075 147.815C29.78 146.818 32.8283 146.32 36.0526 146.32C42.97 146.32 50.1512 149.163 57.5963 154.85C60.117 156.257 62.2568 157.048 64.0154 157.224C65.8327 157.4 67.5621 157.429 69.2035 157.312C73.7174 157.136 76.7365 156.52 78.2606 155.465C79.8435 154.351 81.2504 153.12 82.4815 151.772C83.7125 150.541 84.8557 148.167 85.9109 144.649C86.4385 142.773 87.8454 141.718 90.1317 141.484C92.3593 141.718 93.7663 142.773 94.3525 144.649C95.4663 148.167 96.6095 150.541 97.7819 151.772C99.013 153.12 100.391 154.351 101.915 155.465C103.498 156.52 106.575 157.136 111.148 157.312C112.731 157.429 114.401 157.4 116.16 157.224C117.977 157.048 120.176 156.257 122.755 154.85C130.083 149.163 137.264 146.32 144.299 146.32C147.464 146.32 150.513 146.818 153.444 147.815C159.247 148.343 160.948 149.046 158.544 149.925C156.199 150.805 154.851 151.625 154.499 152.388C154.089 153.091 154.763 154.205 156.522 155.729C158.339 157.195 157.43 156.989 153.796 155.113C152.623 154.586 151.949 154.234 151.773 154.058C151.656 153.824 151.216 153.619 150.454 153.443C148.578 152.915 146.526 152.651 144.299 152.651C139.14 152.651 133.512 154.762 127.416 158.983C124.25 160.272 121.524 161.152 119.238 161.621C116.951 162.031 114.548 162.324 112.027 162.5H108.422C103.498 162.5 99.3354 160.888 95.9353 157.664Z" fill="#EEEEEE"/>
<path d="M103.761 62.4316V66.9162H92.5059V87.9323H88.0213V66.9162H76.7658V62.4316H88.0213V47.395H92.5059V62.4316H103.761Z" fill="#EEEEEE"/>
<path fill-rule="evenodd" clip-rule="evenodd" d="M90.2196 102.178C82.7746 102.178 76.2382 103.115 70.6104 104.991C63.8689 91.2151 60.4981 79.901 60.4981 71.0491C60.4981 57.1556 70.5225 43.6431 90.5714 30.5117C110.679 43.6431 120.733 57.1556 120.733 71.0491C120.733 79.2562 117.157 90.5703 110.005 104.991C104.553 103.115 97.9578 102.178 90.2196 102.178ZM96.287 70.6973H107.543V58.7384H96.287V43.7017H84.2401V58.7384H72.9846V70.6973H84.2401V91.7135H96.287V70.6973Z" fill="#EEEEEE"/>
</svg>
