<svg width="181" height="180" viewBox="0 0 181 180" fill="none" xmlns="http://www.w3.org/2000/svg">
<path d="M138.936 128.031C139.347 129.262 139.552 130.435 139.552 131.549C139.552 135.007 138.292 137.675 135.771 139.551C135.536 140.547 135.36 141.544 135.243 142.54C137.412 145.589 138.497 148.051 138.497 149.927C138.497 154.851 133.748 159.072 124.252 162.589C114.755 166.107 103.353 167.865 90.0454 167.865C76.6795 167.865 65.2481 166.107 55.7513 162.589C46.3131 159.072 41.594 154.851 41.594 149.927C41.594 147.992 42.7371 145.472 45.0234 142.365C44.9061 141.72 44.7303 140.811 44.4958 139.639C41.9164 137.763 40.6267 135.066 40.6267 131.549C40.6267 130.435 40.8026 129.292 41.1543 128.119C41.7405 126.654 41.6233 125.511 40.8026 124.69C39.9819 123.869 39.0439 122.726 37.9887 121.261C37.0507 118.329 36.5818 116.307 36.5818 115.193C36.6404 114.666 36.7283 114.079 36.8455 113.434C37.0214 112.79 37.1093 112.028 37.1093 111.148C34.5299 108.569 31.8333 106.136 29.0195 103.85C26.2642 101.505 24.0952 98.6909 22.5124 95.4081C20.6364 91.539 18.9071 87.6406 17.3243 83.7129C15.8001 79.7266 15.038 75.8282 15.038 72.0177C15.038 64.8072 16.9432 58.7105 20.7537 53.7276C24.5641 48.7447 29.7229 44.8463 36.23 42.0324C44.9061 41.4462 48.57 41.1531 47.2217 41.1531C57.422 41.1531 66.6843 44.9342 75.0087 52.4965V21.6318H104.994V52.5844C113.318 44.9635 122.639 41.1531 132.957 41.1531C131.491 41.1531 135.155 41.4462 143.949 42.0324C150.338 44.8463 155.439 48.7447 159.249 53.7276C163.118 58.7105 165.053 64.8072 165.053 72.0177C165.053 75.8282 164.261 79.6973 162.678 83.625C161.154 87.5527 159.484 91.4511 157.666 95.3201C156.083 98.6616 153.885 101.563 151.071 104.026C148.257 106.488 145.59 108.95 143.069 111.412C143.011 112.115 143.04 112.79 143.157 113.434C143.333 114.079 143.45 114.666 143.509 115.193C143.568 116.014 143.099 118.036 142.102 121.261C141.047 122.726 140.109 123.869 139.288 124.69C138.526 125.511 138.409 126.624 138.936 128.031Z" fill="#222831"/>
<path d="M91.1006 33.2391C90.7488 33.0632 90.3971 32.9753 90.0454 32.9753C89.4005 32.9753 88.9315 33.0925 88.6384 33.327L83.0107 27.6114H80.9882V30.0735L86.528 35.6133C86.3522 35.965 86.2642 36.3461 86.2642 36.7564C86.2642 37.1082 86.3522 37.4599 86.528 37.8116L80.9882 43.4394V45.7257H83.0107L88.5505 40.1859C88.9608 40.3617 89.4591 40.4496 90.0454 40.4496C90.5143 40.4496 90.8954 40.391 91.1885 40.2738L96.7283 45.7257H99.1025V43.7032L93.4748 38.2513C93.6506 37.841 93.7386 37.3426 93.7386 36.7564C93.7386 36.2288 93.6213 35.7598 93.3868 35.3495L99.1025 29.7217V27.6113H96.6404L91.1006 33.2391Z" fill="#00ADB5"/>
<path d="M82.6589 55.2224C84.7107 53.1707 87.1729 52.1448 90.0454 52.1448C97.0214 52.1448 100.509 55.6328 100.509 62.6089C100.509 69.5849 97.0214 73.073 90.0454 73.073C87.1729 73.073 84.7107 72.0764 82.6589 70.0832C80.6072 68.0314 79.5813 65.54 79.5813 62.6089C79.5813 59.7364 80.6072 57.2742 82.6589 55.2224Z" fill="#00ADB5"/>
<path d="M102.004 101.563C101.242 101.446 100.48 101.388 99.7181 101.388C99.8939 99.1599 100.011 97.4598 100.07 96.2874C100.128 95.1149 100.246 93.9132 100.422 92.6821C100.949 87.1716 102.385 83.068 104.73 80.3714C105.375 79.961 106.049 79.7558 106.753 79.7558C107.104 79.7558 107.808 79.9024 108.863 80.1955C109.918 80.4886 110.768 81.6611 111.413 83.7128C112.175 80.3714 113.699 77.4696 115.986 75.0074C118.272 72.5453 120.47 71.2556 122.581 71.1384C125.453 71.9591 127.476 73.4833 128.648 75.7109C129.879 77.8799 130.495 80.1955 130.495 82.6577C130.495 83.1266 130.348 84.2991 130.055 86.175C131.345 84.7681 132.429 84.0646 133.309 84.0646C135.126 84.0646 136.269 85.0905 136.738 87.1423C136.973 90.5424 136.445 94.1183 135.155 97.8702C134.452 99.8047 133.778 101.388 133.133 102.619C132.547 103.85 131.902 105.169 131.198 106.576C129.733 106.517 128.267 106.136 126.802 105.432C130.319 99.5702 132.048 95.8184 131.99 94.1769C131.755 92.2424 131.14 91.2752 130.143 91.2752C129.264 91.2752 128.59 91.8321 128.121 92.9459C127.065 95.1149 126.186 97.1667 125.483 99.1012C124.838 100.977 124.193 102.765 123.548 104.465C122.317 104.582 120.851 104.348 119.151 103.762C122.493 94.0304 124.164 87.6699 124.164 84.6802C124.164 82.9801 124.105 82.0714 123.988 81.9542C124.105 80.0197 123.167 79.0524 121.174 79.0524C119.532 79.0524 118.36 79.7559 117.657 81.1628C115.253 86.4974 113.875 93.6787 113.524 102.707C112.41 102.707 110.68 102.501 108.336 102.091C109.742 95.9356 110.211 91.451 109.742 88.6371C109.156 86.9371 108.189 86.2044 106.841 86.4388C105.903 86.5561 105.258 87.2595 104.906 88.5492C103.968 91.9493 103.734 96.3167 104.203 101.651C103.499 101.651 102.766 101.622 102.004 101.563Z" fill="#00ADB5"/>
<path d="M117.217 129.526L124.603 135.242L133.836 132.076L126.538 126.361L117.217 129.526Z" fill="#00ADB5"/>
<path d="M126.802 153.268C126.567 151.979 126.157 150.572 125.57 149.048C124.926 147.641 124.252 146.703 123.548 146.234C122.903 145.706 122.317 145.032 121.789 144.211C115.869 140.459 105.346 138.789 90.2212 139.199C74.8622 138.789 64.2515 140.459 58.3893 144.211C57.6858 144.915 56.9823 145.53 56.2789 146.058C55.634 146.585 55.0771 147.553 54.6081 148.96C53.9633 150.425 53.5529 151.861 53.3771 153.268C53.2598 155.144 54.0805 156.082 55.8392 156.082C57.5393 156.082 58.36 155.174 58.3013 153.356C58.8289 147.494 69.3517 144.563 89.8695 144.563C110.563 144.563 121.203 147.494 121.789 153.356C121.672 155.174 122.493 156.082 124.252 156.082C125.952 156.082 126.802 155.144 126.802 153.268Z" fill="#00ADB5"/>
<path d="M80.1089 101.475C79.933 99.3065 79.8158 97.6358 79.7571 96.4633C79.6985 95.2909 79.6106 94.0891 79.4933 92.858C78.7899 87.2303 77.3536 83.1267 75.1846 80.5473C74.5984 80.137 73.8949 79.9318 73.0742 79.9318C72.7225 79.9318 71.9897 80.0783 70.8759 80.3715C69.8207 80.6646 69.0292 81.8077 68.5016 83.8009C67.6809 80.4594 66.1274 77.5576 63.8412 75.0954C61.6135 72.6333 59.4445 71.3436 57.3341 71.2264C54.403 72.1057 52.3512 73.6592 51.1787 75.8869C50.0063 78.0559 49.4201 80.3715 49.4201 82.8336C49.4201 83.9475 49.5666 85.1199 49.8597 86.3509C48.4528 84.8854 47.3683 84.1526 46.6062 84.1526C44.7303 84.1526 43.5871 85.2078 43.1768 87.3182C42.8837 90.9528 43.4113 94.4995 44.7596 97.9582C45.4044 99.8927 46.02 101.505 46.6062 102.795C47.251 104.026 47.9545 105.345 48.7166 106.752C50.1235 106.693 51.5891 106.312 53.1133 105.608C49.5373 99.8048 47.808 96.0529 47.9252 94.3529C47.9838 92.4184 48.57 91.4511 49.6839 91.4511C50.5632 91.4511 51.2667 92.008 51.7943 93.1218C52.7909 95.2322 53.6116 97.2547 54.2564 99.1892C54.9599 101.124 55.6633 102.941 56.3668 104.641C57.7738 104.641 59.2393 104.407 60.7635 103.938C57.3634 94.0305 55.6634 87.6406 55.6634 84.7681C55.6634 83.1853 55.722 82.306 55.8392 82.1301C55.8392 80.137 56.7772 79.1404 58.6531 79.1404C60.2945 79.1404 61.4963 79.8732 62.2584 81.3387C64.6033 86.6734 65.9809 93.8546 66.3912 102.882C67.5637 102.824 69.2637 102.619 71.4914 102.267C70.0845 95.9943 69.6448 91.5097 70.1724 88.8131C70.7 87.0544 71.638 86.2923 72.9863 86.5268C73.9828 86.7612 74.6277 87.4647 74.9208 88.6372C75.8588 92.3304 76.0933 96.7271 75.6243 101.827C76.5622 101.71 78.0571 101.592 80.1089 101.475Z" fill="#00ADB5"/>
<path d="M89.8695 121.173L101.741 126.8L90.3092 132.516L78.4381 126.8L89.8695 121.173Z" fill="#00ADB5"/>
<path d="M63.5774 129.526L54.2564 126.361L46.9579 132.076L56.1909 135.242L63.5774 129.526Z" fill="#00ADB5"/>
<path d="M135.859 116.952C135.859 119.59 134.54 121.055 131.902 121.348C121.232 117.362 107.251 115.369 89.9574 115.369C72.8983 115.369 59.1514 117.333 48.7166 121.261C45.7269 121.378 44.232 119.942 44.232 116.952C44.232 115.486 44.8768 114.255 46.1665 113.259C56.5427 108.627 71.1396 106.312 89.9574 106.312C98.9266 106.312 107.192 106.957 114.755 108.246C122.376 109.477 128.648 111.09 133.572 113.083C135.097 113.962 135.859 115.252 135.859 116.952Z" fill="#00ADB5"/>
<path d="M74.4811 61.2019C67.6809 53.9914 59.9721 50.3861 51.3546 50.3861C43.4406 50.3861 37.4318 53.0241 33.3282 58.3001C30.6902 61.6416 29.3712 66.1848 29.3712 71.9299C29.3712 76.4438 30.0161 80.7525 31.3057 84.856C31.3644 86.0285 32.0972 86.6147 33.5041 86.6147C34.911 86.6147 35.6731 85.9113 35.7904 84.5043C35.3214 81.5146 35.0869 78.8473 35.0869 76.5024C35.0869 71.6367 36.23 67.7969 38.5163 64.9831C41.7992 60.5278 46.8993 58.3001 53.8167 58.3001C60.6169 58.3001 66.9775 60.9968 72.8983 66.39C74.0708 66.39 74.657 65.3055 74.657 63.1365C74.657 62.6675 74.5984 62.0227 74.4811 61.2019Z" fill="#00ADB5"/>
<path d="M104.994 63.1365C104.994 62.6675 105.053 62.0227 105.17 61.2019C111.911 53.9914 119.62 50.3861 128.296 50.3861C136.152 50.3861 142.161 53.0241 146.323 58.3001C148.961 61.6416 150.28 66.1848 150.28 71.9299C150.28 76.4438 149.635 80.7525 148.345 84.856C148.345 86.0285 147.613 86.6147 146.147 86.6147C144.681 86.6147 143.919 85.9113 143.861 84.5043C144.33 81.5146 144.564 78.8473 144.564 76.5024C144.564 71.6367 143.421 67.7969 141.135 64.9831C137.793 60.5278 132.722 58.3001 125.922 58.3001C119.005 58.3001 112.615 60.9968 106.753 66.39C105.58 66.39 104.994 65.3055 104.994 63.1365Z" fill="#00ADB5"/>
</svg>
