<svg width="181" height="180" viewBox="0 0 181 180" fill="none" xmlns="http://www.w3.org/2000/svg">
<path d="M101.652 106.486C103.117 106.193 104.759 105.871 106.576 105.519C108.452 105.109 110.445 104.552 112.555 103.848C114.431 103.262 115.047 102.207 114.402 100.683C113.992 100.038 113.406 99.7153 112.643 99.7153C108.481 100.653 104.554 101.21 100.86 101.386C102.267 100.858 103.733 100.331 105.257 99.8033C106.781 99.2171 108.276 98.5722 109.742 97.8687C114.314 95.6997 117.333 90.9513 118.799 83.6235C119.092 81.9235 118.535 80.9562 117.128 80.7217C115.897 80.6045 114.93 81.1028 114.226 82.2166C112.819 87.434 110.592 90.9513 107.543 92.7686C106.547 93.3548 105.521 93.8824 104.466 94.3514C103.41 94.8204 102.355 95.3187 101.3 95.8463C102.472 94.6152 103.557 93.1204 104.554 91.3617C106.371 88.3133 107.602 82.92 108.247 75.1819C107.836 73.1301 106.811 72.368 105.169 72.8956C104.642 73.1887 104.29 73.4525 104.114 73.687C103.059 82.0114 101.622 87.4926 99.8051 90.1306C99.1603 90.7755 98.7206 91.3324 98.4861 91.8014C97.9585 92.2117 97.4603 92.6221 96.9913 93.0324C96.5809 93.3841 96.1706 93.7359 95.7602 94.0876C94.7636 95.3773 94.2654 96.8428 94.2654 98.4843C94.2654 100.477 94.8222 102.295 95.9361 103.936C97.1085 105.578 99.0138 106.428 101.652 106.486ZM95.4085 47.219C111.647 55.1917 123.635 64.9816 131.373 76.5888C136.122 83.7994 139.287 92.3583 140.87 102.265C142.453 112.173 143.244 123.282 143.244 135.592C142.951 140.341 144.27 144.503 147.201 148.079C150.191 151.655 153.533 153.062 157.226 152.3C158.34 116.657 152.008 89.4858 138.232 70.7852C134.011 65.1575 128.12 59.7056 120.557 54.4296C112.995 49.1536 104.554 44.4344 95.2326 40.2723C95.2326 41.5033 95.2619 42.7637 95.3205 44.0534C95.3791 45.2845 95.4085 46.3397 95.4085 47.219ZM43.7035 120.819C44.3484 119.764 45.0812 118.738 45.9019 117.742C46.7812 116.687 47.5726 115.514 48.2761 114.224C49.5658 111.586 48.9209 110.033 46.3415 109.564C45.8726 109.447 45.345 109.505 44.7588 109.74C43.0587 112.026 41.2121 114.342 39.2189 116.686C38.9258 116.921 38.2517 117.507 37.1965 118.445C36.6689 120.204 36.6395 121.552 37.1085 122.49C37.8706 124.249 39.3069 124.366 41.4173 122.842C42.4725 122.021 43.2346 121.347 43.7036 120.819H43.7035ZM74.6561 98.2205C74.832 97.517 75.0372 96.8136 75.2717 96.1101C75.5648 95.4066 75.7993 94.7031 75.9751 93.9997C76.5028 91.7134 75.8579 90.5703 74.0406 90.5703C73.3958 90.5703 72.6044 91.0979 71.6664 92.1531C71.256 93.091 70.8457 94.029 70.4353 94.967C70.025 95.8463 69.7026 96.667 69.4681 97.4291C69.2922 98.0153 69.0285 98.836 68.6767 99.8912C68.5594 100.771 68.9112 101.415 69.7319 101.826C70.9629 102.529 72.2233 101.972 73.513 100.155C73.9234 99.7447 74.3044 99.0998 74.6561 98.2205ZM33.5912 105.255C34.1774 104.434 34.8516 103.614 35.6137 102.793C36.3757 101.914 37.0499 100.946 37.6361 99.8912C38.8086 97.7222 38.2517 96.4618 35.9654 96.1101C35.6137 96.0515 35.1154 96.0808 34.4705 96.198C33.0636 98.0153 31.4222 99.9206 29.5462 101.914C28.8428 102.441 28.2565 102.91 27.7876 103.321C27.3186 104.786 27.2893 105.871 27.6996 106.574C28.4031 108.04 29.6928 108.157 31.5687 106.926C32.5067 106.222 33.1808 105.665 33.5911 105.255H33.5912ZM59.5316 66.2127C59.942 68.7334 60.6161 70.1697 61.554 70.5214C62.492 70.8732 63.811 70.9904 65.5111 70.8731C67.7974 70.6972 69.556 70.2283 70.7871 69.4661C73.2492 67.8833 75.4182 64.4539 77.2941 59.1779C75.4182 59.7642 73.6596 60.0573 72.0181 60.0573C70.3767 60.0573 68.4129 60.1452 66.1266 60.321C62.9024 60.6141 60.704 62.578 59.5316 66.2126V66.2127ZM58.3885 117.214C57.5677 118.093 56.8936 118.738 56.366 119.149C55.897 119.5 55.4866 119.852 55.1349 120.204C54.8418 120.497 52.9366 122.432 49.4192 126.007C48.0709 127.473 46.4588 128.411 44.5829 128.821C43.3518 129.173 41.6224 129.027 39.3948 128.382C32.067 126.447 26.2927 122.578 22.0719 116.774C20.4305 114.605 19.258 111.997 18.5545 108.948C17.9097 105.841 18.2321 101.914 19.5218 97.1653C20.8115 92.3582 25.472 86.8771 33.5032 80.7217C42.238 74.0388 47.3674 68.7334 48.8916 64.8057C50.1813 62.5195 51.6469 59.9987 53.2883 57.2435C54.9884 54.4882 56.9815 51.8209 59.2678 49.2415C60.6747 48.2449 61.9937 47.1018 63.2248 45.8121C64.5145 44.4638 65.7749 43.0861 67.006 41.6792V30.8634C70.2302 31.5082 72.6044 32.4462 74.1286 33.6772C74.832 34.4393 75.5941 35.1428 76.4148 35.7877C77.2942 36.4325 78.0856 37.136 78.789 37.8981C80.2546 35.2601 81.1925 33.0617 81.6029 31.3031C81.6615 30.8927 81.8667 30.072 82.2184 28.8409C82.5702 27.6098 82.9219 25.5874 83.2736 22.7735C84.153 22.539 84.9151 22.7735 85.5599 23.477C88.2565 26.5253 90.8066 29.9254 93.2101 33.6772C103.938 37.9567 113.728 43.0275 122.58 48.8898C131.491 54.752 138.32 60.8487 143.068 67.18C156.493 85.4115 163.205 112.261 163.205 147.727C163.205 155.172 162.824 161.972 162.062 168.128H42.0328C41.2707 160.507 45.3156 152.417 54.1676 143.858C58.154 139.989 62.2868 136.237 66.5663 132.603C70.9043 128.968 75.1252 125.275 79.2287 121.523C86.8496 114.488 91.0704 108.86 91.8911 104.64C91.598 103.936 91.0411 103.467 90.2204 103.233C88.1686 104.464 86.1168 105.255 84.065 105.607C82.0133 105.959 79.9908 106.193 77.9976 106.31C76.7079 106.369 75.4183 106.428 74.1286 106.486C72.8975 106.486 71.4319 106.193 69.7319 105.607C67.4456 108.186 65.4818 110.414 63.8404 112.29C62.2575 114.107 60.4402 115.749 58.3885 117.214Z" fill="#222831"/>
<path d="M95.4085 47.219C111.647 55.1917 123.635 64.9816 131.373 76.5888C136.122 83.7994 139.287 92.3583 140.87 102.265C142.453 112.173 143.244 123.282 143.244 135.592C142.951 140.341 144.27 144.503 147.201 148.079C150.191 151.655 153.533 153.062 157.226 152.3C158.34 116.657 152.008 89.4858 138.232 70.7852C134.011 65.1575 128.12 59.7056 120.557 54.4296C112.995 49.1536 104.554 44.4345 95.2326 40.2723C95.2326 41.5033 95.2619 42.7637 95.3205 44.0534C95.3791 45.2845 95.4085 46.3397 95.4085 47.219Z" fill="#00ADB5"/>
<path d="M43.7035 120.819C44.3484 119.764 45.0812 118.738 45.9019 117.742C46.7812 116.687 47.5726 115.514 48.2761 114.224C49.5658 111.586 48.9209 110.033 46.3415 109.564C45.8726 109.447 45.345 109.505 44.7587 109.74C43.0587 112.026 41.2121 114.342 39.2189 116.686C38.9258 116.921 38.2517 117.507 37.1965 118.445C36.6688 120.204 36.6395 121.552 37.1085 122.49C37.8706 124.249 39.3069 124.366 41.4173 122.842C42.4725 122.021 43.2346 121.347 43.7035 120.819Z" fill="#00ADB5"/>
<path d="M75.2717 96.1101C75.0372 96.8136 74.832 97.517 74.6561 98.2205C74.3044 99.0998 73.9234 99.7447 73.513 100.155C72.2233 101.972 70.9629 102.529 69.7318 101.826C68.9111 101.415 68.5594 100.771 68.6767 99.8912C69.0284 98.836 69.2922 98.0153 69.4681 97.4291C69.7026 96.667 70.025 95.8463 70.4353 94.967L71.6664 92.1531C72.6043 91.0979 73.3958 90.5703 74.0406 90.5703C75.8579 90.5703 76.5027 91.7134 75.9751 93.9997C75.7993 94.7031 75.5648 95.4066 75.2717 96.1101Z" fill="#00ADB5"/>
<path d="M33.5912 105.255C34.1774 104.434 34.8516 103.614 35.6137 102.793C36.3757 101.914 37.0499 100.946 37.6361 99.8912C38.8086 97.7222 38.2517 96.4618 35.9654 96.1101C35.6137 96.0514 35.1154 96.0807 34.4705 96.198C33.0636 98.0153 31.4222 99.9205 29.5462 101.914C28.8428 102.441 28.2565 102.91 27.7876 103.321C27.3186 104.786 27.2893 105.871 27.6996 106.574C28.4031 108.04 29.6928 108.157 31.5687 106.926C32.5067 106.222 33.1808 105.665 33.5912 105.255Z" fill="#00ADB5"/>
<path d="M61.554 70.5214C60.6161 70.1697 59.942 68.7334 59.5316 66.2127C60.704 62.5782 62.9024 60.6141 66.1266 60.321C68.4129 60.1452 70.3767 60.0573 72.0181 60.0573C73.6596 60.0573 75.4182 59.7641 77.2941 59.1779C75.4182 64.4539 73.2492 67.8833 70.7871 69.4661C69.556 70.2282 67.7974 70.6972 65.5111 70.8731C63.811 70.9904 62.492 70.8731 61.554 70.5214Z" fill="#00ADB5"/>
</svg>
