<svg width="45" height="45" viewBox="0 0 45 45" fill="none" xmlns="http://www.w3.org/2000/svg">
<path fill-rule="evenodd" clip-rule="evenodd" d="M8 12C8 12.5304 7.78929 13.0391 7.41421 13.4142C7.03914 13.7893 6.53043 14 6 14C5.46957 14 4.96086 13.7893 4.58579 13.4142C4.21071 13.0391 4 12.5304 4 12C4 11.4696 4.21071 10.9609 4.58579 10.5858C4.96086 10.2107 5.46957 10 6 10C6.53043 10 7.03914 10.2107 7.41421 10.5858C7.78929 10.9609 8 11.4696 8 12ZM24.5 7.5C24.5 8.03043 24.2893 8.53914 23.9142 8.91421C23.5391 9.28929 23.0304 9.5 22.5 9.5C21.9696 9.5 21.4609 9.28929 21.0858 8.91421C20.7107 8.53914 20.5 8.03043 20.5 7.5C20.5 6.96957 20.7107 6.46086 21.0858 6.08579C21.4609 5.71071 21.9696 5.5 22.5 5.5C23.0304 5.5 23.5391 5.71071 23.9142 6.08579C24.2893 6.46086 24.5 6.96957 24.5 7.5V7.5ZM41 12C41 12.5304 40.7893 13.0391 40.4142 13.4142C40.0391 13.7893 39.5304 14 39 14C38.4696 14 37.9609 13.7893 37.5858 13.4142C37.2107 13.0391 37 12.5304 37 12C37 11.4696 37.2107 10.9609 37.5858 10.5858C37.9609 10.2107 38.4696 10 39 10C39.5304 10 40.0391 10.2107 40.4142 10.5858C40.7893 10.9609 41 11.4696 41 12ZM16 8.5C16 9.03043 15.7893 9.53914 15.4142 9.91421C15.0391 10.2893 14.5304 10.5 14 10.5C13.4696 10.5 12.9609 10.2893 12.5858 9.91421C12.2107 9.53914 12 9.03043 12 8.5C12 7.96957 12.2107 7.46086 12.5858 7.08579C12.9609 6.71071 13.4696 6.5 14 6.5C14.5304 6.5 15.0391 6.71071 15.4142 7.08579C15.7893 7.46086 16 7.96957 16 8.5V8.5ZM33 9C33 9.53043 32.7893 10.0391 32.4142 10.4142C32.0391 10.7893 31.5304 11 31 11C30.4696 11 29.9609 10.7893 29.5858 10.4142C29.2107 10.0391 29 9.53043 29 9C29 8.46957 29.2107 7.96086 29.5858 7.58579C29.9609 7.21071 30.4696 7 31 7C31.5304 7 32.0391 7.21071 32.4142 7.58579C32.7893 7.96086 33 8.46957 33 9Z" fill="#F0E9E9" stroke="#29113C" stroke-width="1.5" stroke-linecap="round" stroke-linejoin="round"/>
<path fill-rule="evenodd" clip-rule="evenodd" d="M9 26C17.5 24.5 30 24.5 36 26L38 14L31 25V11L25.5 24.5L22.5 9.5L19.5 24.5L14 10.5V25L7 14L9 26Z" fill="#F0E9E9" stroke="#29113C" stroke-width="1.5" stroke-linejoin="round"/>
<path fill-rule="evenodd" clip-rule="evenodd" d="M9 26C9 28 10.5 28 11.5 30C12.5 31.5 12.5 31 12 33.5C10.5 34.5 10.5 36 10.5 36C9 37.5 11 38.5 11 38.5C17.5 39.5 27.5 39.5 34 38.5C34 38.5 35.5 37.5 34 36C34 36 34.5 34.5 33 33.5C32.5 31 32.5 31.5 33.5 30C34.5 28 36 28 36 26C27.5 24.5 17.5 24.5 9 26Z" fill="#F0E9E9" stroke="#29113C" stroke-width="1.5" stroke-linejoin="round"/>
<path d="M11.5 30C15 29 30 29 33.5 30M12 33.5C18 32.5 27 32.5 33 33.5" stroke="#29113C" stroke-width="1.5" stroke-linecap="round" stroke-linejoin="round"/>
</svg>
