<svg width="32" height="32" viewBox="0 0 32 32" fill="none" xmlns="http://www.w3.org/2000/svg">
<path d="M8.48624 27.2301H24.1237V29.5133H8.48624V27.2301ZM17.1427 7.04274H15.4508V5.3673H14.6459C14.0765 5.3673 13.7918 5.08259 13.7918 4.51316C13.7918 3.94373 14.0765 3.65901 14.6459 3.65901H15.4508V2.83772C15.4508 2.27924 15.7355 2 16.305 2C16.8634 2 17.1427 2.27924 17.1427 2.83772V3.65901H17.9968C18.5553 3.65901 18.8345 3.94373 18.8345 4.51316C18.8345 5.08259 18.5553 5.3673 17.9968 5.3673H17.1427V7.04274ZM27.3267 16.192C27.5457 15.5787 27.6552 15.0093 27.6552 14.4837C27.6552 13.2462 27.146 12.1895 26.1276 11.3135C25.1202 10.4265 23.9101 9.98297 22.4975 9.98297C21.063 9.98297 19.842 10.4265 18.8345 11.3135C17.8271 12.1895 17.3234 13.2462 17.3234 14.4837C17.3234 15.732 17.8271 16.7942 18.8345 17.6703C19.842 18.5354 21.052 18.9679 22.4647 18.9679C23.0998 18.9679 23.4174 19.2472 23.4174 19.8056C23.4174 20.3751 23.0998 20.6598 22.4647 20.6598C21.1506 20.6598 19.9515 20.3751 18.8674 19.8056C17.7833 19.2362 16.9291 18.4861 16.305 17.5553C15.6698 18.4861 14.8047 19.2362 13.7097 19.8056C12.6256 20.3751 11.4374 20.6598 10.1453 20.6598C9.51012 20.6598 9.19255 20.3751 9.19255 19.8056C9.19255 19.2472 9.51012 18.9679 10.1453 18.9679C11.5469 18.9679 12.7515 18.5354 13.7589 17.6703C14.7773 16.7942 15.2866 15.732 15.2866 14.4837C15.2866 13.2462 14.7773 12.1895 13.7589 11.3135C12.7405 10.4265 11.525 9.98297 10.1124 9.98297C8.67788 9.98297 7.45689 10.4265 6.44943 11.3135C5.44198 12.1895 4.93825 13.2462 4.93825 14.4837C4.93825 15.0859 5.07513 15.6608 5.3489 16.2084L9.58677 24.4213H23.0231L27.3267 16.192ZM16.305 11.412C16.9291 10.4812 17.8052 9.72563 18.9331 9.14525C18.1447 8.88244 17.2686 8.75103 16.305 8.75103C15.3742 8.75103 14.5091 8.88244 13.7097 9.14525C14.7938 9.71468 15.6589 10.4703 16.305 11.412ZM29.1993 16.619L24.1237 26.1132H8.48624L3.41065 16.619C3.13688 15.9182 3 15.2064 3 14.4837C3 12.7754 3.68989 11.3189 5.06966 10.1144C6.46038 8.89887 8.1413 8.29111 10.1124 8.29111C10.43 8.29111 10.7147 8.31301 10.9665 8.35681C12.6091 7.49171 14.3886 7.05917 16.305 7.05917C18.2104 7.05917 19.9898 7.49171 21.6434 8.35681C21.8843 8.31301 22.169 8.29111 22.4975 8.29111C24.4467 8.29111 26.1167 8.89887 27.5074 10.1144C28.9091 11.3189 29.6099 12.7754 29.6099 14.4837C29.6099 15.1626 29.473 15.8744 29.1993 16.619V16.619Z" fill="black"/>
<path d="M27.3267 16.1919C27.5458 15.5787 27.6553 15.0093 27.6553 14.4837C27.6553 13.2462 27.1461 12.1895 26.1277 11.3135C25.1202 10.4265 23.9102 9.98296 22.4975 9.98296C21.063 9.98296 19.842 10.4265 18.8346 11.3135C17.8271 12.1895 17.3234 13.2462 17.3234 14.4837C17.3234 15.732 17.8271 16.7942 18.8346 17.6703C19.842 18.5354 21.0521 18.9679 22.4647 18.9679C23.0998 18.9679 23.4174 19.2472 23.4174 19.8056C23.4174 20.3751 23.0998 20.6598 22.4647 20.6598C21.1506 20.6598 19.9515 20.3751 18.8674 19.8056C17.7833 19.2362 16.9292 18.4861 16.305 17.5553C15.6699 18.4861 14.8048 19.2362 13.7097 19.8056C12.6256 20.3751 11.4375 20.6598 10.1453 20.6598C9.51016 20.6598 9.19259 20.3751 9.19259 19.8056C9.19259 19.2472 9.51016 18.9679 10.1453 18.9679C11.547 18.9679 12.7515 18.5354 13.759 17.6703C14.7774 16.7942 15.2866 15.732 15.2866 14.4837C15.2866 13.2462 14.7774 12.1895 13.759 11.3135C12.7406 10.4265 11.5251 9.98296 10.1124 9.98296C8.67792 9.98296 7.45693 10.4265 6.44947 11.3135C5.44202 12.1895 4.93829 13.2462 4.93829 14.4837C4.93829 15.0859 5.07518 15.6608 5.34894 16.2084L9.58681 24.4213H23.0232L27.3267 16.1919ZM16.305 11.412C16.9292 10.4812 17.8052 9.72562 18.9331 9.14524C18.1447 8.88243 17.2686 8.75102 16.305 8.75102C15.3742 8.75102 14.5091 8.88243 13.7097 9.14524C14.7938 9.71467 15.6589 10.4703 16.305 11.412Z" fill="white"/>
</svg>
