<svg width="32" height="32" viewBox="0 0 32 32" fill="none" xmlns="http://www.w3.org/2000/svg">
<path d="M9.22545 27.606H27.8524V29.8892H9.22545V27.606ZM10.4245 10.5395C9.39518 10.5395 8.8805 10.9666 8.8805 11.8207C8.8805 12.6858 9.39518 13.1183 10.4245 13.1183C11.4429 13.1183 11.9521 12.6858 11.9521 11.8207C11.9521 10.9666 11.4429 10.5395 10.4245 10.5395ZM17.9147 17.2084C18.5608 16.0695 18.8784 14.8759 18.8674 13.6275L18.8182 12.872C18.8182 12.2587 18.5827 11.9521 18.1118 11.9521H18.0954C17.6245 11.9521 17.3891 12.2587 17.3891 12.872L17.4384 13.6604C17.4493 14.4926 17.2358 15.2647 16.7978 15.9764L16.4857 16.4199C16.1462 16.858 16.1462 17.2905 16.4857 17.7176V17.734C16.8251 18.1611 17.1701 18.1556 17.5205 17.7176L17.9147 17.2084ZM23.401 6.87651C23.5324 7.01887 23.6583 7.15028 23.7788 7.27073C23.9102 7.38024 24.0252 7.48975 24.1237 7.59925C24.3865 7.91682 24.5836 8.26176 24.715 8.63408C24.6712 9.10496 24.7972 9.5156 25.0928 9.86602C25.2899 10.1069 25.5528 10.2767 25.8813 10.3752C26.1112 10.5504 26.3029 10.7311 26.4562 10.9173C26.9052 11.4539 27.168 12.0945 27.2446 12.8391C27.1023 13.3757 27.1953 13.863 27.5239 14.301C27.5458 14.3229 27.5567 14.3448 27.5567 14.3667C27.6443 14.4981 27.7538 14.6021 27.8852 14.6788C28.3232 15.292 28.5422 15.9491 28.5422 16.6499C28.5422 16.9346 28.5039 17.1974 28.4273 17.4383C28.2521 17.745 28.1645 18.0461 28.1645 18.3418C28.1645 18.8017 28.3287 19.1959 28.6572 19.5244C28.7996 19.8968 28.8708 20.2855 28.8708 20.6907C28.8708 21.5448 28.597 22.2785 28.0495 22.8917C27.9071 23.1655 27.8359 23.4393 27.8359 23.713C27.8359 23.8444 27.8305 24.0087 27.8195 24.2058C27.8195 24.4029 27.8304 24.6 27.8523 24.7971V26.489H9.2254C9.1816 25.2844 9.61962 24.2989 10.5395 23.5323C13.7918 20.9152 15.3906 19.185 15.3358 18.3418C14.5474 18.6046 13.8465 18.7415 13.2333 18.7524C12.6201 18.7524 11.9576 18.6593 11.2458 18.4732C10.2493 20.4552 9.14875 21.5612 7.94419 21.7912C7.71422 21.846 7.54996 21.8733 7.45141 21.8733C7.35285 21.8624 7.17217 21.8569 6.90936 21.8569C6.7013 21.8898 6.47133 21.835 6.21947 21.6926C5.96761 21.5393 5.7267 21.4189 5.49673 21.3313C5.26677 21.2437 5.11894 21.1232 5.05323 20.9699C4.99848 20.8166 4.85612 20.625 4.62616 20.395C4.3743 20.165 4.12243 19.9515 3.87057 19.7544C3.62966 19.5463 3.45445 19.3656 3.34494 19.2123C3.29019 19.1576 3.21901 18.944 3.13141 18.5717C3.0438 18.1885 3 17.953 3 17.8654C3.02189 17.3398 3.14235 16.9018 3.36137 16.5513C3.58038 16.2009 3.96913 15.6698 4.52761 14.958C5.08608 14.2134 5.52958 13.6275 5.8581 13.2005C6.18662 12.7624 6.45491 12.3135 6.66297 11.8535C6.79438 11.5579 6.86556 11.306 6.8765 11.098C6.89839 10.8789 6.93125 10.7256 6.97506 10.638C7.20502 10.1891 7.79635 9.52107 8.74905 8.63407C8.7162 8.60122 8.76548 8.51362 8.89689 8.37126C9.03924 8.21795 9.08852 7.93324 9.04472 7.51711C9.01187 7.2762 8.83118 6.88746 8.50267 6.35088C8.40411 6.21947 8.32198 6.07164 8.25628 5.90738C8.19057 5.73217 7.99894 5.42008 7.68137 4.9711C8.57932 4.96015 9.32396 5.04776 9.91529 5.23392C10.5066 5.42008 10.9994 5.64456 11.3936 5.90738C11.4593 5.52411 11.3498 5.16274 11.0651 4.82327C10.7913 4.51666 10.5668 4.24289 10.3916 4.00198C10.2164 3.76107 9.76198 3.44897 9.02829 3.0657C9.63057 2.9562 10.638 2.98357 12.0507 3.14783C13.4633 3.30114 14.4653 3.65156 15.0566 4.19909C16.3707 4.17719 17.4 4.28122 18.1446 4.51118C18.9002 4.74114 19.831 5.15179 20.937 5.74312C21.9336 5.76502 22.7548 6.14282 23.4009 6.87651L23.401 6.87651Z" fill="black"/>
<path d="M10.4246 10.5395C9.39523 10.5395 8.88055 10.9666 8.88055 11.8207C8.88055 12.6858 9.39523 13.1184 10.4246 13.1184C11.443 13.1184 11.9522 12.6858 11.9522 11.8207C11.9522 10.9666 11.443 10.5395 10.4246 10.5395ZM17.9148 17.2084C18.5609 16.0695 18.8784 14.8759 18.8675 13.6276L18.8182 12.872C18.8182 12.2587 18.5828 11.9521 18.1119 11.9521H18.0955C17.6246 11.9521 17.3891 12.2587 17.3891 12.872L17.4384 13.6604C17.4494 14.4926 17.2358 15.2647 16.7978 15.9765L16.4857 16.42C16.1463 16.858 16.1463 17.2905 16.4857 17.7176V17.734C16.8252 18.1611 17.1701 18.1556 17.5206 17.7176L17.9148 17.2084Z" fill="#EEEEEE"/>
</svg>
