<svg width="32" height="32" viewBox="0 0 32 32" fill="none" xmlns="http://www.w3.org/2000/svg">
<path d="M7.69144 27.6493H23.325V30H7.69144V27.6493ZM7.69144 26.4993C6.56381 24.887 6 23.0042 6 20.8507C6 18.7875 6.56381 16.9385 7.69144 15.3037C8.81907 13.6576 10.2697 12.4738 12.0432 11.7522C11.3644 11.1885 11.0251 10.5684 11.0251 9.89191C11.0251 9.1027 11.4685 8.42623 12.3552 7.8625C13.253 7.2875 14.3258 7 15.5739 7C16.822 7 17.8948 7.2875 18.7926 7.8625C19.6903 8.42623 20.1392 9.1027 20.1392 9.89191C20.1392 10.6135 19.7669 11.2449 19.0225 11.786C20.7632 12.5076 22.1919 13.6858 23.3086 15.3206C24.4362 16.9554 25 18.7988 25 20.8507C25 23.0154 24.4417 24.8983 23.325 26.4993H7.69144Z" fill="black"/>
</svg>
