<svg width="32" height="32" viewBox="0 0 32 32" fill="none" xmlns="http://www.w3.org/2000/svg">
<path d="M8.67742 25.2472H22.393C23.0391 24.0426 23.3621 22.7778 23.3621 21.4528C23.3621 19.7335 22.8584 18.195 21.851 16.8371C20.8435 15.4792 19.5678 14.532 18.0237 13.9954C17.1148 13.875 16.6221 13.5355 16.5454 12.977C16.4359 12.3638 16.8465 11.8546 17.7773 11.4494C18.1278 11.2742 18.303 11.0552 18.303 10.7924C18.303 10.4639 18.0237 10.1792 17.4653 9.93825C16.9177 9.69734 16.2607 9.57688 15.4942 9.57688C14.7057 9.57688 14.0377 9.69734 13.4902 9.93825C12.9427 10.1792 12.6689 10.4639 12.6689 10.7924C12.6689 11.0662 12.8879 11.3235 13.3259 11.5644C14.0706 11.9915 14.3936 12.4624 14.2951 12.977C14.2294 13.4479 13.8023 13.7819 13.0138 13.979C11.4479 14.5265 10.1612 15.4792 9.15377 16.8371C8.14631 18.195 7.64259 19.7335 7.64259 21.4528C7.64259 22.7559 7.98753 24.0207 8.67742 25.2472ZM7.69186 26.939C6.56395 25.3731 6 23.5443 6 21.4528C6 19.4488 6.56395 17.6529 7.69186 16.0651C8.81977 14.4663 10.2707 13.3165 12.0447 12.6157C11.3658 12.0681 11.0263 11.4659 11.0263 10.8088C11.0263 10.0423 11.4698 9.38525 12.3568 8.83772C13.2548 8.27924 14.3279 8 15.5763 8C16.8246 8 17.8978 8.27924 18.7958 8.83772C19.6937 9.38525 20.1427 10.0423 20.1427 10.8088C20.1427 11.5097 19.7704 12.1229 19.0257 12.6485C20.7669 13.3494 22.1959 14.4937 23.3129 16.0815C24.4408 17.6694 25.0047 19.4598 25.0047 21.4528C25.0047 23.5553 24.4463 25.384 23.3293 26.939H7.69186ZM7.69186 28.056H23.3293V30.3392H7.69186V28.056Z" fill="black"/>
<path d="M8.67744 25.2472H22.393C23.0391 24.0426 23.3622 22.7778 23.3622 21.4528C23.3622 19.7335 22.8584 18.195 21.851 16.8371C20.8435 15.4792 19.5678 14.532 18.0238 13.9954C17.1149 13.875 16.6221 13.5355 16.5454 12.977C16.4359 12.3638 16.8466 11.8546 17.7774 11.4494C18.1278 11.2742 18.303 11.0552 18.303 10.7924C18.303 10.4639 18.0238 10.1792 17.4653 9.93824C16.9177 9.69733 16.2607 9.57687 15.4942 9.57687C14.7057 9.57687 14.0377 9.69733 13.4902 9.93824C12.9427 10.1792 12.6689 10.4639 12.6689 10.7924C12.6689 11.0662 12.8879 11.3235 13.326 11.5644C14.0706 11.9915 14.3936 12.4624 14.2951 12.977C14.2294 13.4479 13.8023 13.7819 13.0139 13.979C11.4479 14.5265 10.1612 15.4792 9.15379 16.8371C8.14634 18.195 7.64261 19.7335 7.64261 21.4528C7.64261 22.7559 7.98755 24.0207 8.67744 25.2472Z" fill="white"/>
</svg>
