<svg width="32" height="32" viewBox="0 0 32 32" fill="none" xmlns="http://www.w3.org/2000/svg">
<path d="M7.8164 27.713H23.4538V29.9962H7.8164V27.713ZM15.5858 17.1019C15.2135 17.1019 14.8959 17.3757 14.6331 17.9232C14.3703 18.4707 14.2389 19.1332 14.2389 19.9107C14.2389 20.6992 14.3703 21.3672 14.6331 21.9147C14.8959 22.4513 15.2135 22.7196 15.5858 22.7196C15.9472 22.7196 16.2593 22.4513 16.5221 21.9147C16.7959 21.3672 16.9328 20.6992 16.9328 19.9107C16.9328 19.1332 16.7959 18.4707 16.5221 17.9232C16.2593 17.3757 15.9472 17.1019 15.5858 17.1019ZM19.528 15.1637C19.9223 15.6893 20.4369 15.9521 21.0721 15.9521C21.3349 15.9521 21.6306 15.8864 21.9591 15.755L21.5156 12.6669L19.528 15.1637ZM23.4046 14.0138L27.8888 10.2523C28.4801 9.71574 28.8798 9.51863 29.0879 9.66099C29.2522 9.78145 29.2467 10.1921 29.0715 10.8929L23.4374 26.5961H7.83283L2.19875 10.9094C1.95784 10.2085 1.93594 9.7924 2.13305 9.66099C2.33016 9.52958 2.73533 9.72122 3.34856 10.2359L7.8821 14.0467L8.45701 9.87453C8.48986 9.33795 8.62127 9.03681 8.85123 8.9711C9.08119 8.9054 9.35496 9.09704 9.67252 9.54601L12.4813 13.1104L15.0438 7.60776C15.2409 7.20259 15.438 7 15.6351 7C15.8322 7 16.0348 7.21354 16.2429 7.64061L18.8217 13.0776L21.5813 9.54601C21.8988 9.09704 22.1781 8.9054 22.419 8.9711C22.638 9.03681 22.7694 9.33795 22.8132 9.87453L23.4046 14.0138ZM9.29473 15.7221C9.6561 15.8754 9.97366 15.9521 10.2474 15.9521C10.8278 15.9521 11.3315 15.7112 11.7586 15.2294L9.73823 12.6669L9.29473 15.7221Z" fill="black"/>
<path d="M15.5858 17.1019C15.2135 17.1019 14.8959 17.3757 14.6331 17.9232C14.3703 18.4707 14.2389 19.1332 14.2389 19.9107C14.2389 20.6992 14.3703 21.3672 14.6331 21.9147C14.8959 22.4513 15.2135 22.7195 15.5858 22.7195C15.9472 22.7195 16.2592 22.4513 16.5221 21.9147C16.7958 21.3672 16.9327 20.6992 16.9327 19.9107C16.9327 19.1332 16.7958 18.4707 16.5221 17.9232C16.2592 17.3757 15.9472 17.1019 15.5858 17.1019ZM19.528 15.1636C19.9222 15.6893 20.4369 15.9521 21.072 15.9521C21.3348 15.9521 21.6305 15.8864 21.959 15.755L21.5155 12.6669L19.528 15.1636ZM9.29468 15.7221C9.65605 15.8754 9.97361 15.9521 10.2474 15.9521C10.8278 15.9521 11.3315 15.7112 11.7586 15.2294L9.73818 12.6669L9.29468 15.7221Z" fill="#EEEEEE"/>
</svg>
