<svg width="32" height="32" viewBox="0 0 32 32" fill="none" xmlns="http://www.w3.org/2000/svg">
<path d="M22.8694 3.01642L25.0869 3C25.8315 3 26.2038 3.36684 26.2038 4.10053V8.88046C26.2038 9.61415 25.8315 9.98099 25.0869 9.98099H23.395C23.3621 12.0835 23.5866 13.9999 24.0685 15.73C24.5503 17.4493 25.2621 19.1904 26.2038 20.9535V26.5218H16.1019H6V20.9535C6.9308 19.1904 7.63164 17.4493 8.10251 15.73C8.58434 13.9999 8.81977 12.0835 8.80882 9.98099H7.11696C6.37232 9.98099 6 9.61415 6 8.88046V4.11696C6 3.37232 6.37232 3 7.11696 3H9.44943H11.0756V4.64259H14.41V3H17.7938V4.64259H21.1282V3L22.8694 3.01642ZM15.5106 14.8759V15.9436C15.5106 16.3269 15.7077 16.5185 16.1019 16.5185C16.4852 16.5185 16.6768 16.3269 16.6768 15.9436V14.8759H17.2353C17.6076 14.8759 17.7938 14.6897 17.7938 14.3174C17.7938 13.9451 17.6076 13.7589 17.2353 13.7589H16.6768V12.5927C16.6768 12.1985 16.4852 12.0014 16.1019 12.0014C15.7077 12.0014 15.5106 12.1985 15.5106 12.5927V13.7589H14.9685C14.5962 13.7589 14.41 13.9451 14.41 14.3174C14.41 14.6897 14.5962 14.8759 14.9685 14.8759H15.5106ZM16.1019 9.1597H12.7182V17.6026L16.1019 20.8878L19.4856 17.6026V9.1597H16.1019ZM16.1019 10.2767H18.3194V17.2905L16.1019 19.3602L13.8844 17.2905V10.2767H16.1019ZM6 27.6388H26.2038V29.922H6V27.6388Z" fill="black"/>
<path d="M15.5106 14.8759V15.9436C15.5106 16.3269 15.7077 16.5185 16.1019 16.5185C16.4852 16.5185 16.6768 16.3269 16.6768 15.9436V14.8759H17.2353C17.6076 14.8759 17.7938 14.6897 17.7938 14.3174C17.7938 13.9451 17.6076 13.7589 17.2353 13.7589H16.6768V12.5927C16.6768 12.1985 16.4852 12.0014 16.1019 12.0014C15.7077 12.0014 15.5106 12.1985 15.5106 12.5927V13.7589H14.9685C14.5962 13.7589 14.4101 13.9451 14.4101 14.3174C14.4101 14.6897 14.5962 14.8759 14.9685 14.8759H15.5106ZM16.1019 9.1597H12.7182V17.6026L16.1019 20.8878L19.4857 17.6026V9.1597H16.1019ZM16.1019 10.2767H18.3194V17.2905L16.1019 19.3602L13.8844 17.2905V10.2767H16.1019Z" fill="#EEEEEE"/>
</svg>
