<svg width="32" height="32" viewBox="0 0 32 32" fill="none" xmlns="http://www.w3.org/2000/svg">
<path d="M15.5106 14.8759H14.9685C14.5962 14.8759 14.41 14.6897 14.41 14.3174C14.41 13.9451 14.5962 13.759 14.9685 13.759H15.5106V12.5927C15.5106 12.1985 15.7077 12.0014 16.1019 12.0014C16.4852 12.0014 16.6768 12.1985 16.6768 12.5927V13.759H17.2353C17.6076 13.759 17.7938 13.9451 17.7938 14.3174C17.7938 14.6897 17.6076 14.8759 17.2353 14.8759H16.6768V15.9436C16.6768 16.3269 16.4852 16.5185 16.1019 16.5185C15.7077 16.5185 15.5106 16.3269 15.5106 15.9436V14.8759ZM16.1019 9.15971H19.4856V17.6026L16.1019 20.8878L12.7182 17.6026V9.15971H16.1019ZM16.1019 10.2767H13.8844V17.2905L16.1019 19.3602L18.3194 17.2905V10.2767H16.1019ZM22.8694 3.01643L25.0869 3C25.8315 3 26.2038 3.36684 26.2038 4.10053V8.88046C26.2038 9.61415 25.8315 9.98099 25.0869 9.98099H23.395C23.3621 12.0835 23.5866 13.9999 24.0685 15.73C24.5503 17.4493 25.2621 19.1904 26.2038 20.9535V26.5218H16.1019H6V20.9535C6.9308 19.1904 7.63164 17.4493 8.10251 15.73C8.58434 13.9999 8.81977 12.0835 8.80882 9.98099H7.11696C6.37232 9.98099 6 9.61415 6 8.88046V4.11696C6 3.37232 6.37232 3 7.11696 3H9.44943H11.0756V4.64259H14.41V3H17.7938V4.64259H21.1282V3L22.8694 3.01643ZM22.8201 4.64259V6.35088H9.38373V4.64259H7.69186V8.33841H10.5007V9.981C10.5335 12.1273 10.3036 14.082 9.8108 15.845C9.32898 17.5971 8.62266 19.3766 7.69186 21.1834V24.83H16.1019H24.512V21.1834C23.5702 19.3766 22.8584 17.5971 22.3766 15.845C21.8948 14.082 21.6703 12.1273 21.7031 9.981V8.33841H24.512V4.64259H22.8201ZM6 27.6388H26.2038V29.922H6V27.6388Z" fill="black"/>
<path d="M15.5106 14.8759H14.9686C14.5963 14.8759 14.4101 14.6898 14.4101 14.3174C14.4101 13.9451 14.5963 13.759 14.9686 13.759H15.5106V12.5927C15.5106 12.1985 15.7077 12.0014 16.102 12.0014C16.4852 12.0014 16.6769 12.1985 16.6769 12.5927V13.759H17.2354C17.6077 13.759 17.7938 13.9451 17.7938 14.3174C17.7938 14.6898 17.6077 14.8759 17.2354 14.8759H16.6769V15.9436C16.6769 16.3269 16.4852 16.5185 16.102 16.5185C15.7077 16.5185 15.5106 16.3269 15.5106 15.9436V14.8759ZM16.102 9.15971H19.4857V17.6026L16.102 20.8878L12.7182 17.6026V9.15971H16.102ZM16.102 10.2767H13.8845V17.2905L16.102 19.3602L18.3195 17.2905V10.2767H16.102ZM22.8201 4.64259V6.35088H9.38379V4.64259H7.69193V8.33841H10.5007V9.981C10.5336 12.1273 10.3036 14.082 9.81086 15.845C9.32904 17.5971 8.62272 19.3766 7.69193 21.1834V24.83H16.102H24.512V21.1834C23.5703 19.3766 22.8585 17.5971 22.3767 15.845C21.8948 14.082 21.6703 12.1273 21.7032 9.981V8.33841H24.512V4.64259H22.8201Z" fill="white"/>
</svg>
