<svg width="256" height="256" viewBox="0 0 256 256" fill="none" xmlns="http://www.w3.org/2000/svg">
<path fill-rule="evenodd" clip-rule="evenodd" d="M113.765 47.6679C114.164 40.06 120.471 34 128.18 34C135.89 34 142.196 40.0583 142.596 47.6679C151.422 50.3216 159.363 55.3535 165.822 62.0948L124.077 103.841C123.007 104.911 122.407 106.361 122.407 107.872C122.407 109.385 123.008 110.833 124.077 111.903C124.077 111.903 124.077 111.905 124.078 111.905C126.36 114.186 130.062 114.186 132.345 111.905L173.011 71.2428C179.328 81.1243 183.04 93.1762 183.04 106.182C183.04 120.385 178.613 133.451 171.199 143.792L200.364 218.787V241.885H56V218.787L85.1644 143.792C77.7527 133.452 73.3236 120.385 73.3236 106.182C73.3236 78.2321 90.4699 54.6728 113.767 47.6691L113.765 47.6679Z" fill="url(#paint0_angular_401_63)" stroke="black" stroke-width="5"/>
<defs>
<radialGradient id="paint0_angular_401_63" cx="0" cy="0" r="1" gradientUnits="userSpaceOnUse" gradientTransform="translate(128.182 137.943) rotate(90) scale(103.943 72.1819)">
<stop stop-color="#774360"/>
<stop offset="1" stop-color="#4C3A51"/>
</radialGradient>
</defs>
</svg>
