<svg width="50" height="50" viewBox="0 0 50 50" fill="none" xmlns="http://www.w3.org/2000/svg">
<path fill-rule="evenodd" clip-rule="evenodd" d="M24.9959 5.93927C24.0792 5.94609 23.3395 6.68786 23.3394 7.60043C23.3394 8.45426 23.9897 9.169 24.8432 9.2534L22.9644 27.0063C22.1822 27.0435 21.4105 27.1026 20.6566 27.1819L15.1881 10.4511C15.9066 10.2489 16.4029 9.59627 16.4029 8.85295C16.4029 7.93554 15.6557 7.19176 14.7341 7.19179C13.8125 7.19178 13.0654 7.93556 13.0653 8.85295C13.0654 9.77033 13.8125 10.5141 14.7341 10.5141C14.8125 10.5142 14.8912 10.5086 14.9688 10.4977L15.8439 28.0482C15.3746 28.1758 14.9293 28.3136 14.5108 28.4599L6.24009 13.4932C6.84483 13.2275 7.23511 12.6314 7.23511 11.9734C7.23505 11.056 6.48788 10.3122 5.56631 10.3122C4.64473 10.3122 3.89757 11.056 3.89752 11.9734C3.89744 12.8909 4.64465 13.6346 5.56631 13.6345C5.69373 13.6345 5.82085 13.6198 5.94493 13.591L10.4421 33.0155C11.2187 35.6846 13.3404 38.0655 16.9339 39.0276H33.0582C36.6517 38.0653 38.7735 35.6846 39.55 33.0155L44.0472 13.591C44.1713 13.6198 44.2984 13.6345 44.4258 13.6345C45.3475 13.6346 46.0947 12.8908 46.0946 11.9734C46.0946 11.056 45.3474 10.3122 44.4258 10.3122C43.5043 10.3122 42.7571 11.056 42.757 11.9734C42.757 12.6314 43.1473 13.2275 43.752 13.4932L35.4814 28.4599C35.0628 28.3136 34.6175 28.1758 34.1482 28.0482L35.0233 10.4977C35.101 10.5086 35.1796 10.5142 35.258 10.5141C36.1796 10.5141 36.9267 9.77033 36.9268 8.85295C36.9267 7.93554 36.1796 7.19179 35.258 7.19179C34.3364 7.19177 33.5893 7.93554 33.5892 8.85295C33.5892 9.59627 34.0855 10.2489 34.804 10.4511L29.3355 27.1819C28.5815 27.1026 27.8099 27.0435 27.0277 27.0063L25.1489 9.2534C26.0024 9.16898 26.6522 8.45426 26.6522 7.60043C26.6522 6.68786 25.9129 5.94609 24.9962 5.93927H24.9959Z" fill="#505050" stroke="black" stroke-width="1.19989" stroke-linecap="round" stroke-linejoin="round"/>
<path opacity="0.5" fill-rule="evenodd" clip-rule="evenodd" d="M16.5087 27.988L17.1987 28.0226L15.8244 15.1042L16.5087 27.988Z" fill="url(#paint0_linear_2_372)"/>
<path opacity="0.5" fill-rule="evenodd" clip-rule="evenodd" d="M23.5946 26.9918L24.938 14.4757L24.2742 27.4021L23.5946 26.9918Z" fill="url(#paint1_linear_2_372)"/>
<path opacity="0.5" fill-rule="evenodd" clip-rule="evenodd" d="M29.9666 27.3723L34.0833 14.8068C32.5022 19.9422 31.8598 22.5292 30.524 27.7554L29.9666 27.3723Z" fill="url(#paint2_linear_2_372)"/>
<path opacity="0.5" fill-rule="evenodd" clip-rule="evenodd" d="M36.0478 28.6909L42.1335 17.9862L36.4552 29.0592L36.0478 28.6909Z" fill="url(#paint3_linear_2_372)"/>
<path opacity="0.5" d="M4.98096 12.1581C5.27652 12.1581 5.51614 11.9305 5.51614 11.6496C5.51614 11.3688 5.27652 11.1411 4.98096 11.1411C4.68539 11.1411 4.4458 11.3688 4.4458 11.6496C4.4458 11.9305 4.68539 12.1581 4.98096 12.1581Z" fill="#FEFEFE"/>
<path opacity="0.5" d="M14.0763 9.01913C14.3603 9.01913 14.5905 8.79845 14.5905 8.52623C14.5905 8.25401 14.3603 8.03333 14.0763 8.03333C13.7922 8.03333 13.562 8.25401 13.562 8.52623C13.562 8.79845 13.7922 9.01913 14.0763 9.01913Z" fill="#FEFEFE"/>
<path opacity="0.5" d="M24.5729 7.6211C24.8482 7.6211 25.0714 7.38157 25.0714 7.08609C25.0714 6.7906 24.8482 6.55107 24.5729 6.55107C24.2976 6.55107 24.0745 6.7906 24.0745 7.08609C24.0745 7.38157 24.2976 7.6211 24.5729 7.6211Z" fill="#FEFEFE"/>
<path opacity="0.5" d="M34.7787 8.70216C34.9964 8.70216 35.1728 8.51692 35.1728 8.28843C35.1728 8.05993 34.9964 7.87469 34.7787 7.87469C34.561 7.87469 34.3845 8.05993 34.3845 8.28843C34.3845 8.51692 34.561 8.70216 34.7787 8.70216Z" fill="#FEFEFE"/>
<path opacity="0.5" d="M44.059 11.8371C44.2728 11.8371 44.4462 11.6585 44.4462 11.4382C44.4462 11.2179 44.2728 11.0393 44.059 11.0393C43.8452 11.0393 43.6718 11.2179 43.6718 11.4382C43.6718 11.6585 43.8452 11.8371 44.059 11.8371Z" fill="white"/>
<path opacity="0.2" fill-rule="evenodd" clip-rule="evenodd" d="M44.4303 10.3205C46.9275 12.6374 42.0644 12.5404 43.7565 13.5015C39.5383 23.6485 41.7263 40.407 20.9695 39.0361L33.0627 39.0361C36.6564 38.0738 38.7779 35.6932 39.5544 33.0238L44.0516 13.5987C44.1757 13.6275 44.3029 13.6422 44.4303 13.6423C45.3519 13.6423 46.0991 12.8991 46.0991 11.9816C46.099 11.0642 45.3519 10.3204 44.4303 10.3204V10.3205Z" fill="black"/>
<path opacity="0.2" fill-rule="evenodd" clip-rule="evenodd" d="M34.1715 28.0514L32.0297 28.0005L34.7048 17.7671L34.1715 28.0514Z" fill="black"/>
<path opacity="0.2" fill-rule="evenodd" clip-rule="evenodd" d="M27.0329 26.8887L25.3635 27.4587L25.8728 16.3329L27.0329 26.8887Z" fill="black"/>
<path opacity="0.2" fill-rule="evenodd" clip-rule="evenodd" d="M20.6608 27.1794L19.2752 27.4136L16.6132 15.0706L20.6608 27.1794Z" fill="black"/>
<path opacity="0.2" fill-rule="evenodd" clip-rule="evenodd" d="M14.5265 28.4742L13.545 29.1482L8.30255 17.4733L14.5265 28.4742Z" fill="black"/>
<path opacity="0.2" fill-rule="evenodd" clip-rule="evenodd" d="M35.278 7.26657C35.278 7.26657 37.9691 8.52189 35.3466 10.2067C35.3764 10.1986 36.3035 8.4247 35.278 7.26657Z" fill="black"/>
<path opacity="0.2" fill-rule="evenodd" clip-rule="evenodd" d="M25.0384 6.22157C25.0384 6.22157 27.7296 7.47691 25.1071 9.16168C25.1369 9.15357 26.064 7.37971 25.0384 6.22157Z" fill="black"/>
<path opacity="0.2" fill-rule="evenodd" clip-rule="evenodd" d="M14.6907 7.24855C14.6907 7.24855 17.3818 8.50389 14.7594 10.1887C14.7891 10.1805 15.7163 8.40668 14.6907 7.24855Z" fill="black"/>
<path opacity="0.2" fill-rule="evenodd" clip-rule="evenodd" d="M5.71304 10.5547C5.71304 10.5547 8.40418 11.81 5.78173 13.4948C5.81147 13.4867 6.73862 11.7128 5.71304 10.5547Z" fill="black"/>
<path opacity="0.5" fill-rule="evenodd" clip-rule="evenodd" d="M10.54 29.568L11.7346 29.5873L7.68008 18.2223L10.54 29.568Z" fill="url(#paint4_linear_2_372)"/>
<path fill-rule="evenodd" clip-rule="evenodd" d="M15.667 39.0385L14.3978 39.826V42.9553L15.667 43.7433H35.231L36.5002 42.9553V39.826L35.231 39.0385H25.449H15.667Z" fill="#505050" stroke="black" stroke-width="1.1999" stroke-linejoin="round"/>
<path opacity="0.5" fill-rule="evenodd" clip-rule="evenodd" d="M35.947 40.1885L14.953 40.1975L15.8374 39.6555L35.0844 39.6405L35.947 40.1885Z" fill="url(#paint5_linear_2_372)"/>
<path opacity="0.2" fill-rule="evenodd" clip-rule="evenodd" d="M35.947 40.1885L35.939 42.592L35.073 43.1158L26.6337 43.1056C26.6337 43.1056 29.5824 42.4772 28.5728 40.2118C28.5718 40.2078 33.8499 40.1918 35.947 40.1884L35.947 40.1885Z" fill="black"/>
<path fill-rule="evenodd" clip-rule="evenodd" d="M15.667 43.7385V45.698H35.231V43.7385H15.667Z" fill="#505050" stroke="black" stroke-width="1.2" stroke-linecap="round" stroke-linejoin="round"/>
<path opacity="0.5" d="M23.8726 44.3685H16.297V45.0775H23.8726V44.3685Z" fill="url(#paint6_linear_2_372)"/>
<path opacity="0.5" fill-rule="evenodd" clip-rule="evenodd" d="M23.31 27.89C18.26 27.9053 14.9911 29.3242 14.9911 29.3242C13.3023 29.9183 11.9461 30.5569 11.7896 31.6133C11.6425 32.6057 12.4798 33.5453 12.9127 34.1122C14.2041 35.8029 15.2495 36.5213 16.2334 36.9481C17.6722 37.407 17.2158 35.9391 16.7547 35.074C14.1655 30.6053 23.5845 28.9842 27.7127 29.203C30.9219 29.4542 34.1458 29.9698 36.5738 30.6015C34.7601 29.4343 29.5104 28.3329 24.3058 27.9254C23.9792 27.8998 23.6464 27.8886 23.3098 27.8896L23.31 27.89Z" fill="url(#paint7_linear_2_372)"/>
<defs>
<linearGradient id="paint0_linear_2_372" x1="15.8213" y1="22.0926" x2="17.1962" y2="22.0926" gradientUnits="userSpaceOnUse">
<stop stop-color="white"/>
<stop offset="1" stop-color="white" stop-opacity="0"/>
</linearGradient>
<linearGradient id="paint1_linear_2_372" x1="23.5946" y1="21.469" x2="24.943" y2="21.469" gradientUnits="userSpaceOnUse">
<stop stop-color="white"/>
<stop offset="1" stop-color="white" stop-opacity="0"/>
</linearGradient>
<linearGradient id="paint2_linear_2_372" x1="29.9666" y1="21.8099" x2="32.2404" y2="21.7014" gradientUnits="userSpaceOnUse">
<stop stop-color="white"/>
<stop offset="1" stop-color="white" stop-opacity="0"/>
</linearGradient>
<linearGradient id="paint3_linear_2_372" x1="36.0478" y1="24.0507" x2="39.2735" y2="24.0507" gradientUnits="userSpaceOnUse">
<stop stop-color="white"/>
<stop offset="1" stop-color="white" stop-opacity="0"/>
</linearGradient>
<linearGradient id="paint4_linear_2_372" x1="7.67998" y1="24.428" x2="11.74" y2="24.428" gradientUnits="userSpaceOnUse">
<stop stop-color="white"/>
<stop offset="1" stop-color="white" stop-opacity="0"/>
</linearGradient>
<linearGradient id="paint5_linear_2_372" x1="14.947" y1="39.9185" x2="35.947" y2="39.9185" gradientUnits="userSpaceOnUse">
<stop stop-color="white"/>
<stop offset="1" stop-color="white" stop-opacity="0"/>
</linearGradient>
<linearGradient id="paint6_linear_2_372" x1="16.297" y1="44.7285" x2="23.877" y2="44.7285" gradientUnits="userSpaceOnUse">
<stop stop-color="white"/>
<stop offset="1" stop-color="white" stop-opacity="0"/>
</linearGradient>
<linearGradient id="paint7_linear_2_372" x1="18.6995" y1="25.1274" x2="21.8707" y2="31.732" gradientUnits="userSpaceOnUse">
<stop stop-color="white"/>
<stop offset="1" stop-color="white" stop-opacity="0"/>
</linearGradient>
</defs>
</svg>
