<svg width="180" height="180" viewBox="0 0 180 180" fill="none" xmlns="http://www.w3.org/2000/svg">
<path d="M92.9717 26.8071C87.4339 26.3456 82.3579 29.2938 77.7431 35.6519C73.1801 41.9586 71.5905 49.0088 72.9748 56.8024C72.3594 61.3659 74.1026 65.5706 78.2049 69.4159C82.3067 73.2617 86.7673 75.1843 91.5874 75.1843C96.3557 75.1843 100.791 73.5694 104.893 70.3389C108.995 67.1085 111.123 62.5967 111.277 56.8024C111.277 54.3926 111.2 51.6238 111.046 48.4961C110.892 45.3683 110.328 42.9328 109.354 41.1895C104.38 40.2153 100.381 41.856 97.3558 46.1118C96.2274 47.6501 95.0484 49.137 93.8177 50.5727C92.5869 51.9571 91.7409 53.4953 91.2797 55.1873C90.7155 52.9826 89.9977 50.9316 89.1264 49.0344C88.3057 47.086 88.1004 44.6505 88.5111 41.7278C88.8699 38.9078 90.1519 36.2671 92.3563 33.806C94.6125 31.2935 96.894 29.7041 99.2014 29.0375C99.2014 28.4735 98.0477 27.9095 95.7403 27.3454C94.869 26.9352 94.4072 26.7558 94.356 26.8071C94.356 26.8071 93.8947 26.8071 92.9717 26.8071ZM99.2014 23.9613C102.278 25.2431 104.432 27.0121 105.662 29.2682C102.74 30.5501 99.612 32.8318 96.2792 36.1133C92.9464 39.3949 91.6644 42.8815 92.4334 46.5733C92.7411 43.4968 95.1767 40.8305 99.7397 38.5745C104.354 36.3184 108.508 35.498 112.2 36.1133C113.327 38.7796 114.199 41.9586 114.815 45.6503C115.43 49.2908 115.738 52.5467 115.738 55.4181C115.532 62.289 113.123 68.0316 108.508 72.6463C103.893 77.2611 98.3554 79.5684 91.8951 79.5684C85.4342 79.5684 79.8969 77.2611 75.2822 72.6463C70.6674 68.0316 68.283 62.289 68.1294 55.4181C67.9241 46.1887 70.1033 38.395 74.6668 32.037C79.2304 25.679 84.9729 22.5 91.8951 22.5C94.4072 22.5 96.8428 22.9871 99.2014 23.9613ZM41.5949 149.019C39.0312 149.019 37.7493 150.327 37.7493 152.942C37.7493 155.557 39.0312 156.864 41.5949 156.864H141.503C144.118 156.864 145.425 155.557 145.425 152.942C145.425 150.327 144.118 149.019 141.503 149.019H41.5949ZM41.6719 145.097H141.503C146.784 145.097 149.425 147.712 149.425 152.942C149.425 158.223 146.784 160.864 141.503 160.864H41.6719C36.3907 160.864 33.75 158.223 33.75 152.942C33.75 147.712 36.3907 145.097 41.6719 145.097ZM60.0536 88.6438C58.3104 88.6438 57.4386 89.5157 57.4386 91.2589C57.4386 93.0021 58.3104 93.8739 60.0536 93.8739H123.121C124.864 93.8739 125.736 93.0021 125.736 91.2589C125.736 89.5157 124.864 88.6438 123.121 88.6438H60.0536ZM60.1307 84.7215H123.121C127.531 84.7215 129.736 86.9006 129.736 91.2589C129.736 95.6683 127.531 97.8733 123.121 97.8733H60.1307C55.7723 97.8733 53.5931 95.6683 53.5931 91.2589C53.5931 86.9006 55.7723 84.7215 60.1307 84.7215ZM111.277 121.485V107.026H71.8982V121.485C71.8982 124.049 70.9751 126.228 69.129 128.022C67.3346 129.766 65.2067 130.637 62.7458 130.637H56.2082C54.4648 130.637 53.5931 131.509 53.5931 133.252C53.5931 134.996 54.4648 135.867 56.2082 135.867H127.12C128.864 135.867 129.736 134.996 129.736 133.252C129.736 131.509 128.864 130.637 127.12 130.637H120.429C117.866 130.637 115.686 129.766 113.892 128.022C112.097 126.228 111.225 124.049 111.277 121.485ZM115.199 121.485C115.199 124.972 116.943 126.715 120.429 126.715H126.966C131.325 126.715 133.504 128.894 133.504 133.252C133.504 137.662 131.325 139.867 126.966 139.867H56.2082C51.7985 139.867 49.5938 137.662 49.5938 133.252C49.5938 128.894 51.7985 126.715 56.2082 126.715H62.7458C66.1809 126.715 67.8988 124.972 67.8988 121.485V103.103H115.199V121.485Z" fill="#2E0249"/>
<path d="M92.9717 26.807C87.4339 26.3456 82.3579 29.2939 77.7431 35.6519C73.1796 41.9586 71.5899 49.0088 72.9748 56.8024C72.3594 61.3659 74.1026 65.5706 78.2044 69.4159C82.3067 73.2617 86.7673 75.1843 91.5874 75.1843C96.3557 75.1843 100.791 73.5694 104.893 70.3389C108.995 67.1085 111.122 62.5967 111.277 56.8024C111.277 54.3926 111.2 51.6238 111.046 48.496C110.892 45.3683 110.328 42.9328 109.354 41.1894C104.38 40.2153 100.381 41.856 97.3558 46.1118C96.2274 47.65 95.0484 49.137 93.8177 50.5727C92.5869 51.957 91.7409 53.4953 91.2797 55.1874C90.7155 52.9825 89.9977 50.9316 89.1259 49.0344C88.3057 47.086 88.1004 44.6505 88.5105 41.7279C88.8694 38.9078 90.1513 36.2671 92.3563 33.806C94.6125 31.2936 96.894 29.704 99.2014 29.0375C99.2014 28.4735 98.0477 27.9094 95.7403 27.3454C94.869 26.9352 94.4072 26.7557 94.356 26.807C94.356 26.807 93.8947 26.807 92.9717 26.807ZM41.5948 149.019C39.031 149.019 37.7492 150.327 37.7492 152.941C37.7492 155.557 39.031 156.864 41.5948 156.864H141.503C144.118 156.864 145.425 155.557 145.425 152.941C145.425 150.327 144.118 149.019 141.503 149.019H41.5948ZM60.0536 88.6438C58.3104 88.6438 57.4386 89.5157 57.4386 91.2589C57.4386 93.0021 58.3104 93.8739 60.0536 93.8739H123.121C124.864 93.8739 125.736 93.0021 125.736 91.2589C125.736 89.5157 124.864 88.6438 123.121 88.6438H60.0536ZM111.277 121.485V107.026H71.8982V121.485C71.8982 124.049 70.9751 126.228 69.129 128.022C67.3346 129.766 65.2067 130.637 62.7452 130.637H56.208C54.4647 130.637 53.593 131.509 53.593 133.252C53.593 134.995 54.4647 135.867 56.208 135.867H127.12C128.864 135.867 129.736 134.995 129.736 133.252C129.736 131.509 128.864 130.637 127.12 130.637H120.429C117.865 130.637 115.686 129.766 113.892 128.022C112.097 126.228 111.225 124.049 111.277 121.485Z" fill="#C0E218"/>
</svg>
