<svg width="180" height="180" viewBox="0 0 180 180" fill="none" xmlns="http://www.w3.org/2000/svg">
<path d="M111.3 123.72C111.3 127.209 113.08 128.953 116.64 128.953H123.316C127.767 128.953 129.992 131.134 129.992 135.495C129.992 139.908 127.767 142.114 123.316 142.114H51.0589C46.5559 142.114 44.3044 139.908 44.3044 135.495C44.3044 131.134 46.5559 128.953 51.0589 128.953H57.735C61.2427 128.953 62.9972 127.209 62.9972 123.72V105.326H111.3V123.72ZM36.2146 147.347H138.16C143.553 147.347 146.25 149.964 146.25 155.198C146.25 160.482 143.553 163.125 138.16 163.125H36.2146C30.8216 163.125 28.125 160.482 28.125 155.198C28.125 149.964 30.8216 147.347 36.2146 147.347ZM91.5075 37.5212C101.822 38.7527 109.938 42.9086 115.855 49.9893C121.824 57.0701 124.782 65.8693 124.73 76.3875L124.494 100.015L49.8022 99.9383C48.2314 94.2429 48.9382 88.83 51.9228 83.6989C54.9073 78.5683 59.3055 75.2844 65.1178 73.8478C69.7252 73.9502 73.7049 72.5653 77.0558 69.6915C80.4594 66.8183 82.161 63.3549 82.161 59.3016L65.8243 65.2281C63.0495 66.6647 60.2218 67.0236 57.3418 66.3053C54.5146 65.5358 52.3941 63.9197 50.9803 61.4565C49.5142 58.9939 49.043 56.2489 49.5666 53.2217C50.1425 50.1945 51.7657 47.8343 54.4361 46.1411L84.2029 36.7516C84.3598 35.0584 84.9622 34.0835 86.0096 33.827C88.0515 33.4165 89.8841 34.6479 91.5075 37.5212V37.5212ZM78.0767 45.9871C74.8828 46.8081 73.4951 48.0395 73.9142 49.6814C74.3332 51.3233 76.1659 51.7081 79.4121 50.8358C82.6059 50.0149 84.0195 48.7835 83.6533 47.1416C83.1819 45.551 81.3229 45.1662 78.0767 45.9871Z" fill="#2E0249"/>
</svg>
