<svg width="144" height="144" viewBox="0 0 144 144" fill="none" xmlns="http://www.w3.org/2000/svg">
<path d="M36.8864 66.2037L37.0332 67.0284H37.8709H46.2018L39.4349 121.268H29.9716H28.9716V122.268V129.978V130.978H29.9716H35.3591V131.359H29.8205H28.8205V132.359V140.069V141.069H29.8205H113.613H114.613V140.069V132.359V131.359H113.613H108.603V130.978H113.764H114.764V129.978V122.268V121.268H113.764H104.589L97.4591 67.0284H105.978H106.807L106.961 66.2136L115.162 22.7113L115.4 21.4521L114.12 21.5277L94.3157 22.6994L93.3748 22.7551V23.6977V33.3559H83.7716V24.0378V23.0378H82.7716H62.022H61.022V24.0378V33.3559H50.9166L50.8141 24.0646L50.804 23.1504L49.8926 23.0787L30.2013 21.5291L28.9115 21.4276L29.1383 22.7013L36.8864 66.2037Z" fill="#FFEF82" stroke="#111111" stroke-width="2"/>
<path d="M101.442 60.1701C102.274 57.6378 107.792 22.904 107.792 22.904H107.754L114.142 22.526L105.94 66.0284H97.8897C97.8897 66.0284 100.611 62.7024 101.442 60.1701Z" fill="#E2C73F"/>
<path d="M96.3023 66.0284H52.3842L52.3464 66.104L88.063 74.5323C88.063 74.5323 91.9937 99.1748 93.8456 113.083C95.2328 123.473 96.5987 125.635 97.864 127.638C98.2823 128.301 98.6896 128.946 99.0831 129.865H36.4346V132.246H99.9454C101.036 135.826 101.631 140.069 101.631 140.069H113.575V132.359L107.641 132.246L107.679 132.246V129.865L113.726 129.978V122.268H103.672L96.3023 66.0284Z" fill="#E2C73F"/>
</svg>
