<svg width="32" height="32" viewBox="0 0 32 32" fill="none" xmlns="http://www.w3.org/2000/svg">
<path d="M25.2635 8.22494C24.5859 8.94489 23.9136 9.66484 23.2466 10.3848C22.5795 11.1047 21.9125 11.8247 21.2455 12.5447L24.7553 29.0294H7L10.4621 12.767L10.4939 8.38375C10.4939 6.91209 11.0179 5.64688 12.0661 4.58813C13.1249 3.52938 14.4007 3 15.8935 3C17.3969 3 18.6463 3.56643 19.6415 4.6993C19.5991 5.77922 19.7579 6.70563 20.1179 7.47852C20.3614 7.60557 21.0496 7.73792 22.1825 7.87555C23.3259 8.01319 24.3529 8.12965 25.2635 8.22494H25.2635ZM22.9766 9.05077C22.3731 9.02959 21.6425 8.95548 20.785 8.82843C19.938 8.69079 19.435 8.54257 19.2762 8.38375C18.8421 7.30383 18.6251 6.27154 18.6251 5.2869C17.8628 4.48225 16.9523 4.07993 15.8935 4.07993C14.6971 4.07993 13.6754 4.50343 12.8284 5.35043C11.9814 6.19743 11.5579 7.20854 11.5579 8.38375V11.6712H20.5467C20.9596 11.2371 21.362 10.8083 21.7537 10.3848C22.156 9.95071 22.5637 9.50603 22.9766 9.05077ZM23.4212 27.9495L22.8019 25.2179H8.9534L8.34991 27.9495H23.4212ZM20.6103 14.9268H11.1133L9.14397 24.138H22.5795L20.6103 14.9268ZM20.372 13.8469L20.1338 12.767H11.542L11.3197 13.8469H20.372Z" fill="black"/>
<path d="M22.9765 9.05077C22.3731 9.02959 21.6425 8.95548 20.7849 8.82843C19.9379 8.69079 19.435 8.54257 19.2762 8.38375C18.8421 7.30383 18.6251 6.27154 18.6251 5.2869C17.8628 4.48225 16.9522 4.07993 15.8935 4.07993C14.6971 4.07993 13.6754 4.50343 12.8284 5.35043C11.9814 6.19743 11.5579 7.20854 11.5579 8.38375V11.6712H20.5467C20.9596 11.2371 21.3619 10.8083 21.7537 10.3848C22.156 9.95071 22.5636 9.50603 22.9765 9.05077ZM23.4212 27.9495L22.8019 25.2179H8.95337L8.34988 27.9495H23.4212ZM20.6102 14.9268H11.1132L9.14395 24.138H22.5795L20.6102 14.9268ZM20.372 13.8469L20.1338 12.767H11.542L11.3197 13.8469H20.372Z" fill="white"/>
</svg>
