<svg width="180" height="180" viewBox="0 0 180 180" fill="none" xmlns="http://www.w3.org/2000/svg">
<path d="M138.986 71.7249H38.9342C37.8026 61.0054 35.7182 50.2853 32.681 39.5654C47.6292 45.3422 63.2031 48.707 79.4019 49.6599C79.4019 49.2431 79.4019 48.8262 79.4019 48.4093C79.4019 47.9328 79.4019 47.4266 79.4019 46.8906C79.4019 42.4835 78.7466 37.8383 77.4366 32.9548C77.1384 31.2873 76.9899 29.9473 76.9899 28.9348C76.9899 25.6593 78.1509 22.8305 80.4735 20.4483C82.8557 18.0661 85.7441 16.875 89.1388 16.875C92.4739 16.875 95.3027 18.0661 97.6253 20.4483C100.007 22.8305 101.199 25.6593 101.199 28.9348C101.199 29.9473 101.05 31.2873 100.752 32.9548C99.4421 37.8383 98.7868 42.4835 98.7868 46.8906C98.7868 48.1413 98.8166 49.0644 98.8762 49.6599C115.015 48.707 130.589 45.3422 145.597 39.5654C142.321 50.6426 140.118 61.3626 138.986 71.7249ZM138.629 77.7105C138.212 83.6657 138.004 88.7872 138.004 93.0752C138.004 94.5045 138.063 95.5468 138.182 96.2021H40.2742C40.2742 95.7257 40.2444 95.2194 40.1848 94.6834C40.1848 94.1473 40.1848 93.6112 40.1848 93.0752C40.1848 87.5964 39.9764 82.4749 39.5596 77.7105H138.629ZM138.361 102.277C138.361 103.349 138.391 104.391 138.45 105.403C138.51 106.415 138.57 107.398 138.629 108.351H39.4702C39.5893 107.398 39.6786 106.415 39.7382 105.403C39.7977 104.391 39.9169 103.349 40.0955 102.277H138.361ZM139.433 114.426C139.969 120.679 140.862 126.754 142.113 132.649L35.8969 132.56C37.3858 126.664 38.4578 120.62 39.1129 114.426H139.433ZM143.274 138.992C144.168 142.684 145.21 146.317 146.401 149.89C147.592 153.464 148.813 156.948 150.064 160.342H89.1388H28.125C30.7454 153.255 32.9787 146.139 34.8249 138.992H143.274Z" fill="black"/>
<path d="M138.986 71.7249H38.9342L39.5595 77.7099H138.629L138.986 71.7249Z" fill="#777777"/>
<path d="M138.629 108.351H39.4702L39.1129 114.425L139.433 114.426L138.629 108.351Z" fill="#777777"/>
<path d="M142.113 132.649L35.897 132.56L34.8249 138.992H143.274L142.113 132.649Z" fill="#777777"/>
<path d="M138.182 96.2021H40.2743L40.0956 102.277H138.361L138.182 96.2021Z" fill="#777777"/>
</svg>
