<svg width="32" height="32" viewBox="0 0 32 32" fill="none" xmlns="http://www.w3.org/2000/svg">
<path d="M6.49066 9.89342C6.16834 9.77621 5.85579 10.1474 5.553 11.0069C5.22091 11.8664 5.21602 12.3597 5.53834 12.4866C5.85089 12.6136 6.16833 12.2376 6.49065 11.3585C6.78367 10.4892 6.78367 10.0009 6.49065 9.89342H6.49066ZM28.8626 18.977H11.1057C11.428 18.0979 11.5892 17.1359 11.5892 16.0908C11.5892 14.8503 11.3352 13.7222 10.8273 12.7064C10.4659 12.8822 10.0753 12.9994 9.65526 13.058C9.12783 13.3217 8.84946 13.7515 8.82016 14.3473C8.78109 14.865 8.87388 15.2459 9.09853 15.4901C9.32318 16.164 9.39155 16.9063 9.30364 17.717C9.23527 18.3031 9.01062 18.7963 8.6297 19.1968C8.24877 19.5875 7.80925 19.7828 7.31111 19.7828C7.25251 19.7828 7.19879 19.7828 7.14995 19.7828C7.11088 19.7828 7.06693 19.7828 7.01809 19.7828C6.35392 19.7535 5.74346 19.6265 5.18673 19.4019C4.62999 19.1675 4.23442 18.8305 4 18.391V6.36254C4.57627 6.35277 5.16719 6.52858 5.77276 6.88998C5.77276 6.87045 5.77276 6.85092 5.77276 6.83137C5.77276 6.81185 5.77276 6.79231 5.77276 6.77277C5.77276 6.13789 5.8802 5.55186 6.09508 5.01466C6.15369 5.00488 6.33927 5 6.65182 5C7.4332 5 8.13157 5.22953 8.7469 5.68859C9.36224 6.14766 9.79201 6.71904 10.0362 7.40275C12.351 7.25625 14.5536 7.97903 16.6438 9.57109C18.734 11.1534 20.0281 13.5903 20.5263 16.8819C21.1904 16.7549 21.8693 16.6914 22.5627 16.6914C23.2562 16.6914 23.9546 16.6914 24.6578 16.6914C25.0778 16.6914 25.5125 16.711 25.9618 16.7501C26.4208 16.7891 26.8408 16.8673 27.2217 16.9845C28.1106 17.4338 28.6575 18.0979 28.8626 18.977V18.977ZM28.5989 25.5113C28.3254 26.9178 27.8908 28.085 27.295 29.0129H6.98879C6.98879 27.8408 7.1646 26.6736 7.51623 25.5113H28.5989ZM28.9359 19.9586C28.9652 20.154 28.9652 20.3444 28.9359 20.53C28.9457 20.8035 28.9457 20.9646 28.9359 21.0135H10.0069C10.2608 20.6619 10.4904 20.3102 10.6955 19.9586H28.9359ZM7.8825 24.4711C8.17552 23.7386 8.61505 22.9181 9.20108 22.0097H28.9212C28.9017 22.9474 28.848 23.7679 28.7601 24.4711H7.8825Z" fill="black"/>
<path d="M6.49062 9.89341C6.1683 9.7762 5.85574 10.1474 5.55296 11.0069C5.22087 11.8664 5.21598 12.3597 5.5383 12.4866C5.85085 12.6136 6.16829 12.2376 6.49061 11.3585C6.78363 10.4892 6.78364 10.0009 6.49062 9.89341Z" fill="#777777"/>
<path d="M28.8626 18.977H11.1057L10.6954 19.9586H28.9359L28.8626 18.977Z" fill="#777777"/>
<path d="M28.9359 21.0135H10.0068L9.20104 22.0097H28.9212L28.9359 21.0135Z" fill="#777777"/>
<path d="M7.51618 25.5113H28.5989L28.76 24.4711H7.88246L7.51618 25.5113Z" fill="#777777"/>
</svg>
