<svg width="32" height="32" viewBox="0 0 32 32" fill="none" xmlns="http://www.w3.org/2000/svg">
<path d="M27.6173 25.5113H8.659C8.35621 26.4197 8.17552 27.2401 8.11691 27.9727H26.7236C27.0948 27.2597 27.3927 26.4392 27.6173 25.5113ZM27.8224 24.4711C27.9201 23.7679 27.9885 22.9474 28.0275 22.0097H10.5636C9.86038 22.8986 9.34759 23.719 9.02527 24.4711H27.8224ZM27.9982 21.0135C27.9885 20.8377 27.9836 20.6619 27.9836 20.486C27.9836 20.3102 27.9836 20.1344 27.9836 19.9586H11.8382C11.7503 20.1344 11.6527 20.3151 11.5452 20.5007C11.4476 20.6863 11.3596 20.8572 11.2815 21.0135H27.9982ZM6.73973 10.0546C6.99368 10.162 6.99368 10.5918 6.73973 11.3439C6.44671 12.0959 6.17322 12.4183 5.91927 12.3108C5.63602 12.2229 5.63602 11.798 5.91927 11.0362C6.17322 10.2939 6.44671 9.96667 6.73973 10.0546ZM27.8664 18.977C27.7199 18.5961 27.4366 18.2542 27.0166 17.9514C26.6845 17.8342 26.3085 17.761 25.8885 17.7317C25.4685 17.6926 25.0583 17.6731 24.6578 17.6731C23.8081 17.6731 22.9583 17.6731 22.1086 17.6731C21.2686 17.6633 20.4725 17.7756 19.7205 18.01C19.6619 17.6682 19.6179 17.424 19.5886 17.2775C19.0612 13.9957 17.8012 11.6076 15.8087 10.1132C13.8259 8.61878 11.6576 8.08646 9.30364 8.51622C9.2548 7.87158 8.99597 7.30996 8.52714 6.83137C8.06808 6.343 7.50646 6.06952 6.84228 6.01091C6.78368 6.26486 6.75438 6.51881 6.75438 6.77276C6.75438 7.18299 6.83251 7.5981 6.98879 8.01809C7.01809 8.0767 7.03274 8.14995 7.03274 8.23786C7.03274 8.61878 6.85693 8.80924 6.50531 8.80924C6.28066 8.80924 6.13904 8.71157 6.08043 8.51622C5.77765 8.05716 5.42114 7.75438 5.01091 7.60787V17.761C5.16719 18.3665 5.85579 18.7035 7.0767 18.7719C7.106 18.7719 7.14018 18.7719 7.17925 18.7719C7.22809 18.7719 7.28181 18.7719 7.34041 18.7719C7.95575 18.6254 8.31714 18.264 8.42458 17.6877C8.47342 17.4045 8.47831 17.1163 8.43924 16.8233C8.40994 16.5205 8.37087 16.2715 8.32204 16.0761C7.96065 15.4998 7.7946 14.9089 7.8239 14.3033C7.88251 13.2192 8.40994 12.4866 9.40621 12.1057C10.1583 12.008 10.7394 11.715 11.1497 11.2266C12.1069 12.5843 12.5855 14.2057 12.5855 16.0908C12.5855 16.5889 12.5659 17.0821 12.5269 17.5705C12.4878 18.0491 12.395 18.5179 12.2485 18.977H27.8664ZM27.295 29.0129H6.98879C6.98879 27.499 7.25739 26.0632 7.79459 24.7055C8.33179 23.3381 9.06922 22.1123 10.0069 21.0281C11.0618 19.524 11.5892 17.8782 11.5892 16.0908C11.5892 14.8503 11.3352 13.7222 10.8273 12.7064C10.4659 12.8822 10.0753 12.9994 9.65526 13.058C9.12783 13.3217 8.84946 13.7515 8.82016 14.3473C8.78109 14.865 8.87388 15.2459 9.09853 15.4901C9.32318 16.164 9.39155 16.9063 9.30364 17.717C9.23527 18.3031 9.01062 18.7963 8.6297 19.1968C8.24877 19.5874 7.80924 19.7828 7.31111 19.7828C7.25251 19.7828 7.19879 19.7828 7.14995 19.7828C7.11088 19.7828 7.06693 19.7828 7.01809 19.7828C6.35392 19.7535 5.74346 19.6265 5.18673 19.4019C4.62999 19.1675 4.23442 18.8305 4 18.391V6.36254C4.57627 6.35277 5.16719 6.52858 5.77276 6.88997C5.77276 6.87044 5.77276 6.8509 5.77276 6.83137C5.77276 6.81183 5.77276 6.7923 5.77276 6.77276C5.77276 6.13789 5.8802 5.55185 6.09508 5.01465C6.15369 5.00488 6.33927 5 6.65182 5C7.4332 5 8.13157 5.22953 8.7469 5.68859C9.36224 6.14766 9.79201 6.71904 10.0362 7.40275C12.351 7.25624 14.5536 7.97902 16.6438 9.57109C18.734 11.1534 20.0281 13.5903 20.5263 16.8819C21.1904 16.7549 21.8693 16.6914 22.5627 16.6914C23.2562 16.6914 23.9546 16.6914 24.6578 16.6914C25.0778 16.6914 25.5125 16.711 25.9618 16.7501C26.4208 16.7891 26.8408 16.8673 27.2217 16.9845C28.384 17.5705 28.9652 18.4642 28.9652 19.6656C28.9652 19.8121 28.9652 19.9586 28.9652 20.1051C28.975 20.2419 28.9652 20.3835 28.9359 20.53C28.9359 20.53 28.9359 20.6423 28.9359 20.867C28.9359 22.3614 28.8529 23.802 28.6868 25.189C28.5208 26.5662 28.0569 27.8408 27.295 29.0129H27.295Z" fill="black"/>
<path d="M27.6173 25.5113H8.65901C8.35622 26.4197 8.17553 27.2401 8.11692 27.9727H26.7236C27.0948 27.2597 27.3927 26.4392 27.6173 25.5113ZM27.8224 24.4711C27.9201 23.7678 27.9885 22.9474 28.0275 22.0097H10.5636C9.86039 22.8986 9.3476 23.719 9.02528 24.4711H27.8224ZM27.9982 21.0135C27.9885 20.8377 27.9836 20.6618 27.9836 20.486C27.9836 20.3102 27.9836 20.1344 27.9836 19.9586H11.8383C11.7503 20.1344 11.6527 20.3151 11.5452 20.5007C11.4476 20.6863 11.3597 20.8572 11.2815 21.0135H27.9982ZM6.73974 10.0546C6.99369 10.162 6.99369 10.5918 6.73974 11.3439C6.44672 12.0959 6.17323 12.4183 5.91928 12.3108C5.63603 12.2229 5.63603 11.798 5.91928 11.0362C6.17323 10.2939 6.44672 9.96666 6.73974 10.0546ZM27.8664 18.977C27.7199 18.5961 27.4366 18.2542 27.0166 17.9514C26.6845 17.8342 26.3085 17.761 25.8885 17.7317C25.4685 17.6926 25.0583 17.6731 24.6578 17.6731C23.8081 17.6731 22.9583 17.6731 22.1086 17.6731C21.2686 17.6633 20.4725 17.7756 19.7205 18.01C19.6619 17.6682 19.6179 17.424 19.5886 17.2775C19.0612 13.9957 17.8012 11.6076 15.8087 10.1132C13.8259 8.61878 11.6576 8.08646 9.30365 8.51622C9.25482 7.87158 8.99598 7.30996 8.52715 6.83136C8.06809 6.343 7.50647 6.06951 6.84229 6.01091C6.78369 6.26486 6.75439 6.51881 6.75439 6.77276C6.75439 7.18299 6.83253 7.5981 6.9888 8.01809C7.0181 8.07669 7.03275 8.14995 7.03275 8.23785C7.03275 8.61878 6.85694 8.80924 6.50532 8.80924C6.28067 8.80924 6.13905 8.71157 6.08044 8.51622C5.77766 8.05716 5.42115 7.75437 5.01093 7.60786V17.761C5.1672 18.3665 5.8558 18.7035 7.07671 18.7719C7.10601 18.7719 7.1402 18.7719 7.17926 18.7719C7.2281 18.7719 7.28182 18.7719 7.34042 18.7719C7.95577 18.6254 8.31716 18.264 8.42459 17.6877C8.47343 17.4045 8.47832 17.1163 8.43925 16.8233C8.40995 16.5205 8.37088 16.2714 8.32205 16.0761C7.96066 15.4998 7.79461 14.9089 7.82392 14.3033C7.88252 13.2192 8.40995 12.4866 9.40622 12.1057C10.1583 12.008 10.7395 11.715 11.1497 11.2266C12.1069 12.5843 12.5855 14.2057 12.5855 16.0908C12.5855 16.5889 12.5659 17.0821 12.5269 17.5705C12.4878 18.0491 12.395 18.5179 12.2485 18.977H27.8664Z" fill="white"/>
</svg>
