<svg width="32" height="32" viewBox="0 0 32 32" fill="none" xmlns="http://www.w3.org/2000/svg">
<path d="M18.6256 13.7183H12.4954L12.9878 12.5431C12.1725 11.8337 11.7649 10.9126 11.7649 9.77975C11.7649 8.74217 12.1302 7.85282 12.8607 7.11169C13.6018 6.37056 14.4965 6 15.5447 6C16.5822 6 17.4716 6.37056 18.2127 7.11169C18.9538 7.85282 19.3244 8.74217 19.3244 9.77975C19.3244 10.8703 18.9221 11.7914 18.1174 12.5431L18.6256 13.7183ZM23.4376 25.1211L25.0734 28.9326L6 28.9167L7.63577 25.1211L23.4376 25.1211ZM19.5467 15.8782H11.5584L12.0349 14.7982H19.1021L19.5467 15.8782ZM8.09633 23.9935L11.1138 16.9581H19.9438L22.993 23.9776L8.09633 23.9935Z" fill="black"/>
<path d="M18.6257 13.7183H12.4955L12.0349 14.7982H19.1021L18.6257 13.7183Z" fill="#777777"/>
<path d="M19.5468 15.8782H11.5585L11.1138 16.9581H19.9438L19.5468 15.8782Z" fill="#777777"/>
<path d="M7.6358 25.1211L23.4377 25.1211L22.993 23.9776L8.09636 23.9935L7.6358 25.1211Z" fill="#777777"/>
</svg>
