<svg width="32" height="32" viewBox="0 0 32 32" fill="none" xmlns="http://www.w3.org/2000/svg">
<path d="M22.4048 14.8136H9.31867C9.22338 13.6384 9.05398 12.3732 8.81047 11.018H14.0513C13.9348 10.478 13.8448 10.0916 13.7813 9.85863C13.7284 9.56218 13.7019 9.32396 13.7019 9.14397C13.7019 8.56166 13.9084 8.05875 14.3213 7.63525C14.7448 7.21175 15.2583 7 15.8618 7C16.4547 7 16.9576 7.21175 17.3705 7.63525C17.794 8.05875 18.0057 8.56166 18.0057 9.14397C18.0057 9.32396 17.9793 9.56218 17.9263 9.85863C17.7993 10.3457 17.7146 10.7321 17.6722 11.018H22.913C22.6589 12.3732 22.4895 13.6384 22.4048 14.8136ZM9.33455 15.8935H22.4048C22.3943 16.0841 22.3837 16.2694 22.3731 16.4494C22.3625 16.6294 22.3572 16.804 22.3572 16.9734C22.3572 17.5875 22.3625 18.0375 22.3731 18.3234H9.31868C9.35044 17.8999 9.36633 17.4499 9.36633 16.9734C9.36633 16.497 9.35574 16.137 9.33458 15.8935H9.33455ZM22.5478 20.4991H9.15985C9.22338 20.0121 9.26044 19.6468 9.27102 19.4033H22.4525C22.4631 19.7738 22.4948 20.1391 22.5478 20.4991ZM9.00104 21.5949H22.6907C22.8072 22.4101 22.9607 23.2148 23.1513 24.0089H8.57225C8.66754 23.6171 8.74694 23.2201 8.81047 22.8178C8.87399 22.4154 8.93752 22.0078 9.00104 21.5949ZM8.30227 25.1364H23.4212C23.7918 26.5022 24.2259 27.7674 24.7235 28.9321H15.8618H7C7.48703 27.7674 7.92111 26.5022 8.30227 25.1364V25.1364Z" fill="black"/>
<path d="M22.4048 14.8136H9.31859L9.33447 15.8935H22.4048V14.8136Z" fill="#777777"/>
<path d="M22.373 18.3234H9.3186L9.27094 19.4033H22.4524L22.373 18.3234Z" fill="#777777"/>
<path d="M22.5477 20.4991H9.15977L9.00096 21.5949H22.6906L22.5477 20.4991Z" fill="#777777"/>
<path d="M23.1512 24.0089H8.57217L8.30219 25.1364H23.4212L23.1512 24.0089Z" fill="#777777"/>
</svg>
