<svg width="32" height="32" viewBox="0 0 32 32" fill="none" xmlns="http://www.w3.org/2000/svg">
<path d="M22.0734 16.8326L23.8839 23.868H7.11328L8.98727 16.8326H22.0734ZM21.5017 14.6886L21.7876 15.7527H9.24137L9.54311 14.6727L21.5017 14.6886ZM24.2809 24.9956L25.2656 28.7912H5.73161L6.77977 24.9956H24.2809ZM16.3244 8.95548C16.155 8.69079 16.0703 8.38905 16.0703 8.05025C16.0703 7.7538 16.1286 7.45205 16.245 7.14501L16.6579 6.25566C17.1026 5.2922 17.7643 4.50872 18.6431 3.90523C19.5324 3.30175 20.5277 3 21.6288 3C22.9734 3 24.1486 3.44997 25.1544 4.34991C26.1602 5.23926 26.7743 6.35095 26.9966 7.68498L28.0766 13.7675L22.5658 12.2906C22.4493 12.2588 22.3381 12.2429 22.2323 12.2429C21.5229 12.2429 21.1682 12.6029 21.1682 13.3228C21.1682 13.4181 21.1788 13.4869 21.2 13.5293L21.2317 13.5928H9.82894L9.87659 13.4816C9.88718 13.4393 9.89248 13.3864 9.89248 13.3228C9.89248 12.6029 9.5325 12.2429 8.81255 12.2429C8.70667 12.2429 8.6008 12.2588 8.49492 12.2906L3 13.7675L4.06405 7.68498C4.26521 6.35095 4.8687 5.23926 5.87452 4.34991C6.89092 3.44997 8.07672 3 9.43193 3C10.5224 3 11.5124 3.30175 12.4017 3.90523C13.2911 4.50872 13.9581 5.2922 14.4028 6.25566L14.8157 7.1609C14.9321 7.44676 14.9904 7.74321 14.9904 8.05025C14.9904 8.39964 14.9004 8.70138 14.7204 8.95548C14.4134 9.22017 14.2598 9.5325 14.2598 9.89248C14.2598 10.7289 14.6833 11.1471 15.5303 11.1471C16.3668 11.1471 16.785 10.7289 16.785 9.89248C16.785 9.52191 16.6314 9.20958 16.3244 8.95548H16.3244Z" fill="black"/>
<path d="M9.54313 14.6727L21.5017 14.6886L21.2317 13.5928H9.82896L9.54313 14.6727Z" fill="#777777"/>
<path d="M8.98728 16.8326H22.0735L21.7876 15.7527H9.24138L8.98728 16.8326Z" fill="#777777"/>
<path d="M23.8839 23.868H7.11329L6.77979 24.9956H24.281L23.8839 23.868Z" fill="#777777"/>
</svg>
