<svg width="32" height="32" viewBox="0 0 32 32" fill="none" xmlns="http://www.w3.org/2000/svg">
<path d="M21.1389 15.0434C21.0564 14.8196 20.9681 14.584 20.8739 14.3366C20.7914 14.0775 20.6913 13.836 20.5735 13.6122L15.679 15.5558L14.7779 12.9054L19.0892 10.8734C18.9832 10.6967 18.8831 10.52 18.7889 10.3433C18.6946 10.1666 18.6122 9.97815 18.5415 9.7779C18.4473 9.58943 18.3353 9.40095 18.2058 9.21248C18.088 9.02401 17.982 8.82964 17.8877 8.62939C17.7817 8.42914 17.6639 8.23477 17.5343 8.0463C17.4048 7.85782 17.2928 7.65757 17.1986 7.44554C17.1633 7.38664 17.1338 7.32774 17.1103 7.26884C17.0985 7.20994 17.0808 7.14516 17.0573 7.07448C16.9395 6.87423 16.7804 6.60918 16.5802 6.27936C16.4977 6.18512 16.3328 5.92008 16.0854 5.48423C15.3904 6.70931 14.6896 7.94028 13.9828 9.17714C13.276 10.4022 12.6046 11.6391 11.9685 12.8877C11.5915 13.677 11.2794 14.4191 11.032 15.1141C10.7728 15.8797 10.5608 16.6277 10.3959 17.3581C10.1485 18.536 9.97771 19.9201 9.88347 21.5104C9.81279 22.6177 9.76568 23.725 9.74212 24.8323C9.73033 25.9278 9.72443 27.0233 9.72443 28.1188H22.4818C22.4818 27.8714 22.47 27.6181 22.4464 27.359C22.4347 27.088 22.4288 26.8289 22.4288 26.5815C22.3934 25.6274 22.3522 24.6673 22.3051 23.7014C22.2697 22.7355 22.2403 21.7754 22.2167 20.8213C22.2049 20.6093 22.1873 20.3913 22.1637 20.1675C22.1519 19.9437 22.146 19.7199 22.146 19.4961C22.1343 19.2016 22.04 18.6833 21.8633 17.9412C21.8633 17.7056 21.828 17.47 21.7573 17.2344C21.6984 16.9988 21.6454 16.7573 21.5983 16.51C21.5865 16.2508 21.5217 16.0093 21.4039 15.7855C21.2979 15.5499 21.2096 15.3025 21.1389 15.0434H21.1389ZM23.2062 28.8432H9C9 25.3564 9.07068 22.6354 9.21203 20.6799C9.35339 18.7127 9.66555 16.9694 10.1485 15.4498C10.6433 13.9302 11.3559 12.3517 12.2865 10.7144C13.2289 9.07702 14.5011 6.83889 16.1031 4C16.2327 4.28271 16.3799 4.57131 16.5448 4.8658C16.7098 5.16029 16.8629 5.41355 17.0042 5.62559C17.1338 5.8494 17.287 6.10266 17.4637 6.38537C17.6521 6.6563 17.7699 6.88011 17.817 7.05681C17.8995 7.2924 18.0114 7.52211 18.1528 7.74592C18.3059 7.95795 18.4355 8.15231 18.5415 8.32901C18.6239 8.5057 18.7476 8.72951 18.9125 9.00045C19.0892 9.27138 19.2011 9.49519 19.2483 9.67188C19.2954 9.76612 19.4191 10.0017 19.6193 10.3787C19.8196 10.7556 19.9668 11.0324 20.0611 11.2091L15.6614 13.2764L16.1031 14.6193L20.8739 12.7287C20.9092 12.8229 20.9916 12.982 21.1212 13.2058C21.2626 13.4178 21.3627 13.5886 21.4216 13.7182C21.4569 13.8595 21.5276 14.0598 21.6336 14.3189C21.7397 14.5781 21.8162 14.796 21.8633 14.9727C21.9458 15.2083 22.04 15.4557 22.1461 15.7148C22.2521 15.9622 22.3051 16.1978 22.3051 16.4216C22.3404 16.6454 22.3934 16.8869 22.4641 17.1461C22.5348 17.4052 22.5701 17.6408 22.5701 17.8528C22.6172 18.0884 22.6761 18.3535 22.7468 18.648C22.8175 18.9307 22.8528 19.2075 22.8528 19.4784C22.8528 19.714 22.8646 19.9967 22.8881 20.3265C22.9235 20.6446 22.9412 20.9626 22.9412 21.2807C22.9412 21.5987 22.9529 21.9404 22.9765 22.3055C23.0118 22.6589 23.0295 23.0359 23.0295 23.4364C23.0295 23.7898 23.0413 24.1726 23.0648 24.5849C23.1001 24.9854 23.1178 25.4153 23.1178 25.8747C23.1178 26.3224 23.1296 26.7936 23.1531 27.2883C23.1885 27.783 23.2061 28.3013 23.2061 28.8432H23.2062Z" fill="black"/>
<path d="M21.1389 15.0434C21.0564 14.8196 20.9681 14.584 20.8738 14.3366C20.7914 14.0775 20.6913 13.836 20.5735 13.6122L15.679 15.5558L14.7779 12.9054L19.0892 10.8734C18.9832 10.6967 18.8831 10.52 18.7889 10.3433C18.6946 10.1666 18.6122 9.97818 18.5415 9.77792C18.4472 9.58945 18.3353 9.40097 18.2058 9.2125C18.088 9.02403 17.9819 8.82967 17.8877 8.62941C17.7817 8.42916 17.6639 8.23479 17.5343 8.04632C17.4047 7.85785 17.2928 7.65759 17.1986 7.44556C17.1633 7.38666 17.1338 7.32776 17.1103 7.26886C17.0985 7.20997 17.0808 7.14518 17.0572 7.0745C16.9395 6.87425 16.7804 6.60921 16.5802 6.27938C16.4977 6.18514 16.3328 5.9201 16.0854 5.48425C15.3904 6.70933 14.6895 7.9403 13.9828 9.17716C13.276 10.4022 12.6046 11.6391 11.9685 12.8877C11.5915 13.677 11.2793 14.4191 11.032 15.1141C10.7728 15.8798 10.5608 16.6278 10.3959 17.3581C10.1485 18.5361 9.9777 19.9202 9.88346 21.5104C9.81278 22.6177 9.76567 23.725 9.74211 24.8323C9.73032 25.9278 9.72443 27.0233 9.72443 28.1188H22.4817C22.4817 27.8714 22.47 27.6181 22.4464 27.359C22.4346 27.0881 22.4288 26.8289 22.4288 26.5815C22.3934 25.6274 22.3522 24.6674 22.3051 23.7014C22.2697 22.7355 22.2403 21.7755 22.2167 20.8213C22.2049 20.6093 22.1873 20.3914 22.1637 20.1675C22.1519 19.9437 22.146 19.7199 22.146 19.4961C22.1342 19.2016 22.04 18.6833 21.8633 17.9412C21.8633 17.7056 21.828 17.47 21.7573 17.2344C21.6984 16.9988 21.6454 16.7573 21.5983 16.51C21.5865 16.2508 21.5217 16.0093 21.4039 15.7855C21.2979 15.5499 21.2096 15.3026 21.1389 15.0434Z" fill="white"/>
</svg>
