<svg width="32" height="32" viewBox="0 0 32 32" fill="none" xmlns="http://www.w3.org/2000/svg">
<path d="M21.7855 29.0552H10L11.4312 17.2874L14.3467 12.8524V9.84858H11.4312V6.93312H14.3467V4H17.3505V6.93312H20.2659V9.84858H17.3505V12.8524L20.2659 17.2874L21.7855 29.0552ZM19.5768 17.5348L16.6437 13.0821V9.1418H19.5592V7.6399H16.6437V4.72445H15.0535V7.6399H12.138V9.1418H15.0535V13.0821L12.1203 17.5348L10.8128 28.3485H20.9727L19.5768 17.5348Z" fill="black"/>
<path d="M19.5768 17.5348L16.6437 13.0821V9.14178H19.5591V7.63988H16.6437V4.72443H15.0534V7.63988H12.138V9.14178H15.0534V13.0821L12.1203 17.5348L10.8128 28.3484H20.9727L19.5768 17.5348Z" fill="white"/>
</svg>
