<svg width="32" height="32" viewBox="0 0 32 32" fill="none" xmlns="http://www.w3.org/2000/svg">
<path d="M16.3449 9.97226C16.7101 9.97226 16.8927 10.2196 16.8927 10.7144C16.8927 11.0795 16.7101 11.2621 16.3449 11.2621C15.968 11.2621 15.7795 11.0795 15.7795 10.7144C15.7795 10.2196 15.968 9.97226 16.3449 9.97226Z" fill="black"/>
<path fill-rule="evenodd" clip-rule="evenodd" d="M10.3904 28.8432V25.38C10.3904 24.1903 10.6201 22.9711 11.0795 21.7224C11.5389 20.4738 12.0454 19.3429 12.599 18.3299C13.1527 17.3051 13.6592 16.4687 14.1186 15.8208L14.8254 14.8314C14.2953 15.0552 13.9596 15.2378 13.8182 15.3791C13.6769 15.5205 13.3765 15.6559 12.9171 15.7855C12.175 16.0093 11.5035 16.2508 10.9028 16.51C10.302 16.7691 9.61291 16.8987 8.83545 16.8987C8.61164 16.8987 8.31715 16.6925 7.95198 16.2802C7.59859 15.8562 7.40422 15.5794 7.36888 15.4498C7.22752 15.1435 7.13919 14.8019 7.10385 14.425C7.0803 14.0362 7.05084 13.7064 7.01549 13.4355C6.92125 12.7876 7.25698 12.1692 8.02266 11.5802C8.80011 10.9794 9.74248 10.4022 10.8498 9.84858C11.9571 9.28316 13.1056 8.7413 14.2953 8.22299C15.485 7.70469 16.4627 7.19228 17.2284 6.68575L18.1826 4L18.96 6.68575C20.6563 10.0665 21.9285 13.5356 22.7766 17.093C23.6365 20.6387 24.0665 24.5554 24.0665 28.8432H10.3904ZM23.236 25.4507C23.3067 26.3459 23.342 27.2353 23.342 28.1188H11.1148V25.38C11.1266 24.7439 11.2208 24.0371 11.3975 23.2597C11.7038 22.0346 12.1337 20.8566 12.6874 19.7258C13.2528 18.5949 13.883 17.4994 14.578 16.4393C14.9667 15.8503 15.379 15.279 15.8149 14.7253C16.2507 14.1599 16.6924 13.5945 17.1401 13.0291L14.3483 14.2659C14.0185 14.4073 13.7416 14.5604 13.5178 14.7253C13.294 14.8903 13.029 15.0139 12.7227 15.0964C12.0984 15.2731 11.4741 15.5028 10.8497 15.7855C10.2254 16.0564 9.58932 16.1919 8.94145 16.1919C8.63518 15.9917 8.3348 15.6559 8.04031 15.1847C7.93429 14.902 7.86361 14.6075 7.82827 14.3013C7.80471 13.995 7.77526 13.6887 7.73993 13.3825C7.71637 13.2647 7.73404 13.1351 7.79293 12.9937C7.96963 12.6286 8.24056 12.3105 8.60573 12.0396C8.9709 11.7569 9.33017 11.5095 9.68356 11.2975C10.6024 10.7674 11.5506 10.2785 12.5283 9.83091C13.5178 9.38328 14.4955 8.92977 15.4615 8.47036C16.2271 8.10519 17.0223 7.66935 17.8468 7.16283L18.1295 6.31469L18.3239 6.95079L18.6596 7.6399C19.4606 9.33617 20.1615 11.0148 20.7623 12.6757C21.5162 14.8667 22.0993 17.0695 22.5116 19.2841C22.7236 20.462 22.8944 21.6223 23.024 22.7649C23.1064 23.6602 23.1771 24.5554 23.236 25.4507Z" fill="black"/>
<path fill-rule="evenodd" clip-rule="evenodd" d="M23.342 28.1188C23.342 27.2353 23.3067 26.3459 23.236 25.4507C23.1771 24.5554 23.1064 23.6602 23.024 22.7649C22.8944 21.6223 22.7236 20.462 22.5116 19.284C22.0993 17.0695 21.5162 14.8667 20.7623 12.6757C20.1615 11.0147 19.4606 9.33615 18.6596 7.63989L18.3239 6.95078L18.1295 6.31468L17.8468 7.16281C17.0223 7.66934 16.2271 8.10518 15.4615 8.47035C14.4955 8.92976 13.5178 9.38327 12.5283 9.8309C11.5506 10.2785 10.6024 10.7674 9.68356 11.2975C9.33017 11.5095 8.9709 11.7569 8.60573 12.0396C8.24056 12.3105 7.96963 12.6286 7.79293 12.9937C7.73404 13.1351 7.71637 13.2647 7.73992 13.3825C7.77526 13.6887 7.80471 13.995 7.82827 14.3013C7.86361 14.6075 7.93429 14.902 8.0403 15.1847C8.3348 15.6559 8.63518 15.9916 8.94145 16.1919C9.58932 16.1919 10.2254 16.0564 10.8497 15.7855C11.4741 15.5028 12.0984 15.2731 12.7227 15.0964C13.029 15.0139 13.294 14.8902 13.5178 14.7253C13.7416 14.5604 14.0185 14.4073 14.3483 14.2659L17.1401 13.0291C16.6924 13.5945 16.2507 14.1599 15.8149 14.7253C15.379 15.279 14.9667 15.8503 14.578 16.4393C13.883 17.4994 13.2528 18.5949 12.6874 19.7258C12.1337 20.8566 11.7038 22.0346 11.3975 23.2597C11.2208 24.0371 11.1266 24.7439 11.1148 25.38V28.1188H23.342ZM16.8927 10.7144C16.8927 10.2196 16.7101 9.97225 16.3449 9.97225C15.968 9.97225 15.7795 10.2196 15.7795 10.7144C15.7795 11.0795 15.968 11.2621 16.3449 11.2621C16.7101 11.2621 16.8927 11.0795 16.8927 10.7144Z" fill="white"/>
</svg>
