<svg width="32" height="32" viewBox="0 0 32 32" fill="none" xmlns="http://www.w3.org/2000/svg">
<path d="M15.2407 13.7779H16.9723V14.3787H15.2407V13.7779ZM13.9331 22.0825H18.6862V22.6833H13.9331V22.0825ZM16.1595 28.6202H11C11.3063 27.4423 11.7186 26.2702 12.2369 25.104C12.7552 23.9378 12.926 22.807 12.7493 21.7115C12.655 20.934 12.337 20.3686 11.7951 20.0152C11.265 19.6618 11 19.0905 11 18.3013C11 17.4767 11.2415 16.7051 11.7244 15.9866C12.2074 15.2562 12.6963 14.8675 13.191 14.8204C13.7093 14.7851 14.0274 14.679 14.1452 14.5023C14.263 14.3139 14.3219 14.0429 14.3219 13.6896C14.3219 13.3362 14.045 12.9003 13.4914 12.382C12.9377 11.8637 12.6609 11.3395 12.6609 10.8094C12.6609 9.98487 13.032 9.31343 13.7741 8.79512C14.528 8.26504 15.3231 8 16.1595 8C17.0312 8 17.844 8.26504 18.5979 8.79512C19.3517 9.31343 19.7287 9.98487 19.7287 10.8094C19.7287 11.3395 19.4519 11.8637 18.8982 12.382C18.3564 12.9003 18.0854 13.3362 18.0854 13.6896C18.0854 14.0429 18.1384 14.3139 18.2445 14.5023C18.3623 14.679 18.6862 14.7851 19.2163 14.8204C19.6875 14.8675 20.1645 15.2562 20.6475 15.9866C21.1422 16.7051 21.3896 17.4767 21.3896 18.3013C21.3896 19.0905 21.1187 19.6618 20.5768 20.0152C20.035 20.3686 19.7228 20.934 19.6403 21.7115C19.4637 22.807 19.6345 23.9378 20.1528 25.104C20.6711 26.2702 21.0834 27.4423 21.3896 28.6202H16.1595ZM19.1633 23.7081C19.0808 23.2723 19.0337 22.8835 19.0219 22.5419C19.0219 22.2474 19.0396 21.9412 19.0749 21.6231L19.1456 21.3051L19.234 20.987L19.3576 20.6866L19.5167 20.4216C19.6698 20.1978 19.8288 19.9916 19.9937 19.8032C20.3471 19.4262 20.5886 19.1082 20.7182 18.849C20.8949 18.3072 20.836 17.6887 20.5415 16.9937C20.2588 16.2987 19.8759 15.7922 19.393 15.4742C19.3105 15.4388 19.0985 15.3917 18.7569 15.3328C18.4859 15.2857 18.2621 15.2032 18.0854 15.0854C17.7556 14.8616 17.5671 14.5318 17.52 14.096C17.52 14.0253 17.5141 13.9546 17.5023 13.8839C17.5023 13.8015 17.5023 13.719 17.5023 13.6365C17.5377 13.3774 17.6614 13.0829 17.8734 12.7531C18.0619 12.4939 18.2621 12.2407 18.4742 11.9933C18.698 11.7341 18.8923 11.4514 19.0573 11.1452C19.1751 10.886 19.1809 10.5915 19.0749 10.2617C18.8511 9.69626 18.4506 9.27809 17.8734 9.00716C17.2962 8.73623 16.7249 8.59487 16.1595 8.58309C14.9933 8.60664 14.1216 9.0307 13.5444 9.85529C13.2735 10.2911 13.1851 10.674 13.2794 11.0038C13.3854 11.263 13.5267 11.5044 13.7034 11.7282C13.8919 11.9521 14.0745 12.17 14.2512 12.382C14.5221 12.7118 14.7282 13.0535 14.8696 13.4068C14.9167 13.8309 14.8814 14.2137 14.7636 14.5554C14.634 14.7792 14.4868 14.9559 14.3219 15.0854C14.0156 15.2504 13.6622 15.3505 13.2617 15.3858C13.1086 15.4094 12.9319 15.5036 12.7316 15.6685C12.3429 16.0219 12.0366 16.4872 11.8128 17.0644C11.589 17.6416 11.5301 18.1835 11.6361 18.69C11.7186 18.9609 11.8481 19.1965 12.0248 19.3968C12.2015 19.5853 12.3782 19.7796 12.5549 19.9799L12.7316 20.1919L12.8906 20.4216L13.032 20.6866L13.1733 20.987L13.2617 21.3051C13.3206 21.6113 13.3618 21.953 13.3854 22.3299C13.3854 22.483 13.3736 22.7127 13.3501 23.019C13.244 23.7611 13.0556 24.515 12.7846 25.2807C12.6079 25.7401 12.4312 26.1995 12.2546 26.6589C12.0779 27.1183 11.9188 27.5777 11.7775 28.0371H20.6299C20.406 27.401 20.1646 26.7649 19.9054 26.1288C19.658 25.4809 19.446 24.8213 19.2693 24.1499L19.2163 23.9378L19.1633 23.7081Z" fill="black"/>
<path d="M15.2407 13.7779H16.9723V14.3787H15.2407V13.7779ZM13.9331 22.0825H18.6862V22.6833H13.9331V22.0825ZM19.1633 23.7081C19.0808 23.2723 19.0337 22.8835 19.0219 22.5419C19.0219 22.2474 19.0396 21.9412 19.0749 21.6231L19.1456 21.3051L19.234 20.987L19.3576 20.6866L19.5167 20.4216C19.6698 20.1978 19.8288 19.9916 19.9937 19.8032C20.3471 19.4262 20.5886 19.1082 20.7182 18.849C20.8949 18.3072 20.836 17.6887 20.5415 16.9937C20.2588 16.2987 19.8759 15.7922 19.393 15.4742C19.3105 15.4388 19.0985 15.3917 18.7569 15.3328C18.486 15.2857 18.2621 15.2032 18.0854 15.0854C17.7556 14.8616 17.5671 14.5318 17.52 14.0959C17.52 14.0253 17.5141 13.9546 17.5024 13.8839C17.5024 13.8015 17.5024 13.719 17.5024 13.6365C17.5377 13.3774 17.6614 13.0829 17.8734 12.7531C18.0619 12.4939 18.2621 12.2407 18.4742 11.9933C18.698 11.7341 18.8923 11.4514 19.0573 11.1452C19.1751 10.886 19.1809 10.5915 19.0749 10.2617C18.8511 9.69626 18.4506 9.27808 17.8734 9.00715C17.2962 8.73622 16.7249 8.59486 16.1595 8.58308C14.9933 8.60663 14.1216 9.0307 13.5444 9.85528C13.2735 10.2911 13.1851 10.674 13.2794 11.0038C13.3854 11.2629 13.5267 11.5044 13.7034 11.7282C13.8919 11.9521 14.0745 12.17 14.2512 12.382C14.5221 12.7118 14.7283 13.0534 14.8696 13.4068C14.9167 13.8309 14.8814 14.2137 14.7636 14.5553C14.634 14.7792 14.4868 14.9559 14.3219 15.0854C14.0156 15.2503 13.6622 15.3505 13.2617 15.3858C13.1086 15.4094 12.9319 15.5036 12.7316 15.6685C12.3429 16.0219 12.0366 16.4872 11.8128 17.0644C11.589 17.6416 11.5301 18.1835 11.6361 18.69C11.7186 18.9609 11.8481 19.1965 12.0248 19.3968C12.2015 19.5852 12.3782 19.7796 12.5549 19.9799L12.7316 20.1919L12.8906 20.4216L13.032 20.6866L13.1733 20.987L13.2617 21.3051C13.3206 21.6113 13.3618 21.9529 13.3854 22.3299C13.3854 22.483 13.3736 22.7127 13.3501 23.019C13.244 23.7611 13.0556 24.515 12.7846 25.2807C12.6079 25.7401 12.4313 26.1995 12.2546 26.6589C12.0779 27.1183 11.9188 27.5777 11.7775 28.0371H20.6299C20.4061 27.401 20.1646 26.7649 19.9054 26.1288C19.658 25.4809 19.446 24.8213 19.2693 24.1498L19.2163 23.9378L19.1633 23.7081Z" fill="white"/>
</svg>
