<svg width="32" height="32" viewBox="0 0 32 32" fill="none" xmlns="http://www.w3.org/2000/svg">
<path d="M18.9197 28.9316H12.6647L8 7.09215L12.6647 14.8314L11.0921 5.5019L14.1666 13.3295L15.7569 4L17.3471 13.3295L20.4216 5.5019L18.9197 14.8314L23.5844 7.09215L18.9197 28.9316ZM22.0119 11.1031L17.6298 18.3476L18.6723 11.8982L17.0644 15.9799L15.7569 8.25833L14.4493 15.9799L12.9474 12.1456L14.0076 18.4359L9.59025 11.1031L13.2478 28.2071H18.3543L22.0119 11.1031Z" fill="black"/>
<path d="M22.0118 11.1031L17.6298 18.3476L18.6723 11.8982L17.0644 15.9799L15.7569 8.25832L14.4493 15.9799L12.9474 12.1456L14.0076 18.4359L9.59024 11.1031L13.2478 28.2071H18.3543L22.0118 11.1031Z" fill="white"/>
</svg>
