<svg width="180" height="180" viewBox="0 0 180 180" fill="none" xmlns="http://www.w3.org/2000/svg">
<path d="M87.5925 146.325C78.8344 151.611 69.6229 154.253 59.9586 154.253C55.4281 154.253 51.074 153.599 46.8962 152.29C42.7687 150.931 38.8929 149.195 35.2687 147.081C35.3693 147.332 35.4196 147.684 35.4196 148.138C35.47 148.541 35.5454 148.817 35.6461 148.968C35.7971 149.27 35.9733 149.572 36.1747 149.874C36.4263 150.176 36.6276 150.428 36.7787 150.629C35.2686 150.629 33.6579 151.057 31.9465 151.913C40.6042 156.997 49.9414 159.539 59.958 159.539C69.7736 159.539 78.9851 157.072 87.5925 152.139C96.1492 157.072 105.361 159.539 115.226 159.539C125.243 159.539 134.556 156.997 143.163 151.913C141.451 151.057 139.841 150.629 138.331 150.629C138.834 150.025 139.211 149.471 139.463 148.968C139.564 148.817 139.69 148.541 139.841 148.138C139.992 147.684 140.143 147.332 140.294 147.081C136.619 149.195 132.643 150.931 128.364 152.29C124.136 153.599 119.757 154.253 115.226 154.253C105.512 154.253 96.3006 151.611 87.5925 146.325ZM87.5925 141.946C96.1999 147.483 105.411 150.252 115.227 150.252C120.412 150.252 125.772 149.094 131.309 146.779C136.896 144.413 141.653 141.77 145.579 138.851C146.032 139.757 145.831 141.242 144.975 143.305C144.119 145.319 143.414 147.03 142.861 148.44C143.465 148.591 144.094 148.817 144.749 149.119C147.517 150.478 149.631 152.189 151.091 154.253C152.601 156.267 153.003 158.029 152.299 159.539C151.896 160.394 151.267 161.024 150.411 161.426C150.512 160.923 150.562 160.52 150.562 160.218C150.562 157.047 148.976 155.462 145.806 155.462C144.849 155.462 144.044 155.688 143.39 156.141C134.631 160.873 125.243 163.238 115.226 163.238C105.915 163.238 96.7033 161.074 87.5925 156.745C78.4316 161.074 69.2201 163.238 59.958 163.238C49.8408 163.238 40.4531 160.873 31.7954 156.141C31.0907 155.688 30.2854 155.462 29.3793 155.462C26.2082 155.462 24.6226 157.047 24.6226 160.218C24.6226 160.47 24.6226 160.696 24.6226 160.898C24.673 161.099 24.6982 161.275 24.6982 161.426C23.7418 160.923 23.1378 160.293 22.8861 159.539C22.1311 158.029 22.4834 156.267 23.9432 154.253C25.4029 152.189 27.5421 150.478 30.3609 149.119C30.9146 148.867 31.5438 148.641 32.2485 148.44C31.6445 147.03 30.9146 145.319 30.0589 143.305C29.2535 141.242 29.1025 139.757 29.6059 138.851C33.4817 141.77 38.1881 144.413 43.725 146.779C49.3123 149.094 54.7233 150.252 59.958 150.252C69.6229 150.252 78.8338 147.483 87.5925 141.946ZM106.468 109.178C110.042 102.684 112.156 97.6258 112.811 94.0016C113.515 90.3274 113.641 86.4512 113.188 82.3742C112.534 76.7368 109.69 70.8474 104.657 64.7066C99.6733 58.5152 93.9853 53.8088 87.5925 50.5873C79.5386 54.5135 73.3478 59.3708 69.0188 65.1594C64.7404 70.8975 62.4752 76.7115 62.2232 82.6009C62.0218 86.6779 62.3239 90.6795 63.1294 94.6058C63.9849 98.4814 65.9233 103.339 68.9434 109.178C72.9197 108.121 77.4748 107.466 82.6093 107.215V86.9046H72.945V76.6361H82.6093V63.8004H92.9531V76.6361H102.617V86.9046H92.9531V107.215C97.6342 107.466 102.139 108.121 106.468 109.178ZM89.7823 107.064L89.7064 83.7332H99.3713V79.8823H89.7064V66.9713H85.8561V79.8823H76.1912V83.7332H85.8561V107.064C85.8561 107.064 86.4349 107.064 87.5925 107.064C87.9446 107.064 88.2973 107.064 88.6494 107.064C89.0522 107.064 89.4296 107.064 89.7823 107.064ZM108.129 117.181L105.789 136.434C105.739 137.945 103.926 139.228 100.353 140.285C96.7787 141.342 92.5003 141.871 87.5171 141.871C82.4833 141.871 78.1796 141.342 74.6061 140.285C71.0826 139.228 69.3208 137.945 69.3208 136.434L67.0556 117.181C63.4815 111.745 60.9649 106.233 59.5052 100.646C58.0455 95.0586 57.3159 89.6979 57.3159 84.564C57.3159 69.111 65.6713 57.2816 82.3826 49.0772C82.3826 48.3221 82.4586 47.3406 82.6093 46.1325C80.8976 44.7231 80.0421 42.9111 80.0421 40.6963C80.0421 36.0654 82.3826 33.75 87.0637 33.75C91.6948 33.75 94.0101 36.0654 94.0101 40.6963C94.0101 42.7601 93.2805 44.4715 91.8208 45.8305C91.8208 47.391 92.0222 48.448 92.4249 49.0017C93.2299 50.1594 94.3628 50.7886 95.8224 50.8893C97.3322 50.7886 98.5404 50.1343 99.4466 48.9262C99.648 48.6242 99.8494 47.6678 100.051 46.057C98.7418 44.698 98.0876 43.0369 98.0876 41.0738C98.0876 36.3423 100.453 33.9765 105.185 33.9765C109.916 33.9765 112.282 36.3423 112.282 41.0738C112.282 43.792 111.125 45.8305 108.809 47.1896C108.607 48.1963 108.557 49.0268 108.658 49.6812C117.165 59.6981 120.864 71.3256 119.757 84.564C119.405 88.3389 118.901 91.9378 118.247 95.3606C117.643 98.7834 116.359 102.332 114.396 106.007C113.44 107.869 112.458 109.757 111.452 111.67C110.445 113.582 109.338 115.419 108.129 117.181ZM87.8192 129.337C83.5909 129.337 79.992 129.765 77.022 130.621C74.1026 131.426 72.6429 132.408 72.6429 133.566C72.6429 134.723 74.1026 135.705 77.022 136.51C79.992 137.315 83.5909 137.718 87.8192 137.718C91.9468 137.718 95.4951 137.315 98.4651 136.51C101.435 135.705 102.92 134.723 102.92 133.566C102.92 132.408 101.435 131.426 98.4651 130.621C95.4951 129.765 91.9468 129.337 87.8192 129.337ZM102.995 128.204L104.505 112.953C99.7234 111.997 94.2621 111.518 88.1213 111.518C81.9799 111.518 76.2418 112.072 70.9065 113.18L72.4916 127.978C76.1158 126.367 81.1243 125.562 87.5171 125.562C94.3628 125.562 99.522 126.443 102.995 128.204ZM105.185 37.8272C103.02 37.8272 101.938 38.9094 101.938 41.0738C101.938 43.2383 103.02 44.3204 105.185 44.3204C107.349 44.3204 108.431 43.2383 108.431 41.0738C108.431 38.9094 107.349 37.8272 105.185 37.8272ZM87.0637 37.6763C85.0005 37.6763 83.9683 38.683 83.9683 40.6964C83.9683 42.7601 85.0005 43.792 87.0637 43.792C89.1276 43.792 90.1598 42.7601 90.1598 40.6964C90.1598 38.683 89.1276 37.6763 87.0637 37.6763ZM95.3696 118.691L87.7438 121.862L80.1174 118.691L87.7438 115.52L95.3696 118.691ZM117.266 84.4127C117.819 81.6947 116.913 76.6862 114.548 69.3878C112.232 62.0387 108.759 55.9481 104.128 51.1158C103.524 50.7131 102.945 50.537 102.391 50.5873C101.586 50.6879 100.831 51.0654 100.126 51.7199C99.4719 52.3743 99.396 53.1545 99.8994 54.0605C105.487 57.735 109.765 62.9696 112.735 69.7652C115.705 76.5101 117.215 81.3926 117.266 84.4127Z" fill="#2B1F31"/>
<path d="M87.5925 146.325C78.8338 151.611 69.6223 154.253 59.958 154.253C55.4278 154.253 51.0738 153.599 46.896 152.29C42.7684 150.931 38.8926 149.195 35.2684 147.081C35.369 147.332 35.4193 147.684 35.4193 148.138C35.4697 148.54 35.5452 148.817 35.6458 148.968C35.7968 149.27 35.9731 149.572 36.1744 149.874C36.426 150.176 36.6274 150.428 36.7784 150.629C35.2683 150.629 33.6576 151.057 31.9462 151.913C40.6039 156.997 49.9412 159.538 59.958 159.538C69.7736 159.538 78.9846 157.072 87.5919 152.139C96.1492 157.072 105.361 159.538 115.226 159.538C125.243 159.538 134.555 156.997 143.162 151.913C141.451 151.057 139.84 150.629 138.331 150.629C138.834 150.025 139.211 149.471 139.463 148.968C139.564 148.817 139.69 148.54 139.84 148.138C139.992 147.684 140.142 147.332 140.294 147.081C136.619 149.195 132.643 150.931 128.364 152.29C124.136 153.599 119.757 154.253 115.226 154.253C105.511 154.253 96.3006 151.611 87.5925 146.325ZM106.468 109.178C110.042 102.684 112.156 97.6258 112.81 94.0016C113.515 90.3274 113.641 86.4512 113.188 82.3742C112.534 76.7368 109.69 70.8474 104.656 64.7066C99.6727 58.5152 93.9847 53.8087 87.5925 50.5872C79.5386 54.5134 73.3472 59.3707 69.0182 65.1594C64.7398 70.8975 62.4746 76.7115 62.2232 82.6009C62.0218 86.6779 62.3239 90.6795 63.1294 94.6057C63.9849 98.4814 65.9227 103.339 68.9428 109.178C72.9197 108.121 77.4748 107.466 82.6093 107.215V86.9046H72.9444V76.6361H82.6093V63.8004H92.9531V76.6361H102.617V86.9046H92.9531V107.215C97.6342 107.466 102.139 108.121 106.468 109.178ZM89.7817 107.064L89.7064 83.7332H99.3707V79.8823H89.7064V66.9712H85.8555V79.8823H76.1912V83.7332H85.8555V107.064C85.8555 107.064 86.4343 107.064 87.5919 107.064C87.9446 107.064 88.2967 107.064 88.6494 107.064C89.0522 107.064 89.4296 107.064 89.7817 107.064ZM87.8186 129.337C83.5903 129.337 79.9914 129.765 77.022 130.621C74.1021 131.426 72.6424 132.408 72.6424 133.566C72.6424 134.723 74.1021 135.705 77.022 136.51C79.9914 137.315 83.5903 137.718 87.8186 137.718C91.9462 137.718 95.4951 137.315 98.4645 136.51C101.434 135.705 102.919 134.723 102.919 133.566C102.919 132.408 101.434 131.426 98.4645 130.621C95.4951 129.765 91.9462 129.337 87.8186 129.337ZM102.995 128.204L104.505 112.953C99.7234 111.997 94.2615 111.518 88.1207 111.518C81.9799 111.518 76.2418 112.072 70.9059 113.179L72.4916 127.978C76.1158 126.367 81.1243 125.562 87.5166 125.562C94.3622 125.562 99.522 126.443 102.995 128.204ZM105.185 37.8272C103.02 37.8272 101.938 38.9094 101.938 41.0738C101.938 43.2382 103.02 44.3204 105.185 44.3204C107.349 44.3204 108.431 43.2382 108.431 41.0738C108.431 38.9094 107.349 37.8272 105.185 37.8272ZM87.0637 37.6762C84.9999 37.6762 83.9683 38.6829 83.9683 40.6964C83.9683 42.7601 84.9999 43.792 87.0637 43.792C89.1276 43.792 90.1592 42.7601 90.1592 40.6964C90.1592 38.6829 89.1276 37.6762 87.0637 37.6762ZM95.3691 118.691L87.7432 121.862L80.1174 118.691L87.7432 115.52L95.3691 118.691ZM117.265 84.4127C117.819 81.6947 116.913 76.6862 114.547 69.3877C112.232 62.0387 108.758 55.948 104.128 51.1158C103.524 50.7131 102.945 50.537 102.391 50.5873C101.586 50.6879 100.83 51.0654 100.126 51.7198C99.4714 52.3742 99.396 53.1544 99.8994 54.0605C105.487 57.735 109.765 62.9696 112.735 69.7652C115.705 76.5101 117.215 81.3926 117.265 84.4127Z" fill="#BEF992"/>
</svg>
