<svg width="180" height="180" viewBox="0 0 180 180" fill="none" xmlns="http://www.w3.org/2000/svg">
<path d="M127.749 122.919C129.26 121.56 130.165 119.723 130.467 117.408C130.669 116.3 130.518 115.168 130.015 114.01C129.964 113.758 129.939 113.381 129.939 112.877C129.939 110.411 130.795 108.222 132.506 106.309C134.218 104.295 135.375 102.358 135.979 100.495C136.13 100.193 136.281 99.8404 136.432 99.4382C136.583 98.9848 136.76 98.6074 136.961 98.3053C139.377 94.2784 140.358 89.6726 139.906 84.4881C139.553 80.6124 137.867 76.9883 134.847 73.6155C132.783 71.5016 130.115 69.7146 126.843 68.2549C123.622 66.7451 120.074 66.0403 116.197 66.141C115.895 66.141 115.644 66.1663 115.442 66.2164C116.197 66.4684 117.053 66.8458 118.01 67.3492C122.288 70.7721 125.182 74.421 126.692 78.2972C128.202 82.1228 129.033 86.0484 129.184 90.0754C129.385 97.9779 127.196 105.579 122.615 112.877C121.86 113.733 121.407 114.891 121.256 116.351C121.004 118.716 121.004 120.302 121.256 121.107C123.622 121.661 125.786 122.265 127.749 122.919ZM127.749 132.81V127.525C122.867 125.915 116.902 124.631 109.855 123.675C102.859 122.668 95.5097 122.164 87.8079 122.164C80.0567 122.164 72.657 122.668 65.61 123.675C58.6136 124.631 52.6992 125.915 47.867 127.525L47.7915 132.81C52.674 131.25 58.6136 129.991 65.61 129.035C72.657 128.028 80.0567 127.525 87.8085 127.525C103.916 127.525 117.23 129.287 127.749 132.81ZM87.8079 33.75H90.3752V42.5839H96.7933V47.6426H90.3752V58.5906H85.2413V47.6426H78.8231V42.5839H85.2413V33.75H87.8079ZM87.8079 162.408C76.1304 162.408 65.862 161.653 57.0026 160.143C48.1438 158.632 42.5817 156.694 40.3166 154.329L42.5817 135.075C43.1857 131.25 43.2109 128.154 42.6572 125.789C42.4559 124.983 41.9021 122.869 40.9961 119.446C40.1404 115.973 38.58 113.129 36.3149 110.914C34.2008 109.002 32.4894 107.491 31.1807 106.384C29.9223 105.226 28.7898 103.968 27.7831 102.609C24.7629 98.4814 23.0263 93.3727 22.5733 87.282C22.07 80.5871 24.1589 74.6477 28.8401 69.4631C31.4072 66.6444 34.6538 64.5053 38.58 63.0456C42.5565 61.5853 46.6589 60.7298 50.8871 60.4783C53.4039 60.327 55.4173 60.3023 56.9273 60.4029C58.4376 60.5036 60.4508 60.6797 62.9674 60.9311C66.2394 61.3339 69.5363 62.064 72.8584 63.1209C75.5263 60.2516 80.5095 58.8172 87.8079 58.8172C95.0563 58.8172 100.04 60.2516 102.758 63.1209C106.08 62.064 109.377 61.3339 112.649 60.9311C115.115 60.6797 117.104 60.5036 118.614 60.4029C120.124 60.3023 122.162 60.327 124.729 60.4783C128.857 60.7298 132.909 61.5853 136.885 63.0456C140.862 64.5053 144.134 66.6444 146.701 69.4631C151.332 74.6477 153.421 80.5871 152.967 87.282C152.515 93.3727 150.803 98.4814 147.833 102.609C146.776 103.968 145.594 105.226 144.285 106.384C143.026 107.491 141.365 109.002 139.301 110.914C136.936 113.129 135.3 115.973 134.394 119.446C133.538 122.869 133.035 124.983 132.884 125.789C132.33 128.356 132.355 131.451 132.959 135.075L135.3 154.329C132.985 156.694 127.397 158.632 118.538 160.143C109.679 161.653 99.4359 162.408 87.8085 162.408H87.8079ZM47.7914 145.495L51.0381 146.175L60.5514 139.379L48.3955 136.812L47.7914 145.495ZM127.523 145.344L126.994 136.661L114.763 139.228L124.276 146.023L127.523 145.344ZM47.7914 122.919C50.3585 122.114 52.4978 121.51 54.2092 121.107C54.4106 120.302 54.4106 118.716 54.2092 116.351C54.0079 114.891 53.5548 113.733 52.8501 112.877C48.2193 105.579 46.0297 97.9779 46.2814 90.0754C46.3821 86.0484 47.1874 82.1228 48.6975 78.2972C50.2075 74.421 53.127 70.7721 57.456 67.3492C58.3616 66.8458 59.2178 66.4684 60.0233 66.2164C59.8219 66.1663 59.5699 66.141 59.2678 66.141C55.3418 66.0403 51.7428 66.7451 48.471 68.2549C45.2495 69.7146 42.632 71.5016 40.6186 73.6161C37.5482 76.9883 35.8619 80.6124 35.5599 84.4881C35.0565 89.6726 36.0381 94.2784 38.5045 98.3053C38.6555 98.6074 38.7813 98.9848 38.882 99.4382C39.0331 99.8404 39.2344 100.193 39.486 100.495C40.0398 102.358 41.1974 104.295 42.9592 106.309C44.6706 108.222 45.5263 110.411 45.5263 112.877C45.5263 113.079 45.5012 113.28 45.4508 113.482C45.4508 113.683 45.4508 113.859 45.4508 114.01C44.9475 115.067 44.7713 116.2 44.9223 117.408C45.2243 119.774 46.1807 121.611 47.7915 122.92L47.7914 122.919ZM98.8318 136.284L87.8079 131.451L76.86 136.284L87.8079 141.191L98.8318 136.284ZM121.558 154.027C124.579 153.372 127.07 152.618 129.033 151.762C119.318 147.836 105.677 145.873 88.11 145.873C69.8889 145.873 56.0968 147.886 46.7344 151.913C48.8988 152.768 51.4659 153.498 54.4357 154.102C63.6975 151.737 74.9222 150.554 88.11 150.554C100.946 150.554 112.095 151.711 121.558 154.027ZM72.7076 74.7484C69.5363 73.6914 67.1203 72.3071 65.4593 70.5954C59.7713 75.7299 56.8519 82.2482 56.7006 90.1508C56.4491 96.7956 58.3869 103.691 62.5146 110.839C63.4708 112.701 63.9489 114.513 63.9489 116.275C63.9489 117.332 63.8736 118.339 63.7228 119.296C67.7498 118.691 71.55 118.289 75.1236 118.087C75.2749 117.534 75.3249 116.954 75.2749 116.351C75.2749 115.595 75.0229 114.815 74.5194 114.01C73.1604 112.249 72.4309 110.336 72.3302 108.272C71.7261 104.849 71.3734 101.577 71.2733 98.4566C70.8705 90.3021 71.3486 82.3995 72.7076 74.7484ZM93.3953 76.7869C92.1369 76.9382 90.2745 77.0136 87.8079 77.0136C85.6941 77.0136 83.8316 76.9129 82.2212 76.7115C81.063 83.5571 80.6608 90.7301 81.0129 98.2299C81.1136 101.351 81.4658 104.623 82.0699 108.046C82.2212 109.253 82.674 110.285 83.4289 111.141C84.4358 112.852 84.9893 114.538 85.0899 116.2C85.0899 116.452 85.0899 116.703 85.0899 116.954C85.0899 117.206 85.0899 117.408 85.0899 117.559C85.5433 117.559 85.9961 117.559 86.4489 117.559C86.9023 117.559 87.3551 117.559 87.8079 117.559C88.2613 117.559 88.7141 117.559 89.1675 117.559C89.6203 117.559 90.0731 117.559 90.5265 117.559C90.5265 117.408 90.5265 117.206 90.5265 116.954C90.5265 116.703 90.5265 116.452 90.5265 116.2C90.5766 114.538 91.1306 112.852 92.1876 111.141C92.8924 110.285 93.3452 109.253 93.5466 108.046C93.9994 105.076 94.3268 101.804 94.5281 98.2299C94.8803 90.8308 94.5028 83.6831 93.3953 76.7869ZM110.082 70.7467C108.471 72.3071 106.03 73.6914 102.758 74.8991C104.066 82.5002 104.545 90.3521 104.192 98.4566C104.042 101.577 103.689 104.849 103.136 108.272C102.884 110.436 102.154 112.349 100.946 114.01C100.442 114.815 100.191 115.595 100.191 116.351C100.09 116.904 100.14 117.458 100.342 118.012C102.355 118.163 104.343 118.339 106.306 118.54C108.269 118.691 110.157 118.918 111.97 119.22C111.668 117.911 111.516 116.93 111.516 116.275C111.516 114.513 111.994 112.701 112.951 110.839C117.028 103.691 118.966 96.7956 118.765 90.1508C118.563 82.2988 115.669 75.8306 110.082 70.7467Z" fill="#2B1F31"/>
<path d="M127.749 132.811V127.525C122.867 125.914 116.902 124.631 109.855 123.675C102.859 122.668 95.5097 122.165 87.8085 122.165C80.0567 122.165 72.6576 122.668 65.6106 123.675C58.6136 124.631 52.6992 125.914 47.867 127.525L47.7915 132.811C52.6741 131.25 58.6136 129.992 65.6106 129.035C72.6576 128.029 80.0567 127.525 87.8085 127.525C103.916 127.525 117.23 129.287 127.749 132.811ZM47.7915 145.495L51.0382 146.175L60.5514 139.38L48.3955 136.812L47.7915 145.495ZM127.523 145.344L126.994 136.662L114.763 139.228L124.276 146.024L127.523 145.344ZM98.8318 136.284L87.8085 131.452L76.8606 136.284L87.8085 141.191L98.8318 136.284ZM121.558 154.027C124.579 153.373 127.07 152.618 129.033 151.762C119.319 147.836 105.677 145.873 88.1106 145.873C69.8889 145.873 56.0969 147.886 46.7345 151.913C48.8989 152.769 51.466 153.498 54.4358 154.102C63.6975 151.737 74.9222 150.554 88.1106 150.554C100.946 150.554 112.095 151.712 121.558 154.027Z" fill="#5FB9B0"/>
</svg>
