<svg width="180" height="180" viewBox="0 0 180 180" fill="none" xmlns="http://www.w3.org/2000/svg">
<path d="M97.8503 132.659L88.0346 137.567L77.8416 132.659L87.6572 127.827L97.8503 132.659ZM87.8839 62.5922C84.9645 62.5922 82.4726 62.9196 80.4088 63.5738C78.3956 64.1779 77.3888 64.9328 77.3888 65.8389C77.3888 66.7451 78.3956 67.5253 80.4088 68.1795C82.4726 68.7836 84.9645 69.0857 87.8839 69.0857C90.7526 69.0857 93.2192 68.7836 95.283 68.1795C97.3468 67.5253 98.3784 66.7451 98.3784 65.8389C98.3784 64.9328 97.3468 64.1779 95.283 63.5738C93.2192 62.9196 90.7526 62.5922 87.8839 62.5922ZM87.8079 119.597C88.6134 119.597 89.6704 119.648 90.9793 119.748C90.5766 118.691 90.4258 117.508 90.5265 116.2C90.5766 114.538 91.1306 112.852 92.1876 111.141C92.8924 110.285 93.3452 109.253 93.5466 108.045C93.9994 105.025 94.3268 101.753 94.5281 98.2299C94.9309 89.7233 94.3014 81.2413 92.6404 72.7852C90.9293 73.0367 89.3183 73.1627 87.8079 73.1627C86.1975 73.1627 84.5618 73.0367 82.9007 72.7852C81.189 81.2413 80.5601 89.7233 81.0129 98.2299C81.1136 101.351 81.4658 104.622 82.0699 108.045C82.2212 109.253 82.674 110.285 83.4289 111.141C84.4358 112.852 84.9893 114.538 85.0899 116.2C85.1406 117.408 84.9645 118.591 84.5618 119.748C85.9708 119.648 87.0531 119.597 87.8079 119.597ZM77.9929 71.7283C76.9359 71.4263 76.0798 71.0989 75.4256 70.7467C70.4925 74.5723 67.6991 79.1021 67.0449 84.3373C66.0381 91.0316 67.0449 97.7518 70.065 104.497C70.6185 105.704 70.8953 106.887 70.8953 108.046C70.9459 109.656 70.6185 111.368 69.9137 113.18C69.3602 114.287 69.0834 115.369 69.0834 116.426C69.1335 117.483 69.4609 118.515 70.065 119.522C70.2664 120.025 70.4171 120.377 70.5178 120.579C72.9844 120.277 75.8284 120.025 79.0498 119.824C79.704 118.767 80.0061 117.609 79.956 116.351C79.8553 115.595 79.6033 114.815 79.2006 114.01C77.8922 112.299 77.1373 110.386 76.9359 108.272C76.4325 105.252 76.1051 101.98 75.9544 98.4566C75.4003 89.6479 76.0798 80.7384 77.9929 71.7283ZM60.3248 65.3102C59.4191 65.3102 58.7897 65.2348 58.4376 65.0841C46.3065 71.1743 39.7126 78.8001 38.6555 87.9615C38.3032 90.8308 38.4038 94.0016 38.9575 97.4751C39.5616 100.948 40.8954 103.893 42.9592 106.309C44.6706 108.222 45.5263 110.411 45.5263 112.877C45.5263 113.079 45.5012 113.28 45.4508 113.482C45.4508 113.683 45.4508 113.859 45.4508 114.01C44.9475 115.017 44.7713 116.149 44.9223 117.408C45.3754 120.478 46.7848 122.668 49.1505 123.977C50.0062 123.876 51.2143 123.624 52.7747 123.221C53.7814 122.618 54.3099 121.661 54.3602 120.352C54.4106 119.044 54.3602 117.71 54.2093 116.351C54.0079 114.891 53.5548 113.733 52.8502 112.877C48.2193 105.579 46.0297 97.9779 46.2814 90.0754C46.4324 85.6963 47.4139 81.4179 49.226 77.2397C51.0381 73.0119 54.7377 69.0351 60.3248 65.3102ZM71.8768 67.8021C70.9712 67.3993 69.3101 66.9465 66.8936 66.4431C62.2125 68.5569 58.5883 71.8791 56.0213 76.4094C53.5045 80.8892 52.1706 85.4696 52.0196 90.1508C51.7679 96.8456 53.731 103.742 57.9088 110.839C58.8651 112.852 59.3432 114.665 59.3432 116.275C59.3432 118.792 58.9658 120.73 58.2109 122.089C59.2678 121.938 60.3754 121.787 61.533 121.636C62.6906 121.435 63.8989 121.258 65.1572 121.107C64.4023 119.748 63.9996 118.263 63.9489 116.653C63.9489 114.791 64.4023 112.903 65.3079 110.99C65.6606 109.933 65.8367 109.002 65.8367 108.196C65.736 107.341 65.4339 106.435 64.9305 105.478C63.1688 101.803 61.9358 97.9532 61.2309 93.9262C60.5768 89.8492 60.7028 86.0484 61.6084 82.5249C62.9173 77.2903 66.3401 72.3825 71.8768 67.8021ZM50.6606 65.1594C50.5096 65.1594 50.3585 65.1594 50.2075 65.1594C50.1069 65.1594 50.0062 65.1594 49.9055 65.1594C45.9794 65.4109 42.4559 66.4178 39.3351 68.1795C36.2646 69.8912 33.8233 71.9044 32.0113 74.2196C29.2931 77.7431 27.934 81.5186 27.934 85.5456C27.934 90.7802 29.3183 95.2599 32.0867 98.9848C33.2444 100.696 34.4022 102.131 35.5599 103.289C34.5029 100.671 33.8485 97.9779 33.5968 95.2099C33.3451 92.4413 33.3703 89.874 33.6723 87.5081C34.83 77.6931 40.4927 70.2433 50.6606 65.1594ZM87.8079 140.059C96.3653 140.059 104.243 140.562 111.441 141.569C118.689 142.525 124.629 144.136 129.26 146.401L128.806 141.342L125.786 142.173L116.953 135.68L127.976 132.735L127.749 129.715C122.867 128.154 116.902 126.896 109.855 125.94C102.859 124.933 95.5097 124.43 87.8079 124.43C80.0567 124.43 72.657 124.933 65.61 125.94C58.6136 126.896 52.6992 128.154 47.867 129.715L47.6404 132.735L58.5883 135.68L49.7545 142.173L46.8099 141.342L46.3569 146.401C50.8871 144.136 56.7765 142.525 64.0249 141.569C71.2733 140.562 79.2006 140.059 87.8079 140.059ZM87.8079 162.408C76.1304 162.408 65.862 161.653 57.0026 160.143C48.1438 158.632 42.5817 156.694 40.3166 154.329L42.5817 135.075C43.1857 131.25 43.2109 128.154 42.6572 125.789C42.4559 124.983 41.9021 122.869 40.9961 119.446C40.1404 115.973 38.58 113.129 36.3149 110.914C34.2008 109.002 32.4894 107.491 31.1807 106.384C29.9223 105.226 28.7898 103.968 27.7831 102.609C24.7629 98.4814 23.0263 93.3727 22.5733 87.282C22.07 80.5871 24.1589 74.6477 28.8401 69.4631C31.4072 66.6444 34.6538 64.5053 38.58 63.0456C42.5565 61.5853 46.6589 60.7298 50.8871 60.4783C53.4039 60.327 55.4173 60.3023 56.9273 60.4024C58.4376 60.5031 60.4508 60.6797 62.9674 60.9311C66.2394 61.3339 69.5363 62.0634 72.8584 63.1209C75.5263 60.2516 80.5095 58.8172 87.8079 58.8172C95.0563 58.8172 100.04 60.2516 102.758 63.1209C106.08 62.0634 109.377 61.3339 112.649 60.9311C115.115 60.6797 117.104 60.5031 118.614 60.4024C120.124 60.3023 122.162 60.327 124.729 60.4783C128.857 60.7298 132.909 61.5853 136.885 63.0456C140.862 64.5053 144.134 66.6444 146.701 69.4631C151.332 74.6477 153.421 80.5871 152.967 87.282C152.515 93.3727 150.803 98.4814 147.833 102.609C146.776 103.968 145.594 105.226 144.285 106.384C143.026 107.491 141.365 109.002 139.301 110.914C136.936 113.129 135.3 115.973 134.394 119.446C133.538 122.869 133.035 124.983 132.884 125.789C132.33 128.356 132.355 131.451 132.959 135.075L135.3 154.329C132.985 156.694 127.397 158.632 118.538 160.143C109.679 161.653 99.4359 162.408 87.8085 162.408H87.8079ZM129.033 151.762C119.318 147.836 105.677 145.873 88.11 145.873C69.8889 145.873 56.0968 147.886 46.7344 151.913C55.5935 155.436 69.3101 157.198 87.8839 157.198C96.7427 157.198 104.822 156.72 112.12 155.764C119.419 154.757 125.057 153.423 129.033 151.762ZM97.6236 71.7283C99.4359 80.4364 100.115 89.3458 99.6621 98.4566C99.5113 101.577 99.1586 104.849 98.6051 108.272C98.4544 110.336 97.7243 112.249 96.4153 114.01C95.9124 114.815 95.6604 115.595 95.6604 116.351C95.5598 117.71 95.8618 118.868 96.5666 119.824C99.7881 120.025 102.607 120.277 105.023 120.579C105.375 119.874 105.551 119.522 105.551 119.522C106.105 118.364 106.432 117.332 106.533 116.426C106.533 115.369 106.256 114.287 105.703 113.18C104.998 111.418 104.645 109.707 104.645 108.046C104.696 106.837 104.998 105.654 105.551 104.497C108.521 97.7518 109.528 91.0316 108.572 84.3373C107.766 79.0521 104.973 74.5217 100.191 70.7467C99.486 71.0989 98.6304 71.4263 97.6236 71.7283ZM115.292 65.3102C120.778 69.0351 124.427 73.0119 126.24 77.2397C128.102 81.4179 129.108 85.6963 129.26 90.0754C129.461 97.9279 127.297 105.528 122.766 112.877C121.911 113.884 121.457 115.042 121.407 116.351C120.854 120.025 121.332 122.316 122.842 123.221C124.453 123.624 125.661 123.876 126.466 123.977C128.782 122.668 130.165 120.478 130.619 117.408C130.82 116.2 130.644 115.067 130.09 114.01C130.09 113.859 130.09 113.683 130.09 113.482C130.09 113.28 130.09 113.079 130.09 112.877C130.09 110.31 130.946 108.121 132.657 106.309C134.67 103.893 135.954 100.948 136.508 97.4751C137.112 94.0016 137.263 90.8308 136.961 87.9615C135.853 78.8001 129.26 71.1743 117.179 65.0841C116.776 65.2348 116.147 65.3102 115.292 65.3102ZM103.74 67.8021C109.226 72.4832 112.649 77.391 114.008 82.5249C114.864 86.0484 114.939 89.8492 114.234 93.9262C113.58 97.9532 112.397 101.803 110.686 105.478C110.082 106.384 109.78 107.29 109.78 108.196C109.679 109.102 109.855 110.033 110.308 110.99C111.214 112.953 111.642 114.841 111.592 116.653C111.592 118.062 111.214 119.547 110.459 121.107C111.668 121.258 112.85 121.435 114.008 121.636C115.166 121.787 116.298 121.938 117.406 122.089C116.651 120.73 116.273 118.792 116.273 116.275C116.273 114.513 116.751 112.701 117.708 110.839C121.785 103.691 123.722 96.7956 123.521 90.1508C123.37 85.4696 122.011 80.8892 119.444 76.4094C116.927 71.8791 113.353 68.5569 108.723 66.4431C106.357 66.9465 104.696 67.3993 103.74 67.8021ZM124.88 65.1594C135.048 70.2433 140.711 77.6931 141.869 87.5081C142.573 93.0454 141.969 98.3053 140.056 103.289C141.164 102.131 142.321 100.696 143.53 98.9848C146.298 95.2599 147.682 90.7802 147.682 85.5456C147.682 81.5186 146.298 77.7431 143.53 74.2196C141.717 71.9044 139.251 69.8912 136.131 68.1795C133.009 66.4178 129.511 65.4109 125.635 65.1594C125.484 65.1594 125.359 65.1594 125.258 65.1594C125.157 65.1594 125.031 65.1594 124.88 65.1594ZM87.8079 33.75H90.3752V42.5839H96.7933V47.6426H90.3752V58.5906H85.2413V47.6426H78.8231V42.5839H85.2413V33.75H87.8079Z" fill="#2B1F31"/>
<path d="M87.808 119.598C88.6135 119.598 89.6704 119.648 90.9793 119.748C90.5766 118.691 90.4258 117.508 90.5265 116.2C90.5766 114.538 91.1301 112.852 92.1876 111.141C92.8918 110.285 93.3452 109.253 93.5466 108.046C93.9994 105.025 94.3268 101.753 94.5282 98.2299C94.9303 89.7232 94.3015 81.2418 92.6404 72.7852C90.9287 73.0366 89.3183 73.1626 87.808 73.1626C86.1975 73.1626 84.5612 73.0366 82.9001 72.7852C81.189 81.2418 80.5596 89.7232 81.013 98.2299C81.1136 101.351 81.4658 104.623 82.0699 108.046C82.2207 109.253 82.674 110.285 83.4289 111.141C84.4358 112.852 84.9893 114.538 85.09 116.2C85.1406 117.408 84.964 118.591 84.5612 119.748C85.9708 119.648 87.0531 119.598 87.808 119.598ZM71.8768 67.802C70.9707 67.3993 69.3096 66.9465 66.8937 66.443C62.2125 68.5569 58.5883 71.879 56.0212 76.4094C53.5045 80.8891 52.1705 85.4696 52.0195 90.1513C51.7679 96.8456 53.7309 103.742 57.9088 110.839C58.8651 112.853 59.3432 114.664 59.3432 116.275C59.3432 118.792 58.9658 120.73 58.2109 122.089C59.2678 121.938 60.3754 121.787 61.533 121.636C62.6907 121.435 63.8989 121.259 65.1572 121.107C64.4023 119.748 63.9996 118.263 63.949 116.653C63.949 114.79 64.4023 112.903 65.308 110.99C65.6607 109.933 65.8367 109.002 65.8367 108.196C65.736 107.341 65.434 106.435 64.9305 105.478C63.1688 101.803 61.9358 97.9531 61.231 93.9262C60.5768 89.8492 60.7022 86.049 61.6084 82.5255C62.9173 77.2903 66.3402 72.3825 71.8768 67.802ZM50.6605 65.1594C50.5095 65.1594 50.3585 65.1594 50.2075 65.1594C50.1068 65.1594 50.0061 65.1594 49.9054 65.1594C45.9793 65.4108 42.4558 66.4177 39.335 68.1795C36.2645 69.8911 33.8232 71.9043 32.0112 74.2196C29.293 77.7431 27.9339 81.5186 27.9339 85.5455C27.9339 90.7801 29.3182 95.2599 32.0867 98.9848C33.2444 100.696 34.4021 102.131 35.5598 103.288C34.5028 100.671 33.8484 97.9785 33.5967 95.2098C33.345 92.4412 33.3702 89.874 33.6722 87.5086C34.8299 77.693 40.4927 70.2433 50.6605 65.1594ZM103.739 67.802C109.226 72.4831 112.649 77.391 114.008 82.5255C114.864 86.049 114.939 89.8492 114.234 93.9262C113.58 97.9531 112.397 101.803 110.685 105.478C110.082 106.384 109.78 107.29 109.78 108.196C109.679 109.102 109.855 110.033 110.308 110.99C111.214 112.953 111.642 114.841 111.592 116.653C111.592 118.062 111.214 119.547 110.459 121.107C111.667 121.259 112.85 121.435 114.008 121.636C115.166 121.787 116.298 121.938 117.406 122.089C116.65 120.73 116.273 118.792 116.273 116.275C116.273 114.514 116.751 112.701 117.708 110.839C121.785 103.691 123.722 96.7955 123.521 90.1513C123.37 85.4696 122.011 80.8891 119.444 76.4094C116.927 71.879 113.353 68.5569 108.722 66.443C106.357 66.9465 104.696 67.3993 103.739 67.802ZM124.88 65.1594C135.048 70.2433 140.711 77.693 141.869 87.5086C142.573 93.0453 141.969 98.3053 140.056 103.288C141.164 102.131 142.322 100.696 143.53 98.9848C146.298 95.2599 147.682 90.7801 147.682 85.5455C147.682 81.5186 146.298 77.7431 143.53 74.2196C141.717 71.9043 139.251 69.8911 136.13 68.1795C133.009 66.4177 129.511 65.4108 125.636 65.1594C125.484 65.1594 125.358 65.1594 125.258 65.1594C125.157 65.1594 125.031 65.1594 124.88 65.1594Z" fill="#BEF992"/>
<path d="M97.8503 132.659L88.0346 137.567L77.8416 132.659L87.6572 127.827L97.8503 132.659ZM87.8839 62.5922C84.9639 62.5922 82.4726 62.9196 80.4088 63.5738C78.3956 64.1779 77.3888 64.9328 77.3888 65.839C77.3888 66.7451 78.3956 67.5253 80.4088 68.1795C82.4726 68.7836 84.9639 69.0857 87.8839 69.0857C90.7526 69.0857 93.2192 68.7836 95.283 68.1795C97.3468 67.5253 98.3784 66.7451 98.3784 65.839C98.3784 64.9328 97.3468 64.1779 95.283 63.5738C93.2192 62.9196 90.7526 62.5922 87.8839 62.5922ZM87.8079 140.059C96.3653 140.059 104.243 140.562 111.441 141.569C118.689 142.525 124.629 144.136 129.26 146.401L128.806 141.342L125.786 142.173L116.953 135.68L127.976 132.735L127.749 129.715C122.867 128.154 116.902 126.896 109.855 125.94C102.859 124.933 95.5097 124.43 87.8079 124.43C80.0567 124.43 72.657 124.933 65.61 125.94C58.6136 126.896 52.6991 128.154 47.8669 129.715L47.6404 132.735L58.5883 135.68L49.7545 142.173L46.8098 141.342L46.3568 146.401C50.887 144.136 56.7765 142.525 64.0249 141.569C71.2727 140.562 79.2006 140.059 87.8079 140.059ZM129.033 151.762C119.318 147.836 105.677 145.873 88.11 145.873C69.8889 145.873 56.0968 147.886 46.7344 151.913C55.5934 155.436 69.3101 157.198 87.8839 157.198C96.7427 157.198 104.822 156.72 112.12 155.764C119.419 154.757 125.057 153.423 129.033 151.762Z" fill="#BEF992"/>
</svg>
