<svg width="180" height="180" viewBox="0 0 180 180" fill="none" xmlns="http://www.w3.org/2000/svg">
<path d="M49.568 141.796V149.648H126.883V141.796H49.568ZM126.883 131.602L131.942 136.812V141.796H137.076V162.559H39.375V141.796H44.4337V136.812L49.568 131.602H59.7611V136.736H116.691V131.602H126.883ZM103.628 64.4799H121.749V77.391H103.628V64.4799ZM77.8815 64.4799H98.5697V77.391H77.8815V64.4799ZM54.7022 64.4799V77.391H72.7476V64.4799H54.7022ZM90.8685 82.5249H107.555V95.436H90.8685V82.5249ZM68.8967 82.5249H85.5073V95.436H68.8967V82.5249ZM112.764 82.5249H121.749V95.436H112.764V82.5249ZM54.7022 82.5249H63.7627V95.436H54.7022V82.5249ZM112.764 118.616H121.749V131.602H112.764V118.616ZM90.8685 118.616H107.555V131.602H90.8685V118.616ZM68.8967 118.616H85.5073V131.602H68.8967V118.616ZM103.628 100.57H121.749V113.482H103.628V100.57ZM77.8815 100.57H98.5697V113.482H77.8815V100.57ZM54.7022 100.57H72.7476V113.482H54.7022V100.57ZM54.7022 118.616H63.7627V131.602H54.7022V118.616ZM116.691 64.4799V59.3454H59.7611V64.4799H44.4337V33.75H62.4791V45.302H78.0328V33.75H98.4184V45.302H113.972V33.75H131.942V64.4799H116.691Z" fill="#2B1F31"/>
<path fill-rule="evenodd" clip-rule="evenodd" d="M59.7611 131.603V136.736H116.691V131.603H112.764V118.616H121.749V113.482H103.628V100.571H121.749V95.4366H112.764V82.5255H121.749V77.391H103.628V64.4799H116.691V59.346H59.7611V64.4799H72.7476V77.391H54.7021V82.5255H63.7628V95.4366H54.7021V100.571H72.7476V113.482H54.7021V118.616H63.7628V131.603H59.7611ZM98.5697 64.4799H77.8815V77.391H98.5697V64.4799ZM107.555 82.5255H90.8685V95.4366H107.555V82.5255ZM85.5073 82.5255H68.8967V95.4366H85.5073V82.5255ZM107.555 118.616H90.8685V131.603H107.555V118.616ZM85.5073 118.616H68.8967V131.603H85.5073V118.616ZM98.5697 100.571H77.8815V113.482H98.5697V100.571Z" fill="#5FB9B0"/>
<path d="M49.5679 141.796V149.648H126.883V141.796H49.5679Z" fill="#5FB9B0"/>
</svg>
