<svg width="180" height="180" viewBox="0 0 180 180" fill="none" xmlns="http://www.w3.org/2000/svg">
<path d="M89.2226 156.4H129.958C128.231 151.517 126.712 146.514 125.402 141.392H53.2215C52.5068 144.013 51.7326 146.573 50.8989 149.075C50.0651 151.576 49.2313 154.018 48.3976 156.4H89.2226ZM54.6508 135.05H124.151C123.616 132.846 123.109 130.613 122.633 128.35C122.156 126.087 121.769 123.794 121.471 121.471H57.1523C56.3186 126.653 55.4846 131.179 54.6508 135.05ZM57.7772 115.307L120.756 115.397C120.518 114.027 120.369 111.943 120.31 109.144H58.2244C58.1647 110.513 58.0157 112.568 57.7772 115.307ZM119.863 103.069C119.744 101.401 119.685 98.8701 119.685 95.4754C119.685 92.7956 119.715 90.7706 119.774 89.4009H58.5816C58.7008 92.1403 58.7599 94.1653 58.7599 95.4754C58.7599 97.2028 58.7008 99.7341 58.5816 103.069H119.863ZM99.4061 61.9762H128.886C126.802 72.9939 125.759 84.1601 125.759 95.4754C125.759 119.059 130.196 141.482 139.07 162.743H89.2226H39.375C48.2487 141.244 52.6855 118.821 52.6855 95.4754C52.6855 84.1601 51.6433 72.9939 49.5589 61.9762H79.0386C78.3833 58.9387 77.877 56.7653 77.5198 55.4548C77.2222 53.7873 77.0732 52.4473 77.0732 51.4348C77.0732 48.1593 78.2347 45.3305 80.5573 42.9483C82.9395 40.5661 85.8279 39.375 89.2226 39.375C92.5577 39.375 95.3865 40.5661 97.7091 42.9483C100.091 45.3305 101.282 48.1593 101.282 51.4348C101.282 52.4473 101.134 53.7873 100.835 55.4548C100.121 58.1946 99.6446 60.3681 99.4061 61.9762ZM92.8851 68.0507C92.9447 64.2392 93.5702 59.7724 94.761 54.6508C95.1182 52.8641 95.2971 51.7922 95.2971 51.4348C95.2971 47.4447 93.2721 45.4496 89.2226 45.4496C85.1726 45.4496 83.1476 47.4447 83.1476 51.4348C83.1476 52.2686 83.3265 53.3406 83.6837 54.6508C84.7558 59.3556 85.3813 63.8224 85.5596 68.0507H56.6162C57.3902 73.053 57.9262 78.1453 58.2244 83.3265H120.31C120.489 80.7654 120.667 78.2049 120.846 75.6439C121.084 73.0828 121.382 70.5521 121.739 68.0507H92.8851Z" fill="#1C1124"/>
<path d="M89.2221 156.4H129.958C128.23 151.517 126.712 146.514 125.402 141.392H53.2213C52.5066 144.013 51.7324 146.573 50.8987 149.075C50.0649 151.576 49.2311 154.018 48.3973 156.4H89.2221ZM54.6506 135.05H124.151C123.615 132.846 123.109 130.613 122.632 128.35C122.156 126.087 121.769 123.794 121.471 121.471H57.1517C56.3181 126.652 55.4844 131.179 54.6506 135.05ZM57.7772 115.307L120.756 115.397C120.518 114.027 120.369 111.943 120.31 109.144H58.2238C58.1642 110.513 58.0157 112.568 57.7772 115.307ZM119.863 103.069C119.744 101.401 119.685 98.87 119.685 95.4754C119.685 92.7956 119.715 90.7706 119.774 89.4009H58.5816C58.7003 92.1403 58.7599 94.1653 58.7599 95.4754C58.7599 97.2028 58.7003 99.734 58.5816 103.069H119.863ZM92.8851 68.0507C92.9441 64.2392 93.5696 59.7724 94.761 54.6508C95.1182 52.8641 95.2965 51.7922 95.2965 51.4348C95.2965 47.4447 93.2721 45.4496 89.2221 45.4496C85.1726 45.4496 83.1476 47.4447 83.1476 51.4348C83.1476 52.2686 83.3265 53.3406 83.6837 54.6508C84.7558 59.3555 85.3808 63.8224 85.5596 68.0507H56.6162C57.3902 73.053 57.9263 78.1453 58.2238 83.3265H120.31C120.489 80.7654 120.667 78.2049 120.846 75.6439C121.084 73.0828 121.382 70.5521 121.739 68.0507H92.8851Z" fill="#BADF96"/>
</svg>
