<svg width="50" height="50" viewBox="0 0 50 50" fill="none" xmlns="http://www.w3.org/2000/svg">
<path fill-rule="evenodd" clip-rule="evenodd" d="M25.0037 44.2739C31.1253 44.2739 36.0802 43.7348 36.0802 43.0729L37.3712 36.7979C48.2803 29.2756 43.8088 17.8928 34.1482 17.9342C32.1433 17.9438 29.4387 18.4442 28.1198 19.2204L27.277 15.278H31.0251C32.1512 15.4035 32.7285 13.7392 32.7285 12.7122C32.7285 11.6854 32.1585 10.1467 31.0251 10.1467H27.7648V7.17304C27.7648 6.24038 26.0285 5.77393 24.9828 5.77393C23.937 5.77393 22.2008 6.24038 22.2008 7.17304V10.1467H18.9402C17.8048 10.1467 17.237 11.6854 17.237 12.7122C17.237 13.7391 17.8143 15.4035 18.9402 15.278H22.6885L21.8455 19.2204C20.5265 18.4442 17.8223 17.943 15.8173 17.9342C6.1573 17.8928 1.68514 29.2765 12.594 36.7979L13.8851 43.0729C13.8851 43.7348 18.8403 44.2713 24.9616 44.2739H24.9839H25.0037Z" fill="#3D506C" stroke="#141414" stroke-width="1.49998"/>
<path opacity="0.25" fill-rule="evenodd" clip-rule="evenodd" d="M30.5851 9.94118C30.0552 9.93156 29.6532 10.0344 29.6359 10.1191C30.3465 10.8423 33.2519 14.2967 26.0389 13.7654C25.1709 14.2524 26.1827 20.8138 26.8969 22.6605C26.8969 22.6605 28.0706 22.1346 28.8698 21.7208C43.0768 17.6303 41.0974 33.6191 32.6254 36.4339C27.5683 37.199 20.0053 37.5105 15.0204 36.7702L15.4179 39.2108C21.9079 39.7911 21.765 39.6574 29.9606 39.7785C34.0023 42.5118 18.4607 43.5917 13.8887 43.0449C13.9782 43.2981 36.0514 44.223 36.0793 43.0794L37.3701 36.7713C48.2783 29.2492 43.8084 17.8663 34.1488 17.9067C33.306 17.9067 32.3423 18.0061 31.4072 18.1678L28.1241 19.1921L27.2813 15.2498H31.0289C32.0169 15.5324 32.7061 13.7294 32.7321 12.684C32.8774 10.5189 31.3558 10.0835 30.5877 9.94071L30.5851 9.94118Z" fill="#0A0020"/>
<path opacity="0.25" fill-rule="evenodd" clip-rule="evenodd" d="M25.9659 6.67141C25.0595 6.42791 23.4908 6.48454 22.9156 7.2011C22.8732 7.25399 22.8829 7.40735 22.8838 7.48496L22.9106 10.9239H19.5873C19.3025 10.9238 18.8296 10.9084 18.6536 11.0085C18.2974 11.2071 17.9643 11.9131 17.9321 12.7297C17.9061 13.3925 18.414 14.5537 18.7767 14.5855C19.0047 14.6057 19.3308 14.5585 19.9141 14.5759C18.101 13.9041 18.5685 11.2077 19.7215 11.2578L23.2144 11.2308L23.17 8.20835C23.1565 7.27579 23.796 6.79351 24.8416 6.79351C25.2524 6.79351 26.2163 6.8329 26.6933 6.97735C26.1942 6.68759 25.9654 6.67306 25.9654 6.67306L25.9659 6.67141Z" fill="#C0F1FC"/>
<path opacity="0.25" fill-rule="evenodd" clip-rule="evenodd" d="M23.0788 16.8654L22.3385 20.3863C21.0193 19.61 18.3828 18.6877 16.3779 18.6789C7.31777 17.9549 2.50583 28.9257 13.2602 36.3635L14.5578 42.7305L14.6621 42.7448L14.2277 36.2858C4.11349 28.8398 7.62167 19.4579 17.2822 19.4992C19.2871 19.5088 21.3754 20.4401 22.6947 21.2162L23.5689 14.6093L23.0788 16.8654Z" fill="#C0F1FC"/>
</svg>
