<svg width="50" height="50" viewBox="0 0 50 50" fill="none" xmlns="http://www.w3.org/2000/svg">
<path fill-rule="evenodd" clip-rule="evenodd" d="M22.803 5.7681L20.3079 6.23617L19.3132 9.66117L17.1441 8.23757L15.7166 8.6623L16.4772 13.613L6.77511 28.593C6.41705 34.5488 8.64641 34.6096 12.918 36.2405C17.8913 29.2211 23.607 31.2238 28.289 25.9175C28.8524 32.5394 12.444 35.117 14.643 44.1925L41.733 44.2502C45.544 27.4722 42.7524 16.4992 27.126 10.4542L22.803 5.7681Z" fill="#FFCAAC" stroke="#2A2A2A" stroke-width="1.5" stroke-linejoin="round"/>
<path opacity="0.5" fill-rule="evenodd" clip-rule="evenodd" d="M21.619 17.718C21.1685 17.7079 20.784 18.0029 20.5291 18.3269C20.1151 18.8596 19.8996 19.5048 19.7807 20.1477C19.7373 20.4246 19.6869 20.7053 19.7037 20.9853C19.7304 21.0826 19.8485 21.0481 19.9214 21.0289C20.5527 20.9113 21.2106 20.9011 21.8278 20.7129C22.2752 20.5733 22.6293 20.2491 22.8615 19.8722C23.0952 19.5139 23.1954 19.1 23.3332 18.7051C23.3944 18.5666 23.3776 18.3897 23.2375 18.2977C23.005 18.1375 22.7236 18.0565 22.4651 17.9415C22.2111 17.8453 21.9596 17.7129 21.6774 17.7181C21.6577 17.7176 21.6389 17.7174 21.6182 17.7176L21.619 17.718Z" fill="#8E1100"/>
<path opacity="0.2" fill-rule="evenodd" clip-rule="evenodd" d="M22.803 5.7681L21.5558 6.00224L25.3633 11.7041C44.4083 19.8286 44.2313 36.4941 32.2232 44.2281L41.7326 44.2494C45.5436 27.4714 42.756 16.4984 27.1286 10.4534L22.803 5.7681Z" fill="#8E1100"/>
<path fill-rule="evenodd" clip-rule="evenodd" d="M16.586 9.2113C16.7317 10.9168 17.4597 13.6419 17.1573 14.0468L7.54675 28.7778C7.22362 32.3871 8.61345 33.6652 8.88945 33.6094C8.80165 33.6195 7.47105 31.4806 8.35847 28.9617L18.0291 14.0787L16.5974 9.2214C16.4569 9.08935 16.7558 9.2933 16.5865 9.2113H16.586Z" fill="#FFFACE"/>
<path opacity="0.2" fill-rule="evenodd" clip-rule="evenodd" d="M27.442 25.617C27.442 25.617 29.4629 22.9926 29.4313 21.7939C29.3997 20.5952 30.4967 27.3469 28.1285 28.1569C28.0308 27.7441 28.4014 26.448 28.3274 26.1642C28.0079 24.9403 27.4426 25.7471 27.442 25.617L27.442 25.617Z" fill="#8E1100" stroke="#8E1100" stroke-width="0.26458"/>
<path fill-rule="evenodd" clip-rule="evenodd" d="M28.727 28.005C25.8925 34.2373 13.993 36.1441 15.402 43.547C14.3296 37.0103 28.578 34.6677 28.727 28.005V28.005Z" fill="#FFFACE"/>
<path opacity="0.5" fill-rule="evenodd" clip-rule="evenodd" d="M10.763 28.109C10.763 28.109 10.7164 30.4948 9.2017 30.2941C9.2017 30.2941 7.3675 29.2782 10.763 28.109Z" fill="#8E1100"/>
</svg>
