<svg width="50" height="50" viewBox="0 0 50 50" fill="none" xmlns="http://www.w3.org/2000/svg">
<path fill-rule="evenodd" clip-rule="evenodd" d="M25 11.961C21.6098 11.961 18.968 14.4658 18.9682 17.779C18.9682 19.4829 19.6842 21.1124 20.944 22.2928C17.0478 23.9851 17.3004 24.6148 17.7083 28.7718H21.4843C19.8241 36.9992 12.4637 35.1095 12.6225 44.2428C12.6225 44.2428 37.3705 44.2428 37.3775 44.2428C37.5362 35.1097 30.1759 36.9995 28.5157 28.7718H32.2917C32.6996 24.6147 32.9517 23.985 29.0555 22.2928C30.3153 21.1124 31.0313 19.483 31.0313 17.779C31.0315 14.4658 28.3902 11.961 25 11.961V11.961Z" fill="#3D506C" stroke="#1E1E1E" stroke-width="1.5" stroke-linejoin="round"/>
<path opacity="0.25" fill-rule="evenodd" clip-rule="evenodd" d="M24.999 11.96C24.4048 11.9601 23.835 12.0412 23.2972 12.1864C31.3393 13.4453 30.0281 21.1342 25.6519 22.2924C27.4876 22.9557 29.3519 23.8979 29.9936 24.7455C30.574 25.5123 30.1362 27.279 30.1362 27.279L17.5812 27.4832L17.7088 28.5027L23.4034 28.5242C25.1143 36.6218 37.5294 35.1524 37.3714 44.2422C37.5295 35.1522 30.2528 36.6001 28.542 28.5022H32.2944C32.6029 23.5216 33.3126 24.8975 29.0559 22.292C30.3159 21.1116 31.0289 19.4825 31.0318 17.7786C31.0318 14.4649 28.3893 11.9587 24.9992 11.9592L24.999 11.96Z" fill="#0A0020"/>
<path opacity="0.25" fill-rule="evenodd" clip-rule="evenodd" d="M23.738 12.775C23.4368 12.669 19.4591 14.0195 19.7521 18.0716C19.872 19.7298 20.9693 21.2475 21.1321 21.2133L21.6249 21.7718C21.6249 21.7718 20.6791 19.7767 20.6791 18.071C20.6791 14.9149 23.7427 12.7715 23.7427 12.7715L23.738 12.775ZM22.1665 29.264C20.1992 37.3279 13.9359 35.7344 13.4162 43.397V43.3813C15.1766 37.0891 20.8113 37.8752 22.5534 29.3183L22.1665 29.264Z" fill="#C0F1FC"/>
<path opacity="0.25" fill-rule="evenodd" clip-rule="evenodd" d="M22.256 22.461C20.8593 23.1331 18.4426 23.8304 18.3136 25.2489L20.0754 24.8448C20.2186 24.5246 20.7162 23.4394 22.2842 22.4534L22.256 22.461Z" fill="#C0F1FC"/>
</svg>
