<svg width="50" height="50" viewBox="0 0 50 50" fill="none" xmlns="http://www.w3.org/2000/svg">
<path fill-rule="evenodd" clip-rule="evenodd" d="M19.095 5.76172C16.7105 5.76172 14.7776 7.64498 14.7776 9.96668C14.7776 11.8732 16.1004 13.5398 17.9939 14.0263V24.7722L12.7004 17.5566C13.1794 16.8636 13.4361 16.0472 13.4361 15.2119C13.4361 12.8896 11.5027 11.0072 9.11748 11.0072C6.73286 11.0072 4.79907 12.8901 4.79907 15.2119C4.86325 17.2728 6.71022 18.8866 9.07313 19.4155L9.94091 23.4951L11.6784 31.6551L14.409 36.654L15.5145 42.8846C15.5145 43.6554 19.7786 44.2804 25.0398 44.2804C30.3011 44.2804 34.5661 43.6555 34.5656 42.8846L35.6713 36.654L38.4017 31.6551L40.1394 23.4951L41.0072 19.4155C43.3698 18.8866 45.2169 17.2728 45.2803 15.2119C45.2803 12.8901 43.3478 11.0078 40.9631 11.0072C38.5777 11.0072 36.644 12.8896 36.6442 15.2119C36.6442 16.0472 36.9005 16.8636 37.3794 17.5566L32.0862 24.7722V14.0263C33.9794 13.5398 35.2995 11.8732 35.302 9.96668C35.302 7.64479 33.3698 5.7622 30.985 5.76172C28.5996 5.76172 26.6653 7.64411 26.6659 9.96668C26.6659 11.3389 27.3587 12.6235 28.515 13.408L25.0398 23.3882L21.5641 13.408C22.7205 12.6235 23.4141 11.3389 23.4141 9.96668C23.4141 7.6443 21.4806 5.76201 19.0955 5.76172H19.095Z" fill="#FFCAAC" stroke="#2A2A2A" stroke-width="1.49996"/>
<path opacity="0.2" fill-rule="evenodd" clip-rule="evenodd" d="M41.3102 10.673C42.2487 11.6222 44.5671 15.7969 39.2591 19.0822L34.1341 32.0398C27.2605 33.2491 19.6263 33.5353 14.0715 31.6355L15.9527 34.6445C22.462 36.8549 33.5334 35.1142 33.5334 35.1142C32.473 38.5522 30.9871 41.7079 27.9396 44.1901C27.9396 44.1901 32.4022 44.3057 34.4682 42.8649L36.0184 36.3198L38.748 31.3216L40.4867 23.1614L41.3538 19.0822C43.7163 18.5533 45.5639 16.9397 45.6274 14.8789C45.6274 12.5571 43.6951 10.6736 41.3104 10.673H41.3102Z" fill="#8E1100"/>
<path opacity="0.25" fill-rule="evenodd" clip-rule="evenodd" d="M19.0949 5.76172C18.833 5.76172 18.578 5.78868 18.3289 5.83201C21.3205 7.61763 20.7091 11.6101 19.914 12.9334L25.0399 21.2713L24.2731 19.5366L21.564 13.4083C22.7204 12.6237 23.414 11.3391 23.414 9.96691C23.414 7.64454 21.4806 5.76224 19.0954 5.76195L19.0949 5.76172Z" fill="#010101"/>
<path opacity="0.25" fill-rule="evenodd" clip-rule="evenodd" d="M30.9431 5.76172C30.6812 5.76172 30.4256 5.78868 30.1765 5.83201C34.6808 7.10129 31.9308 12.1548 30.8228 12.5619L32.0446 22.6556L32.0444 21.179V14.0268C33.9374 13.5402 35.258 11.8738 35.2605 9.96715C35.2605 7.64526 33.3278 5.76277 30.9431 5.76219V5.76172Z" fill="#010101"/>
<path opacity="0.25" fill-rule="evenodd" clip-rule="evenodd" d="M9.02411 10.9619C8.76197 10.9619 8.50667 10.9879 8.25757 11.0322C11.5013 12.2312 11.2792 15.3327 10.6064 17.4323L17.9008 24.7266L12.6071 17.5115C13.0862 16.8185 13.3428 16.002 13.3428 15.1669C13.3428 12.8444 11.4093 10.9621 9.02411 10.9621V10.9619Z" fill="#010101"/>
<path fill-rule="evenodd" clip-rule="evenodd" d="M6.85223 12.4064C6.85223 12.4064 3.5793 15.0128 6.97347 17.7151C6.75419 17.1666 6.06759 13.9525 6.85223 12.4064Z" fill="#FFFACE"/>
<path fill-rule="evenodd" clip-rule="evenodd" d="M17.318 6.91745C16.9591 6.76184 14.0149 9.11502 16.1663 12.0656C16.265 11.588 15.3304 8.30094 17.318 6.91745Z" fill="#FFFACE"/>
<path fill-rule="evenodd" clip-rule="evenodd" d="M29.462 6.82108C29.1031 6.66546 25.9578 8.99802 28.1545 12.0219C27.9865 11.4682 27.4363 7.78904 29.462 6.82108Z" fill="#FFFACE"/>
<path fill-rule="evenodd" clip-rule="evenodd" d="M9.71533 18.8582L12.3678 31.4295L15.1223 36.4754L16.2097 42.6522L16.9116 42.8776L15.8267 36.4263L13.0221 31.4542L9.71533 18.8582Z" fill="#FFFACE"/>
<path fill-rule="evenodd" clip-rule="evenodd" d="M39.4342 12.1175C39.0753 11.9618 35.9605 14.3837 38.142 17.363C37.9313 16.3795 37.1094 13.0087 39.4342 12.1175Z" fill="#FFFACE"/>
</svg>
