<svg width="50" height="50" viewBox="0 0 50 50" fill="none" xmlns="http://www.w3.org/2000/svg">
<path fill-rule="evenodd" clip-rule="evenodd" d="M22.3772 8.73564L21.786 11.1736L18.673 11.3545L18.1315 8.93123L13.6577 9.86856V17.2264C14.4341 19.2004 15.465 19.5314 16.4387 20.0553H18.4242L15.5322 36.1809C11.5687 38.4766 10.6777 39.5177 10.6777 44.1289H39.1908C39.1908 39.5177 38.2998 38.4766 34.3365 36.1809L31.4445 20.0553H33.4299C34.4035 19.5313 35.4344 19.1999 36.2108 17.2259V9.86788L31.7374 8.93123L31.1955 11.3541L28.0828 11.1731L27.4917 8.7345H24.9344L22.3772 8.73564Z" fill="#3D506C" stroke="#1E1E1E" stroke-width="1.49996"/>
<path opacity="0.25" fill-rule="evenodd" clip-rule="evenodd" d="M34.0456 9.39001C37.8786 21.0182 21.1194 18.942 14.4473 18.5444C14.4473 18.5444 14.5254 20.04 16.5107 20.0446H18.5292H18.496L18.4115 20.5147C31.1383 19.5375 28.8204 23.3633 31.0659 35.0576L15.7068 35.5981L15.6045 36.1711L14.6388 36.744C19.6317 37.2998 36.5966 33.8441 35.088 44.1194H39.2624C39.5029 39.3581 37.639 37.8678 34.4079 36.1711L31.6863 19.7828C31.9617 19.6019 32.5677 19.783 33.4521 19.6326C34.628 19.4334 35.8628 18.2466 36.2817 17.0644V10.0023L34.0456 9.39001Z" fill="#0A0020"/>
<path opacity="0.25" fill-rule="evenodd" clip-rule="evenodd" d="M14.3838 10.4184L16.5558 9.97424C15.3463 10.4491 14.9364 13.0187 14.4513 16.3349C14.306 17.3286 14.3834 10.4184 14.3834 10.4184H14.3838Z" fill="#C0F1FC"/>
<path opacity="0.25" fill-rule="evenodd" clip-rule="evenodd" d="M22.9284 9.48348L22.3555 11.8835L24.3027 9.47595L22.9284 9.48348Z" fill="#C0F1FC"/>
<path opacity="0.25" fill-rule="evenodd" clip-rule="evenodd" d="M32.2998 9.76404L31.8003 12.0669L33.2112 9.95826L32.2998 9.76404Z" fill="#C0F1FC"/>
<path opacity="0.25" fill-rule="evenodd" clip-rule="evenodd" d="M19.0697 20.6078L16.3318 35.635L19.8189 20.6995L19.0697 20.6078Z" fill="#C0F1FC"/>
<path opacity="0.25" fill-rule="evenodd" clip-rule="evenodd" d="M11.4438 43.2304C11.4309 43.1874 11.4127 42.2191 11.5963 41.316C11.8046 40.2936 12.2917 39.3095 13.0842 38.6764C14.5462 37.5081 15.7717 36.8473 15.9102 36.843C13.8062 38.4718 11.8585 40.4637 11.4438 43.2304Z" fill="#C0F1FC"/>
</svg>
