<svg width="180" height="180" viewBox="0 0 180 180" fill="none" xmlns="http://www.w3.org/2000/svg">
<path d="M100.837 48.0176H106.693V59.2987H122.194C122.194 59.2987 123.887 59.7004 127.275 60.5042C130.662 61.308 134.48 62.973 138.728 65.4992C142.976 67.9674 147.024 71.5556 150.87 76.2632C154.774 80.9713 157.243 87.2286 158.276 95.0366V112.432C158.276 112.432 157.645 114.929 156.382 119.924C155.118 124.861 150.009 130.43 141.053 136.63V163.24H87.5756H34.098V136.63C25.0846 130.43 19.9464 124.861 18.6834 119.924C17.4778 114.929 16.875 112.432 16.875 112.432V95.0366C17.851 87.2286 20.2622 80.9713 24.1087 76.2632C28.0126 71.5556 32.0887 67.9674 36.337 65.4992C40.6428 62.973 44.4893 61.308 47.8765 60.5042C51.2637 59.7004 52.9573 59.2987 52.9573 59.2987H68.4579V48.0176H74.3141C73.5677 46.4676 73.1942 44.7452 73.1942 42.8507C73.1942 38.9468 74.5723 35.5309 77.328 32.603C80.0837 29.6177 83.4997 28.125 87.5756 28.125C91.5941 28.125 94.9815 29.6177 97.7372 32.603C100.55 35.5309 101.957 38.9468 101.957 42.8507C101.957 44.7452 101.584 46.4676 100.837 48.0176ZM98.2541 52.1511C97.1629 53.1845 95.6992 54.2179 93.8621 55.2513C92.0824 56.2849 89.9871 56.8012 87.5756 56.8012C83.3844 56.8012 79.8542 55.2513 76.9832 52.1511H76.2086V59.1266L85.509 94.4336H87.5756H89.6422L98.9426 59.1266V52.1511H98.2541ZM40.9012 141.28C40.9012 141.28 45.5227 142.572 54.7657 145.155C64.0659 147.739 75.0026 145.443 87.5756 138.266C100.091 145.443 110.999 147.739 120.3 145.155C129.657 142.572 134.336 141.28 134.336 141.28L141.053 136.716C141.053 135.396 141.053 133.788 141.053 131.894C141.053 129.942 141.053 128.277 141.053 126.899C132.671 134.19 123.859 137.692 114.616 137.405C105.43 137.061 96.417 134.161 87.5756 128.707C79.2512 134.219 70.2377 137.003 60.5357 137.061C50.8905 137.118 42.078 133.903 34.098 127.416V136.716C36.2796 138.324 38.5473 139.845 40.9012 141.28Z" fill="#310B0B"/>
<path d="M98.2541 52.1509C97.1634 53.1843 95.6992 54.2177 93.8621 55.2511C92.0824 56.2843 89.9871 56.8012 87.5756 56.8012C83.385 56.8012 79.8542 55.2511 76.9837 52.1509H76.2086V59.1261L85.509 94.4336H87.5756H89.6422L98.9426 59.1261V52.1509H98.2541ZM40.9012 141.28C40.9012 141.28 45.5227 142.572 54.7658 145.155C64.0665 147.739 75.0026 145.442 87.5756 138.266C100.091 145.442 110.999 147.739 120.3 145.155C129.657 142.572 134.336 141.28 134.336 141.28L141.053 136.716C141.053 135.395 141.053 133.788 141.053 131.894C141.053 129.941 141.053 128.277 141.053 126.899C132.671 134.19 123.859 137.692 114.616 137.405C105.43 137.06 96.417 134.161 87.5756 128.707C79.2512 134.219 70.2377 137.003 60.5357 137.06C50.8906 137.118 42.0781 133.903 34.0981 127.416V136.716C36.2797 138.324 38.5474 139.845 40.9012 141.28Z" fill="#9C3D54"/>
</svg>
