<svg width="180" height="180" viewBox="0 0 180 180" fill="none" xmlns="http://www.w3.org/2000/svg">
<path d="M114.099 139.128C123.801 139.128 131.351 136.774 136.747 132.066C142.201 127.301 145.703 124.086 147.253 122.421C149.377 120.125 150.67 117.943 151.129 115.876C151.588 113.752 151.818 112.69 151.818 112.69V95.8978C151.818 91.8214 150.641 87.8602 148.287 84.0139C145.991 80.1101 143.665 77.1531 141.311 75.1438C137.752 72.216 134.049 69.9486 130.202 68.3409C126.356 66.6759 123.514 65.8434 121.677 65.8434H103.852L90.8482 118.632V132.583C90.8482 132.583 93.0583 133.76 97.479 136.114C101.9 138.41 107.44 139.415 114.099 139.128ZM98.2541 52.1511C97.1629 53.1845 95.6992 54.2179 93.8621 55.2513C92.0824 56.2849 89.9871 56.8012 87.5756 56.8012C83.3844 56.8012 79.8542 55.2513 76.9832 52.1511H76.2086V59.1266L85.509 94.4336H87.5756H89.6422L98.9426 59.1266V52.1511H98.2541ZM61.1381 138.869C64.5829 138.869 67.7115 138.553 70.5246 137.922C73.3956 137.29 75.8638 136.573 77.9304 135.769C79.9402 135.022 81.4899 134.334 82.5812 133.702C83.7292 133.013 84.303 132.669 84.303 132.669V118.632L71.4718 65.8434H53.0434C52.6989 65.8434 51.1202 66.1877 48.307 66.8768C45.494 67.5084 42.3651 68.886 38.9205 71.0106C35.4759 73.0772 32.2035 76.1484 29.1034 80.2249C26.0032 84.2434 24.0513 89.64 23.2475 96.4142V112.69C24.855 120.728 29.6774 127.129 37.7149 131.894C45.7523 136.601 53.5601 138.927 61.1381 138.869ZM87.5756 138.266C75.0026 145.443 64.0659 147.739 54.7657 145.155C45.5227 142.572 40.9012 141.28 40.9012 141.28V156.695H87.5756H134.25V141.28C134.25 141.28 129.6 142.572 120.3 145.155C110.999 147.739 100.091 145.443 87.5756 138.266ZM100.837 48.0176H106.693V59.2987H122.194C122.194 59.2987 123.887 59.7004 127.275 60.5042C130.662 61.308 134.48 62.973 138.728 65.4992C142.976 67.9674 147.024 71.5556 150.87 76.2632C154.774 80.9713 157.243 87.2286 158.276 95.0366V112.432C158.276 112.432 157.645 114.929 156.382 119.924C155.118 124.861 150.009 130.43 141.053 136.63V163.24H87.5756H34.098V136.63C25.0846 130.43 19.9464 124.861 18.6834 119.924C17.4778 114.929 16.875 112.432 16.875 112.432V95.0366C17.851 87.2286 20.2622 80.9713 24.1087 76.2632C28.0126 71.5556 32.0887 67.9674 36.337 65.4992C40.6428 62.973 44.4893 61.308 47.8765 60.5042C51.2637 59.7004 52.9573 59.2987 52.9573 59.2987H68.4579V48.0176H74.3141C73.5677 46.4676 73.1942 44.7452 73.1942 42.8507C73.1942 38.9468 74.5723 35.5309 77.328 32.603C80.0837 29.6177 83.4997 28.125 87.5756 28.125C91.5941 28.125 94.9815 29.6177 97.7372 32.603C100.55 35.5309 101.957 38.9468 101.957 42.8507C101.957 44.7452 101.584 46.4676 100.837 48.0176ZM87.5756 34.4114C82.1216 34.4114 79.3946 37.081 79.3946 42.4201C79.3946 47.8167 82.1216 50.515 87.5756 50.515C93.0296 50.515 95.7566 47.8167 95.7566 42.4201C95.7566 37.081 93.0296 34.4114 87.5756 34.4114Z" fill="#310B0B"/>
<path d="M114.099 139.128C123.801 139.128 131.351 136.774 136.748 132.066C142.202 127.301 145.703 124.086 147.254 122.421C149.378 120.125 150.67 117.943 151.129 115.877C151.588 113.752 151.818 112.69 151.818 112.69V95.8978C151.818 91.8214 150.641 87.8603 148.287 84.0139C145.991 80.1101 143.665 77.1531 141.312 75.1438C137.752 72.216 134.049 69.9486 130.202 68.341C126.356 66.676 123.514 65.8435 121.677 65.8435H103.852L90.8483 118.632V132.583C90.8483 132.583 93.0583 133.76 97.479 136.114C101.9 138.41 107.44 139.415 114.099 139.128ZM98.2541 52.1512C97.1635 53.1846 95.6993 54.2179 93.8621 55.2513C92.0824 56.2849 89.9871 56.8013 87.5757 56.8013C83.385 56.8013 79.8542 55.2513 76.9838 52.1512H76.2086V59.1266L85.509 94.4336H87.5757H89.6423L98.9426 59.1266V52.1512H98.2541ZM61.1382 138.869C64.5829 138.869 67.7115 138.553 70.5251 137.922C73.3956 137.291 75.8638 136.573 77.931 135.769C79.9403 135.023 81.49 134.334 82.5812 133.702C83.7293 133.013 84.3036 132.669 84.3036 132.669V118.632L71.4724 65.8435H53.0435C52.699 65.8435 51.1202 66.1877 48.3071 66.8768C45.4941 67.5085 42.3652 68.886 38.9206 71.0106C35.476 73.0772 32.2036 76.1485 29.1034 80.2249C26.0033 84.2434 24.0513 89.64 23.2476 96.4142V112.69C24.8551 120.728 29.6775 127.129 37.715 131.894C45.7524 136.601 53.5602 138.927 61.1382 138.869ZM87.5757 138.266C75.0027 145.443 64.066 147.739 54.7658 145.155C45.5228 142.572 40.9013 141.28 40.9013 141.28V156.695H87.5757H134.25V141.28C134.25 141.28 129.6 142.572 120.3 145.155C110.999 147.739 100.091 145.443 87.5757 138.266ZM87.5757 34.4114C82.1217 34.4114 79.3947 37.081 79.3947 42.4202C79.3947 47.8167 82.1217 50.515 87.5757 50.515C93.0297 50.515 95.7566 47.8167 95.7566 42.4202C95.7566 37.081 93.0297 34.4114 87.5757 34.4114Z" fill="#EEB76B"/>
</svg>
