<svg width="180" height="180" viewBox="0 0 180 180" fill="none" xmlns="http://www.w3.org/2000/svg">
<path d="M88.2332 24.739L88.3198 22.5L106.231 40.412C118.173 44.3158 127.244 48.9086 133.444 54.1904C139.701 59.472 144.151 64.5244 146.792 69.3467C149.49 74.169 150.954 78.2454 151.184 81.5749C151.471 84.9049 151.614 86.5699 151.614 86.5699V161.576H37.1671V154.601C38.3727 150.123 41.5303 146.678 46.6398 144.267C51.8067 141.798 57.2321 140.019 62.9156 138.928C68.5991 137.779 73.7089 137.119 78.2443 136.947C82.8371 136.717 85.1332 136.603 85.1332 136.603L93.3142 127.044V119.035H86.4247C80.5691 114.27 76.2632 109.448 73.5075 104.568L50.6011 116.452H42.334L28.125 103.362V96.3866L56.2849 69.6049V66.5049H53.1845V62.1129C55.6532 59.472 58.2654 56.8884 61.0211 54.3626C63.7768 51.7792 66.4464 49.7411 69.03 48.2484C74.1966 45.3205 78.6746 43.5408 82.4636 42.9093C86.31 42.2778 88.2332 41.962 88.2332 41.962V24.739ZM74.2826 55.9127L86.4247 67.7964H74.2826V55.9127ZM94.8645 47.3012C94.8645 47.3012 91.9074 47.8753 85.9944 49.0235C80.1388 50.1717 75.7468 51.6643 72.819 53.5015C67.5945 56.6589 62.8583 60.9936 58.6097 66.5049H61.9684V72.7914L34.0669 99.7453L46.0369 111.199L74.9717 96.1284C77.2678 98.9415 79.6792 102.071 82.2054 105.515C84.7316 108.902 87.1999 111.314 89.6113 112.749H99.8589V129.628L87.8889 142.975C87.8889 142.975 85.9944 143.032 82.2054 143.147C78.4738 143.262 74.1966 143.664 69.3743 144.353C64.5519 144.984 59.8151 145.989 55.1651 147.367C50.5149 148.745 47.2999 150.697 45.5202 153.223V154.773L144.38 154.601V88.4644C144.38 88.4644 144.265 86.9428 144.036 83.9002C143.864 80.8577 142.572 77.1834 140.161 72.8775C137.749 68.5142 133.731 63.9214 128.105 59.0991C122.479 54.2765 114.269 50.0856 103.476 46.5262L94.8645 38.173V47.3012Z" fill="#310B0B"/>
<path d="M74.2826 55.9128L86.4247 67.797H74.2826V55.9128ZM94.8645 47.3013C94.8645 47.3013 91.9074 47.8754 85.9944 49.0236C80.1388 50.1719 75.7468 51.6645 72.819 53.5016C67.5945 56.6589 62.8582 60.9936 58.6097 66.5049H61.9684V72.7914L34.0669 99.7453L46.0369 111.199L74.9717 96.1284C77.2678 98.9415 79.6792 102.071 82.2054 105.515C84.7316 108.902 87.1999 111.314 89.6113 112.749H99.8589V129.628L87.8889 142.975C87.8889 142.975 85.9944 143.033 82.2054 143.147C78.4738 143.262 74.1965 143.664 69.3742 144.353C64.5519 144.984 59.8151 145.989 55.1651 147.367C50.5148 148.745 47.2999 150.697 45.5202 153.223V154.773L144.38 154.601V88.4644C144.38 88.4644 144.265 86.9428 144.036 83.9003C143.864 80.8577 142.572 77.1834 140.161 72.8775C137.749 68.5142 133.731 63.9214 128.105 59.0991C122.479 54.2766 114.269 50.0857 103.476 46.5263L94.8645 38.1731V47.3013Z" fill="#EEB76B"/>
</svg>
