<svg width="180" height="180" viewBox="0 0 180 180" fill="none" xmlns="http://www.w3.org/2000/svg">
<path d="M92.9661 116.476C84.4695 116.476 75.4273 119.432 65.8401 125.345C56.3096 131.201 51.5447 139.268 51.5447 149.544C51.5447 150.749 51.5447 151.926 51.5447 153.075C51.5447 154.166 51.5447 155.285 51.5447 156.433C51.5447 156.893 51.5447 157.323 51.5447 157.725C51.5447 158.069 51.5447 158.241 51.5447 158.241L134.129 158.155V149.458C134.014 139.468 129.25 131.488 119.834 125.518C110.476 119.49 101.521 116.476 92.9661 116.476ZM84.699 68.1649C81.4269 65.5239 79.7906 62.1371 79.7906 58.0033C79.7906 54.3865 81.0534 51.3151 83.5796 48.7891C86.1058 46.263 89.1771 45 92.7939 45C96.3534 45 99.396 46.263 101.922 48.7891C104.506 51.3151 105.797 54.3865 105.797 58.0033C105.797 62.1945 104.161 65.5813 100.889 68.1649C105.941 69.7151 110.103 72.5856 113.375 76.7768C116.705 80.9674 118.37 85.7323 118.37 91.0716C118.37 100.429 114.122 107.376 105.625 111.912C114.753 114.15 122.59 118.456 129.135 124.829C135.737 131.201 139.497 138.464 140.416 146.616C140.473 146.96 140.502 147.908 140.502 149.458L140.588 154.022L140.502 165.561H45.0861C45.0287 165.561 45 163.867 45 160.481C45 157.036 45 154.711 45 153.505C45 152.242 45 150.922 45 149.544C45 148.108 45.0287 147.161 45.0861 146.702C46.1195 138.263 49.9373 130.885 56.5397 124.571C63.1991 118.256 71.1214 114.007 80.307 111.826C71.8104 107.175 67.5624 100.257 67.5624 91.0716C67.5624 85.7323 69.1408 80.9387 72.2987 76.6901C75.3986 72.6142 79.5324 69.7725 84.699 68.1649ZM93.1382 108.725C98.7649 108.725 103.329 107.003 106.831 103.559C110.39 100.114 112.17 95.8365 112.17 90.7273C112.17 85.6749 110.447 81.2829 107.003 77.5513C103.558 73.8197 99.0231 71.9539 93.3969 71.9539C87.7134 71.9539 83.0627 73.8197 79.4458 77.5513C75.8295 81.2829 74.0211 85.6749 74.0211 90.7273C74.0211 95.8365 75.7721 100.114 79.2737 103.559C82.8332 107.003 87.4547 108.725 93.1382 108.725ZM92.7939 51.2864C88.3159 51.2864 86.0771 53.5254 86.0771 58.0033C86.0771 62.4814 88.3159 64.7201 92.7939 64.7201C97.272 64.7201 99.5107 62.4814 99.5107 58.0033C99.5107 53.5254 97.272 51.2864 92.7939 51.2864Z" fill="#310B0B"/>
<path d="M92.9661 116.476C84.4695 116.476 75.4273 119.432 65.8401 125.345C56.3096 131.201 51.5447 139.268 51.5447 149.544C51.5447 150.749 51.5447 151.926 51.5447 153.075C51.5447 154.166 51.5447 155.285 51.5447 156.433C51.5447 156.893 51.5447 157.323 51.5447 157.725C51.5447 158.069 51.5447 158.241 51.5447 158.241L134.129 158.155V149.458C134.014 139.469 129.25 131.488 119.834 125.518C110.476 119.49 101.521 116.476 92.9661 116.476ZM93.1382 108.725C98.7649 108.725 103.329 107.003 106.831 103.559C110.39 100.114 112.17 95.8365 112.17 90.7273C112.17 85.675 110.447 81.283 107.003 77.5513C103.558 73.8197 99.0231 71.9539 93.3969 71.9539C87.7134 71.9539 83.0627 73.8197 79.4464 77.5513C75.8295 81.283 74.0211 85.675 74.0211 90.7273C74.0211 95.8365 75.7721 100.114 79.2737 103.559C82.8332 107.003 87.4547 108.725 93.1382 108.725ZM92.7939 51.2864C88.3159 51.2864 86.0771 53.5254 86.0771 58.0033C86.0771 62.4814 88.3159 64.7201 92.7939 64.7201C97.272 64.7201 99.5107 62.4814 99.5107 58.0033C99.5107 53.5254 97.272 51.2864 92.7939 51.2864Z" fill="#EEB76B"/>
</svg>
