<svg width="180" height="180" viewBox="0 0 180 180" fill="none" xmlns="http://www.w3.org/2000/svg">
<path d="M46.3503 45H69.7736V53.956H78.9879V45.0861H102.498V53.956H111.023V45H135.049V79.0155H46.3503V45ZM51.8617 50.942V72.9872H128.59V50.942H117.051V59.9839H95.9529V50.942H84.6714V59.9839H63.7459V50.942H51.8617ZM57.7176 79.0155L47.8143 141.793H53.8423L63.7459 79.0155H57.7176ZM116.534 79.0155L127.557 141.793H133.585L122.563 79.0155H116.534ZM39.375 141.793H142.025V165.733H39.375V141.793ZM44.8864 147.908V159.275H135.996V147.908H44.8864Z" fill="#310B0B"/>
<path d="M51.8617 50.942V72.9878H128.59V50.942H117.051V59.9839H95.9529V50.942H84.6714V59.9839H63.7453V50.942H51.8617ZM44.8864 147.908V159.275H135.996V147.908H44.8864Z" fill="#EEB76B"/>
<path d="M116.534 79.0155H63.7453L53.8423 141.793H127.557L116.534 79.0155Z" fill="#EEB76B"/>
</svg>
