<svg width="181" height="180" viewBox="0 0 181 180" fill="none" xmlns="http://www.w3.org/2000/svg">
<path d="M74.2372 73.5404H104.359C101.495 83.9804 98.6588 94.426 104.359 106.643H74.2372C79.8692 91.2908 76.622 82.746 74.2372 73.5404V73.5404Z" fill="white"/>
<path d="M106.429 73.6816C99.1348 86.3148 100.602 95.9768 106.429 106.068Z" fill="white"/>
<path d="M73.3 106.068C78.6016 96.8856 79.8928 85.1004 73.3 73.6816H106.429C99.1348 86.3148 100.602 95.9768 106.429 106.068" stroke="#1A1A1A" stroke-width="6.01" stroke-linecap="round"/>
<path d="M72.8844 115.402C69.5524 119.442 67.7748 124.543 67.7652 129.662C67.7652 135.853 70.2744 141.457 74.3312 145.514C78.388 149.571 83.9924 152.08 90.1828 152.08C96.3732 152.08 101.978 149.571 106.035 145.514C110.091 141.457 112.6 135.853 112.6 129.662C112.598 124.425 110.736 119.362 107.482 115.402" fill="white"/>
<path d="M72.8844 115.402C69.5524 119.442 67.7748 124.543 67.7652 129.662C67.7652 135.853 70.2744 141.457 74.3312 145.514C78.388 149.571 83.9924 152.08 90.1828 152.08C96.3732 152.08 101.978 149.571 106.035 145.514C110.091 141.457 112.6 135.853 112.6 129.662C112.598 124.425 110.736 119.362 107.482 115.402" stroke="#1A1A1A" stroke-width="6.01" stroke-linecap="round"/>
<path d="M65.5 116.462H114.712V105.319H65.5V116.462Z" fill="white" stroke="#1A1A1A" stroke-width="6.01" stroke-linecap="round" stroke-linejoin="round"/>
<path d="M72.8841 64.6856C69.5521 60.6468 67.7753 55.5448 67.7653 50.4256C67.7653 44.2356 70.2745 38.6312 74.3313 34.574C78.3881 30.5172 83.9925 28.008 90.1833 28.008C96.3737 28.008 101.978 30.5172 106.035 34.574C110.092 38.6312 112.601 44.2356 112.601 50.426C112.598 55.6636 110.737 60.7268 107.482 64.686" fill="white"/>
<path d="M72.8841 64.6856C69.5521 60.6468 67.7753 55.5448 67.7653 50.4256C67.7653 44.2356 70.2745 38.6312 74.3313 34.574C78.3881 30.5172 83.9925 28.008 90.1833 28.008C96.3737 28.008 101.978 30.5172 106.035 34.574C110.092 38.6312 112.601 44.2356 112.601 50.426C112.598 55.6636 110.737 60.7268 107.482 64.686" stroke="#1A1A1A" stroke-width="6.01" stroke-linecap="round"/>
<path d="M65.5 62.0124H114.712V73.1556H65.5V62.0124Z" fill="white" stroke="#1A1A1A" stroke-width="6.01" stroke-linecap="round" stroke-linejoin="round"/>
</svg>
