<svg width="32" height="32" viewBox="0 0 32 32" fill="none" xmlns="http://www.w3.org/2000/svg">
<path d="M21.5993 25.445V22.1184C22.805 21.3218 23.7309 20.3636 24.3768 19.244C25.0443 18.0598 25.378 16.8433 25.378 15.5945C25.378 13.7428 24.5598 11.9234 22.9234 10.1364C22.7297 9.94259 22.4605 9.64115 22.116 9.23206C21.7715 8.8445 21.4809 8.52153 21.244 8.26316C20.8995 7.89713 20.3505 7.40191 19.5969 6.77751C19.2309 6.47608 18.994 6.2823 18.8864 6.19617C17.7883 5.20574 16.744 4.47368 15.7536 4C14.6555 4.51675 13.5036 5.30263 12.2978 6.35766C12.2333 6.42225 12.1364 6.50837 12.0072 6.61603C11.0167 7.45574 10.3062 8.10168 9.8756 8.55383C9.76794 8.66148 9.61722 8.82297 9.42344 9.03828C9.03588 9.4689 8.74521 9.7811 8.55143 9.97488C6.89354 11.762 6.06459 13.6352 6.06459 15.5945C6.06459 16.8218 6.40909 18.0383 7.09809 19.244C7.76555 20.3852 8.68062 21.3433 9.8433 22.1184V25.3804H14.2679C13.7943 25.6172 13.1699 25.994 12.3947 26.5108L12.3301 26.6077C11.5765 27.0813 11.0275 27.4151 10.683 27.6089C10.2524 27.8242 9.8756 27.9318 9.55263 27.9318C9.10048 27.9318 8.65909 27.695 8.22847 27.2213C7.81938 26.64 7.44259 25.9079 7.09809 25.0251L6 26.4462C6.49522 27.5658 6.97967 28.3947 7.45335 28.933C8.05622 29.579 8.75598 29.9019 9.55263 29.9019C10.0694 29.9019 10.6077 29.762 11.1675 29.4821C11.7919 29.2237 12.384 28.89 12.9438 28.4809C13.5036 28.0718 14.0419 27.7165 14.5586 27.4151C14.9462 27.1782 15.3445 27.0598 15.7536 27.0598C16.1196 27.0598 16.4856 27.1675 16.8517 27.3828C17.1531 27.5335 17.6914 27.8672 18.4665 28.384L18.5634 28.4809C19.1017 28.89 19.6723 29.2237 20.2751 29.4821C20.8349 29.762 21.3517 29.9019 21.8254 29.9019C22.6866 29.9019 23.4079 29.579 23.9892 28.933C24.5275 28.3301 24.9904 27.5012 25.378 26.4462L24.3768 25.0251C23.9892 26.0156 23.6017 26.7476 23.2141 27.2213C22.8266 27.695 22.3636 27.9318 21.8254 27.9318C21.5455 27.9318 21.1902 27.8242 20.7596 27.6089C20.4151 27.4366 19.8876 27.1029 19.177 26.6077L19.0478 26.5108C18.5526 26.1447 17.9498 25.7895 17.2392 25.445H21.5993Z" fill="black"/>
<path d="M15.0431 9.94258V13.6244H11.5873V15.11H15.0431V18.8565H16.4318V15.11H19.8553V13.6244H16.4318V9.94258H15.0431Z" fill="white"/>
<path d="M11.2644 22.4414H20.2105L20.5981 21.2464H10.9414L11.2644 22.4414Z" fill="white"/>
</svg>
