<svg width="180" height="180" viewBox="0 0 180 180" fill="none" xmlns="http://www.w3.org/2000/svg">
<path d="M96.6139 97.7108C96.2505 100.739 95.8269 103.767 95.3426 106.794C94.8578 109.701 94.3127 111.82 93.7074 113.152C92.3749 115.696 90.4978 118.421 88.0757 121.328L69.3636 141.311C65.8513 144.944 63.1873 149.062 61.3704 153.665C59.796 157.54 59.0085 162.264 59.0085 167.835H155.293V131.865C155.293 120.601 153.658 109.822 150.388 99.5276C147.118 89.1118 142.455 79.4835 136.4 70.6421C130.465 62.0432 123.32 54.5948 114.963 48.2969C107.09 41.9991 98.2491 37.4574 88.4391 34.6718L58.4634 22.5L66.4571 37.5785L29.7599 115.333C28.6699 117.997 28.125 120.54 28.125 122.963C28.125 126.96 29.3966 130.593 31.94 133.863C34.3623 136.77 37.39 138.223 41.0235 138.223C43.5668 138.223 46.534 137.617 49.9252 136.406C53.5586 135.195 56.1624 133.863 57.7367 132.41L96.6139 97.7108ZM97.1589 89.8993L53.1952 127.323C52.5897 127.928 51.8025 128.534 50.8336 129.139C49.8647 129.624 48.7141 130.108 47.3818 130.593C45.5651 131.44 43.4457 131.865 41.0235 131.865C39.2068 131.865 37.6928 130.956 36.4817 129.139C35.2706 127.565 34.6651 125.506 34.6651 122.963C34.6651 121.388 34.8467 119.995 35.21 118.784L72.9973 38.6685L85.8954 40.4852C94.6159 42.9074 102.972 47.0858 110.966 53.0204C118.596 58.9551 125.318 66.0398 131.131 74.2753C136.824 82.269 141.123 91.2313 144.03 101.163C147.057 110.609 148.571 120.844 148.571 131.865V161.658H66.0938C66.4571 159.478 67.4257 156.632 69.0002 153.12C71.0595 149.487 72.7549 147.004 74.0869 145.671L92.9807 125.324C95.8871 122.176 98.4915 118.058 100.793 112.971C102.488 108.127 103.336 103.463 103.336 98.9826V89.8993H97.1589Z" fill="black"/>
<path d="M97.1589 89.8988L53.1952 127.323C52.5896 127.928 51.8024 128.534 50.8334 129.139C49.8645 129.624 48.7139 130.108 47.3817 130.593C45.565 131.44 43.4456 131.865 41.0233 131.865C39.2066 131.865 37.6927 130.956 36.4815 129.139C35.2704 127.565 34.6649 125.506 34.6649 122.963C34.6649 121.388 34.8465 119.995 35.2099 118.784L72.9967 38.6684L85.8954 40.4851C94.6153 42.9074 102.972 47.0857 110.966 53.0203C118.596 58.9551 125.318 66.0397 131.131 74.2753C136.823 82.269 141.123 91.2313 144.029 101.162C147.057 110.609 148.571 120.843 148.571 131.865V161.658H66.0937C66.4571 159.478 67.4257 156.632 69.0002 153.12C71.0595 149.487 72.7549 147.004 74.0869 145.671L92.9807 125.324C95.8871 122.176 98.4909 118.058 100.792 112.971C102.488 108.127 103.336 103.463 103.336 98.9826V89.8988H97.1589Z" fill="black"/>
</svg>
