<svg width="180" height="180" viewBox="0 0 180 180" fill="none" xmlns="http://www.w3.org/2000/svg">
<path d="M84.0521 73.5289L61.3434 118.219L73.152 129.119L50.625 156.551V170.176H134.193V156.551L111.302 129.119L123.293 118.219L100.766 73.5289C104.156 72.3178 106.942 70.1376 109.122 66.9887C111.06 63.7189 112.029 60.4485 112.029 57.1787C112.029 52.2129 110.152 48.0345 106.397 44.6434C102.764 41.1311 98.1011 39.375 92.4086 39.375C86.5952 39.375 81.8719 41.1311 78.2387 44.6434C74.3631 48.0345 72.4252 52.2129 72.4252 57.1787C72.4252 60.5694 73.5154 63.8398 75.6951 66.9887C77.8753 70.0166 80.6608 72.1963 84.0521 73.5289ZM90.4106 75.3452H94.4072L115.481 117.129L105.852 125.849H78.9654L69.1554 117.129L90.4106 75.3452ZM92.4086 45.3701C96.0424 45.3701 99.1913 46.5207 101.856 48.8218C104.52 51.1229 105.852 53.9085 105.852 57.1787C105.852 60.6909 104.52 63.5974 101.856 65.8986C99.1913 68.1997 96.0424 69.3501 92.4086 69.3501C88.533 69.3501 85.3239 68.1997 82.7803 65.8986C80.2373 63.4764 78.9654 60.5694 78.9654 57.1787C78.9654 53.9085 80.2373 51.1229 82.7803 48.8218C85.3239 46.5207 88.533 45.3701 92.4086 45.3701ZM79.3288 131.663H105.671L127.653 158.368V164.181H56.9835V158.368L79.3288 131.663Z" fill="black"/>
<path d="M90.4106 75.3452H94.4072L115.481 117.129L105.852 125.849H78.9655L69.1549 117.129L90.4106 75.3452ZM92.4086 45.37C96.0424 45.37 99.1913 46.5206 101.855 48.8218C104.52 51.1229 105.852 53.9084 105.852 57.1787C105.852 60.691 104.52 63.5974 101.855 65.8986C99.1913 68.1998 96.0424 69.3501 92.4086 69.3501C88.533 69.3501 85.3234 68.1998 82.7803 65.8986C80.2367 63.4765 78.9655 60.5695 78.9655 57.1787C78.9655 53.9084 80.2367 51.1229 82.7803 48.8218C85.3234 46.5206 88.533 45.37 92.4086 45.37ZM79.3288 131.663H105.671L127.653 158.368V164.181H56.9835V158.368L79.3288 131.663Z" fill="white"/>
</svg>
