<svg width="180" height="180" viewBox="0 0 180 180" fill="none" xmlns="http://www.w3.org/2000/svg">
<path d="M142.751 148.383L117.863 119.316V76.9871L133.85 64.0884V33.75H111.686V44.1051H99.3324V33.75H77.1688V44.1051H64.8152V33.75H42.6518V63.7251L59.0017 76.9871V119.316L33.75 148.383V168.185H142.751V148.383ZM127.855 61.9087L115.683 70.992H60.8186L48.6469 61.0003V39.7451H59.0017V50.4635H83.1639V39.7451H93.3373V50.4635H117.863V39.7451H127.855V61.9087ZM64.8152 76.9871H111.686V119.316H64.8152V76.9871ZM136.938 150.563V161.826H39.7451V150.744L61.0003 125.129H115.501L136.938 150.563Z" fill="black"/>
<path d="M127.854 61.9088L115.683 70.992H60.8186L48.6467 61.0003V39.745H59.0017V50.4635H83.1639V39.745H93.3373V50.4635H117.862V39.745H127.854V61.9088ZM64.8152 76.9871H111.685V119.316H64.8152V76.9871ZM136.938 150.563V161.826H39.7449V150.744L61.0003 125.129H115.501L136.938 150.563Z" fill="white"/>
</svg>
