<svg width="32" height="32" viewBox="0 0 32 32" fill="none" xmlns="http://www.w3.org/2000/svg">
<path d="M25.378 26.3792L20.9534 21.2117V13.6866L23.7955 11.3935V6H19.8553V7.84091H17.6591V6H13.7189V7.84091H11.5227V6H7.58254V11.3289L10.4892 13.6866V21.2117L6 26.3792V29.8995H25.378V26.3792ZM22.7297 11.006L20.5658 12.6208H10.8122L8.64833 10.8445V7.06579H10.4892V8.97129H14.7847V7.06579H16.5933V8.97129H20.9534V7.06579H22.7297V11.006ZM11.5227 13.6866H19.8553V21.2117H11.5227V13.6866ZM24.3445 26.7667V28.7691H7.06579V26.799L10.8445 22.2452H20.5335L24.3445 26.7667Z" fill="black"/>
<path d="M22.7296 11.006L20.5658 12.6208H10.8122L8.6483 10.8445V7.06578H10.4892V8.97128H14.7847V7.06578H16.5933V8.97128H20.9533V7.06578H22.7296V11.006ZM11.5227 13.6866H19.8552V21.2117H11.5227V13.6866ZM24.3445 26.7667V28.7691H7.06577V26.799L10.8445 22.2452H20.5335L24.3445 26.7667Z" fill="white"/>
</svg>
