<svg width="256" height="256" viewBox="0 0 256 256" fill="none" xmlns="http://www.w3.org/2000/svg">
<path d="M109.492 73.3387L111.427 71.7493L113.536 71.2278L113.543 71.2262L122.728 68.93L122.121 64.0046H111.471C111.406 63.4093 111.372 62.8005 111.372 62.183C111.372 52.9792 119.045 45.5 128.055 45.5C136.754 45.5 143.892 52.1509 144.678 60.6279C143.59 61.844 142.522 63.1113 141.473 64.4294C141.288 64.6495 141.011 65.0049 140.817 65.2522C140.725 65.3703 140.652 65.4638 140.617 65.5061L140.601 65.5257L140.586 65.5456C137.077 70.0341 134.1 74.6528 131.574 79.294L131.574 79.2943C117.851 104.521 117.371 130.538 117.882 142.838L117.981 145.235H120.379H135.731H138.455L138.222 142.52C137.425 133.27 136.441 107.203 153.146 82.765L153.149 82.7603C153.636 82.045 154.129 81.3479 154.627 80.6664C171.609 98.0239 180.715 120.309 179.278 142.533C178.252 158.16 171.896 175.619 162.104 188.809L160.896 190.437L154.86 191.93V191.889L151.757 192.659L146.249 194.026L146.851 198.953H175.011L175.013 198.963C185.836 198.963 194.611 207.739 194.611 218.562V232.342H61.5V218.562C61.5 207.739 70.2754 198.963 81.0985 198.963H97.1338H102.882L98.9624 194.758C86.4049 181.289 78.0369 160.703 76.8464 142.545C75.1896 117.048 87.414 91.4723 109.492 73.3387Z" fill="#2A2438" stroke="#2A2438" stroke-width="5"/>
</svg>
