<svg width="256" height="256" viewBox="0 0 256 256" fill="none" xmlns="http://www.w3.org/2000/svg">
<path d="M221.741 101.547V103.076C221.741 111.796 215.366 119.018 207.027 120.385L205.651 120.611L205.12 121.9L178.364 186.854L177.81 188.2L159.544 192.773L160.152 197.698H177.128C188.493 197.698 197.695 206.899 197.695 218.264V232.741H58.5331V218.264C58.5331 206.899 67.7342 197.698 79.0992 197.698V195.198V195.001L80.9334 194.246C78.8143 189.102 76.6951 183.958 74.5758 178.813C66.7612 159.843 58.9447 140.868 51.1203 121.9L50.5872 120.608L49.2072 120.385C40.8792 119.042 34.5 111.802 34.5 103.077C34.5 93.4005 42.3474 85.5423 52.0344 85.5423C61.7106 85.5423 69.5688 93.3897 69.5688 103.077C69.5688 105.462 69.0949 107.718 68.2359 109.798L67.6481 111.221L68.6543 112.386C69.6941 113.591 70.7373 114.802 71.7831 116.017C73.5168 118.031 75.2581 120.054 77.0049 122.066L80.1504 125.691L85.6524 147.724L90.5779 147.119V79.044V77.792L89.5754 77.042C85.3185 73.8578 82.5667 68.7572 82.5667 63.0344C82.5667 53.3582 90.4141 45.5 100.101 45.5C109.777 45.5 117.635 53.3474 117.635 63.0344C117.635 68.3414 115.278 73.1031 111.551 76.3105L110.279 77.405L110.81 78.9966C113.865 88.1511 116.914 97.3049 119.964 106.463C121.9 112.274 123.836 118.088 125.775 123.904L128.145 131.016L130.518 123.904C133.567 114.766 136.611 105.626 139.656 96.4839C141.597 90.6557 143.539 84.8265 145.482 78.9959L146.012 77.4076L144.745 76.3134C141.012 73.0896 138.657 68.3513 138.657 63.0344C138.657 53.3582 146.505 45.5 156.192 45.5C165.868 45.5 173.726 53.3474 173.726 63.0344C173.726 68.7572 170.974 73.8578 166.717 77.0421L165.715 77.792V79.044V131.111V137.147L169.982 132.879L188.443 114.419L189.763 113.099L188.872 111.458C187.515 108.958 186.737 106.115 186.737 103.066C186.737 93.39 194.584 85.5318 204.271 85.5318C213.436 85.5318 220.97 92.5719 221.741 101.547Z" fill="#2A2438" stroke="#2A2438" stroke-width="5"/>
</svg>
