<svg width="256" height="256" viewBox="0 0 256 256" fill="none" xmlns="http://www.w3.org/2000/svg">
<path d="M224.241 103.076C224.241 113.048 216.952 121.291 207.432 122.852L180.676 187.806H189.732L179.631 190.322L160.152 195.198H177.128C189.874 195.198 200.195 205.518 200.195 218.264V235.241H56.0331V218.264C56.0331 205.518 66.3535 195.198 79.0992 195.198H78.6219C68.6886 171.087 58.7554 146.965 48.8092 122.853C39.2887 121.318 32 113.049 32 103.077C32 92.0209 40.9657 83.0423 52.0344 83.0423C63.0902 83.0423 72.0688 92.008 72.0688 103.077C72.0688 105.799 71.527 108.379 70.5465 110.752C73.3201 113.965 76.0937 117.203 78.8929 120.428V110.288L82.4405 124.543L88.0779 147.119V79.044C83.2143 75.4059 80.0667 69.575 80.0667 63.0344C80.0667 51.9786 89.0324 43 100.101 43C111.157 43 120.135 51.9657 120.135 63.0344C120.135 69.0975 117.439 74.5416 113.182 78.2054C118.174 93.1698 123.154 108.135 128.146 123.113C133.139 108.149 138.118 93.184 143.111 78.2054C138.853 74.5287 136.157 69.1107 136.157 63.0344C136.157 51.9786 145.123 43 156.192 43C167.247 43 176.226 51.9657 176.226 63.0344C176.226 69.575 173.078 75.4059 168.215 79.044V131.111L186.675 112.651C185.127 109.8 184.237 106.549 184.237 103.066C184.237 92.0103 193.203 83.0318 204.271 83.0318C215.327 83.0318 224.306 91.9974 224.306 103.066L224.241 103.076Z" fill="#2A2438"/>
<path fill-rule="evenodd" clip-rule="evenodd" d="M219.29 102.373C218.928 94.3897 212.336 88.0318 204.271 88.0318C195.966 88.0318 189.237 94.7696 189.237 103.066C189.237 105.682 189.902 108.116 191.069 110.265C192.126 112.211 191.777 114.621 190.211 116.187L171.75 134.647C170.32 136.077 168.17 136.505 166.301 135.731C164.433 134.957 163.215 133.134 163.215 131.111V79.044C163.215 77.4679 163.958 75.9842 165.22 75.0402C168.87 72.3098 171.226 67.9393 171.226 63.0344C171.226 54.7292 164.488 48 156.192 48C147.886 48 141.157 54.7379 141.157 63.0344C141.157 67.5919 143.17 71.6506 146.379 74.4213C147.912 75.7456 148.495 77.8643 147.854 79.7864C145.911 85.6154 143.97 91.4436 142.029 97.2711C138.983 106.414 135.938 115.556 132.889 124.695C132.208 126.737 130.298 128.113 128.146 128.113C125.994 128.113 124.083 126.736 123.403 124.694C121.463 118.875 119.526 113.06 117.59 107.247C114.54 98.0913 111.492 88.9403 108.439 79.7878C107.797 77.8624 108.382 75.7397 109.92 74.4156C113.117 71.6645 115.135 67.5853 115.135 63.0344C115.135 54.7292 108.398 48 100.101 48C91.7959 48 85.0667 54.7379 85.0667 63.0344C85.0667 67.9393 87.4227 72.3098 91.0729 75.0401C92.3349 75.9841 93.0779 77.4679 93.0779 79.044V147.119C93.0779 149.644 91.1947 151.773 88.6882 152.081C86.1816 152.39 83.8387 150.78 83.2269 148.33L77.4557 125.217C76.5682 124.951 75.7524 124.437 75.1168 123.705C73.3675 121.69 71.619 119.659 69.8821 117.641C68.8372 116.427 67.7964 115.218 66.7621 114.02C65.5281 112.591 65.2044 110.589 65.9253 108.844C66.6628 107.058 67.0688 105.125 67.0688 103.077C67.0688 94.7715 60.3309 88.0423 52.0344 88.0423C43.7292 88.0423 37 94.7802 37 103.077C37 110.556 42.4697 116.766 49.6051 117.917C51.3203 118.193 52.7689 119.34 53.4314 120.946C61.2554 139.914 69.0714 158.887 76.8853 177.856C78.7676 182.425 80.6497 186.994 82.5318 191.562C83.497 192.474 84.0992 193.766 84.0992 195.198C84.0992 197.96 81.8607 200.198 79.0992 200.198C69.1149 200.198 61.0331 208.28 61.0331 218.264V230.241H195.195V218.264C195.195 208.28 187.113 200.198 177.128 200.198H160.152C157.627 200.198 155.498 198.316 155.189 195.81C154.88 193.304 156.488 190.961 158.937 190.348L175.983 186.08C176.005 186.021 176.028 185.961 176.053 185.902L202.809 120.948C203.469 119.345 204.912 118.198 206.623 117.918C213.78 116.744 219.241 110.545 219.241 103.076C219.241 102.838 219.258 102.603 219.29 102.373Z" fill="#DBD8E3"/>
</svg>
