<svg width="180" height="180" viewBox="0 0 180 180" fill="none" xmlns="http://www.w3.org/2000/svg">
<path d="M165.716 167.67H55.9502C55.9502 159.263 56.4238 153.402 57.3711 150.086C58.437 146.77 60.2724 143.218 62.8774 139.429C69.6268 131.969 76.3757 124.509 83.1251 117.049C85.3751 113.497 87.0919 110.656 88.2759 108.524C89.46 106.393 90.585 103.728 91.6509 100.532C90.9405 100.532 90.2301 100.472 89.5196 100.354C85.3751 103.669 81.2897 106.926 77.2639 110.123C75.7249 110.951 72.9422 112.136 68.9164 113.675C65.0087 115.096 62.1073 116.576 60.2128 118.115C58.437 119.654 56.7793 121.904 55.2398 124.865C53.7005 127.825 52.102 130.075 50.4442 131.614C48.9049 133.153 47.6023 134.397 46.5367 135.344C45.5894 136.291 44.4053 136.765 42.9843 136.765C41.6819 136.765 40.2609 136.055 38.7217 134.634C37.3007 133.094 36.0574 132.325 34.9917 132.325C34.2813 132.325 33.5116 132.562 32.6827 133.035C31.8539 133.39 31.025 133.568 30.1961 133.568C27.8279 133.568 25.3413 132.265 22.7363 129.66C20.1313 127.055 18.4143 124.095 17.5854 120.779C17.3486 119.24 17.171 118.115 17.0526 117.405C16.9342 116.695 16.875 116.043 16.875 115.451C16.875 110.36 19.0064 103.906 23.2692 96.0913C27.6504 88.2759 30.6698 82.0001 32.3275 77.2639C34.1036 72.4089 35.7022 68.0282 37.1231 64.1205C38.6624 60.2128 40.6162 56.7197 42.9843 53.6412C45.471 50.4442 46.9511 48.372 47.4248 47.4247C47.8984 46.4775 48.2536 45.1749 48.4904 43.5172C48.8456 41.0306 48.4313 38.7216 47.2471 36.5902C46.0631 34.3405 45.1158 32.5643 44.4053 31.2618C43.8132 29.9593 43.162 28.4791 42.4515 26.8214C41.8595 25.1637 41.5635 23.9796 41.5635 23.2691C41.5635 21.9666 42.0963 21.0786 43.162 20.6049C44.2277 20.1313 45.471 20.2497 46.8919 20.9602C48.076 21.789 49.3193 22.5587 50.6219 23.2691C51.9243 23.8612 53.8189 25.2229 56.3057 27.3543C58.7919 29.3672 60.6274 30.7882 61.8114 31.617C62.9955 32.4459 64.1796 33.334 65.3636 34.2812C66.6664 35.1101 67.9691 35.3469 69.2713 34.9917C70.6922 34.6364 71.7581 33.5708 72.4686 31.7946C73.179 29.308 73.6526 27.7095 73.8894 26.999C74.1262 26.1701 74.304 24.69 74.4221 22.5587C74.6589 20.4273 75.1916 18.9472 76.0208 18.1183C76.8499 17.2894 77.6194 16.875 78.3298 16.875C79.7507 16.875 81.4674 18.9472 83.4806 23.0915C85.6119 27.1175 86.9141 29.4856 87.3883 30.1961C87.9801 30.9066 88.8683 32.2091 90.0523 34.1036C91.3545 35.9982 92.4795 37.3007 93.4267 38.0112C94.374 38.6032 95.3809 39.0176 96.4462 39.2545C97.6303 39.4913 98.6372 39.6097 99.4658 39.6097C101.716 39.4913 103.492 39.4321 104.794 39.4321C105.387 39.4321 106.511 39.5504 108.169 39.7873C111.721 40.6162 114.681 41.6226 117.049 42.8068C119.536 43.9908 122.556 45.8262 126.108 48.3128C129.779 50.7994 132.739 53.3452 134.989 55.9502C137.357 58.437 140.14 61.9892 143.337 66.6073C146.652 71.1068 149.198 75.1326 150.974 78.6848C152.75 82.2369 154.882 87.3287 157.368 93.96C159.855 100.591 161.631 106.215 162.697 110.833C163.881 115.333 164.769 120.365 165.361 125.93C166.071 131.377 166.545 135.581 166.782 138.541C167.019 141.501 167.137 144.639 167.137 147.954C167.137 150.915 167.019 153.757 166.782 156.48C166.545 159.322 166.189 163.052 165.716 167.67ZM51.1547 76.5534C51.8651 75.9617 52.5164 75.3694 53.1084 74.7776C53.8189 74.0672 54.4701 73.3562 55.0622 72.6457C55.6543 71.9353 56.7197 71.1658 58.2592 70.3373C59.7988 69.39 60.8051 68.6199 61.2788 68.0282C62.4628 67.0809 63.6469 66.1337 64.8309 65.1864C65.1864 64.7128 65.0087 64.0614 64.2983 63.2323C62.1669 60.9829 60.2724 59.8579 58.6142 59.8579C57.9037 59.8579 57.1343 60.0356 56.3057 60.3906C55.595 60.7461 54.6477 61.2197 53.4637 61.8114C52.3979 62.4037 51.5099 63.0546 50.7994 63.7656C50.2073 64.476 49.497 65.6004 48.6681 67.14C47.8392 68.5609 47.188 70.3963 46.7143 72.6457C46.2407 74.8957 45.471 77.2048 44.4053 79.5729C44.7605 79.6916 45.1158 79.7507 45.471 79.7507C46.8919 79.1584 48.7865 78.093 51.1547 76.5534ZM27.3543 116.695C28.6568 116.221 29.6633 115.747 30.3738 115.274C31.0842 114.681 31.7946 113.616 32.5051 112.076C33.334 110.419 33.7484 108.406 33.7484 106.037C33.7484 105.209 32.9195 105.09 31.2618 105.683C29.7224 106.274 28.5384 107.221 27.7095 108.524C26.8806 109.708 26.3478 110.833 26.111 111.899C25.9926 112.965 25.9333 113.971 25.9333 114.918C25.9333 115.747 25.9926 116.339 26.111 116.695C26.3478 116.931 26.7622 116.931 27.3543 116.695ZM43.8725 127.884C45.0565 127.174 46.063 126.049 46.8919 124.509C47.8392 122.852 48.3128 121.431 48.3128 120.247C48.3128 119.536 48.076 118.944 47.6023 118.47C47.2471 117.997 46.7734 117.76 46.1814 117.76C45.5894 117.76 44.8197 118.411 43.8725 119.714C43.0436 120.898 42.5107 121.727 42.2739 122.2C41.5635 122.911 40.853 123.799 40.1426 124.865C39.5505 125.812 39.2545 126.759 39.2545 127.707C39.2545 128.417 39.7873 128.772 40.853 128.772C41.9187 128.772 42.9252 128.476 43.8725 127.884ZM62.1669 43.6948C61.101 44.0501 59.6801 45.3526 57.9043 47.6023C56.1279 49.8521 55.2398 51.4506 55.2398 52.3979C55.2398 52.7532 55.4174 52.9308 55.7727 52.9308C56.1279 52.9308 56.7197 52.7532 57.5488 52.3979L65.1864 47.7799C66.015 47.4247 66.8441 47.0103 67.6727 46.5366C68.5018 46.063 69.0936 45.1157 69.4491 43.6948C69.0936 43.5764 68.7386 43.3988 68.3831 43.162C67.5546 43.162 66.9623 43.162 66.6073 43.162C65.0678 43.162 63.5878 43.3396 62.1669 43.6948ZM98.2226 74.9548C97.6303 75.0735 97.0976 75.1916 96.624 75.3103C96.2691 76.0208 95.7358 77.8562 95.0254 80.8161C94.4336 83.7765 93.6045 86.5592 92.5391 89.1641C91.5913 91.6509 91.1182 93.1899 91.1182 93.7822C91.1182 94.1372 91.2954 94.2559 91.6509 94.1372C92.0059 94.0191 92.5391 93.6636 93.2496 93.0718C93.96 92.3614 94.9072 91.3545 96.0913 90.0523C97.2754 88.6314 98.0449 87.1509 98.4004 85.6119C98.7553 84.0724 99.0512 82.9479 99.288 82.2369C99.5248 81.4084 99.6435 80.6389 99.6435 79.9284C99.6435 78.6257 99.1699 76.968 98.2226 74.9548ZM92.5391 43.6948C94.5518 44.7605 96.3872 45.5302 98.0449 46.0038C99.7026 46.4775 101.597 47.1879 103.728 48.1352C105.86 48.9641 108.228 50.4442 110.833 52.5755C113.556 54.7069 115.984 56.6016 118.115 58.2592C120.365 59.9169 122.437 61.9892 124.332 64.476C126.345 66.8441 128.536 70.1004 130.904 74.2444C133.272 78.3889 135.226 82.4147 136.765 86.3224C138.423 90.2301 139.962 94.6108 141.383 99.4658C142.922 104.202 144.165 109.649 145.113 115.806C146.06 121.963 146.771 126.523 147.244 129.482C147.718 132.325 148.014 134.574 148.132 136.232C148.251 137.89 148.31 139.844 148.31 142.093C148.31 143.869 148.251 146.889 148.132 151.152C148.014 155.414 147.955 158.257 147.955 159.677H156.658V151.507V148.665C156.658 143.218 156.302 136.824 155.592 129.482C154.882 122.023 154.112 116.221 153.283 112.076C152.572 107.932 151.152 102.722 149.02 96.4462C147.007 90.0523 145.231 85.1383 143.692 81.7042C142.271 78.2707 139.962 74.304 136.765 69.804C133.687 65.3046 131.081 61.8705 128.95 59.5024C126.937 57.0161 124.332 54.8254 121.135 52.9308C118.175 50.9178 115.333 49.1417 112.609 47.6023C110.004 45.9446 107.755 44.9381 105.86 44.5829C104.084 44.1092 102.485 43.8724 101.064 43.8724C99.6435 43.8724 98.5185 43.8132 97.6899 43.6948H92.5391Z" fill="#2D132C"/>
<path d="M51.1549 76.5535C51.8654 75.9611 52.5166 75.3694 53.1087 74.7771C53.8191 74.0666 54.4704 73.3562 55.0624 72.6458C55.6545 71.9353 56.7203 71.1658 58.2593 70.3367C59.7988 69.3895 60.8051 68.62 61.2788 68.0276C62.4628 67.0804 63.6469 66.1331 64.8315 65.1859C65.1864 64.7123 65.0087 64.0609 64.2983 63.2323C62.1669 60.9823 60.2724 59.8573 58.6148 59.8573C57.9043 59.8573 57.1348 60.0351 56.3057 60.3906C55.5953 60.7455 54.648 61.2191 53.4639 61.8115C52.3982 62.4032 51.5101 63.0546 50.7997 63.765C50.2076 64.4755 49.4972 65.6005 48.6683 67.14C47.8394 68.5609 47.1882 70.3958 46.7146 72.6458C46.2409 74.8958 45.4712 77.2048 44.4055 79.573C44.7608 79.6911 45.116 79.7501 45.4713 79.7501C46.8921 79.1584 48.7867 78.0925 51.1549 76.5535ZM27.3545 116.694C28.657 116.22 29.6636 115.747 30.374 115.273C31.0844 114.681 31.7949 113.615 32.5053 112.076C33.3342 110.419 33.7486 108.406 33.7486 106.037C33.7486 105.208 32.9198 105.09 31.262 105.682C29.7227 106.274 28.5386 107.222 27.7098 108.524C26.8809 109.708 26.348 110.833 26.1112 111.899C25.9928 112.964 25.9336 113.971 25.9336 114.918C25.9336 115.747 25.9928 116.339 26.1112 116.694C26.348 116.931 26.7625 116.931 27.3545 116.694ZM43.8727 127.884C45.0568 127.173 46.0632 126.048 46.8921 124.509C47.8394 122.852 48.3131 121.431 48.3131 120.247C48.3131 119.536 48.0762 118.944 47.6026 118.47C47.2474 117.997 46.7737 117.76 46.1816 117.76C45.5896 117.76 44.82 118.411 43.8727 119.714C43.0438 120.898 42.5109 121.727 42.2741 122.2C41.5637 122.911 40.8533 123.799 40.1428 124.864C39.5507 125.812 39.2547 126.759 39.2547 127.707C39.2547 128.417 39.7876 128.772 40.8533 128.772C41.919 128.772 42.9254 128.476 43.8727 127.884ZM62.1669 43.6946C61.1016 44.0498 59.6807 45.3524 57.9043 47.6021C56.1281 49.8519 55.24 51.4505 55.24 52.3977C55.24 52.753 55.4177 52.9306 55.7729 52.9306C56.1281 52.9306 56.7203 52.753 57.5488 52.3977L65.1864 47.7798C66.0156 47.4245 66.8441 47.0101 67.6733 46.5364C68.5018 46.0628 69.0941 45.1156 69.4491 43.6946C69.0941 43.5762 68.7386 43.3986 68.3837 43.1618C67.5546 43.1618 66.9628 43.1618 66.6073 43.1618C65.0683 43.1618 63.5878 43.3394 62.1669 43.6946ZM98.2226 74.9548C97.6309 75.073 97.0976 75.1916 96.624 75.3098C96.2691 76.0208 95.7364 77.8556 95.0259 80.8161C94.4336 83.7765 93.6051 86.5592 92.5391 89.1641C91.5919 91.6504 91.1182 93.19 91.1182 93.7817C91.1182 94.1372 91.296 94.2553 91.6509 94.1372C92.0064 94.0185 92.5391 93.6636 93.2496 93.0713C93.96 92.3608 94.9072 91.3545 96.0913 90.0523C97.2754 88.6309 98.0449 87.151 98.4004 85.612C98.7559 84.0724 99.0518 82.9474 99.2886 82.237C99.5254 81.4084 99.6435 80.6383 99.6435 79.9279C99.6435 78.6257 99.1699 76.968 98.2226 74.9548ZM92.5391 43.6946C94.5523 44.7603 96.3872 45.5299 98.0454 46.0036C99.7031 46.4773 101.598 47.1877 103.729 48.135C105.86 48.9638 108.228 50.444 110.833 52.5754C113.557 54.7067 115.984 56.601 118.115 58.2593C120.365 59.917 122.438 61.9892 124.332 64.4755C126.345 66.8436 128.536 70.0999 130.904 74.2444C133.272 78.3889 135.226 82.4147 136.765 86.3224C138.423 90.2295 139.962 94.6108 141.383 99.4658C142.922 104.202 144.166 109.649 145.113 115.806C146.06 121.964 146.771 126.522 147.245 129.482C147.718 132.324 148.014 134.574 148.133 136.232C148.251 137.89 148.31 139.843 148.31 142.093C148.31 143.87 148.251 146.889 148.133 151.152C148.014 155.414 147.955 158.256 147.955 159.677H156.658V151.507V148.665C156.658 143.218 156.303 136.824 155.593 129.482C154.882 122.023 154.112 116.22 153.284 112.076C152.573 107.932 151.152 102.722 149.021 96.4463C147.008 90.0523 145.231 85.1383 143.692 81.7043C142.271 78.2702 139.962 74.3035 136.765 69.804C133.687 65.3046 131.082 61.8705 128.95 59.5024C126.937 57.0156 124.332 54.8251 121.135 52.9306C118.175 50.9176 115.333 49.1415 112.61 47.6021C110.005 45.9444 107.755 44.9379 105.86 44.5827C104.084 44.1091 102.485 43.8722 101.064 43.8722C99.6435 43.8722 98.5191 43.813 97.6899 43.6946H92.5391Z" fill="#C70039"/>
</svg>
