<svg width="180" height="180" viewBox="0 0 180 180" fill="none" xmlns="http://www.w3.org/2000/svg">
<path d="M165.716 167.67H55.9502C55.9502 159.263 56.4238 153.402 57.3711 150.086C58.437 146.77 60.2724 143.218 62.8774 139.429C69.6268 131.969 76.3757 124.509 83.1251 117.049C85.3751 113.497 87.0919 110.656 88.2759 108.524C89.46 106.393 90.585 103.728 91.6509 100.532C90.9405 100.532 90.2301 100.472 89.5196 100.354C85.3751 103.669 81.2897 106.926 77.2639 110.123C75.7249 110.951 72.9422 112.136 68.9164 113.675C65.0087 115.096 62.1073 116.576 60.2128 118.115C58.437 119.655 56.7793 121.904 55.2398 124.865C53.7005 127.825 52.102 130.075 50.4442 131.614C48.9049 133.153 47.6023 134.397 46.5367 135.344C45.5894 136.291 44.4053 136.765 42.9843 136.765C41.6819 136.765 40.2609 136.055 38.7217 134.634C37.3007 133.094 36.0574 132.325 34.9917 132.325C34.2813 132.325 33.5116 132.562 32.6827 133.035C31.8539 133.39 31.025 133.568 30.1961 133.568C27.8279 133.568 25.3413 132.265 22.7363 129.66C20.1313 127.055 18.4143 124.095 17.5854 120.779C17.3486 119.24 17.171 118.115 17.0526 117.405C16.9342 116.695 16.875 116.043 16.875 115.451C16.875 110.36 19.0064 103.906 23.2692 96.0913C27.6504 88.2759 30.6698 82.0001 32.3275 77.2639C34.1036 72.4089 35.7022 68.0282 37.1231 64.1205C38.6624 60.2128 40.6162 56.7197 42.9843 53.6412C45.471 50.4442 46.9511 48.372 47.4248 47.4247C47.8984 46.4775 48.2536 45.1749 48.4904 43.5172C48.8456 41.0306 48.4313 38.7216 47.2471 36.5902C46.0631 34.3405 45.1158 32.5643 44.4053 31.2618C43.8132 29.9593 43.162 28.4791 42.4515 26.8215C41.8595 25.1637 41.5635 23.9796 41.5635 23.2691C41.5635 21.9666 42.0963 21.0786 43.162 20.6049C44.2277 20.1313 45.471 20.2497 46.8919 20.9602C48.076 21.789 49.3193 22.5587 50.6219 23.2691C51.9243 23.8612 53.8189 25.2229 56.3057 27.3543C58.7919 29.3672 60.6274 30.7882 61.8114 31.617C62.9955 32.4459 64.1796 33.334 65.3636 34.2812C66.6664 35.1101 67.9691 35.3469 69.2713 34.9917C70.6922 34.6365 71.7581 33.5708 72.4686 31.7946C73.179 29.308 73.6526 27.7095 73.8894 26.999C74.1262 26.1701 74.304 24.69 74.4221 22.5587C74.6589 20.4273 75.1916 18.9472 76.0208 18.1183C76.8499 17.2894 77.6194 16.875 78.3298 16.875C79.7507 16.875 81.4674 18.9472 83.4806 23.0915C85.6119 27.1175 86.9141 29.4856 87.3883 30.1961C87.9801 30.9066 88.8683 32.2091 90.0523 34.1036C91.3545 35.9982 92.4795 37.3007 93.4267 38.0112C94.374 38.6032 95.3809 39.0176 96.4462 39.2545C97.6303 39.4913 98.6372 39.6097 99.4658 39.6097C101.716 39.4913 103.492 39.4321 104.794 39.4321C105.387 39.4321 106.511 39.5505 108.169 39.7873C111.721 40.6162 114.681 41.6226 117.049 42.8068C119.536 43.9909 122.556 45.8262 126.108 48.3128C129.779 50.7994 132.739 53.3452 134.989 55.9502C137.357 58.437 140.14 61.9892 143.337 66.6073C146.652 71.1068 149.198 75.1326 150.974 78.6848C152.75 82.2375 154.882 87.3287 157.368 93.96C159.855 100.591 161.631 106.215 162.697 110.833C163.881 115.333 164.769 120.365 165.361 125.93C166.071 131.377 166.545 135.581 166.782 138.541C167.019 141.501 167.137 144.639 167.137 147.954C167.137 150.915 167.019 153.757 166.782 156.48C166.545 159.322 166.189 163.052 165.716 167.67ZM156.658 128.239C155.237 117.583 153.165 108.406 150.441 100.709C147.718 92.8941 145.468 87.0919 143.692 83.3029C141.916 79.5139 139.666 75.7839 136.942 72.1131C134.337 68.4427 131.969 65.0677 129.838 61.9892C127.47 59.1474 125.22 57.1933 123.089 56.1279C120.957 54.9438 118.411 53.1676 115.451 50.7994C112.609 48.4312 110.182 47.2471 108.169 47.2471C106.511 47.2471 104.853 47.3655 103.196 47.6023C101.538 47.8392 99.6435 48.076 97.5122 48.3128C96.8018 48.3128 95.6768 48.6681 94.1372 49.3785C92.5982 50.089 91.5323 50.4442 90.9405 50.4442C90.2301 50.4442 89.46 49.9114 88.6314 48.8456C87.8023 47.6615 86.9147 45.4117 85.9674 42.0963C85.0196 38.7808 83.8356 36.4126 82.4147 34.9917C80.9938 33.5708 79.9875 32.8603 79.3952 32.8603C78.5666 32.8603 77.4416 34.0444 76.0208 36.4126C74.5999 38.6624 73.4749 40.1425 72.6463 40.853C71.9353 41.5635 70.929 42.8068 69.6268 44.5829C68.4428 46.2406 67.3178 47.4839 66.2518 48.3128C65.3046 49.0233 64.4164 49.7337 63.5878 50.4442C62.7587 51.0362 61.9301 51.5099 61.101 51.8651C60.3906 52.2204 59.0287 52.4572 57.0161 52.5756C55.003 52.694 52.9308 53.4637 50.7994 54.8846C48.668 56.3057 46.5959 59.8579 44.5829 65.5414C42.6883 71.1068 41.2082 75.3103 40.1426 78.1521C39.1953 80.8757 36.4126 86.3224 31.7946 94.4927C27.1766 102.544 24.8677 108.702 24.8677 112.965C24.8677 114.859 25.1045 116.695 25.5781 118.47C26.1702 120.247 26.8215 121.49 27.5319 122.2C28.2423 122.793 29.1896 123.207 30.3738 123.444C31.6763 123.681 32.9788 123.444 34.2813 122.734C35.5838 121.904 36.5902 121.253 37.3007 120.779C37.7743 119.951 38.84 118.944 40.4978 117.76C42.1555 116.576 43.5764 115.984 44.7605 115.984C45.5894 115.984 46.2998 116.339 46.8919 117.049C47.2471 117.523 46.8919 118.767 45.8262 120.779C44.7605 122.793 44.2276 124.213 44.2276 125.043C44.8197 125.043 45.471 124.983 46.1814 124.865C51.3915 116.576 54.6477 111.899 55.9502 110.833C57.3711 109.649 60.2128 108.228 64.476 106.571C68.8568 104.912 71.9353 103.492 73.7117 102.307C75.6062 101.123 77.4416 99.8213 79.218 98.4004C81.1125 96.9795 82.9479 95.499 84.7238 93.96C86.6183 92.4204 89.7564 88.6314 94.1372 82.5924C98.5185 76.5534 101.123 73.5339 101.953 73.5339C102.544 73.5339 102.841 74.1853 102.841 75.4881C102.841 80.2243 102.604 84.0133 102.13 86.8551C101.775 89.6968 101.005 93.5454 99.8213 98.4004C98.7553 103.255 97.749 107.695 96.8017 111.722C95.499 115.747 93.4268 119.477 90.585 122.911C83.9543 130.016 77.3826 137.12 70.8699 144.225C69.3304 146.356 68.1463 148.429 67.3177 150.441C66.6073 152.573 65.8373 155.474 65.0087 159.144H157.723V147.244V144.935C157.723 140.435 157.368 134.871 156.658 128.239ZM47.9576 78.6848C47.9576 75.2513 48.0168 73.0012 48.1352 71.9353C48.2536 70.7512 48.7272 69.0936 49.5561 66.9622C50.0298 65.1864 50.4442 63.9427 50.7994 63.2323C51.1546 62.5219 52.0427 61.6337 53.4637 60.5683C55.0029 59.5024 57.1933 58.9697 60.0356 58.9697C62.9955 58.9697 64.476 60.0356 64.476 62.1669C64.476 63.1142 64.0024 64.0024 63.0551 64.8309C62.1073 65.6601 60.9829 66.5477 59.6801 67.4949C58.4961 68.9164 57.5488 70.0408 56.8384 70.8699C56.1279 71.5804 55.4766 72.5276 54.8846 73.7117C54.4109 74.8957 53.4636 76.0207 52.0427 77.0861C50.6218 78.1521 49.6745 78.8034 49.2009 79.0403C48.7273 78.9216 48.3128 78.8034 47.9576 78.6848ZM30.9066 108.524C31.3802 107.695 32.2683 106.807 33.5708 105.86C34.8733 104.912 35.8798 104.439 36.5902 104.439C37.0639 104.439 37.3007 104.735 37.3007 105.327C37.3007 106.156 37.2415 106.985 37.1231 107.814C37.1231 108.642 36.7679 109.767 36.0574 111.188C35.4653 112.609 34.8733 113.616 34.2813 114.208C33.6892 114.681 32.5643 115.274 30.9066 115.984C30.4329 116.221 30.0777 116.162 29.8408 115.806C29.604 115.451 29.4857 114.859 29.4857 114.03C29.4857 112.017 29.9593 110.182 30.9066 108.524ZM64.476 39.4321C62.5809 38.248 60.6864 37.0639 58.7919 35.8798C57.0161 34.5773 55.2398 33.5708 53.4637 32.8603C53.2268 33.4524 52.99 33.9852 52.7532 34.4589C54.0557 40.7346 54.707 44.4645 54.707 45.6486C54.707 46.3591 55.1213 46.7143 55.9502 46.7143C56.6606 46.7143 57.3711 46.5959 58.0815 46.3591C58.9106 46.0038 59.8579 45.4117 60.9233 44.5829C62.1073 43.754 63.1142 42.8068 63.9428 41.741C64.7719 40.557 64.9496 39.7873 64.476 39.4321Z" fill="#2D132C"/>
<path d="M156.658 128.239C155.236 117.583 153.165 108.406 150.441 100.709C147.718 92.8941 145.468 87.0924 143.692 83.3029C141.916 79.5139 139.666 75.7839 136.942 72.1131C134.337 68.4427 131.969 65.0677 129.838 61.9892C127.47 59.1474 125.22 57.1939 123.088 56.128C120.957 54.9439 118.411 53.1677 115.451 50.7995C112.609 48.4314 110.182 47.2472 108.169 47.2472C106.511 47.2472 104.853 47.3656 103.196 47.6025C101.538 47.8393 99.6435 48.0761 97.5122 48.3129C96.8017 48.3129 95.6767 48.6682 94.1372 49.3786C92.5982 50.0891 91.5322 50.4443 90.9405 50.4443C90.2301 50.4443 89.46 49.9115 88.6314 48.8457C87.8023 47.6617 86.9141 45.4119 85.9669 42.0964C85.0196 38.7809 83.8356 36.4128 82.4147 34.9918C80.9938 33.5709 79.9875 32.8605 79.3952 32.8605C78.5666 32.8605 77.4416 34.0445 76.0207 36.4128C74.5999 38.6625 73.4749 40.1426 72.6457 40.8531C71.9353 41.5636 70.929 42.8069 69.6262 44.583C68.4422 46.2408 67.3177 47.484 66.2518 48.3129C65.3046 49.0234 64.4164 49.7338 63.5878 50.4443C62.7587 51.0363 61.9301 51.51 61.101 51.8652C60.3906 52.2205 59.0287 52.4573 57.0156 52.5757C55.0029 52.6941 52.9307 53.4638 50.7993 54.8847C48.6679 56.3057 46.5957 59.8579 44.5828 65.5414C42.6882 71.1067 41.2081 75.3103 40.1424 78.152C39.1952 80.8757 36.4125 86.3224 31.7945 94.4927C27.1765 102.545 24.8676 108.702 24.8676 112.965C24.8676 114.859 25.1044 116.695 25.578 118.471C26.1701 120.247 26.8213 121.49 27.5318 122.201C28.2422 122.793 29.1895 123.207 30.3736 123.444C31.6761 123.681 32.9786 123.444 34.2812 122.734C35.5836 121.904 36.5901 121.254 37.3006 120.78C37.7742 119.951 38.8399 118.945 40.4976 117.76C42.1554 116.576 43.5763 115.984 44.7604 115.984C45.5893 115.984 46.2997 116.34 46.8917 117.05C47.247 117.524 46.8918 118.767 45.8261 120.78C44.7604 122.793 44.2275 124.213 44.2275 125.043C44.8196 125.043 45.4709 124.984 46.1813 124.865C51.3913 116.576 54.6476 111.899 55.9501 110.833C57.3711 109.649 60.2128 108.228 64.4754 106.571C68.8567 104.913 71.9353 103.492 73.7117 102.308C75.6062 101.123 77.4416 99.8212 79.2174 98.4004C81.1125 96.9795 82.9474 95.499 84.7237 93.96C86.6182 92.4204 89.7559 88.6314 94.1372 82.5924C98.5185 76.5534 101.123 73.5345 101.953 73.5345C102.544 73.5345 102.84 74.1853 102.84 75.4881C102.84 80.2243 102.603 84.0133 102.13 86.8551C101.775 89.6974 101.005 93.5454 99.8207 98.4004C98.7553 103.255 97.749 107.696 96.8017 111.721C95.499 115.747 93.4267 119.477 90.585 122.911C83.9542 130.016 77.3826 137.12 70.8699 144.225C69.3304 146.356 68.1463 148.429 67.3177 150.441C66.6067 152.572 65.8372 155.474 65.0087 159.145H157.723V147.244V144.935C157.723 140.436 157.368 134.871 156.658 128.239ZM47.9575 78.6853C47.9575 75.2512 48.0166 73.0012 48.135 71.9359C48.2535 70.7518 48.7271 69.0941 49.556 66.9622C50.0296 65.1864 50.444 63.9427 50.7993 63.2323C51.1545 62.5219 52.0426 61.6342 53.4635 60.5683C55.0028 59.5024 57.1933 58.9697 60.0351 58.9697C62.9955 58.9697 64.4754 60.0356 64.4754 62.1669C64.4754 63.1142 64.0018 64.0024 63.0546 64.8309C62.1073 65.6601 60.9823 66.5482 59.6801 67.4955C58.4961 68.9164 57.5488 70.0414 56.8384 70.8699C56.1278 71.5804 55.4765 72.5276 54.8844 73.7117C54.4108 74.8957 53.4635 76.0207 52.0426 77.0867C50.6217 78.1521 49.6744 78.8034 49.2008 79.0402C48.7271 78.9221 48.3127 78.8034 47.9575 78.6853ZM30.9064 108.524C31.3801 107.696 32.2682 106.807 33.5707 105.86C34.8732 104.913 35.8797 104.439 36.5901 104.439C37.0637 104.439 37.3006 104.735 37.3006 105.327C37.3006 106.156 37.2414 106.985 37.123 107.814C37.123 108.643 36.7677 109.767 36.0573 111.189C35.4652 112.61 34.8732 113.616 34.2812 114.208C33.6891 114.681 32.5642 115.274 30.9064 115.984C30.4328 116.221 30.0775 116.162 29.8407 115.806C29.6039 115.451 29.4855 114.859 29.4855 114.031C29.4855 112.017 29.9592 110.182 30.9064 108.524ZM64.4754 39.4322C62.5809 38.2481 60.6864 37.064 58.7919 35.8799C57.0156 34.5774 55.2396 33.5709 53.4635 32.8605C53.2267 33.4525 52.9899 33.9853 52.753 34.459C54.0556 40.7347 54.7068 44.4646 54.7068 45.6487C54.7068 46.3592 55.1212 46.7144 55.9501 46.7144C56.6606 46.7144 57.3711 46.596 58.0815 46.3592C58.9106 46.0039 59.8579 45.4119 60.9232 44.583C62.1073 43.7542 63.1142 42.8069 63.9427 41.7412C64.7719 40.5571 64.9491 39.7874 64.4754 39.4322Z" fill="#FF8F8B"/>
</svg>
