<svg width="180" height="180" viewBox="0 0 180 180" fill="none" xmlns="http://www.w3.org/2000/svg">
<path d="M102.544 23.802C103.254 25.5781 103.61 27.2951 103.61 28.9528C103.61 30.8473 103.077 32.5051 102.011 33.926C100.59 34.9917 99.1693 36.0574 97.7484 37.1231C97.2748 37.9519 97.038 39.0176 97.038 40.3201C97.038 42.3331 97.9852 46.5366 99.8797 52.9308C101.893 59.2065 103.017 62.9364 103.254 64.1205C103.491 65.3046 103.728 70.1595 103.965 78.6848C104.32 87.2106 104.971 91.4732 105.919 91.4732C106.274 91.4732 107.044 90.2891 108.228 87.921C109.53 85.4342 110.951 81.1125 112.49 74.9548C114.029 68.7977 115.095 64.89 115.688 63.2323C116.279 61.4565 117.7 58.9106 119.95 55.595C122.318 52.1611 123.502 49.4377 123.502 47.4247C123.502 46.2406 123.325 45.2342 122.97 44.4053C122.614 43.458 121.845 42.4515 120.661 41.3858C119.477 40.3202 118.589 39.0768 117.996 37.6559C117.404 36.1166 117.109 34.4589 117.109 32.6827C117.109 30.7882 117.819 28.5976 119.24 26.111C120.779 23.5059 123.739 22.2034 128.121 22.2034C132.383 22.2034 135.284 23.5652 136.824 26.2886C138.481 28.8936 139.31 31.1434 139.31 33.0379C139.31 34.2221 139.192 35.1693 138.955 35.8798C138.837 36.4718 138.481 37.4191 137.89 38.7216C137.415 40.0241 136.409 41.149 134.87 42.0963C133.449 42.9252 132.383 44.2869 131.673 46.1814C130.962 47.9576 130.43 49.6153 130.074 51.1547C129.837 52.5756 129.719 54.4109 129.719 56.6606C129.719 58.0815 129.719 59.562 129.719 61.101C129.719 62.6406 129.778 64.2392 129.896 65.8969C129.896 69.5672 129.837 73.1194 129.719 76.5534C129.601 79.9875 129.482 83.3029 129.364 86.5001C129.364 92.1836 129.956 95.0254 131.14 95.0254C131.851 95.0254 132.798 94.1372 133.982 92.3614C135.284 90.585 136.765 87.8619 138.422 84.1911C140.198 80.4021 141.501 77.8562 142.33 76.5534C143.159 75.1326 145.29 72.5867 148.724 68.9164C152.276 65.2455 153.934 62.9955 153.697 62.1669C153.46 61.2197 152.809 60.1537 151.743 58.9697C150.796 57.7856 150.145 56.7793 149.789 55.9502C149.552 55.0029 149.316 54.1149 149.079 53.286C148.961 52.3387 148.902 51.4506 148.902 50.6218C148.902 48.964 149.671 46.7735 151.21 44.0501C152.75 41.2082 155.532 39.7873 159.558 39.7873C163.584 39.7873 166.367 41.149 167.906 43.8724C169.445 46.4775 170.215 48.668 170.215 50.4442C170.215 52.3387 169.801 54.0557 168.972 55.595C168.261 57.1342 166.9 58.6142 164.887 60.0356C162.874 61.3378 161.335 62.5809 160.269 63.765C159.321 64.9496 158.552 66.9623 157.96 69.804C157.249 74.7776 156.48 79.8098 155.65 84.9015C154.94 89.8746 154.348 94.0191 153.875 97.3344C153.519 100.65 152.395 103.847 150.5 106.926C147.066 111.662 144.402 115.392 142.507 118.115C140.731 120.839 139.606 123.503 139.133 126.108C138.659 128.713 138.304 130.726 138.067 132.147C137.83 133.568 137.712 134.871 137.712 136.055C137.712 137.949 137.949 139.725 138.422 141.383C138.896 142.922 139.784 144.402 141.086 145.823C142.389 147.363 143.04 148.783 143.04 150.086C143.04 152.099 142.626 153.638 141.797 154.704C140.968 155.888 139.784 157.309 138.244 158.967C136.705 160.743 134.337 161.809 131.14 162.164C127.943 162.637 124.805 163.052 121.726 163.407C110.004 165.894 99.702 167.137 90.8212 167.137C82.0592 167.137 71.6979 165.894 59.7386 163.407C55.4761 162.934 52.0422 162.519 49.4372 162.164C46.8321 161.809 44.7008 160.684 43.043 158.789C41.3853 157.013 40.2012 155.533 39.4908 154.349C38.7803 153.165 38.4251 151.744 38.4251 150.086C38.4251 149.02 39.1355 147.54 40.5564 145.646C41.9774 143.751 42.8654 142.153 43.2206 140.85C43.5759 139.548 43.7535 137.949 43.7535 136.055C43.7535 134.989 43.6351 133.627 43.3983 131.969C43.1615 130.312 42.8062 128.298 42.3326 125.93C41.8589 123.444 40.438 120.543 38.0698 117.227C35.7017 113.793 33.4518 110.478 31.3204 107.281C29.1891 103.965 27.8274 100.354 27.2353 96.4462C26.6433 92.4204 25.992 88.0391 25.2816 83.3029C24.6895 78.5666 24.1567 74.5408 23.683 71.2249C23.3278 67.9095 22.4397 65.4233 21.0188 63.765C19.5979 61.9892 17.9994 60.5683 16.2232 59.5024C14.4471 58.437 13.1446 57.1342 12.3157 55.595C11.6052 54.0557 11.25 52.3387 11.25 50.4442C11.25 48.668 12.0197 46.4775 13.559 43.8724C15.0983 41.149 17.8809 39.7873 21.9069 39.7873C25.9328 39.7873 28.5378 40.853 29.7219 42.9843C31.0245 45.1158 31.7941 46.655 32.0309 47.6023C32.3862 48.4312 32.5637 49.4377 32.5637 50.6218C32.5637 52.3979 32.2085 54.2925 31.4981 56.3057C30.1956 58.3183 28.9523 60.2724 27.7682 62.1669C27.6497 62.8774 29.4259 65.4233 33.0966 69.804C36.8857 74.0672 39.5499 77.6784 41.0893 80.6389C42.6286 83.5988 44.76 87.5655 47.4834 92.5391C48.6675 94.1968 49.6147 95.0254 50.3252 95.0254C51.5093 95.0254 52.1014 92.1836 52.1014 86.5001C52.1014 81.882 52.0422 77.9743 51.9238 74.7776C51.8054 71.5804 51.6869 68.6199 51.5685 65.8969C51.5685 64.2392 51.5685 62.6406 51.5685 61.101C51.5685 59.562 51.6278 58.0815 51.7462 56.6606C51.7462 54.5293 51.6278 52.7532 51.3909 51.3322C51.1541 49.7929 50.6213 48.076 49.7924 46.1814C48.9635 44.1685 47.8387 42.7475 46.4177 41.9187C44.9968 40.9714 44.1087 40.0833 43.7535 39.2545C43.3983 38.4256 43.0431 37.3599 42.6878 36.0574C42.3326 34.7549 42.1549 33.6892 42.1549 32.8603C42.1549 31.0842 42.9246 28.8936 44.4639 26.2886C46.1217 23.5652 49.0819 22.2034 53.3447 22.2034C57.726 22.2034 60.6268 23.5059 62.0477 26.111C63.5872 28.5976 64.3568 30.8473 64.3568 32.8603C64.3568 34.518 64.0609 36.1166 63.4686 37.6559C62.8768 39.0768 61.9296 40.4385 60.6268 41.741C59.4428 42.9252 58.6733 43.8724 58.3178 44.5829C58.0809 45.2933 57.9628 46.2998 57.9628 47.6023C57.9628 49.3785 59.0878 51.9243 61.3372 55.2398C63.5872 58.437 65.5408 62.7587 67.1985 68.2054C68.9749 73.6526 71.2839 80.8757 74.1257 89.8746C74.7174 90.9405 75.1911 91.4732 75.5466 91.4732C76.257 91.4732 76.6716 87.2106 76.7897 78.6848C77.0265 70.1595 77.382 64.6532 77.8556 62.1669C78.3292 59.6801 79.5133 55.8318 81.4078 50.6218C83.3023 45.4117 84.2496 41.8594 84.2496 39.9649C84.2496 39.0176 84.1314 38.248 83.8946 37.6559C83.6578 36.9454 82.9474 36.2942 81.7633 35.7022C80.5787 34.9917 79.6314 34.1628 78.921 33.2156C78.2106 32.2683 77.8556 30.7882 77.8556 28.7752C77.8556 27.2359 78.2702 25.4597 79.0988 23.4467C79.9279 21.4338 81.4078 19.8353 83.5391 18.6511C85.6704 17.467 88.0386 16.875 90.6435 16.875C93.4858 16.875 95.913 17.467 97.9262 18.6511C100.057 19.7168 101.596 21.4338 102.544 23.802ZM66.6658 108.879C59.7982 109.826 54.2328 110.774 49.97 111.722C45.8257 112.669 43.7535 113.793 43.7535 115.096C43.7535 115.57 43.9903 115.984 44.4639 116.339C45.056 116.576 45.4704 117.168 45.7072 118.115C45.9441 118.944 46.4177 119.359 47.1282 119.359C48.6675 119.359 50.266 119.122 51.9238 118.648C53.6999 118.175 55.4169 117.701 57.0746 117.227C62.5213 116.636 67.4944 116.28 71.9944 116.162C76.6119 115.925 82.8877 115.806 90.8212 115.806C98.6366 115.806 104.735 115.925 109.115 116.162C113.615 116.28 118.588 116.636 124.035 117.227C127.232 117.938 130.43 118.648 133.626 119.359C134.337 119.359 134.81 118.944 135.047 118.115C135.403 117.168 135.876 116.576 136.468 116.339C137.06 115.984 137.356 115.57 137.356 115.096C137.356 113.912 134.988 112.787 130.252 111.722C125.516 110.656 120.602 109.767 115.51 109.057C110.537 108.346 106.274 107.873 102.722 107.636C99.1693 107.399 95.2616 107.281 90.999 107.281C82.2369 107.281 74.1257 107.814 66.6658 108.879ZM115.51 130.726C116.339 130.844 118.707 131.2 122.614 131.791C126.522 132.384 129.127 132.68 130.43 132.68C130.667 132.68 130.903 132.621 131.14 132.502C130.785 131.437 130.844 130.667 131.317 130.193C131.791 129.601 132.028 129.009 132.028 128.417C132.028 126.878 129.542 125.753 124.568 125.043C119.595 124.332 116.161 123.918 114.266 123.799C112.49 123.562 110.004 123.384 106.807 123.266C103.61 123.148 101.301 123.089 99.8797 123.089H90.8212C86.9141 123.089 83.421 123.148 80.3419 123.266C77.382 123.266 72.7048 123.681 66.3103 124.509C60.0351 125.22 55.7721 125.812 53.5223 126.286C51.2725 126.641 50.1476 127.529 50.1476 128.95C50.1476 129.423 50.3844 129.957 50.8581 130.548C51.4501 131.022 51.5685 131.614 51.2133 132.325C51.3317 132.68 51.5094 132.976 51.7462 133.212L66.6658 131.081C73.7702 130.253 79.5133 129.838 83.8946 129.838H90.999C93.1303 129.838 95.0839 129.838 96.8603 129.838C98.7548 129.838 100.472 129.779 102.011 129.66C104.261 129.66 106.51 129.779 108.76 130.016C111.01 130.252 113.26 130.489 115.51 130.726ZM115.332 143.337C116.99 143.337 119.773 143.81 123.68 144.758C127.706 145.705 131.14 146.593 133.982 147.422C133.982 147.067 133.982 146.77 133.982 146.533C133.035 145.468 132.857 144.284 133.449 142.981C134.16 141.797 132.324 140.672 127.943 139.607C121.667 138.541 116.99 137.771 113.911 137.298C110.951 136.706 108.228 136.351 105.741 136.232C103.254 136.114 100.412 136.055 97.2158 136.055H91.1767H84.7823C79.6911 136.055 76.4938 136.114 75.1911 136.232C74.007 136.351 71.4611 136.765 67.554 137.476C63.765 138.067 59.7386 138.719 55.4761 139.429C51.2133 140.14 49.082 141.324 49.082 142.981C49.082 143.1 49.2004 143.514 49.4372 144.225C49.674 144.58 49.4963 145.113 48.9043 145.823C48.4307 146.652 48.2531 147.185 48.3715 147.422C49.4372 147.067 52.5158 146.297 57.6073 145.113C62.8177 143.929 65.9554 143.337 67.0207 143.337L91.1767 142.981L115.332 143.337Z" fill="#2D132C"/>
<path d="M66.6653 108.879C59.7977 109.826 54.2323 110.774 49.9696 111.721C45.8252 112.668 43.7531 113.793 43.7531 115.096C43.7531 115.57 43.9899 115.984 44.4635 116.339C45.0556 116.576 45.47 117.168 45.7068 118.115C45.9437 118.944 46.4173 119.359 47.1277 119.359C48.6671 119.359 50.2656 119.122 51.9233 118.648C53.6995 118.174 55.4164 117.701 57.0741 117.227C62.5208 116.635 67.4944 116.28 71.9938 116.161C76.6119 115.924 82.8878 115.806 90.8207 115.806C98.6361 115.806 104.734 115.924 109.115 116.161C113.615 116.28 118.588 116.635 124.035 117.227C127.232 117.938 130.429 118.648 133.626 119.359C134.337 119.359 134.81 118.944 135.047 118.115C135.402 117.168 135.876 116.576 136.468 116.339C137.06 115.984 137.356 115.57 137.356 115.096C137.356 113.912 134.988 112.787 130.251 111.721C125.515 110.656 120.601 109.767 115.509 109.057C110.536 108.346 106.274 107.873 102.721 107.636C99.1687 107.399 95.2611 107.281 90.9984 107.281C82.2364 107.281 74.1251 107.814 66.6653 108.879ZM115.509 130.726C116.338 130.844 118.707 131.2 122.614 131.791C126.521 132.384 129.126 132.68 130.429 132.68C130.666 132.68 130.903 132.621 131.14 132.502C130.784 131.437 130.844 130.666 131.317 130.193C131.791 129.601 132.028 129.009 132.028 128.417C132.028 126.877 129.541 125.752 124.568 125.042C119.594 124.332 116.161 123.918 114.266 123.799C112.49 123.562 110.003 123.384 106.806 123.266C103.609 123.148 101.3 123.088 99.8792 123.088H90.8207C86.9136 123.088 83.4204 123.148 80.3419 123.266C77.3814 123.266 72.7043 123.681 66.3103 124.509C60.0345 125.22 55.7717 125.812 53.5219 126.286C51.2721 126.641 50.1472 127.529 50.1472 128.95C50.1472 129.423 50.384 129.956 50.8577 130.548C51.4497 131.022 51.5681 131.614 51.2129 132.325C51.3313 132.68 51.5089 132.976 51.7457 133.212L66.6653 131.081C73.7702 130.252 79.5128 129.838 83.8941 129.838H90.9984C93.1297 129.838 95.0839 129.838 96.8597 129.838C98.7542 129.838 100.472 129.779 102.011 129.66C104.261 129.66 106.511 129.779 108.76 130.016C111.01 130.252 113.259 130.489 115.509 130.726ZM115.332 143.337C116.989 143.337 119.772 143.81 123.68 144.758C127.705 145.705 131.14 146.593 133.981 147.422C133.981 147.067 133.981 146.77 133.981 146.533C133.034 145.468 132.856 144.284 133.449 142.981C134.159 141.797 132.324 140.672 127.942 139.607C121.667 138.541 116.989 137.771 113.911 137.298C110.951 136.705 108.227 136.351 105.74 136.232C103.254 136.114 100.412 136.054 97.2152 136.054H91.1762H84.7823C79.6905 136.054 76.4933 136.114 75.1911 136.232C74.007 136.351 71.4611 136.765 67.5534 137.476C63.7644 138.067 59.7386 138.719 55.4756 139.429C51.2129 140.14 49.0815 141.324 49.0815 142.981C49.0815 143.1 49.1999 143.514 49.4367 144.224C49.6735 144.58 49.496 145.113 48.9039 145.823C48.4302 146.652 48.2526 147.185 48.371 147.422C49.4367 147.067 52.5154 146.297 57.6068 145.113C62.8172 143.929 65.9548 143.337 67.0208 143.337L91.1762 142.981L115.332 143.337Z" fill="#C70039"/>
</svg>
