<svg width="81" height="81" viewBox="0 0 81 81" fill="none" xmlns="http://www.w3.org/2000/svg">
<path d="M40.5 12.5C34.5 12.5 29.8 17.3 29.8 23.2C29.8 26.8 31.6 30.1 34.4 32H46.7C49.5 30.1 51.3 26.8 51.3 23.2C51.2 17.2 46.5 12.5 40.5 12.5Z" fill="#010101"/>
<path d="M43.2 16.4C41.7 15.5 39.9 15.3 38 15.8C34.4 16.8 32.4 20.4 33.3 24C33.3 24.1 33.4 24.2 33.4 24.3C39.2 25 44 19.1 43.2 16.4Z" fill="#6D6E6E"/>
<path d="M34.5 31.7L34.2 39.4L30.7 61.1L18.3 72H62.6L50.3 61.1L46 39.4L45.7 31.7" fill="#010101"/>
<path d="M37.7 39.6L33.8 62.1L27.2 69.2H34.8L40 63.8L40.1 39.6H37.7Z" fill="#6D6E6E"/>
<path d="M26.6 38.8H54.4L47.7 30.8H33.3L26.6 38.8Z" fill="#010101"/>
<path d="M32.3 36.5H41.1L39 32.5H35.2L32.3 36.5Z" fill="#6D6E6E"/>
</svg>
