<svg width="180" height="180" viewBox="0 0 180 180" fill="none" xmlns="http://www.w3.org/2000/svg">
<path d="M107.993 42.2755H118.117V33.75H139.431V63.5895L122.38 80.1073V119.005L135.701 132.326V148.844H149.022V171.224H33.75V148.844H47.0711V132.326L60.3922 119.005V80.1073L43.3412 63.5895V33.75H64.6549V42.2755H74.2461V33.75H107.816L107.993 42.2755ZM130.905 148.844H51.6891V153.462H130.905V148.844ZM129.307 132.504H53.2876V138.365H129.307V132.504ZM117.762 118.828H64.8326V123.446H117.762V118.828ZM117.762 75.6669H64.8326V80.2851H117.762V75.6669ZM133.037 57.9054H49.5577V63.7667H133.037V57.9054Z" fill="#222831"/>
<path d="M130.906 148.844H51.6894V153.462H130.906V148.844ZM129.307 132.504H53.2879V138.365H129.307V132.504ZM117.762 118.828H64.8326V123.445H117.762V118.828ZM117.762 75.6669H64.8326V80.285H117.762V75.6669ZM133.037 57.9054H49.558V63.7667H133.037V57.9054Z" fill="#00ADB5"/>
</svg>
