<svg width="180" height="180" viewBox="0 0 180 180" fill="none" xmlns="http://www.w3.org/2000/svg">
<path d="M90.3836 73.6999C86.2492 73.6999 82.7246 72.2689 79.8097 69.4063C76.8949 66.4914 75.4369 62.9668 75.4369 58.833C75.4369 54.7516 76.8949 51.2535 79.8097 48.3384C82.7246 45.3703 86.2492 43.8863 90.3836 43.8863C94.4646 43.8863 97.9628 45.3703 100.878 48.3384C103.793 51.2535 105.25 54.7516 105.25 58.833C105.25 62.9668 103.793 66.4914 100.878 69.4063C97.9628 72.2689 94.4646 73.6999 90.3836 73.6999ZM140.391 113.69C141.451 112.471 142.564 111.066 143.73 109.476C147.811 103.593 150.514 97.7096 151.839 91.8264C153.217 85.8904 153.111 81.0141 151.521 77.1981C149.242 71.9505 145.929 68.0552 141.583 65.511C137.131 62.9668 132.122 62.0393 126.557 62.7283C121.045 63.4174 115.586 65.4581 110.18 68.85C104.244 72.666 99.0759 78.3371 94.6766 85.8634C93.1399 88.6196 91.6819 91.6144 90.3043 94.8476C88.8727 91.6144 87.4153 88.6196 85.9314 85.8634C81.4792 78.3371 76.3116 72.666 70.4284 68.85C65.0222 65.4581 59.5367 63.4174 53.9713 62.7283C48.4591 62.0393 43.477 62.9668 39.0248 65.511C34.6257 68.0552 31.3131 71.9505 29.087 77.1981C27.4439 81.0141 27.2849 85.8904 28.61 91.8264C29.988 97.7096 32.7441 103.593 36.8782 109.476C37.9913 111.066 39.1043 112.471 40.2173 113.69C41.4894 113.318 42.788 113.001 44.113 112.736C37.3288 92.277 38.6538 79.8216 48.0881 75.3694C53.8123 72.7194 59.9074 74.124 66.3739 79.5831C72.8932 84.9892 78.246 91.0046 82.4332 97.6303C83.2281 98.955 84.2619 100.996 85.5337 103.752C86.859 106.508 87.5216 107.886 87.5216 107.886C87.9457 107.886 88.3693 107.886 88.7934 107.886C89.2704 107.833 89.7474 107.806 90.2244 107.806C92.0796 107.806 93.0071 107.806 93.0071 107.806C93.0071 107.753 93.6433 106.349 94.9151 103.593C96.2404 100.784 97.3001 98.7165 98.0955 97.3912C102.229 90.7132 107.503 84.7243 113.916 79.4239C120.382 74.0706 126.505 72.7189 132.281 75.3694C141.769 79.8744 143.147 92.3034 136.416 112.656C137.051 112.815 137.688 113.001 138.324 113.213C139.013 113.371 139.702 113.531 140.391 113.69ZM81.7177 108.045C77.9546 99.4056 73.2375 92.7011 67.5664 87.9306C61.8952 83.1606 56.9132 81.6767 52.6198 83.4784C48.9626 85.0686 46.8691 88.434 46.3391 93.5752C45.809 98.7165 46.8956 104.706 49.5987 111.543C53.1498 110.854 56.2506 110.324 58.9005 109.953C58.4235 108.575 58.5028 106.932 59.139 105.024C59.7752 103.063 59.616 101.473 58.662 100.254C58.0258 99.4584 57.2046 99.9619 56.1974 101.764C55.1904 103.566 54.2629 104.202 53.4148 103.672C52.3018 103.036 51.5068 101.923 51.0297 100.333C50.6057 98.6901 50.7382 97.3119 51.4272 96.1987C51.9043 95.2982 52.9113 95.3511 54.4484 96.3579C56.0384 97.3648 57.0982 97.4177 57.6287 96.5171C58.1057 95.6689 57.5224 94.8206 55.8794 93.9729C54.2364 93.1247 53.6798 92.2764 54.2099 91.4287C56.0649 88.3018 58.6091 87.6128 61.8424 89.3616C62.6901 89.8914 62.5843 90.9253 61.524 92.4621C60.5171 93.9994 60.4642 95.0063 61.3648 95.4833C62.2131 96.0131 63.0349 95.4833 63.8297 93.8931C64.6779 92.25 65.5785 91.6673 66.5325 92.1443C67.6457 92.7804 68.4141 93.9195 68.8382 95.5626C69.2623 97.1527 69.1566 98.5044 68.5204 99.6176C68.0434 100.519 66.9302 100.439 65.1814 99.3791C63.432 98.3188 62.5044 98.2659 62.3987 99.2199C62.0809 101.075 62.8757 102.745 64.7837 104.228C66.7446 105.713 67.5399 107.303 67.1687 108.999C71.9387 108.522 76.7886 108.204 81.7177 108.045ZM130.93 111.384C133.58 104.494 134.64 98.478 134.11 93.3368C133.633 88.1426 131.566 84.7507 127.909 83.1606C123.563 81.3583 118.554 82.8692 112.883 87.6921C107.211 92.4626 102.521 99.2199 98.811 107.965C104.429 108.283 109.279 108.628 113.36 108.999C112.936 107.303 113.678 105.713 115.586 104.229C117.494 102.745 118.316 101.101 118.051 99.2998C117.892 98.3458 116.938 98.3987 115.188 99.4584C113.439 100.519 112.326 100.572 111.849 99.6176C111.213 98.5044 111.107 97.1527 111.531 95.5626C111.955 93.9195 112.724 92.7804 113.837 92.1443C114.738 91.6673 115.586 92.25 116.381 93.8931C117.229 95.5361 118.13 96.093 119.084 95.5626C119.932 95.0856 119.826 94.0787 118.766 92.5419C117.759 90.9518 117.706 89.9179 118.607 89.4409C119.72 88.8053 121.071 88.6989 122.662 89.1231C124.305 89.5472 125.471 90.3156 126.16 91.4287C126.637 92.3299 126.054 93.204 124.411 94.0522C122.821 94.9005 122.291 95.7482 122.821 96.5964C123.298 97.4976 124.305 97.4447 125.842 96.4372C127.379 95.4304 128.439 95.3511 129.022 96.1987C129.658 97.3119 129.737 98.6901 129.26 100.333C128.836 101.923 128.094 103.036 127.034 103.672C126.08 104.149 125.126 103.513 124.172 101.764C123.218 100.015 122.423 99.5377 121.787 100.333C120.78 101.552 120.594 103.116 121.231 105.024C121.92 106.932 122.025 108.601 121.548 110.032C123.139 110.244 124.702 110.483 126.239 110.748C127.829 111.013 129.393 111.225 130.93 111.384ZM145.24 116.313C147.413 118.486 148.5 121.083 148.5 124.104C148.5 127.338 147.387 129.961 145.161 131.975C145.32 132.611 145.399 133.221 145.399 133.804C145.399 136.931 144.339 139.581 142.219 141.754C142.431 142.496 142.537 143.318 142.537 144.219C142.537 149.89 139.914 153.415 134.666 154.793C121.628 158.821 106.814 160.835 90.2244 160.835C73.5817 160.835 58.7677 158.821 45.7825 154.793C40.5354 153.415 37.9118 149.89 37.9118 144.219C37.9118 143.371 38.0178 142.549 38.2298 141.754C36.1097 139.581 35.0497 136.958 35.0497 133.883C35.0497 133.247 35.1292 132.611 35.2882 131.975C33.0621 129.961 31.9491 127.338 31.9491 124.104C31.9491 120.925 33.0621 118.3 35.2882 116.234C34.3342 115.226 33.4066 114.007 32.5056 112.576C28.0005 106.163 25.0059 99.6176 23.5218 92.9396C22.0377 86.2611 22.1703 80.5371 23.9193 75.7671C26.5694 69.0356 30.7036 64.08 36.3217 60.8996C41.7279 57.7727 47.7701 56.6331 54.4484 57.4813C61.1263 58.2761 67.6457 60.741 74.0059 64.8748C80.154 69.0621 85.5872 74.9188 90.3043 82.4451C94.968 74.9188 100.401 69.0621 106.602 64.8748C112.962 60.741 119.455 58.2761 126.08 57.4813C132.758 56.6331 138.827 57.7727 144.286 60.8996C149.852 64.08 153.985 69.0356 156.689 75.7671C158.385 80.5371 158.491 86.2611 157.007 92.9396C155.523 99.6176 152.554 106.163 148.102 112.576C147.095 114.007 146.141 115.253 145.24 116.313ZM130.294 150.658C118.209 148.485 104.853 147.399 90.2244 147.399C75.384 147.399 62.001 148.485 50.0757 150.658C62.2131 153.68 75.5961 155.19 90.2244 155.19C104.853 155.19 118.209 153.68 130.294 150.658ZM90.3836 68.1345C92.9278 68.1345 95.1007 67.2334 96.903 65.4317C98.7581 63.5766 99.6851 61.3766 99.6851 58.833C99.6851 56.2888 98.7581 54.0891 96.903 52.234C95.1007 50.379 92.9278 49.4514 90.3836 49.4514C87.7866 49.4514 85.5602 50.379 83.7056 52.234C81.9034 54.0891 81.0022 56.2888 81.0022 58.833C81.0022 61.3766 81.9034 63.5766 83.7056 65.4317C85.5602 67.2334 87.7866 68.1345 90.3836 68.1345ZM94.3588 44.2042C92.9807 43.7802 91.629 43.5682 90.3043 43.5682C89.0319 43.5682 87.6009 43.8067 86.0107 44.2837L87.7601 34.5844L80.4459 37.049V27.3497L87.7601 29.7348L85.2159 22.5H94.995L92.6094 29.7348L100.003 27.3497V37.049L92.6094 34.5844L94.3588 44.2042ZM136.018 140.482C135.7 140.164 135.594 139.899 135.7 139.687C135.753 139.316 136.097 139.078 136.734 138.971C139.119 138.176 140.311 136.454 140.311 133.804C140.311 132.108 139.648 130.677 138.324 129.511C141.716 129.458 143.412 127.655 143.412 124.104C143.412 121.454 142.219 119.705 139.834 118.857C126.319 115.094 109.915 113.213 90.6221 113.213C71.0646 113.213 54.4219 115.121 40.6944 118.937C38.2563 119.785 37.0372 121.507 37.0372 124.104C37.0372 127.655 38.7333 129.458 42.1255 129.511C40.8004 130.677 40.1379 132.134 40.1379 133.883C40.1379 136.428 41.2509 138.097 43.477 138.892C44.219 138.998 44.643 139.263 44.749 139.687C44.802 139.952 44.6695 140.244 44.3515 140.561C43.4505 141.78 43 142.999 43 144.219C43 145.226 43.265 146.153 43.795 147.002C57.7344 143.662 73.2111 141.992 90.2244 141.992C107.344 141.992 122.847 143.662 136.734 147.002C137.211 146.047 137.449 145.119 137.449 144.219C137.449 142.894 136.972 141.648 136.018 140.482Z" fill="#361500"/>
<path d="M140.391 113.69C141.451 112.471 142.564 111.066 143.73 109.476C147.811 103.593 150.514 97.7096 151.839 91.8264C153.217 85.8904 153.111 81.0141 151.521 77.1981C149.242 71.9511 145.929 68.0552 141.584 65.511C137.131 62.9668 132.123 62.0392 126.557 62.7283C121.046 63.4174 115.586 65.4581 110.18 68.85C104.244 72.6666 99.0759 78.3377 94.6766 85.8639C93.1399 88.6196 91.6824 91.6144 90.3043 94.8476C88.8733 91.6144 87.4153 88.6196 85.9314 85.8639C81.4793 78.3377 76.3116 72.6666 70.4284 68.85C65.0222 65.4581 59.5367 63.4174 53.9715 62.7283C48.4593 62.0392 43.4771 62.9668 39.025 65.511C34.6258 68.0552 31.3132 71.9511 29.0871 77.1981C27.444 81.0141 27.2851 85.8904 28.6101 91.8264C29.9882 97.7096 32.7443 103.593 36.8784 109.476C37.9914 111.066 39.1044 112.471 40.2175 113.69C41.4896 113.318 42.7881 113.001 44.1131 112.736C37.3289 92.277 38.6539 79.8216 48.0882 75.3694C53.8125 72.7194 59.9079 74.124 66.3739 79.5831C72.8933 84.9892 78.2466 91.0052 82.4333 97.6303C83.2286 98.955 84.2619 100.996 85.5338 103.752C86.859 106.508 87.5216 107.886 87.5216 107.886C87.9457 107.886 88.3699 107.886 88.7934 107.886C89.2704 107.833 89.7474 107.806 90.2244 107.806C92.0796 107.806 93.0071 107.806 93.0071 107.806C93.0071 107.754 93.6433 106.349 94.9151 103.593C96.2404 100.784 97.3007 98.7165 98.0955 97.3918C102.229 90.7133 107.503 84.7243 113.916 79.4239C120.383 74.0706 126.505 72.7194 132.281 75.3694C141.769 79.8744 143.147 92.3034 136.416 112.656C137.052 112.815 137.688 113.001 138.324 113.213C139.013 113.372 139.702 113.531 140.391 113.69ZM81.7178 108.045C77.9546 99.4056 73.2375 92.7011 67.5664 87.9306C61.8953 83.1606 56.9132 81.6767 52.6199 83.4789C48.9628 85.0686 46.8692 88.4346 46.3392 93.5752C45.8092 98.7165 46.8957 104.706 49.5988 111.543C53.1499 110.854 56.2506 110.324 58.9005 109.953C58.4235 108.575 58.5034 106.932 59.139 105.024C59.7752 103.063 59.616 101.473 58.662 100.254C58.0264 99.459 57.2046 99.9624 56.1975 101.764C55.1905 103.566 54.263 104.203 53.4149 103.672C52.3019 103.036 51.5069 101.923 51.0299 100.333C50.6058 98.6901 50.7383 97.3119 51.4274 96.1993C51.9044 95.2982 52.9115 95.3511 54.4485 96.3579C56.0386 97.3648 57.0988 97.4182 57.6287 96.5171C58.1057 95.6689 57.5224 94.8206 55.8795 93.9729C54.2365 93.1247 53.6799 92.277 54.21 91.4287C56.0651 88.3018 58.6091 87.6128 61.8424 89.3616C62.6901 89.892 62.5843 90.9253 61.524 92.4621C60.5171 93.9994 60.4643 95.0062 61.3654 95.4832C62.2131 96.0137 63.0349 95.4833 63.8297 93.8931C64.6779 92.2506 65.5791 91.6673 66.5331 92.1443C67.6457 92.7804 68.4146 93.9201 68.8382 95.5631C69.2623 97.1528 69.1566 98.5044 68.5204 99.6176C68.0434 100.519 66.9302 100.439 65.1814 99.3791C63.4326 98.3188 62.505 98.2659 62.3987 99.2199C62.0809 101.075 62.8757 102.745 64.7837 104.229C66.7451 105.713 67.5399 107.303 67.1687 108.999C71.9393 108.522 76.7886 108.204 81.7178 108.045ZM130.93 111.384C133.58 104.494 134.64 98.478 134.11 93.3368C133.633 88.1426 131.566 84.7507 127.909 83.1606C123.563 81.3589 118.554 82.8692 112.883 87.6921C107.212 92.4626 102.521 99.2199 98.811 107.966C104.429 108.283 109.279 108.628 113.36 108.999C112.936 107.303 113.678 105.713 115.586 104.229C117.494 102.745 118.316 101.101 118.051 99.2998C117.892 98.3458 116.938 98.3987 115.189 99.4584C113.439 100.519 112.326 100.572 111.849 99.6176C111.214 98.5044 111.107 97.1528 111.531 95.5631C111.956 93.9201 112.724 92.7804 113.837 92.1443C114.738 91.6673 115.586 92.2506 116.381 93.8931C117.229 95.5361 118.13 96.093 119.084 95.5631C119.932 95.0861 119.826 94.0787 118.766 92.5419C117.759 90.9518 117.706 89.9184 118.607 89.4414C119.72 88.8052 121.072 88.6989 122.662 89.1231C124.305 89.5472 125.471 90.3156 126.16 91.4287C126.637 92.3299 126.054 93.2046 124.411 94.0522C122.821 94.9005 122.291 95.7482 122.821 96.5964C123.298 97.4976 124.305 97.4447 125.842 96.4378C127.379 95.4304 128.439 95.3511 129.022 96.1987C129.658 97.3119 129.737 98.6901 129.26 100.333C128.837 101.923 128.094 103.036 127.034 103.672C126.08 104.149 125.126 103.514 124.172 101.764C123.218 100.015 122.423 99.5383 121.787 100.333C120.78 101.552 120.595 103.116 121.231 105.024C121.92 106.932 122.026 108.601 121.549 110.032C123.139 110.244 124.702 110.483 126.24 110.748C127.829 111.013 129.393 111.225 130.93 111.384ZM130.294 150.658C118.209 148.485 104.853 147.399 90.2244 147.399C75.384 147.399 62.001 148.485 50.0758 150.658C62.2131 153.68 75.5961 155.19 90.2244 155.19C104.853 155.19 118.209 153.68 130.294 150.658ZM90.3836 68.1345C92.9278 68.1345 95.1007 67.2334 96.903 65.4317C98.7581 63.5766 99.6857 61.3772 99.6857 58.833C99.6857 56.2888 98.7581 54.0892 96.903 52.2341C95.1007 50.3791 92.9278 49.4515 90.3836 49.4515C87.7866 49.4515 85.5607 50.3791 83.7056 52.2341C81.9034 54.0892 81.0023 56.2888 81.0023 58.833C81.0023 61.3772 81.9034 63.5766 83.7056 65.4317C85.5607 67.2334 87.7866 68.1345 90.3836 68.1345ZM136.018 140.482C135.7 140.164 135.594 139.899 135.7 139.687C135.753 139.316 136.098 139.078 136.734 138.972C139.119 138.176 140.311 136.454 140.311 133.804C140.311 132.108 139.649 130.677 138.324 129.511C141.716 129.458 143.412 127.655 143.412 124.104C143.412 121.454 142.22 119.706 139.834 118.857C126.319 115.094 109.915 113.213 90.6221 113.213C71.0646 113.213 54.422 115.121 40.6945 118.937C38.2564 119.785 37.0374 121.507 37.0374 124.104C37.0374 127.655 38.7335 129.458 42.1256 129.511C40.8005 130.677 40.138 132.134 40.138 133.883C40.138 136.428 41.2511 138.097 43.4771 138.892C44.2191 138.998 44.6432 139.263 44.7491 139.687C44.8022 139.952 44.6696 140.244 44.3517 140.561C43.4506 141.78 43.0001 143 43.0001 144.219C43.0001 145.226 43.2651 146.153 43.7951 147.002C57.7344 143.662 73.2111 141.992 90.2244 141.992C107.344 141.992 122.847 143.662 136.734 147.002C137.211 146.048 137.449 145.12 137.449 144.219C137.449 142.894 136.972 141.648 136.018 140.482Z" fill="#F6D860"/>
</svg>
