<svg width="180" height="180" viewBox="0 0 180 180" fill="none" xmlns="http://www.w3.org/2000/svg">
<path d="M20.7108 72.3088C18.0608 72.3088 15.8082 71.3812 13.9531 69.5261C12.151 67.671 11.25 65.4188 11.25 62.7683C11.25 56.4615 14.4036 53.3077 20.7108 53.3077C23.3079 53.3077 25.534 54.2352 27.389 56.0902C29.2971 57.9454 30.2511 60.1712 30.2511 62.7683C30.2511 65.4188 29.2971 67.671 27.389 69.5261C25.534 71.3812 23.3079 72.3088 20.7108 72.3088ZM20.7108 66.9026C23.4669 66.9026 24.845 65.5245 24.845 62.7683C24.845 60.0126 23.4669 58.6344 20.7108 58.6344C17.9547 58.6344 16.5767 60.0126 16.5767 62.7683C16.5767 65.5245 17.9547 66.9026 20.7108 66.9026ZM154.196 72.3088C151.599 72.3088 149.372 71.3812 147.518 69.5261C145.663 67.671 144.735 65.4188 144.735 62.7683C144.735 60.1712 145.663 57.9454 147.518 56.0902C149.372 54.2352 151.599 53.3077 154.196 53.3077C156.793 53.3077 159.019 54.2352 160.874 56.0902C162.782 57.9454 163.736 60.1712 163.736 62.7683C163.736 65.4188 162.782 67.671 160.874 69.5261C159.019 71.3812 156.793 72.3088 154.196 72.3088ZM154.196 66.9026C156.952 66.9026 158.33 65.5245 158.33 62.7683C158.33 60.0126 156.952 58.6344 154.196 58.6344C151.492 58.6344 150.141 60.0126 150.141 62.7683C150.141 65.5245 151.492 66.9026 154.196 66.9026ZM53.3069 62.5297C50.6568 62.5297 48.4042 61.6022 46.5492 59.7476C44.6941 57.8925 43.7666 55.6397 43.7666 52.9896C43.7666 50.4456 44.6941 48.246 46.5492 46.391C48.4042 44.4828 50.6568 43.5288 53.3069 43.5288C55.904 43.5288 58.1299 44.4828 59.985 46.391C61.8401 48.246 62.7677 50.4456 62.7677 52.9896C62.7677 55.6397 61.8401 57.8925 59.985 59.7476C58.1299 61.6022 55.904 62.5297 53.3069 62.5297ZM53.3069 57.1236C56.063 57.1236 57.4408 55.7457 57.4408 52.9896C57.4408 50.2336 56.063 48.8555 53.3069 48.8555C50.5508 48.8555 49.1728 50.2336 49.1728 52.9896C49.1728 55.7457 50.5508 57.1236 53.3069 57.1236ZM121.679 62.5297C119.029 62.5297 116.777 61.6022 114.922 59.7476C113.066 57.8925 112.139 55.6397 112.139 52.9896C112.139 50.4456 113.066 48.246 114.922 46.391C116.777 44.4828 119.029 43.5288 121.679 43.5288C124.277 43.5288 126.502 44.4828 128.357 46.391C130.213 48.246 131.14 50.4456 131.14 52.9896C131.14 55.6397 130.213 57.8925 128.357 59.7476C126.502 61.6022 124.277 62.5297 121.679 62.5297ZM121.679 57.1236C124.435 57.1236 125.813 55.7457 125.813 52.9896C125.813 50.2336 124.435 48.8555 121.679 48.8555C118.923 48.8555 117.545 50.2336 117.545 52.9896C117.545 55.7457 118.923 57.1236 121.679 57.1236ZM123.746 153.64C118.552 152.633 112.881 151.679 106.733 150.778C100.585 149.824 94.1715 149.347 87.4929 149.347C80.7086 149.347 74.2427 149.824 68.0946 150.778C61.9464 151.679 56.3018 152.633 51.1603 153.64C61.92 156.608 74.0306 158.092 87.4929 158.092C100.902 158.092 112.987 156.608 123.746 153.64ZM138.772 121.203C139.726 123.058 140.203 124.993 140.203 127.007C140.203 130.134 139.196 132.784 137.183 134.957C137.341 135.54 137.421 136.149 137.421 136.785C137.421 139.966 136.44 142.616 134.479 144.736C134.691 145.478 134.797 146.299 134.797 147.2C134.797 152.872 132.438 156.396 127.721 157.774C115.69 161.803 102.281 163.816 87.4929 163.816C72.6525 163.816 59.2431 161.803 47.2647 157.774C42.5476 156.396 40.189 152.872 40.189 147.2C40.189 146.299 40.295 145.478 40.507 144.736C38.5459 142.616 37.5654 139.966 37.5654 136.785C37.5654 136.149 37.6449 135.54 37.8039 134.957C35.7898 132.89 34.7828 130.266 34.7828 127.086C34.7828 125.231 35.1538 123.509 35.8958 121.919L24.6859 71.6726L49.8088 100.85L54.9765 63.4044L71.1158 97.9881L87.4929 52.8306L103.871 97.9881L119.93 63.4044L125.098 100.85L150.3 71.5933L138.772 121.203ZM129.55 149.983C129.974 149.135 130.186 148.207 130.186 147.2C130.186 144.762 129.179 143.04 127.165 142.033C127.589 142.139 127.933 142.192 128.198 142.192C131.272 142.192 132.81 140.389 132.81 136.785C132.81 134.983 132.2 133.552 130.981 132.492C134.055 132.439 135.592 130.611 135.592 127.006C135.592 124.409 134.532 122.687 132.412 121.839C120.169 118.076 105.302 116.194 87.8113 116.194C70.1617 116.194 55.109 118.103 42.6536 121.919C40.4805 122.66 39.394 124.383 39.394 127.086C39.394 130.637 40.931 132.439 44.0051 132.492C42.7861 133.658 42.1765 135.089 42.1765 136.785C42.1765 140.389 43.6871 142.192 46.7082 142.192C46.8672 142.192 47.0527 142.192 47.2647 142.192C47.4767 142.139 47.6623 142.112 47.8212 142.112C45.8072 143.013 44.8001 144.709 44.8001 147.2C44.8001 148.207 45.0122 149.135 45.4362 149.983C51.3194 148.393 57.8121 147.014 64.9142 145.848C72.0698 144.629 79.596 144.02 87.4929 144.02C95.3904 144.02 102.917 144.629 110.072 145.848C117.227 147.068 123.72 148.446 129.55 149.983ZM87.4929 52.7511C84.843 52.7511 82.5902 51.8236 80.7356 49.9686C78.8805 48.1135 77.9529 45.8609 77.9529 43.2108C77.9529 40.6667 78.8805 38.4672 80.7356 36.6121C82.5902 34.7041 84.843 33.75 87.4929 33.75C90.09 33.75 92.3164 34.7041 94.1715 36.6121C96.0266 38.4672 96.9536 40.6667 96.9536 43.2108C96.9536 45.8609 96.0266 48.1135 94.1715 49.9686C92.3164 51.8236 90.09 52.7511 87.4929 52.7511ZM87.4929 47.3449C90.2492 47.3449 91.6273 45.9669 91.6273 43.2108C91.6273 40.5077 90.2492 39.1562 87.4929 39.1562C84.7373 39.1562 83.3591 40.5077 83.3591 43.2108C83.3591 45.9669 84.7373 47.3449 87.4929 47.3449ZM134.638 117.149L141.078 90.1176L129.391 103.871C128.066 105.09 126.688 105.7 125.257 105.7C122.077 105.7 120.275 104.163 119.851 101.089L117.068 82.3264L108.164 101.248C107.05 102.679 105.593 103.394 103.791 103.394C101.936 103.394 100.425 102.626 99.2593 101.089L87.4929 68.7313L75.7266 101.009C74.5605 102.599 73.0238 103.394 71.1158 103.394C69.3664 103.394 67.9354 102.732 66.8222 101.407L57.8385 82.3264L55.1355 101.009C54.5525 104.083 52.7239 105.621 49.6498 105.621C48.1657 105.621 46.8407 105.064 45.6747 103.951L33.8287 90.1176L40.348 117.149C53.7045 112.908 69.4193 110.788 87.4929 110.788C105.567 110.788 121.282 112.908 134.638 117.149Z" fill="#361500"/>
<path d="M20.7106 66.9026C23.4667 66.9026 24.8448 65.5245 24.8448 62.7683C24.8448 60.0126 23.4667 58.6344 20.7106 58.6344C17.9546 58.6344 16.5765 60.0126 16.5765 62.7683C16.5765 65.5245 17.9546 66.9026 20.7106 66.9026ZM154.196 66.9026C156.952 66.9026 158.33 65.5245 158.33 62.7683C158.33 60.0126 156.952 58.6344 154.196 58.6344C151.492 58.6344 150.141 60.0126 150.141 62.7683C150.141 65.5245 151.492 66.9026 154.196 66.9026ZM53.3067 57.1236C56.0628 57.1236 57.4408 55.7457 57.4408 52.9896C57.4408 50.2335 56.0628 48.8554 53.3067 48.8554C50.5506 48.8554 49.1726 50.2335 49.1726 52.9896C49.1726 55.7457 50.5506 57.1236 53.3067 57.1236ZM121.679 57.1236C124.435 57.1236 125.813 55.7457 125.813 52.9896C125.813 50.2335 124.435 48.8554 121.679 48.8554C118.923 48.8554 117.545 50.2335 117.545 52.9896C117.545 55.7457 118.923 57.1236 121.679 57.1236ZM123.746 153.64C118.552 152.633 112.881 151.679 106.733 150.778C100.585 149.824 94.1709 149.347 87.4929 149.347C80.7086 149.347 74.2427 149.824 68.094 150.778C61.9459 151.679 56.3012 152.633 51.1602 153.64C61.9194 156.608 74.0306 158.092 87.4929 158.092C100.902 158.092 112.987 156.608 123.746 153.64ZM129.55 149.983C129.974 149.135 130.186 148.207 130.186 147.2C130.186 144.762 129.179 143.04 127.165 142.032C127.588 142.139 127.933 142.192 128.198 142.192C131.272 142.192 132.81 140.389 132.81 136.785C132.81 134.983 132.2 133.552 130.981 132.492C134.055 132.439 135.592 130.611 135.592 127.006C135.592 124.409 134.532 122.687 132.412 121.839C120.169 118.076 105.302 116.194 87.8107 116.194C70.1612 116.194 55.1088 118.102 42.6534 121.919C40.4803 122.66 39.3937 124.383 39.3937 127.086C39.3937 130.637 40.9308 132.439 44.0049 132.492C42.7859 133.658 42.1764 135.089 42.1764 136.785C42.1764 140.389 43.6869 142.192 46.708 142.192C46.867 142.192 47.0525 142.192 47.2645 142.192C47.4765 142.139 47.662 142.112 47.8211 142.112C45.807 143.013 44.7999 144.709 44.7999 147.2C44.7999 148.207 45.0119 149.135 45.4359 149.983C51.3192 148.393 57.8121 147.014 64.9142 145.848C72.0692 144.629 79.5954 144.02 87.4929 144.02C95.3899 144.02 102.916 144.629 110.072 145.848C117.227 147.068 123.72 148.446 129.55 149.983ZM87.4929 47.3449C90.2492 47.3449 91.6267 45.9669 91.6267 43.2107C91.6267 40.5077 90.2492 39.1561 87.4929 39.1561C84.7367 39.1561 83.3586 40.5077 83.3586 43.2107C83.3586 45.9669 84.7367 47.3449 87.4929 47.3449ZM134.638 117.149L141.078 90.1176L129.391 103.871C128.065 105.09 126.688 105.7 125.256 105.7C122.077 105.7 120.274 104.163 119.851 101.089L117.068 82.3258L108.164 101.248C107.05 102.679 105.593 103.394 103.791 103.394C101.936 103.394 100.425 102.626 99.2593 101.089L87.4929 68.7313L75.7266 101.009C74.5605 102.599 73.0232 103.394 71.1152 103.394C69.3664 103.394 67.9354 102.732 66.8222 101.407L57.8385 82.3258L55.1353 101.009C54.5523 104.083 52.7237 105.621 49.6496 105.621C48.1655 105.621 46.8405 105.064 45.6744 103.951L33.8286 90.1176L40.3478 117.149C53.7042 112.908 69.4193 110.788 87.4929 110.788C105.567 110.788 121.282 112.908 134.638 117.149Z" fill="#F6D860"/>
</svg>
