<svg width="180" height="180" viewBox="0 0 180 180" fill="none" xmlns="http://www.w3.org/2000/svg">
<path d="M126.411 149.188C126.411 146.644 125.483 144.444 123.628 142.589C121.773 140.681 119.547 139.727 116.95 139.727H60.1853C57.5348 139.727 55.2823 140.681 53.4273 142.589C51.6252 144.444 50.7242 146.644 50.7242 149.188V149.267V158.728H126.411V149.188ZM114.406 63.6429L119.733 120.726C122.33 120.726 124.555 121.654 126.411 123.509C128.319 125.364 129.273 127.59 129.273 130.187C129.273 132.996 128.213 135.354 126.093 137.262C130.068 140.39 132.055 144.391 132.055 149.267V164.135H45V149.267C45 144.338 47.0141 140.363 51.0422 137.342C48.9221 135.487 47.8621 133.102 47.8621 130.187C47.8621 127.59 48.7896 125.364 50.6447 123.509C52.4998 121.654 54.7258 120.726 57.3227 120.726L62.8088 63.6429L49.2932 55.6132V33.75H65.5116V41.8593H79.1066V33.75H98.0286V41.8593H111.623V33.75H128.001V55.6132L114.406 63.6429ZM88.5673 58.3161H112.975L122.435 52.5921V39.1562H117.109V47.3449H92.6224V39.1562H88.5673H84.4335V47.3449H60.0261V39.1562H54.6198V52.5921L64.0806 58.3161H88.5673ZM108.841 63.6429L68.0557 63.7228L61.6956 126.053L57.3227 126.132C54.6198 126.132 53.2683 127.484 53.2683 130.187C53.2683 132.943 54.6198 134.321 57.3227 134.321H119.733C122.489 134.321 123.866 132.943 123.866 130.187C123.866 127.484 122.489 126.132 119.733 126.132H115.44L108.841 63.6429Z" fill="#361500"/>
<path d="M126.411 149.188C126.411 146.644 125.484 144.444 123.628 142.589C121.773 140.681 119.547 139.727 116.95 139.727H60.1853C57.5353 139.727 55.2826 140.681 53.4275 142.589C51.6254 144.444 50.7244 146.644 50.7244 149.188V149.267V158.728H126.411V149.188ZM88.5679 58.3161H112.975L122.436 52.5921V39.1561H117.109V47.3449H92.6224V39.1561H88.5679H84.4335V47.3449H60.0261V39.1561H54.62V52.5921L64.0806 58.3161H88.5679ZM108.841 63.6429L68.0558 63.7222L61.6956 126.053L57.3233 126.132C54.62 126.132 53.2685 127.484 53.2685 130.187C53.2685 132.943 54.62 134.321 57.3233 134.321H119.733C122.489 134.321 123.867 132.943 123.867 130.187C123.867 127.484 122.489 126.132 119.733 126.132H115.44L108.841 63.6429Z" fill="#F6D860"/>
</svg>
