<svg width="256" height="256" viewBox="0 0 256 256" fill="none" xmlns="http://www.w3.org/2000/svg">
<path fill-rule="evenodd" clip-rule="evenodd" d="M127.758 220.116C155.747 220.116 181.352 212.389 200.128 199.582C218.874 186.797 231.324 168.513 231.324 147.57V109.545C231.324 88.602 218.874 70.3186 200.128 57.5329C181.352 44.7266 155.747 36.9993 127.758 36.9993C99.7689 36.9993 74.1642 44.7266 55.388 57.5329C36.6422 70.3186 24.1919 88.602 24.1919 109.545V147.57C24.1919 168.513 36.6422 186.797 55.388 199.582C74.1642 212.389 99.7689 220.116 127.758 220.116Z" fill="#0A0916"/>
<path d="M225.32 147.57C225.32 184.32 181.64 214.112 127.757 214.112C73.8754 214.112 30.1953 184.32 30.1953 147.57V109.545C30.1953 72.795 73.8754 43.0029 127.757 43.0029C181.64 43.0029 225.32 72.795 225.32 109.545V147.57Z" fill="#46466E"/>
<path d="M127.757 214.112C181.64 214.112 225.32 184.32 225.32 147.57V109.546C225.32 146.296 181.64 176.088 127.757 176.088C73.8754 176.088 30.1953 146.296 30.1953 109.546V147.57C30.1953 184.32 73.8754 214.112 127.757 214.112Z" fill="black" fill-opacity="0.5"/>
<path d="M207.642 109.191C207.313 86.5598 172.101 68.2666 128.711 68.2666C85.3214 68.2666 50.109 86.5598 49.7802 109.191C49.7786 109.061 49.7778 108.93 49.7778 108.8C49.7778 80.9156 85.1173 58.311 128.711 58.311C172.305 58.311 207.645 80.9156 207.645 108.8C207.645 108.931 207.644 109.061 207.642 109.191Z" fill="black" fill-opacity="0.5"/>
<path d="M128.711 159.289C170.262 159.289 204.314 138.753 207.414 112.684L207.642 109.191C207.313 86.5598 172.101 68.2666 128.711 68.2666C85.3214 68.2666 50.109 86.5598 49.7802 109.191L50.0079 112.684C53.1083 138.753 87.1603 159.289 128.711 159.289Z" fill="black" fill-opacity="0.2"/>
</svg>
