<svg width="257" height="256" viewBox="0 0 257 256" fill="none" xmlns="http://www.w3.org/2000/svg">
<path fill-rule="evenodd" clip-rule="evenodd" d="M128.034 220.116C156.023 220.116 181.628 212.389 200.404 199.582C219.15 186.797 231.6 168.513 231.6 147.57V109.545C231.6 88.602 219.15 70.3186 200.404 57.5329C181.628 44.7266 156.023 36.9993 128.034 36.9993C100.045 36.9993 74.4403 44.7266 55.6642 57.5329C36.9183 70.3186 24.468 88.602 24.468 109.545V147.57C24.468 168.513 36.9183 186.797 55.6642 199.582C74.4403 212.389 100.045 220.116 128.034 220.116Z" fill="#5A1E4D"/>
<path d="M225.596 147.57C225.596 184.32 181.916 214.112 128.034 214.112C74.152 214.112 30.4719 184.32 30.4719 147.57V109.545C30.4719 72.795 74.152 43.0029 128.034 43.0029C181.916 43.0029 225.596 72.795 225.596 109.545V147.57Z" fill="#FF8BA0"/>
<path d="M128.034 214.112C181.916 214.112 225.596 184.32 225.596 147.57V109.546C225.596 146.296 181.916 176.088 128.034 176.088C74.1515 176.088 30.4714 146.296 30.4714 109.546V147.57C30.4714 184.32 74.1515 214.112 128.034 214.112Z" fill="#1A0023" fill-opacity="0.4"/>
<path d="M207.918 109.191C207.589 86.5598 172.377 68.2666 128.987 68.2666C85.5976 68.2666 50.3851 86.5598 50.0563 109.191C50.0547 109.061 50.054 108.93 50.054 108.8C50.054 80.9156 85.3934 58.311 128.987 58.311C172.581 58.311 207.921 80.9156 207.921 108.8C207.921 108.931 207.92 109.061 207.918 109.191Z" fill="#1A0023" fill-opacity="0.4"/>
<path d="M128.987 159.289C170.538 159.289 204.59 138.753 207.691 112.684L207.918 109.191C207.589 86.5598 172.377 68.2666 128.987 68.2666C85.5976 68.2666 50.3851 86.5598 50.0563 109.191L50.284 112.684C53.3844 138.753 87.4364 159.289 128.987 159.289Z" fill="#1A0023" fill-opacity="0.15"/>
</svg>
