<svg width="257" height="256" viewBox="0 0 257 256" fill="none" xmlns="http://www.w3.org/2000/svg">
<path fill-rule="evenodd" clip-rule="evenodd" d="M128.347 220.116C156.336 220.116 181.941 212.389 200.717 199.582C219.463 186.797 231.913 168.513 231.913 147.57V109.545C231.913 88.602 219.463 70.3186 200.717 57.5329C181.941 44.7266 156.336 36.9993 128.347 36.9993C100.358 36.9993 74.7533 44.7266 55.9772 57.5329C37.2313 70.3186 24.781 88.602 24.781 109.545V147.57C24.781 168.513 37.2313 186.797 55.9772 199.582C74.7533 212.389 100.358 220.116 128.347 220.116Z" fill="#0A0916"/>
<path d="M225.909 147.57C225.909 184.32 182.229 214.112 128.347 214.112C74.465 214.112 30.7849 184.32 30.7849 147.57V109.545C30.7849 72.795 74.465 43.0029 128.347 43.0029C182.229 43.0029 225.909 72.795 225.909 109.545V147.57Z" fill="#46466E"/>
<path d="M128.347 214.112C182.229 214.112 225.909 184.32 225.909 147.57V109.546C225.909 146.296 182.229 176.088 128.347 176.088C74.4645 176.088 30.7844 146.296 30.7844 109.546V147.57C30.7844 184.32 74.4645 214.112 128.347 214.112Z" fill="black" fill-opacity="0.5"/>
<path d="M208.231 109.191C207.902 86.5598 172.69 68.2666 129.3 68.2666C85.9106 68.2666 50.6981 86.5598 50.3693 109.191C50.3677 109.061 50.3669 108.93 50.3669 108.8C50.3669 80.9156 85.7064 58.311 129.3 58.311C172.894 58.311 208.234 80.9156 208.234 108.8C208.234 108.931 208.233 109.061 208.231 109.191Z" fill="black" fill-opacity="0.5"/>
<path d="M129.3 159.289C170.851 159.289 204.903 138.753 208.004 112.684L208.231 109.191C207.902 86.5598 172.69 68.2666 129.3 68.2666C85.9106 68.2666 50.6981 86.5598 50.3693 109.191L50.597 112.684C53.6974 138.753 87.7494 159.289 129.3 159.289Z" fill="black" fill-opacity="0.2"/>
</svg>
