<svg width="257" height="256" viewBox="0 0 257 256" fill="none" xmlns="http://www.w3.org/2000/svg">
<path fill-rule="evenodd" clip-rule="evenodd" d="M128.623 220.116C156.612 220.116 182.217 212.389 200.993 199.582C219.739 186.797 232.189 168.513 232.189 147.57V109.545C232.189 88.602 219.739 70.3186 200.993 57.5329C182.217 44.7266 156.612 36.9993 128.623 36.9993C100.634 36.9993 75.0295 44.7266 56.2534 57.5329C37.5076 70.3186 25.0573 88.602 25.0573 109.545V147.57C25.0573 168.513 37.5076 186.797 56.2534 199.582C75.0295 212.389 100.634 220.116 128.623 220.116Z" fill="#5A1E4D"/>
<path d="M226.185 147.57C226.185 184.32 182.505 214.112 128.623 214.112C74.7412 214.112 31.0612 184.32 31.0612 147.57V109.545C31.0612 72.795 74.7412 43.0029 128.623 43.0029C182.505 43.0029 226.185 72.795 226.185 109.545V147.57Z" fill="#FF8BA0"/>
<path d="M128.623 214.112C182.505 214.112 226.185 184.32 226.185 147.57V109.546C226.185 146.296 182.505 176.088 128.623 176.088C74.7409 176.088 31.0608 146.296 31.0608 109.546V147.57C31.0608 184.32 74.7409 214.112 128.623 214.112Z" fill="#1A0023" fill-opacity="0.4"/>
<path d="M208.508 109.191C208.179 86.5598 172.966 68.2666 129.577 68.2666C86.1868 68.2666 50.9743 86.5598 50.6455 109.191C50.644 109.061 50.6432 108.93 50.6432 108.8C50.6432 80.9156 85.9827 58.311 129.577 58.311C173.17 58.311 208.51 80.9156 208.51 108.8C208.51 108.931 208.509 109.061 208.508 109.191Z" fill="#1A0023" fill-opacity="0.4"/>
<path d="M129.577 159.289C171.127 159.289 205.179 138.753 208.28 112.684L208.508 109.191C208.179 86.5598 172.966 68.2666 129.577 68.2666C86.1868 68.2666 50.9743 86.5598 50.6455 109.191L50.8732 112.684C53.9736 138.753 88.0256 159.289 129.577 159.289Z" fill="#1A0023" fill-opacity="0.15"/>
</svg>
