<svg width="257" height="256" viewBox="0 0 257 256" fill="none" xmlns="http://www.w3.org/2000/svg">
<path fill-rule="evenodd" clip-rule="evenodd" d="M128.721 220.116C156.71 220.116 182.315 212.389 201.091 199.582C219.837 186.797 232.287 168.513 232.287 147.57V109.545C232.287 88.602 219.837 70.3186 201.091 57.5329C182.315 44.7266 156.71 36.9993 128.721 36.9993C100.732 36.9993 75.1275 44.7266 56.3514 57.5329C37.6056 70.3186 25.1553 88.602 25.1553 109.545V147.57C25.1553 168.513 37.6056 186.797 56.3514 199.582C75.1275 212.389 100.732 220.116 128.721 220.116Z" fill="#5A1E4D"/>
<path d="M226.283 147.57C226.283 184.32 182.603 214.112 128.721 214.112C74.8392 214.112 31.1592 184.32 31.1592 147.57V109.545C31.1592 72.795 74.8392 43.0029 128.721 43.0029C182.603 43.0029 226.283 72.795 226.283 109.545V147.57Z" fill="#FF8BA0"/>
<path d="M128.721 214.112C182.603 214.112 226.283 184.32 226.283 147.57V109.546C226.283 146.296 182.603 176.088 128.721 176.088C74.8388 176.088 31.1587 146.296 31.1587 109.546V147.57C31.1587 184.32 74.8388 214.112 128.721 214.112Z" fill="#1A0023" fill-opacity="0.4"/>
<path d="M208.605 109.191C208.276 86.5598 173.064 68.2666 129.674 68.2666C86.2841 68.2666 51.0716 86.5598 50.7428 109.191C50.7413 109.061 50.7405 108.93 50.7405 108.8C50.7405 80.9156 86.0799 58.311 129.674 58.311C173.268 58.311 208.607 80.9156 208.607 108.8C208.607 108.931 208.606 109.061 208.605 109.191Z" fill="#1A0023" fill-opacity="0.4"/>
<path d="M129.674 159.289C171.225 159.289 205.277 138.753 208.377 112.684L208.605 109.191C208.276 86.5598 173.064 68.2666 129.674 68.2666C86.2841 68.2666 51.0716 86.5598 50.7428 109.191L50.9705 112.684C54.0709 138.753 88.1229 159.289 129.674 159.289Z" fill="#1A0023" fill-opacity="0.15"/>
</svg>
