<svg width="257" height="256" viewBox="0 0 257 256" fill="none" xmlns="http://www.w3.org/2000/svg">
<path fill-rule="evenodd" clip-rule="evenodd" d="M127.985 220.116C155.974 220.116 181.579 212.389 200.355 199.582C219.101 186.797 231.551 168.513 231.551 147.57V109.545C231.551 88.602 219.101 70.3186 200.355 57.5329C181.579 44.7266 155.974 36.9993 127.985 36.9993C99.9962 36.9993 74.3915 44.7266 55.6153 57.5329C36.8695 70.3186 24.4192 88.602 24.4192 109.545V147.57C24.4192 168.513 36.8695 186.797 55.6153 199.582C74.3915 212.389 99.9962 220.116 127.985 220.116Z" fill="#5A1E4D"/>
<path d="M225.547 147.57C225.547 184.32 181.867 214.112 127.985 214.112C74.1029 214.112 30.4229 184.32 30.4229 147.57V109.545C30.4229 72.795 74.1029 43.0029 127.985 43.0029C181.867 43.0029 225.547 72.795 225.547 109.545V147.57Z" fill="#FF8BA0"/>
<path d="M127.985 214.112C181.867 214.112 225.547 184.32 225.547 147.57V109.546C225.547 146.296 181.867 176.088 127.985 176.088C74.1027 176.088 30.4226 146.296 30.4226 109.546V147.57C30.4226 184.32 74.1027 214.112 127.985 214.112Z" fill="#1A0023" fill-opacity="0.4"/>
<path d="M207.869 109.191C207.541 86.5598 172.328 68.2666 128.938 68.2666C85.5487 68.2666 50.3363 86.5598 50.0074 109.191C50.0059 109.061 50.0051 108.93 50.0051 108.8C50.0051 80.9156 85.3446 58.311 128.938 58.311C172.532 58.311 207.872 80.9156 207.872 108.8C207.872 108.931 207.871 109.061 207.869 109.191Z" fill="#1A0023" fill-opacity="0.4"/>
<path d="M128.938 159.289C170.489 159.289 204.541 138.753 207.642 112.684L207.869 109.191C207.541 86.5598 172.328 68.2666 128.938 68.2666C85.5487 68.2666 50.3363 86.5598 50.0074 109.191L50.2352 112.684C53.3356 138.753 87.3876 159.289 128.938 159.289Z" fill="#1A0023" fill-opacity="0.15"/>
</svg>
