<svg width="81" height="81" viewBox="0 0 81 81" fill="none" xmlns="http://www.w3.org/2000/svg">
<path d="M29.7 37.8H51.3L46.2 31.8H46.9C49.5 29.9 51.2 26.7 51.2 23.2C51.2 17.2 46.4 12.5 40.5 12.5C34.6 12.5 29.8 17.3 29.8 23.2C29.8 26.7 31.5 29.9 34.1 31.8H34.8L29.7 37.8ZM49.4 60.5L45.1 39.8H35.1L31.6 60.5L21 69.9H60L49.4 60.5Z" fill="#F5EEDC"/>
<path d="M40.5 59.7L47.8 71H61.6L51.2 60L49.8 59.1L46.9 38.9H40.5V59.7ZM44.4 38H52.5L47.2 31.5H41L44.4 38ZM45 13.3C48.7 18.8 46.1 30.9 34.8 30.9C34.6 30.9 46.9 31.5 47.9 30.6C49.8 28.7 51 26.2 51 23.3C51.1 17.3 44.8 12.1 45 13.3Z" fill="#97BFB4"/>
<path d="M15 72.2H66L51.5 59.4L47.3 39.4H55.5L48.4 31.4C51.3 29.2 52 25.8 52 23.3C52 16.9 47 11.9 40.6 11.9C34.3 11.9 29.2 17 29.2 23.3C29.2 25.8 29.8 29.2 32.8 31.4L25.7 39.4H33L29.6 59.4L15 72.2ZM31.4 23.3C31.4 18.3 35.5 14.2 40.5 14.2C45.6 14.2 49.6 18.2 49.6 23.3C49.6 25.6 48.8 27.7 47.2 29.4H33.8C32.3 27.7 31.4 25.5 31.4 23.3ZM35.2 31.7H45.9L50.4 37.3H30.7L35.2 31.7ZM35.4 39.4H44.8L49.2 60.6V60.7L59.4 69.7H21.6L31.8 60.6L35.4 39.4Z" fill="#222222"/>
</svg>
