<svg width="180" height="180" viewBox="0 0 180 180" fill="none" xmlns="http://www.w3.org/2000/svg">
<path d="M138.053 171.524H39.622C33.3606 160.128 29.635 147.73 28.4453 134.331C27.3182 120.868 29.1654 107.531 33.9867 94.3194C38.8081 81.108 46.0401 69.8372 55.6828 60.5076C65.3254 51.1153 76.3459 44.0711 88.7434 39.375C101.016 44.6347 111.88 51.9919 121.335 61.4469C130.789 70.9014 137.927 82.2037 142.749 95.3527C147.445 108.376 149.292 121.526 148.29 134.8C147.288 148.012 143.876 160.253 138.053 171.524ZM45.3513 161.85L133.45 162.132C141.59 141.907 141.684 120.743 133.732 98.64C129.599 87.3067 123.589 77.382 115.699 68.8669C107.81 60.3512 98.8245 53.6512 88.7434 48.7672C78.6622 53.1503 69.552 59.5682 61.412 68.0214C53.3347 76.4117 47.2298 86.2734 43.0972 97.6067C39.0899 108.502 37.3679 119.522 37.9314 130.668C38.495 141.813 40.9683 152.207 45.3513 161.85ZM79.5392 140.529C77.6604 136.898 77.9422 131.763 80.3846 125.126C82.8264 118.427 83.484 113.354 82.3567 109.911C81.2295 106.53 79.3198 106.748 76.6277 110.568C73.9974 114.325 71.8999 115.17 70.3344 113.104C68.7065 111.101 67.8926 108.064 67.8926 103.993C67.8926 99.8612 68.7065 96.7612 70.3344 94.6952C71.8999 92.6916 73.9035 93.0988 76.3459 95.9164C78.8501 98.6715 80.8537 99.2976 82.3567 97.7946C83.8597 96.417 83.2331 94.4758 80.478 91.9716C77.7859 89.4043 77.4726 87.3382 79.5392 85.7728C81.5428 84.2074 84.5797 83.4244 88.6494 83.4244C92.7821 83.4244 95.8815 84.2074 97.9476 85.7728C99.9517 87.3382 99.576 89.4043 96.8209 91.9716C94.1282 94.4758 93.5336 96.417 95.0361 97.7946C96.5391 99.2976 98.5112 98.6715 100.954 95.9164C103.458 93.0988 105.524 92.6916 107.152 94.6952C108.718 96.7612 109.5 99.8612 109.5 103.993C109.5 108.064 108.718 111.101 107.152 113.104C105.524 115.17 103.364 114.325 100.672 110.568C98.0415 106.748 96.1633 106.53 95.0361 109.911C93.9094 113.354 94.5664 118.427 97.0087 125.126C99.4506 131.763 99.7639 136.898 97.9476 140.529C96.0694 144.223 92.97 146.071 88.6494 146.071C84.3919 146.071 81.3549 144.223 79.5392 140.529Z" fill="#251327"/>
<path d="M45.3517 161.85L133.451 162.132C141.591 141.907 141.685 120.743 133.733 98.64C129.6 87.3068 123.589 77.382 115.7 68.8663C107.81 60.3512 98.8251 53.6512 88.7439 48.7672C78.6628 53.1503 69.5526 59.5682 61.4126 68.0215C53.3351 76.4117 47.2302 86.2735 43.0976 97.6067C39.0902 108.502 37.3683 119.522 37.9319 130.668C38.4954 141.813 40.9687 152.207 45.3517 161.85ZM79.5392 140.529C77.661 136.898 77.9428 131.763 80.3846 125.126C82.8264 118.427 83.484 113.354 82.3573 109.911C81.2301 106.53 79.3204 106.748 76.6277 110.568C73.998 114.325 71.9004 115.17 70.335 113.104C68.7071 111.101 67.8932 108.064 67.8932 103.993C67.8932 99.8612 68.7071 96.7613 70.335 94.6952C71.9004 92.6916 73.9041 93.0983 76.3459 95.9164C78.8507 98.6715 80.8543 99.2976 82.3573 97.7946C83.8598 96.417 83.2337 94.4758 80.4786 91.9716C77.7864 89.4043 77.4731 87.3377 79.5392 85.7728C81.5434 84.2074 84.5798 83.4244 88.65 83.4244C92.7827 83.4244 95.8821 84.2074 97.9481 85.7728C99.9518 87.3377 99.576 89.4043 96.8209 91.9716C94.1288 94.4758 93.5336 96.417 95.0366 97.7946C96.5396 99.2976 98.5118 98.6715 100.954 95.9164C103.458 93.0983 105.524 92.6916 107.152 94.6952C108.718 96.7613 109.501 99.8612 109.501 103.993C109.501 108.064 108.718 111.101 107.152 113.104C105.524 115.17 103.364 114.325 100.672 110.568C98.0421 106.748 96.1639 106.53 95.0366 109.911C93.9094 113.354 94.5669 118.427 97.0088 125.126C99.4511 131.763 99.7639 136.898 97.9481 140.529C96.0699 144.223 92.9706 146.071 88.65 146.071C84.3919 146.071 81.3555 144.223 79.5392 140.529Z" fill="#ED6663"/>
</svg>
