<svg width="180" height="180" viewBox="0 0 180 180" fill="none" xmlns="http://www.w3.org/2000/svg">
<path d="M108.835 74.9188C124.614 78.3 137.638 84.9684 147.907 94.9247C158.239 104.88 163.404 116.276 163.404 129.112C163.404 136.751 161.526 143.921 157.769 150.621C154.074 157.32 149.065 163.144 142.741 168.09H32.2886C18.2629 157.445 11.25 144.453 11.25 129.112C11.25 116.402 16.2905 105.099 26.3715 95.2059C36.5151 85.3133 49.445 78.5818 65.1611 75.0127C62.469 72.7588 61.1229 70.1601 61.1229 67.2176C61.1229 63.3352 63.6587 60.0165 68.7302 57.2614C73.8023 54.4439 79.9386 53.0351 87.1391 53.0351C94.2772 53.0351 100.382 54.4439 105.454 57.2614C110.589 60.0165 113.156 63.3352 113.156 67.2176C113.156 70.2855 111.715 72.8528 108.835 74.9188ZM138.796 156.819C147.625 148.867 152.039 139.475 152.039 128.643C152.039 116.057 145.716 105.287 133.067 96.3332C120.419 87.3169 105.172 82.8084 87.327 82.8084C69.4817 82.8084 54.2351 87.3169 41.5869 96.3332C28.9387 105.287 22.6146 116.057 22.6146 128.643C22.6146 139.224 27.2794 148.616 36.609 156.819H138.796ZM87.2331 61.8638C83.664 61.8638 80.6271 62.3959 78.1228 63.4607C75.6804 64.5249 74.4598 65.7771 74.4598 67.2176C74.4598 68.7201 75.6804 70.0037 78.1228 71.0679C80.6271 72.1328 83.664 72.6649 87.2331 72.6649C90.7397 72.6649 93.7451 72.1328 96.2499 71.0679C98.7542 70.0037 100.006 68.7201 100.006 67.2176C100.006 65.7771 98.7542 64.5249 96.2499 63.4607C93.7451 62.3959 90.7397 61.8638 87.2331 61.8638ZM70.4211 42.6097C68.8556 41.1069 68.0732 38.8841 68.0732 35.9412C68.0732 32.9357 68.8556 30.6816 70.4211 29.1788C71.9865 27.6761 74.0526 27.9578 76.6198 30.0241C79.1871 32.0278 81.2222 32.3409 82.7246 30.9633C84.2276 29.5858 83.9458 27.6447 81.8798 25.1401C79.8131 22.573 79.5628 20.5379 81.1283 19.0352C82.6307 17.5951 84.9161 16.875 87.9846 16.875C91.1154 16.875 93.4633 17.5951 95.0287 19.0352C96.5312 20.5379 96.2499 22.573 94.1833 25.1401C92.1797 27.6447 91.9294 29.5858 93.4318 30.9633C94.8724 32.3409 96.876 32.0278 99.4433 30.0241C102.011 27.9578 104.108 27.6761 105.736 29.1788C107.238 30.6816 107.99 32.9357 107.99 35.9412C107.99 38.8841 107.238 41.1069 105.736 42.6097C104.108 44.1125 102.011 43.8933 99.4433 41.9523C96.9384 39.9486 94.9348 39.5729 93.4318 40.8252C91.8039 42.1401 91.71 44.4882 93.15 47.8694C94.653 51.1879 94.7469 52.8472 93.4318 52.8472C91.9918 52.8472 90.3639 52.7847 88.5482 52.6595C86.7324 52.4716 84.7913 52.5342 82.7246 52.8472C80.6586 53.2229 80.5331 51.6576 82.3494 48.1511C84.1652 44.5821 84.2901 42.1401 82.7246 40.8252C81.1598 39.5729 79.0931 39.9486 76.5259 41.9523C74.0216 43.8933 71.9865 44.1125 70.4211 42.6097Z" fill="#251327"/>
<path d="M138.796 156.819C147.625 148.867 152.039 139.475 152.039 128.643C152.039 116.057 145.715 105.287 133.067 96.3332C120.418 87.3169 105.172 82.8084 87.3264 82.8084C69.4811 82.8084 54.2347 87.3169 41.5865 96.3332C28.9383 105.287 22.6141 116.057 22.6141 128.643C22.6141 139.224 27.2789 148.617 36.6086 156.819H138.796ZM87.2325 61.8638C83.6634 61.8638 80.6271 62.3959 78.1223 63.4607C75.6804 64.5249 74.4593 65.7771 74.4593 67.2176C74.4593 68.7201 75.6804 70.0037 78.1223 71.0685C80.6271 72.1328 83.6634 72.6649 87.2325 72.6649C90.7391 72.6649 93.7446 72.1328 96.2494 71.0685C98.7536 70.0037 100.006 68.7201 100.006 67.2176C100.006 65.7771 98.7536 64.5249 96.2494 63.4607C93.7446 62.3959 90.7391 61.8638 87.2325 61.8638Z" fill="#ED6663"/>
</svg>
