<svg width="32" height="32" viewBox="0 0 32 32" fill="none" xmlns="http://www.w3.org/2000/svg">
<path d="M23.9355 28.3013L21.9663 25.108H9.19324L7.22406 28.3013H23.9355ZM21.0083 24.2166C19.4028 23.0102 17.5933 22.407 15.5798 22.407C13.5574 22.407 11.7479 23.0102 10.1512 24.2166H21.0083ZM10.6701 20.0121C11.5483 19.6129 12.4796 19.3335 13.4642 19.1739L9.37951 15.0891L10.6701 20.0121ZM20.4894 19.9988L21.7933 15.1024L17.7219 19.1739C18.6355 19.3335 19.558 19.6085 20.4894 19.9988ZM15.46 19.8923C13.5618 19.9101 11.7745 20.3713 10.098 21.2761L7.63652 12.0555L15.46 19.8923ZM15.7128 19.8923L23.5363 12.0821L21.0748 21.2761C19.3895 20.3713 17.6022 19.9101 15.7128 19.8923ZM27.0489 6.95961L22.4453 24.2165L25.5587 29.1927H5.60081L8.71425 24.2166L4.09732 6.94631C3.9554 6.44071 3.9687 6.13469 4.13723 6.02824C4.2969 5.93954 4.60292 6.09477 5.0553 6.49393L13.7836 15.2222V11.0443H11.5084V7.86437H13.7836V6.49393H17.376V7.86437H19.6512V11.0443H17.376V15.2222L26.1309 6.49393C26.5655 6.0859 26.8715 5.93067 27.0489 6.02824C27.1997 6.14356 27.1997 6.45401 27.0489 6.95961V6.95961ZM16.4712 17.3909V10.0997H18.7464V8.76913H16.4712V7.39868H14.675V8.76913H12.4131V10.0997H14.675L14.6883 17.3909L5.3214 8.03734L9.48595 23.6045C11.2777 22.203 13.309 21.5023 15.5798 21.5023C17.8505 21.5023 19.8818 22.203 21.6736 23.6045L25.8514 8.02403L16.4712 17.3909Z" fill="black"/>
<path d="M23.9355 28.3013L21.9663 25.108H9.19328L7.2241 28.3013H23.9355ZM21.0084 24.2166C19.4029 23.0102 17.5933 22.4071 15.5798 22.4071C13.5574 22.4071 11.7479 23.0102 10.1513 24.2166H21.0084ZM15.4601 19.8924C13.5618 19.9101 11.7745 20.3713 10.098 21.2761L7.63656 12.0555L15.4601 19.8924ZM15.7129 19.8924L23.5364 12.0822L21.0749 21.2761C19.3896 20.3713 17.6022 19.9101 15.7129 19.8924ZM16.4713 17.391V10.0997H18.7465V8.76914H16.4713V7.3987H14.6751V8.76914H12.4132V10.0997H14.6751L14.6884 17.391L5.32144 8.03735L9.48599 23.6045C11.2778 22.203 13.309 21.5023 15.5798 21.5023C17.8506 21.5023 19.8818 22.203 21.6736 23.6045L25.8515 8.02404L16.4713 17.391Z" fill="white"/>
</svg>
