<svg width="32" height="32" viewBox="0 0 32 32" fill="none" xmlns="http://www.w3.org/2000/svg">
<path d="M9.04691 28.0202C10.2976 25.5721 11.8765 23.6206 13.7836 22.1659C14.6883 21.474 15.3847 20.6003 15.8725 19.5448C15.0742 19.9084 14.236 20.1125 13.3578 20.1568C11.9031 20.2544 10.7855 20.8753 10.0049 22.0196L6 18.2808L16.2051 6C16.5954 6.43464 17.0212 6.82049 17.4825 7.15756C17.9437 7.49463 18.3473 7.92039 18.6932 8.43487L20.2899 7.13095C20.6447 6.82049 20.9108 6.71405 21.0882 6.81162C21.2567 6.92693 21.27 7.21078 21.1281 7.66316L20.5826 9.35293C22.0905 11.2423 23.3323 13.3933 24.3081 15.806C25.1419 17.8994 25.6962 19.9617 25.9712 21.9929C26.2551 24.0153 26.2772 25.8648 26.0377 27.5412C24.0686 28.2863 22.024 28.7831 19.904 29.0314C17.8816 29.2798 15.9435 29.3108 14.0896 29.1246C12.2357 28.9383 10.5548 28.5702 9.04691 28.0202ZM20.9418 27.0889C21.4208 25.4479 21.6204 23.5851 21.5406 21.5006C21.4607 19.4073 21.066 17.2563 20.3564 15.0476C19.9218 13.6904 19.4073 12.4531 18.813 11.3354C18.2187 10.2089 17.5578 9.15335 16.8305 8.16876C16.4491 7.61881 16.1164 7.43697 15.8326 7.62324C15.5931 7.78291 15.6197 8.08449 15.9124 8.528C16.5866 9.46824 17.203 10.475 17.7619 11.5483C18.3207 12.6127 18.8041 13.7792 19.2121 15.0476C19.904 17.203 20.2943 19.3008 20.383 21.341C20.4806 23.3723 20.3076 25.1995 19.8641 26.8228C19.669 27.4969 19.7488 27.8827 20.1036 27.9803C20.4407 28.0601 20.7201 27.763 20.9418 27.0889ZM15.0609 12.2535C14.6174 11.8721 14.1827 11.6104 13.757 11.4685C13.3401 11.3265 13.0518 11.3487 12.8921 11.535C12.7236 11.7213 12.7369 12.0184 12.932 12.4264C13.1361 12.8256 13.4598 13.2115 13.9033 13.584C14.338 13.9654 14.7637 14.2271 15.1806 14.369C15.6064 14.5109 15.8991 14.4888 16.0588 14.3025C16.2185 14.1251 16.2007 13.8368 16.0056 13.4376C15.8104 13.0385 15.4955 12.6438 15.0609 12.2535ZM23.8557 18.467C24.1661 18.4848 24.3214 18.3295 24.3214 18.0014C24.3214 17.7796 24.2105 17.6288 23.9887 17.549C23.696 17.4159 23.3944 17.3139 23.084 17.243C22.7646 17.172 22.4409 17.1276 22.1127 17.1099C21.8111 17.101 21.6603 17.2518 21.6603 17.5623C21.6603 17.8727 21.8155 18.028 22.126 18.028C22.2236 18.0368 22.4719 18.0812 22.8711 18.161C23.2082 18.2409 23.5364 18.3429 23.8557 18.467ZM24.4411 22.126C24.5121 22.1615 24.5786 22.1792 24.6407 22.1792C24.9423 22.1792 25.0931 22.024 25.0931 21.7135C25.0931 21.5273 25.0088 21.3898 24.8403 21.3011C24.5564 21.1325 24.2282 20.9862 23.8557 20.862C23.4831 20.7378 23.0973 20.6535 22.6981 20.6092C22.3877 20.6092 22.2324 20.7644 22.2324 21.0749C22.2324 21.3853 22.3832 21.5406 22.6848 21.5406C23.013 21.6115 23.3057 21.6869 23.563 21.7668C23.8468 21.8555 24.1395 21.9752 24.4411 22.126ZM24.827 25.6519C24.8536 25.6696 24.8935 25.6785 24.9467 25.6785C25.2483 25.6785 25.3991 25.5233 25.3991 25.2128C25.3991 25.0709 25.337 24.9511 25.2128 24.8536C24.8491 24.5786 24.4722 24.3568 24.0819 24.1883C23.6029 23.9932 23.1727 23.8734 22.7913 23.8291C22.4897 23.8291 22.3389 23.9799 22.3389 24.2814C22.3389 24.5032 22.4365 24.6495 22.6316 24.7205C22.9953 24.7915 23.3545 24.9023 23.7093 25.0531C24.1262 25.2394 24.4988 25.439 24.827 25.6519V25.6519ZM22.3788 14.9145C22.6715 14.9145 22.8179 14.7593 22.8179 14.4489C22.8179 14.2271 22.7114 14.0763 22.4985 13.9965C22.3123 13.9521 22.157 13.9166 22.0329 13.89C21.6692 13.8457 21.3587 13.8279 21.1015 13.8368C20.9063 13.9166 20.8088 14.063 20.8088 14.2759C20.8088 14.5863 20.9418 14.746 21.2079 14.7549C21.4474 14.7549 21.678 14.777 21.8998 14.8214C22.0062 14.848 22.1659 14.8791 22.3788 14.9145ZM20.9551 12.2934C21.1503 12.2047 21.2478 12.0628 21.2478 11.8676C21.2478 11.5572 21.0971 11.4019 20.7955 11.4019C20.7334 11.4019 20.6935 11.4019 20.6757 11.4019C20.658 11.4019 20.6225 11.3975 20.5693 11.3886C20.4274 11.3798 20.2056 11.3842 19.904 11.4019C19.7177 11.4818 19.6246 11.6237 19.6246 11.8277C19.6246 12.1027 19.7665 12.2402 20.0504 12.2402C20.2278 12.2402 20.3608 12.2446 20.4495 12.2535C20.6092 12.2535 20.7777 12.2668 20.9551 12.2934V12.2934Z" fill="black"/>
<path d="M20.9418 27.0889C21.4208 25.4479 21.6204 23.5851 21.5405 21.5006C21.4607 19.4073 21.066 17.2563 20.3564 15.0476C19.9217 13.6905 19.4073 12.4531 18.813 11.3354C18.2187 10.2089 17.5578 9.15335 16.8305 8.16876C16.4491 7.61881 16.1164 7.43697 15.8326 7.62325C15.5931 7.78291 15.6197 8.0845 15.9124 8.528C16.5865 9.46824 17.203 10.475 17.7618 11.5483C18.3207 12.6127 18.8041 13.7792 19.2121 15.0476C19.904 17.203 20.2943 19.3008 20.383 21.341C20.4806 23.3723 20.3076 25.1995 19.8641 26.8228C19.6689 27.4969 19.7488 27.8827 20.1036 27.9803C20.4406 28.0601 20.7201 27.763 20.9418 27.0889ZM15.0609 12.2535C14.6174 11.8721 14.1827 11.6104 13.757 11.4685C13.3401 11.3265 13.0518 11.3487 12.8921 11.535C12.7236 11.7213 12.7369 12.0184 12.932 12.4265C13.136 12.8256 13.4598 13.2115 13.9033 13.584C14.338 13.9654 14.7637 14.2271 15.1806 14.369C15.6064 14.5109 15.8991 14.4888 16.0588 14.3025C16.2184 14.1251 16.2007 13.8368 16.0055 13.4377C15.8104 13.0385 15.4955 12.6438 15.0609 12.2535ZM23.8557 18.467C24.1661 18.4848 24.3213 18.3295 24.3213 18.0014C24.3213 17.7796 24.2105 17.6288 23.9887 17.549C23.696 17.4159 23.3944 17.3139 23.084 17.243C22.7646 17.172 22.4409 17.1276 22.1127 17.1099C21.8111 17.101 21.6603 17.2518 21.6603 17.5623C21.6603 17.8727 21.8155 18.028 22.126 18.028C22.2235 18.0368 22.4719 18.0812 22.8711 18.161C23.2081 18.2409 23.5363 18.3429 23.8557 18.467ZM24.4411 22.126C24.5121 22.1615 24.5786 22.1792 24.6407 22.1792C24.9423 22.1792 25.0931 22.024 25.0931 21.7135C25.0931 21.5273 25.0088 21.3898 24.8403 21.3011C24.5564 21.1325 24.2282 20.9862 23.8557 20.862C23.4831 20.7378 23.0973 20.6535 22.6981 20.6092C22.3876 20.6092 22.2324 20.7644 22.2324 21.0749C22.2324 21.3853 22.3832 21.5406 22.6848 21.5406C23.013 21.6115 23.3057 21.6869 23.5629 21.7668C23.8468 21.8555 24.1395 21.9752 24.4411 22.126ZM24.8269 25.6519C24.8536 25.6696 24.8935 25.6785 24.9467 25.6785C25.2483 25.6785 25.3991 25.5233 25.3991 25.2128C25.3991 25.0709 25.337 24.9511 25.2128 24.8536C24.8491 24.5786 24.4721 24.3568 24.0819 24.1883C23.6029 23.9932 23.1727 23.8734 22.7912 23.8291C22.4897 23.8291 22.3389 23.9799 22.3389 24.2814C22.3389 24.5032 22.4364 24.6496 22.6316 24.7205C22.9953 24.7915 23.3545 24.9024 23.7093 25.0531C24.1262 25.2394 24.4988 25.439 24.8269 25.6519ZM22.3788 14.9145C22.6715 14.9145 22.8179 14.7593 22.8179 14.4489C22.8179 14.2271 22.7114 14.0763 22.4985 13.9965C22.3123 13.9521 22.157 13.9166 22.0328 13.89C21.6692 13.8457 21.3587 13.8279 21.1015 13.8368C20.9063 13.9166 20.8088 14.063 20.8088 14.2759C20.8088 14.5863 20.9418 14.746 21.2079 14.7549C21.4474 14.7549 21.678 14.777 21.8998 14.8214C22.0062 14.848 22.1659 14.8791 22.3788 14.9145ZM20.9551 12.2934C21.1503 12.2047 21.2478 12.0628 21.2478 11.8676C21.2478 11.5572 21.097 11.4019 20.7954 11.4019C20.7334 11.4019 20.6934 11.4019 20.6757 11.4019C20.658 11.4019 20.6225 11.3975 20.5693 11.3886C20.4273 11.3798 20.2056 11.3842 19.904 11.4019C19.7177 11.4818 19.6246 11.6237 19.6246 11.8277C19.6246 12.1027 19.7665 12.2402 20.0504 12.2402C20.2278 12.2402 20.3608 12.2446 20.4495 12.2535C20.6092 12.2535 20.7777 12.2668 20.9551 12.2934Z" fill="white"/>
</svg>
