<svg width="32" height="32" viewBox="0 0 32 32" fill="none" xmlns="http://www.w3.org/2000/svg">
<path d="M9.04691 28.0202C10.2976 25.5721 11.8765 23.6206 13.7836 22.1659C14.6883 21.474 15.3847 20.6003 15.8725 19.5448C15.0742 19.9084 14.236 20.1125 13.3578 20.1568C11.9031 20.2544 10.7855 20.8753 10.0049 22.0196L6 18.2808L16.2051 6C16.5954 6.43464 17.0212 6.82049 17.4825 7.15756C17.9437 7.49463 18.3473 7.92039 18.6932 8.43487L20.2899 7.13095C20.6447 6.82049 20.9108 6.71405 21.0882 6.81162C21.2567 6.92694 21.27 7.21078 21.1281 7.66316L20.5826 9.35293C22.0905 11.2423 23.3323 13.3933 24.3081 15.806C25.1419 17.8994 25.6962 19.9617 25.9712 21.9929C26.2551 24.0153 26.2772 25.8648 26.0377 27.5412C24.0686 28.2863 22.024 28.7831 19.904 29.0314C17.8816 29.2798 15.9435 29.3108 14.0896 29.1246C12.2357 28.9383 10.5548 28.5702 9.04691 28.0202ZM10.271 27.5013C13.1183 28.344 16.2938 28.5569 19.7976 28.14C19.9129 28.1311 20.0326 28.1178 20.1568 28.1001C20.281 28.0735 20.4052 28.0513 20.5294 28.0335C21.1414 26.3837 21.4386 24.4189 21.4208 22.1393C21.4031 19.8597 21.0217 17.4913 20.2766 15.0343C19.7976 13.482 19.2166 12.0849 18.5336 10.8431C17.8594 9.59242 17.1099 8.4393 16.285 7.38375L13.2913 10.9762C13.9566 10.8609 14.6617 11.0737 15.4068 11.6148C15.9657 12.0229 16.3515 12.4974 16.5644 13.0385C16.7773 13.5796 16.7551 14.0231 16.4979 14.369C16.2406 14.7327 15.8237 14.8968 15.2472 14.8613C14.6706 14.817 14.1029 14.5908 13.5441 14.1827C12.7369 13.6239 12.3067 12.972 12.2535 12.2269L7.264 18.2275L9.92506 20.7289C10.8653 19.8419 11.9918 19.3496 13.3046 19.2521C14.9899 19.1722 16.3959 18.4937 17.5224 17.2163C17.8506 16.7906 18.1344 16.6664 18.3739 16.8438C18.5957 17.0389 18.5469 17.3405 18.2275 17.7486C17.8639 18.1743 17.4558 18.5557 17.0035 18.8928C16.5245 20.4717 15.6197 21.7712 14.2892 22.7913C12.7192 23.9976 11.3798 25.5676 10.271 27.5013ZM19.3053 10.3641L19.8242 8.7675L18.8795 9.59242C19.0126 9.85853 19.1545 10.1158 19.3053 10.3641ZM21.168 11.6947C20.8221 11.1624 20.5161 10.7234 20.2499 10.3774L19.8907 11.4951C19.9173 11.6015 19.9484 11.668 19.9838 11.6947C20.2145 11.668 20.5072 11.6592 20.862 11.6681C20.9241 11.6681 21.0261 11.6769 21.168 11.6947ZM22.4985 13.9699C22.1792 13.3844 21.9353 12.9454 21.7668 12.6526C21.545 12.6083 21.1991 12.5639 20.7289 12.5196C20.4628 12.5196 20.3298 12.5196 20.3298 12.5196C20.5338 13.0252 20.7023 13.4687 20.8354 13.8501C21.2168 13.8235 21.616 13.8368 22.0329 13.89C22.2457 13.9255 22.401 13.9521 22.4985 13.9699ZM23.9887 17.5357C23.7847 16.9591 23.6117 16.4979 23.4698 16.1519C23.3811 15.9213 23.2392 15.5754 23.0441 15.1141C22.707 14.9899 22.3256 14.8924 21.8998 14.8214C21.545 14.7859 21.2922 14.7682 21.1414 14.7682C21.4075 15.7084 21.6071 16.489 21.7401 17.1099C22.1304 17.0922 22.5784 17.1365 23.084 17.243C23.4388 17.3317 23.7404 17.4292 23.9887 17.5357ZM24.9866 21.3942C24.8358 20.5249 24.6363 19.6556 24.3879 18.7864C24.042 18.538 23.5364 18.3296 22.8711 18.161C22.534 18.0812 22.2236 18.0413 21.9397 18.0413C22.0816 18.9993 22.1836 19.8508 22.2457 20.5959C22.7868 20.5959 23.3235 20.6846 23.8557 20.862C24.2814 21.0039 24.6584 21.1813 24.9866 21.3942ZM22.2457 23.7892C22.8578 23.7892 23.4698 23.9222 24.0819 24.1883C24.5431 24.3835 24.96 24.6407 25.3326 24.96C25.3148 24.2238 25.2616 23.4565 25.1729 22.6582C24.8891 22.33 24.3524 22.0329 23.563 21.7668C23.0574 21.616 22.636 21.5317 22.299 21.514C22.3078 22.3566 22.2901 23.115 22.2457 23.7892ZM14.8746 12.3998C14.0231 11.7789 13.4643 11.6459 13.1982 12.0007C13.0917 12.1515 13.1228 12.3732 13.2913 12.6659C13.4687 12.9498 13.7392 13.2159 14.1029 13.4643C14.4488 13.7304 14.7815 13.9033 15.1008 13.9832C15.429 14.063 15.6463 14.0231 15.7528 13.8634C15.8592 13.7215 15.8237 13.5086 15.6463 13.2248C15.4778 12.9321 15.2206 12.6571 14.8746 12.3998ZM21.4873 27.8739C22.0994 27.7586 22.6981 27.6255 23.2836 27.4747C23.2481 27.457 23.0973 27.3683 22.8312 27.2086C22.4054 27.0046 22.055 26.8627 21.7801 26.7828C21.7091 27.1199 21.6115 27.4836 21.4873 27.8739ZM21.9663 25.8914C22.3921 25.9801 22.8312 26.1398 23.2836 26.3704C23.7182 26.6187 24.0819 26.8804 24.3746 27.1554C24.5165 27.1199 24.6584 27.08 24.8004 27.0356C24.9511 26.9824 25.1019 26.9292 25.2527 26.876C25.2527 26.7695 25.2572 26.6631 25.266 26.5567C25.2838 26.4413 25.2971 26.326 25.306 26.2107C25.1197 25.8204 24.5875 25.4346 23.7093 25.0532C23.1416 24.8225 22.6316 24.6895 22.1792 24.654C22.0994 25.1773 22.0284 25.5898 21.9663 25.8914H21.9663Z" fill="black"/>
<path d="M10.271 27.5013C13.1183 28.344 16.2938 28.5569 19.7975 28.14C19.9129 28.1311 20.0326 28.1178 20.1568 28.1C20.281 28.0734 20.4052 28.0513 20.5293 28.0335C21.1414 26.3837 21.4385 24.4189 21.4208 22.1393C21.4031 19.8596 21.0216 17.4913 20.2765 15.0343C19.7975 13.482 19.2166 12.0849 18.5335 10.8431C17.8594 9.5924 17.1099 8.43928 16.285 7.38373L13.2913 10.9762C13.9565 10.8608 14.6617 11.0737 15.4068 11.6148C15.9656 12.0228 16.3515 12.4974 16.5644 13.0385C16.7773 13.5796 16.7551 14.0231 16.4978 14.369C16.2406 14.7327 15.8237 14.8968 15.2471 14.8613C14.6706 14.8169 14.1029 14.5908 13.5441 14.1827C12.7369 13.6239 12.3067 12.9719 12.2535 12.2268L7.26398 18.2275L9.92503 20.7289C10.8653 19.8419 11.9918 19.3496 13.3046 19.252C14.9899 19.1722 16.3958 18.4936 17.5223 17.2163C17.8505 16.7906 18.1344 16.6664 18.3739 16.8438C18.5956 17.0389 18.5469 17.3405 18.2275 17.7485C17.8638 18.1743 17.4558 18.5557 17.0034 18.8928C16.5244 20.4717 15.6197 21.7712 14.2892 22.7912C12.7191 23.9976 11.3797 25.5676 10.271 27.5013ZM19.3053 10.3641L19.8242 8.76748L18.8795 9.5924C19.0125 9.85851 19.1545 10.1157 19.3053 10.3641ZM21.168 11.6946C20.8221 11.1624 20.516 10.7234 20.2499 10.3774L19.8907 11.4951C19.9173 11.6015 19.9483 11.668 19.9838 11.6946C20.2144 11.668 20.5072 11.6592 20.862 11.668C20.9241 11.668 21.0261 11.6769 21.168 11.6946ZM22.4985 13.9698C22.1792 13.3844 21.9353 12.9453 21.7667 12.6526C21.545 12.6083 21.199 12.5639 20.7289 12.5196C20.4628 12.5196 20.3298 12.5196 20.3298 12.5196C20.5338 13.0252 20.7023 13.4687 20.8354 13.8501C21.2168 13.8235 21.6159 13.8368 22.0328 13.89C22.2457 13.9255 22.4009 13.9521 22.4985 13.9698ZM23.9887 17.5357C23.7847 16.9591 23.6117 16.4978 23.4698 16.1519C23.3811 15.9213 23.2392 15.5753 23.044 15.1141C22.707 14.9899 22.3256 14.8923 21.8998 14.8214C21.545 14.7859 21.2922 14.7682 21.1414 14.7682C21.4075 15.7084 21.6071 16.489 21.7401 17.1099C22.1304 17.0922 22.5784 17.1365 23.084 17.2429C23.4388 17.3316 23.7403 17.4292 23.9887 17.5357ZM24.9866 21.3942C24.8358 20.5249 24.6362 19.6556 24.3879 18.7864C24.0419 18.538 23.5363 18.3295 22.8711 18.161C22.534 18.0812 22.2235 18.0413 21.9397 18.0413C22.0816 18.9992 22.1836 19.8508 22.2457 20.5959C22.7868 20.5959 23.3234 20.6846 23.8557 20.862C24.2814 21.0039 24.6584 21.1813 24.9866 21.3942ZM22.2457 23.7891C22.8578 23.7891 23.4698 23.9222 24.0818 24.1883C24.5431 24.3834 24.96 24.6407 25.3325 24.96C25.3148 24.2238 25.2616 23.4565 25.1729 22.6582C24.889 22.33 24.3524 22.0328 23.5629 21.7667C23.0573 21.6159 22.636 21.5317 22.2989 21.5139C22.3078 22.3566 22.2901 23.115 22.2457 23.7891ZM14.8746 12.3998C14.0231 11.7789 13.4642 11.6459 13.1981 12.0007C13.0917 12.1515 13.1227 12.3732 13.2913 12.6659C13.4687 12.9498 13.7392 13.2159 14.1029 13.4642C14.4488 13.7303 14.7815 13.9033 15.1008 13.9831C15.429 14.063 15.6463 14.0231 15.7527 13.8634C15.8592 13.7215 15.8237 13.5086 15.6463 13.2247C15.4778 12.932 15.2205 12.6571 14.8746 12.3998ZM21.4873 27.8739C22.0994 27.7585 22.6981 27.6255 23.2835 27.4747C23.248 27.457 23.0973 27.3683 22.8312 27.2086C22.4054 27.0046 22.055 26.8627 21.78 26.7828C21.7091 27.1199 21.6115 27.4836 21.4873 27.8739ZM21.9663 25.8914C22.3921 25.9801 22.8312 26.1397 23.2835 26.3704C23.7182 26.6187 24.0818 26.8804 24.3746 27.1554C24.5165 27.1199 24.6584 27.08 24.8003 27.0356C24.9511 26.9824 25.1019 26.9292 25.2527 26.876C25.2527 26.7695 25.2572 26.6631 25.266 26.5566C25.2838 26.4413 25.2971 26.326 25.3059 26.2107C25.1197 25.8204 24.5875 25.4346 23.7093 25.0531C23.1416 24.8225 22.6316 24.6895 22.1792 24.654C22.0994 25.1773 22.0284 25.5898 21.9663 25.8914Z" fill="white"/>
</svg>
