<svg width="32" height="32" viewBox="0 0 32 32" fill="none" xmlns="http://www.w3.org/2000/svg">
<path d="M16.0022 23.9578H25.4132C25.7197 23.9488 25.9044 24.0027 25.9675 24.1196C26.0216 24.2364 26.0081 24.3757 25.927 24.5375L23.8176 29H8.18673L6.09089 24.5375C5.99174 24.3757 5.97371 24.2364 6.03681 24.1196C6.10892 24.0027 6.29372 23.9488 6.59119 23.9578H16.0022ZM16.0022 15.2351C14.7221 15.2351 13.6269 14.7857 12.7164 13.8869C11.815 12.9791 11.3643 11.8871 11.3643 10.6108C11.3643 9.34349 11.815 8.26045 12.7164 7.36166C13.6269 6.45389 14.7221 6 16.0022 6C17.2732 6 18.3639 6.45389 19.2744 7.36166C20.1848 8.26045 20.6401 9.34349 20.6401 10.6108C20.6401 11.8871 20.1848 12.9791 19.2744 13.8869C18.3639 14.7857 17.2732 15.2351 16.0022 15.2351ZM21.5054 23.0275H10.4448C12.2116 20.9424 13.352 18.5696 13.8658 15.9091C14.5419 16.1878 15.254 16.3271 16.0022 16.3271C16.7143 16.3271 17.4264 16.1833 18.1386 15.8957C18.6434 18.61 19.7657 20.9873 21.5054 23.0275Z" fill="black"/>
</svg>
