<svg width="32" height="32" viewBox="0 0 32 32" fill="none" xmlns="http://www.w3.org/2000/svg">
<path d="M10.7862 23.7226H20.8982C18.6541 21.2212 17.3235 18.3118 16.9066 14.9944C16.5696 15.0742 16.2148 15.1141 15.8422 15.1141C15.4785 15.1141 15.1237 15.0742 14.7778 14.9944C14.3343 18.3118 13.0037 21.2212 10.7862 23.7226ZM15.8422 14.1694C16.8268 14.1694 17.6739 13.8191 18.3835 13.1183C19.0931 12.4087 19.4479 11.5527 19.4479 10.5504C19.4479 9.56581 19.0931 8.71871 18.3835 8.0091C17.6739 7.29948 16.8268 6.94467 15.8422 6.94467C14.8399 6.94467 13.9839 7.29948 13.2743 8.0091C12.5735 8.71871 12.2232 9.56581 12.2232 10.5504C12.2232 11.5527 12.5735 12.4087 13.2743 13.1183C13.9839 13.8191 14.8399 14.1694 15.8422 14.1694ZM24.4374 24.6141H7.23369L8.71058 27.8073H22.9605L24.4374 24.6141ZM25.1027 23.7226C25.4043 23.7138 25.5861 23.767 25.6482 23.8823C25.7014 23.9976 25.6881 24.1351 25.6083 24.2948L23.5327 28.6988H8.15176L6.08944 24.2948C5.99187 24.1351 5.97413 23.9976 6.03622 23.8823C6.10718 23.767 6.28902 23.7138 6.58174 23.7226H9.54881C12.0236 21.2212 13.4783 18.2098 13.9129 14.6883C13.1324 14.3247 12.4981 13.7747 12.0103 13.0385C11.5224 12.2934 11.2785 11.464 11.2785 10.5504C11.2785 9.29971 11.722 8.23085 12.609 7.34383C13.5049 6.44795 14.5826 6 15.8422 6C17.0929 6 18.1662 6.44795 19.0621 7.34383C19.958 8.23085 20.4059 9.29971 20.4059 10.5504C20.4059 11.464 20.1576 12.2934 19.6608 13.0385C19.173 13.7747 18.5432 14.3247 17.7715 14.6883C17.9755 16.4446 18.4589 18.0945 19.2217 19.6379C19.9846 21.1725 20.9559 22.534 22.1356 23.7226H25.1027Z" fill="black"/>
<path d="M10.7862 23.7226H20.8982C18.654 21.2212 17.3235 18.3118 16.9066 14.9943C16.5695 15.0742 16.2147 15.1141 15.8422 15.1141C15.4785 15.1141 15.1237 15.0742 14.7778 14.9943C14.3343 18.3118 13.0037 21.2212 10.7862 23.7226ZM15.8422 14.1694C16.8268 14.1694 17.6739 13.819 18.3835 13.1183C19.0931 12.4087 19.4479 11.5527 19.4479 10.5504C19.4479 9.56579 19.0931 8.71869 18.3835 8.00908C17.6739 7.29946 16.8268 6.94466 15.8422 6.94466C14.8399 6.94466 13.9839 7.29946 13.2743 8.00908C12.5735 8.71869 12.2232 9.56579 12.2232 10.5504C12.2232 11.5527 12.5735 12.4087 13.2743 13.1183C13.9839 13.819 14.8399 14.1694 15.8422 14.1694ZM24.4374 24.6141H7.23367L8.71056 27.8073H22.9605L24.4374 24.6141Z" fill="white"/>
</svg>
