<svg width="32" height="32" viewBox="0 0 32 32" fill="none" xmlns="http://www.w3.org/2000/svg">
<path d="M7.68767 24.2569L11.32 14.2647H8.40615L5 7H9.52379L10.7878 9.70097H13.8613V7H17.946V9.70097H21.0062L22.2702 7H26.794L23.3879 14.2647H20.474L24.1064 24.2569H25.7429C25.9735 24.2569 26.1155 24.3102 26.1687 24.4166C26.1953 24.5053 26.1731 24.6029 26.1022 24.7093L24.1995 28.794H15.897H7.56792L5.65196 24.7093C5.57213 24.6206 5.55439 24.5186 5.59874 24.4033C5.65196 24.2969 5.80275 24.2481 6.05112 24.2569H7.68767ZM12.9432 17.897H18.8508V20.6246H12.9432V17.897ZM15.897 13.3599H12.2647V14.2647H15.4446V16.9923H11.2934L10.9608 17.897H12.0385V20.6246H9.96287L9.63024 21.5294H15.4446V24.2569H8.63234V25.1617H23.1617V24.2569H16.3494V21.5294H22.1638L21.8445 20.6246H19.7556V17.897H20.8333L20.5006 16.9923H16.3494V14.2647H19.5294V13.3599H15.897Z" fill="black"/>
<path d="M12.9432 17.897H18.8508V20.6246H12.9432V17.897ZM15.897 13.3599H12.2647V14.2647H15.4446V16.9922H11.2934L10.9607 17.897H12.0385V20.6246H9.96285L9.63022 21.5293H15.4446V24.2569H8.63232V25.1617H23.1617V24.2569H16.3494V21.5293H22.1638L21.8445 20.6246H19.7555V17.897H20.8333L20.5006 16.9922H16.3494V14.2647H19.5293V13.3599H15.897Z" fill="white"/>
</svg>
