<svg width="32" height="32" viewBox="0 0 32 32" fill="none" xmlns="http://www.w3.org/2000/svg">
<path d="M15.897 25.1617H6.86274L8.14004 27.9026H15.897H23.6274L24.9047 25.1617H15.897ZM15.897 13.3599H22.8424L25.3837 7.89145H22.8424L21.5518 10.6456H17.028V7.89145H14.7661V10.6456H10.229L8.95167 7.89145H6.39705L8.95167 13.3599H15.897ZM15.4446 16.9923V14.2647H12.2647L11.2934 16.9923H15.4446ZM16.3494 16.9923H20.5006L19.5294 14.2647H16.3494V16.9923ZM12.9432 17.897V20.6246H18.8508V17.897H12.9432ZM19.7556 20.6246H21.8445L20.8333 17.897H19.7556V20.6246ZM12.0385 20.6246V17.897H10.9475L9.96287 20.6246H12.0385ZM15.4446 24.2569V21.5294H9.63024L8.63234 24.2569H15.4446ZM16.3494 24.2569H23.1617L22.1638 21.5294H16.3494V24.2569ZM7.68767 24.2569L11.32 14.2647H8.40615L5 7H9.52379L10.7878 9.70097H13.8613V7H17.946V9.70097H21.0062L22.2702 7H26.794L23.3879 14.2647H20.474L24.1064 24.2569H25.7429C25.9735 24.2569 26.1155 24.3102 26.1687 24.4166C26.1953 24.5053 26.1731 24.6029 26.1022 24.7093L24.1995 28.794H15.897H7.56792L5.65196 24.7093C5.57213 24.6206 5.55439 24.5186 5.59874 24.4033C5.65196 24.2969 5.80275 24.2481 6.05112 24.2569H7.68767Z" fill="black"/>
<path d="M15.897 25.1617H6.86275L8.14006 27.9026H15.897H23.6274L24.9047 25.1617H15.897ZM15.897 13.3599H22.8424L25.3837 7.89148H22.8424L21.5518 10.6457H17.028V7.89148H14.7661V10.6457H10.229L8.95168 7.89148H6.39706L8.95168 13.3599H15.897ZM15.4447 16.9923V14.2647H12.2647L11.2934 16.9923H15.4447ZM16.3494 16.9923H20.5007L19.5294 14.2647H16.3494V16.9923ZM12.9433 17.897V20.6246H18.8508V17.897H12.9433ZM19.7556 20.6246H21.8445L20.8333 17.897H19.7556V20.6246ZM12.0385 20.6246V17.897H10.9475L9.96288 20.6246H12.0385ZM15.4447 24.257V21.5294H9.63025L8.63235 24.257H15.4447ZM16.3494 24.257H23.1617L22.1638 21.5294H16.3494V24.257Z" fill="white"/>
</svg>
