<svg width="256" height="256" viewBox="0 0 256 256" fill="none" xmlns="http://www.w3.org/2000/svg">
<path fill-rule="evenodd" clip-rule="evenodd" d="M126.897 55.2934C123.601 54.8898 121.043 52.0769 121.043 48.6713C121.043 44.9887 124.033 42 127.714 42C131.397 42 134.386 44.9887 134.386 48.6713C134.386 52.0769 131.83 54.8896 128.535 55.2934L141.057 95.3705L156.444 64.5977C153.269 64.0854 150.842 61.3291 150.842 58.0114C150.842 54.3288 153.832 51.3402 157.513 51.3402C161.196 51.3402 164.185 54.3288 164.185 58.0114C164.185 61.694 161.196 64.6827 157.513 64.6827C157.439 64.6827 157.364 64.6812 157.288 64.6782L162.404 95.3706L182.413 70.3595C180.513 69.1831 179.245 67.0804 179.245 64.6828C179.245 61.0002 182.234 58.0115 185.917 58.0115C189.599 58.0115 192.588 61.0002 192.588 64.6828C192.588 68.3654 189.599 71.3541 185.917 71.3541C185.066 71.3541 184.253 71.1932 183.506 70.9043L173.037 164.752C167.74 199.279 194.425 212.785 194.425 212.785V234.133H61V212.785C61 212.785 87.6851 199.279 82.3911 164.752L71.9226 70.9043C71.175 71.1947 70.362 71.3541 69.5117 71.3541C65.8291 71.3541 62.8404 68.3654 62.8404 64.6828C62.8404 61.0002 65.8291 58.0115 69.5117 58.0115C73.1943 58.0115 76.183 61.0002 76.183 64.6828C76.183 67.0803 74.9142 69.183 73.0156 70.3595L93.0233 95.3706L98.14 64.6782C98.0655 64.6797 97.9911 64.6827 97.9151 64.6827C94.2325 64.6827 91.2438 61.694 91.2438 58.0114C91.2438 54.3288 94.2325 51.3402 97.9151 51.3402C101.596 51.3402 104.586 54.3288 104.586 58.0114C104.586 61.3292 102.159 64.0857 98.9844 64.5977L114.37 95.3705L126.895 55.2934H126.897Z" fill="url(#paint0_angular_403_116)" stroke="black" stroke-width="5"/>
<defs>
<radialGradient id="paint0_angular_403_116" cx="0" cy="0" r="1" gradientUnits="userSpaceOnUse" gradientTransform="translate(127.713 138.067) rotate(90) scale(96.0665 66.7127)">
<stop stop-color="#205375"/>
<stop offset="1" stop-color="#183F59"/>
</radialGradient>
</defs>
</svg>
