<svg width="32" height="32" viewBox="0 0 32 32" fill="none" xmlns="http://www.w3.org/2000/svg">
<path d="M15.7876 19.3907C15.7598 19.3907 15.7275 19.3815 15.6904 19.363C15.6627 19.3352 15.6395 19.3213 15.621 19.3213C15.149 19.3398 14.913 19.4278 14.913 19.5851C14.913 19.8257 15.2045 19.9461 15.7876 19.9461C16.38 19.9461 16.6761 19.8257 16.6761 19.5851C16.6761 19.4278 16.4401 19.3398 15.9681 19.3213C15.9403 19.3213 15.9079 19.3352 15.8709 19.363C15.8339 19.3815 15.8061 19.3907 15.7876 19.3907ZM20.1886 6.63214C20.5403 6.50256 20.9244 6.43777 21.3409 6.43777C21.7666 6.42852 21.9378 6.26655 21.8545 5.95186C21.7712 5.64643 21.5213 5.54 21.1049 5.63255C20.6606 5.7251 20.2719 5.83154 19.9387 5.95186C19.0779 6.26655 18.6938 6.53495 18.7864 6.75708C18.8697 6.98847 19.3371 6.94682 20.1886 6.63214ZM17.3286 16.5169C17.7636 16.4614 17.9765 16.3364 17.9673 16.1421C17.9488 15.9385 17.685 15.8598 17.1759 15.9061C16.6669 15.9523 16.4216 16.0773 16.4401 16.2809C16.4586 16.4568 16.6669 16.5447 17.0649 16.5447C17.0001 16.5169 16.9677 16.466 16.9677 16.392C16.9677 16.2717 17.0371 16.2115 17.1759 16.2115C17.3148 16.2115 17.3842 16.2717 17.3842 16.392C17.3749 16.4383 17.3564 16.4799 17.3286 16.5169ZM14.2466 16.5169C14.2188 16.4706 14.2049 16.429 14.2049 16.392C14.2049 16.2717 14.2697 16.2115 14.3993 16.2115C14.5381 16.2115 14.6075 16.2717 14.6075 16.392C14.6075 16.466 14.5752 16.5169 14.5104 16.5447C14.9083 16.5447 15.1166 16.4568 15.1351 16.2809C15.1444 16.068 14.8991 15.9431 14.3993 15.9061C13.881 15.8598 13.6172 15.9385 13.608 16.1421C13.5987 16.3364 13.8116 16.4614 14.2466 16.5169ZM15.7876 16.8085C15.5933 16.8085 15.4961 17.1324 15.4961 17.7803C15.4961 17.8358 15.4868 17.8821 15.4683 17.9191C15.348 18.0024 15.2878 18.1042 15.2878 18.2245C15.2878 18.4097 15.3804 18.5115 15.5655 18.53C15.6488 18.6688 15.7228 18.7382 15.7876 18.7382C15.8432 18.7382 15.9172 18.6688 16.0098 18.53C16.1949 18.5207 16.2874 18.4189 16.2874 18.2245C16.2874 18.1135 16.2273 18.0117 16.1069 17.9191C16.0977 17.8821 16.0931 17.8358 16.0931 17.7803C16.0931 17.1324 15.9912 16.8085 15.7876 16.8085H15.7876ZM19.3 12.9073C19.3463 12.7962 19.3741 12.7315 19.3833 12.7129C19.4852 12.3983 19.5823 12.1437 19.6749 11.9494H11.9003C11.9651 12.1067 12.0623 12.3612 12.1919 12.7129C12.2289 12.8055 12.2567 12.8703 12.2752 12.9073H19.3ZM18.6892 14.7538C18.865 14.7908 18.9854 14.6427 19.0502 14.3095C19.1057 13.9763 19.0548 13.8097 18.8974 13.8097H12.6778C12.5112 13.8097 12.4603 13.9763 12.5251 14.3095C12.5899 14.6427 12.7102 14.7908 12.886 14.7538H18.6892ZM16.1486 22.6533C16.6761 22.6533 17.1065 22.5144 17.4397 22.2368C17.2824 22.0424 17.1574 21.8619 17.0649 21.6953C16.7409 21.8064 16.4355 21.8619 16.1486 21.8619H15.4267C15.1305 21.8619 14.8297 21.8064 14.5243 21.6953C14.4132 21.8619 14.2836 22.0424 14.1355 22.2368C14.4595 22.5144 14.8898 22.6533 15.4267 22.6533H16.1486ZM6.01389 29.3727V28.4286C6.00463 28.3176 6 28.225 6 28.151C6.00926 28.0769 6.01389 27.9844 6.01389 27.8733C6.01389 26.5128 6.47666 25.3373 7.40221 24.347C8.27221 23.403 9.40138 22.8476 10.7897 22.681C12.0021 22.5329 12.9693 21.9036 13.6913 20.7929C13.6635 20.7837 13.645 20.7652 13.6357 20.7374C13.4784 20.506 13.2933 20.2978 13.0804 20.1127C12.1826 19.3259 11.7337 18.1459 11.7337 16.5725C11.7337 15.8783 11.8032 15.2813 11.942 14.7815C11.7846 14.7815 11.706 14.6196 11.706 14.2956C11.4468 13.3053 11.0674 12.3288 10.5676 11.3663C10.3454 10.9313 10.3778 10.649 10.6647 10.5194C10.9146 10.4176 11.1553 10.5518 11.3867 10.922C11.8124 11.0516 12.2937 11.1164 12.8305 11.1164C14.0707 11.1164 14.913 10.7323 15.3572 9.96409C15.2925 9.4828 15.4729 8.96913 15.8987 8.42306C16.2782 7.59933 17.3286 6.71081 19.0502 5.7575C19.4944 5.51686 19.9294 5.30398 20.3552 5.11887C20.568 5.06334 20.7809 5.02632 20.9938 5.00781C21.4103 4.98004 21.8083 5.02632 22.1877 5.14664C22.6968 5.30398 22.9698 5.56313 23.0068 5.9241C23.0624 6.59974 22.4932 7.01624 21.2992 7.17358C19.3833 7.44198 17.8701 7.96029 16.7594 8.72849C16.417 9.0987 16.2458 9.4319 16.2458 9.72807C16.2458 9.80212 16.255 9.8669 16.2735 9.92244C16.2828 10.0242 16.3244 10.1168 16.3985 10.2001C16.8982 10.811 17.6942 11.1164 18.7864 11.1164C19.3047 11.1164 19.7813 11.0516 20.2163 10.922C20.4292 10.5425 20.6652 10.4083 20.9244 10.5194C21.202 10.649 21.2344 10.9313 21.0215 11.3663C20.494 12.3936 20.1145 13.3701 19.8831 14.2956C19.8831 14.6196 19.8044 14.7815 19.6471 14.7815C19.7859 15.2813 19.8554 15.8783 19.8554 16.5725C19.8554 18.1551 19.4065 19.3352 18.5087 20.1127C18.3051 20.2885 18.12 20.4968 17.9534 20.7374C17.9349 20.7652 17.9164 20.7976 17.8978 20.8346C18.6383 21.9175 19.6008 22.5329 20.7855 22.681C22.1646 22.8476 23.2937 23.403 24.173 24.347C25.0985 25.3466 25.5613 26.522 25.5613 27.8733C25.5613 27.9844 25.5613 28.0769 25.5613 28.151C25.5706 28.225 25.5706 28.3176 25.5613 28.4286V29.3727H6.01389Z" fill="black"/>
<path d="M15.7876 19.3907C15.7598 19.3907 15.7274 19.3815 15.6904 19.363C15.6627 19.3352 15.6395 19.3213 15.621 19.3213C15.149 19.3398 14.913 19.4278 14.913 19.5851C14.913 19.8258 15.2045 19.9461 15.7876 19.9461C16.38 19.9461 16.6761 19.8258 16.6761 19.5851C16.6761 19.4278 16.4401 19.3399 15.9681 19.3213C15.9403 19.3213 15.9079 19.3352 15.8709 19.363C15.8339 19.3815 15.8061 19.3907 15.7876 19.3907ZM20.1886 6.63215C20.5403 6.50258 20.9244 6.43779 21.3409 6.43779C21.7666 6.42853 21.9378 6.26656 21.8545 5.95188C21.7712 5.64645 21.5213 5.54001 21.1048 5.63257C20.6606 5.72512 20.2719 5.83156 19.9387 5.95188C19.0779 6.26656 18.6938 6.53497 18.7864 6.7571C18.8697 6.98849 19.3371 6.94684 20.1886 6.63215ZM17.3286 16.5169C17.7636 16.4614 17.9765 16.3365 17.9673 16.1421C17.9488 15.9385 17.685 15.8598 17.1759 15.9061C16.6669 15.9524 16.4216 16.0773 16.4401 16.2809C16.4586 16.4568 16.6669 16.5447 17.0649 16.5447C17.0001 16.5169 16.9677 16.466 16.9677 16.392C16.9677 16.2717 17.0371 16.2115 17.1759 16.2115C17.3147 16.2115 17.3842 16.2717 17.3842 16.392C17.3749 16.4383 17.3564 16.4799 17.3286 16.5169ZM14.2466 16.5169C14.2188 16.4707 14.2049 16.429 14.2049 16.392C14.2049 16.2717 14.2697 16.2115 14.3993 16.2115C14.5381 16.2115 14.6075 16.2717 14.6075 16.392C14.6075 16.466 14.5751 16.5169 14.5104 16.5447C14.9083 16.5447 15.1166 16.4568 15.1351 16.2809C15.1444 16.0681 14.8991 15.9431 14.3993 15.9061C13.881 15.8598 13.6172 15.9385 13.608 16.1421C13.5987 16.3365 13.8116 16.4614 14.2466 16.5169ZM15.7876 16.8085C15.5932 16.8085 15.4961 17.1324 15.4961 17.7803C15.4961 17.8358 15.4868 17.8821 15.4683 17.9191C15.348 18.0024 15.2878 18.1042 15.2878 18.2246C15.2878 18.4097 15.3804 18.5115 15.5655 18.53C15.6488 18.6688 15.7228 18.7382 15.7876 18.7382C15.8432 18.7382 15.9172 18.6688 16.0098 18.53C16.1949 18.5207 16.2874 18.4189 16.2874 18.2246C16.2874 18.1135 16.2272 18.0117 16.1069 17.9191C16.0977 17.8821 16.093 17.8358 16.093 17.7803C16.093 17.1324 15.9912 16.8085 15.7876 16.8085ZM19.3 12.9073C19.3463 12.7963 19.3741 12.7315 19.3833 12.713C19.4851 12.3983 19.5823 12.1438 19.6749 11.9494H11.9003C11.9651 12.1067 12.0623 12.3613 12.1919 12.713C12.2289 12.8055 12.2567 12.8703 12.2752 12.9073H19.3ZM18.6892 14.7538C18.865 14.7908 18.9854 14.6427 19.0501 14.3095C19.1057 13.9763 19.0548 13.8097 18.8974 13.8097H12.6778C12.5112 13.8097 12.4603 13.9763 12.5251 14.3095C12.5899 14.6427 12.7102 14.7908 12.886 14.7538H18.6892ZM16.1486 22.6533C16.6761 22.6533 17.1065 22.5145 17.4397 22.2368C17.2824 22.0424 17.1574 21.8619 17.0649 21.6953C16.7409 21.8064 16.4355 21.8619 16.1486 21.8619H15.4266C15.1305 21.8619 14.8297 21.8064 14.5242 21.6953C14.4132 21.8619 14.2836 22.0424 14.1355 22.2368C14.4595 22.5145 14.8898 22.6533 15.4266 22.6533H16.1486Z" fill="#EEEEEE"/>
</svg>
