<svg width="180" height="180" viewBox="0 0 180 180" fill="none" xmlns="http://www.w3.org/2000/svg">
<path d="M88.8052 109.073C88.6489 109.073 88.4672 109.021 88.2585 108.917C88.1027 108.761 87.9722 108.682 87.8681 108.682C85.2131 108.786 83.8856 109.281 83.8856 110.166C83.8856 111.52 85.5253 112.197 88.8052 112.197C92.1375 112.197 93.8031 111.52 93.8031 110.166C93.8031 109.281 92.4756 108.786 89.8206 108.682C89.6642 108.682 89.4819 108.761 89.2738 108.917C89.0657 109.021 88.9093 109.073 88.8052 109.073ZM113.561 37.3058C115.539 36.5769 117.7 36.2125 120.043 36.2125C122.437 36.1604 123.4 35.2493 122.932 33.4792C122.463 31.7612 121.057 31.1625 118.715 31.6831C116.216 32.2037 114.029 32.8024 112.155 33.4792C107.313 35.2493 105.153 36.7591 105.673 38.0086C106.142 39.3101 108.771 39.0759 113.561 37.3058ZM97.4734 92.9076C99.9202 92.5954 101.118 91.8923 101.066 90.7993C100.962 89.6541 99.4781 89.2114 96.6144 89.4718C93.7513 89.7317 92.3715 90.4348 92.4756 91.5801C92.5796 92.5695 93.7513 93.0639 95.9901 93.0639C95.6256 92.9076 95.4433 92.6213 95.4433 92.205C95.4433 91.5283 95.8337 91.1897 96.6144 91.1897C97.3957 91.1897 97.7861 91.5283 97.7861 92.205C97.7338 92.4654 97.6297 92.6994 97.4734 92.9076ZM80.1371 92.9076C79.9808 92.6471 79.9026 92.4131 79.9026 92.205C79.9026 91.5283 80.2671 91.1897 80.9961 91.1897C81.7768 91.1897 82.1672 91.5283 82.1672 92.205C82.1672 92.6213 81.9855 92.9076 81.621 93.0639C83.8592 93.0639 85.0309 92.5695 85.1349 91.5801C85.1873 90.3825 83.8074 89.6799 80.9961 89.4718C78.0806 89.2114 76.5967 89.6541 76.545 90.7993C76.4927 91.8923 77.6903 92.5954 80.1371 92.9076ZM88.8052 94.5478C87.7123 94.5478 87.1656 96.3698 87.1656 100.014C87.1656 100.326 87.1132 100.587 87.0092 100.795C86.3325 101.264 85.9939 101.836 85.9939 102.513C85.9939 103.555 86.5148 104.127 87.5559 104.231C88.0245 105.012 88.4407 105.402 88.8052 105.402C89.118 105.402 89.5342 105.012 90.0551 104.231C91.0963 104.179 91.6166 103.606 91.6166 102.513C91.6166 101.888 91.2786 101.316 90.6013 100.795C90.5496 100.587 90.5237 100.326 90.5237 100.014C90.5237 96.3698 89.9505 94.5478 88.8052 94.5478ZM108.562 72.6036C108.823 71.9786 108.979 71.6147 109.031 71.5101C109.604 69.7404 110.15 68.3083 110.671 67.2154H66.9392C67.3037 68.1002 67.8504 69.5318 68.5794 71.5101C68.7876 72.0309 68.9439 72.3954 69.048 72.6036H108.562ZM105.127 82.9901C106.116 83.1983 106.793 82.3652 107.157 80.4909C107.47 78.6167 107.183 77.6796 106.298 77.6796H71.3126C70.3755 77.6796 70.0892 78.6167 70.4537 80.4909C70.8182 82.3652 71.4949 83.1983 72.4837 82.9901H105.127ZM90.8359 127.425C93.8031 127.425 96.2241 126.643 98.0983 125.082C97.2135 123.988 96.5104 122.973 95.9901 122.036C94.1676 122.661 92.4497 122.973 90.8359 122.973H86.7752C85.1091 122.973 83.4171 122.661 81.6992 122.036C81.0742 122.973 80.3452 123.988 79.5122 125.082C81.3347 126.643 83.7551 127.425 86.7752 127.425H90.8359ZM33.8281 165.221V159.911C33.776 159.287 33.75 158.766 33.75 158.349C33.8021 157.933 33.8281 157.412 33.8281 156.787C33.8281 149.135 36.4312 142.522 41.6374 136.952C46.5312 131.642 52.8828 128.518 60.6921 127.581C67.5118 126.748 72.9523 123.208 77.0136 116.96C76.8572 116.908 76.7531 116.804 76.7008 116.648C75.816 115.346 74.7748 114.175 73.5773 113.134C68.5271 108.708 66.0021 102.071 66.0021 93.2203C66.0021 89.3154 66.393 85.9573 67.1738 83.1459C66.2884 83.1459 65.8463 82.2353 65.8463 80.4128C64.3883 74.8423 62.2541 69.3495 59.4428 63.9354C58.1929 61.4886 58.3751 59.9006 59.9889 59.1716C61.3946 58.599 62.7486 59.3539 64.0502 61.4363C66.4447 62.1653 69.1521 62.5298 72.1716 62.5298C79.1477 62.5298 83.8856 60.3692 86.3842 56.048C86.0203 53.3408 87.0351 50.4514 89.4302 47.3797C91.5649 42.7462 97.4734 37.7483 107.157 32.3859C109.656 31.0323 112.103 29.8349 114.498 28.7936C115.695 28.4813 116.893 28.2731 118.09 28.1689C120.433 28.0127 122.672 28.2731 124.806 28.9499C127.67 29.8349 129.205 31.2926 129.413 33.3231C129.726 37.1235 126.524 39.4664 119.808 40.3514C109.031 41.8611 100.519 44.7766 94.2716 49.0978C92.3456 51.1802 91.3826 53.0544 91.3826 54.7204C91.3826 55.1369 91.4344 55.5013 91.5384 55.8137C91.5908 56.3861 91.8248 56.907 92.2416 57.3756C95.0524 60.8119 99.5299 62.5298 105.673 62.5298C108.589 62.5298 111.27 62.1653 113.717 61.4363C114.914 59.3016 116.242 58.5467 117.7 59.1716C119.261 59.9006 119.443 61.4886 118.246 63.9354C115.279 69.714 113.144 75.2068 111.842 80.4128C111.842 82.2353 111.4 83.1459 110.515 83.1459C111.296 85.9573 111.687 89.3154 111.687 93.2203C111.687 102.122 109.162 108.761 104.111 113.134C102.966 114.123 101.925 115.295 100.988 116.648C100.884 116.804 100.78 116.987 100.675 117.195C104.84 123.286 110.254 126.748 116.918 127.581C124.676 128.518 131.027 131.642 135.973 136.952C141.179 142.575 143.782 149.186 143.782 156.787C143.782 157.412 143.782 157.933 143.782 158.349C143.835 158.766 143.835 159.287 143.782 159.911V165.221H33.8281Z" fill="black"/>
<path d="M88.8052 109.073C88.6489 109.073 88.4666 109.021 88.2585 108.917C88.1027 108.761 87.9722 108.682 87.8681 108.682C85.2131 108.786 83.8856 109.281 83.8856 110.166C83.8856 111.52 85.5253 112.197 88.8052 112.197C92.1375 112.197 93.8031 111.52 93.8031 110.166C93.8031 109.281 92.4756 108.787 89.8206 108.682C89.6642 108.682 89.4819 108.761 89.2738 108.917C89.0657 109.021 88.9093 109.073 88.8052 109.073ZM113.561 37.3059C115.539 36.577 117.7 36.2126 120.043 36.2126C122.437 36.1605 123.4 35.2494 122.932 33.4793C122.463 31.7613 121.057 31.1626 118.714 31.6832C116.216 32.2038 114.029 32.8025 112.155 33.4793C107.313 35.2494 105.153 36.7592 105.673 38.0087C106.142 39.3103 108.771 39.076 113.561 37.3059ZM97.4734 92.9076C99.9202 92.5954 101.118 91.8928 101.066 90.7993C100.962 89.6541 99.4781 89.2114 96.6144 89.4718C93.7513 89.7323 92.3715 90.4348 92.4756 91.5801C92.5796 92.5695 93.7513 93.0639 95.9901 93.0639C95.6256 92.9076 95.4433 92.6213 95.4433 92.205C95.4433 91.5283 95.8337 91.1897 96.6144 91.1897C97.3952 91.1897 97.7861 91.5283 97.7861 92.205C97.7338 92.4654 97.6297 92.6994 97.4734 92.9076ZM80.1371 92.9076C79.9807 92.6477 79.9026 92.4131 79.9026 92.205C79.9026 91.5283 80.2671 91.1897 80.9961 91.1897C81.7768 91.1897 82.1672 91.5283 82.1672 92.205C82.1672 92.6213 81.9849 92.9076 81.621 93.0639C83.8592 93.0639 85.0309 92.5695 85.1349 91.5801C85.1872 90.3831 83.8074 89.6799 80.9961 89.4718C78.0806 89.2114 76.5967 89.6541 76.545 90.7993C76.4927 91.8928 77.6902 92.5954 80.1371 92.9076ZM88.8052 94.5478C87.7117 94.5478 87.1656 96.3698 87.1656 100.014C87.1656 100.326 87.1132 100.587 87.0092 100.795C86.3325 101.264 85.9939 101.836 85.9939 102.513C85.9939 103.555 86.5147 104.127 87.5559 104.231C88.0245 105.012 88.4407 105.402 88.8052 105.402C89.118 105.402 89.5342 105.012 90.0551 104.231C91.0963 104.179 91.6166 103.606 91.6166 102.513C91.6166 101.888 91.278 101.316 90.6013 100.795C90.5495 100.587 90.5231 100.326 90.5231 100.014C90.5231 96.3698 89.9505 94.5478 88.8052 94.5478ZM108.562 72.6036C108.823 71.9792 108.979 71.6147 109.031 71.5106C109.604 69.7404 110.15 68.3089 110.671 67.2154H66.9392C67.3037 68.1002 67.8504 69.5323 68.5794 71.5106C68.7876 72.0309 68.9439 72.3954 69.048 72.6036H108.562ZM105.127 82.9901C106.116 83.1983 106.793 82.3652 107.157 80.4909C107.47 78.6167 107.183 77.6796 106.298 77.6796H71.3126C70.3755 77.6796 70.0892 78.6167 70.4537 80.4909C70.8182 82.3652 71.4949 83.1983 72.4837 82.9901H105.127ZM90.8359 127.425C93.8031 127.425 96.224 126.644 98.0983 125.082C97.2135 123.989 96.5104 122.973 95.9901 122.036C94.1676 122.661 92.4497 122.973 90.8359 122.973H86.7746C85.1091 122.973 83.4171 122.661 81.6986 122.036C81.0742 122.973 80.3452 123.989 79.5122 125.082C81.3347 126.644 83.7551 127.425 86.7746 127.425H90.8359Z" fill="#EEEEEE"/>
</svg>
