<svg width="180" height="180" viewBox="0 0 180 180" fill="none" xmlns="http://www.w3.org/2000/svg">
<path d="M88.8052 109.073C88.9093 109.073 89.0657 109.021 89.2738 108.917C89.4819 108.761 89.6642 108.682 89.8206 108.682C92.4756 108.786 93.8031 109.281 93.8031 110.166C93.8031 111.52 92.1375 112.197 88.8052 112.197C85.5253 112.197 83.8856 111.52 83.8856 110.166C83.8856 109.281 85.2131 108.786 87.8681 108.682C87.9722 108.682 88.1027 108.761 88.2585 108.917C88.4672 109.021 88.6489 109.073 88.8052 109.073ZM107.157 77.8359C108.199 73.6706 109.37 70.209 110.671 67.4494C109.213 67.5534 108.667 67.6058 109.031 67.6058C107.938 67.7098 106.871 67.7616 105.829 67.7616C99.7903 67.7616 94.6626 66.1219 90.4455 62.8419C89.8729 62.4251 89.3261 62.217 88.8052 62.217C88.1809 62.217 87.66 62.4251 87.2438 62.8419C83.0267 66.1219 77.8984 67.7616 71.8594 67.7616C70.8182 67.7616 69.7506 67.7098 68.6576 67.6058C68.9698 67.6058 68.4231 67.5534 67.0174 67.4494C68.3713 70.4689 69.5683 73.9311 70.6095 77.8359H107.157ZM97.3958 92.7518C97.5516 92.5431 97.6556 92.3349 97.7079 92.1268C97.7079 91.5019 97.3434 91.1897 96.6144 91.1897C95.9377 91.1897 95.5991 91.5019 95.5991 92.1268C95.5991 92.4913 95.7555 92.7518 96.0677 92.9076C94.0376 92.9076 92.97 92.4654 92.8659 91.5801C92.7619 90.5389 94.0117 89.8881 96.6144 89.6276C99.1654 89.4195 100.519 89.8363 100.676 90.8775C100.676 91.8664 99.5822 92.4913 97.3958 92.7518ZM72.4837 83.1459C71.703 86.3218 71.3126 89.784 71.3126 93.5325C71.3126 100.769 73.0828 105.923 76.6226 108.995C78.0283 110.296 79.4604 111.962 80.9179 113.993C82.7404 116.544 84.8486 117.819 87.2438 117.819H90.4455C92.8401 117.819 94.9489 116.544 96.7708 113.993C98.1765 111.962 99.6081 110.296 101.066 108.995C104.606 105.923 106.376 100.769 106.376 93.5325C106.376 89.784 105.986 86.3218 105.205 83.1459H72.4837ZM80.2153 92.7518C77.9766 92.4913 76.8831 91.8664 76.9354 90.8775C76.9871 89.784 78.3411 89.3678 80.9961 89.6276C83.5993 89.8881 84.8486 90.5389 84.7446 91.5801C84.6405 92.4131 83.5734 92.8558 81.5428 92.9076C81.855 92.7518 82.0114 92.4913 82.0114 92.1268C82.0114 91.5019 81.6727 91.1897 80.9961 91.1897C80.3194 91.1897 79.9807 91.5019 79.9807 92.1268C79.9807 92.3873 80.0589 92.5954 80.2153 92.7518ZM88.8052 94.9382C89.8464 94.9382 90.3673 96.6302 90.3673 100.014C90.3673 100.379 90.3932 100.613 90.4455 100.717C91.0699 101.081 91.3826 101.602 91.3826 102.279C91.3826 103.216 90.8876 103.736 89.8988 103.841C89.4819 104.518 89.118 104.856 88.8052 104.856C88.4407 104.856 88.0762 104.518 87.7123 103.841C86.7229 103.737 86.2284 103.216 86.2284 102.279C86.2284 101.654 86.5406 101.134 87.1656 100.717C87.2696 100.561 87.3214 100.326 87.3214 100.014C87.3214 96.6302 87.8164 94.9382 88.8052 94.9382ZM138.472 159.911V155.069C138.472 149.759 136.208 144.761 131.678 140.075C127.67 135.963 122.698 133.568 116.763 132.891C108.381 131.902 101.717 127.815 96.7708 120.63C95.0529 122.192 92.9441 122.973 90.4455 122.973H87.2438C84.5364 122.973 82.4018 122.192 80.8397 120.63C75.7901 127.815 69.1262 131.902 60.8484 132.891C54.8611 133.568 49.8892 135.963 45.9325 140.075C41.4032 144.709 39.1384 149.707 39.1384 155.069V159.911H138.472ZM33.8281 165.221V159.911C33.776 159.287 33.75 158.766 33.75 158.349C33.8021 157.933 33.8281 157.412 33.8281 156.787C33.8281 149.135 36.4312 142.522 41.6374 136.952C46.5312 131.642 52.8828 128.518 60.6921 127.581C67.5118 126.748 72.9523 123.208 77.0136 116.96C76.8572 116.908 76.7531 116.804 76.7008 116.648C75.816 115.346 74.7748 114.175 73.5773 113.134C68.5271 108.708 66.0021 102.071 66.0021 93.2203C66.0021 89.3154 66.393 85.9573 67.1738 83.1459C66.2884 83.1459 65.8463 82.2353 65.8463 80.4128C64.3883 74.8423 62.2541 69.3495 59.4428 63.9354C58.1929 61.4886 58.3751 59.9006 59.9889 59.1716C61.3946 58.599 62.7486 59.3539 64.0502 61.4363C66.4447 62.1653 69.1521 62.5298 72.1716 62.5298C79.1477 62.5298 83.8856 60.3692 86.3842 56.048C86.0203 53.3408 87.0351 50.4514 89.4302 47.3797C91.5649 42.7462 97.4734 37.7483 107.157 32.3859C109.656 31.0323 112.103 29.8349 114.498 28.7936C115.695 28.4813 116.893 28.2731 118.09 28.1689C120.433 28.0127 122.672 28.2731 124.806 28.9499C127.67 29.8349 129.205 31.2926 129.413 33.3231C129.726 37.1235 126.524 39.4664 119.808 40.3514C109.031 41.8611 100.519 44.7766 94.2716 49.0978C92.3456 51.1802 91.3826 53.0544 91.3826 54.7204C91.3826 55.1369 91.4344 55.5013 91.5384 55.8137C91.5908 56.3861 91.8248 56.907 92.2416 57.3756C95.0524 60.8119 99.5299 62.5298 105.673 62.5298C108.589 62.5298 111.27 62.1653 113.717 61.4363C114.914 59.3016 116.242 58.5467 117.7 59.1716C119.261 59.9006 119.443 61.4886 118.246 63.9354C115.279 69.714 113.144 75.2068 111.842 80.4128C111.842 82.2353 111.4 83.1459 110.515 83.1459C111.296 85.9573 111.687 89.3154 111.687 93.2203C111.687 102.122 109.162 108.761 104.111 113.134C102.966 114.123 101.925 115.295 100.988 116.648C100.884 116.804 100.78 116.987 100.675 117.195C104.84 123.286 110.254 126.748 116.918 127.581C124.676 128.518 131.027 131.642 135.973 136.952C141.179 142.575 143.782 149.186 143.782 156.787C143.782 157.412 143.782 157.933 143.782 158.349C143.835 158.766 143.835 159.287 143.782 159.911V165.221H33.8281Z" fill="black"/>
<path d="M88.8052 109.073C88.9093 109.073 89.0657 109.021 89.2738 108.917C89.4819 108.761 89.6642 108.682 89.8205 108.682C92.4755 108.786 93.803 109.281 93.803 110.166C93.803 111.52 92.1375 112.197 88.8052 112.197C85.5253 112.197 83.8856 111.52 83.8856 110.166C83.8856 109.281 85.2131 108.786 87.8681 108.682C87.9722 108.682 88.1027 108.761 88.2585 108.917C88.4672 109.021 88.6489 109.073 88.8052 109.073ZM107.157 77.836C108.199 73.6707 109.37 70.209 110.671 67.4494C109.213 67.5535 108.667 67.6058 109.031 67.6058C107.938 67.7098 106.87 67.7616 105.829 67.7616C99.7903 67.7616 94.6626 66.1219 90.4455 62.842C89.8729 62.4252 89.3261 62.217 88.8052 62.217C88.1809 62.217 87.66 62.4252 87.2437 62.842C83.0267 66.1219 77.8984 67.7616 71.8594 67.7616C70.8182 67.7616 69.7506 67.7098 68.6576 67.6058C68.9698 67.6058 68.4231 67.5535 67.0174 67.4494C68.3713 70.4689 69.5683 73.9311 70.6095 77.836H107.157ZM97.3957 92.7518C97.5516 92.5431 97.6556 92.335 97.7079 92.1268C97.7079 91.5019 97.3434 91.1897 96.6144 91.1897C95.9377 91.1897 95.5991 91.5019 95.5991 92.1268C95.5991 92.4913 95.7555 92.7518 96.0677 92.9076C94.0376 92.9076 92.9706 92.4655 92.8659 91.5801C92.7619 90.5389 94.0117 89.8881 96.6144 89.6277C99.1654 89.4195 100.519 89.8363 100.676 90.8775C100.676 91.8664 99.5822 92.4914 97.3957 92.7518ZM72.4837 83.146C71.703 86.3218 71.3126 89.784 71.3126 93.5325C71.3126 100.769 73.0828 105.923 76.6226 108.995C78.0283 110.296 79.4604 111.962 80.9179 113.993C82.7404 116.544 84.8486 117.819 87.2437 117.819H90.4455C92.8401 117.819 94.9489 116.544 96.7708 113.993C98.1765 111.962 99.6081 110.296 101.066 108.995C104.606 105.923 106.376 100.769 106.376 93.5325C106.376 89.784 105.986 86.3218 105.205 83.146H72.4837ZM80.2153 92.7518C77.9766 92.4914 76.883 91.8664 76.9354 90.8775C76.9871 89.784 78.341 89.3678 80.996 89.6277C83.5993 89.8881 84.8486 90.5389 84.7446 91.5801C84.6405 92.4132 83.5734 92.8558 81.5428 92.9076C81.855 92.7518 82.0114 92.4913 82.0114 92.1268C82.0114 91.5019 81.6727 91.1897 80.996 91.1897C80.3194 91.1897 79.9807 91.5019 79.9807 92.1268C79.9807 92.3873 80.0589 92.5954 80.2153 92.7518ZM88.8052 94.9382C89.8464 94.9382 90.3673 96.6302 90.3673 100.014C90.3673 100.379 90.3932 100.613 90.4455 100.717C91.0699 101.081 91.3826 101.602 91.3826 102.279C91.3826 103.216 90.8876 103.736 89.8987 103.841C89.4819 104.518 89.118 104.856 88.8052 104.856C88.4407 104.856 88.0762 104.518 87.7123 103.841C86.7229 103.737 86.2284 103.216 86.2284 102.279C86.2284 101.654 86.5406 101.134 87.1656 100.717C87.2696 100.561 87.3214 100.326 87.3214 100.014C87.3214 96.6302 87.8164 94.9382 88.8052 94.9382ZM138.472 159.911V155.069C138.472 149.759 136.208 144.761 131.678 140.075C127.669 135.963 122.698 133.568 116.763 132.891C108.381 131.902 101.717 127.815 96.7708 120.63C95.0529 122.192 92.9441 122.973 90.4455 122.973H87.2437C84.5364 122.973 82.4017 122.192 80.8397 120.63C75.7901 127.815 69.1262 131.902 60.8484 132.891C54.8611 133.568 49.8892 135.963 45.9325 140.075C41.4031 144.709 39.1385 149.707 39.1385 155.069V159.911H138.472Z" fill="white"/>
</svg>
