<svg width="32" height="32" viewBox="0 0 32 32" fill="none" xmlns="http://www.w3.org/2000/svg">
<path d="M16.4254 14.9403C15.5646 14.9403 15.1343 14.5099 15.1343 13.6492C15.1343 12.7792 15.5646 12.3442 16.4254 12.3442C17.2862 12.3442 17.7165 12.7792 17.7165 13.6492C17.7165 14.5099 17.2862 14.9403 16.4254 14.9403ZM16.4254 21.9374C19.6555 21.9374 22.1036 22.229 23.7696 22.8121C23.7788 22.229 23.8992 21.6274 24.1305 21.0072C24.5563 19.8503 25.3106 18.9109 26.3935 18.189C27.3838 17.5226 27.879 16.56 27.879 15.3013C27.879 14.8015 27.7633 14.3017 27.5319 13.8019C27.1247 12.9134 26.4583 12.3025 25.5327 11.9693C25.107 11.812 24.6859 11.7333 24.2694 11.7333C23.6122 11.7333 22.9875 11.9277 22.3951 12.3164C20.072 13.8343 18.4246 15.9214 17.4528 18.5777C17.0825 19.6051 16.8974 20.4149 16.8974 21.0072H15.9534C15.9534 20.4149 15.7683 19.6004 15.398 18.5638C14.4262 15.9168 12.7788 13.8343 10.4557 12.3164C9.85405 11.9277 9.22468 11.7333 8.56755 11.7333C8.15106 11.7333 7.73456 11.8074 7.31807 11.9554C6.39253 12.2979 5.72151 12.9134 5.30501 13.8019C5.07363 14.2924 4.95794 14.7876 4.95794 15.2874C4.95794 16.5461 5.45773 17.5133 6.45731 18.189C7.54945 18.9202 8.30377 19.8596 8.72026 21.0072C8.92388 21.5718 9.0442 22.1734 9.08122 22.8121C10.7102 22.229 13.1582 21.9374 16.4254 21.9374V21.9374ZM16.4254 24.8806C19.6278 24.8806 22.0666 25.1676 23.7418 25.7414C23.7418 25.6118 23.7372 25.4175 23.7279 25.1583C23.7187 24.8992 23.714 24.7048 23.714 24.5752C22.4368 24.0754 20.0072 23.8255 16.4254 23.8255C12.8343 23.8255 10.4047 24.0754 9.13674 24.5752C9.13674 24.7048 9.13212 24.8992 9.12286 25.1583C9.12286 25.4175 9.12286 25.6118 9.12286 25.7414C10.7796 25.1676 13.2138 24.8806 16.4254 24.8806H16.4254ZM16.4254 28.3375C18.0451 28.3375 19.7481 28.2265 21.5344 28.0043C23.1819 27.8007 24.0056 27.6341 24.0056 27.5046C24.0056 27.2547 23.0014 27.0464 20.9929 26.8798C19.3918 26.741 17.8692 26.6716 16.4254 26.6716C14.7224 26.6716 12.9963 26.7826 11.247 27.0048C9.64581 27.2084 8.84521 27.375 8.84521 27.5046C8.84521 27.7452 9.84942 27.9534 11.8579 28.1293C13.4961 28.2681 15.0186 28.3375 16.4254 28.3375ZM16.4254 29.2816C14.9445 29.2816 13.3896 29.1798 11.7607 28.9762C9.17841 28.6522 7.88728 28.1617 7.88728 27.5046C7.88728 27.3565 7.9752 27.2084 8.15106 27.0603C8.17882 26.2921 8.1927 25.6026 8.1927 24.9917C8.1927 24.0014 8.16031 23.1406 8.09552 22.4094C7.99371 21.9282 7.90116 21.5672 7.81786 21.3266C7.46615 20.3733 6.80439 19.568 5.83257 18.9109C4.61086 18.0872 4 16.8793 4 15.2874C4 14.6488 4.14809 14.0194 4.44426 13.3993C4.97182 12.2609 5.81869 11.4788 6.98487 11.053C7.52169 10.8587 8.04925 10.7615 8.56755 10.7615C9.29873 10.7615 10.0068 10.9559 10.6917 11.3446C11.5061 11.8166 12.353 12.5061 13.2323 13.4132C13.2878 12.6357 13.6025 11.9601 14.1763 11.3862L13.2323 11.4001V5H19.6185V11.4001L18.6745 11.3862C19.2298 11.9508 19.5398 12.6311 19.6046 13.4271C20.4839 12.52 21.3354 11.8259 22.1591 11.3446C22.8348 10.9559 23.5428 10.7615 24.2832 10.7615C24.8016 10.7615 25.3291 10.8587 25.8659 11.053C27.0321 11.4788 27.879 12.2609 28.4065 13.3993C28.7027 14.0194 28.8508 14.6488 28.8508 15.2874C28.8508 15.8057 28.7536 16.324 28.5593 16.8423C28.2538 17.6846 27.7448 18.3741 27.0321 18.9109C26.0788 19.5032 25.4124 20.3085 25.0329 21.3266C24.9311 21.595 24.8386 21.9559 24.7553 22.4094C24.6905 23.2147 24.6581 24.0754 24.6581 24.9917C24.6581 25.6118 24.672 26.3014 24.6997 27.0603C24.8756 27.2084 24.9635 27.3565 24.9635 27.5046C24.9635 28.1617 23.6724 28.6522 21.0901 28.9762C19.4519 29.1798 17.897 29.2816 16.4254 29.2816V29.2816ZM14.1763 9.70638V10.4561H14.926L16.4254 8.91504L17.9248 10.4561H18.6883V9.70638L17.1473 8.19312L18.6883 6.62433V5.94405H18.0081L16.4254 7.48508L14.926 5.94405H14.1763V6.69374L15.7174 8.19312L14.1763 9.70638ZM16.4254 15.8983C17.0455 15.8983 17.5731 15.6808 18.0081 15.2457C18.4523 14.8015 18.6745 14.2693 18.6745 13.6492C18.6745 13.0291 18.4523 12.5015 18.0081 12.0665C17.5731 11.6223 17.0455 11.4001 16.4254 11.4001C15.796 11.4001 15.2638 11.6176 14.8288 12.0526C14.3938 12.4876 14.1763 13.0198 14.1763 13.6492C14.1763 14.2786 14.3938 14.8107 14.8288 15.2457C15.2638 15.6808 15.796 15.8983 16.4254 15.8983ZM15.1898 21.035C13.1444 21.0905 11.4182 21.2849 10.0114 21.6181C9.94661 21.3775 9.87256 21.1461 9.78926 20.9239C9.28022 19.5356 8.3917 18.4296 7.1237 17.6059C6.59614 17.2727 6.23981 16.8331 6.0547 16.287C5.80481 15.6113 5.82795 14.9542 6.12412 14.3156C6.42955 13.6677 6.92008 13.2188 7.59573 12.9689C7.90116 12.8579 8.20659 12.8023 8.51202 12.8023C8.97479 12.8023 9.41905 12.9365 9.8448 13.2049C12.1309 14.6303 13.7367 16.6109 14.6622 19.1469C14.8751 19.7578 15.051 20.3871 15.1898 21.035ZM17.6749 21.035C17.7952 20.3871 17.9664 19.7578 18.1886 19.1469C19.1048 16.6294 20.7107 14.6488 23.006 13.2049C23.4318 12.9365 23.876 12.8023 24.3388 12.8023C24.635 12.8023 24.9404 12.8579 25.2551 12.9689C25.9215 13.2188 26.4074 13.6677 26.7128 14.3156C27.0182 14.9635 27.0506 15.6206 26.81 16.287C26.6064 16.8423 26.25 17.2819 25.741 17.6059C24.4637 18.4389 23.5706 19.5449 23.0615 20.9239C22.9597 21.2016 22.8857 21.4376 22.8394 21.632C21.4696 21.2988 19.7481 21.0998 17.6749 21.035V21.035Z" fill="black"/>
<path d="M16.4254 14.9403C15.5646 14.9403 15.1342 14.5099 15.1342 13.6492C15.1342 12.7792 15.5646 12.3442 16.4254 12.3442C17.2861 12.3442 17.7165 12.7792 17.7165 13.6492C17.7165 14.5099 17.2861 14.9403 16.4254 14.9403ZM16.4254 21.9374C19.6555 21.9374 22.1035 22.229 23.7695 22.812C23.7788 22.229 23.8991 21.6274 24.1305 21.0072C24.5562 19.8503 25.3106 18.9109 26.3934 18.189C27.3838 17.5226 27.8789 16.56 27.8789 15.3013C27.8789 14.8015 27.7632 14.3017 27.5319 13.8019C27.1246 12.9134 26.4582 12.3025 25.5327 11.9693C25.1069 11.812 24.6858 11.7333 24.2693 11.7333C23.6122 11.7333 22.9874 11.9277 22.3951 12.3164C20.072 13.8343 18.4245 15.9214 17.4527 18.5777C17.0825 19.605 16.8974 20.4149 16.8974 21.0072H15.9533C15.9533 20.4149 15.7682 19.6004 15.398 18.5638C14.4262 15.9168 12.7787 13.8343 10.4556 12.3164C9.854 11.9277 9.22463 11.7333 8.5675 11.7333C8.15101 11.7333 7.73451 11.8074 7.31802 11.9554C6.39248 12.2979 5.72146 12.9134 5.30496 13.8019C5.07358 14.2924 4.95789 14.7876 4.95789 15.2874C4.95789 16.5461 5.45768 17.5133 6.45726 18.189C7.5494 18.9201 8.30372 19.8596 8.72021 21.0072C8.92383 21.5718 9.04415 22.1734 9.08118 22.812C10.7101 22.229 13.1582 21.9374 16.4254 21.9374ZM16.4254 24.8806C19.6277 24.8806 22.0665 25.1676 23.7418 25.7414C23.7418 25.6118 23.7371 25.4174 23.7279 25.1583C23.7186 24.8991 23.714 24.7048 23.714 24.5752C22.4367 24.0754 20.0072 23.8255 16.4253 23.8255C12.8342 23.8255 10.4047 24.0754 9.13669 24.5752C9.13669 24.7048 9.13207 24.8991 9.12281 25.1583C9.12281 25.4174 9.12281 25.6118 9.12281 25.7414C10.7795 25.1676 13.2137 24.8806 16.4254 24.8806ZM16.4254 28.3375C18.045 28.3375 19.748 28.2265 21.5343 28.0043C23.1818 27.8007 24.0055 27.6341 24.0055 27.5045C24.0055 27.2547 23.0013 27.0464 20.9929 26.8798C19.3917 26.741 17.8692 26.6716 16.4254 26.6716C14.7224 26.6716 12.9962 26.7826 11.2469 27.0048C9.64576 27.2084 8.84516 27.375 8.84516 27.5045C8.84516 27.7452 9.84938 27.9534 11.8578 28.1293C13.496 28.2681 15.0185 28.3375 16.4254 28.3375ZM14.1763 9.70637V10.4561H14.926L16.4254 8.91504L17.9247 10.4561H18.6883V9.70637L17.1473 8.19311L18.6883 6.62432V5.94405H18.008L16.4254 7.48507L14.926 5.94405H14.1763V6.69374L15.7173 8.19311L14.1763 9.70637ZM16.4254 15.8983C17.0455 15.8983 17.573 15.6807 18.008 15.2457C18.4523 14.8015 18.6744 14.2693 18.6744 13.6492C18.6744 13.0291 18.4523 12.5015 18.008 12.0665C17.573 11.6222 17.0455 11.4001 16.4254 11.4001C15.796 11.4001 15.2638 11.6176 14.8288 12.0526C14.3938 12.4876 14.1763 13.0198 14.1763 13.6492C14.1763 14.2786 14.3938 14.8107 14.8288 15.2457C15.2638 15.6807 15.796 15.8983 16.4254 15.8983ZM15.1898 21.035C13.1443 21.0905 11.4182 21.2849 10.0113 21.6181C9.94656 21.3775 9.87251 21.1461 9.78922 20.9239C9.28017 19.5356 8.39165 18.4296 7.12365 17.6059C6.5961 17.2727 6.23976 16.833 6.05465 16.287C5.80476 15.6113 5.8279 14.9542 6.12407 14.3156C6.4295 13.6677 6.92004 13.2188 7.59568 12.9689C7.90111 12.8578 8.20654 12.8023 8.51197 12.8023C8.97474 12.8023 9.419 12.9365 9.84475 13.2049C12.1308 14.6303 13.7367 16.6109 14.6622 19.1469C14.8751 19.7578 15.0509 20.3871 15.1898 21.035ZM17.6748 21.035C17.7952 20.3871 17.9664 19.7578 18.1885 19.1469C19.1048 16.6294 20.7106 14.6488 23.006 13.2049C23.4317 12.9365 23.876 12.8023 24.3387 12.8023C24.6349 12.8023 24.9403 12.8578 25.255 12.9689C25.9214 13.2188 26.4073 13.6677 26.7127 14.3156C27.0182 14.9635 27.0506 15.6206 26.8099 16.287C26.6063 16.8423 26.25 17.2819 25.7409 17.6059C24.4637 18.4389 23.5705 19.5449 23.0615 20.9239C22.9597 21.2016 22.8856 21.4376 22.8394 21.632C21.4696 21.2988 19.748 21.0998 17.6748 21.035Z" fill="#EEEEEE"/>
</svg>
