<svg width="32" height="32" viewBox="0 0 32 32" fill="none" xmlns="http://www.w3.org/2000/svg">
<path d="M13.2131 13.5108C13.3334 13.9458 13.176 14.2882 12.741 14.5381C12.306 14.7973 11.9404 14.7603 11.6443 14.4271C11.0982 14.5937 10.7696 14.5751 10.6586 14.3715C10.4457 14.0106 10.839 13.5432 11.8386 12.9693C12.2459 12.7287 12.6253 12.576 12.977 12.5112C13.3287 12.4557 13.5462 12.4973 13.6295 12.6361C13.7406 12.8398 13.6018 13.1313 13.2131 13.5108ZM8.71492 17.7312C8.84449 17.9071 8.85374 18.0598 8.74266 18.1894C8.43724 18.5133 8.07165 18.9807 7.6459 19.5916C7.5626 19.7767 7.46079 19.8137 7.34047 19.7026C7.27568 19.6564 7.24329 19.5823 7.24329 19.4805C7.24329 19.2676 7.40063 18.9391 7.71531 18.4948C8.21511 17.7729 8.5483 17.5184 8.7149 17.7312H8.71492ZM13.5462 9.31807L13.3658 8.79051C13.2454 8.47582 13.1066 8.14726 12.9493 7.80481C12.8382 8.24907 12.7642 8.60077 12.7271 8.85992C12.6994 9.00801 12.6624 9.24403 12.6161 9.56796C12.9122 9.44764 13.2038 9.36435 13.4907 9.31807C13.5185 9.31807 13.537 9.31807 13.5462 9.31807ZM11.6443 10.1788C11.6165 9.74382 11.6535 9.24403 11.7553 8.67944C11.9497 7.53177 12.3014 6.63862 12.8104 6C13.412 6.56458 13.9072 7.38369 14.2959 8.45731C14.333 8.56838 14.3885 8.7396 14.4625 8.97099C14.481 8.99875 14.4995 9.01264 14.5181 9.01264C14.5366 9.01264 14.5597 8.99875 14.5875 8.97099C14.7911 7.81406 15.1474 6.91629 15.6565 6.27766C16.2488 6.87001 16.7394 7.69374 17.1281 8.74886C17.1374 8.80439 17.216 8.87844 17.3641 8.97099L19.4466 9.06817L20.3351 9.95669L22.1538 10.4287L22.126 11.2895L24.0419 12.0669L23.6671 13.1498L25.7218 14.2327L24.9304 14.677L26.3743 16.5234L25.6107 16.7178L27.3322 18.9252L26.3743 18.8974L27.832 21.202L26.7769 20.9105L27.6099 23.1179L26.6797 23.1318L27.832 25.5613L26.8741 25.6863L27.707 27.6993L26.9157 27.9631L27.5404 29.4347H9.03425C9.01575 29.3422 9.00649 29.2496 9.00649 29.1571C9.00649 28.0372 9.65437 26.8479 10.9501 25.5891C11.0242 25.5151 11.6813 24.932 12.9215 23.8398C14.0229 22.868 14.5921 22.3636 14.6292 22.3266C15.3788 21.6232 15.8601 21.0632 16.073 20.6467C16.2951 20.221 16.4478 19.8137 16.5311 19.425C15.9481 19.7027 15.2585 19.8045 14.4626 19.7304C14.0461 19.7027 13.6435 19.6101 13.2547 19.4528C12.5513 20.2025 11.8618 20.6976 11.1861 20.9383C11.0381 21.2992 10.8529 21.6324 10.6308 21.9379C10.2513 22.4839 9.7932 22.9328 9.25639 23.2845C8.54372 23.7565 7.96063 23.8306 7.50711 23.5066C7.28498 23.3586 7.14615 23.2012 7.09062 23.0346C7.01657 23.0346 6.86849 23.0022 6.64636 22.9374C5.93369 22.7523 5.44778 22.271 5.18863 21.4936C4.95724 20.8087 4.93873 20.096 5.1331 19.3556C5.35523 18.5319 5.77635 17.884 6.39646 17.412C7.46083 16.4031 8.32622 15.223 8.99261 13.8718C9.79783 12.2243 10.6817 10.9933 11.6443 10.1788L11.6443 10.1788ZM23.9725 14.8991C23.6485 14.0383 22.9729 13.122 21.9455 12.1502C20.983 11.2247 20.0436 10.5583 19.1273 10.1511C18.4886 9.86414 17.8824 9.72068 17.3086 9.72068C17.0217 9.72068 16.7486 9.75307 16.4895 9.81786C16.4247 9.68828 16.3275 9.44302 16.1979 9.08205C16.0869 8.76737 15.9527 8.43418 15.7953 8.08247C15.5732 8.95248 15.4575 9.65589 15.4482 10.1927C14.7633 10.313 14.3006 10.674 14.0599 11.2756C13.9859 11.3959 13.898 11.4931 13.7961 11.5671C13.4444 11.8078 13.2038 11.8263 13.0742 11.6227C13.0372 11.5671 13.0279 11.4792 13.0465 11.3589C13.102 11.072 13.2964 10.7064 13.6296 10.2621C13.1205 10.3732 12.7642 10.5028 12.5606 10.6508C11.5425 11.4376 10.6447 12.6269 9.86723 14.2188C9.08978 15.8015 8.10407 17.1389 6.91012 18.231C6.49363 18.6105 6.21134 19.0687 6.06326 19.6055C5.93368 20.0867 5.91979 20.5588 6.0216 21.0215C6.15117 21.5861 6.43809 21.9239 6.88235 22.035C7.20629 21.239 7.65519 20.5727 8.22902 20.0358C8.3586 19.897 8.53445 19.8183 8.75658 19.7998C8.97871 19.7906 9.1268 19.8091 9.20084 19.8554C9.26563 19.9016 9.26563 19.9803 9.20084 20.0914C9.00648 20.3505 8.80286 20.6513 8.58999 20.9938C8.36786 21.2622 8.19662 21.5121 8.0763 21.7435C8.03928 21.799 7.98838 21.8962 7.9236 22.035C7.82179 22.3404 7.85417 22.5672 8.02077 22.7153C8.20588 22.8911 8.53445 22.7569 9.00648 22.3127C9.32116 22.0165 9.59419 21.7064 9.82558 21.3825C10.0755 21.0215 10.2606 20.6791 10.3809 20.3552C11.325 19.9387 12.1348 19.425 12.8105 18.8141C12.7272 18.5735 12.6716 18.3467 12.6439 18.1339C12.5606 17.6526 12.6716 17.3842 12.9771 17.3286C13.264 17.2824 13.4583 17.4952 13.5601 17.9673C13.5972 18.1153 13.6527 18.3328 13.7267 18.6198C14.1432 18.7493 14.532 18.8141 14.8929 18.8141C16.0221 18.8141 16.9893 18.3606 17.7945 17.4536C18.5534 16.6113 18.9838 15.6071 19.0856 14.4409C19.0949 14.3299 19.1041 14.2327 19.1134 14.1494C19.1134 13.6681 19.2661 13.4275 19.5715 13.4275C19.8677 13.4275 20.025 13.6727 20.0436 14.1633C20.0436 14.2466 20.0389 14.3623 20.0297 14.5104C19.9186 15.9264 19.3679 17.1528 18.3776 18.1894C19.4419 17.6063 20.187 16.7131 20.6127 15.5099C20.6775 15.3248 20.7053 15.2323 20.696 15.2323C20.8256 14.7788 21.0385 14.589 21.3347 14.6631C21.6216 14.7371 21.7049 15.0102 21.5846 15.4822C21.2421 16.889 20.4138 18.0182 19.0995 18.8697C20.3305 18.7864 21.1496 18.3143 21.5568 17.4536C21.5568 17.4721 21.5799 17.4212 21.6262 17.3009C21.8113 16.8288 22.0335 16.6437 22.2926 16.7455C22.5332 16.8474 22.6073 17.1482 22.5147 17.6479C22.4685 17.759 22.4407 17.8331 22.4314 17.8701C22.0705 18.6383 21.4087 19.1612 20.4462 19.4389C19.826 19.6147 19.1874 19.7026 18.5303 19.7026C18.1508 19.7026 17.7621 19.6749 17.3641 19.6193C17.0494 20.7578 16.5311 21.6741 15.8092 22.3682C15.0595 23.0253 13.935 24.011 12.4356 25.3253C11.2046 26.4082 10.4503 27.4633 10.1726 28.4907H25.93C25.9855 27.7132 26.0133 26.5933 26.0133 25.131C26.0133 20.6884 25.333 17.2777 23.9725 14.8991H23.9725Z" fill="black"/>
<path d="M13.213 13.5108C13.3334 13.9458 13.176 14.2882 12.741 14.5381C12.306 14.7973 11.9404 14.7603 11.6443 14.4271C11.0982 14.5937 10.7696 14.5751 10.6586 14.3715C10.4457 14.0106 10.839 13.5432 11.8386 12.9693C12.2459 12.7287 12.6253 12.576 12.977 12.5112C13.3287 12.4557 13.5462 12.4973 13.6295 12.6361C13.7406 12.8398 13.6018 13.1313 13.213 13.5108ZM8.71491 17.7312C8.84449 17.9071 8.85374 18.0598 8.74266 18.1894C8.43724 18.5133 8.07165 18.9807 7.6459 19.5916C7.5626 19.7767 7.46079 19.8137 7.34047 19.7027C7.27568 19.6564 7.24329 19.5823 7.24329 19.4805C7.24329 19.2676 7.40063 18.9391 7.71531 18.4948C8.2151 17.7729 8.54832 17.5184 8.71491 17.7312ZM13.5462 9.31807L13.3658 8.79051C13.2454 8.47583 13.1066 8.14726 12.9493 7.80481C12.8382 8.24907 12.7642 8.60078 12.7271 8.85993C12.6994 9.00801 12.6624 9.24403 12.6161 9.56797C12.9122 9.44765 13.2038 9.36435 13.4907 9.31807C13.5185 9.31807 13.537 9.31807 13.5462 9.31807ZM23.9725 14.8991C23.6485 14.0383 22.9729 13.122 21.9455 12.1502C20.983 11.2247 20.0436 10.5583 19.1273 10.1511C18.4886 9.86414 17.8824 9.72068 17.3086 9.72068C17.0217 9.72068 16.7486 9.75308 16.4895 9.81786C16.4247 9.68829 16.3275 9.44302 16.1979 9.08206C16.0869 8.76737 15.9527 8.43418 15.7953 8.08247C15.5732 8.95248 15.4575 9.65589 15.4482 10.1927C14.7633 10.313 14.3006 10.674 14.0599 11.2756C13.9859 11.3959 13.898 11.4931 13.7961 11.5671C13.4444 11.8078 13.2038 11.8263 13.0742 11.6227C13.0372 11.5671 13.0279 11.4792 13.0465 11.3589C13.102 11.072 13.2964 10.7064 13.6296 10.2621C13.1205 10.3732 12.7642 10.5028 12.5606 10.6509C11.5425 11.4376 10.6447 12.6269 9.86723 14.2188C9.08978 15.8015 8.10407 17.1389 6.91012 18.231C6.49362 18.6105 6.21134 19.0687 6.06326 19.6055C5.93368 20.0868 5.91979 20.5588 6.0216 21.0215C6.15117 21.5861 6.43809 21.924 6.88235 22.035C7.20629 21.2391 7.65519 20.5727 8.22902 20.0358C8.3586 19.897 8.53445 19.8183 8.75658 19.7998C8.97871 19.7906 9.1268 19.8091 9.20084 19.8554C9.26563 19.9016 9.26563 19.9803 9.20084 20.0914C9.00648 20.3505 8.80286 20.6513 8.58998 20.9938C8.36785 21.2622 8.19662 21.5121 8.0763 21.7435C8.03928 21.799 7.98838 21.8962 7.92359 22.035C7.82178 22.3404 7.85417 22.5672 8.02077 22.7153C8.20588 22.8911 8.53445 22.7569 9.00648 22.3127C9.32116 22.0165 9.59419 21.7064 9.82557 21.3825C10.0755 21.0215 10.2606 20.6791 10.3809 20.3552C11.325 19.9387 12.1348 19.425 12.8105 18.8141C12.7272 18.5735 12.6716 18.3467 12.6439 18.1339C12.5606 17.6526 12.6716 17.3842 12.9771 17.3286C13.264 17.2824 13.4583 17.4952 13.5601 17.9673C13.5972 18.1153 13.6527 18.3328 13.7267 18.6198C14.1432 18.7493 14.532 18.8141 14.8929 18.8141C16.0221 18.8141 16.9893 18.3606 17.7945 17.4536C18.5534 16.6113 18.9838 15.6071 19.0856 14.4409C19.0949 14.3299 19.1041 14.2327 19.1134 14.1494C19.1134 13.6681 19.2661 13.4275 19.5715 13.4275C19.8677 13.4275 20.025 13.6727 20.0435 14.1633C20.0435 14.2466 20.0389 14.3623 20.0297 14.5104C19.9186 15.9264 19.3679 17.1528 18.3776 18.1894C19.4419 17.6063 20.187 16.7132 20.6127 15.5099C20.6775 15.3248 20.7053 15.2323 20.696 15.2323C20.8256 14.7788 21.0385 14.589 21.3347 14.6631C21.6216 14.7371 21.7049 15.0102 21.5846 15.4822C21.2421 16.889 20.4138 18.0182 19.0995 18.8697C20.3305 18.7864 21.1496 18.3143 21.5568 17.4536C21.5568 17.4721 21.5799 17.4212 21.6262 17.3009C21.8113 16.8288 22.0335 16.6437 22.2926 16.7455C22.5332 16.8474 22.6073 17.1482 22.5147 17.6479C22.4685 17.759 22.4407 17.8331 22.4314 17.8701C22.0705 18.6383 21.4087 19.1612 20.4462 19.4389C19.826 19.6147 19.1874 19.7027 18.5303 19.7027C18.1508 19.7027 17.7621 19.6749 17.3641 19.6194C17.0494 20.7578 16.5311 21.6741 15.8092 22.3682C15.0595 23.0253 13.935 24.011 12.4356 25.3253C11.2046 26.4082 10.4503 27.4633 10.1726 28.4907H25.93C25.9855 27.7132 26.0133 26.5933 26.0133 25.131C26.0133 20.6884 25.333 17.2777 23.9725 14.8991Z" fill="white"/>
</svg>
