<svg width="180" height="180" viewBox="0 0 180 180" fill="none" xmlns="http://www.w3.org/2000/svg">
<path d="M92.3243 121.37C96.5413 121.37 99.9253 121.084 102.476 120.511C104.194 120.094 104.949 119.131 104.741 117.622C104.533 116.268 103.543 115.539 101.773 115.435C99.7948 115.955 96.6454 116.216 92.3243 116.216C87.9508 116.216 84.8014 115.955 82.8748 115.435C81.1046 115.487 80.1416 116.216 79.9852 117.622C79.7254 119.131 80.4538 120.094 82.1723 120.511C84.6191 121.084 88.0031 121.37 92.3243 121.37ZM92.3243 58.9742C93.6259 58.9742 94.7711 58.8178 95.76 58.5056C97.3221 58.1411 97.947 57.1258 97.6343 55.4597C97.3221 53.7417 96.3849 53.0128 94.8229 53.2731C93.9898 53.5855 93.1573 53.7417 92.3243 53.7417C91.4912 53.7417 90.6581 53.5855 89.8251 53.2731C88.2112 53.0128 87.2741 53.7417 87.0137 55.4597C86.7015 57.1776 87.3264 58.1929 88.8879 58.5056C89.9291 58.8696 91.0744 59.0259 92.3243 58.9742ZM101.227 55.3817C104.715 60.7438 108.932 65.5858 113.878 69.9069C114.919 70.8441 115.283 71.7553 114.971 72.6401C114.659 73.5773 113.774 74.0458 112.316 74.0458H105.288C106.172 76.9089 107.656 79.2782 109.739 81.1524C115.153 86.0979 117.861 92.0593 117.861 99.0354C117.861 106.532 114.945 112.675 109.114 117.465C111.405 120.12 113.982 122.333 116.845 124.103C123.821 127.799 129.366 133.032 133.479 139.8C137.592 146.516 139.649 153.83 139.649 161.744C139.649 162.837 139.544 164.217 139.336 165.883H45.3124C45.1041 163.644 45 162.264 45 161.744C45 153.83 47.0304 146.516 51.0912 139.8C55.2041 133.032 60.7747 127.799 67.8032 124.103C70.6146 122.333 73.1914 120.12 75.5342 117.465C69.7033 112.728 66.7879 106.584 66.7879 99.0354C66.7879 92.0593 69.4952 86.0979 74.9092 81.1524C76.8876 79.2782 78.3714 76.9089 79.3609 74.0458H72.3324C70.8744 74.0458 69.9896 73.5773 69.6774 72.6401C69.3129 71.7553 69.6774 70.8441 70.7704 69.9069C75.7164 65.5335 79.9335 60.6921 83.4216 55.3817C80.9224 52.8827 79.6731 49.8891 79.6731 46.401C79.6731 42.9128 80.8965 39.9453 83.3434 37.4984C85.8426 34.9995 88.8362 33.75 92.3243 33.75C95.8123 33.75 98.7795 34.9995 101.227 37.4984C103.726 39.9453 104.975 42.9128 104.975 46.401C104.975 49.785 103.726 52.7786 101.227 55.3817ZM87.2483 71.3908C85.4781 71.3908 84.5927 72.3015 84.5927 74.124C84.5927 75.8942 85.4781 76.779 87.2483 76.779H97.4002C99.1704 76.779 100.081 75.8942 100.133 74.124C100.133 72.3015 99.2222 71.3908 97.4002 71.3908H87.2483Z" fill="black"/>
<path d="M92.3243 121.37C96.5413 121.37 99.9253 121.084 102.476 120.511C104.194 120.094 104.949 119.131 104.741 117.622C104.533 116.268 103.543 115.539 101.773 115.435C99.7948 115.955 96.6454 116.216 92.3243 116.216C87.9508 116.216 84.8014 115.955 82.8748 115.435C81.1046 115.487 80.1416 116.216 79.9853 117.622C79.7254 119.131 80.4538 120.094 82.1723 120.511C84.6191 121.084 88.0031 121.37 92.3243 121.37ZM92.3243 58.9742C93.6259 58.9742 94.7711 58.8178 95.76 58.5056C97.3221 58.1411 97.947 57.1258 97.6343 55.4598C97.3221 53.7417 96.385 53.0129 94.8229 53.2732C93.9904 53.5855 93.1573 53.7417 92.3243 53.7417C91.4912 53.7417 90.6581 53.5855 89.8251 53.2732C88.2113 53.0129 87.2741 53.7417 87.0137 55.4598C86.7015 57.1776 87.3265 58.1929 88.888 58.5056C89.9291 58.8696 91.0744 59.0259 92.3243 58.9742ZM87.2483 71.3908C85.4781 71.3908 84.5927 72.3015 84.5927 74.124C84.5927 75.8942 85.4781 76.779 87.2483 76.779H97.4003C99.1705 76.779 100.081 75.8942 100.133 74.124C100.133 72.3015 99.2222 71.3908 97.4003 71.3908H87.2483Z" fill="#EEEEEE"/>
</svg>
