<svg width="32" height="32" viewBox="0 0 32 32" fill="none" xmlns="http://www.w3.org/2000/svg">
<path d="M16.4132 21.5769C17.1629 21.5769 17.7645 21.526 18.218 21.4242C18.5234 21.3501 18.6576 21.1789 18.6206 20.9105C18.5836 20.6698 18.4077 20.5403 18.093 20.5218C17.7413 20.6143 17.1814 20.6606 16.4132 20.6606C15.6357 20.6606 15.0758 20.6143 14.7333 20.5218C14.4186 20.531 14.2474 20.6606 14.2196 20.9105C14.1734 21.1789 14.3029 21.3501 14.6084 21.4242C15.0434 21.526 15.645 21.5769 16.4132 21.5769ZM16.4132 10.4843C16.6446 10.4843 16.8482 10.4565 17.024 10.401C17.3017 10.3362 17.4128 10.1557 17.3572 9.85951C17.3017 9.55408 17.1351 9.4245 16.8574 9.47078C16.7093 9.52631 16.5613 9.55408 16.4132 9.55408C16.2651 9.55408 16.117 9.52631 15.9689 9.47078C15.682 9.4245 15.5154 9.55408 15.4691 9.85951C15.4136 10.1649 15.5247 10.3454 15.8023 10.401C15.9874 10.4657 16.191 10.4935 16.4132 10.4843ZM17.9959 9.84563C18.616 10.7989 19.3657 11.6597 20.2449 12.4279C20.43 12.5945 20.4948 12.7565 20.4393 12.9138C20.3838 13.0804 20.2264 13.1637 19.9673 13.1637H18.7178C18.8751 13.6727 19.1389 14.0939 19.5091 14.4271C20.4717 15.3063 20.953 16.3661 20.953 17.6063C20.953 18.9391 20.4347 20.0312 19.398 20.8827C19.8053 21.3547 20.2634 21.7481 20.7725 22.0628C22.0127 22.7199 22.9984 23.6501 23.7296 24.8533C24.4608 26.0472 24.8264 27.3476 24.8264 28.7544C24.8264 28.9488 24.8078 29.1941 24.7708 29.4903H8.05553C8.01851 29.0923 8 28.847 8 28.7544C8 27.3476 8.36096 26.0472 9.08288 24.8533C9.81406 23.6501 10.8044 22.7199 12.0539 22.0628C12.5537 21.7481 13.0118 21.3547 13.4283 20.8827C12.3917 20.0405 11.8734 18.9483 11.8734 17.6063C11.8734 16.3661 12.3547 15.3063 13.3172 14.4271C13.6689 14.0939 13.9327 13.6727 14.1086 13.1637H12.8591C12.5999 13.1637 12.4426 13.0804 12.3871 12.9138C12.3223 12.7565 12.3871 12.5945 12.5814 12.4279C13.4607 11.6504 14.2104 10.7897 14.8305 9.84563C14.3862 9.40137 14.1641 8.86918 14.1641 8.24907C14.1641 7.62895 14.3816 7.10139 14.8166 6.66639C15.2609 6.22213 15.7931 6 16.4132 6C17.0333 6 17.5608 6.22213 17.9959 6.66639C18.4401 7.10139 18.6622 7.62895 18.6622 8.24907C18.6622 8.85067 18.4401 9.38286 17.9959 9.84563ZM15.5108 12.6917C15.1961 12.6917 15.0387 12.8536 15.0387 13.1776C15.0387 13.4923 15.1961 13.6496 15.5108 13.6496H17.3156C17.6303 13.6496 17.7922 13.4923 17.8015 13.1776C17.8015 12.8536 17.6395 12.6917 17.3156 12.6917H15.5108Z" fill="black"/>
<path d="M16.4132 21.5769C17.1629 21.5769 17.7645 21.526 18.218 21.4242C18.5234 21.3501 18.6576 21.1789 18.6206 20.9105C18.5836 20.6698 18.4077 20.5403 18.093 20.5218C17.7413 20.6143 17.1814 20.6606 16.4132 20.6606C15.6357 20.6606 15.0758 20.6143 14.7333 20.5218C14.4186 20.531 14.2474 20.6606 14.2196 20.9105C14.1734 21.1789 14.3029 21.3501 14.6084 21.4242C15.0434 21.526 15.645 21.5769 16.4132 21.5769ZM16.4132 10.4843C16.6446 10.4843 16.8482 10.4565 17.024 10.401C17.3017 10.3362 17.4128 10.1557 17.3572 9.85952C17.3017 9.55409 17.1351 9.42451 16.8574 9.47079C16.7094 9.52632 16.5613 9.55409 16.4132 9.55409C16.2651 9.55409 16.117 9.52632 15.9689 9.47079C15.682 9.42451 15.5154 9.55409 15.4691 9.85952C15.4136 10.1649 15.5247 10.3454 15.8023 10.401C15.9874 10.4657 16.191 10.4935 16.4132 10.4843ZM15.5108 12.6917C15.1961 12.6917 15.0387 12.8536 15.0387 13.1776C15.0387 13.4923 15.1961 13.6496 15.5108 13.6496H17.3156C17.6303 13.6496 17.7922 13.4923 17.8015 13.1776C17.8015 12.8536 17.6395 12.6917 17.3156 12.6917H15.5108Z" fill="#EEEEEE"/>
</svg>
