<svg width="180" height="180" viewBox="0 0 180 180" fill="none" xmlns="http://www.w3.org/2000/svg">
<path d="M48.8953 136.444L55.6113 138.475L67.5596 129.572L53.3466 125.277C51.212 126.839 49.6502 128.01 48.661 128.791C48.7651 131.342 48.8432 133.893 48.8953 136.444ZM89.6597 121.997C85.2345 124.184 80.7829 126.422 76.3059 128.713L82.9434 132.071C85.1822 133.216 87.4209 134.31 89.6597 135.351L103.013 128.713L89.6597 121.997ZM89.6597 118.483C105.07 118.483 117.07 119.498 125.66 121.529C128.42 122.205 130.189 121.555 130.971 119.576C131.179 119.108 131.283 118.665 131.283 118.249C131.283 116.687 129.981 115.489 127.378 114.656C118.007 111.533 105.434 109.97 89.6597 109.97C73.8849 109.97 61.3119 111.533 51.9409 114.656C49.3378 115.489 48.0363 116.687 48.0363 118.249C48.0363 118.665 48.1404 119.108 48.3487 119.576C49.1296 121.555 50.8997 122.205 53.659 121.529C62.1973 119.498 74.1971 118.483 89.6597 118.483ZM89.6597 147.299C105.07 147.299 117.07 148.314 125.66 150.344C128.42 151.021 130.189 150.371 130.971 148.392C131.179 147.923 131.283 147.481 131.283 147.065C131.283 145.503 129.981 144.28 127.378 143.394C118.059 140.323 105.486 138.787 89.6597 138.787C73.7809 138.787 61.2079 140.323 51.9409 143.394C49.3378 144.28 48.0363 145.503 48.0363 147.065C48.0363 147.481 48.1404 147.923 48.3487 148.392C49.1296 150.371 50.8997 151.021 53.659 150.344C62.1973 148.314 74.1971 147.299 89.6597 147.299ZM89.6597 163.074C81.2779 163.074 72.4792 162.423 63.2644 161.121C48.8432 159.039 41.6327 155.915 41.6327 151.75C41.6327 150.917 42.1013 150.032 43.0383 149.095C43.4028 145.659 43.585 141.468 43.585 136.522C43.585 127.776 43.1425 120.175 42.2574 113.719C41.9451 112.834 41.6067 111.923 41.2422 110.986L40.227 108.097C37.3636 100.287 34.1098 92.7382 30.4654 85.4494C25.1552 85.4494 22.5 82.7944 22.5 77.4844C22.5 72.1738 25.1552 69.5188 30.4654 69.5188C35.7757 69.5188 38.4309 72.1738 38.4309 77.4844C38.4309 78.9941 38.1185 80.1911 37.4938 81.0765C39.1597 83.5234 41.7368 87.1414 45.2249 91.9311C45.5894 92.3996 46.2401 93.285 47.1773 94.5866C50.8736 100.105 53.4767 102.786 54.9865 102.63C57.7457 102.37 59.1255 97.8666 59.1255 89.1203C59.1255 84.7468 58.7869 79.3322 58.1102 72.8769C53.5808 72.1997 51.3161 69.5706 51.3161 64.9896C51.3161 59.7313 53.9713 57.1022 59.2819 57.1022C64.5919 57.1022 67.2469 59.7313 67.2469 64.9896C67.2469 67.5405 66.2839 69.597 64.3579 71.1585C65.8153 79.9571 69.4074 89.4066 75.1342 99.5063C76.2795 99.3499 77.2166 99.2722 77.9456 99.2722C80.4448 96.0964 82.4749 89.6664 84.0369 79.983C85.1822 72.9028 85.8589 66.0825 86.0676 59.5226C86.0676 58.1693 86.2234 56.5296 86.5361 54.6031C83.3079 53.3536 81.6941 50.9327 81.6941 47.3405C81.6941 42.0302 84.3491 39.375 89.6597 39.375C94.9697 39.375 97.6252 42.0302 97.6252 47.3405C97.6252 50.9327 96.0114 53.3536 92.7832 54.6031C93.0954 56.8935 93.2518 58.5338 93.2518 59.5226C93.4082 66.1348 94.059 72.9546 95.2042 79.983C96.7663 89.6664 98.8222 96.0964 101.374 99.2722C102.05 99.2722 102.988 99.3499 104.185 99.5063C109.911 89.2502 113.504 79.8008 114.961 71.1585C113.035 69.597 112.072 67.5405 112.072 64.9896C112.072 59.7313 114.727 57.1022 120.037 57.1022C125.348 57.1022 128.003 59.7313 128.003 64.9896C128.003 69.5706 125.738 72.1997 121.209 72.8769C120.532 79.3322 120.194 84.7468 120.194 89.1203C120.194 97.8666 121.574 102.37 124.333 102.63C125.791 102.786 128.393 100.105 132.142 94.5866C133.6 92.6083 135.734 89.5624 138.545 85.4494C139.431 83.9919 140.524 82.5339 141.825 81.0765C141.201 80.1911 140.888 78.9941 140.888 77.4844C140.888 72.1738 143.543 69.5188 148.854 69.5188C154.164 69.5188 156.819 72.1738 156.819 77.4844C156.819 82.7944 154.164 85.4494 148.854 85.4494C145.313 92.3737 142.06 99.9231 139.092 108.097L137.062 113.719C136.177 120.487 135.734 128.088 135.734 136.522C135.734 141.468 135.916 145.659 136.281 149.095C137.218 149.928 137.686 150.813 137.686 151.75C137.686 155.915 130.476 159.039 116.055 161.121C106.84 162.423 98.0415 163.074 89.6597 163.074ZM130.424 136.444C130.424 133.893 130.502 131.342 130.658 128.791C129.617 128.01 128.055 126.839 125.972 125.277L111.76 129.572L117.695 134.024C119.673 135.533 121.678 137.017 123.708 138.475C125.895 137.85 128.133 137.173 130.424 136.444Z" fill="black"/>
<path d="M48.8951 136.444L55.611 138.475L67.5591 129.572L53.3464 125.277C51.2118 126.839 49.6499 128.01 48.6608 128.791C48.7648 131.342 48.8429 133.893 48.8951 136.444ZM89.6592 121.997C85.234 124.184 80.7829 126.422 76.3054 128.713L82.9435 132.071C85.1822 133.216 87.421 134.31 89.6592 135.351L103.013 128.713L89.6592 121.997ZM89.6592 118.483C105.069 118.483 117.07 119.498 125.66 121.529C128.419 122.205 130.19 121.555 130.97 119.576C131.178 119.108 131.282 118.665 131.282 118.249C131.282 116.687 129.981 115.489 127.378 114.656C118.007 111.533 105.434 109.971 89.6592 109.971C73.8844 109.971 61.312 111.533 51.9407 114.656C49.3376 115.489 48.036 116.687 48.036 118.249C48.036 118.665 48.1401 119.108 48.3484 119.576C49.1293 121.555 50.8994 122.205 53.6587 121.529C62.1968 119.498 74.1972 118.483 89.6592 118.483ZM89.6592 147.299C105.069 147.299 117.07 148.314 125.66 150.344C128.419 151.022 130.19 150.371 130.97 148.393C131.178 147.924 131.282 147.481 131.282 147.065C131.282 145.503 129.981 144.28 127.378 143.394C118.059 140.323 105.486 138.787 89.6592 138.787C73.7803 138.787 61.2079 140.323 51.9407 143.394C49.3376 144.28 48.036 145.503 48.036 147.065C48.036 147.481 48.1401 147.924 48.3484 148.393C49.1293 150.371 50.8994 151.022 53.6587 150.344C62.1968 148.314 74.1972 147.299 89.6592 147.299ZM130.424 136.444C130.424 133.893 130.502 131.342 130.658 128.791C129.617 128.01 128.055 126.839 125.972 125.277L111.76 129.572L117.695 134.024C119.673 135.533 121.677 137.017 123.708 138.475C125.894 137.85 128.133 137.173 130.424 136.444Z" fill="#EEEEEE"/>
</svg>
