<svg width="256" height="256" viewBox="0 0 256 256" fill="none" xmlns="http://www.w3.org/2000/svg">
<path d="M179.419 234.499C183.392 233.117 187.279 231.735 191.079 230.353C195.052 229.144 198.679 228.539 201.961 228.539C206.107 228.539 211.375 229.144 217.766 230.353C224.157 231.735 230.98 234.758 238.235 239.421C237.199 237.003 236.162 234.93 235.126 233.203C234.09 231.476 232.88 229.835 231.499 228.28C230.289 226.898 228.908 225.516 227.353 224.135C225.798 222.925 223.898 221.457 221.653 219.73C224.589 219.212 227.353 219.125 229.944 219.471C232.708 219.816 235.471 220.766 238.235 222.321C237.199 220.766 235.644 219.039 233.571 217.139C231.671 215.411 229.426 213.77 226.835 212.216C224.417 210.661 221.739 209.366 218.803 208.329C216.039 207.293 213.189 206.775 210.252 206.775C204.725 206.775 198.679 207.552 192.115 209.107C185.724 210.834 179.506 212.648 173.46 214.548C169.487 215.584 165.773 216.534 162.319 217.398C158.864 218.434 156.187 218.953 154.287 218.953C152.387 218.953 150.487 218.348 148.587 217.139C146.859 216.102 145.305 214.721 143.923 212.993C142.541 211.266 141.418 209.366 140.554 207.293C139.863 205.393 139.518 203.493 139.518 201.593C147.118 201.247 153.337 200.038 158.173 197.965C163.183 195.893 165.687 193.647 165.687 191.229C165.687 188.12 165.255 185.269 164.392 182.678C163.701 180.26 162.923 177.151 162.06 173.351C161.369 170.587 160.937 168.255 160.764 166.355C160.591 164.282 160.591 162.469 160.764 160.914C160.937 159.187 161.196 157.546 161.541 155.991C162.06 154.437 162.578 152.623 163.096 150.55C164.133 146.923 165.601 143.727 167.501 140.963C169.401 138.027 171.215 134.831 172.942 131.377C174.669 127.749 176.138 123.604 177.347 118.94C178.729 114.103 179.419 107.971 179.419 100.544C179.419 94.6708 178.556 88.7979 176.828 82.9249C175.274 76.8793 173.201 71.3518 170.61 66.3425C168.192 61.3332 165.428 57.1013 162.319 53.6466C159.382 50.0192 156.619 47.6009 154.028 46.3918C157.31 46.2191 160.073 44.9236 162.319 42.5053C164.564 40.0871 165.687 37.2369 165.687 33.955C165.687 30.1548 164.478 27.0457 162.06 24.6274C159.641 22.2091 156.705 21 153.25 21C149.277 21 145.995 22.2091 143.404 24.6274C140.986 27.0457 139.777 30.1548 139.777 33.955C139.777 36.7187 140.554 39.137 142.109 41.2098C143.836 43.2826 145.909 44.9236 148.327 46.1327C144.7 46.3054 141.418 48.2919 138.482 52.092C134.509 48.8101 130.536 46.8236 126.563 46.1327C129.154 45.269 131.4 43.8008 133.3 41.728C135.2 39.4825 136.15 36.8914 136.15 33.955C136.15 30.1548 134.854 27.0457 132.263 24.6274C129.672 22.2091 126.563 21 122.936 21C119.308 21 116.285 22.2091 113.867 24.6274C111.449 27.0457 110.24 30.1548 110.24 33.955C110.24 37.0642 111.103 39.7416 112.831 41.9871C114.731 44.2327 117.063 45.7009 119.826 46.3918C114.644 47.4282 109.549 49.9329 104.539 53.9057C99.5302 57.8786 95.0391 62.5424 91.0662 67.8971C87.2661 73.0791 84.1569 78.6066 81.7386 84.4795C79.4931 90.1797 78.3704 95.3617 78.3704 100.026C78.3704 107.108 78.9749 113.067 80.1841 117.903C81.3932 122.74 82.8614 127.058 84.5888 130.858C86.3161 134.486 88.0435 137.854 89.7708 140.963C91.6709 144.073 93.2255 147.355 94.4346 150.809C94.9528 152.882 95.3846 154.782 95.73 156.509C96.2482 158.064 96.5073 159.705 96.5073 161.432C96.6801 162.987 96.5937 164.801 96.2483 166.873C96.0755 168.946 95.6437 171.364 94.9527 174.128C94.4345 177.928 93.5709 180.951 92.3618 183.197C91.3254 185.615 91.1526 188.379 91.8435 191.488C92.3617 193.733 94.8663 195.806 99.3574 197.706C103.848 199.779 109.721 201.075 116.976 201.593C116.976 203.493 116.544 205.393 115.681 207.293C114.99 209.366 113.953 211.266 112.572 212.993C111.19 214.721 109.635 216.102 107.908 217.139C106.18 218.348 104.367 218.953 102.467 218.953C100.394 218.953 97.6301 218.434 94.1755 217.398C90.8935 216.534 87.2661 215.584 83.2932 214.548C77.2476 212.648 70.9428 210.834 64.3789 209.107C57.9878 207.552 52.0285 206.775 46.501 206.775C43.3918 206.775 40.3689 207.293 37.4325 208.329C34.496 209.366 31.7323 210.661 29.1413 212.216C26.723 213.77 24.4775 215.411 22.4047 217.139C20.5046 219.039 19.0364 220.766 18 222.321C20.9365 220.766 23.7866 219.816 26.5503 219.471C29.314 219.125 32.1641 219.212 35.1006 219.73C32.6823 221.457 30.6959 222.925 29.1413 224.135C27.5867 225.516 26.2049 226.898 24.9957 228.28C23.7866 229.835 22.6638 231.476 21.6274 233.203C20.591 234.93 19.5546 237.003 18.5182 239.421C25.6002 234.758 32.3369 231.735 38.728 230.353C45.1191 229.144 50.3012 228.539 54.274 228.539C57.7287 228.539 61.3561 229.144 65.1562 230.353L77.334 234.499C81.6523 236.399 85.9706 238.04 90.289 239.421C94.6073 240.803 98.9256 241.494 103.244 241.494C109.29 241.494 114.385 240.458 118.531 238.385C122.849 236.485 126.131 234.067 128.377 231.13C130.622 234.067 133.818 236.485 137.963 238.385C142.109 240.458 147.291 241.494 153.509 241.494C157.828 241.494 162.146 240.803 166.464 239.421C170.783 238.04 175.101 236.399 179.419 234.499ZM106.094 87.5887H119.567V67.638H128.636V87.5887H142.109V97.9527H128.636V124.64H119.567V97.9527H106.094V87.5887ZM128.377 179.828C125.267 179.828 122.158 180.087 119.049 180.606C115.94 181.124 113.003 181.815 110.24 182.678C107.476 183.542 104.885 184.492 102.467 185.529C100.221 186.738 98.4074 187.861 97.0256 188.897L99.6165 178.533C103.589 176.115 108.167 174.215 113.349 172.833C118.704 171.451 123.713 170.76 128.377 170.76C132.868 170.76 137.791 171.451 143.145 172.833C148.5 174.215 153.164 176.115 157.137 178.533L159.728 188.897C156.791 186.651 152.3 184.579 146.255 182.678C140.382 180.778 134.422 179.828 128.377 179.828ZM100.653 150.032C103.417 147.441 107.044 145.627 111.535 144.591C116.199 143.382 121.813 142.777 128.377 142.777C134.941 142.777 140.554 143.295 145.218 144.332C149.882 145.195 153.682 146.836 156.619 149.255L153.509 157.546C151.782 155.991 148.673 154.609 144.182 153.4C139.691 152.191 134.422 151.586 128.377 151.586C122.331 151.586 117.063 152.191 112.572 153.4C108.081 154.609 104.971 155.991 103.244 157.546L100.653 150.032ZM162.06 122.308C162.923 106.589 161.887 94.0662 158.951 84.7386C156.187 75.411 152.041 67.7244 146.514 61.6787L144.959 59.0877L142.368 56.4967L142.886 55.4603C143.232 54.7694 143.836 54.0785 144.7 53.3875C145.218 52.8693 145.564 52.6102 145.736 52.6102C145.909 52.6102 146.686 53.1284 148.068 54.1648L150.659 56.7558C152.905 59.5196 155.064 62.7151 157.137 66.3425C159.382 69.9699 161.196 74.2882 162.578 79.2975C164.133 84.3068 165.083 90.2661 165.428 97.1754C165.946 104.085 165.687 112.203 164.651 121.531L164.132 125.158C164.132 125.849 163.701 126.022 162.837 125.676C162.319 125.504 162.06 124.381 162.06 122.308ZM118.272 161.95C122.59 161.087 125.958 158.841 128.377 155.214C130.795 158.841 133.991 161.087 137.963 161.95C133.991 162.814 130.795 165.06 128.377 168.687C125.958 165.06 122.59 162.814 118.272 161.95ZM154.287 173.092C151.696 169.983 148.673 168.082 145.218 167.392C146.773 167.046 148.155 166.355 149.364 165.319C150.746 164.282 152.128 163.073 153.509 161.691C152.991 164.282 152.732 166.182 152.732 167.392C152.905 168.601 153.423 170.501 154.287 173.092ZM102.467 173.092C102.985 170.501 103.33 168.601 103.503 167.392C103.676 166.182 103.589 164.282 103.244 161.691C104.28 163.073 105.49 164.282 106.871 165.319C108.081 166.355 109.549 167.046 111.276 167.392C107.303 168.255 104.367 170.155 102.467 173.092Z" fill="black"/>
<path d="M106.094 87.5887H119.567V67.638H128.636V87.5887H142.109V97.9527H128.636V124.64H119.567V97.9527H106.094V87.5887Z" fill="#EEEEEE"/>
<path d="M162.06 122.308C162.923 106.589 161.887 94.0662 158.951 84.7386C156.187 75.411 152.041 67.7244 146.514 61.6787L144.959 59.0877L142.368 56.4967L142.886 55.4603C143.232 54.7694 143.836 54.0785 144.7 53.3875C145.218 52.8693 145.564 52.6102 145.736 52.6102C145.909 52.6102 146.686 53.1284 148.068 54.1648L150.659 56.7558C152.905 59.5196 155.064 62.7151 157.137 66.3425C159.382 69.9699 161.196 74.2882 162.578 79.2975C164.133 84.3068 165.083 90.2661 165.428 97.1754C165.946 104.085 165.687 112.203 164.651 121.531L164.132 125.158C164.132 125.849 163.701 126.022 162.837 125.676C162.319 125.504 162.06 124.381 162.06 122.308Z" fill="#EEEEEE"/>
<path d="M100.653 150.032C103.417 147.441 107.044 145.627 111.535 144.591C116.199 143.382 121.813 142.777 128.377 142.777C134.941 142.777 140.554 143.295 145.218 144.332C149.882 145.195 153.682 146.836 156.619 149.255L153.509 157.546C151.782 155.991 148.673 154.609 144.182 153.4C139.691 152.191 134.422 151.586 128.377 151.586C122.331 151.586 117.063 152.191 112.572 153.4C108.081 154.609 104.971 155.991 103.244 157.546L100.653 150.032Z" fill="#EEEEEE"/>
<path d="M118.272 161.95C122.59 161.087 125.958 158.841 128.377 155.214C130.795 158.841 133.991 161.087 137.963 161.95C133.991 162.814 130.795 165.06 128.377 168.687C125.958 165.06 122.59 162.814 118.272 161.95Z" fill="#EEEEEE"/>
<path d="M102.467 173.092C102.985 170.501 103.33 168.601 103.503 167.392C103.676 166.182 103.589 164.282 103.244 161.691C104.28 163.073 105.49 164.282 106.871 165.319C108.081 166.355 109.549 167.046 111.276 167.392C107.303 168.255 104.367 170.155 102.467 173.092Z" fill="#EEEEEE"/>
<path d="M154.287 173.092C151.696 169.983 148.673 168.082 145.218 167.392C146.773 167.046 148.155 166.355 149.364 165.319C150.746 164.282 152.128 163.073 153.509 161.691C152.991 164.282 152.732 166.182 152.732 167.392C152.905 168.601 153.423 170.501 154.287 173.092Z" fill="#EEEEEE"/>
<path d="M128.377 179.828C125.267 179.828 122.158 180.087 119.049 180.606C115.94 181.124 113.003 181.815 110.24 182.678C107.476 183.542 104.885 184.492 102.467 185.529C100.221 186.738 98.4074 187.861 97.0256 188.897L99.6165 178.533C103.589 176.115 108.167 174.215 113.349 172.833C118.704 171.451 123.713 170.76 128.377 170.76C132.868 170.76 137.791 171.451 143.145 172.833C148.5 174.215 153.164 176.115 157.137 178.533L159.728 188.897C156.791 186.651 152.3 184.579 146.255 182.678C140.382 180.778 134.422 179.828 128.377 179.828Z" fill="#EEEEEE"/>
</svg>
