<svg width="256" height="256" viewBox="0 0 256 256" fill="none" xmlns="http://www.w3.org/2000/svg">
<path d="M133.19 64.9828C135.954 63.9464 138.2 62.3054 139.927 60.0599C141.827 57.6416 142.777 54.8779 142.777 51.7687C142.777 47.7958 141.309 44.3412 138.372 41.4047C135.609 38.4682 132.24 37 128.267 37C124.295 37 120.84 38.4682 117.903 41.4047C115.14 44.3412 113.758 47.7958 113.758 51.7687C113.758 54.8779 114.622 57.6416 116.349 60.0599C118.249 62.4782 120.581 64.1191 123.345 64.9828C122.654 69.9921 121.79 76.0378 120.754 83.1198C119.89 90.2019 118.854 97.4567 117.644 104.884C116.608 112.312 115.485 119.653 114.276 126.908C113.067 133.99 111.944 140.122 110.908 145.304C108.835 140.813 106.417 135.285 103.653 128.721C101.062 122.158 98.5573 116.026 96.1391 110.325C96.1391 110.325 95.7072 109.289 94.8436 107.216C93.9799 105.143 93.0299 102.811 91.9934 100.22C90.957 97.4567 89.9206 94.7793 88.8842 92.1883C87.8478 89.4246 87.0705 87.5245 86.5523 86.4881C90.698 83.7244 92.7708 79.9242 92.7708 75.0877C92.7708 71.1148 91.3889 67.7465 88.6251 64.9828C85.8614 62.0463 82.4068 60.5781 78.2611 60.5781C74.2883 60.5781 70.8336 62.0463 67.8971 64.9828C65.1334 67.7465 63.7515 71.1148 63.7515 75.0877C63.7515 79.0606 65.1334 82.4289 67.8971 85.1926C70.8336 87.7836 74.2883 89.0791 78.2611 89.0791H78.7793C79.4703 92.7065 80.1612 97.0249 80.8521 102.034C81.7158 107.043 82.4067 112.225 82.9249 117.58C83.6159 122.935 84.1341 128.203 84.4795 133.385C84.825 138.567 84.9978 143.231 84.9978 147.377V148.672C82.4068 145.908 79.3839 142.799 75.9292 139.345C72.4746 135.717 68.9335 132.176 65.3061 128.721C61.6787 125.267 58.2241 121.985 54.9421 118.876C51.6602 115.766 48.9828 113.175 46.91 111.103C47.601 109.721 48.2055 108.425 48.7237 107.216C49.4147 105.834 49.7601 104.366 49.7601 102.811C49.7601 98.8386 48.3783 95.4703 45.6145 92.7065C42.8508 89.77 39.3961 88.3018 35.2505 88.3018C31.2776 88.3018 27.9093 89.77 25.1456 92.7065C22.3819 95.4703 21 98.8386 21 102.811C21 106.957 22.3819 110.412 25.1456 113.175C27.9093 115.939 31.2776 117.321 35.2505 117.321C35.9414 117.321 36.546 117.235 37.0642 117.062C37.7551 116.889 38.5324 116.716 39.3961 116.544C52.0057 136.408 59.2605 150.745 61.1605 159.554C57.0149 160.936 54.5967 162.75 53.9057 164.995C53.5603 165.859 53.3875 166.55 53.3875 167.068C53.3875 167.586 53.3875 168.105 53.3875 168.623C53.3875 170.696 53.9057 172.423 54.9421 173.805C55.9785 175.014 57.1877 176.137 58.5695 177.173C59.6059 178.037 60.556 178.987 61.4196 180.023C62.456 180.887 63.4924 182.096 64.5288 183.651C64.8743 183.651 65.1334 183.823 65.3061 184.169C65.6516 184.514 65.8243 184.687 65.8243 184.687C67.2062 186.76 68.1562 189.351 68.6744 192.46C69.3654 195.397 69.7108 198.592 69.7108 202.047C69.7108 204.465 69.5381 206.883 69.1926 209.302C69.0199 211.893 68.5017 214.052 67.638 215.779C67.638 216.125 67.4653 216.384 67.1198 216.556C66.7744 216.902 66.4289 217.247 66.0834 217.593C65.2198 218.111 64.4425 218.716 63.7515 219.407C63.0606 220.27 62.7151 221.393 62.7151 222.775C62.7151 225.366 64.097 227.611 66.8607 229.511C71.1791 233.139 78.8657 235.989 89.9207 238.062C101.148 240.135 113.931 241.171 128.267 241.171C142.604 241.171 155.3 240.135 166.355 238.062C177.583 235.989 185.356 233.139 189.674 229.511C192.438 227.611 193.82 225.366 193.82 222.775C193.82 221.393 193.474 220.27 192.783 219.407C192.092 218.716 191.315 218.111 190.452 217.593C190.106 217.247 189.761 216.902 189.415 216.556C189.07 216.384 188.897 216.125 188.897 215.779C188.033 214.052 187.429 211.893 187.083 209.302C186.91 206.883 186.824 204.465 186.824 202.047C186.824 198.592 187.083 195.397 187.601 192.46C188.292 189.351 189.329 186.76 190.711 184.687L191.488 183.651C192.87 182.096 193.993 180.887 194.856 180.023C195.893 178.987 196.929 178.037 197.965 177.173C199.347 176.137 200.556 175.014 201.593 173.805C202.629 172.423 203.147 170.696 203.147 168.623C203.147 168.105 203.147 167.586 203.147 167.068C203.147 166.55 202.975 165.859 202.629 164.995C201.938 162.75 199.52 160.936 195.374 159.554C197.275 150.745 204.529 136.408 217.139 116.544C218.003 116.716 218.693 116.889 219.212 117.062C219.903 117.235 220.594 117.321 221.284 117.321C225.257 117.321 228.626 115.939 231.389 113.175C234.153 110.412 235.535 106.957 235.535 102.811C235.535 98.8386 234.153 95.4703 231.389 92.7065C228.626 89.77 225.257 88.3018 221.284 88.3018C217.139 88.3018 213.684 89.77 210.92 92.7065C208.157 95.4703 206.775 98.8386 206.775 102.811C206.775 104.366 207.034 105.834 207.552 107.216C208.243 108.425 208.934 109.721 209.625 111.103C207.552 113.175 204.875 115.766 201.593 118.876C198.311 121.985 194.856 125.267 191.229 128.721C187.601 132.176 184.06 135.717 180.606 139.345C177.151 142.799 174.128 145.908 171.537 148.672V147.377C171.537 143.231 171.71 138.567 172.055 133.385C172.401 128.203 172.833 122.935 173.351 117.58C174.042 112.225 174.733 107.043 175.424 102.034C176.115 97.0249 176.892 92.7065 177.756 89.0791H178.274C182.247 89.0791 185.615 87.7836 188.379 85.1926C191.315 82.4289 192.783 79.0606 192.783 75.0877C192.783 71.1148 191.315 67.7465 188.379 64.9828C185.615 62.0463 182.247 60.5781 178.274 60.5781C174.128 60.5781 170.674 62.0463 167.91 64.9828C165.146 67.7465 163.764 71.1148 163.764 75.0877C163.764 79.9242 165.837 83.7244 169.983 86.4881C169.464 87.5245 168.687 89.4246 167.651 92.1883C166.614 94.7793 165.578 97.4567 164.542 100.22C163.505 102.811 162.555 105.143 161.691 107.216C160.828 109.289 160.396 110.325 160.396 110.325C157.978 116.026 155.387 122.158 152.623 128.721C150.032 135.285 147.7 140.813 145.627 145.304C144.591 140.64 143.468 134.853 142.259 127.944C141.05 120.862 139.841 113.607 138.632 106.18C137.595 98.5795 136.559 91.1519 135.522 83.8971C134.659 76.6423 133.881 70.3375 133.19 64.9828ZM68.4153 176.396C72.0427 172.423 78.7793 169.4 88.6251 167.327C89.1433 167.327 89.4024 167.155 89.4024 166.809C94.5845 165.773 100.371 164.909 106.762 164.218C113.326 163.527 120.494 163.182 128.267 163.182C136.04 163.182 143.123 163.527 149.514 164.218C156.078 164.909 161.951 165.773 167.133 166.809C167.133 167.155 167.392 167.327 167.91 167.327C177.756 169.4 184.492 172.423 188.12 176.396C187.774 177.26 187.17 178.123 186.306 178.987L185.27 180.282C184.751 180.973 184.233 181.837 183.715 182.873C183.197 183.737 182.765 184.601 182.419 185.464C180.001 183.219 174.128 180.714 164.801 177.95C155.646 175.187 143.468 173.805 128.267 173.805C112.376 173.805 99.8528 175.273 90.698 178.21C81.7158 180.973 76.1883 183.478 74.1155 185.723C73.7701 184.687 73.2519 183.651 72.5609 182.614C72.0427 181.578 71.5245 180.628 71.0063 179.764C69.9699 179.073 69.1063 177.95 68.4153 176.396ZM111.167 191.683C117.903 190.128 123.604 186.155 128.267 179.764C132.931 186.155 138.631 190.128 145.368 191.683C141.913 192.201 138.804 193.41 136.04 195.31C133.277 197.383 130.686 199.974 128.267 203.083C125.849 199.974 123.258 197.383 120.494 195.31C117.731 193.41 114.622 192.201 111.167 191.683ZM91.9934 201.01C85.6023 202.047 80.4203 205.07 76.4475 210.079C76.6202 208.697 76.7929 207.315 76.9656 205.933C77.1384 204.551 77.2247 203.17 77.2247 201.788C77.2247 197.988 76.7065 194.274 75.6701 190.646C77.9157 193.237 80.3339 195.397 82.9249 197.124C85.5159 198.851 88.5388 200.147 91.9934 201.01ZM73.5974 219.407C73.7701 219.234 73.9428 218.975 74.1155 218.629C74.6337 217.593 74.8928 216.729 74.8928 216.038C80.0748 214.138 86.9842 212.756 95.6209 211.893C104.43 211.202 115.312 210.856 128.267 210.856C141.222 210.856 152.018 211.202 160.655 211.893C169.464 212.756 176.46 214.138 181.642 216.038C181.642 216.384 181.729 216.902 181.901 217.593C182.247 218.284 182.506 218.802 182.679 219.147C182.851 219.32 182.851 219.234 182.679 218.888C182.679 218.716 182.679 218.802 182.679 219.147C183.197 220.011 183.801 220.875 184.492 221.738C185.183 222.602 185.701 223.207 186.047 223.552C186.047 223.725 186.133 223.638 186.306 223.293C186.479 223.12 186.392 223.207 186.047 223.552C185.529 224.07 184.665 224.675 183.456 225.366C182.419 226.229 181.297 226.834 180.088 227.18C178.015 225.625 174.906 224.416 170.76 223.552C166.614 222.861 162.037 222.343 157.028 221.998C152.018 221.652 146.923 221.393 141.741 221.22C136.559 221.22 132.068 221.22 128.267 221.22C124.295 221.22 119.717 221.22 114.535 221.22C109.526 221.393 104.517 221.652 99.5074 221.998C94.4981 222.343 89.9206 222.861 85.775 223.552C81.6294 224.416 78.5203 225.625 76.4475 227.18C74.0292 226.489 72.3018 225.539 71.2654 224.329C70.5745 223.811 70.229 223.379 70.229 223.034V222.775C70.7472 222.429 71.3518 221.998 72.0427 221.479C72.7337 220.961 73.2519 220.27 73.5974 219.407ZM164.542 201.01C167.996 200.147 171.019 198.851 173.61 197.124C176.201 195.397 178.619 193.237 180.865 190.646C179.828 194.274 179.31 197.988 179.31 201.788C179.31 203.17 179.397 204.551 179.569 205.933C179.742 207.315 179.915 208.697 180.088 210.079C176.115 205.07 170.933 202.047 164.542 201.01Z" fill="black"/>
<path d="M164.542 201.01C167.996 200.147 171.019 198.851 173.61 197.124C176.201 195.397 178.619 193.237 180.865 190.646C179.828 194.274 179.31 197.988 179.31 201.788C179.31 203.17 179.397 204.551 179.569 205.933L180.088 210.079C176.115 205.07 170.933 202.047 164.542 201.01Z" fill="#EEEEEE"/>
<path d="M68.4153 176.396C72.0427 172.423 78.7793 169.4 88.6251 167.327C89.1433 167.327 89.4024 167.155 89.4024 166.809C94.5845 165.773 100.371 164.909 106.762 164.218C113.326 163.527 120.494 163.182 128.267 163.182C136.04 163.182 143.123 163.527 149.514 164.218C156.078 164.909 161.951 165.773 167.133 166.809C167.133 167.155 167.392 167.327 167.91 167.327C177.756 169.4 184.492 172.423 188.12 176.396C187.774 177.26 187.17 178.123 186.306 178.987L185.27 180.282C184.751 180.973 184.233 181.837 183.715 182.873C183.197 183.737 182.765 184.601 182.419 185.464C180.001 183.219 174.128 180.714 164.801 177.95C155.646 175.187 143.468 173.805 128.267 173.805C112.376 173.805 99.8528 175.273 90.698 178.21C81.7158 180.973 76.1883 183.478 74.1155 185.723C73.7701 184.687 73.2519 183.651 72.5609 182.614C72.0427 181.578 71.5245 180.628 71.0063 179.764C69.9699 179.073 69.1063 177.95 68.4153 176.396Z" fill="#EEEEEE"/>
<path d="M74.1155 218.629C73.9428 218.975 73.7701 219.234 73.5974 219.407C73.2519 220.27 72.7337 220.961 72.0427 221.479C71.3518 221.998 70.7472 222.429 70.229 222.775V223.034C70.229 223.379 70.5745 223.811 71.2654 224.329C72.3018 225.539 74.0292 226.489 76.4475 227.18C78.5203 225.625 81.6294 224.416 85.775 223.552C89.9206 222.861 94.4981 222.343 99.5074 221.998C104.517 221.652 109.526 221.393 114.535 221.22H128.267H141.741C146.923 221.393 152.018 221.652 157.028 221.998C162.037 222.343 166.614 222.861 170.76 223.552C174.906 224.416 178.015 225.625 180.088 227.18C181.297 226.834 182.419 226.229 183.456 225.366C184.665 224.675 185.529 224.07 186.047 223.552C185.701 223.207 185.183 222.602 184.492 221.738C183.801 220.875 183.197 220.011 182.679 219.147L181.901 217.593C181.729 216.902 181.642 216.384 181.642 216.038C176.46 214.138 169.464 212.756 160.655 211.893C152.018 211.202 141.222 210.856 128.267 210.856C115.312 210.856 104.43 211.202 95.6209 211.893C86.9842 212.756 80.0748 214.138 74.8928 216.038C74.8928 216.729 74.6337 217.593 74.1155 218.629Z" fill="#EEEEEE"/>
<path d="M111.167 191.683C117.903 190.128 123.604 186.155 128.267 179.764C132.931 186.155 138.631 190.128 145.368 191.683C141.913 192.201 138.804 193.41 136.04 195.31C133.277 197.383 130.686 199.974 128.267 203.083C125.849 199.974 123.258 197.383 120.494 195.31C117.731 193.41 114.622 192.201 111.167 191.683Z" fill="#EEEEEE"/>
<path d="M91.9934 201.01C85.6023 202.047 80.4203 205.07 76.4475 210.079L76.9656 205.933C77.1384 204.551 77.2247 203.17 77.2247 201.788C77.2247 197.988 76.7065 194.274 75.6701 190.646C77.9157 193.237 80.3339 195.397 82.9249 197.124C85.5159 198.851 88.5388 200.147 91.9934 201.01Z" fill="#EEEEEE"/>
</svg>
