<svg width="256" height="256" viewBox="0 0 256 256" fill="none" xmlns="http://www.w3.org/2000/svg">
<path d="M40 215.152V238.73L126.539 240.544L216.447 238.73V215.152L215.411 214.115C213.684 212.561 211.611 211.179 209.192 209.97C206.947 208.761 204.529 207.983 201.938 207.638V206.86V195.46L200.901 194.683C198.483 192.092 196.065 190.105 193.646 188.723C191.401 187.342 188.119 186.305 183.801 185.614V184.837V93.3746C185.873 92.511 187.946 91.3882 190.019 90.0063C192.092 88.4517 193.992 86.8971 195.719 85.3425C197.447 83.6152 198.915 82.0606 200.124 80.6787C201.333 79.1241 202.197 77.8286 202.715 76.7922L203.233 76.0149V52.955L201.16 51.9186C197.533 49.6731 193.474 47.9457 188.983 46.7366C184.491 45.5275 180.605 44.9229 177.323 44.9229L173.955 45.182V63.8372C170.155 62.6281 166.009 61.8508 161.518 61.5053C157.027 60.9871 151.931 60.728 146.231 60.728V40H142.863H110.475V60.728C104.602 60.728 99.3339 60.9871 94.6701 61.5053C90.179 61.8508 86.2062 62.6281 82.7515 63.8372V45.182L79.1241 44.9229C75.6695 44.9229 71.6966 45.5275 67.2055 46.7366C62.8871 47.9457 58.8279 49.6731 55.0278 51.9186L53.2141 52.955V76.0149L53.4732 76.7922C53.9914 77.8286 54.8551 79.1241 56.0642 80.6787C57.4461 82.0606 59.0007 83.6152 60.728 85.3425C62.4553 86.8971 64.269 88.4517 66.1691 90.0063C68.2419 91.3882 70.3147 92.511 72.3875 93.3746V184.837V185.614C68.0692 186.305 64.7872 187.342 62.5417 188.723C60.2962 190.105 57.9643 192.092 55.546 194.683L54.2505 195.46V206.86V207.638C51.8322 207.983 49.5003 208.761 47.2548 209.97C45.0092 211.179 42.9365 212.561 41.0364 214.115L40 215.152ZM128.353 78.6059C120.062 78.7786 111.684 79.6423 103.22 81.1969C94.7565 82.5788 85.8608 84.5652 76.5332 87.1562C74.4604 86.4653 72.3875 85.3425 70.3147 83.7879C68.2419 82.2333 66.3418 80.5923 64.6145 78.865C68.5874 76.6195 73.3375 74.8058 78.865 73.4239C84.3925 72.042 90.0927 70.9193 95.9656 70.0556C101.839 69.1919 107.625 68.5874 113.325 68.2419C119.026 67.8964 124.035 67.7237 128.353 67.7237C132.671 67.7237 137.681 67.8964 143.381 68.2419C149.081 68.5874 154.781 69.1919 160.482 70.0556C166.354 70.9193 171.968 72.042 177.323 73.4239C182.851 74.8058 187.601 76.6195 191.574 78.865C189.846 80.5923 187.946 82.2333 185.873 83.7879C183.973 85.3425 182.073 86.4653 180.173 87.1562C170.846 84.5652 161.95 82.4924 153.486 80.9378C145.022 79.3832 136.644 78.6059 128.353 78.6059ZM103.22 108.143C103.849 108.018 104.568 107.938 105.379 107.903C105.683 107.891 106 107.884 106.33 107.884C107.539 107.884 108.834 107.711 110.216 107.366L105.379 107.903L103.22 108.143ZM146.231 107.366C147.613 107.711 148.908 107.884 150.118 107.884C150.547 107.884 150.965 107.895 151.372 107.917C152.113 107.956 152.817 108.032 153.486 108.143L151.372 107.917L146.231 107.366ZM103.22 155.04C104.257 154.868 105.38 154.781 106.589 154.781C107.798 154.781 109.007 154.781 110.216 154.781L103.22 155.04ZM124.726 161.777H128.353H131.721H124.726ZM87.6744 117.471C87.1562 117.644 86.5517 117.73 85.8607 117.73C85.1698 117.73 84.3925 117.903 83.5288 118.248L79.3833 118.766V111.512H81.456C82.3197 111.166 83.2697 110.907 84.3061 110.734C85.3425 110.562 86.4653 110.303 87.6744 109.957V97.5202C86.4653 97.8657 85.1698 98.2112 83.7879 98.5566C82.4061 98.9021 80.9379 99.2476 79.3833 99.593V93.6337C95.102 89.1427 110.216 86.7244 124.726 86.3789H131.721C139.149 86.3789 146.577 86.9835 154.004 88.1926C161.432 89.229 169.032 91.0427 176.805 93.6337V99.593C175.423 99.2476 174.041 98.9021 172.659 98.5566C171.45 98.2112 170.155 97.8657 168.773 97.5202V109.957C169.809 110.303 170.846 110.562 171.882 110.734C173.091 110.907 174.128 111.166 174.991 111.512H176.805V118.766L173.177 118.248C172.314 117.903 171.537 117.73 170.846 117.73C170.155 117.73 169.464 117.644 168.773 117.471C167.564 117.125 166.354 116.953 165.145 116.953C163.936 116.78 162.813 116.521 161.777 116.175C160.222 116.003 158.754 115.916 157.372 115.916C156.163 115.744 154.868 115.485 153.486 115.139V130.685C156.077 131.203 158.841 131.462 161.777 131.462C162.813 131.635 163.936 131.808 165.145 131.981C166.354 132.153 167.564 132.24 168.773 132.24C171.537 132.412 174.214 132.931 176.805 133.794V140.79C175.768 140.444 174.473 140.272 172.918 140.272C171.536 140.099 170.155 139.84 168.773 139.494V155.559C170.155 155.559 171.45 155.645 172.659 155.818C174.041 155.818 175.423 155.818 176.805 155.818V162.813C175.768 162.813 174.473 162.813 172.918 162.813C171.536 162.641 170.155 162.554 168.773 162.554C167.564 162.382 166.354 162.295 165.145 162.295C163.936 162.295 162.813 162.295 161.777 162.295H153.486V177.323C158.322 177.323 162.9 177.409 167.218 177.582C171.536 177.755 174.732 177.841 176.805 177.841V184.837H170.587C168.341 184.492 165.664 184.319 162.554 184.319C159.618 184.319 156.595 184.319 153.486 184.319C152.104 184.146 150.895 184.06 149.859 184.06C148.822 184.06 147.613 184.06 146.231 184.06H128.353H110.216C109.007 184.06 107.798 184.06 106.589 184.06C105.38 184.06 104.257 184.146 103.22 184.319C99.7658 184.319 96.5702 184.319 93.6338 184.319C90.6973 184.319 88.1063 184.492 85.8607 184.837H79.3833V177.841C81.4561 177.841 84.7379 177.755 89.229 177.582C93.7201 177.409 98.3839 177.323 103.22 177.323V162.295H94.9292C93.5473 162.295 92.2518 162.295 91.0427 162.295C89.8336 162.295 88.7108 162.382 87.6744 162.554C86.2926 162.554 84.9107 162.641 83.5288 162.813C82.1469 162.813 80.7651 162.813 79.3833 162.813V155.818C80.7651 155.818 82.1469 155.818 83.5288 155.818C84.9107 155.645 86.2926 155.559 87.6744 155.559V139.494C86.1198 139.84 84.6515 140.099 83.2697 140.272C82.0605 140.272 80.7651 140.444 79.3833 140.79V133.794C80.7651 133.449 82.1469 133.19 83.5288 133.017C84.9107 132.671 86.2926 132.412 87.6744 132.24C88.7108 132.24 89.8336 132.153 91.0427 131.981C92.2518 131.808 93.5473 131.635 94.9292 131.462C97.3475 131.462 100.111 131.203 103.22 130.685V115.139C101.839 115.485 100.457 115.744 99.0748 115.916C97.693 115.916 96.3111 116.003 94.9292 116.175C93.5473 116.521 92.3382 116.78 91.3018 116.953C90.2654 116.953 89.0563 117.125 87.6744 117.471ZM153.486 155.04H161.777V138.458C160.395 138.458 159.013 138.458 157.631 138.458C156.25 138.285 154.868 138.199 153.486 138.199C152.104 137.853 150.895 137.681 149.859 137.681C148.822 137.681 147.613 137.594 146.231 137.422C143.64 137.076 141.135 136.903 138.717 136.903C136.299 136.903 133.967 136.903 131.721 136.903V154.781H133.794H146.231C147.613 154.781 148.822 154.781 149.859 154.781C150.895 154.781 152.104 154.868 153.486 155.04ZM131.721 161.777H133.794H146.231V177.064H128.353H110.216V161.777H122.394H124.726H131.721ZM103.22 155.04H94.9292V138.458C96.3111 138.458 97.6066 138.458 98.8157 138.458C100.198 138.285 101.666 138.199 103.22 138.199C104.257 137.853 105.38 137.681 106.589 137.681C107.798 137.681 109.007 137.594 110.216 137.422C112.807 137.076 115.312 136.903 117.73 136.903C120.148 136.903 122.48 136.903 124.726 136.903V154.781H122.394H110.216L103.22 155.04ZM194.942 205.824H61.2462V198.569C63.319 196.842 65.3054 195.546 67.2055 194.683C69.1056 193.646 72.2148 192.696 76.5332 191.833H179.914C184.06 192.696 187.082 193.646 188.983 194.683C191.055 195.546 193.042 196.842 194.942 198.569V205.824ZM46.9957 218.779C48.7231 217.397 50.4504 216.274 52.1777 215.411C54.0778 214.72 56.1506 214.288 58.3961 214.115H198.051C200.297 214.288 202.369 214.72 204.269 215.411C206.17 216.274 207.897 217.397 209.452 218.779V231.475C208.415 231.475 205.651 231.475 201.16 231.475C196.669 231.475 191.315 231.475 185.096 231.475C179.05 231.475 172.573 231.475 165.664 231.475C158.927 231.475 152.622 231.475 146.749 231.475C141.049 231.475 136.213 231.475 132.24 231.475C128.44 231.475 126.539 231.475 126.539 231.475C126.194 231.475 123.603 231.475 118.766 231.475C114.103 231.475 107.971 231.475 100.37 231.475C92.77 231.475 85.1698 231.475 77.5695 231.475C70.1419 231.475 63.4917 231.475 57.6188 231.475C51.7458 231.475 48.2049 231.475 46.9957 231.475V218.779ZM124.726 113.584C122.307 113.93 119.803 114.103 117.212 114.103C114.794 114.103 112.462 114.189 110.216 114.362V130.426C112.807 130.08 115.312 129.908 117.73 129.908C120.148 129.908 122.48 129.908 124.726 129.908H128.353H131.721C133.967 129.908 136.299 129.908 138.717 129.908C141.135 129.908 143.64 130.08 146.231 130.426V114.362C143.813 114.189 141.395 114.016 138.976 113.844C136.558 113.671 134.14 113.584 131.721 113.584H128.353H124.726ZM103.22 108.143H102.184C100.975 108.316 99.7657 108.489 98.5566 108.662C97.3475 108.834 96.1383 109.007 94.9292 109.18V95.9656C99.9385 95.102 104.948 94.3247 109.957 93.6337C114.966 92.9428 119.889 92.511 124.726 92.3382V107.107C122.307 107.107 119.803 107.107 117.212 107.107C114.794 107.107 112.462 107.193 110.216 107.366L105.379 107.903L103.22 108.143ZM146.231 107.366C143.813 107.366 141.395 107.366 138.976 107.366C136.731 107.193 134.312 107.107 131.721 107.107V92.3382C141.74 92.6837 151.759 93.7201 161.777 95.4474V109.18C160.395 109.007 159.1 108.834 157.891 108.662C156.681 108.489 155.559 108.316 154.522 108.143H153.486L151.372 107.917L146.231 107.366Z" fill="black"/>
<path fill-rule="evenodd" clip-rule="evenodd" d="M87.6744 117.471C87.1562 117.644 86.5517 117.73 85.8607 117.73C85.1698 117.73 84.3925 117.903 83.5288 118.248L79.3833 118.766V111.512H81.456C82.3197 111.166 83.2697 110.907 84.3061 110.734C85.3425 110.562 86.4653 110.303 87.6744 109.957V97.5202C86.4653 97.8657 85.1698 98.2112 83.7879 98.5566C82.4061 98.9021 80.9379 99.2476 79.3833 99.593V93.6337C95.102 89.1427 110.216 86.7244 124.726 86.3789H131.721C139.149 86.3789 146.577 86.9835 154.004 88.1926C161.432 89.229 169.032 91.0427 176.805 93.6337V99.593L172.659 98.5566C171.45 98.2112 170.155 97.8657 168.773 97.5202V109.957C169.809 110.303 170.846 110.562 171.882 110.734C173.091 110.907 174.128 111.166 174.991 111.512H176.805V118.766L173.177 118.248C172.314 117.903 171.537 117.73 170.846 117.73C170.155 117.73 169.464 117.644 168.773 117.471C167.564 117.125 166.354 116.953 165.145 116.953C163.936 116.78 162.813 116.521 161.777 116.175C160.222 116.003 158.754 115.916 157.372 115.916C156.163 115.744 154.868 115.485 153.486 115.139V130.685C156.077 131.203 158.841 131.462 161.777 131.462C162.813 131.635 163.936 131.808 165.145 131.981C166.354 132.153 167.564 132.24 168.773 132.24C171.537 132.412 174.214 132.931 176.805 133.794V140.79C175.768 140.444 174.473 140.272 172.918 140.272C171.536 140.099 170.155 139.84 168.773 139.494V155.559C170.155 155.559 171.45 155.645 172.659 155.818H176.805V162.813H172.918C171.536 162.641 170.155 162.554 168.773 162.554C167.564 162.382 166.354 162.295 165.145 162.295H161.777H153.486V177.323C158.322 177.323 162.9 177.409 167.218 177.582C171.536 177.755 174.732 177.841 176.805 177.841V184.837H170.587C168.341 184.492 165.664 184.319 162.554 184.319H153.486C152.104 184.146 150.895 184.06 149.859 184.06H146.231H128.353H110.216H106.589C105.38 184.06 104.257 184.146 103.22 184.319H93.6338C90.6973 184.319 88.1063 184.492 85.8607 184.837H79.3833V177.841C81.4561 177.841 84.7379 177.755 89.229 177.582C93.7201 177.409 98.3839 177.323 103.22 177.323V162.295H94.9292H91.0427C89.8336 162.295 88.7108 162.382 87.6744 162.554C86.2926 162.554 84.9107 162.641 83.5288 162.813H79.3833V155.818H83.5288C84.9107 155.645 86.2926 155.559 87.6744 155.559V139.494C86.1198 139.84 84.6515 140.099 83.2697 140.272C82.0605 140.272 80.7651 140.444 79.3833 140.79V133.794C80.7651 133.449 82.1469 133.19 83.5288 133.017C84.9107 132.671 86.2926 132.412 87.6744 132.24C88.7108 132.24 89.8336 132.153 91.0427 131.981C92.2518 131.808 93.5473 131.635 94.9292 131.462C97.3475 131.462 100.111 131.203 103.22 130.685V115.139C101.839 115.485 100.457 115.744 99.0748 115.916C97.693 115.916 96.3111 116.003 94.9292 116.175C93.5473 116.521 92.3382 116.78 91.3018 116.953C90.2654 116.953 89.0563 117.125 87.6744 117.471ZM106.33 107.884C106 107.884 105.683 107.891 105.379 107.903L103.22 108.143H102.184L98.5566 108.662L94.9292 109.18V95.9656C99.9385 95.102 104.948 94.3247 109.957 93.6337C114.966 92.9428 119.889 92.511 124.726 92.3382V107.107H117.212C114.794 107.107 112.462 107.193 110.216 107.366C108.834 107.711 107.539 107.884 106.33 107.884ZM150.118 107.884C148.908 107.884 147.613 107.711 146.231 107.366H138.976C136.731 107.193 134.312 107.107 131.721 107.107V92.3382C141.74 92.6837 151.759 93.7201 161.777 95.4474V109.18C160.395 109.007 159.1 108.834 157.891 108.662C156.681 108.489 155.559 108.316 154.522 108.143H153.486L151.372 107.917C150.965 107.895 150.547 107.884 150.118 107.884ZM110.216 154.781L103.22 155.04H94.9292V138.458H98.8157C100.198 138.285 101.666 138.199 103.22 138.199C104.257 137.853 105.38 137.681 106.589 137.681C107.798 137.681 109.007 137.594 110.216 137.422C112.807 137.076 115.312 136.903 117.73 136.903H124.726V154.781H122.394H110.216ZM128.353 161.777H124.726H122.394H110.216V177.064H128.353H146.231V161.777H133.794H131.721H128.353ZM161.777 155.04H153.486C152.104 154.868 150.895 154.781 149.859 154.781H146.231H133.794H131.721V136.903H138.717C141.135 136.903 143.64 137.076 146.231 137.422C147.613 137.594 148.822 137.681 149.859 137.681C150.895 137.681 152.104 137.853 153.486 138.199C154.868 138.199 156.25 138.285 157.631 138.458H161.777V155.04ZM117.212 114.103C119.803 114.103 122.307 113.93 124.726 113.584H128.353H131.721C134.14 113.584 136.558 113.671 138.976 113.844L146.231 114.362V130.426C143.64 130.08 141.135 129.908 138.717 129.908H131.721H128.353H124.726H117.73C115.312 129.908 112.807 130.08 110.216 130.426V114.362C112.462 114.189 114.794 114.103 117.212 114.103Z" fill="#EEEEEE"/>
<path d="M128.353 78.6059C120.062 78.7786 111.684 79.6423 103.22 81.1969C94.7565 82.5788 85.8608 84.5652 76.5332 87.1562C74.4604 86.4653 72.3875 85.3425 70.3147 83.7879C68.2419 82.2333 66.3418 80.5923 64.6145 78.865C68.5874 76.6195 73.3375 74.8058 78.865 73.4239C84.3925 72.042 90.0927 70.9193 95.9656 70.0556C101.839 69.1919 107.625 68.5874 113.325 68.2419C119.026 67.8964 124.035 67.7237 128.353 67.7237C132.671 67.7237 137.681 67.8964 143.381 68.2419C149.081 68.5874 154.781 69.1919 160.482 70.0556C166.354 70.9193 171.968 72.042 177.323 73.4239C182.851 74.8058 187.601 76.6195 191.574 78.865C189.846 80.5923 187.946 82.2333 185.873 83.7879C183.973 85.3425 182.073 86.4653 180.173 87.1562C170.846 84.5652 161.95 82.4924 153.486 80.9378C145.022 79.3832 136.644 78.6059 128.353 78.6059Z" fill="#EEEEEE"/>
<path d="M194.942 205.824H61.2462V198.569C63.319 196.842 65.3054 195.546 67.2055 194.683C69.1056 193.646 72.2148 192.696 76.5332 191.833H179.914C184.06 192.696 187.082 193.646 188.983 194.683C191.055 195.546 193.042 196.842 194.942 198.569V205.824Z" fill="#EEEEEE"/>
<path d="M46.9957 218.779C48.7231 217.397 50.4504 216.274 52.1777 215.411C54.0778 214.72 56.1506 214.288 58.3961 214.115H198.051C200.297 214.288 202.369 214.72 204.269 215.411C206.17 216.274 207.897 217.397 209.452 218.779V231.475H201.16H185.096H165.664H146.749H132.24H126.539H118.766H100.37H77.5695H57.6188H46.9957V218.779Z" fill="black"/>
</svg>
