<svg width="32" height="32" viewBox="0 0 32 32" fill="none" xmlns="http://www.w3.org/2000/svg">
<path d="M5.30529 27.7213H26.7121V30H5.30529V27.7213ZM23.5794 14.2623C24.9369 15.1475 26.0102 16.224 26.7991 17.4918C27.5997 18.7486 28 20.1093 28 21.5738C28 22.7213 27.7389 23.8525 27.2168 24.9672C26.9848 25.459 26.6309 26.0055 26.1552 26.6066H16.0087H5.86222C5.37491 26.0055 5.01523 25.459 4.78318 24.9672C4.26106 23.8525 4 22.7213 4 21.5738C4 19.4754 4.78318 17.6066 6.34953 15.9672C7.92748 14.3169 9.92893 13.1858 12.3539 12.5738C12.6904 12.3552 12.8586 12.082 12.8586 11.7541C12.8586 11.4481 12.6962 11.1585 12.3713 10.8852C11.6635 10.3279 11.3096 9.69399 11.3096 8.98361C11.3096 8.16393 11.7679 7.46448 12.6846 6.88525C13.6012 6.29508 14.7092 6 16.0087 6C17.2966 6 18.3988 6.29508 19.3154 6.88525C20.2321 7.46448 20.6904 8.16393 20.6904 8.98361C20.6904 9.70492 20.3423 10.3388 19.6461 10.8852C19.3212 11.1585 19.1588 11.4481 19.1588 11.7541C19.1588 12.082 19.327 12.3552 19.6635 12.5738C20.3713 12.7705 20.9514 12.9617 21.4039 13.1475L16.3916 19.9016C15.9275 20.5355 16.0261 21.0656 16.6875 21.4918C17.3256 21.929 17.8825 21.8361 18.3582 21.2131L23.5794 14.2623Z" fill="black"/>
</svg>
