<svg width="180" height="180" viewBox="0 0 180 180" fill="none" xmlns="http://www.w3.org/2000/svg">
<path d="M29.8423 155.932H150.256V168.75H29.8423V155.932ZM132.634 80.2254C140.27 85.2047 146.307 91.26 150.745 98.3914C155.248 105.461 157.5 113.115 157.5 121.353C157.5 127.807 156.031 134.17 153.095 140.44C151.79 143.207 149.799 146.281 147.123 149.662H90.0489H32.975C30.2339 146.281 28.2107 143.207 26.9054 140.44C23.9685 134.17 22.5 127.807 22.5 121.353C22.5 109.549 26.9054 99.0371 35.7161 89.8155C44.5921 80.5326 55.8502 74.1701 69.4907 70.7276C71.3835 69.498 72.3296 67.9612 72.3296 66.1168C72.3296 64.3956 71.4161 62.7666 69.5886 61.2292C65.6072 58.0944 63.6165 54.5287 63.6165 50.5328C63.6165 45.9221 66.1944 41.9877 71.3509 38.7295C76.5067 35.4098 82.7392 33.75 90.0489 33.75C97.2934 33.75 103.493 35.4098 108.649 38.7295C113.806 41.9877 116.383 45.9221 116.383 50.5328C116.383 54.5902 114.425 58.1557 110.509 61.2292C108.682 62.7666 107.768 64.3956 107.768 66.1168C107.768 67.9612 108.714 69.498 110.607 70.7276C114.589 71.8341 117.852 72.9096 120.397 73.9547L92.2027 111.946C89.5922 115.512 90.1468 118.494 93.8672 120.891C97.4565 123.351 100.589 122.828 103.265 119.324L132.634 80.2254Z" fill="black"/>
</svg>
