<svg width="32" height="32" viewBox="0 0 32 32" fill="none" xmlns="http://www.w3.org/2000/svg">
<path d="M16.3338 26.6473H6.75757C6.29764 26.045 5.95818 25.4975 5.73916 25.0047C5.24639 23.8878 5 22.7544 5 21.6046C5 19.5021 5.73917 17.6295 7.21749 15.9869C8.70677 14.3334 10.5957 13.2 12.8844 12.5868C13.202 12.3678 13.3608 12.094 13.3608 11.7655C13.3608 11.4589 13.2075 11.1687 12.9008 10.8949C12.2329 10.3364 11.8989 9.70129 11.8989 8.98951C11.8989 8.16821 12.3314 7.46738 13.1965 6.887C14.0616 6.29567 15.1074 6 16.3338 6C17.5494 6 18.5897 6.29567 19.4548 6.887C20.3199 7.46738 20.7524 8.16821 20.7524 8.98951C20.7524 9.71225 20.4239 10.3474 19.7669 10.8949C19.4602 11.1687 19.3069 11.4589 19.3069 11.7655C19.3069 12.094 19.4657 12.3678 19.7833 12.5868C22.061 13.2 23.939 14.3334 25.4174 15.9869C26.9066 17.6295 27.6513 19.5021 27.6513 21.6046C27.6513 22.7544 27.4049 23.8878 26.9121 25.0047C26.6931 25.4975 26.3591 26.045 25.9101 26.6473H16.3338ZM20.391 14.4757C20.2158 14.41 20.1063 14.3662 20.0625 14.3443C18.4637 13.7968 17.6643 12.9098 17.6643 11.6834C17.6643 11.0373 17.9491 10.4678 18.5185 9.97506C18.9018 9.7232 19.0934 9.42206 19.0934 9.07164C19.0934 8.64457 18.8196 8.2832 18.2721 7.98753C17.7355 7.68091 17.0894 7.52761 16.3338 7.52761C15.5673 7.52761 14.9158 7.68091 14.3792 7.98753C13.8426 8.2832 13.5743 8.64457 13.5743 9.07164C13.5743 9.43301 13.7659 9.73415 14.1492 9.97506C14.7186 10.4678 15.0034 11.0373 15.0034 11.6834C15.0034 12.9098 14.1985 13.7968 12.5888 14.3443C10.8586 14.9576 9.44594 15.9267 8.35088 17.2517C7.25582 18.5658 6.70829 20.0441 6.70829 21.6867C6.70829 22.7708 7.00943 23.8604 7.61171 24.9555H16.3338H25.056C25.6473 23.8823 25.943 22.7927 25.943 21.6867C25.943 19.2338 24.7822 17.197 22.4607 15.5763L18.5513 21.0789C18.1133 21.7141 17.5877 21.8072 16.9745 21.3582C16.3503 20.9202 16.2572 20.3945 16.6952 19.7813L20.391 14.4757ZM6.23194 27.7643H26.4358V30.0475H6.23194V27.7643Z" fill="black"/>
<path d="M20.391 14.4757C20.2158 14.41 20.1063 14.3662 20.0625 14.3443C18.4637 13.7968 17.6643 12.9098 17.6643 11.6833C17.6643 11.0372 17.9491 10.4678 18.5185 9.97504C18.9018 9.72318 19.0934 9.42204 19.0934 9.07162C19.0934 8.64455 18.8196 8.28318 18.2721 7.98751C17.7355 7.6809 17.0894 7.52759 16.3338 7.52759C15.5673 7.52759 14.9157 7.6809 14.3792 7.98751C13.8426 8.28318 13.5743 8.64455 13.5743 9.07162C13.5743 9.43299 13.7659 9.73413 14.1492 9.97504C14.7186 10.4678 15.0033 11.0372 15.0033 11.6833C15.0033 12.9098 14.1985 13.7968 12.5887 14.3443C10.8586 14.9576 9.44593 15.9267 8.35087 17.2517C7.25581 18.5658 6.70828 20.0441 6.70828 21.6867C6.70828 22.7708 7.00942 23.8604 7.61171 24.9554H16.3338H25.056C25.6473 23.8823 25.943 22.7927 25.943 21.6867C25.943 19.2338 24.7822 17.1969 22.4607 15.5763L18.5513 21.0789C18.1133 21.7141 17.5877 21.8071 16.9745 21.3582C16.3503 20.9201 16.2572 20.3945 16.6952 19.7813L20.391 14.4757Z" fill="white"/>
</svg>
