<svg width="180" height="180" viewBox="0 0 180 180" fill="none" xmlns="http://www.w3.org/2000/svg">
<path d="M47.7351 153.169H135.696V166.012H47.7351V153.169ZM96.4277 39.6154H86.9107V30.1911H82.3832C79.1803 30.1911 77.5789 28.5896 77.5789 25.3865C77.5789 22.1835 79.1803 20.5819 82.3832 20.5819H86.9107V15.9622C86.9107 12.8207 88.5122 11.25 91.7156 11.25C94.8566 11.25 96.4277 12.8207 96.4277 15.9622V20.5819H101.232C104.374 20.5819 105.944 22.1835 105.944 25.3865C105.944 28.5896 104.374 30.1911 101.232 30.1911H96.4277V39.6154ZM164.246 93.4819L135.696 146.887H47.7351L19.1849 93.4819C17.645 89.5399 16.875 85.536 16.875 81.4708C16.875 71.8616 20.7556 63.6688 28.5168 56.8935C36.3396 50.0561 45.7948 46.6375 56.8823 46.6375C58.6688 46.6375 60.2702 46.7607 61.6866 47.0071C70.9262 42.1409 80.9359 39.7078 91.7156 39.7078C102.434 39.7078 112.443 42.1409 121.744 47.0071C123.099 46.7607 124.701 46.6375 126.548 46.6375C137.513 46.6375 146.906 50.0561 154.729 56.8935C162.614 63.6688 166.556 71.8616 166.556 81.4708C166.556 85.2896 165.786 89.2935 164.246 93.4819ZM110.933 59.85C112.535 58.9877 114.414 58.3408 116.57 57.9099C120.019 57.3553 121.375 55.5074 120.635 52.366V52.2736C119.834 49.2554 117.709 48.0234 114.26 48.5778C110.81 49.1938 108.039 50.1177 105.944 51.3497C99.9692 54.7991 95.2262 59.0799 91.7156 64.1925C88.2045 59.1418 83.4924 54.8607 77.5789 51.3497C75.2996 50.1177 72.4663 49.1938 69.0784 48.5778C65.5672 47.9003 63.4421 49.1322 62.703 52.2736C61.9026 55.3535 63.2886 57.2321 66.861 57.9099C69.1403 58.4027 71.1113 59.0799 72.7746 59.9422C81.5828 65.4862 85.9871 72.6621 85.9871 81.4708C85.9871 88.4925 83.1223 94.4674 77.3938 99.3954C71.7272 104.262 64.9513 106.694 57.0673 106.694C53.4944 106.694 51.7081 108.265 51.7081 111.406C51.7081 114.61 53.4944 116.211 57.0673 116.211C64.3354 116.211 71.0494 114.61 77.2093 111.406C83.3693 108.204 88.2045 103.984 91.7156 98.7486C95.2262 103.984 100.031 108.204 106.129 111.406C112.227 114.61 118.972 116.211 126.364 116.211C129.936 116.211 131.723 114.61 131.723 111.406C131.723 108.265 129.936 106.694 126.364 106.694C118.418 106.694 111.611 104.262 105.944 99.3954C100.277 94.4674 97.4441 88.4925 97.4441 81.4708C97.4441 72.4157 101.941 65.2089 110.933 59.85Z" fill="black"/>
<path d="M110.934 59.85C112.535 58.9877 114.414 58.3408 116.57 57.9094C120.019 57.3553 121.375 55.5073 120.635 52.3659V52.2735C119.835 49.2553 117.71 48.0233 114.26 48.5777C110.811 49.1937 108.039 50.1176 105.945 51.3496C99.9697 54.799 95.2267 59.0799 91.7156 64.1925C88.2045 59.1418 83.4924 54.8606 77.5794 51.3496C75.3002 50.1176 72.4669 49.1937 69.0789 48.5777C65.5678 47.9001 63.4427 49.1321 62.7035 52.2735C61.9025 55.3533 63.2885 57.2321 66.8615 57.9094C69.1402 58.4021 71.1118 59.0799 72.7745 59.9423C81.5833 65.4863 85.9871 72.6621 85.9871 81.4703C85.9871 88.4925 83.1229 94.4674 77.3944 99.3954C71.7277 104.262 64.9519 106.694 57.0673 106.694C53.4948 106.694 51.7085 108.265 51.7085 111.407C51.7085 114.609 53.4948 116.211 57.0673 116.211C64.3359 116.211 71.0499 114.609 77.2099 111.407C83.3692 108.204 88.2045 103.984 91.7156 98.7486C95.2267 103.984 100.032 108.204 106.13 111.407C112.228 114.609 118.973 116.211 126.364 116.211C129.937 116.211 131.723 114.609 131.723 111.407C131.723 108.265 129.937 106.694 126.364 106.694C118.418 106.694 111.612 104.262 105.945 99.3954C100.278 94.4674 97.4441 88.4925 97.4441 81.4703C97.4441 72.4157 101.941 65.2089 110.934 59.85Z" fill="#DDDDDD"/>
</svg>
