<svg width="32" height="32" viewBox="0 0 32 32" fill="none" xmlns="http://www.w3.org/2000/svg">
<path d="M8.48624 27.2301H24.1237V29.5133H8.48624V27.2301ZM17.1427 7.04274H15.4508V5.3673H14.6459C14.0765 5.3673 13.7918 5.08259 13.7918 4.51316C13.7918 3.94373 14.0765 3.65901 14.6459 3.65901H15.4508V2.83772C15.4508 2.27924 15.7355 2 16.305 2C16.8634 2 17.1427 2.27924 17.1427 2.83772V3.65901H17.9968C18.5553 3.65901 18.8345 3.94373 18.8345 4.51316C18.8345 5.08259 18.5553 5.3673 17.9968 5.3673H17.1427V7.04274ZM29.1993 16.619L24.1237 26.1132H8.48624L3.41065 16.619C3.13688 15.9182 3 15.2064 3 14.4837C3 12.7754 3.68989 11.3189 5.06966 10.1144C6.46038 8.89887 8.1413 8.29111 10.1124 8.29111C10.43 8.29111 10.7147 8.31301 10.9665 8.35681C12.6091 7.49172 14.3886 7.05917 16.305 7.05917C18.2104 7.05917 19.9898 7.49172 21.6434 8.35681C21.8843 8.31301 22.169 8.29111 22.4975 8.29111C24.4467 8.29111 26.1167 8.89887 27.5074 10.1144C28.9091 11.3189 29.6099 12.7754 29.6099 14.4837C29.6099 15.1626 29.473 15.8744 29.1993 16.619ZM19.7215 10.64C20.0063 10.4867 20.3402 10.3717 20.7235 10.2951C21.3367 10.1965 21.5777 9.86799 21.4463 9.30951V9.29309C21.3039 8.75651 20.9261 8.5375 20.3129 8.63605C19.6996 8.74556 19.2069 8.90982 18.8345 9.12883C17.7723 9.74206 16.9291 10.5031 16.305 11.412C15.6808 10.5141 14.8431 9.75301 13.7918 9.12883C13.3866 8.90982 12.8829 8.74556 12.2806 8.63605C11.6564 8.5156 11.2786 8.73461 11.1472 9.29309C11.0049 9.84062 11.2513 10.1746 11.8864 10.2951C12.2916 10.3827 12.642 10.5031 12.9377 10.6564C14.5036 11.642 15.2866 12.9177 15.2866 14.4837C15.2866 15.732 14.7773 16.7942 13.7589 17.6703C12.7515 18.5354 11.5469 18.9679 10.1453 18.9679C9.51012 18.9679 9.19255 19.2472 9.19255 19.8056C9.19255 20.3751 9.51012 20.6598 10.1453 20.6598C11.4374 20.6598 12.631 20.3751 13.7261 19.8056C14.8212 19.2362 15.6808 18.4861 16.305 17.5553C16.9291 18.4861 17.7833 19.2362 18.8674 19.8056C19.9515 20.3751 21.1506 20.6598 22.4647 20.6598C23.0998 20.6598 23.4174 20.3751 23.4174 19.8056C23.4174 19.2472 23.0998 18.9679 22.4647 18.9679C21.052 18.9679 19.842 18.5354 18.8345 17.6703C17.8271 16.7942 17.3234 15.732 17.3234 14.4837C17.3234 12.8739 18.1228 11.5927 19.7215 10.64V10.64Z" fill="black"/>
<path d="M19.7216 10.64C20.0063 10.4867 20.3403 10.3717 20.7236 10.295C21.3368 10.1965 21.5777 9.86797 21.4463 9.30949V9.29307C21.304 8.75649 20.9262 8.53748 20.3129 8.63603C19.6997 8.74554 19.2069 8.90979 18.8346 9.12881C17.7724 9.74204 16.9292 10.5031 16.305 11.412C15.6808 10.5141 14.8431 9.75299 13.7919 9.12881C13.3867 8.90979 12.883 8.74554 12.2807 8.63603C11.6565 8.51557 11.2787 8.73459 11.1473 9.29307C11.0049 9.84059 11.2513 10.1746 11.8865 10.295C12.2916 10.3826 12.6421 10.5031 12.9377 10.6564C14.5037 11.642 15.2866 12.9177 15.2866 14.4836C15.2866 15.732 14.7774 16.7942 13.759 17.6703C12.7516 18.5354 11.547 18.9679 10.1453 18.9679C9.51019 18.9679 9.19263 19.2471 9.19263 19.8056C9.19263 20.375 9.51019 20.6598 10.1453 20.6598C11.4375 20.6598 12.6311 20.375 13.7262 19.8056C14.8212 19.2362 15.6808 18.4861 16.305 17.5553C16.9292 18.4861 17.7834 19.2362 18.8675 19.8056C19.9516 20.375 21.1507 20.6598 22.4647 20.6598C23.0999 20.6598 23.4174 20.375 23.4174 19.8056C23.4174 19.2471 23.0999 18.9679 22.4647 18.9679C21.0521 18.9679 19.8421 18.5354 18.8346 17.6703C17.8272 16.7942 17.3234 15.732 17.3234 14.4836C17.3234 12.8739 18.1228 11.5927 19.7216 10.64Z" fill="#EEEEEE"/>
</svg>
