<svg width="32" height="32" viewBox="0 0 32 32" fill="none" xmlns="http://www.w3.org/2000/svg">
<path d="M22.3661 8.25628C22.0814 7.6759 21.6215 7.38571 20.9864 7.38571C20.7893 7.38571 20.5374 7.31454 20.2308 7.17218C19.6723 6.90936 19.1795 6.7232 18.7524 6.6137C18.3363 6.49324 17.849 6.35088 17.2905 6.18662C16.3817 5.94571 15.5658 5.80883 14.8431 5.77598C14.5474 5.62267 14.3284 5.52959 14.1861 5.49674C14.0547 5.45294 13.9451 5.40366 13.8575 5.34891C13.6276 5.2394 13.4414 5.18465 13.2991 5.18465C13.1567 5.18465 13.0417 5.18465 12.9541 5.18465C13.0417 5.69932 13.0636 6.15377 13.0198 6.54799C12.987 6.93127 12.7132 7.35286 12.1985 7.81279C11.9686 7.68138 11.7441 7.56092 11.5251 7.45142C11.317 7.34191 10.9611 7.23788 10.4574 7.13933C10.5669 7.46784 10.6271 7.75803 10.6381 8.0099C10.649 8.25081 10.5067 8.66146 10.211 9.24184C9.42256 10.0193 8.8805 10.7256 8.58484 11.3608C8.46438 11.5907 8.34393 11.8207 8.22347 12.0507C8.10301 12.2697 7.98803 12.6256 7.87853 13.1183C7.73617 13.5016 7.34742 14.0108 6.71229 14.6459C6.44947 14.9197 6.14286 15.2318 5.79244 15.5822C5.45297 15.9326 5.15731 16.3433 4.90544 16.8142C4.76309 17.077 4.65906 17.2741 4.59335 17.4055C4.5386 17.5259 4.54954 17.7012 4.62618 17.9311C4.76854 18.3691 4.89995 18.6429 5.0204 18.7524C5.14086 18.851 5.38177 19.0426 5.74314 19.3273C5.9731 19.4259 6.18116 19.612 6.36732 19.8858C6.56443 20.1486 6.78345 20.28 7.02436 20.28C7.56094 20.28 7.96611 20.1979 8.23987 20.0336C8.66694 19.7818 9.01189 19.4423 9.2747 19.0152C9.54847 18.5882 9.80581 18.1063 10.0467 17.5698C10.2438 17.3069 10.4464 17.077 10.6545 16.8799C10.8735 16.6828 11.2513 16.6773 11.7879 16.8634C12.0616 16.9839 12.5051 17.0441 13.1184 17.0441C14.0382 17.0441 14.8212 16.732 15.4673 16.1078C16.1133 15.4727 16.4254 14.7445 16.4035 13.9232L16.3543 13.2005C16.3543 12.642 16.6335 12.3627 17.192 12.3627C17.7614 12.3627 18.0461 12.642 18.0461 13.2005L18.0954 13.8904C18.1064 15.073 17.7121 16.1462 16.9127 17.1098C17.0989 18.0844 17.0989 18.7688 16.9127 19.1631C16.7375 19.5573 16.4528 20.0446 16.0586 20.625C15.6096 21.282 15.0347 21.9171 14.3339 22.5304C13.644 23.1436 12.7077 23.8992 11.525 24.7971H26.1605C26.1495 24.5234 26.1441 24.162 26.1441 23.713C26.1441 23.0669 26.3138 22.4701 26.6533 21.9226C27.0037 21.5941 27.1789 21.1834 27.1789 20.6907C27.1789 20.614 27.1679 20.499 27.1461 20.3457C26.9489 20.0939 26.7956 19.8091 26.6861 19.4916C26.5438 19.1083 26.4726 18.725 26.4726 18.3418C26.4726 17.8599 26.5876 17.3617 26.8175 16.847C26.8394 16.7375 26.8504 16.6718 26.8504 16.6499C26.8504 16.3761 26.7737 16.1024 26.6204 15.8286C26.3795 15.6315 26.1879 15.4015 26.0455 15.1387C25.5637 14.416 25.3885 13.6275 25.5199 12.7734C25.4651 12.4777 25.3501 12.2204 25.1749 12.0014C25.1202 11.9466 25.0709 11.9028 25.0271 11.87C24.5562 11.6619 24.1456 11.3553 23.7952 10.9501C23.5323 10.6326 23.3407 10.2931 23.2203 9.93172C23.1217 9.67986 23.056 9.36229 23.0231 8.97902C22.9903 8.93522 22.9574 8.89141 22.9246 8.84761C22.8917 8.79286 22.8589 8.73811 22.826 8.68335C22.7822 8.63955 22.6289 8.49719 22.3661 8.25628L22.3661 8.25628ZM23.401 6.87651C23.5324 7.01887 23.6583 7.15028 23.7788 7.27073C23.9102 7.38024 24.0252 7.48974 24.1237 7.59925C24.3865 7.91682 24.5836 8.26176 24.715 8.63408C24.6712 9.10495 24.7972 9.5156 25.0928 9.86602C25.2899 10.1069 25.5528 10.2767 25.8813 10.3752C26.1112 10.5504 26.3029 10.7311 26.4562 10.9173C26.9052 11.4539 27.168 12.0945 27.2446 12.8391C27.1023 13.3757 27.1953 13.863 27.5239 14.301C27.5458 14.3229 27.5567 14.3448 27.5567 14.3667C27.6443 14.4981 27.7538 14.6021 27.8852 14.6788C28.3232 15.292 28.5422 15.9491 28.5422 16.6499C28.5422 16.9346 28.5039 17.1974 28.4273 17.4383C28.2521 17.745 28.1645 18.0461 28.1645 18.3418C28.1645 18.8017 28.3287 19.1959 28.6572 19.5244C28.7996 19.8968 28.8708 20.2855 28.8708 20.6907C28.8708 21.5448 28.597 22.2785 28.0495 22.8917C27.9071 23.1655 27.8359 23.4393 27.8359 23.713C27.8359 23.8444 27.8305 24.0087 27.8195 24.2058C27.8195 24.4029 27.8304 24.6 27.8523 24.7971V26.489H9.2254C9.1816 25.2844 9.61962 24.2989 10.5395 23.5323C13.7918 20.9152 15.3906 19.185 15.3358 18.3418C14.5474 18.6046 13.8465 18.7415 13.2333 18.7524C12.6201 18.7524 11.9576 18.6593 11.2458 18.4732C10.2493 20.4552 9.14875 21.5612 7.94419 21.7912C7.71422 21.846 7.54996 21.8733 7.45141 21.8733C7.35285 21.8624 7.17217 21.8569 6.90936 21.8569C6.7013 21.8897 6.47133 21.835 6.21947 21.6926C5.96761 21.5393 5.7267 21.4189 5.49673 21.3313C5.26677 21.2437 5.11894 21.1232 5.05323 20.9699C4.99848 20.8166 4.85612 20.625 4.62616 20.395C4.3743 20.165 4.12243 19.9515 3.87057 19.7544C3.62966 19.5463 3.45445 19.3656 3.34494 19.2123C3.29019 19.1576 3.21901 18.944 3.13141 18.5717C3.0438 18.1885 3 17.953 3 17.8654C3.02189 17.3398 3.14235 16.9018 3.36137 16.5513C3.58038 16.2009 3.96913 15.6698 4.52761 14.958C5.08608 14.2134 5.52958 13.6275 5.8581 13.2005C6.18662 12.7624 6.45491 12.3135 6.66297 11.8535C6.79438 11.5579 6.86556 11.306 6.8765 11.098C6.89839 10.8789 6.93125 10.7256 6.97506 10.638C7.20502 10.1891 7.79635 9.52107 8.74905 8.63407C8.7162 8.60122 8.76548 8.51362 8.89689 8.37126C9.03924 8.21795 9.08852 7.93324 9.04472 7.51711C9.01187 7.2762 8.83118 6.88746 8.50267 6.35088C8.40411 6.21947 8.32198 6.07164 8.25628 5.90738C8.19057 5.73217 7.99894 5.42008 7.68137 4.9711C8.57932 4.96015 9.32396 5.04775 9.91529 5.23392C10.5066 5.42008 10.9994 5.64457 11.3936 5.90738C11.4593 5.52411 11.3498 5.16274 11.0651 4.82327C10.7913 4.51666 10.5668 4.24289 10.3916 4.00198C10.2164 3.76107 9.76198 3.44898 9.02829 3.0657C9.63057 2.9562 10.638 2.98357 12.0507 3.14783C13.4633 3.30114 14.4653 3.65156 15.0566 4.19909C16.3707 4.1772 17.4 4.28123 18.1446 4.51118C18.9002 4.74114 19.831 5.15179 20.937 5.74312C21.9336 5.76501 22.7548 6.14281 23.4009 6.87651L23.401 6.87651ZM11.4265 10.6545C12.3573 10.6545 12.8227 11.0432 12.8227 11.8207C12.8227 12.6091 12.3573 13.0034 11.4265 13.0034C10.4957 13.0034 10.0303 12.6091 10.0303 11.8207C10.0303 11.0432 10.4957 10.6545 11.4265 10.6545ZM9.22545 27.606H27.8524V29.8892H9.22545V27.606Z" fill="black"/>
<path d="M22.3662 8.25627C22.0815 7.67589 21.6216 7.3857 20.9864 7.3857C20.7893 7.3857 20.5375 7.31452 20.2309 7.17216C19.6724 6.90935 19.1796 6.72319 18.7525 6.61368C18.3364 6.49323 17.8491 6.35087 17.2906 6.18661C16.3817 5.9457 15.5659 5.80881 14.8432 5.77596C14.5475 5.62265 14.3285 5.52958 14.1861 5.49672C14.0547 5.45292 13.9452 5.40364 13.8576 5.34889C13.6277 5.23938 13.4415 5.18463 13.2991 5.18463C13.1568 5.18463 13.0418 5.18463 12.9542 5.18463C13.0418 5.69931 13.0637 6.15376 13.0199 6.54798C12.987 6.93125 12.7133 7.35285 12.1986 7.81277C11.9686 7.68136 11.7442 7.56091 11.5251 7.4514C11.3171 7.3419 10.9612 7.23787 10.4575 7.13931C10.567 7.46783 10.6272 7.75802 10.6381 8.00988C10.6491 8.25079 10.5067 8.66144 10.2111 9.24182C9.42264 10.0193 8.88058 10.7256 8.58492 11.3608C8.46446 11.5907 8.344 11.8207 8.22355 12.0506C8.10309 12.2697 7.98811 12.6256 7.8786 13.1183C7.73624 13.5016 7.3475 14.0108 6.71237 14.6459C6.44955 14.9197 6.14294 15.2318 5.79252 15.5822C5.45305 15.9326 5.15739 16.3433 4.90552 16.8141C4.76317 17.077 4.65913 17.2741 4.59343 17.4055C4.53868 17.5259 4.54962 17.7011 4.62626 17.9311C4.76862 18.3691 4.90002 18.6429 5.02048 18.7524C5.14094 18.851 5.38185 19.0426 5.74322 19.3273C5.97318 19.4259 6.18124 19.612 6.3674 19.8858C6.56451 20.1486 6.78352 20.28 7.02444 20.28C7.56101 20.28 7.96619 20.1979 8.23995 20.0336C8.66702 19.7818 9.01197 19.4423 9.27478 19.0152C9.54855 18.5881 9.80588 18.1063 10.0468 17.5697C10.2439 17.3069 10.4465 17.077 10.6546 16.8799C10.8736 16.6827 11.2514 16.6773 11.7879 16.8634C12.0617 16.9839 12.5052 17.0441 13.1184 17.0441C14.0383 17.0441 14.8213 16.732 15.4673 16.1078C16.1134 15.4727 16.4255 14.7445 16.4036 13.9232L16.3543 13.2005C16.3543 12.642 16.6336 12.3627 17.1921 12.3627C17.7615 12.3627 18.0462 12.642 18.0462 13.2005L18.0955 13.8903C18.1064 15.073 17.7122 16.1462 16.9128 17.1098C17.099 18.0844 17.099 18.7688 16.9128 19.163C16.7376 19.5573 16.4529 20.0446 16.0587 20.6249C15.6097 21.282 15.0348 21.9171 14.3339 22.5303C13.6441 23.1436 12.7078 23.8992 11.5251 24.7971H26.1606C26.1496 24.5233 26.1441 24.162 26.1441 23.713C26.1441 23.0669 26.3139 22.4701 26.6533 21.9226C27.0038 21.5941 27.179 21.1834 27.179 20.6906C27.179 20.614 27.168 20.499 27.1461 20.3457C26.949 20.0938 26.7957 19.8091 26.6862 19.4916C26.5439 19.1083 26.4727 18.725 26.4727 18.3417C26.4727 17.8599 26.5877 17.3617 26.8176 16.847C26.8395 16.7375 26.8504 16.6718 26.8504 16.6499C26.8504 16.3761 26.7738 16.1024 26.6205 15.8286C26.3796 15.6315 26.1879 15.4015 26.0456 15.1387C25.5638 14.416 25.3885 13.6275 25.52 12.7734C25.4652 12.4777 25.3502 12.2204 25.175 12.0014C25.1203 11.9466 25.071 11.9028 25.0272 11.87C24.5563 11.6619 24.1457 11.3553 23.7952 10.9501C23.5324 10.6325 23.3408 10.2931 23.2203 9.9317C23.1218 9.67984 23.0561 9.36227 23.0232 8.979C22.9904 8.9352 22.9575 8.8914 22.9247 8.8476C22.8918 8.79284 22.859 8.73809 22.8261 8.68334C22.7823 8.63953 22.629 8.49718 22.3662 8.25627ZM11.4266 10.6544C12.3574 10.6544 12.8228 11.0432 12.8228 11.8207C12.8228 12.6091 12.3574 13.0033 11.4266 13.0033C10.4958 13.0033 10.0304 12.6091 10.0304 11.8207C10.0304 11.0432 10.4958 10.6544 11.4266 10.6544Z" fill="white"/>
</svg>
