<svg width="32" height="32" viewBox="0 0 32 32" fill="none" xmlns="http://www.w3.org/2000/svg">
<path d="M8.07923 16.3463L5.02401 13.866L9.03193 24.9042H22.2219L26.2462 13.866L23.2075 16.3627C22.5066 16.8555 21.7839 17.1019 21.0392 17.1019C19.6595 17.1019 18.6411 16.4723 17.984 15.2129L15.6351 10.2852L13.3191 15.1965C12.673 16.4668 11.6601 17.1019 10.2803 17.1019C9.5247 17.1019 8.79101 16.85 8.07923 16.3463V16.3463ZM7.81641 27.713H23.4538V29.9962H7.81641V27.713ZM15.5858 17.1019C15.9472 17.1019 16.2593 17.3757 16.5221 17.9232C16.7959 18.4707 16.9328 19.1332 16.9328 19.9107C16.9328 20.6992 16.7959 21.3672 16.5221 21.9147C16.2593 22.4513 15.9472 22.7196 15.5858 22.7196C15.2135 22.7196 14.896 22.4513 14.6331 21.9147C14.3703 21.3672 14.2389 20.6992 14.2389 19.9107C14.2389 19.1332 14.3703 18.4707 14.6331 17.9232C14.896 17.3757 15.2135 17.1019 15.5858 17.1019ZM19.643 14.753C20.0044 15.2239 20.4698 15.4593 21.0392 15.4593C21.313 15.4593 21.5813 15.3991 21.8441 15.2786L21.4499 12.4698L19.643 14.753ZM23.4046 14.0138L27.8888 10.2523C28.4802 9.71574 28.8799 9.51863 29.0879 9.66099C29.2522 9.78145 29.2467 10.1921 29.0715 10.8929L23.4374 26.5961H7.83283L2.19875 10.9094C1.95784 10.2085 1.93594 9.7924 2.13305 9.66099C2.33016 9.52958 2.73533 9.72122 3.34856 10.2359L7.8821 14.0467L8.45701 9.87453C8.48986 9.33795 8.62127 9.03681 8.85123 8.9711C9.08119 8.9054 9.35496 9.09704 9.67252 9.54601L12.4813 13.1104L15.0438 7.60776C15.2409 7.20259 15.438 7 15.6351 7C15.8322 7 16.0348 7.21354 16.2429 7.64061L18.8217 13.0776L21.5813 9.54601C21.8988 9.09704 22.1781 8.9054 22.419 8.9711C22.638 9.03681 22.7694 9.33795 22.8132 9.87453L23.4046 14.0138ZM9.40972 15.2622C9.72729 15.3936 10.0175 15.4593 10.2803 15.4593C10.8169 15.4593 11.2713 15.2403 11.6436 14.8023L9.82037 12.4698L9.40972 15.2622Z" fill="black"/>
<path d="M8.07923 16.3463L5.02402 13.866L9.03193 24.9042H22.2219L26.2462 13.866L23.2075 16.3627C22.5066 16.8555 21.7839 17.1019 21.0392 17.1019C19.6595 17.1019 18.6411 16.4722 17.984 15.2129L15.6351 10.2852L13.3191 15.1965C12.673 16.4668 11.6601 17.1019 10.2803 17.1019C9.52471 17.1019 8.79102 16.85 8.07923 16.3463ZM15.5859 17.1019C15.9472 17.1019 16.2593 17.3757 16.5221 17.9232C16.7959 18.4707 16.9328 19.1332 16.9328 19.9107C16.9328 20.6992 16.7959 21.3672 16.5221 21.9147C16.2593 22.4513 15.9472 22.7196 15.5859 22.7196C15.2135 22.7196 14.896 22.4513 14.6332 21.9147C14.3703 21.3672 14.2389 20.6992 14.2389 19.9107C14.2389 19.1332 14.3703 18.4707 14.6332 17.9232C14.896 17.3757 15.2135 17.1019 15.5859 17.1019ZM19.643 14.753C20.0044 15.2239 20.4698 15.4593 21.0392 15.4593C21.313 15.4593 21.5813 15.3991 21.8441 15.2786L21.4499 12.4698L19.643 14.753ZM9.40973 15.2622C9.72729 15.3936 10.0175 15.4593 10.2803 15.4593C10.8169 15.4593 11.2713 15.2403 11.6436 14.8023L9.82037 12.4698L9.40973 15.2622Z" fill="white"/>
</svg>
