<svg width="64" height="64" viewBox="0 0 64 64" fill="none" xmlns="http://www.w3.org/2000/svg">
<path d="M14 56C14 59.75 26.1528 61 33.4445 61C40.7361 61 52.8889 59.75 52.8889 56C52.8889 52.25 40.1254 51 33.4445 51C26.7635 51 14 52.25 14 56Z" fill="url(#paint0_linear_1_604)"/>
<path d="M43.9998 49L51.9998 22C39.9998 33 39.9998 27 39.9998 13C31.9998 23 31.9998 23 23.9998 13C23.9998 27 24.0489 33.0678 11.9998 22L19.9998 49" fill="#995E33"/>
<path d="M19.9998 49L27.9998 50C27.9998 50 23.9999 40 23.9999 24C20.9998 28 14.9998 28 14.9998 28C14.9998 28 20.9998 42 19.9998 49Z" fill="#BA845F"/>
<path d="M45.9998 42L51.9998 22C39.9998 33 39.9998 27 39.9998 13C31.9998 26 31.9998 26 23.9998 13C23.9998 27 24.0489 33.0678 11.9998 22L17.9998 42" stroke="black" stroke-width="3.99999" stroke-linejoin="round"/>
<path d="M39.9998 17C37.7907 17 35.9998 15.2091 35.9998 13C35.9998 10.7909 37.7907 9 39.9998 9C42.209 9 43.9998 10.7909 43.9998 13C43.9998 15.2091 42.209 17 39.9998 17Z" fill="#BA845F" stroke="black" stroke-width="3.99999" stroke-linejoin="round"/>
<path d="M23.9999 17C21.7907 17 19.9999 15.2091 19.9999 13C19.9999 10.7909 21.7907 9 23.9999 9C26.209 9 27.9998 10.7909 27.9998 13C27.9998 15.2091 26.209 17 23.9999 17Z" fill="#BA845F" stroke="black" stroke-width="3.99999" stroke-linejoin="round"/>
<path d="M11.9998 26C9.7907 26 7.99984 24.2091 7.99984 22C7.99984 19.7909 9.7907 18 11.9998 18C14.209 18 15.9998 19.7909 15.9998 22C15.9998 24.2091 14.209 26 11.9998 26Z" fill="#BA845F" stroke="black" stroke-width="3.99999" stroke-linejoin="round"/>
<path d="M51.9999 26C49.7907 26 47.9999 24.2091 47.9999 22C47.9999 19.7909 49.7907 18 51.9999 18C54.209 18 55.9998 19.7909 55.9998 22C55.9998 24.2091 54.209 26 51.9999 26Z" fill="#BA845F" stroke="black" stroke-width="3.99999" stroke-linejoin="round"/>
<path d="M46.9997 42C46.9997 42 47.9997 50 47.9996 54C41.9996 56 31.9996 56 31.9996 56C31.9996 56 21.9996 56 15.9996 54C15.9997 50 16.9997 42 16.9997 42C21.9997 44 31.9997 44 31.9997 44C31.9997 44 41.9997 44 46.9997 42Z" fill="#995E33"/>
<path d="M18.9997 42L15.9997 54L22.9997 55L24.9998 44L18.9997 42Z" fill="#BA845F"/>
<path d="M45.9998 42C45.9998 42 47.9997 50 47.9996 54C41.9996 56 31.9996 56 31.9996 56C31.9996 56 21.9996 56 15.9996 54C15.9997 50 17.9998 42 17.9998 42C22.9998 44 31.9998 44 31.9998 44C31.9998 44 40.9998 44 45.9998 42Z" stroke="black" stroke-width="3.99999" stroke-linecap="round" stroke-linejoin="round"/>
<path d="M16.9998 48C21.9998 50 31.9998 50 31.9998 50C31.9998 50 41.9998 50 46.9998 48" stroke="black" stroke-width="3.99999" stroke-linejoin="round"/>
<defs>
<linearGradient id="paint0_linear_1_604" x1="14" y1="103.5" x2="467.877" y2="103.5" gradientUnits="userSpaceOnUse">
<stop stop-opacity="0.2"/>
</linearGradient>
</defs>
</svg>
