<svg width="50" height="50" viewBox="0 0 50 50" fill="none" xmlns="http://www.w3.org/2000/svg">
<path fill-rule="evenodd" clip-rule="evenodd" d="M24.9394 7.59905V7.60413C24.1628 7.63138 23.4741 7.90511 22.9298 8.45701C22.3238 9.03918 22.0369 9.74372 22.0369 10.5404C22.0369 11.7353 22.5792 12.5935 23.6955 13.1756C22.8981 14.0948 22.0049 14.983 21.048 15.7796C19.23 17.3423 16.8061 18.599 15.9769 20.7438C15.5622 21.7855 15.339 22.7656 15.339 23.6235C15.339 24.1138 15.3709 24.6657 15.4986 25.3092C15.5942 25.922 15.8492 26.5959 16.2319 27.2393C16.5189 27.7602 16.902 28.2196 17.3804 28.618C17.8269 29.0163 18.624 29.5377 19.8041 30.1811L17.4758 35.788C18.1456 36.0331 18.8794 36.2479 19.7087 36.4624C20.5379 36.6769 21.3351 36.8297 22.1006 36.9216C18.4326 41.3645 12.4364 35.2367 8.25864 39.7409L10.4597 43.2029C15.7543 40.2921 18.9634 45.8594 24.4619 41.0278C25.0089 40.5472 24.9997 40.5252 25.5462 41.0278C30.9336 45.9824 34.2537 40.2921 39.5484 43.2029L41.7489 39.7409C37.5706 35.2368 31.5749 41.3645 27.907 36.9216C28.6725 36.8297 29.4696 36.6769 30.2989 36.4624C31.1282 36.2479 31.862 36.0331 32.5317 35.788L30.2034 30.1811C31.3835 29.5377 32.1811 29.0164 32.6277 28.618C33.1061 28.2197 33.4886 27.7602 33.7757 27.2393C34.1584 26.5959 34.4133 25.922 34.509 25.3092C34.6366 24.6658 34.6686 24.1138 34.6686 23.6235C34.6686 22.7656 34.4453 21.7855 34.0307 20.7438C33.2014 18.599 30.7776 17.3423 28.9595 15.7796C28.0027 14.983 27.1094 14.0948 26.312 13.1756C27.4283 12.5934 27.9706 11.7353 27.9706 10.5404C27.9706 9.74372 27.6837 9.03916 27.0777 8.45701C26.5334 7.9051 25.8447 7.63138 25.0681 7.60413V7.59905C25.0466 7.59905 25.0259 7.6011 25.0044 7.60159C24.983 7.60133 24.9623 7.59905 24.9408 7.59905H24.9394Z" fill="#FFF5FD" stroke="#3A3A3A" stroke-width="1.19998"/>
<path fill-rule="evenodd" clip-rule="evenodd" d="M30.4907 35.2362L29.6108 32.9995C28.2029 32.6931 26.6778 32.5093 25.006 32.5093C23.3341 32.5093 21.809 32.6625 20.4305 32.9995L19.5506 35.2056C21.2518 34.746 23.0702 34.5315 24.9766 34.5315C26.9123 34.5315 28.7309 34.7766 30.4907 35.2362V35.2362Z" fill="#A2416B"/>
<path fill-rule="evenodd" clip-rule="evenodd" d="M24.8808 18.6293C24.1153 18.6293 23.7645 18.9664 23.7645 19.6405V22.061H21.149C20.4474 22.061 20.0965 22.3674 20.0965 22.9802H20.5749V22.827V22.9802H20.0965C20.0965 23.593 20.4473 23.8994 21.149 23.8994H23.7645V26.32C23.7645 26.9941 24.1472 27.3311 24.8808 27.3311C25.6143 27.3311 25.9971 26.9941 25.9971 26.32V23.8994H28.7082C29.378 23.8994 29.7288 23.593 29.7288 22.9802H29.5056V22.827V22.9802H29.7288C29.7288 22.3674 29.378 22.061 28.7082 22.061H25.9971V19.6405C25.9971 18.9664 25.6143 18.6293 24.8808 18.6293Z" fill="#A2416B"/>
<path opacity="0.15" fill-rule="evenodd" clip-rule="evenodd" d="M24.9394 7.59905C24.1736 7.59905 23.5093 7.81854 22.9676 8.27619C23.0351 8.33354 23.1018 8.39225 23.1654 8.4568C27.8947 9.15081 26.9417 11.61 24.5136 13.1757C23.4074 14.1195 24.2352 15.1001 25.0472 15.78C26.8654 17.3427 29.2891 18.5986 30.1178 20.7435C30.5326 21.7852 30.7563 22.7661 30.7563 23.6241C30.7563 24.1143 30.7235 24.6657 30.5962 25.3091C30.5009 25.9219 30.2454 26.5962 29.8629 27.2397C29.5757 27.7606 29.1934 28.22 28.7148 28.6183C28.2683 29.0167 27.4707 29.5375 26.2907 30.1809L28.6193 35.7881C27.9496 36.0333 27.216 36.248 26.3868 36.4624C25.5574 36.6769 24.7599 36.8302 23.9946 36.9221C29.0622 43.3802 35.5975 37.4124 41.0676 40.8097C41.9959 39.1745 40.4038 41.8538 41.7471 39.741C40.4414 38.3335 38.9583 37.9644 37.4241 37.9863C34.8056 38.0862 32.2581 38.7766 30.0771 38.4135H30.0849C29.2991 38.1748 28.5639 37.7215 27.9052 36.923C28.6704 36.8315 29.4677 36.6779 30.2973 36.4633C31.1266 36.2489 31.8601 36.0342 32.5298 35.7891L30.2017 30.1819C31.3817 29.5384 32.1793 29.0176 32.6259 28.6192C33.1044 28.2209 33.4865 27.7615 33.7735 27.2406C34.1562 26.5972 34.4116 25.9229 34.5072 25.31C34.6345 24.6666 34.6673 24.1153 34.6673 23.625C34.6673 22.7671 34.4436 21.7861 34.0289 20.7445C33.1998 18.5996 30.7754 17.3436 28.9572 15.7809C28.0005 14.9843 27.1082 14.096 26.3106 13.1766C27.4271 12.5945 27.9689 11.7366 27.9689 10.5417C27.9689 9.74503 27.682 9.03988 27.0758 8.45773C26.5017 7.87555 25.7684 7.59999 24.9391 7.59999L24.9394 7.59905Z" fill="black"/>
</svg>
