<svg width="50" height="50" viewBox="0 0 50 50" fill="none" xmlns="http://www.w3.org/2000/svg">
<path fill-rule="evenodd" clip-rule="evenodd" d="M12.38 9.548V17.2813L17.2129 21.2988V31.5028L10.6249 38.468V43.4H39.3699V38.468L32.7825 31.5028V21.2988L37.6154 17.2813V9.548H32.3161V12.6491H28.3241V9.548H21.6707V12.6491H17.6787V9.548H12.38Z" fill="#852747" stroke="#141414" stroke-width="1.2"/>
<path fill-rule="evenodd" clip-rule="evenodd" d="M25 16.456H16.2504L19.557 18.956H30.561L33.7497 16.456H25Z" fill="#E6E6E6"/>
<path opacity="0.15" fill-rule="evenodd" clip-rule="evenodd" d="M34.04 9.548V17.2812L29.2074 21.2986V31.5026L35.7947 38.4679V43.3998H39.3675V38.4679L32.7797 31.5026V21.2986L37.6128 17.2812V9.548H34.04Z" fill="black"/>
<path fill-rule="evenodd" clip-rule="evenodd" d="M25 38.735H14.973L17.7493 36.235H32.3853L35.0275 38.735H25Z" fill="#E6E6E6"/>
<path fill-rule="evenodd" clip-rule="evenodd" d="M25.06 34.655H18.2714L20.0336 32.455H30.1796L31.8489 34.655H25.06Z" fill="#E6E6E6"/>
<path fill-rule="evenodd" clip-rule="evenodd" d="M25.06 20.543H20.0872L21.8325 22.743H28.3575L30.0329 20.543H25.06Z" fill="#E6E6E6"/>
</svg>
