<svg width="256" height="256" viewBox="0 0 256 256" fill="none" xmlns="http://www.w3.org/2000/svg">
<path fill-rule="evenodd" clip-rule="evenodd" d="M209.401 76.9272L214.498 76.1062H214.898C224.21 76.1062 233.181 83.2619 233.179 93.775M209.401 76.9272L209.025 77.0511ZM198.191 100.96C197.192 98.7921 196.617 96.3653 196.617 93.7746C196.617 85.5378 202.205 79.2952 209.025 77.0511M198.191 100.96L181.164 126.805L182.488 98.3885C187.655 95.4375 191.473 89.996 191.473 83.1898C191.473 72.6762 182.499 65.5223 173.189 65.5223C163.875 65.5223 154.905 72.6806 154.905 83.1898C154.905 86.9542 156.108 90.3501 158.061 93.1202L145.367 122.786L140.031 92.6097C143.52 89.4879 145.872 84.97 145.872 79.6675C145.872 69.1565 136.901 62 127.592 62C118.281 62 109.307 69.1559 109.307 79.6675C109.307 84.9704 111.66 89.4879 115.148 92.6093L109.813 122.785L97.1176 93.1178C99.0714 90.3477 100.274 86.9513 100.274 83.1861C100.274 72.6715 91.2986 65.5186 81.9888 65.5186C72.6783 65.5186 63.7082 72.678 63.7082 83.1861C63.7082 89.9896 67.523 95.4324 72.6897 98.3843L74.014 126.8L56.9898 100.959C57.9892 98.7924 58.5641 96.3661 58.5641 93.7746C58.5641 83.2588 49.5921 76.1082 40.2806 76.1082C30.9655 76.1082 22 83.2648 22 93.7746C22 101.575 26.9825 107.558 33.316 110.097C36.1147 125.402 37.6696 137.998 38.7476 148.503C39.1681 152.6 39.5207 156.443 39.8521 160.053L39.8636 160.179C40.4828 166.927 41.0368 172.964 41.8228 178.09C43.0498 186.092 45.0432 193.569 49.9339 199.979C52.9271 203.902 56.6684 206.992 61.0986 209.591C57.6154 212.13 54.6628 216.218 54.6628 222.098C54.6628 230.973 61.911 238.068 70.6741 238.068H184.919C193.683 238.068 200.927 230.965 200.927 222.098C200.927 216.092 197.871 211.985 194.302 209.459C198.635 206.887 202.301 203.836 205.243 199.979C210.134 193.569 212.127 186.092 213.354 178.09C214.141 172.962 214.695 166.922 215.314 160.171L215.325 160.049C215.657 156.439 216.009 152.598 216.43 148.502C217.508 137.996 219.062 125.4 221.86 110.095C228.193 107.556 233.178 101.575 233.179 93.775" fill="#DDFFBC"/>
<path d="M214.898 76.1062H214.498L209.401 76.9272L209.025 77.0511C202.205 79.2952 196.617 85.5378 196.617 93.7746C196.617 96.3653 197.192 98.7921 198.191 100.96L181.164 126.805L182.488 98.3885C187.655 95.4375 191.473 89.996 191.473 83.1898C191.473 72.6762 182.499 65.5223 173.189 65.5223C163.875 65.5223 154.905 72.6806 154.905 83.1898C154.905 86.9542 156.108 90.3501 158.061 93.1202L145.367 122.786L140.031 92.6097C143.52 89.4879 145.872 84.97 145.872 79.6675C145.872 69.1565 136.901 62 127.592 62C118.281 62 109.307 69.1559 109.307 79.6675C109.307 84.9704 111.66 89.4879 115.148 92.6093L109.813 122.785L97.1176 93.1178C99.0714 90.3477 100.274 86.9513 100.274 83.1861C100.274 72.6715 91.2986 65.5186 81.9888 65.5186C72.6783 65.5186 63.7082 72.678 63.7082 83.1861C63.7082 89.9896 67.523 95.4324 72.6897 98.3843L74.014 126.8L56.9898 100.959C57.9892 98.7924 58.5641 96.3661 58.5641 93.7746C58.5641 83.2588 49.5921 76.1082 40.2806 76.1082C30.9655 76.1082 22 83.2648 22 93.7746C22 101.575 26.9825 107.558 33.316 110.097C36.1147 125.402 37.6696 137.998 38.7476 148.503C39.1681 152.6 39.5207 156.443 39.8521 160.053L39.8636 160.179C40.4828 166.927 41.0368 172.964 41.8228 178.09C43.0498 186.092 45.0432 193.569 49.9339 199.979C52.9271 203.902 56.6684 206.992 61.0986 209.591C57.6154 212.13 54.6628 216.218 54.6628 222.098C54.6628 230.973 61.911 238.068 70.6741 238.068H184.919C193.683 238.068 200.927 230.965 200.927 222.098C200.927 216.092 197.871 211.985 194.302 209.459C198.635 206.887 202.301 203.836 205.243 199.979C210.134 193.569 212.127 186.092 213.354 178.09C214.141 172.962 214.695 166.922 215.314 160.171L215.325 160.049C215.657 156.439 216.009 152.598 216.43 148.502C217.508 137.996 219.062 125.4 221.86 110.095C228.193 107.556 233.178 101.575 233.179 93.775C233.181 83.2619 224.21 76.1062 214.898 76.1062Z" fill="#DDFFBC"/>
<path d="M204.075 101.118C202.55 99.0799 201.617 96.5615 201.617 93.7746C201.617 87.9891 205.527 83.4658 210.588 81.8006L214.898 81.1062C221.863 81.1062 228.181 86.4201 228.179 93.7743C228.178 100.193 223.361 105.06 217.501 106.191C214.317 123.022 212.613 136.714 211.456 147.991C211.032 152.118 210.677 155.985 210.346 159.592C209.718 166.441 209.175 172.355 208.412 177.332C207.228 185.054 205.397 191.535 201.268 196.946C197.522 201.855 192.255 205.408 185.131 208.493L188.291 211.889C192.117 213.322 195.927 216.577 195.927 222.098C195.927 228.17 190.955 233.068 184.919 233.068H70.6741C64.6361 233.068 59.6628 228.176 59.6628 222.098C59.6628 216.976 62.9424 213.804 66.474 212.228L70.0279 208.486C62.9128 205.402 57.6517 201.852 53.909 196.946C49.78 191.535 47.9491 185.054 46.7651 177.332C46.002 172.356 45.4596 166.444 44.8312 159.596C44.5001 155.988 44.1451 152.12 43.7215 147.992C42.5642 136.715 40.8593 123.024 37.6754 106.193C31.8157 105.062 27 100.195 27 93.7746C27 86.4221 33.3136 81.1082 40.2806 81.1082C47.2467 81.1082 53.5641 86.4186 53.5641 93.7746C53.5641 96.5618 52.6299 99.0797 51.1062 101.117L79.8563 144.757L77.5427 95.1141C72.5503 93.4129 68.7082 88.92 68.7082 83.1861C68.7082 75.8354 75.0264 70.5186 81.9888 70.5186C88.9533 70.5186 95.2739 75.8314 95.2739 83.1861C95.2739 86.8133 93.7052 89.9739 91.297 92.225L111.815 140.175L120.609 90.4384C116.918 88.2611 114.307 84.371 114.307 79.6675C114.307 72.3151 120.627 67 127.592 67C134.554 67 140.872 72.3145 140.872 79.6675C140.872 84.3709 138.262 88.2614 134.57 90.4387L143.364 140.176L163.881 92.2277C161.474 89.9764 159.905 86.8161 159.905 83.1898C159.905 75.8386 166.223 70.5223 173.189 70.5223C180.153 70.5223 186.473 75.8355 186.473 83.1898C186.473 88.9254 182.627 93.4171 177.635 95.1178L175.322 144.761L204.075 101.118Z" fill="#354A32"/>
<path fill-rule="evenodd" clip-rule="evenodd" d="M168.321 201.881C167.62 202.262 146.99 214.135 146.983 214.132C147.986 199.987 146.751 214.364 147.986 199.987C134.943 212.517 147.576 200.395 134.534 212.924C132.329 208.349 129.879 203.515 127.792 198.907C125.702 203.515 123.255 208.349 121.05 212.924C108.009 200.394 120.639 212.516 107.601 199.987C108.836 214.364 107.601 199.987 108.601 214.132C108.595 214.134 87.9653 202.263 87.2674 201.881C90.9699 212.244 87.2674 201.881 91.132 212.216C84.6507 213.282 79.3298 214.586 70.6741 216.124C67.4182 216.704 64.6628 218.813 64.6628 222.098C64.6628 225.383 67.3656 228.068 70.6741 228.068H184.919C188.223 228.068 190.927 225.38 190.927 222.098C190.927 218.811 188.17 216.704 184.919 216.124C176.262 214.586 170.939 213.282 164.461 212.216C168.322 201.881 164.618 212.244 168.322 201.881H168.321Z" fill="#DDFFBC"/>
<path fill-rule="evenodd" clip-rule="evenodd" d="M214.898 86.1082C210.323 86.1082 206.617 89.5392 206.617 93.7746C206.617 96.5489 208.205 98.9729 210.587 100.321L169.479 162.717L172.829 90.8504C172.948 90.8547 173.069 90.8562 173.189 90.8562C177.76 90.8562 181.473 87.4252 181.473 83.1898C181.473 78.9545 177.763 75.5223 173.189 75.5223C168.614 75.5223 164.905 78.9563 164.905 83.1898C164.905 86.4282 167.073 89.1981 170.136 90.3205L141.361 157.566L128.925 87.2345C132.864 86.6449 135.872 83.4794 135.872 79.6675C135.872 75.4323 132.163 72 127.592 72C123.017 72 119.307 75.434 119.307 79.6675C119.307 83.4794 122.316 86.6449 126.253 87.2345L113.818 157.566L85.0419 90.3167C88.1052 89.1959 90.2739 86.426 90.2739 83.1861C90.2739 78.9509 86.5641 75.5186 81.9888 75.5186C77.4181 75.5186 73.7082 78.9526 73.7082 83.1861C73.7082 87.4213 77.418 90.8525 81.9888 90.8525C82.1099 90.8525 82.2267 90.851 82.3493 90.8466L85.6986 162.713L44.5946 100.321C46.9719 98.9742 48.5641 96.5486 48.5641 93.7746C48.5641 89.5379 44.8573 86.1082 40.2806 86.1082C35.7054 86.1082 32 89.5392 32 93.7746C32 98.0097 35.7069 101.442 40.2806 101.442C40.8074 101.442 41.327 101.395 41.8246 101.311C56.6799 176.626 42.5149 192.194 74.2494 204.825C77.2791 206.032 77.12 208.28 74.7996 210.723C78.1737 210.193 81.3799 209.7 84.4419 209.247L78.1504 191.888L103.836 206.721L103.865 206.717L101.769 189.607L119.651 205.505L119.85 205.497L127.59 188.849L135.316 205.476L135.547 205.486L153.41 189.605L151.317 206.667L151.418 206.677L177.026 191.888L170.758 209.18C173.789 209.625 176.959 210.111 180.296 210.636C178.053 208.225 177.936 206.017 180.93 204.823C212.66 192.195 198.499 176.625 213.351 101.309C213.853 101.395 214.369 101.44 214.895 101.44C219.471 101.44 223.179 98.0061 223.179 93.7726C223.18 89.5374 219.474 86.1062 214.898 86.1062L214.898 86.1082Z" fill="#DDFFBC"/>
</svg>
