<svg width="256" height="256" viewBox="0 0 256 256" fill="none" xmlns="http://www.w3.org/2000/svg">
<g opacity="0.9">
<path d="M45.004 45.455C41.1908 46.517 37.1189 47.9152 34.0793 49.9105L28.4329 53.6172L29.7629 60.2393C30.5176 63.9971 30.9161 67.9229 31.3505 72.2483L31.4189 72.929C31.8535 77.245 32.3649 82.228 33.5219 86.739C34.6867 91.2801 36.7794 96.5177 41.2106 100.561C43.6565 102.793 46.4916 104.368 49.6199 105.349L50.314 106.763C63.0502 132.721 69.1289 150.418 71.4111 162.588C73.6753 174.663 72.0385 180.369 70.4532 183.277C68.905 186.116 66.7565 187.756 63.0656 190.433L63.0633 190.435C62.6568 190.729 62.2314 191.038 61.7982 191.356C58.3462 193.888 52.2346 198.495 51.2448 206.971C47.181 210.077 44.54 214.98 44.54 220.501V220.505C44.54 229.887 52.1708 237.527 61.5612 237.527H195.084C204.468 237.527 212.108 229.893 212.108 220.505V220.501C212.108 214.982 209.468 210.082 205.408 206.977C204.421 198.496 198.307 193.887 194.853 191.354C194.432 191.045 194.018 190.744 193.622 190.457L193.608 190.447L193.589 190.433L193.584 190.43L193.582 190.428C189.892 187.753 187.745 186.113 186.197 183.275C184.611 180.367 182.974 174.662 185.239 162.588C187.521 150.418 193.601 132.722 206.338 106.764L207.035 105.345C210.158 104.364 212.988 102.791 215.43 100.563C219.862 96.5196 221.955 91.2824 223.121 86.7409C224.278 82.2297 224.79 77.2458 225.224 72.9292L225.294 72.2409C225.728 67.9181 226.126 63.9943 226.879 60.2376L228.208 53.6191L222.566 49.9126C219.525 47.9151 215.45 46.5165 211.637 45.455C207.556 44.3184 202.698 43.2871 197.421 42.368L188.202 40.7623L183.542 59.9091H176.885L175.514 39.2934L166.964 38.5571C153.826 37.4259 140.128 36.8318 128.327 37.0417C116.523 36.8318 102.826 37.4259 89.6829 38.5571L81.131 39.2931L79.7623 59.9091H72.7797L68.7285 40.7125L59.2213 42.3679C53.9428 43.287 49.0855 44.3184 45.004 45.455Z" fill="#23142D"/>
<path d="M34 55.9437L36.8232 54.0904C39.1775 52.5449 42.6139 51.3109 46.3455 50.2717C50.2131 49.1946 54.8961 48.1963 60.079 47.2938L64.8326 46.4661L68.7248 64.9091H84.4413L85.8357 43.9067L90.1117 43.5387C103.161 42.4156 116.715 41.8318 128.327 42.0425C139.936 41.8318 153.492 42.4157 166.535 43.5387L170.81 43.9068L172.207 64.9091H187.471L191.953 46.491L196.563 47.2939C201.744 48.1963 206.428 49.1947 210.296 50.2717C214.028 51.3107 217.466 52.5449 219.82 54.0914L222.641 55.9447L221.977 59.2539C221.167 63.2926 220.748 67.4642 220.319 71.7415L220.249 72.4292C219.808 76.8093 219.326 81.414 218.278 85.4982C217.226 89.5975 215.468 93.7602 212.06 96.8688C209.719 99.0045 206.875 100.397 203.553 101.089L201.85 104.561C189.024 130.699 182.727 148.859 180.325 161.666C177.931 174.426 179.486 181.412 181.807 185.668C183.969 189.634 187.05 191.868 190.649 194.478L190.656 194.483C191.063 194.778 191.476 195.078 191.896 195.385C195.703 198.178 200.73 202.172 200.539 209.792C204.433 211.784 207.108 215.839 207.108 220.501V220.505C207.108 227.13 201.708 232.527 195.084 232.527H61.5612C54.9338 232.527 49.54 227.127 49.54 220.505V220.501C49.54 215.836 52.2157 211.779 56.1129 209.788C55.9243 202.171 60.9496 198.179 64.7555 195.387C65.1769 195.078 65.5922 194.777 66.0009 194.481C69.6 191.871 72.6806 189.637 74.8431 185.67C77.1638 181.414 78.7184 174.428 76.3254 161.667C73.9237 148.859 67.6275 130.699 54.8028 104.561L53.1008 101.092C49.7737 100.4 46.9249 99.0069 44.5809 96.8679C41.1739 93.7589 39.4166 89.5959 38.3651 85.4967C37.3175 81.4125 36.8348 76.8078 36.3938 72.4281L36.3254 71.7482C35.8956 67.4686 35.4764 63.2949 34.665 59.2548L34 55.9437Z" fill="#E23E57"/>
<path fill-rule="evenodd" clip-rule="evenodd" d="M39.5671 58.2702C42.9019 56.0811 50.762 53.9913 60.9367 52.2197L64.6699 69.9091H89.1204L90.5404 48.5203C103.496 47.4053 116.909 46.8318 128.327 47.0434C139.742 46.8318 153.157 47.4053 166.106 48.5203L167.529 69.9091H191.4L195.705 52.2197C205.877 53.9914 213.743 56.0813 217.075 58.2702C213.428 76.4454 217.313 96.6095 198.179 96.6095C139.041 101.247 118.164 102.148 58.4618 96.6095C39.3291 96.6095 43.2169 76.4424 39.5671 58.2702Z" fill="#23142D"/>
<path fill-rule="evenodd" clip-rule="evenodd" d="M197.361 102.359C145.703 207.633 196.445 189.775 195.532 209.916H61.1201C60.2065 189.779 110.944 207.633 59.2915 102.359C109.851 107.099 146.801 107.099 197.361 102.359Z" fill="#23142D"/>
<path fill-rule="evenodd" clip-rule="evenodd" d="M61.5612 213.48H195.084C198.948 213.48 202.108 216.639 202.108 220.501V220.505C202.108 224.367 198.948 227.527 195.084 227.527H61.5612C57.6966 227.527 54.54 224.367 54.54 220.505V220.501C54.54 216.638 57.6967 213.48 61.5612 213.48V213.48Z" fill="#23142D"/>
</g>
</svg>
