<svg width="180" height="180" viewBox="0 0 180 180" fill="none" xmlns="http://www.w3.org/2000/svg">
<path d="M102.793 73.3016C109.618 72.0495 112.718 69.5447 112.092 65.7878C111.466 62.0938 107.74 60.8726 100.915 62.1248C94.0269 63.4399 90.9276 65.9447 91.6166 69.6386C92.3051 73.458 96.0306 74.6792 102.793 73.3016ZM150.882 167.318L29.7217 167.506C30.7861 150.913 35.4196 136.292 43.6222 123.644C51.8874 110.996 64.5356 103.638 81.567 101.572C76.9961 101.071 72.7071 99.6311 68.6992 97.2518C64.7544 94.8724 61.749 91.4288 59.6829 86.9203C57.6169 87.1082 55.1433 87.6718 52.2631 88.6112C49.3827 89.55 46.3146 89.4561 43.0586 88.3294C35.9206 88.7051 31.6314 86.3567 30.1913 81.2852C28.8138 76.2131 28.125 71.4859 28.125 67.1029C28.125 62.7199 29.5964 58.9629 32.5393 55.8321C35.4823 52.6387 39.1139 50.9168 43.4343 50.6663C67.1029 51.042 88.9864 49.2575 109.086 45.3128C129.248 41.3054 143.743 35.5762 152.572 28.125C155.202 32.6333 156.517 37.2668 156.517 42.0255C156.517 48.1618 154.607 53.5466 150.788 58.1799C147.031 62.7508 142.366 65.5059 136.793 66.4453C140.738 67.3847 144.056 69.5762 146.749 73.0198C149.441 76.401 150.788 80.2834 150.788 84.6664C150.788 89.1743 149.441 93.1191 146.749 96.5003C144.056 99.8814 140.738 102.042 136.793 102.981C140.738 103.983 144.056 106.175 146.749 109.556C149.441 112.937 150.788 116.85 150.788 121.296C150.788 125.804 149.441 129.749 146.749 133.13C144.056 136.511 140.738 138.671 136.793 139.611C140.738 140.613 144.025 142.836 146.655 146.279C149.347 149.66 150.694 153.543 150.694 157.926L150.882 167.318Z" fill="#192E24"/>
<path d="M102.794 73.3016C109.618 72.0495 112.718 69.5447 112.092 65.7883C111.466 62.0938 107.74 60.8726 100.915 62.1253C94.0275 63.4399 90.9276 65.9447 91.6166 69.6386C92.3051 73.4586 96.0311 74.6792 102.794 73.3016Z" fill="#BDBE36"/>
</svg>
