<svg width="180" height="180" viewBox="0 0 180 180" fill="none" xmlns="http://www.w3.org/2000/svg">
<path d="M125.282 159.199C125.595 141.041 127.317 125.606 130.448 112.895C133.641 100.185 138.838 88.7889 146.039 78.7078C145.851 77.2678 143.44 78.6454 138.807 82.8405C134.236 87.0356 130.636 90.7926 128.006 94.1108C123.999 99.1828 120.899 103.316 118.707 106.509C116.516 109.64 113.604 113.365 109.973 117.686C107.593 108.857 104.15 99.2143 99.6413 88.7574C95.1328 78.3006 91.2819 71.3818 88.0886 68.0006C84.8329 71.3818 80.9505 78.3006 76.4426 88.7574C71.9342 99.2143 68.5215 108.857 66.2051 117.686C62.5106 113.365 59.5676 109.64 57.3761 106.509C55.2473 103.316 52.1791 99.1828 48.1718 94.1108C45.4794 90.7926 41.8164 87.0356 37.1829 82.8405C32.612 78.6454 30.2952 77.2678 30.2326 78.7078C37.2455 88.6635 42.2234 100.028 45.1663 112.802C48.1718 125.575 49.7685 141.041 49.9563 159.199H125.282ZM88.2765 50.625C93.0352 54.7576 97.5122 61.2382 101.707 70.0667C105.965 78.8957 109.659 89.0707 112.79 100.592C122.37 86.3156 131.825 75.6084 141.155 68.4703C150.547 61.2697 158.311 59.0783 164.447 61.8958C168.518 63.837 170.709 66.8734 171.022 71.0061C160.941 70.5054 152.52 79.866 145.757 99.0889C139.057 118.312 135.802 141.479 135.989 168.591H40.9398C40.9398 141.479 37.5273 118.312 30.7023 99.0889C23.9398 79.866 15.5807 70.5054 5.625 71.0061C5.87548 66.8734 8.06698 63.837 12.1996 61.8958C18.2732 59.0783 26.0061 61.2697 35.3983 68.4703C44.7906 75.6084 54.2767 86.3156 63.8567 100.592C66.9251 89.0707 70.5566 78.8957 74.7517 70.0667C79.0099 61.2382 83.5177 54.7576 88.2765 50.625Z" fill="#192E24"/>
<path d="M125.282 159.199C125.595 141.041 127.317 125.606 130.448 112.895C133.641 100.185 138.838 88.7889 146.039 78.7078C145.851 77.2678 143.44 78.6454 138.807 82.8405C134.236 87.0356 130.635 90.7925 128.006 94.1113C123.999 99.1828 120.899 103.315 118.707 106.509C116.516 109.64 113.604 113.365 109.973 117.686C107.593 108.857 104.15 99.2143 99.6412 88.7574C95.1327 78.3006 91.2819 71.3818 88.0885 68.0006C84.8328 71.3818 80.9504 78.3006 76.4425 88.7574C71.9341 99.2143 68.5214 108.857 66.205 117.686C62.5105 113.365 59.5675 109.64 57.376 106.509C55.2472 103.315 52.1791 99.1828 48.1717 94.1113C45.4793 90.7925 41.8163 87.0356 37.1828 82.8405C32.6119 78.6454 30.2952 77.2678 30.2325 78.7078C37.2455 88.6635 42.2233 100.028 45.1662 112.801C48.1717 125.575 49.7684 141.041 49.9563 159.199H125.282Z" fill="#E5DD90"/>
</svg>
