<svg width="180" height="180" viewBox="0 0 180 180" fill="none" xmlns="http://www.w3.org/2000/svg">
<path d="M66.0909 22.5H77.814C84.2428 23.1303 90.6716 24.1387 97.1004 25.5253C103.656 26.7859 109.769 29.118 115.442 32.5215C120.484 35.4208 125.022 39.0134 129.056 43.2992C133.216 47.5851 136.556 52.1232 139.078 56.9132C141.473 61.8294 143.489 66.8087 145.128 71.8509C146.767 76.8932 148.153 81.9984 149.288 87.1667C150.423 92.2089 151.431 97.3772 152.313 102.671C153.196 107.84 154.015 112.945 154.771 117.988C153.385 118.114 152.061 118.177 150.801 118.177C149.666 118.177 148.531 118.177 147.397 118.177C148.027 119.563 148.783 120.887 149.666 122.147C150.675 123.408 151.872 124.543 153.259 125.551C154.771 126.559 156.095 127.631 157.229 128.765C158.49 129.774 159.499 131.097 160.255 132.736C160.759 133.744 161.137 134.879 161.389 136.14C161.768 137.4 162.083 138.535 162.335 139.543V160.342C140.779 160.342 119.413 160.405 98.235 160.531C77.184 160.531 55.9434 160.468 34.5138 160.342C34.3877 156.687 34.3247 153.22 34.3247 149.943C34.3247 146.539 34.4508 143.072 34.7029 139.543C34.955 137.4 35.4593 135.32 36.2156 133.304C36.9719 131.16 38.2325 129.396 39.9973 128.009C42.0142 126.622 43.842 125.173 45.4808 123.66C47.1195 122.147 48.38 120.319 49.2624 118.177C48.38 118.177 47.4976 118.177 46.6152 118.177C45.8589 118.177 45.1656 118.114 44.5353 117.988C44.7874 114.458 45.2916 110.802 46.048 107.021C46.9304 103.239 48.38 99.7093 50.3969 96.4322C49.1363 97.0622 47.8128 97.7558 46.4261 98.5118C45.1656 99.1423 43.779 99.6463 42.2663 100.024C40.6276 100.403 38.9888 100.592 37.3501 100.592C35.7114 100.466 34.0726 100.277 32.4339 100.024C32.9381 99.6463 33.4424 99.0163 33.9466 98.1337C33.1902 98.5117 32.4339 98.8897 31.6776 99.2683C31.0473 99.5203 30.417 99.5203 29.7867 99.2683C27.2656 98.2597 24.9336 96.8102 22.7906 94.9191C20.7737 92.9025 18.9459 90.7594 17.3072 88.4902C16.803 87.8602 16.7399 87.1667 17.1181 86.4107C17.4963 85.5281 17.8744 84.7716 18.2526 84.1416C22.1603 75.9476 26.7614 67.8173 32.0557 59.7499C37.4762 51.556 44.0941 44.5598 51.9096 38.7613C50.3969 37.5007 48.7582 36.4292 46.9934 35.5468C45.2286 34.6644 43.5269 33.656 41.8881 32.5215C44.4092 31.6391 46.9304 30.9458 49.4515 30.4415C51.9726 29.8113 54.6197 29.3701 57.393 29.118C56.0064 28.4877 54.5567 27.8574 53.0441 27.2271C51.6575 26.5968 50.2708 25.9666 48.8842 25.3363C51.7835 24.706 54.6197 24.1387 57.393 23.6345C60.1661 23.1303 63.0658 22.7521 66.0909 22.5ZM62.8762 27.4162C64.0108 28.4246 65.1454 29.5592 66.2799 30.8197C67.4145 31.9542 68.486 33.0887 69.4946 34.2232C68.234 34.9796 66.6579 35.5469 64.7674 35.925C63.8848 35.799 63.0658 35.6099 62.3092 35.3577C61.5527 34.9796 60.6707 34.6644 59.6621 34.4123C58.6535 34.0341 57.645 33.9081 56.6364 34.0342C55.6282 34.1602 54.6198 34.2232 53.6114 34.2232C54.6198 34.8535 55.6913 35.5468 56.826 36.3031C57.9605 37.0595 59.0315 37.7528 60.0401 38.383C55.3761 41.2823 51.1532 44.5598 47.3715 48.2154C43.7159 51.871 40.3124 55.8418 37.161 60.1279C34.1357 64.2876 31.3624 68.6998 28.8413 73.3635C26.3201 77.9018 23.9251 82.5024 21.6561 87.1667C22.9167 88.9318 24.2402 90.4444 25.6269 91.7049C27.0135 92.8395 28.5892 93.9111 30.354 94.9191C32.3709 93.5325 33.8836 91.8939 34.892 90.0028C35.9005 88.1122 37.098 86.2841 38.4846 84.5196C39.1149 84.0156 39.8082 84.0156 40.5646 84.5196C41.3209 84.8976 41.8251 85.4021 42.0772 86.0321C42.8335 87.7972 42.8966 89.4988 42.2663 91.1374C41.636 92.7765 40.9427 94.4781 40.1864 96.2426C43.842 94.9821 47.0564 93.2805 49.8297 91.1374C52.729 88.9948 55.6913 87.0407 58.7165 85.2761C60.8597 84.2676 63.0022 83.448 65.1454 82.818C67.4145 82.1874 69.7466 81.7464 72.1417 81.4944C78.8225 81.3684 85.6294 82.3764 92.5627 84.5196C93.3187 84.6456 93.6973 85.0871 93.6973 85.8431C93.6973 86.4737 93.8233 87.1037 94.0753 87.7343C90.0416 86.3471 85.8819 85.4651 81.5957 85.0871C77.31 84.7086 73.0237 85.0866 68.738 86.2211C66.3429 87.1037 64.0108 88.3642 61.7422 90.0028C59.5991 91.5159 57.771 93.3435 56.2584 95.4866C54.3677 98.1338 52.792 101.033 51.5314 104.185C50.3969 107.336 49.6406 110.55 49.2624 113.828H149.666C148.279 105.004 146.704 96.0536 144.939 86.9777C143.174 77.9017 140.275 69.2038 136.241 60.8839C132.586 53.6989 127.543 47.3961 121.114 41.9757C114.811 36.4292 107.437 32.5214 98.9915 30.2524C93.1927 28.7398 87.2055 27.7313 81.0287 27.2271C74.9779 26.7229 68.927 26.7859 62.8762 27.4162ZM53.8004 119.122C52.6659 121.265 51.3423 123.345 49.8297 125.362C48.443 127.127 46.7413 128.576 44.7244 129.711C42.7075 130.845 41.1318 132.358 39.9973 134.248C39.7452 135.131 39.4931 136.014 39.2409 136.896C39.1149 137.778 38.9258 138.535 38.6737 139.165H79.3265C82.2262 136.644 85.0624 134.122 87.8355 131.601C90.6086 128.954 93.4453 126.37 96.3444 123.849C99.3695 126.37 102.269 128.954 105.042 131.601C107.815 134.122 110.778 136.644 113.929 139.165C121.241 139.417 128.551 139.48 135.863 139.354C143.174 139.228 150.549 139.165 157.986 139.165C157.733 138.535 157.544 137.967 157.418 137.463C157.292 136.833 157.166 136.203 157.04 135.572C156.41 133.681 155.086 132.106 153.07 130.845C151.179 129.585 149.54 128.261 148.153 126.875C147.019 125.866 146.073 124.732 145.317 123.471C144.561 122.084 143.804 120.635 143.048 119.122H53.8004ZM96.3444 128.387C94.2013 130.404 92.0587 132.358 89.9156 134.248C87.8985 136.14 85.8819 138.093 83.8648 140.11C85.8819 142.127 87.8985 144.081 89.9156 145.972C92.0587 147.737 94.2013 149.691 96.3444 151.833C98.361 149.817 100.441 147.863 102.584 145.972C104.727 144.081 106.87 142.127 109.013 140.11C106.87 138.093 104.727 136.14 102.584 134.248C100.441 132.358 98.361 130.404 96.3444 128.387ZM38.6737 144.46V155.426C48.2539 155.426 57.708 155.489 67.0365 155.615C76.4904 155.615 85.9449 155.552 95.3989 155.426C93.6343 153.787 91.8062 152.086 89.9156 150.321C88.1505 148.43 86.2599 146.791 84.2428 145.405C83.6128 144.775 82.8562 144.523 81.9742 144.649C81.2177 144.649 80.5871 144.586 80.0831 144.46H38.6737ZM107.5 146.539C105.735 147.926 103.971 149.438 102.206 151.077C100.567 152.59 99.0545 154.039 97.668 155.426C107.752 155.552 117.774 155.615 127.732 155.615C137.691 155.489 147.712 155.426 157.796 155.426V144.46C149.981 144.46 142.229 144.46 134.539 144.46C126.85 144.46 118.972 144.523 110.904 144.649C110.022 144.396 109.328 144.586 108.824 145.216C108.445 145.72 108.004 146.161 107.5 146.539ZM86.5119 32.5215C91.4282 33.1518 96.1554 34.4753 100.693 36.4922C105.231 38.5091 109.328 41.0303 112.984 44.0556C116.891 46.9549 120.421 50.3584 123.572 54.2661C126.85 58.0478 129.434 62.2074 131.325 66.7457C134.476 73.1745 136.808 79.9813 138.321 87.1667C139.834 94.2261 141.094 101.348 142.103 108.533H133.783C132.775 102.482 131.703 96.4316 130.569 90.3814C129.56 84.2046 127.921 78.2797 125.652 72.6075C124.014 68.1953 121.934 64.0356 119.413 60.1279C116.891 56.094 113.929 52.4383 110.526 49.1609C107.248 45.5052 103.53 42.4169 99.3696 39.8958C95.2099 37.3746 90.9242 34.9166 86.5119 32.5215ZM53.2332 51.2408C53.8635 50.1063 54.8089 49.1609 56.0694 48.4045C57.33 47.5221 58.5905 47.144 59.8511 47.27C61.4897 47.3961 62.9392 47.7112 64.1998 48.2154C65.4604 48.5936 66.7209 49.0979 67.9815 49.7281C68.738 50.2324 69.116 50.9257 69.116 51.8081C69.116 52.6904 68.99 53.4468 68.738 54.0771C67.7295 53.951 66.7839 53.8249 65.9019 53.6989C65.1454 53.4468 64.3894 53.3207 63.6328 53.3207C61.8682 53.3207 60.2921 53.5728 58.9055 54.0771C57.519 54.4552 56.1325 54.3292 54.7459 53.6989C53.3592 53.1947 52.855 52.3753 53.2332 51.2408ZM29.0304 79.6033C30.2909 80.6119 31.1733 81.8094 31.6776 83.196C32.3078 84.4566 32.1188 85.7801 31.1103 87.1667C30.7322 87.7972 30.1018 88.1123 29.2194 88.1123C28.337 87.9863 27.7068 87.6077 27.3287 86.9777C27.0765 85.5911 27.1395 84.3936 27.5177 83.385C28.0219 82.2504 28.5262 80.9899 29.0304 79.6033Z" fill="#060930"/>
<path d="M62.8768 27.4161C64.0113 28.4245 65.1459 29.559 66.2805 30.8196C67.415 31.9541 68.486 33.0886 69.4946 34.2231C68.234 34.9795 66.6585 35.5467 64.7673 35.9249C63.8853 35.7989 63.0658 35.6097 62.3098 35.3576C61.5532 34.9795 60.6706 34.6643 59.6621 34.4122C58.6541 34.034 57.6455 33.908 56.637 34.0341C55.6285 34.1601 54.6201 34.2231 53.6117 34.2231C54.6201 34.8534 55.6916 35.5467 56.826 36.303C57.9605 37.0594 59.0321 37.7527 60.0406 38.383C55.3765 41.2823 51.1535 44.5597 47.3719 48.2154C43.7162 51.8709 40.3128 55.8417 37.1614 60.1279C34.136 64.2876 31.3627 68.6993 28.8416 73.3635C26.3205 77.9018 23.9254 82.5024 21.6564 87.1667C22.917 88.9313 24.2406 90.4444 25.6272 91.7049C27.0138 92.8395 28.5895 93.9105 30.3543 94.9191C32.3712 93.5325 33.8838 91.8939 34.8923 90.0028C35.9007 88.1123 37.0983 86.2841 38.4849 84.5196C39.1152 84.0156 39.8085 84.0156 40.5649 84.5196C41.3212 84.8976 41.8254 85.4021 42.0775 86.0321C42.8338 87.7973 42.8969 89.4988 42.2666 91.1374C41.6363 92.7759 40.943 94.4781 40.1866 96.2426C43.8423 94.9821 47.0567 93.2805 49.83 91.1374C52.7293 88.9943 55.6916 87.0407 58.7171 85.2761C60.8596 84.2676 63.0028 83.448 65.1459 82.818C67.415 82.1874 69.7466 81.7464 72.1417 81.4939C78.8231 81.3679 85.6299 82.3764 92.5627 84.5196C93.3193 84.6456 93.6973 85.0866 93.6973 85.8431C93.6973 86.4731 93.8233 87.1037 94.0758 87.7337C90.0421 86.3471 85.8819 85.4651 81.5962 85.0866C77.31 84.7086 73.0243 85.0866 68.7386 86.2211C66.3435 87.1037 64.0113 88.3643 61.7422 90.0028C59.5991 91.5154 57.7715 93.3435 56.259 95.4866C54.368 98.1338 52.7923 101.033 51.5317 104.184C50.3972 107.336 49.6409 110.55 49.2627 113.828H149.667C148.28 105.004 146.704 96.0536 144.939 86.9777C143.175 77.9018 140.275 69.2038 136.241 60.8839C132.586 53.6988 127.543 47.396 121.115 41.9756C114.812 36.4291 107.437 32.5214 98.9921 30.2524C93.1933 28.7397 87.2055 27.7312 81.0286 27.227C74.9784 26.7228 68.9276 26.7858 62.8768 27.4161ZM53.8007 119.122C52.6662 121.265 51.3427 123.345 49.83 125.362C48.4434 127.127 46.7416 128.576 44.7247 129.711C42.7078 130.845 41.1321 132.358 39.9976 134.249C39.7455 135.131 39.4934 136.014 39.2413 136.896C39.1152 137.778 38.9261 138.535 38.674 139.165H79.3271C82.2262 136.644 85.0629 134.123 87.836 131.601C90.6091 128.954 93.4453 126.37 96.3444 123.849C99.3701 126.37 102.269 128.954 105.042 131.601C107.816 134.123 110.778 136.644 113.929 139.165C121.241 139.417 128.552 139.48 135.863 139.354C143.175 139.228 150.549 139.165 157.986 139.165C157.734 138.535 157.545 137.967 157.419 137.463C157.293 136.833 157.167 136.203 157.041 135.572C156.41 133.682 155.087 132.106 153.07 130.845C151.179 129.585 149.541 128.261 148.153 126.874C147.019 125.866 146.074 124.732 145.317 123.471C144.561 122.084 143.805 120.634 143.048 119.122H53.8007ZM96.3444 128.387C94.2018 130.404 92.0587 132.358 89.9156 134.249C87.899 136.14 85.8819 138.093 83.8653 140.11C85.8819 142.127 87.899 144.081 89.9156 145.972C92.0587 147.737 94.2018 149.69 96.3444 151.833C98.3615 149.817 100.442 147.863 102.584 145.972C104.727 144.081 106.87 142.127 109.014 140.11C106.87 138.093 104.727 136.14 102.584 134.249C100.442 132.358 98.3615 130.404 96.3444 128.387ZM38.674 144.459V155.426C48.2542 155.426 57.7085 155.489 67.0365 155.615C76.491 155.615 85.9449 155.552 95.3994 155.426C93.6343 153.788 91.8067 152.085 89.9156 150.321C88.151 148.43 86.2599 146.791 84.2433 145.405C83.6128 144.775 82.8568 144.522 81.9742 144.648C81.2182 144.648 80.5876 144.585 80.0836 144.459H38.674ZM107.5 146.539C105.736 147.926 103.971 149.438 102.206 151.077C100.568 152.59 99.0551 154.04 97.668 155.426C107.752 155.552 117.774 155.615 127.732 155.615C137.691 155.489 147.712 155.426 157.797 155.426V144.459C149.982 144.459 142.229 144.459 134.54 144.459C126.85 144.459 118.972 144.522 110.904 144.648C110.022 144.396 109.329 144.585 108.824 145.216C108.446 145.72 108.005 146.161 107.5 146.539ZM86.5125 32.5214C91.4287 33.1517 96.1554 34.4752 100.694 36.4921C105.232 38.509 109.329 41.0302 112.984 44.0555C116.892 46.9548 120.422 50.3583 123.573 54.266C126.85 58.0478 129.435 62.2074 131.325 66.7457C134.477 73.1745 136.808 79.9813 138.322 87.1667C139.834 94.2261 141.095 101.348 142.103 108.533H133.783C132.775 102.482 131.703 96.4316 130.569 90.3808C129.561 84.2046 127.921 78.2798 125.653 72.6069C124.014 68.1953 121.934 64.0356 119.413 60.1279C116.892 56.0939 113.929 52.4382 110.526 49.1608C107.248 45.5051 103.53 42.4168 99.3701 39.8957C95.2104 37.3745 90.9241 34.9165 86.5125 32.5214ZM53.2335 51.2407C53.8637 50.1062 54.8092 49.1608 56.0697 48.4044C57.3305 47.522 58.5911 47.1439 59.8516 47.2699C61.4902 47.396 62.9398 47.7111 64.2003 48.2154C65.4609 48.5935 66.7215 49.0978 67.982 49.728C68.7386 50.2323 69.1166 50.9256 69.1166 51.8079C69.1166 52.6903 68.9906 53.4467 68.7386 54.077C67.73 53.9509 66.7845 53.8248 65.9019 53.6988C65.1459 53.4467 64.3893 53.3206 63.6333 53.3206C61.8682 53.3206 60.2926 53.5727 58.9061 54.077C57.5195 54.4551 56.1328 54.3291 54.7462 53.6988C53.3596 53.1946 52.8553 52.3752 53.2335 51.2407ZM29.0307 79.6033C30.2913 80.6119 31.1737 81.8094 31.6779 83.196C32.3082 84.4566 32.1191 85.7801 31.1107 87.1667C30.7325 87.7967 30.1021 88.1123 29.2198 88.1123C28.3374 87.9863 27.7071 87.6077 27.329 86.9777C27.0769 85.5911 27.1399 84.3936 27.518 83.385C28.0222 82.2504 28.5265 80.9899 29.0307 79.6033Z" fill="#CAE590"/>
</svg>
