<svg width="180" height="180" viewBox="0 0 180 180" fill="none" xmlns="http://www.w3.org/2000/svg">
<path d="M151.572 143.468C151.799 146.75 151.855 150.032 151.742 153.314C151.742 156.484 151.742 159.709 151.742 162.992H33.9198C33.9198 160.049 33.8632 157.049 33.75 153.994C33.75 150.825 33.8066 147.656 33.9198 144.487C34.1461 142.902 34.3725 141.374 34.5989 139.903C34.9384 138.318 35.5609 136.847 36.4664 135.489C37.3718 133.678 38.6168 132.32 40.2013 131.414C41.8991 130.395 43.3704 129.151 44.6154 127.679C46.4263 125.755 47.7279 123.435 48.5202 120.718C49.3125 117.889 50.3877 115.342 51.7458 113.079C53.104 110.362 54.632 107.815 56.3299 105.439C58.0275 102.949 59.7819 100.515 61.5926 98.1388C63.4033 95.6486 65.1577 93.1584 66.8554 90.6688C68.553 88.1786 70.0813 85.5754 71.4392 82.8591C68.7229 77.6531 67.7042 72.1069 68.3837 66.2214C69.1757 61.4678 71.1562 57.2237 74.3254 53.4886C77.4945 49.7536 81.2863 47.3202 85.7003 46.1884C88.0768 45.3961 90.5107 45 93.0004 45C95.4906 45 97.9239 45.3961 100.3 46.1884C102.678 46.8675 104.884 47.9427 106.922 49.4141C108.959 50.7723 110.714 52.47 112.185 54.5073C114.222 56.8839 115.58 59.544 116.259 62.4864C117.052 65.3158 117.448 68.2588 117.448 71.3149C117.448 72.8994 117.221 74.484 116.769 76.0686C116.429 77.6531 116.033 79.1809 115.58 80.6524C115.467 81.1046 115.58 81.6143 115.92 82.1801C117.165 85.0095 118.579 87.7258 120.164 90.3291C121.749 92.8193 123.333 95.3657 124.918 97.9689C126.615 100.459 128.257 103.006 129.841 105.609C131.426 108.098 132.841 110.702 134.085 113.418C134.991 115.342 135.783 117.323 136.462 119.36C137.141 121.285 137.99 123.208 139.009 125.133C139.575 126.151 140.311 127.056 141.216 127.849C142.121 128.641 143.083 129.377 144.102 130.056C145.12 130.735 146.082 131.471 146.988 132.263C147.894 133.055 148.686 134.017 149.365 135.149C150.157 136.394 150.666 137.695 150.893 139.054C151.233 140.412 151.459 141.883 151.572 143.468ZM90.2841 49.4141C87.6808 49.6405 85.1912 50.4327 82.8141 51.7909C80.5506 53.149 78.57 54.9034 76.8724 57.0538C75.2878 59.0912 74.0424 61.4115 73.1374 64.0147C72.3448 66.5044 72.1187 69.0508 72.4579 71.6541C72.5709 74.3704 73.1936 76.9174 74.3254 79.2939C75.4571 81.6705 76.9854 83.7647 78.9092 85.5754C80.8335 87.3866 83.0408 88.8013 85.5304 89.82C88.0206 90.8387 90.6238 91.2909 93.3401 91.1779C96.6223 91.1779 99.7914 90.3859 102.848 88.8013C105.903 87.1037 108.28 84.7834 109.978 81.8404C112.241 78.5582 113.43 74.88 113.543 70.8052C113.77 66.6174 112.864 62.8824 110.827 59.6003C108.789 55.9786 105.847 53.2056 101.998 51.2816C98.2637 49.2443 94.3588 48.6218 90.2841 49.4141ZM72.4579 89.1411C70.9869 91.6307 69.4024 94.0641 67.7042 96.4412C66.0066 98.7047 64.3089 101.025 62.6113 103.402C60.9137 105.779 59.2723 108.212 57.6877 110.702C56.2165 113.192 54.915 115.795 53.7831 118.511C58.0838 118.398 62.3284 118.398 66.5162 118.511C70.704 118.625 74.9481 118.568 79.2489 118.342C81.5124 116.304 83.6629 114.211 85.7003 112.06C87.7376 109.797 89.8881 107.589 92.1516 105.439C94.302 107.589 96.4524 109.74 98.6029 111.89C100.753 114.041 102.904 116.248 105.054 118.511H132.048C130.916 115.682 129.558 113.022 127.974 110.532C126.502 108.042 124.918 105.552 123.22 103.062C121.636 100.572 119.994 98.1388 118.297 95.7617C116.712 93.2721 115.241 90.6688 113.883 87.9525C111.958 90.216 109.752 92.0835 107.261 93.555C104.884 94.9129 102.282 95.9316 99.4517 96.6105C96.6223 97.29 93.7361 97.5161 90.7937 97.29C87.8507 97.0633 85.0213 96.4412 82.305 95.4225C80.4937 94.8566 78.7961 93.951 77.2116 92.7062C75.627 91.4608 74.0424 90.2728 72.4579 89.1411ZM103.696 121.398C101.772 119.473 99.8483 117.55 97.9239 115.625C95.9996 113.701 94.0759 111.777 92.1516 109.853C90.2278 111.777 88.3035 113.701 86.3792 115.625C84.5685 117.55 82.701 119.473 80.7767 121.398C82.701 123.321 84.5685 125.246 86.3792 127.17C88.3035 128.981 90.2278 130.848 92.1516 132.773C94.0759 130.848 95.9996 128.981 97.9239 127.17C99.8483 125.246 101.772 123.321 103.696 121.398ZM42.0688 135.319C40.5975 136.224 39.5788 137.413 39.0129 138.884C38.5602 140.242 38.2206 141.713 37.9943 143.298H147.667C147.441 142.392 147.271 141.6 147.158 140.921C147.045 140.129 146.931 139.393 146.818 138.714C145.913 137.13 144.781 135.885 143.423 134.979C142.178 133.96 140.933 132.942 139.688 131.923C138.443 131.018 137.311 129.886 136.293 128.528C135.387 127.17 134.651 125.755 134.085 124.284C129.219 124.284 124.408 124.227 119.655 124.114C115.014 124.001 110.204 124.114 105.224 124.453C104.432 125.019 103.696 125.642 103.017 126.321C102.451 127 101.772 127.622 100.98 128.188C107.318 129.094 113.43 130.565 119.315 132.603C125.201 134.639 130.69 137.413 135.783 140.921C129.898 138.431 123.842 136.451 117.618 134.979C111.392 133.508 104.998 132.773 98.433 132.773C96.9621 132.659 95.8297 133.169 95.0377 134.3C94.2452 135.432 93.2833 136.394 92.1516 137.186C91.3596 136.394 90.6238 135.658 89.9443 134.979C89.3784 134.3 88.6995 133.565 87.9075 132.773C82.1351 133.338 76.4196 134.13 70.7603 135.149C65.2146 136.168 59.7251 137.639 54.2924 139.563C58.7064 136.734 63.3471 134.47 68.2138 132.773C73.1936 130.961 78.2302 129.603 83.3237 128.698C82.6442 127.792 81.9653 127 81.2863 126.321C80.7204 125.529 79.9847 124.85 79.0791 124.284C74.439 124.057 69.8546 124.001 65.3276 124.114C60.9137 124.227 56.3861 124.284 51.7458 124.284C51.0667 125.755 50.0481 127.509 48.6899 129.547C47.6713 130.678 46.5961 131.697 45.4643 132.603C44.3324 133.508 43.2006 134.413 42.0688 135.319ZM38.1641 158.747C56.3861 158.861 74.6651 158.917 93.0004 158.917C111.336 158.804 129.615 158.747 147.837 158.747C147.837 157.163 147.837 155.522 147.837 153.824C147.837 152.013 147.781 150.259 147.667 148.561C129.445 148.335 111.166 148.278 92.8305 148.391C74.6083 148.391 56.3861 148.391 38.1641 148.391V158.747Z" fill="#060930"/>
<path d="M90.2835 49.4142C87.6803 49.6405 85.1906 50.4328 82.8135 51.791C80.55 53.1492 78.5694 54.9035 76.8718 57.0538C75.2872 59.0912 74.0419 61.4115 73.1368 64.0148C72.3442 66.5044 72.1181 69.0514 72.4573 71.6546C72.5709 74.3709 73.1931 76.9174 74.3248 79.2939C75.4571 81.6711 76.9849 83.7647 78.9086 85.5754C80.8329 87.3866 83.0402 88.8013 85.5298 89.82C88.02 90.8387 90.6233 91.2915 93.3396 91.1779C96.6218 91.1779 99.7909 90.3859 102.847 88.8013C105.902 87.1037 108.28 84.7834 109.977 81.8404C112.241 78.5582 113.429 74.88 113.542 70.8053C113.769 66.618 112.863 62.883 110.826 59.6003C108.789 55.9787 105.846 53.2058 101.998 51.2817C98.2631 49.2444 94.3583 48.6219 90.2835 49.4142ZM72.4573 89.1411C70.9864 91.6307 69.4018 94.0641 67.7042 96.4412C66.006 98.7047 64.3084 101.025 62.6108 103.402C60.9131 105.779 59.2717 108.212 57.6872 110.702C56.216 113.192 54.9145 115.795 53.7827 118.511C58.0838 118.398 62.3278 118.398 66.5156 118.511C70.7034 118.625 74.9475 118.568 79.2484 118.342C81.5119 116.304 83.6623 114.211 85.6997 112.06C87.7371 109.797 89.8875 107.589 92.151 105.439C94.3014 107.589 96.4519 109.74 98.6023 111.89C100.753 114.041 102.903 116.248 105.054 118.511H132.047C130.916 115.682 129.558 113.022 127.973 110.532C126.502 108.042 124.917 105.552 123.22 103.062C121.635 100.572 119.994 98.1388 118.296 95.7623C116.711 93.2721 115.24 90.6688 113.882 87.9525C111.958 90.216 109.751 92.0835 107.261 93.555C104.884 94.9129 102.281 95.9316 99.4511 96.6111C96.6218 97.29 93.7356 97.5161 90.7931 97.29C87.8501 97.0633 85.0207 96.4412 82.3044 95.4225C80.4932 94.8566 78.7956 93.951 77.211 92.7062C75.6264 91.4608 74.0419 90.2728 72.4573 89.1411ZM103.696 121.398C101.771 119.473 99.8477 117.55 97.9234 115.625C95.9991 113.702 94.0753 111.777 92.151 109.853C90.2273 111.777 88.3029 113.702 86.3786 115.625C84.5679 117.55 82.7004 119.473 80.7761 121.398C82.7004 123.322 84.5679 125.246 86.3786 127.17C88.3029 128.981 90.2273 130.848 92.151 132.773C94.0753 130.848 95.9991 128.981 97.9234 127.17C99.8477 125.246 101.771 123.322 103.696 121.398ZM42.0684 135.319C40.597 136.225 39.5783 137.413 39.0125 138.884C38.5597 140.243 38.2202 141.713 37.9938 143.298H147.666C147.44 142.393 147.27 141.6 147.157 140.921C147.044 140.129 146.931 139.394 146.818 138.714C145.913 137.13 144.781 135.885 143.422 134.979C142.177 133.961 140.932 132.942 139.687 131.924C138.442 131.018 137.311 129.886 136.292 128.528C135.386 127.17 134.651 125.755 134.085 124.284C129.218 124.284 124.408 124.227 119.654 124.114C115.014 124.001 110.203 124.114 105.224 124.454C104.432 125.02 103.696 125.642 103.017 126.321C102.451 127 101.771 127.623 100.979 128.189C107.318 129.094 113.429 130.565 119.315 132.603C125.2 134.64 130.69 137.413 135.782 140.921C129.897 138.431 123.842 136.451 117.617 134.979C111.392 133.508 104.997 132.773 98.4324 132.773C96.9615 132.659 95.8298 133.169 95.0372 134.3C94.2452 135.432 93.2828 136.394 92.151 137.186C91.359 136.394 90.6232 135.659 89.9443 134.979C89.3784 134.3 88.6989 133.565 87.9069 132.773C82.1346 133.338 76.419 134.13 70.7597 135.149C65.214 136.168 59.7246 137.639 54.2919 139.563C58.7059 136.734 63.3465 134.47 68.2132 132.773C73.1931 130.961 78.2297 129.603 83.3231 128.698C82.6436 127.792 81.9647 127 81.2857 126.321C80.7199 125.529 79.9841 124.85 79.0785 124.284C74.4384 124.057 69.8546 124.001 65.3271 124.114C60.9131 124.227 56.3856 124.284 51.7453 124.284C51.0663 125.755 50.0476 127.509 48.6895 129.547C47.6708 130.678 46.5956 131.697 45.4638 132.603C44.332 133.508 43.2002 134.413 42.0684 135.319ZM38.1636 158.748C56.3856 158.861 74.6646 158.918 92.9998 158.918C111.336 158.804 129.614 158.748 147.836 158.748C147.836 157.163 147.836 155.522 147.836 153.824C147.836 152.013 147.78 150.259 147.666 148.561C129.444 148.335 111.166 148.278 92.8305 148.391C74.6078 148.391 56.3856 148.391 38.1636 148.391V158.748Z" fill="#CAE590"/>
</svg>
