<svg width="180" height="180" viewBox="0 0 180 180" fill="none" xmlns="http://www.w3.org/2000/svg">
<path d="M89.3211 28.2195C91.5902 27.9674 93.7963 28.2195 95.9395 28.9759C98.082 29.7322 99.9101 30.8667 101.423 32.3794C103.061 33.8921 104.322 35.6569 105.204 37.6738C106.087 39.6907 106.402 41.7706 106.15 43.9135C106.276 46.0565 105.708 48.0103 104.448 49.7751C103.313 51.4138 102.242 53.0526 101.234 54.6913C100.982 55.4476 100.919 56.2669 101.045 57.1494C101.297 58.032 101.549 58.851 101.801 59.6075C102.431 62.7587 103.124 65.9734 103.881 69.2511C104.637 72.4022 105.582 75.4273 106.717 78.327C107.726 75.9319 108.734 73.5997 109.742 71.3306C110.751 68.9355 111.759 66.4774 112.768 63.9562C113.272 63.3262 113.272 62.7587 112.768 62.2547C112.263 61.7507 112.011 61.2461 112.011 60.7421C109.995 57.5904 109.364 54.1871 110.121 50.5314C110.877 46.7498 112.768 43.7875 115.793 41.6445C117.558 40.0058 119.575 38.9343 121.844 38.4301C124.239 37.9259 126.445 37.9259 128.462 38.4301C132.117 39.3125 135.08 41.1403 137.348 43.9135C139.744 46.5607 140.878 49.523 140.752 52.8005C141.13 56.078 140.185 59.1666 137.916 62.0657C135.773 64.8388 133.063 66.7929 129.785 67.9275C129.281 70.8266 128.84 73.7887 128.462 76.8144C128.21 79.8395 127.895 82.9277 127.517 86.0794C128.147 85.7014 128.903 85.3858 129.785 85.1338C130.668 84.7558 131.424 84.2512 132.054 83.6212C132.937 82.9907 133.315 82.1717 133.189 81.1631C133.063 80.0285 133.252 79.083 133.756 78.327C134.764 74.5453 136.718 71.5196 139.618 69.2511C142.643 66.9819 146.172 66.1624 150.206 66.7929C152.223 66.7929 154.114 67.2969 155.879 68.3055C157.769 69.188 159.346 70.3851 160.606 71.8982C161.993 73.2847 163.001 74.9863 163.631 77.0034C164.262 78.894 164.451 80.8481 164.199 82.8647C164.072 86.2684 162.686 89.357 160.039 92.1302C157.391 94.7773 154.366 96.2269 150.963 96.4789H145.479C144.345 98.622 143.273 100.765 142.265 102.908C141.383 104.925 140.437 107.067 139.429 109.336C140.059 112.236 140.752 115.135 141.509 118.034C142.265 120.808 143.651 123.392 145.668 125.787C146.803 126.921 148.064 127.993 149.45 129.001C150.963 130.01 152.223 131.018 153.232 132.027C155.375 133.666 156.698 135.619 157.202 137.888C157.833 140.158 158.211 142.49 158.337 144.884C158.463 148.036 158.463 151.313 158.337 154.717C158.337 158.12 158.337 161.587 158.337 165.116H22.7637C22.7637 161.461 22.7006 157.931 22.5745 154.528C22.5745 150.998 22.7006 147.595 22.9527 144.317C23.0788 142.553 23.2679 140.851 23.52 139.212C23.8982 137.447 24.5284 135.934 25.4108 134.674C26.9235 132.531 28.8143 130.829 31.0833 129.568C33.3523 128.182 35.2432 126.48 36.7558 124.463C38.2685 122.194 39.403 119.8 40.1594 117.278C41.0418 114.631 41.672 111.984 42.0502 109.336C41.0418 107.067 39.9703 104.925 38.8358 102.908C37.7013 100.765 36.6298 98.622 35.6213 96.4789C33.6044 96.7309 31.5245 96.6679 29.3816 96.2899C27.2386 95.9119 25.2848 95.0293 23.52 93.6427C21.6291 92.5082 20.1165 90.9956 18.982 89.1045C17.8475 87.0879 17.1541 85.0708 16.902 83.0542C16.776 80.9111 17.0911 78.768 17.8475 76.6249C18.6038 74.4823 19.8013 72.6542 21.44 71.1416C23.583 68.6205 26.4192 67.1079 29.9488 66.6034C33.4784 66.0994 36.8188 66.6034 39.9702 68.1165C41.3569 68.7465 42.4914 69.6291 43.3738 70.7636C44.3823 71.8982 45.2647 72.9697 46.021 73.9777C46.9034 75.3643 47.4076 76.8144 47.5337 78.327C47.6597 79.8395 47.9119 81.2891 48.29 82.6757C49.0464 83.4322 49.8657 84.1252 50.7481 84.7558C51.7565 85.2598 52.7019 85.7014 53.5843 86.0794C53.2062 82.9277 52.828 79.8395 52.4499 76.8144C52.1978 73.7887 51.8196 70.8266 51.3154 67.9275C49.6766 67.0449 48.0379 66.0364 46.3992 64.9018C44.8865 63.7672 43.6889 62.4437 42.8065 60.9311C41.1678 58.41 40.4115 55.6367 40.5375 52.6114C40.6636 49.586 41.609 46.6868 43.3738 43.9135C45.5168 41.1403 48.4161 39.3755 52.0717 38.6192C55.8534 37.7368 59.3201 37.9259 62.4713 39.1864C64.4884 40.1949 66.19 41.5184 67.5765 43.1572C68.9631 44.7959 69.9716 46.5607 70.6016 48.4515C71.2322 50.3424 71.4842 52.3593 71.3582 54.5022C71.2322 56.5189 70.6652 58.473 69.6566 60.3641C69.4046 60.9941 69.0261 61.6247 68.5221 62.2547C68.0175 62.7587 67.9545 63.3892 68.3331 64.1458C69.4676 66.6669 70.5386 69.0615 71.5472 71.3306C72.6818 73.5997 73.8163 75.9319 74.9509 78.327C75.9594 74.5453 76.905 70.7636 77.787 66.9819C78.6696 63.0742 79.6151 59.1665 80.6231 55.2586C79.6151 53.6198 78.5436 52.1072 77.409 50.7206C76.2744 49.3339 75.6439 47.6952 75.5179 45.8044C75.1399 43.7875 75.2029 41.7706 75.7074 39.7537C76.3374 37.6107 77.283 35.7199 78.5436 34.0812C79.8041 32.4425 81.3797 31.1188 83.2708 30.1104C85.1614 28.9759 87.1785 28.3456 89.3211 28.2195ZM89.3211 32.7576C86.4219 33.1357 83.9638 34.4593 81.9467 36.7283C80.0561 38.8713 79.3626 41.2033 79.8671 43.7245C79.8671 45.2371 80.2451 46.6868 81.0017 48.0734C81.8837 49.46 82.9553 50.6576 84.2158 51.666C85.4764 52.5483 86.8629 53.2417 88.3761 53.7459C90.0146 54.1241 91.5902 54.1241 93.1028 53.7459C94.7419 53.3677 96.1285 52.6744 97.263 51.666C98.5236 50.5315 99.4686 49.2709 100.099 47.8843C100.855 46.4977 101.234 44.985 101.234 43.3463C101.36 41.7076 101.108 40.1949 100.477 38.8083C99.4686 36.6653 97.893 35.0266 95.7499 33.8921C93.6073 32.7576 91.4642 32.3794 89.3211 32.7576ZM54.3407 42.779C51.6935 43.1572 49.4245 44.4808 47.5337 46.7498C45.6428 49.0188 44.8234 51.4138 45.0756 53.935C45.0756 55.5737 45.4537 57.0864 46.2101 58.473C46.9664 59.7335 47.9118 60.8051 49.0463 61.6877C50.3069 62.5697 51.6935 63.2002 53.2062 63.5782C54.8449 63.9562 56.4204 64.0192 57.933 63.7672C60.5807 63.1372 62.8493 61.6247 64.7404 59.2296C66.631 56.8344 67.3245 54.2501 66.8205 51.4769C66.4419 48.8297 65.0554 46.6238 62.6603 44.859C60.2651 43.0942 57.492 42.4008 54.3407 42.779ZM123.545 42.9681C120.646 43.2202 118.314 44.6069 116.549 47.128C114.784 49.5231 114.028 51.9811 114.28 54.5022C114.784 56.6454 115.73 58.536 117.116 60.1745C118.63 61.8137 120.457 62.8852 122.6 63.3892C124.365 64.0192 126.066 64.0822 127.706 63.5782C129.47 63.0742 130.983 62.2547 132.243 61.1201C133.63 59.9855 134.638 58.662 135.269 57.1494C136.025 55.5107 136.214 53.809 135.836 52.0442C135.836 50.6576 135.458 49.397 134.701 48.2625C133.945 47.0019 133 45.9304 131.865 45.048C130.731 44.1656 129.407 43.5353 127.895 43.1572C126.508 42.779 125.058 42.716 123.545 42.9681ZM84.2158 58.851C82.9553 64.5238 81.6317 70.133 80.2451 75.6799C78.9846 81.2261 77.724 86.7724 76.4634 92.3192C74.4469 88.5375 72.4928 84.5668 70.6016 80.4065C68.8371 76.2469 66.8835 72.1502 64.7404 68.1165C63.4798 68.6205 62.2193 69.1245 60.9587 69.629C59.6981 70.133 58.3746 70.5116 56.988 70.7636C57.24 74.7973 57.555 78.831 57.933 82.8647C58.4376 86.8989 58.8786 90.9326 59.2571 94.9663C57.492 93.7057 55.6643 92.5712 53.7734 91.5626C52.0086 90.554 50.2439 89.483 48.4791 88.3485C47.4706 90.113 46.3361 91.6256 45.0756 92.8862C43.815 94.1467 42.4914 95.3443 41.1048 96.4789C41.9872 98.496 42.8696 100.513 43.752 102.53C44.7604 104.42 45.6428 106.311 46.3992 108.202C46.5252 109.588 46.4622 111.039 46.2101 112.551C45.958 114.064 45.7058 115.387 45.4537 116.522H135.647C135.521 114.757 135.206 112.992 134.701 111.228C134.197 109.462 134.512 107.635 135.647 105.744C136.403 104.357 137.159 102.908 137.916 101.395C138.798 99.8826 139.618 98.244 140.374 96.4789C138.735 95.3443 137.285 94.2097 136.025 93.0752C134.764 91.8146 133.567 90.365 132.432 88.7265C130.668 89.735 128.966 90.7436 127.327 91.7516C125.688 92.6342 123.987 93.7057 122.222 94.9663C122.474 90.9326 122.852 86.8989 123.356 82.8647C123.987 78.831 124.428 74.7973 124.68 70.7636C123.293 70.5116 121.844 70.133 120.331 69.629C118.819 69.1245 117.495 68.6835 116.36 68.3055C114.217 72.3392 112.263 76.4359 110.499 80.5961C108.86 84.6298 107.032 88.5375 105.015 92.3192C103.629 86.7724 102.242 81.2261 100.855 75.6799C99.5946 70.133 98.271 64.5238 96.8844 58.851C92.7248 60.3641 88.5021 60.3641 84.2158 58.851ZM32.0288 70.7636C30.5161 70.8896 29.0664 71.3306 27.6798 72.0872C26.2932 72.7172 25.0957 73.5997 24.0872 74.7343C23.2048 75.7429 22.5115 76.9404 22.0073 78.327C21.6291 79.7135 21.5661 81.1631 21.8182 82.6757C21.8182 84.0622 22.1334 85.3228 22.7637 86.4574C23.52 87.5919 24.4023 88.6005 25.4108 89.483C26.5453 90.365 27.7428 91.0586 29.0034 91.5626C30.39 91.9412 31.7766 92.0672 33.1633 91.9412C36.1886 91.9412 38.7097 90.7436 40.7266 88.3485C42.7435 85.9534 43.4999 83.3692 42.9957 80.5961C42.9957 77.6964 41.8611 75.3013 39.5921 73.4107C37.4492 71.5196 34.9281 70.6376 32.0288 70.7636ZM148.316 70.7636C145.416 70.7636 143.021 71.8352 141.13 73.9777C139.24 76.1209 138.294 78.516 138.294 81.1631C138.042 82.6757 138.168 84.1252 138.672 85.5118C139.303 86.7724 140.122 87.9069 141.13 88.9155C142.139 89.924 143.336 90.7436 144.723 91.3736C146.235 91.8776 147.812 92.0672 149.45 91.9412C151.089 91.9412 152.601 91.5626 153.988 90.8066C155.501 90.05 156.698 89.0415 157.58 87.7809C158.463 86.5204 159.03 85.1338 159.283 83.6212C159.661 81.9827 159.661 80.4065 159.283 78.894C158.652 76.3729 157.265 74.4193 155.122 73.0327C152.98 71.5196 150.711 70.7636 148.316 70.7636ZM42.9957 122.762C41.9872 125.283 40.2854 127.678 37.8903 129.947C36.8819 130.955 35.7474 131.901 34.4868 132.783C33.2263 133.539 32.0918 134.422 31.0833 135.43C29.9488 136.439 29.1295 137.699 28.6252 139.212C28.121 140.599 27.6798 141.985 27.3016 143.372C36.1256 143.372 44.8864 143.372 53.5843 143.372C62.4083 143.372 71.3582 143.309 80.4341 143.183C82.3253 141.418 84.1528 139.59 85.9179 137.699C87.8085 135.682 89.9516 133.855 92.3468 132.216C94.3633 133.981 96.2544 135.871 98.019 137.888C99.9101 139.905 101.864 141.67 103.881 143.183C112.453 143.435 120.835 143.498 129.029 143.372C137.222 143.246 145.542 143.183 153.988 143.183C153.484 142.174 153.106 141.166 152.854 140.158C152.728 139.149 152.412 138.14 151.908 137.132C150.9 135.745 149.513 134.548 147.749 133.539C146.109 132.531 144.597 131.397 143.21 130.136C142.328 129.127 141.446 127.993 140.563 126.732C139.807 125.346 139.114 124.022 138.483 122.762C122.6 122.762 106.717 122.762 90.8342 122.762C74.9509 122.636 59.0046 122.636 42.9957 122.762ZM79.4891 149.233C81.5057 150.998 83.5228 152.889 85.5394 154.906C87.6825 156.797 89.8886 158.687 92.1578 160.579C94.3003 158.561 96.3804 156.545 98.397 154.528C100.414 152.385 102.368 150.242 104.259 148.099C102.242 146.46 100.225 144.632 98.208 142.616C96.3174 140.599 94.3003 138.518 92.1578 136.376C90.0146 138.644 87.8085 140.851 85.5394 142.994C83.2708 145.011 81.2537 147.09 79.4891 149.233ZM27.6798 149.044V160.39C37.5122 160.39 47.3446 160.453 57.177 160.579C67.0095 160.579 76.8414 160.516 86.6739 160.39C84.5314 158.372 82.4513 156.419 80.4341 154.528C78.4176 152.637 76.5265 150.809 74.7619 149.044C66.82 148.918 58.8786 148.918 50.9371 149.044C43.1217 149.044 35.3692 149.044 27.6798 149.044ZM108.986 149.233C106.843 150.872 104.826 152.7 102.935 154.717C101.045 156.608 99.1536 158.498 97.263 160.39C106.717 160.516 116.108 160.579 125.436 160.579C134.89 160.453 144.219 160.39 153.421 160.39V149.044C146.235 149.17 138.925 149.107 131.487 148.855C124.05 148.477 116.549 148.603 108.986 149.233Z" fill="#060930"/>
<path d="M89.3216 32.7575C86.4225 33.1356 83.9644 34.4593 81.9472 36.7283C80.0567 38.8712 79.3631 41.2032 79.8671 43.7244C79.8671 45.237 80.2457 46.6867 81.0017 48.0733C81.8842 49.4599 82.9558 50.6575 84.2164 51.6659C85.4769 52.5483 86.8635 53.2416 88.376 53.7458C90.0146 54.124 91.5907 54.124 93.1033 53.7458C94.7419 53.3676 96.1284 52.6744 97.263 51.6659C98.5235 50.5314 99.4691 49.2708 100.099 47.8842C100.856 46.4976 101.234 44.9849 101.234 43.3462C101.36 41.7075 101.108 40.1948 100.478 38.8082C99.4691 36.6652 97.8935 35.0265 95.7504 33.892C93.6073 32.7575 91.4647 32.3793 89.3216 32.7575ZM54.341 42.779C51.6938 43.1571 49.4248 44.4807 47.534 46.7497C45.6431 49.0187 44.8237 51.4138 45.0759 53.9349C45.0759 55.5737 45.454 57.0864 46.2104 58.473C46.9667 59.7336 47.9121 60.8051 49.0466 61.6871C50.3072 62.5697 51.6938 63.2003 53.2065 63.5783C54.8452 63.9563 56.421 64.0193 57.9335 63.7673C60.5807 63.1373 62.8498 61.6241 64.7404 59.229C66.6315 56.8344 67.3245 54.2501 66.8205 51.4769C66.4425 48.8297 65.0559 46.6237 62.6608 44.8589C60.2657 43.0941 57.4925 42.4008 54.341 42.779ZM123.546 42.968C120.647 43.2201 118.315 44.6068 116.549 47.1279C114.785 49.523 114.028 51.981 114.281 54.5021C114.785 56.6449 115.73 58.536 117.117 60.1746C118.63 61.8131 120.458 62.8847 122.6 63.3893C124.365 64.0193 126.067 64.0823 127.705 63.5783C129.471 63.0743 130.983 62.2547 132.244 61.1201C133.63 59.9856 134.639 58.662 135.269 57.1494C136.025 55.5106 136.214 53.8089 135.836 52.0441C135.836 50.6575 135.458 49.3969 134.702 48.2624C133.945 47.0018 133 45.9303 131.866 45.048C130.731 44.1656 129.408 43.5353 127.894 43.1571C126.508 42.7789 125.058 42.7159 123.546 42.968ZM84.2164 58.851C82.9558 64.5238 81.6322 70.1331 80.2457 75.6793C78.9851 81.2261 77.7245 86.7724 76.464 92.3192C74.4469 88.5375 72.4933 84.5668 70.6022 80.4066C68.8376 76.2469 66.8835 72.1502 64.7404 68.1165C63.4798 68.6205 62.2192 69.1245 60.9587 69.6291C59.6981 70.1331 58.3745 70.5111 56.988 70.7636C57.2405 74.7973 57.5555 78.831 57.9335 82.8647C58.4375 86.8984 58.8791 90.9326 59.2571 94.9663C57.4925 93.7058 55.6646 92.5712 53.7737 91.5626C52.009 90.5541 50.2442 89.4825 48.4794 88.3479C47.4709 90.1131 46.3364 91.6256 45.0759 92.8862C43.8153 94.1468 42.4917 95.3443 41.1051 96.4789C41.9875 98.496 42.8699 100.513 43.7523 102.53C44.7608 104.42 45.6431 106.311 46.3995 108.202C46.5255 109.589 46.4625 111.038 46.2104 112.551C45.9583 114.064 45.7061 115.387 45.454 116.522H135.647C135.521 114.757 135.206 112.992 134.702 111.228C134.197 109.463 134.513 107.635 135.647 105.744C136.403 104.357 137.16 102.908 137.916 101.395C138.799 99.8826 139.618 98.2434 140.374 96.4789C138.736 95.3443 137.286 94.2098 136.025 93.0752C134.765 91.8146 133.567 90.3651 132.433 88.7265C130.668 89.7351 128.966 90.7431 127.327 91.7516C125.689 92.6342 123.987 93.7058 122.222 94.9663C122.474 90.9326 122.852 86.8984 123.357 82.8647C123.987 78.831 124.428 74.7973 124.68 70.7636C123.294 70.5111 121.844 70.1331 120.331 69.6291C118.819 69.1245 117.495 68.6835 116.36 68.3055C114.218 72.3392 112.264 76.4359 110.499 80.5956C108.86 84.6298 107.032 88.5375 105.015 92.3192C103.629 86.7724 102.242 81.2261 100.856 75.6793C99.5951 70.1331 98.2715 64.5238 96.885 58.851C92.7253 60.3636 88.502 60.3636 84.2164 58.851ZM32.0291 70.7636C30.5164 70.8896 29.0667 71.3306 27.6802 72.0872C26.2935 72.7172 25.096 73.5998 24.0875 74.7343C23.2051 75.7429 22.5118 76.9399 22.0076 78.327C21.6294 79.7136 21.5664 81.1631 21.8185 82.6757C21.8185 84.0623 22.1337 85.3228 22.764 86.4574C23.5203 87.5919 24.4026 88.6005 25.4111 89.4825C26.5456 90.3651 27.7432 91.0586 29.0037 91.5626C30.3903 91.9406 31.777 92.0666 33.1636 91.9406C36.1889 91.9406 38.7101 90.7431 40.7269 88.3479C42.7438 85.9534 43.5002 83.3693 42.996 80.5956C42.996 77.6964 41.8615 75.3013 39.5924 73.4108C37.4495 71.5196 34.9284 70.6371 32.0291 70.7636ZM148.316 70.7636C145.416 70.7636 143.021 71.8346 141.131 73.9778C139.24 76.1209 138.295 78.516 138.295 81.1631C138.042 82.6757 138.169 84.1253 138.673 85.5118C139.303 86.7724 140.122 87.9069 141.131 88.9155C142.139 89.9241 143.337 90.7431 144.723 91.3736C146.236 91.8776 147.811 92.0666 149.45 91.9406C151.089 91.9406 152.602 91.5626 153.988 90.8061C155.501 90.0501 156.698 89.0415 157.581 87.7809C158.464 86.5204 159.031 85.1338 159.283 83.6213C159.661 81.9821 159.661 80.4066 159.283 78.894C158.653 76.3729 157.266 74.4188 155.123 73.0322C152.98 71.5196 150.711 70.7636 148.316 70.7636ZM42.996 122.762C41.9875 125.283 40.2857 127.678 37.8907 129.947C36.8822 130.955 35.7477 131.901 34.4871 132.783C33.2266 133.539 32.0921 134.422 31.0836 135.43C29.9491 136.439 29.1298 137.699 28.6256 139.212C28.1213 140.599 27.6801 141.985 27.3019 143.372C36.1259 143.372 44.8868 143.372 53.5846 143.372C62.4088 143.372 71.3587 143.309 80.4347 143.183C82.3252 141.418 84.1534 139.59 85.9179 137.699C87.809 135.682 89.9516 133.855 92.3467 132.216C94.3639 133.981 96.2544 135.871 98.0195 137.888C99.9101 139.905 101.864 141.67 103.881 143.183C112.453 143.435 120.836 143.498 129.029 143.372C137.223 143.246 145.542 143.183 153.988 143.183C153.484 142.174 153.106 141.166 152.854 140.157C152.728 139.149 152.413 138.14 151.908 137.132C150.9 135.745 149.514 134.548 147.748 133.539C146.11 132.531 144.597 131.397 143.211 130.136C142.328 129.127 141.446 127.993 140.563 126.732C139.807 125.346 139.114 124.022 138.484 122.762C122.6 122.762 106.717 122.762 90.8342 122.762C74.9514 122.636 59.0051 122.636 42.996 122.762ZM79.4891 149.233C81.5062 150.998 83.5228 152.889 85.5399 154.906C87.683 156.797 89.8886 158.687 92.1577 160.579C94.3009 158.561 96.3804 156.544 98.3975 154.528C100.415 152.385 102.368 150.242 104.259 148.099C102.242 146.46 100.226 144.632 98.2085 142.615C96.3174 140.599 94.3009 138.518 92.1577 136.376C90.0146 138.644 87.809 140.851 85.5399 142.994C83.2708 145.01 81.2542 147.09 79.4891 149.233ZM27.6802 149.044V160.39C37.5125 160.39 47.3449 160.453 57.177 160.579C67.0095 160.579 76.842 160.516 86.6745 160.39C84.5314 158.372 82.4512 156.418 80.4347 154.528C78.4175 152.637 76.527 150.809 74.7619 149.044C66.8205 148.918 58.8791 148.918 50.9374 149.044C43.122 149.044 35.3695 149.044 27.6802 149.044ZM108.986 149.233C106.843 150.872 104.826 152.7 102.936 154.717C101.045 156.608 99.1541 158.498 97.263 160.39C106.717 160.516 116.108 160.579 125.437 160.579C134.891 160.453 144.219 160.39 153.421 160.39V149.044C146.236 149.17 138.925 149.108 131.487 148.855C124.05 148.477 116.549 148.603 108.986 149.233Z" fill="#CAE590"/>
</svg>
