<svg width="180" height="180" viewBox="0 0 180 180" fill="none" xmlns="http://www.w3.org/2000/svg">
<path d="M143.797 103.711C143.545 104.593 143.293 105.539 143.041 106.548C142.915 107.556 142.474 108.501 141.717 109.384C141.339 109.888 140.898 110.455 140.394 111.085C139.89 111.716 139.764 112.409 140.016 113.165C140.268 115.687 140.961 118.082 142.096 120.351C143.356 122.493 144.806 124.573 146.445 126.591C147.831 128.355 149.533 129.805 151.55 130.939C153.693 132.074 155.647 133.46 157.412 135.099C158.42 136.486 159.05 137.872 159.302 139.259C159.681 140.646 159.996 142.032 160.248 143.419C160.5 147.327 160.626 151.108 160.626 154.764C160.626 158.42 160.5 162.138 160.248 165.92H22.9727C23.0988 161.886 23.0357 157.852 22.7836 153.818C22.6575 149.785 22.7836 145.751 23.1618 141.717C23.2878 139.826 23.9181 138.062 25.0526 136.423C26.1871 134.784 27.6367 133.46 29.4015 132.452C31.5445 131.191 33.3723 129.868 34.885 128.481C36.5237 127.095 37.8473 125.392 38.8557 123.376C39.9902 121.359 40.9357 119.405 41.692 117.514C42.5744 115.624 43.0786 113.732 43.2047 111.842C42.5744 110.707 41.692 109.888 40.5575 109.384C39.5491 108.753 38.9188 107.871 38.6667 106.737C38.1625 103.837 37.8473 101.001 37.7212 98.2277C37.5952 95.4546 37.091 92.7444 36.2086 90.0973C35.0741 88.8367 33.5614 87.8282 31.6706 87.0716C29.9058 86.3156 28.7082 85.1181 28.078 83.4789C25.6829 77.8067 24.1072 72.0709 23.3509 66.2726C22.5945 60.4738 22.3424 54.6123 22.5945 48.6877C22.5945 48.0574 22.6575 47.4271 22.7836 46.7968C22.9097 46.0405 23.2878 45.5363 23.9181 45.2842C26.4392 43.7715 29.0234 42.5739 31.6706 41.6915C34.3178 40.8091 37.028 39.9268 39.8012 39.0444C40.4315 41.3134 41.0618 43.4563 41.692 45.4732C42.3223 47.4901 43.0787 49.57 43.961 51.713C46.8603 51.5869 49.6966 51.4609 52.4698 51.3348C55.3691 51.2088 58.2682 51.0197 61.1679 50.7676C60.9154 48.1204 60.6004 45.4732 60.2224 42.8261C59.8444 40.1789 59.5288 37.5317 59.2768 34.8846C65.8316 34.3803 72.576 34.0021 79.5088 33.75C79.7608 36.5232 79.8868 39.2965 79.8868 42.0697C80.0134 44.843 80.2024 47.6792 80.4544 50.5785H101.632C101.884 47.6792 102.01 44.843 102.01 42.0697C102.01 39.2965 102.136 36.5232 102.388 33.75C105.918 34.0021 109.447 34.1912 112.977 34.3173C116.632 34.4433 120.162 34.6325 123.565 34.8846C123.313 37.5317 122.998 40.1789 122.62 42.8261C122.242 45.4732 121.927 48.1204 121.674 50.7676C124.7 51.0197 127.662 51.2088 130.562 51.3348C133.461 51.4609 136.423 51.5239 139.449 51.5239C140.079 49.507 140.772 47.4901 141.528 45.4732C142.285 43.4563 142.978 41.3764 143.608 39.2334C146.382 39.8637 149.029 40.6831 151.55 41.6915C154.197 42.5739 156.718 43.8345 159.113 45.4732C160.122 45.8514 160.752 46.7968 161.004 48.3095C161.634 51.5869 161.823 54.8644 161.571 58.1417C161.319 61.2934 161.004 64.5705 160.626 67.9742C159.744 70.9993 158.798 74.088 157.79 77.2391C156.781 80.2648 155.269 83.1009 153.251 85.7481C152.243 86.7566 151.109 87.5762 149.848 88.2062C148.588 88.7107 147.453 89.3407 146.445 90.0973C145.815 92.3659 145.31 94.635 144.932 96.9041C144.554 99.1732 144.175 101.442 143.797 103.711ZM75.5381 149.848C75.2861 149.47 75.0341 149.154 74.7815 148.902C74.6555 148.65 74.4665 148.398 74.2145 148.146C74.5925 147.768 75.0341 147.327 75.5381 146.823C76.0421 146.318 76.5467 145.877 77.0507 145.498H29.7797C29.7797 146.381 29.7167 147.201 29.5906 147.957C29.5906 148.587 29.6536 149.217 29.7797 149.848C37.4691 149.848 45.0325 149.911 52.4698 150.037C60.0334 150.037 67.7227 149.974 75.5381 149.848ZM46.4191 108.438C46.6712 108.943 47.0494 109.384 47.5536 109.762C48.0579 110.014 48.436 110.455 48.6881 111.085C62.5545 111.085 76.4207 111.148 90.2869 111.274C104.153 111.274 118.145 111.211 132.263 111.085C133.272 111.464 134.154 111.274 134.911 110.518C135.667 109.762 136.36 109.069 136.991 108.438C121.864 108.186 106.737 108.123 91.6104 108.249C76.6097 108.375 61.5459 108.438 46.4191 108.438ZM91.9884 159.68C94.0055 157.915 96.0851 156.088 98.2282 154.196C100.371 152.18 102.577 150.226 104.846 148.335C102.577 146.192 100.371 144.238 98.2282 142.473C96.0851 140.583 94.0055 138.755 91.9884 136.99C87.5767 140.393 83.2275 144.175 78.9418 148.335C81.0844 150.226 83.2275 152.18 85.3706 154.196C87.6397 156.088 89.8453 157.915 91.9884 159.68ZM107.115 145.498C107.619 145.877 108.061 146.318 108.439 146.823C108.943 147.327 109.384 147.768 109.762 148.146C109.51 148.398 109.321 148.65 109.195 148.902C109.069 149.154 108.943 149.47 108.817 149.848C116.128 149.974 123.439 150.037 130.751 150.037C138.062 149.911 145.499 149.848 153.062 149.848V145.498H107.115ZM134.722 89.7187C136.864 89.9713 138.818 89.6557 140.583 88.7737C142.474 87.8912 144.301 86.9456 146.067 85.9371H35.8305C37.4691 86.8196 39.1709 87.7022 40.9357 88.5842C42.7005 89.4667 44.5283 89.8447 46.4191 89.7187H134.722Z" fill="#060930"/>
<path d="M75.5376 149.848C75.2856 149.47 75.0336 149.154 74.7816 148.902C74.6556 148.65 74.466 148.398 74.214 148.146C74.5926 147.768 75.0336 147.327 75.5376 146.823C76.0421 146.318 76.5461 145.877 77.0507 145.499H29.7794C29.7794 146.381 29.7164 147.201 29.5903 147.957C29.5903 148.587 29.6533 149.217 29.7794 149.848C37.4688 149.848 45.0321 149.911 52.4694 150.037C60.0328 150.037 67.7222 149.974 75.5376 149.848ZM46.4188 108.438C46.6709 108.943 47.0491 109.384 47.5533 109.762C48.0575 110.014 48.4357 110.455 48.6878 111.085C62.5539 111.085 76.4201 111.148 90.2863 111.274C104.152 111.274 118.145 111.211 132.263 111.085C133.271 111.464 134.154 111.274 134.91 110.518C135.667 109.762 136.36 109.069 136.99 108.438C121.863 108.186 106.737 108.123 91.6099 108.249C76.6091 108.375 61.5454 108.438 46.4188 108.438ZM91.9879 159.68C94.005 157.915 96.0851 156.088 98.2277 154.196C100.371 152.18 102.577 150.226 104.846 148.335C102.577 146.192 100.371 144.239 98.2277 142.473C96.0851 140.583 94.005 138.755 91.9879 136.99C87.5762 140.394 83.2269 144.175 78.9412 148.335C81.0844 150.226 83.2269 152.18 85.3701 154.196C87.6392 156.088 89.8453 157.915 91.9879 159.68ZM107.115 145.499C107.619 145.877 108.06 146.318 108.438 146.823C108.943 147.327 109.384 147.768 109.762 148.146C109.51 148.398 109.321 148.65 109.195 148.902C109.069 149.154 108.943 149.47 108.817 149.848C116.128 149.974 123.439 150.037 130.75 150.037C138.062 149.911 145.499 149.848 153.062 149.848V145.499H107.115ZM134.721 89.7188C136.864 89.9713 138.818 89.6558 140.583 88.7738C142.473 87.8912 144.301 86.9456 146.066 85.9371H35.8301C37.4688 86.8196 39.1705 87.7022 40.9353 88.5842C42.7001 89.4668 44.5279 89.8453 46.4188 89.7188H134.721Z" fill="#6D6FA0"/>
</svg>
